<?xml version="1.0"?>
<!-- Generator: Adobe Illustrator 18.1.1, SVG Export Plug-In . SVG Version: 6.00 Build 0)  -->
<!DOCTYPE svg PUBLIC "-//W3C//DTD SVG 1.0//EN" "http://www.w3.org/TR/2001/REC-SVG-20010904/DTD/svg10.dtd"[
	<!ENTITY ns_flows "http://ns.adobe.com/Flows/1.0/">
	<!ENTITY ns_svg "http://www.w3.org/2000/svg">
	<!ENTITY ns_xlink "http://www.w3.org/1999/xlink">
	<!ENTITY st0 "fill:none;">
	<!ENTITY st1 "fill:#B3B3B3;stroke:#000000;stroke-width:0.3;stroke-linecap:round;stroke-linejoin:round;">
	<!ENTITY st2 "fill:none;stroke:#000000;stroke-width:0.3;stroke-linecap:round;stroke-linejoin:round;">
	<!ENTITY st3 "fill:none;stroke:#000000;stroke-width:0.15;stroke-linecap:round;stroke-linejoin:round;">
	<!ENTITY st4 "fill:#FFFFFF;stroke:#000000;stroke-width:0.3;stroke-linecap:round;stroke-linejoin:round;">
	<!ENTITY st5 "fill:#FFFFFF;">
	<!ENTITY st6 "fill:none;stroke:#FFFFFF;stroke-width:0.6;stroke-linecap:round;stroke-linejoin:round;">
	<!ENTITY st7 "fill:none;stroke:#FFFFFF;stroke-width:2;">
	<!ENTITY st8 "fill:none;stroke:#000000;stroke-width:0.5;">
	<!ENTITY st9 "font-family:'Arial'; font-size:10px;">
	<!ATTLIST svg
		xmlns:ewd CDATA #FIXED "http://shcl.co.jp/ewd"
		xmlns:a CDATA #FIXED "http://ns.adobe.com/AdobeSVGViewerExtensions/3.0/"
		ewd:ver CDATA #IMPLIED>
	<!ATTLIST a
		ewd:innerGroupID CDATA #IMPLIED
		ewd:figtype CDATA #IMPLIED
		ewd:code CDATA #IMPLIED
		ewd:pinNo CDATA #IMPLIED>
]>
<svg version="1.0" x="0px" y="0px" viewBox="0 0 518.74 311.811" style="enable-background:new 0 0 518.74 311.811;" xml:space="preserve" width="518.74" height="311.811" onload="call_execInitLoadProc_svg('location')" ewd:ver="2.3.1.16" xmlns="&ns_svg;" xmlns:a="http://ns.adobe.com/AdobeSVGViewerExtensions/3.0/" xmlns:ewd="http://shcl.co.jp/ewd" xmlns:xlink="&ns_xlink;">
<script type="text/javascript" xlink:href="../../../../../system/js/ewd/fig/svgfig.js"/>
<g id="waku">
	<path d="M0,0v311.811h518.74v-311.811h-518.74z" style="&st0;"/>
</g>
<g id="イラスト">
	<path style="&st1;" d="M216.856,103.879   c-0.463,0.439-0.699,1.035-0.699,1.771c0,0.165,0.135,0.3,0.3,0.3s0.3-0.134,0.3-0.3c0-0.573,0.167-1.01,0.511-1.336   c0.71-0.672,2.245-0.934,4.693-0.802c0.165,0.009,0.307-0.118,0.316-0.283c0.009-0.166-0.118-0.307-0.283-0.316   C219.336,102.77,217.704,103.077,216.856,103.879z"/>
	<path style="&st1;" d="M216.778,103.426   c-1.169,0.381-2.419,1.402-2.729,2.231c-0.15,0.402-0.063,0.685,0.038,0.852c0.085,0.142,0.27,0.188,0.412,0.103   c0.142-0.085,0.188-0.27,0.103-0.412c-0.047-0.078-0.043-0.19,0.01-0.333c0.246-0.659,1.368-1.55,2.353-1.871   c1.3-0.423,3.306-0.618,4.991-0.484c0.165,0.013,0.31-0.11,0.323-0.275c0.013-0.165-0.11-0.31-0.275-0.323   C220.218,102.772,218.167,102.973,216.778,103.426z"/>
	<path style="&st1;" d="M241.363,101.578   c-1.708,0.374-11.123,2.74-17.354,4.307l-5.417,1.358c-0.972,0.239-1.64-0.069-1.833-0.848c-0.162-0.655,0.097-1.43,0.515-1.533   c0.161-0.04,0.258-0.203,0.218-0.364c-0.04-0.161-0.203-0.259-0.364-0.218c-0.84,0.21-1.176,1.359-0.952,2.259   c0.217,0.873,1.003,1.669,2.559,1.285l5.419-1.358c6.227-1.565,15.637-3.931,17.335-4.302c1.021-0.223,2.096-0.309,3.022-0.219   l0.051-0.601C243.567,101.248,242.44,101.342,241.363,101.578z"/>
	<g>
		<path style="&st2;" d="M158.852,122.809    l-0.563,0.038c0,0-0.375,3.712-0.425,4.313c-0.05,0.6-0.013,1.075,0.163,1.55c0.175,0.475,0.825,1.75,0.925,1.963    c0.1,0.212,0.388,0.337,0.5,0.337c0.113,0,1.612-0.212,1.85-0.238c0.237-0.025,0.475-0.15,0.587-0.35    c0.113-0.2,0.3-0.612,0.3-0.612l0.438-0.063l-0.275,1.9l-0.313,0.5"/>
		<path d="M160.365,130.934 l1.762,1.737 l1.15,-0.5 l1.063,-3.275 l-0.238,-1.5 l-0.05,-0.35 l-0.575,-0.537 " style="&st2;"/>
		<path style="&st2;" d="M162.602,130.296    c0.238-0.025,0.6-0.063,0.813-0.587c0.212-0.525,0.275-0.888,0.275-1.188c0-0.3,0-0.637,0-0.874c0-0.238-0.013-0.4-0.075-0.626    c-0.063-0.225-0.388-1.249-0.388-1.249"/>
		<path d="M163.102,126.596 l0.125,-1.212 l-1.05,-0.975 " style="&st2;"/>
		<path style="&st2;" d="M160.965,124.171    c-0.788,0.137-1.3-0.063-1.3-0.063l-0.85-0.775l0.3-3.313c0,0,0.05-0.3,0.538-0.412"/>
		<path style="&st2;" d="M161.465,119.847    c0.028-0.243-0.348-0.486-0.838-0.542c-0.49-0.056-0.911,0.096-0.938,0.34c-0.009,0.081-0.023,0.205-0.033,0.286    c-0.027,0.244,0.348,0.486,0.838,0.542c0.49,0.056,0.91-0.096,0.938-0.34C161.442,120.052,161.456,119.928,161.465,119.847z"/>
		<path style="&st2;" d="M163.113,115.185    l0.361-3.654c0.033-0.33-0.217-0.477-0.547-0.509c-0.33-0.033-0.615,0.062-0.647,0.391l-1.337,13.538    c-0.033,0.33,0.192,0.464,0.522,0.497c0.33,0.033,0.64-0.049,0.672-0.378l0.834-8.441"/>
		<path style="&st3;" d="M162.023,114.013    c-0.032,0.33,0.192,0.464,0.522,0.497c0.33,0.033,0.639-0.048,0.672-0.378"/>
		<path style="&st3;" d="M162.125,112.976    c-0.033,0.33,0.192,0.464,0.522,0.497c0.33,0.033,0.64-0.049,0.672-0.378"/>
		<path style="&st4;" d="M167.05,68.402    l-4.45,42.95c-0.017,0.164,0.099,0.234,0.264,0.251c0.165,0.017,0.316-0.024,0.333-0.189l4.45-42.95    c0.017-0.165-0.103-0.313-0.268-0.33C167.215,68.117,167.067,68.237,167.05,68.402z"/>
		<path style="&st4;" d="M166.914,68.154    c-0.005,0.136,0.199,0.255,0.456,0.265c0.257,0.01,0.47-0.092,0.476-0.228c0.005-0.137-0.184-0.331-0.441-0.342    C167.147,67.839,166.92,68.018,166.914,68.154z"/>
		<path style="&st2;" d="M162.368,116.328    l0.3,0.234c0,0,0.3,0.094,0.572-0.104l0.103-1.031l-0.319-0.281c0,0-0.206,0.085-0.534,0.038L162.368,116.328z"/>
		<path style="&st3;" d="M160.465,130.634    c0.275-0.4,0.4-0.788,0.475-1.462c0.07-0.634,0.325-3.325,0.325-3.325"/>
		<path d="M163.039,131.871l-0.587,-0.562" style="&st3;"/>
		<path style="&st3;" d="M162.502,130.983    c0.251,0.251,0.476,0.25,0.575-0.037c0.1-0.288,0.138-0.488,0.212-0.675c0.075-0.188,0.125-0.45,0.125-0.45"/>
		<path d="M161.465,125.708l1.699,-0.299" style="&st3;"/>
		<path d="M161.09,125.571l-2.588,-2.463" style="&st3;"/>
		<path style="&st3;" d="M162.64,129.809    c0.087-0.225,0.2-0.538,0.225-0.8c0.025-0.263,0.25-2.363,0.25-2.363"/>
		<path d="M159.289,120.159l0.538,0.5" style="&st3;"/>
		<path style="&st3;" d="M160.102,120.796    c0.35,0.125,0.813,0.1,1.213,0.025"/>
		<path d="M159.902,120.909l-0.262,2.887" style="&st3;"/>
	</g>
	<path style="&st2;" d="M246.124,95.195   l0.268-3.162c0.024-0.285-0.194-0.409-0.479-0.433c-0.286-0.024-0.53,0.061-0.554,0.346l-1.425,16.861   c-0.024,0.285,0.172,0.398,0.457,0.422c0.286,0.024,0.552-0.05,0.576-0.335l1.052-12.452"/>
	<path style="&st3;" d="M245.168,94.196   c-0.024,0.285,0.172,0.399,0.457,0.422c0.285,0.024,0.552-0.05,0.576-0.335"/>
	<path style="&st3;" d="M245.244,93.299   c-0.024,0.285,0.172,0.398,0.458,0.423c0.285,0.024,0.552-0.05,0.576-0.336"/>
	<path style="&st4;" d="M247.56,70.319   l-1.925,21.57c-0.013,0.143,0.088,0.201,0.23,0.214c0.143,0.013,0.273-0.025,0.285-0.168l1.926-21.57   c0.013-0.143-0.093-0.269-0.235-0.281C247.699,70.072,247.573,70.177,247.56,70.319z"/>
	<path style="&st4;" d="M247.439,70.107   c-0.003,0.118,0.175,0.218,0.397,0.224c0.223,0.006,0.405-0.085,0.408-0.203c0.003-0.118-0.163-0.284-0.385-0.29   C247.637,69.832,247.442,69.989,247.439,70.107z"/>
	<path style="&st2;" d="M245.494,96.191   l0.262,0.199c0,0,0.26,0.077,0.493-0.097l0.077-0.892l-0.279-0.239c0,0-0.177,0.075-0.462,0.039L245.494,96.191z"/>
	<path style="&st1;" d="M188.952,122.946   c-0.166,0-0.3,0.134-0.3,0.3c0,0.394-0.02,0.834-0.258,1.499c-0.844,2.363-2.382,4.253-3.21,4.946   c-0.895,0.75-1.569,1.077-3.199,1.03c-1.757-0.05-4.877-0.966-5.558-1.207l-0.247-0.086c-0.702-0.24-1.498-0.512-2.025-1.343   l-0.323-0.524c-0.524-0.864-1.067-1.756-2.278-2.861c-1.657-1.512-3.605-2.059-4.712-1.927c-0.73,0.087-1.308,0.3-1.978,0.546   l-1.127,0.391c-0.46,0.145-0.828,0.12-1.062-0.07c-0.204-0.166-0.307-0.461-0.274-0.79l0.633-6.292   c-0.198,0.056-0.366,0.004-0.366,0.004l-0.22-0.172l-0.644,6.402c-0.052,0.53,0.133,1.021,0.494,1.314   c0.278,0.225,0.784,0.438,1.62,0.176l1.154-0.4c0.661-0.243,1.183-0.435,1.842-0.513c0.977-0.116,2.72,0.389,4.237,1.774   c1.147,1.046,1.667,1.902,2.169,2.729l0.33,0.534c0.64,1.01,1.582,1.331,2.338,1.589l0.24,0.083c0.7,0.248,3.914,1.189,5.742,1.242   c1.813,0.052,2.605-0.336,3.601-1.169c0.878-0.736,2.505-2.729,3.39-5.205c0.27-0.755,0.292-1.274,0.292-1.701   C189.252,123.081,189.118,122.946,188.952,122.946z"/>
	<g>
		<path d="M188.942,124.539 l-0.853,-0.359 l0,-1.381 l0.751,-0.201 l0.853,0.359 l0,1.38 z" style="&st4;"/>
		<path d="M189.693,122.957l-0.751,0.202" style="&st3;"/>
		<path d="M188.089,122.799 l0.853,0.36 l0,1.38 " style="&st3;"/>
	</g>
	<g>
		<path d="M188.942,123.159 l-0.853,-0.359 l0,-1.381 l0.751,-0.201 l0.853,0.359 l0,1.38 z" style="&st4;"/>
		<path d="M189.693,121.577l-0.751,0.201" style="&st3;"/>
		<path d="M188.089,121.419 l0.853,0.359 l0,1.381 " style="&st3;"/>
	</g>
	<path style="&st1;" d="M217.466,104.224   c-1.582,0.193-2.951,1.006-3.254,1.932c-0.14,0.427-0.039,0.829,0.285,1.134c0.184,0.173,0.387,0.441,0.309,0.73   c-0.102,0.374-0.633,0.705-1.419,0.884c-2.355,0.535-25.318,5.798-25.831,5.926c-0.373,0.093-1.363,0.341-1.121,1.55   c0.2,1,1.662,3.263,1.923,3.638c0.324,0.465,0.323,0.861,0.321,1.319v0.084c-0.001,0.166,0.134,0.3,0.299,0.3   c0.166,0,0.3-0.134,0.301-0.3v-0.083c0.001-0.489,0.003-1.043-0.429-1.664c-0.458-0.657-1.672-2.637-1.827-3.413   c-0.112-0.558,0.108-0.708,0.679-0.85c0.511-0.128,23.464-5.389,25.818-5.923c1.037-0.236,1.699-0.702,1.865-1.312   c0.123-0.45-0.047-0.92-0.476-1.324c-0.153-0.144-0.193-0.306-0.126-0.51c0.199-0.608,1.285-1.344,2.757-1.524   c0.165-0.02,0.282-0.17,0.261-0.334C217.78,104.32,217.63,104.203,217.466,104.224z"/>
	<path style="&st5;" d="M219.278,104.518c0,0-0.058,0.193-0.227,0.24c-0.17,0.046-1.758,0.33-1.758,0.33   s-0.438,0.003-0.499-0.414c-0.062-0.418,0.197-0.588,0.419-0.62c0.221-0.032,1.367-0.251,1.522-0.28   c0.156-0.028,0.438,0.111,0.472,0.206c0.033,0.094,0.857-0.131,0.857-0.131s0.067-0.203,0.357-0.212   c0.289-0.01,0.466,0.02,0.507,0.026c0.042,0.005,0.207,0.04,0.236,0.235c0.03,0.195-0.057,0.326-0.201,0.39   c-0.144,0.064-0.503,0.138-0.546,0.147c-0.043,0.009-0.241-0.101-0.252-0.13C220.155,104.274,219.278,104.518,219.278,104.518z"/>
	<path style="&st3;" d="M218.872,103.776   c-0.256,0.035-0.433,0.286-0.395,0.56c0.037,0.273,0.275,0.467,0.531,0.432"/>
	<path style="&st2;" d="M221.005,104.257   l-0.544,0.139c-0.173,0.033-0.346-0.119-0.388-0.338c-0.041-0.22,0.065-0.424,0.238-0.456l0.524,0.011"/>
	<path style="&st2;" d="M220.989,104.249   c0.138-0.026,0.224-0.19,0.19-0.366c-0.033-0.176-0.172-0.297-0.31-0.271"/>
	<path d="M219.094,104.027l0.892,-0.173" style="&st2;"/>
	<path d="M219.142,104.479l0.892,-0.174" style="&st2;"/>
	<path style="&st3;" d="M219.066,103.949   c-0.072,0.014-0.183,0.201-0.158,0.34c0.026,0.139,0.134,0.26,0.323,0.241"/>
	<path style="&st2;" d="M219.217,103.902   c-0.102-0.107-0.245-0.166-0.396-0.145l-1.601,0.298c-0.256,0.035-0.433,0.285-0.396,0.559c0.038,0.274,0.275,0.468,0.531,0.433   l1.602-0.298c0.136-0.019,0.249-0.098,0.32-0.208"/>
	<path style="&st1;" d="M250.644,113.179   l-0.652-0.755c-0.814-0.915-2.043-2.297-2.336-3.201c-0.051-0.158-0.22-0.244-0.377-0.193c-0.158,0.051-0.244,0.22-0.193,0.378   c0.332,1.024,1.561,2.406,2.458,3.416l0.629,0.727c0.179,0.228,0.204,0.403,0.17,0.484c-0.006,0.014-0.024,0.058-0.095,0.066   c-0.102,0.013-0.285-0.057-0.461-0.296c-0.524-0.709-1.612-1.137-2.872-1.633c-0.76-0.299-1.622-0.638-2.461-1.079   c-1.768-0.929-3.64-3.059-3.851-4.381c-0.058-0.36,0.006-0.631,0.196-0.826c0.832-0.858,1.846-0.042,2.899,0.946l0.247,0.229   c0.288,0.262,0.635,0.349,0.929,0.233c0.269-0.106,0.446-0.366,0.472-0.694l0.841-10.269c-0.214,0.119-0.429,0.058-0.429,0.058   l-0.167-0.127l-0.842,10.29c-0.008,0.096-0.043,0.163-0.095,0.183c-0.056,0.022-0.168,0.004-0.304-0.119l-0.239-0.223   c-0.848-0.797-2.428-2.28-3.74-0.927c-0.321,0.33-0.445,0.793-0.358,1.338c0.263,1.643,2.416,3.898,4.165,4.817   c0.868,0.457,1.746,0.802,2.52,1.106c1.174,0.462,2.188,0.861,2.609,1.432c0.28,0.379,0.66,0.579,1.017,0.535   c0.263-0.033,0.478-0.195,0.576-0.434C251.029,113.945,250.936,113.55,250.644,113.179z"/>
	<g>
		<path d="M247.542,110.188 l-0.853,-0.358 l0,-1.381 l0.751,-0.201 l0.853,0.359 l0,1.38 z" style="&st4;"/>
		<path d="M248.293,108.607l-0.751,0.202" style="&st3;"/>
		<path d="M246.689,108.449 l0.853,0.36 l0,1.379 " style="&st3;"/>
	</g>
	<g>
		<path d="M247.542,108.809 l-0.853,-0.359 l0,-1.381 l0.751,-0.201 l0.853,0.359 l0,1.38 z" style="&st4;"/>
		<path d="M248.293,107.227l-0.751,0.201" style="&st3;"/>
		<path d="M246.689,107.069 l0.853,0.359 l0,1.381 " style="&st3;"/>
	</g>
	<path style="&st1;" d="M247.485,103.047   c-0.256-0.735-0.893-1.205-1.729-1.471l-0.051,0.622c0.6,0.215,1.042,0.556,1.214,1.046c0.439,1.259,0.351,2.637,0.304,3.377   l-0.02,0.425c-0.008,0.165,0.12,0.291,0.286,0.299c0.165,0.008,0.306-0.134,0.314-0.299l0.019-0.387   C247.872,105.877,247.965,104.421,247.485,103.047z"/>
	<g>
		<g>
			<path d="M222.661,104.083 l-0.936,-0.231 l-0.011,-0.909 l1.106,-0.256 l0.936,0.231 l0.011,0.909 z" style="&st5;"/>
			<path d="M223.756,102.918l-1.106,0.256" style="&st5;"/>
			<path d="M221.714,102.943 l0.936,0.231 l0.011,0.909 " style="&st5;"/>
		</g>
		<g>
			<path d="M222.661,104.083 l-0.936,-0.231 l-0.011,-0.909 l1.106,-0.256 l0.936,0.231 l0.011,0.909 z" style="&st4;"/>
			<path d="M223.756,102.918l-1.106,0.256" style="&st3;"/>
			<path d="M221.714,102.943 l0.936,0.231 l0.011,0.909 " style="&st3;"/>
		</g>
	</g>
	<g>
		<path style="&st6;" d="M126.784,124.708    c0.11,0.2,0.141,0.35,0.141,0.35s0.096,7.179-0.191,8.04c-0.287,0.862-1.532,0.958-1.532,0.958s-1.435-0.574-2.297-0.958    c-0.861-0.383-1.292-0.957-1.723-1.818c-0.431-0.862-0.814-5.217-0.383-6.94c0.191-0.76,0.94-1.353,1.717-1.777"/>
		<path style="&st6;" d="M198.224,149.091    l-38.945-20.586c0,0-0.1-0.054-0.286-0.154c0,0-0.668-0.183-1.239-1.476c-0.57-1.293-2.928-6.54-3.194-7.073    c-0.266-0.532-0.684-1.064-1.521-1.521c-0.836-0.456-19.469-9.621-19.469-9.621"/>
		<path d="M299.997,203.563l-101.773,-54.472" style="&st6;"/>
		<path d="M127.021,131.759l4.305,-1.381" style="&st6;"/>
		<path style="&st6;" d="M156.216,156.551    c0,0-0.479,1.148,0.383,1.627c0.861,0.479,34.652,20.39,34.652,20.39s1.436,0.479,2.01,0.095c0.574-0.382,2.01-1.818,2.584-2.68"/>
		<path style="&st6;" d="M196.899,176.558    c0,0-1.723,2.202-2.298,2.585c-0.574,0.383-0.67,0.861-0.67,0.861l0.096,1.244"/>
		<path style="&st6;" d="M155.259,152.531    c0,0-0.287,1.627-0.766,2.489c-0.479,0.862-0.766,1.34-0.766,2.01c0,0.669,0,1.34,0,1.34s0.383,0.766,0.766,1.053    c0.383,0.287,37.619,22.207,37.619,22.207s1.245,0.67,2.393,0.479c1.149-0.191,5.839-1.723,5.839-1.723s1.148-0.67,1.436-1.34"/>
		<path style="&st6;" d="M149.803,140.661    c0,0-0.383,0.479-0.191,1.436c0.191,0.957,4.02,22.4,4.02,22.4s0.575,1.531,2.489,1.148l5.935-1.819"/>
		<path d="M149.707,139.895 l45.325,25.798 l31.301,17.805 " style="&st6;"/>
		<path style="&st6;" d="M228.2,194.697    c0,0-2.297-1.436-2.01-4.308c0.288-2.871,0.574-5.313,0.574-5.313s0.288-2.154,1.149-3.733c0.861-1.579,2.441-3.302,3.589-4.308    c1.149-1.005,3.159-2.441,6.318-0.861c3.159,1.58,17.518,9.907,17.518,9.907s4.164,2.154,5.6,7.467    c1.575,5.83,3.015,11.343,3.015,11.343s-1.005,0.574-0.622,2.011c0.383,1.436,4.881,25.845,4.881,25.845s0.287,3.542,3.256,2.968    c2.967-0.574,7.657-2.298,8.327-2.776s1.692-0.492,2.01-3.829c0.192-2.01,0-3.732,0-3.732"/>
		<path style="&st6;" d="M165.884,107.637    c0,0,0.191-1.531,1.723-2.297c1.531-0.766,2.967-1.244,4.212-0.861c1.244,0.383,2.297,0.67,2.297,3.063c0,2.393,0,8.041,0,8.041    s-0.287,1.627-1.723,2.202c-1.436,0.574-4.212,1.053-5.169,0.479c-0.957-0.574-1.436-1.34-1.436-2.584    C165.789,114.433,165.884,107.637,165.884,107.637z"/>
		<path style="&st6;" d="M173.351,106.871    c0,0-0.383-1.053-1.627-0.957c-1.245,0.095-2.776,0.479-3.542,1.723c-0.334,0.544-0.383,2.681-0.383,2.681v5.839    c0,0,0.096,1.34,1.531,1.627c1.436,0.287,3.638-0.67,3.925-1.819"/>
		<path style="&st6;" d="M172.011,106.105    c0,0,0.67,0.575,0.67,1.627c0,1.053,0,7.658,0,7.658s0.191,1.531-1.245,2.01"/>
		<path style="&st6;" d="M170.957,104.191    l12.827-18.57c0,0,1.402-1.747,3.637-3.733c2.584-2.297,4.212-3.35,4.212-3.35s1.34-1.245,5.265-2.393    c3.924-1.149,11.869-3.255,27.089-5.648c15.22-2.393,25.13-2.79,32.929-2.585c0,0,8.807,0.096,24.026,2.967    c15.221,2.872,29.292,5.935,50.925,12.636c21.634,6.701,46.426,15.028,48.437,15.89c2.011,0.861,2.968,2.202,4.212,6.317    c1.244,4.116,4.69,17.709,6.605,30.823c1.913,13.114,3.35,27.952,3.35,27.952s0,1.627-0.191,2.201    c-0.191,0.574-0.574,1.148-0.574,1.148l0.479,8.328c0,0,1.628,2.585,1.532,3.542c-0.067,0.666,0,9.189,0,9.189    s-0.097,4.977-0.097,7.083c0,2.106-1.914,7.084-3.254,7.85c-1.341,0.766-2.011,0.957-2.011,0.957    c-2.65,1.141-9.214,3.384-16.294,5.714l-10.814,3.508c-7.324,2.348-13.191,4.18-13.191,4.18s-37.333,10.243-37.62,10.338    c-0.287,0.097-0.479-0.095-0.479-0.095c0.078-0.299,0.156-0.6,0.227-0.902c0.375-1.643,1.353-4.159,1.435-8.605    c0.009-0.484,0.062-0.864,0.062-1.119c0-1.341,0.191-10.338,0.096-11.869c-0.096-1.532-0.287-2.202-0.287-2.202    s0,0.096-0.48-1.531c-0.478-1.628-0.19-2.489-0.19-2.489l0.391-16.363c0-19.515,0.059-19.501-0.391-56.482"/>
		<path style="&st6;" d="M383.751,109.264    c0,0,3.828,15.412,5.743,30.823c1.915,15.412,2.68,27.903,2.68,27.903s0.432,6.03,0.574,8.615"/>
		<path style="&st6;" d="M392.748,176.605v23.835    c0,0-0.07,0.354-0.311,0.664"/>
		<path style="&st6;" d="M392.436,201.104    c-3.658,1.23-35.766,11.464-41.015,13.155"/>
		<path style="&st6;" d="M351.422,214.26    c-10.154,2.793-32.679,9.205-36.679,10.23"/>
		<path style="&st6;" d="M376.163,165.103    c4.059-1.209,8.138-2.475,12.278-3.86l0.573-0.418c-0.429-5.087-1.112-12.291-2.105-20.279c-1.224-9.854-3.23-19.707-4.519-25.533    c0,0-0.142-0.758-0.491-0.525c0,0-22.127,7.078-33.471,9.231c0,0-0.909,0.329-0.693,1.026c0,0,2.91,20.073,5.17,46.422    c0,0,0.353,0.533,0.848,0.389c5.919-1.729,11.716-3.341,17.517-5.02L376.163,165.103z"/>
		<path style="&st6;" d="M351.252,173.878    c-2.297-28.431-5.456-50.255-5.456-50.255c-0.047-1.148,1.006-1.244,1.006-1.244c11.343-2.154,35.609-9.668,35.609-9.668    s0.839-0.393,1.064,0.45c1.464,5.442,3.528,16.297,4.869,27.098c1.11,8.932,1.834,16.883,2.246,21.99l-0.857,0.431    c-3.919,1.311-7.918,2.587-11.929,3.814l-6.67,1.999c-28.818,8.461-56.209,14.289-56.209,14.289l-1.436,0.143"/>
		<path style="&st6;" d="M350.103,174.309    c-2.297-28.43-5.474-50.56-5.474-50.56s-0.126-0.604-0.986-0.413c0,0-25.559,5.456-28.143,5.887c0,0-1.172,0.048-1.112,1.292"/>
		<path style="&st6;" d="M316.506,180.052    c0-5.821-0.034-11.625-0.084-17.086l-0.381-26.011c-0.065-3.257-0.11-5.148-0.11-5.148c-0.048-0.335,0.431-0.575,0.431-0.575    c2.585-0.431,26.228-6.078,26.228-6.078c0.286-0.191,0.523,0.173,0.523,0.173s2.935,20.444,5.203,47.275l-0.724,0.569    c-0.303,0.077-0.604,0.155-0.904,0.232l-8.084,2.029c-13.075,3.212-21.956,5.049-21.956,5.049"/>
		<path style="&st6;" d="M309.612,134.099    c0.107,6.512,0.24,14.029,0.24,14.029s-0.189,15.453-0.387,30.049l-0.077,5.628c-0.103,7.368-0.201,13.921-0.27,17.326"/>
		<path d="M349.864,194.554l-19.585,5.382" style="&st6;"/>
		<path style="&st6;" d="M325.028,195.536    c-1.049,0.283-1.679,0.453-1.679,0.453s-0.766,0.335-0.766,1.053v4.745c0,0.431,0.141,0.812,0.699,1.014    c0.558,0.203,3.169,1.218,3.625,1.394c0.456,0.178,0.836,0.102,1.622-0.1c0.786-0.204,17.275-4.797,20.839-5.756    c0.658-0.177,1.262-0.228,1.262-1.91c0-0.554,0-1.135,0-1.396c0-0.574-0.287-0.766-0.287-0.766s-0.85-0.791-1.657-1.529    l-1.118-0.938l-0.024-0.405c0,0-1.04-0.609-1.445-0.862c-0.406-0.254-1.191-0.405-1.927-0.202    c-0.735,0.202-7.493,2.07-10.836,2.97L325.028,195.536z"/>
		<path style="&st6;" d="M345.516,191.57    c-1.869,0.538-7.67,2.264-9.908,2.905l-8.592,2.443c-0.677,0.188-1.101,0.302-1.178,0.315c-0.574,0.096-0.096,0.67-0.096,0.67    s0.95,0.763,1.883,1.352c0.475,0.3,1.818,1.061,1.793,2.557c-0.025,1.495-0.025,1.495-0.025,1.495"/>
		<path d="M322.488,198.287 l-1.034,0.269 l-4.855,1.262 l-3.684,0.958 " style="&st6;"/>
		<path style="&st6;" d="M322.584,197.042    c0,0.767,0.766,0.958,0.766,0.958l4.02,2.776c0,0,0.384,0.477,0.384,0.861c0,0.041,0,0.107,0,0.191v1.683"/>
		<path d="M314.159,204.509l8.338,-2.24" style="&st6;"/>
		<path style="&st6;" d="M352.258,193.692    c0,0,0.096,0.574-1.627,1.053"/>
		<path style="&st6;" d="M354.556,226.525    l2.584,1.627c0,0,1.244,0.48,2.107-0.383"/>
		<path style="&st6;" d="M353.693,228.344    l-3.637,1.054c0,0-0.479,0.096-0.861-0.192c-0.384-0.287-0.384-0.67-0.384-0.67"/>
		<path style="&st6;" d="M345.94,237.247    c0,0,27.473-8.042,28.43-8.329c0.957-0.286,1.148-0.67,1.148-0.67s0-0.184,0-0.766c0-0.766-0.479-0.957-0.479-0.957l-6.223-3.829    l-9.638,2.896l1.31,0.934c0,0,0.384,0.287,0.384,0.861c0,0.574,0,1.245,0,1.245s-0.411,0.656-0.861,0.957    c-0.861,0.574-2.489,0.67-3.064,0.479c-0.574-0.191-3.602-2.103-3.602-2.103"/>
		<path d="M348.876,228.62l-2.936,0.873" style="&st6;"/>
		<path style="&st6;" d="M335.219,222.505    l9.573,5.456c0,0,1.053,0.479,1.148,2.01c0.096,1.532,0,7.276,0,7.276s0,1.148-1.819,2.297c-1.34,0.846-2.584-0.287-2.584-0.287"/>
		<path style="&st6;" d="M332.105,223.462    l10.005,5.552c0,0,0.958,0.767,0.958,1.724c0,0.957,0,6.892,0,6.892s-0.096,0.861-0.958,1.341    c-0.86,0.479-20.867,6.413-20.867,6.413"/>
		<path d="M342.27,230.053l-20.737,6.236" style="&st6;"/>
		<path style="&st6;" d="M327.283,237.398v3.063    c0,0,0,0.766,0.766,0.67c0.766-0.095,8.51-2.544,8.51-2.544s0.575-0.575,0.575-1.054s0-3.063,0-3.063s-0.096-0.862-0.958-0.479    c-0.553,0.246-8.318,2.449-8.318,2.449S327.283,236.61,327.283,237.398z"/>
		<path style="&st6;" d="M319.371,235.145    c-1.064-0.697-2.381-1.552-3.01-1.919c-1.148-0.67-1.818-1.148-2.871-1.723c-1.054-0.574-0.767-1.627-0.767-1.627    c-0.096-0.383-1.244-0.192-1.627,0.095c-0.383,0.288-1.34,0.671-1.34,0.671c-2.011,0.67-4.499,0.383-6.51-0.479    c-2.01-0.861-13.497-7.658-13.497-7.658s-0.573-0.383-0.957-0.287c-0.766,0.191-0.861,0.861-0.861,2.105    c0,1.244,1.723,8.902,2.298,11.583c0.574,2.681,1.914,3.063,1.914,3.063s15.507,8.424,17.422,9.189    c1.914,0.765,2.967,1.148,3.925,0.957c0.957-0.192,3.35-0.766,5.072-1.341c1.724-0.574,2.776-1.818,2.681-3.732    c-0.009-0.174-0.013-0.359-0.013-0.554c0,0,0-5.197,0-5.653c0-0.456,0.126-1.369-0.686-1.901    C319.734,235.402,319.371,235.145,319.371,235.145z"/>
		<path style="&st6;" d="M289.271,223.846    c0,0,9.668,6.03,19.911,11.678c0,0,3.638,2.105,5.072,2.297c1.437,0.191,3.926-0.478,3.926-0.478l2.488-0.67"/>
		<path style="&st6;" d="M312.342,200.871    c0,0-0.619,0.155-1.399,0.358"/>
		<path style="&st6;" d="M302.555,202.263    c-0.387,0.802-0.81,1.95-0.911,3.277l-0.023,9.901c0,4.592,0,9.073,0,9.073s0.096,4.595,3.063,6.031"/>
		<path style="&st6;" d="M302.099,208.721    c0,0,1.244,0.766,2.776,1.053c1.531,0.287,2.266,0.479,4.499-0.191c1.914-0.575,4.02-1.532,4.02-1.532s0.288-0.096,0.384-0.67"/>
		<path style="&st6;" d="M302.099,216.666    c0,0,1.531,1.053,3.064,1.34c1.531,0.287,2.775,0.096,4.69-0.383c1.531-0.383,3.446-1.34,3.446-1.34"/>
		<path style="&st6;" d="M264.192,204.987    c0,0,0.574,0.479,1.148,1.531c0.574,1.054,5.456,11.871,5.456,11.871s0.479,1.148,1.244,1.53    c0.766,0.384,16.752,9.382,16.752,9.382"/>
		<path d="M263.522,203.073l38.098,22.017" style="&st6;"/>
		<path style="&st6;" d="M277.21,180.674    c0,0-0.095-1.436,1.532-0.766c1.628,0.67,11.774,6.03,11.774,6.03s0.67,0.48,0.861,1.628c0.191,1.148,0.096,3.732-0.096,4.403    c-0.191,0.67-0.862,0.957-1.724,0.477c-0.861-0.477-10.912-5.743-10.912-5.743s-1.531-0.766-1.531-2.297    C277.115,182.876,277.21,180.674,277.21,180.674z"/>
		<path style="&st6;" d="M351.301,174.165    c0,0,0.574,0.67,0.67,1.34c0.096,0.67,0.478,5.552-0.191,5.935"/>
		<path style="&st6;" d="M351.109,181.823v8.136    c0,0-0.096,0.574,0.096,0.957c0.191,0.383,1.148,2.106,1.148,3.063c0,0.286,0.361,7.732-0.932,20.28"/>
		<path style="&st6;" d="M395.62,190.629    c0,0-0.191,2.011-2.681,2.011"/>
		<path style="&st6;" d="M395.524,193.979    c0,0-0.861,0.479-1.34,0.574c-0.479,0.096-0.383,0.671-0.383,0.671l-0.096,1.243c0,0,0,0.767,0.383,0.671    c0.383-0.097,0.957,0,1.435-0.575"/>
		<path style="&st6;" d="M392.436,201.104    c-0.135,0.289-2.072,4.17-2.176,4.361c-0.371,0.678,0.382,0.862,0.382,0.862l7.658,4.594c0,0,1.148,0.767,0.766,2.011    c-0.383,1.244-2.393,8.137-2.393,8.137s-0.671,1.34-2.681,1.818c-2.011,0.479-14.933,4.499-14.933,4.499"/>
		<path style="&st6;" d="M393.035,203.36    l8.137,5.265c0,0,1.628,1.34,1.245,3.159c-0.384,1.818-2.298,7.85-3.542,9.285c-1.244,1.436-2.394,1.914-3.063,2.105    c-0.671,0.191-2.107,0.479-2.873,0"/>
		<path style="&st6;" d="M397.248,221.548    c0,0-0.574,1.436-2.298,1.818"/>
		<path d="M401.651,210.54l-1.723,0.765" style="&st6;"/>
		<path style="&st6;" d="M370.35,211.88    c0,0,6.701,3.829,7.37,4.308c0.67,0.479,1.341,0.766,1.532,2.584c0.191,1.819-0.022,6.412-0.096,7.371    c-0.096,1.244-0.575,2.105-2.202,2.68c-1.627,0.575-2.201,0.096-2.201,0.096"/>
		<path style="&st6;" d="M379.443,218.006    c0,0,17.518-5.073,18.857-5.743"/>
		<path style="&st6;" d="M388.939,217.411    c1.797-0.546,3.427-1.032,3.427-1.032s0.573-0.287,0.766,0.382c0.191,0.671,0,3.255,0,3.255s-0.192,0.767-0.766,0.958    c-0.575,0.19-7.563,2.297-7.563,2.297s-1.244,0.191-1.244-0.67"/>
		<path style="&st6;" d="M376.763,226.238    c0,0,0-4.595,0-5.935c0-1.341-1.244-2.585-1.244-2.585s-5.839-3.638-6.413-3.829c-0.575-0.191-0.575,0.383-0.575,0.383v8.232"/>
		<path d="M374.178,227.387l-28.047,8.136" style="&st6;"/>
		<path style="&st6;" d="M395.237,179.43    c0,0-0.957,0.861-2.01,1.148"/>
		<path style="&st6;" d="M393.227,180.578    c-5.02,1.901-36.672,12.344-40.874,13.401"/>
		<path d="M394.185,176.175l-1.723,0.67" style="&st6;"/>
		<path style="&st6;" d="M392.462,176.845    c-5.328,1.699-34.76,11.721-41.352,13.593l-3.542,0.861"/>
		<path d="M393.706,167.847l-1.532,0.478" style="&st6;"/>
		<path style="&st6;" d="M367.483,99.177    c0,0-26.807-9.474-54.783-17.266c-14.193-3.953-44.718-11.434-56.314-13.282"/>
		<path style="&st6;" d="M358.36,100.865    c0,0-29.507-10.123-57.936-18.307c-13.011-3.746-44.122-11.576-54.205-13.425"/>
		<path style="&st6;" d="M348.884,102.803    c0,0-28.547-10.257-56.977-18.442c-17.214-4.955-50.589-13.401-55.94-14.472"/>
		<path style="&st6;" d="M330.637,101.764    c-13.655-4.652-34.724-11.866-49.382-16.406c-6.765-2.095-46.8-13.368-52.934-14.292"/>
		<path style="&st6;" d="M321.927,104.299    c-16.6-5.914-42.729-15.354-48.856-17.218c-10.815-3.292-43.909-13.158-51.388-14.67"/>
		<path style="&st6;" d="M322.236,104.409    c-0.103-0.036-0.206-0.073-0.31-0.11"/>
		<path style="&st6;" d="M212.523,74.343    c7.226,1.261,40.359,11.489,49.132,14.46C291.465,98.9,318.73,109.91,318.73,109.91"/>
		<path style="&st6;" d="M191.013,79.142    c0,0,6.674-0.871,14.429,0.185c6.948,0.946,8.4,1.293,15.292,3.662c6.276,2.157,43.841,16.636,74.913,29.361    c1.98,0.811,6.037,2.535,7.05,2.991c1.015,0.456,3.803,2.636,3.499,7.909"/>
		<path style="&st6;" d="M188.692,83.591    c0,0,15.285,1.421,24.073,4.351c1.463,0.488,45.981,19.143,67.735,28.267l7.607,3.191c2.615,1.097,4.132,1.734,4.132,1.734    s4.212,1.819,5.647,2.393c1.436,0.575,5.169,2.106,8.711,3.063c1.012,0.273,2.043,0.394,3,0.428"/>
		<path style="&st6;" d="M309.598,127.018    c2.394,0.084,4.323-0.38,4.323-0.38s20.532-4.882,41.926-10.338c21.395-5.456,28.718-7.179,28.718-7.179s0.861-0.144,0.861-0.718"/>
		<path style="&st6;" d="M212.765,87.942    c0,0-2.166,5.65-5.377,19.132"/>
		<path style="&st6;" d="M207.439,106.822    c-0.867,4.213-4.729,22.26-5.659,27.426c-0.22,1.221-0.258,3.503,0.047,4.834"/>
		<path style="&st6;" d="M174.117,115.582    l22.064,11.343l0.431-0.143c0,0,5.313-22.83,8.615-32.881c0,0,0.718-1.867-0.718-2.585c-1.436-0.718-14.79-6.03-14.79-6.03    s-2.967-0.957-5.36,2.249l-11.687,17.089"/>
		<path style="&st6;" d="M305.483,126.968    l0.102,16.63l0.049,6.489c-0.021,4.202-0.104,15.369-0.422,27.786l-0.186,6.483c-0.075,2.368-0.159,4.746-0.256,7.096"/>
		<path style="&st6;" d="M203.288,128.217    l91.104,44.799c0,0,3.231,1.292,4.739,0.215c1.507-1.076,1.507-3.877,1.507-3.877l0.064-4.108l0.139-7.098l0.279-18.81    l0.091-6.185l0.029-1.927c0-1.082,0.101-6.253-1.915-7.128"/>
		<path style="&st6;" d="M220.877,91.316    c-4.021-1.005-4.451,1.723-4.451,1.723s-1.094,9.285-2.001,16.697l-0.773,6.644c-0.038,0.667-0.213,1.975-0.242,2.648    c0,0-0.481,3.398,2.728,5.312c0,0,13.913,6.821,30.309,14.753c1.238,0.599,1.901,0.266,2.531,0.026    c0.657-0.25,1.419-0.848,1.559-2.243c0.23-2.286,0.112-3.571,0.112-3.571"/>
		<path style="&st6;" d="M250.651,133.306    c0-3.648,0.37-8.122,0.686-11.982l1.38-11.916c0,0,0.897-3.733-1.831-5.6"/>
		<path style="&st6;" d="M249.054,134.066    c0.054-4.344,0.351-8.726,0.713-12.578l1.374-11.25c0.11-0.721,0.176-1.118,0.176-1.118s0.663-3.241-1.625-4.253l-0.599-0.252    l-23.083-9.792l-5.42-2.215c-2.154-0.718-2.791,0.781-2.791,0.781s-1.131,9.528-2.065,17.252l-0.713,6.613    c-0.029,0.529-0.215,1.591-0.238,2.123c0,0-0.225,2.234,1.786,3.527c0,0,2.757,1.332,7.235,3.495l7.676,3.707    c4.518,2.182,9.745,4.706,15.219,7.349c0,0,0.411,0.195,0.853,0.099c1.349-0.294,1.501-1.054,1.501-1.967    C249.054,134.675,249.054,134.066,249.054,134.066"/>
		<path style="&st6;" d="M259.071,107.254    c-1.866-0.431-2.297,1.723-2.297,1.723s-0.332,2.169-0.777,5.439l-1.074,8.557c-0.557,4.874-1.05,10.152-1.164,14.29    c0,0-0.989,5.001,4.388,7.598c16.643,8.039,32.523,15.938,35.789,17.472c1.018,0.477,2.653,1.391,3.566,0.82    c0.492-0.308,0.85-0.736,0.899-4.646c0.107-8.258,0.731-28.735,0.731-31.007c0-3.016-1.58-4.021-1.58-4.021"/>
		<path style="&st6;" d="M296.891,158.903    l0.518-31.834c-0.144-2.154-1.723-2.872-1.723-2.872l-7.244-3.042l-14.123-5.932l-14.305-6.008    c-1.499-0.623-1.724,0.497-1.724,0.497s-0.295,1.927-0.702,4.887l-1.082,8.515c-0.584,5.036-1.114,10.578-1.232,14.884    c0,0-0.192,3.518,3.166,5.124c18.051,8.635,35.213,17.012,36.095,17.401C295.409,160.909,296.965,162.222,296.891,158.903    l-0.006,0.309"/>
		<path style="&st6;" d="M276.244,116.076    c-1.331,8.214-3.324,29.729-3.246,33.967"/>
		<path style="&st6;" d="M277.956,116.874    c-1.598,8.252-3.459,29.509-3.378,33.886"/>
		<path style="&st6;" d="M198.047,176.894    c0,0-2.01-3.303-3.016-7.898c0,0-0.574-1.723-0.574-3.445c0-1.556,0.59-12.436,0.939-15.622c0.093-0.844,0.243-1.406,0.58-1.969    c0.338-0.563,0.989-1.79,0.989-1.79c0.121-0.263,0.364-0.828,0.364-1.151c0-0.431,0-8.041,0-8.041s-0.431-0.718-0.431-1.867    c0-1.148,0.144-2.584,0.861-5.887c0.718-3.303,5.169-23.836,8.759-35.466c0,0,0.718-2.297-0.144-2.872    c-0.861-0.575-16.656-7.036-16.656-7.036s-3.254-1.484-5.934,1.771"/>
		<path style="&st6;" d="M174.212,116.3    c0,0,1.148,0.431,1.579,0.861c0.431,0.431-0.279,0.968-0.279,0.968c-0.38,0.431-0.685,1.115-0.938,2.129    c-0.253,1.014-0.153,1.656-2.029,0.879c0,0-1.78-0.674-2.354-1.105c-0.574-0.43-0.574-1.579-0.574-1.579"/>
		<path style="&st6;" d="M164.305,113.428    c0,0-2.298,1.58-2.729,4.595c0,0,0.144,0.574,0.287,1.148l-1.005,6.605c0,0-0.574,1.005-1.005,1.436    c-0.431,0.431-1.005,1.436-1.148,2.297c-0.144,0.861-1.436,9.764-0.861,15.076l0.287,0.431c0,0-0.144,4.021,3.589,10.913"/>
		<path style="&st6;" d="M157.413,144.299    l0.144,8.185c0,0,0.144,1.148,0.718,1.58"/>
		<path style="&st6;" d="M188.14,138.986    c0,0-0.431-0.718-0.431-1.58c0-0.861-0.144-2.154,0.287-2.585c0.431-0.431,0.681-0.435,1.148-0.144    c0.468,0.291,4.882,2.585,4.882,2.585s0.574,0.287,0.718,1.58c0.143,1.292-0.144,2.728-0.718,3.015"/>
		<path style="&st6;" d="M187.709,136.115    c0,0,5.025,2.872,5.743,3.302c0.718,0.431,1.293,0.144,1.293,0.144"/>
		<path style="&st6;" d="M238.513,191.079    c8.601-2.325,18.822,7.813,22.829,22.641c4.007,14.829,0.284,28.735-8.317,31.059"/>
		<path style="&st6;" d="M263.163,242.227    l-10.139,2.553c-8.601,2.324-18.822-7.813-22.829-22.643c-4.008-14.828-0.284-28.733,8.317-31.058l10.139-2.553"/>
		<path style="&st6;" d="M248.651,188.526    c3.79-1.024,7.896,0.371,11.645,3.522"/>
		<path style="&st6;" d="M270.356,235.839    c-1.695,3.273-4.137,5.561-7.193,6.388"/>
		<path style="&st6;" d="M237.913,193.34    c7.975-2.156,17.453,7.244,21.168,20.994c3.716,13.75,0.263,26.644-7.712,28.799"/>
		<path style="&st6;" d="M251.369,243.133    c-7.975,2.156-17.453-7.244-21.168-20.994s-0.263-26.644,7.712-28.799"/>
		<path style="&st6;" d="M239.388,201.874    c5.316-1.436,11.634,4.83,14.111,13.995c2.477,9.166,0.175,17.762-5.141,19.198"/>
		<path style="&st6;" d="M248.358,235.067    c-5.317,1.436-11.634-4.83-14.111-13.995c-2.477-9.166-0.175-17.762,5.141-19.198"/>
		<path style="&st6;" d="M135.718,126.678    c4.274-1.13,9.292,2.924,12.913,9.736"/>
		<path style="&st6;" d="M152.888,161.105    c-0.91,4.371-2.945,7.465-5.891,8.243"/>
		<path style="&st6;" d="M158.91,164.925    c-0.921,1.135-2.034,1.916-3.319,2.256"/>
		<path style="&st6;" d="M155.59,167.181    l-8.594,2.168c-5.892,1.557-13.193-6.732-16.307-18.516c-3.115-11.783-0.863-22.598,5.028-24.155l6.636-1.738"/>
		<path style="&st6;" d="M135.279,128.663    c5.294-1.399,11.829,5.864,14.784,16.317"/>
		<path style="&st6;" d="M151.501,153.597    c0.344,7.37-1.831,13.17-5.867,14.237"/>
		<path style="&st6;" d="M145.633,167.834    c-5.408,1.429-12.111-6.181-14.97-16.997c-2.859-10.817-0.792-20.745,4.616-22.174"/>
		<path style="&st6;" d="M136.302,135.782    c3.5-0.925,7.837,4,9.687,10.999c1.85,6.999,0.513,13.423-2.987,14.348"/>
		<path style="&st6;" d="M143.001,161.129    c-3.5,0.925-7.837-3.999-9.687-10.998c-1.85-6.999-0.513-13.423,2.987-14.348"/>
		<path style="&st6;" d="M163.706,92.617    c-3.134,0.553-5.917,1.089-7.689,1.429c-5.02,0.963-18.266,3.739-22.765,5.983c-4.874,2.43-8.163,7.504-9.431,12.726    c-1.268,5.222-0.355,10.09,0.051,11.154c0,0,1.749,0.837,2.053,0.951c0.304,0.114,0.723,0,1.103-0.457    c0.38-0.456,4.379-4.711,4.379-4.711s0.958-1.053,1.819-0.574c0.861,0.479,11.311,6.993,11.311,6.993s2.393,1.34,3.063,4.116    c0.67,2.776,1.245,7.466,1.436,7.945c0.191,0.479,0.574,1.723,0.766,2.201c0.191,0.479,3.446,10.338,3.638,10.721    c0.191,0.383,0.957,0.861,0.957,0.861l7.323,3.973c0,0,4.02,2.298,5.744,3.159c1.723,0.861,59.731,34.891,59.731,34.891    s1.292,0.861,2.297,1.436c1.005,0.574,1.723,1.005,1.723,1.005l0.287-1.148c0,0-3.159-1.579-3.589-3.877    c-0.431-2.297,0.287-6.03,0.718-7.466c0.431-1.436,0.574-2.585,2.441-4.451c1.867-1.866,3.159-3.303,3.159-3.303    s1.148-0.718,2.441-0.432"/>
		<path style="&st6;" d="M180.405,90.497    c-3.488,0.028-9.134,0.834-14.31,1.707"/>
		<path style="&st6;" d="M126.23,123.909    c0.19-0.723,1.521-3.422,2.7-4.525c1.179-1.103,4.525-3.08,6.883-1.635c2.357,1.445,9.355,5.59,10.495,6.35    c1.141,0.761,3.004,2.13,3.612,5.134c0.608,3.004,1.939,11.56,1.939,11.56"/>
		<path style="&st6;" d="M123.226,116.988    c0.532-0.76,4.302-5.924,9.545-8.86c0.951-0.533,2.852-2.053,0.267-3.347c-2.586-1.293-3.423-1.559-2.814-2.7"/>
		<path style="&st6;" d="M133.722,105.238    c0.57,0.38,21.295,10.686,21.295,10.686s1.483,0.456,2.244,2.396c0.76,1.939,2.928,6.313,3.232,7.035    c0.304,0.723,0.608,1.179,1.445,1.635c0.836,0.457,32.739,17.62,35.966,19.176l103.142,54.897c0,0,0.574,0.383,1.244,0.383"/>
		<path style="&st6;" d="M155.168,115.962    l59.264,29.964l14.665,7.415l5.606,2.835l62.896,32.252c0,0,4.979,3.063,11.679,2.967c0,0,3.198-0.45,3.828-0.573    c17.9-3.542,37.237-8.903,37.237-8.903c7.968-2.23,12.568-3.526,18.719-5.567l11.132-3.875c7.332-2.588,11.692-4.342,11.692-4.342    "/>
		<path style="&st6;" d="M230.285,129.499    c0.326-3.718,1.342-14.686,1.544-17.112c0.38-4.563,1.787-14.26,1.787-14.26"/>
		<path style="&st6;" d="M231.901,130.272    c0.322-3.666,1.328-14.785,1.526-17.163c0.38-4.563,1.787-14.26,1.787-14.26"/>
		<path style="&st6;" d="M137.943,99.763    c3.545,0.755,14.994,4.003,23.93,8.301"/>
		<path style="&st6;" d="M133.798,104.288    c7.967,0.17,17.092,1.926,27.785,6.166"/>
		<path style="&st6;" d="M310.887,230.104    c0.608-0.456,0.851-1.072,1.071-1.664"/>
		<path style="&st6;" d="M312.483,124.721    c0-1.268-0.164-4.669-1.217-6.642c-0.406-0.761-0.577-2.379,0.878-2.837c4.808-1.515,14.594-4.036,25.384-6.772l10.709-2.64    c12.27-2.927,24.302-5.42,30.871-5.754"/>
		<path style="&st6;" d="M337.783,120.867    c-0.558-0.406-2.027-1.419-1.217-2.637c0.811-1.217,1.521-2.129,2.688-2.434c1.166-0.304,20.788-5.324,21.953-5.577    c1.167-0.254,2.637-0.355,3.905,0.608c1.267,0.963,0.912,1.825-0.761,3.194"/>
		<path style="&st6;" d="M338.493,120.614    c0.102-0.659,0.354-2.231,2.839-2.991c2.485-0.761,19.166-4.868,23.374-5.78"/>
		<path style="&st6;" d="M340.977,182.875    c-0.811-0.051-1.825,0.102-2.13-1.115c-0.304-1.217-0.253-2.027,1.066-2.434c1.318-0.405,5.679-1.419,6.388-1.571    c0.711-0.152,1.521-0.152,1.623,0.963c0.102,1.115-0.354,2.332-0.811,2.788"/>
		<path style="&st6;" d="M339.102,180.797    c0.659,0.355,0.964,0.202,1.471,0.101c0.507-0.101,5.272-1.217,5.881-1.419c0.608-0.203,1.166-0.457,1.166-0.862"/>
	</g>
	<g>
		<path style="&st3;" d="M126.784,124.708    c0.11,0.2,0.141,0.35,0.141,0.35s0.096,7.179-0.191,8.04c-0.287,0.862-1.532,0.958-1.532,0.958s-1.435-0.574-2.297-0.958    c-0.861-0.383-1.292-0.957-1.723-1.818c-0.431-0.862-0.814-5.217-0.383-6.94c0.191-0.76,0.94-1.353,1.717-1.777"/>
		<path style="&st3;" d="M198.224,149.091    l-38.945-20.586c0,0-0.1-0.054-0.286-0.154c0,0-0.668-0.183-1.239-1.476c-0.57-1.293-2.928-6.54-3.194-7.073    c-0.266-0.532-0.684-1.064-1.521-1.521c-0.836-0.456-19.469-9.621-19.469-9.621"/>
		<path d="M299.997,203.563l-101.773,-54.472" style="&st3;"/>
		<path d="M127.021,131.759l4.305,-1.381" style="&st3;"/>
		<path style="&st3;" d="M156.216,156.551    c0,0-0.479,1.148,0.383,1.627c0.861,0.479,34.652,20.39,34.652,20.39s1.436,0.479,2.01,0.095c0.574-0.382,2.01-1.818,2.584-2.68"/>
		<path style="&st3;" d="M196.899,176.558    c0,0-1.723,2.202-2.298,2.585c-0.574,0.383-0.67,0.861-0.67,0.861l0.096,1.244"/>
		<path style="&st3;" d="M155.259,152.531    c0,0-0.287,1.627-0.766,2.489c-0.479,0.862-0.766,1.34-0.766,2.01c0,0.669,0,1.34,0,1.34s0.383,0.766,0.766,1.053    c0.383,0.287,37.619,22.207,37.619,22.207s1.245,0.67,2.393,0.479c1.149-0.191,5.839-1.723,5.839-1.723s1.148-0.67,1.436-1.34"/>
		<path style="&st3;" d="M149.803,140.661    c0,0-0.383,0.479-0.191,1.436c0.191,0.957,4.02,22.4,4.02,22.4s0.575,1.531,2.489,1.148l5.935-1.819"/>
		<path d="M149.707,139.895 l45.325,25.798 l31.301,17.805 " style="&st3;"/>
		<path style="&st3;" d="M228.2,194.697    c0,0-2.297-1.436-2.01-4.308c0.288-2.871,0.574-5.313,0.574-5.313s0.288-2.154,1.149-3.733c0.861-1.579,2.441-3.302,3.589-4.308    c1.149-1.005,3.159-2.441,6.318-0.861c3.159,1.58,17.518,9.907,17.518,9.907s4.164,2.154,5.6,7.467    c1.575,5.83,3.015,11.343,3.015,11.343s-1.005,0.574-0.622,2.011c0.383,1.436,4.881,25.845,4.881,25.845s0.287,3.542,3.256,2.968    c2.967-0.574,7.657-2.298,8.327-2.776s1.692-0.492,2.01-3.829c0.192-2.01,0-3.732,0-3.732"/>
		<path style="&st3;" d="M165.884,107.637    c0,0,0.191-1.531,1.723-2.297c1.531-0.766,2.967-1.244,4.212-0.861c1.244,0.383,2.297,0.67,2.297,3.063c0,2.393,0,8.041,0,8.041    s-0.287,1.627-1.723,2.202c-1.436,0.574-4.212,1.053-5.169,0.479c-0.957-0.574-1.436-1.34-1.436-2.584    C165.789,114.433,165.884,107.637,165.884,107.637z"/>
		<path style="&st3;" d="M173.351,106.871    c0,0-0.383-1.053-1.627-0.957c-1.245,0.095-2.776,0.479-3.542,1.723c-0.334,0.544-0.383,2.681-0.383,2.681v5.839    c0,0,0.096,1.34,1.531,1.627c1.436,0.287,3.638-0.67,3.925-1.819"/>
		<path style="&st3;" d="M172.011,106.105    c0,0,0.67,0.575,0.67,1.627c0,1.053,0,7.658,0,7.658s0.191,1.531-1.245,2.01"/>
		<path style="&st3;" d="M170.957,104.191    l12.827-18.57c0,0,1.402-1.747,3.637-3.733c2.584-2.297,4.212-3.35,4.212-3.35s1.34-1.245,5.265-2.393    c3.924-1.149,11.869-3.255,27.089-5.648c15.22-2.393,25.13-2.79,32.929-2.585c0,0,8.807,0.096,24.026,2.967    c15.221,2.872,29.292,5.935,50.925,12.636c21.634,6.701,46.426,15.028,48.437,15.89c2.011,0.861,2.968,2.202,4.212,6.317    c1.244,4.116,4.69,17.709,6.605,30.823c1.913,13.114,3.35,27.952,3.35,27.952s0,1.627-0.191,2.201    c-0.191,0.574-0.574,1.148-0.574,1.148l0.479,8.328c0,0,1.628,2.585,1.532,3.542c-0.067,0.666,0,9.189,0,9.189    s-0.097,4.977-0.097,7.083c0,2.106-1.914,7.084-3.254,7.85c-1.341,0.766-2.011,0.957-2.011,0.957    c-2.65,1.141-9.214,3.384-16.294,5.714l-10.814,3.508c-7.324,2.348-13.191,4.18-13.191,4.18s-37.333,10.243-37.62,10.338    c-0.287,0.097-0.479-0.095-0.479-0.095c0.078-0.299,0.156-0.6,0.227-0.902c0.375-1.643,1.353-4.159,1.435-8.605    c0.009-0.484,0.062-0.864,0.062-1.119c0-1.341,0.191-10.338,0.096-11.869c-0.096-1.532-0.287-2.202-0.287-2.202    s0,0.096-0.48-1.531c-0.478-1.628-0.19-2.489-0.19-2.489l0.391-16.363c0-19.515,0.059-19.501-0.391-56.482"/>
		<path style="&st3;" d="M383.751,109.264    c0,0,3.828,15.412,5.743,30.823c1.915,15.412,2.68,27.903,2.68,27.903s0.432,6.03,0.574,8.615"/>
		<path style="&st3;" d="M392.748,176.605    v23.835c0,0-0.07,0.354-0.311,0.664"/>
		<path style="&st3;" d="M392.436,201.104    c-3.658,1.23-35.766,11.464-41.015,13.155"/>
		<path style="&st3;" d="M351.422,214.26    c-10.154,2.793-32.679,9.205-36.679,10.23"/>
		<path style="&st3;" d="M376.163,165.103    c4.059-1.209,8.138-2.475,12.278-3.86l0.573-0.418c-0.429-5.087-1.112-12.291-2.105-20.279c-1.224-9.854-3.23-19.707-4.519-25.533    c0,0-0.142-0.758-0.491-0.525c0,0-22.127,7.078-33.471,9.231c0,0-0.909,0.329-0.693,1.026c0,0,2.91,20.073,5.17,46.422    c0,0,0.353,0.533,0.848,0.389c5.919-1.729,11.716-3.341,17.517-5.02L376.163,165.103z"/>
		<path style="&st3;" d="M351.252,173.878    c-2.297-28.431-5.456-50.255-5.456-50.255c-0.047-1.148,1.006-1.244,1.006-1.244c11.343-2.154,35.609-9.668,35.609-9.668    s0.839-0.393,1.064,0.45c1.464,5.442,3.528,16.297,4.869,27.098c1.11,8.932,1.834,16.883,2.246,21.99l-0.857,0.431    c-3.919,1.311-7.918,2.587-11.929,3.814l-6.67,1.999c-28.818,8.461-56.209,14.289-56.209,14.289l-1.436,0.143"/>
		<path style="&st3;" d="M350.103,174.309    c-2.297-28.43-5.474-50.56-5.474-50.56s-0.126-0.604-0.986-0.413c0,0-25.559,5.456-28.143,5.887c0,0-1.172,0.048-1.112,1.292"/>
		<path style="&st3;" d="M316.506,180.052    c0-5.821-0.034-11.625-0.084-17.086l-0.381-26.011c-0.065-3.257-0.11-5.148-0.11-5.148c-0.048-0.335,0.431-0.575,0.431-0.575    c2.585-0.431,26.228-6.078,26.228-6.078c0.286-0.191,0.523,0.173,0.523,0.173s2.935,20.444,5.203,47.275l-0.724,0.569    c-0.303,0.077-0.604,0.155-0.904,0.232l-8.084,2.029c-13.075,3.212-21.956,5.049-21.956,5.049"/>
		<path style="&st3;" d="M309.612,134.099    c0.107,6.512,0.24,14.029,0.24,14.029s-0.189,15.453-0.387,30.049l-0.077,5.628c-0.103,7.368-0.201,13.921-0.27,17.326"/>
		<path d="M349.864,194.554l-19.585,5.382" style="&st3;"/>
		<path style="&st3;" d="M325.028,195.536    c-1.049,0.283-1.679,0.453-1.679,0.453s-0.766,0.335-0.766,1.053v4.745c0,0.431,0.141,0.812,0.699,1.014    c0.558,0.203,3.169,1.218,3.625,1.394c0.456,0.178,0.836,0.102,1.622-0.1c0.786-0.204,17.275-4.797,20.839-5.756    c0.658-0.177,1.262-0.228,1.262-1.91c0-0.554,0-1.135,0-1.396c0-0.574-0.287-0.766-0.287-0.766s-0.85-0.791-1.657-1.529    l-1.118-0.938l-0.024-0.405c0,0-1.04-0.609-1.445-0.862c-0.406-0.254-1.191-0.405-1.927-0.202    c-0.735,0.202-7.493,2.07-10.836,2.97L325.028,195.536z"/>
		<path style="&st3;" d="M345.516,191.57    c-1.869,0.538-7.67,2.264-9.908,2.905l-8.592,2.443c-0.677,0.188-1.101,0.302-1.178,0.315c-0.574,0.096-0.096,0.67-0.096,0.67    s0.95,0.763,1.883,1.352c0.475,0.3,1.818,1.061,1.793,2.557c-0.025,1.495-0.025,1.495-0.025,1.495"/>
		<path d="M322.488,198.287 l-1.034,0.269 l-4.855,1.262 l-3.684,0.958 " style="&st3;"/>
		<path style="&st3;" d="M322.584,197.042    c0,0.767,0.766,0.958,0.766,0.958l4.02,2.776c0,0,0.384,0.477,0.384,0.861c0,0.041,0,0.107,0,0.191v1.683"/>
		<path d="M314.159,204.509l8.338,-2.24" style="&st3;"/>
		<path style="&st3;" d="M352.258,193.692    c0,0,0.096,0.574-1.627,1.053"/>
		<path style="&st3;" d="M354.556,226.525    l2.584,1.627c0,0,1.244,0.48,2.107-0.383"/>
		<path style="&st3;" d="M353.693,228.344    l-3.637,1.054c0,0-0.479,0.096-0.861-0.192c-0.384-0.287-0.384-0.67-0.384-0.67"/>
		<path style="&st3;" d="M345.94,237.247    c0,0,27.473-8.042,28.43-8.329c0.957-0.286,1.148-0.67,1.148-0.67s0-0.184,0-0.766c0-0.766-0.479-0.957-0.479-0.957l-6.223-3.829    l-9.638,2.896l1.31,0.934c0,0,0.384,0.287,0.384,0.861c0,0.574,0,1.245,0,1.245s-0.411,0.656-0.861,0.957    c-0.861,0.574-2.489,0.67-3.064,0.479c-0.574-0.191-3.602-2.103-3.602-2.103"/>
		<path d="M348.876,228.62l-2.936,0.873" style="&st3;"/>
		<path style="&st3;" d="M335.219,222.505    l9.573,5.456c0,0,1.053,0.479,1.148,2.01c0.096,1.532,0,7.276,0,7.276s0,1.148-1.819,2.297c-1.34,0.846-2.584-0.287-2.584-0.287"/>
		<path style="&st3;" d="M332.105,223.462    l10.005,5.552c0,0,0.958,0.767,0.958,1.724c0,0.957,0,6.892,0,6.892s-0.096,0.861-0.958,1.341    c-0.86,0.479-20.867,6.413-20.867,6.413"/>
		<path d="M342.27,230.053l-20.737,6.236" style="&st3;"/>
		<path style="&st3;" d="M327.283,237.398v3.063    c0,0,0,0.766,0.766,0.67c0.766-0.095,8.51-2.544,8.51-2.544s0.575-0.575,0.575-1.054s0-3.063,0-3.063s-0.096-0.862-0.958-0.479    c-0.553,0.246-8.318,2.449-8.318,2.449S327.283,236.61,327.283,237.398z"/>
		<path style="&st3;" d="M319.371,235.145    c-1.064-0.697-2.381-1.552-3.01-1.919c-1.148-0.67-1.818-1.148-2.871-1.723c-1.054-0.574-0.767-1.627-0.767-1.627    c-0.096-0.383-1.244-0.192-1.627,0.095c-0.383,0.288-1.34,0.671-1.34,0.671c-2.011,0.67-4.499,0.383-6.51-0.479    c-2.01-0.861-13.497-7.658-13.497-7.658s-0.573-0.383-0.957-0.287c-0.766,0.191-0.861,0.861-0.861,2.105    c0,1.244,1.723,8.902,2.298,11.583c0.574,2.681,1.914,3.063,1.914,3.063s15.507,8.424,17.422,9.189    c1.914,0.765,2.967,1.148,3.925,0.957c0.957-0.192,3.35-0.766,5.072-1.341c1.724-0.574,2.776-1.818,2.681-3.732    c-0.009-0.174-0.013-0.359-0.013-0.554c0,0,0-5.197,0-5.653c0-0.456,0.126-1.369-0.686-1.901    C319.734,235.402,319.371,235.145,319.371,235.145z"/>
		<path style="&st3;" d="M289.271,223.846    c0,0,9.668,6.03,19.911,11.678c0,0,3.638,2.105,5.072,2.297c1.437,0.191,3.926-0.478,3.926-0.478l2.488-0.67"/>
		<path style="&st3;" d="M312.342,200.871    c0,0-0.619,0.155-1.399,0.358"/>
		<path style="&st3;" d="M302.555,202.263    c-0.387,0.802-0.81,1.95-0.911,3.277l-0.023,9.901c0,4.592,0,9.073,0,9.073s0.096,4.595,3.063,6.031"/>
		<path style="&st3;" d="M302.099,208.721    c0,0,1.244,0.766,2.776,1.053c1.531,0.287,2.266,0.479,4.499-0.191c1.914-0.575,4.02-1.532,4.02-1.532s0.288-0.096,0.384-0.67"/>
		<path style="&st3;" d="M302.099,216.666    c0,0,1.531,1.053,3.064,1.34c1.531,0.287,2.775,0.096,4.69-0.383c1.531-0.383,3.446-1.34,3.446-1.34"/>
		<path style="&st3;" d="M264.192,204.987    c0,0,0.574,0.479,1.148,1.531c0.574,1.054,5.456,11.871,5.456,11.871s0.479,1.148,1.244,1.53    c0.766,0.384,16.752,9.382,16.752,9.382"/>
		<path d="M263.522,203.073l38.098,22.017" style="&st3;"/>
		<path style="&st3;" d="M277.21,180.674    c0,0-0.095-1.436,1.532-0.766c1.628,0.67,11.774,6.03,11.774,6.03s0.67,0.48,0.861,1.628c0.191,1.148,0.096,3.732-0.096,4.403    c-0.191,0.67-0.862,0.957-1.724,0.477c-0.861-0.477-10.912-5.743-10.912-5.743s-1.531-0.766-1.531-2.297    C277.115,182.876,277.21,180.674,277.21,180.674z"/>
		<path style="&st3;" d="M351.301,174.165    c0,0,0.574,0.67,0.67,1.34c0.096,0.67,0.478,5.552-0.191,5.935"/>
		<path style="&st3;" d="M351.109,181.823v8.136    c0,0-0.096,0.574,0.096,0.957c0.191,0.383,1.148,2.106,1.148,3.063c0,0.286,0.361,7.732-0.932,20.28"/>
		<path style="&st3;" d="M395.62,190.629    c0,0-0.191,2.011-2.681,2.011"/>
		<path style="&st3;" d="M395.524,193.979    c0,0-0.861,0.479-1.34,0.574c-0.479,0.096-0.383,0.671-0.383,0.671l-0.096,1.243c0,0,0,0.767,0.383,0.671    c0.383-0.097,0.957,0,1.435-0.575"/>
		<path style="&st3;" d="M392.436,201.104    c-0.135,0.289-2.072,4.17-2.176,4.361c-0.371,0.678,0.382,0.862,0.382,0.862l7.658,4.594c0,0,1.148,0.767,0.766,2.011    c-0.383,1.244-2.393,8.137-2.393,8.137s-0.671,1.34-2.681,1.818c-2.011,0.479-14.933,4.499-14.933,4.499"/>
		<path style="&st3;" d="M393.035,203.36    l8.137,5.265c0,0,1.628,1.34,1.245,3.159c-0.384,1.818-2.298,7.85-3.542,9.285c-1.244,1.436-2.394,1.914-3.063,2.105    c-0.671,0.191-2.107,0.479-2.873,0"/>
		<path style="&st3;" d="M397.248,221.548    c0,0-0.574,1.436-2.298,1.818"/>
		<path d="M401.651,210.54l-1.723,0.765" style="&st3;"/>
		<path style="&st3;" d="M370.35,211.88    c0,0,6.701,3.829,7.37,4.308c0.67,0.479,1.341,0.766,1.532,2.584c0.191,1.819-0.022,6.412-0.096,7.371    c-0.096,1.244-0.575,2.105-2.202,2.68c-1.627,0.575-2.201,0.096-2.201,0.096"/>
		<path style="&st3;" d="M379.443,218.006    c0,0,17.518-5.073,18.857-5.743"/>
		<path style="&st3;" d="M388.939,217.411    c1.797-0.546,3.427-1.032,3.427-1.032s0.573-0.287,0.766,0.382c0.191,0.671,0,3.255,0,3.255s-0.192,0.767-0.766,0.958    c-0.575,0.19-7.563,2.297-7.563,2.297s-1.244,0.191-1.244-0.67"/>
		<path style="&st3;" d="M376.763,226.238    c0,0,0-4.595,0-5.935c0-1.341-1.244-2.585-1.244-2.585s-5.839-3.638-6.413-3.829c-0.575-0.191-0.575,0.383-0.575,0.383v8.232"/>
		<path d="M374.178,227.387l-28.047,8.136" style="&st3;"/>
		<path style="&st3;" d="M395.237,179.43    c0,0-0.957,0.861-2.01,1.148"/>
		<path style="&st3;" d="M393.227,180.578    c-5.02,1.901-36.672,12.344-40.874,13.401"/>
		<path d="M394.185,176.175l-1.723,0.67" style="&st3;"/>
		<path style="&st3;" d="M392.462,176.845    c-5.328,1.699-34.76,11.721-41.352,13.593l-3.542,0.861"/>
		<path d="M393.706,167.847l-1.532,0.478" style="&st3;"/>
		<path style="&st3;" d="M367.483,99.177    c0,0-26.807-9.474-54.783-17.266c-14.193-3.953-44.718-11.434-56.314-13.282"/>
		<path style="&st3;" d="M358.36,100.865    c0,0-29.507-10.123-57.936-18.307c-13.011-3.746-44.122-11.576-54.205-13.425"/>
		<path style="&st3;" d="M348.884,102.803    c0,0-28.547-10.257-56.977-18.442c-17.214-4.955-50.589-13.401-55.94-14.472"/>
		<path style="&st3;" d="M330.637,101.764    c-13.655-4.652-34.724-11.866-49.382-16.406c-6.765-2.095-46.8-13.368-52.934-14.292"/>
		<path style="&st3;" d="M321.927,104.299    c-16.6-5.914-42.729-15.354-48.856-17.218c-10.815-3.292-43.909-13.158-51.388-14.67"/>
		<path style="&st3;" d="M322.236,104.409    c-0.103-0.036-0.206-0.073-0.31-0.11"/>
		<path style="&st3;" d="M212.523,74.343    c7.226,1.261,40.359,11.489,49.132,14.46C291.465,98.9,318.73,109.91,318.73,109.91"/>
		<path style="&st3;" d="M191.013,79.142    c0,0,6.674-0.871,14.429,0.185c6.948,0.946,8.4,1.293,15.292,3.662c6.276,2.157,43.841,16.636,74.913,29.361    c1.98,0.811,6.037,2.535,7.05,2.991c1.015,0.456,3.803,2.636,3.499,7.909"/>
		<path style="&st3;" d="M188.692,83.591    c0,0,15.285,1.421,24.073,4.351c1.463,0.488,45.981,19.143,67.735,28.267l7.607,3.191c2.615,1.097,4.132,1.734,4.132,1.734    s4.212,1.819,5.647,2.393c1.436,0.575,5.169,2.106,8.711,3.063c1.012,0.273,2.043,0.394,3,0.428"/>
		<path style="&st3;" d="M309.598,127.018    c2.394,0.084,4.323-0.38,4.323-0.38s20.532-4.882,41.926-10.338c21.395-5.456,28.718-7.179,28.718-7.179s0.861-0.144,0.861-0.718"/>
		<path style="&st3;" d="M212.765,87.942    c0,0-2.166,5.65-5.377,19.132"/>
		<path style="&st3;" d="M207.439,106.822    c-0.867,4.213-4.729,22.26-5.659,27.426c-0.22,1.221-0.258,3.503,0.047,4.834"/>
		<path style="&st3;" d="M174.117,115.582    l22.064,11.343l0.431-0.143c0,0,5.313-22.83,8.615-32.881c0,0,0.718-1.867-0.718-2.585c-1.436-0.718-14.79-6.03-14.79-6.03    s-2.967-0.957-5.36,2.249l-11.687,17.089"/>
		<path style="&st3;" d="M305.483,126.968    l0.102,16.63l0.049,6.489c-0.021,4.202-0.104,15.369-0.422,27.786l-0.186,6.483c-0.075,2.368-0.159,4.746-0.256,7.096"/>
		<path style="&st3;" d="M203.288,128.217    l91.104,44.799c0,0,3.231,1.292,4.739,0.215c1.507-1.076,1.507-3.877,1.507-3.877l0.064-4.108l0.139-7.098l0.279-18.81    l0.091-6.185l0.029-1.927c0-1.082,0.101-6.253-1.915-7.128"/>
		<path style="&st3;" d="M220.877,91.316    c-4.021-1.005-4.451,1.723-4.451,1.723s-1.094,9.285-2.001,16.697l-0.773,6.644c-0.038,0.667-0.213,1.975-0.242,2.648    c0,0-0.481,3.398,2.728,5.312c0,0,13.913,6.821,30.309,14.753c1.238,0.599,1.901,0.266,2.531,0.026    c0.657-0.25,1.419-0.848,1.559-2.243c0.23-2.286,0.112-3.571,0.112-3.571"/>
		<path style="&st3;" d="M250.651,133.306    c0-3.648,0.37-8.122,0.686-11.982l1.38-11.916c0,0,0.897-3.733-1.831-5.6"/>
		<path style="&st3;" d="M249.054,134.066    c0.054-4.344,0.351-8.726,0.713-12.578l1.374-11.25c0.11-0.721,0.176-1.118,0.176-1.118s0.663-3.241-1.625-4.253l-0.599-0.252    l-23.083-9.792l-5.42-2.215c-2.154-0.718-2.791,0.781-2.791,0.781s-1.131,9.528-2.065,17.252l-0.713,6.613    c-0.029,0.529-0.215,1.591-0.238,2.123c0,0-0.225,2.234,1.786,3.527c0,0,2.757,1.332,7.235,3.495l7.676,3.707    c4.518,2.182,9.745,4.706,15.219,7.349c0,0,0.411,0.195,0.853,0.099c1.349-0.294,1.501-1.054,1.501-1.967    C249.054,134.675,249.054,134.066,249.054,134.066"/>
		<path style="&st3;" d="M259.071,107.254    c-1.866-0.431-2.297,1.723-2.297,1.723s-0.332,2.169-0.777,5.439l-1.074,8.557c-0.557,4.874-1.05,10.152-1.164,14.29    c0,0-0.989,5.001,4.388,7.598c16.643,8.039,32.523,15.938,35.789,17.472c1.018,0.477,2.653,1.391,3.566,0.82    c0.492-0.308,0.85-0.736,0.899-4.646c0.107-8.258,0.731-28.735,0.731-31.007c0-3.016-1.58-4.021-1.58-4.021"/>
		<path style="&st3;" d="M296.891,158.903    l0.518-31.834c-0.144-2.154-1.723-2.872-1.723-2.872l-7.244-3.042l-14.123-5.932l-14.305-6.008    c-1.499-0.623-1.724,0.497-1.724,0.497s-0.295,1.927-0.702,4.887l-1.082,8.515c-0.584,5.036-1.114,10.578-1.232,14.884    c0,0-0.192,3.518,3.166,5.124c18.051,8.635,35.213,17.012,36.095,17.401C295.409,160.909,296.965,162.222,296.891,158.903    l-0.006,0.309"/>
		<path style="&st3;" d="M276.244,116.076    c-1.331,8.214-3.324,29.729-3.246,33.967"/>
		<path style="&st3;" d="M277.956,116.874    c-1.598,8.252-3.459,29.509-3.378,33.886"/>
		<path style="&st3;" d="M198.047,176.894    c0,0-2.01-3.303-3.016-7.898c0,0-0.574-1.723-0.574-3.445c0-1.556,0.59-12.436,0.939-15.622c0.093-0.844,0.243-1.406,0.58-1.969    c0.338-0.563,0.989-1.79,0.989-1.79c0.121-0.263,0.364-0.828,0.364-1.151c0-0.431,0-8.041,0-8.041s-0.431-0.718-0.431-1.867    c0-1.148,0.144-2.584,0.861-5.887c0.718-3.303,5.169-23.836,8.759-35.466c0,0,0.718-2.297-0.144-2.872    c-0.861-0.575-16.656-7.036-16.656-7.036s-3.254-1.484-5.934,1.771"/>
		<path style="&st3;" d="M174.212,116.3    c0,0,1.148,0.431,1.579,0.861c0.431,0.431-0.279,0.968-0.279,0.968c-0.38,0.431-0.685,1.115-0.938,2.129    c-0.253,1.014-0.153,1.656-2.029,0.879c0,0-1.78-0.674-2.354-1.105c-0.574-0.43-0.574-1.579-0.574-1.579"/>
		<path style="&st3;" d="M164.305,113.428    c0,0-2.298,1.58-2.729,4.595c0,0,0.144,0.574,0.287,1.148l-1.005,6.605c0,0-0.574,1.005-1.005,1.436    c-0.431,0.431-1.005,1.436-1.148,2.297c-0.144,0.861-1.436,9.764-0.861,15.076l0.287,0.431c0,0-0.144,4.021,3.589,10.913"/>
		<path style="&st3;" d="M157.413,144.299    l0.144,8.185c0,0,0.144,1.148,0.718,1.58"/>
		<path style="&st3;" d="M188.14,138.986    c0,0-0.431-0.718-0.431-1.58c0-0.861-0.144-2.154,0.287-2.585c0.431-0.431,0.681-0.435,1.148-0.144    c0.468,0.291,4.882,2.585,4.882,2.585s0.574,0.287,0.718,1.58c0.143,1.292-0.144,2.728-0.718,3.015"/>
		<path style="&st3;" d="M187.709,136.115    c0,0,5.025,2.872,5.743,3.302c0.718,0.431,1.293,0.144,1.293,0.144"/>
		<path style="&st3;" d="M238.513,191.079    c8.601-2.325,18.822,7.813,22.829,22.641c4.007,14.829,0.284,28.735-8.317,31.059"/>
		<path style="&st3;" d="M263.163,242.227    l-10.139,2.553c-8.601,2.324-18.822-7.813-22.829-22.643c-4.008-14.828-0.284-28.733,8.317-31.058l10.139-2.553"/>
		<path style="&st3;" d="M248.651,188.526    c3.79-1.024,7.896,0.371,11.645,3.522"/>
		<path style="&st3;" d="M270.356,235.839    c-1.695,3.273-4.137,5.561-7.193,6.388"/>
		<path style="&st3;" d="M237.913,193.34    c7.975-2.156,17.453,7.244,21.168,20.994c3.716,13.75,0.263,26.644-7.712,28.799"/>
		<path style="&st3;" d="M251.369,243.133    c-7.975,2.156-17.453-7.244-21.168-20.994s-0.263-26.644,7.712-28.799"/>
		<path style="&st3;" d="M239.388,201.874    c5.316-1.436,11.634,4.83,14.111,13.995c2.477,9.166,0.175,17.762-5.141,19.198"/>
		<path style="&st3;" d="M248.358,235.067    c-5.317,1.436-11.634-4.83-14.111-13.995c-2.477-9.166-0.175-17.762,5.141-19.198"/>
		<path style="&st3;" d="M135.718,126.678    c4.274-1.13,9.292,2.924,12.913,9.736"/>
		<path style="&st3;" d="M152.888,161.105    c-0.91,4.371-2.945,7.465-5.891,8.243"/>
		<path style="&st3;" d="M158.91,164.925    c-0.921,1.135-2.034,1.916-3.319,2.256"/>
		<path style="&st3;" d="M155.59,167.181    l-8.594,2.168c-5.892,1.557-13.193-6.732-16.307-18.516c-3.115-11.783-0.863-22.598,5.028-24.155l6.636-1.738"/>
		<path style="&st3;" d="M135.279,128.663    c5.294-1.399,11.829,5.864,14.784,16.317"/>
		<path style="&st3;" d="M151.501,153.597    c0.344,7.37-1.831,13.17-5.867,14.237"/>
		<path style="&st3;" d="M145.633,167.834    c-5.408,1.429-12.111-6.181-14.97-16.997c-2.859-10.817-0.792-20.745,4.616-22.174"/>
		<path style="&st3;" d="M136.302,135.782    c3.5-0.925,7.837,4,9.687,10.999c1.85,6.999,0.513,13.423-2.987,14.348"/>
		<path style="&st3;" d="M143.001,161.129    c-3.5,0.925-7.837-3.999-9.687-10.998c-1.85-6.999-0.513-13.423,2.987-14.348"/>
		<path style="&st3;" d="M163.754,92.608    c-3.153,0.556-5.956,1.096-7.736,1.438c-5.02,0.963-18.266,3.739-22.765,5.983c-4.874,2.43-8.163,7.504-9.431,12.726    c-1.268,5.222-0.355,10.09,0.051,11.154c0,0,1.749,0.837,2.053,0.951c0.304,0.114,0.723,0,1.103-0.457    c0.38-0.456,4.379-4.711,4.379-4.711s0.958-1.053,1.819-0.574c0.861,0.479,11.311,6.993,11.311,6.993s2.393,1.34,3.063,4.116    c0.67,2.776,1.245,7.466,1.436,7.945c0.191,0.479,0.574,1.723,0.766,2.201c0.191,0.479,3.446,10.338,3.638,10.721    c0.191,0.383,0.957,0.861,0.957,0.861l7.323,3.973c0,0,4.02,2.298,5.744,3.159c1.723,0.861,59.731,34.891,59.731,34.891    s1.292,0.861,2.297,1.436c1.005,0.574,1.723,1.005,1.723,1.005l0.287-1.148c0,0-3.159-1.579-3.589-3.877    c-0.431-2.297,0.287-6.03,0.718-7.466c0.431-1.436,0.574-2.585,2.441-4.451c1.867-1.866,3.159-3.303,3.159-3.303    s1.148-0.718,2.441-0.432"/>
		<path style="&st3;" d="M180.405,90.497    c-3.486,0.028-9.127,0.833-14.302,1.706"/>
		<path style="&st3;" d="M126.23,123.909    c0.19-0.723,1.521-3.422,2.7-4.525c1.179-1.103,4.525-3.08,6.883-1.635c2.357,1.445,9.355,5.59,10.495,6.35    c1.141,0.761,3.004,2.13,3.612,5.134c0.608,3.004,1.939,11.56,1.939,11.56"/>
		<path style="&st3;" d="M123.226,116.988    c0.532-0.76,4.302-5.924,9.545-8.86c0.951-0.533,2.852-2.053,0.267-3.347c-2.586-1.293-3.423-1.559-2.814-2.7"/>
		<path style="&st3;" d="M133.722,105.238    c0.57,0.38,21.295,10.686,21.295,10.686s1.483,0.456,2.244,2.396c0.76,1.939,2.928,6.313,3.232,7.035    c0.304,0.723,0.608,1.179,1.445,1.635c0.836,0.457,32.739,17.62,35.966,19.176l103.142,54.897c0,0,0.574,0.383,1.244,0.383"/>
		<path style="&st3;" d="M155.168,115.962    l59.264,29.964l14.665,7.415l5.606,2.835l62.896,32.252c0,0,4.979,3.063,11.679,2.967c0,0,3.198-0.45,3.828-0.573    c17.9-3.542,37.237-8.903,37.237-8.903c7.968-2.23,12.568-3.526,18.719-5.567l11.132-3.875c7.332-2.588,11.692-4.342,11.692-4.342    "/>
		<path style="&st3;" d="M230.285,129.499    c0.326-3.718,1.342-14.686,1.544-17.112c0.38-4.563,1.787-14.26,1.787-14.26"/>
		<path style="&st3;" d="M231.901,130.272    c0.322-3.666,1.328-14.785,1.526-17.163c0.38-4.563,1.787-14.26,1.787-14.26"/>
		<path style="&st3;" d="M137.943,99.763    c3.545,0.755,14.994,4.003,23.93,8.301"/>
		<path style="&st3;" d="M133.798,104.288    c7.967,0.17,17.092,1.926,27.785,6.166"/>
		<path style="&st3;" d="M310.887,230.104    c0.608-0.456,0.851-1.072,1.071-1.664"/>
		<path style="&st3;" d="M312.483,124.721    c0-1.268-0.164-4.669-1.217-6.642c-0.406-0.761-0.577-2.379,0.878-2.837c4.808-1.515,14.594-4.036,25.384-6.772l10.709-2.64    c12.27-2.927,24.302-5.42,30.871-5.754"/>
		<path style="&st3;" d="M337.783,120.867    c-0.558-0.406-2.027-1.419-1.217-2.637c0.811-1.217,1.521-2.129,2.688-2.434c1.166-0.304,20.788-5.324,21.953-5.577    c1.167-0.254,2.637-0.355,3.905,0.608c1.267,0.963,0.912,1.825-0.761,3.194"/>
		<path style="&st3;" d="M338.493,120.614    c0.102-0.659,0.354-2.231,2.839-2.991c2.485-0.761,19.166-4.868,23.374-5.78"/>
		<path style="&st3;" d="M340.977,182.875    c-0.811-0.051-1.825,0.102-2.13-1.115c-0.304-1.217-0.253-2.027,1.066-2.434c1.318-0.405,5.679-1.419,6.388-1.571    c0.711-0.152,1.521-0.152,1.623,0.963c0.102,1.115-0.354,2.332-0.811,2.788"/>
		<path style="&st3;" d="M339.102,180.797    c0.659,0.355,0.964,0.202,1.471,0.101c0.507-0.101,5.272-1.217,5.881-1.419c0.608-0.203,1.166-0.457,1.166-0.862"/>
	</g>
</g>
<g id="キャプション">
	<text transform="matrix(1 0 0 1 132.5464 17.1392)"><tspan x="0" y="0" style="&st9;">Antenna Cord </tspan><tspan x="0" y="10" style="&st9;">Sub-Assembly</tspan></text>
	<g>
		<path d="M161.786,32.91 l0,8.747 l25.251,73.748 " style="&st7;"/>
		<path d="M161.786,32.91 l0,8.747 l25.251,73.748 " style="&st8;"/>
	</g>
	<text transform="matrix(1 0 0 1 223.8799 17.1392)"><tspan x="0" y="0" style="&st9;">Antenna Cord </tspan><tspan x="0" y="10" style="&st9;">Sub-Assembly</tspan></text>
	<g>
		<path d="M253.119,32.91 l0,8.747 l-27.082,63.748 " style="&st7;"/>
		<path d="M253.119,32.91 l0,8.747 l-27.082,63.748 " style="&st8;"/>
	</g>
	<text transform="matrix(1 0 0 1 312.5479 17.1392)"><tspan x="0" y="0" style="&st9;">Pillar Antenna </tspan><tspan x="0" y="10" style="&st9;">Pole Sub-Assembly</tspan></text>
	<g>
		<path d="M353.452,32.91 l0,8.747 l-107.748,53.415 " style="&st7;"/>
		<path d="M353.452,32.91 l0,8.747 l-107.748,53.415 " style="&st8;"/>
	</g>
	<text transform="matrix(1 0 0 1 3.3208 115.6953)"><tspan x="0" y="0" style="&st9;">Pillar Antenna </tspan><tspan x="0" y="10" style="&st9;">Pole Sub-Assembly</tspan></text>
	<g>
		<path d="M159.076,126.133 l-58.039,-8.605 l-11,0 " style="&st7;"/>
		<path d="M159.076,126.133 l-58.039,-8.605 l-11,0 " style="&st8;"/>
	</g>
</g>
</svg>