<?xml version="1.0"?>
<!-- Generator: Adobe Illustrator 18.1.1, SVG Export Plug-In . SVG Version: 6.00 Build 0)  -->
<!DOCTYPE svg PUBLIC "-//W3C//DTD SVG 1.0//EN" "http://www.w3.org/TR/2001/REC-SVG-20010904/DTD/svg10.dtd"[
	<!ENTITY ns_flows "http://ns.adobe.com/Flows/1.0/">
	<!ENTITY ns_svg "http://www.w3.org/2000/svg">
	<!ENTITY ns_xlink "http://www.w3.org/1999/xlink">
	<!ENTITY st0 "fill:none;">
	<!ENTITY st1 "fill:#B3B3B3;stroke:#000000;stroke-width:0.3;stroke-linecap:round;stroke-linejoin:round;">
	<!ENTITY st2 "fill:#FFFFFF;">
	<!ENTITY st3 "fill:#FFFFFF;stroke:#000000;stroke-width:0.3;stroke-linecap:round;stroke-linejoin:round;">
	<!ENTITY st4 "fill:none;stroke:#000000;stroke-width:0.15;stroke-linecap:round;stroke-linejoin:round;">
	<!ENTITY st5 "fill:none;stroke:#000000;stroke-width:0.3;stroke-linecap:round;stroke-linejoin:round;">
	<!ENTITY st6 "fill:none;stroke:#FFFFFF;stroke-width:0.6;stroke-linecap:round;stroke-linejoin:round;">
	<!ENTITY st7 "fill:none;stroke:#FFFFFF;stroke-width:2;">
	<!ENTITY st8 "fill:none;stroke:#000000;stroke-width:0.5;">
	<!ENTITY st9 "font-family:'Arial'; font-size:10px;">
	<!ATTLIST svg
		xmlns:ewd CDATA #FIXED "http://shcl.co.jp/ewd"
		xmlns:a CDATA #FIXED "http://ns.adobe.com/AdobeSVGViewerExtensions/3.0/"
		ewd:ver CDATA #IMPLIED>
	<!ATTLIST a
		ewd:innerGroupID CDATA #IMPLIED
		ewd:figtype CDATA #IMPLIED
		ewd:code CDATA #IMPLIED
		ewd:pinNo CDATA #IMPLIED>
]>
<svg version="1.0" x="0px" y="0px" viewBox="0 0 518.74 311.811" style="enable-background:new 0 0 518.74 311.811;" xml:space="preserve" width="518.74" height="311.811" onload="call_execInitLoadProc_svg('location')" ewd:ver="2.3.1.16" xmlns="&ns_svg;" xmlns:a="http://ns.adobe.com/AdobeSVGViewerExtensions/3.0/" xmlns:ewd="http://shcl.co.jp/ewd" xmlns:xlink="&ns_xlink;">
<script type="text/javascript" xlink:href="../../../../../system/js/ewd/fig/svgfig.js"/>
<g id="waku">
	<path d="M0,0v311.811h518.74v-311.811h-518.74z" style="&st0;"/>
</g>
<g id="イラスト">
	<path style="&st1;" d="M199.131,105.218   c-0.463,0.439-0.699,1.035-0.699,1.771c0,0.166,0.134,0.3,0.3,0.3c0.166,0,0.3-0.135,0.3-0.3c0-0.573,0.167-1.01,0.511-1.335   c0.709-0.672,2.244-0.935,4.693-0.802c0.165,0.009,0.307-0.118,0.315-0.284c0.009-0.165-0.118-0.307-0.283-0.315   C201.611,104.109,199.979,104.416,199.131,105.218z"/>
	<path style="&st1;" d="M199.053,104.765   c-1.17,0.381-2.419,1.402-2.729,2.231c-0.15,0.402-0.063,0.686,0.038,0.852c0.085,0.142,0.27,0.188,0.412,0.103   c0.142-0.085,0.188-0.27,0.103-0.412c-0.047-0.078-0.044-0.19,0.01-0.333c0.246-0.658,1.367-1.55,2.353-1.871   c1.3-0.423,3.305-0.618,4.99-0.484c0.166,0.013,0.31-0.11,0.323-0.275c0.013-0.165-0.11-0.31-0.275-0.323   C202.493,104.112,200.442,104.313,199.053,104.765z"/>
	<g>
		<g>
			<path d="M204.936,105.422 l-0.936,-0.231 l-0.011,-0.909 l1.106,-0.257 l0.936,0.232 l0.01,0.909 z" style="&st2;"/>
			<path d="M206.031,104.257l-1.106,0.257" style="&st2;"/>
			<path d="M203.989,104.282 l0.936,0.232 l0.011,0.908 " style="&st2;"/>
		</g>
		<g>
			<path d="M204.936,105.422 l-0.936,-0.231 l-0.011,-0.909 l1.106,-0.257 l0.936,0.232 l0.01,0.909 z" style="&st3;"/>
			<path d="M206.031,104.257l-1.106,0.257" style="&st4;"/>
			<path d="M203.989,104.282 l0.936,0.232 l0.011,0.908 " style="&st4;"/>
		</g>
	</g>
	<path style="&st1;" d="M223.638,102.917   c-1.707,0.374-11.123,2.741-17.354,4.307l-5.417,1.358c-0.972,0.24-1.64-0.069-1.833-0.847c-0.163-0.655,0.097-1.43,0.515-1.533   c0.161-0.04,0.258-0.203,0.218-0.364c-0.04-0.161-0.203-0.258-0.364-0.218c-0.84,0.21-1.176,1.359-0.952,2.259   c0.217,0.873,1.003,1.67,2.559,1.286l5.419-1.358c6.228-1.565,15.638-3.931,17.336-4.303c1.021-0.223,2.096-0.309,3.022-0.218   l0.051-0.602C225.841,102.587,224.714,102.682,223.638,102.917z"/>
	<g>
		<path style="&st5;" d="M141.127,124.148    l-0.563,0.037c0,0-0.375,3.712-0.425,4.313c-0.05,0.6-0.013,1.075,0.162,1.55c0.175,0.475,0.825,1.749,0.925,1.962    c0.1,0.212,0.387,0.337,0.5,0.337c0.112,0,1.612-0.212,1.85-0.237c0.238-0.025,0.475-0.15,0.588-0.351    c0.112-0.2,0.3-0.612,0.3-0.612l0.438-0.063l-0.275,1.9l-0.313,0.499"/>
		<path d="M142.639,132.272 l1.763,1.738 l1.15,-0.5 l1.062,-3.275 l-0.237,-1.5 l-0.05,-0.35 l-0.575,-0.537 " style="&st5;"/>
		<path style="&st5;" d="M144.877,131.635    c0.237-0.025,0.6-0.062,0.813-0.587s0.275-0.888,0.275-1.188s0-0.638,0-0.875c0-0.238-0.012-0.4-0.075-0.625    c-0.063-0.225-0.388-1.25-0.388-1.25"/>
		<path d="M145.377,127.935 l0.125,-1.212 l-1.05,-0.975 " style="&st5;"/>
		<path style="&st5;" d="M143.24,125.51    c-0.788,0.138-1.3-0.062-1.3-0.062l-0.85-0.775l0.3-3.312c0,0,0.05-0.3,0.538-0.413"/>
		<path style="&st5;" d="M143.74,121.186    c0.027-0.243-0.348-0.486-0.838-0.542c-0.491-0.056-0.911,0.097-0.938,0.34c-0.009,0.081-0.023,0.205-0.032,0.286    c-0.028,0.243,0.347,0.486,0.838,0.542c0.49,0.056,0.911-0.097,0.938-0.34C143.717,121.391,143.731,121.267,143.74,121.186z"/>
		<path style="&st5;" d="M145.388,116.524    l0.361-3.655c0.033-0.33-0.217-0.477-0.547-0.509c-0.33-0.033-0.615,0.061-0.647,0.391l-1.337,13.538    c-0.033,0.33,0.192,0.464,0.522,0.497c0.33,0.033,0.64-0.049,0.672-0.378l0.834-8.441"/>
		<path style="&st4;" d="M144.298,115.353    c-0.033,0.33,0.192,0.464,0.522,0.496c0.33,0.033,0.64-0.048,0.672-0.378"/>
		<path style="&st4;" d="M144.4,114.315    c-0.033,0.33,0.192,0.464,0.522,0.497c0.33,0.033,0.64-0.048,0.672-0.378"/>
		<path style="&st3;" d="M149.325,69.741    l-4.45,42.95c-0.017,0.165,0.099,0.234,0.264,0.251c0.165,0.017,0.316-0.024,0.333-0.189l4.45-42.95    c0.017-0.165-0.103-0.312-0.268-0.329C149.49,69.457,149.342,69.576,149.325,69.741z"/>
		<path style="&st3;" d="M149.189,69.493    c-0.005,0.136,0.199,0.255,0.456,0.266c0.257,0.01,0.47-0.092,0.475-0.229c0.005-0.136-0.184-0.331-0.44-0.342    C149.422,69.178,149.194,69.356,149.189,69.493z"/>
		<path style="&st5;" d="M144.643,117.666    l0.3,0.234c0,0,0.3,0.094,0.572-0.103l0.103-1.031l-0.319-0.281c0,0-0.206,0.084-0.534,0.037L144.643,117.666z"/>
		<path style="&st4;" d="M142.739,131.973    c0.275-0.4,0.4-0.788,0.475-1.462c0.071-0.633,0.325-3.325,0.325-3.325"/>
		<path d="M145.314,133.21l-0.587,-0.563" style="&st4;"/>
		<path style="&st4;" d="M144.777,132.322    c0.25,0.251,0.475,0.251,0.575-0.037c0.1-0.287,0.137-0.488,0.212-0.675c0.075-0.188,0.125-0.45,0.125-0.45"/>
		<path d="M143.739,127.048l1.7,-0.3" style="&st4;"/>
		<path d="M143.364,126.91l-2.587,-2.463" style="&st4;"/>
		<path style="&st4;" d="M144.914,131.147    c0.087-0.225,0.2-0.537,0.225-0.8c0.025-0.262,0.25-2.362,0.25-2.362"/>
		<path d="M141.564,121.498l0.538,0.5" style="&st4;"/>
		<path style="&st4;" d="M142.377,122.135    c0.35,0.125,0.813,0.1,1.212,0.025"/>
		<path d="M142.177,122.248l-0.263,2.887" style="&st4;"/>
	</g>
	<path style="&st5;" d="M228.399,96.534   l0.268-3.162c0.024-0.286-0.194-0.409-0.479-0.433c-0.286-0.024-0.53,0.061-0.555,0.346l-1.424,16.861   c-0.024,0.285,0.171,0.398,0.457,0.423c0.286,0.024,0.552-0.05,0.576-0.335l1.052-12.452"/>
	<path style="&st4;" d="M227.442,95.535   c-0.024,0.286,0.172,0.398,0.458,0.422c0.285,0.024,0.552-0.05,0.576-0.335"/>
	<path style="&st4;" d="M227.518,94.638   c-0.024,0.286,0.172,0.398,0.457,0.423c0.286,0.024,0.552-0.05,0.576-0.336"/>
	<path style="&st3;" d="M229.835,71.659   l-1.926,21.57c-0.013,0.143,0.088,0.201,0.23,0.214c0.143,0.013,0.274-0.025,0.286-0.168l1.926-21.57   c0.013-0.143-0.092-0.269-0.235-0.281C229.974,71.411,229.848,71.516,229.835,71.659z"/>
	<path style="&st3;" d="M229.714,71.446   c-0.003,0.118,0.175,0.218,0.397,0.223c0.222,0.006,0.405-0.085,0.408-0.203c0.003-0.118-0.163-0.284-0.385-0.29   C229.912,71.171,229.717,71.328,229.714,71.446z"/>
	<path style="&st5;" d="M227.769,97.53   l0.262,0.199c0,0,0.26,0.077,0.493-0.096l0.077-0.892l-0.279-0.239c0,0-0.177,0.076-0.461,0.039L227.769,97.53z"/>
	<path style="&st1;" d="M171.227,124.285   c-0.165,0-0.3,0.134-0.3,0.3c0,0.394-0.02,0.834-0.257,1.499c-0.844,2.363-2.382,4.253-3.21,4.946   c-0.896,0.75-1.57,1.077-3.199,1.03c-1.757-0.05-4.877-0.966-5.559-1.207l-0.247-0.086c-0.702-0.24-1.498-0.511-2.025-1.343   l-0.323-0.524c-0.524-0.864-1.066-1.756-2.278-2.861c-1.657-1.512-3.605-2.058-4.712-1.926c-0.73,0.087-1.308,0.299-1.978,0.545   l-1.127,0.391c-0.46,0.145-0.828,0.121-1.062-0.07c-0.204-0.165-0.307-0.46-0.275-0.79l0.633-6.291   c-0.198,0.056-0.366,0.003-0.366,0.003l-0.22-0.172l-0.644,6.402c-0.051,0.53,0.133,1.021,0.494,1.314   c0.277,0.225,0.784,0.439,1.619,0.177l1.154-0.401c0.661-0.242,1.182-0.434,1.842-0.513c0.977-0.116,2.719,0.389,4.237,1.774   c1.147,1.047,1.667,1.902,2.169,2.73l0.329,0.534c0.641,1.01,1.582,1.331,2.338,1.589l0.24,0.083c0.7,0.248,3.914,1.19,5.742,1.242   c1.813,0.052,2.606-0.336,3.602-1.17c0.878-0.736,2.505-2.729,3.39-5.204c0.27-0.756,0.292-1.274,0.292-1.701   C171.527,124.419,171.393,124.285,171.227,124.285z"/>
	<g>
		<path d="M171.217,125.878 l-0.853,-0.359 l0,-1.381 l0.751,-0.201 l0.853,0.359 l0,1.38 z" style="&st3;"/>
		<path d="M171.968,124.296l-0.751,0.202" style="&st4;"/>
		<path d="M170.364,124.138 l0.853,0.36 l0,1.38 " style="&st4;"/>
	</g>
	<g>
		<path d="M171.217,124.498 l-0.853,-0.359 l0,-1.381 l0.751,-0.201 l0.853,0.359 l0,1.38 z" style="&st3;"/>
		<path d="M171.968,122.916l-0.751,0.201" style="&st4;"/>
		<path d="M170.364,122.758 l0.853,0.359 l0,1.381 " style="&st4;"/>
	</g>
	<path style="&st1;" d="M199.741,105.563   c-1.582,0.193-2.951,1.006-3.254,1.932c-0.14,0.427-0.039,0.829,0.285,1.134c0.184,0.174,0.387,0.441,0.309,0.73   c-0.103,0.375-0.633,0.706-1.42,0.884c-2.355,0.535-25.318,5.798-25.831,5.926c-0.373,0.093-1.363,0.341-1.122,1.55   c0.2,1,1.663,3.262,1.923,3.637c0.324,0.465,0.322,0.861,0.321,1.319l-0.001,0.084c0,0.166,0.134,0.3,0.3,0.3   c0.166,0.001,0.3-0.134,0.3-0.3l0.001-0.083c0.001-0.489,0.003-1.043-0.429-1.664c-0.457-0.657-1.672-2.637-1.827-3.412   c-0.111-0.558,0.109-0.708,0.679-0.851c0.512-0.127,23.465-5.388,25.819-5.923c1.037-0.235,1.699-0.701,1.865-1.312   c0.122-0.45-0.047-0.92-0.476-1.324c-0.153-0.144-0.193-0.306-0.126-0.51c0.199-0.608,1.285-1.344,2.757-1.523   c0.165-0.02,0.281-0.17,0.261-0.334C200.055,105.659,199.905,105.542,199.741,105.563z"/>
	<path style="&st2;" d="M201.552,105.857c0,0-0.058,0.193-0.227,0.24c-0.169,0.047-1.758,0.33-1.758,0.33   s-0.438,0.002-0.499-0.415c-0.062-0.417,0.197-0.588,0.419-0.62c0.221-0.032,1.367-0.251,1.522-0.28   c0.156-0.029,0.438,0.11,0.472,0.205c0.033,0.094,0.857-0.131,0.857-0.131s0.067-0.204,0.356-0.213   c0.29-0.009,0.466,0.021,0.508,0.026c0.042,0.005,0.207,0.04,0.236,0.235c0.029,0.195-0.057,0.326-0.201,0.39   c-0.144,0.064-0.503,0.138-0.546,0.147c-0.043,0.009-0.242-0.101-0.253-0.13C202.43,105.613,201.552,105.857,201.552,105.857z"/>
	<path style="&st4;" d="M201.146,105.115   c-0.256,0.035-0.433,0.286-0.396,0.56c0.037,0.273,0.275,0.467,0.531,0.432"/>
	<path style="&st5;" d="M203.28,105.596   l-0.544,0.139c-0.173,0.033-0.346-0.119-0.387-0.338c-0.042-0.22,0.065-0.424,0.237-0.456l0.524,0.011"/>
	<path style="&st5;" d="M203.264,105.587   c0.138-0.026,0.224-0.189,0.19-0.366c-0.033-0.175-0.172-0.297-0.31-0.271"/>
	<path d="M201.369,105.366l0.892,-0.173" style="&st5;"/>
	<path d="M201.416,105.817l0.893,-0.173" style="&st5;"/>
	<path style="&st4;" d="M201.341,105.288   c-0.072,0.013-0.184,0.201-0.158,0.34c0.026,0.139,0.134,0.261,0.322,0.241"/>
	<path style="&st5;" d="M201.492,105.241   c-0.102-0.107-0.245-0.165-0.396-0.145l-1.601,0.298c-0.256,0.035-0.434,0.285-0.396,0.559c0.038,0.274,0.275,0.467,0.531,0.433   l1.602-0.298c0.136-0.019,0.249-0.098,0.32-0.208"/>
	<path style="&st1;" d="M232.919,114.518   l-0.653-0.755c-0.814-0.914-2.043-2.297-2.335-3.201c-0.051-0.158-0.22-0.244-0.378-0.193c-0.158,0.051-0.244,0.22-0.193,0.377   c0.331,1.024,1.561,2.406,2.458,3.416l0.63,0.728c0.179,0.228,0.204,0.403,0.17,0.484c-0.006,0.014-0.023,0.058-0.095,0.066   c-0.102,0.013-0.285-0.057-0.461-0.295c-0.524-0.71-1.612-1.138-2.872-1.633c-0.76-0.299-1.622-0.638-2.461-1.079   c-1.769-0.929-3.64-3.059-3.852-4.381c-0.057-0.36,0.006-0.631,0.196-0.826c0.832-0.858,1.846-0.042,2.899,0.947l0.246,0.229   c0.288,0.262,0.636,0.349,0.929,0.233c0.27-0.106,0.446-0.366,0.472-0.693l0.841-10.269c-0.214,0.119-0.429,0.057-0.429,0.057   l-0.167-0.127l-0.842,10.291c-0.007,0.096-0.042,0.163-0.095,0.183c-0.056,0.022-0.169,0.004-0.304-0.119l-0.239-0.223   c-0.849-0.797-2.428-2.28-3.74-0.927c-0.321,0.331-0.445,0.794-0.358,1.338c0.263,1.643,2.415,3.898,4.165,4.817   c0.868,0.457,1.746,0.802,2.52,1.106c1.173,0.462,2.188,0.861,2.609,1.432c0.28,0.379,0.661,0.579,1.018,0.535   c0.262-0.032,0.477-0.194,0.576-0.434C233.303,115.284,233.211,114.89,232.919,114.518z"/>
	<g>
		<path d="M229.817,111.527 l-0.853,-0.358 l0,-1.38 l0.751,-0.202 l0.853,0.359 l0,1.381 z" style="&st3;"/>
		<path d="M230.568,109.946l-0.751,0.201" style="&st4;"/>
		<path d="M228.964,109.789 l0.853,0.358 l0,1.38 " style="&st4;"/>
	</g>
	<g>
		<path d="M229.817,110.147 l-0.853,-0.358 l0,-1.381 l0.751,-0.201 l0.853,0.359 l0,1.38 z" style="&st3;"/>
		<path d="M230.568,108.566l-0.751,0.201" style="&st4;"/>
		<path d="M228.964,108.408 l0.853,0.359 l0,1.38 " style="&st4;"/>
	</g>
	<path style="&st1;" d="M229.76,104.386   c-0.256-0.734-0.893-1.205-1.729-1.471l-0.051,0.622c0.6,0.216,1.042,0.556,1.214,1.046c0.439,1.259,0.351,2.637,0.304,3.376   l-0.021,0.425c-0.008,0.165,0.12,0.291,0.285,0.299c0.165,0.008,0.307-0.134,0.315-0.299l0.019-0.386   C230.146,107.216,230.24,105.76,229.76,104.386z"/>
	<g>
		<path style="&st6;" d="M111.658,125.777    c0.109,0.197,0.139,0.345,0.139,0.345s0.095,7.08-0.189,7.93c-0.283,0.85-1.51,0.944-1.51,0.944s-1.415-0.566-2.265-0.944    c-0.85-0.378-1.274-0.944-1.699-1.794c-0.425-0.85-0.803-5.144-0.378-6.844c0.188-0.75,0.926-1.334,1.693-1.753"/>
		<path style="&st6;" d="M118.35,109.952    c0,0,18.375,9.038,19.2,9.488c0.825,0.45,1.238,0.975,1.5,1.5c0.263,0.524,2.587,5.7,3.15,6.975    c0.563,1.275,1.222,1.456,1.222,1.456c0.184,0.099,0.282,0.151,0.282,0.151l35.842,18.93l100.256,53.54    c0,0,2.523,1.346,4.374,1.516"/>
		<path d="M111.892,132.73l4.245,-1.362" style="&st6;"/>
		<path style="&st6;" d="M140.683,157.18    c0,0-0.472,1.132,0.377,1.604s63.197,37.283,63.197,37.283s1.417,0.471,1.983,0.094c0.566-0.379,1.982-1.793,2.548-2.643"/>
		<path style="&st6;" d="M209.827,194.083    c0,0-1.699,2.172-2.266,2.549c-0.566,0.379-0.661,0.85-0.661,0.85l0.094,1.229"/>
		<path style="&st6;" d="M139.739,153.215    c0,0-0.283,1.605-0.755,2.455c-0.472,0.85-0.755,1.321-0.755,1.982c0,0.661,0,1.322,0,1.322s0.377,0.755,0.755,1.038    c0.377,0.284,66.123,39.075,66.123,39.075s1.228,0.662,2.36,0.473c1.133-0.189,5.759-1.699,5.759-1.699s1.133-0.66,1.416-1.322"/>
		<path style="&st6;" d="M134.358,141.509    c0,0-0.378,0.472-0.189,1.416c0.189,0.944,3.965,22.089,3.965,22.089s0.566,1.512,2.454,1.133l5.853-1.793"/>
		<path d="M134.264,140.754 l44.697,25.44 l30.869,17.559 " style="&st6;"/>
		<path style="&st6;" d="M211.671,194.798    c0,0-2.266-1.416-1.983-4.248c0.284-2.832,0.566-5.238,0.566-5.238s0.283-2.125,1.133-3.682c0.85-1.559,2.407-3.258,3.54-4.25    c1.133-0.99,3.115-2.406,6.23-0.848c3.116,1.557,17.275,9.77,17.275,9.77s4.107,2.123,5.523,7.363    c1.554,5.75,2.973,11.186,2.973,11.186s-0.991,0.566-0.613,1.982c0.378,1.416,4.814,25.488,4.814,25.488s0.283,3.492,3.21,2.926    c2.927-0.566,7.552-2.266,8.213-2.738c0.66-0.471,1.669-0.484,1.982-3.775c0.189-1.982,0-3.682,0-3.682"/>
		<path style="&st6;" d="M149.246,110.464    c0,0,0.189-1.51,1.699-2.266c1.51-0.755,2.926-1.227,4.154-0.85c1.227,0.378,2.266,0.661,2.266,3.021c0,2.36,0,7.929,0,7.929    s-0.283,1.605-1.699,2.171c-1.416,0.566-4.154,1.039-5.098,0.472c-0.944-0.566-1.416-1.321-1.416-2.549    C149.151,117.166,149.246,110.464,149.246,110.464z"/>
		<path style="&st6;" d="M156.609,109.709    c0,0-0.378-1.038-1.605-0.944c-1.227,0.094-2.737,0.472-3.493,1.699c-0.33,0.536-0.377,2.643-0.377,2.643v5.758    c0,0,0.094,1.322,1.51,1.605c1.416,0.283,3.587-0.661,3.871-1.793"/>
		<path style="&st6;" d="M155.288,108.954    c0,0,0.661,0.566,0.661,1.604c0,1.039,0,7.552,0,7.552s0.189,1.51-1.227,1.982"/>
		<path style="&st6;" d="M153.936,107.22    l13.708-19.702c0,0,1.442-1.927,3.717-4.358c2.33-2.49,4.06-3.285,4.06-3.285s1.511-0.857,5.381-1.99    c3.87-1.132,11.706-3.209,26.715-5.569c15.009-2.36,24.782-2.751,32.473-2.549c0,0,8.684,0.094,23.694,2.926    c15.009,2.832,28.886,5.853,50.22,12.461c21.334,6.607,45.783,14.82,47.766,15.67c1.982,0.85,2.927,2.171,4.153,6.23    c1.228,4.059,4.626,17.464,6.514,30.396c1.888,12.933,3.304,27.564,3.304,27.564s0,1.605-0.188,2.172    c-0.188,0.566-0.566,1.133-0.566,1.133l0.472,8.213c0,0,1.605,2.549,1.511,3.492c-0.066,0.658,0,9.063,0,9.063    s-0.095,4.908-0.095,6.984c0,2.078-1.888,6.986-3.209,7.742c-1.322,0.754-1.982,0.943-1.982,0.943    c-2.612,1.125-9.087,3.336-16.068,5.635l-10.665,3.459c-7.223,2.314-13.008,4.121-13.008,4.121s-36.816,10.102-37.1,10.195    c-0.283,0.094-0.473-0.094-0.473-0.094c0.077-0.295,0.155-0.592,0.223-0.891c0.371-1.619,1.336-4.101,1.415-8.484    c0.009-0.477,0.063-0.854,0.063-1.104c0-1.322,0.189-10.195,0.094-11.705c-0.094-1.512-0.282-2.172-0.282-2.172    s0,0.096-0.473-1.51c-0.473-1.605-0.188-2.455-0.188-2.455l0.386-16.135c0-19.246,0.058-19.232-0.386-55.702"/>
		<path style="&st6;" d="M365.067,110.546    c0,0,3.776,15.199,5.665,30.397c1.888,15.199,2.643,27.517,2.643,27.517s0.426,5.947,0.566,8.496"/>
		<path style="&st6;" d="M373.941,176.956v23.506    c0,0-0.07,0.348-0.308,0.654"/>
		<path style="&st6;" d="M373.634,201.116    c-3.608,1.213-35.271,11.305-40.446,12.973"/>
		<path style="&st6;" d="M333.188,214.089    c-10.014,2.754-32.228,9.078-36.172,10.09"/>
		<path style="&st6;" d="M357.585,165.611    c4.004-1.19,8.025-2.438,12.108-3.806l0.565-0.413c-0.422-5.016-1.097-12.121-2.075-19.998c-1.208-9.718-3.186-19.435-4.457-25.18    c0,0-0.139-0.748-0.484-0.518c0,0-21.82,6.98-33.007,9.104c0,0-0.897,0.325-0.685,1.012c0,0,2.87,19.795,5.099,45.782    c0,0,0.349,0.523,0.837,0.381c5.836-1.705,11.553-3.293,17.273-4.949L357.585,165.611z"/>
		<path style="&st6;" d="M331.887,174.69    c-2.266-28.036-5.397-49.86-5.397-49.86s-0.125-0.596-0.974-0.407c0,0-25.205,5.381-27.754,5.806c0,0-1.155,0.047-1.097,1.274    l0.283,51.464"/>
		<path style="&st6;" d="M298.74,180.735    c0-5.738-0.02-11.846-0.069-17.23l-0.375-25.65c-0.065-3.212-0.109-5.077-0.109-5.077c-0.047-0.331,0.425-0.566,0.425-0.566    c2.549-0.425,25.865-5.994,25.865-5.994c0.283-0.189,0.517,0.171,0.517,0.171s2.894,20.161,5.131,46.621l-0.714,0.561    c-0.299,0.076-0.595,0.152-0.891,0.229l-7.973,2.002c-12.894,3.168-21.652,4.979-21.652,4.979"/>
		<path d="M331.651,194.657l-19.314,5.307" style="&st6;"/>
		<path style="&st6;" d="M307.159,195.626    c-1.034,0.279-1.656,0.445-1.656,0.445s-0.755,0.332-0.755,1.039v4.678c0,0.426,0.139,0.801,0.69,1.002    c0.55,0.199,3.125,1.199,3.574,1.375c0.45,0.174,0.825,0.1,1.601-0.102c0.774-0.199,17.036-4.729,20.55-5.674    c0.65-0.176,1.244-0.225,1.244-1.885c0-0.547,0-1.119,0-1.377c0-0.566-0.283-0.756-0.283-0.756s-0.837-0.779-1.634-1.508    l-1.103-0.926l-0.024-0.398c0,0-1.025-0.602-1.425-0.852c-0.4-0.25-1.175-0.398-1.9-0.199c-0.725,0.199-7.39,2.041-10.686,2.93    L307.159,195.626z"/>
		<path style="&st6;" d="M327.362,191.714    c-1.844,0.531-7.564,2.232-9.772,2.865l-8.472,2.41c-0.668,0.186-1.086,0.297-1.162,0.311c-0.566,0.094-0.095,0.66-0.095,0.66    s0.938,0.752,1.857,1.334c0.468,0.295,1.793,1.045,1.768,2.52c-0.024,1.475-0.024,1.475-0.024,1.475"/>
		<path d="M304.653,198.337 l-1.019,0.266 l-4.788,1.246 l-3.633,0.943 " style="&st6;"/>
		<path style="&st6;" d="M304.748,197.11    c0,0.756,0.755,0.943,0.755,0.943l3.965,2.738c0,0,0.378,0.473,0.378,0.85c0,0.041,0,0.105,0,0.188v1.66"/>
		<path d="M296.44,204.474l8.222,-2.209" style="&st6;"/>
		<path style="&st6;" d="M334.011,193.808    c0,0,0.095,0.564-1.604,1.037"/>
		<path style="&st6;" d="M336.277,226.185    l2.548,1.605c0,0,1.228,0.471,2.077-0.379"/>
		<path style="&st6;" d="M335.428,227.979    l-3.587,1.037c0,0-0.473,0.094-0.851-0.188c-0.377-0.283-0.377-0.662-0.377-0.662"/>
		<path style="&st6;" d="M327.781,236.757    c0,0,27.092-7.928,28.036-8.211c0.944-0.285,1.133-0.662,1.133-0.662s0-0.18,0-0.754c0-0.756-0.473-0.945-0.473-0.945    l-6.136-3.775l-9.505,2.855l1.292,0.92c0,0,0.378,0.283,0.378,0.85s0,1.227,0,1.227s-0.405,0.648-0.849,0.945    c-0.851,0.566-2.455,0.66-3.022,0.473c-0.566-0.189-3.553-2.074-3.553-2.074"/>
		<path d="M330.676,228.251l-2.895,0.859" style="&st6;"/>
		<path style="&st6;" d="M317.208,222.22    l9.439,5.381c0,0,1.039,0.473,1.134,1.982c0.094,1.512,0,7.174,0,7.174s0,1.133-1.794,2.266c-1.321,0.834-2.549-0.281-2.549-0.281    "/>
		<path style="&st6;" d="M314.138,223.163    l9.867,5.477c0,0,0.944,0.754,0.944,1.699c0,0.943,0,6.797,0,6.797s-0.095,0.85-0.944,1.32c-0.85,0.473-20.579,6.326-20.579,6.326    "/>
		<path d="M324.162,229.665l-20.45,6.148" style="&st6;"/>
		<path style="&st6;" d="M309.382,236.907v3.021    c0,0,0,0.754,0.755,0.66c0.756-0.094,8.393-2.51,8.393-2.51s0.566-0.566,0.566-1.037c0-0.473,0-3.021,0-3.021    s-0.094-0.85-0.944-0.473c-0.545,0.244-8.203,2.416-8.203,2.416S309.382,236.13,309.382,236.907z"/>
		<path style="&st6;" d="M301.579,234.686    c-1.049-0.689-2.348-1.531-2.968-1.895c-1.132-0.66-1.794-1.133-2.831-1.697c-1.039-0.566-0.756-1.605-0.756-1.605    c-0.094-0.379-1.227-0.189-1.605,0.094c-0.376,0.283-1.321,0.66-1.321,0.66c-1.982,0.662-4.435,0.379-6.419-0.471    c-1.982-0.85-13.31-7.553-13.31-7.553s-0.566-0.377-0.944-0.281c-0.755,0.188-0.85,0.848-0.85,2.074    c0,1.229,1.699,8.779,2.266,11.424c0.566,2.643,1.889,3.02,1.889,3.02s15.292,8.309,17.18,9.063    c1.889,0.756,2.926,1.133,3.871,0.945c0.943-0.189,3.303-0.756,5.003-1.322c1.698-0.566,2.737-1.793,2.643-3.682    c-0.008-0.172-0.013-0.354-0.013-0.545c0,0,0-5.127,0-5.576s0.124-1.35-0.676-1.875    C301.938,234.938,301.579,234.686,301.579,234.686z"/>
		<path style="&st6;" d="M271.897,223.542    c0,0,9.533,5.947,19.635,11.516c0,0,3.587,2.078,5.002,2.268c1.417,0.188,3.871-0.473,3.871-0.473l2.454-0.66"/>
		<path style="&st6;" d="M285.521,201.319    c-0.381,0.789-1.323,2.861-1.425,4.172l-0.022,9.764c0,4.527,0,8.947,0,8.947s0.095,4.531,3.022,5.947"/>
		<path style="&st6;" d="M284.547,208.626    c0,0,0.552,0.371,2.267,0.943c0.822,0.275,2.689,1.277,4.891,0.617c1.888-0.566,3.873-1.145,3.873-1.145s0.284-0.094,0.378-0.662"/>
		<path style="&st6;" d="M284.547,216.462    c0,0,1.51,1.039,3.02,1.322c1.511,0.283,2.92,0.436,4.809-0.037c1.51-0.377,3.49-0.955,3.49-0.955"/>
		<path style="&st6;" d="M247.164,204.946    c0,0,0.566,0.471,1.133,1.51c0.566,1.039,5.38,11.705,5.38,11.705s0.473,1.133,1.228,1.51c0.755,0.379,16.52,9.252,16.52,9.252"/>
		<path d="M246.504,203.058l37.57,21.711" style="&st6;"/>
		<path style="&st6;" d="M260.003,180.968    c0,0-0.095-1.416,1.51-0.754c1.605,0.66,11.611,5.947,11.611,5.947s0.661,0.471,0.85,1.604s0.095,3.682-0.095,4.344    c-0.189,0.66-0.85,0.943-1.698,0.471c-0.85-0.471-10.762-5.664-10.762-5.664s-1.511-0.754-1.511-2.266    C259.908,183.14,260.003,180.968,260.003,180.968z"/>
		<path style="&st6;" d="M333.067,174.548    c0,0,0.566,0.662,0.661,1.322c0.094,0.662,0.472,5.475-0.189,5.854"/>
		<path style="&st6;" d="M332.879,182.101v8.025    c0,0-0.095,0.564,0.094,0.943c0.19,0.377,1.133,2.076,1.133,3.02c0,0.283,0.356,7.625-0.918,20"/>
		<path style="&st6;" d="M376.773,190.786    c0,0-0.188,1.982-2.643,1.982"/>
		<path style="&st6;" d="M376.679,194.089    c0,0-0.85,0.473-1.321,0.568c-0.472,0.094-0.378,0.66-0.378,0.66l-0.094,1.227c0,0,0,0.756,0.378,0.662    c0.377-0.096,0.943,0,1.415-0.568"/>
		<path style="&st6;" d="M373.634,201.116    c-0.133,0.285-2.043,4.113-2.146,4.301c-0.365,0.668,0.377,0.85,0.377,0.85l7.552,4.531c0,0,1.133,0.756,0.755,1.982    c-0.377,1.229-2.359,8.023-2.359,8.023s-0.661,1.322-2.644,1.795c-1.982,0.471-14.726,4.436-14.726,4.436"/>
		<path style="&st6;" d="M374.225,203.341    l8.023,5.191c0,0,1.605,1.322,1.228,3.115c-0.378,1.795-2.266,7.742-3.493,9.156c-1.227,1.416-2.359,1.889-3.02,2.078    c-0.661,0.188-2.077,0.471-2.832,0"/>
		<path style="&st6;" d="M378.378,221.276    c0,0-0.565,1.416-2.266,1.793"/>
		<path d="M382.721,210.421l-1.7,0.754" style="&st6;"/>
		<path style="&st6;" d="M351.852,211.741    c0,0,6.608,3.777,7.269,4.25c0.661,0.471,1.322,0.754,1.511,2.549c0.188,1.793-0.022,6.322-0.095,7.267    c-0.094,1.227-0.566,2.076-2.171,2.643c-1.604,0.566-2.172,0.096-2.172,0.096"/>
		<path style="&st6;" d="M360.82,217.784    c0,0,17.275-5.004,18.597-5.664"/>
		<path style="&st6;" d="M370.185,217.198    c1.772-0.539,3.379-1.02,3.379-1.02s0.566-0.283,0.755,0.377c0.188,0.662,0,3.211,0,3.211s-0.189,0.754-0.755,0.943    c-0.566,0.189-7.458,2.266-7.458,2.266s-1.227,0.188-1.227-0.662"/>
		<path style="&st6;" d="M358.177,225.901    c0,0,0-4.531,0-5.852c0-1.322-1.227-2.549-1.227-2.549s-5.759-3.588-6.325-3.777c-0.566-0.188-0.566,0.379-0.566,0.379v8.117"/>
		<path d="M355.628,227.034l-27.659,8.024" style="&st6;"/>
		<path style="&st6;" d="M376.396,179.741    c0,0-0.944,0.85-1.982,1.133"/>
		<path style="&st6;" d="M374.414,180.874    c-4.95,1.875-36.164,12.172-40.309,13.215"/>
		<path d="M375.357,176.532l-1.699,0.66" style="&st6;"/>
		<path style="&st6;" d="M373.658,177.192    c-5.254,1.674-34.278,11.559-40.779,13.404l-3.493,0.85"/>
		<path d="M374.886,168.319l-1.511,0.471" style="&st6;"/>
		<path style="&st6;" d="M349.799,100.14    c0,0-27.209-8.883-54.798-16.567c-33.258-9.263-50.679-12.181-53.535-12.673"/>
		<path style="&st6;" d="M340.029,102.264    c0,0-29.099-9.983-57.135-18.054c-12.83-3.694-39.951-10.849-52.064-13.113"/>
		<path style="&st6;" d="M330.684,104.175    c0,0-28.151-10.115-56.188-18.186c-13.002-3.743-42.878-11.938-52.628-13.908"/>
		<path style="&st6;" d="M321.803,105.706    c-11.121-3.723-39.679-13.118-57.812-18.735c-6.652-2.06-42.222-11.837-51.183-13.905"/>
		<path style="&st6;" d="M311.532,107.717    c-14.218-4.989-48.484-16.877-55.612-19.047c-8.978-2.732-37.404-11.347-49.808-13.831"/>
		<path style="&st6;" d="M197.839,76.119    c10.035,2.387,38.171,11.319,46.824,14.25c29.396,9.957,56.285,20.815,56.285,20.815"/>
		<path style="&st6;" d="M174.572,80.812    c0,0,7.858-1.062,14.655,0.212c6.796,1.274,8.283,1.274,15.08,3.611c6.19,2.127,43.235,16.406,73.878,28.955    c1.952,0.8,5.953,2.5,6.952,2.95c1,0.45,3.75,2.6,3.45,7.8"/>
		<path style="&st6;" d="M174.529,82.171    c0,0,9.46,2.365,21.919,7.348c1.586,0.635,45.518,18.951,66.797,27.876l7.503,3.147c2.578,1.082,4.074,1.71,4.074,1.71    s4.153,1.794,5.569,2.36c1.416,0.567,5.098,2.077,8.591,3.021c0.997,0.27,2.015,0.389,2.958,0.422"/>
		<path style="&st6;" d="M291.941,128.055    c2.36,0.083,4.264-0.375,4.264-0.375s20.248-4.814,41.346-10.195c21.099-5.381,28.319-7.08,28.319-7.08s0.85-0.142,0.85-0.708"/>
		<path style="&st6;" d="M188.408,132.236    c-0.339,1.686-0.471,3.462-0.644,4.422c-0.217,1.205-0.254,3.455,0.046,4.767"/>
		<path style="&st6;" d="M155.787,107.609    l12.649-18.49c0,0,2.463-3.235,3.835-4.515c1.371-1.28,2.195-0.734,3.657-0.274c3.199,1.005,15.083,5.668,19.014,7.313    c0,0-1.859,5.623-3.84,11.793c-2.376,7.405-5.942,21.117-6.765,26.693"/>
		<path style="&st6;" d="M156.913,108.28    l12.164-17.517c0,0,2.463-3.234,3.834-4.514c1.372-1.28,2.195-0.734,3.657-0.274c3.2,1.005,12.798,4.663,16.729,6.308    c0,0-1.859,5.624-3.839,11.793c-2.377,7.404-5.577,19.928-6.399,25.505"/>
		<path style="&st6;" d="M157.442,118.663    l125.051,61.961c0,0,6.355,2.83,9.073,2.756c0,0,2.045,0.236,5.629-0.336c0,0,27.012-5.746,55.432-14.09l6.578-1.971    c3.955-1.212,7.898-2.469,11.763-3.763l0.847-0.425c-0.407-5.036-1.121-12.876-2.215-21.685    c-1.323-10.652-3.359-21.356-4.802-26.723c-0.224-0.831-1.052-0.443-1.052-0.443s-23.93,7.411-35.115,9.535    c0,0-1.039,0.094-0.992,1.227c0,0,3.116,21.523,5.381,49.56"/>
		<path style="&st6;" d="M189.158,181.351    c0,0-1.982-3.256-2.974-7.787c0,0-0.566-1.699-0.566-3.398c0-1.699,0.256-15.22,0.415-16.68c0.16-1.46,0.85-1.982,0.85-1.982    l0.567-0.85c0,0,0.425-0.85,0.425-1.274c0-0.344,0.041-5.669,0.041-7.554"/>
		<path style="&st6;" d="M157.458,119.007    c0,0,1.133,0.425,1.558,0.85c0.425,0.425-0.275,0.955-0.275,0.955c-0.375,0.425-0.675,1.1-0.925,2.1    c-0.25,1-0.151,1.633-2.001,0.867c0,0-1.755-0.664-2.322-1.09c-0.566-0.424-0.566-1.557-0.566-1.557"/>
		<path style="&st6;" d="M149.164,114.475    c0,0-2.77,1.736-3.195,4.709c0,0,0.142,0.566,0.283,1.132l-0.991,6.514c0,0-0.566,0.991-0.991,1.416    c-0.425,0.425-0.991,1.416-1.133,2.266c-0.142,0.85-1.416,9.629-0.85,14.868l0.283,0.425c0,0-0.142,3.965,3.54,10.762"/>
		<path style="&st6;" d="M141.863,145.097    l0.142,8.071c0,0,0.142,1.133,0.708,1.558"/>
		<path style="&st6;" d="M176.053,142.582    c0,0-0.425-0.708-0.425-1.558c0-0.85-0.142-2.124,0.283-2.549c0.425-0.425,0.672-0.429,1.133-0.142    c0.461,0.287,4.814,2.549,4.814,2.549s0.566,0.283,0.708,1.558c0.141,1.274-0.142,2.69-0.708,2.974"/>
		<path style="&st6;" d="M175.628,139.749    c0,0,4.956,2.832,5.664,3.257c0.708,0.425,1.274,0.142,1.274,0.142"/>
		<path style="&st6;" d="M217.164,164.088    c0,0-0.425-0.708-0.425-1.558c0-0.85-0.142-2.123,0.283-2.548c0.425-0.425,0.672-0.429,1.133-0.142    c0.461,0.287,4.814,2.549,4.814,2.549s0.566,0.283,0.708,1.558c0.141,1.274-0.142,2.691-0.708,2.973"/>
		<path style="&st6;" d="M216.739,161.255    c0,0,4.956,2.832,5.664,3.257c0.708,0.425,1.274,0.141,1.274,0.141"/>
		<path style="&st6;" d="M221.84,191.229    c8.482-2.293,18.562,7.705,22.513,22.328c3.952,14.623,0.28,28.336-8.202,30.629"/>
		<path style="&st6;" d="M246.15,241.669    l-9.998,2.518c-8.482,2.291-18.562-7.705-22.513-22.33c-3.952-14.623-0.28-28.336,8.202-30.627l9.999-2.518"/>
		<path style="&st6;" d="M231.839,188.712    c3.738-1.01,7.786,0.367,11.484,3.475"/>
		<path style="&st6;" d="M253.244,235.37    c-1.673,3.227-4.08,5.484-7.094,6.299"/>
		<path style="&st6;" d="M221.248,193.458    c7.864-2.125,17.211,7.145,20.876,20.705c3.664,13.559,0.259,26.273-7.605,28.4"/>
		<path style="&st6;" d="M234.518,242.563    c-7.865,2.125-17.211-7.145-20.876-20.705c-3.664-13.559-0.26-26.275,7.605-28.4"/>
		<path style="&st6;" d="M222.703,201.876    c5.243-1.418,11.473,4.762,13.915,13.801c2.443,9.039,0.173,17.516-5.07,18.932"/>
		<path style="&st6;" d="M231.549,234.608    c-5.243,1.416-11.473-4.762-13.915-13.801c-2.442-9.039-0.173-17.516,5.07-18.932"/>
		<path style="&st6;" d="M120.468,127.72    c4.215-1.114,9.163,2.884,12.734,9.601"/>
		<path style="&st6;" d="M137.4,161.671    c-0.897,4.311-2.905,7.361-5.81,8.129"/>
		<path style="&st6;" d="M143.339,165.436    c-0.908,1.119-2.005,1.891-3.273,2.225"/>
		<path style="&st6;" d="M140.065,167.661    l-8.475,2.139c-5.81,1.535-13.011-6.639-16.081-18.259c-3.071-11.62-0.852-22.285,4.959-23.821l6.544-1.714"/>
		<path style="&st6;" d="M120.036,129.677    c5.221-1.38,11.665,5.782,14.58,16.092"/>
		<path style="&st6;" d="M136.032,154.266    c0.34,7.268-1.805,12.987-5.786,14.04"/>
		<path style="&st6;" d="M130.246,168.306    c-5.333,1.41-11.943-6.094-14.763-16.762c-2.819-10.666-0.781-20.457,4.553-21.867"/>
		<path style="&st6;" d="M121.044,136.698    c3.451-0.913,7.729,3.944,9.552,10.846c1.825,6.901,0.506,13.237-2.945,14.149"/>
		<path style="&st6;" d="M127.651,161.693    c-3.451,0.912-7.729-3.944-9.552-10.846c-1.824-6.902-0.506-13.237,2.945-14.149"/>
		<path style="&st6;" d="M146.222,94.461    c-2.324,0.423-4.345,0.812-5.735,1.078c-4.95,0.95-18.012,3.688-22.45,5.9c-4.806,2.396-8.05,7.4-9.3,12.55    c-1.25,5.15-0.35,9.95,0.05,11c0,0,1.725,0.825,2.025,0.938c0.3,0.112,0.712,0,1.087-0.45c0.375-0.45,4.319-4.646,4.319-4.646    s0.944-1.039,1.794-0.566c0.85,0.472,11.154,6.896,11.154,6.896s2.36,1.322,3.02,4.06c0.661,2.737,1.227,7.363,1.416,7.835    c0.189,0.472,0.566,1.699,0.755,2.171c0.189,0.472,3.398,10.195,3.587,10.573c0.189,0.378,0.944,0.85,0.944,0.85l7.222,3.918    c0,0,3.965,2.265,5.664,3.115c2.383,1.191,2.362,1.238,58.904,34.407c0,0,1.274,0.85,2.266,1.416    c0.991,0.566,1.699,0.992,1.699,0.992l0.283-1.133c0,0-3.115-1.557-3.54-3.824c-0.425-2.266,0.284-5.947,0.708-7.361    c0.425-1.416,0.566-2.549,2.407-4.391c1.841-1.842,3.115-3.256,3.115-3.256s1.133-0.709,2.407-0.426"/>
		<path style="&st6;" d="M164.537,92.04    c-4.002,0.033-10.884,1.103-16.567,2.108"/>
		<path style="&st6;" d="M111.112,124.989    c0.188-0.713,1.5-3.375,2.663-4.463c1.163-1.087,4.462-3.037,6.788-1.612c2.325,1.425,9.225,5.513,10.35,6.263    s2.962,2.1,3.563,5.062c0.6,2.962,1.912,11.4,1.912,11.4"/>
		<path style="&st6;" d="M108.15,118.164    c0.525-0.75,4.242-5.842,9.413-8.737c0.938-0.525,2.813-2.025,0.262-3.3c-2.55-1.275-3.375-1.538-2.775-2.663"/>
		<path style="&st6;" d="M118.5,106.577    c0.563,0.375,21,10.538,21,10.538s1.462,0.45,2.212,2.362c0.75,1.913,2.888,6.225,3.188,6.937c0.3,0.713,0.6,1.163,1.425,1.612    c0.825,0.45,32.286,17.377,35.469,18.912l98.513,52.53c0,0,5.732,2.869,12.961,1.771c0.786-0.119,1.38-0.354,1.38-0.354"/>
		<path style="&st6;" d="M139.65,117.151    l78.434,39.658l62.026,31.805c0,0,6.759,3.283,11.517,2.926c0,0,3.155-0.443,3.776-0.566c17.652-3.492,36.721-8.779,36.721-8.779    c7.858-2.199,12.396-3.477,18.461-5.49l10.978-3.82c7.229-2.553,11.53-4.281,11.53-4.281"/>
		<path style="&st6;" d="M146.457,109.475    c0.988,0.498,1.944,1.012,2.853,1.542"/>
		<path style="&st6;" d="M122.663,101.177    c3.398,0.724,13.518,3.465,22.003,7.43"/>
		<path style="&st6;" d="M146.269,111.851    c0.981,0.397,1.978,0.817,2.992,1.26"/>
		<path style="&st6;" d="M118.575,105.639    c7.557,0.162,15.818,1.638,25.75,5.445"/>
		<path style="&st6;" d="M293.212,229.714    c0.601-0.449,0.84-1.057,1.057-1.641"/>
		<path style="&st6;" d="M294.787,125.79    c0-1.25-0.162-4.605-1.2-6.55c-0.399-0.75-0.569-2.347,0.866-2.798c4.741-1.493,14.392-3.979,25.032-6.678l10.562-2.604    c12.1-2.887,23.965-5.345,30.443-5.674"/>
		<path style="&st6;" d="M319.737,121.989    c-0.551-0.4-2-1.4-1.2-2.6c0.8-1.2,1.5-2.1,2.65-2.4c1.149-0.3,20.5-5.25,21.649-5.5c1.15-0.25,2.6-0.35,3.851,0.6    c1.25,0.951,0.899,1.8-0.75,3.15"/>
		<path style="&st6;" d="M320.438,121.739    c0.1-0.65,0.35-2.2,2.8-2.95s18.9-4.8,23.05-5.7"/>
		<path style="&st6;" d="M225.862,179.009    c0-0.949,0.431-3.66,0.431-4.211c0-0.549,0.35-1.949,1-2.301c0.65-0.35,1.5-1.1,1.6-2.25c0.1-1.148,0.8-6.148,0.8-6.449    c0-0.3-0.45-1-0.75-1.301c-0.3-0.299-0.35-0.949-0.3-2.099c0.05-1.15,2.62-18.574,3.6-27.05    c1.036-8.958,3.161-23.833,3.825-27.419"/>
		<path style="&st6;" d="M322.887,183.14    c-0.8-0.051-1.8,0.1-2.1-1.1c-0.3-1.201-0.249-2.002,1.05-2.4c1.301-0.4,5.601-1.4,6.3-1.551c0.7-0.15,1.5-0.15,1.601,0.951    c0.1,1.1-0.35,2.299-0.8,2.75"/>
		<path style="&st6;" d="M321.037,181.089    c0.65,0.35,0.95,0.201,1.45,0.1c0.5-0.1,5.2-1.199,5.8-1.398c0.6-0.201,1.15-0.451,1.15-0.852"/>
		<path style="&st6;" d="M188.408,132.236    l95.915,47.177c0,0,4.099,1.814,7.051,2.125c2.126,0.225,4.141-0.334,4.141-0.334"/>
		<path d="M157.448,117.008l30.96,15.228" style="&st6;"/>
		<path style="&st6;" d="M227.406,151.554    c2.184-20.05,6.005-44.031,6.005-44.031L201.326,94.1c-2.004,5.819-8.776,35.962-9.539,39.778"/>
		<path style="&st6;" d="M190.482,133.092    c0,0,7.294-35.507,10.128-41.814"/>
		<path style="&st6;" d="M193.303,134.633    c0,0,6.695-31.811,8.881-38.625l29.634,12.577c0,0-3.583,22.068-5.767,42.119"/>
		<path style="&st6;" d="M221.449,104.113    c-2.076,6.141-6.748,29.773-8.336,40.294"/>
		<path style="&st6;" d="M222.576,104.715    c-2.076,6.141-6.595,29.731-8.183,40.252"/>
		<path style="&st6;" d="M197.592,90.088    c-4.662,10.97-10.147,33.367-11.518,40.955"/>
		<path style="&st6;" d="M244.17,159.677    c-3.477-1.919-4.831-4.52-4.232-9.916c0.599-5.395,2.352-24.835,3.237-33.092c0.512-4.783,0.719-7.434,5.155-5.515"/>
		<path style="&st6;" d="M244.4,158.089    c0,0,37.899,18.601,40.807,19.996c2.906,1.396,5.813,2.094,7.904,1.744c0,0,0.545-0.127,0.545-0.703    c0-4.301-0.079-47.194-0.079-47.194l-0.085-2.251c0,0,0.095,0.141-2.26,0.141c-2.045,0-4.979-1.146-4.979-1.146    c-3.022-1.046-38.83-16.16-38.83-16.16c-2.303-1.009-2.325,1.046-2.325,1.046c-0.582,3.372-4.113,35.007-3.72,38.713    C241.535,153.762,241.796,156.52,244.4,158.089z"/>
		<path d="M287.176,131.071l-1.211,45.967" style="&st6;"/>
		<path d="M286.156,183.546l-0.191,5.744" style="&st6;"/>
		<path d="M285.774,192.544l-0.192,7.273" style="&st6;"/>
	</g>
	<g>
		<path style="&st4;" d="M111.658,125.777    c0.109,0.197,0.139,0.345,0.139,0.345s0.095,7.08-0.189,7.93c-0.283,0.85-1.51,0.944-1.51,0.944s-1.415-0.566-2.265-0.944    c-0.85-0.378-1.274-0.944-1.699-1.794c-0.425-0.85-0.803-5.144-0.378-6.844c0.188-0.75,0.926-1.334,1.693-1.753"/>
		<path style="&st4;" d="M118.35,109.952    c0,0,18.375,9.038,19.2,9.488c0.825,0.45,1.238,0.975,1.5,1.5c0.263,0.524,2.587,5.7,3.15,6.975    c0.563,1.275,1.222,1.456,1.222,1.456c0.184,0.099,0.282,0.151,0.282,0.151l35.842,18.93l100.256,53.54    c0,0,2.523,1.346,4.374,1.516"/>
		<path d="M111.892,132.73l4.245,-1.362" style="&st4;"/>
		<path style="&st4;" d="M140.683,157.18    c0,0-0.472,1.132,0.377,1.604s63.197,37.283,63.197,37.283s1.417,0.471,1.983,0.094c0.566-0.379,1.982-1.793,2.548-2.643"/>
		<path style="&st4;" d="M209.827,194.083    c0,0-1.699,2.172-2.266,2.549c-0.566,0.379-0.661,0.85-0.661,0.85l0.094,1.229"/>
		<path style="&st4;" d="M139.739,153.215    c0,0-0.283,1.605-0.755,2.455c-0.472,0.85-0.755,1.321-0.755,1.982c0,0.661,0,1.322,0,1.322s0.377,0.755,0.755,1.038    c0.377,0.284,66.123,39.075,66.123,39.075s1.228,0.662,2.36,0.473c1.133-0.189,5.759-1.699,5.759-1.699s1.133-0.66,1.416-1.322"/>
		<path style="&st4;" d="M134.358,141.509    c0,0-0.378,0.472-0.189,1.416c0.189,0.944,3.965,22.089,3.965,22.089s0.566,1.512,2.454,1.133l5.853-1.793"/>
		<path d="M134.264,140.754 l44.697,25.44 l30.869,17.559 " style="&st4;"/>
		<path style="&st4;" d="M211.671,194.798    c0,0-2.266-1.416-1.983-4.248c0.284-2.832,0.566-5.238,0.566-5.238s0.283-2.125,1.133-3.682c0.85-1.559,2.407-3.258,3.54-4.25    c1.133-0.99,3.115-2.406,6.23-0.848c3.116,1.557,17.275,9.77,17.275,9.77s4.107,2.123,5.523,7.363    c1.554,5.75,2.973,11.186,2.973,11.186s-0.991,0.566-0.613,1.982c0.378,1.416,4.814,25.488,4.814,25.488s0.283,3.492,3.21,2.926    c2.927-0.566,7.552-2.266,8.213-2.738c0.66-0.471,1.669-0.484,1.982-3.775c0.189-1.982,0-3.682,0-3.682"/>
		<path style="&st4;" d="M149.246,110.464    c0,0,0.189-1.51,1.699-2.266c1.51-0.755,2.926-1.227,4.154-0.85c1.227,0.378,2.266,0.661,2.266,3.021c0,2.36,0,7.929,0,7.929    s-0.283,1.605-1.699,2.171c-1.416,0.566-4.154,1.039-5.098,0.472c-0.944-0.566-1.416-1.321-1.416-2.549    C149.151,117.166,149.246,110.464,149.246,110.464z"/>
		<path style="&st4;" d="M156.609,109.709    c0,0-0.378-1.038-1.605-0.944c-1.227,0.094-2.737,0.472-3.493,1.699c-0.33,0.536-0.377,2.643-0.377,2.643v5.758    c0,0,0.094,1.322,1.51,1.605c1.416,0.283,3.587-0.661,3.871-1.793"/>
		<path style="&st4;" d="M155.288,108.954    c0,0,0.661,0.566,0.661,1.604c0,1.039,0,7.552,0,7.552s0.189,1.51-1.227,1.982"/>
		<path style="&st4;" d="M153.936,107.22    l13.708-19.702c0,0,1.442-1.927,3.717-4.358c2.33-2.49,4.06-3.285,4.06-3.285s1.511-0.857,5.381-1.99    c3.87-1.132,11.706-3.209,26.715-5.569c15.009-2.36,24.782-2.751,32.473-2.549c0,0,8.684,0.094,23.694,2.926    c15.009,2.832,28.886,5.853,50.22,12.461c21.334,6.607,45.783,14.82,47.766,15.67c1.982,0.85,2.927,2.171,4.153,6.23    c1.228,4.059,4.626,17.464,6.514,30.396c1.888,12.933,3.304,27.564,3.304,27.564s0,1.605-0.188,2.172    c-0.188,0.566-0.566,1.133-0.566,1.133l0.472,8.213c0,0,1.605,2.549,1.511,3.492c-0.066,0.658,0,9.063,0,9.063    s-0.095,4.908-0.095,6.984c0,2.078-1.888,6.986-3.209,7.742c-1.322,0.754-1.982,0.943-1.982,0.943    c-2.612,1.125-9.087,3.336-16.068,5.635l-10.665,3.459c-7.223,2.314-13.008,4.121-13.008,4.121s-36.816,10.102-37.1,10.195    c-0.283,0.094-0.473-0.094-0.473-0.094c0.077-0.295,0.155-0.592,0.223-0.891c0.371-1.619,1.336-4.101,1.415-8.484    c0.009-0.477,0.063-0.854,0.063-1.104c0-1.322,0.189-10.195,0.094-11.705c-0.094-1.512-0.282-2.172-0.282-2.172    s0,0.096-0.473-1.51c-0.473-1.605-0.188-2.455-0.188-2.455l0.386-16.135c0-19.246,0.058-19.232-0.386-55.702"/>
		<path style="&st4;" d="M365.067,110.546    c0,0,3.776,15.199,5.665,30.397c1.888,15.199,2.643,27.517,2.643,27.517s0.426,5.947,0.566,8.496"/>
		<path style="&st4;" d="M373.941,176.956    v23.506c0,0-0.07,0.348-0.308,0.654"/>
		<path style="&st4;" d="M373.634,201.116    c-3.608,1.213-35.271,11.305-40.446,12.973"/>
		<path style="&st4;" d="M333.188,214.089    c-10.014,2.754-32.228,9.078-36.172,10.09"/>
		<path style="&st4;" d="M357.585,165.611    c4.004-1.19,8.025-2.438,12.108-3.806l0.565-0.413c-0.422-5.016-1.097-12.121-2.075-19.998c-1.208-9.718-3.186-19.435-4.457-25.18    c0,0-0.139-0.748-0.484-0.518c0,0-21.82,6.98-33.007,9.104c0,0-0.897,0.325-0.685,1.012c0,0,2.87,19.795,5.099,45.782    c0,0,0.349,0.523,0.837,0.381c5.836-1.705,11.553-3.293,17.273-4.949L357.585,165.611z"/>
		<path style="&st4;" d="M331.887,174.69    c-2.266-28.036-5.397-49.86-5.397-49.86s-0.125-0.596-0.974-0.407c0,0-25.205,5.381-27.754,5.806c0,0-1.155,0.047-1.097,1.274    l0.283,51.464"/>
		<path style="&st4;" d="M298.74,180.735    c0-5.738-0.02-11.846-0.069-17.23l-0.375-25.65c-0.065-3.212-0.109-5.077-0.109-5.077c-0.047-0.331,0.425-0.566,0.425-0.566    c2.549-0.425,25.865-5.994,25.865-5.994c0.283-0.189,0.517,0.171,0.517,0.171s2.894,20.161,5.131,46.621l-0.714,0.561    c-0.299,0.076-0.595,0.152-0.891,0.229l-7.973,2.002c-12.894,3.168-21.652,4.979-21.652,4.979"/>
		<path d="M331.651,194.657l-19.314,5.307" style="&st4;"/>
		<path style="&st4;" d="M307.159,195.626    c-1.034,0.279-1.656,0.445-1.656,0.445s-0.755,0.332-0.755,1.039v4.678c0,0.426,0.139,0.801,0.69,1.002    c0.55,0.199,3.125,1.199,3.574,1.375c0.45,0.174,0.825,0.1,1.601-0.102c0.774-0.199,17.036-4.729,20.55-5.674    c0.65-0.176,1.244-0.225,1.244-1.885c0-0.547,0-1.119,0-1.377c0-0.566-0.283-0.756-0.283-0.756s-0.837-0.779-1.634-1.508    l-1.103-0.926l-0.024-0.398c0,0-1.025-0.602-1.425-0.852c-0.4-0.25-1.175-0.398-1.9-0.199c-0.725,0.199-7.39,2.041-10.686,2.93    L307.159,195.626z"/>
		<path style="&st4;" d="M327.362,191.714    c-1.844,0.531-7.564,2.232-9.772,2.865l-8.472,2.41c-0.668,0.186-1.086,0.297-1.162,0.311c-0.566,0.094-0.095,0.66-0.095,0.66    s0.938,0.752,1.857,1.334c0.468,0.295,1.793,1.045,1.768,2.52c-0.024,1.475-0.024,1.475-0.024,1.475"/>
		<path d="M304.653,198.337 l-1.019,0.266 l-4.788,1.246 l-3.633,0.943 " style="&st4;"/>
		<path style="&st4;" d="M304.748,197.11    c0,0.756,0.755,0.943,0.755,0.943l3.965,2.738c0,0,0.378,0.473,0.378,0.85c0,0.041,0,0.105,0,0.188v1.66"/>
		<path d="M296.44,204.474l8.222,-2.209" style="&st4;"/>
		<path style="&st4;" d="M334.011,193.808    c0,0,0.095,0.564-1.604,1.037"/>
		<path style="&st4;" d="M336.277,226.185    l2.548,1.605c0,0,1.228,0.471,2.077-0.379"/>
		<path style="&st4;" d="M335.428,227.979    l-3.587,1.037c0,0-0.473,0.094-0.851-0.188c-0.377-0.283-0.377-0.662-0.377-0.662"/>
		<path style="&st4;" d="M327.781,236.757    c0,0,27.092-7.928,28.036-8.211c0.944-0.285,1.133-0.662,1.133-0.662s0-0.18,0-0.754c0-0.756-0.473-0.945-0.473-0.945    l-6.136-3.775l-9.505,2.855l1.292,0.92c0,0,0.378,0.283,0.378,0.85s0,1.227,0,1.227s-0.405,0.648-0.849,0.945    c-0.851,0.566-2.455,0.66-3.022,0.473c-0.566-0.189-3.553-2.074-3.553-2.074"/>
		<path d="M330.676,228.251l-2.895,0.859" style="&st4;"/>
		<path style="&st4;" d="M317.208,222.22    l9.439,5.381c0,0,1.039,0.473,1.134,1.982c0.094,1.512,0,7.174,0,7.174s0,1.133-1.794,2.266c-1.321,0.834-2.549-0.281-2.549-0.281    "/>
		<path style="&st4;" d="M314.138,223.163    l9.867,5.477c0,0,0.944,0.754,0.944,1.699c0,0.943,0,6.797,0,6.797s-0.095,0.85-0.944,1.32c-0.85,0.473-20.579,6.326-20.579,6.326    "/>
		<path d="M324.162,229.665l-20.45,6.148" style="&st4;"/>
		<path style="&st4;" d="M309.382,236.907v3.021    c0,0,0,0.754,0.755,0.66c0.756-0.094,8.393-2.51,8.393-2.51s0.566-0.566,0.566-1.037c0-0.473,0-3.021,0-3.021    s-0.094-0.85-0.944-0.473c-0.545,0.244-8.203,2.416-8.203,2.416S309.382,236.13,309.382,236.907z"/>
		<path style="&st4;" d="M301.579,234.686    c-1.049-0.689-2.348-1.531-2.968-1.895c-1.132-0.66-1.794-1.133-2.831-1.697c-1.039-0.566-0.756-1.605-0.756-1.605    c-0.094-0.379-1.227-0.189-1.605,0.094c-0.376,0.283-1.321,0.66-1.321,0.66c-1.982,0.662-4.435,0.379-6.419-0.471    c-1.982-0.85-13.31-7.553-13.31-7.553s-0.566-0.377-0.944-0.281c-0.755,0.188-0.85,0.848-0.85,2.074    c0,1.229,1.699,8.779,2.266,11.424c0.566,2.643,1.889,3.02,1.889,3.02s15.292,8.309,17.18,9.063    c1.889,0.756,2.926,1.133,3.871,0.945c0.943-0.189,3.303-0.756,5.003-1.322c1.698-0.566,2.737-1.793,2.643-3.682    c-0.008-0.172-0.013-0.354-0.013-0.545c0,0,0-5.127,0-5.576s0.124-1.35-0.676-1.875    C301.938,234.938,301.579,234.686,301.579,234.686z"/>
		<path style="&st4;" d="M271.897,223.542    c0,0,9.533,5.947,19.635,11.516c0,0,3.587,2.078,5.002,2.268c1.417,0.188,3.871-0.473,3.871-0.473l2.454-0.66"/>
		<path style="&st4;" d="M285.521,201.319    c-0.381,0.789-1.323,2.861-1.425,4.172l-0.022,9.764c0,4.527,0,8.947,0,8.947s0.095,4.531,3.022,5.947"/>
		<path style="&st4;" d="M284.547,208.626    c0,0,0.552,0.371,2.267,0.943c0.822,0.275,2.689,1.277,4.891,0.617c1.888-0.566,3.873-1.145,3.873-1.145s0.284-0.094,0.378-0.662"/>
		<path style="&st4;" d="M284.547,216.462    c0,0,1.51,1.039,3.02,1.322c1.511,0.283,2.92,0.436,4.809-0.037c1.51-0.377,3.49-0.955,3.49-0.955"/>
		<path style="&st4;" d="M247.164,204.946    c0,0,0.566,0.471,1.133,1.51c0.566,1.039,5.38,11.705,5.38,11.705s0.473,1.133,1.228,1.51c0.755,0.379,16.52,9.252,16.52,9.252"/>
		<path d="M246.504,203.058l37.57,21.711" style="&st4;"/>
		<path style="&st4;" d="M260.003,180.968    c0,0-0.095-1.416,1.51-0.754c1.605,0.66,11.611,5.947,11.611,5.947s0.661,0.471,0.85,1.604s0.095,3.682-0.095,4.344    c-0.189,0.66-0.85,0.943-1.698,0.471c-0.85-0.471-10.762-5.664-10.762-5.664s-1.511-0.754-1.511-2.266    C259.908,183.14,260.003,180.968,260.003,180.968z"/>
		<path style="&st4;" d="M333.067,174.548    c0,0,0.566,0.662,0.661,1.322c0.094,0.662,0.472,5.475-0.189,5.854"/>
		<path style="&st4;" d="M332.879,182.101v8.025    c0,0-0.095,0.564,0.094,0.943c0.19,0.377,1.133,2.076,1.133,3.02c0,0.283,0.356,7.625-0.918,20"/>
		<path style="&st4;" d="M376.773,190.786    c0,0-0.188,1.982-2.643,1.982"/>
		<path style="&st4;" d="M376.679,194.089    c0,0-0.85,0.473-1.321,0.568c-0.472,0.094-0.378,0.66-0.378,0.66l-0.094,1.227c0,0,0,0.756,0.378,0.662    c0.377-0.096,0.943,0,1.415-0.568"/>
		<path style="&st4;" d="M373.634,201.116    c-0.133,0.285-2.043,4.113-2.146,4.301c-0.365,0.668,0.377,0.85,0.377,0.85l7.552,4.531c0,0,1.133,0.756,0.755,1.982    c-0.377,1.229-2.359,8.023-2.359,8.023s-0.661,1.322-2.644,1.795c-1.982,0.471-14.726,4.436-14.726,4.436"/>
		<path style="&st4;" d="M374.225,203.341    l8.023,5.191c0,0,1.605,1.322,1.228,3.115c-0.378,1.795-2.266,7.742-3.493,9.156c-1.227,1.416-2.359,1.889-3.02,2.078    c-0.661,0.188-2.077,0.471-2.832,0"/>
		<path style="&st4;" d="M378.378,221.276    c0,0-0.565,1.416-2.266,1.793"/>
		<path d="M382.721,210.421l-1.7,0.754" style="&st4;"/>
		<path style="&st4;" d="M351.852,211.741    c0,0,6.608,3.777,7.269,4.25c0.661,0.471,1.322,0.754,1.511,2.549c0.188,1.793-0.022,6.322-0.095,7.267    c-0.094,1.227-0.566,2.076-2.171,2.643c-1.604,0.566-2.172,0.096-2.172,0.096"/>
		<path style="&st4;" d="M360.82,217.784    c0,0,17.275-5.004,18.597-5.664"/>
		<path style="&st4;" d="M370.185,217.198    c1.772-0.539,3.379-1.02,3.379-1.02s0.566-0.283,0.755,0.377c0.188,0.662,0,3.211,0,3.211s-0.189,0.754-0.755,0.943    c-0.566,0.189-7.458,2.266-7.458,2.266s-1.227,0.188-1.227-0.662"/>
		<path style="&st4;" d="M358.177,225.901    c0,0,0-4.531,0-5.852c0-1.322-1.227-2.549-1.227-2.549s-5.759-3.588-6.325-3.777c-0.566-0.188-0.566,0.379-0.566,0.379v8.117"/>
		<path d="M355.628,227.034l-27.659,8.024" style="&st4;"/>
		<path style="&st4;" d="M376.396,179.741    c0,0-0.944,0.85-1.982,1.133"/>
		<path style="&st4;" d="M374.414,180.874    c-4.95,1.875-36.164,12.172-40.309,13.215"/>
		<path d="M375.357,176.532l-1.699,0.66" style="&st4;"/>
		<path style="&st4;" d="M373.658,177.192    c-5.254,1.674-34.278,11.559-40.779,13.404l-3.493,0.85"/>
		<path d="M374.886,168.319l-1.511,0.471" style="&st4;"/>
		<path style="&st4;" d="M349.799,100.14    c0,0-27.209-8.883-54.798-16.567c-33.258-9.263-50.679-12.181-53.535-12.673"/>
		<path style="&st4;" d="M340.029,102.264    c0,0-29.099-9.983-57.135-18.054c-12.83-3.694-39.951-10.849-52.064-13.113"/>
		<path style="&st4;" d="M330.684,104.175    c0,0-28.151-10.115-56.188-18.186c-13.002-3.743-42.878-11.938-52.628-13.908"/>
		<path style="&st4;" d="M321.803,105.706    c-11.121-3.723-39.679-13.118-57.812-18.735c-6.652-2.06-42.222-11.837-51.183-13.905"/>
		<path style="&st4;" d="M311.532,107.717    c-14.218-4.989-48.484-16.877-55.612-19.047c-8.978-2.732-37.404-11.347-49.808-13.831"/>
		<path style="&st4;" d="M197.839,76.119    c10.035,2.387,38.171,11.319,46.824,14.25c29.396,9.957,56.285,20.815,56.285,20.815"/>
		<path style="&st4;" d="M174.572,80.812    c0,0,7.858-1.062,14.655,0.212c6.796,1.274,8.283,1.274,15.08,3.611c6.19,2.127,43.235,16.406,73.878,28.955    c1.952,0.8,5.953,2.5,6.952,2.95c1,0.45,3.75,2.6,3.45,7.8"/>
		<path style="&st4;" d="M174.529,82.171    c0,0,9.46,2.365,21.919,7.348c1.586,0.635,45.518,18.951,66.797,27.876l7.503,3.147c2.578,1.082,4.074,1.71,4.074,1.71    s4.153,1.794,5.569,2.36c1.416,0.567,5.098,2.077,8.591,3.021c0.997,0.27,2.015,0.389,2.958,0.422"/>
		<path style="&st4;" d="M291.941,128.055    c2.36,0.083,4.264-0.375,4.264-0.375s20.248-4.814,41.346-10.195c21.099-5.381,28.319-7.08,28.319-7.08s0.85-0.142,0.85-0.708"/>
		<path style="&st4;" d="M188.408,132.236    c-0.339,1.686-0.471,3.462-0.644,4.422c-0.217,1.205-0.254,3.455,0.046,4.767"/>
		<path style="&st4;" d="M155.787,107.609    l12.649-18.49c0,0,2.463-3.235,3.835-4.515c1.371-1.28,2.195-0.734,3.657-0.274c3.199,1.005,15.083,5.668,19.014,7.313    c0,0-1.859,5.623-3.84,11.793c-2.376,7.405-5.942,21.117-6.765,26.693"/>
		<path style="&st4;" d="M156.913,108.28    l12.164-17.517c0,0,2.463-3.234,3.834-4.514c1.372-1.28,2.195-0.734,3.657-0.274c3.2,1.005,12.798,4.663,16.729,6.308    c0,0-1.859,5.624-3.839,11.793c-2.377,7.404-5.577,19.928-6.399,25.505"/>
		<path style="&st4;" d="M157.442,118.663    l125.051,61.961c0,0,6.355,2.83,9.073,2.756c0,0,2.045,0.236,5.629-0.336c0,0,27.012-5.746,55.432-14.09l6.578-1.971    c3.955-1.212,7.898-2.469,11.763-3.763l0.847-0.425c-0.407-5.036-1.121-12.876-2.215-21.685    c-1.323-10.652-3.359-21.356-4.802-26.723c-0.224-0.831-1.052-0.443-1.052-0.443s-23.93,7.411-35.115,9.535    c0,0-1.039,0.094-0.992,1.227c0,0,3.116,21.523,5.381,49.56"/>
		<path style="&st4;" d="M189.158,181.351    c0,0-1.982-3.256-2.974-7.787c0,0-0.566-1.699-0.566-3.398c0-1.699,0.256-15.22,0.415-16.68c0.16-1.46,0.85-1.982,0.85-1.982    l0.567-0.85c0,0,0.425-0.85,0.425-1.274c0-0.344,0.041-5.669,0.041-7.554"/>
		<path style="&st4;" d="M157.458,119.007    c0,0,1.133,0.425,1.558,0.85c0.425,0.425-0.275,0.955-0.275,0.955c-0.375,0.425-0.675,1.1-0.925,2.1    c-0.25,1-0.151,1.633-2.001,0.867c0,0-1.755-0.664-2.322-1.09c-0.566-0.424-0.566-1.557-0.566-1.557"/>
		<path style="&st4;" d="M149.164,114.475    c0,0-2.77,1.736-3.195,4.709c0,0,0.142,0.566,0.283,1.132l-0.991,6.514c0,0-0.566,0.991-0.991,1.416    c-0.425,0.425-0.991,1.416-1.133,2.266c-0.142,0.85-1.416,9.629-0.85,14.868l0.283,0.425c0,0-0.142,3.965,3.54,10.762"/>
		<path style="&st4;" d="M141.863,145.097    l0.142,8.071c0,0,0.142,1.133,0.708,1.558"/>
		<path style="&st4;" d="M176.053,142.582    c0,0-0.425-0.708-0.425-1.558c0-0.85-0.142-2.124,0.283-2.549c0.425-0.425,0.672-0.429,1.133-0.142    c0.461,0.287,4.814,2.549,4.814,2.549s0.566,0.283,0.708,1.558c0.141,1.274-0.142,2.69-0.708,2.974"/>
		<path style="&st4;" d="M175.628,139.749    c0,0,4.956,2.832,5.664,3.257c0.708,0.425,1.274,0.142,1.274,0.142"/>
		<path style="&st4;" d="M217.164,164.088    c0,0-0.425-0.708-0.425-1.558c0-0.85-0.142-2.123,0.283-2.548c0.425-0.425,0.672-0.429,1.133-0.142    c0.461,0.287,4.814,2.549,4.814,2.549s0.566,0.283,0.708,1.558c0.141,1.274-0.142,2.691-0.708,2.973"/>
		<path style="&st4;" d="M216.739,161.255    c0,0,4.956,2.832,5.664,3.257c0.708,0.425,1.274,0.141,1.274,0.141"/>
		<path style="&st4;" d="M221.84,191.229    c8.482-2.293,18.562,7.705,22.513,22.328c3.952,14.623,0.28,28.336-8.202,30.629"/>
		<path style="&st4;" d="M246.15,241.669    l-9.998,2.518c-8.482,2.291-18.562-7.705-22.513-22.33c-3.952-14.623-0.28-28.336,8.202-30.627l9.999-2.518"/>
		<path style="&st4;" d="M231.839,188.712    c3.738-1.01,7.786,0.367,11.484,3.475"/>
		<path style="&st4;" d="M253.244,235.37    c-1.673,3.227-4.08,5.484-7.094,6.299"/>
		<path style="&st4;" d="M221.248,193.458    c7.864-2.125,17.211,7.145,20.876,20.705c3.664,13.559,0.259,26.273-7.605,28.4"/>
		<path style="&st4;" d="M234.518,242.563    c-7.865,2.125-17.211-7.145-20.876-20.705c-3.664-13.559-0.26-26.275,7.605-28.4"/>
		<path style="&st4;" d="M222.703,201.876    c5.243-1.418,11.473,4.762,13.915,13.801c2.443,9.039,0.173,17.516-5.07,18.932"/>
		<path style="&st4;" d="M231.549,234.608    c-5.243,1.416-11.473-4.762-13.915-13.801c-2.442-9.039-0.173-17.516,5.07-18.932"/>
		<path style="&st4;" d="M120.468,127.72    c4.215-1.114,9.163,2.884,12.734,9.601"/>
		<path style="&st4;" d="M137.4,161.671    c-0.897,4.311-2.905,7.361-5.81,8.129"/>
		<path style="&st4;" d="M143.339,165.436    c-0.908,1.119-2.005,1.891-3.273,2.225"/>
		<path style="&st4;" d="M140.065,167.661    l-8.475,2.139c-5.81,1.535-13.011-6.639-16.081-18.259c-3.071-11.62-0.852-22.285,4.959-23.821l6.544-1.714"/>
		<path style="&st4;" d="M120.036,129.677    c5.221-1.38,11.665,5.782,14.58,16.092"/>
		<path style="&st4;" d="M136.032,154.266    c0.34,7.268-1.805,12.987-5.786,14.04"/>
		<path style="&st4;" d="M130.246,168.306    c-5.333,1.41-11.943-6.094-14.763-16.762c-2.819-10.666-0.781-20.457,4.553-21.867"/>
		<path style="&st4;" d="M121.044,136.698    c3.451-0.913,7.729,3.944,9.552,10.846c1.825,6.901,0.506,13.237-2.945,14.149"/>
		<path style="&st4;" d="M127.651,161.693    c-3.451,0.912-7.729-3.944-9.552-10.846c-1.824-6.902-0.506-13.237,2.945-14.149"/>
		<path style="&st4;" d="M146.222,94.461    c-2.324,0.423-4.345,0.812-5.735,1.078c-4.95,0.95-18.012,3.688-22.45,5.9c-4.806,2.396-8.05,7.4-9.3,12.55    c-1.25,5.15-0.35,9.95,0.05,11c0,0,1.725,0.825,2.025,0.938c0.3,0.112,0.712,0,1.087-0.45c0.375-0.45,4.319-4.646,4.319-4.646    s0.944-1.039,1.794-0.566c0.85,0.472,11.154,6.896,11.154,6.896s2.36,1.322,3.02,4.06c0.661,2.737,1.227,7.363,1.416,7.835    c0.189,0.472,0.566,1.699,0.755,2.171c0.189,0.472,3.398,10.195,3.587,10.573c0.189,0.378,0.944,0.85,0.944,0.85l7.222,3.918    c0,0,3.965,2.265,5.664,3.115c2.383,1.191,2.362,1.238,58.904,34.407c0,0,1.274,0.85,2.266,1.416    c0.991,0.566,1.699,0.992,1.699,0.992l0.283-1.133c0,0-3.115-1.557-3.54-3.824c-0.425-2.266,0.284-5.947,0.708-7.361    c0.425-1.416,0.566-2.549,2.407-4.391c1.841-1.842,3.115-3.256,3.115-3.256s1.133-0.709,2.407-0.426"/>
		<path style="&st4;" d="M164.537,92.04    c-4.002,0.033-10.884,1.103-16.567,2.108"/>
		<path style="&st4;" d="M111.112,124.989    c0.188-0.713,1.5-3.375,2.663-4.463c1.163-1.087,4.462-3.037,6.788-1.612c2.325,1.425,9.225,5.513,10.35,6.263    s2.962,2.1,3.563,5.062c0.6,2.962,1.912,11.4,1.912,11.4"/>
		<path style="&st4;" d="M108.15,118.164    c0.525-0.75,4.242-5.842,9.413-8.737c0.938-0.525,2.813-2.025,0.262-3.3c-2.55-1.275-3.375-1.538-2.775-2.663"/>
		<path style="&st4;" d="M118.5,106.577    c0.563,0.375,21,10.538,21,10.538s1.462,0.45,2.212,2.362c0.75,1.913,2.888,6.225,3.188,6.937c0.3,0.713,0.6,1.163,1.425,1.612    c0.825,0.45,32.286,17.377,35.469,18.912l98.513,52.53c0,0,5.732,2.869,12.961,1.771c0.786-0.119,1.38-0.354,1.38-0.354"/>
		<path style="&st4;" d="M139.65,117.151    l78.434,39.658l62.026,31.805c0,0,6.759,3.283,11.517,2.926c0,0,3.155-0.443,3.776-0.566c17.652-3.492,36.721-8.779,36.721-8.779    c7.858-2.199,12.396-3.477,18.461-5.49l10.978-3.82c7.229-2.553,11.53-4.281,11.53-4.281"/>
		<path style="&st4;" d="M146.457,109.475    c0.988,0.498,1.944,1.012,2.853,1.542"/>
		<path style="&st4;" d="M122.663,101.177    c3.398,0.724,13.518,3.465,22.003,7.43"/>
		<path style="&st4;" d="M146.269,111.851    c0.981,0.397,1.978,0.817,2.992,1.26"/>
		<path style="&st4;" d="M118.575,105.639    c7.557,0.162,15.818,1.638,25.75,5.445"/>
		<path style="&st4;" d="M293.212,229.714    c0.601-0.449,0.84-1.057,1.057-1.641"/>
		<path style="&st4;" d="M294.787,125.79    c0-1.25-0.162-4.605-1.2-6.55c-0.399-0.75-0.569-2.347,0.866-2.798c4.741-1.493,14.392-3.979,25.032-6.678l10.562-2.604    c12.1-2.887,23.965-5.345,30.443-5.674"/>
		<path style="&st4;" d="M319.737,121.989    c-0.551-0.4-2-1.4-1.2-2.6c0.8-1.2,1.5-2.1,2.65-2.4c1.149-0.3,20.5-5.25,21.649-5.5c1.15-0.25,2.6-0.35,3.851,0.6    c1.25,0.951,0.899,1.8-0.75,3.15"/>
		<path style="&st4;" d="M320.438,121.739    c0.1-0.65,0.35-2.2,2.8-2.95s18.9-4.8,23.05-5.7"/>
		<path style="&st4;" d="M225.862,179.009    c0-0.949,0.431-3.66,0.431-4.211c0-0.549,0.35-1.949,1-2.301c0.65-0.35,1.5-1.1,1.6-2.25c0.1-1.148,0.8-6.148,0.8-6.449    c0-0.3-0.45-1-0.75-1.301c-0.3-0.299-0.35-0.949-0.3-2.099c0.05-1.15,2.62-18.574,3.6-27.05    c1.036-8.958,3.161-23.833,3.825-27.419"/>
		<path style="&st4;" d="M322.887,183.14    c-0.8-0.051-1.8,0.1-2.1-1.1c-0.3-1.201-0.249-2.002,1.05-2.4c1.301-0.4,5.601-1.4,6.3-1.551c0.7-0.15,1.5-0.15,1.601,0.951    c0.1,1.1-0.35,2.299-0.8,2.75"/>
		<path style="&st4;" d="M321.037,181.089    c0.65,0.35,0.95,0.201,1.45,0.1c0.5-0.1,5.2-1.199,5.8-1.398c0.6-0.201,1.15-0.451,1.15-0.852"/>
		<path style="&st4;" d="M188.408,132.236    l95.915,47.177c0,0,4.099,1.814,7.051,2.125c2.126,0.225,4.141-0.334,4.141-0.334"/>
		<path d="M157.448,117.008l30.96,15.228" style="&st4;"/>
		<path style="&st4;" d="M227.406,151.554    c2.184-20.05,6.005-44.031,6.005-44.031L201.326,94.1c-2.004,5.819-8.776,35.962-9.539,39.778"/>
		<path style="&st4;" d="M190.482,133.092    c0,0,7.294-35.507,10.128-41.814"/>
		<path style="&st4;" d="M193.303,134.633    c0,0,6.695-31.811,8.881-38.625l29.634,12.577c0,0-3.583,22.068-5.767,42.119"/>
		<path style="&st4;" d="M221.449,104.113    c-2.076,6.141-6.748,29.773-8.336,40.294"/>
		<path style="&st4;" d="M222.576,104.715    c-2.076,6.141-6.595,29.731-8.183,40.252"/>
		<path style="&st4;" d="M197.592,90.088    c-4.662,10.97-10.147,33.367-11.518,40.955"/>
		<path style="&st4;" d="M244.17,159.677    c-3.477-1.919-4.831-4.52-4.232-9.916c0.599-5.395,2.352-24.835,3.237-33.092c0.512-4.783,0.719-7.434,5.155-5.515"/>
		<path style="&st4;" d="M244.4,158.089    c0,0,37.899,18.601,40.807,19.996c2.906,1.396,5.813,2.094,7.904,1.744c0,0,0.545-0.127,0.545-0.703    c0-4.301-0.079-47.194-0.079-47.194l-0.085-2.251c0,0,0.095,0.141-2.26,0.141c-2.045,0-4.979-1.146-4.979-1.146    c-3.022-1.046-38.83-16.16-38.83-16.16c-2.303-1.009-2.325,1.046-2.325,1.046c-0.582,3.372-4.113,35.007-3.72,38.713    C241.535,153.762,241.796,156.52,244.4,158.089z"/>
		<path d="M287.176,131.071l-1.211,45.967" style="&st4;"/>
		<path d="M286.156,183.546l-0.191,5.744" style="&st4;"/>
		<path d="M285.774,192.544l-0.192,7.273" style="&st4;"/>
	</g>
</g>
<g id="キャプション">
	<text transform="matrix(1 0 0 1 109.897 17.1392)"><tspan x="0" y="0" style="&st9;">Antenna Cord </tspan><tspan x="0" y="10" style="&st9;">Sub-Assembly</tspan></text>
	<g>
		<path d="M139.136,32.91 l0,8.747 l37.484,73.248 " style="&st7;"/>
		<path d="M139.136,32.91 l0,8.747 l37.484,73.248 " style="&st8;"/>
	</g>
	<text transform="matrix(1 0 0 1 198.9516 17.1392)"><tspan x="0" y="0" style="&st9;">Antenna Cord </tspan><tspan x="0" y="10" style="&st9;">Sub-Assembly</tspan></text>
	<g>
		<path d="M228.191,32.91 l0,8.747 l-20.615,65.771 " style="&st7;"/>
		<path d="M228.191,32.91 l0,8.747 l-20.615,65.771 " style="&st8;"/>
	</g>
	<text transform="matrix(1 0 0 1 287.1895 17.1392)"><tspan x="0" y="0" style="&st9;">Pillar Antenna </tspan><tspan x="0" y="10" style="&st9;">Pole Sub-Assembly</tspan></text>
	<g>
		<path d="M328.411,32.91 l0,8.747 l-100.411,56.239 " style="&st7;"/>
		<path d="M328.411,32.91 l0,8.747 l-100.411,56.239 " style="&st8;"/>
	</g>
	<text transform="matrix(1 0 0 1 3.3208 115.6953)"><tspan x="0" y="0" style="&st9;">Pillar Antenna </tspan><tspan x="0" y="10" style="&st9;">Pole Sub-Assembly</tspan></text>
	<g>
		<path d="M142.37,128.405 l-41.333,-10.877 l-11,0 " style="&st7;"/>
		<path d="M142.37,128.405 l-41.333,-10.877 l-11,0 " style="&st8;"/>
	</g>
</g>
</svg>