<?xml version="1.0"?>
<!-- Generator: Adobe Illustrator 10.0, SVG Export Plug-In . SVG Version: 3.0.0 Build 77)  -->
<!DOCTYPE svg PUBLIC "-//W3C//DTD SVG 1.0//EN" "http://www.w3.org/TR/2001/REC-SVG-20010904/DTD/svg10.dtd"[
	<!ENTITY ns_flows "http://ns.adobe.com/Flows/1.0/">
	<!ENTITY ns_svg "http://www.w3.org/2000/svg">
	<!ENTITY ns_xlink "http://www.w3.org/1999/xlink">
	<!ENTITY st0 "fill:none;stroke:#000000;stroke-linecap:round;stroke-linejoin:round;">
	<!ENTITY st1 "fill:none;stroke:#000000;stroke-width:0.6;stroke-linecap:round;stroke-linejoin:round;">
	<!ENTITY st2 "font-size:6px;">
	<!ENTITY st3 "font-family:'Arial';">
	<!ATTLIST svg
		ewd:ver CDATA #IMPLIED
		xmlns:ewd CDATA #FIXED "http://shcl.co.jp/ewd"
		xmlns:a CDATA #FIXED "http://ns.adobe.com/AdobeSVGViewerExtensions/3.0/">
	<!ATTLIST g
		ewd:pinNo CDATA #IMPLIED>
]>
<svg width="158.099" height="119.867" viewBox="0 0 158.099 119.867" style="overflow:visible;enable-background:new 0 0 158.099 119.867" xml:space="preserve" onload="call_execInitLoadProc_svg('connector')" ewd:ver="2.3.1.16" xmlns="&ns_svg;" xmlns:a="http://ns.adobe.com/AdobeSVGViewerExtensions/3.0/" xmlns:ewd="http://shcl.co.jp/ewd" xmlns:xlink="&ns_xlink;">
<script type="text/javascript" xlink:href="../../../../../system/js/ewd/fig/svgfig.js"/>
<g id="レイヤー_1">
	<path style="&st1;" d="M37.406,56.393h83.286"/>
	<path style="&st1;" d="M39.39,40.812h79.32"/>
	<path style="&st1;" d="M79.049,40.812v15.581"/>
	<path style="&st1;" d="M69.134,40.812v15.581"/>
	<path style="&st1;" d="M59.219,40.812v15.581"/>
	<path style="&st1;" d="M49.304,40.812v15.581"/>
	<path style="&st1;" d="M39.39,40.812v15.581"/>
	<path style="&st1;" d="M88.964,40.812v15.581"/>
	<path style="&st1;" d="M98.879,40.812v15.581"/>
	<path style="&st1;" d="M108.794,40.812v15.581"/>
	<path style="&st1;" d="M118.709,40.812v15.581"/>
	<path style="&st1;" d="M37.406,62.058h83.286"/>
	<path style="&st1;" d="M39.39,77.639h79.32"/>
	<path style="&st1;" d="M39.39,77.639h79.32"/>
	<path style="&st1;" d="M79.049,62.058v15.581"/>
	<path style="&st1;" d="M69.134,62.058v15.581"/>
	<path style="&st1;" d="M59.219,62.058v15.581"/>
	<path style="&st1;" d="M49.304,62.058v15.581"/>
	<path style="&st1;" d="M39.39,62.058v15.581"/>
	<path style="&st1;" d="M88.964,62.058v15.581"/>
	<path style="&st1;" d="M98.879,62.058v15.581"/>
	<path style="&st1;" d="M108.794,62.058v15.581"/>
	<path style="&st1;" d="M118.709,62.058v15.581"/>
	<path style="&st0;" d="M3.333,44.183h18.238"/>
	<path style="&st0;" d="M3.333,41.917h18.238"/>
	<path style="&st0;" d="M154.766,44.183h-18.238"/>
	<path style="&st0;" d="M154.766,41.917h-18.238"/>
	<path style="&st1;" d="M46.33,100.302v7.082"/>
	<path style="&st1;" d="M43.497,100.302v7.082"/>
	<path style="&st1;" d="M111.769,100.302v7.082"/>
	<path style="&st1;" d="M114.602,100.302v7.082"/>
	<path style="&st1;" d="M46.33,19.565v-7.083"/>
	<path style="&st1;" d="M43.497,19.565v-7.083"/>
	<path style="&st1;" d="M111.769,19.565v-7.083"/>
	<path style="&st1;" d="M114.602,19.565v-7.083"/>
	<path style="&st1;" d="M23.163,73.415c-0.269,0.77-0.408,1.453-0.459,2.267"/>
	<path style="&st1;" d="M126.917,84.721c4.083,0,7.492-2.775,8.321-6.773"/>
	<path style="&st0;" d="M21.571,44.183c0.625,0,1.133-0.507,1.133-1.133"/>
	<path style="&st0;" d="M22.704,43.05c0-0.626-0.508-1.133-1.133-1.133"/>
	<path style="&st0;" d="M3.333,77.948c-1.564,0-2.833,1.269-2.833,2.833"/>
	<path style="&st0;" d="M0.5,93.786c0,2.347,1.902,4.25,4.249,4.25"/>
	<path style="&st1;" d="M8.999,90.954c0,0.782,0.634,1.416,1.417,1.416"/>
	<path style="&st0;" d="M39.531,92.37c1.095,0,1.983-0.888,1.983-1.983"/>
	<path style="&st0;" d="M36.698,98.036c1.095,0,1.983-0.888,1.983-1.983"/>
	<path style="&st0;" d="M4.749,21.832c-2.347,0-4.249,1.903-4.249,4.25"/>
	<path style="&st1;" d="M10.415,27.498c-0.782,0-1.417,0.634-1.417,1.417"/>
	<path style="&st0;" d="M41.514,29.48c0-1.095-0.888-1.983-1.983-1.983"/>
	<path style="&st0;" d="M38.681,23.814c0-1.095-0.888-1.983-1.983-1.983"/>
	<path style="&st0;" d="M0.5,39.084c0,1.564,1.269,2.833,2.833,2.833"/>
	<path style="&st0;" d="M136.528,41.917c-0.626,0-1.133,0.507-1.133,1.133"/>
	<path style="&st0;" d="M135.395,43.05c0,0.626,0.507,1.133,1.133,1.133"/>
	<path style="&st0;" d="M157.599,80.781c0-1.564-1.269-2.833-2.833-2.833"/>
	<path style="&st0;" d="M153.35,98.036c2.347,0,4.25-1.902,4.25-4.25"/>
	<path style="&st1;" d="M147.684,92.37c0.782,0,1.417-0.634,1.417-1.416"/>
	<path style="&st0;" d="M116.585,90.387c0,1.095,0.888,1.983,1.983,1.983"/>
	<path style="&st0;" d="M119.417,96.053c0,1.095,0.888,1.983,1.983,1.983"/>
	<path style="&st0;" d="M157.599,26.081c0-2.347-1.903-4.25-4.25-4.25"/>
	<path style="&st1;" d="M149.101,28.914c0-0.783-0.634-1.417-1.417-1.417"/>
	<path style="&st0;" d="M118.568,27.498c-1.095,0-1.983,0.888-1.983,1.983"/>
	<path style="&st0;" d="M121.401,21.832c-1.095,0-1.983,0.888-1.983,1.983"/>
	<path style="&st0;" d="M154.766,41.917c1.564,0,2.833-1.268,2.833-2.833"/>
	<path style="&st0;" d="M41.514,114.466c0,1.564,1.268,2.833,2.833,2.833"/>
	<path style="&st0;" d="M113.752,117.299c1.564,0,2.833-1.268,2.833-2.833"/>
	<path style="&st1;" d="M46.33,100.302c0-0.782-0.634-1.417-1.417-1.417"/>
	<path style="&st1;" d="M44.914,98.885c-0.782,0-1.417,0.634-1.417,1.417"/>
	<path style="&st1;" d="M43.497,107.384c0,0.783,0.634,1.417,1.417,1.417"/>
	<path style="&st1;" d="M44.914,108.8c0.782,0,1.417-0.634,1.417-1.417"/>
	<path style="&st1;" d="M114.602,100.302c0-0.782-0.634-1.417-1.417-1.417"/>
	<path style="&st1;" d="M113.186,98.885c-0.782,0-1.417,0.634-1.417,1.417"/>
	<path style="&st1;" d="M111.769,107.384c0,0.783,0.634,1.417,1.417,1.417"/>
	<path style="&st1;" d="M113.186,108.8c0.782,0,1.417-0.634,1.417-1.417"/>
	<path style="&st0;" d="M44.347,2.568c-1.565,0-2.833,1.268-2.833,2.833"/>
	<path style="&st0;" d="M116.585,5.401c0-1.564-1.269-2.833-2.833-2.833"/>
	<path style="&st1;" d="M43.497,19.565c0,0.782,0.634,1.417,1.417,1.417"/>
	<path style="&st1;" d="M44.914,20.982c0.782,0,1.417-0.634,1.417-1.417"/>
	<path style="&st1;" d="M46.33,12.483c0-0.782-0.634-1.416-1.417-1.416"/>
	<path style="&st1;" d="M44.914,11.067c-0.782,0-1.417,0.634-1.417,1.416"/>
	<path style="&st1;" d="M111.769,19.565c0,0.782,0.634,1.417,1.417,1.417"/>
	<path style="&st1;" d="M113.186,20.982c0.782,0,1.417-0.634,1.417-1.417"/>
	<path style="&st1;" d="M114.602,12.483c0-0.782-0.634-1.416-1.417-1.416"/>
	<path style="&st1;" d="M113.186,11.067c-0.782,0-1.417,0.634-1.417,1.416"/>
	<path style="&st1;" d="M72.534,32.313c-0.272,0-0.502,0.045-0.754,0.149"/>
	<path style="&st1;" d="M87.548,34.296c0-1.095-0.888-1.983-1.983-1.983"/>
	<path style="&st1;" d="M72.534,32.313c-1.095,0-1.983,0.888-1.983,1.983"/>
	<path style="&st1;" d="M135.398,75.682c-0.052-0.814-0.19-1.497-0.46-2.267"/>
	<path style="&st0;" d="M135.236,77.948c0.163-0.785,0.211-1.467,0.16-2.266"/>
	<path style="&st0;" d="M22.704,75.682c-0.051,0.799-0.003,1.481,0.16,2.266"/>
	<path style="&st1;" d="M22.862,77.948c0.829,3.999,4.24,6.775,8.323,6.775"/>
	<path style="&st1;" d="M37.406,56.393v5.666"/>
	<path style="&st1;" d="M120.692,56.393v5.666"/>
	<path style="&st1;" d="M36.557,35.146L23.163,73.415"/>
	<path style="&st1;" d="M47.888,84.721H31.186"/>
	<path style="&st1;" d="M121.542,35.146l13.394,38.269"/>
	<path style="&st1;" d="M110.211,84.721h16.706"/>
	<path style="&st1;" d="M36.557,35.146h9.915v1.417h3.399v-1.417h3.399v1.417h3.399v-1.417h3.399v1.417h3.399v-1.417"/>
	<path style="&st1;" d="M63.469,35.146h7.082v1.417h3.399v-1.417h3.399v1.417h3.399v-1.417h3.399v1.417h3.399v-1.417"/>
	<path style="&st1;" d="M87.548,35.146h7.083v1.417h3.399v-1.417h3.399v1.417h3.399v-1.417h3.399v1.417h3.399v-1.417"/>
	<path style="&st1;" d="M111.627,35.146h9.915"/>
	<path style="&st1;" d="M47.888,84.721v-1.417h2.833v1.417h2.833v-1.417h2.833v1.417h2.833v-1.417h2.833v1.417"/>
	<path style="&st1;" d="M71.967,84.721v-1.417H74.8v1.417h2.833v-1.417h2.833v1.417h2.833v-1.417h2.833v1.417"/>
	<path style="&st1;" d="M96.046,84.721v-1.417h2.833v1.417h2.833v-1.417h2.833v1.417h2.833v-1.417h2.833v1.417"/>
	<path style="&st1;" d="M62.052,84.721h9.915"/>
	<path style="&st1;" d="M86.132,84.721h9.915"/>
	<path style="&st0;" d="M22.704,75.682H3.333"/>
	<path style="&st0;" d="M3.333,75.682V44.183"/>
	<path style="&st0;" d="M22.862,77.948H3.333"/>
	<path style="&st0;" d="M0.5,80.781v13.005"/>
	<path style="&st0;" d="M4.749,98.036h9.915"/>
	<path style="&st0;" d="M17.497,98.036h11.411"/>
	<path style="&st0;" d="M31.741,98.036h4.958"/>
	<path style="&st0;" d="M38.681,92.37v3.683"/>
	<path style="&st0;" d="M14.664,98.036V92.37"/>
	<path style="&st0;" d="M17.497,92.37v5.666"/>
	<path style="&st0;" d="M28.908,92.37v5.666"/>
	<path style="&st0;" d="M31.741,92.37v5.666"/>
	<path style="&st0;" d="M38.681,92.37h0.85"/>
	<path style="&st1;" d="M41.514,84.721v5.666"/>
	<path style="&st1;" d="M8.999,77.948v13.006"/>
	<path style="&st0;" d="M0.5,39.084V26.081"/>
	<path style="&st0;" d="M4.749,21.832h9.915"/>
	<path style="&st0;" d="M17.497,21.832h11.411"/>
	<path style="&st0;" d="M31.741,21.832h4.958"/>
	<path style="&st0;" d="M38.681,27.498v-3.683"/>
	<path style="&st0;" d="M14.664,21.832v5.666"/>
	<path style="&st0;" d="M17.497,27.498v-5.666"/>
	<path style="&st0;" d="M28.908,27.498v-5.666"/>
	<path style="&st0;" d="M31.741,27.498v-5.666"/>
	<path style="&st0;" d="M38.681,27.498h0.85"/>
	<path style="&st1;" d="M41.514,35.146V29.48"/>
	<path style="&st1;" d="M8.999,41.917V28.914"/>
	<path style="&st0;" d="M135.398,75.682h19.368"/>
	<path style="&st0;" d="M154.766,75.682V44.183"/>
	<path style="&st0;" d="M135.236,77.948h19.53"/>
	<path style="&st0;" d="M157.599,80.781v13.005"/>
	<path style="&st0;" d="M153.35,98.036h-9.915"/>
	<path style="&st0;" d="M140.602,98.036h-11.411"/>
	<path style="&st0;" d="M126.358,98.036h-4.958"/>
	<path style="&st0;" d="M119.417,92.37v3.683"/>
	<path style="&st0;" d="M143.435,98.036V92.37"/>
	<path style="&st0;" d="M140.602,92.37v5.666"/>
	<path style="&st0;" d="M129.191,92.37v5.666"/>
	<path style="&st0;" d="M126.358,92.37v5.666"/>
	<path style="&st0;" d="M119.417,92.37h-0.85"/>
	<path style="&st1;" d="M116.585,84.721v5.666"/>
	<path style="&st1;" d="M149.101,77.948v13.006"/>
	<path style="&st0;" d="M157.599,39.084V26.081"/>
	<path style="&st0;" d="M153.35,21.832h-9.915"/>
	<path style="&st0;" d="M140.602,21.832h-11.411"/>
	<path style="&st0;" d="M126.358,21.832h-4.958"/>
	<path style="&st0;" d="M119.417,27.498v-3.683"/>
	<path style="&st0;" d="M143.435,21.832v5.666"/>
	<path style="&st0;" d="M140.602,27.498v-5.666"/>
	<path style="&st0;" d="M129.191,27.498v-5.666"/>
	<path style="&st0;" d="M126.358,27.498v-5.666"/>
	<path style="&st0;" d="M119.417,27.498h-0.85"/>
	<path style="&st1;" d="M116.585,35.146V29.48"/>
	<path style="&st1;" d="M149.101,41.917V28.914"/>
	<path style="&st1;" d="M67.577,90.387v-2.833h22.946v2.833"/>
	<path style="&st1;" d="M90.522,90.387h18.272"/>
	<path style="&st1;" d="M49.304,90.387h18.272"/>
	<path style="&st0;" d="M46.472,87.554h2.833v2.833"/>
	<path style="&st0;" d="M46.472,87.554v0.708"/>
	<path style="&st0;" d="M41.514,90.387h4.958v-2.125"/>
	<path style="&st0;" d="M111.627,87.554v0.708"/>
	<path style="&st0;" d="M116.585,90.387h-4.958v-2.125"/>
	<path style="&st0;" d="M111.627,87.554h-2.833v2.833"/>
	<path style="&st1;" d="M46.33,94.636h-4.816"/>
	<path style="&st1;" d="M111.769,94.636h4.816"/>
	<path style="&st0;" d="M41.514,94.636v19.83"/>
	<path style="&st0;" d="M116.585,94.636v19.83"/>
	<path style="&st0;" d="M91.089,117.299h22.663"/>
	<path style="&st1;" d="M49.304,94.636h2.125v22.663"/>
	<path style="&st1;" d="M41.514,114.466h9.915"/>
	<path style="&st1;" d="M51.429,107.384H46.33"/>
	<path style="&st1;" d="M43.497,107.384h-1.983"/>
	<path style="&st1;" d="M108.794,94.636h-2.125v22.663"/>
	<path style="&st1;" d="M116.585,114.466h-9.915"/>
	<path style="&st1;" d="M106.67,107.384h5.099"/>
	<path style="&st1;" d="M114.602,107.384h1.983"/>
	<path style="&st1;" d="M63.469,117.299V94.636h9.915v22.663"/>
	<path style="&st1;" d="M84.715,117.299V94.636h9.915v22.663"/>
	<path style="&st1;" d="M94.63,114.466h-9.915"/>
	<path style="&st1;" d="M73.384,114.466h-9.915"/>
	<path style="&st1;" d="M63.469,107.384h9.915"/>
	<path style="&st1;" d="M84.715,107.384h9.915"/>
	<path style="&st0;" d="M41.514,94.636V93.22h4.816v1.417"/>
	<path style="&st0;" d="M111.769,94.636V93.22h4.816v1.417"/>
	<path style="&st0;" d="M67.01,117.299v2.068h2.833v-2.068"/>
	<path style="&st0;" d="M88.256,117.299v2.068h2.833v-2.068"/>
	<path style="&st1;" d="M46.472,32.313v2.833"/>
	<path style="&st1;" d="M111.627,32.313v2.833"/>
	<path style="&st1;" d="M46.33,25.231h-4.816"/>
	<path style="&st1;" d="M111.769,25.231h4.816"/>
	<path style="&st0;" d="M41.514,25.231V5.401"/>
	<path style="&st0;" d="M116.585,25.231V5.401"/>
	<path style="&st0;" d="M91.089,2.568h22.663"/>
	<path style="&st1;" d="M49.304,25.231h2.125V2.568"/>
	<path style="&st1;" d="M41.514,5.401h9.915"/>
	<path style="&st1;" d="M51.429,12.483H46.33"/>
	<path style="&st1;" d="M43.497,12.483h-1.983"/>
	<path style="&st1;" d="M108.794,25.231h-2.125V2.568"/>
	<path style="&st1;" d="M116.585,5.401h-9.915"/>
	<path style="&st1;" d="M106.67,12.483h5.099"/>
	<path style="&st1;" d="M114.602,12.483h1.983"/>
	<path style="&st1;" d="M63.469,2.568v22.663h9.915V2.568"/>
	<path style="&st1;" d="M84.715,2.568v22.663h9.915V2.568"/>
	<path style="&st1;" d="M94.63,5.401h-9.915"/>
	<path style="&st1;" d="M73.384,5.401h-9.915"/>
	<path style="&st1;" d="M63.469,12.483h9.915"/>
	<path style="&st1;" d="M84.715,12.483h9.915"/>
	<path style="&st0;" d="M41.514,25.231v1.416h4.816v-1.416"/>
	<path style="&st0;" d="M111.769,25.231v1.416h4.816v-1.416"/>
	<path style="&st0;" d="M67.01,2.568V0.5h2.833v2.068"/>
	<path style="&st0;" d="M88.256,2.568V0.5h2.833v2.068"/>
	<path style="&st0;" d="M46.472,32.313h2.833"/>
	<path style="&st0;" d="M108.794,32.313h2.833"/>
	<path style="&st1;" d="M70.551,35.146v-0.855"/>
	<path style="&st1;" d="M87.548,35.146v-0.855"/>
	<path style="&st1;" d="M72.534,32.313h13.031"/>
	<path style="&st1;" d="M68.568,35.146v-7.082h20.963v7.082"/>
	<path style="&st1;" d="M89.531,29.48h19.263"/>
	<path style="&st1;" d="M49.304,29.48h19.264"/>
	<path style="&st1;" d="M92.931,29.48v2.833h-1.417v2.833"/>
	<path style="&st1;" d="M65.168,29.48v2.833h1.417v2.833"/>
	<path style="&st1;" d="M89.531,25.231v2.833"/>
	<path style="&st1;" d="M68.568,25.231v2.833"/>
	<path style="&st1;" d="M73.384,25.231h11.332"/>
	<path style="&st0;" d="M44.347,2.568H67.01"/>
	<path style="&st1;" d="M67.01,2.568h2.833"/>
	<path style="&st0;" d="M69.843,2.568h18.414"/>
	<path style="&st1;" d="M88.256,2.568h2.833"/>
	<path style="&st0;" d="M49.304,32.313v-7.082H46.33"/>
	<path style="&st0;" d="M41.514,29.48h4.958v2.833"/>
	<path style="&st1;" d="M31.741,27.498h6.94"/>
	<path style="&st0;" d="M28.908,27.498h2.833"/>
	<path style="&st1;" d="M17.497,27.498h11.411"/>
	<path style="&st0;" d="M14.664,27.498h2.833"/>
	<path style="&st1;" d="M10.415,27.498h4.249"/>
	<path style="&st0;" d="M108.794,32.313v-7.082h2.975"/>
	<path style="&st0;" d="M116.585,29.48h-4.958v2.833"/>
	<path style="&st1;" d="M126.358,27.498h-6.941"/>
	<path style="&st0;" d="M129.191,27.498h-2.833"/>
	<path style="&st1;" d="M140.602,27.498h-11.411"/>
	<path style="&st0;" d="M143.435,27.498h-2.833"/>
	<path style="&st1;" d="M147.684,27.498h-4.25"/>
	<path style="&st1;" d="M147.684,92.37h-4.25"/>
	<path style="&st0;" d="M143.435,92.37h-2.833"/>
	<path style="&st1;" d="M140.602,92.37h-11.411"/>
	<path style="&st0;" d="M129.191,92.37h-2.833"/>
	<path style="&st1;" d="M126.358,92.37h-6.941"/>
	<path style="&st1;" d="M111.627,84.721v2.833"/>
	<path style="&st0;" d="M108.794,90.387v4.25h2.975"/>
	<path style="&st0;" d="M69.843,117.299h18.414"/>
	<path style="&st1;" d="M88.256,117.299h2.833"/>
	<path style="&st0;" d="M44.347,117.299H67.01"/>
	<path style="&st1;" d="M67.01,117.299h2.833"/>
	<path style="&st0;" d="M49.304,90.387v4.25H46.33"/>
	<path style="&st1;" d="M46.472,84.721v2.833"/>
	<path style="&st1;" d="M31.741,92.37h6.94"/>
	<path style="&st0;" d="M28.908,92.37h2.833"/>
	<path style="&st1;" d="M17.497,92.37h11.411"/>
	<path style="&st0;" d="M14.664,92.37h2.833"/>
	<path style="&st1;" d="M10.415,92.37h4.249"/>
	<path style="&st1;" d="M67.577,90.387v2.833h22.946v-2.833"/>
	<path style="&st1;" d="M87.194,97.469v4.958h4.958v-4.958H87.194"/>
	<path style="&st1;" d="M65.948,97.469v4.958h4.957v-4.958H65.948"/>
	<path style="&st1;" d="M97.25,117.299V94.636h1.983v22.663"/>
	<path style="&st1;" d="M102.066,117.299V94.636h1.983v22.663"/>
	<path style="&st1;" d="M54.049,117.299V94.636h1.983v22.663"/>
	<path style="&st1;" d="M58.865,117.299V94.636h1.983v22.663"/>
	<path style="&st1;" d="M75.65,117.299V94.636h1.983v22.663"/>
	<path style="&st1;" d="M80.466,117.299V94.636h1.983v22.663"/>
	<path style="&st1;" d="M54.049,2.568v22.663h1.983V2.568"/>
	<path style="&st1;" d="M58.865,2.568v22.663h1.983V2.568"/>
	<path style="&st1;" d="M75.65,2.568v22.663h1.983V2.568"/>
	<path style="&st1;" d="M80.466,2.568v22.663h1.983V2.568"/>
	<path style="&st1;" d="M97.25,2.568v22.663h1.983V2.568"/>
	<path style="&st1;" d="M102.066,2.568v22.663h1.983V2.568"/>
	<path style="&st1;" d="M87.194,22.398v-4.958h4.958v4.958H87.194"/>
	<path style="&st1;" d="M65.948,22.398v-4.958h4.957v4.958H65.948"/>
	<g ewd:pinNo="16">
		<text transform="matrix(1 0 0 1 40.6123 50.7388)"><tspan x="0" y="0" style="&st3; &st2;">16</tspan></text>
	</g>
	<g ewd:pinNo="15">
		<text transform="matrix(1 0 0 1 50.5273 50.7388)"><tspan x="0" y="0" style="&st3; &st2;">15</tspan></text>
	</g>
	<g ewd:pinNo="14">
		<text transform="matrix(1 0 0 1 60.4424 50.7388)"><tspan x="0" y="0" style="&st3; &st2;">14</tspan></text>
	</g>
	<g ewd:pinNo="13">
		<text transform="matrix(1 0 0 1 70.3574 50.7388)"><tspan x="0" y="0" style="&st3; &st2;">13</tspan></text>
	</g>
	<g ewd:pinNo="12">
		<text transform="matrix(1 0 0 1 80.272 50.7388)"><tspan x="0" y="0" style="&st3; &st2;">12</tspan></text>
	</g>
	<g ewd:pinNo="11">
		<text transform="matrix(1 0 0 1 90.4097 50.7388)"><tspan x="0" y="0" style="&st3; &st2;">11</tspan></text>
	</g>
	<g ewd:pinNo="10">
		<text transform="matrix(1 0 0 1 100.1021 50.7388)"><tspan x="0" y="0" style="&st3; &st2;">10</tspan></text>
	</g>
	<g ewd:pinNo="9">
		<text transform="matrix(1 0 0 1 111.9497 50.7388)"><tspan x="0" y="0" style="&st3; &st2;">9</tspan></text>
	</g>
	<g ewd:pinNo="8">
		<text transform="matrix(1 0 0 1 42.5444 71.9854)"><tspan x="0" y="0" style="&st3; &st2;">8</tspan></text>
	</g>
	<g ewd:pinNo="7">
		<text transform="matrix(1 0 0 1 52.4595 71.9854)"><tspan x="0" y="0" style="&st3; &st2;">7</tspan></text>
	</g>
	<g ewd:pinNo="6">
		<text transform="matrix(1 0 0 1 62.3745 71.9854)"><tspan x="0" y="0" style="&st3; &st2;">6</tspan></text>
	</g>
	<g ewd:pinNo="5">
		<text transform="matrix(1 0 0 1 72.2896 71.9854)"><tspan x="0" y="0" style="&st3; &st2;">5</tspan></text>
	</g>
	<g ewd:pinNo="4">
		<text transform="matrix(1 0 0 1 82.2046 71.9854)"><tspan x="0" y="0" style="&st3; &st2;">4</tspan></text>
	</g>
	<g ewd:pinNo="3">
		<text transform="matrix(1 0 0 1 92.1196 71.9854)"><tspan x="0" y="0" style="&st3; &st2;">3</tspan></text>
	</g>
	<g ewd:pinNo="2">
		<text transform="matrix(1 0 0 1 102.0347 71.9854)"><tspan x="0" y="0" style="&st3; &st2;">2</tspan></text>
	</g>
	<g ewd:pinNo="1">
		<text transform="matrix(1 0 0 1 111.9497 71.9854)"><tspan x="0" y="0" style="&st3; &st2;">1</tspan></text>
	</g>
</g>
</svg>