<?xml version="1.0"?>
<!-- Generator: Adobe Illustrator 10.0, SVG Export Plug-In . SVG Version: 3.0.0 Build 77)  -->
<!DOCTYPE svg PUBLIC "-//W3C//DTD SVG 1.0//EN" "http://www.w3.org/TR/2001/REC-SVG-20010904/DTD/svg10.dtd"[
	<!ENTITY ns_flows "http://ns.adobe.com/Flows/1.0/">
	<!ENTITY ns_svg "http://www.w3.org/2000/svg">
	<!ENTITY ns_xlink "http://www.w3.org/1999/xlink">
	<!ENTITY st0 "fill:none;stroke:#000000;stroke-linecap:round;stroke-linejoin:round;">
	<!ENTITY st1 "fill:none;stroke:#000000;stroke-width:0.6;stroke-linecap:round;stroke-linejoin:round;">
	<!ENTITY st2 "font-size:6px;">
	<!ENTITY st3 "font-family:'Arial';">
	<!ATTLIST svg
		ewd:ver CDATA #IMPLIED
		xmlns:ewd CDATA #FIXED "http://shcl.co.jp/ewd"
		xmlns:a CDATA #FIXED "http://ns.adobe.com/AdobeSVGViewerExtensions/3.0/">
	<!ATTLIST g
		ewd:pinNo CDATA #IMPLIED>
]>
<svg width="76.454" height="73.821" viewBox="0 0 76.454 73.821" style="overflow:visible;enable-background:new 0 0 76.454 73.821" xml:space="preserve" onload="call_execInitLoadProc_svg('connector')" ewd:ver="2.3.1.16" xmlns="&ns_svg;" xmlns:a="http://ns.adobe.com/AdobeSVGViewerExtensions/3.0/" xmlns:ewd="http://shcl.co.jp/ewd" xmlns:xlink="&ns_xlink;">
<script type="text/javascript" xlink:href="../../../../../system/js/ewd/fig/svgfig.js"/>
<g id="レイヤー_1">
	<path style="&st1;" d="M22.868,33.604v26.929"/>
	<path style="&st1;" d="M32.789,33.604v26.929"/>
	<path style="&st1;" d="M42.71,33.604v26.929"/>
	<path style="&st1;" d="M52.632,33.604v26.929"/>
	<path style="&st1;" d="M12.946,60.533V33.604h49.607v26.929"/>
	<path style="&st1;" d="M12.946,47.068h49.607"/>
	<path style="&st1;" d="M8.897,60.534l58.659-0.001"/>
	<path style="&st1;" d="M7.479,23.795c0-1.565,1.269-2.834,2.834-2.834"/>
	<path style="&st1;" d="M7.479,23.795l0,35.321"/>
	<path style="&st1;" d="M8.897,60.534c-0.783,0-1.417-0.635-1.417-1.418"/>
	<path style="&st1;" d="M67.557,60.534c0.783,0,1.418-0.635,1.418-1.418"/>
	<path style="&st1;" d="M7.48,55.948h1.836l3.63,3.056"/>
	<path style="&st1;" d="M11.146,64.092h27.081"/>
	<path style="&st1;" d="M65.308,64.092H38.227"/>
	<path style="&st1;" d="M11.146,64.092c-0.783,0-1.417-0.635-1.417-1.418l0-2.14"/>
	<path style="&st1;" d="M12.381,60.534v3.558"/>
	<path style="&st1;" d="M36.74,60.533v3.559"/>
	<path style="&st1;" d="M44.412,60.533v3.559"/>
	<path style="&st1;" d="M36.74,62.278h7.672"/>
	<path style="&st1;" d="M10.314,20.961l6.968,0"/>
	<path style="&st1;" d="M18.699,19.543c0,0.783-0.634,1.417-1.417,1.417"/>
	<path style="&st1;" d="M11.594,20.961V8.907"/>
	<path style="&st1;" d="M11.594,8.907c0-2.348,1.904-4.252,4.252-4.252"/>
	<path style="&st1;" d="M18.699,12.07l3.433,2.241"/>
	<path style="&st1;" d="M18.699,16.695H34.1"/>
	<path style="&st1;" d="M22.132,14.312l-2.384,2.384"/>
	<path style="&st1;" d="M22.132,14.312h4.935"/>
	<path style="&st1;" d="M38.227,10.306h-11.16v6.389"/>
	<path style="&st1;" d="M34.1,10.306v17.333"/>
	<path style="&st1;" d="M34.1,14.288h4.127"/>
	<path style="&st1;" d="M34.1,17.816h4.127"/>
	<path style="&st1;" d="M20.277,13.101v3.023"/>
	<path style="&st1;" d="M68.975,23.795c0-1.565-1.27-2.834-2.834-2.834"/>
	<path style="&st1;" d="M68.975,23.795v35.321"/>
	<path style="&st1;" d="M68.975,55.948h-1.837l-4.584,3.783"/>
	<path style="&st1;" d="M65.308,64.092c0.782,0,1.417-0.635,1.417-1.418l0.001-2.14"/>
	<path style="&st1;" d="M64.073,60.534v3.558"/>
	<path style="&st1;" d="M66.141,20.961l-6.968,0"/>
	<path style="&st1;" d="M57.755,19.543V8.601"/>
	<path style="&st1;" d="M57.755,19.543c0,0.783,0.634,1.417,1.417,1.417"/>
	<path style="&st1;" d="M56.338,7.183l-18.111,0l-18.111,0c-0.783,0-1.417,0.635-1.417,1.417v10.943"/>
	<path style="&st1;" d="M57.755,8.601c0-0.783-0.635-1.417-1.417-1.417"/>
	<path style="&st1;" d="M64.86,20.961V8.907"/>
	<path style="&st1;" d="M60.608,4.655H38.227H15.846"/>
	<path style="&st1;" d="M64.86,8.907c0-2.348-1.904-4.252-4.252-4.252"/>
	<path style="&st1;" d="M57.755,12.07l-3.433,2.241"/>
	<path style="&st1;" d="M57.755,16.695H42.354"/>
	<path style="&st1;" d="M54.322,14.312l2.384,2.384"/>
	<path style="&st1;" d="M54.322,14.312h-4.935"/>
	<path style="&st1;" d="M38.227,10.306h11.16v6.389"/>
	<path style="&st1;" d="M42.354,10.306v17.333"/>
	<path style="&st1;" d="M43.832,16.695v10.943h-5.605h-5.605V16.695"/>
	<path style="&st1;" d="M42.354,14.288h-4.127"/>
	<path style="&st1;" d="M42.354,17.816h-4.127"/>
	<path style="&st1;" d="M56.177,13.101v3.023"/>
	<path style="&st0;" d="M69.433,0.5c1.132,0,2.108,0.663,2.563,1.622h-0.001l3.96,11.595v49.791c0,2.012-1.396,3.696-3.272,4.139    L56.5,73.321H38.227H19.954L3.772,67.646C1.896,67.204,0.5,65.52,0.5,63.508V13.717L4.459,2.122h0C4.913,1.163,5.89,0.5,7.021,0.5    h31.206H69.433"/>
	<g ewd:pinNo="1">
		<text transform="matrix(1 0 0 1 16.1382 42.3613)"><tspan x="0" y="0" style="&st3; &st2;">1</tspan></text>
	</g>
	<g ewd:pinNo="2">
		<text transform="matrix(1 0 0 1 26.0596 42.3613)"><tspan x="0" y="0" style="&st3; &st2;">2</tspan></text>
	</g>
	<g ewd:pinNo="3">
		<text transform="matrix(1 0 0 1 35.981 42.3613)"><tspan x="0" y="0" style="&st3; &st2;">3</tspan></text>
	</g>
	<g ewd:pinNo="4">
		<text transform="matrix(1 0 0 1 45.9023 42.3613)"><tspan x="0" y="0" style="&st3; &st2;">4</tspan></text>
	</g>
	<g ewd:pinNo="5">
		<text transform="matrix(1 0 0 1 55.8237 42.3613)"><tspan x="0" y="0" style="&st3; &st2;">5</tspan></text>
	</g>
	<g ewd:pinNo="6">
		<text transform="matrix(1 0 0 1 16.1382 55.8252)"><tspan x="0" y="0" style="&st3; &st2;">6</tspan></text>
	</g>
	<g ewd:pinNo="7">
		<text transform="matrix(1 0 0 1 26.0596 55.8252)"><tspan x="0" y="0" style="&st3; &st2;">7</tspan></text>
	</g>
	<g ewd:pinNo="8">
		<text transform="matrix(1 0 0 1 35.981 55.8252)"><tspan x="0" y="0" style="&st3; &st2;">8</tspan></text>
	</g>
	<g ewd:pinNo="9">
		<text transform="matrix(1 0 0 1 45.9023 55.8252)"><tspan x="0" y="0" style="&st3; &st2;">9</tspan></text>
	</g>
	<g ewd:pinNo="10">
		<text transform="matrix(1 0 0 1 54.1553 55.8252)"><tspan x="0" y="0" style="&st3; &st2;">10</tspan></text>
	</g>
</g>
</svg>