<?xml version="1.0"?>
<!-- Generator: Adobe Illustrator 10.0, SVG Export Plug-In . SVG Version: 3.0.0 Build 77)  -->
<!DOCTYPE svg PUBLIC "-//W3C//DTD SVG 1.0//EN" "http://www.w3.org/TR/2001/REC-SVG-20010904/DTD/svg10.dtd"[
	<!ENTITY ns_flows "http://ns.adobe.com/Flows/1.0/">
	<!ENTITY ns_svg "http://www.w3.org/2000/svg">
	<!ENTITY ns_xlink "http://www.w3.org/1999/xlink">
	<!ENTITY st0 "fill:none;stroke:#000000;stroke-linecap:round;stroke-linejoin:round;">
	<!ENTITY st1 "fill:none;stroke:#000000;stroke-width:0.6;stroke-linecap:round;stroke-linejoin:round;">
	<!ENTITY st2 "font-size:6px;">
	<!ENTITY st3 "font-family:'Arial';">
	<!ATTLIST svg
		ewd:ver CDATA #IMPLIED
		xmlns:ewd CDATA #FIXED "http://shcl.co.jp/ewd"
		xmlns:a CDATA #FIXED "http://ns.adobe.com/AdobeSVGViewerExtensions/3.0/">
	<!ATTLIST g
		ewd:pinNo CDATA #IMPLIED>
]>
<svg width="100.15" height="59.641" viewBox="0 0 100.15 59.641" style="overflow:visible;enable-background:new 0 0 100.15 59.641" xml:space="preserve" onload="call_execInitLoadProc_svg('connector')" ewd:ver="2.3.1.16" xmlns="&ns_svg;" xmlns:a="http://ns.adobe.com/AdobeSVGViewerExtensions/3.0/" xmlns:ewd="http://shcl.co.jp/ewd" xmlns:xlink="&ns_xlink;">
<script type="text/javascript" xlink:href="../../../../../system/js/ewd/fig/svgfig.js"/>
<g id="レイヤー_1">
	<path style="&st1;" d="M19.48,0.5c-1.877,0-3.399,1.522-3.399,3.399"/>
	<path style="&st0;" d="M96.817,11.05c0-1.384-0.427-2.564-1.313-3.627"/>
	<path style="&st0;" d="M4.647,7.424C3.762,8.487,3.334,9.667,3.334,11.05"/>
	<path style="&st0;" d="M13.069,0.5c-1.746,0-3.236,0.699-4.354,2.041"/>
	<path style="&st0;" d="M91.435,2.541C90.317,1.199,88.827,0.5,87.081,0.5"/>
	<path style="&st1;" d="M84.069,3.9c0-1.877-1.522-3.399-3.399-3.399"/>
	<path style="&st1;" d="M21.747,20.331V6.167h28.329"/>
	<path style="&st1;" d="M27.412,20.331h45.326"/>
	<path style="&st1;" d="M89.735,28.829v-8.499"/>
	<path style="&st1;" d="M96.817,20.331h-7.082"/>
	<path style="&st1;" d="M10.415,35.912v14.164h79.32V35.912H10.415"/>
	<path style="&st1;" d="M20.33,50.076V35.912"/>
	<path style="&st0;" d="M87.081,0.5H13.069"/>
	<path style="&st1;" d="M30.245,50.076V35.912"/>
	<path style="&st1;" d="M40.16,50.076V35.912"/>
	<path style="&st1;" d="M50.075,50.076V35.912"/>
	<path style="&st1;" d="M59.99,50.076V35.912"/>
	<path style="&st1;" d="M69.905,50.076V35.912"/>
	<path style="&st1;" d="M79.82,50.076V35.912"/>
	<path style="&st1;" d="M3.333,52.059h93.484"/>
	<path style="&st0;" d="M91.435,2.541l4.068,4.884"/>
	<path style="&st1;" d="M10.415,28.829h5.666v-8.499h5.666v8.499h5.666v-8.499"/>
	<path style="&st0;" d="M3.333,11.05v27.694H0.5v4.25h2.833v16.147h93.484V42.994h2.833v-4.25h-2.833V11.05"/>
	<path style="&st1;" d="M3.333,20.331h7.083"/>
	<path style="&st1;" d="M16.081,20.331V3.9"/>
	<path style="&st1;" d="M10.415,28.829v-8.499"/>
	<path style="&st1;" d="M50.075,9H24.579v11.331h2.833"/>
	<path style="&st0;" d="M4.647,7.424l4.068-4.884"/>
	<path style="&st1;" d="M10.415,25.996h5.666"/>
	<path style="&st1;" d="M64.239,17.498h-7.082"/>
	<path style="&st1;" d="M57.157,20.331v-8.499h-7.082"/>
	<path style="&st1;" d="M72.738,20.331v-5.666h-8.499v5.666"/>
	<path style="&st1;" d="M27.412,20.331v-5.666h8.499v5.666"/>
	<path style="&st1;" d="M42.993,20.331v-8.499h7.083"/>
	<path style="&st1;" d="M50.075,9h25.496v11.331h-2.833"/>
	<path style="&st1;" d="M84.069,28.829V3.9"/>
	<path style="&st1;" d="M35.911,17.498h7.082"/>
	<path style="&st1;" d="M78.404,28.829V6.167H50.075"/>
	<path style="&st1;" d="M89.735,25.996h-5.666"/>
	<path style="&st1;" d="M72.738,20.331v8.499h16.997"/>
	<g ewd:pinNo="6">
		<text transform="matrix(1 0 0 1 63.2153 45.2031)"><tspan x="0" y="0" style="&st3; &st2;">6</tspan></text>
	</g>
	<g ewd:pinNo="7">
		<text transform="matrix(1 0 0 1 73.1304 45.2031)"><tspan x="0" y="0" style="&st3; &st2;">7</tspan></text>
	</g>
	<g ewd:pinNo="5">
		<text transform="matrix(1 0 0 1 53.3003 45.2031)"><tspan x="0" y="0" style="&st3; &st2;">5</tspan></text>
	</g>
	<g ewd:pinNo="8">
		<text transform="matrix(1 0 0 1 83.0454 45.2031)"><tspan x="0" y="0" style="&st3; &st2;">8</tspan></text>
	</g>
	<g ewd:pinNo="4">
		<text transform="matrix(1 0 0 1 43.3853 45.2031)"><tspan x="0" y="0" style="&st3; &st2;">4</tspan></text>
	</g>
	<g ewd:pinNo="3">
		<text transform="matrix(1 0 0 1 33.4702 45.2031)"><tspan x="0" y="0" style="&st3; &st2;">3</tspan></text>
	</g>
	<g ewd:pinNo="2">
		<text transform="matrix(1 0 0 1 23.5552 45.2031)"><tspan x="0" y="0" style="&st3; &st2;">2</tspan></text>
	</g>
	<g ewd:pinNo="1">
		<text transform="matrix(1 0 0 1 13.6401 45.2031)"><tspan x="0" y="0" style="&st3; &st2;">1</tspan></text>
	</g>
</g>
</svg>