<?xml version="1.0"?>
<!-- Generator: Adobe Illustrator 10.0, SVG Export Plug-In . SVG Version: 3.0.0 Build 77)  -->
<!DOCTYPE svg PUBLIC "-//W3C//DTD SVG 1.0//EN" "http://www.w3.org/TR/2001/REC-SVG-20010904/DTD/svg10.dtd"[
	<!ENTITY ns_flows "http://ns.adobe.com/Flows/1.0/">
	<!ENTITY ns_svg "http://www.w3.org/2000/svg">
	<!ENTITY ns_xlink "http://www.w3.org/1999/xlink">
	<!ENTITY st0 "fill:none;">
	<!ENTITY st1 "stroke:#000000;">
	<!ENTITY st2 "stroke-linecap:round;">
	<!ENTITY st3 "stroke-linejoin:round;">
	<!ENTITY st4 "stroke-width:0.6;">
	<!ENTITY st5 "font-size:6px;">
	<!ENTITY st6 "font-family:'Arial';">
	<!ENTITY st7 "stroke-width:1.4;">
	<!ATTLIST svg
		ewd:ver CDATA #IMPLIED
		xmlns:ewd CDATA #FIXED "http://shcl.co.jp/ewd"
		xmlns:a CDATA #FIXED "http://ns.adobe.com/AdobeSVGViewerExtensions/3.0/">
	<!ATTLIST g
		ewd:pinNo CDATA #IMPLIED>
]>
<svg width="307.96" height="105.825" viewBox="0 0 307.96 105.825" style="overflow:visible;enable-background:new 0 0 138.394 88.819" xml:space="preserve" onload="call_execInitLoadProc_svg('connector')" ewd:ver="2.3.1.16" xmlns="&ns_svg;" xmlns:a="http://ns.adobe.com/AdobeSVGViewerExtensions/3.0/" xmlns:ewd="http://shcl.co.jp/ewd" xmlns:xlink="&ns_xlink;">
<script type="text/javascript" xlink:href="../../../../../system/js/ewd/fig/svgfig.js"/>
<g id="レイヤー_1" transform="translate(0,17.008)">
	<path style="&st0;&st1;&st4;&st2;&st3;" d="M17.497,31.662c0,0.782,0.634,1.417,1.417,1.417"/>
	<path style="&st0;&st1;&st4;&st2;&st3;" d="M7.582,33.078c0.782,0,1.417-0.634,1.417-1.417"/>
	<path style="&st0;&st1;&st4;&st2;&st3;" d="M30.245,33.078c0.782,0,1.417-0.634,1.417-1.417"/>
	<path style="&st0;&st1;&st4;&st2;&st3;" d="M38.744,31.662c0,0.782,0.634,1.417,1.417,1.417"/>
	<path style="&st0;&st1;&st4;&st2;&st3;" d="M98.233,33.078c0.782,0,1.417-0.634,1.417-1.417"/>
	<path style="&st0;&st1;&st4;&st2;&st3;" d="M106.732,31.662c0,0.782,0.634,1.417,1.416,1.417"/>
	<path style="&st0;&st1;&st4;&st2;&st3;" d="M119.48,33.078c0.782,0,1.417-0.634,1.417-1.417"/>
	<path style="&st0;&st1;&st4;&st2;&st3;" d="M129.395,31.662c0,0.782,0.634,1.417,1.417,1.417"/>
	<path style="&st0;&st1;&st4;&st2;&st3;" d="M0.5,72.738c0,0.782,0.634,1.417,1.416,1.417"/>
	<path style="&st0;&st1;&st4;&st2;&st3;" d="M122.313,23.163c-0.782,0-1.417,0.634-1.417,1.417"/>
	<path style="&st0;&st1;&st4;&st2;&st3;" d="M101.066,14.665c-0.782,0-1.417,0.634-1.417,1.417"/>
	<path style="&st0;&st1;&st4;&st2;&st3;" d="M129.395,24.58c0-0.782-0.634-1.417-1.417-1.417"/>
	<path style="&st0;&st1;&st4;&st2;&st3;" d="M136.477,74.155c0.782,0,1.417-0.634,1.417-1.417"/>
	<path style="&st0;&st1;&st4;&st2;&st3;" d="M38.744,16.081c0-0.782-0.634-1.417-1.417-1.417"/>
	<path style="&st0;&st1;&st4;&st2;&st3;" d="M17.497,24.58c0-0.782-0.634-1.417-1.417-1.417"/>
	<path style="&st0;&st1;&st4;&st2;&st3;" d="M10.415,23.163c-0.782,0-1.417,0.634-1.417,1.417"/>
	<path style="&st0;&st1;&st4;&st2;&st3;" d="M33.078,14.665c-0.782,0-1.416,0.634-1.416,1.417"/>
	<path style="&st0;&st1;&st4;&st2;&st3;" d="M106.732,16.081c0-0.782-0.634-1.417-1.417-1.417"/>
	<path style="&st0;&st1;&st2;&st3;" d="M9.61,85.8c2.479,1.717,5.047,2.519,8.063,2.519"/>
	<path style="&st0;&st1;&st2;&st3;" d="M120.721,88.319c3.016,0,5.583-0.802,8.063-2.519"/>
	<path style="&st0;&st1;&st2;&st3;" d="M137.894,14.665c0-7.823-6.342-14.165-14.164-14.165"/>
	<path style="&st0;&st1;&st2;&st3;" d="M14.664,0.5C6.841,0.5,0.5,6.842,0.5,14.665"/>
	<path style="&st0;&st1;&st4;&st2;&st3;" d="M47.242,61.407h4.249"/>
	<path style="&st0;&st1;&st4;&st2;&st3;" d="M61.406,20.33v-4.249h15.581v4.249"/>
	<path style="&st0;&st1;&st4;&st2;&st3;" d="M14.664,79.82h32.578"/>
	<path style="&st0;&st1;&st4;&st2;&st3;" d="M48.659,33.078V20.33h12.748"/>
	<path style="&st0;&st1;&st4;&st2;&st3;" d="M76.987,20.33h12.748v12.748"/>
	<path style="&st0;&st1;&st2;&st3;" d="M137.894,14.665v55.241"/>
	<path style="&st0;&st1;&st2;&st3;" d="M0.5,14.665v55.241"/>
	<path style="&st0;&st1;&st4;&st2;&st3;" d="M48.659,24.58h-5.666V10.416h52.408V24.58h-5.666"/>
	<path style="&st0;&st1;&st4;&st2;&st3;" d="M48.659,23.163h41.076"/>
	<path style="&st0;&st1;&st4;&st2;&st3;" d="M24.579,42.993v25.496h9.915"/>
	<path style="&st0;&st1;&st4;&st2;&st3;" d="M24.579,55.741h89.235"/>
	<path style="&st0;&st1;&st4;&st2;&st3;" d="M93.984,42.993v25.496"/>
	<path style="&st0;&st1;&st4;&st2;&st3;" d="M84.069,42.993v25.496"/>
	<path style="&st0;&st1;&st4;&st2;&st3;" d="M54.324,42.993v25.496"/>
	<path style="&st0;&st1;&st4;&st2;&st3;" d="M34.494,42.993v25.496"/>
	<path style="&st0;&st1;&st4;&st2;&st3;" d="M40.16,33.078h8.499"/>
	<path style="&st0;&st1;&st4;&st2;&st3;" d="M89.735,33.078h8.499"/>
	<path style="&st0;&st1;&st4;&st2;&st3;" d="M38.744,16.081v15.581"/>
	<path style="&st0;&st1;&st4;&st2;&st3;" d="M106.732,16.081v15.581"/>
	<path style="&st0;&st1;&st4;&st2;&st3;" d="M33.078,14.665h4.25"/>
	<path style="&st0;&st1;&st4;&st2;&st3;" d="M31.662,31.662V16.081"/>
	<path style="&st0;&st1;&st4;&st2;&st3;" d="M101.066,14.665h4.25"/>
	<path style="&st0;&st1;&st4;&st2;&st3;" d="M99.65,31.662V16.081"/>
	<path style="&st0;&st1;&st2;&st3;" d="M0.5,24.58v50.991"/>
	<path style="&st0;&st1;&st4;&st2;&st3;" d="M1.916,74.155h45.326"/>
	<path style="&st0;&st1;&st2;&st3;" d="M137.894,24.58v50.991"/>
	<path style="&st0;&st1;&st4;&st2;&st3;" d="M122.313,23.163h5.666"/>
	<path style="&st0;&st1;&st4;&st2;&st3;" d="M120.896,31.662V24.58"/>
	<path style="&st0;&st1;&st4;&st2;&st3;" d="M17.497,24.58v7.082"/>
	<path style="&st0;&st1;&st4;&st2;&st3;" d="M10.415,23.163h5.666"/>
	<path style="&st0;&st1;&st2;&st3;" d="M17.673,88.319h103.048"/>
	<path style="&st0;&st1;&st4;&st2;&st3;" d="M133.645,74.155v6.187"/>
	<path style="&st0;&st1;&st2;&st3;" d="M137.894,75.571l-9.11,10.229"/>
	<path style="&st0;&st1;&st4;&st2;&st3;" d="M91.151,79.82h32.578"/>
	<path style="&st0;&st1;&st4;&st2;&st3;" d="M86.902,61.407h4.249"/>
	<path style="&st0;&st1;&st2;&st3;" d="M0.5,75.571L9.61,85.8"/>
	<path style="&st0;&st1;&st4;&st2;&st3;" d="M51.491,79.82h35.411"/>
	<path style="&st0;&st1;&st4;&st2;&st3;" d="M86.902,79.82V58.574h4.249V79.82"/>
	<path style="&st0;&st1;&st4;&st2;&st3;" d="M91.151,74.155h45.326"/>
	<path style="&st0;&st1;&st4;&st2;&st3;" d="M51.491,74.155h35.411"/>
	<path style="&st0;&st1;&st4;&st2;&st3;" d="M47.242,79.82V58.574h4.249V79.82"/>
	<path style="&st0;&st1;&st4;&st2;&st3;" d="M113.814,40.16v28.329"/>
	<path style="&st0;&st1;&st4;&st2;&st3;" d="M24.579,40.16v28.329"/>
	<path style="&st0;&st1;&st4;&st2;&st3;" d="M24.579,68.489H11.832V40.16h12.748"/>
	<path style="&st0;&st1;&st4;&st2;&st3;" d="M113.814,40.16h12.748v28.329h-12.748"/>
	<path style="&st0;&st1;&st4;&st2;&st3;" d="M11.832,54.325h12.748"/>
	<path style="&st0;&st1;&st4;&st2;&st3;" d="M93.984,68.489h9.915V42.993h-79.32"/>
	<path style="&st0;&st1;&st4;&st2;&st3;" d="M44.409,42.993v12.748"/>
	<path style="&st0;&st1;&st2;&st3;" d="M14.664,0.5h109.065"/>
	<path style="&st0;&st1;&st4;&st2;&st3;" d="M99.65,7.583v8.499"/>
	<path style="&st0;&st1;&st4;&st2;&st3;" d="M38.744,7.583v8.499"/>
	<path style="&st0;&st1;&st4;&st2;&st3;" d="M38.744,7.583H99.65"/>
	<path style="&st0;&st1;&st4;&st2;&st3;" d="M120.896,25.996h8.499"/>
	<path style="&st0;&st1;&st4;&st2;&st3;" d="M99.65,17.498h7.083"/>
	<path style="&st0;&st1;&st4;&st2;&st3;" d="M31.662,17.498h7.082"/>
	<path style="&st0;&st1;&st4;&st2;&st3;" d="M8.999,25.996h8.499"/>
	<path style="&st0;&st1;&st4;&st2;&st3;" d="M4.749,79.82h9.915"/>
	<path style="&st0;&st1;&st4;&st2;&st3;" d="M133.645,79.82h-9.915"/>
	<path style="&st0;&st1;&st4;&st2;&st3;" d="M4.749,74.155v6.187"/>
	<path style="&st0;&st1;&st4;&st2;&st3;" d="M64.239,42.993v25.496"/>
	<path style="&st0;&st1;&st4;&st2;&st3;" d="M74.154,42.993v25.496"/>
	<path style="&st0;&st1;&st4;&st2;&st3;" d="M103.899,42.993h9.915v25.496h-9.915"/>
	<path style="&st0;&st1;&st4;&st2;&st3;" d="M113.814,54.325h12.748"/>
	<path style="&st0;&st1;&st4;&st2;&st3;" d="M34.494,68.489h9.915V55.741"/>
	<path style="&st0;&st1;&st4;&st2;&st3;" d="M54.324,68.489h29.745"/>
	<path style="&st0;&st1;&st4;&st2;&st3;" d="M130.812,33.078h7.082"/>
	<path style="&st0;&st1;&st4;&st2;&st3;" d="M129.395,24.58v7.082"/>
	<path style="&st0;&st1;&st4;&st2;&st3;" d="M108.148,33.078h11.332"/>
	<path style="&st0;&st1;&st4;&st2;&st3;" d="M8.999,24.58v7.082"/>
	<path style="&st0;&st1;&st4;&st2;&st3;" d="M0.5,33.078h7.082"/>
	<path style="&st0;&st1;&st4;&st2;&st3;" d="M18.914,33.078h11.332"/>
	<path style="&st0;&st1;&st4;&st2;&st3;" d="M137.894,42.993h-5.666V59.99h5.666"/>
	<path style="&st0;&st1;&st4;&st2;&st3;" d="M0.5,42.993h5.666V59.99H0.5"/>
	<path style="&st0;&st1;&st4;&st2;&st3;" d="M137.894,64.239h-5.666v5.666h5.666"/>
	<path style="&st0;&st1;&st4;&st2;&st3;" d="M0.5,64.239h5.666v5.666H0.5"/>
	<g ewd:pinNo="1">
		<text transform="matrix(1 0 0 1 16.5161 49.5366)"><tspan x="0" y="0" style="&st6; &st5;">1</tspan></text>
	</g>
	<g ewd:pinNo="2">
		<text transform="matrix(1 0 0 1 27.8477 51.6616)"><tspan x="0" y="0" style="&st6; &st5;">2</tspan></text>
	</g>
	<g ewd:pinNo="3">
		<text transform="matrix(1 0 0 1 37.7627 51.6616)"><tspan x="0" y="0" style="&st6; &st5;">3</tspan></text>
	</g>
	<g ewd:pinNo="4">
		<text transform="matrix(1 0 0 1 47.6777 51.6616)"><tspan x="0" y="0" style="&st6; &st5;">4</tspan></text>
	</g>
	<g ewd:pinNo="5">
		<text transform="matrix(1 0 0 1 57.5928 51.6616)"><tspan x="0" y="0" style="&st6; &st5;">5</tspan></text>
	</g>
	<g ewd:pinNo="6">
		<text transform="matrix(1 0 0 1 67.5078 51.6616)"><tspan x="0" y="0" style="&st6; &st5;">6</tspan></text>
	</g>
	<g ewd:pinNo="7">
		<text transform="matrix(1 0 0 1 77.4224 51.6616)"><tspan x="0" y="0" style="&st6; &st5;">7</tspan></text>
	</g>
	<g ewd:pinNo="8">
		<text transform="matrix(1 0 0 1 87.3379 51.6616)"><tspan x="0" y="0" style="&st6; &st5;">8</tspan></text>
	</g>
	<g ewd:pinNo="9">
		<text transform="matrix(1 0 0 1 97.2524 51.6616)"><tspan x="0" y="0" style="&st6; &st5;">9</tspan></text>
	</g>
	<g ewd:pinNo="10">
		<text transform="matrix(1 0 0 1 105.29 51.6616)"><tspan x="0" y="0" style="&st6; &st5;">10</tspan></text>
	</g>
	<g ewd:pinNo="11">
		<text transform="matrix(1 0 0 1 116.8442 49.5366)"><tspan x="0" y="0" style="&st6; &st5;">11</tspan></text>
	</g>
	<g ewd:pinNo="14">
		<text transform="matrix(1 0 0 1 35.8848 64.4092)"><tspan x="0" y="0" style="&st6; &st5;">14</tspan></text>
	</g>
	<g ewd:pinNo="12">
		<text transform="matrix(1 0 0 1 14.6387 63.7012)"><tspan x="0" y="0" style="&st6; &st5;">12</tspan></text>
	</g>
	<g ewd:pinNo="13">
		<text transform="matrix(1 0 0 1 25.9702 64.4092)"><tspan x="0" y="0" style="&st6; &st5;">13</tspan></text>
	</g>
	<g ewd:pinNo="15">
		<text transform="matrix(1 0 0 1 55.627 64.4092)"><tspan x="0" y="0" style="&st6; &st5;">15</tspan></text>
	</g>
	<g ewd:pinNo="16">
		<text transform="matrix(1 0 0 1 65.6299 64.4092)"><tspan x="0" y="0" style="&st6; &st5;">16</tspan></text>
	</g>
	<g ewd:pinNo="17">
		<text transform="matrix(1 0 0 1 75.5449 64.4092)"><tspan x="0" y="0" style="&st6; &st5;">17</tspan></text>
	</g>
	<g ewd:pinNo="18">
		<text transform="matrix(1 0 0 1 95.375 64.4092)"><tspan x="0" y="0" style="&st6; &st5;">18</tspan></text>
	</g>
	<g ewd:pinNo="19">
		<text transform="matrix(1 0 0 1 105.29 64.4092)"><tspan x="0" y="0" style="&st6; &st5;">19</tspan></text>
	</g>
	<g ewd:pinNo="20">
		<text transform="matrix(1 0 0 1 116.7944 63.7012)"><tspan x="0" y="0" style="&st6; &st5;">20</tspan></text>
	</g>
</g>
<g id="レイヤー_1" transform="translate(158.235,17.008)">
	<path style="&st0;&st1;&st4;&st2;&st3;" d="M66.364,69.905c-0.782,0-1.416,0.634-1.416,1.417"/>
	<path style="&st0;&st1;&st2;&st3;" d="M120.896,69.905c-0.782,0-1.417,0.634-1.417,1.417"/>
	<path style="&st0;&st1;&st4;&st2;&st3;" d="M84.777,71.322c0-0.782-0.634-1.417-1.416-1.417"/>
	<path style="&st0;&st1;&st2;&st3;" d="M149.225,8.999c0-2.347-1.902-4.25-4.249-4.25"/>
	<path style="&st0;&st1;&st4;&st2;&st3;" d="M63.531,74.863c0.782,0,1.417-0.634,1.417-1.417"/>
	<path style="&st0;&st1;&st2;&st3;" d="M144.976,69.905c2.347,0,4.249-1.902,4.249-4.249"/>
	<path style="&st0;&st1;&st4;&st2;&st3;" d="M6.166,62.823c0,0.782,0.634,1.416,1.417,1.416"/>
	<path style="&st0;&st1;&st2;&st3;" d="M4.749,4.75C2.402,4.75,0.5,6.652,0.5,8.999"/>
	<path style="&st0;&st1;&st4;&st2;&st3;" d="M84.777,73.446c0,0.782,0.634,1.417,1.417,1.417"/>
	<path style="&st0;&st1;&st2;&st3;" d="M115.231,82.653c2.347,0,4.249-1.903,4.249-4.25"/>
	<path style="&st0;&st1;&st4;&st2;&st3;" d="M96.817,77.129c0-1.251-1.014-2.266-2.266-2.266"/>
	<path style="&st0;&st1;&st2;&st3;" d="M30.245,71.322c0-0.782-0.634-1.417-1.417-1.417"/>
	<path style="&st0;&st1;&st2;&st3;" d="M0.5,65.656c0,2.347,1.902,4.249,4.249,4.249"/>
	<path style="&st0;&st1;&st2;&st3;" d="M30.245,78.404c0,2.347,1.902,4.25,4.249,4.25"/>
	<path style="&st0;&st1;&st4;&st2;&st3;" d="M55.174,74.863c-1.252,0-2.267,1.015-2.267,2.266"/>
	<path style="&st0;&st1;&st4;&st2;&st3;" d="M101.066,4.75c-0.782,0-1.417,0.634-1.417,1.417"/>
	<path style="&st0;&st1;&st4;&st2;&st3;" d="M143.559,24.58c0-0.782-0.634-1.417-1.416-1.417"/>
	<path style="&st0;&st1;&st4;&st2;&st3;" d="M142.143,64.239c0.782,0,1.416-0.634,1.416-1.416"/>
	<path style="&st0;&st1;&st4;&st2;&st3;" d="M50.075,6.166c0-0.782-0.634-1.417-1.417-1.417"/>
	<path style="&st0;&st1;&st4;&st2;&st3;" d="M7.582,23.163c-0.782,0-1.417,0.634-1.417,1.417"/>
	<path style="&st0;&st1;&st4;&st2;&st3;" d="M44.409,4.75c-0.782,0-1.417,0.634-1.417,1.417"/>
	<path style="&st0;&st1;&st4;&st2;&st3;" d="M106.732,6.166c0-0.782-0.634-1.417-1.417-1.417"/>
	<path style="&st0;&st1;&st4;&st2;&st3;" d="M21.747,16.081c-0.782,0-1.417,0.634-1.417,1.417"/>
	<path style="&st0;&st1;&st4;&st2;&st3;" d="M122.313,16.081c-0.782,0-1.417,0.634-1.417,1.417"/>
	<path style="&st0;&st1;&st4;&st2;&st3;" d="M28.829,17.498c0-0.783-0.634-1.417-1.417-1.417"/>
	<path style="&st0;&st1;&st4;&st2;&st3;" d="M129.395,17.498c0-0.783-0.634-1.417-1.417-1.417"/>
	<path style="&st0;&st1;&st4;&st2;&st3;" d="M68.489,76.279v-3.541h12.748v3.541"/>
	<path style="&st0;&st1;&st2;&st3;" d="M149.225,8.999v56.657"/>
	<path style="&st0;&st1;&st4;&st2;&st3;" d="M28.829,69.905h92.068"/>
	<path style="&st0;&st1;&st2;&st3;" d="M0.5,8.999v56.657"/>
	<path style="&st0;&st1;&st4;&st2;&st3;" d="M54.324,13.248h41.077"/>
	<path style="&st0;&st1;&st4;&st2;&st3;" d="M30.245,33.078v25.496h19.83"/>
	<path style="&st0;&st1;&st4;&st2;&st3;" d="M30.245,45.826h89.235"/>
	<path style="&st0;&st1;&st4;&st2;&st3;" d="M99.65,33.078v25.496"/>
	<path style="&st0;&st1;&st4;&st2;&st3;" d="M89.735,33.078v25.496"/>
	<path style="&st0;&st1;&st4;&st2;&st3;" d="M59.99,33.078v25.496"/>
	<path style="&st0;&st1;&st4;&st2;&st3;" d="M50.075,33.078v25.496"/>
	<path style="&st0;&st1;&st4;&st2;&st3;" d="M40.16,33.078v25.496"/>
	<path style="&st0;&st1;&st4;&st2;&st3;" d="M50.075,23.163h4.249"/>
	<path style="&st0;&st1;&st4;&st2;&st3;" d="M95.401,23.163h4.249"/>
	<path style="&st0;&st1;&st4;&st2;&st3;" d="M106.732,23.163h14.164"/>
	<path style="&st0;&st1;&st4;&st2;&st3;" d="M28.829,23.163h14.164"/>
	<path style="&st0;&st1;&st4;&st2;&st3;" d="M50.075,6.166v16.997"/>
	<path style="&st0;&st1;&st4;&st2;&st3;" d="M106.732,6.166v16.997"/>
	<path style="&st0;&st1;&st4;&st2;&st3;" d="M44.409,4.75h4.25"/>
	<path style="&st0;&st1;&st4;&st2;&st3;" d="M42.993,23.163V6.166"/>
	<path style="&st0;&st1;&st4;&st2;&st3;" d="M101.066,4.75h4.25"/>
	<path style="&st0;&st1;&st4;&st2;&st3;" d="M99.65,23.163V6.166"/>
	<path style="&st0;&st1;&st4;&st2;&st3;" d="M6.166,24.58v38.244"/>
	<path style="&st0;&st1;&st4;&st2;&st3;" d="M7.582,64.239h45.326"/>
	<path style="&st0;&st1;&st4;&st2;&st3;" d="M143.559,24.58v38.244"/>
	<path style="&st0;&st1;&st4;&st2;&st3;" d="M54.324,23.163V10.416h41.077v12.748"/>
	<path style="&st0;&st1;&st4;&st2;&st3;" d="M66.364,69.905h16.998"/>
	<path style="&st0;&st1;&st2;&st3;" d="M30.245,71.322v7.082"/>
	<path style="&st0;&st1;&st2;&st3;" d="M34.494,82.653h18.414"/>
	<path style="&st0;&st1;&st2;&st3;" d="M120.896,69.905h24.08"/>
	<path style="&st0;&st1;&st2;&st3;" d="M119.48,71.322v7.082"/>
	<path style="&st0;&st1;&st2;&st3;" d="M115.231,82.653H96.817"/>
	<path style="&st0;&st1;&st2;&st3;" d="M30.245,0.5h89.235"/>
	<path style="&st0;&st1;&st2;&st3;" d="M4.749,69.905h24.08"/>
	<path style="&st0;&st1;&st2;&st3;" d="M125.146,4.75L119.48,0.5"/>
	<path style="&st0;&st1;&st2;&st3;" d="M52.908,82.653h43.909"/>
	<path style="&st0;&st1;&st4;&st2;&st3;" d="M94.551,74.863h-8.357"/>
	<path style="&st0;&st1;&st4;&st2;&st3;" d="M96.817,82.653v-5.524"/>
	<path style="&st0;&st1;&st4;&st2;&st3;" d="M52.908,82.653v-5.524"/>
	<path style="&st0;&st1;&st2;&st3;" d="M125.146,4.75h19.831"/>
	<path style="&st0;&st1;&st4;&st2;&st3;" d="M84.777,73.446v-2.125"/>
	<path style="&st0;&st1;&st4;&st2;&st3;" d="M55.174,74.863h8.357"/>
	<path style="&st0;&st1;&st4;&st2;&st3;" d="M64.948,73.446v-2.125"/>
	<path style="&st0;&st1;&st2;&st3;" d="M24.579,4.75l5.666-4.25"/>
	<path style="&st0;&st1;&st4;&st2;&st3;" d="M52.908,76.279h43.909"/>
	<path style="&st0;&st1;&st4;&st2;&st3;" d="M69.905,76.279v2.833h9.915v-2.833"/>
	<path style="&st0;&st1;&st4;&st2;&st3;" d="M69.905,79.112v1.416h9.915v-1.416"/>
	<path style="&st0;&st1;&st4;&st2;&st3;" d="M92.568,64.239V48.659h4.249v15.581"/>
	<path style="&st0;&st1;&st4;&st2;&st3;" d="M96.817,64.239h45.326"/>
	<path style="&st0;&st1;&st4;&st2;&st3;" d="M57.157,64.239h35.411"/>
	<path style="&st0;&st1;&st4;&st2;&st3;" d="M52.908,64.239V48.659h4.25v15.581"/>
	<path style="&st0;&st1;&st4;&st2;&st3;" d="M119.48,30.245v28.329"/>
	<path style="&st0;&st1;&st4;&st2;&st3;" d="M30.245,30.245v28.329"/>
	<path style="&st0;&st1;&st4;&st2;&st3;" d="M109.565,33.078h9.915v25.496h-9.915"/>
	<path style="&st0;&st1;&st4;&st2;&st3;" d="M119.48,30.245h12.748v28.329H119.48"/>
	<path style="&st0;&st1;&st4;&st2;&st3;" d="M99.65,58.574h9.915V33.078h-79.32"/>
	<path style="&st0;&st1;&st4;&st2;&st3;" d="M59.99,58.574h29.745"/>
	<path style="&st0;&st1;&st2;&st3;" d="M4.749,4.75h19.83"/>
	<path style="&st0;&st1;&st4;&st2;&st3;" d="M69.905,58.574V33.078"/>
	<path style="&st0;&st1;&st4;&st2;&st3;" d="M79.82,33.078v25.496"/>
	<path style="&st0;&st1;&st4;&st2;&st3;" d="M30.245,58.574H17.497V30.245h12.748"/>
	<path style="&st0;&st1;&st4;&st2;&st3;" d="M17.497,44.41h12.748"/>
	<path style="&st0;&st1;&st4;&st2;&st3;" d="M119.48,44.41h12.748"/>
	<path style="&st0;&st1;&st4;&st2;&st3;" d="M28.829,17.498v5.666"/>
	<path style="&st0;&st1;&st4;&st2;&st3;" d="M21.747,16.081h5.666"/>
	<path style="&st0;&st1;&st4;&st2;&st3;" d="M20.33,23.163v-5.666"/>
	<path style="&st0;&st1;&st4;&st2;&st3;" d="M129.395,17.498v5.666"/>
	<path style="&st0;&st1;&st4;&st2;&st3;" d="M122.313,16.081h5.666"/>
	<path style="&st0;&st1;&st4;&st2;&st3;" d="M120.896,23.163v-5.666"/>
	<path style="&st0;&st1;&st4;&st2;&st3;" d="M129.395,23.163h12.748"/>
	<path style="&st0;&st1;&st4;&st2;&st3;" d="M7.582,23.163H20.33"/>
	<path style="&st0;&st1;&st4;&st2;&st3;" d="M143.559,27.413h-4.249v14.164h4.249"/>
	<path style="&st0;&st1;&st4;&st2;&st3;" d="M143.559,47.242h-4.249v14.165h4.249"/>
	<path style="&st0;&st1;&st4;&st2;&st3;" d="M6.166,27.413h4.25v14.164h-4.25"/>
	<path style="&st0;&st1;&st4;&st2;&st3;" d="M6.166,47.242h4.25v14.165h-4.25"/>
	<path style="&st0;&st1;&st4;&st2;&st3;" d="M67.78,13.248v2.833h14.165v-2.833"/>
	<path style="&st0;&st1;&st4;&st2;&st3;" d="M8.999,13.248v7.082h8.499v-7.082H8.999"/>
	<path style="&st0;&st1;&st4;&st2;&st3;" d="M132.228,13.248v7.082h8.499v-7.082H132.228"/>
	<path style="&st0;&st1;&st4;&st2;&st3;" d="M31.662,13.248v7.082h8.499v-7.082H31.662"/>
	<path style="&st0;&st1;&st4;&st2;&st3;" d="M109.565,13.248v7.082h8.499v-7.082H109.565"/>
	<path style="&st0;&st1;&st4;&st2;&st3;" d="M59.99,23.163v4.25h29.745v-4.25H59.99"/>
	<g ewd:pinNo="2">
		<text transform="matrix(1 0 0 1 112.8359 41.7676)"><tspan x="0" y="0" style="&st6; &st5;">2</tspan></text>
	</g>
	<g ewd:pinNo="3">
		<text transform="matrix(1 0 0 1 102.9209 41.7676)"><tspan x="0" y="0" style="&st6; &st5;">3</tspan></text>
	</g>
	<g ewd:pinNo="4">
		<text transform="matrix(1 0 0 1 93.0059 41.7676)"><tspan x="0" y="0" style="&st6; &st5;">4</tspan></text>
	</g>
	<g ewd:pinNo="5">
		<text transform="matrix(1 0 0 1 83.0908 41.7676)"><tspan x="0" y="0" style="&st6; &st5;">5</tspan></text>
	</g>
	<g ewd:pinNo="6">
		<text transform="matrix(1 0 0 1 73.1758 41.7676)"><tspan x="0" y="0" style="&st6; &st5;">6</tspan></text>
	</g>
	<g ewd:pinNo="7">
		<text transform="matrix(1 0 0 1 63.2607 41.7676)"><tspan x="0" y="0" style="&st6; &st5;">7</tspan></text>
	</g>
	<g ewd:pinNo="8">
		<text transform="matrix(1 0 0 1 53.3457 41.7676)"><tspan x="0" y="0" style="&st6; &st5;">8</tspan></text>
	</g>
	<g ewd:pinNo="9">
		<text transform="matrix(1 0 0 1 43.4307 41.7676)"><tspan x="0" y="0" style="&st6; &st5;">9</tspan></text>
	</g>
	<g ewd:pinNo="10">
		<text transform="matrix(1 0 0 1 31.5869 41.7676)"><tspan x="0" y="0" style="&st6; &st5;">10</tspan></text>
	</g>
	<g ewd:pinNo="11">
		<text transform="matrix(1 0 0 1 20.478 39.6431)"><tspan x="0" y="0" style="&st6; &st5;">11</tspan></text>
	</g>
	<g ewd:pinNo="12">
		<text transform="matrix(1 0 0 1 122.2383 53.8071)"><tspan x="0" y="0" style="&st6; &st5;">12</tspan></text>
	</g>
	<g ewd:pinNo="13">
		<text transform="matrix(1 0 0 1 110.9067 54.5151)"><tspan x="0" y="0" style="&st6; &st5;">13</tspan></text>
	</g>
	<g ewd:pinNo="14">
		<text transform="matrix(1 0 0 1 100.9917 54.5151)"><tspan x="0" y="0" style="&st6; &st5;">14</tspan></text>
	</g>
	<g ewd:pinNo="15">
		<text transform="matrix(1 0 0 1 81.1616 54.5151)"><tspan x="0" y="0" style="&st6; &st5;">15</tspan></text>
	</g>
	<g ewd:pinNo="16">
		<text transform="matrix(1 0 0 1 71.2471 54.5151)"><tspan x="0" y="0" style="&st6; &st5;">16</tspan></text>
	</g>
	<g ewd:pinNo="17">
		<text transform="matrix(1 0 0 1 61.332 54.5151)"><tspan x="0" y="0" style="&st6; &st5;">17</tspan></text>
	</g>
	<g ewd:pinNo="18">
		<text transform="matrix(1 0 0 1 41.502 54.5151)"><tspan x="0" y="0" style="&st6; &st5;">18</tspan></text>
	</g>
	<g ewd:pinNo="19">
		<text transform="matrix(1 0 0 1 31.5869 54.5151)"><tspan x="0" y="0" style="&st6; &st5;">19</tspan></text>
	</g>
	<g ewd:pinNo="20">
		<text transform="matrix(1 0 0 1 20.6069 53.8071)"><tspan x="0" y="0" style="&st6; &st5;">20</tspan></text>
	</g>
	<g ewd:pinNo="1">
		<text transform="matrix(1 0 0 1 124.167 39.6431)"><tspan x="0" y="0" style="&st6; &st5;">1</tspan></text>
	</g>
</g>
<path d="M69.197,9.069v-8.504h163.9005v8.504" style="&st0;&st1;&st7;&st2;&st3;"/>
</svg>