<?xml version="1.0" encoding="utf-8"?>
<!DOCTYPE svg PUBLIC "-//W3C//DTD SVG 1.0//EN" "http://www.w3.org/TR/2001/REC-SVG-20010904/DTD/svg10.dtd"[
	<!ENTITY ns_flows "http://ns.adobe.com/Flows/1.0/">
	<!ENTITY ns_svg "http://www.w3.org/2000/svg">
	<!ENTITY ns_xlink "http://www.w3.org/1999/xlink">
	<!ENTITY st0 "font-size:7px;font-family:'MS-PGothic';adobe-font-script:japanese;">
	<!ENTITY st1 "font-size:6px;font-family:'ArialMT';">
	<!-- White fill  -->
	<!ENTITY st2 "fill:#FFFFFF;stroke:#000000; stroke-width:1.41;stroke-linecap:round;stroke-linejoin:round;">
	<!-- Yellow fill  -->
	<!ENTITY st3 "fill:#FFFFCC;stroke:#FFFFCC; stroke-width:0.1;stroke-linecap:round;stroke-linejoin:round;">
	<!-- Gray fill  -->
	<!ENTITY st4 "fill:#CCCCCC;stroke:#CCCCCC; stroke-width:0.1;stroke-linecap:round;stroke-linejoin:round;">
	<!-- Light-blue fill -->
	<!ENTITY st5 "fill:#CCECF4;stroke:#000000; stroke-width:1.133;stroke-linecap:round;stroke-linejoin:round;">
	<!ENTITY st6 "fill:none;stroke-linecap:butt; stroke-linejoin:round;">
	<!ENTITY st7 "fill:none;stroke:#000000;stroke-linecap:round;stroke-linejoin:round;">
	<!ENTITY st8 "enable-background:new    ;">
	<!-- Black fill -->
	<!ENTITY st9 "fill:#000000;stroke:#000000; stroke-linecap:round;stroke-linejoin:round;">
	<!-- SRS note   -->
	<!ENTITY st10 "font-size:9px;font-family:'ArialMT';">
	<!ENTITY st11 "font-size:9px;font-family:'Svg Symbol';">
	<!ENTITY st12 "font-size:6px;font-family:'Svg Symbol';">
	<!ENTITY st13 "fill:none;stroke:#ff0000;stroke-linecap:round;stroke-linejoin:round;">
	<!-- Yellow fill  -->
	<!ENTITY st14 "fill:#FFFF00;stroke:#FFFF00; stroke-width:0.1;stroke-linecap:round;stroke-linejoin:round;">
	<!ENTITY st15 "font-size:6px;font-family:'MS-PGothic';adobe-font-script:japanese;">
	<!ENTITY st16 "1.00 0.00 0.00 1.00">
	<!ENTITY st17 "0.00 -1.00 1.00 0.00">
	<!ENTITY st18 "font-size:6px;font-family:'Arial';">
	<!ENTITY st19 "font-size:9px;font-family:'Arial';">
	<!ENTITY st20 "font-size:6px;font-family:'MS-PGothic','MS PGothic';adobe-font-script:japanese;">
	<!ENTITY st21 "font-size:7px;font-family:'MS-PGothic','MS PGothic';adobe-font-script:japanese;">
	<!ATTLIST svg
		xmlns:ewd CDATA #FIXED "http://shcl.co.jp/ewd"
		xmlns:a CDATA #FIXED "http://ns.adobe.com/AdobeSVGViewerExtensions/3.0/"
		ewd:ver CDATA #IMPLIED
	>
	<!ATTLIST a
		ewd:lineID CDATA #IMPLIED
		ewd:groupID CDATA #IMPLIED
		ewd:figtype CDATA #IMPLIED
		ewd:code CDATA #IMPLIED
		ewd:figID CDATA #IMPLIED
		ewd:pinNo CDATA #IMPLIED
		ewd:comment CDATA #IMPLIED >
	<!ATTLIST g
		ewd:lineID CDATA #IMPLIED
		ewd:groupID CDATA #IMPLIED
		ewd:figtype CDATA #IMPLIED
		ewd:code CDATA #IMPLIED
		ewd:figID CDATA #IMPLIED
		ewd:pinNo CDATA #IMPLIED
		ewd:comment CDATA #IMPLIED >
	<!ATTLIST text
		ewd:textID CDATA #IMPLIED >
	<!ATTLIST title
		ewd:textID CDATA #IMPLIED >
]>
<!-- Generator: Shintec Hozumi YS   -->
<svg onload="call_execInitLoadProc_svg('system')" style="overflow:visible;  enable-background:new 0 0 3112.351 710.000" viewBox="0 0 3112.351 710.000" height="710.000" width="3112.351" xml:space="preserve" ewd:ver="2.3.1.16" xmlns="&ns_svg;" xmlns:a="http://ns.adobe.com/AdobeSVGViewerExtensions/3.0/" xmlns:ewd="http://shcl.co.jp/ewd" xmlns:xlink="&ns_xlink;">
<path style="stroke-width: 1.42 ;&st7;  " d=" M  1980.17,   239.75  L  1971.67,   239.75  " /><text style="&st18;" transform="matrix(&st17;  1979.31  307.63 )">(*10 *23 *26)</text><text style="&st18;" transform="matrix(&st17;  1967.98  295.41 )">B-Y</text><text style="&st18;" transform="matrix(&st17;  1919.82  289.53 )">(*10 *13)</text><text style="&st18;" transform="matrix(&st17;  1908.49  282.66 )">B-Y</text><text style="&st18;" transform="matrix(&st17;  1800.84  295.23 )">(RHD *9 *16)</text><text style="&st18;" transform="matrix(&st17;  1789.5  282.66 )">B-Y</text><text style="&st18;" transform="matrix(&st16;  1934.14  119.9 )">(*10 *13)</text><text style="&st18;" transform="matrix(&st17;  1832.0  282.66 )">B-Y</text><text style="&st18;" transform="matrix(&st16;  1941.0  108.57 )">B-Y</text><text style="&st18;" transform="matrix(&st17;  1885.82  295.23 )">(RHD *8 *13)</text><text style="&st18;" transform="matrix(&st17;  1874.49  282.66 )">B-Y</text><path style="stroke-width: 1.42 ;&st7;  " d=" M  1920.68,   108.74  L  1915.71,   103.77  " /><path style="stroke-width: 1.42 ;&st7;  " d=" M  1903.68,   115.80  L  1908.65,   120.77  " /><path style="stroke-width: 1.42 ;&st7;  " d=" M  1915.71,   120.77  L  1920.68,   115.80  " /><path style="stroke-width: 1.42 ;&st7;  " d=" M  1908.65,   103.77  L  1903.68,   108.74  " /><path style="stroke-width: 1.42 ;&st7;  " d=" M  1648.72,   346.70  L  1643.75,   341.73  " /><path style="stroke-width: 1.42 ;&st7;  " d=" M  1631.73,   353.76  L  1636.70,   358.73  " /><path style="stroke-width: 1.42 ;&st7;  " d=" M  1643.75,   358.73  L  1648.72,   353.76  " /><path style="stroke-width: 1.42 ;&st7;  " d=" M  1636.70,   341.73  L  1631.73,   346.70  " /><path style="stroke-width: 1.42 ;&st7;  " d=" M  1827.19,   341.73  L  1835.69,   341.73  " /><text style="&st18;" transform="matrix(&st17;  1636.53  422.89 )">B-Y</text><text style="&st18;" transform="matrix(&st17;  1647.86  435.45 )">(RHD *9 *15)</text><text style="&st18;" transform="matrix(&st17;  1602.54  422.89 )">B-Y</text><text style="&st18;" transform="matrix(&st17;  1613.87  435.45 )">(RHD *9 *15)</text><text style="&st18;" transform="matrix(&st16;  1516.07  253.05 )">B-Y</text><text style="&st18;" transform="matrix(&st16;  1503.51  264.38 )">(RHD *9 *15)</text><text style="&st18;" transform="matrix(&st16;  1584.06  253.05 )">B-Y</text><text style="&st18;" transform="matrix(&st16;  1571.5  264.38 )">(RHD *9 *15)</text><text style="&st18;" transform="matrix(&st16;  1504.25  108.57 )">B-Y(*10 *13)</text><text style="&st18;" transform="matrix(&st16;  1572.23  108.57 )">B-Y(*10 *13)</text><text style="&st18;" transform="matrix(&st16;  1566.53  125.57 )">B-Y(RHD *8 *13)</text><text style="&st18;" transform="matrix(&st16;  1561.73  142.56 )">B-Y(LHD *8 *13 *26)</text><text style="&st18;" transform="matrix(&st16;  1566.53  219.05 )">B-Y(RHD *9 *16)</text><text style="&st18;" transform="matrix(&st17;  1843.33  300.07 )">(LHD *8 *13 *26)</text><text style="&st18;" transform="matrix(&st17;  1832.0  388.9 )">B-Y</text><text style="&st18;" transform="matrix(&st17;  1843.33  400.95 )">(LHD *8 *13)</text><path style="stroke-width: 1.42 ;&st7;  " d=" M  1827.19,   528.70  L  1835.69,   528.70  " /><text style="&st18;" transform="matrix(&st17;  1832.0  516.53 )">R-Y</text><path style="stroke-width: 1.42 ;&st7;  " d=" M  1725.21,   341.73  L  1733.71,   341.73  " /><text style="&st18;" transform="matrix(&st17;  1696.02  465.38 )">B-Y</text><text style="&st18;" transform="matrix(&st17;  1707.35  473.76 )">(LHD *15)</text><text style="&st18;" transform="matrix(&st17;  1730.01  465.38 )">B-Y</text><text style="&st18;" transform="matrix(&st17;  1741.35  473.76 )">(LHD *15)</text><text style="&st18;" transform="matrix(&st17;  1730.01  388.9 )">B-Y</text><text style="&st18;" transform="matrix(&st17;  1741.35  400.95 )">(LHD *8 *15)</text><text style="&st18;" transform="matrix(&st17;  1696.02  388.9 )">B-Y</text><text style="&st18;" transform="matrix(&st17;  1707.35  400.95 )">(LHD *9 *15)</text><text style="&st18;" transform="matrix(&st17;  1730.01  282.66 )">B-Y</text><text style="&st18;" transform="matrix(&st17;  1741.35  300.07 )">(LHD *8 *15 *26)</text><text style="&st18;" transform="matrix(&st16;  1561.73  159.56 )">B-Y(LHD *8 *15 *26)</text><text style="&st18;" transform="matrix(&st16;  1567.04  236.05 )">B-Y(LHD *9 *15)</text><text style="&st18;" transform="matrix(&st17;  1815.01  299.82 )">LG(LHD *8 *13 *27)</text><text style="&st18;" transform="matrix(&st17;  1713.02  299.82 )">LG(LHD *8 *15 *27)</text><text style="&st18;" transform="matrix(&st16;  1562.66  176.56 )">LG(LHD *8 *13 *27)</text><text style="&st18;" transform="matrix(&st16;  1562.66  193.56 )">LG(LHD *8 *15 *27)</text><text style="&st18;" transform="matrix(&st17;  1942.48  294.48 )">LG</text><text style="&st18;" transform="matrix(&st17;  1953.81  307.63 )">(*10 *23 *27)</text><text style="&st18;" transform="matrix(&st16;  1866.38  575.99 )">R-Y(*26)</text><text style="&st18;" transform="matrix(&st16;  1869.45  592.99 )">P(*27)</text><text style="&st18;" transform="matrix(&st16;  1584.99  618.48 )">LG</text><text style="&st18;" transform="matrix(&st16;  1517.0  618.48 )">LG</text><text style="&st18;" transform="matrix(&st16;  1584.06  643.98 )">B-Y</text><text style="&st18;" transform="matrix(&st16;  1516.07  643.98 )">B-Y</text><text style="&st18;" transform="matrix(&st16;  1503.86  629.82 )">(*10 *23 *27)</text><text style="&st18;" transform="matrix(&st16;  1571.85  655.31 )">(*10 *23 *26)</text><text style="&st18;" transform="matrix(&st16;  1503.86  655.31 )">(*10 *23 *26)</text><text style="&st18;" transform="matrix(&st16;  1571.85  629.82 )">(*10 *23 *27)</text><g ewd:figtype="conn" ewd:figID="2" ewd:code="A42,A45"><path style="stroke-width: 0.85 ;&st7; stroke-dasharray:3, 1.5;" d=" M  1614.73,   532.10  L  1623.23,   532.10  " /><path style="stroke-width: 0.85 ;&st7; stroke-dasharray:3, 1.5;" d=" M  1614.73,   541.16  L  1623.23,   541.16  " /><path style="stroke-width: 1.42 ;&st7;  " d=" M  1589.23,   579.69  L  1657.22,   579.69  L  1657.22,   545.69  L  1589.23,   545.69  L  1589.23,   579.69  " /><g ewd:lineID="49,52"><text style="&st18;" transform="matrix(&st16;  1593.42  543.13 )">23</text><text style="&st18;" transform="matrix(&st16;  1596.75  534.07 )">5</text><path style="stroke-width: 1.42 ;&st7;   " d=" M  1610.76,   541.16  C  1610.76    538.66   1608.73    536.63   1606.23    536.63  " /><path style="stroke-width: 1.42 ;&st7;   " d=" M  1606.23,   536.63  C  1603.73    536.63   1601.70    538.66   1601.70    541.16  " /><path style="stroke-width: 1.42 ;&st7;   " d=" M  1601.70,   541.16  C  1601.70    543.66   1603.73    545.69   1606.23    545.69  " /><path style="stroke-width: 1.42 ;&st7;   " d=" M  1606.23,   545.69  C  1608.73    545.69   1610.76    543.66   1610.76    541.16  " /><path style="stroke-width: 1.42 ;&st7;   " d=" M  1610.76,   532.10  C  1610.76    529.59   1608.73    527.56   1606.23    527.56  " /><path style="stroke-width: 1.42 ;&st7;   " d=" M  1606.23,   527.56  C  1603.73    527.56   1601.70    529.59   1601.70    532.10  " /><path style="stroke-width: 1.42 ;&st7;   " d=" M  1601.70,   532.10  C  1601.70    534.60   1603.73    536.63   1606.23    536.63  " /><path style="stroke-width: 1.42 ;&st7;   " d=" M  1606.23,   536.63  C  1608.73    536.63   1610.76    534.60   1610.76    532.10  " /><text style="&st18;" transform="matrix(&st16;  1603.97  543.13 )">B</text><text style="&st18;" transform="matrix(&st16;  1603.97  534.07 )">A</text><text style="&st18;" transform="matrix(&st16;  1599.55  553.33 )">EXI4</text></g><g ewd:lineID="50,53"><text style="&st18;" transform="matrix(&st16;  1627.41  534.07 )">27</text><text style="&st18;" transform="matrix(&st16;  1627.41  543.13 )">15</text><path style="stroke-width: 1.42 ;&st7;   " d=" M  1644.76,   532.10  C  1644.76    529.59   1642.73    527.56   1640.23    527.56  " /><path style="stroke-width: 1.42 ;&st7;   " d=" M  1640.23,   527.56  C  1637.72    527.56   1635.69    529.59   1635.69    532.10  " /><path style="stroke-width: 1.42 ;&st7;   " d=" M  1635.69,   532.10  C  1635.69    534.60   1637.72    536.63   1640.23    536.63  " /><path style="stroke-width: 1.42 ;&st7;   " d=" M  1640.23,   536.63  C  1642.73    536.63   1644.76    534.60   1644.76    532.10  " /><path style="stroke-width: 1.42 ;&st7;   " d=" M  1644.76,   541.16  C  1644.76    538.66   1642.73    536.63   1640.23    536.63  " /><path style="stroke-width: 1.42 ;&st7;   " d=" M  1640.23,   536.63  C  1637.72    536.63   1635.69    538.66   1635.69    541.16  " /><path style="stroke-width: 1.42 ;&st7;   " d=" M  1635.69,   541.16  C  1635.69    543.66   1637.72    545.69   1640.23    545.69  " /><path style="stroke-width: 1.42 ;&st7;   " d=" M  1640.23,   545.69  C  1642.73    545.69   1644.76    543.66   1644.76    541.16  " /><text style="&st18;" transform="matrix(&st16;  1637.96  543.13 )">B</text><text style="&st18;" transform="matrix(&st16;  1637.96  534.07 )">A</text><text style="&st18;" transform="matrix(&st16;  1631.45  553.33 )">HDCS</text></g><g ewd:figtype="title"><text style="&st18;" transform="matrix(&st16;  1585.83  594.41 )" ewd:textID="19">Brake Actuator <tspan x="0 " dy="6.0">Assembly</tspan></text><text style="&st18;" transform="matrix(&st16;  1585.82  587.58 )">A42(A),A45(B)</text></g></g><g ewd:figtype="conn" ewd:figID="13" ewd:code="A20"><path style="stroke-width: 1.42 ;&st7;  " d=" M  1818.70,   486.20  L  1852.69,   486.20  L  1852.69,   452.21  L  1818.70,   452.21  L  1818.70,   486.20  " /><g ewd:lineID="48,58,59,63"><text style="&st18;" transform="matrix(&st16;  1829.35  448.52 )">8</text><text style="&st18;" transform="matrix(&st16;  1828.19  459.84 )">EX12</text></g><g ewd:lineID="57"><text style="&st18;" transform="matrix(&st16;  1826.02  494.4 )">31</text><text style="&st18;" transform="matrix(&st16;  1829.86  482.51 )">EX1</text></g><g ewd:figtype="title"><text style="&st18;" transform="matrix(&st17;  1867.41  489.11 )" ewd:textID="19">Brake Actuator <tspan x="0 " dy="6.0">Assembly</tspan></text><text style="&st18;" transform="matrix(&st17;  1860.58  489.1 )">A20</text></g></g><g ewd:figtype="conn" ewd:figID="19" ewd:code="A43"><path style="stroke-width: 0.85 ;&st7;  " d=" M  1733.71,   418.22  L  1733.71,   435.21  " /><path style="stroke-width: 0.85 ;&st7;  " d=" M  1699.72,   418.22  L  1699.72,   435.21  " /><path style="stroke-width: 1.42 ;&st7;  " d=" M  1691.22,   418.22  L  1691.22,   435.21  L  1742.21,   435.21  L  1742.21,   418.22  L  1691.22,   418.22  " /><path style="stroke-width: 0.85 ;&st7;  " d=" M  1699.72,   426.71  L  1733.71,   426.71  " /><path style="stroke-width: 0.85 ;&st7;  " d=" M  1698.52,   425.71  L  1698.25,   426.18  L  1698.16,   426.71  L  1698.25,   427.25  L  1698.52,   427.72  L  1698.94,   428.06  L  1699.44,   428.25  L  1699.99,   428.25  L  1700.49,   428.06  L  1700.91,   427.72  L  1701.18,   427.25  L  1701.27,   426.71  L  1701.18,   426.18  L  1700.91,   425.71  L  1700.49,   425.37  L  1699.99,   425.18  L  1699.44,   425.18  L  1698.94,   425.37  L  1698.52,   425.71  L  1698.92,   426.42  L  1698.92,   427.01  L  1699.29,   427.45  L  1699.86,   427.55  L  1700.37,   427.26  L  1700.57,   426.71  L  1700.37,   426.17  L  1699.86,   425.88  L  1699.29,   425.98  L  1699.72,   426.71  " /><path style="stroke-width: 0.85 ;&st7;  " d=" M  1732.52,   425.71  L  1732.25,   426.18  L  1732.15,   426.71  L  1732.25,   427.25  L  1732.52,   427.72  L  1732.93,   428.06  L  1733.44,   428.25  L  1733.98,   428.25  L  1734.49,   428.06  L  1734.90,   427.72  L  1735.17,   427.25  L  1735.27,   426.71  L  1735.17,   426.18  L  1734.90,   425.71  L  1734.49,   425.37  L  1733.98,   425.18  L  1733.44,   425.18  L  1732.93,   425.37  L  1732.52,   425.71  L  1732.91,   426.42  L  1732.91,   427.01  L  1733.28,   427.45  L  1733.86,   427.55  L  1734.36,   427.26  L  1734.56,   426.71  L  1734.36,   426.17  L  1733.86,   425.88  L  1733.28,   425.98  L  1733.71,   426.71  " /><text style="&st18;" transform="matrix(&st16;  1693.38  414.53 )">5</text><text style="&st18;" transform="matrix(&st16;  1693.38  443.41 )">1</text><text style="&st18;" transform="matrix(&st16;  1727.37  443.41 )">2</text><text style="&st18;" transform="matrix(&st16;  1727.37  414.53 )">6</text><g ewd:figtype="title"><text style="&st18;" transform="matrix(&st17;  1750.1  438.11 )">A43</text><text style="&st18;" transform="matrix(&st17;  1756.93  438.12 )" ewd:textID="34">No. 34 Junction <tspan x="0 " dy="6.0">Connector</tspan></text></g></g><g ewd:figtype="w2w" ewd:figID="40" ewd:code="AI3"><path style="stroke-width: 1.42 ;&st7;  " d=" M  1729.46,   332.66  L  1733.71,   336.91  L  1737.96,   332.66  " /><path style="stroke-width: 1.42 ;&st7;  " d=" M  1737.96,   336.06  L  1733.71,   340.31  L  1729.46,   336.06  " /><text style="&st18;" transform="matrix(&st16;  1720.29  347.95 )">9</text></g><g ewd:code="IA4" ewd:figID="41" ewd:comment="6" ewd:figtype="w2w"><text style="&st18;" transform="matrix(&st16;  1822.28  543.41 )">3</text><g ewd:code="" ewd:figID="150" ewd:comment="6" ewd:figtype="commref"><text style="&st18;" transform="matrix(&st16;  1844.72  543.41 )">(*6)</text></g></g><g ewd:code="IA2" ewd:figID="42" ewd:comment="8,9" ewd:figtype="w2w"><path style="stroke-width: 1.42 ;&st7;  " d=" M  1839.94,   523.03  L  1835.69,   527.28  L  1831.44,   523.03  " /><path style="stroke-width: 1.42 ;&st7;  " d=" M  1831.44,   519.63  L  1835.69,   523.88  L  1839.94,   519.63  " /><text style="&st18;" transform="matrix(&st16;  1822.28  534.92 )">3</text><g ewd:code="" ewd:figID="151" ewd:comment="8,9" ewd:figtype="commref"><text style="&st18;" transform="matrix(&st16;  1844.72  534.92 )">(*8,*9)</text></g></g><g ewd:figtype="w2w" ewd:figID="43" ewd:code="AI3"><path style="stroke-width: 1.42 ;&st7;  " d=" M  1831.44,   332.66  L  1835.69,   336.91  L  1839.94,   332.66  " /><path style="stroke-width: 1.42 ;&st7;  " d=" M  1839.94,   336.06  L  1835.69,   340.31  L  1831.44,   336.06  " /><text style="&st18;" transform="matrix(&st16;  1822.28  347.95 )">9</text></g><g ewd:figtype="w2w" ewd:figID="44" ewd:code="AI2"><path style="stroke-width: 1.42 ;&st7;  " d=" M  1975.92,   248.81  L  1971.67,   244.56  L  1967.42,   248.81  " /><path style="stroke-width: 1.42 ;&st7;  " d=" M  1975.92,   245.41  L  1971.67,   241.16  L  1967.42,   245.41  " /><text style="&st18;" transform="matrix(&st16;  1958.25  237.47 )">3</text><g ewd:code="" ewd:figID="192" ewd:comment="" ewd:figtype="commref"><text style="&st18;" transform="matrix(&st16;  1980.7  237.47 )">(RHD)</text></g></g><g ewd:figtype="w2w" ewd:figID="45" ewd:code="AI7"><text style="&st18;" transform="matrix(&st16;  1958.25  228.97 )">6</text><g ewd:code="" ewd:figID="191" ewd:comment="" ewd:figtype="commref"><text style="&st18;" transform="matrix(&st16;  1980.7  228.97 )">(LHD)</text></g></g><g ewd:code="" ewd:figID="202" ewd:comment="29" ewd:figtype="commref"><text style="&st18;" transform="matrix(&st16;  1645.32  543.13 )">(*29)</text></g><g ewd:code="" ewd:figID="203" ewd:comment="28" ewd:figtype="commref"><text style="&st18;" transform="matrix(&st16;  1645.32  534.07 )">(*28)</text></g></svg>