<?xml version="1.0" encoding="utf-8"?>
<!DOCTYPE svg PUBLIC "-//W3C//DTD SVG 1.0//EN" "http://www.w3.org/TR/2001/REC-SVG-20010904/DTD/svg10.dtd"[
	<!ENTITY ns_flows "http://ns.adobe.com/Flows/1.0/">
	<!ENTITY ns_svg "http://www.w3.org/2000/svg">
	<!ENTITY ns_xlink "http://www.w3.org/1999/xlink">
	<!ENTITY st0 "font-size:7px;font-family:'MS-PGothic';adobe-font-script:japanese;">
	<!ENTITY st1 "font-size:6px;font-family:'ArialMT';">
	<!-- White fill  -->
	<!ENTITY st2 "fill:#FFFFFF;stroke:#000000; stroke-width:1.41;stroke-linecap:round;stroke-linejoin:round;">
	<!-- Yellow fill  -->
	<!ENTITY st3 "fill:#FFFFCC;stroke:#FFFFCC; stroke-width:0.1;stroke-linecap:round;stroke-linejoin:round;">
	<!-- Gray fill  -->
	<!ENTITY st4 "fill:#CCCCCC;stroke:#CCCCCC; stroke-width:0.1;stroke-linecap:round;stroke-linejoin:round;">
	<!-- Light-blue fill -->
	<!ENTITY st5 "fill:#CCECF4;stroke:#000000; stroke-width:1.133;stroke-linecap:round;stroke-linejoin:round;">
	<!ENTITY st6 "fill:none;stroke-linecap:butt; stroke-linejoin:round;">
	<!ENTITY st7 "fill:none;stroke:#000000;stroke-linecap:round;stroke-linejoin:round;">
	<!ENTITY st8 "enable-background:new    ;">
	<!-- Black fill -->
	<!ENTITY st9 "fill:#000000;stroke:#000000; stroke-linecap:round;stroke-linejoin:round;">
	<!-- SRS note   -->
	<!ENTITY st10 "font-size:9px;font-family:'ArialMT';">
	<!ENTITY st11 "font-size:9px;font-family:'Svg Symbol';">
	<!ENTITY st12 "font-size:6px;font-family:'Svg Symbol';">
	<!ENTITY st13 "fill:none;stroke:#ff0000;stroke-linecap:round;stroke-linejoin:round;">
	<!-- Yellow fill  -->
	<!ENTITY st14 "fill:#FFFF00;stroke:#FFFF00; stroke-width:0.1;stroke-linecap:round;stroke-linejoin:round;">
	<!ENTITY st15 "font-size:6px;font-family:'MS-PGothic';adobe-font-script:japanese;">
	<!ENTITY st16 "1.00 0.00 0.00 1.00">
	<!ENTITY st17 "0.00 -1.00 1.00 0.00">
	<!ENTITY st18 "font-size:6px;font-family:'Arial';">
	<!ENTITY st19 "font-size:9px;font-family:'Arial';">
	<!ENTITY st20 "font-size:6px;font-family:'MS-PGothic','MS PGothic';adobe-font-script:japanese;">
	<!ENTITY st21 "font-size:7px;font-family:'MS-PGothic','MS PGothic';adobe-font-script:japanese;">
	<!ATTLIST svg
		xmlns:ewd CDATA #FIXED "http://shcl.co.jp/ewd"
		xmlns:a CDATA #FIXED "http://ns.adobe.com/AdobeSVGViewerExtensions/3.0/"
		ewd:ver CDATA #IMPLIED
	>
	<!ATTLIST a
		ewd:lineID CDATA #IMPLIED
		ewd:groupID CDATA #IMPLIED
		ewd:figtype CDATA #IMPLIED
		ewd:code CDATA #IMPLIED
		ewd:figID CDATA #IMPLIED
		ewd:pinNo CDATA #IMPLIED
		ewd:comment CDATA #IMPLIED >
	<!ATTLIST g
		ewd:lineID CDATA #IMPLIED
		ewd:groupID CDATA #IMPLIED
		ewd:figtype CDATA #IMPLIED
		ewd:code CDATA #IMPLIED
		ewd:figID CDATA #IMPLIED
		ewd:pinNo CDATA #IMPLIED
		ewd:comment CDATA #IMPLIED >
	<!ATTLIST text
		ewd:textID CDATA #IMPLIED >
	<!ATTLIST title
		ewd:textID CDATA #IMPLIED >
]>
<!-- Generator: Shintec Hozumi YS   -->
<svg onload="call_execInitLoadProc_svg('system')" style="overflow:visible;  enable-background:new 0 0 3112.351 710.000" viewBox="0 0 3112.351 710.000" height="710.000" width="3112.351" xml:space="preserve" ewd:ver="2.3.1.16" xmlns="&ns_svg;" xmlns:a="http://ns.adobe.com/AdobeSVGViewerExtensions/3.0/" xmlns:ewd="http://shcl.co.jp/ewd" xmlns:xlink="&ns_xlink;">
<path style="stroke-width: 1.42 ;&st7;  " d=" M   832.86,   409.72  L   841.36,   409.72  " /><path style="stroke-width: 1.42 ;&st7;  " d=" M   883.85,   409.72  L   875.35,   409.72  " /><path style="stroke-width: 1.42 ;&st7;  " d=" M   620.40,   443.71  L   611.90,   443.71  " /><path style="stroke-width: 1.42 ;&st7;  " d=" M   883.85,   299.24  L   875.35,   299.24  " /><text style="&st18;" transform="matrix(&st17;  897.15  358.22 )">LG</text><text style="&st18;" transform="matrix(&st17;  908.49  372.88 )">(LHD *10 *27)</text><text style="&st18;" transform="matrix(&st17;  812.17  358.22 )">LG</text><text style="&st18;" transform="matrix(&st17;  849.0  386.13 )">(RHD *10 *26)</text><text style="&st18;" transform="matrix(&st17;  837.66  371.9 )">B-Y</text><text style="&st18;" transform="matrix(&st17;  882.99  271.47 )">(*10)</text><text style="&st18;" transform="matrix(&st17;  871.66  269.92 )">B-Y</text><text style="&st18;" transform="matrix(&st17;  882.99  670.9 )">(*10)</text><text style="&st18;" transform="matrix(&st17;  882.99  577.42 )">(*10)</text><text style="&st18;" transform="matrix(&st17;  882.99  470.61 )">(LHD *10 *24)</text><text style="&st18;" transform="matrix(&st17;  882.99  372.88 )">(LHD *10 *26)</text><text style="&st18;" transform="matrix(&st17;  849.0  471.11 )">(RHD *10 *24)</text><text style="&st18;" transform="matrix(&st17;  823.5  373.38 )">(RHD *10 *27)</text><text style="&st18;" transform="matrix(&st17;  619.54  511.59 )">(*10 *23 *26)</text><text style="&st18;" transform="matrix(&st17;  608.2  499.38 )">B-Y</text><text style="&st18;" transform="matrix(&st17;  871.66  359.15 )">B-Y</text><text style="&st18;" transform="matrix(&st17;  871.66  456.88 )">B-Y</text><text style="&st18;" transform="matrix(&st17;  871.66  576.91 )">W-B</text><text style="&st18;" transform="matrix(&st17;  871.66  670.4 )">W-B</text><text style="&st18;" transform="matrix(&st17;  837.66  456.88 )">B-Y</text><path style="stroke-width: 1.42 ;&st7;  " d=" M   883.85,   593.16  L   878.88,   588.19  " /><path style="stroke-width: 1.42 ;&st7;  " d=" M   866.86,   600.22  L   871.82,   605.18  " /><path style="stroke-width: 1.42 ;&st7;  " d=" M   878.88,   605.18  L   883.85,   600.22  " /><path style="stroke-width: 1.42 ;&st7;  " d=" M   871.82,   588.19  L   866.86,   593.16  " /><text style="&st18;" transform="matrix(&st17;  908.49  470.61 )">(LHD *10 *25)</text><text style="&st18;" transform="matrix(&st17;  897.15  455.95 )">LG</text><text style="&st18;" transform="matrix(&st17;  823.5  483.86 )">(RHD *10 *25)</text><text style="&st18;" transform="matrix(&st17;  812.17  468.7 )">LG</text><text style="&st18;" transform="matrix(&st17;  594.04  511.59 )">(*10 *23 *27)</text><text style="&st18;" transform="matrix(&st17;  582.71  496.47 )">P</text><text style="&st18;" transform="matrix(&st16;  998.59  618.48 )">LG</text><text style="&st18;" transform="matrix(&st16;  997.66  643.98 )">B-Y</text><text style="&st18;" transform="matrix(&st16;  985.44  629.82 )">(*10 *23 *27)</text><text style="&st18;" transform="matrix(&st16;  985.44  655.31 )">(*10 *23 *26)</text><text style="&st18;" transform="matrix(&st16;  641.65  618.48 )">LG</text><text style="&st18;" transform="matrix(&st16;  640.72  643.98 )">B-Y</text><text style="&st18;" transform="matrix(&st16;  628.5  629.82 )">(*10 *23 *27)</text><text style="&st18;" transform="matrix(&st16;  628.5  655.31 )">(*10 *23 *26)</text><text style="&st18;" transform="matrix(&st16;  990.8  204.89 )">(*10 *14)</text><text style="&st18;" transform="matrix(&st16;  997.66  193.56 )">B-Y</text><text style="&st18;" transform="matrix(&st16;  547.23  219.05 )">B-Y</text><text style="&st18;" transform="matrix(&st16;  545.68  230.38 )">(*10)</text><text style="&st18;" transform="matrix(&st16;  547.23  193.56 )">B-Y</text><text style="&st18;" transform="matrix(&st16;  540.37  204.89 )">(*10 *14)</text><text style="&st18;" transform="matrix(&st16;  547.23  295.54 )">B-Y</text><text style="&st18;" transform="matrix(&st16;  540.37  306.87 )">(*10 *13)</text><g ewd:figtype="conn" ewd:figID="3" ewd:code="L17"><path style="stroke-width: 0.85 ;&st7;  " d=" M   875.35,   515.95  L   875.35,   511.70  " /><path style="stroke-width: 0.85 ;&st7;  " d=" M   875.35,   545.69  L   875.35,   541.44  " /><path style="stroke-width: 1.42 ;&st7;  " d=" M   875.35,   538.61  L   881.02,   515.95  " /><path style="stroke-width: 0.85 ;&st7;   " d=" M   876.77,   517.37  C   876.77    516.58    876.14    515.95    875.35    515.95  " /><path style="stroke-width: 0.85 ;&st7;   " d=" M   875.35,   515.95  C   874.57    515.95    873.94    516.58    873.94    517.37  " /><path style="stroke-width: 0.85 ;&st7;   " d=" M   873.94,   517.37  C   873.94    518.15    874.57    518.78    875.35    518.78  " /><path style="stroke-width: 0.85 ;&st7;   " d=" M   875.35,   518.78  C   876.14    518.78    876.77    518.15    876.77    517.37  " /><path style="stroke-width: 0.85 ;&st7;   " d=" M   876.77,   540.03  C   876.77    539.25    876.14    538.61    875.35    538.61  " /><path style="stroke-width: 0.85 ;&st7;   " d=" M   875.35,   538.61  C   874.57    538.61    873.94    539.25    873.94    540.03  " /><path style="stroke-width: 0.85 ;&st7;   " d=" M   873.94,   540.03  C   873.94    540.81    874.57    541.44    875.35    541.44  " /><path style="stroke-width: 0.85 ;&st7;   " d=" M   875.35,   541.44  C   876.14    541.44    876.77    540.81    876.77    540.03  " /><path style="stroke-width: 1.42 ;&st7;  " d=" M   883.85,   545.69  L   883.85,   511.70  L   866.85,   511.70  L   866.85,   545.69  L   883.85,   545.69  " /><text style="&st18;" transform="matrix(&st16;  869.01  508.01 )">3</text><text style="&st18;" transform="matrix(&st16;  869.01  553.89 )">4</text><g ewd:figtype="title"><text style="&st18;" transform="matrix(&st17;  898.57  548.6 )" ewd:textID="37">Transmission <tspan x="0 " dy="6.0">Control Switch</tspan></text><text style="&st18;" transform="matrix(&st17;  891.75  548.59 )">L17</text></g></g><g ewd:figtype="conn" ewd:figID="12" ewd:code="I24"><path style="stroke-width: 0.85 ;&st7;  " d=" M   616.15,   571.19  L   607.65,   571.19  " /><path style="stroke-width: 0.85 ;&st7;  " d=" M   611.90,   554.19  L   611.90,   579.69  " /><path style="stroke-width: 1.42 ;&st7;  " d=" M   603.40,   579.69  L   620.40,   579.69  L   620.40,   554.19  L   603.40,   554.19  L   603.40,   579.69  " /><path style="stroke-width: 0.28 ;&st9;  " d=" M   611.90,   571.19  L   606.23,   562.69  L   617.56,   562.69  L   611.90,   571.19  " /><text style="&st18;" transform="matrix(&st16;  605.56  550.5 )">1</text><text style="&st18;" transform="matrix(&st16;  605.56  587.88 )">2</text><g ewd:figtype="title"><text style="&st18;" transform="matrix(&st17;  628.29  582.59 )">I24</text><text style="&st18;" transform="matrix(&st17;  635.11  582.59 )" ewd:textID="22">Diode (Transfer L4 Position Switch)</text></g></g><g ewd:figtype="w2w" ewd:figID="30" ewd:code="AI2"><path style="stroke-width: 1.42 ;&st7;  " d=" M   616.15,   452.78  L   611.90,   448.53  L   607.65,   452.78  " /><path style="stroke-width: 1.42 ;&st7;  " d=" M   616.15,   449.38  L   611.90,   445.13  L   607.65,   449.38  " /><text style="&st18;" transform="matrix(&st16;  598.48  441.43 )">8</text><g ewd:code="" ewd:figID="132" ewd:comment="" ewd:figtype="commref"><text style="&st18;" transform="matrix(&st16;  620.93  441.43 )">(RHD)</text></g></g><g ewd:figtype="w2w" ewd:figID="31" ewd:code="AI7"><text style="&st18;" transform="matrix(&st16;  598.48  432.93 )">7</text><g ewd:code="" ewd:figID="131" ewd:comment="" ewd:figtype="commref"><text style="&st18;" transform="matrix(&st16;  620.93  432.93 )">(LHD)</text></g></g><g ewd:figtype="w2w" ewd:figID="32" ewd:code="LI1"><path style="stroke-width: 1.42 ;&st7;  " d=" M   845.61,   404.05  L   841.36,   408.30  L   837.11,   404.05  " /><path style="stroke-width: 1.42 ;&st7;  " d=" M   837.11,   400.65  L   841.36,   404.90  L   845.61,   400.65  " /><text style="&st18;" transform="matrix(&st16;  827.94  415.94 )">5</text></g><g ewd:figtype="w2w" ewd:figID="33" ewd:code="IL2"><path style="stroke-width: 1.42 ;&st7;  " d=" M   879.60,   415.38  L   875.35,   411.13  L   871.10,   415.38  " /><path style="stroke-width: 1.42 ;&st7;  " d=" M   879.60,   418.78  L   875.35,   414.53  L   871.10,   418.78  " /><text style="&st18;" transform="matrix(&st16;  858.6  407.44 )">20</text></g><g ewd:figtype="w2w" ewd:figID="34" ewd:code="AI3"><path style="stroke-width: 1.42 ;&st7;  " d=" M   879.60,   304.90  L   875.35,   300.65  L   871.10,   304.90  " /><path style="stroke-width: 1.42 ;&st7;  " d=" M   879.60,   308.30  L   875.35,   304.05  L   871.10,   308.30  " /><text style="&st18;" transform="matrix(&st16;  858.6  296.96 )">60</text></g><g ewd:figtype="gp" ewd:figID="76" ewd:code="LA"><path style="stroke-width: 0.85 ;&st7;  " d=" M   873.94,   710.00  L   876.77,   710.00  " /><path style="stroke-width: 0.85 ;&st7;  " d=" M   872.52,   707.17  L   878.19,   707.17  " /><path style="stroke-width: 0.85 ;&st7;  " d=" M   871.10,   704.33  L   879.60,   704.33  " /><path style="stroke-width: 0.85 ;&st7;  " d=" M   866.85,   701.50  L   883.85,   701.50  " /><path style="stroke-width: 0.85 ;&st7;  " d=" M   875.35,   697.25  L   875.35,   701.50  " /></g><g ewd:code="21" ewd:figID="194" ewd:comment="10" ewd:figtype="comment"><text style="&st18;" transform="matrix(&st16;  684.98  539.16 )" ewd:textID="11">*21 :LHD *10 w/ SRS</text></g><g ewd:code="18" ewd:figID="196" ewd:comment="" ewd:figtype="comment"><text style="&st18;" transform="matrix(&st16;  684.98  522.17 )" ewd:textID="8">*18 :Before Sep. 2017 Production</text></g><g ewd:code="10" ewd:figID="182" ewd:comment="" ewd:figtype="comment"><text style="&st18;" transform="matrix(&st16;  684.98  496.67 )" ewd:textID="2">*10 :1HZ 12V Battery Type</text></g><g ewd:code="26" ewd:figID="183" ewd:comment="" ewd:figtype="comment"><text style="&st18;" transform="matrix(&st16;  684.98  581.66 )" ewd:textID="14">*26 :Before Sep. 2022 Production</text></g><g ewd:code="19" ewd:figID="195" ewd:comment="" ewd:figtype="comment"><text style="&st18;" transform="matrix(&st16;  684.98  530.67 )" ewd:textID="9">*19 :From Sep. 2017 Production</text></g><g ewd:code="25" ewd:figID="175" ewd:comment="" ewd:figtype="comment"><text style="&st18;" transform="matrix(&st16;  684.98  573.16 )" ewd:textID="13">*25 :From Jul. 2021 Production</text></g><g ewd:code="13" ewd:figID="186" ewd:comment="" ewd:figtype="comment"><text style="&st18;" transform="matrix(&st16;  684.98  505.17 )" ewd:textID="4">*13 :w/ ABS w/o VSC</text></g><g ewd:code="22" ewd:figID="193" ewd:comment="" ewd:figtype="comment"><text style="&st18;" transform="matrix(&st16;  684.98  547.66 )">*22 :RHD 1HZ</text></g><g ewd:code="24" ewd:figID="174" ewd:comment="" ewd:figtype="comment"><text style="&st18;" transform="matrix(&st16;  684.98  564.66 )" ewd:textID="12">*24 :Before Jul. 2021 Production</text></g><g ewd:code="23" ewd:figID="198" ewd:comment="18,6,19,22,19,21" ewd:figtype="comment"><text style="&st18;" transform="matrix(&st16;  684.98  556.16 )">*23 :*18 *6,*19 *22,*19 *21</text></g><g ewd:code="6" ewd:figID="197" ewd:comment="" ewd:figtype="comment"><text style="&st18;" transform="matrix(&st16;  684.98  488.17 )">* 6 :1HZ</text></g><g ewd:code="27" ewd:figID="184" ewd:comment="" ewd:figtype="comment"><text style="&st18;" transform="matrix(&st16;  684.98  590.16 )" ewd:textID="15">*27 :From Sep. 2022 Production</text></g><g ewd:code="14" ewd:figID="199" ewd:comment="" ewd:figtype="comment"><text style="&st18;" transform="matrix(&st16;  684.98  513.67 )" ewd:textID="5">*14 :w/o ABS</text></g></svg>