<?xml version="1.0" encoding="utf-8"?>
<!DOCTYPE svg PUBLIC "-//W3C//DTD SVG 1.0//EN" "http://www.w3.org/TR/2001/REC-SVG-20010904/DTD/svg10.dtd"[
	<!ENTITY ns_flows "http://ns.adobe.com/Flows/1.0/">
	<!ENTITY ns_svg "http://www.w3.org/2000/svg">
	<!ENTITY ns_xlink "http://www.w3.org/1999/xlink">
	<!ENTITY st0 "font-size:7px;font-family:'MS-PGothic';adobe-font-script:japanese;">
	<!ENTITY st1 "font-size:6px;font-family:'ArialMT';">
	<!-- White fill  -->
	<!ENTITY st2 "fill:#FFFFFF;stroke:#000000; stroke-width:1.41;stroke-linecap:round;stroke-linejoin:round;">
	<!-- Yellow fill  -->
	<!ENTITY st3 "fill:#FFFFCC;stroke:#FFFFCC; stroke-width:0.1;stroke-linecap:round;stroke-linejoin:round;">
	<!-- Gray fill  -->
	<!ENTITY st4 "fill:#CCCCCC;stroke:#CCCCCC; stroke-width:0.1;stroke-linecap:round;stroke-linejoin:round;">
	<!-- Light-blue fill -->
	<!ENTITY st5 "fill:#CCECF4;stroke:#000000; stroke-width:1.133;stroke-linecap:round;stroke-linejoin:round;">
	<!ENTITY st6 "fill:none;stroke-linecap:butt; stroke-linejoin:round;">
	<!ENTITY st7 "fill:none;stroke:#000000;stroke-linecap:round;stroke-linejoin:round;">
	<!ENTITY st8 "enable-background:new    ;">
	<!-- Black fill -->
	<!ENTITY st9 "fill:#000000;stroke:#000000; stroke-linecap:round;stroke-linejoin:round;">
	<!-- SRS note   -->
	<!ENTITY st10 "font-size:9px;font-family:'ArialMT';">
	<!ENTITY st11 "font-size:9px;font-family:'Svg Symbol';">
	<!ENTITY st12 "font-size:6px;font-family:'Svg Symbol';">
	<!ENTITY st13 "fill:none;stroke:#ff0000;stroke-linecap:round;stroke-linejoin:round;">
	<!-- Yellow fill  -->
	<!ENTITY st14 "fill:#FFFF00;stroke:#FFFF00; stroke-width:0.1;stroke-linecap:round;stroke-linejoin:round;">
	<!ENTITY st15 "font-size:6px;font-family:'MS-PGothic';adobe-font-script:japanese;">
	<!ENTITY st16 "1.00 0.00 0.00 1.00">
	<!ENTITY st17 "0.00 -1.00 1.00 0.00">
	<!ENTITY st18 "font-size:6px;font-family:'Arial';">
	<!ENTITY st19 "font-size:9px;font-family:'Arial';">
	<!ENTITY st20 "font-size:6px;font-family:'MS-PGothic','MS PGothic';adobe-font-script:japanese;">
	<!ENTITY st21 "font-size:7px;font-family:'MS-PGothic','MS PGothic';adobe-font-script:japanese;">
	<!ATTLIST svg
		xmlns:ewd CDATA #FIXED "http://shcl.co.jp/ewd"
		xmlns:a CDATA #FIXED "http://ns.adobe.com/AdobeSVGViewerExtensions/3.0/"
		ewd:ver CDATA #IMPLIED
	>
	<!ATTLIST a
		ewd:lineID CDATA #IMPLIED
		ewd:groupID CDATA #IMPLIED
		ewd:figtype CDATA #IMPLIED
		ewd:code CDATA #IMPLIED
		ewd:figID CDATA #IMPLIED
		ewd:pinNo CDATA #IMPLIED
		ewd:comment CDATA #IMPLIED >
	<!ATTLIST g
		ewd:lineID CDATA #IMPLIED
		ewd:groupID CDATA #IMPLIED
		ewd:figtype CDATA #IMPLIED
		ewd:code CDATA #IMPLIED
		ewd:figID CDATA #IMPLIED
		ewd:pinNo CDATA #IMPLIED
		ewd:comment CDATA #IMPLIED >
	<!ATTLIST text
		ewd:textID CDATA #IMPLIED >
	<!ATTLIST title
		ewd:textID CDATA #IMPLIED >
]>
<!-- Generator: Shintec Hozumi YS   -->
<svg onload="call_execInitLoadProc_svg('system')" style="overflow:visible;  enable-background:new 0 0 3112.351 710.000" viewBox="0 0 3112.351 710.000" height="710.000" width="3112.351" xml:space="preserve" ewd:ver="2.3.1.16" xmlns="&ns_svg;" xmlns:a="http://ns.adobe.com/AdobeSVGViewerExtensions/3.0/" xmlns:ewd="http://shcl.co.jp/ewd" xmlns:xlink="&ns_xlink;"><script type="text/javascript" xlink:href="../../../../../system/js/ewd/fig/svgfig.js" xmlns:xlink="http://www.w3.org/1999/xlink" />
<g id="ewd_top"><a ewd:figtype="conn" style="cursor:pointer;" ewd:code="A22" ewd:figID="1"><path style="fill:#CCECF4;stroke:#000000; stroke-width:1.133; stroke-linecap:round;stroke-linejoin:round; " d=" M  2303.12,   605.18  L  2320.11,   605.18  L  2320.11,   622.18  L  2303.12,   622.18  L  2303.12,   605.18 " /><title ewd:textID="24">No. 1 Junction Connector</title></a><a ewd:figtype="conn" style="cursor:pointer;" ewd:code="A42,A45" ewd:figID="2"><path style="fill:#CCECF4;stroke:#000000; stroke-width:1.133; stroke-linecap:round;stroke-linejoin:round; " d=" M  1589.23,   579.69  L  1657.22,   579.69  L  1657.22,   545.69  L  1589.23,   545.69  L  1589.23,   579.69 " /><title ewd:textID="19">Brake Actuator Assembly</title></a><a ewd:figtype="conn" style="cursor:pointer;" ewd:code="L17" ewd:figID="3"><path style="fill:#CCECF4;stroke:#000000; stroke-width:1.133; stroke-linecap:round;stroke-linejoin:round; " d=" M   883.85,   545.69  L   883.85,   511.70  L   866.86,   511.70  L   866.86,   545.69  L   883.85,   545.69 " /><title ewd:textID="37">Transmission Control Switch</title></a><a ewd:figtype="conn" style="cursor:pointer;" ewd:code="C35,C98" ewd:figID="4"><path style="fill:#CCECF4;stroke:#000000; stroke-width:1.133; stroke-linecap:round;stroke-linejoin:round; " d=" M  2303.12,   418.22  L  2337.11,   418.22  L  2337.11,   367.22  L  2303.12,   367.22  L  2303.12,   418.22 " /><title ewd:textID="20">Center Differential Lock Indicator Switch (No. 1 Transfer Indicator Switch)</title></a><a ewd:figtype="conn" style="cursor:pointer;" ewd:code="I61,I70" ewd:figID="5"><path style="fill:#CCECF4;stroke:#000000; stroke-width:1.133; stroke-linecap:round;stroke-linejoin:round; " d=" M  2328.61,   137.76  L  2456.09,   137.76  L  2456.09,   154.76  L  2328.61,   154.76  L  2328.61,   137.76 " /><title ewd:textID="31">No. 11 Junction Connector , No. 19 Junction Connector</title></a><a ewd:figtype="conn" style="cursor:pointer;" ewd:code="I8" ewd:figID="6"><path style="fill:#CCECF4;stroke:#000000; stroke-width:1.133; stroke-linecap:round;stroke-linejoin:round; " d=" M  2371.10,    18.78  L  2371.10,    52.78  L  2405.10,    52.78  L  2405.10,    18.78  L  2371.10,    18.78 " /><title ewd:textID="25">No. 2 Four Wheel Drive Control ECU</title></a><a ewd:figtype="conn" style="cursor:pointer;" ewd:code="I105" ewd:figID="7"><path style="fill:#CCECF4;stroke:#000000; stroke-width:1.133; stroke-linecap:round;stroke-linejoin:round; " d=" M    67.99,   197.25  L    84.99,   197.25  L    84.99,   214.25  L    67.99,   214.25  L    67.99,   197.25 " /><title ewd:textID="27">No. 8 Junction Connector</title></a><a ewd:figtype="conn" style="cursor:pointer;" ewd:code="I31,I89" ewd:figID="8"><path style="fill:#CCECF4;stroke:#000000; stroke-width:1.133; stroke-linecap:round;stroke-linejoin:round; " d=" M   254.96,   579.69  L   305.95,   579.69  L   305.95,   545.69  L   254.96,   545.69  L   254.96,   579.69 " /><title ewd:textID="23">Four Wheel Drive Control Solenoid Assembly</title></a><a ewd:figtype="conn" style="cursor:pointer;" ewd:code="A22" ewd:figID="9"><path style="fill:#CCECF4;stroke:#000000; stroke-width:1.133; stroke-linecap:round;stroke-linejoin:round; " d=" M  1198.30,   545.69  L  1215.30,   545.69  L  1215.30,   562.69  L  1198.30,   562.69  L  1198.30,   545.69 " /><title ewd:textID="24">No. 1 Junction Connector</title></a><a ewd:figtype="conn" style="cursor:pointer;" ewd:code="A23" ewd:figID="10"><path style="fill:#CCECF4;stroke:#000000; stroke-width:1.133; stroke-linecap:round;stroke-linejoin:round; " d=" M  1249.29,   545.69  L  1266.29,   545.69  L  1266.29,   562.69  L  1249.29,   562.69  L  1249.29,   545.69 " /><title ewd:textID="26">No. 2 Junction Connector</title></a><a ewd:figtype="conn" style="cursor:pointer;" ewd:code="C36,C99" ewd:figID="11"><path style="fill:#CCECF4;stroke:#000000; stroke-width:1.133; stroke-linecap:round;stroke-linejoin:round; " d=" M  1266.29,   375.72  L  1266.29,   341.73  L  1249.29,   341.73  L  1249.29,   375.72  L  1266.29,   375.72 " /><title ewd:textID="36">Transfer L4 Position Switch (No. 1 Transfer Indicator Switch)</title></a><a ewd:figtype="conn" style="cursor:pointer;" ewd:code="I24" ewd:figID="12"><path style="fill:#CCECF4;stroke:#000000; stroke-width:1.133; stroke-linecap:round;stroke-linejoin:round; " d=" M   603.40,   579.69  L   620.40,   579.69  L   620.40,   554.19  L   603.40,   554.19  L   603.40,   579.69 " /><title ewd:textID="22">Diode (Transfer L4 Position Switch)</title></a><a ewd:figtype="conn" style="cursor:pointer;" ewd:code="A20" ewd:figID="13"><path style="fill:#CCECF4;stroke:#000000; stroke-width:1.133; stroke-linecap:round;stroke-linejoin:round; " d=" M  1818.70,   486.20  L  1852.69,   486.20  L  1852.69,   452.21  L  1818.70,   452.21  L  1818.70,   486.20 " /><title ewd:textID="19">Brake Actuator Assembly</title></a><a ewd:figtype="rb" style="cursor:pointer;" ewd:code="FUSE23" ewd:figID="14"><path style="fill:#CCECF4;stroke:#000000; stroke-width:0; stroke-linecap:round;stroke-linejoin:round; " d=" M   123.23,    35.78  L   123.23,    78.27  L   148.73,    78.27  L   148.73,    35.78  L   123.23,    35.78 " /></a><a ewd:figtype="conn" style="cursor:pointer;" ewd:code="L25" ewd:figID="15"><path style="fill:#CCECF4;stroke:#000000; stroke-width:1.133; stroke-linecap:round;stroke-linejoin:round; " d=" M  2702.55,   214.25  L  2702.55,   358.73  L  3008.50,   358.73  L  3008.50,   214.25  L  2702.55,   214.25 " /><title ewd:textID="21">Combination Meter Assembly</title></a><a ewd:figtype="rb" style="cursor:pointer;" ewd:code="FUSE18" ewd:figID="16"><path style="fill:#CCECF4;stroke:#000000; stroke-width:0; stroke-linecap:round;stroke-linejoin:round; " d=" M  2927.76,    35.78  L  2927.76,    78.27  L  2953.26,    78.27  L  2953.26,    35.78  L  2927.76,    35.78 " /></a><a ewd:figtype="rb" style="cursor:pointer;" ewd:code="1" ewd:figID="17"><path style="fill:#CCECF4;stroke:#000000; stroke-width:0; stroke-linecap:round;stroke-linejoin:round; " d=" M   305.95,   350.23  L   348.44,   350.23  L   348.44,   384.22  L   305.95,   384.22  L   305.95,   350.23 " /></a><a ewd:figtype="rb" style="cursor:pointer;" ewd:code="FUSE5" ewd:figID="18"><path style="fill:#CCECF4;stroke:#000000; stroke-width:0; stroke-linecap:round;stroke-linejoin:round; " d=" M  3055.24,    35.78  L  3055.24,    78.27  L  3080.74,    78.27  L  3080.74,    35.78  L  3055.24,    35.78 " /></a><a ewd:figtype="conn" style="cursor:pointer;" ewd:code="A43" ewd:figID="19"><path style="fill:#CCECF4;stroke:#000000; stroke-width:1.133; stroke-linecap:round;stroke-linejoin:round; " d=" M  1691.22,   418.22  L  1691.22,   435.21  L  1742.21,   435.21  L  1742.21,   418.22  L  1691.22,   418.22 " /><title ewd:textID="34">No. 34 Junction Connector</title></a><a ewd:figtype="conn" style="cursor:pointer;" ewd:code="A23" ewd:figID="20"><path style="fill:#CCECF4;stroke:#000000; stroke-width:1.133; stroke-linecap:round;stroke-linejoin:round; " d=" M  2226.63,   605.18  L  2277.62,   605.18  L  2277.62,   622.18  L  2226.63,   622.18  L  2226.63,   605.18 " /><title ewd:textID="26">No. 2 Junction Connector</title></a><a ewd:figtype="conn" style="cursor:pointer;" ewd:code="I72,I106,I118" ewd:figID="21"><path style="fill:#CCECF4;stroke:#000000; stroke-width:1.133; stroke-linecap:round;stroke-linejoin:round; " d=" M  2864.02,   120.77  L  2881.02,   120.77  L  2881.02,   137.76  L  2864.02,   137.76  L  2864.02,   120.77 " /><title ewd:textID="29">No. 9 Junction Connector , No. 36 Junction Connector , No. 21 Junction Connector</title></a><a ewd:figtype="fuse" style="cursor:pointer;" ewd:code="FUSE23" ewd:figID="98"><path style="&st7; stroke-width:0;" d=" M   123.23,    35.78  L   123.23,    78.27  L   148.73,    78.27  L   148.73,    35.78  L   123.23,    35.78 " /></a><a ewd:figtype="fuse" style="cursor:pointer;" ewd:code="FUSE18" ewd:figID="99"><path style="&st7; stroke-width:0;" d=" M  2927.76,    35.78  L  2927.76,    78.27  L  2953.26,    78.27  L  2953.26,    35.78  L  2927.76,    35.78 " /></a><a ewd:figtype="fuse" style="cursor:pointer;" ewd:code="FUSE5" ewd:figID="100"><path style="&st7; stroke-width:0;" d=" M  3055.24,    35.78  L  3055.24,    78.27  L  3080.74,    78.27  L  3080.74,    35.78  L  3055.24,    35.78 " /></a><a ewd:comment="10,27" style="cursor:pointer;" ewd:lineID="1"><path style="stroke:#999999;stroke-width: 5.10 ;&st6;" d=" M    76.49,   223.31  L    76.49,   231.25  L    67.99,   239.75  L    50.99,   239.75  L    50.99,   299.24  L   110.48,   299.24  L   135.98,   307.73  L   135.98,   310.00  " /></a><a ewd:comment="10,26" style="cursor:pointer;" ewd:lineID="2"><path style="stroke:#000000;stroke-width: 5.10 ;&st6;" d=" M   135.98,   309.72  L   135.98,   307.73  L   110.48,   282.24  L    76.49,   282.24  L    76.49,   223.31  " /><path style="stroke:#FFFFFF;stroke-width: 2.27 ;&st6;" d=" M   135.98,   309.72  L   135.98,   307.73  L   110.48,   282.24  L    76.49,   282.24  L    76.49,   223.31  " /><path style="stroke:#FFE600;stroke-width: 1.13 ;&st6;" d=" M   135.98,   309.72  L   135.98,   307.73  L   110.48,   282.24  L    76.49,   282.24  L    76.49,   223.31  " /></a><a ewd:comment="10,27" style="cursor:pointer;" ewd:lineID="3"><path style="stroke:#999999;stroke-width: 5.10 ;&st6;" d=" M   135.98,   310.00  L   135.98,   307.73  L   144.48,   299.24  L   169.97,   299.24  L   169.97,   222.75  L   152.97,   222.75  L   141.99,   211.77  " /></a><a ewd:comment="10,26" style="cursor:pointer;" ewd:lineID="4"><path style="stroke:#000000;stroke-width: 5.10 ;&st6;" d=" M   135.98,   214.25  L   135.98,   309.72  " /><path style="stroke:#FFFFFF;stroke-width: 2.27 ;&st6;" d=" M   135.98,   214.25  L   135.98,   309.72  " /><path style="stroke:#FFE600;stroke-width: 1.13 ;&st6;" d=" M   135.98,   214.25  L   135.98,   309.72  " /></a><a ewd:comment="10,26" style="cursor:pointer;" ewd:lineID="5"><path style="stroke:#000000;stroke-width: 5.10 ;&st6;" d=" M   135.98,   103.77  L   135.98,   112.27  L   127.48,   137.76  L    76.49,   137.76  L    76.49,   188.19  " /><path style="stroke:#FFFFFF;stroke-width: 2.27 ;&st6;" d=" M   135.98,   103.77  L   135.98,   112.27  L   127.48,   137.76  L    76.49,   137.76  L    76.49,   188.19  " /><path style="stroke:#FFE600;stroke-width: 1.13 ;&st6;" d=" M   135.98,   103.77  L   135.98,   112.27  L   127.48,   137.76  L    76.49,   137.76  L    76.49,   188.19  " /></a><a ewd:comment="10,27" style="cursor:pointer;" ewd:lineID="6"><path style="stroke:#999999;stroke-width: 5.10 ;&st6;" d=" M   135.98,   103.77  L   135.98,   112.27  L   118.98,   120.77  L    50.99,   120.77  L    50.99,   171.76  L    67.99,   171.76  L    76.49,   180.26  L    76.49,   188.19  " /></a><a ewd:comment="10,26" style="cursor:pointer;" ewd:lineID="7"><path style="stroke:#000000;stroke-width: 5.10 ;&st6;" d=" M   135.98,   103.77  L   135.98,   197.25  " /><path style="stroke:#FFFFFF;stroke-width: 2.27 ;&st6;" d=" M   135.98,   103.77  L   135.98,   197.25  " /><path style="stroke:#FFE600;stroke-width: 1.13 ;&st6;" d=" M   135.98,   103.77  L   135.98,   197.25  " /></a><a ewd:comment="10,27" style="cursor:pointer;" ewd:lineID="8"><path style="stroke:#999999;stroke-width: 5.10 ;&st6;" d=" M   135.98,   103.77  L   135.98,   112.27  L   144.48,   120.77  L   169.97,   120.77  L   169.97,   205.75  L   144.48,   205.75  " /></a><a ewd:comment="10" style="cursor:pointer;" ewd:lineID="9"><path style="stroke:#000000;stroke-width: 5.10 ;&st6;" d=" M   263.46,   681.67  L   263.46,   639.18  L   280.45,   639.18  L   291.44,   628.20  " /><path style="stroke:#FFFFFF;stroke-width: 4.53 ;&st6;" d=" M   263.46,   681.67  L   263.46,   639.18  L   280.45,   639.18  L   291.44,   628.20  " /><path style="stroke:#000000;stroke-width: 1.13 ;&st6;" d=" M   263.46,   681.67  L   263.46,   639.18  L   280.45,   639.18  L   291.44,   628.20  " /></a><a ewd:comment="10,26" style="cursor:pointer;" ewd:lineID="10"><path style="stroke:#000000;stroke-width: 5.10 ;&st6;" d=" M   263.46,   467.22  L   263.46,   536.63  " /><path style="stroke:#FFFFFF;stroke-width: 2.27 ;&st6;" d=" M   263.46,   467.22  L   263.46,   536.63  " /><path style="stroke:#FF7F00;stroke-width: 1.13 ;&st6;" d=" M   263.46,   467.22  L   263.46,   536.63  " /></a><a ewd:comment="10,27" style="cursor:pointer;" ewd:lineID="11"><path style="stroke:#008837;stroke-width: 5.10 ;&st6;" d=" M   263.46,   466.94  L   263.46,   469.21  L   254.96,   477.71  L   237.96,   477.71  L   237.96,   520.20  L   254.96,   520.20  L   263.46,   528.70  L   263.46,   536.63  " /></a><a ewd:comment="10" style="cursor:pointer;" ewd:lineID="12"><path style="stroke:#000000;stroke-width: 5.10 ;&st6;" d=" M   288.95,   622.18  L   263.46,   622.18  L   263.46,   588.75  " /><path style="stroke:#FFFFFF;stroke-width: 4.53 ;&st6;" d=" M   288.95,   622.18  L   263.46,   622.18  L   263.46,   588.75  " /><path style="stroke:#000000;stroke-width: 1.13 ;&st6;" d=" M   288.95,   622.18  L   263.46,   622.18  L   263.46,   588.75  " /></a><a ewd:comment="10" style="cursor:pointer;" ewd:lineID="13"><path style="stroke:#000000;stroke-width: 5.10 ;&st6;" d=" M   288.95,   316.23  L   288.95,   282.24  L   263.46,   282.24  L   263.46,   452.21  " /><path style="stroke:#FFFFFF;stroke-width: 2.27 ;&st6;" d=" M   288.95,   316.23  L   288.95,   282.24  L   263.46,   282.24  L   263.46,   452.21  " /><path style="stroke:#FF7F00;stroke-width: 1.13 ;&st6;" d=" M   288.95,   316.23  L   288.95,   282.24  L   263.46,   282.24  L   263.46,   452.21  " /></a><a ewd:comment="10" style="cursor:pointer;" ewd:lineID="14"><path style="stroke:#000000;stroke-width: 5.10 ;&st6;" d=" M   297.45,   681.67  L   297.45,   630.68  " /><path style="stroke:#FFFFFF;stroke-width: 4.53 ;&st6;" d=" M   297.45,   681.67  L   297.45,   630.68  " /><path style="stroke:#000000;stroke-width: 1.13 ;&st6;" d=" M   297.45,   681.67  L   297.45,   630.68  " /></a><a ewd:comment="10" style="cursor:pointer;" ewd:lineID="15"><path style="stroke:#000000;stroke-width: 5.10 ;&st6;" d=" M   297.45,   613.68  L   297.45,   588.75  " /><path style="stroke:#FFFFFF;stroke-width: 4.53 ;&st6;" d=" M   297.45,   613.68  L   297.45,   588.75  " /><path style="stroke:#000000;stroke-width: 1.13 ;&st6;" d=" M   297.45,   613.68  L   297.45,   588.75  " /></a><a ewd:comment="10,26" style="cursor:pointer;" ewd:lineID="16"><path style="stroke:#000000;stroke-width: 5.10 ;&st6;" d=" M   297.45,   536.63  L   297.45,   467.22  " /><path style="stroke:#FFFFFF;stroke-width: 1.13 ;&st6;" d=" M   297.45,   536.63  L   297.45,   467.22  "/></a><a ewd:comment="10,27" style="cursor:pointer;" ewd:lineID="17"> d=" M   297.45,   536.63  L   297.45,   528.70  L   305.95,   520.20  L   322.95,   520.20  L   322.95,   477.71  L   305.95,   477.71  L   297.45,   469.21  L   297.45,   467.22 
	
		<path style="stroke:#000000;stroke-width: 5.10 ;&st6;" d=" M   297.45,   536.63  L   297.45,   528.70  L   305.95,   520.20  L   322.95,   520.20  L   322.95,   477.71  L   305.95,   477.71  L   297.45,   469.21  L   297.45,   467.22  " /><path style="stroke:#FFFFFF;stroke-width: 4.53 ;&st6;" d=" M   297.45,   536.63  L   297.45,   528.70  L   305.95,   520.20  L   322.95,   520.20  L   322.95,   477.71  L   305.95,   477.71  L   297.45,   469.21  L   297.45,   467.22  " /></a><a ewd:comment="10" style="cursor:pointer;" ewd:lineID="18"><path style="stroke:#000000;stroke-width: 5.10 ;&st6;" d=" M   297.45,   426.71  L   297.45,   452.21  " /><path style="stroke:#FFFFFF;stroke-width: 1.13 ;&st6;" d=" M   297.45,   426.71  L   297.45,   452.21  " /></a><a ewd:comment="10" style="cursor:pointer;" ewd:lineID="19"><path style="stroke:#000000;stroke-width: 5.10 ;&st6;" d=" M   314.45,   316.23  L   314.45,   282.24  L   331.44,   282.24  " /><path style="stroke:#FFFFFF;stroke-width: 2.27 ;&st6;" d=" M   314.45,   316.23  L   314.45,   282.24  L   331.44,   282.24  " /><path style="stroke:#FFE600;stroke-width: 1.13 ;&st6;" d=" M   314.45,   316.23  L   314.45,   282.24  L   331.44,   282.24  " /></a><a ewd:comment="10" style="cursor:pointer;" ewd:lineID="20"><path style="stroke:#000000;stroke-width: 5.10 ;&st6;" d=" M   339.94,   290.74  L   339.94,   316.23  " /><path style="stroke:#FFFFFF;stroke-width: 2.27 ;&st6;" d=" M   339.94,   290.74  L   339.94,   316.23  " /><path style="stroke:#FFE600;stroke-width: 1.13 ;&st6;" d=" M   339.94,   290.74  L   339.94,   316.23  " /></a><a ewd:comment="10" style="cursor:pointer;" ewd:lineID="21"><path style="stroke:#000000;stroke-width: 5.10 ;&st6;" d=" M   339.94,   273.74  L   339.94,   256.74  L   229.46,   256.74  L   229.46,   367.22  L   135.98,   367.22  L   135.98,   333.23  " /><path style="stroke:#FFFFFF;stroke-width: 2.27 ;&st6;" d=" M   339.94,   273.74  L   339.94,   256.74  L   229.46,   256.74  L   229.46,   367.22  L   135.98,   367.22  L   135.98,   333.23  " /><path style="stroke:#FFE600;stroke-width: 1.13 ;&st6;" d=" M   339.94,   273.74  L   339.94,   256.74  L   229.46,   256.74  L   229.46,   367.22  L   135.98,   367.22  L   135.98,   333.23  " /></a><a ewd:comment="10,23,26" style="cursor:pointer;" ewd:lineID="22"><path style="stroke:#000000;stroke-width: 5.10 ;&st6;" d=" M   611.90,   450.23  L   611.90,   554.19  " /><path style="stroke:#FFFFFF;stroke-width: 2.27 ;&st6;" d=" M   611.90,   450.23  L   611.90,   554.19  " /><path style="stroke:#FFE600;stroke-width: 1.13 ;&st6;" d=" M   611.90,   450.23  L   611.90,   554.19  " /></a><a ewd:comment="10,23,27" style="cursor:pointer;" ewd:lineID="23"><path style="stroke:#F668B2;stroke-width: 5.10 ;&st6;" d=" M   611.90,   449.94  L   611.90,   452.21  L   603.40,   460.71  L   586.40,   460.71  L   586.40,   537.20  L   603.40,   537.20  L   611.90,   545.69  L   611.90,   554.19  " /></a><a ewd:comment="10,13" style="cursor:pointer;" ewd:lineID="24"><path style="stroke:#000000;stroke-width: 5.10 ;&st6;" d=" M   611.90,   426.71  L   611.90,   299.24  L   424.93,   299.24  L   416.43,   307.73  L   416.43,   316.23  " /><path style="stroke:#FFFFFF;stroke-width: 2.27 ;&st6;" d=" M   611.90,   426.71  L   611.90,   299.24  L   424.93,   299.24  L   416.43,   307.73  L   416.43,   316.23  " /><path style="stroke:#FFE600;stroke-width: 1.13 ;&st6;" d=" M   611.90,   426.71  L   611.90,   299.24  L   424.93,   299.24  L   416.43,   307.73  L   416.43,   316.23  " /></a><a ewd:comment="10,24" style="cursor:pointer;" ewd:lineID="25"><path style="stroke:#000000;stroke-width: 5.10 ;&st6;" d=" M   841.36,   418.22  L   841.36,   477.71  L   858.36,   477.71  L   875.35,   503.20  L   875.35,   511.70  " /><path style="stroke:#FFFFFF;stroke-width: 2.27 ;&st6;" d=" M   841.36,   418.22  L   841.36,   477.71  L   858.36,   477.71  L   875.35,   503.20  L   875.35,   511.70  " /><path style="stroke:#FFE600;stroke-width: 1.13 ;&st6;" d=" M   841.36,   418.22  L   841.36,   477.71  L   858.36,   477.71  L   875.35,   503.20  L   875.35,   511.70  " /></a><a ewd:comment="10,25" style="cursor:pointer;" ewd:lineID="26"><path style="stroke:#7FC97F;stroke-width: 5.10 ;&st6;" d=" M   841.36,   418.22  L   841.36,   426.71  L   832.86,   435.21  L   815.86,   435.21  L   815.86,   494.70  L   849.86,   494.70  L   875.35,   503.20  L   875.35,   511.70  " /></a><a ewd:comment="10" style="cursor:pointer;" ewd:lineID="27"><path style="stroke:#000000;stroke-width: 5.10 ;&st6;" d=" M   875.35,   681.67  L   875.35,   605.18  " /><path style="stroke:#FFFFFF;stroke-width: 4.53 ;&st6;" d=" M   875.35,   681.67  L   875.35,   605.18  " /><path style="stroke:#000000;stroke-width: 1.13 ;&st6;" d=" M   875.35,   681.67  L   875.35,   605.18  " /></a><a ewd:comment="10" style="cursor:pointer;" ewd:lineID="28"><path style="stroke:#000000;stroke-width: 5.10 ;&st6;" d=" M   875.35,   588.19  L   875.35,   545.69  " /><path style="stroke:#FFFFFF;stroke-width: 4.53 ;&st6;" d=" M   875.35,   588.19  L   875.35,   545.69  " /><path style="stroke:#000000;stroke-width: 1.13 ;&st6;" d=" M   875.35,   588.19  L   875.35,   545.69  " /></a><a ewd:comment="10,24" style="cursor:pointer;" ewd:lineID="29"><path style="stroke:#000000;stroke-width: 5.10 ;&st6;" d=" M   875.35,   416.23  L   875.35,   511.70  " /><path style="stroke:#FFFFFF;stroke-width: 2.27 ;&st6;" d=" M   875.35,   416.23  L   875.35,   511.70  " /><path style="stroke:#FFE600;stroke-width: 1.13 ;&st6;" d=" M   875.35,   416.23  L   875.35,   511.70  " /></a><a ewd:comment="10,25" style="cursor:pointer;" ewd:lineID="30"><path style="stroke:#7FC97F;stroke-width: 5.10 ;&st6;" d=" M   875.35,   415.95  L   875.35,   418.22  L   883.85,   426.71  L   900.85,   426.71  L   900.85,   494.70  L   883.85,   494.70  L   875.35,   503.20  L   875.35,   511.70  " /></a><a ewd:comment="10,26" style="cursor:pointer;" ewd:lineID="31"><path style="stroke:#000000;stroke-width: 5.10 ;&st6;" d=" M   875.35,   305.75  L   875.35,   307.73  L   866.86,   333.23  L   841.36,   333.23  L   841.36,   403.20  " /><path style="stroke:#FFFFFF;stroke-width: 2.27 ;&st6;" d=" M   875.35,   305.75  L   875.35,   307.73  L   866.86,   333.23  L   841.36,   333.23  L   841.36,   403.20  " /><path style="stroke:#FFE600;stroke-width: 1.13 ;&st6;" d=" M   875.35,   305.75  L   875.35,   307.73  L   866.86,   333.23  L   841.36,   333.23  L   841.36,   403.20  " /></a><a ewd:comment="10,27" style="cursor:pointer;" ewd:lineID="32"><path style="stroke:#7FC97F;stroke-width: 5.10 ;&st6;" d=" M   875.35,   305.47  L   875.35,   307.73  L   858.36,   316.23  L   815.86,   316.23  L   815.86,   392.72  L   832.86,   392.72  L   841.36,   401.22  L   841.36,   403.48  " /></a><a ewd:comment="10,26" style="cursor:pointer;" ewd:lineID="33"><path style="stroke:#000000;stroke-width: 5.10 ;&st6;" d=" M   875.35,   305.75  L   875.35,   401.22  " /><path style="stroke:#FFFFFF;stroke-width: 2.27 ;&st6;" d=" M   875.35,   305.75  L   875.35,   401.22  " /><path style="stroke:#FFE600;stroke-width: 1.13 ;&st6;" d=" M   875.35,   305.75  L   875.35,   401.22  " /></a><a ewd:comment="10,27" style="cursor:pointer;" ewd:lineID="34"><path style="stroke:#7FC97F;stroke-width: 5.10 ;&st6;" d=" M   875.35,   305.47  L   875.35,   307.73  L   883.85,   316.23  L   900.85,   316.23  L   900.85,   384.22  L   883.85,   384.22  L   875.35,   392.72  L   875.35,   401.22  " /></a><a ewd:comment="10" style="cursor:pointer;" ewd:lineID="35"><path style="stroke:#000000;stroke-width: 5.10 ;&st6;" d=" M   875.35,   290.74  L   875.35,   222.75  L   416.43,   222.75  L   416.43,   316.23  " /><path style="stroke:#FFFFFF;stroke-width: 2.27 ;&st6;" d=" M   875.35,   290.74  L   875.35,   222.75  L   416.43,   222.75  L   416.43,   316.23  " /><path style="stroke:#FFE600;stroke-width: 1.13 ;&st6;" d=" M   875.35,   290.74  L   875.35,   222.75  L   416.43,   222.75  L   416.43,   316.23  " /></a><a ewd:comment="9" style="cursor:pointer;" ewd:lineID="36"><path style="stroke:#000000;stroke-width: 5.10 ;&st6;" d=" M  1164.31,   681.67  L  1164.31,   409.72  L  1249.29,   409.72  L  1257.79,   401.22  L  1257.79,   393.85  " /><path style="stroke:#FFFFFF;stroke-width: 4.53 ;&st6;" d=" M  1164.31,   681.67  L  1164.31,   409.72  L  1249.29,   409.72  L  1257.79,   401.22  L  1257.79,   393.85  " /><path style="stroke:#000000;stroke-width: 1.13 ;&st6;" d=" M  1164.31,   681.67  L  1164.31,   409.72  L  1249.29,   409.72  L  1257.79,   401.22  L  1257.79,   393.85  " /></a><a ewd:comment="10" style="cursor:pointer;" ewd:lineID="37"><path style="stroke:#000000;stroke-width: 5.10 ;&st6;" d=" M  1206.80,   681.67  L  1206.80,   571.76  " /><path style="stroke:#FFFFFF;stroke-width: 4.53 ;&st6;" d=" M  1206.80,   681.67  L  1206.80,   571.76  " /><path style="stroke:#000000;stroke-width: 1.13 ;&st6;" d=" M  1206.80,   681.67  L  1206.80,   571.76  " /></a><a ewd:comment="10" style="cursor:pointer;" ewd:lineID="38"><path style="stroke:#000000;stroke-width: 5.10 ;&st6;" d=" M  1206.80,   536.63  L  1206.80,   494.70  L  1249.29,   494.70  L  1257.79,   486.20  L  1257.79,   477.71  " /><path style="stroke:#FFFFFF;stroke-width: 4.53 ;&st6;" d=" M  1206.80,   536.63  L  1206.80,   494.70  L  1249.29,   494.70  L  1257.79,   486.20  L  1257.79,   477.71  " /><path style="stroke:#000000;stroke-width: 1.13 ;&st6;" d=" M  1206.80,   536.63  L  1206.80,   494.70  L  1249.29,   494.70  L  1257.79,   486.20  L  1257.79,   477.71  " /></a><a ewd:comment="10" style="cursor:pointer;" ewd:lineID="39"><path style="stroke:#000000;stroke-width: 5.10 ;&st6;" d=" M  1257.79,   571.76  L  1257.79,   664.67  L  1215.30,   664.67  L  1206.80,   673.17  L  1206.80,   681.67  " /><path style="stroke:#FFFFFF;stroke-width: 4.53 ;&st6;" d=" M  1257.79,   571.76  L  1257.79,   664.67  L  1215.30,   664.67  L  1206.80,   673.17  L  1206.80,   681.67  " /><path style="stroke:#000000;stroke-width: 1.13 ;&st6;" d=" M  1257.79,   571.76  L  1257.79,   664.67  L  1215.30,   664.67  L  1206.80,   673.17  L  1206.80,   681.67  " /></a><a ewd:comment="10" style="cursor:pointer;" ewd:lineID="40"><path style="stroke:#000000;stroke-width: 5.10 ;&st6;" d=" M  1257.79,   477.71  L  1257.79,   536.63  " /><path style="stroke:#FFFFFF;stroke-width: 4.53 ;&st6;" d=" M  1257.79,   477.71  L  1257.79,   536.63  " /><path style="stroke:#000000;stroke-width: 1.13 ;&st6;" d=" M  1257.79,   477.71  L  1257.79,   536.63  " /></a><a ewd:comment="10" style="cursor:pointer;" ewd:lineID="41"><path style="stroke:#000000;stroke-width: 5.10 ;&st6;" d=" M  1257.79,   462.97  L  1257.79,   393.85  " /><path style="stroke:#FFFFFF;stroke-width: 4.53 ;&st6;" d=" M  1257.79,   462.97  L  1257.79,   393.85  " /><path style="stroke:#000000;stroke-width: 1.13 ;&st6;" d=" M  1257.79,   462.97  L  1257.79,   393.85  " /></a><a ewd:comment="9" style="cursor:pointer;" ewd:lineID="42"><path style="stroke:#000000;stroke-width: 5.10 ;&st6;" d=" M  1257.79,   323.60  L  1257.79,   316.23  L  1266.29,   307.73  L  1300.28,   307.73  L  1300.28,   282.24  " /><path style="stroke:#FFFFFF;stroke-width: 2.27 ;&st6;" d=" M  1257.79,   323.60  L  1257.79,   316.23  L  1266.29,   307.73  L  1300.28,   307.73  L  1300.28,   282.24  " /><path style="stroke:#FFE600;stroke-width: 1.13 ;&st6;" d=" M  1257.79,   323.60  L  1257.79,   316.23  L  1266.29,   307.73  L  1300.28,   307.73  L  1300.28,   282.24  " /></a><a ewd:comment="8,10" style="cursor:pointer;" ewd:lineID="43"><path style="stroke:#000000;stroke-width: 5.10 ;&st6;" d=" M  1257.79,   254.76  L  1257.79,   323.60  " /><path style="stroke:#FFFFFF;stroke-width: 2.27 ;&st6;" d=" M  1257.79,   254.76  L  1257.79,   323.60  " /><path style="stroke:#FFE600;stroke-width: 1.13 ;&st6;" d=" M  1257.79,   254.76  L  1257.79,   323.60  " /></a><a ewd:comment="10,14" style="cursor:pointer;" ewd:lineID="44"><path style="stroke:#000000;stroke-width: 5.10 ;&st6;" d=" M  1257.79,   222.75  L  1257.79,   214.25  L  1223.80,   197.25  L   390.93,   197.25  L   390.93,   299.24  L   407.93,   299.24  L   416.43,   307.73  L   416.43,   316.23  " /><path style="stroke:#FFFFFF;stroke-width: 2.27 ;&st6;" d=" M  1257.79,   222.75  L  1257.79,   214.25  L  1223.80,   197.25  L   390.93,   197.25  L   390.93,   299.24  L   407.93,   299.24  L   416.43,   307.73  L   416.43,   316.23  " /><path style="stroke:#FFE600;stroke-width: 1.13 ;&st6;" d=" M  1257.79,   222.75  L  1257.79,   214.25  L  1223.80,   197.25  L   390.93,   197.25  L   390.93,   299.24  L   407.93,   299.24  L   416.43,   307.73  L   416.43,   316.23  " /></a><a ewd:comment="8,15,26" style="cursor:pointer;" ewd:lineID="45"><path style="stroke:#000000;stroke-width: 5.10 ;&st6;" d=" M  1257.79,   222.75  L  1257.79,   214.25  L  1291.78,   163.26  L  1733.71,   163.26  L  1733.71,   335.21  " /><path style="stroke:#FFFFFF;stroke-width: 2.27 ;&st6;" d=" M  1257.79,   222.75  L  1257.79,   214.25  L  1291.78,   163.26  L  1733.71,   163.26  L  1733.71,   335.21  " /><path style="stroke:#FFE600;stroke-width: 1.13 ;&st6;" d=" M  1257.79,   222.75  L  1257.79,   214.25  L  1291.78,   163.26  L  1733.71,   163.26  L  1733.71,   335.21  " /></a><a ewd:comment="8" style="cursor:pointer;" ewd:lineID="46"><path style="stroke:#000000;stroke-width: 5.10 ;&st6;" d=" M  1300.28,   681.67  L  1300.28,   409.72  L  1266.29,   409.72  L  1257.79,   401.22  L  1257.79,   393.85  " /><path style="stroke:#FFFFFF;stroke-width: 4.53 ;&st6;" d=" M  1300.28,   681.67  L  1300.28,   409.72  L  1266.29,   409.72  L  1257.79,   401.22  L  1257.79,   393.85  " /><path style="stroke:#000000;stroke-width: 1.13 ;&st6;" d=" M  1300.28,   681.67  L  1300.28,   409.72  L  1266.29,   409.72  L  1257.79,   401.22  L  1257.79,   393.85  " /></a><a ewd:comment="9,15" style="cursor:pointer;" ewd:lineID="47"><path style="stroke:#000000;stroke-width: 5.10 ;&st6;" d=" M  1300.28,   267.22  L  1300.28,   265.24  L  1317.28,   239.75  L  1699.72,   239.75  L  1699.72,   418.22  " /><path style="stroke:#FFFFFF;stroke-width: 2.27 ;&st6;" d=" M  1300.28,   267.22  L  1300.28,   265.24  L  1317.28,   239.75  L  1699.72,   239.75  L  1699.72,   418.22  " /><path style="stroke:#FFE600;stroke-width: 1.13 ;&st6;" d=" M  1300.28,   267.22  L  1300.28,   265.24  L  1317.28,   239.75  L  1699.72,   239.75  L  1699.72,   418.22  " /></a><a ewd:comment="9,16" style="cursor:pointer;" ewd:lineID="48"><path style="stroke:#000000;stroke-width: 5.10 ;&st6;" d=" M  1300.28,   267.22  L  1300.28,   222.75  L  1793.20,   222.75  L  1793.20,   435.21  L  1827.19,   435.21  L  1835.69,   443.71  L  1835.69,   452.21  " /><path style="stroke:#FFFFFF;stroke-width: 2.27 ;&st6;" d=" M  1300.28,   267.22  L  1300.28,   222.75  L  1793.20,   222.75  L  1793.20,   435.21  L  1827.19,   435.21  L  1835.69,   443.71  L  1835.69,   452.21  " /><path style="stroke:#FFE600;stroke-width: 1.13 ;&st6;" d=" M  1300.28,   267.22  L  1300.28,   222.75  L  1793.20,   222.75  L  1793.20,   435.21  L  1827.19,   435.21  L  1835.69,   443.71  L  1835.69,   452.21  " /></a><a ewd:comment="9,15" style="cursor:pointer;" ewd:lineID="49"><path style="stroke:#000000;stroke-width: 5.10 ;&st6;" d=" M  1631.73,   350.23  L  1606.23,   350.23  L  1606.23,   527.56  " /><path style="stroke:#FFFFFF;stroke-width: 2.27 ;&st6;" d=" M  1631.73,   350.23  L  1606.23,   350.23  L  1606.23,   527.56  " /><path style="stroke:#FFE600;stroke-width: 1.13 ;&st6;" d=" M  1631.73,   350.23  L  1606.23,   350.23  L  1606.23,   527.56  " /></a><a ewd:comment="9,15" style="cursor:pointer;" ewd:lineID="50"><path style="stroke:#000000;stroke-width: 5.10 ;&st6;" d=" M  1640.23,   358.73  L  1640.23,   527.56  " /><path style="stroke:#FFFFFF;stroke-width: 2.27 ;&st6;" d=" M  1640.23,   358.73  L  1640.23,   527.56  " /><path style="stroke:#FFE600;stroke-width: 1.13 ;&st6;" d=" M  1640.23,   358.73  L  1640.23,   527.56  " /></a><a ewd:comment="9,15" style="cursor:pointer;" ewd:lineID="51"><path style="stroke:#000000;stroke-width: 5.10 ;&st6;" d=" M  1640.23,   341.73  L  1640.23,   256.74  L  1325.78,   256.74  L  1300.28,   265.24  L  1300.28,   267.22  " /><path style="stroke:#FFFFFF;stroke-width: 2.27 ;&st6;" d=" M  1640.23,   341.73  L  1640.23,   256.74  L  1325.78,   256.74  L  1300.28,   265.24  L  1300.28,   267.22  " /><path style="stroke:#FFE600;stroke-width: 1.13 ;&st6;" d=" M  1640.23,   341.73  L  1640.23,   256.74  L  1325.78,   256.74  L  1300.28,   265.24  L  1300.28,   267.22  " /></a><a ewd:comment="15" style="cursor:pointer;" ewd:lineID="52"><path style="stroke:#000000;stroke-width: 5.10 ;&st6;" d=" M  1699.72,   435.21  L  1699.72,   486.20  L  1623.23,   486.20  L  1623.23,   503.20  L  1606.23,   520.20  L  1606.23,   527.56  " /><path style="stroke:#FFFFFF;stroke-width: 2.27 ;&st6;" d=" M  1699.72,   435.21  L  1699.72,   486.20  L  1623.23,   486.20  L  1623.23,   503.20  L  1606.23,   520.20  L  1606.23,   527.56  " /><path style="stroke:#FFE600;stroke-width: 1.13 ;&st6;" d=" M  1699.72,   435.21  L  1699.72,   486.20  L  1623.23,   486.20  L  1623.23,   503.20  L  1606.23,   520.20  L  1606.23,   527.56  " /></a><a ewd:comment="15" style="cursor:pointer;" ewd:lineID="53"><path style="stroke:#000000;stroke-width: 5.10 ;&st6;" d=" M  1733.71,   435.21  L  1733.71,   511.70  L  1648.72,   511.70  L  1640.23,   520.20  L  1640.23,   527.56  " /><path style="stroke:#FFFFFF;stroke-width: 2.27 ;&st6;" d=" M  1733.71,   435.21  L  1733.71,   511.70  L  1648.72,   511.70  L  1640.23,   520.20  L  1640.23,   527.56  " /><path style="stroke:#FFE600;stroke-width: 1.13 ;&st6;" d=" M  1733.71,   435.21  L  1733.71,   511.70  L  1648.72,   511.70  L  1640.23,   520.20  L  1640.23,   527.56  " /></a><a ewd:comment="8,15" style="cursor:pointer;" ewd:lineID="54"><path style="stroke:#000000;stroke-width: 5.10 ;&st6;" d=" M  1733.71,   350.23  L  1733.71,   418.22  " /><path style="stroke:#FFFFFF;stroke-width: 2.27 ;&st6;" d=" M  1733.71,   350.23  L  1733.71,   418.22  " /><path style="stroke:#FFE600;stroke-width: 1.13 ;&st6;" d=" M  1733.71,   350.23  L  1733.71,   418.22  " /></a><a ewd:comment="8,15,27" style="cursor:pointer;" ewd:lineID="55"><path style="stroke:#7FC97F;stroke-width: 5.10 ;&st6;" d=" M  1733.71,   335.50  L  1733.71,   333.23  L  1716.71,   316.23  L  1716.71,   197.25  L  1300.28,   197.25  L  1257.79,   214.25  L  1257.79,   222.75  " /></a><a ewd:comment="27" style="cursor:pointer;" ewd:lineID="56"><path style="stroke:#F668B2;stroke-width: 5.10 ;&st6;" d=" M  1835.69,   545.69  L  1835.69,   554.19  L  1818.70,   571.19  L  1818.70,   596.69  L  2150.14,   596.69  L  2150.14,    69.77  L  2320.11,    69.77  L  2320.11,    95.27  L  2337.11,   112.27  L  2337.11,   119.63  " /></a><a style="cursor:pointer;" ewd:lineID="57"><path style="stroke:#FF0000;stroke-width: 5.10 ;&st6;" d=" M  1835.69,   486.20  L  1835.69,   522.18  " /><path style="stroke:#FFFFFF;stroke-width: 2.27 ;&st6;" d=" M  1835.69,   486.20  L  1835.69,   522.18  " /><path style="stroke:#FFE600;stroke-width: 1.13 ;&st6;" d=" M  1835.69,   486.20  L  1835.69,   522.18  " /></a><a ewd:comment="8,13" style="cursor:pointer;" ewd:lineID="58"><path style="stroke:#000000;stroke-width: 5.10 ;&st6;" d=" M  1835.69,   452.21  L  1835.69,   443.71  L  1852.69,   418.22  L  1878.19,   418.22  L  1878.19,   129.26  L  1257.79,   129.26  L  1257.79,   222.75  " /><path style="stroke:#FFFFFF;stroke-width: 2.27 ;&st6;" d=" M  1835.69,   452.21  L  1835.69,   443.71  L  1852.69,   418.22  L  1878.19,   418.22  L  1878.19,   129.26  L  1257.79,   129.26  L  1257.79,   222.75  " /><path style="stroke:#FFE600;stroke-width: 1.13 ;&st6;" d=" M  1835.69,   452.21  L  1835.69,   443.71  L  1852.69,   418.22  L  1878.19,   418.22  L  1878.19,   129.26  L  1257.79,   129.26  L  1257.79,   222.75  " /></a><a ewd:comment="8,13" style="cursor:pointer;" ewd:lineID="59"><path style="stroke:#000000;stroke-width: 5.10 ;&st6;" d=" M  1835.69,   350.23  L  1835.69,   452.21  " /><path style="stroke:#FFFFFF;stroke-width: 2.27 ;&st6;" d=" M  1835.69,   350.23  L  1835.69,   452.21  " /><path style="stroke:#FFE600;stroke-width: 1.13 ;&st6;" d=" M  1835.69,   350.23  L  1835.69,   452.21  " /></a><a ewd:comment="8,13,26" style="cursor:pointer;" ewd:lineID="60"><path style="stroke:#000000;stroke-width: 5.10 ;&st6;" d=" M  1835.69,   335.21  L  1835.69,   146.26  L  1274.79,   146.26  L  1257.79,   214.25  L  1257.79,   222.75  " /><path style="stroke:#FFFFFF;stroke-width: 2.27 ;&st6;" d=" M  1835.69,   335.21  L  1835.69,   146.26  L  1274.79,   146.26  L  1257.79,   214.25  L  1257.79,   222.75  " /><path style="stroke:#FFE600;stroke-width: 1.13 ;&st6;" d=" M  1835.69,   335.21  L  1835.69,   146.26  L  1274.79,   146.26  L  1257.79,   214.25  L  1257.79,   222.75  " /></a><a ewd:comment="8,13,27" style="cursor:pointer;" ewd:lineID="61"><path style="stroke:#7FC97F;stroke-width: 5.10 ;&st6;" d=" M  1835.69,   335.50  L  1835.69,   333.23  L  1818.70,   316.23  L  1818.70,   180.26  L  1300.28,   180.26  L  1257.79,   214.25  L  1257.79,   222.75  " /></a><a ewd:comment="10,13" style="cursor:pointer;" ewd:lineID="62"><path style="stroke:#000000;stroke-width: 5.10 ;&st6;" d=" M  1903.68,   112.27  L  1240.79,   112.27  L  1240.79,   188.75  L  1257.79,   214.25  L  1257.79,   222.75  " /><path style="stroke:#FFFFFF;stroke-width: 2.27 ;&st6;" d=" M  1903.68,   112.27  L  1240.79,   112.27  L  1240.79,   188.75  L  1257.79,   214.25  L  1257.79,   222.75  " /><path style="stroke:#FFE600;stroke-width: 1.13 ;&st6;" d=" M  1903.68,   112.27  L  1240.79,   112.27  L  1240.79,   188.75  L  1257.79,   214.25  L  1257.79,   222.75  " /></a><a ewd:comment="10,13" style="cursor:pointer;" ewd:lineID="63"><path style="stroke:#000000;stroke-width: 5.10 ;&st6;" d=" M  1912.18,   120.77  L  1912.18,   435.21  L  1861.19,   435.21  L  1835.69,   443.71  L  1835.69,   452.21  " /><path style="stroke:#FFFFFF;stroke-width: 2.27 ;&st6;" d=" M  1912.18,   120.77  L  1912.18,   435.21  L  1861.19,   435.21  L  1835.69,   443.71  L  1835.69,   452.21  " /><path style="stroke:#FFE600;stroke-width: 1.13 ;&st6;" d=" M  1912.18,   120.77  L  1912.18,   435.21  L  1861.19,   435.21  L  1835.69,   443.71  L  1835.69,   452.21  " /></a><a ewd:comment="10,13" style="cursor:pointer;" ewd:lineID="64"><path style="stroke:#000000;stroke-width: 5.10 ;&st6;" d=" M  1920.68,   112.27  L  1971.67,   112.27  L  1971.67,   222.75  " /><path style="stroke:#FFFFFF;stroke-width: 2.27 ;&st6;" d=" M  1920.68,   112.27  L  1971.67,   112.27  L  1971.67,   222.75  " /><path style="stroke:#FFE600;stroke-width: 1.13 ;&st6;" d=" M  1920.68,   112.27  L  1971.67,   112.27  L  1971.67,   222.75  " /></a><a ewd:comment="10,23,26" style="cursor:pointer;" ewd:lineID="65"><path style="stroke:#000000;stroke-width: 5.10 ;&st6;" d=" M  1971.67,   246.26  L  1971.67,   647.68  L   594.90,   647.68  L   594.90,   605.18  L   611.90,   588.19  L   611.90,   579.69  " /><path style="stroke:#FFFFFF;stroke-width: 2.27 ;&st6;" d=" M  1971.67,   246.26  L  1971.67,   647.68  L   594.90,   647.68  L   594.90,   605.18  L   611.90,   588.19  L   611.90,   579.69  " /><path style="stroke:#FFE600;stroke-width: 1.13 ;&st6;" d=" M  1971.67,   246.26  L  1971.67,   647.68  L   594.90,   647.68  L   594.90,   605.18  L   611.90,   588.19  L   611.90,   579.69  " /></a><a ewd:comment="10,23,27" style="cursor:pointer;" ewd:lineID="66"><path style="stroke:#7FC97F;stroke-width: 5.10 ;&st6;" d=" M  1971.67,   245.98  L  1971.67,   248.24  L  1963.17,   256.74  L  1946.17,   256.74  L  1946.17,   622.18  L   611.90,   622.18  L   611.90,   579.69  " /></a><a ewd:comment="3" style="cursor:pointer;" ewd:lineID="67"><path style="stroke:#000000;stroke-width: 5.10 ;&st6;" d=" M  2184.14,   681.67  L  2184.14,   622.18  " /><path style="stroke:#FFFFFF;stroke-width: 4.53 ;&st6;" d=" M  2184.14,   681.67  L  2184.14,   622.18  " /><path style="stroke:#000000;stroke-width: 1.13 ;&st6;" d=" M  2184.14,   681.67  L  2184.14,   622.18  " /></a><a ewd:comment="3" style="cursor:pointer;" ewd:lineID="68"><path style="stroke:#000000;stroke-width: 5.10 ;&st6;" d=" M  2184.14,   605.18  L  2184.14,   520.20  " /><path style="stroke:#FFFFFF;stroke-width: 4.53 ;&st6;" d=" M  2184.14,   605.18  L  2184.14,   520.20  " /><path style="stroke:#000000;stroke-width: 1.13 ;&st6;" d=" M  2184.14,   605.18  L  2184.14,   520.20  " /></a><a ewd:comment="5" style="cursor:pointer;" ewd:lineID="69"><path style="stroke:#000000;stroke-width: 5.10 ;&st6;" d=" M  2235.13,   520.20  L  2235.13,   596.12  " /><path style="stroke:#FFFFFF;stroke-width: 4.53 ;&st6;" d=" M  2235.13,   520.20  L  2235.13,   596.12  " /><path style="stroke:#000000;stroke-width: 1.13 ;&st6;" d=" M  2235.13,   520.20  L  2235.13,   596.12  " /></a><a ewd:comment="17" style="cursor:pointer;" ewd:lineID="70"><path style="stroke:#000000;stroke-width: 5.10 ;&st6;" d=" M  2269.12,   596.12  L  2269.12,   554.19  L  2303.12,   554.19  L  2311.61,   545.69  L  2311.61,   543.43  " /><path style="stroke:#FFFFFF;stroke-width: 4.53 ;&st6;" d=" M  2269.12,   596.12  L  2269.12,   554.19  L  2303.12,   554.19  L  2311.61,   545.69  L  2311.61,   543.43  " /><path style="stroke:#000000;stroke-width: 1.13 ;&st6;" d=" M  2269.12,   596.12  L  2269.12,   554.19  L  2303.12,   554.19  L  2311.61,   545.69  L  2311.61,   543.43  " /></a><a ewd:comment="5,17" style="cursor:pointer;" ewd:lineID="71"><path style="stroke:#000000;stroke-width: 5.10 ;&st6;" d=" M  2311.61,   681.67  L  2311.61,   673.17  L  2303.12,   664.67  L  2235.13,   664.67  L  2235.13,   631.25  " /><path style="stroke:#FFFFFF;stroke-width: 4.53 ;&st6;" d=" M  2311.61,   681.67  L  2311.61,   673.17  L  2303.12,   664.67  L  2235.13,   664.67  L  2235.13,   631.25  " /><path style="stroke:#000000;stroke-width: 1.13 ;&st6;" d=" M  2311.61,   681.67  L  2311.61,   673.17  L  2303.12,   664.67  L  2235.13,   664.67  L  2235.13,   631.25  " /></a><a ewd:comment="9" style="cursor:pointer;" ewd:lineID="72"><path style="stroke:#000000;stroke-width: 5.10 ;&st6;" d=" M  2311.61,   681.67  L  2311.61,   631.25  " /><path style="stroke:#FFFFFF;stroke-width: 4.53 ;&st6;" d=" M  2311.61,   681.67  L  2311.61,   631.25  " /><path style="stroke:#000000;stroke-width: 1.13 ;&st6;" d=" M  2311.61,   681.67  L  2311.61,   631.25  " /></a><a ewd:comment="9" style="cursor:pointer;" ewd:lineID="73"><path style="stroke:#000000;stroke-width: 5.10 ;&st6;" d=" M  2311.61,   543.43  L  2311.61,   596.12  " /><path style="stroke:#FFFFFF;stroke-width: 4.53 ;&st6;" d=" M  2311.61,   543.43  L  2311.61,   596.12  " /><path style="stroke:#000000;stroke-width: 1.13 ;&st6;" d=" M  2311.61,   543.43  L  2311.61,   596.12  " /></a><a ewd:comment="9" style="cursor:pointer;" ewd:lineID="74"><path style="stroke:#000000;stroke-width: 5.10 ;&st6;" d=" M  2311.61,   528.70  L  2311.61,   494.70  " /><path style="stroke:#FFFFFF;stroke-width: 4.53 ;&st6;" d=" M  2311.61,   528.70  L  2311.61,   494.70  " /><path style="stroke:#000000;stroke-width: 1.13 ;&st6;" d=" M  2311.61,   528.70  L  2311.61,   494.70  " /></a><a ewd:comment="3" style="cursor:pointer;" ewd:lineID="75"><path style="stroke:#000000;stroke-width: 5.10 ;&st6;" d=" M  2311.61,   436.35  L  2311.61,   443.71  L  2286.12,   452.21  L  2184.14,   452.21  L  2184.14,   505.47  " /><path style="stroke:#FFFFFF;stroke-width: 4.53 ;&st6;" d=" M  2311.61,   436.35  L  2311.61,   443.71  L  2286.12,   452.21  L  2184.14,   452.21  L  2184.14,   505.47  " /><path style="stroke:#000000;stroke-width: 1.13 ;&st6;" d=" M  2311.61,   436.35  L  2311.61,   443.71  L  2286.12,   452.21  L  2184.14,   452.21  L  2184.14,   505.47  " /></a><a ewd:comment="5" style="cursor:pointer;" ewd:lineID="76"><path style="stroke:#000000;stroke-width: 5.10 ;&st6;" d=" M  2311.61,   436.35  L  2311.61,   443.71  L  2286.12,   469.21  L  2235.13,   469.21  L  2235.13,   505.47  " /><path style="stroke:#FFFFFF;stroke-width: 4.53 ;&st6;" d=" M  2311.61,   436.35  L  2311.61,   443.71  L  2286.12,   469.21  L  2235.13,   469.21  L  2235.13,   505.47  " /><path style="stroke:#000000;stroke-width: 1.13 ;&st6;" d=" M  2311.61,   436.35  L  2311.61,   443.71  L  2286.12,   469.21  L  2235.13,   469.21  L  2235.13,   505.47  " /></a><a ewd:comment="9" style="cursor:pointer;" ewd:lineID="77"><path style="stroke:#000000;stroke-width: 5.10 ;&st6;" d=" M  2311.61,   436.35  L  2311.61,   477.71  " /><path style="stroke:#FFFFFF;stroke-width: 4.53 ;&st6;" d=" M  2311.61,   436.35  L  2311.61,   477.71  " /><path style="stroke:#000000;stroke-width: 1.13 ;&st6;" d=" M  2311.61,   436.35  L  2311.61,   477.71  " /></a><a ewd:comment="3" style="cursor:pointer;" ewd:lineID="78"><path style="stroke:#000000;stroke-width: 5.10 ;&st6;" d=" M  2311.61,   296.97  L  2311.61,   349.09  " /></a><a ewd:comment="3,27" style="cursor:pointer;" ewd:lineID="79"><path style="stroke:#00A0C6;stroke-width: 5.10 ;&st6;" d=" M  2311.61,   282.24  L  2311.61,   273.74  L  2303.12,   265.24  L  2286.12,   265.24  L  2286.12,   188.75  L  2337.11,   188.75  L  2388.10,   180.26  L  2388.10,   172.89  " /></a><a ewd:comment="26" style="cursor:pointer;" ewd:lineID="80"><path style="stroke:#FF0000;stroke-width: 5.10 ;&st6;" d=" M  2337.11,   119.63  L  2337.11,    52.78  L  2124.65,    52.78  L  2124.65,   579.69  L  1835.69,   579.69  L  1835.69,   545.69  " /><path style="stroke:#FFFFFF;stroke-width: 2.27 ;&st6;" d=" M  2337.11,   119.63  L  2337.11,    52.78  L  2124.65,    52.78  L  2124.65,   579.69  L  1835.69,   579.69  L  1835.69,   545.69  " /><path style="stroke:#FFE600;stroke-width: 1.13 ;&st6;" d=" M  2337.11,   119.63  L  2337.11,    52.78  L  2124.65,    52.78  L  2124.65,   579.69  L  1835.69,   579.69  L  1835.69,   545.69  " /></a><a ewd:comment="6" style="cursor:pointer;" ewd:lineID="81"><path style="stroke:#000000;stroke-width: 5.10 ;&st6;" d=" M  2371.10,   681.67  L  2371.10,   452.21  L  2320.11,   452.21  L  2311.61,   443.71  L  2311.61,   436.35  " /><path style="stroke:#FFFFFF;stroke-width: 4.53 ;&st6;" d=" M  2371.10,   681.67  L  2371.10,   452.21  L  2320.11,   452.21  L  2311.61,   443.71  L  2311.61,   436.35  " /><path style="stroke:#000000;stroke-width: 1.13 ;&st6;" d=" M  2371.10,   681.67  L  2371.10,   452.21  L  2320.11,   452.21  L  2311.61,   443.71  L  2311.61,   436.35  " /></a><a ewd:comment="4" style="cursor:pointer;" ewd:lineID="82"><path style="stroke:#000000;stroke-width: 5.10 ;&st6;" d=" M  2388.10,   330.96  L  2388.10,   350.23  L  2371.10,   350.23  L  2371.10,   324.73  L  2328.61,   324.73  L  2311.61,   341.73  L  2311.61,   349.09  " /></a><a ewd:comment="4" style="cursor:pointer;" ewd:lineID="83"><path style="stroke:#000000;stroke-width: 5.10 ;&st6;" d=" M  2388.10,   307.73  L  2388.10,   273.74  " /><path style="stroke:#FFFFFF;stroke-width: 2.27 ;&st6;" d=" M  2388.10,   307.73  L  2388.10,   273.74  " /><path style="stroke:#00A0C6;stroke-width: 1.13 ;&st6;" d=" M  2388.10,   307.73  L  2388.10,   273.74  " /></a><a ewd:comment="4,27" style="cursor:pointer;" ewd:lineID="84"><path style="stroke:#00A0C6;stroke-width: 5.10 ;&st6;" d=" M  2388.10,   250.51  L  2388.10,   248.24  L  2396.60,   239.75  L  2413.60,   239.75  L  2413.60,   205.75  L  2388.10,   180.26  L  2388.10,   172.89  " /></a><a ewd:comment="3,26" style="cursor:pointer;" ewd:lineID="85"><path style="stroke:#000000;stroke-width: 5.10 ;&st6;" d=" M  2388.10,   172.89  L  2388.10,   180.26  L  2345.61,   205.75  L  2311.61,   205.75  L  2311.61,   282.24  " /><path style="stroke:#FFFFFF;stroke-width: 2.27 ;&st6;" d=" M  2388.10,   172.89  L  2388.10,   180.26  L  2345.61,   205.75  L  2311.61,   205.75  L  2311.61,   282.24  " /><path style="stroke:#00A0C6;stroke-width: 1.13 ;&st6;" d=" M  2388.10,   172.89  L  2388.10,   180.26  L  2345.61,   205.75  L  2311.61,   205.75  L  2311.61,   282.24  " /></a><a ewd:comment="4,26" style="cursor:pointer;" ewd:lineID="86"><path style="stroke:#000000;stroke-width: 5.10 ;&st6;" d=" M  2388.10,   172.89  L  2388.10,   250.23  " /><path style="stroke:#FFFFFF;stroke-width: 2.27 ;&st6;" d=" M  2388.10,   172.89  L  2388.10,   250.23  " /><path style="stroke:#00A0C6;stroke-width: 1.13 ;&st6;" d=" M  2388.10,   172.89  L  2388.10,   250.23  " /></a><a ewd:comment="9,26" style="cursor:pointer;" ewd:lineID="87"><path style="stroke:#000000;stroke-width: 5.10 ;&st6;" d=" M  2388.10,   172.89  L  2388.10,   180.26  L  2447.59,   205.75  L  2490.08,   205.75  L  2490.08,   267.22  " /><path style="stroke:#FFFFFF;stroke-width: 2.27 ;&st6;" d=" M  2388.10,   172.89  L  2388.10,   180.26  L  2447.59,   205.75  L  2490.08,   205.75  L  2490.08,   267.22  " /><path style="stroke:#00A0C6;stroke-width: 1.13 ;&st6;" d=" M  2388.10,   172.89  L  2388.10,   180.26  L  2447.59,   205.75  L  2490.08,   205.75  L  2490.08,   267.22  " /></a><a ewd:comment="26" style="cursor:pointer;" ewd:lineID="88"><path style="stroke:#000000;stroke-width: 5.10 ;&st6;" d=" M  2388.10,   119.63  L  2388.10,    52.78  " /><path style="stroke:#FFFFFF;stroke-width: 2.27 ;&st6;" d=" M  2388.10,   119.63  L  2388.10,    52.78  " /><path style="stroke:#00A0C6;stroke-width: 1.13 ;&st6;" d=" M  2388.10,   119.63  L  2388.10,    52.78  " /></a><a ewd:comment="27" style="cursor:pointer;" ewd:lineID="89"><path style="stroke:#00A0C6;stroke-width: 5.10 ;&st6;" d=" M  2388.10,    52.78  L  2388.10,    61.28  L  2396.60,    69.77  L  2413.60,    69.77  L  2413.60,   103.77  L  2396.60,   103.77  L  2388.10,   112.27  L  2388.10,   119.63  " /></a><a ewd:comment="26" style="cursor:pointer;" ewd:lineID="90"><path style="stroke:#000000;stroke-width: 5.10 ;&st6;" d=" M  2447.59,   119.63  L  2447.59,    44.28  L  2668.55,    44.28  L  2668.55,   477.71  L  2719.55,   477.71  L  2719.55,   469.21  L  2736.54,   452.21  L  2736.54,   443.71  " /><path style="stroke:#FFFFFF;stroke-width: 2.27 ;&st6;" d=" M  2447.59,   119.63  L  2447.59,    44.28  L  2668.55,    44.28  L  2668.55,   477.71  L  2719.55,   477.71  L  2719.55,   469.21  L  2736.54,   452.21  L  2736.54,   443.71  " /><path style="stroke:#00A0C6;stroke-width: 1.13 ;&st6;" d=" M  2447.59,   119.63  L  2447.59,    44.28  L  2668.55,    44.28  L  2668.55,   477.71  L  2719.55,   477.71  L  2719.55,   469.21  L  2736.54,   452.21  L  2736.54,   443.71  " /></a><a ewd:comment="27" style="cursor:pointer;" ewd:lineID="91"><path style="stroke:#00A0C6;stroke-width: 5.10 ;&st6;" d=" M  2447.59,   119.63  L  2447.59,   112.27  L  2464.59,    95.27  L  2464.59,    61.28  L  2643.06,    61.28  L  2643.06,   494.70  L  2736.54,   494.70  L  2736.54,   443.71  " /></a><a ewd:comment="9" style="cursor:pointer;" ewd:lineID="92"><path style="stroke:#000000;stroke-width: 5.10 ;&st6;" d=" M  2490.08,   341.73  L  2490.08,   367.22  L  2354.11,   367.22  L  2354.11,   333.23  L  2337.11,   333.23  L  2311.61,   341.73  L  2311.61,   349.09  " /></a><a ewd:comment="9" style="cursor:pointer;" ewd:lineID="93"><path style="stroke:#000000;stroke-width: 5.10 ;&st6;" d=" M  2490.08,   290.74  L  2490.08,   326.71  " /><path style="stroke:#FFFFFF;stroke-width: 2.27 ;&st6;" d=" M  2490.08,   290.74  L  2490.08,   326.71  " /><path style="stroke:#00A0C6;stroke-width: 1.13 ;&st6;" d=" M  2490.08,   290.74  L  2490.08,   326.71  " /></a><a ewd:comment="9,27" style="cursor:pointer;" ewd:lineID="94"><path style="stroke:#00A0C6;stroke-width: 5.10 ;&st6;" d=" M  2490.08,   267.51  L  2490.08,   265.24  L  2498.58,   256.74  L  2515.58,   256.74  L  2515.58,   188.75  L  2456.09,   188.75  L  2388.10,   180.26  L  2388.10,   172.89  " /></a><a ewd:comment="24" style="cursor:pointer;" ewd:lineID="95"><path style="stroke:#000000;stroke-width: 5.10 ;&st6;" d=" M  2719.55,   120.77  L  2719.55,   171.76  L  2745.04,   171.76  L  2762.04,   197.25  L  2762.04,   205.18  " /><path style="stroke:#FFFFFF;stroke-width: 2.27 ;&st6;" d=" M  2719.55,   120.77  L  2719.55,   171.76  L  2745.04,   171.76  L  2762.04,   197.25  L  2762.04,   205.18  " /><path style="stroke:#FFE600;stroke-width: 1.13 ;&st6;" d=" M  2719.55,   120.77  L  2719.55,   171.76  L  2745.04,   171.76  L  2762.04,   197.25  L  2762.04,   205.18  " /></a><a ewd:comment="25" style="cursor:pointer;" ewd:lineID="96"><path style="stroke:#56077D;stroke-width: 5.10 ;&st6;" d=" M  2719.55,   120.77  L  2719.55,   129.26  L  2711.05,   137.76  L  2694.05,   137.76  L  2694.05,   188.75  L  2745.04,   188.75  L  2762.04,   197.25  L  2762.04,   205.18  " /></a><a ewd:comment="26" style="cursor:pointer;" ewd:lineID="97"><path style="stroke:#000000;stroke-width: 5.10 ;&st6;" d=" M  2719.55,   105.75  L  2719.55,    35.78  L  2889.52,    35.78  L  2889.52,    69.77  L  2872.52,    86.77  L  2872.52,    93.57  " /><path style="stroke:#FFFFFF;stroke-width: 2.27 ;&st6;" d=" M  2719.55,   105.75  L  2719.55,    35.78  L  2889.52,    35.78  L  2889.52,    69.77  L  2872.52,    86.77  L  2872.52,    93.57  " /><path style="stroke:#FFE600;stroke-width: 1.13 ;&st6;" d=" M  2719.55,   105.75  L  2719.55,    35.78  L  2889.52,    35.78  L  2889.52,    69.77  L  2872.52,    86.77  L  2872.52,    93.57  " /></a><a ewd:comment="27" style="cursor:pointer;" ewd:lineID="98"><path style="stroke:#56077D;stroke-width: 5.10 ;&st6;" d=" M  2719.55,   106.03  L  2719.55,   103.77  L  2711.05,    95.27  L  2694.05,    95.27  L  2694.05,    18.78  L  2906.51,    18.78  L  2906.51,    78.27  L  2872.52,    86.77  L  2872.52,    93.57  " /></a><a ewd:comment="25" style="cursor:pointer;" ewd:lineID="99"><path style="stroke:#00A0C6;stroke-width: 5.10 ;&st6;" d=" M  2736.54,   420.48  L  2736.54,   418.22  L  2728.04,   409.72  L  2711.05,   409.72  L  2711.05,   384.22  L  2728.04,   384.22  L  2736.54,   375.72  L  2736.54,   367.79  " /></a><a ewd:comment="24" style="cursor:pointer;" ewd:lineID="100"><path style="stroke:#000000;stroke-width: 5.10 ;&st6;" d=" M  2736.54,   367.79  L  2736.54,   420.20  " /><path style="stroke:#FFFFFF;stroke-width: 2.27 ;&st6;" d=" M  2736.54,   367.79  L  2736.54,   420.20  " /><path style="stroke:#00A0C6;stroke-width: 1.13 ;&st6;" d=" M  2736.54,   367.79  L  2736.54,   420.20  " /></a><a ewd:comment="9" style="cursor:pointer;" ewd:lineID="101"><path style="stroke:#992903;stroke-width: 5.10 ;&st6;" d=" M  2753.54,   605.18  L  2753.54,   681.67  " /></a><a ewd:comment="9" style="cursor:pointer;" ewd:lineID="102"><path style="stroke:#992903;stroke-width: 5.10 ;&st6;" d=" M  2753.54,   590.45  L  2753.54,   554.19  L  2796.03,   554.19  L  2804.53,   545.69  L  2804.53,   537.20  " /></a><a ewd:comment="24" style="cursor:pointer;" ewd:lineID="103"><path style="stroke:#000000;stroke-width: 5.10 ;&st6;" d=" M  2762.04,   127.28  L  2762.04,   205.18  " /><path style="stroke:#FFFFFF;stroke-width: 2.27 ;&st6;" d=" M  2762.04,   127.28  L  2762.04,   205.18  " /><path style="stroke:#FFE600;stroke-width: 1.13 ;&st6;" d=" M  2762.04,   127.28  L  2762.04,   205.18  " /></a><a ewd:comment="25" style="cursor:pointer;" ewd:lineID="104"><path style="stroke:#56077D;stroke-width: 5.10 ;&st6;" d=" M  2762.04,   127.00  L  2762.04,   129.26  L  2770.54,   137.76  L  2787.53,   137.76  L  2787.53,   188.75  L  2770.54,   188.75  L  2762.04,   197.25  L  2762.04,   205.18  " /></a><a ewd:comment="26" style="cursor:pointer;" ewd:lineID="105"><path style="stroke:#000000;stroke-width: 5.10 ;&st6;" d=" M  2762.04,   112.27  L  2762.04,    52.78  L  2872.52,    52.78  L  2872.52,    93.57  " /><path style="stroke:#FFFFFF;stroke-width: 2.27 ;&st6;" d=" M  2762.04,   112.27  L  2762.04,    52.78  L  2872.52,    52.78  L  2872.52,    93.57  " /><path style="stroke:#FFE600;stroke-width: 1.13 ;&st6;" d=" M  2762.04,   112.27  L  2762.04,    52.78  L  2872.52,    52.78  L  2872.52,    93.57  " /></a><a ewd:comment="27" style="cursor:pointer;" ewd:lineID="106"><path style="stroke:#56077D;stroke-width: 5.10 ;&st6;" d=" M  2762.04,   112.27  L  2762.04,   103.77  L  2770.54,    95.27  L  2779.04,    95.27  L  2779.04,    69.77  L  2855.52,    69.77  L  2872.52,    86.77  L  2872.52,    93.57  " /></a><a ewd:comment="6" style="cursor:pointer;" ewd:lineID="107"><path style="stroke:#992903;stroke-width: 5.10 ;&st6;" d=" M  2804.53,   656.18  L  2804.53,   681.67  " /></a><a ewd:comment="6" style="cursor:pointer;" ewd:lineID="108"><path style="stroke:#992903;stroke-width: 5.10 ;&st6;" d=" M  2804.53,   611.42  L  2804.53,   639.18  " /></a><a ewd:comment="6" style="cursor:pointer;" ewd:lineID="109"><path style="stroke:#992903;stroke-width: 5.10 ;&st6;" d=" M  2804.53,   596.69  L  2804.53,   537.20  " /></a><a ewd:comment="9,23" style="cursor:pointer;" ewd:lineID="110"><path style="stroke:#992903;stroke-width: 5.10 ;&st6;" d=" M  2804.53,   496.97  L  2804.53,   494.70  L  2813.03,   486.20  L  2872.52,   486.20  L  2872.52,   452.21  L  2883.50,   441.23  " /></a><a ewd:comment="12,19,20" style="cursor:pointer;" ewd:lineID="111"><path style="stroke:#992903;stroke-width: 5.10 ;&st6;" d=" M  2804.53,   418.22  L  2804.53,   496.97  " /></a><a style="cursor:pointer;" ewd:lineID="112"><path style="stroke:#992903;stroke-width: 5.10 ;&st6;" d=" M  2804.53,   367.79  L  2804.53,   394.99  " /></a><a ewd:comment="8,9,23" style="cursor:pointer;" ewd:lineID="113"><path style="stroke:#992903;stroke-width: 5.10 ;&st6;" d=" M  2881.02,   435.21  L  2813.03,   435.21  L  2804.53,   426.71  L  2804.53,   418.22  " /></a><a ewd:comment="8" style="cursor:pointer;" ewd:lineID="114"><path style="stroke:#992903;stroke-width: 5.10 ;&st6;" d=" M  2889.52,   639.18  L  2889.52,   681.67  " /></a><a ewd:comment="8" style="cursor:pointer;" ewd:lineID="115"><path style="stroke:#992903;stroke-width: 5.10 ;&st6;" d=" M  2889.52,   585.92  L  2889.52,   622.18  " /></a><a ewd:comment="8" style="cursor:pointer;" ewd:lineID="116"><path style="stroke:#992903;stroke-width: 5.10 ;&st6;" d=" M  2889.52,   562.69  L  2889.52,   554.19  L  2898.02,   545.69  L  2932.01,   545.69  L  2932.01,   494.70  " /></a><a ewd:comment="8" style="cursor:pointer;" ewd:lineID="117"><path style="stroke:#992903;stroke-width: 5.10 ;&st6;" d=" M  2889.52,   443.71  L  2889.52,   562.69  " /></a><a ewd:comment="8" style="cursor:pointer;" ewd:lineID="118"><path style="stroke:#992903;stroke-width: 5.10 ;&st6;" d=" M  2898.02,   435.21  L  2932.01,   435.21  L  2932.01,   479.97  " /></a><a ewd:comment="26" style="cursor:pointer;" ewd:lineID="119"><path style="stroke:#000000;stroke-width: 5.10 ;&st6;" d=" M  2940.51,   103.77  L  2940.51,   180.26  L  2881.02,   180.26  L  2872.52,   171.76  L  2872.52,   164.96  " /><path style="stroke:#FFFFFF;stroke-width: 2.27 ;&st6;" d=" M  2940.51,   103.77  L  2940.51,   180.26  L  2881.02,   180.26  L  2872.52,   171.76  L  2872.52,   164.96  " /><path style="stroke:#FFE600;stroke-width: 1.13 ;&st6;" d=" M  2940.51,   103.77  L  2940.51,   180.26  L  2881.02,   180.26  L  2872.52,   171.76  L  2872.52,   164.96  " /></a><a ewd:comment="27" style="cursor:pointer;" ewd:lineID="120"><path style="stroke:#56077D;stroke-width: 5.10 ;&st6;" d=" M  2940.51,   103.77  L  2940.51,   112.27  L  2957.51,   129.26  L  2957.51,   197.25  L  2872.52,   197.25  L  2872.52,   164.96  " /></a><a style="cursor:pointer;" ewd:lineID="121"><path style="stroke:#FF0000;stroke-width: 5.10 ;&st6;" d=" M  2991.50,   205.18  L  2991.50,   152.49  " /></a><a style="cursor:pointer;" ewd:lineID="122"><path style="stroke:#FF0000;stroke-width: 5.10 ;&st6;" d=" M  2991.50,   129.26  L  2991.50,   103.77  L  3025.49,   103.77  L  3025.49,   163.26  L  3059.49,   163.26  " /></a><a style="cursor:pointer;" ewd:lineID="123"><path style="stroke:#FF0000;stroke-width: 5.10 ;&st6;" d=" M  3067.99,   103.77  L  3067.99,   154.76  " /></a><a ewd:figtype="w2w" style="cursor:pointer;" ewd:pinNo="5" ewd:code="AI2" ewd:figID="26"><path style="&st2;" d=" M   144.48,   324.73  L   127.48,   324.73  L   127.48,   333.23  L   144.48,   333.23  L   144.48,   324.73 " /><text style="&st8;" transform="matrix(&st16;  131.61  331.1 )"><tspan x="0" style="&st18;" y="0">AI2</tspan></text></a><a ewd:figtype="w2w" style="cursor:pointer;" ewd:pinNo="5" ewd:code="AI7" ewd:figID="27"><path style="&st2;" d=" M   144.48,   316.23  L   127.48,   316.23  L   127.48,   324.73  L   144.48,   324.73  L   144.48,   316.23 " /><text style="&st8;" transform="matrix(&st16;  131.61  322.6 )"><tspan x="0" style="&st18;" y="0">AI7</tspan></text></a><a ewd:figtype="w2w" style="cursor:pointer;" ewd:pinNo="20" ewd:code="AI3" ewd:figID="28"><path style="&st2;" d=" M   271.95,   452.21  L   254.96,   452.21  L   254.96,   460.71  L   271.95,   460.71  L   271.95,   452.21 " /><text style="&st8;" transform="matrix(&st16;  259.09  458.58 )"><tspan x="0" style="&st18;" y="0">AI3</tspan></text></a><a ewd:figtype="w2w" style="cursor:pointer;" ewd:pinNo="58" ewd:code="AI3" ewd:figID="29"><path style="&st2;" d=" M   305.95,   452.21  L   288.95,   452.21  L   288.95,   460.71  L   305.95,   460.71  L   305.95,   452.21 " /><text style="&st8;" transform="matrix(&st16;  293.09  458.58 )"><tspan x="0" style="&st18;" y="0">AI3</tspan></text></a><a ewd:figtype="w2w" style="cursor:pointer;" ewd:pinNo="8" ewd:code="AI2" ewd:figID="30"><path style="&st2;" d=" M   620.40,   435.21  L   603.40,   435.21  L   603.40,   443.71  L   620.40,   443.71  L   620.40,   435.21 " /><text style="&st8;" transform="matrix(&st16;  607.53  441.58 )"><tspan x="0" style="&st18;" y="0">AI2</tspan></text></a><a ewd:figtype="w2w" style="cursor:pointer;" ewd:pinNo="7" ewd:code="AI7" ewd:figID="31"><path style="&st2;" d=" M   620.40,   426.71  L   603.40,   426.71  L   603.40,   435.21  L   620.40,   435.21  L   620.40,   426.71 " /><text style="&st8;" transform="matrix(&st16;  607.53  433.08 )"><tspan x="0" style="&st18;" y="0">AI7</tspan></text></a><a ewd:figtype="w2w" style="cursor:pointer;" ewd:pinNo="5" ewd:code="LI1" ewd:figID="32"><path style="&st2;" d=" M   849.86,   409.72  L   832.86,   409.72  L   832.86,   418.22  L   849.86,   418.22  L   849.86,   409.72 " /><text style="&st8;" transform="matrix(&st16;  837.33  416.09 )"><tspan x="0" style="&st18;" y="0">LI1</tspan></text></a><a ewd:figtype="w2w" style="cursor:pointer;" ewd:pinNo="20" ewd:code="IL2" ewd:figID="33"><path style="&st2;" d=" M   883.85,   401.22  L   866.86,   401.22  L   866.86,   409.72  L   883.85,   409.72  L   883.85,   401.22 " /><text style="&st8;" transform="matrix(&st16;  871.33  407.59 )"><tspan x="0" style="&st18;" y="0">IL2</tspan></text></a><a ewd:figtype="w2w" style="cursor:pointer;" ewd:pinNo="60" ewd:code="AI3" ewd:figID="34"><path style="&st2;" d=" M   883.85,   290.74  L   866.86,   290.74  L   866.86,   299.24  L   883.85,   299.24  L   883.85,   290.74 " /><text style="&st8;" transform="matrix(&st16;  870.99  297.11 )"><tspan x="0" style="&st18;" y="0">AI3</tspan></text></a><a ewd:figtype="w2w" style="cursor:pointer;" ewd:pinNo="9" ewd:code="AC1" ewd:figID="35"><path style="&st2;" d=" M  1266.29,   469.21  L  1249.29,   469.21  L  1249.29,   477.71  L  1266.29,   477.71  L  1266.29,   469.21 " /><text style="&st8;" transform="matrix(&st16;  1252.15  475.58 )"><tspan x="0" style="&st18;" y="0">AC1</tspan></text></a><a ewd:figtype="w2w" style="cursor:pointer;" ewd:pinNo="6" ewd:code="AC1" ewd:figID="36"><path style="&st2;" d=" M  1266.29,   239.75  L  1249.29,   239.75  L  1249.29,   248.24  L  1266.29,   248.24  L  1266.29,   239.75 " /><text style="&st8;" transform="matrix(&st16;  1252.15  246.11 )"><tspan x="0" style="&st18;" y="0">AC1</tspan></text></a><a ewd:figtype="w2w" style="cursor:pointer;" ewd:pinNo="11" ewd:code="AC5" ewd:figID="37"><path style="&st2;" d=" M  1266.29,   231.25  L  1249.29,   231.25  L  1249.29,   239.75  L  1266.29,   239.75  L  1266.29,   231.25 " /><text style="&st8;" transform="matrix(&st16;  1252.15  237.62 )"><tspan x="0" style="&st18;" y="0">AC5</tspan></text></a><a ewd:figtype="w2w" style="cursor:pointer;" ewd:pinNo="8" ewd:code="IC3" ewd:figID="38"><path style="&st2;" d=" M  1266.29,   222.75  L  1249.29,   222.75  L  1249.29,   231.25  L  1266.29,   231.25  L  1266.29,   222.75 " /><text style="&st8;" transform="matrix(&st16;  1253.27  229.12 )"><tspan x="0" style="&st18;" y="0">IC3</tspan></text></a><a ewd:figtype="w2w" style="cursor:pointer;" ewd:pinNo="8" ewd:code="CA3" ewd:figID="39"><path style="&st2;" d=" M  1308.78,   273.74  L  1291.78,   273.74  L  1291.78,   282.24  L  1308.78,   282.24  L  1308.78,   273.74 " /><text style="&st8;" transform="matrix(&st16;  1294.64  280.11 )"><tspan x="0" style="&st18;" y="0">CA3</tspan></text></a><a ewd:figtype="w2w" style="cursor:pointer;" ewd:pinNo="9" ewd:code="AI3" ewd:figID="40"><path style="&st2;" d=" M  1742.21,   341.73  L  1725.21,   341.73  L  1725.21,   350.23  L  1742.21,   350.23  L  1742.21,   341.73 " /><text style="&st8;" transform="matrix(&st16;  1729.35  348.1 )"><tspan x="0" style="&st18;" y="0">AI3</tspan></text></a><a ewd:figtype="w2w" style="cursor:pointer;" ewd:pinNo="3" ewd:code="IA4" ewd:figID="41"><path style="&st2;" d=" M  1844.19,   537.20  L  1827.19,   537.20  L  1827.19,   545.69  L  1844.19,   545.69  L  1844.19,   537.20 " /><text style="&st8;" transform="matrix(&st16;  1831.33  543.57 )"><tspan x="0" style="&st18;" y="0">IA4</tspan></text></a><a ewd:figtype="w2w" style="cursor:pointer;" ewd:pinNo="3" ewd:code="IA2" ewd:figID="42"><path style="&st2;" d=" M  1844.19,   528.70  L  1827.19,   528.70  L  1827.19,   537.20  L  1844.19,   537.20  L  1844.19,   528.70 " /><text style="&st8;" transform="matrix(&st16;  1831.33  535.07 )"><tspan x="0" style="&st18;" y="0">IA2</tspan></text></a><a ewd:figtype="w2w" style="cursor:pointer;" ewd:pinNo="9" ewd:code="AI3" ewd:figID="43"><path style="&st2;" d=" M  1844.19,   341.73  L  1827.19,   341.73  L  1827.19,   350.23  L  1844.19,   350.23  L  1844.19,   341.73 " /><text style="&st8;" transform="matrix(&st16;  1831.33  348.1 )"><tspan x="0" style="&st18;" y="0">AI3</tspan></text></a><a ewd:figtype="w2w" style="cursor:pointer;" ewd:pinNo="3" ewd:code="AI2" ewd:figID="44"><path style="&st2;" d=" M  1980.17,   231.25  L  1963.17,   231.25  L  1963.17,   239.75  L  1980.17,   239.75  L  1980.17,   231.25 " /><text style="&st8;" transform="matrix(&st16;  1967.31  237.62 )"><tspan x="0" style="&st18;" y="0">AI2</tspan></text></a><a ewd:figtype="w2w" style="cursor:pointer;" ewd:pinNo="6" ewd:code="AI7" ewd:figID="45"><path style="&st2;" d=" M  1980.17,   222.75  L  1963.17,   222.75  L  1963.17,   231.25  L  1980.17,   231.25  L  1980.17,   222.75 " /><text style="&st8;" transform="matrix(&st16;  1967.31  229.12 )"><tspan x="0" style="&st18;" y="0">AI7</tspan></text></a><a ewd:figtype="w2w" style="cursor:pointer;" ewd:pinNo="1" ewd:code="IC1" ewd:figID="46"><path style="&st2;" d=" M  2192.63,   511.70  L  2175.64,   511.70  L  2175.64,   520.20  L  2192.63,   520.20  L  2192.63,   511.70 " /><text style="&st8;" transform="matrix(&st16;  2179.62  518.07 )"><tspan x="0" style="&st18;" y="0">IC1</tspan></text></a><a ewd:figtype="w2w" style="cursor:pointer;" ewd:pinNo="1" ewd:code="AC8" ewd:figID="47"><path style="&st2;" d=" M  2243.63,   511.70  L  2226.63,   511.70  L  2226.63,   520.20  L  2243.63,   520.20  L  2243.63,   511.70 " /><text style="&st8;" transform="matrix(&st16;  2229.48  518.07 )"><tspan x="0" style="&st18;" y="0">AC8</tspan></text></a><a ewd:figtype="w2w" style="cursor:pointer;" ewd:pinNo="7" ewd:code="CA3" ewd:figID="48"><path style="&st2;" d=" M  2320.11,   528.70  L  2303.12,   528.70  L  2303.12,   537.20  L  2320.11,   537.20  L  2320.11,   528.70 " /><text style="&st8;" transform="matrix(&st16;  2305.97  535.07 )"><tspan x="0" style="&st18;" y="0">CA3</tspan></text></a><a ewd:figtype="w2w" style="cursor:pointer;" ewd:pinNo="5" ewd:code="IC1" ewd:figID="49"><path style="&st2;" d=" M  2320.11,   282.24  L  2303.12,   282.24  L  2303.12,   290.74  L  2320.11,   290.74  L  2320.11,   282.24 " /><text style="&st8;" transform="matrix(&st16;  2307.1  288.61 )"><tspan x="0" style="&st18;" y="0">IC1</tspan></text></a><a ewd:figtype="w2w" style="cursor:pointer;" ewd:pinNo="4" ewd:code="AC1" ewd:figID="50"><path style="&st2;" d=" M  2396.60,   316.23  L  2379.60,   316.23  L  2379.60,   324.73  L  2396.60,   324.73  L  2396.60,   316.23 " /><text style="&st8;" transform="matrix(&st16;  2382.46  322.6 )"><tspan x="0" style="&st18;" y="0">AC1</tspan></text></a><a ewd:figtype="w2w" style="cursor:pointer;" ewd:pinNo="5" ewd:code="AC8" ewd:figID="51"><path style="&st2;" d=" M  2396.60,   307.73  L  2379.60,   307.73  L  2379.60,   316.23  L  2396.60,   316.23  L  2396.60,   307.73 " /><text style="&st8;" transform="matrix(&st16;  2382.46  314.1 )"><tspan x="0" style="&st18;" y="0">AC8</tspan></text></a><a ewd:figtype="w2w" style="cursor:pointer;" ewd:pinNo="17" ewd:code="AI3" ewd:figID="52"><path style="&st2;" d=" M  2396.60,   265.24  L  2379.60,   265.24  L  2379.60,   273.74  L  2396.60,   273.74  L  2396.60,   265.24 " /><text style="&st8;" transform="matrix(&st16;  2383.74  271.61 )"><tspan x="0" style="&st18;" y="0">AI3</tspan></text></a><a ewd:figtype="w2w" style="cursor:pointer;" ewd:pinNo="25" ewd:code="AI3" ewd:figID="53"><path style="&st2;" d=" M  2396.60,   256.74  L  2379.60,   256.74  L  2379.60,   265.24  L  2396.60,   265.24  L  2396.60,   256.74 " /><text style="&st8;" transform="matrix(&st16;  2383.74  263.11 )"><tspan x="0" style="&st18;" y="0">AI3</tspan></text></a><a ewd:figtype="w2w" style="cursor:pointer;" ewd:pinNo="6" ewd:code="CA3" ewd:figID="54"><path style="&st2;" d=" M  2498.58,   333.23  L  2481.59,   333.23  L  2481.59,   341.73  L  2498.58,   341.73  L  2498.58,   333.23 " /><text style="&st8;" transform="matrix(&st16;  2484.44  339.6 )"><tspan x="0" style="&st18;" y="0">CA3</tspan></text></a><a ewd:figtype="w2w" style="cursor:pointer;" ewd:pinNo="48" ewd:code="AI3" ewd:figID="55"><path style="&st2;" d=" M  2498.58,   282.24  L  2481.59,   282.24  L  2481.59,   290.74  L  2498.58,   290.74  L  2498.58,   282.24 " /><text style="&st8;" transform="matrix(&st16;  2485.72  288.61 )"><tspan x="0" style="&st18;" y="0">AI3</tspan></text></a><a ewd:figtype="w2w" style="cursor:pointer;" ewd:pinNo="21" ewd:code="AI3" ewd:figID="56"><path style="&st2;" d=" M  2498.58,   273.74  L  2481.59,   273.74  L  2481.59,   282.24  L  2498.58,   282.24  L  2498.58,   273.74 " /><text style="&st8;" transform="matrix(&st16;  2485.72  280.11 )"><tspan x="0" style="&st18;" y="0">AI3</tspan></text></a><a ewd:figtype="w2w" style="cursor:pointer;" ewd:pinNo="18" ewd:code="LI1" ewd:figID="57"><path style="&st2;" d=" M  2728.04,   112.27  L  2711.05,   112.27  L  2711.05,   120.77  L  2728.04,   120.77  L  2728.04,   112.27 " /><text style="&st8;" transform="matrix(&st16;  2715.52  118.64 )"><tspan x="0" style="&st18;" y="0">LI1</tspan></text></a><a ewd:figtype="w2w" style="cursor:pointer;" ewd:pinNo="7" ewd:code="IL6" ewd:figID="58"><path style="&st2;" d=" M  2745.04,   435.21  L  2728.04,   435.21  L  2728.04,   443.71  L  2745.04,   443.71  L  2745.04,   435.21 " /><text style="&st8;" transform="matrix(&st16;  2732.52  441.58 )"><tspan x="0" style="&st18;" y="0">IL6</tspan></text></a><a ewd:figtype="w2w" style="cursor:pointer;" ewd:pinNo="10" ewd:code="IL2" ewd:figID="59"><path style="&st2;" d=" M  2745.04,   426.71  L  2728.04,   426.71  L  2728.04,   435.21  L  2745.04,   435.21  L  2745.04,   426.71 " /><text style="&st8;" transform="matrix(&st16;  2732.52  433.08 )"><tspan x="0" style="&st18;" y="0">IL2</tspan></text></a><a ewd:figtype="w2w" style="cursor:pointer;" ewd:pinNo="17" ewd:code="CA4" ewd:figID="60"><path style="&st2;" d=" M  2762.04,   596.69  L  2745.04,   596.69  L  2745.04,   605.18  L  2762.04,   605.18  L  2762.04,   596.69 " /><text style="&st8;" transform="matrix(&st16;  2747.9  603.06 )"><tspan x="0" style="&st18;" y="0">CA4</tspan></text></a><a ewd:figtype="w2w" style="cursor:pointer;" ewd:pinNo="22" ewd:code="IL2" ewd:figID="61"><path style="&st2;" d=" M  2770.54,   112.27  L  2753.54,   112.27  L  2753.54,   120.77  L  2770.54,   120.77  L  2770.54,   112.27 " /><text style="&st8;" transform="matrix(&st16;  2758.01  118.64 )"><tspan x="0" style="&st18;" y="0">IL2</tspan></text></a><a ewd:figtype="w2w" style="cursor:pointer;" ewd:pinNo="1" ewd:code="AC1" ewd:figID="62"><path style="&st2;" d=" M  2813.03,   596.69  L  2796.03,   596.69  L  2796.03,   605.18  L  2813.03,   605.18  L  2813.03,   596.69 " /><text style="&st8;" transform="matrix(&st16;  2798.89  603.06 )"><tspan x="0" style="&st18;" y="0">AC1</tspan></text></a><a ewd:figtype="w2w" style="cursor:pointer;" ewd:pinNo="13" ewd:code="AI3" ewd:figID="63"><path style="&st2;" d=" M  2813.03,   528.70  L  2796.03,   528.70  L  2796.03,   537.20  L  2813.03,   537.20  L  2813.03,   528.70 " /><text style="&st8;" transform="matrix(&st16;  2800.17  535.07 )"><tspan x="0" style="&st18;" y="0">AI3</tspan></text></a><a ewd:figtype="w2w" style="cursor:pointer;" ewd:pinNo="55" ewd:code="AI3" ewd:figID="64"><path style="&st2;" d=" M  2813.03,   520.20  L  2796.03,   520.20  L  2796.03,   528.70  L  2813.03,   528.70  L  2813.03,   520.20 " /><text style="&st8;" transform="matrix(&st16;  2800.17  526.57 )"><tspan x="0" style="&st18;" y="0">AI3</tspan></text></a><a ewd:figtype="w2w" style="cursor:pointer;" ewd:pinNo="22" ewd:code="AI3" ewd:figID="65"><path style="&st2;" d=" M  2813.03,   511.70  L  2796.03,   511.70  L  2796.03,   520.20  L  2813.03,   520.20  L  2813.03,   511.70 " /><text style="&st8;" transform="matrix(&st16;  2800.17  518.07 )"><tspan x="0" style="&st18;" y="0">AI3</tspan></text></a><a ewd:figtype="w2w" style="cursor:pointer;" ewd:pinNo="45" ewd:code="AI3" ewd:figID="66"><path style="&st2;" d=" M  2813.03,   503.20  L  2796.03,   503.20  L  2796.03,   511.70  L  2813.03,   511.70  L  2813.03,   503.20 " /><text style="&st8;" transform="matrix(&st16;  2800.17  509.57 )"><tspan x="0" style="&st18;" y="0">AI3</tspan></text></a><a ewd:figtype="w2w" style="cursor:pointer;" ewd:pinNo="14" ewd:code="IL6" ewd:figID="67"><path style="&st2;" d=" M  2813.03,   409.72  L  2796.03,   409.72  L  2796.03,   418.22  L  2813.03,   418.22  L  2813.03,   409.72 " /><text style="&st8;" transform="matrix(&st16;  2800.51  416.09 )"><tspan x="0" style="&st18;" y="0">IL6</tspan></text></a><a ewd:figtype="w2w" style="cursor:pointer;" ewd:pinNo="4" ewd:code="IL2" ewd:figID="68"><path style="&st2;" d=" M  2813.03,   401.22  L  2796.03,   401.22  L  2796.03,   409.72  L  2813.03,   409.72  L  2813.03,   401.22 " /><text style="&st8;" transform="matrix(&st16;  2800.51  407.59 )"><tspan x="0" style="&st18;" y="0">IL2</tspan></text></a><a ewd:figtype="w2w" style="cursor:pointer;" ewd:pinNo="9" ewd:code="AC5" ewd:figID="69"><path style="&st2;" d=" M  2898.02,   571.19  L  2881.02,   571.19  L  2881.02,   579.69  L  2898.02,   579.69  L  2898.02,   571.19 " /><text style="&st8;" transform="matrix(&st16;  2883.87  577.56 )"><tspan x="0" style="&st18;" y="0">AC5</tspan></text></a><a ewd:figtype="w2w" style="cursor:pointer;" ewd:pinNo="9" ewd:code="IC2" ewd:figID="70"><path style="&st2;" d=" M  2898.02,   562.69  L  2881.02,   562.69  L  2881.02,   571.19  L  2898.02,   571.19  L  2898.02,   562.69 " /><text style="&st8;" transform="matrix(&st16;  2885.0  569.06 )"><tspan x="0" style="&st18;" y="0">IC2</tspan></text></a><a ewd:figtype="w2w" style="cursor:pointer;" ewd:pinNo="56" ewd:code="AI3" ewd:figID="71"><path style="&st2;" d=" M  2940.51,   486.20  L  2923.51,   486.20  L  2923.51,   494.70  L  2940.51,   494.70  L  2940.51,   486.20 " /><text style="&st8;" transform="matrix(&st16;  2927.65  492.57 )"><tspan x="0" style="&st18;" y="0">AI3</tspan></text></a><a ewd:figtype="w2w" style="cursor:pointer;" ewd:pinNo="8" ewd:code="IL6" ewd:figID="72"><path style="&st2;" d=" M  3000.00,   137.76  L  2983.00,   137.76  L  2983.00,   146.26  L  3000.00,   146.26  L  3000.00,   137.76 " /><text style="&st8;" transform="matrix(&st16;  2987.47  144.13 )"><tspan x="0" style="&st18;" y="0">IL6</tspan></text></a><a ewd:figtype="w2w" style="cursor:pointer;" ewd:pinNo="2" ewd:code="IL2" ewd:figID="73"><path style="&st2;" d=" M  3000.00,   129.26  L  2983.00,   129.26  L  2983.00,   137.76  L  3000.00,   137.76  L  3000.00,   129.26 " /><text style="&st8;" transform="matrix(&st16;  2987.47  135.63 )"><tspan x="0" style="&st18;" y="0">IL2</tspan></text></a><a ewd:figtype="gp" style="cursor:pointer;" ewd:code="IE" ewd:figID="74"><path style="&st2;" d=" M   252.83,   681.67  L   274.08,   681.67  L   263.46,   697.25  L   252.83,   681.67 " /><text style="&st8;" transform="matrix(&st16;  260.71  689.46 )"><tspan x="0" style="&st18;" y="0">IE</tspan></text></a><a ewd:figtype="gp" style="cursor:pointer;" ewd:code="IG" ewd:figID="75"><path style="&st2;" d=" M   286.83,   681.67  L   308.07,   681.67  L   297.45,   697.25  L   286.83,   681.67 " /><text style="&st8;" transform="matrix(&st16;  294.4  689.46 )"><tspan x="0" style="&st18;" y="0">IG</tspan></text></a><a ewd:figtype="gp" style="cursor:pointer;" ewd:code="LA" ewd:figID="76"><path style="&st2;" d=" M   864.73,   681.67  L   885.98,   681.67  L   875.35,   697.25  L   864.73,   681.67 " /><text style="&st8;" transform="matrix(&st16;  871.82  689.46 )"><tspan x="0" style="&st18;" y="0">LA</tspan></text></a><a ewd:figtype="gp" style="cursor:pointer;" ewd:code="CE" ewd:figID="77"><path style="&st2;" d=" M  1153.68,   681.67  L  1174.93,   681.67  L  1164.31,   697.25  L  1153.68,   681.67 " /><text style="&st8;" transform="matrix(&st16;  1160.24  689.46 )"><tspan x="0" style="&st18;" y="0">CE</tspan></text></a><a ewd:figtype="gp" style="cursor:pointer;" ewd:code="AA" ewd:figID="78"><path style="&st2;" d=" M  1196.18,   681.67  L  1217.42,   681.67  L  1206.80,   697.25  L  1196.18,   681.67 " /><text style="&st8;" transform="matrix(&st16;  1202.89  689.46 )"><tspan x="0" style="&st18;" y="0">AA</tspan></text></a><a ewd:figtype="gp" style="cursor:pointer;" ewd:code="CA" ewd:figID="79"><path style="&st2;" d=" M  1289.66,   681.67  L  1310.91,   681.67  L  1300.28,   697.25  L  1289.66,   681.67 " /><text style="&st8;" transform="matrix(&st16;  1296.22  689.46 )"><tspan x="0" style="&st18;" y="0">CA</tspan></text></a><a ewd:figtype="gp" style="cursor:pointer;" ewd:code="IE" ewd:figID="80"><path style="&st2;" d=" M  2173.51,   681.67  L  2194.76,   681.67  L  2184.14,   697.25  L  2173.51,   681.67 " /><text style="&st8;" transform="matrix(&st16;  2181.39  689.46 )"><tspan x="0" style="&st18;" y="0">IE</tspan></text></a><a ewd:figtype="gp" style="cursor:pointer;" ewd:code="AA" ewd:figID="81"><path style="&st2;" d=" M  2300.99,   681.67  L  2322.24,   681.67  L  2311.61,   697.25  L  2300.99,   681.67 " /><text style="&st8;" transform="matrix(&st16;  2307.7  689.46 )"><tspan x="0" style="&st18;" y="0">AA</tspan></text></a><a ewd:figtype="gp" style="cursor:pointer;" ewd:code="CC" ewd:figID="82"><path style="&st2;" d=" M  2360.48,   681.67  L  2381.73,   681.67  L  2371.10,   697.25  L  2360.48,   681.67 " /><text style="&st8;" transform="matrix(&st16;  2366.89  689.46 )"><tspan x="0" style="&st18;" y="0">CC</tspan></text></a><a ewd:figtype="gp" style="cursor:pointer;" ewd:code="CE" ewd:figID="83"><path style="&st2;" d=" M  2742.92,   681.67  L  2764.16,   681.67  L  2753.54,   697.25  L  2742.92,   681.67 " /><text style="&st8;" transform="matrix(&st16;  2749.48  689.46 )"><tspan x="0" style="&st18;" y="0">CE</tspan></text></a><a ewd:figtype="gp" style="cursor:pointer;" ewd:code="CC" ewd:figID="84"><path style="&st2;" d=" M  2793.91,   681.67  L  2815.15,   681.67  L  2804.53,   697.25  L  2793.91,   681.67 " /><text style="&st8;" transform="matrix(&st16;  2800.32  689.46 )"><tspan x="0" style="&st18;" y="0">CC</tspan></text></a><a ewd:figtype="gp" style="cursor:pointer;" ewd:code="CA" ewd:figID="85"><path style="&st2;" d=" M  2878.89,   681.67  L  2900.14,   681.67  L  2889.52,   697.25  L  2878.89,   681.67 " /><text style="&st8;" transform="matrix(&st16;  2885.45  689.46 )"><tspan x="0" style="&st18;" y="0">CA</tspan></text></a><a ewd:figtype="sp" style="cursor:pointer;" ewd:code="SP44" ewd:figID="86"><path style="&st2;" d=" M   131.73,   197.25  L   140.23,   197.25  L   144.48,   201.50  L   144.48,   210.00  L   140.23,   214.25  L   131.73,   214.25  L   127.48,   210.00  L   127.48,   201.50  L   131.73,   197.25 " /></a><a ewd:figtype="sp" style="cursor:pointer;" ewd:code="SP54" ewd:figID="87"><path style="&st2;" d=" M   293.20,   613.68  L   301.70,   613.68  L   305.95,   617.93  L   305.95,   626.43  L   301.70,   630.68  L   293.20,   630.68  L   288.95,   626.43  L   288.95,   617.93  L   293.20,   613.68 " /></a><a ewd:figtype="sp" style="cursor:pointer;" ewd:code="SP6" ewd:figID="88"><path style="&st2;" d=" M   335.69,   273.74  L   344.19,   273.74  L   348.44,   277.99  L   348.44,   286.49  L   344.19,   290.74  L   335.69,   290.74  L   331.44,   286.49  L   331.44,   277.99  L   335.69,   273.74 " /></a><a ewd:figtype="sp" style="cursor:pointer;" ewd:code="SP81" ewd:figID="89"><path style="&st2;" d=" M   871.10,   588.19  L   879.60,   588.19  L   883.85,   592.44  L   883.85,   600.93  L   879.60,   605.18  L   871.10,   605.18  L   866.86,   600.93  L   866.86,   592.44  L   871.10,   588.19 " /></a><a ewd:figtype="sp" style="cursor:pointer;" ewd:code="SP147" ewd:figID="90"><path style="&st2;" d=" M  1635.98,   341.73  L  1644.48,   341.73  L  1648.72,   345.98  L  1648.72,   354.48  L  1644.48,   358.73  L  1635.98,   358.73  L  1631.73,   354.48  L  1631.73,   345.98  L  1635.98,   341.73 " /></a><a ewd:figtype="sp" style="cursor:pointer;" ewd:code="SP14" ewd:figID="91"><path style="&st2;" d=" M  1907.93,   103.77  L  1916.43,   103.77  L  1920.68,   108.02  L  1920.68,   116.52  L  1916.43,   120.77  L  1907.93,   120.77  L  1903.68,   116.52  L  1903.68,   108.02  L  1907.93,   103.77 " /></a><a ewd:figtype="sp" style="cursor:pointer;" ewd:code="SP76" ewd:figID="92"><path style="&st2;" d=" M  2179.89,   605.18  L  2188.38,   605.18  L  2192.63,   609.43  L  2192.63,   617.93  L  2188.38,   622.18  L  2179.89,   622.18  L  2175.64,   617.93  L  2175.64,   609.43  L  2179.89,   605.18 " /></a><a ewd:figtype="sp" style="cursor:pointer;" ewd:code="SP139" ewd:figID="93"><path style="&st2;" d=" M  2307.36,   477.71  L  2315.86,   477.71  L  2320.11,   481.95  L  2320.11,   490.45  L  2315.86,   494.70  L  2307.36,   494.70  L  2303.12,   490.45  L  2303.12,   481.95  L  2307.36,   477.71 " /></a><a ewd:figtype="sp" style="cursor:pointer;" ewd:code="SP19" ewd:figID="94"><path style="&st2;" d=" M  2800.28,   639.18  L  2808.78,   639.18  L  2813.03,   643.43  L  2813.03,   651.93  L  2808.78,   656.18  L  2800.28,   656.18  L  2796.03,   651.93  L  2796.03,   643.43  L  2800.28,   639.18 " /></a><a ewd:figtype="sp" style="cursor:pointer;" ewd:code="SP19" ewd:figID="95"><path style="&st2;" d=" M  2885.27,   622.18  L  2893.77,   622.18  L  2898.02,   626.43  L  2898.02,   634.93  L  2893.77,   639.18  L  2885.27,   639.18  L  2881.02,   634.93  L  2881.02,   626.43  L  2885.27,   622.18 " /></a><a ewd:figtype="sp" style="cursor:pointer;" ewd:code="SP60" ewd:figID="96"><path style="&st2;" d=" M  2885.27,   426.71  L  2893.77,   426.71  L  2898.02,   430.96  L  2898.02,   439.46  L  2893.77,   443.71  L  2885.27,   443.71  L  2881.02,   439.46  L  2881.02,   430.96  L  2885.27,   426.71 " /></a><a ewd:figtype="sp" style="cursor:pointer;" ewd:code="SP51" ewd:figID="97"><path style="&st2;" d=" M  3063.74,   154.76  L  3072.24,   154.76  L  3076.49,   159.01  L  3076.49,   167.51  L  3072.24,   171.76  L  3063.74,   171.76  L  3059.49,   167.51  L  3059.49,   159.01  L  3063.74,   154.76 "/></a></g></svg>
