<?xml version="1.0" encoding="utf-8"?>
<!DOCTYPE svg PUBLIC "-//W3C//DTD SVG 1.0//EN" "http://www.w3.org/TR/2001/REC-SVG-20010904/DTD/svg10.dtd"[
	<!ENTITY ns_flows "http://ns.adobe.com/Flows/1.0/">
	<!ENTITY ns_svg "http://www.w3.org/2000/svg">
	<!ENTITY ns_xlink "http://www.w3.org/1999/xlink">
	<!ENTITY st0 "font-size:7px;font-family:'MS-PGothic';adobe-font-script:japanese;">
	<!ENTITY st1 "font-size:6px;font-family:'ArialMT';">
	<!-- White fill  -->
	<!ENTITY st2 "fill:#FFFFFF;stroke:#000000; stroke-width:1.41;stroke-linecap:round;stroke-linejoin:round;">
	<!-- Yellow fill  -->
	<!ENTITY st3 "fill:#FFFFCC;stroke:#FFFFCC; stroke-width:0.1;stroke-linecap:round;stroke-linejoin:round;">
	<!-- Gray fill  -->
	<!ENTITY st4 "fill:#CCCCCC;stroke:#CCCCCC; stroke-width:0.1;stroke-linecap:round;stroke-linejoin:round;">
	<!-- Light-blue fill -->
	<!ENTITY st5 "fill:#CCECF4;stroke:#000000; stroke-width:1.133;stroke-linecap:round;stroke-linejoin:round;">
	<!ENTITY st6 "fill:none;stroke-linecap:butt; stroke-linejoin:round;">
	<!ENTITY st7 "fill:none;stroke:#000000;stroke-linecap:round;stroke-linejoin:round;">
	<!ENTITY st8 "enable-background:new    ;">
	<!-- Black fill -->
	<!ENTITY st9 "fill:#000000;stroke:#000000; stroke-linecap:round;stroke-linejoin:round;">
	<!-- SRS note   -->
	<!ENTITY st10 "font-size:9px;font-family:'ArialMT';">
	<!ENTITY st11 "font-size:9px;font-family:'Svg Symbol';">
	<!ENTITY st12 "font-size:6px;font-family:'Svg Symbol';">
	<!ENTITY st13 "fill:none;stroke:#ff0000;stroke-linecap:round;stroke-linejoin:round;">
	<!-- Yellow fill  -->
	<!ENTITY st14 "fill:#FFFF00;stroke:#FFFF00; stroke-width:0.1;stroke-linecap:round;stroke-linejoin:round;">
	<!ENTITY st15 "font-size:6px;font-family:'MS-PGothic';adobe-font-script:japanese;">
	<!ENTITY st16 "1.00 0.00 0.00 1.00">
	<!ENTITY st17 "0.00 -1.00 1.00 0.00">
	<!ENTITY st18 "font-size:6px;font-family:'Arial';">
	<!ENTITY st19 "font-size:9px;font-family:'Arial';">
	<!ENTITY st20 "font-size:6px;font-family:'MS-PGothic','MS PGothic';adobe-font-script:japanese;">
	<!ENTITY st21 "font-size:7px;font-family:'MS-PGothic','MS PGothic';adobe-font-script:japanese;">
	<!ATTLIST svg
		xmlns:ewd CDATA #FIXED "http://shcl.co.jp/ewd"
		xmlns:a CDATA #FIXED "http://ns.adobe.com/AdobeSVGViewerExtensions/3.0/"
		ewd:ver CDATA #IMPLIED
	>
	<!ATTLIST a
		ewd:lineID CDATA #IMPLIED
		ewd:groupID CDATA #IMPLIED
		ewd:figtype CDATA #IMPLIED
		ewd:code CDATA #IMPLIED
		ewd:figID CDATA #IMPLIED
		ewd:pinNo CDATA #IMPLIED
		ewd:comment CDATA #IMPLIED >
	<!ATTLIST g
		ewd:lineID CDATA #IMPLIED
		ewd:groupID CDATA #IMPLIED
		ewd:figtype CDATA #IMPLIED
		ewd:code CDATA #IMPLIED
		ewd:figID CDATA #IMPLIED
		ewd:pinNo CDATA #IMPLIED
		ewd:comment CDATA #IMPLIED >
	<!ATTLIST text
		ewd:textID CDATA #IMPLIED >
	<!ATTLIST title
		ewd:textID CDATA #IMPLIED >
]>
<!-- Generator: Shintec Hozumi YS   -->
<svg onload="call_execInitLoadProc_svg('system')" style="overflow:visible;  enable-background:new 0 0 8273.909 710.000" viewBox="0 0 8273.909 710.000" height="710.000" width="8273.909" xml:space="preserve" ewd:ver="2.3.1.16" xmlns="&ns_svg;" xmlns:a="http://ns.adobe.com/AdobeSVGViewerExtensions/3.0/" xmlns:ewd="http://shcl.co.jp/ewd" xmlns:xlink="&ns_xlink;">
<path style="stroke-width: 1.42 ;&st7;  " d=" M  3679.89,   290.74  L  3688.38,   290.74  " /><path style="stroke-width: 1.42 ;&st7;  " d=" M  3747.87,   290.74  L  3756.37,   290.74  " /><path style="stroke-width: 1.42 ;&st7;  " d=" M  3815.86,   290.74  L  3824.36,   290.74  " /><path style="stroke-width: 1.42 ;&st7;  " d=" M  3883.85,   290.74  L  3892.35,   290.74  " /><path style="stroke-width: 1.42 ;&st7;  " d=" M  3951.84,   290.74  L  3960.34,   290.74  " /><text style="&st18;" transform="matrix(&st16;  3659.48  424.43 )">ECM</text><text style="&st18;" transform="matrix(&st17;  3523.22  252.8 )">L-R</text><text style="&st18;" transform="matrix(&st17;  3557.21  254.12 )">W-R</text><text style="&st18;" transform="matrix(&st17;  3557.21  347.06 )">L-W</text><text style="&st18;" transform="matrix(&st17;  3956.64  326.11 )">L</text><text style="&st18;" transform="matrix(&st17;  3888.65  332.62 )">BR-W</text><text style="&st18;" transform="matrix(&st17;  3820.67  330.06 )">L-W</text><text style="&st18;" transform="matrix(&st17;  3752.68  261.65 )">R-B</text><text style="&st18;" transform="matrix(&st17;  3752.68  329.64 )">R-B</text><text style="&st18;" transform="matrix(&st17;  3684.69  261.3 )">L-R</text><text style="&st18;" transform="matrix(&st17;  3684.69  329.29 )">L-R</text><text style="&st18;" transform="matrix(&st17;  3820.67  262.08 )">L-W</text><text style="&st18;" transform="matrix(&st17;  3888.65  264.64 )">BR-W</text><text style="&st18;" transform="matrix(&st17;  3956.64  258.12 )">L</text><text style="&st18;" transform="matrix(&st17;  3990.64  453.98 )">B</text><text style="&st18;" transform="matrix(&st16;  3659.48  417.61 )">A29(A),C39(B),I84(C)</text><text style="&st18;" transform="matrix(&st16;  3651.19  592.99 )">W</text><text style="&st18;" transform="matrix(&st16;  3600.2  592.99 )">W</text><text style="&st18;" transform="matrix(&st16;  3643.83  609.99 )">G-R(*9)</text><text style="&st18;" transform="matrix(&st16;  3592.83  609.99 )">G-R(*9)</text><text style="&st18;" transform="matrix(&st16;  3652.12  32.08 )">B</text><text style="&st18;" transform="matrix(&st16;  3601.13  32.08 )">B</text><text style="&st18;" transform="matrix(&st16;  3651.19  49.08 )">W</text><text style="&st18;" transform="matrix(&st16;  3600.2  49.08 )">W</text><text style="&st18;" transform="matrix(&st16;  3652.12  643.98 )">B</text><text style="&st18;" transform="matrix(&st16;  3601.13  643.98 )">B</text><text style="&st18;" transform="matrix(&st16;  3640.84  100.07 )">R-L(*6 *9)</text><text style="&st18;" transform="matrix(&st16;  3589.85  100.07 )">R-L(*6 *9)</text><text style="&st18;" transform="matrix(&st16;  3592.64  66.08 )">SB(*10)</text><text style="&st18;" transform="matrix(&st16;  3593.53  83.07 )">R-L(*9)</text><text style="&st18;" transform="matrix(&st16;  3644.52  83.07 )">R-L(*9)</text><text style="&st18;" transform="matrix(&st16;  3639.95  117.07 )">SB(*6 *10)</text><text style="&st18;" transform="matrix(&st16;  3588.96  117.07 )">SB(*6 *10)</text><text style="&st18;" transform="matrix(&st16;  3643.63  66.08 )">SB(*10)</text><text style="&st18;" transform="matrix(&st17;  3990.64  294.67 )">BR</text><text style="&st18;" transform="matrix(&st17;  3933.98  298.47 )">(LHD)</text><text style="&st18;" transform="matrix(&st17;  3922.65  293.43 )">W</text><text style="&st18;" transform="matrix(&st17;  3854.66  292.5 )">P</text><text style="&st18;" transform="matrix(&st17;  3865.99  298.47 )">(LHD)</text><text style="&st18;" transform="matrix(&st17;  3798.0  298.47 )">(LHD)</text><text style="&st18;" transform="matrix(&st17;  3786.67  292.12 )">L</text><text style="&st18;" transform="matrix(&st17;  3718.68  292.5 )">B</text><text style="&st18;" transform="matrix(&st17;  3730.01  298.47 )">(LHD)</text><text style="&st18;" transform="matrix(&st17;  3662.03  298.47 )">(LHD)</text><text style="&st18;" transform="matrix(&st17;  3650.69  292.66 )">R</text><text style="&st18;" transform="matrix(&st17;  3696.02  332.97 )">(RHD)</text><text style="&st18;" transform="matrix(&st17;  3764.01  332.97 )">(RHD)</text><text style="&st18;" transform="matrix(&st17;  3832.0  332.97 )">(RHD)</text><text style="&st18;" transform="matrix(&st17;  3899.99  332.97 )">(RHD)</text><text style="&st18;" transform="matrix(&st17;  3967.98  332.97 )">(RHD)</text><text style="&st18;" transform="matrix(&st17;  3967.98  264.98 )">(RHD)</text><text style="&st18;" transform="matrix(&st17;  3899.99  264.98 )">(RHD)</text><text style="&st18;" transform="matrix(&st17;  3832.0  264.98 )">(RHD)</text><text style="&st18;" transform="matrix(&st17;  3764.01  264.98 )">(RHD)</text><text style="&st18;" transform="matrix(&st17;  3696.02  264.98 )">(RHD)</text><text style="&st18;" transform="matrix(&st16;  3592.64  626.98 )">SB(*10)</text><text style="&st18;" transform="matrix(&st16;  3643.63  626.98 )">SB(*10)</text><g ewd:figtype="conn" ewd:figID="21" ewd:code="C65"><path style="stroke-width: 1.42 ;&st7;  " d=" M  3509.91,   307.73  L  3577.90,   307.73  L  3577.90,   273.74  L  3509.91,   273.74  L  3509.91,   307.73  " /><g ewd:lineID="144"><text style="&st18;" transform="matrix(&st16;  3520.57  270.05 )">1</text><text style="&st18;" transform="matrix(&st16;  3522.47  281.37 )">VC</text></g><g ewd:lineID="145"><text style="&st18;" transform="matrix(&st16;  3554.57  315.93 )">3</text><text style="&st18;" transform="matrix(&st16;  3554.8  304.04 )">VTA</text></g><g ewd:lineID="146"><text style="&st18;" transform="matrix(&st16;  3554.57  270.05 )">2</text><text style="&st18;" transform="matrix(&st16;  3557.01  281.37 )">E2</text></g><g ewd:figtype="title"><text style="&st18;" transform="matrix(&st17;  3585.8  310.63 )">C65</text><text style="&st18;" transform="matrix(&st17;  3592.62  310.64 )" ewd:textID="24">Diesel Throttle Body <tspan x="0 " dy="6.0">Assembly (Bank 2)</tspan></text></g></g><g ewd:figtype="conn" ewd:figID="25" ewd:code="C42"><path style="stroke-width: 1.42 ;&st7;  " d=" M  3977.33,   528.70  L  4045.32,   528.70  L  4045.32,   494.70  L  3977.33,   494.70  L  3977.33,   528.70  " /><g ewd:lineID="162"><text style="&st18;" transform="matrix(&st16;  3987.99  491.01 )">1</text><text style="&st18;" transform="matrix(&st16;  3988.15  502.34 )">NE+</text></g><g ewd:figtype="title"><text style="&st18;" transform="matrix(&st17;  3967.69  531.6 )" ewd:textID="22">Crank Position <tspan x="0 " dy="6.0">Sensor</tspan></text><text style="&st18;" transform="matrix(&st17;  3960.87  531.6 )">C42</text></g></g><g ewd:figtype="conn" ewd:figID="50" ewd:code="A29,C39,I84"><path style="stroke-width: 0.85 ;&st7; stroke-dasharray:3, 1.5;" d=" M  3696.88,   362.12  L  3739.37,   362.12  " /><path style="stroke-width: 0.85 ;&st7; stroke-dasharray:3, 1.5;" d=" M  3696.88,   371.19  L  3739.37,   371.19  " /><path style="stroke-width: 0.85 ;&st7; stroke-dasharray:3, 1.5;" d=" M  3764.87,   362.12  L  3807.36,   362.12  " /><path style="stroke-width: 0.85 ;&st7; stroke-dasharray:3, 1.5;" d=" M  3764.87,   371.19  L  3807.36,   371.19  " /><path style="stroke-width: 0.85 ;&st7; stroke-dasharray:3, 1.5;" d=" M  3832.86,   362.12  L  3875.35,   362.12  " /><path style="stroke-width: 0.85 ;&st7; stroke-dasharray:3, 1.5;" d=" M  3832.86,   371.19  L  3875.35,   371.19  " /><path style="stroke-width: 0.85 ;&st7; stroke-dasharray:3, 1.5;" d=" M  3900.85,   362.12  L  3943.34,   362.12  " /><path style="stroke-width: 0.85 ;&st7; stroke-dasharray:3, 1.5;" d=" M  3900.85,   371.19  L  3943.34,   371.19  " /><path style="stroke-width: 0.85 ;&st7; stroke-dasharray:3, 1.5;" d=" M  3968.84,   362.12  L  4011.33,   362.12  " /><path style="stroke-width: 0.85 ;&st7; stroke-dasharray:3, 1.5;" d=" M  3968.84,   371.19  L  4011.33,   371.19  " /><g ewd:lineID="145"><text style="&st18;" transform="matrix(&st16;  3548.09  373.16 )">65</text><text style="&st18;" transform="matrix(&st16;  3558.64  373.16 )">B</text><path style="stroke-width: 1.42 ;&st7;   " d=" M  3565.44,   371.19  C  3565.44    368.69   3563.41    366.66   3560.91    366.66  " /><path style="stroke-width: 1.42 ;&st7;   " d=" M  3560.91,   366.66  C  3558.40    366.66   3556.37    368.69   3556.37    371.19  " /><path style="stroke-width: 1.42 ;&st7;   " d=" M  3556.37,   371.19  C  3556.37    373.69   3558.40    375.72   3560.91    375.72  " /><path style="stroke-width: 1.42 ;&st7;   " d=" M  3560.91,   375.72  C  3563.41    375.72   3565.44    373.69   3565.44    371.19  " /><text style="&st18;" transform="matrix(&st16;  3557.51  383.36 )">IG</text></g><g ewd:lineID="147,148"><text style="&st18;" transform="matrix(&st16;  3675.57  364.09 )">53</text><text style="&st18;" transform="matrix(&st16;  3675.57  373.16 )">53</text><text style="&st18;" transform="matrix(&st16;  3685.96  373.16 )">C</text><path style="stroke-width: 1.42 ;&st7;   " d=" M  3692.92,   371.19  C  3692.92    368.69   3690.89    366.66   3688.38    366.66  " /><path style="stroke-width: 1.42 ;&st7;   " d=" M  3688.38,   366.66  C  3685.88    366.66   3683.85    368.69   3683.85    371.19  " /><path style="stroke-width: 1.42 ;&st7;   " d=" M  3683.85,   371.19  C  3683.85    373.69   3685.88    375.72   3688.38    375.72  " /><path style="stroke-width: 1.42 ;&st7;   " d=" M  3688.38,   375.72  C  3690.89    375.72   3692.92    373.69   3692.92    371.19  " /><path style="stroke-width: 1.42 ;&st7;   " d=" M  3692.92,   362.12  C  3692.92    359.62   3690.89    357.59   3688.38    357.59  " /><path style="stroke-width: 1.42 ;&st7;   " d=" M  3688.38,   357.59  C  3685.88    357.59   3683.85    359.62   3683.85    362.12  " /><path style="stroke-width: 1.42 ;&st7;   " d=" M  3683.85,   362.12  C  3683.85    364.63   3685.88    366.66   3688.38    366.66  " /><path style="stroke-width: 1.42 ;&st7;   " d=" M  3688.38,   366.66  C  3690.89    366.66   3692.92    364.63   3692.92    362.12  " /><text style="&st18;" transform="matrix(&st16;  3686.12  364.09 )">A</text><text style="&st18;" transform="matrix(&st16;  3682.09  383.36 )">VPA</text></g><g ewd:lineID="150,151"><text style="&st18;" transform="matrix(&st16;  3743.56  364.09 )">54</text><text style="&st18;" transform="matrix(&st16;  3743.56  373.16 )">54</text><text style="&st18;" transform="matrix(&st16;  3753.95  373.16 )">C</text><text style="&st18;" transform="matrix(&st16;  3754.11  364.09 )">A</text><path style="stroke-width: 1.42 ;&st7;   " d=" M  3760.90,   371.19  C  3760.90    368.69   3758.88    366.66   3756.37    366.66  " /><path style="stroke-width: 1.42 ;&st7;   " d=" M  3756.37,   366.66  C  3753.87    366.66   3751.84    368.69   3751.84    371.19  " /><path style="stroke-width: 1.42 ;&st7;   " d=" M  3751.84,   371.19  C  3751.84    373.69   3753.87    375.72   3756.37    375.72  " /><path style="stroke-width: 1.42 ;&st7;   " d=" M  3756.37,   375.72  C  3758.88    375.72   3760.90    373.69   3760.90    371.19  " /><path style="stroke-width: 1.42 ;&st7;   " d=" M  3760.90,   362.12  C  3760.90    359.62   3758.88    357.59   3756.37    357.59  " /><path style="stroke-width: 1.42 ;&st7;   " d=" M  3756.37,   357.59  C  3753.87    357.59   3751.84    359.62   3751.84    362.12  " /><path style="stroke-width: 1.42 ;&st7;   " d=" M  3751.84,   362.12  C  3751.84    364.63   3753.87    366.66   3756.37    366.66  " /><path style="stroke-width: 1.42 ;&st7;   " d=" M  3756.37,   366.66  C  3758.88    366.66   3760.90    364.63   3760.90    362.12  " /><text style="&st18;" transform="matrix(&st16;  3748.45  383.36 )">VPA2</text></g><g ewd:lineID="153,154"><text style="&st18;" transform="matrix(&st16;  3811.55  364.09 )">55</text><text style="&st18;" transform="matrix(&st16;  3811.55  373.16 )">55</text><text style="&st18;" transform="matrix(&st16;  3821.94  373.16 )">C</text><text style="&st18;" transform="matrix(&st16;  3822.1  364.09 )">A</text><path style="stroke-width: 1.42 ;&st7;   " d=" M  3828.89,   362.12  C  3828.89    359.62   3826.86    357.59   3824.36    357.59  " /><path style="stroke-width: 1.42 ;&st7;   " d=" M  3824.36,   357.59  C  3821.86    357.59   3819.83    359.62   3819.83    362.12  " /><path style="stroke-width: 1.42 ;&st7;   " d=" M  3819.83,   362.12  C  3819.83    364.63   3821.86    366.66   3824.36    366.66  " /><path style="stroke-width: 1.42 ;&st7;   " d=" M  3824.36,   366.66  C  3826.86    366.66   3828.89    364.63   3828.89    362.12  " /><path style="stroke-width: 1.42 ;&st7;   " d=" M  3828.89,   371.19  C  3828.89    368.69   3826.86    366.66   3824.36    366.66  " /><path style="stroke-width: 1.42 ;&st7;   " d=" M  3824.36,   366.66  C  3821.86    366.66   3819.83    368.69   3819.83    371.19  " /><path style="stroke-width: 1.42 ;&st7;   " d=" M  3819.83,   371.19  C  3819.83    373.69   3821.86    375.72   3824.36    375.72  " /><path style="stroke-width: 1.42 ;&st7;   " d=" M  3824.36,   375.72  C  3826.86    375.72   3828.89    373.69   3828.89    371.19  " /><text style="&st18;" transform="matrix(&st16;  3815.89  383.36 )">VCPA</text></g><g ewd:lineID="156,157"><text style="&st18;" transform="matrix(&st16;  3879.53  373.16 )">56</text><text style="&st18;" transform="matrix(&st16;  3879.53  364.09 )">56</text><path style="stroke-width: 1.42 ;&st7;   " d=" M  3896.88,   371.19  C  3896.88    368.69   3894.85    366.66   3892.35    366.66  " /><path style="stroke-width: 1.42 ;&st7;   " d=" M  3892.35,   366.66  C  3889.85    366.66   3887.82    368.69   3887.82    371.19  " /><path style="stroke-width: 1.42 ;&st7;   " d=" M  3887.82,   371.19  C  3887.82    373.69   3889.85    375.72   3892.35    375.72  " /><path style="stroke-width: 1.42 ;&st7;   " d=" M  3892.35,   375.72  C  3894.85    375.72   3896.88    373.69   3896.88    371.19  " /><text style="&st18;" transform="matrix(&st16;  3890.08  364.09 )">A</text><path style="stroke-width: 1.42 ;&st7;   " d=" M  3896.88,   362.12  C  3896.88    359.62   3894.85    357.59   3892.35    357.59  " /><path style="stroke-width: 1.42 ;&st7;   " d=" M  3892.35,   357.59  C  3889.85    357.59   3887.82    359.62   3887.82    362.12  " /><path style="stroke-width: 1.42 ;&st7;   " d=" M  3887.82,   362.12  C  3887.82    364.63   3889.85    366.66   3892.35    366.66  " /><path style="stroke-width: 1.42 ;&st7;   " d=" M  3892.35,   366.66  C  3894.85    366.66   3896.88    364.63   3896.88    362.12  " /><text style="&st18;" transform="matrix(&st16;  3889.93  373.16 )">C</text><text style="&st18;" transform="matrix(&st16;  3884.27  383.36 )">VCP2</text></g><g ewd:lineID="159,160"><text style="&st18;" transform="matrix(&st16;  3947.52  364.09 )">57</text><text style="&st18;" transform="matrix(&st16;  3947.52  373.16 )">57</text><text style="&st18;" transform="matrix(&st16;  3957.92  373.16 )">C</text><path style="stroke-width: 1.42 ;&st7;   " d=" M  3964.87,   362.12  C  3964.87    359.62   3962.84    357.59   3960.34    357.59  " /><path style="stroke-width: 1.42 ;&st7;   " d=" M  3960.34,   357.59  C  3957.84    357.59   3955.81    359.62   3955.81    362.12  " /><path style="stroke-width: 1.42 ;&st7;   " d=" M  3955.81,   362.12  C  3955.81    364.63   3957.84    366.66   3960.34    366.66  " /><path style="stroke-width: 1.42 ;&st7;   " d=" M  3960.34,   366.66  C  3962.84    366.66   3964.87    364.63   3964.87    362.12  " /><path style="stroke-width: 1.42 ;&st7;   " d=" M  3964.87,   371.19  C  3964.87    368.69   3962.84    366.66   3960.34    366.66  " /><path style="stroke-width: 1.42 ;&st7;   " d=" M  3960.34,   366.66  C  3957.84    366.66   3955.81    368.69   3955.81    371.19  " /><path style="stroke-width: 1.42 ;&st7;   " d=" M  3955.81,   371.19  C  3955.81    373.69   3957.84    375.72   3960.34    375.72  " /><path style="stroke-width: 1.42 ;&st7;   " d=" M  3960.34,   375.72  C  3962.84    375.72   3964.87    373.69   3964.87    371.19  " /><text style="&st18;" transform="matrix(&st16;  3958.07  364.09 )">A</text><text style="&st18;" transform="matrix(&st16;  3954.04  383.36 )">EPA</text></g><g ewd:lineID="162"><text style="&st18;" transform="matrix(&st16;  3981.52  416.22 )">78</text><path style="stroke-width: 1.42 ;&st7;   " d=" M  3998.87,   414.25  C  3998.87    411.75   3996.84    409.72   3994.33    409.72  " /><path style="stroke-width: 1.42 ;&st7;   " d=" M  3994.33,   409.72  C  3991.83    409.72   3989.80    411.75   3989.80    414.25  " /><path style="stroke-width: 1.42 ;&st7;   " d=" M  3989.80,   414.25  C  3989.80    416.75   3991.83    418.78   3994.33    418.78  " /><path style="stroke-width: 1.42 ;&st7;   " d=" M  3994.33,   418.78  C  3996.84    418.78   3998.87    416.75   3998.87    414.25  " /><text style="&st18;" transform="matrix(&st16;  3992.07  416.22 )">B</text><text style="&st18;" transform="matrix(&st16;  3988.15  406.02 )">NE+</text></g></g><g ewd:figtype="conn" ewd:figID="51" ewd:code="I43"><path style="stroke-width: 1.42 ;&st7;  " d=" M  3671.39,   222.75  L  4045.32,   222.75  L  4045.32,   180.26  L  3671.39,   180.26  L  3671.39,   222.75  " /><g ewd:lineID="148,149"><text style="&st18;" transform="matrix(&st16;  3682.04  230.94 )">6</text><text style="&st18;" transform="matrix(&st16;  3682.09  219.05 )">VPA</text></g><g ewd:lineID="151,152"><text style="&st18;" transform="matrix(&st16;  3750.03  230.94 )">3</text><text style="&st18;" transform="matrix(&st16;  3748.45  219.05 )">VPA2</text></g><g ewd:lineID="154,155"><text style="&st18;" transform="matrix(&st16;  3818.02  230.94 )">4</text><text style="&st18;" transform="matrix(&st16;  3815.89  219.05 )">VCPA</text></g><g ewd:lineID="157,158"><text style="&st18;" transform="matrix(&st16;  3886.01  230.94 )">1</text><text style="&st18;" transform="matrix(&st16;  3884.27  219.05 )">VCP2</text></g><g ewd:lineID="160,161"><text style="&st18;" transform="matrix(&st16;  3954.0  230.94 )">5</text><text style="&st18;" transform="matrix(&st16;  3954.04  219.05 )">EPA</text></g><g ewd:figtype="title"><text style="&st18;" transform="matrix(&st16;  3667.98  176.56 )" ewd:textID="13">Accelerator Pedal Sensor Assembly</text><text style="&st18;" transform="matrix(&st16;  3667.97  169.73 )">I43</text></g></g><g ewd:figtype="w2w" ewd:figID="138" ewd:code="AI3"><path style="stroke-width: 1.42 ;&st7;  " d=" M  3684.13,   281.67  L  3688.38,   285.92  L  3692.63,   281.67  " /><path style="stroke-width: 1.42 ;&st7;  " d=" M  3692.63,   285.07  L  3688.38,   289.32  L  3684.13,   285.07  " /><text style="&st18;" transform="matrix(&st16;  3671.63  296.96 )">21</text></g><g ewd:figtype="w2w" ewd:figID="139" ewd:code="AI3"><path style="stroke-width: 1.42 ;&st7;  " d=" M  3752.12,   281.67  L  3756.37,   285.92  L  3760.62,   281.67  " /><path style="stroke-width: 1.42 ;&st7;  " d=" M  3760.62,   285.07  L  3756.37,   289.32  L  3752.12,   285.07  " /><text style="&st18;" transform="matrix(&st16;  3739.62  296.96 )">37</text></g><g ewd:figtype="w2w" ewd:figID="140" ewd:code="AI3"><path style="stroke-width: 1.42 ;&st7;  " d=" M  3820.11,   281.67  L  3824.36,   285.92  L  3828.61,   281.67  " /><path style="stroke-width: 1.42 ;&st7;  " d=" M  3828.61,   285.07  L  3824.36,   289.32  L  3820.11,   285.07  " /><text style="&st18;" transform="matrix(&st16;  3807.61  296.96 )">35</text></g><g ewd:figtype="w2w" ewd:figID="141" ewd:code="AI3"><path style="stroke-width: 1.42 ;&st7;  " d=" M  3888.10,   281.67  L  3892.35,   285.92  L  3896.60,   281.67  " /><path style="stroke-width: 1.42 ;&st7;  " d=" M  3896.60,   285.07  L  3892.35,   289.32  L  3888.10,   285.07  " /><text style="&st18;" transform="matrix(&st16;  3875.6  296.96 )">51</text></g><g ewd:figtype="w2w" ewd:figID="142" ewd:code="AI3"><path style="stroke-width: 1.42 ;&st7;  " d=" M  3956.09,   281.67  L  3960.34,   285.92  L  3964.59,   281.67  " /><path style="stroke-width: 1.42 ;&st7;  " d=" M  3964.59,   285.07  L  3960.34,   289.32  L  3956.09,   285.07  " /><text style="&st18;" transform="matrix(&st16;  3943.59  296.96 )">36</text></g><g ewd:code=" " ewd:figID="248" ewd:comment=" " ewd:figtype="sh"><path style="stroke-width: 0.85 ;&st7; stroke-dasharray:3, 1.5;" d=" M  4045.32,   435.21  L  3977.33,   435.21  L  3977.33,   469.21  L  4045.32,   469.21  " /><path style="stroke-width: 0.85 ;&st7; stroke-dasharray:3, 1.5;" d=" M  4053.82,   443.71  L  4053.82,   460.71  " /><g ewd:code="" ewd:figID="249" ewd:comment=" " ewd:figtype="commref"><text style="&st18;" transform="matrix(&st17;  3973.64  465.57 )" ewd:textID="1">(Shielded)</text></g></g><g ewd:code="6" ewd:figID="285" ewd:comment="" ewd:figtype="comment"><text style="&st18;" transform="matrix(&st16;  3701.98  505.17 )" ewd:textID="4">* 6 :w/ Rear Differential Lock</text></g><g ewd:code="10" ewd:figID="343" ewd:comment="" ewd:figtype="comment"><text style="&st18;" transform="matrix(&st16;  3701.98  522.17 )" ewd:textID="8">*10 :From Sep. 2022 Production</text></g><g ewd:code="2" ewd:figID="341" ewd:comment="" ewd:figtype="comment"><text style="&st18;" transform="matrix(&st16;  3701.98  488.17 )">* 2 :1VD-FTV</text></g><g ewd:code="9" ewd:figID="342" ewd:comment="" ewd:figtype="comment"><text style="&st18;" transform="matrix(&st16;  3701.98  513.67 )" ewd:textID="7">* 9 :Before Sep. 2022 Production</text></g><g ewd:code="3" ewd:figID="352" ewd:comment="" ewd:figtype="comment"><text style="&st18;" transform="matrix(&st16;  3701.98  496.67 )">* 3 :1GR-FE</text></g></svg>