<?xml version="1.0" encoding="utf-8"?>
<!DOCTYPE svg PUBLIC "-//W3C//DTD SVG 1.0//EN" "http://www.w3.org/TR/2001/REC-SVG-20010904/DTD/svg10.dtd"[
	<!ENTITY ns_flows "http://ns.adobe.com/Flows/1.0/">
	<!ENTITY ns_svg "http://www.w3.org/2000/svg">
	<!ENTITY ns_xlink "http://www.w3.org/1999/xlink">
	<!ENTITY st0 "font-size:7px;font-family:'MS-PGothic';adobe-font-script:japanese;">
	<!ENTITY st1 "font-size:6px;font-family:'ArialMT';">
	<!-- White fill  -->
	<!ENTITY st2 "fill:#FFFFFF;stroke:#000000; stroke-width:1.41;stroke-linecap:round;stroke-linejoin:round;">
	<!-- Yellow fill  -->
	<!ENTITY st3 "fill:#FFFFCC;stroke:#FFFFCC; stroke-width:0.1;stroke-linecap:round;stroke-linejoin:round;">
	<!-- Gray fill  -->
	<!ENTITY st4 "fill:#CCCCCC;stroke:#CCCCCC; stroke-width:0.1;stroke-linecap:round;stroke-linejoin:round;">
	<!-- Light-blue fill -->
	<!ENTITY st5 "fill:#CCECF4;stroke:#000000; stroke-width:1.133;stroke-linecap:round;stroke-linejoin:round;">
	<!ENTITY st6 "fill:none;stroke-linecap:butt; stroke-linejoin:round;">
	<!ENTITY st7 "fill:none;stroke:#000000;stroke-linecap:round;stroke-linejoin:round;">
	<!ENTITY st8 "enable-background:new    ;">
	<!-- Black fill -->
	<!ENTITY st9 "fill:#000000;stroke:#000000; stroke-linecap:round;stroke-linejoin:round;">
	<!-- SRS note   -->
	<!ENTITY st10 "font-size:9px;font-family:'ArialMT';">
	<!ENTITY st11 "font-size:9px;font-family:'Svg Symbol';">
	<!ENTITY st12 "font-size:6px;font-family:'Svg Symbol';">
	<!ENTITY st13 "fill:none;stroke:#ff0000;stroke-linecap:round;stroke-linejoin:round;">
	<!-- Yellow fill  -->
	<!ENTITY st14 "fill:#FFFF00;stroke:#FFFF00; stroke-width:0.1;stroke-linecap:round;stroke-linejoin:round;">
	<!ENTITY st15 "font-size:6px;font-family:'MS-PGothic';adobe-font-script:japanese;">
	<!ENTITY st16 "1.00 0.00 0.00 1.00">
	<!ENTITY st17 "0.00 -1.00 1.00 0.00">
	<!ENTITY st18 "font-size:6px;font-family:'Arial';">
	<!ENTITY st19 "font-size:9px;font-family:'Arial';">
	<!ENTITY st20 "font-size:6px;font-family:'MS-PGothic','MS PGothic';adobe-font-script:japanese;">
	<!ENTITY st21 "font-size:7px;font-family:'MS-PGothic','MS PGothic';adobe-font-script:japanese;">
	<!ATTLIST svg
		xmlns:ewd CDATA #FIXED "http://shcl.co.jp/ewd"
		xmlns:a CDATA #FIXED "http://ns.adobe.com/AdobeSVGViewerExtensions/3.0/"
		ewd:ver CDATA #IMPLIED
	>
	<!ATTLIST a
		ewd:lineID CDATA #IMPLIED
		ewd:groupID CDATA #IMPLIED
		ewd:figtype CDATA #IMPLIED
		ewd:code CDATA #IMPLIED
		ewd:figID CDATA #IMPLIED
		ewd:pinNo CDATA #IMPLIED
		ewd:comment CDATA #IMPLIED >
	<!ATTLIST g
		ewd:lineID CDATA #IMPLIED
		ewd:groupID CDATA #IMPLIED
		ewd:figtype CDATA #IMPLIED
		ewd:code CDATA #IMPLIED
		ewd:figID CDATA #IMPLIED
		ewd:pinNo CDATA #IMPLIED
		ewd:comment CDATA #IMPLIED >
	<!ATTLIST text
		ewd:textID CDATA #IMPLIED >
	<!ATTLIST title
		ewd:textID CDATA #IMPLIED >
]>
<!-- Generator: Shintec Hozumi YS   -->
<svg onload="call_execInitLoadProc_svg('system')" style="overflow:visible;  enable-background:new 0 0 8273.909 710.000" viewBox="0 0 8273.909 710.000" height="710.000" width="8273.909" xml:space="preserve" ewd:ver="2.3.1.16" xmlns="&ns_svg;" xmlns:a="http://ns.adobe.com/AdobeSVGViewerExtensions/3.0/" xmlns:ewd="http://shcl.co.jp/ewd" xmlns:xlink="&ns_xlink;">
<path style="stroke-width: 1.42 ;&st7;  " d=" M  4529.74,   316.23  L  4538.24,   316.23  " /><path style="stroke-width: 1.42 ;&st7;  " d=" M  4580.73,   256.74  L  4589.23,   256.74  " /><path style="stroke-width: 1.42 ;&st7;  " d=" M  4597.73,   324.73  L  4589.23,   324.73  " /><path style="stroke-width: 1.42 ;&st7;  " d=" M  4546.74,   528.70  L  4538.24,   528.70  " /><path style="stroke-width: 1.42 ;&st7;  " d=" M  4546.74,   465.68  L  4541.77,   460.71  " /><path style="stroke-width: 1.42 ;&st7;  " d=" M  4529.74,   472.74  L  4534.71,   477.71  " /><path style="stroke-width: 1.42 ;&st7;  " d=" M  4541.77,   477.71  L  4546.74,   472.74  " /><path style="stroke-width: 1.42 ;&st7;  " d=" M  4534.71,   460.71  L  4529.74,   465.68  " /><path style="stroke-width: 1.42 ;&st7;  " d=" M  4546.74,   265.24  L  4538.24,   265.24  " /><text style="&st18;" transform="matrix(&st17;  4545.88  221.93 )">(*6 *4 *7)</text><text style="&st18;" transform="matrix(&st17;  4534.55  214.56 )">R-L</text><text style="&st18;" transform="matrix(&st17;  4585.54  214.56 )">R-L</text><text style="&st18;" transform="matrix(&st17;  4596.87  221.93 )">(*6 *5 *7)</text><text style="&st18;" transform="matrix(&st17;  4585.54  352.15 )">R</text><text style="&st18;" transform="matrix(&st17;  4596.87  358.47 )">(*6 *5)</text><text style="&st18;" transform="matrix(&st17;  4534.55  352.15 )">R</text><text style="&st18;" transform="matrix(&st17;  4545.88  358.47 )">(*6 *4)</text><text style="&st18;" transform="matrix(&st17;  4534.55  449.43 )">W-B</text><text style="&st18;" transform="matrix(&st17;  4534.55  295.29 )">R-L</text><text style="&st18;" transform="matrix(&st17;  4545.88  298.98 )">(*6 *4)</text><text style="&st18;" transform="matrix(&st17;  4585.54  295.29 )">R-L</text><text style="&st18;" transform="matrix(&st17;  4596.87  298.98 )">(*6 *5)</text><text style="&st18;" transform="matrix(&st17;  4534.55  670.4 )">W-B</text><text style="&st18;" transform="matrix(&st17;  4545.88  672.92 )">(*6 *4)</text><text style="&st18;" transform="matrix(&st17;  4534.55  500.42 )">W-B</text><text style="&st18;" transform="matrix(&st17;  4545.88  502.94 )">(*6 *4)</text><path style="stroke-width: 1.42 ;&st7;  " d=" M  4546.74,   146.26  L  4538.24,   146.26  " /><text style="&st18;" transform="matrix(&st17;  4545.88  448.27 )">(*6)</text><path style="stroke-width: 1.42 ;&st7;  " d=" M  4835.69,   350.23  L  4844.19,   350.23  " /><path style="stroke-width: 1.42 ;&st7;  " d=" M  4759.20,   350.23  L  4767.70,   350.23  " /><text style="&st18;" transform="matrix(&st16;  4925.25  485.34 )">(RHD *8)</text><text style="&st18;" transform="matrix(&st17;  4967.97  180.68 )">B-Y</text><text style="&st18;" transform="matrix(&st17;  4967.97  274.16 )">B-Y</text><text style="&st18;" transform="matrix(&st17;  4764.01  180.56 )">R-L</text><text style="&st18;" transform="matrix(&st17;  4840.5  312.95 )">G-R</text><text style="&st18;" transform="matrix(&st17;  4764.01  313.77 )">G-W</text><text style="&st18;" transform="matrix(&st17;  4775.34  319.66 )">(RHD *9)</text><text style="&st18;" transform="matrix(&st17;  4851.83  319.66 )">(RHD *9)</text><text style="&st18;" transform="matrix(&st17;  4942.48  273.74 )">GR</text><text style="&st18;" transform="matrix(&st17;  4979.31  274.05 )">(*9)</text><text style="&st18;" transform="matrix(&st16;  4688.95  32.08 )">B</text><text style="&st18;" transform="matrix(&st16;  4688.02  49.08 )">W</text><text style="&st18;" transform="matrix(&st16;  4637.03  49.08 )">W</text><text style="&st18;" transform="matrix(&st16;  4637.96  32.08 )">B</text><text style="&st18;" transform="matrix(&st16;  4688.95  643.98 )">B</text><text style="&st18;" transform="matrix(&st16;  4680.65  609.99 )">G-R(*9)</text><text style="&st18;" transform="matrix(&st16;  4688.02  592.99 )">W</text><text style="&st18;" transform="matrix(&st16;  4637.03  592.99 )">W</text><text style="&st18;" transform="matrix(&st16;  4629.66  609.99 )">G-R(*9)</text><text style="&st18;" transform="matrix(&st16;  4637.96  643.98 )">B</text><text style="&st18;" transform="matrix(&st17;  4775.34  180.56 )">(*9)</text><text style="&st18;" transform="matrix(&st16;  4629.47  66.08 )">SB(*10)</text><text style="&st18;" transform="matrix(&st17;  4800.84  182.23 )">(*10)</text><path style="stroke-width: 1.42 ;&st7;  " d=" M  4886.68,   358.73  L  4878.18,   358.73  " /><path style="stroke-width: 1.42 ;&st7;  " d=" M  4742.21,   358.73  L  4733.71,   358.73  " /><text style="&st18;" transform="matrix(&st17;  4730.01  313.77 )">G-W</text><text style="&st18;" transform="matrix(&st17;  4741.35  319.12 )">(LHD *9)</text><text style="&st18;" transform="matrix(&st17;  4874.49  312.95 )">G-R</text><text style="&st18;" transform="matrix(&st17;  4885.82  319.12 )">(LHD *9)</text><text style="&st18;" transform="matrix(&st17;  4874.49  389.44 )">G-R</text><text style="&st18;" transform="matrix(&st17;  4885.82  391.96 )">(LHD)</text><text style="&st18;" transform="matrix(&st17;  4840.5  397.94 )">G-R</text><text style="&st18;" transform="matrix(&st17;  4851.83  404.65 )">(RHD *7)</text><text style="&st18;" transform="matrix(&st17;  4781.01  407.25 )">G-W</text><text style="&st18;" transform="matrix(&st17;  4792.34  413.14 )">(RHD *7)</text><text style="&st18;" transform="matrix(&st17;  4730.01  390.25 )">G-W</text><text style="&st18;" transform="matrix(&st17;  4741.35  391.96 )">(LHD)</text><text style="&st18;" transform="matrix(&st17;  4509.05  211.92 )">R</text><text style="&st18;" transform="matrix(&st17;  4520.38  221.93 )">(*6 *4 *8)</text><text style="&st18;" transform="matrix(&st17;  4622.37  221.93 )">(*6 *5 *8)</text><text style="&st18;" transform="matrix(&st17;  4611.03  211.92 )">R</text><text style="&st18;" transform="matrix(&st16;  4935.41  431.52 )">P</text><text style="&st18;" transform="matrix(&st16;  4925.25  442.85 )">(RHD *8)</text><text style="&st18;" transform="matrix(&st17;  4815.0  309.5 )">P</text><text style="&st18;" transform="matrix(&st16;  4934.48  474.01 )">W</text><text style="&st18;" transform="matrix(&st17;  4789.5  179.79 )">SB</text><text style="&st18;" transform="matrix(&st16;  4680.46  66.08 )">SB(*10)</text><text style="&st18;" transform="matrix(&st16;  4681.35  83.07 )">R-L(*9)</text><text style="&st18;" transform="matrix(&st16;  4630.36  83.07 )">R-L(*9)</text><text style="&st18;" transform="matrix(&st17;  4953.81  275.72 )">(*10)</text><text style="&st18;" transform="matrix(&st17;  4953.81  182.23 )">(*10)</text><text style="&st18;" transform="matrix(&st17;  4942.48  180.25 )">GR</text><text style="&st18;" transform="matrix(&st17;  4979.31  180.56 )">(*9)</text><text style="&st18;" transform="matrix(&st17;  4789.5  310.43 )">W</text><text style="&st18;" transform="matrix(&st17;  4800.84  321.33 )">(RHD *10)</text><text style="&st18;" transform="matrix(&st17;  4704.52  310.43 )">W</text><text style="&st18;" transform="matrix(&st17;  4715.85  320.78 )">(LHD *10)</text><text style="&st18;" transform="matrix(&st17;  4911.32  320.78 )">(LHD *10)</text><text style="&st18;" transform="matrix(&st17;  4899.98  309.5 )">P</text><text style="&st18;" transform="matrix(&st17;  4826.33  321.33 )">(RHD *10)</text><text style="&st18;" transform="matrix(&st16;  4629.47  626.98 )">SB(*10)</text><text style="&st18;" transform="matrix(&st16;  4680.46  626.98 )">SB(*10)</text><g ewd:figtype="conn" ewd:figID="14" ewd:code="V1"><path style="stroke-width: 0.85 ;&st7;  " d=" M  4538.24,   418.22  L  4538.24,   413.97  " /><path style="stroke-width: 0.85 ;&st7;   " d=" M  4539.66,   412.55  C  4539.66    411.77   4539.02    411.13   4538.24    411.13  " /><path style="stroke-width: 0.85 ;&st7;   " d=" M  4538.24,   411.13  C  4537.46    411.13   4536.83    411.77   4536.83    412.55  " /><path style="stroke-width: 0.85 ;&st7;   " d=" M  4536.83,   412.55  C  4536.83    413.33   4537.46    413.97   4538.24    413.97  " /><path style="stroke-width: 0.85 ;&st7;   " d=" M  4538.24,   413.97  C  4539.02    413.97   4539.66    413.33   4539.66    412.55  " /><path style="stroke-width: 0.85 ;&st7;   " d=" M  4539.66,   389.89  C  4539.66    389.10   4539.02    388.47   4538.24    388.47  " /><path style="stroke-width: 0.85 ;&st7;   " d=" M  4538.24,   388.47  C  4537.46    388.47   4536.83    389.10   4536.83    389.89  " /><path style="stroke-width: 0.85 ;&st7;   " d=" M  4536.83,   389.89  C  4536.83    390.67   4537.46    391.30   4538.24    391.30  " /><path style="stroke-width: 0.85 ;&st7;   " d=" M  4538.24,   391.30  C  4539.02    391.30   4539.66    390.67   4539.66    389.89  " /><path style="stroke-width: 1.42 ;&st7;  " d=" M  4538.24,   411.13  L  4543.91,   388.47  " /><path style="stroke-width: 0.85 ;&st7;  " d=" M  4538.24,   388.47  L  4538.24,   384.22  " /><path style="stroke-width: 1.42 ;&st7;  " d=" M  4546.74,   418.22  L  4546.74,   384.22  L  4529.74,   384.22  L  4529.74,   418.22  L  4546.74,   418.22  " /><text style="&st18;" transform="matrix(&st16;  4531.9  426.41 )">1</text><text style="&st18;" transform="matrix(&st16;  4531.9  380.53 )">2</text><g ewd:figtype="title"><text style="&st18;" transform="matrix(&st17;  4513.27  421.11 )">V1</text><text style="&st18;" transform="matrix(&st17;  4520.1  421.12 )" ewd:textID="65">Rear Differential <tspan x="0 " dy="6.0">Lock Position Switch</tspan></text></g></g><g ewd:figtype="rb" ewd:figID="22" ewd:code="FUSE23"><path style="stroke-width: 1.42 ;&st7;  " d=" M  4973.79,   137.76  L  4969.54,   137.76  " /><path style="stroke-width: 1.42 ;&st7;  " d=" M  4973.79,   146.26  L  4969.54,   146.26  " /><path style="stroke-width: 0.85 ;&st7;  " d=" M  4971.67,   120.77  L  4971.67,   137.76  " /><path style="stroke-width: 1.42 ;&st7;   " d=" M  4969.54,   137.76  C  4967.20    137.76   4965.30    139.66   4965.30    142.01  " /><path style="stroke-width: 1.42 ;&st7;   " d=" M  4965.30,   142.01  C  4965.30    144.36   4967.20    146.26   4969.54    146.26  " /><path style="stroke-width: 1.42 ;&st7;   " d=" M  4973.79,   146.26  C  4976.14    146.26   4978.04    144.36   4978.04    142.01  " /><path style="stroke-width: 1.42 ;&st7;   " d=" M  4978.04,   142.01  C  4978.04    139.66   4976.14    137.76   4973.79    137.76  " /><path style="stroke-width: 0.28 ;&st9;  " d=" M  4971.67,   132.87  L  4968.83,   130.03  L  4968.83,   134.28  L  4971.67,   137.12  L  4974.50,   134.28  L  4974.50,   130.03  L  4971.67,   132.87  " /><text style="&st18;" transform="matrix(&st16;  4988.09  98.66 )">15A <tspan x="0 " dy="6.0">ECU IG</tspan></text><text style="&st18;" transform="matrix(&st16;  4969.79  143.98 )">2</text><text style="&st18;" transform="matrix(&st16;  4965.33  128.96 )">2</text><text style="&st18;" transform="matrix(&st16;  4966.3  74.58 )">(IG)</text><path style="stroke-width: 0.85 ;&st7;  " d=" M  4971.67,   112.27  L  4971.67,   120.77  " /><path style="stroke-width: 1.42 ;&st7;   " d=" M  4971.67,    89.60  C  4968.93     91.22   4968.02     94.74   4969.63     97.48  " /><path style="stroke-width: 1.42 ;&st7;   " d=" M  4969.63,    97.48  C  4970.15     98.36   4970.79     99.00   4971.67     99.52  " /><path style="stroke-width: 1.42 ;&st7;   " d=" M  4971.67,   109.43  C  4974.41    107.82   4975.32    104.29   4973.71    101.56  " /><path style="stroke-width: 1.42 ;&st7;   " d=" M  4973.71,   101.56  C  4973.19    100.67   4972.55    100.04   4971.67     99.52  " /><path style="stroke-width: 0.85 ;&st7;   " d=" M  4973.09,    88.19  C  4973.09     87.40   4972.45     86.77   4971.67     86.77  " /><path style="stroke-width: 0.85 ;&st7;   " d=" M  4971.67,    86.77  C  4970.89     86.77   4970.25     87.40   4970.25     88.19  " /><path style="stroke-width: 0.85 ;&st7;   " d=" M  4970.25,    88.19  C  4970.25     88.97   4970.89     89.60   4971.67     89.60  " /><path style="stroke-width: 0.85 ;&st7;   " d=" M  4971.67,    89.60  C  4972.45     89.60   4973.09     88.97   4973.09     88.19  " /><path style="stroke-width: 0.85 ;&st7;   " d=" M  4973.09,   110.85  C  4973.09    110.07   4972.45    109.43   4971.67    109.43  " /><path style="stroke-width: 0.85 ;&st7;   " d=" M  4971.67,   109.43  C  4970.89    109.43   4970.25    110.07   4970.25    110.85  " /><path style="stroke-width: 0.85 ;&st7;   " d=" M  4970.25,   110.85  C  4970.25    111.63   4970.89    112.27   4971.67    112.27  " /><path style="stroke-width: 0.85 ;&st7;   " d=" M  4971.67,   112.27  C  4972.45    112.27   4973.09    111.63   4973.09    110.85  " /><path style="stroke-width: 1.42 ;&st7;  " d=" M  4958.92,    78.27  L  4958.92,   120.77  L  4984.42,   120.77  L  4984.42,    78.27  L  4958.92,    78.27  " /></g><g ewd:figtype="conn" ewd:figID="24" ewd:code="I105"><path style="stroke-width: 1.42 ;&st7;  " d=" M  4963.17,   214.25  L  4980.17,   214.25  L  4980.17,   231.25  L  4963.17,   231.25  L  4963.17,   214.25  " /><path style="stroke-width: 0.85 ;&st7;  " d=" M  4971.67,   214.25  L  4971.67,   231.25  " /><text style="&st18;" transform="matrix(&st16;  4962.19  237.75 )">5</text><path style="stroke-width: 1.42 ;&st7;   " d=" M  4976.20,   235.78  C  4976.20    233.28   4974.17    231.25   4971.67    231.25  " /><path style="stroke-width: 1.42 ;&st7;   " d=" M  4971.67,   231.25  C  4969.17    231.25   4967.14    233.28   4967.14    235.78  " /><path style="stroke-width: 1.42 ;&st7;   " d=" M  4967.14,   235.78  C  4967.14    238.28   4969.17    240.31   4971.67    240.31  " /><path style="stroke-width: 1.42 ;&st7;   " d=" M  4971.67,   240.31  C  4974.17    240.31   4976.20    238.28   4976.20    235.78  " /><text style="&st18;" transform="matrix(&st16;  4969.4  237.75 )">A</text><text style="&st18;" transform="matrix(&st16;  4962.19  211.69 )">9</text><path style="stroke-width: 1.42 ;&st7;   " d=" M  4976.20,   209.72  C  4976.20    207.21   4974.17    205.18   4971.67    205.18  " /><path style="stroke-width: 1.42 ;&st7;   " d=" M  4971.67,   205.18  C  4969.17    205.18   4967.14    207.21   4967.14    209.72  " /><path style="stroke-width: 1.42 ;&st7;   " d=" M  4967.14,   209.72  C  4967.14    212.22   4969.17    214.25   4971.67    214.25  " /><path style="stroke-width: 1.42 ;&st7;   " d=" M  4971.67,   214.25  C  4974.17    214.25   4976.20    212.22   4976.20    209.72  " /><text style="&st18;" transform="matrix(&st16;  4969.4  211.69 )">A</text><g ewd:figtype="title"><text style="&st18;" transform="matrix(&st17;  4994.89  234.15 )" ewd:textID="43">No. 8 Junction <tspan x="0 " dy="6.0">Connector</tspan></text><text style="&st18;" transform="matrix(&st17;  4988.06  234.15 )">I105(A)</text></g></g><g ewd:figtype="conn" ewd:figID="26" ewd:code="I110"><path style="stroke-width: 1.42 ;&st7;  " d=" M  4963.17,   307.73  L  4980.17,   307.73  L  4980.17,   324.73  L  4963.17,   324.73  L  4963.17,   307.73  " /><path style="stroke-width: 0.85 ;&st7;  " d=" M  4971.67,   307.73  L  4971.67,   324.73  " /><text style="&st18;" transform="matrix(&st16;  4958.85  331.23 )">13</text><path style="stroke-width: 1.42 ;&st7;   " d=" M  4976.20,   329.26  C  4976.20    326.76   4974.17    324.73   4971.67    324.73  " /><path style="stroke-width: 1.42 ;&st7;   " d=" M  4971.67,   324.73  C  4969.17    324.73   4967.14    326.76   4967.14    329.26  " /><path style="stroke-width: 1.42 ;&st7;   " d=" M  4967.14,   329.26  C  4967.14    331.77   4969.17    333.80   4971.67    333.80  " /><path style="stroke-width: 1.42 ;&st7;   " d=" M  4971.67,   333.80  C  4974.17    333.80   4976.20    331.77   4976.20    329.26  " /><text style="&st18;" transform="matrix(&st16;  4969.4  331.23 )">B</text><text style="&st18;" transform="matrix(&st16;  4962.19  305.17 )">4</text><path style="stroke-width: 1.42 ;&st7;   " d=" M  4976.20,   303.20  C  4976.20    300.70   4974.17    298.67   4971.67    298.67  " /><path style="stroke-width: 1.42 ;&st7;   " d=" M  4971.67,   298.67  C  4969.17    298.67   4967.14    300.70   4967.14    303.20  " /><path style="stroke-width: 1.42 ;&st7;   " d=" M  4967.14,   303.20  C  4967.14    305.70   4969.17    307.73   4971.67    307.73  " /><path style="stroke-width: 1.42 ;&st7;   " d=" M  4971.67,   307.73  C  4974.17    307.73   4976.20    305.70   4976.20    303.20  " /><text style="&st18;" transform="matrix(&st16;  4969.4  305.17 )">B</text><g ewd:figtype="title"><text style="&st18;" transform="matrix(&st17;  4994.89  327.64 )" ewd:textID="58">No. 33 Junction <tspan x="0 " dy="6.0">Connector</tspan></text><text style="&st18;" transform="matrix(&st17;  4988.06  327.63 )">I110(B)</text></g></g><g ewd:figtype="conn" ewd:figID="52" ewd:code="I8"><path style="stroke-width: 1.42 ;&st7;  " d=" M  4750.70,   256.74  L  4861.19,   256.74  L  4861.19,   222.75  L  4750.70,   222.75  L  4750.70,   256.74  " /><g ewd:lineID="107,190"><text style="&st18;" transform="matrix(&st16;  4761.36  219.06 )">2</text><text style="&st18;" transform="matrix(&st16;  4761.64  230.38 )">RLP</text></g><g ewd:lineID="185,186,188,189"><text style="&st18;" transform="matrix(&st16;  4761.36  264.94 )">6</text><text style="&st18;" transform="matrix(&st16;  4763.46  253.05 )">RF</text></g><g ewd:lineID="193,194,196,197"><text style="&st18;" transform="matrix(&st16;  4834.52  264.94 )">12</text><text style="&st18;" transform="matrix(&st16;  4841.77  253.05 )">R</text></g><g ewd:figtype="title"><text style="&st18;" transform="matrix(&st17;  4875.91  259.65 )" ewd:textID="32">No. 2 Four Wheel Drive Control ECU</text><text style="&st18;" transform="matrix(&st17;  4869.08  259.64 )">I8</text></g></g><g ewd:figtype="w2w" ewd:figID="145" ewd:code="VT1"><path style="stroke-width: 1.42 ;&st7;  " d=" M  4542.49,   537.76  L  4538.24,   533.51  L  4533.99,   537.76  " /><path style="stroke-width: 1.42 ;&st7;  " d=" M  4542.49,   534.36  L  4538.24,   530.11  L  4533.99,   534.36  " /><text style="&st18;" transform="matrix(&st16;  4524.82  526.42 )">8</text></g><g ewd:figtype="w2w" ewd:figID="146" ewd:code="VT1"><text style="&st18;" transform="matrix(&st16;  4521.49  322.45 )">10</text><path style="stroke-width: 1.42 ;&st7;  " d=" M  4533.99,   307.17  L  4538.24,   311.42  L  4542.49,   307.17  " /><path style="stroke-width: 1.42 ;&st7;  " d=" M  4542.49,   310.57  L  4538.24,   314.82  L  4533.99,   310.57  " /></g><g ewd:figtype="w2w" ewd:figID="147" ewd:code="ST3"><text style="&st18;" transform="matrix(&st16;  4521.49  262.96 )">10</text><path style="stroke-width: 1.42 ;&st7;  " d=" M  4542.49,   270.91  L  4538.24,   266.66  L  4533.99,   270.91  " /><path style="stroke-width: 1.42 ;&st7;  " d=" M  4542.49,   274.31  L  4538.24,   270.06  L  4533.99,   274.31  " /></g><g ewd:figtype="w2w" ewd:figID="148" ewd:code="IS2"><text style="&st18;" transform="matrix(&st16;  4524.82  143.98 )">9</text><path style="stroke-width: 1.42 ;&st7;  " d=" M  4542.49,   155.33  L  4538.24,   151.08  L  4533.99,   155.33  " /><path style="stroke-width: 1.42 ;&st7;  " d=" M  4542.49,   151.93  L  4538.24,   147.68  L  4533.99,   151.93  " /></g><g ewd:figtype="w2w" ewd:figID="149" ewd:code="TV2"><text style="&st18;" transform="matrix(&st16;  4572.48  322.45 )">10</text><path style="stroke-width: 1.42 ;&st7;  " d=" M  4593.48,   330.40  L  4589.23,   326.15  L  4584.98,   330.40  " /><path style="stroke-width: 1.42 ;&st7;  " d=" M  4593.48,   333.80  L  4589.23,   329.55  L  4584.98,   333.80  " /></g><g ewd:figtype="w2w" ewd:figID="150" ewd:code="TS4"><text style="&st18;" transform="matrix(&st16;  4575.82  262.96 )">2</text><path style="stroke-width: 1.42 ;&st7;  " d=" M  4584.98,   247.68  L  4589.23,   251.93  L  4593.48,   247.68  " /><path style="stroke-width: 1.42 ;&st7;  " d=" M  4593.48,   251.08  L  4589.23,   255.33  L  4584.98,   251.08  " /></g><g ewd:figtype="w2w" ewd:figID="151" ewd:code="IL2"><path style="stroke-width: 1.42 ;&st7;  " d=" M  4737.96,   367.79  L  4733.71,   363.54  L  4729.46,   367.79  " /><path style="stroke-width: 1.42 ;&st7;  " d=" M  4737.96,   364.39  L  4733.71,   360.14  L  4729.46,   364.39  " /><text style="&st18;" transform="matrix(&st16;  4716.96  356.45 )">12</text></g><g ewd:figtype="w2w" ewd:figID="152" ewd:code="LI1"><path style="stroke-width: 1.42 ;&st7;  " d=" M  4763.45,   341.16  L  4767.70,   345.41  L  4771.95,   341.16  " /><path style="stroke-width: 1.42 ;&st7;  " d=" M  4771.95,   344.56  L  4767.70,   348.81  L  4763.45,   344.56  " /><text style="&st18;" transform="matrix(&st16;  4754.29  356.45 )">7</text></g><g ewd:figtype="w2w" ewd:figID="153" ewd:code="LI1"><path style="stroke-width: 1.42 ;&st7;  " d=" M  4839.94,   341.16  L  4844.19,   345.41  L  4848.44,   341.16  " /><path style="stroke-width: 1.42 ;&st7;  " d=" M  4848.44,   344.56  L  4844.19,   348.81  L  4839.94,   344.56  " /><text style="&st18;" transform="matrix(&st16;  4830.77  356.45 )">8</text></g><g ewd:figtype="w2w" ewd:figID="154" ewd:code="IL2"><path style="stroke-width: 1.42 ;&st7;  " d=" M  4882.43,   367.79  L  4878.18,   363.54  L  4873.93,   367.79  " /><path style="stroke-width: 1.42 ;&st7;  " d=" M  4882.43,   364.39  L  4878.18,   360.14  L  4873.93,   364.39  " /><text style="&st18;" transform="matrix(&st16;  4861.43  356.45 )">11</text></g><g ewd:figtype="gp" ewd:figID="199" ewd:code="TB"><path style="stroke-width: 0.85 ;&st7;  " d=" M  4538.24,   697.25  L  4538.24,   701.50  " /><path style="stroke-width: 0.85 ;&st7;  " d=" M  4529.74,   701.50  L  4546.74,   701.50  " /><path style="stroke-width: 0.85 ;&st7;  " d=" M  4533.99,   704.33  L  4542.49,   704.33  " /><path style="stroke-width: 0.85 ;&st7;  " d=" M  4535.41,   707.17  L  4541.07,   707.17  " /><path style="stroke-width: 0.85 ;&st7;  " d=" M  4536.82,   710.00  L  4539.66,   710.00  " /></g></svg>