<?xml version="1.0" encoding="utf-8"?>
<!DOCTYPE svg PUBLIC "-//W3C//DTD SVG 1.0//EN" "http://www.w3.org/TR/2001/REC-SVG-20010904/DTD/svg10.dtd"[
	<!ENTITY ns_flows "http://ns.adobe.com/Flows/1.0/">
	<!ENTITY ns_svg "http://www.w3.org/2000/svg">
	<!ENTITY ns_xlink "http://www.w3.org/1999/xlink">
	<!ENTITY st0 "font-size:7px;font-family:'MS-PGothic';adobe-font-script:japanese;">
	<!ENTITY st1 "font-size:6px;font-family:'ArialMT';">
	<!-- White fill  -->
	<!ENTITY st2 "fill:#FFFFFF;stroke:#000000; stroke-width:1.41;stroke-linecap:round;stroke-linejoin:round;">
	<!-- Yellow fill  -->
	<!ENTITY st3 "fill:#FFFFCC;stroke:#FFFFCC; stroke-width:0.1;stroke-linecap:round;stroke-linejoin:round;">
	<!-- Gray fill  -->
	<!ENTITY st4 "fill:#CCCCCC;stroke:#CCCCCC; stroke-width:0.1;stroke-linecap:round;stroke-linejoin:round;">
	<!-- Light-blue fill -->
	<!ENTITY st5 "fill:#CCECF4;stroke:#000000; stroke-width:1.133;stroke-linecap:round;stroke-linejoin:round;">
	<!ENTITY st6 "fill:none;stroke-linecap:butt; stroke-linejoin:round;">
	<!ENTITY st7 "fill:none;stroke:#000000;stroke-linecap:round;stroke-linejoin:round;">
	<!ENTITY st8 "enable-background:new    ;">
	<!-- Black fill -->
	<!ENTITY st9 "fill:#000000;stroke:#000000; stroke-linecap:round;stroke-linejoin:round;">
	<!-- SRS note   -->
	<!ENTITY st10 "font-size:9px;font-family:'ArialMT';">
	<!ENTITY st11 "font-size:9px;font-family:'Svg Symbol';">
	<!ENTITY st12 "font-size:6px;font-family:'Svg Symbol';">
	<!ENTITY st13 "fill:none;stroke:#ff0000;stroke-linecap:round;stroke-linejoin:round;">
	<!-- Yellow fill  -->
	<!ENTITY st14 "fill:#FFFF00;stroke:#FFFF00; stroke-width:0.1;stroke-linecap:round;stroke-linejoin:round;">
	<!ENTITY st15 "font-size:6px;font-family:'MS-PGothic';adobe-font-script:japanese;">
	<!ENTITY st16 "1.00 0.00 0.00 1.00">
	<!ENTITY st17 "0.00 -1.00 1.00 0.00">
	<!ENTITY st18 "font-size:6px;font-family:'Arial';">
	<!ENTITY st19 "font-size:9px;font-family:'Arial';">
	<!ENTITY st20 "font-size:6px;font-family:'MS-PGothic','MS PGothic';adobe-font-script:japanese;">
	<!ENTITY st21 "font-size:7px;font-family:'MS-PGothic','MS PGothic';adobe-font-script:japanese;">
	<!ATTLIST svg
		xmlns:ewd CDATA #FIXED "http://shcl.co.jp/ewd"
		xmlns:a CDATA #FIXED "http://ns.adobe.com/AdobeSVGViewerExtensions/3.0/"
		ewd:ver CDATA #IMPLIED
	>
	<!ATTLIST a
		ewd:lineID CDATA #IMPLIED
		ewd:groupID CDATA #IMPLIED
		ewd:figtype CDATA #IMPLIED
		ewd:code CDATA #IMPLIED
		ewd:figID CDATA #IMPLIED
		ewd:pinNo CDATA #IMPLIED
		ewd:comment CDATA #IMPLIED >
	<!ATTLIST g
		ewd:lineID CDATA #IMPLIED
		ewd:groupID CDATA #IMPLIED
		ewd:figtype CDATA #IMPLIED
		ewd:code CDATA #IMPLIED
		ewd:figID CDATA #IMPLIED
		ewd:pinNo CDATA #IMPLIED
		ewd:comment CDATA #IMPLIED >
	<!ATTLIST text
		ewd:textID CDATA #IMPLIED >
	<!ATTLIST title
		ewd:textID CDATA #IMPLIED >
]>
<!-- Generator: Shintec Hozumi YS   -->
<svg onload="call_execInitLoadProc_svg('system')" style="overflow:visible;  enable-background:new 0 0 4625.098 710.000" viewBox="0 0 4625.098 710.000" height="710.000" width="4625.098" xml:space="preserve" ewd:ver="2.3.1.16" xmlns="&ns_svg;" xmlns:a="http://ns.adobe.com/AdobeSVGViewerExtensions/3.0/" xmlns:ewd="http://shcl.co.jp/ewd" xmlns:xlink="&ns_xlink;">
<path style="stroke-width: 1.42 ;&st7;  " d=" M  4504.25,   103.77  L  4495.75,   103.77  " /><text style="&st18;" transform="matrix(&st17;  4492.05  75.94 )">R</text><text style="&st18;" transform="matrix(&st17;  4492.05  131.19 )">R</text><path style="stroke-width: 1.42 ;&st7;  " d=" M  4453.26,   460.71  L  4461.75,   460.71  " /><path style="stroke-width: 1.42 ;&st7;  " d=" M  4453.26,   536.63  L  4461.75,   536.63  " /><text style="&st18;" transform="matrix(&st16;  4395.89  490.44 )">R-W</text><text style="&st18;" transform="matrix(&st16;  4393.52  501.77 )">(RHD)</text><text style="&st18;" transform="matrix(&st17;  4248.43  655.35 )">(RHD)</text><text style="&st18;" transform="matrix(&st17;  4299.42  545.5 )">(LHD)</text><text style="&st18;" transform="matrix(&st17;  4288.09  543.48 )">W-B</text><text style="&st18;" transform="matrix(&st17;  4299.42  654.85 )">(LHD)</text><text style="&st18;" transform="matrix(&st17;  4288.09  652.83 )">W-B</text><text style="&st18;" transform="matrix(&st17;  4237.1  652.83 )">W-B</text><text style="&st18;" transform="matrix(&st17;  4248.43  544.87 )">(RHD)</text><text style="&st18;" transform="matrix(&st17;  4237.1  542.35 )">W-B</text><text style="&st18;" transform="matrix(&st17;  4469.39  523.12 )">(LHD)</text><text style="&st18;" transform="matrix(&st17;  4458.06  521.26 )">R-W</text><text style="&st18;" transform="matrix(&st17;  4458.06  415.03 )">R-W</text><path style="stroke-width: 1.42 ;&st7;  " d=" M  4237.26,   579.69  L  4232.29,   584.66  " /><path style="stroke-width: 1.42 ;&st7;  " d=" M  4244.32,   596.69  L  4249.29,   591.72  " /><path style="stroke-width: 1.42 ;&st7;  " d=" M  4232.29,   591.72  L  4237.26,   596.69  " /><path style="stroke-width: 1.42 ;&st7;  " d=" M  4249.29,   584.66  L  4244.32,   579.69  " /><text style="&st18;" transform="matrix(&st16;  4395.89  584.49 )">R-W</text><text style="&st18;" transform="matrix(&st16;  4394.03  595.82 )">(LHD)</text><text style="&st18;" transform="matrix(&st17;  4001.97  386.2 )">(*21)</text><text style="&st18;" transform="matrix(&st17;  4001.97  454.19 )">(*21)</text><text style="&st18;" transform="matrix(&st17;  4432.56  411.48 )">V</text><text style="&st18;" transform="matrix(&st17;  4443.9  415.94 )">(*22)</text><text style="&st18;" transform="matrix(&st17;  4469.39  415.94 )">(*21)</text><text style="&st18;" transform="matrix(&st16;  4033.67  142.56 )">B-Y(*23)</text><text style="&st18;" transform="matrix(&st16;  4043.06  159.56 )">V</text><text style="&st18;" transform="matrix(&st16;  4038.6  170.89 )">(*24)</text><g ewd:figtype="rb" ewd:figID="24" ewd:code="FUSE18"><path style="stroke-width: 0.85 ;&st7;  " d=" M  4070.82,    86.77  L  4070.82,   103.77  " /><path style="stroke-width: 1.42 ;&st7;  " d=" M  4072.94,   112.27  L  4068.70,   112.27  " /><path style="stroke-width: 1.42 ;&st7;  " d=" M  4072.94,   103.77  L  4068.70,   103.77  " /><path style="stroke-width: 1.42 ;&st7;   " d=" M  4077.19,   108.02  C  4077.19    105.67   4075.29    103.77   4072.94    103.77  " /><path style="stroke-width: 1.42 ;&st7;   " d=" M  4072.94,   112.27  C  4075.29    112.27   4077.19    110.36   4077.19    108.02  " /><path style="stroke-width: 1.42 ;&st7;   " d=" M  4064.45,   108.02  C  4064.45    110.36   4066.35    112.27   4068.70    112.27  " /><path style="stroke-width: 1.42 ;&st7;   " d=" M  4068.70,   103.77  C  4066.35    103.77   4064.45    105.67   4064.45    108.02  " /><path style="stroke-width: 0.28 ;&st9;  " d=" M  4070.82,    98.87  L  4067.99,    96.04  L  4067.99,   100.29  L  4070.82,   103.12  L  4073.65,   100.29  L  4073.65,    96.04  L  4070.82,    98.87  " /><text style="&st18;" transform="matrix(&st16;  4065.45  40.58 )">(IG)</text><text style="&st18;" transform="matrix(&st16;  4064.48  94.96 )">2</text><text style="&st18;" transform="matrix(&st16;  4068.94  109.99 )">2</text><text style="&st18;" transform="matrix(&st16;  4087.24  64.67 )">10A <tspan x="0 " dy="6.0">MET</tspan></text><path style="stroke-width: 0.85 ;&st7;  " d=" M  4070.82,    78.27  L  4070.82,    86.77  " /><path style="stroke-width: 0.85 ;&st7;   " d=" M  4072.24,    76.86  C  4072.24     76.07   4071.60     75.44   4070.82     75.44  " /><path style="stroke-width: 0.85 ;&st7;   " d=" M  4070.82,    75.44  C  4070.04     75.44   4069.40     76.07   4069.40     76.86  " /><path style="stroke-width: 0.85 ;&st7;   " d=" M  4069.40,    76.86  C  4069.40     77.64   4070.04     78.27   4070.82     78.27  " /><path style="stroke-width: 0.85 ;&st7;   " d=" M  4070.82,    78.27  C  4071.60     78.27   4072.24     77.64   4072.24     76.86  " /><path style="stroke-width: 0.85 ;&st7;   " d=" M  4072.24,    54.19  C  4072.24     53.41   4071.60     52.78   4070.82     52.78  " /><path style="stroke-width: 0.85 ;&st7;   " d=" M  4070.82,    52.78  C  4070.04     52.78   4069.40     53.41   4069.40     54.19  " /><path style="stroke-width: 0.85 ;&st7;   " d=" M  4069.40,    54.19  C  4069.40     54.98   4070.04     55.61   4070.82     55.61  " /><path style="stroke-width: 0.85 ;&st7;   " d=" M  4070.82,    55.61  C  4071.60     55.61   4072.24     54.98   4072.24     54.19  " /><path style="stroke-width: 1.42 ;&st7;   " d=" M  4070.82,    75.44  C  4073.56     73.83   4074.47     70.30   4072.86     67.56  " /><path style="stroke-width: 1.42 ;&st7;   " d=" M  4072.86,    67.56  C  4072.34     66.68   4071.70     66.04   4070.82     65.52  " /><path style="stroke-width: 1.42 ;&st7;   " d=" M  4070.82,    55.61  C  4068.08     57.22   4067.17     60.75   4068.78     63.49  " /><path style="stroke-width: 1.42 ;&st7;   " d=" M  4068.78,    63.49  C  4069.30     64.37   4069.94     65.00   4070.82     65.52  " /><path style="stroke-width: 1.42 ;&st7;  " d=" M  4058.07,    44.28  L  4058.07,    86.77  L  4083.57,    86.77  L  4083.57,    44.28  L  4058.07,    44.28  " /></g><g ewd:figtype="conn" ewd:figID="28" ewd:code="A15,I85"><path style="stroke-width: 0.85 ;&st7; stroke-dasharray:3, 1.5;" d=" M  4249.29,   456.18  L  4313.03,   456.18  " /><path style="stroke-width: 0.85 ;&st7; stroke-dasharray:3, 1.5;" d=" M  4249.29,   465.24  L  4313.03,   465.24  " /><path style="stroke-width: 1.42 ;&st7;  " d=" M  4223.79,   417.65  L  4223.79,   451.64  L  4342.77,   451.64  L  4342.77,   417.65  L  4223.79,   417.65  " /><g ewd:lineID="197,199"><text style="&st18;" transform="matrix(&st16;  4231.31  458.14 )">2</text><text style="&st18;" transform="matrix(&st16;  4231.31  467.21 )">2</text><text style="&st18;" transform="matrix(&st16;  4238.53  467.21 )">B</text><path style="stroke-width: 1.42 ;&st7;   " d=" M  4245.32,   465.24  C  4245.32    462.74   4243.29    460.71   4240.79    460.71  " /><path style="stroke-width: 1.42 ;&st7;   " d=" M  4240.79,   460.71  C  4238.29    460.71   4236.26    462.74   4236.26    465.24  " /><path style="stroke-width: 1.42 ;&st7;   " d=" M  4236.26,   465.24  C  4236.26    467.74   4238.29    469.77   4240.79    469.77  " /><path style="stroke-width: 1.42 ;&st7;   " d=" M  4240.79,   469.77  C  4243.29    469.77   4245.32    467.74   4245.32    465.24  " /><path style="stroke-width: 1.42 ;&st7;   " d=" M  4245.32,   456.18  C  4245.32    453.67   4243.29    451.64   4240.79    451.64  " /><path style="stroke-width: 1.42 ;&st7;   " d=" M  4240.79,   451.64  C  4238.29    451.64   4236.26    453.67   4236.26    456.18  " /><path style="stroke-width: 1.42 ;&st7;   " d=" M  4236.26,   456.18  C  4236.26    458.68   4238.29    460.71   4240.79    460.71  " /><path style="stroke-width: 1.42 ;&st7;   " d=" M  4240.79,   460.71  C  4243.29    460.71   4245.32    458.68   4245.32    456.18  " /><text style="&st18;" transform="matrix(&st16;  4238.53  458.14 )">A</text><text style="&st18;" transform="matrix(&st16;  4238.53  447.95 )">E</text></g><g ewd:lineID="200,201"><text style="&st18;" transform="matrix(&st16;  4316.3  467.21 )">1</text><text style="&st18;" transform="matrix(&st16;  4316.3  458.14 )">1</text><text style="&st18;" transform="matrix(&st16;  4323.51  467.21 )">B</text><text style="&st18;" transform="matrix(&st16;  4323.51  458.14 )">A</text><path style="stroke-width: 1.42 ;&st7;   " d=" M  4330.31,   465.24  C  4330.31    462.74   4328.28    460.71   4325.78    460.71  " /><path style="stroke-width: 1.42 ;&st7;   " d=" M  4325.78,   460.71  C  4323.27    460.71   4321.24    462.74   4321.24    465.24  " /><path style="stroke-width: 1.42 ;&st7;   " d=" M  4321.24,   465.24  C  4321.24    467.74   4323.27    469.77   4325.78    469.77  " /><path style="stroke-width: 1.42 ;&st7;   " d=" M  4325.78,   469.77  C  4328.28    469.77   4330.31    467.74   4330.31    465.24  " /><path style="stroke-width: 1.42 ;&st7;   " d=" M  4330.31,   456.18  C  4330.31    453.67   4328.28    451.64   4325.78    451.64  " /><path style="stroke-width: 1.42 ;&st7;   " d=" M  4325.78,   451.64  C  4323.27    451.64   4321.24    453.67   4321.24    456.18  " /><path style="stroke-width: 1.42 ;&st7;   " d=" M  4321.24,   456.18  C  4321.24    458.68   4323.27    460.71   4325.78    460.71  " /><path style="stroke-width: 1.42 ;&st7;   " d=" M  4325.78,   460.71  C  4328.28    460.71   4330.31    458.68   4330.31    456.18  " /><text style="&st18;" transform="matrix(&st16;  4323.82  447.95 )">+</text></g><g ewd:figtype="title"><text style="&st18;" transform="matrix(&st16;  4220.39  396.11 )" ewd:textID="19">Brake Fluid Level <tspan x="0 " dy="6.0">Warning Switch </tspan><tspan x="0 " dy="6.0">(Brake Master Cylinder </tspan><tspan x="0 " dy="6.0">Reservoir Sub-Assembly)</tspan></text><text style="&st18;" transform="matrix(&st16;  4220.38  389.28 )">A15(A),I85(B)</text></g></g><g ewd:code="A23" ewd:figID="34" ewd:comment="1,2" ewd:figtype="conn"><path style="stroke-width: 0.85 ;&st7;  " d=" M  4291.78,   579.12  L  4291.78,   596.12  " /><path style="stroke-width: 1.42 ;&st7;  " d=" M  4283.28,   579.12  L  4300.28,   579.12  L  4300.28,   596.12  L  4283.28,   596.12  L  4283.28,   579.12  " /><text style="&st18;" transform="matrix(&st16;  4282.3  602.62 )">1</text><path style="stroke-width: 1.42 ;&st7;   " d=" M  4296.32,   600.65  C  4296.32    598.15   4294.29    596.12   4291.78    596.12  " /><path style="stroke-width: 1.42 ;&st7;   " d=" M  4291.78,   596.12  C  4289.28    596.12   4287.25    598.15   4287.25    600.65  " /><path style="stroke-width: 1.42 ;&st7;   " d=" M  4287.25,   600.65  C  4287.25    603.15   4289.28    605.18   4291.78    605.18  " /><path style="stroke-width: 1.42 ;&st7;   " d=" M  4291.78,   605.18  C  4294.29    605.18   4296.32    603.15   4296.32    600.65  " /><text style="&st18;" transform="matrix(&st16;  4289.52  602.62 )">A</text><text style="&st18;" transform="matrix(&st16;  4282.3  576.56 )">3</text><text style="&st18;" transform="matrix(&st16;  4282.3  567.49 )">4</text><path style="stroke-width: 1.42 ;&st7;   " d=" M  4296.32,   565.52  C  4296.32    563.02   4294.29    560.99   4291.78    560.99  " /><path style="stroke-width: 1.42 ;&st7;   " d=" M  4291.78,   560.99  C  4289.28    560.99   4287.25    563.02   4287.25    565.52  " /><path style="stroke-width: 1.42 ;&st7;   " d=" M  4287.25,   565.52  C  4287.25    568.03   4289.28    570.06   4291.78    570.06  " /><path style="stroke-width: 1.42 ;&st7;   " d=" M  4291.78,   570.06  C  4294.29    570.06   4296.32    568.03   4296.32    565.52  " /><text style="&st18;" transform="matrix(&st16;  4289.52  576.56 )">A</text><path style="stroke-width: 1.42 ;&st7;   " d=" M  4296.32,   574.59  C  4296.32    572.09   4294.29    570.06   4291.78    570.06  " /><path style="stroke-width: 1.42 ;&st7;   " d=" M  4291.78,   570.06  C  4289.28    570.06   4287.25    572.09   4287.25    574.59  " /><path style="stroke-width: 1.42 ;&st7;   " d=" M  4287.25,   574.59  C  4287.25    577.09   4289.28    579.12   4291.78    579.12  " /><path style="stroke-width: 1.42 ;&st7;   " d=" M  4291.78,   579.12  C  4294.29    579.12   4296.32    577.09   4296.32    574.59  " /><text style="&st18;" transform="matrix(&st16;  4289.52  567.49 )">A</text><g ewd:figtype="title"><text style="&st18;" transform="matrix(&st17;  4273.64  599.03 )" ewd:textID="31">No. 2 Junction <tspan x="0 " dy="6.0">Connector</tspan></text><text style="&st18;" transform="matrix(&st17;  4266.82  599.02 )">A23(A)</text></g><g ewd:code="" ewd:figID="309" ewd:comment="1" ewd:figtype="commref"><text style="&st18;" transform="matrix(&st16;  4296.88  567.49 )">(*1)</text></g><g ewd:code="" ewd:figID="310" ewd:comment="2" ewd:figtype="commref"><text style="&st18;" transform="matrix(&st16;  4296.88  576.56 )">(*2)</text></g></g><g ewd:code="AI3" ewd:figID="152" ewd:comment="2" ewd:figtype="w2w"><text style="&st18;" transform="matrix(&st16;  4445.0  551.35 )">22</text><g ewd:code="" ewd:figID="314" ewd:comment="2" ewd:figtype="commref"><text style="&st18;" transform="matrix(&st16;  4470.79  551.35 )">(*2)</text></g></g><g ewd:code="AI3" ewd:figID="153" ewd:comment="1" ewd:figtype="w2w"><path style="stroke-width: 1.42 ;&st7;  " d=" M  4457.50,   527.56  L  4461.75,   531.81  L  4466.00,   527.56  " /><path style="stroke-width: 1.42 ;&st7;  " d=" M  4466.00,   530.96  L  4461.75,   535.21  L  4457.50,   530.96  " /><text style="&st18;" transform="matrix(&st16;  4448.34  542.85 )">8</text><g ewd:code="" ewd:figID="313" ewd:comment="1" ewd:figtype="commref"><text style="&st18;" transform="matrix(&st16;  4470.79  542.85 )">(*1)</text></g></g><g ewd:figtype="w2w" ewd:figID="154" ewd:code="IL5"><text style="&st18;" transform="matrix(&st16;  4445.0  475.43 )">16</text><g ewd:code="" ewd:figID="308" ewd:comment="" ewd:figtype="commref"><text style="&st18;" transform="matrix(&st16;  4470.79  475.43 )">(RHD)</text></g></g><g ewd:figtype="w2w" ewd:figID="155" ewd:code="IL2"><path style="stroke-width: 1.42 ;&st7;  " d=" M  4457.50,   451.64  L  4461.75,   455.89  L  4466.00,   451.64  " /><path style="stroke-width: 1.42 ;&st7;  " d=" M  4466.00,   455.04  L  4461.75,   459.29  L  4457.50,   455.04  " /><text style="&st18;" transform="matrix(&st16;  4445.0  466.93 )">19</text><g ewd:code="" ewd:figID="307" ewd:comment="" ewd:figtype="commref"><text style="&st18;" transform="matrix(&st16;  4470.79  466.93 )">(LHD)</text></g></g><g ewd:figtype="w2w" ewd:figID="156" ewd:code="IL6"><path style="stroke-width: 1.42 ;&st7;  " d=" M  4500.00,   112.83  L  4495.75,   108.58  L  4491.50,   112.83  " /><path style="stroke-width: 1.42 ;&st7;  " d=" M  4500.00,   109.43  L  4495.75,   105.18  L  4491.50,   109.43  " /><text style="&st18;" transform="matrix(&st16;  4482.33  101.49 )">8</text><g ewd:code="" ewd:figID="199" ewd:comment="" ewd:figtype="commref"><text style="&st18;" transform="matrix(&st16;  4504.78  101.49 )">(RHD)</text></g></g><g ewd:figtype="w2w" ewd:figID="157" ewd:code="IL2"><text style="&st18;" transform="matrix(&st16;  4482.33  92.99 )">2</text><g ewd:code="" ewd:figID="198" ewd:comment="" ewd:figtype="commref"><text style="&st18;" transform="matrix(&st16;  4504.78  92.99 )">(LHD)</text></g></g><g ewd:figtype="gp" ewd:figID="172" ewd:code="IE"><path style="stroke-width: 0.85 ;&st7;  " d=" M  4239.37,   709.43  L  4242.21,   709.43  " /><path style="stroke-width: 0.85 ;&st7;  " d=" M  4237.96,   706.60  L  4243.62,   706.60  " /><path style="stroke-width: 0.85 ;&st7;  " d=" M  4236.54,   703.77  L  4245.04,   703.77  " /><path style="stroke-width: 0.85 ;&st7;  " d=" M  4232.29,   700.93  L  4249.29,   700.93  " /><path style="stroke-width: 0.85 ;&st7;  " d=" M  4240.79,   696.69  L  4240.79,   700.93  " /></g><g ewd:figtype="gp" ewd:figID="173" ewd:code="AA"><path style="stroke-width: 0.85 ;&st7;  " d=" M  4290.36,   709.43  L  4293.20,   709.43  " /><path style="stroke-width: 0.85 ;&st7;  " d=" M  4288.95,   706.60  L  4294.61,   706.60  " /><path style="stroke-width: 0.85 ;&st7;  " d=" M  4287.53,   703.77  L  4296.03,   703.77  " /><path style="stroke-width: 0.85 ;&st7;  " d=" M  4283.28,   700.93  L  4300.28,   700.93  " /><path style="stroke-width: 0.85 ;&st7;  " d=" M  4291.78,   696.69  L  4291.78,   700.93  " /></g><g ewd:code="" ewd:figID="311" ewd:comment="" ewd:figtype="commref"><text style="&st18;" transform="matrix(&st16;  4330.87  467.21 )">(RHD)</text></g><g ewd:code="" ewd:figID="312" ewd:comment="" ewd:figtype="commref"><text style="&st18;" transform="matrix(&st16;  4330.87  458.14 )">(LHD)</text></g><g ewd:code="21" ewd:figID="330" ewd:comment="" ewd:figtype="comment"><text style="&st18;" transform="matrix(&st16;  4271.38  63.24 )" ewd:textID="13">*21 :Before Jul. 2021 Production</text></g><g ewd:code="22" ewd:figID="329" ewd:comment="" ewd:figtype="comment"><text style="&st18;" transform="matrix(&st16;  4271.38  71.74 )" ewd:textID="14">*22 :From Jul. 2021 Production</text></g><g ewd:code="2" ewd:figID="315" ewd:comment="" ewd:figtype="comment"><text style="&st18;" transform="matrix(&st16;  4271.38  54.75 )">* 2 :1HZ</text></g><g ewd:code="1" ewd:figID="316" ewd:comment="" ewd:figtype="comment"><text style="&st18;" transform="matrix(&st16;  4271.38  46.25 )">* 1 :1GR-FE</text></g></svg>