<?xml version="1.0" encoding="utf-8"?>
<!DOCTYPE svg PUBLIC "-//W3C//DTD SVG 1.0//EN" "http://www.w3.org/TR/2001/REC-SVG-20010904/DTD/svg10.dtd"[
	<!ENTITY ns_flows "http://ns.adobe.com/Flows/1.0/">
	<!ENTITY ns_svg "http://www.w3.org/2000/svg">
	<!ENTITY ns_xlink "http://www.w3.org/1999/xlink">
	<!ENTITY st0 "font-size:7px;font-family:'MS-PGothic';adobe-font-script:japanese;">
	<!ENTITY st1 "font-size:6px;font-family:'ArialMT';">
	<!-- White fill  -->
	<!ENTITY st2 "fill:#FFFFFF;stroke:#000000; stroke-width:1.41;stroke-linecap:round;stroke-linejoin:round;">
	<!-- Yellow fill  -->
	<!ENTITY st3 "fill:#FFFFCC;stroke:#FFFFCC; stroke-width:0.1;stroke-linecap:round;stroke-linejoin:round;">
	<!-- Gray fill  -->
	<!ENTITY st4 "fill:#CCCCCC;stroke:#CCCCCC; stroke-width:0.1;stroke-linecap:round;stroke-linejoin:round;">
	<!-- Light-blue fill -->
	<!ENTITY st5 "fill:#CCECF4;stroke:#000000; stroke-width:1.133;stroke-linecap:round;stroke-linejoin:round;">
	<!ENTITY st6 "fill:none;stroke-linecap:butt; stroke-linejoin:round;">
	<!ENTITY st7 "fill:none;stroke:#000000;stroke-linecap:round;stroke-linejoin:round;">
	<!ENTITY st8 "enable-background:new    ;">
	<!-- Black fill -->
	<!ENTITY st9 "fill:#000000;stroke:#000000; stroke-linecap:round;stroke-linejoin:round;">
	<!-- SRS note   -->
	<!ENTITY st10 "font-size:9px;font-family:'ArialMT';">
	<!ENTITY st11 "font-size:9px;font-family:'Svg Symbol';">
	<!ENTITY st12 "font-size:6px;font-family:'Svg Symbol';">
	<!ENTITY st13 "fill:none;stroke:#ff0000;stroke-linecap:round;stroke-linejoin:round;">
	<!-- Yellow fill  -->
	<!ENTITY st14 "fill:#FFFF00;stroke:#FFFF00; stroke-width:0.1;stroke-linecap:round;stroke-linejoin:round;">
	<!ENTITY st15 "font-size:6px;font-family:'MS-PGothic';adobe-font-script:japanese;">
	<!ENTITY st16 "1.00 0.00 0.00 1.00">
	<!ENTITY st17 "0.00 -1.00 1.00 0.00">
	<!ENTITY st18 "font-size:6px;font-family:'Arial';">
	<!ENTITY st19 "font-size:9px;font-family:'Arial';">
	<!ENTITY st20 "font-size:6px;font-family:'MS-PGothic','MS PGothic';adobe-font-script:japanese;">
	<!ENTITY st21 "font-size:7px;font-family:'MS-PGothic','MS PGothic';adobe-font-script:japanese;">
	<!ATTLIST svg
		xmlns:ewd CDATA #FIXED "http://shcl.co.jp/ewd"
		xmlns:a CDATA #FIXED "http://ns.adobe.com/AdobeSVGViewerExtensions/3.0/"
		ewd:ver CDATA #IMPLIED
	>
	<!ATTLIST a
		ewd:lineID CDATA #IMPLIED
		ewd:groupID CDATA #IMPLIED
		ewd:figtype CDATA #IMPLIED
		ewd:code CDATA #IMPLIED
		ewd:figID CDATA #IMPLIED
		ewd:pinNo CDATA #IMPLIED
		ewd:comment CDATA #IMPLIED >
	<!ATTLIST g
		ewd:lineID CDATA #IMPLIED
		ewd:groupID CDATA #IMPLIED
		ewd:figtype CDATA #IMPLIED
		ewd:code CDATA #IMPLIED
		ewd:figID CDATA #IMPLIED
		ewd:pinNo CDATA #IMPLIED
		ewd:comment CDATA #IMPLIED >
	<!ATTLIST text
		ewd:textID CDATA #IMPLIED >
	<!ATTLIST title
		ewd:textID CDATA #IMPLIED >
]>
<!-- Generator: Shintec Hozumi YS   -->
<svg onload="call_execInitLoadProc_svg('system')" style="overflow:visible;  enable-background:new 0 0 3105.354 710.000" viewBox="0 0 3105.354 710.000" height="710.000" width="3105.354" xml:space="preserve" ewd:ver="2.3.1.16" xmlns="&ns_svg;" xmlns:a="http://ns.adobe.com/AdobeSVGViewerExtensions/3.0/" xmlns:ewd="http://shcl.co.jp/ewd" xmlns:xlink="&ns_xlink;">
<path style="stroke-width: 1.42 ;&st7;  " d=" M  1147.31,   333.23  L  1138.81,   333.23  " /><path style="stroke-width: 1.42 ;&st7;  " d=" M  1198.30,   333.23  L  1189.80,   333.23  " /><path style="stroke-width: 1.42 ;&st7;  " d=" M  1147.31,   409.72  L  1138.81,   409.72  " /><path style="stroke-width: 1.42 ;&st7;  " d=" M  1232.29,   341.73  L  1223.80,   341.73  " /><path style="stroke-width: 1.42 ;&st7;  " d=" M  1266.29,   103.77  L  1274.79,   103.77  " /><path style="stroke-width: 1.42 ;&st7;  " d=" M  1283.29,   333.23  L  1291.78,   333.23  " /><path style="stroke-width: 1.42 ;&st7;  " d=" M  1300.28,   435.21  L  1291.78,   435.21  " /><path style="stroke-width: 1.42 ;&st7;  " d=" M  1410.76,   562.69  L  1419.26,   562.69  " /><path style="stroke-width: 1.42 ;&st7;  " d=" M  1427.76,   622.18  L  1419.26,   622.18  " /><path style="stroke-width: 1.42 ;&st7;  " d=" M  1444.76,   613.68  L  1453.26,   613.68  " /><text style="&st18;" transform="matrix(&st16;  1303.73  49.08 )">L-R(*5 *9)</text><text style="&st18;" transform="matrix(&st16;  1252.73  134.07 )">L-R</text><text style="&st18;" transform="matrix(&st16;  1205.99  134.07 )">L-R</text><text style="&st18;" transform="matrix(&st16;  1048.77  32.08 )">L-R(*5 *9)</text><text style="&st18;" transform="matrix(&st17;  1186.11  312.72 )">Y-G</text><text style="&st18;" transform="matrix(&st17;  1197.44  312.29 )">(*4)</text><text style="&st18;" transform="matrix(&st17;  1135.11  312.72 )">Y-G</text><text style="&st18;" transform="matrix(&st17;  1146.45  312.29 )">(*3)</text><text style="&st18;" transform="matrix(&st17;  1092.62  312.72 )">Y-G</text><text style="&st18;" transform="matrix(&st17;  1103.95  312.29 )">(*2)</text><text style="&st18;" transform="matrix(&st17;  1135.11  372.21 )">Y-G</text><text style="&st18;" transform="matrix(&st17;  1146.45  375.47 )">(*3 *9)</text><text style="&st18;" transform="matrix(&st17;  1092.62  372.21 )">Y-G</text><text style="&st18;" transform="matrix(&st17;  1103.95  371.78 )">(*2)</text><text style="&st18;" transform="matrix(&st17;  1135.11  440.2 )">Y-G</text><text style="&st18;" transform="matrix(&st17;  1146.45  439.77 )">(*3)</text><text style="&st18;" transform="matrix(&st17;  1186.11  372.21 )">Y-G</text><text style="&st18;" transform="matrix(&st17;  1197.44  371.78 )">(*4)</text><text style="&st18;" transform="matrix(&st17;  1262.59  258.82 )">G</text><text style="&st18;" transform="matrix(&st17;  1220.1  309.11 )">L</text><text style="&st18;" transform="matrix(&st17;  1220.1  368.6 )">L</text><text style="&st18;" transform="matrix(&st17;  1424.07  220.28 )">W-G</text><text style="&st18;" transform="matrix(&st17;  1475.06  220.28 )">W-G</text><text style="&st18;" transform="matrix(&st17;  1322.08  262.77 )">W-G</text><text style="&st18;" transform="matrix(&st17;  1347.58  258.82 )">G</text><text style="&st18;" transform="matrix(&st17;  1288.09  262.77 )">W-G</text><text style="&st18;" transform="matrix(&st17;  1322.08  386.0 )">W-G</text><text style="&st18;" transform="matrix(&st17;  1333.41  384.53 )">(*2)</text><text style="&st18;" transform="matrix(&st17;  1075.63  581.72 )">B-W(*2)</text><text style="&st18;" transform="matrix(&st17;  1288.09  386.0 )">W-G</text><text style="&st18;" transform="matrix(&st17;  1299.42  384.53 )">(*4)</text><text style="&st18;" transform="matrix(&st17;  1449.56  534.42 )">B-W</text><text style="&st18;" transform="matrix(&st17;  1460.89  536.94 )">(*2 *9)</text><text style="&st18;" transform="matrix(&st17;  1415.57  534.42 )">B-W</text><text style="&st18;" transform="matrix(&st17;  1426.9  536.94 )">(*4 *9)</text><text style="&st18;" transform="matrix(&st17;  1449.56  598.16 )">B-W</text><text style="&st18;" transform="matrix(&st17;  1460.89  596.99 )">(*2)</text><text style="&st18;" transform="matrix(&st17;  1415.57  598.16 )">B-W</text><text style="&st18;" transform="matrix(&st17;  1426.9  596.99 )">(*4)</text><text style="&st18;" transform="matrix(&st17;  1322.08  483.74 )">W-G</text><text style="&st18;" transform="matrix(&st17;  1333.41  482.26 )">(*2)</text><text style="&st18;" transform="matrix(&st17;  1288.09  483.74 )">W-G</text><text style="&st18;" transform="matrix(&st17;  1299.42  482.26 )">(*4)</text><text style="&st18;" transform="matrix(&st17;  1092.62  581.72 )">B-W(*4)</text><text style="&st18;" transform="matrix(&st17;  1373.07  262.77 )">W-G</text><text style="&st18;" transform="matrix(&st17;  1398.57  258.82 )">G</text><text style="&st18;" transform="matrix(&st16;  1205.99  145.4 )">(*5)</text><text style="&st18;" transform="matrix(&st16;  1252.73  145.4 )">(*5)</text><text style="&st18;" transform="matrix(&st17;  1231.43  312.29 )">(*5)</text><text style="&st18;" transform="matrix(&st17;  1231.43  371.78 )">(*5)</text><text style="&st18;" transform="matrix(&st17;  1435.4  222.49 )">(*5 *9)</text><text style="&st18;" transform="matrix(&st17;  1486.39  222.49 )">(*5 *9)</text><text style="&st18;" transform="matrix(&st17;  1058.63  581.72 )">B-W(*3)</text><text style="&st18;" transform="matrix(&st16;  1049.74  15.09 )">R(*5 *10)</text><path style="stroke-width: 1.42 ;&st7;  " d=" M  1317.28,   426.71  L  1325.78,   426.71  " /><path style="stroke-width: 1.42 ;&st7;  " d=" M  1385.27,   435.21  L  1376.77,   435.21  " /><text style="&st18;" transform="matrix(&st17;  1373.07  483.74 )">W-G</text><text style="&st18;" transform="matrix(&st17;  1384.41  482.26 )">(*3)</text><path style="stroke-width: 1.42 ;&st7;  " d=" M  1317.28,   324.73  L  1325.78,   324.73  " /><path style="stroke-width: 1.42 ;&st7;  " d=" M  1087.82,   324.73  L  1096.32,   324.73  " /><path style="stroke-width: 1.42 ;&st7;  " d=" M  1444.76,   562.69  L  1453.26,   562.69  " /><text style="&st18;" transform="matrix(&st17;  1486.39  538.61 )">(*2 *10)</text><text style="&st18;" transform="matrix(&st17;  1475.06  531.39 )">W</text><text style="&st18;" transform="matrix(&st17;  1160.61  371.01 )">SB</text><text style="&st18;" transform="matrix(&st17;  1171.94  377.13 )">(*3 *10)</text><text style="&st18;" transform="matrix(&st17;  1401.4  538.61 )">(*4 *10)</text><text style="&st18;" transform="matrix(&st17;  1390.07  531.39 )">W</text><text style="&st18;" transform="matrix(&st17;  1273.93  266.65 )">(*4 *10)</text><text style="&st18;" transform="matrix(&st17;  1449.56  216.33 )">G</text><text style="&st18;" transform="matrix(&st17;  1460.89  224.16 )">(*5 *10)</text><text style="&st18;" transform="matrix(&st17;  1358.91  266.65 )">(*2 *10)</text><text style="&st18;" transform="matrix(&st17;  1333.42  264.98 )">(*2 *9)</text><text style="&st18;" transform="matrix(&st17;  1299.42  264.98 )">(*4 *9)</text><text style="&st18;" transform="matrix(&st17;  1384.41  264.98 )">(*3 *9)</text><text style="&st18;" transform="matrix(&st17;  1409.9  266.65 )">(*3 *10)</text><text style="&st18;" transform="matrix(&st16;  1304.7  66.08 )">R(*5 *10)</text><g ewd:figtype="rb" ewd:figID="1" ewd:code="1"><path style="stroke-width: 1.42 ;&st7;  " d=" M  1225.92,   163.26  L  1221.67,   163.26  " /><path style="stroke-width: 1.42 ;&st7;  " d=" M  1225.92,   171.76  L  1221.67,   171.76  " /><path style="stroke-width: 1.42 ;&st7;  " d=" M  1200.42,   163.26  L  1196.18,   163.26  " /><path style="stroke-width: 1.42 ;&st7;  " d=" M  1200.42,   171.76  L  1196.18,   171.76  " /><path style="stroke-width: 1.42 ;&st7;  " d=" M  1140.93,   273.74  L  1136.69,   273.74  " /><path style="stroke-width: 1.42 ;&st7;  " d=" M  1140.93,   265.24  L  1136.69,   265.24  " /><path style="stroke-width: 1.42 ;&st7;  " d=" M  1225.92,   273.74  L  1221.67,   273.74  " /><path style="stroke-width: 1.42 ;&st7;  " d=" M  1225.92,   265.24  L  1221.67,   265.24  " /><path style="stroke-width: 1.42 ;&st7;   " d=" M  1221.67,   163.26  C  1219.32    163.26   1217.42    165.16   1217.42    167.51  " /><path style="stroke-width: 1.42 ;&st7;   " d=" M  1217.42,   167.51  C  1217.42    169.85   1219.32    171.76   1221.67    171.76  " /><path style="stroke-width: 1.42 ;&st7;   " d=" M  1225.92,   171.76  C  1228.27    171.76   1230.17    169.85   1230.17    167.51  " /><path style="stroke-width: 1.42 ;&st7;   " d=" M  1230.17,   167.51  C  1230.17    165.16   1228.27    163.26   1225.92    163.26  " /><path style="stroke-width: 1.42 ;&st7;   " d=" M  1196.18,   163.26  C  1193.83    163.26   1191.93    165.16   1191.93    167.51  " /><path style="stroke-width: 1.42 ;&st7;   " d=" M  1191.93,   167.51  C  1191.93    169.85   1193.83    171.76   1196.18    171.76  " /><path style="stroke-width: 1.42 ;&st7;   " d=" M  1200.42,   171.76  C  1202.77    171.76   1204.67    169.85   1204.67    167.51  " /><path style="stroke-width: 1.42 ;&st7;   " d=" M  1204.67,   167.51  C  1204.67    165.16   1202.77    163.26   1200.42    163.26  " /><path style="stroke-width: 1.42 ;&st7;   " d=" M  1132.44,   269.49  C  1132.44    271.84   1134.34    273.74   1136.69    273.74  " /><path style="stroke-width: 1.42 ;&st7;   " d=" M  1136.69,   265.24  C  1134.34    265.24   1132.44    267.14   1132.44    269.49  " /><path style="stroke-width: 1.42 ;&st7;   " d=" M  1230.17,   269.49  C  1230.17    267.14   1228.27    265.24   1225.92    265.24  " /><path style="stroke-width: 1.42 ;&st7;   " d=" M  1225.92,   273.74  C  1228.27    273.74   1230.17    271.84   1230.17    269.49  " /><path style="stroke-width: 1.42 ;&st7;   " d=" M  1217.42,   269.49  C  1217.42    271.84   1219.32    273.74   1221.67    273.74  " /><path style="stroke-width: 1.42 ;&st7;   " d=" M  1221.67,   265.24  C  1219.32    265.24   1217.42    267.14   1217.42    269.49  " /><path style="stroke-width: 1.42 ;&st7;   " d=" M  1145.18,   269.49  C  1145.18    267.14   1143.28    265.24   1140.93    265.24  " /><path style="stroke-width: 1.42 ;&st7;   " d=" M  1140.93,   273.74  C  1143.28    273.74   1145.18    271.84   1145.18    269.49  " /><path style="stroke-width: 0.85 ;&st7;  " d=" M  1223.80,   197.25  L  1223.80,   171.76  " /><path style="stroke-width: 0.28 ;&st9;  " d=" M  1223.80,   176.65  L  1226.63,   179.48  L  1226.63,   175.24  L  1223.80,   172.40  L  1220.96,   175.24  L  1220.96,   179.48  L  1223.80,   176.65  " /><path style="stroke-width: 0.85 ;&st7;  " d=" M  1198.30,   197.25  L  1198.30,   171.76  " /><path style="stroke-width: 0.28 ;&st9;  " d=" M  1198.30,   176.65  L  1201.13,   179.48  L  1201.13,   175.24  L  1198.30,   172.40  L  1195.47,   175.24  L  1195.47,   179.48  L  1198.30,   176.65  " /><path style="stroke-width: 0.85 ;&st7;  " d=" M  1223.80,   265.24  L  1223.80,   231.25  " /><path style="stroke-width: 0.28 ;&st9;  " d=" M  1223.80,   260.35  L  1220.96,   257.51  L  1220.96,   261.76  L  1223.80,   264.60  L  1226.63,   261.76  L  1226.63,   257.51  L  1223.80,   260.35  " /><path style="stroke-width: 0.28 ;&st9;  " d=" M  1138.81,   260.35  L  1135.98,   257.51  L  1135.98,   261.76  L  1138.81,   264.60  L  1141.64,   261.76  L  1141.64,   257.51  L  1138.81,   260.35  " /><path style="stroke-width: 0.85 ;&st7;  " d=" M  1138.81,   265.24  L  1138.81,   248.24  L  1198.30,   248.24  L  1198.30,   231.25  " /><text style="&st18;" transform="matrix(&st16;  1191.96  239.44 )">3</text><text style="&st18;" transform="matrix(&st16;  1217.46  239.44 )">2</text><text style="&st18;" transform="matrix(&st16;  1191.96  193.56 )">5</text><text style="&st18;" transform="matrix(&st16;  1217.46  193.56 )">1</text><text style="&st18;" transform="matrix(&st16;  1221.92  169.48 )">1</text><text style="&st18;" transform="matrix(&st16;  1196.42  169.48 )">1</text><text style="&st18;" transform="matrix(&st16;  1221.92  271.46 )">1</text><text style="&st18;" transform="matrix(&st16;  1136.93  271.46 )">1</text><text style="&st18;" transform="matrix(&st17;  1239.93  228.85 )" ewd:textID="7">A/C COMP <tspan x="0 " dy="6.0">Relay</tspan></text><path style="stroke-width: 1.42 ;&st7;  " d=" M  1198.30,   224.16  L  1192.63,   201.50  " /><path style="stroke-width: 0.85 ;&st7;  " d=" M  1198.30,   231.25  L  1198.30,   227.00  " /><path style="stroke-width: 0.85 ;&st7;  " d=" M  1198.30,   201.50  L  1198.30,   197.25  " /><path style="stroke-width: 0.85 ;&st7;  " d=" M  1223.80,   197.25  L  1223.80,   205.75  " /><path style="stroke-width: 0.85 ;&st7;  " d=" M  1223.80,   222.75  L  1223.80,   231.25  " /><path style="stroke-width: 0.85 ;&st7;   " d=" M  1199.72,   225.58  C  1199.72    224.80   1199.08    224.16   1198.30    224.16  " /><path style="stroke-width: 0.85 ;&st7;   " d=" M  1198.30,   224.16  C  1197.52    224.16   1196.88    224.80   1196.88    225.58  " /><path style="stroke-width: 0.85 ;&st7;   " d=" M  1196.88,   225.58  C  1196.88    226.36   1197.52    227.00   1198.30    227.00  " /><path style="stroke-width: 0.85 ;&st7;   " d=" M  1198.30,   227.00  C  1199.08    227.00   1199.72    226.36   1199.72    225.58  " /><path style="stroke-width: 0.85 ;&st7;   " d=" M  1199.72,   202.92  C  1199.72    202.14   1199.08    201.50   1198.30    201.50  " /><path style="stroke-width: 0.85 ;&st7;   " d=" M  1198.30,   201.50  C  1197.52    201.50   1196.88    202.14   1196.88    202.92  " /><path style="stroke-width: 0.85 ;&st7;   " d=" M  1196.88,   202.92  C  1196.88    203.70   1197.52    204.33   1198.30    204.33  " /><path style="stroke-width: 0.85 ;&st7;   " d=" M  1198.30,   204.33  C  1199.08    204.33   1199.72    203.70   1199.72    202.92  " /><path style="stroke-width: 0.85 ;&st7;   " d=" M  1221.27,   211.77  C  1222.63    213.17   1224.88    213.19   1226.27    211.82  " /><path style="stroke-width: 0.85 ;&st7;   " d=" M  1226.27,   211.82  C  1227.67    210.45   1227.69    208.21   1226.33    206.81  " /><path style="stroke-width: 0.85 ;&st7;   " d=" M  1226.33,   206.81  C  1225.63    206.11   1224.79    205.75   1223.80    205.75  " /><path style="stroke-width: 0.85 ;&st7;   " d=" M  1221.27,   216.73  C  1222.63    218.13   1224.88    218.15   1226.27    216.78  " /><path style="stroke-width: 0.85 ;&st7;   " d=" M  1226.27,   216.78  C  1227.67    215.41   1227.69    213.17   1226.33    211.77  " /><path style="stroke-width: 0.85 ;&st7;   " d=" M  1226.33,   211.77  C  1224.96    210.37   1222.71    210.35   1221.32    211.72  " /><path style="stroke-width: 0.85 ;&st7;   " d=" M  1221.32,   211.72  C  1221.30    211.74   1221.28    211.75   1221.27    211.77  " /><path style="stroke-width: 0.85 ;&st7;   " d=" M  1223.80,   222.75  C  1225.75    222.75   1227.34    221.16   1227.34    219.21  " /><path style="stroke-width: 0.85 ;&st7;   " d=" M  1227.34,   219.21  C  1227.34    217.25   1225.75    215.67   1223.80    215.67  " /><path style="stroke-width: 0.85 ;&st7;   " d=" M  1223.80,   215.67  C  1222.81    215.67   1221.96    216.02   1221.27    216.73  " /><path style="stroke-width: 1.42 ;&st7;  " d=" M  1232.29,   197.25  L  1189.80,   197.25  L  1189.80,   231.25  L  1232.29,   231.25  L  1232.29,   197.25  " /></g><g ewd:figtype="conn" ewd:figID="23" ewd:code="C23"><path style="stroke-width: 1.42 ;&st7;  " d=" M  1062.32,   503.20  L  1155.81,   503.20  L  1155.81,   469.21  L  1062.32,   469.21  L  1062.32,   503.20  " /><g ewd:lineID="29,30,61"><text style="&st18;" transform="matrix(&st16;  1072.98  511.39 )">1</text><text style="&st18;" transform="matrix(&st16;  1071.12  499.5 )">SSR+</text></g><g ewd:lineID="32,46,49"><text style="&st18;" transform="matrix(&st16;  1132.47  511.39 )">2</text><text style="&st18;" transform="matrix(&st16;  1131.39  499.5 )">SSR-</text></g><g ewd:lineID="33,34,35"><text style="&st18;" transform="matrix(&st16;  1132.47  465.52 )">3</text><text style="&st18;" transform="matrix(&st16;  1132.01  476.84 )">MG+</text></g><g ewd:figtype="title"><text style="&st18;" transform="matrix(&st17;  1170.52  506.11 )" ewd:textID="17">Magnet <tspan x="0 " dy="6.0">Clutch </tspan><tspan x="0 " dy="6.0">Assembly</tspan></text><text style="&st18;" transform="matrix(&st17;  1163.7  506.1 )">C23</text></g></g><g ewd:figtype="conn" ewd:figID="24" ewd:code="I67,I107"><path style="stroke-width: 0.85 ;&st7; stroke-dasharray:3, 1.5;" d=" M  1436.26,   159.29  L  1461.76,   159.29  " /><path style="stroke-width: 0.85 ;&st7; stroke-dasharray:3, 1.5;" d=" M  1436.26,   168.36  L  1466.00,   168.36  " /><path style="stroke-width: 0.85 ;&st7; stroke-dasharray:3, 1.5;" d=" M  1334.28,   159.29  L  1410.76,   159.29  " /><path style="stroke-width: 0.85 ;&st7; stroke-dasharray:3, 1.5;" d=" M  1334.28,   168.36  L  1415.01,   168.36  " /><path style="stroke-width: 1.42 ;&st7;  " d=" M  1317.28,   154.76  L  1487.25,   154.76  L  1487.25,   137.76  L  1317.28,   137.76  L  1317.28,   154.76  " /><path style="stroke-width: 0.85 ;&st7;  " d=" M  1325.78,   154.76  L  1325.78,   146.26  L  1478.75,   146.26  L  1478.75,   154.76  " /><path style="stroke-width: 0.85 ;&st7;  " d=" M  1427.76,   146.26  L  1427.76,   154.76  " /><path style="stroke-width: 0.85 ;&st7;  " d=" M  1426.57,   145.26  L  1426.30,   145.73  L  1426.20,   146.26  L  1426.30,   146.79  L  1426.57,   147.26  L  1426.98,   147.61  L  1427.49,   147.80  L  1428.03,   147.80  L  1428.54,   147.61  L  1428.95,   147.26  L  1429.23,   146.79  L  1429.32,   146.26  L  1429.23,   145.73  L  1428.95,   145.26  L  1428.54,   144.91  L  1428.03,   144.73  L  1427.49,   144.73  L  1426.98,   144.91  L  1426.57,   145.26  L  1426.96,   145.97  L  1426.96,   146.55  L  1427.34,   147.00  L  1427.91,   147.10  L  1428.41,   146.81  L  1428.61,   146.26  L  1428.41,   145.71  L  1427.91,   145.43  L  1427.34,   145.52  L  1427.76,   146.26  " /><text style="&st18;" transform="matrix(&st16;  1316.3  170.33 )">6</text><text style="&st18;" transform="matrix(&st16;  1312.96  161.26 )">16</text><path style="stroke-width: 1.42 ;&st7;   " d=" M  1330.31,   159.29  C  1330.31    156.79   1328.28    154.76   1325.78    154.76  " /><path style="stroke-width: 1.42 ;&st7;   " d=" M  1325.78,   154.76  C  1323.28    154.76   1321.25    156.79   1321.25    159.29  " /><path style="stroke-width: 1.42 ;&st7;   " d=" M  1321.25,   159.29  C  1321.25    161.80   1323.28    163.82   1325.78    163.82  " /><path style="stroke-width: 1.42 ;&st7;   " d=" M  1325.78,   163.82  C  1328.28    163.82   1330.31    161.80   1330.31    159.29  " /><path style="stroke-width: 1.42 ;&st7;   " d=" M  1330.31,   168.36  C  1330.31    165.85   1328.28    163.82   1325.78    163.82  " /><path style="stroke-width: 1.42 ;&st7;   " d=" M  1325.78,   163.82  C  1323.28    163.82   1321.25    165.85   1321.25    168.36  " /><path style="stroke-width: 1.42 ;&st7;   " d=" M  1321.25,   168.36  C  1321.25    170.86   1323.28    172.89   1325.78    172.89  " /><path style="stroke-width: 1.42 ;&st7;   " d=" M  1325.78,   172.89  C  1328.28    172.89   1330.31    170.86   1330.31    168.36  " /><text style="&st18;" transform="matrix(&st16;  1323.51  170.33 )">B</text><text style="&st18;" transform="matrix(&st16;  1323.51  161.26 )">A</text><text style="&st18;" transform="matrix(&st16;  1418.28  170.33 )">1</text><text style="&st18;" transform="matrix(&st16;  1414.95  161.26 )">15</text><path style="stroke-width: 1.42 ;&st7;   " d=" M  1432.29,   168.36  C  1432.29    165.85   1430.26    163.82   1427.76    163.82  " /><path style="stroke-width: 1.42 ;&st7;   " d=" M  1427.76,   163.82  C  1425.26    163.82   1423.23    165.85   1423.23    168.36  " /><path style="stroke-width: 1.42 ;&st7;   " d=" M  1423.23,   168.36  C  1423.23    170.86   1425.26    172.89   1427.76    172.89  " /><path style="stroke-width: 1.42 ;&st7;   " d=" M  1427.76,   172.89  C  1430.26    172.89   1432.29    170.86   1432.29    168.36  " /><path style="stroke-width: 1.42 ;&st7;   " d=" M  1432.29,   159.29  C  1432.29    156.79   1430.26    154.76   1427.76    154.76  " /><path style="stroke-width: 1.42 ;&st7;   " d=" M  1427.76,   154.76  C  1425.26    154.76   1423.23    156.79   1423.23    159.29  " /><path style="stroke-width: 1.42 ;&st7;   " d=" M  1423.23,   159.29  C  1423.23    161.80   1425.26    163.82   1427.76    163.82  " /><path style="stroke-width: 1.42 ;&st7;   " d=" M  1427.76,   163.82  C  1430.26    163.82   1432.29    161.80   1432.29    159.29  " /><text style="&st18;" transform="matrix(&st16;  1425.5  161.26 )">A</text><text style="&st18;" transform="matrix(&st16;  1425.5  170.33 )">B</text><text style="&st18;" transform="matrix(&st16;  1465.94  161.26 )">17</text><text style="&st18;" transform="matrix(&st16;  1469.27  170.33 )">7</text><path style="stroke-width: 1.42 ;&st7;   " d=" M  1483.29,   159.29  C  1483.29    156.79   1481.26    154.76   1478.75    154.76  " /><path style="stroke-width: 1.42 ;&st7;   " d=" M  1478.75,   154.76  C  1476.25    154.76   1474.22    156.79   1474.22    159.29  " /><path style="stroke-width: 1.42 ;&st7;   " d=" M  1474.22,   159.29  C  1474.22    161.80   1476.25    163.82   1478.75    163.82  " /><path style="stroke-width: 1.42 ;&st7;   " d=" M  1478.75,   163.82  C  1481.26    163.82   1483.29    161.80   1483.29    159.29  " /><path style="stroke-width: 1.42 ;&st7;   " d=" M  1483.29,   168.36  C  1483.29    165.85   1481.26    163.82   1478.75    163.82  " /><path style="stroke-width: 1.42 ;&st7;   " d=" M  1478.75,   163.82  C  1476.25    163.82   1474.22    165.85   1474.22    168.36  " /><path style="stroke-width: 1.42 ;&st7;   " d=" M  1474.22,   168.36  C  1474.22    170.86   1476.25    172.89   1478.75    172.89  " /><path style="stroke-width: 1.42 ;&st7;   " d=" M  1478.75,   172.89  C  1481.26    172.89   1483.29    170.86   1483.29    168.36  " /><text style="&st18;" transform="matrix(&st16;  1476.49  161.26 )">A</text><text style="&st18;" transform="matrix(&st16;  1476.49  170.33 )">B</text><g ewd:figtype="title"><text style="&st18;" transform="matrix(&st16;  1313.87  127.24 )">I107(B)</text><text style="&st18;" transform="matrix(&st16;  1313.87  113.08 )">I67(A)</text><text style="&st18;" transform="matrix(&st16;  1313.87  119.9 )" ewd:textID="28">No. 16 Junction Connector</text><text style="&st18;" transform="matrix(&st16;  1313.87  134.07 )" ewd:textID="25">No. 12 Junction Connector</text></g><g ewd:code="" ewd:figID="89" ewd:comment="" ewd:figtype="commref"><text style="&st18;" transform="matrix(&st16;  1483.85  170.33 )">(RHD)</text></g><g ewd:code="" ewd:figID="90" ewd:comment="" ewd:figtype="commref"><text style="&st18;" transform="matrix(&st16;  1483.85  161.26 )">(LHD)</text></g></g><g ewd:figtype="conn" ewd:figID="27" ewd:code="I88"><path style="stroke-width: 1.42 ;&st7;  " d=" M  1410.76,   452.21  L  2388.10,   452.21  L  2388.10,   409.72  L  1410.76,   409.72  L  1410.76,   452.21  " /><g ewd:lineID="57,58,63,64,65,66"><text style="&st18;" transform="matrix(&st16;  1443.58  460.4 )">10</text><text style="&st18;" transform="matrix(&st16;  1444.83  448.51 )">LOCK</text></g><g ewd:lineID="59,60"><text style="&st18;" transform="matrix(&st16;  1418.09  406.03 )">12</text><text style="&st18;" transform="matrix(&st16;  1423.17  417.35 )">SG</text></g><g ewd:figtype="title"><text style="&st18;" transform="matrix(&st16;  1466.85  400.07 )" ewd:textID="10">Cooler Stabilizer <tspan x="0 " dy="6.0">Amplifier Assembly</tspan></text><text style="&st18;" transform="matrix(&st16;  1466.84  393.25 )">I88</text></g></g><g ewd:figtype="w2w" ewd:figID="34" ewd:code="CA3"><path style="stroke-width: 1.42 ;&st7;  " d=" M  1092.07,   315.67  L  1096.32,   319.92  L  1100.57,   315.67  " /><path style="stroke-width: 1.42 ;&st7;  " d=" M  1100.57,   319.07  L  1096.32,   323.31  L  1092.07,   319.07  " /><text style="&st18;" transform="matrix(&st16;  1082.9  330.95 )">4</text></g><g ewd:figtype="w2w" ewd:figID="35" ewd:code="IC2"><path style="stroke-width: 1.42 ;&st7;  " d=" M  1143.06,   418.78  L  1138.81,   414.53  L  1134.56,   418.78  " /><path style="stroke-width: 1.42 ;&st7;  " d=" M  1143.06,   415.38  L  1138.81,   411.13  L  1134.56,   415.38  " /><text style="&st18;" transform="matrix(&st16;  1125.39  407.44 )">5</text></g><g ewd:figtype="w2w" ewd:figID="36" ewd:code="AI3"><path style="stroke-width: 1.42 ;&st7;  " d=" M  1143.06,   338.90  L  1138.81,   334.65  L  1134.56,   338.90  " /><path style="stroke-width: 1.42 ;&st7;  " d=" M  1143.06,   342.29  L  1138.81,   338.05  L  1134.56,   342.29  " /><text style="&st18;" transform="matrix(&st16;  1122.06  330.95 )">13</text></g><g ewd:figtype="w2w" ewd:figID="37" ewd:code="AC5"><path style="stroke-width: 1.42 ;&st7;  " d=" M  1194.05,   342.29  L  1189.80,   338.05  L  1185.55,   342.29  " /><path style="stroke-width: 1.42 ;&st7;  " d=" M  1194.05,   338.90  L  1189.80,   334.65  L  1185.55,   338.90  " /><text style="&st18;" transform="matrix(&st16;  1176.38  330.95 )">5</text></g><g ewd:code="AI3" ewd:figID="38" ewd:comment="2" ewd:figtype="w2w"><path style="stroke-width: 1.42 ;&st7;  " d=" M  1228.04,   347.39  L  1223.80,   343.14  L  1219.55,   347.39  " /><path style="stroke-width: 1.42 ;&st7;  " d=" M  1228.04,   350.79  L  1223.80,   346.54  L  1219.55,   350.79  " /><text style="&st18;" transform="matrix(&st16;  1207.04  339.45 )">31</text><g ewd:code="" ewd:figID="85" ewd:comment="2" ewd:figtype="commref"><text style="&st18;" transform="matrix(&st16;  1232.83  339.45 )">(*2)</text></g></g><g ewd:figtype="w2w" ewd:figID="39" ewd:code="AI3"><text style="&st18;" transform="matrix(&st16;  1207.04  330.95 )">34</text></g><g ewd:code="AI3" ewd:figID="40" ewd:comment="2" ewd:figtype="w2w"><text style="&st18;" transform="matrix(&st16;  1261.37  118.49 )">9</text><g ewd:code="" ewd:figID="87" ewd:comment="2" ewd:figtype="commref"><text style="&st18;" transform="matrix(&st16;  1283.82  118.49 )">(*2)</text></g></g><g ewd:code="AI3" ewd:figID="41" ewd:comment="1" ewd:figtype="w2w"><path style="stroke-width: 1.42 ;&st7;  " d=" M  1279.04,    98.10  L  1274.79,   102.35  L  1270.54,    98.10  " /><path style="stroke-width: 1.42 ;&st7;  " d=" M  1270.54,    94.70  L  1274.79,    98.95  L  1279.04,    94.70  " /><text style="&st18;" transform="matrix(&st16;  1258.03  109.99 )">33</text><g ewd:code="" ewd:figID="88" ewd:comment="1" ewd:figtype="commref"><text style="&st18;" transform="matrix(&st16;  1283.82  109.99 )">(*1)</text></g></g><g ewd:figtype="w2w" ewd:figID="42" ewd:code="AC5"><path style="stroke-width: 1.42 ;&st7;  " d=" M  1296.03,   444.28  L  1291.78,   440.03  L  1287.53,   444.28  " /><path style="stroke-width: 1.42 ;&st7;  " d=" M  1296.03,   440.88  L  1291.78,   436.63  L  1287.53,   440.88  " /><text style="&st18;" transform="matrix(&st16;  1278.37  432.93 )">1</text></g><g ewd:figtype="w2w" ewd:figID="43" ewd:code="AI3"><path style="stroke-width: 1.42 ;&st7;  " d=" M  1287.53,   324.16  L  1291.78,   328.41  L  1296.03,   324.16  " /><path style="stroke-width: 1.42 ;&st7;  " d=" M  1296.03,   327.56  L  1291.78,   331.81  L  1287.53,   327.56  " /><text style="&st18;" transform="matrix(&st16;  1275.03  339.45 )">24</text></g><g ewd:figtype="w2w" ewd:figID="44" ewd:code="CA3"><path style="stroke-width: 1.42 ;&st7;  " d=" M  1330.03,   421.05  L  1325.78,   425.30  L  1321.53,   421.05  " /><path style="stroke-width: 1.42 ;&st7;  " d=" M  1321.53,   417.65  L  1325.78,   421.90  L  1330.03,   417.65  " /><text style="&st18;" transform="matrix(&st16;  1309.03  432.93 )">11</text></g><g ewd:figtype="w2w" ewd:figID="45" ewd:code="AI3"><text style="&st18;" transform="matrix(&st16;  1309.03  339.45 )">57</text></g><g ewd:figtype="w2w" ewd:figID="46" ewd:code="AI3"><path style="stroke-width: 1.42 ;&st7;  " d=" M  1330.03,   319.07  L  1325.78,   323.31  L  1321.53,   319.07  " /><path style="stroke-width: 1.42 ;&st7;  " d=" M  1321.53,   315.67  L  1325.78,   319.92  L  1330.03,   315.67  " /><text style="&st18;" transform="matrix(&st16;  1309.03  330.95 )">25</text><g ewd:code="" ewd:figID="130" ewd:comment="" ewd:figtype="commref"><text style="&st18;" transform="matrix(&st16;  1334.81  330.95 )">(LHD)</text></g></g><g ewd:figtype="w2w" ewd:figID="47" ewd:code="IC2"><path style="stroke-width: 1.42 ;&st7;  " d=" M  1381.02,   444.28  L  1376.77,   440.03  L  1372.52,   444.28  " /><path style="stroke-width: 1.42 ;&st7;  " d=" M  1381.02,   440.88  L  1376.77,   436.63  L  1372.52,   440.88  " /><text style="&st18;" transform="matrix(&st16;  1363.35  432.93 )">1</text></g><g ewd:figtype="w2w" ewd:figID="48" ewd:code="AC5"><path style="stroke-width: 1.42 ;&st7;  " d=" M  1423.51,   631.25  L  1419.26,   627.00  L  1415.01,   631.25  " /><path style="stroke-width: 1.42 ;&st7;  " d=" M  1423.51,   627.85  L  1419.26,   623.60  L  1415.01,   627.85  " /><text style="&st18;" transform="matrix(&st16;  1405.84  619.9 )">3</text></g><g ewd:figtype="w2w" ewd:figID="49" ewd:code="AI3"><path style="stroke-width: 1.42 ;&st7;  " d=" M  1423.51,   557.03  L  1419.26,   561.27  L  1415.01,   557.03  " /><path style="stroke-width: 1.42 ;&st7;  " d=" M  1415.01,   553.63  L  1419.26,   557.88  L  1423.51,   553.63  " /><text style="&st18;" transform="matrix(&st16;  1402.51  568.91 )">23</text></g><g ewd:figtype="w2w" ewd:figID="50" ewd:code="CA3"><path style="stroke-width: 1.42 ;&st7;  " d=" M  1449.01,   604.62  L  1453.26,   608.87  L  1457.51,   604.62  " /><path style="stroke-width: 1.42 ;&st7;  " d=" M  1457.51,   608.02  L  1453.26,   612.27  L  1449.01,   608.02  " /><text style="&st18;" transform="matrix(&st16;  1439.84  619.9 )">5</text></g><g ewd:figtype="w2w" ewd:figID="51" ewd:code="AI3"><text style="&st18;" transform="matrix(&st16;  1436.5  577.41 )">56</text><g ewd:code="" ewd:figID="131" ewd:comment="" ewd:figtype="commref"><text style="&st18;" transform="matrix(&st16;  1462.29  577.41 )">(RHD)</text></g></g><g ewd:figtype="w2w" ewd:figID="52" ewd:code="AI3"><path style="stroke-width: 1.42 ;&st7;  " d=" M  1457.51,   557.03  L  1453.26,   561.27  L  1449.01,   557.03  " /><path style="stroke-width: 1.42 ;&st7;  " d=" M  1449.01,   553.63  L  1453.26,   557.88  L  1457.51,   553.63  " /><text style="&st18;" transform="matrix(&st16;  1436.5  568.91 )">26</text></g><g ewd:figtype="w2w" ewd:figID="53" ewd:code="IC2"><path style="stroke-width: 1.42 ;&st7;  " d=" M  1508.50,   580.26  L  1504.25,   576.01  L  1500.00,   580.26  " /><path style="stroke-width: 1.42 ;&st7;  " d=" M  1508.50,   576.86  L  1504.25,   572.61  L  1500.00,   576.86  " /><text style="&st18;" transform="matrix(&st16;  1490.83  568.91 )">3</text></g><g ewd:code="" ewd:figID="86" ewd:comment="1" ewd:figtype="commref"><text style="&st18;" transform="matrix(&st16;  1232.83  330.95 )">(*1)</text></g><g ewd:code="" ewd:figID="129" ewd:comment="" ewd:figtype="commref"><text style="&st18;" transform="matrix(&st16;  1334.81  339.45 )">(RHD)</text></g><g ewd:code="" ewd:figID="132" ewd:comment="" ewd:figtype="commref"><text style="&st18;" transform="matrix(&st16;  1462.29  568.91 )">(LHD)</text></g></svg>