<?xml version="1.0" encoding="utf-8"?>
<!DOCTYPE svg PUBLIC "-//W3C//DTD SVG 1.0//EN" "http://www.w3.org/TR/2001/REC-SVG-20010904/DTD/svg10.dtd"[
	<!ENTITY ns_flows "http://ns.adobe.com/Flows/1.0/">
	<!ENTITY ns_svg "http://www.w3.org/2000/svg">
	<!ENTITY ns_xlink "http://www.w3.org/1999/xlink">
	<!ENTITY st0 "font-size:7px;font-family:'MS-PGothic';adobe-font-script:japanese;">
	<!ENTITY st1 "font-size:6px;font-family:'ArialMT';">
	<!-- White fill  -->
	<!ENTITY st2 "fill:#FFFFFF;stroke:#000000; stroke-width:1.41;stroke-linecap:round;stroke-linejoin:round;">
	<!-- Yellow fill  -->
	<!ENTITY st3 "fill:#FFFFCC;stroke:#FFFFCC; stroke-width:0.1;stroke-linecap:round;stroke-linejoin:round;">
	<!-- Gray fill  -->
	<!ENTITY st4 "fill:#CCCCCC;stroke:#CCCCCC; stroke-width:0.1;stroke-linecap:round;stroke-linejoin:round;">
	<!-- Light-blue fill -->
	<!ENTITY st5 "fill:#CCECF4;stroke:#000000; stroke-width:1.133;stroke-linecap:round;stroke-linejoin:round;">
	<!ENTITY st6 "fill:none;stroke-linecap:butt; stroke-linejoin:round;">
	<!ENTITY st7 "fill:none;stroke:#000000;stroke-linecap:round;stroke-linejoin:round;">
	<!ENTITY st8 "enable-background:new    ;">
	<!-- Black fill -->
	<!ENTITY st9 "fill:#000000;stroke:#000000; stroke-linecap:round;stroke-linejoin:round;">
	<!-- SRS note   -->
	<!ENTITY st10 "font-size:9px;font-family:'ArialMT';">
	<!ENTITY st11 "font-size:9px;font-family:'Svg Symbol';">
	<!ENTITY st12 "font-size:6px;font-family:'Svg Symbol';">
	<!ENTITY st13 "fill:none;stroke:#ff0000;stroke-linecap:round;stroke-linejoin:round;">
	<!-- Yellow fill  -->
	<!ENTITY st14 "fill:#FFFF00;stroke:#FFFF00; stroke-width:0.1;stroke-linecap:round;stroke-linejoin:round;">
	<!ENTITY st15 "font-size:6px;font-family:'MS-PGothic';adobe-font-script:japanese;">
	<!ENTITY st16 "1.00 0.00 0.00 1.00">
	<!ENTITY st17 "0.00 -1.00 1.00 0.00">
	<!ENTITY st18 "font-size:6px;font-family:'Arial';">
	<!ENTITY st19 "font-size:9px;font-family:'Arial';">
	<!ENTITY st20 "font-size:6px;font-family:'MS-PGothic','MS PGothic';adobe-font-script:japanese;">
	<!ENTITY st21 "font-size:7px;font-family:'MS-PGothic','MS PGothic';adobe-font-script:japanese;">
	<!ATTLIST svg
		xmlns:ewd CDATA #FIXED "http://shcl.co.jp/ewd"
		xmlns:a CDATA #FIXED "http://ns.adobe.com/AdobeSVGViewerExtensions/3.0/"
		ewd:ver CDATA #IMPLIED
	>
	<!ATTLIST a
		ewd:lineID CDATA #IMPLIED
		ewd:groupID CDATA #IMPLIED
		ewd:figtype CDATA #IMPLIED
		ewd:code CDATA #IMPLIED
		ewd:figID CDATA #IMPLIED
		ewd:pinNo CDATA #IMPLIED
		ewd:comment CDATA #IMPLIED >
	<!ATTLIST g
		ewd:lineID CDATA #IMPLIED
		ewd:groupID CDATA #IMPLIED
		ewd:figtype CDATA #IMPLIED
		ewd:code CDATA #IMPLIED
		ewd:figID CDATA #IMPLIED
		ewd:pinNo CDATA #IMPLIED
		ewd:comment CDATA #IMPLIED >
	<!ATTLIST text
		ewd:textID CDATA #IMPLIED >
	<!ATTLIST title
		ewd:textID CDATA #IMPLIED >
]>
<!-- Generator: Shintec Hozumi YS   -->
<svg onload="call_execInitLoadProc_svg('system')" style="overflow:visible;  enable-background:new 0 0 3105.354 710.000" viewBox="0 0 3105.354 710.000" height="710.000" width="3105.354" xml:space="preserve" ewd:ver="2.3.1.16" xmlns="&ns_svg;" xmlns:a="http://ns.adobe.com/AdobeSVGViewerExtensions/3.0/" xmlns:ewd="http://shcl.co.jp/ewd" xmlns:xlink="&ns_xlink;">
<path style="stroke-width: 1.42 ;&st7;  " d=" M  2736.54,   231.25  L  2745.04,   231.25  " /><path style="stroke-width: 1.42 ;&st7;  " d=" M  2877.49,   596.69  L  2872.52,   601.66  " /><path style="stroke-width: 1.42 ;&st7;  " d=" M  2884.55,   613.68  L  2889.52,   608.71  " /><path style="stroke-width: 1.42 ;&st7;  " d=" M  2872.52,   608.71  L  2877.49,   613.68  " /><path style="stroke-width: 1.42 ;&st7;  " d=" M  2889.52,   601.66  L  2884.55,   596.69  " /><path style="stroke-width: 1.42 ;&st7;  " d=" M  2877.49,   418.22  L  2872.52,   423.19  " /><path style="stroke-width: 1.42 ;&st7;  " d=" M  2889.52,   423.19  L  2884.55,   418.22  " /><path style="stroke-width: 1.42 ;&st7;  " d=" M  2872.52,   430.24  L  2877.49,   435.21  " /><path style="stroke-width: 1.42 ;&st7;  " d=" M  2884.55,   435.21  L  2889.52,   430.24  " /><path style="stroke-width: 1.42 ;&st7;  " d=" M  2872.52,   457.18  L  2867.55,   452.21  " /><path style="stroke-width: 1.42 ;&st7;  " d=" M  2855.52,   464.24  L  2860.49,   469.21  " /><path style="stroke-width: 1.42 ;&st7;  " d=" M  2860.49,   452.21  L  2855.52,   457.18  " /><path style="stroke-width: 1.42 ;&st7;  " d=" M  2867.55,   469.21  L  2872.52,   464.24  " /><path style="stroke-width: 1.42 ;&st7;  " d=" M  2724.52,   452.21  L  2719.55,   457.18  " /><path style="stroke-width: 1.42 ;&st7;  " d=" M  2731.57,   469.21  L  2736.54,   464.24  " /><path style="stroke-width: 1.42 ;&st7;  " d=" M  2719.55,   464.24  L  2724.51,   469.21  " /><path style="stroke-width: 1.42 ;&st7;  " d=" M  2736.54,   457.18  L  2731.57,   452.21  " /><path style="stroke-width: 1.42 ;&st7;  " d=" M  2872.52,   239.75  L  2881.02,   239.75  " /><path style="stroke-width: 1.42 ;&st7;  " d=" M  2651.56,   239.75  L  2660.06,   239.75  " /><text style="&st18;" transform="matrix(&st16;  2539.68  202.05 )">B-W(RHD *9)</text><text style="&st18;" transform="matrix(&st16;  2541.5  117.07 )">L-B(LHD *9)</text><text style="&st18;" transform="matrix(&st16;  2540.99  151.06 )">L-B(RHD *9)</text><text style="&st18;" transform="matrix(&st16;  2540.22  185.06 )">B-W(LHD *9)</text><text style="&st18;" transform="matrix(&st17;  2829.16  448.27 )">(*2)</text><text style="&st18;" transform="matrix(&st17;  2795.17  448.27 )">(*2)</text><text style="&st18;" transform="matrix(&st17;  2871.66  507.76 )">(*2)</text><text style="&st18;" transform="matrix(&st17;  2888.65  575.75 )">(*2)</text><text style="&st18;" transform="matrix(&st17;  2877.32  575.13 )">BR</text><text style="&st18;" transform="matrix(&st17;  2888.65  652.24 )">(*2)</text><text style="&st18;" transform="matrix(&st17;  2877.32  651.61 )">BR</text><text style="&st18;" transform="matrix(&st17;  2817.83  446.41 )">W</text><text style="&st18;" transform="matrix(&st17;  2783.84  445.48 )">B</text><text style="&st18;" transform="matrix(&st17;  2860.33  507.14 )">BR</text><text style="&st18;" transform="matrix(&st17;  2922.65  405.78 )">(*1)</text><text style="&st18;" transform="matrix(&st17;  2956.64  405.78 )">(*1)</text><text style="&st18;" transform="matrix(&st17;  2945.31  406.28 )">G-B</text><text style="&st18;" transform="matrix(&st17;  2911.32  405.16 )">BR</text><text style="&st18;" transform="matrix(&st17;  2684.69  448.27 )">(*1)</text><text style="&st18;" transform="matrix(&st17;  2642.2  448.27 )">(*1)</text><text style="&st18;" transform="matrix(&st17;  2735.68  558.75 )">(*1)</text><text style="&st18;" transform="matrix(&st17;  2735.68  652.24 )">(*1)</text><text style="&st18;" transform="matrix(&st17;  2724.35  651.61 )">BR</text><text style="&st18;" transform="matrix(&st17;  2724.35  558.13 )">BR</text><text style="&st18;" transform="matrix(&st17;  2673.36  446.41 )">W</text><text style="&st18;" transform="matrix(&st17;  2630.86  445.48 )">B</text><text style="&st18;" transform="matrix(&st16;  2609.49  117.07 )">L-B(LHD *9)</text><text style="&st18;" transform="matrix(&st16;  2608.98  151.06 )">L-B(RHD *9)</text><text style="&st18;" transform="matrix(&st16;  2608.21  185.06 )">B-W(LHD *9)</text><text style="&st18;" transform="matrix(&st16;  2607.67  202.05 )">B-W(RHD *9)</text><text style="&st18;" transform="matrix(&st17;  2922.65  251.13 )">(LHD *5)</text><text style="&st18;" transform="matrix(&st17;  2911.32  241.51 )">B</text><text style="&st18;" transform="matrix(&st17;  2888.66  226.17 )">(RHD *5)</text><text style="&st18;" transform="matrix(&st17;  2877.32  216.02 )">B</text><text style="&st18;" transform="matrix(&st17;  2877.32  275.51 )">B</text><text style="&st18;" transform="matrix(&st17;  2888.66  285.67 )">(RHD *5)</text><text style="&st18;" transform="matrix(&st17;  2888.65  108.33 )">(*5)</text><text style="&st18;" transform="matrix(&st16;  2618.99  83.07 )">B(*5)</text><text style="&st18;" transform="matrix(&st17;  2656.36  275.21 )">B-W</text><text style="&st18;" transform="matrix(&st17;  2667.69  277.73 )">(RHD)</text><text style="&st18;" transform="matrix(&st17;  2741.35  273.89 )">L-B</text><text style="&st18;" transform="matrix(&st17;  2752.68  277.73 )">(RHD)</text><text style="&st18;" transform="matrix(&st17;  2877.32  105.53 )">B</text><text style="&st18;" transform="matrix(&st16;  2551.0  83.07 )">B(*5)</text><text style="&st18;" transform="matrix(&st16;  2539.48  134.07 )">GR(RHD *10)</text><text style="&st18;" transform="matrix(&st16;  2607.98  100.07 )">GR(LHD *10)</text><text style="&st18;" transform="matrix(&st16;  2539.99  100.07 )">GR(LHD *10)</text><text style="&st18;" transform="matrix(&st16;  2607.47  134.07 )">GR(RHD *10)</text><text style="&st18;" transform="matrix(&st16;  2541.96  219.05 )">V(RHD *10)</text><text style="&st18;" transform="matrix(&st16;  2542.51  168.06 )">V(LHD *10)</text><text style="&st18;" transform="matrix(&st16;  2610.5  168.06 )">V(LHD *10)</text><text style="&st18;" transform="matrix(&st16;  2609.95  219.05 )">V(RHD *10)</text><text style="&st18;" transform="matrix(&st17;  2707.35  271.26 )">V</text><text style="&st18;" transform="matrix(&st17;  2718.68  282.54 )">(LHD *10)</text><text style="&st18;" transform="matrix(&st17;  2809.33  273.74 )">GR</text><text style="&st18;" transform="matrix(&st17;  2820.67  282.54 )">(LHD *10)</text><text style="&st18;" transform="matrix(&st17;  2783.84  273.89 )">L-B</text><text style="&st18;" transform="matrix(&st17;  2795.17  280.87 )">(LHD *9)</text><text style="&st18;" transform="matrix(&st17;  2681.86  275.21 )">B-W</text><text style="&st18;" transform="matrix(&st17;  2693.19  280.87 )">(LHD *9)</text><g ewd:figtype="conn" ewd:figID="8" ewd:code="C42"><path style="stroke-width: 1.42 ;&st7;  " d=" M  2770.54,   537.20  L  2838.52,   537.20  L  2838.52,   503.20  L  2770.54,   503.20  L  2770.54,   537.20  " /><g ewd:lineID="108"><text style="&st18;" transform="matrix(&st16;  2781.19  499.51 )">1</text><text style="&st18;" transform="matrix(&st16;  2781.35  510.84 )">NE+</text></g><g ewd:lineID="110"><text style="&st18;" transform="matrix(&st16;  2815.19  499.51 )">2</text><text style="&st18;" transform="matrix(&st16;  2816.12  510.84 )">NE-</text></g><g ewd:lineID="111"><text style="&st18;" transform="matrix(&st16;  2815.19  545.39 )">3</text><text style="&st18;" transform="matrix(&st16;  2814.61  533.5 )">GND</text></g><g ewd:figtype="title"><text style="&st18;" transform="matrix(&st17;  2760.89  540.1 )" ewd:textID="11">Crank <tspan x="0 " dy="6.0">Position Sensor</tspan></text><text style="&st18;" transform="matrix(&st17;  2754.07  540.09 )">C42</text></g></g><g ewd:figtype="conn" ewd:figID="9" ewd:code="C38"><path style="stroke-width: 1.42 ;&st7;  " d=" M  2719.54,   596.69  L  2736.54,   596.69  L  2736.54,   613.68  L  2719.54,   613.68  L  2719.54,   596.69  " /><path style="stroke-width: 0.85 ;&st7;  " d=" M  2728.04,   596.69  L  2728.04,   613.68  " /><text style="&st18;" transform="matrix(&st16;  2721.7  621.88 )">6</text><text style="&st18;" transform="matrix(&st16;  2721.7  593.0 )">8</text><g ewd:figtype="title"><text style="&st18;" transform="matrix(&st17;  2744.44  616.58 )">C38</text><text style="&st18;" transform="matrix(&st17;  2751.26  616.59 )" ewd:textID="19">No. 4 <tspan x="0 " dy="6.0">Junction </tspan><tspan x="0 " dy="6.0">Connector</tspan></text></g></g><g ewd:figtype="conn" ewd:figID="10" ewd:code="C1"><path style="stroke-width: 0.85 ;&st7;  " d=" M  2949.01,   486.20  L  2949.01,   473.46  " /><path style="stroke-width: 0.85 ;&st7;  " d=" M  2946.17,   466.37  L  2951.84,   469.21  " /><path style="stroke-width: 0.85 ;&st7;  " d=" M  2951.84,   469.21  L  2946.17,   472.04  " /><path style="stroke-width: 0.85 ;&st7;  " d=" M  2951.84,   463.54  L  2946.17,   466.37  " /><path style="stroke-width: 0.85 ;&st7;  " d=" M  2951.84,   457.88  L  2946.17,   460.71  " /><path style="stroke-width: 0.85 ;&st7;  " d=" M  2949.01,   456.46  L  2951.84,   457.88  " /><path style="stroke-width: 0.85 ;&st7;  " d=" M  2946.17,   472.04  L  2949.01,   473.46  " /><path style="stroke-width: 0.85 ;&st7;  " d=" M  2949.01,   456.46  L  2949.01,   443.71  " /><path style="stroke-width: 0.85 ;&st7;  " d=" M  2940.51,   456.46  L  2940.51,   473.46  " /><path style="stroke-width: 0.85 ;&st7;  " d=" M  2957.51,   456.46  L  2957.51,   473.46  " /><path style="stroke-width: 0.85 ;&st7;  " d=" M  2946.17,   460.71  L  2951.84,   463.54  " /><path style="stroke-width: 0.85 ;&st7;   " d=" M  2957.51,   456.46  C  2957.51    451.77   2953.70    447.96   2949.01    447.96  " /><path style="stroke-width: 0.85 ;&st7;   " d=" M  2949.01,   447.96  C  2944.31    447.96   2940.51    451.77   2940.51    456.46  " /><path style="stroke-width: 0.85 ;&st7;   " d=" M  2940.51,   473.46  C  2940.51    478.15   2944.31    481.95   2949.01    481.95  " /><path style="stroke-width: 0.85 ;&st7;   " d=" M  2949.01,   481.95  C  2953.70    481.95   2957.51    478.15   2957.51    473.46  " /><path style="stroke-width: 1.42 ;&st7;  " d=" M  2936.26,   486.20  L  2936.26,   443.71  L  2961.75,   443.71  L  2961.75,   486.20  L  2936.26,   486.20  " /><text style="&st18;" transform="matrix(&st16;  2942.67  494.4 )">1</text><text style="&st18;" transform="matrix(&st16;  2942.67  440.02 )">2</text><g ewd:figtype="title"><text style="&st18;" transform="matrix(&st17;  2969.65  489.1 )">C1</text><text style="&st18;" transform="matrix(&st17;  2976.47  489.11 )" ewd:textID="13">E.F.I. Engine Coolant <tspan x="0 " dy="6.0">Temperature Sensor</tspan></text></g></g><g ewd:figtype="conn" ewd:figID="11" ewd:code="C2"><path style="stroke-width: 1.42 ;&st7;  " d=" M  2617.56,   520.20  L  2694.05,   520.20  L  2694.05,   486.20  L  2617.56,   486.20  L  2617.56,   520.20  " /><g ewd:lineID="102"><text style="&st18;" transform="matrix(&st16;  2670.71  482.51 )">2</text><text style="&st18;" transform="matrix(&st16;  2671.65  493.84 )">NE-</text></g><g ewd:lineID="98"><text style="&st18;" transform="matrix(&st16;  2628.22  482.51 )">1</text><text style="&st18;" transform="matrix(&st16;  2630.12  493.84 )">NE</text></g><g ewd:figtype="title"><text style="&st18;" transform="matrix(&st16;  2614.15  528.09 )">C2</text><text style="&st18;" transform="matrix(&st16;  2614.16  534.92 )" ewd:textID="11">Crank <tspan x="0 " dy="6.0">Position Sensor</tspan></text></g></g><g ewd:figtype="conn" ewd:figID="12" ewd:code="I59,I70"><path style="stroke-width: 1.42 ;&st7;  " d=" M  2872.52,   137.76  L  2889.52,   137.76  L  2889.52,   154.76  L  2872.52,   154.76  L  2872.52,   137.76  " /><path style="stroke-width: 0.85 ;&st7;  " d=" M  2881.02,   137.76  L  2881.02,   154.76  " /><text style="&st18;" transform="matrix(&st16;  2871.54  161.26 )">5</text><text style="&st18;" transform="matrix(&st16;  2871.54  170.33 )">5</text><text style="&st18;" transform="matrix(&st16;  2878.75  170.33 )">B</text><path style="stroke-width: 1.42 ;&st7;   " d=" M  2885.55,   159.29  C  2885.55    156.79   2883.52    154.76   2881.02    154.76  " /><path style="stroke-width: 1.42 ;&st7;   " d=" M  2881.02,   154.76  C  2878.52    154.76   2876.49    156.79   2876.49    159.29  " /><path style="stroke-width: 1.42 ;&st7;   " d=" M  2876.49,   159.29  C  2876.49    161.80   2878.52    163.82   2881.02    163.82  " /><path style="stroke-width: 1.42 ;&st7;   " d=" M  2881.02,   163.82  C  2883.52    163.82   2885.55    161.80   2885.55    159.29  " /><path style="stroke-width: 1.42 ;&st7;   " d=" M  2885.55,   168.36  C  2885.55    165.85   2883.52    163.82   2881.02    163.82  " /><path style="stroke-width: 1.42 ;&st7;   " d=" M  2881.02,   163.82  C  2878.52    163.82   2876.49    165.85   2876.49    168.36  " /><path style="stroke-width: 1.42 ;&st7;   " d=" M  2876.49,   168.36  C  2876.49    170.86   2878.52    172.89   2881.02    172.89  " /><path style="stroke-width: 1.42 ;&st7;   " d=" M  2881.02,   172.89  C  2883.52    172.89   2885.55    170.86   2885.55    168.36  " /><text style="&st18;" transform="matrix(&st16;  2878.75  161.26 )">A</text><text style="&st18;" transform="matrix(&st16;  2871.54  135.2 )">7</text><text style="&st18;" transform="matrix(&st16;  2871.54  126.13 )">7</text><text style="&st18;" transform="matrix(&st16;  2878.75  126.13 )">A</text><text style="&st18;" transform="matrix(&st16;  2878.75  135.2 )">B</text><path style="stroke-width: 1.42 ;&st7;   " d=" M  2885.55,   124.16  C  2885.55    121.66   2883.52    119.63   2881.02    119.63  " /><path style="stroke-width: 1.42 ;&st7;   " d=" M  2881.02,   119.63  C  2878.52    119.63   2876.49    121.66   2876.49    124.16  " /><path style="stroke-width: 1.42 ;&st7;   " d=" M  2876.49,   124.16  C  2876.49    126.67   2878.52    128.70   2881.02    128.70  " /><path style="stroke-width: 1.42 ;&st7;   " d=" M  2881.02,   128.70  C  2883.52    128.70   2885.55    126.67   2885.55    124.16  " /><path style="stroke-width: 1.42 ;&st7;   " d=" M  2885.55,   133.23  C  2885.55    130.73   2883.52    128.70   2881.02    128.70  " /><path style="stroke-width: 1.42 ;&st7;   " d=" M  2881.02,   128.70  C  2878.52    128.70   2876.49    130.73   2876.49    133.23  " /><path style="stroke-width: 1.42 ;&st7;   " d=" M  2876.49,   133.23  C  2876.49    135.73   2878.52    137.76   2881.02    137.76  " /><path style="stroke-width: 1.42 ;&st7;   " d=" M  2881.02,   137.76  C  2883.52    137.76   2885.55    135.73   2885.55    133.23  " /><g ewd:figtype="title"><text style="&st18;" transform="matrix(&st17;  2835.94  157.66 )">I70(A)</text><text style="&st18;" transform="matrix(&st17;  2842.76  157.67 )" ewd:textID="29">No. 19 Junction <tspan x="0 " dy="6.0">Connector</tspan></text><text style="&st18;" transform="matrix(&st17;  2856.05  157.66 )">I59(B)</text><text style="&st18;" transform="matrix(&st17;  2862.88  157.67 )" ewd:textID="22">No. 10 Junction <tspan x="0 " dy="6.0">Connector</tspan></text></g><g ewd:code="" ewd:figID="116" ewd:comment="" ewd:figtype="commref"><text style="&st18;" transform="matrix(&st16;  2886.11  161.26 )">(LHD)</text></g><g ewd:code="" ewd:figID="117" ewd:comment="" ewd:figtype="commref"><text style="&st18;" transform="matrix(&st16;  2886.11  170.33 )">(RHD)</text></g><g ewd:code="" ewd:figID="118" ewd:comment="" ewd:figtype="commref"><text style="&st18;" transform="matrix(&st16;  2886.11  126.13 )">(LHD)</text></g><g ewd:code="" ewd:figID="119" ewd:comment="" ewd:figtype="commref"><text style="&st18;" transform="matrix(&st16;  2886.11  135.2 )">(RHD)</text></g></g><g ewd:code="C69,C116" ewd:figID="20" ewd:comment="6,7" ewd:figtype="conn"><path style="stroke-width: 0.85 ;&st7;  " d=" M  3025.49,   486.20  L  3025.49,   473.46  " /><path style="stroke-width: 0.85 ;&st7;  " d=" M  3028.33,   469.21  L  3022.66,   472.04  " /><path style="stroke-width: 0.85 ;&st7;  " d=" M  3022.66,   466.37  L  3028.33,   469.21  " /><path style="stroke-width: 0.85 ;&st7;  " d=" M  3028.33,   463.54  L  3022.66,   466.37  " /><path style="stroke-width: 0.85 ;&st7;  " d=" M  3022.66,   460.71  L  3028.33,   463.54  " /><path style="stroke-width: 0.85 ;&st7;  " d=" M  3028.33,   457.88  L  3022.66,   460.71  " /><path style="stroke-width: 0.85 ;&st7;  " d=" M  3025.49,   456.46  L  3028.33,   457.88  " /><path style="stroke-width: 0.85 ;&st7;  " d=" M  3022.66,   472.04  L  3025.49,   473.46  " /><path style="stroke-width: 0.85 ;&st7;  " d=" M  3025.49,   456.46  L  3025.49,   443.71  " /><path style="stroke-width: 0.85 ;&st7;  " d=" M  3017.00,   456.46  L  3017.00,   473.46  " /><path style="stroke-width: 0.85 ;&st7;  " d=" M  3033.99,   456.46  L  3033.99,   473.46  " /><path style="stroke-width: 0.85 ;&st7;   " d=" M  3033.99,   456.46  C  3033.99    451.77   3030.19    447.96   3025.49    447.96  " /><path style="stroke-width: 0.85 ;&st7;   " d=" M  3025.49,   447.96  C  3020.80    447.96   3017.00    451.77   3017.00    456.46  " /><path style="stroke-width: 0.85 ;&st7;   " d=" M  3017.00,   473.46  C  3017.00    478.15   3020.80    481.95   3025.49    481.95  " /><path style="stroke-width: 0.85 ;&st7;   " d=" M  3025.49,   481.95  C  3030.19    481.95   3033.99    478.15   3033.99    473.46  " /><path style="stroke-width: 1.42 ;&st7;  " d=" M  3012.75,   486.20  L  3012.75,   443.71  L  3038.24,   443.71  L  3038.24,   486.20  L  3012.75,   486.20  " /><text style="&st18;" transform="matrix(&st16;  3016.01  501.77 )">1</text><text style="&st18;" transform="matrix(&st16;  3016.01  492.71 )">1</text><path style="stroke-width: 1.42 ;&st7;   " d=" M  3030.03,   499.80  C  3030.03    497.30   3028.00    495.27   3025.49    495.27  " /><path style="stroke-width: 1.42 ;&st7;   " d=" M  3025.49,   495.27  C  3022.99    495.27   3020.96    497.30   3020.96    499.80  " /><path style="stroke-width: 1.42 ;&st7;   " d=" M  3020.96,   499.80  C  3020.96    502.31   3022.99    504.33   3025.49    504.33  " /><path style="stroke-width: 1.42 ;&st7;   " d=" M  3025.49,   504.33  C  3028.00    504.33   3030.03    502.31   3030.03    499.80  " /><path style="stroke-width: 1.42 ;&st7;   " d=" M  3030.03,   490.74  C  3030.03    488.23   3028.00    486.20   3025.49    486.20  " /><path style="stroke-width: 1.42 ;&st7;   " d=" M  3025.49,   486.20  C  3022.99    486.20   3020.96    488.23   3020.96    490.74  " /><path style="stroke-width: 1.42 ;&st7;   " d=" M  3020.96,   490.74  C  3020.96    493.24   3022.99    495.27   3025.49    495.27  " /><path style="stroke-width: 1.42 ;&st7;   " d=" M  3025.49,   495.27  C  3028.00    495.27   3030.03    493.24   3030.03    490.74  " /><text style="&st18;" transform="matrix(&st16;  3023.23  501.77 )">B</text><text style="&st18;" transform="matrix(&st16;  3023.23  492.71 )">A</text><text style="&st18;" transform="matrix(&st16;  3016.01  432.08 )">2</text><text style="&st18;" transform="matrix(&st16;  3016.01  441.15 )">2</text><path style="stroke-width: 1.42 ;&st7;   " d=" M  3030.03,   430.11  C  3030.03    427.61   3028.00    425.58   3025.49    425.58  " /><path style="stroke-width: 1.42 ;&st7;   " d=" M  3025.49,   425.58  C  3022.99    425.58   3020.96    427.61   3020.96    430.11  " /><path style="stroke-width: 1.42 ;&st7;   " d=" M  3020.96,   430.11  C  3020.96    432.62   3022.99    434.65   3025.49    434.65  " /><path style="stroke-width: 1.42 ;&st7;   " d=" M  3025.49,   434.65  C  3028.00    434.65   3030.03    432.62   3030.03    430.11  " /><path style="stroke-width: 1.42 ;&st7;   " d=" M  3030.03,   439.18  C  3030.03    436.68   3028.00    434.65   3025.49    434.65  " /><path style="stroke-width: 1.42 ;&st7;   " d=" M  3025.49,   434.65  C  3022.99    434.65   3020.96    436.68   3020.96    439.18  " /><path style="stroke-width: 1.42 ;&st7;   " d=" M  3020.96,   439.18  C  3020.96    441.68   3022.99    443.71   3025.49    443.71  " /><path style="stroke-width: 1.42 ;&st7;   " d=" M  3025.49,   443.71  C  3028.00    443.71   3030.03    441.68   3030.03    439.18  " /><text style="&st18;" transform="matrix(&st16;  3023.23  441.15 )">B</text><text style="&st18;" transform="matrix(&st16;  3023.23  432.08 )">A</text><g ewd:figtype="title"><text style="&st18;" transform="matrix(&st17;  3003.1  489.11 )" ewd:textID="12">Diesel Engine Coolant <tspan x="0 " dy="6.0">Temperature Sensor</tspan></text><text style="&st18;" transform="matrix(&st17;  2996.28  489.1 )">C69(B),C116(A)</text></g><g ewd:code="" ewd:figID="122" ewd:comment="7" ewd:figtype="commref"><text style="&st18;" transform="matrix(&st16;  3030.59  441.15 )">(*7)</text></g><g ewd:code="" ewd:figID="123" ewd:comment="6" ewd:figtype="commref"><text style="&st18;" transform="matrix(&st16;  3030.59  432.08 )">(*6)</text></g><g ewd:code="" ewd:figID="124" ewd:comment="7" ewd:figtype="commref"><text style="&st18;" transform="matrix(&st16;  3030.59  501.77 )">(*7)</text></g><g ewd:code="" ewd:figID="125" ewd:comment="6" ewd:figtype="commref"><text style="&st18;" transform="matrix(&st16;  3030.59  492.71 )">(*6)</text></g></g><g ewd:figtype="conn" ewd:figID="26" ewd:code="A29,C39,I84"><path style="stroke-width: 0.85 ;&st7; stroke-dasharray:3, 1.5;" d=" M  2796.03,   320.20  L  2864.02,   320.20  " /><path style="stroke-width: 0.85 ;&st7; stroke-dasharray:3, 1.5;" d=" M  2796.03,   311.13  L  2864.02,   311.13  " /><path style="stroke-width: 0.85 ;&st7; stroke-dasharray:3, 1.5;" d=" M  2694.05,   320.20  L  2770.54,   320.20  " /><path style="stroke-width: 0.85 ;&st7; stroke-dasharray:3, 1.5;" d=" M  2694.05,   311.13  L  2770.54,   311.13  " /><path style="stroke-width: 0.85 ;&st7; stroke-dasharray:3, 1.5;" d=" M  2643.06,   363.26  L  2655.81,   363.26  " /><path style="stroke-width: 0.85 ;&st7; stroke-dasharray:3, 1.5;" d=" M  2643.06,   372.32  L  2660.05,   372.32  " /><path style="stroke-width: 1.42 ;&st7;  " d=" M  2617.56,   358.73  L  3093.48,   358.73  L  3093.48,   324.73  L  2617.56,   324.73  L  2617.56,   358.73  " /><g ewd:lineID="102,110"><text style="&st18;" transform="matrix(&st16;  2664.24  374.29 )">77</text><text style="&st18;" transform="matrix(&st16;  2660.9  365.23 )">111</text><text style="&st18;" transform="matrix(&st16;  2674.79  374.29 )">B</text><text style="&st18;" transform="matrix(&st16;  2674.79  365.23 )">B</text><path style="stroke-width: 1.42 ;&st7;   " d=" M  2681.59,   372.32  C  2681.59    369.82   2679.56    367.79   2677.05    367.79  " /><path style="stroke-width: 1.42 ;&st7;   " d=" M  2677.05,   367.79  C  2674.55    367.79   2672.52    369.82   2672.52    372.32  " /><path style="stroke-width: 1.42 ;&st7;   " d=" M  2672.52,   372.32  C  2672.52    374.83   2674.55    376.86   2677.05    376.86  " /><path style="stroke-width: 1.42 ;&st7;   " d=" M  2677.05,   376.86  C  2679.56    376.86   2681.59    374.83   2681.59    372.32  " /><path style="stroke-width: 1.42 ;&st7;   " d=" M  2681.59,   363.26  C  2681.59    360.75   2679.56    358.73   2677.05    358.73  " /><path style="stroke-width: 1.42 ;&st7;   " d=" M  2677.05,   358.73  C  2674.55    358.73   2672.52    360.75   2672.52    363.26  " /><path style="stroke-width: 1.42 ;&st7;   " d=" M  2672.52,   363.26  C  2672.52    365.76   2674.55    367.79   2677.05    367.79  " /><path style="stroke-width: 1.42 ;&st7;   " d=" M  2677.05,   367.79  C  2679.56    367.79   2681.59    365.76   2681.59    363.26  " /><text style="&st18;" transform="matrix(&st16;  2671.65  355.03 )">NE-</text></g><g ewd:lineID="105,109,95"><text style="&st18;" transform="matrix(&st16;  2774.72  322.17 )">18</text><text style="&st18;" transform="matrix(&st16;  2774.72  313.1 )">18</text><path style="stroke-width: 1.42 ;&st7;   " d=" M  2792.07,   311.13  C  2792.07    308.63   2790.04    306.60   2787.53    306.60  " /><path style="stroke-width: 1.42 ;&st7;   " d=" M  2787.53,   306.60  C  2785.03    306.60   2783.00    308.63   2783.00    311.13  " /><path style="stroke-width: 1.42 ;&st7;   " d=" M  2783.00,   311.13  C  2783.00    313.64   2785.03    315.67   2787.53    315.67  " /><path style="stroke-width: 1.42 ;&st7;   " d=" M  2787.53,   315.67  C  2790.04    315.67   2792.07    313.64   2792.07    311.13  " /><path style="stroke-width: 1.42 ;&st7;   " d=" M  2792.07,   320.20  C  2792.07    317.70   2790.04    315.67   2787.53    315.67  " /><path style="stroke-width: 1.42 ;&st7;   " d=" M  2787.53,   315.67  C  2785.03    315.67   2783.00    317.70   2783.00    320.20  " /><path style="stroke-width: 1.42 ;&st7;   " d=" M  2783.00,   320.20  C  2783.00    322.70   2785.03    324.73   2787.53    324.73  " /><path style="stroke-width: 1.42 ;&st7;   " d=" M  2787.53,   324.73  C  2790.04    324.73   2792.07    322.70   2792.07    320.20  " /><text style="&st18;" transform="matrix(&st16;  2785.11  313.1 )">C</text><text style="&st18;" transform="matrix(&st16;  2785.27  322.17 )">A</text><text style="&st18;" transform="matrix(&st16;  2781.24  332.37 )">ACT</text></g><g ewd:lineID="108,98"><text style="&st18;" transform="matrix(&st16;  2618.41  365.23 )">110</text><text style="&st18;" transform="matrix(&st16;  2621.74  374.29 )">78</text><path style="stroke-width: 1.42 ;&st7;   " d=" M  2639.09,   372.32  C  2639.09    369.82   2637.06    367.79   2634.56    367.79  " /><path style="stroke-width: 1.42 ;&st7;   " d=" M  2634.56,   367.79  C  2632.06    367.79   2630.03    369.82   2630.03    372.32  " /><path style="stroke-width: 1.42 ;&st7;   " d=" M  2630.03,   372.32  C  2630.03    374.83   2632.06    376.86   2634.56    376.86  " /><path style="stroke-width: 1.42 ;&st7;   " d=" M  2634.56,   376.86  C  2637.06    376.86   2639.09    374.83   2639.09    372.32  " /><path style="stroke-width: 1.42 ;&st7;   " d=" M  2639.09,   363.26  C  2639.09    360.75   2637.06    358.73   2634.56    358.73  " /><path style="stroke-width: 1.42 ;&st7;   " d=" M  2634.56,   358.73  C  2632.06    358.73   2630.03    360.75   2630.03    363.26  " /><path style="stroke-width: 1.42 ;&st7;   " d=" M  2630.03,   363.26  C  2630.03    365.76   2632.06    367.79   2634.56    367.79  " /><path style="stroke-width: 1.42 ;&st7;   " d=" M  2634.56,   367.79  C  2637.06    367.79   2639.09    365.76   2639.09    363.26  " /><text style="&st18;" transform="matrix(&st16;  2632.29  365.23 )">B</text><text style="&st18;" transform="matrix(&st16;  2632.29  374.29 )">B</text><text style="&st18;" transform="matrix(&st16;  2628.38  355.03 )">NE+</text></g><g ewd:lineID="114,115"><text style="&st18;" transform="matrix(&st16;  2868.2  313.1 )">15</text><text style="&st18;" transform="matrix(&st16;  2868.2  322.17 )">15</text><text style="&st18;" transform="matrix(&st16;  2878.6  313.1 )">C</text><path style="stroke-width: 1.42 ;&st7;   " d=" M  2885.55,   320.20  C  2885.55    317.70   2883.52    315.67   2881.02    315.67  " /><path style="stroke-width: 1.42 ;&st7;   " d=" M  2881.02,   315.67  C  2878.52    315.67   2876.49    317.70   2876.49    320.20  " /><path style="stroke-width: 1.42 ;&st7;   " d=" M  2876.49,   320.20  C  2876.49    322.70   2878.52    324.73   2881.02    324.73  " /><path style="stroke-width: 1.42 ;&st7;   " d=" M  2881.02,   324.73  C  2883.52    324.73   2885.55    322.70   2885.55    320.20  " /><path style="stroke-width: 1.42 ;&st7;   " d=" M  2885.55,   311.13  C  2885.55    308.63   2883.52    306.60   2881.02    306.60  " /><path style="stroke-width: 1.42 ;&st7;   " d=" M  2881.02,   306.60  C  2878.52    306.60   2876.49    308.63   2876.49    311.13  " /><path style="stroke-width: 1.42 ;&st7;   " d=" M  2876.49,   311.13  C  2876.49    313.64   2878.52    315.67   2881.02    315.67  " /><path style="stroke-width: 1.42 ;&st7;   " d=" M  2881.02,   315.67  C  2883.52    315.67   2885.55    313.64   2885.55    311.13  " /><text style="&st18;" transform="matrix(&st16;  2878.75  322.17 )">A</text><text style="&st18;" transform="matrix(&st16;  2872.55  332.37 )">TACH</text></g><g ewd:lineID="117"><text style="&st18;" transform="matrix(&st16;  2902.2  365.23 )">78</text><text style="&st18;" transform="matrix(&st16;  2912.75  365.23 )">B</text><path style="stroke-width: 1.42 ;&st7;   " d=" M  2919.55,   363.26  C  2919.55    360.75   2917.52    358.73   2915.01    358.73  " /><path style="stroke-width: 1.42 ;&st7;   " d=" M  2915.01,   358.73  C  2912.51    358.73   2910.48    360.75   2910.48    363.26  " /><path style="stroke-width: 1.42 ;&st7;   " d=" M  2910.48,   363.26  C  2910.48    365.76   2912.51    367.79   2915.01    367.79  " /><path style="stroke-width: 1.42 ;&st7;   " d=" M  2915.01,   367.79  C  2917.52    367.79   2919.55    365.76   2919.55    363.26  " /><text style="&st18;" transform="matrix(&st16;  2905.77  355.03 )">ETHW</text></g><g ewd:lineID="118"><text style="&st18;" transform="matrix(&st16;  2936.19  365.23 )">79</text><path style="stroke-width: 1.42 ;&st7;   " d=" M  2953.54,   363.26  C  2953.54    360.75   2951.51    358.73   2949.01    358.73  " /><path style="stroke-width: 1.42 ;&st7;   " d=" M  2949.01,   358.73  C  2946.50    358.73   2944.47    360.75   2944.47    363.26  " /><path style="stroke-width: 1.42 ;&st7;   " d=" M  2944.47,   363.26  C  2944.47    365.76   2946.50    367.79   2949.01    367.79  " /><path style="stroke-width: 1.42 ;&st7;   " d=" M  2949.01,   367.79  C  2951.51    367.79   2953.54    365.76   2953.54    363.26  " /><text style="&st18;" transform="matrix(&st16;  2946.74  365.23 )">B</text><text style="&st18;" transform="matrix(&st16;  2941.78  355.03 )">THW</text></g><g ewd:lineID="96,97,99"><text style="&st18;" transform="matrix(&st16;  2672.74  322.17 )">30</text><text style="&st18;" transform="matrix(&st16;  2672.74  313.1 )">30</text><path style="stroke-width: 1.42 ;&st7;   " d=" M  2690.08,   311.13  C  2690.08    308.63   2688.05    306.60   2685.55    306.60  " /><path style="stroke-width: 1.42 ;&st7;   " d=" M  2685.55,   306.60  C  2683.05    306.60   2681.02    308.63   2681.02    311.13  " /><path style="stroke-width: 1.42 ;&st7;   " d=" M  2681.02,   311.13  C  2681.02    313.64   2683.05    315.67   2685.55    315.67  " /><path style="stroke-width: 1.42 ;&st7;   " d=" M  2685.55,   315.67  C  2688.05    315.67   2690.08    313.64   2690.08    311.13  " /><text style="&st18;" transform="matrix(&st16;  2683.13  313.1 )">C</text><text style="&st18;" transform="matrix(&st16;  2683.29  322.17 )">A</text><path style="stroke-width: 1.42 ;&st7;   " d=" M  2690.08,   320.20  C  2690.08    317.70   2688.05    315.67   2685.55    315.67  " /><path style="stroke-width: 1.42 ;&st7;   " d=" M  2685.55,   315.67  C  2683.05    315.67   2681.02    317.70   2681.02    320.20  " /><path style="stroke-width: 1.42 ;&st7;   " d=" M  2681.02,   320.20  C  2681.02    322.70   2683.05    324.73   2685.55    324.73  " /><path style="stroke-width: 1.42 ;&st7;   " d=" M  2685.55,   324.73  C  2688.05    324.73   2690.08    322.70   2690.08    320.20  " /><text style="&st18;" transform="matrix(&st16;  2679.49  332.37 )">AC1</text></g><g ewd:figtype="title"><text style="&st18;" transform="matrix(&st16;  2937.1  314.21 )">A29(A),C39(B),I84(C)</text><text style="&st18;" transform="matrix(&st16;  2937.1  321.03 )">ECM</text></g></g><g ewd:figtype="w2w" ewd:figID="56" ewd:code="AI3"><path style="stroke-width: 1.42 ;&st7;  " d=" M  2655.81,   230.68  L  2660.05,   234.93  L  2664.30,   230.68  " /><path style="stroke-width: 1.42 ;&st7;  " d=" M  2664.30,   234.08  L  2660.05,   238.33  L  2655.81,   234.08  " /><text style="&st18;" transform="matrix(&st16;  2643.3  245.96 )">60</text></g><g ewd:code="AI3" ewd:figID="57" ewd:comment="6" ewd:figtype="w2w"><text style="&st18;" transform="matrix(&st16;  2728.29  245.96 )">11</text><g ewd:code="" ewd:figID="102" ewd:comment="6" ewd:figtype="commref"><text style="&st18;" transform="matrix(&st16;  2754.07  245.96 )">(*6)</text></g></g><g ewd:code="AI3" ewd:figID="58" ewd:comment="7" ewd:figtype="w2w"><path style="stroke-width: 1.42 ;&st7;  " d=" M  2740.79,   222.18  L  2745.04,   226.43  L  2749.29,   222.18  " /><path style="stroke-width: 1.42 ;&st7;  " d=" M  2749.29,   225.58  L  2745.04,   229.83  L  2740.79,   225.58  " /><text style="&st18;" transform="matrix(&st16;  2731.62  237.47 )">8</text><g ewd:code="" ewd:figID="103" ewd:comment="7" ewd:figtype="commref"><text style="&st18;" transform="matrix(&st16;  2754.07  237.47 )">(*7)</text></g></g><g ewd:figtype="w2w" ewd:figID="59" ewd:code="AI3"><path style="stroke-width: 1.42 ;&st7;  " d=" M  2876.77,   230.68  L  2881.02,   234.93  L  2885.27,   230.68  " /><path style="stroke-width: 1.42 ;&st7;  " d=" M  2885.27,   234.08  L  2881.02,   238.33  L  2876.77,   234.08  " /><text style="&st18;" transform="matrix(&st16;  2864.27  245.96 )">45</text></g><g ewd:figtype="gp" ewd:figID="64" ewd:code="CB"><path style="stroke-width: 0.85 ;&st7;  " d=" M  2726.63,   710.00  L  2729.46,   710.00  " /><path style="stroke-width: 0.85 ;&st7;  " d=" M  2725.21,   707.17  L  2730.88,   707.17  " /><path style="stroke-width: 0.85 ;&st7;  " d=" M  2723.79,   704.33  L  2732.29,   704.33  " /><path style="stroke-width: 0.85 ;&st7;  " d=" M  2719.54,   701.50  L  2736.54,   701.50  " /><path style="stroke-width: 0.85 ;&st7;  " d=" M  2728.04,   697.25  L  2728.04,   701.50  " /></g><g ewd:figtype="gp" ewd:figID="65" ewd:code="CE"><path style="stroke-width: 0.85 ;&st7;  " d=" M  2879.60,   710.00  L  2882.43,   710.00  " /><path style="stroke-width: 0.85 ;&st7;  " d=" M  2878.18,   707.17  L  2883.85,   707.17  " /><path style="stroke-width: 0.85 ;&st7;  " d=" M  2876.77,   704.33  L  2885.27,   704.33  " /><path style="stroke-width: 0.85 ;&st7;  " d=" M  2872.52,   701.50  L  2889.52,   701.50  " /><path style="stroke-width: 0.85 ;&st7;  " d=" M  2881.02,   697.25  L  2881.02,   701.50  " /></g><g ewd:code=" " ewd:figID="105" ewd:comment="2,8" ewd:figtype="sh"><path style="stroke-width: 0.85 ;&st7; stroke-dasharray:3, 1.5;" d=" M  2838.52,   426.71  L  2762.04,   426.71  L  2762.04,   460.71  L  2838.52,   460.71  L  2838.52,   426.71  " /><path style="stroke-width: 0.85 ;&st7;  " d=" M  2837.33,   459.71  L  2837.06,   460.18  L  2836.97,   460.71  L  2837.06,   461.24  L  2837.33,   461.71  L  2837.75,   462.06  L  2838.25,   462.24  L  2838.80,   462.24  L  2839.30,   462.06  L  2839.72,   461.71  L  2839.99,   461.24  L  2840.08,   460.71  L  2839.99,   460.18  L  2839.72,   459.71  L  2839.30,   459.36  L  2838.80,   459.17  L  2838.25,   459.17  L  2837.75,   459.36  L  2837.33,   459.71  L  2837.73,   460.42  L  2837.73,   461.00  L  2838.10,   461.44  L  2838.67,   461.54  L  2839.18,   461.26  L  2839.37,   460.71  L  2839.18,   460.16  L  2838.67,   459.87  L  2838.10,   459.97  L  2838.52,   460.71  " /><path style="stroke-width: 0.85 ;&st7;  " d=" M  2837.33,   425.71  L  2837.06,   426.18  L  2836.97,   426.71  L  2837.06,   427.25  L  2837.33,   427.72  L  2837.75,   428.06  L  2838.25,   428.25  L  2838.80,   428.25  L  2839.30,   428.06  L  2839.72,   427.72  L  2839.99,   427.25  L  2840.08,   426.71  L  2839.99,   426.18  L  2839.72,   425.71  L  2839.30,   425.37  L  2838.80,   425.18  L  2838.25,   425.18  L  2837.75,   425.37  L  2837.33,   425.71  L  2837.73,   426.42  L  2837.73,   427.01  L  2838.10,   427.45  L  2838.67,   427.55  L  2839.18,   427.26  L  2839.37,   426.71  L  2839.18,   426.17  L  2838.67,   425.88  L  2838.10,   425.98  L  2838.52,   426.71  " /><g ewd:code="" ewd:figID="108" ewd:comment="2" ewd:figtype="commref"><text style="&st18;" transform="matrix(&st17;  2769.67  448.27 )">(*2)</text></g><g ewd:code="" ewd:figID="110" ewd:comment="8" ewd:figtype="commref"><text style="&st18;" transform="matrix(&st17;  2758.34  448.27 )">(*8)</text></g></g><g ewd:code=" " ewd:figID="106" ewd:comment="1,8" ewd:figtype="sh"><path style="stroke-width: 0.85 ;&st7; stroke-dasharray:3, 1.5;" d=" M  2702.55,   460.71  L  2609.06,   460.71  L  2609.06,   426.71  L  2702.55,   426.71  L  2702.55,   460.71  " /><path style="stroke-width: 0.85 ;&st7;  " d=" M  2701.35,   459.71  L  2701.08,   460.18  L  2700.99,   460.71  L  2701.08,   461.24  L  2701.35,   461.71  L  2701.77,   462.06  L  2702.28,   462.24  L  2702.82,   462.24  L  2703.33,   462.06  L  2703.74,   461.71  L  2704.01,   461.24  L  2704.11,   460.71  L  2704.01,   460.18  L  2703.74,   459.71  L  2703.33,   459.36  L  2702.82,   459.17  L  2702.28,   459.17  L  2701.77,   459.36  L  2701.35,   459.71  L  2701.75,   460.42  L  2701.75,   461.00  L  2702.12,   461.44  L  2702.69,   461.54  L  2703.20,   461.26  L  2703.40,   460.71  L  2703.20,   460.16  L  2702.69,   459.87  L  2702.12,   459.97  L  2702.55,   460.71  " /><g ewd:code="" ewd:figID="112" ewd:comment="8" ewd:figtype="commref"><text style="&st18;" transform="matrix(&st17;  2605.37  448.27 )">(*8)</text></g><g ewd:code="" ewd:figID="107" ewd:comment="1" ewd:figtype="commref"><text style="&st18;" transform="matrix(&st17;  2616.7  448.27 )">(*1)</text></g></g><g ewd:code="" ewd:figID="120" ewd:comment="" ewd:figtype="commref"><text style="&st18;" transform="matrix(&st16;  2886.11  313.1 )">(LHD)</text></g><g ewd:code="" ewd:figID="121" ewd:comment="" ewd:figtype="commref"><text style="&st18;" transform="matrix(&st16;  2886.11  322.17 )">(RHD)</text></g><g ewd:code="" ewd:figID="133" ewd:comment="1" ewd:figtype="commref"><text style="&st18;" transform="matrix(&st16;  2682.15  365.23 )">(*1)</text></g><g ewd:code="" ewd:figID="134" ewd:comment="2" ewd:figtype="commref"><text style="&st18;" transform="matrix(&st16;  2682.15  374.29 )">(*2)</text></g></svg>