<?xml version="1.0" encoding="utf-8"?>
<!DOCTYPE svg PUBLIC "-//W3C//DTD SVG 1.0//EN" "http://www.w3.org/TR/2001/REC-SVG-20010904/DTD/svg10.dtd"[
	<!ENTITY ns_flows "http://ns.adobe.com/Flows/1.0/">
	<!ENTITY ns_svg "http://www.w3.org/2000/svg">
	<!ENTITY ns_xlink "http://www.w3.org/1999/xlink">
	<!ENTITY st0 "font-size:7px;font-family:'MS-PGothic';adobe-font-script:japanese;">
	<!ENTITY st1 "font-size:6px;font-family:'ArialMT';">
	<!-- White fill  -->
	<!ENTITY st2 "fill:#FFFFFF;stroke:#000000; stroke-width:1.41;stroke-linecap:round;stroke-linejoin:round;">
	<!-- Yellow fill  -->
	<!ENTITY st3 "fill:#FFFFCC;stroke:#FFFFCC; stroke-width:0.1;stroke-linecap:round;stroke-linejoin:round;">
	<!-- Gray fill  -->
	<!ENTITY st4 "fill:#CCCCCC;stroke:#CCCCCC; stroke-width:0.1;stroke-linecap:round;stroke-linejoin:round;">
	<!-- Light-blue fill -->
	<!ENTITY st5 "fill:#CCECF4;stroke:#000000; stroke-width:1.133;stroke-linecap:round;stroke-linejoin:round;">
	<!ENTITY st6 "fill:none;stroke-linecap:butt; stroke-linejoin:round;">
	<!ENTITY st7 "fill:none;stroke:#000000;stroke-linecap:round;stroke-linejoin:round;">
	<!ENTITY st8 "enable-background:new    ;">
	<!-- Black fill -->
	<!ENTITY st9 "fill:#000000;stroke:#000000; stroke-linecap:round;stroke-linejoin:round;">
	<!-- SRS note   -->
	<!ENTITY st10 "font-size:9px;font-family:'ArialMT';">
	<!ENTITY st11 "font-size:9px;font-family:'Svg Symbol';">
	<!ENTITY st12 "font-size:6px;font-family:'Svg Symbol';">
	<!ENTITY st13 "fill:none;stroke:#ff0000;stroke-linecap:round;stroke-linejoin:round;">
	<!-- Yellow fill  -->
	<!ENTITY st14 "fill:#FFFF00;stroke:#FFFF00; stroke-width:0.1;stroke-linecap:round;stroke-linejoin:round;">
	<!ENTITY st15 "font-size:6px;font-family:'MS-PGothic';adobe-font-script:japanese;">
	<!ENTITY st16 "1.00 0.00 0.00 1.00">
	<!ENTITY st17 "0.00 -1.00 1.00 0.00">
	<!ENTITY st18 "font-size:6px;font-family:'Arial';">
	<!ENTITY st19 "font-size:9px;font-family:'Arial';">
	<!ENTITY st20 "font-size:6px;font-family:'MS-PGothic','MS PGothic';adobe-font-script:japanese;">
	<!ENTITY st21 "font-size:7px;font-family:'MS-PGothic','MS PGothic';adobe-font-script:japanese;">
	<!ATTLIST svg
		xmlns:ewd CDATA #FIXED "http://shcl.co.jp/ewd"
		xmlns:a CDATA #FIXED "http://ns.adobe.com/AdobeSVGViewerExtensions/3.0/"
		ewd:ver CDATA #IMPLIED
	>
	<!ATTLIST a
		ewd:lineID CDATA #IMPLIED
		ewd:groupID CDATA #IMPLIED
		ewd:figtype CDATA #IMPLIED
		ewd:code CDATA #IMPLIED
		ewd:figID CDATA #IMPLIED
		ewd:pinNo CDATA #IMPLIED
		ewd:comment CDATA #IMPLIED >
	<!ATTLIST g
		ewd:lineID CDATA #IMPLIED
		ewd:groupID CDATA #IMPLIED
		ewd:figtype CDATA #IMPLIED
		ewd:code CDATA #IMPLIED
		ewd:figID CDATA #IMPLIED
		ewd:pinNo CDATA #IMPLIED
		ewd:comment CDATA #IMPLIED >
	<!ATTLIST text
		ewd:textID CDATA #IMPLIED >
	<!ATTLIST title
		ewd:textID CDATA #IMPLIED >
]>
<!-- Generator: Shintec Hozumi YS   -->
<svg onload="call_execInitLoadProc_svg('system')" style="overflow:visible;  enable-background:new 0 0 3105.354 710.000" viewBox="0 0 3105.354 710.000" height="710.000" width="3105.354" xml:space="preserve" ewd:ver="2.3.1.16" xmlns="&ns_svg;" xmlns:a="http://ns.adobe.com/AdobeSVGViewerExtensions/3.0/" xmlns:ewd="http://shcl.co.jp/ewd" xmlns:xlink="&ns_xlink;">
<path style="stroke-width: 1.42 ;&st7;  " d=" M  1963.17,   341.73  L  1954.67,   341.73  " /><path style="stroke-width: 1.42 ;&st7;  " d=" M  1512.75,   571.19  L  1504.25,   571.19  " /><text style="&st18;" transform="matrix(&st17;  1993.47  56.2 )">L-R</text><text style="&st18;" transform="matrix(&st17;  1993.47  179.43 )">L-R</text><text style="&st18;" transform="matrix(&st17;  1877.32  378.61 )">(LHD *9)</text><text style="&st18;" transform="matrix(&st17;  1865.99  372.13 )">R-B</text><text style="&st18;" transform="matrix(&st17;  1877.32  190.5 )">(LHD *9)</text><text style="&st18;" transform="matrix(&st17;  1865.99  183.68 )">L-R</text><text style="&st18;" transform="matrix(&st16;  1903.1  372.03 )">R-B(RHD *9)</text><text style="&st18;" transform="matrix(&st17;  1500.55  534.42 )">B-W</text><text style="&st18;" transform="matrix(&st17;  1511.89  536.94 )">(*3 *9)</text><text style="&st18;" transform="matrix(&st17;  1670.53  500.42 )">W-B</text><text style="&st18;" transform="matrix(&st17;  1681.86  502.44 )">(LHD)</text><text style="&st18;" transform="matrix(&st17;  1619.53  496.08 )">L</text><text style="&st18;" transform="matrix(&st17;  1670.53  610.91 )">W-B</text><text style="&st18;" transform="matrix(&st17;  1681.86  612.92 )">(LHD)</text><text style="&st18;" transform="matrix(&st17;  1738.51  500.42 )">W-B</text><text style="&st18;" transform="matrix(&st17;  1749.85  502.94 )">(RHD)</text><text style="&st18;" transform="matrix(&st16;  1806.78  460.1 )">I88</text><text style="&st18;" transform="matrix(&st17;  1670.52  193.74 )">Y-G</text><text style="&st18;" transform="matrix(&st17;  1747.01  193.74 )">Y-G</text><text style="&st18;" transform="matrix(&st17;  1619.53  193.74 )">Y-G</text><text style="&st18;" transform="matrix(&st16;  1806.79  466.93 )" ewd:textID="10">Cooler Stabilizer Amplifier Assembly</text><text style="&st18;" transform="matrix(&st17;  1747.01  303.91 )">Y-B</text><text style="&st18;" transform="matrix(&st17;  1738.51  610.91 )">W-B</text><text style="&st18;" transform="matrix(&st17;  1749.85  613.43 )">(RHD)</text><text style="&st18;" transform="matrix(&st17;  1630.87  197.0 )">(*5 *9)</text><text style="&st18;" transform="matrix(&st17;  1681.86  197.0 )">(*5 *9)</text><text style="&st18;" transform="matrix(&st17;  1758.34  197.0 )">(*5 *9)</text><text style="&st18;" transform="matrix(&st17;  1758.34  307.48 )">(*5 *9)</text><text style="&st18;" transform="matrix(&st17;  1630.86  499.26 )">(*5)</text><text style="&st18;" transform="matrix(&st16;  1830.64  49.08 )">L-R(*5 *9)</text><text style="&st18;" transform="matrix(&st17;  1500.55  598.16 )">B-W</text><text style="&st18;" transform="matrix(&st17;  1511.88  596.99 )">(*3)</text><text style="&st18;" transform="matrix(&st16;  1831.61  66.08 )">R(*5 *10)</text><path style="stroke-width: 1.42 ;&st7;  " d=" M  1750.71,   542.17  L  1745.74,   537.20  " /><path style="stroke-width: 1.42 ;&st7;  " d=" M  1733.71,   549.22  L  1738.68,   554.19  " /><path style="stroke-width: 1.42 ;&st7;  " d=" M  1745.74,   554.19  L  1750.71,   549.22  " /><path style="stroke-width: 1.42 ;&st7;  " d=" M  1738.68,   537.20  L  1733.71,   542.17  " /><text style="&st18;" transform="matrix(&st16;  1567.19  32.08 )">L-R(*5 *9)</text><text style="&st18;" transform="matrix(&st16;  1516.2  49.08 )">L-R(*5 *9)</text><text style="&st18;" transform="matrix(&st16;  1517.16  66.08 )">R(*5 *10)</text><text style="&st18;" transform="matrix(&st16;  1567.19  49.08 )">L-R(*5 *9)</text><text style="&st18;" transform="matrix(&st16;  1568.16  66.08 )">R(*5 *10)</text><text style="&st18;" transform="matrix(&st16;  1574.2  312.54 )">W-G</text><text style="&st18;" transform="matrix(&st16;  1571.99  323.87 )">(*5 *9)</text><text style="&st18;" transform="matrix(&st16;  1523.21  312.54 )">W-G</text><text style="&st18;" transform="matrix(&st16;  1521.0  323.87 )">(*5 *9)</text><text style="&st18;" transform="matrix(&st16;  1527.87  686.47 )">L</text><text style="&st18;" transform="matrix(&st16;  1524.69  697.8 )">(*5)</text><text style="&st18;" transform="matrix(&st16;  1578.86  686.47 )">L</text><text style="&st18;" transform="matrix(&st16;  1575.68  697.8 )">(*5)</text><text style="&st18;" transform="matrix(&st16;  1976.09  15.09 )">R(*5 *10)</text><text style="&st18;" transform="matrix(&st16;  1516.2  32.08 )">L-R(*5 *9)</text><text style="&st18;" transform="matrix(&st16;  1568.16  15.09 )">R(*5 *10)</text><text style="&st18;" transform="matrix(&st16;  1517.16  15.09 )">R(*5 *10)</text><text style="&st18;" transform="matrix(&st17;  1537.38  538.61 )">(*3 *10)</text><text style="&st18;" transform="matrix(&st17;  1526.05  531.39 )">W</text><text style="&st18;" transform="matrix(&st16;  1570.33  298.37 )">(*5 *10)</text><text style="&st18;" transform="matrix(&st16;  1527.17  287.04 )">G</text><text style="&st18;" transform="matrix(&st17;  1500.55  216.33 )">G</text><text style="&st18;" transform="matrix(&st17;  1511.89  224.16 )">(*5 *10)</text><text style="&st18;" transform="matrix(&st16;  1578.16  287.04 )">G</text><text style="&st18;" transform="matrix(&st16;  1519.34  298.37 )">(*5 *10)</text><text style="&st18;" transform="matrix(&st17;  1605.37  198.66 )">(*5 *10)</text><text style="&st18;" transform="matrix(&st17;  1594.04  192.54 )">SB</text><text style="&st18;" transform="matrix(&st17;  1772.51  301.0 )">V</text><text style="&st18;" transform="matrix(&st17;  1707.35  198.66 )">(*5 *10)</text><text style="&st18;" transform="matrix(&st17;  1696.02  192.54 )">SB</text><text style="&st18;" transform="matrix(&st17;  1783.84  309.14 )">(*5 *10)</text><text style="&st18;" transform="matrix(&st17;  1783.84  198.66 )">(*5 *10)</text><text style="&st18;" transform="matrix(&st17;  1772.51  192.54 )">SB</text><text style="&st18;" transform="matrix(&st17;  1840.5  368.99 )">B</text><text style="&st18;" transform="matrix(&st17;  1851.83  380.27 )">(LHD *10)</text><text style="&st18;" transform="matrix(&st16;  1904.57  389.02 )">B(RHD *10)</text><text style="&st18;" transform="matrix(&st17;  1840.5  180.5 )">L</text><text style="&st18;" transform="matrix(&st17;  1851.83  192.17 )">(LHD *10)</text><path style="stroke-width: 1.42 ;&st7;  " d=" M  1946.17,   197.25  L  1954.67,   197.25  " /><text style="&st18;" transform="matrix(&st16;  1898.28  338.03 )">R-B</text><text style="&st18;" transform="matrix(&st16;  1903.45  168.06 )">L-R(RHD *9)</text><text style="&st18;" transform="matrix(&st16;  1904.96  151.06 )">L(RHD *10)</text><text style="&st18;" transform="matrix(&st16;  1894.94  349.36 )">(RHD)</text><text style="&st18;" transform="matrix(&st16;  1898.62  193.56 )">L-R</text><text style="&st18;" transform="matrix(&st16;  1894.94  204.89 )">(RHD)</text><g ewd:figtype="conn" ewd:figID="2" ewd:code="I16"><path style="stroke-width: 0.85 ;&st7;  " d=" M  1623.23,   265.24  L  1623.23,   252.49  " /><path style="stroke-width: 0.85 ;&st7;  " d=" M  1626.06,   248.24  L  1620.40,   251.08  " /><path style="stroke-width: 0.85 ;&st7;  " d=" M  1620.40,   245.41  L  1626.06,   248.24  " /><path style="stroke-width: 0.85 ;&st7;  " d=" M  1626.06,   242.58  L  1620.40,   245.41  " /><path style="stroke-width: 0.85 ;&st7;  " d=" M  1620.40,   239.75  L  1626.06,   242.58  " /><path style="stroke-width: 0.85 ;&st7;  " d=" M  1626.06,   236.91  L  1620.40,   239.75  " /><path style="stroke-width: 0.85 ;&st7;  " d=" M  1623.23,   235.50  L  1626.06,   236.91  " /><path style="stroke-width: 0.85 ;&st7;  " d=" M  1620.40,   251.08  L  1623.23,   252.49  " /><path style="stroke-width: 0.85 ;&st7;  " d=" M  1623.23,   235.50  L  1623.23,   222.75  " /><path style="stroke-width: 0.85 ;&st7;  " d=" M  1614.73,   235.50  L  1614.73,   252.49  " /><path style="stroke-width: 0.85 ;&st7;  " d=" M  1631.73,   235.50  L  1631.73,   252.49  " /><path style="stroke-width: 0.85 ;&st7;   " d=" M  1631.73,   235.50  C  1631.73    230.80   1627.92    227.00   1623.23    227.00  " /><path style="stroke-width: 0.85 ;&st7;   " d=" M  1623.23,   227.00  C  1618.54    227.00   1614.73    230.80   1614.73    235.50  " /><path style="stroke-width: 0.85 ;&st7;   " d=" M  1614.73,   252.49  C  1614.73    257.19   1618.54    260.99   1623.23    260.99  " /><path style="stroke-width: 0.85 ;&st7;   " d=" M  1623.23,   260.99  C  1627.92    260.99   1631.73    257.19   1631.73    252.49  " /><path style="stroke-width: 1.42 ;&st7;  " d=" M  1610.48,   265.24  L  1610.48,   222.75  L  1635.98,   222.75  L  1635.98,   265.24  L  1610.48,   265.24  " /><text style="&st18;" transform="matrix(&st16;  1616.89  273.43 )">1</text><text style="&st18;" transform="matrix(&st16;  1616.89  219.06 )">2</text><g ewd:figtype="title"><text style="&st18;" transform="matrix(&st17;  1650.69  268.15 )" ewd:textID="18">No. 1 Cooler <tspan x="0 " dy="6.0">Thermistor</tspan></text><text style="&st18;" transform="matrix(&st17;  1643.87  268.14 )">I16</text></g></g><g ewd:figtype="conn" ewd:figID="3" ewd:code="A6,I2"><path style="stroke-width: 0.85 ;&st7;  " d=" M  1869.69,   277.99  L  1869.69,   273.74  " /><path style="stroke-width: 0.85 ;&st7;  " d=" M  1869.69,   307.73  L  1869.69,   303.48  " /><path style="stroke-width: 1.42 ;&st7;  " d=" M  1869.69,   300.65  L  1875.35,   277.99  " /><path style="stroke-width: 0.85 ;&st7;  " d=" M  1869.69,   235.50  L  1869.69,   231.25  " /><path style="stroke-width: 0.85 ;&st7;  " d=" M  1869.69,   273.74  L  1869.69,   260.99  " /><path style="stroke-width: 1.42 ;&st7;  " d=" M  1869.69,   258.16  L  1875.35,   235.50  " /><path style="stroke-width: 0.85 ;&st7;   " d=" M  1871.10,   279.41  C  1871.10    278.62   1870.47    277.99   1869.69    277.99  " /><path style="stroke-width: 0.85 ;&st7;   " d=" M  1869.69,   277.99  C  1868.91    277.99   1868.27    278.62   1868.27    279.41  " /><path style="stroke-width: 0.85 ;&st7;   " d=" M  1868.27,   279.41  C  1868.27    280.19   1868.91    280.82   1869.69    280.82  " /><path style="stroke-width: 0.85 ;&st7;   " d=" M  1869.69,   280.82  C  1870.47    280.82   1871.10    280.19   1871.10    279.41  " /><path style="stroke-width: 0.85 ;&st7;   " d=" M  1871.10,   302.07  C  1871.10    301.29   1870.47    300.65   1869.69    300.65  " /><path style="stroke-width: 0.85 ;&st7;   " d=" M  1869.69,   300.65  C  1868.91    300.65   1868.27    301.29   1868.27    302.07  " /><path style="stroke-width: 0.85 ;&st7;   " d=" M  1868.27,   302.07  C  1868.27    302.85   1868.91    303.48   1869.69    303.48  " /><path style="stroke-width: 0.85 ;&st7;   " d=" M  1869.69,   303.48  C  1870.47    303.48   1871.10    302.85   1871.10    302.07  " /><path style="stroke-width: 0.85 ;&st7;   " d=" M  1871.10,   236.91  C  1871.10    236.13   1870.47    235.50   1869.69    235.50  " /><path style="stroke-width: 0.85 ;&st7;   " d=" M  1869.69,   235.50  C  1868.91    235.50   1868.27    236.13   1868.27    236.91  " /><path style="stroke-width: 0.85 ;&st7;   " d=" M  1868.27,   236.91  C  1868.27    237.69   1868.91    238.33   1869.69    238.33  " /><path style="stroke-width: 0.85 ;&st7;   " d=" M  1869.69,   238.33  C  1870.47    238.33   1871.10    237.69   1871.10    236.91  " /><path style="stroke-width: 0.85 ;&st7;   " d=" M  1871.10,   259.58  C  1871.10    258.79   1870.47    258.16   1869.69    258.16  " /><path style="stroke-width: 0.85 ;&st7;   " d=" M  1869.69,   258.16  C  1868.91    258.16   1868.27    258.79   1868.27    259.58  " /><path style="stroke-width: 0.85 ;&st7;   " d=" M  1868.27,   259.58  C  1868.27    260.36   1868.91    260.99   1869.69    260.99  " /><path style="stroke-width: 0.85 ;&st7;   " d=" M  1869.69,   260.99  C  1870.47    260.99   1871.10    260.36   1871.10    259.58  " /><path style="stroke-width: 1.42 ;&st7;  " d=" M  1878.19,   231.25  L  1878.19,   307.73  L  1861.19,   307.73  L  1861.19,   231.25  L  1878.19,   231.25  " /><text style="&st18;" transform="matrix(&st16;  1860.21  323.3 )">1</text><text style="&st18;" transform="matrix(&st16;  1860.21  314.24 )">1</text><path style="stroke-width: 1.42 ;&st7;   " d=" M  1874.22,   321.33  C  1874.22    318.83   1872.19    316.80   1869.69    316.80  " /><path style="stroke-width: 1.42 ;&st7;   " d=" M  1869.69,   316.80  C  1867.18    316.80   1865.16    318.83   1865.16    321.33  " /><path style="stroke-width: 1.42 ;&st7;   " d=" M  1865.16,   321.33  C  1865.16    323.83   1867.18    325.86   1869.69    325.86  " /><path style="stroke-width: 1.42 ;&st7;   " d=" M  1869.69,   325.86  C  1872.19    325.86   1874.22    323.83   1874.22    321.33  " /><path style="stroke-width: 1.42 ;&st7;   " d=" M  1874.22,   312.27  C  1874.22    309.76   1872.19    307.73   1869.69    307.73  " /><path style="stroke-width: 1.42 ;&st7;   " d=" M  1869.69,   307.73  C  1867.18    307.73   1865.16    309.76   1865.16    312.27  " /><path style="stroke-width: 1.42 ;&st7;   " d=" M  1865.16,   312.27  C  1865.16    314.77   1867.18    316.80   1869.69    316.80  " /><path style="stroke-width: 1.42 ;&st7;   " d=" M  1869.69,   316.80  C  1872.19    316.80   1874.22    314.77   1874.22    312.27  " /><text style="&st18;" transform="matrix(&st16;  1867.42  323.3 )">B</text><text style="&st18;" transform="matrix(&st16;  1867.42  314.24 )">A</text><text style="&st18;" transform="matrix(&st16;  1860.21  219.62 )">2</text><text style="&st18;" transform="matrix(&st16;  1860.21  228.68 )">2</text><path style="stroke-width: 1.42 ;&st7;   " d=" M  1874.22,   217.65  C  1874.22    215.15   1872.19    213.12   1869.69    213.12  " /><path style="stroke-width: 1.42 ;&st7;   " d=" M  1869.69,   213.12  C  1867.18    213.12   1865.16    215.15   1865.16    217.65  " /><path style="stroke-width: 1.42 ;&st7;   " d=" M  1865.16,   217.65  C  1865.16    220.15   1867.18    222.18   1869.69    222.18  " /><path style="stroke-width: 1.42 ;&st7;   " d=" M  1869.69,   222.18  C  1872.19    222.18   1874.22    220.15   1874.22    217.65  " /><path style="stroke-width: 1.42 ;&st7;   " d=" M  1874.22,   226.71  C  1874.22    224.21   1872.19    222.18   1869.69    222.18  " /><path style="stroke-width: 1.42 ;&st7;   " d=" M  1869.69,   222.18  C  1867.18    222.18   1865.16    224.21   1865.16    226.71  " /><path style="stroke-width: 1.42 ;&st7;   " d=" M  1865.16,   226.71  C  1865.16    229.22   1867.18    231.25   1869.69    231.25  " /><path style="stroke-width: 1.42 ;&st7;   " d=" M  1869.69,   231.25  C  1872.19    231.25   1874.22    229.22   1874.22    226.71  " /><text style="&st18;" transform="matrix(&st16;  1867.42  228.68 )">B</text><text style="&st18;" transform="matrix(&st16;  1867.42  219.62 )">A</text><g ewd:figtype="title"><text style="&st18;" transform="matrix(&st17;  1838.77  310.63 )">A6(A),I2(B)</text><text style="&st18;" transform="matrix(&st17;  1845.6  310.64 )" ewd:textID="8">A/C Pressure Switch <tspan x="0 " dy="6.0">(Cooler Refrigerant </tspan><tspan x="0 " dy="6.0">Liquid Pipe B)</tspan></text></g><g ewd:code="" ewd:figID="97" ewd:comment="" ewd:figtype="commref"><text style="&st18;" transform="matrix(&st16;  1874.78  228.68 )">(LHD)</text></g><g ewd:code="" ewd:figID="98" ewd:comment="" ewd:figtype="commref"><text style="&st18;" transform="matrix(&st16;  1874.78  219.62 )">(RHD)</text></g><g ewd:code="" ewd:figID="99" ewd:comment="" ewd:figtype="commref"><text style="&st18;" transform="matrix(&st16;  1874.78  323.3 )">(LHD)</text></g><g ewd:code="" ewd:figID="100" ewd:comment="" ewd:figtype="commref"><text style="&st18;" transform="matrix(&st16;  1874.78  314.24 )">(RHD)</text></g></g><g ewd:figtype="conn" ewd:figID="4" ewd:code="I97"><path style="stroke-width: 0.85 ;&st7;  " d=" M  1674.22,   537.20  L  1674.22,   554.19  " /><path style="stroke-width: 1.42 ;&st7;  " d=" M  1665.72,   537.20  L  1682.72,   537.20  L  1682.72,   554.19  L  1665.72,   554.19  L  1665.72,   537.20  " /><text style="&st18;" transform="matrix(&st16;  1667.88  562.39 )">4</text><text style="&st18;" transform="matrix(&st16;  1664.55  533.51 )">13</text><g ewd:figtype="title"><text style="&st18;" transform="matrix(&st17;  1697.44  557.1 )" ewd:textID="30">No. 32 Junction <tspan x="0 " dy="6.0">Connector</tspan></text><text style="&st18;" transform="matrix(&st17;  1690.61  557.09 )">I97</text></g></g><g ewd:figtype="conn" ewd:figID="13" ewd:code="I15"><path style="stroke-width: 1.42 ;&st7;  " d=" M  1733.71,   256.74  L  1767.70,   256.74  L  1767.70,   222.75  L  1733.71,   222.75  L  1733.71,   256.74  " /><g ewd:lineID="77,78"><text style="&st18;" transform="matrix(&st16;  1744.37  264.94 )">3</text><text style="&st18;" transform="matrix(&st16;  1744.64  253.05 )">VR1</text></g><g ewd:lineID="79,80"><text style="&st18;" transform="matrix(&st16;  1744.37  219.06 )">2</text><text style="&st18;" transform="matrix(&st16;  1744.64  230.38 )">VR2</text></g><g ewd:figtype="title"><text style="&st18;" transform="matrix(&st17;  1724.07  259.65 )" ewd:textID="16">Heater Blower <tspan x="0 " dy="6.0">Switch Assembly</tspan></text><text style="&st18;" transform="matrix(&st17;  1717.24  259.64 )">I15</text></g></g><g ewd:figtype="conn" ewd:figID="19" ewd:code="I59,I67"><path style="stroke-width: 0.85 ;&st7; stroke-dasharray:3, 1.5;" d=" M  1682.72,   151.36  L  1733.71,   151.36  " /><path style="stroke-width: 0.85 ;&st7; stroke-dasharray:3, 1.5;" d=" M  1682.72,   142.30  L  1733.71,   142.30  " /><path style="stroke-width: 0.85 ;&st7; stroke-dasharray:3, 1.5;" d=" M  1631.73,   142.30  L  1657.22,   142.30  " /><path style="stroke-width: 0.85 ;&st7; stroke-dasharray:3, 1.5;" d=" M  1631.73,   151.36  L  1657.22,   151.36  " /><path style="stroke-width: 1.42 ;&st7;  " d=" M  1614.73,   137.76  L  1759.21,   137.76  L  1759.21,   120.77  L  1614.73,   120.77  L  1614.73,   137.76  " /><path style="stroke-width: 0.85 ;&st7;  " d=" M  1623.23,   137.76  L  1623.23,   129.26  L  1750.71,   129.26  L  1750.71,   137.76  " /><path style="stroke-width: 0.85 ;&st7;  " d=" M  1674.22,   129.26  L  1674.22,   137.76  " /><path style="stroke-width: 0.85 ;&st7;  " d=" M  1673.03,   128.26  L  1672.75,   128.73  L  1672.66,   129.26  L  1672.75,   129.80  L  1673.03,   130.27  L  1673.44,   130.61  L  1673.95,   130.80  L  1674.49,   130.80  L  1675.00,   130.61  L  1675.41,   130.27  L  1675.68,   129.80  L  1675.78,   129.26  L  1675.68,   128.73  L  1675.41,   128.26  L  1675.00,   127.92  L  1674.49,   127.73  L  1673.95,   127.73  L  1673.44,   127.92  L  1673.03,   128.26  L  1673.42,   128.97  L  1673.42,   129.56  L  1673.79,   130.00  L  1674.37,   130.10  L  1674.87,   129.81  L  1675.07,   129.26  L  1674.87,   128.72  L  1674.37,   128.43  L  1673.79,   128.53  L  1674.22,   129.26  " /><text style="&st18;" transform="matrix(&st16;  1610.41  153.33 )">17</text><text style="&st18;" transform="matrix(&st16;  1610.41  144.26 )">14</text><path style="stroke-width: 1.42 ;&st7;   " d=" M  1627.76,   142.29  C  1627.76    139.79   1625.73    137.76   1623.23    137.76  " /><path style="stroke-width: 1.42 ;&st7;   " d=" M  1623.23,   137.76  C  1620.73    137.76   1618.70    139.79   1618.70    142.29  " /><path style="stroke-width: 1.42 ;&st7;   " d=" M  1618.70,   142.29  C  1618.70    144.80   1620.73    146.83   1623.23    146.83  " /><path style="stroke-width: 1.42 ;&st7;   " d=" M  1623.23,   146.83  C  1625.73    146.83   1627.76    144.80   1627.76    142.29  " /><path style="stroke-width: 1.42 ;&st7;   " d=" M  1627.76,   151.36  C  1627.76    148.86   1625.73    146.83   1623.23    146.83  " /><path style="stroke-width: 1.42 ;&st7;   " d=" M  1623.23,   146.83  C  1620.73    146.83   1618.70    148.86   1618.70    151.36  " /><path style="stroke-width: 1.42 ;&st7;   " d=" M  1618.70,   151.36  C  1618.70    153.86   1620.73    155.89   1623.23    155.89  " /><path style="stroke-width: 1.42 ;&st7;   " d=" M  1623.23,   155.89  C  1625.73    155.89   1627.76    153.86   1627.76    151.36  " /><text style="&st18;" transform="matrix(&st16;  1620.96  153.33 )">B</text><text style="&st18;" transform="matrix(&st16;  1620.96  144.26 )">A</text><text style="&st18;" transform="matrix(&st16;  1661.41  153.33 )">16</text><text style="&st18;" transform="matrix(&st16;  1661.41  144.26 )">13</text><path style="stroke-width: 1.42 ;&st7;   " d=" M  1678.75,   151.36  C  1678.75    148.86   1676.72    146.83   1674.22    146.83  " /><path style="stroke-width: 1.42 ;&st7;   " d=" M  1674.22,   146.83  C  1671.72    146.83   1669.69    148.86   1669.69    151.36  " /><path style="stroke-width: 1.42 ;&st7;   " d=" M  1669.69,   151.36  C  1669.69    153.86   1671.72    155.89   1674.22    155.89  " /><path style="stroke-width: 1.42 ;&st7;   " d=" M  1674.22,   155.89  C  1676.72    155.89   1678.75    153.86   1678.75    151.36  " /><path style="stroke-width: 1.42 ;&st7;   " d=" M  1678.75,   142.29  C  1678.75    139.79   1676.72    137.76   1674.22    137.76  " /><path style="stroke-width: 1.42 ;&st7;   " d=" M  1674.22,   137.76  C  1671.72    137.76   1669.69    139.79   1669.69    142.29  " /><path style="stroke-width: 1.42 ;&st7;   " d=" M  1669.69,   142.29  C  1669.69    144.80   1671.72    146.83   1674.22    146.83  " /><path style="stroke-width: 1.42 ;&st7;   " d=" M  1674.22,   146.83  C  1676.72    146.83   1678.75    144.80   1678.75    142.29  " /><text style="&st18;" transform="matrix(&st16;  1671.95  144.26 )">A</text><text style="&st18;" transform="matrix(&st16;  1671.95  153.33 )">B</text><text style="&st18;" transform="matrix(&st16;  1737.89  144.26 )">12</text><text style="&st18;" transform="matrix(&st16;  1737.89  153.33 )">15</text><path style="stroke-width: 1.42 ;&st7;   " d=" M  1755.24,   142.29  C  1755.24    139.79   1753.21    137.76   1750.71    137.76  " /><path style="stroke-width: 1.42 ;&st7;   " d=" M  1750.71,   137.76  C  1748.20    137.76   1746.17    139.79   1746.17    142.29  " /><path style="stroke-width: 1.42 ;&st7;   " d=" M  1746.17,   142.29  C  1746.17    144.80   1748.20    146.83   1750.71    146.83  " /><path style="stroke-width: 1.42 ;&st7;   " d=" M  1750.71,   146.83  C  1753.21    146.83   1755.24    144.80   1755.24    142.29  " /><path style="stroke-width: 1.42 ;&st7;   " d=" M  1755.24,   151.36  C  1755.24    148.86   1753.21    146.83   1750.71    146.83  " /><path style="stroke-width: 1.42 ;&st7;   " d=" M  1750.71,   146.83  C  1748.20    146.83   1746.17    148.86   1746.17    151.36  " /><path style="stroke-width: 1.42 ;&st7;   " d=" M  1746.17,   151.36  C  1746.17    153.86   1748.20    155.89   1750.71    155.89  " /><path style="stroke-width: 1.42 ;&st7;   " d=" M  1750.71,   155.89  C  1753.21    155.89   1755.24    153.86   1755.24    151.36  " /><text style="&st18;" transform="matrix(&st16;  1748.44  144.26 )">A</text><text style="&st18;" transform="matrix(&st16;  1748.44  153.33 )">B</text><g ewd:figtype="title"><text style="&st18;" transform="matrix(&st16;  1611.32  102.9 )" ewd:textID="28">No. 16 Junction Connector</text><text style="&st18;" transform="matrix(&st16;  1611.32  117.07 )" ewd:textID="22">No. 10 Junction Connector</text><text style="&st18;" transform="matrix(&st16;  1611.32  110.24 )">I59(B)</text><text style="&st18;" transform="matrix(&st16;  1611.32  96.08 )">I67(A)</text></g><g ewd:code="" ewd:figID="91" ewd:comment="" ewd:figtype="commref"><text style="&st18;" transform="matrix(&st16;  1755.8  153.33 )">(RHD)</text></g><g ewd:code="" ewd:figID="92" ewd:comment="" ewd:figtype="commref"><text style="&st18;" transform="matrix(&st16;  1755.8  144.26 )">(LHD)</text></g></g><g ewd:figtype="conn" ewd:figID="25" ewd:code="I59,I70"><path style="stroke-width: 0.85 ;&st7; stroke-dasharray:3, 1.5;" d=" M  1878.19,    90.17  L  1980.17,    90.17  " /><path style="stroke-width: 0.85 ;&st7; stroke-dasharray:3, 1.5;" d=" M  1878.19,    99.24  L  1980.17,    99.24  " /><path style="stroke-width: 0.85 ;&st7; stroke-dasharray:3, 1.5;" d=" M  1878.19,   125.30  L  1980.17,   125.30  " /><path style="stroke-width: 0.85 ;&st7; stroke-dasharray:3, 1.5;" d=" M  1878.19,   134.36  L  1980.17,   134.36  " /><path style="stroke-width: 0.85 ;&st7;  " d=" M  1868.49,   111.26  L  1868.22,   111.73  L  1868.13,   112.27  L  1868.22,   112.80  L  1868.49,   113.27  L  1868.91,   113.62  L  1869.41,   113.80  L  1869.96,   113.80  L  1870.47,   113.62  L  1870.88,   113.27  L  1871.15,   112.80  L  1871.24,   112.27  L  1871.15,   111.73  L  1870.88,   111.26  L  1870.47,   110.92  L  1869.96,   110.73  L  1869.41,   110.73  L  1868.91,   110.92  L  1868.49,   111.26  L  1868.89,   111.98  L  1868.89,   112.56  L  1869.26,   113.00  L  1869.83,   113.10  L  1870.34,   112.81  L  1870.54,   112.27  L  1870.34,   111.72  L  1869.83,   111.43  L  1869.26,   111.53  L  1869.69,   112.27  " /><path style="stroke-width: 0.85 ;&st7;  " d=" M  1995.97,   111.26  L  1995.70,   111.73  L  1995.61,   112.27  L  1995.70,   112.80  L  1995.97,   113.27  L  1996.39,   113.62  L  1996.89,   113.80  L  1997.44,   113.80  L  1997.94,   113.62  L  1998.36,   113.27  L  1998.63,   112.80  L  1998.72,   112.27  L  1998.63,   111.73  L  1998.36,   111.26  L  1997.94,   110.92  L  1997.44,   110.73  L  1996.89,   110.73  L  1996.39,   110.92  L  1995.97,   111.26  L  1996.37,   111.98  L  1996.37,   112.56  L  1996.74,   113.00  L  1997.31,   113.10  L  1997.82,   112.81  L  1998.02,   112.27  L  1997.82,   111.72  L  1997.31,   111.43  L  1996.74,   111.53  L  1997.17,   112.27  " /><path style="stroke-width: 1.42 ;&st7;  " d=" M  1852.69,   120.77  L  1852.69,   103.77  L  2014.16,   103.77  L  2014.16,   120.77  L  1852.69,   120.77  " /><path style="stroke-width: 0.85 ;&st7;  " d=" M  1869.69,   103.77  L  1869.69,   120.77  " /><path style="stroke-width: 0.85 ;&st7;  " d=" M  1997.17,   112.27  L  1869.69,   112.27  " /><path style="stroke-width: 0.85 ;&st7;  " d=" M  1997.17,   103.77  L  1997.17,   120.77  " /><text style="&st18;" transform="matrix(&st16;  1984.35  101.2 )">21</text><text style="&st18;" transform="matrix(&st16;  1984.35  92.14 )">21</text><path style="stroke-width: 1.42 ;&st7;   " d=" M  2001.70,    99.24  C  2001.70     96.73   1999.67     94.70   1997.17     94.70  " /><path style="stroke-width: 1.42 ;&st7;   " d=" M  1997.17,    94.70  C  1994.66     94.70   1992.63     96.73   1992.63     99.24  " /><path style="stroke-width: 1.42 ;&st7;   " d=" M  1992.63,    99.24  C  1992.63    101.74   1994.66    103.77   1997.17    103.77  " /><path style="stroke-width: 1.42 ;&st7;   " d=" M  1997.17,   103.77  C  1999.67    103.77   2001.70    101.74   2001.70     99.24  " /><text style="&st18;" transform="matrix(&st16;  1994.9  92.14 )">A</text><text style="&st18;" transform="matrix(&st16;  1994.9  101.2 )">B</text><path style="stroke-width: 1.42 ;&st7;   " d=" M  2001.70,    90.17  C  2001.70     87.67   1999.67     85.64   1997.17     85.64  " /><path style="stroke-width: 1.42 ;&st7;   " d=" M  1997.17,    85.64  C  1994.66     85.64   1992.63     87.67   1992.63     90.17  " /><path style="stroke-width: 1.42 ;&st7;   " d=" M  1992.63,    90.17  C  1992.63     92.67   1994.66     94.70   1997.17     94.70  " /><path style="stroke-width: 1.42 ;&st7;   " d=" M  1997.17,    94.70  C  1999.67     94.70   2001.70     92.67   2001.70     90.17  " /><text style="&st18;" transform="matrix(&st16;  1856.87  101.2 )">19</text><text style="&st18;" transform="matrix(&st16;  1856.87  92.14 )">19</text><text style="&st18;" transform="matrix(&st16;  1867.42  92.14 )">A</text><path style="stroke-width: 1.42 ;&st7;   " d=" M  1874.22,    90.17  C  1874.22     87.67   1872.19     85.64   1869.69     85.64  " /><path style="stroke-width: 1.42 ;&st7;   " d=" M  1869.69,    85.64  C  1867.18     85.64   1865.16     87.67   1865.16     90.17  " /><path style="stroke-width: 1.42 ;&st7;   " d=" M  1865.16,    90.17  C  1865.16     92.67   1867.18     94.70   1869.69     94.70  " /><path style="stroke-width: 1.42 ;&st7;   " d=" M  1869.69,    94.70  C  1872.19     94.70   1874.22     92.67   1874.22     90.17  " /><path style="stroke-width: 1.42 ;&st7;   " d=" M  1874.22,    99.24  C  1874.22     96.73   1872.19     94.70   1869.69     94.70  " /><path style="stroke-width: 1.42 ;&st7;   " d=" M  1869.69,    94.70  C  1867.18     94.70   1865.16     96.73   1865.16     99.24  " /><path style="stroke-width: 1.42 ;&st7;   " d=" M  1865.16,    99.24  C  1865.16    101.74   1867.18    103.77   1869.69    103.77  " /><path style="stroke-width: 1.42 ;&st7;   " d=" M  1869.69,   103.77  C  1872.19    103.77   1874.22    101.74   1874.22     99.24  " /><text style="&st18;" transform="matrix(&st16;  1867.42  101.2 )">B</text><text style="&st18;" transform="matrix(&st16;  1856.87  136.33 )">20</text><text style="&st18;" transform="matrix(&st16;  1856.87  127.27 )">20</text><path style="stroke-width: 1.42 ;&st7;   " d=" M  1874.22,   125.30  C  1874.22    122.79   1872.19    120.77   1869.69    120.77  " /><path style="stroke-width: 1.42 ;&st7;   " d=" M  1869.69,   120.77  C  1867.18    120.77   1865.16    122.79   1865.16    125.30  " /><path style="stroke-width: 1.42 ;&st7;   " d=" M  1865.16,   125.30  C  1865.16    127.80   1867.18    129.83   1869.69    129.83  " /><path style="stroke-width: 1.42 ;&st7;   " d=" M  1869.69,   129.83  C  1872.19    129.83   1874.22    127.80   1874.22    125.30  " /><text style="&st18;" transform="matrix(&st16;  1867.42  127.27 )">A</text><text style="&st18;" transform="matrix(&st16;  1867.42  136.33 )">B</text><path style="stroke-width: 1.42 ;&st7;   " d=" M  1874.22,   134.36  C  1874.22    131.86   1872.19    129.83   1869.69    129.83  " /><path style="stroke-width: 1.42 ;&st7;   " d=" M  1869.69,   129.83  C  1867.18    129.83   1865.16    131.86   1865.16    134.36  " /><path style="stroke-width: 1.42 ;&st7;   " d=" M  1865.16,   134.36  C  1865.16    136.87   1867.18    138.90   1869.69    138.90  " /><path style="stroke-width: 1.42 ;&st7;   " d=" M  1869.69,   138.90  C  1872.19    138.90   1874.22    136.87   1874.22    134.36  " /><text style="&st18;" transform="matrix(&st16;  1984.35  127.27 )">22</text><text style="&st18;" transform="matrix(&st16;  1984.35  136.33 )">22</text><path style="stroke-width: 1.42 ;&st7;   " d=" M  2001.70,   125.30  C  2001.70    122.79   1999.67    120.77   1997.17    120.77  " /><path style="stroke-width: 1.42 ;&st7;   " d=" M  1997.17,   120.77  C  1994.66    120.77   1992.63    122.79   1992.63    125.30  " /><path style="stroke-width: 1.42 ;&st7;   " d=" M  1992.63,   125.30  C  1992.63    127.80   1994.66    129.83   1997.17    129.83  " /><path style="stroke-width: 1.42 ;&st7;   " d=" M  1997.17,   129.83  C  1999.67    129.83   2001.70    127.80   2001.70    125.30  " /><text style="&st18;" transform="matrix(&st16;  1994.9  136.33 )">B</text><path style="stroke-width: 1.42 ;&st7;   " d=" M  2001.70,   134.36  C  2001.70    131.86   1999.67    129.83   1997.17    129.83  " /><path style="stroke-width: 1.42 ;&st7;   " d=" M  1997.17,   129.83  C  1994.66    129.83   1992.63    131.86   1992.63    134.36  " /><path style="stroke-width: 1.42 ;&st7;   " d=" M  1992.63,   134.36  C  1992.63    136.87   1994.66    138.90   1997.17    138.90  " /><path style="stroke-width: 1.42 ;&st7;   " d=" M  1997.17,   138.90  C  1999.67    138.90   2001.70    136.87   2001.70    134.36  " /><text style="&st18;" transform="matrix(&st16;  1994.9  127.27 )">A</text><g ewd:figtype="title"><text style="&st18;" transform="matrix(&st17;  1837.1  123.67 )" ewd:textID="22">No. 10 <tspan x="0 " dy="6.0">Junction </tspan><tspan x="0 " dy="6.0">Connector</tspan></text><text style="&st18;" transform="matrix(&st17;  1830.27  123.66 )">I59(B)</text><text style="&st18;" transform="matrix(&st17;  1811.03  123.67 )" ewd:textID="29">No. 19 <tspan x="0 " dy="6.0">Junction </tspan><tspan x="0 " dy="6.0">Connector</tspan></text><text style="&st18;" transform="matrix(&st17;  1804.21  123.66 )">I70(A)</text></g><g ewd:code="" ewd:figID="93" ewd:comment="" ewd:figtype="commref"><text style="&st18;" transform="matrix(&st16;  2002.26  136.33 )">(RHD)</text></g><g ewd:code="" ewd:figID="94" ewd:comment="" ewd:figtype="commref"><text style="&st18;" transform="matrix(&st16;  2002.26  127.27 )">(LHD)</text></g><g ewd:code="" ewd:figID="95" ewd:comment="" ewd:figtype="commref"><text style="&st18;" transform="matrix(&st16;  2002.26  101.2 )">(RHD)</text></g><g ewd:code="" ewd:figID="96" ewd:comment="" ewd:figtype="commref"><text style="&st18;" transform="matrix(&st16;  2002.26  92.14 )">(LHD)</text></g></g><g ewd:figtype="conn" ewd:figID="27" ewd:code="I88"><g ewd:lineID="41"><text style="&st18;" transform="matrix(&st16;  1613.55  460.4 )">11</text><text style="&st18;" transform="matrix(&st16;  1616.0  448.51 )">MGC</text></g><g ewd:lineID="72,73"><text style="&st18;" transform="matrix(&st16;  1667.88  460.4 )">5</text><text style="&st18;" transform="matrix(&st16;  1667.3  448.51 )">GND</text></g><g ewd:lineID="74,75"><text style="&st18;" transform="matrix(&st16;  1667.88  406.03 )">3</text><text style="&st18;" transform="matrix(&st16;  1670.13  417.35 )">TE</text></g><g ewd:lineID="77,78"><text style="&st18;" transform="matrix(&st16;  1744.37  406.03 )">8</text><text style="&st18;" transform="matrix(&st16;  1745.61  417.35 )">B/V</text></g><g ewd:lineID="81,82,83,88"><text style="&st18;" transform="matrix(&st16;  1863.35  406.03 )">2</text><text style="&st18;" transform="matrix(&st16;  1862.46  417.35 )">PSW</text></g><g ewd:lineID="91,92"><text style="&st18;" transform="matrix(&st16;  1990.83  406.03 )">7</text><text style="&st18;" transform="matrix(&st16;  1994.9  417.35 )">B</text></g></g><g ewd:figtype="w2w" ewd:figID="54" ewd:code="AI3"><path style="stroke-width: 1.42 ;&st7;  " d=" M  1958.92,   347.39  L  1954.67,   343.14  L  1950.42,   347.39  " /><path style="stroke-width: 1.42 ;&st7;  " d=" M  1958.92,   350.79  L  1954.67,   346.54  L  1950.42,   350.79  " /><text style="&st18;" transform="matrix(&st16;  1937.92  339.45 )">14</text></g><g ewd:figtype="w2w" ewd:figID="55" ewd:code="AI3"><path style="stroke-width: 1.42 ;&st7;  " d=" M  1950.42,   188.19  L  1954.67,   192.44  L  1958.92,   188.19  " /><path style="stroke-width: 1.42 ;&st7;  " d=" M  1958.92,   191.59  L  1954.67,   195.84  L  1950.42,   191.59  " /><text style="&st18;" transform="matrix(&st16;  1937.92  203.47 )">13</text></g><g ewd:figtype="gp" ewd:figID="62" ewd:code="IA"><path style="stroke-width: 0.85 ;&st7;  " d=" M  1672.80,   710.00  L  1675.64,   710.00  " /><path style="stroke-width: 0.85 ;&st7;  " d=" M  1671.39,   707.17  L  1677.05,   707.17  " /><path style="stroke-width: 0.85 ;&st7;  " d=" M  1669.97,   704.33  L  1678.47,   704.33  " /><path style="stroke-width: 0.85 ;&st7;  " d=" M  1665.72,   701.50  L  1682.72,   701.50  " /><path style="stroke-width: 0.85 ;&st7;  " d=" M  1674.22,   697.25  L  1674.22,   701.50  " /></g><g ewd:figtype="gp" ewd:figID="63" ewd:code="IC"><path style="stroke-width: 0.85 ;&st7;  " d=" M  1740.79,   710.00  L  1743.62,   710.00  " /><path style="stroke-width: 0.85 ;&st7;  " d=" M  1739.38,   707.17  L  1745.04,   707.17  " /><path style="stroke-width: 0.85 ;&st7;  " d=" M  1737.96,   704.33  L  1746.46,   704.33  " /><path style="stroke-width: 0.85 ;&st7;  " d=" M  1733.71,   701.50  L  1750.71,   701.50  " /><path style="stroke-width: 0.85 ;&st7;  " d=" M  1742.21,   697.25  L  1742.21,   701.50  " /></g><g ewd:code="4" ewd:figID="79" ewd:comment="" ewd:figtype="comment"><text style="&st18;" transform="matrix(&st16;  1866.28  598.65 )">* 4 :RHD 1GR-FE</text></g><g ewd:code="1" ewd:figID="82" ewd:comment="" ewd:figtype="comment"><text style="&st18;" transform="matrix(&st16;  1866.28  573.16 )">* 1 :1GR-FE</text></g><g ewd:code="9" ewd:figID="137" ewd:comment="" ewd:figtype="comment"><text style="&st18;" transform="matrix(&st16;  1866.28  615.65 )" ewd:textID="5">* 9 :Before Sep. 2022 Production</text></g><g ewd:code="2" ewd:figID="81" ewd:comment="" ewd:figtype="comment"><text style="&st18;" transform="matrix(&st16;  1866.28  581.66 )">* 2 :1VD-FTV</text></g><g ewd:code="3" ewd:figID="80" ewd:comment="" ewd:figtype="comment"><text style="&st18;" transform="matrix(&st16;  1866.28  590.16 )">* 3 :LHD 1GR-FE</text></g><g ewd:code="10" ewd:figID="138" ewd:comment="" ewd:figtype="comment"><text style="&st18;" transform="matrix(&st16;  1866.28  624.15 )" ewd:textID="6">*10 :From Sep. 2022 Production</text></g><g ewd:code="5" ewd:figID="104" ewd:comment="" ewd:figtype="comment"><text style="&st18;" transform="matrix(&st16;  1866.28  607.15 )" ewd:textID="1">* 5 :w/ Air Conditioner</text></g></svg>