<?xml version="1.0" encoding="utf-8"?>
<!DOCTYPE svg PUBLIC "-//W3C//DTD SVG 1.0//EN" "http://www.w3.org/TR/2001/REC-SVG-20010904/DTD/svg10.dtd"[
	<!ENTITY ns_flows "http://ns.adobe.com/Flows/1.0/">
	<!ENTITY ns_svg "http://www.w3.org/2000/svg">
	<!ENTITY ns_xlink "http://www.w3.org/1999/xlink">
	<!ENTITY st0 "font-size:7px;font-family:'MS-PGothic';adobe-font-script:japanese;">
	<!ENTITY st1 "font-size:6px;font-family:'ArialMT';">
	<!-- White fill  -->
	<!ENTITY st2 "fill:#FFFFFF;stroke:#000000; stroke-width:1.41;stroke-linecap:round;stroke-linejoin:round;">
	<!-- Yellow fill  -->
	<!ENTITY st3 "fill:#FFFFCC;stroke:#FFFFCC; stroke-width:0.1;stroke-linecap:round;stroke-linejoin:round;">
	<!-- Gray fill  -->
	<!ENTITY st4 "fill:#CCCCCC;stroke:#CCCCCC; stroke-width:0.1;stroke-linecap:round;stroke-linejoin:round;">
	<!-- Light-blue fill -->
	<!ENTITY st5 "fill:#CCECF4;stroke:#000000; stroke-width:1.133;stroke-linecap:round;stroke-linejoin:round;">
	<!ENTITY st6 "fill:none;stroke-linecap:butt; stroke-linejoin:round;">
	<!ENTITY st7 "fill:none;stroke:#000000;stroke-linecap:round;stroke-linejoin:round;">
	<!ENTITY st8 "enable-background:new    ;">
	<!-- Black fill -->
	<!ENTITY st9 "fill:#000000;stroke:#000000; stroke-linecap:round;stroke-linejoin:round;">
	<!-- SRS note   -->
	<!ENTITY st10 "font-size:9px;font-family:'ArialMT';">
	<!ENTITY st11 "font-size:9px;font-family:'Svg Symbol';">
	<!ENTITY st12 "font-size:6px;font-family:'Svg Symbol';">
	<!ENTITY st13 "fill:none;stroke:#ff0000;stroke-linecap:round;stroke-linejoin:round;">
	<!-- Yellow fill  -->
	<!ENTITY st14 "fill:#FFFF00;stroke:#FFFF00; stroke-width:0.1;stroke-linecap:round;stroke-linejoin:round;">
	<!ENTITY st15 "font-size:6px;font-family:'MS-PGothic';adobe-font-script:japanese;">
	<!ENTITY st16 "1.00 0.00 0.00 1.00">
	<!ENTITY st17 "0.00 -1.00 1.00 0.00">
	<!ENTITY st18 "font-size:6px;font-family:'Arial';">
	<!ENTITY st19 "font-size:9px;font-family:'Arial';">
	<!ENTITY st20 "font-size:6px;font-family:'MS-PGothic','MS PGothic';adobe-font-script:japanese;">
	<!ENTITY st21 "font-size:7px;font-family:'MS-PGothic','MS PGothic';adobe-font-script:japanese;">
	<!ATTLIST svg
		xmlns:ewd CDATA #FIXED "http://shcl.co.jp/ewd"
		xmlns:a CDATA #FIXED "http://ns.adobe.com/AdobeSVGViewerExtensions/3.0/"
		ewd:ver CDATA #IMPLIED
	>
	<!ATTLIST a
		ewd:lineID CDATA #IMPLIED
		ewd:groupID CDATA #IMPLIED
		ewd:figtype CDATA #IMPLIED
		ewd:code CDATA #IMPLIED
		ewd:figID CDATA #IMPLIED
		ewd:pinNo CDATA #IMPLIED
		ewd:comment CDATA #IMPLIED >
	<!ATTLIST g
		ewd:lineID CDATA #IMPLIED
		ewd:groupID CDATA #IMPLIED
		ewd:figtype CDATA #IMPLIED
		ewd:code CDATA #IMPLIED
		ewd:figID CDATA #IMPLIED
		ewd:pinNo CDATA #IMPLIED
		ewd:comment CDATA #IMPLIED >
	<!ATTLIST text
		ewd:textID CDATA #IMPLIED >
	<!ATTLIST title
		ewd:textID CDATA #IMPLIED >
]>
<!-- Generator: Shintec Hozumi YS   -->
<svg onload="call_execInitLoadProc_svg('system')" style="overflow:visible;  enable-background:new 0 0 1008.988 710.000" viewBox="0 0 1008.988 710.000" height="710.000" width="1008.988" xml:space="preserve" ewd:ver="2.3.1.16" xmlns="&ns_svg;" xmlns:a="http://ns.adobe.com/AdobeSVGViewerExtensions/3.0/" xmlns:ewd="http://shcl.co.jp/ewd" xmlns:xlink="&ns_xlink;">
<text style="&st18;" transform="matrix(&st16;  549.0  271.72 )">L42(A),L43(B)</text><path style="stroke-width: 1.42 ;&st7;  " d=" M   688.38,   401.22  L   679.89,   401.22  " /><path style="stroke-width: 1.42 ;&st7;  " d=" M   739.38,   401.22  L   730.88,   401.22  " /><path style="stroke-width: 1.42 ;&st7;  " d=" M   722.38,   503.20  L   730.88,   503.20  " /><path style="stroke-width: 1.42 ;&st7;  " d=" M   671.39,   503.20  L   679.89,   503.20  " /><path style="stroke-width: 1.42 ;&st7;  " d=" M   739.38,   103.77  L   730.88,   103.77  " /><text style="&st18;" transform="matrix(&st17;  727.18  248.32 )">L-Y</text><text style="&st18;" transform="matrix(&st17;  625.2  471.9 )">W</text><text style="&st18;" transform="matrix(&st17;  574.21  471.13 )">R</text><text style="&st18;" transform="matrix(&st17;  585.54  479.12 )">(*1 *11)</text><text style="&st18;" transform="matrix(&st17;  636.53  479.12 )">(*1 *11)</text><text style="&st18;" transform="matrix(&st17;  738.51  479.12 )">(*2 *11)</text><text style="&st18;" transform="matrix(&st17;  687.52  479.12 )">(*2 *11)</text><text style="&st18;" transform="matrix(&st17;  687.52  547.1 )">(*2 *11)</text><text style="&st18;" transform="matrix(&st17;  676.19  539.12 )">R</text><text style="&st18;" transform="matrix(&st17;  738.51  547.1 )">(*2 *11)</text><text style="&st18;" transform="matrix(&st17;  727.18  539.89 )">W</text><text style="&st18;" transform="matrix(&st17;  676.19  360.65 )">R</text><text style="&st18;" transform="matrix(&st17;  727.18  361.42 )">W</text><text style="&st18;" transform="matrix(&st17;  676.19  471.13 )">R</text><text style="&st18;" transform="matrix(&st17;  727.18  471.9 )">W</text><text style="&st18;" transform="matrix(&st16;  549.0  278.54 )" ewd:textID="31">Radio Receiver Assembly</text><text style="&st18;" transform="matrix(&st17;  727.18  137.84 )">L-Y</text><text style="&st18;" transform="matrix(&st17;  738.51  143.42 )">(*3 *12)</text><text style="&st18;" transform="matrix(&st17;  795.17  245.76 )">B</text><text style="&st18;" transform="matrix(&st17;  806.5  248.55 )">(*3)</text><text style="&st18;" transform="matrix(&st17;  738.51  253.9 )">(*3 *12)</text><text style="&st18;" transform="matrix(&st17;  738.51  78.58 )">(*3)</text><text style="&st18;" transform="matrix(&st17;  727.18  78.35 )">L-Y</text><text style="&st18;" transform="matrix(&st17;  500.55  258.15 )">(*9,*10)</text><text style="&st18;" transform="matrix(&st17;  738.51  364.95 )">(*11)</text><text style="&st18;" transform="matrix(&st17;  687.52  364.95 )">(*11)</text><text style="&st18;" transform="matrix(&st17;  764.01  143.42 )">(*3 *13)</text><text style="&st18;" transform="matrix(&st17;  752.68  135.16 )">Y</text><text style="&st18;" transform="matrix(&st17;  752.68  245.64 )">Y</text><text style="&st18;" transform="matrix(&st17;  764.01  253.9 )">(*3 *13)</text><g ewd:figtype="conn" ewd:figID="1" ewd:code="L34,L35"><path style="stroke-width: 0.85 ;&st7; stroke-dasharray:3, 1.5;" d=" M   739.38,   201.79  L   781.87,   201.79  " /><path style="stroke-width: 0.85 ;&st7; stroke-dasharray:3, 1.5;" d=" M   739.38,   210.85  L   781.87,   210.85  " /><path style="stroke-width: 0.85 ;&st7;  " d=" M   730.88,   180.26  L   730.88,   197.25  " /><path style="stroke-width: 1.42 ;&st7;  " d=" M   722.38,   180.26  L   722.38,   197.25  L   807.36,   197.25  L   807.36,   180.26  L   722.38,   180.26  " /><path style="stroke-width: 0.85 ;&st7;  " d=" M   730.88,   188.75  L   798.87,   188.75  L   798.87,   197.25  " /><path style="stroke-width: 0.85 ;&st7;  " d=" M   729.68,   187.75  L   729.41,   188.22  L   729.32,   188.75  L   729.41,   189.29  L   729.68,   189.76  L   730.10,   190.10  L   730.61,   190.29  L   731.15,   190.29  L   731.66,   190.10  L   732.07,   189.76  L   732.34,   189.29  L   732.44,   188.75  L   732.34,   188.22  L   732.07,   187.75  L   731.66,   187.41  L   731.15,   187.22  L   730.61,   187.22  L   730.10,   187.41  L   729.68,   187.75  L   730.08,   188.46  L   730.08,   189.05  L   730.45,   189.49  L   731.02,   189.59  L   731.53,   189.30  L   731.73,   188.75  L   731.53,   188.21  L   731.02,   187.92  L   730.45,   188.02  L   730.88,   188.75  " /><text style="&st18;" transform="matrix(&st16;  718.06  203.75 )">12</text><text style="&st18;" transform="matrix(&st16;  718.06  212.82 )">12</text><text style="&st18;" transform="matrix(&st16;  728.61  203.75 )">A</text><path style="stroke-width: 1.42 ;&st7;   " d=" M   735.41,   210.85  C   735.41    208.35    733.38    206.32    730.88    206.32  " /><path style="stroke-width: 1.42 ;&st7;   " d=" M   730.88,   206.32  C   728.37    206.32    726.35    208.35    726.35    210.85  " /><path style="stroke-width: 1.42 ;&st7;   " d=" M   726.35,   210.85  C   726.35    213.35    728.37    215.38    730.88    215.38  " /><path style="stroke-width: 1.42 ;&st7;   " d=" M   730.88,   215.38  C   733.38    215.38    735.41    213.35    735.41    210.85  " /><path style="stroke-width: 1.42 ;&st7;   " d=" M   735.41,   201.78  C   735.41    199.28    733.38    197.25    730.88    197.25  " /><path style="stroke-width: 1.42 ;&st7;   " d=" M   730.88,   197.25  C   728.37    197.25    726.35    199.28    726.35    201.78  " /><path style="stroke-width: 1.42 ;&st7;   " d=" M   726.35,   201.78  C   726.35    204.29    728.37    206.32    730.88    206.32  " /><path style="stroke-width: 1.42 ;&st7;   " d=" M   730.88,   206.32  C   733.38    206.32    735.41    204.29    735.41    201.78  " /><text style="&st18;" transform="matrix(&st16;  728.61  212.82 )">B</text><text style="&st18;" transform="matrix(&st16;  718.06  177.69 )">13</text><text style="&st18;" transform="matrix(&st16;  718.06  168.63 )">13</text><text style="&st18;" transform="matrix(&st16;  728.61  177.69 )">B</text><path style="stroke-width: 1.42 ;&st7;   " d=" M   735.41,   175.72  C   735.41    173.22    733.38    171.19    730.88    171.19  " /><path style="stroke-width: 1.42 ;&st7;   " d=" M   730.88,   171.19  C   728.37    171.19    726.35    173.22    726.35    175.72  " /><path style="stroke-width: 1.42 ;&st7;   " d=" M   726.35,   175.72  C   726.35    178.23    728.37    180.26    730.88    180.26  " /><path style="stroke-width: 1.42 ;&st7;   " d=" M   730.88,   180.26  C   733.38    180.26    735.41    178.23    735.41    175.72  " /><path style="stroke-width: 1.42 ;&st7;   " d=" M   735.41,   166.66  C   735.41    164.15    733.38    162.12    730.88    162.12  " /><path style="stroke-width: 1.42 ;&st7;   " d=" M   730.88,   162.12  C   728.37    162.12    726.35    164.15    726.35    166.66  " /><path style="stroke-width: 1.42 ;&st7;   " d=" M   726.35,   166.66  C   726.35    169.16    728.37    171.19    730.88    171.19  " /><path style="stroke-width: 1.42 ;&st7;   " d=" M   730.88,   171.19  C   733.38    171.19    735.41    169.16    735.41    166.66  " /><text style="&st18;" transform="matrix(&st16;  728.61  168.63 )">A</text><text style="&st18;" transform="matrix(&st16;  786.05  203.75 )">14</text><text style="&st18;" transform="matrix(&st16;  786.05  212.82 )">14</text><path style="stroke-width: 1.42 ;&st7;   " d=" M   803.40,   210.85  C   803.40    208.35    801.37    206.32    798.87    206.32  " /><path style="stroke-width: 1.42 ;&st7;   " d=" M   798.87,   206.32  C   796.36    206.32    794.33    208.35    794.33    210.85  " /><path style="stroke-width: 1.42 ;&st7;   " d=" M   794.33,   210.85  C   794.33    213.35    796.36    215.38    798.87    215.38  " /><path style="stroke-width: 1.42 ;&st7;   " d=" M   798.87,   215.38  C   801.37    215.38    803.40    213.35    803.40    210.85  " /><path style="stroke-width: 1.42 ;&st7;   " d=" M   803.40,   201.78  C   803.40    199.28    801.37    197.25    798.87    197.25  " /><path style="stroke-width: 1.42 ;&st7;   " d=" M   798.87,   197.25  C   796.36    197.25    794.33    199.28    794.33    201.78  " /><path style="stroke-width: 1.42 ;&st7;   " d=" M   794.33,   201.78  C   794.33    204.29    796.36    206.32    798.87    206.32  " /><path style="stroke-width: 1.42 ;&st7;   " d=" M   798.87,   206.32  C   801.37    206.32    803.40    204.29    803.40    201.78  " /><text style="&st18;" transform="matrix(&st16;  796.6  212.82 )">B</text><text style="&st18;" transform="matrix(&st16;  796.6  203.75 )">A</text><g ewd:figtype="title"><text style="&st18;" transform="matrix(&st16;  786.96  176.56 )" ewd:textID="27">No. 27 Junction Connector</text><text style="&st18;" transform="matrix(&st16;  786.96  169.73 )">L35(B)</text><text style="&st18;" transform="matrix(&st16;  786.96  162.39 )" ewd:textID="25">No. 26 Junction Connector</text><text style="&st18;" transform="matrix(&st16;  786.96  155.57 )">L34(A)</text></g><g ewd:code="" ewd:figID="54" ewd:comment="" ewd:figtype="commref"><text style="&st18;" transform="matrix(&st16;  735.97  177.69 )">(RHD)</text></g><g ewd:code="" ewd:figID="55" ewd:comment="" ewd:figtype="commref"><text style="&st18;" transform="matrix(&st16;  735.97  168.63 )">(LHD)</text></g><g ewd:code="" ewd:figID="56" ewd:comment="" ewd:figtype="commref"><text style="&st18;" transform="matrix(&st16;  803.96  203.75 )">(LHD)</text></g><g ewd:code="" ewd:figID="57" ewd:comment="" ewd:figtype="commref"><text style="&st18;" transform="matrix(&st16;  803.96  212.82 )">(RHD)</text></g></g><g ewd:figtype="conn" ewd:figID="8" ewd:code="S17"><path style="stroke-width: 1.42 ;&st7;  " d=" M   594.90,   566.94  L   594.90,   575.44  L   590.65,   583.94  L   616.15,   583.94  L   611.90,   575.44  L   611.90,   566.94  L   594.90,   566.94  " /><path style="stroke-width: 1.42 ;&st7;  " d=" M   594.90,   575.44  L   611.90,   575.44  " /><text style="&st18;" transform="matrix(&st16;  588.56  567.5 )">1</text><text style="&st18;" transform="matrix(&st16;  614.48  567.5 )">2</text><g ewd:figtype="title"><text style="&st18;" transform="matrix(&st16;  587.24  591.83 )">S17</text><text style="&st18;" transform="matrix(&st16;  587.25  598.65 )" ewd:textID="33">Rear Speaker <tspan x="0 " dy="6.0">Assembly RH</tspan></text></g></g><g ewd:figtype="conn" ewd:figID="9" ewd:code="L40"><path style="stroke-width: 1.42 ;&st7;  " d=" M   781.87,   282.24  L   781.87,   316.23  L   815.86,   316.23  L   815.86,   282.24  L   781.87,   282.24  " /><text style="&st18;" transform="matrix(&st16;  792.53  278.55 )">1</text><text style="&st18;" transform="matrix(&st16;  790.86  289.87 )">ANT+</text><g ewd:figtype="title"><text style="&st18;" transform="matrix(&st16;  778.46  330.95 )" ewd:textID="30">Option Connector <tspan x="0 " dy="6.0">(Auto Antenna)</tspan></text><text style="&st18;" transform="matrix(&st16;  778.46  324.13 )">L40</text></g></g><g ewd:figtype="conn" ewd:figID="10" ewd:code="a2"><path style="stroke-width: 1.42 ;&st7;  " d=" M   696.88,   575.44  L   713.88,   575.44  " /><path style="stroke-width: 1.42 ;&st7;  " d=" M   696.88,   566.94  L   696.88,   575.44  L   692.63,   583.94  L   718.13,   583.94  L   713.88,   575.44  L   713.88,   566.94  L   696.88,   566.94  " /><text style="&st18;" transform="matrix(&st16;  690.54  567.5 )">1</text><text style="&st18;" transform="matrix(&st16;  716.46  567.5 )">2</text><g ewd:figtype="title"><text style="&st18;" transform="matrix(&st16;  689.23  598.65 )" ewd:textID="33">Rear Speaker Assembly RH</text><text style="&st18;" transform="matrix(&st16;  689.22  591.83 )">a2</text></g></g><g ewd:figtype="conn" ewd:figID="11" ewd:code="I49"><path style="stroke-width: 1.42 ;&st7;  " d=" M   713.88,    52.78  L   747.87,    52.78  L   747.87,    18.78  L   713.88,    18.78  L   713.88,    52.78  " /><text style="&st18;" transform="matrix(&st16;  721.2  60.97 )">14</text><text style="&st18;" transform="matrix(&st16;  724.58  49.08 )">ANT</text><g ewd:figtype="title"><text style="&st18;" transform="matrix(&st17;  762.59  55.68 )" ewd:textID="18">Motor Antenna <tspan x="0 " dy="6.0">Control Relay</tspan></text><text style="&st18;" transform="matrix(&st17;  755.77  55.68 )">I49</text></g></g><g ewd:figtype="w2w" ewd:figID="38" ewd:code="aS3"><path style="stroke-width: 1.42 ;&st7;  " d=" M   684.14,   497.54  L   679.89,   501.78  L   675.64,   497.54  " /><path style="stroke-width: 1.42 ;&st7;  " d=" M   675.64,   494.14  L   679.89,   498.39  L   684.14,   494.14  " /><text style="&st18;" transform="matrix(&st16;  666.47  509.42 )">1</text></g><g ewd:figtype="w2w" ewd:figID="39" ewd:code="LS2"><path style="stroke-width: 1.42 ;&st7;  " d=" M   684.14,   410.28  L   679.89,   406.03  L   675.64,   410.28  " /><path style="stroke-width: 1.42 ;&st7;  " d=" M   684.14,   406.88  L   679.89,   402.63  L   675.64,   406.88  " /><text style="&st18;" transform="matrix(&st16;  666.47  398.94 )">2</text></g><g ewd:figtype="w2w" ewd:figID="40" ewd:code="aS3"><path style="stroke-width: 1.42 ;&st7;  " d=" M   735.13,   497.54  L   730.88,   501.78  L   726.63,   497.54  " /><path style="stroke-width: 1.42 ;&st7;  " d=" M   726.63,   494.14  L   730.88,   498.39  L   735.13,   494.14  " /><text style="&st18;" transform="matrix(&st16;  717.46  509.42 )">2</text></g><g ewd:figtype="w2w" ewd:figID="41" ewd:code="LS2"><path style="stroke-width: 1.42 ;&st7;  " d=" M   735.13,   410.28  L   730.88,   406.03  L   726.63,   410.28  " /><path style="stroke-width: 1.42 ;&st7;  " d=" M   735.13,   406.88  L   730.88,   402.63  L   726.63,   406.88  " /><text style="&st18;" transform="matrix(&st16;  714.13  398.94 )">12</text></g><g ewd:figtype="w2w" ewd:figID="42" ewd:code="IL1"><text style="&st18;" transform="matrix(&st16;  714.13  101.49 )">31</text><path style="stroke-width: 1.42 ;&st7;  " d=" M   735.13,   109.43  L   730.88,   105.18  L   726.63,   109.43  " /><path style="stroke-width: 1.42 ;&st7;  " d=" M   735.13,   112.83  L   730.88,   108.58  L   726.63,   112.83  " /><g ewd:code="" ewd:figID="62" ewd:comment="" ewd:figtype="commref"><text style="&st18;" transform="matrix(&st16;  739.91  101.49 )">(LHD)</text></g></g><g ewd:figtype="w2w" ewd:figID="43" ewd:code="IL5"><text style="&st18;" transform="matrix(&st16;  714.13  92.99 )">52</text><g ewd:code="" ewd:figID="61" ewd:comment="" ewd:figtype="commref"><text style="&st18;" transform="matrix(&st16;  739.91  92.99 )">(RHD)</text></g></g><g ewd:figtype="annex" ewd:figID="17" ewd:code=" "><path style="stroke-width: 1.42 ;&st7;  " d=" M   654.39,   180.26  L   671.39,   205.75  L   688.38,   180.26  L   654.39,   180.26  " /><path style="stroke-width: 1.42 ;&st7;  " d=" M   671.39,   180.26  L   671.39,   205.75  " /><path style="stroke-width: 0.85 ;&st7;  " d=" M   671.39,   205.75  L   671.39,   282.24  "/><text style="&st18;" transform="matrix(&st16;  660.01  176.84 )" ewd:textID="14">Antenna</text></g><g ewd:code="5" ewd:figID="88" ewd:comment="" ewd:figtype="comment"><text style="&st18;" transform="matrix(&st16;  888.95  80.24 )" ewd:textID="5">* 5 :Before Jan. 2017 Production</text></g><g ewd:code="10" ewd:figID="92" ewd:comment="" ewd:figtype="comment"><text style="&st18;" transform="matrix(&st16;  888.95  122.73 )" ewd:textID="10">*10 :2 Speaker</text></g><g ewd:code="11" ewd:figID="94" ewd:comment="" ewd:figtype="comment"><text style="&st18;" transform="matrix(&st16;  888.95  131.23 )" ewd:textID="11">*11 :4 Speaker</text></g><g ewd:code="4" ewd:figID="60" ewd:comment="" ewd:figtype="comment"><text style="&st18;" transform="matrix(&st16;  888.95  71.74 )" ewd:textID="4">* 4 :w/ Input Jack</text></g><g ewd:code="1" ewd:figID="59" ewd:comment="" ewd:figtype="comment"><text style="&st18;" transform="matrix(&st16;  888.95  46.25 )" ewd:textID="1">* 1 :4-Door</text></g><g ewd:code="8" ewd:figID="90" ewd:comment="" ewd:figtype="comment"><text style="&st18;" transform="matrix(&st16;  888.95  105.74 )" ewd:textID="8">* 8 :w/o VSC</text></g><g ewd:code="7" ewd:figID="91" ewd:comment="" ewd:figtype="comment"><text style="&st18;" transform="matrix(&st16;  888.95  97.24 )" ewd:textID="7">* 7 :w/ VSC</text></g><g ewd:code="6" ewd:figID="89" ewd:comment="" ewd:figtype="comment"><text style="&st18;" transform="matrix(&st16;  888.95  88.74 )" ewd:textID="6">* 6 :From Jan. 2017 Production</text></g><g ewd:code="3" ewd:figID="58" ewd:comment="" ewd:figtype="comment"><text style="&st18;" transform="matrix(&st16;  888.95  63.24 )" ewd:textID="3">* 3 :w/ Auto Antenna</text></g><g ewd:code="9" ewd:figID="93" ewd:comment="" ewd:figtype="comment"><text style="&st18;" transform="matrix(&st16;  888.95  114.24 )" ewd:textID="9">* 9 :1 Speaker</text></g><g ewd:code="13" ewd:figID="96" ewd:comment="" ewd:figtype="comment"><text style="&st18;" transform="matrix(&st16;  888.95  148.23 )" ewd:textID="13">*13 :From Jul. 2021 Production</text></g><g ewd:code="2" ewd:figID="53" ewd:comment="" ewd:figtype="comment"><text style="&st18;" transform="matrix(&st16;  888.95  54.75 )" ewd:textID="2">* 2 :2-Door</text></g><g ewd:code="12" ewd:figID="95" ewd:comment="" ewd:figtype="comment"><text style="&st18;" transform="matrix(&st16;  888.95  139.73 )" ewd:textID="12">*12 :Before Jul. 2021 Production</text></g></svg>
