<?xml version="1.0" encoding="utf-8"?>
<!DOCTYPE svg PUBLIC "-//W3C//DTD SVG 1.0//EN" "http://www.w3.org/TR/2001/REC-SVG-20010904/DTD/svg10.dtd"[
	<!ENTITY ns_flows "http://ns.adobe.com/Flows/1.0/">
	<!ENTITY ns_svg "http://www.w3.org/2000/svg">
	<!ENTITY ns_xlink "http://www.w3.org/1999/xlink">
	<!ENTITY st0 "font-size:7px;font-family:'MS-PGothic';adobe-font-script:japanese;">
	<!ENTITY st1 "font-size:6px;font-family:'ArialMT';">
	<!-- White fill  -->
	<!ENTITY st2 "fill:#FFFFFF;stroke:#000000; stroke-width:1.41;stroke-linecap:round;stroke-linejoin:round;">
	<!-- Yellow fill  -->
	<!ENTITY st3 "fill:#FFFFCC;stroke:#FFFFCC; stroke-width:0.1;stroke-linecap:round;stroke-linejoin:round;">
	<!-- Gray fill  -->
	<!ENTITY st4 "fill:#CCCCCC;stroke:#CCCCCC; stroke-width:0.1;stroke-linecap:round;stroke-linejoin:round;">
	<!-- Light-blue fill -->
	<!ENTITY st5 "fill:#CCECF4;stroke:#000000; stroke-width:1.133;stroke-linecap:round;stroke-linejoin:round;">
	<!ENTITY st6 "fill:none;stroke-linecap:butt; stroke-linejoin:round;">
	<!ENTITY st7 "fill:none;stroke:#000000;stroke-linecap:round;stroke-linejoin:round;">
	<!ENTITY st8 "enable-background:new    ;">
	<!-- Black fill -->
	<!ENTITY st9 "fill:#000000;stroke:#000000; stroke-linecap:round;stroke-linejoin:round;">
	<!-- SRS note   -->
	<!ENTITY st10 "font-size:9px;font-family:'ArialMT';">
	<!ENTITY st11 "font-size:9px;font-family:'Svg Symbol';">
	<!ENTITY st12 "font-size:6px;font-family:'Svg Symbol';">
	<!ENTITY st13 "fill:none;stroke:#ff0000;stroke-linecap:round;stroke-linejoin:round;">
	<!-- Yellow fill  -->
	<!ENTITY st14 "fill:#FFFF00;stroke:#FFFF00; stroke-width:0.1;stroke-linecap:round;stroke-linejoin:round;">
	<!ENTITY st15 "font-size:6px;font-family:'MS-PGothic';adobe-font-script:japanese;">
	<!ENTITY st16 "1.00 0.00 0.00 1.00">
	<!ENTITY st17 "0.00 -1.00 1.00 0.00">
	<!ENTITY st18 "font-size:6px;font-family:'Arial';">
	<!ENTITY st19 "font-size:9px;font-family:'Arial';">
	<!ENTITY st20 "font-size:6px;font-family:'MS-PGothic','MS PGothic';adobe-font-script:japanese;">
	<!ENTITY st21 "font-size:7px;font-family:'MS-PGothic','MS PGothic';adobe-font-script:japanese;">
	<!ATTLIST svg
		xmlns:ewd CDATA #FIXED "http://shcl.co.jp/ewd"
		xmlns:a CDATA #FIXED "http://ns.adobe.com/AdobeSVGViewerExtensions/3.0/"
		ewd:ver CDATA #IMPLIED
	>
	<!ATTLIST a
		ewd:lineID CDATA #IMPLIED
		ewd:groupID CDATA #IMPLIED
		ewd:figtype CDATA #IMPLIED
		ewd:code CDATA #IMPLIED
		ewd:figID CDATA #IMPLIED
		ewd:pinNo CDATA #IMPLIED
		ewd:comment CDATA #IMPLIED >
	<!ATTLIST g
		ewd:lineID CDATA #IMPLIED
		ewd:groupID CDATA #IMPLIED
		ewd:figtype CDATA #IMPLIED
		ewd:code CDATA #IMPLIED
		ewd:figID CDATA #IMPLIED
		ewd:pinNo CDATA #IMPLIED
		ewd:comment CDATA #IMPLIED >
	<!ATTLIST text
		ewd:textID CDATA #IMPLIED >
	<!ATTLIST title
		ewd:textID CDATA #IMPLIED >
]>
<!-- Generator: Shintec Hozumi YS   -->
<svg onload="call_execInitLoadProc_svg('system')" style="overflow:visible;  enable-background:new 0 0 2061.447 710.000" viewBox="0 0 2061.447 710.000" height="710.000" width="2061.447" xml:space="preserve" ewd:ver="2.3.1.16" xmlns="&ns_svg;" xmlns:a="http://ns.adobe.com/AdobeSVGViewerExtensions/3.0/" xmlns:ewd="http://shcl.co.jp/ewd" xmlns:xlink="&ns_xlink;">
<path style="stroke-width: 1.42 ;&st7;  " d=" M  1951.15,   146.26  L  1946.17,   151.23  " /><path style="stroke-width: 1.42 ;&st7;  " d=" M  1958.20,   163.26  L  1963.17,   158.29  " /><path style="stroke-width: 1.42 ;&st7;  " d=" M  1946.17,   158.29  L  1951.14,   163.26  " /><path style="stroke-width: 1.42 ;&st7;  " d=" M  1963.17,   151.23  L  1958.20,   146.26  " /><text style="&st18;" transform="matrix(&st17;  1899.99  126.94 )">R</text><text style="&st18;" transform="matrix(&st17;  1950.98  126.94 )">R</text><text style="&st18;" transform="matrix(&st17;  1848.99  160.93 )">R</text><text style="&st18;" transform="matrix(&st17;  1704.52  567.91 )">G-R</text><text style="&st18;" transform="matrix(&st17;  1715.85  572.6 )">(*6 *24)</text><text style="&st18;" transform="matrix(&st17;  1781.01  394.8 )">G</text><text style="&st18;" transform="matrix(&st16;  1575.68  672.31 )">(*6)</text><path style="stroke-width: 1.42 ;&st7;  " d=" M  2002.14,   622.18  L  1997.17,   627.15  " /><path style="stroke-width: 1.42 ;&st7;  " d=" M  1997.17,   634.21  L  2002.14,   639.18  " /><path style="stroke-width: 1.42 ;&st7;  " d=" M  1917.15,   622.18  L  1912.18,   627.15  " /><path style="stroke-width: 1.42 ;&st7;  " d=" M  1924.21,   639.18  L  1929.18,   634.21  " /><path style="stroke-width: 1.42 ;&st7;  " d=" M  1912.18,   634.21  L  1917.15,   639.18  " /><path style="stroke-width: 1.42 ;&st7;  " d=" M  1929.18,   627.15  L  1924.21,   622.18  " /><path style="stroke-width: 1.42 ;&st7;  " d=" M  2002.14,   409.72  L  1997.17,   414.69  " /><path style="stroke-width: 1.42 ;&st7;  " d=" M  1997.17,   421.75  L  2002.14,   426.71  " /><path style="stroke-width: 1.42 ;&st7;  " d=" M  1912.18,   384.22  L  1920.68,   384.22  " /><path style="stroke-width: 1.42 ;&st7;  " d=" M  1929.18,   579.69  L  1920.68,   579.69  " /><path style="stroke-width: 1.42 ;&st7;  " d=" M  1861.19,   571.19  L  1869.69,   571.19  " /><path style="stroke-width: 1.42 ;&st7;  " d=" M  1912.18,   486.20  L  1920.68,   486.20  " /><path style="stroke-width: 1.42 ;&st7;  " d=" M  1623.23,   520.20  L  1631.73,   520.20  " /><text style="&st18;" transform="matrix(&st17;  1639.36  570.93 )">(*6 *7)</text><text style="&st18;" transform="matrix(&st17;  1628.03  567.91 )">G-R</text><text style="&st18;" transform="matrix(&st17;  1792.34  397.28 )">(*6)</text><text style="&st18;" transform="matrix(&st17;  1962.31  129.57 )">(*6)</text><text style="&st18;" transform="matrix(&st17;  1911.32  129.57 )">(*6)</text><text style="&st18;" transform="matrix(&st17;  1860.33  163.57 )">(*6)</text><text style="&st18;" transform="matrix(&st16;  1524.69  672.31 )">(*6)</text><text style="&st18;" transform="matrix(&st16;  1527.17  660.98 )">G</text><text style="&st18;" transform="matrix(&st16;  1578.16  660.98 )">G</text><text style="&st18;" transform="matrix(&st17;  1877.32  609.74 )">(*9)</text><text style="&st18;" transform="matrix(&st17;  1865.99  609.12 )">BR</text><text style="&st18;" transform="matrix(&st17;  1877.32  554.5 )">(*9)</text><text style="&st18;" transform="matrix(&st17;  1865.99  553.88 )">BR</text><text style="&st18;" transform="matrix(&st17;  1916.98  609.12 )">BR</text><text style="&st18;" transform="matrix(&st17;  1916.98  371.16 )">BR</text><text style="&st18;" transform="matrix(&st17;  1916.98  447.65 )">BR</text><text style="&st18;" transform="matrix(&st17;  1928.32  458.93 )">(*5,*30 *31)</text><text style="&st18;" transform="matrix(&st17;  1916.98  664.36 )">BR</text><text style="&st18;" transform="matrix(&st17;  1928.32  664.98 )">(*8)</text><text style="&st18;" transform="matrix(&st17;  1916.98  553.88 )">BR</text><text style="&st18;" transform="matrix(&st17;  1928.32  554.5 )">(*8)</text><text style="&st18;" transform="matrix(&st16;  1958.73  414.52 )">BR</text><text style="&st18;" transform="matrix(&st16;  1949.08  425.85 )">(*1,*9,*32)</text><text style="&st18;" transform="matrix(&st17;  1928.32  609.74 )">(*8)</text><text style="&st18;" transform="matrix(&st16;  1958.73  465.51 )">BR</text><text style="&st18;" transform="matrix(&st16;  1952.76  476.84 )">(*9,*34)</text><path style="stroke-width: 1.42 ;&st7;  " d=" M  1861.19,   129.26  L  1852.69,   129.26  " /><path style="stroke-width: 1.42 ;&st7;  " d=" M  1699.72,   520.20  L  1708.21,   520.20  " /><text style="&st18;" transform="matrix(&st16;  1559.51  440.01 )">G-R(*6 *24 *37)</text><text style="&st18;" transform="matrix(&st16;  1508.52  440.01 )">G-R(*6 *24 *37)</text><text style="&st18;" transform="matrix(&st16;  1562.61  491.01 )">SB(*6 *7 *38)</text><text style="&st18;" transform="matrix(&st16;  1511.62  491.01 )">SB(*6 *7 *38)</text><text style="&st18;" transform="matrix(&st16;  1560.98  457.01 )">SB(*6 *24 *38)</text><text style="&st18;" transform="matrix(&st16;  1509.99  457.01 )">SB(*6 *24 *38)</text><text style="&st18;" transform="matrix(&st16;  1561.18  474.01 )">G-R(*6 *7 *37)</text><text style="&st18;" transform="matrix(&st16;  1510.19  474.01 )">G-R(*6 *7 *37)</text><text style="&st18;" transform="matrix(&st17;  1792.34  575.75 )">(*6)</text><text style="&st18;" transform="matrix(&st17;  1781.01  573.27 )">G</text><g ewd:code="A42,A45" ewd:figID="10" ewd:comment="39,40" ewd:figtype="conn"><path style="stroke-width: 1.42 ;&st7;  " d=" M  1691.22,   596.69  L  1691.22,   630.68  L  1725.21,   630.68  L  1725.21,   596.69  L  1691.22,   596.69  " /><text style="&st18;" transform="matrix(&st16;  1695.4  594.12 )">18</text><text style="&st18;" transform="matrix(&st16;  1695.4  585.06 )">14</text><path style="stroke-width: 1.42 ;&st7;   " d=" M  1712.75,   592.15  C  1712.75    589.65   1710.72    587.62   1708.21    587.62  " /><path style="stroke-width: 1.42 ;&st7;   " d=" M  1708.21,   587.62  C  1705.71    587.62   1703.68    589.65   1703.68    592.15  " /><path style="stroke-width: 1.42 ;&st7;   " d=" M  1703.68,   592.15  C  1703.68    594.66   1705.71    596.69   1708.21    596.69  " /><path style="stroke-width: 1.42 ;&st7;   " d=" M  1708.21,   596.69  C  1710.72    596.69   1712.75    594.66   1712.75    592.15  " /><text style="&st18;" transform="matrix(&st16;  1705.95  585.06 )">A</text><path style="stroke-width: 1.42 ;&st7;   " d=" M  1712.75,   583.09  C  1712.75    580.58   1710.72    578.56   1708.21    578.56  " /><path style="stroke-width: 1.42 ;&st7;   " d=" M  1708.21,   578.56  C  1705.71    578.56   1703.68    580.58   1703.68    583.09  " /><path style="stroke-width: 1.42 ;&st7;   " d=" M  1703.68,   583.09  C  1703.68    585.59   1705.71    587.62   1708.21    587.62  " /><path style="stroke-width: 1.42 ;&st7;   " d=" M  1708.21,   587.62  C  1710.72    587.62   1712.75    585.59   1712.75    583.09  " /><text style="&st18;" transform="matrix(&st16;  1705.95  594.12 )">B</text><text style="&st18;" transform="matrix(&st16;  1702.3  604.32 )">SP1</text><g ewd:figtype="title"><text style="&st18;" transform="matrix(&st16;  1687.8  638.57 )">A42(A),A45(B)</text><text style="&st18;" transform="matrix(&st16;  1687.81  645.4 )" ewd:textID="25">Brake Actuator <tspan x="0 " dy="6.0">Assembly</tspan></text></g><g ewd:code="" ewd:figID="208" ewd:comment="40" ewd:figtype="commref"><text style="&st18;" transform="matrix(&st16;  1713.31  594.12 )">(*40)</text></g><g ewd:code="" ewd:figID="209" ewd:comment="39" ewd:figtype="commref"><text style="&st18;" transform="matrix(&st16;  1713.31  585.06 )">(*39)</text></g></g><g ewd:figtype="rb" ewd:figID="12" ewd:code="FUSE5"><path style="stroke-width: 0.85 ;&st7;  " d=" M  1954.67,    78.27  L  1954.67,    95.27  " /><path style="stroke-width: 1.42 ;&st7;  " d=" M  1956.80,   103.77  L  1952.55,   103.77  " /><path style="stroke-width: 1.42 ;&st7;  " d=" M  1956.80,    95.27  L  1952.55,    95.27  " /><path style="stroke-width: 1.42 ;&st7;   " d=" M  1961.05,    99.52  C  1961.05     97.17   1959.14     95.27   1956.80     95.27  " /><path style="stroke-width: 1.42 ;&st7;   " d=" M  1956.80,   103.77  C  1959.14    103.77   1961.05    101.87   1961.05     99.52  " /><path style="stroke-width: 1.42 ;&st7;   " d=" M  1948.30,    99.52  C  1948.30    101.87   1950.20    103.77   1952.55    103.77  " /><path style="stroke-width: 1.42 ;&st7;   " d=" M  1952.55,    95.27  C  1950.20     95.27   1948.30     97.17   1948.30     99.52  " /><path style="stroke-width: 0.28 ;&st9;  " d=" M  1954.67,    90.37  L  1951.84,    87.54  L  1951.84,    91.79  L  1954.67,    94.62  L  1957.51,    91.79  L  1957.51,    87.54  L  1954.67,    90.37  " /><text style="&st18;" transform="matrix(&st16;  1946.59  32.08 )">(BAT)</text><text style="&st18;" transform="matrix(&st16;  1948.33  86.47 )">2</text><text style="&st18;" transform="matrix(&st16;  1952.8  101.49 )">2</text><text style="&st18;" transform="matrix(&st16;  1971.1  53.34 )">10A <tspan x="0 " dy="6.0">DOME </tspan><tspan x="0 " dy="6.0">NO.1</tspan></text><path style="stroke-width: 0.85 ;&st7;  " d=" M  1954.67,    69.77  L  1954.67,    78.27  " /><path style="stroke-width: 0.85 ;&st7;   " d=" M  1956.09,    68.36  C  1956.09     67.57   1955.46     66.94   1954.67     66.94  " /><path style="stroke-width: 0.85 ;&st7;   " d=" M  1954.67,    66.94  C  1953.89     66.94   1953.26     67.57   1953.26     68.36  " /><path style="stroke-width: 0.85 ;&st7;   " d=" M  1953.26,    68.36  C  1953.26     69.14   1953.89     69.77   1954.67     69.77  " /><path style="stroke-width: 0.85 ;&st7;   " d=" M  1954.67,    69.77  C  1955.46     69.77   1956.09     69.14   1956.09     68.36  " /><path style="stroke-width: 0.85 ;&st7;   " d=" M  1956.09,    45.69  C  1956.09     44.91   1955.46     44.28   1954.67     44.28  " /><path style="stroke-width: 0.85 ;&st7;   " d=" M  1954.67,    44.28  C  1953.89     44.28   1953.26     44.91   1953.26     45.69  " /><path style="stroke-width: 0.85 ;&st7;   " d=" M  1953.26,    45.69  C  1953.26     46.48   1953.89     47.11   1954.67     47.11  " /><path style="stroke-width: 0.85 ;&st7;   " d=" M  1954.67,    47.11  C  1955.46     47.11   1956.09     46.48   1956.09     45.69  " /><path style="stroke-width: 1.42 ;&st7;   " d=" M  1954.67,    66.94  C  1957.41     65.33   1958.32     61.80   1956.71     59.06  " /><path style="stroke-width: 1.42 ;&st7;   " d=" M  1956.71,    59.06  C  1956.19     58.18   1955.56     57.55   1954.67     57.03  " /><path style="stroke-width: 1.42 ;&st7;   " d=" M  1954.67,    47.11  C  1951.94     48.72   1951.02     52.25   1952.64     54.99  " /><path style="stroke-width: 1.42 ;&st7;   " d=" M  1952.64,    54.99  C  1953.16     55.87   1953.79     56.51   1954.67     57.03  " /><path style="stroke-width: 1.42 ;&st7;  " d=" M  1941.92,    35.78  L  1941.92,    78.27  L  1967.42,    78.27  L  1967.42,    35.78  L  1941.92,    35.78  " /></g><g ewd:figtype="conn" ewd:figID="14" ewd:code="L36,L51"><path style="stroke-width: 1.42 ;&st7;  " d=" M  1776.20,   494.70  L  1793.20,   494.70  L  1793.20,   477.71  L  1776.20,   477.71  L  1776.20,   494.70  " /><path style="stroke-width: 0.85 ;&st7;  " d=" M  1784.70,   494.70  L  1784.70,   477.71  " /><text style="&st18;" transform="matrix(&st16;  1775.22  510.27 )">4</text><text style="&st18;" transform="matrix(&st16;  1775.22  501.2 )">5</text><path style="stroke-width: 1.42 ;&st7;   " d=" M  1789.23,   499.24  C  1789.23    496.73   1787.21    494.70   1784.70    494.70  " /><path style="stroke-width: 1.42 ;&st7;   " d=" M  1784.70,   494.70  C  1782.20    494.70   1780.17    496.73   1780.17    499.24  " /><path style="stroke-width: 1.42 ;&st7;   " d=" M  1780.17,   499.24  C  1780.17    501.74   1782.20    503.77   1784.70    503.77  " /><path style="stroke-width: 1.42 ;&st7;   " d=" M  1784.70,   503.77  C  1787.21    503.77   1789.23    501.74   1789.23    499.24  " /><text style="&st18;" transform="matrix(&st16;  1782.44  501.2 )">A</text><path style="stroke-width: 1.42 ;&st7;   " d=" M  1789.23,   508.30  C  1789.23    505.80   1787.21    503.77   1784.70    503.77  " /><path style="stroke-width: 1.42 ;&st7;   " d=" M  1784.70,   503.77  C  1782.20    503.77   1780.17    505.80   1780.17    508.30  " /><path style="stroke-width: 1.42 ;&st7;   " d=" M  1780.17,   508.30  C  1780.17    510.80   1782.20    512.83   1784.70    512.83  " /><path style="stroke-width: 1.42 ;&st7;   " d=" M  1784.70,   512.83  C  1787.21    512.83   1789.23    510.80   1789.23    508.30  " /><text style="&st18;" transform="matrix(&st16;  1782.44  510.27 )">B</text><text style="&st18;" transform="matrix(&st16;  1775.22  466.08 )">7</text><text style="&st18;" transform="matrix(&st16;  1771.89  475.14 )">13</text><path style="stroke-width: 1.42 ;&st7;   " d=" M  1789.23,   464.11  C  1789.23    461.60   1787.21    459.58   1784.70    459.58  " /><path style="stroke-width: 1.42 ;&st7;   " d=" M  1784.70,   459.58  C  1782.20    459.58   1780.17    461.60   1780.17    464.11  " /><path style="stroke-width: 1.42 ;&st7;   " d=" M  1780.17,   464.11  C  1780.17    466.61   1782.20    468.64   1784.70    468.64  " /><path style="stroke-width: 1.42 ;&st7;   " d=" M  1784.70,   468.64  C  1787.21    468.64   1789.23    466.61   1789.23    464.11  " /><path style="stroke-width: 1.42 ;&st7;   " d=" M  1789.23,   473.17  C  1789.23    470.67   1787.21    468.64   1784.70    468.64  " /><path style="stroke-width: 1.42 ;&st7;   " d=" M  1784.70,   468.64  C  1782.20    468.64   1780.17    470.67   1780.17    473.17  " /><path style="stroke-width: 1.42 ;&st7;   " d=" M  1780.17,   473.17  C  1780.17    475.68   1782.20    477.71   1784.70    477.71  " /><path style="stroke-width: 1.42 ;&st7;   " d=" M  1784.70,   477.71  C  1787.21    477.71   1789.23    475.68   1789.23    473.17  " /><text style="&st18;" transform="matrix(&st16;  1782.44  466.08 )">A</text><text style="&st18;" transform="matrix(&st16;  1782.44  475.14 )">B</text><g ewd:figtype="title"><text style="&st18;" transform="matrix(&st17;  1764.01  497.61 )" ewd:textID="40">No. 25 Junction <tspan x="0 " dy="6.0">Connector</tspan></text><text style="&st18;" transform="matrix(&st17;  1757.18  497.6 )">L51(B)</text><text style="&st18;" transform="matrix(&st17;  1743.9  497.61 )" ewd:textID="43">No. 28 Junction <tspan x="0 " dy="6.0">Connector</tspan></text><text style="&st18;" transform="matrix(&st17;  1737.07  497.6 )">L36(A)</text></g><g ewd:code="" ewd:figID="127" ewd:comment="" ewd:figtype="commref"><text style="&st18;" transform="matrix(&st16;  1789.79  475.14 )">(RHD)</text></g><g ewd:code="" ewd:figID="128" ewd:comment="" ewd:figtype="commref"><text style="&st18;" transform="matrix(&st16;  1789.79  466.08 )">(LHD)</text></g><g ewd:code="" ewd:figID="129" ewd:comment="" ewd:figtype="commref"><text style="&st18;" transform="matrix(&st16;  1789.79  510.27 )">(RHD)</text></g><g ewd:code="" ewd:figID="130" ewd:comment="" ewd:figtype="commref"><text style="&st18;" transform="matrix(&st16;  1789.79  501.2 )">(LHD)</text></g></g><g ewd:figtype="conn" ewd:figID="15" ewd:code="A20"><path style="stroke-width: 1.42 ;&st7;  " d=" M  1614.73,   596.69  L  1614.73,   630.68  L  1648.72,   630.68  L  1648.72,   596.69  L  1614.73,   596.69  " /><text style="&st18;" transform="matrix(&st16;  1622.05  593.0 )">22</text><text style="&st18;" transform="matrix(&st16;  1625.82  604.32 )">SP1</text><g ewd:figtype="title"><text style="&st18;" transform="matrix(&st16;  1611.32  645.4 )" ewd:textID="25">Brake Actuator <tspan x="0 " dy="6.0">Assembly</tspan></text><text style="&st18;" transform="matrix(&st16;  1611.32  638.57 )">A20</text></g></g><g ewd:code="AI3" ewd:figID="54" ewd:comment="9" ewd:figtype="w2w"><text style="&st18;" transform="matrix(&st16;  1614.97  543.41 )">30</text><g ewd:code="" ewd:figID="133" ewd:comment="9" ewd:figtype="commref"><text style="&st18;" transform="matrix(&st16;  1640.76  543.41 )">(*9)</text></g></g><g ewd:code="AI3" ewd:figID="55" ewd:comment="1,8" ewd:figtype="w2w"><text style="&st18;" transform="matrix(&st16;  1614.97  534.92 )">21</text><g ewd:code="" ewd:figID="135" ewd:comment="1,8" ewd:figtype="commref"><text style="&st18;" transform="matrix(&st16;  1640.76  534.92 )">(RHD *1,*8)</text></g></g><g ewd:code="AI3" ewd:figID="56" ewd:comment="1" ewd:figtype="w2w"><path style="stroke-width: 1.42 ;&st7;  " d=" M  1627.48,   511.13  L  1631.73,   515.38  L  1635.98,   511.13  " /><path style="stroke-width: 1.42 ;&st7;  " d=" M  1635.98,   514.53  L  1631.73,   518.78  L  1627.48,   514.53  " /><text style="&st18;" transform="matrix(&st16;  1614.97  526.42 )">51</text><g ewd:code="" ewd:figID="134" ewd:comment="1" ewd:figtype="commref"><text style="&st18;" transform="matrix(&st16;  1640.76  526.42 )">(LHD *1)</text></g></g><g ewd:code="AI3" ewd:figID="57" ewd:comment="9" ewd:figtype="w2w"><text style="&st18;" transform="matrix(&st16;  1691.46  543.41 )">20</text><g ewd:code="" ewd:figID="178" ewd:comment="9" ewd:figtype="commref"><text style="&st18;" transform="matrix(&st16;  1717.25  543.41 )">(LHD *9)</text></g></g><g ewd:figtype="w2w" ewd:figID="58" ewd:code="AI3"><text style="&st18;" transform="matrix(&st16;  1691.46  534.92 )">30</text><g ewd:code="" ewd:figID="175" ewd:comment="" ewd:figtype="commref"><text style="&st18;" transform="matrix(&st16;  1717.25  534.92 )">(RHD)</text></g></g><g ewd:code="AI3" ewd:figID="59" ewd:comment="1" ewd:figtype="w2w"><path style="stroke-width: 1.42 ;&st7;  " d=" M  1712.46,   514.53  L  1708.21,   518.78  L  1703.96,   514.53  " /><path style="stroke-width: 1.42 ;&st7;  " d=" M  1703.96,   511.13  L  1708.21,   515.38  L  1712.46,   511.13  " /><text style="&st18;" transform="matrix(&st16;  1691.46  526.42 )">51</text><g ewd:code="" ewd:figID="176" ewd:comment="1" ewd:figtype="commref"><text style="&st18;" transform="matrix(&st16;  1717.25  526.42 )">(LHD *1)</text></g></g><g ewd:figtype="w2w" ewd:figID="60" ewd:code="IL6"><path style="stroke-width: 1.42 ;&st7;  " d=" M  1856.94,   134.93  L  1852.69,   130.68  L  1848.44,   134.93  " /><path style="stroke-width: 1.42 ;&st7;  " d=" M  1856.94,   138.33  L  1852.69,   134.08  L  1848.44,   138.33  " /><text style="&st18;" transform="matrix(&st16;  1839.27  126.98 )">8</text><g ewd:code="" ewd:figID="161" ewd:comment="" ewd:figtype="commref"><text style="&st18;" transform="matrix(&st16;  1861.72  126.98 )">(RHD)</text></g></g><g ewd:figtype="w2w" ewd:figID="61" ewd:code="IL2"><text style="&st18;" transform="matrix(&st16;  1839.27  118.49 )">2</text><g ewd:code="" ewd:figID="162" ewd:comment="" ewd:figtype="commref"><text style="&st18;" transform="matrix(&st16;  1861.72  118.49 )">(LHD)</text></g></g><g ewd:figtype="w2w" ewd:figID="62" ewd:code="CA4"><path style="stroke-width: 1.42 ;&st7;  " d=" M  1873.94,   565.52  L  1869.69,   569.77  L  1865.44,   565.52  " /><path style="stroke-width: 1.42 ;&st7;  " d=" M  1865.44,   562.12  L  1869.69,   566.37  L  1873.94,   562.12  " /><text style="&st18;" transform="matrix(&st16;  1852.94  577.41 )">17</text></g><g ewd:figtype="w2w" ewd:figID="63" ewd:code="AC1"><path style="stroke-width: 1.42 ;&st7;  " d=" M  1924.93,   585.35  L  1920.68,   581.10  L  1916.43,   585.35  " /><path style="stroke-width: 1.42 ;&st7;  " d=" M  1924.93,   588.75  L  1920.68,   584.50  L  1916.43,   588.75  " /><text style="&st18;" transform="matrix(&st16;  1907.26  577.41 )">1</text></g><g ewd:code="AI3" ewd:figID="64" ewd:comment="9" ewd:figtype="w2w"><text style="&st18;" transform="matrix(&st16;  1903.93  517.92 )">13</text><g ewd:code="" ewd:figID="177" ewd:comment="9" ewd:figtype="commref"><text style="&st18;" transform="matrix(&st16;  1929.71  517.92 )">(LHD *9)</text></g></g><g ewd:code="AI3" ewd:figID="65" ewd:comment="9" ewd:figtype="w2w"><text style="&st18;" transform="matrix(&st16;  1903.93  509.42 )">55</text><g ewd:code="" ewd:figID="151" ewd:comment="9" ewd:figtype="commref"><text style="&st18;" transform="matrix(&st16;  1929.71  509.42 )">(RHD *9)</text></g></g><g ewd:code="AI3" ewd:figID="66" ewd:comment="8" ewd:figtype="w2w"><text style="&st18;" transform="matrix(&st16;  1903.93  500.92 )">22</text><g ewd:code="" ewd:figID="149" ewd:comment="8" ewd:figtype="commref"><text style="&st18;" transform="matrix(&st16;  1929.71  500.92 )">(RHD *8)</text></g></g><g ewd:code="AI3" ewd:figID="67" ewd:comment="8" ewd:figtype="w2w"><path style="stroke-width: 1.42 ;&st7;  " d=" M  1916.43,   477.14  L  1920.68,   481.39  L  1924.93,   477.14  " /><path style="stroke-width: 1.42 ;&st7;  " d=" M  1924.93,   480.54  L  1920.68,   484.79  L  1916.43,   480.54  " /><text style="&st18;" transform="matrix(&st16;  1903.93  492.42 )">45</text><g ewd:code="" ewd:figID="150" ewd:comment="8" ewd:figtype="commref"><text style="&st18;" transform="matrix(&st16;  1929.71  492.42 )">(LHD *8)</text></g></g><g ewd:figtype="w2w" ewd:figID="68" ewd:code="IL6"><text style="&st18;" transform="matrix(&st16;  1903.93  398.94 )">14</text><g ewd:code="" ewd:figID="156" ewd:comment="" ewd:figtype="commref"><text style="&st18;" transform="matrix(&st16;  1929.71  398.94 )">(RHD)</text></g></g><g ewd:figtype="w2w" ewd:figID="69" ewd:code="IL2"><path style="stroke-width: 1.42 ;&st7;  " d=" M  1924.93,   378.56  L  1920.68,   382.80  L  1916.43,   378.56  " /><path style="stroke-width: 1.42 ;&st7;  " d=" M  1916.43,   375.16  L  1920.68,   379.41  L  1924.93,   375.16  " /><text style="&st18;" transform="matrix(&st16;  1907.26  390.44 )">4</text><g ewd:code="" ewd:figID="157" ewd:comment="" ewd:figtype="commref"><text style="&st18;" transform="matrix(&st16;  1929.71  390.44 )">(LHD)</text></g></g><g ewd:figtype="w2w" ewd:figID="70" ewd:code="AC5"><path style="stroke-width: 1.42 ;&st7;  " d=" M  2009.91,   588.75  L  2005.66,   584.50  L  2001.41,   588.75  " /><path style="stroke-width: 1.42 ;&st7;  " d=" M  2009.91,   585.35  L  2005.66,   581.10  L  2001.41,   585.35  " /><text style="&st18;" transform="matrix(&st16;  1992.25  577.41 )">9</text><g ewd:code="" ewd:figID="147" ewd:comment="" ewd:figtype="commref"><text style="&st18;" transform="matrix(&st16;  2014.7  577.41 )">(RHD)</text></g></g><g ewd:figtype="w2w" ewd:figID="71" ewd:code="IC2"><text style="&st18;" transform="matrix(&st16;  1992.25  568.91 )">9</text><g ewd:code="" ewd:figID="148" ewd:comment="" ewd:figtype="commref"><text style="&st18;" transform="matrix(&st16;  2014.7  568.91 )">(LHD)</text></g></g><g ewd:figtype="gp" ewd:figID="76" ewd:code="CE"><path style="stroke-width: 0.85 ;&st7;  " d=" M  1868.27,   710.00  L  1871.10,   710.00  " /><path style="stroke-width: 0.85 ;&st7;  " d=" M  1866.85,   707.17  L  1872.52,   707.17  " /><path style="stroke-width: 0.85 ;&st7;  " d=" M  1865.44,   704.33  L  1873.94,   704.33  " /><path style="stroke-width: 0.85 ;&st7;  " d=" M  1861.19,   701.50  L  1878.19,   701.50  " /><path style="stroke-width: 0.85 ;&st7;  " d=" M  1869.69,   697.25  L  1869.69,   701.50  " /></g><g ewd:figtype="gp" ewd:figID="77" ewd:code="CC"><path style="stroke-width: 0.85 ;&st7;  " d=" M  1919.26,   710.00  L  1922.09,   710.00  " /><path style="stroke-width: 0.85 ;&st7;  " d=" M  1917.85,   707.17  L  1923.51,   707.17  " /><path style="stroke-width: 0.85 ;&st7;  " d=" M  1916.43,   704.33  L  1924.93,   704.33  " /><path style="stroke-width: 0.85 ;&st7;  " d=" M  1912.18,   701.50  L  1929.18,   701.50  " /><path style="stroke-width: 0.85 ;&st7;  " d=" M  1920.68,   697.25  L  1920.68,   701.50  " /></g><g ewd:figtype="gp" ewd:figID="78" ewd:code="CA"><path style="stroke-width: 0.85 ;&st7;  " d=" M  2004.25,   710.00  L  2007.08,   710.00  " /><path style="stroke-width: 0.85 ;&st7;  " d=" M  2002.83,   707.17  L  2008.50,   707.17  " /><path style="stroke-width: 0.85 ;&st7;  " d=" M  2001.41,   704.33  L  2009.91,   704.33  " /><path style="stroke-width: 0.85 ;&st7;  " d=" M  1997.17,   701.50  L  2014.16,   701.50  " /><path style="stroke-width: 0.85 ;&st7;  " d=" M  2005.66,   697.25  L  2005.66,   701.50  " /></g><g ewd:code="1" ewd:figID="201" ewd:comment="" ewd:figtype="comment"><text style="&st18;" transform="matrix(&st16;  1585.83  80.24 )">* 1 :1GR-FE</text></g><g ewd:code="31" ewd:figID="181" ewd:comment="28" ewd:figtype="comment"><text style="&st18;" transform="matrix(&st16;  1704.81  97.24 )" ewd:textID="17">*31 :LHD *28 w/o SRS</text></g><g ewd:code="5" ewd:figID="202" ewd:comment="" ewd:figtype="comment"><text style="&st18;" transform="matrix(&st16;  1585.83  88.74 )" ewd:textID="4">* 5 :1HZ 24V Battery Type</text></g><g ewd:code="23" ewd:figID="198" ewd:comment="" ewd:figtype="comment"><text style="&st18;" transform="matrix(&st16;  1585.83  148.23 )" ewd:textID="9">*23 :1HZ w/o ABS</text></g><g ewd:code="24" ewd:figID="194" ewd:comment="" ewd:figtype="comment"><text style="&st18;" transform="matrix(&st16;  1585.83  156.73 )" ewd:textID="10">*24 :w/ VSC</text></g><g ewd:code="36" ewd:figID="190" ewd:comment="" ewd:figtype="comment"><text style="&st18;" transform="matrix(&st16;  1704.81  139.73 )" ewd:textID="20">*36 :From Jul. 2021 Production</text></g><g ewd:code="28" ewd:figID="192" ewd:comment="" ewd:figtype="comment"><text style="&st18;" transform="matrix(&st16;  1585.83  173.73 )" ewd:textID="14">*28 :1HZ 12V Battery Type</text></g><g ewd:code="29" ewd:figID="184" ewd:comment="" ewd:figtype="comment"><text style="&st18;" transform="matrix(&st16;  1704.81  80.24 )" ewd:textID="15">*29 :Before Sep. 2017 Production</text></g><g ewd:code="22" ewd:figID="197" ewd:comment="" ewd:figtype="comment"><text style="&st18;" transform="matrix(&st16;  1585.83  139.73 )" ewd:textID="8">*22 :LHD 1GR-FE w/o ABS</text></g><g ewd:code="30" ewd:figID="183" ewd:comment="" ewd:figtype="comment"><text style="&st18;" transform="matrix(&st16;  1704.81  88.74 )" ewd:textID="16">*30 :From Sep. 2017 Production</text></g><g ewd:code="32" ewd:figID="182" ewd:comment="28" ewd:figtype="comment"><text style="&st18;" transform="matrix(&st16;  1704.81  105.74 )" ewd:textID="18">*32 :LHD *28 w/ SRS</text></g><g ewd:code="6" ewd:figID="203" ewd:comment="" ewd:figtype="comment"><text style="&st18;" transform="matrix(&st16;  1585.83  97.24 )" ewd:textID="5">* 6 :Multi Clock Type</text></g><g ewd:code="34" ewd:figID="180" ewd:comment="29,8,30,33,30,32" ewd:figtype="comment"><text style="&st18;" transform="matrix(&st16;  1704.81  122.73 )">*34 :*29 *8,*30 *33,*30 *32</text></g><g ewd:code="37" ewd:figID="158" ewd:comment="" ewd:figtype="comment"><text style="&st18;" transform="matrix(&st16;  1704.81  148.23 )" ewd:textID="21">*37 :Before Sep. 2022 Production</text></g><g ewd:code="21" ewd:figID="196" ewd:comment="" ewd:figtype="comment"><text style="&st18;" transform="matrix(&st16;  1585.83  131.23 )" ewd:textID="7">*21 :w/o ABS</text></g><g ewd:code="8" ewd:figID="193" ewd:comment="" ewd:figtype="comment"><text style="&st18;" transform="matrix(&st16;  1585.83  114.24 )">* 8 :1HZ</text></g><g ewd:code="35" ewd:figID="191" ewd:comment="" ewd:figtype="comment"><text style="&st18;" transform="matrix(&st16;  1704.81  131.23 )" ewd:textID="19">*35 :Before Jul. 2021 Production</text></g><g ewd:code="7" ewd:figID="199" ewd:comment="" ewd:figtype="comment"><text style="&st18;" transform="matrix(&st16;  1585.83  105.74 )" ewd:textID="6">* 7 :w/ ABS w/o VSC</text></g><g ewd:code="39" ewd:figID="160" ewd:comment="" ewd:figtype="comment"><text style="&st18;" transform="matrix(&st16;  1704.81  165.23 )" ewd:textID="23">*39 :w/o Pre-Collision System</text></g><g ewd:code="40" ewd:figID="159" ewd:comment="" ewd:figtype="comment"><text style="&st18;" transform="matrix(&st16;  1704.81  173.73 )" ewd:textID="24">*40 :w/ Pre-Collision System</text></g><g ewd:code="25" ewd:figID="195" ewd:comment="" ewd:figtype="comment"><text style="&st18;" transform="matrix(&st16;  1585.83  165.23 )" ewd:textID="11">*25 :w/o VSC</text></g><g ewd:code="9" ewd:figID="200" ewd:comment="" ewd:figtype="comment"><text style="&st18;" transform="matrix(&st16;  1585.83  122.73 )">* 9 :1VD-FTV</text></g><g ewd:code="33" ewd:figID="179" ewd:comment="" ewd:figtype="comment"><text style="&st18;" transform="matrix(&st16;  1704.81  114.24 )">*33 :RHD 1HZ</text></g><g ewd:code="38" ewd:figID="189" ewd:comment="" ewd:figtype="comment"><text style="&st18;" transform="matrix(&st16;  1704.81  156.73 )" ewd:textID="22">*38 :From Sep. 2022 Production</text></g></svg>