<?xml version="1.0" encoding="utf-8"?>
<!DOCTYPE svg PUBLIC "-//W3C//DTD SVG 1.0//EN" "http://www.w3.org/TR/2001/REC-SVG-20010904/DTD/svg10.dtd"[
	<!ENTITY ns_flows "http://ns.adobe.com/Flows/1.0/">
	<!ENTITY ns_svg "http://www.w3.org/2000/svg">
	<!ENTITY ns_xlink "http://www.w3.org/1999/xlink">
	<!ENTITY st0 "font-size:7px;font-family:'MS-PGothic';adobe-font-script:japanese;">
	<!ENTITY st1 "font-size:6px;font-family:'ArialMT';">
	<!-- White fill  -->
	<!ENTITY st2 "fill:#FFFFFF;stroke:#000000; stroke-width:1.41;stroke-linecap:round;stroke-linejoin:round;">
	<!-- Yellow fill  -->
	<!ENTITY st3 "fill:#FFFFCC;stroke:#FFFFCC; stroke-width:0.1;stroke-linecap:round;stroke-linejoin:round;">
	<!-- Gray fill  -->
	<!ENTITY st4 "fill:#CCCCCC;stroke:#CCCCCC; stroke-width:0.1;stroke-linecap:round;stroke-linejoin:round;">
	<!-- Light-blue fill -->
	<!ENTITY st5 "fill:#CCECF4;stroke:#000000; stroke-width:1.133;stroke-linecap:round;stroke-linejoin:round;">
	<!ENTITY st6 "fill:none;stroke-linecap:butt; stroke-linejoin:round;">
	<!ENTITY st7 "fill:none;stroke:#000000;stroke-linecap:round;stroke-linejoin:round;">
	<!ENTITY st8 "enable-background:new    ;">
	<!-- Black fill -->
	<!ENTITY st9 "fill:#000000;stroke:#000000; stroke-linecap:round;stroke-linejoin:round;">
	<!-- SRS note   -->
	<!ENTITY st10 "font-size:9px;font-family:'ArialMT';">
	<!ENTITY st11 "font-size:9px;font-family:'Svg Symbol';">
	<!ENTITY st12 "font-size:6px;font-family:'Svg Symbol';">
	<!ENTITY st13 "fill:none;stroke:#ff0000;stroke-linecap:round;stroke-linejoin:round;">
	<!-- Yellow fill  -->
	<!ENTITY st14 "fill:#FFFF00;stroke:#FFFF00; stroke-width:0.1;stroke-linecap:round;stroke-linejoin:round;">
	<!ENTITY st15 "font-size:6px;font-family:'MS-PGothic';adobe-font-script:japanese;">
	<!ENTITY st16 "1.00 0.00 0.00 1.00">
	<!ENTITY st17 "0.00 -1.00 1.00 0.00">
	<!ENTITY st18 "font-size:6px;font-family:'Arial';">
	<!ENTITY st19 "font-size:9px;font-family:'Arial';">
	<!ENTITY st20 "font-size:6px;font-family:'MS-PGothic','MS PGothic';adobe-font-script:japanese;">
	<!ENTITY st21 "font-size:7px;font-family:'MS-PGothic','MS PGothic';adobe-font-script:japanese;">
	<!ATTLIST svg
		xmlns:ewd CDATA #FIXED "http://shcl.co.jp/ewd"
		xmlns:a CDATA #FIXED "http://ns.adobe.com/AdobeSVGViewerExtensions/3.0/"
		ewd:ver CDATA #IMPLIED
	>
	<!ATTLIST a
		ewd:lineID CDATA #IMPLIED
		ewd:groupID CDATA #IMPLIED
		ewd:figtype CDATA #IMPLIED
		ewd:code CDATA #IMPLIED
		ewd:figID CDATA #IMPLIED
		ewd:pinNo CDATA #IMPLIED
		ewd:comment CDATA #IMPLIED >
	<!ATTLIST g
		ewd:lineID CDATA #IMPLIED
		ewd:groupID CDATA #IMPLIED
		ewd:figtype CDATA #IMPLIED
		ewd:code CDATA #IMPLIED
		ewd:figID CDATA #IMPLIED
		ewd:pinNo CDATA #IMPLIED
		ewd:comment CDATA #IMPLIED >
	<!ATTLIST text
		ewd:textID CDATA #IMPLIED >
	<!ATTLIST title
		ewd:textID CDATA #IMPLIED >
]>
<!-- Generator: Shintec Hozumi YS   -->
<svg onload="call_execInitLoadProc_svg('system')" style="overflow:visible;  enable-background:new 0 0 7245.579 710.000" viewBox="0 0 7245.579 710.000" height="710.000" width="7245.579" xml:space="preserve" ewd:ver="2.3.1.16" xmlns="&ns_svg;" xmlns:a="http://ns.adobe.com/AdobeSVGViewerExtensions/3.0/" xmlns:ewd="http://shcl.co.jp/ewd" xmlns:xlink="&ns_xlink;">
<path style="stroke-width: 1.42 ;&st7;  " d=" M  4504.25,   426.71  L  4512.75,   426.71  " /><path style="stroke-width: 1.42 ;&st7;  " d=" M  4504.25,   384.22  L  4512.75,   384.22  " /><path style="stroke-width: 1.42 ;&st7;  " d=" M  4614.73,   384.22  L  4623.23,   384.22  " /><path style="stroke-width: 1.42 ;&st7;  " d=" M  4614.73,   426.71  L  4623.23,   426.71  " /><path style="stroke-width: 1.42 ;&st7;  " d=" M  4504.25,   469.21  L  4512.75,   469.21  " /><path style="stroke-width: 1.42 ;&st7;  " d=" M  4521.24,   618.65  L  4516.27,   613.68  " /><path style="stroke-width: 1.42 ;&st7;  " d=" M  4504.25,   625.71  L  4509.22,   630.68  " /><path style="stroke-width: 1.42 ;&st7;  " d=" M  4516.27,   630.68  L  4521.24,   625.71  " /><path style="stroke-width: 1.42 ;&st7;  " d=" M  4509.22,   613.68  L  4504.25,   618.65  " /><text style="&st18;" transform="matrix(&st17;  4509.05  661.9 )">W-B</text><text style="&st18;" transform="matrix(&st17;  4520.38  660.73 )">(*3)</text><text style="&st18;" transform="matrix(&st17;  4509.05  576.91 )">W-B</text><text style="&st18;" transform="matrix(&st17;  4509.05  499.61 )">B-R</text><text style="&st18;" transform="matrix(&st17;  4520.38  499.26 )">(*3)</text><text style="&st18;" transform="matrix(&st17;  4509.05  363.63 )">B-R</text><text style="&st18;" transform="matrix(&st17;  4509.05  410.37 )">B-R</text><text style="&st18;" transform="matrix(&st17;  4520.38  363.28 )">(*3)</text><text style="&st18;" transform="matrix(&st17;  4520.38  410.03 )">(*3)</text><text style="&st18;" transform="matrix(&st17;  4509.05  452.87 )">B-R</text><text style="&st18;" transform="matrix(&st17;  4520.38  452.52 )">(*3)</text><text style="&st18;" transform="matrix(&st17;  4619.53  361.42 )">W</text><text style="&st18;" transform="matrix(&st17;  4619.53  408.16 )">W</text><text style="&st18;" transform="matrix(&st17;  4630.86  363.28 )">(*3)</text><text style="&st18;" transform="matrix(&st17;  4630.86  410.03 )">(*3)</text><text style="&st18;" transform="matrix(&st17;  4619.53  450.66 )">W</text><text style="&st18;" transform="matrix(&st17;  4630.86  452.52 )">(*3)</text><text style="&st18;" transform="matrix(&st17;  4619.53  657.65 )">W-B</text><text style="&st18;" transform="matrix(&st17;  4630.86  656.48 )">(*3)</text><text style="&st18;" transform="matrix(&st16;  4883.28  117.07 )" ewd:textID="37">Combination Meter Assembly</text><text style="&st18;" transform="matrix(&st17;  4619.53  551.42 )">W-B</text><text style="&st18;" transform="matrix(&st17;  4630.86  550.25 )">(*3)</text><text style="&st18;" transform="matrix(&st17;  4520.38  575.75 )">(*3)</text><text style="&st18;" transform="matrix(&st16;  4883.27  110.24 )">L25(A),L26(B)</text><text style="&st18;" transform="matrix(&st16;  4684.49  26.42 )">(*13)</text><text style="&st18;" transform="matrix(&st16;  4686.04  15.09 )">B-Y</text><text style="&st18;" transform="matrix(&st16;  4633.5  26.42 )">(*13)</text><text style="&st18;" transform="matrix(&st16;  4635.05  15.09 )">B-Y</text><text style="&st18;" transform="matrix(&st17;  4755.51  360.49 )">P</text><text style="&st18;" transform="matrix(&st17;  4848.99  363.63 )">B-R</text><g ewd:figtype="conn" ewd:figID="12" ewd:code="C71"><g ewd:lineID="155"><text style="&st18;" transform="matrix(&st16;  4506.41  562.39 )">2</text><text style="&st18;" transform="matrix(&st16;  4510.48  550.5 )">E</text></g><g ewd:lineID="156"><text style="&st18;" transform="matrix(&st16;  4506.41  516.51 )">1</text><text style="&st18;" transform="matrix(&st16;  4507.18  527.83 )">LVL</text></g><g ewd:figtype="title"><text style="&st18;" transform="matrix(&st17;  4537.64  557.09 )">C71</text><text style="&st18;" transform="matrix(&st17;  4544.46  557.1 )" ewd:textID="45">Engine Oil <tspan x="0 " dy="6.0">Level Sensor</tspan></text></g></g><g ewd:figtype="conn" ewd:figID="15" ewd:code="A8"><path style="stroke-width: 1.42 ;&st7;  " d=" M  4606.23,   520.20  L  4640.22,   520.20  L  4640.22,   486.20  L  4606.23,   486.20  L  4606.23,   520.20  " /><g ewd:lineID="161"><text style="&st18;" transform="matrix(&st16;  4616.89  528.39 )">2</text><text style="&st18;" transform="matrix(&st16;  4620.96  516.5 )">E</text></g><g ewd:lineID="162"><text style="&st18;" transform="matrix(&st16;  4616.89  482.51 )">1</text><text style="&st18;" transform="matrix(&st16;  4614.8  493.84 )">FCHK</text></g><g ewd:figtype="title"><text style="&st18;" transform="matrix(&st17;  4654.94  523.1 )" ewd:textID="62">Fuel Filter Vacuum Sensor</text><text style="&st18;" transform="matrix(&st17;  4648.12  523.1 )">A8</text></g></g><g ewd:figtype="conn" ewd:figID="26" ewd:code="A23"><path style="stroke-width: 1.42 ;&st7;  " d=" M  4614.73,   596.69  L  4631.72,   596.69  L  4631.72,   613.68  L  4614.73,   613.68  L  4614.73,   596.69  " /><path style="stroke-width: 0.85 ;&st7;  " d=" M  4623.23,   596.69  L  4623.23,   613.68  " /><text style="&st18;" transform="matrix(&st16;  4613.75  620.18 )">1</text><path style="stroke-width: 1.42 ;&st7;   " d=" M  4627.76,   618.22  C  4627.76    615.71   4625.73    613.68   4623.23    613.68  " /><path style="stroke-width: 1.42 ;&st7;   " d=" M  4623.23,   613.68  C  4620.72    613.68   4618.69    615.71   4618.69    618.22  " /><path style="stroke-width: 1.42 ;&st7;   " d=" M  4618.69,   618.22  C  4618.69    620.72   4620.72    622.75   4623.23    622.75  " /><path style="stroke-width: 1.42 ;&st7;   " d=" M  4623.23,   622.75  C  4625.73    622.75   4627.76    620.72   4627.76    618.22  " /><text style="&st18;" transform="matrix(&st16;  4620.96  620.18 )">A</text><text style="&st18;" transform="matrix(&st16;  4613.75  594.12 )">6</text><path style="stroke-width: 1.42 ;&st7;   " d=" M  4627.76,   592.15  C  4627.76    589.65   4625.73    587.62   4623.23    587.62  " /><path style="stroke-width: 1.42 ;&st7;   " d=" M  4623.23,   587.62  C  4620.72    587.62   4618.69    589.65   4618.69    592.15  " /><path style="stroke-width: 1.42 ;&st7;   " d=" M  4618.69,   592.15  C  4618.69    594.66   4620.72    596.69   4623.23    596.69  " /><path style="stroke-width: 1.42 ;&st7;   " d=" M  4623.23,   596.69  C  4625.73    596.69   4627.76    594.66   4627.76    592.15  " /><text style="&st18;" transform="matrix(&st16;  4620.96  594.12 )">A</text><g ewd:figtype="title"><text style="&st18;" transform="matrix(&st17;  4646.44  616.59 )" ewd:textID="75">No. 2 Junction <tspan x="0 " dy="6.0">Connector</tspan></text><text style="&st18;" transform="matrix(&st17;  4639.62  616.58 )">A23(A)</text></g></g><g ewd:figtype="w2w" ewd:figID="152" ewd:code="AI2"><path style="stroke-width: 1.42 ;&st7;  " d=" M  4627.47,   421.05  L  4623.23,   425.30  L  4618.98,   421.05  " /><path style="stroke-width: 1.42 ;&st7;  " d=" M  4618.98,   417.65  L  4623.23,   421.90  L  4627.47,   417.65  " /><text style="&st18;" transform="matrix(&st16;  4609.81  432.93 )">8</text></g><g ewd:figtype="w2w" ewd:figID="153" ewd:code="IL1"><path style="stroke-width: 1.42 ;&st7;  " d=" M  4627.47,   378.56  L  4623.23,   382.80  L  4618.98,   378.56  " /><path style="stroke-width: 1.42 ;&st7;  " d=" M  4618.98,   375.16  L  4623.23,   379.41  L  4627.47,   375.16  " /><text style="&st18;" transform="matrix(&st16;  4606.47  390.44 )">35</text></g><g ewd:figtype="gp" ewd:figID="180" ewd:code="CE"><path style="stroke-width: 0.85 ;&st7;  " d=" M  4512.74,   697.25  L  4512.74,   701.50  " /><path style="stroke-width: 0.85 ;&st7;  " d=" M  4504.25,   701.50  L  4521.24,   701.50  " /><path style="stroke-width: 0.85 ;&st7;  " d=" M  4508.49,   704.33  L  4516.99,   704.33  " /><path style="stroke-width: 0.85 ;&st7;  " d=" M  4509.91,   707.17  L  4515.58,   707.17  " /><path style="stroke-width: 0.85 ;&st7;  " d=" M  4511.33,   710.00  L  4514.16,   710.00  " /></g><g ewd:figtype="gp" ewd:figID="181" ewd:code="AA"><path style="stroke-width: 0.85 ;&st7;  " d=" M  4623.23,   697.25  L  4623.23,   701.50  " /><path style="stroke-width: 0.85 ;&st7;  " d=" M  4614.73,   701.50  L  4631.72,   701.50  " /><path style="stroke-width: 0.85 ;&st7;  " d=" M  4618.98,   704.33  L  4627.47,   704.33  " /><path style="stroke-width: 0.85 ;&st7;  " d=" M  4620.39,   707.17  L  4626.06,   707.17  " /><path style="stroke-width: 0.85 ;&st7;  " d=" M  4621.81,   710.00  L  4624.64,   710.00  " /></g><g ewd:figtype="annex" ewd:figID="56" ewd:code=" "><path style="stroke-width: 1.42 ;&st7;  " d=" M  4759.20,   384.22  L  4754.15,   372.86  " /><path style="stroke-width: 1.42 ;&st7;  " d=" M  4759.20,   384.22  L  4764.26,   372.86  " /><text style="&st18;" transform="matrix(&st17;  4752.26  451.39 )" ewd:textID="56">Front Seat Inner <tspan x="0 " dy="6.0">Belt Assembly LH (LHD)</tspan></text><text style="&st18;" transform="matrix(&st17;  4764.16  453.41 )" ewd:textID="57">Front Seat Inner <tspan x="0 " dy="6.0">Belt Assembly RH (RHD)</tspan></text></g><g ewd:figtype="annex" ewd:figID="57" ewd:code=" "><path style="stroke-width: 1.42 ;&st7;  " d=" M  4852.69,   384.22  L  4857.75,   372.86  " /><path style="stroke-width: 1.42 ;&st7;  " d=" M  4852.69,   384.22  L  4847.63,   372.86  " /><text style="&st18;" transform="matrix(&st17;  4851.84  433.01 )" ewd:textID="121">Un-Lock Warning <tspan x="0 " dy="6.0">Switch Assembly</tspan></text></g><g ewd:code="24" ewd:figID="319" ewd:comment="" ewd:figtype="comment"><text style="&st18;" transform="matrix(&st16;  4696.31  97.24 )" ewd:textID="22">*24 :1GR-FE w/ Oil Pressure Gage</text></g><g ewd:code="6" ewd:figID="272" ewd:comment="" ewd:figtype="comment"><text style="&st18;" transform="matrix(&st16;  4696.31  71.74 )" ewd:textID="8">* 6 :1HZ 12V Battery Type</text></g><g ewd:code="3" ewd:figID="269" ewd:comment="" ewd:figtype="comment"><text style="&st18;" transform="matrix(&st16;  4696.31  63.24 )">* 3 :1VD-FTV</text></g><g ewd:code="13" ewd:figID="271" ewd:comment="" ewd:figtype="comment"><text style="&st18;" transform="matrix(&st16;  4696.31  88.74 )" ewd:textID="15">*13 :w/o SRS</text></g><g ewd:code="7" ewd:figID="273" ewd:comment="" ewd:figtype="comment"><text style="&st18;" transform="matrix(&st16;  4696.31  80.24 )" ewd:textID="9">* 7 :1HZ 24V Battery Type</text></g><g ewd:code="2" ewd:figID="267" ewd:comment="" ewd:figtype="comment"><text style="&st18;" transform="matrix(&st16;  4696.31  54.75 )">* 2 :1HZ</text></g></svg>