<?xml version="1.0" encoding="utf-8"?>
<!DOCTYPE svg PUBLIC "-//W3C//DTD SVG 1.0//EN" "http://www.w3.org/TR/2001/REC-SVG-20010904/DTD/svg10.dtd"[
	<!ENTITY ns_flows "http://ns.adobe.com/Flows/1.0/">
	<!ENTITY ns_svg "http://www.w3.org/2000/svg">
	<!ENTITY ns_xlink "http://www.w3.org/1999/xlink">
	<!ENTITY st0 "font-size:7px;font-family:'MS-PGothic';adobe-font-script:japanese;">
	<!ENTITY st1 "font-size:6px;font-family:'ArialMT';">
	<!-- White fill  -->
	<!ENTITY st2 "fill:#FFFFFF;stroke:#000000; stroke-width:1.41;stroke-linecap:round;stroke-linejoin:round;">
	<!-- Yellow fill  -->
	<!ENTITY st3 "fill:#FFFFCC;stroke:#FFFFCC; stroke-width:0.1;stroke-linecap:round;stroke-linejoin:round;">
	<!-- Gray fill  -->
	<!ENTITY st4 "fill:#CCCCCC;stroke:#CCCCCC; stroke-width:0.1;stroke-linecap:round;stroke-linejoin:round;">
	<!-- Light-blue fill -->
	<!ENTITY st5 "fill:#CCECF4;stroke:#000000; stroke-width:1.133;stroke-linecap:round;stroke-linejoin:round;">
	<!ENTITY st6 "fill:none;stroke-linecap:butt; stroke-linejoin:round;">
	<!ENTITY st7 "fill:none;stroke:#000000;stroke-linecap:round;stroke-linejoin:round;">
	<!ENTITY st8 "enable-background:new    ;">
	<!-- Black fill -->
	<!ENTITY st9 "fill:#000000;stroke:#000000; stroke-linecap:round;stroke-linejoin:round;">
	<!-- SRS note   -->
	<!ENTITY st10 "font-size:9px;font-family:'ArialMT';">
	<!ENTITY st11 "font-size:9px;font-family:'Svg Symbol';">
	<!ENTITY st12 "font-size:6px;font-family:'Svg Symbol';">
	<!ENTITY st13 "fill:none;stroke:#ff0000;stroke-linecap:round;stroke-linejoin:round;">
	<!-- Yellow fill  -->
	<!ENTITY st14 "fill:#FFFF00;stroke:#FFFF00; stroke-width:0.1;stroke-linecap:round;stroke-linejoin:round;">
	<!ENTITY st15 "font-size:6px;font-family:'MS-PGothic';adobe-font-script:japanese;">
	<!ENTITY st16 "1.00 0.00 0.00 1.00">
	<!ENTITY st17 "0.00 -1.00 1.00 0.00">
	<!ENTITY st18 "font-size:6px;font-family:'Arial';">
	<!ENTITY st19 "font-size:9px;font-family:'Arial';">
	<!ENTITY st20 "font-size:6px;font-family:'MS-PGothic','MS PGothic';adobe-font-script:japanese;">
	<!ENTITY st21 "font-size:7px;font-family:'MS-PGothic','MS PGothic';adobe-font-script:japanese;">
	<!ATTLIST svg
		xmlns:ewd CDATA #FIXED "http://shcl.co.jp/ewd"
		xmlns:a CDATA #FIXED "http://ns.adobe.com/AdobeSVGViewerExtensions/3.0/"
		ewd:ver CDATA #IMPLIED
	>
	<!ATTLIST a
		ewd:lineID CDATA #IMPLIED
		ewd:groupID CDATA #IMPLIED
		ewd:figtype CDATA #IMPLIED
		ewd:code CDATA #IMPLIED
		ewd:figID CDATA #IMPLIED
		ewd:pinNo CDATA #IMPLIED
		ewd:comment CDATA #IMPLIED >
	<!ATTLIST g
		ewd:lineID CDATA #IMPLIED
		ewd:groupID CDATA #IMPLIED
		ewd:figtype CDATA #IMPLIED
		ewd:code CDATA #IMPLIED
		ewd:figID CDATA #IMPLIED
		ewd:pinNo CDATA #IMPLIED
		ewd:comment CDATA #IMPLIED >
	<!ATTLIST text
		ewd:textID CDATA #IMPLIED >
	<!ATTLIST title
		ewd:textID CDATA #IMPLIED >
]>
<!-- Generator: Shintec Hozumi YS   -->
<svg onload="call_execInitLoadProc_svg('system')" style="overflow:visible;  enable-background:new 0 0 10828.460 710.000" viewBox="0 0 10828.460 710.000" height="710.000" width="10828.460" xml:space="preserve" ewd:ver="2.3.1.16" xmlns="&ns_svg;" xmlns:a="http://ns.adobe.com/AdobeSVGViewerExtensions/3.0/" xmlns:ewd="http://shcl.co.jp/ewd" xmlns:xlink="&ns_xlink;">
<text style="&st18;" transform="matrix(&st16;  479.36  663.81 )">(*5)</text><text style="&st18;" transform="matrix(&st16;  482.0  652.48 )">R</text><path style="stroke-width: 1.42 ;&st7;  " d=" M    59.49,   358.73  L    67.99,   358.73  " /><path style="stroke-width: 1.42 ;&st7;  " d=" M    76.49,   486.20  L    67.99,   486.20  " /><path style="stroke-width: 1.42 ;&st7;  " d=" M   212.46,   307.73  L   203.97,   307.73  " /><text style="&st18;" transform="matrix(&st17;  106.79  615.6 )">R</text><text style="&st18;" transform="matrix(&st17;  118.12  618.24 )">(*5)</text><text style="&st18;" transform="matrix(&st17;  75.63  179.99 )">(LHD *5 *60)</text><text style="&st18;" transform="matrix(&st17;  64.29  167.93 )">B-Y</text><text style="&st18;" transform="matrix(&st17;  75.62  411.69 )">(*53)</text><text style="&st18;" transform="matrix(&st17;  64.29  410.14 )">B-Y</text><text style="&st18;" transform="matrix(&st17;  75.62  516.26 )">(*5)</text><text style="&st18;" transform="matrix(&st17;  64.29  516.37 )">B-Y</text><text style="&st18;" transform="matrix(&st17;  75.62  618.24 )">(*5)</text><text style="&st18;" transform="matrix(&st17;  64.29  617.62 )">BR</text><text style="&st18;" transform="matrix(&st17;  438.23  150.94 )">B-Y</text><text style="&st18;" transform="matrix(&st17;  109.62  436.62 )">(*52 *6)</text><text style="&st18;" transform="matrix(&st17;  64.29  303.91 )">B-Y</text><text style="&st18;" transform="matrix(&st17;  75.63  315.97 )">(LHD *5 *60)</text><text style="&st18;" transform="matrix(&st17;  115.28  167.93 )">B-Y</text><text style="&st18;" transform="matrix(&st17;  126.62  180.5 )">(RHD *5 *60)</text><text style="&st18;" transform="matrix(&st17;  115.28  303.91 )">B-Y</text><text style="&st18;" transform="matrix(&st17;  126.62  316.47 )">(RHD *5 *60)</text><text style="&st18;" transform="matrix(&st17;  98.29  431.39 )">B-Y</text><text style="&st18;" transform="matrix(&st17;  64.29  668.61 )">BR</text><text style="&st18;" transform="matrix(&st17;  75.62  669.23 )">(*5)</text><text style="&st18;" transform="matrix(&st17;  200.27  241.67 )">R</text><text style="&st18;" transform="matrix(&st17;  200.27  335.15 )">R</text><text style="&st18;" transform="matrix(&st17;  200.27  148.18 )">R</text><path style="stroke-width: 1.42 ;&st7;  " d=" M    76.49,   635.65  L    71.52,   630.68  " /><path style="stroke-width: 1.42 ;&st7;  " d=" M    59.49,   642.71  L    64.46,   647.68  " /><path style="stroke-width: 1.42 ;&st7;  " d=" M    71.52,   647.68  L    76.49,   642.71  " /><path style="stroke-width: 1.42 ;&st7;  " d=" M    64.46,   630.68  L    59.49,   635.65  " /><path style="stroke-width: 1.42 ;&st7;  " d=" M    76.49,   423.19  L    71.52,   418.22  " /><path style="stroke-width: 1.42 ;&st7;  " d=" M    59.49,   430.24  L    64.46,   435.21  " /><path style="stroke-width: 1.42 ;&st7;  " d=" M    71.52,   435.21  L    76.49,   430.24  " /><path style="stroke-width: 1.42 ;&st7;  " d=" M    64.46,   418.22  L    59.49,   423.19  " /><path style="stroke-width: 1.42 ;&st7;  " d=" M    76.49,   227.72  L    71.52,   222.75  " /><path style="stroke-width: 1.42 ;&st7;  " d=" M    59.49,   234.78  L    64.46,   239.75  " /><path style="stroke-width: 1.42 ;&st7;  " d=" M    71.52,   239.75  L    76.49,   234.78  " /><path style="stroke-width: 1.42 ;&st7;  " d=" M    64.46,   222.75  L    59.49,   227.72  " /><path style="stroke-width: 1.42 ;&st7;  " d=" M   212.46,   193.73  L   207.49,   188.75  " /><path style="stroke-width: 1.42 ;&st7;  " d=" M   195.47,   200.78  L   200.44,   205.75  " /><path style="stroke-width: 1.42 ;&st7;  " d=" M   207.49,   205.75  L   212.46,   200.78  " /><path style="stroke-width: 1.42 ;&st7;  " d=" M   200.44,   188.75  L   195.47,   193.73  " /><path style="stroke-width: 1.42 ;&st7;  " d=" M   271.95,   307.73  L   263.46,   307.73  " /><path style="stroke-width: 1.42 ;&st7;  " d=" M   271.95,   214.25  L   263.46,   214.25  " /><text style="&st18;" transform="matrix(&st17;  259.76  148.34 )">G</text><text style="&st18;" transform="matrix(&st17;  259.76  335.31 )">G</text><text style="&st18;" transform="matrix(&st17;  259.76  241.82 )">G</text><text style="&st18;" transform="matrix(&st16;  481.84  609.99 )">G</text><path style="stroke-width: 0.85 ;&st7; stroke-dasharray:3, 1.5;" d=" M   216.40,   294.99  L   246.77,   294.99  " /><path style="stroke-width: 0.85 ;&st7; stroke-dasharray:3, 1.5;" d=" M   216.40,   303.48  L   246.77,   303.48  " /><text style="&st18;" transform="matrix(&st16;  482.0  635.48 )">R</text><text style="&st18;" transform="matrix(&st17;  271.09  152.49 )">(*17)</text><text style="&st18;" transform="matrix(&st17;  271.09  245.97 )">(*17)</text><text style="&st18;" transform="matrix(&st17;  271.09  339.46 )">(*17)</text><text style="&st18;" transform="matrix(&st16;  477.69  621.32 )">(*17)</text><text style="&st18;" transform="matrix(&st17;  75.62  454.19 )">(*53)</text><text style="&st18;" transform="matrix(&st17;  64.29  452.64 )">B-Y</text><text style="&st18;" transform="matrix(&st17;  30.3  167.51 )">GR</text><text style="&st18;" transform="matrix(&st17;  41.63  179.99 )">(LHD *5 *61)</text><text style="&st18;" transform="matrix(&st17;  30.3  303.48 )">GR</text><text style="&st18;" transform="matrix(&st17;  41.63  315.97 )">(LHD *5 *61)</text><text style="&st18;" transform="matrix(&st17;  140.78  167.51 )">GR</text><text style="&st18;" transform="matrix(&st17;  152.11  180.5 )">(RHD *5 *61)</text><text style="&st18;" transform="matrix(&st17;  140.78  303.48 )">GR</text><text style="&st18;" transform="matrix(&st17;  152.11  316.47 )">(RHD *5 *61)</text><text style="&st18;" transform="matrix(&st17;  424.07  152.49 )">(*61)</text><text style="&st18;" transform="matrix(&st17;  412.73  148.03 )">V</text><text style="&st18;" transform="matrix(&st17;  449.56  152.49 )">(*60)</text><text style="&st18;" transform="matrix(&st16;  472.77  312.54 )">B-Y(*60)</text><text style="&st18;" transform="matrix(&st16;  475.68  329.53 )">V(*61)</text><g ewd:figtype="rb" ewd:figID="8" ewd:code="FUSE54"><path style="stroke-width: 0.85 ;&st7;  " d=" M   263.46,    78.27  L   263.46,    95.27  " /><path style="stroke-width: 1.42 ;&st7;  " d=" M   265.58,   103.77  L   261.33,   103.77  " /><path style="stroke-width: 1.42 ;&st7;  " d=" M   265.58,    95.27  L   261.33,    95.27  " /><path style="stroke-width: 1.42 ;&st7;   " d=" M   269.83,    99.52  C   269.83     97.17    267.93     95.27    265.58     95.27  " /><path style="stroke-width: 1.42 ;&st7;   " d=" M   265.58,   103.77  C   267.93    103.77    269.83    101.87    269.83     99.52  " /><path style="stroke-width: 1.42 ;&st7;   " d=" M   257.08,    99.52  C   257.08    101.87    258.98    103.77    261.33    103.77  " /><path style="stroke-width: 1.42 ;&st7;   " d=" M   261.33,    95.27  C   258.98     95.27    257.08     97.17    257.08     99.52  " /><path style="stroke-width: 0.28 ;&st9;  " d=" M   263.46,    90.37  L   260.62,    87.54  L   260.62,    91.79  L   263.46,    94.62  L   266.29,    91.79  L   266.29,    87.54  L   263.46,    90.37  " /><text style="&st18;" transform="matrix(&st16;  255.37  32.08 )">(BAT)</text><text style="&st18;" transform="matrix(&st16;  257.12  86.47 )">2</text><text style="&st18;" transform="matrix(&st16;  261.58  101.49 )">4</text><text style="&st18;" transform="matrix(&st16;  279.88  56.17 )">15A <tspan x="0 " dy="6.0">TURN&amp;HAZ</tspan></text><path style="stroke-width: 0.85 ;&st7;  " d=" M   263.46,    69.77  L   263.46,    78.27  " /><path style="stroke-width: 0.85 ;&st7;   " d=" M   264.87,    68.36  C   264.87     67.57    264.24     66.94    263.46     66.94  " /><path style="stroke-width: 0.85 ;&st7;   " d=" M   263.46,    66.94  C   262.67     66.94    262.04     67.57    262.04     68.36  " /><path style="stroke-width: 0.85 ;&st7;   " d=" M   262.04,    68.36  C   262.04     69.14    262.67     69.77    263.46     69.77  " /><path style="stroke-width: 0.85 ;&st7;   " d=" M   263.46,    69.77  C   264.24     69.77    264.87     69.14    264.87     68.36  " /><path style="stroke-width: 0.85 ;&st7;   " d=" M   264.87,    45.69  C   264.87     44.91    264.24     44.28    263.46     44.28  " /><path style="stroke-width: 0.85 ;&st7;   " d=" M   263.46,    44.28  C   262.67     44.28    262.04     44.91    262.04     45.69  " /><path style="stroke-width: 0.85 ;&st7;   " d=" M   262.04,    45.69  C   262.04     46.48    262.67     47.11    263.46     47.11  " /><path style="stroke-width: 0.85 ;&st7;   " d=" M   263.46,    47.11  C   264.24     47.11    264.87     46.48    264.87     45.69  " /><path style="stroke-width: 1.42 ;&st7;   " d=" M   263.46,    66.94  C   266.19     65.33    267.11     61.80    265.49     59.06  " /><path style="stroke-width: 1.42 ;&st7;   " d=" M   265.49,    59.06  C   264.97     58.18    264.34     57.55    263.46     57.03  " /><path style="stroke-width: 1.42 ;&st7;   " d=" M   263.46,    47.11  C   260.72     48.72    259.81     52.25    261.42     54.99  " /><path style="stroke-width: 1.42 ;&st7;   " d=" M   261.42,    54.99  C   261.94     55.87    262.57     56.51    263.46     57.03  " /><path style="stroke-width: 1.42 ;&st7;  " d=" M   250.71,    35.78  L   250.71,    78.27  L   276.20,    78.27  L   276.20,    35.78  L   250.71,    35.78  " /></g><g ewd:code="I105" ewd:figID="10" ewd:comment="6,7" ewd:figtype="conn"><path style="stroke-width: 0.85 ;&st7;  " d=" M   118.98,   222.75  L   118.98,   239.75  " /><path style="stroke-width: 1.42 ;&st7;  " d=" M   110.48,   222.75  L   127.48,   222.75  L   127.48,   239.75  L   110.48,   239.75  L   110.48,   222.75  " /><text style="&st18;" transform="matrix(&st16;  109.5  246.25 )">4</text><text style="&st18;" transform="matrix(&st16;  109.5  255.31 )">2</text><path style="stroke-width: 1.42 ;&st7;   " d=" M   123.51,   244.28  C   123.51    241.77    121.48    239.75    118.98    239.75  " /><path style="stroke-width: 1.42 ;&st7;   " d=" M   118.98,   239.75  C   116.48    239.75    114.45    241.77    114.45    244.28  " /><path style="stroke-width: 1.42 ;&st7;   " d=" M   114.45,   244.28  C   114.45    246.78    116.48    248.81    118.98    248.81  " /><path style="stroke-width: 1.42 ;&st7;   " d=" M   118.98,   248.81  C   121.48    248.81    123.51    246.78    123.51    244.28  " /><path style="stroke-width: 1.42 ;&st7;   " d=" M   123.51,   253.34  C   123.51    250.84    121.48    248.81    118.98    248.81  " /><path style="stroke-width: 1.42 ;&st7;   " d=" M   118.98,   248.81  C   116.48    248.81    114.45    250.84    114.45    253.34  " /><path style="stroke-width: 1.42 ;&st7;   " d=" M   114.45,   253.34  C   114.45    255.85    116.48    257.88    118.98    257.88  " /><path style="stroke-width: 1.42 ;&st7;   " d=" M   118.98,   257.88  C   121.48    257.88    123.51    255.85    123.51    253.34  " /><text style="&st18;" transform="matrix(&st16;  116.71  246.25 )">A</text><text style="&st18;" transform="matrix(&st16;  116.71  255.31 )">A</text><text style="&st18;" transform="matrix(&st16;  109.5  211.12 )">9</text><text style="&st18;" transform="matrix(&st16;  109.5  220.18 )">1</text><path style="stroke-width: 1.42 ;&st7;   " d=" M   123.51,   209.15  C   123.51    206.65    121.48    204.62    118.98    204.62  " /><path style="stroke-width: 1.42 ;&st7;   " d=" M   118.98,   204.62  C   116.48    204.62    114.45    206.65    114.45    209.15  " /><path style="stroke-width: 1.42 ;&st7;   " d=" M   114.45,   209.15  C   114.45    211.65    116.48    213.68    118.98    213.68  " /><path style="stroke-width: 1.42 ;&st7;   " d=" M   118.98,   213.68  C   121.48    213.68    123.51    211.65    123.51    209.15  " /><path style="stroke-width: 1.42 ;&st7;   " d=" M   123.51,   218.22  C   123.51    215.71    121.48    213.68    118.98    213.68  " /><path style="stroke-width: 1.42 ;&st7;   " d=" M   118.98,   213.68  C   116.48    213.68    114.45    215.71    114.45    218.22  " /><path style="stroke-width: 1.42 ;&st7;   " d=" M   114.45,   218.22  C   114.45    220.72    116.48    222.75    118.98    222.75  " /><path style="stroke-width: 1.42 ;&st7;   " d=" M   118.98,   222.75  C   121.48    222.75    123.51    220.72    123.51    218.22  " /><text style="&st18;" transform="matrix(&st16;  116.71  220.18 )">A</text><text style="&st18;" transform="matrix(&st16;  116.71  211.12 )">A</text><g ewd:figtype="title"><text style="&st18;" transform="matrix(&st17;  100.84  242.65 )" ewd:textID="124">No. 8 Junction <tspan x="0 " dy="6.0">Connector</tspan></text><text style="&st18;" transform="matrix(&st17;  94.01  242.64 )">I105(A)</text></g><g ewd:code="" ewd:figID="325" ewd:comment="7" ewd:figtype="commref"><text style="&st18;" transform="matrix(&st16;  124.07  220.18 )">(*7)</text></g><g ewd:code="" ewd:figID="326" ewd:comment="6" ewd:figtype="commref"><text style="&st18;" transform="matrix(&st16;  124.07  211.12 )">(*6)</text></g><g ewd:code="" ewd:figID="327" ewd:comment="6" ewd:figtype="commref"><text style="&st18;" transform="matrix(&st16;  124.07  246.25 )">(*6)</text></g><g ewd:code="" ewd:figID="328" ewd:comment="7" ewd:figtype="commref"><text style="&st18;" transform="matrix(&st16;  124.07  255.31 )">(*7)</text></g></g><g ewd:figtype="rb" ewd:figID="11" ewd:code="FUSE23"><path style="stroke-width: 1.42 ;&st7;  " d=" M    70.11,    95.27  L    65.86,    95.27  " /><path style="stroke-width: 1.42 ;&st7;  " d=" M    70.11,   103.77  L    65.86,   103.77  " /><path style="stroke-width: 0.85 ;&st7;  " d=" M    67.99,    78.27  L    67.99,    95.27  " /><path style="stroke-width: 1.42 ;&st7;   " d=" M    65.86,    95.27  C    63.52     95.27     61.61     97.17     61.61     99.52  " /><path style="stroke-width: 1.42 ;&st7;   " d=" M    61.61,    99.52  C    61.61    101.87     63.52    103.77     65.86    103.77  " /><path style="stroke-width: 1.42 ;&st7;   " d=" M    70.11,   103.77  C    72.46    103.77     74.36    101.87     74.36     99.52  " /><path style="stroke-width: 1.42 ;&st7;   " d=" M    74.36,    99.52  C    74.36     97.17     72.46     95.27     70.11     95.27  " /><path style="stroke-width: 0.28 ;&st9;  " d=" M    67.99,    90.37  L    65.16,    87.54  L    65.16,    91.79  L    67.99,    94.62  L    70.82,    91.79  L    70.82,    87.54  L    67.99,    90.37  " /><text style="&st18;" transform="matrix(&st16;  84.41  56.17 )">15A <tspan x="0 " dy="6.0">ECU IG</tspan></text><text style="&st18;" transform="matrix(&st16;  66.11  101.49 )">2</text><text style="&st18;" transform="matrix(&st16;  61.65  86.47 )">2</text><text style="&st18;" transform="matrix(&st16;  62.62  32.08 )">(IG)</text><path style="stroke-width: 0.85 ;&st7;  " d=" M    67.99,    69.77  L    67.99,    78.27  " /><path style="stroke-width: 1.42 ;&st7;   " d=" M    67.99,    47.11  C    65.25     48.72     64.34     52.25     65.95     54.99  " /><path style="stroke-width: 1.42 ;&st7;   " d=" M    65.95,    54.99  C    66.47     55.87     67.11     56.51     67.99     57.03  " /><path style="stroke-width: 1.42 ;&st7;   " d=" M    67.99,    66.94  C    70.73     65.33     71.64     61.80     70.03     59.06  " /><path style="stroke-width: 1.42 ;&st7;   " d=" M    70.03,    59.06  C    69.51     58.18     68.87     57.55     67.99     57.03  " /><path style="stroke-width: 0.85 ;&st7;   " d=" M    69.41,    45.69  C    69.41     44.91     68.77     44.28     67.99     44.28  " /><path style="stroke-width: 0.85 ;&st7;   " d=" M    67.99,    44.28  C    67.21     44.28     66.57     44.91     66.57     45.69  " /><path style="stroke-width: 0.85 ;&st7;   " d=" M    66.57,    45.69  C    66.57     46.48     67.21     47.11     67.99     47.11  " /><path style="stroke-width: 0.85 ;&st7;   " d=" M    67.99,    47.11  C    68.77     47.11     69.41     46.48     69.41     45.69  " /><path style="stroke-width: 0.85 ;&st7;   " d=" M    69.41,    68.36  C    69.41     67.57     68.77     66.94     67.99     66.94  " /><path style="stroke-width: 0.85 ;&st7;   " d=" M    67.99,    66.94  C    67.21     66.94     66.57     67.57     66.57     68.36  " /><path style="stroke-width: 0.85 ;&st7;   " d=" M    66.57,    68.36  C    66.57     69.14     67.21     69.77     67.99     69.77  " /><path style="stroke-width: 0.85 ;&st7;   " d=" M    67.99,    69.77  C    68.77     69.77     69.41     69.14     69.41     68.36  " /><path style="stroke-width: 1.42 ;&st7;  " d=" M    55.24,    35.78  L    55.24,    78.27  L    80.74,    78.27  L    80.74,    35.78  L    55.24,    35.78  " /></g><g ewd:figtype="rb" ewd:figID="12" ewd:code="FUSE18"><path style="stroke-width: 1.42 ;&st7;  " d=" M   444.05,    95.27  L   439.80,    95.27  " /><path style="stroke-width: 1.42 ;&st7;  " d=" M   444.05,   103.77  L   439.80,   103.77  " /><path style="stroke-width: 0.85 ;&st7;  " d=" M   441.93,    78.27  L   441.93,    95.27  " /><path style="stroke-width: 1.42 ;&st7;   " d=" M   439.80,    95.27  C   437.45     95.27    435.55     97.17    435.55     99.52  " /><path style="stroke-width: 1.42 ;&st7;   " d=" M   435.55,    99.52  C   435.55    101.87    437.45    103.77    439.80    103.77  " /><path style="stroke-width: 1.42 ;&st7;   " d=" M   444.05,   103.77  C   446.40    103.77    448.30    101.87    448.30     99.52  " /><path style="stroke-width: 1.42 ;&st7;   " d=" M   448.30,    99.52  C   448.30     97.17    446.40     95.27    444.05     95.27  " /><path style="stroke-width: 0.28 ;&st9;  " d=" M   441.93,    90.37  L   439.09,    87.54  L   439.09,    91.79  L   441.93,    94.62  L   444.76,    91.79  L   444.76,    87.54  L   441.93,    90.37  " /><text style="&st18;" transform="matrix(&st16;  458.35  56.17 )">10A <tspan x="0 " dy="6.0">MET</tspan></text><text style="&st18;" transform="matrix(&st16;  440.05  101.49 )">2</text><text style="&st18;" transform="matrix(&st16;  435.59  86.47 )">2</text><text style="&st18;" transform="matrix(&st16;  436.56  32.08 )">(IG)</text><path style="stroke-width: 0.85 ;&st7;  " d=" M   441.93,    69.77  L   441.93,    78.27  " /><path style="stroke-width: 1.42 ;&st7;   " d=" M   441.93,    47.11  C   439.19     48.72    438.28     52.25    439.89     54.99  " /><path style="stroke-width: 1.42 ;&st7;   " d=" M   439.89,    54.99  C   440.41     55.87    441.04     56.51    441.93     57.03  " /><path style="stroke-width: 1.42 ;&st7;   " d=" M   441.93,    66.94  C   444.66     65.33    445.58     61.80    443.96     59.06  " /><path style="stroke-width: 1.42 ;&st7;   " d=" M   443.96,    59.06  C   443.44     58.18    442.81     57.55    441.93     57.03  " /><path style="stroke-width: 0.85 ;&st7;   " d=" M   443.34,    45.69  C   443.34     44.91    442.71     44.28    441.93     44.28  " /><path style="stroke-width: 0.85 ;&st7;   " d=" M   441.93,    44.28  C   441.14     44.28    440.51     44.91    440.51     45.69  " /><path style="stroke-width: 0.85 ;&st7;   " d=" M   440.51,    45.69  C   440.51     46.48    441.14     47.11    441.93     47.11  " /><path style="stroke-width: 0.85 ;&st7;   " d=" M   441.93,    47.11  C   442.71     47.11    443.34     46.48    443.34     45.69  " /><path style="stroke-width: 0.85 ;&st7;   " d=" M   443.34,    68.36  C   443.34     67.57    442.71     66.94    441.93     66.94  " /><path style="stroke-width: 0.85 ;&st7;   " d=" M   441.93,    66.94  C   441.14     66.94    440.51     67.57    440.51     68.36  " /><path style="stroke-width: 0.85 ;&st7;   " d=" M   440.51,    68.36  C   440.51     69.14    441.14     69.77    441.93     69.77  " /><path style="stroke-width: 0.85 ;&st7;   " d=" M   441.93,    69.77  C   442.71     69.77    443.34     69.14    443.34     68.36  " /><path style="stroke-width: 1.42 ;&st7;  " d=" M   429.18,    35.78  L   429.18,    78.27  L   454.67,    78.27  L   454.67,    35.78  L   429.18,    35.78  " /></g><g ewd:figtype="rb" ewd:figID="25" ewd:code="FUSE5"><path style="stroke-width: 1.42 ;&st7;  " d=" M   206.09,    95.27  L   201.84,    95.27  " /><path style="stroke-width: 1.42 ;&st7;  " d=" M   206.09,   103.77  L   201.84,   103.77  " /><path style="stroke-width: 0.85 ;&st7;  " d=" M   203.97,    78.27  L   203.97,    95.27  " /><path style="stroke-width: 1.42 ;&st7;   " d=" M   201.84,    95.27  C   199.49     95.27    197.59     97.17    197.59     99.52  " /><path style="stroke-width: 1.42 ;&st7;   " d=" M   197.59,    99.52  C   197.59    101.87    199.49    103.77    201.84    103.77  " /><path style="stroke-width: 1.42 ;&st7;   " d=" M   206.09,   103.77  C   208.44    103.77    210.34    101.87    210.34     99.52  " /><path style="stroke-width: 1.42 ;&st7;   " d=" M   210.34,    99.52  C   210.34     97.17    208.44     95.27    206.09     95.27  " /><path style="stroke-width: 0.28 ;&st9;  " d=" M   203.97,    90.37  L   201.13,    87.54  L   201.13,    91.79  L   203.97,    94.62  L   206.80,    91.79  L   206.80,    87.54  L   203.97,    90.37  " /><text style="&st18;" transform="matrix(&st16;  220.39  53.34 )">10A <tspan x="0 " dy="6.0">DOME </tspan><tspan x="0 " dy="6.0">NO.1</tspan></text><text style="&st18;" transform="matrix(&st16;  202.09  101.49 )">2</text><text style="&st18;" transform="matrix(&st16;  197.63  86.47 )">2</text><text style="&st18;" transform="matrix(&st16;  195.88  32.08 )">(BAT)</text><path style="stroke-width: 0.85 ;&st7;  " d=" M   203.97,    69.77  L   203.97,    78.27  " /><path style="stroke-width: 1.42 ;&st7;   " d=" M   203.97,    47.11  C   201.23     48.72    200.32     52.25    201.93     54.99  " /><path style="stroke-width: 1.42 ;&st7;   " d=" M   201.93,    54.99  C   202.45     55.87    203.08     56.51    203.97     57.03  " /><path style="stroke-width: 1.42 ;&st7;   " d=" M   203.97,    66.94  C   206.70     65.33    207.62     61.80    206.00     59.06  " /><path style="stroke-width: 1.42 ;&st7;   " d=" M   206.00,    59.06  C   205.48     58.18    204.85     57.55    203.97     57.03  " /><path style="stroke-width: 0.85 ;&st7;   " d=" M   205.38,    45.69  C   205.38     44.91    204.75     44.28    203.97     44.28  " /><path style="stroke-width: 0.85 ;&st7;   " d=" M   203.97,    44.28  C   203.18     44.28    202.55     44.91    202.55     45.69  " /><path style="stroke-width: 0.85 ;&st7;   " d=" M   202.55,    45.69  C   202.55     46.48    203.18     47.11    203.97     47.11  " /><path style="stroke-width: 0.85 ;&st7;   " d=" M   203.97,    47.11  C   204.75     47.11    205.38     46.48    205.38     45.69  " /><path style="stroke-width: 0.85 ;&st7;   " d=" M   205.38,    68.36  C   205.38     67.57    204.75     66.94    203.97     66.94  " /><path style="stroke-width: 0.85 ;&st7;   " d=" M   203.97,    66.94  C   203.18     66.94    202.55     67.57    202.55     68.36  " /><path style="stroke-width: 0.85 ;&st7;   " d=" M   202.55,    68.36  C   202.55     69.14    203.18     69.77    203.97     69.77  " /><path style="stroke-width: 0.85 ;&st7;   " d=" M   203.97,    69.77  C   204.75     69.77    205.38     69.14    205.38     68.36  " /><path style="stroke-width: 1.42 ;&st7;  " d=" M   191.22,    35.78  L   191.22,    78.27  L   216.71,    78.27  L   216.71,    35.78  L   191.22,    35.78  " /></g><g ewd:figtype="conn" ewd:figID="32" ewd:code="C83"><path style="stroke-width: 1.42 ;&st7;  " d=" M    42.49,   588.19  L   135.98,   588.19  L   135.98,   537.20  L    42.49,   537.20  L    42.49,   588.19  " /><text style="&st18;" transform="matrix(&st16;  106.04  584.49 )">NE</text><text style="&st18;" transform="matrix(&st16;  62.58  584.49 )">NE-</text><text style="&st18;" transform="matrix(&st16;  61.73  544.83 )">FCV</text><text style="&st18;" transform="matrix(&st16;  65.18  568.91 )" ewd:textID="97">Fuel Cut Solenoid</text><text style="&st18;" transform="matrix(&st16;  59.13  560.41 )" ewd:textID="71">Crank Position Sensor</text><text style="&st18;" transform="matrix(&st16;  101.0  594.69 )">1</text><text style="&st18;" transform="matrix(&st16;  108.22  594.69 )">A</text><path style="stroke-width: 1.42 ;&st7;   " d=" M   115.01,   592.72  C   115.01    590.22    112.98    588.19    110.48    588.19  " /><path style="stroke-width: 1.42 ;&st7;   " d=" M   110.48,   588.19  C   107.98    588.19    105.95    590.22    105.95    592.72  " /><path style="stroke-width: 1.42 ;&st7;   " d=" M   105.95,   592.72  C   105.95    595.22    107.98    597.25    110.48    597.25  " /><path style="stroke-width: 1.42 ;&st7;   " d=" M   110.48,   597.25  C   112.98    597.25    115.01    595.22    115.01    592.72  " /><text style="&st18;" transform="matrix(&st16;  58.51  594.69 )">2</text><text style="&st18;" transform="matrix(&st16;  65.72  594.69 )">A</text><path style="stroke-width: 1.42 ;&st7;   " d=" M    72.52,   592.72  C    72.52    590.22     70.49    588.19     67.99    588.19  " /><path style="stroke-width: 1.42 ;&st7;   " d=" M    67.99,   588.19  C    65.49    588.19     63.46    590.22     63.46    592.72  " /><path style="stroke-width: 1.42 ;&st7;   " d=" M    63.46,   592.72  C    63.46    595.22     65.49    597.25     67.99    597.25  " /><path style="stroke-width: 1.42 ;&st7;   " d=" M    67.99,   597.25  C    70.49    597.25     72.52    595.22     72.52    592.72  " /><text style="&st18;" transform="matrix(&st16;  58.51  534.63 )">3</text><path style="stroke-width: 1.42 ;&st7;   " d=" M    72.52,   532.66  C    72.52    530.16     70.49    528.13     67.99    528.13  " /><path style="stroke-width: 1.42 ;&st7;   " d=" M    67.99,   528.13  C    65.49    528.13     63.46    530.16     63.46    532.66  " /><path style="stroke-width: 1.42 ;&st7;   " d=" M    63.46,   532.66  C    63.46    535.17     65.49    537.20     67.99    537.20  " /><path style="stroke-width: 1.42 ;&st7;   " d=" M    67.99,   537.20  C    70.49    537.20     72.52    535.17     72.52    532.66  " /><text style="&st18;" transform="matrix(&st16;  65.72  534.63 )">A</text><g ewd:figtype="title"><text style="&st18;" transform="matrix(&st17;  143.87  591.09 )">C83(A)</text><text style="&st18;" transform="matrix(&st17;  150.7  591.09 )" ewd:textID="113">Injection or Supply <tspan x="0 " dy="6.0">Pump Assembly</tspan></text></g></g><g ewd:figtype="w2w" ewd:figID="68" ewd:code="AC2"><path style="stroke-width: 1.42 ;&st7;  " d=" M    72.24,   495.27  L    67.99,   491.02  L    63.74,   495.27  " /><path style="stroke-width: 1.42 ;&st7;  " d=" M    72.24,   491.87  L    67.99,   487.62  L    63.74,   491.87  " /><text style="&st18;" transform="matrix(&st16;  54.57  483.92 )">2</text></g><g ewd:figtype="w2w" ewd:figID="69" ewd:code="AI2"><text style="&st18;" transform="matrix(&st16;  54.57  373.44 )">5</text><g ewd:code="" ewd:figID="282" ewd:comment="" ewd:figtype="commref"><text style="&st18;" transform="matrix(&st16;  77.02  373.44 )">(RHD)</text></g></g><g ewd:figtype="w2w" ewd:figID="70" ewd:code="AI7"><path style="stroke-width: 1.42 ;&st7;  " d=" M    72.24,   353.06  L    67.99,   357.31  L    63.74,   353.06  " /><path style="stroke-width: 1.42 ;&st7;  " d=" M    63.74,   349.66  L    67.99,   353.91  L    72.24,   349.66  " /><text style="&st18;" transform="matrix(&st16;  54.57  364.94 )">5</text><g ewd:code="" ewd:figID="283" ewd:comment="" ewd:figtype="commref"><text style="&st18;" transform="matrix(&st16;  77.02  364.94 )">(LHD)</text></g></g><g ewd:figtype="w2w" ewd:figID="71" ewd:code="IL6"><path style="stroke-width: 1.42 ;&st7;  " d=" M   208.22,   313.40  L   203.97,   309.15  L   199.72,   313.40  " /><path style="stroke-width: 1.42 ;&st7;  " d=" M   208.22,   316.80  L   203.97,   312.55  L   199.72,   316.80  " /><text style="&st18;" transform="matrix(&st16;  190.55  305.45 )">8</text></g><g ewd:figtype="w2w" ewd:figID="72" ewd:code="IL2"><text style="&st18;" transform="matrix(&st16;  190.55  296.96 )">2</text></g><g ewd:figtype="w2w" ewd:figID="73" ewd:code="IL5"><path style="stroke-width: 1.42 ;&st7;  " d=" M   267.71,   313.40  L   263.46,   309.15  L   259.21,   313.40  " /><path style="stroke-width: 1.42 ;&st7;  " d=" M   267.71,   316.80  L   263.46,   312.55  L   259.21,   316.80  " /><text style="&st18;" transform="matrix(&st16;  250.04  305.45 )">5</text></g><g ewd:figtype="w2w" ewd:figID="74" ewd:code="IL1"><text style="&st18;" transform="matrix(&st16;  250.04  296.96 )">3</text></g><g ewd:code="AI3" ewd:figID="75" ewd:comment="1,2,3,32" ewd:figtype="w2w"><path style="stroke-width: 1.42 ;&st7;  " d=" M   267.71,   223.31  L   263.46,   219.07  L   259.21,   223.31  " /><path style="stroke-width: 1.42 ;&st7;  " d=" M   267.71,   219.92  L   263.46,   215.67  L   259.21,   219.92  " /><text style="&st18;" transform="matrix(&st16;  246.7  211.97 )">44</text><g ewd:code="" ewd:figID="433" ewd:comment="1,3,32,2" ewd:figtype="commref"><text style="&st18;" transform="matrix(&st16;  272.49  211.97 )">(RHD *1,RHD *3 *32,LHD *2)</text></g></g><g ewd:code="AI2" ewd:figID="76" ewd:comment="2" ewd:figtype="w2w"><text style="&st18;" transform="matrix(&st16;  246.7  203.47 )">11</text><g ewd:code="" ewd:figID="432" ewd:comment="2" ewd:figtype="commref"><text style="&st18;" transform="matrix(&st16;  272.49  203.47 )">(RHD *2)</text></g></g><g ewd:code="AI1" ewd:figID="77" ewd:comment="1,3,31" ewd:figtype="w2w"><text style="&st18;" transform="matrix(&st16;  250.04  194.97 )">3</text><g ewd:code="" ewd:figID="431" ewd:comment="3,31,1,3" ewd:figtype="commref"><text style="&st18;" transform="matrix(&st16;  272.49  194.97 )">(RHD *3 *31,LHD *1,LHD *3)</text></g></g><g ewd:figtype="gp" ewd:figID="239" ewd:code="CC"><path style="stroke-width: 0.85 ;&st7;  " d=" M    67.99,   697.25  L    67.99,   701.50  " /><path style="stroke-width: 0.85 ;&st7;  " d=" M    59.49,   701.50  L    76.49,   701.50  " /><path style="stroke-width: 0.85 ;&st7;  " d=" M    63.74,   704.33  L    72.24,   704.33  " /><path style="stroke-width: 0.85 ;&st7;  " d=" M    65.16,   707.17  L    70.82,   707.17  " /><path style="stroke-width: 0.85 ;&st7;  " d=" M    66.57,   710.00  L    69.41,   710.00  "/></g><g ewd:code="" ewd:figID="434" ewd:comment="" ewd:figtype="commref"><text style="&st18;" transform="matrix(&st16;  272.49  305.45 )">(RHD)</text></g><g ewd:code="" ewd:figID="435" ewd:comment="" ewd:figtype="commref"><text style="&st18;" transform="matrix(&st16;  272.49  296.96 )">(LHD)</text></g><g ewd:code="6" ewd:figID="449" ewd:comment="" ewd:figtype="comment"><text style="&st18;" transform="matrix(&st16;  345.04  437.18 )" ewd:textID="8">* 6 :1HZ 12V Battery Type</text></g><g ewd:code="32" ewd:figID="452" ewd:comment="" ewd:figtype="comment"><text style="&st18;" transform="matrix(&st16;  345.04  479.67 )" ewd:textID="29">*32 :Except Australia</text></g><g ewd:code="46" ewd:figID="281" ewd:comment="" ewd:figtype="comment"><text style="&st18;" transform="matrix(&st16;  345.04  505.17 )" ewd:textID="41">*46 :w/o VSC</text></g><g ewd:code="1" ewd:figID="448" ewd:comment="" ewd:figtype="comment"><text style="&st18;" transform="matrix(&st16;  345.04  403.19 )">* 1 :1GR-FE</text></g><g ewd:code="50" ewd:figID="524" ewd:comment="" ewd:figtype="comment"><text style="&st18;" transform="matrix(&st16;  345.04  513.67 )" ewd:textID="44">*50 :w/o Emission Control</text></g><g ewd:code="61" ewd:figID="548" ewd:comment="" ewd:figtype="comment"><text style="&st18;" transform="matrix(&st16;  345.04  573.16 )" ewd:textID="52">*61 :From Sep. 2022 Production</text></g><g ewd:code="45" ewd:figID="280" ewd:comment="" ewd:figtype="comment"><text style="&st18;" transform="matrix(&st16;  345.04  496.67 )" ewd:textID="40">*45 :w/ VSC</text></g><g ewd:code="31" ewd:figID="451" ewd:comment="" ewd:figtype="comment"><text style="&st18;" transform="matrix(&st16;  345.04  471.18 )" ewd:textID="28">*31 :Australia</text></g><g ewd:code="58" ewd:figID="530" ewd:comment="" ewd:figtype="comment"><text style="&st18;" transform="matrix(&st16;  345.04  547.66 )" ewd:textID="49">*58 :Before Jul. 2021 Production</text></g><g ewd:code="59" ewd:figID="531" ewd:comment="" ewd:figtype="comment"><text style="&st18;" transform="matrix(&st16;  345.04  556.16 )" ewd:textID="50">*59 :From Jul. 2021 Production</text></g><g ewd:code="41" ewd:figID="410" ewd:comment="" ewd:figtype="comment"><text style="&st18;" transform="matrix(&st16;  345.04  488.17 )" ewd:textID="37">*41 :w/ Side Turn Signal Light</text></g><g ewd:code="2" ewd:figID="427" ewd:comment="" ewd:figtype="comment"><text style="&st18;" transform="matrix(&st16;  345.04  411.69 )">* 2 :1HZ</text></g><g ewd:code="13" ewd:figID="430" ewd:comment="" ewd:figtype="comment"><text style="&st18;" transform="matrix(&st16;  345.04  454.18 )" ewd:textID="15">*13 :w/o SRS</text></g><g ewd:code="5" ewd:figID="429" ewd:comment="" ewd:figtype="comment"><text style="&st18;" transform="matrix(&st16;  345.04  428.68 )" ewd:textID="7">* 5 :1HZ w/o Emission Control</text></g><g ewd:code="3" ewd:figID="426" ewd:comment="" ewd:figtype="comment"><text style="&st18;" transform="matrix(&st16;  345.04  420.18 )">* 3 :1VD-FTV</text></g><g ewd:code="17" ewd:figID="409" ewd:comment="" ewd:figtype="comment"><text style="&st18;" transform="matrix(&st16;  345.04  462.68 )" ewd:textID="16">*17 :12V Battery Type</text></g><g ewd:code="51" ewd:figID="525" ewd:comment="" ewd:figtype="comment"><text style="&st18;" transform="matrix(&st16;  345.04  522.17 )" ewd:textID="45">*51 :Before Sep. 2017 Production</text></g><g ewd:code="52" ewd:figID="526" ewd:comment="" ewd:figtype="comment"><text style="&st18;" transform="matrix(&st16;  345.04  530.67 )" ewd:textID="46">*52 :From Sep. 2017 Production</text></g><g ewd:code="53" ewd:figID="527" ewd:comment="5,51,52,6,50" ewd:figtype="comment"><text style="&st18;" transform="matrix(&st16;  345.04  539.16 )">*53 :*5 *51,*52 *6 *50</text></g><g ewd:code="60" ewd:figID="549" ewd:comment="" ewd:figtype="comment"><text style="&st18;" transform="matrix(&st16;  345.04  564.66 )" ewd:textID="51">*60 :Before Sep. 2022 Production</text></g><g ewd:code="7" ewd:figID="450" ewd:comment="" ewd:figtype="comment"><text style="&st18;" transform="matrix(&st16;  345.04  445.68 )" ewd:textID="9">* 7 :1HZ 24V Battery Type</text></g></svg>
