<?xml version="1.0" encoding="utf-8"?>
<!DOCTYPE svg PUBLIC "-//W3C//DTD SVG 1.0//EN" "http://www.w3.org/TR/2001/REC-SVG-20010904/DTD/svg10.dtd"[
	<!ENTITY ns_flows "http://ns.adobe.com/Flows/1.0/">
	<!ENTITY ns_svg "http://www.w3.org/2000/svg">
	<!ENTITY ns_xlink "http://www.w3.org/1999/xlink">
	<!ENTITY st0 "font-size:7px;font-family:'MS-PGothic';adobe-font-script:japanese;">
	<!ENTITY st1 "font-size:6px;font-family:'ArialMT';">
	<!-- White fill  -->
	<!ENTITY st2 "fill:#FFFFFF;stroke:#000000; stroke-width:1.41;stroke-linecap:round;stroke-linejoin:round;">
	<!-- Yellow fill  -->
	<!ENTITY st3 "fill:#FFFFCC;stroke:#FFFFCC; stroke-width:0.1;stroke-linecap:round;stroke-linejoin:round;">
	<!-- Gray fill  -->
	<!ENTITY st4 "fill:#CCCCCC;stroke:#CCCCCC; stroke-width:0.1;stroke-linecap:round;stroke-linejoin:round;">
	<!-- Light-blue fill -->
	<!ENTITY st5 "fill:#CCECF4;stroke:#000000; stroke-width:1.133;stroke-linecap:round;stroke-linejoin:round;">
	<!ENTITY st6 "fill:none;stroke-linecap:butt; stroke-linejoin:round;">
	<!ENTITY st7 "fill:none;stroke:#000000;stroke-linecap:round;stroke-linejoin:round;">
	<!ENTITY st8 "enable-background:new    ;">
	<!-- Black fill -->
	<!ENTITY st9 "fill:#000000;stroke:#000000; stroke-linecap:round;stroke-linejoin:round;">
	<!-- SRS note   -->
	<!ENTITY st10 "font-size:9px;font-family:'ArialMT';">
	<!ENTITY st11 "font-size:9px;font-family:'Svg Symbol';">
	<!ENTITY st12 "font-size:6px;font-family:'Svg Symbol';">
	<!ENTITY st13 "fill:none;stroke:#ff0000;stroke-linecap:round;stroke-linejoin:round;">
	<!-- Yellow fill  -->
	<!ENTITY st14 "fill:#FFFF00;stroke:#FFFF00; stroke-width:0.1;stroke-linecap:round;stroke-linejoin:round;">
	<!ENTITY st15 "font-size:6px;font-family:'MS-PGothic';adobe-font-script:japanese;">
	<!ENTITY st16 "1.00 0.00 0.00 1.00">
	<!ENTITY st17 "0.00 -1.00 1.00 0.00">
	<!ENTITY st18 "font-size:6px;font-family:'Arial';">
	<!ENTITY st19 "font-size:9px;font-family:'Arial';">
	<!ENTITY st20 "font-size:6px;font-family:'MS-PGothic','MS PGothic';adobe-font-script:japanese;">
	<!ENTITY st21 "font-size:7px;font-family:'MS-PGothic','MS PGothic';adobe-font-script:japanese;">
	<!ATTLIST svg
		xmlns:ewd CDATA #FIXED "http://shcl.co.jp/ewd"
		xmlns:a CDATA #FIXED "http://ns.adobe.com/AdobeSVGViewerExtensions/3.0/"
		ewd:ver CDATA #IMPLIED
	>
	<!ATTLIST a
		ewd:lineID CDATA #IMPLIED
		ewd:groupID CDATA #IMPLIED
		ewd:figtype CDATA #IMPLIED
		ewd:code CDATA #IMPLIED
		ewd:figID CDATA #IMPLIED
		ewd:pinNo CDATA #IMPLIED
		ewd:comment CDATA #IMPLIED >
	<!ATTLIST g
		ewd:lineID CDATA #IMPLIED
		ewd:groupID CDATA #IMPLIED
		ewd:figtype CDATA #IMPLIED
		ewd:code CDATA #IMPLIED
		ewd:figID CDATA #IMPLIED
		ewd:pinNo CDATA #IMPLIED
		ewd:comment CDATA #IMPLIED >
	<!ATTLIST text
		ewd:textID CDATA #IMPLIED >
	<!ATTLIST title
		ewd:textID CDATA #IMPLIED >
]>
<!-- Generator: Shintec Hozumi YS   -->
<svg onload="call_execInitLoadProc_svg('system')" style="overflow:visible;  enable-background:new 0 0 10828.460 710.000" viewBox="0 0 10828.460 710.000" height="710.000" width="10828.460" xml:space="preserve" ewd:ver="2.3.1.16" xmlns="&ns_svg;" xmlns:a="http://ns.adobe.com/AdobeSVGViewerExtensions/3.0/" xmlns:ewd="http://shcl.co.jp/ewd" xmlns:xlink="&ns_xlink;">
<text style="&st18;" transform="matrix(&st16;  2541.07  32.08 )">B-Y(*13 *60)</text><text style="&st18;" transform="matrix(&st16;  2609.06  32.08 )">B-Y(*13 *60)</text><path style="stroke-width: 1.42 ;&st7;  " d=" M  2847.02,   443.71  L  2855.52,   443.71  " /><path style="stroke-width: 1.42 ;&st7;  " d=" M  2847.02,   562.69  L  2855.52,   562.69  " /><path style="stroke-width: 1.42 ;&st7;  " d=" M  2677.05,   494.70  L  2668.55,   494.70  " /><path style="stroke-width: 1.42 ;&st7;  " d=" M  2949.01,   494.70  L  2957.51,   494.70  " /><path style="stroke-width: 1.42 ;&st7;  " d=" M  2949.01,   435.21  L  2957.51,   435.21  " /><text style="&st18;" transform="matrix(&st17;  2863.16  534.29 )">(RHD *1 *46 *60)</text><text style="&st18;" transform="matrix(&st17;  2863.16  412.19 )">(*1 *46 *58)</text><text style="&st18;" transform="matrix(&st17;  2851.83  401.95 )">Y-G</text><text style="&st18;" transform="matrix(&st17;  2851.83  516.68 )">Y-G</text><text style="&st18;" transform="matrix(&st17;  2664.86  446.41 )">W</text><text style="&st18;" transform="matrix(&st17;  2676.19  462.62 )">(*31 *3,*3 *66)</text><text style="&st18;" transform="matrix(&st17;  2953.81  413.65 )">BR</text><text style="&st18;" transform="matrix(&st17;  2965.14  419.63 )">(*31 *3)</text><text style="&st18;" transform="matrix(&st17;  2953.81  468.9 )">BR</text><text style="&st18;" transform="matrix(&st17;  2965.14  474.87 )">(*31 *3)</text><text style="&st18;" transform="matrix(&st17;  2953.81  536.88 )">BR</text><text style="&st18;" transform="matrix(&st17;  2965.14  551.85 )">(*31 *3,*3 *66)</text><text style="&st18;" transform="matrix(&st17;  2953.81  613.37 )">BR</text><text style="&st18;" transform="matrix(&st17;  2965.14  628.34 )">(*31 *3,*3 *66)</text><path style="stroke-width: 1.42 ;&st7;  " d=" M  2966.00,   567.66  L  2961.03,   562.69  " /><path style="stroke-width: 1.42 ;&st7;  " d=" M  2949.01,   574.72  L  2953.98,   579.69  " /><path style="stroke-width: 1.42 ;&st7;  " d=" M  2961.03,   579.69  L  2966.00,   574.72  " /><path style="stroke-width: 1.42 ;&st7;  " d=" M  2953.98,   562.69  L  2949.01,   567.66  " /><text style="&st18;" transform="matrix(&st17;  2511.88  448.77 )">G-B</text><text style="&st18;" transform="matrix(&st17;  2523.22  448.27 )">(*1)</text><text style="&st18;" transform="matrix(&st16;  2631.15  125.57 )" ewd:textID="70">Combination Meter Assembly</text><text style="&st18;" transform="matrix(&st16;  2631.15  118.74 )">L25(A),L26(B),L50(C)</text><text style="&st18;" transform="matrix(&st17;  2664.86  539.89 )">W</text><text style="&st18;" transform="matrix(&st17;  2676.19  556.1 )">(*31 *3,*3 *66)</text><text style="&st18;" transform="matrix(&st16;  2631.15  377.95 )">A29(A),C39(B),I84(C)</text><text style="&st18;" transform="matrix(&st16;  2631.15  384.77 )">ECM</text><text style="&st18;" transform="matrix(&st16;  2790.55  491.01 )">Y-G</text><text style="&st18;" transform="matrix(&st16;  2773.45  502.34 )">(LHD *1 *46 *60)</text><text style="&st18;" transform="matrix(&st16;  2782.05  601.49 )">Y-G</text><text style="&st18;" transform="matrix(&st16;  2769.8  612.82 )">(RHD *1 *46)</text><text style="&st18;" transform="matrix(&st17;  2826.33  399.05 )">G</text><text style="&st18;" transform="matrix(&st17;  2837.67  412.19 )">(*1 *46 *59)</text><text style="&st18;" transform="matrix(&st17;  2888.66  534.29 )">(RHD *1 *46 *61)</text><text style="&st18;" transform="matrix(&st17;  2877.32  513.78 )">G</text><text style="&st18;" transform="matrix(&st16;  2771.12  474.01 )">G(LHD *1 *46 *61)</text><text style="&st18;" transform="matrix(&st17;  2996.3  538.67 )">W-B</text><text style="&st18;" transform="matrix(&st16;  2611.04  15.09 )">W(*13 *61)</text><text style="&st18;" transform="matrix(&st16;  2543.05  15.09 )">W(*13 *61)</text><g ewd:figtype="conn" ewd:figID="7" ewd:code="C1"><path style="stroke-width: 0.85 ;&st7;  " d=" M  2512.75,   494.70  L  2518.41,   497.54  " /><path style="stroke-width: 0.85 ;&st7;  " d=" M  2524.08,   490.45  L  2524.08,   507.45  " /><path style="stroke-width: 0.85 ;&st7;  " d=" M  2507.08,   490.45  L  2507.08,   507.45  " /><path style="stroke-width: 0.85 ;&st7;  " d=" M  2515.58,   490.45  L  2515.58,   477.71  " /><path style="stroke-width: 0.85 ;&st7;  " d=" M  2512.75,   506.03  L  2515.58,   507.45  " /><path style="stroke-width: 0.85 ;&st7;  " d=" M  2515.58,   490.45  L  2518.41,   491.87  " /><path style="stroke-width: 0.85 ;&st7;  " d=" M  2518.41,   491.87  L  2512.75,   494.70  " /><path style="stroke-width: 0.85 ;&st7;  " d=" M  2518.41,   497.54  L  2512.75,   500.37  " /><path style="stroke-width: 0.85 ;&st7;  " d=" M  2518.41,   503.20  L  2512.75,   506.03  " /><path style="stroke-width: 0.85 ;&st7;  " d=" M  2512.75,   500.37  L  2518.41,   503.20  " /><path style="stroke-width: 0.85 ;&st7;  " d=" M  2515.58,   520.20  L  2515.58,   507.45  " /><path style="stroke-width: 0.85 ;&st7;   " d=" M  2507.08,   507.45  C  2507.08    512.14   2510.89    515.95   2515.58    515.95  " /><path style="stroke-width: 0.85 ;&st7;   " d=" M  2515.58,   515.95  C  2520.27    515.95   2524.08    512.14   2524.08    507.45  " /><path style="stroke-width: 0.85 ;&st7;   " d=" M  2524.08,   490.45  C  2524.08    485.76   2520.27    481.95   2515.58    481.95  " /><path style="stroke-width: 0.85 ;&st7;   " d=" M  2515.58,   481.95  C  2510.89    481.95   2507.08    485.76   2507.08    490.45  " /><path style="stroke-width: 1.42 ;&st7;  " d=" M  2502.83,   520.20  L  2502.83,   477.71  L  2528.33,   477.71  L  2528.33,   520.20  L  2502.83,   520.20  " /><text style="&st18;" transform="matrix(&st16;  2509.24  528.39 )">1</text><text style="&st18;" transform="matrix(&st16;  2509.24  474.02 )">2</text><g ewd:figtype="title"><text style="&st18;" transform="matrix(&st17;  2536.22  523.1 )">C1</text><text style="&st18;" transform="matrix(&st17;  2543.05  523.1 )" ewd:textID="77">E.F.I. Engine Coolant <tspan x="0 " dy="6.0">Temperature Sensor</tspan></text></g></g><g ewd:figtype="conn" ewd:figID="40" ewd:code="I66"><path style="stroke-width: 1.42 ;&st7;  " d=" M  2949.01,   367.22  L  2949.01,   384.22  L  3042.49,   384.22  L  3042.49,   367.22  L  2949.01,   367.22  " /><path style="stroke-width: 0.85 ;&st7;  " d=" M  2957.50,   384.22  L  2957.50,   375.72  L  3033.99,   375.72  L  3033.99,   384.22  " /><text style="&st18;" transform="matrix(&st16;  2947.83  392.41 )">10</text><text style="&st18;" transform="matrix(&st16;  3027.65  392.41 )">9</text><g ewd:figtype="title"><text style="&st18;" transform="matrix(&st16;  2945.59  356.7 )">I66</text><text style="&st18;" transform="matrix(&st16;  2945.6  363.53 )" ewd:textID="131">No. 15 Junction Connector</text></g></g><g ewd:figtype="conn" ewd:figID="45" ewd:code="A29,C39,I84"><g ewd:lineID="80"><text style="&st18;" transform="matrix(&st16;  2502.76  407.72 )">79</text><text style="&st18;" transform="matrix(&st16;  2513.31  407.72 )">B</text><path style="stroke-width: 1.42 ;&st7;   " d=" M  2520.11,   405.75  C  2520.11    403.25   2518.08    401.22   2515.58    401.22  " /><path style="stroke-width: 1.42 ;&st7;   " d=" M  2515.58,   401.22  C  2513.08    401.22   2511.05    403.25   2511.05    405.75  " /><path style="stroke-width: 1.42 ;&st7;   " d=" M  2511.05,   405.75  C  2511.05    408.25   2513.08    410.28   2515.58    410.28  " /><path style="stroke-width: 1.42 ;&st7;   " d=" M  2515.58,   410.28  C  2518.08    410.28   2520.11    408.25   2520.11    405.75  " /><text style="&st18;" transform="matrix(&st16;  2508.35  397.52 )">THW</text></g><g ewd:lineID="81"><text style="&st18;" transform="matrix(&st16;  2655.74  407.72 )">50</text><text style="&st18;" transform="matrix(&st16;  2666.29  407.72 )">B</text><path style="stroke-width: 1.42 ;&st7;   " d=" M  2673.09,   405.75  C  2673.09    403.25   2671.06    401.22   2668.55    401.22  " /><path style="stroke-width: 1.42 ;&st7;   " d=" M  2668.55,   401.22  C  2666.05    401.22   2664.02    403.25   2664.02    405.75  " /><path style="stroke-width: 1.42 ;&st7;   " d=" M  2664.02,   405.75  C  2664.02    408.25   2666.05    410.28   2668.55    410.28  " /><path style="stroke-width: 1.42 ;&st7;   " d=" M  2668.55,   410.28  C  2671.06    410.28   2673.09    408.25   2673.09    405.75  " /><text style="&st18;" transform="matrix(&st16;  2659.5  397.52 )">FPSW</text></g><g ewd:lineID="82,83,85"><text style="&st18;" transform="matrix(&st16;  2715.23  407.72 )">12</text><text style="&st18;" transform="matrix(&st16;  2715.23  416.79 )">12</text><path style="stroke-width: 1.42 ;&st7;   " d=" M  2732.58,   405.75  C  2732.58    403.25   2730.55    401.22   2728.04    401.22  " /><path style="stroke-width: 1.42 ;&st7;   " d=" M  2728.04,   401.22  C  2725.54    401.22   2723.51    403.25   2723.51    405.75  " /><path style="stroke-width: 1.42 ;&st7;   " d=" M  2723.51,   405.75  C  2723.51    408.25   2725.54    410.28   2728.04    410.28  " /><path style="stroke-width: 1.42 ;&st7;   " d=" M  2728.04,   410.28  C  2730.55    410.28   2732.58    408.25   2732.58    405.75  " /><path style="stroke-width: 1.42 ;&st7;   " d=" M  2732.58,   414.82  C  2732.58    412.31   2730.55    410.28   2728.04    410.28  " /><path style="stroke-width: 1.42 ;&st7;   " d=" M  2728.04,   410.28  C  2725.54    410.28   2723.51    412.31   2723.51    414.82  " /><path style="stroke-width: 1.42 ;&st7;   " d=" M  2723.51,   414.82  C  2723.51    417.32   2725.54    419.35   2728.04    419.35  " /><path style="stroke-width: 1.42 ;&st7;   " d=" M  2728.04,   419.35  C  2730.55    419.35   2732.58    417.32   2732.58    414.82  " /><text style="&st18;" transform="matrix(&st16;  2725.62  407.72 )">C</text><text style="&st18;" transform="matrix(&st16;  2725.78  416.79 )">A</text><text style="&st18;" transform="matrix(&st16;  2718.49  397.52 )">THWO</text><g ewd:code="" ewd:figID="423" ewd:comment="" ewd:figtype="commref"><text style="&st18;" transform="matrix(&st16;  2733.14  416.79 )">(RHD)</text></g><g ewd:code="" ewd:figID="424" ewd:comment="" ewd:figtype="commref"><text style="&st18;" transform="matrix(&st16;  2733.14  407.72 )">(LHD)</text></g></g></g><g ewd:figtype="w2w" ewd:figID="95" ewd:code="CA3"><path style="stroke-width: 1.42 ;&st7;  " d=" M  2672.80,   503.77  L  2668.55,   499.52  L  2664.30,   503.77  " /><path style="stroke-width: 1.42 ;&st7;  " d=" M  2672.80,   500.37  L  2668.55,   496.12  L  2664.30,   500.37  " /><text style="&st18;" transform="matrix(&st16;  2651.8  492.42 )">22</text></g><g ewd:figtype="w2w" ewd:figID="96" ewd:code="AI3"><path style="stroke-width: 1.42 ;&st7;  " d=" M  2851.27,   553.63  L  2855.52,   557.88  L  2859.77,   553.63  " /><path style="stroke-width: 1.42 ;&st7;  " d=" M  2859.77,   557.03  L  2855.52,   561.27  L  2851.27,   557.03  " /><text style="&st18;" transform="matrix(&st16;  2838.77  568.91 )">30</text></g><g ewd:figtype="w2w" ewd:figID="97" ewd:code="IL5"><text style="&st18;" transform="matrix(&st16;  2838.77  458.43 )">44</text><g ewd:code="" ewd:figID="291" ewd:comment="" ewd:figtype="commref"><text style="&st18;" transform="matrix(&st16;  2864.55  458.43 )">(RHD)</text></g></g><g ewd:figtype="w2w" ewd:figID="98" ewd:code="IL1"><path style="stroke-width: 1.42 ;&st7;  " d=" M  2851.27,   434.65  L  2855.52,   438.90  L  2859.77,   434.65  " /><path style="stroke-width: 1.42 ;&st7;  " d=" M  2859.77,   438.05  L  2855.52,   442.29  L  2851.27,   438.05  " /><text style="&st18;" transform="matrix(&st16;  2838.77  449.93 )">17</text><g ewd:code="" ewd:figID="290" ewd:comment="" ewd:figtype="commref"><text style="&st18;" transform="matrix(&st16;  2864.55  449.93 )">(LHD)</text></g></g><g ewd:figtype="w2w" ewd:figID="99" ewd:code="CA3"><path style="stroke-width: 1.42 ;&st7;  " d=" M  2953.26,   485.64  L  2957.50,   489.89  L  2961.75,   485.64  " /><path style="stroke-width: 1.42 ;&st7;  " d=" M  2961.75,   489.04  L  2957.50,   493.29  L  2953.26,   489.04  " /><text style="&st18;" transform="matrix(&st16;  2940.75  500.92 )">20</text></g><g ewd:figtype="w2w" ewd:figID="100" ewd:code="AI3"><path style="stroke-width: 1.42 ;&st7;  " d=" M  2953.26,   426.15  L  2957.50,   430.40  L  2961.75,   426.15  " /><path style="stroke-width: 1.42 ;&st7;  " d=" M  2961.75,   429.55  L  2957.50,   433.80  L  2953.26,   429.55  " /><text style="&st18;" transform="matrix(&st16;  2940.75  441.43 )">33</text></g><g ewd:figtype="gp" ewd:figID="242" ewd:code="CE"><path style="stroke-width: 0.85 ;&st7;  " d=" M  2957.50,   697.25  L  2957.50,   701.50  " /><path style="stroke-width: 0.85 ;&st7;  " d=" M  2949.01,   701.50  L  2966.00,   701.50  " /><path style="stroke-width: 0.85 ;&st7;  " d=" M  2953.26,   704.33  L  2961.75,   704.33  " /><path style="stroke-width: 0.85 ;&st7;  " d=" M  2954.67,   707.17  L  2960.34,   707.17  " /><path style="stroke-width: 0.85 ;&st7;  " d=" M  2956.09,   710.00  L  2958.92,   710.00  "/></g></svg>
