<?xml version="1.0" encoding="utf-8"?>
<!DOCTYPE svg PUBLIC "-//W3C//DTD SVG 1.0//EN" "http://www.w3.org/TR/2001/REC-SVG-20010904/DTD/svg10.dtd"[
	<!ENTITY ns_flows "http://ns.adobe.com/Flows/1.0/">
	<!ENTITY ns_svg "http://www.w3.org/2000/svg">
	<!ENTITY ns_xlink "http://www.w3.org/1999/xlink">
	<!ENTITY st0 "font-size:7px;font-family:'MS-PGothic';adobe-font-script:japanese;">
	<!ENTITY st1 "font-size:6px;font-family:'ArialMT';">
	<!-- White fill  -->
	<!ENTITY st2 "fill:#FFFFFF;stroke:#000000; stroke-width:1.41;stroke-linecap:round;stroke-linejoin:round;">
	<!-- Yellow fill  -->
	<!ENTITY st3 "fill:#FFFFCC;stroke:#FFFFCC; stroke-width:0.1;stroke-linecap:round;stroke-linejoin:round;">
	<!-- Gray fill  -->
	<!ENTITY st4 "fill:#CCCCCC;stroke:#CCCCCC; stroke-width:0.1;stroke-linecap:round;stroke-linejoin:round;">
	<!-- Light-blue fill -->
	<!ENTITY st5 "fill:#CCECF4;stroke:#000000; stroke-width:1.133;stroke-linecap:round;stroke-linejoin:round;">
	<!ENTITY st6 "fill:none;stroke-linecap:butt; stroke-linejoin:round;">
	<!ENTITY st7 "fill:none;stroke:#000000;stroke-linecap:round;stroke-linejoin:round;">
	<!ENTITY st8 "enable-background:new    ;">
	<!-- Black fill -->
	<!ENTITY st9 "fill:#000000;stroke:#000000; stroke-linecap:round;stroke-linejoin:round;">
	<!-- SRS note   -->
	<!ENTITY st10 "font-size:9px;font-family:'ArialMT';">
	<!ENTITY st11 "font-size:9px;font-family:'Svg Symbol';">
	<!ENTITY st12 "font-size:6px;font-family:'Svg Symbol';">
	<!ENTITY st13 "fill:none;stroke:#ff0000;stroke-linecap:round;stroke-linejoin:round;">
	<!-- Yellow fill  -->
	<!ENTITY st14 "fill:#FFFF00;stroke:#FFFF00; stroke-width:0.1;stroke-linecap:round;stroke-linejoin:round;">
	<!ENTITY st15 "font-size:6px;font-family:'MS-PGothic';adobe-font-script:japanese;">
	<!ENTITY st16 "1.00 0.00 0.00 1.00">
	<!ENTITY st17 "0.00 -1.00 1.00 0.00">
	<!ENTITY st18 "font-size:6px;font-family:'Arial';">
	<!ENTITY st19 "font-size:9px;font-family:'Arial';">
	<!ENTITY st20 "font-size:6px;font-family:'MS-PGothic','MS PGothic';adobe-font-script:japanese;">
	<!ENTITY st21 "font-size:7px;font-family:'MS-PGothic','MS PGothic';adobe-font-script:japanese;">
	<!ATTLIST svg
		xmlns:ewd CDATA #FIXED "http://shcl.co.jp/ewd"
		xmlns:a CDATA #FIXED "http://ns.adobe.com/AdobeSVGViewerExtensions/3.0/"
		ewd:ver CDATA #IMPLIED
	>
	<!ATTLIST a
		ewd:lineID CDATA #IMPLIED
		ewd:groupID CDATA #IMPLIED
		ewd:figtype CDATA #IMPLIED
		ewd:code CDATA #IMPLIED
		ewd:figID CDATA #IMPLIED
		ewd:pinNo CDATA #IMPLIED
		ewd:comment CDATA #IMPLIED >
	<!ATTLIST g
		ewd:lineID CDATA #IMPLIED
		ewd:groupID CDATA #IMPLIED
		ewd:figtype CDATA #IMPLIED
		ewd:code CDATA #IMPLIED
		ewd:figID CDATA #IMPLIED
		ewd:pinNo CDATA #IMPLIED
		ewd:comment CDATA #IMPLIED >
	<!ATTLIST text
		ewd:textID CDATA #IMPLIED >
	<!ATTLIST title
		ewd:textID CDATA #IMPLIED >
]>
<!-- Generator: Shintec Hozumi YS   -->
<svg onload="call_execInitLoadProc_svg('system')" style="overflow:visible;  enable-background:new 0 0 10828.460 710.000" viewBox="0 0 10828.460 710.000" height="710.000" width="10828.460" xml:space="preserve" ewd:ver="2.3.1.16" xmlns="&ns_svg;" xmlns:a="http://ns.adobe.com/AdobeSVGViewerExtensions/3.0/" xmlns:ewd="http://shcl.co.jp/ewd" xmlns:xlink="&ns_xlink;">
<path style="stroke-width: 1.42 ;&st7;  " d=" M 10538.24,   265.24  L 10529.74,   265.24  " /><path style="stroke-width: 1.42 ;&st7;  " d=" M 10648.72,   146.26  L 10657.22,   146.26  " /><path style="stroke-width: 1.42 ;&st7;  " d=" M 10538.24,   613.68  L 10529.74,   613.68  " /><path style="stroke-width: 1.42 ;&st7;  " d=" M 10521.24,   146.26  L 10529.74,   146.26  " /><text style="&st18;" transform="matrix(&st17;  10526.05  117.25 )">Y-G</text><text style="&st18;" transform="matrix(&st17;  10537.38  127.88 )">(RHD *1,*2)</text><text style="&st18;" transform="matrix(&st17;  10653.52  117.25 )">Y-G</text><text style="&st18;" transform="matrix(&st17;  10664.86  123.65 )">(LHD *1)</text><text style="&st18;" transform="matrix(&st17;  10526.05  197.83 )">Y-R</text><text style="&st18;" transform="matrix(&st17;  10537.38  208.61 )">(RHD *1,*2)</text><text style="&st18;" transform="matrix(&st17;  10653.52  231.83 )">Y-R</text><text style="&st18;" transform="matrix(&st17;  10664.86  243.73 )">(LHD *1 *60)</text><text style="&st18;" transform="matrix(&st17;  10526.05  321.06 )">Y-R</text><text style="&st18;" transform="matrix(&st17;  10537.38  329.83 )">(RHD *60)</text><text style="&st18;" transform="matrix(&st16;  10561.83  306.87 )">(LHD *44 *61)</text><text style="&st18;" transform="matrix(&st16;  10578.31  295.54 )">R</text><text style="&st18;" transform="matrix(&st17;  10526.05  448.54 )">Y-R</text><text style="&st18;" transform="matrix(&st17;  10537.38  457.3 )">(RHD *61)</text><text style="&st18;" transform="matrix(&st17;  10687.52  448.54 )">Y-R</text><text style="&st18;" transform="matrix(&st17;  10698.85  456.76 )">(LHD *61)</text><text style="&st18;" transform="matrix(&st17;  10628.03  448.54 )">Y-R</text><text style="&st18;" transform="matrix(&st17;  10639.36  456.76 )">(LHD *60)</text><text style="&st18;" transform="matrix(&st17;  10511.88  457.3 )">(RHD *60)</text><text style="&st18;" transform="matrix(&st16;  10565.21  278.54 )">Y-R(LHD *44 *60)</text><text style="&st18;" transform="matrix(&st17;  10721.51  445.63 )">R</text><text style="&st18;" transform="matrix(&st17;  10732.85  456.76 )">(LHD *60)</text><text style="&st18;" transform="matrix(&st17;  10500.55  445.63 )">R</text><text style="&st18;" transform="matrix(&st17;  10653.52  445.63 )">R</text><text style="&st18;" transform="matrix(&st17;  10664.86  456.76 )">(LHD *61)</text><text style="&st18;" transform="matrix(&st17;  10511.88  329.83 )">(RHD *61)</text><text style="&st18;" transform="matrix(&st17;  10500.55  318.15 )">R</text><text style="&st18;" transform="matrix(&st17;  10679.02  228.92 )">R</text><text style="&st18;" transform="matrix(&st17;  10690.35  243.73 )">(LHD *1 *61)</text><g ewd:code="I72,I95" ewd:figID="26" ewd:comment="45,46" ewd:figtype="conn"><path style="stroke-width: 0.85 ;&st7; stroke-dasharray:3, 1.5;" d=" M 10665.71,   388.75  L 10678.46,   388.75  " /><path style="stroke-width: 0.85 ;&st7; stroke-dasharray:3, 1.5;" d=" M 10665.71,   397.82  L 10674.21,   397.82  " /><path style="stroke-width: 1.42 ;&st7;  " d=" M 10648.72,   367.22  L 10648.72,   384.22  L 10699.71,   384.22  L 10699.71,   367.22  L 10648.72,   367.22  " /><path style="stroke-width: 0.85 ;&st7;  " d=" M 10657.21,   367.22  L 10657.21,   384.22  " /><path style="stroke-width: 0.85 ;&st7;  " d=" M 10691.21,   384.22  L 10691.21,   375.72  L 10657.21,   375.72  " /><path style="stroke-width: 0.85 ;&st7;  " d=" M 10656.02,   374.72  L 10655.75,   375.19  L 10655.66,   375.72  L 10655.75,   376.26  L 10656.02,   376.73  L 10656.44,   377.07  L 10656.95,   377.26  L 10657.48,   377.26  L 10657.99,   377.07  L 10658.41,   376.73  L 10658.68,   376.26  L 10658.77,   375.72  L 10658.68,   375.19  L 10658.41,   374.72  L 10657.99,   374.37  L 10657.48,   374.19  L 10656.95,   374.19  L 10656.44,   374.37  L 10656.02,   374.72  L 10656.42,   375.43  L 10656.42,   376.01  L 10656.79,   376.46  L 10657.36,   376.56  L 10657.87,   376.27  L 10658.06,   375.72  L 10657.87,   375.18  L 10657.36,   374.89  L 10656.79,   374.99  L 10657.21,   375.72  " /><text style="&st18;" transform="matrix(&st16;  10644.4  399.79 )">14</text><text style="&st18;" transform="matrix(&st16;  10644.4  390.72 )">11</text><text style="&st18;" transform="matrix(&st16;  10654.95  399.79 )">A</text><path style="stroke-width: 1.42 ;&st7;   " d=" M 10661.75,   388.75  C 10661.75    386.25  10659.72    384.22  10657.22    384.22  " /><path style="stroke-width: 1.42 ;&st7;   " d=" M 10657.22,   384.22  C 10654.72    384.22  10652.69    386.25  10652.69    388.75  " /><path style="stroke-width: 1.42 ;&st7;   " d=" M 10652.69,   388.75  C 10652.69    391.26  10654.72    393.29  10657.22    393.29  " /><path style="stroke-width: 1.42 ;&st7;   " d=" M 10657.22,   393.29  C 10659.72    393.29  10661.75    391.26  10661.75    388.75  " /><path style="stroke-width: 1.42 ;&st7;   " d=" M 10661.75,   397.82  C 10661.75    395.32  10659.72    393.29  10657.22    393.29  " /><path style="stroke-width: 1.42 ;&st7;   " d=" M 10657.22,   393.29  C 10654.72    393.29  10652.69    395.32  10652.69    397.82  " /><path style="stroke-width: 1.42 ;&st7;   " d=" M 10652.69,   397.82  C 10652.69    400.32  10654.72    402.35  10657.22    402.35  " /><path style="stroke-width: 1.42 ;&st7;   " d=" M 10657.22,   402.35  C 10659.72    402.35  10661.75    400.32  10661.75    397.82  " /><text style="&st18;" transform="matrix(&st16;  10654.95  390.72 )">B</text><text style="&st18;" transform="matrix(&st16;  10644.4  355.6 )">10</text><text style="&st18;" transform="matrix(&st16;  10644.4  364.66 )">13</text><text style="&st18;" transform="matrix(&st16;  10654.95  355.6 )">B</text><path style="stroke-width: 1.42 ;&st7;   " d=" M 10661.75,   353.63  C 10661.75    351.12  10659.72    349.09  10657.22    349.09  " /><path style="stroke-width: 1.42 ;&st7;   " d=" M 10657.22,   349.09  C 10654.72    349.09  10652.69    351.12  10652.69    353.63  " /><path style="stroke-width: 1.42 ;&st7;   " d=" M 10652.69,   353.63  C 10652.69    356.13  10654.72    358.16  10657.22    358.16  " /><path style="stroke-width: 1.42 ;&st7;   " d=" M 10657.22,   358.16  C 10659.72    358.16  10661.75    356.13  10661.75    353.63  " /><path style="stroke-width: 1.42 ;&st7;   " d=" M 10661.75,   362.69  C 10661.75    360.19  10659.72    358.16  10657.22    358.16  " /><path style="stroke-width: 1.42 ;&st7;   " d=" M 10657.22,   358.16  C 10654.72    358.16  10652.69    360.19  10652.69    362.69  " /><path style="stroke-width: 1.42 ;&st7;   " d=" M 10652.69,   362.69  C 10652.69    365.19  10654.72    367.22  10657.22    367.22  " /><path style="stroke-width: 1.42 ;&st7;   " d=" M 10657.22,   367.22  C 10659.72    367.22  10661.75    365.19  10661.75    362.69  " /><text style="&st18;" transform="matrix(&st16;  10654.95  364.66 )">A</text><text style="&st18;" transform="matrix(&st16;  10678.4  399.79 )">12</text><text style="&st18;" transform="matrix(&st16;  10681.73  390.72 )">9</text><path style="stroke-width: 1.42 ;&st7;   " d=" M 10695.75,   388.75  C 10695.75    386.25  10693.72    384.22  10691.21    384.22  " /><path style="stroke-width: 1.42 ;&st7;   " d=" M 10691.21,   384.22  C 10688.71    384.22  10686.68    386.25  10686.68    388.75  " /><path style="stroke-width: 1.42 ;&st7;   " d=" M 10686.68,   388.75  C 10686.68    391.26  10688.71    393.29  10691.21    393.29  " /><path style="stroke-width: 1.42 ;&st7;   " d=" M 10691.21,   393.29  C 10693.72    393.29  10695.75    391.26  10695.75    388.75  " /><path style="stroke-width: 1.42 ;&st7;   " d=" M 10695.75,   397.82  C 10695.75    395.32  10693.72    393.29  10691.21    393.29  " /><path style="stroke-width: 1.42 ;&st7;   " d=" M 10691.21,   393.29  C 10688.71    393.29  10686.68    395.32  10686.68    397.82  " /><path style="stroke-width: 1.42 ;&st7;   " d=" M 10686.68,   397.82  C 10686.68    400.32  10688.71    402.35  10691.21    402.35  " /><path style="stroke-width: 1.42 ;&st7;   " d=" M 10691.21,   402.35  C 10693.72    402.35  10695.75    400.32  10695.75    397.82  " /><text style="&st18;" transform="matrix(&st16;  10688.95  390.72 )">B</text><text style="&st18;" transform="matrix(&st16;  10688.95  399.79 )">A</text><g ewd:figtype="title"><text style="&st18;" transform="matrix(&st17;  10714.43  384.29 )" ewd:textID="135">No. 21 Junction <tspan x="0 " dy="6.0">Connector</tspan></text><text style="&st18;" transform="matrix(&st17;  10707.61  384.29 )">I72(A)</text><text style="&st18;" transform="matrix(&st17;  10727.72  384.29 )">I95(B)</text><text style="&st18;" transform="matrix(&st17;  10734.54  384.29 )" ewd:textID="133">No. 18 Junction <tspan x="0 " dy="6.0">Connector</tspan></text></g><g ewd:code="" ewd:figID="277" ewd:comment="45" ewd:figtype="commref"><text style="&st18;" transform="matrix(&st16;  10662.31  355.6 )">(*45)</text></g><g ewd:code="" ewd:figID="392" ewd:comment="46" ewd:figtype="commref"><text style="&st18;" transform="matrix(&st16;  10662.31  364.66 )">(*46)</text></g><g ewd:code="" ewd:figID="495" ewd:comment="46" ewd:figtype="commref"><text style="&st18;" transform="matrix(&st16;  10696.31  399.79 )">(*46)</text></g><g ewd:code="" ewd:figID="496" ewd:comment="45" ewd:figtype="commref"><text style="&st18;" transform="matrix(&st16;  10696.31  390.72 )">(*45)</text></g></g><g ewd:figtype="conn" ewd:figID="50" ewd:code="C97"><g ewd:lineID="362,363,364"><text style="&st18;" transform="matrix(&st16;  10523.4  69.47 )">2</text><text style="&st18;" transform="matrix(&st16;  10525.5  57.58 )">FR</text></g></g><g ewd:figtype="w2w" ewd:figID="230" ewd:code="IL5"><path style="stroke-width: 1.42 ;&st7;  " d=" M 10533.99,   619.35  L 10529.74,   615.10  L 10525.49,   619.35  " /><path style="stroke-width: 1.42 ;&st7;  " d=" M 10533.99,   622.75  L 10529.74,   618.50  L 10525.49,   622.75  " /><text style="&st18;" transform="matrix(&st16;  10512.99  611.4 )">40</text><g ewd:code="" ewd:figID="401" ewd:comment="" ewd:figtype="commref"><text style="&st18;" transform="matrix(&st16;  10538.77  611.4 )">(RHD)</text></g></g><g ewd:figtype="w2w" ewd:figID="231" ewd:code="IL1"><text style="&st18;" transform="matrix(&st16;  10512.99  602.9 )">57</text><g ewd:code="" ewd:figID="402" ewd:comment="" ewd:figtype="commref"><text style="&st18;" transform="matrix(&st16;  10538.77  602.9 )">(LHD)</text></g></g><g ewd:code="AI3" ewd:figID="232" ewd:comment="3" ewd:figtype="w2w"><path style="stroke-width: 1.42 ;&st7;  " d=" M 10533.99,   274.31  L 10529.74,   270.06  L 10525.49,   274.31  " /><path style="stroke-width: 1.42 ;&st7;  " d=" M 10533.99,   270.91  L 10529.74,   266.66  L 10525.49,   270.91  " /><text style="&st18;" transform="matrix(&st16;  10512.99  262.96 )">54</text><g ewd:code="" ewd:figID="400" ewd:comment="3" ewd:figtype="commref"><text style="&st18;" transform="matrix(&st16;  10538.77  262.96 )">(RHD *3)</text></g></g><g ewd:code="AI3" ewd:figID="233" ewd:comment="3" ewd:figtype="w2w"><text style="&st18;" transform="matrix(&st16;  10512.99  254.46 )">23</text><g ewd:code="" ewd:figID="399" ewd:comment="3" ewd:figtype="commref"><text style="&st18;" transform="matrix(&st16;  10538.77  254.46 )">(LHD *3)</text></g></g><g ewd:code="AI3" ewd:figID="234" ewd:comment="2" ewd:figtype="w2w"><text style="&st18;" transform="matrix(&st16;  10512.99  245.96 )">19</text><g ewd:code="" ewd:figID="398" ewd:comment="2" ewd:figtype="commref"><text style="&st18;" transform="matrix(&st16;  10538.77  245.96 )">(*2)</text></g></g><g ewd:code="AI3" ewd:figID="235" ewd:comment="1" ewd:figtype="w2w"><text style="&st18;" transform="matrix(&st16;  10512.99  237.47 )">20</text><g ewd:code="" ewd:figID="487" ewd:comment="1" ewd:figtype="commref"><text style="&st18;" transform="matrix(&st16;  10538.77  237.47 )">(*1)</text></g></g><g ewd:code="AC2" ewd:figID="236" ewd:comment="2" ewd:figtype="w2w"><text style="&st18;" transform="matrix(&st16;  10516.32  160.98 )">5</text><g ewd:code="" ewd:figID="403" ewd:comment="2" ewd:figtype="commref"><text style="&st18;" transform="matrix(&st16;  10538.77  160.98 )">(*2)</text></g></g><g ewd:code="AC7" ewd:figID="237" ewd:comment="1" ewd:figtype="w2w"><path style="stroke-width: 1.42 ;&st7;  " d=" M 10533.99,   140.60  L 10529.74,   144.84  L 10525.49,   140.60  " /><path style="stroke-width: 1.42 ;&st7;  " d=" M 10525.49,   137.20  L 10529.74,   141.45  L 10533.99,   137.20  " /><text style="&st18;" transform="matrix(&st16;  10516.32  152.48 )">1</text><g ewd:code="" ewd:figID="404" ewd:comment="1" ewd:figtype="commref"><text style="&st18;" transform="matrix(&st16;  10538.77  152.48 )">(RHD *1)</text></g></g><g ewd:figtype="w2w" ewd:figID="238" ewd:code="IC2"><path style="stroke-width: 1.42 ;&st7;  " d=" M 10652.97,   137.20  L 10657.21,   141.45  L 10661.46,   137.20  " /><path style="stroke-width: 1.42 ;&st7;  " d=" M 10661.46,   140.60  L 10657.21,   144.84  L 10652.97,   140.60  " /><text style="&st18;" transform="matrix(&st16;  10643.8  152.48 )">4</text></g><g ewd:code="45" ewd:figID="493" ewd:comment="" ewd:figtype="comment"><text style="&st18;" transform="matrix(&st16;  10704.81  80.24 )" ewd:textID="40">*45 :w/ VSC</text></g><g ewd:code="61" ewd:figID="562" ewd:comment="" ewd:figtype="comment"><text style="&st18;" transform="matrix(&st16;  10704.81  122.73 )" ewd:textID="52">*61 :From Sep. 2022 Production</text></g><g ewd:code="46" ewd:figID="488" ewd:comment="" ewd:figtype="comment"><text style="&st18;" transform="matrix(&st16;  10704.81  88.74 )" ewd:textID="41">*46 :w/o VSC</text></g><g ewd:code="44" ewd:figID="508" ewd:comment="" ewd:figtype="comment"><text style="&st18;" transform="matrix(&st16;  10704.81  71.74 )">*44 :1VD-FTV, 1HZ</text></g><g ewd:code="2" ewd:figID="397" ewd:comment="" ewd:figtype="comment"><text style="&st18;" transform="matrix(&st16;  10704.81  54.75 )">* 2 :1HZ</text></g><g ewd:code="58" ewd:figID="546" ewd:comment="" ewd:figtype="comment"><text style="&st18;" transform="matrix(&st16;  10704.81  97.24 )" ewd:textID="49">*58 :Before Jul. 2021 Production</text></g><g ewd:code="1" ewd:figID="455" ewd:comment="" ewd:figtype="comment"><text style="&st18;" transform="matrix(&st16;  10704.81  46.25 )">* 1 :1GR-FE</text></g><g ewd:code="3" ewd:figID="405" ewd:comment="" ewd:figtype="comment"><text style="&st18;" transform="matrix(&st16;  10704.81  63.24 )">* 3 :1VD-FTV</text></g><g ewd:code="59" ewd:figID="545" ewd:comment="" ewd:figtype="comment"><text style="&st18;" transform="matrix(&st16;  10704.81  105.74 )" ewd:textID="50">*59 :From Jul. 2021 Production</text></g><g ewd:code="60" ewd:figID="563" ewd:comment="" ewd:figtype="comment"><text style="&st18;" transform="matrix(&st16;  10704.81  114.24 )" ewd:textID="51">*60 :Before Sep. 2022 Production</text></g></svg>