<?xml version="1.0" encoding="utf-8"?>
<!DOCTYPE svg PUBLIC "-//W3C//DTD SVG 1.0//EN" "http://www.w3.org/TR/2001/REC-SVG-20010904/DTD/svg10.dtd"[
	<!ENTITY ns_flows "http://ns.adobe.com/Flows/1.0/">
	<!ENTITY ns_svg "http://www.w3.org/2000/svg">
	<!ENTITY ns_xlink "http://www.w3.org/1999/xlink">
	<!ENTITY st0 "font-size:7px;font-family:'MS-PGothic';adobe-font-script:japanese;">
	<!ENTITY st1 "font-size:6px;font-family:'ArialMT';">
	<!-- White fill  -->
	<!ENTITY st2 "fill:#FFFFFF;stroke:#000000; stroke-width:1.41;stroke-linecap:round;stroke-linejoin:round;">
	<!-- Yellow fill  -->
	<!ENTITY st3 "fill:#FFFFCC;stroke:#FFFFCC; stroke-width:0.1;stroke-linecap:round;stroke-linejoin:round;">
	<!-- Gray fill  -->
	<!ENTITY st4 "fill:#CCCCCC;stroke:#CCCCCC; stroke-width:0.1;stroke-linecap:round;stroke-linejoin:round;">
	<!-- Light-blue fill -->
	<!ENTITY st5 "fill:#CCECF4;stroke:#000000; stroke-width:1.133;stroke-linecap:round;stroke-linejoin:round;">
	<!ENTITY st6 "fill:none;stroke-linecap:butt; stroke-linejoin:round;">
	<!ENTITY st7 "fill:none;stroke:#000000;stroke-linecap:round;stroke-linejoin:round;">
	<!ENTITY st8 "enable-background:new    ;">
	<!-- Black fill -->
	<!ENTITY st9 "fill:#000000;stroke:#000000; stroke-linecap:round;stroke-linejoin:round;">
	<!-- SRS note   -->
	<!ENTITY st10 "font-size:9px;font-family:'ArialMT';">
	<!ENTITY st11 "font-size:9px;font-family:'Svg Symbol';">
	<!ENTITY st12 "font-size:6px;font-family:'Svg Symbol';">
	<!ENTITY st13 "fill:none;stroke:#ff0000;stroke-linecap:round;stroke-linejoin:round;">
	<!-- Yellow fill  -->
	<!ENTITY st14 "fill:#FFFF00;stroke:#FFFF00; stroke-width:0.1;stroke-linecap:round;stroke-linejoin:round;">
	<!ENTITY st15 "font-size:6px;font-family:'MS-PGothic';adobe-font-script:japanese;">
	<!ENTITY st16 "1.00 0.00 0.00 1.00">
	<!ENTITY st17 "0.00 -1.00 1.00 0.00">
	<!ENTITY st18 "font-size:6px;font-family:'Arial';">
	<!ENTITY st19 "font-size:9px;font-family:'Arial';">
	<!ENTITY st20 "font-size:6px;font-family:'MS-PGothic','MS PGothic';adobe-font-script:japanese;">
	<!ENTITY st21 "font-size:7px;font-family:'MS-PGothic','MS PGothic';adobe-font-script:japanese;">
	<!ATTLIST svg
		xmlns:ewd CDATA #FIXED "http://shcl.co.jp/ewd"
		xmlns:a CDATA #FIXED "http://ns.adobe.com/AdobeSVGViewerExtensions/3.0/"
		ewd:ver CDATA #IMPLIED
	>
	<!ATTLIST a
		ewd:lineID CDATA #IMPLIED
		ewd:groupID CDATA #IMPLIED
		ewd:figtype CDATA #IMPLIED
		ewd:code CDATA #IMPLIED
		ewd:figID CDATA #IMPLIED
		ewd:pinNo CDATA #IMPLIED
		ewd:comment CDATA #IMPLIED >
	<!ATTLIST g
		ewd:lineID CDATA #IMPLIED
		ewd:groupID CDATA #IMPLIED
		ewd:figtype CDATA #IMPLIED
		ewd:code CDATA #IMPLIED
		ewd:figID CDATA #IMPLIED
		ewd:pinNo CDATA #IMPLIED
		ewd:comment CDATA #IMPLIED >
	<!ATTLIST text
		ewd:textID CDATA #IMPLIED >
	<!ATTLIST title
		ewd:textID CDATA #IMPLIED >
]>
<!-- Generator: Shintec Hozumi YS   -->
<svg onload="call_execInitLoadProc_svg('system')" style="overflow:visible;  enable-background:new 0 0 10828.460 710.000" viewBox="0 0 10828.460 710.000" height="710.000" width="10828.460" xml:space="preserve" ewd:ver="2.3.1.16" xmlns="&ns_svg;" xmlns:a="http://ns.adobe.com/AdobeSVGViewerExtensions/3.0/" xmlns:ewd="http://shcl.co.jp/ewd" xmlns:xlink="&ns_xlink;">
<path style="stroke-width: 1.42 ;&st7;  " d=" M  9101.98,   171.76  L  9093.48,   171.76  " /><path style="stroke-width: 1.42 ;&st7;  " d=" M  9084.98,   248.24  L  9093.48,   248.24  " /><path style="stroke-width: 1.42 ;&st7;  " d=" M  9084.98,   452.21  L  9093.48,   452.21  " /><path style="stroke-width: 1.42 ;&st7;  " d=" M  9254.95,   256.74  L  9246.46,   256.74  " /><path style="stroke-width: 1.42 ;&st7;  " d=" M  9237.96,   452.21  L  9246.46,   452.21  " /><path style="stroke-width: 1.42 ;&st7;  " d=" M  9458.92,   163.26  L  9450.42,   163.26  " /><path style="stroke-width: 1.42 ;&st7;  " d=" M  9390.93,   248.24  L  9399.43,   248.24  " /><path style="stroke-width: 1.42 ;&st7;  " d=" M  9390.93,   401.22  L  9399.43,   401.22  " /><path style="stroke-width: 1.42 ;&st7;  " d=" M  9492.91,   401.22  L  9501.41,   401.22  " /><text style="&st18;" transform="matrix(&st17;  9089.79  142.59 )">Y-R</text><text style="&st18;" transform="matrix(&st17;  9101.12  149.3 )">(*33 *38)</text><text style="&st18;" transform="matrix(&st17;  9089.79  219.08 )">Y-R</text><text style="&st18;" transform="matrix(&st17;  9101.12  225.79 )">(*33 *38)</text><text style="&st18;" transform="matrix(&st17;  9089.79  329.56 )">Y-R</text><text style="&st18;" transform="matrix(&st17;  9101.12  341.62 )">(*11 *32 *58)</text><text style="&st18;" transform="matrix(&st17;  9123.78  326.5 )">B</text><text style="&st18;" transform="matrix(&st17;  9067.12  180.15 )">(*35,*33 *37)</text><text style="&st18;" transform="matrix(&st17;  9055.79  168.09 )">Y-R</text><text style="&st18;" transform="matrix(&st17;  9225.76  210.58 )">Y-R</text><text style="&st18;" transform="matrix(&st17;  9237.09  215.66 )">(*8 *38)</text><text style="&st18;" transform="matrix(&st17;  9242.76  142.59 )">Y-R</text><text style="&st18;" transform="matrix(&st17;  9254.09  143.99 )">(*34)</text><text style="&st18;" transform="matrix(&st17;  9242.76  329.56 )">Y-R</text><text style="&st18;" transform="matrix(&st17;  9254.09  345.3 )">(*9 *58,*10 *58)</text><text style="&st18;" transform="matrix(&st17;  9160.61  352.32 )">(*11 *31 *58,*12 *58)</text><text style="&st18;" transform="matrix(&st17;  9149.28  329.56 )">Y-R</text><text style="&st18;" transform="matrix(&st17;  9186.1  334.64 )">(*8 *58)</text><text style="&st18;" transform="matrix(&st17;  9174.77  329.56 )">Y-R</text><text style="&st18;" transform="matrix(&st17;  9446.72  139.84 )">G</text><text style="&st18;" transform="matrix(&st17;  9458.06  143.99 )">(*38)</text><text style="&st18;" transform="matrix(&st17;  9395.73  165.33 )">G</text><text style="&st18;" transform="matrix(&st17;  9407.07  180.15 )">(*11 *32 *37)</text><text style="&st18;" transform="matrix(&st17;  9370.24  167.2 )">BR</text><text style="&st18;" transform="matrix(&st17;  9381.57  169.48 )">(*35)</text><text style="&st18;" transform="matrix(&st17;  9446.72  207.83 )">G</text><text style="&st18;" transform="matrix(&st17;  9458.06  222.64 )">(*11 *32 *38)</text><text style="&st18;" transform="matrix(&st17;  9497.72  167.2 )">BR</text><text style="&st18;" transform="matrix(&st17;  9472.22  207.83 )">G</text><text style="&st18;" transform="matrix(&st17;  9483.55  215.66 )">(*8 *38)</text><text style="&st18;" transform="matrix(&st17;  9395.73  318.31 )">G</text><text style="&st18;" transform="matrix(&st17;  9407.07  333.12 )">(*11 *32 *58)</text><text style="&st18;" transform="matrix(&st17;  9458.06  333.12 )">(*11 *31,*12)</text><text style="&st18;" transform="matrix(&st17;  9446.73  320.17 )">BR</text><text style="&st18;" transform="matrix(&st17;  9497.72  318.31 )">G</text><text style="&st18;" transform="matrix(&st16;  9379.03  23.58 )" ewd:textID="103">Fuel Sender Gage Assembly (Rear)</text><text style="&st18;" transform="matrix(&st16;  9379.02  16.76 )">T4(A),T19(B),X1(C)</text><text style="&st18;" transform="matrix(&st16;  9362.86  575.99 )">G</text><text style="&st18;" transform="matrix(&st16;  9294.87  575.99 )">G</text><text style="&st18;" transform="matrix(&st16;  9346.26  508.0 )">Y-R(RHD *60)</text><text style="&st18;" transform="matrix(&st16;  9278.27  508.0 )">Y-R(RHD *60)</text><text style="&st18;" transform="matrix(&st16;  9346.77  525.0 )">Y-R(LHD *60)</text><text style="&st18;" transform="matrix(&st16;  9278.78  525.0 )">Y-R(LHD *60)</text><text style="&st18;" transform="matrix(&st16;  9361.0  558.99 )">BR</text><text style="&st18;" transform="matrix(&st16;  9293.01  558.99 )">BR</text><text style="&st18;" transform="matrix(&st16;  9363.17  609.99 )">B</text><text style="&st18;" transform="matrix(&st16;  9295.18  609.99 )">B</text><text style="&st18;" transform="matrix(&st16;  9361.0  626.98 )">BR</text><text style="&st18;" transform="matrix(&st16;  9293.01  626.98 )">BR</text><text style="&st18;" transform="matrix(&st16;  9353.63  643.98 )">Y-R(*58)</text><text style="&st18;" transform="matrix(&st16;  9285.64  643.98 )">Y-R(*58)</text><text style="&st18;" transform="matrix(&st17;  9200.27  326.65 )">R</text><text style="&st18;" transform="matrix(&st16;  9288.55  660.98 )">R(*59)</text><text style="&st18;" transform="matrix(&st16;  9356.54  660.98 )">R(*59)</text><text style="&st18;" transform="matrix(&st17;  9211.6  334.64 )">(*8 *59)</text><text style="&st18;" transform="matrix(&st17;  9135.12  352.32 )">(*11 *31 *59,*12 *59)</text><text style="&st18;" transform="matrix(&st17;  9055.79  326.65 )">R</text><text style="&st18;" transform="matrix(&st17;  9067.12  341.62 )">(*11 *32 *59)</text><text style="&st18;" transform="matrix(&st17;  9268.25  326.65 )">R</text><text style="&st18;" transform="matrix(&st17;  9279.59  345.3 )">(*9 *59,*10 *59)</text><text style="&st18;" transform="matrix(&st17;  9381.57  333.12 )">(*11 *32 *59)</text><text style="&st18;" transform="matrix(&st17;  9483.55  326.14 )">(*8 *59)</text><text style="&st18;" transform="matrix(&st17;  9472.22  319.98 )">LG</text><text style="&st18;" transform="matrix(&st17;  9370.24  319.98 )">LG</text><text style="&st18;" transform="matrix(&st17;  9007.63  398.95 )">(*58)</text><text style="&st18;" transform="matrix(&st16;  9349.17  491.01 )">R(RHD *61)</text><text style="&st18;" transform="matrix(&st16;  9281.18  491.01 )">R(RHD *61)</text><text style="&st18;" transform="matrix(&st16;  9349.71  542.0 )">R(LHD *61)</text><text style="&st18;" transform="matrix(&st16;  9281.73  542.0 )">R(LHD *61)</text><g ewd:code="T4,T19,X1" ewd:figID="48" ewd:comment="35,36,37,38,39,9" ewd:figtype="conn"><path style="stroke-width: 0.85 ;&st7; stroke-dasharray:3, 1.5;" d=" M  9458.92,    83.37  L  9607.64,    83.37  " /><path style="stroke-width: 0.85 ;&st7; stroke-dasharray:3, 1.5;" d=" M  9458.92,    74.31  L  9607.64,    74.31  " /><path style="stroke-width: 0.85 ;&st7; stroke-dasharray:3, 1.5;" d=" M  9458.92,    92.44  L  9607.64,    92.44  " /><path style="stroke-width: 1.42 ;&st7;  " d=" M  9076.48,    69.77  L  9662.88,    69.77  L  9662.88,    27.28  L  9076.48,    27.28  L  9076.48,    69.77  " /><path style="stroke-width: 0.85 ;&st7; stroke-dasharray:3, 1.5;" d=" M  9456.79,    58.16  L  9614.01,    58.16  " /><path style="stroke-width: 0.85 ;&st7; stroke-dasharray:3, 1.5;" d=" M  9458.92,    64.11  L  9611.89,    64.11  " /><g ewd:code="" ewd:figID="711" ewd:comment="36,39" ewd:figtype="commref"><text style="&st18;" transform="matrix(&st16;  9098.57  66.08 )">(*36,*39)</text></g><text style="&st18;" transform="matrix(&st16;  9444.7  66.08 )">FE2</text><text style="&st18;" transform="matrix(&st16;  9614.68  66.08 )">FV2</text><g ewd:code="" ewd:figID="710" ewd:comment="9,35" ewd:figtype="commref"><text style="&st18;" transform="matrix(&st16;  9096.45  60.13 )">(*9,*35)</text></g><text style="&st18;" transform="matrix(&st16;  9616.34  60.13 )">FV</text><text style="&st18;" transform="matrix(&st16;  9446.37  60.13 )">FE</text><text style="&st18;" transform="matrix(&st16;  9089.24  60.13 )">FR</text><text style="&st18;" transform="matrix(&st16;  9087.61  66.08 )">FR2</text><g ewd:code="" ewd:figID="713" ewd:comment="9,35" ewd:figtype="commref"><text style="&st18;" transform="matrix(&st16;  9623.36  60.13 )">(*9,*35)</text></g><g ewd:code="" ewd:figID="712" ewd:comment="36,39" ewd:figtype="commref"><text style="&st18;" transform="matrix(&st16;  9625.49  66.08 )">(*36,*39)</text></g><text style="&st18;" transform="matrix(&st16;  9084.0  76.28 )">1</text><text style="&st18;" transform="matrix(&st16;  9084.0  85.34 )">1</text><text style="&st18;" transform="matrix(&st16;  9084.0  94.41 )">1</text><path style="stroke-width: 1.42 ;&st7;   " d=" M  9098.01,    92.44  C  9098.01     89.93   9095.98     87.90   9093.48     87.90  " /><path style="stroke-width: 1.42 ;&st7;   " d=" M  9093.48,    87.90  C  9090.98     87.90   9088.95     89.93   9088.95     92.44  " /><path style="stroke-width: 1.42 ;&st7;   " d=" M  9088.95,    92.44  C  9088.95     94.94   9090.98     96.97   9093.48     96.97  " /><path style="stroke-width: 1.42 ;&st7;   " d=" M  9093.48,    96.97  C  9095.98     96.97   9098.01     94.94   9098.01     92.44  " /><text style="&st18;" transform="matrix(&st16;  9091.06  94.41 )">C</text><path style="stroke-width: 1.42 ;&st7;   " d=" M  9098.01,    74.31  C  9098.01     71.80   9095.98     69.77   9093.48     69.77  " /><path style="stroke-width: 1.42 ;&st7;   " d=" M  9093.48,    69.77  C  9090.98     69.77   9088.95     71.80   9088.95     74.31  " /><path style="stroke-width: 1.42 ;&st7;   " d=" M  9088.95,    74.31  C  9088.95     76.81   9090.98     78.84   9093.48     78.84  " /><path style="stroke-width: 1.42 ;&st7;   " d=" M  9093.48,    78.84  C  9095.98     78.84   9098.01     76.81   9098.01     74.31  " /><text style="&st18;" transform="matrix(&st16;  9091.21  76.28 )">A</text><text style="&st18;" transform="matrix(&st16;  9091.21  85.34 )">B</text><path style="stroke-width: 1.42 ;&st7;   " d=" M  9098.01,    83.37  C  9098.01     80.87   9095.98     78.84   9093.48     78.84  " /><path style="stroke-width: 1.42 ;&st7;   " d=" M  9093.48,    78.84  C  9090.98     78.84   9088.95     80.87   9088.95     83.37  " /><path style="stroke-width: 1.42 ;&st7;   " d=" M  9088.95,    83.37  C  9088.95     85.87   9090.98     87.90   9093.48     87.90  " /><path style="stroke-width: 1.42 ;&st7;   " d=" M  9093.48,    87.90  C  9095.98     87.90   9098.01     85.87   9098.01     83.37  " /><text style="&st18;" transform="matrix(&st16;  9440.94  94.41 )">2</text><text style="&st18;" transform="matrix(&st16;  9440.94  85.34 )">3</text><text style="&st18;" transform="matrix(&st16;  9440.94  76.28 )">2</text><text style="&st18;" transform="matrix(&st16;  9448.16  76.28 )">A</text><text style="&st18;" transform="matrix(&st16;  9448.16  85.34 )">B</text><path style="stroke-width: 1.42 ;&st7;   " d=" M  9454.95,    92.44  C  9454.95     89.93   9452.92     87.90   9450.42     87.90  " /><path style="stroke-width: 1.42 ;&st7;   " d=" M  9450.42,    87.90  C  9447.92     87.90   9445.89     89.93   9445.89     92.44  " /><path style="stroke-width: 1.42 ;&st7;   " d=" M  9445.89,    92.44  C  9445.89     94.94   9447.92     96.97   9450.42     96.97  " /><path style="stroke-width: 1.42 ;&st7;   " d=" M  9450.42,    96.97  C  9452.92     96.97   9454.95     94.94   9454.95     92.44  " /><path style="stroke-width: 1.42 ;&st7;   " d=" M  9454.95,    74.31  C  9454.95     71.80   9452.92     69.77   9450.42     69.77  " /><path style="stroke-width: 1.42 ;&st7;   " d=" M  9450.42,    69.77  C  9447.92     69.77   9445.89     71.80   9445.89     74.31  " /><path style="stroke-width: 1.42 ;&st7;   " d=" M  9445.89,    74.31  C  9445.89     76.81   9447.92     78.84   9450.42     78.84  " /><path style="stroke-width: 1.42 ;&st7;   " d=" M  9450.42,    78.84  C  9452.92     78.84   9454.95     76.81   9454.95     74.31  " /><path style="stroke-width: 1.42 ;&st7;   " d=" M  9454.95,    83.37  C  9454.95     80.87   9452.92     78.84   9450.42     78.84  " /><path style="stroke-width: 1.42 ;&st7;   " d=" M  9450.42,    78.84  C  9447.92     78.84   9445.89     80.87   9445.89     83.37  " /><path style="stroke-width: 1.42 ;&st7;   " d=" M  9445.89,    83.37  C  9445.89     85.87   9447.92     87.90   9450.42     87.90  " /><path style="stroke-width: 1.42 ;&st7;   " d=" M  9450.42,    87.90  C  9452.92     87.90   9454.95     85.87   9454.95     83.37  " /><text style="&st18;" transform="matrix(&st16;  9448.0  94.41 )">C</text><text style="&st18;" transform="matrix(&st16;  9610.91  85.34 )">2</text><text style="&st18;" transform="matrix(&st16;  9610.91  76.28 )">3</text><text style="&st18;" transform="matrix(&st16;  9610.91  94.41 )">3</text><path style="stroke-width: 1.42 ;&st7;   " d=" M  9624.93,    83.37  C  9624.93     80.87   9622.90     78.84   9620.39     78.84  " /><path style="stroke-width: 1.42 ;&st7;   " d=" M  9620.39,    78.84  C  9617.89     78.84   9615.86     80.87   9615.86     83.37  " /><path style="stroke-width: 1.42 ;&st7;   " d=" M  9615.86,    83.37  C  9615.86     85.87   9617.89     87.90   9620.39     87.90  " /><path style="stroke-width: 1.42 ;&st7;   " d=" M  9620.39,    87.90  C  9622.90     87.90   9624.93     85.87   9624.93     83.37  " /><text style="&st18;" transform="matrix(&st16;  9617.97  94.41 )">C</text><text style="&st18;" transform="matrix(&st16;  9618.13  76.28 )">A</text><text style="&st18;" transform="matrix(&st16;  9618.13  85.34 )">B</text><path style="stroke-width: 1.42 ;&st7;   " d=" M  9624.93,    92.44  C  9624.93     89.93   9622.90     87.90   9620.39     87.90  " /><path style="stroke-width: 1.42 ;&st7;   " d=" M  9620.39,    87.90  C  9617.89     87.90   9615.86     89.93   9615.86     92.44  " /><path style="stroke-width: 1.42 ;&st7;   " d=" M  9615.86,    92.44  C  9615.86     94.94   9617.89     96.97   9620.39     96.97  " /><path style="stroke-width: 1.42 ;&st7;   " d=" M  9620.39,    96.97  C  9622.90     96.97   9624.93     94.94   9624.93     92.44  " /><path style="stroke-width: 1.42 ;&st7;   " d=" M  9624.93,    74.31  C  9624.93     71.80   9622.90     69.77   9620.39     69.77  " /><path style="stroke-width: 1.42 ;&st7;   " d=" M  9620.39,    69.77  C  9617.89     69.77   9615.86     71.80   9615.86     74.31  " /><path style="stroke-width: 1.42 ;&st7;   " d=" M  9615.86,    74.31  C  9615.86     76.81   9617.89     78.84   9620.39     78.84  " /><path style="stroke-width: 1.42 ;&st7;   " d=" M  9620.39,    78.84  C  9622.90     78.84   9624.93     76.81   9624.93     74.31  " /><g ewd:figtype="title"><text style="&st18;" transform="matrix(&st16;  9073.08  23.58 )" ewd:textID="103">Fuel Sender Gage Assembly (Rear)</text><text style="&st18;" transform="matrix(&st16;  9073.07  16.76 )">T4(A),T19(B),X1(C)</text></g><g ewd:code="" ewd:figID="379" ewd:comment="37" ewd:figtype="commref"><text style="&st18;" transform="matrix(&st16;  9098.57  76.28 )">(*37)</text></g><g ewd:code="" ewd:figID="380" ewd:comment="37" ewd:figtype="commref"><text style="&st18;" transform="matrix(&st16;  9625.49  76.28 )">(*37)</text></g><g ewd:code="" ewd:figID="381" ewd:comment="35" ewd:figtype="commref"><text style="&st18;" transform="matrix(&st16;  9625.49  85.34 )">(*35)</text></g><g ewd:code="" ewd:figID="382" ewd:comment="38" ewd:figtype="commref"><text style="&st18;" transform="matrix(&st16;  9625.49  94.41 )">(*38)</text></g><g ewd:code="" ewd:figID="383" ewd:comment="38" ewd:figtype="commref"><text style="&st18;" transform="matrix(&st16;  9098.57  94.41 )">(*38)</text></g><g ewd:code="" ewd:figID="384" ewd:comment="35" ewd:figtype="commref"><text style="&st18;" transform="matrix(&st16;  9098.57  85.34 )">(*35)</text></g></g><g ewd:figtype="w2w" ewd:figID="190" ewd:code="LS2"><path style="stroke-width: 1.42 ;&st7;  " d=" M  9089.23,   443.14  L  9093.48,   447.39  L  9097.73,   443.14  " /><path style="stroke-width: 1.42 ;&st7;  " d=" M  9097.73,   446.54  L  9093.48,   450.79  L  9089.23,   446.54  " /><text style="&st18;" transform="matrix(&st16;  9080.06  458.43 )">8</text></g><g ewd:figtype="w2w" ewd:figID="191" ewd:code="ST2"><path style="stroke-width: 1.42 ;&st7;  " d=" M  9089.23,   239.18  L  9093.48,   243.43  L  9097.73,   239.18  " /><path style="stroke-width: 1.42 ;&st7;  " d=" M  9097.73,   242.58  L  9093.48,   246.83  L  9089.23,   242.58  " /><text style="&st18;" transform="matrix(&st16;  9080.06  254.46 )">5</text></g><g ewd:figtype="w2w" ewd:figID="192" ewd:code="XT1"><path style="stroke-width: 1.42 ;&st7;  " d=" M  9097.73,   180.82  L  9093.48,   176.57  L  9089.23,   180.82  " /><path style="stroke-width: 1.42 ;&st7;  " d=" M  9097.73,   177.42  L  9093.48,   173.17  L  9089.23,   177.42  " /><text style="&st18;" transform="matrix(&st16;  9080.06  169.48 )">1</text></g><g ewd:figtype="w2w" ewd:figID="193" ewd:code="IS3"><path style="stroke-width: 1.42 ;&st7;  " d=" M  9242.20,   443.14  L  9246.45,   447.39  L  9250.70,   443.14  " /><path style="stroke-width: 1.42 ;&st7;  " d=" M  9250.70,   446.54  L  9246.45,   450.79  L  9242.20,   446.54  " /><text style="&st18;" transform="matrix(&st16;  9233.04  458.43 )">2</text></g><g ewd:figtype="w2w" ewd:figID="194" ewd:code="TS2"><path style="stroke-width: 1.42 ;&st7;  " d=" M  9250.70,   265.81  L  9246.45,   261.56  L  9242.20,   265.81  " /><path style="stroke-width: 1.42 ;&st7;  " d=" M  9250.70,   262.41  L  9246.45,   258.16  L  9242.20,   262.41  " /><text style="&st18;" transform="matrix(&st16;  9233.04  254.46 )">1</text></g><g ewd:figtype="w2w" ewd:figID="195" ewd:code="LS2"><path style="stroke-width: 1.42 ;&st7;  " d=" M  9395.18,   392.15  L  9399.43,   396.40  L  9403.67,   392.15  " /><path style="stroke-width: 1.42 ;&st7;  " d=" M  9403.67,   395.55  L  9399.43,   399.80  L  9395.18,   395.55  " /><text style="&st18;" transform="matrix(&st16;  9382.68  407.44 )">16</text></g><g ewd:figtype="w2w" ewd:figID="196" ewd:code="ST2"><path style="stroke-width: 1.42 ;&st7;  " d=" M  9395.18,   239.18  L  9399.43,   243.43  L  9403.67,   239.18  " /><path style="stroke-width: 1.42 ;&st7;  " d=" M  9403.67,   242.58  L  9399.43,   246.83  L  9395.18,   242.58  " /><text style="&st18;" transform="matrix(&st16;  9386.01  254.46 )">7</text></g><g ewd:figtype="w2w" ewd:figID="197" ewd:code="XT1"><path style="stroke-width: 1.42 ;&st7;  " d=" M  9454.67,   172.32  L  9450.42,   168.07  L  9446.17,   172.32  " /><path style="stroke-width: 1.42 ;&st7;  " d=" M  9454.67,   168.92  L  9450.42,   164.67  L  9446.17,   168.92  " /><text style="&st18;" transform="matrix(&st16;  9437.0  160.98 )">2</text></g><g ewd:figtype="w2w" ewd:figID="198" ewd:code="IS3"><path style="stroke-width: 1.42 ;&st7;  " d=" M  9497.16,   392.15  L  9501.41,   396.40  L  9505.66,   392.15  " /><path style="stroke-width: 1.42 ;&st7;  " d=" M  9505.66,   395.55  L  9501.41,   399.80  L  9497.16,   395.55  " /><text style="&st18;" transform="matrix(&st16;  9484.66  407.44 )">24</text></g><g ewd:figtype="w2w" ewd:figID="199" ewd:code="TS2"><path style="stroke-width: 1.42 ;&st7;  " d=" M  9505.66,   265.81  L  9501.41,   261.56  L  9497.16,   265.81  " /><path style="stroke-width: 1.42 ;&st7;  " d=" M  9505.66,   262.41  L  9501.41,   258.16  L  9497.16,   262.41  " /><text style="&st18;" transform="matrix(&st16;  9487.99  254.46 )">6</text></g></svg>