<?xml version="1.0" encoding="utf-8"?>
<!DOCTYPE svg PUBLIC "-//W3C//DTD SVG 1.0//EN" "http://www.w3.org/TR/2001/REC-SVG-20010904/DTD/svg10.dtd"[
	<!ENTITY ns_flows "http://ns.adobe.com/Flows/1.0/">
	<!ENTITY ns_svg "http://www.w3.org/2000/svg">
	<!ENTITY ns_xlink "http://www.w3.org/1999/xlink">
	<!ENTITY st0 "font-size:7px;font-family:'MS-PGothic';adobe-font-script:japanese;">
	<!ENTITY st1 "font-size:6px;font-family:'ArialMT';">
	<!-- White fill  -->
	<!ENTITY st2 "fill:#FFFFFF;stroke:#000000; stroke-width:1.41;stroke-linecap:round;stroke-linejoin:round;">
	<!-- Yellow fill  -->
	<!ENTITY st3 "fill:#FFFFCC;stroke:#FFFFCC; stroke-width:0.1;stroke-linecap:round;stroke-linejoin:round;">
	<!-- Gray fill  -->
	<!ENTITY st4 "fill:#CCCCCC;stroke:#CCCCCC; stroke-width:0.1;stroke-linecap:round;stroke-linejoin:round;">
	<!-- Light-blue fill -->
	<!ENTITY st5 "fill:#CCECF4;stroke:#000000; stroke-width:1.133;stroke-linecap:round;stroke-linejoin:round;">
	<!ENTITY st6 "fill:none;stroke-linecap:butt; stroke-linejoin:round;">
	<!ENTITY st7 "fill:none;stroke:#000000;stroke-linecap:round;stroke-linejoin:round;">
	<!ENTITY st8 "enable-background:new    ;">
	<!-- Black fill -->
	<!ENTITY st9 "fill:#000000;stroke:#000000; stroke-linecap:round;stroke-linejoin:round;">
	<!-- SRS note   -->
	<!ENTITY st10 "font-size:9px;font-family:'ArialMT';">
	<!ENTITY st11 "font-size:9px;font-family:'Svg Symbol';">
	<!ENTITY st12 "font-size:6px;font-family:'Svg Symbol';">
	<!ENTITY st13 "fill:none;stroke:#ff0000;stroke-linecap:round;stroke-linejoin:round;">
	<!-- Yellow fill  -->
	<!ENTITY st14 "fill:#FFFF00;stroke:#FFFF00; stroke-width:0.1;stroke-linecap:round;stroke-linejoin:round;">
	<!ENTITY st15 "font-size:6px;font-family:'MS-PGothic';adobe-font-script:japanese;">
	<!ENTITY st16 "1.00 0.00 0.00 1.00">
	<!ENTITY st17 "0.00 -1.00 1.00 0.00">
	<!ENTITY st18 "font-size:6px;font-family:'Arial';">
	<!ENTITY st19 "font-size:9px;font-family:'Arial';">
	<!ENTITY st20 "font-size:6px;font-family:'MS-PGothic','MS PGothic';adobe-font-script:japanese;">
	<!ENTITY st21 "font-size:7px;font-family:'MS-PGothic','MS PGothic';adobe-font-script:japanese;">
	<!ATTLIST svg
		xmlns:ewd CDATA #FIXED "http://shcl.co.jp/ewd"
		xmlns:a CDATA #FIXED "http://ns.adobe.com/AdobeSVGViewerExtensions/3.0/"
		ewd:ver CDATA #IMPLIED
	>
	<!ATTLIST a
		ewd:lineID CDATA #IMPLIED
		ewd:groupID CDATA #IMPLIED
		ewd:figtype CDATA #IMPLIED
		ewd:code CDATA #IMPLIED
		ewd:figID CDATA #IMPLIED
		ewd:pinNo CDATA #IMPLIED
		ewd:comment CDATA #IMPLIED >
	<!ATTLIST g
		ewd:lineID CDATA #IMPLIED
		ewd:groupID CDATA #IMPLIED
		ewd:figtype CDATA #IMPLIED
		ewd:code CDATA #IMPLIED
		ewd:figID CDATA #IMPLIED
		ewd:pinNo CDATA #IMPLIED
		ewd:comment CDATA #IMPLIED >
	<!ATTLIST text
		ewd:textID CDATA #IMPLIED >
	<!ATTLIST title
		ewd:textID CDATA #IMPLIED >
]>
<!-- Generator: Shintec Hozumi YS   -->
<svg onload="call_execInitLoadProc_svg('system')" style="overflow:visible;  enable-background:new 0 0 10828.460 710.000" viewBox="0 0 10828.460 710.000" height="710.000" width="10828.460" xml:space="preserve" ewd:ver="2.3.1.16" xmlns="&ns_svg;" xmlns:a="http://ns.adobe.com/AdobeSVGViewerExtensions/3.0/" xmlns:ewd="http://shcl.co.jp/ewd" xmlns:xlink="&ns_xlink;">
<text style="&st18;" transform="matrix(&st16;  3127.47  32.08 )">B-Y(*13 *60)</text><text style="&st18;" transform="matrix(&st16;  3059.49  32.08 )">B-Y(*13 *60)</text><path style="stroke-width: 1.42 ;&st7;  " d=" M  3373.94,   579.69  L  3382.43,   579.69  " /><path style="stroke-width: 1.42 ;&st7;  " d=" M  3373.94,   443.71  L  3382.43,   443.71  " /><path style="stroke-width: 1.42 ;&st7;  " d=" M  3322.94,   528.70  L  3331.44,   528.70  " /><path style="stroke-width: 1.42 ;&st7;  " d=" M  3339.94,   588.19  L  3331.44,   588.19  " /><path style="stroke-width: 1.42 ;&st7;  " d=" M  3220.96,   392.72  L  3212.46,   392.72  " /><path style="stroke-width: 1.42 ;&st7;  " d=" M  3025.49,   469.21  L  3033.99,   469.21  " /><text style="&st18;" transform="matrix(&st16;  3149.56  118.74 )">L25(A),L26(B),L50(C)</text><text style="&st18;" transform="matrix(&st16;  3149.57  125.57 )" ewd:textID="70">Combination Meter Assembly</text><text style="&st18;" transform="matrix(&st17;  3378.74  401.95 )">Y-G</text><path style="stroke-width: 0.85 ;&st7; stroke-dasharray:3, 1.5;" d=" M  3343.88,   541.44  L  3361.50,   541.44  " /><path style="stroke-width: 0.85 ;&st7; stroke-dasharray:3, 1.5;" d=" M  3343.88,   532.95  L  3361.50,   532.95  " /><text style="&st18;" transform="matrix(&st17;  3378.74  499.69 )">Y-G</text><text style="&st18;" transform="matrix(&st17;  3390.07  506.24 )">(*49 *60)</text><text style="&st18;" transform="matrix(&st16;  3319.02  474.01 )">P(*2 *61)</text><text style="&st18;" transform="matrix(&st17;  3327.75  563.43 )">Y-G</text><text style="&st18;" transform="matrix(&st17;  3339.08  563.0 )">(*2)</text><text style="&st18;" transform="matrix(&st17;  3378.74  563.43 )">Y-G</text><text style="&st18;" transform="matrix(&st17;  3390.07  564.67 )">(*49)</text><text style="&st18;" transform="matrix(&st17;  3378.74  610.17 )">Y-G</text><text style="&st18;" transform="matrix(&st17;  3390.07  611.41 )">(*49)</text><text style="&st18;" transform="matrix(&st17;  3327.75  610.17 )">Y-G</text><text style="&st18;" transform="matrix(&st17;  3339.08  609.74 )">(*2)</text><text style="&st18;" transform="matrix(&st17;  3208.77  369.92 )">W</text><text style="&st18;" transform="matrix(&st17;  3208.77  420.91 )">W</text><text style="&st18;" transform="matrix(&st17;  3220.1  377.13 )">(*32 *3)</text><text style="&st18;" transform="matrix(&st17;  3220.1  428.12 )">(*32 *3)</text><text style="&st18;" transform="matrix(&st17;  3208.77  480.4 )">W</text><text style="&st18;" transform="matrix(&st17;  3220.1  487.61 )">(*32 *3)</text><text style="&st18;" transform="matrix(&st17;  3208.77  653.4 )">W-B</text><text style="&st18;" transform="matrix(&st17;  3220.1  657.59 )">(*32 *3)</text><text style="&st18;" transform="matrix(&st17;  3208.77  581.16 )">W-B</text><text style="&st18;" transform="matrix(&st17;  3220.1  585.35 )">(*32 *3)</text><text style="&st18;" transform="matrix(&st17;  3390.07  417.54 )">(*2 *58,*49 *58)</text><text style="&st18;" transform="matrix(&st17;  3030.3  432.44 )">W-B</text><text style="&st18;" transform="matrix(&st17;  3041.63  441.94 )">(*31 *3 *60)</text><text style="&st18;" transform="matrix(&st16;  3073.29  635.48 )">W</text><text style="&st18;" transform="matrix(&st16;  3057.08  646.81 )">(*31 *3,*3 *66)</text><path style="stroke-width: 1.42 ;&st7;  " d=" M  3373.94,   528.70  L  3382.43,   528.70  " /><path style="stroke-width: 1.42 ;&st7;  " d=" M  3203.96,   443.71  L  3212.46,   443.71  " /><text style="&st18;" transform="matrix(&st16;  3141.28  635.48 )">W</text><text style="&st18;" transform="matrix(&st16;  3125.07  646.81 )">(*31 *3,*3 *66)</text><text style="&st18;" transform="matrix(&st16;  3072.05  550.5 )">BR</text><text style="&st18;" transform="matrix(&st16;  3066.08  561.83 )">(*31 *3)</text><text style="&st18;" transform="matrix(&st16;  3140.04  550.5 )">BR</text><text style="&st18;" transform="matrix(&st16;  3134.07  561.83 )">(*31 *3)</text><text style="&st18;" transform="matrix(&st17;  3353.24  398.74 )">P</text><text style="&st18;" transform="matrix(&st17;  3364.58  417.54 )">(*2 *59,*49 *59)</text><text style="&st18;" transform="matrix(&st17;  3497.72  420.29 )">G</text><text style="&st18;" transform="matrix(&st17;  3075.63  441.94 )">(*31 *3 *61)</text><text style="&st18;" transform="matrix(&st17;  3064.29  430.65 )">BR</text><text style="&st18;" transform="matrix(&st17;  3268.26  581.16 )">W-B</text><text style="&st18;" transform="matrix(&st17;  3007.64  542.86 )">(*3 *66)</text><text style="&st18;" transform="matrix(&st17;  3279.59  585.35 )">(*3 *66)</text><text style="&st18;" transform="matrix(&st17;  3268.26  653.4 )">W-B</text><text style="&st18;" transform="matrix(&st17;  3279.59  657.59 )">(*3 *66)</text><text style="&st18;" transform="matrix(&st16;  3070.27  660.98 )">W-B</text><text style="&st18;" transform="matrix(&st16;  3066.08  672.31 )">(*3 *66)</text><text style="&st18;" transform="matrix(&st16;  3138.25  660.98 )">W-B</text><text style="&st18;" transform="matrix(&st16;  3134.07  672.31 )">(*3 *66)</text><text style="&st18;" transform="matrix(&st16;  3338.03  502.34 )">(*2 *60)</text><text style="&st18;" transform="matrix(&st16;  3342.96  491.01 )">Y-G</text><text style="&st18;" transform="matrix(&st17;  3404.23  496.47 )">P</text><text style="&st18;" transform="matrix(&st17;  3415.57  506.24 )">(*49 *61)</text><text style="&st18;" transform="matrix(&st17;  3497.72  509.53 )">G</text><text style="&st18;" transform="matrix(&st16;  3129.45  15.09 )">W(*13 *61)</text><text style="&st18;" transform="matrix(&st16;  3061.46  15.09 )">W(*13 *61)</text><g ewd:code="C69,C85" ewd:figID="15" ewd:comment="2,3" ewd:figtype="conn"><path style="stroke-width: 0.85 ;&st7;  " d=" M  3325.07,   675.71  L  3337.82,   653.63  " /><path style="stroke-width: 0.85 ;&st7;  " d=" M  3337.82,   653.63  L  3334.78,   655.97  L  3337.31,   657.43  L  3337.82,   653.63  L  3337.08,   654.92  L  3335.79,   655.90  L  3336.86,   656.52  L  3337.08,   654.92  L  3336.71,   655.56  L  3336.30,   655.87  L  3336.64,   656.06  L  3336.71,   655.56  " /><path style="stroke-width: 1.42 ;&st7;  " d=" M  3339.94,   681.67  L  3322.94,   681.67  L  3322.94,   647.68  L  3339.94,   647.68  L  3339.94,   681.67  " /><path style="stroke-width: 0.85 ;&st7;  " d=" M  3331.44,   647.68  L  3331.44,   656.18  L  3334.27,   657.59  L  3328.61,   660.42  L  3334.27,   663.26  L  3328.61,   666.09  L  3334.27,   668.92  L  3328.61,   671.76  L  3331.44,   673.17  L  3331.44,   681.67  " /><text style="&st18;" transform="matrix(&st16;  3321.96  645.11 )">1</text><text style="&st18;" transform="matrix(&st16;  3321.96  636.05 )">3</text><path style="stroke-width: 1.42 ;&st7;   " d=" M  3335.98,   643.14  C  3335.98    640.64   3333.95    638.61   3331.44    638.61  " /><path style="stroke-width: 1.42 ;&st7;   " d=" M  3331.44,   638.61  C  3328.94    638.61   3326.91    640.64   3326.91    643.14  " /><path style="stroke-width: 1.42 ;&st7;   " d=" M  3326.91,   643.14  C  3326.91    645.65   3328.94    647.68   3331.44    647.68  " /><path style="stroke-width: 1.42 ;&st7;   " d=" M  3331.44,   647.68  C  3333.95    647.68   3335.98    645.65   3335.98    643.14  " /><text style="&st18;" transform="matrix(&st16;  3329.18  636.05 )">A</text><path style="stroke-width: 1.42 ;&st7;   " d=" M  3335.98,   634.08  C  3335.98    631.58   3333.95    629.55   3331.44    629.55  " /><path style="stroke-width: 1.42 ;&st7;   " d=" M  3331.44,   629.55  C  3328.94    629.55   3326.91    631.58   3326.91    634.08  " /><path style="stroke-width: 1.42 ;&st7;   " d=" M  3326.91,   634.08  C  3326.91    636.58   3328.94    638.61   3331.44    638.61  " /><path style="stroke-width: 1.42 ;&st7;   " d=" M  3331.44,   638.61  C  3333.95    638.61   3335.98    636.58   3335.98    634.08  " /><text style="&st18;" transform="matrix(&st16;  3329.18  645.11 )">B</text><g ewd:figtype="title"><text style="&st18;" transform="matrix(&st16;  3342.2  658.4 )">C69(A)</text><text style="&st18;" transform="matrix(&st16;  3342.2  665.23 )" ewd:textID="73">Diesel Engine Coolant <tspan x="0 " dy="6.0">Temperature Sensor</tspan></text><text style="&st18;" transform="matrix(&st16;  3342.2  685.34 )" ewd:textID="179">Water Temperature <tspan x="0 " dy="6.0">Sender Gage Assembly</tspan></text><text style="&st18;" transform="matrix(&st16;  3342.2  678.52 )">C85(B)</text></g><g ewd:code="" ewd:figID="295" ewd:comment="2" ewd:figtype="commref"><text style="&st18;" transform="matrix(&st16;  3336.54  645.11 )">(*2)</text></g><g ewd:code="" ewd:figID="296" ewd:comment="3" ewd:figtype="commref"><text style="&st18;" transform="matrix(&st16;  3336.54  636.05 )">(*3)</text></g></g><g ewd:figtype="conn" ewd:figID="16" ewd:code="A23"><path style="stroke-width: 1.42 ;&st7;  " d=" M  3203.96,   605.18  L  3220.96,   605.18  L  3220.96,   622.18  L  3203.96,   622.18  L  3203.96,   605.18  " /><path style="stroke-width: 0.85 ;&st7;  " d=" M  3212.46,   605.18  L  3212.46,   622.18  " /><text style="&st18;" transform="matrix(&st16;  3202.98  628.68 )">1</text><path style="stroke-width: 1.42 ;&st7;   " d=" M  3217.00,   626.71  C  3217.00    624.21   3214.97    622.18   3212.46    622.18  " /><path style="stroke-width: 1.42 ;&st7;   " d=" M  3212.46,   622.18  C  3209.96    622.18   3207.93    624.21   3207.93    626.71  " /><path style="stroke-width: 1.42 ;&st7;   " d=" M  3207.93,   626.71  C  3207.93    629.22   3209.96    631.25   3212.46    631.25  " /><path style="stroke-width: 1.42 ;&st7;   " d=" M  3212.46,   631.25  C  3214.97    631.25   3217.00    629.22   3217.00    626.71  " /><text style="&st18;" transform="matrix(&st16;  3210.2  628.68 )">A</text><text style="&st18;" transform="matrix(&st16;  3202.98  602.62 )">6</text><path style="stroke-width: 1.42 ;&st7;   " d=" M  3217.00,   600.65  C  3217.00    598.15   3214.97    596.12   3212.46    596.12  " /><path style="stroke-width: 1.42 ;&st7;   " d=" M  3212.46,   596.12  C  3209.96    596.12   3207.93    598.15   3207.93    600.65  " /><path style="stroke-width: 1.42 ;&st7;   " d=" M  3207.93,   600.65  C  3207.93    603.15   3209.96    605.18   3212.46    605.18  " /><path style="stroke-width: 1.42 ;&st7;   " d=" M  3212.46,   605.18  C  3214.97    605.18   3217.00    603.15   3217.00    600.65  " /><text style="&st18;" transform="matrix(&st16;  3210.2  602.62 )">A</text><g ewd:figtype="title"><text style="&st18;" transform="matrix(&st17;  3235.68  625.09 )" ewd:textID="116">No. 2 Junction <tspan x="0 " dy="6.0">Connector</tspan></text><text style="&st18;" transform="matrix(&st17;  3228.86  625.08 )">A23(A)</text></g></g><g ewd:figtype="conn" ewd:figID="17" ewd:code="A8"><path style="stroke-width: 1.42 ;&st7;  " d=" M  3195.46,   537.20  L  3229.46,   537.20  L  3229.46,   503.20  L  3195.46,   503.20  L  3195.46,   537.20  " /><g ewd:lineID="100,99"><text style="&st18;" transform="matrix(&st16;  3206.12  499.51 )">1</text><text style="&st18;" transform="matrix(&st16;  3204.03  510.84 )">FCHK</text></g><g ewd:lineID="96,97,98"><text style="&st18;" transform="matrix(&st16;  3206.12  545.39 )">2</text><text style="&st18;" transform="matrix(&st16;  3210.2  533.5 )">E</text></g><g ewd:figtype="title"><text style="&st18;" transform="matrix(&st16;  3231.72  520.75 )" ewd:textID="99">Fuel Filter <tspan x="0 " dy="6.0">Vacuum Sensor</tspan></text><text style="&st18;" transform="matrix(&st16;  3231.71  513.93 )">A8</text></g></g><g ewd:figtype="conn" ewd:figID="39" ewd:code="A46"><path style="stroke-width: 0.85 ;&st7;  " d=" M  3271.95,   605.18  L  3271.95,   622.18  " /><path style="stroke-width: 1.42 ;&st7;  " d=" M  3254.95,   605.18  L  3254.95,   622.18  L  3288.95,   622.18  L  3288.95,   605.18  L  3254.95,   605.18  " /><text style="&st18;" transform="matrix(&st16;  3265.61  630.37 )">2</text><text style="&st18;" transform="matrix(&st16;  3265.61  601.49 )">1</text><g ewd:figtype="title"><text style="&st18;" transform="matrix(&st17;  3303.67  625.09 )" ewd:textID="144">No. 39 Junction <tspan x="0 " dy="6.0">Connector</tspan></text><text style="&st18;" transform="matrix(&st17;  3296.84  625.08 )">A46</text></g></g><g ewd:figtype="w2w" ewd:figID="101" ewd:code="AI3"><path style="stroke-width: 1.42 ;&st7;  " d=" M  3029.74,   460.14  L  3033.99,   464.39  L  3038.24,   460.14  " /><path style="stroke-width: 1.42 ;&st7;  " d=" M  3038.24,   463.54  L  3033.99,   467.79  L  3029.74,   463.54  " /><text style="&st18;" transform="matrix(&st16;  3017.24  475.43 )">20</text></g><g ewd:figtype="w2w" ewd:figID="102" ewd:code="AI2"><text style="&st18;" transform="matrix(&st16;  3199.05  458.43 )">8</text><g ewd:code="" ewd:figID="462" ewd:comment="" ewd:figtype="commref"><text style="&st18;" transform="matrix(&st16;  3221.49  458.43 )">(RHD)</text></g></g><g ewd:figtype="w2w" ewd:figID="103" ewd:code="AI3"><text style="&st18;" transform="matrix(&st16;  3199.05  449.93 )">7</text><path style="stroke-width: 1.42 ;&st7;  " d=" M  3216.71,   438.05  L  3212.46,   442.29  L  3208.21,   438.05  " /><path style="stroke-width: 1.42 ;&st7;  " d=" M  3208.21,   434.65  L  3212.46,   438.90  L  3216.71,   434.65  " /><g ewd:code="" ewd:figID="463" ewd:comment="" ewd:figtype="commref"><text style="&st18;" transform="matrix(&st16;  3221.49  449.93 )">(LHD)</text></g></g><g ewd:figtype="w2w" ewd:figID="104" ewd:code="LI1"><path style="stroke-width: 1.42 ;&st7;  " d=" M  3216.71,   401.78  L  3212.46,   397.54  L  3208.21,   401.78  " /><path style="stroke-width: 1.42 ;&st7;  " d=" M  3216.71,   398.39  L  3212.46,   394.14  L  3208.21,   398.39  " /><text style="&st18;" transform="matrix(&st16;  3195.71  390.44 )">11</text></g><g ewd:figtype="w2w" ewd:figID="105" ewd:code="AC1"><path style="stroke-width: 1.42 ;&st7;  " d=" M  3335.69,   597.25  L  3331.44,   593.00  L  3327.19,   597.25  " /><path style="stroke-width: 1.42 ;&st7;  " d=" M  3335.69,   593.85  L  3331.44,   589.60  L  3327.19,   593.85  " /><text style="&st18;" transform="matrix(&st16;  3318.03  585.91 )">2</text></g><g ewd:figtype="w2w" ewd:figID="106" ewd:code="AI3"><text style="&st18;" transform="matrix(&st16;  3314.69  543.41 )">18</text></g><g ewd:figtype="w2w" ewd:figID="107" ewd:code="AI3"><path style="stroke-width: 1.42 ;&st7;  " d=" M  3335.69,   523.03  L  3331.44,   527.28  L  3327.19,   523.03  " /><path style="stroke-width: 1.42 ;&st7;  " d=" M  3327.19,   519.63  L  3331.44,   523.88  L  3335.69,   519.63  " /><text style="&st18;" transform="matrix(&st16;  3314.69  534.92 )">11</text></g><g ewd:figtype="w2w" ewd:figID="108" ewd:code="CA3"><path style="stroke-width: 1.42 ;&st7;  " d=" M  3386.68,   574.02  L  3382.43,   578.27  L  3378.18,   574.02  " /><path style="stroke-width: 1.42 ;&st7;  " d=" M  3378.18,   570.62  L  3382.43,   574.87  L  3386.68,   570.62  " /><text style="&st18;" transform="matrix(&st16;  3365.68  585.91 )">23</text></g><g ewd:figtype="w2w" ewd:figID="109" ewd:code="AI3"><text style="&st18;" transform="matrix(&st16;  3365.68  543.41 )">33</text></g><g ewd:figtype="w2w" ewd:figID="110" ewd:code="AI3"><text style="&st18;" transform="matrix(&st16;  3365.68  534.92 )">10</text><path style="stroke-width: 1.42 ;&st7;  " d=" M  3386.68,   523.03  L  3382.43,   527.28  L  3378.18,   523.03  " /><path style="stroke-width: 1.42 ;&st7;  " d=" M  3378.18,   519.63  L  3382.43,   523.88  L  3386.68,   519.63  " /></g><g ewd:figtype="w2w" ewd:figID="111" ewd:code="IL5"><text style="&st18;" transform="matrix(&st16;  3365.68  458.43 )">37</text><g ewd:code="" ewd:figID="289" ewd:comment="" ewd:figtype="commref"><text style="&st18;" transform="matrix(&st16;  3391.47  458.43 )">(RHD)</text></g></g><g ewd:figtype="w2w" ewd:figID="112" ewd:code="IL1"><path style="stroke-width: 1.42 ;&st7;  " d=" M  3378.18,   434.65  L  3382.43,   438.90  L  3386.68,   434.65  " /><path style="stroke-width: 1.42 ;&st7;  " d=" M  3386.68,   438.05  L  3382.43,   442.29  L  3378.18,   438.05  " /><text style="&st18;" transform="matrix(&st16;  3365.68  449.93 )">58</text><g ewd:code="" ewd:figID="288" ewd:comment="" ewd:figtype="commref"><text style="&st18;" transform="matrix(&st16;  3391.47  449.93 )">(LHD)</text></g></g><g ewd:figtype="gp" ewd:figID="243" ewd:code="AA"><path style="stroke-width: 0.85 ;&st7;  " d=" M  3212.46,   697.25  L  3212.46,   701.50  " /><path style="stroke-width: 0.85 ;&st7;  " d=" M  3203.96,   701.50  L  3220.96,   701.50  " /><path style="stroke-width: 0.85 ;&st7;  " d=" M  3208.21,   704.33  L  3216.71,   704.33  " /><path style="stroke-width: 0.85 ;&st7;  " d=" M  3209.63,   707.17  L  3215.29,   707.17  " /><path style="stroke-width: 0.85 ;&st7;  " d=" M  3211.05,   710.00  L  3213.88,   710.00  " /></g><g ewd:figtype="annex" ewd:figID="274" ewd:code=" "><path style="stroke-width: 0.85 ;&st7;  " d=" M  3328.61,   695.84  L  3334.27,   695.84  " /><path style="stroke-width: 0.85 ;&st7;  " d=" M  3322.94,   690.17  L  3339.94,   690.17  " /><path style="stroke-width: 0.85 ;&st7;  " d=" M  3327.19,   693.00  L  3335.69,   693.00  " /><path style="stroke-width: 0.85 ;&st7;  " d=" M  3330.03,   698.67  L  3332.86,   698.67  " /><path style="stroke-width: 0.85 ;&st7;  " d=" M  3331.44,   681.67  L  3331.44,   690.17  "/></g><g ewd:code="" ewd:figID="460" ewd:comment="" ewd:figtype="commref"><text style="&st18;" transform="matrix(&st16;  3391.47  543.41 )">(RHD)</text></g><g ewd:code="" ewd:figID="461" ewd:comment="" ewd:figtype="commref"><text style="&st18;" transform="matrix(&st16;  3391.47  534.92 )">(LHD)</text></g><g ewd:code="2" ewd:figID="287" ewd:comment="" ewd:figtype="comment"><text style="&st18;" transform="matrix(&st16;  3226.05  63.24 )">* 2 :1HZ</text></g><g ewd:code="33" ewd:figID="502" ewd:comment="" ewd:figtype="comment"><text style="&st18;" transform="matrix(&st16;  3328.04  80.24 )" ewd:textID="30">*33 :Pick-Up Body Type</text></g><g ewd:code="61" ewd:figID="555" ewd:comment="" ewd:figtype="comment"><text style="&st18;" transform="matrix(&st16;  3489.51  88.74 )" ewd:textID="52">*61 :From Sep. 2022 Production</text></g><g ewd:code="60" ewd:figID="556" ewd:comment="" ewd:figtype="comment"><text style="&st18;" transform="matrix(&st16;  3489.51  80.24 )" ewd:textID="51">*60 :Before Sep. 2022 Production</text></g><g ewd:code="63" ewd:figID="557" ewd:comment="" ewd:figtype="comment"><text style="&st18;" transform="matrix(&st16;  3489.51  105.74 )" ewd:textID="54">*63 :w/ Pre-Collision System</text></g><g ewd:code="32" ewd:figID="588" ewd:comment="" ewd:figtype="comment"><text style="&st18;" transform="matrix(&st16;  3328.04  71.74 )" ewd:textID="29">*32 :Except Australia</text></g><g ewd:code="49" ewd:figID="589" ewd:comment="3,32,46" ewd:figtype="comment"><text style="&st18;" transform="matrix(&st16;  3489.51  54.75 )">*49 :*3 *32 *46</text></g><g ewd:code="48" ewd:figID="513" ewd:comment="" ewd:figtype="comment"><text style="&st18;" transform="matrix(&st16;  3328.04  105.74 )" ewd:textID="43">*48 :w/ Passenger's Seat Belt Warning</text></g><g ewd:code="3" ewd:figID="286" ewd:comment="" ewd:figtype="comment"><text style="&st18;" transform="matrix(&st16;  3226.05  71.74 )">* 3 :1VD-FTV</text></g><g ewd:code="23" ewd:figID="331" ewd:comment="" ewd:figtype="comment"><text style="&st18;" transform="matrix(&st16;  3328.04  54.75 )" ewd:textID="20">*23 :1HZ w/o ABS</text></g><g ewd:code="22" ewd:figID="297" ewd:comment="" ewd:figtype="comment"><text style="&st18;" transform="matrix(&st16;  3226.05  105.74 )" ewd:textID="19">*22 :LHD 1GR-FE w/o ABS</text></g><g ewd:code="1" ewd:figID="587" ewd:comment="" ewd:figtype="comment"><text style="&st18;" transform="matrix(&st16;  3226.05  54.75 )">* 1 :1GR-FE</text></g><g ewd:code="21" ewd:figID="294" ewd:comment="" ewd:figtype="comment"><text style="&st18;" transform="matrix(&st16;  3226.05  97.24 )" ewd:textID="18">*21 :w/o ABS</text></g><g ewd:code="20" ewd:figID="497" ewd:comment="" ewd:figtype="comment"><text style="&st18;" transform="matrix(&st16;  3226.05  88.74 )" ewd:textID="17">*20 :w/ ABS (w/o VSC)</text></g><g ewd:code="66" ewd:figID="591" ewd:comment="" ewd:figtype="comment"><text style="&st18;" transform="matrix(&st16;  3489.51  114.24 )" ewd:textID="57">*66 :Middle East</text></g><g ewd:code="62" ewd:figID="558" ewd:comment="" ewd:figtype="comment"><text style="&st18;" transform="matrix(&st16;  3489.51  97.24 )" ewd:textID="53">*62 :w/o Pre-Collision System</text></g><g ewd:code="46" ewd:figID="590" ewd:comment="" ewd:figtype="comment"><text style="&st18;" transform="matrix(&st16;  3328.04  97.24 )" ewd:textID="41">*46 :w/o VSC</text></g><g ewd:code="13" ewd:figID="360" ewd:comment="" ewd:figtype="comment"><text style="&st18;" transform="matrix(&st16;  3226.05  80.24 )" ewd:textID="15">*13 :w/o SRS</text></g><g ewd:code="31" ewd:figID="408" ewd:comment="" ewd:figtype="comment"><text style="&st18;" transform="matrix(&st16;  3328.04  63.24 )" ewd:textID="28">*31 :Australia</text></g><g ewd:code="58" ewd:figID="535" ewd:comment="" ewd:figtype="comment"><text style="&st18;" transform="matrix(&st16;  3489.51  63.24 )" ewd:textID="49">*58 :Before Jul. 2021 Production</text></g><g ewd:code="45" ewd:figID="422" ewd:comment="" ewd:figtype="comment"><text style="&st18;" transform="matrix(&st16;  3328.04  88.74 )" ewd:textID="40">*45 :w/ VSC</text></g><g ewd:code="59" ewd:figID="534" ewd:comment="" ewd:figtype="comment"><text style="&st18;" transform="matrix(&st16;  3489.51  71.74 )" ewd:textID="50">*59 :From Jul. 2021 Production</text></g></svg>
