<?xml version="1.0" encoding="utf-8"?>
<!DOCTYPE svg PUBLIC "-//W3C//DTD SVG 1.0//EN" "http://www.w3.org/TR/2001/REC-SVG-20010904/DTD/svg10.dtd"[
	<!ENTITY ns_flows "http://ns.adobe.com/Flows/1.0/">
	<!ENTITY ns_svg "http://www.w3.org/2000/svg">
	<!ENTITY ns_xlink "http://www.w3.org/1999/xlink">
	<!ENTITY st0 "font-size:7px;font-family:'MS-PGothic';adobe-font-script:japanese;">
	<!ENTITY st1 "font-size:6px;font-family:'ArialMT';">
	<!-- White fill  -->
	<!ENTITY st2 "fill:#FFFFFF;stroke:#000000; stroke-width:1.41;stroke-linecap:round;stroke-linejoin:round;">
	<!-- Yellow fill  -->
	<!ENTITY st3 "fill:#FFFFCC;stroke:#FFFFCC; stroke-width:0.1;stroke-linecap:round;stroke-linejoin:round;">
	<!-- Gray fill  -->
	<!ENTITY st4 "fill:#CCCCCC;stroke:#CCCCCC; stroke-width:0.1;stroke-linecap:round;stroke-linejoin:round;">
	<!-- Light-blue fill -->
	<!ENTITY st5 "fill:#CCECF4;stroke:#000000; stroke-width:1.133;stroke-linecap:round;stroke-linejoin:round;">
	<!ENTITY st6 "fill:none;stroke-linecap:butt; stroke-linejoin:round;">
	<!ENTITY st7 "fill:none;stroke:#000000;stroke-linecap:round;stroke-linejoin:round;">
	<!ENTITY st8 "enable-background:new    ;">
	<!-- Black fill -->
	<!ENTITY st9 "fill:#000000;stroke:#000000; stroke-linecap:round;stroke-linejoin:round;">
	<!-- SRS note   -->
	<!ENTITY st10 "font-size:9px;font-family:'ArialMT';">
	<!ENTITY st11 "font-size:9px;font-family:'Svg Symbol';">
	<!ENTITY st12 "font-size:6px;font-family:'Svg Symbol';">
	<!ENTITY st13 "fill:none;stroke:#ff0000;stroke-linecap:round;stroke-linejoin:round;">
	<!-- Yellow fill  -->
	<!ENTITY st14 "fill:#FFFF00;stroke:#FFFF00; stroke-width:0.1;stroke-linecap:round;stroke-linejoin:round;">
	<!ENTITY st15 "font-size:6px;font-family:'MS-PGothic';adobe-font-script:japanese;">
	<!ENTITY st16 "1.00 0.00 0.00 1.00">
	<!ENTITY st17 "0.00 -1.00 1.00 0.00">
	<!ENTITY st18 "font-size:6px;font-family:'Arial';">
	<!ENTITY st19 "font-size:9px;font-family:'Arial';">
	<!ENTITY st20 "font-size:6px;font-family:'MS-PGothic','MS PGothic';adobe-font-script:japanese;">
	<!ENTITY st21 "font-size:7px;font-family:'MS-PGothic','MS PGothic';adobe-font-script:japanese;">
	<!ATTLIST svg
		xmlns:ewd CDATA #FIXED "http://shcl.co.jp/ewd"
		xmlns:a CDATA #FIXED "http://ns.adobe.com/AdobeSVGViewerExtensions/3.0/"
		ewd:ver CDATA #IMPLIED
	>
	<!ATTLIST a
		ewd:lineID CDATA #IMPLIED
		ewd:groupID CDATA #IMPLIED
		ewd:figtype CDATA #IMPLIED
		ewd:code CDATA #IMPLIED
		ewd:figID CDATA #IMPLIED
		ewd:pinNo CDATA #IMPLIED
		ewd:comment CDATA #IMPLIED >
	<!ATTLIST g
		ewd:lineID CDATA #IMPLIED
		ewd:groupID CDATA #IMPLIED
		ewd:figtype CDATA #IMPLIED
		ewd:code CDATA #IMPLIED
		ewd:figID CDATA #IMPLIED
		ewd:pinNo CDATA #IMPLIED
		ewd:comment CDATA #IMPLIED >
	<!ATTLIST text
		ewd:textID CDATA #IMPLIED >
	<!ATTLIST title
		ewd:textID CDATA #IMPLIED >
]>
<!-- Generator: Shintec Hozumi YS   -->
<svg onload="call_execInitLoadProc_svg('system')" style="overflow:visible;  enable-background:new 0 0 10828.460 710.000" viewBox="0 0 10828.460 710.000" height="710.000" width="10828.460" xml:space="preserve" ewd:ver="2.3.1.16" xmlns="&ns_svg;" xmlns:a="http://ns.adobe.com/AdobeSVGViewerExtensions/3.0/" xmlns:ewd="http://shcl.co.jp/ewd" xmlns:xlink="&ns_xlink;">
<text style="&st18;" transform="matrix(&st16;  2090.65  32.08 )">B-Y(*13 *60)</text><text style="&st18;" transform="matrix(&st16;  2022.66  32.08 )">B-Y(*13 *60)</text><text style="&st18;" transform="matrix(&st17;  2251.26  660.73 )">(*3)</text><text style="&st18;" transform="matrix(&st17;  2225.77  601.24 )">(*3)</text><text style="&st18;" transform="matrix(&st17;  2251.26  601.24 )">(*3)</text><text style="&st18;" transform="matrix(&st17;  2183.27  507.76 )">(*3)</text><text style="&st18;" transform="matrix(&st17;  2149.28  507.76 )">(*3)</text><text style="&st18;" transform="matrix(&st17;  2412.73  660.73 )">(*1)</text><text style="&st18;" transform="matrix(&st17;  2412.73  584.25 )">(*1)</text><text style="&st18;" transform="matrix(&st17;  2319.25  499.26 )">(*1)</text><text style="&st18;" transform="matrix(&st17;  2361.74  499.26 )">(*1)</text><text style="&st18;" transform="matrix(&st17;  2013.3  579.36 )">(RHD *1,*46 *3)</text><text style="&st18;" transform="matrix(&st17;  2001.97  560.21 )">B</text><text style="&st18;" transform="matrix(&st17;  2047.3  485.94 )">(LHD *1 *46)</text><text style="&st18;" transform="matrix(&st17;  2013.3  490.13 )">(RHD *1,*46 *3)</text><text style="&st18;" transform="matrix(&st17;  2035.96  470.97 )">B</text><text style="&st18;" transform="matrix(&st17;  2001.97  470.97 )">B</text><text style="&st18;" transform="matrix(&st17;  2214.43  600.62 )">BR</text><text style="&st18;" transform="matrix(&st17;  2239.93  600.62 )">BR</text><text style="&st18;" transform="matrix(&st17;  2137.95  504.97 )">B</text><text style="&st18;" transform="matrix(&st17;  2171.94  505.9 )">W</text><text style="&st18;" transform="matrix(&st17;  2239.93  660.11 )">BR</text><text style="&st18;" transform="matrix(&st17;  2401.4  660.11 )">BR</text><text style="&st18;" transform="matrix(&st17;  2401.4  583.63 )">BR</text><text style="&st18;" transform="matrix(&st17;  2350.41  497.4 )">W</text><text style="&st18;" transform="matrix(&st17;  2307.92  496.47 )">B</text><path style="stroke-width: 1.42 ;&st7;  " d=" M  2014.16,   511.70  L  2005.66,   511.70  " /><path style="stroke-width: 1.42 ;&st7;  " d=" M  2240.10,   622.18  L  2235.13,   627.15  " /><path style="stroke-width: 1.42 ;&st7;  " d=" M  2247.15,   639.18  L  2252.12,   634.21  " /><path style="stroke-width: 1.42 ;&st7;  " d=" M  2235.13,   634.21  L  2240.10,   639.18  " /><path style="stroke-width: 1.42 ;&st7;  " d=" M  2252.12,   627.15  L  2247.15,   622.18  " /><path style="stroke-width: 1.42 ;&st7;  " d=" M  2214.60,   520.20  L  2209.63,   525.17  " /><path style="stroke-width: 1.42 ;&st7;  " d=" M  2221.66,   537.20  L  2226.63,   532.23  " /><path style="stroke-width: 1.42 ;&st7;  " d=" M  2209.63,   532.23  L  2214.60,   537.20  " /><path style="stroke-width: 1.42 ;&st7;  " d=" M  2226.63,   525.17  L  2221.66,   520.20  " /><path style="stroke-width: 1.42 ;&st7;  " d=" M  2221.66,   486.20  L  2226.63,   481.24  " /><path style="stroke-width: 1.42 ;&st7;  " d=" M  2209.63,   481.24  L  2214.60,   486.20  " /><path style="stroke-width: 1.42 ;&st7;  " d=" M  2226.63,   474.18  L  2221.66,   469.21  " /><path style="stroke-width: 1.42 ;&st7;  " d=" M  2214.60,   469.21  L  2209.63,   474.18  " /><path style="stroke-width: 1.42 ;&st7;  " d=" M  2401.57,   503.20  L  2396.60,   508.17  " /><path style="stroke-width: 1.42 ;&st7;  " d=" M  2408.63,   520.20  L  2413.60,   515.23  " /><path style="stroke-width: 1.42 ;&st7;  " d=" M  2396.60,   515.23  L  2401.57,   520.20  " /><path style="stroke-width: 1.42 ;&st7;  " d=" M  2413.60,   508.17  L  2408.63,   503.20  " /><text style="&st18;" transform="matrix(&st16;  2291.2  377.95 )">A29(A),C39(B),I84(C)</text><text style="&st18;" transform="matrix(&st16;  2291.21  384.77 )">ECM</text><text style="&st18;" transform="matrix(&st17;  2469.39  447.65 )">BR</text><text style="&st18;" transform="matrix(&st17;  2480.72  448.27 )">(*1)</text><text style="&st18;" transform="matrix(&st16;  2112.73  118.74 )">L25(A),L26(B),L50(C)</text><text style="&st18;" transform="matrix(&st16;  2112.74  125.57 )" ewd:textID="70">Combination Meter Assembly</text><text style="&st18;" transform="matrix(&st16;  2092.63  15.09 )">W(*13 *61)</text><text style="&st18;" transform="matrix(&st16;  2024.64  15.09 )">W(*13 *61)</text><g ewd:figtype="conn" ewd:figID="2" ewd:code="C38"><path style="stroke-width: 0.85 ;&st7;  " d=" M  2405.10,   630.68  L  2405.10,   613.68  " /><path style="stroke-width: 1.42 ;&st7;  " d=" M  2396.60,   630.68  L  2413.60,   630.68  L  2413.60,   613.68  L  2396.60,   613.68  L  2396.60,   630.68  " /><text style="&st18;" transform="matrix(&st16;  2398.76  638.87 )">6</text><text style="&st18;" transform="matrix(&st16;  2398.76  609.99 )">8</text><g ewd:figtype="title"><text style="&st18;" transform="matrix(&st17;  2428.31  633.59 )" ewd:textID="119">No. 4 Junction <tspan x="0 " dy="6.0">Connector</tspan></text><text style="&st18;" transform="matrix(&st17;  2421.49  633.58 )">C38</text></g></g><g ewd:figtype="conn" ewd:figID="3" ewd:code="C2"><path style="stroke-width: 1.42 ;&st7;  " d=" M  2294.62,   605.18  L  2371.10,   605.18  L  2371.10,   571.19  L  2294.62,   571.19  L  2294.62,   605.18  " /><g ewd:lineID="75"><text style="&st18;" transform="matrix(&st16;  2305.27  567.5 )">1</text><text style="&st18;" transform="matrix(&st16;  2307.18  578.82 )">NE</text></g><g ewd:lineID="76"><text style="&st18;" transform="matrix(&st16;  2347.77  567.5 )">2</text><text style="&st18;" transform="matrix(&st16;  2348.7  578.82 )">NE-</text></g><g ewd:figtype="title"><text style="&st18;" transform="matrix(&st16;  2291.21  619.9 )" ewd:textID="71">Crank Position Sensor</text><text style="&st18;" transform="matrix(&st16;  2291.2  613.08 )">C2</text></g></g><g ewd:figtype="conn" ewd:figID="4" ewd:code="C42"><path style="stroke-width: 1.42 ;&st7;  " d=" M  2124.64,   605.18  L  2192.63,   605.18  L  2192.63,   571.19  L  2124.64,   571.19  L  2124.64,   605.18  " /><g ewd:lineID="70"><text style="&st18;" transform="matrix(&st16;  2135.3  567.5 )">1</text><text style="&st18;" transform="matrix(&st16;  2135.46  578.82 )">NE+</text></g><g ewd:lineID="71"><text style="&st18;" transform="matrix(&st16;  2169.3  613.38 )">3</text><text style="&st18;" transform="matrix(&st16;  2168.72  601.49 )">GND</text></g><g ewd:lineID="72"><text style="&st18;" transform="matrix(&st16;  2169.3  567.5 )">2</text><text style="&st18;" transform="matrix(&st16;  2170.23  578.82 )">NE-</text></g><g ewd:figtype="title"><text style="&st18;" transform="matrix(&st17;  2108.18  608.08 )">C42</text><text style="&st18;" transform="matrix(&st17;  2115.0  608.09 )" ewd:textID="71">Crank Position <tspan x="0 " dy="6.0">Sensor</tspan></text></g></g><g ewd:figtype="conn" ewd:figID="45" ewd:code="A29,C39,I84"><path style="stroke-width: 0.85 ;&st7; stroke-dasharray:3, 1.5;" d=" M  2320.11,   405.75  L  2332.86,   405.75  " /><path style="stroke-width: 0.85 ;&st7; stroke-dasharray:3, 1.5;" d=" M  2320.11,   414.82  L  2337.11,   414.82  " /><g ewd:comment="46,46" ewd:lineID="68,69"><path style="stroke-width: 1.42 ;&st7;   " d=" M  2010.20,   414.82  C  2010.20    412.31   2008.17    410.28   2005.66    410.28  " /><path style="stroke-width: 1.42 ;&st7;   " d=" M  2005.66,   410.28  C  2003.16    410.28   2001.13    412.31   2001.13    414.82  " /><path style="stroke-width: 1.42 ;&st7;   " d=" M  2001.13,   414.82  C  2001.13    417.32   2003.16    419.35   2005.66    419.35  " /><path style="stroke-width: 1.42 ;&st7;   " d=" M  2005.66,   419.35  C  2008.17    419.35   2010.20    417.32   2010.20    414.82  " /><path style="stroke-width: 1.42 ;&st7;   " d=" M  2010.20,   405.75  C  2010.20    403.25   2008.17    401.22   2005.66    401.22  " /><path style="stroke-width: 1.42 ;&st7;   " d=" M  2005.66,   401.22  C  2003.16    401.22   2001.13    403.25   2001.13    405.75  " /><path style="stroke-width: 1.42 ;&st7;   " d=" M  2001.13,   405.75  C  2001.13    408.25   2003.16    410.28   2005.66    410.28  " /><path style="stroke-width: 1.42 ;&st7;   " d=" M  2005.66,   410.28  C  2008.17    410.28   2010.20    408.25   2010.20    405.75  " /><text style="&st18;" transform="matrix(&st16;  2003.24  407.72 )">C</text><text style="&st18;" transform="matrix(&st16;  2003.4  416.79 )">A</text><g ewd:code="" ewd:figID="417" ewd:comment="46" ewd:figtype="commref"><text style="&st18;" transform="matrix(&st16;  2010.76  407.72 )">(LHD *46)</text></g><g ewd:code="" ewd:figID="418" ewd:comment="46" ewd:figtype="commref"><text style="&st18;" transform="matrix(&st16;  2010.76  416.79 )">(RHD *46)</text></g></g><g ewd:lineID="70,75"><text style="&st18;" transform="matrix(&st16;  2298.8  416.79 )">78</text><text style="&st18;" transform="matrix(&st16;  2295.46  407.72 )">110</text><path style="stroke-width: 1.42 ;&st7;   " d=" M  2316.15,   405.75  C  2316.15    403.25   2314.12    401.22   2311.61    401.22  " /><path style="stroke-width: 1.42 ;&st7;   " d=" M  2311.61,   401.22  C  2309.11    401.22   2307.08    403.25   2307.08    405.75  " /><path style="stroke-width: 1.42 ;&st7;   " d=" M  2307.08,   405.75  C  2307.08    408.25   2309.11    410.28   2311.61    410.28  " /><path style="stroke-width: 1.42 ;&st7;   " d=" M  2311.61,   410.28  C  2314.12    410.28   2316.15    408.25   2316.15    405.75  " /><text style="&st18;" transform="matrix(&st16;  2309.35  416.79 )">B</text><path style="stroke-width: 1.42 ;&st7;   " d=" M  2316.15,   414.82  C  2316.15    412.31   2314.12    410.28   2311.61    410.28  " /><path style="stroke-width: 1.42 ;&st7;   " d=" M  2311.61,   410.28  C  2309.11    410.28   2307.08    412.31   2307.08    414.82  " /><path style="stroke-width: 1.42 ;&st7;   " d=" M  2307.08,   414.82  C  2307.08    417.32   2309.11    419.35   2311.61    419.35  " /><path style="stroke-width: 1.42 ;&st7;   " d=" M  2311.61,   419.35  C  2314.12    419.35   2316.15    417.32   2316.15    414.82  " /><text style="&st18;" transform="matrix(&st16;  2309.35  407.72 )">B</text><text style="&st18;" transform="matrix(&st16;  2305.43  397.52 )">NE+</text></g><g ewd:lineID="72,76"><text style="&st18;" transform="matrix(&st16;  2337.96  407.72 )">111</text><text style="&st18;" transform="matrix(&st16;  2341.29  416.79 )">77</text><path style="stroke-width: 1.42 ;&st7;   " d=" M  2358.64,   414.82  C  2358.64    412.31   2356.61    410.28   2354.11    410.28  " /><path style="stroke-width: 1.42 ;&st7;   " d=" M  2354.11,   410.28  C  2351.60    410.28   2349.57    412.31   2349.57    414.82  " /><path style="stroke-width: 1.42 ;&st7;   " d=" M  2349.57,   414.82  C  2349.57    417.32   2351.60    419.35   2354.11    419.35  " /><path style="stroke-width: 1.42 ;&st7;   " d=" M  2354.11,   419.35  C  2356.61    419.35   2358.64    417.32   2358.64    414.82  " /><text style="&st18;" transform="matrix(&st16;  2351.84  416.79 )">B</text><text style="&st18;" transform="matrix(&st16;  2351.84  407.72 )">B</text><path style="stroke-width: 1.42 ;&st7;   " d=" M  2358.64,   405.75  C  2358.64    403.25   2356.61    401.22   2354.11    401.22  " /><path style="stroke-width: 1.42 ;&st7;   " d=" M  2354.11,   401.22  C  2351.60    401.22   2349.57    403.25   2349.57    405.75  " /><path style="stroke-width: 1.42 ;&st7;   " d=" M  2349.57,   405.75  C  2349.57    408.25   2351.60    410.28   2354.11    410.28  " /><path style="stroke-width: 1.42 ;&st7;   " d=" M  2354.11,   410.28  C  2356.61    410.28   2358.64    408.25   2358.64    405.75  " /><text style="&st18;" transform="matrix(&st16;  2348.7  397.52 )">NE-</text></g><g ewd:lineID="79"><text style="&st18;" transform="matrix(&st16;  2460.27  407.72 )">78</text><text style="&st18;" transform="matrix(&st16;  2470.82  407.72 )">B</text><path style="stroke-width: 1.42 ;&st7;   " d=" M  2477.62,   405.75  C  2477.62    403.25   2475.59    401.22   2473.09    401.22  " /><path style="stroke-width: 1.42 ;&st7;   " d=" M  2473.09,   401.22  C  2470.58    401.22   2468.55    403.25   2468.55    405.75  " /><path style="stroke-width: 1.42 ;&st7;   " d=" M  2468.55,   405.75  C  2468.55    408.25   2470.58    410.28   2473.09    410.28  " /><path style="stroke-width: 1.42 ;&st7;   " d=" M  2473.09,   410.28  C  2475.59    410.28   2477.62    408.25   2477.62    405.75  " /><text style="&st18;" transform="matrix(&st16;  2463.84  397.52 )">ETHW</text></g></g><g ewd:figtype="gp" ewd:figID="240" ewd:code="CE"><path style="stroke-width: 0.85 ;&st7;  " d=" M  2242.21,   710.00  L  2245.04,   710.00  " /><path style="stroke-width: 0.85 ;&st7;  " d=" M  2240.79,   707.17  L  2246.46,   707.17  " /><path style="stroke-width: 0.85 ;&st7;  " d=" M  2239.37,   704.33  L  2247.87,   704.33  " /><path style="stroke-width: 0.85 ;&st7;  " d=" M  2235.13,   701.50  L  2252.12,   701.50  " /><path style="stroke-width: 0.85 ;&st7;  " d=" M  2243.62,   697.25  L  2243.62,   701.50  " /></g><g ewd:figtype="gp" ewd:figID="241" ewd:code="CB"><path style="stroke-width: 0.85 ;&st7;  " d=" M  2403.68,   710.00  L  2406.51,   710.00  " /><path style="stroke-width: 0.85 ;&st7;  " d=" M  2402.26,   707.17  L  2407.93,   707.17  " /><path style="stroke-width: 0.85 ;&st7;  " d=" M  2400.85,   704.33  L  2409.35,   704.33  " /><path style="stroke-width: 0.85 ;&st7;  " d=" M  2396.60,   701.50  L  2413.60,   701.50  " /><path style="stroke-width: 0.85 ;&st7;  " d=" M  2405.10,   697.25  L  2405.10,   701.50  " /></g><g ewd:code=" " ewd:figID="421" ewd:comment=" ,1" ewd:figtype="sh"><path style="stroke-width: 0.85 ;&st7; stroke-dasharray:3, 1.5;" d=" M  2379.60,   511.70  L  2286.12,   511.70  L  2286.12,   477.71  L  2379.60,   477.71  L  2379.60,   511.70  " /><path style="stroke-width: 0.85 ;&st7;  " d=" M  2378.41,   510.70  L  2378.14,   511.17  L  2378.04,   511.70  L  2378.14,   512.23  L  2378.41,   512.70  L  2378.82,   513.05  L  2379.33,   513.24  L  2379.87,   513.24  L  2380.38,   513.05  L  2380.79,   512.70  L  2381.07,   512.23  L  2381.16,   511.70  L  2381.07,   511.17  L  2380.79,   510.70  L  2380.38,   510.35  L  2379.87,   510.16  L  2379.33,   510.16  L  2378.82,   510.35  L  2378.41,   510.70  L  2378.80,   511.41  L  2378.80,   511.99  L  2379.18,   512.44  L  2379.75,   512.54  L  2380.25,   512.25  L  2380.45,   511.70  L  2380.25,   511.15  L  2379.75,   510.86  L  2379.18,   510.96  L  2379.60,   511.70  " /><g ewd:code="" ewd:figID="419" ewd:comment=" " ewd:figtype="commref"><text style="&st18;" transform="matrix(&st17;  2282.42  508.06 )" ewd:textID="1">(Shielded)</text></g><g ewd:code="" ewd:figID="454" ewd:comment="1" ewd:figtype="commref"><text style="&st18;" transform="matrix(&st17;  2293.75  499.26 )">(*1)</text></g></g><g ewd:code=" " ewd:figID="425" ewd:comment=" ,3" ewd:figtype="sh"><path style="stroke-width: 0.85 ;&st7; stroke-dasharray:3, 1.5;" d=" M  2209.63,   528.70  L  2116.15,   528.70  L  2116.15,   477.71  L  2209.63,   477.71  " /><path style="stroke-width: 0.85 ;&st7; stroke-dasharray:3, 1.5;" d=" M  2218.13,   520.20  L  2218.13,   486.20  "/><g ewd:code="" ewd:figID="412" ewd:comment=" " ewd:figtype="commref"><text style="&st18;" transform="matrix(&st17;  2112.45  516.56 )" ewd:textID="1">(Shielded)</text></g><g ewd:code="" ewd:figID="420" ewd:comment=" " ewd:figtype="commref"><text style="&st18;" transform="matrix(&st17;  2214.44  516.56 )" ewd:textID="1">(Shielded)</text></g><g ewd:code="" ewd:figID="516" ewd:comment="3" ewd:figtype="commref"><text style="&st18;" transform="matrix(&st17;  2225.77  507.76 )">(*3)</text></g><g ewd:code="" ewd:figID="453" ewd:comment="3" ewd:figtype="commref"><text style="&st18;" transform="matrix(&st17;  2123.78  507.76 )">(*3)</text></g></g><g ewd:code="" ewd:figID="510" ewd:comment="1" ewd:figtype="commref"><text style="&st18;" transform="matrix(&st16;  2359.2  407.72 )">(*1)</text></g><g ewd:code="" ewd:figID="511" ewd:comment="3" ewd:figtype="commref"><text style="&st18;" transform="matrix(&st16;  2359.2  416.79 )">(*3)</text></g><g ewd:code="3" ewd:figID="573" ewd:comment="" ewd:figtype="comment"><text style="&st18;" transform="matrix(&st16;  2452.68  598.65 )">* 3 :1VD-FTV</text></g><g ewd:code="13" ewd:figID="572" ewd:comment="" ewd:figtype="comment"><text style="&st18;" transform="matrix(&st16;  2452.68  607.15 )" ewd:textID="15">*13 :w/o SRS</text></g><g ewd:code="46" ewd:figID="569" ewd:comment="" ewd:figtype="comment"><text style="&st18;" transform="matrix(&st16;  2452.68  624.15 )" ewd:textID="41">*46 :w/o VSC</text></g><g ewd:code="66" ewd:figID="514" ewd:comment="" ewd:figtype="comment"><text style="&st18;" transform="matrix(&st16;  2452.68  666.64 )" ewd:textID="57">*66 :Middle East</text></g><g ewd:code="1" ewd:figID="571" ewd:comment="" ewd:figtype="comment"><text style="&st18;" transform="matrix(&st16;  2452.68  590.16 )">* 1 :1GR-FE</text></g><g ewd:code="31" ewd:figID="570" ewd:comment="" ewd:figtype="comment"><text style="&st18;" transform="matrix(&st16;  2452.68  615.65 )" ewd:textID="28">*31 :Australia</text></g><g ewd:code="59" ewd:figID="568" ewd:comment="" ewd:figtype="comment"><text style="&st18;" transform="matrix(&st16;  2452.68  641.15 )" ewd:textID="50">*59 :From Jul. 2021 Production</text></g><g ewd:code="58" ewd:figID="567" ewd:comment="" ewd:figtype="comment"><text style="&st18;" transform="matrix(&st16;  2452.68  632.65 )" ewd:textID="49">*58 :Before Jul. 2021 Production</text></g><g ewd:code="60" ewd:figID="565" ewd:comment="" ewd:figtype="comment"><text style="&st18;" transform="matrix(&st16;  2452.68  649.65 )" ewd:textID="51">*60 :Before Sep. 2022 Production</text></g><g ewd:code="61" ewd:figID="566" ewd:comment="" ewd:figtype="comment"><text style="&st18;" transform="matrix(&st16;  2452.68  658.14 )" ewd:textID="52">*61 :From Sep. 2022 Production</text></g></svg>
