<?xml version="1.0" encoding="utf-8"?>
<!DOCTYPE svg PUBLIC "-//W3C//DTD SVG 1.0//EN" "http://www.w3.org/TR/2001/REC-SVG-20010904/DTD/svg10.dtd"[
	<!ENTITY ns_flows "http://ns.adobe.com/Flows/1.0/">
	<!ENTITY ns_svg "http://www.w3.org/2000/svg">
	<!ENTITY ns_xlink "http://www.w3.org/1999/xlink">
	<!ENTITY st0 "font-size:7px;font-family:'MS-PGothic';adobe-font-script:japanese;">
	<!ENTITY st1 "font-size:6px;font-family:'ArialMT';">
	<!-- White fill  -->
	<!ENTITY st2 "fill:#FFFFFF;stroke:#000000; stroke-width:1.41;stroke-linecap:round;stroke-linejoin:round;">
	<!-- Yellow fill  -->
	<!ENTITY st3 "fill:#FFFFCC;stroke:#FFFFCC; stroke-width:0.1;stroke-linecap:round;stroke-linejoin:round;">
	<!-- Gray fill  -->
	<!ENTITY st4 "fill:#CCCCCC;stroke:#CCCCCC; stroke-width:0.1;stroke-linecap:round;stroke-linejoin:round;">
	<!-- Light-blue fill -->
	<!ENTITY st5 "fill:#CCECF4;stroke:#000000; stroke-width:1.133;stroke-linecap:round;stroke-linejoin:round;">
	<!ENTITY st6 "fill:none;stroke-linecap:butt; stroke-linejoin:round;">
	<!ENTITY st7 "fill:none;stroke:#000000;stroke-linecap:round;stroke-linejoin:round;">
	<!ENTITY st8 "enable-background:new    ;">
	<!-- Black fill -->
	<!ENTITY st9 "fill:#000000;stroke:#000000; stroke-linecap:round;stroke-linejoin:round;">
	<!-- SRS note   -->
	<!ENTITY st10 "font-size:9px;font-family:'ArialMT';">
	<!ENTITY st11 "font-size:9px;font-family:'Svg Symbol';">
	<!ENTITY st12 "font-size:6px;font-family:'Svg Symbol';">
	<!ENTITY st13 "fill:none;stroke:#ff0000;stroke-linecap:round;stroke-linejoin:round;">
	<!-- Yellow fill  -->
	<!ENTITY st14 "fill:#FFFF00;stroke:#FFFF00; stroke-width:0.1;stroke-linecap:round;stroke-linejoin:round;">
	<!ENTITY st15 "font-size:6px;font-family:'MS-PGothic';adobe-font-script:japanese;">
	<!ENTITY st16 "1.00 0.00 0.00 1.00">
	<!ENTITY st17 "0.00 -1.00 1.00 0.00">
	<!ENTITY st18 "font-size:6px;font-family:'Arial';">
	<!ENTITY st19 "font-size:9px;font-family:'Arial';">
	<!ENTITY st20 "font-size:6px;font-family:'MS-PGothic','MS PGothic';adobe-font-script:japanese;">
	<!ENTITY st21 "font-size:7px;font-family:'MS-PGothic','MS PGothic';adobe-font-script:japanese;">
	<!ATTLIST svg
		xmlns:ewd CDATA #FIXED "http://shcl.co.jp/ewd"
		xmlns:a CDATA #FIXED "http://ns.adobe.com/AdobeSVGViewerExtensions/3.0/"
		ewd:ver CDATA #IMPLIED
	>
	<!ATTLIST a
		ewd:lineID CDATA #IMPLIED
		ewd:groupID CDATA #IMPLIED
		ewd:figtype CDATA #IMPLIED
		ewd:code CDATA #IMPLIED
		ewd:figID CDATA #IMPLIED
		ewd:pinNo CDATA #IMPLIED
		ewd:comment CDATA #IMPLIED >
	<!ATTLIST g
		ewd:lineID CDATA #IMPLIED
		ewd:groupID CDATA #IMPLIED
		ewd:figtype CDATA #IMPLIED
		ewd:code CDATA #IMPLIED
		ewd:figID CDATA #IMPLIED
		ewd:pinNo CDATA #IMPLIED
		ewd:comment CDATA #IMPLIED >
	<!ATTLIST text
		ewd:textID CDATA #IMPLIED >
	<!ATTLIST title
		ewd:textID CDATA #IMPLIED >
]>
<!-- Generator: Shintec Hozumi YS   -->
<svg onload="call_execInitLoadProc_svg('system')" style="overflow:visible;  enable-background:new 0 0 1030.199 710.000" viewBox="0 0 1030.199 710.000" height="710.000" width="1030.199" xml:space="preserve" ewd:ver="2.3.1.16" xmlns="&ns_svg;" xmlns:a="http://ns.adobe.com/AdobeSVGViewerExtensions/3.0/" xmlns:ewd="http://shcl.co.jp/ewd" xmlns:xlink="&ns_xlink;">
<path style="stroke-width: 1.42 ;&st7;  " d=" M   722.38,   137.76  L   713.88,   137.76  " /><path style="stroke-width: 1.42 ;&st7;  " d=" M   747.88,   605.18  L   739.38,   605.18  " /><path style="stroke-width: 1.42 ;&st7;  " d=" M   730.88,   545.69  L   739.38,   545.69  " /><path style="stroke-width: 1.42 ;&st7;  " d=" M   994.33,   134.24  L   989.36,   129.26  " /><path style="stroke-width: 1.42 ;&st7;  " d=" M   977.34,   141.29  L   982.31,   146.26  " /><path style="stroke-width: 1.42 ;&st7;  " d=" M   989.36,   146.26  L   994.33,   141.29  " /><path style="stroke-width: 1.42 ;&st7;  " d=" M   982.31,   129.26  L   977.34,   134.24  " /><path style="stroke-width: 1.42 ;&st7;  " d=" M   790.37,   499.67  L   785.40,   494.70  " /><path style="stroke-width: 1.42 ;&st7;  " d=" M   773.37,   506.73  L   778.34,   511.70  " /><path style="stroke-width: 1.42 ;&st7;  " d=" M   785.40,   511.70  L   790.37,   506.73  " /><path style="stroke-width: 1.42 ;&st7;  " d=" M   778.34,   494.70  L   773.37,   499.67  " /><path style="stroke-width: 1.42 ;&st7;  " d=" M   747.88,   644.15  L   742.90,   639.18  " /><path style="stroke-width: 1.42 ;&st7;  " d=" M   730.88,   651.21  L   735.85,   656.18  " /><path style="stroke-width: 1.42 ;&st7;  " d=" M   742.90,   656.18  L   747.88,   651.21  " /><path style="stroke-width: 1.42 ;&st7;  " d=" M   735.85,   639.18  L   730.88,   644.15  " /><text style="&st18;" transform="matrix(&st17;  710.19  184.93 )">B-Y</text><text style="&st18;" transform="matrix(&st17;  939.65  211.92 )">R</text><text style="&st18;" transform="matrix(&st17;  625.2  530.35 )">Y</text><text style="&st18;" transform="matrix(&st17;  982.14  114.19 )">R</text><text style="&st18;" transform="matrix(&st17;  735.68  430.65 )">BR</text><text style="&st18;" transform="matrix(&st17;  625.2  453.86 )">Y</text><text style="&st18;" transform="matrix(&st17;  735.68  634.62 )">BR</text><text style="&st18;" transform="matrix(&st17;  735.68  583.63 )">BR</text><text style="&st18;" transform="matrix(&st16;  760.44  474.01 )">BR</text><text style="&st18;" transform="matrix(&st16;  758.15  485.34 )">(*10)</text><text style="&st18;" transform="matrix(&st16;  760.44  525.0 )">BR</text><text style="&st18;" transform="matrix(&st16;  758.15  536.33 )">(*10)</text><text style="&st18;" transform="matrix(&st17;  735.68  507.14 )">BR</text><text style="&st18;" transform="matrix(&st17;  747.01  515.13 )">(*3,*6 *7)</text><text style="&st18;" transform="matrix(&st17;  735.68  672.86 )">BR</text><text style="&st18;" transform="matrix(&st16;  541.76  626.98 )">Y</text><path style="stroke-width: 1.42 ;&st7;  " d=" M   620.40,   494.70  L   628.89,   494.70  " /><path style="stroke-width: 1.42 ;&st7;  " d=" M   730.88,   443.71  L   739.38,   443.71  " /><text style="&st18;" transform="matrix(&st17;  670.53  100.36 )">(RHD *13)</text><text style="&st18;" transform="matrix(&st17;  710.19  91.45 )">B-Y</text><text style="&st18;" transform="matrix(&st17;  659.19  91.45 )">B-Y</text><text style="&st18;" transform="matrix(&st17;  670.53  193.85 )">(RHD *11)</text><text style="&st18;" transform="matrix(&st17;  721.52  99.82 )">(LHD *13)</text><text style="&st18;" transform="matrix(&st17;  721.52  193.31 )">(LHD *11)</text><path style="stroke-width: 1.42 ;&st7;  " d=" M   951.84,   171.76  L   943.34,   171.76  " /><text style="&st18;" transform="matrix(&st16;  957.92  134.07 )">R</text><path style="stroke-width: 1.42 ;&st7;  " d=" M   654.39,   129.26  L   662.89,   129.26  " /><text style="&st18;" transform="matrix(&st17;  659.19  184.93 )">B-Y</text><text style="&st18;" transform="matrix(&st17;  735.68  182.02 )">V</text><text style="&st18;" transform="matrix(&st17;  747.01  193.31 )">(LHD *12)</text><text style="&st18;" transform="matrix(&st17;  633.7  182.02 )">V</text><text style="&st18;" transform="matrix(&st17;  645.03  193.85 )">(RHD *12)</text><text style="&st18;" transform="matrix(&st17;  636.53  458.44 )">(*11)</text><text style="&st18;" transform="matrix(&st17;  650.69  453.98 )">P</text><text style="&st18;" transform="matrix(&st17;  662.03  458.44 )">(*12)</text><text style="&st18;" transform="matrix(&st17;  500.56  325.58 )">(RHD *14)</text><text style="&st18;" transform="matrix(&st17;  500.56  185.35 )">(RHD *14)</text><text style="&st18;" transform="matrix(&st17;  880.16  142.44 )">B-Y</text><text style="&st18;" transform="matrix(&st17;  891.49  143.99 )">(*13)</text><text style="&st18;" transform="matrix(&st17;  905.65  142.01 )">GR</text><text style="&st18;" transform="matrix(&st17;  916.98  143.99 )">(*14)</text><text style="&st18;" transform="matrix(&st16;  771.11  108.57 )">V</text><text style="&st18;" transform="matrix(&st16;  759.82  119.9 )">(LHD *14)</text><text style="&st18;" transform="matrix(&st16;  771.11  15.09 )">V</text><text style="&st18;" transform="matrix(&st16;  759.28  26.42 )">(RHD *14)</text><g ewd:figtype="rb" ewd:figID="1" ewd:code="FUSE5"><path style="stroke-width: 1.42 ;&st7;  " d=" M   987.96,    95.27  L   983.71,    95.27  " /><path style="stroke-width: 1.42 ;&st7;  " d=" M   987.96,   103.77  L   983.71,   103.77  " /><path style="stroke-width: 0.85 ;&st7;  " d=" M   985.84,    78.27  L   985.84,    95.27  " /><path style="stroke-width: 1.42 ;&st7;   " d=" M   983.71,    95.27  C   981.36     95.27    979.46     97.17    979.46     99.52  " /><path style="stroke-width: 1.42 ;&st7;   " d=" M   979.46,    99.52  C   979.46    101.87    981.36    103.77    983.71    103.77  " /><path style="stroke-width: 1.42 ;&st7;   " d=" M   987.96,   103.77  C   990.31    103.77    992.21    101.87    992.21     99.52  " /><path style="stroke-width: 1.42 ;&st7;   " d=" M   992.21,    99.52  C   992.21     97.17    990.31     95.27    987.96     95.27  " /><path style="stroke-width: 0.28 ;&st9;  " d=" M   985.83,    90.37  L   983.00,    87.54  L   983.00,    91.79  L   985.83,    94.62  L   988.67,    91.79  L   988.67,    87.54  L   985.83,    90.37  " /><text style="&st18;" transform="matrix(&st16;  1002.26  53.34 )">10A <tspan x="0 " dy="6.0">DOME </tspan><tspan x="0 " dy="6.0">NO.1</tspan></text><text style="&st18;" transform="matrix(&st16;  983.96  101.49 )">2</text><text style="&st18;" transform="matrix(&st16;  979.5  86.47 )">2</text><text style="&st18;" transform="matrix(&st16;  977.75  32.08 )">(BAT)</text><path style="stroke-width: 0.85 ;&st7;  " d=" M   985.84,    69.77  L   985.84,    78.27  " /><path style="stroke-width: 1.42 ;&st7;   " d=" M   985.84,    47.11  C   983.10     48.72    982.19     52.25    983.80     54.99  " /><path style="stroke-width: 1.42 ;&st7;   " d=" M   983.80,    54.99  C   984.32     55.87    984.95     56.51    985.84     57.03  " /><path style="stroke-width: 1.42 ;&st7;   " d=" M   985.84,    66.94  C   988.57     65.33    989.49     61.80    987.87     59.06  " /><path style="stroke-width: 1.42 ;&st7;   " d=" M   987.87,    59.06  C   987.35     58.18    986.72     57.55    985.84     57.03  " /><path style="stroke-width: 0.85 ;&st7;   " d=" M   987.25,    45.69  C   987.25     44.91    986.62     44.28    985.84     44.28  " /><path style="stroke-width: 0.85 ;&st7;   " d=" M   985.84,    44.28  C   985.05     44.28    984.42     44.91    984.42     45.69  " /><path style="stroke-width: 0.85 ;&st7;   " d=" M   984.42,    45.69  C   984.42     46.48    985.05     47.11    985.84     47.11  " /><path style="stroke-width: 0.85 ;&st7;   " d=" M   985.84,    47.11  C   986.62     47.11    987.25     46.48    987.25     45.69  " /><path style="stroke-width: 0.85 ;&st7;   " d=" M   987.25,    68.36  C   987.25     67.57    986.62     66.94    985.84     66.94  " /><path style="stroke-width: 0.85 ;&st7;   " d=" M   985.84,    66.94  C   985.05     66.94    984.42     67.57    984.42     68.36  " /><path style="stroke-width: 0.85 ;&st7;   " d=" M   984.42,    68.36  C   984.42     69.14    985.05     69.77    985.84     69.77  " /><path style="stroke-width: 0.85 ;&st7;   " d=" M   985.84,    69.77  C   986.62     69.77    987.25     69.14    987.25     68.36  " /><path style="stroke-width: 1.42 ;&st7;  " d=" M   973.09,    35.78  L   973.09,    78.27  L   998.58,    78.27  L   998.58,    35.78  L   973.09,    35.78  " /></g><g ewd:figtype="rb" ewd:figID="2" ewd:code="FUSE18"><path style="stroke-width: 1.42 ;&st7;  " d=" M   885.98,    95.27  L   881.73,    95.27  " /><path style="stroke-width: 1.42 ;&st7;  " d=" M   885.98,   103.77  L   881.73,   103.77  " /><path style="stroke-width: 0.85 ;&st7;  " d=" M   883.85,    78.27  L   883.85,    95.27  " /><path style="stroke-width: 1.42 ;&st7;   " d=" M   881.73,    95.27  C   879.38     95.27    877.48     97.17    877.48     99.52  " /><path style="stroke-width: 1.42 ;&st7;   " d=" M   877.48,    99.52  C   877.48    101.87    879.38    103.77    881.73    103.77  " /><path style="stroke-width: 1.42 ;&st7;   " d=" M   885.98,   103.77  C   888.32    103.77    890.23    101.87    890.23     99.52  " /><path style="stroke-width: 1.42 ;&st7;   " d=" M   890.23,    99.52  C   890.23     97.17    888.32     95.27    885.98     95.27  " /><path style="stroke-width: 0.28 ;&st9;  " d=" M   883.85,    90.37  L   881.02,    87.54  L   881.02,    91.79  L   883.85,    94.62  L   886.68,    91.79  L   886.68,    87.54  L   883.85,    90.37  " /><text style="&st18;" transform="matrix(&st16;  900.28  56.17 )">10A <tspan x="0 " dy="6.0">MET</tspan></text><text style="&st18;" transform="matrix(&st16;  881.97  101.49 )">2</text><text style="&st18;" transform="matrix(&st16;  877.51  86.47 )">2</text><text style="&st18;" transform="matrix(&st16;  878.48  32.08 )">(IG)</text><path style="stroke-width: 0.85 ;&st7;  " d=" M   883.85,    69.77  L   883.85,    78.27  " /><path style="stroke-width: 1.42 ;&st7;   " d=" M   883.85,    47.11  C   881.11     48.72    880.20     52.25    881.82     54.99  " /><path style="stroke-width: 1.42 ;&st7;   " d=" M   881.82,    54.99  C   882.34     55.87    882.97     56.51    883.85     57.03  " /><path style="stroke-width: 1.42 ;&st7;   " d=" M   883.85,    66.94  C   886.59     65.33    887.50     61.80    885.89     59.06  " /><path style="stroke-width: 1.42 ;&st7;   " d=" M   885.89,    59.06  C   885.37     58.18    884.73     57.55    883.85     57.03  " /><path style="stroke-width: 0.85 ;&st7;   " d=" M   885.27,    45.69  C   885.27     44.91    884.63     44.28    883.85     44.28  " /><path style="stroke-width: 0.85 ;&st7;   " d=" M   883.85,    44.28  C   883.07     44.28    882.44     44.91    882.44     45.69  " /><path style="stroke-width: 0.85 ;&st7;   " d=" M   882.44,    45.69  C   882.44     46.48    883.07     47.11    883.85     47.11  " /><path style="stroke-width: 0.85 ;&st7;   " d=" M   883.85,    47.11  C   884.63     47.11    885.27     46.48    885.27     45.69  " /><path style="stroke-width: 0.85 ;&st7;   " d=" M   885.27,    68.36  C   885.27     67.57    884.63     66.94    883.85     66.94  " /><path style="stroke-width: 0.85 ;&st7;   " d=" M   883.85,    66.94  C   883.07     66.94    882.44     67.57    882.44     68.36  " /><path style="stroke-width: 0.85 ;&st7;   " d=" M   882.44,    68.36  C   882.44     69.14    883.07     69.77    883.85     69.77  " /><path style="stroke-width: 0.85 ;&st7;   " d=" M   883.85,    69.77  C   884.63     69.77    885.27     69.14    885.27     68.36  " /><path style="stroke-width: 1.42 ;&st7;  " d=" M   871.10,    35.78  L   871.10,    78.27  L   896.60,    78.27  L   896.60,    35.78  L   871.10,    35.78  " /></g><g ewd:figtype="conn" ewd:figID="6" ewd:code="I72,I106"><path style="stroke-width: 1.42 ;&st7;  " d=" M   815.86,   146.26  L   832.86,   146.26  L   832.86,   163.26  L   815.86,   163.26  L   815.86,   146.26  " /><path style="stroke-width: 0.85 ;&st7;  " d=" M   824.36,   146.26  L   824.36,   163.26  " /><text style="&st18;" transform="matrix(&st16;  814.88  143.7 )">2</text><text style="&st18;" transform="matrix(&st16;  814.88  134.63 )">2</text><text style="&st18;" transform="matrix(&st16;  822.1  134.63 )">A</text><path style="stroke-width: 1.42 ;&st7;   " d=" M   828.89,   132.66  C   828.89    130.16    826.87    128.13    824.36    128.13  " /><path style="stroke-width: 1.42 ;&st7;   " d=" M   824.36,   128.13  C   821.86    128.13    819.83    130.16    819.83    132.66  " /><path style="stroke-width: 1.42 ;&st7;   " d=" M   819.83,   132.66  C   819.83    135.17    821.86    137.20    824.36    137.20  " /><path style="stroke-width: 1.42 ;&st7;   " d=" M   824.36,   137.20  C   826.87    137.20    828.89    135.17    828.89    132.66  " /><path style="stroke-width: 1.42 ;&st7;   " d=" M   828.89,   141.73  C   828.89    139.23    826.87    137.20    824.36    137.20  " /><path style="stroke-width: 1.42 ;&st7;   " d=" M   824.36,   137.20  C   821.86    137.20    819.83    139.23    819.83    141.73  " /><path style="stroke-width: 1.42 ;&st7;   " d=" M   819.83,   141.73  C   819.83    144.23    821.86    146.26    824.36    146.26  " /><path style="stroke-width: 1.42 ;&st7;   " d=" M   824.36,   146.26  C   826.87    146.26    828.89    144.23    828.89    141.73  " /><text style="&st18;" transform="matrix(&st16;  822.1  143.7 )">B</text><text style="&st18;" transform="matrix(&st16;  814.88  169.76 )">1</text><text style="&st18;" transform="matrix(&st16;  814.88  178.82 )">1</text><text style="&st18;" transform="matrix(&st16;  822.1  178.82 )">B</text><text style="&st18;" transform="matrix(&st16;  822.1  169.76 )">A</text><path style="stroke-width: 1.42 ;&st7;   " d=" M   828.89,   167.79  C   828.89    165.29    826.87    163.26    824.36    163.26  " /><path style="stroke-width: 1.42 ;&st7;   " d=" M   824.36,   163.26  C   821.86    163.26    819.83    165.29    819.83    167.79  " /><path style="stroke-width: 1.42 ;&st7;   " d=" M   819.83,   167.79  C   819.83    170.29    821.86    172.32    824.36    172.32  " /><path style="stroke-width: 1.42 ;&st7;   " d=" M   824.36,   172.32  C   826.87    172.32    828.89    170.29    828.89    167.79  " /><path style="stroke-width: 1.42 ;&st7;   " d=" M   828.89,   176.86  C   828.89    174.35    826.87    172.32    824.36    172.32  " /><path style="stroke-width: 1.42 ;&st7;   " d=" M   824.36,   172.32  C   821.86    172.32    819.83    174.35    819.83    176.86  " /><path style="stroke-width: 1.42 ;&st7;   " d=" M   819.83,   176.86  C   819.83    179.36    821.86    181.39    824.36    181.39  " /><path style="stroke-width: 1.42 ;&st7;   " d=" M   824.36,   181.39  C   826.87    181.39    828.89    179.36    828.89    176.86  " /><g ewd:figtype="title"><text style="&st18;" transform="matrix(&st17;  793.45  166.16 )">I106(B)</text><text style="&st18;" transform="matrix(&st17;  800.27  166.16 )" ewd:textID="19">No. 9 <tspan x="0 " dy="6.0">Junction </tspan><tspan x="0 " dy="6.0">Connector</tspan></text><text style="&st18;" transform="matrix(&st17;  767.38  166.16 )">I72(A)</text><text style="&st18;" transform="matrix(&st17;  774.21  166.16 )" ewd:textID="24">No. 21 <tspan x="0 " dy="6.0">Junction </tspan><tspan x="0 " dy="6.0">Connector</tspan></text></g><g ewd:code="" ewd:figID="52" ewd:comment="" ewd:figtype="commref"><text style="&st18;" transform="matrix(&st16;  829.46  143.7 )">(RHD)</text></g><g ewd:code="" ewd:figID="53" ewd:comment="" ewd:figtype="commref"><text style="&st18;" transform="matrix(&st16;  829.46  134.63 )">(LHD)</text></g><g ewd:code="" ewd:figID="54" ewd:comment="" ewd:figtype="commref"><text style="&st18;" transform="matrix(&st16;  829.46  178.82 )">(RHD)</text></g><g ewd:code="" ewd:figID="55" ewd:comment="" ewd:figtype="commref"><text style="&st18;" transform="matrix(&st16;  829.46  169.76 )">(LHD)</text></g></g><g ewd:figtype="conn" ewd:figID="7" ewd:code="I67,I107"><path style="stroke-width: 0.85 ;&st7;  " d=" M   628.89,   588.19  L   628.89,   571.19  " /><path style="stroke-width: 1.42 ;&st7;  " d=" M   620.40,   588.19  L   637.39,   588.19  L   637.39,   571.19  L   620.40,   571.19  L   620.40,   588.19  " /><text style="&st18;" transform="matrix(&st16;  619.41  594.69 )">2</text><text style="&st18;" transform="matrix(&st16;  616.08  603.75 )">10</text><path style="stroke-width: 1.42 ;&st7;   " d=" M   633.43,   592.72  C   633.43    590.22    631.40    588.19    628.89    588.19  " /><path style="stroke-width: 1.42 ;&st7;   " d=" M   628.89,   588.19  C   626.39    588.19    624.36    590.22    624.36    592.72  " /><path style="stroke-width: 1.42 ;&st7;   " d=" M   624.36,   592.72  C   624.36    595.22    626.39    597.25    628.89    597.25  " /><path style="stroke-width: 1.42 ;&st7;   " d=" M   628.89,   597.25  C   631.40    597.25    633.43    595.22    633.43    592.72  " /><path style="stroke-width: 1.42 ;&st7;   " d=" M   633.43,   601.78  C   633.43    599.28    631.40    597.25    628.89    597.25  " /><path style="stroke-width: 1.42 ;&st7;   " d=" M   628.89,   597.25  C   626.39    597.25    624.36    599.28    624.36    601.78  " /><path style="stroke-width: 1.42 ;&st7;   " d=" M   624.36,   601.78  C   624.36    604.29    626.39    606.32    628.89    606.32  " /><path style="stroke-width: 1.42 ;&st7;   " d=" M   628.89,   606.32  C   631.40    606.32    633.43    604.29    633.43    601.78  " /><text style="&st18;" transform="matrix(&st16;  626.63  594.69 )">A</text><text style="&st18;" transform="matrix(&st16;  626.63  603.75 )">B</text><text style="&st18;" transform="matrix(&st16;  619.41  559.56 )">1</text><text style="&st18;" transform="matrix(&st16;  619.41  568.63 )">9</text><path style="stroke-width: 1.42 ;&st7;   " d=" M   633.43,   557.59  C   633.43    555.09    631.40    553.06    628.89    553.06  " /><path style="stroke-width: 1.42 ;&st7;   " d=" M   628.89,   553.06  C   626.39    553.06    624.36    555.09    624.36    557.59  " /><path style="stroke-width: 1.42 ;&st7;   " d=" M   624.36,   557.59  C   624.36    560.10    626.39    562.12    628.89    562.12  " /><path style="stroke-width: 1.42 ;&st7;   " d=" M   628.89,   562.12  C   631.40    562.12    633.43    560.10    633.43    557.59  " /><path style="stroke-width: 1.42 ;&st7;   " d=" M   633.43,   566.66  C   633.43    564.15    631.40    562.12    628.89    562.12  " /><path style="stroke-width: 1.42 ;&st7;   " d=" M   628.89,   562.12  C   626.39    562.12    624.36    564.15    624.36    566.66  " /><path style="stroke-width: 1.42 ;&st7;   " d=" M   624.36,   566.66  C   624.36    569.16    626.39    571.19    628.89    571.19  " /><path style="stroke-width: 1.42 ;&st7;   " d=" M   628.89,   571.19  C   631.40    571.19    633.43    569.16    633.43    566.66  " /><text style="&st18;" transform="matrix(&st16;  626.63  568.63 )">B</text><text style="&st18;" transform="matrix(&st16;  626.63  559.56 )">A</text><g ewd:figtype="title"><text style="&st18;" transform="matrix(&st17;  603.93  591.09 )">I107(B)</text><text style="&st18;" transform="matrix(&st17;  583.81  591.09 )">I67(A)</text><text style="&st18;" transform="matrix(&st17;  590.64  591.09 )" ewd:textID="23">No. 16 Junction <tspan x="0 " dy="6.0">Connector</tspan></text><text style="&st18;" transform="matrix(&st17;  610.75  591.09 )" ewd:textID="21">No. 12 Junction <tspan x="0 " dy="6.0">Connector</tspan></text></g><g ewd:code="" ewd:figID="51" ewd:comment="" ewd:figtype="commref"><text style="&st18;" transform="matrix(&st16;  633.99  568.63 )">(RHD)</text></g><g ewd:code="" ewd:figID="58" ewd:comment="" ewd:figtype="commref"><text style="&st18;" transform="matrix(&st16;  633.99  559.56 )">(LHD)</text></g><g ewd:code="" ewd:figID="59" ewd:comment="" ewd:figtype="commref"><text style="&st18;" transform="matrix(&st16;  633.99  594.69 )">(LHD)</text></g><g ewd:code="" ewd:figID="60" ewd:comment="" ewd:figtype="commref"><text style="&st18;" transform="matrix(&st16;  633.99  603.75 )">(RHD)</text></g></g><g ewd:figtype="conn" ewd:figID="13" ewd:code="L25,L26"><path style="stroke-width: 0.85 ;&st7;  " d=" M   633.14,   384.22  L   624.65,   384.22  " /><path style="stroke-width: 0.85 ;&st7;  " d=" M   641.63,   315.07  L   634.27,   319.32  " /><path style="stroke-width: 0.85 ;&st7;  " d=" M   739.38,   286.49  L   739.38,   294.99  " /><path style="stroke-width: 0.85 ;&st7;  " d=" M   633.14,   324.73  L   624.65,   324.73  " /><path style="stroke-width: 0.85 ;&st7;  " d=" M   636.27,   322.78  L   643.63,   318.54  " /><path style="stroke-width: 0.85 ;&st7;  " d=" M   718.13,   273.74  L   709.63,   273.74  " /><path style="stroke-width: 0.85 ;&st7;  " d=" M   947.59,   273.74  L   939.09,   273.74  " /><path style="stroke-width: 1.42 ;&st7;  " d=" M   658.64,   331.10  L   650.14,   331.10  " /><path style="stroke-width: 1.42 ;&st7;  " d=" M   658.64,   326.86  L   650.14,   326.86  " /><path style="stroke-width: 0.85 ;&st7;  " d=" M   654.39,   326.86  L   654.39,   307.73  " /><path style="stroke-width: 0.85 ;&st7;  " d=" M   654.39,   341.73  L   654.39,   331.10  " /><path style="stroke-width: 0.28 ;&st9;  " d=" M   628.89,   324.73  L   623.23,   316.23  L   634.56,   316.23  L   628.89,   324.73  " /><path style="stroke-width: 0.28 ;&st9;  " d=" M   628.89,   384.22  L   623.23,   375.72  L   634.56,   375.72  L   628.89,   384.22  " /><path style="stroke-width: 0.85 ;&st7;  " d=" M   628.89,   401.22  L   628.89,   367.22  L   626.06,   365.81  L   631.73,   362.97  L   626.06,   360.14  L   631.73,   357.31  L   626.06,   354.48  L   631.73,   351.64  L   628.89,   350.23  L   628.89,   290.74  L   756.37,   290.74  " /><path style="stroke-width: 0.85 ;&st7;  " d=" M   641.63,   315.07  L   639.29,   318.11  L   637.83,   315.57  L   641.63,   315.07  L   640.35,   315.81  L   639.36,   317.09  L   638.74,   316.02  L   640.35,   315.81  L   639.70,   316.18  L   639.39,   316.58  L   639.20,   316.24  L   639.70,   316.18  " /><path style="stroke-width: 0.28 ;&st9;  " d=" M   943.34,   273.74  L   937.68,   265.24  L   949.01,   265.24  L   943.34,   273.74  " /><path style="stroke-width: 0.85 ;&st7;  " d=" M   755.18,   289.73  L   754.91,   290.20  L   754.82,   290.74  L   754.91,   291.27  L   755.18,   291.74  L   755.59,   292.09  L   756.10,   292.27  L   756.65,   292.27  L   757.15,   292.09  L   757.57,   291.74  L   757.84,   291.27  L   757.93,   290.74  L   757.84,   290.20  L   757.57,   289.73  L   757.15,   289.39  L   756.65,   289.20  L   756.10,   289.20  L   755.59,   289.39  L   755.18,   289.73  L   755.57,   290.45  L   755.57,   291.03  L   755.95,   291.47  L   756.52,   291.57  L   757.02,   291.28  L   757.22,   290.74  L   757.02,   290.19  L   756.52,   289.90  L   755.95,   290.00  L   756.37,   290.74  " /><path style="stroke-width: 0.85 ;&st7;  " d=" M   756.37,   324.73  L   756.37,   290.74  L   943.34,   290.74  L   943.34,   248.24  " /><path style="stroke-width: 0.28 ;&st9;  " d=" M   739.38,   290.74  L   730.88,   296.40  L   730.88,   285.07  L   739.38,   290.74  " /><path style="stroke-width: 1.42 ;&st7;  " d=" M   713.88,   324.73  L   713.88,   341.73  L   798.87,   341.73  L   798.87,   324.73  L   713.88,   324.73  " /><path style="stroke-width: 1.42 ;&st7;  " d=" M   603.40,   248.24  L   603.40,   401.22  L   977.34,   401.22  L   977.34,   248.24  L   603.40,   248.24  " /><path style="stroke-width: 0.85 ;&st7;  " d=" M   643.63,   318.54  L   641.30,   321.58  L   639.83,   319.04  L   643.63,   318.54  L   642.35,   319.28  L   641.36,   320.56  L   640.74,   319.49  L   642.35,   319.28  L   641.71,   319.65  L   641.40,   320.05  L   641.20,   319.71  L   641.71,   319.65  " /><path style="stroke-width: 0.28 ;&st9;  " d=" M   713.88,   273.74  L   708.21,   265.24  L   719.55,   265.24  L   713.88,   273.74  " /><path style="stroke-width: 0.85 ;&st7;  " d=" M   713.88,   248.24  L   713.88,   290.74  " /><path style="stroke-width: 0.85 ;&st7;  " d=" M   712.69,   289.73  L   712.42,   290.20  L   712.32,   290.74  L   712.42,   291.27  L   712.69,   291.74  L   713.10,   292.09  L   713.61,   292.27  L   714.15,   292.27  L   714.66,   292.09  L   715.07,   291.74  L   715.35,   291.27  L   715.44,   290.74  L   715.35,   290.20  L   715.07,   289.73  L   714.66,   289.39  L   714.15,   289.20  L   713.61,   289.20  L   713.10,   289.39  L   712.69,   289.73  L   713.08,   290.45  L   713.08,   291.03  L   713.46,   291.47  L   714.03,   291.57  L   714.53,   291.28  L   714.73,   290.74  L   714.53,   290.19  L   714.03,   289.90  L   713.46,   290.00  L   713.88,   290.74  " /><path style="stroke-width: 0.85 ;&st7;  " d=" M   671.39,   341.73  L   671.39,   333.23  L   668.55,   331.81  L   674.22,   328.98  L   668.55,   326.15  L   674.22,   323.31  L   668.55,   320.48  L   674.22,   317.65  L   671.39,   316.23  L   671.39,   307.73  " /><path style="stroke-width: 0.85 ;&st7;  " d=" M   628.89,   307.73  L   671.39,   307.73  " /><path style="stroke-width: 0.85 ;&st7;  " d=" M   628.89,   341.73  L   671.39,   341.73  " /><path style="stroke-width: 0.85 ;&st7;  " d=" M   653.20,   306.73  L   652.93,   307.20  L   652.83,   307.73  L   652.93,   308.27  L   653.20,   308.74  L   653.61,   309.08  L   654.12,   309.27  L   654.66,   309.27  L   655.17,   309.08  L   655.58,   308.74  L   655.85,   308.27  L   655.95,   307.73  L   655.85,   307.20  L   655.58,   306.73  L   655.17,   306.39  L   654.66,   306.20  L   654.12,   306.20  L   653.61,   306.39  L   653.20,   306.73  L   653.59,   307.44  L   653.59,   308.03  L   653.97,   308.47  L   654.54,   308.57  L   655.04,   308.28  L   655.24,   307.73  L   655.04,   307.19  L   654.54,   306.90  L   653.97,   307.00  L   654.39,   307.73  " /><path style="stroke-width: 0.85 ;&st7;  " d=" M   627.70,   306.73  L   627.43,   307.20  L   627.34,   307.73  L   627.43,   308.27  L   627.70,   308.74  L   628.12,   309.08  L   628.62,   309.27  L   629.17,   309.27  L   629.67,   309.08  L   630.09,   308.74  L   630.36,   308.27  L   630.45,   307.73  L   630.36,   307.20  L   630.09,   306.73  L   629.67,   306.39  L   629.17,   306.20  L   628.62,   306.20  L   628.12,   306.39  L   627.70,   306.73  L   628.10,   307.44  L   628.10,   308.03  L   628.47,   308.47  L   629.04,   308.57  L   629.55,   308.28  L   629.74,   307.73  L   629.55,   307.19  L   629.04,   306.90  L   628.47,   307.00  L   628.89,   307.73  " /><path style="stroke-width: 0.85 ;&st7;  " d=" M   627.70,   340.73  L   627.43,   341.20  L   627.34,   341.73  L   627.43,   342.26  L   627.70,   342.73  L   628.12,   343.08  L   628.62,   343.26  L   629.17,   343.26  L   629.67,   343.08  L   630.09,   342.73  L   630.36,   342.26  L   630.45,   341.73  L   630.36,   341.20  L   630.09,   340.73  L   629.67,   340.38  L   629.17,   340.19  L   628.62,   340.19  L   628.12,   340.38  L   627.70,   340.73  L   628.10,   341.44  L   628.10,   342.02  L   628.47,   342.46  L   629.04,   342.56  L   629.55,   342.28  L   629.74,   341.73  L   629.55,   341.18  L   629.04,   340.89  L   628.47,   340.99  L   628.89,   341.73  " /><path style="stroke-width: 0.85 ;&st7;  " d=" M   653.20,   340.73  L   652.93,   341.20  L   652.83,   341.73  L   652.93,   342.26  L   653.20,   342.73  L   653.61,   343.08  L   654.12,   343.26  L   654.66,   343.26  L   655.17,   343.08  L   655.58,   342.73  L   655.85,   342.26  L   655.95,   341.73  L   655.85,   341.20  L   655.58,   340.73  L   655.17,   340.38  L   654.66,   340.19  L   654.12,   340.19  L   653.61,   340.38  L   653.20,   340.73  L   653.59,   341.44  L   653.59,   342.02  L   653.97,   342.46  L   654.54,   342.56  L   655.04,   342.28  L   655.24,   341.73  L   655.04,   341.18  L   654.54,   340.89  L   653.97,   340.99  L   654.39,   341.73  " /><text style="&st18;" transform="matrix(&st17;  621.23  330.0 )" ewd:textID="15">Charge</text><text style="&st18;" transform="matrix(&st16;  749.77  335.2 )">CPU</text><text style="&st18;" transform="matrix(&st16;  631.48  397.53 )">CHG-</text><text style="&st18;" transform="matrix(&st16;  716.46  256.44 )">B</text><text style="&st18;" transform="matrix(&st16;  945.93  256.44 )">B</text><text style="&st18;" transform="matrix(&st16;  735.09  397.52 )">ES</text><text style="&st18;" transform="matrix(&st16;  619.41  407.72 )">1</text><text style="&st18;" transform="matrix(&st16;  626.63  407.72 )">B</text><path style="stroke-width: 1.42 ;&st7;   " d=" M   633.43,   405.75  C   633.43    403.25    631.40    401.22    628.89    401.22  " /><path style="stroke-width: 1.42 ;&st7;   " d=" M   628.89,   401.22  C   626.39    401.22    624.36    403.25    624.36    405.75  " /><path style="stroke-width: 1.42 ;&st7;   " d=" M   624.36,   405.75  C   624.36    408.25    626.39    410.28    628.89    410.28  " /><path style="stroke-width: 1.42 ;&st7;   " d=" M   628.89,   410.28  C   631.40    410.28    633.43    408.25    633.43    405.75  " /><text style="&st18;" transform="matrix(&st16;  701.07  245.68 )">28</text><text style="&st18;" transform="matrix(&st16;  711.61  245.68 )">A</text><path style="stroke-width: 1.42 ;&st7;   " d=" M   718.41,   243.71  C   718.41    241.21    716.38    239.18    713.88    239.18  " /><path style="stroke-width: 1.42 ;&st7;   " d=" M   713.88,   239.18  C   711.38    239.18    709.35    241.21    709.35    243.71  " /><path style="stroke-width: 1.42 ;&st7;   " d=" M   709.35,   243.71  C   709.35    246.21    711.38    248.24    713.88    248.24  " /><path style="stroke-width: 1.42 ;&st7;   " d=" M   713.88,   248.24  C   716.38    248.24    718.41    246.21    718.41    243.71  " /><text style="&st18;" transform="matrix(&st16;  726.56  407.72 )">15</text><text style="&st18;" transform="matrix(&st16;  737.11  407.72 )">A</text><path style="stroke-width: 1.42 ;&st7;   " d=" M   743.91,   405.75  C   743.91    403.25    741.88    401.22    739.38    401.22  " /><path style="stroke-width: 1.42 ;&st7;   " d=" M   739.38,   401.22  C   736.87    401.22    734.84    403.25    734.84    405.75  " /><path style="stroke-width: 1.42 ;&st7;   " d=" M   734.84,   405.75  C   734.84    408.25    736.87    410.28    739.38    410.28  " /><path style="stroke-width: 1.42 ;&st7;   " d=" M   739.38,   410.28  C   741.88    410.28    743.91    408.25    743.91    405.75  " /><text style="&st18;" transform="matrix(&st16;  930.53  245.68 )">26</text><path style="stroke-width: 1.42 ;&st7;   " d=" M   947.87,   243.71  C   947.87    241.21    945.85    239.18    943.34    239.18  " /><path style="stroke-width: 1.42 ;&st7;   " d=" M   943.34,   239.18  C   940.84    239.18    938.81    241.21    938.81    243.71  " /><path style="stroke-width: 1.42 ;&st7;   " d=" M   938.81,   243.71  C   938.81    246.21    940.84    248.24    943.34    248.24  " /><path style="stroke-width: 1.42 ;&st7;   " d=" M   943.34,   248.24  C   945.85    248.24    947.87    246.21    947.87    243.71  " /><text style="&st18;" transform="matrix(&st16;  941.08  245.68 )">A</text><g ewd:figtype="title"><text style="&st18;" transform="matrix(&st16;  820.96  415.94 )" ewd:textID="16">Combination Meter Assembly</text><text style="&st18;" transform="matrix(&st16;  820.95  409.11 )">L25(A),L26(B)</text></g></g><g ewd:figtype="w2w" ewd:figID="26" ewd:code="IL5"><text style="&st18;" transform="matrix(&st16;  612.14  509.42 )">19</text><g ewd:code="" ewd:figID="73" ewd:comment="" ewd:figtype="commref"><text style="&st18;" transform="matrix(&st16;  637.93  509.42 )">(RHD)</text></g></g><g ewd:figtype="w2w" ewd:figID="27" ewd:code="IL1"><path style="stroke-width: 1.42 ;&st7;  " d=" M   633.14,   489.04  L   628.89,   493.29  L   624.65,   489.04  " /><path style="stroke-width: 1.42 ;&st7;  " d=" M   624.65,   485.64  L   628.89,   489.89  L   633.14,   485.64  " /><text style="&st18;" transform="matrix(&st16;  615.48  500.92 )">9</text><g ewd:code="" ewd:figID="74" ewd:comment="" ewd:figtype="commref"><text style="&st18;" transform="matrix(&st16;  637.93  500.92 )">(LHD)</text></g></g><g ewd:figtype="w2w" ewd:figID="28" ewd:code="LI1"><path style="stroke-width: 1.42 ;&st7;  " d=" M   658.64,   120.20  L   662.89,   124.45  L   667.14,   120.20  " /><path style="stroke-width: 1.42 ;&st7;  " d=" M   667.14,   123.60  L   662.89,   127.85  L   658.64,   123.60  " /><text style="&st18;" transform="matrix(&st16;  646.14  135.48 )">18</text></g><g ewd:figtype="w2w" ewd:figID="29" ewd:code="IL2"><path style="stroke-width: 1.42 ;&st7;  " d=" M   718.13,   146.83  L   713.88,   142.58  L   709.63,   146.83  " /><path style="stroke-width: 1.42 ;&st7;  " d=" M   718.13,   143.43  L   713.88,   139.18  L   709.63,   143.43  " /><text style="&st18;" transform="matrix(&st16;  697.13  135.48 )">22</text></g><g ewd:figtype="w2w" ewd:figID="30" ewd:code="AC1"><path style="stroke-width: 1.42 ;&st7;  " d=" M   743.63,   610.85  L   739.38,   606.60  L   735.13,   610.85  " /><path style="stroke-width: 1.42 ;&st7;  " d=" M   743.63,   614.25  L   739.38,   610.00  L   735.13,   614.25  " /><text style="&st18;" transform="matrix(&st16;  725.96  602.9 )">1</text></g><g ewd:figtype="w2w" ewd:figID="31" ewd:code="AI3"><text style="&st18;" transform="matrix(&st16;  722.62  560.41 )">22</text><g ewd:code="" ewd:figID="56" ewd:comment="" ewd:figtype="commref"><text style="&st18;" transform="matrix(&st16;  748.41  560.41 )">(RHD)</text></g></g><g ewd:figtype="w2w" ewd:figID="32" ewd:code="AI3"><path style="stroke-width: 1.42 ;&st7;  " d=" M   743.63,   540.03  L   739.38,   544.28  L   735.13,   540.03  " /><path style="stroke-width: 1.42 ;&st7;  " d=" M   735.13,   536.63  L   739.38,   540.88  L   743.63,   536.63  " /><text style="&st18;" transform="matrix(&st16;  722.62  551.91 )">45</text><g ewd:code="" ewd:figID="57" ewd:comment="" ewd:figtype="commref"><text style="&st18;" transform="matrix(&st16;  748.41  551.91 )">(LHD)</text></g></g><g ewd:figtype="w2w" ewd:figID="33" ewd:code="IL6"><text style="&st18;" transform="matrix(&st16;  722.62  458.43 )">14</text><g ewd:code="" ewd:figID="75" ewd:comment="" ewd:figtype="commref"><text style="&st18;" transform="matrix(&st16;  748.41  458.43 )">(RHD)</text></g></g><g ewd:figtype="w2w" ewd:figID="34" ewd:code="IL2"><path style="stroke-width: 1.42 ;&st7;  " d=" M   743.63,   438.05  L   739.38,   442.29  L   735.13,   438.05  " /><path style="stroke-width: 1.42 ;&st7;  " d=" M   735.13,   434.65  L   739.38,   438.90  L   743.63,   434.65  " /><text style="&st18;" transform="matrix(&st16;  725.96  449.93 )">4</text><g ewd:code="" ewd:figID="76" ewd:comment="" ewd:figtype="commref"><text style="&st18;" transform="matrix(&st16;  748.41  449.93 )">(LHD)</text></g></g><g ewd:figtype="w2w" ewd:figID="35" ewd:code="IL6"><path style="stroke-width: 1.42 ;&st7;  " d=" M   947.59,   177.42  L   943.34,   173.17  L   939.09,   177.42  " /><path style="stroke-width: 1.42 ;&st7;  " d=" M   947.59,   180.82  L   943.34,   176.57  L   939.09,   180.82  " /><text style="&st18;" transform="matrix(&st16;  929.92  169.48 )">8</text><g ewd:code="" ewd:figID="77" ewd:comment="" ewd:figtype="commref"><text style="&st18;" transform="matrix(&st16;  952.37  169.48 )">(RHD)</text></g></g><g ewd:figtype="w2w" ewd:figID="36" ewd:code="IL2"><text style="&st18;" transform="matrix(&st16;  929.92  160.98 )">2</text><g ewd:code="" ewd:figID="78" ewd:comment="" ewd:figtype="commref"><text style="&st18;" transform="matrix(&st16;  952.37  160.98 )">(LHD)</text></g></g><g ewd:figtype="gp" ewd:figID="41" ewd:code="CC"><path style="stroke-width: 0.85 ;&st7;  " d=" M   739.38,   697.25  L   739.38,   701.50  " /><path style="stroke-width: 0.85 ;&st7;  " d=" M   730.88,   701.50  L   747.87,   701.50  " /><path style="stroke-width: 0.85 ;&st7;  " d=" M   735.13,   704.33  L   743.63,   704.33  " /><path style="stroke-width: 0.85 ;&st7;  " d=" M   736.54,   707.17  L   742.21,   707.17  " /><path style="stroke-width: 0.85 ;&st7;  " d=" M   737.96,   710.00  L   740.79,   710.00  " /></g><g ewd:code="6" ewd:figID="80" ewd:comment="" ewd:figtype="comment"><text style="&st18;" transform="matrix(&st16;  846.45  573.16 )" ewd:textID="6">* 6 :From Sep. 2017 Production</text></g><g ewd:code="12" ewd:figID="86" ewd:comment="" ewd:figtype="comment"><text style="&st18;" transform="matrix(&st16;  846.45  624.15 )" ewd:textID="10">*12 :From Jul. 2021 Production</text></g><g ewd:code="3" ewd:figID="68" ewd:comment="" ewd:figtype="comment"><text style="&st18;" transform="matrix(&st16;  846.45  547.66 )" ewd:textID="3">* 3 :24V Battery Type</text></g><g ewd:code="1" ewd:figID="69" ewd:comment="" ewd:figtype="comment"><text style="&st18;" transform="matrix(&st16;  846.45  530.67 )" ewd:textID="1">* 1 :12V Battery Type w/ One Battery</text></g><g ewd:code="10" ewd:figID="83" ewd:comment="5,4,6,9,6,8" ewd:figtype="comment"><text style="&st18;" transform="matrix(&st16;  846.45  607.15 )">*10 :*5 *4,*6 *9,*6 *8</text></g><g ewd:code="9" ewd:figID="84" ewd:comment="" ewd:figtype="comment"><text style="&st18;" transform="matrix(&st16;  846.45  598.65 )">* 9 :RHD 1HZ</text></g><g ewd:code="2" ewd:figID="67" ewd:comment="" ewd:figtype="comment"><text style="&st18;" transform="matrix(&st16;  846.45  539.16 )" ewd:textID="2">* 2 :12V Battery Type w/ Two Batteries</text></g><g ewd:code="14" ewd:figID="88" ewd:comment="" ewd:figtype="comment"><text style="&st18;" transform="matrix(&st16;  846.45  641.15 )" ewd:textID="12">*14 :From Sep. 2022 Production</text></g><g ewd:code="4" ewd:figID="70" ewd:comment="" ewd:figtype="comment"><text style="&st18;" transform="matrix(&st16;  846.45  556.16 )" ewd:textID="4">* 4 :12V Battery Type</text></g><g ewd:code="7" ewd:figID="82" ewd:comment="4" ewd:figtype="comment"><text style="&st18;" transform="matrix(&st16;  846.45  581.66 )" ewd:textID="7">* 7 :LHD *4 w/o SRS</text></g><g ewd:code="11" ewd:figID="85" ewd:comment="" ewd:figtype="comment"><text style="&st18;" transform="matrix(&st16;  846.45  615.65 )" ewd:textID="9">*11 :Before Jul. 2021 Production</text></g><g ewd:code="5" ewd:figID="79" ewd:comment="" ewd:figtype="comment"><text style="&st18;" transform="matrix(&st16;  846.45  564.66 )" ewd:textID="5">* 5 :Before Sep. 2017 Production</text></g><g ewd:code="13" ewd:figID="87" ewd:comment="" ewd:figtype="comment"><text style="&st18;" transform="matrix(&st16;  846.45  632.65 )" ewd:textID="11">*13 :Before Sep. 2022 Production</text></g><g ewd:code="8" ewd:figID="81" ewd:comment="4" ewd:figtype="comment"><text style="&st18;" transform="matrix(&st16;  846.45  590.16 )" ewd:textID="8">* 8 :LHD *4 w/ SRS</text></g></svg>