<?xml version="1.0" encoding="utf-8"?>
<!DOCTYPE svg PUBLIC "-//W3C//DTD SVG 1.0//EN" "http://www.w3.org/TR/2001/REC-SVG-20010904/DTD/svg10.dtd"[
	<!ENTITY ns_flows "http://ns.adobe.com/Flows/1.0/">
	<!ENTITY ns_svg "http://www.w3.org/2000/svg">
	<!ENTITY ns_xlink "http://www.w3.org/1999/xlink">
	<!ENTITY st0 "font-size:7px;font-family:'MS-PGothic';adobe-font-script:japanese;">
	<!ENTITY st1 "font-size:6px;font-family:'ArialMT';">
	<!-- White fill  -->
	<!ENTITY st2 "fill:#FFFFFF;stroke:#000000; stroke-width:1.41;stroke-linecap:round;stroke-linejoin:round;">
	<!-- Yellow fill  -->
	<!ENTITY st3 "fill:#FFFFCC;stroke:#FFFFCC; stroke-width:0.1;stroke-linecap:round;stroke-linejoin:round;">
	<!-- Gray fill  -->
	<!ENTITY st4 "fill:#CCCCCC;stroke:#CCCCCC; stroke-width:0.1;stroke-linecap:round;stroke-linejoin:round;">
	<!-- Light-blue fill -->
	<!ENTITY st5 "fill:#CCECF4;stroke:#000000; stroke-width:1.133;stroke-linecap:round;stroke-linejoin:round;">
	<!ENTITY st6 "fill:none;stroke-linecap:butt; stroke-linejoin:round;">
	<!ENTITY st7 "fill:none;stroke:#000000;stroke-linecap:round;stroke-linejoin:round;">
	<!ENTITY st8 "enable-background:new    ;">
	<!-- Black fill -->
	<!ENTITY st9 "fill:#000000;stroke:#000000; stroke-linecap:round;stroke-linejoin:round;">
	<!-- SRS note   -->
	<!ENTITY st10 "font-size:9px;font-family:'ArialMT';">
	<!ENTITY st11 "font-size:9px;font-family:'Svg Symbol';">
	<!ENTITY st12 "font-size:6px;font-family:'Svg Symbol';">
	<!ENTITY st13 "fill:none;stroke:#ff0000;stroke-linecap:round;stroke-linejoin:round;">
	<!-- Yellow fill  -->
	<!ENTITY st14 "fill:#FFFF00;stroke:#FFFF00; stroke-width:0.1;stroke-linecap:round;stroke-linejoin:round;">
	<!ENTITY st15 "font-size:6px;font-family:'MS-PGothic';adobe-font-script:japanese;">
	<!ENTITY st16 "1.00 0.00 0.00 1.00">
	<!ENTITY st17 "0.00 -1.00 1.00 0.00">
	<!ENTITY st18 "font-size:6px;font-family:'Arial';">
	<!ENTITY st19 "font-size:9px;font-family:'Arial';">
	<!ENTITY st20 "font-size:6px;font-family:'MS-PGothic','MS PGothic';adobe-font-script:japanese;">
	<!ENTITY st21 "font-size:7px;font-family:'MS-PGothic','MS PGothic';adobe-font-script:japanese;">
	<!ATTLIST svg
		xmlns:ewd CDATA #FIXED "http://shcl.co.jp/ewd"
		xmlns:a CDATA #FIXED "http://ns.adobe.com/AdobeSVGViewerExtensions/3.0/"
		ewd:ver CDATA #IMPLIED
	>
	<!ATTLIST a
		ewd:lineID CDATA #IMPLIED
		ewd:groupID CDATA #IMPLIED
		ewd:figtype CDATA #IMPLIED
		ewd:code CDATA #IMPLIED
		ewd:figID CDATA #IMPLIED
		ewd:pinNo CDATA #IMPLIED
		ewd:comment CDATA #IMPLIED >
	<!ATTLIST g
		ewd:lineID CDATA #IMPLIED
		ewd:groupID CDATA #IMPLIED
		ewd:figtype CDATA #IMPLIED
		ewd:code CDATA #IMPLIED
		ewd:figID CDATA #IMPLIED
		ewd:pinNo CDATA #IMPLIED
		ewd:comment CDATA #IMPLIED >
	<!ATTLIST text
		ewd:textID CDATA #IMPLIED >
	<!ATTLIST title
		ewd:textID CDATA #IMPLIED >
]>
<!-- Generator: Shintec Hozumi YS   -->
<svg onload="call_execInitLoadProc_svg('system')" style="overflow:visible;  enable-background:new 0 0 970.709 710.000" viewBox="0 0 970.709 710.000" height="710.000" width="970.709" xml:space="preserve" ewd:ver="2.3.1.16" xmlns="&ns_svg;" xmlns:a="http://ns.adobe.com/AdobeSVGViewerExtensions/3.0/" xmlns:ewd="http://shcl.co.jp/ewd" xmlns:xlink="&ns_xlink;">
<text style="&st18;" transform="matrix(&st17;  628.03  115.15 )">(LHD *5)</text><path style="stroke-width: 1.42 ;&st7;  " d=" M   752.84,   630.68  L   747.88,   635.65  " /><path style="stroke-width: 1.42 ;&st7;  " d=" M   759.90,   647.68  L   764.87,   642.71  " /><path style="stroke-width: 1.42 ;&st7;  " d=" M   747.88,   642.71  L   752.84,   647.68  " /><path style="stroke-width: 1.42 ;&st7;  " d=" M   764.87,   635.65  L   759.90,   630.68  " /><path style="stroke-width: 1.42 ;&st7;  " d=" M   752.84,   460.71  L   747.88,   465.68  " /><path style="stroke-width: 1.42 ;&st7;  " d=" M   759.90,   477.71  L   764.87,   472.74  " /><path style="stroke-width: 1.42 ;&st7;  " d=" M   747.88,   472.74  L   752.84,   477.71  " /><path style="stroke-width: 1.42 ;&st7;  " d=" M   764.87,   465.68  L   759.90,   460.71  " /><path style="stroke-width: 1.42 ;&st7;  " d=" M   922.82,   120.77  L   917.85,   125.74  " /><path style="stroke-width: 1.42 ;&st7;  " d=" M   929.87,   137.76  L   934.84,   132.79  " /><path style="stroke-width: 1.42 ;&st7;  " d=" M   917.85,   132.79  L   922.82,   137.76  " /><path style="stroke-width: 1.42 ;&st7;  " d=" M   934.84,   125.74  L   929.87,   120.77  " /><path style="stroke-width: 1.42 ;&st7;  " d=" M   764.87,   588.19  L   756.37,   588.19  " /><path style="stroke-width: 1.42 ;&st7;  " d=" M   790.37,   511.70  L   798.87,   511.70  " /><path style="stroke-width: 1.42 ;&st7;  " d=" M   934.84,   188.75  L   926.35,   188.75  " /><path style="stroke-width: 1.42 ;&st7;  " d=" M   560.91,   554.19  L   569.40,   554.19  " /><text style="&st18;" transform="matrix(&st17;  628.03  208.63 )">(LHD *3)</text><path style="stroke-width: 1.42 ;&st7;  " d=" M   560.91,   605.18  L   569.40,   605.18  " /><text style="&st18;" transform="matrix(&st17;  846.16  142.44 )">B-Y</text><text style="&st18;" transform="matrix(&st17;  616.7  108.44 )">B-Y</text><text style="&st18;" transform="matrix(&st17;  752.68  668.61 )">BR</text><text style="&st18;" transform="matrix(&st17;  922.65  156.68 )">R</text><text style="&st18;" transform="matrix(&st17;  752.68  617.62 )">BR</text><text style="&st18;" transform="matrix(&st17;  806.5  545.44 )">(RHD)</text><text style="&st18;" transform="matrix(&st17;  795.17  541.13 )">BR</text><text style="&st18;" transform="matrix(&st17;  764.01  498.19 )">(LHD)</text><text style="&st18;" transform="matrix(&st17;  752.68  494.39 )">BR</text><text style="&st18;" transform="matrix(&st17;  806.5  498.7 )">(RHD)</text><text style="&st18;" transform="matrix(&st17;  795.17  494.39 )">BR</text><text style="&st18;" transform="matrix(&st17;  565.71  462.36 )">Y</text><text style="&st18;" transform="matrix(&st17;  676.19  447.65 )">BR</text><text style="&st18;" transform="matrix(&st17;  922.65  114.19 )">R</text><text style="&st18;" transform="matrix(&st17;  616.7  201.93 )">B-Y</text><text style="&st18;" transform="matrix(&st17;  565.71  108.44 )">B-Y</text><text style="&st18;" transform="matrix(&st17;  577.04  115.69 )">(RHD *5)</text><text style="&st18;" transform="matrix(&st17;  577.04  200.68 )">(RHD *3)</text><text style="&st18;" transform="matrix(&st17;  565.71  193.43 )">B-Y</text><text style="&st18;" transform="matrix(&st17;  565.71  534.6 )">Y</text><text style="&st18;" transform="matrix(&st17;  565.71  581.34 )">Y</text><text style="&st18;" transform="matrix(&st17;  922.65  224.67 )">R</text><text style="&st18;" transform="matrix(&st17;  676.19  511.39 )">BR</text><text style="&st18;" transform="matrix(&st16;  541.76  652.48 )">Y</text><path style="stroke-width: 1.42 ;&st7;  " d=" M   671.39,   469.21  L   679.89,   469.21  " /><path style="stroke-width: 1.42 ;&st7;  " d=" M   560.91,   494.70  L   569.40,   494.70  " /><path style="stroke-width: 1.42 ;&st7;  " d=" M   560.91,   146.26  L   569.40,   146.26  " /><path style="stroke-width: 1.42 ;&st7;  " d=" M   628.89,   154.76  L   620.40,   154.76  " /><text style="&st18;" transform="matrix(&st17;  642.2  199.02 )">V</text><text style="&st18;" transform="matrix(&st17;  653.53  208.63 )">(LHD *4)</text><text style="&st18;" transform="matrix(&st17;  551.55  200.68 )">(RHD *4)</text><text style="&st18;" transform="matrix(&st17;  540.21  190.52 )">V</text><text style="&st18;" transform="matrix(&st17;  577.04  465.27 )">(*3)</text><text style="&st18;" transform="matrix(&st17;  591.2  462.47 )">P</text><text style="&st18;" transform="matrix(&st17;  602.54  465.27 )">(*4)</text><text style="&st18;" transform="matrix(&st16;  694.62  125.57 )">V</text><text style="&st18;" transform="matrix(&st16;  685.0  136.9 )">(LHD *6)</text><text style="&st18;" transform="matrix(&st16;  684.46  51.91 )">(RHD *6)</text><text style="&st18;" transform="matrix(&st16;  694.62  40.58 )">V</text><text style="&st18;" transform="matrix(&st17;  857.49  142.32 )">(*5)</text><text style="&st18;" transform="matrix(&st17;  871.66  139.53 )">V</text><text style="&st18;" transform="matrix(&st17;  882.99  142.32 )">(*6)</text><g ewd:figtype="rb" ewd:figID="7" ewd:code="FUSE18"><path style="stroke-width: 0.85 ;&st7;  " d=" M   849.86,    78.27  L   849.86,    95.27  " /><path style="stroke-width: 1.42 ;&st7;  " d=" M   851.98,   103.77  L   847.73,   103.77  " /><path style="stroke-width: 1.42 ;&st7;  " d=" M   851.98,    95.27  L   847.73,    95.27  " /><path style="stroke-width: 1.42 ;&st7;   " d=" M   856.23,    99.52  C   856.23     97.17    854.33     95.27    851.98     95.27  " /><path style="stroke-width: 1.42 ;&st7;   " d=" M   851.98,   103.77  C   854.33    103.77    856.23    101.87    856.23     99.52  " /><path style="stroke-width: 1.42 ;&st7;   " d=" M   843.48,    99.52  C   843.48    101.87    845.39    103.77    847.73    103.77  " /><path style="stroke-width: 1.42 ;&st7;   " d=" M   847.73,    95.27  C   845.39     95.27    843.48     97.17    843.48     99.52  " /><path style="stroke-width: 0.28 ;&st9;  " d=" M   849.86,    90.37  L   847.02,    87.54  L   847.02,    91.79  L   849.86,    94.62  L   852.69,    91.79  L   852.69,    87.54  L   849.86,    90.37  " /><text style="&st18;" transform="matrix(&st16;  844.49  32.08 )">(IG)</text><text style="&st18;" transform="matrix(&st16;  843.52  86.47 )">2</text><text style="&st18;" transform="matrix(&st16;  847.98  101.49 )">2</text><text style="&st18;" transform="matrix(&st16;  866.28  56.17 )">10A <tspan x="0 " dy="6.0">MET</tspan></text><path style="stroke-width: 0.85 ;&st7;  " d=" M   849.86,    69.77  L   849.86,    78.27  " /><path style="stroke-width: 0.85 ;&st7;   " d=" M   851.27,    68.36  C   851.27     67.57    850.64     66.94    849.86     66.94  " /><path style="stroke-width: 0.85 ;&st7;   " d=" M   849.86,    66.94  C   849.08     66.94    848.44     67.57    848.44     68.36  " /><path style="stroke-width: 0.85 ;&st7;   " d=" M   848.44,    68.36  C   848.44     69.14    849.08     69.77    849.86     69.77  " /><path style="stroke-width: 0.85 ;&st7;   " d=" M   849.86,    69.77  C   850.64     69.77    851.27     69.14    851.27     68.36  " /><path style="stroke-width: 0.85 ;&st7;   " d=" M   851.27,    45.69  C   851.27     44.91    850.64     44.28    849.86     44.28  " /><path style="stroke-width: 0.85 ;&st7;   " d=" M   849.86,    44.28  C   849.08     44.28    848.44     44.91    848.44     45.69  " /><path style="stroke-width: 0.85 ;&st7;   " d=" M   848.44,    45.69  C   848.44     46.48    849.08     47.11    849.86     47.11  " /><path style="stroke-width: 0.85 ;&st7;   " d=" M   849.86,    47.11  C   850.64     47.11    851.27     46.48    851.27     45.69  " /><path style="stroke-width: 1.42 ;&st7;   " d=" M   849.86,    66.94  C   852.60     65.33    853.51     61.80    851.89     59.06  " /><path style="stroke-width: 1.42 ;&st7;   " d=" M   851.89,    59.06  C   851.38     58.18    850.74     57.55    849.86     57.03  " /><path style="stroke-width: 1.42 ;&st7;   " d=" M   849.86,    47.11  C   847.12     48.72    846.21     52.25    847.82     54.99  " /><path style="stroke-width: 1.42 ;&st7;   " d=" M   847.82,    54.99  C   848.34     55.87    848.98     56.51    849.86     57.03  " /><path style="stroke-width: 1.42 ;&st7;  " d=" M   837.11,    35.78  L   837.11,    78.27  L   862.61,    78.27  L   862.61,    35.78  L   837.11,    35.78  " /></g><g ewd:figtype="rb" ewd:figID="8" ewd:code="FUSE5"><path style="stroke-width: 0.85 ;&st7;  " d=" M   926.35,    78.27  L   926.35,    95.27  " /><path style="stroke-width: 1.42 ;&st7;  " d=" M   928.47,   103.77  L   924.22,   103.77  " /><path style="stroke-width: 1.42 ;&st7;  " d=" M   928.47,    95.27  L   924.22,    95.27  " /><path style="stroke-width: 1.42 ;&st7;   " d=" M   932.72,    99.52  C   932.72     97.17    930.82     95.27    928.47     95.27  " /><path style="stroke-width: 1.42 ;&st7;   " d=" M   928.47,   103.77  C   930.82    103.77    932.72    101.87    932.72     99.52  " /><path style="stroke-width: 1.42 ;&st7;   " d=" M   919.97,    99.52  C   919.97    101.87    921.87    103.77    924.22    103.77  " /><path style="stroke-width: 1.42 ;&st7;   " d=" M   924.22,    95.27  C   921.87     95.27    919.97     97.17    919.97     99.52  " /><path style="stroke-width: 0.28 ;&st9;  " d=" M   926.34,    90.37  L   923.51,    87.54  L   923.51,    91.79  L   926.34,    94.62  L   929.18,    91.79  L   929.18,    87.54  L   926.34,    90.37  " /><text style="&st18;" transform="matrix(&st16;  918.26  32.08 )">(BAT)</text><text style="&st18;" transform="matrix(&st16;  920.01  86.47 )">2</text><text style="&st18;" transform="matrix(&st16;  924.47  101.49 )">2</text><text style="&st18;" transform="matrix(&st16;  942.77  53.34 )">10A <tspan x="0 " dy="6.0">DOME </tspan><tspan x="0 " dy="6.0">NO.1</tspan></text><path style="stroke-width: 0.85 ;&st7;  " d=" M   926.35,    69.77  L   926.35,    78.27  " /><path style="stroke-width: 0.85 ;&st7;   " d=" M   927.76,    68.36  C   927.76     67.57    927.13     66.94    926.35     66.94  " /><path style="stroke-width: 0.85 ;&st7;   " d=" M   926.35,    66.94  C   925.56     66.94    924.93     67.57    924.93     68.36  " /><path style="stroke-width: 0.85 ;&st7;   " d=" M   924.93,    68.36  C   924.93     69.14    925.56     69.77    926.35     69.77  " /><path style="stroke-width: 0.85 ;&st7;   " d=" M   926.35,    69.77  C   927.13     69.77    927.76     69.14    927.76     68.36  " /><path style="stroke-width: 0.85 ;&st7;   " d=" M   927.76,    45.69  C   927.76     44.91    927.13     44.28    926.35     44.28  " /><path style="stroke-width: 0.85 ;&st7;   " d=" M   926.35,    44.28  C   925.56     44.28    924.93     44.91    924.93     45.69  " /><path style="stroke-width: 0.85 ;&st7;   " d=" M   924.93,    45.69  C   924.93     46.48    925.56     47.11    926.35     47.11  " /><path style="stroke-width: 0.85 ;&st7;   " d=" M   926.35,    47.11  C   927.13     47.11    927.76     46.48    927.76     45.69  " /><path style="stroke-width: 1.42 ;&st7;   " d=" M   926.35,    66.94  C   929.08     65.33    930.00     61.80    928.38     59.06  " /><path style="stroke-width: 1.42 ;&st7;   " d=" M   928.38,    59.06  C   927.86     58.18    927.23     57.55    926.35     57.03  " /><path style="stroke-width: 1.42 ;&st7;   " d=" M   926.35,    47.11  C   923.61     48.72    922.70     52.25    924.31     54.99  " /><path style="stroke-width: 1.42 ;&st7;   " d=" M   924.31,    54.99  C   924.83     55.87    925.46     56.51    926.35     57.03  " /><path style="stroke-width: 1.42 ;&st7;  " d=" M   913.60,    35.78  L   913.60,    78.27  L   939.09,    78.27  L   939.09,    35.78  L   913.60,    35.78  " /></g><g ewd:code="I72,I106,I118" ewd:figID="9" ewd:comment="1,2" ewd:figtype="conn"><path style="stroke-width: 0.85 ;&st7;  " d=" M   773.37,   171.76  L   773.37,   188.75  " /><path style="stroke-width: 1.42 ;&st7;  " d=" M   764.87,   171.76  L   781.87,   171.76  L   781.87,   188.75  L   764.87,   188.75  L   764.87,   171.76  " /><text style="&st18;" transform="matrix(&st16;  763.89  169.19 )">5</text><text style="&st18;" transform="matrix(&st16;  763.89  151.06 )">2</text><text style="&st18;" transform="matrix(&st16;  763.89  160.13 )">2</text><text style="&st18;" transform="matrix(&st16;  771.11  151.06 )">A</text><path style="stroke-width: 1.42 ;&st7;   " d=" M   777.90,   149.09  C   777.90    146.59    775.87    144.56    773.37    144.56  " /><path style="stroke-width: 1.42 ;&st7;   " d=" M   773.37,   144.56  C   770.87    144.56    768.84    146.59    768.84    149.09  " /><path style="stroke-width: 1.42 ;&st7;   " d=" M   768.84,   149.09  C   768.84    151.60    770.87    153.63    773.37    153.63  " /><path style="stroke-width: 1.42 ;&st7;   " d=" M   773.37,   153.63  C   775.87    153.63    777.90    151.60    777.90    149.09  " /><path style="stroke-width: 1.42 ;&st7;   " d=" M   777.90,   167.22  C   777.90    164.72    775.87    162.69    773.37    162.69  " /><path style="stroke-width: 1.42 ;&st7;   " d=" M   773.37,   162.69  C   770.87    162.69    768.84    164.72    768.84    167.22  " /><path style="stroke-width: 1.42 ;&st7;   " d=" M   768.84,   167.22  C   768.84    169.73    770.87    171.76    773.37    171.76  " /><path style="stroke-width: 1.42 ;&st7;   " d=" M   773.37,   171.76  C   775.87    171.76    777.90    169.73    777.90    167.22  " /><text style="&st18;" transform="matrix(&st16;  770.95  169.19 )">C</text><text style="&st18;" transform="matrix(&st16;  771.11  160.13 )">B</text><path style="stroke-width: 1.42 ;&st7;   " d=" M   777.90,   158.16  C   777.90    155.66    775.87    153.63    773.37    153.63  " /><path style="stroke-width: 1.42 ;&st7;   " d=" M   773.37,   153.63  C   770.87    153.63    768.84    155.66    768.84    158.16  " /><path style="stroke-width: 1.42 ;&st7;   " d=" M   768.84,   158.16  C   768.84    160.66    770.87    162.69    773.37    162.69  " /><path style="stroke-width: 1.42 ;&st7;   " d=" M   773.37,   162.69  C   775.87    162.69    777.90    160.66    777.90    158.16  " /><text style="&st18;" transform="matrix(&st16;  763.89  195.26 )">1</text><text style="&st18;" transform="matrix(&st16;  763.89  213.39 )">4</text><text style="&st18;" transform="matrix(&st16;  763.89  204.32 )">1</text><path style="stroke-width: 1.42 ;&st7;   " d=" M   777.90,   211.42  C   777.90    208.91    775.87    206.88    773.37    206.88  " /><path style="stroke-width: 1.42 ;&st7;   " d=" M   773.37,   206.88  C   770.87    206.88    768.84    208.91    768.84    211.42  " /><path style="stroke-width: 1.42 ;&st7;   " d=" M   768.84,   211.42  C   768.84    213.92    770.87    215.95    773.37    215.95  " /><path style="stroke-width: 1.42 ;&st7;   " d=" M   773.37,   215.95  C   775.87    215.95    777.90    213.92    777.90    211.42  " /><text style="&st18;" transform="matrix(&st16;  771.11  195.26 )">A</text><text style="&st18;" transform="matrix(&st16;  770.95  213.39 )">C</text><path style="stroke-width: 1.42 ;&st7;   " d=" M   777.90,   193.29  C   777.90    190.78    775.87    188.75    773.37    188.75  " /><path style="stroke-width: 1.42 ;&st7;   " d=" M   773.37,   188.75  C   770.87    188.75    768.84    190.78    768.84    193.29  " /><path style="stroke-width: 1.42 ;&st7;   " d=" M   768.84,   193.29  C   768.84    195.79    770.87    197.82    773.37    197.82  " /><path style="stroke-width: 1.42 ;&st7;   " d=" M   773.37,   197.82  C   775.87    197.82    777.90    195.79    777.90    193.29  " /><path style="stroke-width: 1.42 ;&st7;   " d=" M   777.90,   202.35  C   777.90    199.85    775.87    197.82    773.37    197.82  " /><path style="stroke-width: 1.42 ;&st7;   " d=" M   773.37,   197.82  C   770.87    197.82    768.84    199.85    768.84    202.35  " /><path style="stroke-width: 1.42 ;&st7;   " d=" M   768.84,   202.35  C   768.84    204.85    770.87    206.88    773.37    206.88  " /><path style="stroke-width: 1.42 ;&st7;   " d=" M   773.37,   206.88  C   775.87    206.88    777.90    204.85    777.90    202.35  " /><text style="&st18;" transform="matrix(&st16;  771.11  204.32 )">B</text><g ewd:figtype="title"><text style="&st18;" transform="matrix(&st17;  690.33  191.65 )">I72(A)</text><text style="&st18;" transform="matrix(&st17;  697.15  191.66 )" ewd:textID="14">No. 21 <tspan x="0 " dy="6.0">Junction </tspan><tspan x="0 " dy="6.0">Connector</tspan></text><text style="&st18;" transform="matrix(&st17;  716.39  191.65 )">I106(B)</text><text style="&st18;" transform="matrix(&st17;  723.22  191.66 )" ewd:textID="12">No. 9 <tspan x="0 " dy="6.0">Junction </tspan><tspan x="0 " dy="6.0">Connector</tspan></text><text style="&st18;" transform="matrix(&st17;  749.28  191.66 )" ewd:textID="16">No. 36 <tspan x="0 " dy="6.0">Junction </tspan><tspan x="0 " dy="6.0">Connector</tspan></text><text style="&st18;" transform="matrix(&st17;  742.45  191.65 )">I118(C)</text></g><g ewd:code="" ewd:figID="48" ewd:comment="2" ewd:figtype="commref"><text style="&st18;" transform="matrix(&st16;  778.46  195.26 )">(LHD *2)</text></g><g ewd:code="" ewd:figID="49" ewd:comment="" ewd:figtype="commref"><text style="&st18;" transform="matrix(&st16;  778.46  204.32 )">(RHD)</text></g><g ewd:code="" ewd:figID="50" ewd:comment="2" ewd:figtype="commref"><text style="&st18;" transform="matrix(&st16;  778.46  151.06 )">(LHD *2)</text></g><g ewd:code="" ewd:figID="51" ewd:comment="" ewd:figtype="commref"><text style="&st18;" transform="matrix(&st16;  778.46  160.13 )">(RHD)</text></g><g ewd:code="" ewd:figID="65" ewd:comment="1" ewd:figtype="commref"><text style="&st18;" transform="matrix(&st16;  778.46  169.19 )">(LHD *1)</text></g><g ewd:code="" ewd:figID="66" ewd:comment="1" ewd:figtype="commref"><text style="&st18;" transform="matrix(&st16;  778.46  213.39 )">(LHD *1)</text></g></g><g ewd:figtype="conn" ewd:figID="10" ewd:code="L25,L26"><path style="stroke-width: 0.85 ;&st7;  " d=" M   930.59,   290.74  L   922.10,   290.74  " /><path style="stroke-width: 0.85 ;&st7;  " d=" M   576.78,   339.78  L   584.14,   335.53  " /><path style="stroke-width: 0.85 ;&st7;  " d=" M   573.65,   341.73  L   565.16,   341.73  " /><path style="stroke-width: 0.85 ;&st7;  " d=" M   679.89,   303.48  L   679.89,   311.98  " /><path style="stroke-width: 0.85 ;&st7;  " d=" M   582.14,   332.07  L   574.78,   336.31  " /><path style="stroke-width: 0.85 ;&st7;  " d=" M   573.65,   401.22  L   565.16,   401.22  " /><text style="&st18;" transform="matrix(&st16;  622.98  273.43 )">B</text><text style="&st18;" transform="matrix(&st16;  928.93  273.43 )">B</text><path style="stroke-width: 1.42 ;&st7;  " d=" M   599.15,   343.85  L   590.65,   343.85  " /><path style="stroke-width: 1.42 ;&st7;  " d=" M   599.15,   348.10  L   590.65,   348.10  " /><path style="stroke-width: 0.85 ;&st7;  " d=" M   568.21,   323.73  L   567.94,   324.20  L   567.85,   324.73  L   567.94,   325.26  L   568.21,   325.73  L   568.63,   326.08  L   569.13,   326.27  L   569.68,   326.27  L   570.18,   326.08  L   570.60,   325.73  L   570.87,   325.26  L   570.96,   324.73  L   570.87,   324.20  L   570.60,   323.73  L   570.18,   323.38  L   569.68,   323.20  L   569.13,   323.20  L   568.63,   323.38  L   568.21,   323.73  L   568.61,   324.44  L   568.61,   325.02  L   568.98,   325.47  L   569.55,   325.57  L   570.06,   325.28  L   570.25,   324.73  L   570.06,   324.18  L   569.55,   323.90  L   568.98,   323.99  L   569.40,   324.73  " /><path style="stroke-width: 0.85 ;&st7;  " d=" M   593.71,   323.73  L   593.44,   324.20  L   593.34,   324.73  L   593.44,   325.26  L   593.71,   325.73  L   594.12,   326.08  L   594.63,   326.27  L   595.17,   326.27  L   595.68,   326.08  L   596.09,   325.73  L   596.36,   325.26  L   596.46,   324.73  L   596.36,   324.20  L   596.09,   323.73  L   595.68,   323.38  L   595.17,   323.20  L   594.63,   323.20  L   594.12,   323.38  L   593.71,   323.73  L   594.10,   324.44  L   594.10,   325.02  L   594.48,   325.47  L   595.05,   325.57  L   595.55,   325.28  L   595.75,   324.73  L   595.55,   324.18  L   595.05,   323.90  L   594.48,   323.99  L   594.90,   324.73  " /><path style="stroke-width: 0.85 ;&st7;  " d=" M   569.40,   358.73  L   611.90,   358.73  " /><path style="stroke-width: 0.85 ;&st7;  " d=" M   569.40,   324.73  L   611.90,   324.73  " /><path style="stroke-width: 0.85 ;&st7;  " d=" M   611.90,   358.73  L   611.90,   350.23  L   609.06,   348.81  L   614.73,   345.98  L   609.06,   343.14  L   614.73,   340.31  L   609.06,   337.48  L   614.73,   334.65  L   611.90,   333.23  L   611.90,   324.73  " /><path style="stroke-width: 0.85 ;&st7;  " d=" M   584.14,   335.53  L   581.81,   338.58  L   580.34,   336.03  L   584.14,   335.53  L   582.86,   336.28  L   581.87,   337.56  L   581.25,   336.48  L   582.86,   336.28  L   582.22,   336.64  L   581.91,   337.05  L   581.71,   336.71  L   582.22,   336.64  " /><path style="stroke-width: 1.42 ;&st7;  " d=" M   535.41,   265.24  L   535.41,   418.22  L   943.34,   418.22  L   943.34,   265.24  L   535.41,   265.24  " /><path style="stroke-width: 1.42 ;&st7;  " d=" M   654.39,   341.73  L   654.39,   358.73  L   739.38,   358.73  L   739.38,   341.73  L   654.39,   341.73  " /><path style="stroke-width: 0.28 ;&st9;  " d=" M   679.89,   307.73  L   671.39,   313.40  L   671.39,   302.07  L   679.89,   307.73  " /><path style="stroke-width: 0.85 ;&st7;  " d=" M   696.88,   341.73  L   696.88,   307.73  L   926.34,   307.73  L   926.34,   265.24  " /><path style="stroke-width: 0.85 ;&st7;  " d=" M   695.69,   306.73  L   695.42,   307.20  L   695.33,   307.73  L   695.42,   308.27  L   695.69,   308.74  L   696.10,   309.08  L   696.61,   309.27  L   697.16,   309.27  L   697.66,   309.08  L   698.08,   308.74  L   698.35,   308.27  L   698.44,   307.73  L   698.35,   307.20  L   698.08,   306.73  L   697.66,   306.39  L   697.16,   306.20  L   696.61,   306.20  L   696.10,   306.39  L   695.69,   306.73  L   696.08,   307.44  L   696.08,   308.03  L   696.46,   308.47  L   697.03,   308.57  L   697.53,   308.28  L   697.73,   307.73  L   697.53,   307.19  L   697.03,   306.90  L   696.46,   307.00  L   696.88,   307.73  " /><path style="stroke-width: 0.28 ;&st9;  " d=" M   926.34,   290.74  L   920.68,   282.24  L   932.01,   282.24  L   926.34,   290.74  " /><path style="stroke-width: 0.85 ;&st7;  " d=" M   582.14,   332.07  L   579.80,   335.11  L   578.34,   332.56  L   582.14,   332.07  L   580.86,   332.80  L   579.87,   334.09  L   579.25,   333.01  L   580.86,   332.80  L   580.21,   333.18  L   579.90,   333.58  L   579.71,   333.24  L   580.21,   333.18  " /><path style="stroke-width: 0.85 ;&st7;  " d=" M   569.40,   418.22  L   569.40,   384.22  L   566.57,   382.80  L   572.24,   379.97  L   566.57,   377.14  L   572.24,   374.31  L   566.57,   371.47  L   572.24,   368.64  L   569.40,   367.22  L   569.40,   307.73  L   696.88,   307.73  " /><path style="stroke-width: 0.28 ;&st9;  " d=" M   569.40,   401.22  L   563.74,   392.72  L   575.07,   392.72  L   569.40,   401.22  " /><path style="stroke-width: 0.28 ;&st9;  " d=" M   569.40,   341.73  L   563.74,   333.23  L   575.07,   333.23  L   569.40,   341.73  " /><text style="&st18;" transform="matrix(&st16;  690.28  352.2 )">CPU</text><text style="&st18;" transform="matrix(&st17;  561.74  347.0 )" ewd:textID="8">Charge</text><path style="stroke-width: 0.85 ;&st7;  " d=" M   593.71,   357.72  L   593.44,   358.19  L   593.34,   358.73  L   593.44,   359.26  L   593.71,   359.73  L   594.12,   360.07  L   594.63,   360.26  L   595.17,   360.26  L   595.68,   360.07  L   596.09,   359.73  L   596.36,   359.26  L   596.46,   358.73  L   596.36,   358.19  L   596.09,   357.72  L   595.68,   357.38  L   595.17,   357.19  L   594.63,   357.19  L   594.12,   357.38  L   593.71,   357.72  L   594.10,   358.43  L   594.10,   359.02  L   594.48,   359.46  L   595.05,   359.56  L   595.55,   359.27  L   595.75,   358.73  L   595.55,   358.18  L   595.05,   357.89  L   594.48,   357.99  L   594.90,   358.73  " /><path style="stroke-width: 0.85 ;&st7;  " d=" M   619.20,   306.73  L   618.93,   307.20  L   618.84,   307.73  L   618.93,   308.27  L   619.20,   308.74  L   619.62,   309.08  L   620.12,   309.27  L   620.67,   309.27  L   621.18,   309.08  L   621.59,   308.74  L   621.86,   308.27  L   621.95,   307.73  L   621.86,   307.20  L   621.59,   306.73  L   621.18,   306.39  L   620.67,   306.20  L   620.12,   306.20  L   619.62,   306.39  L   619.20,   306.73  L   619.60,   307.44  L   619.60,   308.03  L   619.97,   308.47  L   620.54,   308.57  L   621.05,   308.28  L   621.25,   307.73  L   621.05,   307.19  L   620.54,   306.90  L   619.97,   307.00  L   620.40,   307.73  " /><path style="stroke-width: 0.85 ;&st7;  " d=" M   620.40,   265.24  L   620.40,   307.73  " /><path style="stroke-width: 0.28 ;&st9;  " d=" M   620.40,   290.74  L   614.73,   282.24  L   626.06,   282.24  L   620.40,   290.74  " /><path style="stroke-width: 0.85 ;&st7;  " d=" M   568.21,   357.72  L   567.94,   358.19  L   567.85,   358.73  L   567.94,   359.26  L   568.21,   359.73  L   568.63,   360.07  L   569.13,   360.26  L   569.68,   360.26  L   570.18,   360.07  L   570.60,   359.73  L   570.87,   359.26  L   570.96,   358.73  L   570.87,   358.19  L   570.60,   357.72  L   570.18,   357.38  L   569.68,   357.19  L   569.13,   357.19  L   568.63,   357.38  L   568.21,   357.72  L   568.61,   358.43  L   568.61,   359.02  L   568.98,   359.46  L   569.55,   359.56  L   570.06,   359.27  L   570.25,   358.73  L   570.06,   358.18  L   569.55,   357.89  L   568.98,   357.99  L   569.40,   358.73  " /><text style="&st18;" transform="matrix(&st16;  675.6  414.52 )">ES</text><path style="stroke-width: 0.85 ;&st7;  " d=" M   594.90,   358.73  L   594.90,   348.10  " /><path style="stroke-width: 0.85 ;&st7;  " d=" M   594.90,   343.85  L   594.90,   324.73  " /><text style="&st18;" transform="matrix(&st16;  571.99  414.53 )">CHG-</text><path style="stroke-width: 0.85 ;&st7;  " d=" M   624.65,   290.74  L   616.15,   290.74  " /><text style="&st18;" transform="matrix(&st16;  559.92  424.72 )">1</text><text style="&st18;" transform="matrix(&st16;  567.14  424.72 )">B</text><path style="stroke-width: 1.42 ;&st7;   " d=" M   573.94,   422.75  C   573.94    420.24    571.91    418.22    569.40    418.22  " /><path style="stroke-width: 1.42 ;&st7;   " d=" M   569.40,   418.22  C   566.90    418.22    564.87    420.24    564.87    422.75  " /><path style="stroke-width: 1.42 ;&st7;   " d=" M   564.87,   422.75  C   564.87    425.25    566.90    427.28    569.40    427.28  " /><path style="stroke-width: 1.42 ;&st7;   " d=" M   569.40,   427.28  C   571.91    427.28    573.94    425.25    573.94    422.75  " /><text style="&st18;" transform="matrix(&st16;  607.58  262.68 )">28</text><text style="&st18;" transform="matrix(&st16;  618.13  262.68 )">A</text><path style="stroke-width: 1.42 ;&st7;   " d=" M   624.93,   260.71  C   624.93    258.21    622.90    256.18    620.40    256.18  " /><path style="stroke-width: 1.42 ;&st7;   " d=" M   620.40,   256.18  C   617.89    256.18    615.86    258.21    615.86    260.71  " /><path style="stroke-width: 1.42 ;&st7;   " d=" M   615.86,   260.71  C   615.86    263.21    617.89    265.24    620.40    265.24  " /><path style="stroke-width: 1.42 ;&st7;   " d=" M   620.40,   265.24  C   622.90    265.24    624.93    263.21    624.93    260.71  " /><text style="&st18;" transform="matrix(&st16;  667.07  424.72 )">15</text><text style="&st18;" transform="matrix(&st16;  677.62  424.72 )">A</text><path style="stroke-width: 1.42 ;&st7;   " d=" M   684.42,   422.75  C   684.42    420.24    682.39    418.22    679.89    418.22  " /><path style="stroke-width: 1.42 ;&st7;   " d=" M   679.89,   418.22  C   677.38    418.22    675.35    420.24    675.35    422.75  " /><path style="stroke-width: 1.42 ;&st7;   " d=" M   675.35,   422.75  C   675.35    425.25    677.38    427.28    679.89    427.28  " /><path style="stroke-width: 1.42 ;&st7;   " d=" M   679.89,   427.28  C   682.39    427.28    684.42    425.25    684.42    422.75  " /><text style="&st18;" transform="matrix(&st16;  913.53  262.68 )">26</text><path style="stroke-width: 1.42 ;&st7;   " d=" M   930.88,   260.71  C   930.88    258.21    928.85    256.18    926.35    256.18  " /><path style="stroke-width: 1.42 ;&st7;   " d=" M   926.35,   256.18  C   923.84    256.18    921.81    258.21    921.81    260.71  " /><path style="stroke-width: 1.42 ;&st7;   " d=" M   921.81,   260.71  C   921.81    263.21    923.84    265.24    926.35    265.24  " /><path style="stroke-width: 1.42 ;&st7;   " d=" M   926.35,   265.24  C   928.85    265.24    930.88    263.21    930.88    260.71  " /><text style="&st18;" transform="matrix(&st16;  924.08  262.68 )">A</text><g ewd:figtype="title"><text style="&st18;" transform="matrix(&st16;  803.95  426.11 )">L25(A),L26(B)</text><text style="&st18;" transform="matrix(&st16;  803.96  432.93 )" ewd:textID="9">Combination Meter Assembly</text></g></g><g ewd:figtype="w2w" ewd:figID="23" ewd:code="DA1"><path style="stroke-width: 1.42 ;&st7;  " d=" M   565.16,   596.12  L   569.40,   600.37  L   573.65,   596.12  " /><path style="stroke-width: 1.42 ;&st7;  " d=" M   573.65,   599.52  L   569.40,   603.77  L   565.16,   599.52  " /><text style="&st18;" transform="matrix(&st16;  555.99  611.4 )">2</text></g><g ewd:figtype="w2w" ewd:figID="24" ewd:code="AI3"><path style="stroke-width: 1.42 ;&st7;  " d=" M   573.65,   548.53  L   569.40,   552.78  L   565.16,   548.53  " /><path style="stroke-width: 1.42 ;&st7;  " d=" M   565.16,   545.13  L   569.40,   549.38  L   573.65,   545.13  " /><text style="&st18;" transform="matrix(&st16;  552.65  560.41 )">48</text></g><g ewd:figtype="w2w" ewd:figID="25" ewd:code="IL5"><text style="&st18;" transform="matrix(&st16;  552.65  509.42 )">19</text><g ewd:code="" ewd:figID="59" ewd:comment="" ewd:figtype="commref"><text style="&st18;" transform="matrix(&st16;  578.44  509.42 )">(RHD)</text></g></g><g ewd:figtype="w2w" ewd:figID="26" ewd:code="IL1"><path style="stroke-width: 1.42 ;&st7;  " d=" M   565.16,   485.64  L   569.40,   489.89  L   573.65,   485.64  " /><path style="stroke-width: 1.42 ;&st7;  " d=" M   573.65,   489.04  L   569.40,   493.29  L   565.16,   489.04  " /><text style="&st18;" transform="matrix(&st16;  555.99  500.92 )">9</text><g ewd:code="" ewd:figID="58" ewd:comment="" ewd:figtype="commref"><text style="&st18;" transform="matrix(&st16;  578.44  500.92 )">(LHD)</text></g></g><g ewd:figtype="w2w" ewd:figID="27" ewd:code="LI1"><text style="&st18;" transform="matrix(&st16;  552.65  152.48 )">18</text><path style="stroke-width: 1.42 ;&st7;  " d=" M   565.16,   137.20  L   569.40,   141.45  L   573.65,   137.20  " /><path style="stroke-width: 1.42 ;&st7;  " d=" M   573.65,   140.60  L   569.40,   144.84  L   565.16,   140.60  " /></g><g ewd:figtype="w2w" ewd:figID="28" ewd:code="IL2"><text style="&st18;" transform="matrix(&st16;  603.64  152.48 )">22</text><path style="stroke-width: 1.42 ;&st7;  " d=" M   624.65,   160.43  L   620.40,   156.18  L   616.15,   160.43  " /><path style="stroke-width: 1.42 ;&st7;  " d=" M   624.65,   163.82  L   620.40,   159.58  L   616.15,   163.82  " /></g><g ewd:figtype="w2w" ewd:figID="29" ewd:code="IL6"><text style="&st18;" transform="matrix(&st16;  663.13  483.92 )">14</text><g ewd:code="" ewd:figID="57" ewd:comment="" ewd:figtype="commref"><text style="&st18;" transform="matrix(&st16;  688.92  483.92 )">(RHD)</text></g></g><g ewd:figtype="w2w" ewd:figID="30" ewd:code="IL2"><path style="stroke-width: 1.42 ;&st7;  " d=" M   675.64,   460.14  L   679.89,   464.39  L   684.14,   460.14  " /><path style="stroke-width: 1.42 ;&st7;  " d=" M   684.14,   463.54  L   679.89,   467.79  L   675.64,   463.54  " /><text style="&st18;" transform="matrix(&st16;  666.47  475.43 )">4</text><g ewd:code="" ewd:figID="60" ewd:comment="" ewd:figtype="commref"><text style="&st18;" transform="matrix(&st16;  688.92  475.43 )">(LHD)</text></g></g><g ewd:figtype="w2w" ewd:figID="31" ewd:code="AC5"><path style="stroke-width: 1.42 ;&st7;  " d=" M   760.62,   597.25  L   756.37,   593.00  L   752.12,   597.25  " /><path style="stroke-width: 1.42 ;&st7;  " d=" M   760.62,   593.85  L   756.37,   589.60  L   752.12,   593.85  " /><text style="&st18;" transform="matrix(&st16;  742.96  585.91 )">9</text><g ewd:code="" ewd:figID="55" ewd:comment="" ewd:figtype="commref"><text style="&st18;" transform="matrix(&st16;  765.4  585.91 )">(RHD)</text></g></g><g ewd:figtype="w2w" ewd:figID="32" ewd:code="IC2"><text style="&st18;" transform="matrix(&st16;  742.96  577.41 )">9</text><g ewd:code="" ewd:figID="54" ewd:comment="" ewd:figtype="commref"><text style="&st18;" transform="matrix(&st16;  765.4  577.41 )">(LHD)</text></g></g><g ewd:figtype="w2w" ewd:figID="33" ewd:code="AI3"><path style="stroke-width: 1.42 ;&st7;  " d=" M   803.12,   506.03  L   798.87,   510.28  L   794.62,   506.03  " /><path style="stroke-width: 1.42 ;&st7;  " d=" M   794.62,   502.63  L   798.87,   506.88  L   803.12,   502.63  " /><text style="&st18;" transform="matrix(&st16;  782.11  517.92 )">56</text></g><g ewd:figtype="w2w" ewd:figID="34" ewd:code="IL6"><path style="stroke-width: 1.42 ;&st7;  " d=" M   930.59,   197.82  L   926.34,   193.57  L   922.10,   197.82  " /><path style="stroke-width: 1.42 ;&st7;  " d=" M   930.59,   194.42  L   926.34,   190.17  L   922.10,   194.42  " /><text style="&st18;" transform="matrix(&st16;  912.93  186.47 )">8</text><g ewd:code="" ewd:figID="61" ewd:comment="" ewd:figtype="commref"><text style="&st18;" transform="matrix(&st16;  935.38  186.47 )">(RHD)</text></g></g><g ewd:figtype="w2w" ewd:figID="35" ewd:code="IL2"><text style="&st18;" transform="matrix(&st16;  912.93  177.98 )">2</text><g ewd:code="" ewd:figID="62" ewd:comment="" ewd:figtype="commref"><text style="&st18;" transform="matrix(&st16;  935.38  177.98 )">(LHD)</text></g></g><g ewd:figtype="gp" ewd:figID="38" ewd:code="CA"><path style="stroke-width: 0.85 ;&st7;  " d=" M   754.96,   710.00  L   757.79,   710.00  " /><path style="stroke-width: 0.85 ;&st7;  " d=" M   753.54,   707.17  L   759.21,   707.17  " /><path style="stroke-width: 0.85 ;&st7;  " d=" M   752.12,   704.33  L   760.62,   704.33  " /><path style="stroke-width: 0.85 ;&st7;  " d=" M   747.87,   701.50  L   764.87,   701.50  " /><path style="stroke-width: 0.85 ;&st7;  " d=" M   756.37,   697.25  L   756.37,   701.50  "/></g></svg>
