<?xml version="1.0" encoding="utf-8"?>
<!DOCTYPE svg PUBLIC "-//W3C//DTD SVG 1.0//EN" "http://www.w3.org/TR/2001/REC-SVG-20010904/DTD/svg10.dtd"[
	<!ENTITY ns_flows "http://ns.adobe.com/Flows/1.0/">
	<!ENTITY ns_svg "http://www.w3.org/2000/svg">
	<!ENTITY ns_xlink "http://www.w3.org/1999/xlink">
	<!ENTITY st0 "font-size:7px;font-family:'MS-PGothic';adobe-font-script:japanese;">
	<!ENTITY st1 "font-size:6px;font-family:'ArialMT';">
	<!-- White fill  -->
	<!ENTITY st2 "fill:#FFFFFF;stroke:#000000; stroke-width:1.41;stroke-linecap:round;stroke-linejoin:round;">
	<!-- Yellow fill  -->
	<!ENTITY st3 "fill:#FFFFCC;stroke:#FFFFCC; stroke-width:0.1;stroke-linecap:round;stroke-linejoin:round;">
	<!-- Gray fill  -->
	<!ENTITY st4 "fill:#CCCCCC;stroke:#CCCCCC; stroke-width:0.1;stroke-linecap:round;stroke-linejoin:round;">
	<!-- Light-blue fill -->
	<!ENTITY st5 "fill:#CCECF4;stroke:#000000; stroke-width:1.133;stroke-linecap:round;stroke-linejoin:round;">
	<!ENTITY st6 "fill:none;stroke-linecap:butt; stroke-linejoin:round;">
	<!ENTITY st7 "fill:none;stroke:#000000;stroke-linecap:round;stroke-linejoin:round;">
	<!ENTITY st8 "enable-background:new    ;">
	<!-- Black fill -->
	<!ENTITY st9 "fill:#000000;stroke:#000000; stroke-linecap:round;stroke-linejoin:round;">
	<!-- SRS note   -->
	<!ENTITY st10 "font-size:9px;font-family:'ArialMT';">
	<!ENTITY st11 "font-size:9px;font-family:'Svg Symbol';">
	<!ENTITY st12 "font-size:6px;font-family:'Svg Symbol';">
	<!ENTITY st13 "fill:none;stroke:#ff0000;stroke-linecap:round;stroke-linejoin:round;">
	<!-- Yellow fill  -->
	<!ENTITY st14 "fill:#FFFF00;stroke:#FFFF00; stroke-width:0.1;stroke-linecap:round;stroke-linejoin:round;">
	<!ENTITY st15 "font-size:6px;font-family:'MS-PGothic';adobe-font-script:japanese;">
	<!ENTITY st16 "1.00 0.00 0.00 1.00">
	<!ENTITY st17 "0.00 -1.00 1.00 0.00">
	<!ENTITY st18 "font-size:6px;font-family:'Arial';">
	<!ENTITY st19 "font-size:9px;font-family:'Arial';">
	<!ENTITY st20 "font-size:6px;font-family:'MS-PGothic','MS PGothic';adobe-font-script:japanese;">
	<!ENTITY st21 "font-size:7px;font-family:'MS-PGothic','MS PGothic';adobe-font-script:japanese;">
	<!ATTLIST svg
		xmlns:ewd CDATA #FIXED "http://shcl.co.jp/ewd"
		xmlns:a CDATA #FIXED "http://ns.adobe.com/AdobeSVGViewerExtensions/3.0/"
		ewd:ver CDATA #IMPLIED
	>
	<!ATTLIST a
		ewd:lineID CDATA #IMPLIED
		ewd:groupID CDATA #IMPLIED
		ewd:figtype CDATA #IMPLIED
		ewd:code CDATA #IMPLIED
		ewd:figID CDATA #IMPLIED
		ewd:pinNo CDATA #IMPLIED
		ewd:comment CDATA #IMPLIED >
	<!ATTLIST g
		ewd:lineID CDATA #IMPLIED
		ewd:groupID CDATA #IMPLIED
		ewd:figtype CDATA #IMPLIED
		ewd:code CDATA #IMPLIED
		ewd:figID CDATA #IMPLIED
		ewd:pinNo CDATA #IMPLIED
		ewd:comment CDATA #IMPLIED >
	<!ATTLIST text
		ewd:textID CDATA #IMPLIED >
	<!ATTLIST title
		ewd:textID CDATA #IMPLIED >
]>
<!-- Generator: Shintec Hozumi YS   -->
<svg onload="call_execInitLoadProc_svg('system')" style="overflow:visible;  enable-background:new 0 0 1030.199 710.000" viewBox="0 0 1030.199 710.000" height="710.000" width="1030.199" xml:space="preserve" ewd:ver="2.3.1.16" xmlns="&ns_svg;" xmlns:a="http://ns.adobe.com/AdobeSVGViewerExtensions/3.0/" xmlns:ewd="http://shcl.co.jp/ewd" xmlns:xlink="&ns_xlink;"><script type="text/javascript" xlink:href="../../../../../system/js/ewd/fig/svgfig.js" xmlns:xlink="http://www.w3.org/1999/xlink" />
<g id="ewd_top"><a ewd:figtype="rb" style="cursor:pointer;" ewd:code="FUSE5" ewd:figID="1"><path style="fill:#CCECF4;stroke:#000000; stroke-width:0; stroke-linecap:round;stroke-linejoin:round; " d=" M   973.09,    35.78  L   973.09,    78.27  L   998.58,    78.27  L   998.58,    35.78  L   973.09,    35.78 " /></a><a ewd:figtype="rb" style="cursor:pointer;" ewd:code="FUSE18" ewd:figID="2"><path style="fill:#CCECF4;stroke:#000000; stroke-width:0; stroke-linecap:round;stroke-linejoin:round; " d=" M   871.10,    35.78  L   871.10,    78.27  L   896.60,    78.27  L   896.60,    35.78  L   871.10,    35.78 " /></a><a ewd:figtype="rb" style="cursor:pointer;" ewd:code="FUSE23" ewd:figID="3"><path style="fill:#CCECF4;stroke:#000000; stroke-width:0; stroke-linecap:round;stroke-linejoin:round; " d=" M   403.68,    35.78  L   403.68,    78.27  L   429.18,    78.27  L   429.18,    35.78  L   403.68,    35.78 " /></a><a ewd:figtype="rb" style="cursor:pointer;" ewd:code="FUSE47" ewd:figID="4"><path style="fill:#CCECF4;stroke:#000000; stroke-width:0; stroke-linecap:round;stroke-linejoin:round; " d=" M   225.21,    95.27  L   225.21,   137.76  L   250.71,   137.76  L   250.71,    95.27  L   225.21,    95.27 " /></a><a ewd:figtype="conn" style="cursor:pointer;" ewd:code="I110" ewd:figID="5"><path style="fill:#CCECF4;stroke:#000000; stroke-width:1.133; stroke-linecap:round;stroke-linejoin:round; " d=" M   458.92,   367.22  L   475.92,   367.22  L   475.92,   384.22  L   458.92,   384.22  L   458.92,   367.22 " /><title ewd:textID="25">No. 33 Junction Connector</title></a><a ewd:figtype="conn" style="cursor:pointer;" ewd:code="I72,I106" ewd:figID="6"><path style="fill:#CCECF4;stroke:#000000; stroke-width:1.133; stroke-linecap:round;stroke-linejoin:round; " d=" M   815.86,   146.26  L   832.86,   146.26  L   832.86,   163.26  L   815.86,   163.26  L   815.86,   146.26 " /><title ewd:textID="20">No. 9 Junction Connector , No. 21 Junction Connector</title></a><a ewd:figtype="conn" style="cursor:pointer;" ewd:code="I67,I107" ewd:figID="7"><path style="fill:#CCECF4;stroke:#000000; stroke-width:1.133; stroke-linecap:round;stroke-linejoin:round; " d=" M   620.40,   588.19  L   637.39,   588.19  L   637.39,   571.19  L   620.40,   571.19  L   620.40,   588.19 " /><title ewd:textID="22">No. 12 Junction Connector , No. 16 Junction Connector</title></a><a ewd:figtype="conn" style="cursor:pointer;" ewd:code="I105" ewd:figID="8"><path style="fill:#CCECF4;stroke:#000000; stroke-width:1.133; stroke-linecap:round;stroke-linejoin:round; " d=" M   458.92,   231.25  L   475.92,   231.25  L   475.92,   248.24  L   458.92,   248.24  L   458.92,   231.25 " /><title ewd:textID="18">No. 8 Junction Connector</title></a><a ewd:figtype="conn" style="cursor:pointer;" ewd:code="I1,I34" ewd:figID="9"><path style="fill:#CCECF4;stroke:#000000; stroke-width:1.133; stroke-linecap:round;stroke-linejoin:round; " d=" M   280.45,   520.20  L   433.43,   520.20  L   433.43,   477.71  L   280.45,   477.71  L   280.45,   520.20 " /><title ewd:textID="17">Generator Assembly</title></a><a ewd:figtype="conn" style="cursor:pointer;" ewd:code="A35,A36,E1,E4,F1" ewd:figID="10"><path style="fill:#CCECF4;stroke:#000000; stroke-width:1.133; stroke-linecap:round;stroke-linejoin:round; " d=" M   110.48,   503.20  L   186.97,   503.20  L   186.97,   562.69  L   110.48,   562.69  L   110.48,   503.20 " /><title ewd:textID="13">Battery (Main)</title></a><a ewd:figtype="conn" style="cursor:pointer;" ewd:code="A37,E3" ewd:figID="11"><path style="fill:#CCECF4;stroke:#000000; stroke-width:1.133; stroke-linecap:round;stroke-linejoin:round; " d=" M    50.99,   367.22  L    84.99,   367.22  L    84.99,   426.71  L    50.99,   426.71  L    50.99,   367.22 " /><title ewd:textID="14">Battery (Sub)</title></a><a ewd:figtype="conn" style="cursor:pointer;" ewd:code="E2,F2" ewd:figID="12"><path style="fill:#CCECF4;stroke:#000000; stroke-width:1.133; stroke-linecap:round;stroke-linejoin:round; " d=" M    42.49,   503.20  L    76.49,   503.20  L    76.49,   562.69  L    42.49,   562.69  L    42.49,   503.20 " /><title ewd:textID="14">Battery (Sub)</title></a><a ewd:figtype="conn" style="cursor:pointer;" ewd:code="L25,L26" ewd:figID="13"><path style="fill:#CCECF4;stroke:#000000; stroke-width:1.133; stroke-linecap:round;stroke-linejoin:round; " d=" M   603.40,   248.24  L   603.40,   401.22  L   977.34,   401.22  L   977.34,   248.24  L   603.40,   248.24 " /><title ewd:textID="16">Combination Meter Assembly</title></a><a ewd:figtype="jb" style="cursor:pointer;" ewd:code="4" ewd:figID="20"><path style="&st4; " d=" M   152.97,   239.75  L   152.97,   248.24  L   178.47,   248.24  L   178.47,   239.75  L   152.97,   239.75  " /></a><a ewd:figtype="jb" style="cursor:pointer;" ewd:code="4" ewd:figID="21"><path style="&st4; " d=" M   152.97,   197.25  L   152.97,   205.75  L   178.47,   205.75  L   178.47,   197.25  L   152.97,   197.25  " /></a><a ewd:figtype="jb" style="cursor:pointer;" ewd:code="3" ewd:figID="22"><path style="&st4; " d=" M   152.97,    69.77  L   152.97,   163.26  L   203.97,   163.26  L   203.97,    69.77  L   152.97,    69.77  " /></a><a ewd:figtype="fuse" style="cursor:pointer;" ewd:code="FUSE45" ewd:figID="46"><path style="&st7; stroke-width:0;" d=" M   157.22,    95.27  L   157.22,   137.76  L   182.72,   137.76  L   182.72,    95.27  L   157.22,    95.27 " /></a><a ewd:figtype="fuse" style="cursor:pointer;" ewd:code="FUSE47" ewd:figID="47"><path style="&st7; stroke-width:0;" d=" M   225.21,    95.27  L   225.21,   137.76  L   250.71,   137.76  L   250.71,    95.27  L   225.21,    95.27 " /></a><a ewd:figtype="fuse" style="cursor:pointer;" ewd:code="FUSE23" ewd:figID="48"><path style="&st7; stroke-width:0;" d=" M   403.68,    35.78  L   403.68,    78.27  L   429.18,    78.27  L   429.18,    35.78  L   403.68,    35.78 " /></a><a ewd:figtype="fuse" style="cursor:pointer;" ewd:code="FUSE18" ewd:figID="49"><path style="&st7; stroke-width:0;" d=" M   871.10,    35.78  L   871.10,    78.27  L   896.60,    78.27  L   896.60,    35.78  L   871.10,    35.78 " /></a><a ewd:figtype="fuse" style="cursor:pointer;" ewd:code="FUSE5" ewd:figID="50"><path style="&st7; stroke-width:0;" d=" M   973.09,    35.78  L   973.09,    78.27  L   998.58,    78.27  L   998.58,    35.78  L   973.09,    35.78 " /></a><a ewd:comment="2" style="cursor:pointer;" ewd:lineID="1"><path style="stroke:#000000;stroke-width: 5.10 ;&st6;" d=" M    59.49,   571.76  L    59.49,   579.69  L    50.99,   588.19  L    25.50,   588.19  L    25.50,   681.67  " /><path style="stroke:#FFFFFF;stroke-width: 2.27 ;&st6;" d=" M    59.49,   571.76  L    59.49,   579.69  L    50.99,   588.19  L    25.50,   588.19  L    25.50,   681.67  " /><path style="stroke:#666666;stroke-width: 1.13 ;&st6;" d=" M    59.49,   571.76  L    59.49,   579.69  L    50.99,   588.19  L    25.50,   588.19  L    25.50,   681.67  " /></a><a ewd:comment="2" style="cursor:pointer;" ewd:lineID="2"><path style="stroke:#000000;stroke-width: 5.10 ;&st6;" d=" M    59.49,   571.76  L    59.49,   681.67  " /><path style="stroke:#FFFFFF;stroke-width: 2.27 ;&st6;" d=" M    59.49,   571.76  L    59.49,   681.67  " /><path style="stroke:#666666;stroke-width: 1.13 ;&st6;" d=" M    59.49,   571.76  L    59.49,   681.67  " /></a><a ewd:comment="3" style="cursor:pointer;" ewd:lineID="3"><path style="stroke:#000000;stroke-width: 5.10 ;&st6;" d=" M    67.99,   435.78  L    67.99,   452.21  L   144.48,   452.21  L   144.48,   494.14  " /></a><a style="cursor:pointer;" ewd:lineID="4"><path style="stroke:#000000;stroke-width: 5.10 ;&st6;" d=" M   118.98,   571.76  L   118.98,   681.67  " /><path style="stroke:#FFFFFF;stroke-width: 2.27 ;&st6;" d=" M   118.98,   571.76  L   118.98,   681.67  " /><path style="stroke:#666666;stroke-width: 1.13 ;&st6;" d=" M   118.98,   571.76  L   118.98,   681.67  " /></a><a ewd:comment="2" style="cursor:pointer;" ewd:lineID="5"><path style="stroke:#000000;stroke-width: 5.10 ;&st6;" d=" M   118.98,   494.14  L   118.98,   477.71  L    59.49,   477.71  L    59.49,   494.14  " /></a><a ewd:comment="1,3" style="cursor:pointer;" ewd:lineID="6"><path style="stroke:#000000;stroke-width: 5.10 ;&st6;" d=" M   169.97,   571.76  L   169.97,   681.67  " /><path style="stroke:#FFFFFF;stroke-width: 2.27 ;&st6;" d=" M   169.97,   571.76  L   169.97,   681.67  " /><path style="stroke:#666666;stroke-width: 1.13 ;&st6;" d=" M   169.97,   571.76  L   169.97,   681.67  " /></a><a ewd:comment="4" style="cursor:pointer;" ewd:lineID="7"><path style="stroke:#000000;stroke-width: 5.10 ;&st6;" d=" M   169.97,   443.71  L   169.97,   248.24  " /><path style="stroke:#FFFFFF;stroke-width: 2.27 ;&st6;" d=" M   169.97,   443.71  L   169.97,   248.24  " /><path style="stroke:#00A0C6;stroke-width: 1.13 ;&st6;" d=" M   169.97,   443.71  L   169.97,   248.24  " /></a><a ewd:comment="3" style="cursor:pointer;" ewd:lineID="8"><path style="stroke:#000000;stroke-width: 5.10 ;&st6;" d=" M   169.97,   248.24  L   169.97,   256.74  L   161.47,   265.24  L    67.99,   265.24  L    67.99,   307.73  " /><path style="stroke:#FFFFFF;stroke-width: 2.27 ;&st6;" d=" M   169.97,   248.24  L   169.97,   256.74  L   161.47,   265.24  L    67.99,   265.24  L    67.99,   307.73  " /><path style="stroke:#00A0C6;stroke-width: 1.13 ;&st6;" d=" M   169.97,   248.24  L   169.97,   256.74  L   161.47,   265.24  L    67.99,   265.24  L    67.99,   307.73  " /></a><a style="cursor:pointer;" ewd:lineID="9"><path style="stroke:#000000;stroke-width: 5.10 ;&st6;" d=" M   169.97,   163.26  L   169.97,   197.25  " /><path style="stroke:#FFFFFF;stroke-width: 2.27 ;&st6;" d=" M   169.97,   163.26  L   169.97,   197.25  " /><path style="stroke:#00A0C6;stroke-width: 1.13 ;&st6;" d=" M   169.97,   163.26  L   169.97,   197.25  "/></a><a style="cursor:pointer;" ewd:lineID="10"> d=" M   297.45,   468.64  L   297.45,   373.74 
	
		<path style="stroke:#000000;stroke-width: 5.10 ;&st6;" d=" M   297.45,   468.64  L   297.45,   373.74  " /><path style="stroke:#FFFFFF;stroke-width: 4.53 ;&st6;" d=" M   297.45,   468.64  L   297.45,   373.74  "/></a><a style="cursor:pointer;" ewd:lineID="11"> d=" M   297.45,   350.23  L   297.45,    52.78  L   237.96,    52.78  L   237.96,    69.77 
	
		<path style="stroke:#000000;stroke-width: 5.10 ;&st6;" d=" M   297.45,   350.23  L   297.45,    52.78  L   237.96,    52.78  L   237.96,    69.77  " /><path style="stroke:#FFFFFF;stroke-width: 4.53 ;&st6;" d=" M   297.45,   350.23  L   297.45,    52.78  L   237.96,    52.78  L   237.96,    69.77  "/></a><a style="cursor:pointer;" ewd:lineID="12"> d=" M   356.94,   468.64  L   356.94,   365.24 
	
		<path style="stroke:#000000;stroke-width: 5.10 ;&st6;" d=" M   356.94,   468.64  L   356.94,   365.24  " /><path style="stroke:#FFFFFF;stroke-width: 4.53 ;&st6;" d=" M   356.94,   468.64  L   356.94,   365.24  "/></a><a style="cursor:pointer;" ewd:lineID="13"> d=" M   356.94,   350.23  L   356.94,    27.28  L   169.97,    27.28  L   169.97,    69.77 
	
		<path style="stroke:#000000;stroke-width: 5.10 ;&st6;" d=" M   356.94,   350.23  L   356.94,    27.28  L   169.97,    27.28  L   169.97,    69.77  " /><path style="stroke:#FFFFFF;stroke-width: 4.53 ;&st6;" d=" M   356.94,   350.23  L   356.94,    27.28  L   169.97,    27.28  L   169.97,    69.77  " /></a><a style="cursor:pointer;" ewd:lineID="14"><path style="stroke:#FFE600;stroke-width: 5.10 ;&st6;" d=" M   416.43,   529.26  L   416.43,   630.68  L   628.89,   630.68  L   628.89,   606.32  " /></a><a style="cursor:pointer;" ewd:lineID="15"><path style="stroke:#000000;stroke-width: 5.10 ;&st6;" d=" M   416.43,   468.64  L   416.43,   460.71  L   424.93,   452.21  L   467.42,   452.21  L   467.42,   393.29  " /><path style="stroke:#FFFFFF;stroke-width: 2.27 ;&st6;" d=" M   416.43,   468.64  L   416.43,   460.71  L   424.93,   452.21  L   467.42,   452.21  L   467.42,   393.29  " /><path style="stroke:#FFE600;stroke-width: 1.13 ;&st6;" d=" M   416.43,   468.64  L   416.43,   460.71  L   424.93,   452.21  L   467.42,   452.21  L   467.42,   393.29  " /></a><a style="cursor:pointer;" ewd:lineID="16"><path style="stroke:#000000;stroke-width: 5.10 ;&st6;" d=" M   416.43,   248.24  L   416.43,   468.64  " /><path style="stroke:#FFFFFF;stroke-width: 2.27 ;&st6;" d=" M   416.43,   248.24  L   416.43,   468.64  " /><path style="stroke:#FFE600;stroke-width: 1.13 ;&st6;" d=" M   416.43,   248.24  L   416.43,   468.64  " /></a><a ewd:comment="14" style="cursor:pointer;" ewd:lineID="17"><path style="stroke:#999999;stroke-width: 5.10 ;&st6;" d=" M   416.43,   103.77  L   416.43,   112.27  L   407.93,   120.77  L   382.44,   120.77  L   382.44,   239.75  L   407.93,   239.75  " /></a><a ewd:comment="13" style="cursor:pointer;" ewd:lineID="18"><path style="stroke:#000000;stroke-width: 5.10 ;&st6;" d=" M   416.43,   103.77  L   416.43,   231.25  " /><path style="stroke:#FFFFFF;stroke-width: 2.27 ;&st6;" d=" M   416.43,   103.77  L   416.43,   231.25  " /><path style="stroke:#FFE600;stroke-width: 1.13 ;&st6;" d=" M   416.43,   103.77  L   416.43,   231.25  " /></a><a ewd:comment="14" style="cursor:pointer;" ewd:lineID="19"><path style="stroke:#999999;stroke-width: 5.10 ;&st6;" d=" M   416.43,   103.77  L   416.43,   112.27  L   441.93,   120.77  L   492.92,   120.77  L   492.92,   197.25  L   475.92,   197.25  L   467.42,   205.75  L   467.42,   213.12  " /></a><a ewd:comment="13" style="cursor:pointer;" ewd:lineID="20"><path style="stroke:#000000;stroke-width: 5.10 ;&st6;" d=" M   467.42,   266.37  L   467.42,   358.16  " /><path style="stroke:#FFFFFF;stroke-width: 2.27 ;&st6;" d=" M   467.42,   266.37  L   467.42,   358.16  " /><path style="stroke:#FFE600;stroke-width: 1.13 ;&st6;" d=" M   467.42,   266.37  L   467.42,   358.16  " /></a><a ewd:comment="14" style="cursor:pointer;" ewd:lineID="21"><path style="stroke:#999999;stroke-width: 5.10 ;&st6;" d=" M   467.42,   266.37  L   467.42,   273.74  L   475.92,   282.24  L   492.92,   282.24  L   492.92,   341.73  L   475.92,   341.73  L   467.42,   350.23  L   467.42,   358.16  " /></a><a ewd:comment="13" style="cursor:pointer;" ewd:lineID="22"><path style="stroke:#000000;stroke-width: 5.10 ;&st6;" d=" M   467.42,   213.12  L   467.42,   137.76  L   433.43,   137.76  L   416.43,   112.27  L   416.43,   103.77  " /><path style="stroke:#FFFFFF;stroke-width: 2.27 ;&st6;" d=" M   467.42,   213.12  L   467.42,   137.76  L   433.43,   137.76  L   416.43,   112.27  L   416.43,   103.77  " /><path style="stroke:#FFE600;stroke-width: 1.13 ;&st6;" d=" M   467.42,   213.12  L   467.42,   137.76  L   433.43,   137.76  L   416.43,   112.27  L   416.43,   103.77  " /></a><a style="cursor:pointer;" ewd:lineID="23"><path style="stroke:#FFE600;stroke-width: 5.10 ;&st6;" d=" M   628.89,   511.70  L   628.89,   553.06  " /></a><a ewd:comment="12" style="cursor:pointer;" ewd:lineID="24"><path style="stroke:#F668B2;stroke-width: 5.10 ;&st6;" d=" M   628.89,   488.47  L   628.89,   486.20  L   637.39,   477.71  L   654.39,   477.71  L   654.39,   426.71  L   637.39,   426.71  L   628.89,   418.22  L   628.89,   410.28  " /></a><a ewd:comment="11" style="cursor:pointer;" ewd:lineID="25"><path style="stroke:#FFE600;stroke-width: 5.10 ;&st6;" d=" M   628.89,   410.28  L   628.89,   488.47  " /></a><a ewd:comment="11" style="cursor:pointer;" ewd:lineID="26"><path style="stroke:#000000;stroke-width: 5.10 ;&st6;" d=" M   662.89,   137.76  L   662.89,   205.75  L   696.88,   205.75  L   713.88,   231.25  L   713.88,   239.18  " /><path style="stroke:#FFFFFF;stroke-width: 2.27 ;&st6;" d=" M   662.89,   137.76  L   662.89,   205.75  L   696.88,   205.75  L   713.88,   231.25  L   713.88,   239.18  " /><path style="stroke:#FFE600;stroke-width: 1.13 ;&st6;" d=" M   662.89,   137.76  L   662.89,   205.75  L   696.88,   205.75  L   713.88,   231.25  L   713.88,   239.18  " /></a><a ewd:comment="12" style="cursor:pointer;" ewd:lineID="27"><path style="stroke:#56077D;stroke-width: 5.10 ;&st6;" d=" M   662.89,   137.76  L   662.89,   146.26  L   654.39,   154.76  L   637.39,   154.76  L   637.39,   222.75  L   688.38,   222.75  L   713.88,   231.25  L   713.88,   239.18  " /></a><a ewd:comment="13" style="cursor:pointer;" ewd:lineID="28"><path style="stroke:#000000;stroke-width: 5.10 ;&st6;" d=" M   662.89,   122.75  L   662.89,    35.78  L   841.36,    35.78  L   841.36,    95.27  L   824.36,   120.77  L   824.36,   128.13  " /><path style="stroke:#FFFFFF;stroke-width: 2.27 ;&st6;" d=" M   662.89,   122.75  L   662.89,    35.78  L   841.36,    35.78  L   841.36,    95.27  L   824.36,   120.77  L   824.36,   128.13  " /><path style="stroke:#FFE600;stroke-width: 1.13 ;&st6;" d=" M   662.89,   122.75  L   662.89,    35.78  L   841.36,    35.78  L   841.36,    95.27  L   824.36,   120.77  L   824.36,   128.13  " /></a><a ewd:comment="14" style="cursor:pointer;" ewd:lineID="29"><path style="stroke:#56077D;stroke-width: 5.10 ;&st6;" d=" M   662.89,   123.03  L   662.89,   120.77  L   645.89,   103.77  L   645.89,    18.78  L   858.36,    18.78  L   858.36,   103.77  L   824.36,   120.77  L   824.36,   128.13  " /></a><a ewd:comment="11" style="cursor:pointer;" ewd:lineID="30"><path style="stroke:#000000;stroke-width: 5.10 ;&st6;" d=" M   713.88,   144.28  L   713.88,   239.18  " /><path style="stroke:#FFFFFF;stroke-width: 2.27 ;&st6;" d=" M   713.88,   144.28  L   713.88,   239.18  " /><path style="stroke:#FFE600;stroke-width: 1.13 ;&st6;" d=" M   713.88,   144.28  L   713.88,   239.18  " /></a><a ewd:comment="12" style="cursor:pointer;" ewd:lineID="31"><path style="stroke:#56077D;stroke-width: 5.10 ;&st6;" d=" M   713.88,   143.99  L   713.88,   146.26  L   722.38,   154.76  L   739.38,   154.76  L   739.38,   222.75  L   722.38,   222.75  L   713.88,   231.25  L   713.88,   239.18  " /></a><a ewd:comment="13" style="cursor:pointer;" ewd:lineID="32"><path style="stroke:#000000;stroke-width: 5.10 ;&st6;" d=" M   713.88,   129.26  L   713.88,    52.78  L   824.36,    52.78  L   824.36,   128.13  " /><path style="stroke:#FFFFFF;stroke-width: 2.27 ;&st6;" d=" M   713.88,   129.26  L   713.88,    52.78  L   824.36,    52.78  L   824.36,   128.13  " /><path style="stroke:#FFE600;stroke-width: 1.13 ;&st6;" d=" M   713.88,   129.26  L   713.88,    52.78  L   824.36,    52.78  L   824.36,   128.13  " /></a><a ewd:comment="14" style="cursor:pointer;" ewd:lineID="33"><path style="stroke:#56077D;stroke-width: 5.10 ;&st6;" d=" M   713.88,   129.26  L   713.88,   120.77  L   722.38,   112.27  L   815.86,   112.27  L   824.36,   120.77  L   824.36,   128.13  " /></a><a style="cursor:pointer;" ewd:lineID="34"><path style="stroke:#992903;stroke-width: 5.10 ;&st6;" d=" M   739.38,   681.67  L   739.38,   656.18  " /></a><a style="cursor:pointer;" ewd:lineID="35"><path style="stroke:#992903;stroke-width: 5.10 ;&st6;" d=" M   739.38,   639.18  L   739.38,   611.42  " /></a><a style="cursor:pointer;" ewd:lineID="36"><path style="stroke:#992903;stroke-width: 5.10 ;&st6;" d=" M   739.38,   562.69  L   739.38,   596.69  " /></a><a ewd:comment="10" style="cursor:pointer;" ewd:lineID="37"><path style="stroke:#992903;stroke-width: 5.10 ;&st6;" d=" M   739.38,   539.46  L   739.38,   537.20  L   747.88,   528.70  L   781.87,   528.70  L   781.87,   511.70  " /></a><a ewd:comment="3,6,7" style="cursor:pointer;" ewd:lineID="38"><path style="stroke:#992903;stroke-width: 5.10 ;&st6;" d=" M   739.38,   460.71  L   739.38,   539.46  " /></a><a style="cursor:pointer;" ewd:lineID="39"><path style="stroke:#992903;stroke-width: 5.10 ;&st6;" d=" M   739.38,   410.28  L   739.38,   437.48  " /></a><a ewd:comment="10" style="cursor:pointer;" ewd:lineID="40"><path style="stroke:#992903;stroke-width: 5.10 ;&st6;" d=" M   781.87,   494.70  L   781.87,   477.71  L   747.88,   477.71  L   739.38,   469.21  L   739.38,   460.71  " /></a><a ewd:comment="14" style="cursor:pointer;" ewd:lineID="41"><path style="stroke:#999999;stroke-width: 5.10 ;&st6;" d=" M   824.36,   181.39  L   824.36,   214.25  L   909.35,   214.25  L   909.35,   120.77  L   892.35,   120.77  L   883.85,   112.27  L   883.85,   103.77  " /></a><a ewd:comment="13" style="cursor:pointer;" ewd:lineID="42"><path style="stroke:#000000;stroke-width: 5.10 ;&st6;" d=" M   883.85,   103.77  L   883.85,   197.25  L   832.86,   197.25  L   824.36,   188.75  L   824.36,   181.39  " /><path style="stroke:#FFFFFF;stroke-width: 2.27 ;&st6;" d=" M   883.85,   103.77  L   883.85,   197.25  L   832.86,   197.25  L   824.36,   188.75  L   824.36,   181.39  " /><path style="stroke:#FFE600;stroke-width: 1.13 ;&st6;" d=" M   883.85,   103.77  L   883.85,   197.25  L   832.86,   197.25  L   824.36,   188.75  L   824.36,   181.39  " /></a><a style="cursor:pointer;" ewd:lineID="43"><path style="stroke:#FF0000;stroke-width: 5.10 ;&st6;" d=" M   943.34,   239.18  L   943.34,   177.99  " /></a><a style="cursor:pointer;" ewd:lineID="44"><path style="stroke:#FF0000;stroke-width: 5.10 ;&st6;" d=" M   977.34,   137.76  L   943.34,   137.76  L   943.34,   154.76  " /></a><a style="cursor:pointer;" ewd:lineID="45"><path style="stroke:#FF0000;stroke-width: 5.10 ;&st6;" d=" M   985.84,   129.26  L   985.84,   103.77  " /></a><a style="cursor:pointer;" ewd:lineID="46"><path style="stroke:#000000;stroke-width: 0.85 ;&st6;" d=" M   169.97,   477.71  L   169.97,   494.14  " /></a><a style="cursor:pointer;" ewd:lineID="47"><path style="stroke:#000000;stroke-width: 0.85 ;&st6;" d=" M    67.99,   341.73  L    67.99,   358.16  " /></a><a ewd:figtype="w2w" style="cursor:pointer;" ewd:pinNo="1" ewd:code="AI2" ewd:figID="23"><path style="&st2;" d=" M   305.95,   358.73  L   288.95,   358.73  L   288.95,   367.22  L   305.95,   367.22  L   305.95,   358.73 " /><text style="&st8;" transform="matrix(&st16;  293.09  365.09 )"><tspan x="0" style="&st18;" y="0">AI2</tspan></text></a><a ewd:figtype="w2w" style="cursor:pointer;" ewd:pinNo="1" ewd:code="AI7" ewd:figID="24"><path style="&st2;" d=" M   305.95,   350.23  L   288.95,   350.23  L   288.95,   358.73  L   305.95,   358.73  L   305.95,   350.23 " /><text style="&st8;" transform="matrix(&st16;  293.09  356.6 )"><tspan x="0" style="&st18;" y="0">AI7</tspan></text></a><a ewd:figtype="w2w" style="cursor:pointer;" ewd:pinNo="1" ewd:code="AI4" ewd:figID="25"><path style="&st2;" d=" M   365.44,   350.23  L   348.44,   350.23  L   348.44,   358.73  L   365.44,   358.73  L   365.44,   350.23 " /><text style="&st8;" transform="matrix(&st16;  352.58  356.6 )"><tspan x="0" style="&st18;" y="0">AI4</tspan></text></a><a ewd:figtype="w2w" style="cursor:pointer;" ewd:pinNo="19" ewd:code="IL5" ewd:figID="26"><path style="&st2;" d=" M   637.39,   503.20  L   620.40,   503.20  L   620.40,   511.70  L   637.39,   511.70  L   637.39,   503.20 " /><text style="&st8;" transform="matrix(&st16;  624.87  509.57 )"><tspan x="0" style="&st18;" y="0">IL5</tspan></text></a><a ewd:figtype="w2w" style="cursor:pointer;" ewd:pinNo="9" ewd:code="IL1" ewd:figID="27"><path style="&st2;" d=" M   637.39,   494.70  L   620.40,   494.70  L   620.40,   503.20  L   637.39,   503.20  L   637.39,   494.70 " /><text style="&st8;" transform="matrix(&st16;  624.87  501.07 )"><tspan x="0" style="&st18;" y="0">IL1</tspan></text></a><a ewd:figtype="w2w" style="cursor:pointer;" ewd:pinNo="18" ewd:code="LI1" ewd:figID="28"><path style="&st2;" d=" M   671.39,   129.26  L   654.39,   129.26  L   654.39,   137.76  L   671.39,   137.76  L   671.39,   129.26 " /><text style="&st8;" transform="matrix(&st16;  658.86  135.63 )"><tspan x="0" style="&st18;" y="0">LI1</tspan></text></a><a ewd:figtype="w2w" style="cursor:pointer;" ewd:pinNo="22" ewd:code="IL2" ewd:figID="29"><path style="&st2;" d=" M   722.38,   129.26  L   705.38,   129.26  L   705.38,   137.76  L   722.38,   137.76  L   722.38,   129.26 " /><text style="&st8;" transform="matrix(&st16;  709.85  135.63 )"><tspan x="0" style="&st18;" y="0">IL2</tspan></text></a><a ewd:figtype="w2w" style="cursor:pointer;" ewd:pinNo="1" ewd:code="AC1" ewd:figID="30"><path style="&st2;" d=" M   747.88,   596.69  L   730.88,   596.69  L   730.88,   605.18  L   747.88,   605.18  L   747.88,   596.69 " /><text style="&st8;" transform="matrix(&st16;  733.73  603.06 )"><tspan x="0" style="&st18;" y="0">AC1</tspan></text></a><a ewd:figtype="w2w" style="cursor:pointer;" ewd:pinNo="22" ewd:code="AI3" ewd:figID="31"><path style="&st2;" d=" M   747.88,   554.19  L   730.88,   554.19  L   730.88,   562.69  L   747.88,   562.69  L   747.88,   554.19 " /><text style="&st8;" transform="matrix(&st16;  735.01  560.56 )"><tspan x="0" style="&st18;" y="0">AI3</tspan></text></a><a ewd:figtype="w2w" style="cursor:pointer;" ewd:pinNo="45" ewd:code="AI3" ewd:figID="32"><path style="&st2;" d=" M   747.88,   545.69  L   730.88,   545.69  L   730.88,   554.19  L   747.88,   554.19  L   747.88,   545.69 " /><text style="&st8;" transform="matrix(&st16;  735.01  552.06 )"><tspan x="0" style="&st18;" y="0">AI3</tspan></text></a><a ewd:figtype="w2w" style="cursor:pointer;" ewd:pinNo="14" ewd:code="IL6" ewd:figID="33"><path style="&st2;" d=" M   747.88,   452.21  L   730.88,   452.21  L   730.88,   460.71  L   747.88,   460.71  L   747.88,   452.21 " /><text style="&st8;" transform="matrix(&st16;  735.35  458.58 )"><tspan x="0" style="&st18;" y="0">IL6</tspan></text></a><a ewd:figtype="w2w" style="cursor:pointer;" ewd:pinNo="4" ewd:code="IL2" ewd:figID="34"><path style="&st2;" d=" M   747.88,   443.71  L   730.88,   443.71  L   730.88,   452.21  L   747.88,   452.21  L   747.88,   443.71 " /><text style="&st8;" transform="matrix(&st16;  735.35  450.08 )"><tspan x="0" style="&st18;" y="0">IL2</tspan></text></a><a ewd:figtype="w2w" style="cursor:pointer;" ewd:pinNo="8" ewd:code="IL6" ewd:figID="35"><path style="&st2;" d=" M   951.84,   163.26  L   934.84,   163.26  L   934.84,   171.76  L   951.84,   171.76  L   951.84,   163.26 " /><text style="&st8;" transform="matrix(&st16;  939.32  169.63 )"><tspan x="0" style="&st18;" y="0">IL6</tspan></text></a><a ewd:figtype="w2w" style="cursor:pointer;" ewd:pinNo="2" ewd:code="IL2" ewd:figID="36"><path style="&st2;" d=" M   951.84,   154.76  L   934.84,   154.76  L   934.84,   163.26  L   951.84,   163.26  L   951.84,   154.76 " /><text style="&st8;" transform="matrix(&st16;  939.32  161.13 )"><tspan x="0" style="&st18;" y="0">IL2</tspan></text></a><a ewd:figtype="gp" style="cursor:pointer;" ewd:code="FC" ewd:figID="37"><path style="&st2;" d=" M    14.87,   681.67  L    36.12,   681.67  L    25.50,   697.25  L    14.87,   681.67 " /><text style="&st8;" transform="matrix(&st16;  21.62  689.46 )"><tspan x="0" style="&st18;" y="0">FC</tspan></text></a><a ewd:figtype="gp" style="cursor:pointer;" ewd:code="FB" ewd:figID="38"><path style="&st2;" d=" M    48.87,   681.67  L    70.11,   681.67  L    59.49,   697.25  L    48.87,   681.67 " /><text style="&st8;" transform="matrix(&st16;  55.8  689.46 )"><tspan x="0" style="&st18;" y="0">FB</tspan></text></a><a ewd:figtype="gp" style="cursor:pointer;" ewd:code="AC" ewd:figID="39"><path style="&st2;" d=" M   108.36,   681.67  L   129.60,   681.67  L   118.98,   697.25  L   108.36,   681.67 " /><text style="&st8;" transform="matrix(&st16;  114.92  689.46 )"><tspan x="0" style="&st18;" y="0">AC</tspan></text></a><a ewd:figtype="gp" style="cursor:pointer;" ewd:code="FA" ewd:figID="40"><path style="&st2;" d=" M   159.35,   681.67  L   180.59,   681.67  L   169.97,   697.25  L   159.35,   681.67 " /><text style="&st8;" transform="matrix(&st16;  166.28  689.46 )"><tspan x="0" style="&st18;" y="0">FA</tspan></text></a><a ewd:figtype="gp" style="cursor:pointer;" ewd:code="CC" ewd:figID="41"><path style="&st2;" d=" M   728.75,   681.67  L   750.00,   681.67  L   739.38,   697.25  L   728.75,   681.67 " /><text style="&st8;" transform="matrix(&st16;  735.16  689.46 )"><tspan x="0" style="&st18;" y="0">CC</tspan></text></a><a ewd:figtype="sp" style="cursor:pointer;" ewd:code="SP44" ewd:figID="42"><path style="&st2;" d=" M   412.18,   231.25  L   420.68,   231.25  L   424.93,   235.50  L   424.93,   243.99  L   420.68,   248.24  L   412.18,   248.24  L   407.93,   243.99  L   407.93,   235.50  L   412.18,   231.25 " /></a><a ewd:figtype="sp" style="cursor:pointer;" ewd:code="SP19" ewd:figID="43"><path style="&st2;" d=" M   735.13,   639.18  L   743.63,   639.18  L   747.88,   643.43  L   747.88,   651.93  L   743.63,   656.18  L   735.13,   656.18  L   730.88,   651.93  L   730.88,   643.43  L   735.13,   639.18 " /></a><a ewd:figtype="sp" style="cursor:pointer;" ewd:code="SP60" ewd:figID="44"><path style="&st2;" d=" M   777.62,   494.70  L   786.12,   494.70  L   790.37,   498.95  L   790.37,   507.45  L   786.12,   511.70  L   777.62,   511.70  L   773.37,   507.45  L   773.37,   498.95  L   777.62,   494.70 " /></a><a ewd:figtype="sp" style="cursor:pointer;" ewd:code="SP51" ewd:figID="45"><path style="&st2;" d=" M   981.59,   129.26  L   990.08,   129.26  L   994.33,   133.51  L   994.33,   142.01  L   990.08,   146.26  L   981.59,   146.26  L   977.34,   142.01  L   977.34,   133.51  L   981.59,   129.26 "/></a></g></svg>
