<?xml version="1.0" encoding="utf-8"?>
<!DOCTYPE svg PUBLIC "-//W3C//DTD SVG 1.0//EN" "http://www.w3.org/TR/2001/REC-SVG-20010904/DTD/svg10.dtd"[
	<!ENTITY ns_flows "http://ns.adobe.com/Flows/1.0/">
	<!ENTITY ns_svg "http://www.w3.org/2000/svg">
	<!ENTITY ns_xlink "http://www.w3.org/1999/xlink">
	<!ENTITY st0 "font-size:7px;font-family:'MS-PGothic';adobe-font-script:japanese;">
	<!ENTITY st1 "font-size:6px;font-family:'ArialMT';">
	<!-- White fill  -->
	<!ENTITY st2 "fill:#FFFFFF;stroke:#000000; stroke-width:1.41;stroke-linecap:round;stroke-linejoin:round;">
	<!-- Yellow fill  -->
	<!ENTITY st3 "fill:#FFFFCC;stroke:#FFFFCC; stroke-width:0.1;stroke-linecap:round;stroke-linejoin:round;">
	<!-- Gray fill  -->
	<!ENTITY st4 "fill:#CCCCCC;stroke:#CCCCCC; stroke-width:0.1;stroke-linecap:round;stroke-linejoin:round;">
	<!-- Light-blue fill -->
	<!ENTITY st5 "fill:#CCECF4;stroke:#000000; stroke-width:1.133;stroke-linecap:round;stroke-linejoin:round;">
	<!ENTITY st6 "fill:none;stroke-linecap:butt; stroke-linejoin:round;">
	<!ENTITY st7 "fill:none;stroke:#000000;stroke-linecap:round;stroke-linejoin:round;">
	<!ENTITY st8 "enable-background:new    ;">
	<!-- Black fill -->
	<!ENTITY st9 "fill:#000000;stroke:#000000; stroke-linecap:round;stroke-linejoin:round;">
	<!-- SRS note   -->
	<!ENTITY st10 "font-size:9px;font-family:'ArialMT';">
	<!ENTITY st11 "font-size:9px;font-family:'Svg Symbol';">
	<!ENTITY st12 "font-size:6px;font-family:'Svg Symbol';">
	<!ENTITY st13 "fill:none;stroke:#ff0000;stroke-linecap:round;stroke-linejoin:round;">
	<!-- Yellow fill  -->
	<!ENTITY st14 "fill:#FFFF00;stroke:#FFFF00; stroke-width:0.1;stroke-linecap:round;stroke-linejoin:round;">
	<!ENTITY st15 "font-size:6px;font-family:'MS-PGothic';adobe-font-script:japanese;">
	<!ENTITY st16 "1.00 0.00 0.00 1.00">
	<!ENTITY st17 "0.00 -1.00 1.00 0.00">
	<!ENTITY st18 "font-size:6px;font-family:'Arial';">
	<!ENTITY st19 "font-size:9px;font-family:'Arial';">
	<!ENTITY st20 "font-size:6px;font-family:'MS-PGothic','MS PGothic';adobe-font-script:japanese;">
	<!ENTITY st21 "font-size:7px;font-family:'MS-PGothic','MS PGothic';adobe-font-script:japanese;">
	<!ATTLIST svg
		xmlns:ewd CDATA #FIXED "http://shcl.co.jp/ewd"
		xmlns:a CDATA #FIXED "http://ns.adobe.com/AdobeSVGViewerExtensions/3.0/"
		ewd:ver CDATA #IMPLIED
	>
	<!ATTLIST a
		ewd:lineID CDATA #IMPLIED
		ewd:groupID CDATA #IMPLIED
		ewd:figtype CDATA #IMPLIED
		ewd:code CDATA #IMPLIED
		ewd:figID CDATA #IMPLIED
		ewd:pinNo CDATA #IMPLIED
		ewd:comment CDATA #IMPLIED >
	<!ATTLIST g
		ewd:lineID CDATA #IMPLIED
		ewd:groupID CDATA #IMPLIED
		ewd:figtype CDATA #IMPLIED
		ewd:code CDATA #IMPLIED
		ewd:figID CDATA #IMPLIED
		ewd:pinNo CDATA #IMPLIED
		ewd:comment CDATA #IMPLIED >
	<!ATTLIST text
		ewd:textID CDATA #IMPLIED >
	<!ATTLIST title
		ewd:textID CDATA #IMPLIED >
]>
<!-- Generator: Shintec Hozumi YS   -->
<svg onload="call_execInitLoadProc_svg('system')" style="overflow:visible;  enable-background:new 0 0 3601.076 710.000" viewBox="0 0 3601.076 710.000" height="710.000" width="3601.076" xml:space="preserve" ewd:ver="2.3.1.16" xmlns="&ns_svg;" xmlns:a="http://ns.adobe.com/AdobeSVGViewerExtensions/3.0/" xmlns:ewd="http://shcl.co.jp/ewd" xmlns:xlink="&ns_xlink;">
<text style="&st18;" transform="matrix(&st16;  2801.12  55.0 )">L31</text><text style="&st18;" transform="matrix(&st16;  2801.13  61.83 )" ewd:textID="33">Door Control ECU with Receiver Assembly</text><path style="stroke-width: 1.42 ;&st7;  " d=" M  2753.54,   222.75  L  2762.04,   222.75  " /><path style="stroke-width: 1.42 ;&st7;  " d=" M  2821.53,   222.75  L  2830.03,   222.75  " /><text style="&st18;" transform="matrix(&st17;  2724.35  394.49 )">P</text><text style="&st18;" transform="matrix(&st17;  2735.68  397.28 )">(*2)</text><text style="&st18;" transform="matrix(&st17;  2758.34  394.49 )">B</text><text style="&st18;" transform="matrix(&st17;  2769.67  397.28 )">(*2)</text><text style="&st18;" transform="matrix(&st17;  2724.35  513.47 )">P</text><text style="&st18;" transform="matrix(&st17;  2735.68  516.26 )">(*2)</text><text style="&st18;" transform="matrix(&st17;  2758.34  514.4 )">W</text><text style="&st18;" transform="matrix(&st17;  2769.67  516.26 )">(*2)</text><text style="&st18;" transform="matrix(&st16;  2560.35  542.0 )">W-B</text><text style="&st18;" transform="matrix(&st17;  2885.82  398.6 )">R-W</text><text style="&st18;" transform="matrix(&st17;  2826.33  284.94 )">W</text><text style="&st18;" transform="matrix(&st17;  2837.66  286.8 )">(*2)</text><text style="&st18;" transform="matrix(&st16;  2611.34  542.0 )">W-B</text><text style="&st18;" transform="matrix(&st17;  2897.15  400.96 )">(*2 *3)</text><text style="&st18;" transform="matrix(&st17;  2911.32  398.6 )">R-W</text><text style="&st18;" transform="matrix(&st17;  2922.65  400.96 )">(*2 *4)</text><text style="&st18;" transform="matrix(&st17;  2936.81  397.94 )">R-G</text><text style="&st18;" transform="matrix(&st17;  2948.15  400.96 )">(*2 *3)</text><text style="&st18;" transform="matrix(&st17;  2962.31  397.94 )">R-G</text><text style="&st18;" transform="matrix(&st17;  2973.64  400.96 )">(*2 *4)</text><text style="&st18;" transform="matrix(&st17;  2911.32  517.42 )">W-B</text><text style="&st18;" transform="matrix(&st17;  2922.65  516.26 )">(*2)</text><text style="&st18;" transform="matrix(&st16;  2610.49  244.55 )">B(*1)</text><text style="&st18;" transform="matrix(&st16;  2559.5  244.55 )">B(*1)</text><text style="&st18;" transform="matrix(&st16;  2609.56  261.54 )">W(*1)</text><text style="&st18;" transform="matrix(&st16;  2558.57  261.54 )">W(*1)</text><text style="&st18;" transform="matrix(&st16;  2610.49  278.54 )">P(*2)</text><text style="&st18;" transform="matrix(&st16;  2559.5  278.54 )">P(*2)</text><text style="&st18;" transform="matrix(&st16;  2602.7  295.54 )">R-W(*2 *4)</text><text style="&st18;" transform="matrix(&st16;  2551.7  295.54 )">R-W(*2 *4)</text><text style="&st18;" transform="matrix(&st16;  2603.32  312.54 )">R-G(*2 *4)</text><text style="&st18;" transform="matrix(&st16;  2552.32  312.54 )">R-G(*2 *4)</text><text style="&st18;" transform="matrix(&st16;  2602.7  329.53 )">R-W(*2 *3)</text><text style="&st18;" transform="matrix(&st16;  2551.7  329.53 )">R-W(*2 *3)</text><text style="&st18;" transform="matrix(&st16;  2603.32  355.03 )">R-G(*2 *3)</text><text style="&st18;" transform="matrix(&st16;  2552.32  355.03 )">R-G(*2 *3)</text><path style="stroke-width: 1.42 ;&st7;  " d=" M  2736.54,   542.17  L  2731.57,   537.20  " /><path style="stroke-width: 1.42 ;&st7;  " d=" M  2719.55,   549.22  L  2724.51,   554.19  " /><path style="stroke-width: 1.42 ;&st7;  " d=" M  2731.57,   554.19  L  2736.54,   549.22  " /><path style="stroke-width: 1.42 ;&st7;  " d=" M  2724.52,   537.20  L  2719.55,   542.17  " /><g ewd:figtype="conn" ewd:figID="18" ewd:code="O4"><path style="stroke-width: 0.85 ;&st7;  " d=" M  2728.04,   447.96  L  2728.04,   435.21  " /><path style="stroke-width: 0.85 ;&st7;  " d=" M  2728.04,   486.20  L  2728.04,   473.46  " /><path style="stroke-width: 1.42 ;&st7;  " d=" M  2728.04,   470.62  L  2733.71,   447.96  " /><path style="stroke-width: 1.42 ;&st7;  " d=" M  2757.79,   472.04  L  2766.29,   472.04  " /><path style="stroke-width: 1.42 ;&st7;  " d=" M  2757.79,   468.07  L  2757.79,   472.04  " /><path style="stroke-width: 1.42 ;&st7;  " d=" M  2766.29,   472.04  L  2766.29,   468.07  " /><path style="stroke-width: 1.42 ;&st7;  " d=" M  2757.79,   449.38  L  2766.29,   449.38  " /><path style="stroke-width: 1.42 ;&st7;  " d=" M  2757.79,   453.34  L  2757.79,   449.38  " /><path style="stroke-width: 1.42 ;&st7;  " d=" M  2766.29,   449.38  L  2766.29,   453.34  " /><path style="stroke-width: 0.85 ;&st7;   " d=" M  2729.46,   449.38  C  2729.46    448.59   2728.83    447.96   2728.04    447.96  " /><path style="stroke-width: 0.85 ;&st7;   " d=" M  2728.04,   447.96  C  2727.26    447.96   2726.63    448.59   2726.63    449.38  " /><path style="stroke-width: 0.85 ;&st7;   " d=" M  2726.63,   449.38  C  2726.63    450.16   2727.26    450.79   2728.04    450.79  " /><path style="stroke-width: 0.85 ;&st7;   " d=" M  2728.04,   450.79  C  2728.83    450.79   2729.46    450.16   2729.46    449.38  " /><path style="stroke-width: 0.85 ;&st7;   " d=" M  2729.46,   472.04  C  2729.46    471.26   2728.83    470.62   2728.04    470.62  " /><path style="stroke-width: 0.85 ;&st7;   " d=" M  2728.04,   470.62  C  2727.26    470.62   2726.63    471.26   2726.63    472.04  " /><path style="stroke-width: 0.85 ;&st7;   " d=" M  2726.63,   472.04  C  2726.63    472.82   2727.26    473.46   2728.04    473.46  " /><path style="stroke-width: 0.85 ;&st7;   " d=" M  2728.04,   473.46  C  2728.83    473.46   2729.46    472.82   2729.46    472.04  " /><path style="stroke-width: 1.42 ;&st7;   " d=" M  2753.54,   460.71  C  2753.54    465.40   2757.34    469.21   2762.04    469.21  " /><path style="stroke-width: 1.42 ;&st7;   " d=" M  2762.04,   469.21  C  2766.73    469.21   2770.54    465.40   2770.54    460.71  " /><path style="stroke-width: 1.42 ;&st7;   " d=" M  2770.54,   460.71  C  2770.54    456.01   2766.73    452.21   2762.04    452.21  " /><path style="stroke-width: 1.42 ;&st7;   " d=" M  2762.04,   452.21  C  2757.34    452.21   2753.54    456.01   2753.54    460.71  " /><path style="stroke-width: 1.42 ;&st7;  " d=" M  2702.55,   435.21  L  2702.55,   486.20  L  2787.53,   486.20  L  2787.53,   435.21  L  2702.55,   435.21  " /><path style="stroke-width: 0.85 ;&st7;  " d=" M  2762.04,   435.21  L  2762.04,   449.38  " /><path style="stroke-width: 0.85 ;&st7;  " d=" M  2762.04,   472.04  L  2762.04,   486.20  " /><text style="&st18;" transform="matrix(&st16;  2759.31  462.68 )">M</text><text style="&st18;" transform="matrix(&st16;  2730.63  482.51 )">E</text><text style="&st18;" transform="matrix(&st16;  2764.62  482.51 )">UL</text><text style="&st18;" transform="matrix(&st16;  2764.62  443.41 )">L</text><text style="&st18;" transform="matrix(&st16;  2730.63  443.41 )">LSSR</text><text style="&st18;" transform="matrix(&st17;  2717.0  473.1 )" ewd:textID="63">Unlock <tspan x="0 " dy="6.0">Detection</tspan></text><text style="&st18;" transform="matrix(&st16;  2755.7  494.4 )">2</text><text style="&st18;" transform="matrix(&st16;  2721.7  431.52 )">1</text><text style="&st18;" transform="matrix(&st16;  2721.7  494.4 )">3</text><text style="&st18;" transform="matrix(&st16;  2755.7  431.52 )">4</text><g ewd:figtype="title"><text style="&st18;" transform="matrix(&st17;  2686.08  489.1 )">O4</text><text style="&st18;" transform="matrix(&st17;  2692.9  489.11 )" ewd:textID="41">Front Door Lock <tspan x="0 " dy="6.0">Actuator Assembly RH</tspan></text></g></g><g ewd:figtype="conn" ewd:figID="20" ewd:code="O14"><path style="stroke-width: 1.42 ;&st7;  " d=" M  2915.01,   440.88  L  2915.01,   457.88  " /><path style="stroke-width: 0.85 ;&st7;  " d=" M  2915.01,   486.20  L  2915.01,   460.71  " /><path style="stroke-width: 0.85 ;&st7;   " d=" M  2916.43,   459.29  C  2916.43    458.51   2915.80    457.88   2915.01    457.88  " /><path style="stroke-width: 0.85 ;&st7;   " d=" M  2915.01,   457.88  C  2914.23    457.88   2913.60    458.51   2913.60    459.29  " /><path style="stroke-width: 0.85 ;&st7;   " d=" M  2913.60,   459.29  C  2913.60    460.07   2914.23    460.71   2915.01    460.71  " /><path style="stroke-width: 0.85 ;&st7;   " d=" M  2915.01,   460.71  C  2915.80    460.71   2916.43    460.07   2916.43    459.29  " /><path style="stroke-width: 0.85 ;&st7;   " d=" M  2907.93,   445.13  C  2907.93    444.35   2907.30    443.71   2906.51    443.71  " /><path style="stroke-width: 0.85 ;&st7;   " d=" M  2906.51,   443.71  C  2905.73    443.71   2905.10    444.35   2905.10    445.13  " /><path style="stroke-width: 0.85 ;&st7;   " d=" M  2905.10,   445.13  C  2905.10    445.91   2905.73    446.54   2906.51    446.54  " /><path style="stroke-width: 0.85 ;&st7;   " d=" M  2906.51,   446.54  C  2907.30    446.54   2907.93    445.91   2907.93    445.13  " /><path style="stroke-width: 0.85 ;&st7;   " d=" M  2924.93,   445.13  C  2924.93    444.35   2924.29    443.71   2923.51    443.71  " /><path style="stroke-width: 0.85 ;&st7;   " d=" M  2923.51,   443.71  C  2922.73    443.71   2922.10    444.35   2922.10    445.13  " /><path style="stroke-width: 0.85 ;&st7;   " d=" M  2922.10,   445.13  C  2922.10    445.91   2922.73    446.54   2923.51    446.54  " /><path style="stroke-width: 0.85 ;&st7;   " d=" M  2923.51,   446.54  C  2924.29    446.54   2924.93    445.91   2924.93    445.13  " /><path style="stroke-width: 1.42 ;&st7;  " d=" M  2872.52,   426.71  L  2872.52,   486.20  L  2957.50,   486.20  L  2957.50,   426.71  L  2872.52,   426.71  " /><path style="stroke-width: 0.85 ;&st7;  " d=" M  2940.51,   426.71  L  2940.51,   445.13  L  2924.93,   445.13  " /><path style="stroke-width: 0.85 ;&st7;  " d=" M  2889.52,   426.71  L  2889.52,   445.13  L  2905.10,   445.13  " /><text style="&st18;" transform="matrix(&st16;  2892.1  434.91 )">UL</text><text style="&st18;" transform="matrix(&st16;  2943.09  434.91 )">L</text><text style="&st18;" transform="matrix(&st16;  2917.6  482.51 )">E</text><text style="&st18;" transform="matrix(&st17;  2899.99  472.48 )" ewd:textID="44">Key <tspan x="0 " dy="6.0">Unlock</tspan></text><text style="&st18;" transform="matrix(&st17;  2928.32  469.65 )" ewd:textID="43">Key <tspan x="0 " dy="6.0">Lock</tspan></text><text style="&st18;" transform="matrix(&st16;  2883.18  423.02 )">2</text><text style="&st18;" transform="matrix(&st16;  2934.17  423.02 )">1</text><text style="&st18;" transform="matrix(&st16;  2908.67  494.4 )">3</text><g ewd:figtype="title"><text style="&st18;" transform="matrix(&st17;  2862.88  489.11 )" ewd:textID="34">Door Control <tspan x="0 " dy="6.0">Switch</tspan></text><text style="&st18;" transform="matrix(&st17;  2856.05  489.1 )">O14</text></g></g><g ewd:figtype="w2w" ewd:figID="61" ewd:code="OI5"><path style="stroke-width: 1.42 ;&st7;  " d=" M  2766.29,   217.08  L  2762.04,   221.33  L  2757.79,   217.08  " /><path style="stroke-width: 1.42 ;&st7;  " d=" M  2757.79,   213.68  L  2762.04,   217.93  L  2766.29,   213.68  " /><text style="&st18;" transform="matrix(&st16;  2748.62  228.97 )">6</text></g><g ewd:figtype="w2w" ewd:figID="62" ewd:code="OI5"><path style="stroke-width: 1.42 ;&st7;  " d=" M  2834.28,   217.08  L  2830.03,   221.33  L  2825.78,   217.08  " /><path style="stroke-width: 1.42 ;&st7;  " d=" M  2825.78,   213.68  L  2830.03,   217.93  L  2834.28,   213.68  "/><text style="&st18;" transform="matrix(&st16;  2816.61  228.97 )">5</text></g></svg>
