<?xml version="1.0" encoding="utf-8"?>
<!DOCTYPE svg PUBLIC "-//W3C//DTD SVG 1.0//EN" "http://www.w3.org/TR/2001/REC-SVG-20010904/DTD/svg10.dtd"[
	<!ENTITY ns_flows "http://ns.adobe.com/Flows/1.0/">
	<!ENTITY ns_svg "http://www.w3.org/2000/svg">
	<!ENTITY ns_xlink "http://www.w3.org/1999/xlink">
	<!ENTITY st0 "font-size:7px;font-family:'MS-PGothic';adobe-font-script:japanese;">
	<!ENTITY st1 "font-size:6px;font-family:'ArialMT';">
	<!-- White fill  -->
	<!ENTITY st2 "fill:#FFFFFF;stroke:#000000; stroke-width:1.41;stroke-linecap:round;stroke-linejoin:round;">
	<!-- Yellow fill  -->
	<!ENTITY st3 "fill:#FFFFCC;stroke:#FFFFCC; stroke-width:0.1;stroke-linecap:round;stroke-linejoin:round;">
	<!-- Gray fill  -->
	<!ENTITY st4 "fill:#CCCCCC;stroke:#CCCCCC; stroke-width:0.1;stroke-linecap:round;stroke-linejoin:round;">
	<!-- Light-blue fill -->
	<!ENTITY st5 "fill:#CCECF4;stroke:#000000; stroke-width:1.133;stroke-linecap:round;stroke-linejoin:round;">
	<!ENTITY st6 "fill:none;stroke-linecap:butt; stroke-linejoin:round;">
	<!ENTITY st7 "fill:none;stroke:#000000;stroke-linecap:round;stroke-linejoin:round;">
	<!ENTITY st8 "enable-background:new    ;">
	<!-- Black fill -->
	<!ENTITY st9 "fill:#000000;stroke:#000000; stroke-linecap:round;stroke-linejoin:round;">
	<!-- SRS note   -->
	<!ENTITY st10 "font-size:9px;font-family:'ArialMT';">
	<!ENTITY st11 "font-size:9px;font-family:'Svg Symbol';">
	<!ENTITY st12 "font-size:6px;font-family:'Svg Symbol';">
	<!ENTITY st13 "fill:none;stroke:#ff0000;stroke-linecap:round;stroke-linejoin:round;">
	<!-- Yellow fill  -->
	<!ENTITY st14 "fill:#FFFF00;stroke:#FFFF00; stroke-width:0.1;stroke-linecap:round;stroke-linejoin:round;">
	<!ENTITY st15 "font-size:6px;font-family:'MS-PGothic';adobe-font-script:japanese;">
	<!ENTITY st16 "1.00 0.00 0.00 1.00">
	<!ENTITY st17 "0.00 -1.00 1.00 0.00">
	<!ENTITY st18 "font-size:6px;font-family:'Arial';">
	<!ENTITY st19 "font-size:9px;font-family:'Arial';">
	<!ENTITY st20 "font-size:6px;font-family:'MS-PGothic','MS PGothic';adobe-font-script:japanese;">
	<!ENTITY st21 "font-size:7px;font-family:'MS-PGothic','MS PGothic';adobe-font-script:japanese;">
	<!ATTLIST svg
		xmlns:ewd CDATA #FIXED "http://shcl.co.jp/ewd"
		xmlns:a CDATA #FIXED "http://ns.adobe.com/AdobeSVGViewerExtensions/3.0/"
		ewd:ver CDATA #IMPLIED
	>
	<!ATTLIST a
		ewd:lineID CDATA #IMPLIED
		ewd:groupID CDATA #IMPLIED
		ewd:figtype CDATA #IMPLIED
		ewd:code CDATA #IMPLIED
		ewd:figID CDATA #IMPLIED
		ewd:pinNo CDATA #IMPLIED
		ewd:comment CDATA #IMPLIED >
	<!ATTLIST g
		ewd:lineID CDATA #IMPLIED
		ewd:groupID CDATA #IMPLIED
		ewd:figtype CDATA #IMPLIED
		ewd:code CDATA #IMPLIED
		ewd:figID CDATA #IMPLIED
		ewd:pinNo CDATA #IMPLIED
		ewd:comment CDATA #IMPLIED >
	<!ATTLIST text
		ewd:textID CDATA #IMPLIED >
	<!ATTLIST title
		ewd:textID CDATA #IMPLIED >
]>
<!-- Generator: Shintec Hozumi YS   -->
<svg onload="call_execInitLoadProc_svg('system')" style="overflow:visible;  enable-background:new 0 0 3037.365 710.000" viewBox="0 0 3037.365 710.000" height="710.000" width="3037.365" xml:space="preserve" ewd:ver="2.3.1.16" xmlns="&ns_svg;" xmlns:a="http://ns.adobe.com/AdobeSVGViewerExtensions/3.0/" xmlns:ewd="http://shcl.co.jp/ewd" xmlns:xlink="&ns_xlink;">
<path style="stroke-width: 1.42 ;&st7;  " d=" M  2762.04,   477.71  L  2753.54,   477.71  " /><path style="stroke-width: 1.42 ;&st7;  " d=" M  2804.53,   256.74  L  2813.03,   256.74  " /><path style="stroke-width: 1.42 ;&st7;  " d=" M  2745.04,   256.74  L  2753.54,   256.74  " /><path style="stroke-width: 1.42 ;&st7;  " d=" M  2872.52,   537.20  L  2872.52,   541.44  " /><path style="stroke-width: 1.42 ;&st7;  " d=" M  2872.52,   197.25  L  2872.52,   201.50  " /><path style="stroke-width: 1.42 ;&st7;  " d=" M  2974.50,   197.25  L  2974.50,   201.50  " /><path style="stroke-width: 1.42 ;&st7;  " d=" M  2974.50,   537.20  L  2974.50,   541.44  " /><path style="stroke-width: 1.42 ;&st7;  " d=" M  2821.53,   477.71  L  2813.03,   477.71  " /><path style="stroke-width: 1.42 ;&st7;  " d=" M  2809.50,   188.75  L  2804.53,   193.73  " /><path style="stroke-width: 1.42 ;&st7;  " d=" M  2804.53,   299.24  L  2813.03,   299.24  " /><path style="stroke-width: 1.42 ;&st7;  " d=" M  2821.53,   193.73  L  2816.56,   188.75  " /><path style="stroke-width: 1.42 ;&st7;  " d=" M  2816.56,   205.75  L  2821.53,   200.78  " /><path style="stroke-width: 1.42 ;&st7;  " d=" M  2804.53,   200.78  L  2809.50,   205.75  " /><path style="stroke-width: 1.42 ;&st7;  " d=" M  2940.51,   193.73  L  2935.54,   188.75  " /><path style="stroke-width: 1.42 ;&st7;  " d=" M  2923.51,   200.78  L  2928.48,   205.75  " /><path style="stroke-width: 1.42 ;&st7;  " d=" M  2935.54,   205.75  L  2940.51,   200.78  " /><path style="stroke-width: 1.42 ;&st7;  " d=" M  2928.48,   188.75  L  2923.51,   193.73  " /><path style="stroke-width: 1.42 ;&st7;  " d=" M  2940.51,   533.67  L  2935.54,   528.70  " /><path style="stroke-width: 1.42 ;&st7;  " d=" M  2923.51,   540.73  L  2928.48,   545.69  " /><path style="stroke-width: 1.42 ;&st7;  " d=" M  2935.54,   545.69  L  2940.51,   540.73  " /><path style="stroke-width: 1.42 ;&st7;  " d=" M  2928.48,   528.70  L  2923.51,   533.67  " /><path style="stroke-width: 1.42 ;&st7;  " d=" M  2809.50,   528.70  L  2804.53,   533.67  " /><path style="stroke-width: 1.42 ;&st7;  " d=" M  2816.56,   545.69  L  2821.53,   540.73  " /><path style="stroke-width: 1.42 ;&st7;  " d=" M  2804.53,   540.73  L  2809.50,   545.69  " /><path style="stroke-width: 1.42 ;&st7;  " d=" M  2821.53,   533.67  L  2816.56,   528.70  " /><path style="stroke-width: 1.42 ;&st7;  " d=" M  2923.51,   256.74  L  2932.01,   256.74  " /><path style="stroke-width: 1.42 ;&st7;  " d=" M  2940.51,   426.71  L  2932.01,   426.71  " /><path style="stroke-width: 1.42 ;&st7;  " d=" M  2923.51,   129.26  L  2932.01,   129.26  " /><text style="&st18;" transform="matrix(&st17;  2511.88  390.1 )">R-W</text><path style="stroke-width: 1.42 ;&st7;  " d=" M  2821.53,   426.71  L  2813.03,   426.71  " /><path style="stroke-width: 1.42 ;&st7;  " d=" M  2668.55,   129.26  L  2677.05,   129.26  " /><text style="&st18;" transform="matrix(&st16;  2904.25  575.99 )">B</text><text style="&st18;" transform="matrix(&st16;  2901.11  601.49 )">B-R</text><text style="&st18;" transform="matrix(&st17;  2749.84  225.45 )">W</text><text style="&st18;" transform="matrix(&st17;  2809.33  225.45 )">W</text><text style="&st18;" transform="matrix(&st17;  2928.31  225.45 )">W</text><text style="&st18;" transform="matrix(&st17;  2749.84  325.82 )">L-W</text><text style="&st18;" transform="matrix(&st17;  2809.33  331.68 )">W</text><text style="&st18;" transform="matrix(&st17;  2928.31  306.18 )">W</text><text style="&st18;" transform="matrix(&st17;  2749.84  405.62 )">L-B</text><text style="&st18;" transform="matrix(&st17;  2809.33  402.98 )">B</text><text style="&st18;" transform="matrix(&st17;  2928.31  402.98 )">B</text><text style="&st18;" transform="matrix(&st17;  2749.84  513.47 )">B</text><text style="&st18;" transform="matrix(&st17;  2809.33  458.23 )">B</text><text style="&st18;" transform="matrix(&st17;  2928.31  458.23 )">B</text><text style="&st18;" transform="matrix(&st16;  2832.01  533.5 )">B</text><text style="&st18;" transform="matrix(&st16;  2904.25  533.5 )">B</text><text style="&st18;" transform="matrix(&st16;  2903.32  193.56 )">W</text><text style="&st18;" transform="matrix(&st16;  2950.06  193.56 )">W</text><text style="&st18;" transform="matrix(&st16;  2831.08  193.56 )">W</text><text style="&st18;" transform="matrix(&st16;  2950.99  533.5 )">B</text><text style="&st18;" transform="matrix(&st17;  2809.33  280.69 )">W</text><text style="&st18;" transform="matrix(&st17;  2809.33  513.47 )">B</text><text style="&st18;" transform="matrix(&st16;  2563.37  142.56 )">W</text><text style="&st18;" transform="matrix(&st16;  2564.31  159.56 )">B</text><text style="&st18;" transform="matrix(&st16;  2614.37  142.56 )">W</text><text style="&st18;" transform="matrix(&st17;  2523.22  507.76 )">(*2)</text><text style="&st18;" transform="matrix(&st17;  2511.88  508.92 )">W-B</text><text style="&st18;" transform="matrix(&st16;  2829.22  204.89 )">(*6)</text><text style="&st18;" transform="matrix(&st16;  2829.22  544.83 )">(*6)</text><text style="&st18;" transform="matrix(&st17;  2761.18  227.31 )">(*6)</text><text style="&st18;" transform="matrix(&st17;  2761.18  325.04 )">(*1)</text><text style="&st18;" transform="matrix(&st17;  2761.18  405.78 )">(*1)</text><text style="&st18;" transform="matrix(&st17;  2523.22  392.46 )">(*2 *4)</text><text style="&st18;" transform="matrix(&st17;  2761.18  516.26 )">(*6)</text><text style="&st18;" transform="matrix(&st17;  2820.67  227.31 )">(*6)</text><text style="&st18;" transform="matrix(&st17;  2820.67  282.55 )">(*8)</text><text style="&st18;" transform="matrix(&st17;  2820.67  333.54 )">(*8)</text><text style="&st18;" transform="matrix(&st17;  2820.67  405.78 )">(*8)</text><text style="&st18;" transform="matrix(&st17;  2820.67  461.02 )">(*8)</text><text style="&st18;" transform="matrix(&st17;  2820.67  516.26 )">(*6)</text><text style="&st18;" transform="matrix(&st17;  2851.83  225.45 )">W</text><text style="&st18;" transform="matrix(&st17;  2863.16  227.31 )">(*7)</text><text style="&st18;" transform="matrix(&st17;  2851.83  513.47 )">B</text><text style="&st18;" transform="matrix(&st17;  2863.16  516.26 )">(*7)</text><text style="&st18;" transform="matrix(&st16;  2869.32  142.56 )">W</text><text style="&st18;" transform="matrix(&st16;  2832.01  168.06 )">B</text><text style="&st18;" transform="matrix(&st16;  2829.22  179.39 )">(*5)</text><text style="&st18;" transform="matrix(&st17;  2673.36  108.68 )">B-R</text><text style="&st18;" transform="matrix(&st16;  2901.46  544.83 )">(*9)</text><text style="&st18;" transform="matrix(&st16;  2948.2  544.83 )">(*1)</text><text style="&st18;" transform="matrix(&st16;  2901.46  204.89 )">(*9)</text><text style="&st18;" transform="matrix(&st16;  2948.2  204.89 )">(*1)</text><text style="&st18;" transform="matrix(&st17;  2537.38  389.44 )">G-R</text><text style="&st18;" transform="matrix(&st17;  2928.31  165.96 )">W</text><text style="&st18;" transform="matrix(&st17;  2928.31  106.47 )">W</text><text style="&st18;" transform="matrix(&st17;  2548.71  392.46 )">(*2 *3)</text><text style="&st18;" transform="matrix(&st17;  2562.88  389.44 )">G-R</text><text style="&st18;" transform="matrix(&st16;  2615.3  159.56 )">B</text><text style="&st18;" transform="matrix(&st16;  2832.01  558.99 )">B</text><text style="&st18;" transform="matrix(&st16;  2829.22  570.33 )">(*5)</text><text style="&st18;" transform="matrix(&st17;  2574.21  392.46 )">(*2 *4)</text><text style="&st18;" transform="matrix(&st17;  2673.36  227.66 )">B-R</text><text style="&st18;" transform="matrix(&st16;  2682.15  23.58 )" ewd:textID="16">Door Control ECU with Receiver Assembly</text><text style="&st18;" transform="matrix(&st16;  2682.14  16.76 )">L31</text><g ewd:figtype="conn" ewd:figID="2" ewd:code="O3"><path style="stroke-width: 1.42 ;&st7;  " d=" M  2936.26,   347.39  L  2936.26,   351.36  " /><path style="stroke-width: 1.42 ;&st7;  " d=" M  2927.76,   351.36  L  2927.76,   347.39  " /><path style="stroke-width: 1.42 ;&st7;  " d=" M  2927.76,   347.39  L  2936.26,   347.39  " /><path style="stroke-width: 1.42 ;&st7;  " d=" M  2936.26,   370.06  L  2936.26,   366.09  " /><path style="stroke-width: 1.42 ;&st7;  " d=" M  2927.76,   366.09  L  2927.76,   370.06  " /><path style="stroke-width: 1.42 ;&st7;  " d=" M  2927.76,   370.06  L  2936.26,   370.06  " /><path style="stroke-width: 1.42 ;&st7;   " d=" M  2940.51,   358.73  C  2940.51    354.03   2936.70    350.23   2932.01    350.23  " /><path style="stroke-width: 1.42 ;&st7;   " d=" M  2932.01,   350.23  C  2927.32    350.23   2923.51    354.03   2923.51    358.73  " /><path style="stroke-width: 1.42 ;&st7;   " d=" M  2923.51,   358.73  C  2923.51    363.42   2927.32    367.22   2932.01    367.22  " /><path style="stroke-width: 1.42 ;&st7;   " d=" M  2932.01,   367.22  C  2936.70    367.22   2940.51    363.42   2940.51    358.73  " /><text style="&st18;" transform="matrix(&st16;  2929.28  360.69 )">M</text><text style="&st18;" transform="matrix(&st16;  2925.67  378.25 )">2</text><text style="&st18;" transform="matrix(&st16;  2925.67  343.7 )">1</text><g ewd:figtype="title"><text style="&st18;" transform="matrix(&st17;  2948.4  370.12 )">O3</text><text style="&st18;" transform="matrix(&st17;  2955.23  370.13 )" ewd:textID="23">Front Door Lock Actuator Assembly RH</text></g></g><g ewd:figtype="conn" ewd:figID="13" ewd:code="R2"><path style="stroke-width: 1.42 ;&st7;  " d=" M  2757.79,   347.39  L  2757.79,   351.36  " /><path style="stroke-width: 1.42 ;&st7;  " d=" M  2749.29,   351.36  L  2749.29,   347.39  " /><path style="stroke-width: 1.42 ;&st7;  " d=" M  2749.29,   347.39  L  2757.79,   347.39  " /><path style="stroke-width: 1.42 ;&st7;  " d=" M  2757.79,   370.06  L  2757.79,   366.09  " /><path style="stroke-width: 1.42 ;&st7;  " d=" M  2749.29,   366.09  L  2749.29,   370.06  " /><path style="stroke-width: 1.42 ;&st7;  " d=" M  2749.29,   370.06  L  2757.79,   370.06  " /><path style="stroke-width: 1.42 ;&st7;   " d=" M  2762.04,   358.73  C  2762.04    354.03   2758.23    350.23   2753.54    350.23  " /><path style="stroke-width: 1.42 ;&st7;   " d=" M  2753.54,   350.23  C  2748.85    350.23   2745.04    354.03   2745.04    358.73  " /><path style="stroke-width: 1.42 ;&st7;   " d=" M  2745.04,   358.73  C  2745.04    363.42   2748.85    367.22   2753.54    367.22  " /><path style="stroke-width: 1.42 ;&st7;   " d=" M  2753.54,   367.22  C  2758.23    367.22   2762.04    363.42   2762.04    358.73  " /><text style="&st18;" transform="matrix(&st16;  2750.81  360.69 )">M</text><text style="&st18;" transform="matrix(&st16;  2747.2  378.25 )">2</text><text style="&st18;" transform="matrix(&st16;  2747.2  343.7 )">1</text><g ewd:figtype="title"><text style="&st18;" transform="matrix(&st17;  2769.93  370.12 )">R2</text><text style="&st18;" transform="matrix(&st17;  2776.76  370.13 )" ewd:textID="36">Rear Door Lock Actuator Assembly RH</text></g></g><g ewd:figtype="conn" ewd:figID="15" ewd:code="b1"><path style="stroke-width: 1.42 ;&st7;  " d=" M  2817.28,   347.39  L  2817.28,   351.36  " /><path style="stroke-width: 1.42 ;&st7;  " d=" M  2808.78,   351.36  L  2808.78,   347.39  " /><path style="stroke-width: 1.42 ;&st7;  " d=" M  2808.78,   347.39  L  2817.28,   347.39  " /><path style="stroke-width: 1.42 ;&st7;  " d=" M  2817.28,   370.06  L  2817.28,   366.09  " /><path style="stroke-width: 1.42 ;&st7;  " d=" M  2808.78,   366.09  L  2808.78,   370.06  " /><path style="stroke-width: 1.42 ;&st7;  " d=" M  2808.78,   370.06  L  2817.28,   370.06  " /><path style="stroke-width: 1.42 ;&st7;   " d=" M  2821.53,   358.73  C  2821.53    354.03   2817.72    350.23   2813.03    350.23  " /><path style="stroke-width: 1.42 ;&st7;   " d=" M  2813.03,   350.23  C  2808.34    350.23   2804.53    354.03   2804.53    358.73  " /><path style="stroke-width: 1.42 ;&st7;   " d=" M  2804.53,   358.73  C  2804.53    363.42   2808.34    367.22   2813.03    367.22  " /><path style="stroke-width: 1.42 ;&st7;   " d=" M  2813.03,   367.22  C  2817.72    367.22   2821.53    363.42   2821.53    358.73  " /><text style="&st18;" transform="matrix(&st16;  2810.3  360.69 )">M</text><text style="&st18;" transform="matrix(&st16;  2806.69  378.25 )">2</text><text style="&st18;" transform="matrix(&st16;  2806.69  343.7 )">1</text><g ewd:figtype="title"><text style="&st18;" transform="matrix(&st17;  2829.42  370.12 )">b1</text><text style="&st18;" transform="matrix(&st17;  2836.25  370.13 )" ewd:textID="14">Back Door Lock Assembly</text></g></g><g ewd:figtype="conn" ewd:figID="20" ewd:code="L31"><g ewd:lineID="111"><text style="&st18;" transform="matrix(&st16;  2922.34  86.47 )">10</text><text style="&st18;" transform="matrix(&st16;  2924.74  74.58 )">ACT-</text></g><g ewd:lineID="87"><text style="&st18;" transform="matrix(&st16;  2667.38  86.47 )">20</text><text style="&st18;" transform="matrix(&st16;  2669.05  74.58 )">ACT+</text></g></g><g ewd:figtype="w2w" ewd:figID="52" ewd:code="IL2"><path style="stroke-width: 1.42 ;&st7;  " d=" M  2672.80,   120.20  L  2677.05,   124.45  L  2681.30,   120.20  " /><path style="stroke-width: 1.42 ;&st7;  " d=" M  2681.30,   123.60  L  2677.05,   127.85  L  2672.80,   123.60  " /><text style="&st18;" transform="matrix(&st16;  2663.63  135.48 )">9</text></g><g ewd:figtype="w2w" ewd:figID="53" ewd:code="RS1"><path style="stroke-width: 1.42 ;&st7;  " d=" M  2757.79,   483.37  L  2753.54,   479.12  L  2749.29,   483.37  " /><path style="stroke-width: 1.42 ;&st7;  " d=" M  2757.79,   486.77  L  2753.54,   482.52  L  2749.29,   486.77  " /><text style="&st18;" transform="matrix(&st16;  2740.12  475.43 )">2</text></g><g ewd:figtype="w2w" ewd:figID="54" ewd:code="RS1"><path style="stroke-width: 1.42 ;&st7;  " d=" M  2757.79,   251.08  L  2753.54,   255.33  L  2749.29,   251.08  " /><path style="stroke-width: 1.42 ;&st7;  " d=" M  2749.29,   247.68  L  2753.54,   251.93  L  2757.79,   247.68  " /><text style="&st18;" transform="matrix(&st16;  2740.12  262.96 )">1</text></g><g ewd:figtype="w2w" ewd:figID="55" ewd:code="TS1"><path style="stroke-width: 1.42 ;&st7;  " d=" M  2817.28,   486.77  L  2813.03,   482.52  L  2808.78,   486.77  " /><path style="stroke-width: 1.42 ;&st7;  " d=" M  2817.28,   483.37  L  2813.03,   479.12  L  2808.78,   483.37  " /><text style="&st18;" transform="matrix(&st16;  2799.61  475.43 )">2</text></g><g ewd:figtype="w2w" ewd:figID="56" ewd:code="bT2"><path style="stroke-width: 1.42 ;&st7;  " d=" M  2817.28,   432.38  L  2813.03,   428.13  L  2808.78,   432.38  " /><path style="stroke-width: 1.42 ;&st7;  " d=" M  2817.28,   435.78  L  2813.03,   431.53  L  2808.78,   435.78  " /><text style="&st18;" transform="matrix(&st16;  2799.61  424.43 )">1</text></g><g ewd:figtype="w2w" ewd:figID="57" ewd:code="bT2"><path style="stroke-width: 1.42 ;&st7;  " d=" M  2808.78,   290.17  L  2813.03,   294.42  L  2817.28,   290.17  " /><path style="stroke-width: 1.42 ;&st7;  " d=" M  2817.28,   293.57  L  2813.03,   297.82  L  2808.78,   293.57  " /><text style="&st18;" transform="matrix(&st16;  2799.61  305.45 )">3</text></g><g ewd:figtype="w2w" ewd:figID="58" ewd:code="TS1"><path style="stroke-width: 1.42 ;&st7;  " d=" M  2817.28,   251.08  L  2813.03,   255.33  L  2808.78,   251.08  " /><path style="stroke-width: 1.42 ;&st7;  " d=" M  2808.78,   247.68  L  2813.03,   251.93  L  2817.28,   247.68  " /><text style="&st18;" transform="matrix(&st16;  2799.61  262.96 )">1</text></g><g ewd:figtype="w2w" ewd:figID="59" ewd:code="IS1"><path style="stroke-width: 1.42 ;&st7;  " d=" M  2866.85,   532.95  L  2871.10,   537.20  L  2866.85,   541.44  " /><path style="stroke-width: 1.42 ;&st7;  " d=" M  2863.45,   532.95  L  2867.70,   537.20  L  2863.45,   541.44  " /><text style="&st18;" transform="matrix(&st16;  2877.47  529.96 )">14</text></g><g ewd:figtype="w2w" ewd:figID="60" ewd:code="IS1"><path style="stroke-width: 1.42 ;&st7;  " d=" M  2866.85,   193.00  L  2871.10,   197.25  L  2866.85,   201.50  " /><path style="stroke-width: 1.42 ;&st7;  " d=" M  2863.45,   193.00  L  2867.70,   197.25  L  2863.45,   201.50  " /><text style="&st18;" transform="matrix(&st16;  2877.47  190.01 )">15</text></g><g ewd:figtype="w2w" ewd:figID="61" ewd:code="OI2"><path style="stroke-width: 1.42 ;&st7;  " d=" M  2936.26,   435.78  L  2932.01,   431.53  L  2927.76,   435.78  " /><path style="stroke-width: 1.42 ;&st7;  " d=" M  2936.26,   432.38  L  2932.01,   428.13  L  2927.76,   432.38  " /><text style="&st18;" transform="matrix(&st16;  2918.59  424.43 )">7</text></g><g ewd:figtype="w2w" ewd:figID="62" ewd:code="OI2"><path style="stroke-width: 1.42 ;&st7;  " d=" M  2927.76,   247.68  L  2932.01,   251.93  L  2936.26,   247.68  " /><path style="stroke-width: 1.42 ;&st7;  " d=" M  2936.26,   251.08  L  2932.01,   255.33  L  2927.76,   251.08  " /><text style="&st18;" transform="matrix(&st16;  2918.59  262.96 )">6</text></g><g ewd:figtype="w2w" ewd:figID="63" ewd:code="IL2"><path style="stroke-width: 1.42 ;&st7;  " d=" M  2927.76,   120.20  L  2932.01,   124.45  L  2936.26,   120.20  " /><path style="stroke-width: 1.42 ;&st7;  " d=" M  2936.26,   123.60  L  2932.01,   127.85  L  2927.76,   123.60  " /><text style="&st18;" transform="matrix(&st16;  2915.26  135.48 )">25</text></g><g ewd:figtype="w2w" ewd:figID="64" ewd:code="UI3"><path style="stroke-width: 1.42 ;&st7;  " d=" M  2968.84,   532.95  L  2973.09,   537.20  L  2968.84,   541.44  " /><path style="stroke-width: 1.42 ;&st7;  " d=" M  2965.44,   532.95  L  2969.69,   537.20  L  2965.44,   541.44  " /><text style="&st18;" transform="matrix(&st16;  2981.12  529.96 )">1</text></g><g ewd:figtype="w2w" ewd:figID="65" ewd:code="UI3"><path style="stroke-width: 1.42 ;&st7;  " d=" M  2968.84,   193.00  L  2973.09,   197.25  L  2968.84,   201.50  " /><path style="stroke-width: 1.42 ;&st7;  " d=" M  2965.44,   193.00  L  2969.69,   197.25  L  2965.44,   201.50  " /><text style="&st18;" transform="matrix(&st16;  2981.12  190.01 )">6</text></g><g ewd:figtype="w2w" ewd:figID="66" ewd:code="QU1"><path style="stroke-width: 1.42 ;&st7;  " d=" M  3012.75,   435.78  L  3008.50,   431.53  L  3004.25,   435.78  " /><path style="stroke-width: 1.42 ;&st7;  " d=" M  3012.75,   432.38  L  3008.50,   428.13  L  3004.25,   432.38  " /><text style="&st18;" transform="matrix(&st16;  2995.08  424.43 )">2</text></g><g ewd:figtype="w2w" ewd:figID="67" ewd:code="QU1"><path style="stroke-width: 1.42 ;&st7;  " d=" M  3012.75,   251.08  L  3008.50,   255.33  L  3004.25,   251.08  " /><path style="stroke-width: 1.42 ;&st7;  " d=" M  3004.25,   247.68  L  3008.50,   251.93  L  3012.75,   247.68  " /><text style="&st18;" transform="matrix(&st16;  2995.08  262.96 )">1</text></g><g ewd:code="5" ewd:figID="102" ewd:comment="" ewd:figtype="comment"><text style="&st18;" transform="matrix(&st16;  2673.65  658.14 )" ewd:textID="5">* 5 :4-Door Pick-Up Body Type</text></g><g ewd:code="9" ewd:figID="101" ewd:comment="" ewd:figtype="comment"><text style="&st18;" transform="matrix(&st16;  2673.65  692.14 )" ewd:textID="9">* 9 :Except 2-Door Pick-Up Body Type</text></g><g ewd:code="7" ewd:figID="104" ewd:comment="" ewd:figtype="comment"><text style="&st18;" transform="matrix(&st16;  2673.65  675.14 )" ewd:textID="7">* 7 :2-Door Except Pick-Up Body Type</text></g><g ewd:code="2" ewd:figID="106" ewd:comment="" ewd:figtype="comment"><text style="&st18;" transform="matrix(&st16;  2673.65  632.65 )" ewd:textID="2">* 2 :2-Door</text></g><g ewd:code="6" ewd:figID="103" ewd:comment="" ewd:figtype="comment"><text style="&st18;" transform="matrix(&st16;  2673.65  666.64 )" ewd:textID="6">* 6 :4-Door Except Pick-Up Body Type</text></g><g ewd:code="1" ewd:figID="100" ewd:comment="" ewd:figtype="comment"><text style="&st18;" transform="matrix(&st16;  2673.65  624.15 )" ewd:textID="1">* 1 :4-Door</text></g><g ewd:code="3" ewd:figID="121" ewd:comment="" ewd:figtype="comment"><text style="&st18;" transform="matrix(&st16;  2673.65  641.15 )" ewd:textID="3">* 3 :w/ Power Window</text></g><g ewd:code="4" ewd:figID="122" ewd:comment="" ewd:figtype="comment"><text style="&st18;" transform="matrix(&st16;  2673.65  649.65 )" ewd:textID="4">* 4 :w/o Power Window</text></g><g ewd:code="8" ewd:figID="105" ewd:comment="" ewd:figtype="comment"><text style="&st18;" transform="matrix(&st16;  2673.65  683.64 )" ewd:textID="8">* 8 :Except Pick-Up Body Type</text></g></svg>