<?xml version="1.0" encoding="utf-8"?>
<!DOCTYPE svg PUBLIC "-//W3C//DTD SVG 1.0//EN" "http://www.w3.org/TR/2001/REC-SVG-20010904/DTD/svg10.dtd"[
	<!ENTITY ns_flows "http://ns.adobe.com/Flows/1.0/">
	<!ENTITY ns_svg "http://www.w3.org/2000/svg">
	<!ENTITY ns_xlink "http://www.w3.org/1999/xlink">
	<!ENTITY st0 "font-size:7px;font-family:'MS-PGothic';adobe-font-script:japanese;">
	<!ENTITY st1 "font-size:6px;font-family:'ArialMT';">
	<!-- White fill  -->
	<!ENTITY st2 "fill:#FFFFFF;stroke:#000000; stroke-width:1.41;stroke-linecap:round;stroke-linejoin:round;">
	<!-- Yellow fill  -->
	<!ENTITY st3 "fill:#FFFFCC;stroke:#FFFFCC; stroke-width:0.1;stroke-linecap:round;stroke-linejoin:round;">
	<!-- Gray fill  -->
	<!ENTITY st4 "fill:#CCCCCC;stroke:#CCCCCC; stroke-width:0.1;stroke-linecap:round;stroke-linejoin:round;">
	<!-- Light-blue fill -->
	<!ENTITY st5 "fill:#CCECF4;stroke:#000000; stroke-width:1.133;stroke-linecap:round;stroke-linejoin:round;">
	<!ENTITY st6 "fill:none;stroke-linecap:butt; stroke-linejoin:round;">
	<!ENTITY st7 "fill:none;stroke:#000000;stroke-linecap:round;stroke-linejoin:round;">
	<!ENTITY st8 "enable-background:new    ;">
	<!-- Black fill -->
	<!ENTITY st9 "fill:#000000;stroke:#000000; stroke-linecap:round;stroke-linejoin:round;">
	<!-- SRS note   -->
	<!ENTITY st10 "font-size:9px;font-family:'ArialMT';">
	<!ENTITY st11 "font-size:9px;font-family:'Svg Symbol';">
	<!ENTITY st12 "font-size:6px;font-family:'Svg Symbol';">
	<!ENTITY st13 "fill:none;stroke:#ff0000;stroke-linecap:round;stroke-linejoin:round;">
	<!-- Yellow fill  -->
	<!ENTITY st14 "fill:#FFFF00;stroke:#FFFF00; stroke-width:0.1;stroke-linecap:round;stroke-linejoin:round;">
	<!ENTITY st15 "font-size:6px;font-family:'MS-PGothic';adobe-font-script:japanese;">
	<!ENTITY st16 "1.00 0.00 0.00 1.00">
	<!ENTITY st17 "0.00 -1.00 1.00 0.00">
	<!ENTITY st18 "font-size:6px;font-family:'Arial';">
	<!ENTITY st19 "font-size:9px;font-family:'Arial';">
	<!ENTITY st20 "font-size:6px;font-family:'MS-PGothic','MS PGothic';adobe-font-script:japanese;">
	<!ENTITY st21 "font-size:7px;font-family:'MS-PGothic','MS PGothic';adobe-font-script:japanese;">
	<!ATTLIST svg
		xmlns:ewd CDATA #FIXED "http://shcl.co.jp/ewd"
		xmlns:a CDATA #FIXED "http://ns.adobe.com/AdobeSVGViewerExtensions/3.0/"
		ewd:ver CDATA #IMPLIED
	>
	<!ATTLIST a
		ewd:lineID CDATA #IMPLIED
		ewd:groupID CDATA #IMPLIED
		ewd:figtype CDATA #IMPLIED
		ewd:code CDATA #IMPLIED
		ewd:figID CDATA #IMPLIED
		ewd:pinNo CDATA #IMPLIED
		ewd:comment CDATA #IMPLIED >
	<!ATTLIST g
		ewd:lineID CDATA #IMPLIED
		ewd:groupID CDATA #IMPLIED
		ewd:figtype CDATA #IMPLIED
		ewd:code CDATA #IMPLIED
		ewd:figID CDATA #IMPLIED
		ewd:pinNo CDATA #IMPLIED
		ewd:comment CDATA #IMPLIED >
	<!ATTLIST text
		ewd:textID CDATA #IMPLIED >
	<!ATTLIST title
		ewd:textID CDATA #IMPLIED >
]>
<!-- Generator: Shintec Hozumi YS   -->
<svg onload="call_execInitLoadProc_svg('system')" style="overflow:visible;  enable-background:new 0 0 3601.076 710.000" viewBox="0 0 3601.076 710.000" height="710.000" width="3601.076" xml:space="preserve" ewd:ver="2.3.1.16" xmlns="&ns_svg;" xmlns:a="http://ns.adobe.com/AdobeSVGViewerExtensions/3.0/" xmlns:ewd="http://shcl.co.jp/ewd" xmlns:xlink="&ns_xlink;">
<path style="stroke-width: 1.42 ;&st7;  " d=" M   152.97,   290.74  L   144.48,   290.74  " /><path style="stroke-width: 1.42 ;&st7;  " d=" M   322.95,   129.26  L   331.44,   129.26  " /><path style="stroke-width: 1.42 ;&st7;  " d=" M    33.99,   350.23  L    42.49,   350.23  " /><text style="&st18;" transform="matrix(&st17;  38.8  138.19 )">B-Y</text><text style="&st18;" transform="matrix(&st17;  50.13  139.74 )">(*31)</text><text style="&st18;" transform="matrix(&st17;  140.78  131.03 )">P</text><text style="&st18;" transform="matrix(&st17;  140.78  250.01 )">P</text><text style="&st18;" transform="matrix(&st17;  140.78  313.75 )">P</text><text style="&st18;" transform="matrix(&st17;  242.76  133.82 )">L-R</text><text style="&st18;" transform="matrix(&st17;  404.24  105.69 )">R</text><text style="&st18;" transform="matrix(&st17;  404.24  224.51 )">P</text><text style="&st18;" transform="matrix(&st17;  463.73  121.19 )">B-Y</text><text style="&st18;" transform="matrix(&st17;  463.73  227.42 )">B-Y</text><text style="&st18;" transform="matrix(&st17;  327.75  108.33 )">L-R</text><text style="&st18;" transform="matrix(&st17;  327.75  218.81 )">L-R</text><path style="stroke-width: 1.42 ;&st7;  " d=" M   327.91,   265.24  L   322.95,   270.21  " /><path style="stroke-width: 1.42 ;&st7;  " d=" M   334.97,   282.24  L   339.94,   277.27  " /><path style="stroke-width: 1.42 ;&st7;  " d=" M   322.95,   277.27  L   327.91,   282.24  " /><path style="stroke-width: 1.42 ;&st7;  " d=" M   339.94,   270.21  L   334.97,   265.24  " /><text style="&st18;" transform="matrix(&st17;  475.06  122.74 )">(*29)</text><text style="&st18;" transform="matrix(&st17;  475.06  228.97 )">(*29)</text><text style="&st18;" transform="matrix(&st17;  13.3  231.25 )">GR</text><text style="&st18;" transform="matrix(&st17;  489.22  227.0 )">GR</text><text style="&st18;" transform="matrix(&st17;  489.22  120.76 )">GR</text><text style="&st18;" transform="matrix(&st16;  122.3  372.03 )">B-Y</text><text style="&st18;" transform="matrix(&st16;  120.75  383.36 )">(*29)</text><text style="&st18;" transform="matrix(&st16;  122.73  397.52 )">GR</text><text style="&st18;" transform="matrix(&st16;  120.75  408.85 )">(*30)</text><text style="&st18;" transform="matrix(&st17;  13.3  137.76 )">GR</text><text style="&st18;" transform="matrix(&st17;  24.63  139.74 )">(*32)</text><text style="&st18;" transform="matrix(&st17;  24.63  233.22 )">(*32)</text><text style="&st18;" transform="matrix(&st17;  13.3  324.73 )">GR</text><text style="&st18;" transform="matrix(&st17;  24.63  326.71 )">(*32)</text><text style="&st18;" transform="matrix(&st17;  38.8  231.67 )">B-Y</text><text style="&st18;" transform="matrix(&st17;  50.13  233.22 )">(*31)</text><text style="&st18;" transform="matrix(&st17;  38.8  325.16 )">B-Y</text><text style="&st18;" transform="matrix(&st17;  50.13  326.71 )">(*31)</text><g ewd:figtype="conn" ewd:figID="9" ewd:code="I105"><path style="stroke-width: 0.85 ;&st7;  " d=" M    42.49,   171.76  L    42.49,   188.75  " /><path style="stroke-width: 1.42 ;&st7;  " d=" M    33.99,   171.76  L    50.99,   171.76  L    50.99,   188.75  L    33.99,   188.75  L    33.99,   171.76  " /><text style="&st18;" transform="matrix(&st16;  33.01  195.26 )">5</text><path style="stroke-width: 1.42 ;&st7;   " d=" M    47.03,   193.29  C    47.03    190.78     45.00    188.75     42.49    188.75  " /><path style="stroke-width: 1.42 ;&st7;   " d=" M    42.49,   188.75  C    39.99    188.75     37.96    190.78     37.96    193.29  " /><path style="stroke-width: 1.42 ;&st7;   " d=" M    37.96,   193.29  C    37.96    195.79     39.99    197.82     42.49    197.82  " /><path style="stroke-width: 1.42 ;&st7;   " d=" M    42.49,   197.82  C    45.00    197.82     47.03    195.79     47.03    193.29  " /><text style="&st18;" transform="matrix(&st16;  40.23  195.26 )">A</text><text style="&st18;" transform="matrix(&st16;  33.01  169.19 )">9</text><path style="stroke-width: 1.42 ;&st7;   " d=" M    47.03,   167.22  C    47.03    164.72     45.00    162.69     42.49    162.69  " /><path style="stroke-width: 1.42 ;&st7;   " d=" M    42.49,   162.69  C    39.99    162.69     37.96    164.72     37.96    167.22  " /><path style="stroke-width: 1.42 ;&st7;   " d=" M    37.96,   167.22  C    37.96    169.73     39.99    171.76     42.49    171.76  " /><path style="stroke-width: 1.42 ;&st7;   " d=" M    42.49,   171.76  C    45.00    171.76     47.03    169.73     47.03    167.22  " /><text style="&st18;" transform="matrix(&st16;  40.23  169.19 )">A</text><g ewd:figtype="title"><text style="&st18;" transform="matrix(&st17;  58.89  191.65 )">I105(A)</text><text style="&st18;" transform="matrix(&st17;  65.71  191.66 )" ewd:textID="47">No. 8 Junction <tspan x="0 " dy="6.0">Connector</tspan></text></g></g><g ewd:code="I108" ewd:figID="10" ewd:comment="11,12,13,14,10" ewd:figtype="conn"><path style="stroke-width: 0.85 ;&st7;  " d=" M   144.48,   171.76  L   144.48,   188.75  " /><path style="stroke-width: 1.42 ;&st7;  " d=" M   135.98,   171.76  L   152.97,   171.76  L   152.97,   188.75  L   135.98,   188.75  L   135.98,   171.76  " /><text style="&st18;" transform="matrix(&st16;  131.66  169.19 )">10</text><text style="&st18;" transform="matrix(&st16;  135.0  160.13 )">4</text><text style="&st18;" transform="matrix(&st16;  135.0  151.06 )">6</text><path style="stroke-width: 1.42 ;&st7;   " d=" M   149.01,   149.09  C   149.01    146.59    146.98    144.56    144.48    144.56  " /><path style="stroke-width: 1.42 ;&st7;   " d=" M   144.48,   144.56  C   141.97    144.56    139.94    146.59    139.94    149.09  " /><path style="stroke-width: 1.42 ;&st7;   " d=" M   139.94,   149.09  C   139.94    151.60    141.97    153.63    144.48    153.63  " /><path style="stroke-width: 1.42 ;&st7;   " d=" M   144.48,   153.63  C   146.98    153.63    149.01    151.60    149.01    149.09  " /><path style="stroke-width: 1.42 ;&st7;   " d=" M   149.01,   158.16  C   149.01    155.66    146.98    153.63    144.48    153.63  " /><path style="stroke-width: 1.42 ;&st7;   " d=" M   144.48,   153.63  C   141.97    153.63    139.94    155.66    139.94    158.16  " /><path style="stroke-width: 1.42 ;&st7;   " d=" M   139.94,   158.16  C   139.94    160.66    141.97    162.69    144.48    162.69  " /><path style="stroke-width: 1.42 ;&st7;   " d=" M   144.48,   162.69  C   146.98    162.69    149.01    160.66    149.01    158.16  " /><path style="stroke-width: 1.42 ;&st7;   " d=" M   149.01,   167.22  C   149.01    164.72    146.98    162.69    144.48    162.69  " /><path style="stroke-width: 1.42 ;&st7;   " d=" M   144.48,   162.69  C   141.97    162.69    139.94    164.72    139.94    167.22  " /><path style="stroke-width: 1.42 ;&st7;   " d=" M   139.94,   167.22  C   139.94    169.73    141.97    171.76    144.48    171.76  " /><path style="stroke-width: 1.42 ;&st7;   " d=" M   144.48,   171.76  C   146.98    171.76    149.01    169.73    149.01    167.22  " /><text style="&st18;" transform="matrix(&st16;  142.21  151.06 )">A</text><text style="&st18;" transform="matrix(&st16;  142.21  160.13 )">A</text><text style="&st18;" transform="matrix(&st16;  142.21  169.19 )">A</text><text style="&st18;" transform="matrix(&st16;  135.0  195.26 )">5</text><text style="&st18;" transform="matrix(&st16;  135.0  213.39 )">9</text><text style="&st18;" transform="matrix(&st16;  135.0  204.32 )">3</text><text style="&st18;" transform="matrix(&st16;  142.21  195.26 )">A</text><path style="stroke-width: 1.42 ;&st7;   " d=" M   149.01,   202.35  C   149.01    199.85    146.98    197.82    144.48    197.82  " /><path style="stroke-width: 1.42 ;&st7;   " d=" M   144.48,   197.82  C   141.97    197.82    139.94    199.85    139.94    202.35  " /><path style="stroke-width: 1.42 ;&st7;   " d=" M   139.94,   202.35  C   139.94    204.85    141.97    206.88    144.48    206.88  " /><path style="stroke-width: 1.42 ;&st7;   " d=" M   144.48,   206.88  C   146.98    206.88    149.01    204.85    149.01    202.35  " /><text style="&st18;" transform="matrix(&st16;  142.21  213.39 )">A</text><path style="stroke-width: 1.42 ;&st7;   " d=" M   149.01,   193.29  C   149.01    190.78    146.98    188.75    144.48    188.75  " /><path style="stroke-width: 1.42 ;&st7;   " d=" M   144.48,   188.75  C   141.97    188.75    139.94    190.78    139.94    193.29  " /><path style="stroke-width: 1.42 ;&st7;   " d=" M   139.94,   193.29  C   139.94    195.79    141.97    197.82    144.48    197.82  " /><path style="stroke-width: 1.42 ;&st7;   " d=" M   144.48,   197.82  C   146.98    197.82    149.01    195.79    149.01    193.29  " /><text style="&st18;" transform="matrix(&st16;  142.21  204.32 )">A</text><path style="stroke-width: 1.42 ;&st7;   " d=" M   149.01,   211.42  C   149.01    208.91    146.98    206.88    144.48    206.88  " /><path style="stroke-width: 1.42 ;&st7;   " d=" M   144.48,   206.88  C   141.97    206.88    139.94    208.91    139.94    211.42  " /><path style="stroke-width: 1.42 ;&st7;   " d=" M   139.94,   211.42  C   139.94    213.92    141.97    215.95    144.48    215.95  " /><path style="stroke-width: 1.42 ;&st7;   " d=" M   144.48,   215.95  C   146.98    215.95    149.01    213.92    149.01    211.42  " /><g ewd:figtype="title"><text style="&st18;" transform="matrix(&st17;  123.5  191.66 )" ewd:textID="49">No. 13 Junction <tspan x="0 " dy="6.0">Connector</tspan></text><text style="&st18;" transform="matrix(&st17;  116.68  191.65 )">I108(A)</text></g><g ewd:code="" ewd:figID="110" ewd:comment="11,14" ewd:figtype="commref"><text style="&st18;" transform="matrix(&st16;  149.57  169.19 )">(*11 *14)</text></g><g ewd:code="" ewd:figID="111" ewd:comment="11,13" ewd:figtype="commref"><text style="&st18;" transform="matrix(&st16;  149.57  160.13 )">(*11 *13)</text></g><g ewd:code="" ewd:figID="112" ewd:comment="10,12" ewd:figtype="commref"><text style="&st18;" transform="matrix(&st16;  149.57  195.26 )">(*10,*12)</text></g><g ewd:code="" ewd:figID="113" ewd:comment="11,13" ewd:figtype="commref"><text style="&st18;" transform="matrix(&st16;  149.57  204.32 )">(*11 *13)</text></g><g ewd:code="" ewd:figID="127" ewd:comment="10,12" ewd:figtype="commref"><text style="&st18;" transform="matrix(&st16;  149.57  151.06 )">(*10,*12)</text></g><g ewd:code="" ewd:figID="128" ewd:comment="11,14" ewd:figtype="commref"><text style="&st18;" transform="matrix(&st16;  149.57  213.39 )">(*11 *14)</text></g></g><g ewd:figtype="conn" ewd:figID="11" ewd:code="I110"><path style="stroke-width: 0.85 ;&st7;  " d=" M    42.49,   265.24  L    42.49,   282.24  " /><path style="stroke-width: 1.42 ;&st7;  " d=" M    33.99,   265.24  L    50.99,   265.24  L    50.99,   282.24  L    33.99,   282.24  L    33.99,   265.24  " /><text style="&st18;" transform="matrix(&st16;  29.68  288.74 )">13</text><path style="stroke-width: 1.42 ;&st7;   " d=" M    47.03,   286.77  C    47.03    284.27     45.00    282.24     42.49    282.24  " /><path style="stroke-width: 1.42 ;&st7;   " d=" M    42.49,   282.24  C    39.99    282.24     37.96    284.27     37.96    286.77  " /><path style="stroke-width: 1.42 ;&st7;   " d=" M    37.96,   286.77  C    37.96    289.27     39.99    291.30     42.49    291.30  " /><path style="stroke-width: 1.42 ;&st7;   " d=" M    42.49,   291.30  C    45.00    291.30     47.03    289.27     47.03    286.77  " /><text style="&st18;" transform="matrix(&st16;  40.23  288.74 )">B</text><text style="&st18;" transform="matrix(&st16;  33.01  262.68 )">4</text><path style="stroke-width: 1.42 ;&st7;   " d=" M    47.03,   260.71  C    47.03    258.21     45.00    256.18     42.49    256.18  " /><path style="stroke-width: 1.42 ;&st7;   " d=" M    42.49,   256.18  C    39.99    256.18     37.96    258.21     37.96    260.71  " /><path style="stroke-width: 1.42 ;&st7;   " d=" M    37.96,   260.71  C    37.96    263.21     39.99    265.24     42.49    265.24  " /><path style="stroke-width: 1.42 ;&st7;   " d=" M    42.49,   265.24  C    45.00    265.24     47.03    263.21     47.03    260.71  " /><text style="&st18;" transform="matrix(&st16;  40.23  262.68 )">B</text><g ewd:figtype="title"><text style="&st18;" transform="matrix(&st17;  58.89  285.14 )">I110(B)</text><text style="&st18;" transform="matrix(&st17;  65.71  285.14 )" ewd:textID="52">No. 33 Junction <tspan x="0 " dy="6.0">Connector</tspan></text></g></g><g ewd:figtype="conn" ewd:figID="12" ewd:code="L31"><path style="stroke-width: 1.42 ;&st7;  " d=" M   314.45,    27.28  L   314.45,    78.27  L  3475.92,    78.27  L  3475.92,    27.28  L   314.45,    27.28  " /><g ewd:lineID="13"><text style="&st18;" transform="matrix(&st16;  325.11  86.47 )">1</text><text style="&st18;" transform="matrix(&st16;  323.67  74.58 )">ALTB</text></g><g ewd:lineID="14"><text style="&st18;" transform="matrix(&st16;  401.59  86.47 )">2</text><text style="&st18;" transform="matrix(&st16;  405.67  74.58 )">B</text></g><g ewd:lineID="16,17"><text style="&st18;" transform="matrix(&st16;  461.08  86.47 )">3</text><text style="&st18;" transform="matrix(&st16;  464.03  74.58 )">IG</text></g><g ewd:figtype="title"><text style="&st18;" transform="matrix(&st16;  311.03  16.76 )">L31</text><text style="&st18;" transform="matrix(&st16;  311.04  23.58 )" ewd:textID="33">Door Control ECU with Receiver Assembly</text></g></g><g ewd:figtype="conn" ewd:figID="13" ewd:code="L32"><path style="stroke-width: 0.85 ;&st7;  " d=" M   407.93,   163.26  L   407.93,   180.26  " /><path style="stroke-width: 1.42 ;&st7;  " d=" M   399.43,   163.26  L   416.43,   163.26  L   416.43,   180.26  L   399.43,   180.26  L   399.43,   163.26  " /><text style="&st18;" transform="matrix(&st16;  398.45  160.69 )">7</text><path style="stroke-width: 1.42 ;&st7;   " d=" M   412.46,   158.73  C   412.46    156.22    410.44    154.19    407.93    154.19  " /><path style="stroke-width: 1.42 ;&st7;   " d=" M   407.93,   154.19  C   405.43    154.19    403.40    156.22    403.40    158.73  " /><path style="stroke-width: 1.42 ;&st7;   " d=" M   403.40,   158.73  C   403.40    161.23    405.43    163.26    407.93    163.26  " /><path style="stroke-width: 1.42 ;&st7;   " d=" M   407.93,   163.26  C   410.44    163.26    412.46    161.23    412.46    158.73  " /><text style="&st18;" transform="matrix(&st16;  405.67  160.69 )">B</text><text style="&st18;" transform="matrix(&st16;  398.45  186.76 )">4</text><path style="stroke-width: 1.42 ;&st7;   " d=" M   412.46,   184.79  C   412.46    182.28    410.44    180.26    407.93    180.26  " /><path style="stroke-width: 1.42 ;&st7;   " d=" M   407.93,   180.26  C   405.43    180.26    403.40    182.28    403.40    184.79  " /><path style="stroke-width: 1.42 ;&st7;   " d=" M   403.40,   184.79  C   403.40    187.29    405.43    189.32    407.93    189.32  " /><path style="stroke-width: 1.42 ;&st7;   " d=" M   407.93,   189.32  C   410.44    189.32    412.46    187.29    412.46    184.79  " /><text style="&st18;" transform="matrix(&st16;  405.67  186.76 )">B</text><g ewd:figtype="title"><text style="&st18;" transform="matrix(&st17;  389.79  183.16 )" ewd:textID="50">No. 24 Junction <tspan x="0 " dy="6.0">Connector</tspan></text><text style="&st18;" transform="matrix(&st17;  382.96  183.15 )">L32(B)</text></g></g><g ewd:figtype="conn" ewd:figID="15" ewd:code="L32"><path style="stroke-width: 0.85 ;&st7;  " d=" M   467.42,   163.26  L   467.42,   180.26  " /><path style="stroke-width: 1.42 ;&st7;  " d=" M   458.92,   163.26  L   475.92,   163.26  L   475.92,   180.26  L   458.92,   180.26  L   458.92,   163.26  " /><text style="&st18;" transform="matrix(&st16;  454.61  186.76 )">20</text><text style="&st18;" transform="matrix(&st16;  465.16  186.76 )">B</text><path style="stroke-width: 1.42 ;&st7;   " d=" M   471.95,   184.79  C   471.95    182.28    469.93    180.26    467.42    180.26  " /><path style="stroke-width: 1.42 ;&st7;   " d=" M   467.42,   180.26  C   464.92    180.26    462.89    182.28    462.89    184.79  " /><path style="stroke-width: 1.42 ;&st7;   " d=" M   462.89,   184.79  C   462.89    187.29    464.92    189.32    467.42    189.32  " /><path style="stroke-width: 1.42 ;&st7;   " d=" M   467.42,   189.32  C   469.93    189.32    471.95    187.29    471.95    184.79  " /><text style="&st18;" transform="matrix(&st16;  454.61  160.69 )">19</text><text style="&st18;" transform="matrix(&st16;  465.16  160.69 )">B</text><path style="stroke-width: 1.42 ;&st7;   " d=" M   471.95,   158.73  C   471.95    156.22    469.93    154.19    467.42    154.19  " /><path style="stroke-width: 1.42 ;&st7;   " d=" M   467.42,   154.19  C   464.92    154.19    462.89    156.22    462.89    158.73  " /><path style="stroke-width: 1.42 ;&st7;   " d=" M   462.89,   158.73  C   462.89    161.23    464.92    163.26    467.42    163.26  " /><path style="stroke-width: 1.42 ;&st7;   " d=" M   467.42,   163.26  C   469.93    163.26    471.95    161.23    471.95    158.73  " /><g ewd:figtype="title"><text style="&st18;" transform="matrix(&st17;  446.45  183.16 )" ewd:textID="50">No. 24 Junction <tspan x="0 " dy="6.0">Connector</tspan></text><text style="&st18;" transform="matrix(&st17;  439.62  183.15 )">L32(B)</text></g></g><g ewd:figtype="rb" ewd:figID="29" ewd:code="FUSE34"><path style="stroke-width: 1.42 ;&st7;  " d=" M   248.58,    95.27  L   244.33,    95.27  " /><path style="stroke-width: 1.42 ;&st7;  " d=" M   248.58,   103.77  L   244.33,   103.77  " /><path style="stroke-width: 0.85 ;&st7;  " d=" M   246.46,    78.27  L   246.46,    95.27  " /><path style="stroke-width: 1.42 ;&st7;   " d=" M   244.33,    95.27  C   241.99     95.27    240.08     97.17    240.08     99.52  " /><path style="stroke-width: 1.42 ;&st7;   " d=" M   240.08,    99.52  C   240.08    101.87    241.99    103.77    244.33    103.77  " /><path style="stroke-width: 1.42 ;&st7;   " d=" M   248.58,   103.77  C   250.93    103.77    252.83    101.87    252.83     99.52  " /><path style="stroke-width: 1.42 ;&st7;   " d=" M   252.83,    99.52  C   252.83     97.17    250.93     95.27    248.58     95.27  " /><path style="stroke-width: 0.28 ;&st9;  " d=" M   246.46,    90.37  L   243.63,    87.54  L   243.63,    91.79  L   246.46,    94.62  L   249.29,    91.79  L   249.29,    87.54  L   246.46,    90.37  " /><text style="&st18;" transform="matrix(&st16;  238.38  32.08 )">(BAT)</text><text style="&st18;" transform="matrix(&st16;  262.88  56.17 )">30A <tspan x="0 " dy="6.0">DOOR</tspan></text><text style="&st18;" transform="matrix(&st16;  244.58  101.49 )">2</text><text style="&st18;" transform="matrix(&st16;  240.12  86.47 )">2</text><path style="stroke-width: 0.85 ;&st7;  " d=" M   246.46,    69.77  L   246.46,    78.27  " /><path style="stroke-width: 0.85 ;&st7;   " d=" M   247.88,    68.36  C   247.88     67.57    247.24     66.94    246.46     66.94  " /><path style="stroke-width: 0.85 ;&st7;   " d=" M   246.46,    66.94  C   245.68     66.94    245.04     67.57    245.04     68.36  " /><path style="stroke-width: 0.85 ;&st7;   " d=" M   245.04,    68.36  C   245.04     69.14    245.68     69.77    246.46     69.77  " /><path style="stroke-width: 0.85 ;&st7;   " d=" M   246.46,    69.77  C   247.24     69.77    247.88     69.14    247.88     68.36  " /><path style="stroke-width: 0.85 ;&st7;   " d=" M   247.88,    45.69  C   247.88     44.91    247.24     44.28    246.46     44.28  " /><path style="stroke-width: 0.85 ;&st7;   " d=" M   246.46,    44.28  C   245.68     44.28    245.04     44.91    245.04     45.69  " /><path style="stroke-width: 0.85 ;&st7;   " d=" M   245.04,    45.69  C   245.04     46.48    245.68     47.11    246.46     47.11  " /><path style="stroke-width: 0.85 ;&st7;   " d=" M   246.46,    47.11  C   247.24     47.11    247.88     46.48    247.88     45.69  " /><path style="stroke-width: 1.42 ;&st7;   " d=" M   246.46,    66.94  C   249.20     65.33    250.11     61.80    248.50     59.06  " /><path style="stroke-width: 1.42 ;&st7;   " d=" M   248.50,    59.06  C   247.98     58.18    247.34     57.55    246.46     57.03  " /><path style="stroke-width: 1.42 ;&st7;   " d=" M   246.46,    47.11  C   243.72     48.72    242.81     52.25    244.42     54.99  " /><path style="stroke-width: 1.42 ;&st7;   " d=" M   244.42,    54.99  C   244.94     55.87    245.58     56.51    246.46     57.03  " /><path style="stroke-width: 1.42 ;&st7;  " d=" M   233.71,    35.78  L   233.71,    78.27  L   259.21,    78.27  L   259.21,    35.78  L   233.71,    35.78  " /></g><g ewd:figtype="rb" ewd:figID="30" ewd:code="FUSE6"><path style="stroke-width: 0.85 ;&st7;  " d=" M   144.48,    78.27  L   144.48,    95.27  " /><path style="stroke-width: 1.42 ;&st7;  " d=" M   146.60,   103.77  L   142.35,   103.77  " /><path style="stroke-width: 1.42 ;&st7;  " d=" M   146.60,    95.27  L   142.35,    95.27  " /><path style="stroke-width: 1.42 ;&st7;   " d=" M   150.85,    99.52  C   150.85     97.17    148.95     95.27    146.60     95.27  " /><path style="stroke-width: 1.42 ;&st7;   " d=" M   146.60,   103.77  C   148.95    103.77    150.85    101.87    150.85     99.52  " /><path style="stroke-width: 1.42 ;&st7;   " d=" M   138.10,    99.52  C   138.10    101.87    140.00    103.77    142.35    103.77  " /><path style="stroke-width: 1.42 ;&st7;   " d=" M   142.35,    95.27  C   140.00     95.27    138.10     97.17    138.10     99.52  " /><path style="stroke-width: 0.28 ;&st9;  " d=" M   144.48,    90.37  L   141.64,    87.54  L   141.64,    91.79  L   144.48,    94.62  L   147.31,    91.79  L   147.31,    87.54  L   144.48,    90.37  " /><text style="&st18;" transform="matrix(&st16;  136.39  32.08 )">(BAT)</text><text style="&st18;" transform="matrix(&st16;  138.14  86.47 )">2</text><text style="&st18;" transform="matrix(&st16;  142.6  101.49 )">2</text><text style="&st18;" transform="matrix(&st16;  160.9  56.17 )">10A <tspan x="0 " dy="6.0">ECU-B</tspan></text><path style="stroke-width: 0.85 ;&st7;  " d=" M   144.48,    69.77  L   144.48,    78.27  " /><path style="stroke-width: 0.85 ;&st7;   " d=" M   145.89,    68.36  C   145.89     67.57    145.26     66.94    144.48     66.94  " /><path style="stroke-width: 0.85 ;&st7;   " d=" M   144.48,    66.94  C   143.69     66.94    143.06     67.57    143.06     68.36  " /><path style="stroke-width: 0.85 ;&st7;   " d=" M   143.06,    68.36  C   143.06     69.14    143.69     69.77    144.48     69.77  " /><path style="stroke-width: 0.85 ;&st7;   " d=" M   144.48,    69.77  C   145.26     69.77    145.89     69.14    145.89     68.36  " /><path style="stroke-width: 0.85 ;&st7;   " d=" M   145.89,    45.69  C   145.89     44.91    145.26     44.28    144.48     44.28  " /><path style="stroke-width: 0.85 ;&st7;   " d=" M   144.48,    44.28  C   143.69     44.28    143.06     44.91    143.06     45.69  " /><path style="stroke-width: 0.85 ;&st7;   " d=" M   143.06,    45.69  C   143.06     46.48    143.69     47.11    144.48     47.11  " /><path style="stroke-width: 0.85 ;&st7;   " d=" M   144.48,    47.11  C   145.26     47.11    145.89     46.48    145.89     45.69  " /><path style="stroke-width: 1.42 ;&st7;   " d=" M   144.48,    66.94  C   147.21     65.33    148.13     61.80    146.51     59.06  " /><path style="stroke-width: 1.42 ;&st7;   " d=" M   146.51,    59.06  C   145.99     58.18    145.36     57.55    144.48     57.03  " /><path style="stroke-width: 1.42 ;&st7;   " d=" M   144.48,    47.11  C   141.74     48.72    140.83     52.25    142.44     54.99  " /><path style="stroke-width: 1.42 ;&st7;   " d=" M   142.44,    54.99  C   142.96     55.87    143.59     56.51    144.48     57.03  " /><path style="stroke-width: 1.42 ;&st7;  " d=" M   131.73,    35.78  L   131.73,    78.27  L   157.22,    78.27  L   157.22,    35.78  L   131.73,    35.78  " /></g><g ewd:figtype="rb" ewd:figID="31" ewd:code="FUSE23"><path style="stroke-width: 0.85 ;&st7;  " d=" M    42.49,    78.27  L    42.49,    95.27  " /><path style="stroke-width: 1.42 ;&st7;  " d=" M    44.62,   103.77  L    40.37,   103.77  " /><path style="stroke-width: 1.42 ;&st7;  " d=" M    44.62,    95.27  L    40.37,    95.27  " /><path style="stroke-width: 1.42 ;&st7;   " d=" M    48.87,    99.52  C    48.87     97.17     46.96     95.27     44.62     95.27  " /><path style="stroke-width: 1.42 ;&st7;   " d=" M    44.62,   103.77  C    46.96    103.77     48.87    101.87     48.87     99.52  " /><path style="stroke-width: 1.42 ;&st7;   " d=" M    36.12,    99.52  C    36.12    101.87     38.02    103.77     40.37    103.77  " /><path style="stroke-width: 1.42 ;&st7;   " d=" M    40.37,    95.27  C    38.02     95.27     36.12     97.17     36.12     99.52  " /><path style="stroke-width: 0.28 ;&st9;  " d=" M    42.49,    90.37  L    39.66,    87.54  L    39.66,    91.79  L    42.49,    94.62  L    45.33,    91.79  L    45.33,    87.54  L    42.49,    90.37  " /><text style="&st18;" transform="matrix(&st16;  37.13  32.08 )">(IG)</text><text style="&st18;" transform="matrix(&st16;  36.15  86.47 )">2</text><text style="&st18;" transform="matrix(&st16;  40.61  101.49 )">2</text><text style="&st18;" transform="matrix(&st16;  58.92  56.17 )">15A <tspan x="0 " dy="6.0">ECU IG</tspan></text><path style="stroke-width: 0.85 ;&st7;  " d=" M    42.49,    69.77  L    42.49,    78.27  " /><path style="stroke-width: 0.85 ;&st7;   " d=" M    43.91,    68.36  C    43.91     67.57     43.28     66.94     42.49     66.94  " /><path style="stroke-width: 0.85 ;&st7;   " d=" M    42.49,    66.94  C    41.71     66.94     41.08     67.57     41.08     68.36  " /><path style="stroke-width: 0.85 ;&st7;   " d=" M    41.08,    68.36  C    41.08     69.14     41.71     69.77     42.49     69.77  " /><path style="stroke-width: 0.85 ;&st7;   " d=" M    42.49,    69.77  C    43.28     69.77     43.91     69.14     43.91     68.36  " /><path style="stroke-width: 0.85 ;&st7;   " d=" M    43.91,    45.69  C    43.91     44.91     43.28     44.28     42.49     44.28  " /><path style="stroke-width: 0.85 ;&st7;   " d=" M    42.49,    44.28  C    41.71     44.28     41.08     44.91     41.08     45.69  " /><path style="stroke-width: 0.85 ;&st7;   " d=" M    41.08,    45.69  C    41.08     46.48     41.71     47.11     42.49     47.11  " /><path style="stroke-width: 0.85 ;&st7;   " d=" M    42.49,    47.11  C    43.28     47.11     43.91     46.48     43.91     45.69  " /><path style="stroke-width: 1.42 ;&st7;   " d=" M    42.49,    66.94  C    45.23     65.33     46.14     61.80     44.53     59.06  " /><path style="stroke-width: 1.42 ;&st7;   " d=" M    44.53,    59.06  C    44.01     58.18     43.37     57.55     42.49     57.03  " /><path style="stroke-width: 1.42 ;&st7;   " d=" M    42.49,    47.11  C    39.75     48.72     38.84     52.25     40.46     54.99  " /><path style="stroke-width: 1.42 ;&st7;   " d=" M    40.46,    54.99  C    40.98     55.87     41.61     56.51     42.49     57.03  " /><path style="stroke-width: 1.42 ;&st7;  " d=" M    29.75,    35.78  L    29.75,    78.27  L    55.24,    78.27  L    55.24,    35.78  L    29.75,    35.78  " /></g><g ewd:figtype="w2w" ewd:figID="38" ewd:code="LI1"><path style="stroke-width: 1.42 ;&st7;  " d=" M    38.24,   341.16  L    42.49,   345.41  L    46.74,   341.16  " /><path style="stroke-width: 1.42 ;&st7;  " d=" M    46.74,   344.56  L    42.49,   348.81  L    38.24,   344.56  " /><text style="&st18;" transform="matrix(&st16;  29.08  356.45 )">6</text></g><g ewd:figtype="w2w" ewd:figID="39" ewd:code="IL6"><path style="stroke-width: 1.42 ;&st7;  " d=" M   148.73,   296.40  L   144.48,   292.15  L   140.23,   296.40  " /><path style="stroke-width: 1.42 ;&st7;  " d=" M   148.73,   299.80  L   144.48,   295.55  L   140.23,   299.80  " /><text style="&st18;" transform="matrix(&st16;  131.06  288.46 )">4</text></g><g ewd:figtype="w2w" ewd:figID="40" ewd:code="IL6"><path style="stroke-width: 1.42 ;&st7;  " d=" M   327.20,   120.20  L   331.44,   124.45  L   335.69,   120.20  " /><path style="stroke-width: 1.42 ;&st7;  " d=" M   335.69,   123.60  L   331.44,   127.85  L   327.20,   123.60  " /><text style="&st18;" transform="matrix(&st16;  318.03  135.48 )">6</text></g><g ewd:code="15" ewd:figID="130" ewd:comment="" ewd:figtype="comment"><text style="&st18;" transform="matrix(&st16;  166.57  530.67 )" ewd:textID="12">*15 :Pick-Up Body Type</text></g><g ewd:code="28" ewd:figID="178" ewd:comment="" ewd:figtype="comment"><text style="&st18;" transform="matrix(&st16;  166.57  615.65 )" ewd:textID="24">*28 :From Sep. 2017 Production</text></g><g ewd:code="13" ewd:figID="129" ewd:comment="" ewd:figtype="comment"><text style="&st18;" transform="matrix(&st16;  166.57  513.67 )" ewd:textID="10">*13 :12V Battery Type</text></g><g ewd:code="16" ewd:figID="132" ewd:comment="15" ewd:figtype="comment"><text style="&st18;" transform="matrix(&st16;  166.57  539.16 )" ewd:textID="13">*16 :*15 Australia</text></g><g ewd:code="20" ewd:figID="151" ewd:comment="" ewd:figtype="comment"><text style="&st18;" transform="matrix(&st16;  166.57  573.16 )" ewd:textID="17">*20 :Super Long Wheel Base 4-Door Pick-Up Body Type</text></g><g ewd:code="26" ewd:figID="168" ewd:comment="" ewd:figtype="comment"><text style="&st18;" transform="matrix(&st16;  166.57  598.65 )" ewd:textID="22">*26 :From Jan. 2017 Production</text></g><g ewd:code="27" ewd:figID="177" ewd:comment="" ewd:figtype="comment"><text style="&st18;" transform="matrix(&st16;  166.57  607.15 )" ewd:textID="23">*27 :Before Sep. 2017 Production</text></g><g ewd:code="11" ewd:figID="124" ewd:comment="" ewd:figtype="comment"><text style="&st18;" transform="matrix(&st16;  166.57  496.67 )">*11 :1HZ</text></g><g ewd:code="1" ewd:figID="140" ewd:comment="" ewd:figtype="comment"><text style="&st18;" transform="matrix(&st16;  166.57  471.18 )" ewd:textID="1">* 1 :4-Door</text></g><g ewd:code="30" ewd:figID="179" ewd:comment="" ewd:figtype="comment"><text style="&st18;" transform="matrix(&st16;  166.57  632.65 )" ewd:textID="26">*30 :From Jul. 2021 Production</text></g><g ewd:code="21" ewd:figID="152" ewd:comment="" ewd:figtype="comment"><text style="&st18;" transform="matrix(&st16;  166.57  581.66 )" ewd:textID="18">*21 :4-Door Pick-Up Body Type, Except Pick-Up Body Type</text></g><g ewd:code="32" ewd:figID="188" ewd:comment="" ewd:figtype="comment"><text style="&st18;" transform="matrix(&st16;  166.57  649.65 )" ewd:textID="28">*32 :From Sep. 2022 Production</text></g><g ewd:code="31" ewd:figID="189" ewd:comment="" ewd:figtype="comment"><text style="&st18;" transform="matrix(&st16;  166.57  641.15 )" ewd:textID="27">*31 :Before Sep. 2022 Production</text></g><g ewd:code="17" ewd:figID="139" ewd:comment="16" ewd:figtype="comment"><text style="&st18;" transform="matrix(&st16;  166.57  547.66 )" ewd:textID="14">*17 :Except *16</text></g><g ewd:code="29" ewd:figID="180" ewd:comment="" ewd:figtype="comment"><text style="&st18;" transform="matrix(&st16;  166.57  624.15 )" ewd:textID="25">*29 :Before Jul. 2021 Production</text></g><g ewd:code="10" ewd:figID="123" ewd:comment="" ewd:figtype="comment"><text style="&st18;" transform="matrix(&st16;  166.57  488.17 )">*10 :1GR-FE</text></g><g ewd:code="12" ewd:figID="125" ewd:comment="" ewd:figtype="comment"><text style="&st18;" transform="matrix(&st16;  166.57  505.17 )">*12 :1VD-FTV</text></g><g ewd:code="14" ewd:figID="131" ewd:comment="" ewd:figtype="comment"><text style="&st18;" transform="matrix(&st16;  166.57  522.17 )" ewd:textID="11">*14 :24V Battery Type</text></g><g ewd:code="18" ewd:figID="141" ewd:comment="" ewd:figtype="comment"><text style="&st18;" transform="matrix(&st16;  166.57  556.16 )" ewd:textID="15">*18 :2-Door Pick-Up Body Type</text></g><g ewd:code="25" ewd:figID="167" ewd:comment="" ewd:figtype="comment"><text style="&st18;" transform="matrix(&st16;  166.57  590.16 )" ewd:textID="21">*25 :Before Jan. 2017 Production</text></g><g ewd:code="8" ewd:figID="114" ewd:comment="" ewd:figtype="comment"><text style="&st18;" transform="matrix(&st16;  166.57  479.67 )" ewd:textID="8">* 8 :Except Pick-Up Body Type</text></g><g ewd:code="19" ewd:figID="150" ewd:comment="" ewd:figtype="comment"><text style="&st18;" transform="matrix(&st16;  166.57  564.66 )" ewd:textID="16">*19 :Semi Long Wheel Base</text></g></svg>