<?xml version="1.0" encoding="utf-8"?>
<!DOCTYPE svg PUBLIC "-//W3C//DTD SVG 1.0//EN" "http://www.w3.org/TR/2001/REC-SVG-20010904/DTD/svg10.dtd"[
	<!ENTITY ns_flows "http://ns.adobe.com/Flows/1.0/">
	<!ENTITY ns_svg "http://www.w3.org/2000/svg">
	<!ENTITY ns_xlink "http://www.w3.org/1999/xlink">
	<!ENTITY st0 "font-size:7px;font-family:'MS-PGothic';adobe-font-script:japanese;">
	<!ENTITY st1 "font-size:6px;font-family:'ArialMT';">
	<!-- White fill  -->
	<!ENTITY st2 "fill:#FFFFFF;stroke:#000000; stroke-width:1.41;stroke-linecap:round;stroke-linejoin:round;">
	<!-- Yellow fill  -->
	<!ENTITY st3 "fill:#FFFFCC;stroke:#FFFFCC; stroke-width:0.1;stroke-linecap:round;stroke-linejoin:round;">
	<!-- Gray fill  -->
	<!ENTITY st4 "fill:#CCCCCC;stroke:#CCCCCC; stroke-width:0.1;stroke-linecap:round;stroke-linejoin:round;">
	<!-- Light-blue fill -->
	<!ENTITY st5 "fill:#CCECF4;stroke:#000000; stroke-width:1.133;stroke-linecap:round;stroke-linejoin:round;">
	<!ENTITY st6 "fill:none;stroke-linecap:butt; stroke-linejoin:round;">
	<!ENTITY st7 "fill:none;stroke:#000000;stroke-linecap:round;stroke-linejoin:round;">
	<!ENTITY st8 "enable-background:new    ;">
	<!-- Black fill -->
	<!ENTITY st9 "fill:#000000;stroke:#000000; stroke-linecap:round;stroke-linejoin:round;">
	<!-- SRS note   -->
	<!ENTITY st10 "font-size:9px;font-family:'ArialMT';">
	<!ENTITY st11 "font-size:9px;font-family:'Svg Symbol';">
	<!ENTITY st12 "font-size:6px;font-family:'Svg Symbol';">
	<!ENTITY st13 "fill:none;stroke:#ff0000;stroke-linecap:round;stroke-linejoin:round;">
	<!-- Yellow fill  -->
	<!ENTITY st14 "fill:#FFFF00;stroke:#FFFF00; stroke-width:0.1;stroke-linecap:round;stroke-linejoin:round;">
	<!ENTITY st15 "font-size:6px;font-family:'MS-PGothic';adobe-font-script:japanese;">
	<!ENTITY st16 "1.00 0.00 0.00 1.00">
	<!ENTITY st17 "0.00 -1.00 1.00 0.00">
	<!ENTITY st18 "font-size:6px;font-family:'Arial';">
	<!ENTITY st19 "font-size:9px;font-family:'Arial';">
	<!ENTITY st20 "font-size:6px;font-family:'MS-PGothic','MS PGothic';adobe-font-script:japanese;">
	<!ENTITY st21 "font-size:7px;font-family:'MS-PGothic','MS PGothic';adobe-font-script:japanese;">
	<!ATTLIST svg
		xmlns:ewd CDATA #FIXED "http://shcl.co.jp/ewd"
		xmlns:a CDATA #FIXED "http://ns.adobe.com/AdobeSVGViewerExtensions/3.0/"
		ewd:ver CDATA #IMPLIED
	>
	<!ATTLIST a
		ewd:lineID CDATA #IMPLIED
		ewd:groupID CDATA #IMPLIED
		ewd:figtype CDATA #IMPLIED
		ewd:code CDATA #IMPLIED
		ewd:figID CDATA #IMPLIED
		ewd:pinNo CDATA #IMPLIED
		ewd:comment CDATA #IMPLIED >
	<!ATTLIST g
		ewd:lineID CDATA #IMPLIED
		ewd:groupID CDATA #IMPLIED
		ewd:figtype CDATA #IMPLIED
		ewd:code CDATA #IMPLIED
		ewd:figID CDATA #IMPLIED
		ewd:pinNo CDATA #IMPLIED
		ewd:comment CDATA #IMPLIED >
	<!ATTLIST text
		ewd:textID CDATA #IMPLIED >
	<!ATTLIST title
		ewd:textID CDATA #IMPLIED >
]>
<!-- Generator: Shintec Hozumi YS   -->
<svg onload="call_execInitLoadProc_svg('system')" style="overflow:visible;  enable-background:new 0 0 3601.076 710.000" viewBox="0 0 3601.076 710.000" height="710.000" width="3601.076" xml:space="preserve" ewd:ver="2.3.1.16" xmlns="&ns_svg;" xmlns:a="http://ns.adobe.com/AdobeSVGViewerExtensions/3.0/" xmlns:ewd="http://shcl.co.jp/ewd" xmlns:xlink="&ns_xlink;">
<path style="stroke-width: 1.42 ;&st7;  " d=" M   781.87,   137.76  L   773.37,   137.76  " /><text style="&st18;" transform="matrix(&st17;  769.67  105.53 )">B</text><text style="&st18;" transform="matrix(&st16;  566.0  58.99 )" ewd:textID="33">Door Control ECU with Receiver Assembly</text><text style="&st18;" transform="matrix(&st16;  565.99  52.17 )">L31</text><path style="stroke-width: 1.42 ;&st7;  " d=" M   909.35,   256.74  L   900.85,   256.74  " /><path style="stroke-width: 1.42 ;&st7;  " d=" M   781.87,   256.74  L   773.37,   256.74  " /><path style="stroke-width: 1.42 ;&st7;  " d=" M   713.88,   367.22  L   705.38,   367.22  " /><path style="stroke-width: 1.42 ;&st7;  " d=" M   577.90,   367.22  L   569.40,   367.22  " /><path style="stroke-width: 1.42 ;&st7;  " d=" M   892.35,   307.73  L   900.85,   307.73  " /><path style="stroke-width: 1.42 ;&st7;  " d=" M   892.35,   358.73  L   900.85,   358.73  " /><path style="stroke-width: 1.42 ;&st7;  " d=" M   909.35,   571.19  L   900.85,   571.19  " /><path style="stroke-width: 1.42 ;&st7;  " d=" M   781.87,   176.73  L   776.90,   171.76  " /><path style="stroke-width: 1.42 ;&st7;  " d=" M   764.87,   183.78  L   769.84,   188.75  " /><path style="stroke-width: 1.42 ;&st7;  " d=" M   776.90,   188.75  L   781.87,   183.78  " /><path style="stroke-width: 1.42 ;&st7;  " d=" M   769.84,   171.76  L   764.87,   176.73  " /><path style="stroke-width: 1.42 ;&st7;  " d=" M   909.35,   516.67  L   904.38,   511.70  " /><path style="stroke-width: 1.42 ;&st7;  " d=" M   892.35,   523.73  L   897.32,   528.70  " /><path style="stroke-width: 1.42 ;&st7;  " d=" M   904.38,   528.70  L   909.35,   523.73  " /><path style="stroke-width: 1.42 ;&st7;  " d=" M   897.32,   511.70  L   892.35,   516.67  " /><path style="stroke-width: 1.42 ;&st7;  " d=" M   909.35,   618.65  L   904.38,   613.68  " /><path style="stroke-width: 1.42 ;&st7;  " d=" M   892.35,   625.71  L   897.32,   630.68  " /><path style="stroke-width: 1.42 ;&st7;  " d=" M   904.38,   630.68  L   909.35,   625.71  " /><path style="stroke-width: 1.42 ;&st7;  " d=" M   897.32,   613.68  L   892.35,   618.65  " /><text style="&st18;" transform="matrix(&st17;  701.69  351.7 )">B-W</text><text style="&st18;" transform="matrix(&st17;  769.67  156.53 )">B</text><text style="&st18;" transform="matrix(&st17;  701.69  292.21 )">B-W</text><text style="&st18;" transform="matrix(&st17;  565.71  216.02 )">B</text><text style="&st18;" transform="matrix(&st17;  577.04  220.48 )">(*18)</text><text style="&st18;" transform="matrix(&st17;  625.2  216.02 )">B</text><text style="&st18;" transform="matrix(&st17;  636.53  220.48 )">(*21)</text><text style="&st18;" transform="matrix(&st17;  701.69  216.02 )">B</text><text style="&st18;" transform="matrix(&st17;  769.67  216.02 )">B</text><text style="&st18;" transform="matrix(&st17;  781.01  218.81 )">(*1)</text><text style="&st18;" transform="matrix(&st17;  837.66  216.02 )">B</text><text style="&st18;" transform="matrix(&st17;  849.0  218.81 )">(*1)</text><text style="&st18;" transform="matrix(&st17;  897.15  216.02 )">B</text><text style="&st18;" transform="matrix(&st17;  908.49  218.81 )">(*8)</text><text style="&st18;" transform="matrix(&st17;  897.15  284.0 )">B</text><text style="&st18;" transform="matrix(&st17;  908.49  286.8 )">(*8)</text><text style="&st18;" transform="matrix(&st17;  837.66  338.95 )">B-W</text><text style="&st18;" transform="matrix(&st17;  849.0  343.14 )">(*27 *1)</text><text style="&st18;" transform="matrix(&st17;  769.67  335.0 )">B</text><text style="&st18;" transform="matrix(&st17;  781.01  337.79 )">(*1)</text><text style="&st18;" transform="matrix(&st17;  897.15  335.0 )">B</text><text style="&st18;" transform="matrix(&st17;  908.49  337.79 )">(*8)</text><text style="&st18;" transform="matrix(&st17;  897.15  385.99 )">B</text><text style="&st18;" transform="matrix(&st17;  908.49  388.78 )">(*8)</text><text style="&st18;" transform="matrix(&st17;  897.15  504.67 )">W-B</text><text style="&st18;" transform="matrix(&st17;  908.49  503.51 )">(*8)</text><text style="&st18;" transform="matrix(&st17;  897.15  602.41 )">W-B</text><text style="&st18;" transform="matrix(&st17;  908.49  601.24 )">(*8)</text><text style="&st18;" transform="matrix(&st17;  701.69  415.44 )">B-W</text><text style="&st18;" transform="matrix(&st17;  565.71  411.48 )">B</text><text style="&st18;" transform="matrix(&st17;  577.04  415.94 )">(*18)</text><text style="&st18;" transform="matrix(&st17;  625.2  411.48 )">B</text><text style="&st18;" transform="matrix(&st17;  636.53  415.94 )">(*21)</text><text style="&st18;" transform="matrix(&st17;  897.15  661.9 )">W-B</text><text style="&st18;" transform="matrix(&st17;  908.49  660.73 )">(*8)</text><text style="&st18;" transform="matrix(&st17;  897.15  551.42 )">W-B</text><text style="&st18;" transform="matrix(&st17;  908.49  550.25 )">(*8)</text><path style="stroke-width: 1.42 ;&st7;  " d=" M   620.40,   358.73  L   628.89,   358.73  " /><path style="stroke-width: 1.42 ;&st7;  " d=" M   832.86,   248.24  L   841.36,   248.24  " /><text style="&st18;" transform="matrix(&st17;  863.16  337.01 )">SB</text><text style="&st18;" transform="matrix(&st17;  874.49  343.14 )">(*28 *1)</text><text style="&st18;" transform="matrix(&st17;  500.55  228.97 )">(*30)</text><text style="&st18;" transform="matrix(&st17;  500.55  122.74 )">(*30)</text><text style="&st18;" transform="matrix(&st17;  727.18  411.48 )">V</text><text style="&st18;" transform="matrix(&st17;  738.51  415.94 )">(*30)</text><text style="&st18;" transform="matrix(&st17;  713.02  415.94 )">(*29)</text><g ewd:figtype="conn" ewd:figID="1" ewd:code="U1"><path style="stroke-width: 0.85 ;&st7;  " d=" M   628.89,   464.96  L   628.89,   460.71  " /><path style="stroke-width: 0.85 ;&st7;  " d=" M   628.89,   494.70  L   628.89,   490.45  " /><path style="stroke-width: 1.42 ;&st7;  " d=" M   628.89,   487.62  L   634.56,   464.96  " /><path style="stroke-width: 0.85 ;&st7;   " d=" M   630.31,   466.37  C   630.31    465.59    629.68    464.96    628.89    464.96  " /><path style="stroke-width: 0.85 ;&st7;   " d=" M   628.89,   464.96  C   628.11    464.96    627.48    465.59    627.48    466.37  " /><path style="stroke-width: 0.85 ;&st7;   " d=" M   627.48,   466.37  C   627.48    467.16    628.11    467.79    628.89    467.79  " /><path style="stroke-width: 0.85 ;&st7;   " d=" M   628.89,   467.79  C   629.68    467.79    630.31    467.16    630.31    466.37  " /><path style="stroke-width: 0.85 ;&st7;   " d=" M   630.31,   489.04  C   630.31    488.25    629.68    487.62    628.89    487.62  " /><path style="stroke-width: 0.85 ;&st7;   " d=" M   628.89,   487.62  C   628.11    487.62    627.48    488.25    627.48    489.04  " /><path style="stroke-width: 0.85 ;&st7;   " d=" M   627.48,   489.04  C   627.48    489.82    628.11    490.45    628.89    490.45  " /><path style="stroke-width: 0.85 ;&st7;   " d=" M   628.89,   490.45  C   629.68    490.45    630.31    489.82    630.31    489.04  " /><path style="stroke-width: 1.42 ;&st7;  " d=" M   637.39,   494.70  L   637.39,   460.71  L   620.40,   460.71  L   620.40,   494.70  L   637.39,   494.70  " /><text style="&st18;" transform="matrix(&st16;  622.56  457.02 )">1</text><g ewd:figtype="title"><text style="&st18;" transform="matrix(&st17;  652.11  497.61 )" ewd:textID="38">Front Door Courtesy <tspan x="0 " dy="6.0">Light Switch Assembly LH</tspan></text><text style="&st18;" transform="matrix(&st17;  645.29  497.6 )">U1</text></g></g><g ewd:figtype="conn" ewd:figID="2" ewd:code="b3"><path style="stroke-width: 1.42 ;&st7;  " d=" M   900.85,   470.62  L   906.52,   447.96  " /><path style="stroke-width: 0.85 ;&st7;  " d=" M   900.85,   477.71  L   900.85,   473.46  " /><path style="stroke-width: 0.85 ;&st7;  " d=" M   900.85,   447.96  L   900.85,   443.71  " /><path style="stroke-width: 0.85 ;&st7;   " d=" M   902.27,   472.04  C   902.27    471.26    901.63    470.62    900.85    470.62  " /><path style="stroke-width: 0.85 ;&st7;   " d=" M   900.85,   470.62  C   900.07    470.62    899.43    471.26    899.43    472.04  " /><path style="stroke-width: 0.85 ;&st7;   " d=" M   899.43,   472.04  C   899.43    472.82    900.07    473.46    900.85    473.46  " /><path style="stroke-width: 0.85 ;&st7;   " d=" M   900.85,   473.46  C   901.63    473.46    902.27    472.82    902.27    472.04  " /><path style="stroke-width: 0.85 ;&st7;   " d=" M   902.27,   449.38  C   902.27    448.59    901.63    447.96    900.85    447.96  " /><path style="stroke-width: 0.85 ;&st7;   " d=" M   900.85,   447.96  C   900.07    447.96    899.43    448.59    899.43    449.38  " /><path style="stroke-width: 0.85 ;&st7;   " d=" M   899.43,   449.38  C   899.43    450.16    900.07    450.79    900.85    450.79  " /><path style="stroke-width: 0.85 ;&st7;   " d=" M   900.85,   450.79  C   901.63    450.79    902.27    450.16    902.27    449.38  " /><path style="stroke-width: 1.42 ;&st7;  " d=" M   909.35,   477.71  L   909.35,   443.71  L   892.35,   443.71  L   892.35,   477.71  L   909.35,   477.71  " /><text style="&st18;" transform="matrix(&st16;  894.51  485.9 )">1</text><text style="&st18;" transform="matrix(&st16;  894.51  440.02 )">2</text><g ewd:figtype="title"><text style="&st18;" transform="matrix(&st17;  924.07  480.61 )" ewd:textID="29">Back Door Courtesy Light Switch Assembly</text><text style="&st18;" transform="matrix(&st17;  917.24  480.6 )">b3</text></g></g><g ewd:code="U2,U3" ewd:figID="3" ewd:comment="15,8" ewd:figtype="conn"><path style="stroke-width: 1.42 ;&st7;  " d=" M   841.36,   487.62  L   847.03,   464.96  " /><path style="stroke-width: 0.85 ;&st7;  " d=" M   841.36,   494.70  L   841.36,   490.45  " /><path style="stroke-width: 0.85 ;&st7;  " d=" M   841.36,   464.96  L   841.36,   460.71  " /><path style="stroke-width: 0.85 ;&st7;   " d=" M   842.78,   489.04  C   842.78    488.25    842.14    487.62    841.36    487.62  " /><path style="stroke-width: 0.85 ;&st7;   " d=" M   841.36,   487.62  C   840.58    487.62    839.94    488.25    839.94    489.04  " /><path style="stroke-width: 0.85 ;&st7;   " d=" M   839.94,   489.04  C   839.94    489.82    840.58    490.45    841.36    490.45  " /><path style="stroke-width: 0.85 ;&st7;   " d=" M   841.36,   490.45  C   842.14    490.45    842.78    489.82    842.78    489.04  " /><path style="stroke-width: 0.85 ;&st7;   " d=" M   842.78,   466.37  C   842.78    465.59    842.14    464.96    841.36    464.96  " /><path style="stroke-width: 0.85 ;&st7;   " d=" M   841.36,   464.96  C   840.58    464.96    839.94    465.59    839.94    466.37  " /><path style="stroke-width: 0.85 ;&st7;   " d=" M   839.94,   466.37  C   839.94    467.16    840.58    467.79    841.36    467.79  " /><path style="stroke-width: 0.85 ;&st7;   " d=" M   841.36,   467.79  C   842.14    467.79    842.78    467.16    842.78    466.37  " /><path style="stroke-width: 1.42 ;&st7;  " d=" M   849.86,   494.70  L   849.86,   460.71  L   832.86,   460.71  L   832.86,   494.70  L   849.86,   494.70  " /><text style="&st18;" transform="matrix(&st16;  831.88  458.14 )">1</text><text style="&st18;" transform="matrix(&st16;  831.88  449.08 )">1</text><path style="stroke-width: 1.42 ;&st7;   " d=" M   845.89,   456.18  C   845.89    453.67    843.86    451.64    841.36    451.64  " /><path style="stroke-width: 1.42 ;&st7;   " d=" M   841.36,   451.64  C   838.86    451.64    836.83    453.67    836.83    456.18  " /><path style="stroke-width: 1.42 ;&st7;   " d=" M   836.83,   456.18  C   836.83    458.68    838.86    460.71    841.36    460.71  " /><path style="stroke-width: 1.42 ;&st7;   " d=" M   841.36,   460.71  C   843.86    460.71    845.89    458.68    845.89    456.18  " /><text style="&st18;" transform="matrix(&st16;  839.09  449.08 )">A</text><path style="stroke-width: 1.42 ;&st7;   " d=" M   845.89,   447.11  C   845.89    444.61    843.86    442.58    841.36    442.58  " /><path style="stroke-width: 1.42 ;&st7;   " d=" M   841.36,   442.58  C   838.86    442.58    836.83    444.61    836.83    447.11  " /><path style="stroke-width: 1.42 ;&st7;   " d=" M   836.83,   447.11  C   836.83    449.61    838.86    451.64    841.36    451.64  " /><path style="stroke-width: 1.42 ;&st7;   " d=" M   841.36,   451.64  C   843.86    451.64    845.89    449.61    845.89    447.11  " /><text style="&st18;" transform="matrix(&st16;  839.09  458.14 )">B</text><g ewd:figtype="title"><text style="&st18;" transform="matrix(&st17;  829.17  497.61 )" ewd:textID="55">Rear Door Courtesy Light Switch Assembly LH</text><text style="&st18;" transform="matrix(&st17;  822.34  497.6 )">U2(A),U3(B)</text></g><g ewd:code="" ewd:figID="142" ewd:comment="8" ewd:figtype="commref"><text style="&st18;" transform="matrix(&st16;  846.45  458.14 )">(*8)</text></g><g ewd:code="" ewd:figID="143" ewd:comment="15" ewd:figtype="commref"><text style="&st18;" transform="matrix(&st16;  846.45  449.08 )">(*15)</text></g></g><g ewd:code="S13,S16" ewd:figID="4" ewd:comment="19,20" ewd:figtype="conn"><path style="stroke-width: 1.42 ;&st7;  " d=" M   773.37,   487.62  L   779.04,   464.96  " /><path style="stroke-width: 0.85 ;&st7;  " d=" M   773.37,   494.70  L   773.37,   490.45  " /><path style="stroke-width: 0.85 ;&st7;  " d=" M   773.37,   464.96  L   773.37,   460.71  " /><path style="stroke-width: 0.85 ;&st7;   " d=" M   774.79,   489.04  C   774.79    488.25    774.15    487.62    773.37    487.62  " /><path style="stroke-width: 0.85 ;&st7;   " d=" M   773.37,   487.62  C   772.59    487.62    771.95    488.25    771.95    489.04  " /><path style="stroke-width: 0.85 ;&st7;   " d=" M   771.95,   489.04  C   771.95    489.82    772.59    490.45    773.37    490.45  " /><path style="stroke-width: 0.85 ;&st7;   " d=" M   773.37,   490.45  C   774.15    490.45    774.79    489.82    774.79    489.04  " /><path style="stroke-width: 0.85 ;&st7;   " d=" M   774.79,   466.37  C   774.79    465.59    774.15    464.96    773.37    464.96  " /><path style="stroke-width: 0.85 ;&st7;   " d=" M   773.37,   464.96  C   772.59    464.96    771.95    465.59    771.95    466.37  " /><path style="stroke-width: 0.85 ;&st7;   " d=" M   771.95,   466.37  C   771.95    467.16    772.59    467.79    773.37    467.79  " /><path style="stroke-width: 0.85 ;&st7;   " d=" M   773.37,   467.79  C   774.15    467.79    774.79    467.16    774.79    466.37  " /><path style="stroke-width: 1.42 ;&st7;  " d=" M   781.87,   494.70  L   781.87,   460.71  L   764.87,   460.71  L   764.87,   494.70  L   781.87,   494.70  " /><text style="&st18;" transform="matrix(&st16;  763.89  458.14 )">1</text><text style="&st18;" transform="matrix(&st16;  763.89  449.08 )">1</text><path style="stroke-width: 1.42 ;&st7;   " d=" M   777.90,   456.18  C   777.90    453.67    775.87    451.64    773.37    451.64  " /><path style="stroke-width: 1.42 ;&st7;   " d=" M   773.37,   451.64  C   770.87    451.64    768.84    453.67    768.84    456.18  " /><path style="stroke-width: 1.42 ;&st7;   " d=" M   768.84,   456.18  C   768.84    458.68    770.87    460.71    773.37    460.71  " /><path style="stroke-width: 1.42 ;&st7;   " d=" M   773.37,   460.71  C   775.87    460.71    777.90    458.68    777.90    456.18  " /><text style="&st18;" transform="matrix(&st16;  771.11  449.08 )">A</text><path style="stroke-width: 1.42 ;&st7;   " d=" M   777.90,   447.11  C   777.90    444.61    775.87    442.58    773.37    442.58  " /><path style="stroke-width: 1.42 ;&st7;   " d=" M   773.37,   442.58  C   770.87    442.58    768.84    444.61    768.84    447.11  " /><path style="stroke-width: 1.42 ;&st7;   " d=" M   768.84,   447.11  C   768.84    449.61    770.87    451.64    773.37    451.64  " /><path style="stroke-width: 1.42 ;&st7;   " d=" M   773.37,   451.64  C   775.87    451.64    777.90    449.61    777.90    447.11  " /><text style="&st18;" transform="matrix(&st16;  771.11  458.14 )">B</text><g ewd:figtype="title"><text style="&st18;" transform="matrix(&st17;  755.23  497.61 )" ewd:textID="56">Rear Door Courtesy <tspan x="0 " dy="6.0">Light Switch Assembly RH</tspan></text><text style="&st18;" transform="matrix(&st17;  748.4  497.6 )">S13(A),S16(B)</text></g><g ewd:code="" ewd:figID="146" ewd:comment="20" ewd:figtype="commref"><text style="&st18;" transform="matrix(&st16;  778.46  458.14 )">(*20)</text></g><g ewd:code="" ewd:figID="147" ewd:comment="19" ewd:figtype="commref"><text style="&st18;" transform="matrix(&st16;  778.46  449.08 )">(*19)</text></g></g><g ewd:figtype="conn" ewd:figID="5" ewd:code="I20"><path style="stroke-width: 0.85 ;&st7;  " d=" M   705.38,   239.75  L   705.38,   265.24  " /><path style="stroke-width: 0.85 ;&st7;  " d=" M   709.63,   256.74  L   701.13,   256.74  " /><path style="stroke-width: 0.28 ;&st9;  " d=" M   705.38,   256.74  L   699.72,   248.24  L   711.05,   248.24  L   705.38,   256.74  " /><path style="stroke-width: 1.42 ;&st7;  " d=" M   696.88,   265.24  L   713.88,   265.24  L   713.88,   239.75  L   696.88,   239.75  L   696.88,   265.24  " /><text style="&st18;" transform="matrix(&st16;  699.04  273.43 )">2</text><text style="&st18;" transform="matrix(&st16;  699.04  236.06 )">1</text><g ewd:figtype="title"><text style="&st18;" transform="matrix(&st17;  728.6  268.15 )" ewd:textID="32">Diode <tspan x="0 " dy="6.0">(Door Courtesy)</tspan></text><text style="&st18;" transform="matrix(&st17;  721.77  268.14 )">I20</text></g></g><g ewd:code="S4,S20" ewd:figID="6" ewd:comment="16,17" ewd:figtype="conn"><path style="stroke-width: 0.85 ;&st7;  " d=" M   705.38,   464.96  L   705.38,   460.71  " /><path style="stroke-width: 0.85 ;&st7;  " d=" M   705.38,   494.70  L   705.38,   490.45  " /><path style="stroke-width: 1.42 ;&st7;  " d=" M   705.38,   487.62  L   711.05,   464.96  " /><path style="stroke-width: 0.85 ;&st7;   " d=" M   706.80,   466.37  C   706.80    465.59    706.16    464.96    705.38    464.96  " /><path style="stroke-width: 0.85 ;&st7;   " d=" M   705.38,   464.96  C   704.60    464.96    703.97    465.59    703.97    466.37  " /><path style="stroke-width: 0.85 ;&st7;   " d=" M   703.97,   466.37  C   703.97    467.16    704.60    467.79    705.38    467.79  " /><path style="stroke-width: 0.85 ;&st7;   " d=" M   705.38,   467.79  C   706.16    467.79    706.80    467.16    706.80    466.37  " /><path style="stroke-width: 0.85 ;&st7;   " d=" M   706.80,   489.04  C   706.80    488.25    706.16    487.62    705.38    487.62  " /><path style="stroke-width: 0.85 ;&st7;   " d=" M   705.38,   487.62  C   704.60    487.62    703.97    488.25    703.97    489.04  " /><path style="stroke-width: 0.85 ;&st7;   " d=" M   703.97,   489.04  C   703.97    489.82    704.60    490.45    705.38    490.45  " /><path style="stroke-width: 0.85 ;&st7;   " d=" M   705.38,   490.45  C   706.16    490.45    706.80    489.82    706.80    489.04  " /><path style="stroke-width: 1.42 ;&st7;  " d=" M   713.88,   494.70  L   713.88,   460.71  L   696.88,   460.71  L   696.88,   494.70  L   713.88,   494.70  " /><text style="&st18;" transform="matrix(&st16;  695.9  458.14 )">1</text><text style="&st18;" transform="matrix(&st16;  695.9  449.08 )">1</text><path style="stroke-width: 1.42 ;&st7;   " d=" M   709.91,   456.18  C   709.91    453.67    707.89    451.64    705.38    451.64  " /><path style="stroke-width: 1.42 ;&st7;   " d=" M   705.38,   451.64  C   702.88    451.64    700.85    453.67    700.85    456.18  " /><path style="stroke-width: 1.42 ;&st7;   " d=" M   700.85,   456.18  C   700.85    458.68    702.88    460.71    705.38    460.71  " /><path style="stroke-width: 1.42 ;&st7;   " d=" M   705.38,   460.71  C   707.89    460.71    709.91    458.68    709.91    456.18  " /><text style="&st18;" transform="matrix(&st16;  703.12  449.08 )">A</text><path style="stroke-width: 1.42 ;&st7;   " d=" M   709.91,   447.11  C   709.91    444.61    707.89    442.58    705.38    442.58  " /><path style="stroke-width: 1.42 ;&st7;   " d=" M   705.38,   442.58  C   702.88    442.58    700.85    444.61    700.85    447.11  " /><path style="stroke-width: 1.42 ;&st7;   " d=" M   700.85,   447.11  C   700.85    449.61    702.88    451.64    705.38    451.64  " /><path style="stroke-width: 1.42 ;&st7;   " d=" M   705.38,   451.64  C   707.89    451.64    709.91    449.61    709.91    447.11  " /><text style="&st18;" transform="matrix(&st16;  703.12  458.14 )">B</text><g ewd:figtype="title"><text style="&st18;" transform="matrix(&st17;  687.24  497.61 )" ewd:textID="39">Front Door Courtesy <tspan x="0 " dy="6.0">Light Switch Assembly RH</tspan></text><text style="&st18;" transform="matrix(&st17;  680.41  497.6 )">S4(A),S20(B)</text></g><g ewd:code="" ewd:figID="148" ewd:comment="16" ewd:figtype="commref"><text style="&st18;" transform="matrix(&st16;  710.48  458.14 )">(*16)</text></g><g ewd:code="" ewd:figID="149" ewd:comment="17" ewd:figtype="commref"><text style="&st18;" transform="matrix(&st16;  710.48  449.08 )">(*17)</text></g></g><g ewd:figtype="conn" ewd:figID="7" ewd:code="I61"><path style="stroke-width: 0.85 ;&st7;  " d=" M   705.38,   307.73  L   705.38,   324.73  " /><path style="stroke-width: 1.42 ;&st7;  " d=" M   696.88,   307.73  L   713.88,   307.73  L   713.88,   324.73  L   696.88,   324.73  L   696.88,   307.73  " /><text style="&st18;" transform="matrix(&st16;  695.9  331.23 )">3</text><path style="stroke-width: 1.42 ;&st7;   " d=" M   709.91,   329.26  C   709.91    326.76    707.89    324.73    705.38    324.73  " /><path style="stroke-width: 1.42 ;&st7;   " d=" M   705.38,   324.73  C   702.88    324.73    700.85    326.76    700.85    329.26  " /><path style="stroke-width: 1.42 ;&st7;   " d=" M   700.85,   329.26  C   700.85    331.77    702.88    333.80    705.38    333.80  " /><path style="stroke-width: 1.42 ;&st7;   " d=" M   705.38,   333.80  C   707.89    333.80    709.91    331.77    709.91    329.26  " /><text style="&st18;" transform="matrix(&st16;  702.96  331.23 )">C</text><text style="&st18;" transform="matrix(&st16;  695.9  305.17 )">2</text><path style="stroke-width: 1.42 ;&st7;   " d=" M   709.91,   303.20  C   709.91    300.70    707.89    298.67    705.38    298.67  " /><path style="stroke-width: 1.42 ;&st7;   " d=" M   705.38,   298.67  C   702.88    298.67    700.85    300.70    700.85    303.20  " /><path style="stroke-width: 1.42 ;&st7;   " d=" M   700.85,   303.20  C   700.85    305.70    702.88    307.73    705.38    307.73  " /><path style="stroke-width: 1.42 ;&st7;   " d=" M   705.38,   307.73  C   707.89    307.73    709.91    305.70    709.91    303.20  " /><text style="&st18;" transform="matrix(&st16;  702.96  305.17 )">C</text><g ewd:figtype="title"><text style="&st18;" transform="matrix(&st17;  687.24  327.64 )" ewd:textID="48">No. 11 Junction <tspan x="0 " dy="6.0">Connector</tspan></text><text style="&st18;" transform="matrix(&st17;  680.41  327.63 )">I61(C)</text></g></g><g ewd:code="S6,S29" ewd:figID="8" ewd:comment="16,17" ewd:figtype="conn"><path style="stroke-width: 0.85 ;&st7;  " d=" M   569.40,   464.96  L   569.40,   460.71  " /><path style="stroke-width: 0.85 ;&st7;  " d=" M   569.40,   494.70  L   569.40,   490.45  " /><path style="stroke-width: 1.42 ;&st7;  " d=" M   569.40,   487.62  L   575.07,   464.96  " /><path style="stroke-width: 0.85 ;&st7;   " d=" M   570.82,   466.37  C   570.82    465.59    570.19    464.96    569.40    464.96  " /><path style="stroke-width: 0.85 ;&st7;   " d=" M   569.40,   464.96  C   568.62    464.96    567.99    465.59    567.99    466.37  " /><path style="stroke-width: 0.85 ;&st7;   " d=" M   567.99,   466.37  C   567.99    467.16    568.62    467.79    569.40    467.79  " /><path style="stroke-width: 0.85 ;&st7;   " d=" M   569.40,   467.79  C   570.19    467.79    570.82    467.16    570.82    466.37  " /><path style="stroke-width: 0.85 ;&st7;   " d=" M   570.82,   489.04  C   570.82    488.25    570.19    487.62    569.40    487.62  " /><path style="stroke-width: 0.85 ;&st7;   " d=" M   569.40,   487.62  C   568.62    487.62    567.99    488.25    567.99    489.04  " /><path style="stroke-width: 0.85 ;&st7;   " d=" M   567.99,   489.04  C   567.99    489.82    568.62    490.45    569.40    490.45  " /><path style="stroke-width: 0.85 ;&st7;   " d=" M   569.40,   490.45  C   570.19    490.45    570.82    489.82    570.82    489.04  " /><path style="stroke-width: 1.42 ;&st7;  " d=" M   577.90,   494.70  L   577.90,   460.71  L   560.91,   460.71  L   560.91,   494.70  L   577.90,   494.70  " /><text style="&st18;" transform="matrix(&st16;  559.92  458.14 )">1</text><text style="&st18;" transform="matrix(&st16;  559.92  449.08 )">1</text><path style="stroke-width: 1.42 ;&st7;   " d=" M   573.94,   456.18  C   573.94    453.67    571.91    451.64    569.40    451.64  " /><path style="stroke-width: 1.42 ;&st7;   " d=" M   569.40,   451.64  C   566.90    451.64    564.87    453.67    564.87    456.18  " /><path style="stroke-width: 1.42 ;&st7;   " d=" M   564.87,   456.18  C   564.87    458.68    566.90    460.71    569.40    460.71  " /><path style="stroke-width: 1.42 ;&st7;   " d=" M   569.40,   460.71  C   571.91    460.71    573.94    458.68    573.94    456.18  " /><text style="&st18;" transform="matrix(&st16;  567.14  449.08 )">A</text><path style="stroke-width: 1.42 ;&st7;   " d=" M   573.94,   447.11  C   573.94    444.61    571.91    442.58    569.40    442.58  " /><path style="stroke-width: 1.42 ;&st7;   " d=" M   569.40,   442.58  C   566.90    442.58    564.87    444.61    564.87    447.11  " /><path style="stroke-width: 1.42 ;&st7;   " d=" M   564.87,   447.11  C   564.87    449.61    566.90    451.64    569.40    451.64  " /><path style="stroke-width: 1.42 ;&st7;   " d=" M   569.40,   451.64  C   571.91    451.64    573.94    449.61    573.94    447.11  " /><text style="&st18;" transform="matrix(&st16;  567.14  458.14 )">B</text><g ewd:figtype="title"><text style="&st18;" transform="matrix(&st17;  551.26  497.61 )" ewd:textID="38">Front Door Courtesy <tspan x="0 " dy="6.0">Light Switch Assembly LH</tspan></text><text style="&st18;" transform="matrix(&st17;  544.44  497.6 )">S6(A),S29(B)</text></g><g ewd:code="" ewd:figID="144" ewd:comment="16" ewd:figtype="commref"><text style="&st18;" transform="matrix(&st16;  574.5  458.14 )">(*16)</text></g><g ewd:code="" ewd:figID="145" ewd:comment="17" ewd:figtype="commref"><text style="&st18;" transform="matrix(&st16;  574.5  449.08 )">(*17)</text></g></g><g ewd:figtype="conn" ewd:figID="12" ewd:code="L31"><g ewd:lineID="30"><text style="&st18;" transform="matrix(&st16;  763.7  86.47 )">18</text><text style="&st18;" transform="matrix(&st16;  764.98  74.58 )">DCTY</text></g></g><g ewd:figtype="w2w" ewd:figID="41" ewd:code="IS3"><path style="stroke-width: 1.42 ;&st7;  " d=" M   573.65,   372.89  L   569.40,   368.64  L   565.16,   372.89  " /><path style="stroke-width: 1.42 ;&st7;  " d=" M   573.65,   376.29  L   569.40,   372.04  L   565.16,   376.29  " /><text style="&st18;" transform="matrix(&st16;  555.99  364.94 )">6</text></g><g ewd:code="UI5" ewd:figID="42" ewd:comment="26" ewd:figtype="w2w"><text style="&st18;" transform="matrix(&st16;  615.48  373.44 )">9</text><g ewd:code="" ewd:figID="165" ewd:comment="26" ewd:figtype="commref"><text style="&st18;" transform="matrix(&st16;  637.93  373.44 )">(*26)</text></g></g><g ewd:code="UI4" ewd:figID="43" ewd:comment="25" ewd:figtype="w2w"><text style="&st18;" transform="matrix(&st16;  615.48  364.94 )">8</text><path style="stroke-width: 1.42 ;&st7;  " d=" M   633.14,   353.06  L   628.89,   357.31  L   624.65,   353.06  " /><path style="stroke-width: 1.42 ;&st7;  " d=" M   624.65,   349.66  L   628.89,   353.91  L   633.14,   349.66  " /><g ewd:code="" ewd:figID="166" ewd:comment="25" ewd:figtype="commref"><text style="&st18;" transform="matrix(&st16;  637.93  364.94 )">(*25)</text></g></g><g ewd:figtype="w2w" ewd:figID="44" ewd:code="IS3"><path style="stroke-width: 1.42 ;&st7;  " d=" M   709.63,   372.89  L   705.38,   368.64  L   701.13,   372.89  " /><path style="stroke-width: 1.42 ;&st7;  " d=" M   709.63,   376.29  L   705.38,   372.04  L   701.13,   376.29  " /><text style="&st18;" transform="matrix(&st16;  688.63  364.94 )">10</text></g><g ewd:figtype="w2w" ewd:figID="45" ewd:code="IS3"><path style="stroke-width: 1.42 ;&st7;  " d=" M   777.62,   262.41  L   773.37,   258.16  L   769.12,   262.41  " /><path style="stroke-width: 1.42 ;&st7;  " d=" M   777.62,   265.81  L   773.37,   261.56  L   769.12,   265.81  " /><text style="&st18;" transform="matrix(&st16;  759.95  254.46 )">5</text></g><g ewd:figtype="w2w" ewd:figID="46" ewd:code="LI1"><path style="stroke-width: 1.42 ;&st7;  " d=" M   777.62,   143.43  L   773.37,   139.18  L   769.12,   143.43  " /><text style="&st18;" transform="matrix(&st16;  756.62  135.48 )">16</text><path style="stroke-width: 1.42 ;&st7;  " d=" M   777.62,   146.83  L   773.37,   142.58  L   769.12,   146.83  " /></g><g ewd:code="UI5" ewd:figID="47" ewd:comment="26" ewd:figtype="w2w"><text style="&st18;" transform="matrix(&st16;  827.94  262.96 )">3</text><g ewd:code="" ewd:figID="175" ewd:comment="26" ewd:figtype="commref"><text style="&st18;" transform="matrix(&st16;  850.39  262.96 )">(*26)</text></g></g><g ewd:code="UI4" ewd:figID="48" ewd:comment="25" ewd:figtype="w2w"><path style="stroke-width: 1.42 ;&st7;  " d=" M   845.61,   242.58  L   841.36,   246.83  L   837.11,   242.58  " /><path style="stroke-width: 1.42 ;&st7;  " d=" M   837.11,   239.18  L   841.36,   243.43  L   845.61,   239.18  " /><text style="&st18;" transform="matrix(&st16;  827.94  254.46 )">9</text><g ewd:code="" ewd:figID="176" ewd:comment="25" ewd:figtype="commref"><text style="&st18;" transform="matrix(&st16;  850.39  254.46 )">(*25)</text></g></g><g ewd:figtype="w2w" ewd:figID="49" ewd:code="bT1"><path style="stroke-width: 1.42 ;&st7;  " d=" M   905.10,   580.26  L   900.85,   576.01  L   896.60,   580.26  " /><path style="stroke-width: 1.42 ;&st7;  " d=" M   905.10,   576.86  L   900.85,   572.61  L   896.60,   576.86  " /><text style="&st18;" transform="matrix(&st16;  887.43  568.91 )">2</text></g><g ewd:figtype="w2w" ewd:figID="50" ewd:code="bT1"><path style="stroke-width: 1.42 ;&st7;  " d=" M   896.60,   349.66  L   900.85,   353.91  L   905.10,   349.66  " /><path style="stroke-width: 1.42 ;&st7;  " d=" M   905.10,   353.06  L   900.85,   357.31  L   896.60,   353.06  " /><text style="&st18;" transform="matrix(&st16;  887.43  364.94 )">4</text></g><g ewd:figtype="w2w" ewd:figID="51" ewd:code="TS2"><path style="stroke-width: 1.42 ;&st7;  " d=" M   905.10,   302.07  L   900.85,   306.32  L   896.60,   302.07  " /><path style="stroke-width: 1.42 ;&st7;  " d=" M   896.60,   298.67  L   900.85,   302.92  L   905.10,   298.67  " /><text style="&st18;" transform="matrix(&st16;  887.43  313.95 )">3</text></g><g ewd:figtype="w2w" ewd:figID="52" ewd:code="IS2"><path style="stroke-width: 1.42 ;&st7;  " d=" M   905.10,   262.41  L   900.85,   258.16  L   896.60,   262.41  " /><path style="stroke-width: 1.42 ;&st7;  " d=" M   905.10,   265.81  L   900.85,   261.56  L   896.60,   265.81  " /><text style="&st18;" transform="matrix(&st16;  884.1  254.46 )">18</text></g><g ewd:figtype="gp" ewd:figID="81" ewd:code="TA"><path style="stroke-width: 0.85 ;&st7;  " d=" M   899.43,   710.00  L   902.27,   710.00  " /><path style="stroke-width: 0.85 ;&st7;  " d=" M   898.02,   707.17  L   903.68,   707.17  " /><path style="stroke-width: 0.85 ;&st7;  " d=" M   900.85,   697.25  L   900.85,   701.50  " /><path style="stroke-width: 0.85 ;&st7;  " d=" M   892.35,   701.50  L   909.35,   701.50  " /><path style="stroke-width: 0.85 ;&st7;  " d=" M   896.60,   704.33  L   905.10,   704.33  " /></g><g ewd:figtype="annex" ewd:figID="133" ewd:code=" "><path style="stroke-width: 0.85 ;&st7;  " d=" M   702.55,   508.87  L   708.21,   508.87  " /><path style="stroke-width: 0.85 ;&st7;  " d=" M   701.13,   506.03  L   709.63,   506.03  " /><path style="stroke-width: 0.85 ;&st7;  " d=" M   696.88,   503.20  L   713.88,   503.20  " /><path style="stroke-width: 0.85 ;&st7;  " d=" M   705.38,   494.70  L   705.38,   503.20  " /><path style="stroke-width: 0.85 ;&st7;  " d=" M   703.97,   511.70  L   706.80,   511.70  " /></g><g ewd:figtype="annex" ewd:figID="134" ewd:code=" "><path style="stroke-width: 0.85 ;&st7;  " d=" M   626.06,   508.87  L   631.73,   508.87  " /><path style="stroke-width: 0.85 ;&st7;  " d=" M   624.65,   506.03  L   633.14,   506.03  " /><path style="stroke-width: 0.85 ;&st7;  " d=" M   627.48,   511.70  L   630.31,   511.70  " /><path style="stroke-width: 0.85 ;&st7;  " d=" M   620.40,   503.20  L   637.39,   503.20  " /><path style="stroke-width: 0.85 ;&st7;  " d=" M   628.89,   494.70  L   628.89,   503.20  " /></g><g ewd:figtype="annex" ewd:figID="135" ewd:code=" "><path style="stroke-width: 0.85 ;&st7;  " d=" M   567.99,   511.70  L   570.82,   511.70  " /><path style="stroke-width: 0.85 ;&st7;  " d=" M   569.40,   494.70  L   569.40,   503.20  " /><path style="stroke-width: 0.85 ;&st7;  " d=" M   565.16,   506.03  L   573.65,   506.03  " /><path style="stroke-width: 0.85 ;&st7;  " d=" M   560.91,   503.20  L   577.90,   503.20  " /><path style="stroke-width: 0.85 ;&st7;  " d=" M   566.57,   508.87  L   572.24,   508.87  " /></g><g ewd:figtype="annex" ewd:figID="136" ewd:code=" "><path style="stroke-width: 0.85 ;&st7;  " d=" M   769.12,   506.03  L   777.62,   506.03  " /><path style="stroke-width: 0.85 ;&st7;  " d=" M   770.54,   508.87  L   776.20,   508.87  " /><path style="stroke-width: 0.85 ;&st7;  " d=" M   764.87,   503.20  L   781.87,   503.20  " /><path style="stroke-width: 0.85 ;&st7;  " d=" M   771.95,   511.70  L   774.79,   511.70  " /><path style="stroke-width: 0.85 ;&st7;  " d=" M   773.37,   494.70  L   773.37,   503.20  " /></g><g ewd:figtype="annex" ewd:figID="137" ewd:code=" "><path style="stroke-width: 0.85 ;&st7;  " d=" M   838.53,   508.87  L   844.19,   508.87  " /><path style="stroke-width: 0.85 ;&st7;  " d=" M   832.86,   503.20  L   849.86,   503.20  " /><path style="stroke-width: 0.85 ;&st7;  " d=" M   839.94,   511.70  L   842.78,   511.70  " /><path style="stroke-width: 0.85 ;&st7;  " d=" M   837.11,   506.03  L   845.61,   506.03  " /><path style="stroke-width: 0.85 ;&st7;  " d=" M   841.36,   494.70  L   841.36,   503.20  " /></g></svg>