<?xml version="1.0" encoding="utf-8"?>
<!DOCTYPE svg PUBLIC "-//W3C//DTD SVG 1.0//EN" "http://www.w3.org/TR/2001/REC-SVG-20010904/DTD/svg10.dtd"[
	<!ENTITY ns_flows "http://ns.adobe.com/Flows/1.0/">
	<!ENTITY ns_svg "http://www.w3.org/2000/svg">
	<!ENTITY ns_xlink "http://www.w3.org/1999/xlink">
	<!ENTITY st0 "font-size:7px;font-family:'MS-PGothic';adobe-font-script:japanese;">
	<!ENTITY st1 "font-size:6px;font-family:'ArialMT';">
	<!-- White fill  -->
	<!ENTITY st2 "fill:#FFFFFF;stroke:#000000; stroke-width:1.41;stroke-linecap:round;stroke-linejoin:round;">
	<!-- Yellow fill  -->
	<!ENTITY st3 "fill:#FFFFCC;stroke:#FFFFCC; stroke-width:0.1;stroke-linecap:round;stroke-linejoin:round;">
	<!-- Gray fill  -->
	<!ENTITY st4 "fill:#CCCCCC;stroke:#CCCCCC; stroke-width:0.1;stroke-linecap:round;stroke-linejoin:round;">
	<!-- Light-blue fill -->
	<!ENTITY st5 "fill:#CCECF4;stroke:#000000; stroke-width:1.133;stroke-linecap:round;stroke-linejoin:round;">
	<!ENTITY st6 "fill:none;stroke-linecap:butt; stroke-linejoin:round;">
	<!ENTITY st7 "fill:none;stroke:#000000;stroke-linecap:round;stroke-linejoin:round;">
	<!ENTITY st8 "enable-background:new    ;">
	<!-- Black fill -->
	<!ENTITY st9 "fill:#000000;stroke:#000000; stroke-linecap:round;stroke-linejoin:round;">
	<!-- SRS note   -->
	<!ENTITY st10 "font-size:9px;font-family:'ArialMT';">
	<!ENTITY st11 "font-size:9px;font-family:'Svg Symbol';">
	<!ENTITY st12 "font-size:6px;font-family:'Svg Symbol';">
	<!ENTITY st13 "fill:none;stroke:#ff0000;stroke-linecap:round;stroke-linejoin:round;">
	<!-- Yellow fill  -->
	<!ENTITY st14 "fill:#FFFF00;stroke:#FFFF00; stroke-width:0.1;stroke-linecap:round;stroke-linejoin:round;">
	<!ENTITY st15 "font-size:6px;font-family:'MS-PGothic';adobe-font-script:japanese;">
	<!ENTITY st16 "1.00 0.00 0.00 1.00">
	<!ENTITY st17 "0.00 -1.00 1.00 0.00">
	<!ENTITY st18 "font-size:6px;font-family:'Arial';">
	<!ENTITY st19 "font-size:9px;font-family:'Arial';">
	<!ENTITY st20 "font-size:6px;font-family:'MS-PGothic','MS PGothic';adobe-font-script:japanese;">
	<!ENTITY st21 "font-size:7px;font-family:'MS-PGothic','MS PGothic';adobe-font-script:japanese;">
	<!ATTLIST svg
		xmlns:ewd CDATA #FIXED "http://shcl.co.jp/ewd"
		xmlns:a CDATA #FIXED "http://ns.adobe.com/AdobeSVGViewerExtensions/3.0/"
		ewd:ver CDATA #IMPLIED
	>
	<!ATTLIST a
		ewd:lineID CDATA #IMPLIED
		ewd:groupID CDATA #IMPLIED
		ewd:figtype CDATA #IMPLIED
		ewd:code CDATA #IMPLIED
		ewd:figID CDATA #IMPLIED
		ewd:pinNo CDATA #IMPLIED
		ewd:comment CDATA #IMPLIED >
	<!ATTLIST g
		ewd:lineID CDATA #IMPLIED
		ewd:groupID CDATA #IMPLIED
		ewd:figtype CDATA #IMPLIED
		ewd:code CDATA #IMPLIED
		ewd:figID CDATA #IMPLIED
		ewd:pinNo CDATA #IMPLIED
		ewd:comment CDATA #IMPLIED >
	<!ATTLIST text
		ewd:textID CDATA #IMPLIED >
	<!ATTLIST title
		ewd:textID CDATA #IMPLIED >
]>
<!-- Generator: Shintec Hozumi YS   -->
<svg onload="call_execInitLoadProc_svg('system')" style="overflow:visible;  enable-background:new 0 0 1518.924 710.000" viewBox="0 0 1518.924 710.000" height="710.000" width="1518.924" xml:space="preserve" ewd:ver="2.3.1.16" xmlns="&ns_svg;" xmlns:a="http://ns.adobe.com/AdobeSVGViewerExtensions/3.0/" xmlns:ewd="http://shcl.co.jp/ewd" xmlns:xlink="&ns_xlink;">
<path style="stroke-width: 1.42 ;&st7;  " d=" M  1385.27,   171.76  L  1376.77,   171.76  " /><path style="stroke-width: 1.42 ;&st7;  " d=" M  1147.31,   460.71  L  1138.81,   460.71  " /><path style="stroke-width: 1.42 ;&st7;  " d=" M  1385.27,   460.71  L  1376.77,   460.71  " /><path style="stroke-width: 1.42 ;&st7;  " d=" M  1368.27,   273.74  L  1376.77,   273.74  " /><path style="stroke-width: 1.42 ;&st7;  " d=" M  1249.29,   333.23  L  1257.79,   333.23  " /><path style="stroke-width: 1.42 ;&st7;  " d=" M  1266.29,   511.70  L  1257.79,   511.70  " /><path style="stroke-width: 1.42 ;&st7;  " d=" M  1317.28,   214.25  L  1317.28,   218.50  " /><path style="stroke-width: 1.42 ;&st7;  " d=" M  1317.28,   571.19  L  1317.28,   575.44  " /><path style="stroke-width: 1.42 ;&st7;  " d=" M  1487.25,   460.71  L  1478.75,   460.71  " /><path style="stroke-width: 1.42 ;&st7;  " d=" M  1189.80,   273.74  L  1198.30,   273.74  " /><path style="stroke-width: 1.42 ;&st7;  " d=" M  1249.29,   273.74  L  1257.79,   273.74  " /><path style="stroke-width: 1.42 ;&st7;  " d=" M  1470.25,   273.74  L  1478.75,   273.74  " /><path style="stroke-width: 1.42 ;&st7;  " d=" M  1206.80,   511.70  L  1198.30,   511.70  " /><path style="stroke-width: 1.42 ;&st7;  " d=" M  1266.29,   460.71  L  1257.79,   460.71  " /><text style="&st18;" transform="matrix(&st17;  1373.07  148.96 )">W</text><text style="&st18;" transform="matrix(&st17;  1135.11  487.97 )">B</text><text style="&st18;" transform="matrix(&st16;  1060.06  185.06 )">B</text><text style="&st18;" transform="matrix(&st16;  1009.07  185.06 )">B</text><text style="&st18;" transform="matrix(&st16;  1008.13  125.57 )">W</text><text style="&st18;" transform="matrix(&st16;  1276.77  592.99 )">B</text><text style="&st18;" transform="matrix(&st17;  1373.07  199.95 )">W</text><text style="&st18;" transform="matrix(&st17;  1135.11  436.98 )">B</text><text style="&st18;" transform="matrix(&st16;  1392.96  578.82 )">(*1)</text><text style="&st18;" transform="matrix(&st16;  1346.22  578.82 )">(*9)</text><text style="&st18;" transform="matrix(&st16;  1346.22  221.88 )">(*9)</text><text style="&st18;" transform="matrix(&st16;  1392.96  221.88 )">(*1)</text><text style="&st18;" transform="matrix(&st16;  1273.98  196.39 )">(*5)</text><text style="&st18;" transform="matrix(&st16;  1276.77  185.06 )">B</text><text style="&st18;" transform="matrix(&st16;  1059.13  125.57 )">W</text><text style="&st18;" transform="matrix(&st17;  1307.92  550.25 )">(*7)</text><text style="&st18;" transform="matrix(&st17;  1296.59  547.46 )">B</text><text style="&st18;" transform="matrix(&st17;  1307.92  244.3 )">(*7)</text><text style="&st18;" transform="matrix(&st17;  1296.59  242.44 )">W</text><text style="&st18;" transform="matrix(&st17;  1486.39  495.01 )">(*1)</text><text style="&st18;" transform="matrix(&st17;  1486.39  439.77 )">(*1)</text><text style="&st18;" transform="matrix(&st17;  1486.39  316.54 )">(*1)</text><text style="&st18;" transform="matrix(&st17;  1486.39  244.3 )">(*1)</text><text style="&st18;" transform="matrix(&st17;  1265.43  550.25 )">(*6)</text><text style="&st18;" transform="matrix(&st17;  1265.43  495.01 )">(*8)</text><text style="&st18;" transform="matrix(&st17;  1265.43  439.77 )">(*8)</text><text style="&st18;" transform="matrix(&st17;  1265.43  367.53 )">(*8)</text><text style="&st18;" transform="matrix(&st16;  1273.98  604.32 )">(*5)</text><text style="&st18;" transform="matrix(&st17;  1265.43  316.54 )">(*8)</text><text style="&st18;" transform="matrix(&st17;  1265.43  244.3 )">(*6)</text><text style="&st18;" transform="matrix(&st17;  1205.94  546.0 )">(*6)</text><text style="&st18;" transform="matrix(&st17;  1205.94  439.77 )">(*1)</text><text style="&st18;" transform="matrix(&st17;  1205.94  367.53 )">(*1)</text><text style="&st18;" transform="matrix(&st17;  1205.94  244.3 )">(*6)</text><text style="&st18;" transform="matrix(&st16;  1273.98  578.82 )">(*6)</text><text style="&st18;" transform="matrix(&st16;  1273.98  221.88 )">(*6)</text><text style="&st18;" transform="matrix(&st17;  1254.09  547.46 )">B</text><text style="&st18;" transform="matrix(&st17;  1254.09  314.68 )">W</text><text style="&st18;" transform="matrix(&st16;  1395.75  567.49 )">B</text><text style="&st18;" transform="matrix(&st16;  1275.84  210.55 )">W</text><text style="&st18;" transform="matrix(&st16;  1394.82  210.55 )">W</text><text style="&st18;" transform="matrix(&st16;  1348.08  210.55 )">W</text><text style="&st18;" transform="matrix(&st16;  1349.01  567.49 )">B</text><text style="&st18;" transform="matrix(&st16;  1276.77  567.49 )">B</text><text style="&st18;" transform="matrix(&st17;  1475.06  492.22 )">B</text><text style="&st18;" transform="matrix(&st17;  1373.07  492.22 )">B</text><text style="&st18;" transform="matrix(&st17;  1254.09  492.22 )">B</text><text style="&st18;" transform="matrix(&st17;  1194.6  543.21 )">B</text><text style="&st18;" transform="matrix(&st17;  1475.06  439.62 )">L-B</text><text style="&st18;" transform="matrix(&st17;  1373.07  436.98 )">B</text><text style="&st18;" transform="matrix(&st17;  1254.09  436.98 )">B</text><text style="&st18;" transform="matrix(&st17;  1194.6  439.62 )">L-B</text><text style="&st18;" transform="matrix(&st17;  1475.06  317.32 )">L-W</text><text style="&st18;" transform="matrix(&st17;  1373.07  314.68 )">W</text><text style="&st18;" transform="matrix(&st17;  1254.09  365.67 )">W</text><text style="&st18;" transform="matrix(&st17;  1194.6  368.31 )">L-W</text><text style="&st18;" transform="matrix(&st17;  1475.06  242.44 )">W</text><text style="&st18;" transform="matrix(&st17;  1373.07  242.44 )">W</text><text style="&st18;" transform="matrix(&st17;  1254.09  242.44 )">W</text><text style="&st18;" transform="matrix(&st17;  1194.6  242.44 )">W</text><text style="&st18;" transform="matrix(&st16;  1349.01  609.99 )">B</text><path style="stroke-width: 1.42 ;&st7;  " d=" M  1254.26,   205.75  L  1249.29,   210.72  " /><path style="stroke-width: 1.42 ;&st7;  " d=" M  1261.32,   222.75  L  1266.29,   217.78  " /><path style="stroke-width: 1.42 ;&st7;  " d=" M  1249.29,   217.78  L  1254.26,   222.75  " /><path style="stroke-width: 1.42 ;&st7;  " d=" M  1266.29,   210.72  L  1261.32,   205.75  " /><path style="stroke-width: 1.42 ;&st7;  " d=" M  1385.27,   210.72  L  1380.30,   205.75  " /><path style="stroke-width: 1.42 ;&st7;  " d=" M  1368.27,   217.78  L  1373.24,   222.75  " /><path style="stroke-width: 1.42 ;&st7;  " d=" M  1380.30,   222.75  L  1385.27,   217.78  " /><path style="stroke-width: 1.42 ;&st7;  " d=" M  1373.24,   205.75  L  1368.27,   210.72  " /><path style="stroke-width: 1.42 ;&st7;  " d=" M  1385.27,   567.66  L  1380.30,   562.69  " /><path style="stroke-width: 1.42 ;&st7;  " d=" M  1368.27,   574.72  L  1373.24,   579.69  " /><path style="stroke-width: 1.42 ;&st7;  " d=" M  1380.30,   579.69  L  1385.27,   574.72  " /><path style="stroke-width: 1.42 ;&st7;  " d=" M  1373.24,   562.69  L  1368.27,   567.66  " /><path style="stroke-width: 1.42 ;&st7;  " d=" M  1266.29,   567.66  L  1261.32,   562.69  " /><path style="stroke-width: 1.42 ;&st7;  " d=" M  1249.29,   574.72  L  1254.26,   579.69  " /><path style="stroke-width: 1.42 ;&st7;  " d=" M  1261.32,   579.69  L  1266.29,   574.72  " /><path style="stroke-width: 1.42 ;&st7;  " d=" M  1254.26,   562.69  L  1249.29,   567.66  " /><path style="stroke-width: 1.42 ;&st7;  " d=" M  1419.26,   214.25  L  1419.26,   218.50  " /><path style="stroke-width: 1.42 ;&st7;  " d=" M  1419.26,   571.19  L  1419.26,   575.44  " /><g ewd:figtype="conn" ewd:figID="2" ewd:code="O3"><path style="stroke-width: 1.42 ;&st7;  " d=" M  1372.52,   404.05  L  1381.02,   404.05  " /><path style="stroke-width: 1.42 ;&st7;  " d=" M  1372.52,   400.09  L  1372.52,   404.05  " /><path style="stroke-width: 1.42 ;&st7;  " d=" M  1381.02,   404.05  L  1381.02,   400.09  " /><path style="stroke-width: 1.42 ;&st7;  " d=" M  1372.52,   381.39  L  1381.02,   381.39  " /><path style="stroke-width: 1.42 ;&st7;  " d=" M  1372.52,   385.35  L  1372.52,   381.39  " /><path style="stroke-width: 1.42 ;&st7;  " d=" M  1381.02,   381.39  L  1381.02,   385.35  " /><path style="stroke-width: 1.42 ;&st7;   " d=" M  1368.27,   392.72  C  1368.27    397.41   1372.08    401.22   1376.77    401.22  " /><path style="stroke-width: 1.42 ;&st7;   " d=" M  1376.77,   401.22  C  1381.46    401.22   1385.27    397.41   1385.27    392.72  " /><path style="stroke-width: 1.42 ;&st7;   " d=" M  1385.27,   392.72  C  1385.27    388.03   1381.46    384.22   1376.77    384.22  " /><path style="stroke-width: 1.42 ;&st7;   " d=" M  1376.77,   384.22  C  1372.08    384.22   1368.27    388.03   1368.27    392.72  " /><text style="&st18;" transform="matrix(&st16;  1374.04  394.69 )">M</text><text style="&st18;" transform="matrix(&st16;  1370.43  412.24 )">2</text><text style="&st18;" transform="matrix(&st16;  1370.43  377.7 )">1</text><g ewd:figtype="title"><text style="&st18;" transform="matrix(&st17;  1393.16  404.12 )">O3</text><text style="&st18;" transform="matrix(&st17;  1399.99  404.12 )" ewd:textID="20">Front Door <tspan x="0 " dy="6.0">Lock Actuator </tspan><tspan x="0 " dy="6.0">Assembly RH</tspan></text></g></g><g ewd:figtype="conn" ewd:figID="5" ewd:code="Q2"><path style="stroke-width: 1.42 ;&st7;  " d=" M  1474.50,   404.05  L  1483.00,   404.05  " /><path style="stroke-width: 1.42 ;&st7;  " d=" M  1474.50,   400.09  L  1474.50,   404.05  " /><path style="stroke-width: 1.42 ;&st7;  " d=" M  1483.00,   404.05  L  1483.00,   400.09  " /><path style="stroke-width: 1.42 ;&st7;  " d=" M  1474.50,   381.39  L  1483.00,   381.39  " /><path style="stroke-width: 1.42 ;&st7;  " d=" M  1474.50,   385.35  L  1474.50,   381.39  " /><path style="stroke-width: 1.42 ;&st7;  " d=" M  1483.00,   381.39  L  1483.00,   385.35  " /><path style="stroke-width: 1.42 ;&st7;   " d=" M  1470.25,   392.72  C  1470.25    397.41   1474.06    401.22   1478.75    401.22  " /><path style="stroke-width: 1.42 ;&st7;   " d=" M  1478.75,   401.22  C  1483.45    401.22   1487.25    397.41   1487.25    392.72  " /><path style="stroke-width: 1.42 ;&st7;   " d=" M  1487.25,   392.72  C  1487.25    388.03   1483.45    384.22   1478.75    384.22  " /><path style="stroke-width: 1.42 ;&st7;   " d=" M  1478.75,   384.22  C  1474.06    384.22   1470.25    388.03   1470.25    392.72  " /><text style="&st18;" transform="matrix(&st16;  1476.02  394.69 )">M</text><text style="&st18;" transform="matrix(&st16;  1472.41  412.24 )">2</text><text style="&st18;" transform="matrix(&st16;  1472.41  377.7 )">1</text><g ewd:figtype="title"><text style="&st18;" transform="matrix(&st17;  1501.97  404.12 )" ewd:textID="26">Rear Door <tspan x="0 " dy="6.0">Lock Actuator </tspan><tspan x="0 " dy="6.0">Assembly LH</tspan></text><text style="&st18;" transform="matrix(&st17;  1495.15  404.12 )">Q2</text></g></g><g ewd:figtype="conn" ewd:figID="7" ewd:code="R2"><path style="stroke-width: 1.42 ;&st7;  " d=" M  1194.05,   404.05  L  1202.55,   404.05  " /><path style="stroke-width: 1.42 ;&st7;  " d=" M  1194.05,   400.09  L  1194.05,   404.05  " /><path style="stroke-width: 1.42 ;&st7;  " d=" M  1202.55,   404.05  L  1202.55,   400.09  " /><path style="stroke-width: 1.42 ;&st7;  " d=" M  1194.05,   381.39  L  1202.55,   381.39  " /><path style="stroke-width: 1.42 ;&st7;  " d=" M  1194.05,   385.35  L  1194.05,   381.39  " /><path style="stroke-width: 1.42 ;&st7;  " d=" M  1202.55,   381.39  L  1202.55,   385.35  " /><path style="stroke-width: 1.42 ;&st7;   " d=" M  1189.80,   392.72  C  1189.80    397.41   1193.61    401.22   1198.30    401.22  " /><path style="stroke-width: 1.42 ;&st7;   " d=" M  1198.30,   401.22  C  1202.99    401.22   1206.80    397.41   1206.80    392.72  " /><path style="stroke-width: 1.42 ;&st7;   " d=" M  1206.80,   392.72  C  1206.80    388.03   1202.99    384.22   1198.30    384.22  " /><path style="stroke-width: 1.42 ;&st7;   " d=" M  1198.30,   384.22  C  1193.61    384.22   1189.80    388.03   1189.80    392.72  " /><text style="&st18;" transform="matrix(&st16;  1195.57  394.69 )">M</text><text style="&st18;" transform="matrix(&st16;  1191.96  412.24 )">2</text><text style="&st18;" transform="matrix(&st16;  1191.96  377.7 )">1</text><g ewd:figtype="title"><text style="&st18;" transform="matrix(&st17;  1221.52  404.12 )" ewd:textID="27">Rear Door <tspan x="0 " dy="6.0">Lock Actuator </tspan><tspan x="0 " dy="6.0">Assembly RH</tspan></text><text style="&st18;" transform="matrix(&st17;  1214.69  404.12 )">R2</text></g></g><g ewd:figtype="conn" ewd:figID="10" ewd:code="b1"><path style="stroke-width: 1.42 ;&st7;  " d=" M  1253.54,   404.05  L  1262.04,   404.05  " /><path style="stroke-width: 1.42 ;&st7;  " d=" M  1253.54,   400.09  L  1253.54,   404.05  " /><path style="stroke-width: 1.42 ;&st7;  " d=" M  1262.04,   404.05  L  1262.04,   400.09  " /><path style="stroke-width: 1.42 ;&st7;  " d=" M  1253.54,   381.39  L  1262.04,   381.39  " /><path style="stroke-width: 1.42 ;&st7;  " d=" M  1253.54,   385.35  L  1253.54,   381.39  " /><path style="stroke-width: 1.42 ;&st7;  " d=" M  1262.04,   381.39  L  1262.04,   385.35  " /><path style="stroke-width: 1.42 ;&st7;   " d=" M  1249.29,   392.72  C  1249.29    397.41   1253.10    401.22   1257.79    401.22  " /><path style="stroke-width: 1.42 ;&st7;   " d=" M  1257.79,   401.22  C  1262.48    401.22   1266.29    397.41   1266.29    392.72  " /><path style="stroke-width: 1.42 ;&st7;   " d=" M  1266.29,   392.72  C  1266.29    388.03   1262.48    384.22   1257.79    384.22  " /><path style="stroke-width: 1.42 ;&st7;   " d=" M  1257.79,   384.22  C  1253.10    384.22   1249.29    388.03   1249.29    392.72  " /><text style="&st18;" transform="matrix(&st16;  1255.06  394.69 )">M</text><text style="&st18;" transform="matrix(&st16;  1251.45  412.24 )">2</text><text style="&st18;" transform="matrix(&st16;  1251.45  377.7 )">1</text><g ewd:figtype="title"><text style="&st18;" transform="matrix(&st17;  1274.18  404.12 )">b1</text><text style="&st18;" transform="matrix(&st17;  1281.01  404.12 )" ewd:textID="14">Back Door <tspan x="0 " dy="6.0">Lock Assembly</tspan></text></g></g><g ewd:figtype="w2w" ewd:figID="19" ewd:code="PI3"><path style="stroke-width: 1.42 ;&st7;  " d=" M  1143.06,   466.37  L  1138.81,   462.12  L  1134.56,   466.37  " /><path style="stroke-width: 1.42 ;&st7;  " d=" M  1143.06,   469.77  L  1138.81,   465.52  L  1134.56,   469.77  " /><text style="&st18;" transform="matrix(&st16;  1122.06  458.43 )">11</text></g><g ewd:figtype="w2w" ewd:figID="20" ewd:code="RS1"><path style="stroke-width: 1.42 ;&st7;  " d=" M  1202.55,   520.77  L  1198.30,   516.52  L  1194.05,   520.77  " /><path style="stroke-width: 1.42 ;&st7;  " d=" M  1202.55,   517.37  L  1198.30,   513.12  L  1194.05,   517.37  " /><text style="&st18;" transform="matrix(&st16;  1184.88  509.42 )">2</text></g><g ewd:figtype="w2w" ewd:figID="21" ewd:code="RS1"><path style="stroke-width: 1.42 ;&st7;  " d=" M  1194.05,   264.67  L  1198.30,   268.92  L  1202.55,   264.67  " /><path style="stroke-width: 1.42 ;&st7;  " d=" M  1202.55,   268.07  L  1198.30,   272.32  L  1194.05,   268.07  " /><text style="&st18;" transform="matrix(&st16;  1184.88  279.96 )">1</text></g><g ewd:figtype="w2w" ewd:figID="22" ewd:code="TS1"><path style="stroke-width: 1.42 ;&st7;  " d=" M  1262.04,   517.37  L  1257.79,   513.12  L  1253.54,   517.37  " /><path style="stroke-width: 1.42 ;&st7;  " d=" M  1262.04,   520.77  L  1257.79,   516.52  L  1253.54,   520.77  " /><text style="&st18;" transform="matrix(&st16;  1244.37  509.42 )">2</text></g><g ewd:figtype="w2w" ewd:figID="23" ewd:code="bT2"><path style="stroke-width: 1.42 ;&st7;  " d=" M  1262.04,   469.77  L  1257.79,   465.52  L  1253.54,   469.77  " /><path style="stroke-width: 1.42 ;&st7;  " d=" M  1262.04,   466.37  L  1257.79,   462.12  L  1253.54,   466.37  " /><text style="&st18;" transform="matrix(&st16;  1244.37  458.43 )">1</text></g><g ewd:figtype="w2w" ewd:figID="24" ewd:code="bT2"><path style="stroke-width: 1.42 ;&st7;  " d=" M  1262.04,   327.56  L  1257.79,   331.81  L  1253.54,   327.56  " /><path style="stroke-width: 1.42 ;&st7;  " d=" M  1253.54,   324.16  L  1257.79,   328.41  L  1262.04,   324.16  " /><text style="&st18;" transform="matrix(&st16;  1244.37  339.45 )">3</text></g><g ewd:figtype="w2w" ewd:figID="25" ewd:code="TS1"><path style="stroke-width: 1.42 ;&st7;  " d=" M  1253.54,   264.67  L  1257.79,   268.92  L  1262.04,   264.67  " /><path style="stroke-width: 1.42 ;&st7;  " d=" M  1262.04,   268.07  L  1257.79,   272.32  L  1253.54,   268.07  " /><text style="&st18;" transform="matrix(&st16;  1244.37  279.96 )">1</text></g><g ewd:figtype="w2w" ewd:figID="26" ewd:code="IS3"><path style="stroke-width: 1.42 ;&st7;  " d=" M  1308.21,   566.94  L  1312.46,   571.19  L  1308.21,   575.44  " /><path style="stroke-width: 1.42 ;&st7;  " d=" M  1311.61,   566.94  L  1315.86,   571.19  L  1311.61,   575.44  " /><text style="&st18;" transform="matrix(&st16;  1322.23  563.95 )">14</text></g><g ewd:figtype="w2w" ewd:figID="27" ewd:code="IS3"><path style="stroke-width: 1.42 ;&st7;  " d=" M  1308.21,   210.00  L  1312.46,   214.25  L  1308.21,   218.50  " /><path style="stroke-width: 1.42 ;&st7;  " d=" M  1311.61,   210.00  L  1315.86,   214.25  L  1311.61,   218.50  " /><text style="&st18;" transform="matrix(&st16;  1322.23  207.01 )">15</text></g><g ewd:figtype="w2w" ewd:figID="28" ewd:code="OI4"><path style="stroke-width: 1.42 ;&st7;  " d=" M  1381.02,   466.37  L  1376.77,   462.12  L  1372.52,   466.37  " /><path style="stroke-width: 1.42 ;&st7;  " d=" M  1381.02,   469.77  L  1376.77,   465.52  L  1372.52,   469.77  " /><text style="&st18;" transform="matrix(&st16;  1363.35  458.43 )">7</text></g><g ewd:figtype="w2w" ewd:figID="29" ewd:code="OI4"><path style="stroke-width: 1.42 ;&st7;  " d=" M  1381.02,   268.07  L  1376.77,   272.32  L  1372.52,   268.07  " /><path style="stroke-width: 1.42 ;&st7;  " d=" M  1372.52,   264.67  L  1376.77,   268.92  L  1381.02,   264.67  " /><text style="&st18;" transform="matrix(&st16;  1363.35  279.96 )">6</text></g><g ewd:figtype="w2w" ewd:figID="30" ewd:code="PI3"><path style="stroke-width: 1.42 ;&st7;  " d=" M  1381.02,   177.42  L  1376.77,   173.17  L  1372.52,   177.42  " /><path style="stroke-width: 1.42 ;&st7;  " d=" M  1381.02,   180.82  L  1376.77,   176.57  L  1372.52,   180.82  " /><text style="&st18;" transform="matrix(&st16;  1360.02  169.48 )">10</text></g><g ewd:code="UI4" ewd:figID="31" ewd:comment="10" ewd:figtype="w2w"><text style="&st18;" transform="matrix(&st16;  1425.88  563.95 )">1</text><path style="stroke-width: 1.42 ;&st7;  " d=" M  1413.60,   566.94  L  1417.85,   571.19  L  1413.60,   575.44  " /><path style="stroke-width: 1.42 ;&st7;  " d=" M  1410.20,   566.94  L  1414.45,   571.19  L  1410.20,   575.44  " /><g ewd:code="" ewd:figID="70" ewd:comment="10" ewd:figtype="commref"><text style="&st18;" transform="matrix(&st16;  1421.04  582.37 )">(*10)</text></g></g><g ewd:code="UI4" ewd:figID="32" ewd:comment="10" ewd:figtype="w2w"><text style="&st18;" transform="matrix(&st16;  1425.88  207.01 )">6</text><path style="stroke-width: 1.42 ;&st7;  " d=" M  1413.60,   210.00  L  1417.85,   214.25  L  1413.60,   218.50  " /><path style="stroke-width: 1.42 ;&st7;  " d=" M  1410.20,   210.00  L  1414.45,   214.25  L  1410.20,   218.50  " /><g ewd:code="" ewd:figID="68" ewd:comment="10" ewd:figtype="commref"><text style="&st18;" transform="matrix(&st16;  1421.04  225.43 )">(*10)</text></g></g><g ewd:code="UI5" ewd:figID="33" ewd:comment="11" ewd:figtype="w2w"><text style="&st18;" transform="matrix(&st16;  1442.88  563.95 )">4</text><g ewd:code="" ewd:figID="71" ewd:comment="11" ewd:figtype="commref"><text style="&st18;" transform="matrix(&st16;  1438.03  582.37 )">(*11)</text></g></g><g ewd:code="UI5" ewd:figID="34" ewd:comment="11" ewd:figtype="w2w"><text style="&st18;" transform="matrix(&st16;  1441.21  207.01 )">10</text><g ewd:code="" ewd:figID="69" ewd:comment="11" ewd:figtype="commref"><text style="&st18;" transform="matrix(&st16;  1438.03  225.43 )">(*11)</text></g></g><g ewd:figtype="w2w" ewd:figID="35" ewd:code="QU1"><path style="stroke-width: 1.42 ;&st7;  " d=" M  1483.00,   466.37  L  1478.75,   462.12  L  1474.50,   466.37  " /><path style="stroke-width: 1.42 ;&st7;  " d=" M  1483.00,   469.77  L  1478.75,   465.52  L  1474.50,   469.77  " /><text style="&st18;" transform="matrix(&st16;  1465.34  458.43 )">2</text></g><g ewd:figtype="w2w" ewd:figID="36" ewd:code="QU1"><path style="stroke-width: 1.42 ;&st7;  " d=" M  1474.50,   264.67  L  1478.75,   268.92  L  1483.00,   264.67  " /><path style="stroke-width: 1.42 ;&st7;  " d=" M  1483.00,   268.07  L  1478.75,   272.32  L  1474.50,   268.07  " /><text style="&st18;" transform="matrix(&st16;  1465.34  279.96 )">1</text></g><g ewd:code="9" ewd:figID="62" ewd:comment="" ewd:figtype="comment"><text style="&st18;" transform="matrix(&st16;  1364.87  80.24 )" ewd:textID="9">* 9 :Except 2-Door Pick-Up Body Type</text></g><g ewd:code="5" ewd:figID="61" ewd:comment="" ewd:figtype="comment"><text style="&st18;" transform="matrix(&st16;  1364.87  46.25 )" ewd:textID="5">* 5 :4-Door Pick-Up Body Type</text></g><g ewd:code="7" ewd:figID="59" ewd:comment="" ewd:figtype="comment"><text style="&st18;" transform="matrix(&st16;  1364.87  63.24 )" ewd:textID="7">* 7 :2-Door Except Pick-Up Body Type</text></g><g ewd:code="1" ewd:figID="63" ewd:comment="" ewd:figtype="comment"><text style="&st18;" transform="matrix(&st16;  1364.87  37.75 )" ewd:textID="1">* 1 :4-Door</text></g><g ewd:code="8" ewd:figID="58" ewd:comment="" ewd:figtype="comment"><text style="&st18;" transform="matrix(&st16;  1364.87  71.74 )" ewd:textID="8">* 8 :Except Pick-Up Body Type</text></g><g ewd:code="6" ewd:figID="60" ewd:comment="" ewd:figtype="comment"><text style="&st18;" transform="matrix(&st16;  1364.87  54.75 )" ewd:textID="6">* 6 :4-Door Except Pick-Up Body Type</text></g><g ewd:code="10" ewd:figID="72" ewd:comment="" ewd:figtype="comment"><text style="&st18;" transform="matrix(&st16;  1364.87  88.74 )" ewd:textID="10">*10 :Before Jan. 2017 Production</text></g><g ewd:code="11" ewd:figID="73" ewd:comment="" ewd:figtype="comment"><text style="&st18;" transform="matrix(&st16;  1364.87  97.24 )" ewd:textID="11">*11 :From Jan. 2017 Production</text></g></svg>