<?xml version="1.0" encoding="utf-8"?>
<!DOCTYPE svg PUBLIC "-//W3C//DTD SVG 1.0//EN" "http://www.w3.org/TR/2001/REC-SVG-20010904/DTD/svg10.dtd"[
	<!ENTITY ns_flows "http://ns.adobe.com/Flows/1.0/">
	<!ENTITY ns_svg "http://www.w3.org/2000/svg">
	<!ENTITY ns_xlink "http://www.w3.org/1999/xlink">
	<!ENTITY st0 "font-size:7px;font-family:'MS-PGothic';adobe-font-script:japanese;">
	<!ENTITY st1 "font-size:6px;font-family:'ArialMT';">
	<!-- White fill  -->
	<!ENTITY st2 "fill:#FFFFFF;stroke:#000000; stroke-width:1.41;stroke-linecap:round;stroke-linejoin:round;">
	<!-- Yellow fill  -->
	<!ENTITY st3 "fill:#FFFFCC;stroke:#FFFFCC; stroke-width:0.1;stroke-linecap:round;stroke-linejoin:round;">
	<!-- Gray fill  -->
	<!ENTITY st4 "fill:#CCCCCC;stroke:#CCCCCC; stroke-width:0.1;stroke-linecap:round;stroke-linejoin:round;">
	<!-- Light-blue fill -->
	<!ENTITY st5 "fill:#CCECF4;stroke:#000000; stroke-width:1.133;stroke-linecap:round;stroke-linejoin:round;">
	<!ENTITY st6 "fill:none;stroke-linecap:butt; stroke-linejoin:round;">
	<!ENTITY st7 "fill:none;stroke:#000000;stroke-linecap:round;stroke-linejoin:round;">
	<!ENTITY st8 "enable-background:new    ;">
	<!-- Black fill -->
	<!ENTITY st9 "fill:#000000;stroke:#000000; stroke-linecap:round;stroke-linejoin:round;">
	<!-- SRS note   -->
	<!ENTITY st10 "font-size:9px;font-family:'ArialMT';">
	<!ENTITY st11 "font-size:9px;font-family:'Svg Symbol';">
	<!ENTITY st12 "font-size:6px;font-family:'Svg Symbol';">
	<!ENTITY st13 "fill:none;stroke:#ff0000;stroke-linecap:round;stroke-linejoin:round;">
	<!-- Yellow fill  -->
	<!ENTITY st14 "fill:#FFFF00;stroke:#FFFF00; stroke-width:0.1;stroke-linecap:round;stroke-linejoin:round;">
	<!ENTITY st15 "font-size:6px;font-family:'MS-PGothic';adobe-font-script:japanese;">
	<!ENTITY st16 "1.00 0.00 0.00 1.00">
	<!ENTITY st17 "0.00 -1.00 1.00 0.00">
	<!ENTITY st18 "font-size:6px;font-family:'Arial';">
	<!ENTITY st19 "font-size:9px;font-family:'Arial';">
	<!ENTITY st20 "font-size:6px;font-family:'MS-PGothic','MS PGothic';adobe-font-script:japanese;">
	<!ENTITY st21 "font-size:7px;font-family:'MS-PGothic','MS PGothic';adobe-font-script:japanese;">
	<!ATTLIST svg
		xmlns:ewd CDATA #FIXED "http://shcl.co.jp/ewd"
		xmlns:a CDATA #FIXED "http://ns.adobe.com/AdobeSVGViewerExtensions/3.0/"
		ewd:ver CDATA #IMPLIED
	>
	<!ATTLIST a
		ewd:lineID CDATA #IMPLIED
		ewd:groupID CDATA #IMPLIED
		ewd:figtype CDATA #IMPLIED
		ewd:code CDATA #IMPLIED
		ewd:figID CDATA #IMPLIED
		ewd:pinNo CDATA #IMPLIED
		ewd:comment CDATA #IMPLIED >
	<!ATTLIST g
		ewd:lineID CDATA #IMPLIED
		ewd:groupID CDATA #IMPLIED
		ewd:figtype CDATA #IMPLIED
		ewd:code CDATA #IMPLIED
		ewd:figID CDATA #IMPLIED
		ewd:pinNo CDATA #IMPLIED
		ewd:comment CDATA #IMPLIED >
	<!ATTLIST text
		ewd:textID CDATA #IMPLIED >
	<!ATTLIST title
		ewd:textID CDATA #IMPLIED >
]>
<!-- Generator: Shintec Hozumi YS   -->
<svg onload="call_execInitLoadProc_svg('system')" style="overflow:visible;  enable-background:new 0 0 4119.787 710.000" viewBox="0 0 4119.787 710.000" height="710.000" width="4119.787" xml:space="preserve" ewd:ver="2.3.1.16" xmlns="&ns_svg;" xmlns:a="http://ns.adobe.com/AdobeSVGViewerExtensions/3.0/" xmlns:ewd="http://shcl.co.jp/ewd" xmlns:xlink="&ns_xlink;">
<text style="&st18;" transform="matrix(&st16;  2605.14  168.06 )">B(*9,*21)</text><text style="&st18;" transform="matrix(&st16;  2554.15  168.06 )">B(*9,*21)</text><path style="stroke-width: 0.85 ;&st7; stroke-dasharray:3, 1.5;" d=" M  2762.35,   150.51  L  2731.98,   150.51  " /><text style="&st18;" transform="matrix(&st17;  2919.82  547.46 )">P</text><text style="&st18;" transform="matrix(&st17;  2953.81  547.46 )">V</text><text style="&st18;" transform="matrix(&st17;  2965.14  551.92 )">(*15)</text><text style="&st18;" transform="matrix(&st17;  2931.15  551.92 )">(*15)</text><text style="&st18;" transform="matrix(&st17;  2715.85  105.53 )">B</text><text style="&st18;" transform="matrix(&st17;  2761.18  237.47 )">(*12)</text><text style="&st18;" transform="matrix(&st17;  2749.84  233.32 )">G</text><text style="&st18;" transform="matrix(&st16;  2608.51  660.98 )">G(*11)</text><text style="&st18;" transform="matrix(&st16;  2600.33  536.33 )">(LHD *1 *22)</text><text style="&st18;" transform="matrix(&st16;  2608.82  185.06 )">V(*15)</text><path style="stroke-width: 0.85 ;&st7; stroke-dasharray:3, 1.5;" d=" M  2762.35,   142.01  L  2731.98,   142.01  " /><text style="&st18;" transform="matrix(&st17;  2775.34  233.32 )">G</text><text style="&st18;" transform="matrix(&st17;  2786.67  237.47 )">(*11)</text><path style="stroke-width: 1.42 ;&st7;  " d=" M  2770.54,   137.76  L  2779.04,   137.76  " /><text style="&st18;" transform="matrix(&st17;  2786.67  108.33 )">(*9)</text><text style="&st18;" transform="matrix(&st17;  2775.34  105.84 )">G</text><text style="&st18;" transform="matrix(&st17;  2727.18  113.68 )">(*9,*21)</text><path style="stroke-width: 1.42 ;&st7;  " d=" M  2711.05,   137.76  L  2719.55,   137.76  " /><text style="&st18;" transform="matrix(&st16;  2557.83  185.06 )">V(*15)</text><text style="&st18;" transform="matrix(&st16;  2608.82  202.05 )">P(*15)</text><text style="&st18;" transform="matrix(&st16;  2557.83  202.05 )">P(*15)</text><text style="&st18;" transform="matrix(&st16;  2600.52  491.01 )">W(RHD *21)</text><text style="&st18;" transform="matrix(&st16;  2549.53  491.01 )">W(RHD *21)</text><text style="&st18;" transform="matrix(&st16;  2601.45  508.0 )">B(RHD *21)</text><text style="&st18;" transform="matrix(&st16;  2550.46  508.0 )">B(RHD *21)</text><text style="&st18;" transform="matrix(&st16;  2603.12  609.99 )">B(RHD *1)</text><text style="&st18;" transform="matrix(&st16;  2552.13  609.99 )">B(RHD *1)</text><text style="&st18;" transform="matrix(&st16;  2602.19  626.98 )">W(RHD *1)</text><text style="&st18;" transform="matrix(&st16;  2551.2  626.98 )">W(RHD *1)</text><text style="&st18;" transform="matrix(&st16;  2557.52  643.98 )">G(*12)</text><text style="&st18;" transform="matrix(&st16;  2608.51  643.98 )">G(*12)</text><text style="&st18;" transform="matrix(&st16;  2557.52  660.98 )">G(*11)</text><text style="&st18;" transform="matrix(&st16;  2599.98  677.97 )">B(LHD *1 *9)</text><text style="&st18;" transform="matrix(&st16;  2548.99  677.97 )">B(LHD *1 *9)</text><text style="&st18;" transform="matrix(&st16;  2599.01  694.97 )">W(LHD *1 *9)</text><text style="&st18;" transform="matrix(&st16;  2548.02  694.97 )">W(LHD *1 *9)</text><text style="&st18;" transform="matrix(&st16;  2615.3  525.0 )">B</text><text style="&st18;" transform="matrix(&st16;  2564.31  525.0 )">B</text><text style="&st18;" transform="matrix(&st16;  2549.34  536.33 )">(LHD *1 *22)</text><text style="&st18;" transform="matrix(&st16;  2614.37  575.99 )">W</text><text style="&st18;" transform="matrix(&st16;  2563.37  575.99 )">W</text><text style="&st18;" transform="matrix(&st16;  2600.33  587.32 )">(LHD *1 *22)</text><text style="&st18;" transform="matrix(&st16;  2549.34  587.32 )">(LHD *1 *22)</text><path style="stroke-width: 1.42 ;&st7;  " d=" M  2830.03,   545.69  L  2838.53,   545.69  " /><path style="stroke-width: 1.42 ;&st7;  " d=" M  2872.52,   545.69  L  2881.02,   545.69  " /><text style="&st18;" transform="matrix(&st16;  2602.0  440.01 )">B(LHD *21)</text><text style="&st18;" transform="matrix(&st16;  2550.04  423.02 )">W(LHD *21)</text><text style="&st18;" transform="matrix(&st16;  2601.03  423.02 )">W(LHD *21)</text><text style="&st18;" transform="matrix(&st16;  2551.01  440.01 )">B(LHD *21)</text><text style="&st18;" transform="matrix(&st17;  2511.88  395.42 )">W</text><text style="&st18;" transform="matrix(&st17;  2523.22  398.95 )">(*40)</text><text style="&st18;" transform="matrix(&st17;  2511.88  301.93 )">W</text><text style="&st18;" transform="matrix(&st17;  2523.22  305.46 )">(*40)</text><text style="&st18;" transform="matrix(&st17;  2506.22  160.98 )">(*40)</text><text style="&st18;" transform="matrix(&st16;  2608.82  457.01 )">B(*40)</text><text style="&st18;" transform="matrix(&st16;  2607.89  406.02 )">W(*40)</text><text style="&st18;" transform="matrix(&st16;  2556.9  406.02 )">W(*40)</text><text style="&st18;" transform="matrix(&st16;  2557.83  457.01 )">B(*40)</text><g ewd:figtype="conn" ewd:figID="20" ewd:code="I130"><g ewd:lineID="90"><text style="&st18;" transform="matrix(&st16;  2505.91  281.93 )">17</text><text style="&st18;" transform="matrix(&st16;  2507.85  270.04 )">CA4L</text></g><g ewd:figtype="title"><text style="&st18;" transform="matrix(&st17;  2547.29  276.65 )" ewd:textID="34">Network <tspan x="0 " dy="6.0">Gateway ECU</tspan></text><text style="&st18;" transform="matrix(&st17;  2540.47  276.64 )">I130</text></g></g><g ewd:figtype="conn" ewd:figID="23" ewd:code="A20,A42,A45"><path style="stroke-width: 0.85 ;&st7; stroke-dasharray:3, 1.5;" d=" M  2728.04,    57.31  L  2762.04,    57.31  " /><path style="stroke-width: 1.42 ;&st7;  " d=" M  2702.55,    27.28  L  2702.55,    52.78  L  3407.93,    52.78  L  3407.93,    27.28  L  2702.55,    27.28  " /><g ewd:comment="21" ewd:lineID="92"><text style="&st18;" transform="matrix(&st16;  2706.73  59.28 )">32</text><text style="&st18;" transform="matrix(&st16;  2706.73  68.34 )">24</text><path style="stroke-width: 1.42 ;&st7;   " d=" M  2724.08,    66.37  C  2724.08     63.87   2722.05     61.84   2719.55     61.84  " /><path style="stroke-width: 1.42 ;&st7;   " d=" M  2719.55,    61.84  C  2717.04     61.84   2715.01     63.87   2715.01     66.37  " /><path style="stroke-width: 1.42 ;&st7;   " d=" M  2715.01,    66.37  C  2715.01     68.88   2717.04     70.91   2719.55     70.91  " /><path style="stroke-width: 1.42 ;&st7;   " d=" M  2719.55,    70.91  C  2722.05     70.91   2724.08     68.88   2724.08     66.37  " /><text style="&st18;" transform="matrix(&st16;  2717.28  59.28 )">A</text><path style="stroke-width: 1.42 ;&st7;   " d=" M  2724.08,    57.31  C  2724.08     54.81   2722.05     52.78   2719.55     52.78  " /><path style="stroke-width: 1.42 ;&st7;   " d=" M  2719.55,    52.78  C  2717.04     52.78   2715.01     54.81   2715.01     57.31  " /><path style="stroke-width: 1.42 ;&st7;   " d=" M  2715.01,    57.31  C  2715.01     59.81   2717.04     61.84   2719.55     61.84  " /><path style="stroke-width: 1.42 ;&st7;   " d=" M  2719.55,    61.84  C  2722.05     61.84   2724.08     59.81   2724.08     57.31  " /><text style="&st18;" transform="matrix(&st16;  2717.28  68.34 )">B</text><text style="&st18;" transform="matrix(&st16;  2715.46  49.08 )">TS</text><g ewd:code="" ewd:figID="115" ewd:comment="21" ewd:figtype="commref"><text style="&st18;" transform="matrix(&st16;  2724.64  68.34 )">(*21)</text></g></g><g ewd:lineID="93"><text style="&st18;" transform="matrix(&st16;  2766.22  59.28 )">30</text><path style="stroke-width: 1.42 ;&st7;   " d=" M  2783.57,    57.31  C  2783.57     54.81   2781.54     52.78   2779.04     52.78  " /><path style="stroke-width: 1.42 ;&st7;   " d=" M  2779.04,    52.78  C  2776.53     52.78   2774.50     54.81   2774.50     57.31  " /><path style="stroke-width: 1.42 ;&st7;   " d=" M  2774.50,    57.31  C  2774.50     59.81   2776.53     61.84   2779.04     61.84  " /><path style="stroke-width: 1.42 ;&st7;   " d=" M  2779.04,    61.84  C  2781.54     61.84   2783.57     59.81   2783.57     57.31  " /><text style="&st18;" transform="matrix(&st16;  2776.77  59.28 )">A</text><text style="&st18;" transform="matrix(&st16;  2774.75  49.08 )">TC</text></g><g ewd:figtype="title"><text style="&st18;" transform="matrix(&st16;  2699.14  23.58 )" ewd:textID="31">Brake Actuator Assembly</text><text style="&st18;" transform="matrix(&st16;  2699.14  16.76 )">A20(A),A42(B),A45(C)</text></g></g><g ewd:figtype="conn" ewd:figID="24" ewd:code="I77,I78,I83"><path style="stroke-width: 0.85 ;&st7;  " d=" M  3271.95,   605.18  L  3271.95,   613.68  " /><path style="stroke-width: 0.85 ;&st7;  " d=" M  3390.93,   622.18  L  3390.93,   605.18  " /><path style="stroke-width: 0.85 ;&st7;  " d=" M  3484.42,   605.18  L  3484.42,   613.68  L  2957.50,   613.68  L  2957.50,   605.18  " /><path style="stroke-width: 1.42 ;&st7;  " d=" M  2915.01,   605.18  L  2915.01,   630.68  L  3526.91,   630.68  L  3526.91,   605.18  L  2915.01,   605.18  " /><path style="stroke-width: 0.85 ;&st7;  " d=" M  3389.74,   621.18  L  3389.47,   621.65  L  3389.37,   622.18  L  3389.47,   622.71  L  3389.74,   623.18  L  3390.15,   623.53  L  3390.66,   623.72  L  3391.20,   623.72  L  3391.71,   623.53  L  3392.12,   623.18  L  3392.40,   622.71  L  3392.49,   622.18  L  3392.40,   621.65  L  3392.12,   621.18  L  3391.71,   620.83  L  3391.20,   620.65  L  3390.66,   620.65  L  3390.15,   620.83  L  3389.74,   621.18  L  3390.13,   621.89  L  3390.13,   622.47  L  3390.51,   622.92  L  3391.08,   623.02  L  3391.58,   622.73  L  3391.78,   622.18  L  3391.58,   621.63  L  3391.08,   621.35  L  3390.51,   621.44  L  3390.93,   622.18  " /><path style="stroke-width: 0.85 ;&st7;  " d=" M  3270.76,   612.68  L  3270.49,   613.15  L  3270.39,   613.68  L  3270.49,   614.22  L  3270.76,   614.69  L  3271.17,   615.03  L  3271.68,   615.22  L  3272.22,   615.22  L  3272.73,   615.03  L  3273.14,   614.69  L  3273.42,   614.22  L  3273.51,   613.68  L  3273.42,   613.15  L  3273.14,   612.68  L  3272.73,   612.33  L  3272.22,   612.15  L  3271.68,   612.15  L  3271.17,   612.33  L  3270.76,   612.68  L  3271.15,   613.39  L  3271.15,   613.97  L  3271.53,   614.42  L  3272.10,   614.52  L  3272.60,   614.23  L  3272.80,   613.68  L  3272.60,   613.14  L  3272.10,   612.85  L  3271.53,   612.95  L  3271.95,   613.68  " /><path style="stroke-width: 0.85 ;&st7;  " d=" M  2923.51,   605.18  L  2923.51,   622.18  L  3518.41,   622.18  L  3518.41,   605.18  " /><text style="&st18;" transform="matrix(&st16;  3262.47  602.62 )">2</text><path style="stroke-width: 1.42 ;&st7;   " d=" M  3276.49,   600.65  C  3276.49    598.15   3274.46    596.12   3271.95    596.12  " /><path style="stroke-width: 1.42 ;&st7;   " d=" M  3271.95,   596.12  C  3269.45    596.12   3267.42    598.15   3267.42    600.65  " /><path style="stroke-width: 1.42 ;&st7;   " d=" M  3267.42,   600.65  C  3267.42    603.15   3269.45    605.18   3271.95    605.18  " /><path style="stroke-width: 1.42 ;&st7;   " d=" M  3271.95,   605.18  C  3274.46    605.18   3276.49    603.15   3276.49    600.65  " /><text style="&st18;" transform="matrix(&st16;  3269.69  602.62 )">A</text><text style="&st18;" transform="matrix(&st16;  3381.45  602.62 )">1</text><text style="&st18;" transform="matrix(&st16;  3388.67  602.62 )">A</text><path style="stroke-width: 1.42 ;&st7;   " d=" M  3395.47,   600.65  C  3395.47    598.15   3393.44    596.12   3390.93    596.12  " /><path style="stroke-width: 1.42 ;&st7;   " d=" M  3390.93,   596.12  C  3388.43    596.12   3386.40    598.15   3386.40    600.65  " /><path style="stroke-width: 1.42 ;&st7;   " d=" M  3386.40,   600.65  C  3386.40    603.15   3388.43    605.18   3390.93    605.18  " /><path style="stroke-width: 1.42 ;&st7;   " d=" M  3390.93,   605.18  C  3393.44    605.18   3395.47    603.15   3395.47    600.65  " /><text style="&st18;" transform="matrix(&st16;  3474.94  602.62 )">2</text><path style="stroke-width: 1.42 ;&st7;   " d=" M  3488.95,   600.65  C  3488.95    598.15   3486.92    596.12   3484.42    596.12  " /><path style="stroke-width: 1.42 ;&st7;   " d=" M  3484.42,   596.12  C  3481.91    596.12   3479.89    598.15   3479.89    600.65  " /><path style="stroke-width: 1.42 ;&st7;   " d=" M  3479.89,   600.65  C  3479.89    603.15   3481.91    605.18   3484.42    605.18  " /><path style="stroke-width: 1.42 ;&st7;   " d=" M  3484.42,   605.18  C  3486.92    605.18   3488.95    603.15   3488.95    600.65  " /><text style="&st18;" transform="matrix(&st16;  3482.0  602.62 )">D</text><text style="&st18;" transform="matrix(&st16;  3508.93  602.62 )">1</text><path style="stroke-width: 1.42 ;&st7;   " d=" M  3522.94,   600.65  C  3522.94    598.15   3520.92    596.12   3518.41    596.12  " /><path style="stroke-width: 1.42 ;&st7;   " d=" M  3518.41,   596.12  C  3515.91    596.12   3513.88    598.15   3513.88    600.65  " /><path style="stroke-width: 1.42 ;&st7;   " d=" M  3513.88,   600.65  C  3513.88    603.15   3515.91    605.18   3518.41    605.18  " /><path style="stroke-width: 1.42 ;&st7;   " d=" M  3518.41,   605.18  C  3520.92    605.18   3522.94    603.15   3522.94    600.65  " /><text style="&st18;" transform="matrix(&st16;  3515.99  602.62 )">D</text><text style="&st18;" transform="matrix(&st16;  2914.03  602.62 )">1</text><text style="&st18;" transform="matrix(&st16;  2921.25  602.62 )">B</text><path style="stroke-width: 1.42 ;&st7;   " d=" M  2928.04,   600.65  C  2928.04    598.15   2926.01    596.12   2923.51    596.12  " /><path style="stroke-width: 1.42 ;&st7;   " d=" M  2923.51,   596.12  C  2921.01    596.12   2918.98    598.15   2918.98    600.65  " /><path style="stroke-width: 1.42 ;&st7;   " d=" M  2918.98,   600.65  C  2918.98    603.15   2921.01    605.18   2923.51    605.18  " /><path style="stroke-width: 1.42 ;&st7;   " d=" M  2923.51,   605.18  C  2926.01    605.18   2928.04    603.15   2928.04    600.65  " /><text style="&st18;" transform="matrix(&st16;  2948.03  602.62 )">2</text><text style="&st18;" transform="matrix(&st16;  2955.24  602.62 )">B</text><path style="stroke-width: 1.42 ;&st7;   " d=" M  2962.04,   600.65  C  2962.04    598.15   2960.01    596.12   2957.51    596.12  " /><path style="stroke-width: 1.42 ;&st7;   " d=" M  2957.51,   596.12  C  2955.00    596.12   2952.97    598.15   2952.97    600.65  " /><path style="stroke-width: 1.42 ;&st7;   " d=" M  2952.97,   600.65  C  2952.97    603.15   2955.00    605.18   2957.51    605.18  " /><path style="stroke-width: 1.42 ;&st7;   " d=" M  2957.51,   605.18  C  2960.01    605.18   2962.04    603.15   2962.04    600.65  " /><g ewd:figtype="title"><text style="&st18;" transform="matrix(&st16;  2911.61  645.4 )" ewd:textID="35">No. 1 CAN Junction Connector</text><text style="&st18;" transform="matrix(&st16;  2911.6  638.57 )">I77(A),I78(B),I83(D)</text></g></g><g ewd:figtype="w2w" ewd:figID="56" ewd:code="IA4"><text style="&st18;" transform="matrix(&st16;  2706.13  152.48 )">1</text></g><g ewd:figtype="w2w" ewd:figID="57" ewd:code="IA2"><text style="&st18;" transform="matrix(&st16;  2706.13  143.98 )">1</text><path style="stroke-width: 1.42 ;&st7;  " d=" M  2723.79,   132.10  L  2719.54,   136.35  L  2715.30,   132.10  " /><path style="stroke-width: 1.42 ;&st7;  " d=" M  2715.30,   128.70  L  2719.54,   132.95  L  2723.79,   128.70  " /></g><g ewd:figtype="w2w" ewd:figID="58" ewd:code="IA4"><text style="&st18;" transform="matrix(&st16;  2765.62  152.48 )">5</text></g><g ewd:figtype="w2w" ewd:figID="59" ewd:code="IA2"><path style="stroke-width: 1.42 ;&st7;  " d=" M  2774.79,   128.70  L  2779.03,   132.95  L  2783.28,   128.70  " /><path style="stroke-width: 1.42 ;&st7;  " d=" M  2783.28,   132.10  L  2779.03,   136.35  L  2774.79,   132.10  " /><text style="&st18;" transform="matrix(&st16;  2765.62  143.98 )">5</text></g><g ewd:figtype="w2w" ewd:figID="60" ewd:code="AI3"><path style="stroke-width: 1.42 ;&st7;  " d=" M  2834.28,   536.63  L  2838.52,   540.88  L  2842.77,   536.63  " /><path style="stroke-width: 1.42 ;&st7;  " d=" M  2842.77,   540.03  L  2838.52,   544.28  L  2834.28,   540.03  " /><text style="&st18;" transform="matrix(&st16;  2821.77  551.91 )">57</text></g><g ewd:figtype="w2w" ewd:figID="61" ewd:code="AI3"><path style="stroke-width: 1.42 ;&st7;  " d=" M  2876.77,   536.63  L  2881.02,   540.88  L  2885.27,   536.63  " /><path style="stroke-width: 1.42 ;&st7;  " d=" M  2885.27,   540.03  L  2881.02,   544.28  L  2876.77,   540.03  "/><text style="&st18;" transform="matrix(&st16;  2864.27  551.91 )">58</text></g><g ewd:code="" ewd:figID="110" ewd:comment="2" ewd:figtype="commref"><text style="&st18;" transform="matrix(&st16;  2788.07  152.48 )">(*2)</text></g><g ewd:code="" ewd:figID="111" ewd:comment="1,3" ewd:figtype="commref"><text style="&st18;" transform="matrix(&st16;  2788.07  143.98 )">(*1,*3)</text></g><g ewd:code="" ewd:figID="127" ewd:comment="9" ewd:figtype="commref"><text style="&st18;" transform="matrix(&st16;  2784.13  59.28 )">(*9)</text></g><g ewd:code="15" ewd:figID="138" ewd:comment="" ewd:figtype="comment"><text style="&st18;" transform="matrix(&st16;  2869.11  122.73 )" ewd:textID="8">*15 :1GR-FE w/o VSC, 1VD-FTV w/o VSC, 1HZ w/ ABS</text></g><g ewd:code="1" ewd:figID="100" ewd:comment="" ewd:figtype="comment"><text style="&st18;" transform="matrix(&st16;  2869.11  71.74 )">* 1 :1GR-FE</text></g><g ewd:code="2" ewd:figID="102" ewd:comment="" ewd:figtype="comment"><text style="&st18;" transform="matrix(&st16;  2869.11  80.24 )">* 2 :1HZ</text></g><g ewd:code="9" ewd:figID="101" ewd:comment="" ewd:figtype="comment"><text style="&st18;" transform="matrix(&st16;  2869.11  97.24 )" ewd:textID="2">* 9 :w/ ABS w/o VSC</text></g><g ewd:code="3" ewd:figID="103" ewd:comment="" ewd:figtype="comment"><text style="&st18;" transform="matrix(&st16;  2869.11  88.74 )">* 3 :1VD-FTV</text></g><g ewd:code="12" ewd:figID="174" ewd:comment="" ewd:figtype="comment"><text style="&st18;" transform="matrix(&st16;  2869.11  114.24 )" ewd:textID="5">*12 :w/o SRS w/ ABS</text></g><g ewd:code="11" ewd:figID="173" ewd:comment="" ewd:figtype="comment"><text style="&st18;" transform="matrix(&st16;  2869.11  105.74 )" ewd:textID="4">*11 :w/ SRS w/ ABS</text></g><g ewd:code="21" ewd:figID="129" ewd:comment="" ewd:figtype="comment"><text style="&st18;" transform="matrix(&st16;  2869.11  131.23 )" ewd:textID="13">*21 :w/ VSC</text></g><g ewd:code="22" ewd:figID="130" ewd:comment="" ewd:figtype="comment"><text style="&st18;" transform="matrix(&st16;  2869.11  139.73 )" ewd:textID="14">*22 :w/o ABS</text></g><g ewd:code="40" ewd:figID="90" ewd:comment="" ewd:figtype="comment"><text style="&st18;" transform="matrix(&st16;  2869.11  148.23 )" ewd:textID="27">*40 :w/ Network Gateway ECU</text></g></svg>
