<?xml version="1.0" encoding="UTF-8"?>
<!DOCTYPE svg PUBLIC "-//W3C//DTD SVG 1.0//EN" "http://www.w3.org/TR/2001/REC-SVG-20010904/DTD/svg10.dtd"[
	<!ENTITY ns_flows "http://ns.adobe.com/Flows/1.0/">
	<!ENTITY ns_svg "http://www.w3.org/2000/svg">
	<!ENTITY ns_xlink "http://www.w3.org/1999/xlink">
	<!ENTITY st0 "font-size:7px;font-family:'MS-PGothic';adobe-font-script:japanese;">
	<!ENTITY st1 "font-size:6px;font-family:'ArialMT';">
	<!-- White fill  -->
	<!ENTITY st2 "fill:#FFFFFF;stroke:#000000; stroke-width:1.41;stroke-linecap:round;stroke-linejoin:round;">
	<!-- Yellow fill  -->
	<!ENTITY st3 "fill:#FFFFCC;stroke:#FFFFCC; stroke-width:0.1;stroke-linecap:round;stroke-linejoin:round;">
	<!-- Gray fill  -->
	<!ENTITY st4 "fill:#CCCCCC;stroke:#CCCCCC; stroke-width:0.1;stroke-linecap:round;stroke-linejoin:round;">
	<!-- Light-blue fill -->
	<!ENTITY st5 "fill:#CCECF4;stroke:#000000; stroke-width:1.133;stroke-linecap:round;stroke-linejoin:round;">
	<!ENTITY st6 "fill:none;stroke-linecap:butt; stroke-linejoin:round;">
	<!ENTITY st7 "fill:none;stroke:#000000;stroke-linecap:round;stroke-linejoin:round;">
	<!ENTITY st8 "enable-background:new    ;">
	<!-- Black fill -->
	<!ENTITY st9 "fill:#000000;stroke:#000000; stroke-linecap:round;stroke-linejoin:round;">
	<!-- SRS note   -->
	<!ENTITY st10 "font-size:9px;font-family:'ArialMT';">
	<!ENTITY st11 "font-size:9px;font-family:'Svg Symbol';">
	<!ENTITY st12 "font-size:6px;font-family:'Svg Symbol';">
	<!ENTITY st13 "fill:none;stroke:#ff0000;stroke-linecap:round;stroke-linejoin:round;">
	<!-- Yellow fill  -->
	<!ENTITY st14 "fill:#FFFF00;stroke:#FFFF00; stroke-width:0.1;stroke-linecap:round;stroke-linejoin:round;">
	<!ENTITY st15 "font-size:6px;font-family:'MS-PGothic';adobe-font-script:japanese;">
	<!ENTITY st16 "1.00 0.00 0.00 1.00">
	<!ENTITY st17 "0.00 -1.00 1.00 0.00">
	<!ENTITY st18 "font-size:6px;font-family:'Arial';">
	<!ENTITY st19 "font-size:9px;font-family:'Arial';">
	<!ENTITY st20 "font-size:6px;font-family:'MS-PGothic','MS PGothic';adobe-font-script:japanese;">
	<!ENTITY st21 "font-size:7px;font-family:'MS-PGothic','MS PGothic';adobe-font-script:japanese;">
	<!ATTLIST svg
		xmlns:ewd CDATA #FIXED "http://shcl.co.jp/ewd"
		xmlns:a CDATA #FIXED "http://ns.adobe.com/AdobeSVGViewerExtensions/3.0/"
		ewd:ver CDATA #IMPLIED
	>
	<!ATTLIST a
		ewd:lineID CDATA #IMPLIED
		ewd:groupID CDATA #IMPLIED
		ewd:figtype CDATA #IMPLIED
		ewd:code CDATA #IMPLIED
		ewd:figID CDATA #IMPLIED
		ewd:pinNo CDATA #IMPLIED
		ewd:comment CDATA #IMPLIED >
	<!ATTLIST g
		ewd:lineID CDATA #IMPLIED
		ewd:groupID CDATA #IMPLIED
		ewd:figtype CDATA #IMPLIED
		ewd:code CDATA #IMPLIED
		ewd:figID CDATA #IMPLIED
		ewd:pinNo CDATA #IMPLIED
		ewd:comment CDATA #IMPLIED >
	<!ATTLIST text
		ewd:textID CDATA #IMPLIED >
	<!ATTLIST title
		ewd:textID CDATA #IMPLIED >
]>
<!-- Generator: Shintec Hozumi YS   -->
<svg onload="call_execInitLoadProc_svg('system')" style="overflow:visible;  enable-background:new 0 0 305.589 710.000" viewBox="0 0 305.589 710.000" height="710.000" width="305.589" xml:space="preserve" ewd:ver="2.3.1.16" xmlns="&ns_svg;" xmlns:a="http://ns.adobe.com/AdobeSVGViewerExtensions/3.0/" xmlns:ewd="http://shcl.co.jp/ewd" xmlns:xlink="&ns_xlink;">
	<script type="text/javascript" xlink:href="../../../../../system/js/ewd/fig/svgfig.js"/>
<g id="ewd_top">
	<a ewd:figtype="rb" style="cursor:pointer;" ewd:code="FUSE2" ewd:figID="1">
		<path style="fill:#CCECF4;stroke:#000000; stroke-width:0; stroke-linecap:round;stroke-linejoin:round; " d=" M   250.71,    35.78  L   250.71,    78.27  L   276.20,    78.27  L   276.20,    35.78  L   250.71,    35.78 "/>
	</a>
	<a ewd:figtype="conn" style="cursor:pointer;" ewd:code="I125" ewd:figID="2">
		<path style="fill:#CCECF4;stroke:#000000; stroke-width:1.133; stroke-linecap:round;stroke-linejoin:round; " d=" M   246.46,   307.73  L   280.45,   307.73  L   280.45,   273.74  L   246.46,   273.74  L   246.46,   307.73 "/>
		<title>DLC3</title>
	</a>
	<a ewd:figtype="fuse" style="cursor:pointer;" ewd:code="FUSE2" ewd:figID="6">
		<path style="&st7; stroke-width:0;" d=" M   250.71,    35.78  L   250.71,    78.27  L   276.20,    78.27  L   276.20,    35.78  L   250.71,    35.78 "/>
	</a>
	<a style="cursor:pointer;" ewd:lineID="1">
		<path style="stroke:#000000;stroke-width: 5.10 ;&st6;" d=" M   263.46,   503.20  L   263.46,   681.67  "/>
		<path style="stroke:#FFFFFF;stroke-width: 4.53 ;&st6;" d=" M   263.46,   503.20  L   263.46,   681.67  "/>
		<path style="stroke:#000000;stroke-width: 1.13 ;&st6;" d=" M   263.46,   503.20  L   263.46,   681.67  "/>
	</a>
	<a style="cursor:pointer;" ewd:lineID="2">
		<path style="stroke:#000000;stroke-width: 5.10 ;&st6;" d=" M   263.46,   486.20  L   263.46,   307.73  "/>
		<path style="stroke:#FFFFFF;stroke-width: 4.53 ;&st6;" d=" M   263.46,   486.20  L   263.46,   307.73  "/>
		<path style="stroke:#000000;stroke-width: 1.13 ;&st6;" d=" M   263.46,   486.20  L   263.46,   307.73  "/>
	</a>
	<a style="cursor:pointer;" ewd:lineID="3">
		<path style="stroke:#56077D;stroke-width: 5.10 ;&st6;" d=" M   263.46,   103.77  L   263.46,   273.74  "/>
	</a>
	<g ewd:figtype="rb" ewd:figID="1" ewd:code="FUSE2">
		<text style="&st18;" transform="matrix(&st16;  255.37  32.08 )">(BAT)</text>
		<text style="&st18;" transform="matrix(&st16;  257.12  86.47 )">2</text>
		<text style="&st18;" transform="matrix(&st16;  261.58  101.49 )">2</text>
		<text style="&st18;" transform="matrix(&st16;  279.88  56.17 )">7.5A <tspan x="0 " dy="6.0">OBD2</tspan></text>
		<path style="stroke-width: 0.28 ;&st9;  " d=" M   263.46,    90.37  L   260.62,    87.54  L   260.62,    91.79  L   263.46,    94.62  L   266.29,    91.79  L   266.29,    87.54  L   263.46,    90.37  "/>
		<path style="stroke-width: 1.42 ;&st7;   " d=" M   269.83,    99.52  C   269.83     97.17    267.93     95.27    265.58     95.27  "/>
		<path style="stroke-width: 1.42 ;&st7;   " d=" M   265.58,   103.77  C   267.93    103.77    269.83    101.87    269.83     99.52  "/>
		<path style="stroke-width: 1.42 ;&st7;   " d=" M   257.08,    99.52  C   257.08    101.87    258.98    103.77    261.33    103.77  "/>
		<path style="stroke-width: 1.42 ;&st7;   " d=" M   261.33,    95.27  C   258.98     95.27    257.08     97.17    257.08     99.52  "/>
		<path style="stroke-width: 0.85 ;&st7;  " d=" M   263.46,    78.27  L   263.46,    95.27  "/>
		<path style="stroke-width: 1.42 ;&st7;  " d=" M   265.58,   103.77  L   261.33,   103.77  "/>
		<path style="stroke-width: 1.42 ;&st7;  " d=" M   265.58,    95.27  L   261.33,    95.27  "/>
		<path style="stroke-width: 0.85 ;&st7;  " d=" M   263.46,    69.77  L   263.46,    78.27  "/>
		<path style="stroke-width: 1.42 ;&st7;  " d=" M   250.71,    35.78  L   250.71,    78.27  L   276.20,    78.27  L   276.20,    35.78  L   250.71,    35.78  "/>
		<path style="stroke-width: 0.85 ;&st7;   " d=" M   264.87,    68.36  C   264.87     67.57    264.24     66.94    263.46     66.94  "/>
		<path style="stroke-width: 0.85 ;&st7;   " d=" M   263.46,    66.94  C   262.67     66.94    262.04     67.57    262.04     68.36  "/>
		<path style="stroke-width: 0.85 ;&st7;   " d=" M   262.04,    68.36  C   262.04     69.14    262.67     69.77    263.46     69.77  "/>
		<path style="stroke-width: 0.85 ;&st7;   " d=" M   263.46,    69.77  C   264.24     69.77    264.87     69.14    264.87     68.36  "/>
		<path style="stroke-width: 0.85 ;&st7;   " d=" M   264.87,    45.69  C   264.87     44.91    264.24     44.28    263.46     44.28  "/>
		<path style="stroke-width: 0.85 ;&st7;   " d=" M   263.46,    44.28  C   262.67     44.28    262.04     44.91    262.04     45.69  "/>
		<path style="stroke-width: 0.85 ;&st7;   " d=" M   262.04,    45.69  C   262.04     46.48    262.67     47.11    263.46     47.11  "/>
		<path style="stroke-width: 0.85 ;&st7;   " d=" M   263.46,    47.11  C   264.24     47.11    264.87     46.48    264.87     45.69  "/>
		<path style="stroke-width: 1.42 ;&st7;   " d=" M   263.46,    66.94  C   266.19     65.33    267.11     61.80    265.49     59.06  "/>
		<path style="stroke-width: 1.42 ;&st7;   " d=" M   265.49,    59.06  C   264.97     58.18    264.34     57.55    263.46     57.03  "/>
		<path style="stroke-width: 1.42 ;&st7;   " d=" M   263.46,    47.11  C   260.72     48.72    259.81     52.25    261.42     54.99  "/>
		<path style="stroke-width: 1.42 ;&st7;   " d=" M   261.42,    54.99  C   261.94     55.87    262.57     56.51    263.46     57.03  "/>
	</g>
	<g ewd:figtype="conn" ewd:figID="2" ewd:code="I125">
		<g ewd:lineID="2">
			<text style="&st18;" transform="matrix(&st16;  257.12  315.93 )">4</text>
			<text style="&st18;" transform="matrix(&st16;  258.71  304.04 )">CG</text>
		</g>
		<g ewd:lineID="3">
			<text style="&st18;" transform="matrix(&st16;  253.78  270.05 )">16</text>
			<text style="&st18;" transform="matrix(&st16;  257.35  281.37 )">BAT</text>
		</g>
		<path style="stroke-width: 1.42 ;&st7;  " d=" M   246.46,   307.73  L   280.45,   307.73  L   280.45,   273.74  L   246.46,   273.74  L   246.46,   307.73  "/>
		<g ewd:figtype="title">
			<text style="&st18;" transform="matrix(&st17;  295.17  310.64 )">DLC3</text>
			<text style="&st18;" transform="matrix(&st17;  288.35  310.63 )">I125</text>
		</g>
	</g>
	<g ewd:figtype="gp" ewd:figID="4" ewd:code="IA">
		<path style="stroke-width: 0.85 ;&st7;  " d=" M   262.04,   710.00  L   264.87,   710.00  "/>
		<path style="stroke-width: 0.85 ;&st7;  " d=" M   260.62,   707.17  L   266.29,   707.17  "/>
		<path style="stroke-width: 0.85 ;&st7;  " d=" M   259.21,   704.33  L   267.71,   704.33  "/>
		<path style="stroke-width: 0.85 ;&st7;  " d=" M   254.96,   701.50  L   271.95,   701.50  "/>
		<path style="stroke-width: 0.85 ;&st7;  " d=" M   263.46,   697.25  L   263.46,   701.50  "/>
	</g>
	<path style="stroke-width: 1.42 ;&st7;  " d=" M   259.93,   486.20  L   254.96,   491.18  "/>
	<path style="stroke-width: 1.42 ;&st7;  " d=" M   266.98,   503.20  L   271.95,   498.23  "/>
	<path style="stroke-width: 1.42 ;&st7;  " d=" M   254.96,   498.23  L   259.93,   503.20  "/>
	<path style="stroke-width: 1.42 ;&st7;  " d=" M   271.95,   491.18  L   266.98,   486.20  "/>
	<text style="&st18;" transform="matrix(&st17;  259.76  602.41 )">W-B</text>
	<text style="&st18;" transform="matrix(&st17;  259.76  432.44 )">W-B</text>
	<text style="&st18;" transform="matrix(&st17;  259.76  224.51 )">V</text>
	<a ewd:figtype="gp" style="cursor:pointer;" ewd:code="IA" ewd:figID="4">
		<path style="&st2;" d=" M   252.83,   681.67  L   274.08,   681.67  L   263.46,   697.25  L   252.83,   681.67 "/>
		<text style="&st8;" transform="matrix(&st16;  260.71  689.46 )"><tspan x="0" style="&st18;" y="0">IA</tspan></text>
	</a>
	<a ewd:figtype="sp" style="cursor:pointer;" ewd:code="SP65" ewd:figID="5">
		<path style="&st2;" d=" M   259.21,   486.20  L   267.71,   486.20  L   271.95,   490.45  L   271.95,   498.95  L   267.71,   503.20  L   259.21,   503.20  L   254.96,   498.95  L   254.96,   490.45  L   259.21,   486.20 "/>
	</a>
</g>
</svg>