<?xml version="1.0" encoding="utf-8"?>
<!DOCTYPE svg PUBLIC "-//W3C//DTD SVG 1.0//EN" "http://www.w3.org/TR/2001/REC-SVG-20010904/DTD/svg10.dtd"[
	<!ENTITY ns_flows "http://ns.adobe.com/Flows/1.0/">
	<!ENTITY ns_svg "http://www.w3.org/2000/svg">
	<!ENTITY ns_xlink "http://www.w3.org/1999/xlink">
	<!ENTITY st0 "font-size:7px;font-family:'MS-PGothic';adobe-font-script:japanese;">
	<!ENTITY st1 "font-size:6px;font-family:'ArialMT';">
	<!-- White fill  -->
	<!ENTITY st2 "fill:#FFFFFF;stroke:#000000; stroke-width:1.41;stroke-linecap:round;stroke-linejoin:round;">
	<!-- Yellow fill  -->
	<!ENTITY st3 "fill:#FFFFCC;stroke:#FFFFCC; stroke-width:0.1;stroke-linecap:round;stroke-linejoin:round;">
	<!-- Gray fill  -->
	<!ENTITY st4 "fill:#CCCCCC;stroke:#CCCCCC; stroke-width:0.1;stroke-linecap:round;stroke-linejoin:round;">
	<!-- Light-blue fill -->
	<!ENTITY st5 "fill:#CCECF4;stroke:#000000; stroke-width:1.133;stroke-linecap:round;stroke-linejoin:round;">
	<!ENTITY st6 "fill:none;stroke-linecap:butt; stroke-linejoin:round;">
	<!ENTITY st7 "fill:none;stroke:#000000;stroke-linecap:round;stroke-linejoin:round;">
	<!ENTITY st8 "enable-background:new    ;">
	<!-- Black fill -->
	<!ENTITY st9 "fill:#000000;stroke:#000000; stroke-linecap:round;stroke-linejoin:round;">
	<!-- SRS note   -->
	<!ENTITY st10 "font-size:9px;font-family:'ArialMT';">
	<!ENTITY st11 "font-size:9px;font-family:'Svg Symbol';">
	<!ENTITY st12 "font-size:6px;font-family:'Svg Symbol';">
	<!ENTITY st13 "fill:none;stroke:#ff0000;stroke-linecap:round;stroke-linejoin:round;">
	<!-- Yellow fill  -->
	<!ENTITY st14 "fill:#FFFF00;stroke:#FFFF00; stroke-width:0.1;stroke-linecap:round;stroke-linejoin:round;">
	<!ENTITY st15 "font-size:6px;font-family:'MS-PGothic';adobe-font-script:japanese;">
	<!ENTITY st16 "1.00 0.00 0.00 1.00">
	<!ENTITY st17 "0.00 -1.00 1.00 0.00">
	<!ENTITY st18 "font-size:6px;font-family:'Arial';">
	<!ENTITY st19 "font-size:9px;font-family:'Arial';">
	<!ENTITY st20 "font-size:6px;font-family:'MS-PGothic','MS PGothic';adobe-font-script:japanese;">
	<!ENTITY st21 "font-size:7px;font-family:'MS-PGothic','MS PGothic';adobe-font-script:japanese;">
	<!ATTLIST svg
		xmlns:ewd CDATA #FIXED "http://shcl.co.jp/ewd"
		xmlns:a CDATA #FIXED "http://ns.adobe.com/AdobeSVGViewerExtensions/3.0/"
		ewd:ver CDATA #IMPLIED
	>
	<!ATTLIST a
		ewd:lineID CDATA #IMPLIED
		ewd:groupID CDATA #IMPLIED
		ewd:figtype CDATA #IMPLIED
		ewd:code CDATA #IMPLIED
		ewd:figID CDATA #IMPLIED
		ewd:pinNo CDATA #IMPLIED
		ewd:comment CDATA #IMPLIED >
	<!ATTLIST g
		ewd:lineID CDATA #IMPLIED
		ewd:groupID CDATA #IMPLIED
		ewd:figtype CDATA #IMPLIED
		ewd:code CDATA #IMPLIED
		ewd:figID CDATA #IMPLIED
		ewd:pinNo CDATA #IMPLIED
		ewd:comment CDATA #IMPLIED >
	<!ATTLIST text
		ewd:textID CDATA #IMPLIED >
	<!ATTLIST title
		ewd:textID CDATA #IMPLIED >
]>
<!-- Generator: Shintec Hozumi YS   -->
<svg onload="call_execInitLoadProc_svg('system')" style="overflow:visible;  enable-background:new 0 0 4119.787 710.000" viewBox="0 0 4119.787 710.000" height="710.000" width="4119.787" xml:space="preserve" ewd:ver="2.3.1.16" xmlns="&ns_svg;" xmlns:a="http://ns.adobe.com/AdobeSVGViewerExtensions/3.0/" xmlns:ewd="http://shcl.co.jp/ewd" xmlns:xlink="&ns_xlink;">
<path style="stroke-width: 1.42 ;&st7;  " d=" M  3875.35,   290.74  L  3866.85,   290.74  " /><path style="stroke-width: 1.42 ;&st7;  " d=" M  3832.86,   290.74  L  3824.36,   290.74  " /><path style="stroke-width: 1.42 ;&st7;  " d=" M  3781.87,   299.24  L  3773.37,   299.24  " /><path style="stroke-width: 1.42 ;&st7;  " d=" M  3739.38,   299.24  L  3730.88,   299.24  " /><text style="&st18;" transform="matrix(&st17;  3727.18  357.17 )">W</text><text style="&st18;" transform="matrix(&st17;  3738.51  360.7 )">(*17)</text><text style="&st18;" transform="matrix(&st17;  3769.67  356.4 )">R</text><text style="&st18;" transform="matrix(&st17;  3781.01  360.7 )">(*17)</text><text style="&st18;" transform="matrix(&st17;  3832.0  360.7 )">(*16)</text><text style="&st18;" transform="matrix(&st17;  3874.49  360.7 )">(*16)</text><text style="&st18;" transform="matrix(&st17;  3820.66  356.24 )">B</text><text style="&st18;" transform="matrix(&st17;  3874.49  262.97 )">(*17)</text><text style="&st18;" transform="matrix(&st17;  3863.16  259.44 )">W</text><text style="&st18;" transform="matrix(&st17;  3832.0  262.97 )">(*17)</text><text style="&st18;" transform="matrix(&st17;  3820.66  258.51 )">B</text><text style="&st18;" transform="matrix(&st17;  3781.01  262.97 )">(*17)</text><text style="&st18;" transform="matrix(&st17;  3769.67  258.66 )">R</text><text style="&st18;" transform="matrix(&st17;  3738.51  262.97 )">(*17)</text><text style="&st18;" transform="matrix(&st17;  3727.18  259.44 )">W</text><text style="&st18;" transform="matrix(&st17;  3863.16  357.17 )">W</text><text style="&st18;" transform="matrix(&st17;  3849.0  543.76 )">(LHD *1 *9)</text><text style="&st18;" transform="matrix(&st17;  3837.66  530.46 )">B</text><text style="&st18;" transform="matrix(&st17;  3899.99  543.76 )">(LHD *1 *9)</text><text style="&st18;" transform="matrix(&st17;  3888.65  531.39 )">W</text><text style="&st18;" transform="matrix(&st17;  3514.72  509.37 )">R</text><text style="&st18;" transform="matrix(&st17;  3526.05  519.38 )">(RHD *1)</text><path style="stroke-width: 0.85 ;&st7; stroke-dasharray:3, 1.5;" d=" M  3743.31,   286.49  L  3752.43,   286.49  " /><path style="stroke-width: 0.85 ;&st7; stroke-dasharray:3, 1.5;" d=" M  3752.43,   294.99  L  3743.31,   294.99  " /><text style="&st18;" transform="matrix(&st17;  3727.18  157.46 )">W</text><text style="&st18;" transform="matrix(&st17;  3738.51  166.14 )">(LHD *9)</text><text style="&st18;" transform="matrix(&st17;  3769.67  156.68 )">R</text><text style="&st18;" transform="matrix(&st17;  3781.01  166.14 )">(LHD *9)</text><text style="&st18;" transform="matrix(&st16;  3584.85  694.97 )">W(LHD *1 *9)</text><text style="&st18;" transform="matrix(&st16;  3635.84  694.97 )">W(LHD *1 *9)</text><text style="&st18;" transform="matrix(&st16;  3585.82  677.97 )">B(LHD *1 *9)</text><text style="&st18;" transform="matrix(&st16;  3636.81  677.97 )">B(LHD *1 *9)</text><text style="&st18;" transform="matrix(&st16;  3648.02  117.07 )">W(LHD *9)</text><text style="&st18;" transform="matrix(&st16;  3580.03  117.07 )">W(LHD *9)</text><text style="&st18;" transform="matrix(&st16;  3648.8  100.07 )">R(LHD *9)</text><text style="&st18;" transform="matrix(&st16;  3580.81  100.07 )">R(LHD *9)</text><text style="&st18;" transform="matrix(&st16;  3654.15  465.51 )">B(*16)</text><text style="&st18;" transform="matrix(&st16;  3586.16  465.51 )">B(*16)</text><text style="&st18;" transform="matrix(&st16;  3653.22  482.51 )">W(*16)</text><text style="&st18;" transform="matrix(&st16;  3585.23  482.51 )">W(*16)</text><text style="&st18;" transform="matrix(&st16;  3653.22  533.5 )">W(*17)</text><text style="&st18;" transform="matrix(&st16;  3585.23  533.5 )">W(*17)</text><text style="&st18;" transform="matrix(&st16;  3653.99  567.49 )">R(*17)</text><text style="&st18;" transform="matrix(&st16;  3586.0  567.49 )">R(*17)</text><g ewd:figtype="conn" ewd:figID="4" ewd:code="A24"><path style="stroke-width: 0.85 ;&st7;  " d=" M  3772.18,   204.75  L  3771.90,   205.22  L  3771.81,   205.75  L  3771.90,   206.28  L  3772.18,   206.75  L  3772.59,   207.10  L  3773.10,   207.29  L  3773.64,   207.29  L  3774.15,   207.10  L  3774.56,   206.75  L  3774.83,   206.28  L  3774.93,   205.75  L  3774.83,   205.22  L  3774.56,   204.75  L  3774.15,   204.40  L  3773.64,   204.22  L  3773.10,   204.22  L  3772.59,   204.40  L  3772.18,   204.75  L  3772.57,   205.46  L  3772.57,   206.04  L  3772.94,   206.49  L  3773.52,   206.59  L  3774.02,   206.30  L  3774.22,   205.75  L  3774.02,   205.20  L  3773.52,   204.92  L  3772.94,   205.01  L  3773.37,   205.75  " /><path style="stroke-width: 0.85 ;&st7;  " d=" M  3729.68,   213.25  L  3729.41,   213.72  L  3729.32,   214.25  L  3729.41,   214.78  L  3729.68,   215.25  L  3730.10,   215.60  L  3730.61,   215.79  L  3731.14,   215.79  L  3731.65,   215.60  L  3732.07,   215.25  L  3732.34,   214.78  L  3732.43,   214.25  L  3732.34,   213.72  L  3732.07,   213.25  L  3731.65,   212.90  L  3731.14,   212.71  L  3730.61,   212.71  L  3730.10,   212.90  L  3729.68,   213.25  L  3730.08,   213.96  L  3730.08,   214.54  L  3730.45,   214.99  L  3731.02,   215.09  L  3731.53,   214.80  L  3731.72,   214.25  L  3731.53,   213.70  L  3731.02,   213.41  L  3730.45,   213.51  L  3730.88,   214.25  " /><path style="stroke-width: 0.85 ;&st7;  " d=" M  3730.88,   197.25  L  3730.88,   222.75  " /><path style="stroke-width: 0.85 ;&st7;  " d=" M  3773.37,   197.25  L  3773.37,   222.75  " /><path style="stroke-width: 1.42 ;&st7;  " d=" M  3722.38,   197.25  L  3722.38,   222.75  L  3875.35,   222.75  L  3875.35,   197.25  L  3722.38,   197.25  " /><path style="stroke-width: 0.85 ;&st7;  " d=" M  3773.37,   205.75  L  3824.36,   205.75  L  3824.36,   222.75  " /><path style="stroke-width: 0.85 ;&st7;  " d=" M  3730.88,   214.25  L  3866.85,   214.25  L  3866.85,   222.75  " /><text style="&st18;" transform="matrix(&st16;  3724.54  230.94 )">4</text><text style="&st18;" transform="matrix(&st16;  3724.54  193.56 )">3</text><text style="&st18;" transform="matrix(&st16;  3767.03  230.94 )">2</text><text style="&st18;" transform="matrix(&st16;  3767.03  193.56 )">1</text><text style="&st18;" transform="matrix(&st16;  3818.02  230.94 )">5</text><text style="&st18;" transform="matrix(&st16;  3860.51  230.94 )">7</text><g ewd:figtype="title"><text style="&st18;" transform="matrix(&st17;  3890.07  225.65 )" ewd:textID="37">No. 3 CAN <tspan x="0 " dy="6.0">Junction Connector</tspan></text><text style="&st18;" transform="matrix(&st17;  3883.25  225.65 )">A24</text></g></g><g ewd:figtype="w2w" ewd:figID="66" ewd:code="AI3"><path style="stroke-width: 1.42 ;&st7;  " d=" M  3735.12,   308.30  L  3730.88,   304.05  L  3726.63,   308.30  " /><path style="stroke-width: 1.42 ;&st7;  " d=" M  3735.12,   304.90  L  3730.88,   300.65  L  3726.63,   304.90  " /><text style="&st18;" transform="matrix(&st16;  3714.12  296.96 )">56</text></g><g ewd:figtype="w2w" ewd:figID="67" ewd:code="AI3"><text style="&st18;" transform="matrix(&st16;  3714.12  288.46 )">54</text></g><g ewd:figtype="w2w" ewd:figID="68" ewd:code="AI3"><path style="stroke-width: 1.42 ;&st7;  " d=" M  3777.62,   308.30  L  3773.37,   304.05  L  3769.12,   308.30  " /><path style="stroke-width: 1.42 ;&st7;  " d=" M  3777.62,   304.90  L  3773.37,   300.65  L  3769.12,   304.90  " /><text style="&st18;" transform="matrix(&st16;  3756.62  296.96 )">55</text></g><g ewd:figtype="w2w" ewd:figID="69" ewd:code="AI3"><text style="&st18;" transform="matrix(&st16;  3756.62  288.46 )">53</text></g><g ewd:figtype="w2w" ewd:figID="70" ewd:code="AI3"><path style="stroke-width: 1.42 ;&st7;  " d=" M  3828.61,   296.40  L  3824.36,   292.15  L  3820.11,   296.40  " /><path style="stroke-width: 1.42 ;&st7;  " d=" M  3828.61,   299.80  L  3824.36,   295.55  L  3820.11,   299.80  " /><text style="&st18;" transform="matrix(&st16;  3807.61  288.46 )">37</text></g><g ewd:figtype="w2w" ewd:figID="71" ewd:code="AI3"><path style="stroke-width: 1.42 ;&st7;  " d=" M  3871.10,   296.40  L  3866.85,   292.15  L  3862.60,   296.40  " /><path style="stroke-width: 1.42 ;&st7;  " d=" M  3871.10,   299.80  L  3866.85,   295.55  L  3862.60,   299.80  " /><text style="&st18;" transform="matrix(&st16;  3850.1  288.46 )">38</text></g><g ewd:code="" ewd:figID="106" ewd:comment="1" ewd:figtype="commref"><text style="&st18;" transform="matrix(&st16;  3782.4  288.46 )">(*1)</text></g><g ewd:code="" ewd:figID="107" ewd:comment="2" ewd:figtype="commref"><text style="&st18;" transform="matrix(&st16;  3782.4  296.96 )">(*2)</text></g><g ewd:code="14" ewd:figID="194" ewd:comment="" ewd:figtype="comment"><text style="&st18;" transform="matrix(&st16;  3922.94  71.74 )" ewd:textID="7">*14 :1VD-FTV w/ ABS w/o VSC, RHD 1HZ w/ ABS</text></g><g ewd:code="21" ewd:figID="201" ewd:comment="" ewd:figtype="comment"><text style="&st18;" transform="matrix(&st16;  3922.94  97.24 )" ewd:textID="13">*21 :w/ VSC</text></g><g ewd:code="17" ewd:figID="197" ewd:comment="" ewd:figtype="comment"><text style="&st18;" transform="matrix(&st16;  3922.94  88.74 )" ewd:textID="10">*17 :LHD 1GR-FE w/ ABS w/o VSC, LHD 1HZ w/ ABS</text></g><g ewd:code="9" ewd:figID="198" ewd:comment="" ewd:figtype="comment"><text style="&st18;" transform="matrix(&st16;  3922.94  63.24 )" ewd:textID="2">* 9 :w/ ABS w/o VSC</text></g><g ewd:code="3" ewd:figID="200" ewd:comment="" ewd:figtype="comment"><text style="&st18;" transform="matrix(&st16;  3922.94  54.75 )">* 3 :1VD-FTV</text></g><g ewd:code="42" ewd:figID="203" ewd:comment="" ewd:figtype="comment"><text style="&st18;" transform="matrix(&st16;  3922.94  122.73 )" ewd:textID="28">*42 :w/ VSC w/ Pre-Collision System</text></g><g ewd:code="22" ewd:figID="202" ewd:comment="" ewd:figtype="comment"><text style="&st18;" transform="matrix(&st16;  3922.94  105.74 )" ewd:textID="14">*22 :w/o ABS</text></g><g ewd:code="40" ewd:figID="204" ewd:comment="" ewd:figtype="comment"><text style="&st18;" transform="matrix(&st16;  3922.94  114.24 )" ewd:textID="27">*40 :w/ Network Gateway ECU</text></g><g ewd:code="16" ewd:figID="195" ewd:comment="" ewd:figtype="comment"><text style="&st18;" transform="matrix(&st16;  3922.94  80.24 )" ewd:textID="9">*16 :LHD 1HZ w/ ABS</text></g><g ewd:code="2" ewd:figID="199" ewd:comment="" ewd:figtype="comment"><text style="&st18;" transform="matrix(&st16;  3922.94  46.25 )">* 2 :1HZ</text></g><g ewd:code="43" ewd:figID="205" ewd:comment="" ewd:figtype="comment"><text style="&st18;" transform="matrix(&st16;  3922.94  131.23 )" ewd:textID="29">*43 :w/o Pre-Collision System</text></g><g ewd:code="1" ewd:figID="196" ewd:comment="" ewd:figtype="comment"><text style="&st18;" transform="matrix(&st16;  3922.94  37.75 )">* 1 :1GR-FE</text></g></svg>