<?xml version="1.0" encoding="utf-8"?>
<!DOCTYPE svg PUBLIC "-//W3C//DTD SVG 1.0//EN" "http://www.w3.org/TR/2001/REC-SVG-20010904/DTD/svg10.dtd"[
	<!ENTITY ns_flows "http://ns.adobe.com/Flows/1.0/">
	<!ENTITY ns_svg "http://www.w3.org/2000/svg">
	<!ENTITY ns_xlink "http://www.w3.org/1999/xlink">
	<!ENTITY st0 "font-size:7px;font-family:'MS-PGothic';adobe-font-script:japanese;">
	<!ENTITY st1 "font-size:6px;font-family:'ArialMT';">
	<!-- White fill  -->
	<!ENTITY st2 "fill:#FFFFFF;stroke:#000000; stroke-width:1.41;stroke-linecap:round;stroke-linejoin:round;">
	<!-- Yellow fill  -->
	<!ENTITY st3 "fill:#FFFFCC;stroke:#FFFFCC; stroke-width:0.1;stroke-linecap:round;stroke-linejoin:round;">
	<!-- Gray fill  -->
	<!ENTITY st4 "fill:#CCCCCC;stroke:#CCCCCC; stroke-width:0.1;stroke-linecap:round;stroke-linejoin:round;">
	<!-- Light-blue fill -->
	<!ENTITY st5 "fill:#CCECF4;stroke:#000000; stroke-width:1.133;stroke-linecap:round;stroke-linejoin:round;">
	<!ENTITY st6 "fill:none;stroke-linecap:butt; stroke-linejoin:round;">
	<!ENTITY st7 "fill:none;stroke:#000000;stroke-linecap:round;stroke-linejoin:round;">
	<!ENTITY st8 "enable-background:new    ;">
	<!-- Black fill -->
	<!ENTITY st9 "fill:#000000;stroke:#000000; stroke-linecap:round;stroke-linejoin:round;">
	<!-- SRS note   -->
	<!ENTITY st10 "font-size:9px;font-family:'ArialMT';">
	<!ENTITY st11 "font-size:9px;font-family:'Svg Symbol';">
	<!ENTITY st12 "font-size:6px;font-family:'Svg Symbol';">
	<!ENTITY st13 "fill:none;stroke:#ff0000;stroke-linecap:round;stroke-linejoin:round;">
	<!-- Yellow fill  -->
	<!ENTITY st14 "fill:#FFFF00;stroke:#FFFF00; stroke-width:0.1;stroke-linecap:round;stroke-linejoin:round;">
	<!ENTITY st15 "font-size:6px;font-family:'MS-PGothic';adobe-font-script:japanese;">
	<!ENTITY st16 "1.00 0.00 0.00 1.00">
	<!ENTITY st17 "0.00 -1.00 1.00 0.00">
	<!ENTITY st18 "font-size:6px;font-family:'Arial';">
	<!ENTITY st19 "font-size:9px;font-family:'Arial';">
	<!ENTITY st20 "font-size:6px;font-family:'MS-PGothic','MS PGothic';adobe-font-script:japanese;">
	<!ENTITY st21 "font-size:7px;font-family:'MS-PGothic','MS PGothic';adobe-font-script:japanese;">
	<!ATTLIST svg
		xmlns:ewd CDATA #FIXED "http://shcl.co.jp/ewd"
		xmlns:a CDATA #FIXED "http://ns.adobe.com/AdobeSVGViewerExtensions/3.0/"
		ewd:ver CDATA #IMPLIED
	>
	<!ATTLIST a
		ewd:lineID CDATA #IMPLIED
		ewd:groupID CDATA #IMPLIED
		ewd:figtype CDATA #IMPLIED
		ewd:code CDATA #IMPLIED
		ewd:figID CDATA #IMPLIED
		ewd:pinNo CDATA #IMPLIED
		ewd:comment CDATA #IMPLIED >
	<!ATTLIST g
		ewd:lineID CDATA #IMPLIED
		ewd:groupID CDATA #IMPLIED
		ewd:figtype CDATA #IMPLIED
		ewd:code CDATA #IMPLIED
		ewd:figID CDATA #IMPLIED
		ewd:pinNo CDATA #IMPLIED
		ewd:comment CDATA #IMPLIED >
	<!ATTLIST text
		ewd:textID CDATA #IMPLIED >
	<!ATTLIST title
		ewd:textID CDATA #IMPLIED >
]>
<!-- Generator: Shintec Hozumi YS   -->
<svg onload="call_execInitLoadProc_svg('system')" style="overflow:visible;  enable-background:new 0 0 5678.922 710.000" viewBox="0 0 5678.922 710.000" height="710.000" width="5678.922" xml:space="preserve" ewd:ver="2.3.1.16" xmlns="&ns_svg;" xmlns:a="http://ns.adobe.com/AdobeSVGViewerExtensions/3.0/" xmlns:ewd="http://shcl.co.jp/ewd" xmlns:xlink="&ns_xlink;">
<path style="stroke-width: 1.42 ;&st7;  " d=" M  2724.52,   452.21  L  2719.55,   457.18  " /><path style="stroke-width: 1.42 ;&st7;  " d=" M  2731.57,   469.21  L  2736.54,   464.24  " /><path style="stroke-width: 1.42 ;&st7;  " d=" M  2719.55,   464.24  L  2724.51,   469.21  " /><path style="stroke-width: 1.42 ;&st7;  " d=" M  2736.54,   457.18  L  2731.57,   452.21  " /><path style="stroke-width: 1.42 ;&st7;  " d=" M  2868.99,   443.71  L  2864.02,   448.68  " /><path style="stroke-width: 1.42 ;&st7;  " d=" M  2876.05,   460.71  L  2881.02,   455.74  " /><path style="stroke-width: 1.42 ;&st7;  " d=" M  2864.02,   455.74  L  2868.99,   460.71  " /><path style="stroke-width: 1.42 ;&st7;  " d=" M  2881.02,   448.68  L  2876.05,   443.71  " /><path style="stroke-width: 1.42 ;&st7;  " d=" M  2682.02,   452.21  L  2677.05,   457.18  " /><path style="stroke-width: 1.42 ;&st7;  " d=" M  2689.08,   469.21  L  2694.05,   464.24  " /><path style="stroke-width: 1.42 ;&st7;  " d=" M  2677.05,   464.24  L  2682.02,   469.21  " /><path style="stroke-width: 1.42 ;&st7;  " d=" M  2694.05,   457.18  L  2689.08,   452.21  " /><path style="stroke-width: 1.42 ;&st7;  " d=" M  2784.01,    69.77  L  2779.04,    74.75  " /><path style="stroke-width: 1.42 ;&st7;  " d=" M  2791.06,    86.77  L  2796.03,    81.80  " /><path style="stroke-width: 1.42 ;&st7;  " d=" M  2779.04,    81.80  L  2784.00,    86.77  " /><path style="stroke-width: 1.42 ;&st7;  " d=" M  2796.03,    74.75  L  2791.06,    69.77  " /><path style="stroke-width: 1.42 ;&st7;  " d=" M  2741.51,   103.77  L  2736.54,   108.74  " /><path style="stroke-width: 1.42 ;&st7;  " d=" M  2748.57,   120.77  L  2753.54,   115.80  " /><path style="stroke-width: 1.42 ;&st7;  " d=" M  2736.54,   115.80  L  2741.51,   120.77  " /><path style="stroke-width: 1.42 ;&st7;  " d=" M  2753.54,   108.74  L  2748.57,   103.77  " /><text style="&st18;" transform="matrix(&st17;  2724.35  551.42 )">W-B</text><text style="&st18;" transform="matrix(&st16;  2792.62  290.13 )">C39(B),I84(C)</text><text style="&st18;" transform="matrix(&st16;  2563.37  643.98 )">W</text><text style="&st18;" transform="matrix(&st16;  2792.63  296.96 )">ECM</text><text style="&st18;" transform="matrix(&st17;  2987.8  549.63 )">BR</text><text style="&st18;" transform="matrix(&st17;  2945.31  547.34 )">Y</text><text style="&st18;" transform="matrix(&st17;  2911.32  547.07 )">L</text><text style="&st18;" transform="matrix(&st17;  2868.82  548.39 )">W</text><text style="&st18;" transform="matrix(&st17;  2834.83  547.46 )">B</text><text style="&st18;" transform="matrix(&st17;  2792.34  548.39 )">W</text><text style="&st18;" transform="matrix(&st17;  2758.34  547.46 )">B</text><text style="&st18;" transform="matrix(&st17;  2681.86  551.42 )">W-B</text><text style="&st18;" transform="matrix(&st17;  2647.86  446.41 )">W</text><text style="&st18;" transform="matrix(&st17;  2724.35  436.68 )">W-B</text><text style="&st18;" transform="matrix(&st17;  2851.83  344.43 )">W</text><text style="&st18;" transform="matrix(&st17;  2826.33  343.49 )">P</text><text style="&st18;" transform="matrix(&st17;  2647.86  380.28 )">R-L</text><text style="&st18;" transform="matrix(&st17;  2800.84  343.8 )">G</text><text style="&st18;" transform="matrix(&st17;  2741.35  235.8 )">L-R</text><text style="&st18;" transform="matrix(&st17;  2783.84  237.12 )">W-R</text><text style="&st18;" transform="matrix(&st17;  2860.33  236.58 )">L-W</text><text style="&st18;" transform="matrix(&st17;  2860.33  143.64 )">W-R</text><text style="&st18;" transform="matrix(&st17;  2826.33  142.32 )">L-R</text><text style="&st18;" transform="matrix(&st17;  2673.36  236.58 )">L-W</text><text style="&st18;" transform="matrix(&st17;  2673.36  142.32 )">L-R</text><text style="&st18;" transform="matrix(&st17;  2639.36  143.64 )">W-R</text><text style="&st18;" transform="matrix(&st17;  2868.82  433.66 )">W</text><text style="&st18;" transform="matrix(&st17;  2775.34  343.11 )">L</text><text style="&st18;" transform="matrix(&st17;  2749.84  343.49 )">B</text><text style="&st18;" transform="matrix(&st16;  2614.37  660.98 )">W</text><text style="&st18;" transform="matrix(&st16;  2563.37  660.98 )">W</text><text style="&st18;" transform="matrix(&st16;  2614.37  643.98 )">W</text><path style="stroke-width: 1.42 ;&st7;  " d=" M  2660.06,   409.72  L  2651.56,   409.72  " /><text style="&st18;" transform="matrix(&st17;  2545.88  504.67 )">W-B</text><text style="&st18;" transform="matrix(&st17;  2545.88  398.89 )">R</text><text style="&st18;" transform="matrix(&st17;  2557.21  401.53 )">(*6)</text><text style="&st18;" transform="matrix(&st17;  2557.21  503.51 )">(*6)</text><text style="&st18;" transform="matrix(&st17;  2506.22  401.53 )">(*5)</text><text style="&st18;" transform="matrix(&st17;  2506.22  503.51 )">(*5)</text><g ewd:figtype="conn" ewd:figID="18" ewd:code="C50"><path style="stroke-width: 1.42 ;&st7;  " d=" M  2626.06,   197.25  L  2694.05,   197.25  L  2694.05,   163.26  L  2626.06,   163.26  L  2626.06,   197.25  " /><g ewd:lineID="114"><text style="&st18;" transform="matrix(&st16;  2670.71  205.45 )">3</text><text style="&st18;" transform="matrix(&st16;  2670.95  193.56 )">VTA</text></g><g ewd:lineID="115"><text style="&st18;" transform="matrix(&st16;  2670.71  159.57 )">1</text><text style="&st18;" transform="matrix(&st16;  2672.62  170.89 )">VC</text></g><g ewd:lineID="125"><text style="&st18;" transform="matrix(&st16;  2636.72  159.57 )">2</text><text style="&st18;" transform="matrix(&st16;  2639.16  170.89 )">E2</text></g><g ewd:figtype="title"><text style="&st18;" transform="matrix(&st17;  2708.77  200.16 )" ewd:textID="21">Diesel Throttle <tspan x="0 " dy="6.0">Body Assembly </tspan><tspan x="0 " dy="6.0">(Bank 1)</tspan></text><text style="&st18;" transform="matrix(&st17;  2701.94  200.15 )">C50</text></g></g><g ewd:figtype="conn" ewd:figID="25" ewd:code="C65"><path style="stroke-width: 1.42 ;&st7;  " d=" M  2813.03,   197.25  L  2881.02,   197.25  L  2881.02,   163.26  L  2813.03,   163.26  L  2813.03,   197.25  " /><g ewd:lineID="122"><text style="&st18;" transform="matrix(&st16;  2823.69  159.57 )">1</text><text style="&st18;" transform="matrix(&st16;  2825.59  170.89 )">VC</text></g><g ewd:lineID="133"><text style="&st18;" transform="matrix(&st16;  2857.68  205.45 )">3</text><text style="&st18;" transform="matrix(&st16;  2857.92  193.56 )">VTA</text></g><g ewd:lineID="134"><text style="&st18;" transform="matrix(&st16;  2857.68  159.57 )">2</text><text style="&st18;" transform="matrix(&st16;  2860.13  170.89 )">E2</text></g><g ewd:figtype="title"><text style="&st18;" transform="matrix(&st17;  2895.74  200.16 )" ewd:textID="22">Diesel Throttle Body <tspan x="0 " dy="6.0">Assembly (Bank 2)</tspan></text><text style="&st18;" transform="matrix(&st17;  2888.91  200.15 )">C65</text></g></g><g ewd:figtype="conn" ewd:figID="30" ewd:code="C52,C53"><path style="stroke-width: 1.42 ;&st7;  " d=" M  2711.05,   409.72  L  3042.49,   409.72  L  3042.49,   367.22  L  2711.05,   367.22  L  2711.05,   409.72  " /><g ewd:lineID="118"><text style="&st18;" transform="matrix(&st16;  2718.56  416.22 )">1</text><text style="&st18;" transform="matrix(&st16;  2725.78  416.22 )">A</text><path style="stroke-width: 1.42 ;&st7;   " d=" M  2732.58,   414.25  C  2732.58    411.75   2730.55    409.72   2728.04    409.72  " /><path style="stroke-width: 1.42 ;&st7;   " d=" M  2728.04,   409.72  C  2725.54    409.72   2723.51    411.75   2723.51    414.25  " /><path style="stroke-width: 1.42 ;&st7;   " d=" M  2723.51,   414.25  C  2723.51    416.75   2725.54    418.78   2728.04    418.78  " /><path style="stroke-width: 1.42 ;&st7;   " d=" M  2728.04,   418.78  C  2730.55    418.78   2732.58    416.75   2732.58    414.25  " /><text style="&st18;" transform="matrix(&st16;  2721.13  406.02 )">GND</text></g><g ewd:lineID="119"><text style="&st18;" transform="matrix(&st16;  2718.56  364.66 )">8</text><path style="stroke-width: 1.42 ;&st7;   " d=" M  2732.58,   362.69  C  2732.58    360.19   2730.55    358.16   2728.04    358.16  " /><path style="stroke-width: 1.42 ;&st7;   " d=" M  2728.04,   358.16  C  2725.54    358.16   2723.51    360.19   2723.51    362.69  " /><path style="stroke-width: 1.42 ;&st7;   " d=" M  2723.51,   362.69  C  2723.51    365.19   2725.54    367.22   2728.04    367.22  " /><path style="stroke-width: 1.42 ;&st7;   " d=" M  2728.04,   367.22  C  2730.55    367.22   2732.58    365.19   2732.58    362.69  " /><text style="&st18;" transform="matrix(&st16;  2725.78  364.66 )">B</text><text style="&st18;" transform="matrix(&st16;  2724.07  374.86 )">+B</text></g><g ewd:lineID="121"><text style="&st18;" transform="matrix(&st16;  2744.06  364.66 )">6</text><text style="&st18;" transform="matrix(&st16;  2751.27  364.66 )">A</text><path style="stroke-width: 1.42 ;&st7;   " d=" M  2758.07,   362.69  C  2758.07    360.19   2756.04    358.16   2753.54    358.16  " /><path style="stroke-width: 1.42 ;&st7;   " d=" M  2753.54,   358.16  C  2751.04    358.16   2749.01    360.19   2749.01    362.69  " /><path style="stroke-width: 1.42 ;&st7;   " d=" M  2749.01,   362.69  C  2749.01    365.19   2751.04    367.22   2753.54    367.22  " /><path style="stroke-width: 1.42 ;&st7;   " d=" M  2753.54,   367.22  C  2756.04    367.22   2758.07    365.19   2758.07    362.69  " /><text style="&st18;" transform="matrix(&st16;  2748.33  374.86 )">#20</text></g><g ewd:lineID="123"><text style="&st18;" transform="matrix(&st16;  2752.56  416.22 )">4</text><text style="&st18;" transform="matrix(&st16;  2759.77  416.22 )">B</text><path style="stroke-width: 1.42 ;&st7;   " d=" M  2766.57,   414.25  C  2766.57    411.75   2764.54    409.72   2762.04    409.72  " /><path style="stroke-width: 1.42 ;&st7;   " d=" M  2762.04,   409.72  C  2759.54    409.72   2757.51    411.75   2757.51    414.25  " /><path style="stroke-width: 1.42 ;&st7;   " d=" M  2757.51,   414.25  C  2757.51    416.75   2759.54    418.78   2762.04    418.78  " /><path style="stroke-width: 1.42 ;&st7;   " d=" M  2762.04,   418.78  C  2764.54    418.78   2766.57    416.75   2766.57    414.25  " /><text style="&st18;" transform="matrix(&st16;  2755.62  406.02 )">INJ2</text></g><g ewd:lineID="124"><text style="&st18;" transform="matrix(&st16;  2769.56  364.66 )">2</text><path style="stroke-width: 1.42 ;&st7;   " d=" M  2783.57,   362.69  C  2783.57    360.19   2781.54    358.16   2779.04    358.16  " /><path style="stroke-width: 1.42 ;&st7;   " d=" M  2779.04,   358.16  C  2776.53    358.16   2774.50    360.19   2774.50    362.69  " /><path style="stroke-width: 1.42 ;&st7;   " d=" M  2774.50,   362.69  C  2774.50    365.19   2776.53    367.22   2779.04    367.22  " /><path style="stroke-width: 1.42 ;&st7;   " d=" M  2779.04,   367.22  C  2781.54    367.22   2783.57    365.19   2783.57    362.69  " /><text style="&st18;" transform="matrix(&st16;  2776.77  364.66 )">A</text><text style="&st18;" transform="matrix(&st16;  2773.82  374.86 )">#30</text></g><g ewd:lineID="127"><text style="&st18;" transform="matrix(&st16;  2795.05  364.66 )">5</text><path style="stroke-width: 1.42 ;&st7;   " d=" M  2809.06,   362.69  C  2809.06    360.19   2807.03    358.16   2804.53    358.16  " /><path style="stroke-width: 1.42 ;&st7;   " d=" M  2804.53,   358.16  C  2802.03    358.16   2800.00    360.19   2800.00    362.69  " /><path style="stroke-width: 1.42 ;&st7;   " d=" M  2800.00,   362.69  C  2800.00    365.19   2802.03    367.22   2804.53    367.22  " /><path style="stroke-width: 1.42 ;&st7;   " d=" M  2804.53,   367.22  C  2807.03    367.22   2809.06    365.19   2809.06    362.69  " /><text style="&st18;" transform="matrix(&st16;  2802.27  364.66 )">A</text><text style="&st18;" transform="matrix(&st16;  2799.32  374.86 )">#50</text></g><g ewd:lineID="128"><text style="&st18;" transform="matrix(&st16;  2820.55  364.66 )">3</text><text style="&st18;" transform="matrix(&st16;  2827.76  364.66 )">A</text><path style="stroke-width: 1.42 ;&st7;   " d=" M  2834.56,   362.69  C  2834.56    360.19   2832.53    358.16   2830.03    358.16  " /><path style="stroke-width: 1.42 ;&st7;   " d=" M  2830.03,   358.16  C  2827.52    358.16   2825.49    360.19   2825.49    362.69  " /><path style="stroke-width: 1.42 ;&st7;   " d=" M  2825.49,   362.69  C  2825.49    365.19   2827.52    367.22   2830.03    367.22  " /><path style="stroke-width: 1.42 ;&st7;   " d=" M  2830.03,   367.22  C  2832.53    367.22   2834.56    365.19   2834.56    362.69  " /><text style="&st18;" transform="matrix(&st16;  2824.81  374.86 )">#80</text></g><g ewd:lineID="130"><text style="&st18;" transform="matrix(&st16;  2829.05  416.22 )">3</text><path style="stroke-width: 1.42 ;&st7;   " d=" M  2843.06,   414.25  C  2843.06    411.75   2841.03    409.72   2838.53    409.72  " /><path style="stroke-width: 1.42 ;&st7;   " d=" M  2838.53,   409.72  C  2836.02    409.72   2833.99    411.75   2833.99    414.25  " /><path style="stroke-width: 1.42 ;&st7;   " d=" M  2833.99,   414.25  C  2833.99    416.75   2836.02    418.78   2838.53    418.78  " /><path style="stroke-width: 1.42 ;&st7;   " d=" M  2838.53,   418.78  C  2841.03    418.78   2843.06    416.75   2843.06    414.25  " /><text style="&st18;" transform="matrix(&st16;  2836.26  416.22 )">B</text><text style="&st18;" transform="matrix(&st16;  2832.11  406.02 )">INJ5</text></g><g ewd:lineID="131"><text style="&st18;" transform="matrix(&st16;  2846.04  364.66 )">7</text><text style="&st18;" transform="matrix(&st16;  2853.26  364.66 )">A</text><path style="stroke-width: 1.42 ;&st7;   " d=" M  2860.06,   362.69  C  2860.06    360.19   2858.03    358.16   2855.52    358.16  " /><path style="stroke-width: 1.42 ;&st7;   " d=" M  2855.52,   358.16  C  2853.02    358.16   2850.99    360.19   2850.99    362.69  " /><path style="stroke-width: 1.42 ;&st7;   " d=" M  2850.99,   362.69  C  2850.99    365.19   2853.02    367.22   2855.52    367.22  " /><path style="stroke-width: 1.42 ;&st7;   " d=" M  2855.52,   367.22  C  2858.03    367.22   2860.06    365.19   2860.06    362.69  " /><text style="&st18;" transform="matrix(&st16;  2848.8  374.86 )">INF2</text></g><g ewd:lineID="135"><text style="&st18;" transform="matrix(&st16;  2863.04  416.22 )">5</text><text style="&st18;" transform="matrix(&st16;  2870.25  416.22 )">B</text><path style="stroke-width: 1.42 ;&st7;   " d=" M  2877.05,   414.25  C  2877.05    411.75   2875.02    409.72   2872.52    409.72  " /><path style="stroke-width: 1.42 ;&st7;   " d=" M  2872.52,   409.72  C  2870.02    409.72   2867.99    411.75   2867.99    414.25  " /><path style="stroke-width: 1.42 ;&st7;   " d=" M  2867.99,   414.25  C  2867.99    416.75   2870.02    418.78   2872.52    418.78  " /><path style="stroke-width: 1.42 ;&st7;   " d=" M  2872.52,   418.78  C  2875.02    418.78   2877.05    416.75   2877.05    414.25  " /><text style="&st18;" transform="matrix(&st16;  2863.62  406.02 )">COM4</text></g><g ewd:lineID="136"><text style="&st18;" transform="matrix(&st16;  2905.53  416.22 )">1</text><text style="&st18;" transform="matrix(&st16;  2912.75  416.22 )">B</text><path style="stroke-width: 1.42 ;&st7;   " d=" M  2919.55,   414.25  C  2919.55    411.75   2917.52    409.72   2915.01    409.72  " /><path style="stroke-width: 1.42 ;&st7;   " d=" M  2915.01,   409.72  C  2912.51    409.72   2910.48    411.75   2910.48    414.25  " /><path style="stroke-width: 1.42 ;&st7;   " d=" M  2910.48,   414.25  C  2910.48    416.75   2912.51    418.78   2915.01    418.78  " /><path style="stroke-width: 1.42 ;&st7;   " d=" M  2915.01,   418.78  C  2917.52    418.78   2919.55    416.75   2919.55    414.25  " /><text style="&st18;" transform="matrix(&st16;  2908.6  406.02 )">INJ3</text></g><g ewd:lineID="138"><text style="&st18;" transform="matrix(&st16;  2982.02  416.22 )">2</text><path style="stroke-width: 1.42 ;&st7;   " d=" M  2996.03,   414.25  C  2996.03    411.75   2994.00    409.72   2991.50    409.72  " /><path style="stroke-width: 1.42 ;&st7;   " d=" M  2991.50,   409.72  C  2989.00    409.72   2986.97    411.75   2986.97    414.25  " /><path style="stroke-width: 1.42 ;&st7;   " d=" M  2986.97,   414.25  C  2986.97    416.75   2989.00    418.78   2991.50    418.78  " /><path style="stroke-width: 1.42 ;&st7;   " d=" M  2991.50,   418.78  C  2994.00    418.78   2996.03    416.75   2996.03    414.25  " /><text style="&st18;" transform="matrix(&st16;  2989.23  416.22 )">B</text><text style="&st18;" transform="matrix(&st16;  2985.09  406.02 )">INJ8</text></g><g ewd:figtype="title"><text style="&st18;" transform="matrix(&st16;  2911.6  356.7 )">C52(A),C53(B)</text><text style="&st18;" transform="matrix(&st16;  2911.61  363.53 )" ewd:textID="46">Injector Driver (EDU) (No. 2)</text></g></g><g ewd:figtype="conn" ewd:figID="31" ewd:code="C67"><path style="stroke-width: 0.85 ;&st7;  " d=" M  2762.04,   622.18  L  2762.04,   630.68  " /><path style="stroke-width: 0.85 ;&st7;  " d=" M  2762.04,   596.69  L  2762.04,   605.18  " /><path style="stroke-width: 0.85 ;&st7;   " d=" M  2762.04,   622.18  C  2763.99    622.18   2765.58    620.60   2765.58    618.64  " /><path style="stroke-width: 0.85 ;&st7;   " d=" M  2765.58,   618.64  C  2765.58    616.68   2763.99    615.10   2762.04    615.10  " /><path style="stroke-width: 0.85 ;&st7;   " d=" M  2762.04,   615.10  C  2761.05    615.10   2760.20    615.45   2759.51    616.16  " /><path style="stroke-width: 0.85 ;&st7;   " d=" M  2759.51,   611.20  C  2760.88    612.60   2763.12    612.62   2764.52    611.25  " /><path style="stroke-width: 0.85 ;&st7;   " d=" M  2764.52,   611.25  C  2765.91    609.89   2765.94    607.64   2764.57    606.25  " /><path style="stroke-width: 0.85 ;&st7;   " d=" M  2764.57,   606.25  C  2763.87    605.54   2763.03    605.18   2762.04    605.18  " /><path style="stroke-width: 0.85 ;&st7;   " d=" M  2759.51,   616.16  C  2760.88    617.56   2763.12    617.58   2764.52    616.21  " /><path style="stroke-width: 0.85 ;&st7;   " d=" M  2764.52,   616.21  C  2765.91    614.84   2765.94    612.60   2764.57    611.20  " /><path style="stroke-width: 0.85 ;&st7;   " d=" M  2764.57,   611.20  C  2763.20    609.81   2760.96    609.78   2759.56    611.15  " /><path style="stroke-width: 0.85 ;&st7;   " d=" M  2759.56,   611.15  C  2759.54    611.17   2759.53    611.19   2759.51    611.20  " /><path style="stroke-width: 1.42 ;&st7;  " d=" M  2770.54,   630.68  L  2770.54,   596.69  L  2753.54,   596.69  L  2753.54,   630.68  L  2770.54,   630.68  " /><text style="&st18;" transform="matrix(&st16;  2755.7  593.0 )">2</text><text style="&st18;" transform="matrix(&st16;  2755.7  638.87 )">1</text><g ewd:figtype="title"><text style="&st18;" transform="matrix(&st17;  2785.25  633.59 )" ewd:textID="38">Injector <tspan x="0 " dy="6.0">Assembly No. 2</tspan></text><text style="&st18;" transform="matrix(&st17;  2778.43  633.58 )">C67</text></g></g><g ewd:figtype="conn" ewd:figID="33" ewd:code="C51"><path style="stroke-width: 0.85 ;&st7;  " d=" M  2838.53,   622.18  L  2838.53,   630.68  " /><path style="stroke-width: 0.85 ;&st7;  " d=" M  2838.53,   596.69  L  2838.53,   605.18  " /><path style="stroke-width: 0.85 ;&st7;   " d=" M  2836.00,   611.20  C  2837.36    612.60   2839.61    612.62   2841.00    611.25  " /><path style="stroke-width: 0.85 ;&st7;   " d=" M  2841.00,   611.25  C  2842.40    609.89   2842.42    607.64   2841.06    606.25  " /><path style="stroke-width: 0.85 ;&st7;   " d=" M  2841.06,   606.25  C  2840.36    605.54   2839.52    605.18   2838.53    605.18  " /><path style="stroke-width: 0.85 ;&st7;   " d=" M  2838.53,   622.18  C  2840.48    622.18   2842.07    620.60   2842.07    618.64  " /><path style="stroke-width: 0.85 ;&st7;   " d=" M  2842.07,   618.64  C  2842.07    616.68   2840.48    615.10   2838.53    615.10  " /><path style="stroke-width: 0.85 ;&st7;   " d=" M  2838.53,   615.10  C  2837.54    615.10   2836.69    615.45   2836.00    616.16  " /><path style="stroke-width: 0.85 ;&st7;   " d=" M  2836.00,   616.16  C  2837.36    617.56   2839.61    617.58   2841.00    616.21  " /><path style="stroke-width: 0.85 ;&st7;   " d=" M  2841.00,   616.21  C  2842.40    614.84   2842.42    612.60   2841.06    611.20  " /><path style="stroke-width: 0.85 ;&st7;   " d=" M  2841.06,   611.20  C  2839.69    609.81   2837.44    609.78   2836.05    611.15  " /><path style="stroke-width: 0.85 ;&st7;   " d=" M  2836.05,   611.15  C  2836.03    611.17   2836.01    611.19   2836.00    611.20  " /><path style="stroke-width: 1.42 ;&st7;  " d=" M  2847.02,   630.68  L  2847.02,   596.69  L  2830.03,   596.69  L  2830.03,   630.68  L  2847.02,   630.68  " /><text style="&st18;" transform="matrix(&st16;  2832.19  638.87 )">1</text><text style="&st18;" transform="matrix(&st16;  2832.19  593.0 )">2</text><g ewd:figtype="title"><text style="&st18;" transform="matrix(&st17;  2854.92  633.58 )">C51</text><text style="&st18;" transform="matrix(&st17;  2861.74  633.59 )" ewd:textID="41">Injector <tspan x="0 " dy="6.0">Assembly No. 5</tspan></text></g></g><g ewd:figtype="conn" ewd:figID="35" ewd:code="C49"><path style="stroke-width: 0.85 ;&st7;  " d=" M  2915.01,   622.18  L  2915.01,   630.68  " /><path style="stroke-width: 0.85 ;&st7;  " d=" M  2915.01,   596.69  L  2915.01,   605.18  " /><path style="stroke-width: 0.85 ;&st7;   " d=" M  2915.01,   622.18  C  2916.97    622.18   2918.55    620.60   2918.55    618.64  " /><path style="stroke-width: 0.85 ;&st7;   " d=" M  2918.55,   618.64  C  2918.55    616.68   2916.97    615.10   2915.01    615.10  " /><path style="stroke-width: 0.85 ;&st7;   " d=" M  2915.01,   615.10  C  2914.02    615.10   2913.18    615.45   2912.48    616.16  " /><path style="stroke-width: 0.85 ;&st7;   " d=" M  2912.48,   611.20  C  2913.85    612.60   2916.09    612.62   2917.49    611.25  " /><path style="stroke-width: 0.85 ;&st7;   " d=" M  2917.49,   611.25  C  2918.89    609.89   2918.91    607.64   2917.54    606.25  " /><path style="stroke-width: 0.85 ;&st7;   " d=" M  2917.54,   606.25  C  2916.85    605.54   2916.00    605.18   2915.01    605.18  " /><path style="stroke-width: 0.85 ;&st7;   " d=" M  2912.48,   616.16  C  2913.85    617.56   2916.09    617.58   2917.49    616.21  " /><path style="stroke-width: 0.85 ;&st7;   " d=" M  2917.49,   616.21  C  2918.89    614.84   2918.91    612.60   2917.54    611.20  " /><path style="stroke-width: 0.85 ;&st7;   " d=" M  2917.54,   611.20  C  2916.17    609.81   2913.93    609.78   2912.53    611.15  " /><path style="stroke-width: 0.85 ;&st7;   " d=" M  2912.53,   611.15  C  2912.52    611.17   2912.50    611.19   2912.48    611.20  " /><path style="stroke-width: 1.42 ;&st7;  " d=" M  2923.51,   630.68  L  2923.51,   596.69  L  2906.51,   596.69  L  2906.51,   630.68  L  2923.51,   630.68  " /><text style="&st18;" transform="matrix(&st16;  2908.67  593.0 )">2</text><text style="&st18;" transform="matrix(&st16;  2908.67  638.87 )">1</text><g ewd:figtype="title"><text style="&st18;" transform="matrix(&st17;  2938.23  633.59 )" ewd:textID="39">Injector <tspan x="0 " dy="6.0">Assembly No. 3</tspan></text><text style="&st18;" transform="matrix(&st17;  2931.41  633.58 )">C49</text></g></g><g ewd:figtype="conn" ewd:figID="38" ewd:code="C63"><path style="stroke-width: 0.85 ;&st7;  " d=" M  2991.50,   622.18  L  2991.50,   630.68  " /><path style="stroke-width: 0.85 ;&st7;  " d=" M  2991.50,   596.69  L  2991.50,   605.18  " /><path style="stroke-width: 0.85 ;&st7;   " d=" M  2988.97,   611.20  C  2990.34    612.60   2992.58    612.62   2993.98    611.25  " /><path style="stroke-width: 0.85 ;&st7;   " d=" M  2993.98,   611.25  C  2995.38    609.89   2995.40    607.64   2994.03    606.25  " /><path style="stroke-width: 0.85 ;&st7;   " d=" M  2994.03,   606.25  C  2993.34    605.54   2992.49    605.18   2991.50    605.18  " /><path style="stroke-width: 0.85 ;&st7;   " d=" M  2991.50,   622.18  C  2993.46    622.18   2995.04    620.60   2995.04    618.64  " /><path style="stroke-width: 0.85 ;&st7;   " d=" M  2995.04,   618.64  C  2995.04    616.68   2993.46    615.10   2991.50    615.10  " /><path style="stroke-width: 0.85 ;&st7;   " d=" M  2991.50,   615.10  C  2990.51    615.10   2989.66    615.45   2988.97    616.16  " /><path style="stroke-width: 0.85 ;&st7;   " d=" M  2988.97,   616.16  C  2990.34    617.56   2992.58    617.58   2993.98    616.21  " /><path style="stroke-width: 0.85 ;&st7;   " d=" M  2993.98,   616.21  C  2995.38    614.84   2995.40    612.60   2994.03    611.20  " /><path style="stroke-width: 0.85 ;&st7;   " d=" M  2994.03,   611.20  C  2992.66    609.81   2990.42    609.78   2989.02    611.15  " /><path style="stroke-width: 0.85 ;&st7;   " d=" M  2989.02,   611.15  C  2989.00    611.17   2988.99    611.19   2988.97    611.20  " /><path style="stroke-width: 1.42 ;&st7;  " d=" M  3000.00,   630.68  L  3000.00,   596.69  L  2983.00,   596.69  L  2983.00,   630.68  L  3000.00,   630.68  " /><text style="&st18;" transform="matrix(&st16;  2985.16  638.87 )">1</text><text style="&st18;" transform="matrix(&st16;  2985.16  593.0 )">2</text><g ewd:figtype="title"><text style="&st18;" transform="matrix(&st17;  3007.89  633.58 )">C63</text><text style="&st18;" transform="matrix(&st17;  3014.72  633.59 )" ewd:textID="44">Injector <tspan x="0 " dy="6.0">Assembly No. 8</tspan></text></g></g><g ewd:figtype="conn" ewd:figID="63" ewd:code="C39,I84"><g ewd:lineID="113"><path style="stroke-width: 1.42 ;&st7;   " d=" M  2503.12,   320.77  C  2503.12    318.26   2501.09    316.23   2498.58    316.23  " /></g><g ewd:lineID="114"><text style="&st18;" transform="matrix(&st16;  2664.24  262.68 )">93</text><text style="&st18;" transform="matrix(&st16;  2674.79  262.68 )">B</text><path style="stroke-width: 1.42 ;&st7;   " d=" M  2681.59,   260.71  C  2681.59    258.21   2679.56    256.18   2677.05    256.18  " /><path style="stroke-width: 1.42 ;&st7;   " d=" M  2677.05,   256.18  C  2674.55    256.18   2672.52    258.21   2672.52    260.71  " /><path style="stroke-width: 1.42 ;&st7;   " d=" M  2672.52,   260.71  C  2672.52    263.21   2674.55    265.24   2677.05    265.24  " /><path style="stroke-width: 1.42 ;&st7;   " d=" M  2677.05,   265.24  C  2679.56    265.24   2681.59    263.21   2681.59    260.71  " /><text style="&st18;" transform="matrix(&st16;  2670.99  272.88 )">VLU</text></g><g ewd:lineID="120"><text style="&st18;" transform="matrix(&st16;  2732.23  262.68 )">91</text><path style="stroke-width: 1.42 ;&st7;   " d=" M  2749.57,   260.71  C  2749.57    258.21   2747.54    256.18   2745.04    256.18  " /><path style="stroke-width: 1.42 ;&st7;   " d=" M  2745.04,   256.18  C  2742.54    256.18   2740.51    258.21   2740.51    260.71  " /><path style="stroke-width: 1.42 ;&st7;   " d=" M  2740.51,   260.71  C  2740.51    263.21   2742.54    265.24   2745.04    265.24  " /><path style="stroke-width: 1.42 ;&st7;   " d=" M  2745.04,   265.24  C  2747.54    265.24   2749.57    263.21   2749.57    260.71  " /><text style="&st18;" transform="matrix(&st16;  2742.78  262.68 )">B</text><text style="&st18;" transform="matrix(&st16;  2736.96  272.88 )">VCVL</text></g><g ewd:lineID="121"><text style="&st18;" transform="matrix(&st16;  2740.73  322.73 )">39</text><path style="stroke-width: 1.42 ;&st7;   " d=" M  2758.07,   320.77  C  2758.07    318.26   2756.04    316.23   2753.54    316.23  " /><path style="stroke-width: 1.42 ;&st7;   " d=" M  2753.54,   316.23  C  2751.04    316.23   2749.01    318.26   2749.01    320.77  " /><path style="stroke-width: 1.42 ;&st7;   " d=" M  2749.01,   320.77  C  2749.01    323.27   2751.04    325.30   2753.54    325.30  " /><path style="stroke-width: 1.42 ;&st7;   " d=" M  2753.54,   325.30  C  2756.04    325.30   2758.07    323.27   2758.07    320.77  " /><text style="&st18;" transform="matrix(&st16;  2751.27  322.73 )">B</text><text style="&st18;" transform="matrix(&st16;  2749.99  312.54 )">#2</text></g><g ewd:lineID="124"><text style="&st18;" transform="matrix(&st16;  2766.22  322.73 )">38</text><text style="&st18;" transform="matrix(&st16;  2776.77  322.73 )">B</text><path style="stroke-width: 1.42 ;&st7;   " d=" M  2783.57,   320.77  C  2783.57    318.26   2781.54    316.23   2779.04    316.23  " /><path style="stroke-width: 1.42 ;&st7;   " d=" M  2779.04,   316.23  C  2776.53    316.23   2774.50    318.26   2774.50    320.77  " /><path style="stroke-width: 1.42 ;&st7;   " d=" M  2774.50,   320.77  C  2774.50    323.27   2776.53    325.30   2779.04    325.30  " /><path style="stroke-width: 1.42 ;&st7;   " d=" M  2779.04,   325.30  C  2781.54    325.30   2783.57    323.27   2783.57    320.77  " /><text style="&st18;" transform="matrix(&st16;  2775.49  312.54 )">#3</text></g><g ewd:lineID="126"><text style="&st18;" transform="matrix(&st16;  2774.72  262.68 )">92</text><text style="&st18;" transform="matrix(&st16;  2785.27  262.68 )">B</text><path style="stroke-width: 1.42 ;&st7;   " d=" M  2792.07,   260.71  C  2792.07    258.21   2790.04    256.18   2787.53    256.18  " /><path style="stroke-width: 1.42 ;&st7;   " d=" M  2787.53,   256.18  C  2785.03    256.18   2783.00    258.21   2783.00    260.71  " /><path style="stroke-width: 1.42 ;&st7;   " d=" M  2783.00,   260.71  C  2783.00    263.21   2785.03    265.24   2787.53    265.24  " /><path style="stroke-width: 1.42 ;&st7;   " d=" M  2787.53,   265.24  C  2790.04    265.24   2792.07    263.21   2792.07    260.71  " /><text style="&st18;" transform="matrix(&st16;  2779.45  272.88 )">EVLU</text></g><g ewd:lineID="127"><text style="&st18;" transform="matrix(&st16;  2791.72  322.73 )">36</text><text style="&st18;" transform="matrix(&st16;  2802.27  322.73 )">B</text><path style="stroke-width: 1.42 ;&st7;   " d=" M  2809.06,   320.77  C  2809.06    318.26   2807.03    316.23   2804.53    316.23  " /><path style="stroke-width: 1.42 ;&st7;   " d=" M  2804.53,   316.23  C  2802.03    316.23   2800.00    318.26   2800.00    320.77  " /><path style="stroke-width: 1.42 ;&st7;   " d=" M  2800.00,   320.77  C  2800.00    323.27   2802.03    325.30   2804.53    325.30  " /><path style="stroke-width: 1.42 ;&st7;   " d=" M  2804.53,   325.30  C  2807.03    325.30   2809.06    323.27   2809.06    320.77  " /><text style="&st18;" transform="matrix(&st16;  2800.99  312.54 )">#5</text></g><g ewd:lineID="128"><text style="&st18;" transform="matrix(&st16;  2817.21  322.73 )">33</text><path style="stroke-width: 1.42 ;&st7;   " d=" M  2834.56,   320.77  C  2834.56    318.26   2832.53    316.23   2830.03    316.23  " /><path style="stroke-width: 1.42 ;&st7;   " d=" M  2830.03,   316.23  C  2827.52    316.23   2825.49    318.26   2825.49    320.77  " /><path style="stroke-width: 1.42 ;&st7;   " d=" M  2825.49,   320.77  C  2825.49    323.27   2827.52    325.30   2830.03    325.30  " /><path style="stroke-width: 1.42 ;&st7;   " d=" M  2830.03,   325.30  C  2832.53    325.30   2834.56    323.27   2834.56    320.77  " /><text style="&st18;" transform="matrix(&st16;  2827.76  322.73 )">B</text><text style="&st18;" transform="matrix(&st16;  2826.48  312.54 )">#8</text></g><g ewd:lineID="131"><text style="&st18;" transform="matrix(&st16;  2842.71  322.73 )">60</text><text style="&st18;" transform="matrix(&st16;  2853.26  322.73 )">B</text><path style="stroke-width: 1.42 ;&st7;   " d=" M  2860.06,   320.77  C  2860.06    318.26   2858.03    316.23   2855.52    316.23  " /><path style="stroke-width: 1.42 ;&st7;   " d=" M  2855.52,   316.23  C  2853.02    316.23   2850.99    318.26   2850.99    320.77  " /><path style="stroke-width: 1.42 ;&st7;   " d=" M  2850.99,   320.77  C  2850.99    323.27   2853.02    325.30   2855.52    325.30  " /><path style="stroke-width: 1.42 ;&st7;   " d=" M  2855.52,   325.30  C  2858.03    325.30   2860.06    323.27   2860.06    320.77  " /><text style="&st18;" transform="matrix(&st16;  2848.8  312.54 )">INF2</text></g><g ewd:lineID="133"><text style="&st18;" transform="matrix(&st16;  2847.87  262.68 )">103</text><text style="&st18;" transform="matrix(&st16;  2861.76  262.68 )">B</text><path style="stroke-width: 1.42 ;&st7;   " d=" M  2868.55,   260.71  C  2868.55    258.21   2866.52    256.18   2864.02    256.18  " /><path style="stroke-width: 1.42 ;&st7;   " d=" M  2864.02,   256.18  C  2861.52    256.18   2859.49    258.21   2859.49    260.71  " /><path style="stroke-width: 1.42 ;&st7;   " d=" M  2859.49,   260.71  C  2859.49    263.21   2861.52    265.24   2864.02    265.24  " /><path style="stroke-width: 1.42 ;&st7;   " d=" M  2864.02,   265.24  C  2866.52    265.24   2868.55    263.21   2868.55    260.71  " /><text style="&st18;" transform="matrix(&st16;  2856.29  272.88 )">VLU2</text></g></g><g ewd:figtype="conn" ewd:figID="73" ewd:code="L60"><path style="stroke-width: 1.42 ;&st7;  " d=" M  2549.57,   453.63  L  2555.24,   430.96  " /><path style="stroke-width: 0.85 ;&st7;  " d=" M  2549.57,   469.21  L  2549.57,   456.46  " /><path style="stroke-width: 0.85 ;&st7;  " d=" M  2549.57,   430.96  L  2549.57,   418.22  " /><path style="stroke-width: 0.85 ;&st7;   " d=" M  2550.99,   455.04  C  2550.99    454.26   2550.36    453.63   2549.57    453.63  " /><path style="stroke-width: 0.85 ;&st7;   " d=" M  2549.57,   453.63  C  2548.79    453.63   2548.16    454.26   2548.16    455.04  " /><path style="stroke-width: 0.85 ;&st7;   " d=" M  2548.16,   455.04  C  2548.16    455.82   2548.79    456.46   2549.57    456.46  " /><path style="stroke-width: 0.85 ;&st7;   " d=" M  2549.57,   456.46  C  2550.36    456.46   2550.99    455.82   2550.99    455.04  " /><path style="stroke-width: 0.85 ;&st7;   " d=" M  2550.99,   432.38  C  2550.99    431.60   2550.36    430.96   2549.57    430.96  " /><path style="stroke-width: 0.85 ;&st7;   " d=" M  2549.57,   430.96  C  2548.79    430.96   2548.16    431.60   2548.16    432.38  " /><path style="stroke-width: 0.85 ;&st7;   " d=" M  2548.16,   432.38  C  2548.16    433.16   2548.79    433.80   2549.57    433.80  " /><path style="stroke-width: 0.85 ;&st7;   " d=" M  2549.57,   433.80  C  2550.36    433.80   2550.99    433.16   2550.99    432.38  " /><path style="stroke-width: 1.42 ;&st7;  " d=" M  2566.57,   469.21  L  2566.57,   418.22  L  2532.58,   418.22  L  2532.58,   469.21  L  2566.57,   469.21  " /><text style="&st18;" transform="matrix(&st16;  2552.16  465.52 )">E</text><text style="&st18;" transform="matrix(&st16;  2552.16  426.41 )">+S</text><text style="&st18;" transform="matrix(&st17;  2544.46  448.11 )">IDL</text><text style="&st18;" transform="matrix(&st16;  2543.23  477.4 )">9</text><text style="&st18;" transform="matrix(&st16;  2539.9  414.53 )">10</text><g ewd:figtype="title"><text style="&st18;" transform="matrix(&st17;  2581.29  472.11 )" ewd:textID="17">Combination Switch Assembly</text><text style="&st18;" transform="matrix(&st17;  2574.47  472.11 )">L60</text></g></g><g ewd:figtype="w2w" ewd:figID="110" ewd:code="CA4"><path style="stroke-width: 1.42 ;&st7;  " d=" M  2655.81,   418.78  L  2651.56,   414.53  L  2647.31,   418.78  " /><path style="stroke-width: 1.42 ;&st7;  " d=" M  2655.81,   415.38  L  2651.56,   411.13  L  2647.31,   415.38  " /><text style="&st18;" transform="matrix(&st16;  2638.14  407.44 )">3</text></g><g ewd:figtype="gp" ewd:figID="134" ewd:code="AA"><path style="stroke-width: 0.85 ;&st7;  " d=" M  2685.55,   697.25  L  2685.55,   701.50  " /><path style="stroke-width: 0.85 ;&st7;  " d=" M  2677.05,   701.50  L  2694.05,   701.50  " /><path style="stroke-width: 0.85 ;&st7;  " d=" M  2681.30,   704.33  L  2689.80,   704.33  " /><path style="stroke-width: 0.85 ;&st7;  " d=" M  2682.72,   707.17  L  2688.38,   707.17  " /><path style="stroke-width: 0.85 ;&st7;  " d=" M  2684.13,   710.00  L  2686.97,   710.00  " /></g><g ewd:figtype="gp" ewd:figID="135" ewd:code="CD"><path style="stroke-width: 0.85 ;&st7;  " d=" M  2719.54,   701.50  L  2736.54,   701.50  " /><path style="stroke-width: 0.85 ;&st7;  " d=" M  2726.63,   710.00  L  2729.46,   710.00  " /><path style="stroke-width: 0.85 ;&st7;  " d=" M  2725.21,   707.17  L  2730.88,   707.17  " /><path style="stroke-width: 0.85 ;&st7;  " d=" M  2723.79,   704.33  L  2732.29,   704.33  " /><path style="stroke-width: 0.85 ;&st7;  " d=" M  2728.04,   697.25  L  2728.04,   701.50  " /></g><g ewd:code=" " ewd:figID="208" ewd:comment="1" ewd:figtype="sh"><path style="stroke-width: 0.85 ;&st7; stroke-dasharray:3, 1.5;" d=" M  2804.53,   528.70  L  2745.04,   528.70  L  2745.04,   562.69  L  2804.53,   562.69  L  2804.53,   528.70  " /><path style="stroke-width: 0.85 ;&st7;  " d=" M  2803.34,   527.69  L  2803.07,   528.16  L  2802.97,   528.70  L  2803.07,   529.23  L  2803.34,   529.70  L  2803.75,   530.05  L  2804.26,   530.23  L  2804.80,   530.23  L  2805.31,   530.05  L  2805.72,   529.70  L  2805.99,   529.23  L  2806.09,   528.70  L  2805.99,   528.16  L  2805.72,   527.69  L  2805.31,   527.35  L  2804.80,   527.16  L  2804.26,   527.16  L  2803.75,   527.35  L  2803.34,   527.69  L  2803.73,   528.41  L  2803.73,   528.99  L  2804.11,   529.43  L  2804.68,   529.53  L  2805.18,   529.24  L  2805.38,   528.70  L  2805.18,   528.15  L  2804.68,   527.86  L  2804.11,   527.96  L  2804.53,   528.70  " /><g ewd:code="" ewd:figID="225" ewd:comment="1" ewd:figtype="commref"><text style="&st18;" transform="matrix(&st17;  2741.35  550.25 )">(*1)</text></g></g><g ewd:code=" " ewd:figID="205" ewd:comment="1" ewd:figtype="sh"><path style="stroke-width: 0.85 ;&st7; stroke-dasharray:3, 1.5;" d=" M  2957.50,   528.70  L  2898.01,   528.70  L  2898.01,   562.69  L  2957.50,   562.69  L  2957.50,   528.70  " /><path style="stroke-width: 0.85 ;&st7;  " d=" M  2956.31,   527.69  L  2956.04,   528.16  L  2955.95,   528.70  L  2956.04,   529.23  L  2956.31,   529.70  L  2956.73,   530.05  L  2957.24,   530.23  L  2957.77,   530.23  L  2958.28,   530.05  L  2958.70,   529.70  L  2958.97,   529.23  L  2959.06,   528.70  L  2958.97,   528.16  L  2958.70,   527.69  L  2958.28,   527.35  L  2957.77,   527.16  L  2957.24,   527.16  L  2956.73,   527.35  L  2956.31,   527.69  L  2956.71,   528.41  L  2956.71,   528.99  L  2957.08,   529.43  L  2957.65,   529.53  L  2958.16,   529.24  L  2958.35,   528.70  L  2958.16,   528.15  L  2957.65,   527.86  L  2957.08,   527.96  L  2957.50,   528.70  " /><g ewd:code="" ewd:figID="223" ewd:comment="1" ewd:figtype="commref"><text style="&st18;" transform="matrix(&st17;  2894.32  550.25 )">(*1)</text></g></g><g ewd:code=" " ewd:figID="206" ewd:comment="1" ewd:figtype="sh"><path style="stroke-width: 0.85 ;&st7; stroke-dasharray:3, 1.5;" d=" M  2881.02,   528.70  L  2821.53,   528.70  L  2821.53,   562.69  L  2881.02,   562.69  L  2881.02,   528.70  " /><path style="stroke-width: 0.85 ;&st7;  " d=" M  2879.82,   527.69  L  2879.55,   528.16  L  2879.46,   528.70  L  2879.55,   529.23  L  2879.82,   529.70  L  2880.24,   530.05  L  2880.75,   530.23  L  2881.29,   530.23  L  2881.80,   530.05  L  2882.21,   529.70  L  2882.48,   529.23  L  2882.58,   528.70  L  2882.48,   528.16  L  2882.21,   527.69  L  2881.80,   527.35  L  2881.29,   527.16  L  2880.75,   527.16  L  2880.24,   527.35  L  2879.82,   527.69  L  2880.22,   528.41  L  2880.22,   528.99  L  2880.59,   529.43  L  2881.16,   529.53  L  2881.67,   529.24  L  2881.87,   528.70  L  2881.67,   528.15  L  2881.16,   527.86  L  2880.59,   527.96  L  2881.02,   528.70  " /><g ewd:code="" ewd:figID="224" ewd:comment="1" ewd:figtype="commref"><text style="&st18;" transform="matrix(&st17;  2817.83  550.25 )">(*1)</text></g></g><g ewd:code=" " ewd:figID="207" ewd:comment="1" ewd:figtype="sh"><path style="stroke-width: 0.85 ;&st7; stroke-dasharray:3, 1.5;" d=" M  3033.99,   528.70  L  2974.50,   528.70  L  2974.50,   562.69  L  3033.99,   562.69  L  3033.99,   528.70  " /><path style="stroke-width: 0.85 ;&st7;  " d=" M  3032.80,   527.69  L  3032.53,   528.16  L  3032.43,   528.70  L  3032.53,   529.23  L  3032.80,   529.70  L  3033.21,   530.05  L  3033.72,   530.23  L  3034.26,   530.23  L  3034.77,   530.05  L  3035.18,   529.70  L  3035.46,   529.23  L  3035.55,   528.70  L  3035.46,   528.16  L  3035.18,   527.69  L  3034.77,   527.35  L  3034.26,   527.16  L  3033.72,   527.16  L  3033.21,   527.35  L  3032.80,   527.69  L  3033.19,   528.41  L  3033.19,   528.99  L  3033.57,   529.43  L  3034.14,   529.53  L  3034.64,   529.24  L  3034.84,   528.70  L  3034.64,   528.15  L  3034.14,   527.86  L  3033.57,   527.96  L  3033.99,   528.70  " /><g ewd:code="" ewd:figID="222" ewd:comment="1" ewd:figtype="commref"><text style="&st18;" transform="matrix(&st17;  2970.81  550.25 )">(*1)</text></g></g><g ewd:code=" " ewd:figID="209" ewd:comment="1" ewd:figtype="sh"><path style="stroke-width: 0.85 ;&st7; stroke-dasharray:3, 1.5;" d=" M  2685.55,   452.21  L  2685.55,   426.71  L  2626.06,   426.71  L  2626.06,   460.71  L  2677.05,   460.71  " /><g ewd:code="" ewd:figID="226" ewd:comment="1" ewd:figtype="commref"><text style="&st18;" transform="matrix(&st17;  2622.37  448.27 )">(*1)</text></g></g><g ewd:code="5" ewd:figID="232" ewd:comment="" ewd:figtype="comment"><text style="&st18;" transform="matrix(&st16;  2954.1  71.74 )" ewd:textID="5">* 5 :Before Jul. 2021 Production</text></g><g ewd:code="6" ewd:figID="233" ewd:comment="" ewd:figtype="comment"><text style="&st18;" transform="matrix(&st16;  2954.1  80.24 )" ewd:textID="6">* 6 :From Jul. 2021 Production</text></g><g ewd:code="1" ewd:figID="229" ewd:comment="" ewd:figtype="comment"><text style="&st18;" transform="matrix(&st16;  2954.1  63.24 )" ewd:textID="1">* 1 :Shielded</text></g><g ewd:code="8" ewd:figID="239" ewd:comment="" ewd:figtype="comment"><text style="&st18;" transform="matrix(&st16;  2954.1  97.24 )" ewd:textID="8">* 8 :From Sep. 2022 Production</text></g><g ewd:code="7" ewd:figID="238" ewd:comment="" ewd:figtype="comment"><text style="&st18;" transform="matrix(&st16;  2954.1  88.74 )" ewd:textID="7">* 7 :Before Sep. 2022 Production</text></g></svg>