<?xml version="1.0" encoding="utf-8"?>
<!DOCTYPE svg PUBLIC "-//W3C//DTD SVG 1.0//EN" "http://www.w3.org/TR/2001/REC-SVG-20010904/DTD/svg10.dtd"[
	<!ENTITY ns_flows "http://ns.adobe.com/Flows/1.0/">
	<!ENTITY ns_svg "http://www.w3.org/2000/svg">
	<!ENTITY ns_xlink "http://www.w3.org/1999/xlink">
	<!ENTITY st0 "font-size:7px;font-family:'MS-PGothic';adobe-font-script:japanese;">
	<!ENTITY st1 "font-size:6px;font-family:'ArialMT';">
	<!-- White fill  -->
	<!ENTITY st2 "fill:#FFFFFF;stroke:#000000; stroke-width:1.41;stroke-linecap:round;stroke-linejoin:round;">
	<!-- Yellow fill  -->
	<!ENTITY st3 "fill:#FFFFCC;stroke:#FFFFCC; stroke-width:0.1;stroke-linecap:round;stroke-linejoin:round;">
	<!-- Gray fill  -->
	<!ENTITY st4 "fill:#CCCCCC;stroke:#CCCCCC; stroke-width:0.1;stroke-linecap:round;stroke-linejoin:round;">
	<!-- Light-blue fill -->
	<!ENTITY st5 "fill:#CCECF4;stroke:#000000; stroke-width:1.133;stroke-linecap:round;stroke-linejoin:round;">
	<!ENTITY st6 "fill:none;stroke-linecap:butt; stroke-linejoin:round;">
	<!ENTITY st7 "fill:none;stroke:#000000;stroke-linecap:round;stroke-linejoin:round;">
	<!ENTITY st8 "enable-background:new    ;">
	<!-- Black fill -->
	<!ENTITY st9 "fill:#000000;stroke:#000000; stroke-linecap:round;stroke-linejoin:round;">
	<!-- SRS note   -->
	<!ENTITY st10 "font-size:9px;font-family:'ArialMT';">
	<!ENTITY st11 "font-size:9px;font-family:'Svg Symbol';">
	<!ENTITY st12 "font-size:6px;font-family:'Svg Symbol';">
	<!ENTITY st13 "fill:none;stroke:#ff0000;stroke-linecap:round;stroke-linejoin:round;">
	<!-- Yellow fill  -->
	<!ENTITY st14 "fill:#FFFF00;stroke:#FFFF00; stroke-width:0.1;stroke-linecap:round;stroke-linejoin:round;">
	<!ENTITY st15 "font-size:6px;font-family:'MS-PGothic';adobe-font-script:japanese;">
	<!ENTITY st16 "1.00 0.00 0.00 1.00">
	<!ENTITY st17 "0.00 -1.00 1.00 0.00">
	<!ENTITY st18 "font-size:6px;font-family:'Arial';">
	<!ENTITY st19 "font-size:9px;font-family:'Arial';">
	<!ENTITY st20 "font-size:6px;font-family:'MS-PGothic','MS PGothic';adobe-font-script:japanese;">
	<!ENTITY st21 "font-size:7px;font-family:'MS-PGothic','MS PGothic';adobe-font-script:japanese;">
	<!ATTLIST svg
		xmlns:ewd CDATA #FIXED "http://shcl.co.jp/ewd"
		xmlns:a CDATA #FIXED "http://ns.adobe.com/AdobeSVGViewerExtensions/3.0/"
		ewd:ver CDATA #IMPLIED
	>
	<!ATTLIST a
		ewd:lineID CDATA #IMPLIED
		ewd:groupID CDATA #IMPLIED
		ewd:figtype CDATA #IMPLIED
		ewd:code CDATA #IMPLIED
		ewd:figID CDATA #IMPLIED
		ewd:pinNo CDATA #IMPLIED
		ewd:comment CDATA #IMPLIED >
	<!ATTLIST g
		ewd:lineID CDATA #IMPLIED
		ewd:groupID CDATA #IMPLIED
		ewd:figtype CDATA #IMPLIED
		ewd:code CDATA #IMPLIED
		ewd:figID CDATA #IMPLIED
		ewd:pinNo CDATA #IMPLIED
		ewd:comment CDATA #IMPLIED >
	<!ATTLIST text
		ewd:textID CDATA #IMPLIED >
	<!ATTLIST title
		ewd:textID CDATA #IMPLIED >
]>
<!-- Generator: Shintec Hozumi YS   -->
<svg onload="call_execInitLoadProc_svg('system')" style="overflow:visible;  enable-background:new 0 0 9310.735 710.000" viewBox="0 0 9310.735 710.000" height="710.000" width="9310.735" xml:space="preserve" ewd:ver="2.3.1.16" xmlns="&ns_svg;" xmlns:a="http://ns.adobe.com/AdobeSVGViewerExtensions/3.0/" xmlns:ewd="http://shcl.co.jp/ewd" xmlns:xlink="&ns_xlink;">
<text style="&st18;" transform="matrix(&st16;  6820.95  237.47 )">ECM</text><path style="stroke-width: 1.42 ;&st7;  " d=" M  6577.90,   324.73  L  6569.40,   324.73  " /><text style="&st18;" transform="matrix(&st17;  6565.71  305.25 )">B</text><text style="&st18;" transform="matrix(&st17;  6608.2  305.25 )">B</text><text style="&st18;" transform="matrix(&st17;  6577.04  311.73 )">(RHD)</text><text style="&st18;" transform="matrix(&st17;  6619.53  311.22 )">(LHD)</text><text style="&st18;" transform="matrix(&st17;  6565.71  351.99 )">B</text><text style="&st18;" transform="matrix(&st17;  6577.04  358.47 )">(RHD)</text><text style="&st18;" transform="matrix(&st17;  6565.71  449.73 )">B</text><text style="&st18;" transform="matrix(&st17;  6625.2  449.73 )">B</text><text style="&st18;" transform="matrix(&st17;  6684.69  449.73 )">B</text><text style="&st18;" transform="matrix(&st17;  6531.71  305.56 )">G</text><text style="&st18;" transform="matrix(&st17;  6509.05  311.73 )">(RHD)</text><text style="&st18;" transform="matrix(&st17;  6543.04  311.22 )">(LHD)</text><path style="stroke-width: 1.42 ;&st7;  " d=" M  6509.91,   324.73  L  6501.41,   324.73  " /><text style="&st18;" transform="matrix(&st17;  6509.05  358.47 )">(RHD)</text><path style="stroke-width: 1.42 ;&st7;  " d=" M  6824.36,   358.73  L  6815.86,   358.73  " /><path style="stroke-width: 1.42 ;&st7;  " d=" M  6960.34,   350.23  L  6951.84,   350.23  " /><text style="&st18;" transform="matrix(&st17;  6993.47  337.78 )">(LHD *14)</text><text style="&st18;" transform="matrix(&st17;  6982.14  326.5 )">B</text><text style="&st18;" transform="matrix(&st17;  6959.48  417.96 )">(RHD)</text><text style="&st18;" transform="matrix(&st17;  6948.14  411.48 )">B</text><text style="&st18;" transform="matrix(&st16;  6820.95  230.64 )">A29(A),C39(B),I84(C)</text><text style="&st18;" transform="matrix(&st17;  6882.99  337.78 )">(LHD *13)</text><text style="&st18;" transform="matrix(&st17;  6871.66  327.43 )">W</text><text style="&st18;" transform="matrix(&st17;  6812.17  420.91 )">W</text><text style="&st18;" transform="matrix(&st17;  6823.5  426.46 )">(RHD)</text><text style="&st18;" transform="matrix(&st17;  6812.17  327.43 )">W</text><text style="&st18;" transform="matrix(&st17;  6823.5  332.97 )">(RHD)</text><text style="&st18;" transform="matrix(&st17;  6948.14  326.5 )">B</text><text style="&st18;" transform="matrix(&st17;  6959.48  332.97 )">(RHD)</text><text style="&st18;" transform="matrix(&st17;  6846.16  327.43 )">W</text><text style="&st18;" transform="matrix(&st17;  6857.49  337.78 )">(LHD *14)</text><text style="&st18;" transform="matrix(&st16;  6688.15  669.48 )">B-R(*10 *20)</text><text style="&st18;" transform="matrix(&st16;  6756.14  669.48 )">B-R(*10 *20)</text><text style="&st18;" transform="matrix(&st17;  6778.17  327.43 )">W</text><text style="&st18;" transform="matrix(&st17;  6922.65  326.81 )">G</text><text style="&st18;" transform="matrix(&st17;  6789.5  337.78 )">(LHD *18)</text><text style="&st18;" transform="matrix(&st17;  6933.98  337.78 )">(LHD *18)</text><text style="&st18;" transform="matrix(&st17;  6696.02  454.19 )">(*19)</text><text style="&st18;" transform="matrix(&st16;  6751.52  550.5 )">W(LHD *19 *21)</text><text style="&st18;" transform="matrix(&st16;  6683.53  550.5 )">W(LHD *19 *21)</text><text style="&st18;" transform="matrix(&st16;  6751.95  533.5 )">P(RHD *19 *21)</text><text style="&st18;" transform="matrix(&st16;  6683.96  533.5 )">P(RHD *19 *21)</text><text style="&st18;" transform="matrix(&st16;  6771.1  601.49 )">B</text><text style="&st18;" transform="matrix(&st16;  6703.11  601.49 )">B</text><text style="&st18;" transform="matrix(&st16;  6770.79  618.48 )">G</text><text style="&st18;" transform="matrix(&st16;  6702.8  618.48 )">G</text><text style="&st18;" transform="matrix(&st16;  6755.17  635.48 )">R-W(*19 *20)</text><text style="&st18;" transform="matrix(&st16;  6687.18  635.48 )">R-W(*19 *20)</text><text style="&st18;" transform="matrix(&st16;  6770.79  652.48 )">G</text><text style="&st18;" transform="matrix(&st16;  6702.8  652.48 )">G</text><text style="&st18;" transform="matrix(&st16;  6759.12  686.47 )">R(*10 *21)</text><text style="&st18;" transform="matrix(&st16;  6691.13  686.47 )">R(*10 *21)</text><g ewd:figtype="conn" ewd:figID="71" ewd:code="I59,I70"><path style="stroke-width: 0.85 ;&st7; stroke-dasharray:3, 1.5;" d=" M  6577.90,   422.75  L  6616.14,   422.75  " /><path style="stroke-width: 0.85 ;&st7; stroke-dasharray:3, 1.5;" d=" M  6577.90,   431.81  L  6616.14,   431.81  " /><path style="stroke-width: 0.85 ;&st7; stroke-dasharray:3, 1.5;" d=" M  6637.39,   431.81  L  6675.63,   431.81  " /><path style="stroke-width: 0.85 ;&st7; stroke-dasharray:3, 1.5;" d=" M  6637.39,   422.75  L  6675.63,   422.75  " /><path style="stroke-width: 1.42 ;&st7;  " d=" M  6560.90,   418.22  L  6696.88,   418.22  L  6696.88,   401.22  L  6560.90,   401.22  L  6560.90,   418.22  " /><path style="stroke-width: 0.85 ;&st7;  " d=" M  6569.40,   401.22  L  6569.40,   418.22  " /><path style="stroke-width: 0.85 ;&st7;  " d=" M  6569.40,   409.72  L  6688.38,   409.72  L  6688.38,   418.22  " /><path style="stroke-width: 0.85 ;&st7;  " d=" M  6628.89,   409.72  L  6628.89,   418.22  " /><path style="stroke-width: 0.85 ;&st7;  " d=" M  6568.21,   408.71  L  6567.93,   409.18  L  6567.84,   409.72  L  6567.93,   410.25  L  6568.21,   410.72  L  6568.62,   411.07  L  6569.13,   411.25  L  6569.67,   411.25  L  6570.18,   411.07  L  6570.59,   410.72  L  6570.86,   410.25  L  6570.96,   409.72  L  6570.86,   409.18  L  6570.59,   408.71  L  6570.18,   408.37  L  6569.67,   408.18  L  6569.13,   408.18  L  6568.62,   408.37  L  6568.21,   408.71  L  6568.60,   409.43  L  6568.60,   410.01  L  6568.97,   410.45  L  6569.55,   410.55  L  6570.05,   410.26  L  6570.25,   409.72  L  6570.05,   409.17  L  6569.55,   408.88  L  6568.97,   408.98  L  6569.40,   409.72  " /><path style="stroke-width: 0.85 ;&st7;  " d=" M  6627.70,   408.71  L  6627.43,   409.18  L  6627.33,   409.72  L  6627.43,   410.25  L  6627.70,   410.72  L  6628.11,   411.07  L  6628.62,   411.25  L  6629.16,   411.25  L  6629.67,   411.07  L  6630.08,   410.72  L  6630.35,   410.25  L  6630.45,   409.72  L  6630.35,   409.18  L  6630.08,   408.71  L  6629.67,   408.37  L  6629.16,   408.18  L  6628.62,   408.18  L  6628.11,   408.37  L  6627.70,   408.71  L  6628.09,   409.43  L  6628.09,   410.01  L  6628.46,   410.45  L  6629.04,   410.55  L  6629.54,   410.26  L  6629.74,   409.72  L  6629.54,   409.17  L  6629.04,   408.88  L  6628.46,   408.98  L  6628.89,   409.72  " /><text style="&st18;" transform="matrix(&st16;  6559.92  433.78 )">6</text><text style="&st18;" transform="matrix(&st16;  6559.92  424.72 )">6</text><path style="stroke-width: 1.42 ;&st7;   " d=" M  6573.93,   422.75  C  6573.93    420.24   6571.91    418.22   6569.40    418.22  " /><path style="stroke-width: 1.42 ;&st7;   " d=" M  6569.40,   418.22  C  6566.90    418.22   6564.87    420.24   6564.87    422.75  " /><path style="stroke-width: 1.42 ;&st7;   " d=" M  6564.87,   422.75  C  6564.87    425.25   6566.90    427.28   6569.40    427.28  " /><path style="stroke-width: 1.42 ;&st7;   " d=" M  6569.40,   427.28  C  6571.91    427.28   6573.93    425.25   6573.93    422.75  " /><path style="stroke-width: 1.42 ;&st7;   " d=" M  6573.93,   431.81  C  6573.93    429.31   6571.91    427.28   6569.40    427.28  " /><path style="stroke-width: 1.42 ;&st7;   " d=" M  6569.40,   427.28  C  6566.90    427.28   6564.87    429.31   6564.87    431.81  " /><path style="stroke-width: 1.42 ;&st7;   " d=" M  6564.87,   431.81  C  6564.87    434.32   6566.90    436.35   6569.40    436.35  " /><path style="stroke-width: 1.42 ;&st7;   " d=" M  6569.40,   436.35  C  6571.91    436.35   6573.93    434.32   6573.93    431.81  " /><text style="&st18;" transform="matrix(&st16;  6567.14  424.72 )">A</text><text style="&st18;" transform="matrix(&st16;  6567.14  433.78 )">B</text><text style="&st18;" transform="matrix(&st16;  6559.92  389.59 )">5</text><text style="&st18;" transform="matrix(&st16;  6559.92  398.65 )">5</text><path style="stroke-width: 1.42 ;&st7;   " d=" M  6573.93,   387.62  C  6573.93    385.12   6571.91    383.09   6569.40    383.09  " /><path style="stroke-width: 1.42 ;&st7;   " d=" M  6569.40,   383.09  C  6566.90    383.09   6564.87    385.12   6564.87    387.62  " /><path style="stroke-width: 1.42 ;&st7;   " d=" M  6564.87,   387.62  C  6564.87    390.12   6566.90    392.15   6569.40    392.15  " /><path style="stroke-width: 1.42 ;&st7;   " d=" M  6569.40,   392.15  C  6571.91    392.15   6573.93    390.12   6573.93    387.62  " /><text style="&st18;" transform="matrix(&st16;  6567.14  398.65 )">B</text><path style="stroke-width: 1.42 ;&st7;   " d=" M  6573.93,   396.69  C  6573.93    394.18   6571.91    392.15   6569.40    392.15  " /><path style="stroke-width: 1.42 ;&st7;   " d=" M  6569.40,   392.15  C  6566.90    392.15   6564.87    394.18   6564.87    396.69  " /><path style="stroke-width: 1.42 ;&st7;   " d=" M  6564.87,   396.69  C  6564.87    399.19   6566.90    401.22   6569.40    401.22  " /><path style="stroke-width: 1.42 ;&st7;   " d=" M  6569.40,   401.22  C  6571.91    401.22   6573.93    399.19   6573.93    396.69  " /><text style="&st18;" transform="matrix(&st16;  6567.14  389.59 )">A</text><text style="&st18;" transform="matrix(&st16;  6619.41  424.72 )">7</text><text style="&st18;" transform="matrix(&st16;  6619.41  433.78 )">7</text><text style="&st18;" transform="matrix(&st16;  6626.63  424.72 )">A</text><path style="stroke-width: 1.42 ;&st7;   " d=" M  6633.42,   431.81  C  6633.42    429.31   6631.40    427.28   6628.89    427.28  " /><path style="stroke-width: 1.42 ;&st7;   " d=" M  6628.89,   427.28  C  6626.39    427.28   6624.36    429.31   6624.36    431.81  " /><path style="stroke-width: 1.42 ;&st7;   " d=" M  6624.36,   431.81  C  6624.36    434.32   6626.39    436.35   6628.89    436.35  " /><path style="stroke-width: 1.42 ;&st7;   " d=" M  6628.89,   436.35  C  6631.40    436.35   6633.42    434.32   6633.42    431.81  " /><path style="stroke-width: 1.42 ;&st7;   " d=" M  6633.42,   422.75  C  6633.42    420.24   6631.40    418.22   6628.89    418.22  " /><path style="stroke-width: 1.42 ;&st7;   " d=" M  6628.89,   418.22  C  6626.39    418.22   6624.36    420.24   6624.36    422.75  " /><path style="stroke-width: 1.42 ;&st7;   " d=" M  6624.36,   422.75  C  6624.36    425.25   6626.39    427.28   6628.89    427.28  " /><path style="stroke-width: 1.42 ;&st7;   " d=" M  6628.89,   427.28  C  6631.40    427.28   6633.42    425.25   6633.42    422.75  " /><text style="&st18;" transform="matrix(&st16;  6626.63  433.78 )">B</text><text style="&st18;" transform="matrix(&st16;  6678.9  424.72 )">4</text><text style="&st18;" transform="matrix(&st16;  6678.9  433.78 )">4</text><text style="&st18;" transform="matrix(&st16;  6686.12  424.72 )">A</text><text style="&st18;" transform="matrix(&st16;  6686.12  433.78 )">B</text><path style="stroke-width: 1.42 ;&st7;   " d=" M  6692.92,   422.75  C  6692.92    420.24   6690.89    418.22   6688.38    418.22  " /><path style="stroke-width: 1.42 ;&st7;   " d=" M  6688.38,   418.22  C  6685.88    418.22   6683.85    420.24   6683.85    422.75  " /><path style="stroke-width: 1.42 ;&st7;   " d=" M  6683.85,   422.75  C  6683.85    425.25   6685.88    427.28   6688.38    427.28  " /><path style="stroke-width: 1.42 ;&st7;   " d=" M  6688.38,   427.28  C  6690.89    427.28   6692.92    425.25   6692.92    422.75  " /><path style="stroke-width: 1.42 ;&st7;   " d=" M  6692.92,   431.81  C  6692.92    429.31   6690.89    427.28   6688.38    427.28  " /><path style="stroke-width: 1.42 ;&st7;   " d=" M  6688.38,   427.28  C  6685.88    427.28   6683.85    429.31   6683.85    431.81  " /><path style="stroke-width: 1.42 ;&st7;   " d=" M  6683.85,   431.81  C  6683.85    434.32   6685.88    436.35   6688.38    436.35  " /><path style="stroke-width: 1.42 ;&st7;   " d=" M  6688.38,   436.35  C  6690.89    436.35   6692.92    434.32   6692.92    431.81  " /><g ewd:figtype="title"><text style="&st18;" transform="matrix(&st16;  6625.49  391.57 )" ewd:textID="74">No. 10 Junction <tspan x="0 " dy="6.0">Connector</tspan></text><text style="&st18;" transform="matrix(&st16;  6625.48  384.75 )">I59(B)</text><text style="&st18;" transform="matrix(&st16;  6625.49  371.46 )" ewd:textID="83">No. 19 Junction <tspan x="0 " dy="6.0">Connector</tspan></text><text style="&st18;" transform="matrix(&st16;  6625.48  364.64 )">I70(A)</text></g><g ewd:code="" ewd:figID="373" ewd:comment="" ewd:figtype="commref"><text style="&st18;" transform="matrix(&st16;  6574.5  389.59 )">(LHD)</text></g><g ewd:code="" ewd:figID="374" ewd:comment="" ewd:figtype="commref"><text style="&st18;" transform="matrix(&st16;  6574.5  398.65 )">(RHD)</text></g><g ewd:code="" ewd:figID="449" ewd:comment="" ewd:figtype="commref"><text style="&st18;" transform="matrix(&st16;  6693.48  433.78 )">(RHD)</text></g><g ewd:code="" ewd:figID="450" ewd:comment="" ewd:figtype="commref"><text style="&st18;" transform="matrix(&st16;  6693.48  424.72 )">(LHD)</text></g></g><g ewd:figtype="conn" ewd:figID="84" ewd:code="A29,C39,I84"><path style="stroke-width: 0.85 ;&st7; stroke-dasharray:3, 1.5;" d=" M  6509.91,   261.28  L  6552.40,   261.28  " /><path style="stroke-width: 0.85 ;&st7; stroke-dasharray:3, 1.5;" d=" M  6509.91,   270.34  L  6552.40,   270.34  " /><path style="stroke-width: 0.85 ;&st7; stroke-dasharray:3, 1.5;" d=" M  6858.35,   270.34  L  6968.83,   270.34  " /><path style="stroke-width: 0.85 ;&st7; stroke-dasharray:3, 1.5;" d=" M  6858.35,   261.28  L  6968.83,   261.28  " /><g ewd:lineID="340,341"><path style="stroke-width: 1.42 ;&st7;   " d=" M  6505.95,   261.27  C  6505.95    258.77   6503.92    256.74   6501.41    256.74  " /><path style="stroke-width: 1.42 ;&st7;   " d=" M  6501.41,   256.74  C  6498.91    256.74   6496.88    258.77   6496.88    261.27  " /><path style="stroke-width: 1.42 ;&st7;   " d=" M  6501.41,   265.81  C  6503.92    265.81   6505.95    263.78   6505.95    261.27  " /><path style="stroke-width: 1.42 ;&st7;   " d=" M  6505.95,   270.34  C  6505.95    267.84   6503.92    265.81   6501.41    265.81  " /><path style="stroke-width: 1.42 ;&st7;   " d=" M  6501.41,   265.81  C  6498.91    265.81   6496.88    267.84   6496.88    270.34  " /><path style="stroke-width: 1.42 ;&st7;   " d=" M  6501.41,   274.87  C  6503.92    274.87   6505.95    272.84   6505.95    270.34  " /></g><g ewd:lineID="344,345"><text style="&st18;" transform="matrix(&st16;  6556.59  272.31 )">15</text><text style="&st18;" transform="matrix(&st16;  6556.59  263.24 )">15</text><text style="&st18;" transform="matrix(&st16;  6567.14  272.31 )">A</text><path style="stroke-width: 1.42 ;&st7;   " d=" M  6573.93,   270.34  C  6573.93    267.84   6571.91    265.81   6569.40    265.81  " /><path style="stroke-width: 1.42 ;&st7;   " d=" M  6569.40,   265.81  C  6566.90    265.81   6564.87    267.84   6564.87    270.34  " /><path style="stroke-width: 1.42 ;&st7;   " d=" M  6564.87,   270.34  C  6564.87    272.84   6566.90    274.87   6569.40    274.87  " /><path style="stroke-width: 1.42 ;&st7;   " d=" M  6569.40,   274.87  C  6571.91    274.87   6573.93    272.84   6573.93    270.34  " /><path style="stroke-width: 1.42 ;&st7;   " d=" M  6573.93,   261.27  C  6573.93    258.77   6571.91    256.74   6569.40    256.74  " /><path style="stroke-width: 1.42 ;&st7;   " d=" M  6569.40,   256.74  C  6566.90    256.74   6564.87    258.77   6564.87    261.27  " /><path style="stroke-width: 1.42 ;&st7;   " d=" M  6564.87,   261.27  C  6564.87    263.78   6566.90    265.81   6569.40    265.81  " /><path style="stroke-width: 1.42 ;&st7;   " d=" M  6569.40,   265.81  C  6571.91    265.81   6573.93    263.78   6573.93    261.27  " /><text style="&st18;" transform="matrix(&st16;  6566.98  263.24 )">C</text><text style="&st18;" transform="matrix(&st16;  6560.93  253.05 )">TACH</text></g><g ewd:lineID="349,350,351,358"><text style="&st18;" transform="matrix(&st16;  6837.04  263.24 )">49</text><text style="&st18;" transform="matrix(&st16;  6837.04  272.31 )">49</text><path style="stroke-width: 1.42 ;&st7;   " d=" M  6854.39,   270.34  C  6854.39    267.84   6852.36    265.81   6849.86    265.81  " /><path style="stroke-width: 1.42 ;&st7;   " d=" M  6849.86,   265.81  C  6847.35    265.81   6845.32    267.84   6845.32    270.34  " /><path style="stroke-width: 1.42 ;&st7;   " d=" M  6845.32,   270.34  C  6845.32    272.84   6847.35    274.87   6849.86    274.87  " /><path style="stroke-width: 1.42 ;&st7;   " d=" M  6849.86,   274.87  C  6852.36    274.87   6854.39    272.84   6854.39    270.34  " /><text style="&st18;" transform="matrix(&st16;  6847.59  272.31 )">A</text><text style="&st18;" transform="matrix(&st16;  6847.43  263.24 )">C</text><path style="stroke-width: 1.42 ;&st7;   " d=" M  6854.39,   261.27  C  6854.39    258.77   6852.36    256.74   6849.86    256.74  " /><path style="stroke-width: 1.42 ;&st7;   " d=" M  6849.86,   256.74  C  6847.35    256.74   6845.32    258.77   6845.32    261.27  " /><path style="stroke-width: 1.42 ;&st7;   " d=" M  6845.32,   261.27  C  6845.32    263.78   6847.35    265.81   6849.86    265.81  " /><path style="stroke-width: 1.42 ;&st7;   " d=" M  6849.86,   265.81  C  6852.36    265.81   6854.39    263.78   6854.39    261.27  " /><text style="&st18;" transform="matrix(&st16;  6841.58  253.05 )">CANL</text></g><g ewd:lineID="353,354,355,356"><text style="&st18;" transform="matrix(&st16;  6973.02  272.31 )">41</text><text style="&st18;" transform="matrix(&st16;  6973.02  263.24 )">41</text><text style="&st18;" transform="matrix(&st16;  6983.57  272.31 )">A</text><path style="stroke-width: 1.42 ;&st7;   " d=" M  6990.37,   261.27  C  6990.37    258.77   6988.34    256.74   6985.83    256.74  " /><path style="stroke-width: 1.42 ;&st7;   " d=" M  6985.83,   256.74  C  6983.33    256.74   6981.30    258.77   6981.30    261.27  " /><path style="stroke-width: 1.42 ;&st7;   " d=" M  6981.30,   261.27  C  6981.30    263.78   6983.33    265.81   6985.83    265.81  " /><path style="stroke-width: 1.42 ;&st7;   " d=" M  6985.83,   265.81  C  6988.34    265.81   6990.37    263.78   6990.37    261.27  " /><path style="stroke-width: 1.42 ;&st7;   " d=" M  6990.37,   270.34  C  6990.37    267.84   6988.34    265.81   6985.83    265.81  " /><path style="stroke-width: 1.42 ;&st7;   " d=" M  6985.83,   265.81  C  6983.33    265.81   6981.30    267.84   6981.30    270.34  " /><path style="stroke-width: 1.42 ;&st7;   " d=" M  6981.30,   270.34  C  6981.30    272.84   6983.33    274.87   6985.83    274.87  " /><path style="stroke-width: 1.42 ;&st7;   " d=" M  6985.83,   274.87  C  6988.34    274.87   6990.37    272.84   6990.37    270.34  " /><text style="&st18;" transform="matrix(&st16;  6983.41  263.24 )">C</text><text style="&st18;" transform="matrix(&st16;  6977.05  253.05 )">CANH</text></g></g><g ewd:figtype="w2w" ewd:figID="190" ewd:code="AI3"><path style="stroke-width: 1.42 ;&st7;  " d=" M  6573.65,   333.80  L  6569.40,   329.55  L  6565.15,   333.80  " /><path style="stroke-width: 1.42 ;&st7;  " d=" M  6573.65,   330.40  L  6569.40,   326.15  L  6565.15,   330.40  " /><text style="&st18;" transform="matrix(&st16;  6552.65  322.45 )">45</text></g><g ewd:figtype="w2w" ewd:figID="191" ewd:code="AI3"><path style="stroke-width: 1.42 ;&st7;  " d=" M  6820.11,   367.79  L  6815.86,   363.54  L  6811.61,   367.79  " /><path style="stroke-width: 1.42 ;&st7;  " d=" M  6820.11,   364.39  L  6815.86,   360.14  L  6811.61,   364.39  " /><text style="&st18;" transform="matrix(&st16;  6799.11  356.45 )">58</text></g><g ewd:figtype="w2w" ewd:figID="192" ewd:code="AI3"><text style="&st18;" transform="matrix(&st16;  6935.09  347.95 )">57</text><path style="stroke-width: 1.42 ;&st7;  " d=" M  6956.08,   355.89  L  6951.84,   351.64  L  6947.59,   355.89  " /><path style="stroke-width: 1.42 ;&st7;  " d=" M  6956.08,   359.29  L  6951.84,   355.04  L  6947.59,   359.29  " /></g><g ewd:figtype="annex" ewd:figID="110" ewd:code=" "><path style="stroke-width: 1.42 ;&st7;  " d=" M  6628.89,   477.71  L  6633.95,   466.34  " /><path style="stroke-width: 1.42 ;&st7;  " d=" M  6628.89,   477.71  L  6623.83,   466.34  " /><text style="&st18;" transform="matrix(&st17;  6622.39  505.87 )" ewd:textID="39">Cooler <tspan x="0 " dy="6.0">Stabilizer </tspan><tspan x="0 " dy="6.0">Amplifier </tspan><tspan x="0 " dy="6.0">Assembly</tspan></text></g><g ewd:figtype="annex" ewd:figID="111" ewd:code=" "><path style="stroke-width: 1.42 ;&st7;  " d=" M  6688.38,   477.71  L  6693.44,   466.34  " /><path style="stroke-width: 1.42 ;&st7;  " d=" M  6688.38,   477.71  L  6683.32,   466.34  "/><text style="&st18;" transform="matrix(&st17;  6684.71  513.55 )" ewd:textID="38">Combination <tspan x="0 " dy="6.0">Meter </tspan><tspan x="0 " dy="6.0">Assembly</tspan></text></g><g ewd:code="" ewd:figID="365" ewd:comment="" ewd:figtype="commref"><text style="&st18;" transform="matrix(&st16;  6574.5  272.31 )">(RHD)</text></g><g ewd:code="" ewd:figID="366" ewd:comment="" ewd:figtype="commref"><text style="&st18;" transform="matrix(&st16;  6574.5  263.24 )">(LHD)</text></g><g ewd:code="" ewd:figID="392" ewd:comment="" ewd:figtype="commref"><text style="&st18;" transform="matrix(&st16;  6990.93  272.31 )">(RHD)</text></g><g ewd:code="" ewd:figID="393" ewd:comment="" ewd:figtype="commref"><text style="&st18;" transform="matrix(&st16;  6990.93  263.24 )">(LHD)</text></g><g ewd:code="21" ewd:figID="465" ewd:comment="" ewd:figtype="comment"><text style="&st18;" transform="matrix(&st16;  6837.95  131.23 )" ewd:textID="22">*21 :From Jul. 2021 Production</text></g><g ewd:code="14" ewd:figID="423" ewd:comment="" ewd:figtype="comment"><text style="&st18;" transform="matrix(&st16;  6837.95  97.24 )" ewd:textID="15">*14 :w/o ABS</text></g><g ewd:code="10" ewd:figID="406" ewd:comment="" ewd:figtype="comment"><text style="&st18;" transform="matrix(&st16;  6837.95  80.24 )" ewd:textID="11">*10 :w/ PMP SELECT Relay</text></g><g ewd:code="13" ewd:figID="391" ewd:comment="" ewd:figtype="comment"><text style="&st18;" transform="matrix(&st16;  6837.95  88.74 )" ewd:textID="14">*13 :w/ ABS w/o VSC</text></g><g ewd:code="18" ewd:figID="413" ewd:comment="" ewd:figtype="comment"><text style="&st18;" transform="matrix(&st16;  6837.95  105.74 )" ewd:textID="19">*18 :w/ VSC</text></g><g ewd:code="24" ewd:figID="483" ewd:comment="" ewd:figtype="comment"><text style="&st18;" transform="matrix(&st16;  6837.95  139.73 )" ewd:textID="23">*24 :Before Sep. 2022 Production</text></g><g ewd:code="25" ewd:figID="484" ewd:comment="" ewd:figtype="comment"><text style="&st18;" transform="matrix(&st16;  6837.95  148.23 )" ewd:textID="24">*25 :From Sep. 2022 Production</text></g><g ewd:code="20" ewd:figID="464" ewd:comment="" ewd:figtype="comment"><text style="&st18;" transform="matrix(&st16;  6837.95  122.73 )" ewd:textID="21">*20 :Before Jul. 2021 Production</text></g><g ewd:code="19" ewd:figID="414" ewd:comment="" ewd:figtype="comment"><text style="&st18;" transform="matrix(&st16;  6837.95  114.24 )" ewd:textID="20">*19 :w/o VSC</text></g></svg>
