<?xml version="1.0" encoding="utf-8"?>
<!DOCTYPE svg PUBLIC "-//W3C//DTD SVG 1.0//EN" "http://www.w3.org/TR/2001/REC-SVG-20010904/DTD/svg10.dtd"[
	<!ENTITY ns_flows "http://ns.adobe.com/Flows/1.0/">
	<!ENTITY ns_svg "http://www.w3.org/2000/svg">
	<!ENTITY ns_xlink "http://www.w3.org/1999/xlink">
	<!ENTITY st0 "font-size:7px;font-family:'MS-PGothic';adobe-font-script:japanese;">
	<!ENTITY st1 "font-size:6px;font-family:'ArialMT';">
	<!-- White fill  -->
	<!ENTITY st2 "fill:#FFFFFF;stroke:#000000; stroke-width:1.41;stroke-linecap:round;stroke-linejoin:round;">
	<!-- Yellow fill  -->
	<!ENTITY st3 "fill:#FFFFCC;stroke:#FFFFCC; stroke-width:0.1;stroke-linecap:round;stroke-linejoin:round;">
	<!-- Gray fill  -->
	<!ENTITY st4 "fill:#CCCCCC;stroke:#CCCCCC; stroke-width:0.1;stroke-linecap:round;stroke-linejoin:round;">
	<!-- Light-blue fill -->
	<!ENTITY st5 "fill:#CCECF4;stroke:#000000; stroke-width:1.133;stroke-linecap:round;stroke-linejoin:round;">
	<!ENTITY st6 "fill:none;stroke-linecap:butt; stroke-linejoin:round;">
	<!ENTITY st7 "fill:none;stroke:#000000;stroke-linecap:round;stroke-linejoin:round;">
	<!ENTITY st8 "enable-background:new    ;">
	<!-- Black fill -->
	<!ENTITY st9 "fill:#000000;stroke:#000000; stroke-linecap:round;stroke-linejoin:round;">
	<!-- SRS note   -->
	<!ENTITY st10 "font-size:9px;font-family:'ArialMT';">
	<!ENTITY st11 "font-size:9px;font-family:'Svg Symbol';">
	<!ENTITY st12 "font-size:6px;font-family:'Svg Symbol';">
	<!ENTITY st13 "fill:none;stroke:#ff0000;stroke-linecap:round;stroke-linejoin:round;">
	<!-- Yellow fill  -->
	<!ENTITY st14 "fill:#FFFF00;stroke:#FFFF00; stroke-width:0.1;stroke-linecap:round;stroke-linejoin:round;">
	<!ENTITY st15 "font-size:6px;font-family:'MS-PGothic';adobe-font-script:japanese;">
	<!ENTITY st16 "1.00 0.00 0.00 1.00">
	<!ENTITY st17 "0.00 -1.00 1.00 0.00">
	<!ENTITY st18 "font-size:6px;font-family:'Arial';">
	<!ENTITY st19 "font-size:9px;font-family:'Arial';">
	<!ENTITY st20 "font-size:6px;font-family:'MS-PGothic','MS PGothic';adobe-font-script:japanese;">
	<!ENTITY st21 "font-size:7px;font-family:'MS-PGothic','MS PGothic';adobe-font-script:japanese;">
	<!ATTLIST svg
		xmlns:ewd CDATA #FIXED "http://shcl.co.jp/ewd"
		xmlns:a CDATA #FIXED "http://ns.adobe.com/AdobeSVGViewerExtensions/3.0/"
		ewd:ver CDATA #IMPLIED
	>
	<!ATTLIST a
		ewd:lineID CDATA #IMPLIED
		ewd:groupID CDATA #IMPLIED
		ewd:figtype CDATA #IMPLIED
		ewd:code CDATA #IMPLIED
		ewd:figID CDATA #IMPLIED
		ewd:pinNo CDATA #IMPLIED
		ewd:comment CDATA #IMPLIED >
	<!ATTLIST g
		ewd:lineID CDATA #IMPLIED
		ewd:groupID CDATA #IMPLIED
		ewd:figtype CDATA #IMPLIED
		ewd:code CDATA #IMPLIED
		ewd:figID CDATA #IMPLIED
		ewd:pinNo CDATA #IMPLIED
		ewd:comment CDATA #IMPLIED >
	<!ATTLIST text
		ewd:textID CDATA #IMPLIED >
	<!ATTLIST title
		ewd:textID CDATA #IMPLIED >
]>
<!-- Generator: Shintec Hozumi YS   -->
<svg onload="call_execInitLoadProc_svg('system')" style="overflow:visible;  enable-background:new 0 0 9310.735 710.000" viewBox="0 0 9310.735 710.000" height="710.000" width="9310.735" xml:space="preserve" ewd:ver="2.3.1.16" xmlns="&ns_svg;" xmlns:a="http://ns.adobe.com/AdobeSVGViewerExtensions/3.0/" xmlns:ewd="http://shcl.co.jp/ewd" xmlns:xlink="&ns_xlink;">
<path style="stroke-width: 1.42 ;&st7;  " d=" M   144.48,   418.22  L   152.97,   418.22  " /><path style="stroke-width: 1.42 ;&st7;  " d=" M   161.47,   367.22  L   152.97,   367.22  " /><path style="stroke-width: 1.42 ;&st7;  " d=" M   144.48,   231.25  L   152.97,   231.25  " /><path style="stroke-width: 1.42 ;&st7;  " d=" M   161.47,   180.26  L   152.97,   180.26  " /><path style="stroke-width: 1.42 ;&st7;  " d=" M   161.47,   103.77  L   152.97,   103.77  " /><path style="stroke-width: 1.42 ;&st7;  " d=" M   339.94,   503.20  L   348.44,   503.20  " /><path style="stroke-width: 1.42 ;&st7;  " d=" M   356.94,   358.73  L   348.44,   358.73  " /><path style="stroke-width: 1.42 ;&st7;  " d=" M   280.45,   256.74  L   288.95,   256.74  " /><path style="stroke-width: 1.42 ;&st7;  " d=" M   399.43,   290.74  L   390.93,   290.74  " /><path style="stroke-width: 1.42 ;&st7;  " d=" M   297.45,   171.76  L   288.95,   171.76  " /><path style="stroke-width: 1.42 ;&st7;  " d=" M   399.43,   171.76  L   390.93,   171.76  " /><path style="stroke-width: 1.42 ;&st7;  " d=" M   424.93,   154.76  L   433.43,   154.76  " /><path style="stroke-width: 1.42 ;&st7;  " d=" M   467.42,   154.76  L   475.92,   154.76  " /><path style="stroke-width: 1.42 ;&st7;  " d=" M    59.49,    95.27  L    50.99,    95.27  " /><path style="stroke-width: 1.42 ;&st7;  " d=" M    59.49,   593.16  L    54.52,   588.19  " /><path style="stroke-width: 1.42 ;&st7;  " d=" M    42.49,   600.22  L    47.46,   605.18  " /><path style="stroke-width: 1.42 ;&st7;  " d=" M    54.52,   605.18  L    59.49,   600.22  " /><path style="stroke-width: 1.42 ;&st7;  " d=" M    47.46,   588.19  L    42.49,   593.16  " /><path style="stroke-width: 1.42 ;&st7;  " d=" M   161.47,   491.18  L   156.50,   486.20  " /><path style="stroke-width: 1.42 ;&st7;  " d=" M   144.48,   498.23  L   149.44,   503.20  " /><path style="stroke-width: 1.42 ;&st7;  " d=" M   156.50,   503.20  L   161.47,   498.23  " /><path style="stroke-width: 1.42 ;&st7;  " d=" M   149.44,   486.20  L   144.48,   491.18  " /><path style="stroke-width: 1.42 ;&st7;  " d=" M   297.45,   567.66  L   292.48,   562.69  " /><path style="stroke-width: 1.42 ;&st7;  " d=" M   280.45,   574.72  L   285.42,   579.69  " /><path style="stroke-width: 1.42 ;&st7;  " d=" M   292.48,   579.69  L   297.45,   574.72  " /><path style="stroke-width: 1.42 ;&st7;  " d=" M   285.42,   562.69  L   280.45,   567.66  " /><path style="stroke-width: 0.85 ;&st7; stroke-dasharray:3, 1.5;" d=" M   445.86,   167.51  L   459.23,   167.51  " /><path style="stroke-width: 0.85 ;&st7; stroke-dasharray:3, 1.5;" d=" M   459.23,   159.01  L   445.86,   159.01  " /><text style="&st18;" transform="matrix(&st17;  356.08  545.44 )">(*6,*9)</text><text style="&st18;" transform="matrix(&st17;  47.3  568.41 )">W-B</text><text style="&st18;" transform="matrix(&st17;  58.63  568.92 )">(*10)</text><text style="&st18;" transform="matrix(&st17;  47.3  474.11 )">B-R</text><text style="&st18;" transform="matrix(&st17;  58.63  480.74 )">(*10 *20)</text><text style="&st18;" transform="matrix(&st17;  47.3  350.88 )">B-R</text><text style="&st18;" transform="matrix(&st17;  58.63  357.52 )">(*10 *20)</text><text style="&st18;" transform="matrix(&st17;  47.3  261.65 )">B-R</text><text style="&st18;" transform="matrix(&st17;  58.63  268.28 )">(*10 *24)</text><text style="&st18;" transform="matrix(&st17;  98.29  491.11 )">B-R</text><text style="&st18;" transform="matrix(&st17;  109.62  497.74 )">(*10 *20)</text><text style="&st18;" transform="matrix(&st17;  191.77  619.4 )">W-B</text><text style="&st18;" transform="matrix(&st17;  203.1  621.92 )">(RHD)</text><text style="&st18;" transform="matrix(&st17;  149.28  474.93 )">W-B</text><text style="&st18;" transform="matrix(&st17;  160.61  476.94 )">(LHD)</text><text style="&st18;" transform="matrix(&st17;  191.77  483.43 )">W-B</text><text style="&st18;" transform="matrix(&st17;  203.1  485.95 )">(RHD)</text><text style="&st18;" transform="matrix(&st17;  149.28  398.44 )">W-B</text><text style="&st18;" transform="matrix(&st17;  149.28  347.45 )">W-B</text><text style="&st18;" transform="matrix(&st17;  149.28  258.51 )">P</text><text style="&st18;" transform="matrix(&st17;  149.28  207.52 )">P</text><text style="&st18;" transform="matrix(&st17;  149.28  131.03 )">P</text><text style="&st18;" transform="matrix(&st17;  160.61  137.0 )">(LHD)</text><text style="&st18;" transform="matrix(&st17;  217.27  131.03 )">P</text><text style="&st18;" transform="matrix(&st17;  228.6  137.51 )">(RHD)</text><text style="&st18;" transform="matrix(&st17;  149.28  80.04 )">P</text><text style="&st18;" transform="matrix(&st17;  160.61  86.01 )">(LHD)</text><text style="&st18;" transform="matrix(&st17;  47.3  138.42 )">B-R</text><text style="&st18;" transform="matrix(&st17;  58.63  145.05 )">(*10 *24)</text><text style="&st18;" transform="matrix(&st17;  285.26  542.92 )">W-B</text><text style="&st18;" transform="matrix(&st17;  296.59  545.44 )">(*5,*8)</text><text style="&st18;" transform="matrix(&st17;  234.27  542.92 )">W-B</text><text style="&st18;" transform="matrix(&st17;  245.6  541.75 )">(*7)</text><text style="&st18;" transform="matrix(&st17;  344.75  542.92 )">W-B</text><text style="&st18;" transform="matrix(&st17;  344.75  474.93 )">W-B</text><text style="&st18;" transform="matrix(&st17;  356.08  477.45 )">(*6,*9)</text><text style="&st18;" transform="matrix(&st17;  285.26  351.99 )">P</text><text style="&st18;" transform="matrix(&st17;  296.59  354.79 )">(*8)</text><text style="&st18;" transform="matrix(&st17;  234.26  351.99 )">P</text><text style="&st18;" transform="matrix(&st17;  245.6  354.79 )">(*7)</text><text style="&st18;" transform="matrix(&st17;  344.75  390.24 )">P</text><text style="&st18;" transform="matrix(&st17;  356.08  396.71 )">(*6,*9)</text><text style="&st18;" transform="matrix(&st17;  310.75  351.99 )">P</text><text style="&st18;" transform="matrix(&st17;  322.08  354.79 )">(*5)</text><text style="&st18;" transform="matrix(&st17;  387.24  318.0 )">P</text><text style="&st18;" transform="matrix(&st17;  398.57  320.79 )">(*6)</text><text style="&st18;" transform="matrix(&st17;  387.24  216.02 )">P</text><text style="&st18;" transform="matrix(&st17;  398.57  218.81 )">(*6)</text><text style="&st18;" transform="matrix(&st17;  285.26  216.02 )">B</text><text style="&st18;" transform="matrix(&st17;  296.59  218.81 )">(*4)</text><text style="&st18;" transform="matrix(&st16;  363.17  185.06 )">P</text><text style="&st18;" transform="matrix(&st16;  360.38  196.39 )">(*3)</text><text style="&st18;" transform="matrix(&st16;  329.18  219.05 )">B</text><text style="&st18;" transform="matrix(&st16;  326.39  230.38 )">(*5)</text><text style="&st18;" transform="matrix(&st17;  387.24  139.53 )">P</text><text style="&st18;" transform="matrix(&st17;  398.57  146.0 )">(*3,*6)</text><text style="&st18;" transform="matrix(&st17;  285.26  139.53 )">B</text><text style="&st18;" transform="matrix(&st17;  296.59  146.0 )">(*4,*5)</text><text style="&st18;" transform="matrix(&st17;  429.73  216.02 )">P</text><text style="&st18;" transform="matrix(&st17;  441.06  222.49 )">(*3,*6)</text><text style="&st18;" transform="matrix(&st17;  472.23  220.13 )">R-W</text><text style="&st18;" transform="matrix(&st17;  483.56  222.49 )">(*4,*5)</text><text style="&st18;" transform="matrix(&st17;  47.3  65.95 )">B-Y</text><text style="&st18;" transform="matrix(&st17;  58.63  67.5 )">(*10)</text><text style="&st18;" transform="matrix(&st16;  475.68  660.98 )">B-R(*10 *20)</text><text style="&st18;" transform="matrix(&st17;  285.26  619.4 )">W-B</text><text style="&st18;" transform="matrix(&st17;  47.3  644.9 )">W-B</text><text style="&st18;" transform="matrix(&st17;  58.63  645.4 )">(*10)</text><text style="&st18;" transform="matrix(&st17;  149.28  525.92 )">W-B</text><text style="&st18;" transform="matrix(&st17;  160.61  527.94 )">(LHD)</text><text style="&st18;" transform="matrix(&st17;  149.28  619.4 )">W-B</text><text style="&st18;" transform="matrix(&st17;  160.61  621.42 )">(LHD)</text><text style="&st18;" transform="matrix(&st16;  320.68  278.54 )">P</text><text style="&st18;" transform="matrix(&st16;  317.89  289.87 )">(*9)</text><text style="&st18;" transform="matrix(&st17;  296.59  618.24 )">(*1)</text><text style="&st18;" transform="matrix(&st16;  486.54  380.52 )">R-W</text><text style="&st18;" transform="matrix(&st16;  484.18  391.86 )">(*4,*5)</text><text style="&st18;" transform="matrix(&st16;  490.65  423.02 )">P</text><text style="&st18;" transform="matrix(&st16;  484.18  434.35 )">(*3,*6)</text><text style="&st18;" transform="matrix(&st16;  490.65  66.08 )">P</text><text style="&st18;" transform="matrix(&st16;  484.18  77.41 )">(RHD)</text><text style="&st18;" transform="matrix(&st16;  482.66  49.08 )">P(LHD)</text><text style="&st18;" transform="matrix(&st16;  481.27  32.08 )">B-Y(*10)</text><text style="&st18;" transform="matrix(&st17;  234.27  619.4 )">W-B</text><text style="&st18;" transform="matrix(&st17;  245.6  618.24 )">(*2)</text><text style="&st18;" transform="matrix(&st17;  356.08  618.24 )">(*1)</text><text style="&st18;" transform="matrix(&st17;  344.75  619.4 )">W-B</text><path style="stroke-width: 1.42 ;&st7;  " d=" M    59.49,   307.73  L    50.99,   307.73  " /><text style="&st18;" transform="matrix(&st17;  135.12  497.74 )">(*10 *21)</text><text style="&st18;" transform="matrix(&st17;  123.78  488.13 )">R</text><text style="&st18;" transform="matrix(&st16;  478.67  643.98 )">R(*10 *21)</text><text style="&st18;" transform="matrix(&st17;  72.79  347.74 )">P</text><text style="&st18;" transform="matrix(&st17;  84.12  357.52 )">(*10 *21)</text><text style="&st18;" transform="matrix(&st17;  21.8  471.13 )">R</text><text style="&st18;" transform="matrix(&st17;  33.13  480.74 )">(*10 *21)</text><text style="&st18;" transform="matrix(&st17;  72.79  135.43 )">R</text><text style="&st18;" transform="matrix(&st17;  84.12  145.05 )">(*10 *25)</text><text style="&st18;" transform="matrix(&st17;  72.79  258.51 )">P</text><text style="&st18;" transform="matrix(&st17;  84.12  268.28 )">(*10 *25)</text><g ewd:figtype="conn" ewd:figID="3" ewd:code="T3"><path style="stroke-width: 1.42 ;&st7;  " d=" M   233.71,   438.05  L   242.21,   438.05  " /><path style="stroke-width: 1.42 ;&st7;  " d=" M   233.71,   434.08  L   233.71,   438.05  " /><path style="stroke-width: 1.42 ;&st7;  " d=" M   242.21,   438.05  L   242.21,   434.08  " /><path style="stroke-width: 1.42 ;&st7;  " d=" M   233.71,   415.38  L   242.21,   415.38  " /><path style="stroke-width: 1.42 ;&st7;  " d=" M   233.71,   419.35  L   233.71,   415.38  " /><path style="stroke-width: 1.42 ;&st7;  " d=" M   242.21,   415.38  L   242.21,   419.35  " /><path style="stroke-width: 1.42 ;&st7;   " d=" M   229.46,   426.71  C   229.46    431.41    233.27    435.21    237.96    435.21  " /><path style="stroke-width: 1.42 ;&st7;   " d=" M   237.96,   435.21  C   242.65    435.21    246.46    431.41    246.46    426.71  " /><path style="stroke-width: 1.42 ;&st7;   " d=" M   246.46,   426.71  C   246.46    422.02    242.65    418.22    237.96    418.22  " /><path style="stroke-width: 1.42 ;&st7;   " d=" M   237.96,   418.22  C   233.27    418.22    229.46    422.02    229.46    426.71  " /><text style="&st18;" transform="matrix(&st16;  235.23  428.68 )">M</text><text style="&st18;" transform="matrix(&st16;  231.62  446.24 )">2</text><text style="&st18;" transform="matrix(&st16;  231.62  411.69 )">1</text><g ewd:figtype="title"><text style="&st18;" transform="matrix(&st17;  261.18  438.12 )" ewd:textID="52">Fuel Pump</text><text style="&st18;" transform="matrix(&st17;  254.35  438.11 )">T3</text></g></g><g ewd:figtype="conn" ewd:figID="4" ewd:code="T8"><path style="stroke-width: 1.42 ;&st7;  " d=" M   284.70,   438.05  L   293.20,   438.05  " /><path style="stroke-width: 1.42 ;&st7;  " d=" M   284.70,   434.08  L   284.70,   438.05  " /><path style="stroke-width: 1.42 ;&st7;  " d=" M   293.20,   438.05  L   293.20,   434.08  " /><path style="stroke-width: 1.42 ;&st7;  " d=" M   284.70,   415.38  L   293.20,   415.38  " /><path style="stroke-width: 1.42 ;&st7;  " d=" M   284.70,   419.35  L   284.70,   415.38  " /><path style="stroke-width: 1.42 ;&st7;  " d=" M   293.20,   415.38  L   293.20,   419.35  " /><path style="stroke-width: 1.42 ;&st7;   " d=" M   280.45,   426.71  C   280.45    431.41    284.26    435.21    288.95    435.21  " /><path style="stroke-width: 1.42 ;&st7;   " d=" M   288.95,   435.21  C   293.65    435.21    297.45    431.41    297.45    426.71  " /><path style="stroke-width: 1.42 ;&st7;   " d=" M   297.45,   426.71  C   297.45    422.02    293.65    418.22    288.95    418.22  " /><path style="stroke-width: 1.42 ;&st7;   " d=" M   288.95,   418.22  C   284.26    418.22    280.45    422.02    280.45    426.71  " /><text style="&st18;" transform="matrix(&st16;  286.22  428.68 )">M</text><text style="&st18;" transform="matrix(&st16;  282.61  446.24 )">6</text><text style="&st18;" transform="matrix(&st16;  282.61  411.69 )">1</text><g ewd:figtype="title"><text style="&st18;" transform="matrix(&st17;  312.17  438.12 )" ewd:textID="53">Fuel Pump <tspan x="0 " dy="6.0">(Sub)</tspan></text><text style="&st18;" transform="matrix(&st17;  305.34  438.11 )">T8</text></g></g><g ewd:figtype="conn" ewd:figID="5" ewd:code="X2"><path style="stroke-width: 1.42 ;&st7;  " d=" M   344.19,   438.05  L   352.69,   438.05  " /><path style="stroke-width: 1.42 ;&st7;  " d=" M   344.19,   434.08  L   344.19,   438.05  " /><path style="stroke-width: 1.42 ;&st7;  " d=" M   352.69,   438.05  L   352.69,   434.08  " /><path style="stroke-width: 1.42 ;&st7;  " d=" M   344.19,   415.38  L   352.69,   415.38  " /><path style="stroke-width: 1.42 ;&st7;  " d=" M   344.19,   419.35  L   344.19,   415.38  " /><path style="stroke-width: 1.42 ;&st7;  " d=" M   352.69,   415.38  L   352.69,   419.35  " /><path style="stroke-width: 1.42 ;&st7;   " d=" M   339.94,   426.71  C   339.94    431.41    343.75    435.21    348.44    435.21  " /><path style="stroke-width: 1.42 ;&st7;   " d=" M   348.44,   435.21  C   353.14    435.21    356.94    431.41    356.94    426.71  " /><path style="stroke-width: 1.42 ;&st7;   " d=" M   356.94,   426.71  C   356.94    422.02    353.14    418.22    348.44    418.22  " /><path style="stroke-width: 1.42 ;&st7;   " d=" M   348.44,   418.22  C   343.75    418.22    339.94    422.02    339.94    426.71  " /><text style="&st18;" transform="matrix(&st16;  345.71  428.68 )">M</text><text style="&st18;" transform="matrix(&st16;  342.1  446.24 )">2</text><text style="&st18;" transform="matrix(&st16;  342.1  411.69 )">1</text><g ewd:figtype="title"><text style="&st18;" transform="matrix(&st17;  371.66  438.12 )" ewd:textID="53">Fuel Pump <tspan x="0 " dy="6.0">(Sub)</tspan></text><text style="&st18;" transform="matrix(&st17;  364.83  438.11 )">X2</text></g></g><g ewd:figtype="conn" ewd:figID="10" ewd:code="I70,I106"><path style="stroke-width: 1.42 ;&st7;  " d=" M    42.49,   205.75  L    59.49,   205.75  L    59.49,   188.75  L    42.49,   188.75  L    42.49,   205.75  " /><path style="stroke-width: 0.85 ;&st7;  " d=" M    50.99,   205.75  L    50.99,   188.75  " /><text style="&st18;" transform="matrix(&st16;  41.51  186.19 )">4</text><text style="&st18;" transform="matrix(&st16;  41.51  177.13 )">1</text><path style="stroke-width: 1.42 ;&st7;   " d=" M    55.52,   184.22  C    55.52    181.72     53.49    179.69     50.99    179.69  " /><path style="stroke-width: 1.42 ;&st7;   " d=" M    50.99,   179.69  C    48.49    179.69     46.46    181.72     46.46    184.22  " /><path style="stroke-width: 1.42 ;&st7;   " d=" M    46.46,   184.22  C    46.46    186.72     48.49    188.75     50.99    188.75  " /><path style="stroke-width: 1.42 ;&st7;   " d=" M    50.99,   188.75  C    53.49    188.75     55.52    186.72     55.52    184.22  " /><path style="stroke-width: 1.42 ;&st7;   " d=" M    55.52,   175.16  C    55.52    172.65     53.49    170.62     50.99    170.62  " /><path style="stroke-width: 1.42 ;&st7;   " d=" M    50.99,   170.62  C    48.49    170.62     46.46    172.65     46.46    175.16  " /><path style="stroke-width: 1.42 ;&st7;   " d=" M    46.46,   175.16  C    46.46    177.66     48.49    179.69     50.99    179.69  " /><path style="stroke-width: 1.42 ;&st7;   " d=" M    50.99,   179.69  C    53.49    179.69     55.52    177.66     55.52    175.16  " /><text style="&st18;" transform="matrix(&st16;  48.73  186.19 )">B</text><text style="&st18;" transform="matrix(&st16;  48.73  177.13 )">A</text><text style="&st18;" transform="matrix(&st16;  41.51  212.25 )">2</text><text style="&st18;" transform="matrix(&st16;  41.51  221.32 )">5</text><path style="stroke-width: 1.42 ;&st7;   " d=" M    55.52,   210.28  C    55.52    207.78     53.49    205.75     50.99    205.75  " /><path style="stroke-width: 1.42 ;&st7;   " d=" M    50.99,   205.75  C    48.49    205.75     46.46    207.78     46.46    210.28  " /><path style="stroke-width: 1.42 ;&st7;   " d=" M    46.46,   210.28  C    46.46    212.79     48.49    214.82     50.99    214.82  " /><path style="stroke-width: 1.42 ;&st7;   " d=" M    50.99,   214.82  C    53.49    214.82     55.52    212.79     55.52    210.28  " /><path style="stroke-width: 1.42 ;&st7;   " d=" M    55.52,   219.35  C    55.52    216.85     53.49    214.82     50.99    214.82  " /><path style="stroke-width: 1.42 ;&st7;   " d=" M    50.99,   214.82  C    48.49    214.82     46.46    216.85     46.46    219.35  " /><path style="stroke-width: 1.42 ;&st7;   " d=" M    46.46,   219.35  C    46.46    221.85     48.49    223.88     50.99    223.88  " /><path style="stroke-width: 1.42 ;&st7;   " d=" M    50.99,   223.88  C    53.49    223.88     55.52    221.85     55.52    219.35  " /><text style="&st18;" transform="matrix(&st16;  48.73  221.32 )">B</text><text style="&st18;" transform="matrix(&st16;  48.73  212.25 )">A</text><g ewd:figtype="title"><text style="&st18;" transform="matrix(&st17;  31.97  208.65 )">I106(B)</text><text style="&st18;" transform="matrix(&st17;  38.8  208.66 )" ewd:textID="71">No. 9 Junction Connector</text><text style="&st18;" transform="matrix(&st17;  24.63  208.66 )" ewd:textID="83">No. 19 Junction Connector</text><text style="&st18;" transform="matrix(&st17;  17.81  208.65 )">I70(A)</text></g><g ewd:code="" ewd:figID="313" ewd:comment="" ewd:figtype="commref"><text style="&st18;" transform="matrix(&st16;  56.08  221.32 )">(RHD)</text></g><g ewd:code="" ewd:figID="314" ewd:comment="" ewd:figtype="commref"><text style="&st18;" transform="matrix(&st16;  56.08  212.25 )">(LHD)</text></g><g ewd:code="" ewd:figID="315" ewd:comment="" ewd:figtype="commref"><text style="&st18;" transform="matrix(&st16;  56.08  186.19 )">(RHD)</text></g><g ewd:code="" ewd:figID="316" ewd:comment="" ewd:figtype="commref"><text style="&st18;" transform="matrix(&st16;  56.08  177.13 )">(LHD)</text></g></g><g ewd:figtype="conn" ewd:figID="12" ewd:code="W1"><path style="stroke-width: 0.85 ;&st7;  " d=" M   152.97,   282.24  L   152.97,   290.74  " /><path style="stroke-width: 0.85 ;&st7;  " d=" M   152.97,   307.73  L   152.97,   316.23  " /><path style="stroke-width: 0.85 ;&st7;   " d=" M   150.44,   296.76  C   151.81    298.15    154.06    298.18    155.45    296.81  " /><path style="stroke-width: 0.85 ;&st7;   " d=" M   155.45,   296.81  C   156.85    295.44    156.87    293.20    155.50    291.80  " /><path style="stroke-width: 0.85 ;&st7;   " d=" M   155.50,   291.80  C   154.81    291.09    153.97    290.74    152.97    290.74  " /><path style="stroke-width: 0.85 ;&st7;   " d=" M   150.44,   301.71  C   151.81    303.11    154.06    303.13    155.45    301.77  " /><path style="stroke-width: 0.85 ;&st7;   " d=" M   155.45,   301.77  C   156.85    300.40    156.87    298.15    155.50    296.76  " /><path style="stroke-width: 0.85 ;&st7;   " d=" M   155.50,   296.76  C   154.14    295.36    151.89    295.34    150.50    296.71  " /><path style="stroke-width: 0.85 ;&st7;   " d=" M   150.50,   296.71  C   150.48    296.72    150.46    296.74    150.44    296.76  " /><path style="stroke-width: 0.85 ;&st7;   " d=" M   152.97,   307.73  C   154.93    307.73    156.52    306.15    156.52    304.19  " /><path style="stroke-width: 0.85 ;&st7;   " d=" M   156.52,   304.19  C   156.52    302.24    154.93    300.65    152.97    300.65  " /><path style="stroke-width: 0.85 ;&st7;   " d=" M   152.97,   300.65  C   151.98    300.65    151.14    301.01    150.45    301.71  " /><path style="stroke-width: 1.42 ;&st7;  " d=" M   161.47,   316.23  L   161.47,   282.24  L   144.48,   282.24  L   144.48,   316.23  L   161.47,   316.23  " /><text style="&st18;" transform="matrix(&st16;  146.64  324.43 )">2</text><text style="&st18;" transform="matrix(&st16;  146.64  278.55 )">1</text><g ewd:figtype="title"><text style="&st18;" transform="matrix(&st17;  169.37  319.13 )">W1</text><text style="&st18;" transform="matrix(&st17;  176.19  319.14 )" ewd:textID="55">Fuel Tank Solenoid <tspan x="0 " dy="6.0">Return Valve Assembly</tspan></text></g></g><g ewd:figtype="conn" ewd:figID="13" ewd:code="L32,L36"><path style="stroke-width: 0.85 ;&st7; stroke-dasharray:3, 1.5;" d=" M    59.49,   422.75  L    84.99,   422.75  " /><path style="stroke-width: 0.85 ;&st7; stroke-dasharray:3, 1.5;" d=" M    59.49,   431.81  L    84.99,   431.81  " /><path style="stroke-width: 1.42 ;&st7;  " d=" M    42.49,   418.22  L   110.48,   418.22  L   110.48,   401.22  L    42.49,   401.22  L    42.49,   418.22  " /><path style="stroke-width: 0.85 ;&st7;  " d=" M    50.99,   401.22  L    50.99,   409.72  L   101.98,   409.72  L   101.98,   418.22  " /><path style="stroke-width: 0.85 ;&st7;  " d=" M    49.80,   408.71  L    49.53,   409.18  L    49.43,   409.72  L    49.53,   410.25  L    49.80,   410.72  L    50.21,   411.07  L    50.72,   411.25  L    51.26,   411.25  L    51.77,   411.07  L    52.18,   410.72  L    52.46,   410.25  L    52.55,   409.72  L    52.46,   409.18  L    52.18,   408.71  L    51.77,   408.37  L    51.26,   408.18  L    50.72,   408.18  L    50.21,   408.37  L    49.80,   408.71  L    50.19,   409.43  L    50.19,   410.01  L    50.57,   410.45  L    51.14,   410.55  L    51.64,   410.26  L    51.84,   409.72  L    51.64,   409.17  L    51.14,   408.88  L    50.57,   408.98  L    50.99,   409.72  " /><path style="stroke-width: 0.85 ;&st7;  " d=" M    50.99,   409.72  L    50.99,   418.22  " /><text style="&st18;" transform="matrix(&st16;  89.17  433.78 )">14</text><text style="&st18;" transform="matrix(&st16;  89.17  424.72 )">22</text><text style="&st18;" transform="matrix(&st16;  99.72  433.78 )">B</text><path style="stroke-width: 1.42 ;&st7;   " d=" M   106.52,   422.75  C   106.52    420.24    104.49    418.22    101.98    418.22  " /><path style="stroke-width: 1.42 ;&st7;   " d=" M   101.98,   418.22  C    99.48    418.22     97.45    420.24     97.45    422.75  " /><path style="stroke-width: 1.42 ;&st7;   " d=" M    97.45,   422.75  C    97.45    425.25     99.48    427.28    101.98    427.28  " /><path style="stroke-width: 1.42 ;&st7;   " d=" M   101.98,   427.28  C   104.49    427.28    106.52    425.25    106.52    422.75  " /><path style="stroke-width: 1.42 ;&st7;   " d=" M   106.52,   431.81  C   106.52    429.31    104.49    427.28    101.98    427.28  " /><path style="stroke-width: 1.42 ;&st7;   " d=" M   101.98,   427.28  C    99.48    427.28     97.45    429.31     97.45    431.81  " /><path style="stroke-width: 1.42 ;&st7;   " d=" M    97.45,   431.81  C    97.45    434.32     99.48    436.35    101.98    436.35  " /><path style="stroke-width: 1.42 ;&st7;   " d=" M   101.98,   436.35  C   104.49    436.35    106.52    434.32    106.52    431.81  " /><text style="&st18;" transform="matrix(&st16;  99.72  424.72 )">A</text><text style="&st18;" transform="matrix(&st16;  38.18  433.78 )">13</text><text style="&st18;" transform="matrix(&st16;  38.18  424.72 )">21</text><path style="stroke-width: 1.42 ;&st7;   " d=" M    55.52,   431.81  C    55.52    429.31     53.49    427.28     50.99    427.28  " /><path style="stroke-width: 1.42 ;&st7;   " d=" M    50.99,   427.28  C    48.49    427.28     46.46    429.31     46.46    431.81  " /><path style="stroke-width: 1.42 ;&st7;   " d=" M    46.46,   431.81  C    46.46    434.32     48.49    436.35     50.99    436.35  " /><path style="stroke-width: 1.42 ;&st7;   " d=" M    50.99,   436.35  C    53.49    436.35     55.52    434.32     55.52    431.81  " /><path style="stroke-width: 1.42 ;&st7;   " d=" M    55.52,   422.75  C    55.52    420.24     53.49    418.22     50.99    418.22  " /><path style="stroke-width: 1.42 ;&st7;   " d=" M    50.99,   418.22  C    48.49    418.22     46.46    420.24     46.46    422.75  " /><path style="stroke-width: 1.42 ;&st7;   " d=" M    46.46,   422.75  C    46.46    425.25     48.49    427.28     50.99    427.28  " /><path style="stroke-width: 1.42 ;&st7;   " d=" M    50.99,   427.28  C    53.49    427.28     55.52    425.25     55.52    422.75  " /><text style="&st18;" transform="matrix(&st16;  48.73  424.72 )">A</text><text style="&st18;" transform="matrix(&st16;  48.73  433.78 )">B</text><text style="&st18;" transform="matrix(&st16;  38.18  398.65 )">12</text><text style="&st18;" transform="matrix(&st16;  38.18  389.59 )">20</text><path style="stroke-width: 1.42 ;&st7;   " d=" M    55.52,   387.62  C    55.52    385.12     53.49    383.09     50.99    383.09  " /><path style="stroke-width: 1.42 ;&st7;   " d=" M    50.99,   383.09  C    48.49    383.09     46.46    385.12     46.46    387.62  " /><path style="stroke-width: 1.42 ;&st7;   " d=" M    46.46,   387.62  C    46.46    390.12     48.49    392.15     50.99    392.15  " /><path style="stroke-width: 1.42 ;&st7;   " d=" M    50.99,   392.15  C    53.49    392.15     55.52    390.12     55.52    387.62  " /><path style="stroke-width: 1.42 ;&st7;   " d=" M    55.52,   396.69  C    55.52    394.18     53.49    392.15     50.99    392.15  " /><path style="stroke-width: 1.42 ;&st7;   " d=" M    50.99,   392.15  C    48.49    392.15     46.46    394.18     46.46    396.69  " /><path style="stroke-width: 1.42 ;&st7;   " d=" M    46.46,   396.69  C    46.46    399.19     48.49    401.22     50.99    401.22  " /><path style="stroke-width: 1.42 ;&st7;   " d=" M    50.99,   401.22  C    53.49    401.22     55.52    399.19     55.52    396.69  " /><text style="&st18;" transform="matrix(&st16;  48.73  389.59 )">A</text><text style="&st18;" transform="matrix(&st16;  48.73  398.65 )">B</text><g ewd:figtype="title"><text style="&st18;" transform="matrix(&st17;  29.14  421.11 )">L32(B)</text><text style="&st18;" transform="matrix(&st17;  35.96  421.12 )" ewd:textID="86">No. 24 Junction Connector</text><text style="&st18;" transform="matrix(&st17;  21.8  421.12 )" ewd:textID="89">No. 28 Junction Connector</text><text style="&st18;" transform="matrix(&st17;  14.98  421.11 )">L36(A)</text></g><g ewd:code="" ewd:figID="311" ewd:comment="" ewd:figtype="commref"><text style="&st18;" transform="matrix(&st16;  56.08  398.65 )">(RHD)</text></g><g ewd:code="" ewd:figID="312" ewd:comment="" ewd:figtype="commref"><text style="&st18;" transform="matrix(&st16;  56.08  389.59 )">(LHD)</text></g><g ewd:code="" ewd:figID="440" ewd:comment="" ewd:figtype="commref"><text style="&st18;" transform="matrix(&st16;  107.08  433.78 )">(RHD)</text></g><g ewd:code="" ewd:figID="441" ewd:comment="" ewd:figtype="commref"><text style="&st18;" transform="matrix(&st16;  107.08  424.72 )">(LHD)</text></g></g><g ewd:figtype="conn" ewd:figID="18" ewd:code="L8"><path style="stroke-width: 1.42 ;&st7;  " d=" M    50.99,   530.11  L    56.66,   507.45  " /><path style="stroke-width: 0.85 ;&st7;  " d=" M    50.99,   537.20  L    50.99,   532.95  " /><path style="stroke-width: 0.85 ;&st7;  " d=" M    50.99,   507.45  L    50.99,   503.20  " /><path style="stroke-width: 0.85 ;&st7;   " d=" M    52.41,   531.53  C    52.41    530.75     51.77    530.11     50.99    530.11  " /><path style="stroke-width: 0.85 ;&st7;   " d=" M    50.99,   530.11  C    50.21    530.11     49.58    530.75     49.58    531.53  " /><path style="stroke-width: 0.85 ;&st7;   " d=" M    49.58,   531.53  C    49.58    532.31     50.21    532.95     50.99    532.95  " /><path style="stroke-width: 0.85 ;&st7;   " d=" M    50.99,   532.95  C    51.77    532.95     52.41    532.31     52.41    531.53  " /><path style="stroke-width: 0.85 ;&st7;   " d=" M    52.41,   508.87  C    52.41    508.08     51.77    507.45     50.99    507.45  " /><path style="stroke-width: 0.85 ;&st7;   " d=" M    50.99,   507.45  C    50.21    507.45     49.58    508.08     49.58    508.87  " /><path style="stroke-width: 0.85 ;&st7;   " d=" M    49.58,   508.87  C    49.58    509.65     50.21    510.28     50.99    510.28  " /><path style="stroke-width: 0.85 ;&st7;   " d=" M    50.99,   510.28  C    51.77    510.28     52.41    509.65     52.41    508.87  " /><path style="stroke-width: 1.42 ;&st7;  " d=" M    59.49,   537.20  L    59.49,   503.20  L    42.49,   503.20  L    42.49,   537.20  L    59.49,   537.20  " /><text style="&st18;" transform="matrix(&st16;  44.65  545.39 )">4</text><text style="&st18;" transform="matrix(&st16;  44.65  499.51 )">3</text><g ewd:figtype="title"><text style="&st18;" transform="matrix(&st17;  67.38  540.09 )">L8</text><text style="&st18;" transform="matrix(&st17;  74.21  540.1 )" ewd:textID="45">Fuel Control <tspan x="0 " dy="6.0">Switch Assembly</tspan></text></g></g><g ewd:figtype="conn" ewd:figID="19" ewd:code="I93"><path style="stroke-width: 1.42 ;&st7;  " d=" M   144.48,   562.69  L   161.47,   562.69  L   161.47,   545.69  L   144.48,   545.69  L   144.48,   562.69  " /><path style="stroke-width: 0.85 ;&st7;  " d=" M   152.97,   562.69  L   152.97,   545.69  " /><text style="&st18;" transform="matrix(&st16;  143.49  569.19 )">1</text><text style="&st18;" transform="matrix(&st16;  150.71  569.19 )">A</text><path style="stroke-width: 1.42 ;&st7;   " d=" M   157.51,   567.22  C   157.51    564.72    155.48    562.69    152.97    562.69  " /><path style="stroke-width: 1.42 ;&st7;   " d=" M   152.97,   562.69  C   150.47    562.69    148.44    564.72    148.44    567.22  " /><path style="stroke-width: 1.42 ;&st7;   " d=" M   148.44,   567.22  C   148.44    569.73    150.47    571.76    152.97    571.76  " /><path style="stroke-width: 1.42 ;&st7;   " d=" M   152.97,   571.76  C   155.48    571.76    157.51    569.73    157.51    567.22  " /><text style="&st18;" transform="matrix(&st16;  143.49  543.13 )">2</text><text style="&st18;" transform="matrix(&st16;  150.71  543.13 )">A</text><path style="stroke-width: 1.42 ;&st7;   " d=" M   157.51,   541.16  C   157.51    538.66    155.48    536.63    152.97    536.63  " /><path style="stroke-width: 1.42 ;&st7;   " d=" M   152.97,   536.63  C   150.47    536.63    148.44    538.66    148.44    541.16  " /><path style="stroke-width: 1.42 ;&st7;   " d=" M   148.44,   541.16  C   148.44    543.66    150.47    545.69    152.97    545.69  " /><path style="stroke-width: 1.42 ;&st7;   " d=" M   152.97,   545.69  C   155.48    545.69    157.51    543.66    157.51    541.16  " /><g ewd:figtype="title"><text style="&st18;" transform="matrix(&st17;  176.19  565.6 )" ewd:textID="68">No. 5 Junction Connector</text><text style="&st18;" transform="matrix(&st17;  169.37  565.59 )">I93(A)</text></g></g><g ewd:figtype="conn" ewd:figID="20" ewd:code="A23"><path style="stroke-width: 1.42 ;&st7;  " d=" M   186.97,   545.69  L   203.97,   545.69  L   203.97,   562.69  L   186.97,   562.69  L   186.97,   545.69  " /><path style="stroke-width: 0.85 ;&st7;  " d=" M   195.47,   545.69  L   195.47,   562.69  " /><text style="&st18;" transform="matrix(&st16;  185.99  569.19 )">1</text><text style="&st18;" transform="matrix(&st16;  193.2  569.19 )">A</text><path style="stroke-width: 1.42 ;&st7;   " d=" M   200.00,   567.22  C   200.00    564.72    197.97    562.69    195.47    562.69  " /><path style="stroke-width: 1.42 ;&st7;   " d=" M   195.47,   562.69  C   192.96    562.69    190.93    564.72    190.93    567.22  " /><path style="stroke-width: 1.42 ;&st7;   " d=" M   190.93,   567.22  C   190.93    569.73    192.96    571.76    195.47    571.76  " /><path style="stroke-width: 1.42 ;&st7;   " d=" M   195.47,   571.76  C   197.97    571.76    200.00    569.73    200.00    567.22  " /><text style="&st18;" transform="matrix(&st16;  185.99  543.13 )">5</text><text style="&st18;" transform="matrix(&st16;  193.2  543.13 )">A</text><path style="stroke-width: 1.42 ;&st7;   " d=" M   200.00,   541.16  C   200.00    538.66    197.97    536.63    195.47    536.63  " /><path style="stroke-width: 1.42 ;&st7;   " d=" M   195.47,   536.63  C   192.96    536.63    190.93    538.66    190.93    541.16  " /><path style="stroke-width: 1.42 ;&st7;   " d=" M   190.93,   541.16  C   190.93    543.66    192.96    545.69    195.47    545.69  " /><path style="stroke-width: 1.42 ;&st7;   " d=" M   195.47,   545.69  C   197.97    545.69    200.00    543.66    200.00    541.16  " /><g ewd:figtype="title"><text style="&st18;" transform="matrix(&st17;  218.68  565.6 )" ewd:textID="64">No. 2 Junction Connector</text><text style="&st18;" transform="matrix(&st17;  211.86  565.59 )">A23(A)</text></g></g><g ewd:figtype="w2w" ewd:figID="113" ewd:code="IL5"><path style="stroke-width: 1.42 ;&st7;  " d=" M    55.24,   313.40  L    50.99,   309.15  L    46.74,   313.40  " /><path style="stroke-width: 1.42 ;&st7;  " d=" M    55.24,   316.80  L    50.99,   312.55  L    46.74,   316.80  " /><text style="&st18;" transform="matrix(&st16;  34.24  305.45 )">56</text><g ewd:code="" ewd:figID="411" ewd:comment="" ewd:figtype="commref"><text style="&st18;" transform="matrix(&st16;  60.02  305.45 )">(RHD)</text></g></g><g ewd:figtype="w2w" ewd:figID="114" ewd:code="IL1"><text style="&st18;" transform="matrix(&st16;  34.24  296.96 )">38</text><g ewd:code="" ewd:figID="412" ewd:comment="" ewd:figtype="commref"><text style="&st18;" transform="matrix(&st16;  60.02  296.96 )">(LHD)</text></g></g><g ewd:figtype="w2w" ewd:figID="115" ewd:code="AI3"><path style="stroke-width: 1.42 ;&st7;  " d=" M    55.24,   100.94  L    50.99,    96.69  L    46.74,   100.94  " /><path style="stroke-width: 1.42 ;&st7;  " d=" M    55.24,   104.33  L    50.99,   100.09  L    46.74,   104.33  " /><text style="&st18;" transform="matrix(&st16;  34.24  92.99 )">25</text><g ewd:code="" ewd:figID="328" ewd:comment="" ewd:figtype="commref"><text style="&st18;" transform="matrix(&st16;  60.02  92.99 )">(RHD)</text></g></g><g ewd:figtype="w2w" ewd:figID="116" ewd:code="AI3"><text style="&st18;" transform="matrix(&st16;  34.24  84.49 )">22</text><g ewd:code="" ewd:figID="329" ewd:comment="" ewd:figtype="commref"><text style="&st18;" transform="matrix(&st16;  60.02  84.49 )">(LHD)</text></g></g><g ewd:figtype="w2w" ewd:figID="117" ewd:code="AC7"><text style="&st18;" transform="matrix(&st16;  139.56  432.93 )">4</text><g ewd:code="" ewd:figID="317" ewd:comment="" ewd:figtype="commref"><text style="&st18;" transform="matrix(&st16;  162.01  432.93 )">(RHD)</text></g></g><g ewd:figtype="w2w" ewd:figID="118" ewd:code="IC3"><path style="stroke-width: 1.42 ;&st7;  " d=" M   157.22,   412.55  L   152.97,   416.80  L   148.73,   412.55  " /><path style="stroke-width: 1.42 ;&st7;  " d=" M   148.73,   409.15  L   152.97,   413.40  L   157.22,   409.15  " /><text style="&st18;" transform="matrix(&st16;  139.56  424.43 )">4</text><g ewd:code="" ewd:figID="318" ewd:comment="" ewd:figtype="commref"><text style="&st18;" transform="matrix(&st16;  162.01  424.43 )">(LHD)</text></g></g><g ewd:figtype="w2w" ewd:figID="119" ewd:code="WC2"><path style="stroke-width: 1.42 ;&st7;  " d=" M   157.22,   376.29  L   152.97,   372.04  L   148.73,   376.29  " /><path style="stroke-width: 1.42 ;&st7;  " d=" M   157.22,   372.89  L   152.97,   368.64  L   148.73,   372.89  " /><text style="&st18;" transform="matrix(&st16;  139.56  364.94 )">1</text></g><g ewd:figtype="w2w" ewd:figID="120" ewd:code="WC2"><path style="stroke-width: 1.42 ;&st7;  " d=" M   148.73,   222.18  L   152.97,   226.43  L   157.22,   222.18  " /><path style="stroke-width: 1.42 ;&st7;  " d=" M   157.22,   225.58  L   152.97,   229.83  L   148.73,   225.58  " /><text style="&st18;" transform="matrix(&st16;  139.56  237.47 )">2</text></g><g ewd:figtype="w2w" ewd:figID="121" ewd:code="AC8"><path style="stroke-width: 1.42 ;&st7;  " d=" M   157.22,   185.92  L   152.97,   181.67  L   148.73,   185.92  " /><path style="stroke-width: 1.42 ;&st7;  " d=" M   157.22,   189.32  L   152.97,   185.07  L   148.73,   189.32  " /><text style="&st18;" transform="matrix(&st16;  139.56  177.98 )">6</text><g ewd:code="" ewd:figID="319" ewd:comment="" ewd:figtype="commref"><text style="&st18;" transform="matrix(&st16;  162.01  177.98 )">(RHD)</text></g></g><g ewd:figtype="w2w" ewd:figID="122" ewd:code="IC1"><text style="&st18;" transform="matrix(&st16;  139.56  169.48 )">6</text><g ewd:code="" ewd:figID="320" ewd:comment="" ewd:figtype="commref"><text style="&st18;" transform="matrix(&st16;  162.01  169.48 )">(LHD)</text></g></g><g ewd:figtype="w2w" ewd:figID="123" ewd:code="AI3"><path style="stroke-width: 1.42 ;&st7;  " d=" M   157.22,   112.83  L   152.97,   108.58  L   148.73,   112.83  " /><path style="stroke-width: 1.42 ;&st7;  " d=" M   157.22,   109.43  L   152.97,   105.18  L   148.73,   109.43  " /><text style="&st18;" transform="matrix(&st16;  139.56  101.49 )">5</text></g><g ewd:figtype="w2w" ewd:figID="124" ewd:code="TS2"><path style="stroke-width: 1.42 ;&st7;  " d=" M   284.70,   247.68  L   288.95,   251.93  L   293.20,   247.68  " /><path style="stroke-width: 1.42 ;&st7;  " d=" M   293.20,   251.08  L   288.95,   255.33  L   284.70,   251.08  " /><text style="&st18;" transform="matrix(&st16;  275.53  262.96 )">8</text></g><g ewd:figtype="w2w" ewd:figID="125" ewd:code="IS3"><path style="stroke-width: 1.42 ;&st7;  " d=" M   293.20,   180.82  L   288.95,   176.57  L   284.70,   180.82  " /><path style="stroke-width: 1.42 ;&st7;  " d=" M   293.20,   177.42  L   288.95,   173.17  L   284.70,   177.42  " /><text style="&st18;" transform="matrix(&st16;  272.2  169.48 )">21</text></g><g ewd:figtype="w2w" ewd:figID="126" ewd:code="TX1"><path style="stroke-width: 1.42 ;&st7;  " d=" M   344.19,   494.14  L   348.44,   498.39  L   352.69,   494.14  " /><path style="stroke-width: 1.42 ;&st7;  " d=" M   352.69,   497.54  L   348.44,   501.78  L   344.19,   497.54  " /><text style="&st18;" transform="matrix(&st16;  335.02  509.42 )">2</text></g><g ewd:figtype="w2w" ewd:figID="127" ewd:code="TX1"><path style="stroke-width: 1.42 ;&st7;  " d=" M   352.69,   367.79  L   348.44,   363.54  L   344.19,   367.79  " /><path style="stroke-width: 1.42 ;&st7;  " d=" M   352.69,   364.39  L   348.44,   360.14  L   344.19,   364.39  " /><text style="&st18;" transform="matrix(&st16;  335.02  356.45 )">1</text></g><g ewd:figtype="w2w" ewd:figID="128" ewd:code="ST2"><path style="stroke-width: 1.42 ;&st7;  " d=" M   395.18,   299.80  L   390.93,   295.55  L   386.69,   299.80  " /><path style="stroke-width: 1.42 ;&st7;  " d=" M   395.18,   296.40  L   390.93,   292.15  L   386.69,   296.40  " /><text style="&st18;" transform="matrix(&st16;  377.52  288.46 )">2</text></g><g ewd:figtype="w2w" ewd:figID="129" ewd:code="IS1"><path style="stroke-width: 1.42 ;&st7;  " d=" M   395.18,   180.82  L   390.93,   176.57  L   386.69,   180.82  " /><path style="stroke-width: 1.42 ;&st7;  " d=" M   395.18,   177.42  L   390.93,   173.17  L   386.69,   177.42  " /><text style="&st18;" transform="matrix(&st16;  374.18  169.48 )">18</text></g><g ewd:figtype="w2w" ewd:figID="130" ewd:code="AI2"><text style="&st18;" transform="matrix(&st16;  416.68  169.48 )">12</text></g><g ewd:figtype="w2w" ewd:figID="131" ewd:code="AI7"><path style="stroke-width: 1.42 ;&st7;  " d=" M   429.18,   145.69  L   433.43,   149.94  L   437.68,   145.69  " /><path style="stroke-width: 1.42 ;&st7;  " d=" M   437.68,   149.09  L   433.43,   153.34  L   429.18,   149.09  " /><text style="&st18;" transform="matrix(&st16;  420.01  160.98 )">9</text></g><g ewd:figtype="w2w" ewd:figID="132" ewd:code="AI2"><text style="&st18;" transform="matrix(&st16;  462.5  169.48 )">8</text></g><g ewd:figtype="w2w" ewd:figID="133" ewd:code="AI7"><path style="stroke-width: 1.42 ;&st7;  " d=" M   480.17,   149.09  L   475.92,   153.34  L   471.67,   149.09  " /><path style="stroke-width: 1.42 ;&st7;  " d=" M   471.67,   145.69  L   475.92,   149.94  L   480.17,   145.69  " /><text style="&st18;" transform="matrix(&st16;  462.5  160.98 )">5</text></g><g ewd:figtype="gp" ewd:figID="221" ewd:code="LA"><path style="stroke-width: 0.85 ;&st7;  " d=" M    50.99,   697.25  L    50.99,   701.50  " /><path style="stroke-width: 0.85 ;&st7;  " d=" M    42.49,   701.50  L    59.49,   701.50  " /><path style="stroke-width: 0.85 ;&st7;  " d=" M    46.74,   704.33  L    55.24,   704.33  " /><path style="stroke-width: 0.85 ;&st7;  " d=" M    48.16,   707.17  L    53.82,   707.17  " /><path style="stroke-width: 0.85 ;&st7;  " d=" M    49.58,   710.00  L    52.41,   710.00  " /></g><g ewd:figtype="gp" ewd:figID="222" ewd:code="IA"><path style="stroke-width: 0.85 ;&st7;  " d=" M   152.97,   697.25  L   152.97,   701.50  " /><path style="stroke-width: 0.85 ;&st7;  " d=" M   144.48,   701.50  L   161.47,   701.50  " /><path style="stroke-width: 0.85 ;&st7;  " d=" M   148.73,   704.33  L   157.22,   704.33  " /><path style="stroke-width: 0.85 ;&st7;  " d=" M   150.14,   707.17  L   155.81,   707.17  " /><path style="stroke-width: 0.85 ;&st7;  " d=" M   151.56,   710.00  L   154.39,   710.00  " /></g><g ewd:figtype="gp" ewd:figID="223" ewd:code="AA"><path style="stroke-width: 0.85 ;&st7;  " d=" M   195.47,   697.25  L   195.47,   701.50  " /><path style="stroke-width: 0.85 ;&st7;  " d=" M   186.97,   701.50  L   203.97,   701.50  " /><path style="stroke-width: 0.85 ;&st7;  " d=" M   191.22,   704.33  L   199.72,   704.33  " /><path style="stroke-width: 0.85 ;&st7;  " d=" M   192.63,   707.17  L   198.30,   707.17  " /><path style="stroke-width: 0.85 ;&st7;  " d=" M   194.05,   710.00  L   196.88,   710.00  " /></g><g ewd:figtype="gp" ewd:figID="224" ewd:code="TA"><path style="stroke-width: 0.85 ;&st7;  " d=" M   237.96,   697.25  L   237.96,   701.50  " /><path style="stroke-width: 0.85 ;&st7;  " d=" M   229.46,   701.50  L   246.46,   701.50  " /><path style="stroke-width: 0.85 ;&st7;  " d=" M   233.71,   704.33  L   242.21,   704.33  " /><path style="stroke-width: 0.85 ;&st7;  " d=" M   235.13,   707.17  L   240.79,   707.17  " /><path style="stroke-width: 0.85 ;&st7;  " d=" M   236.54,   710.00  L   239.38,   710.00  " /></g><g ewd:figtype="gp" ewd:figID="225" ewd:code="TB"><path style="stroke-width: 0.85 ;&st7;  " d=" M   288.95,   697.25  L   288.95,   701.50  " /><path style="stroke-width: 0.85 ;&st7;  " d=" M   280.45,   701.50  L   297.45,   701.50  " /><path style="stroke-width: 0.85 ;&st7;  " d=" M   284.70,   704.33  L   293.20,   704.33  " /><path style="stroke-width: 0.85 ;&st7;  " d=" M   286.12,   707.17  L   291.78,   707.17  " /><path style="stroke-width: 0.85 ;&st7;  " d=" M   287.54,   710.00  L   290.37,   710.00  " /></g><g ewd:figtype="gp" ewd:figID="226" ewd:code="TC"><path style="stroke-width: 0.85 ;&st7;  " d=" M   348.44,   697.25  L   348.44,   701.50  " /><path style="stroke-width: 0.85 ;&st7;  " d=" M   339.94,   701.50  L   356.94,   701.50  " /><path style="stroke-width: 0.85 ;&st7;  " d=" M   344.19,   704.33  L   352.69,   704.33  " /><path style="stroke-width: 0.85 ;&st7;  " d=" M   345.61,   707.17  L   351.27,   707.17  " /><path style="stroke-width: 0.85 ;&st7;  " d=" M   347.03,   710.00  L   349.86,   710.00  " /></g><g ewd:code="" ewd:figID="321" ewd:comment="" ewd:figtype="commref"><text style="&st18;" transform="matrix(&st16;  484.95  169.48 )">(RHD)</text></g><g ewd:code="" ewd:figID="322" ewd:comment="" ewd:figtype="commref"><text style="&st18;" transform="matrix(&st16;  484.95  160.98 )">(LHD)</text></g></svg>