<?xml version="1.0" encoding="utf-8"?>
<!DOCTYPE svg PUBLIC "-//W3C//DTD SVG 1.0//EN" "http://www.w3.org/TR/2001/REC-SVG-20010904/DTD/svg10.dtd"[
	<!ENTITY ns_flows "http://ns.adobe.com/Flows/1.0/">
	<!ENTITY ns_svg "http://www.w3.org/2000/svg">
	<!ENTITY ns_xlink "http://www.w3.org/1999/xlink">
	<!ENTITY st0 "font-size:7px;font-family:'MS-PGothic';adobe-font-script:japanese;">
	<!ENTITY st1 "font-size:6px;font-family:'ArialMT';">
	<!-- White fill  -->
	<!ENTITY st2 "fill:#FFFFFF;stroke:#000000; stroke-width:1.41;stroke-linecap:round;stroke-linejoin:round;">
	<!-- Yellow fill  -->
	<!ENTITY st3 "fill:#FFFFCC;stroke:#FFFFCC; stroke-width:0.1;stroke-linecap:round;stroke-linejoin:round;">
	<!-- Gray fill  -->
	<!ENTITY st4 "fill:#CCCCCC;stroke:#CCCCCC; stroke-width:0.1;stroke-linecap:round;stroke-linejoin:round;">
	<!-- Light-blue fill -->
	<!ENTITY st5 "fill:#CCECF4;stroke:#000000; stroke-width:1.133;stroke-linecap:round;stroke-linejoin:round;">
	<!ENTITY st6 "fill:none;stroke-linecap:butt; stroke-linejoin:round;">
	<!ENTITY st7 "fill:none;stroke:#000000;stroke-linecap:round;stroke-linejoin:round;">
	<!ENTITY st8 "enable-background:new    ;">
	<!-- Black fill -->
	<!ENTITY st9 "fill:#000000;stroke:#000000; stroke-linecap:round;stroke-linejoin:round;">
	<!-- SRS note   -->
	<!ENTITY st10 "font-size:9px;font-family:'ArialMT';">
	<!ENTITY st11 "font-size:9px;font-family:'Svg Symbol';">
	<!ENTITY st12 "font-size:6px;font-family:'Svg Symbol';">
	<!ENTITY st13 "fill:none;stroke:#ff0000;stroke-linecap:round;stroke-linejoin:round;">
	<!-- Yellow fill  -->
	<!ENTITY st14 "fill:#FFFF00;stroke:#FFFF00; stroke-width:0.1;stroke-linecap:round;stroke-linejoin:round;">
	<!ENTITY st15 "font-size:6px;font-family:'MS-PGothic';adobe-font-script:japanese;">
	<!ENTITY st16 "1.00 0.00 0.00 1.00">
	<!ENTITY st17 "0.00 -1.00 1.00 0.00">
	<!ENTITY st18 "font-size:6px;font-family:'Arial';">
	<!ENTITY st19 "font-size:9px;font-family:'Arial';">
	<!ENTITY st20 "font-size:6px;font-family:'MS-PGothic','MS PGothic';adobe-font-script:japanese;">
	<!ENTITY st21 "font-size:7px;font-family:'MS-PGothic','MS PGothic';adobe-font-script:japanese;">
	<!ATTLIST svg
		xmlns:ewd CDATA #FIXED "http://shcl.co.jp/ewd"
		xmlns:a CDATA #FIXED "http://ns.adobe.com/AdobeSVGViewerExtensions/3.0/"
		ewd:ver CDATA #IMPLIED
	>
	<!ATTLIST a
		ewd:lineID CDATA #IMPLIED
		ewd:groupID CDATA #IMPLIED
		ewd:figtype CDATA #IMPLIED
		ewd:code CDATA #IMPLIED
		ewd:figID CDATA #IMPLIED
		ewd:pinNo CDATA #IMPLIED
		ewd:comment CDATA #IMPLIED >
	<!ATTLIST g
		ewd:lineID CDATA #IMPLIED
		ewd:groupID CDATA #IMPLIED
		ewd:figtype CDATA #IMPLIED
		ewd:code CDATA #IMPLIED
		ewd:figID CDATA #IMPLIED
		ewd:pinNo CDATA #IMPLIED
		ewd:comment CDATA #IMPLIED >
	<!ATTLIST text
		ewd:textID CDATA #IMPLIED >
	<!ATTLIST title
		ewd:textID CDATA #IMPLIED >
]>
<!-- Generator: Shintec Hozumi YS   -->
<svg onload="call_execInitLoadProc_svg('system')" style="overflow:visible;  enable-background:new 0 0 6214.333 710.000" viewBox="0 0 6214.333 710.000" height="710.000" width="6214.333" xml:space="preserve" ewd:ver="2.3.1.16" xmlns="&ns_svg;" xmlns:a="http://ns.adobe.com/AdobeSVGViewerExtensions/3.0/" xmlns:ewd="http://shcl.co.jp/ewd" xmlns:xlink="&ns_xlink;">
<text style="&st18;" transform="matrix(&st16;  1526.55  660.98 )">W</text><text style="&st18;" transform="matrix(&st16;  1577.54  643.98 )">W</text><text style="&st18;" transform="matrix(&st16;  1577.54  660.98 )">W</text><text style="&st18;" transform="matrix(&st16;  1578.86  626.98 )">L</text><text style="&st18;" transform="matrix(&st16;  1527.87  626.98 )">L</text><text style="&st18;" transform="matrix(&st16;  1574.52  32.08 )">W-B</text><text style="&st18;" transform="matrix(&st16;  1523.52  32.08 )">W-B</text><text style="&st18;" transform="matrix(&st16;  1527.87  66.08 )">L</text><text style="&st18;" transform="matrix(&st16;  1578.86  66.08 )">L</text><text style="&st18;" transform="matrix(&st16;  1646.85  83.07 )">L</text><text style="&st18;" transform="matrix(&st16;  1578.86  83.07 )">L</text><text style="&st18;" transform="matrix(&st16;  1526.55  643.98 )">W</text><text style="&st18;" transform="matrix(&st17;  1908.48  492.53 )">G</text><text style="&st18;" transform="matrix(&st17;  1933.98  406.2 )">G-Y</text><text style="&st18;" transform="matrix(&st16;  1736.08  83.07 )">L</text><text style="&st18;" transform="matrix(&st16;  1736.08  66.08 )">L</text><text style="&st18;" transform="matrix(&st17;  1950.98  151.59 )">L-W</text><text style="&st18;" transform="matrix(&st17;  1993.47  148.96 )">W</text><text style="&st18;" transform="matrix(&st17;  1882.99  216.17 )">R</text><text style="&st18;" transform="matrix(&st17;  1882.99  130.64 )">L</text><text style="&st18;" transform="matrix(&st17;  1670.52  436.98 )">B</text><text style="&st18;" transform="matrix(&st17;  1721.52  335.31 )">G</text><text style="&st18;" transform="matrix(&st17;  1670.52  334.61 )">L</text><text style="&st18;" transform="matrix(&st16;  1523.52  49.08 )">W-B</text><text style="&st18;" transform="matrix(&st16;  1574.52  49.08 )">W-B</text><text style="&st18;" transform="matrix(&st16;  1578.86  592.99 )">L</text><text style="&st18;" transform="matrix(&st17;  1696.02  335.15 )">R</text><text style="&st18;" transform="matrix(&st16;  1527.87  83.07 )">L</text><text style="&st18;" transform="matrix(&st16;  1730.3  271.46 )">ECM</text><text style="&st18;" transform="matrix(&st17;  1806.5  216.02 )">B</text><text style="&st18;" transform="matrix(&st17;  1806.5  134.99 )">W-B</text><text style="&st18;" transform="matrix(&st17;  1772.51  130.64 )">L</text><text style="&st18;" transform="matrix(&st17;  1611.03  131.96 )">W</text><text style="&st18;" transform="matrix(&st17;  1704.52  216.02 )">B</text><text style="&st18;" transform="matrix(&st17;  1704.52  134.99 )">W-B</text><text style="&st18;" transform="matrix(&st17;  1670.52  130.64 )">L</text><text style="&st18;" transform="matrix(&st17;  1611.03  215.63 )">L</text><text style="&st18;" transform="matrix(&st17;  1509.05  335.15 )">R</text><text style="&st18;" transform="matrix(&st17;  1781.01  402.98 )">B</text><text style="&st18;" transform="matrix(&st16;  1858.92  499.5 )">B</text><text style="&st18;" transform="matrix(&st17;  1840.5  335.0 )">B</text><text style="&st18;" transform="matrix(&st16;  1527.87  592.99 )">L</text><text style="&st18;" transform="matrix(&st17;  1882.99  334.61 )">L</text><text style="&st18;" transform="matrix(&st16;  1730.3  264.64 )">C39(B),I84(A)</text><path style="stroke-width: 1.42 ;&st7;  " d=" M  1504.25,   375.72  L  1512.75,   375.72  " /><text style="&st18;" transform="matrix(&st16;  1527.48  575.99 )">B</text><text style="&st18;" transform="matrix(&st16;  1527.87  558.99 )">L</text><path style="stroke-width: 1.42 ;&st7;  " d=" M  1840.66,   494.70  L  1835.69,   499.67  " /><path style="stroke-width: 1.42 ;&st7;  " d=" M  1835.69,   506.73  L  1840.66,   511.70  " /><path style="stroke-width: 1.42 ;&st7;  " d=" M  1852.69,   499.67  L  1847.72,   494.70  " /><path style="stroke-width: 1.42 ;&st7;  " d=" M  1847.72,   511.70  L  1852.69,   506.73  " /><path style="stroke-width: 1.42 ;&st7;  " d=" M  1772.68,    61.28  L  1767.70,    66.25  " /><path style="stroke-width: 1.42 ;&st7;  " d=" M  1779.73,    78.27  L  1784.70,    73.30  " /><path style="stroke-width: 1.42 ;&st7;  " d=" M  1767.70,    73.30  L  1772.67,    78.27  " /><path style="stroke-width: 1.42 ;&st7;  " d=" M  1784.70,    66.25  L  1779.73,    61.28  " /><path style="stroke-width: 1.42 ;&st7;  " d=" M  1670.69,    78.27  L  1665.72,    83.24  " /><path style="stroke-width: 1.42 ;&st7;  " d=" M  1677.75,    95.27  L  1682.72,    90.30  " /><path style="stroke-width: 1.42 ;&st7;  " d=" M  1665.72,    90.30  L  1670.69,    95.27  " /><path style="stroke-width: 1.42 ;&st7;  " d=" M  1682.72,    83.24  L  1677.75,    78.27  " /><path style="stroke-width: 1.42 ;&st7;  " d=" M  1611.20,    78.27  L  1606.23,    83.24  " /><path style="stroke-width: 1.42 ;&st7;  " d=" M  1618.26,    95.27  L  1623.23,    90.30  " /><path style="stroke-width: 1.42 ;&st7;  " d=" M  1606.23,    90.30  L  1611.20,    95.27  " /><path style="stroke-width: 1.42 ;&st7;  " d=" M  1623.23,    83.24  L  1618.26,    78.27  " /><path style="stroke-width: 1.42 ;&st7;  " d=" M  1988.67,   180.26  L  1997.17,   180.26  " /><text style="&st18;" transform="matrix(&st16;  1578.47  575.99 )">B</text><text style="&st18;" transform="matrix(&st16;  1578.86  558.99 )">L</text><text style="&st18;" transform="matrix(&st17;  1509.05  420.14 )">R</text><text style="&st18;" transform="matrix(&st17;  1594.04  334.61 )">L</text><text style="&st18;" transform="matrix(&st17;  1636.53  334.61 )">L</text><g ewd:figtype="rb" ewd:figID="14" ewd:code="FUSE16"><text style="&st18;" transform="matrix(&st16;  1779.33  312.54 )">(IG)</text><text style="&st18;" transform="matrix(&st16;  1778.36  366.92 )">2</text><text style="&st18;" transform="matrix(&st16;  1782.82  381.94 )">2</text><text style="&st18;" transform="matrix(&st16;  1801.13  336.62 )">10A <tspan x="0 " dy="6.0">IGN</tspan></text><path style="stroke-width: 0.28 ;&st9;  " d=" M  1784.70,   370.83  L  1781.87,   367.99  L  1781.87,   372.24  L  1784.70,   375.08  L  1787.53,   372.24  L  1787.53,   367.99  L  1784.70,   370.83  " /><path style="stroke-width: 1.42 ;&st7;   " d=" M  1791.08,   379.97  C  1791.08    377.63   1789.17    375.72   1786.83    375.72  " /><path style="stroke-width: 1.42 ;&st7;   " d=" M  1786.83,   384.22  C  1789.17    384.22   1791.08    382.32   1791.08    379.97  " /><path style="stroke-width: 1.42 ;&st7;   " d=" M  1778.33,   379.97  C  1778.33    382.32   1780.23    384.22   1782.58    384.22  " /><path style="stroke-width: 1.42 ;&st7;   " d=" M  1782.58,   375.72  C  1780.23    375.72   1778.33    377.63   1778.33    379.97  " /><path style="stroke-width: 0.85 ;&st7;  " d=" M  1784.70,   358.73  L  1784.70,   375.72  " /><path style="stroke-width: 1.42 ;&st7;  " d=" M  1786.83,   384.22  L  1782.58,   384.22  " /><path style="stroke-width: 1.42 ;&st7;  " d=" M  1786.83,   375.72  L  1782.58,   375.72  " /><path style="stroke-width: 1.42 ;&st7;  " d=" M  1771.95,   316.23  L  1771.95,   358.73  L  1797.45,   358.73  L  1797.45,   316.23  L  1771.95,   316.23  " /><path style="stroke-width: 0.85 ;&st7;   " d=" M  1786.12,   348.81  C  1786.12    348.03   1785.48    347.39   1784.70    347.39  " /><path style="stroke-width: 0.85 ;&st7;   " d=" M  1784.70,   347.39  C  1783.92    347.39   1783.29    348.03   1783.29    348.81  " /><path style="stroke-width: 0.85 ;&st7;   " d=" M  1783.29,   348.81  C  1783.29    349.59   1783.92    350.23   1784.70    350.23  " /><path style="stroke-width: 0.85 ;&st7;   " d=" M  1784.70,   350.23  C  1785.48    350.23   1786.12    349.59   1786.12    348.81  " /><path style="stroke-width: 0.85 ;&st7;   " d=" M  1786.12,   326.15  C  1786.12    325.37   1785.48    324.73   1784.70    324.73  " /><path style="stroke-width: 0.85 ;&st7;   " d=" M  1784.70,   324.73  C  1783.92    324.73   1783.29    325.37   1783.29    326.15  " /><path style="stroke-width: 0.85 ;&st7;   " d=" M  1783.29,   326.15  C  1783.29    326.93   1783.92    327.56   1784.70    327.56  " /><path style="stroke-width: 0.85 ;&st7;   " d=" M  1784.70,   327.56  C  1785.48    327.56   1786.12    326.93   1786.12    326.15  " /><path style="stroke-width: 1.42 ;&st7;   " d=" M  1784.70,   347.39  C  1787.44    345.78   1788.35    342.25   1786.74    339.52  " /><path style="stroke-width: 1.42 ;&st7;   " d=" M  1786.74,   339.52  C  1786.22    338.63   1785.58    338.00   1784.70    337.48  " /><path style="stroke-width: 1.42 ;&st7;   " d=" M  1784.70,   327.56  C  1781.96    329.18   1781.05    332.70   1782.66    335.44  " /><path style="stroke-width: 1.42 ;&st7;   " d=" M  1782.66,   335.44  C  1783.18    336.32   1783.82    336.96   1784.70    337.48  " /><path style="stroke-width: 0.85 ;&st7;  " d=" M  1784.70,   350.23  L  1784.70,   358.73  " /></g><g ewd:figtype="rb" ewd:figID="17" ewd:code="FUSE36"><text style="&st18;" transform="matrix(&st16;  1929.59  312.54 )">(BAT)</text><text style="&st18;" transform="matrix(&st16;  1931.34  366.92 )">2</text><text style="&st18;" transform="matrix(&st16;  1935.8  381.94 )">2</text><text style="&st18;" transform="matrix(&st16;  1954.1  336.62 )">30A <tspan x="0 " dy="6.0">STOP</tspan></text><path style="stroke-width: 0.28 ;&st9;  " d=" M  1937.68,   370.83  L  1934.84,   367.99  L  1934.84,   372.24  L  1937.68,   375.08  L  1940.51,   372.24  L  1940.51,   367.99  L  1937.68,   370.83  " /><path style="stroke-width: 1.42 ;&st7;   " d=" M  1944.05,   379.97  C  1944.05    377.63   1942.15    375.72   1939.80    375.72  " /><path style="stroke-width: 1.42 ;&st7;   " d=" M  1939.80,   384.22  C  1942.15    384.22   1944.05    382.32   1944.05    379.97  " /><path style="stroke-width: 1.42 ;&st7;   " d=" M  1931.30,   379.97  C  1931.30    382.32   1933.20    384.22   1935.55    384.22  " /><path style="stroke-width: 1.42 ;&st7;   " d=" M  1935.55,   375.72  C  1933.20    375.72   1931.30    377.63   1931.30    379.97  " /><path style="stroke-width: 0.85 ;&st7;  " d=" M  1937.68,   358.73  L  1937.68,   375.72  " /><path style="stroke-width: 1.42 ;&st7;  " d=" M  1939.80,   384.22  L  1935.55,   384.22  " /><path style="stroke-width: 1.42 ;&st7;  " d=" M  1939.80,   375.72  L  1935.55,   375.72  " /><path style="stroke-width: 1.42 ;&st7;  " d=" M  1924.93,   316.23  L  1924.93,   358.73  L  1950.42,   358.73  L  1950.42,   316.23  L  1924.93,   316.23  " /><path style="stroke-width: 0.85 ;&st7;   " d=" M  1939.09,   348.81  C  1939.09    348.03   1938.46    347.39   1937.68    347.39  " /><path style="stroke-width: 0.85 ;&st7;   " d=" M  1937.68,   347.39  C  1936.89    347.39   1936.26    348.03   1936.26    348.81  " /><path style="stroke-width: 0.85 ;&st7;   " d=" M  1936.26,   348.81  C  1936.26    349.59   1936.89    350.23   1937.68    350.23  " /><path style="stroke-width: 0.85 ;&st7;   " d=" M  1937.68,   350.23  C  1938.46    350.23   1939.09    349.59   1939.09    348.81  " /><path style="stroke-width: 0.85 ;&st7;   " d=" M  1939.09,   326.15  C  1939.09    325.37   1938.46    324.73   1937.68    324.73  " /><path style="stroke-width: 0.85 ;&st7;   " d=" M  1937.68,   324.73  C  1936.89    324.73   1936.26    325.37   1936.26    326.15  " /><path style="stroke-width: 0.85 ;&st7;   " d=" M  1936.26,   326.15  C  1936.26    326.93   1936.89    327.56   1937.68    327.56  " /><path style="stroke-width: 0.85 ;&st7;   " d=" M  1937.68,   327.56  C  1938.46    327.56   1939.09    326.93   1939.09    326.15  " /><path style="stroke-width: 1.42 ;&st7;   " d=" M  1937.68,   347.39  C  1940.41    345.78   1941.33    342.25   1939.71    339.52  " /><path style="stroke-width: 1.42 ;&st7;   " d=" M  1939.71,   339.52  C  1939.19    338.63   1938.56    338.00   1937.68    337.48  " /><path style="stroke-width: 1.42 ;&st7;   " d=" M  1937.68,   327.56  C  1934.94    329.18   1934.03    332.70   1935.64    335.44  " /><path style="stroke-width: 1.42 ;&st7;   " d=" M  1935.64,   335.44  C  1936.16    336.32   1936.79    336.96   1937.68    337.48  " /><path style="stroke-width: 0.85 ;&st7;  " d=" M  1937.68,   350.23  L  1937.68,   358.73  " /></g><g ewd:figtype="rb" ewd:figID="18" ewd:code="FUSE29"><text style="&st18;" transform="matrix(&st16;  1910.3  594.41 )">2</text><text style="&st18;" transform="matrix(&st16;  1910.3  509.42 )">2</text><text style="&st18;" transform="matrix(&st16;  1905.84  525.01 )">1</text><text style="&st18;" transform="matrix(&st16;  1905.84  579.38 )">2</text><text style="&st18;" transform="matrix(&st16;  1928.6  549.09 )">15A <tspan x="0 " dy="6.0">STOP</tspan></text><path style="stroke-width: 0.85 ;&st7;  " d=" M  1912.18,   511.70  L  1912.18,   528.70  " /><path style="stroke-width: 0.85 ;&st7;  " d=" M  1912.18,   571.19  L  1912.18,   588.19  " /><path style="stroke-width: 0.28 ;&st9;  " d=" M  1912.18,   583.29  L  1909.35,   580.46  L  1909.35,   584.71  L  1912.18,   587.54  L  1915.01,   584.71  L  1915.01,   580.46  L  1912.18,   583.29  " /><path style="stroke-width: 0.28 ;&st9;  " d=" M  1912.18,   516.60  L  1915.01,   519.43  L  1915.01,   515.18  L  1912.18,   512.35  L  1909.35,   515.18  L  1909.35,   519.43  L  1912.18,   516.60  " /><path style="stroke-width: 1.42 ;&st7;   " d=" M  1918.55,   592.44  C  1918.55    590.09   1916.65    588.19   1914.31    588.19  " /><path style="stroke-width: 1.42 ;&st7;   " d=" M  1914.31,   596.69  C  1916.65    596.69   1918.55    594.78   1918.55    592.44  " /><path style="stroke-width: 1.42 ;&st7;   " d=" M  1905.81,   592.44  C  1905.81    594.78   1907.71    596.69   1910.06    596.69  " /><path style="stroke-width: 1.42 ;&st7;   " d=" M  1910.06,   588.19  C  1907.71    588.19   1905.81    590.09   1905.81    592.44  " /><path style="stroke-width: 1.42 ;&st7;   " d=" M  1918.55,   507.45  C  1918.55    505.10   1916.65    503.20   1914.31    503.20  " /><path style="stroke-width: 1.42 ;&st7;   " d=" M  1914.31,   511.70  C  1916.65    511.70   1918.55    509.80   1918.55    507.45  " /><path style="stroke-width: 1.42 ;&st7;   " d=" M  1905.81,   507.45  C  1905.81    509.80   1907.71    511.70   1910.06    511.70  " /><path style="stroke-width: 1.42 ;&st7;   " d=" M  1910.06,   503.20  C  1907.71    503.20   1905.81    505.10   1905.81    507.45  " /><path style="stroke-width: 1.42 ;&st7;  " d=" M  1914.31,   596.69  L  1910.06,   596.69  " /><path style="stroke-width: 1.42 ;&st7;  " d=" M  1914.31,   588.19  L  1910.06,   588.19  " /><path style="stroke-width: 1.42 ;&st7;  " d=" M  1914.31,   511.70  L  1910.06,   511.70  " /><path style="stroke-width: 1.42 ;&st7;  " d=" M  1914.31,   503.20  L  1910.06,   503.20  " /><path style="stroke-width: 1.42 ;&st7;  " d=" M  1899.43,   528.70  L  1899.43,   571.19  L  1924.93,   571.19  L  1924.93,   528.70  L  1899.43,   528.70  " /><path style="stroke-width: 0.85 ;&st7;  " d=" M  1912.18,   528.70  L  1912.18,   537.20  " /><path style="stroke-width: 0.85 ;&st7;   " d=" M  1913.60,   561.27  C  1913.60    560.49   1912.96    559.86   1912.18    559.86  " /><path style="stroke-width: 0.85 ;&st7;   " d=" M  1912.18,   559.86  C  1911.40    559.86   1910.76    560.49   1910.76    561.27  " /><path style="stroke-width: 0.85 ;&st7;   " d=" M  1910.76,   561.27  C  1910.76    562.06   1911.40    562.69   1912.18    562.69  " /><path style="stroke-width: 0.85 ;&st7;   " d=" M  1912.18,   562.69  C  1912.96    562.69   1913.60    562.06   1913.60    561.27  " /><path style="stroke-width: 0.85 ;&st7;   " d=" M  1913.60,   538.61  C  1913.60    537.83   1912.96    537.20   1912.18    537.20  " /><path style="stroke-width: 0.85 ;&st7;   " d=" M  1912.18,   537.20  C  1911.40    537.20   1910.76    537.83   1910.76    538.61  " /><path style="stroke-width: 0.85 ;&st7;   " d=" M  1910.76,   538.61  C  1910.76    539.39   1911.40    540.03   1912.18    540.03  " /><path style="stroke-width: 0.85 ;&st7;   " d=" M  1912.18,   540.03  C  1912.96    540.03   1913.60    539.39   1913.60    538.61  " /><path style="stroke-width: 1.42 ;&st7;   " d=" M  1912.18,   559.86  C  1914.92    558.25   1915.83    554.72   1914.22    551.98  " /><path style="stroke-width: 1.42 ;&st7;   " d=" M  1914.22,   551.98  C  1913.70    551.10   1913.06    550.46   1912.18    549.94  " /><path style="stroke-width: 1.42 ;&st7;   " d=" M  1912.18,   540.03  C  1909.44    541.64   1908.53    545.17   1910.14    547.91  " /><path style="stroke-width: 1.42 ;&st7;   " d=" M  1910.14,   547.91  C  1910.66    548.79   1911.30    549.42   1912.18    549.94  " /><path style="stroke-width: 0.85 ;&st7;  " d=" M  1912.18,   562.69  L  1912.18,   571.19  " /></g><g ewd:figtype="conn" ewd:figID="55" ewd:code="u1"><path style="stroke-width: 1.42 ;&st7;  " d=" M  1980.17,   120.77  L  2048.16,   120.77  L  2048.16,    86.77  L  1980.17,    86.77  L  1980.17,   120.77  " /><g ewd:lineID="78"><text style="&st18;" transform="matrix(&st16;  1990.83  128.96 )">2</text><text style="&st18;" transform="matrix(&st16;  1993.19  117.07 )">+B</text></g><g ewd:figtype="title"><text style="&st18;" transform="matrix(&st16;  1976.76  77.13 )" ewd:textID="24">Exhaust Fuel Addition <tspan x="0 " dy="6.0">Injector Assembly</tspan></text><text style="&st18;" transform="matrix(&st16;  1976.76  70.3 )">u1</text></g></g><g ewd:figtype="conn" ewd:figID="57" ewd:code="C111"><path style="stroke-width: 1.42 ;&st7;  " d=" M  1869.69,   188.75  L  1903.68,   188.75  L  1903.68,   154.76  L  1869.69,   154.76  L  1869.69,   188.75  " /><g ewd:lineID="61"><text style="&st18;" transform="matrix(&st16;  1880.35  151.07 )">1</text><text style="&st18;" transform="matrix(&st16;  1882.71  162.39 )">+B</text></g><g ewd:lineID="73"><text style="&st18;" transform="matrix(&st16;  1880.35  196.95 )">2</text><text style="&st18;" transform="matrix(&st16;  1878.22  185.06 )">ECBV</text></g><g ewd:figtype="title"><text style="&st18;" transform="matrix(&st17;  1911.58  191.65 )">C111</text><text style="&st18;" transform="matrix(&st17;  1918.4  191.66 )" ewd:textID="49">No. 1 Vacuum Switching <tspan x="0 " dy="6.0">Valve Assembly (for EGR </tspan><tspan x="0 " dy="6.0">Cooler Bypass Valve)</tspan></text></g></g><g ewd:figtype="conn" ewd:figID="59" ewd:code="C58"><path style="stroke-width: 1.42 ;&st7;  " d=" M  1759.21,   188.75  L  1827.19,   188.75  L  1827.19,   154.76  L  1759.21,   154.76  L  1759.21,   188.75  " /><g ewd:lineID="37"><text style="&st18;" transform="matrix(&st16;  1803.86  151.07 )">3</text><text style="&st18;" transform="matrix(&st16;  1804.13  162.39 )">E2R</text></g><g ewd:lineID="67"><text style="&st18;" transform="matrix(&st16;  1769.86  151.07 )">2</text><text style="&st18;" transform="matrix(&st16;  1769.59  162.39 )">VCR</text></g><g ewd:lineID="69"><text style="&st18;" transform="matrix(&st16;  1803.86  196.95 )">1</text><text style="&st18;" transform="matrix(&st16;  1801.88  185.06 )">VTAR</text></g><g ewd:figtype="title"><text style="&st18;" transform="matrix(&st17;  1841.91  191.66 )" ewd:textID="16">Diesel Throttle Body <tspan x="0 " dy="6.0">Assembly (Bank 1)</tspan></text><text style="&st18;" transform="matrix(&st17;  1835.09  191.65 )">C58</text></g></g><g ewd:figtype="conn" ewd:figID="61" ewd:code="C61"><path style="stroke-width: 1.42 ;&st7;  " d=" M  1657.22,   188.75  L  1725.21,   188.75  L  1725.21,   154.76  L  1657.22,   154.76  L  1657.22,   188.75  " /><g ewd:lineID="60"><text style="&st18;" transform="matrix(&st16;  1667.88  151.07 )">2</text><text style="&st18;" transform="matrix(&st16;  1667.61  162.39 )">VCR</text></g><g ewd:lineID="63"><text style="&st18;" transform="matrix(&st16;  1701.88  196.95 )">1</text><text style="&st18;" transform="matrix(&st16;  1699.9  185.06 )">VTAR</text></g><g ewd:lineID="64"><text style="&st18;" transform="matrix(&st16;  1701.88  151.07 )">3</text><text style="&st18;" transform="matrix(&st16;  1704.32  162.39 )">E2</text></g><g ewd:figtype="title"><text style="&st18;" transform="matrix(&st17;  1733.11  191.65 )">C61</text><text style="&st18;" transform="matrix(&st17;  1739.93  191.66 )" ewd:textID="17">Diesel Throttle Body <tspan x="0 " dy="6.0">Assembly (Bank 2)</tspan></text></g></g><g ewd:figtype="conn" ewd:figID="62" ewd:code="I19"><path style="stroke-width: 0.85 ;&st7;   " d=" M  1888.10,   440.88  C  1888.10    440.10   1887.47    439.46   1886.68    439.46  " /><path style="stroke-width: 0.85 ;&st7;   " d=" M  1886.68,   439.46  C  1885.90    439.46   1885.27    440.10   1885.27    440.88  " /><path style="stroke-width: 0.85 ;&st7;   " d=" M  1885.27,   440.88  C  1885.27    441.66   1885.90    442.29   1886.68    442.29  " /><path style="stroke-width: 0.85 ;&st7;   " d=" M  1886.68,   442.29  C  1887.47    442.29   1888.10    441.66   1888.10    440.88  " /><path style="stroke-width: 0.85 ;&st7; stroke-dasharray:3, 1.5;" d=" M  1909.70,   452.21  L  1887.38,   452.21  " /><path style="stroke-width: 1.42 ;&st7;  " d=" M  1920.68,   435.21  L  1920.68,   469.21  L  1878.19,   469.21  L  1878.19,   435.21  L  1920.68,   435.21  " /><path style="stroke-width: 0.85 ;&st7;   " d=" M  1888.10,   463.54  C  1888.10    462.76   1887.47    462.12   1886.68    462.12  " /><path style="stroke-width: 0.85 ;&st7;   " d=" M  1886.68,   462.12  C  1885.90    462.12   1885.27    462.76   1885.27    463.54  " /><path style="stroke-width: 0.85 ;&st7;   " d=" M  1885.27,   463.54  C  1885.27    464.32   1885.90    464.96   1886.68    464.96  " /><path style="stroke-width: 0.85 ;&st7;   " d=" M  1886.68,   464.96  C  1887.47    464.96   1888.10    464.32   1888.10    463.54  " /><path style="stroke-width: 0.85 ;&st7;   " d=" M  1913.60,   440.88  C  1913.60    440.10   1912.96    439.46   1912.18    439.46  " /><path style="stroke-width: 0.85 ;&st7;   " d=" M  1912.18,   439.46  C  1911.40    439.46   1910.76    440.10   1910.76    440.88  " /><path style="stroke-width: 0.85 ;&st7;   " d=" M  1910.76,   440.88  C  1910.76    441.66   1911.40    442.29   1912.18    442.29  " /><path style="stroke-width: 0.85 ;&st7;   " d=" M  1912.18,   442.29  C  1912.96    442.29   1913.60    441.66   1913.60    440.88  " /><path style="stroke-width: 0.85 ;&st7;   " d=" M  1913.60,   463.54  C  1913.60    462.76   1912.96    462.12   1912.18    462.12  " /><path style="stroke-width: 0.85 ;&st7;   " d=" M  1912.18,   462.12  C  1911.40    462.12   1910.76    462.76   1910.76    463.54  " /><path style="stroke-width: 0.85 ;&st7;   " d=" M  1910.76,   463.54  C  1910.76    464.32   1911.40    464.96   1912.18    464.96  " /><path style="stroke-width: 0.85 ;&st7;   " d=" M  1912.18,   464.96  C  1912.96    464.96   1913.60    464.32   1913.60    463.54  " /><path style="stroke-width: 0.85 ;&st7;  " d=" M  1886.68,   439.46  L  1886.68,   435.21  " /><path style="stroke-width: 0.85 ;&st7;  " d=" M  1886.68,   469.21  L  1886.68,   464.96  " /><path style="stroke-width: 1.42 ;&st7;  " d=" M  1886.68,   462.12  L  1888.38,   438.01  " /><path style="stroke-width: 0.85 ;&st7;  " d=" M  1912.18,   439.46  L  1912.18,   435.21  " /><path style="stroke-width: 0.85 ;&st7;  " d=" M  1912.18,   469.21  L  1912.18,   464.96  " /><path style="stroke-width: 1.42 ;&st7;  " d=" M  1912.18,   462.12  L  1906.51,   439.46  " /><text style="&st18;" transform="matrix(&st16;  1880.35  477.4 )">3</text><text style="&st18;" transform="matrix(&st16;  1880.35  431.52 )">4</text><text style="&st18;" transform="matrix(&st16;  1905.84  477.4 )">1</text><text style="&st18;" transform="matrix(&st16;  1905.84  431.52 )">2</text><g ewd:figtype="title"><text style="&st18;" transform="matrix(&st17;  1935.4  472.11 )" ewd:textID="69">Stop Light <tspan x="0 " dy="6.0">Switch Assembly</tspan></text><text style="&st18;" transform="matrix(&st17;  1928.57  472.11 )">I19</text></g></g><g ewd:figtype="conn" ewd:figID="68" ewd:code="C91"><path style="stroke-width: 1.42 ;&st7;  " d=" M  1623.23,   188.75  L  1623.23,   154.76  L  1606.23,   154.76  L  1606.23,   188.75  L  1623.23,   188.75  " /><path style="stroke-width: 0.85 ;&st7;   " d=" M  1614.73,   180.26  C  1616.69    180.26   1618.27    178.67   1618.27    176.71  " /><path style="stroke-width: 0.85 ;&st7;   " d=" M  1618.27,   176.71  C  1618.27    174.76   1616.69    173.17   1614.73    173.17  " /><path style="stroke-width: 0.85 ;&st7;   " d=" M  1614.73,   173.17  C  1613.74    173.17   1612.89    173.53   1612.20    174.24  " /><path style="stroke-width: 0.85 ;&st7;   " d=" M  1612.20,   174.24  C  1613.57    175.63   1615.81    175.66   1617.21    174.29  " /><path style="stroke-width: 0.85 ;&st7;   " d=" M  1617.21,   174.29  C  1618.61    172.92   1618.63    170.67   1617.26    169.28  " /><path style="stroke-width: 0.85 ;&st7;   " d=" M  1617.26,   169.28  C  1615.89    167.88   1613.65    167.86   1612.25    169.23  " /><path style="stroke-width: 0.85 ;&st7;   " d=" M  1612.25,   169.23  C  1612.23    169.24   1612.22    169.26   1612.20    169.28  " /><path style="stroke-width: 0.85 ;&st7;   " d=" M  1612.20,   169.28  C  1613.57    170.67   1615.81    170.70   1617.21    169.33  " /><path style="stroke-width: 0.85 ;&st7;   " d=" M  1617.21,   169.33  C  1618.61    167.96   1618.63    165.72   1617.26    164.32  " /><path style="stroke-width: 0.85 ;&st7;   " d=" M  1617.26,   164.32  C  1616.57    163.61   1615.72    163.26   1614.73    163.26  " /><path style="stroke-width: 0.85 ;&st7;  " d=" M  1614.73,   180.26  L  1614.73,   188.75  " /><path style="stroke-width: 0.85 ;&st7;  " d=" M  1614.73,   154.76  L  1614.73,   163.26  " /><text style="&st18;" transform="matrix(&st16;  1605.25  195.26 )">2</text><text style="&st18;" transform="matrix(&st16;  1612.46  195.26 )">B</text><path style="stroke-width: 1.42 ;&st7;   " d=" M  1619.26,   193.29  C  1619.26    190.78   1617.23    188.75   1614.73    188.75  " /><path style="stroke-width: 1.42 ;&st7;   " d=" M  1614.73,   188.75  C  1612.23    188.75   1610.20    190.78   1610.20    193.29  " /><path style="stroke-width: 1.42 ;&st7;   " d=" M  1610.20,   193.29  C  1610.20    195.79   1612.23    197.82   1614.73    197.82  " /><path style="stroke-width: 1.42 ;&st7;   " d=" M  1614.73,   197.82  C  1617.23    197.82   1619.26    195.79   1619.26    193.29  " /><text style="&st18;" transform="matrix(&st16;  1605.25  152.2 )">1</text><text style="&st18;" transform="matrix(&st16;  1612.46  152.2 )">B</text><path style="stroke-width: 1.42 ;&st7;   " d=" M  1619.26,   150.23  C  1619.26    147.72   1617.23    145.69   1614.73    145.69  " /><path style="stroke-width: 1.42 ;&st7;   " d=" M  1614.73,   145.69  C  1612.23    145.69   1610.20    147.72   1610.20    150.23  " /><path style="stroke-width: 1.42 ;&st7;   " d=" M  1610.20,   150.23  C  1610.20    152.73   1612.23    154.76   1614.73    154.76  " /><path style="stroke-width: 1.42 ;&st7;   " d=" M  1614.73,   154.76  C  1617.23    154.76   1619.26    152.73   1619.26    150.23  " /><g ewd:figtype="title"><text style="&st18;" transform="matrix(&st17;  1637.95  191.66 )" ewd:textID="23">Electric Vacuum <tspan x="0 " dy="6.0">Regulating Valve </tspan><tspan x="0 " dy="6.0">Assembly (EGR)</tspan></text><text style="&st18;" transform="matrix(&st17;  1631.12  191.65 )">C91(B)</text></g></g><g ewd:figtype="conn" ewd:figID="71" ewd:code="C114"><path style="stroke-width: 1.42 ;&st7;  " d=" M  1657.22,   409.72  L  1742.21,   409.72  L  1742.21,   375.72  L  1657.22,   375.72  L  1657.22,   409.72  " /><g ewd:lineID="58"><text style="&st18;" transform="matrix(&st16;  1667.88  417.91 )">2</text><text style="&st18;" transform="matrix(&st16;  1670.25  406.02 )">+B</text></g><g ewd:lineID="59"><text style="&st18;" transform="matrix(&st16;  1667.88  372.03 )">1</text><text style="&st18;" transform="matrix(&st16;  1666.33  383.36 )">HAF1</text></g><g ewd:lineID="62"><text style="&st18;" transform="matrix(&st16;  1693.38  372.03 )">3</text><text style="&st18;" transform="matrix(&st16;  1692.25  383.36 )">AF1+</text></g><g ewd:lineID="65"><text style="&st18;" transform="matrix(&st16;  1718.87  372.03 )">4</text><text style="&st18;" transform="matrix(&st16;  1718.49  383.36 )">AF1-</text></g><g ewd:figtype="title"><text style="&st18;" transform="matrix(&st16;  1696.3  417.61 )">C114</text><text style="&st18;" transform="matrix(&st16;  1696.31  424.43 )" ewd:textID="4">Air Fuel Ratio <tspan x="0 " dy="6.0">Sensor </tspan><tspan x="0 " dy="6.0">(Bank 1 Sensor 1)</tspan></text></g></g><g ewd:figtype="conn" ewd:figID="84" ewd:code="C39,I84"><g ewd:lineID="31"><text style="&st18;" transform="matrix(&st16;  1630.75  297.24 )">1</text><path style="stroke-width: 1.42 ;&st7;   " d=" M  1644.76,   295.27  C  1644.76    292.77   1642.73    290.74   1640.23    290.74  " /><path style="stroke-width: 1.42 ;&st7;   " d=" M  1640.23,   290.74  C  1637.72    290.74   1635.69    292.77   1635.69    295.27  " /><path style="stroke-width: 1.42 ;&st7;   " d=" M  1635.69,   295.27  C  1635.69    297.77   1637.72    299.80   1640.23    299.80  " /><path style="stroke-width: 1.42 ;&st7;   " d=" M  1640.23,   299.80  C  1642.73    299.80   1644.76    297.77   1644.76    295.27  " /><text style="&st18;" transform="matrix(&st16;  1637.96  297.24 )">A</text><text style="&st18;" transform="matrix(&st16;  1634.59  287.04 )">+B2</text></g><g ewd:lineID="32"><text style="&st18;" transform="matrix(&st16;  1588.25  297.24 )">2</text><path style="stroke-width: 1.42 ;&st7;   " d=" M  1602.27,   295.27  C  1602.27    292.77   1600.24    290.74   1597.73    290.74  " /><path style="stroke-width: 1.42 ;&st7;   " d=" M  1597.73,   290.74  C  1595.23    290.74   1593.20    292.77   1593.20    295.27  " /><path style="stroke-width: 1.42 ;&st7;   " d=" M  1593.20,   295.27  C  1593.20    297.77   1595.23    299.80   1597.73    299.80  " /><path style="stroke-width: 1.42 ;&st7;   " d=" M  1597.73,   299.80  C  1600.24    299.80   1602.27    297.77   1602.27    295.27  " /><text style="&st18;" transform="matrix(&st16;  1595.47  297.24 )">A</text><text style="&st18;" transform="matrix(&st16;  1593.76  287.04 )">+B</text></g><g ewd:lineID="54"><path style="stroke-width: 1.42 ;&st7;   " d=" M  1517.28,   295.27  C  1517.28    292.77   1515.25    290.74   1512.75    290.74  " /><path style="stroke-width: 1.42 ;&st7;   " d=" M  1512.75,   290.74  C  1510.24    290.74   1508.21    292.77   1508.21    295.27  " /><path style="stroke-width: 1.42 ;&st7;   " d=" M  1508.21,   295.27  C  1508.21    297.77   1510.24    299.80   1512.75    299.80  " /><path style="stroke-width: 1.42 ;&st7;   " d=" M  1512.75,   299.80  C  1515.25    299.80   1517.28    297.77   1517.28    295.27  " /><text style="&st18;" transform="matrix(&st16;  1510.48  297.24 )">A</text><text style="&st18;" transform="matrix(&st16;  1504.32  287.04 )">GREL</text></g><g ewd:lineID="55"><text style="&st18;" transform="matrix(&st16;  1598.58  237.18 )">108</text><path style="stroke-width: 1.42 ;&st7;   " d=" M  1619.26,   235.21  C  1619.26    232.71   1617.23    230.68   1614.73    230.68  " /><path style="stroke-width: 1.42 ;&st7;   " d=" M  1614.73,   230.68  C  1612.23    230.68   1610.20    232.71   1610.20    235.21  " /><path style="stroke-width: 1.42 ;&st7;   " d=" M  1610.20,   235.21  C  1610.20    237.72   1612.23    239.75   1614.73    239.75  " /><path style="stroke-width: 1.42 ;&st7;   " d=" M  1614.73,   239.75  C  1617.23    239.75   1619.26    237.72   1619.26    235.21  " /><text style="&st18;" transform="matrix(&st16;  1612.46  237.18 )">B</text><text style="&st18;" transform="matrix(&st16;  1610.29  247.38 )">VN</text></g><g ewd:lineID="59"><text style="&st18;" transform="matrix(&st16;  1661.41  297.24 )">45</text><text style="&st18;" transform="matrix(&st16;  1671.95  297.24 )">B</text><path style="stroke-width: 1.42 ;&st7;   " d=" M  1678.75,   295.27  C  1678.75    292.77   1676.72    290.74   1674.22    290.74  " /><path style="stroke-width: 1.42 ;&st7;   " d=" M  1674.22,   290.74  C  1671.72    290.74   1669.69    292.77   1669.69    295.27  " /><path style="stroke-width: 1.42 ;&st7;   " d=" M  1669.69,   295.27  C  1669.69    297.77   1671.72    299.80   1674.22    299.80  " /><path style="stroke-width: 1.42 ;&st7;   " d=" M  1674.22,   299.80  C  1676.72    299.80   1678.75    297.77   1678.75    295.27  " /><text style="&st18;" transform="matrix(&st16;  1666.14  287.04 )">HA1A</text></g><g ewd:lineID="62"><text style="&st18;" transform="matrix(&st16;  1683.57  297.24 )">102</text><text style="&st18;" transform="matrix(&st16;  1697.45  297.24 )">B</text><path style="stroke-width: 1.42 ;&st7;   " d=" M  1704.25,   295.27  C  1704.25    292.77   1702.22    290.74   1699.72    290.74  " /><path style="stroke-width: 1.42 ;&st7;   " d=" M  1699.72,   290.74  C  1697.21    290.74   1695.18    292.77   1695.18    295.27  " /><path style="stroke-width: 1.42 ;&st7;   " d=" M  1695.18,   295.27  C  1695.18    297.77   1697.21    299.80   1699.72    299.80  " /><path style="stroke-width: 1.42 ;&st7;   " d=" M  1699.72,   299.80  C  1702.22    299.80   1704.25    297.77   1704.25    295.27  " /><text style="&st18;" transform="matrix(&st16;  1692.06  287.04 )">A1A+</text></g><g ewd:lineID="63"><text style="&st18;" transform="matrix(&st16;  1695.4  237.18 )">56</text><text style="&st18;" transform="matrix(&st16;  1705.95  237.18 )">B</text><path style="stroke-width: 1.42 ;&st7;   " d=" M  1712.75,   235.21  C  1712.75    232.71   1710.72    230.68   1708.21    230.68  " /><path style="stroke-width: 1.42 ;&st7;   " d=" M  1708.21,   230.68  C  1705.71    230.68   1703.68    232.71   1703.68    235.21  " /><path style="stroke-width: 1.42 ;&st7;   " d=" M  1703.68,   235.21  C  1703.68    237.72   1705.71    239.75   1708.21    239.75  " /><path style="stroke-width: 1.42 ;&st7;   " d=" M  1708.21,   239.75  C  1710.72    239.75   1712.75    237.72   1712.75    235.21  " /><text style="&st18;" transform="matrix(&st16;  1702.11  247.38 )">ILL+</text></g><g ewd:lineID="65"><text style="&st18;" transform="matrix(&st16;  1709.06  297.24 )">103</text><path style="stroke-width: 1.42 ;&st7;   " d=" M  1729.74,   295.27  C  1729.74    292.77   1727.71    290.74   1725.21    290.74  " /><path style="stroke-width: 1.42 ;&st7;   " d=" M  1725.21,   290.74  C  1722.71    290.74   1720.68    292.77   1720.68    295.27  " /><path style="stroke-width: 1.42 ;&st7;   " d=" M  1720.68,   295.27  C  1720.68    297.77   1722.71    299.80   1725.21    299.80  " /><path style="stroke-width: 1.42 ;&st7;   " d=" M  1725.21,   299.80  C  1727.71    299.80   1729.74    297.77   1729.74    295.27  " /><text style="&st18;" transform="matrix(&st16;  1722.95  297.24 )">B</text><text style="&st18;" transform="matrix(&st16;  1718.29  287.04 )">A1A-</text></g><g ewd:lineID="69"><text style="&st18;" transform="matrix(&st16;  1797.38  237.18 )">57</text><text style="&st18;" transform="matrix(&st16;  1807.93  237.18 )">B</text><path style="stroke-width: 1.42 ;&st7;   " d=" M  1814.73,   235.21  C  1814.73    232.71   1812.70    230.68   1810.20    230.68  " /><path style="stroke-width: 1.42 ;&st7;   " d=" M  1810.20,   230.68  C  1807.69    230.68   1805.66    232.71   1805.66    235.21  " /><path style="stroke-width: 1.42 ;&st7;   " d=" M  1805.66,   235.21  C  1805.66    237.72   1807.69    239.75   1810.20    239.75  " /><path style="stroke-width: 1.42 ;&st7;   " d=" M  1810.20,   239.75  C  1812.70    239.75   1814.73    237.72   1814.73    235.21  " /><text style="&st18;" transform="matrix(&st16;  1802.46  247.38 )">LUSL</text></g><g ewd:lineID="70"><text style="&st18;" transform="matrix(&st16;  1831.38  297.24 )">28</text><text style="&st18;" transform="matrix(&st16;  1841.93  297.24 )">A</text><path style="stroke-width: 1.42 ;&st7;   " d=" M  1848.72,   295.27  C  1848.72    292.77   1846.70    290.74   1844.19    290.74  " /><path style="stroke-width: 1.42 ;&st7;   " d=" M  1844.19,   290.74  C  1841.69    290.74   1839.66    292.77   1839.66    295.27  " /><path style="stroke-width: 1.42 ;&st7;   " d=" M  1839.66,   295.27  C  1839.66    297.77   1841.69    299.80   1844.19    299.80  " /><path style="stroke-width: 1.42 ;&st7;   " d=" M  1844.19,   299.80  C  1846.70    299.80   1848.72    297.77   1848.72    295.27  " /><text style="&st18;" transform="matrix(&st16;  1835.8  287.04 )">IGSW</text></g><g ewd:lineID="72"><text style="&st18;" transform="matrix(&st16;  1873.87  297.24 )">35</text><path style="stroke-width: 1.42 ;&st7;   " d=" M  1891.22,   295.27  C  1891.22    292.77   1889.19    290.74   1886.68    290.74  " /><path style="stroke-width: 1.42 ;&st7;   " d=" M  1886.68,   290.74  C  1884.18    290.74   1882.15    292.77   1882.15    295.27  " /><path style="stroke-width: 1.42 ;&st7;   " d=" M  1882.15,   295.27  C  1882.15    297.77   1884.18    299.80   1886.68    299.80  " /><path style="stroke-width: 1.42 ;&st7;   " d=" M  1886.68,   299.80  C  1889.19    299.80   1891.22    297.77   1891.22    295.27  " /><text style="&st18;" transform="matrix(&st16;  1884.42  297.24 )">A</text><text style="&st18;" transform="matrix(&st16;  1879.92  287.04 )">ST1-</text></g><g ewd:lineID="73"><text style="&st18;" transform="matrix(&st16;  1873.87  237.18 )">43</text><text style="&st18;" transform="matrix(&st16;  1884.42  237.18 )">B</text><path style="stroke-width: 1.42 ;&st7;   " d=" M  1891.22,   235.21  C  1891.22    232.71   1889.19    230.68   1886.68    230.68  " /><path style="stroke-width: 1.42 ;&st7;   " d=" M  1886.68,   230.68  C  1884.18    230.68   1882.15    232.71   1882.15    235.21  " /><path style="stroke-width: 1.42 ;&st7;   " d=" M  1882.15,   235.21  C  1882.15    237.72   1884.18    239.75   1886.68    239.75  " /><path style="stroke-width: 1.42 ;&st7;   " d=" M  1886.68,   239.75  C  1889.19    239.75   1891.22    237.72   1891.22    235.21  " /><text style="&st18;" transform="matrix(&st16;  1878.22  247.38 )">ECBV</text></g></g><g ewd:figtype="w2w" ewd:figID="122" ewd:code="Cu1"><text style="&st18;" transform="matrix(&st16;  1983.75  186.47 )">2</text><path style="stroke-width: 1.42 ;&st7;  " d=" M  2001.41,   174.59  L  1997.17,   178.84  L  1992.92,   174.59  " /><path style="stroke-width: 1.42 ;&st7;  " d=" M  1992.92,   171.19  L  1997.17,   175.44  L  2001.41,   171.19  "/></g><g ewd:code="1" ewd:figID="227" ewd:comment="" ewd:figtype="comment"><text style="&st18;" transform="matrix(&st16;  1687.81  590.16 )" ewd:textID="1">* 1 :Shielded</text></g></svg>
