<?xml version="1.0" encoding="utf-8"?>
<!DOCTYPE svg PUBLIC "-//W3C//DTD SVG 1.0//EN" "http://www.w3.org/TR/2001/REC-SVG-20010904/DTD/svg10.dtd"[
	<!ENTITY ns_flows "http://ns.adobe.com/Flows/1.0/">
	<!ENTITY ns_svg "http://www.w3.org/2000/svg">
	<!ENTITY ns_xlink "http://www.w3.org/1999/xlink">
	<!ENTITY st0 "font-size:7px;font-family:'MS-PGothic';adobe-font-script:japanese;">
	<!ENTITY st1 "font-size:6px;font-family:'ArialMT';">
	<!-- White fill  -->
	<!ENTITY st2 "fill:#FFFFFF;stroke:#000000; stroke-width:1.41;stroke-linecap:round;stroke-linejoin:round;">
	<!-- Yellow fill  -->
	<!ENTITY st3 "fill:#FFFFCC;stroke:#FFFFCC; stroke-width:0.1;stroke-linecap:round;stroke-linejoin:round;">
	<!-- Gray fill  -->
	<!ENTITY st4 "fill:#CCCCCC;stroke:#CCCCCC; stroke-width:0.1;stroke-linecap:round;stroke-linejoin:round;">
	<!-- Light-blue fill -->
	<!ENTITY st5 "fill:#CCECF4;stroke:#000000; stroke-width:1.133;stroke-linecap:round;stroke-linejoin:round;">
	<!ENTITY st6 "fill:none;stroke-linecap:butt; stroke-linejoin:round;">
	<!ENTITY st7 "fill:none;stroke:#000000;stroke-linecap:round;stroke-linejoin:round;">
	<!ENTITY st8 "enable-background:new    ;">
	<!-- Black fill -->
	<!ENTITY st9 "fill:#000000;stroke:#000000; stroke-linecap:round;stroke-linejoin:round;">
	<!-- SRS note   -->
	<!ENTITY st10 "font-size:9px;font-family:'ArialMT';">
	<!ENTITY st11 "font-size:9px;font-family:'Svg Symbol';">
	<!ENTITY st12 "font-size:6px;font-family:'Svg Symbol';">
	<!ENTITY st13 "fill:none;stroke:#ff0000;stroke-linecap:round;stroke-linejoin:round;">
	<!-- Yellow fill  -->
	<!ENTITY st14 "fill:#FFFF00;stroke:#FFFF00; stroke-width:0.1;stroke-linecap:round;stroke-linejoin:round;">
	<!ENTITY st15 "font-size:6px;font-family:'MS-PGothic';adobe-font-script:japanese;">
	<!ENTITY st16 "1.00 0.00 0.00 1.00">
	<!ENTITY st17 "0.00 -1.00 1.00 0.00">
	<!ENTITY st18 "font-size:6px;font-family:'Arial';">
	<!ENTITY st19 "font-size:9px;font-family:'Arial';">
	<!ENTITY st20 "font-size:6px;font-family:'MS-PGothic','MS PGothic';adobe-font-script:japanese;">
	<!ENTITY st21 "font-size:7px;font-family:'MS-PGothic','MS PGothic';adobe-font-script:japanese;">
	<!ATTLIST svg
		xmlns:ewd CDATA #FIXED "http://shcl.co.jp/ewd"
		xmlns:a CDATA #FIXED "http://ns.adobe.com/AdobeSVGViewerExtensions/3.0/"
		ewd:ver CDATA #IMPLIED
	>
	<!ATTLIST a
		ewd:lineID CDATA #IMPLIED
		ewd:groupID CDATA #IMPLIED
		ewd:figtype CDATA #IMPLIED
		ewd:code CDATA #IMPLIED
		ewd:figID CDATA #IMPLIED
		ewd:pinNo CDATA #IMPLIED
		ewd:comment CDATA #IMPLIED >
	<!ATTLIST g
		ewd:lineID CDATA #IMPLIED
		ewd:groupID CDATA #IMPLIED
		ewd:figtype CDATA #IMPLIED
		ewd:code CDATA #IMPLIED
		ewd:figID CDATA #IMPLIED
		ewd:pinNo CDATA #IMPLIED
		ewd:comment CDATA #IMPLIED >
	<!ATTLIST text
		ewd:textID CDATA #IMPLIED >
	<!ATTLIST title
		ewd:textID CDATA #IMPLIED >
]>
<!-- Generator: Shintec Hozumi YS   -->
<svg onload="call_execInitLoadProc_svg('system')" style="overflow:visible;  enable-background:new 0 0 6214.333 710.000" viewBox="0 0 6214.333 710.000" height="710.000" width="6214.333" xml:space="preserve" ewd:ver="2.3.1.16" xmlns="&ns_svg;" xmlns:a="http://ns.adobe.com/AdobeSVGViewerExtensions/3.0/" xmlns:ewd="http://shcl.co.jp/ewd" xmlns:xlink="&ns_xlink;">
<text style="&st18;" transform="matrix(&st17;  4993.47  538.67 )">W-B</text><text style="&st18;" transform="matrix(&st17;  4993.47  436.59 )">L</text><text style="&st18;" transform="matrix(&st17;  4840.49  92.4 )">L</text><text style="&st18;" transform="matrix(&st16;  4883.27  264.64 )">C39(B),I84(A)</text><text style="&st18;" transform="matrix(&st16;  4883.28  271.46 )">ECM</text><text style="&st18;" transform="matrix(&st16;  4686.78  508.0 )">BR</text><text style="&st18;" transform="matrix(&st16;  4635.79  508.0 )">BR</text><text style="&st18;" transform="matrix(&st16;  4635.79  525.0 )">BR</text><text style="&st18;" transform="matrix(&st16;  4686.78  525.0 )">BR</text><text style="&st18;" transform="matrix(&st17;  4704.52  126.39 )">L</text><text style="&st18;" transform="matrix(&st17;  4704.52  194.38 )">L</text><text style="&st18;" transform="matrix(&st17;  4781.0  54.16 )">L</text><text style="&st18;" transform="matrix(&st17;  4840.5  176.66 )">R-B</text><text style="&st18;" transform="matrix(&st17;  4781.0  117.89 )">L</text><text style="&st18;" transform="matrix(&st17;  4500.55  131.96 )">W</text><text style="&st18;" transform="matrix(&st17;  4993.47  666.15 )">W-B</text><text style="&st18;" transform="matrix(&st17;  4993.47  581.16 )">W-B</text><text style="&st18;" transform="matrix(&st17;  4993.47  377.1 )">L</text><text style="&st18;" transform="matrix(&st17;  4806.5  568.41 )">W-B</text><text style="&st18;" transform="matrix(&st17;  4594.04  464.65 )">BR</text><text style="&st18;" transform="matrix(&st17;  4526.05  335.93 )">W</text><text style="&st18;" transform="matrix(&st17;  4568.54  335.0 )">B</text><text style="&st18;" transform="matrix(&st17;  4738.51  566.63 )">BR</text><text style="&st18;" transform="matrix(&st17;  4738.51  337.17 )">BR</text><text style="&st18;" transform="matrix(&st17;  4738.51  464.65 )">BR</text><text style="&st18;" transform="matrix(&st17;  4806.5  338.95 )">W-B</text><text style="&st18;" transform="matrix(&st17;  4806.5  466.43 )">W-B</text><text style="&st18;" transform="matrix(&st17;  4933.98  337.17 )">BR</text><text style="&st18;" transform="matrix(&st17;  4942.48  216.17 )">R</text><text style="&st18;" transform="matrix(&st17;  4840.5  223.41 )">R-B</text><text style="&st18;" transform="matrix(&st17;  4500.55  217.43 )">LG</text><text style="&st18;" transform="matrix(&st17;  4993.47  317.61 )">L</text><path style="stroke-width: 1.42 ;&st7;  " d=" M  4993.64,   545.69  L  4988.67,   550.67  " /><path style="stroke-width: 1.42 ;&st7;  " d=" M  4988.67,   557.72  L  4993.64,   562.69  " /><path style="stroke-width: 1.42 ;&st7;  " d=" M  4793.20,    78.27  L  4784.70,    78.27  " /><path style="stroke-width: 1.42 ;&st7;  " d=" M  4840.66,   188.75  L  4835.69,   193.73  " /><path style="stroke-width: 1.42 ;&st7;  " d=" M  4847.72,   205.75  L  4852.69,   200.78  " /><path style="stroke-width: 1.42 ;&st7;  " d=" M  4835.69,   200.78  L  4840.66,   205.75  " /><path style="stroke-width: 1.42 ;&st7;  " d=" M  4852.69,   193.73  L  4847.72,   188.75  " /><path style="stroke-width: 1.42 ;&st7;  " d=" M  4835.69,    68.64  L  4844.19,    68.64  " /><path style="stroke-width: 1.42 ;&st7;  " d=" M  4806.67,   503.20  L  4801.70,   508.17  " /><path style="stroke-width: 1.42 ;&st7;  " d=" M  4813.72,   520.20  L  4818.69,   515.23  " /><path style="stroke-width: 1.42 ;&st7;  " d=" M  4801.70,   515.23  L  4806.67,   520.20  " /><path style="stroke-width: 1.42 ;&st7;  " d=" M  4818.69,   508.17  L  4813.72,   503.20  " /><path style="stroke-width: 1.42 ;&st7;  " d=" M  4594.20,   341.73  L  4589.23,   346.70  " /><path style="stroke-width: 1.42 ;&st7;  " d=" M  4601.26,   358.73  L  4606.23,   353.76  " /><path style="stroke-width: 1.42 ;&st7;  " d=" M  4589.23,   353.76  L  4594.20,   358.73  " /><path style="stroke-width: 1.42 ;&st7;  " d=" M  4606.23,   346.70  L  4601.26,   341.73  " /><path style="stroke-width: 1.42 ;&st7;  " d=" M  4738.68,   503.20  L  4733.71,   508.17  " /><path style="stroke-width: 1.42 ;&st7;  " d=" M  4745.73,   520.20  L  4750.71,   515.23  " /><path style="stroke-width: 1.42 ;&st7;  " d=" M  4733.71,   515.23  L  4738.68,   520.20  " /><path style="stroke-width: 1.42 ;&st7;  " d=" M  4750.71,   508.17  L  4745.73,   503.20  " /><path style="stroke-width: 1.42 ;&st7;  " d=" M  5005.66,   409.72  L  4997.17,   409.72  " /><path style="stroke-width: 1.42 ;&st7;  " d=" M  5005.66,   350.23  L  4997.17,   350.23  " /><text style="&st18;" transform="matrix(&st17;  4857.49  568.41 )">W-B</text><text style="&st18;" transform="matrix(&st17;  4857.49  337.17 )">BR</text><text style="&st18;" transform="matrix(&st17;  4857.49  466.43 )">W-B</text><path style="stroke-width: 1.42 ;&st7;  " d=" M  4857.66,   503.20  L  4852.69,   508.17  " /><path style="stroke-width: 1.42 ;&st7;  " d=" M  4864.71,   520.20  L  4869.69,   515.23  " /><path style="stroke-width: 1.42 ;&st7;  " d=" M  4852.69,   515.23  L  4857.66,   520.20  " /><path style="stroke-width: 1.42 ;&st7;  " d=" M  4869.69,   508.17  L  4864.71,   503.20  " /><text style="&st18;" transform="matrix(&st17;  4772.51  566.63 )">BR</text><text style="&st18;" transform="matrix(&st16;  4686.78  15.09 )">BR</text><text style="&st18;" transform="matrix(&st16;  4635.79  15.09 )">BR</text><g ewd:figtype="conn" ewd:figID="1" ewd:code="L60"><text style="&st18;" transform="matrix(&st17;  4992.05  491.96 )">DPF</text><text style="&st18;" transform="matrix(&st16;  4999.75  468.9 )">B</text><text style="&st18;" transform="matrix(&st16;  4999.75  508.01 )">E</text><path style="stroke-width: 1.42 ;&st7;  " d=" M  5014.16,   511.70  L  5014.16,   460.71  L  4980.17,   460.71  L  4980.17,   511.70  L  5014.16,   511.70  " /><path style="stroke-width: 0.85 ;&st7;   " d=" M  4998.58,   474.87  C  4998.58    474.09   4997.95    473.46   4997.17    473.46  " /><path style="stroke-width: 0.85 ;&st7;   " d=" M  4997.17,   473.46  C  4996.38    473.46   4995.75    474.09   4995.75    474.87  " /><path style="stroke-width: 0.85 ;&st7;   " d=" M  4995.75,   474.87  C  4995.75    475.65   4996.38    476.29   4997.17    476.29  " /><path style="stroke-width: 0.85 ;&st7;   " d=" M  4997.17,   476.29  C  4997.95    476.29   4998.58    475.65   4998.58    474.87  " /><path style="stroke-width: 0.85 ;&st7;   " d=" M  4998.58,   497.54  C  4998.58    496.75   4997.95    496.12   4997.17    496.12  " /><path style="stroke-width: 0.85 ;&st7;   " d=" M  4997.17,   496.12  C  4996.38    496.12   4995.75    496.75   4995.75    497.54  " /><path style="stroke-width: 0.85 ;&st7;   " d=" M  4995.75,   497.54  C  4995.75    498.32   4996.38    498.95   4997.17    498.95  " /><path style="stroke-width: 0.85 ;&st7;   " d=" M  4997.17,   498.95  C  4997.95    498.95   4998.58    498.32   4998.58    497.54  " /><path style="stroke-width: 0.85 ;&st7;  " d=" M  4997.17,   473.46  L  4997.17,   460.71  " /><path style="stroke-width: 1.42 ;&st7;  " d=" M  4997.17,   496.12  L  5002.83,   473.46  " /><path style="stroke-width: 0.85 ;&st7;  " d=" M  4997.17,   511.70  L  4997.17,   498.95  " /><text style="&st18;" transform="matrix(&st16;  4990.83  519.89 )">3</text><text style="&st18;" transform="matrix(&st16;  4990.83  457.02 )">1</text><g ewd:figtype="title"><text style="&st18;" transform="matrix(&st17;  5022.06  514.6 )">L60</text><text style="&st18;" transform="matrix(&st17;  5028.88  514.61 )" ewd:textID="11">Combination <tspan x="0 " dy="6.0">Switch Assembly</tspan></text></g></g><g ewd:figtype="conn" ewd:figID="10" ewd:code="L53"><path style="stroke-width: 0.85 ;&st7;  " d=" M  4997.16,   596.69  L  4997.16,   613.68  " /><path style="stroke-width: 1.42 ;&st7;  " d=" M  4988.66,   596.69  L  4988.66,   613.68  L  5005.66,   613.68  L  5005.66,   596.69  L  4988.66,   596.69  " /><text style="&st18;" transform="matrix(&st16;  4990.83  621.88 )">5</text><text style="&st18;" transform="matrix(&st16;  4987.49  593.0 )">13</text><g ewd:figtype="title"><text style="&st18;" transform="matrix(&st17;  5013.56  616.58 )">L53</text><text style="&st18;" transform="matrix(&st17;  5020.38  616.59 )" ewd:textID="65">No. 31 <tspan x="0 " dy="6.0">Junction </tspan><tspan x="0 " dy="6.0">Connector</tspan></text></g></g><g ewd:figtype="conn" ewd:figID="35" ewd:code="C68"><path style="stroke-width: 0.85 ;&st7;   " d=" M  4529.74,   418.22  C  4531.70    418.22   4533.28    416.63   4533.28    414.67  " /><path style="stroke-width: 0.85 ;&st7;   " d=" M  4533.28,   414.67  C  4533.28    412.72   4531.70    411.13   4529.74    411.13  " /><path style="stroke-width: 0.85 ;&st7;   " d=" M  4529.74,   411.13  C  4528.75    411.13   4527.91    411.49   4527.21    412.20  " /><path style="stroke-width: 0.85 ;&st7;   " d=" M  4527.21,   412.20  C  4528.58    413.59   4530.82    413.62   4532.22    412.25  " /><path style="stroke-width: 0.85 ;&st7;   " d=" M  4532.22,   412.25  C  4533.62    410.88   4533.64    408.64   4532.27    407.24  " /><path style="stroke-width: 0.85 ;&st7;   " d=" M  4532.27,   407.24  C  4530.90    405.84   4528.66    405.82   4527.26    407.19  " /><path style="stroke-width: 0.85 ;&st7;   " d=" M  4527.26,   407.19  C  4527.25    407.20   4527.23    407.22   4527.21    407.24  " /><path style="stroke-width: 0.85 ;&st7;   " d=" M  4527.21,   407.24  C  4528.58    408.64   4530.82    408.66   4532.22    407.29  " /><path style="stroke-width: 0.85 ;&st7;   " d=" M  4532.22,   407.29  C  4533.62    405.92   4533.64    403.68   4532.27    402.28  " /><path style="stroke-width: 0.85 ;&st7;   " d=" M  4532.27,   402.28  C  4531.58    401.57   4530.73    401.22   4529.74    401.22  " /><path style="stroke-width: 1.42 ;&st7;   " d=" M  4521.24,   418.22  C  4521.24    422.91   4525.05    426.71   4529.74    426.71  " /><path style="stroke-width: 1.42 ;&st7;   " d=" M  4529.74,   426.71  C  4534.44    426.71   4538.24    422.91   4538.24    418.22  " /><path style="stroke-width: 1.42 ;&st7;   " d=" M  4538.24,   401.22  C  4538.24    396.52   4534.44    392.72   4529.74    392.72  " /><path style="stroke-width: 1.42 ;&st7;   " d=" M  4529.74,   392.72  C  4525.05    392.72   4521.24    396.52   4521.24    401.22  " /><path style="stroke-width: 0.85 ;&st7;  " d=" M  4529.74,   418.22  L  4529.74,   426.71  " /><path style="stroke-width: 0.85 ;&st7;  " d=" M  4529.74,   392.72  L  4529.74,   401.22  " /><path style="stroke-width: 1.42 ;&st7;  " d=" M  4538.24,   418.22  L  4538.24,   409.72  " /><path style="stroke-width: 1.42 ;&st7;  " d=" M  4521.24,   418.22  L  4521.24,   409.72  " /><path style="stroke-width: 1.42 ;&st7;  " d=" M  4538.24,   401.22  L  4538.24,   409.72  " /><path style="stroke-width: 1.42 ;&st7;  " d=" M  4521.24,   401.22  L  4521.24,   409.72  " /><text style="&st18;" transform="matrix(&st16;  4523.4  434.91 )">2</text><text style="&st18;" transform="matrix(&st16;  4523.4  389.03 )">1</text><g ewd:figtype="title"><text style="&st18;" transform="matrix(&st17;  4546.14  429.61 )">C68</text><text style="&st18;" transform="matrix(&st17;  4552.96  429.62 )" ewd:textID="7">Cam Position <tspan x="0 " dy="6.0">Sensor</tspan></text></g></g><g ewd:figtype="conn" ewd:figID="42" ewd:code="C44"><path style="stroke-width: 1.42 ;&st7;  " d=" M  4929.17,   171.76  L  4963.17,   171.76  L  4963.17,   137.76  L  4929.17,   137.76  L  4929.17,   171.76  " /><text style="&st18;" transform="matrix(&st16;  4936.69  178.26 )">3</text><path style="stroke-width: 1.42 ;&st7;   " d=" M  4950.71,   176.29  C  4950.71    173.79   4948.68    171.76   4946.17    171.76  " /><path style="stroke-width: 1.42 ;&st7;   " d=" M  4946.17,   171.76  C  4943.67    171.76   4941.64    173.79   4941.64    176.29  " /><path style="stroke-width: 1.42 ;&st7;   " d=" M  4941.64,   176.29  C  4941.64    178.79   4943.67    180.82   4946.17    180.82  " /><path style="stroke-width: 1.42 ;&st7;   " d=" M  4946.17,   180.82  C  4948.68    180.82   4950.71    178.79   4950.71    176.29  " /><text style="&st18;" transform="matrix(&st16;  4943.91  178.26 )">B</text><text style="&st18;" transform="matrix(&st16;  4943.44  168.06 )">M</text><g ewd:figtype="title"><text style="&st18;" transform="matrix(&st16;  4925.77  134.07 )" ewd:textID="29">Generator Assembly</text><text style="&st18;" transform="matrix(&st16;  4925.76  127.24 )">C44(B)</text></g></g><g ewd:figtype="conn" ewd:figID="73" ewd:code="C32"><path style="stroke-width: 1.42 ;&st7;  " d=" M  4852.69,   146.26  L  4852.69,   112.27  L  4835.69,   112.27  L  4835.69,   146.26  L  4852.69,   146.26  " /><path style="stroke-width: 0.85 ;&st7;   " d=" M  4845.61,   140.60  C  4845.61    139.81   4844.97    139.18   4844.19    139.18  " /><path style="stroke-width: 0.85 ;&st7;   " d=" M  4844.19,   139.18  C  4843.41    139.18   4842.77    139.81   4842.77    140.60  " /><path style="stroke-width: 0.85 ;&st7;   " d=" M  4842.77,   140.60  C  4842.77    141.38   4843.41    142.01   4844.19    142.01  " /><path style="stroke-width: 0.85 ;&st7;   " d=" M  4844.19,   142.01  C  4844.97    142.01   4845.61    141.38   4845.61    140.60  " /><path style="stroke-width: 0.85 ;&st7;   " d=" M  4845.61,   117.93  C  4845.61    117.15   4844.97    116.52   4844.19    116.52  " /><path style="stroke-width: 0.85 ;&st7;   " d=" M  4844.19,   116.52  C  4843.41    116.52   4842.77    117.15   4842.77    117.93  " /><path style="stroke-width: 0.85 ;&st7;   " d=" M  4842.77,   117.93  C  4842.77    118.71   4843.41    119.35   4844.19    119.35  " /><path style="stroke-width: 0.85 ;&st7;   " d=" M  4844.19,   119.35  C  4844.97    119.35   4845.61    118.71   4845.61    117.93  " /><path style="stroke-width: 0.85 ;&st7;  " d=" M  4844.19,   116.52  L  4844.19,   112.27  " /><path style="stroke-width: 0.85 ;&st7;  " d=" M  4844.19,   146.26  L  4844.19,   142.01  " /><path style="stroke-width: 1.42 ;&st7;  " d=" M  4844.19,   139.18  L  4849.86,   116.52  " /><text style="&st18;" transform="matrix(&st16;  4837.85  154.45 )">1</text><text style="&st18;" transform="matrix(&st16;  4837.85  108.58 )">2</text><g ewd:figtype="title"><text style="&st18;" transform="matrix(&st17;  4867.41  149.17 )" ewd:textID="5">Back-Up Light <tspan x="0 " dy="6.0">Switch Assembly</tspan></text><text style="&st18;" transform="matrix(&st17;  4860.58  149.16 )">C32</text></g></g><g ewd:figtype="conn" ewd:figID="74" ewd:code="I105"><path style="stroke-width: 1.42 ;&st7;  " d=" M  4699.71,   154.76  L  4716.71,   154.76  L  4716.71,   171.76  L  4699.71,   171.76  L  4699.71,   154.76  " /><path style="stroke-width: 0.85 ;&st7;  " d=" M  4708.21,   154.76  L  4708.21,   171.76  " /><text style="&st18;" transform="matrix(&st16;  4698.73  178.26 )">8</text><path style="stroke-width: 1.42 ;&st7;   " d=" M  4712.75,   176.29  C  4712.75    173.79   4710.72    171.76   4708.21    171.76  " /><path style="stroke-width: 1.42 ;&st7;   " d=" M  4708.21,   171.76  C  4705.71    171.76   4703.68    173.79   4703.68    176.29  " /><path style="stroke-width: 1.42 ;&st7;   " d=" M  4703.68,   176.29  C  4703.68    178.79   4705.71    180.82   4708.21    180.82  " /><path style="stroke-width: 1.42 ;&st7;   " d=" M  4708.21,   180.82  C  4710.72    180.82   4712.75    178.79   4712.75    176.29  " /><text style="&st18;" transform="matrix(&st16;  4705.95  178.26 )">A</text><text style="&st18;" transform="matrix(&st16;  4698.73  152.2 )">1</text><path style="stroke-width: 1.42 ;&st7;   " d=" M  4712.75,   150.23  C  4712.75    147.72   4710.72    145.69   4708.21    145.69  " /><path style="stroke-width: 1.42 ;&st7;   " d=" M  4708.21,   145.69  C  4705.71    145.69   4703.68    147.72   4703.68    150.23  " /><path style="stroke-width: 1.42 ;&st7;   " d=" M  4703.68,   150.23  C  4703.68    152.73   4705.71    154.76   4708.21    154.76  " /><path style="stroke-width: 1.42 ;&st7;   " d=" M  4708.21,   154.76  C  4710.72    154.76   4712.75    152.73   4712.75    150.23  " /><text style="&st18;" transform="matrix(&st16;  4705.95  152.2 )">A</text><g ewd:figtype="title"><text style="&st18;" transform="matrix(&st17;  4724.61  174.66 )">I105(A)</text><text style="&st18;" transform="matrix(&st17;  4731.43  174.66 )" ewd:textID="54">No. 8 <tspan x="0 " dy="6.0">Junction </tspan><tspan x="0 " dy="6.0">Connector</tspan></text></g></g><g ewd:figtype="conn" ewd:figID="75" ewd:code="I107"><path style="stroke-width: 1.42 ;&st7;  " d=" M  4776.20,   154.76  L  4793.20,   154.76  L  4793.20,   171.76  L  4776.20,   171.76  L  4776.20,   154.76  " /><path style="stroke-width: 0.85 ;&st7;  " d=" M  4784.70,   154.76  L  4784.70,   171.76  " /><text style="&st18;" transform="matrix(&st16;  4775.22  178.26 )">5</text><path style="stroke-width: 1.42 ;&st7;   " d=" M  4789.23,   176.29  C  4789.23    173.79   4787.20    171.76   4784.70    171.76  " /><path style="stroke-width: 1.42 ;&st7;   " d=" M  4784.70,   171.76  C  4782.20    171.76   4780.17    173.79   4780.17    176.29  " /><path style="stroke-width: 1.42 ;&st7;   " d=" M  4780.17,   176.29  C  4780.17    178.79   4782.20    180.82   4784.70    180.82  " /><path style="stroke-width: 1.42 ;&st7;   " d=" M  4784.70,   180.82  C  4787.20    180.82   4789.23    178.79   4789.23    176.29  " /><text style="&st18;" transform="matrix(&st16;  4782.43  178.26 )">B</text><text style="&st18;" transform="matrix(&st16;  4775.22  152.2 )">4</text><path style="stroke-width: 1.42 ;&st7;   " d=" M  4789.23,   150.23  C  4789.23    147.72   4787.20    145.69   4784.70    145.69  " /><path style="stroke-width: 1.42 ;&st7;   " d=" M  4784.70,   145.69  C  4782.20    145.69   4780.17    147.72   4780.17    150.23  " /><path style="stroke-width: 1.42 ;&st7;   " d=" M  4780.17,   150.23  C  4780.17    152.73   4782.20    154.76   4784.70    154.76  " /><path style="stroke-width: 1.42 ;&st7;   " d=" M  4784.70,   154.76  C  4787.20    154.76   4789.23    152.73   4789.23    150.23  " /><text style="&st18;" transform="matrix(&st16;  4782.43  152.2 )">B</text><g ewd:figtype="title"><text style="&st18;" transform="matrix(&st17;  4807.92  174.66 )" ewd:textID="58">No. 12 <tspan x="0 " dy="6.0">Junction </tspan><tspan x="0 " dy="6.0">Connector</tspan></text><text style="&st18;" transform="matrix(&st17;  4801.09  174.66 )">I107(B)</text></g></g><g ewd:figtype="rb" ewd:figID="76" ewd:code="FUSE26"><text style="&st18;" transform="matrix(&st16;  4702.85  32.08 )">(IG)</text><text style="&st18;" transform="matrix(&st16;  4701.87  86.47 )">2</text><text style="&st18;" transform="matrix(&st16;  4706.34  101.49 )">2</text><text style="&st18;" transform="matrix(&st16;  4724.64  56.17 )">15A <tspan x="0 " dy="6.0">GAUGE</tspan></text><path style="stroke-width: 0.28 ;&st9;  " d=" M  4708.21,    90.37  L  4705.38,    87.54  L  4705.38,    91.79  L  4708.21,    94.62  L  4711.04,    91.79  L  4711.04,    87.54  L  4708.21,    90.37  " /><path style="stroke-width: 1.42 ;&st7;   " d=" M  4714.59,    99.52  C  4714.59     97.17   4712.68     95.27   4710.34     95.27  " /><path style="stroke-width: 1.42 ;&st7;   " d=" M  4710.34,   103.77  C  4712.68    103.77   4714.59    101.87   4714.59     99.52  " /><path style="stroke-width: 1.42 ;&st7;   " d=" M  4701.84,    99.52  C  4701.84    101.87   4703.74    103.77   4706.09    103.77  " /><path style="stroke-width: 1.42 ;&st7;   " d=" M  4706.09,    95.27  C  4703.74     95.27   4701.84     97.17   4701.84     99.52  " /><path style="stroke-width: 0.85 ;&st7;  " d=" M  4708.21,    78.27  L  4708.21,    95.27  " /><path style="stroke-width: 1.42 ;&st7;  " d=" M  4710.34,   103.77  L  4706.09,   103.77  " /><path style="stroke-width: 1.42 ;&st7;  " d=" M  4710.34,    95.27  L  4706.09,    95.27  " /><path style="stroke-width: 1.42 ;&st7;  " d=" M  4695.46,    35.78  L  4695.46,    78.27  L  4720.96,    78.27  L  4720.96,    35.78  L  4695.46,    35.78  " /><path style="stroke-width: 0.85 ;&st7;   " d=" M  4709.63,    68.36  C  4709.63     67.57   4709.00     66.94   4708.21     66.94  " /><path style="stroke-width: 0.85 ;&st7;   " d=" M  4708.21,    66.94  C  4707.43     66.94   4706.80     67.57   4706.80     68.36  " /><path style="stroke-width: 0.85 ;&st7;   " d=" M  4706.80,    68.36  C  4706.80     69.14   4707.43     69.77   4708.21     69.77  " /><path style="stroke-width: 0.85 ;&st7;   " d=" M  4708.21,    69.77  C  4709.00     69.77   4709.63     69.14   4709.63     68.36  " /><path style="stroke-width: 0.85 ;&st7;   " d=" M  4709.63,    45.69  C  4709.63     44.91   4709.00     44.28   4708.21     44.28  " /><path style="stroke-width: 0.85 ;&st7;   " d=" M  4708.21,    44.28  C  4707.43     44.28   4706.80     44.91   4706.80     45.69  " /><path style="stroke-width: 0.85 ;&st7;   " d=" M  4706.80,    45.69  C  4706.80     46.48   4707.43     47.11   4708.21     47.11  " /><path style="stroke-width: 0.85 ;&st7;   " d=" M  4708.21,    47.11  C  4709.00     47.11   4709.63     46.48   4709.63     45.69  " /><path style="stroke-width: 1.42 ;&st7;   " d=" M  4708.21,    66.94  C  4710.95     65.33   4711.86     61.80   4710.25     59.06  " /><path style="stroke-width: 1.42 ;&st7;   " d=" M  4710.25,    59.06  C  4709.73     58.18   4709.10     57.55   4708.21     57.03  " /><path style="stroke-width: 1.42 ;&st7;   " d=" M  4708.21,    47.11  C  4705.48     48.72   4704.56     52.25   4706.18     54.99  " /><path style="stroke-width: 1.42 ;&st7;   " d=" M  4706.18,    54.99  C  4706.70     55.87   4707.33     56.51   4708.21     57.03  " /><path style="stroke-width: 0.85 ;&st7;  " d=" M  4708.21,    69.77  L  4708.21,    78.27  " /></g><g ewd:figtype="conn" ewd:figID="82" ewd:code="C102,C103"><path style="stroke-width: 1.42 ;&st7;  " d=" M  4733.71,   401.22  L  4869.68,   401.22  " /><path style="stroke-width: 1.42 ;&st7;  " d=" M  4733.71,   409.72  L  4869.68,   409.72  L  4869.68,   392.72  L  4733.71,   392.72  L  4733.71,   409.72  " /><text style="&st18;" transform="matrix(&st16;  4732.73  416.22 )">4</text><path style="stroke-width: 1.42 ;&st7;   " d=" M  4746.74,   414.25  C  4746.74    411.75   4744.71    409.72   4742.21    409.72  " /><path style="stroke-width: 1.42 ;&st7;   " d=" M  4742.21,   409.72  C  4739.70    409.72   4737.68    411.75   4737.68    414.25  " /><path style="stroke-width: 1.42 ;&st7;   " d=" M  4737.68,   414.25  C  4737.68    416.75   4739.70    418.78   4742.21    418.78  " /><path style="stroke-width: 1.42 ;&st7;   " d=" M  4742.21,   418.78  C  4744.71    418.78   4746.74    416.75   4746.74    414.25  " /><text style="&st18;" transform="matrix(&st16;  4739.94  416.22 )">B</text><text style="&st18;" transform="matrix(&st16;  4732.73  390.16 )">4</text><path style="stroke-width: 1.42 ;&st7;   " d=" M  4746.74,   388.19  C  4746.74    385.68   4744.71    383.65   4742.21    383.65  " /><path style="stroke-width: 1.42 ;&st7;   " d=" M  4742.21,   383.65  C  4739.70    383.65   4737.68    385.68   4737.68    388.19  " /><path style="stroke-width: 1.42 ;&st7;   " d=" M  4737.68,   388.19  C  4737.68    390.69   4739.70    392.72   4742.21    392.72  " /><path style="stroke-width: 1.42 ;&st7;   " d=" M  4742.21,   392.72  C  4744.71    392.72   4746.74    390.69   4746.74    388.19  " /><text style="&st18;" transform="matrix(&st16;  4739.94  390.16 )">A</text><text style="&st18;" transform="matrix(&st16;  4800.72  416.22 )">1</text><text style="&st18;" transform="matrix(&st16;  4807.93  416.22 )">B</text><path style="stroke-width: 1.42 ;&st7;   " d=" M  4814.73,   414.25  C  4814.73    411.75   4812.70    409.72   4810.20    409.72  " /><path style="stroke-width: 1.42 ;&st7;   " d=" M  4810.20,   409.72  C  4807.69    409.72   4805.66    411.75   4805.66    414.25  " /><path style="stroke-width: 1.42 ;&st7;   " d=" M  4805.66,   414.25  C  4805.66    416.75   4807.69    418.78   4810.20    418.78  " /><path style="stroke-width: 1.42 ;&st7;   " d=" M  4810.20,   418.78  C  4812.70    418.78   4814.73    416.75   4814.73    414.25  " /><text style="&st18;" transform="matrix(&st16;  4800.72  390.16 )">1</text><text style="&st18;" transform="matrix(&st16;  4807.93  390.16 )">A</text><path style="stroke-width: 1.42 ;&st7;   " d=" M  4814.73,   388.19  C  4814.73    385.68   4812.70    383.65   4810.20    383.65  " /><path style="stroke-width: 1.42 ;&st7;   " d=" M  4810.20,   383.65  C  4807.69    383.65   4805.66    385.68   4805.66    388.19  " /><path style="stroke-width: 1.42 ;&st7;   " d=" M  4805.66,   388.19  C  4805.66    390.69   4807.69    392.72   4810.20    392.72  " /><path style="stroke-width: 1.42 ;&st7;   " d=" M  4810.20,   392.72  C  4812.70    392.72   4814.73    390.69   4814.73    388.19  " /><text style="&st18;" transform="matrix(&st16;  4851.71  416.22 )">2</text><path style="stroke-width: 1.42 ;&st7;   " d=" M  4865.72,   414.25  C  4865.72    411.75   4863.69    409.72   4861.19    409.72  " /><path style="stroke-width: 1.42 ;&st7;   " d=" M  4861.19,   409.72  C  4858.68    409.72   4856.66    411.75   4856.66    414.25  " /><path style="stroke-width: 1.42 ;&st7;   " d=" M  4856.66,   414.25  C  4856.66    416.75   4858.68    418.78   4861.19    418.78  " /><path style="stroke-width: 1.42 ;&st7;   " d=" M  4861.19,   418.78  C  4863.69    418.78   4865.72    416.75   4865.72    414.25  " /><text style="&st18;" transform="matrix(&st16;  4858.92  416.22 )">B</text><text style="&st18;" transform="matrix(&st16;  4851.71  390.16 )">2</text><path style="stroke-width: 1.42 ;&st7;   " d=" M  4865.72,   388.19  C  4865.72    385.68   4863.69    383.65   4861.19    383.65  " /><path style="stroke-width: 1.42 ;&st7;   " d=" M  4861.19,   383.65  C  4858.68    383.65   4856.66    385.68   4856.66    388.19  " /><path style="stroke-width: 1.42 ;&st7;   " d=" M  4856.66,   388.19  C  4856.66    390.69   4858.68    392.72   4861.19    392.72  " /><path style="stroke-width: 1.42 ;&st7;   " d=" M  4861.19,   392.72  C  4863.69    392.72   4865.72    390.69   4865.72    388.19  " /><text style="&st18;" transform="matrix(&st16;  4858.92  390.16 )">A</text><g ewd:figtype="title"><text style="&st18;" transform="matrix(&st17;  4877.58  412.62 )">C102(A),C103(B)</text><text style="&st18;" transform="matrix(&st17;  4884.4  412.62 )" ewd:textID="68">Short Connector</text></g></g><g ewd:figtype="conn" ewd:figID="84" ewd:code="C39,I84"><g ewd:lineID="201"><path style="stroke-width: 1.42 ;&st7;   " d=" M  4508.78,   235.21  C  4508.78    232.71   4506.75    230.68   4504.25    230.68  " /><path style="stroke-width: 1.42 ;&st7;   " d=" M  4504.25,   230.68  C  4501.74    230.68   4499.71    232.71   4499.71    235.21  " /><path style="stroke-width: 1.42 ;&st7;   " d=" M  4504.25,   239.75  C  4506.75    239.75   4508.78    237.72   4508.78    235.21  " /><text style="&st18;" transform="matrix(&st16;  4501.98  237.18 )">A</text></g><g ewd:lineID="203"><text style="&st18;" transform="matrix(&st16;  4559.42  297.24 )">79</text><text style="&st18;" transform="matrix(&st16;  4569.97  297.24 )">B</text><path style="stroke-width: 1.42 ;&st7;   " d=" M  4576.77,   295.27  C  4576.77    292.77   4574.74    290.74   4572.24    290.74  " /><path style="stroke-width: 1.42 ;&st7;   " d=" M  4572.24,   290.74  C  4569.73    290.74   4567.70    292.77   4567.70    295.27  " /><path style="stroke-width: 1.42 ;&st7;   " d=" M  4567.70,   295.27  C  4567.70    297.77   4569.73    299.80   4572.24    299.80  " /><path style="stroke-width: 1.42 ;&st7;   " d=" M  4572.24,   299.80  C  4574.74    299.80   4576.77    297.77   4576.77    295.27  " /><text style="&st18;" transform="matrix(&st16;  4568.69  287.04 )">G-</text></g><g ewd:lineID="204"><text style="&st18;" transform="matrix(&st16;  4516.93  297.24 )">80</text><text style="&st18;" transform="matrix(&st16;  4527.48  297.24 )">B</text><path style="stroke-width: 1.42 ;&st7;   " d=" M  4534.28,   295.27  C  4534.28    292.77   4532.25    290.74   4529.74    290.74  " /><path style="stroke-width: 1.42 ;&st7;   " d=" M  4529.74,   290.74  C  4527.24    290.74   4525.21    292.77   4525.21    295.27  " /><path style="stroke-width: 1.42 ;&st7;   " d=" M  4525.21,   295.27  C  4525.21    297.77   4527.24    299.80   4529.74    299.80  " /><path style="stroke-width: 1.42 ;&st7;   " d=" M  4529.74,   299.80  C  4532.25    299.80   4534.28    297.77   4534.28    295.27  " /><text style="&st18;" transform="matrix(&st16;  4525.42  287.04 )">G+</text></g><g ewd:lineID="210"><text style="&st18;" transform="matrix(&st16;  4729.39  297.24 )">81</text><text style="&st18;" transform="matrix(&st16;  4739.94  297.24 )">B</text><path style="stroke-width: 1.42 ;&st7;   " d=" M  4746.74,   295.27  C  4746.74    292.77   4744.71    290.74   4742.21    290.74  " /><path style="stroke-width: 1.42 ;&st7;   " d=" M  4742.21,   290.74  C  4739.70    290.74   4737.68    292.77   4737.68    295.27  " /><path style="stroke-width: 1.42 ;&st7;   " d=" M  4737.68,   295.27  C  4737.68    297.77   4739.70    299.80   4742.21    299.80  " /><path style="stroke-width: 1.42 ;&st7;   " d=" M  4742.21,   299.80  C  4744.71    299.80   4746.74    297.77   4746.74    295.27  " /><text style="&st18;" transform="matrix(&st16;  4738.31  287.04 )">E1</text></g><g ewd:lineID="214"><text style="&st18;" transform="matrix(&st16;  4797.38  297.24 )">22</text><path style="stroke-width: 1.42 ;&st7;   " d=" M  4814.73,   295.27  C  4814.73    292.77   4812.70    290.74   4810.20    290.74  " /><path style="stroke-width: 1.42 ;&st7;   " d=" M  4810.20,   290.74  C  4807.69    290.74   4805.66    292.77   4805.66    295.27  " /><path style="stroke-width: 1.42 ;&st7;   " d=" M  4805.66,   295.27  C  4805.66    297.77   4807.69    299.80   4810.20    299.80  " /><path style="stroke-width: 1.42 ;&st7;   " d=" M  4810.20,   299.80  C  4812.70    299.80   4814.73    297.77   4814.73    295.27  " /><text style="&st18;" transform="matrix(&st16;  4807.93  297.24 )">B</text><text style="&st18;" transform="matrix(&st16;  4804.63  287.04 )">E01</text></g><g ewd:lineID="215"><text style="&st18;" transform="matrix(&st16;  4831.38  237.18 )">51</text><path style="stroke-width: 1.42 ;&st7;   " d=" M  4848.72,   235.21  C  4848.72    232.71   4846.69    230.68   4844.19    230.68  " /><path style="stroke-width: 1.42 ;&st7;   " d=" M  4844.19,   230.68  C  4841.69    230.68   4839.66    232.71   4839.66    235.21  " /><path style="stroke-width: 1.42 ;&st7;   " d=" M  4839.66,   235.21  C  4839.66    237.72   4841.69    239.75   4844.19    239.75  " /><path style="stroke-width: 1.42 ;&st7;   " d=" M  4844.19,   239.75  C  4846.69    239.75   4848.72    237.72   4848.72    235.21  " /><text style="&st18;" transform="matrix(&st16;  4841.92  237.18 )">B</text><text style="&st18;" transform="matrix(&st16;  4836.81  247.38 )">RSW</text></g><g ewd:lineID="221"><text style="&st18;" transform="matrix(&st16;  4848.37  297.24 )">21</text><text style="&st18;" transform="matrix(&st16;  4858.92  297.24 )">B</text><path style="stroke-width: 1.42 ;&st7;   " d=" M  4865.72,   295.27  C  4865.72    292.77   4863.69    290.74   4861.19    290.74  " /><path style="stroke-width: 1.42 ;&st7;   " d=" M  4861.19,   290.74  C  4858.68    290.74   4856.66    292.77   4856.66    295.27  " /><path style="stroke-width: 1.42 ;&st7;   " d=" M  4856.66,   295.27  C  4856.66    297.77   4858.68    299.80   4861.19    299.80  " /><path style="stroke-width: 1.42 ;&st7;   " d=" M  4861.19,   299.80  C  4863.69    299.80   4865.72    297.77   4865.72    295.27  " /><text style="&st18;" transform="matrix(&st16;  4855.63  287.04 )">E02</text></g><g ewd:lineID="222"><text style="&st18;" transform="matrix(&st16;  4924.86  297.24 )">23</text><text style="&st18;" transform="matrix(&st16;  4935.41  297.24 )">B</text><path style="stroke-width: 1.42 ;&st7;   " d=" M  4942.21,   295.27  C  4942.21    292.77   4940.18    290.74   4937.67    290.74  " /><path style="stroke-width: 1.42 ;&st7;   " d=" M  4937.67,   290.74  C  4935.17    290.74   4933.14    292.77   4933.14    295.27  " /><path style="stroke-width: 1.42 ;&st7;   " d=" M  4933.14,   295.27  C  4933.14    297.77   4935.17    299.80   4937.67    299.80  " /><path style="stroke-width: 1.42 ;&st7;   " d=" M  4937.67,   299.80  C  4940.18    299.80   4942.21    297.77   4942.21    295.27  " /><text style="&st18;" transform="matrix(&st16;  4932.11  287.04 )">E05</text></g><g ewd:lineID="223"><text style="&st18;" transform="matrix(&st16;  4933.36  237.18 )">53</text><path style="stroke-width: 1.42 ;&st7;   " d=" M  4950.71,   235.21  C  4950.71    232.71   4948.68    230.68   4946.17    230.68  " /><path style="stroke-width: 1.42 ;&st7;   " d=" M  4946.17,   230.68  C  4943.67    230.68   4941.64    232.71   4941.64    235.21  " /><path style="stroke-width: 1.42 ;&st7;   " d=" M  4941.64,   235.21  C  4941.64    237.72   4943.67    239.75   4946.17    239.75  " /><path style="stroke-width: 1.42 ;&st7;   " d=" M  4946.17,   239.75  C  4948.68    239.75   4950.71    237.72   4950.71    235.21  " /><text style="&st18;" transform="matrix(&st16;  4943.91  237.18 )">B</text><text style="&st18;" transform="matrix(&st16;  4940.42  247.38 )">ALT</text></g><g ewd:lineID="229"><text style="&st18;" transform="matrix(&st16;  4984.35  297.24 )">16</text><text style="&st18;" transform="matrix(&st16;  4994.9  297.24 )">A</text><path style="stroke-width: 1.42 ;&st7;   " d=" M  4997.17,   290.74  C  4994.66    290.74   4992.63    292.77   4992.63    295.27  " /><path style="stroke-width: 1.42 ;&st7;   " d=" M  4992.63,   295.27  C  4992.63    297.77   4994.66    299.80   4997.17    299.80  " /><path style="stroke-width: 1.42 ;&st7;   " d=" M  4997.17,   299.80  C  4999.67    299.80   5001.70    297.77   5001.70    295.27  " /><text style="&st18;" transform="matrix(&st16;  4987.76  287.04 )">DPSW</text></g></g><g ewd:figtype="w2w" ewd:figID="139" ewd:code="AI3"><text style="&st18;" transform="matrix(&st16;  4767.95  75.99 )">42</text><path style="stroke-width: 1.42 ;&st7;  " d=" M  4788.95,    83.94  L  4784.70,    79.69  L  4780.45,    83.94  " /><path style="stroke-width: 1.42 ;&st7;  " d=" M  4788.95,    87.34  L  4784.70,    83.09  L  4780.45,    87.34  " /></g><g ewd:figtype="w2w" ewd:figID="140" ewd:code="CA4"><text style="&st18;" transform="matrix(&st16;  4827.44  74.86 )">10</text><path style="stroke-width: 1.42 ;&st7;  " d=" M  4848.44,    62.98  L  4844.19,    67.22  L  4839.94,    62.98  " /><path style="stroke-width: 1.42 ;&st7;  " d=" M  4839.94,    59.58  L  4844.19,    63.82  L  4848.44,    59.58  " /></g><g ewd:figtype="w2w" ewd:figID="141" ewd:code="IL5"><text style="&st18;" transform="matrix(&st16;  4980.41  407.44 )">32</text><path style="stroke-width: 1.42 ;&st7;  " d=" M  5001.41,   415.38  L  4997.16,   411.13  L  4992.91,   415.38  " /><path style="stroke-width: 1.42 ;&st7;  " d=" M  5001.41,   418.78  L  4997.16,   414.53  L  4992.91,   418.78  " /></g><g ewd:figtype="w2w" ewd:figID="142" ewd:code="AI2"><text style="&st18;" transform="matrix(&st16;  4983.75  347.95 )">7</text><path style="stroke-width: 1.42 ;&st7;  " d=" M  5001.41,   355.89  L  4997.16,   351.64  L  4992.91,   355.89  " /><path style="stroke-width: 1.42 ;&st7;  " d=" M  5001.41,   359.29  L  4997.16,   355.04  L  4992.91,   359.29  " /></g><g ewd:figtype="gp" ewd:figID="168" ewd:code="CE"><path style="stroke-width: 0.85 ;&st7;  " d=" M  4808.78,   710.00  L  4811.61,   710.00  " /><path style="stroke-width: 0.85 ;&st7;  " d=" M  4807.36,   707.17  L  4813.03,   707.17  " /><path style="stroke-width: 0.85 ;&st7;  " d=" M  4805.94,   704.33  L  4814.44,   704.33  " /><path style="stroke-width: 0.85 ;&st7;  " d=" M  4801.70,   701.50  L  4818.69,   701.50  " /><path style="stroke-width: 0.85 ;&st7;  " d=" M  4810.19,   697.25  L  4810.19,   701.50  " /></g><g ewd:figtype="gp" ewd:figID="169" ewd:code="CD"><path style="stroke-width: 0.85 ;&st7;  " d=" M  4936.26,   710.00  L  4939.09,   710.00  " /><path style="stroke-width: 0.85 ;&st7;  " d=" M  4934.84,   707.17  L  4940.51,   707.17  " /><path style="stroke-width: 0.85 ;&st7;  " d=" M  4933.42,   704.33  L  4941.92,   704.33  " /><path style="stroke-width: 0.85 ;&st7;  " d=" M  4929.17,   701.50  L  4946.17,   701.50  " /><path style="stroke-width: 0.85 ;&st7;  " d=" M  4937.67,   697.25  L  4937.67,   701.50  " /></g><g ewd:figtype="gp" ewd:figID="170" ewd:code="LB"><path style="stroke-width: 0.85 ;&st7;  " d=" M  4995.75,   710.00  L  4998.58,   710.00  " /><path style="stroke-width: 0.85 ;&st7;  " d=" M  4994.33,   707.17  L  5000.00,   707.17  " /><path style="stroke-width: 0.85 ;&st7;  " d=" M  4992.91,   704.33  L  5001.41,   704.33  " /><path style="stroke-width: 0.85 ;&st7;  " d=" M  4988.66,   701.50  L  5005.66,   701.50  " /><path style="stroke-width: 0.85 ;&st7;  " d=" M  4997.16,   697.25  L  4997.16,   701.50  " /></g><g ewd:code=" " ewd:figID="252" ewd:comment="1" ewd:figtype="sh"><path style="stroke-width: 0.85 ;&st7; stroke-dasharray:3, 1.5;" d=" M  4597.73,   341.73  L  4597.73,   316.23  L  4504.25,   316.23  L  4504.25,   350.23  L  4589.23,   350.23  "/><g ewd:code="" ewd:figID="231" ewd:comment="1" ewd:figtype="commref"><text style="&st18;" transform="matrix(&st17;  4500.55  337.79 )">(*1)</text></g></g></svg>
