<?xml version="1.0" encoding="utf-8"?>
<!DOCTYPE svg PUBLIC "-//W3C//DTD SVG 1.0//EN" "http://www.w3.org/TR/2001/REC-SVG-20010904/DTD/svg10.dtd"[
	<!ENTITY ns_flows "http://ns.adobe.com/Flows/1.0/">
	<!ENTITY ns_svg "http://www.w3.org/2000/svg">
	<!ENTITY ns_xlink "http://www.w3.org/1999/xlink">
	<!ENTITY st0 "font-size:7px;font-family:'MS-PGothic';adobe-font-script:japanese;">
	<!ENTITY st1 "font-size:6px;font-family:'ArialMT';">
	<!-- White fill  -->
	<!ENTITY st2 "fill:#FFFFFF;stroke:#000000; stroke-width:1.41;stroke-linecap:round;stroke-linejoin:round;">
	<!-- Yellow fill  -->
	<!ENTITY st3 "fill:#FFFFCC;stroke:#FFFFCC; stroke-width:0.1;stroke-linecap:round;stroke-linejoin:round;">
	<!-- Gray fill  -->
	<!ENTITY st4 "fill:#CCCCCC;stroke:#CCCCCC; stroke-width:0.1;stroke-linecap:round;stroke-linejoin:round;">
	<!-- Light-blue fill -->
	<!ENTITY st5 "fill:#CCECF4;stroke:#000000; stroke-width:1.133;stroke-linecap:round;stroke-linejoin:round;">
	<!ENTITY st6 "fill:none;stroke-linecap:butt; stroke-linejoin:round;">
	<!ENTITY st7 "fill:none;stroke:#000000;stroke-linecap:round;stroke-linejoin:round;">
	<!ENTITY st8 "enable-background:new    ;">
	<!-- Black fill -->
	<!ENTITY st9 "fill:#000000;stroke:#000000; stroke-linecap:round;stroke-linejoin:round;">
	<!-- SRS note   -->
	<!ENTITY st10 "font-size:9px;font-family:'ArialMT';">
	<!ENTITY st11 "font-size:9px;font-family:'Svg Symbol';">
	<!ENTITY st12 "font-size:6px;font-family:'Svg Symbol';">
	<!ENTITY st13 "fill:none;stroke:#ff0000;stroke-linecap:round;stroke-linejoin:round;">
	<!-- Yellow fill  -->
	<!ENTITY st14 "fill:#FFFF00;stroke:#FFFF00; stroke-width:0.1;stroke-linecap:round;stroke-linejoin:round;">
	<!ENTITY st15 "font-size:6px;font-family:'MS-PGothic';adobe-font-script:japanese;">
	<!ENTITY st16 "1.00 0.00 0.00 1.00">
	<!ENTITY st17 "0.00 -1.00 1.00 0.00">
	<!ENTITY st18 "font-size:6px;font-family:'Arial';">
	<!ENTITY st19 "font-size:9px;font-family:'Arial';">
	<!ENTITY st20 "font-size:6px;font-family:'MS-PGothic','MS PGothic';adobe-font-script:japanese;">
	<!ENTITY st21 "font-size:7px;font-family:'MS-PGothic','MS PGothic';adobe-font-script:japanese;">
	<!ATTLIST svg
		xmlns:ewd CDATA #FIXED "http://shcl.co.jp/ewd"
		xmlns:a CDATA #FIXED "http://ns.adobe.com/AdobeSVGViewerExtensions/3.0/"
		ewd:ver CDATA #IMPLIED
	>
	<!ATTLIST a
		ewd:lineID CDATA #IMPLIED
		ewd:groupID CDATA #IMPLIED
		ewd:figtype CDATA #IMPLIED
		ewd:code CDATA #IMPLIED
		ewd:figID CDATA #IMPLIED
		ewd:pinNo CDATA #IMPLIED
		ewd:comment CDATA #IMPLIED >
	<!ATTLIST g
		ewd:lineID CDATA #IMPLIED
		ewd:groupID CDATA #IMPLIED
		ewd:figtype CDATA #IMPLIED
		ewd:code CDATA #IMPLIED
		ewd:figID CDATA #IMPLIED
		ewd:pinNo CDATA #IMPLIED
		ewd:comment CDATA #IMPLIED >
	<!ATTLIST text
		ewd:textID CDATA #IMPLIED >
	<!ATTLIST title
		ewd:textID CDATA #IMPLIED >
]>
<!-- Generator: Shintec Hozumi YS   -->
<svg onload="call_execInitLoadProc_svg('system')" style="overflow:visible;  enable-background:new 0 0 9310.735 710.000" viewBox="0 0 9310.735 710.000" height="710.000" width="9310.735" xml:space="preserve" ewd:ver="2.3.1.16" xmlns="&ns_svg;" xmlns:a="http://ns.adobe.com/AdobeSVGViewerExtensions/3.0/" xmlns:ewd="http://shcl.co.jp/ewd" xmlns:xlink="&ns_xlink;">
<path style="stroke-width: 1.42 ;&st7;  " d=" M  9258.48,   486.20  L  9263.45,   481.24  " /><path style="stroke-width: 1.42 ;&st7;  " d=" M  9246.46,   481.24  L  9251.42,   486.20  " /><path style="stroke-width: 1.42 ;&st7;  " d=" M  9263.45,   474.18  L  9258.48,   469.21  " /><path style="stroke-width: 1.42 ;&st7;  " d=" M  9288.95,   520.20  L  9297.45,   520.20  " /><path style="stroke-width: 1.42 ;&st7;  " d=" M  9263.45,   596.69  L  9254.95,   596.69  " /><path style="stroke-width: 1.42 ;&st7;  " d=" M  9251.42,   469.21  L  9246.46,   474.18  " /><path style="stroke-width: 1.42 ;&st7;  " d=" M  9263.45,   635.65  L  9258.48,   630.68  " /><path style="stroke-width: 1.42 ;&st7;  " d=" M  9246.46,   642.71  L  9251.42,   647.68  " /><path style="stroke-width: 1.42 ;&st7;  " d=" M  9258.48,   647.68  L  9263.45,   642.71  " /><path style="stroke-width: 1.42 ;&st7;  " d=" M  9251.42,   630.68  L  9246.46,   635.65  " /><text style="&st18;" transform="matrix(&st17;  9251.26  405.16 )">BR</text><text style="&st18;" transform="matrix(&st17;  9251.26  460.4 )">BR</text><text style="&st18;" transform="matrix(&st17;  9293.75  498.56 )">BR</text><text style="&st18;" transform="matrix(&st17;  9305.08  502.86 )">(RHD)</text><text style="&st18;" transform="matrix(&st17;  9251.26  524.14 )">BR</text><text style="&st18;" transform="matrix(&st17;  9262.59  527.94 )">(LHD)</text><text style="&st18;" transform="matrix(&st17;  9293.75  549.63 )">BR</text><text style="&st18;" transform="matrix(&st17;  9305.08  553.94 )">(RHD)</text><text style="&st18;" transform="matrix(&st17;  9251.26  617.62 )">BR</text><text style="&st18;" transform="matrix(&st17;  9251.26  664.36 )">BR</text><text style="&st18;" transform="matrix(&st17;  9166.27  403.29 )">G</text><path style="stroke-width: 1.42 ;&st7;  " d=" M  9076.48,   545.69  L  9067.98,   545.69  " /><path style="stroke-width: 1.42 ;&st7;  " d=" M  9059.49,   452.21  L  9067.98,   452.21  " /><text style="&st18;" transform="matrix(&st17;  9075.62  407.44 )">(*14)</text><text style="&st18;" transform="matrix(&st17;  9166.27  547.77 )">G</text><text style="&st18;" transform="matrix(&st17;  9166.27  488.28 )">G</text><text style="&st18;" transform="matrix(&st17;  9075.62  577.42 )">(*14)</text><text style="&st18;" transform="matrix(&st17;  9064.29  572.57 )">L</text><text style="&st18;" transform="matrix(&st17;  9075.62  517.93 )">(*14)</text><text style="&st18;" transform="matrix(&st17;  9064.29  513.08 )">L</text><text style="&st18;" transform="matrix(&st17;  9064.29  402.6 )">L</text><path style="stroke-width: 1.42 ;&st7;  " d=" M  9161.47,   511.70  L  9169.97,   511.70  " /><path style="stroke-width: 1.42 ;&st7;  " d=" M  9246.46,   426.71  L  9254.95,   426.71  " /><text style="&st18;" transform="matrix(&st17;  9007.63  424.44 )">(*21)</text><g ewd:figtype="conn" ewd:figID="72" ewd:code="L36,L51"><path style="stroke-width: 1.42 ;&st7;  " d=" M  9161.47,   452.21  L  9161.47,   435.21  L  9178.46,   435.21  L  9178.46,   452.21  L  9161.47,   452.21  " /><path style="stroke-width: 0.85 ;&st7;  " d=" M  9169.96,   435.21  L  9169.96,   452.21  " /><text style="&st18;" transform="matrix(&st16;  9160.49  458.71 )">6</text><text style="&st18;" transform="matrix(&st16;  9160.49  467.78 )">5</text><text style="&st18;" transform="matrix(&st16;  9167.7  467.78 )">B</text><path style="stroke-width: 1.42 ;&st7;   " d=" M  9174.50,   465.81  C  9174.50    463.30   9172.47    461.27   9169.97    461.27  " /><path style="stroke-width: 1.42 ;&st7;   " d=" M  9169.97,   461.27  C  9167.46    461.27   9165.44    463.30   9165.44    465.81  " /><path style="stroke-width: 1.42 ;&st7;   " d=" M  9165.44,   465.81  C  9165.44    468.31   9167.46    470.34   9169.97    470.34  " /><path style="stroke-width: 1.42 ;&st7;   " d=" M  9169.97,   470.34  C  9172.47    470.34   9174.50    468.31   9174.50    465.81  " /><path style="stroke-width: 1.42 ;&st7;   " d=" M  9174.50,   456.74  C  9174.50    454.24   9172.47    452.21   9169.97    452.21  " /><path style="stroke-width: 1.42 ;&st7;   " d=" M  9169.97,   452.21  C  9167.46    452.21   9165.44    454.24   9165.44    456.74  " /><path style="stroke-width: 1.42 ;&st7;   " d=" M  9165.44,   456.74  C  9165.44    459.25   9167.46    461.27   9169.97    461.27  " /><path style="stroke-width: 1.42 ;&st7;   " d=" M  9169.97,   461.27  C  9172.47    461.27   9174.50    459.25   9174.50    456.74  " /><text style="&st18;" transform="matrix(&st16;  9167.7  458.71 )">A</text><text style="&st18;" transform="matrix(&st16;  9157.15  432.65 )">13</text><text style="&st18;" transform="matrix(&st16;  9160.49  423.58 )">7</text><text style="&st18;" transform="matrix(&st16;  9167.7  423.58 )">A</text><text style="&st18;" transform="matrix(&st16;  9167.7  432.65 )">B</text><path style="stroke-width: 1.42 ;&st7;   " d=" M  9174.50,   430.68  C  9174.50    428.18   9172.47    426.15   9169.97    426.15  " /><path style="stroke-width: 1.42 ;&st7;   " d=" M  9169.97,   426.15  C  9167.46    426.15   9165.44    428.18   9165.44    430.68  " /><path style="stroke-width: 1.42 ;&st7;   " d=" M  9165.44,   430.68  C  9165.44    433.18   9167.46    435.21   9169.97    435.21  " /><path style="stroke-width: 1.42 ;&st7;   " d=" M  9169.97,   435.21  C  9172.47    435.21   9174.50    433.18   9174.50    430.68  " /><path style="stroke-width: 1.42 ;&st7;   " d=" M  9174.50,   421.61  C  9174.50    419.11   9172.47    417.08   9169.97    417.08  " /><path style="stroke-width: 1.42 ;&st7;   " d=" M  9169.97,   417.08  C  9167.46    417.08   9165.44    419.11   9165.44    421.61  " /><path style="stroke-width: 1.42 ;&st7;   " d=" M  9165.44,   421.61  C  9165.44    424.12   9167.46    426.15   9169.97    426.15  " /><path style="stroke-width: 1.42 ;&st7;   " d=" M  9169.97,   426.15  C  9172.47    426.15   9174.50    424.12   9174.50    421.61  " /><g ewd:figtype="title"><text style="&st18;" transform="matrix(&st17;  9128.88  455.12 )" ewd:textID="89">No. 28 Junction <tspan x="0 " dy="6.0">Connector</tspan></text><text style="&st18;" transform="matrix(&st17;  9142.17  455.11 )">L51(B)</text><text style="&st18;" transform="matrix(&st17;  9122.05  455.11 )">L36(A)</text><text style="&st18;" transform="matrix(&st17;  9148.99  455.12 )" ewd:textID="88">No. 25 Junction <tspan x="0 " dy="6.0">Connector</tspan></text></g><g ewd:code="" ewd:figID="395" ewd:comment="" ewd:figtype="commref"><text style="&st18;" transform="matrix(&st16;  9175.06  458.71 )">(LHD)</text></g><g ewd:code="" ewd:figID="397" ewd:comment="" ewd:figtype="commref"><text style="&st18;" transform="matrix(&st16;  9175.06  467.78 )">(RHD)</text></g><g ewd:code="" ewd:figID="398" ewd:comment="" ewd:figtype="commref"><text style="&st18;" transform="matrix(&st16;  9175.06  423.58 )">(LHD)</text></g><g ewd:code="" ewd:figID="399" ewd:comment="" ewd:figtype="commref"><text style="&st18;" transform="matrix(&st16;  9175.06  432.65 )">(RHD)</text></g></g><g ewd:figtype="conn" ewd:figID="73" ewd:code="C96"><g ewd:lineID="406"><text style="&st18;" transform="matrix(&st16;  9061.65  593.0 )">1</text><text style="&st18;" transform="matrix(&st16;  9062.85  604.32 )">IG+</text></g></g><g ewd:figtype="w2w" ewd:figID="212" ewd:code="IC1"><path style="stroke-width: 1.42 ;&st7;  " d=" M  9072.23,   554.76  L  9067.98,   550.51  L  9063.73,   554.76  " /><path style="stroke-width: 1.42 ;&st7;  " d=" M  9072.23,   551.36  L  9067.98,   547.11  L  9063.73,   551.36  " /><text style="&st18;" transform="matrix(&st16;  9054.57  543.41 )">3</text></g><g ewd:figtype="w2w" ewd:figID="213" ewd:code="IL1"><path style="stroke-width: 1.42 ;&st7;  " d=" M  9072.23,   446.54  L  9067.98,   450.79  L  9063.73,   446.54  " /><path style="stroke-width: 1.42 ;&st7;  " d=" M  9063.73,   443.14  L  9067.98,   447.39  L  9072.23,   443.14  " /><text style="&st18;" transform="matrix(&st16;  9051.23  458.43 )">47</text></g><g ewd:figtype="w2w" ewd:figID="214" ewd:code="IL5"><text style="&st18;" transform="matrix(&st16;  9153.22  526.42 )">47</text><g ewd:code="" ewd:figID="428" ewd:comment="" ewd:figtype="commref"><text style="&st18;" transform="matrix(&st16;  9179.0  526.42 )">(RHD)</text></g></g><g ewd:figtype="w2w" ewd:figID="215" ewd:code="IL1"><path style="stroke-width: 1.42 ;&st7;  " d=" M  9165.71,   502.63  L  9169.96,   506.88  L  9174.21,   502.63  " /><path style="stroke-width: 1.42 ;&st7;  " d=" M  9174.21,   506.03  L  9169.96,   510.28  L  9165.71,   506.03  " /><text style="&st18;" transform="matrix(&st16;  9153.22  517.92 )">14</text><g ewd:code="" ewd:figID="429" ewd:comment="" ewd:figtype="commref"><text style="&st18;" transform="matrix(&st16;  9179.0  517.92 )">(LHD)</text></g></g><g ewd:figtype="w2w" ewd:figID="216" ewd:code="AC5"><path style="stroke-width: 1.42 ;&st7;  " d=" M  9259.20,   602.35  L  9254.95,   598.10  L  9250.70,   602.35  " /><path style="stroke-width: 1.42 ;&st7;  " d=" M  9259.20,   605.75  L  9254.95,   601.50  L  9250.70,   605.75  " /><text style="&st18;" transform="matrix(&st16;  9241.54  594.41 )">9</text><g ewd:code="" ewd:figID="352" ewd:comment="" ewd:figtype="commref"><text style="&st18;" transform="matrix(&st16;  9263.98  594.41 )">(RHD)</text></g></g><g ewd:figtype="w2w" ewd:figID="217" ewd:code="IC2"><text style="&st18;" transform="matrix(&st16;  9241.54  585.91 )">9</text><g ewd:code="" ewd:figID="353" ewd:comment="" ewd:figtype="commref"><text style="&st18;" transform="matrix(&st16;  9263.98  585.91 )">(LHD)</text></g></g><g ewd:figtype="w2w" ewd:figID="218" ewd:code="IL6"><text style="&st18;" transform="matrix(&st16;  9238.2  441.43 )">14</text><g ewd:code="" ewd:figID="430" ewd:comment="" ewd:figtype="commref"><text style="&st18;" transform="matrix(&st16;  9263.98  441.43 )">(RHD)</text></g></g><g ewd:figtype="w2w" ewd:figID="219" ewd:code="IL2"><path style="stroke-width: 1.42 ;&st7;  " d=" M  9259.20,   421.05  L  9254.95,   425.30  L  9250.70,   421.05  " /><path style="stroke-width: 1.42 ;&st7;  " d=" M  9250.70,   417.65  L  9254.95,   421.90  L  9259.20,   417.65  " /><text style="&st18;" transform="matrix(&st16;  9241.54  432.93 )">4</text><g ewd:code="" ewd:figID="431" ewd:comment="" ewd:figtype="commref"><text style="&st18;" transform="matrix(&st16;  9263.98  432.93 )">(LHD)</text></g></g><g ewd:figtype="w2w" ewd:figID="220" ewd:code="AI3"><path style="stroke-width: 1.42 ;&st7;  " d=" M  9293.19,   511.13  L  9297.44,   515.38  L  9301.69,   511.13  " /><path style="stroke-width: 1.42 ;&st7;  " d=" M  9301.69,   514.53  L  9297.44,   518.78  L  9293.19,   514.53  " /><text style="&st18;" transform="matrix(&st16;  9280.69  526.42 )">56</text></g><g ewd:figtype="gp" ewd:figID="236" ewd:code="CA"><path style="stroke-width: 0.85 ;&st7;  " d=" M  9254.95,   697.25  L  9254.95,   701.50  " /><path style="stroke-width: 0.85 ;&st7;  " d=" M  9246.45,   701.50  L  9263.45,   701.50  " /><path style="stroke-width: 0.85 ;&st7;  " d=" M  9250.70,   704.33  L  9259.20,   704.33  " /><path style="stroke-width: 0.85 ;&st7;  " d=" M  9252.12,   707.17  L  9257.78,   707.17  " /><path style="stroke-width: 0.85 ;&st7;  " d=" M  9253.53,   710.00  L  9256.37,   710.00  " /></g></svg>