<?xml version="1.0" encoding="utf-8"?>
<!DOCTYPE svg PUBLIC "-//W3C//DTD SVG 1.0//EN" "http://www.w3.org/TR/2001/REC-SVG-20010904/DTD/svg10.dtd"[
	<!ENTITY ns_flows "http://ns.adobe.com/Flows/1.0/">
	<!ENTITY ns_svg "http://www.w3.org/2000/svg">
	<!ENTITY ns_xlink "http://www.w3.org/1999/xlink">
	<!ENTITY st0 "font-size:7px;font-family:'MS-PGothic';adobe-font-script:japanese;">
	<!ENTITY st1 "font-size:6px;font-family:'ArialMT';">
	<!-- White fill  -->
	<!ENTITY st2 "fill:#FFFFFF;stroke:#000000; stroke-width:1.41;stroke-linecap:round;stroke-linejoin:round;">
	<!-- Yellow fill  -->
	<!ENTITY st3 "fill:#FFFFCC;stroke:#FFFFCC; stroke-width:0.1;stroke-linecap:round;stroke-linejoin:round;">
	<!-- Gray fill  -->
	<!ENTITY st4 "fill:#CCCCCC;stroke:#CCCCCC; stroke-width:0.1;stroke-linecap:round;stroke-linejoin:round;">
	<!-- Light-blue fill -->
	<!ENTITY st5 "fill:#CCECF4;stroke:#000000; stroke-width:1.133;stroke-linecap:round;stroke-linejoin:round;">
	<!ENTITY st6 "fill:none;stroke-linecap:butt; stroke-linejoin:round;">
	<!ENTITY st7 "fill:none;stroke:#000000;stroke-linecap:round;stroke-linejoin:round;">
	<!ENTITY st8 "enable-background:new    ;">
	<!-- Black fill -->
	<!ENTITY st9 "fill:#000000;stroke:#000000; stroke-linecap:round;stroke-linejoin:round;">
	<!-- SRS note   -->
	<!ENTITY st10 "font-size:9px;font-family:'ArialMT';">
	<!ENTITY st11 "font-size:9px;font-family:'Svg Symbol';">
	<!ENTITY st12 "font-size:6px;font-family:'Svg Symbol';">
	<!ENTITY st13 "fill:none;stroke:#ff0000;stroke-linecap:round;stroke-linejoin:round;">
	<!-- Yellow fill  -->
	<!ENTITY st14 "fill:#FFFF00;stroke:#FFFF00; stroke-width:0.1;stroke-linecap:round;stroke-linejoin:round;">
	<!ENTITY st15 "font-size:6px;font-family:'MS-PGothic';adobe-font-script:japanese;">
	<!ENTITY st16 "1.00 0.00 0.00 1.00">
	<!ENTITY st17 "0.00 -1.00 1.00 0.00">
	<!ENTITY st18 "font-size:6px;font-family:'Arial';">
	<!ENTITY st19 "font-size:9px;font-family:'Arial';">
	<!ENTITY st20 "font-size:6px;font-family:'MS-PGothic','MS PGothic';adobe-font-script:japanese;">
	<!ENTITY st21 "font-size:7px;font-family:'MS-PGothic','MS PGothic';adobe-font-script:japanese;">
	<!ATTLIST svg
		xmlns:ewd CDATA #FIXED "http://shcl.co.jp/ewd"
		xmlns:a CDATA #FIXED "http://ns.adobe.com/AdobeSVGViewerExtensions/3.0/"
		ewd:ver CDATA #IMPLIED
	>
	<!ATTLIST a
		ewd:lineID CDATA #IMPLIED
		ewd:groupID CDATA #IMPLIED
		ewd:figtype CDATA #IMPLIED
		ewd:code CDATA #IMPLIED
		ewd:figID CDATA #IMPLIED
		ewd:pinNo CDATA #IMPLIED
		ewd:comment CDATA #IMPLIED >
	<!ATTLIST g
		ewd:lineID CDATA #IMPLIED
		ewd:groupID CDATA #IMPLIED
		ewd:figtype CDATA #IMPLIED
		ewd:code CDATA #IMPLIED
		ewd:figID CDATA #IMPLIED
		ewd:pinNo CDATA #IMPLIED
		ewd:comment CDATA #IMPLIED >
	<!ATTLIST text
		ewd:textID CDATA #IMPLIED >
	<!ATTLIST title
		ewd:textID CDATA #IMPLIED >
]>
<!-- Generator: Shintec Hozumi YS   -->
<svg onload="call_execInitLoadProc_svg('system')" style="overflow:visible;  enable-background:new 0 0 5678.922 710.000" viewBox="0 0 5678.922 710.000" height="710.000" width="5678.922" xml:space="preserve" ewd:ver="2.3.1.16" xmlns="&ns_svg;" xmlns:a="http://ns.adobe.com/AdobeSVGViewerExtensions/3.0/" xmlns:ewd="http://shcl.co.jp/ewd" xmlns:xlink="&ns_xlink;">
<path style="stroke-width: 1.42 ;&st7;  " d=" M  2155.11,   214.25  L  2150.14,   219.22  " /><path style="stroke-width: 1.42 ;&st7;  " d=" M  2162.17,   231.25  L  2167.14,   226.28  " /><path style="stroke-width: 1.42 ;&st7;  " d=" M  2150.14,   226.28  L  2155.11,   231.25  " /><path style="stroke-width: 1.42 ;&st7;  " d=" M  2167.14,   219.22  L  2162.17,   214.25  " /><path style="stroke-width: 1.42 ;&st7;  " d=" M  2447.59,   494.70  L  2439.09,   494.70  " /><path style="stroke-width: 1.42 ;&st7;  " d=" M  2430.59,   358.73  L  2439.09,   358.73  " /><path style="stroke-width: 1.42 ;&st7;  " d=" M  2362.61,   358.73  L  2371.10,   358.73  " /><path style="stroke-width: 1.42 ;&st7;  " d=" M  2328.61,   358.73  L  2337.11,   358.73  " /><text style="&st18;" transform="matrix(&st16;  2145.7  516.5 )">BR</text><text style="&st18;" transform="matrix(&st16;  2222.19  516.5 )">BR</text><text style="&st18;" transform="matrix(&st17;  2494.89  504.67 )">W-B</text><path style="stroke-width: 1.42 ;&st7;  " d=" M  2265.59,   511.70  L  2260.62,   516.67  " /><path style="stroke-width: 1.42 ;&st7;  " d=" M  2272.65,   528.70  L  2277.62,   523.73  " /><path style="stroke-width: 1.42 ;&st7;  " d=" M  2260.62,   523.73  L  2265.59,   528.70  " /><path style="stroke-width: 1.42 ;&st7;  " d=" M  2277.62,   516.67  L  2272.65,   511.70  " /><path style="stroke-width: 1.42 ;&st7;  " d=" M  2180.61,   511.70  L  2175.64,   516.67  " /><path style="stroke-width: 1.42 ;&st7;  " d=" M  2187.66,   528.70  L  2192.63,   523.73  " /><path style="stroke-width: 1.42 ;&st7;  " d=" M  2175.64,   523.73  L  2180.61,   528.70  " /><path style="stroke-width: 1.42 ;&st7;  " d=" M  2192.63,   516.67  L  2187.66,   511.70  " /><path style="stroke-width: 1.42 ;&st7;  " d=" M  2121.12,   511.70  L  2116.15,   516.67  " /><path style="stroke-width: 1.42 ;&st7;  " d=" M  2128.17,   528.70  L  2133.14,   523.73  " /><path style="stroke-width: 1.42 ;&st7;  " d=" M  2116.15,   523.73  L  2121.12,   528.70  " /><path style="stroke-width: 1.42 ;&st7;  " d=" M  2133.14,   516.67  L  2128.17,   511.70  " /><path style="stroke-width: 1.42 ;&st7;  " d=" M  2014.16,   516.67  L  2009.19,   511.70  " /><path style="stroke-width: 1.42 ;&st7;  " d=" M  2009.19,   528.70  L  2014.16,   523.73  " /><text style="&st18;" transform="matrix(&st17;  2367.41  383.91 )">BR</text><text style="&st18;" transform="matrix(&st17;  2333.41  382.67 )">W</text><text style="&st18;" transform="matrix(&st16;  2043.72  516.5 )">BR</text><text style="&st18;" transform="matrix(&st17;  2435.4  385.19 )">G-R</text><text style="&st18;" transform="matrix(&st16;  2349.67  516.5 )">BR</text><path style="stroke-width: 1.42 ;&st7;  " d=" M  2490.08,   358.73  L  2498.58,   358.73  " /><text style="&st18;" transform="matrix(&st16;  2044.96  643.98 )">W</text><text style="&st18;" transform="matrix(&st17;  2435.4  466.61 )">Y</text><text style="&st18;" transform="matrix(&st17;  2435.4  342.7 )">G-R</text><text style="&st18;" transform="matrix(&st17;  2333.41  340.18 )">W</text><text style="&st18;" transform="matrix(&st17;  2367.41  341.42 )">BR</text><text style="&st18;" transform="matrix(&st17;  2265.43  490.14 )">BR</text><text style="&st18;" transform="matrix(&st17;  2265.43  363.28 )">L-R</text><text style="&st18;" transform="matrix(&st17;  2239.93  360.49 )">B</text><text style="&st18;" transform="matrix(&st17;  2120.95  490.14 )">BR</text><text style="&st18;" transform="matrix(&st17;  2120.95  363.79 )">G-B</text><text style="&st18;" transform="matrix(&st17;  2001.97  490.14 )">BR</text><text style="&st18;" transform="matrix(&st17;  2001.97  364.76 )">W-G</text><text style="&st18;" transform="matrix(&st17;  2154.94  131.03 )">B</text><text style="&st18;" transform="matrix(&st16;  2181.87  219.05 )">B</text><text style="&st18;" transform="matrix(&st17;  2154.94  245.76 )">B</text><text style="&st18;" transform="matrix(&st17;  2222.93  184.81 )">R-L</text><text style="&st18;" transform="matrix(&st17;  2180.44  362.66 )">BR</text><text style="&st18;" transform="matrix(&st17;  2180.44  490.14 )">BR</text><text style="&st18;" transform="matrix(&st16;  2299.7  290.13 )">C39(B),I84(C)</text><text style="&st18;" transform="matrix(&st16;  2299.71  296.96 )">ECM</text><text style="&st18;" transform="matrix(&st17;  2494.89  342.04 )">L-R</text><text style="&st18;" transform="matrix(&st17;  2494.89  401.53 )">L-R</text><text style="&st18;" transform="matrix(&st17;  2494.89  602.41 )">W-B</text><text style="&st18;" transform="matrix(&st16;  2095.95  660.98 )">W</text><text style="&st18;" transform="matrix(&st16;  2044.96  660.98 )">W</text><text style="&st18;" transform="matrix(&st16;  2095.95  643.98 )">W</text><text style="&st18;" transform="matrix(&st16;  2094.71  516.5 )">BR</text><text style="&st18;" transform="matrix(&st16;  2317.54  219.05 )">G</text><text style="&st18;" transform="matrix(&st17;  2282.42  125.75 )">G-Y</text><text style="&st18;" transform="matrix(&st17;  2477.89  225.45 )">W</text><text style="&st18;" transform="matrix(&st16;  2410.4  49.08 )">W</text><text style="&st18;" transform="matrix(&st17;  2460.89  602.41 )">W-B</text><text style="&st18;" transform="matrix(&st17;  2010.47  241.67 )">R</text><text style="&st18;" transform="matrix(&st17;  2010.47  160.09 )">L-W</text><text style="&st18;" transform="matrix(&st17;  2021.8  244.3 )">(*3)</text><text style="&st18;" transform="matrix(&st17;  2021.8  159.32 )">(*3)</text><text style="&st18;" transform="matrix(&st17;  2234.26  184.81 )">(*7)</text><text style="&st18;" transform="matrix(&st17;  2197.44  181.63 )">L</text><text style="&st18;" transform="matrix(&st17;  2208.77  184.81 )">(*8)</text><g ewd:figtype="conn" ewd:figID="1" ewd:code="I96"><path style="stroke-width: 0.85 ;&st7;  " d=" M  2481.58,   197.25  L  2481.58,   180.26  " /><path style="stroke-width: 1.42 ;&st7;  " d=" M  2473.09,   197.25  L  2473.09,   180.26  L  2490.08,   180.26  L  2490.08,   197.25  L  2473.09,   197.25  " /><text style="&st18;" transform="matrix(&st16;  2468.77  177.69 )">12</text><path style="stroke-width: 1.42 ;&st7;   " d=" M  2486.12,   175.72  C  2486.12    173.22   2484.09    171.19   2481.59    171.19  " /><path style="stroke-width: 1.42 ;&st7;   " d=" M  2481.59,   171.19  C  2479.08    171.19   2477.05    173.22   2477.05    175.72  " /><path style="stroke-width: 1.42 ;&st7;   " d=" M  2477.05,   175.72  C  2477.05    178.23   2479.08    180.26   2481.59    180.26  " /><path style="stroke-width: 1.42 ;&st7;   " d=" M  2481.59,   180.26  C  2484.09    180.26   2486.12    178.23   2486.12    175.72  " /><text style="&st18;" transform="matrix(&st16;  2479.32  177.69 )">A</text><text style="&st18;" transform="matrix(&st16;  2472.11  203.75 )">5</text><path style="stroke-width: 1.42 ;&st7;   " d=" M  2486.12,   201.78  C  2486.12    199.28   2484.09    197.25   2481.59    197.25  " /><path style="stroke-width: 1.42 ;&st7;   " d=" M  2481.59,   197.25  C  2479.08    197.25   2477.05    199.28   2477.05    201.78  " /><path style="stroke-width: 1.42 ;&st7;   " d=" M  2477.05,   201.78  C  2477.05    204.29   2479.08    206.32   2481.59    206.32  " /><path style="stroke-width: 1.42 ;&st7;   " d=" M  2481.59,   206.32  C  2484.09    206.32   2486.12    204.29   2486.12    201.78  " /><text style="&st18;" transform="matrix(&st16;  2479.32  203.75 )">A</text><g ewd:figtype="title"><text style="&st18;" transform="matrix(&st17;  2504.8  200.16 )" ewd:textID="57">No. 20 Junction <tspan x="0 " dy="6.0">Connector</tspan></text><text style="&st18;" transform="matrix(&st17;  2497.98  200.15 )">I96(A)</text></g></g><g ewd:figtype="conn" ewd:figID="16" ewd:code="C102,C103"><path style="stroke-width: 1.42 ;&st7;  " d=" M  2175.64,   426.71  L  2192.63,   426.71  " /><path style="stroke-width: 1.42 ;&st7;  " d=" M  2175.64,   435.21  L  2192.63,   435.21  L  2192.63,   418.22  L  2175.64,   418.22  L  2175.64,   435.21  " /><text style="&st18;" transform="matrix(&st16;  2174.65  441.71 )">3</text><text style="&st18;" transform="matrix(&st16;  2181.87  441.71 )">B</text><path style="stroke-width: 1.42 ;&st7;   " d=" M  2188.67,   439.75  C  2188.67    437.24   2186.64    435.21   2184.14    435.21  " /><path style="stroke-width: 1.42 ;&st7;   " d=" M  2184.14,   435.21  C  2181.63    435.21   2179.60    437.24   2179.60    439.75  " /><path style="stroke-width: 1.42 ;&st7;   " d=" M  2179.60,   439.75  C  2179.60    442.25   2181.63    444.28   2184.14    444.28  " /><path style="stroke-width: 1.42 ;&st7;   " d=" M  2184.14,   444.28  C  2186.64    444.28   2188.67    442.25   2188.67    439.75  " /><text style="&st18;" transform="matrix(&st16;  2174.65  415.65 )">3</text><text style="&st18;" transform="matrix(&st16;  2181.87  415.65 )">A</text><path style="stroke-width: 1.42 ;&st7;   " d=" M  2188.67,   413.68  C  2188.67    411.18   2186.64    409.15   2184.14    409.15  " /><path style="stroke-width: 1.42 ;&st7;   " d=" M  2184.14,   409.15  C  2181.63    409.15   2179.60    411.18   2179.60    413.68  " /><path style="stroke-width: 1.42 ;&st7;   " d=" M  2179.60,   413.68  C  2179.60    416.19   2181.63    418.22   2184.14    418.22  " /><path style="stroke-width: 1.42 ;&st7;   " d=" M  2184.14,   418.22  C  2186.64    418.22   2188.67    416.19   2188.67    413.68  " /><g ewd:figtype="title"><text style="&st18;" transform="matrix(&st17;  2200.53  438.11 )">C102(A),C103(B)</text><text style="&st18;" transform="matrix(&st17;  2207.35  438.12 )" ewd:textID="64">Short Connector</text></g></g><g ewd:figtype="conn" ewd:figID="17" ewd:code="C100"><path style="stroke-width: 1.42 ;&st7;  " d=" M  2226.63,   435.21  L  2286.12,   435.21  L  2286.12,   401.22  L  2226.63,   401.22  L  2226.63,   435.21  " /><g ewd:lineID="90"><text style="&st18;" transform="matrix(&st16;  2237.29  397.53 )">2</text><text style="&st18;" transform="matrix(&st16;  2239.19  408.85 )">PR</text></g><g ewd:lineID="93"><text style="&st18;" transform="matrix(&st16;  2262.78  443.41 )">1</text><text style="&st18;" transform="matrix(&st16;  2265.23  431.52 )">E2</text></g><g ewd:lineID="94"><text style="&st18;" transform="matrix(&st16;  2262.78  397.53 )">3</text><text style="&st18;" transform="matrix(&st16;  2264.68  408.85 )">VC</text></g><g ewd:figtype="title"><text style="&st18;" transform="matrix(&st17;  2294.01  438.11 )">C100</text><text style="&st18;" transform="matrix(&st17;  2300.84  438.12 )" ewd:textID="28">Fuel Pressure Sensor</text></g></g><g ewd:figtype="rb" ewd:figID="19" ewd:code="FUSE16"><path style="stroke-width: 0.85 ;&st7;  " d=" M  2158.64,    78.27  L  2158.64,    95.27  " /><path style="stroke-width: 1.42 ;&st7;  " d=" M  2160.76,   103.77  L  2156.51,   103.77  " /><path style="stroke-width: 1.42 ;&st7;  " d=" M  2160.76,    95.27  L  2156.51,    95.27  " /><path style="stroke-width: 1.42 ;&st7;   " d=" M  2165.01,    99.52  C  2165.01     97.17   2163.11     95.27   2160.76     95.27  " /><path style="stroke-width: 1.42 ;&st7;   " d=" M  2160.76,   103.77  C  2163.11    103.77   2165.01    101.87   2165.01     99.52  " /><path style="stroke-width: 1.42 ;&st7;   " d=" M  2152.27,    99.52  C  2152.27    101.87   2154.17    103.77   2156.51    103.77  " /><path style="stroke-width: 1.42 ;&st7;   " d=" M  2156.51,    95.27  C  2154.17     95.27   2152.27     97.17   2152.27     99.52  " /><path style="stroke-width: 0.28 ;&st9;  " d=" M  2158.64,    90.37  L  2155.81,    87.54  L  2155.81,    91.79  L  2158.64,    94.62  L  2161.47,    91.79  L  2161.47,    87.54  L  2158.64,    90.37  " /><text style="&st18;" transform="matrix(&st16;  2153.27  32.08 )">(IG)</text><text style="&st18;" transform="matrix(&st16;  2152.3  86.47 )">2</text><text style="&st18;" transform="matrix(&st16;  2156.76  101.49 )">2</text><text style="&st18;" transform="matrix(&st16;  2175.06  56.17 )">10A <tspan x="0 " dy="6.0">IGN</tspan></text><path style="stroke-width: 0.85 ;&st7;  " d=" M  2158.64,    69.77  L  2158.64,    78.27  " /><path style="stroke-width: 0.85 ;&st7;   " d=" M  2160.06,    68.36  C  2160.06     67.57   2159.42     66.94   2158.64     66.94  " /><path style="stroke-width: 0.85 ;&st7;   " d=" M  2158.64,    66.94  C  2157.86     66.94   2157.22     67.57   2157.22     68.36  " /><path style="stroke-width: 0.85 ;&st7;   " d=" M  2157.22,    68.36  C  2157.22     69.14   2157.86     69.77   2158.64     69.77  " /><path style="stroke-width: 0.85 ;&st7;   " d=" M  2158.64,    69.77  C  2159.42     69.77   2160.06     69.14   2160.06     68.36  " /><path style="stroke-width: 0.85 ;&st7;   " d=" M  2160.06,    45.69  C  2160.06     44.91   2159.42     44.28   2158.64     44.28  " /><path style="stroke-width: 0.85 ;&st7;   " d=" M  2158.64,    44.28  C  2157.86     44.28   2157.22     44.91   2157.22     45.69  " /><path style="stroke-width: 0.85 ;&st7;   " d=" M  2157.22,    45.69  C  2157.22     46.48   2157.86     47.11   2158.64     47.11  " /><path style="stroke-width: 0.85 ;&st7;   " d=" M  2158.64,    47.11  C  2159.42     47.11   2160.06     46.48   2160.06     45.69  " /><path style="stroke-width: 1.42 ;&st7;   " d=" M  2158.64,    66.94  C  2161.38     65.33   2162.29     61.80   2160.68     59.06  " /><path style="stroke-width: 1.42 ;&st7;   " d=" M  2160.68,    59.06  C  2160.16     58.18   2159.52     57.55   2158.64     57.03  " /><path style="stroke-width: 1.42 ;&st7;   " d=" M  2158.64,    47.11  C  2155.90     48.72   2154.99     52.25   2156.60     54.99  " /><path style="stroke-width: 1.42 ;&st7;   " d=" M  2156.60,    54.99  C  2157.12     55.87   2157.76     56.51   2158.64     57.03  " /><path style="stroke-width: 1.42 ;&st7;  " d=" M  2145.89,    35.78  L  2145.89,    78.27  L  2171.39,    78.27  L  2171.39,    35.78  L  2145.89,    35.78  " /></g><g ewd:figtype="conn" ewd:figID="20" ewd:code="I19"><path style="stroke-width: 0.85 ;&st7;  " d=" M  2260.62,   159.01  L  2260.62,   154.76  " /><path style="stroke-width: 0.85 ;&st7;  " d=" M  2260.62,   188.75  L  2260.62,   184.50  " /><path style="stroke-width: 1.42 ;&st7;  " d=" M  2260.62,   181.67  L  2262.32,   157.56  " /><path style="stroke-width: 0.85 ;&st7;  " d=" M  2286.12,   159.01  L  2286.12,   154.76  " /><path style="stroke-width: 0.85 ;&st7;  " d=" M  2286.12,   188.75  L  2286.12,   184.50  " /><path style="stroke-width: 1.42 ;&st7;  " d=" M  2286.12,   181.67  L  2280.45,   159.01  " /><path style="stroke-width: 0.85 ;&st7;   " d=" M  2262.04,   160.43  C  2262.04    159.64   2261.40    159.01   2260.62    159.01  " /><path style="stroke-width: 0.85 ;&st7;   " d=" M  2260.62,   159.01  C  2259.84    159.01   2259.21    159.64   2259.21    160.43  " /><path style="stroke-width: 0.85 ;&st7;   " d=" M  2259.21,   160.43  C  2259.21    161.21   2259.84    161.84   2260.62    161.84  " /><path style="stroke-width: 0.85 ;&st7;   " d=" M  2260.62,   161.84  C  2261.40    161.84   2262.04    161.21   2262.04    160.43  " /><path style="stroke-width: 0.85 ;&st7;   " d=" M  2262.04,   183.09  C  2262.04    182.31   2261.40    181.67   2260.62    181.67  " /><path style="stroke-width: 0.85 ;&st7;   " d=" M  2260.62,   181.67  C  2259.84    181.67   2259.21    182.31   2259.21    183.09  " /><path style="stroke-width: 0.85 ;&st7;   " d=" M  2259.21,   183.09  C  2259.21    183.87   2259.84    184.50   2260.62    184.50  " /><path style="stroke-width: 0.85 ;&st7;   " d=" M  2260.62,   184.50  C  2261.40    184.50   2262.04    183.87   2262.04    183.09  " /><path style="stroke-width: 0.85 ;&st7;   " d=" M  2287.53,   160.43  C  2287.53    159.64   2286.90    159.01   2286.12    159.01  " /><path style="stroke-width: 0.85 ;&st7;   " d=" M  2286.12,   159.01  C  2285.34    159.01   2284.70    159.64   2284.70    160.43  " /><path style="stroke-width: 0.85 ;&st7;   " d=" M  2284.70,   160.43  C  2284.70    161.21   2285.34    161.84   2286.12    161.84  " /><path style="stroke-width: 0.85 ;&st7;   " d=" M  2286.12,   161.84  C  2286.90    161.84   2287.53    161.21   2287.53    160.43  " /><path style="stroke-width: 0.85 ;&st7;   " d=" M  2287.53,   183.09  C  2287.53    182.31   2286.90    181.67   2286.12    181.67  " /><path style="stroke-width: 0.85 ;&st7;   " d=" M  2286.12,   181.67  C  2285.34    181.67   2284.70    182.31   2284.70    183.09  " /><path style="stroke-width: 0.85 ;&st7;   " d=" M  2284.70,   183.09  C  2284.70    183.87   2285.34    184.50   2286.12    184.50  " /><path style="stroke-width: 0.85 ;&st7;   " d=" M  2286.12,   184.50  C  2286.90    184.50   2287.53    183.87   2287.53    183.09  " /><path style="stroke-width: 0.85 ;&st7; stroke-dasharray:3, 1.5;" d=" M  2283.64,   171.76  L  2261.32,   171.76  " /><path style="stroke-width: 1.42 ;&st7;  " d=" M  2294.62,   154.76  L  2294.62,   188.75  L  2252.12,   188.75  L  2252.12,   154.76  L  2294.62,   154.76  " /><text style="&st18;" transform="matrix(&st16;  2251.14  152.2 )">4</text><path style="stroke-width: 1.42 ;&st7;   " d=" M  2265.15,   150.23  C  2265.15    147.72   2263.13    145.69   2260.62    145.69  " /><path style="stroke-width: 1.42 ;&st7;   " d=" M  2260.62,   145.69  C  2258.12    145.69   2256.09    147.72   2256.09    150.23  " /><path style="stroke-width: 1.42 ;&st7;   " d=" M  2256.09,   150.23  C  2256.09    152.73   2258.12    154.76   2260.62    154.76  " /><path style="stroke-width: 1.42 ;&st7;   " d=" M  2260.62,   154.76  C  2263.13    154.76   2265.15    152.73   2265.15    150.23  " /><text style="&st18;" transform="matrix(&st16;  2258.36  152.2 )">A</text><text style="&st18;" transform="matrix(&st16;  2251.14  195.26 )">3</text><text style="&st18;" transform="matrix(&st16;  2258.36  195.26 )">A</text><path style="stroke-width: 1.42 ;&st7;   " d=" M  2265.15,   193.29  C  2265.15    190.78   2263.13    188.75   2260.62    188.75  " /><path style="stroke-width: 1.42 ;&st7;   " d=" M  2260.62,   188.75  C  2258.12    188.75   2256.09    190.78   2256.09    193.29  " /><path style="stroke-width: 1.42 ;&st7;   " d=" M  2256.09,   193.29  C  2256.09    195.79   2258.12    197.82   2260.62    197.82  " /><path style="stroke-width: 1.42 ;&st7;   " d=" M  2260.62,   197.82  C  2263.13    197.82   2265.15    195.79   2265.15    193.29  " /><text style="&st18;" transform="matrix(&st16;  2276.64  195.26 )">1</text><text style="&st18;" transform="matrix(&st16;  2283.85  195.26 )">A</text><path style="stroke-width: 1.42 ;&st7;   " d=" M  2290.65,   193.29  C  2290.65    190.78   2288.62    188.75   2286.12    188.75  " /><path style="stroke-width: 1.42 ;&st7;   " d=" M  2286.12,   188.75  C  2283.61    188.75   2281.59    190.78   2281.59    193.29  " /><path style="stroke-width: 1.42 ;&st7;   " d=" M  2281.59,   193.29  C  2281.59    195.79   2283.61    197.82   2286.12    197.82  " /><path style="stroke-width: 1.42 ;&st7;   " d=" M  2286.12,   197.82  C  2288.62    197.82   2290.65    195.79   2290.65    193.29  " /><text style="&st18;" transform="matrix(&st16;  2276.64  152.2 )">2</text><path style="stroke-width: 1.42 ;&st7;   " d=" M  2290.65,   150.23  C  2290.65    147.72   2288.62    145.69   2286.12    145.69  " /><path style="stroke-width: 1.42 ;&st7;   " d=" M  2286.12,   145.69  C  2283.61    145.69   2281.59    147.72   2281.59    150.23  " /><path style="stroke-width: 1.42 ;&st7;   " d=" M  2281.59,   150.23  C  2281.59    152.73   2283.61    154.76   2286.12    154.76  " /><path style="stroke-width: 1.42 ;&st7;   " d=" M  2286.12,   154.76  C  2288.62    154.76   2290.65    152.73   2290.65    150.23  " /><text style="&st18;" transform="matrix(&st16;  2283.85  152.2 )">A</text><g ewd:figtype="title"><text style="&st18;" transform="matrix(&st17;  2302.51  191.65 )">I19(A)</text><text style="&st18;" transform="matrix(&st17;  2309.33  191.66 )" ewd:textID="65">Stop Light <tspan x="0 " dy="6.0">Switch Assembly</tspan></text></g></g><g ewd:figtype="conn" ewd:figID="26" ewd:code="r2"><path style="stroke-width: 1.42 ;&st7;  " d=" M  2320.11,   435.21  L  2388.10,   435.21  L  2388.10,   401.22  L  2320.11,   401.22  L  2320.11,   435.21  " /><g ewd:lineID="97"><text style="&st18;" transform="matrix(&st16;  2330.77  397.53 )">1</text><text style="&st18;" transform="matrix(&st16;  2333.14  408.85 )">+B</text></g><g ewd:lineID="99"><text style="&st18;" transform="matrix(&st16;  2364.76  397.53 )">2</text><text style="&st18;" transform="matrix(&st16;  2364.65  408.85 )">PCV</text></g><g ewd:figtype="title"><text style="&st18;" transform="matrix(&st17;  2395.99  438.11 )">r2</text><text style="&st18;" transform="matrix(&st17;  2402.82  438.12 )" ewd:textID="66">Suction Control Valve</text></g></g><g ewd:figtype="conn" ewd:figID="27" ewd:code="r3"><path style="stroke-width: 1.42 ;&st7;  " d=" M  2422.09,   401.22  L  2422.09,   435.21  L  2456.09,   435.21  L  2456.09,   401.22  L  2422.09,   401.22  " /><g ewd:lineID="103"><text style="&st18;" transform="matrix(&st16;  2432.75  443.41 )">1</text><text style="&st18;" transform="matrix(&st16;  2435.2  431.52 )">E2</text></g><g ewd:lineID="104"><text style="&st18;" transform="matrix(&st16;  2432.75  397.53 )">2</text><text style="&st18;" transform="matrix(&st16;  2433.03  408.85 )">THF</text></g><g ewd:figtype="title"><text style="&st18;" transform="matrix(&st17;  2470.81  438.12 )" ewd:textID="29">Fuel Temperature Sensor</text><text style="&st18;" transform="matrix(&st17;  2463.98  438.11 )">r3</text></g></g><g ewd:figtype="conn" ewd:figID="28" ewd:code="L6"><path style="stroke-width: 0.85 ;&st7;  " d=" M  2498.58,   430.96  L  2498.58,   426.71  " /><path style="stroke-width: 0.85 ;&st7;  " d=" M  2498.58,   460.71  L  2498.58,   456.46  " /><path style="stroke-width: 1.42 ;&st7;  " d=" M  2498.58,   453.63  L  2504.25,   430.96  " /><path style="stroke-width: 0.85 ;&st7;   " d=" M  2500.00,   432.38  C  2500.00    431.60   2499.36    430.96   2498.58    430.96  " /><path style="stroke-width: 0.85 ;&st7;   " d=" M  2498.58,   430.96  C  2497.80    430.96   2497.17    431.60   2497.17    432.38  " /><path style="stroke-width: 0.85 ;&st7;   " d=" M  2497.17,   432.38  C  2497.17    433.16   2497.80    433.80   2498.58    433.80  " /><path style="stroke-width: 0.85 ;&st7;   " d=" M  2498.58,   433.80  C  2499.36    433.80   2500.00    433.16   2500.00    432.38  " /><path style="stroke-width: 0.85 ;&st7;   " d=" M  2500.00,   455.04  C  2500.00    454.26   2499.36    453.63   2498.58    453.63  " /><path style="stroke-width: 0.85 ;&st7;   " d=" M  2498.58,   453.63  C  2497.80    453.63   2497.17    454.26   2497.17    455.04  " /><path style="stroke-width: 0.85 ;&st7;   " d=" M  2497.17,   455.04  C  2497.17    455.82   2497.80    456.46   2498.58    456.46  " /><path style="stroke-width: 0.85 ;&st7;   " d=" M  2498.58,   456.46  C  2499.36    456.46   2500.00    455.82   2500.00    455.04  " /><path style="stroke-width: 1.42 ;&st7;  " d=" M  2507.08,   460.71  L  2507.08,   426.71  L  2490.08,   426.71  L  2490.08,   460.71  L  2507.08,   460.71  " /><text style="&st18;" transform="matrix(&st16;  2492.24  468.9 )">4</text><text style="&st18;" transform="matrix(&st16;  2492.24  423.02 )">3</text><g ewd:figtype="title"><text style="&st18;" transform="matrix(&st17;  2521.8  463.61 )" ewd:textID="36">Idle Up Switch</text><text style="&st18;" transform="matrix(&st17;  2514.97  463.61 )">L6</text></g></g><g ewd:figtype="conn" ewd:figID="29" ewd:code="L53"><path style="stroke-width: 0.85 ;&st7;  " d=" M  2490.08,   537.20  L  2498.58,   537.20  " /><path style="stroke-width: 0.85 ;&st7;  " d=" M  2497.39,   536.19  L  2497.12,   536.66  L  2497.02,   537.20  L  2497.12,   537.73  L  2497.39,   538.20  L  2497.80,   538.54  L  2498.31,   538.73  L  2498.85,   538.73  L  2499.36,   538.54  L  2499.77,   538.20  L  2500.05,   537.73  L  2500.14,   537.20  L  2500.05,   536.66  L  2499.77,   536.19  L  2499.36,   535.85  L  2498.85,   535.66  L  2498.31,   535.66  L  2497.80,   535.85  L  2497.39,   536.19  L  2497.78,   536.90  L  2497.78,   537.49  L  2498.16,   537.93  L  2498.73,   538.03  L  2499.23,   537.74  L  2499.43,   537.20  L  2499.23,   536.65  L  2498.73,   536.36  L  2498.16,   536.46  L  2498.58,   537.20  " /><path style="stroke-width: 1.42 ;&st7;  " d=" M  2490.08,   528.70  L  2507.08,   528.70  L  2507.08,   545.69  L  2490.08,   545.69  L  2490.08,   528.70  " /><path style="stroke-width: 0.85 ;&st7;  " d=" M  2498.58,   528.70  L  2498.58,   545.69  " /><text style="&st18;" transform="matrix(&st16;  2483.74  533.51 )">5</text><text style="&st18;" transform="matrix(&st16;  2492.24  553.89 )">4</text><text style="&st18;" transform="matrix(&st16;  2492.24  525.01 )">3</text><g ewd:figtype="title"><text style="&st18;" transform="matrix(&st17;  2521.8  548.6 )" ewd:textID="60">No. 31 <tspan x="0 " dy="6.0">Junction </tspan><tspan x="0 " dy="6.0">Connector</tspan></text><text style="&st18;" transform="matrix(&st17;  2514.97  548.59 )">L53</text></g></g><g ewd:figtype="rb" ewd:figID="48" ewd:code="FUSE36"><path style="stroke-width: 0.85 ;&st7;  " d=" M  2286.12,    78.27  L  2286.12,    95.27  " /><path style="stroke-width: 1.42 ;&st7;  " d=" M  2288.24,   103.77  L  2283.99,   103.77  " /><path style="stroke-width: 1.42 ;&st7;  " d=" M  2288.24,    95.27  L  2283.99,    95.27  " /><path style="stroke-width: 1.42 ;&st7;   " d=" M  2292.49,    99.52  C  2292.49     97.17   2290.59     95.27   2288.24     95.27  " /><path style="stroke-width: 1.42 ;&st7;   " d=" M  2288.24,   103.77  C  2290.59    103.77   2292.49    101.87   2292.49     99.52  " /><path style="stroke-width: 1.42 ;&st7;   " d=" M  2279.74,    99.52  C  2279.74    101.87   2281.65    103.77   2283.99    103.77  " /><path style="stroke-width: 1.42 ;&st7;   " d=" M  2283.99,    95.27  C  2281.65     95.27   2279.74     97.17   2279.74     99.52  " /><path style="stroke-width: 0.28 ;&st9;  " d=" M  2286.12,    90.37  L  2283.28,    87.54  L  2283.28,    91.79  L  2286.12,    94.62  L  2288.95,    91.79  L  2288.95,    87.54  L  2286.12,    90.37  " /><text style="&st18;" transform="matrix(&st16;  2278.04  32.08 )">(BAT)</text><text style="&st18;" transform="matrix(&st16;  2279.78  86.47 )">2</text><text style="&st18;" transform="matrix(&st16;  2284.24  101.49 )">2</text><text style="&st18;" transform="matrix(&st16;  2302.54  56.17 )">30A <tspan x="0 " dy="6.0">STOP</tspan></text><path style="stroke-width: 0.85 ;&st7;  " d=" M  2286.12,    69.77  L  2286.12,    78.27  " /><path style="stroke-width: 0.85 ;&st7;   " d=" M  2287.53,    68.36  C  2287.53     67.57   2286.90     66.94   2286.12     66.94  " /><path style="stroke-width: 0.85 ;&st7;   " d=" M  2286.12,    66.94  C  2285.34     66.94   2284.70     67.57   2284.70     68.36  " /><path style="stroke-width: 0.85 ;&st7;   " d=" M  2284.70,    68.36  C  2284.70     69.14   2285.34     69.77   2286.12     69.77  " /><path style="stroke-width: 0.85 ;&st7;   " d=" M  2286.12,    69.77  C  2286.90     69.77   2287.53     69.14   2287.53     68.36  " /><path style="stroke-width: 0.85 ;&st7;   " d=" M  2287.53,    45.69  C  2287.53     44.91   2286.90     44.28   2286.12     44.28  " /><path style="stroke-width: 0.85 ;&st7;   " d=" M  2286.12,    44.28  C  2285.34     44.28   2284.70     44.91   2284.70     45.69  " /><path style="stroke-width: 0.85 ;&st7;   " d=" M  2284.70,    45.69  C  2284.70     46.48   2285.34     47.11   2286.12     47.11  " /><path style="stroke-width: 0.85 ;&st7;   " d=" M  2286.12,    47.11  C  2286.90     47.11   2287.53     46.48   2287.53     45.69  " /><path style="stroke-width: 1.42 ;&st7;   " d=" M  2286.12,    66.94  C  2288.86     65.33   2289.77     61.80   2288.15     59.06  " /><path style="stroke-width: 1.42 ;&st7;   " d=" M  2288.15,    59.06  C  2287.64     58.18   2287.00     57.55   2286.12     57.03  " /><path style="stroke-width: 1.42 ;&st7;   " d=" M  2286.12,    47.11  C  2283.38     48.72   2282.47     52.25   2284.08     54.99  " /><path style="stroke-width: 1.42 ;&st7;   " d=" M  2284.08,    54.99  C  2284.60     55.87   2285.24     56.51   2286.12     57.03  " /><path style="stroke-width: 1.42 ;&st7;  " d=" M  2273.37,    35.78  L  2273.37,    78.27  L  2298.86,    78.27  L  2298.86,    35.78  L  2273.37,    35.78  " /></g><g ewd:figtype="rb" ewd:figID="49" ewd:code="FUSE29"><path style="stroke-width: 1.42 ;&st7;  " d=" M  2390.23,   188.75  L  2385.98,   188.75  " /><path style="stroke-width: 1.42 ;&st7;  " d=" M  2390.23,   180.26  L  2385.98,   180.26  " /><path style="stroke-width: 1.42 ;&st7;  " d=" M  2390.23,    86.77  L  2385.98,    86.77  " /><path style="stroke-width: 1.42 ;&st7;  " d=" M  2390.23,    78.27  L  2385.98,    78.27  " /><path style="stroke-width: 1.42 ;&st7;   " d=" M  2394.47,   184.50  C  2394.47    182.16   2392.57    180.26   2390.23    180.26  " /><path style="stroke-width: 1.42 ;&st7;   " d=" M  2390.23,   188.75  C  2392.57    188.75   2394.47    186.85   2394.47    184.50  " /><path style="stroke-width: 1.42 ;&st7;   " d=" M  2381.73,   184.50  C  2381.73    186.85   2383.63    188.75   2385.98    188.75  " /><path style="stroke-width: 1.42 ;&st7;   " d=" M  2385.98,   180.26  C  2383.63    180.26   2381.73    182.16   2381.73    184.50  " /><path style="stroke-width: 1.42 ;&st7;   " d=" M  2394.47,    82.52  C  2394.47     80.17   2392.57     78.27   2390.23     78.27  " /><path style="stroke-width: 1.42 ;&st7;   " d=" M  2390.23,    86.77  C  2392.57     86.77   2394.47     84.87   2394.47     82.52  " /><path style="stroke-width: 1.42 ;&st7;   " d=" M  2381.73,    82.52  C  2381.73     84.87   2383.63     86.77   2385.98     86.77  " /><path style="stroke-width: 1.42 ;&st7;   " d=" M  2385.98,    78.27  C  2383.63     78.27   2381.73     80.17   2381.73     82.52  " /><path style="stroke-width: 0.85 ;&st7;  " d=" M  2388.10,   180.26  L  2388.10,   154.76  " /><path style="stroke-width: 0.85 ;&st7;  " d=" M  2388.10,   112.27  L  2388.10,    86.77  " /><path style="stroke-width: 0.28 ;&st9;  " d=" M  2388.10,   175.36  L  2385.27,   172.53  L  2385.27,   176.78  L  2388.10,   179.61  L  2390.93,   176.78  L  2390.93,   172.53  L  2388.10,   175.36  " /><path style="stroke-width: 0.28 ;&st9;  " d=" M  2388.10,    91.67  L  2390.93,    94.50  L  2390.93,    90.25  L  2388.10,    87.42  L  2385.27,    90.25  L  2385.27,    94.50  L  2388.10,    91.67  " /><text style="&st18;" transform="matrix(&st16;  2386.22  186.47 )">2</text><text style="&st18;" transform="matrix(&st16;  2381.76  108.58 )">2</text><text style="&st18;" transform="matrix(&st16;  2381.76  162.95 )">1</text><text style="&st18;" transform="matrix(&st16;  2404.53  132.66 )">15A <tspan x="0 " dy="6.0">STOP</tspan></text><text style="&st18;" transform="matrix(&st16;  2386.22  84.49 )">2</text><path style="stroke-width: 0.85 ;&st7;  " d=" M  2388.10,   146.26  L  2388.10,   154.76  " /><path style="stroke-width: 0.85 ;&st7;   " d=" M  2389.52,   144.84  C  2389.52    144.06   2388.88    143.43   2388.10    143.43  " /><path style="stroke-width: 0.85 ;&st7;   " d=" M  2388.10,   143.43  C  2387.32    143.43   2386.68    144.06   2386.68    144.84  " /><path style="stroke-width: 0.85 ;&st7;   " d=" M  2386.68,   144.84  C  2386.68    145.63   2387.32    146.26   2388.10    146.26  " /><path style="stroke-width: 0.85 ;&st7;   " d=" M  2388.10,   146.26  C  2388.88    146.26   2389.52    145.63   2389.52    144.84  " /><path style="stroke-width: 0.85 ;&st7;   " d=" M  2389.52,   122.18  C  2389.52    121.40   2388.88    120.77   2388.10    120.77  " /><path style="stroke-width: 0.85 ;&st7;   " d=" M  2388.10,   120.77  C  2387.32    120.77   2386.68    121.40   2386.68    122.18  " /><path style="stroke-width: 0.85 ;&st7;   " d=" M  2386.68,   122.18  C  2386.68    122.96   2387.32    123.60   2388.10    123.60  " /><path style="stroke-width: 0.85 ;&st7;   " d=" M  2388.10,   123.60  C  2388.88    123.60   2389.52    122.96   2389.52    122.18  " /><path style="stroke-width: 1.42 ;&st7;   " d=" M  2388.10,   143.43  C  2390.84    141.81   2391.75    138.29   2390.14    135.55  " /><path style="stroke-width: 1.42 ;&st7;   " d=" M  2390.14,   135.55  C  2389.62    134.67   2388.98    134.03   2388.10    133.51  " /><path style="stroke-width: 1.42 ;&st7;   " d=" M  2388.10,   123.60  C  2385.36    125.21   2384.45    128.74   2386.06    131.48  " /><path style="stroke-width: 1.42 ;&st7;   " d=" M  2386.06,   131.48  C  2386.58    132.36   2387.22    132.99   2388.10    133.51  " /><path style="stroke-width: 1.42 ;&st7;  " d=" M  2375.35,   112.27  L  2375.35,   154.76  L  2400.85,   154.76  L  2400.85,   112.27  L  2375.35,   112.27  " /><path style="stroke-width: 0.85 ;&st7;  " d=" M  2388.10,   112.27  L  2388.10,   120.77  " /></g><g ewd:figtype="conn" ewd:figID="60" ewd:code="C69"><path style="stroke-width: 0.85 ;&st7;  " d=" M  2116.15,   413.97  L  2116.15,   430.96  " /><path style="stroke-width: 0.85 ;&st7;  " d=" M  2124.65,   413.97  L  2124.65,   401.22  " /><path style="stroke-width: 0.85 ;&st7;  " d=" M  2133.14,   413.97  L  2133.14,   430.96  " /><path style="stroke-width: 0.85 ;&st7;  " d=" M  2121.81,   429.55  L  2124.65,   430.96  " /><path style="stroke-width: 0.85 ;&st7;  " d=" M  2124.65,   413.97  L  2127.48,   415.38  " /><path style="stroke-width: 0.85 ;&st7;  " d=" M  2127.48,   415.38  L  2121.81,   418.22  " /><path style="stroke-width: 0.85 ;&st7;  " d=" M  2121.81,   418.22  L  2127.48,   421.05  " /><path style="stroke-width: 0.85 ;&st7;  " d=" M  2127.48,   421.05  L  2121.81,   423.88  " /><path style="stroke-width: 0.85 ;&st7;  " d=" M  2121.81,   423.88  L  2127.48,   426.71  " /><path style="stroke-width: 0.85 ;&st7;  " d=" M  2127.48,   426.71  L  2121.81,   429.55  " /><path style="stroke-width: 0.85 ;&st7;  " d=" M  2124.65,   443.71  L  2124.65,   430.96  " /><path style="stroke-width: 0.85 ;&st7;   " d=" M  2116.15,   430.96  C  2116.15    435.66   2119.95    439.46   2124.65    439.46  " /><path style="stroke-width: 0.85 ;&st7;   " d=" M  2124.65,   439.46  C  2129.34    439.46   2133.14    435.66   2133.14    430.96  " /><path style="stroke-width: 0.85 ;&st7;   " d=" M  2133.14,   413.97  C  2133.14    409.27   2129.34    405.47   2124.65    405.47  " /><path style="stroke-width: 0.85 ;&st7;   " d=" M  2124.65,   405.47  C  2119.95    405.47   2116.15    409.27   2116.15    413.97  " /><path style="stroke-width: 1.42 ;&st7;  " d=" M  2111.90,   443.71  L  2111.90,   401.22  L  2137.39,   401.22  L  2137.39,   443.71  L  2111.90,   443.71  " /><text style="&st18;" transform="matrix(&st16;  2115.16  450.21 )">1</text><path style="stroke-width: 1.42 ;&st7;   " d=" M  2129.18,   448.24  C  2129.18    445.74   2127.15    443.71   2124.65    443.71  " /><path style="stroke-width: 1.42 ;&st7;   " d=" M  2124.65,   443.71  C  2122.14    443.71   2120.11    445.74   2120.11    448.24  " /><path style="stroke-width: 1.42 ;&st7;   " d=" M  2120.11,   448.24  C  2120.11    450.75   2122.14    452.78   2124.65    452.78  " /><path style="stroke-width: 1.42 ;&st7;   " d=" M  2124.65,   452.78  C  2127.15    452.78   2129.18    450.75   2129.18    448.24  " /><text style="&st18;" transform="matrix(&st16;  2122.38  450.21 )">A</text><text style="&st18;" transform="matrix(&st16;  2115.16  398.65 )">2</text><path style="stroke-width: 1.42 ;&st7;   " d=" M  2129.18,   396.69  C  2129.18    394.18   2127.15    392.15   2124.65    392.15  " /><path style="stroke-width: 1.42 ;&st7;   " d=" M  2124.65,   392.15  C  2122.14    392.15   2120.11    394.18   2120.11    396.69  " /><path style="stroke-width: 1.42 ;&st7;   " d=" M  2120.11,   396.69  C  2120.11    399.19   2122.14    401.22   2124.65    401.22  " /><path style="stroke-width: 1.42 ;&st7;   " d=" M  2124.65,   401.22  C  2127.15    401.22   2129.18    399.19   2129.18    396.69  " /><text style="&st18;" transform="matrix(&st16;  2122.38  398.65 )">A</text><g ewd:figtype="title"><text style="&st18;" transform="matrix(&st17;  2152.11  446.62 )" ewd:textID="20">Diesel Engine Coolant <tspan x="0 " dy="6.0">Temperature Sensor</tspan></text><text style="&st18;" transform="matrix(&st17;  2145.29  446.61 )">C69(A)</text></g></g><g ewd:figtype="conn" ewd:figID="63" ewd:code="C39,I84"><g ewd:lineID="100"><text style="&st18;" transform="matrix(&st16;  2354.95  322.73 )">105</text><text style="&st18;" transform="matrix(&st16;  2368.84  322.73 )">B</text><path style="stroke-width: 1.42 ;&st7;   " d=" M  2375.64,   320.77  C  2375.64    318.26   2373.61    316.23   2371.10    316.23  " /><path style="stroke-width: 1.42 ;&st7;   " d=" M  2371.10,   316.23  C  2368.60    316.23   2366.57    318.26   2366.57    320.77  " /><path style="stroke-width: 1.42 ;&st7;   " d=" M  2366.57,   320.77  C  2366.57    323.27   2368.60    325.30   2371.10    325.30  " /><path style="stroke-width: 1.42 ;&st7;   " d=" M  2371.10,   325.30  C  2373.61    325.30   2375.64    323.27   2375.64    320.77  " /><text style="&st18;" transform="matrix(&st16;  2363.68  312.54 )">PCV-</text></g><g ewd:lineID="105"><text style="&st18;" transform="matrix(&st16;  2422.94  322.73 )">116</text><text style="&st18;" transform="matrix(&st16;  2436.83  322.73 )">B</text><path style="stroke-width: 1.42 ;&st7;   " d=" M  2443.63,   320.77  C  2443.63    318.26   2441.60    316.23   2439.09    316.23  " /><path style="stroke-width: 1.42 ;&st7;   " d=" M  2439.09,   316.23  C  2436.59    316.23   2434.56    318.26   2434.56    320.77  " /><path style="stroke-width: 1.42 ;&st7;   " d=" M  2434.56,   320.77  C  2434.56    323.27   2436.59    325.30   2439.09    325.30  " /><path style="stroke-width: 1.42 ;&st7;   " d=" M  2439.09,   325.30  C  2441.60    325.30   2443.63    323.27   2443.63    320.77  " /><text style="&st18;" transform="matrix(&st16;  2433.03  312.54 )">THF</text></g><g ewd:lineID="107"><text style="&st18;" transform="matrix(&st16;  2468.77  262.68 )">36</text><path style="stroke-width: 1.42 ;&st7;   " d=" M  2486.12,   260.71  C  2486.12    258.21   2484.09    256.18   2481.59    256.18  " /><path style="stroke-width: 1.42 ;&st7;   " d=" M  2481.59,   256.18  C  2479.08    256.18   2477.05    258.21   2477.05    260.71  " /><path style="stroke-width: 1.42 ;&st7;   " d=" M  2477.05,   260.71  C  2477.05    263.21   2479.08    265.24   2481.59    265.24  " /><path style="stroke-width: 1.42 ;&st7;   " d=" M  2481.59,   265.24  C  2484.09    265.24   2486.12    263.21   2486.12    260.71  " /><text style="&st18;" transform="matrix(&st16;  2479.16  262.68 )">C</text><text style="&st18;" transform="matrix(&st16;  2475.48  272.88 )">STP</text></g><g ewd:lineID="113"><text style="&st18;" transform="matrix(&st16;  2485.77  322.73 )">12</text><text style="&st18;" transform="matrix(&st16;  2496.16  322.73 )">C</text><path style="stroke-width: 1.42 ;&st7;   " d=" M  2498.58,   316.23  C  2496.08    316.23   2494.05    318.26   2494.05    320.77  " /><path style="stroke-width: 1.42 ;&st7;   " d=" M  2494.05,   320.77  C  2494.05    323.27   2496.08    325.30   2498.58    325.30  " /><path style="stroke-width: 1.42 ;&st7;   " d=" M  2498.58,   325.30  C  2501.09    325.30   2503.12    323.27   2503.12    320.77  " /><text style="&st18;" transform="matrix(&st16;  2490.35  312.54 )">IUSW</text></g><g ewd:lineID="78"><path style="stroke-width: 1.42 ;&st7;   " d=" M  2010.20,   320.77  C  2010.20    318.26   2008.17    316.23   2005.66    316.23  " /><path style="stroke-width: 1.42 ;&st7;   " d=" M  2005.66,   316.23  C  2003.16    316.23   2001.13    318.26   2001.13    320.77  " /><path style="stroke-width: 1.42 ;&st7;   " d=" M  2001.13,   320.77  C  2001.13    323.27   2003.16    325.30   2005.66    325.30  " /><path style="stroke-width: 1.42 ;&st7;   " d=" M  2005.66,   325.30  C  2008.17    325.30   2010.20    323.27   2010.20    320.77  " /><text style="&st18;" transform="matrix(&st16;  2003.4  322.73 )">B</text></g><g ewd:lineID="80"><path style="stroke-width: 1.42 ;&st7;   " d=" M  2018.70,   260.71  C  2018.70    258.21   2016.67    256.18   2014.16    256.18  " /><path style="stroke-width: 1.42 ;&st7;   " d=" M  2014.16,   256.18  C  2011.66    256.18   2009.63    258.21   2009.63    260.71  " /><path style="stroke-width: 1.42 ;&st7;   " d=" M  2009.63,   260.71  C  2009.63    263.21   2011.66    265.24   2014.16    265.24  " /><path style="stroke-width: 1.42 ;&st7;   " d=" M  2014.16,   265.24  C  2016.67    265.24   2018.70    263.21   2018.70    260.71  " /><text style="&st18;" transform="matrix(&st16;  2011.9  262.68 )">B</text><text style="&st18;" transform="matrix(&st16;  2006.08  272.88 )">ERS2</text></g><g ewd:lineID="82"><text style="&st18;" transform="matrix(&st16;  2111.83  322.73 )">76</text><text style="&st18;" transform="matrix(&st16;  2122.38  322.73 )">B</text><path style="stroke-width: 1.42 ;&st7;   " d=" M  2129.18,   320.77  C  2129.18    318.26   2127.15    316.23   2124.65    316.23  " /><path style="stroke-width: 1.42 ;&st7;   " d=" M  2124.65,   316.23  C  2122.14    316.23   2120.11    318.26   2120.11    320.77  " /><path style="stroke-width: 1.42 ;&st7;   " d=" M  2120.11,   320.77  C  2120.11    323.27   2122.14    325.30   2124.65    325.30  " /><path style="stroke-width: 1.42 ;&st7;   " d=" M  2124.65,   325.30  C  2127.15    325.30   2129.18    323.27   2129.18    320.77  " /><text style="&st18;" transform="matrix(&st16;  2117.42  312.54 )">THW</text></g><g ewd:lineID="84"><text style="&st18;" transform="matrix(&st16;  2145.82  262.68 )">28</text><text style="&st18;" transform="matrix(&st16;  2156.22  262.68 )">C</text><path style="stroke-width: 1.42 ;&st7;   " d=" M  2163.17,   260.71  C  2163.17    258.21   2161.14    256.18   2158.64    256.18  " /><path style="stroke-width: 1.42 ;&st7;   " d=" M  2158.64,   256.18  C  2156.14    256.18   2154.11    258.21   2154.11    260.71  " /><path style="stroke-width: 1.42 ;&st7;   " d=" M  2154.11,   260.71  C  2154.11    263.21   2156.14    265.24   2158.64    265.24  " /><path style="stroke-width: 1.42 ;&st7;   " d=" M  2158.64,   265.24  C  2161.14    265.24   2163.17    263.21   2163.17    260.71  " /><text style="&st18;" transform="matrix(&st16;  2150.25  272.88 )">IGSW</text></g><g ewd:lineID="87"><text style="&st18;" transform="matrix(&st16;  2171.32  322.73 )">75</text><text style="&st18;" transform="matrix(&st16;  2181.87  322.73 )">B</text><path style="stroke-width: 1.42 ;&st7;   " d=" M  2188.67,   320.77  C  2188.67    318.26   2186.64    316.23   2184.14    316.23  " /><path style="stroke-width: 1.42 ;&st7;   " d=" M  2184.14,   316.23  C  2181.63    316.23   2179.60    318.26   2179.60    320.77  " /><path style="stroke-width: 1.42 ;&st7;   " d=" M  2179.60,   320.77  C  2179.60    323.27   2181.63    325.30   2184.14    325.30  " /><path style="stroke-width: 1.42 ;&st7;   " d=" M  2184.14,   325.30  C  2186.64    325.30   2188.67    323.27   2188.67    320.77  " /><text style="&st18;" transform="matrix(&st16;  2180.24  312.54 )">E2</text></g><g ewd:lineID="89,92"><text style="&st18;" transform="matrix(&st16;  2213.81  262.68 )">35</text><path style="stroke-width: 1.42 ;&st7;   " d=" M  2231.16,   260.71  C  2231.16    258.21   2229.13    256.18   2226.63    256.18  " /><path style="stroke-width: 1.42 ;&st7;   " d=" M  2226.63,   256.18  C  2224.12    256.18   2222.10    258.21   2222.10    260.71  " /><path style="stroke-width: 1.42 ;&st7;   " d=" M  2222.10,   260.71  C  2222.10    263.21   2224.12    265.24   2226.63    265.24  " /><path style="stroke-width: 1.42 ;&st7;   " d=" M  2226.63,   265.24  C  2229.13    265.24   2231.16    263.21   2231.16    260.71  " /><text style="&st18;" transform="matrix(&st16;  2224.21  262.68 )">C</text><text style="&st18;" transform="matrix(&st16;  2219.86  272.88 )">ST1-</text></g><g ewd:lineID="90"><text style="&st18;" transform="matrix(&st16;  2230.81  322.73 )">69</text><text style="&st18;" transform="matrix(&st16;  2241.36  322.73 )">B</text><path style="stroke-width: 1.42 ;&st7;   " d=" M  2248.16,   320.77  C  2248.16    318.26   2246.13    316.23   2243.63    316.23  " /><path style="stroke-width: 1.42 ;&st7;   " d=" M  2243.63,   316.23  C  2241.12    316.23   2239.09    318.26   2239.09    320.77  " /><path style="stroke-width: 1.42 ;&st7;   " d=" M  2239.09,   320.77  C  2239.09    323.27   2241.12    325.30   2243.63    325.30  " /><path style="stroke-width: 1.42 ;&st7;   " d=" M  2243.63,   325.30  C  2246.13    325.30   2248.16    323.27   2248.16    320.77  " /><text style="&st18;" transform="matrix(&st16;  2235.35  312.54 )">PCR1</text></g><g ewd:lineID="94"><text style="&st18;" transform="matrix(&st16;  2256.31  322.73 )">70</text><text style="&st18;" transform="matrix(&st16;  2266.86  322.73 )">B</text><path style="stroke-width: 1.42 ;&st7;   " d=" M  2273.65,   320.77  C  2273.65    318.26   2271.62    316.23   2269.12    316.23  " /><path style="stroke-width: 1.42 ;&st7;   " d=" M  2269.12,   316.23  C  2266.62    316.23   2264.59    318.26   2264.59    320.77  " /><path style="stroke-width: 1.42 ;&st7;   " d=" M  2264.59,   320.77  C  2264.59    323.27   2266.62    325.30   2269.12    325.30  " /><path style="stroke-width: 1.42 ;&st7;   " d=" M  2269.12,   325.30  C  2271.62    325.30   2273.65    323.27   2273.65    320.77  " /><text style="&st18;" transform="matrix(&st16;  2262.2  312.54 )">VCM</text></g><g ewd:lineID="98"><text style="&st18;" transform="matrix(&st16;  2320.96  322.73 )">106</text><path style="stroke-width: 1.42 ;&st7;   " d=" M  2341.64,   320.77  C  2341.64    318.26   2339.61    316.23   2337.11    316.23  " /><path style="stroke-width: 1.42 ;&st7;   " d=" M  2337.11,   316.23  C  2334.61    316.23   2332.58    318.26   2332.58    320.77  " /><path style="stroke-width: 1.42 ;&st7;   " d=" M  2332.58,   320.77  C  2332.58    323.27   2334.61    325.30   2337.11    325.30  " /><path style="stroke-width: 1.42 ;&st7;   " d=" M  2337.11,   325.30  C  2339.61    325.30   2341.64    323.27   2341.64    320.77  " /><text style="&st18;" transform="matrix(&st16;  2334.84  322.73 )">B</text><text style="&st18;" transform="matrix(&st16;  2328.91  312.54 )">PCV+</text></g></g><g ewd:figtype="conn" ewd:figID="72" ewd:code="C66"><g ewd:lineID="50"><text style="&st18;" transform="matrix(&st16;  2007.82  176.57 )">1</text><text style="&st18;" transform="matrix(&st16;  2010.19  187.89 )">+B</text></g><g ewd:lineID="80"><text style="&st18;" transform="matrix(&st16;  2007.82  222.44 )">5</text><text style="&st18;" transform="matrix(&st16;  2005.73  210.55 )">EGR2</text></g><g ewd:figtype="title"><text style="&st18;" transform="matrix(&st17;  2039.05  217.15 )">C66</text><text style="&st18;" transform="matrix(&st17;  2045.88  217.16 )" ewd:textID="52">No. 2 EGR Valve <tspan x="0 " dy="6.0">Assembly (Bank 2)</tspan></text></g></g><g ewd:figtype="w2w" ewd:figID="105" ewd:code="rC1"><path style="stroke-width: 1.42 ;&st7;  " d=" M  2341.36,   353.06  L  2337.11,   357.31  L  2332.86,   353.06  " /><path style="stroke-width: 1.42 ;&st7;  " d=" M  2332.86,   349.66  L  2337.11,   353.91  L  2341.36,   349.66  " /><text style="&st18;" transform="matrix(&st16;  2323.69  364.94 )">2</text></g><g ewd:figtype="w2w" ewd:figID="106" ewd:code="rC1"><path style="stroke-width: 1.42 ;&st7;  " d=" M  2375.35,   353.06  L  2371.10,   357.31  L  2366.85,   353.06  " /><path style="stroke-width: 1.42 ;&st7;  " d=" M  2366.85,   349.66  L  2371.10,   353.91  L  2375.35,   349.66  " /><text style="&st18;" transform="matrix(&st16;  2357.69  364.94 )">1</text></g><g ewd:figtype="w2w" ewd:figID="107" ewd:code="rC1"><text style="&st18;" transform="matrix(&st16;  2425.67  492.42 )">4</text><path style="stroke-width: 1.42 ;&st7;  " d=" M  2443.34,   500.37  L  2439.09,   496.12  L  2434.84,   500.37  " /><path style="stroke-width: 1.42 ;&st7;  " d=" M  2443.34,   503.77  L  2439.09,   499.52  L  2434.84,   503.77  " /></g><g ewd:figtype="w2w" ewd:figID="108" ewd:code="rC1"><path style="stroke-width: 1.42 ;&st7;  " d=" M  2443.34,   353.06  L  2439.09,   357.31  L  2434.84,   353.06  " /><path style="stroke-width: 1.42 ;&st7;  " d=" M  2434.84,   349.66  L  2439.09,   353.91  L  2443.34,   349.66  " /><text style="&st18;" transform="matrix(&st16;  2425.67  364.94 )">3</text></g><g ewd:figtype="w2w" ewd:figID="109" ewd:code="LI1"><path style="stroke-width: 1.42 ;&st7;  " d=" M  2494.33,   349.66  L  2498.58,   353.91  L  2502.83,   349.66  " /><path style="stroke-width: 1.42 ;&st7;  " d=" M  2502.83,   353.06  L  2498.58,   357.31  L  2494.33,   353.06  " /><text style="&st18;" transform="matrix(&st16;  2481.83  364.94 )">10</text></g><g ewd:figtype="gp" ewd:figID="132" ewd:code="LB"><path style="stroke-width: 0.85 ;&st7;  " d=" M  2463.17,   710.00  L  2466.00,   710.00  " /><path style="stroke-width: 0.85 ;&st7;  " d=" M  2461.75,   707.17  L  2467.42,   707.17  " /><path style="stroke-width: 0.85 ;&st7;  " d=" M  2464.59,   697.25  L  2464.59,   701.50  " /><path style="stroke-width: 0.85 ;&st7;  " d=" M  2460.34,   704.33  L  2468.84,   704.33  " /><path style="stroke-width: 0.85 ;&st7;  " d=" M  2456.09,   701.50  L  2473.09,   701.50  " /></g><g ewd:figtype="gp" ewd:figID="133" ewd:code="LA"><path style="stroke-width: 0.85 ;&st7;  " d=" M  2498.58,   697.25  L  2498.58,   701.50  " /><path style="stroke-width: 0.85 ;&st7;  " d=" M  2490.08,   701.50  L  2507.08,   701.50  " /><path style="stroke-width: 0.85 ;&st7;  " d=" M  2494.33,   704.33  L  2502.83,   704.33  " /><path style="stroke-width: 0.85 ;&st7;  " d=" M  2495.75,   707.17  L  2501.41,   707.17  " /><path style="stroke-width: 0.85 ;&st7;  " d=" M  2497.17,   710.00  L  2500.00,   710.00  " /></g></svg>