<?xml version="1.0" encoding="utf-8"?>
<!DOCTYPE svg PUBLIC "-//W3C//DTD SVG 1.0//EN" "http://www.w3.org/TR/2001/REC-SVG-20010904/DTD/svg10.dtd"[
	<!ENTITY ns_flows "http://ns.adobe.com/Flows/1.0/">
	<!ENTITY ns_svg "http://www.w3.org/2000/svg">
	<!ENTITY ns_xlink "http://www.w3.org/1999/xlink">
	<!ENTITY st0 "font-size:7px;font-family:'MS-PGothic';adobe-font-script:japanese;">
	<!ENTITY st1 "font-size:6px;font-family:'ArialMT';">
	<!-- White fill  -->
	<!ENTITY st2 "fill:#FFFFFF;stroke:#000000; stroke-width:1.41;stroke-linecap:round;stroke-linejoin:round;">
	<!-- Yellow fill  -->
	<!ENTITY st3 "fill:#FFFFCC;stroke:#FFFFCC; stroke-width:0.1;stroke-linecap:round;stroke-linejoin:round;">
	<!-- Gray fill  -->
	<!ENTITY st4 "fill:#CCCCCC;stroke:#CCCCCC; stroke-width:0.1;stroke-linecap:round;stroke-linejoin:round;">
	<!-- Light-blue fill -->
	<!ENTITY st5 "fill:#CCECF4;stroke:#000000; stroke-width:1.133;stroke-linecap:round;stroke-linejoin:round;">
	<!ENTITY st6 "fill:none;stroke-linecap:butt; stroke-linejoin:round;">
	<!ENTITY st7 "fill:none;stroke:#000000;stroke-linecap:round;stroke-linejoin:round;">
	<!ENTITY st8 "enable-background:new    ;">
	<!-- Black fill -->
	<!ENTITY st9 "fill:#000000;stroke:#000000; stroke-linecap:round;stroke-linejoin:round;">
	<!-- SRS note   -->
	<!ENTITY st10 "font-size:9px;font-family:'ArialMT';">
	<!ENTITY st11 "font-size:9px;font-family:'Svg Symbol';">
	<!ENTITY st12 "font-size:6px;font-family:'Svg Symbol';">
	<!ENTITY st13 "fill:none;stroke:#ff0000;stroke-linecap:round;stroke-linejoin:round;">
	<!-- Yellow fill  -->
	<!ENTITY st14 "fill:#FFFF00;stroke:#FFFF00; stroke-width:0.1;stroke-linecap:round;stroke-linejoin:round;">
	<!ENTITY st15 "font-size:6px;font-family:'MS-PGothic';adobe-font-script:japanese;">
	<!ENTITY st16 "1.00 0.00 0.00 1.00">
	<!ENTITY st17 "0.00 -1.00 1.00 0.00">
	<!ENTITY st18 "font-size:6px;font-family:'Arial';">
	<!ENTITY st19 "font-size:9px;font-family:'Arial';">
	<!ENTITY st20 "font-size:6px;font-family:'MS-PGothic','MS PGothic';adobe-font-script:japanese;">
	<!ENTITY st21 "font-size:7px;font-family:'MS-PGothic','MS PGothic';adobe-font-script:japanese;">
	<!ATTLIST svg
		xmlns:ewd CDATA #FIXED "http://shcl.co.jp/ewd"
		xmlns:a CDATA #FIXED "http://ns.adobe.com/AdobeSVGViewerExtensions/3.0/"
		ewd:ver CDATA #IMPLIED
	>
	<!ATTLIST a
		ewd:lineID CDATA #IMPLIED
		ewd:groupID CDATA #IMPLIED
		ewd:figtype CDATA #IMPLIED
		ewd:code CDATA #IMPLIED
		ewd:figID CDATA #IMPLIED
		ewd:pinNo CDATA #IMPLIED
		ewd:comment CDATA #IMPLIED >
	<!ATTLIST g
		ewd:lineID CDATA #IMPLIED
		ewd:groupID CDATA #IMPLIED
		ewd:figtype CDATA #IMPLIED
		ewd:code CDATA #IMPLIED
		ewd:figID CDATA #IMPLIED
		ewd:pinNo CDATA #IMPLIED
		ewd:comment CDATA #IMPLIED >
	<!ATTLIST text
		ewd:textID CDATA #IMPLIED >
	<!ATTLIST title
		ewd:textID CDATA #IMPLIED >
]>
<!-- Generator: Shintec Hozumi YS   -->
<svg onload="call_execInitLoadProc_svg('system')" style="overflow:visible;  enable-background:new 0 0 6732.746 710.000" viewBox="0 0 6732.746 710.000" height="710.000" width="6732.746" xml:space="preserve" ewd:ver="2.3.1.16" xmlns="&ns_svg;" xmlns:a="http://ns.adobe.com/AdobeSVGViewerExtensions/3.0/" xmlns:ewd="http://shcl.co.jp/ewd" xmlns:xlink="&ns_xlink;">
<path style="stroke-width: 1.42 ;&st7;  " d=" M  5643.06,   180.26  L  5651.56,   180.26  " /><path style="stroke-width: 1.42 ;&st7;  " d=" M  5643.06,   316.23  L  5651.56,   316.23  " /><path style="stroke-width: 1.42 ;&st7;  " d=" M  5643.06,   384.22  L  5651.56,   384.22  " /><text style="&st18;" transform="matrix(&st17;  5647.86  158.7 )">BR</text><text style="&st18;" transform="matrix(&st17;  5647.86  286.18 )">BR</text><text style="&st18;" transform="matrix(&st17;  5571.37  198.63 )">L</text><text style="&st18;" transform="matrix(&st17;  5647.86  209.69 )">BR</text><text style="&st18;" transform="matrix(&st17;  5647.86  422.15 )">BR</text><text style="&st18;" transform="matrix(&st17;  5647.86  354.16 )">BR</text><text style="&st18;" transform="matrix(&st17;  5647.86  468.9 )">BR</text><text style="&st18;" transform="matrix(&st17;  5503.38  201.19 )">BR</text><path style="stroke-width: 1.42 ;&st7;  " d=" M  5660.05,   440.18  L  5655.08,   435.21  " /><path style="stroke-width: 1.42 ;&st7;  " d=" M  5643.06,   447.24  L  5648.03,   452.21  " /><path style="stroke-width: 1.42 ;&st7;  " d=" M  5655.08,   452.21  L  5660.05,   447.24  " /><path style="stroke-width: 1.42 ;&st7;  " d=" M  5648.03,   435.21  L  5643.06,   440.18  " /><text style="&st18;" transform="matrix(&st16;  5672.61  660.98 )">BR</text><text style="&st18;" transform="matrix(&st16;  5723.61  660.98 )">BR</text><text style="&st18;" transform="matrix(&st16;  5668.31  643.98 )">B(*16)</text><text style="&st18;" transform="matrix(&st16;  5719.3  643.98 )">B(*16)</text><text style="&st18;" transform="matrix(&st16;  5667.38  626.98 )">W(*16)</text><text style="&st18;" transform="matrix(&st16;  5718.37  626.98 )">W(*16)</text><text style="&st18;" transform="matrix(&st16;  5667.38  609.99 )">W(*16)</text><text style="&st18;" transform="matrix(&st16;  5718.37  609.99 )">W(*16)</text><text style="&st18;" transform="matrix(&st16;  5668.66  592.99 )">L(*16)</text><text style="&st18;" transform="matrix(&st16;  5719.65  592.99 )">L(*16)</text><text style="&st18;" transform="matrix(&st16;  5674.48  32.08 )">G</text><text style="&st18;" transform="matrix(&st16;  5725.47  32.08 )">G</text><text style="&st18;" transform="matrix(&st17;  5962.31  394.8 )">G</text><text style="&st18;" transform="matrix(&st17;  5973.64  398.95 )">(*15)</text><text style="&st18;" transform="matrix(&st17;  5928.31  395.42 )">W</text><text style="&st18;" transform="matrix(&st17;  5939.65  398.95 )">(*15)</text><text style="&st18;" transform="matrix(&st17;  5962.31  218.03 )">SB</text><text style="&st18;" transform="matrix(&st17;  5973.64  220.48 )">(*15)</text><text style="&st18;" transform="matrix(&st17;  5928.31  216.95 )">W</text><text style="&st18;" transform="matrix(&st17;  5939.65  220.48 )">(*15)</text><text style="&st18;" transform="matrix(&st17;  5809.33  216.95 )">W</text><text style="&st18;" transform="matrix(&st17;  5820.67  220.48 )">(*15)</text><text style="&st18;" transform="matrix(&st17;  5775.34  215.63 )">L</text><text style="&st18;" transform="matrix(&st17;  5786.67  220.48 )">(*15)</text><text style="&st18;" transform="matrix(&st17;  5897.15  398.95 )">(*15)</text><text style="&st18;" transform="matrix(&st17;  5885.82  394.49 )">B</text><text style="&st18;" transform="matrix(&st17;  5851.83  395.42 )">W</text><text style="&st18;" transform="matrix(&st17;  5863.16  398.95 )">(*15)</text><text style="&st18;" transform="matrix(&st16;  5718.37  567.49 )">W(*15)</text><text style="&st18;" transform="matrix(&st16;  5667.38  567.49 )">W(*15)</text><text style="&st18;" transform="matrix(&st16;  5719.65  533.5 )">L(*15)</text><text style="&st18;" transform="matrix(&st16;  5668.66  533.5 )">L(*15)</text><text style="&st18;" transform="matrix(&st16;  5718.37  677.97 )">W(*15)</text><text style="&st18;" transform="matrix(&st16;  5667.38  677.97 )">W(*15)</text><text style="&st18;" transform="matrix(&st16;  5719.3  694.97 )">B(*15)</text><text style="&st18;" transform="matrix(&st16;  5668.31  694.97 )">B(*15)</text><g ewd:figtype="conn" ewd:figID="88" ewd:code="I66"><path style="stroke-width: 1.42 ;&st7;  " d=" M  5643.05,   231.25  L  5643.05,   248.24  L  5660.05,   248.24  L  5660.05,   231.25  L  5643.05,   231.25  " /><path style="stroke-width: 0.85 ;&st7;  " d=" M  5651.55,   231.25  L  5651.55,   248.24  " /><text style="&st18;" transform="matrix(&st16;  5641.88  256.44 )">10</text><text style="&st18;" transform="matrix(&st16;  5641.88  227.56 )">11</text><g ewd:figtype="title"><text style="&st18;" transform="matrix(&st17;  5674.77  251.15 )" ewd:textID="74">No. 15 Junction <tspan x="0 " dy="6.0">Connector</tspan></text><text style="&st18;" transform="matrix(&st17;  5667.95  251.14 )">I66</text></g></g><g ewd:figtype="conn" ewd:figID="95" ewd:code="I134"><path style="stroke-width: 1.42 ;&st7;  " d=" M  5847.02,   358.73  L  5974.50,   358.73  L  5974.50,   333.23  L  5847.02,   333.23  L  5847.02,   358.73  " /><path style="stroke-width: 0.85 ;&st7;  " d=" M  5932.01,   333.23  L  5932.01,   358.73  " /><path style="stroke-width: 0.85 ;&st7;  " d=" M  5966.00,   333.23  L  5966.00,   358.73  " /><path style="stroke-width: 0.85 ;&st7;  " d=" M  5855.52,   358.73  L  5855.52,   341.73  L  5932.01,   341.73  " /><path style="stroke-width: 0.85 ;&st7;  " d=" M  5889.51,   358.73  L  5889.51,   350.23  L  5966.00,   350.23  " /><path style="stroke-width: 0.85 ;&st7;  " d=" M  5930.81,   340.73  L  5930.54,   341.20  L  5930.45,   341.73  L  5930.54,   342.26  L  5930.81,   342.73  L  5931.23,   343.08  L  5931.74,   343.26  L  5932.28,   343.26  L  5932.79,   343.08  L  5933.20,   342.73  L  5933.47,   342.26  L  5933.56,   341.73  L  5933.47,   341.20  L  5933.20,   340.73  L  5932.79,   340.38  L  5932.28,   340.19  L  5931.74,   340.19  L  5931.23,   340.38  L  5930.81,   340.73  L  5931.21,   341.44  L  5931.21,   342.02  L  5931.58,   342.46  L  5932.15,   342.56  L  5932.66,   342.28  L  5932.86,   341.73  L  5932.66,   341.18  L  5932.15,   340.89  L  5931.58,   340.99  L  5932.01,   341.73  " /><path style="stroke-width: 0.85 ;&st7;  " d=" M  5964.81,   349.22  L  5964.54,   349.69  L  5964.44,   350.23  L  5964.54,   350.76  L  5964.81,   351.23  L  5965.22,   351.58  L  5965.73,   351.76  L  5966.27,   351.76  L  5966.78,   351.58  L  5967.19,   351.23  L  5967.47,   350.76  L  5967.56,   350.23  L  5967.47,   349.69  L  5967.19,   349.22  L  5966.78,   348.88  L  5966.27,   348.69  L  5965.73,   348.69  L  5965.22,   348.88  L  5964.81,   349.22  L  5965.20,   349.94  L  5965.20,   350.52  L  5965.58,   350.96  L  5966.15,   351.06  L  5966.65,   350.77  L  5966.85,   350.23  L  5966.65,   349.68  L  5966.15,   349.39  L  5965.58,   349.49  L  5966.00,   350.23  " /><text style="&st18;" transform="matrix(&st16;  5845.85  366.92 )">12</text><text style="&st18;" transform="matrix(&st16;  5883.18  366.92 )">1</text><text style="&st18;" transform="matrix(&st16;  5922.33  366.92 )">13</text><text style="&st18;" transform="matrix(&st16;  5922.33  329.54 )">15</text><text style="&st18;" transform="matrix(&st16;  5959.66  366.92 )">2</text><text style="&st18;" transform="matrix(&st16;  5959.66  329.54 )">4</text><g ewd:figtype="title"><text style="&st18;" transform="matrix(&st17;  5989.22  361.63 )" ewd:textID="67">No. 7 Global CAN <tspan x="0 " dy="6.0">Junction Connector</tspan></text><text style="&st18;" transform="matrix(&st17;  5982.4  361.62 )">I134</text></g></g><g ewd:figtype="conn" ewd:figID="96" ewd:code="I130"><path style="stroke-width: 1.42 ;&st7;  " d=" M  5762.03,   171.76  L  5983.00,   171.76  L  5983.00,   120.77  L  5762.03,   120.77  L  5762.03,   171.76  " /><g ewd:lineID="280"><text style="&st18;" transform="matrix(&st16;  5769.36  179.95 )">14</text><text style="&st18;" transform="matrix(&st16;  5770.76  168.06 )">CA6H</text></g><g ewd:lineID="281"><text style="&st18;" transform="matrix(&st16;  5806.69  179.95 )">5</text><text style="&st18;" transform="matrix(&st16;  5805.3  168.06 )">CA6L</text></g><g ewd:lineID="285"><text style="&st18;" transform="matrix(&st16;  5922.33  179.95 )">17</text><text style="&st18;" transform="matrix(&st16;  5924.28  168.06 )">CA4L</text></g><g ewd:lineID="287"><text style="&st18;" transform="matrix(&st16;  5956.33  179.95 )">18</text><text style="&st18;" transform="matrix(&st16;  5957.73  168.06 )">CA4H</text></g><g ewd:figtype="title"><text style="&st18;" transform="matrix(&st16;  5767.13  117.07 )" ewd:textID="58">Network Gateway ECU</text><text style="&st18;" transform="matrix(&st16;  5767.12  110.24 )">I130</text></g></g><g ewd:figtype="w2w" ewd:figID="172" ewd:code="CA3"><path style="stroke-width: 1.42 ;&st7;  " d=" M  5647.30,   375.16  L  5651.55,   379.41  L  5655.80,   375.16  " /><path style="stroke-width: 1.42 ;&st7;  " d=" M  5655.80,   378.56  L  5651.55,   382.80  L  5647.30,   378.56  " /><text style="&st18;" transform="matrix(&st16;  5634.8  390.44 )">20</text></g><g ewd:figtype="w2w" ewd:figID="173" ewd:code="AI3"><path style="stroke-width: 1.42 ;&st7;  " d=" M  5647.30,   307.17  L  5651.55,   311.42  L  5655.80,   307.17  " /><path style="stroke-width: 1.42 ;&st7;  " d=" M  5655.80,   310.57  L  5651.55,   314.82  L  5647.30,   310.57  " /><text style="&st18;" transform="matrix(&st16;  5634.8  322.45 )">33</text></g><g ewd:figtype="w2w" ewd:figID="174" ewd:code="IL5"><path style="stroke-width: 1.42 ;&st7;  " d=" M  5647.30,   171.19  L  5651.55,   175.44  L  5655.80,   171.19  " /><path style="stroke-width: 1.42 ;&st7;  " d=" M  5655.80,   174.59  L  5651.55,   178.84  L  5647.30,   174.59  " /><text style="&st18;" transform="matrix(&st16;  5634.8  186.47 )">35</text></g></svg>