<?xml version="1.0" encoding="utf-8"?>
<!DOCTYPE svg PUBLIC "-//W3C//DTD SVG 1.0//EN" "http://www.w3.org/TR/2001/REC-SVG-20010904/DTD/svg10.dtd"[
	<!ENTITY ns_flows "http://ns.adobe.com/Flows/1.0/">
	<!ENTITY ns_svg "http://www.w3.org/2000/svg">
	<!ENTITY ns_xlink "http://www.w3.org/1999/xlink">
	<!ENTITY st0 "font-size:7px;font-family:'MS-PGothic';adobe-font-script:japanese;">
	<!ENTITY st1 "font-size:6px;font-family:'ArialMT';">
	<!-- White fill  -->
	<!ENTITY st2 "fill:#FFFFFF;stroke:#000000; stroke-width:1.41;stroke-linecap:round;stroke-linejoin:round;">
	<!-- Yellow fill  -->
	<!ENTITY st3 "fill:#FFFFCC;stroke:#FFFFCC; stroke-width:0.1;stroke-linecap:round;stroke-linejoin:round;">
	<!-- Gray fill  -->
	<!ENTITY st4 "fill:#CCCCCC;stroke:#CCCCCC; stroke-width:0.1;stroke-linecap:round;stroke-linejoin:round;">
	<!-- Light-blue fill -->
	<!ENTITY st5 "fill:#CCECF4;stroke:#000000; stroke-width:1.133;stroke-linecap:round;stroke-linejoin:round;">
	<!ENTITY st6 "fill:none;stroke-linecap:butt; stroke-linejoin:round;">
	<!ENTITY st7 "fill:none;stroke:#000000;stroke-linecap:round;stroke-linejoin:round;">
	<!ENTITY st8 "enable-background:new    ;">
	<!-- Black fill -->
	<!ENTITY st9 "fill:#000000;stroke:#000000; stroke-linecap:round;stroke-linejoin:round;">
	<!-- SRS note   -->
	<!ENTITY st10 "font-size:9px;font-family:'ArialMT';">
	<!ENTITY st11 "font-size:9px;font-family:'Svg Symbol';">
	<!ENTITY st12 "font-size:6px;font-family:'Svg Symbol';">
	<!ENTITY st13 "fill:none;stroke:#ff0000;stroke-linecap:round;stroke-linejoin:round;">
	<!-- Yellow fill  -->
	<!ENTITY st14 "fill:#FFFF00;stroke:#FFFF00; stroke-width:0.1;stroke-linecap:round;stroke-linejoin:round;">
	<!ENTITY st15 "font-size:6px;font-family:'MS-PGothic';adobe-font-script:japanese;">
	<!ENTITY st16 "1.00 0.00 0.00 1.00">
	<!ENTITY st17 "0.00 -1.00 1.00 0.00">
	<!ENTITY st18 "font-size:6px;font-family:'Arial';">
	<!ENTITY st19 "font-size:9px;font-family:'Arial';">
	<!ENTITY st20 "font-size:6px;font-family:'MS-PGothic','MS PGothic';adobe-font-script:japanese;">
	<!ENTITY st21 "font-size:7px;font-family:'MS-PGothic','MS PGothic';adobe-font-script:japanese;">
	<!ATTLIST svg
		xmlns:ewd CDATA #FIXED "http://shcl.co.jp/ewd"
		xmlns:a CDATA #FIXED "http://ns.adobe.com/AdobeSVGViewerExtensions/3.0/"
		ewd:ver CDATA #IMPLIED
	>
	<!ATTLIST a
		ewd:lineID CDATA #IMPLIED
		ewd:groupID CDATA #IMPLIED
		ewd:figtype CDATA #IMPLIED
		ewd:code CDATA #IMPLIED
		ewd:figID CDATA #IMPLIED
		ewd:pinNo CDATA #IMPLIED
		ewd:comment CDATA #IMPLIED >
	<!ATTLIST g
		ewd:lineID CDATA #IMPLIED
		ewd:groupID CDATA #IMPLIED
		ewd:figtype CDATA #IMPLIED
		ewd:code CDATA #IMPLIED
		ewd:figID CDATA #IMPLIED
		ewd:pinNo CDATA #IMPLIED
		ewd:comment CDATA #IMPLIED >
	<!ATTLIST text
		ewd:textID CDATA #IMPLIED >
	<!ATTLIST title
		ewd:textID CDATA #IMPLIED >
]>
<!-- Generator: Shintec Hozumi YS   -->
<svg onload="call_execInitLoadProc_svg('system')" style="overflow:visible;  enable-background:new 0 0 5678.922 710.000" viewBox="0 0 5678.922 710.000" height="710.000" width="5678.922" xml:space="preserve" ewd:ver="2.3.1.16" xmlns="&ns_svg;" xmlns:a="http://ns.adobe.com/AdobeSVGViewerExtensions/3.0/" xmlns:ewd="http://shcl.co.jp/ewd" xmlns:xlink="&ns_xlink;">
<path style="stroke-width: 1.42 ;&st7;  " d=" M  1997.17,   523.73  L  2002.14,   528.70  " /><path style="stroke-width: 1.42 ;&st7;  " d=" M  2002.14,   511.70  L  1997.17,   516.67  " /><path style="stroke-width: 1.42 ;&st7;  " d=" M  1929.18,   523.73  L  1934.15,   528.70  " /><path style="stroke-width: 1.42 ;&st7;  " d=" M  1934.15,   511.70  L  1929.18,   516.67  " /><path style="stroke-width: 1.42 ;&st7;  " d=" M  1946.17,   516.67  L  1941.20,   511.70  " /><path style="stroke-width: 1.42 ;&st7;  " d=" M  1941.20,   528.70  L  1946.17,   523.73  " /><text style="&st18;" transform="matrix(&st16;  1967.23  516.5 )">BR</text><text style="&st18;" transform="matrix(&st17;  1933.98  490.14 )">BR</text><text style="&st18;" transform="matrix(&st17;  1933.98  363.13 )">P-L</text><text style="&st18;" transform="matrix(&st17;  1781.01  487.58 )">L</text><text style="&st18;" transform="matrix(&st17;  1721.52  241.51 )">B</text><text style="&st18;" transform="matrix(&st17;  1721.52  160.48 )">W-B</text><text style="&st18;" transform="matrix(&st17;  1696.02  156.14 )">L</text><text style="&st18;" transform="matrix(&st17;  1899.99  363.28 )">L-R</text><text style="&st18;" transform="matrix(&st17;  1628.03  241.51 )">B</text><text style="&st18;" transform="matrix(&st17;  1628.03  160.48 )">W-B</text><text style="&st18;" transform="matrix(&st17;  1602.54  160.09 )">L-W</text><text style="&st18;" transform="matrix(&st17;  1832.0  490.14 )">BR</text><text style="&st18;" transform="matrix(&st17;  1832.0  363.4 )">Y-B</text><text style="&st18;" transform="matrix(&st17;  1781.01  364.76 )">G-W</text><text style="&st18;" transform="matrix(&st17;  1806.5  363.05 )">L-Y</text><text style="&st18;" transform="matrix(&st17;  1619.53  360.49 )">P</text><text style="&st18;" transform="matrix(&st16;  1574.52  23.58 )">W-B</text><text style="&st18;" transform="matrix(&st16;  1523.52  23.58 )">W-B</text><text style="&st18;" transform="matrix(&st16;  1578.86  49.08 )">L</text><text style="&st18;" transform="matrix(&st16;  1527.87  49.08 )">L</text><text style="&st18;" transform="matrix(&st16;  1574.52  74.58 )">W-B</text><text style="&st18;" transform="matrix(&st16;  1523.52  74.58 )">W-B</text><text style="&st18;" transform="matrix(&st16;  1577.54  643.98 )">W</text><text style="&st18;" transform="matrix(&st16;  1526.55  643.98 )">W</text><text style="&st18;" transform="matrix(&st16;  1578.86  626.98 )">L</text><text style="&st18;" transform="matrix(&st16;  1527.87  626.98 )">L</text><text style="&st18;" transform="matrix(&st16;  1577.54  660.98 )">W</text><text style="&st18;" transform="matrix(&st16;  1526.55  660.98 )">W</text><text style="&st18;" transform="matrix(&st16;  1523.91  100.07 )">L-W</text><text style="&st18;" transform="matrix(&st16;  1781.3  296.96 )">ECM</text><text style="&st18;" transform="matrix(&st16;  1574.9  100.07 )">L-W</text><text style="&st18;" transform="matrix(&st16;  1781.29  290.13 )">C39(B),I84(C)</text><path style="stroke-width: 1.42 ;&st7;  " d=" M  1602.70,    95.27  L  1597.73,   100.24  " /><path style="stroke-width: 1.42 ;&st7;  " d=" M  1609.76,   112.27  L  1614.73,   107.30  " /><path style="stroke-width: 1.42 ;&st7;  " d=" M  1597.73,   107.30  L  1602.70,   112.27  " /><path style="stroke-width: 1.42 ;&st7;  " d=" M  1614.73,   100.24  L  1609.76,    95.27  " /><path style="stroke-width: 1.42 ;&st7;  " d=" M  1696.19,    44.28  L  1691.22,    49.25  " /><path style="stroke-width: 1.42 ;&st7;  " d=" M  1703.24,    61.28  L  1708.21,    56.31  " /><path style="stroke-width: 1.42 ;&st7;  " d=" M  1691.22,    56.31  L  1696.19,    61.28  " /><path style="stroke-width: 1.42 ;&st7;  " d=" M  1708.21,    49.25  L  1703.24,    44.28  " /><text style="&st18;" transform="matrix(&st16;  1757.33  49.08 )">L</text><text style="&st18;" transform="matrix(&st16;  1754.15  60.41 )">(*3)</text><text style="&st18;" transform="matrix(&st16;  1753.37  100.07 )">L-W</text><text style="&st18;" transform="matrix(&st16;  1754.15  111.4 )">(*3)</text><text style="&st18;" transform="matrix(&st17;  1840.5  241.67 )">R</text><text style="&st18;" transform="matrix(&st17;  1840.5  159.98 )">G-R</text><text style="&st18;" transform="matrix(&st17;  1789.5  156.14 )">L</text><text style="&st18;" transform="matrix(&st17;  1789.51  245.62 )">R-W</text><text style="&st18;" transform="matrix(&st17;  1815.0  159.32 )">L-R</text><text style="&st18;" transform="matrix(&st17;  1891.49  244.96 )">G-R</text><text style="&st18;" transform="matrix(&st17;  1925.48  244.3 )">L-R</text><text style="&st18;" transform="matrix(&st17;  1959.48  159.98 )">G-R</text><text style="&st18;" transform="matrix(&st17;  1959.48  245.62 )">R-W</text><text style="&st18;" transform="matrix(&st17;  1984.97  159.32 )">L-R</text><text style="&st18;" transform="matrix(&st17;  1800.84  244.3 )">(*3)</text><text style="&st18;" transform="matrix(&st17;  1851.83  244.3 )">(*3)</text><text style="&st18;" transform="matrix(&st17;  1902.82  244.3 )">(*3)</text><text style="&st18;" transform="matrix(&st17;  1936.81  244.3 )">(*3)</text><text style="&st18;" transform="matrix(&st17;  1970.81  244.3 )">(*3)</text><path style="stroke-width: 1.42 ;&st7;  " d=" M  1925.65,   112.27  L  1920.68,   117.24  " /><path style="stroke-width: 1.42 ;&st7;  " d=" M  1932.70,   129.26  L  1937.68,   124.29  " /><path style="stroke-width: 1.42 ;&st7;  " d=" M  1920.68,   124.29  L  1925.65,   129.26  " /><path style="stroke-width: 1.42 ;&st7;  " d=" M  1937.68,   117.24  L  1932.70,   112.27  " /><path style="stroke-width: 1.42 ;&st7;  " d=" M  1891.66,   129.26  L  1886.68,   134.24  " /><path style="stroke-width: 1.42 ;&st7;  " d=" M  1898.71,   146.26  L  1903.68,   141.29  " /><path style="stroke-width: 1.42 ;&st7;  " d=" M  1886.68,   141.29  L  1891.65,   146.26  " /><path style="stroke-width: 1.42 ;&st7;  " d=" M  1903.68,   134.24  L  1898.71,   129.26  " /><text style="&st18;" transform="matrix(&st17;  1800.84  159.32 )">(*3)</text><text style="&st18;" transform="matrix(&st17;  1826.33  159.32 )">(*3)</text><text style="&st18;" transform="matrix(&st17;  1851.83  159.32 )">(*3)</text><text style="&st18;" transform="matrix(&st17;  1970.81  159.32 )">(*3)</text><text style="&st18;" transform="matrix(&st17;  1996.3  159.32 )">(*3)</text><text style="&st18;" transform="matrix(&st17;  1630.86  363.28 )">(*4)</text><g ewd:figtype="conn" ewd:figID="21" ewd:code="C41"><path style="stroke-width: 1.42 ;&st7;  " d=" M  1767.70,   435.21  L  1852.69,   435.21  L  1852.69,   401.22  L  1767.70,   401.22  L  1767.70,   435.21  " /><g ewd:lineID="59"><text style="&st18;" transform="matrix(&st16;  1778.36  443.41 )">1</text><text style="&st18;" transform="matrix(&st16;  1780.73  431.52 )">+B</text></g><g ewd:lineID="60"><text style="&st18;" transform="matrix(&st16;  1778.36  397.53 )">2</text><text style="&st18;" transform="matrix(&st16;  1778.44  408.85 )">E2G</text></g><g ewd:lineID="62"><text style="&st18;" transform="matrix(&st16;  1803.86  397.53 )">3</text><text style="&st18;" transform="matrix(&st16;  1805.61  408.85 )">VG</text></g><g ewd:lineID="64"><text style="&st18;" transform="matrix(&st16;  1829.35  443.41 )">5</text><text style="&st18;" transform="matrix(&st16;  1831.8  431.52 )">E2</text></g><g ewd:lineID="65"><text style="&st18;" transform="matrix(&st16;  1829.35  397.53 )">4</text><text style="&st18;" transform="matrix(&st16;  1829.39  408.85 )">THA</text></g><g ewd:figtype="title"><text style="&st18;" transform="matrix(&st17;  1867.41  438.12 )" ewd:textID="48">Intake Mass Air Flow <tspan x="0 " dy="6.0">Meter Sub-Assembly</tspan></text><text style="&st18;" transform="matrix(&st17;  1860.58  438.11 )">C41</text></g></g><g ewd:figtype="conn" ewd:figID="22" ewd:code="C101"><path style="stroke-width: 1.42 ;&st7;  " d=" M  1886.68,   435.21  L  1954.67,   435.21  L  1954.67,   401.22  L  1886.68,   401.22  L  1886.68,   435.21  " /><g ewd:lineID="69"><text style="&st18;" transform="matrix(&st16;  1897.34  397.53 )">3</text><text style="&st18;" transform="matrix(&st16;  1899.24  408.85 )">VC</text></g><g ewd:lineID="72"><text style="&st18;" transform="matrix(&st16;  1931.34  443.41 )">1</text><text style="&st18;" transform="matrix(&st16;  1935.41  431.52 )">E</text></g><g ewd:lineID="73"><text style="&st18;" transform="matrix(&st16;  1931.34  397.53 )">2</text><text style="&st18;" transform="matrix(&st16;  1932.11  408.85 )">PIM</text></g><g ewd:figtype="title"><text style="&st18;" transform="matrix(&st17;  1962.57  438.11 )">C101</text><text style="&st18;" transform="matrix(&st17;  1969.39  438.12 )" ewd:textID="23">Diesel Turbo <tspan x="0 " dy="6.0">Pressure Sensor</tspan></text></g></g><g ewd:figtype="conn" ewd:figID="23" ewd:code="C60"><path style="stroke-width: 0.85 ;&st7;  " d=" M  2014.16,   413.97  L  2014.16,   430.96  " /><path style="stroke-width: 0.85 ;&st7;  " d=" M  1997.17,   413.97  L  1997.17,   430.96  " /><path style="stroke-width: 0.85 ;&st7;  " d=" M  2005.66,   413.97  L  2005.66,   401.22  " /><path style="stroke-width: 0.85 ;&st7;  " d=" M  2002.83,   429.55  L  2005.66,   430.96  " /><path style="stroke-width: 0.85 ;&st7;  " d=" M  2005.66,   413.97  L  2008.50,   415.38  " /><path style="stroke-width: 0.85 ;&st7;  " d=" M  2008.50,   415.38  L  2002.83,   418.22  " /><path style="stroke-width: 0.85 ;&st7;  " d=" M  2002.83,   418.22  L  2008.50,   421.05  " /><path style="stroke-width: 0.85 ;&st7;  " d=" M  2008.50,   421.05  L  2002.83,   423.88  " /><path style="stroke-width: 0.85 ;&st7;  " d=" M  2002.83,   423.88  L  2008.50,   426.71  " /><path style="stroke-width: 0.85 ;&st7;  " d=" M  2008.50,   426.71  L  2002.83,   429.55  " /><path style="stroke-width: 0.85 ;&st7;  " d=" M  2005.66,   443.71  L  2005.66,   430.96  " /><path style="stroke-width: 0.85 ;&st7;   " d=" M  1997.17,   430.96  C  1997.17    435.66   2000.97    439.46   2005.66    439.46  " /><path style="stroke-width: 0.85 ;&st7;   " d=" M  2005.66,   439.46  C  2010.36    439.46   2014.16    435.66   2014.16    430.96  " /><path style="stroke-width: 0.85 ;&st7;   " d=" M  2014.16,   413.97  C  2014.16    409.27   2010.36    405.47   2005.66    405.47  " /><path style="stroke-width: 0.85 ;&st7;   " d=" M  2005.66,   405.47  C  2000.97    405.47   1997.17    409.27   1997.17    413.97  " /><path style="stroke-width: 1.42 ;&st7;  " d=" M  1992.92,   443.71  L  1992.92,   401.22  L  2018.41,   401.22  L  2018.41,   443.71  L  1992.92,   443.71  " /><text style="&st18;" transform="matrix(&st16;  1999.33  451.9 )">1</text><text style="&st18;" transform="matrix(&st16;  1999.33  397.53 )">2</text><g ewd:figtype="title"><text style="&st18;" transform="matrix(&st17;  2033.13  446.62 )" ewd:textID="47">Intake Air <tspan x="0 " dy="6.0">Temperature Sensor</tspan></text><text style="&st18;" transform="matrix(&st17;  2026.31  446.61 )">C60</text></g></g><g ewd:figtype="conn" ewd:figID="41" ewd:code="C28"><path style="stroke-width: 1.42 ;&st7;  " d=" M  1623.23,   445.13  L  1628.89,   422.46  " /><path style="stroke-width: 0.85 ;&st7;  " d=" M  1623.23,   422.46  L  1623.23,   418.22  " /><path style="stroke-width: 0.85 ;&st7;  " d=" M  1623.23,   452.21  L  1623.23,   447.96  " /><path style="stroke-width: 0.85 ;&st7;   " d=" M  1624.65,   423.88  C  1624.65    423.10   1624.01    422.46   1623.23    422.46  " /><path style="stroke-width: 0.85 ;&st7;   " d=" M  1623.23,   422.46  C  1622.45    422.46   1621.81    423.10   1621.81    423.88  " /><path style="stroke-width: 0.85 ;&st7;   " d=" M  1621.81,   423.88  C  1621.81    424.66   1622.45    425.30   1623.23    425.30  " /><path style="stroke-width: 0.85 ;&st7;   " d=" M  1623.23,   425.30  C  1624.01    425.30   1624.65    424.66   1624.65    423.88  " /><path style="stroke-width: 0.85 ;&st7;   " d=" M  1624.65,   446.54  C  1624.65    445.76   1624.01    445.13   1623.23    445.13  " /><path style="stroke-width: 0.85 ;&st7;   " d=" M  1623.23,   445.13  C  1622.45    445.13   1621.81    445.76   1621.81    446.54  " /><path style="stroke-width: 0.85 ;&st7;   " d=" M  1621.81,   446.54  C  1621.81    447.33   1622.45    447.96   1623.23    447.96  " /><path style="stroke-width: 0.85 ;&st7;   " d=" M  1623.23,   447.96  C  1624.01    447.96   1624.65    447.33   1624.65    446.54  " /><path style="stroke-width: 1.42 ;&st7;  " d=" M  1614.73,   418.22  L  1631.73,   418.22  L  1631.73,   452.21  L  1614.73,   452.21  L  1614.73,   418.22  " /><text style="&st18;" transform="matrix(&st16;  1616.89  414.53 )">1</text><g ewd:figtype="title"><text style="&st18;" transform="matrix(&st17;  1646.45  455.12 )" ewd:textID="62">Power Steering <tspan x="0 " dy="6.0">Oil Pressure Switch</tspan></text><text style="&st18;" transform="matrix(&st17;  1639.62  455.11 )">C28</text></g></g><g ewd:figtype="conn" ewd:figID="63" ewd:code="C39,I84"><g ewd:lineID="46"><path style="stroke-width: 1.42 ;&st7;   " d=" M  1500.28,   260.71  C  1500.28    258.21   1498.25    256.18   1495.75    256.18  " /></g><g ewd:lineID="51"><text style="&st18;" transform="matrix(&st16;  1613.75  322.73 )">2</text><text style="&st18;" transform="matrix(&st16;  1620.96  322.73 )">B</text><path style="stroke-width: 1.42 ;&st7;   " d=" M  1627.76,   320.77  C  1627.76    318.26   1625.73    316.23   1623.23    316.23  " /><path style="stroke-width: 1.42 ;&st7;   " d=" M  1623.23,   316.23  C  1620.73    316.23   1618.70    318.26   1618.70    320.77  " /><path style="stroke-width: 1.42 ;&st7;   " d=" M  1618.70,   320.77  C  1618.70    323.27   1620.73    325.30   1623.23    325.30  " /><path style="stroke-width: 1.42 ;&st7;   " d=" M  1623.23,   325.30  C  1625.73    325.30   1627.76    323.27   1627.76    320.77  " /><text style="&st18;" transform="matrix(&st16;  1618.95  312.54 )">PS</text></g><g ewd:lineID="52"><text style="&st18;" transform="matrix(&st16;  1618.91  262.68 )">84</text><text style="&st18;" transform="matrix(&st16;  1629.46  262.68 )">B</text><path style="stroke-width: 1.42 ;&st7;   " d=" M  1636.26,   260.71  C  1636.26    258.21   1634.23    256.18   1631.73    256.18  " /><path style="stroke-width: 1.42 ;&st7;   " d=" M  1631.73,   256.18  C  1629.22    256.18   1627.19    258.21   1627.19    260.71  " /><path style="stroke-width: 1.42 ;&st7;   " d=" M  1627.19,   260.71  C  1627.19    263.21   1629.22    265.24   1631.73    265.24  " /><path style="stroke-width: 1.42 ;&st7;   " d=" M  1631.73,   265.24  C  1634.23    265.24   1636.26    263.21   1636.26    260.71  " /><text style="&st18;" transform="matrix(&st16;  1623.99  272.88 )">LUS2</text></g><g ewd:lineID="57"><text style="&st18;" transform="matrix(&st16;  1712.4  262.68 )">42</text><path style="stroke-width: 1.42 ;&st7;   " d=" M  1729.74,   260.71  C  1729.74    258.21   1727.71    256.18   1725.21    256.18  " /><path style="stroke-width: 1.42 ;&st7;   " d=" M  1725.21,   256.18  C  1722.71    256.18   1720.68    258.21   1720.68    260.71  " /><path style="stroke-width: 1.42 ;&st7;   " d=" M  1720.68,   260.71  C  1720.68    263.21   1722.71    265.24   1725.21    265.24  " /><path style="stroke-width: 1.42 ;&st7;   " d=" M  1725.21,   265.24  C  1727.71    265.24   1729.74    263.21   1729.74    260.71  " /><text style="&st18;" transform="matrix(&st16;  1722.95  262.68 )">B</text><text style="&st18;" transform="matrix(&st16;  1717.48  272.88 )">LUSL</text></g><g ewd:lineID="60"><text style="&st18;" transform="matrix(&st16;  1768.55  322.73 )">118</text><path style="stroke-width: 1.42 ;&st7;   " d=" M  1789.23,   320.77  C  1789.23    318.26   1787.21    316.23   1784.70    316.23  " /><path style="stroke-width: 1.42 ;&st7;   " d=" M  1784.70,   316.23  C  1782.20    316.23   1780.17    318.26   1780.17    320.77  " /><path style="stroke-width: 1.42 ;&st7;   " d=" M  1780.17,   320.77  C  1780.17    323.27   1782.20    325.30   1784.70    325.30  " /><path style="stroke-width: 1.42 ;&st7;   " d=" M  1784.70,   325.30  C  1787.21    325.30   1789.23    323.27   1789.23    320.77  " /><text style="&st18;" transform="matrix(&st16;  1782.44  322.73 )">B</text><text style="&st18;" transform="matrix(&st16;  1778.09  312.54 )">EVG</text></g><g ewd:lineID="61"><text style="&st18;" transform="matrix(&st16;  1780.39  262.68 )">89</text><text style="&st18;" transform="matrix(&st16;  1790.93  262.68 )">B</text><path style="stroke-width: 1.42 ;&st7;   " d=" M  1797.73,   260.71  C  1797.73    258.21   1795.70    256.18   1793.20    256.18  " /><path style="stroke-width: 1.42 ;&st7;   " d=" M  1793.20,   256.18  C  1790.70    256.18   1788.67    258.21   1788.67    260.71  " /><path style="stroke-width: 1.42 ;&st7;   " d=" M  1788.67,   260.71  C  1788.67    263.21   1790.70    265.24   1793.20    265.24  " /><path style="stroke-width: 1.42 ;&st7;   " d=" M  1793.20,   265.24  C  1795.70    265.24   1797.73    263.21   1797.73    260.71  " /><text style="&st18;" transform="matrix(&st16;  1784.92  272.88 )">EGLS</text></g><g ewd:lineID="62"><text style="&st18;" transform="matrix(&st16;  1797.38  322.73 )">72</text><text style="&st18;" transform="matrix(&st16;  1807.93  322.73 )">B</text><path style="stroke-width: 1.42 ;&st7;   " d=" M  1814.73,   320.77  C  1814.73    318.26   1812.70    316.23   1810.20    316.23  " /><path style="stroke-width: 1.42 ;&st7;   " d=" M  1810.20,   316.23  C  1807.69    316.23   1805.66    318.26   1805.66    320.77  " /><path style="stroke-width: 1.42 ;&st7;   " d=" M  1805.66,   320.77  C  1805.66    323.27   1807.69    325.30   1810.20    325.30  " /><path style="stroke-width: 1.42 ;&st7;   " d=" M  1810.20,   325.30  C  1812.70    325.30   1814.73    323.27   1814.73    320.77  " /><text style="&st18;" transform="matrix(&st16;  1805.61  312.54 )">VG</text></g><g ewd:lineID="65"><text style="&st18;" transform="matrix(&st16;  1822.88  322.73 )">71</text><path style="stroke-width: 1.42 ;&st7;   " d=" M  1840.23,   320.77  C  1840.23    318.26   1838.20    316.23   1835.69    316.23  " /><path style="stroke-width: 1.42 ;&st7;   " d=" M  1835.69,   316.23  C  1833.19    316.23   1831.16    318.26   1831.16    320.77  " /><path style="stroke-width: 1.42 ;&st7;   " d=" M  1831.16,   320.77  C  1831.16    323.27   1833.19    325.30   1835.69    325.30  " /><path style="stroke-width: 1.42 ;&st7;   " d=" M  1835.69,   325.30  C  1838.20    325.30   1840.23    323.27   1840.23    320.77  " /><text style="&st18;" transform="matrix(&st16;  1833.43  322.73 )">B</text><text style="&st18;" transform="matrix(&st16;  1829.39  312.54 )">THA</text></g><g ewd:lineID="66"><text style="&st18;" transform="matrix(&st16;  1828.04  262.68 )">107</text><path style="stroke-width: 1.42 ;&st7;   " d=" M  1848.72,   260.71  C  1848.72    258.21   1846.70    256.18   1844.19    256.18  " /><path style="stroke-width: 1.42 ;&st7;   " d=" M  1844.19,   256.18  C  1841.69    256.18   1839.66    258.21   1839.66    260.71  " /><path style="stroke-width: 1.42 ;&st7;   " d=" M  1839.66,   260.71  C  1839.66    263.21   1841.69    265.24   1844.19    265.24  " /><path style="stroke-width: 1.42 ;&st7;   " d=" M  1844.19,   265.24  C  1846.70    265.24   1848.72    263.21   1848.72    260.71  " /><text style="&st18;" transform="matrix(&st16;  1841.93  262.68 )">B</text><text style="&st18;" transform="matrix(&st16;  1835.41  272.88 )">EGRS</text></g><g ewd:lineID="68"><text style="&st18;" transform="matrix(&st16;  1882.37  262.68 )">87</text><text style="&st18;" transform="matrix(&st16;  1892.92  262.68 )">B</text><path style="stroke-width: 1.42 ;&st7;   " d=" M  1899.72,   260.71  C  1899.72    258.21   1897.69    256.18   1895.18    256.18  " /><path style="stroke-width: 1.42 ;&st7;   " d=" M  1895.18,   256.18  C  1892.68    256.18   1890.65    258.21   1890.65    260.71  " /><path style="stroke-width: 1.42 ;&st7;   " d=" M  1890.65,   260.71  C  1890.65    263.21   1892.68    265.24   1895.18    265.24  " /><path style="stroke-width: 1.42 ;&st7;   " d=" M  1895.18,   265.24  C  1897.69    265.24   1899.72    263.21   1899.72    260.71  " /><text style="&st18;" transform="matrix(&st16;  1886.91  272.88 )">EEGL</text></g><g ewd:lineID="69"><text style="&st18;" transform="matrix(&st16;  1890.87  322.73 )">66</text><path style="stroke-width: 1.42 ;&st7;   " d=" M  1908.21,   320.77  C  1908.21    318.26   1906.19    316.23   1903.68    316.23  " /><path style="stroke-width: 1.42 ;&st7;   " d=" M  1903.68,   316.23  C  1901.18    316.23   1899.15    318.26   1899.15    320.77  " /><path style="stroke-width: 1.42 ;&st7;   " d=" M  1899.15,   320.77  C  1899.15    323.27   1901.18    325.30   1903.68    325.30  " /><path style="stroke-width: 1.42 ;&st7;   " d=" M  1903.68,   325.30  C  1906.19    325.30   1908.21    323.27   1908.21    320.77  " /><text style="&st18;" transform="matrix(&st16;  1901.42  322.73 )">B</text><text style="&st18;" transform="matrix(&st16;  1894.75  312.54 )">VCPM</text></g><g ewd:lineID="71"><text style="&st18;" transform="matrix(&st16;  1916.36  262.68 )">90</text><path style="stroke-width: 1.42 ;&st7;   " d=" M  1933.71,   260.71  C  1933.71    258.21   1931.68    256.18   1929.18    256.18  " /><path style="stroke-width: 1.42 ;&st7;   " d=" M  1929.18,   256.18  C  1926.67    256.18   1924.65    258.21   1924.65    260.71  " /><path style="stroke-width: 1.42 ;&st7;   " d=" M  1924.65,   260.71  C  1924.65    263.21   1926.67    265.24   1929.18    265.24  " /><path style="stroke-width: 1.42 ;&st7;   " d=" M  1929.18,   265.24  C  1931.68    265.24   1933.71    263.21   1933.71    260.71  " /><text style="&st18;" transform="matrix(&st16;  1926.91  262.68 )">B</text><text style="&st18;" transform="matrix(&st16;  1920.4  272.88 )">VCEG</text></g><g ewd:lineID="73"><text style="&st18;" transform="matrix(&st16;  1921.53  322.73 )">114</text><text style="&st18;" transform="matrix(&st16;  1935.41  322.73 )">B</text><path style="stroke-width: 1.42 ;&st7;   " d=" M  1942.21,   320.77  C  1942.21    318.26   1940.18    316.23   1937.68    316.23  " /><path style="stroke-width: 1.42 ;&st7;   " d=" M  1937.68,   316.23  C  1935.17    316.23   1933.14    318.26   1933.14    320.77  " /><path style="stroke-width: 1.42 ;&st7;   " d=" M  1933.14,   320.77  C  1933.14    323.27   1935.17    325.30   1937.68    325.30  " /><path style="stroke-width: 1.42 ;&st7;   " d=" M  1937.68,   325.30  C  1940.18    325.30   1942.21    323.27   1942.21    320.77  " /><text style="&st18;" transform="matrix(&st16;  1932.11  312.54 )">PIM</text></g><g ewd:lineID="76"><text style="&st18;" transform="matrix(&st16;  1950.36  262.68 )">88</text><text style="&st18;" transform="matrix(&st16;  1960.91  262.68 )">B</text><path style="stroke-width: 1.42 ;&st7;   " d=" M  1967.70,   260.71  C  1967.70    258.21   1965.68    256.18   1963.17    256.18  " /><path style="stroke-width: 1.42 ;&st7;   " d=" M  1963.17,   256.18  C  1960.67    256.18   1958.64    258.21   1958.64    260.71  " /><path style="stroke-width: 1.42 ;&st7;   " d=" M  1958.64,   260.71  C  1958.64    263.21   1960.67    265.24   1963.17    265.24  " /><path style="stroke-width: 1.42 ;&st7;   " d=" M  1963.17,   265.24  C  1965.68    265.24   1967.70    263.21   1967.70    260.71  " /><text style="&st18;" transform="matrix(&st16;  1954.9  272.88 )">EGS2</text></g><g ewd:lineID="78"><text style="&st18;" transform="matrix(&st16;  1992.85  322.73 )">74</text><text style="&st18;" transform="matrix(&st16;  1998.55  312.54 )">THIA</text></g><g ewd:lineID="80"><text style="&st18;" transform="matrix(&st16;  1998.01  262.68 )">108</text></g></g><g ewd:figtype="conn" ewd:figID="69" ewd:code="C61"><path style="stroke-width: 1.42 ;&st7;  " d=" M  1589.23,   214.25  L  1648.72,   214.25  L  1648.72,   180.26  L  1589.23,   180.26  L  1589.23,   214.25  " /><g ewd:lineID="49"><text style="&st18;" transform="matrix(&st16;  1599.89  176.57 )">2</text><text style="&st18;" transform="matrix(&st16;  1599.62  187.89 )">VCR</text></g><g ewd:lineID="52"><text style="&st18;" transform="matrix(&st16;  1625.39  222.44 )">1</text><text style="&st18;" transform="matrix(&st16;  1623.41  210.55 )">VTAR</text></g><g ewd:lineID="53"><text style="&st18;" transform="matrix(&st16;  1625.39  176.57 )">3</text><text style="&st18;" transform="matrix(&st16;  1627.83  187.89 )">E2</text></g><g ewd:figtype="title"><text style="&st18;" transform="matrix(&st17;  1663.44  217.16 )" ewd:textID="22">Diesel Throttle Body <tspan x="0 " dy="6.0">Assembly (Bank 2)</tspan></text><text style="&st18;" transform="matrix(&st17;  1656.62  217.15 )">C61</text></g></g><g ewd:figtype="conn" ewd:figID="70" ewd:code="C58"><path style="stroke-width: 1.42 ;&st7;  " d=" M  1682.72,   214.25  L  1742.21,   214.25  L  1742.21,   180.26  L  1682.72,   180.26  L  1682.72,   214.25  " /><g ewd:lineID="55"><text style="&st18;" transform="matrix(&st16;  1693.38  176.57 )">2</text><text style="&st18;" transform="matrix(&st16;  1693.11  187.89 )">VCR</text></g><g ewd:lineID="57"><text style="&st18;" transform="matrix(&st16;  1718.87  222.44 )">1</text><text style="&st18;" transform="matrix(&st16;  1716.9  210.55 )">VTAR</text></g><g ewd:lineID="58"><text style="&st18;" transform="matrix(&st16;  1718.87  176.57 )">3</text><text style="&st18;" transform="matrix(&st16;  1719.15  187.89 )">E2R</text></g><g ewd:figtype="title"><text style="&st18;" transform="matrix(&st17;  1750.1  217.15 )">C58</text><text style="&st18;" transform="matrix(&st17;  1756.93  217.16 )" ewd:textID="21">Diesel Throttle Body <tspan x="0 " dy="6.0">Assembly (Bank 1)</tspan></text></g></g><g ewd:figtype="conn" ewd:figID="71" ewd:code="C47"><path style="stroke-width: 1.42 ;&st7;  " d=" M  1776.20,   214.25  L  1861.19,   214.25  L  1861.19,   180.26  L  1776.20,   180.26  L  1776.20,   214.25  " /><g ewd:lineID="56"><text style="&st18;" transform="matrix(&st16;  1786.86  176.57 )">1</text><text style="&st18;" transform="matrix(&st16;  1789.23  187.89 )">+B</text></g><g ewd:lineID="61"><text style="&st18;" transform="matrix(&st16;  1786.86  222.44 )">4</text><text style="&st18;" transform="matrix(&st16;  1784.92  210.55 )">EGLS</text></g><g ewd:lineID="63"><text style="&st18;" transform="matrix(&st16;  1812.36  176.57 )">3</text><text style="&st18;" transform="matrix(&st16;  1814.26  187.89 )">VC</text></g><g ewd:lineID="66"><text style="&st18;" transform="matrix(&st16;  1837.85  222.44 )">5</text><text style="&st18;" transform="matrix(&st16;  1837.43  210.55 )">EGR</text></g><g ewd:lineID="67"><text style="&st18;" transform="matrix(&st16;  1837.85  176.57 )">2</text><text style="&st18;" transform="matrix(&st16;  1840.3  187.89 )">E2</text></g><g ewd:figtype="title"><text style="&st18;" transform="matrix(&st17;  1869.08  217.15 )">C47</text><text style="&st18;" transform="matrix(&st17;  1875.91  217.16 )" ewd:textID="26">EGR Valve <tspan x="0 " dy="6.0">Assembly (Bank 1)</tspan></text></g></g><g ewd:figtype="conn" ewd:figID="72" ewd:code="C66"><path style="stroke-width: 1.42 ;&st7;  " d=" M  1946.17,   214.25  L  2031.16,   214.25  L  2031.16,   180.26  L  1946.17,   180.26  L  1946.17,   214.25  " /><g ewd:lineID="70"><text style="&st18;" transform="matrix(&st16;  1956.83  176.57 )">2</text><text style="&st18;" transform="matrix(&st16;  1959.28  187.89 )">E2</text></g><g ewd:lineID="74"><text style="&st18;" transform="matrix(&st16;  1982.33  176.57 )">3</text><text style="&st18;" transform="matrix(&st16;  1984.23  187.89 )">VC</text></g><g ewd:lineID="76"><text style="&st18;" transform="matrix(&st16;  1956.83  222.44 )">4</text><text style="&st18;" transform="matrix(&st16;  1954.9  210.55 )">EGLS</text></g></g><g ewd:figtype="annex" ewd:figID="213" ewd:code=" "><path style="stroke-width: 0.85 ;&st7;  " d=" M  1620.40,   466.37  L  1626.06,   466.37  " /><path style="stroke-width: 0.85 ;&st7;  " d=" M  1621.81,   469.21  L  1624.64,   469.21  " /><path style="stroke-width: 0.85 ;&st7;  " d=" M  1623.23,   452.21  L  1623.23,   460.71  " /><path style="stroke-width: 0.85 ;&st7;  " d=" M  1614.73,   460.71  L  1631.73,   460.71  " /><path style="stroke-width: 0.85 ;&st7;  " d=" M  1618.98,   463.54  L  1627.48,   463.54  " /></g><g ewd:code="3" ewd:figID="230" ewd:comment="" ewd:figtype="comment"><text style="&st18;" transform="matrix(&st16;  1874.78  37.75 )" ewd:textID="3">* 3 :w/ EGR</text></g><g ewd:code="8" ewd:figID="237" ewd:comment="" ewd:figtype="comment"><text style="&st18;" transform="matrix(&st16;  1874.78  63.24 )" ewd:textID="8">* 8 :From Sep. 2022 Production</text></g><g ewd:code="4" ewd:figID="231" ewd:comment="" ewd:figtype="comment"><text style="&st18;" transform="matrix(&st16;  1874.78  46.25 )" ewd:textID="4">* 4 :Before Sep. 2019 Production</text></g><g ewd:code="7" ewd:figID="236" ewd:comment="" ewd:figtype="comment"><text style="&st18;" transform="matrix(&st16;  1874.78  54.75 )" ewd:textID="7">* 7 :Before Sep. 2022 Production</text></g></svg>