<?xml version="1.0" encoding="utf-8"?>
<!DOCTYPE svg PUBLIC "-//W3C//DTD SVG 1.0//EN" "http://www.w3.org/TR/2001/REC-SVG-20010904/DTD/svg10.dtd"[
	<!ENTITY ns_flows "http://ns.adobe.com/Flows/1.0/">
	<!ENTITY ns_svg "http://www.w3.org/2000/svg">
	<!ENTITY ns_xlink "http://www.w3.org/1999/xlink">
	<!ENTITY st0 "font-size:7px;font-family:'MS-PGothic';adobe-font-script:japanese;">
	<!ENTITY st1 "font-size:6px;font-family:'ArialMT';">
	<!-- White fill  -->
	<!ENTITY st2 "fill:#FFFFFF;stroke:#000000; stroke-width:1.41;stroke-linecap:round;stroke-linejoin:round;">
	<!-- Yellow fill  -->
	<!ENTITY st3 "fill:#FFFFCC;stroke:#FFFFCC; stroke-width:0.1;stroke-linecap:round;stroke-linejoin:round;">
	<!-- Gray fill  -->
	<!ENTITY st4 "fill:#CCCCCC;stroke:#CCCCCC; stroke-width:0.1;stroke-linecap:round;stroke-linejoin:round;">
	<!-- Light-blue fill -->
	<!ENTITY st5 "fill:#CCECF4;stroke:#000000; stroke-width:1.133;stroke-linecap:round;stroke-linejoin:round;">
	<!ENTITY st6 "fill:none;stroke-linecap:butt; stroke-linejoin:round;">
	<!ENTITY st7 "fill:none;stroke:#000000;stroke-linecap:round;stroke-linejoin:round;">
	<!ENTITY st8 "enable-background:new    ;">
	<!-- Black fill -->
	<!ENTITY st9 "fill:#000000;stroke:#000000; stroke-linecap:round;stroke-linejoin:round;">
	<!-- SRS note   -->
	<!ENTITY st10 "font-size:9px;font-family:'ArialMT';">
	<!ENTITY st11 "font-size:9px;font-family:'Svg Symbol';">
	<!ENTITY st12 "font-size:6px;font-family:'Svg Symbol';">
	<!ENTITY st13 "fill:none;stroke:#ff0000;stroke-linecap:round;stroke-linejoin:round;">
	<!-- Yellow fill  -->
	<!ENTITY st14 "fill:#FFFF00;stroke:#FFFF00; stroke-width:0.1;stroke-linecap:round;stroke-linejoin:round;">
	<!ENTITY st15 "font-size:6px;font-family:'MS-PGothic';adobe-font-script:japanese;">
	<!ENTITY st16 "1.00 0.00 0.00 1.00">
	<!ENTITY st17 "0.00 -1.00 1.00 0.00">
	<!ENTITY st18 "font-size:6px;font-family:'Arial';">
	<!ENTITY st19 "font-size:9px;font-family:'Arial';">
	<!ENTITY st20 "font-size:6px;font-family:'MS-PGothic','MS PGothic';adobe-font-script:japanese;">
	<!ENTITY st21 "font-size:7px;font-family:'MS-PGothic','MS PGothic';adobe-font-script:japanese;">
	<!ATTLIST svg
		xmlns:ewd CDATA #FIXED "http://shcl.co.jp/ewd"
		xmlns:a CDATA #FIXED "http://ns.adobe.com/AdobeSVGViewerExtensions/3.0/"
		ewd:ver CDATA #IMPLIED
	>
	<!ATTLIST a
		ewd:lineID CDATA #IMPLIED
		ewd:groupID CDATA #IMPLIED
		ewd:figtype CDATA #IMPLIED
		ewd:code CDATA #IMPLIED
		ewd:figID CDATA #IMPLIED
		ewd:pinNo CDATA #IMPLIED
		ewd:comment CDATA #IMPLIED >
	<!ATTLIST g
		ewd:lineID CDATA #IMPLIED
		ewd:groupID CDATA #IMPLIED
		ewd:figtype CDATA #IMPLIED
		ewd:code CDATA #IMPLIED
		ewd:figID CDATA #IMPLIED
		ewd:pinNo CDATA #IMPLIED
		ewd:comment CDATA #IMPLIED >
	<!ATTLIST text
		ewd:textID CDATA #IMPLIED >
	<!ATTLIST title
		ewd:textID CDATA #IMPLIED >
]>
<!-- Generator: Shintec Hozumi YS   -->
<svg onload="call_execInitLoadProc_svg('system')" style="overflow:visible;  enable-background:new 0 0 6214.333 710.000" viewBox="0 0 6214.333 710.000" height="710.000" width="6214.333" xml:space="preserve" ewd:ver="2.3.1.16" xmlns="&ns_svg;" xmlns:a="http://ns.adobe.com/AdobeSVGViewerExtensions/3.0/" xmlns:ewd="http://shcl.co.jp/ewd" xmlns:xlink="&ns_xlink;">
<text style="&st18;" transform="matrix(&st17;  1330.58  284.94 )">W</text><text style="&st18;" transform="matrix(&st17;  1254.09  284.94 )">W</text><text style="&st18;" transform="matrix(&st17;  1330.58  352.92 )">W</text><text style="&st18;" transform="matrix(&st16;  1009.07  575.99 )">B</text><text style="&st18;" transform="matrix(&st16;  1060.06  575.99 )">B</text><text style="&st18;" transform="matrix(&st17;  1254.09  352.92 )">W</text><text style="&st18;" transform="matrix(&st17;  1203.1  355.95 )">W-B</text><text style="&st18;" transform="matrix(&st17;  1203.1  483.43 )">W-B</text><text style="&st18;" transform="matrix(&st16;  1009.45  525.0 )">L</text><text style="&st18;" transform="matrix(&st16;  1060.44  525.0 )">L</text><text style="&st18;" transform="matrix(&st16;  1008.91  542.0 )">R</text><text style="&st18;" transform="matrix(&st16;  1059.9  542.0 )">R</text><text style="&st18;" transform="matrix(&st16;  1060.44  83.07 )">L</text><text style="&st18;" transform="matrix(&st16;  1060.44  151.06 )">L</text><text style="&st18;" transform="matrix(&st16;  1056.49  134.07 )">L-W</text><text style="&st18;" transform="matrix(&st16;  1056.92  100.07 )">R-B</text><text style="&st18;" transform="matrix(&st16;  1055.79  117.07 )">W-G</text><text style="&st18;" transform="matrix(&st17;  1373.07  355.56 )">L-W</text><text style="&st18;" transform="matrix(&st16;  1009.45  83.07 )">L</text><text style="&st18;" transform="matrix(&st16;  1009.45  151.06 )">L</text><text style="&st18;" transform="matrix(&st16;  1005.5  134.07 )">L-W</text><path style="stroke-width: 1.42 ;&st7;  " d=" M  1436.26,   375.72  L  1444.76,   375.72  " /><text style="&st18;" transform="matrix(&st17;  1296.59  351.61 )">L</text><text style="&st18;" transform="matrix(&st17;  1441.06  219.16 )">R-B</text><text style="&st18;" transform="matrix(&st17;  1407.07  216.33 )">G</text><text style="&st18;" transform="matrix(&st17;  1279.59  496.47 )">P</text><text style="&st18;" transform="matrix(&st17;  1254.09  497.4 )">W</text><text style="&st18;" transform="matrix(&st17;  1330.58  497.4 )">W</text><text style="&st18;" transform="matrix(&st17;  1441.06  335.0 )">P</text><text style="&st18;" transform="matrix(&st17;  1407.07  335.15 )">R</text><text style="&st18;" transform="matrix(&st17;  1475.06  334.61 )">L</text><text style="&st18;" transform="matrix(&st17;  1313.58  286.8 )">(*1)</text><text style="&st18;" transform="matrix(&st16;  1005.92  100.07 )">R-B</text><text style="&st18;" transform="matrix(&st16;  1004.8  117.07 )">W-G</text><text style="&st18;" transform="matrix(&st17;  1313.58  354.79 )">(*1)</text><text style="&st18;" transform="matrix(&st17;  1237.1  354.79 )">(*1)</text><text style="&st18;" transform="matrix(&st17;  1237.1  286.8 )">(*1)</text><path style="stroke-width: 1.42 ;&st7;  " d=" M  1470.25,   375.72  L  1478.75,   375.72  " /><path style="stroke-width: 1.42 ;&st7;   " d=" M  1351.27,   299.24  C  1349.06    297.41   1345.93    297.47   1343.79    299.38  " /><path style="stroke-width: 1.42 ;&st7;   " d=" M  1351.27,   265.24  C  1349.06    263.42   1345.93    263.48   1343.79    265.38  " /><path style="stroke-width: 1.42 ;&st7;   " d=" M  1274.79,   299.24  C  1272.58    297.41   1269.44    297.47   1267.30    299.38  " /><path style="stroke-width: 1.42 ;&st7;   " d=" M  1274.79,   265.24  C  1272.58    263.42   1269.44    263.48   1267.30    265.38  " /><path style="stroke-width: 1.42 ;&st7;   " d=" M  1351.27,   367.22  C  1349.06    365.40   1345.93    365.46   1343.79    367.37  " /><path style="stroke-width: 1.42 ;&st7;   " d=" M  1351.27,   333.23  C  1349.06    331.41   1345.93    331.47   1343.79    333.37  " /><path style="stroke-width: 1.42 ;&st7;   " d=" M  1274.79,   367.22  C  1272.58    365.40   1269.44    365.46   1267.30    367.37  " /><path style="stroke-width: 1.42 ;&st7;   " d=" M  1274.79,   333.23  C  1272.58    331.41   1269.44    331.47   1267.30    333.37  " /><path style="stroke-width: 1.42 ;&st7;  " d=" M  1402.27,   375.72  L  1410.76,   375.72  " /><path style="stroke-width: 1.42 ;&st7;  " d=" M  1118.28,   146.26  L  1113.31,   151.23  " /><path style="stroke-width: 1.42 ;&st7;  " d=" M  1125.34,   163.26  L  1130.31,   158.29  " /><path style="stroke-width: 1.42 ;&st7;  " d=" M  1113.31,   158.29  L  1118.28,   163.26  " /><path style="stroke-width: 1.42 ;&st7;  " d=" M  1130.31,   151.23  L  1125.34,   146.26  " /><path style="stroke-width: 1.42 ;&st7;  " d=" M  1203.27,   401.22  L  1198.30,   406.19  " /><path style="stroke-width: 1.42 ;&st7;  " d=" M  1210.33,   418.22  L  1215.30,   413.25  " /><path style="stroke-width: 1.42 ;&st7;  " d=" M  1198.30,   413.25  L  1203.27,   418.22  " /><path style="stroke-width: 1.42 ;&st7;  " d=" M  1215.30,   406.19  L  1210.33,   401.22  " /><path style="stroke-width: 1.42 ;&st7;  " d=" M  1325.78,   316.23  L  1334.28,   316.23  " /><path style="stroke-width: 1.42 ;&st7;  " d=" M  1249.29,   316.23  L  1257.79,   316.23  " /><path style="stroke-width: 1.42 ;&st7;  " d=" M  1453.26,   163.26  L  1444.76,   163.26  " /><path style="stroke-width: 1.42 ;&st7;  " d=" M  1419.26,   163.26  L  1410.76,   163.26  " /><text style="&st18;" transform="matrix(&st17;  1407.07  420.14 )">R</text><text style="&st18;" transform="matrix(&st17;  1441.06  419.98 )">P</text><text style="&st18;" transform="matrix(&st17;  1475.06  419.59 )">L</text><path style="stroke-width: 1.42 ;&st7;  " d=" M  1130.31,   231.25  L  1121.81,   231.25  " /><path style="stroke-width: 1.42 ;&st7;  " d=" M  1181.30,   406.19  L  1176.33,   401.22  " /><path style="stroke-width: 1.42 ;&st7;  " d=" M  1164.31,   413.25  L  1169.27,   418.22  " /><path style="stroke-width: 1.42 ;&st7;  " d=" M  1176.33,   418.22  L  1181.30,   413.25  " /><path style="stroke-width: 1.42 ;&st7;  " d=" M  1169.27,   401.22  L  1164.31,   406.19  " /><text style="&st18;" transform="matrix(&st17;  1169.11  483.43 )">W-B</text><text style="&st18;" transform="matrix(&st17;  1169.11  355.95 )">W-B</text><text style="&st18;" transform="matrix(&st17;  1118.12  207.13 )">L</text><text style="&st18;" transform="matrix(&st17;  1118.12  266.62 )">L</text><text style="&st18;" transform="matrix(&st17;  1084.12  351.61 )">L</text><text style="&st18;" transform="matrix(&st17;  1118.12  351.61 )">L</text><g ewd:figtype="rb" ewd:figID="12" ewd:code="FUSE7"><path style="stroke-width: 1.42 ;&st7;  " d=" M  1259.91,   256.74  L  1255.67,   256.74  " /><text style="&st18;" transform="matrix(&st16;  1249.71  185.06 )">(BAT)</text><text style="&st18;" transform="matrix(&st16;  1251.45  239.44 )">2</text><text style="&st18;" transform="matrix(&st16;  1255.91  254.46 )">2</text><text style="&st18;" transform="matrix(&st16;  1274.21  209.14 )">10A <tspan x="0 " dy="6.0">EDU1</tspan></text><path style="stroke-width: 0.28 ;&st9;  " d=" M  1257.79,   243.35  L  1254.96,   240.52  L  1254.96,   244.77  L  1257.79,   247.60  L  1260.62,   244.77  L  1260.62,   240.52  L  1257.79,   243.35  " /><path style="stroke-width: 1.42 ;&st7;   " d=" M  1264.16,   252.49  C  1264.16    250.15   1262.26    248.24   1259.91    248.24  " /><path style="stroke-width: 1.42 ;&st7;   " d=" M  1259.91,   256.74  C  1262.26    256.74   1264.16    254.84   1264.16    252.49  " /><path style="stroke-width: 1.42 ;&st7;   " d=" M  1251.42,   252.49  C  1251.42    254.84   1253.32    256.74   1255.67    256.74  " /><path style="stroke-width: 1.42 ;&st7;   " d=" M  1255.67,   248.24  C  1253.32    248.24   1251.42    250.15   1251.42    252.49  " /><path style="stroke-width: 1.42 ;&st7;  " d=" M  1259.91,   248.24  L  1255.67,   248.24  " /><path style="stroke-width: 0.85 ;&st7;  " d=" M  1257.79,   231.25  L  1257.79,   248.24  " /><path style="stroke-width: 1.42 ;&st7;  " d=" M  1245.04,   188.75  L  1245.04,   231.25  L  1270.54,   231.25  L  1270.54,   188.75  L  1245.04,   188.75  " /><path style="stroke-width: 1.42 ;&st7;   " d=" M  1257.79,   200.09  C  1255.05    201.70   1254.14    205.23   1255.75    207.96  " /><path style="stroke-width: 1.42 ;&st7;   " d=" M  1255.75,   207.96  C  1256.27    208.85   1256.91    209.48   1257.79    210.00  " /><path style="stroke-width: 0.85 ;&st7;   " d=" M  1259.21,   198.67  C  1259.21    197.89   1258.57    197.25   1257.79    197.25  " /><path style="stroke-width: 0.85 ;&st7;   " d=" M  1257.79,   197.25  C  1257.01    197.25   1256.37    197.89   1256.37    198.67  " /><path style="stroke-width: 0.85 ;&st7;   " d=" M  1256.37,   198.67  C  1256.37    199.45   1257.01    200.09   1257.79    200.09  " /><path style="stroke-width: 0.85 ;&st7;   " d=" M  1257.79,   200.09  C  1258.57    200.09   1259.21    199.45   1259.21    198.67  " /><path style="stroke-width: 0.85 ;&st7;   " d=" M  1259.21,   221.33  C  1259.21    220.55   1258.57    219.92   1257.79    219.92  " /><path style="stroke-width: 0.85 ;&st7;   " d=" M  1257.79,   219.92  C  1257.01    219.92   1256.37    220.55   1256.37    221.33  " /><path style="stroke-width: 0.85 ;&st7;   " d=" M  1256.37,   221.33  C  1256.37    222.11   1257.01    222.75   1257.79    222.75  " /><path style="stroke-width: 0.85 ;&st7;   " d=" M  1257.79,   222.75  C  1258.57    222.75   1259.21    222.11   1259.21    221.33  " /><path style="stroke-width: 1.42 ;&st7;   " d=" M  1257.79,   219.92  C  1260.53    218.30   1261.44    214.77   1259.83    212.04  " /><path style="stroke-width: 1.42 ;&st7;   " d=" M  1259.83,   212.04  C  1259.31    211.16   1258.67    210.52   1257.79    210.00  " /><path style="stroke-width: 0.85 ;&st7;  " d=" M  1257.79,   222.75  L  1257.79,   231.25  " /></g><g ewd:figtype="rb" ewd:figID="13" ewd:code="FUSE8"><text style="&st18;" transform="matrix(&st16;  1326.2  185.06 )">(BAT)</text><text style="&st18;" transform="matrix(&st16;  1327.94  239.44 )">2</text><text style="&st18;" transform="matrix(&st16;  1332.4  254.46 )">2</text><text style="&st18;" transform="matrix(&st16;  1350.7  209.14 )">10A <tspan x="0 " dy="6.0">EDU2</tspan></text><path style="stroke-width: 0.28 ;&st9;  " d=" M  1334.28,   243.35  L  1331.44,   240.52  L  1331.44,   244.77  L  1334.28,   247.60  L  1337.11,   244.77  L  1337.11,   240.52  L  1334.28,   243.35  " /><path style="stroke-width: 1.42 ;&st7;   " d=" M  1340.65,   252.49  C  1340.65    250.15   1338.75    248.24   1336.40    248.24  " /><path style="stroke-width: 1.42 ;&st7;   " d=" M  1336.40,   256.74  C  1338.75    256.74   1340.65    254.84   1340.65    252.49  " /><path style="stroke-width: 1.42 ;&st7;   " d=" M  1327.90,   252.49  C  1327.90    254.84   1329.81    256.74   1332.15    256.74  " /><path style="stroke-width: 1.42 ;&st7;   " d=" M  1332.15,   248.24  C  1329.81    248.24   1327.90    250.15   1327.90    252.49  " /><path style="stroke-width: 0.85 ;&st7;  " d=" M  1334.28,   231.25  L  1334.28,   248.24  " /><path style="stroke-width: 1.42 ;&st7;  " d=" M  1336.40,   248.24  L  1332.15,   248.24  " /><path style="stroke-width: 1.42 ;&st7;  " d=" M  1336.40,   256.74  L  1332.15,   256.74  " /><path style="stroke-width: 1.42 ;&st7;  " d=" M  1321.53,   188.75  L  1321.53,   231.25  L  1347.02,   231.25  L  1347.02,   188.75  L  1321.53,   188.75  " /><path style="stroke-width: 0.85 ;&st7;   " d=" M  1335.69,   221.33  C  1335.69    220.55   1335.06    219.92   1334.28    219.92  " /><path style="stroke-width: 0.85 ;&st7;   " d=" M  1334.28,   219.92  C  1333.49    219.92   1332.86    220.55   1332.86    221.33  " /><path style="stroke-width: 0.85 ;&st7;   " d=" M  1332.86,   221.33  C  1332.86    222.11   1333.49    222.75   1334.28    222.75  " /><path style="stroke-width: 0.85 ;&st7;   " d=" M  1334.28,   222.75  C  1335.06    222.75   1335.69    222.11   1335.69    221.33  " /><path style="stroke-width: 0.85 ;&st7;   " d=" M  1335.69,   198.67  C  1335.69    197.89   1335.06    197.25   1334.28    197.25  " /><path style="stroke-width: 0.85 ;&st7;   " d=" M  1334.28,   197.25  C  1333.49    197.25   1332.86    197.89   1332.86    198.67  " /><path style="stroke-width: 0.85 ;&st7;   " d=" M  1332.86,   198.67  C  1332.86    199.45   1333.49    200.09   1334.28    200.09  " /><path style="stroke-width: 0.85 ;&st7;   " d=" M  1334.28,   200.09  C  1335.06    200.09   1335.69    199.45   1335.69    198.67  " /><path style="stroke-width: 1.42 ;&st7;   " d=" M  1334.28,   200.09  C  1331.54    201.70   1330.63    205.23   1332.24    207.96  " /><path style="stroke-width: 1.42 ;&st7;   " d=" M  1332.24,   207.96  C  1332.76    208.85   1333.40    209.48   1334.28    210.00  " /><path style="stroke-width: 1.42 ;&st7;   " d=" M  1334.28,   219.92  C  1337.01    218.30   1337.93    214.77   1336.31    212.04  " /><path style="stroke-width: 1.42 ;&st7;   " d=" M  1336.31,   212.04  C  1335.79    211.16   1335.16    210.52   1334.28    210.00  " /><path style="stroke-width: 0.85 ;&st7;  " d=" M  1334.28,   222.75  L  1334.28,   231.25  " /></g><g ewd:figtype="rb" ewd:figID="56" ewd:code="1"><text style="&st18;" transform="matrix(&st16;  1255.91  475.43 )">1</text><text style="&st18;" transform="matrix(&st17;  1299.42  442.99 )" ewd:textID="20">EDU1 <tspan x="0 " dy="6.0">Relay</tspan></text><text style="&st18;" transform="matrix(&st16;  1281.41  475.43 )">1</text><text style="&st18;" transform="matrix(&st16;  1255.91  398.94 )">1</text><text style="&st18;" transform="matrix(&st16;  1281.41  398.94 )">1</text><text style="&st18;" transform="matrix(&st16;  1276.95  460.4 )">2</text><text style="&st18;" transform="matrix(&st16;  1251.45  414.53 )">3</text><text style="&st18;" transform="matrix(&st16;  1251.45  460.4 )">5</text><text style="&st18;" transform="matrix(&st16;  1276.95  414.53 )">1</text><path style="stroke-width: 0.28 ;&st9;  " d=" M  1257.79,   464.31  L  1254.96,   461.48  L  1254.96,   465.73  L  1257.79,   468.56  L  1260.62,   465.73  L  1260.62,   461.48  L  1257.79,   464.31  " /><path style="stroke-width: 0.85 ;&st7;  " d=" M  1257.79,   469.21  L  1257.79,   452.21  " /><path style="stroke-width: 0.28 ;&st9;  " d=" M  1283.29,   464.31  L  1280.45,   461.48  L  1280.45,   465.73  L  1283.29,   468.56  L  1286.12,   465.73  L  1286.12,   461.48  L  1283.29,   464.31  " /><path style="stroke-width: 0.85 ;&st7;  " d=" M  1283.29,   469.21  L  1283.29,   452.21  " /><path style="stroke-width: 0.85 ;&st7;  " d=" M  1257.79,   418.22  L  1257.79,   401.22  " /><path style="stroke-width: 0.28 ;&st9;  " d=" M  1257.79,   406.11  L  1260.62,   408.95  L  1260.62,   404.70  L  1257.79,   401.86  L  1254.96,   404.70  L  1254.96,   408.95  L  1257.79,   406.11  " /><path style="stroke-width: 0.28 ;&st9;  " d=" M  1283.29,   406.11  L  1286.12,   408.95  L  1286.12,   404.70  L  1283.29,   401.86  L  1280.45,   404.70  L  1280.45,   408.95  L  1283.29,   406.11  " /><path style="stroke-width: 0.85 ;&st7;  " d=" M  1283.29,   418.22  L  1283.29,   401.22  " /><path style="stroke-width: 1.42 ;&st7;   " d=" M  1264.16,   473.46  C  1264.16    471.11   1262.26    469.21   1259.91    469.21  " /><path style="stroke-width: 1.42 ;&st7;   " d=" M  1259.91,   477.71  C  1262.26    477.71   1264.16    475.80   1264.16    473.46  " /><path style="stroke-width: 1.42 ;&st7;   " d=" M  1281.16,   469.21  C  1278.81    469.21   1276.91    471.11   1276.91    473.46  " /><path style="stroke-width: 1.42 ;&st7;   " d=" M  1276.91,   473.46  C  1276.91    475.80   1278.81    477.71   1281.16    477.71  " /><path style="stroke-width: 1.42 ;&st7;   " d=" M  1285.41,   477.71  C  1287.76    477.71   1289.66    475.80   1289.66    473.46  " /><path style="stroke-width: 1.42 ;&st7;   " d=" M  1255.67,   469.21  C  1253.32    469.21   1251.42    471.11   1251.42    473.46  " /><path style="stroke-width: 1.42 ;&st7;   " d=" M  1251.42,   473.46  C  1251.42    475.80   1253.32    477.71   1255.67    477.71  " /><path style="stroke-width: 1.42 ;&st7;   " d=" M  1289.66,   473.46  C  1289.66    471.11   1287.76    469.21   1285.41    469.21  " /><path style="stroke-width: 1.42 ;&st7;   " d=" M  1264.16,   396.97  C  1264.16    394.62   1262.26    392.72   1259.91    392.72  " /><path style="stroke-width: 1.42 ;&st7;   " d=" M  1259.91,   401.22  C  1262.26    401.22   1264.16    399.32   1264.16    396.97  " /><path style="stroke-width: 1.42 ;&st7;   " d=" M  1255.67,   392.72  C  1253.32    392.72   1251.42    394.62   1251.42    396.97  " /><path style="stroke-width: 1.42 ;&st7;   " d=" M  1289.66,   396.97  C  1289.66    394.62   1287.76    392.72   1285.41    392.72  " /><path style="stroke-width: 1.42 ;&st7;   " d=" M  1285.41,   401.22  C  1287.76    401.22   1289.66    399.32   1289.66    396.97  " /><path style="stroke-width: 1.42 ;&st7;   " d=" M  1276.91,   396.97  C  1276.91    399.32   1278.81    401.22   1281.16    401.22  " /><path style="stroke-width: 1.42 ;&st7;   " d=" M  1281.16,   392.72  C  1278.81    392.72   1276.91    394.62   1276.91    396.97  " /><path style="stroke-width: 1.42 ;&st7;   " d=" M  1251.42,   396.97  C  1251.42    399.32   1253.32    401.22   1255.67    401.22  " /><path style="stroke-width: 1.42 ;&st7;  " d=" M  1285.41,   469.21  L  1281.16,   469.21  " /><path style="stroke-width: 1.42 ;&st7;  " d=" M  1285.41,   477.71  L  1281.16,   477.71  " /><path style="stroke-width: 1.42 ;&st7;  " d=" M  1259.91,   469.21  L  1255.67,   469.21  " /><path style="stroke-width: 1.42 ;&st7;  " d=" M  1259.91,   477.71  L  1255.67,   477.71  " /><path style="stroke-width: 1.42 ;&st7;  " d=" M  1259.91,   401.22  L  1255.67,   401.22  " /><path style="stroke-width: 1.42 ;&st7;  " d=" M  1259.91,   392.72  L  1255.67,   392.72  " /><path style="stroke-width: 1.42 ;&st7;  " d=" M  1285.41,   392.72  L  1281.16,   392.72  " /><path style="stroke-width: 1.42 ;&st7;  " d=" M  1285.41,   401.22  L  1281.16,   401.22  " /><path style="stroke-width: 1.42 ;&st7;  " d=" M  1291.78,   418.22  L  1249.29,   418.22  L  1249.29,   452.21  L  1291.78,   452.21  L  1291.78,   418.22  " /><path style="stroke-width: 0.85 ;&st7;   " d=" M  1259.21,   423.88  C  1259.21    423.10   1258.57    422.46   1257.79    422.46  " /><path style="stroke-width: 0.85 ;&st7;   " d=" M  1257.79,   422.46  C  1257.01    422.46   1256.37    423.10   1256.37    423.88  " /><path style="stroke-width: 0.85 ;&st7;   " d=" M  1256.37,   423.88  C  1256.37    424.66   1257.01    425.30   1257.79    425.30  " /><path style="stroke-width: 0.85 ;&st7;   " d=" M  1257.79,   425.30  C  1258.57    425.30   1259.21    424.66   1259.21    423.88  " /><path style="stroke-width: 0.85 ;&st7;   " d=" M  1259.21,   446.54  C  1259.21    445.76   1258.57    445.13   1257.79    445.13  " /><path style="stroke-width: 0.85 ;&st7;   " d=" M  1257.79,   445.13  C  1257.01    445.13   1256.37    445.76   1256.37    446.54  " /><path style="stroke-width: 0.85 ;&st7;   " d=" M  1256.37,   446.54  C  1256.37    447.33   1257.01    447.96   1257.79    447.96  " /><path style="stroke-width: 0.85 ;&st7;   " d=" M  1257.79,   447.96  C  1258.57    447.96   1259.21    447.33   1259.21    446.54  " /><path style="stroke-width: 0.85 ;&st7;   " d=" M  1280.76,   432.73  C  1282.12    434.13   1284.37    434.15   1285.76    432.78  " /><path style="stroke-width: 0.85 ;&st7;   " d=" M  1285.76,   432.78  C  1287.16    431.42   1287.18    429.17   1285.82    427.78  " /><path style="stroke-width: 0.85 ;&st7;   " d=" M  1285.82,   427.78  C  1285.12    427.07   1284.28    426.71   1283.29    426.71  " /><path style="stroke-width: 0.85 ;&st7;   " d=" M  1280.76,   437.69  C  1282.12    439.09   1284.37    439.11   1285.76    437.74  " /><path style="stroke-width: 0.85 ;&st7;   " d=" M  1285.76,   437.74  C  1287.16    436.37   1287.18    434.13   1285.82    432.73  " /><path style="stroke-width: 0.85 ;&st7;   " d=" M  1285.82,   432.73  C  1284.45    431.34   1282.20    431.31   1280.81    432.68  " /><path style="stroke-width: 0.85 ;&st7;   " d=" M  1280.81,   432.68  C  1280.79    432.70   1280.77    432.72   1280.76    432.73  " /><path style="stroke-width: 0.85 ;&st7;   " d=" M  1283.29,   443.71  C  1285.24    443.71   1286.83    442.13   1286.83    440.17  " /><path style="stroke-width: 0.85 ;&st7;   " d=" M  1286.83,   440.17  C  1286.83    438.21   1285.24    436.63   1283.29    436.63  " /><path style="stroke-width: 0.85 ;&st7;   " d=" M  1283.29,   436.63  C  1282.30    436.63   1281.45    436.98   1280.76    437.69  " /><path style="stroke-width: 0.85 ;&st7;  " d=" M  1257.79,   422.46  L  1257.79,   418.22  " /><path style="stroke-width: 0.85 ;&st7;  " d=" M  1257.79,   452.21  L  1257.79,   447.96  " /><path style="stroke-width: 1.42 ;&st7;  " d=" M  1257.79,   425.30  L  1252.12,   447.96  " /><path style="stroke-width: 0.85 ;&st7;  " d=" M  1283.29,   418.22  L  1283.29,   426.71  " /><path style="stroke-width: 0.85 ;&st7;  " d=" M  1283.29,   443.71  L  1283.29,   452.21  " /></g><g ewd:figtype="rb" ewd:figID="58" ewd:code="1"><text style="&st18;" transform="matrix(&st16;  1327.94  460.4 )">5</text><text style="&st18;" transform="matrix(&st16;  1353.43  460.4 )">2</text><text style="&st18;" transform="matrix(&st16;  1327.94  414.53 )">3</text><text style="&st18;" transform="matrix(&st16;  1353.43  414.53 )">1</text><text style="&st18;" transform="matrix(&st16;  1332.4  398.94 )">1</text><text style="&st18;" transform="matrix(&st16;  1357.89  475.43 )">1</text><text style="&st18;" transform="matrix(&st17;  1375.91  442.99 )" ewd:textID="21">EDU2 <tspan x="0 " dy="6.0">Relay</tspan></text><text style="&st18;" transform="matrix(&st16;  1332.4  475.43 )">1</text><text style="&st18;" transform="matrix(&st16;  1357.89  398.94 )">1</text><path style="stroke-width: 0.85 ;&st7;  " d=" M  1359.77,   418.22  L  1359.77,   401.22  " /><path style="stroke-width: 0.85 ;&st7;  " d=" M  1359.77,   469.21  L  1359.77,   452.21  " /><path style="stroke-width: 0.28 ;&st9;  " d=" M  1359.77,   464.31  L  1356.94,   461.48  L  1356.94,   465.73  L  1359.77,   468.56  L  1362.61,   465.73  L  1362.61,   461.48  L  1359.77,   464.31  " /><path style="stroke-width: 0.28 ;&st9;  " d=" M  1334.28,   406.11  L  1337.11,   408.95  L  1337.11,   404.70  L  1334.28,   401.86  L  1331.44,   404.70  L  1331.44,   408.95  L  1334.28,   406.11  " /><path style="stroke-width: 0.28 ;&st9;  " d=" M  1334.28,   464.31  L  1331.44,   461.48  L  1331.44,   465.73  L  1334.28,   468.56  L  1337.11,   465.73  L  1337.11,   461.48  L  1334.28,   464.31  " /><path style="stroke-width: 0.85 ;&st7;  " d=" M  1334.28,   469.21  L  1334.28,   452.21  " /><path style="stroke-width: 0.28 ;&st9;  " d=" M  1359.77,   406.11  L  1362.61,   408.95  L  1362.61,   404.70  L  1359.77,   401.86  L  1356.94,   404.70  L  1356.94,   408.95  L  1359.77,   406.11  " /><path style="stroke-width: 0.85 ;&st7;  " d=" M  1334.28,   401.22  L  1334.28,   418.22  " /><path style="stroke-width: 1.42 ;&st7;   " d=" M  1327.90,   473.46  C  1327.90    475.80   1329.81    477.71   1332.15    477.71  " /><path style="stroke-width: 1.42 ;&st7;   " d=" M  1332.15,   469.21  C  1329.81    469.21   1327.90    471.11   1327.90    473.46  " /><path style="stroke-width: 1.42 ;&st7;   " d=" M  1357.65,   469.21  C  1355.30    469.21   1353.40    471.11   1353.40    473.46  " /><path style="stroke-width: 1.42 ;&st7;   " d=" M  1361.90,   477.71  C  1364.24    477.71   1366.15    475.80   1366.15    473.46  " /><path style="stroke-width: 1.42 ;&st7;   " d=" M  1353.40,   473.46  C  1353.40    475.80   1355.30    477.71   1357.65    477.71  " /><path style="stroke-width: 1.42 ;&st7;   " d=" M  1336.40,   477.71  C  1338.75    477.71   1340.65    475.80   1340.65    473.46  " /><path style="stroke-width: 1.42 ;&st7;   " d=" M  1340.65,   473.46  C  1340.65    471.11   1338.75    469.21   1336.40    469.21  " /><path style="stroke-width: 1.42 ;&st7;   " d=" M  1366.15,   473.46  C  1366.15    471.11   1364.24    469.21   1361.90    469.21  " /><path style="stroke-width: 1.42 ;&st7;   " d=" M  1357.65,   392.72  C  1355.30    392.72   1353.40    394.62   1353.40    396.97  " /><path style="stroke-width: 1.42 ;&st7;   " d=" M  1353.40,   396.97  C  1353.40    399.32   1355.30    401.22   1357.65    401.22  " /><path style="stroke-width: 1.42 ;&st7;   " d=" M  1366.15,   396.97  C  1366.15    394.62   1364.24    392.72   1361.90    392.72  " /><path style="stroke-width: 1.42 ;&st7;   " d=" M  1361.90,   401.22  C  1364.24    401.22   1366.15    399.32   1366.15    396.97  " /><path style="stroke-width: 1.42 ;&st7;   " d=" M  1336.40,   401.22  C  1338.75    401.22   1340.65    399.32   1340.65    396.97  " /><path style="stroke-width: 1.42 ;&st7;   " d=" M  1327.90,   396.97  C  1327.90    399.32   1329.81    401.22   1332.15    401.22  " /><path style="stroke-width: 1.42 ;&st7;   " d=" M  1332.15,   392.72  C  1329.81    392.72   1327.90    394.62   1327.90    396.97  " /><path style="stroke-width: 1.42 ;&st7;   " d=" M  1340.65,   396.97  C  1340.65    394.62   1338.75    392.72   1336.40    392.72  " /><path style="stroke-width: 1.42 ;&st7;  " d=" M  1336.40,   477.71  L  1332.15,   477.71  " /><path style="stroke-width: 1.42 ;&st7;  " d=" M  1361.90,   392.72  L  1357.65,   392.72  " /><path style="stroke-width: 1.42 ;&st7;  " d=" M  1361.90,   401.22  L  1357.65,   401.22  " /><path style="stroke-width: 1.42 ;&st7;  " d=" M  1336.40,   469.21  L  1332.15,   469.21  " /><path style="stroke-width: 1.42 ;&st7;  " d=" M  1361.90,   477.71  L  1357.65,   477.71  " /><path style="stroke-width: 1.42 ;&st7;  " d=" M  1361.90,   469.21  L  1357.65,   469.21  " /><path style="stroke-width: 1.42 ;&st7;  " d=" M  1336.40,   401.22  L  1332.15,   401.22  " /><path style="stroke-width: 1.42 ;&st7;  " d=" M  1336.40,   392.72  L  1332.15,   392.72  " /><path style="stroke-width: 1.42 ;&st7;  " d=" M  1368.27,   418.22  L  1325.78,   418.22  L  1325.78,   452.21  L  1368.27,   452.21  L  1368.27,   418.22  " /><path style="stroke-width: 0.85 ;&st7;   " d=" M  1335.69,   423.88  C  1335.69    423.10   1335.06    422.46   1334.28    422.46  " /><path style="stroke-width: 0.85 ;&st7;   " d=" M  1334.28,   422.46  C  1333.49    422.46   1332.86    423.10   1332.86    423.88  " /><path style="stroke-width: 0.85 ;&st7;   " d=" M  1332.86,   423.88  C  1332.86    424.66   1333.49    425.30   1334.28    425.30  " /><path style="stroke-width: 0.85 ;&st7;   " d=" M  1334.28,   425.30  C  1335.06    425.30   1335.69    424.66   1335.69    423.88  " /><path style="stroke-width: 0.85 ;&st7;   " d=" M  1335.69,   446.54  C  1335.69    445.76   1335.06    445.13   1334.28    445.13  " /><path style="stroke-width: 0.85 ;&st7;   " d=" M  1334.28,   445.13  C  1333.49    445.13   1332.86    445.76   1332.86    446.54  " /><path style="stroke-width: 0.85 ;&st7;   " d=" M  1332.86,   446.54  C  1332.86    447.33   1333.49    447.96   1334.28    447.96  " /><path style="stroke-width: 0.85 ;&st7;   " d=" M  1334.28,   447.96  C  1335.06    447.96   1335.69    447.33   1335.69    446.54  " /><path style="stroke-width: 0.85 ;&st7;   " d=" M  1357.24,   432.73  C  1358.61    434.13   1360.85    434.15   1362.25    432.78  " /><path style="stroke-width: 0.85 ;&st7;   " d=" M  1362.25,   432.78  C  1363.65    431.42   1363.67    429.17   1362.30    427.78  " /><path style="stroke-width: 0.85 ;&st7;   " d=" M  1362.30,   427.78  C  1361.61    427.07   1360.76    426.71   1359.77    426.71  " /><path style="stroke-width: 0.85 ;&st7;   " d=" M  1359.77,   443.71  C  1361.73    443.71   1363.31    442.13   1363.31    440.17  " /><path style="stroke-width: 0.85 ;&st7;   " d=" M  1363.31,   440.17  C  1363.31    438.21   1361.73    436.63   1359.77    436.63  " /><path style="stroke-width: 0.85 ;&st7;   " d=" M  1359.77,   436.63  C  1358.78    436.63   1357.94    436.98   1357.24    437.69  " /><path style="stroke-width: 0.85 ;&st7;   " d=" M  1357.24,   437.69  C  1358.61    439.09   1360.85    439.11   1362.25    437.74  " /><path style="stroke-width: 0.85 ;&st7;   " d=" M  1362.25,   437.74  C  1363.65    436.37   1363.67    434.13   1362.30    432.73  " /><path style="stroke-width: 0.85 ;&st7;   " d=" M  1362.30,   432.73  C  1360.93    431.34   1358.69    431.31   1357.29    432.68  " /><path style="stroke-width: 0.85 ;&st7;   " d=" M  1357.29,   432.68  C  1357.28    432.70   1357.26    432.72   1357.24    432.73  " /><path style="stroke-width: 0.85 ;&st7;  " d=" M  1334.28,   422.46  L  1334.28,   418.22  " /><path style="stroke-width: 0.85 ;&st7;  " d=" M  1334.28,   452.21  L  1334.28,   447.96  " /><path style="stroke-width: 1.42 ;&st7;  " d=" M  1334.28,   425.30  L  1328.61,   447.96  " /><path style="stroke-width: 0.85 ;&st7;  " d=" M  1359.77,   443.71  L  1359.77,   452.21  " /><path style="stroke-width: 0.85 ;&st7;  " d=" M  1359.77,   418.22  L  1359.77,   426.71  " /></g><g ewd:figtype="conn" ewd:figID="81" ewd:code="I95"><path style="stroke-width: 0.85 ;&st7;  " d=" M  1121.81,   299.24  L  1121.81,   316.23  " /><path style="stroke-width: 1.42 ;&st7;  " d=" M  1079.32,   316.23  L  1130.31,   316.23  L  1130.31,   299.24  L  1079.32,   299.24  L  1079.32,   316.23  " /><path style="stroke-width: 0.85 ;&st7;  " d=" M  1087.82,   316.23  L  1087.82,   307.73  L  1121.81,   307.73  " /><path style="stroke-width: 0.85 ;&st7;  " d=" M  1120.62,   306.73  L  1120.35,   307.20  L  1120.25,   307.73  L  1120.35,   308.27  L  1120.62,   308.74  L  1121.03,   309.08  L  1121.54,   309.27  L  1122.08,   309.27  L  1122.59,   309.08  L  1123.00,   308.74  L  1123.28,   308.27  L  1123.37,   307.73  L  1123.28,   307.20  L  1123.00,   306.73  L  1122.59,   306.39  L  1122.08,   306.20  L  1121.54,   306.20  L  1121.03,   306.39  L  1120.62,   306.73  L  1121.01,   307.44  L  1121.01,   308.03  L  1121.39,   308.47  L  1121.96,   308.57  L  1122.46,   308.28  L  1122.66,   307.73  L  1122.46,   307.19  L  1121.96,   306.90  L  1121.39,   307.00  L  1121.81,   307.73  " /><text style="&st18;" transform="matrix(&st16;  1078.14  324.43 )">12</text><text style="&st18;" transform="matrix(&st16;  1115.47  324.43 )">5</text><text style="&st18;" transform="matrix(&st16;  1115.47  295.55 )">4</text><g ewd:figtype="title"><text style="&st18;" transform="matrix(&st17;  1145.03  319.14 )" ewd:textID="61">No. 18 Junction <tspan x="0 " dy="6.0">Connector</tspan></text><text style="&st18;" transform="matrix(&st17;  1138.21  319.13 )">I95</text></g></g><g ewd:figtype="conn" ewd:figID="84" ewd:code="C39,I84"><path style="stroke-width: 1.42 ;&st7;  " d=" M  5524.07,   239.75  L  5524.07,   290.74  L  1393.77,   290.74  L  1393.77,   239.75  L  5524.07,   239.75  " /><g ewd:lineID="47"><text style="&st18;" transform="matrix(&st16;  1397.95  297.24 )">46</text><path style="stroke-width: 1.42 ;&st7;   " d=" M  1415.30,   295.27  C  1415.30    292.77   1413.27    290.74   1410.76    290.74  " /><path style="stroke-width: 1.42 ;&st7;   " d=" M  1410.76,   290.74  C  1408.26    290.74   1406.23    292.77   1406.23    295.27  " /><path style="stroke-width: 1.42 ;&st7;   " d=" M  1406.23,   295.27  C  1406.23    297.77   1408.26    299.80   1410.76    299.80  " /><path style="stroke-width: 1.42 ;&st7;   " d=" M  1410.76,   299.80  C  1413.27    299.80   1415.30    297.77   1415.30    295.27  " /><text style="&st18;" transform="matrix(&st16;  1408.5  297.24 )">A</text><text style="&st18;" transform="matrix(&st16;  1404.19  287.04 )">IRL2</text></g><g ewd:lineID="48"><text style="&st18;" transform="matrix(&st16;  1397.95  237.18 )">44</text><text style="&st18;" transform="matrix(&st16;  1408.5  237.18 )">A</text><path style="stroke-width: 1.42 ;&st7;   " d=" M  1415.30,   235.21  C  1415.30    232.71   1413.27    230.68   1410.76    230.68  " /><path style="stroke-width: 1.42 ;&st7;   " d=" M  1410.76,   230.68  C  1408.26    230.68   1406.23    232.71   1406.23    235.21  " /><path style="stroke-width: 1.42 ;&st7;   " d=" M  1406.23,   235.21  C  1406.23    237.72   1408.26    239.75   1410.76    239.75  " /><path style="stroke-width: 1.42 ;&st7;   " d=" M  1410.76,   239.75  C  1413.27    239.75   1415.30    237.72   1415.30    235.21  " /><text style="&st18;" transform="matrix(&st16;  1402.18  247.38 )">MREL</text></g><g ewd:lineID="49"><text style="&st18;" transform="matrix(&st16;  1431.94  297.24 )">45</text><path style="stroke-width: 1.42 ;&st7;   " d=" M  1449.29,   295.27  C  1449.29    292.77   1447.26    290.74   1444.76    290.74  " /><path style="stroke-width: 1.42 ;&st7;   " d=" M  1444.76,   290.74  C  1442.26    290.74   1440.23    292.77   1440.23    295.27  " /><path style="stroke-width: 1.42 ;&st7;   " d=" M  1440.23,   295.27  C  1440.23    297.77   1442.26    299.80   1444.76    299.80  " /><path style="stroke-width: 1.42 ;&st7;   " d=" M  1444.76,   299.80  C  1447.26    299.80   1449.29    297.77   1449.29    295.27  " /><text style="&st18;" transform="matrix(&st16;  1442.49  297.24 )">A</text><text style="&st18;" transform="matrix(&st16;  1437.84  287.04 )">IREL</text></g><g ewd:lineID="50"><text style="&st18;" transform="matrix(&st16;  1431.94  237.18 )">20</text><path style="stroke-width: 1.42 ;&st7;   " d=" M  1449.29,   235.21  C  1449.29    232.71   1447.26    230.68   1444.76    230.68  " /><path style="stroke-width: 1.42 ;&st7;   " d=" M  1444.76,   230.68  C  1442.26    230.68   1440.23    232.71   1440.23    235.21  " /><path style="stroke-width: 1.42 ;&st7;   " d=" M  1440.23,   235.21  C  1440.23    237.72   1442.26    239.75   1444.76    239.75  " /><path style="stroke-width: 1.42 ;&st7;   " d=" M  1444.76,   239.75  C  1447.26    239.75   1449.29    237.72   1449.29    235.21  " /><text style="&st18;" transform="matrix(&st16;  1442.49  237.18 )">A</text><text style="&st18;" transform="matrix(&st16;  1436.79  247.38 )">BATT</text></g><g ewd:lineID="52"><text style="&st18;" transform="matrix(&st16;  1465.94  297.24 )">23</text><path style="stroke-width: 1.42 ;&st7;   " d=" M  1483.29,   295.27  C  1483.29    292.77   1481.26    290.74   1478.75    290.74  " /><path style="stroke-width: 1.42 ;&st7;   " d=" M  1478.75,   290.74  C  1476.25    290.74   1474.22    292.77   1474.22    295.27  " /><path style="stroke-width: 1.42 ;&st7;   " d=" M  1474.22,   295.27  C  1474.22    297.77   1476.25    299.80   1478.75    299.80  " /><path style="stroke-width: 1.42 ;&st7;   " d=" M  1478.75,   299.80  C  1481.26    299.80   1483.29    297.77   1483.29    295.27  " /><text style="&st18;" transform="matrix(&st16;  1476.49  297.24 )">A</text><text style="&st18;" transform="matrix(&st16;  1470.71  287.04 )">GRL2</text></g><g ewd:lineID="54"><text style="&st18;" transform="matrix(&st16;  1499.93  297.24 )">12</text></g><g ewd:figtype="title"><text style="&st18;" transform="matrix(&st16;  1441.35  264.64 )">C39(B),I84(A)</text><text style="&st18;" transform="matrix(&st16;  1441.35  271.46 )">ECM</text></g></g><g ewd:figtype="w2w" ewd:figID="113" ewd:code="AI3"><path style="stroke-width: 1.42 ;&st7;  " d=" M  1126.06,   240.31  L  1121.81,   236.06  L  1117.56,   240.31  " /><path style="stroke-width: 1.42 ;&st7;  " d=" M  1126.06,   236.91  L  1121.81,   232.66  L  1117.56,   236.91  " /><text style="&st18;" transform="matrix(&st16;  1108.39  228.97 )">5</text></g><g ewd:figtype="w2w" ewd:figID="114" ewd:code="AI7"><text style="&st18;" transform="matrix(&st16;  1244.37  322.45 )">1</text><path style="stroke-width: 1.42 ;&st7;  " d=" M  1262.04,   310.57  L  1257.79,   314.82  L  1253.54,   310.57  " /><path style="stroke-width: 1.42 ;&st7;  " d=" M  1253.54,   307.17  L  1257.79,   311.42  L  1262.04,   307.17  " /></g><g ewd:figtype="w2w" ewd:figID="115" ewd:code="AI7"><text style="&st18;" transform="matrix(&st16;  1320.86  322.45 )">6</text><path style="stroke-width: 1.42 ;&st7;  " d=" M  1338.53,   310.57  L  1334.28,   314.82  L  1330.03,   310.57  " /><path style="stroke-width: 1.42 ;&st7;  " d=" M  1330.03,   307.17  L  1334.28,   311.42  L  1338.53,   307.17  " /></g><g ewd:figtype="w2w" ewd:figID="116" ewd:code="AI3"><text style="&st18;" transform="matrix(&st16;  1397.35  381.94 )">8</text><path style="stroke-width: 1.42 ;&st7;  " d=" M  1415.01,   370.06  L  1410.76,   374.31  L  1406.51,   370.06  " /><path style="stroke-width: 1.42 ;&st7;  " d=" M  1406.51,   366.66  L  1410.76,   370.91  L  1415.01,   366.66  " /></g><g ewd:figtype="w2w" ewd:figID="117" ewd:code="AI3"><path style="stroke-width: 1.42 ;&st7;  " d=" M  1415.01,   168.92  L  1410.76,   164.67  L  1406.51,   168.92  " /><path style="stroke-width: 1.42 ;&st7;  " d=" M  1415.01,   172.32  L  1410.76,   168.07  L  1406.51,   172.32  " /><text style="&st18;" transform="matrix(&st16;  1394.01  160.98 )">12</text></g><g ewd:figtype="w2w" ewd:figID="118" ewd:code="AI3"><text style="&st18;" transform="matrix(&st16;  1428.01  381.94 )">27</text><path style="stroke-width: 1.42 ;&st7;  " d=" M  1449.01,   370.06  L  1444.76,   374.31  L  1440.51,   370.06  " /><path style="stroke-width: 1.42 ;&st7;  " d=" M  1440.51,   366.66  L  1444.76,   370.91  L  1449.01,   366.66  " /></g><g ewd:figtype="w2w" ewd:figID="119" ewd:code="AI3"><path style="stroke-width: 1.42 ;&st7;  " d=" M  1449.01,   168.92  L  1444.76,   164.67  L  1440.51,   168.92  " /><path style="stroke-width: 1.42 ;&st7;  " d=" M  1449.01,   172.32  L  1444.76,   168.07  L  1440.51,   172.32  " /><text style="&st18;" transform="matrix(&st16;  1428.01  160.98 )">39</text></g><g ewd:figtype="w2w" ewd:figID="120" ewd:code="AI3"><text style="&st18;" transform="matrix(&st16;  1462.0  381.94 )">56</text><path style="stroke-width: 1.42 ;&st7;  " d=" M  1483.00,   370.06  L  1478.75,   374.31  L  1474.50,   370.06  " /><path style="stroke-width: 1.42 ;&st7;  " d=" M  1474.50,   366.66  L  1478.75,   370.91  L  1483.00,   366.66  " /></g><g ewd:figtype="w2w" ewd:figID="121" ewd:code="AI3"><text style="&st18;" transform="matrix(&st16;  1495.99  381.94 )">55</text><path style="stroke-width: 1.42 ;&st7;  " d=" M  1517.00,   370.06  L  1512.75,   374.31  L  1508.50,   370.06  " /><path style="stroke-width: 1.42 ;&st7;  " d=" M  1508.50,   366.66  L  1512.75,   370.91  L  1517.00,   366.66  " /></g><g ewd:figtype="gp" ewd:figID="159" ewd:code="CE"><path style="stroke-width: 0.85 ;&st7;  " d=" M  1205.38,   710.00  L  1208.21,   710.00  " /><path style="stroke-width: 0.85 ;&st7;  " d=" M  1203.96,   707.17  L  1209.63,   707.17  " /><path style="stroke-width: 0.85 ;&st7;  " d=" M  1202.55,   704.33  L  1211.05,   704.33  " /><path style="stroke-width: 0.85 ;&st7;  " d=" M  1198.30,   701.50  L  1215.30,   701.50  " /><path style="stroke-width: 0.85 ;&st7;  " d=" M  1206.80,   697.25  L  1206.80,   701.50  " /></g><g ewd:figtype="shsp" ewd:figID="246" ewd:code=" "><path style="stroke-width: 0.85 ;&st7;  " d=" M  1350.08,   272.74  L  1349.81,   273.21  L  1349.72,   273.74  L  1349.81,   274.27  L  1350.08,   274.74  L  1350.49,   275.09  L  1351.00,   275.28  L  1351.55,   275.28  L  1352.05,   275.09  L  1352.47,   274.74  L  1352.74,   274.27  L  1352.83,   273.74  L  1352.74,   273.21  L  1352.47,   272.74  L  1352.05,   272.39  L  1351.55,   272.20  L  1351.00,   272.20  L  1350.49,   272.39  L  1350.08,   272.74  L  1350.47,   273.45  L  1350.47,   274.03  L  1350.85,   274.48  L  1351.42,   274.58  L  1351.93,   274.29  L  1352.12,   273.74  L  1351.93,   273.19  L  1351.42,   272.90  L  1350.85,   273.00  L  1351.27,   273.74  " /></g><g ewd:figtype="shsp" ewd:figID="247" ewd:code=" "><path style="stroke-width: 0.85 ;&st7;  " d=" M  1350.08,   289.73  L  1349.81,   290.20  L  1349.72,   290.74  L  1349.81,   291.27  L  1350.08,   291.74  L  1350.49,   292.09  L  1351.00,   292.27  L  1351.55,   292.27  L  1352.05,   292.09  L  1352.47,   291.74  L  1352.74,   291.27  L  1352.83,   290.74  L  1352.74,   290.20  L  1352.47,   289.73  L  1352.05,   289.39  L  1351.55,   289.20  L  1351.00,   289.20  L  1350.49,   289.39  L  1350.08,   289.73  L  1350.47,   290.45  L  1350.47,   291.03  L  1350.85,   291.47  L  1351.42,   291.57  L  1351.93,   291.28  L  1352.12,   290.74  L  1351.93,   290.19  L  1351.42,   289.90  L  1350.85,   290.00  L  1351.27,   290.74  " /></g><g ewd:figtype="shsp" ewd:figID="245" ewd:code=" "><path style="stroke-width: 0.85 ;&st7;  " d=" M  1273.59,   272.74  L  1273.32,   273.21  L  1273.23,   273.74  L  1273.32,   274.27  L  1273.59,   274.74  L  1274.01,   275.09  L  1274.51,   275.28  L  1275.06,   275.28  L  1275.57,   275.09  L  1275.98,   274.74  L  1276.25,   274.27  L  1276.34,   273.74  L  1276.25,   273.21  L  1275.98,   272.74  L  1275.57,   272.39  L  1275.06,   272.20  L  1274.51,   272.20  L  1274.01,   272.39  L  1273.59,   272.74  L  1273.99,   273.45  L  1273.99,   274.03  L  1274.36,   274.48  L  1274.93,   274.58  L  1275.44,   274.29  L  1275.64,   273.74  L  1275.44,   273.19  L  1274.93,   272.90  L  1274.36,   273.00  L  1274.79,   273.74  " /></g><g ewd:figtype="shsp" ewd:figID="244" ewd:code=" "><path style="stroke-width: 0.85 ;&st7;  " d=" M  1273.59,   289.73  L  1273.32,   290.20  L  1273.23,   290.74  L  1273.32,   291.27  L  1273.59,   291.74  L  1274.01,   292.09  L  1274.51,   292.27  L  1275.06,   292.27  L  1275.57,   292.09  L  1275.98,   291.74  L  1276.25,   291.27  L  1276.34,   290.74  L  1276.25,   290.20  L  1275.98,   289.73  L  1275.57,   289.39  L  1275.06,   289.20  L  1274.51,   289.20  L  1274.01,   289.39  L  1273.59,   289.73  L  1273.99,   290.45  L  1273.99,   291.03  L  1274.36,   291.47  L  1274.93,   291.57  L  1275.44,   291.28  L  1275.64,   290.74  L  1275.44,   290.19  L  1274.93,   289.90  L  1274.36,   290.00  L  1274.79,   290.74  " /></g><g ewd:figtype="shsp" ewd:figID="255" ewd:code=" "><path style="stroke-width: 0.85 ;&st7;  " d=" M  1273.59,   340.73  L  1273.32,   341.20  L  1273.23,   341.73  L  1273.32,   342.26  L  1273.59,   342.73  L  1274.01,   343.08  L  1274.51,   343.26  L  1275.06,   343.26  L  1275.57,   343.08  L  1275.98,   342.73  L  1276.25,   342.26  L  1276.34,   341.73  L  1276.25,   341.20  L  1275.98,   340.73  L  1275.57,   340.38  L  1275.06,   340.19  L  1274.51,   340.19  L  1274.01,   340.38  L  1273.59,   340.73  L  1273.99,   341.44  L  1273.99,   342.02  L  1274.36,   342.46  L  1274.93,   342.56  L  1275.44,   342.28  L  1275.64,   341.73  L  1275.44,   341.18  L  1274.93,   340.89  L  1274.36,   340.99  L  1274.79,   341.73  " /></g><g ewd:figtype="shsp" ewd:figID="250" ewd:code=" "><path style="stroke-width: 0.85 ;&st7;  " d=" M  1273.59,   357.72  L  1273.32,   358.19  L  1273.23,   358.73  L  1273.32,   359.26  L  1273.59,   359.73  L  1274.01,   360.07  L  1274.51,   360.26  L  1275.06,   360.26  L  1275.57,   360.07  L  1275.98,   359.73  L  1276.25,   359.26  L  1276.34,   358.73  L  1276.25,   358.19  L  1275.98,   357.72  L  1275.57,   357.38  L  1275.06,   357.19  L  1274.51,   357.19  L  1274.01,   357.38  L  1273.59,   357.72  L  1273.99,   358.43  L  1273.99,   359.02  L  1274.36,   359.46  L  1274.93,   359.56  L  1275.44,   359.27  L  1275.64,   358.73  L  1275.44,   358.18  L  1274.93,   357.89  L  1274.36,   357.99  L  1274.79,   358.73  " /></g><g ewd:figtype="shsp" ewd:figID="248" ewd:code=" "><path style="stroke-width: 0.85 ;&st7;  " d=" M  1350.08,   340.73  L  1349.81,   341.20  L  1349.72,   341.73  L  1349.81,   342.26  L  1350.08,   342.73  L  1350.49,   343.08  L  1351.00,   343.26  L  1351.55,   343.26  L  1352.05,   343.08  L  1352.47,   342.73  L  1352.74,   342.26  L  1352.83,   341.73  L  1352.74,   341.20  L  1352.47,   340.73  L  1352.05,   340.38  L  1351.55,   340.19  L  1351.00,   340.19  L  1350.49,   340.38  L  1350.08,   340.73  L  1350.47,   341.44  L  1350.47,   342.02  L  1350.85,   342.46  L  1351.42,   342.56  L  1351.93,   342.28  L  1352.12,   341.73  L  1351.93,   341.18  L  1351.42,   340.89  L  1350.85,   340.99  L  1351.27,   341.73  " /></g><g ewd:figtype="shsp" ewd:figID="249" ewd:code=" "><path style="stroke-width: 0.85 ;&st7;  " d=" M  1350.08,   357.72  L  1349.81,   358.19  L  1349.72,   358.73  L  1349.81,   359.26  L  1350.08,   359.73  L  1350.49,   360.07  L  1351.00,   360.26  L  1351.55,   360.26  L  1352.05,   360.07  L  1352.47,   359.73  L  1352.74,   359.26  L  1352.83,   358.73  L  1352.74,   358.19  L  1352.47,   357.72  L  1352.05,   357.38  L  1351.55,   357.19  L  1351.00,   357.19  L  1350.49,   357.38  L  1350.08,   357.72  L  1350.47,   358.43  L  1350.47,   359.02  L  1350.85,   359.46  L  1351.42,   359.56  L  1351.93,   359.27  L  1352.12,   358.73  L  1351.93,   358.18  L  1351.42,   357.89  L  1350.85,   357.99  L  1351.27,   358.73  " /></g><g ewd:figtype="annex" ewd:figID="268" ewd:code=" "><path style="stroke-width: 1.42 ;&st7;   " d=" M  1351.27,   299.24  C  1349.06    297.41   1345.93    297.47   1343.79    299.38  " /><path style="stroke-width: 1.42 ;&st7;   " d=" M  1351.27,   299.24  C  1353.49    301.06   1356.62    301.00   1358.76    299.09  " /></g><g ewd:figtype="annex" ewd:figID="269" ewd:code=" "><path style="stroke-width: 1.42 ;&st7;   " d=" M  1351.27,   265.24  C  1349.06    263.42   1345.93    263.48   1343.79    265.38  " /><path style="stroke-width: 1.42 ;&st7;   " d=" M  1351.27,   265.24  C  1353.49    267.06   1356.62    267.00   1358.76    265.10  " /></g><g ewd:figtype="annex" ewd:figID="270" ewd:code=" "><path style="stroke-width: 1.42 ;&st7;   " d=" M  1274.79,   299.24  C  1272.58    297.41   1269.44    297.47   1267.30    299.38  " /><path style="stroke-width: 1.42 ;&st7;   " d=" M  1274.79,   299.24  C  1277.00    301.06   1280.13    301.00   1282.27    299.09  " /></g><g ewd:figtype="annex" ewd:figID="271" ewd:code=" "><path style="stroke-width: 1.42 ;&st7;   " d=" M  1274.79,   265.24  C  1272.58    263.42   1269.44    263.48   1267.30    265.38  " /><path style="stroke-width: 1.42 ;&st7;   " d=" M  1274.79,   265.24  C  1277.00    267.06   1280.13    267.00   1282.27    265.10  " /></g><g ewd:figtype="annex" ewd:figID="272" ewd:code=" "><path style="stroke-width: 1.42 ;&st7;   " d=" M  1351.27,   367.22  C  1349.06    365.40   1345.93    365.46   1343.79    367.37  " /><path style="stroke-width: 1.42 ;&st7;   " d=" M  1351.27,   367.22  C  1353.49    369.05   1356.62    368.99   1358.76    367.08  " /></g><g ewd:figtype="annex" ewd:figID="273" ewd:code=" "><path style="stroke-width: 1.42 ;&st7;   " d=" M  1351.27,   333.23  C  1349.06    331.41   1345.93    331.47   1343.79    333.37  " /><path style="stroke-width: 1.42 ;&st7;   " d=" M  1351.27,   333.23  C  1353.49    335.05   1356.62    334.99   1358.76    333.09  " /></g><g ewd:figtype="annex" ewd:figID="274" ewd:code=" "><path style="stroke-width: 1.42 ;&st7;   " d=" M  1274.79,   367.22  C  1272.58    365.40   1269.44    365.46   1267.30    367.37  " /><path style="stroke-width: 1.42 ;&st7;   " d=" M  1274.79,   367.22  C  1277.00    369.05   1280.13    368.99   1282.27    367.08  " /></g><g ewd:figtype="annex" ewd:figID="275" ewd:code=" "><path style="stroke-width: 1.42 ;&st7;   " d=" M  1274.79,   333.23  C  1272.58    331.41   1269.44    331.47   1267.30    333.37  " /><path style="stroke-width: 1.42 ;&st7;   " d=" M  1274.79,   333.23  C  1277.00    335.05   1280.13    334.99   1282.27    333.09  "/></g></svg>
