<?xml version="1.0" encoding="utf-8"?>
<!DOCTYPE svg PUBLIC "-//W3C//DTD SVG 1.0//EN" "http://www.w3.org/TR/2001/REC-SVG-20010904/DTD/svg10.dtd"[
	<!ENTITY ns_flows "http://ns.adobe.com/Flows/1.0/">
	<!ENTITY ns_svg "http://www.w3.org/2000/svg">
	<!ENTITY ns_xlink "http://www.w3.org/1999/xlink">
	<!ENTITY st0 "font-size:7px;font-family:'MS-PGothic';adobe-font-script:japanese;">
	<!ENTITY st1 "font-size:6px;font-family:'ArialMT';">
	<!-- White fill  -->
	<!ENTITY st2 "fill:#FFFFFF;stroke:#000000; stroke-width:1.41;stroke-linecap:round;stroke-linejoin:round;">
	<!-- Yellow fill  -->
	<!ENTITY st3 "fill:#FFFFCC;stroke:#FFFFCC; stroke-width:0.1;stroke-linecap:round;stroke-linejoin:round;">
	<!-- Gray fill  -->
	<!ENTITY st4 "fill:#CCCCCC;stroke:#CCCCCC; stroke-width:0.1;stroke-linecap:round;stroke-linejoin:round;">
	<!-- Light-blue fill -->
	<!ENTITY st5 "fill:#CCECF4;stroke:#000000; stroke-width:1.133;stroke-linecap:round;stroke-linejoin:round;">
	<!ENTITY st6 "fill:none;stroke-linecap:butt; stroke-linejoin:round;">
	<!ENTITY st7 "fill:none;stroke:#000000;stroke-linecap:round;stroke-linejoin:round;">
	<!ENTITY st8 "enable-background:new    ;">
	<!-- Black fill -->
	<!ENTITY st9 "fill:#000000;stroke:#000000; stroke-linecap:round;stroke-linejoin:round;">
	<!-- SRS note   -->
	<!ENTITY st10 "font-size:9px;font-family:'ArialMT';">
	<!ENTITY st11 "font-size:9px;font-family:'Svg Symbol';">
	<!ENTITY st12 "font-size:6px;font-family:'Svg Symbol';">
	<!ENTITY st13 "fill:none;stroke:#ff0000;stroke-linecap:round;stroke-linejoin:round;">
	<!-- Yellow fill  -->
	<!ENTITY st14 "fill:#FFFF00;stroke:#FFFF00; stroke-width:0.1;stroke-linecap:round;stroke-linejoin:round;">
	<!ENTITY st15 "font-size:6px;font-family:'MS-PGothic';adobe-font-script:japanese;">
	<!ENTITY st16 "1.00 0.00 0.00 1.00">
	<!ENTITY st17 "0.00 -1.00 1.00 0.00">
	<!ENTITY st18 "font-size:6px;font-family:'Arial';">
	<!ENTITY st19 "font-size:9px;font-family:'Arial';">
	<!ENTITY st20 "font-size:6px;font-family:'MS-PGothic','MS PGothic';adobe-font-script:japanese;">
	<!ENTITY st21 "font-size:7px;font-family:'MS-PGothic','MS PGothic';adobe-font-script:japanese;">
	<!ATTLIST svg
		xmlns:ewd CDATA #FIXED "http://shcl.co.jp/ewd"
		xmlns:a CDATA #FIXED "http://ns.adobe.com/AdobeSVGViewerExtensions/3.0/"
		ewd:ver CDATA #IMPLIED
	>
	<!ATTLIST a
		ewd:lineID CDATA #IMPLIED
		ewd:groupID CDATA #IMPLIED
		ewd:figtype CDATA #IMPLIED
		ewd:code CDATA #IMPLIED
		ewd:figID CDATA #IMPLIED
		ewd:pinNo CDATA #IMPLIED
		ewd:comment CDATA #IMPLIED >
	<!ATTLIST g
		ewd:lineID CDATA #IMPLIED
		ewd:groupID CDATA #IMPLIED
		ewd:figtype CDATA #IMPLIED
		ewd:code CDATA #IMPLIED
		ewd:figID CDATA #IMPLIED
		ewd:pinNo CDATA #IMPLIED
		ewd:comment CDATA #IMPLIED >
	<!ATTLIST text
		ewd:textID CDATA #IMPLIED >
	<!ATTLIST title
		ewd:textID CDATA #IMPLIED >
]>
<!-- Generator: Shintec Hozumi YS   -->
<svg onload="call_execInitLoadProc_svg('system')" style="overflow:visible;  enable-background:new 0 0 9310.735 710.000" viewBox="0 0 9310.735 710.000" height="710.000" width="9310.735" xml:space="preserve" ewd:ver="2.3.1.16" xmlns="&ns_svg;" xmlns:a="http://ns.adobe.com/AdobeSVGViewerExtensions/3.0/" xmlns:ewd="http://shcl.co.jp/ewd" xmlns:xlink="&ns_xlink;">
<text style="&st18;" transform="matrix(&st17;  4772.51  151.48 )">G-R</text><text style="&st18;" transform="matrix(&st16;  4798.29  237.47 )">ECM</text><text style="&st18;" transform="matrix(&st16;  4798.29  230.64 )">A29(A),C39(B),I84(C)</text><path style="stroke-width: 1.42 ;&st7;  " d=" M  4597.73,   426.71  L  4589.23,   426.71  " /><text style="&st18;" transform="matrix(&st17;  4639.36  366.46 )">(LHD)</text><text style="&st18;" transform="matrix(&st17;  4628.03  361.42 )">W</text><text style="&st18;" transform="matrix(&st17;  4585.54  467.65 )">W</text><text style="&st18;" transform="matrix(&st17;  4596.87  473.2 )">(RHD)</text><text style="&st18;" transform="matrix(&st17;  4551.54  467.65 )">W</text><text style="&st18;" transform="matrix(&st17;  4562.88  473.2 )">(RHD)</text><text style="&st18;" transform="matrix(&st17;  4503.39  472.7 )">(LHD)</text><text style="&st18;" transform="matrix(&st17;  4585.54  361.42 )">W</text><text style="&st18;" transform="matrix(&st17;  4596.87  366.97 )">(RHD)</text><text style="&st18;" transform="matrix(&st17;  4503.39  544.93 )">(LHD)</text><text style="&st18;" transform="matrix(&st17;  4817.83  159.31 )">(LHD *24)</text><text style="&st18;" transform="matrix(&st17;  4806.5  151.48 )">G-R</text><text style="&st18;" transform="matrix(&st17;  4551.54  100.49 )">G-R</text><text style="&st18;" transform="matrix(&st17;  4562.88  108.32 )">(LHD *24)</text><path style="stroke-width: 1.42 ;&st7;  " d=" M  4551.71,    27.28  L  4546.74,    32.25  " /><path style="stroke-width: 1.42 ;&st7;  " d=" M  4558.77,    44.28  L  4563.74,    39.31  " /><path style="stroke-width: 1.42 ;&st7;  " d=" M  4546.74,    39.31  L  4551.71,    44.28  " /><path style="stroke-width: 1.42 ;&st7;  " d=" M  4563.74,    32.25  L  4558.77,    27.28  " /><text style="&st18;" transform="matrix(&st17;  4783.84  154.5 )">(RHD)</text><path style="stroke-width: 1.42 ;&st7;  " d=" M  4767.70,   103.77  L  4776.20,   103.77  " /><text style="&st18;" transform="matrix(&st17;  4987.81  159.31 )">(LHD *16)</text><text style="&st18;" transform="matrix(&st17;  4976.47  148.03 )">B</text><text style="&st18;" transform="matrix(&st16;  4991.57  178.82 )">(RHD *16)</text><text style="&st18;" transform="matrix(&st17;  4899.98  71.54 )">B</text><text style="&st18;" transform="matrix(&st17;  4789.5  354.63 )">L-B</text><text style="&st18;" transform="matrix(&st17;  4755.51  354.63 )">L-B</text><text style="&st18;" transform="matrix(&st17;  4800.84  363.82 )">(RHD *12)</text><text style="&st18;" transform="matrix(&st17;  4766.84  368.63 )">(LHD *12 *24)</text><path style="stroke-width: 1.42 ;&st7;  " d=" M  4801.70,   384.22  L  4793.20,   384.22  " /><text style="&st18;" transform="matrix(&st17;  4789.5  439.62 )">L-B</text><text style="&st18;" transform="matrix(&st17;  4800.84  454.12 )">(RHD *12 *24)</text><text style="&st18;" transform="matrix(&st17;  4899.99  355.95 )">B-W</text><text style="&st18;" transform="matrix(&st17;  4865.99  355.95 )">B-W</text><text style="&st18;" transform="matrix(&st17;  4911.32  363.82 )">(RHD *12)</text><text style="&st18;" transform="matrix(&st17;  4877.33  368.63 )">(LHD *12 *24)</text><path style="stroke-width: 1.42 ;&st7;  " d=" M  4912.18,   384.22  L  4903.68,   384.22  " /><text style="&st18;" transform="matrix(&st17;  4899.99  440.93 )">B-W</text><text style="&st18;" transform="matrix(&st17;  4911.32  454.12 )">(RHD *12 *24)</text><text style="&st18;" transform="matrix(&st17;  4993.47  318.31 )">G</text><text style="&st18;" transform="matrix(&st17;  4993.47  462.78 )">G</text><text style="&st18;" transform="matrix(&st16;  4991.57  119.9 )">(RHD *16)</text><text style="&st18;" transform="matrix(&st17;  4911.32  76.0 )">(*16)</text><path style="stroke-width: 1.42 ;&st7;  " d=" M  5005.66,   435.21  L  4997.17,   435.21  " /><path style="stroke-width: 1.42 ;&st7;  " d=" M  4963.17,   350.23  L  4954.67,   350.23  " /><text style="&st18;" transform="matrix(&st17;  4950.98  318.31 )">G</text><text style="&st18;" transform="matrix(&st17;  4962.31  329.83 )">(RHD *15)</text><text style="&st18;" transform="matrix(&st17;  4950.98  386.3 )">G</text><text style="&st18;" transform="matrix(&st17;  4962.31  397.81 )">(RHD *15)</text><text style="&st18;" transform="matrix(&st16;  4622.99  660.98 )">B-R(*10 *20)</text><text style="&st18;" transform="matrix(&st16;  4673.98  660.98 )">B-R(*10 *20)</text><text style="&st18;" transform="matrix(&st16;  4676.97  609.99 )">R(*10 *21)</text><text style="&st18;" transform="matrix(&st16;  4625.98  609.99 )">R(*10 *21)</text><text style="&st18;" transform="matrix(&st16;  4683.99  15.09 )">R(LHD *25)</text><text style="&st18;" transform="matrix(&st16;  4616.01  15.09 )">R(LHD *25)</text><text style="&st18;" transform="matrix(&st16;  4680.66  32.08 )">G-R(LHD *24)</text><text style="&st18;" transform="matrix(&st16;  4612.67  32.08 )">G-R(LHD *24)</text><text style="&st18;" transform="matrix(&st16;  4683.45  49.08 )">R(RHD *25)</text><text style="&st18;" transform="matrix(&st16;  4615.46  49.08 )">R(RHD *25)</text><text style="&st18;" transform="matrix(&st16;  4680.16  66.08 )">G-R(RHD *24)</text><text style="&st18;" transform="matrix(&st16;  4612.17  66.08 )">G-R(RHD *24)</text><text style="&st18;" transform="matrix(&st16;  4518.68  168.06 )">G-R(RHD *24)</text><text style="&st18;" transform="matrix(&st17;  4832.0  148.18 )">R</text><text style="&st18;" transform="matrix(&st17;  4843.33  159.31 )">(LHD *25)</text><text style="&st18;" transform="matrix(&st16;  4521.98  185.06 )">R(RHD *25)</text><text style="&st18;" transform="matrix(&st17;  4815.0  439.46 )">GR</text><text style="&st18;" transform="matrix(&st17;  4826.33  454.12 )">(RHD *12 *25)</text><text style="&st18;" transform="matrix(&st17;  4925.48  436.98 )">V</text><text style="&st18;" transform="matrix(&st17;  4936.82  454.12 )">(RHD *12 *25)</text><text style="&st18;" transform="matrix(&st17;  4730.01  354.47 )">GR</text><text style="&st18;" transform="matrix(&st17;  4741.35  368.63 )">(LHD *12 *25)</text><text style="&st18;" transform="matrix(&st17;  4840.49  351.99 )">V</text><text style="&st18;" transform="matrix(&st17;  4851.83  368.63 )">(LHD *12 *25)</text><text style="&st18;" transform="matrix(&st17;  4526.05  97.19 )">R</text><text style="&st18;" transform="matrix(&st17;  4537.38  108.32 )">(LHD *25)</text><g ewd:figtype="conn" ewd:figID="62" ewd:code="I51"><path style="stroke-width: 1.42 ;&st7;  " d=" M  4886.68,   137.76  L  4920.68,   137.76  L  4920.68,   103.77  L  4886.68,   103.77  L  4886.68,   137.76  " /><text style="&st18;" transform="matrix(&st16;  4894.01  100.08 )">22</text><text style="&st18;" transform="matrix(&st16;  4894.47  111.4 )">GSW2</text><g ewd:figtype="title"><text style="&st18;" transform="matrix(&st16;  4883.28  152.48 )" ewd:textID="30">Airbag <tspan x="0 " dy="6.0">Sensor </tspan><tspan x="0 " dy="6.0">Assembly</tspan></text><text style="&st18;" transform="matrix(&st16;  4883.27  145.66 )">I51</text></g></g><g ewd:figtype="conn" ewd:figID="63" ewd:code="L30"><path style="stroke-width: 1.42 ;&st7;  " d=" M  4980.17,   528.70  L  5107.64,   528.70  L  5107.64,   494.70  L  4980.17,   494.70  L  4980.17,   528.70  " /><g ewd:lineID="291"><text style="&st18;" transform="matrix(&st16;  4987.49  491.01 )">12</text><text style="&st18;" transform="matrix(&st16;  4991.45  502.34 )">EFII</text></g><g ewd:figtype="title"><text style="&st18;" transform="matrix(&st16;  4976.76  536.59 )">L30</text><text style="&st18;" transform="matrix(&st16;  4976.76  543.41 )" ewd:textID="102">Transponder Key ECU Assembly</text></g></g><g ewd:figtype="conn" ewd:figID="65" ewd:code="I98,I99"><path style="stroke-width: 1.42 ;&st7;  " d=" M  4971.67,    86.77  L  4988.66,    86.77  L  4988.66,    69.77  L  4971.67,    69.77  L  4971.67,    86.77  " /><path style="stroke-width: 0.85 ;&st7;  " d=" M  4980.17,    86.77  L  4980.17,    69.77  " /><text style="&st18;" transform="matrix(&st16;  4970.69  93.27 )">8</text><text style="&st18;" transform="matrix(&st16;  4977.9  93.27 )">B</text><path style="stroke-width: 1.42 ;&st7;   " d=" M  4984.70,    91.30  C  4984.70     88.80   4982.67     86.77   4980.17     86.77  " /><path style="stroke-width: 1.42 ;&st7;   " d=" M  4980.17,    86.77  C  4977.66     86.77   4975.64     88.80   4975.64     91.30  " /><path style="stroke-width: 1.42 ;&st7;   " d=" M  4975.64,    91.30  C  4975.64     93.81   4977.66     95.84   4980.17     95.84  " /><path style="stroke-width: 1.42 ;&st7;   " d=" M  4980.17,    95.84  C  4982.67     95.84   4984.70     93.81   4984.70     91.30  " /><text style="&st18;" transform="matrix(&st16;  4967.35  67.21 )">11</text><text style="&st18;" transform="matrix(&st16;  4977.9  67.21 )">A</text><path style="stroke-width: 1.42 ;&st7;   " d=" M  4984.70,    65.24  C  4984.70     62.74   4982.67     60.71   4980.17     60.71  " /><path style="stroke-width: 1.42 ;&st7;   " d=" M  4980.17,    60.71  C  4977.66     60.71   4975.64     62.74   4975.64     65.24  " /><path style="stroke-width: 1.42 ;&st7;   " d=" M  4975.64,    65.24  C  4975.64     67.74   4977.66     69.77   4980.17     69.77  " /><path style="stroke-width: 1.42 ;&st7;   " d=" M  4980.17,    69.77  C  4982.67     69.77   4984.70     67.74   4984.70     65.24  " /><g ewd:figtype="title"><text style="&st18;" transform="matrix(&st17;  5003.38  89.68 )" ewd:textID="81">No. 17 <tspan x="0 " dy="6.0">Junction </tspan><tspan x="0 " dy="6.0">Connector</tspan></text><text style="&st18;" transform="matrix(&st17;  4996.56  89.67 )">I98(A),I99(B)</text></g></g><g ewd:figtype="conn" ewd:figID="66" ewd:code="I106"><path style="stroke-width: 1.42 ;&st7;  " d=" M  4589.23,   146.26  L  4606.23,   146.26  L  4606.23,   129.26  L  4589.23,   129.26  L  4589.23,   146.26  " /><path style="stroke-width: 0.85 ;&st7;  " d=" M  4597.73,   146.26  L  4597.73,   129.26  " /><text style="&st18;" transform="matrix(&st16;  4588.25  152.76 )">8</text><text style="&st18;" transform="matrix(&st16;  4595.47  152.76 )">B</text><path style="stroke-width: 1.42 ;&st7;   " d=" M  4602.26,   150.79  C  4602.26    148.29   4600.24    146.26   4597.73    146.26  " /><path style="stroke-width: 1.42 ;&st7;   " d=" M  4597.73,   146.26  C  4595.23    146.26   4593.20    148.29   4593.20    150.79  " /><path style="stroke-width: 1.42 ;&st7;   " d=" M  4593.20,   150.79  C  4593.20    153.30   4595.23    155.33   4597.73    155.33  " /><path style="stroke-width: 1.42 ;&st7;   " d=" M  4597.73,   155.33  C  4600.24    155.33   4602.26    153.30   4602.26    150.79  " /><text style="&st18;" transform="matrix(&st16;  4584.92  126.7 )">10</text><text style="&st18;" transform="matrix(&st16;  4595.47  126.7 )">B</text><path style="stroke-width: 1.42 ;&st7;   " d=" M  4602.26,   124.73  C  4602.26    122.23   4600.24    120.20   4597.73    120.20  " /><path style="stroke-width: 1.42 ;&st7;   " d=" M  4597.73,   120.20  C  4595.23    120.20   4593.20    122.23   4593.20    124.73  " /><path style="stroke-width: 1.42 ;&st7;   " d=" M  4593.20,   124.73  C  4593.20    127.23   4595.23    129.26   4597.73    129.26  " /><path style="stroke-width: 1.42 ;&st7;   " d=" M  4597.73,   129.26  C  4600.24    129.26   4602.26    127.23   4602.26    124.73  " /><g ewd:figtype="title"><text style="&st18;" transform="matrix(&st17;  4620.95  149.17 )" ewd:textID="71">No. 9 <tspan x="0 " dy="6.0">Junction </tspan><tspan x="0 " dy="6.0">Connector</tspan></text><text style="&st18;" transform="matrix(&st17;  4614.12  149.16 )">I106(B)</text></g></g><g ewd:figtype="conn" ewd:figID="67" ewd:code="I108"><path style="stroke-width: 1.42 ;&st7;  " d=" M  4546.74,   494.70  L  4546.74,   511.70  L  4597.73,   511.70  L  4597.73,   494.70  L  4546.74,   494.70  " /><path style="stroke-width: 0.85 ;&st7;  " d=" M  4555.24,   494.70  L  4555.24,   503.20  L  4589.23,   503.20  L  4589.23,   494.70  " /><text style="&st18;" transform="matrix(&st16;  4542.42  492.14 )">10</text><text style="&st18;" transform="matrix(&st16;  4552.97  492.14 )">A</text><path style="stroke-width: 1.42 ;&st7;   " d=" M  4559.77,   490.17  C  4559.77    487.67   4557.74    485.64   4555.24    485.64  " /><path style="stroke-width: 1.42 ;&st7;   " d=" M  4555.24,   485.64  C  4552.74    485.64   4550.71    487.67   4550.71    490.17  " /><path style="stroke-width: 1.42 ;&st7;   " d=" M  4550.71,   490.17  C  4550.71    492.67   4552.74    494.70   4555.24    494.70  " /><path style="stroke-width: 1.42 ;&st7;   " d=" M  4555.24,   494.70  C  4557.74    494.70   4559.77    492.67   4559.77    490.17  " /><text style="&st18;" transform="matrix(&st16;  4579.75  492.14 )">9</text><text style="&st18;" transform="matrix(&st16;  4586.97  492.14 )">A</text><path style="stroke-width: 1.42 ;&st7;   " d=" M  4593.77,   490.17  C  4593.77    487.67   4591.74    485.64   4589.23    485.64  " /><path style="stroke-width: 1.42 ;&st7;   " d=" M  4589.23,   485.64  C  4586.73    485.64   4584.70    487.67   4584.70    490.17  " /><path style="stroke-width: 1.42 ;&st7;   " d=" M  4584.70,   490.17  C  4584.70    492.67   4586.73    494.70   4589.23    494.70  " /><path style="stroke-width: 1.42 ;&st7;   " d=" M  4589.23,   494.70  C  4591.74    494.70   4593.77    492.67   4593.77    490.17  " /><g ewd:figtype="title"><text style="&st18;" transform="matrix(&st17;  4605.63  514.6 )">I108(A)</text><text style="&st18;" transform="matrix(&st17;  4612.45  514.61 )" ewd:textID="79">No. 13 Junction <tspan x="0 " dy="6.0">Connector</tspan></text></g></g><g ewd:figtype="conn" ewd:figID="83" ewd:code="I88"><path style="stroke-width: 1.42 ;&st7;  " d=" M  4776.20,   520.20  L  4920.68,   520.20  L  4920.68,   486.20  L  4776.20,   486.20  L  4776.20,   520.20  " /><g ewd:lineID="274,275,277,278"><text style="&st18;" transform="matrix(&st16;  4786.86  482.51 )">6</text><text style="&st18;" transform="matrix(&st16;  4786.9  493.84 )">ACT</text></g><g ewd:lineID="281,282,283,284"><text style="&st18;" transform="matrix(&st16;  4897.34  482.51 )">1</text><text style="&st18;" transform="matrix(&st16;  4897.62  493.84 )">AC1</text></g><g ewd:figtype="title"><text style="&st18;" transform="matrix(&st16;  4772.79  528.09 )">I88</text><text style="&st18;" transform="matrix(&st16;  4772.8  534.92 )" ewd:textID="39">Cooler Stabilizer Amplifier Assembly</text></g></g><g ewd:figtype="conn" ewd:figID="84" ewd:code="A29,C39,I84"><path style="stroke-width: 0.85 ;&st7; stroke-dasharray:3, 1.5;" d=" M  4988.66,   192.15  L  5090.65,   192.15  " /><path style="stroke-width: 0.85 ;&st7; stroke-dasharray:3, 1.5;" d=" M  4988.66,   201.22  L  5090.65,   201.22  " /><path style="stroke-width: 0.85 ;&st7; stroke-dasharray:3, 1.5;" d=" M  4852.69,   270.34  L  4767.70,   270.34  " /><path style="stroke-width: 0.85 ;&st7; stroke-dasharray:3, 1.5;" d=" M  4852.69,   261.28  L  4767.70,   261.28  " /><path style="stroke-width: 0.85 ;&st7; stroke-dasharray:3, 1.5;" d=" M  4980.17,   270.34  L  4878.18,   270.34  " /><path style="stroke-width: 0.85 ;&st7; stroke-dasharray:3, 1.5;" d=" M  4878.18,   261.28  L  4980.17,   261.28  " /><g ewd:lineID="264,271"><text style="&st18;" transform="matrix(&st16;  4576.42  263.24 )">36</text><text style="&st18;" transform="matrix(&st16;  4576.42  272.31 )">36</text><text style="&st18;" transform="matrix(&st16;  4586.97  272.31 )">A</text><text style="&st18;" transform="matrix(&st16;  4586.81  263.24 )">C</text><path style="stroke-width: 1.42 ;&st7;   " d=" M  4593.77,   261.27  C  4593.77    258.77   4591.74    256.74   4589.23    256.74  " /><path style="stroke-width: 1.42 ;&st7;   " d=" M  4589.23,   256.74  C  4586.73    256.74   4584.70    258.77   4584.70    261.27  " /><path style="stroke-width: 1.42 ;&st7;   " d=" M  4584.70,   261.27  C  4584.70    263.78   4586.73    265.81   4589.23    265.81  " /><path style="stroke-width: 1.42 ;&st7;   " d=" M  4589.23,   265.81  C  4591.74    265.81   4593.77    263.78   4593.77    261.27  " /><path style="stroke-width: 1.42 ;&st7;   " d=" M  4593.77,   270.34  C  4593.77    267.84   4591.74    265.81   4589.23    265.81  " /><path style="stroke-width: 1.42 ;&st7;   " d=" M  4589.23,   265.81  C  4586.73    265.81   4584.70    267.84   4584.70    270.34  " /><path style="stroke-width: 1.42 ;&st7;   " d=" M  4584.70,   270.34  C  4584.70    272.84   4586.73    274.87   4589.23    274.87  " /><path style="stroke-width: 1.42 ;&st7;   " d=" M  4589.23,   274.87  C  4591.74    274.87   4593.77    272.84   4593.77    270.34  " /><text style="&st18;" transform="matrix(&st16;  4583.13  253.05 )">STP</text><g ewd:code="" ewd:figID="385" ewd:comment="" ewd:figtype="commref"><text style="&st18;" transform="matrix(&st16;  4594.33  272.31 )">(RHD)</text></g><g ewd:code="" ewd:figID="386" ewd:comment="" ewd:figtype="commref"><text style="&st18;" transform="matrix(&st16;  4594.33  263.24 )">(LHD)</text></g></g><g ewd:lineID="269,276,280"><text style="&st18;" transform="matrix(&st16;  4797.38  194.12 )">31</text><text style="&st18;" transform="matrix(&st16;  4797.38  203.19 )">31</text><path style="stroke-width: 1.42 ;&st7;   " d=" M  4814.73,   192.15  C  4814.73    189.65   4812.70    187.62   4810.20    187.62  " /><path style="stroke-width: 1.42 ;&st7;   " d=" M  4810.20,   187.62  C  4807.69    187.62   4805.66    189.65   4805.66    192.15  " /><path style="stroke-width: 1.42 ;&st7;   " d=" M  4805.66,   192.15  C  4805.66    194.66   4807.69    196.69   4810.20    196.69  " /><path style="stroke-width: 1.42 ;&st7;   " d=" M  4810.20,   196.69  C  4812.70    196.69   4814.73    194.66   4814.73    192.15  " /><text style="&st18;" transform="matrix(&st16;  4807.78  194.12 )">C</text><text style="&st18;" transform="matrix(&st16;  4807.93  203.19 )">A</text><path style="stroke-width: 1.42 ;&st7;   " d=" M  4814.73,   201.22  C  4814.73    198.72   4812.70    196.69   4810.20    196.69  " /><path style="stroke-width: 1.42 ;&st7;   " d=" M  4810.20,   196.69  C  4807.69    196.69   4805.66    198.72   4805.66    201.22  " /><path style="stroke-width: 1.42 ;&st7;   " d=" M  4805.66,   201.22  C  4805.66    203.72   4807.69    205.75   4810.20    205.75  " /><path style="stroke-width: 1.42 ;&st7;   " d=" M  4810.20,   205.75  C  4812.70    205.75   4814.73    203.72   4814.73    201.22  " /><text style="&st18;" transform="matrix(&st16;  4802.62  213.39 )">ELS1</text><g ewd:code="" ewd:figID="357" ewd:comment="" ewd:figtype="commref"><text style="&st18;" transform="matrix(&st16;  4815.29  203.19 )">(RHD)</text></g><g ewd:code="" ewd:figID="358" ewd:comment="" ewd:figtype="commref"><text style="&st18;" transform="matrix(&st16;  4815.29  194.12 )">(LHD)</text></g></g><g ewd:lineID="274,275,279"><text style="&st18;" transform="matrix(&st16;  4746.39  263.24 )">18</text><text style="&st18;" transform="matrix(&st16;  4746.39  272.31 )">18</text><text style="&st18;" transform="matrix(&st16;  4756.94  272.31 )">A</text><path style="stroke-width: 1.42 ;&st7;   " d=" M  4763.74,   261.27  C  4763.74    258.77   4761.71    256.74   4759.20    256.74  " /><path style="stroke-width: 1.42 ;&st7;   " d=" M  4759.20,   256.74  C  4756.70    256.74   4754.67    258.77   4754.67    261.27  " /><path style="stroke-width: 1.42 ;&st7;   " d=" M  4754.67,   261.27  C  4754.67    263.78   4756.70    265.81   4759.20    265.81  " /><path style="stroke-width: 1.42 ;&st7;   " d=" M  4759.20,   265.81  C  4761.71    265.81   4763.74    263.78   4763.74    261.27  " /><path style="stroke-width: 1.42 ;&st7;   " d=" M  4763.74,   270.34  C  4763.74    267.84   4761.71    265.81   4759.20    265.81  " /><path style="stroke-width: 1.42 ;&st7;   " d=" M  4759.20,   265.81  C  4756.70    265.81   4754.67    267.84   4754.67    270.34  " /><path style="stroke-width: 1.42 ;&st7;   " d=" M  4754.67,   270.34  C  4754.67    272.84   4756.70    274.87   4759.20    274.87  " /><path style="stroke-width: 1.42 ;&st7;   " d=" M  4759.20,   274.87  C  4761.71    274.87   4763.74    272.84   4763.74    270.34  " /><text style="&st18;" transform="matrix(&st16;  4756.78  263.24 )">C</text><text style="&st18;" transform="matrix(&st16;  4752.91  253.05 )">ACT</text></g><g ewd:lineID="281,282,285"><text style="&st18;" transform="matrix(&st16;  4856.87  272.31 )">30</text><text style="&st18;" transform="matrix(&st16;  4856.87  263.24 )">30</text><path style="stroke-width: 1.42 ;&st7;   " d=" M  4874.22,   270.34  C  4874.22    267.84   4872.19    265.81   4869.69    265.81  " /><path style="stroke-width: 1.42 ;&st7;   " d=" M  4869.69,   265.81  C  4867.18    265.81   4865.15    267.84   4865.15    270.34  " /><path style="stroke-width: 1.42 ;&st7;   " d=" M  4865.15,   270.34  C  4865.15    272.84   4867.18    274.87   4869.69    274.87  " /><path style="stroke-width: 1.42 ;&st7;   " d=" M  4869.69,   274.87  C  4872.19    274.87   4874.22    272.84   4874.22    270.34  " /><path style="stroke-width: 1.42 ;&st7;   " d=" M  4874.22,   261.27  C  4874.22    258.77   4872.19    256.74   4869.69    256.74  " /><path style="stroke-width: 1.42 ;&st7;   " d=" M  4869.69,   256.74  C  4867.18    256.74   4865.15    258.77   4865.15    261.27  " /><path style="stroke-width: 1.42 ;&st7;   " d=" M  4865.15,   261.27  C  4865.15    263.78   4867.18    265.81   4869.69    265.81  " /><path style="stroke-width: 1.42 ;&st7;   " d=" M  4869.69,   265.81  C  4872.19    265.81   4874.22    263.78   4874.22    261.27  " /><text style="&st18;" transform="matrix(&st16;  4867.42  272.31 )">A</text><text style="&st18;" transform="matrix(&st16;  4867.27  263.24 )">C</text><text style="&st18;" transform="matrix(&st16;  4863.62  253.05 )">AC1</text></g><g ewd:lineID="287,292"><text style="&st18;" transform="matrix(&st16;  4984.35  272.31 )">10</text><text style="&st18;" transform="matrix(&st16;  4984.35  263.24 )">10</text><path style="stroke-width: 1.42 ;&st7;   " d=" M  4997.17,   256.74  C  4994.66    256.74   4992.63    258.77   4992.63    261.27  " /><path style="stroke-width: 1.42 ;&st7;   " d=" M  4992.63,   261.27  C  4992.63    263.78   4994.66    265.81   4997.17    265.81  " /><path style="stroke-width: 1.42 ;&st7;   " d=" M  4997.17,   265.81  C  4999.67    265.81   5001.70    263.78   5001.70    261.27  " /><path style="stroke-width: 1.42 ;&st7;   " d=" M  4997.17,   265.81  C  4994.66    265.81   4992.63    267.84   4992.63    270.34  " /><path style="stroke-width: 1.42 ;&st7;   " d=" M  4992.63,   270.34  C  4992.63    272.84   4994.66    274.87   4997.17    274.87  " /><path style="stroke-width: 1.42 ;&st7;   " d=" M  4997.17,   274.87  C  4999.67    274.87   5001.70    272.84   5001.70    270.34  " /><text style="&st18;" transform="matrix(&st16;  4994.9  272.31 )">A</text><text style="&st18;" transform="matrix(&st16;  4994.74  263.24 )">C</text><text style="&st18;" transform="matrix(&st16;  4991.29  253.05 )">IMO</text></g><g ewd:lineID="288,293"><text style="&st18;" transform="matrix(&st16;  4970.69  203.19 )">6</text><text style="&st18;" transform="matrix(&st16;  4970.69  194.12 )">6</text><path style="stroke-width: 1.42 ;&st7;   " d=" M  4984.70,   192.15  C  4984.70    189.65   4982.67    187.62   4980.17    187.62  " /><path style="stroke-width: 1.42 ;&st7;   " d=" M  4980.17,   187.62  C  4977.66    187.62   4975.64    189.65   4975.64    192.15  " /><path style="stroke-width: 1.42 ;&st7;   " d=" M  4975.64,   192.15  C  4975.64    194.66   4977.66    196.69   4980.17    196.69  " /><path style="stroke-width: 1.42 ;&st7;   " d=" M  4980.17,   196.69  C  4982.67    196.69   4984.70    194.66   4984.70    192.15  " /><path style="stroke-width: 1.42 ;&st7;   " d=" M  4984.70,   201.22  C  4984.70    198.72   4982.67    196.69   4980.17    196.69  " /><path style="stroke-width: 1.42 ;&st7;   " d=" M  4980.17,   196.69  C  4977.66    196.69   4975.64    198.72   4975.64    201.22  " /><path style="stroke-width: 1.42 ;&st7;   " d=" M  4975.64,   201.22  C  4975.64    203.72   4977.66    205.75   4980.17    205.75  " /><path style="stroke-width: 1.42 ;&st7;   " d=" M  4980.17,   205.75  C  4982.67    205.75   4984.70    203.72   4984.70    201.22  " /><text style="&st18;" transform="matrix(&st16;  4977.75  194.12 )">C</text><text style="&st18;" transform="matrix(&st16;  4977.9  203.19 )">A</text><text style="&st18;" transform="matrix(&st16;  4973.25  213.39 )">F/PS</text></g></g><g ewd:figtype="w2w" ewd:figID="174" ewd:code="AI3"><path style="stroke-width: 1.42 ;&st7;  " d=" M  4593.48,   432.38  L  4589.23,   428.13  L  4584.98,   432.38  " /><path style="stroke-width: 1.42 ;&st7;  " d=" M  4593.48,   435.78  L  4589.23,   431.53  L  4584.98,   435.78  " /><text style="&st18;" transform="matrix(&st16;  4572.48  424.43 )">10</text></g><g ewd:figtype="w2w" ewd:figID="175" ewd:code="AI3"><path style="stroke-width: 1.42 ;&st7;  " d=" M  4771.95,    94.70  L  4776.20,    98.95  L  4780.45,    94.70  " /><path style="stroke-width: 1.42 ;&st7;  " d=" M  4780.45,    98.10  L  4776.20,   102.35  L  4771.95,    98.10  " /><text style="&st18;" transform="matrix(&st16;  4759.45  109.99 )">39</text></g><g ewd:figtype="w2w" ewd:figID="176" ewd:code="AI3"><path style="stroke-width: 1.42 ;&st7;  " d=" M  4797.45,   393.29  L  4793.20,   389.04  L  4788.95,   393.29  " /><path style="stroke-width: 1.42 ;&st7;  " d=" M  4797.45,   389.89  L  4793.20,   385.64  L  4788.95,   389.89  " /><text style="&st18;" transform="matrix(&st16;  4779.78  381.94 )">8</text></g><g ewd:figtype="w2w" ewd:figID="177" ewd:code="AI3"><path style="stroke-width: 1.42 ;&st7;  " d=" M  4907.93,   393.29  L  4903.68,   389.04  L  4899.43,   393.29  " /><path style="stroke-width: 1.42 ;&st7;  " d=" M  4907.93,   389.89  L  4903.68,   385.64  L  4899.43,   389.89  " /><text style="&st18;" transform="matrix(&st16;  4886.93  381.94 )">60</text></g><g ewd:figtype="w2w" ewd:figID="178" ewd:code="AI3"><path style="stroke-width: 1.42 ;&st7;  " d=" M  4958.92,   359.29  L  4954.67,   355.04  L  4950.42,   359.29  " /><path style="stroke-width: 1.42 ;&st7;  " d=" M  4958.92,   355.89  L  4954.67,   351.64  L  4950.42,   355.89  " /><text style="&st18;" transform="matrix(&st16;  4937.92  347.95 )">55</text></g><g ewd:figtype="w2w" ewd:figID="179" ewd:code="IL5"><path style="stroke-width: 1.42 ;&st7;  " d=" M  5001.41,   440.88  L  4997.16,   436.63  L  4992.91,   440.88  " /><path style="stroke-width: 1.42 ;&st7;  " d=" M  5001.41,   444.28  L  4997.16,   440.03  L  4992.91,   444.28  "/><text style="&st18;" transform="matrix(&st16;  4980.41  432.93 )">42</text></g><g ewd:figtype="w2w" ewd:figID="180" ewd:code="IL1"><text style="&st18;" transform="matrix(&st16;  4980.41  424.43 )">19</text></g></svg>
