<?xml version="1.0" encoding="utf-8"?>
<!DOCTYPE svg PUBLIC "-//W3C//DTD SVG 1.0//EN" "http://www.w3.org/TR/2001/REC-SVG-20010904/DTD/svg10.dtd"[
	<!ENTITY ns_flows "http://ns.adobe.com/Flows/1.0/">
	<!ENTITY ns_svg "http://www.w3.org/2000/svg">
	<!ENTITY ns_xlink "http://www.w3.org/1999/xlink">
	<!ENTITY st0 "font-size:7px;font-family:'MS-PGothic';adobe-font-script:japanese;">
	<!ENTITY st1 "font-size:6px;font-family:'ArialMT';">
	<!-- White fill  -->
	<!ENTITY st2 "fill:#FFFFFF;stroke:#000000; stroke-width:1.41;stroke-linecap:round;stroke-linejoin:round;">
	<!-- Yellow fill  -->
	<!ENTITY st3 "fill:#FFFFCC;stroke:#FFFFCC; stroke-width:0.1;stroke-linecap:round;stroke-linejoin:round;">
	<!-- Gray fill  -->
	<!ENTITY st4 "fill:#CCCCCC;stroke:#CCCCCC; stroke-width:0.1;stroke-linecap:round;stroke-linejoin:round;">
	<!-- Light-blue fill -->
	<!ENTITY st5 "fill:#CCECF4;stroke:#000000; stroke-width:1.133;stroke-linecap:round;stroke-linejoin:round;">
	<!ENTITY st6 "fill:none;stroke-linecap:butt; stroke-linejoin:round;">
	<!ENTITY st7 "fill:none;stroke:#000000;stroke-linecap:round;stroke-linejoin:round;">
	<!ENTITY st8 "enable-background:new    ;">
	<!-- Black fill -->
	<!ENTITY st9 "fill:#000000;stroke:#000000; stroke-linecap:round;stroke-linejoin:round;">
	<!-- SRS note   -->
	<!ENTITY st10 "font-size:9px;font-family:'ArialMT';">
	<!ENTITY st11 "font-size:9px;font-family:'Svg Symbol';">
	<!ENTITY st12 "font-size:6px;font-family:'Svg Symbol';">
	<!ENTITY st13 "fill:none;stroke:#ff0000;stroke-linecap:round;stroke-linejoin:round;">
	<!-- Yellow fill  -->
	<!ENTITY st14 "fill:#FFFF00;stroke:#FFFF00; stroke-width:0.1;stroke-linecap:round;stroke-linejoin:round;">
	<!ENTITY st15 "font-size:6px;font-family:'MS-PGothic';adobe-font-script:japanese;">
	<!ENTITY st16 "1.00 0.00 0.00 1.00">
	<!ENTITY st17 "0.00 -1.00 1.00 0.00">
	<!ENTITY st18 "font-size:6px;font-family:'Arial';">
	<!ENTITY st19 "font-size:9px;font-family:'Arial';">
	<!ENTITY st20 "font-size:6px;font-family:'MS-PGothic','MS PGothic';adobe-font-script:japanese;">
	<!ENTITY st21 "font-size:7px;font-family:'MS-PGothic','MS PGothic';adobe-font-script:japanese;">
	<!ATTLIST svg
		xmlns:ewd CDATA #FIXED "http://shcl.co.jp/ewd"
		xmlns:a CDATA #FIXED "http://ns.adobe.com/AdobeSVGViewerExtensions/3.0/"
		ewd:ver CDATA #IMPLIED
	>
	<!ATTLIST a
		ewd:lineID CDATA #IMPLIED
		ewd:groupID CDATA #IMPLIED
		ewd:figtype CDATA #IMPLIED
		ewd:code CDATA #IMPLIED
		ewd:figID CDATA #IMPLIED
		ewd:pinNo CDATA #IMPLIED
		ewd:comment CDATA #IMPLIED >
	<!ATTLIST g
		ewd:lineID CDATA #IMPLIED
		ewd:groupID CDATA #IMPLIED
		ewd:figtype CDATA #IMPLIED
		ewd:code CDATA #IMPLIED
		ewd:figID CDATA #IMPLIED
		ewd:pinNo CDATA #IMPLIED
		ewd:comment CDATA #IMPLIED >
	<!ATTLIST text
		ewd:textID CDATA #IMPLIED >
	<!ATTLIST title
		ewd:textID CDATA #IMPLIED >
]>
<!-- Generator: Shintec Hozumi YS   -->
<svg onload="call_execInitLoadProc_svg('system')" style="overflow:visible;  enable-background:new 0 0 6732.746 710.000" viewBox="0 0 6732.746 710.000" height="710.000" width="6732.746" xml:space="preserve" ewd:ver="2.3.1.16" xmlns="&ns_svg;" xmlns:a="http://ns.adobe.com/AdobeSVGViewerExtensions/3.0/" xmlns:ewd="http://shcl.co.jp/ewd" xmlns:xlink="&ns_xlink;">
<path style="stroke-width: 1.42 ;&st7;  " d=" M  4980.17,   511.70  L  4971.67,   511.70  " /><path style="stroke-width: 1.42 ;&st7;  " d=" M  4963.17,   341.73  L  4971.67,   341.73  " /><path style="stroke-width: 1.42 ;&st7;  " d=" M  4920.68,   350.23  L  4912.18,   350.23  " /><path style="stroke-width: 1.42 ;&st7;  " d=" M  4920.68,   409.72  L  4912.18,   409.72  " /><text style="&st18;" transform="matrix(&st17;  4908.48  317.61 )">L</text><text style="&st18;" transform="matrix(&st16;  4999.44  660.98 )">W-B</text><text style="&st18;" transform="matrix(&st17;  4602.54  219.4 )">B-W</text><text style="&st18;" transform="matrix(&st17;  4840.5  223.41 )">R-B</text><text style="&st18;" transform="matrix(&st17;  4942.48  216.17 )">R</text><text style="&st18;" transform="matrix(&st17;  4798.0  337.17 )">BR</text><text style="&st18;" transform="matrix(&st17;  4755.51  466.43 )">W-B</text><text style="&st18;" transform="matrix(&st17;  4755.51  338.95 )">W-B</text><text style="&st18;" transform="matrix(&st17;  4721.51  464.65 )">BR</text><text style="&st18;" transform="matrix(&st17;  4721.51  337.17 )">BR</text><text style="&st18;" transform="matrix(&st17;  4721.51  566.63 )">BR</text><text style="&st18;" transform="matrix(&st17;  4568.54  335.0 )">B</text><text style="&st18;" transform="matrix(&st17;  4526.05  335.93 )">W</text><text style="&st18;" transform="matrix(&st17;  4967.97  321.57 )">L-W</text><text style="&st18;" transform="matrix(&st17;  4967.97  661.9 )">W-B</text><text style="&st18;" transform="matrix(&st17;  4967.97  538.67 )">W-B</text><text style="&st18;" transform="matrix(&st17;  4967.97  453.68 )">W-B</text><text style="&st18;" transform="matrix(&st17;  4967.97  372.56 )">L-W</text><text style="&st18;" transform="matrix(&st17;  4594.04  464.65 )">BR</text><text style="&st18;" transform="matrix(&st17;  4755.51  568.41 )">W-B</text><text style="&st18;" transform="matrix(&st17;  4967.97  496.17 )">W-B</text><text style="&st18;" transform="matrix(&st17;  4908.48  377.1 )">L</text><text style="&st18;" transform="matrix(&st17;  4908.48  445.09 )">L</text><text style="&st18;" transform="matrix(&st17;  4908.48  538.67 )">W-B</text><text style="&st18;" transform="matrix(&st17;  4908.48  581.16 )">W-B</text><text style="&st18;" transform="matrix(&st17;  4908.48  661.9 )">W-B</text><path style="stroke-width: 1.42 ;&st7;  " d=" M  4733.71,   508.17  L  4728.74,   503.20  " /><path style="stroke-width: 1.42 ;&st7;  " d=" M  4716.71,   515.23  L  4721.68,   520.20  " /><path style="stroke-width: 1.42 ;&st7;  " d=" M  4728.74,   520.20  L  4733.71,   515.23  " /><path style="stroke-width: 1.42 ;&st7;  " d=" M  4721.68,   503.20  L  4716.71,   508.17  " /><path style="stroke-width: 1.42 ;&st7;  " d=" M  4606.23,   346.70  L  4601.26,   341.73  " /><path style="stroke-width: 1.42 ;&st7;  " d=" M  4589.23,   353.76  L  4594.20,   358.73  " /><path style="stroke-width: 1.42 ;&st7;  " d=" M  4601.26,   358.73  L  4606.23,   353.76  " /><path style="stroke-width: 1.42 ;&st7;  " d=" M  4594.20,   341.73  L  4589.23,   346.70  " /><path style="stroke-width: 1.42 ;&st7;  " d=" M  4597.73,   188.75  L  4606.23,   188.75  " /><text style="&st18;" transform="matrix(&st17;  4560.04  194.48 )">B-W</text><text style="&st18;" transform="matrix(&st17;  4500.55  134.99 )">B-W</text><path style="stroke-width: 1.42 ;&st7;  " d=" M  4767.70,   508.17  L  4762.73,   503.20  " /><path style="stroke-width: 1.42 ;&st7;  " d=" M  4750.71,   515.23  L  4755.68,   520.20  " /><path style="stroke-width: 1.42 ;&st7;  " d=" M  4762.73,   520.20  L  4767.70,   515.23  " /><path style="stroke-width: 1.42 ;&st7;  " d=" M  4755.68,   503.20  L  4750.71,   508.17  " /><path style="stroke-width: 1.42 ;&st7;  " d=" M  4835.69,    68.64  L  4844.19,    68.64  " /><path style="stroke-width: 1.42 ;&st7;  " d=" M  4852.69,   193.73  L  4847.72,   188.75  " /><path style="stroke-width: 1.42 ;&st7;  " d=" M  4835.69,   200.78  L  4840.66,   205.75  " /><path style="stroke-width: 1.42 ;&st7;  " d=" M  4847.72,   205.75  L  4852.69,   200.78  " /><path style="stroke-width: 1.42 ;&st7;  " d=" M  4840.66,   188.75  L  4835.69,   193.73  " /><text style="&st18;" transform="matrix(&st17;  4781.0  117.89 )">L</text><text style="&st18;" transform="matrix(&st17;  4840.5  176.66 )">R-B</text><text style="&st18;" transform="matrix(&st17;  4840.49  45.66 )">L</text><text style="&st18;" transform="matrix(&st17;  4704.52  194.38 )">L</text><text style="&st18;" transform="matrix(&st17;  4704.52  126.39 )">L</text><path style="stroke-width: 1.42 ;&st7;  " d=" M  4793.20,    78.27  L  4784.70,    78.27  " /><path style="stroke-width: 1.42 ;&st7;  " d=" M  4920.68,   550.67  L  4915.71,   545.69  " /><path style="stroke-width: 1.42 ;&st7;  " d=" M  4903.68,   557.72  L  4908.65,   562.69  " /><path style="stroke-width: 1.42 ;&st7;  " d=" M  4915.71,   562.69  L  4920.68,   557.72  " /><path style="stroke-width: 1.42 ;&st7;  " d=" M  4908.65,   545.69  L  4903.68,   550.67  " /><path style="stroke-width: 1.42 ;&st7;  " d=" M  4980.17,   465.68  L  4975.20,   460.71  " /><path style="stroke-width: 1.42 ;&st7;  " d=" M  4963.17,   472.74  L  4968.14,   477.71  " /><path style="stroke-width: 1.42 ;&st7;  " d=" M  4975.20,   477.71  L  4980.17,   472.74  " /><path style="stroke-width: 1.42 ;&st7;  " d=" M  4968.14,   460.71  L  4963.17,   465.68  " /><text style="&st18;" transform="matrix(&st16;  4686.78  525.0 )">BR</text><text style="&st18;" transform="matrix(&st16;  4635.79  525.0 )">BR</text><text style="&st18;" transform="matrix(&st16;  4635.79  508.0 )">BR</text><text style="&st18;" transform="matrix(&st16;  4686.78  508.0 )">BR</text><text style="&st18;" transform="matrix(&st16;  4883.28  271.46 )">ECM</text><text style="&st18;" transform="matrix(&st16;  4883.27  264.64 )">A29(A),C39(B)</text><text style="&st18;" transform="matrix(&st17;  4840.49  92.4 )">L</text><text style="&st18;" transform="matrix(&st17;  4919.82  448.27 )">(*3)</text><text style="&st18;" transform="matrix(&st17;  4919.82  537.5 )">(*3)</text><text style="&st18;" transform="matrix(&st17;  4840.49  445.09 )">L</text><text style="&st18;" transform="matrix(&st17;  4840.5  538.67 )">W-B</text><text style="&st18;" transform="matrix(&st17;  4851.83  448.27 )">(*4)</text><text style="&st18;" transform="matrix(&st17;  4851.83  537.5 )">(*4)</text><g ewd:figtype="rb" ewd:figID="3" ewd:code="FUSE26"><path style="stroke-width: 1.42 ;&st7;  " d=" M  4710.34,    95.27  L  4706.09,    95.27  " /><path style="stroke-width: 1.42 ;&st7;  " d=" M  4710.34,   103.77  L  4706.09,   103.77  " /><path style="stroke-width: 0.85 ;&st7;  " d=" M  4708.21,    78.27  L  4708.21,    95.27  " /><path style="stroke-width: 1.42 ;&st7;   " d=" M  4706.09,    95.27  C  4703.74     95.27   4701.84     97.17   4701.84     99.52  " /><path style="stroke-width: 1.42 ;&st7;   " d=" M  4701.84,    99.52  C  4701.84    101.87   4703.74    103.77   4706.09    103.77  " /><path style="stroke-width: 1.42 ;&st7;   " d=" M  4710.34,   103.77  C  4712.68    103.77   4714.59    101.87   4714.59     99.52  " /><path style="stroke-width: 1.42 ;&st7;   " d=" M  4714.59,    99.52  C  4714.59     97.17   4712.68     95.27   4710.34     95.27  " /><path style="stroke-width: 0.28 ;&st9;  " d=" M  4708.21,    90.37  L  4705.38,    87.54  L  4705.38,    91.79  L  4708.21,    94.62  L  4711.04,    91.79  L  4711.04,    87.54  L  4708.21,    90.37  " /><text style="&st18;" transform="matrix(&st16;  4724.64  56.17 )">15A <tspan x="0 " dy="6.0">GAUGE</tspan></text><text style="&st18;" transform="matrix(&st16;  4706.34  101.49 )">2</text><text style="&st18;" transform="matrix(&st16;  4701.87  86.47 )">2</text><text style="&st18;" transform="matrix(&st16;  4702.85  32.08 )">(IG)</text><path style="stroke-width: 0.85 ;&st7;  " d=" M  4708.21,    69.77  L  4708.21,    78.27  " /><path style="stroke-width: 1.42 ;&st7;   " d=" M  4708.21,    47.11  C  4705.48     48.72   4704.56     52.25   4706.18     54.99  " /><path style="stroke-width: 1.42 ;&st7;   " d=" M  4706.18,    54.99  C  4706.70     55.87   4707.33     56.51   4708.21     57.03  " /><path style="stroke-width: 1.42 ;&st7;   " d=" M  4708.21,    66.94  C  4710.95     65.33   4711.86     61.80   4710.25     59.06  " /><path style="stroke-width: 1.42 ;&st7;   " d=" M  4710.25,    59.06  C  4709.73     58.18   4709.10     57.55   4708.21     57.03  " /><path style="stroke-width: 0.85 ;&st7;   " d=" M  4709.63,    45.69  C  4709.63     44.91   4709.00     44.28   4708.21     44.28  " /><path style="stroke-width: 0.85 ;&st7;   " d=" M  4708.21,    44.28  C  4707.43     44.28   4706.80     44.91   4706.80     45.69  " /><path style="stroke-width: 0.85 ;&st7;   " d=" M  4706.80,    45.69  C  4706.80     46.48   4707.43     47.11   4708.21     47.11  " /><path style="stroke-width: 0.85 ;&st7;   " d=" M  4708.21,    47.11  C  4709.00     47.11   4709.63     46.48   4709.63     45.69  " /><path style="stroke-width: 0.85 ;&st7;   " d=" M  4709.63,    68.36  C  4709.63     67.57   4709.00     66.94   4708.21     66.94  " /><path style="stroke-width: 0.85 ;&st7;   " d=" M  4708.21,    66.94  C  4707.43     66.94   4706.80     67.57   4706.80     68.36  " /><path style="stroke-width: 0.85 ;&st7;   " d=" M  4706.80,    68.36  C  4706.80     69.14   4707.43     69.77   4708.21     69.77  " /><path style="stroke-width: 0.85 ;&st7;   " d=" M  4708.21,    69.77  C  4709.00     69.77   4709.63     69.14   4709.63     68.36  " /><path style="stroke-width: 1.42 ;&st7;  " d=" M  4695.46,    35.78  L  4695.46,    78.27  L  4720.96,    78.27  L  4720.96,    35.78  L  4695.46,    35.78  " /></g><g ewd:figtype="conn" ewd:figID="4" ewd:code="I107"><path style="stroke-width: 0.85 ;&st7;  " d=" M  4784.70,   154.76  L  4784.70,   171.76  " /><path style="stroke-width: 1.42 ;&st7;  " d=" M  4776.20,   154.76  L  4793.20,   154.76  L  4793.20,   171.76  L  4776.20,   171.76  L  4776.20,   154.76  " /><text style="&st18;" transform="matrix(&st16;  4775.22  178.26 )">5</text><text style="&st18;" transform="matrix(&st16;  4782.43  178.26 )">B</text><path style="stroke-width: 1.42 ;&st7;   " d=" M  4789.23,   176.29  C  4789.23    173.79   4787.20    171.76   4784.70    171.76  " /><path style="stroke-width: 1.42 ;&st7;   " d=" M  4784.70,   171.76  C  4782.20    171.76   4780.17    173.79   4780.17    176.29  " /><path style="stroke-width: 1.42 ;&st7;   " d=" M  4780.17,   176.29  C  4780.17    178.79   4782.20    180.82   4784.70    180.82  " /><path style="stroke-width: 1.42 ;&st7;   " d=" M  4784.70,   180.82  C  4787.20    180.82   4789.23    178.79   4789.23    176.29  " /><text style="&st18;" transform="matrix(&st16;  4775.22  152.2 )">4</text><text style="&st18;" transform="matrix(&st16;  4782.43  152.2 )">B</text><path style="stroke-width: 1.42 ;&st7;   " d=" M  4789.23,   150.23  C  4789.23    147.72   4787.20    145.69   4784.70    145.69  " /><path style="stroke-width: 1.42 ;&st7;   " d=" M  4784.70,   145.69  C  4782.20    145.69   4780.17    147.72   4780.17    150.23  " /><path style="stroke-width: 1.42 ;&st7;   " d=" M  4780.17,   150.23  C  4780.17    152.73   4782.20    154.76   4784.70    154.76  " /><path style="stroke-width: 1.42 ;&st7;   " d=" M  4784.70,   154.76  C  4787.20    154.76   4789.23    152.73   4789.23    150.23  " /><g ewd:figtype="title"><text style="&st18;" transform="matrix(&st17;  4801.09  174.66 )">I107(B)</text><text style="&st18;" transform="matrix(&st17;  4807.92  174.66 )" ewd:textID="72">No. 12 <tspan x="0 " dy="6.0">Junction </tspan><tspan x="0 " dy="6.0">Connector</tspan></text></g></g><g ewd:figtype="conn" ewd:figID="5" ewd:code="I105"><path style="stroke-width: 0.85 ;&st7;  " d=" M  4708.21,   154.76  L  4708.21,   171.76  " /><path style="stroke-width: 1.42 ;&st7;  " d=" M  4699.71,   154.76  L  4716.71,   154.76  L  4716.71,   171.76  L  4699.71,   171.76  L  4699.71,   154.76  " /><text style="&st18;" transform="matrix(&st16;  4698.73  178.26 )">8</text><text style="&st18;" transform="matrix(&st16;  4705.95  178.26 )">A</text><path style="stroke-width: 1.42 ;&st7;   " d=" M  4712.75,   176.29  C  4712.75    173.79   4710.72    171.76   4708.21    171.76  " /><path style="stroke-width: 1.42 ;&st7;   " d=" M  4708.21,   171.76  C  4705.71    171.76   4703.68    173.79   4703.68    176.29  " /><path style="stroke-width: 1.42 ;&st7;   " d=" M  4703.68,   176.29  C  4703.68    178.79   4705.71    180.82   4708.21    180.82  " /><path style="stroke-width: 1.42 ;&st7;   " d=" M  4708.21,   180.82  C  4710.72    180.82   4712.75    178.79   4712.75    176.29  " /><text style="&st18;" transform="matrix(&st16;  4698.73  152.2 )">1</text><text style="&st18;" transform="matrix(&st16;  4705.95  152.2 )">A</text><path style="stroke-width: 1.42 ;&st7;   " d=" M  4712.75,   150.23  C  4712.75    147.72   4710.72    145.69   4708.21    145.69  " /><path style="stroke-width: 1.42 ;&st7;   " d=" M  4708.21,   145.69  C  4705.71    145.69   4703.68    147.72   4703.68    150.23  " /><path style="stroke-width: 1.42 ;&st7;   " d=" M  4703.68,   150.23  C  4703.68    152.73   4705.71    154.76   4708.21    154.76  " /><path style="stroke-width: 1.42 ;&st7;   " d=" M  4708.21,   154.76  C  4710.72    154.76   4712.75    152.73   4712.75    150.23  " /><g ewd:figtype="title"><text style="&st18;" transform="matrix(&st17;  4731.43  174.66 )" ewd:textID="68">No. 8 <tspan x="0 " dy="6.0">Junction </tspan><tspan x="0 " dy="6.0">Connector</tspan></text><text style="&st18;" transform="matrix(&st17;  4724.61  174.66 )">I105(A)</text></g></g><g ewd:figtype="conn" ewd:figID="6" ewd:code="C32"><path style="stroke-width: 1.42 ;&st7;  " d=" M  4844.19,   139.18  L  4849.86,   116.52  " /><path style="stroke-width: 0.85 ;&st7;  " d=" M  4844.19,   146.26  L  4844.19,   142.01  " /><path style="stroke-width: 0.85 ;&st7;  " d=" M  4844.19,   116.52  L  4844.19,   112.27  " /><path style="stroke-width: 0.85 ;&st7;   " d=" M  4845.61,   117.93  C  4845.61    117.15   4844.97    116.52   4844.19    116.52  " /><path style="stroke-width: 0.85 ;&st7;   " d=" M  4844.19,   116.52  C  4843.41    116.52   4842.77    117.15   4842.77    117.93  " /><path style="stroke-width: 0.85 ;&st7;   " d=" M  4842.77,   117.93  C  4842.77    118.71   4843.41    119.35   4844.19    119.35  " /><path style="stroke-width: 0.85 ;&st7;   " d=" M  4844.19,   119.35  C  4844.97    119.35   4845.61    118.71   4845.61    117.93  " /><path style="stroke-width: 0.85 ;&st7;   " d=" M  4845.61,   140.60  C  4845.61    139.81   4844.97    139.18   4844.19    139.18  " /><path style="stroke-width: 0.85 ;&st7;   " d=" M  4844.19,   139.18  C  4843.41    139.18   4842.77    139.81   4842.77    140.60  " /><path style="stroke-width: 0.85 ;&st7;   " d=" M  4842.77,   140.60  C  4842.77    141.38   4843.41    142.01   4844.19    142.01  " /><path style="stroke-width: 0.85 ;&st7;   " d=" M  4844.19,   142.01  C  4844.97    142.01   4845.61    141.38   4845.61    140.60  " /><path style="stroke-width: 1.42 ;&st7;  " d=" M  4852.69,   146.26  L  4852.69,   112.27  L  4835.69,   112.27  L  4835.69,   146.26  L  4852.69,   146.26  " /><text style="&st18;" transform="matrix(&st16;  4837.85  154.45 )">1</text><text style="&st18;" transform="matrix(&st16;  4837.85  108.58 )">2</text><g ewd:figtype="title"><text style="&st18;" transform="matrix(&st17;  4860.58  149.16 )">C32</text><text style="&st18;" transform="matrix(&st17;  4867.41  149.17 )" ewd:textID="12">Back-Up Light <tspan x="0 " dy="6.0">Switch Assembly</tspan></text></g></g><g ewd:figtype="conn" ewd:figID="39" ewd:code="C44"><path style="stroke-width: 1.42 ;&st7;  " d=" M  4929.17,   171.76  L  4963.17,   171.76  L  4963.17,   137.76  L  4929.17,   137.76  L  4929.17,   171.76  " /><text style="&st18;" transform="matrix(&st16;  4936.69  178.26 )">3</text><path style="stroke-width: 1.42 ;&st7;   " d=" M  4950.71,   176.29  C  4950.71    173.79   4948.68    171.76   4946.17    171.76  " /><path style="stroke-width: 1.42 ;&st7;   " d=" M  4946.17,   171.76  C  4943.67    171.76   4941.64    173.79   4941.64    176.29  " /><path style="stroke-width: 1.42 ;&st7;   " d=" M  4941.64,   176.29  C  4941.64    178.79   4943.67    180.82   4946.17    180.82  " /><path style="stroke-width: 1.42 ;&st7;   " d=" M  4946.17,   180.82  C  4948.68    180.82   4950.71    178.79   4950.71    176.29  " /><text style="&st18;" transform="matrix(&st16;  4943.91  178.26 )">B</text><text style="&st18;" transform="matrix(&st16;  4943.44  168.06 )">M</text><g ewd:figtype="title"><text style="&st18;" transform="matrix(&st16;  4925.76  127.24 )">C44(B)</text><text style="&st18;" transform="matrix(&st16;  4925.77  134.07 )" ewd:textID="39">Generator Assembly</text></g></g><g ewd:figtype="conn" ewd:figID="41" ewd:code="L48"><path style="stroke-width: 1.42 ;&st7;  " d=" M  4895.18,   511.70  L  4929.17,   511.70  L  4929.17,   477.71  L  4895.18,   477.71  L  4895.18,   511.70  " /><g ewd:lineID="238"><text style="&st18;" transform="matrix(&st16;  4905.84  519.89 )">4</text><text style="&st18;" transform="matrix(&st16;  4909.91  508.0 )">E</text></g><g ewd:lineID="240"><text style="&st18;" transform="matrix(&st16;  4905.84  474.02 )">3</text><text style="&st18;" transform="matrix(&st16;  4909.91  485.34 )">B</text></g><g ewd:figtype="title"><text style="&st18;" transform="matrix(&st17;  4943.89  514.61 )" ewd:textID="23">DPF Switch Assembly <tspan x="0 " dy="6.0">(DPR Switch Assembly)</tspan></text><text style="&st18;" transform="matrix(&st17;  4937.07  514.6 )">L48</text></g></g><g ewd:figtype="conn" ewd:figID="44" ewd:code="C78"><path style="stroke-width: 0.85 ;&st7;  " d=" M  4971.67,   396.97  L  4971.67,   392.72  " /><path style="stroke-width: 0.85 ;&st7;  " d=" M  4971.67,   426.71  L  4971.67,   422.46  " /><path style="stroke-width: 1.42 ;&st7;  " d=" M  4971.67,   419.63  L  4977.34,   396.97  " /><path style="stroke-width: 0.85 ;&st7;   " d=" M  4973.09,   398.39  C  4973.09    397.60   4972.45    396.97   4971.67    396.97  " /><path style="stroke-width: 0.85 ;&st7;   " d=" M  4971.67,   396.97  C  4970.89    396.97   4970.25    397.60   4970.25    398.39  " /><path style="stroke-width: 0.85 ;&st7;   " d=" M  4970.25,   398.39  C  4970.25    399.17   4970.89    399.80   4971.67    399.80  " /><path style="stroke-width: 0.85 ;&st7;   " d=" M  4971.67,   399.80  C  4972.45    399.80   4973.09    399.17   4973.09    398.39  " /><path style="stroke-width: 0.85 ;&st7;   " d=" M  4973.09,   421.05  C  4973.09    420.27   4972.45    419.63   4971.67    419.63  " /><path style="stroke-width: 0.85 ;&st7;   " d=" M  4971.67,   419.63  C  4970.89    419.63   4970.25    420.27   4970.25    421.05  " /><path style="stroke-width: 0.85 ;&st7;   " d=" M  4970.25,   421.05  C  4970.25    421.83   4970.89    422.46   4971.67    422.46  " /><path style="stroke-width: 0.85 ;&st7;   " d=" M  4971.67,   422.46  C  4972.45    422.46   4973.09    421.83   4973.09    421.05  " /><path style="stroke-width: 1.42 ;&st7;  " d=" M  4963.17,   392.72  L  4980.17,   392.72  L  4980.17,   426.71  L  4963.17,   426.71  L  4963.17,   392.72  " /><text style="&st18;" transform="matrix(&st16;  4965.33  434.91 )">1</text><text style="&st18;" transform="matrix(&st16;  4965.33  389.03 )">2</text><g ewd:figtype="title"><text style="&st18;" transform="matrix(&st17;  4994.89  429.62 )" ewd:textID="80">Shift Position Switch</text><text style="&st18;" transform="matrix(&st17;  4988.06  429.61 )">C78</text></g></g><g ewd:figtype="conn" ewd:figID="47" ewd:code="C102,C103"><path style="stroke-width: 1.42 ;&st7;  " d=" M  4716.71,   409.72  L  4767.70,   409.72  L  4767.70,   392.72  L  4716.71,   392.72  L  4716.71,   409.72  " /><path style="stroke-width: 1.42 ;&st7;  " d=" M  4716.71,   401.22  L  4767.70,   401.22  " /><text style="&st18;" transform="matrix(&st16;  4715.73  416.22 )">4</text><text style="&st18;" transform="matrix(&st16;  4722.94  416.22 )">B</text><path style="stroke-width: 1.42 ;&st7;   " d=" M  4729.74,   414.25  C  4729.74    411.75   4727.71    409.72   4725.21    409.72  " /><path style="stroke-width: 1.42 ;&st7;   " d=" M  4725.21,   409.72  C  4722.71    409.72   4720.68    411.75   4720.68    414.25  " /><path style="stroke-width: 1.42 ;&st7;   " d=" M  4720.68,   414.25  C  4720.68    416.75   4722.71    418.78   4725.21    418.78  " /><path style="stroke-width: 1.42 ;&st7;   " d=" M  4725.21,   418.78  C  4727.71    418.78   4729.74    416.75   4729.74    414.25  " /><text style="&st18;" transform="matrix(&st16;  4715.73  390.16 )">4</text><path style="stroke-width: 1.42 ;&st7;   " d=" M  4729.74,   388.19  C  4729.74    385.68   4727.71    383.65   4725.21    383.65  " /><path style="stroke-width: 1.42 ;&st7;   " d=" M  4725.21,   383.65  C  4722.71    383.65   4720.68    385.68   4720.68    388.19  " /><path style="stroke-width: 1.42 ;&st7;   " d=" M  4720.68,   388.19  C  4720.68    390.69   4722.71    392.72   4725.21    392.72  " /><path style="stroke-width: 1.42 ;&st7;   " d=" M  4725.21,   392.72  C  4727.71    392.72   4729.74    390.69   4729.74    388.19  " /><text style="&st18;" transform="matrix(&st16;  4722.94  390.16 )">A</text><text style="&st18;" transform="matrix(&st16;  4749.72  416.22 )">1</text><text style="&st18;" transform="matrix(&st16;  4756.94  416.22 )">B</text><path style="stroke-width: 1.42 ;&st7;   " d=" M  4763.74,   414.25  C  4763.74    411.75   4761.71    409.72   4759.20    409.72  " /><path style="stroke-width: 1.42 ;&st7;   " d=" M  4759.20,   409.72  C  4756.70    409.72   4754.67    411.75   4754.67    414.25  " /><path style="stroke-width: 1.42 ;&st7;   " d=" M  4754.67,   414.25  C  4754.67    416.75   4756.70    418.78   4759.20    418.78  " /><path style="stroke-width: 1.42 ;&st7;   " d=" M  4759.20,   418.78  C  4761.71    418.78   4763.74    416.75   4763.74    414.25  " /><text style="&st18;" transform="matrix(&st16;  4749.72  390.16 )">1</text><path style="stroke-width: 1.42 ;&st7;   " d=" M  4763.74,   388.19  C  4763.74    385.68   4761.71    383.65   4759.20    383.65  " /><path style="stroke-width: 1.42 ;&st7;   " d=" M  4759.20,   383.65  C  4756.70    383.65   4754.67    385.68   4754.67    388.19  " /><path style="stroke-width: 1.42 ;&st7;   " d=" M  4754.67,   388.19  C  4754.67    390.69   4756.70    392.72   4759.20    392.72  " /><path style="stroke-width: 1.42 ;&st7;   " d=" M  4759.20,   392.72  C  4761.71    392.72   4763.74    390.69   4763.74    388.19  " /><text style="&st18;" transform="matrix(&st16;  4756.94  390.16 )">A</text><g ewd:figtype="title"><text style="&st18;" transform="matrix(&st17;  4782.42  412.62 )" ewd:textID="81">Short Connector</text><text style="&st18;" transform="matrix(&st17;  4775.6  412.62 )">C102(A),C103(B)</text></g></g><g ewd:figtype="conn" ewd:figID="48" ewd:code="C68"><path style="stroke-width: 1.42 ;&st7;  " d=" M  4521.24,   401.22  L  4521.24,   409.72  " /><path style="stroke-width: 1.42 ;&st7;  " d=" M  4538.24,   401.22  L  4538.24,   409.72  " /><path style="stroke-width: 1.42 ;&st7;  " d=" M  4521.24,   418.22  L  4521.24,   409.72  " /><path style="stroke-width: 1.42 ;&st7;  " d=" M  4538.24,   418.22  L  4538.24,   409.72  " /><path style="stroke-width: 0.85 ;&st7;  " d=" M  4529.74,   392.72  L  4529.74,   401.22  " /><path style="stroke-width: 0.85 ;&st7;  " d=" M  4529.74,   418.22  L  4529.74,   426.71  " /><path style="stroke-width: 1.42 ;&st7;   " d=" M  4538.24,   401.22  C  4538.24    396.52   4534.44    392.72   4529.74    392.72  " /><path style="stroke-width: 1.42 ;&st7;   " d=" M  4529.74,   392.72  C  4525.05    392.72   4521.24    396.52   4521.24    401.22  " /><path style="stroke-width: 1.42 ;&st7;   " d=" M  4521.24,   418.22  C  4521.24    422.91   4525.05    426.71   4529.74    426.71  " /><path style="stroke-width: 1.42 ;&st7;   " d=" M  4529.74,   426.71  C  4534.44    426.71   4538.24    422.91   4538.24    418.22  " /><path style="stroke-width: 0.85 ;&st7;   " d=" M  4527.21,   407.24  C  4528.58    408.64   4530.82    408.66   4532.22    407.29  " /><path style="stroke-width: 0.85 ;&st7;   " d=" M  4532.22,   407.29  C  4533.62    405.92   4533.64    403.68   4532.27    402.28  " /><path style="stroke-width: 0.85 ;&st7;   " d=" M  4532.27,   402.28  C  4531.58    401.57   4530.73    401.22   4529.74    401.22  " /><path style="stroke-width: 0.85 ;&st7;   " d=" M  4527.21,   412.20  C  4528.58    413.59   4530.82    413.62   4532.22    412.25  " /><path style="stroke-width: 0.85 ;&st7;   " d=" M  4532.22,   412.25  C  4533.62    410.88   4533.64    408.64   4532.27    407.24  " /><path style="stroke-width: 0.85 ;&st7;   " d=" M  4532.27,   407.24  C  4530.90    405.84   4528.66    405.82   4527.26    407.19  " /><path style="stroke-width: 0.85 ;&st7;   " d=" M  4527.26,   407.19  C  4527.25    407.20   4527.23    407.22   4527.21    407.24  " /><path style="stroke-width: 0.85 ;&st7;   " d=" M  4529.74,   418.22  C  4531.70    418.22   4533.28    416.63   4533.28    414.67  " /><path style="stroke-width: 0.85 ;&st7;   " d=" M  4533.28,   414.67  C  4533.28    412.72   4531.70    411.13   4529.74    411.13  " /><path style="stroke-width: 0.85 ;&st7;   " d=" M  4529.74,   411.13  C  4528.75    411.13   4527.91    411.49   4527.21    412.20  " /><text style="&st18;" transform="matrix(&st16;  4523.4  434.91 )">2</text><text style="&st18;" transform="matrix(&st16;  4523.4  389.03 )">1</text><g ewd:figtype="title"><text style="&st18;" transform="matrix(&st17;  4552.96  429.62 )" ewd:textID="14">Cam Position <tspan x="0 " dy="6.0">Sensor</tspan></text><text style="&st18;" transform="matrix(&st17;  4546.14  429.61 )">C68</text></g></g><g ewd:figtype="conn" ewd:figID="52" ewd:code="A29,C39"><g ewd:lineID="217"><text style="&st18;" transform="matrix(&st16;  4559.42  297.24 )">79</text><path style="stroke-width: 1.42 ;&st7;   " d=" M  4576.77,   295.27  C  4576.77    292.77   4574.74    290.74   4572.24    290.74  " /><path style="stroke-width: 1.42 ;&st7;   " d=" M  4572.24,   290.74  C  4569.73    290.74   4567.70    292.77   4567.70    295.27  " /><path style="stroke-width: 1.42 ;&st7;   " d=" M  4567.70,   295.27  C  4567.70    297.77   4569.73    299.80   4572.24    299.80  " /><path style="stroke-width: 1.42 ;&st7;   " d=" M  4572.24,   299.80  C  4574.74    299.80   4576.77    297.77   4576.77    295.27  " /><text style="&st18;" transform="matrix(&st16;  4569.97  297.24 )">B</text><text style="&st18;" transform="matrix(&st16;  4568.69  287.04 )">G-</text></g><g ewd:lineID="218"><text style="&st18;" transform="matrix(&st16;  4516.93  297.24 )">80</text><path style="stroke-width: 1.42 ;&st7;   " d=" M  4534.28,   295.27  C  4534.28    292.77   4532.25    290.74   4529.74    290.74  " /><path style="stroke-width: 1.42 ;&st7;   " d=" M  4529.74,   290.74  C  4527.24    290.74   4525.21    292.77   4525.21    295.27  " /><path style="stroke-width: 1.42 ;&st7;   " d=" M  4525.21,   295.27  C  4525.21    297.77   4527.24    299.80   4529.74    299.80  " /><path style="stroke-width: 1.42 ;&st7;   " d=" M  4529.74,   299.80  C  4532.25    299.80   4534.28    297.77   4534.28    295.27  " /><text style="&st18;" transform="matrix(&st16;  4527.48  297.24 )">B</text><text style="&st18;" transform="matrix(&st16;  4525.42  287.04 )">G+</text></g><g ewd:lineID="219"><text style="&st18;" transform="matrix(&st16;  4593.42  237.18 )">48</text><text style="&st18;" transform="matrix(&st16;  4603.96  237.18 )">A</text><path style="stroke-width: 1.42 ;&st7;   " d=" M  4610.76,   235.21  C  4610.76    232.71   4608.73    230.68   4606.23    230.68  " /><path style="stroke-width: 1.42 ;&st7;   " d=" M  4606.23,   230.68  C  4603.73    230.68   4601.70    232.71   4601.70    235.21  " /><path style="stroke-width: 1.42 ;&st7;   " d=" M  4601.70,   235.21  C  4601.70    237.72   4603.73    239.75   4606.23    239.75  " /><path style="stroke-width: 1.42 ;&st7;   " d=" M  4606.23,   239.75  C  4608.73    239.75   4610.76    237.72   4610.76    235.21  " /><text style="&st18;" transform="matrix(&st16;  4600.13  247.38 )">STA</text></g><g ewd:lineID="225"><text style="&st18;" transform="matrix(&st16;  4712.4  297.24 )">81</text><path style="stroke-width: 1.42 ;&st7;   " d=" M  4729.74,   295.27  C  4729.74    292.77   4727.71    290.74   4725.21    290.74  " /><path style="stroke-width: 1.42 ;&st7;   " d=" M  4725.21,   290.74  C  4722.71    290.74   4720.68    292.77   4720.68    295.27  " /><path style="stroke-width: 1.42 ;&st7;   " d=" M  4720.68,   295.27  C  4720.68    297.77   4722.71    299.80   4725.21    299.80  " /><path style="stroke-width: 1.42 ;&st7;   " d=" M  4725.21,   299.80  C  4727.71    299.80   4729.74    297.77   4729.74    295.27  " /><text style="&st18;" transform="matrix(&st16;  4722.94  297.24 )">B</text><text style="&st18;" transform="matrix(&st16;  4721.32  287.04 )">E1</text></g><g ewd:lineID="228"><text style="&st18;" transform="matrix(&st16;  4746.39  297.24 )">22</text><text style="&st18;" transform="matrix(&st16;  4756.94  297.24 )">B</text><path style="stroke-width: 1.42 ;&st7;   " d=" M  4763.74,   295.27  C  4763.74    292.77   4761.71    290.74   4759.20    290.74  " /><path style="stroke-width: 1.42 ;&st7;   " d=" M  4759.20,   290.74  C  4756.70    290.74   4754.67    292.77   4754.67    295.27  " /><path style="stroke-width: 1.42 ;&st7;   " d=" M  4754.67,   295.27  C  4754.67    297.77   4756.70    299.80   4759.20    299.80  " /><path style="stroke-width: 1.42 ;&st7;   " d=" M  4759.20,   299.80  C  4761.71    299.80   4763.74    297.77   4763.74    295.27  " /><text style="&st18;" transform="matrix(&st16;  4753.64  287.04 )">E01</text></g><g ewd:lineID="230"><text style="&st18;" transform="matrix(&st16;  4788.88  297.24 )">23</text><path style="stroke-width: 1.42 ;&st7;   " d=" M  4806.23,   295.27  C  4806.23    292.77   4804.20    290.74   4801.70    290.74  " /><path style="stroke-width: 1.42 ;&st7;   " d=" M  4801.70,   290.74  C  4799.19    290.74   4797.17    292.77   4797.17    295.27  " /><path style="stroke-width: 1.42 ;&st7;   " d=" M  4797.17,   295.27  C  4797.17    297.77   4799.19    299.80   4801.70    299.80  " /><path style="stroke-width: 1.42 ;&st7;   " d=" M  4801.70,   299.80  C  4804.20    299.80   4806.23    297.77   4806.23    295.27  " /><text style="&st18;" transform="matrix(&st16;  4799.43  297.24 )">B</text><text style="&st18;" transform="matrix(&st16;  4796.14  287.04 )">E05</text></g><g ewd:lineID="231"><text style="&st18;" transform="matrix(&st16;  4831.38  237.18 )">51</text><path style="stroke-width: 1.42 ;&st7;   " d=" M  4848.72,   235.21  C  4848.72    232.71   4846.69    230.68   4844.19    230.68  " /><path style="stroke-width: 1.42 ;&st7;   " d=" M  4844.19,   230.68  C  4841.69    230.68   4839.66    232.71   4839.66    235.21  " /><path style="stroke-width: 1.42 ;&st7;   " d=" M  4839.66,   235.21  C  4839.66    237.72   4841.69    239.75   4844.19    239.75  " /><path style="stroke-width: 1.42 ;&st7;   " d=" M  4844.19,   239.75  C  4846.69    239.75   4848.72    237.72   4848.72    235.21  " /><text style="&st18;" transform="matrix(&st16;  4841.92  237.18 )">B</text><text style="&st18;" transform="matrix(&st16;  4836.81  247.38 )">RSW</text></g><g ewd:lineID="242"><text style="&st18;" transform="matrix(&st16;  4899.36  297.24 )">16</text><text style="&st18;" transform="matrix(&st16;  4909.91  297.24 )">A</text><path style="stroke-width: 1.42 ;&st7;   " d=" M  4916.71,   295.27  C  4916.71    292.77   4914.68    290.74   4912.18    290.74  " /><path style="stroke-width: 1.42 ;&st7;   " d=" M  4912.18,   290.74  C  4909.68    290.74   4907.65    292.77   4907.65    295.27  " /><path style="stroke-width: 1.42 ;&st7;   " d=" M  4907.65,   295.27  C  4907.65    297.77   4909.68    299.80   4912.18    299.80  " /><path style="stroke-width: 1.42 ;&st7;   " d=" M  4912.18,   299.80  C  4914.68    299.80   4916.71    297.77   4916.71    295.27  " /><text style="&st18;" transform="matrix(&st16;  4902.78  287.04 )">DPSW</text></g><g ewd:lineID="243"><text style="&st18;" transform="matrix(&st16;  4933.36  237.18 )">53</text><text style="&st18;" transform="matrix(&st16;  4943.91  237.18 )">B</text><path style="stroke-width: 1.42 ;&st7;   " d=" M  4950.71,   235.21  C  4950.71    232.71   4948.68    230.68   4946.17    230.68  " /><path style="stroke-width: 1.42 ;&st7;   " d=" M  4946.17,   230.68  C  4943.67    230.68   4941.64    232.71   4941.64    235.21  " /><path style="stroke-width: 1.42 ;&st7;   " d=" M  4941.64,   235.21  C  4941.64    237.72   4943.67    239.75   4946.17    239.75  " /><path style="stroke-width: 1.42 ;&st7;   " d=" M  4946.17,   239.75  C  4948.68    239.75   4950.71    237.72   4950.71    235.21  " /><text style="&st18;" transform="matrix(&st16;  4940.42  247.38 )">ALT</text></g><g ewd:lineID="249"><text style="&st18;" transform="matrix(&st16;  4958.85  297.24 )">38</text><path style="stroke-width: 1.42 ;&st7;   " d=" M  4976.20,   295.27  C  4976.20    292.77   4974.17    290.74   4971.67    290.74  " /><path style="stroke-width: 1.42 ;&st7;   " d=" M  4971.67,   290.74  C  4969.17    290.74   4967.14    292.77   4967.14    295.27  " /><path style="stroke-width: 1.42 ;&st7;   " d=" M  4967.14,   295.27  C  4967.14    297.77   4969.17    299.80   4971.67    299.80  " /><path style="stroke-width: 1.42 ;&st7;   " d=" M  4971.67,   299.80  C  4974.17    299.80   4976.20    297.77   4976.20    295.27  " /><text style="&st18;" transform="matrix(&st16;  4969.4  297.24 )">A</text><text style="&st18;" transform="matrix(&st16;  4964.63  287.04 )">FSW</text></g></g><g ewd:figtype="conn" ewd:figID="78" ewd:code="L53"><path style="stroke-width: 1.42 ;&st7;  " d=" M  4903.68,   596.69  L  4903.68,   613.68  L  4920.68,   613.68  L  4920.68,   596.69  L  4903.68,   596.69  " /><path style="stroke-width: 0.85 ;&st7;  " d=" M  4912.18,   596.69  L  4912.18,   613.68  " /><text style="&st18;" transform="matrix(&st16;  4905.84  621.88 )">5</text><text style="&st18;" transform="matrix(&st16;  4902.51  593.0 )">13</text><g ewd:figtype="title"><text style="&st18;" transform="matrix(&st17;  4935.4  616.59 )" ewd:textID="76">No. 31 <tspan x="0 " dy="6.0">Junction </tspan><tspan x="0 " dy="6.0">Connector</tspan></text><text style="&st18;" transform="matrix(&st17;  4928.57  616.58 )">L53</text></g></g><g ewd:figtype="conn" ewd:figID="79" ewd:code="A22"><path style="stroke-width: 0.85 ;&st7;  " d=" M  4971.67,   579.69  L  4971.67,   596.69  " /><path style="stroke-width: 1.42 ;&st7;  " d=" M  4963.17,   579.69  L  4980.17,   579.69  L  4980.17,   596.69  L  4963.17,   596.69  L  4963.17,   579.69  " /><text style="&st18;" transform="matrix(&st16;  4962.19  603.19 )">3</text><path style="stroke-width: 1.42 ;&st7;   " d=" M  4976.20,   601.22  C  4976.20    598.71   4974.17    596.69   4971.67    596.69  " /><path style="stroke-width: 1.42 ;&st7;   " d=" M  4971.67,   596.69  C  4969.17    596.69   4967.14    598.71   4967.14    601.22  " /><path style="stroke-width: 1.42 ;&st7;   " d=" M  4967.14,   601.22  C  4967.14    603.72   4969.17    605.75   4971.67    605.75  " /><path style="stroke-width: 1.42 ;&st7;   " d=" M  4971.67,   605.75  C  4974.17    605.75   4976.20    603.72   4976.20    601.22  " /><text style="&st18;" transform="matrix(&st16;  4969.4  603.19 )">A</text><text style="&st18;" transform="matrix(&st16;  4962.19  577.13 )">4</text><path style="stroke-width: 1.42 ;&st7;   " d=" M  4976.20,   575.16  C  4976.20    572.65   4974.17    570.62   4971.67    570.62  " /><path style="stroke-width: 1.42 ;&st7;   " d=" M  4971.67,   570.62  C  4969.17    570.62   4967.14    572.65   4967.14    575.16  " /><path style="stroke-width: 1.42 ;&st7;   " d=" M  4967.14,   575.16  C  4967.14    577.66   4969.17    579.69   4971.67    579.69  " /><path style="stroke-width: 1.42 ;&st7;   " d=" M  4971.67,   579.69  C  4974.17    579.69   4976.20    577.66   4976.20    575.16  " /><text style="&st18;" transform="matrix(&st16;  4969.4  577.13 )">A</text><g ewd:figtype="title"><text style="&st18;" transform="matrix(&st17;  4994.89  599.59 )" ewd:textID="60">No. 1 <tspan x="0 " dy="6.0">Junction </tspan><tspan x="0 " dy="6.0">Connector</tspan></text><text style="&st18;" transform="matrix(&st17;  4988.06  599.58 )">A22(A)</text></g></g><g ewd:figtype="conn" ewd:figID="94" ewd:code="L60"><path style="stroke-width: 0.85 ;&st7;  " d=" M  4844.19,   511.70  L  4844.19,   498.95  " /><path style="stroke-width: 1.42 ;&st7;  " d=" M  4844.19,   496.12  L  4849.86,   473.46  " /><path style="stroke-width: 0.85 ;&st7;   " d=" M  4845.61,   497.54  C  4845.61    496.75   4844.97    496.12   4844.19    496.12  " /><path style="stroke-width: 0.85 ;&st7;   " d=" M  4844.19,   496.12  C  4843.41    496.12   4842.77    496.75   4842.77    497.54  " /><path style="stroke-width: 0.85 ;&st7;   " d=" M  4842.77,   497.54  C  4842.77    498.32   4843.41    498.95   4844.19    498.95  " /><path style="stroke-width: 0.85 ;&st7;   " d=" M  4844.19,   498.95  C  4844.97    498.95   4845.61    498.32   4845.61    497.54  " /><path style="stroke-width: 0.85 ;&st7;   " d=" M  4845.61,   474.87  C  4845.61    474.09   4844.97    473.46   4844.19    473.46  " /><path style="stroke-width: 0.85 ;&st7;   " d=" M  4844.19,   473.46  C  4843.41    473.46   4842.77    474.09   4842.77    474.87  " /><path style="stroke-width: 0.85 ;&st7;   " d=" M  4842.77,   474.87  C  4842.77    475.65   4843.41    476.29   4844.19    476.29  " /><path style="stroke-width: 0.85 ;&st7;   " d=" M  4844.19,   476.29  C  4844.97    476.29   4845.61    475.65   4845.61    474.87  " /><path style="stroke-width: 0.85 ;&st7;  " d=" M  4844.19,   473.46  L  4844.19,   460.71  " /><path style="stroke-width: 1.42 ;&st7;  " d=" M  4861.19,   511.70  L  4861.19,   460.71  L  4827.19,   460.71  L  4827.19,   511.70  L  4861.19,   511.70  " /><text style="&st18;" transform="matrix(&st16;  4846.77  508.01 )">E</text><text style="&st18;" transform="matrix(&st16;  4846.77  468.9 )">B</text><text style="&st18;" transform="matrix(&st17;  4839.08  491.96 )">DPF</text><text style="&st18;" transform="matrix(&st16;  4837.85  519.89 )">3</text><text style="&st18;" transform="matrix(&st16;  4837.85  457.02 )">1</text><g ewd:figtype="title"><text style="&st18;" transform="matrix(&st17;  4875.91  514.61 )" ewd:textID="18">Combination <tspan x="0 " dy="6.0">Switch Assembly</tspan></text><text style="&st18;" transform="matrix(&st17;  4869.08  514.6 )">L60</text></g></g><g ewd:figtype="w2w" ewd:figID="153" ewd:code="AI3"><path style="stroke-width: 1.42 ;&st7;  " d=" M  4601.98,   179.69  L  4606.23,   183.94  L  4610.48,   179.69  " /><path style="stroke-width: 1.42 ;&st7;  " d=" M  4610.48,   183.09  L  4606.23,   187.34  L  4601.98,   183.09  " /><text style="&st18;" transform="matrix(&st16;  4589.48  194.97 )">29</text></g><g ewd:figtype="w2w" ewd:figID="154" ewd:code="AI3"><path style="stroke-width: 1.42 ;&st7;  " d=" M  4788.95,    87.34  L  4784.70,    83.09  L  4780.45,    87.34  " /><path style="stroke-width: 1.42 ;&st7;  " d=" M  4788.95,    83.94  L  4784.70,    79.69  L  4780.45,    83.94  " /><text style="&st18;" transform="matrix(&st16;  4767.95  75.99 )">42</text></g><g ewd:figtype="w2w" ewd:figID="155" ewd:code="CA4"><path style="stroke-width: 1.42 ;&st7;  " d=" M  4839.94,    59.58  L  4844.19,    63.82  L  4848.44,    59.58  " /><path style="stroke-width: 1.42 ;&st7;  " d=" M  4848.44,    62.98  L  4844.19,    67.22  L  4839.94,    62.98  " /><text style="&st18;" transform="matrix(&st16;  4827.44  74.86 )">10</text></g><g ewd:figtype="w2w" ewd:figID="156" ewd:code="IL5"><path style="stroke-width: 1.42 ;&st7;  " d=" M  4916.43,   418.78  L  4912.18,   414.53  L  4907.93,   418.78  " /><path style="stroke-width: 1.42 ;&st7;  " d=" M  4916.43,   415.38  L  4912.18,   411.13  L  4907.93,   415.38  " /><text style="&st18;" transform="matrix(&st16;  4895.43  407.44 )">32</text></g><g ewd:figtype="w2w" ewd:figID="157" ewd:code="AI2"><path style="stroke-width: 1.42 ;&st7;  " d=" M  4916.43,   359.29  L  4912.18,   355.04  L  4907.93,   359.29  " /><path style="stroke-width: 1.42 ;&st7;  " d=" M  4916.43,   355.89  L  4912.18,   351.64  L  4907.93,   355.89  " /><text style="&st18;" transform="matrix(&st16;  4898.76  347.95 )">7</text></g><g ewd:figtype="w2w" ewd:figID="158" ewd:code="CA3"><path style="stroke-width: 1.42 ;&st7;  " d=" M  4975.92,   517.37  L  4971.67,   513.12  L  4967.42,   517.37  " /><path style="stroke-width: 1.42 ;&st7;  " d=" M  4975.92,   520.77  L  4971.67,   516.52  L  4967.42,   520.77  " /><text style="&st18;" transform="matrix(&st16;  4958.25  509.42 )">7</text></g><g ewd:figtype="w2w" ewd:figID="159" ewd:code="CA3"><path style="stroke-width: 1.42 ;&st7;  " d=" M  4975.92,   336.06  L  4971.67,   340.31  L  4967.42,   336.06  " /><path style="stroke-width: 1.42 ;&st7;  " d=" M  4967.42,   332.66  L  4971.67,   336.91  L  4975.92,   332.66  " /><text style="&st18;" transform="matrix(&st16;  4954.92  347.95 )">10</text></g><g ewd:figtype="gp" ewd:figID="194" ewd:code="CE"><path style="stroke-width: 0.85 ;&st7;  " d=" M  4759.20,   697.25  L  4759.20,   701.50  " /><path style="stroke-width: 0.85 ;&st7;  " d=" M  4750.70,   701.50  L  4767.70,   701.50  " /><path style="stroke-width: 0.85 ;&st7;  " d=" M  4754.95,   704.33  L  4763.45,   704.33  " /><path style="stroke-width: 0.85 ;&st7;  " d=" M  4756.37,   707.17  L  4762.04,   707.17  " /><path style="stroke-width: 0.85 ;&st7;  " d=" M  4757.79,   710.00  L  4760.62,   710.00  " /></g><g ewd:figtype="gp" ewd:figID="195" ewd:code="CD"><path style="stroke-width: 0.85 ;&st7;  " d=" M  4801.70,   697.25  L  4801.70,   701.50  " /><path style="stroke-width: 0.85 ;&st7;  " d=" M  4793.20,   701.50  L  4810.19,   701.50  " /><path style="stroke-width: 0.85 ;&st7;  " d=" M  4797.45,   704.33  L  4805.94,   704.33  " /><path style="stroke-width: 0.85 ;&st7;  " d=" M  4798.86,   707.17  L  4804.53,   707.17  " /><path style="stroke-width: 0.85 ;&st7;  " d=" M  4800.28,   710.00  L  4803.11,   710.00  " /></g><g ewd:figtype="gp" ewd:figID="196" ewd:code="LB"><path style="stroke-width: 0.85 ;&st7;  " d=" M  4912.18,   697.25  L  4912.18,   701.50  " /><path style="stroke-width: 0.85 ;&st7;  " d=" M  4903.68,   701.50  L  4920.68,   701.50  " /><path style="stroke-width: 0.85 ;&st7;  " d=" M  4907.93,   704.33  L  4916.43,   704.33  " /><path style="stroke-width: 0.85 ;&st7;  " d=" M  4909.34,   707.17  L  4915.01,   707.17  " /><path style="stroke-width: 0.85 ;&st7;  " d=" M  4910.76,   710.00  L  4913.59,   710.00  " /></g><g ewd:figtype="gp" ewd:figID="197" ewd:code="AA"><path style="stroke-width: 0.85 ;&st7;  " d=" M  4970.25,   710.00  L  4973.08,   710.00  " /><path style="stroke-width: 0.85 ;&st7;  " d=" M  4968.83,   707.17  L  4974.50,   707.17  " /><path style="stroke-width: 0.85 ;&st7;  " d=" M  4967.42,   704.33  L  4975.92,   704.33  " /><path style="stroke-width: 0.85 ;&st7;  " d=" M  4963.17,   701.50  L  4980.17,   701.50  " /><path style="stroke-width: 0.85 ;&st7;  " d=" M  4971.67,   697.25  L  4971.67,   701.50  " /></g><g ewd:code=" " ewd:figID="273" ewd:comment="1" ewd:figtype="sh"><path style="stroke-width: 0.85 ;&st7; stroke-dasharray:3, 1.5;" d=" M  4597.73,   341.73  L  4597.73,   316.23  L  4504.25,   316.23  L  4504.25,   350.23  L  4589.23,   350.23  " /><g ewd:code="" ewd:figID="294" ewd:comment="1" ewd:figtype="commref"><text style="&st18;" transform="matrix(&st17;  4500.55  337.79 )">(*1)</text></g></g></svg>