<?xml version="1.0" encoding="utf-8"?>
<!DOCTYPE svg PUBLIC "-//W3C//DTD SVG 1.0//EN" "http://www.w3.org/TR/2001/REC-SVG-20010904/DTD/svg10.dtd"[
	<!ENTITY ns_flows "http://ns.adobe.com/Flows/1.0/">
	<!ENTITY ns_svg "http://www.w3.org/2000/svg">
	<!ENTITY ns_xlink "http://www.w3.org/1999/xlink">
	<!ENTITY st0 "font-size:7px;font-family:'MS-PGothic';adobe-font-script:japanese;">
	<!ENTITY st1 "font-size:6px;font-family:'ArialMT';">
	<!-- White fill  -->
	<!ENTITY st2 "fill:#FFFFFF;stroke:#000000; stroke-width:1.41;stroke-linecap:round;stroke-linejoin:round;">
	<!-- Yellow fill  -->
	<!ENTITY st3 "fill:#FFFFCC;stroke:#FFFFCC; stroke-width:0.1;stroke-linecap:round;stroke-linejoin:round;">
	<!-- Gray fill  -->
	<!ENTITY st4 "fill:#CCCCCC;stroke:#CCCCCC; stroke-width:0.1;stroke-linecap:round;stroke-linejoin:round;">
	<!-- Light-blue fill -->
	<!ENTITY st5 "fill:#CCECF4;stroke:#000000; stroke-width:1.133;stroke-linecap:round;stroke-linejoin:round;">
	<!ENTITY st6 "fill:none;stroke-linecap:butt; stroke-linejoin:round;">
	<!ENTITY st7 "fill:none;stroke:#000000;stroke-linecap:round;stroke-linejoin:round;">
	<!ENTITY st8 "enable-background:new    ;">
	<!-- Black fill -->
	<!ENTITY st9 "fill:#000000;stroke:#000000; stroke-linecap:round;stroke-linejoin:round;">
	<!-- SRS note   -->
	<!ENTITY st10 "font-size:9px;font-family:'ArialMT';">
	<!ENTITY st11 "font-size:9px;font-family:'Svg Symbol';">
	<!ENTITY st12 "font-size:6px;font-family:'Svg Symbol';">
	<!ENTITY st13 "fill:none;stroke:#ff0000;stroke-linecap:round;stroke-linejoin:round;">
	<!-- Yellow fill  -->
	<!ENTITY st14 "fill:#FFFF00;stroke:#FFFF00; stroke-width:0.1;stroke-linecap:round;stroke-linejoin:round;">
	<!ENTITY st15 "font-size:6px;font-family:'MS-PGothic';adobe-font-script:japanese;">
	<!ENTITY st16 "1.00 0.00 0.00 1.00">
	<!ENTITY st17 "0.00 -1.00 1.00 0.00">
	<!ENTITY st18 "font-size:6px;font-family:'Arial';">
	<!ENTITY st19 "font-size:9px;font-family:'Arial';">
	<!ENTITY st20 "font-size:6px;font-family:'MS-PGothic','MS PGothic';adobe-font-script:japanese;">
	<!ENTITY st21 "font-size:7px;font-family:'MS-PGothic','MS PGothic';adobe-font-script:japanese;">
	<!ATTLIST svg
		xmlns:ewd CDATA #FIXED "http://shcl.co.jp/ewd"
		xmlns:a CDATA #FIXED "http://ns.adobe.com/AdobeSVGViewerExtensions/3.0/"
		ewd:ver CDATA #IMPLIED
	>
	<!ATTLIST a
		ewd:lineID CDATA #IMPLIED
		ewd:groupID CDATA #IMPLIED
		ewd:figtype CDATA #IMPLIED
		ewd:code CDATA #IMPLIED
		ewd:figID CDATA #IMPLIED
		ewd:pinNo CDATA #IMPLIED
		ewd:comment CDATA #IMPLIED >
	<!ATTLIST g
		ewd:lineID CDATA #IMPLIED
		ewd:groupID CDATA #IMPLIED
		ewd:figtype CDATA #IMPLIED
		ewd:code CDATA #IMPLIED
		ewd:figID CDATA #IMPLIED
		ewd:pinNo CDATA #IMPLIED
		ewd:comment CDATA #IMPLIED >
	<!ATTLIST text
		ewd:textID CDATA #IMPLIED >
	<!ATTLIST title
		ewd:textID CDATA #IMPLIED >
]>
<!-- Generator: Shintec Hozumi YS   -->
<svg onload="call_execInitLoadProc_svg('system')" style="overflow:visible;  enable-background:new 0 0 6214.333 710.000" viewBox="0 0 6214.333 710.000" height="710.000" width="6214.333" xml:space="preserve" ewd:ver="2.3.1.16" xmlns="&ns_svg;" xmlns:a="http://ns.adobe.com/AdobeSVGViewerExtensions/3.0/" xmlns:ewd="http://shcl.co.jp/ewd" xmlns:xlink="&ns_xlink;">
<text style="&st18;" transform="matrix(&st17;  5503.38  555.57 )">L</text><text style="&st18;" transform="matrix(&st17;  5970.81  386.3 )">G</text><text style="&st18;" transform="matrix(&st17;  5970.81  437.29 )">G</text><text style="&st18;" transform="matrix(&st17;  5970.81  530.08 )">L</text><text style="&st18;" transform="matrix(&st16;  5725.47  32.08 )">G</text><text style="&st18;" transform="matrix(&st16;  5674.48  32.08 )">G</text><text style="&st18;" transform="matrix(&st16;  5726.16  575.99 )">L</text><text style="&st18;" transform="matrix(&st16;  5675.17  575.99 )">L</text><text style="&st18;" transform="matrix(&st16;  5724.85  592.99 )">W</text><text style="&st18;" transform="matrix(&st16;  5673.86  592.99 )">W</text><text style="&st18;" transform="matrix(&st16;  5724.85  609.99 )">W</text><text style="&st18;" transform="matrix(&st16;  5673.86  609.99 )">W</text><text style="&st18;" transform="matrix(&st16;  5725.47  626.98 )">G</text><text style="&st18;" transform="matrix(&st16;  5674.48  626.98 )">G</text><text style="&st18;" transform="matrix(&st17;  5894.32  173.83 )">G</text><text style="&st18;" transform="matrix(&st17;  5894.32  97.35 )">G</text><text style="&st18;" transform="matrix(&st17;  5809.33  508.42 )">G-R</text><text style="&st18;" transform="matrix(&st17;  5809.33  457.43 )">G-R</text><text style="&st18;" transform="matrix(&st17;  5809.33  394.49 )">B</text><text style="&st18;" transform="matrix(&st17;  5503.38  462.47 )">B</text><text style="&st18;" transform="matrix(&st17;  5503.38  351.99 )">B</text><text style="&st18;" transform="matrix(&st17;  5758.34  570.88 )">BR</text><text style="&st18;" transform="matrix(&st17;  5758.34  524.14 )">BR</text><text style="&st18;" transform="matrix(&st17;  5758.34  379.66 )">BR</text><text style="&st18;" transform="matrix(&st17;  5970.81  88.54 )">V</text><text style="&st18;" transform="matrix(&st17;  5970.81  160.78 )">V</text><text style="&st18;" transform="matrix(&st17;  5758.34  473.14 )">BR</text><text style="&st18;" transform="matrix(&st17;  5758.34  422.15 )">BR</text><path style="stroke-width: 1.42 ;&st7;  " d=" M  5758.51,   435.21  L  5753.54,   440.18  " /><path style="stroke-width: 1.42 ;&st7;  " d=" M  5765.56,   452.21  L  5770.54,   447.24  " /><path style="stroke-width: 1.42 ;&st7;  " d=" M  5753.54,   447.24  L  5758.51,   452.21  " /><path style="stroke-width: 1.42 ;&st7;  " d=" M  5770.54,   440.18  L  5765.56,   435.21  " /><path style="stroke-width: 1.42 ;&st7;  " d=" M  5804.53,   426.71  L  5813.03,   426.71  " /><path style="stroke-width: 1.42 ;&st7;  " d=" M  5804.53,   477.71  L  5813.03,   477.71  " /><path style="stroke-width: 1.42 ;&st7;  " d=" M  5966.00,   409.72  L  5974.50,   409.72  " /><path style="stroke-width: 1.42 ;&st7;  " d=" M  5753.54,   545.69  L  5762.04,   545.69  " /><path style="stroke-width: 1.42 ;&st7;  " d=" M  5966.00,   120.77  L  5974.50,   120.77  " /><path style="stroke-width: 1.42 ;&st7;  " d=" M  5753.54,   392.72  L  5762.04,   392.72  " /><path style="stroke-width: 1.42 ;&st7;  " d=" M  5753.54,   494.70  L  5762.04,   494.70  " /><g ewd:figtype="conn" ewd:figID="3" ewd:code="L25,L26"><text style="&st18;" transform="matrix(&st16;  5900.6  205.45 )">+S</text><text style="&st18;" transform="matrix(&st16;  5815.61  346.54 )">SI</text><text style="&st18;" transform="matrix(&st17;  6094.32  241.1 )">SET</text><text style="&st18;" transform="matrix(&st17;  6128.31  241.26 )">DPF</text><text style="&st18;" transform="matrix(&st17;  6156.09  244.55 )" ewd:textID="8">Check <tspan x="0 " dy="6.0">Engine</tspan></text><text style="&st18;" transform="matrix(&st16;  6172.55  205.45 )">B</text><text style="&st18;" transform="matrix(&st16;  5977.09  205.45 )">B</text><text style="&st18;" transform="matrix(&st16;  5965.72  346.53 )">CANH</text><text style="&st18;" transform="matrix(&st16;  6000.22  346.53 )">CANL</text><text style="&st18;" transform="matrix(&st16;  5757.76  346.53 )">ES</text><text style="&st18;" transform="matrix(&st16;  6027.38  326.7 )">CPU</text><text style="&st18;" transform="matrix(&st17;  6026.33  243.89 )" ewd:textID="13">Cruise</text><text style="&st18;" transform="matrix(&st17;  6060.32  241.99 )" ewd:textID="30">Glow</text><path style="stroke-width: 0.85 ;&st7;  " d=" M  5872.52,   273.74  L  5872.52,   265.24  L  5869.68,   263.82  L  5875.35,   260.99  L  5869.68,   258.16  L  5875.35,   255.33  L  5869.68,   252.49  L  5875.35,   249.66  L  5872.52,   248.24  L  5872.52,   239.75  " /><path style="stroke-width: 0.85 ;&st7;  " d=" M  5855.52,   299.24  L  5853.39,   296.05  L  5851.76,   298.49  L  5855.52,   299.24  L  5854.29,   298.41  L  5853.39,   297.07  L  5852.70,   298.10  L  5854.29,   298.41  L  5853.67,   298.00  L  5853.39,   297.58  L  5853.17,   297.90  L  5853.67,   298.00  " /><path style="stroke-width: 0.85 ;&st7;  " d=" M  5855.52,   282.24  L  5847.02,   287.90  " /><path style="stroke-width: 0.85 ;&st7;  " d=" M  5813.03,   290.74  L  5847.02,   290.74  " /><path style="stroke-width: 0.85 ;&st7;  " d=" M  5813.03,   333.23  L  5813.03,   324.73  L  5810.19,   323.31  L  5815.86,   320.48  L  5810.19,   317.65  L  5815.86,   314.82  L  5810.19,   311.98  L  5815.86,   309.15  L  5813.03,   307.73  L  5813.03,   290.74  " /><path style="stroke-width: 0.85 ;&st7;  " d=" M  5871.32,   281.24  L  5871.05,   281.71  L  5870.96,   282.24  L  5871.05,   282.77  L  5871.32,   283.24  L  5871.74,   283.59  L  5872.25,   283.77  L  5872.79,   283.77  L  5873.30,   283.59  L  5873.71,   283.24  L  5873.98,   282.77  L  5874.07,   282.24  L  5873.98,   281.71  L  5873.71,   281.24  L  5873.30,   280.89  L  5872.79,   280.70  L  5872.25,   280.70  L  5871.74,   280.89  L  5871.32,   281.24  L  5871.72,   281.95  L  5871.72,   282.53  L  5872.09,   282.97  L  5872.66,   283.07  L  5873.17,   282.79  L  5873.37,   282.24  L  5873.17,   281.69  L  5872.66,   281.40  L  5872.09,   281.50  L  5872.52,   282.24  " /><path style="stroke-width: 0.85 ;&st7;  " d=" M  5871.32,   238.74  L  5871.05,   239.21  L  5870.96,   239.75  L  5871.05,   240.28  L  5871.32,   240.75  L  5871.74,   241.09  L  5872.25,   241.28  L  5872.79,   241.28  L  5873.30,   241.09  L  5873.71,   240.75  L  5873.98,   240.28  L  5874.07,   239.75  L  5873.98,   239.21  L  5873.71,   238.74  L  5873.30,   238.40  L  5872.79,   238.21  L  5872.25,   238.21  L  5871.74,   238.40  L  5871.32,   238.74  L  5871.72,   239.45  L  5871.72,   240.04  L  5872.09,   240.48  L  5872.66,   240.58  L  5873.17,   240.29  L  5873.37,   239.75  L  5873.17,   239.20  L  5872.66,   238.91  L  5872.09,   239.01  L  5872.52,   239.75  " /><path style="stroke-width: 0.85 ;&st7;  " d=" M  5868.27,   239.75  L  5876.77,   239.75  " /><path style="stroke-width: 0.85 ;&st7;  " d=" M  5830.02,   290.74  L  5830.02,   324.73  L  5898.01,   324.73  " /><path style="stroke-width: 0.85 ;&st7;  " d=" M  5872.52,   282.24  L  5872.52,   273.74  " /><path style="stroke-width: 0.85 ;&st7;  " d=" M  5828.83,   289.73  L  5828.56,   290.20  L  5828.47,   290.74  L  5828.56,   291.27  L  5828.83,   291.74  L  5829.24,   292.09  L  5829.75,   292.27  L  5830.29,   292.27  L  5830.80,   292.09  L  5831.22,   291.74  L  5831.49,   291.27  L  5831.58,   290.74  L  5831.49,   290.20  L  5831.22,   289.73  L  5830.80,   289.39  L  5830.29,   289.20  L  5829.75,   289.20  L  5829.24,   289.39  L  5828.83,   289.73  L  5829.22,   290.45  L  5829.22,   291.03  L  5829.60,   291.47  L  5830.17,   291.57  L  5830.67,   291.28  L  5830.87,   290.74  L  5830.67,   290.19  L  5830.17,   289.90  L  5829.60,   290.00  L  5830.02,   290.74  " /><path style="stroke-width: 0.85 ;&st7;  " d=" M  5898.01,   290.74  L  5898.01,   299.24  " /><path style="stroke-width: 0.85 ;&st7;  " d=" M  5847.02,   307.73  L  5842.77,   316.23  " /><path style="stroke-width: 0.85 ;&st7;  " d=" M  5864.02,   307.73  L  5859.77,   316.23  " /><path style="stroke-width: 0.85 ;&st7;  " d=" M  5855.52,   307.73  L  5851.27,   316.23  " /><path style="stroke-width: 0.85 ;&st7;  " d=" M  5847.02,   307.73  L  5864.02,   307.73  " /><path style="stroke-width: 0.85 ;&st7;  " d=" M  5855.52,   299.24  L  5855.52,   307.73  " /><path style="stroke-width: 0.85 ;&st7;  " d=" M  5889.51,   299.24  L  5906.51,   299.24  " /><path style="stroke-width: 0.85 ;&st7;  " d=" M  5898.01,   273.74  L  5889.51,   279.41  " /><path style="stroke-width: 0.85 ;&st7;  " d=" M  5898.01,   290.74  L  5895.88,   287.55  L  5894.25,   289.99  L  5898.01,   290.74  L  5896.78,   289.92  L  5895.88,   288.57  L  5895.19,   289.60  L  5896.78,   289.92  L  5896.17,   289.50  L  5895.88,   289.08  L  5895.66,   289.41  L  5896.17,   289.50  " /><path style="stroke-width: 0.85 ;&st7;  " d=" M  5855.52,   282.24  L  5889.51,   282.24  " /><path style="stroke-width: 0.85 ;&st7;  " d=" M  5898.01,   299.24  L  5893.76,   307.73  " /><path style="stroke-width: 0.85 ;&st7;  " d=" M  5906.51,   299.24  L  5902.26,   307.73  " /><path style="stroke-width: 0.85 ;&st7;  " d=" M  5898.01,   273.74  L  5898.01,   265.24  L  5895.18,   263.82  L  5900.84,   260.99  L  5895.18,   258.16  L  5900.84,   255.33  L  5895.18,   252.49  L  5900.84,   249.66  L  5898.01,   248.24  L  5898.01,   239.75  " /><path style="stroke-width: 0.85 ;&st7;  " d=" M  5889.51,   299.24  L  5885.26,   307.73  " /><path style="stroke-width: 0.85 ;&st7;  " d=" M  5898.01,   239.75  L  5898.01,   197.25  " /><path style="stroke-width: 0.85 ;&st7;  " d=" M  5813.03,   333.23  L  5813.03,   350.23  " /><path style="stroke-width: 0.85 ;&st7;  " d=" M  5930.81,   238.74  L  5930.54,   239.21  L  5930.45,   239.75  L  5930.54,   240.28  L  5930.81,   240.75  L  5931.23,   241.09  L  5931.74,   241.28  L  5932.28,   241.28  L  5932.79,   241.09  L  5933.20,   240.75  L  5933.47,   240.28  L  5933.56,   239.75  L  5933.47,   239.21  L  5933.20,   238.74  L  5932.79,   238.40  L  5932.28,   238.21  L  5931.74,   238.21  L  5931.23,   238.40  L  5930.81,   238.74  L  5931.21,   239.45  L  5931.21,   240.04  L  5931.58,   240.48  L  5932.15,   240.58  L  5932.66,   240.29  L  5932.86,   239.75  L  5932.66,   239.20  L  5932.15,   238.91  L  5931.58,   239.01  L  5932.01,   239.75  " /><path style="stroke-width: 0.85 ;&st7;  " d=" M  5973.31,   238.74  L  5973.03,   239.21  L  5972.94,   239.75  L  5973.03,   240.28  L  5973.31,   240.75  L  5973.72,   241.09  L  5974.23,   241.28  L  5974.77,   241.28  L  5975.28,   241.09  L  5975.69,   240.75  L  5975.96,   240.28  L  5976.06,   239.75  L  5975.96,   239.21  L  5975.69,   238.74  L  5975.28,   238.40  L  5974.77,   238.21  L  5974.23,   238.21  L  5973.72,   238.40  L  5973.31,   238.74  L  5973.70,   239.45  L  5973.70,   240.04  L  5974.07,   240.48  L  5974.65,   240.58  L  5975.15,   240.29  L  5975.35,   239.75  L  5975.15,   239.20  L  5974.65,   238.91  L  5974.07,   239.01  L  5974.50,   239.75  " /><path style="stroke-width: 0.85 ;&st7;  " d=" M  6032.80,   221.75  L  6032.52,   222.22  L  6032.43,   222.75  L  6032.52,   223.28  L  6032.80,   223.75  L  6033.21,   224.10  L  6033.72,   224.28  L  6034.26,   224.28  L  6034.77,   224.10  L  6035.18,   223.75  L  6035.45,   223.28  L  6035.55,   222.75  L  6035.45,   222.22  L  6035.18,   221.75  L  6034.77,   221.40  L  6034.26,   221.21  L  6033.72,   221.21  L  6033.21,   221.40  L  6032.80,   221.75  L  6033.19,   222.46  L  6033.19,   223.04  L  6033.56,   223.48  L  6034.14,   223.58  L  6034.64,   223.30  L  6034.84,   222.75  L  6034.64,   222.20  L  6034.14,   221.91  L  6033.56,   222.01  L  6033.99,   222.75  " /><path style="stroke-width: 0.85 ;&st7;  " d=" M  6066.79,   221.75  L  6066.52,   222.22  L  6066.43,   222.75  L  6066.52,   223.28  L  6066.79,   223.75  L  6067.20,   224.10  L  6067.71,   224.28  L  6068.25,   224.28  L  6068.76,   224.10  L  6069.18,   223.75  L  6069.45,   223.28  L  6069.54,   222.75  L  6069.45,   222.22  L  6069.18,   221.75  L  6068.76,   221.40  L  6068.25,   221.21  L  6067.71,   221.21  L  6067.20,   221.40  L  6066.79,   221.75  L  6067.18,   222.46  L  6067.18,   223.04  L  6067.56,   223.48  L  6068.13,   223.58  L  6068.64,   223.30  L  6068.83,   222.75  L  6068.64,   222.20  L  6068.13,   221.91  L  6067.56,   222.01  L  6067.98,   222.75  " /><path style="stroke-width: 0.85 ;&st7;  " d=" M  6100.79,   221.75  L  6100.51,   222.22  L  6100.42,   222.75  L  6100.51,   223.28  L  6100.79,   223.75  L  6101.20,   224.10  L  6101.71,   224.28  L  6102.25,   224.28  L  6102.76,   224.10  L  6103.17,   223.75  L  6103.44,   223.28  L  6103.54,   222.75  L  6103.44,   222.22  L  6103.17,   221.75  L  6102.76,   221.40  L  6102.25,   221.21  L  6101.71,   221.21  L  6101.20,   221.40  L  6100.79,   221.75  L  6101.18,   222.46  L  6101.18,   223.04  L  6101.55,   223.48  L  6102.13,   223.58  L  6102.63,   223.30  L  6102.83,   222.75  L  6102.63,   222.20  L  6102.13,   221.91  L  6101.55,   222.01  L  6101.98,   222.75  " /><path style="stroke-width: 0.85 ;&st7;  " d=" M  6134.78,   221.75  L  6134.51,   222.22  L  6134.41,   222.75  L  6134.51,   223.28  L  6134.78,   223.75  L  6135.19,   224.10  L  6135.70,   224.28  L  6136.24,   224.28  L  6136.75,   224.10  L  6137.16,   223.75  L  6137.44,   223.28  L  6137.53,   222.75  L  6137.44,   222.22  L  6137.16,   221.75  L  6136.75,   221.40  L  6136.24,   221.21  L  6135.70,   221.21  L  6135.19,   221.40  L  6134.78,   221.75  L  6135.17,   222.46  L  6135.17,   223.04  L  6135.55,   223.48  L  6136.12,   223.58  L  6136.62,   223.30  L  6136.82,   222.75  L  6136.62,   222.20  L  6136.12,   221.91  L  6135.55,   222.01  L  6135.97,   222.75  " /><path style="stroke-width: 0.85 ;&st7;  " d=" M  6033.99,   222.75  L  6033.99,   239.75  " /><path style="stroke-width: 0.85 ;&st7;  " d=" M  6048.73,   233.55  L  6046.39,   236.59  L  6044.92,   234.05  L  6048.73,   233.55  L  6047.44,   234.29  L  6046.46,   235.57  L  6045.84,   234.50  L  6047.44,   234.29  L  6046.80,   234.66  L  6046.49,   235.07  L  6046.30,   234.73  L  6046.80,   234.66  " /><path style="stroke-width: 0.85 ;&st7;  " d=" M  6046.72,   230.08  L  6044.39,   233.12  L  6042.92,   230.58  L  6046.72,   230.08  L  6045.44,   230.82  L  6044.45,   232.11  L  6043.84,   231.03  L  6045.44,   230.82  L  6044.80,   231.19  L  6044.49,   231.60  L  6044.29,   231.26  L  6044.80,   231.19  " /><path style="stroke-width: 0.28 ;&st9;  " d=" M  6033.99,   239.75  L  6028.32,   231.25  L  6039.65,   231.25  L  6033.99,   239.75  " /><path style="stroke-width: 0.85 ;&st7;  " d=" M  6016.99,   316.23  L  6016.99,   282.24  " /><path style="stroke-width: 0.85 ;&st7;  " d=" M  6025.49,   299.24  L  6021.24,   307.73  " /><path style="stroke-width: 0.85 ;&st7;  " d=" M  6042.49,   299.24  L  6038.24,   307.73  " /><path style="stroke-width: 0.85 ;&st7;  " d=" M  6033.99,   299.24  L  6029.74,   307.73  " /><path style="stroke-width: 0.85 ;&st7;  " d=" M  6025.49,   299.24  L  6042.49,   299.24  " /><path style="stroke-width: 0.85 ;&st7;  " d=" M  6033.99,   290.74  L  6033.99,   299.24  " /><path style="stroke-width: 0.85 ;&st7;  " d=" M  6033.99,   290.74  L  6031.86,   287.55  L  6030.23,   289.99  L  6033.99,   290.74  L  6032.76,   289.92  L  6031.86,   288.57  L  6031.17,   289.60  L  6032.76,   289.92  L  6032.14,   289.50  L  6031.86,   289.08  L  6031.64,   289.41  L  6032.14,   289.50  " /><path style="stroke-width: 0.85 ;&st7;  " d=" M  6033.99,   273.74  L  6025.49,   279.41  " /><path style="stroke-width: 0.85 ;&st7;  " d=" M  6033.99,   273.74  L  6033.99,   265.24  L  6031.16,   263.82  L  6036.82,   260.99  L  6031.16,   258.16  L  6036.82,   255.33  L  6031.16,   252.49  L  6036.82,   249.66  L  6033.99,   248.24  L  6033.99,   239.75  " /><path style="stroke-width: 0.85 ;&st7;  " d=" M  6067.98,   222.75  L  6067.98,   239.75  " /><path style="stroke-width: 0.85 ;&st7;  " d=" M  6082.72,   233.55  L  6080.39,   236.59  L  6078.92,   234.05  L  6082.72,   233.55  L  6081.44,   234.29  L  6080.45,   235.57  L  6079.83,   234.50  L  6081.44,   234.29  L  6080.80,   234.66  L  6080.48,   235.07  L  6080.29,   234.73  L  6080.80,   234.66  " /><path style="stroke-width: 0.85 ;&st7;  " d=" M  6080.72,   230.08  L  6078.38,   233.12  L  6076.92,   230.58  L  6080.72,   230.08  L  6079.43,   230.82  L  6078.45,   232.11  L  6077.83,   231.03  L  6079.43,   230.82  L  6078.79,   231.19  L  6078.48,   231.60  L  6078.29,   231.26  L  6078.79,   231.19  " /><path style="stroke-width: 0.28 ;&st9;  " d=" M  6067.98,   239.75  L  6062.32,   231.25  L  6073.65,   231.25  L  6067.98,   239.75  " /><path style="stroke-width: 0.85 ;&st7;  " d=" M  6050.99,   316.23  L  6050.99,   282.24  " /><path style="stroke-width: 0.85 ;&st7;  " d=" M  6059.48,   299.24  L  6055.24,   307.73  " /><path style="stroke-width: 0.85 ;&st7;  " d=" M  6076.48,   299.24  L  6072.23,   307.73  " /><path style="stroke-width: 0.85 ;&st7;  " d=" M  6067.98,   299.24  L  6063.73,   307.73  " /><path style="stroke-width: 0.85 ;&st7;  " d=" M  6059.48,   299.24  L  6076.48,   299.24  " /><path style="stroke-width: 0.85 ;&st7;  " d=" M  6067.98,   290.74  L  6067.98,   299.24  " /><path style="stroke-width: 0.85 ;&st7;  " d=" M  6067.98,   290.74  L  6065.85,   287.55  L  6064.22,   289.99  L  6067.98,   290.74  L  6066.75,   289.92  L  6065.85,   288.57  L  6065.16,   289.60  L  6066.75,   289.92  L  6066.14,   289.50  L  6065.85,   289.08  L  6065.64,   289.41  L  6066.14,   289.50  " /><path style="stroke-width: 0.85 ;&st7;  " d=" M  6067.98,   273.74  L  6059.48,   279.41  " /><path style="stroke-width: 0.85 ;&st7;  " d=" M  6067.98,   273.74  L  6067.98,   265.24  L  6065.15,   263.82  L  6070.82,   260.99  L  6065.15,   258.16  L  6070.82,   255.33  L  6065.15,   252.49  L  6070.82,   249.66  L  6067.98,   248.24  L  6067.98,   239.75  " /><path style="stroke-width: 0.85 ;&st7;  " d=" M  6101.98,   222.75  L  6101.98,   239.75  " /><path style="stroke-width: 0.85 ;&st7;  " d=" M  6116.71,   233.55  L  6114.38,   236.59  L  6112.91,   234.05  L  6116.71,   233.55  L  6115.43,   234.29  L  6114.45,   235.57  L  6113.83,   234.50  L  6115.43,   234.29  L  6114.79,   234.66  L  6114.48,   235.07  L  6114.28,   234.73  L  6114.79,   234.66  " /><path style="stroke-width: 0.85 ;&st7;  " d=" M  6114.71,   230.08  L  6112.38,   233.12  L  6110.91,   230.58  L  6114.71,   230.08  L  6113.43,   230.82  L  6112.44,   232.11  L  6111.82,   231.03  L  6113.43,   230.82  L  6112.79,   231.19  L  6112.48,   231.60  L  6112.28,   231.26  L  6112.79,   231.19  " /><path style="stroke-width: 0.28 ;&st9;  " d=" M  6101.98,   239.75  L  6096.31,   231.25  L  6107.64,   231.25  L  6101.98,   239.75  " /><path style="stroke-width: 0.85 ;&st7;  " d=" M  6084.98,   316.23  L  6084.98,   282.24  " /><path style="stroke-width: 0.85 ;&st7;  " d=" M  6093.48,   299.24  L  6089.23,   307.73  " /><path style="stroke-width: 0.85 ;&st7;  " d=" M  6110.48,   299.24  L  6106.23,   307.73  " /><path style="stroke-width: 0.85 ;&st7;  " d=" M  6101.98,   299.24  L  6097.73,   307.73  " /><path style="stroke-width: 0.85 ;&st7;  " d=" M  6093.48,   299.24  L  6110.48,   299.24  " /><path style="stroke-width: 0.85 ;&st7;  " d=" M  6101.98,   290.74  L  6101.98,   299.24  " /><path style="stroke-width: 0.85 ;&st7;  " d=" M  6101.98,   290.74  L  6099.84,   287.55  L  6098.22,   289.99  L  6101.98,   290.74  L  6100.75,   289.92  L  6099.85,   288.57  L  6099.16,   289.60  L  6100.75,   289.92  L  6100.13,   289.50  L  6099.85,   289.08  L  6099.63,   289.41  L  6100.13,   289.50  " /><path style="stroke-width: 0.85 ;&st7;  " d=" M  6101.98,   273.74  L  6093.48,   279.41  " /><path style="stroke-width: 0.85 ;&st7;  " d=" M  6101.98,   273.74  L  6101.98,   265.24  L  6099.15,   263.82  L  6104.81,   260.99  L  6099.15,   258.16  L  6104.81,   255.33  L  6099.15,   252.49  L  6104.81,   249.66  L  6101.98,   248.24  L  6101.98,   239.75  " /><path style="stroke-width: 0.85 ;&st7;  " d=" M  6135.97,   222.75  L  6135.97,   239.75  " /><path style="stroke-width: 0.85 ;&st7;  " d=" M  6150.71,   233.55  L  6148.37,   236.59  L  6146.91,   234.05  L  6150.71,   233.55  L  6149.43,   234.29  L  6148.44,   235.57  L  6147.82,   234.50  L  6149.43,   234.29  L  6148.79,   234.66  L  6148.47,   235.07  L  6148.28,   234.73  L  6148.79,   234.66  " /><path style="stroke-width: 0.85 ;&st7;  " d=" M  6148.71,   230.08  L  6146.37,   233.12  L  6144.90,   230.58  L  6148.71,   230.08  L  6147.42,   230.82  L  6146.44,   232.11  L  6145.82,   231.03  L  6147.42,   230.82  L  6146.78,   231.19  L  6146.47,   231.60  L  6146.28,   231.26  L  6146.78,   231.19  " /><path style="stroke-width: 0.28 ;&st9;  " d=" M  6135.97,   239.75  L  6130.31,   231.25  L  6141.64,   231.25  L  6135.97,   239.75  " /><path style="stroke-width: 0.85 ;&st7;  " d=" M  6118.98,   316.23  L  6118.98,   282.24  " /><path style="stroke-width: 0.85 ;&st7;  " d=" M  6127.47,   299.24  L  6123.22,   307.73  " /><path style="stroke-width: 0.85 ;&st7;  " d=" M  6144.47,   299.24  L  6140.22,   307.73  " /><path style="stroke-width: 0.85 ;&st7;  " d=" M  6135.97,   299.24  L  6131.72,   307.73  " /><path style="stroke-width: 0.85 ;&st7;  " d=" M  6127.47,   299.24  L  6144.47,   299.24  " /><path style="stroke-width: 0.85 ;&st7;  " d=" M  6135.97,   290.74  L  6135.97,   299.24  " /><path style="stroke-width: 0.85 ;&st7;  " d=" M  6135.97,   290.74  L  6133.84,   287.55  L  6132.21,   289.99  L  6135.97,   290.74  L  6134.74,   289.92  L  6133.84,   288.57  L  6133.15,   289.60  L  6134.74,   289.92  L  6134.13,   289.50  L  6133.84,   289.08  L  6133.62,   289.41  L  6134.13,   289.50  " /><path style="stroke-width: 0.85 ;&st7;  " d=" M  6135.97,   273.74  L  6127.47,   279.41  " /><path style="stroke-width: 0.85 ;&st7;  " d=" M  6135.97,   273.74  L  6135.97,   265.24  L  6133.14,   263.82  L  6138.81,   260.99  L  6133.14,   258.16  L  6138.81,   255.33  L  6133.14,   252.49  L  6138.81,   249.66  L  6135.97,   248.24  L  6135.97,   239.75  " /><path style="stroke-width: 0.85 ;&st7;  " d=" M  6169.97,   222.75  L  6169.97,   239.75  " /><path style="stroke-width: 0.85 ;&st7;  " d=" M  6184.70,   233.55  L  6182.37,   236.59  L  6180.90,   234.05  L  6184.70,   233.55  L  6183.42,   234.29  L  6182.44,   235.57  L  6181.82,   234.50  L  6183.42,   234.29  L  6182.78,   234.66  L  6182.47,   235.07  L  6182.27,   234.73  L  6182.78,   234.66  " /><path style="stroke-width: 0.85 ;&st7;  " d=" M  6182.70,   230.08  L  6180.37,   233.12  L  6178.90,   230.58  L  6182.70,   230.08  L  6181.42,   230.82  L  6180.43,   232.11  L  6179.81,   231.03  L  6181.42,   230.82  L  6180.78,   231.19  L  6180.47,   231.60  L  6180.27,   231.26  L  6180.78,   231.19  " /><path style="stroke-width: 0.28 ;&st9;  " d=" M  6169.97,   239.75  L  6164.30,   231.25  L  6175.63,   231.25  L  6169.97,   239.75  " /><path style="stroke-width: 0.85 ;&st7;  " d=" M  6152.97,   316.23  L  6152.97,   282.24  " /><path style="stroke-width: 0.85 ;&st7;  " d=" M  6161.47,   299.24  L  6157.22,   307.73  " /><path style="stroke-width: 0.85 ;&st7;  " d=" M  6178.47,   299.24  L  6174.22,   307.73  " /><path style="stroke-width: 0.85 ;&st7;  " d=" M  6169.97,   299.24  L  6165.72,   307.73  " /><path style="stroke-width: 0.85 ;&st7;  " d=" M  6161.47,   299.24  L  6178.47,   299.24  " /><path style="stroke-width: 0.85 ;&st7;  " d=" M  6169.97,   290.74  L  6169.97,   299.24  " /><path style="stroke-width: 0.85 ;&st7;  " d=" M  6169.97,   290.74  L  6167.83,   287.55  L  6166.21,   289.99  L  6169.97,   290.74  L  6168.73,   289.92  L  6167.84,   288.57  L  6167.15,   289.60  L  6168.73,   289.92  L  6168.12,   289.50  L  6167.84,   289.08  L  6167.62,   289.41  L  6168.12,   289.50  " /><path style="stroke-width: 0.85 ;&st7;  " d=" M  6169.97,   273.74  L  6161.47,   279.41  " /><path style="stroke-width: 0.85 ;&st7;  " d=" M  6169.97,   273.74  L  6169.97,   265.24  L  6167.13,   263.82  L  6172.80,   260.99  L  6167.13,   258.16  L  6172.80,   255.33  L  6167.13,   252.49  L  6172.80,   249.66  L  6169.97,   248.24  L  6169.97,   239.75  " /><path style="stroke-width: 0.85 ;&st7;  " d=" M  5932.01,   239.75  L  5999.99,   239.75  L  5999.99,   222.75  L  6169.97,   222.75  " /><path style="stroke-width: 0.28 ;&st9;  " d=" M  5949.00,   239.75  L  5957.50,   234.08  L  5957.50,   245.41  L  5949.00,   239.75  " /><path style="stroke-width: 0.28 ;&st9;  " d=" M  5932.01,   231.25  L  5926.34,   222.75  L  5937.67,   222.75  L  5932.01,   231.25  " /><path style="stroke-width: 1.42 ;&st7;  " d=" M  5898.01,   316.23  L  5898.01,   333.23  L  6169.97,   333.23  L  6169.97,   316.23  L  5898.01,   316.23  " /><path style="stroke-width: 0.28 ;&st9;  " d=" M  5974.50,   231.25  L  5968.83,   222.75  L  5980.16,   222.75  L  5974.50,   231.25  " /><path style="stroke-width: 0.85 ;&st7;  " d=" M  5974.50,   197.25  L  5974.50,   239.75  " /><path style="stroke-width: 0.85 ;&st7;  " d=" M  6169.97,   197.25  L  6169.97,   214.25  L  5932.01,   214.25  L  5932.01,   316.23  " /><path style="stroke-width: 1.42 ;&st7;  " d=" M  5745.04,   197.25  L  5745.04,   350.23  L  6186.96,   350.23  L  6186.96,   197.25  L  5745.04,   197.25  " /><path style="stroke-width: 0.85 ;&st7;  " d=" M  5898.01,   290.74  L  5889.52,   285.07  " /><path style="stroke-width: 0.85 ;&st7;  " d=" M  5855.52,   299.24  L  5847.02,   293.57  " /><path style="stroke-width: 1.42 ;&st7;  " d=" M  5847.02,   282.24  L  5847.02,   299.24  " /><path style="stroke-width: 1.42 ;&st7;  " d=" M  5889.52,   273.74  L  5889.52,   290.74  " /><path style="stroke-width: 0.85 ;&st7;  " d=" M  6041.37,   237.80  L  6048.73,   233.55  " /><path style="stroke-width: 0.85 ;&st7;  " d=" M  6046.72,   230.08  L  6039.36,   234.33  " /><path style="stroke-width: 0.85 ;&st7;  " d=" M  6038.24,   239.75  L  6029.74,   239.75  " /><path style="stroke-width: 0.85 ;&st7;  " d=" M  6033.99,   290.74  L  6025.49,   285.07  " /><path style="stroke-width: 0.85 ;&st7;  " d=" M  6025.49,   282.24  L  6016.99,   282.24  " /><path style="stroke-width: 1.42 ;&st7;  " d=" M  6025.49,   273.74  L  6025.49,   290.74  " /><path style="stroke-width: 0.85 ;&st7;  " d=" M  6075.36,   237.80  L  6082.72,   233.55  " /><path style="stroke-width: 0.85 ;&st7;  " d=" M  6080.72,   230.08  L  6073.36,   234.33  " /><path style="stroke-width: 0.85 ;&st7;  " d=" M  6072.24,   239.75  L  6063.74,   239.75  " /><path style="stroke-width: 0.85 ;&st7;  " d=" M  6067.99,   290.74  L  6059.49,   285.07  " /><path style="stroke-width: 0.85 ;&st7;  " d=" M  6059.49,   282.24  L  6050.99,   282.24  " /><path style="stroke-width: 1.42 ;&st7;  " d=" M  6059.49,   273.74  L  6059.49,   290.74  " /><path style="stroke-width: 0.85 ;&st7;  " d=" M  6109.36,   237.80  L  6116.72,   233.55  " /><path style="stroke-width: 0.85 ;&st7;  " d=" M  6114.71,   230.08  L  6107.35,   234.33  " /><path style="stroke-width: 0.85 ;&st7;  " d=" M  6106.23,   239.75  L  6097.73,   239.75  " /><path style="stroke-width: 0.85 ;&st7;  " d=" M  6101.98,   290.74  L  6093.48,   285.07  " /><path style="stroke-width: 0.85 ;&st7;  " d=" M  6093.48,   282.24  L  6084.98,   282.24  " /><path style="stroke-width: 1.42 ;&st7;  " d=" M  6093.48,   273.74  L  6093.48,   290.74  " /><path style="stroke-width: 0.85 ;&st7;  " d=" M  6143.35,   237.80  L  6150.71,   233.55  " /><path style="stroke-width: 0.85 ;&st7;  " d=" M  6148.71,   230.08  L  6141.35,   234.33  " /><path style="stroke-width: 0.85 ;&st7;  " d=" M  6140.22,   239.75  L  6131.73,   239.75  " /><path style="stroke-width: 0.85 ;&st7;  " d=" M  6135.97,   290.74  L  6127.48,   285.07  " /><path style="stroke-width: 0.85 ;&st7;  " d=" M  6127.48,   282.24  L  6118.98,   282.24  " /><path style="stroke-width: 1.42 ;&st7;  " d=" M  6127.48,   273.74  L  6127.48,   290.74  " /><path style="stroke-width: 0.85 ;&st7;  " d=" M  6177.35,   237.80  L  6184.71,   233.55  " /><path style="stroke-width: 0.85 ;&st7;  " d=" M  6182.70,   230.08  L  6175.34,   234.33  " /><path style="stroke-width: 0.85 ;&st7;  " d=" M  6174.22,   239.75  L  6165.72,   239.75  " /><path style="stroke-width: 0.85 ;&st7;  " d=" M  6169.97,   290.74  L  6161.47,   285.07  " /><path style="stroke-width: 0.85 ;&st7;  " d=" M  6161.47,   282.24  L  6152.97,   282.24  " /><path style="stroke-width: 1.42 ;&st7;  " d=" M  6161.47,   273.74  L  6161.47,   290.74  " /><path style="stroke-width: 0.85 ;&st7;  " d=" M  5949.01,   243.99  L  5949.01,   235.50  " /><path style="stroke-width: 0.85 ;&st7;  " d=" M  5936.26,   231.25  L  5927.76,   231.25  " /><path style="stroke-width: 0.85 ;&st7;  " d=" M  5978.75,   231.25  L  5970.25,   231.25  " /><text style="&st18;" transform="matrix(&st16;  5749.22  356.73 )">15</text><text style="&st18;" transform="matrix(&st16;  5759.77  356.73 )">A</text><path style="stroke-width: 1.42 ;&st7;   " d=" M  5766.57,   354.76  C  5766.57    352.26   5764.54    350.23   5762.04    350.23  " /><path style="stroke-width: 1.42 ;&st7;   " d=" M  5762.04,   350.23  C  5759.53    350.23   5757.50    352.26   5757.50    354.76  " /><path style="stroke-width: 1.42 ;&st7;   " d=" M  5757.50,   354.76  C  5757.50    357.26   5759.53    359.29   5762.04    359.29  " /><path style="stroke-width: 1.42 ;&st7;   " d=" M  5762.04,   359.29  C  5764.54    359.29   5766.57    357.26   5766.57    354.76  " /><text style="&st18;" transform="matrix(&st16;  5803.55  356.73 )">9</text><text style="&st18;" transform="matrix(&st16;  5810.76  356.73 )">A</text><path style="stroke-width: 1.42 ;&st7;   " d=" M  5817.56,   354.76  C  5817.56    352.26   5815.53    350.23   5813.03    350.23  " /><path style="stroke-width: 1.42 ;&st7;   " d=" M  5813.03,   350.23  C  5810.53    350.23   5808.50    352.26   5808.50    354.76  " /><path style="stroke-width: 1.42 ;&st7;   " d=" M  5808.50,   354.76  C  5808.50    357.26   5810.53    359.29   5813.03    359.29  " /><path style="stroke-width: 1.42 ;&st7;   " d=" M  5813.03,   359.29  C  5815.53    359.29   5817.56    357.26   5817.56    354.76  " /><text style="&st18;" transform="matrix(&st16;  5888.53  194.69 )">8</text><path style="stroke-width: 1.42 ;&st7;   " d=" M  5902.55,   192.72  C  5902.55    190.22   5900.52    188.19   5898.01    188.19  " /><path style="stroke-width: 1.42 ;&st7;   " d=" M  5898.01,   188.19  C  5895.51    188.19   5893.48    190.22   5893.48    192.72  " /><path style="stroke-width: 1.42 ;&st7;   " d=" M  5893.48,   192.72  C  5893.48    195.22   5895.51    197.25   5898.01    197.25  " /><path style="stroke-width: 1.42 ;&st7;   " d=" M  5898.01,   197.25  C  5900.52    197.25   5902.55    195.22   5902.55    192.72  " /><text style="&st18;" transform="matrix(&st16;  5895.75  194.69 )">A</text><text style="&st18;" transform="matrix(&st16;  5961.69  356.73 )">13</text><text style="&st18;" transform="matrix(&st16;  5972.24  356.73 )">B</text><path style="stroke-width: 1.42 ;&st7;   " d=" M  5979.03,   354.76  C  5979.03    352.26   5977.00    350.23   5974.50    350.23  " /><path style="stroke-width: 1.42 ;&st7;   " d=" M  5974.50,   350.23  C  5972.00    350.23   5969.97    352.26   5969.97    354.76  " /><path style="stroke-width: 1.42 ;&st7;   " d=" M  5969.97,   354.76  C  5969.97    357.26   5972.00    359.29   5974.50    359.29  " /><path style="stroke-width: 1.42 ;&st7;   " d=" M  5974.50,   359.29  C  5977.00    359.29   5979.03    357.26   5979.03    354.76  " /><text style="&st18;" transform="matrix(&st16;  5961.69  194.69 )">28</text><text style="&st18;" transform="matrix(&st16;  5972.24  194.69 )">A</text><path style="stroke-width: 1.42 ;&st7;   " d=" M  5979.03,   192.72  C  5979.03    190.22   5977.00    188.19   5974.50    188.19  " /><path style="stroke-width: 1.42 ;&st7;   " d=" M  5974.50,   188.19  C  5972.00    188.19   5969.97    190.22   5969.97    192.72  " /><path style="stroke-width: 1.42 ;&st7;   " d=" M  5969.97,   192.72  C  5969.97    195.22   5972.00    197.25   5974.50    197.25  " /><path style="stroke-width: 1.42 ;&st7;   " d=" M  5974.50,   197.25  C  5977.00    197.25   5979.03    195.22   5979.03    192.72  " /><text style="&st18;" transform="matrix(&st16;  5995.68  356.73 )">14</text><text style="&st18;" transform="matrix(&st16;  6006.23  356.73 )">B</text><path style="stroke-width: 1.42 ;&st7;   " d=" M  6013.03,   354.76  C  6013.03    352.26   6011.00    350.23   6008.50    350.23  " /><path style="stroke-width: 1.42 ;&st7;   " d=" M  6008.50,   350.23  C  6005.99    350.23   6003.96    352.26   6003.96    354.76  " /><path style="stroke-width: 1.42 ;&st7;   " d=" M  6003.96,   354.76  C  6003.96    357.26   6005.99    359.29   6008.50    359.29  " /><path style="stroke-width: 1.42 ;&st7;   " d=" M  6008.50,   359.29  C  6011.00    359.29   6013.03    357.26   6013.03    354.76  " /><text style="&st18;" transform="matrix(&st16;  6157.15  194.69 )">26</text><path style="stroke-width: 1.42 ;&st7;   " d=" M  6174.50,   192.72  C  6174.50    190.22   6172.47    188.19   6169.97    188.19  " /><path style="stroke-width: 1.42 ;&st7;   " d=" M  6169.97,   188.19  C  6167.47    188.19   6165.44    190.22   6165.44    192.72  " /><path style="stroke-width: 1.42 ;&st7;   " d=" M  6165.44,   192.72  C  6165.44    195.22   6167.47    197.25   6169.97    197.25  " /><path style="stroke-width: 1.42 ;&st7;   " d=" M  6169.97,   197.25  C  6172.47    197.25   6174.50    195.22   6174.50    192.72  " /><text style="&st18;" transform="matrix(&st16;  6167.7  194.69 )">A</text><g ewd:figtype="title"><text style="&st18;" transform="matrix(&st16;  6064.58  364.94 )" ewd:textID="10">Combination Meter Assembly</text><text style="&st18;" transform="matrix(&st16;  6064.57  358.12 )">L25(A),L26(B)</text></g></g><g ewd:figtype="conn" ewd:figID="26" ewd:code="I119,I120,I122"><path style="stroke-width: 0.85 ;&st7;  " d=" M  6007.30,   485.20  L  6007.03,   485.67  L  6006.94,   486.20  L  6007.03,   486.74  L  6007.30,   487.21  L  6007.71,   487.55  L  6008.22,   487.74  L  6008.76,   487.74  L  6009.27,   487.55  L  6009.69,   487.21  L  6009.96,   486.74  L  6010.05,   486.20  L  6009.96,   485.67  L  6009.69,   485.20  L  6009.27,   484.86  L  6008.76,   484.67  L  6008.22,   484.67  L  6007.71,   484.86  L  6007.30,   485.20  L  6007.69,   485.91  L  6007.69,   486.50  L  6008.07,   486.94  L  6008.64,   487.04  L  6009.15,   486.75  L  6009.34,   486.20  L  6009.15,   485.66  L  6008.64,   485.37  L  6008.07,   485.47  L  6008.49,   486.20  " /><path style="stroke-width: 0.85 ;&st7;  " d=" M  5973.31,   476.70  L  5973.03,   477.17  L  5972.94,   477.71  L  5973.03,   478.24  L  5973.31,   478.71  L  5973.72,   479.05  L  5974.23,   479.24  L  5974.77,   479.24  L  5975.28,   479.05  L  5975.69,   478.71  L  5975.96,   478.24  L  5976.06,   477.71  L  5975.96,   477.17  L  5975.69,   476.70  L  5975.28,   476.36  L  5974.77,   476.17  L  5974.23,   476.17  L  5973.72,   476.36  L  5973.31,   476.70  L  5973.70,   477.41  L  5973.70,   478.00  L  5974.07,   478.44  L  5974.65,   478.54  L  5975.15,   478.25  L  5975.35,   477.71  L  5975.15,   477.16  L  5974.65,   476.87  L  5974.07,   476.97  L  5974.50,   477.71  " /><path style="stroke-width: 0.85 ;&st7;  " d=" M  6076.48,   494.70  L  6076.48,   477.71  L  5974.50,   477.71  " /><path style="stroke-width: 0.85 ;&st7;  " d=" M  6042.49,   494.70  L  6042.49,   486.20  L  6008.49,   486.20  " /><path style="stroke-width: 0.85 ;&st7;  " d=" M  6008.49,   469.21  L  6008.49,   494.70  " /><path style="stroke-width: 0.85 ;&st7;  " d=" M  5974.50,   469.21  L  5974.50,   494.70  " /><path style="stroke-width: 1.42 ;&st7;  " d=" M  5966.00,   469.21  L  5966.00,   494.70  L  6084.98,   494.70  L  6084.98,   469.21  L  5966.00,   469.21  " /><text style="&st18;" transform="matrix(&st16;  6067.0  501.2 )">1</text><text style="&st18;" transform="matrix(&st16;  6075.42  501.2 )">I</text><path style="stroke-width: 1.42 ;&st7;   " d=" M  6081.02,   499.24  C  6081.02    496.73   6078.99    494.70   6076.48    494.70  " /><path style="stroke-width: 1.42 ;&st7;   " d=" M  6076.48,   494.70  C  6073.98    494.70   6071.95    496.73   6071.95    499.24  " /><path style="stroke-width: 1.42 ;&st7;   " d=" M  6071.95,   499.24  C  6071.95    501.74   6073.98    503.77   6076.48    503.77  " /><path style="stroke-width: 1.42 ;&st7;   " d=" M  6076.48,   503.77  C  6078.99    503.77   6081.02    501.74   6081.02    499.24  " /><text style="&st18;" transform="matrix(&st16;  6033.01  501.2 )">2</text><text style="&st18;" transform="matrix(&st16;  6041.43  501.2 )">I</text><path style="stroke-width: 1.42 ;&st7;   " d=" M  6047.02,   499.24  C  6047.02    496.73   6044.99    494.70   6042.49    494.70  " /><path style="stroke-width: 1.42 ;&st7;   " d=" M  6042.49,   494.70  C  6039.99    494.70   6037.96    496.73   6037.96    499.24  " /><path style="stroke-width: 1.42 ;&st7;   " d=" M  6037.96,   499.24  C  6037.96    501.74   6039.99    503.77   6042.49    503.77  " /><path style="stroke-width: 1.42 ;&st7;   " d=" M  6042.49,   503.77  C  6044.99    503.77   6047.02    501.74   6047.02    499.24  " /><text style="&st18;" transform="matrix(&st16;  5965.02  501.2 )">1</text><text style="&st18;" transform="matrix(&st16;  5971.93  501.2 )">G</text><path style="stroke-width: 1.42 ;&st7;   " d=" M  5979.03,   499.24  C  5979.03    496.73   5977.00    494.70   5974.50    494.70  " /><path style="stroke-width: 1.42 ;&st7;   " d=" M  5974.50,   494.70  C  5972.00    494.70   5969.97    496.73   5969.97    499.24  " /><path style="stroke-width: 1.42 ;&st7;   " d=" M  5969.97,   499.24  C  5969.97    501.74   5972.00    503.77   5974.50    503.77  " /><path style="stroke-width: 1.42 ;&st7;   " d=" M  5974.50,   503.77  C  5977.00    503.77   5979.03    501.74   5979.03    499.24  " /><text style="&st18;" transform="matrix(&st16;  5965.02  466.64 )">1</text><text style="&st18;" transform="matrix(&st16;  5972.47  466.64 )">F</text><path style="stroke-width: 1.42 ;&st7;   " d=" M  5979.03,   464.67  C  5979.03    462.17   5977.00    460.14   5974.50    460.14  " /><path style="stroke-width: 1.42 ;&st7;   " d=" M  5974.50,   460.14  C  5972.00    460.14   5969.97    462.17   5969.97    464.67  " /><path style="stroke-width: 1.42 ;&st7;   " d=" M  5969.97,   464.67  C  5969.97    467.18   5972.00    469.21   5974.50    469.21  " /><path style="stroke-width: 1.42 ;&st7;   " d=" M  5974.50,   469.21  C  5977.00    469.21   5979.03    467.18   5979.03    464.67  " /><text style="&st18;" transform="matrix(&st16;  5999.02  501.2 )">2</text><text style="&st18;" transform="matrix(&st16;  6005.92  501.2 )">G</text><path style="stroke-width: 1.42 ;&st7;   " d=" M  6013.03,   499.24  C  6013.03    496.73   6011.00    494.70   6008.50    494.70  " /><path style="stroke-width: 1.42 ;&st7;   " d=" M  6008.50,   494.70  C  6005.99    494.70   6003.96    496.73   6003.96    499.24  " /><path style="stroke-width: 1.42 ;&st7;   " d=" M  6003.96,   499.24  C  6003.96    501.74   6005.99    503.77   6008.50    503.77  " /><path style="stroke-width: 1.42 ;&st7;   " d=" M  6008.50,   503.77  C  6011.00    503.77   6013.03    501.74   6013.03    499.24  " /><text style="&st18;" transform="matrix(&st16;  5999.02  466.64 )">2</text><path style="stroke-width: 1.42 ;&st7;   " d=" M  6013.03,   464.67  C  6013.03    462.17   6011.00    460.14   6008.50    460.14  " /><path style="stroke-width: 1.42 ;&st7;   " d=" M  6008.50,   460.14  C  6005.99    460.14   6003.96    462.17   6003.96    464.67  " /><path style="stroke-width: 1.42 ;&st7;   " d=" M  6003.96,   464.67  C  6003.96    467.18   6005.99    469.21   6008.50    469.21  " /><path style="stroke-width: 1.42 ;&st7;   " d=" M  6008.50,   469.21  C  6011.00    469.21   6013.03    467.18   6013.03    464.67  " /><text style="&st18;" transform="matrix(&st16;  6006.46  466.64 )">F</text><g ewd:figtype="title"><text style="&st18;" transform="matrix(&st17;  6092.88  497.6 )">I119(F),I120(G),I122(I)</text><text style="&st18;" transform="matrix(&st17;  6099.7  497.61 )" ewd:textID="52">No. 4 CAN <tspan x="0 " dy="6.0">Junction Connector</tspan></text></g></g><g ewd:figtype="conn" ewd:figID="69" ewd:code="L36"><path style="stroke-width: 0.85 ;&st7;  " d=" M  5898.01,   129.26  L  5898.01,   146.26  " /><path style="stroke-width: 1.42 ;&st7;  " d=" M  5889.51,   129.26  L  5889.51,   146.26  L  5906.51,   146.26  L  5906.51,   129.26  L  5889.51,   129.26  " /><text style="&st18;" transform="matrix(&st16;  5888.53  152.76 )">7</text><text style="&st18;" transform="matrix(&st16;  5895.75  152.76 )">A</text><path style="stroke-width: 1.42 ;&st7;   " d=" M  5902.55,   150.79  C  5902.55    148.29   5900.52    146.26   5898.01    146.26  " /><path style="stroke-width: 1.42 ;&st7;   " d=" M  5898.01,   146.26  C  5895.51    146.26   5893.48    148.29   5893.48    150.79  " /><path style="stroke-width: 1.42 ;&st7;   " d=" M  5893.48,   150.79  C  5893.48    153.30   5895.51    155.33   5898.01    155.33  " /><path style="stroke-width: 1.42 ;&st7;   " d=" M  5898.01,   155.33  C  5900.52    155.33   5902.55    153.30   5902.55    150.79  " /><text style="&st18;" transform="matrix(&st16;  5888.53  126.7 )">6</text><text style="&st18;" transform="matrix(&st16;  5895.75  126.7 )">A</text><path style="stroke-width: 1.42 ;&st7;   " d=" M  5902.55,   124.73  C  5902.55    122.23   5900.52    120.20   5898.01    120.20  " /><path style="stroke-width: 1.42 ;&st7;   " d=" M  5898.01,   120.20  C  5895.51    120.20   5893.48    122.23   5893.48    124.73  " /><path style="stroke-width: 1.42 ;&st7;   " d=" M  5893.48,   124.73  C  5893.48    127.23   5895.51    129.26   5898.01    129.26  " /><path style="stroke-width: 1.42 ;&st7;   " d=" M  5898.01,   129.26  C  5900.52    129.26   5902.55    127.23   5902.55    124.73  " /><g ewd:figtype="title"><text style="&st18;" transform="matrix(&st17;  5914.41  149.16 )">L36(A)</text><text style="&st18;" transform="matrix(&st17;  5921.23  149.17 )" ewd:textID="64">No. 28 Junction <tspan x="0 " dy="6.0">Connector</tspan></text></g></g><g ewd:figtype="conn" ewd:figID="70" ewd:code="A20"><path style="stroke-width: 1.42 ;&st7;  " d=" M  5796.03,   528.70  L  5796.03,   562.69  L  5830.02,   562.69  L  5830.02,   528.70  L  5796.03,   528.70  " /><text style="&st18;" transform="matrix(&st16;  5803.35  525.01 )">22</text><text style="&st18;" transform="matrix(&st16;  5807.12  536.33 )">SP1</text><g ewd:figtype="title"><text style="&st18;" transform="matrix(&st17;  5785.51  565.59 )">A20</text><text style="&st18;" transform="matrix(&st17;  5792.34  565.6 )" ewd:textID="6">Brake Actuator Assembly</text></g></g><g ewd:figtype="conn" ewd:figID="79" ewd:code="I17"><g ewd:lineID="248"><text style="&st18;" transform="matrix(&st16;  5500.74  491.01 )">9</text><text style="&st18;" transform="matrix(&st16;  5500.78  502.34 )">TAC</text></g><g ewd:lineID="260"><text style="&st18;" transform="matrix(&st16;  5500.74  536.89 )">6</text></g><g ewd:figtype="title"><text style="&st18;" transform="matrix(&st17;  5531.97  531.6 )">I17</text><text style="&st18;" transform="matrix(&st17;  5538.79  531.6 )">DLC3</text></g></g><g ewd:figtype="conn" ewd:figID="84" ewd:code="C39,I84"><g ewd:lineID="249"><path style="stroke-width: 1.42 ;&st7;   " d=" M  5511.61,   295.27  C  5511.61    292.77   5509.58    290.74   5507.08    290.74  " /><path style="stroke-width: 1.42 ;&st7;   " d=" M  5507.08,   290.74  C  5504.58    290.74   5502.55    292.77   5502.55    295.27  " /><path style="stroke-width: 1.42 ;&st7;   " d=" M  5502.55,   295.27  C  5502.55    297.77   5504.58    299.80   5507.08    299.80  " /><path style="stroke-width: 1.42 ;&st7;   " d=" M  5507.08,   299.80  C  5509.58    299.80   5511.61    297.77   5511.61    295.27  " /><text style="&st18;" transform="matrix(&st16;  5504.81  297.24 )">A</text></g></g><g ewd:figtype="w2w" ewd:figID="149" ewd:code="CA4"><text style="&st18;" transform="matrix(&st16;  5745.28  551.91 )">17</text><path style="stroke-width: 1.42 ;&st7;  " d=" M  5766.28,   540.03  L  5762.03,   544.28  L  5757.79,   540.03  " /><path style="stroke-width: 1.42 ;&st7;  " d=" M  5757.79,   536.63  L  5762.03,   540.88  L  5766.28,   536.63  " /></g><g ewd:figtype="w2w" ewd:figID="150" ewd:code="AI3"><text style="&st18;" transform="matrix(&st16;  5745.28  500.92 )">13</text><path style="stroke-width: 1.42 ;&st7;  " d=" M  5757.79,   485.64  L  5762.03,   489.89  L  5766.28,   485.64  " /><path style="stroke-width: 1.42 ;&st7;  " d=" M  5766.28,   489.04  L  5762.03,   493.29  L  5757.79,   489.04  " /></g><g ewd:figtype="w2w" ewd:figID="151" ewd:code="IL2"><text style="&st18;" transform="matrix(&st16;  5748.62  398.94 )">4</text><path style="stroke-width: 1.42 ;&st7;  " d=" M  5766.28,   387.05  L  5762.03,   391.30  L  5757.79,   387.05  " /><path style="stroke-width: 1.42 ;&st7;  " d=" M  5757.79,   383.65  L  5762.03,   387.90  L  5766.28,   383.65  " /></g><g ewd:figtype="w2w" ewd:figID="152" ewd:code="AI3"><text style="&st18;" transform="matrix(&st16;  5796.28  483.92 )">30</text><path style="stroke-width: 1.42 ;&st7;  " d=" M  5817.28,   472.04  L  5813.03,   476.29  L  5808.78,   472.04  " /><path style="stroke-width: 1.42 ;&st7;  " d=" M  5808.78,   468.64  L  5813.03,   472.89  L  5817.28,   468.64  " /></g><g ewd:figtype="w2w" ewd:figID="153" ewd:code="IL6"><text style="&st18;" transform="matrix(&st16;  5796.28  432.93 )">13</text><path style="stroke-width: 1.42 ;&st7;  " d=" M  5817.28,   421.05  L  5813.03,   425.30  L  5808.78,   421.05  " /><path style="stroke-width: 1.42 ;&st7;  " d=" M  5808.78,   417.65  L  5813.03,   421.90  L  5817.28,   417.65  " /></g><g ewd:figtype="w2w" ewd:figID="154" ewd:code="IL1"><text style="&st18;" transform="matrix(&st16;  5957.75  415.94 )">23</text><path style="stroke-width: 1.42 ;&st7;  " d=" M  5978.75,   404.05  L  5974.50,   408.30  L  5970.25,   404.05  " /><path style="stroke-width: 1.42 ;&st7;  " d=" M  5970.25,   400.65  L  5974.50,   404.90  L  5978.75,   400.65  " /></g><g ewd:figtype="w2w" ewd:figID="155" ewd:code="LI1"><text style="&st18;" transform="matrix(&st16;  5957.75  126.98 )">18</text><path style="stroke-width: 1.42 ;&st7;  " d=" M  5978.75,   115.10  L  5974.50,   119.35  L  5970.25,   115.10  " /><path style="stroke-width: 1.42 ;&st7;  " d=" M  5970.25,   111.70  L  5974.50,   115.95  L  5978.75,   111.70  " /></g><g ewd:figtype="w2w" ewd:figID="156" ewd:code="IL1"><text style="&st18;" transform="matrix(&st16;  5991.74  415.94 )">45</text><path style="stroke-width: 1.42 ;&st7;  " d=" M  6012.74,   404.05  L  6008.49,   408.30  L  6004.24,   404.05  " /><path style="stroke-width: 1.42 ;&st7;  " d=" M  6004.24,   400.65  L  6008.49,   404.90  L  6012.74,   400.65  " /></g><g ewd:figtype="gp" ewd:figID="173" ewd:code="CE"><path style="stroke-width: 0.85 ;&st7;  " d=" M  5760.62,   710.00  L  5763.45,   710.00  " /><path style="stroke-width: 0.85 ;&st7;  " d=" M  5759.20,   707.17  L  5764.87,   707.17  " /><path style="stroke-width: 0.85 ;&st7;  " d=" M  5757.79,   704.33  L  5766.28,   704.33  " /><path style="stroke-width: 0.85 ;&st7;  " d=" M  5753.54,   701.50  L  5770.53,   701.50  " /><path style="stroke-width: 0.85 ;&st7;  " d=" M  5762.03,   697.25  L  5762.03,   701.50  "/></g></svg>
