<?xml version="1.0" encoding="utf-8"?>
<!DOCTYPE svg PUBLIC "-//W3C//DTD SVG 1.0//EN" "http://www.w3.org/TR/2001/REC-SVG-20010904/DTD/svg10.dtd"[
	<!ENTITY ns_flows "http://ns.adobe.com/Flows/1.0/">
	<!ENTITY ns_svg "http://www.w3.org/2000/svg">
	<!ENTITY ns_xlink "http://www.w3.org/1999/xlink">
	<!ENTITY st0 "font-size:7px;font-family:'MS-PGothic';adobe-font-script:japanese;">
	<!ENTITY st1 "font-size:6px;font-family:'ArialMT';">
	<!-- White fill  -->
	<!ENTITY st2 "fill:#FFFFFF;stroke:#000000; stroke-width:1.41;stroke-linecap:round;stroke-linejoin:round;">
	<!-- Yellow fill  -->
	<!ENTITY st3 "fill:#FFFFCC;stroke:#FFFFCC; stroke-width:0.1;stroke-linecap:round;stroke-linejoin:round;">
	<!-- Gray fill  -->
	<!ENTITY st4 "fill:#CCCCCC;stroke:#CCCCCC; stroke-width:0.1;stroke-linecap:round;stroke-linejoin:round;">
	<!-- Light-blue fill -->
	<!ENTITY st5 "fill:#CCECF4;stroke:#000000; stroke-width:1.133;stroke-linecap:round;stroke-linejoin:round;">
	<!ENTITY st6 "fill:none;stroke-linecap:butt; stroke-linejoin:round;">
	<!ENTITY st7 "fill:none;stroke:#000000;stroke-linecap:round;stroke-linejoin:round;">
	<!ENTITY st8 "enable-background:new    ;">
	<!-- Black fill -->
	<!ENTITY st9 "fill:#000000;stroke:#000000; stroke-linecap:round;stroke-linejoin:round;">
	<!-- SRS note   -->
	<!ENTITY st10 "font-size:9px;font-family:'ArialMT';">
	<!ENTITY st11 "font-size:9px;font-family:'Svg Symbol';">
	<!ENTITY st12 "font-size:6px;font-family:'Svg Symbol';">
	<!ENTITY st13 "fill:none;stroke:#ff0000;stroke-linecap:round;stroke-linejoin:round;">
	<!-- Yellow fill  -->
	<!ENTITY st14 "fill:#FFFF00;stroke:#FFFF00; stroke-width:0.1;stroke-linecap:round;stroke-linejoin:round;">
	<!ENTITY st15 "font-size:6px;font-family:'MS-PGothic';adobe-font-script:japanese;">
	<!ENTITY st16 "1.00 0.00 0.00 1.00">
	<!ENTITY st17 "0.00 -1.00 1.00 0.00">
	<!ENTITY st18 "font-size:6px;font-family:'Arial';">
	<!ENTITY st19 "font-size:9px;font-family:'Arial';">
	<!ENTITY st20 "font-size:6px;font-family:'MS-PGothic','MS PGothic';adobe-font-script:japanese;">
	<!ENTITY st21 "font-size:7px;font-family:'MS-PGothic','MS PGothic';adobe-font-script:japanese;">
	<!ATTLIST svg
		xmlns:ewd CDATA #FIXED "http://shcl.co.jp/ewd"
		xmlns:a CDATA #FIXED "http://ns.adobe.com/AdobeSVGViewerExtensions/3.0/"
		ewd:ver CDATA #IMPLIED
	>
	<!ATTLIST a
		ewd:lineID CDATA #IMPLIED
		ewd:groupID CDATA #IMPLIED
		ewd:figtype CDATA #IMPLIED
		ewd:code CDATA #IMPLIED
		ewd:figID CDATA #IMPLIED
		ewd:pinNo CDATA #IMPLIED
		ewd:comment CDATA #IMPLIED >
	<!ATTLIST g
		ewd:lineID CDATA #IMPLIED
		ewd:groupID CDATA #IMPLIED
		ewd:figtype CDATA #IMPLIED
		ewd:code CDATA #IMPLIED
		ewd:figID CDATA #IMPLIED
		ewd:pinNo CDATA #IMPLIED
		ewd:comment CDATA #IMPLIED >
	<!ATTLIST text
		ewd:textID CDATA #IMPLIED >
	<!ATTLIST title
		ewd:textID CDATA #IMPLIED >
]>
<!-- Generator: Shintec Hozumi YS   -->
<svg onload="call_execInitLoadProc_svg('system')" style="overflow:visible;  enable-background:new 0 0 9310.735 710.000" viewBox="0 0 9310.735 710.000" height="710.000" width="9310.735" xml:space="preserve" ewd:ver="2.3.1.16" xmlns="&ns_svg;" xmlns:a="http://ns.adobe.com/AdobeSVGViewerExtensions/3.0/" xmlns:ewd="http://shcl.co.jp/ewd" xmlns:xlink="&ns_xlink;">
<text style="&st18;" transform="matrix(&st17;  8435.39  435.87 )">B-R</text><text style="&st18;" transform="matrix(&st17;  8446.73  442.5 )">(*10 *20)</text><text style="&st18;" transform="matrix(&st17;  8078.45  165.02 )">P</text><text style="&st18;" transform="matrix(&st17;  8027.46  165.02 )">V</text><text style="&st18;" transform="matrix(&st17;  8341.91  142.98 )">G-R</text><text style="&st18;" transform="matrix(&st17;  8353.24  149.3 )">(*13,*18)</text><path style="stroke-width: 1.42 ;&st7;  " d=" M  8354.10,   197.25  L  8345.61,   197.25  " /><text style="&st18;" transform="matrix(&st17;  8353.24  336.27 )">(*13,*18)</text><text style="&st18;" transform="matrix(&st17;  8341.91  329.95 )">G-R</text><path style="stroke-width: 1.42 ;&st7;  " d=" M  8490.08,    95.27  L  8498.58,    95.27  " /><text style="&st18;" transform="matrix(&st17;  8089.79  169.48 )">(*19)</text><text style="&st18;" transform="matrix(&st17;  8038.79  169.48 )">(*19)</text><text style="&st18;" transform="matrix(&st17;  8494.88  150.94 )">B-Y</text><text style="&st18;" transform="matrix(&st16;  8308.07  26.42 )">(*13,*18)</text><text style="&st18;" transform="matrix(&st16;  8257.08  26.42 )">(*13,*18)</text><text style="&st18;" transform="matrix(&st16;  8263.4  15.09 )">G-R</text><text style="&st18;" transform="matrix(&st16;  8314.39  15.09 )">G-R</text><text style="&st18;" transform="matrix(&st17;  8027.46  292.5 )">B</text><text style="&st18;" transform="matrix(&st17;  8078.45  292.81 )">G</text><text style="&st18;" transform="matrix(&st17;  8486.39  432.73 )">P</text><text style="&st18;" transform="matrix(&st17;  8497.72  449.87 )">(RHD *19 *21)</text><text style="&st18;" transform="matrix(&st16;  8306.76  550.5 )">W(LHD *19 *21)</text><text style="&st18;" transform="matrix(&st16;  8238.77  550.5 )">W(LHD *19 *21)</text><text style="&st18;" transform="matrix(&st16;  8307.19  533.5 )">P(RHD *19 *21)</text><text style="&st18;" transform="matrix(&st16;  8239.2  533.5 )">P(RHD *19 *21)</text><text style="&st18;" transform="matrix(&st16;  8243.39  669.48 )">B-R(*10 *20)</text><text style="&st18;" transform="matrix(&st16;  8311.38  669.48 )">B-R(*10 *20)</text><text style="&st18;" transform="matrix(&st16;  8310.41  635.48 )">R-W(*19 *20)</text><text style="&st18;" transform="matrix(&st16;  8242.42  635.48 )">R-W(*19 *20)</text><text style="&st18;" transform="matrix(&st16;  8326.03  652.48 )">G</text><text style="&st18;" transform="matrix(&st16;  8258.04  652.48 )">G</text><text style="&st18;" transform="matrix(&st16;  8314.36  686.47 )">R(*10 *21)</text><text style="&st18;" transform="matrix(&st16;  8246.37  686.47 )">R(*10 *21)</text><text style="&st18;" transform="matrix(&st17;  8129.45  199.17 )">R</text><text style="&st18;" transform="matrix(&st17;  8140.78  212.47 )">R(LHD *13)</text><text style="&st18;" transform="matrix(&st17;  8154.94  199.02 )">B</text><text style="&st18;" transform="matrix(&st17;  8166.27  210.3 )">(LHD *14)</text><text style="&st18;" transform="matrix(&st17;  8180.44  205.49 )">(RHD)</text><text style="&st18;" transform="matrix(&st17;  8191.77  205.49 )">(RHD)</text><text style="&st18;" transform="matrix(&st17;  8205.93  199.95 )">W</text><text style="&st18;" transform="matrix(&st17;  8217.27  210.3 )">(LHD *13)</text><text style="&st18;" transform="matrix(&st17;  8231.43  199.95 )">W</text><text style="&st18;" transform="matrix(&st17;  8242.76  210.3 )">(LHD *14)</text><text style="&st18;" transform="matrix(&st17;  8256.92  199.95 )">W</text><text style="&st18;" transform="matrix(&st17;  8268.26  205.49 )">(RHD)</text><text style="&st18;" transform="matrix(&st17;  8469.39  148.03 )">V</text><text style="&st18;" transform="matrix(&st17;  8480.72  159.85 )">(RHD *21)</text><text style="&st18;" transform="matrix(&st17;  8460.89  432.88 )">R</text><text style="&st18;" transform="matrix(&st17;  8472.22  442.5 )">(*10 *21)</text><g ewd:code="L25,L26" ewd:figID="77" ewd:comment="14,18,19,10" ewd:figtype="conn"><path style="stroke-width: 0.85 ;&st7;  " d=" M  8519.83,   350.23  L  8511.33,   350.23  " /><path style="stroke-width: 0.85 ;&st7;  " d=" M  8528.31,   281.07  L  8520.95,   285.32  " /><path style="stroke-width: 0.85 ;&st7;  " d=" M  8519.83,   290.74  L  8511.33,   290.74  " /><path style="stroke-width: 0.85 ;&st7;  " d=" M  8522.95,   288.79  L  8530.31,   284.54  " /><path style="stroke-width: 0.85 ;&st7;  " d=" M  8443.34,   350.23  L  8434.84,   350.23  " /><path style="stroke-width: 0.85 ;&st7;  " d=" M  8451.82,   281.07  L  8444.46,   285.32  " /><path style="stroke-width: 0.85 ;&st7;  " d=" M  8443.34,   290.74  L  8434.84,   290.74  " /><path style="stroke-width: 0.85 ;&st7;  " d=" M  8446.47,   288.79  L  8453.83,   284.54  " /><path style="stroke-width: 0.85 ;&st7;  " d=" M  8592.06,   252.49  L  8592.06,   260.99  " /><path style="stroke-width: 0.85 ;&st7;  " d=" M  8464.59,   307.73  L  8464.59,   297.11  " /><path style="stroke-width: 0.85 ;&st7;  " d=" M  8464.59,   292.86  L  8464.59,   273.74  " /><path style="stroke-width: 1.42 ;&st7;  " d=" M  8468.83,   292.86  L  8460.34,   292.86  " /><path style="stroke-width: 1.42 ;&st7;  " d=" M  8468.83,   297.11  L  8460.34,   297.11  " /><path style="stroke-width: 0.28 ;&st9;  " d=" M  8515.57,   290.74  L  8509.91,   282.24  L  8521.24,   282.24  L  8515.57,   290.74  " /><path style="stroke-width: 0.85 ;&st7;  " d=" M  8881.01,   222.75  L  8881.01,   256.74  L  8617.56,   256.74  " /><path style="stroke-width: 0.28 ;&st9;  " d=" M  8515.57,   350.23  L  8509.91,   341.73  L  8521.24,   341.73  L  8515.57,   350.23  " /><path style="stroke-width: 0.85 ;&st7;  " d=" M  8515.57,   375.72  L  8515.57,   333.23  L  8512.74,   331.81  L  8518.41,   328.98  L  8512.74,   326.15  L  8518.41,   323.31  L  8512.74,   320.48  L  8518.41,   317.65  L  8515.57,   316.23  L  8515.57,   256.74  " /><path style="stroke-width: 0.85 ;&st7;  " d=" M  8528.31,   281.07  L  8525.97,   284.11  L  8524.51,   281.57  L  8528.31,   281.07  L  8527.02,   281.81  L  8526.04,   283.10  L  8525.42,   282.02  L  8527.02,   281.81  L  8526.38,   282.18  L  8526.07,   282.59  L  8525.88,   282.25  L  8526.38,   282.18  " /><path style="stroke-width: 0.85 ;&st7;  " d=" M  8616.36,   255.74  L  8616.09,   256.21  L  8616.00,   256.74  L  8616.09,   257.28  L  8616.36,   257.75  L  8616.78,   258.09  L  8617.29,   258.28  L  8617.83,   258.28  L  8618.34,   258.09  L  8618.75,   257.75  L  8619.02,   257.28  L  8619.11,   256.74  L  8619.02,   256.21  L  8618.75,   255.74  L  8618.34,   255.39  L  8617.83,   255.21  L  8617.29,   255.21  L  8616.78,   255.39  L  8616.36,   255.74  L  8616.76,   256.45  L  8616.76,   257.03  L  8617.13,   257.48  L  8617.70,   257.58  L  8618.21,   257.29  L  8618.41,   256.74  L  8618.21,   256.20  L  8617.70,   255.91  L  8617.13,   256.01  L  8617.56,   256.74  " /><path style="stroke-width: 1.42 ;&st7;  " d=" M  8932.00,   273.74  L  8932.00,   290.74  L  9016.99,   290.74  L  9016.99,   273.74  L  8932.00,   273.74  " /><path style="stroke-width: 1.42 ;&st7;  " d=" M  8413.59,   222.75  L  8413.59,   375.72  L  9280.45,   375.72  L  9280.45,   222.75  L  8413.59,   222.75  " /><path style="stroke-width: 0.85 ;&st7;  " d=" M  8617.56,   256.74  L  8515.57,   256.74  " /><path style="stroke-width: 0.85 ;&st7;  " d=" M  8530.31,   284.54  L  8527.98,   287.58  L  8526.51,   285.04  L  8530.31,   284.54  L  8529.03,   285.28  L  8528.04,   286.56  L  8527.42,   285.49  L  8529.03,   285.28  L  8528.39,   285.65  L  8528.07,   286.06  L  8527.88,   285.72  L  8528.39,   285.65  " /><path style="stroke-width: 0.28 ;&st9;  " d=" M  8439.09,   290.74  L  8433.42,   282.24  L  8444.75,   282.24  L  8439.09,   290.74  " /><path style="stroke-width: 0.28 ;&st9;  " d=" M  8439.09,   350.23  L  8433.42,   341.73  L  8444.75,   341.73  L  8439.09,   350.23  " /><path style="stroke-width: 0.85 ;&st7;  " d=" M  8439.09,   375.72  L  8439.09,   333.23  L  8436.25,   331.81  L  8441.92,   328.98  L  8436.25,   326.15  L  8441.92,   323.31  L  8436.25,   320.48  L  8441.92,   317.65  L  8439.09,   316.23  L  8439.09,   256.74  " /><path style="stroke-width: 0.85 ;&st7;  " d=" M  8451.82,   281.07  L  8449.49,   284.11  L  8448.02,   281.57  L  8451.82,   281.07  L  8450.54,   281.81  L  8449.55,   283.10  L  8448.93,   282.02  L  8450.54,   281.81  L  8449.90,   282.18  L  8449.58,   282.59  L  8449.39,   282.25  L  8449.90,   282.18  " /><path style="stroke-width: 0.85 ;&st7;  " d=" M  8515.57,   256.74  L  8439.09,   256.74  " /><path style="stroke-width: 0.85 ;&st7;  " d=" M  8453.82,   284.54  L  8451.49,   287.58  L  8450.02,   285.04  L  8453.82,   284.54  L  8452.54,   285.28  L  8451.56,   286.56  L  8450.94,   285.49  L  8452.54,   285.28  L  8451.90,   285.65  L  8451.59,   286.06  L  8451.39,   285.72  L  8451.90,   285.65  " /><path style="stroke-width: 0.85 ;&st7;  " d=" M  8514.38,   255.74  L  8514.11,   256.21  L  8514.02,   256.74  L  8514.11,   257.28  L  8514.38,   257.75  L  8514.79,   258.09  L  8515.30,   258.28  L  8515.84,   258.28  L  8516.35,   258.09  L  8516.77,   257.75  L  8517.04,   257.28  L  8517.13,   256.74  L  8517.04,   256.21  L  8516.77,   255.74  L  8516.35,   255.39  L  8515.84,   255.21  L  8515.30,   255.21  L  8514.79,   255.39  L  8514.38,   255.74  L  8514.77,   256.45  L  8514.77,   257.03  L  8515.15,   257.48  L  8515.72,   257.58  L  8516.23,   257.29  L  8516.42,   256.74  L  8516.23,   256.20  L  8515.72,   255.91  L  8515.15,   256.01  L  8515.57,   256.74  " /><path style="stroke-width: 0.28 ;&st9;  " d=" M  8592.06,   256.74  L  8583.56,   262.41  L  8583.56,   251.08  L  8592.06,   256.74  " /><path style="stroke-width: 0.85 ;&st7;  " d=" M  8558.07,   307.73  L  8558.07,   299.24  L  8555.23,   297.82  L  8560.90,   294.99  L  8555.23,   292.15  L  8560.90,   289.32  L  8555.23,   286.49  L  8560.90,   283.65  L  8558.07,   282.24  L  8558.07,   273.74  " /><path style="stroke-width: 0.85 ;&st7;  " d=" M  8515.57,   273.74  L  8558.07,   273.74  " /><path style="stroke-width: 0.85 ;&st7;  " d=" M  8515.57,   307.73  L  8558.07,   307.73  " /><path style="stroke-width: 0.85 ;&st7;  " d=" M  8514.38,   272.74  L  8514.11,   273.21  L  8514.02,   273.74  L  8514.11,   274.27  L  8514.38,   274.74  L  8514.79,   275.09  L  8515.30,   275.28  L  8515.84,   275.28  L  8516.35,   275.09  L  8516.77,   274.74  L  8517.04,   274.27  L  8517.13,   273.74  L  8517.04,   273.21  L  8516.77,   272.74  L  8516.35,   272.39  L  8515.84,   272.20  L  8515.30,   272.20  L  8514.79,   272.39  L  8514.38,   272.74  L  8514.77,   273.45  L  8514.77,   274.03  L  8515.15,   274.48  L  8515.72,   274.58  L  8516.23,   274.29  L  8516.42,   273.74  L  8516.23,   273.19  L  8515.72,   272.90  L  8515.15,   273.00  L  8515.57,   273.74  " /><path style="stroke-width: 0.85 ;&st7;  " d=" M  8514.38,   306.73  L  8514.11,   307.20  L  8514.02,   307.73  L  8514.11,   308.27  L  8514.38,   308.74  L  8514.79,   309.08  L  8515.30,   309.27  L  8515.84,   309.27  L  8516.35,   309.08  L  8516.77,   308.74  L  8517.04,   308.27  L  8517.13,   307.73  L  8517.04,   307.20  L  8516.77,   306.73  L  8516.35,   306.39  L  8515.84,   306.20  L  8515.30,   306.20  L  8514.79,   306.39  L  8514.38,   306.73  L  8514.77,   307.44  L  8514.77,   308.03  L  8515.15,   308.47  L  8515.72,   308.57  L  8516.23,   308.28  L  8516.42,   307.73  L  8516.23,   307.19  L  8515.72,   306.90  L  8515.15,   307.00  L  8515.57,   307.73  " /><path style="stroke-width: 0.85 ;&st7;  " d=" M  8481.58,   307.73  L  8481.58,   299.24  L  8478.75,   297.82  L  8484.41,   294.99  L  8478.75,   292.15  L  8484.41,   289.32  L  8478.75,   286.49  L  8484.41,   283.65  L  8481.58,   282.24  L  8481.58,   273.74  " /><path style="stroke-width: 0.85 ;&st7;  " d=" M  8439.09,   273.74  L  8481.58,   273.74  " /><path style="stroke-width: 0.85 ;&st7;  " d=" M  8439.09,   307.73  L  8481.58,   307.73  " /><path style="stroke-width: 0.85 ;&st7;  " d=" M  8463.39,   272.74  L  8463.12,   273.21  L  8463.02,   273.74  L  8463.12,   274.27  L  8463.39,   274.74  L  8463.80,   275.09  L  8464.31,   275.28  L  8464.85,   275.28  L  8465.36,   275.09  L  8465.77,   274.74  L  8466.05,   274.27  L  8466.14,   273.74  L  8466.05,   273.21  L  8465.77,   272.74  L  8465.36,   272.39  L  8464.85,   272.20  L  8464.31,   272.20  L  8463.80,   272.39  L  8463.39,   272.74  L  8463.78,   273.45  L  8463.78,   274.03  L  8464.16,   274.48  L  8464.73,   274.58  L  8465.23,   274.29  L  8465.43,   273.74  L  8465.23,   273.19  L  8464.73,   272.90  L  8464.16,   273.00  L  8464.58,   273.74  " /><path style="stroke-width: 0.85 ;&st7;  " d=" M  8463.39,   306.73  L  8463.12,   307.20  L  8463.02,   307.73  L  8463.12,   308.27  L  8463.39,   308.74  L  8463.80,   309.08  L  8464.31,   309.27  L  8464.85,   309.27  L  8465.36,   309.08  L  8465.77,   308.74  L  8466.05,   308.27  L  8466.14,   307.73  L  8466.05,   307.20  L  8465.77,   306.73  L  8465.36,   306.39  L  8464.85,   306.20  L  8464.31,   306.20  L  8463.80,   306.39  L  8463.39,   306.73  L  8463.78,   307.44  L  8463.78,   308.03  L  8464.16,   308.47  L  8464.73,   308.57  L  8465.23,   308.28  L  8465.43,   307.73  L  8465.23,   307.19  L  8464.73,   306.90  L  8464.16,   307.00  L  8464.58,   307.73  " /><path style="stroke-width: 0.85 ;&st7;  " d=" M  8437.89,   306.73  L  8437.62,   307.20  L  8437.53,   307.73  L  8437.62,   308.27  L  8437.89,   308.74  L  8438.31,   309.08  L  8438.82,   309.27  L  8439.36,   309.27  L  8439.87,   309.08  L  8440.28,   308.74  L  8440.55,   308.27  L  8440.64,   307.73  L  8440.55,   307.20  L  8440.28,   306.73  L  8439.87,   306.39  L  8439.36,   306.20  L  8438.82,   306.20  L  8438.31,   306.39  L  8437.89,   306.73  L  8438.29,   307.44  L  8438.29,   308.03  L  8438.66,   308.47  L  8439.23,   308.57  L  8439.74,   308.28  L  8439.94,   307.73  L  8439.74,   307.19  L  8439.23,   306.90  L  8438.66,   307.00  L  8439.09,   307.73  " /><path style="stroke-width: 0.85 ;&st7;  " d=" M  8437.89,   272.74  L  8437.62,   273.21  L  8437.53,   273.74  L  8437.62,   274.27  L  8437.89,   274.74  L  8438.31,   275.09  L  8438.82,   275.28  L  8439.36,   275.28  L  8439.87,   275.09  L  8440.28,   274.74  L  8440.55,   274.27  L  8440.64,   273.74  L  8440.55,   273.21  L  8440.28,   272.74  L  8439.87,   272.39  L  8439.36,   272.20  L  8438.82,   272.20  L  8438.31,   272.39  L  8437.89,   272.74  L  8438.29,   273.45  L  8438.29,   274.03  L  8438.66,   274.48  L  8439.23,   274.58  L  8439.74,   274.29  L  8439.94,   273.74  L  8439.74,   273.19  L  8439.23,   272.90  L  8438.66,   273.00  L  8439.09,   273.74  " /><text style="&st18;" transform="matrix(&st16;  8560.65  230.94 )">B</text><g ewd:code="" ewd:figID="492" ewd:comment="19" ewd:figtype="commref"><text style="&st18;" transform="matrix(&st17;  8501.7  302.06 )" ewd:textID="37">Check <tspan x="0 " dy="6.0">Engine(*19)</tspan></text></g><text style="&st18;" transform="matrix(&st16;  8967.89  284.21 )">CPU</text><text style="&st18;" transform="matrix(&st17;  8431.43  299.11 )" ewd:textID="99">Sub Tank</text><text style="&st18;" transform="matrix(&st16;  8441.67  372.03 )">IND</text><text style="&st18;" transform="matrix(&st16;  8518.16  372.03 )">CHK</text><path style="stroke-width: 0.28 ;&st9;  " d=" M  8558.07,   248.24  L  8552.40,   239.75  L  8563.73,   239.75  L  8558.07,   248.24  " /><text style="&st18;" transform="matrix(&st16;  8883.6  230.94 )">B</text><text style="&st18;" transform="matrix(&st16;  9250.67  372.03 )">ES</text><path style="stroke-width: 0.85 ;&st7;  " d=" M  8558.07,   222.75  L  8558.07,   256.74  " /><path style="stroke-width: 0.85 ;&st7;  " d=" M  8556.87,   255.74  L  8556.60,   256.21  L  8556.51,   256.74  L  8556.60,   257.28  L  8556.87,   257.75  L  8557.29,   258.09  L  8557.80,   258.28  L  8558.34,   258.28  L  8558.85,   258.09  L  8559.26,   257.75  L  8559.53,   257.28  L  8559.62,   256.74  L  8559.53,   256.21  L  8559.26,   255.74  L  8558.85,   255.39  L  8558.34,   255.21  L  8557.80,   255.21  L  8557.29,   255.39  L  8556.87,   255.74  L  8557.27,   256.45  L  8557.27,   257.03  L  8557.64,   257.48  L  8558.21,   257.58  L  8558.72,   257.29  L  8558.92,   256.74  L  8558.72,   256.20  L  8558.21,   255.91  L  8557.64,   256.01  L  8558.07,   256.74  " /><path style="stroke-width: 0.85 ;&st7;  " d=" M  9135.97,   316.23  L  9127.47,   310.57  " /><path style="stroke-width: 0.85 ;&st7;  " d=" M  9008.49,   324.73  L  9000.00,   319.07  " /><path style="stroke-width: 1.42 ;&st7;  " d=" M  9000.00,   307.73  L  9000.00,   324.73  " /><path style="stroke-width: 1.42 ;&st7;  " d=" M  9127.47,   299.24  L  9127.47,   316.23  " /><path style="stroke-width: 0.85 ;&st7;  " d=" M  9008.49,   324.73  L  9006.36,   321.55  L  9004.73,   323.99  L  9008.49,   324.73  L  9007.26,   323.91  L  9006.36,   322.57  L  9005.67,   323.60  L  9007.26,   323.91  L  9006.64,   323.50  L  9006.36,   323.08  L  9006.14,   323.40  L  9006.64,   323.50  " /><path style="stroke-width: 0.85 ;&st7;  " d=" M  9008.49,   307.73  L  8999.99,   313.40  " /><path style="stroke-width: 0.85 ;&st7;  " d=" M  8974.50,   316.23  L  8999.99,   316.23  " /><path style="stroke-width: 0.85 ;&st7;  " d=" M  8974.50,   350.23  L  8974.50,   341.73  L  8971.66,   340.31  L  8977.33,   337.48  L  8971.66,   334.65  L  8977.33,   331.81  L  8971.66,   328.98  L  8977.33,   326.15  L  8974.50,   324.73  L  8974.50,   316.23  " /><path style="stroke-width: 0.85 ;&st7;  " d=" M  9100.78,   306.73  L  9100.51,   307.20  L  9100.42,   307.73  L  9100.51,   308.27  L  9100.78,   308.74  L  9101.20,   309.08  L  9101.71,   309.27  L  9102.24,   309.27  L  9102.75,   309.08  L  9103.17,   308.74  L  9103.44,   308.27  L  9103.53,   307.73  L  9103.44,   307.20  L  9103.17,   306.73  L  9102.75,   306.39  L  9102.24,   306.20  L  9101.71,   306.20  L  9101.20,   306.39  L  9100.78,   306.73  L  9101.18,   307.44  L  9101.18,   308.03  L  9101.55,   308.47  L  9102.12,   308.57  L  9102.63,   308.28  L  9102.83,   307.73  L  9102.63,   307.19  L  9102.12,   306.90  L  9101.55,   307.00  L  9101.98,   307.73  " /><path style="stroke-width: 0.85 ;&st7;  " d=" M  9066.79,   340.73  L  9066.52,   341.20  L  9066.42,   341.73  L  9066.52,   342.26  L  9066.79,   342.73  L  9067.20,   343.08  L  9067.71,   343.26  L  9068.25,   343.26  L  9068.76,   343.08  L  9069.17,   342.73  L  9069.45,   342.26  L  9069.54,   341.73  L  9069.45,   341.20  L  9069.17,   340.73  L  9068.76,   340.38  L  9068.25,   340.19  L  9067.71,   340.19  L  9067.20,   340.38  L  9066.79,   340.73  L  9067.18,   341.44  L  9067.18,   342.02  L  9067.56,   342.46  L  9068.13,   342.56  L  9068.63,   342.28  L  9068.83,   341.73  L  9068.63,   341.18  L  9068.13,   340.89  L  9067.56,   340.99  L  9067.98,   341.73  " /><path style="stroke-width: 0.85 ;&st7;  " d=" M  9169.96,   350.23  L  9169.96,   375.72  " /><path style="stroke-width: 0.85 ;&st7;  " d=" M  9063.73,   341.73  L  9072.23,   341.73  " /><path style="stroke-width: 0.85 ;&st7;  " d=" M  8974.50,   316.23  L  8974.50,   290.74  " /><path style="stroke-width: 0.85 ;&st7;  " d=" M  8973.30,   315.23  L  8973.03,   315.70  L  8972.94,   316.23  L  8973.03,   316.77  L  8973.30,   317.24  L  8973.72,   317.58  L  8974.23,   317.77  L  8974.77,   317.77  L  8975.28,   317.58  L  8975.69,   317.24  L  8975.96,   316.77  L  8976.05,   316.23  L  8975.96,   315.70  L  8975.69,   315.23  L  8975.28,   314.88  L  8974.77,   314.70  L  8974.23,   314.70  L  8973.72,   314.88  L  8973.30,   315.23  L  8973.70,   315.94  L  8973.70,   316.52  L  8974.07,   316.97  L  8974.64,   317.07  L  8975.15,   316.78  L  8975.35,   316.23  L  8975.15,   315.69  L  8974.64,   315.40  L  8974.07,   315.50  L  8974.50,   316.23  " /><path style="stroke-width: 0.85 ;&st7;  " d=" M  9135.97,   316.23  L  9135.97,   324.73  " /><path style="stroke-width: 0.85 ;&st7;  " d=" M  8999.99,   333.23  L  8995.74,   341.73  " /><path style="stroke-width: 0.85 ;&st7;  " d=" M  9016.99,   333.23  L  9012.74,   341.73  " /><path style="stroke-width: 0.85 ;&st7;  " d=" M  9008.49,   333.23  L  9004.24,   341.73  " /><path style="stroke-width: 0.85 ;&st7;  " d=" M  8999.99,   333.23  L  9016.99,   333.23  " /><path style="stroke-width: 0.85 ;&st7;  " d=" M  9008.49,   324.73  L  9008.49,   333.23  " /><path style="stroke-width: 0.85 ;&st7;  " d=" M  9127.47,   324.73  L  9144.47,   324.73  " /><path style="stroke-width: 0.85 ;&st7;  " d=" M  9135.97,   299.24  L  9127.47,   304.90  " /><path style="stroke-width: 0.85 ;&st7;  " d=" M  9135.97,   316.23  L  9133.84,   313.05  L  9132.21,   315.49  L  9135.97,   316.23  L  9134.74,   315.41  L  9133.84,   314.07  L  9133.15,   315.10  L  9134.74,   315.41  L  9134.12,   315.00  L  9133.84,   314.58  L  9133.62,   314.90  L  9134.12,   315.00  " /><path style="stroke-width: 0.85 ;&st7;  " d=" M  9008.49,   307.73  L  9127.47,   307.73  " /><path style="stroke-width: 0.85 ;&st7;  " d=" M  9135.97,   324.73  L  9131.72,   333.23  " /><path style="stroke-width: 0.85 ;&st7;  " d=" M  9144.47,   324.73  L  9140.22,   333.23  " /><path style="stroke-width: 0.85 ;&st7;  " d=" M  9169.96,   350.23  L  9169.96,   341.73  L  9167.13,   340.31  L  9172.80,   337.48  L  9167.13,   334.65  L  9172.80,   331.81  L  9167.13,   328.98  L  9172.80,   326.15  L  9169.96,   324.73  L  9169.96,   316.23  " /><path style="stroke-width: 0.85 ;&st7;  " d=" M  9127.47,   324.73  L  9123.22,   333.23  " /><path style="stroke-width: 0.85 ;&st7;  " d=" M  9135.97,   299.24  L  9169.96,   299.24  L  9169.96,   316.23  " /><path style="stroke-width: 0.85 ;&st7;  " d=" M  8974.50,   350.23  L  8974.50,   375.72  " /><path style="stroke-width: 0.85 ;&st7;  " d=" M  9067.98,   375.72  L  9067.98,   341.73  " /><text style="&st18;" transform="matrix(&st16;  8977.08  372.03 )">SI</text><text style="&st18;" transform="matrix(&st16;  9070.57  372.03 )">IG+</text><text style="&st18;" transform="matrix(&st16;  9172.55  372.03 )">+S</text><path style="stroke-width: 0.85 ;&st7;  " d=" M  8539.88,   306.73  L  8539.60,   307.20  L  8539.51,   307.73  L  8539.60,   308.27  L  8539.88,   308.74  L  8540.29,   309.08  L  8540.80,   309.27  L  8541.34,   309.27  L  8541.85,   309.08  L  8542.26,   308.74  L  8542.53,   308.27  L  8542.63,   307.73  L  8542.53,   307.20  L  8542.26,   306.73  L  8541.85,   306.39  L  8541.34,   306.20  L  8540.80,   306.20  L  8540.29,   306.39  L  8539.88,   306.73  L  8540.27,   307.44  L  8540.27,   308.03  L  8540.64,   308.47  L  8541.22,   308.57  L  8541.72,   308.28  L  8541.92,   307.73  L  8541.72,   307.19  L  8541.22,   306.90  L  8540.64,   307.00  L  8541.07,   307.73  " /><path style="stroke-width: 0.85 ;&st7;  " d=" M  8539.88,   272.74  L  8539.60,   273.21  L  8539.51,   273.74  L  8539.60,   274.27  L  8539.88,   274.74  L  8540.29,   275.09  L  8540.80,   275.28  L  8541.34,   275.28  L  8541.85,   275.09  L  8542.26,   274.74  L  8542.53,   274.27  L  8542.63,   273.74  L  8542.53,   273.21  L  8542.26,   272.74  L  8541.85,   272.39  L  8541.34,   272.20  L  8540.80,   272.20  L  8540.29,   272.39  L  8539.88,   272.74  L  8540.27,   273.45  L  8540.27,   274.03  L  8540.64,   274.48  L  8541.22,   274.58  L  8541.72,   274.29  L  8541.92,   273.74  L  8541.72,   273.19  L  8541.22,   272.90  L  8540.64,   273.00  L  8541.07,   273.74  " /><path style="stroke-width: 1.42 ;&st7;  " d=" M  8545.32,   297.11  L  8536.82,   297.11  " /><path style="stroke-width: 0.85 ;&st7;  " d=" M  8541.07,   307.73  L  8541.07,   297.11  " /><path style="stroke-width: 0.85 ;&st7;  " d=" M  8541.07,   292.86  L  8541.07,   273.74  " /><path style="stroke-width: 1.42 ;&st7;  " d=" M  8545.32,   292.86  L  8536.82,   292.86  " /><g ewd:code="" ewd:figID="495" ewd:comment="10" ewd:figtype="commref"><text style="&st18;" transform="matrix(&st17;  8446.73  364.95 )">(*10)</text></g><path style="stroke-width: 0.85 ;&st7;  " d=" M  8562.32,   248.24  L  8553.82,   248.24  " /><g ewd:code="" ewd:figID="494" ewd:comment="14" ewd:figtype="commref"><text style="&st18;" transform="matrix(&st17;  9075.62  364.95 )">(*14)</text></g><path style="stroke-width: 0.85 ;&st7;  " d=" M  9101.98,   307.73  L  9101.98,   299.24  L  9099.14,   297.82  L  9104.81,   294.99  L  9099.14,   292.15  L  9104.81,   289.32  L  9099.14,   286.49  L  9104.81,   283.65  L  9101.98,   282.24  L  9101.98,   273.74  " /><path style="stroke-width: 0.85 ;&st7;  " d=" M  9100.78,   272.74  L  9100.51,   273.21  L  9100.42,   273.74  L  9100.51,   274.27  L  9100.78,   274.74  L  9101.20,   275.09  L  9101.71,   275.28  L  9102.24,   275.28  L  9102.75,   275.09  L  9103.17,   274.74  L  9103.44,   274.27  L  9103.53,   273.74  L  9103.44,   273.21  L  9103.17,   272.74  L  9102.75,   272.39  L  9102.24,   272.20  L  9101.71,   272.20  L  9101.20,   272.39  L  9100.78,   272.74  L  9101.18,   273.45  L  9101.18,   274.03  L  9101.55,   274.48  L  9102.12,   274.58  L  9102.63,   274.29  L  9102.83,   273.74  L  9102.63,   273.19  L  9102.12,   272.90  L  9101.55,   273.00  L  9101.98,   273.74  " /><path style="stroke-width: 0.85 ;&st7;  " d=" M  9097.73,   273.74  L  9106.22,   273.74  " /><path style="stroke-width: 0.85 ;&st7;  " d=" M  8617.56,   256.74  L  8617.56,   239.75  L  8974.50,   239.75  L  8974.50,   273.74  " /><text style="&st18;" transform="matrix(&st16;  8600.79  372.03 )">CANL</text><text style="&st18;" transform="matrix(&st16;  8566.29  372.03 )">CANH</text><path style="stroke-width: 0.85 ;&st7;  " d=" M  8885.27,   299.24  L  8876.77,   299.24  " /><path style="stroke-width: 0.85 ;&st7;  " d=" M  8893.75,   289.57  L  8886.39,   293.82  " /><path style="stroke-width: 0.85 ;&st7;  " d=" M  8888.39,   297.29  L  8895.75,   293.04  " /><path style="stroke-width: 0.85 ;&st7;  " d=" M  8643.06,   260.99  L  8643.06,   252.49  " /><path style="stroke-width: 0.85 ;&st7;  " d=" M  8881.01,   256.74  L  8881.01,   307.73  L  8883.85,   309.15  L  8878.18,   311.98  L  8883.85,   314.82  L  8878.18,   317.65  L  8883.85,   320.48  L  8878.18,   323.31  L  8881.01,   324.73  L  8881.01,   333.23  " /><path style="stroke-width: 0.28 ;&st9;  " d=" M  8881.01,   299.24  L  8875.35,   290.74  L  8886.68,   290.74  L  8881.01,   299.24  " /><path style="stroke-width: 0.85 ;&st7;  " d=" M  8893.75,   289.57  L  8891.41,   292.61  L  8889.94,   290.07  L  8893.75,   289.57  L  8892.46,   290.31  L  8891.48,   291.60  L  8890.86,   290.52  L  8892.46,   290.31  L  8891.82,   290.68  L  8891.51,   291.09  L  8891.32,   290.75  L  8891.82,   290.68  " /><path style="stroke-width: 0.85 ;&st7;  " d=" M  8895.75,   293.04  L  8893.41,   296.08  L  8891.95,   293.54  L  8895.75,   293.04  L  8894.47,   293.78  L  8893.48,   295.06  L  8892.86,   293.99  L  8894.47,   293.78  L  8893.83,   294.15  L  8893.51,   294.56  L  8893.32,   294.22  L  8893.83,   294.15  " /><path style="stroke-width: 0.85 ;&st7;  " d=" M  8915.01,   350.23  L  8915.01,   358.73  " /><path style="stroke-width: 0.85 ;&st7;  " d=" M  8906.51,   358.73  L  8923.51,   358.73  " /><path style="stroke-width: 0.85 ;&st7;  " d=" M  8915.01,   358.73  L  8910.76,   367.22  " /><path style="stroke-width: 0.85 ;&st7;  " d=" M  8923.51,   358.73  L  8919.26,   367.22  " /><path style="stroke-width: 0.85 ;&st7;  " d=" M  8906.51,   358.73  L  8902.26,   367.22  " /><path style="stroke-width: 0.85 ;&st7;  " d=" M  8879.82,   255.74  L  8879.55,   256.21  L  8879.45,   256.74  L  8879.55,   257.28  L  8879.82,   257.75  L  8880.23,   258.09  L  8880.74,   258.28  L  8881.28,   258.28  L  8881.79,   258.09  L  8882.21,   257.75  L  8882.48,   257.28  L  8882.57,   256.74  L  8882.48,   256.21  L  8882.21,   255.74  L  8881.79,   255.39  L  8881.28,   255.21  L  8880.74,   255.21  L  8880.23,   255.39  L  8879.82,   255.74  L  8880.21,   256.45  L  8880.21,   257.03  L  8880.59,   257.48  L  8881.16,   257.58  L  8881.66,   257.29  L  8881.86,   256.74  L  8881.66,   256.20  L  8881.16,   255.91  L  8880.59,   256.01  L  8881.01,   256.74  " /><path style="stroke-width: 0.85 ;&st7;  " d=" M  8881.01,   333.23  L  8915.01,   333.23  " /><text style="&st18;" transform="matrix(&st17;  8867.14  304.04 )" ewd:textID="36">Check <tspan x="0 " dy="6.0">Engine</tspan></text><g ewd:code="" ewd:figID="496" ewd:comment="18" ewd:figtype="commref"><text style="&st18;" transform="matrix(&st17;  8888.65  279.97 )">(*18)</text></g><g ewd:code="" ewd:figID="493" ewd:comment="18" ewd:figtype="commref"><text style="&st18;" transform="matrix(&st17;  8948.14  330.96 )">(*18)</text></g><path style="stroke-width: 1.42 ;&st7;  " d=" M  8923.51,   350.23  L  8923.51,   333.23  " /><path style="stroke-width: 0.85 ;&st7;  " d=" M  8915.01,   333.23  L  8923.51,   338.90  " /><path style="stroke-width: 0.85 ;&st7;  " d=" M  8915.01,   350.23  L  8923.51,   344.56  " /><path style="stroke-width: 0.85 ;&st7;  " d=" M  8915.01,   350.23  L  8917.14,   347.04  L  8918.77,   349.48  L  8915.01,   350.23  L  8916.24,   349.41  L  8917.14,   348.06  L  8917.83,   349.09  L  8916.24,   349.41  L  8916.85,   348.99  L  8917.14,   348.57  L  8917.36,   348.90  L  8916.85,   348.99  " /><path style="stroke-width: 0.85 ;&st7;  " d=" M  8923.51,   341.73  L  8940.50,   341.73  L  8940.50,   290.74  " /><path style="stroke-width: 0.28 ;&st9;  " d=" M  8643.05,   256.74  L  8651.55,   251.08  L  8651.55,   262.41  L  8643.05,   256.74  " /><g ewd:code="" ewd:figID="491" ewd:comment="10" ewd:figtype="commref"><text style="&st18;" transform="matrix(&st16;  8466.36  264.38 )">(*10)</text></g><text style="&st18;" transform="matrix(&st16;  8429.61  382.22 )">8</text><text style="&st18;" transform="matrix(&st16;  8436.82  382.22 )">B</text><path style="stroke-width: 1.42 ;&st7;   " d=" M  8443.62,   380.26  C  8443.62    377.75   8441.59    375.72   8439.09    375.72  " /><path style="stroke-width: 1.42 ;&st7;   " d=" M  8439.09,   375.72  C  8436.59    375.72   8434.56    377.75   8434.56    380.26  " /><path style="stroke-width: 1.42 ;&st7;   " d=" M  8434.56,   380.26  C  8434.56    382.76   8436.59    384.79   8439.09    384.79  " /><path style="stroke-width: 1.42 ;&st7;   " d=" M  8439.09,   384.79  C  8441.59    384.79   8443.62    382.76   8443.62    380.26  " /><text style="&st18;" transform="matrix(&st16;  8502.76  382.22 )">12</text><text style="&st18;" transform="matrix(&st16;  8513.31  382.22 )">A</text><path style="stroke-width: 1.42 ;&st7;   " d=" M  8520.11,   380.26  C  8520.11    377.75   8518.08    375.72   8515.58    375.72  " /><path style="stroke-width: 1.42 ;&st7;   " d=" M  8515.58,   375.72  C  8513.07    375.72   8511.04    377.75   8511.04    380.26  " /><path style="stroke-width: 1.42 ;&st7;   " d=" M  8511.04,   380.26  C  8511.04    382.76   8513.07    384.79   8515.58    384.79  " /><path style="stroke-width: 1.42 ;&st7;   " d=" M  8515.58,   384.79  C  8518.08    384.79   8520.11    382.76   8520.11    380.26  " /><text style="&st18;" transform="matrix(&st16;  8545.26  220.18 )">28</text><text style="&st18;" transform="matrix(&st16;  8555.8  220.18 )">A</text><path style="stroke-width: 1.42 ;&st7;   " d=" M  8562.60,   218.22  C  8562.60    215.71   8560.57    213.68   8558.07    213.68  " /><path style="stroke-width: 1.42 ;&st7;   " d=" M  8558.07,   213.68  C  8555.57    213.68   8553.54    215.71   8553.54    218.22  " /><path style="stroke-width: 1.42 ;&st7;   " d=" M  8553.54,   218.22  C  8553.54    220.72   8555.57    222.75   8558.07    222.75  " /><path style="stroke-width: 1.42 ;&st7;   " d=" M  8558.07,   222.75  C  8560.57    222.75   8562.60    220.72   8562.60    218.22  " /><text style="&st18;" transform="matrix(&st16;  8562.25  382.22 )">13</text><path style="stroke-width: 1.42 ;&st7;   " d=" M  8579.60,   380.26  C  8579.60    377.75   8577.57    375.72   8575.07    375.72  " /><path style="stroke-width: 1.42 ;&st7;   " d=" M  8575.07,   375.72  C  8572.56    375.72   8570.53    377.75   8570.53    380.26  " /><path style="stroke-width: 1.42 ;&st7;   " d=" M  8570.53,   380.26  C  8570.53    382.76   8572.56    384.79   8575.07    384.79  " /><path style="stroke-width: 1.42 ;&st7;   " d=" M  8575.07,   384.79  C  8577.57    384.79   8579.60    382.76   8579.60    380.26  " /><text style="&st18;" transform="matrix(&st16;  8572.8  382.22 )">B</text><text style="&st18;" transform="matrix(&st16;  8596.25  382.22 )">14</text><text style="&st18;" transform="matrix(&st16;  8606.8  382.22 )">B</text><path style="stroke-width: 1.42 ;&st7;   " d=" M  8613.59,   380.26  C  8613.59    377.75   8611.56    375.72   8609.06    375.72  " /><path style="stroke-width: 1.42 ;&st7;   " d=" M  8609.06,   375.72  C  8606.56    375.72   8604.53    377.75   8604.53    380.26  " /><path style="stroke-width: 1.42 ;&st7;   " d=" M  8604.53,   380.26  C  8604.53    382.76   8606.56    384.79   8609.06    384.79  " /><path style="stroke-width: 1.42 ;&st7;   " d=" M  8609.06,   384.79  C  8611.56    384.79   8613.59    382.76   8613.59    380.26  " /><text style="&st18;" transform="matrix(&st16;  8868.2  220.18 )">26</text><path style="stroke-width: 1.42 ;&st7;   " d=" M  8885.55,   218.22  C  8885.55    215.71   8883.52    213.68   8881.02    213.68  " /><path style="stroke-width: 1.42 ;&st7;   " d=" M  8881.02,   213.68  C  8878.51    213.68   8876.48    215.71   8876.48    218.22  " /><path style="stroke-width: 1.42 ;&st7;   " d=" M  8876.48,   218.22  C  8876.48    220.72   8878.51    222.75   8881.02    222.75  " /><path style="stroke-width: 1.42 ;&st7;   " d=" M  8881.02,   222.75  C  8883.52    222.75   8885.55    220.72   8885.55    218.22  " /><text style="&st18;" transform="matrix(&st16;  8878.75  220.18 )">A</text><text style="&st18;" transform="matrix(&st16;  8965.02  382.22 )">9</text><path style="stroke-width: 1.42 ;&st7;   " d=" M  8979.03,   380.26  C  8979.03    377.75   8977.00    375.72   8974.50    375.72  " /><path style="stroke-width: 1.42 ;&st7;   " d=" M  8974.50,   375.72  C  8972.00    375.72   8969.97    377.75   8969.97    380.26  " /><path style="stroke-width: 1.42 ;&st7;   " d=" M  8969.97,   380.26  C  8969.97    382.76   8972.00    384.79   8974.50    384.79  " /><path style="stroke-width: 1.42 ;&st7;   " d=" M  8974.50,   384.79  C  8977.00    384.79   8979.03    382.76   8979.03    380.26  " /><text style="&st18;" transform="matrix(&st16;  8972.23  382.22 )">A</text><text style="&st18;" transform="matrix(&st16;  9055.17  382.22 )">13</text><path style="stroke-width: 1.42 ;&st7;   " d=" M  9072.52,   380.26  C  9072.52    377.75   9070.49    375.72   9067.98    375.72  " /><path style="stroke-width: 1.42 ;&st7;   " d=" M  9067.98,   375.72  C  9065.48    375.72   9063.45    377.75   9063.45    380.26  " /><path style="stroke-width: 1.42 ;&st7;   " d=" M  9063.45,   380.26  C  9063.45    382.76   9065.48    384.79   9067.98    384.79  " /><path style="stroke-width: 1.42 ;&st7;   " d=" M  9067.98,   384.79  C  9070.49    384.79   9072.52    382.76   9072.52    380.26  " /><text style="&st18;" transform="matrix(&st16;  9065.72  382.22 )">A</text><text style="&st18;" transform="matrix(&st16;  9160.49  382.22 )">8</text><path style="stroke-width: 1.42 ;&st7;   " d=" M  9174.50,   380.26  C  9174.50    377.75   9172.47    375.72   9169.97    375.72  " /><path style="stroke-width: 1.42 ;&st7;   " d=" M  9169.97,   375.72  C  9167.46    375.72   9165.44    377.75   9165.44    380.26  " /><path style="stroke-width: 1.42 ;&st7;   " d=" M  9165.44,   380.26  C  9165.44    382.76   9167.46    384.79   9169.97    384.79  " /><path style="stroke-width: 1.42 ;&st7;   " d=" M  9169.97,   384.79  C  9172.47    384.79   9174.50    382.76   9174.50    380.26  " /><text style="&st18;" transform="matrix(&st16;  9167.7  382.22 )">A</text><text style="&st18;" transform="matrix(&st16;  9242.14  382.22 )">15</text><path style="stroke-width: 1.42 ;&st7;   " d=" M  9259.49,   380.26  C  9259.49    377.75   9257.46    375.72   9254.95    375.72  " /><path style="stroke-width: 1.42 ;&st7;   " d=" M  9254.95,   375.72  C  9252.45    375.72   9250.42    377.75   9250.42    380.26  " /><path style="stroke-width: 1.42 ;&st7;   " d=" M  9250.42,   380.26  C  9250.42    382.76   9252.45    384.79   9254.95    384.79  " /><path style="stroke-width: 1.42 ;&st7;   " d=" M  9254.95,   384.79  C  9257.46    384.79   9259.49    382.76   9259.49    380.26  " /><text style="&st18;" transform="matrix(&st16;  9252.69  382.22 )">A</text><g ewd:figtype="title"><text style="&st18;" transform="matrix(&st16;  8656.65  390.44 )" ewd:textID="38">Combination Meter Assembly</text><text style="&st18;" transform="matrix(&st16;  8656.64  383.62 )">L25(A),L26(B)</text></g></g><g ewd:figtype="conn" ewd:figID="80" ewd:code="I17"><path style="stroke-width: 1.42 ;&st7;  " d=" M  8014.16,   256.74  L  8099.14,   256.74  L  8099.14,   222.75  L  8014.16,   222.75  L  8014.16,   256.74  " /><g ewd:lineID="338"><text style="&st18;" transform="matrix(&st16;  8072.48  264.94 )">13</text><text style="&st18;" transform="matrix(&st16;  8077.87  253.05 )">TC</text></g><g ewd:lineID="342"><text style="&st18;" transform="matrix(&st16;  8024.82  264.94 )">9</text><text style="&st18;" transform="matrix(&st16;  8024.86  253.05 )">TAC</text></g><g ewd:lineID="366,382"><text style="&st18;" transform="matrix(&st16;  8021.48  219.06 )">14</text><text style="&st18;" transform="matrix(&st16;  8022.88  230.38 )">CANL</text></g><g ewd:lineID="367,383"><text style="&st18;" transform="matrix(&st16;  8075.81  219.06 )">6</text><text style="&st18;" transform="matrix(&st16;  8073.37  230.38 )">CANH</text></g><g ewd:figtype="title"><text style="&st18;" transform="matrix(&st17;  8113.86  259.65 )">DLC3</text><text style="&st18;" transform="matrix(&st17;  8107.04  259.64 )">I17</text></g></g><g ewd:code="AI3" ewd:figID="201" ewd:comment="13" ewd:figtype="w2w"><text style="&st18;" transform="matrix(&st16;  8328.85  194.97 )">21</text><path style="stroke-width: 1.42 ;&st7;  " d=" M  8349.85,   206.32  L  8345.60,   202.07  L  8341.35,   206.32  " /><path style="stroke-width: 1.42 ;&st7;  " d=" M  8349.85,   202.92  L  8345.60,   198.67  L  8341.35,   202.92  " /><g ewd:code="" ewd:figID="401" ewd:comment="13" ewd:figtype="commref"><text style="&st18;" transform="matrix(&st16;  8354.64  194.97 )">(RHD *13)</text></g></g><g ewd:figtype="w2w" ewd:figID="202" ewd:code="AI3"><text style="&st18;" transform="matrix(&st16;  8328.85  186.47 )">51</text><g ewd:code="" ewd:figID="396" ewd:comment="" ewd:figtype="commref"><text style="&st18;" transform="matrix(&st16;  8354.64  186.47 )">(LHD)</text></g></g><g ewd:figtype="w2w" ewd:figID="203" ewd:code="LI1"><path style="stroke-width: 1.42 ;&st7;  " d=" M  8502.83,    89.60  L  8498.58,    93.85  L  8494.33,    89.60  " /><path style="stroke-width: 1.42 ;&st7;  " d=" M  8494.33,    86.20  L  8498.58,    90.45  L  8502.83,    86.20  "/><text style="&st18;" transform="matrix(&st16;  8481.83  101.49 )">18</text></g></svg>
