<?xml version="1.0" encoding="utf-8"?>
<!DOCTYPE svg PUBLIC "-//W3C//DTD SVG 1.0//EN" "http://www.w3.org/TR/2001/REC-SVG-20010904/DTD/svg10.dtd"[
	<!ENTITY ns_flows "http://ns.adobe.com/Flows/1.0/">
	<!ENTITY ns_svg "http://www.w3.org/2000/svg">
	<!ENTITY ns_xlink "http://www.w3.org/1999/xlink">
	<!ENTITY st0 "font-size:7px;font-family:'MS-PGothic';adobe-font-script:japanese;">
	<!ENTITY st1 "font-size:6px;font-family:'ArialMT';">
	<!-- White fill  -->
	<!ENTITY st2 "fill:#FFFFFF;stroke:#000000; stroke-width:1.41;stroke-linecap:round;stroke-linejoin:round;">
	<!-- Yellow fill  -->
	<!ENTITY st3 "fill:#FFFFCC;stroke:#FFFFCC; stroke-width:0.1;stroke-linecap:round;stroke-linejoin:round;">
	<!-- Gray fill  -->
	<!ENTITY st4 "fill:#CCCCCC;stroke:#CCCCCC; stroke-width:0.1;stroke-linecap:round;stroke-linejoin:round;">
	<!-- Light-blue fill -->
	<!ENTITY st5 "fill:#CCECF4;stroke:#000000; stroke-width:1.133;stroke-linecap:round;stroke-linejoin:round;">
	<!ENTITY st6 "fill:none;stroke-linecap:butt; stroke-linejoin:round;">
	<!ENTITY st7 "fill:none;stroke:#000000;stroke-linecap:round;stroke-linejoin:round;">
	<!ENTITY st8 "enable-background:new    ;">
	<!-- Black fill -->
	<!ENTITY st9 "fill:#000000;stroke:#000000; stroke-linecap:round;stroke-linejoin:round;">
	<!-- SRS note   -->
	<!ENTITY st10 "font-size:9px;font-family:'ArialMT';">
	<!ENTITY st11 "font-size:9px;font-family:'Svg Symbol';">
	<!ENTITY st12 "font-size:6px;font-family:'Svg Symbol';">
	<!ENTITY st13 "fill:none;stroke:#ff0000;stroke-linecap:round;stroke-linejoin:round;">
	<!-- Yellow fill  -->
	<!ENTITY st14 "fill:#FFFF00;stroke:#FFFF00; stroke-width:0.1;stroke-linecap:round;stroke-linejoin:round;">
	<!ENTITY st15 "font-size:6px;font-family:'MS-PGothic';adobe-font-script:japanese;">
	<!ENTITY st16 "1.00 0.00 0.00 1.00">
	<!ENTITY st17 "0.00 -1.00 1.00 0.00">
	<!ENTITY st18 "font-size:6px;font-family:'Arial';">
	<!ENTITY st19 "font-size:9px;font-family:'Arial';">
	<!ENTITY st20 "font-size:6px;font-family:'MS-PGothic','MS PGothic';adobe-font-script:japanese;">
	<!ENTITY st21 "font-size:7px;font-family:'MS-PGothic','MS PGothic';adobe-font-script:japanese;">
	<!ATTLIST svg
		xmlns:ewd CDATA #FIXED "http://shcl.co.jp/ewd"
		xmlns:a CDATA #FIXED "http://ns.adobe.com/AdobeSVGViewerExtensions/3.0/"
		ewd:ver CDATA #IMPLIED
	>
	<!ATTLIST a
		ewd:lineID CDATA #IMPLIED
		ewd:groupID CDATA #IMPLIED
		ewd:figtype CDATA #IMPLIED
		ewd:code CDATA #IMPLIED
		ewd:figID CDATA #IMPLIED
		ewd:pinNo CDATA #IMPLIED
		ewd:comment CDATA #IMPLIED >
	<!ATTLIST g
		ewd:lineID CDATA #IMPLIED
		ewd:groupID CDATA #IMPLIED
		ewd:figtype CDATA #IMPLIED
		ewd:code CDATA #IMPLIED
		ewd:figID CDATA #IMPLIED
		ewd:pinNo CDATA #IMPLIED
		ewd:comment CDATA #IMPLIED >
	<!ATTLIST text
		ewd:textID CDATA #IMPLIED >
	<!ATTLIST title
		ewd:textID CDATA #IMPLIED >
]>
<!-- Generator: Shintec Hozumi YS   -->
<svg onload="call_execInitLoadProc_svg('system')" style="overflow:visible;  enable-background:new 0 0 4050.115 710.000" viewBox="0 0 4050.115 710.000" height="710.000" width="4050.115" xml:space="preserve" ewd:ver="2.3.1.16" xmlns="&ns_svg;" xmlns:a="http://ns.adobe.com/AdobeSVGViewerExtensions/3.0/" xmlns:ewd="http://shcl.co.jp/ewd" xmlns:xlink="&ns_xlink;">
<text style="&st18;" transform="matrix(&st17;  3259.76  138.19 )">B-Y</text><path style="stroke-width: 1.42 ;&st7;  " d=" M  3186.97,    86.77  L  3195.47,    86.77  " /><path style="stroke-width: 1.42 ;&st7;  " d=" M  3271.95,    95.27  L  3263.45,    95.27  " /><path style="stroke-width: 1.42 ;&st7;  " d=" M  3450.42,   384.22  L  3458.92,   384.22  " /><path style="stroke-width: 1.42 ;&st7;  " d=" M  3433.43,   520.20  L  3424.93,   520.20  " /><path style="stroke-width: 1.42 ;&st7;  " d=" M  3339.94,   375.72  L  3348.44,   375.72  " /><path style="stroke-width: 1.42 ;&st7;  " d=" M  3322.94,   477.71  L  3314.45,   477.71  " /><path style="stroke-width: 1.42 ;&st7;  " d=" M  3339.94,   469.21  L  3348.44,   469.21  " /><path style="stroke-width: 1.42 ;&st7;  " d=" M  3450.42,   511.70  L  3458.92,   511.70  " /><text style="&st18;" transform="matrix(&st17;  3455.23  359.69 )">G-R</text><text style="&st18;" transform="matrix(&st17;  3455.23  478.67 )">G-R</text><text style="&st18;" transform="matrix(&st17;  3421.23  478.67 )">G-R</text><text style="&st18;" transform="matrix(&st17;  3432.57  484.99 )">(*14 *34)</text><text style="&st18;" transform="matrix(&st17;  3344.74  338.86 )">L</text><text style="&st18;" transform="matrix(&st17;  3310.75  445.09 )">L</text><text style="&st18;" transform="matrix(&st17;  3344.74  445.09 )">L</text><text style="&st18;" transform="matrix(&st17;  3356.08  449.94 )">(*15)</text><text style="&st18;" transform="matrix(&st17;  3322.08  449.94 )">(*14)</text><text style="&st18;" transform="matrix(&st17;  3466.56  484.99 )">(*15 *34)</text><text style="&st18;" transform="matrix(&st17;  3356.08  343.7 )">(*13)</text><text style="&st18;" transform="matrix(&st17;  3271.09  146.56 )">(LHD *32)</text><text style="&st18;" transform="matrix(&st16;  3077.6  643.98 )">G(*6)</text><text style="&st18;" transform="matrix(&st17;  3251.26  363.28 )">R-L</text><text style="&st18;" transform="matrix(&st17;  3262.59  364.95 )">(*32)</text><text style="&st18;" transform="matrix(&st17;  3276.76  362.51 )">SB</text><text style="&st18;" transform="matrix(&st17;  3288.09  364.95 )">(*33)</text><text style="&st18;" transform="matrix(&st17;  3296.59  146.56 )">(LHD *33)</text><text style="&st18;" transform="matrix(&st17;  3285.25  135.28 )">V</text><text style="&st18;" transform="matrix(&st17;  3466.56  360.7 )">(*32)</text><text style="&st18;" transform="matrix(&st17;  3480.72  356.4 )">R</text><text style="&st18;" transform="matrix(&st17;  3492.05  360.7 )">(*33)</text><text style="&st18;" transform="matrix(&st17;  3177.61  147.11 )">(RHD *33)</text><text style="&st18;" transform="matrix(&st17;  3166.27  135.28 )">V</text><text style="&st18;" transform="matrix(&st17;  3407.07  484.99 )">(*14 *35)</text><text style="&st18;" transform="matrix(&st17;  3395.74  477.24 )">SB</text><text style="&st18;" transform="matrix(&st17;  3480.72  477.24 )">SB</text><text style="&st18;" transform="matrix(&st17;  3492.06  484.99 )">(*15 *35)</text><text style="&st18;" transform="matrix(&st16;  3206.87  145.4 )">(RHD *32)</text><text style="&st18;" transform="matrix(&st16;  3215.79  134.07 )">B-Y</text><text style="&st18;" transform="matrix(&st16;  3128.91  15.09 )">V(LHD *35)</text><text style="&st18;" transform="matrix(&st16;  3060.92  15.09 )">V(LHD *35)</text><text style="&st18;" transform="matrix(&st16;  3125.96  32.08 )">B-Y(LHD *34)</text><text style="&st18;" transform="matrix(&st16;  3057.97  32.08 )">B-Y(LHD *34)</text><text style="&st18;" transform="matrix(&st16;  3128.37  49.08 )">V(RHD *35)</text><text style="&st18;" transform="matrix(&st16;  3060.38  49.08 )">V(RHD *35)</text><text style="&st18;" transform="matrix(&st16;  3125.46  66.08 )">B-Y(RHD *34)</text><text style="&st18;" transform="matrix(&st16;  3057.47  66.08 )">B-Y(RHD *34)</text><text style="&st18;" transform="matrix(&st16;  3135.81  338.03 )">Y(*33)</text><text style="&st18;" transform="matrix(&st16;  3067.82  338.03 )">Y(*33)</text><text style="&st18;" transform="matrix(&st16;  3132.67  355.03 )">R-Y(*32)</text><text style="&st18;" transform="matrix(&st16;  3064.68  355.03 )">R-Y(*32)</text><text style="&st18;" transform="matrix(&st16;  3132.94  372.03 )">R-L(*32)</text><text style="&st18;" transform="matrix(&st16;  3064.95  372.03 )">R-L(*32)</text><text style="&st18;" transform="matrix(&st16;  3133.72  389.02 )">SB(*33)</text><text style="&st18;" transform="matrix(&st16;  3065.73  389.02 )">SB(*33)</text><text style="&st18;" transform="matrix(&st16;  3136.08  414.52 )">L(*14)</text><text style="&st18;" transform="matrix(&st16;  3068.09  414.52 )">L(*14)</text><text style="&st18;" transform="matrix(&st16;  3136.08  431.52 )">L(*15)</text><text style="&st18;" transform="matrix(&st16;  3068.09  431.52 )">L(*15)</text><text style="&st18;" transform="matrix(&st16;  3132.24  448.51 )">G-R(*14)</text><text style="&st18;" transform="matrix(&st16;  3064.26  448.51 )">G-R(*14)</text><text style="&st18;" transform="matrix(&st16;  3132.24  465.51 )">G-R(*15)</text><text style="&st18;" transform="matrix(&st16;  3064.26  465.51 )">G-R(*15)</text><text style="&st18;" transform="matrix(&st16;  3128.59  643.98 )">G(*6)</text><text style="&st18;" transform="matrix(&st16;  3082.41  660.98 )">G</text><text style="&st18;" transform="matrix(&st16;  3079.93  672.31 )">(*5)</text><text style="&st18;" transform="matrix(&st16;  3133.4  660.98 )">G</text><text style="&st18;" transform="matrix(&st16;  3130.92  672.31 )">(*5)</text><text style="&st18;" transform="matrix(&st16;  3072.75  626.98 )">G-R(*23)</text><text style="&st18;" transform="matrix(&st16;  3123.75  626.98 )">G-R(*23)</text><text style="&st18;" transform="matrix(&st16;  3072.75  609.99 )">G-R(*12)</text><text style="&st18;" transform="matrix(&st16;  3123.75  609.99 )">G-R(*12)</text><text style="&st18;" transform="matrix(&st17;  3310.75  513.08 )">L</text><text style="&st18;" transform="matrix(&st17;  3322.08  517.93 )">(*14)</text><text style="&st18;" transform="matrix(&st17;  3344.74  513.08 )">L</text><text style="&st18;" transform="matrix(&st17;  3356.08  517.93 )">(*15)</text><g ewd:code="L25" ewd:figID="11" ewd:comment="13" ewd:figtype="conn"><path style="stroke-width: 1.42 ;&st7;  " d=" M  3208.21,   237.62  L  3199.72,   237.62  " /><path style="stroke-width: 1.42 ;&st7;  " d=" M  3208.21,   233.37  L  3199.72,   233.37  " /><path style="stroke-width: 0.85 ;&st7;  " d=" M  3203.96,   233.37  L  3203.96,   222.75  " /><path style="stroke-width: 0.85 ;&st7;  " d=" M  3203.96,   248.24  L  3203.96,   237.62  " /><path style="stroke-width: 0.85 ;&st7;  " d=" M  3305.95,   210.00  L  3305.95,   218.50  " /><path style="stroke-width: 0.85 ;&st7;  " d=" M  3531.16,   205.75  L  3522.66,   205.75  " /><path style="stroke-width: 0.85 ;&st7;  " d=" M  3267.70,   205.75  L  3259.21,   205.75  " /><path style="stroke-width: 0.85 ;&st7;  " d=" M  3259.21,   299.24  L  3250.71,   299.24  " /><path style="stroke-width: 0.85 ;&st7;  " d=" M  3267.69,   230.08  L  3260.33,   234.33  " /><path style="stroke-width: 0.85 ;&st7;  " d=" M  3259.21,   239.75  L  3250.71,   239.75  " /><path style="stroke-width: 0.85 ;&st7;  " d=" M  3262.33,   237.80  L  3269.69,   233.55  " /><path style="stroke-width: 0.85 ;&st7;  " d=" M  3182.72,   299.24  L  3174.22,   299.24  " /><path style="stroke-width: 0.85 ;&st7;  " d=" M  3191.20,   230.08  L  3183.84,   234.33  " /><path style="stroke-width: 0.85 ;&st7;  " d=" M  3182.72,   239.75  L  3174.22,   239.75  " /><path style="stroke-width: 0.85 ;&st7;  " d=" M  3185.85,   237.80  L  3193.21,   233.55  " /><path style="stroke-width: 0.85 ;&st7;  " d=" M  3280.45,   233.37  L  3280.45,   222.75  " /><path style="stroke-width: 0.85 ;&st7;  " d=" M  3280.45,   248.24  L  3280.45,   237.62  " /><path style="stroke-width: 0.85 ;&st7;  " d=" M  3254.95,   248.24  L  3280.45,   248.24  " /><path style="stroke-width: 0.85 ;&st7;  " d=" M  3254.95,   282.24  L  3297.45,   282.24  " /><path style="stroke-width: 0.85 ;&st7;  " d=" M  3279.26,   221.75  L  3278.99,   222.22  L  3278.89,   222.75  L  3278.99,   223.28  L  3279.26,   223.75  L  3279.67,   224.10  L  3280.18,   224.28  L  3280.72,   224.28  L  3281.23,   224.10  L  3281.64,   223.75  L  3281.92,   223.28  L  3282.01,   222.75  L  3281.92,   222.22  L  3281.64,   221.75  L  3281.23,   221.40  L  3280.72,   221.21  L  3280.18,   221.21  L  3279.67,   221.40  L  3279.26,   221.75  L  3279.65,   222.46  L  3279.65,   223.04  L  3280.03,   223.48  L  3280.60,   223.58  L  3281.10,   223.30  L  3281.30,   222.75  L  3281.10,   222.20  L  3280.60,   221.91  L  3280.03,   222.01  L  3280.45,   222.75  " /><path style="stroke-width: 0.85 ;&st7;  " d=" M  3254.95,   222.75  L  3297.45,   222.75  L  3297.45,   248.24  " /><path style="stroke-width: 0.85 ;&st7;  " d=" M  3297.45,   282.24  L  3297.45,   273.74  L  3294.61,   272.32  L  3300.28,   269.49  L  3294.61,   266.66  L  3300.28,   263.82  L  3294.61,   260.99  L  3300.28,   258.16  L  3297.45,   256.74  L  3297.45,   248.24  " /><path style="stroke-width: 0.85 ;&st7;  " d=" M  3177.27,   221.75  L  3177.00,   222.22  L  3176.91,   222.75  L  3177.00,   223.28  L  3177.27,   223.75  L  3177.69,   224.10  L  3178.20,   224.28  L  3178.74,   224.28  L  3179.25,   224.10  L  3179.66,   223.75  L  3179.93,   223.28  L  3180.03,   222.75  L  3179.93,   222.22  L  3179.66,   221.75  L  3179.25,   221.40  L  3178.74,   221.21  L  3178.20,   221.21  L  3177.69,   221.40  L  3177.27,   221.75  L  3177.67,   222.46  L  3177.67,   223.04  L  3178.04,   223.48  L  3178.61,   223.58  L  3179.12,   223.30  L  3179.32,   222.75  L  3179.12,   222.20  L  3178.61,   221.91  L  3178.04,   222.01  L  3178.47,   222.75  " /><path style="stroke-width: 0.85 ;&st7;  " d=" M  3177.27,   247.24  L  3177.00,   247.71  L  3176.91,   248.24  L  3177.00,   248.78  L  3177.27,   249.25  L  3177.69,   249.59  L  3178.20,   249.78  L  3178.74,   249.78  L  3179.25,   249.59  L  3179.66,   249.25  L  3179.93,   248.78  L  3180.03,   248.24  L  3179.93,   247.71  L  3179.66,   247.24  L  3179.25,   246.90  L  3178.74,   246.71  L  3178.20,   246.71  L  3177.69,   246.90  L  3177.27,   247.24  L  3177.67,   247.95  L  3177.67,   248.54  L  3178.04,   248.98  L  3178.61,   249.08  L  3179.12,   248.79  L  3179.32,   248.24  L  3179.12,   247.70  L  3178.61,   247.41  L  3178.04,   247.51  L  3178.47,   248.24  " /><path style="stroke-width: 0.85 ;&st7;  " d=" M  3178.47,   248.24  L  3203.96,   248.24  " /><path style="stroke-width: 0.85 ;&st7;  " d=" M  3177.27,   281.24  L  3177.00,   281.71  L  3176.91,   282.24  L  3177.00,   282.77  L  3177.27,   283.24  L  3177.69,   283.59  L  3178.20,   283.77  L  3178.74,   283.77  L  3179.25,   283.59  L  3179.66,   283.24  L  3179.93,   282.77  L  3180.03,   282.24  L  3179.93,   281.71  L  3179.66,   281.24  L  3179.25,   280.89  L  3178.74,   280.70  L  3178.20,   280.70  L  3177.69,   280.89  L  3177.27,   281.24  L  3177.67,   281.95  L  3177.67,   282.53  L  3178.04,   282.97  L  3178.61,   283.07  L  3179.12,   282.79  L  3179.32,   282.24  L  3179.12,   281.69  L  3178.61,   281.40  L  3178.04,   281.50  L  3178.47,   282.24  " /><path style="stroke-width: 0.85 ;&st7;  " d=" M  3178.47,   282.24  L  3220.96,   282.24  " /><path style="stroke-width: 0.85 ;&st7;  " d=" M  3202.77,   221.75  L  3202.50,   222.22  L  3202.41,   222.75  L  3202.50,   223.28  L  3202.77,   223.75  L  3203.18,   224.10  L  3203.69,   224.28  L  3204.23,   224.28  L  3204.74,   224.10  L  3205.16,   223.75  L  3205.43,   223.28  L  3205.52,   222.75  L  3205.43,   222.22  L  3205.16,   221.75  L  3204.74,   221.40  L  3204.23,   221.21  L  3203.69,   221.21  L  3203.18,   221.40  L  3202.77,   221.75  L  3203.16,   222.46  L  3203.16,   223.04  L  3203.54,   223.48  L  3204.11,   223.58  L  3204.61,   223.30  L  3204.81,   222.75  L  3204.61,   222.20  L  3204.11,   221.91  L  3203.54,   222.01  L  3203.96,   222.75  " /><path style="stroke-width: 0.85 ;&st7;  " d=" M  3178.47,   222.75  L  3220.96,   222.75  L  3220.96,   248.24  " /><path style="stroke-width: 0.85 ;&st7;  " d=" M  3220.96,   282.24  L  3220.96,   273.74  L  3218.13,   272.32  L  3223.79,   269.49  L  3218.13,   266.66  L  3223.79,   263.82  L  3218.13,   260.99  L  3223.79,   258.16  L  3220.96,   256.74  L  3220.96,   248.24  " /><path style="stroke-width: 0.28 ;&st9;  " d=" M  3305.95,   214.25  L  3297.45,   219.92  L  3297.45,   208.58  L  3305.95,   214.25  " /><path style="stroke-width: 0.28 ;&st9;  " d=" M  3526.91,   205.75  L  3521.24,   197.25  L  3532.57,   197.25  L  3526.91,   205.75  " /><path style="stroke-width: 0.28 ;&st9;  " d=" M  3263.45,   205.75  L  3257.79,   197.25  L  3269.12,   197.25  L  3263.45,   205.75  " /><path style="stroke-width: 0.28 ;&st9;  " d=" M  3254.95,   239.75  L  3249.29,   231.25  L  3260.62,   231.25  L  3254.95,   239.75  " /><path style="stroke-width: 0.28 ;&st9;  " d=" M  3254.95,   299.24  L  3249.29,   290.74  L  3260.62,   290.74  L  3254.95,   299.24  " /><path style="stroke-width: 0.85 ;&st7;  " d=" M  3254.95,   316.23  L  3254.95,   273.74  L  3252.12,   272.32  L  3257.79,   269.49  L  3252.12,   266.66  L  3257.79,   263.82  L  3252.12,   260.99  L  3257.79,   258.16  L  3254.95,   256.74  L  3254.95,   214.25  " /><path style="stroke-width: 0.85 ;&st7;  " d=" M  3267.69,   230.08  L  3265.35,   233.12  L  3263.89,   230.58  L  3267.69,   230.08  L  3266.41,   230.82  L  3265.42,   232.11  L  3264.80,   231.03  L  3266.41,   230.82  L  3265.76,   231.19  L  3265.45,   231.60  L  3265.26,   231.26  L  3265.76,   231.19  " /><path style="stroke-width: 0.85 ;&st7;  " d=" M  3269.69,   233.55  L  3267.36,   236.59  L  3265.89,   234.05  L  3269.69,   233.55  L  3268.41,   234.29  L  3267.43,   235.57  L  3266.80,   234.50  L  3268.41,   234.29  L  3267.77,   234.66  L  3267.46,   235.07  L  3267.26,   234.73  L  3267.77,   234.66  " /><path style="stroke-width: 0.85 ;&st7;  " d=" M  3253.76,   213.25  L  3253.49,   213.72  L  3253.40,   214.25  L  3253.49,   214.78  L  3253.76,   215.25  L  3254.18,   215.60  L  3254.69,   215.79  L  3255.22,   215.79  L  3255.73,   215.60  L  3256.15,   215.25  L  3256.42,   214.78  L  3256.51,   214.25  L  3256.42,   213.72  L  3256.15,   213.25  L  3255.73,   212.90  L  3255.22,   212.71  L  3254.69,   212.71  L  3254.18,   212.90  L  3253.76,   213.25  L  3254.16,   213.96  L  3254.16,   214.54  L  3254.53,   214.99  L  3255.10,   215.09  L  3255.61,   214.80  L  3255.80,   214.25  L  3255.61,   213.70  L  3255.10,   213.41  L  3254.53,   213.51  L  3254.95,   214.25  " /><path style="stroke-width: 0.85 ;&st7;  " d=" M  3262.26,   213.25  L  3261.99,   213.72  L  3261.90,   214.25  L  3261.99,   214.78  L  3262.26,   215.25  L  3262.67,   215.60  L  3263.18,   215.79  L  3263.72,   215.79  L  3264.23,   215.60  L  3264.65,   215.25  L  3264.92,   214.78  L  3265.01,   214.25  L  3264.92,   213.72  L  3264.65,   213.25  L  3264.23,   212.90  L  3263.72,   212.71  L  3263.18,   212.71  L  3262.67,   212.90  L  3262.26,   213.25  L  3262.65,   213.96  L  3262.65,   214.54  L  3263.03,   214.99  L  3263.60,   215.09  L  3264.10,   214.80  L  3264.30,   214.25  L  3264.10,   213.70  L  3263.60,   213.41  L  3263.03,   213.51  L  3263.45,   214.25  " /><path style="stroke-width: 0.28 ;&st9;  " d=" M  3178.47,   239.75  L  3172.80,   231.25  L  3184.13,   231.25  L  3178.47,   239.75  " /><path style="stroke-width: 0.85 ;&st7;  " d=" M  3526.91,   180.26  L  3526.91,   214.25  L  3467.42,   214.25  L  3467.42,   231.25  " /><path style="stroke-width: 0.28 ;&st9;  " d=" M  3178.47,   299.24  L  3172.80,   290.74  L  3184.13,   290.74  L  3178.47,   299.24  " /><path style="stroke-width: 0.85 ;&st7;  " d=" M  3178.47,   316.23  L  3178.47,   273.74  L  3175.63,   272.32  L  3181.30,   269.49  L  3175.63,   266.66  L  3181.30,   263.82  L  3175.63,   260.99  L  3181.30,   258.16  L  3178.47,   256.74  L  3178.47,   214.25  " /><path style="stroke-width: 0.85 ;&st7;  " d=" M  3191.20,   230.08  L  3188.87,   233.12  L  3187.40,   230.58  L  3191.20,   230.08  L  3189.92,   230.82  L  3188.93,   232.11  L  3188.31,   231.03  L  3189.92,   230.82  L  3189.28,   231.19  L  3188.97,   231.60  L  3188.77,   231.26  L  3189.28,   231.19  " /><path style="stroke-width: 0.85 ;&st7;  " d=" M  3263.45,   180.26  L  3263.45,   214.25  " /><path style="stroke-width: 0.85 ;&st7;  " d=" M  3466.23,   213.25  L  3465.95,   213.72  L  3465.86,   214.25  L  3465.95,   214.78  L  3466.23,   215.25  L  3466.64,   215.60  L  3467.15,   215.79  L  3467.69,   215.79  L  3468.20,   215.60  L  3468.61,   215.25  L  3468.88,   214.78  L  3468.98,   214.25  L  3468.88,   213.72  L  3468.61,   213.25  L  3468.20,   212.90  L  3467.69,   212.71  L  3467.15,   212.71  L  3466.64,   212.90  L  3466.23,   213.25  L  3466.62,   213.96  L  3466.62,   214.54  L  3466.99,   214.99  L  3467.57,   215.09  L  3468.07,   214.80  L  3468.27,   214.25  L  3468.07,   213.70  L  3467.57,   213.41  L  3466.99,   213.51  L  3467.42,   214.25  " /><path style="stroke-width: 1.42 ;&st7;  " d=" M  3424.93,   231.25  L  3424.93,   248.24  L  3509.91,   248.24  L  3509.91,   231.25  L  3424.93,   231.25  " /><path style="stroke-width: 1.42 ;&st7;  " d=" M  3144.47,   180.26  L  3144.47,   316.23  L  3934.84,   316.23  L  3934.84,   180.26  L  3144.47,   180.26  " /><path style="stroke-width: 0.85 ;&st7;  " d=" M  3467.42,   214.25  L  3178.47,   214.25  " /><path style="stroke-width: 0.85 ;&st7;  " d=" M  3193.20,   233.55  L  3190.87,   236.59  L  3189.40,   234.05  L  3193.20,   233.55  L  3191.92,   234.29  L  3190.94,   235.57  L  3190.32,   234.50  L  3191.92,   234.29  L  3191.28,   234.66  L  3190.97,   235.07  L  3190.77,   234.73  L  3191.28,   234.66  " /><text style="&st18;" transform="matrix(&st16;  3905.06  312.54 )">ES</text><text style="&st18;" transform="matrix(&st16;  3529.49  188.45 )">B</text><text style="&st18;" transform="matrix(&st16;  3266.04  188.45 )">B</text><text style="&st18;" transform="matrix(&st16;  3257.54  312.54 )">RRSW</text><text style="&st18;" transform="matrix(&st16;  3181.05  312.54 )">FRSW</text><text style="&st18;" transform="matrix(&st17;  3241.08  247.85 )" ewd:textID="60">Rear <tspan x="0 " dy="6.0">Diff. Lock</tspan></text><path style="stroke-width: 0.85 ;&st7;  " d=" M  3253.76,   281.24  L  3253.49,   281.71  L  3253.40,   282.24  L  3253.49,   282.77  L  3253.76,   283.24  L  3254.18,   283.59  L  3254.69,   283.77  L  3255.22,   283.77  L  3255.73,   283.59  L  3256.15,   283.24  L  3256.42,   282.77  L  3256.51,   282.24  L  3256.42,   281.71  L  3256.15,   281.24  L  3255.73,   280.89  L  3255.22,   280.70  L  3254.69,   280.70  L  3254.18,   280.89  L  3253.76,   281.24  L  3254.16,   281.95  L  3254.16,   282.53  L  3254.53,   282.97  L  3255.10,   283.07  L  3255.61,   282.79  L  3255.80,   282.24  L  3255.61,   281.69  L  3255.10,   281.40  L  3254.53,   281.50  L  3254.95,   282.24  " /><path style="stroke-width: 0.85 ;&st7;  " d=" M  3253.76,   247.24  L  3253.49,   247.71  L  3253.40,   248.24  L  3253.49,   248.78  L  3253.76,   249.25  L  3254.18,   249.59  L  3254.69,   249.78  L  3255.22,   249.78  L  3255.73,   249.59  L  3256.15,   249.25  L  3256.42,   248.78  L  3256.51,   248.24  L  3256.42,   247.71  L  3256.15,   247.24  L  3255.73,   246.90  L  3255.22,   246.71  L  3254.69,   246.71  L  3254.18,   246.90  L  3253.76,   247.24  L  3254.16,   247.95  L  3254.16,   248.54  L  3254.53,   248.98  L  3255.10,   249.08  L  3255.61,   248.79  L  3255.80,   248.24  L  3255.61,   247.70  L  3255.10,   247.41  L  3254.53,   247.51  L  3254.95,   248.24  " /><path style="stroke-width: 0.85 ;&st7;  " d=" M  3253.76,   221.75  L  3253.49,   222.22  L  3253.40,   222.75  L  3253.49,   223.28  L  3253.76,   223.75  L  3254.18,   224.10  L  3254.69,   224.28  L  3255.22,   224.28  L  3255.73,   224.10  L  3256.15,   223.75  L  3256.42,   223.28  L  3256.51,   222.75  L  3256.42,   222.22  L  3256.15,   221.75  L  3255.73,   221.40  L  3255.22,   221.21  L  3254.69,   221.21  L  3254.18,   221.40  L  3253.76,   221.75  L  3254.16,   222.46  L  3254.16,   223.04  L  3254.53,   223.48  L  3255.10,   223.58  L  3255.61,   223.30  L  3255.80,   222.75  L  3255.61,   222.20  L  3255.10,   221.91  L  3254.53,   222.01  L  3254.95,   222.75  " /><text style="&st18;" transform="matrix(&st17;  3164.59  247.85 )" ewd:textID="32">Front <tspan x="0 " dy="6.0">Diff. Lock</tspan></text><text style="&st18;" transform="matrix(&st16;  3460.81  241.71 )">CPU</text><path style="stroke-width: 1.42 ;&st7;  " d=" M  3284.70,   237.62  L  3276.20,   237.62  " /><path style="stroke-width: 1.42 ;&st7;  " d=" M  3284.70,   233.37  L  3276.20,   233.37  " /><path style="stroke-width: 1.42 ;&st7;  " d=" M  3577.90,   256.74  L  3577.90,   273.74  " /><path style="stroke-width: 1.42 ;&st7;  " d=" M  3492.92,   265.24  L  3492.92,   282.24  " /><path style="stroke-width: 0.85 ;&st7;  " d=" M  3501.41,   282.24  L  3492.92,   276.57  " /><path style="stroke-width: 0.85 ;&st7;  " d=" M  3586.40,   273.74  L  3577.90,   268.07  " /><path style="stroke-width: 0.85 ;&st7;  " d=" M  3348.44,   316.23  L  3348.44,   282.24  " /><path style="stroke-width: 0.85 ;&st7;  " d=" M  3586.40,   256.74  L  3705.38,   256.74  L  3705.38,   273.74  " /><path style="stroke-width: 0.85 ;&st7;  " d=" M  3577.90,   282.24  L  3573.65,   290.74  " /><path style="stroke-width: 0.85 ;&st7;  " d=" M  3705.38,   316.23  L  3705.38,   299.24  L  3702.55,   297.82  L  3708.21,   294.99  L  3702.55,   292.15  L  3708.21,   289.32  L  3702.55,   286.49  L  3708.21,   283.65  L  3705.38,   282.24  L  3705.38,   273.74  " /><path style="stroke-width: 0.85 ;&st7;  " d=" M  3594.90,   282.24  L  3590.65,   290.74  " /><path style="stroke-width: 0.85 ;&st7;  " d=" M  3586.40,   282.24  L  3582.15,   290.74  " /><path style="stroke-width: 0.85 ;&st7;  " d=" M  3501.41,   265.24  L  3577.90,   265.24  " /><path style="stroke-width: 0.85 ;&st7;  " d=" M  3586.40,   273.74  L  3584.27,   270.56  L  3582.64,   273.00  L  3586.40,   273.74  L  3585.17,   272.92  L  3584.27,   271.58  L  3583.58,   272.60  L  3585.17,   272.92  L  3584.55,   272.51  L  3584.27,   272.09  L  3584.05,   272.41  L  3584.55,   272.51  " /><path style="stroke-width: 0.85 ;&st7;  " d=" M  3586.40,   256.74  L  3577.90,   262.41  " /><path style="stroke-width: 0.85 ;&st7;  " d=" M  3577.90,   282.24  L  3594.90,   282.24  " /><path style="stroke-width: 0.85 ;&st7;  " d=" M  3501.41,   282.24  L  3501.41,   290.74  " /><path style="stroke-width: 0.85 ;&st7;  " d=" M  3492.91,   290.74  L  3509.91,   290.74  " /><path style="stroke-width: 0.85 ;&st7;  " d=" M  3501.41,   290.74  L  3497.16,   299.24  " /><path style="stroke-width: 0.85 ;&st7;  " d=" M  3509.91,   290.74  L  3505.66,   299.24  " /><path style="stroke-width: 0.85 ;&st7;  " d=" M  3492.91,   290.74  L  3488.67,   299.24  " /><path style="stroke-width: 0.85 ;&st7;  " d=" M  3586.40,   273.74  L  3586.40,   282.24  " /><path style="stroke-width: 0.85 ;&st7;  " d=" M  3457.73,   272.74  L  3457.46,   273.21  L  3457.36,   273.74  L  3457.46,   274.27  L  3457.73,   274.74  L  3458.14,   275.09  L  3458.65,   275.28  L  3459.19,   275.28  L  3459.70,   275.09  L  3460.11,   274.74  L  3460.39,   274.27  L  3460.48,   273.74  L  3460.39,   273.21  L  3460.11,   272.74  L  3459.70,   272.39  L  3459.19,   272.20  L  3458.65,   272.20  L  3458.14,   272.39  L  3457.73,   272.74  L  3458.12,   273.45  L  3458.12,   274.03  L  3458.50,   274.48  L  3459.07,   274.58  L  3459.57,   274.29  L  3459.77,   273.74  L  3459.57,   273.19  L  3459.07,   272.90  L  3458.50,   273.00  L  3458.92,   273.74  " /><path style="stroke-width: 0.85 ;&st7;  " d=" M  3458.92,   273.74  L  3458.92,   248.24  " /><path style="stroke-width: 0.85 ;&st7;  " d=" M  3344.19,   282.24  L  3352.69,   282.24  " /><path style="stroke-width: 0.85 ;&st7;  " d=" M  3551.21,   230.24  L  3550.94,   230.71  L  3550.85,   231.25  L  3550.94,   231.78  L  3551.21,   232.25  L  3551.63,   232.60  L  3552.14,   232.78  L  3552.67,   232.78  L  3553.18,   232.60  L  3553.60,   232.25  L  3553.87,   231.78  L  3553.96,   231.25  L  3553.87,   230.71  L  3553.60,   230.24  L  3553.18,   229.90  L  3552.67,   229.71  L  3552.14,   229.71  L  3551.63,   229.90  L  3551.21,   230.24  L  3551.61,   230.96  L  3551.61,   231.54  L  3551.98,   231.98  L  3552.55,   232.08  L  3553.06,   231.79  L  3553.25,   231.25  L  3553.06,   230.70  L  3552.55,   230.41  L  3551.98,   230.51  L  3552.40,   231.25  " /><path style="stroke-width: 0.85 ;&st7;  " d=" M  3551.21,   264.24  L  3550.94,   264.71  L  3550.85,   265.24  L  3550.94,   265.77  L  3551.21,   266.24  L  3551.63,   266.59  L  3552.14,   266.78  L  3552.67,   266.78  L  3553.18,   266.59  L  3553.60,   266.24  L  3553.87,   265.77  L  3553.96,   265.24  L  3553.87,   264.71  L  3553.60,   264.24  L  3553.18,   263.89  L  3552.67,   263.71  L  3552.14,   263.71  L  3551.63,   263.89  L  3551.21,   264.24  L  3551.61,   264.95  L  3551.61,   265.53  L  3551.98,   265.98  L  3552.55,   266.08  L  3553.06,   265.79  L  3553.25,   265.24  L  3553.06,   264.69  L  3552.55,   264.41  L  3551.98,   264.50  L  3552.40,   265.24  " /><path style="stroke-width: 0.85 ;&st7;  " d=" M  3458.92,   316.23  L  3458.92,   299.24  L  3456.09,   297.82  L  3461.75,   294.99  L  3456.09,   292.15  L  3461.75,   289.32  L  3456.09,   286.49  L  3461.75,   283.65  L  3458.92,   282.24  L  3458.92,   273.74  " /><path style="stroke-width: 0.85 ;&st7;  " d=" M  3458.92,   273.74  L  3492.91,   273.74  " /><path style="stroke-width: 0.85 ;&st7;  " d=" M  3501.41,   265.24  L  3492.91,   270.91  " /><path style="stroke-width: 0.85 ;&st7;  " d=" M  3501.41,   282.24  L  3499.28,   279.05  L  3497.65,   281.50  L  3501.41,   282.24  L  3500.18,   281.42  L  3499.28,   280.07  L  3498.59,   281.10  L  3500.18,   281.42  L  3499.57,   281.01  L  3499.28,   280.58  L  3499.07,   280.91  L  3499.57,   281.01  " /><text style="&st18;" transform="matrix(&st16;  3707.96  312.54 )">+S</text><text style="&st18;" transform="matrix(&st16;  3351.02  312.54 )">IG+</text><text style="&st18;" transform="matrix(&st16;  3461.51  312.54 )">SI</text><path style="stroke-width: 0.85 ;&st7;  " d=" M  3548.16,   231.25  L  3556.65,   231.25  " /><path style="stroke-width: 0.85 ;&st7;  " d=" M  3347.25,   281.24  L  3346.97,   281.71  L  3346.88,   282.24  L  3346.97,   282.77  L  3347.25,   283.24  L  3347.66,   283.59  L  3348.17,   283.77  L  3348.71,   283.77  L  3349.22,   283.59  L  3349.63,   283.24  L  3349.90,   282.77  L  3350.00,   282.24  L  3349.90,   281.71  L  3349.63,   281.24  L  3349.22,   280.89  L  3348.71,   280.70  L  3348.17,   280.70  L  3347.66,   280.89  L  3347.25,   281.24  L  3347.64,   281.95  L  3347.64,   282.53  L  3348.01,   282.97  L  3348.59,   283.07  L  3349.09,   282.79  L  3349.29,   282.24  L  3349.09,   281.69  L  3348.59,   281.40  L  3348.01,   281.50  L  3348.44,   282.24  " /><path style="stroke-width: 0.85 ;&st7;  " d=" M  3552.40,   265.24  L  3552.40,   256.74  L  3549.57,   255.33  L  3555.24,   252.49  L  3549.57,   249.66  L  3555.24,   246.83  L  3549.57,   243.99  L  3555.24,   241.16  L  3552.40,   239.75  L  3552.40,   231.25  " /><g ewd:code="" ewd:figID="311" ewd:comment="13" ewd:figtype="commref"><text style="&st18;" transform="matrix(&st17;  3356.08  301.21 )">(*13)</text></g><text style="&st18;" transform="matrix(&st16;  3165.65  322.73 )">16</text><path style="stroke-width: 1.42 ;&st7;   " d=" M  3183.00,   320.77  C  3183.00    318.26   3180.97    316.23   3178.47    316.23  " /><path style="stroke-width: 1.42 ;&st7;   " d=" M  3178.47,   316.23  C  3175.97    316.23   3173.94    318.26   3173.94    320.77  " /><path style="stroke-width: 1.42 ;&st7;   " d=" M  3173.94,   320.77  C  3173.94    323.27   3175.97    325.30   3178.47    325.30  " /><path style="stroke-width: 1.42 ;&st7;   " d=" M  3178.47,   325.30  C  3180.97    325.30   3183.00    323.27   3183.00    320.77  " /><text style="&st18;" transform="matrix(&st16;  3176.2  322.73 )">A</text><text style="&st18;" transform="matrix(&st16;  3242.14  322.73 )">17</text><path style="stroke-width: 1.42 ;&st7;   " d=" M  3259.49,   320.77  C  3259.49    318.26   3257.46    316.23   3254.96    316.23  " /><path style="stroke-width: 1.42 ;&st7;   " d=" M  3254.96,   316.23  C  3252.45    316.23   3250.42    318.26   3250.42    320.77  " /><path style="stroke-width: 1.42 ;&st7;   " d=" M  3250.42,   320.77  C  3250.42    323.27   3252.45    325.30   3254.96    325.30  " /><path style="stroke-width: 1.42 ;&st7;   " d=" M  3254.96,   325.30  C  3257.46    325.30   3259.49    323.27   3259.49    320.77  " /><text style="&st18;" transform="matrix(&st16;  3252.69  322.73 )">A</text><text style="&st18;" transform="matrix(&st16;  3250.64  177.69 )">28</text><text style="&st18;" transform="matrix(&st16;  3261.19  177.69 )">A</text><path style="stroke-width: 1.42 ;&st7;   " d=" M  3267.99,   175.72  C  3267.99    173.22   3265.96    171.19   3263.45    171.19  " /><path style="stroke-width: 1.42 ;&st7;   " d=" M  3263.45,   171.19  C  3260.95    171.19   3258.92    173.22   3258.92    175.72  " /><path style="stroke-width: 1.42 ;&st7;   " d=" M  3258.92,   175.72  C  3258.92    178.23   3260.95    180.26   3263.45    180.26  " /><path style="stroke-width: 1.42 ;&st7;   " d=" M  3263.45,   180.26  C  3265.96    180.26   3267.99    178.23   3267.99    175.72  " /><text style="&st18;" transform="matrix(&st16;  3335.63  322.73 )">13</text><path style="stroke-width: 1.42 ;&st7;   " d=" M  3352.97,   320.77  C  3352.97    318.26   3350.94    316.23   3348.44    316.23  " /><path style="stroke-width: 1.42 ;&st7;   " d=" M  3348.44,   316.23  C  3345.94    316.23   3343.91    318.26   3343.91    320.77  " /><path style="stroke-width: 1.42 ;&st7;   " d=" M  3343.91,   320.77  C  3343.91    323.27   3345.94    325.30   3348.44    325.30  " /><path style="stroke-width: 1.42 ;&st7;   " d=" M  3348.44,   325.30  C  3350.94    325.30   3352.97    323.27   3352.97    320.77  " /><text style="&st18;" transform="matrix(&st16;  3346.17  322.73 )">A</text><text style="&st18;" transform="matrix(&st16;  3449.44  322.73 )">9</text><path style="stroke-width: 1.42 ;&st7;   " d=" M  3463.45,   320.77  C  3463.45    318.26   3461.43    316.23   3458.92    316.23  " /><path style="stroke-width: 1.42 ;&st7;   " d=" M  3458.92,   316.23  C  3456.42    316.23   3454.39    318.26   3454.39    320.77  " /><path style="stroke-width: 1.42 ;&st7;   " d=" M  3454.39,   320.77  C  3454.39    323.27   3456.42    325.30   3458.92    325.30  " /><path style="stroke-width: 1.42 ;&st7;   " d=" M  3458.92,   325.30  C  3461.43    325.30   3463.45    323.27   3463.45    320.77  " /><text style="&st18;" transform="matrix(&st16;  3456.66  322.73 )">A</text><text style="&st18;" transform="matrix(&st16;  3514.1  177.69 )">26</text><text style="&st18;" transform="matrix(&st16;  3524.64  177.69 )">A</text><path style="stroke-width: 1.42 ;&st7;   " d=" M  3531.44,   175.72  C  3531.44    173.22   3529.41    171.19   3526.91    171.19  " /><path style="stroke-width: 1.42 ;&st7;   " d=" M  3526.91,   171.19  C  3524.41    171.19   3522.38    173.22   3522.38    175.72  " /><path style="stroke-width: 1.42 ;&st7;   " d=" M  3522.38,   175.72  C  3522.38    178.23   3524.41    180.26   3526.91    180.26  " /><path style="stroke-width: 1.42 ;&st7;   " d=" M  3526.91,   180.26  C  3529.41    180.26   3531.44    178.23   3531.44    175.72  " /><text style="&st18;" transform="matrix(&st16;  3695.9  322.73 )">8</text><path style="stroke-width: 1.42 ;&st7;   " d=" M  3709.91,   320.77  C  3709.91    318.26   3707.88    316.23   3705.38    316.23  " /><path style="stroke-width: 1.42 ;&st7;   " d=" M  3705.38,   316.23  C  3702.88    316.23   3700.85    318.26   3700.85    320.77  " /><path style="stroke-width: 1.42 ;&st7;   " d=" M  3700.85,   320.77  C  3700.85    323.27   3702.88    325.30   3705.38    325.30  " /><path style="stroke-width: 1.42 ;&st7;   " d=" M  3705.38,   325.30  C  3707.88    325.30   3709.91    323.27   3709.91    320.77  " /><text style="&st18;" transform="matrix(&st16;  3703.12  322.73 )">A</text><text style="&st18;" transform="matrix(&st16;  3896.53  322.73 )">15</text><text style="&st18;" transform="matrix(&st16;  3907.08  322.73 )">A</text><path style="stroke-width: 1.42 ;&st7;   " d=" M  3913.88,   320.77  C  3913.88    318.26   3911.85    316.23   3909.35    316.23  " /><path style="stroke-width: 1.42 ;&st7;   " d=" M  3909.35,   316.23  C  3906.84    316.23   3904.81    318.26   3904.81    320.77  " /><path style="stroke-width: 1.42 ;&st7;   " d=" M  3904.81,   320.77  C  3904.81    323.27   3906.84    325.30   3909.35    325.30  " /><path style="stroke-width: 1.42 ;&st7;   " d=" M  3909.35,   325.30  C  3911.85    325.30   3913.88    323.27   3913.88    320.77  " /><g ewd:figtype="title"><text style="&st18;" transform="matrix(&st16;  3141.07  176.56 )" ewd:textID="30">Combination Meter Assembly</text><text style="&st18;" transform="matrix(&st16;  3141.06  169.73 )">L25(A)</text></g></g><g ewd:figtype="w2w" ewd:figID="97" ewd:code="LI1"><text style="&st18;" transform="matrix(&st16;  3178.71  92.99 )">18</text><path style="stroke-width: 1.42 ;&st7;  " d=" M  3199.71,    81.11  L  3195.46,    85.35  L  3191.22,    81.11  " /><path style="stroke-width: 1.42 ;&st7;  " d=" M  3191.22,    77.71  L  3195.46,    81.96  L  3199.71,    77.71  " /></g><g ewd:figtype="w2w" ewd:figID="98" ewd:code="IL2"><text style="&st18;" transform="matrix(&st16;  3246.7  92.99 )">22</text><path style="stroke-width: 1.42 ;&st7;  " d=" M  3267.70,   104.33  L  3263.45,   100.09  L  3259.20,   104.33  " /><path style="stroke-width: 1.42 ;&st7;  " d=" M  3267.70,   100.94  L  3263.45,    96.69  L  3259.20,   100.94  " /></g><g ewd:figtype="w2w" ewd:figID="99" ewd:code="IC1"><path style="stroke-width: 1.42 ;&st7;  " d=" M  3318.69,   483.37  L  3314.44,   479.12  L  3310.20,   483.37  " /><path style="stroke-width: 1.42 ;&st7;  " d=" M  3318.69,   486.77  L  3314.44,   482.52  L  3310.20,   486.77  " /><text style="&st18;" transform="matrix(&st16;  3301.03  475.43 )">3</text></g><g ewd:figtype="w2w" ewd:figID="100" ewd:code="AI2"><text style="&st18;" transform="matrix(&st16;  3331.69  483.92 )">12</text><g ewd:code="" ewd:figID="189" ewd:comment="" ewd:figtype="commref"><text style="&st18;" transform="matrix(&st16;  3357.47  483.92 )">(RHD)</text></g></g><g ewd:figtype="w2w" ewd:figID="101" ewd:code="AI7"><path style="stroke-width: 1.42 ;&st7;  " d=" M  3352.69,   463.54  L  3348.44,   467.79  L  3344.19,   463.54  " /><path style="stroke-width: 1.42 ;&st7;  " d=" M  3344.19,   460.14  L  3348.44,   464.39  L  3352.69,   460.14  " /><text style="&st18;" transform="matrix(&st16;  3331.69  475.43 )">11</text></g><g ewd:figtype="w2w" ewd:figID="102" ewd:code="IL5"><text style="&st18;" transform="matrix(&st16;  3331.69  390.44 )">57</text><g ewd:code="" ewd:figID="219" ewd:comment="" ewd:figtype="commref"><text style="&st18;" transform="matrix(&st16;  3357.47  390.44 )">(RHD)</text></g></g><g ewd:figtype="w2w" ewd:figID="103" ewd:code="IL1"><path style="stroke-width: 1.42 ;&st7;  " d=" M  3344.19,   366.66  L  3348.44,   370.91  L  3352.69,   366.66  " /><path style="stroke-width: 1.42 ;&st7;  " d=" M  3352.69,   370.06  L  3348.44,   374.31  L  3344.19,   370.06  " /><text style="&st18;" transform="matrix(&st16;  3331.69  381.94 )">47</text><g ewd:code="" ewd:figID="220" ewd:comment="" ewd:figtype="commref"><text style="&st18;" transform="matrix(&st16;  3357.47  381.94 )">(LHD)</text></g></g><g ewd:figtype="w2w" ewd:figID="104" ewd:code="IC3"><path style="stroke-width: 1.42 ;&st7;  " d=" M  3429.18,   529.26  L  3424.93,   525.01  L  3420.68,   529.26  " /><path style="stroke-width: 1.42 ;&st7;  " d=" M  3429.18,   525.86  L  3424.93,   521.61  L  3420.68,   525.86  " /><text style="&st18;" transform="matrix(&st16;  3411.51  517.92 )">3</text></g><g ewd:figtype="w2w" ewd:figID="105" ewd:code="AI3"><path style="stroke-width: 1.42 ;&st7;  " d=" M  3454.67,   502.63  L  3458.92,   506.88  L  3463.17,   502.63  " /><path style="stroke-width: 1.42 ;&st7;  " d=" M  3463.17,   506.03  L  3458.92,   510.28  L  3454.67,   506.03  " /><text style="&st18;" transform="matrix(&st16;  3442.17  517.92 )">21</text></g><g ewd:figtype="w2w" ewd:figID="106" ewd:code="IL6"><text style="&st18;" transform="matrix(&st16;  3442.17  398.94 )">13</text><g ewd:code="" ewd:figID="217" ewd:comment="" ewd:figtype="commref"><text style="&st18;" transform="matrix(&st16;  3467.95  398.94 )">(RHD)</text></g></g><g ewd:figtype="w2w" ewd:figID="107" ewd:code="IL2"><path style="stroke-width: 1.42 ;&st7;  " d=" M  3454.67,   375.16  L  3458.92,   379.41  L  3463.17,   375.16  " /><path style="stroke-width: 1.42 ;&st7;  " d=" M  3463.17,   378.56  L  3458.92,   382.80  L  3454.67,   378.56  " /><text style="&st18;" transform="matrix(&st16;  3442.17  390.44 )">18</text><g ewd:code="" ewd:figID="218" ewd:comment="" ewd:figtype="commref"><text style="&st18;" transform="matrix(&st16;  3467.95  390.44 )">(LHD)</text></g></g><g ewd:code="AI3" ewd:figID="108" ewd:comment="8" ewd:figtype="w2w"><text style="&st18;" transform="matrix(&st16;  3493.16  534.92 )">30</text><g ewd:code="" ewd:figID="193" ewd:comment="8" ewd:figtype="commref"><text style="&st18;" transform="matrix(&st16;  3518.94  534.92 )">(*8)</text></g></g><g ewd:code="AI3" ewd:figID="109" ewd:comment="1,7" ewd:figtype="w2w"><text style="&st18;" transform="matrix(&st16;  3493.16  526.42 )">21</text><g ewd:code="" ewd:figID="191" ewd:comment="7,1" ewd:figtype="commref"><text style="&st18;" transform="matrix(&st16;  3518.94  526.42 )">(RHD *7,*1)</text></g></g><g ewd:code="AI3" ewd:figID="110" ewd:comment="7" ewd:figtype="w2w"><path style="stroke-width: 1.42 ;&st7;  " d=" M  3514.16,   506.03  L  3509.91,   510.28  L  3505.66,   506.03  " /><path style="stroke-width: 1.42 ;&st7;  " d=" M  3505.66,   502.63  L  3509.91,   506.88  L  3514.16,   502.63  "/><text style="&st18;" transform="matrix(&st16;  3493.16  517.92 )">51</text><g ewd:code="" ewd:figID="192" ewd:comment="7" ewd:figtype="commref"><text style="&st18;" transform="matrix(&st16;  3518.94  517.92 )">(LHD *7)</text></g></g><g ewd:code="" ewd:figID="190" ewd:comment="" ewd:figtype="commref"><text style="&st18;" transform="matrix(&st16;  3357.47  475.43 )">(LHD)</text></g></svg>
