<?xml version="1.0" encoding="utf-8"?>
<!DOCTYPE svg PUBLIC "-//W3C//DTD SVG 1.0//EN" "http://www.w3.org/TR/2001/REC-SVG-20010904/DTD/svg10.dtd"[
	<!ENTITY ns_flows "http://ns.adobe.com/Flows/1.0/">
	<!ENTITY ns_svg "http://www.w3.org/2000/svg">
	<!ENTITY ns_xlink "http://www.w3.org/1999/xlink">
	<!ENTITY st0 "font-size:7px;font-family:'MS-PGothic';adobe-font-script:japanese;">
	<!ENTITY st1 "font-size:6px;font-family:'ArialMT';">
	<!-- White fill  -->
	<!ENTITY st2 "fill:#FFFFFF;stroke:#000000; stroke-width:1.41;stroke-linecap:round;stroke-linejoin:round;">
	<!-- Yellow fill  -->
	<!ENTITY st3 "fill:#FFFFCC;stroke:#FFFFCC; stroke-width:0.1;stroke-linecap:round;stroke-linejoin:round;">
	<!-- Gray fill  -->
	<!ENTITY st4 "fill:#CCCCCC;stroke:#CCCCCC; stroke-width:0.1;stroke-linecap:round;stroke-linejoin:round;">
	<!-- Light-blue fill -->
	<!ENTITY st5 "fill:#CCECF4;stroke:#000000; stroke-width:1.133;stroke-linecap:round;stroke-linejoin:round;">
	<!ENTITY st6 "fill:none;stroke-linecap:butt; stroke-linejoin:round;">
	<!ENTITY st7 "fill:none;stroke:#000000;stroke-linecap:round;stroke-linejoin:round;">
	<!ENTITY st8 "enable-background:new    ;">
	<!-- Black fill -->
	<!ENTITY st9 "fill:#000000;stroke:#000000; stroke-linecap:round;stroke-linejoin:round;">
	<!-- SRS note   -->
	<!ENTITY st10 "font-size:9px;font-family:'ArialMT';">
	<!ENTITY st11 "font-size:9px;font-family:'Svg Symbol';">
	<!ENTITY st12 "font-size:6px;font-family:'Svg Symbol';">
	<!ENTITY st13 "fill:none;stroke:#ff0000;stroke-linecap:round;stroke-linejoin:round;">
	<!-- Yellow fill  -->
	<!ENTITY st14 "fill:#FFFF00;stroke:#FFFF00; stroke-width:0.1;stroke-linecap:round;stroke-linejoin:round;">
	<!ENTITY st15 "font-size:6px;font-family:'MS-PGothic';adobe-font-script:japanese;">
	<!ENTITY st16 "1.00 0.00 0.00 1.00">
	<!ENTITY st17 "0.00 -1.00 1.00 0.00">
	<!ENTITY st18 "font-size:6px;font-family:'Arial';">
	<!ENTITY st19 "font-size:9px;font-family:'Arial';">
	<!ENTITY st20 "font-size:6px;font-family:'MS-PGothic','MS PGothic';adobe-font-script:japanese;">
	<!ENTITY st21 "font-size:7px;font-family:'MS-PGothic','MS PGothic';adobe-font-script:japanese;">
	<!ATTLIST svg
		xmlns:ewd CDATA #FIXED "http://shcl.co.jp/ewd"
		xmlns:a CDATA #FIXED "http://ns.adobe.com/AdobeSVGViewerExtensions/3.0/"
		ewd:ver CDATA #IMPLIED
	>
	<!ATTLIST a
		ewd:lineID CDATA #IMPLIED
		ewd:groupID CDATA #IMPLIED
		ewd:figtype CDATA #IMPLIED
		ewd:code CDATA #IMPLIED
		ewd:figID CDATA #IMPLIED
		ewd:pinNo CDATA #IMPLIED
		ewd:comment CDATA #IMPLIED >
	<!ATTLIST g
		ewd:lineID CDATA #IMPLIED
		ewd:groupID CDATA #IMPLIED
		ewd:figtype CDATA #IMPLIED
		ewd:code CDATA #IMPLIED
		ewd:figID CDATA #IMPLIED
		ewd:pinNo CDATA #IMPLIED
		ewd:comment CDATA #IMPLIED >
	<!ATTLIST text
		ewd:textID CDATA #IMPLIED >
	<!ATTLIST title
		ewd:textID CDATA #IMPLIED >
]>
<!-- Generator: Shintec Hozumi YS   -->
<svg onload="call_execInitLoadProc_svg('system')" style="overflow:visible;  enable-background:new 0 0 4050.115 710.000" viewBox="0 0 4050.115 710.000" height="710.000" width="4050.115" xml:space="preserve" ewd:ver="2.3.1.16" xmlns="&ns_svg;" xmlns:a="http://ns.adobe.com/AdobeSVGViewerExtensions/3.0/" xmlns:ewd="http://shcl.co.jp/ewd" xmlns:xlink="&ns_xlink;">
<path style="stroke-width: 1.42 ;&st7;  " d=" M   713.88,   333.23  L   705.38,   333.23  " /><path style="stroke-width: 1.42 ;&st7;  " d=" M   781.87,   333.23  L   773.37,   333.23  " /><path style="stroke-width: 1.42 ;&st7;  " d=" M   866.86,   358.73  L   858.36,   358.73  " /><path style="stroke-width: 1.42 ;&st7;  " d=" M   934.84,   409.72  L   943.34,   409.72  " /><path style="stroke-width: 1.42 ;&st7;  " d=" M   985.84,   324.73  L   994.33,   324.73  " /><path style="stroke-width: 1.42 ;&st7;  " d=" M  1002.83,   256.74  L   994.33,   256.74  " /><path style="stroke-width: 1.42 ;&st7;  " d=" M   849.86,   409.72  L   858.36,   409.72  " /><path style="stroke-width: 1.42 ;&st7;  " d=" M   883.85,   350.23  L   892.35,   350.23  " /><path style="stroke-width: 1.42 ;&st7;  " d=" M   900.85,   256.74  L   892.35,   256.74  " /><path style="stroke-width: 1.42 ;&st7;  " d=" M   764.87,   409.72  L   773.37,   409.72  " /><path style="stroke-width: 1.42 ;&st7;  " d=" M   798.87,   324.73  L   807.37,   324.73  " /><path style="stroke-width: 1.42 ;&st7;  " d=" M   815.86,   256.74  L   807.37,   256.74  " /><path style="stroke-width: 1.42 ;&st7;  " d=" M   696.88,   409.72  L   705.38,   409.72  " /><path style="stroke-width: 1.42 ;&st7;  " d=" M   611.90,   316.23  L   620.40,   316.23  " /><path style="stroke-width: 1.42 ;&st7;  " d=" M   730.88,   324.73  L   739.38,   324.73  " /><path style="stroke-width: 1.42 ;&st7;  " d=" M   747.88,   256.74  L   739.38,   256.74  " /><path style="stroke-width: 1.42 ;&st7;  " d=" M   951.84,   333.23  L   943.34,   333.23  " /><path style="stroke-width: 1.42 ;&st7;  " d=" M   747.88,   418.22  L   739.38,   418.22  " /><path style="stroke-width: 1.42 ;&st7;  " d=" M   594.90,   324.73  L   586.40,   324.73  " /><path style="stroke-width: 1.42 ;&st7;  " d=" M   815.86,   418.22  L   807.37,   418.22  " /><path style="stroke-width: 1.42 ;&st7;  " d=" M   900.85,   418.22  L   892.35,   418.22  " /><path style="stroke-width: 1.42 ;&st7;  " d=" M  1002.83,   418.22  L   994.33,   418.22  " /><text style="&st18;" transform="matrix(&st16;  616.98  144.24 )">I8</text><text style="&st18;" transform="matrix(&st16;  616.99  151.06 )" ewd:textID="36">No. 2 Four Wheel Drive Control ECU</text><text style="&st18;" transform="matrix(&st17;  950.98  299.54 )">(*3)</text><text style="&st18;" transform="matrix(&st17;  939.65  298.73 )">LG</text><text style="&st18;" transform="matrix(&st17;  990.64  298.73 )">LG</text><text style="&st18;" transform="matrix(&st17;  990.64  375.22 )">LG</text><text style="&st18;" transform="matrix(&st17;  950.98  376.03 )">(*3)</text><text style="&st18;" transform="matrix(&st17;  939.65  375.22 )">LG</text><text style="&st18;" transform="matrix(&st17;  950.98  456.77 )">(*3)</text><text style="&st18;" transform="matrix(&st17;  939.65  454.29 )">G</text><text style="&st18;" transform="matrix(&st17;  990.64  454.29 )">G</text><text style="&st18;" transform="matrix(&st17;  990.64  234.99 )">LG</text><text style="&st18;" transform="matrix(&st17;  865.99  321.89 )">(*3 *32)</text><text style="&st18;" transform="matrix(&st17;  854.66  316.97 )">G-Y</text><text style="&st18;" transform="matrix(&st17;  899.99  321.89 )">(*4 *32)</text><text style="&st18;" transform="matrix(&st17;  888.66  316.97 )">G-Y</text><text style="&st18;" transform="matrix(&st17;  899.99  388.78 )">(*4)</text><text style="&st18;" transform="matrix(&st17;  888.66  389.21 )">G-Y</text><text style="&st18;" transform="matrix(&st17;  865.99  388.78 )">(*3)</text><text style="&st18;" transform="matrix(&st17;  854.66  389.21 )">G-Y</text><text style="&st18;" transform="matrix(&st17;  865.99  456.77 )">(*3)</text><text style="&st18;" transform="matrix(&st17;  854.66  457.19 )">G-Y</text><text style="&st18;" transform="matrix(&st17;  899.99  456.77 )">(*4)</text><text style="&st18;" transform="matrix(&st17;  888.66  457.19 )">G-Y</text><text style="&st18;" transform="matrix(&st17;  888.66  236.23 )">G-Y</text><text style="&st18;" transform="matrix(&st17;  781.01  299.54 )">(*3)</text><text style="&st18;" transform="matrix(&st17;  769.67  296.36 )">L</text><text style="&st18;" transform="matrix(&st17;  815.0  299.54 )">(*4)</text><text style="&st18;" transform="matrix(&st17;  803.67  296.36 )">L</text><text style="&st18;" transform="matrix(&st17;  815.0  376.03 )">(*4)</text><text style="&st18;" transform="matrix(&st17;  803.67  372.85 )">L</text><text style="&st18;" transform="matrix(&st17;  781.01  376.03 )">(*3)</text><text style="&st18;" transform="matrix(&st17;  769.67  372.85 )">L</text><text style="&st18;" transform="matrix(&st17;  781.01  456.77 )">(*3)</text><text style="&st18;" transform="matrix(&st17;  769.67  453.59 )">L</text><text style="&st18;" transform="matrix(&st17;  815.0  456.77 )">(*4)</text><text style="&st18;" transform="matrix(&st17;  803.67  453.59 )">L</text><text style="&st18;" transform="matrix(&st17;  803.67  232.63 )">L</text><text style="&st18;" transform="matrix(&st17;  713.02  299.54 )">(*3)</text><text style="&st18;" transform="matrix(&st17;  701.69  299.54 )">L-R</text><text style="&st18;" transform="matrix(&st17;  747.01  299.54 )">(*4)</text><text style="&st18;" transform="matrix(&st17;  735.68  299.54 )">L-R</text><text style="&st18;" transform="matrix(&st17;  747.01  376.03 )">(*4)</text><text style="&st18;" transform="matrix(&st17;  735.68  376.03 )">L-R</text><text style="&st18;" transform="matrix(&st17;  713.02  376.03 )">(*3)</text><text style="&st18;" transform="matrix(&st17;  701.69  373.39 )">R</text><text style="&st18;" transform="matrix(&st17;  713.02  456.77 )">(*3)</text><text style="&st18;" transform="matrix(&st17;  701.69  456.77 )">L-R</text><text style="&st18;" transform="matrix(&st17;  747.01  456.77 )">(*4)</text><text style="&st18;" transform="matrix(&st17;  735.68  456.77 )">L-R</text><text style="&st18;" transform="matrix(&st17;  735.68  235.8 )">L-R</text><text style="&st18;" transform="matrix(&st17;  568.54  275.15 )">(*1 *35)</text><text style="&st18;" transform="matrix(&st17;  594.04  350.54 )">(*1)</text><text style="&st18;" transform="matrix(&st17;  628.03  275.15 )">(*2 *34)</text><text style="&st18;" transform="matrix(&st17;  616.7  271.12 )">R-W</text><text style="&st18;" transform="matrix(&st17;  628.03  350.54 )">(*2)</text><text style="&st18;" transform="matrix(&st17;  616.7  351.85 )">R-W</text><text style="&st18;" transform="matrix(&st17;  582.71  351.85 )">R-W</text><text style="&st18;" transform="matrix(&st17;  557.21  267.01 )">P</text><text style="&st18;" transform="matrix(&st16;  537.69  618.48 )">W-B</text><text style="&st18;" transform="matrix(&st16;  532.0  468.6 )">B1(A),B5(B)</text><text style="&st18;" transform="matrix(&st16;  532.01  475.43 )" ewd:textID="35">No. 2 Differential Lock Shift Actuator</text><text style="&st18;" transform="matrix(&st17;  829.16  314.06 )">G</text><text style="&st18;" transform="matrix(&st17;  840.5  321.89 )">(*3 *33)</text><text style="&st18;" transform="matrix(&st17;  925.48  321.89 )">(*4 *33)</text><text style="&st18;" transform="matrix(&st17;  914.15  314.06 )">G</text><text style="&st18;" transform="matrix(&st17;  653.53  275.15 )">(*2 *35)</text><text style="&st18;" transform="matrix(&st17;  642.2  267.01 )">P</text><text style="&st18;" transform="matrix(&st17;  594.04  275.15 )">(*1 *34)</text><text style="&st18;" transform="matrix(&st17;  582.71  271.12 )">R-W</text><g ewd:figtype="conn" ewd:figID="16" ewd:code="V2"><path style="stroke-width: 1.42 ;&st7;  " d=" M   811.61,   517.37  L   811.61,   521.33  " /><path style="stroke-width: 1.42 ;&st7;  " d=" M   803.12,   521.33  L   803.12,   517.37  " /><path style="stroke-width: 1.42 ;&st7;  " d=" M   803.12,   517.37  L   811.61,   517.37  " /><path style="stroke-width: 1.42 ;&st7;  " d=" M   811.61,   540.03  L   811.61,   536.06  " /><path style="stroke-width: 1.42 ;&st7;  " d=" M   803.12,   536.06  L   803.12,   540.03  " /><path style="stroke-width: 1.42 ;&st7;  " d=" M   803.12,   540.03  L   811.61,   540.03  " /><path style="stroke-width: 1.42 ;&st7;  " d=" M   934.84,   517.37  L   934.84,   534.36  " /><path style="stroke-width: 0.85 ;&st7;  " d=" M   934.84,   545.69  L   934.84,   537.20  " /><path style="stroke-width: 1.42 ;&st7;   " d=" M   815.86,   528.70  C   815.86    524.00    812.06    520.20    807.37    520.20  " /><path style="stroke-width: 1.42 ;&st7;   " d=" M   807.37,   520.20  C   802.67    520.20    798.87    524.00    798.87    528.70  " /><path style="stroke-width: 1.42 ;&st7;   " d=" M   798.87,   528.70  C   798.87    533.39    802.67    537.20    807.37    537.20  " /><path style="stroke-width: 1.42 ;&st7;   " d=" M   807.37,   537.20  C   812.06    537.20    815.86    533.39    815.86    528.70  " /><path style="stroke-width: 0.85 ;&st7;   " d=" M   936.26,   535.78  C   936.26    535.00    935.63    534.36    934.84    534.36  " /><path style="stroke-width: 0.85 ;&st7;   " d=" M   934.84,   534.36  C   934.06    534.36    933.43    535.00    933.43    535.78  " /><path style="stroke-width: 0.85 ;&st7;   " d=" M   933.43,   535.78  C   933.43    536.56    934.06    537.20    934.84    537.20  " /><path style="stroke-width: 0.85 ;&st7;   " d=" M   934.84,   537.20  C   935.63    537.20    936.26    536.56    936.26    535.78  " /><path style="stroke-width: 0.85 ;&st7;   " d=" M   927.76,   521.61  C   927.76    520.83    927.13    520.20    926.35    520.20  " /><path style="stroke-width: 0.85 ;&st7;   " d=" M   926.35,   520.20  C   925.56    520.20    924.93    520.83    924.93    521.61  " /><path style="stroke-width: 0.85 ;&st7;   " d=" M   924.93,   521.61  C   924.93    522.40    925.56    523.03    926.35    523.03  " /><path style="stroke-width: 0.85 ;&st7;   " d=" M   926.35,   523.03  C   927.13    523.03    927.76    522.40    927.76    521.61  " /><path style="stroke-width: 0.85 ;&st7;   " d=" M   944.76,   521.61  C   944.76    520.83    944.12    520.20    943.34    520.20  " /><path style="stroke-width: 0.85 ;&st7;   " d=" M   943.34,   520.20  C   942.56    520.20    941.93    520.83    941.93    521.61  " /><path style="stroke-width: 0.85 ;&st7;   " d=" M   941.93,   521.61  C   941.93    522.40    942.56    523.03    943.34    523.03  " /><path style="stroke-width: 0.85 ;&st7;   " d=" M   943.34,   523.03  C   944.12    523.03    944.76    522.40    944.76    521.61  " /><path style="stroke-width: 0.85 ;&st7;  " d=" M   739.38,   494.70  L   739.38,   554.19  L   807.36,   554.19  L   807.36,   540.03  " /><path style="stroke-width: 0.85 ;&st7;  " d=" M   807.36,   517.37  L   807.36,   494.70  " /><path style="stroke-width: 1.42 ;&st7;  " d=" M   722.38,   562.69  L  1019.83,   562.69  L  1019.83,   494.70  L   722.38,   494.70  L   722.38,   562.69  " /><path style="stroke-width: 0.85 ;&st7;  " d=" M   934.84,   562.69  L   934.84,   545.69  " /><path style="stroke-width: 0.85 ;&st7;  " d=" M   892.35,   494.70  L   892.35,   521.61  L   924.93,   521.61  " /><path style="stroke-width: 0.85 ;&st7;  " d=" M   994.33,   494.70  L   994.33,   521.61  L   944.76,   521.61  " /><text style="&st18;" transform="matrix(&st16;  996.92  502.9 )">RLY1</text><text style="&st18;" transform="matrix(&st16;  894.93  502.9 )">RLY2</text><text style="&st18;" transform="matrix(&st16;  809.95  502.9 )">M1</text><text style="&st18;" transform="matrix(&st16;  741.96  502.9 )">M2</text><text style="&st18;" transform="matrix(&st16;  937.43  559.0 )">GND</text><text style="&st18;" transform="matrix(&st16;  804.63  530.67 )">M</text><text style="&st18;" transform="matrix(&st16;  928.5  570.88 )">4</text><text style="&st18;" transform="matrix(&st16;  733.04  491.01 )">2</text><text style="&st18;" transform="matrix(&st16;  801.03  491.01 )">3</text><text style="&st18;" transform="matrix(&st16;  886.01  491.01 )">5</text><text style="&st18;" transform="matrix(&st16;  987.99  491.01 )">6</text><g ewd:figtype="title"><text style="&st18;" transform="matrix(&st16;  718.97  570.58 )">V2</text><text style="&st18;" transform="matrix(&st16;  718.97  577.41 )" ewd:textID="31">Differential Lock Shift Actuator</text></g></g><g ewd:figtype="conn" ewd:figID="25" ewd:code="I8"><g ewd:lineID="54,55,56,58"><text style="&st18;" transform="matrix(&st16;  576.73  213.94 )">16</text><text style="&st18;" transform="matrix(&st16;  578.75  202.05 )">RLY3</text></g><g ewd:lineID="65"><text style="&st18;" transform="matrix(&st16;  733.04  213.94 )">1</text><text style="&st18;" transform="matrix(&st16;  734.98  202.05 )">M2</text></g><g ewd:lineID="72"><text style="&st18;" transform="matrix(&st16;  801.03  213.94 )">3</text><text style="&st18;" transform="matrix(&st16;  802.97  202.05 )">M1</text></g><g ewd:lineID="81"><text style="&st18;" transform="matrix(&st16;  882.68  213.94 )">11</text><text style="&st18;" transform="matrix(&st16;  884.7  202.05 )">RLY2</text></g><g ewd:lineID="88"><text style="&st18;" transform="matrix(&st16;  984.66  213.94 )">10</text><text style="&st18;" transform="matrix(&st16;  986.68  202.05 )">RLY1</text></g></g><g ewd:figtype="w2w" ewd:figID="51" ewd:code="IB5"><path style="stroke-width: 1.42 ;&st7;  " d=" M   590.65,   330.40  L   586.40,   326.15  L   582.15,   330.40  " /><path style="stroke-width: 1.42 ;&st7;  " d=" M   590.65,   333.80  L   586.40,   329.55  L   582.15,   333.80  " /><text style="&st18;" transform="matrix(&st16;  572.98  322.45 )">6</text></g><g ewd:figtype="w2w" ewd:figID="52" ewd:code="BI2"><path style="stroke-width: 1.42 ;&st7;  " d=" M   616.15,   307.17  L   620.40,   311.42  L   624.65,   307.17  " /><path style="stroke-width: 1.42 ;&st7;  " d=" M   624.65,   310.57  L   620.40,   314.82  L   616.15,   310.57  " /><text style="&st18;" transform="matrix(&st16;  606.98  322.45 )">5</text></g><g ewd:figtype="w2w" ewd:figID="53" ewd:code="VT1"><path style="stroke-width: 1.42 ;&st7;  " d=" M   709.63,   404.05  L   705.38,   408.30  L   701.13,   404.05  " /><path style="stroke-width: 1.42 ;&st7;  " d=" M   701.13,   400.65  L   705.38,   404.90  L   709.63,   400.65  " /><text style="&st18;" transform="matrix(&st16;  691.96  415.94 )">6</text></g><g ewd:figtype="w2w" ewd:figID="54" ewd:code="ST3"><path style="stroke-width: 1.42 ;&st7;  " d=" M   709.63,   338.90  L   705.38,   334.65  L   701.13,   338.90  " /><path style="stroke-width: 1.42 ;&st7;  " d=" M   709.63,   342.29  L   705.38,   338.05  L   701.13,   342.29  " /><text style="&st18;" transform="matrix(&st16;  691.96  330.95 )">6</text></g><g ewd:figtype="w2w" ewd:figID="55" ewd:code="TV2"><path style="stroke-width: 1.42 ;&st7;  " d=" M   743.63,   427.28  L   739.38,   423.03  L   735.13,   427.28  " /><path style="stroke-width: 1.42 ;&st7;  " d=" M   743.63,   423.88  L   739.38,   419.63  L   735.13,   423.88  " /><text style="&st18;" transform="matrix(&st16;  725.96  415.94 )">6</text></g><g ewd:figtype="w2w" ewd:figID="56" ewd:code="TS4"><path style="stroke-width: 1.42 ;&st7;  " d=" M   743.63,   319.07  L   739.38,   323.31  L   735.13,   319.07  " /><path style="stroke-width: 1.42 ;&st7;  " d=" M   735.13,   315.67  L   739.38,   319.92  L   743.63,   315.67  " /><text style="&st18;" transform="matrix(&st16;  725.96  330.95 )">5</text></g><g ewd:figtype="w2w" ewd:figID="57" ewd:code="IS2"><path style="stroke-width: 1.42 ;&st7;  " d=" M   743.63,   262.41  L   739.38,   258.16  L   735.13,   262.41  " /><path style="stroke-width: 1.42 ;&st7;  " d=" M   743.63,   265.81  L   739.38,   261.56  L   735.13,   265.81  " /><text style="&st18;" transform="matrix(&st16;  722.62  254.46 )">17</text></g><g ewd:figtype="w2w" ewd:figID="58" ewd:code="VT1"><path style="stroke-width: 1.42 ;&st7;  " d=" M   777.62,   404.05  L   773.37,   408.30  L   769.12,   404.05  " /><path style="stroke-width: 1.42 ;&st7;  " d=" M   769.12,   400.65  L   773.37,   404.90  L   777.62,   400.65  " /><text style="&st18;" transform="matrix(&st16;  759.95  415.94 )">2</text></g><g ewd:figtype="w2w" ewd:figID="59" ewd:code="ST3"><path style="stroke-width: 1.42 ;&st7;  " d=" M   777.62,   338.90  L   773.37,   334.65  L   769.12,   338.90  " /><path style="stroke-width: 1.42 ;&st7;  " d=" M   777.62,   342.29  L   773.37,   338.05  L   769.12,   342.29  " /><text style="&st18;" transform="matrix(&st16;  759.95  330.95 )">2</text></g><g ewd:figtype="w2w" ewd:figID="60" ewd:code="TV2"><path style="stroke-width: 1.42 ;&st7;  " d=" M   811.61,   427.28  L   807.36,   423.03  L   803.12,   427.28  " /><path style="stroke-width: 1.42 ;&st7;  " d=" M   811.61,   423.88  L   807.36,   419.63  L   803.12,   423.88  " /><text style="&st18;" transform="matrix(&st16;  793.95  415.94 )">2</text></g><g ewd:figtype="w2w" ewd:figID="61" ewd:code="TS4"><path style="stroke-width: 1.42 ;&st7;  " d=" M   811.61,   319.07  L   807.36,   323.31  L   803.12,   319.07  " /><path style="stroke-width: 1.42 ;&st7;  " d=" M   803.12,   315.67  L   807.36,   319.92  L   811.61,   315.67  " /><text style="&st18;" transform="matrix(&st16;  793.95  330.95 )">6</text></g><g ewd:figtype="w2w" ewd:figID="62" ewd:code="IS2"><path style="stroke-width: 1.42 ;&st7;  " d=" M   811.61,   262.41  L   807.36,   258.16  L   803.12,   262.41  " /><path style="stroke-width: 1.42 ;&st7;  " d=" M   811.61,   265.81  L   807.36,   261.56  L   803.12,   265.81  " /><text style="&st18;" transform="matrix(&st16;  790.61  254.46 )">10</text></g><g ewd:figtype="w2w" ewd:figID="63" ewd:code="VT1"><path style="stroke-width: 1.42 ;&st7;  " d=" M   862.61,   404.05  L   858.36,   408.30  L   854.11,   404.05  " /><path style="stroke-width: 1.42 ;&st7;  " d=" M   854.11,   400.65  L   858.36,   404.90  L   862.61,   400.65  " /><text style="&st18;" transform="matrix(&st16;  841.6  415.94 )">11</text></g><g ewd:figtype="w2w" ewd:figID="64" ewd:code="ST3"><path style="stroke-width: 1.42 ;&st7;  " d=" M   862.61,   364.39  L   858.36,   360.14  L   854.11,   364.39  " /><path style="stroke-width: 1.42 ;&st7;  " d=" M   862.61,   367.79  L   858.36,   363.54  L   854.11,   367.79  " /><text style="&st18;" transform="matrix(&st16;  841.6  356.45 )">11</text></g><g ewd:figtype="w2w" ewd:figID="65" ewd:code="TV2"><path style="stroke-width: 1.42 ;&st7;  " d=" M   896.60,   427.28  L   892.35,   423.03  L   888.10,   427.28  " /><path style="stroke-width: 1.42 ;&st7;  " d=" M   896.60,   423.88  L   892.35,   419.63  L   888.10,   423.88  " /><text style="&st18;" transform="matrix(&st16;  878.93  415.94 )">9</text></g><g ewd:figtype="w2w" ewd:figID="66" ewd:code="TS4"><path style="stroke-width: 1.42 ;&st7;  " d=" M   896.60,   344.56  L   892.35,   348.81  L   888.10,   344.56  " /><path style="stroke-width: 1.42 ;&st7;  " d=" M   888.10,   341.16  L   892.35,   345.41  L   896.60,   341.16  " /><text style="&st18;" transform="matrix(&st16;  878.93  356.45 )">3</text></g><g ewd:figtype="w2w" ewd:figID="67" ewd:code="IS2"><path style="stroke-width: 1.42 ;&st7;  " d=" M   896.60,   262.41  L   892.35,   258.16  L   888.10,   262.41  " /><path style="stroke-width: 1.42 ;&st7;  " d=" M   896.60,   265.81  L   892.35,   261.56  L   888.10,   265.81  " /><text style="&st18;" transform="matrix(&st16;  875.6  254.46 )">15</text></g><g ewd:figtype="w2w" ewd:figID="68" ewd:code="VT1"><path style="stroke-width: 1.42 ;&st7;  " d=" M   947.59,   404.05  L   943.34,   408.30  L   939.09,   404.05  " /><path style="stroke-width: 1.42 ;&st7;  " d=" M   939.09,   400.65  L   943.34,   404.90  L   947.59,   400.65  " /><text style="&st18;" transform="matrix(&st16;  929.92  415.94 )">9</text></g><g ewd:figtype="w2w" ewd:figID="69" ewd:code="ST3"><path style="stroke-width: 1.42 ;&st7;  " d=" M   947.59,   342.29  L   943.34,   338.05  L   939.09,   342.29  " /><path style="stroke-width: 1.42 ;&st7;  " d=" M   947.59,   338.90  L   943.34,   334.65  L   939.09,   338.90  " /><text style="&st18;" transform="matrix(&st16;  929.92  330.95 )">9</text></g><g ewd:figtype="w2w" ewd:figID="70" ewd:code="TV2"><path style="stroke-width: 1.42 ;&st7;  " d=" M   998.58,   427.28  L   994.33,   423.03  L   990.08,   427.28  " /><path style="stroke-width: 1.42 ;&st7;  " d=" M   998.58,   423.88  L   994.33,   419.63  L   990.08,   423.88  " /><text style="&st18;" transform="matrix(&st16;  977.58  415.94 )">11</text></g><g ewd:figtype="w2w" ewd:figID="71" ewd:code="TS4"><path style="stroke-width: 1.42 ;&st7;  " d=" M   998.58,   319.07  L   994.33,   323.31  L   990.08,   319.07  " /><path style="stroke-width: 1.42 ;&st7;  " d=" M   990.08,   315.67  L   994.33,   319.92  L   998.58,   315.67  " /><text style="&st18;" transform="matrix(&st16;  980.92  330.95 )">4</text></g><g ewd:figtype="w2w" ewd:figID="72" ewd:code="IS2"><path style="stroke-width: 1.42 ;&st7;  " d=" M   998.58,   262.41  L   994.33,   258.16  L   990.08,   262.41  " /><path style="stroke-width: 1.42 ;&st7;  " d=" M   998.58,   265.81  L   994.33,   261.56  L   990.08,   265.81  " /><text style="&st18;" transform="matrix(&st16;  977.58  254.46 )">14</text></g><g ewd:code="33" ewd:figID="310" ewd:comment="" ewd:figtype="comment"><text style="&st18;" transform="matrix(&st16;  837.95  105.74 )" ewd:textID="22">*33 :From Jul. 2021 Production</text></g><g ewd:code="19" ewd:figID="298" ewd:comment="" ewd:figtype="comment"><text style="&st18;" transform="matrix(&st16;  837.95  54.75 )" ewd:textID="12">*19 :RHD 1GR-FE,1HZ 24V Battery Type</text></g><g ewd:code="3" ewd:figID="300" ewd:comment="" ewd:figtype="comment"><text style="&st18;" transform="matrix(&st16;  701.98  54.75 )" ewd:textID="2">* 3 :Pick-Up Body Type</text></g><g ewd:code="2" ewd:figID="302" ewd:comment="" ewd:figtype="comment"><text style="&st18;" transform="matrix(&st16;  701.98  46.25 )" ewd:textID="1">* 2 :Except 1HZ</text></g><g ewd:code="32" ewd:figID="303" ewd:comment="" ewd:figtype="comment"><text style="&st18;" transform="matrix(&st16;  837.95  97.24 )" ewd:textID="21">*32 :Before Jul. 2021 Production</text></g><g ewd:code="11" ewd:figID="296" ewd:comment="" ewd:figtype="comment"><text style="&st18;" transform="matrix(&st16;  701.98  88.74 )" ewd:textID="7">*11 :1HZ 12V Battery Type</text></g><g ewd:code="25" ewd:figID="307" ewd:comment="" ewd:figtype="comment"><text style="&st18;" transform="matrix(&st16;  837.95  88.74 )">*25 :LHD 1VD-FTV</text></g><g ewd:code="20" ewd:figID="304" ewd:comment="" ewd:figtype="comment"><text style="&st18;" transform="matrix(&st16;  837.95  63.24 )" ewd:textID="13">*20 :Australia</text></g><g ewd:code="35" ewd:figID="308" ewd:comment="" ewd:figtype="comment"><text style="&st18;" transform="matrix(&st16;  837.95  122.73 )" ewd:textID="24">*35 :From Sep. 2022 Production</text></g><g ewd:code="21" ewd:figID="305" ewd:comment="20,3" ewd:figtype="comment"><text style="&st18;" transform="matrix(&st16;  837.95  71.74 )">*21 :*20 *3</text></g><g ewd:code="22" ewd:figID="306" ewd:comment="21" ewd:figtype="comment"><text style="&st18;" transform="matrix(&st16;  837.95  80.24 )" ewd:textID="14">*22 :Except *21</text></g><g ewd:code="18" ewd:figID="294" ewd:comment="" ewd:figtype="comment"><text style="&st18;" transform="matrix(&st16;  837.95  46.25 )">*18 :RHD 1GR-FE</text></g><g ewd:code="16" ewd:figID="297" ewd:comment="" ewd:figtype="comment"><text style="&st18;" transform="matrix(&st16;  701.98  97.24 )">*16 :LHD 1GR-FE</text></g><g ewd:code="1" ewd:figID="301" ewd:comment="" ewd:figtype="comment"><text style="&st18;" transform="matrix(&st16;  701.98  37.75 )">* 1 :1HZ</text></g><g ewd:code="17" ewd:figID="295" ewd:comment="" ewd:figtype="comment"><text style="&st18;" transform="matrix(&st16;  837.95  37.75 )">*17 :RHD 1GR-FE, 1HZ</text></g><g ewd:code="34" ewd:figID="309" ewd:comment="" ewd:figtype="comment"><text style="&st18;" transform="matrix(&st16;  837.95  114.24 )" ewd:textID="23">*34 :Before Sep. 2022 Production</text></g><g ewd:code="8" ewd:figID="292" ewd:comment="" ewd:figtype="comment"><text style="&st18;" transform="matrix(&st16;  701.98  80.24 )">* 8 :1VD-FTV</text></g><g ewd:code="7" ewd:figID="293" ewd:comment="" ewd:figtype="comment"><text style="&st18;" transform="matrix(&st16;  701.98  71.74 )">* 7 :1GR-FE</text></g><g ewd:code="4" ewd:figID="299" ewd:comment="" ewd:figtype="comment"><text style="&st18;" transform="matrix(&st16;  701.98  63.24 )" ewd:textID="3">* 4 :Except Pick-Up Body Type</text></g></svg>