<?xml version="1.0" encoding="utf-8"?>
<!DOCTYPE svg PUBLIC "-//W3C//DTD SVG 1.0//EN" "http://www.w3.org/TR/2001/REC-SVG-20010904/DTD/svg10.dtd"[
	<!ENTITY ns_flows "http://ns.adobe.com/Flows/1.0/">
	<!ENTITY ns_svg "http://www.w3.org/2000/svg">
	<!ENTITY ns_xlink "http://www.w3.org/1999/xlink">
	<!ENTITY st0 "font-size:7px;font-family:'MS-PGothic';adobe-font-script:japanese;">
	<!ENTITY st1 "font-size:6px;font-family:'ArialMT';">
	<!-- White fill  -->
	<!ENTITY st2 "fill:#FFFFFF;stroke:#000000; stroke-width:1.41;stroke-linecap:round;stroke-linejoin:round;">
	<!-- Yellow fill  -->
	<!ENTITY st3 "fill:#FFFFCC;stroke:#FFFFCC; stroke-width:0.1;stroke-linecap:round;stroke-linejoin:round;">
	<!-- Gray fill  -->
	<!ENTITY st4 "fill:#CCCCCC;stroke:#CCCCCC; stroke-width:0.1;stroke-linecap:round;stroke-linejoin:round;">
	<!-- Light-blue fill -->
	<!ENTITY st5 "fill:#CCECF4;stroke:#000000; stroke-width:1.133;stroke-linecap:round;stroke-linejoin:round;">
	<!ENTITY st6 "fill:none;stroke-linecap:butt; stroke-linejoin:round;">
	<!ENTITY st7 "fill:none;stroke:#000000;stroke-linecap:round;stroke-linejoin:round;">
	<!ENTITY st8 "enable-background:new    ;">
	<!-- Black fill -->
	<!ENTITY st9 "fill:#000000;stroke:#000000; stroke-linecap:round;stroke-linejoin:round;">
	<!-- SRS note   -->
	<!ENTITY st10 "font-size:9px;font-family:'ArialMT';">
	<!ENTITY st11 "font-size:9px;font-family:'Svg Symbol';">
	<!ENTITY st12 "font-size:6px;font-family:'Svg Symbol';">
	<!ENTITY st13 "fill:none;stroke:#ff0000;stroke-linecap:round;stroke-linejoin:round;">
	<!-- Yellow fill  -->
	<!ENTITY st14 "fill:#FFFF00;stroke:#FFFF00; stroke-width:0.1;stroke-linecap:round;stroke-linejoin:round;">
	<!ENTITY st15 "font-size:6px;font-family:'MS-PGothic';adobe-font-script:japanese;">
	<!ENTITY st16 "1.00 0.00 0.00 1.00">
	<!ENTITY st17 "0.00 -1.00 1.00 0.00">
	<!ENTITY st18 "font-size:6px;font-family:'Arial';">
	<!ENTITY st19 "font-size:9px;font-family:'Arial';">
	<!ENTITY st20 "font-size:6px;font-family:'MS-PGothic','MS PGothic';adobe-font-script:japanese;">
	<!ENTITY st21 "font-size:7px;font-family:'MS-PGothic','MS PGothic';adobe-font-script:japanese;">
	<!ATTLIST svg
		xmlns:ewd CDATA #FIXED "http://shcl.co.jp/ewd"
		xmlns:a CDATA #FIXED "http://ns.adobe.com/AdobeSVGViewerExtensions/3.0/"
		ewd:ver CDATA #IMPLIED
	>
	<!ATTLIST a
		ewd:lineID CDATA #IMPLIED
		ewd:groupID CDATA #IMPLIED
		ewd:figtype CDATA #IMPLIED
		ewd:code CDATA #IMPLIED
		ewd:figID CDATA #IMPLIED
		ewd:pinNo CDATA #IMPLIED
		ewd:comment CDATA #IMPLIED >
	<!ATTLIST g
		ewd:lineID CDATA #IMPLIED
		ewd:groupID CDATA #IMPLIED
		ewd:figtype CDATA #IMPLIED
		ewd:code CDATA #IMPLIED
		ewd:figID CDATA #IMPLIED
		ewd:pinNo CDATA #IMPLIED
		ewd:comment CDATA #IMPLIED >
	<!ATTLIST text
		ewd:textID CDATA #IMPLIED >
	<!ATTLIST title
		ewd:textID CDATA #IMPLIED >
]>
<!-- Generator: Shintec Hozumi YS   -->
<svg onload="call_execInitLoadProc_svg('system')" style="overflow:visible;  enable-background:new 0 0 4050.115 710.000" viewBox="0 0 4050.115 710.000" height="710.000" width="4050.115" xml:space="preserve" ewd:ver="2.3.1.16" xmlns="&ns_svg;" xmlns:a="http://ns.adobe.com/AdobeSVGViewerExtensions/3.0/" xmlns:ewd="http://shcl.co.jp/ewd" xmlns:xlink="&ns_xlink;">
<path style="stroke-width: 1.42 ;&st7;  " d=" M  4002.83,   554.19  L  3994.33,   554.19  " /><path style="stroke-width: 1.42 ;&st7;  " d=" M  3900.85,   460.71  L  3909.35,   460.71  " /><path style="stroke-width: 1.42 ;&st7;  " d=" M  3900.85,   367.22  L  3909.35,   367.22  " /><path style="stroke-width: 1.42 ;&st7;  " d=" M  3849.86,   545.69  L  3858.36,   545.69  " /><path style="stroke-width: 1.42 ;&st7;  " d=" M  3917.85,   554.19  L  3909.35,   554.19  " /><path style="stroke-width: 1.42 ;&st7;  " d=" M  3917.85,   618.65  L  3912.87,   613.68  " /><path style="stroke-width: 1.42 ;&st7;  " d=" M  3900.85,   625.71  L  3905.82,   630.68  " /><path style="stroke-width: 1.42 ;&st7;  " d=" M  3912.87,   630.68  L  3917.85,   625.71  " /><path style="stroke-width: 1.42 ;&st7;  " d=" M  3905.82,   613.68  L  3900.85,   618.65  " /><path style="stroke-width: 1.42 ;&st7;  " d=" M  4002.83,   618.65  L  3997.86,   613.68  " /><path style="stroke-width: 1.42 ;&st7;  " d=" M  3985.83,   625.71  L  3990.81,   630.68  " /><path style="stroke-width: 1.42 ;&st7;  " d=" M  3997.86,   630.68  L  4002.83,   625.71  " /><path style="stroke-width: 1.42 ;&st7;  " d=" M  3990.81,   613.68  L  3985.83,   618.65  " /><path style="stroke-width: 1.42 ;&st7;  " d=" M  4002.83,   397.69  L  3997.86,   392.72  " /><path style="stroke-width: 1.42 ;&st7;  " d=" M  3985.83,   404.75  L  3990.81,   409.72  " /><path style="stroke-width: 1.42 ;&st7;  " d=" M  3997.86,   409.72  L  4002.83,   404.75  " /><path style="stroke-width: 1.42 ;&st7;  " d=" M  3990.81,   392.72  L  3985.83,   397.69  " /><text style="&st18;" transform="matrix(&st17;  3523.21  105.69 )">R</text><text style="&st18;" transform="matrix(&st17;  3523.21  156.68 )">R</text><text style="&st18;" transform="matrix(&st17;  3582.7  122.69 )">R</text><text style="&st18;" transform="matrix(&st16;  3941.43  451.35 )">(*8,*31)</text><text style="&st18;" transform="matrix(&st16;  3947.4  440.01 )">BR</text><text style="&st18;" transform="matrix(&st17;  3916.98  588.5 )">(*1)</text><text style="&st18;" transform="matrix(&st16;  3937.75  408.85 )">(*7,*8,*31)</text><text style="&st18;" transform="matrix(&st16;  3947.4  397.52 )">BR</text><text style="&st18;" transform="matrix(&st17;  3916.98  529.01 )">(*1)</text><text style="&st18;" transform="matrix(&st17;  3905.65  528.39 )">BR</text><text style="&st18;" transform="matrix(&st17;  3916.98  656.48 )">(*1)</text><text style="&st18;" transform="matrix(&st17;  3905.65  655.86 )">BR</text><text style="&st18;" transform="matrix(&st17;  3990.64  655.86 )">BR</text><text style="&st18;" transform="matrix(&st17;  3990.64  498.64 )">BR</text><text style="&st18;" transform="matrix(&st17;  3916.99  439.35 )">(*10,*27 *28)</text><text style="&st18;" transform="matrix(&st17;  3905.65  426.4 )">BR</text><text style="&st18;" transform="matrix(&st17;  3905.65  345.67 )">BR</text><text style="&st18;" transform="matrix(&st16;  3795.46  176.56 )" ewd:textID="30">Combination Meter Assembly</text><text style="&st18;" transform="matrix(&st17;  3905.65  587.88 )">BR</text><text style="&st18;" transform="matrix(&st17;  3865.99  588.5 )">(*8)</text><text style="&st18;" transform="matrix(&st17;  3854.66  587.88 )">BR</text><text style="&st18;" transform="matrix(&st17;  3990.64  587.88 )">BR</text><path style="stroke-width: 1.42 ;&st7;  " d=" M  3535.41,   129.26  L  3526.91,   129.26  " /><text style="&st18;" transform="matrix(&st17;  3865.99  529.01 )">(*8)</text><text style="&st18;" transform="matrix(&st17;  3854.66  528.39 )">BR</text><path style="stroke-width: 1.42 ;&st7;  " d=" M  3773.37,   477.71  L  3781.87,   477.71  " /><text style="&st18;" transform="matrix(&st17;  3713.02  371.78 )">(*6)</text><text style="&st18;" transform="matrix(&st17;  3701.68  369.3 )">G</text><text style="&st18;" transform="matrix(&st17;  3789.5  371.78 )">(*5)</text><text style="&st18;" transform="matrix(&st17;  3778.17  369.3 )">G</text><text style="&st18;" transform="matrix(&st17;  3506.22  478.67 )">G-R</text><text style="&st18;" transform="matrix(&st17;  3517.55  484.99 )">(*12 *34)</text><text style="&st18;" transform="matrix(&st17;  3721.52  533.26 )">(*6)</text><text style="&st18;" transform="matrix(&st17;  3710.18  530.77 )">G</text><text style="&st18;" transform="matrix(&st17;  3789.5  533.26 )">(*5)</text><text style="&st18;" transform="matrix(&st17;  3778.17  530.77 )">G</text><text style="&st18;" transform="matrix(&st17;  3789.5  626.74 )">(*5)</text><text style="&st18;" transform="matrix(&st17;  3778.17  624.26 )">G</text><path style="stroke-width: 1.42 ;&st7;  " d=" M  3501.41,   511.70  L  3509.91,   511.70  " /><text style="&st18;" transform="matrix(&st17;  3506.22  589.16 )">G-R</text><text style="&st18;" transform="matrix(&st17;  3517.55  590.16 )">(*12)</text><text style="&st18;" transform="matrix(&st17;  3789.5  456.77 )">(*5)</text><text style="&st18;" transform="matrix(&st17;  3778.17  454.29 )">G</text><text style="&st18;" transform="matrix(&st16;  3596.01  643.98 )">G(*6)</text><text style="&st18;" transform="matrix(&st16;  3600.82  660.98 )">G</text><text style="&st18;" transform="matrix(&st16;  3598.34  672.31 )">(*5)</text><text style="&st18;" transform="matrix(&st16;  3651.81  660.98 )">G</text><text style="&st18;" transform="matrix(&st16;  3649.33  672.31 )">(*5)</text><text style="&st18;" transform="matrix(&st16;  3647.01  643.98 )">G(*6)</text><path style="stroke-width: 1.42 ;&st7;  " d=" M  3577.90,   511.70  L  3586.40,   511.70  " /><text style="&st18;" transform="matrix(&st16;  3795.45  169.73 )">L25(A)</text><text style="&st18;" transform="matrix(&st17;  3582.71  589.16 )">G-R</text><text style="&st18;" transform="matrix(&st17;  3594.04  484.99 )">(*23 *34)</text><text style="&st18;" transform="matrix(&st17;  3582.71  478.67 )">G-R</text><text style="&st18;" transform="matrix(&st17;  3594.04  590.16 )">(*23)</text><path style="stroke-width: 1.42 ;&st7;  " d=" M  3594.90,   142.73  L  3589.93,   137.76  " /><path style="stroke-width: 1.42 ;&st7;  " d=" M  3577.90,   149.79  L  3582.87,   154.76  " /><path style="stroke-width: 1.42 ;&st7;  " d=" M  3589.93,   154.76  L  3594.90,   149.79  " /><path style="stroke-width: 1.42 ;&st7;  " d=" M  3582.87,   137.76  L  3577.90,   142.73  " /><text style="&st18;" transform="matrix(&st17;  3531.71  477.24 )">SB</text><text style="&st18;" transform="matrix(&st17;  3608.2  477.24 )">SB</text><text style="&st18;" transform="matrix(&st17;  3619.53  484.99 )">(*23 *35)</text><text style="&st18;" transform="matrix(&st17;  3543.05  484.99 )">(*12 *35)</text><g ewd:figtype="conn" ewd:figID="9" ewd:code="L36,L51"><path style="stroke-width: 1.42 ;&st7;  " d=" M  3773.37,   418.22  L  3773.37,   401.22  L  3790.37,   401.22  L  3790.37,   418.22  L  3773.37,   418.22  " /><path style="stroke-width: 0.85 ;&st7;  " d=" M  3781.87,   401.22  L  3781.87,   418.22  " /><text style="&st18;" transform="matrix(&st16;  3772.39  424.72 )">6</text><text style="&st18;" transform="matrix(&st16;  3772.39  433.78 )">5</text><text style="&st18;" transform="matrix(&st16;  3779.6  433.78 )">B</text><path style="stroke-width: 1.42 ;&st7;   " d=" M  3786.40,   431.81  C  3786.40    429.31   3784.37    427.28   3781.87    427.28  " /><path style="stroke-width: 1.42 ;&st7;   " d=" M  3781.87,   427.28  C  3779.36    427.28   3777.34    429.31   3777.34    431.81  " /><path style="stroke-width: 1.42 ;&st7;   " d=" M  3777.34,   431.81  C  3777.34    434.32   3779.36    436.35   3781.87    436.35  " /><path style="stroke-width: 1.42 ;&st7;   " d=" M  3781.87,   436.35  C  3784.37    436.35   3786.40    434.32   3786.40    431.81  " /><path style="stroke-width: 1.42 ;&st7;   " d=" M  3786.40,   422.75  C  3786.40    420.24   3784.37    418.22   3781.87    418.22  " /><path style="stroke-width: 1.42 ;&st7;   " d=" M  3781.87,   418.22  C  3779.36    418.22   3777.34    420.24   3777.34    422.75  " /><path style="stroke-width: 1.42 ;&st7;   " d=" M  3777.34,   422.75  C  3777.34    425.25   3779.36    427.28   3781.87    427.28  " /><path style="stroke-width: 1.42 ;&st7;   " d=" M  3781.87,   427.28  C  3784.37    427.28   3786.40    425.25   3786.40    422.75  " /><text style="&st18;" transform="matrix(&st16;  3779.6  424.72 )">A</text><text style="&st18;" transform="matrix(&st16;  3769.05  398.65 )">13</text><text style="&st18;" transform="matrix(&st16;  3772.39  389.59 )">7</text><text style="&st18;" transform="matrix(&st16;  3779.6  389.59 )">A</text><text style="&st18;" transform="matrix(&st16;  3779.6  398.65 )">B</text><path style="stroke-width: 1.42 ;&st7;   " d=" M  3786.40,   396.69  C  3786.40    394.18   3784.37    392.15   3781.87    392.15  " /><path style="stroke-width: 1.42 ;&st7;   " d=" M  3781.87,   392.15  C  3779.36    392.15   3777.34    394.18   3777.34    396.69  " /><path style="stroke-width: 1.42 ;&st7;   " d=" M  3777.34,   396.69  C  3777.34    399.19   3779.36    401.22   3781.87    401.22  " /><path style="stroke-width: 1.42 ;&st7;   " d=" M  3781.87,   401.22  C  3784.37    401.22   3786.40    399.19   3786.40    396.69  " /><path style="stroke-width: 1.42 ;&st7;   " d=" M  3786.40,   387.62  C  3786.40    385.12   3784.37    383.09   3781.87    383.09  " /><path style="stroke-width: 1.42 ;&st7;   " d=" M  3781.87,   383.09  C  3779.36    383.09   3777.34    385.12   3777.34    387.62  " /><path style="stroke-width: 1.42 ;&st7;   " d=" M  3777.34,   387.62  C  3777.34    390.12   3779.36    392.15   3781.87    392.15  " /><path style="stroke-width: 1.42 ;&st7;   " d=" M  3781.87,   392.15  C  3784.37    392.15   3786.40    390.12   3786.40    387.62  " /><g ewd:figtype="title"><text style="&st18;" transform="matrix(&st17;  3740.78  421.12 )" ewd:textID="56">No. 28 Junction <tspan x="0 " dy="6.0">Connector</tspan></text><text style="&st18;" transform="matrix(&st17;  3754.07  421.11 )">L51(B)</text><text style="&st18;" transform="matrix(&st17;  3760.89  421.12 )" ewd:textID="54">No. 25 Junction <tspan x="0 " dy="6.0">Connector</tspan></text><text style="&st18;" transform="matrix(&st17;  3733.95  421.11 )">L36(A)</text></g><g ewd:code="" ewd:figID="194" ewd:comment="" ewd:figtype="commref"><text style="&st18;" transform="matrix(&st16;  3786.96  424.72 )">(LHD)</text></g><g ewd:code="" ewd:figID="195" ewd:comment="" ewd:figtype="commref"><text style="&st18;" transform="matrix(&st16;  3786.96  433.78 )">(RHD)</text></g><g ewd:code="" ewd:figID="196" ewd:comment="" ewd:figtype="commref"><text style="&st18;" transform="matrix(&st16;  3786.96  389.59 )">(LHD)</text></g><g ewd:code="" ewd:figID="197" ewd:comment="" ewd:figtype="commref"><text style="&st18;" transform="matrix(&st16;  3786.96  398.65 )">(RHD)</text></g></g><g ewd:figtype="conn" ewd:figID="15" ewd:code="I61,I67"><path style="stroke-width: 1.42 ;&st7;  " d=" M  3773.37,   579.69  L  3773.37,   562.69  L  3790.37,   562.69  L  3790.37,   579.69  L  3773.37,   579.69  " /><path style="stroke-width: 0.85 ;&st7;  " d=" M  3781.87,   562.69  L  3781.87,   579.69  " /><text style="&st18;" transform="matrix(&st16;  3772.39  586.19 )">9</text><text style="&st18;" transform="matrix(&st16;  3769.05  595.26 )">16</text><text style="&st18;" transform="matrix(&st16;  3779.45  595.26 )">C</text><path style="stroke-width: 1.42 ;&st7;   " d=" M  3786.40,   593.29  C  3786.40    590.78   3784.37    588.75   3781.87    588.75  " /><path style="stroke-width: 1.42 ;&st7;   " d=" M  3781.87,   588.75  C  3779.36    588.75   3777.34    590.78   3777.34    593.29  " /><path style="stroke-width: 1.42 ;&st7;   " d=" M  3777.34,   593.29  C  3777.34    595.79   3779.36    597.82   3781.87    597.82  " /><path style="stroke-width: 1.42 ;&st7;   " d=" M  3781.87,   597.82  C  3784.37    597.82   3786.40    595.79   3786.40    593.29  " /><path style="stroke-width: 1.42 ;&st7;   " d=" M  3786.40,   584.22  C  3786.40    581.72   3784.37    579.69   3781.87    579.69  " /><path style="stroke-width: 1.42 ;&st7;   " d=" M  3781.87,   579.69  C  3779.36    579.69   3777.34    581.72   3777.34    584.22  " /><path style="stroke-width: 1.42 ;&st7;   " d=" M  3777.34,   584.22  C  3777.34    586.72   3779.36    588.75   3781.87    588.75  " /><path style="stroke-width: 1.42 ;&st7;   " d=" M  3781.87,   588.75  C  3784.37    588.75   3786.40    586.72   3786.40    584.22  " /><text style="&st18;" transform="matrix(&st16;  3779.6  586.19 )">A</text><text style="&st18;" transform="matrix(&st16;  3769.05  560.13 )">15</text><text style="&st18;" transform="matrix(&st16;  3772.39  551.06 )">8</text><text style="&st18;" transform="matrix(&st16;  3779.6  551.06 )">A</text><text style="&st18;" transform="matrix(&st16;  3779.45  560.13 )">C</text><path style="stroke-width: 1.42 ;&st7;   " d=" M  3786.40,   558.16  C  3786.40    555.66   3784.37    553.63   3781.87    553.63  " /><path style="stroke-width: 1.42 ;&st7;   " d=" M  3781.87,   553.63  C  3779.36    553.63   3777.34    555.66   3777.34    558.16  " /><path style="stroke-width: 1.42 ;&st7;   " d=" M  3777.34,   558.16  C  3777.34    560.66   3779.36    562.69   3781.87    562.69  " /><path style="stroke-width: 1.42 ;&st7;   " d=" M  3781.87,   562.69  C  3784.37    562.69   3786.40    560.66   3786.40    558.16  " /><path style="stroke-width: 1.42 ;&st7;   " d=" M  3786.40,   549.09  C  3786.40    546.59   3784.37    544.56   3781.87    544.56  " /><path style="stroke-width: 1.42 ;&st7;   " d=" M  3781.87,   544.56  C  3779.36    544.56   3777.34    546.59   3777.34    549.09  " /><path style="stroke-width: 1.42 ;&st7;   " d=" M  3777.34,   549.09  C  3777.34    551.60   3779.36    553.63   3781.87    553.63  " /><path style="stroke-width: 1.42 ;&st7;   " d=" M  3781.87,   553.63  C  3784.37    553.63   3786.40    551.60   3786.40    549.09  " /><g ewd:figtype="title"><text style="&st18;" transform="matrix(&st17;  3740.78  582.59 )" ewd:textID="49">No. 16 Junction <tspan x="0 " dy="6.0">Connector</tspan></text><text style="&st18;" transform="matrix(&st17;  3754.07  582.59 )">I61(C)</text><text style="&st18;" transform="matrix(&st17;  3760.89  582.59 )" ewd:textID="44">No. 11 Junction <tspan x="0 " dy="6.0">Connector</tspan></text><text style="&st18;" transform="matrix(&st17;  3733.95  582.59 )">I67(A)</text></g><g ewd:code="" ewd:figID="185" ewd:comment="" ewd:figtype="commref"><text style="&st18;" transform="matrix(&st16;  3786.96  586.19 )">(LHD)</text></g><g ewd:code="" ewd:figID="186" ewd:comment="" ewd:figtype="commref"><text style="&st18;" transform="matrix(&st16;  3786.96  595.26 )">(RHD)</text></g><g ewd:code="" ewd:figID="187" ewd:comment="" ewd:figtype="commref"><text style="&st18;" transform="matrix(&st16;  3786.96  551.06 )">(LHD)</text></g><g ewd:code="" ewd:figID="188" ewd:comment="" ewd:figtype="commref"><text style="&st18;" transform="matrix(&st16;  3786.96  560.13 )">(RHD)</text></g></g><g ewd:figtype="rb" ewd:figID="17" ewd:code="FUSE5"><text style="&st18;" transform="matrix(&st16;  3602.83  53.34 )">10A <tspan x="0 " dy="6.0">DOME </tspan><tspan x="0 " dy="6.0">NO.1</tspan></text><text style="&st18;" transform="matrix(&st16;  3584.52  101.49 )">2</text><text style="&st18;" transform="matrix(&st16;  3580.06  86.47 )">2</text><text style="&st18;" transform="matrix(&st16;  3578.32  32.08 )">(BAT)</text><path style="stroke-width: 0.28 ;&st9;  " d=" M  3586.40,    90.37  L  3583.57,    87.54  L  3583.57,    91.79  L  3586.40,    94.62  L  3589.23,    91.79  L  3589.23,    87.54  L  3586.40,    90.37  " /><path style="stroke-width: 1.42 ;&st7;   " d=" M  3584.28,    95.27  C  3581.93     95.27   3580.03     97.17   3580.03     99.52  " /><path style="stroke-width: 1.42 ;&st7;   " d=" M  3580.03,    99.52  C  3580.03    101.87   3581.93    103.77   3584.28    103.77  " /><path style="stroke-width: 1.42 ;&st7;   " d=" M  3588.53,   103.77  C  3590.87    103.77   3592.77    101.87   3592.77     99.52  " /><path style="stroke-width: 1.42 ;&st7;   " d=" M  3592.77,    99.52  C  3592.77     97.17   3590.87     95.27   3588.53     95.27  " /><path style="stroke-width: 1.42 ;&st7;  " d=" M  3588.53,    95.27  L  3584.28,    95.27  " /><path style="stroke-width: 1.42 ;&st7;  " d=" M  3588.53,   103.77  L  3584.28,   103.77  " /><path style="stroke-width: 0.85 ;&st7;  " d=" M  3586.40,    78.27  L  3586.40,    95.27  " /><path style="stroke-width: 1.42 ;&st7;  " d=" M  3573.65,    35.78  L  3573.65,    78.27  L  3599.15,    78.27  L  3599.15,    35.78  L  3573.65,    35.78  " /><path style="stroke-width: 1.42 ;&st7;   " d=" M  3586.40,    47.11  C  3583.66     48.72   3582.75     52.25   3584.36     54.99  " /><path style="stroke-width: 1.42 ;&st7;   " d=" M  3584.36,    54.99  C  3584.88     55.87   3585.52     56.51   3586.40     57.03  " /><path style="stroke-width: 1.42 ;&st7;   " d=" M  3586.40,    66.94  C  3589.14     65.33   3590.05     61.80   3588.44     59.06  " /><path style="stroke-width: 1.42 ;&st7;   " d=" M  3588.44,    59.06  C  3587.92     58.18   3587.28     57.55   3586.40     57.03  " /><path style="stroke-width: 0.85 ;&st7;   " d=" M  3587.82,    45.69  C  3587.82     44.91   3587.18     44.28   3586.40     44.28  " /><path style="stroke-width: 0.85 ;&st7;   " d=" M  3586.40,    44.28  C  3585.62     44.28   3584.98     44.91   3584.98     45.69  " /><path style="stroke-width: 0.85 ;&st7;   " d=" M  3584.98,    45.69  C  3584.98     46.48   3585.62     47.11   3586.40     47.11  " /><path style="stroke-width: 0.85 ;&st7;   " d=" M  3586.40,    47.11  C  3587.18     47.11   3587.82     46.48   3587.82     45.69  " /><path style="stroke-width: 0.85 ;&st7;   " d=" M  3587.82,    68.36  C  3587.82     67.57   3587.18     66.94   3586.40     66.94  " /><path style="stroke-width: 0.85 ;&st7;   " d=" M  3586.40,    66.94  C  3585.62     66.94   3584.98     67.57   3584.98     68.36  " /><path style="stroke-width: 0.85 ;&st7;   " d=" M  3584.98,    68.36  C  3584.98     69.14   3585.62     69.77   3586.40     69.77  " /><path style="stroke-width: 0.85 ;&st7;   " d=" M  3586.40,    69.77  C  3587.18     69.77   3587.82     69.14   3587.82     68.36  " /><path style="stroke-width: 0.85 ;&st7;  " d=" M  3586.40,    69.77  L  3586.40,    78.27  " /></g><g ewd:figtype="w2w" ewd:figID="111" ewd:code="IL6"><text style="&st18;" transform="matrix(&st16;  3513.49  126.98 )">8</text><path style="stroke-width: 1.42 ;&st7;  " d=" M  3531.16,   138.33  L  3526.91,   134.08  L  3522.66,   138.33  " /><path style="stroke-width: 1.42 ;&st7;  " d=" M  3531.16,   134.93  L  3526.91,   130.68  L  3522.66,   134.93  " /><g ewd:code="" ewd:figID="223" ewd:comment="" ewd:figtype="commref"><text style="&st18;" transform="matrix(&st16;  3535.94  126.98 )">(RHD)</text></g></g><g ewd:figtype="w2w" ewd:figID="112" ewd:code="IL2"><text style="&st18;" transform="matrix(&st16;  3513.49  118.49 )">2</text><g ewd:code="" ewd:figID="224" ewd:comment="" ewd:figtype="commref"><text style="&st18;" transform="matrix(&st16;  3535.94  118.49 )">(LHD)</text></g></g><g ewd:code="AI3" ewd:figID="113" ewd:comment="8" ewd:figtype="w2w"><text style="&st18;" transform="matrix(&st16;  3569.65  534.92 )">20</text><g ewd:code="" ewd:figID="235" ewd:comment="8" ewd:figtype="commref"><text style="&st18;" transform="matrix(&st16;  3595.43  534.92 )">(LHD *8)</text></g></g><g ewd:code="AI3" ewd:figID="114" ewd:comment="7" ewd:figtype="w2w"><text style="&st18;" transform="matrix(&st16;  3569.65  526.42 )">51</text><g ewd:code="" ewd:figID="240" ewd:comment="7" ewd:figtype="commref"><text style="&st18;" transform="matrix(&st16;  3595.43  526.42 )">(LHD *7)</text></g></g><g ewd:figtype="w2w" ewd:figID="115" ewd:code="AI3"><path style="stroke-width: 1.42 ;&st7;  " d=" M  3582.15,   502.63  L  3586.40,   506.88  L  3590.65,   502.63  " /><path style="stroke-width: 1.42 ;&st7;  " d=" M  3590.65,   506.03  L  3586.40,   510.28  L  3582.15,   506.03  " /><text style="&st18;" transform="matrix(&st16;  3569.65  517.92 )">30</text><g ewd:code="" ewd:figID="237" ewd:comment="" ewd:figtype="commref"><text style="&st18;" transform="matrix(&st16;  3595.43  517.92 )">(RHD)</text></g></g><g ewd:figtype="w2w" ewd:figID="116" ewd:code="IL5"><text style="&st18;" transform="matrix(&st16;  3765.12  492.42 )">47</text><g ewd:code="" ewd:figID="221" ewd:comment="" ewd:figtype="commref"><text style="&st18;" transform="matrix(&st16;  3790.9  492.42 )">(RHD)</text></g></g><g ewd:figtype="w2w" ewd:figID="117" ewd:code="IL1"><path style="stroke-width: 1.42 ;&st7;  " d=" M  3786.12,   472.04  L  3781.87,   476.29  L  3777.62,   472.04  " /><path style="stroke-width: 1.42 ;&st7;  " d=" M  3777.62,   468.64  L  3781.87,   472.89  L  3786.12,   468.64  " /><text style="&st18;" transform="matrix(&st16;  3765.12  483.92 )">14</text><g ewd:code="" ewd:figID="222" ewd:comment="" ewd:figtype="commref"><text style="&st18;" transform="matrix(&st16;  3790.9  483.92 )">(LHD)</text></g></g><g ewd:figtype="w2w" ewd:figID="118" ewd:code="CA4"><path style="stroke-width: 1.42 ;&st7;  " d=" M  3854.10,   536.63  L  3858.35,   540.88  L  3862.60,   536.63  " /><path style="stroke-width: 1.42 ;&st7;  " d=" M  3862.60,   540.03  L  3858.35,   544.28  L  3854.10,   540.03  " /><text style="&st18;" transform="matrix(&st16;  3841.6  551.91 )">17</text></g><g ewd:figtype="w2w" ewd:figID="119" ewd:code="AC1"><path style="stroke-width: 1.42 ;&st7;  " d=" M  3913.59,   563.26  L  3909.35,   559.01  L  3905.10,   563.26  " /><path style="stroke-width: 1.42 ;&st7;  " d=" M  3913.59,   559.86  L  3909.35,   555.61  L  3905.10,   559.86  " /><text style="&st18;" transform="matrix(&st16;  3895.93  551.91 )">1</text></g><g ewd:code="AI3" ewd:figID="120" ewd:comment="8" ewd:figtype="w2w"><text style="&st18;" transform="matrix(&st16;  3892.59  492.42 )">13</text><g ewd:code="" ewd:figID="212" ewd:comment="8" ewd:figtype="commref"><text style="&st18;" transform="matrix(&st16;  3918.38  492.42 )">(LHD *8)</text></g></g><g ewd:code="AI3" ewd:figID="121" ewd:comment="8" ewd:figtype="w2w"><text style="&st18;" transform="matrix(&st16;  3892.59  483.92 )">55</text><g ewd:code="" ewd:figID="182" ewd:comment="8" ewd:figtype="commref"><text style="&st18;" transform="matrix(&st16;  3918.38  483.92 )">(RHD *8)</text></g></g><g ewd:code="AI3" ewd:figID="122" ewd:comment="1" ewd:figtype="w2w"><text style="&st18;" transform="matrix(&st16;  3892.59  475.43 )">22</text><g ewd:code="" ewd:figID="180" ewd:comment="1" ewd:figtype="commref"><text style="&st18;" transform="matrix(&st16;  3918.38  475.43 )">(RHD *1)</text></g></g><g ewd:code="AI3" ewd:figID="123" ewd:comment="1" ewd:figtype="w2w"><path style="stroke-width: 1.42 ;&st7;  " d=" M  3913.59,   455.04  L  3909.35,   459.29  L  3905.10,   455.04  " /><path style="stroke-width: 1.42 ;&st7;  " d=" M  3905.10,   451.64  L  3909.35,   455.89  L  3913.59,   451.64  " /><text style="&st18;" transform="matrix(&st16;  3892.59  466.93 )">45</text><g ewd:code="" ewd:figID="181" ewd:comment="1" ewd:figtype="commref"><text style="&st18;" transform="matrix(&st16;  3918.38  466.93 )">(LHD *1)</text></g></g><g ewd:figtype="w2w" ewd:figID="124" ewd:code="IL6"><text style="&st18;" transform="matrix(&st16;  3892.59  381.94 )">14</text><g ewd:code="" ewd:figID="225" ewd:comment="" ewd:figtype="commref"><text style="&st18;" transform="matrix(&st16;  3918.38  381.94 )">(RHD)</text></g></g><g ewd:figtype="w2w" ewd:figID="125" ewd:code="IL2"><path style="stroke-width: 1.42 ;&st7;  " d=" M  3905.10,   358.16  L  3909.35,   362.41  L  3913.59,   358.16  " /><path style="stroke-width: 1.42 ;&st7;  " d=" M  3913.59,   361.56  L  3909.35,   365.81  L  3905.10,   361.56  " /><text style="&st18;" transform="matrix(&st16;  3895.93  373.44 )">4</text><g ewd:code="" ewd:figID="226" ewd:comment="" ewd:figtype="commref"><text style="&st18;" transform="matrix(&st16;  3918.38  373.44 )">(LHD)</text></g></g><g ewd:figtype="w2w" ewd:figID="126" ewd:code="AC5"><path style="stroke-width: 1.42 ;&st7;  " d=" M  3998.58,   559.86  L  3994.33,   555.61  L  3990.08,   559.86  " /><path style="stroke-width: 1.42 ;&st7;  " d=" M  3998.58,   563.26  L  3994.33,   559.01  L  3990.08,   563.26  " /><text style="&st18;" transform="matrix(&st16;  3980.91  551.91 )">9</text><g ewd:code="" ewd:figID="178" ewd:comment="" ewd:figtype="commref"><text style="&st18;" transform="matrix(&st16;  4003.36  551.91 )">(RHD)</text></g></g><g ewd:figtype="w2w" ewd:figID="127" ewd:code="IC2"><text style="&st18;" transform="matrix(&st16;  3980.91  543.41 )">9</text><g ewd:code="" ewd:figID="179" ewd:comment="" ewd:figtype="commref"><text style="&st18;" transform="matrix(&st16;  4003.36  543.41 )">(LHD)</text></g></g><g ewd:figtype="gp" ewd:figID="139" ewd:code="CE"><path style="stroke-width: 0.85 ;&st7;  " d=" M  3858.35,   697.25  L  3858.35,   701.50  " /><path style="stroke-width: 0.85 ;&st7;  " d=" M  3849.86,   701.50  L  3866.85,   701.50  " /><path style="stroke-width: 0.85 ;&st7;  " d=" M  3854.10,   704.33  L  3862.60,   704.33  " /><path style="stroke-width: 0.85 ;&st7;  " d=" M  3855.52,   707.17  L  3861.19,   707.17  " /><path style="stroke-width: 0.85 ;&st7;  " d=" M  3856.94,   710.00  L  3859.77,   710.00  " /></g><g ewd:figtype="gp" ewd:figID="140" ewd:code="CC"><path style="stroke-width: 0.85 ;&st7;  " d=" M  3909.35,   697.25  L  3909.35,   701.50  " /><path style="stroke-width: 0.85 ;&st7;  " d=" M  3900.85,   701.50  L  3917.84,   701.50  " /><path style="stroke-width: 0.85 ;&st7;  " d=" M  3905.10,   704.33  L  3913.59,   704.33  " /><path style="stroke-width: 0.85 ;&st7;  " d=" M  3906.51,   707.17  L  3912.18,   707.17  " /><path style="stroke-width: 0.85 ;&st7;  " d=" M  3907.93,   710.00  L  3910.76,   710.00  " /></g><g ewd:figtype="gp" ewd:figID="141" ewd:code="CA"><path style="stroke-width: 0.85 ;&st7;  " d=" M  3994.33,   697.25  L  3994.33,   701.50  " /><path style="stroke-width: 0.85 ;&st7;  " d=" M  3985.83,   701.50  L  4002.83,   701.50  " /><path style="stroke-width: 0.85 ;&st7;  " d=" M  3990.08,   704.33  L  3998.58,   704.33  " /><path style="stroke-width: 0.85 ;&st7;  " d=" M  3991.50,   707.17  L  3997.16,   707.17  " /><path style="stroke-width: 0.85 ;&st7;  " d=" M  3992.91,   710.00  L  3995.75,   710.00  " /></g><g ewd:code="31" ewd:figID="264" ewd:comment="26,11,27,30,27,29" ewd:figtype="comment"><text style="&st18;" transform="matrix(&st16;  3880.45  88.74 )">*31 :*26 *11,*27 *30,*27 *29</text></g><g ewd:code="30" ewd:figID="265" ewd:comment="" ewd:figtype="comment"><text style="&st18;" transform="matrix(&st16;  3880.45  80.24 )">*30 :RHD 1HZ</text></g><g ewd:code="14" ewd:figID="268" ewd:comment="" ewd:figtype="comment"><text style="&st18;" transform="matrix(&st16;  3744.47  114.24 )" ewd:textID="10">*14 :LHD 1GR-FE w/o ABS</text></g><g ewd:code="8" ewd:figID="278" ewd:comment="" ewd:figtype="comment"><text style="&st18;" transform="matrix(&st16;  3744.47  71.74 )">* 8 :1VD-FTV</text></g><g ewd:code="28" ewd:figID="263" ewd:comment="11" ewd:figtype="comment"><text style="&st18;" transform="matrix(&st16;  3880.45  63.24 )" ewd:textID="19">*28 :LHD *11 w/o SRS</text></g><g ewd:code="32" ewd:figID="280" ewd:comment="" ewd:figtype="comment"><text style="&st18;" transform="matrix(&st16;  3880.45  97.24 )" ewd:textID="21">*32 :Before Jul. 2021 Production</text></g><g ewd:code="27" ewd:figID="261" ewd:comment="" ewd:figtype="comment"><text style="&st18;" transform="matrix(&st16;  3880.45  54.75 )" ewd:textID="18">*27 :From Sep. 2017 Production</text></g><g ewd:code="11" ewd:figID="277" ewd:comment="" ewd:figtype="comment"><text style="&st18;" transform="matrix(&st16;  3744.47  88.74 )" ewd:textID="7">*11 :1HZ 12V Battery Type</text></g><g ewd:code="35" ewd:figID="283" ewd:comment="" ewd:figtype="comment"><text style="&st18;" transform="matrix(&st16;  3880.45  122.73 )" ewd:textID="24">*35 :From Sep. 2022 Production</text></g><g ewd:code="26" ewd:figID="260" ewd:comment="" ewd:figtype="comment"><text style="&st18;" transform="matrix(&st16;  3880.45  46.25 )" ewd:textID="17">*26 :Before Sep. 2017 Production</text></g><g ewd:code="29" ewd:figID="262" ewd:comment="11" ewd:figtype="comment"><text style="&st18;" transform="matrix(&st16;  3880.45  71.74 )" ewd:textID="20">*29 :LHD *11 w/ SRS</text></g><g ewd:code="1" ewd:figID="276" ewd:comment="" ewd:figtype="comment"><text style="&st18;" transform="matrix(&st16;  3744.47  37.75 )">* 1 :1HZ</text></g><g ewd:code="33" ewd:figID="281" ewd:comment="" ewd:figtype="comment"><text style="&st18;" transform="matrix(&st16;  3880.45  105.74 )" ewd:textID="22">*33 :From Jul. 2021 Production</text></g><g ewd:code="34" ewd:figID="282" ewd:comment="" ewd:figtype="comment"><text style="&st18;" transform="matrix(&st16;  3880.45  114.24 )" ewd:textID="23">*34 :Before Sep. 2022 Production</text></g><g ewd:code="15" ewd:figID="266" ewd:comment="" ewd:figtype="comment"><text style="&st18;" transform="matrix(&st16;  3744.47  122.73 )" ewd:textID="11">*15 :1HZ w/o ABS</text></g><g ewd:code="12" ewd:figID="269" ewd:comment="" ewd:figtype="comment"><text style="&st18;" transform="matrix(&st16;  3744.47  97.24 )" ewd:textID="8">*12 :w/ ABS w/o VSC</text></g><g ewd:code="23" ewd:figID="270" ewd:comment="" ewd:figtype="comment"><text style="&st18;" transform="matrix(&st16;  3880.45  37.75 )" ewd:textID="15">*23 :w/ VSC</text></g><g ewd:code="6" ewd:figID="274" ewd:comment="" ewd:figtype="comment"><text style="&st18;" transform="matrix(&st16;  3744.47  54.75 )" ewd:textID="5">* 6 :24V Battery Type</text></g><g ewd:code="7" ewd:figID="279" ewd:comment="" ewd:figtype="comment"><text style="&st18;" transform="matrix(&st16;  3744.47  63.24 )">* 7 :1GR-FE</text></g><g ewd:code="10" ewd:figID="258" ewd:comment="" ewd:figtype="comment"><text style="&st18;" transform="matrix(&st16;  3744.47  80.24 )" ewd:textID="6">*10 :1HZ 24V Battery Type</text></g><g ewd:code="13" ewd:figID="267" ewd:comment="" ewd:figtype="comment"><text style="&st18;" transform="matrix(&st16;  3744.47  105.74 )" ewd:textID="9">*13 :w/o ABS</text></g><g ewd:code="5" ewd:figID="275" ewd:comment="" ewd:figtype="comment"><text style="&st18;" transform="matrix(&st16;  3744.47  46.25 )" ewd:textID="4">* 5 :12V Battery Type</text></g></svg>