<?xml version="1.0" encoding="utf-8"?>
<!DOCTYPE svg PUBLIC "-//W3C//DTD SVG 1.0//EN" "http://www.w3.org/TR/2001/REC-SVG-20010904/DTD/svg10.dtd"[
	<!ENTITY ns_flows "http://ns.adobe.com/Flows/1.0/">
	<!ENTITY ns_svg "http://www.w3.org/2000/svg">
	<!ENTITY ns_xlink "http://www.w3.org/1999/xlink">
	<!ENTITY st0 "font-size:7px;font-family:'MS-PGothic';adobe-font-script:japanese;">
	<!ENTITY st1 "font-size:6px;font-family:'ArialMT';">
	<!-- White fill  -->
	<!ENTITY st2 "fill:#FFFFFF;stroke:#000000; stroke-width:1.41;stroke-linecap:round;stroke-linejoin:round;">
	<!-- Yellow fill  -->
	<!ENTITY st3 "fill:#FFFFCC;stroke:#FFFFCC; stroke-width:0.1;stroke-linecap:round;stroke-linejoin:round;">
	<!-- Gray fill  -->
	<!ENTITY st4 "fill:#CCCCCC;stroke:#CCCCCC; stroke-width:0.1;stroke-linecap:round;stroke-linejoin:round;">
	<!-- Light-blue fill -->
	<!ENTITY st5 "fill:#CCECF4;stroke:#000000; stroke-width:1.133;stroke-linecap:round;stroke-linejoin:round;">
	<!ENTITY st6 "fill:none;stroke-linecap:butt; stroke-linejoin:round;">
	<!ENTITY st7 "fill:none;stroke:#000000;stroke-linecap:round;stroke-linejoin:round;">
	<!ENTITY st8 "enable-background:new    ;">
	<!-- Black fill -->
	<!ENTITY st9 "fill:#000000;stroke:#000000; stroke-linecap:round;stroke-linejoin:round;">
	<!-- SRS note   -->
	<!ENTITY st10 "font-size:9px;font-family:'ArialMT';">
	<!ENTITY st11 "font-size:9px;font-family:'Svg Symbol';">
	<!ENTITY st12 "font-size:6px;font-family:'Svg Symbol';">
	<!ENTITY st13 "fill:none;stroke:#ff0000;stroke-linecap:round;stroke-linejoin:round;">
	<!-- Yellow fill  -->
	<!ENTITY st14 "fill:#FFFF00;stroke:#FFFF00; stroke-width:0.1;stroke-linecap:round;stroke-linejoin:round;">
	<!ENTITY st15 "font-size:6px;font-family:'MS-PGothic';adobe-font-script:japanese;">
	<!ENTITY st16 "1.00 0.00 0.00 1.00">
	<!ENTITY st17 "0.00 -1.00 1.00 0.00">
	<!ENTITY st18 "font-size:6px;font-family:'Arial';">
	<!ENTITY st19 "font-size:9px;font-family:'Arial';">
	<!ENTITY st20 "font-size:6px;font-family:'MS-PGothic','MS PGothic';adobe-font-script:japanese;">
	<!ENTITY st21 "font-size:7px;font-family:'MS-PGothic','MS PGothic';adobe-font-script:japanese;">
	<!ATTLIST svg
		xmlns:ewd CDATA #FIXED "http://shcl.co.jp/ewd"
		xmlns:a CDATA #FIXED "http://ns.adobe.com/AdobeSVGViewerExtensions/3.0/"
		ewd:ver CDATA #IMPLIED
	>
	<!ATTLIST a
		ewd:lineID CDATA #IMPLIED
		ewd:groupID CDATA #IMPLIED
		ewd:figtype CDATA #IMPLIED
		ewd:code CDATA #IMPLIED
		ewd:figID CDATA #IMPLIED
		ewd:pinNo CDATA #IMPLIED
		ewd:comment CDATA #IMPLIED >
	<!ATTLIST g
		ewd:lineID CDATA #IMPLIED
		ewd:groupID CDATA #IMPLIED
		ewd:figtype CDATA #IMPLIED
		ewd:code CDATA #IMPLIED
		ewd:figID CDATA #IMPLIED
		ewd:pinNo CDATA #IMPLIED
		ewd:comment CDATA #IMPLIED >
	<!ATTLIST text
		ewd:textID CDATA #IMPLIED >
	<!ATTLIST title
		ewd:textID CDATA #IMPLIED >
]>
<!-- Generator: Shintec Hozumi YS   -->
<svg onload="call_execInitLoadProc_svg('system')" style="overflow:visible;  enable-background:new 0 0 4050.115 710.000" viewBox="0 0 4050.115 710.000" height="710.000" width="4050.115" xml:space="preserve" ewd:ver="2.3.1.16" xmlns="&ns_svg;" xmlns:a="http://ns.adobe.com/AdobeSVGViewerExtensions/3.0/" xmlns:ewd="http://shcl.co.jp/ewd" xmlns:xlink="&ns_xlink;">
<text style="&st18;" transform="matrix(&st17;  2758.34  150.94 )">B-Y</text><text style="&st18;" transform="matrix(&st16;  2613.28  389.02 )">SB</text><text style="&st18;" transform="matrix(&st16;  2562.29  389.02 )">SB</text><text style="&st18;" transform="matrix(&st16;  2612.23  40.58 )">R-Y</text><text style="&st18;" transform="matrix(&st16;  2615.41  15.09 )">Y</text><path style="stroke-width: 1.42 ;&st7;  " d=" M  2966.00,   520.20  L  2957.51,   520.20  " /><path style="stroke-width: 1.42 ;&st7;  " d=" M  2881.02,   520.20  L  2872.52,   520.20  " /><text style="&st18;" transform="matrix(&st17;  2953.81  499.92 )">G-R</text><text style="&st18;" transform="matrix(&st17;  2965.14  500.93 )">(*15)</text><text style="&st18;" transform="matrix(&st17;  2919.82  499.92 )">G-R</text><text style="&st18;" transform="matrix(&st17;  2931.15  500.93 )">(*14)</text><text style="&st18;" transform="matrix(&st17;  2953.81  546.66 )">G-R</text><text style="&st18;" transform="matrix(&st17;  2965.14  547.67 )">(*15)</text><text style="&st18;" transform="matrix(&st17;  2868.82  542.82 )">L</text><text style="&st18;" transform="matrix(&st17;  2880.16  547.67 )">(*15)</text><text style="&st18;" transform="matrix(&st17;  2868.82  496.08 )">L</text><text style="&st18;" transform="matrix(&st17;  2880.16  500.93 )">(*15)</text><text style="&st18;" transform="matrix(&st17;  2834.83  496.08 )">L</text><text style="&st18;" transform="matrix(&st17;  2846.16  500.93 )">(*14)</text><text style="&st18;" transform="matrix(&st16;  2559.19  643.98 )">G(*6)</text><text style="&st18;" transform="matrix(&st16;  2610.18  643.98 )">G(*6)</text><text style="&st18;" transform="matrix(&st16;  2564.0  660.98 )">G</text><text style="&st18;" transform="matrix(&st16;  2561.51  672.31 )">(*5)</text><text style="&st18;" transform="matrix(&st16;  2614.99  660.98 )">G</text><text style="&st18;" transform="matrix(&st16;  2612.51  672.31 )">(*5)</text><text style="&st18;" transform="matrix(&st16;  2560.85  448.51 )">G-R</text><text style="&st18;" transform="matrix(&st16;  2559.85  459.84 )">(*12)</text><text style="&st18;" transform="matrix(&st16;  2611.85  448.51 )">G-R</text><text style="&st18;" transform="matrix(&st16;  2610.84  459.84 )">(*12)</text><text style="&st18;" transform="matrix(&st17;  2752.68  602.91 )">(*15)</text><text style="&st18;" transform="matrix(&st17;  2741.35  600.62 )">BR</text><text style="&st18;" transform="matrix(&st17;  2710.18  602.91 )">(*14)</text><text style="&st18;" transform="matrix(&st17;  2698.85  600.62 )">BR</text><path style="stroke-width: 1.42 ;&st7;  " d=" M  2753.54,   533.67  L  2748.57,   528.70  " /><path style="stroke-width: 1.42 ;&st7;  " d=" M  2736.54,   540.73  L  2741.51,   545.69  " /><path style="stroke-width: 1.42 ;&st7;  " d=" M  2748.57,   545.69  L  2753.54,   540.73  " /><path style="stroke-width: 1.42 ;&st7;  " d=" M  2741.51,   528.70  L  2736.54,   533.67  " /><text style="&st18;" transform="matrix(&st16;  2783.1  533.5 )">BR</text><text style="&st18;" transform="matrix(&st16;  2780.81  544.83 )">(*13)</text><text style="&st18;" transform="matrix(&st16;  2554.34  626.98 )">G-R(*23)</text><text style="&st18;" transform="matrix(&st16;  2605.33  626.98 )">G-R(*23)</text><text style="&st18;" transform="matrix(&st16;  2564.42  15.09 )">Y</text><text style="&st18;" transform="matrix(&st16;  2610.84  26.42 )">(*33)</text><text style="&st18;" transform="matrix(&st16;  2561.24  40.58 )">R-Y</text><text style="&st18;" transform="matrix(&st16;  2559.85  26.42 )">(*33)</text><text style="&st18;" transform="matrix(&st16;  2559.85  51.91 )">(*32)</text><text style="&st18;" transform="matrix(&st16;  2610.84  51.91 )">(*32)</text><text style="&st18;" transform="matrix(&st16;  2555.04  372.03 )">R-L(*32)</text><text style="&st18;" transform="matrix(&st16;  2606.03  372.03 )">R-L(*32)</text><text style="&st18;" transform="matrix(&st16;  2559.85  400.35 )">(*33)</text><text style="&st18;" transform="matrix(&st16;  2610.84  400.35 )">(*33)</text><text style="&st18;" transform="matrix(&st17;  2503.39  245.92 )">R</text><text style="&st18;" transform="matrix(&st17;  2514.72  250.22 )">(*33)</text><text style="&st18;" transform="matrix(&st17;  2769.67  152.49 )">(*34)</text><text style="&st18;" transform="matrix(&st17;  2783.84  148.03 )">V</text><text style="&st18;" transform="matrix(&st17;  2795.17  152.49 )">(*35)</text><text style="&st18;" transform="matrix(&st17;  2664.86  176.59 )">R-Y</text><text style="&st18;" transform="matrix(&st17;  2676.19  177.98 )">(*32)</text><text style="&st18;" transform="matrix(&st17;  2710.18  177.98 )">(*33)</text><text style="&st18;" transform="matrix(&st17;  2698.85  173.41 )">Y</text><g ewd:figtype="rb" ewd:figID="18" ewd:code="FUSE18"><text style="&st18;" transform="matrix(&st16;  2803.96  56.17 )">10A <tspan x="0 " dy="6.0">MET</tspan></text><text style="&st18;" transform="matrix(&st16;  2785.66  101.49 )">2</text><text style="&st18;" transform="matrix(&st16;  2781.19  86.47 )">2</text><text style="&st18;" transform="matrix(&st16;  2782.17  32.08 )">(IG)</text><path style="stroke-width: 0.28 ;&st9;  " d=" M  2787.53,    90.37  L  2784.70,    87.54  L  2784.70,    91.79  L  2787.53,    94.62  L  2790.37,    91.79  L  2790.37,    87.54  L  2787.53,    90.37  " /><path style="stroke-width: 1.42 ;&st7;   " d=" M  2785.41,    95.27  C  2783.06     95.27   2781.16     97.17   2781.16     99.52  " /><path style="stroke-width: 1.42 ;&st7;   " d=" M  2781.16,    99.52  C  2781.16    101.87   2783.06    103.77   2785.41    103.77  " /><path style="stroke-width: 1.42 ;&st7;   " d=" M  2789.66,   103.77  C  2792.01    103.77   2793.91    101.87   2793.91     99.52  " /><path style="stroke-width: 1.42 ;&st7;   " d=" M  2793.91,    99.52  C  2793.91     97.17   2792.01     95.27   2789.66     95.27  " /><path style="stroke-width: 1.42 ;&st7;  " d=" M  2789.66,    95.27  L  2785.41,    95.27  " /><path style="stroke-width: 1.42 ;&st7;  " d=" M  2789.66,   103.77  L  2785.41,   103.77  " /><path style="stroke-width: 0.85 ;&st7;  " d=" M  2787.53,    78.27  L  2787.53,    95.27  " /><path style="stroke-width: 1.42 ;&st7;  " d=" M  2774.79,    35.78  L  2774.79,    78.27  L  2800.28,    78.27  L  2800.28,    35.78  L  2774.79,    35.78  " /><path style="stroke-width: 1.42 ;&st7;   " d=" M  2787.53,    47.11  C  2784.80     48.72   2783.88     52.25   2785.50     54.99  " /><path style="stroke-width: 1.42 ;&st7;   " d=" M  2785.50,    54.99  C  2786.02     55.87   2786.65     56.51   2787.53     57.03  " /><path style="stroke-width: 1.42 ;&st7;   " d=" M  2787.53,    66.94  C  2790.27     65.33   2791.18     61.80   2789.57     59.06  " /><path style="stroke-width: 1.42 ;&st7;   " d=" M  2789.57,    59.06  C  2789.05     58.18   2788.42     57.55   2787.53     57.03  " /><path style="stroke-width: 0.85 ;&st7;   " d=" M  2788.95,    45.69  C  2788.95     44.91   2788.32     44.28   2787.53     44.28  " /><path style="stroke-width: 0.85 ;&st7;   " d=" M  2787.53,    44.28  C  2786.75     44.28   2786.12     44.91   2786.12     45.69  " /><path style="stroke-width: 0.85 ;&st7;   " d=" M  2786.12,    45.69  C  2786.12     46.48   2786.75     47.11   2787.53     47.11  " /><path style="stroke-width: 0.85 ;&st7;   " d=" M  2787.53,    47.11  C  2788.32     47.11   2788.95     46.48   2788.95     45.69  " /><path style="stroke-width: 0.85 ;&st7;   " d=" M  2788.95,    68.36  C  2788.95     67.57   2788.32     66.94   2787.53     66.94  " /><path style="stroke-width: 0.85 ;&st7;   " d=" M  2787.53,    66.94  C  2786.75     66.94   2786.12     67.57   2786.12     68.36  " /><path style="stroke-width: 0.85 ;&st7;   " d=" M  2786.12,    68.36  C  2786.12     69.14   2786.75     69.77   2787.53     69.77  " /><path style="stroke-width: 0.85 ;&st7;   " d=" M  2787.53,    69.77  C  2788.32     69.77   2788.95     69.14   2788.95     68.36  " /><path style="stroke-width: 0.85 ;&st7;  " d=" M  2787.53,    69.77  L  2787.53,    78.27  " /></g><g ewd:code="I72,I106,I118" ewd:figID="20" ewd:comment="23,24" ewd:figtype="conn"><path style="stroke-width: 1.42 ;&st7;  " d=" M  2898.01,   146.26  L  2915.01,   146.26  L  2915.01,   163.26  L  2898.01,   163.26  L  2898.01,   146.26  " /><path style="stroke-width: 0.85 ;&st7;  " d=" M  2906.51,   146.26  L  2906.51,   163.26  " /><text style="&st18;" transform="matrix(&st16;  2897.03  169.76 )">1</text><text style="&st18;" transform="matrix(&st16;  2897.03  187.89 )">4</text><text style="&st18;" transform="matrix(&st16;  2897.03  178.82 )">1</text><text style="&st18;" transform="matrix(&st16;  2904.25  178.82 )">B</text><path style="stroke-width: 1.42 ;&st7;   " d=" M  2911.05,   167.79  C  2911.05    165.29   2909.02    163.26   2906.51    163.26  " /><path style="stroke-width: 1.42 ;&st7;   " d=" M  2906.51,   163.26  C  2904.01    163.26   2901.98    165.29   2901.98    167.79  " /><path style="stroke-width: 1.42 ;&st7;   " d=" M  2901.98,   167.79  C  2901.98    170.29   2904.01    172.32   2906.51    172.32  " /><path style="stroke-width: 1.42 ;&st7;   " d=" M  2906.51,   172.32  C  2909.02    172.32   2911.05    170.29   2911.05    167.79  " /><path style="stroke-width: 1.42 ;&st7;   " d=" M  2911.05,   176.86  C  2911.05    174.35   2909.02    172.32   2906.51    172.32  " /><path style="stroke-width: 1.42 ;&st7;   " d=" M  2906.51,   172.32  C  2904.01    172.32   2901.98    174.35   2901.98    176.86  " /><path style="stroke-width: 1.42 ;&st7;   " d=" M  2901.98,   176.86  C  2901.98    179.36   2904.01    181.39   2906.51    181.39  " /><path style="stroke-width: 1.42 ;&st7;   " d=" M  2906.51,   181.39  C  2909.02    181.39   2911.05    179.36   2911.05    176.86  " /><path style="stroke-width: 1.42 ;&st7;   " d=" M  2911.05,   185.92  C  2911.05    183.42   2909.02    181.39   2906.51    181.39  " /><path style="stroke-width: 1.42 ;&st7;   " d=" M  2906.51,   181.39  C  2904.01    181.39   2901.98    183.42   2901.98    185.92  " /><path style="stroke-width: 1.42 ;&st7;   " d=" M  2901.98,   185.92  C  2901.98    188.42   2904.01    190.45   2906.51    190.45  " /><path style="stroke-width: 1.42 ;&st7;   " d=" M  2906.51,   190.45  C  2909.02    190.45   2911.05    188.42   2911.05    185.92  " /><text style="&st18;" transform="matrix(&st16;  2904.25  169.76 )">A</text><text style="&st18;" transform="matrix(&st16;  2904.09  187.89 )">C</text><text style="&st18;" transform="matrix(&st16;  2897.03  125.57 )">2</text><text style="&st18;" transform="matrix(&st16;  2897.03  143.7 )">5</text><text style="&st18;" transform="matrix(&st16;  2897.03  134.63 )">2</text><path style="stroke-width: 1.42 ;&st7;   " d=" M  2911.05,   141.73  C  2911.05    139.23   2909.02    137.20   2906.51    137.20  " /><path style="stroke-width: 1.42 ;&st7;   " d=" M  2906.51,   137.20  C  2904.01    137.20   2901.98    139.23   2901.98    141.73  " /><path style="stroke-width: 1.42 ;&st7;   " d=" M  2901.98,   141.73  C  2901.98    144.23   2904.01    146.26   2906.51    146.26  " /><path style="stroke-width: 1.42 ;&st7;   " d=" M  2906.51,   146.26  C  2909.02    146.26   2911.05    144.23   2911.05    141.73  " /><text style="&st18;" transform="matrix(&st16;  2904.25  125.57 )">A</text><text style="&st18;" transform="matrix(&st16;  2904.09  143.7 )">C</text><path style="stroke-width: 1.42 ;&st7;   " d=" M  2911.05,   123.60  C  2911.05    121.09   2909.02    119.07   2906.51    119.07  " /><path style="stroke-width: 1.42 ;&st7;   " d=" M  2906.51,   119.07  C  2904.01    119.07   2901.98    121.09   2901.98    123.60  " /><path style="stroke-width: 1.42 ;&st7;   " d=" M  2901.98,   123.60  C  2901.98    126.10   2904.01    128.13   2906.51    128.13  " /><path style="stroke-width: 1.42 ;&st7;   " d=" M  2906.51,   128.13  C  2909.02    128.13   2911.05    126.10   2911.05    123.60  " /><path style="stroke-width: 1.42 ;&st7;   " d=" M  2911.05,   132.66  C  2911.05    130.16   2909.02    128.13   2906.51    128.13  " /><path style="stroke-width: 1.42 ;&st7;   " d=" M  2906.51,   128.13  C  2904.01    128.13   2901.98    130.16   2901.98    132.66  " /><path style="stroke-width: 1.42 ;&st7;   " d=" M  2901.98,   132.66  C  2901.98    135.17   2904.01    137.20   2906.51    137.20  " /><path style="stroke-width: 1.42 ;&st7;   " d=" M  2906.51,   137.20  C  2909.02    137.20   2911.05    135.17   2911.05    132.66  " /><text style="&st18;" transform="matrix(&st16;  2904.25  134.63 )">B</text><g ewd:figtype="title"><text style="&st18;" transform="matrix(&st17;  2861.15  166.16 )">I106(B)</text><text style="&st18;" transform="matrix(&st17;  2867.97  166.16 )" ewd:textID="42">No. 9 Junction <tspan x="0 " dy="6.0">Connector</tspan></text><text style="&st18;" transform="matrix(&st17;  2841.04  166.16 )">I72(A)</text><text style="&st18;" transform="matrix(&st17;  2847.86  166.16 )" ewd:textID="51">No. 21 Junction <tspan x="0 " dy="6.0">Connector</tspan></text><text style="&st18;" transform="matrix(&st17;  2888.09  166.16 )" ewd:textID="59">No. 36 Junction <tspan x="0 " dy="6.0">Connector</tspan></text><text style="&st18;" transform="matrix(&st17;  2881.26  166.16 )">I118(C)</text></g><g ewd:code="" ewd:figID="242" ewd:comment="24" ewd:figtype="commref"><text style="&st18;" transform="matrix(&st16;  2911.61  125.57 )">(LHD *24)</text></g><g ewd:code="" ewd:figID="243" ewd:comment="" ewd:figtype="commref"><text style="&st18;" transform="matrix(&st16;  2911.61  134.63 )">(RHD)</text></g><g ewd:code="" ewd:figID="244" ewd:comment="" ewd:figtype="commref"><text style="&st18;" transform="matrix(&st16;  2911.61  178.82 )">(RHD)</text></g><g ewd:code="" ewd:figID="245" ewd:comment="23" ewd:figtype="commref"><text style="&st18;" transform="matrix(&st16;  2911.61  187.89 )">(LHD *23)</text></g><g ewd:code="" ewd:figID="246" ewd:comment="24" ewd:figtype="commref"><text style="&st18;" transform="matrix(&st16;  2911.61  169.76 )">(LHD *24)</text></g><g ewd:code="" ewd:figID="247" ewd:comment="23" ewd:figtype="commref"><text style="&st18;" transform="matrix(&st16;  2911.61  143.7 )">(LHD *23)</text></g></g><g ewd:figtype="conn" ewd:figID="22" ewd:code="C96"><path style="stroke-width: 1.42 ;&st7;  " d=" M  2787.53,   596.69  L  2940.51,   596.69  L  2940.51,   571.19  L  2787.53,   571.19  L  2787.53,   596.69  " /><g ewd:lineID="167"><text style="&st18;" transform="matrix(&st16;  2798.19  567.5 )">2</text><text style="&st18;" transform="matrix(&st16;  2800.25  578.82 )">SE</text></g><g ewd:lineID="168,169"><text style="&st18;" transform="matrix(&st16;  2832.19  567.5 )">1</text><text style="&st18;" transform="matrix(&st16;  2833.39  578.82 )">IG+</text></g><g ewd:lineID="173,174"><text style="&st18;" transform="matrix(&st16;  2917.17  567.5 )">3</text><text style="&st18;" transform="matrix(&st16;  2920.43  578.82 )">SI</text></g><g ewd:figtype="title"><text style="&st18;" transform="matrix(&st17;  2777.89  599.59 )" ewd:textID="62">Speedometer <tspan x="0 " dy="6.0">Sensor</tspan></text><text style="&st18;" transform="matrix(&st17;  2771.07  599.58 )">C96</text></g></g><g ewd:figtype="w2w" ewd:figID="95" ewd:code="AC2"><path style="stroke-width: 1.42 ;&st7;  " d=" M  2876.77,   529.26  L  2872.52,   525.01  L  2868.27,   529.26  " /><path style="stroke-width: 1.42 ;&st7;  " d=" M  2876.77,   525.86  L  2872.52,   521.61  L  2868.27,   525.86  " /><text style="&st18;" transform="matrix(&st16;  2859.1  517.92 )">6</text></g><g ewd:figtype="w2w" ewd:figID="96" ewd:code="AC2"><path style="stroke-width: 1.42 ;&st7;  " d=" M  2961.75,   525.86  L  2957.50,   521.61  L  2953.26,   525.86  " /><path style="stroke-width: 1.42 ;&st7;  " d=" M  2961.75,   529.26  L  2957.50,   525.01  L  2953.26,   529.26  " /><text style="&st18;" transform="matrix(&st16;  2944.09  517.92 )">7</text></g><g ewd:figtype="gp" ewd:figID="137" ewd:code="CA"><path style="stroke-width: 0.85 ;&st7;  " d=" M  2701.13,   710.00  L  2703.96,   710.00  " /><path style="stroke-width: 0.85 ;&st7;  " d=" M  2699.71,   707.17  L  2705.38,   707.17  " /><path style="stroke-width: 0.85 ;&st7;  " d=" M  2698.30,   704.33  L  2706.80,   704.33  " /><path style="stroke-width: 0.85 ;&st7;  " d=" M  2694.05,   701.50  L  2711.05,   701.50  " /><path style="stroke-width: 0.85 ;&st7;  " d=" M  2702.55,   697.25  L  2702.55,   701.50  " /></g><g ewd:figtype="gp" ewd:figID="138" ewd:code="CC"><path style="stroke-width: 0.85 ;&st7;  " d=" M  2743.62,   710.00  L  2746.46,   710.00  " /><path style="stroke-width: 0.85 ;&st7;  " d=" M  2742.21,   707.17  L  2747.87,   707.17  " /><path style="stroke-width: 0.85 ;&st7;  " d=" M  2740.79,   704.33  L  2749.29,   704.33  " /><path style="stroke-width: 0.85 ;&st7;  " d=" M  2736.54,   701.50  L  2753.54,   701.50  " /><path style="stroke-width: 0.85 ;&st7;  " d=" M  2745.04,   697.25  L  2745.04,   701.50  "/></g><g ewd:code="24" ewd:figID="227" ewd:comment="" ewd:figtype="comment"><text style="&st18;" transform="matrix(&st16;  2911.61  250.21 )" ewd:textID="16">*24 :w/o VSC</text></g><g ewd:code="3" ewd:figID="249" ewd:comment="" ewd:figtype="comment"><text style="&st18;" transform="matrix(&st16;  2775.63  250.21 )" ewd:textID="2">* 3 :Pick-Up Body Type</text></g><g ewd:code="13" ewd:figID="231" ewd:comment="" ewd:figtype="comment"><text style="&st18;" transform="matrix(&st16;  2775.63  309.7 )" ewd:textID="9">*13 :w/o ABS</text></g><g ewd:code="37" ewd:figID="184" ewd:comment="" ewd:figtype="comment"><text style="&st18;" transform="matrix(&st16;  2911.61  301.2 )" ewd:textID="26">*37 :w/ Pre-Collision System</text></g><g ewd:code="4" ewd:figID="248" ewd:comment="" ewd:figtype="comment"><text style="&st18;" transform="matrix(&st16;  2775.63  258.71 )" ewd:textID="3">* 4 :Except Pick-Up Body Type</text></g><g ewd:code="12" ewd:figID="229" ewd:comment="" ewd:figtype="comment"><text style="&st18;" transform="matrix(&st16;  2775.63  301.2 )" ewd:textID="8">*12 :w/ ABS w/o VSC</text></g><g ewd:code="33" ewd:figID="273" ewd:comment="" ewd:figtype="comment"><text style="&st18;" transform="matrix(&st16;  2911.61  267.21 )" ewd:textID="22">*33 :From Jul. 2021 Production</text></g><g ewd:code="34" ewd:figID="272" ewd:comment="" ewd:figtype="comment"><text style="&st18;" transform="matrix(&st16;  2911.61  275.71 )" ewd:textID="23">*34 :Before Sep. 2022 Production</text></g><g ewd:code="14" ewd:figID="230" ewd:comment="" ewd:figtype="comment"><text style="&st18;" transform="matrix(&st16;  2775.63  318.2 )" ewd:textID="10">*14 :LHD 1GR-FE w/o ABS</text></g><g ewd:code="7" ewd:figID="159" ewd:comment="" ewd:figtype="comment"><text style="&st18;" transform="matrix(&st16;  2775.63  284.21 )">* 7 :1GR-FE</text></g><g ewd:code="32" ewd:figID="259" ewd:comment="" ewd:figtype="comment"><text style="&st18;" transform="matrix(&st16;  2911.61  258.71 )" ewd:textID="21">*32 :Before Jul. 2021 Production</text></g><g ewd:code="23" ewd:figID="228" ewd:comment="" ewd:figtype="comment"><text style="&st18;" transform="matrix(&st16;  2911.61  241.71 )" ewd:textID="15">*23 :w/ VSC</text></g><g ewd:code="5" ewd:figID="251" ewd:comment="" ewd:figtype="comment"><text style="&st18;" transform="matrix(&st16;  2775.63  267.21 )" ewd:textID="4">* 5 :12V Battery Type</text></g><g ewd:code="1" ewd:figID="250" ewd:comment="" ewd:figtype="comment"><text style="&st18;" transform="matrix(&st16;  2775.63  241.71 )">* 1 :1HZ</text></g><g ewd:code="35" ewd:figID="271" ewd:comment="" ewd:figtype="comment"><text style="&st18;" transform="matrix(&st16;  2911.61  284.21 )" ewd:textID="24">*35 :From Sep. 2022 Production</text></g><g ewd:code="8" ewd:figID="176" ewd:comment="" ewd:figtype="comment"><text style="&st18;" transform="matrix(&st16;  2775.63  292.71 )">* 8 :1VD-FTV</text></g><g ewd:code="15" ewd:figID="241" ewd:comment="" ewd:figtype="comment"><text style="&st18;" transform="matrix(&st16;  2775.63  326.7 )" ewd:textID="11">*15 :1HZ w/o ABS</text></g><g ewd:code="36" ewd:figID="183" ewd:comment="" ewd:figtype="comment"><text style="&st18;" transform="matrix(&st16;  2911.61  292.71 )" ewd:textID="25">*36 :w/o Pre-Collision System</text></g><g ewd:code="6" ewd:figID="252" ewd:comment="" ewd:figtype="comment"><text style="&st18;" transform="matrix(&st16;  2775.63  275.71 )" ewd:textID="5">* 6 :24V Battery Type</text></g></svg>
