<?xml version="1.0" encoding="utf-8"?>
<!DOCTYPE svg PUBLIC "-//W3C//DTD SVG 1.0//EN" "http://www.w3.org/TR/2001/REC-SVG-20010904/DTD/svg10.dtd"[
	<!ENTITY ns_flows "http://ns.adobe.com/Flows/1.0/">
	<!ENTITY ns_svg "http://www.w3.org/2000/svg">
	<!ENTITY ns_xlink "http://www.w3.org/1999/xlink">
	<!ENTITY st0 "font-size:7px;font-family:'MS-PGothic';adobe-font-script:japanese;">
	<!ENTITY st1 "font-size:6px;font-family:'ArialMT';">
	<!-- White fill  -->
	<!ENTITY st2 "fill:#FFFFFF;stroke:#000000; stroke-width:1.41;stroke-linecap:round;stroke-linejoin:round;">
	<!-- Yellow fill  -->
	<!ENTITY st3 "fill:#FFFFCC;stroke:#FFFFCC; stroke-width:0.1;stroke-linecap:round;stroke-linejoin:round;">
	<!-- Gray fill  -->
	<!ENTITY st4 "fill:#CCCCCC;stroke:#CCCCCC; stroke-width:0.1;stroke-linecap:round;stroke-linejoin:round;">
	<!-- Light-blue fill -->
	<!ENTITY st5 "fill:#CCECF4;stroke:#000000; stroke-width:1.133;stroke-linecap:round;stroke-linejoin:round;">
	<!ENTITY st6 "fill:none;stroke-linecap:butt; stroke-linejoin:round;">
	<!ENTITY st7 "fill:none;stroke:#000000;stroke-linecap:round;stroke-linejoin:round;">
	<!ENTITY st8 "enable-background:new    ;">
	<!-- Black fill -->
	<!ENTITY st9 "fill:#000000;stroke:#000000; stroke-linecap:round;stroke-linejoin:round;">
	<!-- SRS note   -->
	<!ENTITY st10 "font-size:9px;font-family:'ArialMT';">
	<!ENTITY st11 "font-size:9px;font-family:'Svg Symbol';">
	<!ENTITY st12 "font-size:6px;font-family:'Svg Symbol';">
	<!ENTITY st13 "fill:none;stroke:#ff0000;stroke-linecap:round;stroke-linejoin:round;">
	<!-- Yellow fill  -->
	<!ENTITY st14 "fill:#FFFF00;stroke:#FFFF00; stroke-width:0.1;stroke-linecap:round;stroke-linejoin:round;">
	<!ENTITY st15 "font-size:6px;font-family:'MS-PGothic';adobe-font-script:japanese;">
	<!ENTITY st16 "1.00 0.00 0.00 1.00">
	<!ENTITY st17 "0.00 -1.00 1.00 0.00">
	<!ENTITY st18 "font-size:6px;font-family:'Arial';">
	<!ENTITY st19 "font-size:9px;font-family:'Arial';">
	<!ENTITY st20 "font-size:6px;font-family:'MS-PGothic','MS PGothic';adobe-font-script:japanese;">
	<!ENTITY st21 "font-size:7px;font-family:'MS-PGothic','MS PGothic';adobe-font-script:japanese;">
	<!ATTLIST svg
		xmlns:ewd CDATA #FIXED "http://shcl.co.jp/ewd"
		xmlns:a CDATA #FIXED "http://ns.adobe.com/AdobeSVGViewerExtensions/3.0/"
		ewd:ver CDATA #IMPLIED
	>
	<!ATTLIST a
		ewd:lineID CDATA #IMPLIED
		ewd:groupID CDATA #IMPLIED
		ewd:figtype CDATA #IMPLIED
		ewd:code CDATA #IMPLIED
		ewd:figID CDATA #IMPLIED
		ewd:pinNo CDATA #IMPLIED
		ewd:comment CDATA #IMPLIED >
	<!ATTLIST g
		ewd:lineID CDATA #IMPLIED
		ewd:groupID CDATA #IMPLIED
		ewd:figtype CDATA #IMPLIED
		ewd:code CDATA #IMPLIED
		ewd:figID CDATA #IMPLIED
		ewd:pinNo CDATA #IMPLIED
		ewd:comment CDATA #IMPLIED >
	<!ATTLIST text
		ewd:textID CDATA #IMPLIED >
	<!ATTLIST title
		ewd:textID CDATA #IMPLIED >
]>
<!-- Generator: Shintec Hozumi YS   -->
<svg onload="call_execInitLoadProc_svg('system')" style="overflow:visible;  enable-background:new 0 0 4050.115 710.000" viewBox="0 0 4050.115 710.000" height="710.000" width="4050.115" xml:space="preserve" ewd:ver="2.3.1.16" xmlns="&ns_svg;" xmlns:a="http://ns.adobe.com/AdobeSVGViewerExtensions/3.0/" xmlns:ewd="http://shcl.co.jp/ewd" xmlns:xlink="&ns_xlink;">
<path style="stroke-width: 1.42 ;&st7;  " d=" M   361.91,   613.68  L   356.94,   618.65  " /><path style="stroke-width: 1.42 ;&st7;  " d=" M   368.97,   630.68  L   373.94,   625.71  " /><path style="stroke-width: 1.42 ;&st7;  " d=" M   356.94,   625.71  L   361.91,   630.68  " /><path style="stroke-width: 1.42 ;&st7;  " d=" M   373.94,   618.65  L   368.97,   613.68  " /><path style="stroke-width: 1.42 ;&st7;  " d=" M   373.94,   562.69  L   365.44,   562.69  " /><path style="stroke-width: 1.42 ;&st7;  " d=" M   438.40,   605.18  L   433.43,   610.16  " /><path style="stroke-width: 1.42 ;&st7;  " d=" M   445.45,   622.18  L   450.42,   617.21  " /><path style="stroke-width: 1.42 ;&st7;  " d=" M   433.43,   617.21  L   438.40,   622.18  " /><path style="stroke-width: 1.42 ;&st7;  " d=" M   450.42,   610.16  L   445.45,   605.18  " /><path style="stroke-width: 1.42 ;&st7;  " d=" M   438.40,   511.70  L   433.43,   516.67  " /><path style="stroke-width: 1.42 ;&st7;  " d=" M   445.45,   528.70  L   450.42,   523.73  " /><path style="stroke-width: 1.42 ;&st7;  " d=" M   433.43,   523.73  L   438.40,   528.70  " /><path style="stroke-width: 1.42 ;&st7;  " d=" M   450.42,   516.67  L   445.45,   511.70  " /><path style="stroke-width: 1.42 ;&st7;  " d=" M   280.45,   316.23  L   288.95,   316.23  " /><path style="stroke-width: 1.42 ;&st7;  " d=" M   348.44,   316.23  L   356.94,   316.23  " /><path style="stroke-width: 1.42 ;&st7;  " d=" M   433.43,   316.23  L   441.93,   316.23  " /><path style="stroke-width: 1.42 ;&st7;  " d=" M   433.43,   562.69  L   441.93,   562.69  " /><path style="stroke-width: 1.42 ;&st7;  " d=" M   416.43,   324.73  L   407.93,   324.73  " /><path style="stroke-width: 1.42 ;&st7;  " d=" M   331.44,   324.73  L   322.95,   324.73  " /><path style="stroke-width: 1.42 ;&st7;  " d=" M   263.46,   324.73  L   254.96,   324.73  " /><text style="&st18;" transform="matrix(&st17;  407.07  655.92 )">(RHD)</text><text style="&st18;" transform="matrix(&st17;  395.74  653.4 )">W-B</text><text style="&st18;" transform="matrix(&st16;  387.01  587.32 )">(RHD *2)</text><text style="&st18;" transform="matrix(&st16;  393.21  575.99 )">W-B</text><text style="&st18;" transform="matrix(&st17;  373.07  546.0 )">(*2)</text><text style="&st18;" transform="matrix(&st17;  361.74  547.17 )">W-B</text><text style="&st18;" transform="matrix(&st17;  361.74  602.41 )">W-B</text><text style="&st18;" transform="matrix(&st17;  373.08  608.07 )">(LHD *2)</text><text style="&st18;" transform="matrix(&st17;  373.08  659.06 )">(LHD *2)</text><text style="&st18;" transform="matrix(&st17;  361.74  653.4 )">W-B</text><text style="&st18;" transform="matrix(&st17;  480.72  547.17 )">W-B</text><text style="&st18;" transform="matrix(&st17;  449.56  596.99 )">(*1)</text><text style="&st18;" transform="matrix(&st17;  438.23  598.16 )">W-B</text><text style="&st18;" transform="matrix(&st17;  438.23  504.67 )">W-B</text><text style="&st18;" transform="matrix(&st17;  217.27  602.41 )">W-B</text><text style="&st18;" transform="matrix(&st17;  449.56  659.06 )">(LHD *1)</text><text style="&st18;" transform="matrix(&st17;  438.23  653.4 )">W-B</text><text style="&st18;" transform="matrix(&st17;  449.56  546.0 )">(*1)</text><text style="&st18;" transform="matrix(&st17;  438.23  547.17 )">W-B</text><text style="&st18;" transform="matrix(&st17;  415.57  275.15 )">(*1 *34)</text><text style="&st18;" transform="matrix(&st17;  415.57  350.54 )">(*1)</text><text style="&st18;" transform="matrix(&st17;  449.56  275.15 )">(*2 *34)</text><text style="&st18;" transform="matrix(&st17;  438.23  270.15 )">R-B</text><text style="&st18;" transform="matrix(&st17;  449.56  350.54 )">(*2)</text><text style="&st18;" transform="matrix(&st17;  438.23  350.96 )">Y-G</text><text style="&st18;" transform="matrix(&st17;  404.24  350.96 )">Y-G</text><text style="&st18;" transform="matrix(&st17;  404.24  270.15 )">R-B</text><text style="&st18;" transform="matrix(&st17;  330.58  295.29 )">(*1)</text><text style="&st18;" transform="matrix(&st17;  330.58  350.54 )">(*1)</text><text style="&st18;" transform="matrix(&st17;  364.58  295.29 )">(*2)</text><text style="&st18;" transform="matrix(&st17;  353.25  296.07 )">L-W</text><text style="&st18;" transform="matrix(&st17;  364.58  350.54 )">(*2)</text><text style="&st18;" transform="matrix(&st17;  353.24  347.36 )">L</text><text style="&st18;" transform="matrix(&st17;  319.25  347.36 )">L</text><text style="&st18;" transform="matrix(&st17;  319.25  296.07 )">L-W</text><text style="&st18;" transform="matrix(&st17;  262.59  295.29 )">(*1)</text><text style="&st18;" transform="matrix(&st17;  262.59  350.54 )">(*1)</text><text style="&st18;" transform="matrix(&st17;  296.59  295.29 )">(*2)</text><text style="&st18;" transform="matrix(&st17;  285.26  295.14 )">L-B</text><text style="&st18;" transform="matrix(&st17;  296.59  350.54 )">(*2)</text><text style="&st18;" transform="matrix(&st17;  285.26  350.54 )">L-R</text><text style="&st18;" transform="matrix(&st17;  217.27  347.45 )">W-B</text><text style="&st18;" transform="matrix(&st17;  217.27  116.67 )">B-L</text><text style="&st18;" transform="matrix(&st17;  276.76  131.03 )">B</text><text style="&st18;" transform="matrix(&st17;  251.26  350.54 )">L-R</text><text style="&st18;" transform="matrix(&st17;  251.26  295.14 )">L-B</text><text style="&st18;" transform="matrix(&st16;  486.7  618.48 )">W-B</text><path style="stroke-width: 1.42 ;&st7;  " d=" M    13.47,   596.69  L     8.50,   601.66  " /><path style="stroke-width: 1.42 ;&st7;  " d=" M    20.52,   613.68  L    25.50,   608.71  " /><path style="stroke-width: 1.42 ;&st7;  " d=" M     8.50,   608.71  L    13.47,   613.68  " /><path style="stroke-width: 1.42 ;&st7;  " d=" M    25.50,   601.66  L    20.52,   596.69  " /><path style="stroke-width: 1.42 ;&st7;  " d=" M   135.98,   482.68  L   131.01,   477.71  " /><path style="stroke-width: 1.42 ;&st7;  " d=" M   118.98,   489.73  L   123.95,   494.70  " /><path style="stroke-width: 1.42 ;&st7;  " d=" M   131.01,   494.70  L   135.98,   489.73  " /><path style="stroke-width: 1.42 ;&st7;  " d=" M   123.95,   477.71  L   118.98,   482.68  " /><path style="stroke-width: 1.42 ;&st7;  " d=" M   135.98,   299.24  L   127.48,   299.24  " /><path style="stroke-width: 1.42 ;&st7;  " d=" M   118.98,   231.25  L   127.48,   231.25  " /><path style="stroke-width: 1.42 ;&st7;  " d=" M    84.99,   248.24  L    76.49,   248.24  " /><path style="stroke-width: 1.42 ;&st7;  " d=" M   169.97,   231.25  L   178.47,   231.25  " /><path style="stroke-width: 1.42 ;&st7;  " d=" M   169.97,   290.74  L   178.47,   290.74  " /><path style="stroke-width: 1.42 ;&st7;  " d=" M     8.50,   511.70  L    17.00,   511.70  " /><path style="stroke-width: 1.42 ;&st7;  " d=" M   135.98,   537.20  L   127.48,   537.20  " /><path style="stroke-width: 1.42 ;&st7;  " d=" M    59.49,   511.70  L    67.99,   511.70  " /><text style="&st18;" transform="matrix(&st17;  186.11  198.66 )">(*8 *35)</text><text style="&st18;" transform="matrix(&st17;  174.77  190.13 )">L</text><text style="&st18;" transform="matrix(&st17;  135.11  469.52 )">(*8)</text><text style="&st18;" transform="matrix(&st17;  75.63  659.21 )">(*18,*25)</text><text style="&st18;" transform="matrix(&st17;  64.29  653.4 )">W-B</text><text style="&st18;" transform="matrix(&st17;  13.3  653.4 )">W-B</text><text style="&st18;" transform="matrix(&st17;  24.63  653.9 )">(*16)</text><text style="&st18;" transform="matrix(&st17;  135.12  200.29 )">(*17 *35)</text><text style="&st18;" transform="matrix(&st17;  135.12  326.71 )">(*17)</text><text style="&st18;" transform="matrix(&st17;  123.78  322.25 )">B</text><text style="&st18;" transform="matrix(&st17;  135.12  271.47 )">(*17)</text><text style="&st18;" transform="matrix(&st17;  123.78  269.64 )">B-L</text><text style="&st18;" transform="matrix(&st17;  72.79  193.16 )">B-L</text><text style="&st18;" transform="matrix(&st17;  84.12  200.29 )">(*16 *34)</text><text style="&st18;" transform="matrix(&st17;  84.12  279.97 )">(*16)</text><text style="&st18;" transform="matrix(&st17;  72.79  275.51 )">B</text><text style="&st18;" transform="matrix(&st17;  174.77  269.64 )">B-L</text><text style="&st18;" transform="matrix(&st17;  186.11  269.8 )">(*8)</text><text style="&st18;" transform="matrix(&st17;  186.11  325.04 )">(*8)</text><text style="&st18;" transform="matrix(&st17;  174.77  322.25 )">B</text><text style="&st18;" transform="matrix(&st17;  123.78  190.13 )">L</text><text style="&st18;" transform="matrix(&st17;  123.78  653.4 )">W-B</text><text style="&st18;" transform="matrix(&st17;  135.12  659.6 )">(RHD *8)</text><text style="&st18;" transform="matrix(&st17;  123.78  585.41 )">W-B</text><text style="&st18;" transform="matrix(&st17;  135.12  591.61 )">(RHD *8)</text><text style="&st18;" transform="matrix(&st17;  13.3  585.41 )">W-B</text><text style="&st18;" transform="matrix(&st17;  24.63  585.91 )">(*16)</text><text style="&st18;" transform="matrix(&st17;  123.78  470.68 )">W-B</text><text style="&st18;" transform="matrix(&st17;  75.62  585.91 )">(*18)</text><text style="&st18;" transform="matrix(&st17;  64.29  585.41 )">W-B</text><text style="&st18;" transform="matrix(&st17;  13.3  491.93 )">W-B</text><text style="&st18;" transform="matrix(&st17;  24.63  492.43 )">(*16)</text><text style="&st18;" transform="matrix(&st17;  123.78  517.42 )">W-B</text><text style="&st18;" transform="matrix(&st17;  135.11  516.26 )">(*8)</text><text style="&st18;" transform="matrix(&st17;  166.28  551.42 )">W-B</text><text style="&st18;" transform="matrix(&st17;  177.61  550.25 )">(*1)</text><text style="&st18;" transform="matrix(&st17;  64.29  491.93 )">W-B</text><text style="&st18;" transform="matrix(&st17;  75.62  492.43 )">(*18)</text><text style="&st18;" transform="matrix(&st17;  101.12  585.91 )">(*25)</text><text style="&st18;" transform="matrix(&st17;  89.79  585.41 )">W-B</text><text style="&st18;" transform="matrix(&st17;  242.76  113.65 )">L</text><text style="&st18;" transform="matrix(&st17;  254.1  118.49 )">(*35)</text><text style="&st18;" transform="matrix(&st17;  228.6  118.49 )">(*34)</text><text style="&st18;" transform="matrix(&st17;  47.3  190.13 )">L</text><text style="&st18;" transform="matrix(&st17;  58.63  200.29 )">(*16 *35)</text><text style="&st18;" transform="matrix(&st17;  160.61  198.66 )">(*8 *34)</text><text style="&st18;" transform="matrix(&st17;  149.28  193.16 )">B-L</text><text style="&st18;" transform="matrix(&st17;  109.62  200.29 )">(*17 *34)</text><text style="&st18;" transform="matrix(&st17;  98.29  193.16 )">B-L</text><text style="&st18;" transform="matrix(&st17;  475.06  275.15 )">(*2 *35)</text><text style="&st18;" transform="matrix(&st17;  463.73  267.01 )">B</text><text style="&st18;" transform="matrix(&st17;  390.07  275.15 )">(*1 *35)</text><text style="&st18;" transform="matrix(&st17;  378.74  267.01 )">B</text><g ewd:figtype="rb" ewd:figID="1" ewd:code="FUSE33"><path style="stroke-width: 0.85 ;&st7;  " d=" M   280.45,    78.27  L   280.45,    95.27  " /><path style="stroke-width: 1.42 ;&st7;  " d=" M   282.58,   103.77  L   278.33,   103.77  " /><path style="stroke-width: 1.42 ;&st7;  " d=" M   282.58,    95.27  L   278.33,    95.27  " /><path style="stroke-width: 1.42 ;&st7;   " d=" M   286.83,    99.52  C   286.83     97.17    284.92     95.27    282.58     95.27  " /><path style="stroke-width: 1.42 ;&st7;   " d=" M   282.58,   103.77  C   284.92    103.77    286.83    101.87    286.83     99.52  " /><path style="stroke-width: 1.42 ;&st7;   " d=" M   274.08,    99.52  C   274.08    101.87    275.98    103.77    278.33    103.77  " /><path style="stroke-width: 1.42 ;&st7;   " d=" M   278.33,    95.27  C   275.98     95.27    274.08     97.17    274.08     99.52  " /><path style="stroke-width: 0.28 ;&st9;  " d=" M   280.45,    90.37  L   277.62,    87.54  L   277.62,    91.79  L   280.45,    94.62  L   283.29,    91.79  L   283.29,    87.54  L   280.45,    90.37  " /><text style="&st18;" transform="matrix(&st16;  275.09  32.08 )">(IG)</text><text style="&st18;" transform="matrix(&st16;  274.11  86.47 )">2</text><text style="&st18;" transform="matrix(&st16;  278.58  101.49 )">2</text><text style="&st18;" transform="matrix(&st16;  296.88  56.17 )">30A <tspan x="0 " dy="6.0">DIFF</tspan></text><path style="stroke-width: 0.85 ;&st7;  " d=" M   280.45,    69.77  L   280.45,    78.27  " /><path style="stroke-width: 1.42 ;&st7;   " d=" M   280.45,    66.94  C   283.19     65.33    284.10     61.80    282.49     59.06  " /><path style="stroke-width: 1.42 ;&st7;   " d=" M   282.49,    59.06  C   281.97     58.18    281.34     57.55    280.45     57.03  " /><path style="stroke-width: 1.42 ;&st7;   " d=" M   280.45,    47.11  C   277.72     48.72    276.80     52.25    278.42     54.99  " /><path style="stroke-width: 1.42 ;&st7;   " d=" M   278.42,    54.99  C   278.94     55.87    279.57     56.51    280.45     57.03  " /><path style="stroke-width: 0.85 ;&st7;   " d=" M   281.87,    68.36  C   281.87     67.57    281.24     66.94    280.45     66.94  " /><path style="stroke-width: 0.85 ;&st7;   " d=" M   280.45,    66.94  C   279.67     66.94    279.04     67.57    279.04     68.36  " /><path style="stroke-width: 0.85 ;&st7;   " d=" M   279.04,    68.36  C   279.04     69.14    279.67     69.77    280.45     69.77  " /><path style="stroke-width: 0.85 ;&st7;   " d=" M   280.45,    69.77  C   281.24     69.77    281.87     69.14    281.87     68.36  " /><path style="stroke-width: 0.85 ;&st7;   " d=" M   281.87,    45.69  C   281.87     44.91    281.24     44.28    280.45     44.28  " /><path style="stroke-width: 0.85 ;&st7;   " d=" M   280.45,    44.28  C   279.67     44.28    279.04     44.91    279.04     45.69  " /><path style="stroke-width: 0.85 ;&st7;   " d=" M   279.04,    45.69  C   279.04     46.48    279.67     47.11    280.45     47.11  " /><path style="stroke-width: 0.85 ;&st7;   " d=" M   280.45,    47.11  C   281.24     47.11    281.87     46.48    281.87     45.69  " /><path style="stroke-width: 1.42 ;&st7;  " d=" M   267.71,    35.78  L   267.71,    78.27  L   293.20,    78.27  L   293.20,    35.78  L   267.71,    35.78  " /></g><g ewd:figtype="conn" ewd:figID="2" ewd:code="I93"><path style="stroke-width: 0.85 ;&st7;  " d=" M   220.96,   545.69  L   220.96,   562.69  " /><path style="stroke-width: 1.42 ;&st7;  " d=" M   212.46,   545.69  L   229.46,   545.69  L   229.46,   562.69  L   212.46,   562.69  L   212.46,   545.69  " /><text style="&st18;" transform="matrix(&st16;  211.48  569.19 )">1</text><text style="&st18;" transform="matrix(&st16;  218.7  569.19 )">A</text><path style="stroke-width: 1.42 ;&st7;   " d=" M   225.50,   567.22  C   225.50    564.72    223.47    562.69    220.96    562.69  " /><path style="stroke-width: 1.42 ;&st7;   " d=" M   220.96,   562.69  C   218.46    562.69    216.43    564.72    216.43    567.22  " /><path style="stroke-width: 1.42 ;&st7;   " d=" M   216.43,   567.22  C   216.43    569.73    218.46    571.76    220.96    571.76  " /><path style="stroke-width: 1.42 ;&st7;   " d=" M   220.96,   571.76  C   223.47    571.76    225.50    569.73    225.50    567.22  " /><text style="&st18;" transform="matrix(&st16;  211.48  543.13 )">8</text><text style="&st18;" transform="matrix(&st16;  218.7  543.13 )">A</text><path style="stroke-width: 1.42 ;&st7;   " d=" M   225.50,   541.16  C   225.50    538.66    223.47    536.63    220.96    536.63  " /><path style="stroke-width: 1.42 ;&st7;   " d=" M   220.96,   536.63  C   218.46    536.63    216.43    538.66    216.43    541.16  " /><path style="stroke-width: 1.42 ;&st7;   " d=" M   216.43,   541.16  C   216.43    543.66    218.46    545.69    220.96    545.69  " /><path style="stroke-width: 1.42 ;&st7;   " d=" M   220.96,   545.69  C   223.47    545.69    225.50    543.66    225.50    541.16  " /><g ewd:figtype="title"><text style="&st18;" transform="matrix(&st17;  237.36  565.59 )">I93(A)</text><text style="&st18;" transform="matrix(&st17;  244.18  565.6 )" ewd:textID="38">No. 5 <tspan x="0 " dy="6.0">Junction </tspan><tspan x="0 " dy="6.0">Connector</tspan></text></g></g><g ewd:figtype="conn" ewd:figID="12" ewd:code="A22"><path style="stroke-width: 1.42 ;&st7;  " d=" M   118.98,   605.18  L   135.98,   605.18  L   135.98,   622.18  L   118.98,   622.18  L   118.98,   605.18  " /><path style="stroke-width: 0.85 ;&st7;  " d=" M   127.48,   605.18  L   127.48,   622.18  " /><text style="&st18;" transform="matrix(&st16;  118.0  628.68 )">3</text><path style="stroke-width: 1.42 ;&st7;   " d=" M   132.01,   626.71  C   132.01    624.21    129.98    622.18    127.48    622.18  " /><path style="stroke-width: 1.42 ;&st7;   " d=" M   127.48,   622.18  C   124.98    622.18    122.95    624.21    122.95    626.71  " /><path style="stroke-width: 1.42 ;&st7;   " d=" M   122.95,   626.71  C   122.95    629.22    124.98    631.25    127.48    631.25  " /><path style="stroke-width: 1.42 ;&st7;   " d=" M   127.48,   631.25  C   129.98    631.25    132.01    629.22    132.01    626.71  " /><text style="&st18;" transform="matrix(&st16;  125.21  628.68 )">A</text><text style="&st18;" transform="matrix(&st16;  118.0  602.62 )">4</text><path style="stroke-width: 1.42 ;&st7;   " d=" M   132.01,   600.65  C   132.01    598.15    129.98    596.12    127.48    596.12  " /><path style="stroke-width: 1.42 ;&st7;   " d=" M   127.48,   596.12  C   124.98    596.12    122.95    598.15    122.95    600.65  " /><path style="stroke-width: 1.42 ;&st7;   " d=" M   122.95,   600.65  C   122.95    603.15    124.98    605.18    127.48    605.18  " /><path style="stroke-width: 1.42 ;&st7;   " d=" M   127.48,   605.18  C   129.98    605.18    132.01    603.15    132.01    600.65  " /><text style="&st18;" transform="matrix(&st16;  125.21  602.62 )">A</text><g ewd:figtype="title"><text style="&st18;" transform="matrix(&st17;  150.7  625.09 )" ewd:textID="34">No. 1 Junction <tspan x="0 " dy="6.0">Connector</tspan></text><text style="&st18;" transform="matrix(&st17;  143.87  625.08 )">A22(A)</text></g></g><g ewd:code="C35,C98" ewd:figID="13" ewd:comment="1,7,8" ewd:figtype="conn"><path style="stroke-width: 0.85 ;&st7;  " d=" M   127.48,   379.97  L   127.48,   375.72  " /><path style="stroke-width: 0.85 ;&st7;  " d=" M   127.48,   409.72  L   127.48,   405.47  " /><path style="stroke-width: 1.42 ;&st7;  " d=" M   127.48,   402.63  L   133.14,   379.97  " /><path style="stroke-width: 0.85 ;&st7;   " d=" M   128.90,   381.39  C   128.90    380.61    128.26    379.97    127.48    379.97  " /><path style="stroke-width: 0.85 ;&st7;   " d=" M   127.48,   379.97  C   126.70    379.97    126.06    380.61    126.06    381.39  " /><path style="stroke-width: 0.85 ;&st7;   " d=" M   126.06,   381.39  C   126.06    382.17    126.70    382.80    127.48    382.80  " /><path style="stroke-width: 0.85 ;&st7;   " d=" M   127.48,   382.80  C   128.26    382.80    128.90    382.17    128.90    381.39  " /><path style="stroke-width: 0.85 ;&st7;   " d=" M   128.90,   404.05  C   128.90    403.27    128.26    402.63    127.48    402.63  " /><path style="stroke-width: 0.85 ;&st7;   " d=" M   127.48,   402.63  C   126.70    402.63    126.06    403.27    126.06    404.05  " /><path style="stroke-width: 0.85 ;&st7;   " d=" M   126.06,   404.05  C   126.06    404.83    126.70    405.47    127.48    405.47  " /><path style="stroke-width: 0.85 ;&st7;   " d=" M   127.48,   405.47  C   128.26    405.47    128.90    404.83    128.90    404.05  " /><path style="stroke-width: 0.85 ;&st7;  " d=" M   127.48,   418.22  L   127.48,   409.72  " /><path style="stroke-width: 0.85 ;&st7;  " d=" M   127.48,   375.72  L   127.48,   367.22  " /><path style="stroke-width: 1.42 ;&st7;  " d=" M   118.98,   418.22  L   152.97,   418.22  L   152.97,   367.22  L   118.98,   367.22  L   118.98,   418.22  " /><text style="&st18;" transform="matrix(&st16;  130.06  375.42 )">B</text><text style="&st18;" transform="matrix(&st16;  130.06  414.53 )">GND</text><text style="&st18;" transform="matrix(&st16;  118.0  424.72 )">1</text><text style="&st18;" transform="matrix(&st16;  118.0  433.78 )">1</text><text style="&st18;" transform="matrix(&st16;  125.21  433.78 )">B</text><path style="stroke-width: 1.42 ;&st7;   " d=" M   132.01,   431.81  C   132.01    429.31    129.98    427.28    127.48    427.28  " /><path style="stroke-width: 1.42 ;&st7;   " d=" M   127.48,   427.28  C   124.98    427.28    122.95    429.31    122.95    431.81  " /><path style="stroke-width: 1.42 ;&st7;   " d=" M   122.95,   431.81  C   122.95    434.32    124.98    436.35    127.48    436.35  " /><path style="stroke-width: 1.42 ;&st7;   " d=" M   127.48,   436.35  C   129.98    436.35    132.01    434.32    132.01    431.81  " /><path style="stroke-width: 1.42 ;&st7;   " d=" M   132.01,   422.75  C   132.01    420.24    129.98    418.22    127.48    418.22  " /><path style="stroke-width: 1.42 ;&st7;   " d=" M   127.48,   418.22  C   124.98    418.22    122.95    420.24    122.95    422.75  " /><path style="stroke-width: 1.42 ;&st7;   " d=" M   122.95,   422.75  C   122.95    425.25    124.98    427.28    127.48    427.28  " /><path style="stroke-width: 1.42 ;&st7;   " d=" M   127.48,   427.28  C   129.98    427.28    132.01    425.25    132.01    422.75  " /><text style="&st18;" transform="matrix(&st16;  125.21  424.72 )">A</text><text style="&st18;" transform="matrix(&st16;  118.0  364.66 )">2</text><text style="&st18;" transform="matrix(&st16;  118.0  355.6 )">2</text><text style="&st18;" transform="matrix(&st16;  125.21  355.6 )">A</text><text style="&st18;" transform="matrix(&st16;  125.21  364.66 )">B</text><path style="stroke-width: 1.42 ;&st7;   " d=" M   132.01,   362.69  C   132.01    360.19    129.98    358.16    127.48    358.16  " /><path style="stroke-width: 1.42 ;&st7;   " d=" M   127.48,   358.16  C   124.98    358.16    122.95    360.19    122.95    362.69  " /><path style="stroke-width: 1.42 ;&st7;   " d=" M   122.95,   362.69  C   122.95    365.19    124.98    367.22    127.48    367.22  " /><path style="stroke-width: 1.42 ;&st7;   " d=" M   127.48,   367.22  C   129.98    367.22    132.01    365.19    132.01    362.69  " /><path style="stroke-width: 1.42 ;&st7;   " d=" M   132.01,   353.63  C   132.01    351.12    129.98    349.09    127.48    349.09  " /><path style="stroke-width: 1.42 ;&st7;   " d=" M   127.48,   349.09  C   124.98    349.09    122.95    351.12    122.95    353.63  " /><path style="stroke-width: 1.42 ;&st7;   " d=" M   122.95,   353.63  C   122.95    356.13    124.98    358.16    127.48    358.16  " /><path style="stroke-width: 1.42 ;&st7;   " d=" M   127.48,   358.16  C   129.98    358.16    132.01    356.13    132.01    353.63  " /><g ewd:figtype="title"><text style="&st18;" transform="matrix(&st17;  90.61  421.11 )">C35(A),C98(B)</text><text style="&st18;" transform="matrix(&st17;  97.44  421.12 )" ewd:textID="28">Center Differential <tspan x="0 " dy="6.0">Lock Indicator Switch </tspan><tspan x="0 " dy="6.0">(No. 1 Transfer </tspan><tspan x="0 " dy="6.0">Indicator Switch)</tspan></text></g><g ewd:code="" ewd:figID="204" ewd:comment="7,8" ewd:figtype="commref"><text style="&st18;" transform="matrix(&st16;  132.57  424.72 )">(*7,*8)</text></g><g ewd:code="" ewd:figID="205" ewd:comment="1" ewd:figtype="commref"><text style="&st18;" transform="matrix(&st16;  132.57  433.78 )">(*1)</text></g><g ewd:code="" ewd:figID="206" ewd:comment="7,8" ewd:figtype="commref"><text style="&st18;" transform="matrix(&st16;  132.57  355.6 )">(*7,*8)</text></g><g ewd:code="" ewd:figID="207" ewd:comment="1" ewd:figtype="commref"><text style="&st18;" transform="matrix(&st16;  132.57  364.66 )">(*1)</text></g></g><g ewd:figtype="conn" ewd:figID="14" ewd:code="I61,I70"><path style="stroke-width: 0.85 ;&st7;  " d=" M   127.48,    95.27  L   127.48,   112.27  " /><path style="stroke-width: 1.42 ;&st7;  " d=" M   118.98,    95.27  L   135.98,    95.27  L   135.98,   112.27  L   118.98,   112.27  L   118.98,    95.27  " /><text style="&st18;" transform="matrix(&st16;  114.66  118.77 )">17</text><text style="&st18;" transform="matrix(&st16;  114.66  127.83 )">10</text><path style="stroke-width: 1.42 ;&st7;   " d=" M   132.01,   116.80  C   132.01    114.30    129.98    112.27    127.48    112.27  " /><path style="stroke-width: 1.42 ;&st7;   " d=" M   127.48,   112.27  C   124.98    112.27    122.95    114.30    122.95    116.80  " /><path style="stroke-width: 1.42 ;&st7;   " d=" M   122.95,   116.80  C   122.95    119.30    124.98    121.33    127.48    121.33  " /><path style="stroke-width: 1.42 ;&st7;   " d=" M   127.48,   121.33  C   129.98    121.33    132.01    119.30    132.01    116.80  " /><path style="stroke-width: 1.42 ;&st7;   " d=" M   132.01,   125.86  C   132.01    123.36    129.98    121.33    127.48    121.33  " /><path style="stroke-width: 1.42 ;&st7;   " d=" M   127.48,   121.33  C   124.98    121.33    122.95    123.36    122.95    125.86  " /><path style="stroke-width: 1.42 ;&st7;   " d=" M   122.95,   125.86  C   122.95    128.37    124.98    130.40    127.48    130.40  " /><path style="stroke-width: 1.42 ;&st7;   " d=" M   127.48,   130.40  C   129.98    130.40    132.01    128.37    132.01    125.86  " /><text style="&st18;" transform="matrix(&st16;  125.21  118.77 )">A</text><text style="&st18;" transform="matrix(&st16;  125.06  127.83 )">C</text><text style="&st18;" transform="matrix(&st16;  114.66  92.71 )">11</text><text style="&st18;" transform="matrix(&st16;  114.66  83.64 )">18</text><path style="stroke-width: 1.42 ;&st7;   " d=" M   132.01,    90.74  C   132.01     88.23    129.98     86.20    127.48     86.20  " /><path style="stroke-width: 1.42 ;&st7;   " d=" M   127.48,    86.20  C   124.98     86.20    122.95     88.23    122.95     90.74  " /><path style="stroke-width: 1.42 ;&st7;   " d=" M   122.95,    90.74  C   122.95     93.24    124.98     95.27    127.48     95.27  " /><path style="stroke-width: 1.42 ;&st7;   " d=" M   127.48,    95.27  C   129.98     95.27    132.01     93.24    132.01     90.74  " /><path style="stroke-width: 1.42 ;&st7;   " d=" M   132.01,    81.67  C   132.01     79.17    129.98     77.14    127.48     77.14  " /><path style="stroke-width: 1.42 ;&st7;   " d=" M   127.48,    77.14  C   124.98     77.14    122.95     79.17    122.95     81.67  " /><path style="stroke-width: 1.42 ;&st7;   " d=" M   122.95,    81.67  C   122.95     84.17    124.98     86.20    127.48     86.20  " /><path style="stroke-width: 1.42 ;&st7;   " d=" M   127.48,    86.20  C   129.98     86.20    132.01     84.17    132.01     81.67  " /><text style="&st18;" transform="matrix(&st16;  125.21  83.64 )">A</text><text style="&st18;" transform="matrix(&st16;  125.06  92.71 )">C</text><g ewd:figtype="title"><text style="&st18;" transform="matrix(&st17;  78.15  115.17 )">I70(A)</text><text style="&st18;" transform="matrix(&st17;  84.97  115.17 )" ewd:textID="50">No. 19 Junction <tspan x="0 " dy="6.0">Connector</tspan></text><text style="&st18;" transform="matrix(&st17;  99.68  115.17 )">I61(C)</text><text style="&st18;" transform="matrix(&st17;  106.5  115.17 )" ewd:textID="44">No. 11 Junction <tspan x="0 " dy="6.0">Connector</tspan></text></g><g ewd:code="" ewd:figID="208" ewd:comment="" ewd:figtype="commref"><text style="&st18;" transform="matrix(&st16;  132.57  83.64 )">(LHD)</text></g><g ewd:code="" ewd:figID="209" ewd:comment="" ewd:figtype="commref"><text style="&st18;" transform="matrix(&st16;  132.57  92.71 )">(RHD)</text></g><g ewd:code="" ewd:figID="210" ewd:comment="" ewd:figtype="commref"><text style="&st18;" transform="matrix(&st16;  132.57  118.77 )">(LHD)</text></g><g ewd:code="" ewd:figID="211" ewd:comment="" ewd:figtype="commref"><text style="&st18;" transform="matrix(&st16;  132.57  127.83 )">(RHD)</text></g></g><g ewd:figtype="conn" ewd:figID="19" ewd:code="A23"><path style="stroke-width: 0.85 ;&st7;  " d=" M    67.99,   605.18  L    67.99,   622.18  " /><path style="stroke-width: 1.42 ;&st7;  " d=" M    59.49,   605.18  L   101.98,   605.18  L   101.98,   622.18  L    59.49,   622.18  L    59.49,   605.18  " /><path style="stroke-width: 0.85 ;&st7;  " d=" M    93.48,   605.18  L    93.48,   613.68  L    67.99,   613.68  " /><path style="stroke-width: 0.85 ;&st7;  " d=" M    66.80,   612.68  L    66.52,   613.15  L    66.43,   613.68  L    66.52,   614.22  L    66.80,   614.69  L    67.21,   615.03  L    67.72,   615.22  L    68.26,   615.22  L    68.77,   615.03  L    69.18,   614.69  L    69.45,   614.22  L    69.55,   613.68  L    69.45,   613.15  L    69.18,   612.68  L    68.77,   612.33  L    68.26,   612.15  L    67.72,   612.15  L    67.21,   612.33  L    66.80,   612.68  L    67.19,   613.39  L    67.19,   613.97  L    67.56,   614.42  L    68.14,   614.52  L    68.64,   614.23  L    68.84,   613.68  L    68.64,   613.14  L    68.14,   612.85  L    67.56,   612.95  L    67.99,   613.68  " /><text style="&st18;" transform="matrix(&st16;  58.51  602.62 )">2</text><text style="&st18;" transform="matrix(&st16;  65.72  602.62 )">A</text><path style="stroke-width: 1.42 ;&st7;   " d=" M    72.52,   600.65  C    72.52    598.15     70.49    596.12     67.99    596.12  " /><path style="stroke-width: 1.42 ;&st7;   " d=" M    67.99,   596.12  C    65.49    596.12     63.46    598.15     63.46    600.65  " /><path style="stroke-width: 1.42 ;&st7;   " d=" M    63.46,   600.65  C    63.46    603.15     65.49    605.18     67.99    605.18  " /><path style="stroke-width: 1.42 ;&st7;   " d=" M    67.99,   605.18  C    70.49    605.18     72.52    603.15     72.52    600.65  " /><text style="&st18;" transform="matrix(&st16;  84.0  602.62 )">5</text><path style="stroke-width: 1.42 ;&st7;   " d=" M    98.02,   600.65  C    98.02    598.15     95.99    596.12     93.48    596.12  " /><path style="stroke-width: 1.42 ;&st7;   " d=" M    93.48,   596.12  C    90.98    596.12     88.95    598.15     88.95    600.65  " /><path style="stroke-width: 1.42 ;&st7;   " d=" M    88.95,   600.65  C    88.95    603.15     90.98    605.18     93.48    605.18  " /><path style="stroke-width: 1.42 ;&st7;   " d=" M    93.48,   605.18  C    95.99    605.18     98.02    603.15     98.02    600.65  " /><text style="&st18;" transform="matrix(&st16;  91.22  602.62 )">A</text><text style="&st18;" transform="matrix(&st16;  58.51  628.68 )">1</text><text style="&st18;" transform="matrix(&st16;  65.72  628.68 )">A</text><path style="stroke-width: 1.42 ;&st7;   " d=" M    72.52,   626.71  C    72.52    624.21     70.49    622.18     67.99    622.18  " /><path style="stroke-width: 1.42 ;&st7;   " d=" M    67.99,   622.18  C    65.49    622.18     63.46    624.21     63.46    626.71  " /><path style="stroke-width: 1.42 ;&st7;   " d=" M    63.46,   626.71  C    63.46    629.22     65.49    631.25     67.99    631.25  " /><path style="stroke-width: 1.42 ;&st7;   " d=" M    67.99,   631.25  C    70.49    631.25     72.52    629.22     72.52    626.71  " /><g ewd:figtype="title"><text style="&st18;" transform="matrix(&st17;  55.79  625.09 )" ewd:textID="37">No. 2 Junction Connector</text><text style="&st18;" transform="matrix(&st17;  48.97  625.08 )">A23(A)</text></g></g><g ewd:code="B1,B5" ewd:figID="24" ewd:comment="22,21" ewd:figtype="conn"><path style="stroke-width: 0.85 ;&st7; stroke-dasharray:3, 1.5;" d=" M   263.46,   379.12  L   310.20,   379.12  " /><path style="stroke-width: 0.85 ;&st7; stroke-dasharray:3, 1.5;" d=" M   263.46,   388.19  L   310.20,   388.19  " /><path style="stroke-width: 0.85 ;&st7; stroke-dasharray:3, 1.5;" d=" M   331.44,   388.19  L   395.18,   388.19  " /><path style="stroke-width: 0.85 ;&st7; stroke-dasharray:3, 1.5;" d=" M   331.44,   379.12  L   395.18,   379.12  " /><path style="stroke-width: 1.42 ;&st7;  " d=" M   327.20,   415.38  L   327.20,   419.35  " /><path style="stroke-width: 1.42 ;&st7;  " d=" M   318.70,   419.35  L   318.70,   415.38  " /><path style="stroke-width: 1.42 ;&st7;  " d=" M   318.70,   415.38  L   327.20,   415.38  " /><path style="stroke-width: 1.42 ;&st7;  " d=" M   327.20,   438.05  L   327.20,   434.08  " /><path style="stroke-width: 1.42 ;&st7;  " d=" M   318.70,   434.08  L   318.70,   438.05  " /><path style="stroke-width: 1.42 ;&st7;  " d=" M   318.70,   438.05  L   327.20,   438.05  " /><path style="stroke-width: 1.42 ;&st7;  " d=" M   441.93,   415.38  L   441.93,   432.38  " /><path style="stroke-width: 0.85 ;&st7;  " d=" M   441.93,   443.71  L   441.93,   435.21  " /><path style="stroke-width: 1.42 ;&st7;   " d=" M   331.44,   426.71  C   331.44    422.02    327.64    418.22    322.95    418.22  " /><path style="stroke-width: 1.42 ;&st7;   " d=" M   322.95,   418.22  C   318.25    418.22    314.45    422.02    314.45    426.71  " /><path style="stroke-width: 1.42 ;&st7;   " d=" M   314.45,   426.71  C   314.45    431.41    318.25    435.21    322.95    435.21  " /><path style="stroke-width: 1.42 ;&st7;   " d=" M   322.95,   435.21  C   327.64    435.21    331.44    431.41    331.44    426.71  " /><path style="stroke-width: 0.85 ;&st7;   " d=" M   443.34,   433.80  C   443.34    433.01    442.71    432.38    441.93    432.38  " /><path style="stroke-width: 0.85 ;&st7;   " d=" M   441.93,   432.38  C   441.14    432.38    440.51    433.01    440.51    433.80  " /><path style="stroke-width: 0.85 ;&st7;   " d=" M   440.51,   433.80  C   440.51    434.58    441.14    435.21    441.93    435.21  " /><path style="stroke-width: 0.85 ;&st7;   " d=" M   441.93,   435.21  C   442.71    435.21    443.34    434.58    443.34    433.80  " /><path style="stroke-width: 0.85 ;&st7;   " d=" M   434.84,   419.63  C   434.84    418.85    434.21    418.22    433.43    418.22  " /><path style="stroke-width: 0.85 ;&st7;   " d=" M   433.43,   418.22  C   432.65    418.22    432.01    418.85    432.01    419.63  " /><path style="stroke-width: 0.85 ;&st7;   " d=" M   432.01,   419.63  C   432.01    420.41    432.65    421.05    433.43    421.05  " /><path style="stroke-width: 0.85 ;&st7;   " d=" M   433.43,   421.05  C   434.21    421.05    434.84    420.41    434.84    419.63  " /><path style="stroke-width: 0.85 ;&st7;   " d=" M   451.84,   419.63  C   451.84    418.85    451.21    418.22    450.42    418.22  " /><path style="stroke-width: 0.85 ;&st7;   " d=" M   450.42,   418.22  C   449.64    418.22    449.01    418.85    449.01    419.63  " /><path style="stroke-width: 0.85 ;&st7;   " d=" M   449.01,   419.63  C   449.01    420.41    449.64    421.05    450.42    421.05  " /><path style="stroke-width: 0.85 ;&st7;   " d=" M   450.42,   421.05  C   451.21    421.05    451.84    420.41    451.84    419.63  " /><path style="stroke-width: 0.85 ;&st7;  " d=" M   254.96,   392.72  L   254.96,   452.21  L   322.95,   452.21  L   322.95,   438.05  " /><path style="stroke-width: 0.85 ;&st7;  " d=" M   322.95,   415.38  L   322.95,   392.72  " /><path style="stroke-width: 1.42 ;&st7;  " d=" M   237.96,   460.71  L   611.90,   460.71  L   611.90,   392.72  L   237.96,   392.72  L   237.96,   460.71  " /><path style="stroke-width: 0.85 ;&st7;  " d=" M   441.93,   460.71  L   441.93,   443.71  " /><path style="stroke-width: 0.85 ;&st7;  " d=" M   407.93,   392.72  L   407.93,   419.63  L   432.01,   419.63  " /><path style="stroke-width: 0.85 ;&st7;  " d=" M   586.40,   392.72  L   586.40,   419.63  L   451.84,   419.63  " /><text style="&st18;" transform="matrix(&st16;  588.99  400.91 )">RLY3</text><text style="&st18;" transform="matrix(&st16;  410.52  400.91 )">RLY4</text><text style="&st18;" transform="matrix(&st16;  325.53  400.91 )">M3</text><text style="&st18;" transform="matrix(&st16;  257.54  400.91 )">M4</text><text style="&st18;" transform="matrix(&st16;  444.51  457.02 )">GND</text><text style="&st18;" transform="matrix(&st16;  320.22  428.68 )">M</text><text style="&st18;" transform="matrix(&st16;  245.48  390.16 )">2</text><text style="&st18;" transform="matrix(&st16;  245.48  381.09 )">2</text><path style="stroke-width: 1.42 ;&st7;   " d=" M   259.49,   388.19  C   259.49    385.68    257.46    383.65    254.96    383.65  " /><path style="stroke-width: 1.42 ;&st7;   " d=" M   254.96,   383.65  C   252.45    383.65    250.42    385.68    250.42    388.19  " /><path style="stroke-width: 1.42 ;&st7;   " d=" M   250.42,   388.19  C   250.42    390.69    252.45    392.72    254.96    392.72  " /><path style="stroke-width: 1.42 ;&st7;   " d=" M   254.96,   392.72  C   257.46    392.72    259.49    390.69    259.49    388.19  " /><text style="&st18;" transform="matrix(&st16;  252.69  381.09 )">A</text><path style="stroke-width: 1.42 ;&st7;   " d=" M   259.49,   379.12  C   259.49    376.62    257.46    374.59    254.96    374.59  " /><path style="stroke-width: 1.42 ;&st7;   " d=" M   254.96,   374.59  C   252.45    374.59    250.42    376.62    250.42    379.12  " /><path style="stroke-width: 1.42 ;&st7;   " d=" M   250.42,   379.12  C   250.42    381.63    252.45    383.65    254.96    383.65  " /><path style="stroke-width: 1.42 ;&st7;   " d=" M   254.96,   383.65  C   257.46    383.65    259.49    381.63    259.49    379.12  " /><text style="&st18;" transform="matrix(&st16;  252.69  390.16 )">B</text><text style="&st18;" transform="matrix(&st16;  313.47  381.09 )">3</text><text style="&st18;" transform="matrix(&st16;  313.47  390.16 )">3</text><path style="stroke-width: 1.42 ;&st7;   " d=" M   327.48,   379.12  C   327.48    376.62    325.45    374.59    322.95    374.59  " /><path style="stroke-width: 1.42 ;&st7;   " d=" M   322.95,   374.59  C   320.44    374.59    318.41    376.62    318.41    379.12  " /><path style="stroke-width: 1.42 ;&st7;   " d=" M   318.41,   379.12  C   318.41    381.63    320.44    383.65    322.95    383.65  " /><path style="stroke-width: 1.42 ;&st7;   " d=" M   322.95,   383.65  C   325.45    383.65    327.48    381.63    327.48    379.12  " /><path style="stroke-width: 1.42 ;&st7;   " d=" M   327.48,   388.19  C   327.48    385.68    325.45    383.65    322.95    383.65  " /><path style="stroke-width: 1.42 ;&st7;   " d=" M   322.95,   383.65  C   320.44    383.65    318.41    385.68    318.41    388.19  " /><path style="stroke-width: 1.42 ;&st7;   " d=" M   318.41,   388.19  C   318.41    390.69    320.44    392.72    322.95    392.72  " /><path style="stroke-width: 1.42 ;&st7;   " d=" M   322.95,   392.72  C   325.45    392.72    327.48    390.69    327.48    388.19  " /><text style="&st18;" transform="matrix(&st16;  320.68  381.09 )">A</text><text style="&st18;" transform="matrix(&st16;  320.68  390.16 )">B</text><text style="&st18;" transform="matrix(&st16;  398.45  390.16 )">5</text><text style="&st18;" transform="matrix(&st16;  398.45  381.09 )">5</text><text style="&st18;" transform="matrix(&st16;  405.67  381.09 )">A</text><text style="&st18;" transform="matrix(&st16;  405.67  390.16 )">B</text><path style="stroke-width: 1.42 ;&st7;   " d=" M   412.46,   388.19  C   412.46    385.68    410.44    383.65    407.93    383.65  " /><path style="stroke-width: 1.42 ;&st7;   " d=" M   407.93,   383.65  C   405.43    383.65    403.40    385.68    403.40    388.19  " /><path style="stroke-width: 1.42 ;&st7;   " d=" M   403.40,   388.19  C   403.40    390.69    405.43    392.72    407.93    392.72  " /><path style="stroke-width: 1.42 ;&st7;   " d=" M   407.93,   392.72  C   410.44    392.72    412.46    390.69    412.46    388.19  " /><path style="stroke-width: 1.42 ;&st7;   " d=" M   412.46,   379.12  C   412.46    376.62    410.44    374.59    407.93    374.59  " /><path style="stroke-width: 1.42 ;&st7;   " d=" M   407.93,   374.59  C   405.43    374.59    403.40    376.62    403.40    379.12  " /><path style="stroke-width: 1.42 ;&st7;   " d=" M   403.40,   379.12  C   403.40    381.63    405.43    383.65    407.93    383.65  " /><path style="stroke-width: 1.42 ;&st7;   " d=" M   407.93,   383.65  C   410.44    383.65    412.46    381.63    412.46    379.12  " /><text style="&st18;" transform="matrix(&st16;  432.45  476.28 )">4</text><text style="&st18;" transform="matrix(&st16;  432.45  467.21 )">4</text><text style="&st18;" transform="matrix(&st16;  439.66  467.21 )">A</text><text style="&st18;" transform="matrix(&st16;  439.66  476.28 )">B</text><path style="stroke-width: 1.42 ;&st7;   " d=" M   446.46,   474.31  C   446.46    471.80    444.43    469.77    441.93    469.77  " /><path style="stroke-width: 1.42 ;&st7;   " d=" M   441.93,   469.77  C   439.42    469.77    437.39    471.80    437.39    474.31  " /><path style="stroke-width: 1.42 ;&st7;   " d=" M   437.39,   474.31  C   437.39    476.81    439.42    478.84    441.93    478.84  " /><path style="stroke-width: 1.42 ;&st7;   " d=" M   441.93,   478.84  C   444.43    478.84    446.46    476.81    446.46    474.31  " /><path style="stroke-width: 1.42 ;&st7;   " d=" M   446.46,   465.24  C   446.46    462.74    444.43    460.71    441.93    460.71  " /><path style="stroke-width: 1.42 ;&st7;   " d=" M   441.93,   460.71  C   439.42    460.71    437.39    462.74    437.39    465.24  " /><path style="stroke-width: 1.42 ;&st7;   " d=" M   437.39,   465.24  C   437.39    467.74    439.42    469.77    441.93    469.77  " /><path style="stroke-width: 1.42 ;&st7;   " d=" M   441.93,   469.77  C   444.43    469.77    446.46    467.74    446.46    465.24  " /><text style="&st18;" transform="matrix(&st16;  576.92  381.09 )">6</text><text style="&st18;" transform="matrix(&st16;  576.92  390.16 )">6</text><text style="&st18;" transform="matrix(&st16;  584.14  381.09 )">A</text><text style="&st18;" transform="matrix(&st16;  584.14  390.16 )">B</text><path style="stroke-width: 1.42 ;&st7;   " d=" M   590.93,   388.19  C   590.93    385.68    588.91    383.65    586.40    383.65  " /><path style="stroke-width: 1.42 ;&st7;   " d=" M   586.40,   383.65  C   583.90    383.65    581.87    385.68    581.87    388.19  " /><path style="stroke-width: 1.42 ;&st7;   " d=" M   581.87,   388.19  C   581.87    390.69    583.90    392.72    586.40    392.72  " /><path style="stroke-width: 1.42 ;&st7;   " d=" M   586.40,   392.72  C   588.91    392.72    590.93    390.69    590.93    388.19  " /><path style="stroke-width: 1.42 ;&st7;   " d=" M   590.93,   379.12  C   590.93    376.62    588.91    374.59    586.40    374.59  " /><path style="stroke-width: 1.42 ;&st7;   " d=" M   586.40,   374.59  C   583.90    374.59    581.87    376.62    581.87    379.12  " /><path style="stroke-width: 1.42 ;&st7;   " d=" M   581.87,   379.12  C   581.87    381.63    583.90    383.65    586.40    383.65  " /><path style="stroke-width: 1.42 ;&st7;   " d=" M   586.40,   383.65  C   588.91    383.65    590.93    381.63    590.93    379.12  " /><g ewd:figtype="title"><text style="&st18;" transform="matrix(&st16;  234.55  468.6 )">B1(A),B5(B)</text><text style="&st18;" transform="matrix(&st16;  234.55  475.43 )" ewd:textID="35">No. 2 Differential Lock Shift Actuator</text></g><g ewd:code="" ewd:figID="177" ewd:comment="22" ewd:figtype="commref"><text style="&st18;" transform="matrix(&st16;  591.5  381.09 )">(*22)</text></g><g ewd:code="" ewd:figID="213" ewd:comment="21" ewd:figtype="commref"><text style="&st18;" transform="matrix(&st16;  591.5  390.16 )">(*21)</text></g><g ewd:code="" ewd:figID="214" ewd:comment="21" ewd:figtype="commref"><text style="&st18;" transform="matrix(&st16;  447.02  476.28 )">(*21)</text></g><g ewd:code="" ewd:figID="215" ewd:comment="22" ewd:figtype="commref"><text style="&st18;" transform="matrix(&st16;  447.02  467.21 )">(*22)</text></g><g ewd:code="" ewd:figID="216" ewd:comment="22" ewd:figtype="commref"><text style="&st18;" transform="matrix(&st16;  413.02  381.09 )">(*22)</text></g><g ewd:code="" ewd:figID="253" ewd:comment="21" ewd:figtype="commref"><text style="&st18;" transform="matrix(&st16;  413.02  390.16 )">(*21)</text></g></g><g ewd:figtype="conn" ewd:figID="25" ewd:code="I8"><path style="stroke-width: 1.42 ;&st7;  " d=" M   203.97,   205.75  L  1410.76,   205.75  L  1410.76,   154.76  L   203.97,   154.76  L   203.97,   205.75  " /><g ewd:lineID="25"><text style="&st18;" transform="matrix(&st16;  211.29  213.94 )">13</text><text style="&st18;" transform="matrix(&st16;  214.04  202.05 )">GND</text></g><g ewd:lineID="26,27"><text style="&st18;" transform="matrix(&st16;  211.29  151.07 )">15</text><text style="&st18;" transform="matrix(&st16;  213.93  162.39 )">4WD</text></g><g ewd:lineID="29,32"><text style="&st18;" transform="matrix(&st16;  248.62  213.94 )">5</text><text style="&st18;" transform="matrix(&st16;  250.56  202.05 )">M4</text></g><g ewd:lineID="30"><text style="&st18;" transform="matrix(&st16;  274.11  151.07 )">8</text><text style="&st18;" transform="matrix(&st16;  277.06  162.39 )">IG</text></g><g ewd:lineID="34,36"><text style="&st18;" transform="matrix(&st16;  316.61  213.94 )">7</text><text style="&st18;" transform="matrix(&st16;  318.55  202.05 )">M3</text></g><g ewd:lineID="42,43,44,51"><text style="&st18;" transform="matrix(&st16;  398.26  213.94 )">14</text><text style="&st18;" transform="matrix(&st16;  400.28  202.05 )">RLY4</text></g><g ewd:figtype="title"><text style="&st18;" transform="matrix(&st16;  328.03  144.24 )">I8</text><text style="&st18;" transform="matrix(&st16;  328.04  151.06 )" ewd:textID="36">No. 2 Four Wheel Drive Control ECU</text></g></g><g ewd:figtype="w2w" ewd:figID="32" ewd:code="IC1"><path style="stroke-width: 1.42 ;&st7;  " d=" M    12.75,   502.63  L    17.00,   506.88  L    21.25,   502.63  " /><path style="stroke-width: 1.42 ;&st7;  " d=" M    21.25,   506.03  L    17.00,   510.28  L    12.75,   506.03  " /><text style="&st18;" transform="matrix(&st16;  3.58  517.92 )">1</text></g><g ewd:figtype="w2w" ewd:figID="33" ewd:code="AC8"><path style="stroke-width: 1.42 ;&st7;  " d=" M    63.74,   502.63  L    67.99,   506.88  L    72.24,   502.63  " /><path style="stroke-width: 1.42 ;&st7;  " d=" M    72.24,   506.03  L    67.99,   510.28  L    63.74,   506.03  " /><text style="&st18;" transform="matrix(&st16;  54.57  517.92 )">1</text></g><g ewd:figtype="w2w" ewd:figID="34" ewd:code="IC1"><path style="stroke-width: 1.42 ;&st7;  " d=" M    80.74,   257.31  L    76.49,   253.06  L    72.24,   257.31  " /><path style="stroke-width: 1.42 ;&st7;  " d=" M    80.74,   253.91  L    76.49,   249.66  L    72.24,   253.91  " /><text style="&st18;" transform="matrix(&st16;  63.07  245.96 )">5</text></g><g ewd:figtype="w2w" ewd:figID="35" ewd:code="CA3"><path style="stroke-width: 1.42 ;&st7;  " d=" M   131.73,   546.26  L   127.48,   542.01  L   123.23,   546.26  " /><path style="stroke-width: 1.42 ;&st7;  " d=" M   131.73,   542.86  L   127.48,   538.61  L   123.23,   542.86  " /><text style="&st18;" transform="matrix(&st16;  114.06  534.92 )">7</text></g><g ewd:code="AC1" ewd:figID="36" ewd:comment="1" ewd:figtype="w2w"><path style="stroke-width: 1.42 ;&st7;  " d=" M   131.73,   308.30  L   127.48,   304.05  L   123.23,   308.30  " /><path style="stroke-width: 1.42 ;&st7;  " d=" M   131.73,   304.90  L   127.48,   300.65  L   123.23,   304.90  " /><text style="&st18;" transform="matrix(&st16;  114.06  296.96 )">4</text><g ewd:code="" ewd:figID="201" ewd:comment="1" ewd:figtype="commref"><text style="&st18;" transform="matrix(&st16;  136.51  296.96 )">(*1)</text></g></g><g ewd:code="AC8" ewd:figID="37" ewd:comment="18" ewd:figtype="w2w"><text style="&st18;" transform="matrix(&st16;  114.06  288.46 )">5</text><g ewd:code="" ewd:figID="200" ewd:comment="18" ewd:figtype="commref"><text style="&st18;" transform="matrix(&st16;  136.51  288.46 )">(*18)</text></g></g><g ewd:code="AI3" ewd:figID="38" ewd:comment="19" ewd:figtype="w2w"><text style="&st18;" transform="matrix(&st16;  110.73  245.96 )">17</text><g ewd:code="" ewd:figID="233" ewd:comment="19" ewd:figtype="commref"><text style="&st18;" transform="matrix(&st16;  136.51  245.96 )">(*19)</text></g></g><g ewd:code="AI3" ewd:figID="39" ewd:comment="11" ewd:figtype="w2w"><path style="stroke-width: 1.42 ;&st7;  " d=" M   123.23,   222.18  L   127.48,   226.43  L   131.73,   222.18  " /><path style="stroke-width: 1.42 ;&st7;  " d=" M   131.73,   225.58  L   127.48,   229.83  L   123.23,   225.58  " /><text style="&st18;" transform="matrix(&st16;  110.73  237.47 )">25</text><g ewd:code="" ewd:figID="232" ewd:comment="11" ewd:figtype="commref"><text style="&st18;" transform="matrix(&st16;  136.51  237.47 )">(*11)</text></g></g><g ewd:figtype="w2w" ewd:figID="40" ewd:code="CA3"><path style="stroke-width: 1.42 ;&st7;  " d=" M   174.22,   281.67  L   178.47,   285.92  L   182.72,   281.67  " /><path style="stroke-width: 1.42 ;&st7;  " d=" M   182.72,   285.07  L   178.47,   289.32  L   174.22,   285.07  " /><text style="&st18;" transform="matrix(&st16;  165.05  296.96 )">6</text></g><g ewd:figtype="w2w" ewd:figID="41" ewd:code="AI3"><text style="&st18;" transform="matrix(&st16;  161.72  245.96 )">48</text><g ewd:code="" ewd:figID="203" ewd:comment="" ewd:figtype="commref"><text style="&st18;" transform="matrix(&st16;  187.5  245.96 )">(RHD)</text></g></g><g ewd:figtype="w2w" ewd:figID="42" ewd:code="AI3"><path style="stroke-width: 1.42 ;&st7;  " d=" M   174.22,   222.18  L   178.47,   226.43  L   182.72,   222.18  " /><path style="stroke-width: 1.42 ;&st7;  " d=" M   182.72,   225.58  L   178.47,   229.83  L   174.22,   225.58  " /><text style="&st18;" transform="matrix(&st16;  161.72  237.47 )">21</text><g ewd:code="" ewd:figID="202" ewd:comment="" ewd:figtype="commref"><text style="&st18;" transform="matrix(&st16;  187.5  237.47 )">(LHD)</text></g></g><g ewd:figtype="w2w" ewd:figID="43" ewd:code="IB5"><path style="stroke-width: 1.42 ;&st7;  " d=" M   259.21,   330.40  L   254.96,   326.15  L   250.71,   330.40  " /><path style="stroke-width: 1.42 ;&st7;  " d=" M   259.21,   333.80  L   254.96,   329.55  L   250.71,   333.80  " /><text style="&st18;" transform="matrix(&st16;  241.54  322.45 )">2</text></g><g ewd:figtype="w2w" ewd:figID="44" ewd:code="BI2"><path style="stroke-width: 1.42 ;&st7;  " d=" M   284.70,   307.17  L   288.95,   311.42  L   293.20,   307.17  " /><path style="stroke-width: 1.42 ;&st7;  " d=" M   293.20,   310.57  L   288.95,   314.82  L   284.70,   310.57  " /><text style="&st18;" transform="matrix(&st16;  275.53  322.45 )">2</text></g><g ewd:figtype="w2w" ewd:figID="45" ewd:code="IB5"><path style="stroke-width: 1.42 ;&st7;  " d=" M   327.20,   330.40  L   322.95,   326.15  L   318.70,   330.40  " /><path style="stroke-width: 1.42 ;&st7;  " d=" M   327.20,   333.80  L   322.95,   329.55  L   318.70,   333.80  " /><text style="&st18;" transform="matrix(&st16;  309.53  322.45 )">3</text></g><g ewd:figtype="w2w" ewd:figID="46" ewd:code="BI2"><path style="stroke-width: 1.42 ;&st7;  " d=" M   352.69,   307.17  L   356.94,   311.42  L   361.19,   307.17  " /><path style="stroke-width: 1.42 ;&st7;  " d=" M   361.19,   310.57  L   356.94,   314.82  L   352.69,   310.57  " /><text style="&st18;" transform="matrix(&st16;  343.52  322.45 )">1</text></g><g ewd:figtype="w2w" ewd:figID="47" ewd:code="BI2"><path style="stroke-width: 1.42 ;&st7;  " d=" M   369.69,   568.36  L   365.44,   564.11  L   361.19,   568.36  " /><path style="stroke-width: 1.42 ;&st7;  " d=" M   369.69,   571.76  L   365.44,   567.51  L   361.19,   571.76  " /><text style="&st18;" transform="matrix(&st16;  352.02  560.41 )">7</text></g><g ewd:figtype="w2w" ewd:figID="48" ewd:code="IB5"><path style="stroke-width: 1.42 ;&st7;  " d=" M   412.18,   330.40  L   407.93,   326.15  L   403.68,   330.40  " /><path style="stroke-width: 1.42 ;&st7;  " d=" M   412.18,   333.80  L   407.93,   329.55  L   403.68,   333.80  " /><text style="&st18;" transform="matrix(&st16;  394.51  322.45 )">5</text></g><g ewd:figtype="w2w" ewd:figID="49" ewd:code="IB5"><path style="stroke-width: 1.42 ;&st7;  " d=" M   446.18,   557.03  L   441.93,   561.27  L   437.68,   557.03  " /><path style="stroke-width: 1.42 ;&st7;  " d=" M   437.68,   553.63  L   441.93,   557.88  L   446.18,   553.63  " /><text style="&st18;" transform="matrix(&st16;  428.51  568.91 )">4</text></g><g ewd:figtype="w2w" ewd:figID="50" ewd:code="BI2"><path style="stroke-width: 1.42 ;&st7;  " d=" M   446.18,   310.57  L   441.93,   314.82  L   437.68,   310.57  " /><path style="stroke-width: 1.42 ;&st7;  " d=" M   437.68,   307.17  L   441.93,   311.42  L   446.18,   307.17  " /><text style="&st18;" transform="matrix(&st16;  428.51  322.45 )">6</text></g><g ewd:figtype="gp" ewd:figID="129" ewd:code="IE"><path style="stroke-width: 0.85 ;&st7;  " d=" M    17.00,   697.25  L    17.00,   701.50  " /><path style="stroke-width: 0.85 ;&st7;  " d=" M     8.50,   701.50  L    25.50,   701.50  " /><path style="stroke-width: 0.85 ;&st7;  " d=" M    12.75,   704.33  L    21.25,   704.33  " /><path style="stroke-width: 0.85 ;&st7;  " d=" M    14.16,   707.17  L    19.83,   707.17  " /><path style="stroke-width: 0.85 ;&st7;  " d=" M    15.58,   710.00  L    18.41,   710.00  " /></g><g ewd:figtype="gp" ewd:figID="130" ewd:code="AA"><path style="stroke-width: 0.85 ;&st7;  " d=" M   127.48,   697.25  L   127.48,   701.50  " /><path style="stroke-width: 0.85 ;&st7;  " d=" M   118.98,   701.50  L   135.98,   701.50  " /><path style="stroke-width: 0.85 ;&st7;  " d=" M   123.23,   704.33  L   131.73,   704.33  " /><path style="stroke-width: 0.85 ;&st7;  " d=" M   124.65,   707.17  L   130.31,   707.17  " /><path style="stroke-width: 0.85 ;&st7;  " d=" M   126.06,   710.00  L   128.90,   710.00  " /></g><g ewd:figtype="gp" ewd:figID="131" ewd:code="CC"><path style="stroke-width: 0.85 ;&st7;  " d=" M   168.56,   710.00  L   171.39,   710.00  " /><path style="stroke-width: 0.85 ;&st7;  " d=" M   167.14,   707.17  L   172.80,   707.17  " /><path style="stroke-width: 0.85 ;&st7;  " d=" M   165.72,   704.33  L   174.22,   704.33  " /><path style="stroke-width: 0.85 ;&st7;  " d=" M   161.47,   701.50  L   178.47,   701.50  " /><path style="stroke-width: 0.85 ;&st7;  " d=" M   169.97,   697.25  L   169.97,   701.50  " /></g><g ewd:figtype="gp" ewd:figID="132" ewd:code="IA"><path style="stroke-width: 0.85 ;&st7;  " d=" M   219.55,   710.00  L   222.38,   710.00  " /><path style="stroke-width: 0.85 ;&st7;  " d=" M   218.13,   707.17  L   223.80,   707.17  " /><path style="stroke-width: 0.85 ;&st7;  " d=" M   216.71,   704.33  L   225.21,   704.33  " /><path style="stroke-width: 0.85 ;&st7;  " d=" M   212.46,   701.50  L   229.46,   701.50  " /><path style="stroke-width: 0.85 ;&st7;  " d=" M   220.96,   697.25  L   220.96,   701.50  " /></g><g ewd:figtype="gp" ewd:figID="133" ewd:code="IE"><path style="stroke-width: 0.85 ;&st7;  " d=" M   364.02,   710.00  L   366.86,   710.00  " /><path style="stroke-width: 0.85 ;&st7;  " d=" M   362.61,   707.17  L   368.27,   707.17  " /><path style="stroke-width: 0.85 ;&st7;  " d=" M   361.19,   704.33  L   369.69,   704.33  " /><path style="stroke-width: 0.85 ;&st7;  " d=" M   356.94,   701.50  L   373.94,   701.50  " /><path style="stroke-width: 0.85 ;&st7;  " d=" M   365.44,   697.25  L   365.44,   701.50  " /></g><g ewd:figtype="gp" ewd:figID="134" ewd:code="IG"><path style="stroke-width: 0.85 ;&st7;  " d=" M   440.51,   710.00  L   443.34,   710.00  " /><path style="stroke-width: 0.85 ;&st7;  " d=" M   439.09,   707.17  L   444.76,   707.17  " /><path style="stroke-width: 0.85 ;&st7;  " d=" M   437.68,   704.33  L   446.18,   704.33  " /><path style="stroke-width: 0.85 ;&st7;  " d=" M   433.43,   701.50  L   450.42,   701.50  " /><path style="stroke-width: 0.85 ;&st7;  " d=" M   441.93,   697.25  L   441.93,   701.50  " /></g></svg>