<?xml version="1.0" encoding="utf-8"?>
<!DOCTYPE svg PUBLIC "-//W3C//DTD SVG 1.0//EN" "http://www.w3.org/TR/2001/REC-SVG-20010904/DTD/svg10.dtd"[
	<!ENTITY ns_flows "http://ns.adobe.com/Flows/1.0/">
	<!ENTITY ns_svg "http://www.w3.org/2000/svg">
	<!ENTITY ns_xlink "http://www.w3.org/1999/xlink">
	<!ENTITY st0 "font-size:7px;font-family:'MS-PGothic';adobe-font-script:japanese;">
	<!ENTITY st1 "font-size:6px;font-family:'ArialMT';">
	<!-- White fill  -->
	<!ENTITY st2 "fill:#FFFFFF;stroke:#000000; stroke-width:1.41;stroke-linecap:round;stroke-linejoin:round;">
	<!-- Yellow fill  -->
	<!ENTITY st3 "fill:#FFFFCC;stroke:#FFFFCC; stroke-width:0.1;stroke-linecap:round;stroke-linejoin:round;">
	<!-- Gray fill  -->
	<!ENTITY st4 "fill:#CCCCCC;stroke:#CCCCCC; stroke-width:0.1;stroke-linecap:round;stroke-linejoin:round;">
	<!-- Light-blue fill -->
	<!ENTITY st5 "fill:#CCECF4;stroke:#000000; stroke-width:1.133;stroke-linecap:round;stroke-linejoin:round;">
	<!ENTITY st6 "fill:none;stroke-linecap:butt; stroke-linejoin:round;">
	<!ENTITY st7 "fill:none;stroke:#000000;stroke-linecap:round;stroke-linejoin:round;">
	<!ENTITY st8 "enable-background:new    ;">
	<!-- Black fill -->
	<!ENTITY st9 "fill:#000000;stroke:#000000; stroke-linecap:round;stroke-linejoin:round;">
	<!-- SRS note   -->
	<!ENTITY st10 "font-size:9px;font-family:'ArialMT';">
	<!ENTITY st11 "font-size:9px;font-family:'Svg Symbol';">
	<!ENTITY st12 "font-size:6px;font-family:'Svg Symbol';">
	<!ENTITY st13 "fill:none;stroke:#ff0000;stroke-linecap:round;stroke-linejoin:round;">
	<!-- Yellow fill  -->
	<!ENTITY st14 "fill:#FFFF00;stroke:#FFFF00; stroke-width:0.1;stroke-linecap:round;stroke-linejoin:round;">
	<!ENTITY st15 "font-size:6px;font-family:'MS-PGothic';adobe-font-script:japanese;">
	<!ENTITY st16 "1.00 0.00 0.00 1.00">
	<!ENTITY st17 "0.00 -1.00 1.00 0.00">
	<!ENTITY st18 "font-size:6px;font-family:'Arial';">
	<!ENTITY st19 "font-size:9px;font-family:'Arial';">
	<!ENTITY st20 "font-size:6px;font-family:'MS-PGothic','MS PGothic';adobe-font-script:japanese;">
	<!ENTITY st21 "font-size:7px;font-family:'MS-PGothic','MS PGothic';adobe-font-script:japanese;">
	<!ATTLIST svg
		xmlns:ewd CDATA #FIXED "http://shcl.co.jp/ewd"
		xmlns:a CDATA #FIXED "http://ns.adobe.com/AdobeSVGViewerExtensions/3.0/"
		ewd:ver CDATA #IMPLIED
	>
	<!ATTLIST a
		ewd:lineID CDATA #IMPLIED
		ewd:groupID CDATA #IMPLIED
		ewd:figtype CDATA #IMPLIED
		ewd:code CDATA #IMPLIED
		ewd:figID CDATA #IMPLIED
		ewd:pinNo CDATA #IMPLIED
		ewd:comment CDATA #IMPLIED >
	<!ATTLIST g
		ewd:lineID CDATA #IMPLIED
		ewd:groupID CDATA #IMPLIED
		ewd:figtype CDATA #IMPLIED
		ewd:code CDATA #IMPLIED
		ewd:figID CDATA #IMPLIED
		ewd:pinNo CDATA #IMPLIED
		ewd:comment CDATA #IMPLIED >
	<!ATTLIST text
		ewd:textID CDATA #IMPLIED >
	<!ATTLIST title
		ewd:textID CDATA #IMPLIED >
]>
<!-- Generator: Shintec Hozumi YS   -->
<svg onload="call_execInitLoadProc_svg('system')" style="overflow:visible;  enable-background:new 0 0 1023.202 710.000" viewBox="0 0 1023.202 710.000" height="710.000" width="1023.202" xml:space="preserve" ewd:ver="2.3.1.16" xmlns="&ns_svg;" xmlns:a="http://ns.adobe.com/AdobeSVGViewerExtensions/3.0/" xmlns:ewd="http://shcl.co.jp/ewd" xmlns:xlink="&ns_xlink;">
<text style="&st18;" transform="matrix(&st17;  160.61  168.35 )">(RHD *21)</text><path style="stroke-width: 1.42 ;&st7;  " d=" M    59.49,   137.76  L    50.99,   137.76  " /><path style="stroke-width: 1.42 ;&st7;  " d=" M   467.42,   231.25  L   475.92,   231.25  " /><text style="&st18;" transform="matrix(&st17;  47.3  164.34 )">W-L</text><text style="&st18;" transform="matrix(&st17;  47.3  211.08 )">W-L</text><text style="&st18;" transform="matrix(&st17;  72.79  211.08 )">W-L</text><text style="&st18;" transform="matrix(&st17;  183.27  159.98 )">G-R</text><text style="&st18;" transform="matrix(&st16;  240.74  185.06 )">G-R</text><text style="&st18;" transform="matrix(&st16;  232.91  196.39 )">(LHD *20)</text><text style="&st18;" transform="matrix(&st16;  235.54  287.04 )">R</text><text style="&st18;" transform="matrix(&st16;  223.87  298.37 )">(RHD *21)</text><text style="&st18;" transform="matrix(&st17;  132.28  190.83 )">G</text><text style="&st18;" transform="matrix(&st17;  395.74  148.03 )">P</text><text style="&st18;" transform="matrix(&st17;  472.22  284.0 )">B</text><text style="&st18;" transform="matrix(&st17;  370.24  316.89 )">R-B</text><text style="&st18;" transform="matrix(&st17;  472.23  185.16 )">R-B</text><text style="&st18;" transform="matrix(&st16;  308.73  142.56 )">G-R</text><text style="&st18;" transform="matrix(&st16;  300.9  153.9 )">(LHD *20)</text><text style="&st18;" transform="matrix(&st17;  47.3  121.85 )">W-L</text><path style="stroke-width: 1.42 ;&st7;  " d=" M    59.49,   176.73  L    54.52,   171.76  " /><path style="stroke-width: 1.42 ;&st7;  " d=" M    42.49,   183.78  L    47.46,   188.75  " /><path style="stroke-width: 1.42 ;&st7;  " d=" M    54.52,   188.75  L    59.49,   183.78  " /><path style="stroke-width: 1.42 ;&st7;  " d=" M    47.46,   171.76  L    42.49,   176.73  " /><path style="stroke-width: 1.42 ;&st7;  " d=" M   280.45,   142.73  L   275.48,   137.76  " /><path style="stroke-width: 1.42 ;&st7;  " d=" M   263.46,   149.79  L   268.42,   154.76  " /><path style="stroke-width: 1.42 ;&st7;  " d=" M   275.48,   154.76  L   280.45,   149.79  " /><path style="stroke-width: 1.42 ;&st7;  " d=" M   268.42,   137.76  L   263.46,   142.73  " /><text style="&st18;" transform="matrix(&st17;  200.27  572.66 )">W-B</text><text style="&st18;" transform="matrix(&st17;  310.75  572.66 )">W-B</text><path style="stroke-width: 1.42 ;&st7;  " d=" M   356.94,   358.73  L   348.44,   358.73  " /><text style="&st18;" transform="matrix(&st17;  310.75  615.15 )">W-B</text><text style="&st18;" transform="matrix(&st17;  310.75  674.65 )">W-B</text><text style="&st18;" transform="matrix(&st17;  344.75  317.05 )">G-B</text><path style="stroke-width: 1.42 ;&st7;  " d=" M   322.95,   584.66  L   317.97,   579.69  " /><text style="&st18;" transform="matrix(&st17;  344.75  393.53 )">G-B</text><path style="stroke-width: 1.42 ;&st7;  " d=" M   305.95,   591.72  L   310.92,   596.69  " /><path style="stroke-width: 1.42 ;&st7;  " d=" M   317.97,   596.69  L   322.95,   591.72  " /><text style="&st18;" transform="matrix(&st17;  268.26  674.65 )">W-B</text><path style="stroke-width: 1.42 ;&st7;  " d=" M   310.92,   579.69  L   305.95,   584.66  " /><text style="&st18;" transform="matrix(&st17;  47.3  331.46 )">LG-B</text><path style="stroke-width: 1.42 ;&st7;  " d=" M   424.93,   321.20  L   419.96,   316.23  " /><path style="stroke-width: 1.42 ;&st7;  " d=" M   407.93,   328.26  L   412.90,   333.23  " /><path style="stroke-width: 1.42 ;&st7;  " d=" M   419.96,   333.23  L   424.93,   328.26  " /><path style="stroke-width: 1.42 ;&st7;  " d=" M   412.90,   316.23  L   407.93,   321.20  " /><path style="stroke-width: 1.42 ;&st7;  " d=" M    59.49,   358.73  L    50.99,   358.73  " /><text style="&st18;" transform="matrix(&st16;  487.51  355.03 )">R-B</text><text style="&st18;" transform="matrix(&st16;  487.51  338.03 )">R-B</text><text style="&st18;" transform="matrix(&st16;  487.51  49.08 )">R-B</text><text style="&st18;" transform="matrix(&st17;  149.28  156.68 )">R</text><text style="&st18;" transform="matrix(&st17;  356.08  394.7 )">(*18)</text><text style="&st18;" transform="matrix(&st17;  370.24  392.72 )">GR</text><text style="&st18;" transform="matrix(&st17;  381.57  394.7 )">(*19)</text><text style="&st18;" transform="matrix(&st17;  483.56  186.48 )">(*18)</text><text style="&st18;" transform="matrix(&st17;  446.73  182.02 )">B</text><text style="&st18;" transform="matrix(&st17;  458.06  186.48 )">(*19)</text><text style="&st18;" transform="matrix(&st16;  486.19  60.41 )">(*18)</text><text style="&st18;" transform="matrix(&st16;  490.65  23.58 )">B</text><text style="&st18;" transform="matrix(&st16;  486.19  34.92 )">(*19)</text><text style="&st18;" transform="matrix(&st16;  312.03  117.07 )">R</text><text style="&st18;" transform="matrix(&st16;  300.9  128.4 )">(LHD *21)</text><text style="&st18;" transform="matrix(&st16;  232.24  261.54 )">G-R</text><text style="&st18;" transform="matrix(&st16;  223.87  272.88 )">(RHD *20)</text><text style="&st18;" transform="matrix(&st16;  244.04  142.56 )">R</text><text style="&st18;" transform="matrix(&st16;  232.91  153.9 )">(LHD *21)</text><text style="&st18;" transform="matrix(&st17;  330.58  318.21 )">(*21)</text><text style="&st18;" transform="matrix(&st17;  319.25  316.23 )">GR</text><text style="&st18;" transform="matrix(&st16;  392.71  306.87 )">(*21)</text><text style="&st18;" transform="matrix(&st16;  397.17  295.54 )">B</text><text style="&st18;" transform="matrix(&st17;  483.56  288.46 )">(*21)</text><text style="&st18;" transform="matrix(&st17;  446.73  287.15 )">R-B</text><text style="&st18;" transform="matrix(&st17;  458.06  288.46 )">(*20)</text><text style="&st18;" transform="matrix(&st17;  356.08  318.21 )">(*20)</text><text style="&st18;" transform="matrix(&st17;  381.57  318.21 )">(*20)</text><text style="&st18;" transform="matrix(&st17;  194.61  168.35 )">(RHD *20)</text><text style="&st18;" transform="matrix(&st16;  103.25  372.03 )">LG-B</text><text style="&st18;" transform="matrix(&st16;  103.76  383.36 )">(*18)</text><text style="&st18;" transform="matrix(&st16;  108.22  397.52 )">V</text><text style="&st18;" transform="matrix(&st16;  103.76  408.85 )">(*19)</text><g ewd:figtype="conn" ewd:figID="1" ewd:code="L24"><path style="stroke-width: 0.85 ;&st7; stroke-dasharray:3, 1.5;" d=" M   212.46,   550.79  L   301.70,   550.79  " /><path style="stroke-width: 0.85 ;&st7; stroke-dasharray:3, 1.5;" d=" M   212.46,   541.73  L   301.70,   541.73  " /><path style="stroke-width: 0.85 ;&st7; stroke-dasharray:3, 1.5;" d=" M   178.47,   421.61  L   335.69,   421.61  " /><path style="stroke-width: 0.85 ;&st7; stroke-dasharray:3, 1.5;" d=" M   178.47,   430.68  L   335.69,   430.68  " /><path style="stroke-width: 0.85 ;&st7;   " d=" M   205.38,   494.70  C   205.38    493.92    204.75    493.29    203.97    493.29  " /><path style="stroke-width: 0.85 ;&st7;   " d=" M   203.97,   493.29  C   203.18    493.29    202.55    493.92    202.55    494.70  " /><path style="stroke-width: 0.85 ;&st7;   " d=" M   202.55,   494.70  C   202.55    495.48    203.18    496.12    203.97    496.12  " /><path style="stroke-width: 0.85 ;&st7;   " d=" M   203.97,   496.12  C   204.75    496.12    205.38    495.48    205.38    494.70  " /><path style="stroke-width: 0.85 ;&st7;  " d=" M   254.96,   469.21  L   399.43,   469.21  " /><path style="stroke-width: 0.85 ;&st7;  " d=" M   254.96,   452.21  L   254.96,   520.20  " /><path style="stroke-width: 0.85 ;&st7;  " d=" M   365.44,   452.21  L   365.44,   520.20  " /><path style="stroke-width: 1.42 ;&st7;  " d=" M   229.46,   452.21  L   399.43,   452.21  L   399.43,   520.20  L   229.46,   520.20  L   229.46,   452.21  " /><path style="stroke-width: 0.85 ;&st7;  " d=" M   254.96,   486.20  L   399.43,   486.20  " /><path style="stroke-width: 0.85 ;&st7;  " d=" M   297.45,   452.21  L   297.45,   520.20  " /><path style="stroke-width: 0.85 ;&st7;  " d=" M   331.44,   452.21  L   331.44,   520.20  " /><path style="stroke-width: 0.85 ;&st7;  " d=" M   315.86,   494.70  L   347.03,   494.70  " /><path style="stroke-width: 1.42 ;&st7;  " d=" M    76.49,   435.21  L    76.49,   537.20  L   416.43,   537.20  L   416.43,   435.21  L    76.49,   435.21  " /><path style="stroke-width: 0.85 ;&st7;  " d=" M   348.44,   452.21  L   348.44,   435.21  " /><path style="stroke-width: 0.85 ;&st7;  " d=" M   314.45,   520.20  L   314.45,   537.20  " /><path style="stroke-width: 0.85 ;&st7;  " d=" M   254.96,   503.20  L   399.43,   503.20  " /><path style="stroke-width: 0.85 ;&st7;  " d=" M   315.86,   511.70  L   347.03,   511.70  " /><path style="stroke-width: 0.85 ;&st7;  " d=" M   349.86,   511.70  L   381.02,   511.70  " /><path style="stroke-width: 0.85 ;&st7;   " d=" M   171.39,   494.70  C   171.39    493.92    170.75    493.29    169.97    493.29  " /><path style="stroke-width: 0.85 ;&st7;   " d=" M   169.97,   493.29  C   169.19    493.29    168.56    493.92    168.56    494.70  " /><path style="stroke-width: 0.85 ;&st7;   " d=" M   168.56,   494.70  C   168.56    495.48    169.19    496.12    169.97    496.12  " /><path style="stroke-width: 0.85 ;&st7;   " d=" M   169.97,   496.12  C   170.75    496.12    171.39    495.48    171.39    494.70  " /><path style="stroke-width: 0.85 ;&st7;   " d=" M   205.38,   511.70  C   205.38    510.92    204.75    510.28    203.97    510.28  " /><path style="stroke-width: 0.85 ;&st7;   " d=" M   203.97,   510.28  C   203.18    510.28    202.55    510.92    202.55    511.70  " /><path style="stroke-width: 0.85 ;&st7;   " d=" M   202.55,   511.70  C   202.55    512.48    203.18    513.12    203.97    513.12  " /><path style="stroke-width: 0.85 ;&st7;   " d=" M   203.97,   513.12  C   204.75    513.12    205.38    512.48    205.38    511.70  " /><path style="stroke-width: 0.85 ;&st7;   " d=" M   171.39,   511.70  C   171.39    510.92    170.75    510.28    169.97    510.28  " /><path style="stroke-width: 0.85 ;&st7;   " d=" M   169.97,   510.28  C   169.19    510.28    168.56    510.92    168.56    511.70  " /><path style="stroke-width: 0.85 ;&st7;   " d=" M   168.56,   511.70  C   168.56    512.48    169.19    513.12    169.97    513.12  " /><path style="stroke-width: 0.85 ;&st7;   " d=" M   169.97,   513.12  C   170.75    513.12    171.39    512.48    171.39    511.70  " /><path style="stroke-width: 0.85 ;&st7;  " d=" M   171.39,   511.70  L   185.55,   511.70  " /><path style="stroke-width: 1.42 ;&st7;  " d=" M    93.48,   452.21  L    93.48,   520.20  L   212.46,   520.20  L   212.46,   452.21  L    93.48,   452.21  " /><path style="stroke-width: 0.85 ;&st7;  " d=" M   118.98,   469.21  L   212.46,   469.21  " /><path style="stroke-width: 0.85 ;&st7;  " d=" M   118.98,   486.20  L   212.46,   486.20  " /><path style="stroke-width: 0.85 ;&st7;  " d=" M   118.98,   503.20  L   212.46,   503.20  " /><path style="stroke-width: 0.85 ;&st7;  " d=" M   178.47,   452.21  L   178.47,   520.20  " /><path style="stroke-width: 0.85 ;&st7;  " d=" M   161.47,   452.21  L   161.47,   520.20  " /><path style="stroke-width: 0.85 ;&st7;  " d=" M   118.98,   452.21  L   118.98,   520.20  " /><path style="stroke-width: 0.85 ;&st7;  " d=" M   171.39,   494.70  L   202.55,   494.70  " /><path style="stroke-width: 0.85 ;&st7;  " d=" M   195.47,   452.21  L   195.47,   520.20  " /><path style="stroke-width: 0.85 ;&st7;  " d=" M   188.39,   511.70  L   202.55,   511.70  " /><text style="&st18;" transform="matrix(&st17;  103.96  505.19 )" ewd:textID="18">Light <tspan x="0 " dy="6.0">Control Switch</tspan></text><text style="&st18;" transform="matrix(&st16;  134.01  479.67 )">OFF</text><text style="&st18;" transform="matrix(&st16;  135.13  496.67 )" ewd:textID="23">Tail</text><text style="&st18;" transform="matrix(&st16;  132.84  513.67 )" ewd:textID="16">Head</text><text style="&st18;" transform="matrix(&st16;  167.9  462.68 )">T</text><text style="&st18;" transform="matrix(&st16;  184.55  462.68 )">H</text><text style="&st18;" transform="matrix(&st16;  200.07  462.68 )">EL</text><path style="stroke-width: 0.85 ;&st7;  " d=" M   203.97,   520.20  L   203.97,   537.20  " /><path style="stroke-width: 0.85 ;&st7;   " d=" M   383.85,   511.70  C   383.85    510.92    383.22    510.28    382.44    510.28  " /><path style="stroke-width: 0.85 ;&st7;   " d=" M   382.44,   510.28  C   381.65    510.28    381.02    510.92    381.02    511.70  " /><path style="stroke-width: 0.85 ;&st7;   " d=" M   381.02,   511.70  C   381.02    512.48    381.65    513.12    382.44    513.12  " /><path style="stroke-width: 0.85 ;&st7;   " d=" M   382.44,   513.12  C   383.22    513.12    383.85    512.48    383.85    511.70  " /><path style="stroke-width: 0.85 ;&st7;   " d=" M   315.86,   511.70  C   315.86    510.92    315.23    510.28    314.45    510.28  " /><path style="stroke-width: 0.85 ;&st7;   " d=" M   314.45,   510.28  C   313.67    510.28    313.03    510.92    313.03    511.70  " /><path style="stroke-width: 0.85 ;&st7;   " d=" M   313.03,   511.70  C   313.03    512.48    313.67    513.12    314.45    513.12  " /><path style="stroke-width: 0.85 ;&st7;   " d=" M   314.45,   513.12  C   315.23    513.12    315.86    512.48    315.86    511.70  " /><path style="stroke-width: 0.85 ;&st7;   " d=" M   349.86,   511.70  C   349.86    510.92    349.22    510.28    348.44    510.28  " /><path style="stroke-width: 0.85 ;&st7;   " d=" M   348.44,   510.28  C   347.66    510.28    347.03    510.92    347.03    511.70  " /><path style="stroke-width: 0.85 ;&st7;   " d=" M   347.03,   511.70  C   347.03    512.48    347.66    513.12    348.44    513.12  " /><path style="stroke-width: 0.85 ;&st7;   " d=" M   348.44,   513.12  C   349.22    513.12    349.86    512.48    349.86    511.70  " /><path style="stroke-width: 0.85 ;&st7;   " d=" M   315.86,   494.70  C   315.86    493.92    315.23    493.29    314.45    493.29  " /><path style="stroke-width: 0.85 ;&st7;   " d=" M   314.45,   493.29  C   313.67    493.29    313.03    493.92    313.03    494.70  " /><path style="stroke-width: 0.85 ;&st7;   " d=" M   313.03,   494.70  C   313.03    495.48    313.67    496.12    314.45    496.12  " /><path style="stroke-width: 0.85 ;&st7;   " d=" M   314.45,   496.12  C   315.23    496.12    315.86    495.48    315.86    494.70  " /><path style="stroke-width: 0.85 ;&st7;   " d=" M   349.86,   494.70  C   349.86    493.92    349.22    493.29    348.44    493.29  " /><path style="stroke-width: 0.85 ;&st7;   " d=" M   348.44,   493.29  C   347.66    493.29    347.03    493.92    347.03    494.70  " /><path style="stroke-width: 0.85 ;&st7;   " d=" M   347.03,   494.70  C   347.03    495.48    347.66    496.12    348.44    496.12  " /><path style="stroke-width: 0.85 ;&st7;   " d=" M   348.44,   496.12  C   349.22    496.12    349.86    495.48    349.86    494.70  " /><text style="&st18;" transform="matrix(&st16;  317.03  533.51 )">LFG</text><text style="&st18;" transform="matrix(&st17;  241.36  502.05 )" ewd:textID="13">Fog <tspan x="0 " dy="6.0">Light Switch</tspan></text><text style="&st18;" transform="matrix(&st16;  269.98  479.67 )">OFF</text><text style="&st18;" transform="matrix(&st16;  308.42  462.68 )">LFG</text><text style="&st18;" transform="matrix(&st16;  342.03  462.68 )">BFG</text><text style="&st18;" transform="matrix(&st16;  269.01  496.67 )" ewd:textID="14">Front</text><text style="&st18;" transform="matrix(&st16;  269.48  513.67 )" ewd:textID="21">Rear</text><text style="&st18;" transform="matrix(&st16;  380.18  462.72 )">B</text><text style="&st18;" transform="matrix(&st16;  351.03  443.41 )">BFG</text><text style="&st18;" transform="matrix(&st16;  206.55  533.51 )">EL</text><path style="stroke-width: 0.85 ;&st7;  " d=" M   169.97,   452.21  L   169.97,   435.21  " /><text style="&st18;" transform="matrix(&st16;  172.56  443.41 )">T</text><path style="stroke-width: 0.85 ;&st7;   " d=" M   188.39,   511.70  C   188.39    510.92    187.75    510.28    186.97    510.28  " /><path style="stroke-width: 0.85 ;&st7;   " d=" M   186.97,   510.28  C   186.19    510.28    185.55    510.92    185.55    511.70  " /><path style="stroke-width: 0.85 ;&st7;   " d=" M   185.55,   511.70  C   185.55    512.48    186.19    513.12    186.97    513.12  " /><path style="stroke-width: 0.85 ;&st7;   " d=" M   186.97,   513.12  C   187.75    513.12    188.39    512.48    188.39    511.70  " /><text style="&st18;" transform="matrix(&st16;  157.16  423.58 )">18</text><text style="&st18;" transform="matrix(&st16;  157.16  432.65 )">13</text><path style="stroke-width: 1.42 ;&st7;   " d=" M   174.50,   421.61  C   174.50    419.11    172.47    417.08    169.97    417.08  " /><path style="stroke-width: 1.42 ;&st7;   " d=" M   169.97,   417.08  C   167.47    417.08    165.44    419.11    165.44    421.61  " /><path style="stroke-width: 1.42 ;&st7;   " d=" M   165.44,   421.61  C   165.44    424.12    167.47    426.15    169.97    426.15  " /><path style="stroke-width: 1.42 ;&st7;   " d=" M   169.97,   426.15  C   172.47    426.15    174.50    424.12    174.50    421.61  " /><path style="stroke-width: 1.42 ;&st7;   " d=" M   174.50,   430.68  C   174.50    428.18    172.47    426.15    169.97    426.15  " /><path style="stroke-width: 1.42 ;&st7;   " d=" M   169.97,   426.15  C   167.47    426.15    165.44    428.18    165.44    430.68  " /><path style="stroke-width: 1.42 ;&st7;   " d=" M   165.44,   430.68  C   165.44    433.18    167.47    435.21    169.97    435.21  " /><path style="stroke-width: 1.42 ;&st7;   " d=" M   169.97,   435.21  C   172.47    435.21    174.50    433.18    174.50    430.68  " /><text style="&st18;" transform="matrix(&st16;  167.55  432.65 )">D</text><text style="&st18;" transform="matrix(&st16;  167.55  423.58 )">C</text><text style="&st18;" transform="matrix(&st16;  191.15  543.7 )">12</text><text style="&st18;" transform="matrix(&st16;  191.15  552.76 )">19</text><text style="&st18;" transform="matrix(&st16;  201.55  543.7 )">C</text><path style="stroke-width: 1.42 ;&st7;   " d=" M   208.50,   541.73  C   208.50    539.22    206.47    537.20    203.97    537.20  " /><path style="stroke-width: 1.42 ;&st7;   " d=" M   203.97,   537.20  C   201.46    537.20    199.43    539.22    199.43    541.73  " /><path style="stroke-width: 1.42 ;&st7;   " d=" M   199.43,   541.73  C   199.43    544.23    201.46    546.26    203.97    546.26  " /><path style="stroke-width: 1.42 ;&st7;   " d=" M   203.97,   546.26  C   206.47    546.26    208.50    544.23    208.50    541.73  " /><text style="&st18;" transform="matrix(&st16;  201.55  552.76 )">D</text><path style="stroke-width: 1.42 ;&st7;   " d=" M   208.50,   550.79  C   208.50    548.29    206.47    546.26    203.97    546.26  " /><path style="stroke-width: 1.42 ;&st7;   " d=" M   203.97,   546.26  C   201.46    546.26    199.43    548.29    199.43    550.79  " /><path style="stroke-width: 1.42 ;&st7;   " d=" M   199.43,   550.79  C   199.43    553.30    201.46    555.33    203.97    555.33  " /><path style="stroke-width: 1.42 ;&st7;   " d=" M   203.97,   555.33  C   206.47    555.33    208.50    553.30    208.50    550.79  " /><text style="&st18;" transform="matrix(&st16;  304.97  552.76 )">8</text><text style="&st18;" transform="matrix(&st16;  304.97  543.7 )">3</text><text style="&st18;" transform="matrix(&st16;  312.03  552.76 )">D</text><text style="&st18;" transform="matrix(&st16;  312.03  543.7 )">C</text><path style="stroke-width: 1.42 ;&st7;   " d=" M   318.98,   550.79  C   318.98    548.29    316.95    546.26    314.45    546.26  " /><path style="stroke-width: 1.42 ;&st7;   " d=" M   314.45,   546.26  C   311.94    546.26    309.91    548.29    309.91    550.79  " /><path style="stroke-width: 1.42 ;&st7;   " d=" M   309.91,   550.79  C   309.91    553.30    311.94    555.33    314.45    555.33  " /><path style="stroke-width: 1.42 ;&st7;   " d=" M   314.45,   555.33  C   316.95    555.33    318.98    553.30    318.98    550.79  " /><path style="stroke-width: 1.42 ;&st7;   " d=" M   318.98,   541.73  C   318.98    539.22    316.95    537.20    314.45    537.20  " /><path style="stroke-width: 1.42 ;&st7;   " d=" M   314.45,   537.20  C   311.94    537.20    309.91    539.22    309.91    541.73  " /><path style="stroke-width: 1.42 ;&st7;   " d=" M   309.91,   541.73  C   309.91    544.23    311.94    546.26    314.45    546.26  " /><path style="stroke-width: 1.42 ;&st7;   " d=" M   314.45,   546.26  C   316.95    546.26    318.98    544.23    318.98    541.73  " /><text style="&st18;" transform="matrix(&st16;  338.96  432.65 )">7</text><text style="&st18;" transform="matrix(&st16;  338.96  423.58 )">4</text><path style="stroke-width: 1.42 ;&st7;   " d=" M   352.97,   430.68  C   352.97    428.18    350.95    426.15    348.44    426.15  " /><path style="stroke-width: 1.42 ;&st7;   " d=" M   348.44,   426.15  C   345.94    426.15    343.91    428.18    343.91    430.68  " /><path style="stroke-width: 1.42 ;&st7;   " d=" M   343.91,   430.68  C   343.91    433.18    345.94    435.21    348.44    435.21  " /><path style="stroke-width: 1.42 ;&st7;   " d=" M   348.44,   435.21  C   350.95    435.21    352.97    433.18    352.97    430.68  " /><path style="stroke-width: 1.42 ;&st7;   " d=" M   352.97,   421.61  C   352.97    419.11    350.95    417.08    348.44    417.08  " /><path style="stroke-width: 1.42 ;&st7;   " d=" M   348.44,   417.08  C   345.94    417.08    343.91    419.11    343.91    421.61  " /><path style="stroke-width: 1.42 ;&st7;   " d=" M   343.91,   421.61  C   343.91    424.12    345.94    426.15    348.44    426.15  " /><path style="stroke-width: 1.42 ;&st7;   " d=" M   348.44,   426.15  C   350.95    426.15    352.97    424.12    352.97    421.61  " /><text style="&st18;" transform="matrix(&st16;  346.02  432.65 )">D</text><text style="&st18;" transform="matrix(&st16;  346.02  423.58 )">C</text><g ewd:figtype="title"><text style="&st18;" transform="matrix(&st16;  362.03  545.09 )">L24(C),(D)</text><text style="&st18;" transform="matrix(&st16;  362.03  551.91 )" ewd:textID="17">Headlight Dimmer Switch Assembly</text></g><g ewd:code="" ewd:figID="71" ewd:comment="" ewd:figtype="commref"><text style="&st18;" transform="matrix(&st16;  353.53  432.65 )">(RHD)</text></g><g ewd:code="" ewd:figID="72" ewd:comment="" ewd:figtype="commref"><text style="&st18;" transform="matrix(&st16;  353.53  423.58 )">(LHD)</text></g><g ewd:code="" ewd:figID="73" ewd:comment="" ewd:figtype="commref"><text style="&st18;" transform="matrix(&st16;  319.54  543.7 )">(LHD)</text></g><g ewd:code="" ewd:figID="74" ewd:comment="" ewd:figtype="commref"><text style="&st18;" transform="matrix(&st16;  319.54  552.76 )">(RHD)</text></g></g><g ewd:figtype="conn" ewd:figID="2" ewd:code="L53"><path style="stroke-width: 1.42 ;&st7;  " d=" M   305.95,   630.68  L   322.95,   630.68  L   322.95,   647.68  L   305.95,   647.68  L   305.95,   630.68  " /><path style="stroke-width: 0.85 ;&st7;  " d=" M   314.45,   630.68  L   314.45,   647.68  " /><path style="stroke-width: 0.85 ;&st7;  " d=" M   314.45,   639.18  L   305.95,   639.18  " /><path style="stroke-width: 0.85 ;&st7;  " d=" M   313.25,   638.18  L   312.98,   638.65  L   312.89,   639.18  L   312.98,   639.71  L   313.25,   640.18  L   313.67,   640.53  L   314.18,   640.71  L   314.72,   640.71  L   315.23,   640.53  L   315.64,   640.18  L   315.91,   639.71  L   316.01,   639.18  L   315.91,   638.65  L   315.64,   638.18  L   315.23,   637.83  L   314.72,   637.64  L   314.18,   637.64  L   313.67,   637.83  L   313.25,   638.18  L   313.65,   638.89  L   313.65,   639.47  L   314.02,   639.92  L   314.59,   640.01  L   315.10,   639.73  L   315.30,   639.18  L   315.10,   638.63  L   314.59,   638.34  L   314.02,   638.44  L   314.45,   639.18  " /><text style="&st18;" transform="matrix(&st16;  299.61  635.49 )">5</text><text style="&st18;" transform="matrix(&st16;  308.11  655.87 )">4</text><text style="&st18;" transform="matrix(&st16;  304.77  626.99 )">13</text><g ewd:figtype="title"><text style="&st18;" transform="matrix(&st17;  337.66  650.58 )" ewd:textID="20">No. 31 <tspan x="0 " dy="6.0">Junction Connector</tspan></text><text style="&st18;" transform="matrix(&st17;  330.84  650.58 )">L53</text></g></g><g ewd:figtype="rb" ewd:figID="6" ewd:code="FUSE60"><path style="stroke-width: 1.42 ;&st7;   " d=" M    57.37,    99.52  C    57.37     97.17     55.46     95.27     53.12     95.27  " /><path style="stroke-width: 1.42 ;&st7;   " d=" M    53.12,   103.77  C    55.46    103.77     57.37    101.87     57.37     99.52  " /><path style="stroke-width: 1.42 ;&st7;   " d=" M    44.62,    99.52  C    44.62    101.87     46.52    103.77     48.87    103.77  " /><path style="stroke-width: 1.42 ;&st7;   " d=" M    48.87,    95.27  C    46.52     95.27     44.62     97.17     44.62     99.52  " /><path style="stroke-width: 0.85 ;&st7;  " d=" M    50.99,    78.27  L    50.99,    95.27  " /><path style="stroke-width: 1.42 ;&st7;  " d=" M    53.12,   103.77  L    48.87,   103.77  " /><path style="stroke-width: 1.42 ;&st7;  " d=" M    53.12,    95.27  L    48.87,    95.27  " /><path style="stroke-width: 0.28 ;&st9;  " d=" M    50.99,    90.37  L    48.16,    87.54  L    48.16,    91.79  L    50.99,    94.62  L    53.82,    91.79  L    53.82,    87.54  L    50.99,    90.37  " /><text style="&st18;" transform="matrix(&st16;  67.42  56.17 )">50A <tspan x="0 " dy="6.0">MAIN1</tspan></text><text style="&st18;" transform="matrix(&st16;  49.11  101.49 )">4</text><text style="&st18;" transform="matrix(&st16;  44.65  86.47 )">2</text><text style="&st18;" transform="matrix(&st16;  42.91  32.08 )">(BAT)</text><path style="stroke-width: 0.85 ;&st7;   " d=" M    52.41,    68.36  C    52.41     67.57     51.77     66.94     50.99     66.94  " /><path style="stroke-width: 0.85 ;&st7;   " d=" M    50.99,    66.94  C    50.21     66.94     49.58     67.57     49.58     68.36  " /><path style="stroke-width: 0.85 ;&st7;   " d=" M    49.58,    68.36  C    49.58     69.14     50.21     69.77     50.99     69.77  " /><path style="stroke-width: 0.85 ;&st7;   " d=" M    50.99,    69.77  C    51.77     69.77     52.41     69.14     52.41     68.36  " /><path style="stroke-width: 0.85 ;&st7;   " d=" M    52.41,    45.69  C    52.41     44.91     51.77     44.28     50.99     44.28  " /><path style="stroke-width: 0.85 ;&st7;   " d=" M    50.99,    44.28  C    50.21     44.28     49.58     44.91     49.58     45.69  " /><path style="stroke-width: 0.85 ;&st7;   " d=" M    49.58,    45.69  C    49.58     46.48     50.21     47.11     50.99     47.11  " /><path style="stroke-width: 0.85 ;&st7;   " d=" M    50.99,    47.11  C    51.77     47.11     52.41     46.48     52.41     45.69  " /><path style="stroke-width: 1.42 ;&st7;   " d=" M    50.99,    66.94  C    53.73     65.33     54.64     61.80     53.03     59.06  " /><path style="stroke-width: 1.42 ;&st7;   " d=" M    53.03,    59.06  C    52.51     58.18     51.87     57.55     50.99     57.03  " /><path style="stroke-width: 1.42 ;&st7;   " d=" M    50.99,    47.11  C    48.25     48.72     47.34     52.25     48.95     54.99  " /><path style="stroke-width: 1.42 ;&st7;   " d=" M    48.95,    54.99  C    49.47     55.87     50.11     56.51     50.99     57.03  " /><path style="stroke-width: 0.85 ;&st7;  " d=" M    50.99,    69.77  L    50.99,    78.27  " /><path style="stroke-width: 1.42 ;&st7;  " d=" M    38.24,    35.78  L    38.24,    78.27  L    63.74,    78.27  L    63.74,    35.78  L    38.24,    35.78  " /></g><g ewd:figtype="rb" ewd:figID="7" ewd:code="FUSE21"><path style="stroke-width: 0.85 ;&st7;  " d=" M   135.98,    78.27  L   135.98,    95.27  " /><path style="stroke-width: 0.85 ;&st7;  " d=" M   135.98,    35.78  L   135.98,    18.78  L   212.46,    18.78  L   212.46,    95.27  " /><path style="stroke-width: 0.28 ;&st9;  " d=" M   135.98,    90.37  L   133.14,    87.54  L   133.14,    91.79  L   135.98,    94.62  L   138.81,    91.79  L   138.81,    87.54  L   135.98,    90.37  " /><path style="stroke-width: 1.42 ;&st7;   " d=" M   142.35,    99.52  C   142.35     97.17    140.45     95.27    138.10     95.27  " /><path style="stroke-width: 1.42 ;&st7;   " d=" M   138.10,   103.77  C   140.45    103.77    142.35    101.87    142.35     99.52  " /><path style="stroke-width: 1.42 ;&st7;   " d=" M   129.60,    99.52  C   129.60    101.87    131.51    103.77    133.85    103.77  " /><path style="stroke-width: 1.42 ;&st7;   " d=" M   133.85,    95.27  C   131.51     95.27    129.60     97.17    129.60     99.52  " /><path style="stroke-width: 1.42 ;&st7;  " d=" M   138.10,   103.77  L   133.85,   103.77  " /><path style="stroke-width: 1.42 ;&st7;  " d=" M   138.10,    95.27  L   133.85,    95.27  " /><text style="&st18;" transform="matrix(&st16;  152.4  56.17 )">10A <tspan x="0 " dy="6.0">TAIL</tspan></text><text style="&st18;" transform="matrix(&st16;  129.64  86.47 )">1</text><text style="&st18;" transform="matrix(&st16;  129.64  32.09 )">2</text><text style="&st18;" transform="matrix(&st16;  134.1  101.49 )">2</text><path style="stroke-width: 0.28 ;&st9;  " d=" M   212.46,    90.37  L   209.63,    87.54  L   209.63,    91.79  L   212.46,    94.62  L   215.30,    91.79  L   215.30,    87.54  L   212.46,    90.37  " /><path style="stroke-width: 1.42 ;&st7;   " d=" M   218.84,    99.52  C   218.84     97.17    216.94     95.27    214.59     95.27  " /><path style="stroke-width: 1.42 ;&st7;   " d=" M   214.59,   103.77  C   216.94    103.77    218.84    101.87    218.84     99.52  " /><path style="stroke-width: 1.42 ;&st7;   " d=" M   206.09,    99.52  C   206.09    101.87    207.99    103.77    210.34    103.77  " /><path style="stroke-width: 1.42 ;&st7;   " d=" M   210.34,    95.27  C   207.99     95.27    206.09     97.17    206.09     99.52  " /><path style="stroke-width: 1.42 ;&st7;  " d=" M   214.59,   103.77  L   210.34,   103.77  " /><path style="stroke-width: 1.42 ;&st7;  " d=" M   214.59,    95.27  L   210.34,    95.27  " /><text style="&st18;" transform="matrix(&st16;  210.59  101.49 )">2</text><path style="stroke-width: 1.42 ;&st7;  " d=" M   123.23,    35.78  L   123.23,    78.27  L   148.73,    78.27  L   148.73,    35.78  L   123.23,    35.78  " /><path style="stroke-width: 0.85 ;&st7;  " d=" M   135.98,    35.78  L   135.98,    44.28  " /><path style="stroke-width: 0.85 ;&st7;   " d=" M   137.39,    68.36  C   137.39     67.57    136.76     66.94    135.98     66.94  " /><path style="stroke-width: 0.85 ;&st7;   " d=" M   135.98,    66.94  C   135.20     66.94    134.56     67.57    134.56     68.36  " /><path style="stroke-width: 0.85 ;&st7;   " d=" M   134.56,    68.36  C   134.56     69.14    135.20     69.77    135.98     69.77  " /><path style="stroke-width: 0.85 ;&st7;   " d=" M   135.98,    69.77  C   136.76     69.77    137.39     69.14    137.39     68.36  " /><path style="stroke-width: 0.85 ;&st7;   " d=" M   137.39,    45.69  C   137.39     44.91    136.76     44.28    135.98     44.28  " /><path style="stroke-width: 0.85 ;&st7;   " d=" M   135.98,    44.28  C   135.20     44.28    134.56     44.91    134.56     45.69  " /><path style="stroke-width: 0.85 ;&st7;   " d=" M   134.56,    45.69  C   134.56     46.48    135.20     47.11    135.98     47.11  " /><path style="stroke-width: 0.85 ;&st7;   " d=" M   135.98,    47.11  C   136.76     47.11    137.39     46.48    137.39     45.69  " /><path style="stroke-width: 1.42 ;&st7;   " d=" M   135.98,    66.94  C   138.72     65.33    139.63     61.80    138.01     59.06  " /><path style="stroke-width: 1.42 ;&st7;   " d=" M   138.01,    59.06  C   137.49     58.18    136.86     57.55    135.98     57.03  " /><path style="stroke-width: 1.42 ;&st7;   " d=" M   135.98,    47.11  C   133.24     48.72    132.33     52.25    133.94     54.99  " /><path style="stroke-width: 1.42 ;&st7;   " d=" M   133.94,    54.99  C   134.46     55.87    135.10     56.51    135.98     57.03  " /><path style="stroke-width: 0.85 ;&st7;  " d=" M   135.98,    69.77  L   135.98,    78.27  " /></g><g ewd:figtype="rb" ewd:figID="8" ewd:code="FUSE24"><path style="stroke-width: 0.28 ;&st9;  " d=" M   399.43,    90.37  L   396.60,    87.54  L   396.60,    91.79  L   399.43,    94.62  L   402.27,    91.79  L   402.27,    87.54  L   399.43,    90.37  " /><path style="stroke-width: 1.42 ;&st7;   " d=" M   405.81,    99.52  C   405.81     97.17    403.90     95.27    401.56     95.27  " /><path style="stroke-width: 1.42 ;&st7;   " d=" M   401.56,   103.77  C   403.90    103.77    405.81    101.87    405.81     99.52  " /><path style="stroke-width: 1.42 ;&st7;   " d=" M   393.06,    99.52  C   393.06    101.87    394.96    103.77    397.31    103.77  " /><path style="stroke-width: 1.42 ;&st7;   " d=" M   397.31,    95.27  C   394.96     95.27    393.06     97.17    393.06     99.52  " /><path style="stroke-width: 0.85 ;&st7;  " d=" M   399.43,    78.27  L   399.43,    95.27  " /><path style="stroke-width: 1.42 ;&st7;  " d=" M   401.56,   103.77  L   397.31,   103.77  " /><path style="stroke-width: 1.42 ;&st7;  " d=" M   401.56,    95.27  L   397.31,    95.27  " /><text style="&st18;" transform="matrix(&st16;  415.86  56.17 )">15A <tspan x="0 " dy="6.0">FR FOG</tspan></text><text style="&st18;" transform="matrix(&st16;  397.56  101.49 )">2</text><text style="&st18;" transform="matrix(&st16;  393.09  86.47 )">2</text><text style="&st18;" transform="matrix(&st16;  391.35  32.08 )">(BAT)</text><path style="stroke-width: 1.42 ;&st7;  " d=" M   386.69,    35.78  L   386.69,    78.27  L   412.18,    78.27  L   412.18,    35.78  L   386.69,    35.78  " /><path style="stroke-width: 0.85 ;&st7;   " d=" M   400.85,    68.36  C   400.85     67.57    400.22     66.94    399.43     66.94  " /><path style="stroke-width: 0.85 ;&st7;   " d=" M   399.43,    66.94  C   398.65     66.94    398.02     67.57    398.02     68.36  " /><path style="stroke-width: 0.85 ;&st7;   " d=" M   398.02,    68.36  C   398.02     69.14    398.65     69.77    399.43     69.77  " /><path style="stroke-width: 0.85 ;&st7;   " d=" M   399.43,    69.77  C   400.22     69.77    400.85     69.14    400.85     68.36  " /><path style="stroke-width: 0.85 ;&st7;   " d=" M   400.85,    45.69  C   400.85     44.91    400.22     44.28    399.43     44.28  " /><path style="stroke-width: 0.85 ;&st7;   " d=" M   399.43,    44.28  C   398.65     44.28    398.02     44.91    398.02     45.69  " /><path style="stroke-width: 0.85 ;&st7;   " d=" M   398.02,    45.69  C   398.02     46.48    398.65     47.11    399.43     47.11  " /><path style="stroke-width: 0.85 ;&st7;   " d=" M   399.43,    47.11  C   400.22     47.11    400.85     46.48    400.85     45.69  " /><path style="stroke-width: 1.42 ;&st7;   " d=" M   399.43,    66.94  C   402.17     65.33    403.08     61.80    401.47     59.06  " /><path style="stroke-width: 1.42 ;&st7;   " d=" M   401.47,    59.06  C   400.95     58.18    400.32     57.55    399.43     57.03  " /><path style="stroke-width: 1.42 ;&st7;   " d=" M   399.43,    47.11  C   396.70     48.72    395.78     52.25    397.40     54.99  " /><path style="stroke-width: 1.42 ;&st7;   " d=" M   397.40,    54.99  C   397.92     55.87    398.55     56.51    399.43     57.03  " /><path style="stroke-width: 0.85 ;&st7;  " d=" M   399.43,    69.77  L   399.43,    78.27  " /></g><g ewd:figtype="rb" ewd:figID="9" ewd:code="2"><path style="stroke-width: 0.85 ;&st7;  " d=" M   348.44,   222.75  L   348.44,   205.75  " /><path style="stroke-width: 0.85 ;&st7;  " d=" M   373.94,   205.75  L   373.94,   222.75  " /><path style="stroke-width: 0.85 ;&st7;  " d=" M   373.94,   273.74  L   373.94,   256.74  " /><path style="stroke-width: 0.85 ;&st7;  " d=" M   348.44,   256.74  L   348.44,   273.74  " /><path style="stroke-width: 0.28 ;&st9;  " d=" M   348.44,   268.84  L   345.61,   266.01  L   345.61,   270.26  L   348.44,   273.09  L   351.27,   270.26  L   351.27,   266.01  L   348.44,   268.84  " /><path style="stroke-width: 0.28 ;&st9;  " d=" M   373.94,   268.84  L   371.10,   266.01  L   371.10,   270.26  L   373.94,   273.09  L   376.77,   270.26  L   376.77,   266.01  L   373.94,   268.84  " /><path style="stroke-width: 0.28 ;&st9;  " d=" M   348.44,   210.65  L   351.27,   213.48  L   351.27,   209.23  L   348.44,   206.40  L   345.61,   209.23  L   345.61,   213.48  L   348.44,   210.65  " /><path style="stroke-width: 0.28 ;&st9;  " d=" M   373.94,   210.65  L   376.77,   213.48  L   376.77,   209.23  L   373.94,   206.40  L   371.10,   209.23  L   371.10,   213.48  L   373.94,   210.65  " /><path style="stroke-width: 1.42 ;&st7;   " d=" M   354.82,   277.99  C   354.82    275.64    352.91    273.74    350.57    273.74  " /><path style="stroke-width: 1.42 ;&st7;   " d=" M   350.57,   282.24  C   352.91    282.24    354.82    280.34    354.82    277.99  " /><path style="stroke-width: 1.42 ;&st7;   " d=" M   342.07,   277.99  C   342.07    280.34    343.97    282.24    346.32    282.24  " /><path style="stroke-width: 1.42 ;&st7;   " d=" M   346.32,   273.74  C   343.97    273.74    342.07    275.64    342.07    277.99  " /><path style="stroke-width: 1.42 ;&st7;   " d=" M   380.31,   277.99  C   380.31    275.64    378.41    273.74    376.06    273.74  " /><path style="stroke-width: 1.42 ;&st7;   " d=" M   376.06,   282.24  C   378.41    282.24    380.31    280.34    380.31    277.99  " /><path style="stroke-width: 1.42 ;&st7;   " d=" M   367.56,   277.99  C   367.56    280.34    369.47    282.24    371.81    282.24  " /><path style="stroke-width: 1.42 ;&st7;   " d=" M   371.81,   273.74  C   369.47    273.74    367.56    275.64    367.56    277.99  " /><path style="stroke-width: 1.42 ;&st7;   " d=" M   354.82,   201.50  C   354.82    199.15    352.91    197.25    350.57    197.25  " /><path style="stroke-width: 1.42 ;&st7;   " d=" M   350.57,   205.75  C   352.91    205.75    354.82    203.85    354.82    201.50  " /><path style="stroke-width: 1.42 ;&st7;   " d=" M   342.07,   201.50  C   342.07    203.85    343.97    205.75    346.32    205.75  " /><path style="stroke-width: 1.42 ;&st7;   " d=" M   346.32,   197.25  C   343.97    197.25    342.07    199.15    342.07    201.50  " /><path style="stroke-width: 1.42 ;&st7;   " d=" M   380.31,   201.50  C   380.31    199.15    378.41    197.25    376.06    197.25  " /><path style="stroke-width: 1.42 ;&st7;   " d=" M   376.06,   205.75  C   378.41    205.75    380.31    203.85    380.31    201.50  " /><path style="stroke-width: 1.42 ;&st7;   " d=" M   367.56,   201.50  C   367.56    203.85    369.47    205.75    371.81    205.75  " /><path style="stroke-width: 1.42 ;&st7;   " d=" M   371.81,   197.25  C   369.47    197.25    367.56    199.15    367.56    201.50  " /><path style="stroke-width: 1.42 ;&st7;  " d=" M   350.57,   282.24  L   346.32,   282.24  " /><path style="stroke-width: 1.42 ;&st7;  " d=" M   350.57,   273.74  L   346.32,   273.74  " /><path style="stroke-width: 1.42 ;&st7;  " d=" M   376.06,   282.24  L   371.81,   282.24  " /><path style="stroke-width: 1.42 ;&st7;  " d=" M   376.06,   273.74  L   371.81,   273.74  " /><path style="stroke-width: 1.42 ;&st7;  " d=" M   350.57,   205.75  L   346.32,   205.75  " /><path style="stroke-width: 1.42 ;&st7;  " d=" M   350.57,   197.25  L   346.32,   197.25  " /><path style="stroke-width: 1.42 ;&st7;  " d=" M   376.06,   205.75  L   371.81,   205.75  " /><path style="stroke-width: 1.42 ;&st7;  " d=" M   376.06,   197.25  L   371.81,   197.25  " /><text style="&st18;" transform="matrix(&st16;  342.1  264.94 )">1</text><text style="&st18;" transform="matrix(&st16;  367.6  264.94 )">3</text><text style="&st18;" transform="matrix(&st16;  342.1  219.06 )">2</text><text style="&st18;" transform="matrix(&st16;  367.6  219.06 )">5</text><text style="&st18;" transform="matrix(&st16;  372.06  203.47 )">2</text><text style="&st18;" transform="matrix(&st16;  346.56  203.47 )">2</text><text style="&st18;" transform="matrix(&st16;  372.06  279.96 )">2</text><text style="&st18;" transform="matrix(&st16;  346.56  279.96 )">2</text><text style="&st18;" transform="matrix(&st17;  390.08  259.27 )" ewd:textID="10">FR FOG Relay</text><path style="stroke-width: 1.42 ;&st7;  " d=" M   382.44,   222.75  L   339.94,   222.75  L   339.94,   256.74  L   382.44,   256.74  L   382.44,   222.75  " /><path style="stroke-width: 0.85 ;&st7;   " d=" M   348.44,   248.24  C   350.40    248.24    351.98    246.66    351.98    244.70  " /><path style="stroke-width: 0.85 ;&st7;   " d=" M   351.98,   244.70  C   351.98    242.75    350.40    241.16    348.44    241.16  " /><path style="stroke-width: 0.85 ;&st7;   " d=" M   348.44,   241.16  C   347.45    241.16    346.61    241.52    345.91    242.22  " /><path style="stroke-width: 0.85 ;&st7;   " d=" M   345.91,   242.22  C   347.28    243.62    349.52    243.64    350.92    242.27  " /><path style="stroke-width: 0.85 ;&st7;   " d=" M   350.92,   242.27  C   352.32    240.91    352.34    238.66    350.97    237.27  " /><path style="stroke-width: 0.85 ;&st7;   " d=" M   350.97,   237.27  C   349.60    235.87    347.36    235.85    345.96    237.22  " /><path style="stroke-width: 0.85 ;&st7;   " d=" M   345.96,   237.22  C   345.94    237.23    345.93    237.25    345.91    237.27  " /><path style="stroke-width: 0.85 ;&st7;   " d=" M   345.91,   237.27  C   347.28    238.66    349.52    238.69    350.92    237.32  " /><path style="stroke-width: 0.85 ;&st7;   " d=" M   350.92,   237.32  C   352.32    235.95    352.34    233.71    350.97    232.31  " /><path style="stroke-width: 0.85 ;&st7;   " d=" M   350.97,   232.31  C   350.28    231.60    349.43    231.25    348.44    231.25  " /><path style="stroke-width: 0.85 ;&st7;   " d=" M   375.35,   228.41  C   375.35    227.63    374.72    227.00    373.94    227.00  " /><path style="stroke-width: 0.85 ;&st7;   " d=" M   373.94,   227.00  C   373.16    227.00    372.52    227.63    372.52    228.41  " /><path style="stroke-width: 0.85 ;&st7;   " d=" M   372.52,   228.41  C   372.52    229.20    373.16    229.83    373.94    229.83  " /><path style="stroke-width: 0.85 ;&st7;   " d=" M   373.94,   229.83  C   374.72    229.83    375.35    229.20    375.35    228.41  " /><path style="stroke-width: 0.85 ;&st7;   " d=" M   375.35,   251.08  C   375.35    250.29    374.72    249.66    373.94    249.66  " /><path style="stroke-width: 0.85 ;&st7;   " d=" M   373.94,   249.66  C   373.16    249.66    372.52    250.29    372.52    251.08  " /><path style="stroke-width: 0.85 ;&st7;   " d=" M   372.52,   251.08  C   372.52    251.86    373.16    252.49    373.94    252.49  " /><path style="stroke-width: 0.85 ;&st7;   " d=" M   373.94,   252.49  C   374.72    252.49    375.35    251.86    375.35    251.08  " /><path style="stroke-width: 0.85 ;&st7;  " d=" M   348.44,   248.24  L   348.44,   256.74  " /><path style="stroke-width: 0.85 ;&st7;  " d=" M   348.44,   222.75  L   348.44,   231.25  " /><path style="stroke-width: 0.85 ;&st7;  " d=" M   373.94,   222.75  L   373.94,   227.00  " /><path style="stroke-width: 0.85 ;&st7;  " d=" M   373.94,   256.74  L   373.94,   252.49  " /><path style="stroke-width: 1.42 ;&st7;  " d=" M   373.94,   249.66  L   379.60,   227.00  " /></g><g ewd:figtype="rb" ewd:figID="10" ewd:code="2"><path style="stroke-width: 0.85 ;&st7;  " d=" M    50.99,   248.24  L    50.99,   231.25  " /><path style="stroke-width: 0.85 ;&st7;  " d=" M    76.49,   231.25  L    76.49,   248.24  " /><path style="stroke-width: 0.85 ;&st7;  " d=" M    76.49,   299.24  L    76.49,   282.24  " /><path style="stroke-width: 0.85 ;&st7;  " d=" M    50.99,   282.24  L    50.99,   299.24  " /><path style="stroke-width: 0.28 ;&st9;  " d=" M    50.99,   294.34  L    48.16,   291.51  L    48.16,   295.76  L    50.99,   298.59  L    53.82,   295.76  L    53.82,   291.51  L    50.99,   294.34  " /><path style="stroke-width: 0.28 ;&st9;  " d=" M    76.49,   294.34  L    73.65,   291.51  L    73.65,   295.76  L    76.49,   298.59  L    79.32,   295.76  L    79.32,   291.51  L    76.49,   294.34  " /><path style="stroke-width: 0.28 ;&st9;  " d=" M    50.99,   236.14  L    53.82,   238.97  L    53.82,   234.73  L    50.99,   231.89  L    48.16,   234.73  L    48.16,   238.97  L    50.99,   236.14  " /><path style="stroke-width: 0.28 ;&st9;  " d=" M    76.49,   236.14  L    79.32,   238.97  L    79.32,   234.73  L    76.49,   231.89  L    73.65,   234.73  L    73.65,   238.97  L    76.49,   236.14  " /><path style="stroke-width: 1.42 ;&st7;   " d=" M    57.37,   303.48  C    57.37    301.14     55.46    299.24     53.12    299.24  " /><path style="stroke-width: 1.42 ;&st7;   " d=" M    53.12,   307.73  C    55.46    307.73     57.37    305.83     57.37    303.48  " /><path style="stroke-width: 1.42 ;&st7;   " d=" M    44.62,   303.48  C    44.62    305.83     46.52    307.73     48.87    307.73  " /><path style="stroke-width: 1.42 ;&st7;   " d=" M    48.87,   299.24  C    46.52    299.24     44.62    301.14     44.62    303.48  " /><path style="stroke-width: 1.42 ;&st7;   " d=" M    82.86,   303.48  C    82.86    301.14     80.96    299.24     78.61    299.24  " /><path style="stroke-width: 1.42 ;&st7;   " d=" M    78.61,   307.73  C    80.96    307.73     82.86    305.83     82.86    303.48  " /><path style="stroke-width: 1.42 ;&st7;   " d=" M    70.11,   303.48  C    70.11    305.83     72.02    307.73     74.36    307.73  " /><path style="stroke-width: 1.42 ;&st7;   " d=" M    74.36,   299.24  C    72.02    299.24     70.11    301.14     70.11    303.48  " /><path style="stroke-width: 1.42 ;&st7;   " d=" M    57.37,   227.00  C    57.37    224.65     55.46    222.75     53.12    222.75  " /><path style="stroke-width: 1.42 ;&st7;   " d=" M    53.12,   231.25  C    55.46    231.25     57.37    229.34     57.37    227.00  " /><path style="stroke-width: 1.42 ;&st7;   " d=" M    44.62,   227.00  C    44.62    229.34     46.52    231.25     48.87    231.25  " /><path style="stroke-width: 1.42 ;&st7;   " d=" M    48.87,   222.75  C    46.52    222.75     44.62    224.65     44.62    227.00  " /><path style="stroke-width: 1.42 ;&st7;   " d=" M    82.86,   227.00  C    82.86    224.65     80.96    222.75     78.61    222.75  " /><path style="stroke-width: 1.42 ;&st7;   " d=" M    78.61,   231.25  C    80.96    231.25     82.86    229.34     82.86    227.00  " /><path style="stroke-width: 1.42 ;&st7;   " d=" M    70.11,   227.00  C    70.11    229.34     72.02    231.25     74.36    231.25  " /><path style="stroke-width: 1.42 ;&st7;   " d=" M    74.36,   222.75  C    72.02    222.75     70.11    224.65     70.11    227.00  " /><path style="stroke-width: 1.42 ;&st7;  " d=" M    53.12,   307.73  L    48.87,   307.73  " /><path style="stroke-width: 1.42 ;&st7;  " d=" M    53.12,   299.24  L    48.87,   299.24  " /><path style="stroke-width: 1.42 ;&st7;  " d=" M    78.61,   307.73  L    74.36,   307.73  " /><path style="stroke-width: 1.42 ;&st7;  " d=" M    78.61,   299.24  L    74.36,   299.24  " /><path style="stroke-width: 1.42 ;&st7;  " d=" M    53.12,   231.25  L    48.87,   231.25  " /><path style="stroke-width: 1.42 ;&st7;  " d=" M    53.12,   222.75  L    48.87,   222.75  " /><path style="stroke-width: 1.42 ;&st7;  " d=" M    78.61,   231.25  L    74.36,   231.25  " /><path style="stroke-width: 1.42 ;&st7;  " d=" M    78.61,   222.75  L    74.36,   222.75  " /><text style="&st18;" transform="matrix(&st16;  44.65  290.43 )">2</text><text style="&st18;" transform="matrix(&st16;  70.15  290.43 )">3</text><text style="&st18;" transform="matrix(&st16;  44.65  244.55 )">1</text><text style="&st18;" transform="matrix(&st16;  70.15  244.55 )">5</text><text style="&st18;" transform="matrix(&st16;  74.61  228.97 )">2</text><text style="&st18;" transform="matrix(&st16;  49.11  228.97 )">2</text><text style="&st18;" transform="matrix(&st16;  74.61  305.45 )">2</text><text style="&st18;" transform="matrix(&st16;  49.11  305.45 )">2</text><text style="&st18;" transform="matrix(&st17;  92.62  272.59 )" ewd:textID="22">TAIL <tspan x="0 " dy="6.0">Relay</tspan></text><path style="stroke-width: 1.42 ;&st7;  " d=" M    84.99,   248.24  L    42.49,   248.24  L    42.49,   282.24  L    84.99,   282.24  L    84.99,   248.24  " /><path style="stroke-width: 0.85 ;&st7;   " d=" M    50.99,   273.74  C    52.95    273.74     54.53    272.15     54.53    270.20  " /><path style="stroke-width: 0.85 ;&st7;   " d=" M    54.53,   270.20  C    54.53    268.24     52.95    266.66     50.99    266.66  " /><path style="stroke-width: 0.85 ;&st7;   " d=" M    50.99,   266.66  C    50.00    266.66     49.16    267.01     48.46    267.72  " /><path style="stroke-width: 0.85 ;&st7;   " d=" M    48.46,   267.72  C    49.83    269.12     52.07    269.14     53.47    267.77  " /><path style="stroke-width: 0.85 ;&st7;   " d=" M    53.47,   267.77  C    54.87    266.40     54.89    264.16     53.52    262.76  " /><path style="stroke-width: 0.85 ;&st7;   " d=" M    53.52,   262.76  C    52.15    261.37     49.91    261.34     48.51    262.71  " /><path style="stroke-width: 0.85 ;&st7;   " d=" M    48.51,   262.71  C    48.49    262.73     48.48    262.74     48.46    262.76  " /><path style="stroke-width: 0.85 ;&st7;   " d=" M    48.46,   262.76  C    49.83    264.16     52.07    264.18     53.47    262.81  " /><path style="stroke-width: 0.85 ;&st7;   " d=" M    53.47,   262.81  C    54.87    261.44     54.89    259.20     53.52    257.80  " /><path style="stroke-width: 0.85 ;&st7;   " d=" M    53.52,   257.80  C    52.83    257.10     51.98    256.74     50.99    256.74  " /><path style="stroke-width: 0.85 ;&st7;   " d=" M    77.90,   253.91  C    77.90    253.13     77.27    252.49     76.49    252.49  " /><path style="stroke-width: 0.85 ;&st7;   " d=" M    76.49,   252.49  C    75.70    252.49     75.07    253.13     75.07    253.91  " /><path style="stroke-width: 0.85 ;&st7;   " d=" M    75.07,   253.91  C    75.07    254.69     75.70    255.33     76.49    255.33  " /><path style="stroke-width: 0.85 ;&st7;   " d=" M    76.49,   255.33  C    77.27    255.33     77.90    254.69     77.90    253.91  " /><path style="stroke-width: 0.85 ;&st7;   " d=" M    77.90,   276.57  C    77.90    275.79     77.27    275.16     76.49    275.16  " /><path style="stroke-width: 0.85 ;&st7;   " d=" M    76.49,   275.16  C    75.70    275.16     75.07    275.79     75.07    276.57  " /><path style="stroke-width: 0.85 ;&st7;   " d=" M    75.07,   276.57  C    75.07    277.35     75.70    277.99     76.49    277.99  " /><path style="stroke-width: 0.85 ;&st7;   " d=" M    76.49,   277.99  C    77.27    277.99     77.90    277.35     77.90    276.57  " /><path style="stroke-width: 1.42 ;&st7;  " d=" M    76.49,   275.16  L    82.15,   252.49  " /><path style="stroke-width: 0.85 ;&st7;  " d=" M    50.99,   273.74  L    50.99,   282.24  " /><path style="stroke-width: 0.85 ;&st7;  " d=" M    50.99,   248.24  L    50.99,   256.74  " /><path style="stroke-width: 0.85 ;&st7;  " d=" M    76.49,   248.24  L    76.49,   252.49  " /><path style="stroke-width: 0.85 ;&st7;  " d=" M    76.49,   282.24  L    76.49,   277.99  " /></g><g ewd:figtype="conn" ewd:figID="11" ewd:code="I106"><path style="stroke-width: 0.85 ;&st7;  " d=" M   186.97,   222.75  L   186.97,   239.75  " /><path style="stroke-width: 1.42 ;&st7;  " d=" M   169.97,   222.75  L   203.97,   222.75  L   203.97,   239.75  L   169.97,   239.75  L   169.97,   222.75  " /><text style="&st18;" transform="matrix(&st16;  177.49  220.18 )">8</text><text style="&st18;" transform="matrix(&st16;  184.7  220.18 )">B</text><path style="stroke-width: 1.42 ;&st7;   " d=" M   191.50,   218.22  C   191.50    215.71    189.47    213.68    186.97    213.68  " /><path style="stroke-width: 1.42 ;&st7;   " d=" M   186.97,   213.68  C   184.47    213.68    182.44    215.71    182.44    218.22  " /><path style="stroke-width: 1.42 ;&st7;   " d=" M   182.44,   218.22  C   182.44    220.72    184.47    222.75    186.97    222.75  " /><path style="stroke-width: 1.42 ;&st7;   " d=" M   186.97,   222.75  C   189.47    222.75    191.50    220.72    191.50    218.22  " /><text style="&st18;" transform="matrix(&st16;  174.15  246.25 )">11</text><text style="&st18;" transform="matrix(&st16;  184.7  246.25 )">B</text><path style="stroke-width: 1.42 ;&st7;   " d=" M   191.50,   244.28  C   191.50    241.77    189.47    239.75    186.97    239.75  " /><path style="stroke-width: 1.42 ;&st7;   " d=" M   186.97,   239.75  C   184.47    239.75    182.44    241.77    182.44    244.28  " /><path style="stroke-width: 1.42 ;&st7;   " d=" M   182.44,   244.28  C   182.44    246.78    184.47    248.81    186.97    248.81  " /><path style="stroke-width: 1.42 ;&st7;   " d=" M   186.97,   248.81  C   189.47    248.81    191.50    246.78    191.50    244.28  " /><g ewd:figtype="title"><text style="&st18;" transform="matrix(&st17;  160.33  242.65 )" ewd:textID="19">No. 9 Junction <tspan x="0 " dy="6.0">Connector</tspan></text><text style="&st18;" transform="matrix(&st17;  153.5  242.64 )">I106(B)</text></g></g><g ewd:figtype="w2w" ewd:figID="17" ewd:code="IL6"><path style="stroke-width: 1.42 ;&st7;  " d=" M    55.24,   364.39  L    50.99,   360.14  L    46.74,   364.39  " /><path style="stroke-width: 1.42 ;&st7;  " d=" M    55.24,   367.79  L    50.99,   363.54  L    46.74,   367.79  " /><text style="&st18;" transform="matrix(&st16;  37.57  356.45 )">3</text><g ewd:code="" ewd:figID="82" ewd:comment="" ewd:figtype="commref"><text style="&st18;" transform="matrix(&st16;  60.02  356.45 )">(RHD)</text></g></g><g ewd:figtype="w2w" ewd:figID="18" ewd:code="IL2"><text style="&st18;" transform="matrix(&st16;  37.57  347.95 )">6</text><g ewd:code="" ewd:figID="83" ewd:comment="" ewd:figtype="commref"><text style="&st18;" transform="matrix(&st16;  60.02  347.95 )">(LHD)</text></g></g><g ewd:figtype="w2w" ewd:figID="19" ewd:code="AI1"><path style="stroke-width: 1.42 ;&st7;  " d=" M    55.24,   146.83  L    50.99,   142.58  L    46.74,   146.83  " /><path style="stroke-width: 1.42 ;&st7;  " d=" M    55.24,   143.43  L    50.99,   139.18  L    46.74,   143.43  " /><text style="&st18;" transform="matrix(&st16;  37.57  135.48 )">1</text></g><g ewd:figtype="w2w" ewd:figID="20" ewd:code="IL5"><path style="stroke-width: 1.42 ;&st7;  " d=" M   352.69,   367.79  L   348.44,   363.54  L   344.19,   367.79  " /><path style="stroke-width: 1.42 ;&st7;  " d=" M   352.69,   364.39  L   348.44,   360.14  L   344.19,   364.39  " /><text style="&st18;" transform="matrix(&st16;  331.69  356.45 )">26</text><g ewd:code="" ewd:figID="84" ewd:comment="" ewd:figtype="commref"><text style="&st18;" transform="matrix(&st16;  357.47  356.45 )">(RHD)</text></g></g><g ewd:figtype="w2w" ewd:figID="21" ewd:code="IL1"><text style="&st18;" transform="matrix(&st16;  331.69  347.95 )">21</text><g ewd:code="" ewd:figID="85" ewd:comment="" ewd:figtype="commref"><text style="&st18;" transform="matrix(&st16;  357.47  347.95 )">(LHD)</text></g></g><g ewd:figtype="w2w" ewd:figID="22" ewd:code="IL5"><text style="&st18;" transform="matrix(&st16;  459.17  245.96 )">27</text><g ewd:code="" ewd:figID="67" ewd:comment="" ewd:figtype="commref"><text style="&st18;" transform="matrix(&st16;  484.95  245.96 )">(RHD)</text></g></g><g ewd:figtype="w2w" ewd:figID="23" ewd:code="IL1"><path style="stroke-width: 1.42 ;&st7;  " d=" M   471.67,   222.18  L   475.92,   226.43  L   480.17,   222.18  " /><path style="stroke-width: 1.42 ;&st7;  " d=" M   480.17,   225.58  L   475.92,   229.83  L   471.67,   225.58  " /><text style="&st18;" transform="matrix(&st16;  459.17  237.47 )">22</text><g ewd:code="" ewd:figID="68" ewd:comment="" ewd:figtype="commref"><text style="&st18;" transform="matrix(&st16;  484.95  237.47 )">(LHD)</text></g></g><g ewd:figtype="gp" ewd:figID="43" ewd:code="LB"><path style="stroke-width: 0.85 ;&st7;  " d=" M   271.95,   697.25  L   271.95,   701.50  " /><path style="stroke-width: 0.85 ;&st7;  " d=" M   263.46,   701.50  L   280.45,   701.50  " /><path style="stroke-width: 0.85 ;&st7;  " d=" M   267.71,   704.33  L   276.20,   704.33  " /><path style="stroke-width: 0.85 ;&st7;  " d=" M   269.12,   707.17  L   274.79,   707.17  " /><path style="stroke-width: 0.85 ;&st7;  " d=" M   270.54,   710.00  L   273.37,   710.00  " /></g><g ewd:figtype="gp" ewd:figID="44" ewd:code="LA"><path style="stroke-width: 0.85 ;&st7;  " d=" M   314.45,   697.25  L   314.45,   701.50  " /><path style="stroke-width: 0.85 ;&st7;  " d=" M   305.95,   701.50  L   322.95,   701.50  " /><path style="stroke-width: 0.85 ;&st7;  " d=" M   310.20,   704.33  L   318.70,   704.33  " /><path style="stroke-width: 0.85 ;&st7;  " d=" M   311.61,   707.17  L   317.28,   707.17  " /><path style="stroke-width: 0.85 ;&st7;  " d=" M   313.03,   710.00  L   315.86,   710.00  "/></g><g ewd:code="14" ewd:figID="90" ewd:comment="" ewd:figtype="comment"><text style="&st18;" transform="matrix(&st16;  30.59  632.65 )" ewd:textID="2">*14 :From Sep. 2017 Production</text></g><g ewd:code="17" ewd:figID="93" ewd:comment="13,4,14,9,14,2,16" ewd:figtype="comment"><text style="&st18;" transform="matrix(&st16;  30.59  658.14 )">*17 :*13 *4,*14 *9,*14 *2 *16</text></g><g ewd:code="9" ewd:figID="80" ewd:comment="" ewd:figtype="comment"><text style="&st18;" transform="matrix(&st16;  30.59  590.16 )">* 9 :RHD 1HZ</text></g><g ewd:code="18" ewd:figID="94" ewd:comment="" ewd:figtype="comment"><text style="&st18;" transform="matrix(&st16;  30.59  666.64 )" ewd:textID="5">*18 :Before Jul. 2021 Production</text></g><g ewd:code="3" ewd:figID="77" ewd:comment="" ewd:figtype="comment"><text style="&st18;" transform="matrix(&st16;  30.59  564.66 )">* 3 :1GR-FE</text></g><g ewd:code="12" ewd:figID="86" ewd:comment="" ewd:figtype="comment"><text style="&st18;" transform="matrix(&st16;  30.59  615.65 )">*12 :1VD-FTV</text></g><g ewd:code="15" ewd:figID="92" ewd:comment="" ewd:figtype="comment"><text style="&st18;" transform="matrix(&st16;  30.59  641.15 )" ewd:textID="3">*15 :w/o SRS</text></g><g ewd:code="13" ewd:figID="89" ewd:comment="" ewd:figtype="comment"><text style="&st18;" transform="matrix(&st16;  30.59  624.15 )" ewd:textID="1">*13 :Before Sep. 2017 Production</text></g><g ewd:code="4" ewd:figID="76" ewd:comment="" ewd:figtype="comment"><text style="&st18;" transform="matrix(&st16;  30.59  573.16 )">* 4 :1HZ</text></g><g ewd:code="10" ewd:figID="75" ewd:comment="" ewd:figtype="comment"><text style="&st18;" transform="matrix(&st16;  30.59  598.65 )">*10 :RHD 1VD-FTV</text></g><g ewd:code="8" ewd:figID="81" ewd:comment="" ewd:figtype="comment"><text style="&st18;" transform="matrix(&st16;  30.59  581.66 )">* 8 :RHD 1GR-FE</text></g><g ewd:code="16" ewd:figID="91" ewd:comment="" ewd:figtype="comment"><text style="&st18;" transform="matrix(&st16;  30.59  649.65 )" ewd:textID="4">*16 :w/ SRS</text></g><g ewd:code="19" ewd:figID="95" ewd:comment="" ewd:figtype="comment"><text style="&st18;" transform="matrix(&st16;  30.59  675.14 )" ewd:textID="6">*19 :From Jul. 2021 Production</text></g><g ewd:code="21" ewd:figID="97" ewd:comment="" ewd:figtype="comment"><text style="&st18;" transform="matrix(&st16;  30.59  692.14 )" ewd:textID="8">*21 :From Sep. 2022 Production</text></g><g ewd:code="2" ewd:figID="78" ewd:comment="" ewd:figtype="comment"><text style="&st18;" transform="matrix(&st16;  30.59  556.16 )">* 2 :LHD 1HZ</text></g><g ewd:code="11" ewd:figID="87" ewd:comment="" ewd:figtype="comment"><text style="&st18;" transform="matrix(&st16;  30.59  607.15 )">*11 :LHD 1VD-FTV</text></g><g ewd:code="1" ewd:figID="79" ewd:comment="" ewd:figtype="comment"><text style="&st18;" transform="matrix(&st16;  30.59  547.66 )">* 1 :LHD 1GR-FE</text></g><g ewd:code="20" ewd:figID="96" ewd:comment="" ewd:figtype="comment"><text style="&st18;" transform="matrix(&st16;  30.59  683.64 )" ewd:textID="7">*20 :Before Sep. 2022 Production</text></g></svg>
