<?xml version="1.0" encoding="utf-8"?>
<!DOCTYPE svg PUBLIC "-//W3C//DTD SVG 1.0//EN" "http://www.w3.org/TR/2001/REC-SVG-20010904/DTD/svg10.dtd"[
	<!ENTITY ns_flows "http://ns.adobe.com/Flows/1.0/">
	<!ENTITY ns_svg "http://www.w3.org/2000/svg">
	<!ENTITY ns_xlink "http://www.w3.org/1999/xlink">
	<!ENTITY st0 "font-size:7px;font-family:'MS-PGothic';adobe-font-script:japanese;">
	<!ENTITY st1 "font-size:6px;font-family:'ArialMT';">
	<!-- White fill  -->
	<!ENTITY st2 "fill:#FFFFFF;stroke:#000000; stroke-width:1.41;stroke-linecap:round;stroke-linejoin:round;">
	<!-- Yellow fill  -->
	<!ENTITY st3 "fill:#FFFFCC;stroke:#FFFFCC; stroke-width:0.1;stroke-linecap:round;stroke-linejoin:round;">
	<!-- Gray fill  -->
	<!ENTITY st4 "fill:#CCCCCC;stroke:#CCCCCC; stroke-width:0.1;stroke-linecap:round;stroke-linejoin:round;">
	<!-- Light-blue fill -->
	<!ENTITY st5 "fill:#CCECF4;stroke:#000000; stroke-width:1.133;stroke-linecap:round;stroke-linejoin:round;">
	<!ENTITY st6 "fill:none;stroke-linecap:butt; stroke-linejoin:round;">
	<!ENTITY st7 "fill:none;stroke:#000000;stroke-linecap:round;stroke-linejoin:round;">
	<!ENTITY st8 "enable-background:new    ;">
	<!-- Black fill -->
	<!ENTITY st9 "fill:#000000;stroke:#000000; stroke-linecap:round;stroke-linejoin:round;">
	<!-- SRS note   -->
	<!ENTITY st10 "font-size:9px;font-family:'ArialMT';">
	<!ENTITY st11 "font-size:9px;font-family:'Svg Symbol';">
	<!ENTITY st12 "font-size:6px;font-family:'Svg Symbol';">
	<!ENTITY st13 "fill:none;stroke:#ff0000;stroke-linecap:round;stroke-linejoin:round;">
	<!-- Yellow fill  -->
	<!ENTITY st14 "fill:#FFFF00;stroke:#FFFF00; stroke-width:0.1;stroke-linecap:round;stroke-linejoin:round;">
	<!ENTITY st15 "font-size:6px;font-family:'MS-PGothic';adobe-font-script:japanese;">
	<!ENTITY st16 "1.00 0.00 0.00 1.00">
	<!ENTITY st17 "0.00 -1.00 1.00 0.00">
	<!ENTITY st18 "font-size:6px;font-family:'Arial';">
	<!ENTITY st19 "font-size:9px;font-family:'Arial';">
	<!ENTITY st20 "font-size:6px;font-family:'MS-PGothic','MS PGothic';adobe-font-script:japanese;">
	<!ENTITY st21 "font-size:7px;font-family:'MS-PGothic','MS PGothic';adobe-font-script:japanese;">
	<!ATTLIST svg
		xmlns:ewd CDATA #FIXED "http://shcl.co.jp/ewd"
		xmlns:a CDATA #FIXED "http://ns.adobe.com/AdobeSVGViewerExtensions/3.0/"
		ewd:ver CDATA #IMPLIED
	>
	<!ATTLIST a
		ewd:lineID CDATA #IMPLIED
		ewd:groupID CDATA #IMPLIED
		ewd:figtype CDATA #IMPLIED
		ewd:code CDATA #IMPLIED
		ewd:figID CDATA #IMPLIED
		ewd:pinNo CDATA #IMPLIED
		ewd:comment CDATA #IMPLIED >
	<!ATTLIST g
		ewd:lineID CDATA #IMPLIED
		ewd:groupID CDATA #IMPLIED
		ewd:figtype CDATA #IMPLIED
		ewd:code CDATA #IMPLIED
		ewd:figID CDATA #IMPLIED
		ewd:pinNo CDATA #IMPLIED
		ewd:comment CDATA #IMPLIED >
	<!ATTLIST text
		ewd:textID CDATA #IMPLIED >
	<!ATTLIST title
		ewd:textID CDATA #IMPLIED >
]>
<!-- Generator: Shintec Hozumi YS   -->
<svg onload="call_execInitLoadProc_svg('system')" style="overflow:visible;  enable-background:new 0 0 1531.013 710.000" viewBox="0 0 1531.013 710.000" height="710.000" width="1531.013" xml:space="preserve" ewd:ver="2.3.1.16" xmlns="&ns_svg;" xmlns:a="http://ns.adobe.com/AdobeSVGViewerExtensions/3.0/" xmlns:ewd="http://shcl.co.jp/ewd" xmlns:xlink="&ns_xlink;">
<path style="stroke-width: 1.42 ;&st7;  " d=" M   943.34,   443.71  L   951.84,   443.71  " /><path style="stroke-width: 1.42 ;&st7;  " d=" M   960.34,   367.22  L   951.84,   367.22  " /><path style="stroke-width: 1.42 ;&st7;  " d=" M   798.87,   367.22  L   790.37,   367.22  " /><path style="stroke-width: 1.42 ;&st7;  " d=" M   900.85,   452.21  L   892.35,   452.21  " /><path style="stroke-width: 1.42 ;&st7;  " d=" M   705.38,   426.71  L   713.88,   426.71  " /><path style="stroke-width: 1.42 ;&st7;  " d=" M   620.40,   418.22  L   628.89,   418.22  " /><path style="stroke-width: 1.42 ;&st7;  " d=" M   637.39,   486.20  L   628.89,   486.20  " /><text style="&st18;" transform="matrix(&st16;  538.5  635.48 )">B-R</text><text style="&st18;" transform="matrix(&st17;  798.0  456.77 )">(*2)</text><text style="&st18;" transform="matrix(&st17;  786.67  456.88 )">B-Y</text><text style="&st18;" transform="matrix(&st17;  599.7  114.03 )">B</text><text style="&st18;" transform="matrix(&st17;  625.2  152.28 )">B</text><text style="&st18;" transform="matrix(&st17;  599.7  152.28 )">B</text><text style="&st18;" transform="matrix(&st16;  660.98  315.37 )">(*1 *16)</text><text style="&st18;" transform="matrix(&st16;  666.21  304.04 )">B-Y</text><text style="&st18;" transform="matrix(&st17;  721.52  397.28 )">(*1)</text><text style="&st18;" transform="matrix(&st17;  710.19  397.39 )">B-Y</text><text style="&st18;" transform="matrix(&st17;  636.53  368.63 )">(*2 *16)</text><text style="&st18;" transform="matrix(&st17;  625.2  363.4 )">B-Y</text><text style="&st18;" transform="matrix(&st17;  721.52  456.77 )">(*1)</text><text style="&st18;" transform="matrix(&st17;  710.19  456.88 )">B-Y</text><text style="&st18;" transform="matrix(&st17;  636.53  456.77 )">(*2)</text><text style="&st18;" transform="matrix(&st17;  625.2  456.88 )">B-Y</text><text style="&st18;" transform="matrix(&st17;  899.99  592.75 )">(*1)</text><text style="&st18;" transform="matrix(&st17;  888.66  593.91 )">W-B</text><text style="&st18;" transform="matrix(&st17;  959.48  592.75 )">(*2)</text><text style="&st18;" transform="matrix(&st17;  948.15  593.91 )">W-B</text><text style="&st18;" transform="matrix(&st17;  959.48  490.76 )">(*2)</text><text style="&st18;" transform="matrix(&st17;  948.15  491.93 )">W-B</text><text style="&st18;" transform="matrix(&st17;  899.99  490.76 )">(*1)</text><text style="&st18;" transform="matrix(&st17;  888.66  491.93 )">W-B</text><text style="&st18;" transform="matrix(&st17;  959.48  414.28 )">(*2)</text><text style="&st18;" transform="matrix(&st17;  948.15  415.44 )">W-B</text><text style="&st18;" transform="matrix(&st17;  899.99  414.28 )">(*1)</text><text style="&st18;" transform="matrix(&st17;  888.66  415.44 )">W-B</text><text style="&st18;" transform="matrix(&st17;  786.67  269.92 )">B-Y</text><text style="&st18;" transform="matrix(&st17;  948.15  270.96 )">W-B</text><text style="&st18;" transform="matrix(&st17;  863.16  270.96 )">W-B</text><text style="&st18;" transform="matrix(&st17;  948.15  167.93 )">B-Y</text><text style="&st18;" transform="matrix(&st17;  863.16  167.93 )">B-Y</text><text style="&st18;" transform="matrix(&st17;  948.15  330.45 )">W-B</text><path style="stroke-width: 1.42 ;&st7;  " d=" M   611.90,   125.74  L   606.93,   120.77  " /><path style="stroke-width: 1.42 ;&st7;  " d=" M   594.90,   132.79  L   599.87,   137.76  " /><path style="stroke-width: 1.42 ;&st7;  " d=" M   606.93,   137.76  L   611.90,   132.79  " /><path style="stroke-width: 1.42 ;&st7;  " d=" M   599.87,   120.77  L   594.90,   125.74  " /><text style="&st18;" transform="matrix(&st16;  541.64  125.57 )">B</text><text style="&st18;" transform="matrix(&st16;  532.03  304.04 )">B-R(*16)</text><path style="stroke-width: 1.42 ;&st7;  " d=" M   875.35,   134.24  L   870.38,   129.26  " /><path style="stroke-width: 1.42 ;&st7;  " d=" M   858.36,   141.29  L   863.33,   146.26  " /><path style="stroke-width: 1.42 ;&st7;  " d=" M   870.38,   146.26  L   875.35,   141.29  " /><path style="stroke-width: 1.42 ;&st7;  " d=" M   863.33,   129.26  L   858.36,   134.24  " /><path style="stroke-width: 1.42 ;&st7;  " d=" M   960.34,   287.21  L   955.37,   282.24  " /><path style="stroke-width: 1.42 ;&st7;  " d=" M   943.34,   294.27  L   948.31,   299.24  " /><path style="stroke-width: 1.42 ;&st7;  " d=" M   955.37,   299.24  L   960.34,   294.27  " /><path style="stroke-width: 1.42 ;&st7;  " d=" M   948.31,   282.24  L   943.34,   287.21  " /><text style="&st18;" transform="matrix(&st16;  533.5  646.81 )">(*5 *14)</text><text style="&st18;" transform="matrix(&st17;  611.04  368.63 )">(*2 *17)</text><path style="stroke-width: 1.42 ;&st7;  " d=" M   705.38,   358.73  L   713.88,   358.73  " /><text style="&st18;" transform="matrix(&st16;  541.49  609.99 )">R</text><text style="&st18;" transform="matrix(&st16;  533.5  621.32 )">(*5 *15)</text><text style="&st18;" transform="matrix(&st17;  599.7  362.97 )">GR</text><text style="&st18;" transform="matrix(&st16;  535.01  287.04 )">R(*17)</text><text style="&st18;" transform="matrix(&st16;  692.14  287.04 )">GR</text><text style="&st18;" transform="matrix(&st16;  686.48  298.37 )">(*1 *17)</text><g ewd:figtype="conn" ewd:figID="2" ewd:code="W1"><path style="stroke-width: 0.85 ;&st7;  " d=" M   866.86,   222.75  L   866.86,   231.25  " /><path style="stroke-width: 0.85 ;&st7;  " d=" M   866.86,   197.25  L   866.86,   205.75  " /><path style="stroke-width: 0.85 ;&st7;   " d=" M   866.86,   222.75  C   868.81    222.75    870.40    221.16    870.40    219.21  " /><path style="stroke-width: 0.85 ;&st7;   " d=" M   870.40,   219.21  C   870.40    217.25    868.81    215.67    866.86    215.67  " /><path style="stroke-width: 0.85 ;&st7;   " d=" M   866.86,   215.67  C   865.86    215.67    865.02    216.02    864.33    216.73  " /><path style="stroke-width: 0.85 ;&st7;   " d=" M   864.33,   216.73  C   865.69    218.13    867.94    218.15    869.33    216.78  " /><path style="stroke-width: 0.85 ;&st7;   " d=" M   869.33,   216.78  C   870.73    215.41    870.75    213.17    869.38    211.77  " /><path style="stroke-width: 0.85 ;&st7;   " d=" M   869.38,   211.77  C   868.02    210.37    865.77    210.35    864.38    211.72  " /><path style="stroke-width: 0.85 ;&st7;   " d=" M   864.38,   211.72  C   864.36    211.74    864.34    211.75    864.33    211.77  " /><path style="stroke-width: 0.85 ;&st7;   " d=" M   864.33,   211.77  C   865.69    213.17    867.94    213.19    869.33    211.82  " /><path style="stroke-width: 0.85 ;&st7;   " d=" M   869.33,   211.82  C   870.73    210.45    870.75    208.21    869.38    206.81  " /><path style="stroke-width: 0.85 ;&st7;   " d=" M   869.38,   206.81  C   868.69    206.11    867.85    205.75    866.86    205.75  " /><path style="stroke-width: 1.42 ;&st7;  " d=" M   875.35,   231.25  L   875.35,   197.25  L   858.36,   197.25  L   858.36,   231.25  L   875.35,   231.25  " /><text style="&st18;" transform="matrix(&st16;  860.52  239.44 )">2</text><text style="&st18;" transform="matrix(&st16;  860.52  193.56 )">1</text><g ewd:figtype="title"><text style="&st18;" transform="matrix(&st17;  883.25  234.15 )">W1</text><text style="&st18;" transform="matrix(&st17;  890.07  234.15 )" ewd:textID="18">Fuel Tank Solenoid <tspan x="0 " dy="6.0">Return Valve Assembly</tspan></text></g></g><g ewd:figtype="conn" ewd:figID="5" ewd:code="W2"><path style="stroke-width: 0.85 ;&st7;  " d=" M   951.84,   222.75  L   951.84,   231.25  " /><path style="stroke-width: 0.85 ;&st7;  " d=" M   951.84,   197.25  L   951.84,   205.75  " /><path style="stroke-width: 0.85 ;&st7;   " d=" M   951.84,   222.75  C   953.80    222.75    955.38    221.16    955.38    219.21  " /><path style="stroke-width: 0.85 ;&st7;   " d=" M   955.38,   219.21  C   955.38    217.25    953.80    215.67    951.84    215.67  " /><path style="stroke-width: 0.85 ;&st7;   " d=" M   951.84,   215.67  C   950.85    215.67    950.00    216.02    949.31    216.73  " /><path style="stroke-width: 0.85 ;&st7;   " d=" M   949.31,   216.73  C   950.68    218.13    952.92    218.15    954.32    216.78  " /><path style="stroke-width: 0.85 ;&st7;   " d=" M   954.32,   216.78  C   955.72    215.41    955.74    213.17    954.37    211.77  " /><path style="stroke-width: 0.85 ;&st7;   " d=" M   954.37,   211.77  C   953.00    210.37    950.76    210.35    949.36    211.72  " /><path style="stroke-width: 0.85 ;&st7;   " d=" M   949.36,   211.72  C   949.34    211.74    949.33    211.75    949.31    211.77  " /><path style="stroke-width: 0.85 ;&st7;   " d=" M   949.31,   211.77  C   950.68    213.17    952.92    213.19    954.32    211.82  " /><path style="stroke-width: 0.85 ;&st7;   " d=" M   954.32,   211.82  C   955.72    210.45    955.74    208.21    954.37    206.81  " /><path style="stroke-width: 0.85 ;&st7;   " d=" M   954.37,   206.81  C   953.68    206.11    952.83    205.75    951.84    205.75  " /><path style="stroke-width: 1.42 ;&st7;  " d=" M   960.34,   231.25  L   960.34,   197.25  L   943.34,   197.25  L   943.34,   231.25  L   960.34,   231.25  " /><text style="&st18;" transform="matrix(&st16;  945.5  193.56 )">1</text><text style="&st18;" transform="matrix(&st16;  945.5  239.44 )">2</text><g ewd:figtype="title"><text style="&st18;" transform="matrix(&st17;  968.23  234.15 )">W2</text><text style="&st18;" transform="matrix(&st17;  975.06  234.15 )" ewd:textID="17">Fuel Tank Solenoid <tspan x="0 " dy="6.0">Main Valve Assembly</tspan></text></g></g><g ewd:figtype="rb" ewd:figID="6" ewd:code="2"><path style="stroke-width: 1.42 ;&st7;  " d=" M   631.02,   265.24  L   626.77,   265.24  " /><path style="stroke-width: 1.42 ;&st7;  " d=" M   631.02,   273.74  L   626.77,   273.74  " /><path style="stroke-width: 1.42 ;&st7;  " d=" M   588.53,   265.24  L   584.28,   265.24  " /><path style="stroke-width: 1.42 ;&st7;  " d=" M   588.53,   273.74  L   584.28,   273.74  " /><path style="stroke-width: 1.42 ;&st7;  " d=" M   605.52,   171.76  L   601.27,   171.76  " /><path style="stroke-width: 1.42 ;&st7;  " d=" M   605.52,   163.26  L   601.27,   163.26  " /><path style="stroke-width: 1.42 ;&st7;  " d=" M   631.02,   171.76  L   626.77,   171.76  " /><path style="stroke-width: 1.42 ;&st7;  " d=" M   631.02,   163.26  L   626.77,   163.26  " /><path style="stroke-width: 1.42 ;&st7;   " d=" M   592.78,   269.49  C   592.78    267.14    590.87    265.24    588.53    265.24  " /><path style="stroke-width: 1.42 ;&st7;   " d=" M   588.53,   273.74  C   590.87    273.74    592.78    271.84    592.78    269.49  " /><path style="stroke-width: 1.42 ;&st7;   " d=" M   626.77,   265.24  C   624.42    265.24    622.52    267.14    622.52    269.49  " /><path style="stroke-width: 1.42 ;&st7;   " d=" M   622.52,   269.49  C   622.52    271.84    624.42    273.74    626.77    273.74  " /><path style="stroke-width: 1.42 ;&st7;   " d=" M   631.02,   273.74  C   633.37    273.74    635.27    271.84    635.27    269.49  " /><path style="stroke-width: 1.42 ;&st7;   " d=" M   635.27,   269.49  C   635.27    267.14    633.37    265.24    631.02    265.24  " /><path style="stroke-width: 1.42 ;&st7;   " d=" M   584.28,   265.24  C   581.93    265.24    580.03    267.14    580.03    269.49  " /><path style="stroke-width: 1.42 ;&st7;   " d=" M   580.03,   269.49  C   580.03    271.84    581.93    273.74    584.28    273.74  " /><path style="stroke-width: 1.42 ;&st7;   " d=" M   609.77,   167.51  C   609.77    165.16    607.87    163.26    605.52    163.26  " /><path style="stroke-width: 1.42 ;&st7;   " d=" M   605.52,   171.76  C   607.87    171.76    609.77    169.85    609.77    167.51  " /><path style="stroke-width: 1.42 ;&st7;   " d=" M   597.03,   167.51  C   597.03    169.85    598.93    171.76    601.27    171.76  " /><path style="stroke-width: 1.42 ;&st7;   " d=" M   601.27,   163.26  C   598.93    163.26    597.03    165.16    597.03    167.51  " /><path style="stroke-width: 1.42 ;&st7;   " d=" M   635.27,   167.51  C   635.27    165.16    633.37    163.26    631.02    163.26  " /><path style="stroke-width: 1.42 ;&st7;   " d=" M   631.02,   171.76  C   633.37    171.76    635.27    169.85    635.27    167.51  " /><path style="stroke-width: 1.42 ;&st7;   " d=" M   622.52,   167.51  C   622.52    169.85    624.42    171.76    626.77    171.76  " /><path style="stroke-width: 1.42 ;&st7;   " d=" M   626.77,   163.26  C   624.42    163.26    622.52    165.16    622.52    167.51  " /><path style="stroke-width: 0.28 ;&st9;  " d=" M   586.40,   260.35  L   583.57,   257.51  L   583.57,   261.76  L   586.40,   264.60  L   589.23,   261.76  L   589.23,   257.51  L   586.40,   260.35  " /><path style="stroke-width: 0.85 ;&st7;  " d=" M   586.40,   265.24  L   586.40,   248.24  L   603.40,   248.24  L   603.40,   231.25  " /><path style="stroke-width: 0.28 ;&st9;  " d=" M   628.89,   260.35  L   626.06,   257.51  L   626.06,   261.76  L   628.89,   264.60  L   631.73,   261.76  L   631.73,   257.51  L   628.89,   260.35  " /><path style="stroke-width: 0.85 ;&st7;  " d=" M   628.89,   265.24  L   628.89,   231.25  " /><path style="stroke-width: 0.28 ;&st9;  " d=" M   603.40,   176.65  L   606.23,   179.48  L   606.23,   175.24  L   603.40,   172.40  L   600.57,   175.24  L   600.57,   179.48  L   603.40,   176.65  " /><path style="stroke-width: 0.85 ;&st7;  " d=" M   603.40,   197.25  L   603.40,   171.76  " /><path style="stroke-width: 0.28 ;&st9;  " d=" M   628.89,   176.65  L   631.73,   179.48  L   631.73,   175.24  L   628.89,   172.40  L   626.06,   175.24  L   626.06,   179.48  L   628.89,   176.65  " /><path style="stroke-width: 0.85 ;&st7;  " d=" M   628.89,   197.25  L   628.89,   171.76  " /><text style="&st18;" transform="matrix(&st16;  584.52  271.46 )">2</text><text style="&st18;" transform="matrix(&st17;  645.03  229.08 )" ewd:textID="30">SUB TANK <tspan x="0 " dy="6.0">Relay</tspan></text><text style="&st18;" transform="matrix(&st16;  627.02  271.46 )">2</text><text style="&st18;" transform="matrix(&st16;  601.52  169.48 )">2</text><text style="&st18;" transform="matrix(&st16;  627.02  169.48 )">2</text><text style="&st18;" transform="matrix(&st16;  622.56  193.56 )">5</text><text style="&st18;" transform="matrix(&st16;  597.06  193.56 )">1</text><text style="&st18;" transform="matrix(&st16;  622.56  239.44 )">3</text><text style="&st18;" transform="matrix(&st16;  597.06  239.44 )">2</text><path style="stroke-width: 0.85 ;&st7;  " d=" M   603.40,   222.75  L   603.40,   231.25  " /><path style="stroke-width: 0.85 ;&st7;  " d=" M   603.40,   197.25  L   603.40,   205.75  " /><path style="stroke-width: 0.85 ;&st7;  " d=" M   628.89,   197.25  L   628.89,   201.50  " /><path style="stroke-width: 0.85 ;&st7;  " d=" M   628.89,   231.25  L   628.89,   227.00  " /><path style="stroke-width: 1.42 ;&st7;  " d=" M   628.89,   224.16  L   634.56,   201.50  " /><path style="stroke-width: 0.85 ;&st7;   " d=" M   603.40,   222.75  C   605.35    222.75    606.94    221.16    606.94    219.21  " /><path style="stroke-width: 0.85 ;&st7;   " d=" M   606.94,   219.21  C   606.94    217.25    605.35    215.67    603.40    215.67  " /><path style="stroke-width: 0.85 ;&st7;   " d=" M   603.40,   215.67  C   602.41    215.67    601.56    216.02    600.87    216.73  " /><path style="stroke-width: 0.85 ;&st7;   " d=" M   600.87,   216.73  C   602.24    218.13    604.48    218.15    605.88    216.78  " /><path style="stroke-width: 0.85 ;&st7;   " d=" M   605.88,   216.78  C   607.28    215.41    607.30    213.17    605.93    211.77  " /><path style="stroke-width: 0.85 ;&st7;   " d=" M   605.93,   211.77  C   604.56    210.37    602.32    210.35    600.92    211.72  " /><path style="stroke-width: 0.85 ;&st7;   " d=" M   600.92,   211.72  C   600.90    211.74    600.89    211.75    600.87    211.77  " /><path style="stroke-width: 0.85 ;&st7;   " d=" M   600.87,   211.77  C   602.24    213.17    604.48    213.19    605.88    211.82  " /><path style="stroke-width: 0.85 ;&st7;   " d=" M   605.88,   211.82  C   607.28    210.45    607.30    208.21    605.93    206.81  " /><path style="stroke-width: 0.85 ;&st7;   " d=" M   605.93,   206.81  C   605.24    206.11    604.39    205.75    603.40    205.75  " /><path style="stroke-width: 0.85 ;&st7;   " d=" M   630.31,   202.92  C   630.31    202.14    629.68    201.50    628.89    201.50  " /><path style="stroke-width: 0.85 ;&st7;   " d=" M   628.89,   201.50  C   628.11    201.50    627.48    202.14    627.48    202.92  " /><path style="stroke-width: 0.85 ;&st7;   " d=" M   627.48,   202.92  C   627.48    203.70    628.11    204.33    628.89    204.33  " /><path style="stroke-width: 0.85 ;&st7;   " d=" M   628.89,   204.33  C   629.68    204.33    630.31    203.70    630.31    202.92  " /><path style="stroke-width: 0.85 ;&st7;   " d=" M   630.31,   225.58  C   630.31    224.80    629.68    224.16    628.89    224.16  " /><path style="stroke-width: 0.85 ;&st7;   " d=" M   628.89,   224.16  C   628.11    224.16    627.48    224.80    627.48    225.58  " /><path style="stroke-width: 0.85 ;&st7;   " d=" M   627.48,   225.58  C   627.48    226.36    628.11    227.00    628.89    227.00  " /><path style="stroke-width: 0.85 ;&st7;   " d=" M   628.89,   227.00  C   629.68    227.00    630.31    226.36    630.31    225.58  " /><path style="stroke-width: 1.42 ;&st7;  " d=" M   637.39,   197.25  L   594.90,   197.25  L   594.90,   231.25  L   637.39,   231.25  L   637.39,   197.25  " /></g><g ewd:figtype="rb" ewd:figID="7" ewd:code="FUSE16"><path style="stroke-width: 0.85 ;&st7;  " d=" M   603.40,    78.27  L   603.40,    95.27  " /><path style="stroke-width: 1.42 ;&st7;  " d=" M   605.52,   103.77  L   601.27,   103.77  " /><path style="stroke-width: 1.42 ;&st7;  " d=" M   605.52,    95.27  L   601.27,    95.27  " /><path style="stroke-width: 1.42 ;&st7;   " d=" M   601.27,    95.27  C   598.93     95.27    597.03     97.17    597.03     99.52  " /><path style="stroke-width: 1.42 ;&st7;   " d=" M   597.03,    99.52  C   597.03    101.87    598.93    103.77    601.27    103.77  " /><path style="stroke-width: 1.42 ;&st7;   " d=" M   609.77,    99.52  C   609.77     97.17    607.87     95.27    605.52     95.27  " /><path style="stroke-width: 1.42 ;&st7;   " d=" M   605.52,   103.77  C   607.87    103.77    609.77    101.87    609.77     99.52  " /><path style="stroke-width: 0.28 ;&st9;  " d=" M   603.40,    90.37  L   600.57,    87.54  L   600.57,    91.79  L   603.40,    94.62  L   606.23,    91.79  L   606.23,    87.54  L   603.40,    90.37  " /><text style="&st18;" transform="matrix(&st16;  619.82  56.17 )">10A <tspan x="0 " dy="6.0">IGN</tspan></text><text style="&st18;" transform="matrix(&st16;  598.03  32.08 )">(IG)</text><text style="&st18;" transform="matrix(&st16;  601.52  101.49 )">2</text><text style="&st18;" transform="matrix(&st16;  597.06  86.47 )">2</text><path style="stroke-width: 0.85 ;&st7;  " d=" M   603.40,    69.77  L   603.40,    78.27  " /><path style="stroke-width: 1.42 ;&st7;   " d=" M   603.40,    66.94  C   606.14     65.33    607.05     61.80    605.44     59.06  " /><path style="stroke-width: 1.42 ;&st7;   " d=" M   605.44,    59.06  C   604.92     58.18    604.28     57.55    603.40     57.03  " /><path style="stroke-width: 0.85 ;&st7;   " d=" M   604.82,    45.69  C   604.82     44.91    604.18     44.28    603.40     44.28  " /><path style="stroke-width: 0.85 ;&st7;   " d=" M   603.40,    44.28  C   602.62     44.28    601.98     44.91    601.98     45.69  " /><path style="stroke-width: 0.85 ;&st7;   " d=" M   601.98,    45.69  C   601.98     46.48    602.62     47.11    603.40     47.11  " /><path style="stroke-width: 0.85 ;&st7;   " d=" M   603.40,    47.11  C   604.18     47.11    604.82     46.48    604.82     45.69  " /><path style="stroke-width: 0.85 ;&st7;   " d=" M   604.82,    68.36  C   604.82     67.57    604.18     66.94    603.40     66.94  " /><path style="stroke-width: 0.85 ;&st7;   " d=" M   603.40,    66.94  C   602.62     66.94    601.98     67.57    601.98     68.36  " /><path style="stroke-width: 0.85 ;&st7;   " d=" M   601.98,    68.36  C   601.98     69.14    602.62     69.77    603.40     69.77  " /><path style="stroke-width: 0.85 ;&st7;   " d=" M   603.40,    69.77  C   604.18     69.77    604.82     69.14    604.82     68.36  " /><path style="stroke-width: 1.42 ;&st7;   " d=" M   603.40,    47.11  C   600.66     48.72    599.75     52.25    601.36     54.99  " /><path style="stroke-width: 1.42 ;&st7;   " d=" M   601.36,    54.99  C   601.88     55.87    602.52     56.51    603.40     57.03  " /><path style="stroke-width: 1.42 ;&st7;  " d=" M   590.65,    35.78  L   590.65,    78.27  L   616.15,    78.27  L   616.15,    35.78  L   590.65,    35.78  " /></g><g ewd:figtype="conn" ewd:figID="8" ewd:code="A22"><path style="stroke-width: 0.85 ;&st7;  " d=" M   892.35,   537.20  L   892.35,   554.19  " /><path style="stroke-width: 1.42 ;&st7;  " d=" M   883.85,   537.20  L   900.85,   537.20  L   900.85,   554.19  L   883.85,   554.19  L   883.85,   537.20  " /><text style="&st18;" transform="matrix(&st16;  882.87  560.69 )">3</text><path style="stroke-width: 1.42 ;&st7;   " d=" M   896.88,   558.73  C   896.88    556.22    894.85    554.19    892.35    554.19  " /><path style="stroke-width: 1.42 ;&st7;   " d=" M   892.35,   554.19  C   889.85    554.19    887.82    556.22    887.82    558.73  " /><path style="stroke-width: 1.42 ;&st7;   " d=" M   887.82,   558.73  C   887.82    561.23    889.85    563.26    892.35    563.26  " /><path style="stroke-width: 1.42 ;&st7;   " d=" M   892.35,   563.26  C   894.85    563.26    896.88    561.23    896.88    558.73  " /><text style="&st18;" transform="matrix(&st16;  890.09  560.69 )">A</text><text style="&st18;" transform="matrix(&st16;  882.87  534.63 )">5</text><path style="stroke-width: 1.42 ;&st7;   " d=" M   896.88,   532.66  C   896.88    530.16    894.85    528.13    892.35    528.13  " /><path style="stroke-width: 1.42 ;&st7;   " d=" M   892.35,   528.13  C   889.85    528.13    887.82    530.16    887.82    532.66  " /><path style="stroke-width: 1.42 ;&st7;   " d=" M   887.82,   532.66  C   887.82    535.17    889.85    537.20    892.35    537.20  " /><path style="stroke-width: 1.42 ;&st7;   " d=" M   892.35,   537.20  C   894.85    537.20    896.88    535.17    896.88    532.66  " /><text style="&st18;" transform="matrix(&st16;  890.09  534.63 )">A</text><g ewd:figtype="title"><text style="&st18;" transform="matrix(&st17;  908.74  557.09 )">A22(A)</text><text style="&st18;" transform="matrix(&st17;  915.57  557.1 )" ewd:textID="19">No. 1 Junction <tspan x="0 " dy="6.0">Connector</tspan></text></g></g><g ewd:figtype="conn" ewd:figID="9" ewd:code="A23"><path style="stroke-width: 0.85 ;&st7;  " d=" M   951.84,   537.20  L   951.84,   554.19  " /><path style="stroke-width: 1.42 ;&st7;  " d=" M   943.34,   537.20  L   960.34,   537.20  L   960.34,   554.19  L   943.34,   554.19  L   943.34,   537.20  " /><text style="&st18;" transform="matrix(&st16;  942.36  560.69 )">1</text><path style="stroke-width: 1.42 ;&st7;   " d=" M   956.37,   558.73  C   956.37    556.22    954.34    554.19    951.84    554.19  " /><path style="stroke-width: 1.42 ;&st7;   " d=" M   951.84,   554.19  C   949.34    554.19    947.31    556.22    947.31    558.73  " /><path style="stroke-width: 1.42 ;&st7;   " d=" M   947.31,   558.73  C   947.31    561.23    949.34    563.26    951.84    563.26  " /><path style="stroke-width: 1.42 ;&st7;   " d=" M   951.84,   563.26  C   954.34    563.26    956.37    561.23    956.37    558.73  " /><text style="&st18;" transform="matrix(&st16;  949.58  560.69 )">A</text><text style="&st18;" transform="matrix(&st16;  942.36  534.63 )">5</text><path style="stroke-width: 1.42 ;&st7;   " d=" M   956.37,   532.66  C   956.37    530.16    954.34    528.13    951.84    528.13  " /><path style="stroke-width: 1.42 ;&st7;   " d=" M   951.84,   528.13  C   949.34    528.13    947.31    530.16    947.31    532.66  " /><path style="stroke-width: 1.42 ;&st7;   " d=" M   947.31,   532.66  C   947.31    535.17    949.34    537.20    951.84    537.20  " /><path style="stroke-width: 1.42 ;&st7;   " d=" M   951.84,   537.20  C   954.34    537.20    956.37    535.17    956.37    532.66  " /><text style="&st18;" transform="matrix(&st16;  949.58  534.63 )">A</text><g ewd:figtype="title"><text style="&st18;" transform="matrix(&st17;  968.23  557.09 )">A23(A)</text><text style="&st18;" transform="matrix(&st17;  975.06  557.1 )" ewd:textID="20">No. 2 Junction <tspan x="0 " dy="6.0">Connector</tspan></text></g></g><g ewd:figtype="w2w" ewd:figID="21" ewd:code="AC1"><path style="stroke-width: 1.42 ;&st7;  " d=" M   633.14,   491.87  L   628.89,   487.62  L   624.65,   491.87  " /><path style="stroke-width: 1.42 ;&st7;  " d=" M   633.14,   495.27  L   628.89,   491.02  L   624.65,   495.27  " /><text style="&st18;" transform="matrix(&st16;  612.14  483.92 )">11</text></g><g ewd:figtype="w2w" ewd:figID="22" ewd:code="AI3"><text style="&st18;" transform="matrix(&st16;  612.14  432.93 )">47</text><g ewd:code="" ewd:figID="58" ewd:comment="" ewd:figtype="commref"><text style="&st18;" transform="matrix(&st16;  637.93  432.93 )">(RHD)</text></g></g><g ewd:figtype="w2w" ewd:figID="23" ewd:code="AI3"><path style="stroke-width: 1.42 ;&st7;  " d=" M   624.65,   409.15  L   628.89,   413.40  L   633.14,   409.15  " /><path style="stroke-width: 1.42 ;&st7;  " d=" M   633.14,   412.55  L   628.89,   416.80  L   624.65,   412.55  " /><text style="&st18;" transform="matrix(&st16;  612.14  424.43 )">18</text><g ewd:code="" ewd:figID="57" ewd:comment="" ewd:figtype="commref"><text style="&st18;" transform="matrix(&st16;  637.93  424.43 )">(LHD)</text></g></g><g ewd:figtype="w2w" ewd:figID="24" ewd:code="CA4"><path style="stroke-width: 1.42 ;&st7;  " d=" M   718.13,   421.05  L   713.88,   425.30  L   709.63,   421.05  " /><path style="stroke-width: 1.42 ;&st7;  " d=" M   709.63,   417.65  L   713.88,   421.90  L   718.13,   417.65  " /><text style="&st18;" transform="matrix(&st16;  697.13  432.93 )">12</text></g><g ewd:figtype="w2w" ewd:figID="25" ewd:code="AI3"><text style="&st18;" transform="matrix(&st16;  697.13  373.44 )">50</text><g ewd:code="" ewd:figID="88" ewd:comment="" ewd:figtype="commref"><text style="&st18;" transform="matrix(&st16;  722.91  373.44 )">(RHD)</text></g></g><g ewd:figtype="w2w" ewd:figID="26" ewd:code="AI3"><path style="stroke-width: 1.42 ;&st7;  " d=" M   709.63,   349.66  L   713.88,   353.91  L   718.13,   349.66  " /><path style="stroke-width: 1.42 ;&st7;  " d=" M   718.13,   353.06  L   713.88,   357.31  L   709.63,   353.06  " /><text style="&st18;" transform="matrix(&st16;  697.13  364.94 )">45</text><g ewd:code="" ewd:figID="87" ewd:comment="" ewd:figtype="commref"><text style="&st18;" transform="matrix(&st16;  722.91  364.94 )">(LHD)</text></g></g><g ewd:figtype="w2w" ewd:figID="27" ewd:code="WC2"><path style="stroke-width: 1.42 ;&st7;  " d=" M   794.62,   372.89  L   790.37,   368.64  L   786.12,   372.89  " /><path style="stroke-width: 1.42 ;&st7;  " d=" M   794.62,   376.29  L   790.37,   372.04  L   786.12,   376.29  " /><text style="&st18;" transform="matrix(&st16;  776.95  364.94 )">2</text></g><g ewd:figtype="w2w" ewd:figID="28" ewd:code="CA4"><path style="stroke-width: 1.42 ;&st7;  " d=" M   896.60,   461.27  L   892.35,   457.03  L   888.10,   461.27  " /><path style="stroke-width: 1.42 ;&st7;  " d=" M   896.60,   457.88  L   892.35,   453.63  L   888.10,   457.88  " /><text style="&st18;" transform="matrix(&st16;  878.93  449.93 )">9</text></g><g ewd:figtype="w2w" ewd:figID="29" ewd:code="AC2"><path style="stroke-width: 1.42 ;&st7;  " d=" M   956.09,   438.05  L   951.84,   442.29  L   947.59,   438.05  " /><path style="stroke-width: 1.42 ;&st7;  " d=" M   947.59,   434.65  L   951.84,   438.90  L   956.09,   434.65  " /><text style="&st18;" transform="matrix(&st16;  938.42  449.93 )">3</text></g><g ewd:figtype="w2w" ewd:figID="30" ewd:code="WC2"><path style="stroke-width: 1.42 ;&st7;  " d=" M   956.09,   376.29  L   951.84,   372.04  L   947.59,   376.29  " /><path style="stroke-width: 1.42 ;&st7;  " d=" M   956.09,   372.89  L   951.84,   368.64  L   947.59,   372.89  " /><text style="&st18;" transform="matrix(&st16;  938.42  364.94 )">1</text></g><g ewd:figtype="gp" ewd:figID="44" ewd:code="AA"><path style="stroke-width: 0.85 ;&st7;  " d=" M   892.35,   697.25  L   892.35,   701.50  " /><path style="stroke-width: 0.85 ;&st7;  " d=" M   883.85,   701.50  L   900.85,   701.50  " /><path style="stroke-width: 0.85 ;&st7;  " d=" M   888.10,   704.33  L   896.60,   704.33  " /><path style="stroke-width: 0.85 ;&st7;  " d=" M   889.52,   707.17  L   895.18,   707.17  " /><path style="stroke-width: 0.85 ;&st7;  " d=" M   890.93,   710.00  L   893.77,   710.00  " /></g><g ewd:code="16" ewd:figID="105" ewd:comment="" ewd:figtype="comment"><text style="&st18;" transform="matrix(&st16;  854.95  97.24 )" ewd:textID="12">*16 :Before Sep. 2022 Production</text></g><g ewd:code="17" ewd:figID="106" ewd:comment="" ewd:figtype="comment"><text style="&st18;" transform="matrix(&st16;  854.95  105.74 )" ewd:textID="13">*17 :From Sep. 2022 Production</text></g><g ewd:code="1" ewd:figID="65" ewd:comment="" ewd:figtype="comment"><text style="&st18;" transform="matrix(&st16;  854.95  37.75 )">* 1 :1VD-FTV</text></g><g ewd:code="5" ewd:figID="76" ewd:comment="3,4" ewd:figtype="comment"><text style="&st18;" transform="matrix(&st16;  854.95  71.74 )" ewd:textID="3">* 5 :Except *3 *4</text></g><g ewd:code="15" ewd:figID="102" ewd:comment="" ewd:figtype="comment"><text style="&st18;" transform="matrix(&st16;  854.95  88.74 )" ewd:textID="11">*15 :From Jul. 2021 Production</text></g><g ewd:code="4" ewd:figID="75" ewd:comment="" ewd:figtype="comment"><text style="&st18;" transform="matrix(&st16;  854.95  63.24 )" ewd:textID="2">* 4 :Australia</text></g><g ewd:code="14" ewd:figID="101" ewd:comment="" ewd:figtype="comment"><text style="&st18;" transform="matrix(&st16;  854.95  80.24 )" ewd:textID="10">*14 :Before Jul. 2021 Production</text></g><g ewd:code="3" ewd:figID="74" ewd:comment="" ewd:figtype="comment"><text style="&st18;" transform="matrix(&st16;  854.95  54.75 )" ewd:textID="1">* 3 :2-Door Pick-Up Body Type</text></g><g ewd:code="2" ewd:figID="66" ewd:comment="" ewd:figtype="comment"><text style="&st18;" transform="matrix(&st16;  854.95  46.25 )">* 2 :1HZ</text></g></svg>