<?xml version="1.0" encoding="utf-8"?>
<!DOCTYPE svg PUBLIC "-//W3C//DTD SVG 1.0//EN" "http://www.w3.org/TR/2001/REC-SVG-20010904/DTD/svg10.dtd"[
	<!ENTITY ns_flows "http://ns.adobe.com/Flows/1.0/">
	<!ENTITY ns_svg "http://www.w3.org/2000/svg">
	<!ENTITY ns_xlink "http://www.w3.org/1999/xlink">
	<!ENTITY st0 "font-size:7px;font-family:'MS-PGothic';adobe-font-script:japanese;">
	<!ENTITY st1 "font-size:6px;font-family:'ArialMT';">
	<!-- White fill  -->
	<!ENTITY st2 "fill:#FFFFFF;stroke:#000000; stroke-width:1.41;stroke-linecap:round;stroke-linejoin:round;">
	<!-- Yellow fill  -->
	<!ENTITY st3 "fill:#FFFFCC;stroke:#FFFFCC; stroke-width:0.1;stroke-linecap:round;stroke-linejoin:round;">
	<!-- Gray fill  -->
	<!ENTITY st4 "fill:#CCCCCC;stroke:#CCCCCC; stroke-width:0.1;stroke-linecap:round;stroke-linejoin:round;">
	<!-- Light-blue fill -->
	<!ENTITY st5 "fill:#CCECF4;stroke:#000000; stroke-width:1.133;stroke-linecap:round;stroke-linejoin:round;">
	<!ENTITY st6 "fill:none;stroke-linecap:butt; stroke-linejoin:round;">
	<!ENTITY st7 "fill:none;stroke:#000000;stroke-linecap:round;stroke-linejoin:round;">
	<!ENTITY st8 "enable-background:new    ;">
	<!-- Black fill -->
	<!ENTITY st9 "fill:#000000;stroke:#000000; stroke-linecap:round;stroke-linejoin:round;">
	<!-- SRS note   -->
	<!ENTITY st10 "font-size:9px;font-family:'ArialMT';">
	<!ENTITY st11 "font-size:9px;font-family:'Svg Symbol';">
	<!ENTITY st12 "font-size:6px;font-family:'Svg Symbol';">
	<!ENTITY st13 "fill:none;stroke:#ff0000;stroke-linecap:round;stroke-linejoin:round;">
	<!-- Yellow fill  -->
	<!ENTITY st14 "fill:#FFFF00;stroke:#FFFF00; stroke-width:0.1;stroke-linecap:round;stroke-linejoin:round;">
	<!ENTITY st15 "font-size:6px;font-family:'MS-PGothic';adobe-font-script:japanese;">
	<!ENTITY st16 "1.00 0.00 0.00 1.00">
	<!ENTITY st17 "0.00 -1.00 1.00 0.00">
	<!ENTITY st18 "font-size:6px;font-family:'Arial';">
	<!ENTITY st19 "font-size:9px;font-family:'Arial';">
	<!ENTITY st20 "font-size:6px;font-family:'MS-PGothic','MS PGothic';adobe-font-script:japanese;">
	<!ENTITY st21 "font-size:7px;font-family:'MS-PGothic','MS PGothic';adobe-font-script:japanese;">
	<!ATTLIST svg
		xmlns:ewd CDATA #FIXED "http://shcl.co.jp/ewd"
		xmlns:a CDATA #FIXED "http://ns.adobe.com/AdobeSVGViewerExtensions/3.0/"
		ewd:ver CDATA #IMPLIED
	>
	<!ATTLIST a
		ewd:lineID CDATA #IMPLIED
		ewd:groupID CDATA #IMPLIED
		ewd:figtype CDATA #IMPLIED
		ewd:code CDATA #IMPLIED
		ewd:figID CDATA #IMPLIED
		ewd:pinNo CDATA #IMPLIED
		ewd:comment CDATA #IMPLIED >
	<!ATTLIST g
		ewd:lineID CDATA #IMPLIED
		ewd:groupID CDATA #IMPLIED
		ewd:figtype CDATA #IMPLIED
		ewd:code CDATA #IMPLIED
		ewd:figID CDATA #IMPLIED
		ewd:pinNo CDATA #IMPLIED
		ewd:comment CDATA #IMPLIED >
	<!ATTLIST text
		ewd:textID CDATA #IMPLIED >
	<!ATTLIST title
		ewd:textID CDATA #IMPLIED >
]>
<!-- Generator: Shintec Hozumi YS   -->
<svg onload="call_execInitLoadProc_svg('system')" style="overflow:visible;  enable-background:new 0 0 1531.013 710.000" viewBox="0 0 1531.013 710.000" height="710.000" width="1531.013" xml:space="preserve" ewd:ver="2.3.1.16" xmlns="&ns_svg;" xmlns:a="http://ns.adobe.com/AdobeSVGViewerExtensions/3.0/" xmlns:ewd="http://shcl.co.jp/ewd" xmlns:xlink="&ns_xlink;">
<path style="stroke-width: 1.42 ;&st7;  " d=" M  1198.30,   129.26  L  1189.80,   129.26  " /><path style="stroke-width: 1.42 ;&st7;  " d=" M  1461.76,   197.25  L  1453.26,   197.25  " /><path style="stroke-width: 1.42 ;&st7;  " d=" M  1257.79,   435.21  L  1266.29,   435.21  " /><path style="stroke-width: 1.42 ;&st7;  " d=" M  1359.77,   605.18  L  1351.27,   605.18  " /><path style="stroke-width: 1.42 ;&st7;  " d=" M  1393.77,   596.69  L  1402.27,   596.69  " /><path style="stroke-width: 1.42 ;&st7;  " d=" M  1130.31,   120.77  L  1138.81,   120.77  " /><text style="&st18;" transform="matrix(&st16;  1056.92  635.48 )">B-R</text><text style="&st18;" transform="matrix(&st16;  1005.92  635.48 )">B-R</text><text style="&st18;" transform="matrix(&st17;  1186.11  176.43 )">B-Y</text><text style="&st18;" transform="matrix(&st17;  1449.56  220.42 )">R</text><text style="&st18;" transform="matrix(&st17;  1449.56  122.69 )">R</text><text style="&st18;" transform="matrix(&st17;  1373.07  167.93 )">B-Y</text><text style="&st18;" transform="matrix(&st17;  1262.59  422.15 )">BR</text><text style="&st18;" transform="matrix(&st17;  1186.11  440.12 )">B-R</text><text style="&st18;" transform="matrix(&st17;  1409.9  630.99 )">(*1)</text><text style="&st18;" transform="matrix(&st17;  1398.57  630.37 )">BR</text><text style="&st18;" transform="matrix(&st17;  1409.9  584.25 )">(*1)</text><text style="&st18;" transform="matrix(&st17;  1398.57  583.63 )">BR</text><text style="&st18;" transform="matrix(&st17;  1347.58  583.63 )">BR</text><text style="&st18;" transform="matrix(&st17;  1358.91  584.25 )">(*2)</text><text style="&st18;" transform="matrix(&st17;  1347.58  630.37 )">BR</text><text style="&st18;" transform="matrix(&st17;  1358.91  630.99 )">(*2)</text><text style="&st18;" transform="matrix(&st17;  1347.58  672.86 )">BR</text><text style="&st18;" transform="matrix(&st17;  1358.91  673.48 )">(*2)</text><text style="&st18;" transform="matrix(&st17;  1347.58  485.89 )">BR</text><text style="&st18;" transform="matrix(&st17;  1449.56  165.18 )">R</text><text style="&st18;" transform="matrix(&st16;  1287.35  465.51 )">BR</text><text style="&st18;" transform="matrix(&st17;  1197.44  445.12 )">(*5 *14)</text><text style="&st18;" transform="matrix(&st16;  1000.92  646.81 )">(*5 *14)</text><text style="&st18;" transform="matrix(&st16;  1051.91  646.81 )">(*5 *14)</text><text style="&st18;" transform="matrix(&st17;  1135.11  176.43 )">B-Y</text><text style="&st18;" transform="matrix(&st17;  1146.45  185.35 )">(RHD *14)</text><text style="&st18;" transform="matrix(&st17;  1197.44  184.81 )">(LHD *14)</text><path style="stroke-width: 1.42 ;&st7;  " d=" M  1461.76,   134.24  L  1456.78,   129.26  " /><path style="stroke-width: 1.42 ;&st7;  " d=" M  1444.76,   141.29  L  1449.73,   146.26  " /><path style="stroke-width: 1.42 ;&st7;  " d=" M  1456.78,   146.26  L  1461.76,   141.29  " /><path style="stroke-width: 1.42 ;&st7;  " d=" M  1449.73,   129.26  L  1444.76,   134.24  " /><path style="stroke-width: 1.42 ;&st7;  " d=" M  1325.78,   465.68  L  1320.81,   460.71  " /><path style="stroke-width: 1.42 ;&st7;  " d=" M  1308.78,   472.74  L  1313.75,   477.71  " /><path style="stroke-width: 1.42 ;&st7;  " d=" M  1320.81,   477.71  L  1325.78,   472.74  " /><path style="stroke-width: 1.42 ;&st7;  " d=" M  1313.75,   460.71  L  1308.78,   465.68  " /><path style="stroke-width: 1.42 ;&st7;  " d=" M  1359.77,   644.15  L  1354.80,   639.18  " /><path style="stroke-width: 1.42 ;&st7;  " d=" M  1342.78,   651.21  L  1347.74,   656.18  " /><path style="stroke-width: 1.42 ;&st7;  " d=" M  1354.80,   656.18  L  1359.77,   651.21  " /><path style="stroke-width: 1.42 ;&st7;  " d=" M  1347.74,   639.18  L  1342.78,   644.15  " /><path style="stroke-width: 1.42 ;&st7;  " d=" M  1342.78,   511.70  L  1351.27,   511.70  " /><text style="&st18;" transform="matrix(&st17;  1358.91  491.86 )">(*1,*13)</text><text style="&st18;" transform="matrix(&st16;  1281.38  476.84 )">(*1,*13)</text><text style="&st18;" transform="matrix(&st16;  1287.35  491.01 )">BR</text><text style="&st18;" transform="matrix(&st16;  1277.69  502.34 )">(*9 *2 *10)</text><text style="&st18;" transform="matrix(&st16;  1008.91  609.99 )">R</text><text style="&st18;" transform="matrix(&st16;  1000.92  621.32 )">(*5 *15)</text><text style="&st18;" transform="matrix(&st16;  1059.9  609.99 )">R</text><text style="&st18;" transform="matrix(&st16;  1051.91  621.32 )">(*5 *15)</text><text style="&st18;" transform="matrix(&st17;  1171.94  445.12 )">(*5 *15)</text><text style="&st18;" transform="matrix(&st17;  1160.61  437.13 )">R</text><text style="&st18;" transform="matrix(&st17;  1211.6  173.52 )">V</text><text style="&st18;" transform="matrix(&st17;  1222.93  184.81 )">(LHD *15)</text><text style="&st18;" transform="matrix(&st17;  1109.62  173.52 )">V</text><text style="&st18;" transform="matrix(&st17;  1120.95  185.35 )">(RHD *15)</text><text style="&st18;" transform="matrix(&st17;  1384.41  169.48 )">(*16)</text><text style="&st18;" transform="matrix(&st17;  1398.57  165.02 )">V</text><text style="&st18;" transform="matrix(&st17;  1409.9  169.48 )">(*17)</text><text style="&st18;" transform="matrix(&st16;  1230.78  74.58 )">B-Y(LHD *16)</text><text style="&st18;" transform="matrix(&st16;  1230.27  57.58 )">B-Y(RHD *16)</text><text style="&st18;" transform="matrix(&st16;  1233.73  100.07 )">V(LHD *17)</text><text style="&st18;" transform="matrix(&st16;  1233.18  40.58 )">V(RHD *17)</text><g ewd:code="I72,I106,I118" ewd:figID="1" ewd:comment="6,7" ewd:figtype="conn"><path style="stroke-width: 1.42 ;&st7;  " d=" M  1291.78,   154.76  L  1308.78,   154.76  L  1308.78,   171.76  L  1291.78,   171.76  L  1291.78,   154.76  " /><path style="stroke-width: 0.85 ;&st7;  " d=" M  1300.28,   154.76  L  1300.28,   171.76  " /><text style="&st18;" transform="matrix(&st16;  1290.8  152.2 )">5</text><text style="&st18;" transform="matrix(&st16;  1290.8  134.07 )">2</text><text style="&st18;" transform="matrix(&st16;  1290.8  143.13 )">2</text><text style="&st18;" transform="matrix(&st16;  1298.02  143.13 )">B</text><path style="stroke-width: 1.42 ;&st7;   " d=" M  1304.82,   132.10  C  1304.82    129.59   1302.79    127.56   1300.28    127.56  " /><path style="stroke-width: 1.42 ;&st7;   " d=" M  1300.28,   127.56  C  1297.78    127.56   1295.75    129.59   1295.75    132.10  " /><path style="stroke-width: 1.42 ;&st7;   " d=" M  1295.75,   132.10  C  1295.75    134.60   1297.78    136.63   1300.28    136.63  " /><path style="stroke-width: 1.42 ;&st7;   " d=" M  1300.28,   136.63  C  1302.79    136.63   1304.82    134.60   1304.82    132.10  " /><path style="stroke-width: 1.42 ;&st7;   " d=" M  1304.82,   141.16  C  1304.82    138.66   1302.79    136.63   1300.28    136.63  " /><path style="stroke-width: 1.42 ;&st7;   " d=" M  1300.28,   136.63  C  1297.78    136.63   1295.75    138.66   1295.75    141.16  " /><path style="stroke-width: 1.42 ;&st7;   " d=" M  1295.75,   141.16  C  1295.75    143.66   1297.78    145.69   1300.28    145.69  " /><path style="stroke-width: 1.42 ;&st7;   " d=" M  1300.28,   145.69  C  1302.79    145.69   1304.82    143.66   1304.82    141.16  " /><path style="stroke-width: 1.42 ;&st7;   " d=" M  1304.82,   150.23  C  1304.82    147.72   1302.79    145.69   1300.28    145.69  " /><path style="stroke-width: 1.42 ;&st7;   " d=" M  1300.28,   145.69  C  1297.78    145.69   1295.75    147.72   1295.75    150.23  " /><path style="stroke-width: 1.42 ;&st7;   " d=" M  1295.75,   150.23  C  1295.75    152.73   1297.78    154.76   1300.28    154.76  " /><path style="stroke-width: 1.42 ;&st7;   " d=" M  1300.28,   154.76  C  1302.79    154.76   1304.82    152.73   1304.82    150.23  " /><text style="&st18;" transform="matrix(&st16;  1298.02  134.07 )">A</text><text style="&st18;" transform="matrix(&st16;  1297.86  152.2 )">C</text><text style="&st18;" transform="matrix(&st16;  1290.8  178.26 )">1</text><text style="&st18;" transform="matrix(&st16;  1290.8  196.39 )">4</text><text style="&st18;" transform="matrix(&st16;  1290.8  187.32 )">1</text><path style="stroke-width: 1.42 ;&st7;   " d=" M  1304.82,   194.42  C  1304.82    191.92   1302.79    189.89   1300.28    189.89  " /><path style="stroke-width: 1.42 ;&st7;   " d=" M  1300.28,   189.89  C  1297.78    189.89   1295.75    191.92   1295.75    194.42  " /><path style="stroke-width: 1.42 ;&st7;   " d=" M  1295.75,   194.42  C  1295.75    196.92   1297.78    198.95   1300.28    198.95  " /><path style="stroke-width: 1.42 ;&st7;   " d=" M  1300.28,   198.95  C  1302.79    198.95   1304.82    196.92   1304.82    194.42  " /><path style="stroke-width: 1.42 ;&st7;   " d=" M  1304.82,   185.35  C  1304.82    182.85   1302.79    180.82   1300.28    180.82  " /><path style="stroke-width: 1.42 ;&st7;   " d=" M  1300.28,   180.82  C  1297.78    180.82   1295.75    182.85   1295.75    185.35  " /><path style="stroke-width: 1.42 ;&st7;   " d=" M  1295.75,   185.35  C  1295.75    187.86   1297.78    189.89   1300.28    189.89  " /><path style="stroke-width: 1.42 ;&st7;   " d=" M  1300.28,   189.89  C  1302.79    189.89   1304.82    187.86   1304.82    185.35  " /><text style="&st18;" transform="matrix(&st16;  1297.86  196.39 )">C</text><path style="stroke-width: 1.42 ;&st7;   " d=" M  1304.82,   176.29  C  1304.82    173.79   1302.79    171.76   1300.28    171.76  " /><path style="stroke-width: 1.42 ;&st7;   " d=" M  1300.28,   171.76  C  1297.78    171.76   1295.75    173.79   1295.75    176.29  " /><path style="stroke-width: 1.42 ;&st7;   " d=" M  1295.75,   176.29  C  1295.75    178.79   1297.78    180.82   1300.28    180.82  " /><path style="stroke-width: 1.42 ;&st7;   " d=" M  1300.28,   180.82  C  1302.79    180.82   1304.82    178.79   1304.82    176.29  " /><text style="&st18;" transform="matrix(&st16;  1298.02  187.32 )">B</text><text style="&st18;" transform="matrix(&st16;  1298.02  178.26 )">A</text><g ewd:figtype="title"><text style="&st18;" transform="matrix(&st17;  1282.14  174.66 )" ewd:textID="29">No. 36 Junction <tspan x="0 " dy="6.0">Connector</tspan></text><text style="&st18;" transform="matrix(&st17;  1275.32  174.66 )">I118(C)</text><text style="&st18;" transform="matrix(&st17;  1262.03  174.66 )" ewd:textID="21">No. 9 Junction <tspan x="0 " dy="6.0">Connector</tspan></text><text style="&st18;" transform="matrix(&st17;  1255.2  174.66 )">I106(B)</text><text style="&st18;" transform="matrix(&st17;  1241.91  174.66 )" ewd:textID="25">No. 21 Junction <tspan x="0 " dy="6.0">Connector</tspan></text><text style="&st18;" transform="matrix(&st17;  1235.09  174.66 )">I72(A)</text></g><g ewd:code="" ewd:figID="68" ewd:comment="" ewd:figtype="commref"><text style="&st18;" transform="matrix(&st16;  1305.38  143.13 )">(RHD)</text></g><g ewd:code="" ewd:figID="69" ewd:comment="" ewd:figtype="commref"><text style="&st18;" transform="matrix(&st16;  1305.38  187.32 )">(RHD)</text></g><g ewd:code="" ewd:figID="70" ewd:comment="7" ewd:figtype="commref"><text style="&st18;" transform="matrix(&st16;  1305.38  178.26 )">(LHD *7)</text></g><g ewd:code="" ewd:figID="71" ewd:comment="6" ewd:figtype="commref"><text style="&st18;" transform="matrix(&st16;  1305.38  152.2 )">(LHD *6)</text></g><g ewd:code="" ewd:figID="93" ewd:comment="7" ewd:figtype="commref"><text style="&st18;" transform="matrix(&st16;  1305.38  134.07 )">(LHD *7)</text></g><g ewd:code="" ewd:figID="94" ewd:comment="6" ewd:figtype="commref"><text style="&st18;" transform="matrix(&st16;  1305.38  196.39 )">(LHD *6)</text></g></g><g ewd:figtype="rb" ewd:figID="3" ewd:code="FUSE18"><path style="stroke-width: 1.42 ;&st7;  " d=" M  1378.89,    95.27  L  1374.65,    95.27  " /><path style="stroke-width: 1.42 ;&st7;  " d=" M  1378.89,   103.77  L  1374.65,   103.77  " /><path style="stroke-width: 0.85 ;&st7;  " d=" M  1376.77,    78.27  L  1376.77,    95.27  " /><path style="stroke-width: 1.42 ;&st7;   " d=" M  1374.65,    95.27  C  1372.30     95.27   1370.40     97.17   1370.40     99.52  " /><path style="stroke-width: 1.42 ;&st7;   " d=" M  1370.40,    99.52  C  1370.40    101.87   1372.30    103.77   1374.65    103.77  " /><path style="stroke-width: 1.42 ;&st7;   " d=" M  1378.89,   103.77  C  1381.24    103.77   1383.14    101.87   1383.14     99.52  " /><path style="stroke-width: 1.42 ;&st7;   " d=" M  1383.14,    99.52  C  1383.14     97.17   1381.24     95.27   1378.89     95.27  " /><path style="stroke-width: 0.28 ;&st9;  " d=" M  1376.77,    90.37  L  1373.94,    87.54  L  1373.94,    91.79  L  1376.77,    94.62  L  1379.60,    91.79  L  1379.60,    87.54  L  1376.77,    90.37  " /><text style="&st18;" transform="matrix(&st16;  1393.19  56.17 )">10A <tspan x="0 " dy="6.0">MET</tspan></text><text style="&st18;" transform="matrix(&st16;  1374.89  101.49 )">2</text><text style="&st18;" transform="matrix(&st16;  1370.43  86.47 )">2</text><text style="&st18;" transform="matrix(&st16;  1371.4  32.08 )">(IG)</text><path style="stroke-width: 0.85 ;&st7;  " d=" M  1376.77,    69.77  L  1376.77,    78.27  " /><path style="stroke-width: 1.42 ;&st7;   " d=" M  1376.77,    47.11  C  1374.03     48.72   1373.12     52.25   1374.73     54.99  " /><path style="stroke-width: 1.42 ;&st7;   " d=" M  1374.73,    54.99  C  1375.25     55.87   1375.89     56.51   1376.77     57.03  " /><path style="stroke-width: 1.42 ;&st7;   " d=" M  1376.77,    66.94  C  1379.51     65.33   1380.42     61.80   1378.81     59.06  " /><path style="stroke-width: 1.42 ;&st7;   " d=" M  1378.81,    59.06  C  1378.29     58.18   1377.65     57.55   1376.77     57.03  " /><path style="stroke-width: 0.85 ;&st7;   " d=" M  1378.19,    45.69  C  1378.19     44.91   1377.55     44.28   1376.77     44.28  " /><path style="stroke-width: 0.85 ;&st7;   " d=" M  1376.77,    44.28  C  1375.99     44.28   1375.35     44.91   1375.35     45.69  " /><path style="stroke-width: 0.85 ;&st7;   " d=" M  1375.35,    45.69  C  1375.35     46.48   1375.99     47.11   1376.77     47.11  " /><path style="stroke-width: 0.85 ;&st7;   " d=" M  1376.77,    47.11  C  1377.55     47.11   1378.19     46.48   1378.19     45.69  " /><path style="stroke-width: 0.85 ;&st7;   " d=" M  1378.19,    68.36  C  1378.19     67.57   1377.55     66.94   1376.77     66.94  " /><path style="stroke-width: 0.85 ;&st7;   " d=" M  1376.77,    66.94  C  1375.99     66.94   1375.35     67.57   1375.35     68.36  " /><path style="stroke-width: 0.85 ;&st7;   " d=" M  1375.35,    68.36  C  1375.35     69.14   1375.99     69.77   1376.77     69.77  " /><path style="stroke-width: 0.85 ;&st7;   " d=" M  1376.77,    69.77  C  1377.55     69.77   1378.19     69.14   1378.19     68.36  " /><path style="stroke-width: 1.42 ;&st7;  " d=" M  1364.02,    35.78  L  1364.02,    78.27  L  1389.52,    78.27  L  1389.52,    35.78  L  1364.02,    35.78  " /></g><g ewd:figtype="rb" ewd:figID="4" ewd:code="FUSE5"><path style="stroke-width: 1.42 ;&st7;  " d=" M  1455.38,    95.27  L  1451.13,    95.27  " /><path style="stroke-width: 1.42 ;&st7;  " d=" M  1455.38,   103.77  L  1451.13,   103.77  " /><path style="stroke-width: 0.85 ;&st7;  " d=" M  1453.26,    78.27  L  1453.26,    95.27  " /><path style="stroke-width: 1.42 ;&st7;   " d=" M  1451.13,    95.27  C  1448.79     95.27   1446.88     97.17   1446.88     99.52  " /><path style="stroke-width: 1.42 ;&st7;   " d=" M  1446.88,    99.52  C  1446.88    101.87   1448.79    103.77   1451.13    103.77  " /><path style="stroke-width: 1.42 ;&st7;   " d=" M  1455.38,   103.77  C  1457.73    103.77   1459.63    101.87   1459.63     99.52  " /><path style="stroke-width: 1.42 ;&st7;   " d=" M  1459.63,    99.52  C  1459.63     97.17   1457.73     95.27   1455.38     95.27  " /><path style="stroke-width: 0.28 ;&st9;  " d=" M  1453.26,    90.37  L  1450.42,    87.54  L  1450.42,    91.79  L  1453.26,    94.62  L  1456.09,    91.79  L  1456.09,    87.54  L  1453.26,    90.37  " /><text style="&st18;" transform="matrix(&st16;  1469.68  53.34 )">10A <tspan x="0 " dy="6.0">DOME </tspan><tspan x="0 " dy="6.0">NO.1</tspan></text><text style="&st18;" transform="matrix(&st16;  1451.38  101.49 )">2</text><text style="&st18;" transform="matrix(&st16;  1446.92  86.47 )">2</text><text style="&st18;" transform="matrix(&st16;  1445.18  32.08 )">(BAT)</text><path style="stroke-width: 0.85 ;&st7;  " d=" M  1453.26,    69.77  L  1453.26,    78.27  " /><path style="stroke-width: 1.42 ;&st7;   " d=" M  1453.26,    47.11  C  1450.52     48.72   1449.61     52.25   1451.22     54.99  " /><path style="stroke-width: 1.42 ;&st7;   " d=" M  1451.22,    54.99  C  1451.74     55.87   1452.38     56.51   1453.26     57.03  " /><path style="stroke-width: 1.42 ;&st7;   " d=" M  1453.26,    66.94  C  1456.00     65.33   1456.91     61.80   1455.29     59.06  " /><path style="stroke-width: 1.42 ;&st7;   " d=" M  1455.29,    59.06  C  1454.77     58.18   1454.14     57.55   1453.26     57.03  " /><path style="stroke-width: 0.85 ;&st7;   " d=" M  1454.67,    45.69  C  1454.67     44.91   1454.04     44.28   1453.26     44.28  " /><path style="stroke-width: 0.85 ;&st7;   " d=" M  1453.26,    44.28  C  1452.47     44.28   1451.84     44.91   1451.84     45.69  " /><path style="stroke-width: 0.85 ;&st7;   " d=" M  1451.84,    45.69  C  1451.84     46.48   1452.47     47.11   1453.26     47.11  " /><path style="stroke-width: 0.85 ;&st7;   " d=" M  1453.26,    47.11  C  1454.04     47.11   1454.67     46.48   1454.67     45.69  " /><path style="stroke-width: 0.85 ;&st7;   " d=" M  1454.67,    68.36  C  1454.67     67.57   1454.04     66.94   1453.26     66.94  " /><path style="stroke-width: 0.85 ;&st7;   " d=" M  1453.26,    66.94  C  1452.47     66.94   1451.84     67.57   1451.84     68.36  " /><path style="stroke-width: 0.85 ;&st7;   " d=" M  1451.84,    68.36  C  1451.84     69.14   1452.47     69.77   1453.26     69.77  " /><path style="stroke-width: 0.85 ;&st7;   " d=" M  1453.26,    69.77  C  1454.04     69.77   1454.67     69.14   1454.67     68.36  " /><path style="stroke-width: 1.42 ;&st7;  " d=" M  1440.51,    35.78  L  1440.51,    78.27  L  1466.00,    78.27  L  1466.00,    35.78  L  1440.51,    35.78  " /></g><g ewd:figtype="conn" ewd:figID="13" ewd:code="L25,L26"><path style="stroke-width: 0.85 ;&st7;  " d=" M  1194.05,   375.72  L  1185.55,   375.72  " /><path style="stroke-width: 0.85 ;&st7;  " d=" M  1215.30,   333.23  L  1215.30,   322.61  " /><path style="stroke-width: 0.85 ;&st7;  " d=" M  1215.30,   318.36  L  1215.30,   299.24  " /><path style="stroke-width: 1.42 ;&st7;  " d=" M  1219.55,   318.36  L  1211.05,   318.36  " /><path style="stroke-width: 1.42 ;&st7;  " d=" M  1219.55,   322.61  L  1211.05,   322.61  " /><path style="stroke-width: 0.85 ;&st7;  " d=" M  1197.18,   322.78  L  1204.54,   318.54  " /><path style="stroke-width: 0.85 ;&st7;  " d=" M  1202.53,   315.07  L  1195.17,   319.32  " /><path style="stroke-width: 0.85 ;&st7;  " d=" M  1194.05,   324.73  L  1185.55,   324.73  " /><path style="stroke-width: 0.85 ;&st7;  " d=" M  1359.77,   277.99  L  1359.77,   286.49  " /><path style="stroke-width: 0.85 ;&st7;  " d=" M  1393.77,   286.49  L  1393.77,   277.99  " /><path style="stroke-width: 0.85 ;&st7;  " d=" M  1194.05,   265.24  L  1185.55,   265.24  " /><path style="stroke-width: 1.42 ;&st7;  " d=" M  1155.81,   239.75  L  1155.81,   392.72  L  1470.25,   392.72  L  1470.25,   239.75  L  1155.81,   239.75  " /><path style="stroke-width: 0.85 ;&st7;  " d=" M  1214.10,   332.23  L  1213.83,   332.70  L  1213.74,   333.23  L  1213.83,   333.76  L  1214.10,   334.23  L  1214.52,   334.58  L  1215.02,   334.77  L  1215.57,   334.77  L  1216.08,   334.58  L  1216.49,   334.23  L  1216.76,   333.76  L  1216.85,   333.23  L  1216.76,   332.70  L  1216.49,   332.23  L  1216.08,   331.88  L  1215.57,   331.69  L  1215.02,   331.69  L  1214.52,   331.88  L  1214.10,   332.23  L  1214.50,   332.94  L  1214.50,   333.52  L  1214.87,   333.97  L  1215.44,   334.07  L  1215.95,   333.78  L  1216.15,   333.23  L  1215.95,   332.68  L  1215.44,   332.39  L  1214.87,   332.49  L  1215.30,   333.23  " /><path style="stroke-width: 0.85 ;&st7;  " d=" M  1189.80,   282.24  L  1453.26,   282.24  L  1453.26,   239.75  " /><path style="stroke-width: 0.85 ;&st7;  " d=" M  1189.80,   333.23  L  1232.29,   333.23  " /><path style="stroke-width: 0.85 ;&st7;  " d=" M  1188.61,   332.23  L  1188.34,   332.70  L  1188.24,   333.23  L  1188.34,   333.76  L  1188.61,   334.23  L  1189.02,   334.58  L  1189.53,   334.77  L  1190.07,   334.77  L  1190.58,   334.58  L  1190.99,   334.23  L  1191.27,   333.76  L  1191.36,   333.23  L  1191.27,   332.70  L  1190.99,   332.23  L  1190.58,   331.88  L  1190.07,   331.69  L  1189.53,   331.69  L  1189.02,   331.88  L  1188.61,   332.23  L  1189.00,   332.94  L  1189.00,   333.52  L  1189.38,   333.97  L  1189.95,   334.07  L  1190.45,   333.78  L  1190.65,   333.23  L  1190.45,   332.68  L  1189.95,   332.39  L  1189.38,   332.49  L  1189.80,   333.23  " /><path style="stroke-width: 0.85 ;&st7;  " d=" M  1188.61,   298.23  L  1188.34,   298.70  L  1188.24,   299.24  L  1188.34,   299.77  L  1188.61,   300.24  L  1189.02,   300.58  L  1189.53,   300.77  L  1190.07,   300.77  L  1190.58,   300.58  L  1190.99,   300.24  L  1191.27,   299.77  L  1191.36,   299.24  L  1191.27,   298.70  L  1190.99,   298.23  L  1190.58,   297.89  L  1190.07,   297.70  L  1189.53,   297.70  L  1189.02,   297.89  L  1188.61,   298.23  L  1189.00,   298.94  L  1189.00,   299.53  L  1189.38,   299.97  L  1189.95,   300.07  L  1190.45,   299.78  L  1190.65,   299.24  L  1190.45,   298.69  L  1189.95,   298.40  L  1189.38,   298.50  L  1189.80,   299.24  " /><path style="stroke-width: 0.85 ;&st7;  " d=" M  1214.10,   298.23  L  1213.83,   298.70  L  1213.74,   299.24  L  1213.83,   299.77  L  1214.10,   300.24  L  1214.52,   300.58  L  1215.02,   300.77  L  1215.57,   300.77  L  1216.08,   300.58  L  1216.49,   300.24  L  1216.76,   299.77  L  1216.85,   299.24  L  1216.76,   298.70  L  1216.49,   298.23  L  1216.08,   297.89  L  1215.57,   297.70  L  1215.02,   297.70  L  1214.52,   297.89  L  1214.10,   298.23  L  1214.50,   298.94  L  1214.50,   299.53  L  1214.87,   299.97  L  1215.44,   300.07  L  1215.95,   299.78  L  1216.15,   299.24  L  1215.95,   298.69  L  1215.44,   298.40  L  1214.87,   298.50  L  1215.30,   299.24  " /><path style="stroke-width: 0.28 ;&st9;  " d=" M  1189.80,   375.72  L  1184.13,   367.22  L  1195.47,   367.22  L  1189.80,   375.72  " /><path style="stroke-width: 0.85 ;&st7;  " d=" M  1189.80,   392.72  L  1189.80,   358.73  L  1186.97,   357.31  L  1192.63,   354.48  L  1186.97,   351.64  L  1192.63,   348.81  L  1186.97,   345.98  L  1192.63,   343.14  L  1189.80,   341.73  L  1189.80,   282.24  " /><path style="stroke-width: 0.85 ;&st7;  " d=" M  1232.29,   333.23  L  1232.29,   324.73  L  1229.46,   323.31  L  1235.13,   320.48  L  1229.46,   317.65  L  1235.13,   314.82  L  1229.46,   311.98  L  1235.13,   309.15  L  1232.29,   307.73  L  1232.29,   299.24  L  1189.80,   299.24  " /><path style="stroke-width: 0.85 ;&st7;  " d=" M  1204.54,   318.54  L  1202.20,   321.58  L  1200.74,   319.04  L  1204.54,   318.54  L  1203.25,   319.28  L  1202.27,   320.56  L  1201.65,   319.49  L  1203.25,   319.28  L  1202.61,   319.65  L  1202.30,   320.05  L  1202.11,   319.71  L  1202.61,   319.65  " /><path style="stroke-width: 0.85 ;&st7;  " d=" M  1202.53,   315.07  L  1200.20,   318.11  L  1198.73,   315.57  L  1202.53,   315.07  L  1201.25,   315.81  L  1200.27,   317.09  L  1199.65,   316.02  L  1201.25,   315.81  L  1200.61,   316.18  L  1200.30,   316.58  L  1200.10,   316.24  L  1200.61,   316.18  " /><path style="stroke-width: 0.28 ;&st9;  " d=" M  1189.80,   324.73  L  1184.13,   316.23  L  1195.47,   316.23  L  1189.80,   324.73  " /><path style="stroke-width: 0.85 ;&st7;  " d=" M  1188.61,   281.24  L  1188.34,   281.71  L  1188.24,   282.24  L  1188.34,   282.77  L  1188.61,   283.24  L  1189.02,   283.59  L  1189.53,   283.77  L  1190.07,   283.77  L  1190.58,   283.59  L  1190.99,   283.24  L  1191.27,   282.77  L  1191.36,   282.24  L  1191.27,   281.71  L  1190.99,   281.24  L  1190.58,   280.89  L  1190.07,   280.70  L  1189.53,   280.70  L  1189.02,   280.89  L  1188.61,   281.24  L  1189.00,   281.95  L  1189.00,   282.53  L  1189.38,   282.97  L  1189.95,   283.07  L  1190.45,   282.79  L  1190.65,   282.24  L  1190.45,   281.69  L  1189.95,   281.40  L  1189.38,   281.50  L  1189.80,   282.24  " /><path style="stroke-width: 0.85 ;&st7;  " d=" M  1375.58,   281.24  L  1375.30,   281.71  L  1375.21,   282.24  L  1375.30,   282.77  L  1375.58,   283.24  L  1375.99,   283.59  L  1376.50,   283.77  L  1377.04,   283.77  L  1377.55,   283.59  L  1377.96,   283.24  L  1378.23,   282.77  L  1378.33,   282.24  L  1378.23,   281.71  L  1377.96,   281.24  L  1377.55,   280.89  L  1377.04,   280.70  L  1376.50,   280.70  L  1375.99,   280.89  L  1375.58,   281.24  L  1375.97,   281.95  L  1375.97,   282.53  L  1376.34,   282.97  L  1376.92,   283.07  L  1377.42,   282.79  L  1377.62,   282.24  L  1377.42,   281.69  L  1376.92,   281.40  L  1376.34,   281.50  L  1376.77,   282.24  " /><path style="stroke-width: 1.42 ;&st7;  " d=" M  1359.77,   307.73  L  1359.77,   324.73  L  1393.77,   324.73  L  1393.77,   307.73  L  1359.77,   307.73  " /><path style="stroke-width: 0.85 ;&st7;  " d=" M  1376.77,   282.24  L  1376.77,   307.73  " /><path style="stroke-width: 0.85 ;&st7;  " d=" M  1189.80,   239.75  L  1189.80,   282.24  " /><path style="stroke-width: 0.28 ;&st9;  " d=" M  1359.77,   282.24  L  1351.27,   287.90  L  1351.27,   276.57  L  1359.77,   282.24  " /><path style="stroke-width: 0.28 ;&st9;  " d=" M  1393.77,   282.24  L  1402.27,   276.57  L  1402.27,   287.90  L  1393.77,   282.24  " /><path style="stroke-width: 0.28 ;&st9;  " d=" M  1189.80,   265.24  L  1184.13,   256.74  L  1195.47,   256.74  L  1189.80,   265.24  " /><text style="&st18;" transform="matrix(&st16;  1192.38  389.03 )">IND</text><text style="&st18;" transform="matrix(&st16;  1192.38  247.94 )">B</text><text style="&st18;" transform="matrix(&st16;  1455.84  247.94 )">B</text><text style="&st18;" transform="matrix(&st16;  1262.01  389.02 )">ES</text><text style="&st18;" transform="matrix(&st17;  1182.14  333.11 )" ewd:textID="31">Sub Tank</text><text style="&st18;" transform="matrix(&st16;  1370.16  318.2 )">CPU</text><text style="&st18;" transform="matrix(&st16;  1180.32  399.22 )">8</text><text style="&st18;" transform="matrix(&st16;  1187.54  399.22 )">B</text><path style="stroke-width: 1.42 ;&st7;   " d=" M  1194.33,   397.25  C  1194.33    394.75   1192.30    392.72   1189.80    392.72  " /><path style="stroke-width: 1.42 ;&st7;   " d=" M  1189.80,   392.72  C  1187.30    392.72   1185.27    394.75   1185.27    397.25  " /><path style="stroke-width: 1.42 ;&st7;   " d=" M  1185.27,   397.25  C  1185.27    399.76   1187.30    401.78   1189.80    401.78  " /><path style="stroke-width: 1.42 ;&st7;   " d=" M  1189.80,   401.78  C  1192.30    401.78   1194.33    399.76   1194.33    397.25  " /><text style="&st18;" transform="matrix(&st16;  1176.99  237.18 )">28</text><text style="&st18;" transform="matrix(&st16;  1187.54  237.18 )">A</text><path style="stroke-width: 1.42 ;&st7;   " d=" M  1194.33,   235.21  C  1194.33    232.71   1192.30    230.68   1189.80    230.68  " /><path style="stroke-width: 1.42 ;&st7;   " d=" M  1189.80,   230.68  C  1187.30    230.68   1185.27    232.71   1185.27    235.21  " /><path style="stroke-width: 1.42 ;&st7;   " d=" M  1185.27,   235.21  C  1185.27    237.72   1187.30    239.75   1189.80    239.75  " /><path style="stroke-width: 1.42 ;&st7;   " d=" M  1189.80,   239.75  C  1192.30    239.75   1194.33    237.72   1194.33    235.21  " /><text style="&st18;" transform="matrix(&st16;  1253.47  399.22 )">15</text><text style="&st18;" transform="matrix(&st16;  1264.02  399.22 )">A</text><path style="stroke-width: 1.42 ;&st7;   " d=" M  1270.82,   397.25  C  1270.82    394.75   1268.79    392.72   1266.29    392.72  " /><path style="stroke-width: 1.42 ;&st7;   " d=" M  1266.29,   392.72  C  1263.79    392.72   1261.76    394.75   1261.76    397.25  " /><path style="stroke-width: 1.42 ;&st7;   " d=" M  1261.76,   397.25  C  1261.76    399.76   1263.79    401.78   1266.29    401.78  " /><path style="stroke-width: 1.42 ;&st7;   " d=" M  1266.29,   401.78  C  1268.79    401.78   1270.82    399.76   1270.82    397.25  " /><text style="&st18;" transform="matrix(&st16;  1440.44  237.18 )">26</text><path style="stroke-width: 1.42 ;&st7;   " d=" M  1457.79,   235.21  C  1457.79    232.71   1455.76    230.68   1453.26    230.68  " /><path style="stroke-width: 1.42 ;&st7;   " d=" M  1453.26,   230.68  C  1450.75    230.68   1448.72    232.71   1448.72    235.21  " /><path style="stroke-width: 1.42 ;&st7;   " d=" M  1448.72,   235.21  C  1448.72    237.72   1450.75    239.75   1453.26    239.75  " /><path style="stroke-width: 1.42 ;&st7;   " d=" M  1453.26,   239.75  C  1455.76    239.75   1457.79    237.72   1457.79    235.21  " /><text style="&st18;" transform="matrix(&st16;  1450.99  237.18 )">A</text><g ewd:figtype="title"><text style="&st18;" transform="matrix(&st17;  1484.97  395.63 )" ewd:textID="14">Combination Meter Assembly</text><text style="&st18;" transform="matrix(&st17;  1478.15  395.62 )">L25(A),L26(B)</text></g></g><g ewd:figtype="w2w" ewd:figID="31" ewd:code="LI1"><path style="stroke-width: 1.42 ;&st7;  " d=" M  1134.56,   111.70  L  1138.81,   115.95  L  1143.06,   111.70  " /><path style="stroke-width: 1.42 ;&st7;  " d=" M  1143.06,   115.10  L  1138.81,   119.35  L  1134.56,   115.10  " /><text style="&st18;" transform="matrix(&st16;  1122.06  126.98 )">18</text></g><g ewd:figtype="w2w" ewd:figID="32" ewd:code="IL2"><path style="stroke-width: 1.42 ;&st7;  " d=" M  1194.05,   138.33  L  1189.80,   134.08  L  1185.55,   138.33  " /><path style="stroke-width: 1.42 ;&st7;  " d=" M  1194.05,   134.93  L  1189.80,   130.68  L  1185.55,   134.93  " /><text style="&st18;" transform="matrix(&st16;  1173.05  126.98 )">22</text></g><g ewd:figtype="w2w" ewd:figID="33" ewd:code="IL6"><text style="&st18;" transform="matrix(&st16;  1249.54  449.93 )">14</text><g ewd:code="" ewd:figID="79" ewd:comment="" ewd:figtype="commref"><text style="&st18;" transform="matrix(&st16;  1275.32  449.93 )">(RHD)</text></g></g><g ewd:figtype="w2w" ewd:figID="34" ewd:code="IL2"><path style="stroke-width: 1.42 ;&st7;  " d=" M  1262.04,   426.15  L  1266.29,   430.40  L  1270.54,   426.15  " /><path style="stroke-width: 1.42 ;&st7;  " d=" M  1270.54,   429.55  L  1266.29,   433.80  L  1262.04,   429.55  " /><text style="&st18;" transform="matrix(&st16;  1252.87  441.43 )">4</text><g ewd:code="" ewd:figID="80" ewd:comment="" ewd:figtype="commref"><text style="&st18;" transform="matrix(&st16;  1275.32  441.43 )">(LHD)</text></g></g><g ewd:figtype="w2w" ewd:figID="35" ewd:code="AC1"><path style="stroke-width: 1.42 ;&st7;  " d=" M  1355.52,   614.25  L  1351.27,   610.00  L  1347.02,   614.25  " /><path style="stroke-width: 1.42 ;&st7;  " d=" M  1355.52,   610.85  L  1351.27,   606.60  L  1347.02,   610.85  " /><text style="&st18;" transform="matrix(&st16;  1337.86  602.9 )">1</text></g><g ewd:code="AI3" ewd:figID="36" ewd:comment="1" ewd:figtype="w2w"><text style="&st18;" transform="matrix(&st16;  1334.52  543.41 )">55</text><g ewd:code="" ewd:figID="92" ewd:comment="1" ewd:figtype="commref"><text style="&st18;" transform="matrix(&st16;  1360.3  543.41 )">(RHD *1)</text></g></g><g ewd:code="AI3" ewd:figID="37" ewd:comment="1" ewd:figtype="w2w"><text style="&st18;" transform="matrix(&st16;  1334.52  534.92 )">13</text><g ewd:code="" ewd:figID="91" ewd:comment="1" ewd:figtype="commref"><text style="&st18;" transform="matrix(&st16;  1360.3  534.92 )">(LHD *1)</text></g></g><g ewd:code="AI3" ewd:figID="38" ewd:comment="2" ewd:figtype="w2w"><text style="&st18;" transform="matrix(&st16;  1334.52  526.42 )">22</text><g ewd:code="" ewd:figID="89" ewd:comment="2" ewd:figtype="commref"><text style="&st18;" transform="matrix(&st16;  1360.3  526.42 )">(RHD *2)</text></g></g><g ewd:code="AI3" ewd:figID="39" ewd:comment="2" ewd:figtype="w2w"><path style="stroke-width: 1.42 ;&st7;  " d=" M  1355.52,   506.03  L  1351.27,   510.28  L  1347.02,   506.03  " /><path style="stroke-width: 1.42 ;&st7;  " d=" M  1347.02,   502.63  L  1351.27,   506.88  L  1355.52,   502.63  " /><text style="&st18;" transform="matrix(&st16;  1334.52  517.92 )">45</text><g ewd:code="" ewd:figID="90" ewd:comment="2" ewd:figtype="commref"><text style="&st18;" transform="matrix(&st16;  1360.3  517.92 )">(LHD *2)</text></g></g><g ewd:figtype="w2w" ewd:figID="40" ewd:code="CA4"><path style="stroke-width: 1.42 ;&st7;  " d=" M  1398.02,   587.62  L  1402.27,   591.87  L  1406.51,   587.62  " /><path style="stroke-width: 1.42 ;&st7;  " d=" M  1406.51,   591.02  L  1402.27,   595.27  L  1398.02,   591.02  " /><text style="&st18;" transform="matrix(&st16;  1385.51  602.9 )">17</text></g><g ewd:figtype="w2w" ewd:figID="41" ewd:code="IL6"><path style="stroke-width: 1.42 ;&st7;  " d=" M  1457.51,   206.32  L  1453.26,   202.07  L  1449.01,   206.32  " /><path style="stroke-width: 1.42 ;&st7;  " d=" M  1457.51,   202.92  L  1453.26,   198.67  L  1449.01,   202.92  " /><text style="&st18;" transform="matrix(&st16;  1439.84  194.97 )">8</text><g ewd:code="" ewd:figID="81" ewd:comment="" ewd:figtype="commref"><text style="&st18;" transform="matrix(&st16;  1462.29  194.97 )">(RHD)</text></g></g><g ewd:figtype="w2w" ewd:figID="42" ewd:code="IL2"><text style="&st18;" transform="matrix(&st16;  1439.84  186.47 )">2</text><g ewd:code="" ewd:figID="82" ewd:comment="" ewd:figtype="commref"><text style="&st18;" transform="matrix(&st16;  1462.29  186.47 )">(LHD)</text></g></g><g ewd:figtype="gp" ewd:figID="45" ewd:code="CC"><path style="stroke-width: 0.85 ;&st7;  " d=" M  1351.27,   697.25  L  1351.27,   701.50  " /><path style="stroke-width: 0.85 ;&st7;  " d=" M  1342.78,   701.50  L  1359.77,   701.50  " /><path style="stroke-width: 0.85 ;&st7;  " d=" M  1347.02,   704.33  L  1355.52,   704.33  " /><path style="stroke-width: 0.85 ;&st7;  " d=" M  1348.44,   707.17  L  1354.11,   707.17  " /><path style="stroke-width: 0.85 ;&st7;  " d=" M  1349.86,   710.00  L  1352.69,   710.00  " /></g><g ewd:figtype="gp" ewd:figID="46" ewd:code="CE"><path style="stroke-width: 0.85 ;&st7;  " d=" M  1402.27,   697.25  L  1402.27,   701.50  " /><path style="stroke-width: 0.85 ;&st7;  " d=" M  1393.77,   701.50  L  1410.76,   701.50  " /><path style="stroke-width: 0.85 ;&st7;  " d=" M  1398.02,   704.33  L  1406.51,   704.33  " /><path style="stroke-width: 0.85 ;&st7;  " d=" M  1399.43,   707.17  L  1405.10,   707.17  " /><path style="stroke-width: 0.85 ;&st7;  " d=" M  1400.85,   710.00  L  1403.68,   710.00  " /></g><g ewd:code="8" ewd:figID="95" ewd:comment="" ewd:figtype="comment"><text style="&st18;" transform="matrix(&st16;  1407.36  479.67 )" ewd:textID="6">* 8 :Before Sep. 2017 Production</text></g><g ewd:code="5" ewd:figID="86" ewd:comment="3,4" ewd:figtype="comment"><text style="&st18;" transform="matrix(&st16;  1407.36  454.18 )" ewd:textID="3">* 5 :Except *3 *4</text></g><g ewd:code="11" ewd:figID="97" ewd:comment="" ewd:figtype="comment"><text style="&st18;" transform="matrix(&st16;  1407.36  505.17 )" ewd:textID="9">*11 :LHD w/ SRS</text></g><g ewd:code="17" ewd:figID="108" ewd:comment="" ewd:figtype="comment"><text style="&st18;" transform="matrix(&st16;  1407.36  556.16 )" ewd:textID="13">*17 :From Sep. 2022 Production</text></g><g ewd:code="10" ewd:figID="98" ewd:comment="" ewd:figtype="comment"><text style="&st18;" transform="matrix(&st16;  1407.36  496.67 )" ewd:textID="8">*10 :LHD w/o SRS</text></g><g ewd:code="12" ewd:figID="100" ewd:comment="" ewd:figtype="comment"><text style="&st18;" transform="matrix(&st16;  1407.36  513.67 )">*12 :RHD 1HZ</text></g><g ewd:code="15" ewd:figID="104" ewd:comment="" ewd:figtype="comment"><text style="&st18;" transform="matrix(&st16;  1407.36  539.16 )" ewd:textID="11">*15 :From Jul. 2021 Production</text></g><g ewd:code="14" ewd:figID="103" ewd:comment="" ewd:figtype="comment"><text style="&st18;" transform="matrix(&st16;  1407.36  530.67 )" ewd:textID="10">*14 :Before Jul. 2021 Production</text></g><g ewd:code="2" ewd:figID="83" ewd:comment="" ewd:figtype="comment"><text style="&st18;" transform="matrix(&st16;  1407.36  428.68 )">* 2 :1HZ</text></g><g ewd:code="4" ewd:figID="85" ewd:comment="" ewd:figtype="comment"><text style="&st18;" transform="matrix(&st16;  1407.36  445.68 )" ewd:textID="2">* 4 :Australia</text></g><g ewd:code="6" ewd:figID="73" ewd:comment="" ewd:figtype="comment"><text style="&st18;" transform="matrix(&st16;  1407.36  462.68 )" ewd:textID="4">* 6 :w/ VSC</text></g><g ewd:code="7" ewd:figID="72" ewd:comment="" ewd:figtype="comment"><text style="&st18;" transform="matrix(&st16;  1407.36  471.18 )" ewd:textID="5">* 7 :w/o VSC</text></g><g ewd:code="13" ewd:figID="99" ewd:comment="8,2,9,12,9,2,11" ewd:figtype="comment"><text style="&st18;" transform="matrix(&st16;  1407.36  522.17 )">*13 :*8 *2,*9 *12,*9 *2 *11</text></g><g ewd:code="16" ewd:figID="107" ewd:comment="" ewd:figtype="comment"><text style="&st18;" transform="matrix(&st16;  1407.36  547.66 )" ewd:textID="12">*16 :Before Sep. 2022 Production</text></g><g ewd:code="9" ewd:figID="96" ewd:comment="" ewd:figtype="comment"><text style="&st18;" transform="matrix(&st16;  1407.36  488.17 )" ewd:textID="7">* 9 :From Sep. 2017 Production</text></g><g ewd:code="3" ewd:figID="84" ewd:comment="" ewd:figtype="comment"><text style="&st18;" transform="matrix(&st16;  1407.36  437.18 )" ewd:textID="1">* 3 :2-Door Pick-Up Body Type</text></g><g ewd:code="1" ewd:figID="67" ewd:comment="" ewd:figtype="comment"><text style="&st18;" transform="matrix(&st16;  1407.36  420.18 )">* 1 :1VD-FTV</text></g></svg>