<?xml version="1.0" encoding="utf-8"?>
<!DOCTYPE svg PUBLIC "-//W3C//DTD SVG 1.0//EN" "http://www.w3.org/TR/2001/REC-SVG-20010904/DTD/svg10.dtd"[
	<!ENTITY ns_flows "http://ns.adobe.com/Flows/1.0/">
	<!ENTITY ns_svg "http://www.w3.org/2000/svg">
	<!ENTITY ns_xlink "http://www.w3.org/1999/xlink">
	<!ENTITY st0 "font-size:7px;font-family:'MS-PGothic';adobe-font-script:japanese;">
	<!ENTITY st1 "font-size:6px;font-family:'ArialMT';">
	<!-- White fill  -->
	<!ENTITY st2 "fill:#FFFFFF;stroke:#000000; stroke-width:1.41;stroke-linecap:round;stroke-linejoin:round;">
	<!-- Yellow fill  -->
	<!ENTITY st3 "fill:#FFFFCC;stroke:#FFFFCC; stroke-width:0.1;stroke-linecap:round;stroke-linejoin:round;">
	<!-- Gray fill  -->
	<!ENTITY st4 "fill:#CCCCCC;stroke:#CCCCCC; stroke-width:0.1;stroke-linecap:round;stroke-linejoin:round;">
	<!-- Light-blue fill -->
	<!ENTITY st5 "fill:#CCECF4;stroke:#000000; stroke-width:1.133;stroke-linecap:round;stroke-linejoin:round;">
	<!ENTITY st6 "fill:none;stroke-linecap:butt; stroke-linejoin:round;">
	<!ENTITY st7 "fill:none;stroke:#000000;stroke-linecap:round;stroke-linejoin:round;">
	<!ENTITY st8 "enable-background:new    ;">
	<!-- Black fill -->
	<!ENTITY st9 "fill:#000000;stroke:#000000; stroke-linecap:round;stroke-linejoin:round;">
	<!-- SRS note   -->
	<!ENTITY st10 "font-size:9px;font-family:'ArialMT';">
	<!ENTITY st11 "font-size:9px;font-family:'Svg Symbol';">
	<!ENTITY st12 "font-size:6px;font-family:'Svg Symbol';">
	<!ENTITY st13 "fill:none;stroke:#ff0000;stroke-linecap:round;stroke-linejoin:round;">
	<!-- Yellow fill  -->
	<!ENTITY st14 "fill:#FFFF00;stroke:#FFFF00; stroke-width:0.1;stroke-linecap:round;stroke-linejoin:round;">
	<!ENTITY st15 "font-size:6px;font-family:'MS-PGothic';adobe-font-script:japanese;">
	<!ENTITY st16 "1.00 0.00 0.00 1.00">
	<!ENTITY st17 "0.00 -1.00 1.00 0.00">
	<!ENTITY st18 "font-size:6px;font-family:'Arial';">
	<!ENTITY st19 "font-size:9px;font-family:'Arial';">
	<!ENTITY st20 "font-size:6px;font-family:'MS-PGothic','MS PGothic';adobe-font-script:japanese;">
	<!ENTITY st21 "font-size:7px;font-family:'MS-PGothic','MS PGothic';adobe-font-script:japanese;">
	<!ATTLIST svg
		xmlns:ewd CDATA #FIXED "http://shcl.co.jp/ewd"
		xmlns:a CDATA #FIXED "http://ns.adobe.com/AdobeSVGViewerExtensions/3.0/"
		ewd:ver CDATA #IMPLIED
	>
	<!ATTLIST a
		ewd:lineID CDATA #IMPLIED
		ewd:groupID CDATA #IMPLIED
		ewd:figtype CDATA #IMPLIED
		ewd:code CDATA #IMPLIED
		ewd:figID CDATA #IMPLIED
		ewd:pinNo CDATA #IMPLIED
		ewd:comment CDATA #IMPLIED >
	<!ATTLIST g
		ewd:lineID CDATA #IMPLIED
		ewd:groupID CDATA #IMPLIED
		ewd:figtype CDATA #IMPLIED
		ewd:code CDATA #IMPLIED
		ewd:figID CDATA #IMPLIED
		ewd:pinNo CDATA #IMPLIED
		ewd:comment CDATA #IMPLIED >
	<!ATTLIST text
		ewd:textID CDATA #IMPLIED >
	<!ATTLIST title
		ewd:textID CDATA #IMPLIED >
]>
<!-- Generator: Shintec Hozumi YS   -->
<svg onload="call_execInitLoadProc_svg('system')" style="overflow:visible;  enable-background:new 0 0 1531.013 710.000" viewBox="0 0 1531.013 710.000" height="710.000" width="1531.013" xml:space="preserve" ewd:ver="2.3.1.16" xmlns="&ns_svg;" xmlns:a="http://ns.adobe.com/AdobeSVGViewerExtensions/3.0/" xmlns:ewd="http://shcl.co.jp/ewd" xmlns:xlink="&ns_xlink;">
<path style="stroke-width: 1.42 ;&st7;  " d=" M   305.95,   375.72  L   297.45,   375.72  " /><text style="&st18;" transform="matrix(&st17;  361.74  537.85 )">B-R</text><text style="&st18;" transform="matrix(&st17;  132.28  165.02 )">B</text><text style="&st18;" transform="matrix(&st17;  293.75  533.6 )">B-R</text><text style="&st18;" transform="matrix(&st17;  293.76  623.65 )">W-B</text><text style="&st18;" transform="matrix(&st17;  132.28  338.14 )">B-R</text><text style="&st18;" transform="matrix(&st17;  174.77  397.63 )">B-R</text><text style="&st18;" transform="matrix(&st17;  225.77  397.63 )">B-R</text><text style="&st18;" transform="matrix(&st17;  293.75  414.62 )">B-R</text><text style="&st18;" transform="matrix(&st17;  293.76  670.4 )">W-B</text><text style="&st18;" transform="matrix(&st17;  305.09  419.63 )">(*5 *14)</text><text style="&st18;" transform="matrix(&st17;  373.08  542.86 )">(*5 *14)</text><text style="&st18;" transform="matrix(&st17;  237.1  402.63 )">(*5 *16)</text><path style="stroke-width: 1.42 ;&st7;  " d=" M   305.95,   635.65  L   300.98,   630.68  " /><path style="stroke-width: 1.42 ;&st7;  " d=" M   288.95,   642.71  L   293.92,   647.68  " /><path style="stroke-width: 1.42 ;&st7;  " d=" M   300.98,   647.68  L   305.95,   642.71  " /><path style="stroke-width: 1.42 ;&st7;  " d=" M   293.92,   630.68  L   288.95,   635.65  " /><text style="&st18;" transform="matrix(&st16;  490.65  125.57 )">B</text><text style="&st18;" transform="matrix(&st16;  481.04  304.04 )">B-R(*16)</text><text style="&st18;" transform="matrix(&st16;  487.51  635.48 )">B-R</text><text style="&st18;" transform="matrix(&st16;  482.51  646.81 )">(*5 *14)</text><text style="&st18;" transform="matrix(&st17;  268.26  411.48 )">P</text><text style="&st18;" transform="matrix(&st17;  279.59  419.63 )">(*5 *15)</text><text style="&st18;" transform="matrix(&st17;  305.09  534.92 )">(*14)</text><text style="&st18;" transform="matrix(&st17;  268.26  530.62 )">R</text><text style="&st18;" transform="matrix(&st17;  279.59  534.92 )">(*15)</text><text style="&st18;" transform="matrix(&st17;  387.24  534.87 )">R</text><text style="&st18;" transform="matrix(&st17;  398.57  542.86 )">(*5 *15)</text><text style="&st18;" transform="matrix(&st16;  490.5  609.99 )">R</text><text style="&st18;" transform="matrix(&st16;  482.51  621.32 )">(*5 *15)</text><text style="&st18;" transform="matrix(&st17;  143.61  339.46 )">(*16)</text><text style="&st18;" transform="matrix(&st17;  186.11  398.95 )">(*16)</text><text style="&st18;" transform="matrix(&st17;  106.79  335.15 )">R</text><text style="&st18;" transform="matrix(&st17;  118.12  339.46 )">(*17)</text><text style="&st18;" transform="matrix(&st17;  200.27  394.64 )">R</text><text style="&st18;" transform="matrix(&st17;  211.6  402.63 )">(*5 *17)</text><text style="&st18;" transform="matrix(&st17;  149.28  394.64 )">R</text><text style="&st18;" transform="matrix(&st17;  160.61  398.95 )">(*17)</text><text style="&st18;" transform="matrix(&st16;  484.02  287.04 )">R(*17)</text><g ewd:figtype="conn" ewd:figID="10" ewd:code="L32,L36"><path style="stroke-width: 0.85 ;&st7; stroke-dasharray:3, 1.5;" d=" M   305.95,   491.30  L   348.44,   491.30  " /><path style="stroke-width: 0.85 ;&st7; stroke-dasharray:3, 1.5;" d=" M   348.44,   482.24  L   305.95,   482.24  " /><path style="stroke-width: 0.85 ;&st7;  " d=" M   296.26,   468.20  L   295.99,   468.67  L   295.89,   469.21  L   295.99,   469.74  L   296.26,   470.21  L   296.67,   470.56  L   297.18,   470.74  L   297.72,   470.74  L   298.23,   470.56  L   298.64,   470.21  L   298.91,   469.74  L   299.01,   469.21  L   298.91,   468.67  L   298.64,   468.20  L   298.23,   467.86  L   297.72,   467.67  L   297.18,   467.67  L   296.67,   467.86  L   296.26,   468.20  L   296.65,   468.92  L   296.65,   469.50  L   297.03,   469.94  L   297.60,   470.04  L   298.10,   469.75  L   298.30,   469.21  L   298.10,   468.66  L   297.60,   468.37  L   297.03,   468.47  L   297.45,   469.21  " /><path style="stroke-width: 0.85 ;&st7;  " d=" M   297.45,   469.21  L   365.44,   469.21  L   365.44,   477.71  " /><path style="stroke-width: 1.42 ;&st7;  " d=" M   288.95,   477.71  L   373.94,   477.71  L   373.94,   460.71  L   288.95,   460.71  L   288.95,   477.71  " /><path style="stroke-width: 0.85 ;&st7;  " d=" M   297.45,   460.71  L   297.45,   477.71  " /><text style="&st18;" transform="matrix(&st16;  284.64  493.27 )">13</text><text style="&st18;" transform="matrix(&st16;  284.64  484.21 )">21</text><path style="stroke-width: 1.42 ;&st7;   " d=" M   301.98,   482.24  C   301.98    479.73    299.95    477.71    297.45    477.71  " /><path style="stroke-width: 1.42 ;&st7;   " d=" M   297.45,   477.71  C   294.95    477.71    292.92    479.73    292.92    482.24  " /><path style="stroke-width: 1.42 ;&st7;   " d=" M   292.92,   482.24  C   292.92    484.74    294.95    486.77    297.45    486.77  " /><path style="stroke-width: 1.42 ;&st7;   " d=" M   297.45,   486.77  C   299.95    486.77    301.98    484.74    301.98    482.24  " /><path style="stroke-width: 1.42 ;&st7;   " d=" M   301.98,   491.30  C   301.98    488.80    299.95    486.77    297.45    486.77  " /><path style="stroke-width: 1.42 ;&st7;   " d=" M   297.45,   486.77  C   294.95    486.77    292.92    488.80    292.92    491.30  " /><path style="stroke-width: 1.42 ;&st7;   " d=" M   292.92,   491.30  C   292.92    493.81    294.95    495.84    297.45    495.84  " /><path style="stroke-width: 1.42 ;&st7;   " d=" M   297.45,   495.84  C   299.95    495.84    301.98    493.81    301.98    491.30  " /><text style="&st18;" transform="matrix(&st16;  295.18  484.21 )">A</text><text style="&st18;" transform="matrix(&st16;  295.18  493.27 )">B</text><text style="&st18;" transform="matrix(&st16;  284.64  458.14 )">12</text><text style="&st18;" transform="matrix(&st16;  284.64  449.08 )">20</text><path style="stroke-width: 1.42 ;&st7;   " d=" M   301.98,   456.18  C   301.98    453.67    299.95    451.64    297.45    451.64  " /><path style="stroke-width: 1.42 ;&st7;   " d=" M   297.45,   451.64  C   294.95    451.64    292.92    453.67    292.92    456.18  " /><path style="stroke-width: 1.42 ;&st7;   " d=" M   292.92,   456.18  C   292.92    458.68    294.95    460.71    297.45    460.71  " /><path style="stroke-width: 1.42 ;&st7;   " d=" M   297.45,   460.71  C   299.95    460.71    301.98    458.68    301.98    456.18  " /><path style="stroke-width: 1.42 ;&st7;   " d=" M   301.98,   447.11  C   301.98    444.61    299.95    442.58    297.45    442.58  " /><path style="stroke-width: 1.42 ;&st7;   " d=" M   297.45,   442.58  C   294.95    442.58    292.92    444.61    292.92    447.11  " /><path style="stroke-width: 1.42 ;&st7;   " d=" M   292.92,   447.11  C   292.92    449.61    294.95    451.64    297.45    451.64  " /><path style="stroke-width: 1.42 ;&st7;   " d=" M   297.45,   451.64  C   299.95    451.64    301.98    449.61    301.98    447.11  " /><text style="&st18;" transform="matrix(&st16;  295.18  449.08 )">A</text><text style="&st18;" transform="matrix(&st16;  295.18  458.14 )">B</text><text style="&st18;" transform="matrix(&st16;  352.62  484.21 )">22</text><text style="&st18;" transform="matrix(&st16;  352.62  493.27 )">14</text><path style="stroke-width: 1.42 ;&st7;   " d=" M   369.97,   482.24  C   369.97    479.73    367.94    477.71    365.44    477.71  " /><path style="stroke-width: 1.42 ;&st7;   " d=" M   365.44,   477.71  C   362.94    477.71    360.91    479.73    360.91    482.24  " /><path style="stroke-width: 1.42 ;&st7;   " d=" M   360.91,   482.24  C   360.91    484.74    362.94    486.77    365.44    486.77  " /><path style="stroke-width: 1.42 ;&st7;   " d=" M   365.44,   486.77  C   367.94    486.77    369.97    484.74    369.97    482.24  " /><path style="stroke-width: 1.42 ;&st7;   " d=" M   369.97,   491.30  C   369.97    488.80    367.94    486.77    365.44    486.77  " /><path style="stroke-width: 1.42 ;&st7;   " d=" M   365.44,   486.77  C   362.94    486.77    360.91    488.80    360.91    491.30  " /><path style="stroke-width: 1.42 ;&st7;   " d=" M   360.91,   491.30  C   360.91    493.81    362.94    495.84    365.44    495.84  " /><path style="stroke-width: 1.42 ;&st7;   " d=" M   365.44,   495.84  C   367.94    495.84    369.97    493.81    369.97    491.30  " /><text style="&st18;" transform="matrix(&st16;  363.17  484.21 )">A</text><text style="&st18;" transform="matrix(&st16;  363.17  493.27 )">B</text><g ewd:figtype="title"><text style="&st18;" transform="matrix(&st17;  381.83  476.36 )">L36(A)</text><text style="&st18;" transform="matrix(&st17;  388.66  476.36 )" ewd:textID="28">No. 28 Junction <tspan x="0 " dy="6.0">Connector</tspan></text><text style="&st18;" transform="matrix(&st17;  401.94  476.36 )">L32(B)</text><text style="&st18;" transform="matrix(&st17;  408.77  476.36 )" ewd:textID="26">No. 24 Junction <tspan x="0 " dy="6.0">Connector</tspan></text></g><g ewd:code="" ewd:figID="59" ewd:comment="" ewd:figtype="commref"><text style="&st18;" transform="matrix(&st16;  370.53  484.21 )">(LHD)</text></g><g ewd:code="" ewd:figID="60" ewd:comment="" ewd:figtype="commref"><text style="&st18;" transform="matrix(&st16;  370.53  493.27 )">(RHD)</text></g><g ewd:code="" ewd:figID="61" ewd:comment="" ewd:figtype="commref"><text style="&st18;" transform="matrix(&st16;  302.54  458.14 )">(RHD)</text></g><g ewd:code="" ewd:figID="62" ewd:comment="" ewd:figtype="commref"><text style="&st18;" transform="matrix(&st16;  302.54  449.08 )">(LHD)</text></g></g><g ewd:figtype="conn" ewd:figID="11" ewd:code="I45"><path style="stroke-width: 0.85 ;&st7;  " d=" M   131.73,   214.25  L   140.23,   214.25  " /><path style="stroke-width: 0.85 ;&st7;  " d=" M   135.98,   205.75  L   135.98,   231.25  " /><path style="stroke-width: 1.42 ;&st7;  " d=" M   127.48,   231.25  L   144.48,   231.25  L   144.48,   205.75  L   127.48,   205.75  L   127.48,   231.25  " /><path style="stroke-width: 0.28 ;&st9;  " d=" M   135.98,   214.25  L   141.64,   222.75  L   130.31,   222.75  L   135.98,   214.25  " /><text style="&st18;" transform="matrix(&st16;  129.64  239.44 )">1</text><text style="&st18;" transform="matrix(&st16;  129.64  202.06 )">2</text><g ewd:figtype="title"><text style="&st18;" transform="matrix(&st17;  159.19  234.15 )" ewd:textID="15">Diode <tspan x="0 " dy="6.0">(Sub Tank Relay)</tspan></text><text style="&st18;" transform="matrix(&st17;  152.37  234.15 )">I45</text></g></g><g ewd:figtype="conn" ewd:figID="12" ewd:code="L8"><path style="stroke-width: 0.85 ;&st7;  " d=" M   297.45,   566.94  L   297.45,   562.69  " /><path style="stroke-width: 0.85 ;&st7;  " d=" M   297.45,   596.69  L   297.45,   592.44  " /><path style="stroke-width: 1.42 ;&st7;  " d=" M   297.45,   589.60  L   303.12,   566.94  " /><path style="stroke-width: 0.85 ;&st7;   " d=" M   298.87,   568.36  C   298.87    567.57    298.23    566.94    297.45    566.94  " /><path style="stroke-width: 0.85 ;&st7;   " d=" M   297.45,   566.94  C   296.67    566.94    296.03    567.57    296.03    568.36  " /><path style="stroke-width: 0.85 ;&st7;   " d=" M   296.03,   568.36  C   296.03    569.14    296.67    569.77    297.45    569.77  " /><path style="stroke-width: 0.85 ;&st7;   " d=" M   297.45,   569.77  C   298.23    569.77    298.87    569.14    298.87    568.36  " /><path style="stroke-width: 0.85 ;&st7;   " d=" M   298.87,   591.02  C   298.87    590.24    298.23    589.60    297.45    589.60  " /><path style="stroke-width: 0.85 ;&st7;   " d=" M   297.45,   589.60  C   296.67    589.60    296.03    590.24    296.03    591.02  " /><path style="stroke-width: 0.85 ;&st7;   " d=" M   296.03,   591.02  C   296.03    591.80    296.67    592.44    297.45    592.44  " /><path style="stroke-width: 0.85 ;&st7;   " d=" M   297.45,   592.44  C   298.23    592.44    298.87    591.80    298.87    591.02  " /><path style="stroke-width: 1.42 ;&st7;  " d=" M   305.95,   596.69  L   305.95,   562.69  L   288.95,   562.69  L   288.95,   596.69  L   305.95,   596.69  " /><text style="&st18;" transform="matrix(&st16;  291.11  559.0 )">3</text><text style="&st18;" transform="matrix(&st16;  291.11  604.88 )">4</text><g ewd:figtype="title"><text style="&st18;" transform="matrix(&st17;  313.84  599.58 )">L8</text><text style="&st18;" transform="matrix(&st17;  320.67  599.59 )" ewd:textID="16">Fuel Control <tspan x="0 " dy="6.0">Switch Assembly</tspan></text></g></g><g ewd:figtype="conn" ewd:figID="14" ewd:code="I70,I106"><path style="stroke-width: 0.85 ;&st7; stroke-dasharray:3, 1.5;" d=" M   165.72,   430.11  L   144.48,   430.11  " /><path style="stroke-width: 0.85 ;&st7; stroke-dasharray:3, 1.5;" d=" M   144.48,   439.18  L   165.72,   439.18  " /><path style="stroke-width: 0.85 ;&st7; stroke-dasharray:3, 1.5;" d=" M   186.97,   430.11  L   216.71,   430.11  " /><path style="stroke-width: 0.85 ;&st7; stroke-dasharray:3, 1.5;" d=" M   216.71,   439.18  L   186.97,   439.18  " /><path style="stroke-width: 0.85 ;&st7;  " d=" M   177.28,   451.21  L   177.01,   451.68  L   176.91,   452.21  L   177.01,   452.74  L   177.28,   453.21  L   177.69,   453.56  L   178.20,   453.75  L   178.74,   453.75  L   179.25,   453.56  L   179.66,   453.21  L   179.93,   452.74  L   180.03,   452.21  L   179.93,   451.68  L   179.66,   451.21  L   179.25,   450.86  L   178.74,   450.67  L   178.20,   450.67  L   177.69,   450.86  L   177.28,   451.21  L   177.67,   451.92  L   177.67,   452.50  L   178.05,   452.95  L   178.62,   453.05  L   179.12,   452.76  L   179.32,   452.21  L   179.12,   451.66  L   178.62,   451.37  L   178.05,   451.47  L   178.47,   452.21  " /><path style="stroke-width: 0.85 ;&st7;  " d=" M   178.47,   452.21  L   178.47,   443.71  " /><path style="stroke-width: 0.85 ;&st7;  " d=" M   135.98,   443.71  L   135.98,   452.21  L   229.46,   452.21  L   229.46,   443.71  " /><path style="stroke-width: 1.42 ;&st7;  " d=" M   127.48,   460.71  L   237.96,   460.71  L   237.96,   443.71  L   127.48,   443.71  L   127.48,   460.71  " /><text style="&st18;" transform="matrix(&st16;  126.5  432.08 )">3</text><text style="&st18;" transform="matrix(&st16;  123.16  441.15 )">12</text><path style="stroke-width: 1.42 ;&st7;   " d=" M   140.51,   430.11  C   140.51    427.61    138.48    425.58    135.98    425.58  " /><path style="stroke-width: 1.42 ;&st7;   " d=" M   135.98,   425.58  C   133.47    425.58    131.44    427.61    131.44    430.11  " /><path style="stroke-width: 1.42 ;&st7;   " d=" M   131.44,   430.11  C   131.44    432.62    133.47    434.65    135.98    434.65  " /><path style="stroke-width: 1.42 ;&st7;   " d=" M   135.98,   434.65  C   138.48    434.65    140.51    432.62    140.51    430.11  " /><text style="&st18;" transform="matrix(&st16;  133.71  441.15 )">B</text><text style="&st18;" transform="matrix(&st16;  133.71  432.08 )">A</text><path style="stroke-width: 1.42 ;&st7;   " d=" M   140.51,   439.18  C   140.51    436.68    138.48    434.65    135.98    434.65  " /><path style="stroke-width: 1.42 ;&st7;   " d=" M   135.98,   434.65  C   133.47    434.65    131.44    436.68    131.44    439.18  " /><path style="stroke-width: 1.42 ;&st7;   " d=" M   131.44,   439.18  C   131.44    441.68    133.47    443.71    135.98    443.71  " /><path style="stroke-width: 1.42 ;&st7;   " d=" M   135.98,   443.71  C   138.48    443.71    140.51    441.68    140.51    439.18  " /><text style="&st18;" transform="matrix(&st16;  168.99  432.08 )">1</text><text style="&st18;" transform="matrix(&st16;  168.99  441.15 )">4</text><text style="&st18;" transform="matrix(&st16;  176.2  432.08 )">A</text><path style="stroke-width: 1.42 ;&st7;   " d=" M   183.00,   439.18  C   183.00    436.68    180.97    434.65    178.47    434.65  " /><path style="stroke-width: 1.42 ;&st7;   " d=" M   178.47,   434.65  C   175.97    434.65    173.94    436.68    173.94    439.18  " /><path style="stroke-width: 1.42 ;&st7;   " d=" M   173.94,   439.18  C   173.94    441.68    175.97    443.71    178.47    443.71  " /><path style="stroke-width: 1.42 ;&st7;   " d=" M   178.47,   443.71  C   180.97    443.71    183.00    441.68    183.00    439.18  " /><path style="stroke-width: 1.42 ;&st7;   " d=" M   183.00,   430.11  C   183.00    427.61    180.97    425.58    178.47    425.58  " /><path style="stroke-width: 1.42 ;&st7;   " d=" M   178.47,   425.58  C   175.97    425.58    173.94    427.61    173.94    430.11  " /><path style="stroke-width: 1.42 ;&st7;   " d=" M   173.94,   430.11  C   173.94    432.62    175.97    434.65    178.47    434.65  " /><path style="stroke-width: 1.42 ;&st7;   " d=" M   178.47,   434.65  C   180.97    434.65    183.00    432.62    183.00    430.11  " /><text style="&st18;" transform="matrix(&st16;  176.2  441.15 )">B</text><text style="&st18;" transform="matrix(&st16;  219.98  441.15 )">5</text><text style="&st18;" transform="matrix(&st16;  219.98  432.08 )">2</text><path style="stroke-width: 1.42 ;&st7;   " d=" M   233.99,   430.11  C   233.99    427.61    231.96    425.58    229.46    425.58  " /><path style="stroke-width: 1.42 ;&st7;   " d=" M   229.46,   425.58  C   226.96    425.58    224.93    427.61    224.93    430.11  " /><path style="stroke-width: 1.42 ;&st7;   " d=" M   224.93,   430.11  C   224.93    432.62    226.96    434.65    229.46    434.65  " /><path style="stroke-width: 1.42 ;&st7;   " d=" M   229.46,   434.65  C   231.96    434.65    233.99    432.62    233.99    430.11  " /><path style="stroke-width: 1.42 ;&st7;   " d=" M   233.99,   439.18  C   233.99    436.68    231.96    434.65    229.46    434.65  " /><path style="stroke-width: 1.42 ;&st7;   " d=" M   229.46,   434.65  C   226.96    434.65    224.93    436.68    224.93    439.18  " /><path style="stroke-width: 1.42 ;&st7;   " d=" M   224.93,   439.18  C   224.93    441.68    226.96    443.71    229.46    443.71  " /><path style="stroke-width: 1.42 ;&st7;   " d=" M   229.46,   443.71  C   231.96    443.71    233.99    441.68    233.99    439.18  " /><text style="&st18;" transform="matrix(&st16;  227.2  432.08 )">A</text><text style="&st18;" transform="matrix(&st16;  227.2  441.15 )">B</text><g ewd:figtype="title"><text style="&st18;" transform="matrix(&st16;  124.07  468.6 )">I70(A)</text><text style="&st18;" transform="matrix(&st16;  124.07  475.43 )" ewd:textID="24">No. 19 Junction Connector</text><text style="&st18;" transform="matrix(&st16;  124.07  482.77 )">I106(B)</text><text style="&st18;" transform="matrix(&st16;  124.07  489.59 )" ewd:textID="21">No. 9 Junction Connector</text></g><g ewd:code="" ewd:figID="63" ewd:comment="" ewd:figtype="commref"><text style="&st18;" transform="matrix(&st16;  234.55  432.08 )">(LHD)</text></g><g ewd:code="" ewd:figID="64" ewd:comment="" ewd:figtype="commref"><text style="&st18;" transform="matrix(&st16;  234.55  441.15 )">(RHD)</text></g></g><g ewd:figtype="w2w" ewd:figID="19" ewd:code="IL5"><path style="stroke-width: 1.42 ;&st7;  " d=" M   301.70,   381.39  L   297.45,   377.14  L   293.20,   381.39  " /><path style="stroke-width: 1.42 ;&st7;  " d=" M   301.70,   384.79  L   297.45,   380.54  L   293.20,   384.79  " /><text style="&st18;" transform="matrix(&st16;  280.7  373.44 )">56</text><g ewd:code="" ewd:figID="77" ewd:comment="" ewd:figtype="commref"><text style="&st18;" transform="matrix(&st16;  306.48  373.44 )">(RHD)</text></g></g><g ewd:figtype="w2w" ewd:figID="20" ewd:code="IL1"><text style="&st18;" transform="matrix(&st16;  280.7  364.94 )">38</text><g ewd:code="" ewd:figID="78" ewd:comment="" ewd:figtype="commref"><text style="&st18;" transform="matrix(&st16;  306.48  364.94 )">(LHD)</text></g></g><g ewd:figtype="gp" ewd:figID="43" ewd:code="LA"><path style="stroke-width: 0.85 ;&st7;  " d=" M   296.03,   710.00  L   298.87,   710.00  " /><path style="stroke-width: 0.85 ;&st7;  " d=" M   294.62,   707.17  L   300.28,   707.17  " /><path style="stroke-width: 0.85 ;&st7;  " d=" M   293.20,   704.33  L   301.70,   704.33  " /><path style="stroke-width: 0.85 ;&st7;  " d=" M   288.95,   701.50  L   305.95,   701.50  " /><path style="stroke-width: 0.85 ;&st7;  " d=" M   297.45,   697.25  L   297.45,   701.50  " /></g></svg>