<?xml version="1.0" encoding="utf-8"?>
<!DOCTYPE svg PUBLIC "-//W3C//DTD SVG 1.0//EN" "http://www.w3.org/TR/2001/REC-SVG-20010904/DTD/svg10.dtd"[
	<!ENTITY ns_flows "http://ns.adobe.com/Flows/1.0/">
	<!ENTITY ns_svg "http://www.w3.org/2000/svg">
	<!ENTITY ns_xlink "http://www.w3.org/1999/xlink">
	<!ENTITY st0 "font-size:7px;font-family:'MS-PGothic';adobe-font-script:japanese;">
	<!ENTITY st1 "font-size:6px;font-family:'ArialMT';">
	<!-- White fill  -->
	<!ENTITY st2 "fill:#FFFFFF;stroke:#000000; stroke-width:1.41;stroke-linecap:round;stroke-linejoin:round;">
	<!-- Yellow fill  -->
	<!ENTITY st3 "fill:#FFFFCC;stroke:#FFFFCC; stroke-width:0.1;stroke-linecap:round;stroke-linejoin:round;">
	<!-- Gray fill  -->
	<!ENTITY st4 "fill:#CCCCCC;stroke:#CCCCCC; stroke-width:0.1;stroke-linecap:round;stroke-linejoin:round;">
	<!-- Light-blue fill -->
	<!ENTITY st5 "fill:#CCECF4;stroke:#000000; stroke-width:1.133;stroke-linecap:round;stroke-linejoin:round;">
	<!ENTITY st6 "fill:none;stroke-linecap:butt; stroke-linejoin:round;">
	<!ENTITY st7 "fill:none;stroke:#000000;stroke-linecap:round;stroke-linejoin:round;">
	<!ENTITY st8 "enable-background:new    ;">
	<!-- Black fill -->
	<!ENTITY st9 "fill:#000000;stroke:#000000; stroke-linecap:round;stroke-linejoin:round;">
	<!-- SRS note   -->
	<!ENTITY st10 "font-size:9px;font-family:'ArialMT';">
	<!ENTITY st11 "font-size:9px;font-family:'Svg Symbol';">
	<!ENTITY st12 "font-size:6px;font-family:'Svg Symbol';">
	<!ENTITY st13 "fill:none;stroke:#ff0000;stroke-linecap:round;stroke-linejoin:round;">
	<!-- Yellow fill  -->
	<!ENTITY st14 "fill:#FFFF00;stroke:#FFFF00; stroke-width:0.1;stroke-linecap:round;stroke-linejoin:round;">
	<!ENTITY st15 "font-size:6px;font-family:'MS-PGothic';adobe-font-script:japanese;">
	<!ENTITY st16 "1.00 0.00 0.00 1.00">
	<!ENTITY st17 "0.00 -1.00 1.00 0.00">
	<!ENTITY st18 "font-size:6px;font-family:'Arial';">
	<!ENTITY st19 "font-size:9px;font-family:'Arial';">
	<!ENTITY st20 "font-size:6px;font-family:'MS-PGothic','MS PGothic';adobe-font-script:japanese;">
	<!ENTITY st21 "font-size:7px;font-family:'MS-PGothic','MS PGothic';adobe-font-script:japanese;">
	<!ATTLIST svg
		xmlns:ewd CDATA #FIXED "http://shcl.co.jp/ewd"
		xmlns:a CDATA #FIXED "http://ns.adobe.com/AdobeSVGViewerExtensions/3.0/"
		ewd:ver CDATA #IMPLIED
	>
	<!ATTLIST a
		ewd:lineID CDATA #IMPLIED
		ewd:groupID CDATA #IMPLIED
		ewd:figtype CDATA #IMPLIED
		ewd:code CDATA #IMPLIED
		ewd:figID CDATA #IMPLIED
		ewd:pinNo CDATA #IMPLIED
		ewd:comment CDATA #IMPLIED >
	<!ATTLIST g
		ewd:lineID CDATA #IMPLIED
		ewd:groupID CDATA #IMPLIED
		ewd:figtype CDATA #IMPLIED
		ewd:code CDATA #IMPLIED
		ewd:figID CDATA #IMPLIED
		ewd:pinNo CDATA #IMPLIED
		ewd:comment CDATA #IMPLIED >
	<!ATTLIST text
		ewd:textID CDATA #IMPLIED >
	<!ATTLIST title
		ewd:textID CDATA #IMPLIED >
]>
<!-- Generator: Shintec Hozumi YS   -->
<svg onload="call_execInitLoadProc_svg('system')" style="overflow:visible;  enable-background:new 0 0 6732.781 710.000" viewBox="0 0 6732.781 710.000" height="710.000" width="6732.781" xml:space="preserve" ewd:ver="2.3.1.16" xmlns="&ns_svg;" xmlns:a="http://ns.adobe.com/AdobeSVGViewerExtensions/3.0/" xmlns:ewd="http://shcl.co.jp/ewd" xmlns:xlink="&ns_xlink;">
<text style="&st18;" transform="matrix(&st16;  969.67  580.22 )">C39</text><text style="&st18;" transform="matrix(&st16;  527.75  282.77 )">C13</text><text style="&st18;" transform="matrix(&st16;  969.67  214.78 )">C12</text><text style="&st18;" transform="matrix(&st16;  969.67  180.78 )">C7</text><text style="&st18;" transform="matrix(&st16;  699.16  278.54 )">W-B</text><text style="&st18;" transform="matrix(&st16;  527.75  248.77 )">C6</text><text style="&st18;" transform="matrix(&st16;  527.75  214.78 )">C14</text><text style="&st18;" transform="matrix(&st16;  527.75  180.78 )">C5</text><text ewd:textID="1" style="&st18;" transform="matrix(&st16;  632.03  618.48 )">(Shielded)</text><text style="&st18;" transform="matrix(&st16;  700.95  618.48 )">BR</text><text ewd:textID="1" style="&st18;" transform="matrix(&st16;  632.03  584.49 )">(Shielded)</text><text style="&st18;" transform="matrix(&st16;  700.95  584.49 )">BR</text><text ewd:textID="1" style="&st18;" transform="matrix(&st16;  632.03  550.5 )">(Shielded)</text><text style="&st18;" transform="matrix(&st16;  700.95  550.5 )">BR</text><text ewd:textID="1" style="&st18;" transform="matrix(&st16;  632.03  516.5 )">(Shielded)</text><text style="&st18;" transform="matrix(&st16;  700.95  516.5 )">BR</text><text ewd:textID="1" style="&st18;" transform="matrix(&st16;  632.03  482.51 )">(Shielded)</text><text style="&st18;" transform="matrix(&st16;  700.95  482.51 )">BR</text><text style="&st18;" transform="matrix(&st16;  894.63  176.56 )">W-B</text><text style="&st18;" transform="matrix(&st16;  894.63  210.55 )">W-B</text><text style="&st18;" transform="matrix(&st16;  699.16  244.55 )">W-B</text><text style="&st18;" transform="matrix(&st16;  894.63  575.99 )">W-B</text><text style="&st18;" transform="matrix(&st16;  894.63  601.49 )">W-B</text><text style="&st18;" transform="matrix(&st16;  894.63  626.98 )">W-B</text><text style="&st18;" transform="matrix(&st16;  894.63  652.48 )">W-B</text><text style="&st18;" transform="matrix(&st16;  760.44  643.98 )">BR</text><text style="&st18;" transform="matrix(&st17;  795.17  236.97 )">W-B</text><text style="&st18;" transform="matrix(&st16;  699.16  210.55 )">W-B</text><text style="&st18;" transform="matrix(&st16;  699.16  176.56 )">W-B</text><text style="&st18;" transform="matrix(&st17;  795.17  593.91 )">W-B</text><text style="&st18;" transform="matrix(&st17;  806.5  235.8 )">(*1)</text><text style="&st18;" transform="matrix(&st16;  700.95  448.51 )">BR</text><text ewd:textID="1" style="&st18;" transform="matrix(&st16;  632.03  448.51 )">(Shielded)</text><text ewd:textID="1" style="&st18;" transform="matrix(&st16;  547.05  550.5 )">(Shielded)</text><text ewd:textID="1" style="&st18;" transform="matrix(&st16;  547.05  575.99 )">(Shielded)</text><text style="&st18;" transform="matrix(&st17;  591.21  481.64 )">BR</text><text style="&st18;" transform="matrix(&st17;  591.21  532.63 )">BR</text><text style="&st18;" transform="matrix(&st16;  700.32  187.89 )">(*1)</text><text style="&st18;" transform="matrix(&st16;  700.32  221.88 )">(*1)</text><text style="&st18;" transform="matrix(&st16;  700.32  255.88 )">(*1)</text><text style="&st18;" transform="matrix(&st16;  700.32  289.87 )">(*1)</text><text style="&st18;" transform="matrix(&st16;  895.79  187.89 )">(*1)</text><text style="&st18;" transform="matrix(&st16;  895.79  221.88 )">(*1)</text><text style="&st18;" transform="matrix(&st16;  700.32  459.84 )">(*1)</text><text style="&st18;" transform="matrix(&st16;  700.32  493.84 )">(*1)</text><text style="&st18;" transform="matrix(&st16;  700.32  527.83 )">(*1)</text><text style="&st18;" transform="matrix(&st16;  700.32  561.83 )">(*1)</text><text style="&st18;" transform="matrix(&st16;  700.32  595.82 )">(*1)</text><text style="&st18;" transform="matrix(&st16;  700.32  629.82 )">(*1)</text><text style="&st18;" transform="matrix(&st16;  640.83  459.84 )">(*1)</text><text style="&st18;" transform="matrix(&st16;  640.83  493.84 )">(*1)</text><text style="&st18;" transform="matrix(&st16;  640.83  527.83 )">(*1)</text><text style="&st18;" transform="matrix(&st16;  640.83  561.83 )">(*1)</text><text style="&st18;" transform="matrix(&st16;  640.83  595.82 )">(*1)</text><text style="&st18;" transform="matrix(&st16;  640.83  629.82 )">(*1)</text><text style="&st18;" transform="matrix(&st16;  555.85  561.83 )">(*1)</text><text style="&st18;" transform="matrix(&st16;  555.85  587.32 )">(*1)</text><text style="&st18;" transform="matrix(&st17;  602.54  482.26 )">(*1)</text><text style="&st18;" transform="matrix(&st17;  602.54  533.26 )">(*1)</text><text style="&st18;" transform="matrix(&st16;  895.79  587.32 )">(*1)</text><text style="&st18;" transform="matrix(&st16;  895.79  612.82 )">(*1)</text><text style="&st18;" transform="matrix(&st16;  895.79  638.31 )">(*1)</text><text style="&st18;" transform="matrix(&st16;  895.79  663.81 )">(*1)</text><text style="&st18;" transform="matrix(&st16;  759.81  655.31 )">(*1)</text><text style="&st18;" transform="matrix(&st17;  806.5  592.75 )">(*1)</text><path d=" M   620.54,   614.70  C   618.63    616.84    618.57    619.97    620.40    622.18  " style="stroke-width: 1.42 ;&st7;   " /><path d=" M   620.54,   580.70  C   618.63    582.84    618.57    585.98    620.40    588.19  " style="stroke-width: 1.42 ;&st7;   " /><path d=" M   620.54,   546.71  C   618.63    548.85    618.57    551.98    620.40    554.19  " style="stroke-width: 1.42 ;&st7;   " /><path d=" M   620.54,   512.71  C   618.63    514.85    618.57    517.99    620.40    520.20  " style="stroke-width: 1.42 ;&st7;   " /><path d=" M   620.54,   478.72  C   618.63    480.86    618.57    483.99    620.40    486.20  " style="stroke-width: 1.42 ;&st7;   " /><path d=" M   535.55,   546.71  C   533.65    548.85    533.59    551.98    535.41    554.19  " style="stroke-width: 1.42 ;&st7;   " /><path d=" M   535.55,   572.20  C   533.65    574.35    533.59    577.48    535.41    579.69  " style="stroke-width: 1.42 ;&st7;   " /><path d=" M   790.37,   251.77  L   795.34,   256.74  " style="stroke-width: 1.42 ;&st7;  " /><path d=" M   802.39,   256.74  L   807.37,   251.77  " style="stroke-width: 1.42 ;&st7;  " /><path d=" M   795.34,   239.75  L   790.37,   244.72  " style="stroke-width: 1.42 ;&st7;  " /><path d=" M   807.37,   210.72  L   802.39,   205.75  " style="stroke-width: 1.42 ;&st7;  " /><path d=" M   790.37,   217.78  L   795.34,   222.75  " style="stroke-width: 1.42 ;&st7;  " /><path d=" M   802.39,   222.75  L   807.37,   217.78  " style="stroke-width: 1.42 ;&st7;  " /><path d=" M   795.34,   205.75  L   790.37,   210.72  " style="stroke-width: 1.42 ;&st7;  " /><path d=" M   688.38,   618.65  L   683.41,   613.68  " style="stroke-width: 1.42 ;&st7;  " /><path d=" M   671.39,   625.71  L   676.36,   630.68  " style="stroke-width: 1.42 ;&st7;  " /><path d=" M   683.41,   630.68  L   688.38,   625.71  " style="stroke-width: 1.42 ;&st7;  " /><text ewd:textID="68" style="&st18;" transform="matrix(&st16;  527.76  289.87 )">Ignition Coil <tspan dy="6.0" x="0 ">Assembly No. 4</tspan></text><text ewd:textID="66" style="&st18;" transform="matrix(&st16;  527.76  221.88 )">Ignition Coil <tspan dy="6.0" x="0 ">Assembly No. 2</tspan></text><text ewd:textID="67" style="&st18;" transform="matrix(&st16;  527.76  255.88 )">Ignition Coil <tspan dy="6.0" x="0 ">Assembly No. 3</tspan></text><text ewd:textID="65" style="&st18;" transform="matrix(&st16;  527.76  187.89 )">Ignition Coil <tspan dy="6.0" x="0 ">Assembly No. 1</tspan></text><text style="&st18;" transform="matrix(&st16;  969.68  587.32 )">ECM</text><text ewd:textID="70" style="&st18;" transform="matrix(&st16;  969.68  221.88 )">Ignition Coil <tspan dy="6.0" x="0 ">Assembly No. 6</tspan></text><text ewd:textID="69" style="&st18;" transform="matrix(&st16;  969.68  187.89 )">Ignition Coil <tspan dy="6.0" x="0 ">Assembly No. 5</tspan></text><path d=" M   676.36,   613.68  L   671.39,   618.65  " style="stroke-width: 1.42 ;&st7;  " /><path d=" M   688.38,   584.66  L   683.41,   579.69  " style="stroke-width: 1.42 ;&st7;  " /><path d=" M   671.39,   591.72  L   676.36,   596.69  " style="stroke-width: 1.42 ;&st7;  " /><path d=" M   683.41,   596.69  L   688.38,   591.72  " style="stroke-width: 1.42 ;&st7;  " /><path d=" M   676.36,   579.69  L   671.39,   584.66  " style="stroke-width: 1.42 ;&st7;  " /><path d=" M   688.38,   550.67  L   683.41,   545.69  " style="stroke-width: 1.42 ;&st7;  " /><path d=" M   671.39,   557.72  L   676.36,   562.69  " style="stroke-width: 1.42 ;&st7;  " /><path d=" M   683.41,   562.69  L   688.38,   557.72  " style="stroke-width: 1.42 ;&st7;  " /><path d=" M   676.36,   545.69  L   671.39,   550.67  " style="stroke-width: 1.42 ;&st7;  " /><path d=" M   688.38,   516.67  L   683.41,   511.70  " style="stroke-width: 1.42 ;&st7;  " /><path d=" M   671.39,   523.73  L   676.36,   528.70  " style="stroke-width: 1.42 ;&st7;  " /><path d=" M   683.41,   528.70  L   688.38,   523.73  " style="stroke-width: 1.42 ;&st7;  " /><path d=" M   676.36,   511.70  L   671.39,   516.67  " style="stroke-width: 1.42 ;&st7;  " /><path d=" M   688.38,   482.68  L   683.41,   477.71  " style="stroke-width: 1.42 ;&st7;  " /><path d=" M   671.39,   489.73  L   676.36,   494.70  " style="stroke-width: 1.42 ;&st7;  " /><path d=" M   683.41,   494.70  L   688.38,   489.73  " style="stroke-width: 1.42 ;&st7;  " /><path d=" M   676.36,   477.71  L   671.39,   482.68  " style="stroke-width: 1.42 ;&st7;  " /><path d=" M   676.36,   443.71  L   671.39,   448.68  " style="stroke-width: 1.42 ;&st7;  " /><path d=" M   683.41,   460.71  L   688.38,   455.74  " style="stroke-width: 1.42 ;&st7;  " /><path d=" M   671.39,   455.74  L   676.36,   460.71  " style="stroke-width: 1.42 ;&st7;  " /><path d=" M   688.38,   448.68  L   683.41,   443.71  " style="stroke-width: 1.42 ;&st7;  " /><path d=" M   603.40,   503.20  L   594.90,   503.20  " style="stroke-width: 1.42 ;&st7;  " /><path d=" M   591.37,   443.71  L   586.40,   448.68  " style="stroke-width: 1.42 ;&st7;  " /><path d=" M   598.43,   460.71  L   603.40,   455.74  " style="stroke-width: 1.42 ;&st7;  " /><path d=" M   586.40,   455.74  L   591.37,   460.71  " style="stroke-width: 1.42 ;&st7;  " /><path d=" M   603.40,   448.68  L   598.43,   443.71  " style="stroke-width: 1.42 ;&st7;  " /><path d=" M   591.37,   545.69  L   586.40,   550.67  " style="stroke-width: 1.42 ;&st7;  " /><path d=" M   598.43,   562.69  L   603.40,   557.72  " style="stroke-width: 1.42 ;&st7;  " /><path d=" M   586.40,   557.72  L   591.37,   562.69  " style="stroke-width: 1.42 ;&st7;  " /><path d=" M   603.40,   550.67  L   598.43,   545.69  " style="stroke-width: 1.42 ;&st7;  " /><path d=" M   807.37,   244.72  L   802.39,   239.75  " style="stroke-width: 1.42 ;&st7;  " /><text style="&st18;" transform="matrix(&st16;  945.08  581.66 )">(E01)</text><text style="&st18;" transform="matrix(&st16;  592.37  284.21 )">(GND)</text><text style="&st18;" transform="matrix(&st16;  945.08  216.22 )">(GND)</text><text style="&st18;" transform="matrix(&st16;  945.08  182.22 )">(GND)</text><text style="&st18;" transform="matrix(&st16;  945.08  607.15 )">(E03)</text><text style="&st18;" transform="matrix(&st16;  945.08  632.65 )">(E04)</text><text style="&st18;" transform="matrix(&st16;  945.08  658.14 )">(E05)</text><text style="&st18;" transform="matrix(&st16;  592.37  250.21 )">(GND)</text><text style="&st18;" transform="matrix(&st16;  592.37  216.22 )">(GND)</text><text style="&st18;" transform="matrix(&st16;  592.37  182.22 )">(GND)</text><path d=" M   943.34,   571.19  L   943.34,   673.17  L  1028.33,   673.17  L  1028.33,   571.19  L   943.34,   571.19  " style="stroke-width: 1.42 ;&st7;  " /><path d=" M   526.91,   273.74  L   526.91,   299.24  L   611.90,   299.24  L   611.90,   273.74  L   526.91,   273.74  " style="stroke-width: 1.42 ;&st7;  " /><path d=" M   943.34,   205.75  L   943.34,   231.25  L  1028.33,   231.25  L  1028.33,   205.75  L   943.34,   205.75  " style="stroke-width: 1.42 ;&st7;  " /><path d=" M   943.34,   171.76  L   943.34,   197.25  L  1028.33,   197.25  L  1028.33,   171.76  L   943.34,   171.76  " style="stroke-width: 1.42 ;&st7;  " /><path d=" M   526.91,   239.75  L   526.91,   265.24  L   611.90,   265.24  L   611.90,   239.75  L   526.91,   239.75  " style="stroke-width: 1.42 ;&st7;  " /><path d=" M   526.91,   205.75  L   526.91,   231.25  L   611.90,   231.25  L   611.90,   205.75  L   526.91,   205.75  " style="stroke-width: 1.42 ;&st7;  " /><path d=" M   526.91,   171.76  L   526.91,   197.25  L   611.90,   197.25  L   611.90,   171.76  L   526.91,   171.76  " style="stroke-width: 1.42 ;&st7;  " /><g ewd:code="C38" ewd:figID="8" ewd:figtype="conn"><g ewd:lineID="36"><text style="&st18;" transform="matrix(&st16;  724.54  618.49 )">8</text></g><g ewd:lineID="37"><text style="&st18;" transform="matrix(&st16;  724.54  584.5 )">4</text></g><g ewd:lineID="38"><text style="&st18;" transform="matrix(&st16;  724.54  550.5 )">3</text></g><g ewd:lineID="39"><text style="&st18;" transform="matrix(&st16;  724.54  516.51 )">2</text></g><g ewd:lineID="40"><text style="&st18;" transform="matrix(&st16;  724.54  482.51 )">1</text></g><g ewd:lineID="41"><text style="&st18;" transform="matrix(&st16;  724.54  448.52 )">7</text></g><g ewd:lineID="42"><text style="&st18;" transform="matrix(&st16;  733.04  638.87 )">6</text></g><path d=" M   730.88,   443.71  L   730.88,   630.68  L   747.87,   630.68  L   747.87,   443.71  L   730.88,   443.71  " style="stroke-width: 1.42 ;&st7;  " /><path d=" M   738.18,   485.20  L   737.91,   485.67  L   737.82,   486.20  L   737.91,   486.74  L   738.18,   487.21  L   738.60,   487.55  L   739.10,   487.74  L   739.65,   487.74  L   740.16,   487.55  L   740.57,   487.21  L   740.84,   486.74  L   740.93,   486.20  L   740.84,   485.67  L   740.57,   485.20  L   740.16,   484.86  L   739.65,   484.67  L   739.10,   484.67  L   738.60,   484.86  L   738.18,   485.20  L   738.58,   485.91  L   738.58,   486.50  L   738.95,   486.94  L   739.52,   487.04  L   740.03,   486.75  L   740.23,   486.20  L   740.03,   485.66  L   739.52,   485.37  L   738.95,   485.47  L   739.38,   486.20  " style="stroke-width: 0.85 ;&st7;  " /><path d=" M   730.88,   520.20  L   739.38,   520.20  " style="stroke-width: 0.85 ;&st7;  " /><path d=" M   730.88,   554.19  L   739.38,   554.19  " style="stroke-width: 0.85 ;&st7;  " /><path d=" M   730.88,   588.19  L   739.38,   588.19  " style="stroke-width: 0.85 ;&st7;  " /><path d=" M   730.88,   622.18  L   739.38,   622.18  " style="stroke-width: 0.85 ;&st7;  " /><path d=" M   738.18,   621.18  L   737.91,   621.65  L   737.82,   622.18  L   737.91,   622.71  L   738.18,   623.18  L   738.60,   623.53  L   739.10,   623.72  L   739.65,   623.72  L   740.16,   623.53  L   740.57,   623.18  L   740.84,   622.71  L   740.93,   622.18  L   740.84,   621.65  L   740.57,   621.18  L   740.16,   620.83  L   739.65,   620.65  L   739.10,   620.65  L   738.60,   620.83  L   738.18,   621.18  L   738.58,   621.89  L   738.58,   622.47  L   738.95,   622.92  L   739.52,   623.02  L   740.03,   622.73  L   740.23,   622.18  L   740.03,   621.63  L   739.52,   621.35  L   738.95,   621.44  L   739.38,   622.18  " style="stroke-width: 0.85 ;&st7;  " /><path d=" M   738.18,   587.18  L   737.91,   587.65  L   737.82,   588.19  L   737.91,   588.72  L   738.18,   589.19  L   738.60,   589.54  L   739.10,   589.72  L   739.65,   589.72  L   740.16,   589.54  L   740.57,   589.19  L   740.84,   588.72  L   740.93,   588.19  L   740.84,   587.65  L   740.57,   587.18  L   740.16,   586.84  L   739.65,   586.65  L   739.10,   586.65  L   738.60,   586.84  L   738.18,   587.18  L   738.58,   587.90  L   738.58,   588.48  L   738.95,   588.92  L   739.52,   589.02  L   740.03,   588.73  L   740.23,   588.19  L   740.03,   587.64  L   739.52,   587.35  L   738.95,   587.45  L   739.38,   588.19  " style="stroke-width: 0.85 ;&st7;  " /><path d=" M   738.18,   553.19  L   737.91,   553.66  L   737.82,   554.19  L   737.91,   554.73  L   738.18,   555.20  L   738.60,   555.54  L   739.10,   555.73  L   739.65,   555.73  L   740.16,   555.54  L   740.57,   555.20  L   740.84,   554.73  L   740.93,   554.19  L   740.84,   553.66  L   740.57,   553.19  L   740.16,   552.84  L   739.65,   552.66  L   739.10,   552.66  L   738.60,   552.84  L   738.18,   553.19  L   738.58,   553.90  L   738.58,   554.48  L   738.95,   554.93  L   739.52,   555.03  L   740.03,   554.74  L   740.23,   554.19  L   740.03,   553.65  L   739.52,   553.36  L   738.95,   553.46  L   739.38,   554.19  " style="stroke-width: 0.85 ;&st7;  " /><path d=" M   738.18,   519.20  L   737.91,   519.67  L   737.82,   520.20  L   737.91,   520.73  L   738.18,   521.20  L   738.60,   521.55  L   739.10,   521.73  L   739.65,   521.73  L   740.16,   521.55  L   740.57,   521.20  L   740.84,   520.73  L   740.93,   520.20  L   740.84,   519.67  L   740.57,   519.20  L   740.16,   518.85  L   739.65,   518.66  L   739.10,   518.66  L   738.60,   518.85  L   738.18,   519.20  L   738.58,   519.91  L   738.58,   520.49  L   738.95,   520.94  L   739.52,   521.03  L   740.03,   520.75  L   740.23,   520.20  L   740.03,   519.65  L   739.52,   519.36  L   738.95,   519.46  L   739.38,   520.20  " style="stroke-width: 0.85 ;&st7;  " /><path d=" M   730.88,   452.21  L   739.38,   452.21  L   739.38,   630.68  " style="stroke-width: 0.85 ;&st7;  " /><path d=" M   730.88,   486.20  L   739.38,   486.20  " style="stroke-width: 0.85 ;&st7;  " /><g ewd:figtype="title"><text style="&st18;" transform="matrix(&st17;  755.77  625.08 )">C38</text><text ewd:textID="85" style="&st18;" transform="matrix(&st17;  762.59  625.09 )">No. 4 Junction Connector</text></g></g><g ewd:code="Ch1" ewd:figID="23" ewd:figtype="w2w"><text style="&st18;" transform="matrix(&st16;  581.48  500.92 )">1</text><path d=" M   599.15,   508.87  L   594.90,   504.62  L   590.65,   508.87  " style="stroke-width: 1.42 ;&st7;  " /><path d=" M   599.15,   512.27  L   594.90,   508.02  L   590.65,   512.27  " style="stroke-width: 1.42 ;&st7;  " /></g><g ewd:code="CB" ewd:figID="83" ewd:figtype="gp"><path d=" M   815.86,   697.25  L   815.86,   701.50  " style="stroke-width: 0.85 ;&st7;  " /><path d=" M   807.36,   701.50  L   824.36,   701.50  " style="stroke-width: 0.85 ;&st7;  " /><path d=" M   811.61,   704.33  L   820.11,   704.33  " style="stroke-width: 0.85 ;&st7;  " /><path d=" M   813.03,   707.17  L   818.70,   707.17  " style="stroke-width: 0.85 ;&st7;  " /><path d=" M   814.45,   710.00  L   817.28,   710.00  " style="stroke-width: 0.85 ;&st7;  " /></g><g ewd:code=" " ewd:figID="175" ewd:figtype="annex"><path d=" M   620.54,   614.70  C   618.63    616.84    618.57    619.97    620.40    622.18  " style="stroke-width: 1.42 ;&st7;   " /><path d=" M   620.25,   629.67  C   622.16    627.52    622.22    624.39    620.40    622.18  " style="stroke-width: 1.42 ;&st7;   " /></g><g ewd:code=" " ewd:figID="176" ewd:figtype="annex"><path d=" M   620.54,   580.70  C   618.63    582.84    618.57    585.98    620.40    588.19  " style="stroke-width: 1.42 ;&st7;   " /><path d=" M   620.25,   595.67  C   622.16    593.53    622.22    590.40    620.40    588.19  " style="stroke-width: 1.42 ;&st7;   " /></g><g ewd:code=" " ewd:figID="177" ewd:figtype="annex"><path d=" M   620.54,   546.71  C   618.63    548.85    618.57    551.98    620.40    554.19  " style="stroke-width: 1.42 ;&st7;   " /><path d=" M   620.25,   561.68  C   622.16    559.54    622.22    556.40    620.40    554.19  " style="stroke-width: 1.42 ;&st7;   " /></g><g ewd:code=" " ewd:figID="178" ewd:figtype="annex"><path d=" M   620.54,   512.71  C   618.63    514.85    618.57    517.99    620.40    520.20  " style="stroke-width: 1.42 ;&st7;   " /><path d=" M   620.25,   527.68  C   622.16    525.54    622.22    522.41    620.40    520.20  " style="stroke-width: 1.42 ;&st7;   " /></g><g ewd:code=" " ewd:figID="179" ewd:figtype="annex"><path d=" M   620.54,   478.72  C   618.63    480.86    618.57    483.99    620.40    486.20  " style="stroke-width: 1.42 ;&st7;   " /><path d=" M   620.25,   493.69  C   622.16    491.55    622.22    488.42    620.40    486.20  " style="stroke-width: 1.42 ;&st7;   " /></g><g ewd:code=" " ewd:figID="180" ewd:figtype="annex"><path d=" M   535.55,   546.71  C   533.65    548.85    533.59    551.98    535.41    554.19  " style="stroke-width: 1.42 ;&st7;   " /><path d=" M   535.27,   561.68  C   537.17    559.54    537.23    556.40    535.41    554.19  " style="stroke-width: 1.42 ;&st7;   " /></g><g ewd:code=" " ewd:figID="181" ewd:figtype="annex"><path d=" M   535.55,   572.20  C   533.65    574.35    533.59    577.48    535.41    579.69  " style="stroke-width: 1.42 ;&st7;   " /><path d=" M   535.27,   587.17  C   537.17    585.03    537.23    581.90    535.41    579.69  " style="stroke-width: 1.42 ;&st7;   "/></g><g ewd:code="1" ewd:comment="" ewd:figID="173" ewd:figtype="comment"><text style="&st18;" transform="matrix(&st16;  540.5  29.25 )">* 1 :1GR-FE</text></g><g ewd:code="2" ewd:comment="" ewd:figID="174" ewd:figtype="comment"><text style="&st18;" transform="matrix(&st16;  540.5  37.75 )">* 2 :1HZ</text></g></svg>
