<?xml version="1.0" encoding="utf-8"?>
<!DOCTYPE svg PUBLIC "-//W3C//DTD SVG 1.0//EN" "http://www.w3.org/TR/2001/REC-SVG-20010904/DTD/svg10.dtd"[
	<!ENTITY ns_flows "http://ns.adobe.com/Flows/1.0/">
	<!ENTITY ns_svg "http://www.w3.org/2000/svg">
	<!ENTITY ns_xlink "http://www.w3.org/1999/xlink">
	<!ENTITY st0 "font-size:7px;font-family:'MS-PGothic';adobe-font-script:japanese;">
	<!ENTITY st1 "font-size:6px;font-family:'ArialMT';">
	<!-- White fill  -->
	<!ENTITY st2 "fill:#FFFFFF;stroke:#000000; stroke-width:1.41;stroke-linecap:round;stroke-linejoin:round;">
	<!-- Yellow fill  -->
	<!ENTITY st3 "fill:#FFFFCC;stroke:#FFFFCC; stroke-width:0.1;stroke-linecap:round;stroke-linejoin:round;">
	<!-- Gray fill  -->
	<!ENTITY st4 "fill:#CCCCCC;stroke:#CCCCCC; stroke-width:0.1;stroke-linecap:round;stroke-linejoin:round;">
	<!-- Light-blue fill -->
	<!ENTITY st5 "fill:#CCECF4;stroke:#000000; stroke-width:1.133;stroke-linecap:round;stroke-linejoin:round;">
	<!ENTITY st6 "fill:none;stroke-linecap:butt; stroke-linejoin:round;">
	<!ENTITY st7 "fill:none;stroke:#000000;stroke-linecap:round;stroke-linejoin:round;">
	<!ENTITY st8 "enable-background:new    ;">
	<!-- Black fill -->
	<!ENTITY st9 "fill:#000000;stroke:#000000; stroke-linecap:round;stroke-linejoin:round;">
	<!-- SRS note   -->
	<!ENTITY st10 "font-size:9px;font-family:'ArialMT';">
	<!ENTITY st11 "font-size:9px;font-family:'Svg Symbol';">
	<!ENTITY st12 "font-size:6px;font-family:'Svg Symbol';">
	<!ENTITY st13 "fill:none;stroke:#ff0000;stroke-linecap:round;stroke-linejoin:round;">
	<!-- Yellow fill  -->
	<!ENTITY st14 "fill:#FFFF00;stroke:#FFFF00; stroke-width:0.1;stroke-linecap:round;stroke-linejoin:round;">
	<!ENTITY st15 "font-size:6px;font-family:'MS-PGothic';adobe-font-script:japanese;">
	<!ENTITY st16 "1.00 0.00 0.00 1.00">
	<!ENTITY st17 "0.00 -1.00 1.00 0.00">
	<!ENTITY st18 "font-size:6px;font-family:'Arial';">
	<!ENTITY st19 "font-size:9px;font-family:'Arial';">
	<!ENTITY st20 "font-size:6px;font-family:'MS-PGothic','MS PGothic';adobe-font-script:japanese;">
	<!ENTITY st21 "font-size:7px;font-family:'MS-PGothic','MS PGothic';adobe-font-script:japanese;">
	<!ATTLIST svg
		xmlns:ewd CDATA #FIXED "http://shcl.co.jp/ewd"
		xmlns:a CDATA #FIXED "http://ns.adobe.com/AdobeSVGViewerExtensions/3.0/"
		ewd:ver CDATA #IMPLIED
	>
	<!ATTLIST a
		ewd:lineID CDATA #IMPLIED
		ewd:groupID CDATA #IMPLIED
		ewd:figtype CDATA #IMPLIED
		ewd:code CDATA #IMPLIED
		ewd:figID CDATA #IMPLIED
		ewd:pinNo CDATA #IMPLIED
		ewd:comment CDATA #IMPLIED >
	<!ATTLIST g
		ewd:lineID CDATA #IMPLIED
		ewd:groupID CDATA #IMPLIED
		ewd:figtype CDATA #IMPLIED
		ewd:code CDATA #IMPLIED
		ewd:figID CDATA #IMPLIED
		ewd:pinNo CDATA #IMPLIED
		ewd:comment CDATA #IMPLIED >
	<!ATTLIST text
		ewd:textID CDATA #IMPLIED >
	<!ATTLIST title
		ewd:textID CDATA #IMPLIED >
]>
<!-- Generator: Shintec Hozumi YS   -->
<svg onload="call_execInitLoadProc_svg('system')" style="overflow:visible;  enable-background:new 0 0 7769.608 710.000" viewBox="0 0 7769.608 710.000" height="710.000" width="7769.608" xml:space="preserve" ewd:ver="2.3.1.16" xmlns="&ns_svg;" xmlns:a="http://ns.adobe.com/AdobeSVGViewerExtensions/3.0/" xmlns:ewd="http://shcl.co.jp/ewd" xmlns:xlink="&ns_xlink;">
<text ewd:textID="43" style="&st18;" transform="matrix(&st16;  1564.58  94.41 )">Antenna Switch <tspan dy="6.0" x="0 ">Assembly</tspan></text><text style="&st18;" transform="matrix(&st16;  1685.0  219.05 )">W-B</text><text style="&st18;" transform="matrix(&st16;  1564.58  19.31 )">L7</text><text style="&st18;" transform="matrix(&st16;  1564.58  393.25 )">L46</text><path d=" M  1750.71,    83.24  L  1745.74,    78.27  " style="stroke-width: 1.42 ;&st7;  " /><path d=" M  1733.71,    90.30  L  1738.68,    95.27  " style="stroke-width: 1.42 ;&st7;  " /><path d=" M  1745.74,    95.27  L  1750.71,    90.30  " style="stroke-width: 1.42 ;&st7;  " /><path d=" M  1738.68,    78.27  L  1733.71,    83.24  " style="stroke-width: 1.42 ;&st7;  " /><path d=" M  1750.71,   185.23  L  1745.74,   180.26  " style="stroke-width: 1.42 ;&st7;  " /><path d=" M  1733.71,   192.28  L  1738.68,   197.25  " style="stroke-width: 1.42 ;&st7;  " /><path d=" M  1745.74,   197.25  L  1750.71,   192.28  " style="stroke-width: 1.42 ;&st7;  " /><path d=" M  1738.68,   180.26  L  1733.71,   185.23  " style="stroke-width: 1.42 ;&st7;  " /><text style="&st18;" transform="matrix(&st16;  1564.58  87.3 )">L45</text><text style="&st18;" transform="matrix(&st16;  1564.58  155.29 )">L8</text><text style="&st18;" transform="matrix(&st16;  1564.58  529.23 )">L16</text><text style="&st18;" transform="matrix(&st16;  1564.58  563.22 )">L30</text><text style="&st18;" transform="matrix(&st16;  1685.0  15.09 )">W-B</text><text style="&st18;" transform="matrix(&st16;  1685.0  49.08 )">W-B</text><text style="&st18;" transform="matrix(&st16;  1685.0  83.07 )">W-B</text><path d=" M  1895.18,   321.20  L  1890.21,   316.23  " style="stroke-width: 1.42 ;&st7;  " /><path d=" M  1878.19,   328.26  L  1883.16,   333.23  " style="stroke-width: 1.42 ;&st7;  " /><path d=" M  1890.21,   333.23  L  1895.18,   328.26  " style="stroke-width: 1.42 ;&st7;  " /><path d=" M  1883.16,   316.23  L  1878.19,   321.20  " style="stroke-width: 1.42 ;&st7;  " /><text style="&st18;" transform="matrix(&st17;  1882.99  381.44 )">W-B</text><path d=" M  1895.18,   423.19  L  1890.21,   418.22  " style="stroke-width: 1.42 ;&st7;  " /><path d=" M  1878.19,   430.24  L  1883.16,   435.21  " style="stroke-width: 1.42 ;&st7;  " /><path d=" M  1890.21,   435.21  L  1895.18,   430.24  " style="stroke-width: 1.42 ;&st7;  " /><path d=" M  1883.16,   418.22  L  1878.19,   423.19  " style="stroke-width: 1.42 ;&st7;  " /><text style="&st18;" transform="matrix(&st16;  1685.0  491.01 )">W-B</text><text style="&st18;" transform="matrix(&st16;  1685.0  457.01 )">W-B</text><text style="&st18;" transform="matrix(&st16;  1564.58  461.24 )">L61</text><path d=" M  1903.68,   617.93  L  1903.68,   622.18  " style="stroke-width: 1.42 ;&st7;  " /><text style="&st18;" transform="matrix(&st16;  1931.46  618.48 )">W-B</text><text style="&st18;" transform="matrix(&st16;  1930.95  629.82 )">(*12)</text><text style="&st18;" transform="matrix(&st16;  1574.01  629.82 )">(*13)</text><text style="&st18;" transform="matrix(&st16;  1574.52  618.48 )">W-B</text><text style="&st18;" transform="matrix(&st16;  1574.52  660.98 )">W-B</text><text style="&st18;" transform="matrix(&st16;  1685.0  117.07 )">W-B</text><text style="&st18;" transform="matrix(&st16;  1685.0  151.06 )">W-B</text><text style="&st18;" transform="matrix(&st16;  1685.0  185.06 )">W-B</text><text style="&st18;" transform="matrix(&st16;  1685.0  389.02 )">W-B</text><text style="&st18;" transform="matrix(&st16;  1685.0  423.02 )">W-B</text><text style="&st18;" transform="matrix(&st16;  1685.0  525.0 )">W-B</text><text style="&st18;" transform="matrix(&st16;  1685.0  558.99 )">W-B</text><text style="&st18;" transform="matrix(&st16;  1685.0  618.48 )">W-B</text><text style="&st18;" transform="matrix(&st16;  1525.31  643.98 )">BR</text><text style="&st18;" transform="matrix(&st16;  1523.52  660.98 )">W-B</text><text style="&st18;" transform="matrix(&st16;  1914.46  660.98 )">W-B</text><text style="&st18;" transform="matrix(&st16;  1931.46  423.02 )">W-B</text><text style="&st18;" transform="matrix(&st16;  1931.46  508.0 )">W-B</text><text style="&st18;" transform="matrix(&st16;  1931.46  355.03 )">W-B</text><text style="&st18;" transform="matrix(&st16;  1931.46  321.03 )">W-B</text><text style="&st18;" transform="matrix(&st16;  1931.46  287.04 )">W-B</text><text style="&st18;" transform="matrix(&st16;  1837.97  321.03 )">W-B</text><text style="&st18;" transform="matrix(&st16;  1931.46  227.55 )">W-B</text><text style="&st18;" transform="matrix(&st16;  1931.46  185.06 )">W-B</text><text style="&st18;" transform="matrix(&st16;  1931.46  91.57 )">W-B</text><text style="&st18;" transform="matrix(&st16;  1931.46  57.58 )">W-B</text><text style="&st18;" transform="matrix(&st17;  1738.51  151.98 )">W-B</text><text style="&st18;" transform="matrix(&st17;  1738.51  236.97 )">W-B</text><text style="&st18;" transform="matrix(&st17;  1789.51  653.4 )">W-B</text><text ewd:textID="145" style="&st18;" transform="matrix(&st16;  1564.58  26.42 )">Rear Window Defogger <tspan dy="6.0" x="0 ">Switch Assembly</tspan></text><text ewd:textID="159" style="&st18;" transform="matrix(&st16;  1564.58  230.38 )">Transmission <tspan dy="6.0" x="0 ">Control Switch</tspan></text><text style="&st18;" transform="matrix(&st16;  1564.58  223.28 )">L17</text><text ewd:textID="160" style="&st18;" transform="matrix(&st16;  1564.58  570.33 )">Transponder Key <tspan dy="6.0" x="0 ">ECU Assembly</tspan></text><text ewd:textID="133" style="&st18;" transform="matrix(&st16;  1564.58  536.33 )">Outer Mirror <tspan dy="6.0" x="0 ">Switch Assembly</tspan></text><text ewd:textID="68" style="&st18;" transform="matrix(&st16;  1564.58  400.35 )">Door Control <tspan dy="6.0" x="0 ">Switch Assembly</tspan></text><text style="&st18;" transform="matrix(&st16;  1684.49  629.82 )">(*13)</text><text style="&st18;" transform="matrix(&st16;  1913.95  672.31 )">(*13)</text><text style="&st18;" transform="matrix(&st16;  1931.46  151.06 )">W-B</text><text ewd:textID="79" style="&st18;" transform="matrix(&st16;  1564.58  162.39 )">Fuel Control <tspan dy="6.0" x="0 ">Switch Assembly</tspan></text><text style="&st18;" transform="matrix(&st16;  1925.64  162.39 )">(*52 *32)</text><text style="&st18;" transform="matrix(&st16;  1679.18  434.35 )">(*52 *33)</text><text style="&st18;" transform="matrix(&st16;  1686.16  230.38 )">(*2)</text><path d=" M  1878.19,   557.72  L  1883.16,   562.69  " style="stroke-width: 1.42 ;&st7;  " /><path d=" M  1895.18,   550.67  L  1890.21,   545.69  " style="stroke-width: 1.42 ;&st7;  " /><path d=" M  1529.89,   164.27  C  1527.98    166.41   1527.92    169.54   1529.74    171.76  " style="stroke-width: 1.42 ;&st7;   " /><path d=" M  1529.89,   189.77  C  1527.98    191.91   1527.92    195.04   1529.74    197.25  " style="stroke-width: 1.42 ;&st7;   " /><path d=" M  1529.89,   215.26  C  1527.98    217.40   1527.92    220.54   1529.74    222.75  " style="stroke-width: 1.42 ;&st7;   " /><path d=" M  1529.89,    87.78  C  1527.98     89.93   1527.92     93.06   1529.74     95.27  " style="stroke-width: 1.42 ;&st7;   " /><path d=" M  1529.89,   113.28  C  1527.98    115.42   1527.92    118.55   1529.74    120.76  " style="stroke-width: 1.42 ;&st7;   " /><path d=" M  1529.89,   138.78  C  1527.98    140.92   1527.92    144.05   1529.74    146.26  " style="stroke-width: 1.42 ;&st7;   " /><text style="&st18;" transform="matrix(&st16;  1930.95  519.33 )">(*41)</text><path d=" M  1883.16,   545.69  L  1878.19,   550.67  " style="stroke-width: 1.42 ;&st7;  " /><text style="&st18;" transform="matrix(&st17;  1882.99  491.93 )">W-B</text><text style="&st18;" transform="matrix(&st16;  1931.46  457.01 )">W-B</text><text style="&st18;" transform="matrix(&st16;  1930.95  468.34 )">(*39)</text><text style="&st18;" transform="matrix(&st16;  1932.62  298.37 )">(*2)</text><text style="&st18;" transform="matrix(&st16;  1930.95  595.82 )">(*39)</text><text style="&st18;" transform="matrix(&st16;  1930.95  561.83 )">(*39)</text><path d=" M  1890.21,   562.69  L  1895.18,   557.72  " style="stroke-width: 1.42 ;&st7;  " /><text style="&st18;" transform="matrix(&st16;  1845.97  629.82 )">(*12)</text><text style="&st18;" transform="matrix(&st16;  1846.47  618.48 )">W-B</text><text style="&st18;" transform="matrix(&st16;  1679.18  366.36 )">(*52 *38)</text><text style="&st18;" transform="matrix(&st16;  1685.0  355.03 )">W-B</text><text style="&st18;" transform="matrix(&st16;  1769.98  244.55 )">W-B</text><text style="&st18;" transform="matrix(&st16;  1933.24  550.5 )">BR</text><text style="&st18;" transform="matrix(&st16;  1933.24  584.49 )">BR</text><text style="&st18;" transform="matrix(&st16;  1931.46  389.02 )">W-B</text><text style="&st18;" transform="matrix(&st16;  1685.0  321.03 )">W-B</text><text style="&st18;" transform="matrix(&st16;  1679.18  332.37 )">(*52 *38)</text><text style="&st18;" transform="matrix(&st16;  1564.58  325.26 )">L6</text><text ewd:textID="99" style="&st18;" transform="matrix(&st16;  1564.58  332.37 )">Idle Up Switch</text><text ewd:textID="59" style="&st18;" transform="matrix(&st16;  1564.58  264.38 )">Combination <tspan dy="6.0" x="0 ">Switch Assembly</tspan></text><text style="&st18;" transform="matrix(&st16;  1684.49  570.33 )">(*49)</text><text style="&st18;" transform="matrix(&st16;  1685.0  584.49 )">W-B</text><text style="&st18;" transform="matrix(&st16;  1684.49  595.82 )">(*50)</text><text style="&st18;" transform="matrix(&st16;  1564.58  257.27 )">L60</text><text style="&st18;" transform="matrix(&st16;  1576.3  643.98 )">BR</text><text style="&st18;" transform="matrix(&st16;  1837.97  15.09 )">W-B</text><path d=" M  1895.18,    14.53  L  1895.18,    18.78  " style="stroke-width: 1.42 ;&st7;  " /><text style="&st18;" transform="matrix(&st16;  1839.13  26.42 )">(*9)</text><text style="&st18;" transform="matrix(&st16;  1684.49  400.35 )">(*53)</text><text style="&st18;" transform="matrix(&st16;  1931.46  15.09 )">W-B</text><text style="&st18;" transform="matrix(&st16;  1932.62  26.42 )">(*9)</text><text style="&st18;" transform="matrix(&st16;  1679.18  264.38 )">(*53 *38)</text><text style="&st18;" transform="matrix(&st16;  1679.18  298.37 )">(*53 *38)</text><text style="&st18;" transform="matrix(&st16;  1684.49  468.34 )">(*53)</text><text ewd:textID="68" style="&st18;" transform="matrix(&st16;  1564.58  468.34 )">Door Control <tspan dy="6.0" x="0 ">Switch Assembly</tspan></text><text style="&st18;" transform="matrix(&st16;  1679.18  502.34 )">(*52 *33)</text><text style="&st18;" transform="matrix(&st16;  1523.02  629.82 )">(*13)</text><text style="&st18;" transform="matrix(&st16;  1523.52  618.48 )">W-B</text><text style="&st18;" transform="matrix(&st16;  1685.0  253.05 )">W-B</text><text style="&st18;" transform="matrix(&st16;  1685.0  287.04 )">W-B</text><path d=" M  1563.74,    10.28  L  1563.74,    69.77  L  1648.72,    69.77  L  1648.72,    10.28  L  1563.74,    10.28  " style="stroke-width: 1.42 ;&st7;  " /><text style="&st18;" transform="matrix(&st16;  1638.5  20.75 )">(E)</text><path d=" M  1563.74,   384.22  L  1563.74,   443.71  L  1648.72,   443.71  L  1648.72,   384.22  L  1563.74,   384.22  " style="stroke-width: 1.42 ;&st7;  " /><text style="&st18;" transform="matrix(&st16;  1632.3  394.69 )">(ILL-)</text><path d=" M  1980.17,    52.78  L  1980.17,    78.27  L  2065.15,    78.27  L  2065.15,    52.78  L  1980.17,    52.78  " style="stroke-width: 1.42 ;&st7;  " /><text style="&st18;" transform="matrix(&st16;  1981.9  63.24 )">(ILL-)</text><path d=" M  1980.17,    86.77  L  1980.17,   137.76  L  2065.15,   137.76  L  2065.15,    86.77  L  1980.17,    86.77  " style="stroke-width: 1.42 ;&st7;  " /><text style="&st18;" transform="matrix(&st16;  1981.9  97.24 )">(ILL-)</text><path d=" M  1980.17,   180.26  L  1980.17,   205.75  L  2065.15,   205.75  L  2065.15,   180.26  L  1980.17,   180.26  " style="stroke-width: 1.42 ;&st7;  " /><text style="&st18;" transform="matrix(&st16;  1981.9  190.72 )">(E)</text><path d=" M  1980.17,   222.75  L  1980.17,   265.24  L  2065.15,   265.24  L  2065.15,   222.75  L  1980.17,   222.75  " style="stroke-width: 1.42 ;&st7;  " /><text style="&st18;" transform="matrix(&st16;  1981.9  233.22 )">(E)</text><text style="&st18;" transform="matrix(&st16;  1632.3  54.75 )">(ILL-)</text><text style="&st18;" transform="matrix(&st16;  1638.5  428.68 )">(E)</text><path d=" M  1563.74,    78.27  L  1563.74,   137.76  L  1648.72,   137.76  L  1648.72,    78.27  L  1563.74,    78.27  " style="stroke-width: 1.42 ;&st7;  " /><text style="&st18;" transform="matrix(&st16;  1638.5  88.74 )">(E)</text><path d=" M  1563.74,   146.26  L  1563.74,   205.75  L  1648.72,   205.75  L  1648.72,   146.26  L  1563.74,   146.26  " style="stroke-width: 1.42 ;&st7;  " /><text style="&st18;" transform="matrix(&st16;  1638.5  156.73 )">(E)</text><text style="&st18;" transform="matrix(&st16;  1632.3  122.73 )">(ILL-)</text><text style="&st18;" transform="matrix(&st16;  1632.3  190.72 )">(ILL-)</text><path d=" M  1563.74,   520.20  L  1563.74,   545.69  L  1648.72,   545.69  L  1648.72,   520.20  L  1563.74,   520.20  " style="stroke-width: 1.42 ;&st7;  " /><text style="&st18;" transform="matrix(&st16;  1638.5  530.67 )">(E)</text><path d=" M  1563.74,   554.19  L  1563.74,   605.18  L  1648.72,   605.18  L  1648.72,   554.19  L  1563.74,   554.19  " style="stroke-width: 1.42 ;&st7;  " /><text style="&st18;" transform="matrix(&st16;  1629.2  564.66 )">(GND)</text><path d=" M  1980.17,   282.24  L  1980.17,   307.73  L  2065.15,   307.73  L  2065.15,   282.24  L  1980.17,   282.24  " style="stroke-width: 1.42 ;&st7;  " /><text style="&st18;" transform="matrix(&st16;  1981.9  292.71 )">(ILL-)</text><path d=" M  1980.17,   316.23  L  1980.17,   375.72  L  2065.15,   375.72  L  2065.15,   316.23  L  1980.17,   316.23  " style="stroke-width: 1.42 ;&st7;  " /><text style="&st18;" transform="matrix(&st16;  1981.9  326.7 )">(LFG)</text><path d=" M  1980.17,   503.20  L  1980.17,   537.20  L  2065.15,   537.20  L  2065.15,   503.20  L  1980.17,   503.20  " style="stroke-width: 1.42 ;&st7;  " /><text style="&st18;" transform="matrix(&st16;  1981.9  513.67 )">(E)</text><path d=" M  1980.17,   418.22  L  1980.17,   443.71  L  2065.15,   443.71  L  2065.15,   418.22  L  1980.17,   418.22  " style="stroke-width: 1.42 ;&st7;  " /><text style="&st18;" transform="matrix(&st16;  1981.9  428.68 )">(UN-)</text><text style="&st18;" transform="matrix(&st16;  1981.9  360.69 )">(EL)</text><text style="&st18;" transform="matrix(&st16;  1638.5  496.67 )">(E)</text><path d=" M  1980.17,   656.18  L  1980.17,   690.17  L  2065.15,   690.17  L  2065.15,   656.18  L  1980.17,   656.18  " style="stroke-width: 1.42 ;&st7;  " /><text style="&st18;" transform="matrix(&st16;  1981.9  666.64 )">(E)</text><path d=" M  1980.17,   613.68  L  1980.17,   647.68  L  2065.15,   647.68  L  2065.15,   613.68  L  1980.17,   613.68  " style="stroke-width: 1.42 ;&st7;  " /><text style="&st18;" transform="matrix(&st16;  1981.9  624.15 )">(E)</text><text style="&st18;" transform="matrix(&st16;  1629.2  224.72 )">(GND)</text><path d=" M  1563.74,   214.25  L  1563.74,   239.75  L  1648.72,   239.75  L  1648.72,   214.25  L  1563.74,   214.25  " style="stroke-width: 1.42 ;&st7;  " /><text style="&st18;" transform="matrix(&st16;  1632.3  462.68 )">(ILL-)</text><path d=" M  1563.74,   452.21  L  1563.74,   511.70  L  1648.72,   511.70  L  1648.72,   452.21  L  1563.74,   452.21  " style="stroke-width: 1.42 ;&st7;  " /><path d=" M  1980.17,   452.21  L  1980.17,   494.70  L  2065.15,   494.70  L  2065.15,   452.21  L  1980.17,   452.21  " style="stroke-width: 1.42 ;&st7;  " /><path d=" M  1980.17,   146.26  L  1980.17,   171.76  L  2065.15,   171.76  L  2065.15,   146.26  L  1980.17,   146.26  " style="stroke-width: 1.42 ;&st7;  " /><text style="&st18;" transform="matrix(&st16;  1981.9  156.73 )">(ILL-)</text><text style="&st18;" transform="matrix(&st16;  1981.9  556.16 )">(ILL-)</text><text style="&st18;" transform="matrix(&st16;  1981.9  462.68 )">(ESS)</text><path d=" M  1980.17,   545.69  L  1980.17,   605.18  L  2065.15,   605.18  L  2065.15,   545.69  L  1980.17,   545.69  " style="stroke-width: 1.42 ;&st7;  " /><text style="&st18;" transform="matrix(&st16;  1981.9  590.16 )">(E)</text><text style="&st18;" transform="matrix(&st16;  1981.9  394.69 )">(EW)</text><path d=" M  1980.17,   384.22  L  1980.17,   409.72  L  2065.15,   409.72  L  2065.15,   384.22  L  1980.17,   384.22  " style="stroke-width: 1.42 ;&st7;  " /><text style="&st18;" transform="matrix(&st16;  1638.5  360.69 )">(E)</text><path d=" M  1563.74,   316.23  L  1563.74,   375.72  L  1648.72,   375.72  L  1648.72,   316.23  L  1563.74,   316.23  " style="stroke-width: 1.42 ;&st7;  " /><text style="&st18;" transform="matrix(&st16;  1632.3  326.7 )">(ILL-)</text><text style="&st18;" transform="matrix(&st16;  1625.17  590.16 )">(AGND)</text><text style="&st18;" transform="matrix(&st16;  1638.5  292.71 )">(E)</text><path d=" M  1980.17,    10.28  L  1980.17,    44.28  L  2065.15,    44.28  L  2065.15,    10.28  L  1980.17,    10.28  " style="stroke-width: 1.42 ;&st7;  " /><text style="&st18;" transform="matrix(&st16;  1981.9  20.75 )">(E)</text><text style="&st18;" transform="matrix(&st16;  1632.3  258.71 )">(ILL-)</text><path d=" M  1563.74,   248.24  L  1563.74,   307.73  L  1648.72,   307.73  L  1648.72,   248.24  L  1563.74,   248.24  " style="stroke-width: 1.42 ;&st7;  " /><g ewd:code="L53" ewd:figID="18" ewd:figtype="conn"><g ewd:lineID="105"><text style="&st18;" transform="matrix(&st16;  1778.36  618.49 )">9</text></g><g ewd:lineID="106,86"><text style="&st18;" transform="matrix(&st16;  1778.36  559.0 )">8</text></g><g ewd:lineID="107"><text style="&st18;" transform="matrix(&st16;  1778.36  525.01 )">7</text></g><g ewd:lineID="112"><text style="&st18;" transform="matrix(&st16;  1786.86  638.87 )">5</text></g><g ewd:lineID="113"><text style="&st18;" transform="matrix(&st16;  1786.86  278.55 )">4</text></g><g ewd:lineID="114"><text style="&st18;" transform="matrix(&st16;  1804.28  321.04 )">13</text></g><g ewd:lineID="115"><text style="&st18;" transform="matrix(&st16;  1804.28  287.05 )">11</text></g><g ewd:lineID="87,89"><text style="&st18;" transform="matrix(&st16;  1778.36  423.02 )">6</text></g><g ewd:lineID="88,90"><text style="&st18;" transform="matrix(&st16;  1778.36  389.03 )">2</text></g><g ewd:lineID="91,93"><text style="&st18;" transform="matrix(&st16;  1778.36  355.04 )">3</text></g><g ewd:lineID="92,94"><text style="&st18;" transform="matrix(&st16;  1778.36  321.04 )">1</text></g><path d=" M  1784.70,   282.24  L  1784.70,   630.68  L  1801.70,   630.68  L  1801.70,   282.24  L  1784.70,   282.24  " style="stroke-width: 1.42 ;&st7;  " /><path d=" M  1801.70,   290.74  L  1793.20,   290.74  " style="stroke-width: 0.85 ;&st7;  " /><path d=" M  1784.70,   324.73  L  1801.70,   324.73  " style="stroke-width: 0.85 ;&st7;  " /><path d=" M  1784.70,   358.73  L  1793.20,   358.73  " style="stroke-width: 0.85 ;&st7;  " /><path d=" M  1793.20,   282.24  L  1793.20,   630.68  " style="stroke-width: 0.85 ;&st7;  " /><path d=" M  1784.70,   392.72  L  1793.20,   392.72  " style="stroke-width: 0.85 ;&st7;  " /><path d=" M  1784.70,   426.71  L  1793.20,   426.71  " style="stroke-width: 0.85 ;&st7;  " /><path d=" M  1784.70,   528.70  L  1793.20,   528.70  " style="stroke-width: 0.85 ;&st7;  " /><path d=" M  1784.70,   562.69  L  1793.20,   562.69  " style="stroke-width: 0.85 ;&st7;  " /><path d=" M  1784.70,   622.18  L  1793.20,   622.18  " style="stroke-width: 0.85 ;&st7;  " /><path d=" M  1792.01,   323.73  L  1791.74,   324.20  L  1791.64,   324.73  L  1791.74,   325.26  L  1792.01,   325.73  L  1792.42,   326.08  L  1792.93,   326.27  L  1793.47,   326.27  L  1793.98,   326.08  L  1794.39,   325.73  L  1794.66,   325.26  L  1794.76,   324.73  L  1794.66,   324.20  L  1794.39,   323.73  L  1793.98,   323.38  L  1793.47,   323.20  L  1792.93,   323.20  L  1792.42,   323.38  L  1792.01,   323.73  L  1792.40,   324.44  L  1792.40,   325.02  L  1792.77,   325.47  L  1793.35,   325.57  L  1793.85,   325.28  L  1794.05,   324.73  L  1793.85,   324.18  L  1793.35,   323.90  L  1792.77,   323.99  L  1793.20,   324.73  " style="stroke-width: 0.85 ;&st7;  " /><path d=" M  1792.01,   357.72  L  1791.74,   358.19  L  1791.64,   358.73  L  1791.74,   359.26  L  1792.01,   359.73  L  1792.42,   360.07  L  1792.93,   360.26  L  1793.47,   360.26  L  1793.98,   360.07  L  1794.39,   359.73  L  1794.66,   359.26  L  1794.76,   358.73  L  1794.66,   358.19  L  1794.39,   357.72  L  1793.98,   357.38  L  1793.47,   357.19  L  1792.93,   357.19  L  1792.42,   357.38  L  1792.01,   357.72  L  1792.40,   358.43  L  1792.40,   359.02  L  1792.77,   359.46  L  1793.35,   359.56  L  1793.85,   359.27  L  1794.05,   358.73  L  1793.85,   358.18  L  1793.35,   357.89  L  1792.77,   357.99  L  1793.20,   358.73  " style="stroke-width: 0.85 ;&st7;  " /><path d=" M  1792.01,   391.72  L  1791.74,   392.19  L  1791.64,   392.72  L  1791.74,   393.25  L  1792.01,   393.72  L  1792.42,   394.07  L  1792.93,   394.26  L  1793.47,   394.26  L  1793.98,   394.07  L  1794.39,   393.72  L  1794.66,   393.25  L  1794.76,   392.72  L  1794.66,   392.19  L  1794.39,   391.72  L  1793.98,   391.37  L  1793.47,   391.18  L  1792.93,   391.18  L  1792.42,   391.37  L  1792.01,   391.72  L  1792.40,   392.43  L  1792.40,   393.01  L  1792.77,   393.46  L  1793.35,   393.56  L  1793.85,   393.27  L  1794.05,   392.72  L  1793.85,   392.17  L  1793.35,   391.88  L  1792.77,   391.98  L  1793.20,   392.72  " style="stroke-width: 0.85 ;&st7;  " /><path d=" M  1792.01,   425.71  L  1791.74,   426.18  L  1791.64,   426.71  L  1791.74,   427.25  L  1792.01,   427.72  L  1792.42,   428.06  L  1792.93,   428.25  L  1793.47,   428.25  L  1793.98,   428.06  L  1794.39,   427.72  L  1794.66,   427.25  L  1794.76,   426.71  L  1794.66,   426.18  L  1794.39,   425.71  L  1793.98,   425.37  L  1793.47,   425.18  L  1792.93,   425.18  L  1792.42,   425.37  L  1792.01,   425.71  L  1792.40,   426.42  L  1792.40,   427.01  L  1792.77,   427.45  L  1793.35,   427.55  L  1793.85,   427.26  L  1794.05,   426.71  L  1793.85,   426.17  L  1793.35,   425.88  L  1792.77,   425.98  L  1793.20,   426.71  " style="stroke-width: 0.85 ;&st7;  " /><path d=" M  1792.01,   527.69  L  1791.74,   528.16  L  1791.64,   528.70  L  1791.74,   529.23  L  1792.01,   529.70  L  1792.42,   530.05  L  1792.93,   530.23  L  1793.47,   530.23  L  1793.98,   530.05  L  1794.39,   529.70  L  1794.66,   529.23  L  1794.76,   528.70  L  1794.66,   528.16  L  1794.39,   527.69  L  1793.98,   527.35  L  1793.47,   527.16  L  1792.93,   527.16  L  1792.42,   527.35  L  1792.01,   527.69  L  1792.40,   528.41  L  1792.40,   528.99  L  1792.77,   529.43  L  1793.35,   529.53  L  1793.85,   529.24  L  1794.05,   528.70  L  1793.85,   528.15  L  1793.35,   527.86  L  1792.77,   527.96  L  1793.20,   528.70  " style="stroke-width: 0.85 ;&st7;  " /><path d=" M  1792.01,   561.69  L  1791.74,   562.16  L  1791.64,   562.69  L  1791.74,   563.22  L  1792.01,   563.69  L  1792.42,   564.04  L  1792.93,   564.23  L  1793.47,   564.23  L  1793.98,   564.04  L  1794.39,   563.69  L  1794.66,   563.22  L  1794.76,   562.69  L  1794.66,   562.16  L  1794.39,   561.69  L  1793.98,   561.34  L  1793.47,   561.16  L  1792.93,   561.16  L  1792.42,   561.34  L  1792.01,   561.69  L  1792.40,   562.40  L  1792.40,   562.98  L  1792.77,   563.43  L  1793.35,   563.53  L  1793.85,   563.24  L  1794.05,   562.69  L  1793.85,   562.14  L  1793.35,   561.86  L  1792.77,   561.95  L  1793.20,   562.69  " style="stroke-width: 0.85 ;&st7;  " /><path d=" M  1792.01,   621.18  L  1791.74,   621.65  L  1791.64,   622.18  L  1791.74,   622.71  L  1792.01,   623.18  L  1792.42,   623.53  L  1792.93,   623.72  L  1793.47,   623.72  L  1793.98,   623.53  L  1794.39,   623.18  L  1794.66,   622.71  L  1794.76,   622.18  L  1794.66,   621.65  L  1794.39,   621.18  L  1793.98,   620.83  L  1793.47,   620.65  L  1792.93,   620.65  L  1792.42,   620.83  L  1792.01,   621.18  L  1792.40,   621.89  L  1792.40,   622.47  L  1792.77,   622.92  L  1793.35,   623.02  L  1793.85,   622.73  L  1794.05,   622.18  L  1793.85,   621.63  L  1793.35,   621.35  L  1792.77,   621.44  L  1793.20,   622.18  " style="stroke-width: 0.85 ;&st7;  " /><path d=" M  1792.01,   289.73  L  1791.74,   290.20  L  1791.64,   290.74  L  1791.74,   291.27  L  1792.01,   291.74  L  1792.42,   292.09  L  1792.93,   292.27  L  1793.47,   292.27  L  1793.98,   292.09  L  1794.39,   291.74  L  1794.66,   291.27  L  1794.76,   290.74  L  1794.66,   290.20  L  1794.39,   289.73  L  1793.98,   289.39  L  1793.47,   289.20  L  1792.93,   289.20  L  1792.42,   289.39  L  1792.01,   289.73  L  1792.40,   290.45  L  1792.40,   291.03  L  1792.77,   291.47  L  1793.35,   291.57  L  1793.85,   291.28  L  1794.05,   290.74  L  1793.85,   290.19  L  1793.35,   289.90  L  1792.77,   290.00  L  1793.20,   290.74  " style="stroke-width: 0.85 ;&st7;  " /><g ewd:figtype="title"><text style="&st18;" transform="matrix(&st17;  1809.59  429.61 )">L53</text><text ewd:textID="128" style="&st18;" transform="matrix(&st17;  1816.42  429.62 )">No. 31 Junction <tspan dy="6.0" x="0 ">Connector</tspan></text></g></g><g ewd:code="LS2" ewd:figID="38" ewd:figtype="w2w"><path d=" M  1904.25,    23.03  L  1900.00,    18.78  L  1904.25,    14.53  " style="stroke-width: 1.42 ;&st7;  " /><path d=" M  1900.85,    23.03  L  1896.60,    18.78  L  1900.85,    14.53  " style="stroke-width: 1.42 ;&st7;  " /><text style="&st18;" transform="matrix(&st16;  1883.14  11.54 )">14</text></g><g ewd:code="LM1" ewd:figID="39" ewd:figtype="w2w"><path d=" M  1909.35,   626.43  L  1905.10,   622.18  L  1909.35,   617.93  " style="stroke-width: 1.42 ;&st7;  " /><path d=" M  1912.75,   626.43  L  1908.50,   622.18  L  1912.75,   617.93  " style="stroke-width: 1.42 ;&st7;  " /><text style="&st18;" transform="matrix(&st16;  1893.31  614.94 )">6</text></g><g ewd:code="LA" ewd:figID="112" ewd:figtype="gp"><path d=" M  1742.21,   280.82  L  1742.21,   285.07  " style="stroke-width: 0.85 ;&st7;  " /><path d=" M  1740.79,   293.57  L  1743.62,   293.57  " style="stroke-width: 0.85 ;&st7;  " /><path d=" M  1739.38,   290.74  L  1745.04,   290.74  " style="stroke-width: 0.85 ;&st7;  " /><path d=" M  1737.96,   287.90  L  1746.46,   287.90  " style="stroke-width: 0.85 ;&st7;  " /><path d=" M  1733.71,   285.07  L  1750.71,   285.07  " style="stroke-width: 0.85 ;&st7;  " /></g><g ewd:code="LB" ewd:figID="113" ewd:figtype="gp"><path d=" M  1793.20,   697.25  L  1793.20,   701.50  " style="stroke-width: 0.85 ;&st7;  " /><path d=" M  1784.70,   701.50  L  1801.70,   701.50  " style="stroke-width: 0.85 ;&st7;  " /><path d=" M  1788.95,   704.33  L  1797.45,   704.33  " style="stroke-width: 0.85 ;&st7;  " /><path d=" M  1790.37,   707.17  L  1796.03,   707.17  " style="stroke-width: 0.85 ;&st7;  " /><path d=" M  1791.78,   710.00  L  1794.62,   710.00  " style="stroke-width: 0.85 ;&st7;  " /></g><g ewd:code=" " ewd:figID="271" ewd:figtype="annex"><path d=" M  1529.89,   164.27  C  1527.98    166.41   1527.92    169.54   1529.74    171.76  " style="stroke-width: 1.42 ;&st7;   " /><path d=" M  1529.60,   179.24  C  1531.51    177.10   1531.57    173.97   1529.74    171.76  " style="stroke-width: 1.42 ;&st7;   " /></g><g ewd:code=" " ewd:figID="272" ewd:figtype="annex"><path d=" M  1529.89,   189.77  C  1527.98    191.91   1527.92    195.04   1529.74    197.25  " style="stroke-width: 1.42 ;&st7;   " /><path d=" M  1529.60,   204.74  C  1531.51    202.60   1531.57    199.46   1529.74    197.25  " style="stroke-width: 1.42 ;&st7;   " /></g><g ewd:code=" " ewd:figID="273" ewd:figtype="annex"><path d=" M  1529.89,   215.26  C  1527.98    217.40   1527.92    220.54   1529.74    222.75  " style="stroke-width: 1.42 ;&st7;   " /><path d=" M  1529.60,   230.23  C  1531.51    228.09   1531.57    224.96   1529.74    222.75  " style="stroke-width: 1.42 ;&st7;   " /></g><g ewd:code=" " ewd:figID="275" ewd:figtype="annex"><path d=" M  1529.89,    87.78  C  1527.98     89.93   1527.92     93.06   1529.74     95.27  " style="stroke-width: 1.42 ;&st7;   " /><path d=" M  1529.60,   102.75  C  1531.51    100.61   1531.57     97.48   1529.74     95.27  " style="stroke-width: 1.42 ;&st7;   " /></g><g ewd:code=" " ewd:figID="276" ewd:figtype="annex"><path d=" M  1529.89,   113.28  C  1527.98    115.42   1527.92    118.55   1529.74    120.76  " style="stroke-width: 1.42 ;&st7;   " /><path d=" M  1529.60,   128.25  C  1531.51    126.11   1531.57    122.98   1529.74    120.77  " style="stroke-width: 1.42 ;&st7;   " /></g><g ewd:code=" " ewd:figID="277" ewd:figtype="annex"><path d=" M  1529.89,   138.78  C  1527.98    140.92   1527.92    144.05   1529.74    146.26  " style="stroke-width: 1.42 ;&st7;   " /><path d=" M  1529.60,   153.75  C  1531.51    151.60   1531.57    148.47   1529.74    146.26  " style="stroke-width: 1.42 ;&st7;   "/></g></svg>
