<?xml version="1.0" encoding="utf-8"?>
<!DOCTYPE svg PUBLIC "-//W3C//DTD SVG 1.0//EN" "http://www.w3.org/TR/2001/REC-SVG-20010904/DTD/svg10.dtd"[
	<!ENTITY ns_flows "http://ns.adobe.com/Flows/1.0/">
	<!ENTITY ns_svg "http://www.w3.org/2000/svg">
	<!ENTITY ns_xlink "http://www.w3.org/1999/xlink">
	<!ENTITY st0 "font-size:7px;font-family:'MS-PGothic';adobe-font-script:japanese;">
	<!ENTITY st1 "font-size:6px;font-family:'ArialMT';">
	<!-- White fill  -->
	<!ENTITY st2 "fill:#FFFFFF;stroke:#000000; stroke-width:1.41;stroke-linecap:round;stroke-linejoin:round;">
	<!-- Yellow fill  -->
	<!ENTITY st3 "fill:#FFFFCC;stroke:#FFFFCC; stroke-width:0.1;stroke-linecap:round;stroke-linejoin:round;">
	<!-- Gray fill  -->
	<!ENTITY st4 "fill:#CCCCCC;stroke:#CCCCCC; stroke-width:0.1;stroke-linecap:round;stroke-linejoin:round;">
	<!-- Light-blue fill -->
	<!ENTITY st5 "fill:#CCECF4;stroke:#000000; stroke-width:1.133;stroke-linecap:round;stroke-linejoin:round;">
	<!ENTITY st6 "fill:none;stroke-linecap:butt; stroke-linejoin:round;">
	<!ENTITY st7 "fill:none;stroke:#000000;stroke-linecap:round;stroke-linejoin:round;">
	<!ENTITY st8 "enable-background:new    ;">
	<!-- Black fill -->
	<!ENTITY st9 "fill:#000000;stroke:#000000; stroke-linecap:round;stroke-linejoin:round;">
	<!-- SRS note   -->
	<!ENTITY st10 "font-size:9px;font-family:'ArialMT';">
	<!ENTITY st11 "font-size:9px;font-family:'Svg Symbol';">
	<!ENTITY st12 "font-size:6px;font-family:'Svg Symbol';">
	<!ENTITY st13 "fill:none;stroke:#ff0000;stroke-linecap:round;stroke-linejoin:round;">
	<!-- Yellow fill  -->
	<!ENTITY st14 "fill:#FFFF00;stroke:#FFFF00; stroke-width:0.1;stroke-linecap:round;stroke-linejoin:round;">
	<!ENTITY st15 "font-size:6px;font-family:'MS-PGothic';adobe-font-script:japanese;">
	<!ENTITY st16 "1.00 0.00 0.00 1.00">
	<!ENTITY st17 "0.00 -1.00 1.00 0.00">
	<!ENTITY st18 "font-size:6px;font-family:'Arial';">
	<!ENTITY st19 "font-size:9px;font-family:'Arial';">
	<!ENTITY st20 "font-size:6px;font-family:'MS-PGothic','MS PGothic';adobe-font-script:japanese;">
	<!ENTITY st21 "font-size:7px;font-family:'MS-PGothic','MS PGothic';adobe-font-script:japanese;">
	<!ATTLIST svg
		xmlns:ewd CDATA #FIXED "http://shcl.co.jp/ewd"
		xmlns:a CDATA #FIXED "http://ns.adobe.com/AdobeSVGViewerExtensions/3.0/"
		ewd:ver CDATA #IMPLIED
	>
	<!ATTLIST a
		ewd:lineID CDATA #IMPLIED
		ewd:groupID CDATA #IMPLIED
		ewd:figtype CDATA #IMPLIED
		ewd:code CDATA #IMPLIED
		ewd:figID CDATA #IMPLIED
		ewd:pinNo CDATA #IMPLIED
		ewd:comment CDATA #IMPLIED >
	<!ATTLIST g
		ewd:lineID CDATA #IMPLIED
		ewd:groupID CDATA #IMPLIED
		ewd:figtype CDATA #IMPLIED
		ewd:code CDATA #IMPLIED
		ewd:figID CDATA #IMPLIED
		ewd:pinNo CDATA #IMPLIED
		ewd:comment CDATA #IMPLIED >
	<!ATTLIST text
		ewd:textID CDATA #IMPLIED >
	<!ATTLIST title
		ewd:textID CDATA #IMPLIED >
]>
<!-- Generator: Shintec Hozumi YS   -->
<svg onload="call_execInitLoadProc_svg('system')" style="overflow:visible;  enable-background:new 0 0 7769.608 710.000" viewBox="0 0 7769.608 710.000" height="710.000" width="7769.608" xml:space="preserve" ewd:ver="2.3.1.16" xmlns="&ns_svg;" xmlns:a="http://ns.adobe.com/AdobeSVGViewerExtensions/3.0/" xmlns:ewd="http://shcl.co.jp/ewd" xmlns:xlink="&ns_xlink;">
<text ewd:textID="121" style="&st18;" transform="matrix(&st16;  5116.99  34.92 )">No. 2 <tspan dy="6.0" x="0 ">Differential </tspan><tspan dy="6.0" x="0 ">Lock Shift </tspan><tspan dy="6.0" x="0 ">Actuator</tspan></text><text ewd:textID="86" style="&st18;" transform="matrix(&st16;  5193.48  340.86 )">Fuel Tank Solenoid <tspan dy="6.0" x="0 ">Return Valve Assembly</tspan></text><text ewd:textID="93" style="&st18;" transform="matrix(&st16;  5193.48  136.9 )">Headlight Assembly RH</text><text ewd:textID="93" style="&st18;" transform="matrix(&st16;  5193.48  102.9 )">Headlight Assembly RH</text><text ewd:textID="93" style="&st18;" transform="matrix(&st16;  5193.48  68.91 )">Headlight Assembly RH</text><text ewd:textID="152" style="&st18;" transform="matrix(&st16;  5193.48  34.92 )">Side Turn Signal <tspan dy="6.0" x="0 ">Light Assembly RH</tspan></text><text ewd:textID="73" style="&st18;" transform="matrix(&st16;  5193.48  187.89 )">Fog Light <tspan dy="6.0" x="0 ">Assembly LH</tspan></text><text ewd:textID="74" style="&st18;" transform="matrix(&st16;  5193.48  238.88 )">Fog Light <tspan dy="6.0" x="0 ">Assembly RH</tspan></text><text style="&st18;" transform="matrix(&st16;  5343.34  575.99 )">P</text><text style="&st18;" transform="matrix(&st16;  5340.55  587.32 )">(*4)</text><text ewd:textID="75" style="&st18;" transform="matrix(&st16;  5116.99  323.87 )">Four Wheel <tspan dy="6.0" x="0 ">Drive Control </tspan><tspan dy="6.0" x="0 ">Solenoid Assembly</tspan></text><text style="&st18;" transform="matrix(&st16;  5043.1  323.87 )">(*2)</text><text style="&st18;" transform="matrix(&st16;  5043.1  281.37 )">(*2)</text><text style="&st18;" transform="matrix(&st16;  5043.1  238.88 )">(*2)</text><text style="&st18;" transform="matrix(&st16;  5043.1  204.89 )">(*2)</text><text style="&st18;" transform="matrix(&st16;  5116.98  78.8 )">B2</text><text style="&st18;" transform="matrix(&st16;  5116.98  27.81 )">B1</text><text style="&st18;" transform="matrix(&st16;  5043.1  85.91 )">(*2)</text><text style="&st18;" transform="matrix(&st16;  5116.98  197.78 )">I76</text><text style="&st18;" transform="matrix(&st16;  5116.98  231.78 )">I86</text><text style="&st18;" transform="matrix(&st16;  5116.98  274.27 )">I89</text><text style="&st18;" transform="matrix(&st16;  5116.98  316.76 )">I31</text><text ewd:textID="75" style="&st18;" transform="matrix(&st16;  5116.99  281.37 )">Four Wheel <tspan dy="6.0" x="0 ">Drive Control </tspan><tspan dy="6.0" x="0 ">Solenoid Assembly</tspan></text><text ewd:textID="164" style="&st18;" transform="matrix(&st16;  5116.99  238.88 )">Windshield <tspan dy="6.0" x="0 ">Wiper Motor </tspan><tspan dy="6.0" x="0 ">Assembly</tspan></text><text ewd:textID="87" style="&st18;" transform="matrix(&st16;  5116.99  204.89 )">Fuse Block <tspan dy="6.0" x="0 ">Assembly</tspan></text><text ewd:textID="76" style="&st18;" transform="matrix(&st16;  5116.99  85.91 )">Front <tspan dy="6.0" x="0 ">Differential </tspan><tspan dy="6.0" x="0 ">Lock Position </tspan><tspan dy="6.0" x="0 ">Switch</tspan></text><path d=" M  5405.10,   690.17  L  5405.10,   694.42  " style="stroke-width: 1.42 ;&st7;  " /><text style="&st18;" transform="matrix(&st16;  5193.47  512.23 )">P5</text><text style="&st18;" transform="matrix(&st16;  5193.47  546.22 )">P8</text><text style="&st18;" transform="matrix(&st16;  5193.47  622.71 )">P9</text><path d=" M  5456.09,   618.65  L  5451.12,   613.68  " style="stroke-width: 1.42 ;&st7;  " /><path d=" M  5439.09,   625.71  L  5444.06,   630.68  " style="stroke-width: 1.42 ;&st7;  " /><path d=" M  5451.12,   630.68  L  5456.09,   625.71  " style="stroke-width: 1.42 ;&st7;  " /><path d=" M  5444.06,   613.68  L  5439.09,   618.65  " style="stroke-width: 1.42 ;&st7;  " /><path d=" M  5456.09,   542.17  L  5451.12,   537.20  " style="stroke-width: 1.42 ;&st7;  " /><path d=" M  5439.09,   549.22  L  5444.06,   554.19  " style="stroke-width: 1.42 ;&st7;  " /><path d=" M  5451.12,   554.19  L  5456.09,   549.22  " style="stroke-width: 1.42 ;&st7;  " /><path d=" M  5444.06,   537.20  L  5439.09,   542.17  " style="stroke-width: 1.42 ;&st7;  " /><path d=" M  5490.08,   618.65  L  5485.11,   613.68  " style="stroke-width: 1.42 ;&st7;  " /><path d=" M  5473.09,   625.71  L  5478.06,   630.68  " style="stroke-width: 1.42 ;&st7;  " /><path d=" M  5485.11,   630.68  L  5490.08,   625.71  " style="stroke-width: 1.42 ;&st7;  " /><path d=" M  5478.06,   613.68  L  5473.09,   618.65  " style="stroke-width: 1.42 ;&st7;  " /><text style="&st18;" transform="matrix(&st16;  5152.42  686.47 )">W-B</text><text style="&st18;" transform="matrix(&st16;  5203.41  686.47 )">W-B</text><text style="&st18;" transform="matrix(&st16;  5152.42  457.01 )">W-B</text><text style="&st18;" transform="matrix(&st16;  5203.41  457.01 )">W-B</text><text style="&st18;" transform="matrix(&st16;  5041.94  193.56 )">W-B</text><text style="&st18;" transform="matrix(&st16;  5041.94  227.55 )">W-B</text><text style="&st18;" transform="matrix(&st16;  5041.94  270.04 )">W-B</text><text style="&st18;" transform="matrix(&st16;  5041.94  312.54 )">W-B</text><text style="&st18;" transform="matrix(&st16;  5041.94  74.58 )">W-B</text><text style="&st18;" transform="matrix(&st16;  5041.94  23.58 )">W-B</text><text style="&st18;" transform="matrix(&st17;  5001.97  398.44 )">W-B</text><text style="&st18;" transform="matrix(&st16;  5043.1  34.92 )">(*2)</text><text ewd:textID="53" style="&st18;" transform="matrix(&st16;  5193.48  289.87 )">Center Differential <tspan dy="6.0" x="0 ">Lock Indicator Switch </tspan><tspan dy="6.0" x="0 ">(No. 1 Transfer </tspan><tspan dy="6.0" x="0 ">Indicator Switch)</tspan></text><text style="&st18;" transform="matrix(&st16;  5339.39  652.48 )">W-B</text><text style="&st18;" transform="matrix(&st16;  5339.39  618.48 )">W-B</text><text style="&st18;" transform="matrix(&st16;  5339.39  542.0 )">W-B</text><text style="&st18;" transform="matrix(&st16;  5339.39  508.0 )">W-B</text><text style="&st18;" transform="matrix(&st17;  5443.89  581.16 )">W-B</text><text style="&st18;" transform="matrix(&st17;  5443.89  661.9 )">W-B</text><text style="&st18;" transform="matrix(&st17;  5477.89  661.9 )">W-B</text><text ewd:textID="77" style="&st18;" transform="matrix(&st16;  5193.48  553.33 )">Front Door Lock <tspan dy="6.0" x="0 ">Actuator Assembly LH</tspan></text><text style="&st18;" transform="matrix(&st17;  5455.23  580.0 )">(*4)</text><text style="&st18;" transform="matrix(&st17;  5455.23  660.73 )">(*4)</text><text style="&st18;" transform="matrix(&st17;  5489.22  660.73 )">(*5)</text><text style="&st18;" transform="matrix(&st16;  5340.55  519.33 )">(*4)</text><text style="&st18;" transform="matrix(&st16;  5340.55  553.33 )">(*4)</text><text style="&st18;" transform="matrix(&st16;  5340.55  629.82 )">(*4)</text><text style="&st18;" transform="matrix(&st16;  5340.55  663.81 )">(*4)</text><text ewd:textID="134" style="&st18;" transform="matrix(&st16;  5193.48  629.82 )">Power Window Regulator <tspan dy="6.0" x="0 ">Master Switch Assembly</tspan></text><text ewd:textID="77" style="&st18;" transform="matrix(&st16;  5193.48  519.33 )">Front Door Lock <tspan dy="6.0" x="0 ">Actuator Assembly LH</tspan></text><text style="&st18;" transform="matrix(&st16;  5193.47  129.79 )">I36</text><text style="&st18;" transform="matrix(&st16;  5193.47  95.8 )">I91</text><text style="&st18;" transform="matrix(&st16;  5193.47  61.8 )">I38</text><text style="&st18;" transform="matrix(&st16;  5193.47  27.81 )">I25</text><text style="&st18;" transform="matrix(&st16;  5193.47  180.78 )">J2</text><text style="&st18;" transform="matrix(&st16;  5193.47  231.78 )">J1</text><path d=" M  5503.55,    52.78  L  5498.58,    57.75  " style="stroke-width: 1.42 ;&st7;  " /><path d=" M  5498.58,    64.80  L  5503.55,    69.77  " style="stroke-width: 1.42 ;&st7;  " /><path d=" M  5498.58,   183.78  L  5503.55,   188.75  " style="stroke-width: 1.42 ;&st7;  " /><path d=" M  5503.55,   171.76  L  5498.58,   176.73  " style="stroke-width: 1.42 ;&st7;  " /><path d=" M  5337.11,   176.01  L  5337.11,   180.26  " style="stroke-width: 1.42 ;&st7;  " /><path d=" M  5337.11,   227.00  L  5337.11,   231.25  " style="stroke-width: 1.42 ;&st7;  " /><path d=" M  5405.10,   176.01  L  5405.10,   180.26  " style="stroke-width: 1.42 ;&st7;  " /><path d=" M  5405.10,   227.00  L  5405.10,   231.25  " style="stroke-width: 1.42 ;&st7;  " /><text style="&st18;" transform="matrix(&st16;  5356.38  23.58 )">W-B</text><text style="&st18;" transform="matrix(&st16;  5356.38  57.58 )">W-B</text><text style="&st18;" transform="matrix(&st16;  5356.38  91.57 )">W-B</text><text style="&st18;" transform="matrix(&st16;  5356.38  125.57 )">W-B</text><text style="&st18;" transform="matrix(&st16;  5356.38  176.56 )">W-B</text><text style="&st18;" transform="matrix(&st16;  5356.38  227.55 )">W-B</text><text style="&st18;" transform="matrix(&st16;  5296.89  176.56 )">W-B</text><text style="&st18;" transform="matrix(&st16;  5296.89  227.55 )">W-B</text><text style="&st18;" transform="matrix(&st16;  5449.87  227.55 )">W-B</text><text style="&st18;" transform="matrix(&st16;  5449.87  176.56 )">W-B</text><path d=" M  5337.11,   328.98  L  5337.11,   333.23  " style="stroke-width: 1.42 ;&st7;  " /><text style="&st18;" transform="matrix(&st16;  5193.47  333.76 )">W1</text><text style="&st18;" transform="matrix(&st16;  5296.89  329.53 )">W-B</text><text style="&st18;" transform="matrix(&st16;  5298.06  340.86 )">(*1)</text><path d=" M  5354.11,   282.24  L  5354.11,   286.49  " style="stroke-width: 1.42 ;&st7;  " /><text style="&st18;" transform="matrix(&st16;  5193.47  282.77 )">C35</text><text style="&st18;" transform="matrix(&st16;  5296.89  278.54 )">W-B</text><text style="&st18;" transform="matrix(&st16;  5449.87  278.54 )">W-B</text><text style="&st18;" transform="matrix(&st16;  5298.06  289.87 )">(*1)</text><text style="&st18;" transform="matrix(&st16;  5451.03  289.87 )">(*1)</text><text style="&st18;" transform="matrix(&st16;  5435.02  238.88 )">(*1 *56,*38 *56)</text><text style="&st18;" transform="matrix(&st16;  5352.2  238.88 )">(*1,*38)</text><text style="&st18;" transform="matrix(&st16;  5292.71  238.88 )">(*1,*38)</text><text style="&st18;" transform="matrix(&st16;  5435.02  187.89 )">(*1 *56,*38 *56)</text><text style="&st18;" transform="matrix(&st16;  5352.2  187.89 )">(*1,*38)</text><text style="&st18;" transform="matrix(&st16;  5292.71  187.89 )">(*1,*38)</text><text style="&st18;" transform="matrix(&st16;  5352.2  136.9 )">(*1,*38)</text><text style="&st18;" transform="matrix(&st16;  5352.2  102.9 )">(*1,*38)</text><text style="&st18;" transform="matrix(&st16;  5352.2  68.91 )">(*1,*38)</text><text style="&st18;" transform="matrix(&st16;  5341.53  34.92 )">(*1 *31,*38 *31)</text><path d=" M  5388.10,   333.23  L  5388.10,   337.48  " style="stroke-width: 1.42 ;&st7;  " /><text style="&st18;" transform="matrix(&st16;  5432.87  329.53 )">W-B</text><text style="&st18;" transform="matrix(&st16;  5434.03  340.86 )">(*1)</text><text style="&st18;" transform="matrix(&st16;  5356.38  329.53 )">W-B</text><text style="&st18;" transform="matrix(&st16;  5357.55  340.86 )">(*1)</text><text style="&st18;" transform="matrix(&st17;  5013.3  397.28 )">(*2)</text><text style="&st18;" transform="matrix(&st16;  5142.26  440.01 )">W-B(*1,*38)</text><text style="&st18;" transform="matrix(&st16;  5193.25  440.01 )">W-B(*1,*38)</text><text ewd:textID="155" style="&st18;" transform="matrix(&st16;  5116.99  544.83 )">Tire Pressure <tspan dy="6.0" x="0 ">Warning ECU </tspan><tspan dy="6.0" x="0 ">and Receiver</tspan></text><text style="&st18;" transform="matrix(&st16;  5037.75  544.83 )">(*41 *9)</text><text style="&st18;" transform="matrix(&st16;  5116.98  537.72 )">S30</text><text style="&st18;" transform="matrix(&st16;  5041.94  533.5 )">W-B</text><text style="&st18;" transform="matrix(&st16;  5041.94  491.01 )">W-B</text><text style="&st18;" transform="matrix(&st16;  5116.98  495.23 )">U5</text><text style="&st18;" transform="matrix(&st16;  5036.12  502.34 )">(*41 *42)</text><text ewd:textID="155" style="&st18;" transform="matrix(&st16;  5116.99  502.34 )">Tire Pressure <tspan dy="6.0" x="0 ">Warning ECU </tspan><tspan dy="6.0" x="0 ">and Receiver</tspan></text><path d=" M  5014.16,   532.95  L  5014.16,   537.20  " style="stroke-width: 1.42 ;&st7;  " /><path d=" M  5498.58,   132.79  L  5503.55,   137.76  " style="stroke-width: 1.42 ;&st7;  " /><path d=" M  5503.55,   120.77  L  5498.58,   125.74  " style="stroke-width: 1.42 ;&st7;  " /><path d=" M  5498.58,   234.78  L  5503.55,   239.75  " style="stroke-width: 1.42 ;&st7;  " /><path d=" M  5503.55,   222.75  L  5498.58,   227.72  " style="stroke-width: 1.42 ;&st7;  " /><text style="&st18;" transform="matrix(&st16;  5453.82  151.06 )">B</text><text style="&st18;" transform="matrix(&st16;  5435.02  162.39 )">(*1 *57,*38 *57)</text><text style="&st18;" transform="matrix(&st16;  5453.82  253.05 )">B</text><text style="&st18;" transform="matrix(&st16;  5435.02  264.38 )">(*1 *57,*38 *57)</text><text style="&st18;" transform="matrix(&st16;  5193.48  383.36 )">ECM</text><text style="&st18;" transform="matrix(&st16;  5193.47  376.25 )">I84</text><text style="&st18;" transform="matrix(&st16;  5296.89  372.03 )">W-B</text><text style="&st18;" transform="matrix(&st16;  5291.08  383.36 )">(*38 *58)</text><path d=" M  5090.65,    69.77  L  5090.65,   112.27  L  5175.63,   112.27  L  5175.63,    69.77  L  5090.65,    69.77  " style="stroke-width: 1.42 ;&st7;  " /><text style="&st18;" transform="matrix(&st16;  5092.38  80.24 )">(FRE)</text><path d=" M  5090.65,    18.78  L  5090.65,    61.28  L  5175.63,    61.28  L  5175.63,    18.78  L  5090.65,    18.78  " style="stroke-width: 1.42 ;&st7;  " /><text style="&st18;" transform="matrix(&st16;  5092.38  29.25 )">(GND)</text><path d=" M  5090.65,   188.75  L  5090.65,   214.25  L  5175.63,   214.25  L  5175.63,   188.75  L  5090.65,   188.75  " style="stroke-width: 1.42 ;&st7;  " /><text style="&st18;" transform="matrix(&st16;  5092.38  199.22 )">(E)</text><path d=" M  5090.65,   222.75  L  5090.65,   256.74  L  5175.63,   256.74  L  5175.63,   222.75  L  5090.65,   222.75  " style="stroke-width: 1.42 ;&st7;  " /><text style="&st18;" transform="matrix(&st16;  5092.38  233.22 )">(E)</text><path d=" M  5090.65,   265.24  L  5090.65,   299.24  L  5175.63,   299.24  L  5175.63,   265.24  L  5090.65,   265.24  " style="stroke-width: 1.42 ;&st7;  " /><text style="&st18;" transform="matrix(&st16;  5092.38  275.71 )">(L)</text><path d=" M  5090.65,   307.73  L  5090.65,   341.73  L  5175.63,   341.73  L  5175.63,   307.73  L  5090.65,   307.73  " style="stroke-width: 1.42 ;&st7;  " /><text style="&st18;" transform="matrix(&st16;  5092.38  318.2 )">(L)</text><path d=" M  5192.63,   503.20  L  5192.63,   528.70  L  5277.62,   528.70  L  5277.62,   503.20  L  5192.63,   503.20  " style="stroke-width: 1.42 ;&st7;  " /><text style="&st18;" transform="matrix(&st16;  5267.4  513.67 )">(E)</text><path d=" M  5192.63,   537.20  L  5192.63,   596.69  L  5277.62,   596.69  L  5277.62,   537.20  L  5192.63,   537.20  " style="stroke-width: 1.42 ;&st7;  " /><text style="&st18;" transform="matrix(&st16;  5267.4  547.66 )">(E)</text><path d=" M  5192.63,   613.68  L  5192.63,   673.17  L  5277.62,   673.17  L  5277.62,   613.68  L  5192.63,   613.68  " style="stroke-width: 1.42 ;&st7;  " /><text style="&st18;" transform="matrix(&st16;  5267.4  624.15 )">(E)</text><text style="&st18;" transform="matrix(&st16;  5267.4  658.14 )">(E)</text><text style="&st18;" transform="matrix(&st16;  5267.4  581.66 )">(E)</text><path d=" M  5192.63,   171.76  L  5192.63,   197.25  L  5277.62,   197.25  L  5277.62,   171.76  L  5192.63,   171.76  " style="stroke-width: 1.42 ;&st7;  " /><text style="&st18;" transform="matrix(&st16;  5267.4  131.23 )">(B)</text><path d=" M  5192.63,   120.77  L  5192.63,   146.26  L  5277.62,   146.26  L  5277.62,   120.77  L  5192.63,   120.77  " style="stroke-width: 1.42 ;&st7;  " /><text style="&st18;" transform="matrix(&st16;  5267.4  97.24 )">(E)</text><path d=" M  5192.63,    86.77  L  5192.63,   112.27  L  5277.62,   112.27  L  5277.62,    86.77  L  5192.63,    86.77  " style="stroke-width: 1.42 ;&st7;  " /><text style="&st18;" transform="matrix(&st16;  5267.4  63.24 )">(E)</text><path d=" M  5192.63,    18.78  L  5192.63,    44.28  L  5277.62,    44.28  L  5277.62,    18.78  L  5192.63,    18.78  " style="stroke-width: 1.42 ;&st7;  " /><path d=" M  5192.63,    52.78  L  5192.63,    78.27  L  5277.62,    78.27  L  5277.62,    52.78  L  5192.63,    52.78  " style="stroke-width: 1.42 ;&st7;  " /><text style="&st18;" transform="matrix(&st16;  5267.4  29.25 )">(E)</text><text style="&st18;" transform="matrix(&st16;  5267.4  182.22 )">(E)</text><path d=" M  5192.63,   222.75  L  5192.63,   248.24  L  5277.62,   248.24  L  5277.62,   222.75  L  5192.63,   222.75  " style="stroke-width: 1.42 ;&st7;  " /><text style="&st18;" transform="matrix(&st16;  5267.4  233.22 )">(E)</text><path d=" M  5192.63,   324.73  L  5192.63,   350.23  L  5277.62,   350.23  L  5277.62,   324.73  L  5192.63,   324.73  " style="stroke-width: 1.42 ;&st7;  " /><text style="&st18;" transform="matrix(&st16;  5258.09  335.2 )">(GND)</text><path d=" M  5192.63,   273.74  L  5192.63,   316.23  L  5277.62,   316.23  L  5277.62,   273.74  L  5192.63,   273.74  " style="stroke-width: 1.42 ;&st7;  " /><text style="&st18;" transform="matrix(&st16;  5258.09  284.21 )">(GND)</text><path d=" M  5090.65,   528.70  L  5090.65,   562.69  L  5175.63,   562.69  L  5175.63,   528.70  L  5090.65,   528.70  " style="stroke-width: 1.42 ;&st7;  " /><text style="&st18;" transform="matrix(&st16;  5092.38  539.16 )">(GND)</text><text style="&st18;" transform="matrix(&st16;  5092.38  496.67 )">(GND)</text><path d=" M  5090.65,   486.20  L  5090.65,   520.20  L  5175.63,   520.20  L  5175.63,   486.20  L  5090.65,   486.20  " style="stroke-width: 1.42 ;&st7;  " /><path d=" M  5192.63,   367.22  L  5192.63,   392.72  L  5277.62,   392.72  L  5277.62,   367.22  L  5192.63,   367.22  " style="stroke-width: 1.42 ;&st7;  " /><text style="&st18;" transform="matrix(&st16;  5263.06  377.69 )">(EC)</text><g ewd:code="IS2" ewd:figID="71" ewd:figtype="w2w"><text style="&st18;" transform="matrix(&st16;  5003.79  529.96 )">1</text><path d=" M  5023.23,   541.44  L  5018.98,   537.20  L  5023.23,   532.95  " style="stroke-width: 1.42 ;&st7;  " /><path d=" M  5019.83,   541.44  L  5015.58,   537.20  L  5019.83,   532.95  " style="stroke-width: 1.42 ;&st7;  " /></g><g ewd:code="WC2" ewd:figID="73" ewd:figtype="w2w"><text style="&st18;" transform="matrix(&st16;  5326.73  325.99 )">1</text><path d=" M  5342.77,   337.48  L  5338.52,   333.23  L  5342.77,   328.98  " style="stroke-width: 1.42 ;&st7;  " /><path d=" M  5346.17,   337.48  L  5341.92,   333.23  L  5346.17,   328.98  " style="stroke-width: 1.42 ;&st7;  " /></g><g ewd:code="JK2" ewd:figID="74" ewd:figtype="w2w"><path d=" M  5346.17,   235.50  L  5341.92,   231.25  L  5346.17,   227.00  " style="stroke-width: 1.42 ;&st7;  " /><path d=" M  5342.77,   235.50  L  5338.52,   231.25  L  5342.77,   227.00  " style="stroke-width: 1.42 ;&st7;  " /><text style="&st18;" transform="matrix(&st16;  5326.73  224.01 )">5</text></g><g ewd:code="JK2" ewd:figID="75" ewd:figtype="w2w"><path d=" M  5346.17,   184.50  L  5341.92,   180.26  L  5346.17,   176.01  " style="stroke-width: 1.42 ;&st7;  " /><path d=" M  5342.77,   184.50  L  5338.52,   180.26  L  5342.77,   176.01  " style="stroke-width: 1.42 ;&st7;  " /><text style="&st18;" transform="matrix(&st16;  5326.73  173.02 )">7</text></g><g ewd:code="IC1" ewd:figID="76" ewd:figtype="w2w"><path d=" M  5345.04,   277.99  L  5349.29,   282.24  L  5345.04,   286.49  " style="stroke-width: 1.42 ;&st7;  " /><path d=" M  5348.44,   277.99  L  5352.69,   282.24  L  5348.44,   286.49  " style="stroke-width: 1.42 ;&st7;  " /><text style="&st18;" transform="matrix(&st16;  5360.73  275.0 )">1</text></g><g ewd:code="IC3" ewd:figID="77" ewd:figtype="w2w"><path d=" M  5382.43,   328.98  L  5386.68,   333.23  L  5382.43,   337.48  " style="stroke-width: 1.42 ;&st7;  " /><path d=" M  5379.03,   328.98  L  5383.28,   333.23  L  5379.03,   337.48  " style="stroke-width: 1.42 ;&st7;  " /><text style="&st18;" transform="matrix(&st16;  5394.72  325.99 )">4</text></g><g ewd:code="KI2" ewd:figID="78" ewd:figtype="w2w"><path d=" M  5414.16,   235.50  L  5409.91,   231.25  L  5414.16,   227.00  " style="stroke-width: 1.42 ;&st7;  " /><path d=" M  5410.76,   235.50  L  5406.51,   231.25  L  5410.76,   227.00  " style="stroke-width: 1.42 ;&st7;  " /><text style="&st18;" transform="matrix(&st16;  5394.72  224.01 )">5</text></g><g ewd:code="KI2" ewd:figID="79" ewd:figtype="w2w"><path d=" M  5414.16,   184.50  L  5409.91,   180.26  L  5414.16,   176.01  " style="stroke-width: 1.42 ;&st7;  " /><path d=" M  5410.76,   184.50  L  5406.51,   180.26  L  5410.76,   176.01  " style="stroke-width: 1.42 ;&st7;  " /><text style="&st18;" transform="matrix(&st16;  5394.72  173.02 )">7</text></g><g ewd:code="PI3" ewd:figID="80" ewd:figtype="w2w"><text style="&st18;" transform="matrix(&st16;  5410.05  682.93 )">12</text><path d=" M  5396.03,   685.92  L  5400.28,   690.17  L  5396.03,   694.42  " style="stroke-width: 1.42 ;&st7;  " /><path d=" M  5399.43,   685.92  L  5403.68,   690.17  L  5399.43,   694.42  " style="stroke-width: 1.42 ;&st7;  " /></g><g ewd:code="IE" ewd:figID="128" ewd:figtype="gp"><path d=" M  5505.66,   429.55  L  5508.49,   429.55  " style="stroke-width: 0.85 ;&st7;  " /><path d=" M  5504.24,   426.71  L  5509.91,   426.71  " style="stroke-width: 0.85 ;&st7;  " /><path d=" M  5502.83,   423.88  L  5511.33,   423.88  " style="stroke-width: 0.85 ;&st7;  " /><path d=" M  5498.58,   421.05  L  5515.58,   421.05  " style="stroke-width: 0.85 ;&st7;  " /><path d=" M  5507.08,   416.80  L  5507.08,   421.05  " style="stroke-width: 0.85 ;&st7;  "/></g></svg>
