<?xml version="1.0" encoding="utf-8"?>
<!DOCTYPE svg PUBLIC "-//W3C//DTD SVG 1.0//EN" "http://www.w3.org/TR/2001/REC-SVG-20010904/DTD/svg10.dtd"[
	<!ENTITY ns_flows "http://ns.adobe.com/Flows/1.0/">
	<!ENTITY ns_svg "http://www.w3.org/2000/svg">
	<!ENTITY ns_xlink "http://www.w3.org/1999/xlink">
	<!ENTITY st0 "font-size:7px;font-family:'MS-PGothic';adobe-font-script:japanese;">
	<!ENTITY st1 "font-size:6px;font-family:'ArialMT';">
	<!-- White fill  -->
	<!ENTITY st2 "fill:#FFFFFF;stroke:#000000; stroke-width:1.41;stroke-linecap:round;stroke-linejoin:round;">
	<!-- Yellow fill  -->
	<!ENTITY st3 "fill:#FFFFCC;stroke:#FFFFCC; stroke-width:0.1;stroke-linecap:round;stroke-linejoin:round;">
	<!-- Gray fill  -->
	<!ENTITY st4 "fill:#CCCCCC;stroke:#CCCCCC; stroke-width:0.1;stroke-linecap:round;stroke-linejoin:round;">
	<!-- Light-blue fill -->
	<!ENTITY st5 "fill:#CCECF4;stroke:#000000; stroke-width:1.133;stroke-linecap:round;stroke-linejoin:round;">
	<!ENTITY st6 "fill:none;stroke-linecap:butt; stroke-linejoin:round;">
	<!ENTITY st7 "fill:none;stroke:#000000;stroke-linecap:round;stroke-linejoin:round;">
	<!ENTITY st8 "enable-background:new    ;">
	<!-- Black fill -->
	<!ENTITY st9 "fill:#000000;stroke:#000000; stroke-linecap:round;stroke-linejoin:round;">
	<!-- SRS note   -->
	<!ENTITY st10 "font-size:9px;font-family:'ArialMT';">
	<!ENTITY st11 "font-size:9px;font-family:'Svg Symbol';">
	<!ENTITY st12 "font-size:6px;font-family:'Svg Symbol';">
	<!ENTITY st13 "fill:none;stroke:#ff0000;stroke-linecap:round;stroke-linejoin:round;">
	<!-- Yellow fill  -->
	<!ENTITY st14 "fill:#FFFF00;stroke:#FFFF00; stroke-width:0.1;stroke-linecap:round;stroke-linejoin:round;">
	<!ENTITY st15 "font-size:6px;font-family:'MS-PGothic';adobe-font-script:japanese;">
	<!ENTITY st16 "1.00 0.00 0.00 1.00">
	<!ENTITY st17 "0.00 -1.00 1.00 0.00">
	<!ENTITY st18 "font-size:6px;font-family:'Arial';">
	<!ENTITY st19 "font-size:9px;font-family:'Arial';">
	<!ENTITY st20 "font-size:6px;font-family:'MS-PGothic','MS PGothic';adobe-font-script:japanese;">
	<!ENTITY st21 "font-size:7px;font-family:'MS-PGothic','MS PGothic';adobe-font-script:japanese;">
	<!ATTLIST svg
		xmlns:ewd CDATA #FIXED "http://shcl.co.jp/ewd"
		xmlns:a CDATA #FIXED "http://ns.adobe.com/AdobeSVGViewerExtensions/3.0/"
		ewd:ver CDATA #IMPLIED
	>
	<!ATTLIST a
		ewd:lineID CDATA #IMPLIED
		ewd:groupID CDATA #IMPLIED
		ewd:figtype CDATA #IMPLIED
		ewd:code CDATA #IMPLIED
		ewd:figID CDATA #IMPLIED
		ewd:pinNo CDATA #IMPLIED
		ewd:comment CDATA #IMPLIED >
	<!ATTLIST g
		ewd:lineID CDATA #IMPLIED
		ewd:groupID CDATA #IMPLIED
		ewd:figtype CDATA #IMPLIED
		ewd:code CDATA #IMPLIED
		ewd:figID CDATA #IMPLIED
		ewd:pinNo CDATA #IMPLIED
		ewd:comment CDATA #IMPLIED >
	<!ATTLIST text
		ewd:textID CDATA #IMPLIED >
	<!ATTLIST title
		ewd:textID CDATA #IMPLIED >
]>
<!-- Generator: Shintec Hozumi YS   -->
<svg onload="call_execInitLoadProc_svg('system')" style="overflow:visible;  enable-background:new 0 0 6732.781 710.000" viewBox="0 0 6732.781 710.000" height="710.000" width="6732.781" xml:space="preserve" ewd:ver="2.3.1.16" xmlns="&ns_svg;" xmlns:a="http://ns.adobe.com/AdobeSVGViewerExtensions/3.0/" xmlns:ewd="http://shcl.co.jp/ewd" xmlns:xlink="&ns_xlink;">
<text ewd:textID="101" style="&st18;" transform="matrix(&st16;  6153.82  476.84 )">Rear Window <tspan dy="6.0" x="0 ">Defogger (Back </tspan><tspan dy="6.0" x="0 ">Door Glass RH)</tspan></text><text ewd:textID="109" style="&st18;" transform="matrix(&st16;  6230.3  306.87 )">Trailer Socket</text><text ewd:textID="98" style="&st18;" transform="matrix(&st16;  6153.82  519.33 )">Rear <tspan dy="6.0" x="0 ">Differential </tspan><tspan dy="6.0" x="0 ">Lock Position </tspan><tspan dy="6.0" x="0 ">Switch</tspan></text><text ewd:textID="34" style="&st18;" transform="matrix(&st16;  6153.82  570.33 )">Differential <tspan dy="6.0" x="0 ">Lock Shift </tspan><tspan dy="6.0" x="0 ">Actuator</tspan></text><text ewd:textID="50" style="&st18;" transform="matrix(&st16;  6230.3  340.86 )">Fuel Pump (Sub)</text><text ewd:textID="96" style="&st18;" transform="matrix(&st16;  6230.3  374.86 )">Rear Combination <tspan dy="6.0" x="0 ">Light Assembly LH</tspan></text><text ewd:textID="96" style="&st18;" transform="matrix(&st16;  6230.3  408.85 )">Rear Combination <tspan dy="6.0" x="0 ">Light Assembly LH</tspan></text><text ewd:textID="46" style="&st18;" transform="matrix(&st16;  6153.82  77.41 )">Front Seat Inner <tspan dy="6.0" x="0 ">Belt Assembly LH</tspan></text><text ewd:textID="100" style="&st18;" transform="matrix(&st16;  6230.3  119.9 )">Rear Window Defogger <tspan dy="6.0" x="0 ">(Back Door Glass LH)</tspan></text><text ewd:textID="72" style="&st18;" transform="matrix(&st16;  6230.3  153.9 )">License Plate <tspan dy="6.0" x="0 ">Light Assembly</tspan></text><text ewd:textID="72" style="&st18;" transform="matrix(&st16;  6230.3  187.89 )">License Plate <tspan dy="6.0" x="0 ">Light Assembly</tspan></text><text ewd:textID="99" style="&st18;" transform="matrix(&st16;  6230.3  51.91 )">Rear Heater <tspan dy="6.0" x="0 ">Blower Switch</tspan></text><text ewd:textID="103" style="&st18;" transform="matrix(&st16;  6230.3  85.91 )">Rear Wiper <tspan dy="6.0" x="0 ">Motor Assembly</tspan></text><text style="&st18;" transform="matrix(&st16;  6384.21  408.85 )">(*29)</text><text style="&st18;" transform="matrix(&st16;  6452.7  499.5 )">W-B</text><text style="&st18;" transform="matrix(&st16;  6418.71  457.01 )">W-B</text><text style="&st18;" transform="matrix(&st16;  6490.65  457.01 )">B</text><text ewd:textID="97" style="&st18;" transform="matrix(&st16;  6153.82  612.82 )">Rear <tspan dy="6.0" x="0 ">Combination </tspan><tspan dy="6.0" x="0 ">Light </tspan><tspan dy="6.0" x="0 ">Assembly RH</tspan></text><text ewd:textID="97" style="&st18;" transform="matrix(&st16;  6153.82  663.81 )">Rear <tspan dy="6.0" x="0 ">Combination </tspan><tspan dy="6.0" x="0 ">Light </tspan><tspan dy="6.0" x="0 ">Assembly RH</tspan></text><text style="&st18;" transform="matrix(&st16;  6095.76  508.0 )">W-B</text><text style="&st18;" transform="matrix(&st16;  6036.27  508.0 )">W-B</text><text style="&st18;" transform="matrix(&st16;  6384.21  374.86 )">(*28)</text><text style="&st18;" transform="matrix(&st16;  6385.87  306.87 )">(*6)</text><path d=" M  6407.93,    74.02  L  6407.93,    78.27  " style="stroke-width: 1.42 ;&st7;  " /><text style="&st18;" transform="matrix(&st16;  6230.3  78.8 )">a1</text><text style="&st18;" transform="matrix(&st16;  6230.3  44.81 )">S10</text><path d=" M  6407.93,   593.16  L  6402.96,   588.19  " style="stroke-width: 1.42 ;&st7;  " /><path d=" M  6390.93,   600.22  L  6395.90,   605.18  " style="stroke-width: 1.42 ;&st7;  " /><path d=" M  6402.96,   605.18  L  6407.93,   600.22  " style="stroke-width: 1.42 ;&st7;  " /><path d=" M  6395.90,   588.19  L  6390.93,   593.16  " style="stroke-width: 1.42 ;&st7;  " /><path d=" M  6407.93,   457.18  L  6402.96,   452.21  " style="stroke-width: 1.42 ;&st7;  " /><path d=" M  6390.93,   464.24  L  6395.90,   469.21  " style="stroke-width: 1.42 ;&st7;  " /><path d=" M  6402.96,   469.21  L  6407.93,   464.24  " style="stroke-width: 1.42 ;&st7;  " /><path d=" M  6395.90,   452.21  L  6390.93,   457.18  " style="stroke-width: 1.42 ;&st7;  " /><path d=" M  6467.42,   456.46  L  6467.42,   460.71  " style="stroke-width: 1.42 ;&st7;  " /><text style="&st18;" transform="matrix(&st16;  6153.81  605.71 )">T6</text><path d=" M  6489.39,   290.74  L  6484.42,   295.71  " style="stroke-width: 1.42 ;&st7;  " /><path d=" M  6496.44,   307.73  L  6501.41,   302.77  " style="stroke-width: 1.42 ;&st7;  " /><path d=" M  6484.42,   302.77  L  6489.39,   307.73  " style="stroke-width: 1.42 ;&st7;  " /><path d=" M  6501.41,   295.71  L  6496.44,   290.74  " style="stroke-width: 1.42 ;&st7;  " /><path d=" M  6501.41,   248.24  L  6492.92,   248.24  " style="stroke-width: 1.42 ;&st7;  " /><path d=" M  6489.39,   171.76  L  6484.42,   176.73  " style="stroke-width: 1.42 ;&st7;  " /><path d=" M  6496.44,   188.75  L  6501.41,   183.78  " style="stroke-width: 1.42 ;&st7;  " /><path d=" M  6484.42,   183.78  L  6489.39,   188.75  " style="stroke-width: 1.42 ;&st7;  " /><path d=" M  6501.41,   176.73  L  6496.44,   171.76  " style="stroke-width: 1.42 ;&st7;  " /><text style="&st18;" transform="matrix(&st16;  6230.3  180.78 )">b4</text><text style="&st18;" transform="matrix(&st16;  6230.3  146.79 )">e1</text><text style="&st18;" transform="matrix(&st16;  6230.3  112.8 )">f1</text><text style="&st18;" transform="matrix(&st16;  6230.3  214.78 )">b3</text><text style="&st18;" transform="matrix(&st16;  6384.71  40.58 )">W-B</text><text style="&st18;" transform="matrix(&st16;  6350.72  74.58 )">W-B</text><text style="&st18;" transform="matrix(&st16;  6435.7  74.58 )">W-B</text><path d=" M  6501.41,   363.70  L  6496.44,   358.73  " style="stroke-width: 1.42 ;&st7;  " /><path d=" M  6484.42,   370.75  L  6489.39,   375.72  " style="stroke-width: 1.42 ;&st7;  " /><path d=" M  6496.44,   375.72  L  6501.41,   370.75  " style="stroke-width: 1.42 ;&st7;  " /><path d=" M  6489.39,   358.73  L  6484.42,   363.70  " style="stroke-width: 1.42 ;&st7;  " /><text style="&st18;" transform="matrix(&st16;  6384.71  176.56 )">W-B</text><text style="&st18;" transform="matrix(&st16;  6384.71  210.55 )">W-B</text><text style="&st18;" transform="matrix(&st16;  6384.71  295.54 )">W-B</text><text style="&st18;" transform="matrix(&st16;  6384.71  329.53 )">W-B</text><text style="&st18;" transform="matrix(&st16;  6384.71  363.53 )">W-B</text><text style="&st18;" transform="matrix(&st16;  6384.71  397.52 )">W-B</text><text style="&st18;" transform="matrix(&st16;  6230.3  299.76 )">T10</text><text style="&st18;" transform="matrix(&st16;  6230.3  367.75 )">T7</text><text style="&st18;" transform="matrix(&st16;  6230.3  333.76 )">T8</text><text style="&st18;" transform="matrix(&st16;  6230.3  401.75 )">T5</text><text style="&st18;" transform="matrix(&st16;  6002.28  652.48 )">W-B</text><path d=" M  6067.99,   469.21  L  6067.99,   473.46  " style="stroke-width: 1.42 ;&st7;  " /><path d=" M  6000.00,   469.21  L  6000.00,   473.46  " style="stroke-width: 1.42 ;&st7;  " /><text style="&st18;" transform="matrix(&st16;  6153.81  469.74 )">c1</text><text style="&st18;" transform="matrix(&st16;  6002.28  601.49 )">W-B</text><path d=" M  6016.99,   507.45  L  6016.99,   511.70  " style="stroke-width: 1.42 ;&st7;  " /><path d=" M  6072.95,   503.20  L  6067.99,   508.17  " style="stroke-width: 1.42 ;&st7;  " /><path d=" M  6080.01,   520.20  L  6084.98,   515.23  " style="stroke-width: 1.42 ;&st7;  " /><path d=" M  6067.99,   515.23  L  6072.95,   520.20  " style="stroke-width: 1.42 ;&st7;  " /><path d=" M  6084.98,   508.17  L  6080.01,   503.20  " style="stroke-width: 1.42 ;&st7;  " /><text style="&st18;" transform="matrix(&st16;  6153.81  512.23 )">V1</text><text style="&st18;" transform="matrix(&st16;  6153.81  563.22 )">V2</text><text style="&st18;" transform="matrix(&st16;  6153.81  656.7 )">T1</text><path d=" M  6004.97,    61.28  L  6000.00,    66.25  " style="stroke-width: 1.42 ;&st7;  " /><path d=" M  6012.02,    78.27  L  6016.99,    73.30  " style="stroke-width: 1.42 ;&st7;  " /><path d=" M  6000.00,    73.30  L  6004.97,    78.27  " style="stroke-width: 1.42 ;&st7;  " /><path d=" M  6016.99,    66.25  L  6012.02,    61.28  " style="stroke-width: 1.42 ;&st7;  " /><text style="&st18;" transform="matrix(&st16;  6095.76  558.99 )">W-B</text><text style="&st18;" transform="matrix(&st16;  6153.81  70.3 )">S2</text><text style="&st18;" transform="matrix(&st16;  6099.71  465.51 )">B</text><text style="&st18;" transform="matrix(&st16;  6040.22  465.51 )">B</text><text style="&st18;" transform="matrix(&st16;  6070.26  66.08 )">W-B</text><text style="&st18;" transform="matrix(&st16;  6240.24  15.09 )">W-B</text><text style="&st18;" transform="matrix(&st17;  6489.22  219.97 )">W-B</text><text style="&st18;" transform="matrix(&st17;  6489.22  279.46 )">W-B</text><text style="&st18;" transform="matrix(&st17;  6489.22  338.95 )">W-B</text><text style="&st18;" transform="matrix(&st17;  6395.74  644.9 )">W-B</text><text style="&st18;" transform="matrix(&st17;  6370.24  644.9 )">W-B</text><path d=" M  6000.00,   265.24  L  6008.50,   265.24  " style="stroke-width: 1.42 ;&st7;  " /><text style="&st18;" transform="matrix(&st17;  6004.8  185.98 )">W-B</text><text style="&st18;" transform="matrix(&st17;  6004.8  364.45 )">W-B</text><text style="&st18;" transform="matrix(&st16;  6350.72  142.56 )">W-B</text><text style="&st18;" transform="matrix(&st16;  6354.67  108.57 )">B</text><text style="&st18;" transform="matrix(&st16;  6435.7  108.57 )">W-B</text><path d=" M  6407.93,   142.01  L  6407.93,   146.26  " style="stroke-width: 1.42 ;&st7;  " /><text style="&st18;" transform="matrix(&st16;  6435.7  142.56 )">W-B</text><path d=" M  6390.93,   112.27  L  6390.93,   116.52  " style="stroke-width: 1.42 ;&st7;  " /><text style="&st18;" transform="matrix(&st16;  6189.24  15.09 )">W-B</text><text style="&st18;" transform="matrix(&st16;  6190.41  26.42 )">(*6)</text><text style="&st18;" transform="matrix(&st16;  6241.4  26.42 )">(*6)</text><text style="&st18;" transform="matrix(&st16;  6385.87  51.91 )">(*6)</text><text style="&st18;" transform="matrix(&st16;  6351.88  85.91 )">(*6)</text><text style="&st18;" transform="matrix(&st16;  6436.87  85.91 )">(*6)</text><text style="&st18;" transform="matrix(&st17;  6395.74  508.92 )">W-B</text><text style="&st18;" transform="matrix(&st16;  6419.87  468.34 )">(*6)</text><text style="&st18;" transform="matrix(&st16;  6487.86  468.34 )">(*6)</text><text style="&st18;" transform="matrix(&st16;  6385.87  340.86 )">(*6)</text><text style="&st18;" transform="matrix(&st16;  6384.21  187.89 )">(*25)</text><text style="&st18;" transform="matrix(&st16;  6350.21  153.9 )">(*24)</text><text style="&st18;" transform="matrix(&st16;  6435.2  153.9 )">(*24)</text><text style="&st18;" transform="matrix(&st16;  6351.88  119.9 )">(*6)</text><text style="&st18;" transform="matrix(&st16;  6436.87  119.9 )">(*6)</text><text style="&st18;" transform="matrix(&st16;  6037.43  476.84 )">(*7)</text><text style="&st18;" transform="matrix(&st16;  6096.92  476.84 )">(*7)</text><text style="&st18;" transform="matrix(&st16;  6037.43  519.33 )">(*7)</text><text style="&st18;" transform="matrix(&st16;  6096.92  519.33 )">(*7)</text><text style="&st18;" transform="matrix(&st16;  6096.92  570.33 )">(*7)</text><text style="&st18;" transform="matrix(&st16;  6071.43  77.41 )">(*7)</text><text style="&st18;" transform="matrix(&st17;  6016.13  363.28 )">(*7)</text><text style="&st18;" transform="matrix(&st17;  6016.13  184.81 )">(*7)</text><text style="&st18;" transform="matrix(&st16;  6001.77  663.81 )">(*29)</text><text style="&st18;" transform="matrix(&st16;  6385.87  221.88 )">(*6)</text><text style="&st18;" transform="matrix(&st17;  6407.07  507.76 )">(*6)</text><text style="&st18;" transform="matrix(&st17;  6407.07  643.74 )">(*6)</text><text style="&st18;" transform="matrix(&st17;  6381.57  643.74 )">(*6)</text><text style="&st18;" transform="matrix(&st16;  6453.86  510.84 )">(*6)</text><text ewd:textID="21" style="&st18;" transform="matrix(&st16;  6230.3  221.88 )">Back Door Courtesy <tspan dy="6.0" x="0 ">Light Switch Assembly</tspan></text><text style="&st18;" transform="matrix(&st16;  6001.77  612.82 )">(*28)</text><text style="&st18;" transform="matrix(&st16;  6129.21  607.15 )">(TE)</text><text style="&st18;" transform="matrix(&st16;  6304.22  80.24 )">(E)</text><path d=" M  6229.46,    69.77  L  6229.46,    95.27  L  6314.44,    95.27  L  6314.44,    69.77  L  6229.46,    69.77  " style="stroke-width: 1.42 ;&st7;  " /><text style="&st18;" transform="matrix(&st16;  6304.22  46.25 )">(E)</text><path d=" M  6229.46,    35.78  L  6229.46,    61.28  L  6314.44,    61.28  L  6314.44,    35.78  L  6229.46,    35.78  " style="stroke-width: 1.42 ;&st7;  " /><text style="&st18;" transform="matrix(&st16;  6304.22  182.22 )">(E)</text><path d=" M  6229.46,   171.76  L  6229.46,   197.25  L  6314.44,   197.25  L  6314.44,   171.76  L  6229.46,   171.76  " style="stroke-width: 1.42 ;&st7;  " /><text style="&st18;" transform="matrix(&st16;  6304.22  148.23 )">(E)</text><path d=" M  6229.46,   137.76  L  6229.46,   163.26  L  6314.44,   163.26  L  6314.44,   137.76  L  6229.46,   137.76  " style="stroke-width: 1.42 ;&st7;  " /><text style="&st18;" transform="matrix(&st16;  6304.22  114.24 )">(E)</text><path d=" M  6229.46,   103.77  L  6229.46,   129.26  L  6314.44,   129.26  L  6314.44,   103.77  L  6229.46,   103.77  " style="stroke-width: 1.42 ;&st7;  " /><path d=" M  6229.46,   205.75  L  6229.46,   231.25  L  6314.44,   231.25  L  6314.44,   205.75  L  6229.46,   205.75  " style="stroke-width: 1.42 ;&st7;  " /><text style="&st18;" transform="matrix(&st16;  6306.32  216.22 )">(-)</text><path d=" M  6229.46,   290.74  L  6229.46,   316.23  L  6314.44,   316.23  L  6314.44,   290.74  L  6229.46,   290.74  " style="stroke-width: 1.42 ;&st7;  " /><text style="&st18;" transform="matrix(&st16;  6294.92  301.2 )">(GND)</text><path d=" M  6229.46,   358.73  L  6229.46,   384.22  L  6314.44,   384.22  L  6314.44,   358.73  L  6229.46,   358.73  " style="stroke-width: 1.42 ;&st7;  " /><text style="&st18;" transform="matrix(&st16;  6300.58  369.19 )">(TE)</text><path d=" M  6229.46,   324.73  L  6229.46,   350.23  L  6314.44,   350.23  L  6314.44,   324.73  L  6229.46,   324.73  " style="stroke-width: 1.42 ;&st7;  " /><text style="&st18;" transform="matrix(&st16;  6304.22  335.2 )">(E)</text><path d=" M  6229.46,   392.72  L  6229.46,   418.22  L  6314.44,   418.22  L  6314.44,   392.72  L  6229.46,   392.72  " style="stroke-width: 1.42 ;&st7;  " /><text style="&st18;" transform="matrix(&st16;  6304.22  403.19 )">(E)</text><text style="&st18;" transform="matrix(&st16;  6129.21  471.18 )">(RH-)</text><path d=" M  6127.47,   460.71  L  6127.47,   494.70  L  6212.46,   494.70  L  6212.46,   460.71  L  6127.47,   460.71  " style="stroke-width: 1.42 ;&st7;  " /><path d=" M  6127.47,   596.69  L  6127.47,   639.18  L  6212.46,   639.18  L  6212.46,   596.69  L  6127.47,   596.69  " style="stroke-width: 1.42 ;&st7;  " /><text style="&st18;" transform="matrix(&st16;  6129.21  513.67 )">(RRE)</text><path d=" M  6127.47,   503.20  L  6127.47,   545.69  L  6212.46,   545.69  L  6212.46,   503.20  L  6127.47,   503.20  " style="stroke-width: 1.42 ;&st7;  " /><text style="&st18;" transform="matrix(&st16;  6129.21  564.66 )">(GND)</text><path d=" M  6127.47,   554.19  L  6127.47,   588.19  L  6212.46,   588.19  L  6212.46,   554.19  L  6127.47,   554.19  " style="stroke-width: 1.42 ;&st7;  " /><text style="&st18;" transform="matrix(&st16;  6129.21  658.14 )">(E)</text><path d=" M  6127.47,   647.68  L  6127.47,   690.17  L  6212.46,   690.17  L  6212.46,   647.68  L  6127.47,   647.68  " style="stroke-width: 1.42 ;&st7;  " /><text style="&st18;" transform="matrix(&st16;  6129.21  71.74 )">(E)</text><path d=" M  6127.47,    61.28  L  6127.47,    86.77  L  6212.46,    86.77  L  6212.46,    61.28  L  6127.47,    61.28  " style="stroke-width: 1.42 ;&st7;  " /><g ewd:code="TV2" ewd:figID="68" ewd:figtype="w2w"><text style="&st18;" transform="matrix(&st16;  6006.62  504.46 )">8</text><path d=" M  6022.66,   515.95  L  6018.41,   511.70  L  6022.66,   507.45  " style="stroke-width: 1.42 ;&st7;  " /><path d=" M  6026.06,   515.95  L  6021.81,   511.70  L  6026.06,   507.45  " style="stroke-width: 1.42 ;&st7;  " /></g><g ewd:code="ca4" ewd:figID="71" ewd:figtype="w2w"><path d=" M  6062.32,   464.96  L  6066.57,   469.21  L  6062.32,   473.46  " style="stroke-width: 1.42 ;&st7;  " /><path d=" M  6058.92,   464.96  L  6063.17,   469.21  L  6058.92,   473.46  " style="stroke-width: 1.42 ;&st7;  " /><text style="&st18;" transform="matrix(&st16;  6074.61  461.97 )">1</text></g><g ewd:code="eb2" ewd:figID="72" ewd:figtype="w2w"><text style="&st18;" transform="matrix(&st16;  6397.55  139.02 )">2</text><path d=" M  6413.59,   150.51  L  6409.34,   146.26  L  6413.59,   142.01  " style="stroke-width: 1.42 ;&st7;  " /><path d=" M  6416.99,   150.51  L  6412.74,   146.26  L  6416.99,   142.01  " style="stroke-width: 1.42 ;&st7;  " /></g><g ewd:code="bf1" ewd:figID="73" ewd:figtype="w2w"><text style="&st18;" transform="matrix(&st16;  6397.55  105.03 )">1</text><path d=" M  6381.86,   108.02  L  6386.11,   112.27  L  6381.86,   116.52  " style="stroke-width: 1.42 ;&st7;  " /><path d=" M  6385.26,   108.02  L  6389.51,   112.27  L  6385.26,   116.52  " style="stroke-width: 1.42 ;&st7;  " /></g><g ewd:code="aS1" ewd:figID="74" ewd:figtype="w2w"><path d=" M  6413.59,    82.52  L  6409.34,    78.27  L  6413.59,    74.02  " style="stroke-width: 1.42 ;&st7;  " /><path d=" M  6416.99,    82.52  L  6412.74,    78.27  L  6416.99,    74.02  " style="stroke-width: 1.42 ;&st7;  " /><text style="&st18;" transform="matrix(&st16;  6397.55  71.03 )">4</text></g><g ewd:code="TS1" ewd:figID="75" ewd:figtype="w2w"><text style="&st18;" transform="matrix(&st16;  6457.04  453.47 )">5</text><path d=" M  6473.08,   464.96  L  6468.83,   460.71  L  6473.08,   456.46  " style="stroke-width: 1.42 ;&st7;  " /><path d=" M  6476.48,   464.96  L  6472.23,   460.71  L  6476.48,   456.46  " style="stroke-width: 1.42 ;&st7;  " /></g><g ewd:code="bT1" ewd:figID="76" ewd:figtype="w2w"><path d=" M  6497.16,   257.31  L  6492.91,   253.06  L  6488.66,   257.31  " style="stroke-width: 1.42 ;&st7;  " /><path d=" M  6497.16,   253.91  L  6492.91,   249.66  L  6488.66,   253.91  " style="stroke-width: 1.42 ;&st7;  " /><text style="&st18;" transform="matrix(&st16;  6479.5  245.96 )">2</text></g><g ewd:code="TA" ewd:figID="105" ewd:figtype="gp"><path d=" M  6399.43,   697.25  L  6399.43,   701.50  " style="stroke-width: 0.85 ;&st7;  " /><path d=" M  6390.93,   701.50  L  6407.93,   701.50  " style="stroke-width: 0.85 ;&st7;  " /><path d=" M  6395.18,   704.33  L  6403.68,   704.33  " style="stroke-width: 0.85 ;&st7;  " /><path d=" M  6396.60,   707.17  L  6402.26,   707.17  " style="stroke-width: 0.85 ;&st7;  " /><path d=" M  6398.01,   710.00  L  6400.84,   710.00  " style="stroke-width: 0.85 ;&st7;  "/></g></svg>
