<?xml version="1.0" encoding="utf-8"?>
<!DOCTYPE svg PUBLIC "-//W3C//DTD SVG 1.0//EN" "http://www.w3.org/TR/2001/REC-SVG-20010904/DTD/svg10.dtd"[
	<!ENTITY ns_flows "http://ns.adobe.com/Flows/1.0/">
	<!ENTITY ns_svg "http://www.w3.org/2000/svg">
	<!ENTITY ns_xlink "http://www.w3.org/1999/xlink">
	<!ENTITY st0 "font-size:7px;font-family:'MS-PGothic';adobe-font-script:japanese;">
	<!ENTITY st1 "font-size:6px;font-family:'ArialMT';">
	<!-- White fill  -->
	<!ENTITY st2 "fill:#FFFFFF;stroke:#000000; stroke-width:1.41;stroke-linecap:round;stroke-linejoin:round;">
	<!-- Yellow fill  -->
	<!ENTITY st3 "fill:#FFFFCC;stroke:#FFFFCC; stroke-width:0.1;stroke-linecap:round;stroke-linejoin:round;">
	<!-- Gray fill  -->
	<!ENTITY st4 "fill:#CCCCCC;stroke:#CCCCCC; stroke-width:0.1;stroke-linecap:round;stroke-linejoin:round;">
	<!-- Light-blue fill -->
	<!ENTITY st5 "fill:#CCECF4;stroke:#000000; stroke-width:1.133;stroke-linecap:round;stroke-linejoin:round;">
	<!ENTITY st6 "fill:none;stroke-linecap:butt; stroke-linejoin:round;">
	<!ENTITY st7 "fill:none;stroke:#000000;stroke-linecap:round;stroke-linejoin:round;">
	<!ENTITY st8 "enable-background:new    ;">
	<!-- Black fill -->
	<!ENTITY st9 "fill:#000000;stroke:#000000; stroke-linecap:round;stroke-linejoin:round;">
	<!-- SRS note   -->
	<!ENTITY st10 "font-size:9px;font-family:'ArialMT';">
	<!ENTITY st11 "font-size:9px;font-family:'Svg Symbol';">
	<!ENTITY st12 "font-size:6px;font-family:'Svg Symbol';">
	<!ENTITY st13 "fill:none;stroke:#ff0000;stroke-linecap:round;stroke-linejoin:round;">
	<!-- Yellow fill  -->
	<!ENTITY st14 "fill:#FFFF00;stroke:#FFFF00; stroke-width:0.1;stroke-linecap:round;stroke-linejoin:round;">
	<!ENTITY st15 "font-size:6px;font-family:'MS-PGothic';adobe-font-script:japanese;">
	<!ENTITY st16 "1.00 0.00 0.00 1.00">
	<!ENTITY st17 "0.00 -1.00 1.00 0.00">
	<!ENTITY st18 "font-size:6px;font-family:'Arial';">
	<!ENTITY st19 "font-size:9px;font-family:'Arial';">
	<!ENTITY st20 "font-size:6px;font-family:'MS-PGothic','MS PGothic';adobe-font-script:japanese;">
	<!ENTITY st21 "font-size:7px;font-family:'MS-PGothic','MS PGothic';adobe-font-script:japanese;">
	<!ATTLIST svg
		xmlns:ewd CDATA #FIXED "http://shcl.co.jp/ewd"
		xmlns:a CDATA #FIXED "http://ns.adobe.com/AdobeSVGViewerExtensions/3.0/"
		ewd:ver CDATA #IMPLIED
	>
	<!ATTLIST a
		ewd:lineID CDATA #IMPLIED
		ewd:groupID CDATA #IMPLIED
		ewd:figtype CDATA #IMPLIED
		ewd:code CDATA #IMPLIED
		ewd:figID CDATA #IMPLIED
		ewd:pinNo CDATA #IMPLIED
		ewd:comment CDATA #IMPLIED >
	<!ATTLIST g
		ewd:lineID CDATA #IMPLIED
		ewd:groupID CDATA #IMPLIED
		ewd:figtype CDATA #IMPLIED
		ewd:code CDATA #IMPLIED
		ewd:figID CDATA #IMPLIED
		ewd:pinNo CDATA #IMPLIED
		ewd:comment CDATA #IMPLIED >
	<!ATTLIST text
		ewd:textID CDATA #IMPLIED >
	<!ATTLIST title
		ewd:textID CDATA #IMPLIED >
]>
<!-- Generator: Shintec Hozumi YS   -->
<svg onload="call_execInitLoadProc_svg('system')" style="overflow:visible;  enable-background:new 0 0 7262.774 710.000" viewBox="0 0 7262.774 710.000" height="710.000" width="7262.774" xml:space="preserve" ewd:ver="2.3.1.16" xmlns="&ns_svg;" xmlns:a="http://ns.adobe.com/AdobeSVGViewerExtensions/3.0/" xmlns:ewd="http://shcl.co.jp/ewd" xmlns:xlink="&ns_xlink;">
<text ewd:textID="97" style="&st18;" transform="matrix(&st16;  4156.65  145.4 )">Headlight Assembly RH</text><text ewd:textID="97" style="&st18;" transform="matrix(&st16;  4156.65  179.39 )">Headlight Assembly RH</text><text ewd:textID="74" style="&st18;" transform="matrix(&st16;  4156.65  221.88 )">Fog Light Assembly LH</text><text ewd:textID="75" style="&st18;" transform="matrix(&st16;  4156.65  255.88 )">Fog Light Assembly RH</text><text ewd:textID="43" style="&st18;" transform="matrix(&st16;  4156.65  298.37 )">Antenna with <tspan dy="6.0" x="0 ">Holder Assembly</tspan></text><text ewd:textID="126" style="&st18;" transform="matrix(&st16;  4156.65  434.35 )">No. 2 CAN <tspan dy="6.0" x="0 ">Junction Connector</tspan></text><text ewd:textID="52" style="&st18;" transform="matrix(&st16;  4156.65  536.33 )">Center Stop <tspan dy="6.0" x="0 ">Light Assembly</tspan></text><text ewd:textID="128" style="&st18;" transform="matrix(&st16;  4156.65  468.34 )">No. 2 Four Wheel <tspan dy="6.0" x="0 ">Drive Control ECU</tspan></text><text ewd:textID="119" style="&st18;" transform="matrix(&st16;  4156.65  502.34 )">Motor Antenna <tspan dy="6.0" x="0 ">Control Relay</tspan></text><text ewd:textID="97" style="&st18;" transform="matrix(&st16;  4156.65  111.4 )">Headlight Assembly RH</text><text ewd:textID="157" style="&st18;" transform="matrix(&st16;  4156.65  77.41 )">Side Turn Signal <tspan dy="6.0" x="0 ">Light Assembly RH</tspan></text><text style="&st18;" transform="matrix(&st16;  4080.16  333.76 )">I88</text><text style="&st18;" transform="matrix(&st16;  4080.16  384.75 )">I11</text><text ewd:textID="58" style="&st18;" transform="matrix(&st16;  4080.16  391.86 )">Cooler <tspan dy="6.0" x="0 ">Stabilizer </tspan><tspan dy="6.0" x="0 ">Amplifier </tspan><tspan dy="6.0" x="0 ">Assembly</tspan></text><text ewd:textID="58" style="&st18;" transform="matrix(&st16;  4080.16  340.86 )">Cooler <tspan dy="6.0" x="0 ">Stabilizer </tspan><tspan dy="6.0" x="0 ">Amplifier </tspan><tspan dy="6.0" x="0 ">Assembly</tspan></text><text ewd:textID="137" style="&st18;" transform="matrix(&st16;  4156.65  570.33 )">Option Connector <tspan dy="6.0" x="0 ">(Power Outlet Socket)</tspan></text><text style="&st18;" transform="matrix(&st16;  4006.84  340.86 )">(*1,*3)</text><text style="&st18;" transform="matrix(&st16;  4010.52  391.86 )">(*2)</text><path d=" M  4023.36,   511.70  L  4028.33,   506.73  " style="stroke-width: 1.42 ;&st7;  " /><path d=" M  4016.30,   494.70  L  4011.33,   499.67  " style="stroke-width: 1.42 ;&st7;  " /><path d=" M  4011.33,   506.73  L  4016.30,   511.70  " style="stroke-width: 1.42 ;&st7;  " /><path d=" M  4028.33,   499.67  L  4023.36,   494.70  " style="stroke-width: 1.42 ;&st7;  " /><path d=" M  4028.33,   571.19  L  4019.83,   571.19  " style="stroke-width: 1.42 ;&st7;  " /><path d=" M  4028.33,   431.69  L  4023.36,   426.71  " style="stroke-width: 1.42 ;&st7;  " /><path d=" M  4011.33,   438.74  L  4016.30,   443.71  " style="stroke-width: 1.42 ;&st7;  " /><path d=" M  4023.36,   443.71  L  4028.33,   438.74  " style="stroke-width: 1.42 ;&st7;  " /><path d=" M  4016.30,   426.71  L  4011.33,   431.69  " style="stroke-width: 1.42 ;&st7;  " /><path d=" M  4016.30,   622.18  L  4011.33,   627.15  " style="stroke-width: 1.42 ;&st7;  " /><path d=" M  4023.36,   639.18  L  4028.33,   634.21  " style="stroke-width: 1.42 ;&st7;  " /><path d=" M  4011.33,   634.21  L  4016.30,   639.18  " style="stroke-width: 1.42 ;&st7;  " /><path d=" M  4028.33,   627.15  L  4023.36,   622.18  " style="stroke-width: 1.42 ;&st7;  " /><path d=" M  4087.96,   623.20  C  4086.05    625.34   4086.00    628.47   4087.82    630.68  " style="stroke-width: 1.42 ;&st7;   " /><text style="&st18;" transform="matrix(&st16;  4009.36  380.52 )">W-B</text><text style="&st18;" transform="matrix(&st16;  4009.36  329.53 )">W-B</text><text ewd:textID="1" style="&st18;" transform="matrix(&st17;  4016.13  482.57 )">(Shielded)</text><text style="&st18;" transform="matrix(&st17;  4016.13  538.67 )">W-B</text><text style="&st18;" transform="matrix(&st17;  4016.13  606.66 )">W-B</text><text ewd:textID="1" style="&st18;" transform="matrix(&st16;  4039.96  626.98 )">(Shielded)</text><text style="&st18;" transform="matrix(&st16;  4156.64  70.3 )">I25</text><text style="&st18;" transform="matrix(&st16;  4156.64  104.3 )">I38</text><text style="&st18;" transform="matrix(&st16;  4156.64  138.29 )">I91</text><text style="&st18;" transform="matrix(&st16;  4156.64  172.29 )">I36</text><text style="&st18;" transform="matrix(&st16;  4156.64  214.78 )">J2</text><text style="&st18;" transform="matrix(&st16;  4156.64  248.77 )">J1</text><path d=" M  4432.73,    95.27  L  4427.76,   100.24  " style="stroke-width: 1.42 ;&st7;  " /><path d=" M  4439.79,   112.27  L  4444.76,   107.30  " style="stroke-width: 1.42 ;&st7;  " /><path d=" M  4427.76,   107.30  L  4432.73,   112.27  " style="stroke-width: 1.42 ;&st7;  " /><path d=" M  4444.76,   100.24  L  4439.79,    95.27  " style="stroke-width: 1.42 ;&st7;  " /><text style="&st18;" transform="matrix(&st17;  4432.56  143.48 )">W-B</text><path d=" M  4444.76,   210.72  L  4439.79,   205.75  " style="stroke-width: 1.42 ;&st7;  " /><path d=" M  4427.76,   217.78  L  4432.73,   222.75  " style="stroke-width: 1.42 ;&st7;  " /><path d=" M  4439.79,   222.75  L  4444.76,   217.78  " style="stroke-width: 1.42 ;&st7;  " /><path d=" M  4432.73,   205.75  L  4427.76,   210.72  " style="stroke-width: 1.42 ;&st7;  " /><path d=" M  4300.28,   210.00  L  4300.28,   214.25  " style="stroke-width: 1.42 ;&st7;  " /><path d=" M  4300.28,   243.99  L  4300.28,   248.24  " style="stroke-width: 1.42 ;&st7;  " /><path d=" M  4368.27,   210.00  L  4368.27,   214.25  " style="stroke-width: 1.42 ;&st7;  " /><path d=" M  4368.27,   243.99  L  4368.27,   248.24  " style="stroke-width: 1.42 ;&st7;  " /><path d=" M  4461.75,   154.76  L  4470.25,   154.76  " style="stroke-width: 1.42 ;&st7;  " /><path d=" M  4495.75,    98.80  L  4500.72,   103.77  " style="stroke-width: 1.42 ;&st7;  " /><path d=" M  4500.72,    86.77  L  4495.75,    91.74  " style="stroke-width: 1.42 ;&st7;  " /><path d=" M  4500.72,   214.25  L  4495.75,   219.22  " style="stroke-width: 1.42 ;&st7;  " /><path d=" M  4495.75,   226.28  L  4500.72,   231.25  " style="stroke-width: 1.42 ;&st7;  " /><text style="&st18;" transform="matrix(&st17;  4477.89  129.57 )">(*2)</text><text style="&st18;" transform="matrix(&st17;  4477.89  193.31 )">(*2)</text><path d=" M  4495.75,   370.75  L  4500.72,   375.72  " style="stroke-width: 1.42 ;&st7;  " /><path d=" M  4500.72,   358.73  L  4495.75,   363.70  " style="stroke-width: 1.42 ;&st7;  " /><path d=" M  4385.27,   363.70  L  4380.30,   358.73  " style="stroke-width: 1.42 ;&st7;  " /><path d=" M  4368.27,   370.75  L  4373.24,   375.72  " style="stroke-width: 1.42 ;&st7;  " /><path d=" M  4380.30,   375.72  L  4385.27,   370.75  " style="stroke-width: 1.42 ;&st7;  " /><path d=" M  4373.24,   358.73  L  4368.27,   363.70  " style="stroke-width: 1.42 ;&st7;  " /><text style="&st18;" transform="matrix(&st16;  4319.56  32.08 )">W-B</text><text style="&st18;" transform="matrix(&st16;  4156.64  36.31 )">I129</text><text ewd:textID="157" style="&st18;" transform="matrix(&st16;  4156.65  43.41 )">Side Turn Signal <tspan dy="6.0" x="0 ">Light Assembly RH</tspan></text><path d=" M  4283.28,   287.21  L  4278.31,   282.24  " style="stroke-width: 1.42 ;&st7;  " /><path d=" M  4266.29,   294.27  L  4271.26,   299.24  " style="stroke-width: 1.42 ;&st7;  " /><path d=" M  4278.31,   299.24  L  4283.28,   294.27  " style="stroke-width: 1.42 ;&st7;  " /><path d=" M  4271.26,   282.24  L  4266.29,   287.21  " style="stroke-width: 1.42 ;&st7;  " /><text style="&st18;" transform="matrix(&st16;  4156.64  291.27 )">A10</text><text style="&st18;" transform="matrix(&st16;  4156.64  427.24 )">I101</text><text style="&st18;" transform="matrix(&st16;  4156.64  461.24 )">I8</text><text style="&st18;" transform="matrix(&st16;  4156.64  495.23 )">I49</text><text style="&st18;" transform="matrix(&st16;  4156.64  529.23 )">Y3</text><text style="&st18;" transform="matrix(&st16;  4156.64  563.22 )">I10</text><text style="&st18;" transform="matrix(&st17;  4373.07  394.19 )">W-B</text><text ewd:textID="1" style="&st18;" transform="matrix(&st17;  4373.08  346.59 )">(Shielded)</text><text style="&st18;" transform="matrix(&st16;  4319.56  66.08 )">W-B</text><text style="&st18;" transform="matrix(&st16;  4319.56  100.07 )">W-B</text><text style="&st18;" transform="matrix(&st16;  4319.56  134.07 )">W-B</text><text style="&st18;" transform="matrix(&st16;  4319.56  168.06 )">W-B</text><text style="&st18;" transform="matrix(&st16;  4319.56  210.55 )">W-B</text><text style="&st18;" transform="matrix(&st16;  4319.56  244.55 )">W-B</text><text style="&st18;" transform="matrix(&st16;  4260.07  210.55 )">W-B</text><text style="&st18;" transform="matrix(&st16;  4260.07  244.55 )">W-B</text><text style="&st18;" transform="matrix(&st16;  4396.04  244.55 )">W-B</text><text style="&st18;" transform="matrix(&st16;  4396.04  210.55 )">W-B</text><text style="&st18;" transform="matrix(&st16;  4247.32  287.04 )">W-B</text><text style="&st18;" transform="matrix(&st16;  4311.06  423.02 )">W-B</text><text style="&st18;" transform="matrix(&st16;  4311.06  457.01 )">W-B</text><text style="&st18;" transform="matrix(&st16;  4311.06  491.01 )">W-B</text><text style="&st18;" transform="matrix(&st16;  4312.1  558.99 )">B-Y</text><text style="&st18;" transform="matrix(&st16;  4115.59  652.48 )">W-B</text><text style="&st18;" transform="matrix(&st16;  4166.58  652.48 )">W-B</text><text style="&st18;" transform="matrix(&st17;  4432.56  355.95 )">W-B</text><text style="&st18;" transform="matrix(&st17;  4466.56  194.48 )">W-B</text><text style="&st18;" transform="matrix(&st17;  4466.56  130.74 )">W-B</text><text style="&st18;" transform="matrix(&st16;  4247.32  525.0 )">W-B</text><text style="&st18;" transform="matrix(&st16;  4336.55  525.0 )">W-B</text><text style="&st18;" transform="matrix(&st16;  4464.03  363.53 )">W-B</text><text ewd:textID="1" style="&st18;" transform="matrix(&st16;  4290.67  287.04 )">(Shielded)</text><path d=" M  4444.76,   168.23  L  4439.79,   163.26  " style="stroke-width: 1.42 ;&st7;  " /><path d=" M  4427.76,   175.29  L  4432.73,   180.26  " style="stroke-width: 1.42 ;&st7;  " /><path d=" M  4439.79,   180.26  L  4444.76,   175.29  " style="stroke-width: 1.42 ;&st7;  " /><path d=" M  4432.73,   163.26  L  4427.76,   168.23  " style="stroke-width: 1.42 ;&st7;  " /><path d=" M  4444.76,   244.72  L  4439.79,   239.75  " style="stroke-width: 1.42 ;&st7;  " /><path d=" M  4427.76,   251.77  L  4432.73,   256.74  " style="stroke-width: 1.42 ;&st7;  " /><path d=" M  4439.79,   256.74  L  4444.76,   251.77  " style="stroke-width: 1.42 ;&st7;  " /><path d=" M  4432.73,   239.75  L  4427.76,   244.72  " style="stroke-width: 1.42 ;&st7;  " /><text style="&st18;" transform="matrix(&st16;  4395.54  221.88 )">(*44)</text><text style="&st18;" transform="matrix(&st16;  4395.54  255.88 )">(*44)</text><text style="&st18;" transform="matrix(&st16;  4400.0  185.06 )">B</text><text style="&st18;" transform="matrix(&st16;  4395.54  196.39 )">(*45)</text><text style="&st18;" transform="matrix(&st16;  4400.0  270.04 )">B</text><text style="&st18;" transform="matrix(&st16;  4395.54  281.37 )">(*45)</text><text style="&st18;" transform="matrix(&st17;  4432.56  198.72 )">W-B</text><text style="&st18;" transform="matrix(&st17;  4432.56  236.97 )">W-B</text><path d=" M  4317.28,   524.45  L  4317.28,   528.70  " style="stroke-width: 1.42 ;&st7;  " /><text style="&st18;" transform="matrix(&st16;  4310.55  570.33 )">(*44)</text><text style="&st18;" transform="matrix(&st16;  4311.06  584.49 )">W-B</text><text style="&st18;" transform="matrix(&st16;  4310.55  595.82 )">(*45)</text><path d=" M  4359.77,   286.49  L  4359.77,   290.74  " style="stroke-width: 1.42 ;&st7;  " /><text style="&st18;" transform="matrix(&st16;  4319.05  43.41 )">(*42)</text><text style="&st18;" transform="matrix(&st16;  4319.05  77.41 )">(*43)</text><path d=" M  4053.82,   324.73  L  4053.82,   367.22  L  4138.81,   367.22  L  4138.81,   324.73  L  4053.82,   324.73  " style="stroke-width: 1.42 ;&st7;  " /><text style="&st18;" transform="matrix(&st16;  4055.56  335.2 )">(GND)</text><path d=" M  4053.82,   375.72  L  4053.82,   418.22  L  4138.81,   418.22  L  4138.81,   375.72  L  4053.82,   375.72  " style="stroke-width: 1.42 ;&st7;  " /><text style="&st18;" transform="matrix(&st16;  4055.56  386.19 )">(GND)</text><path d=" M  4155.80,    61.28  L  4155.80,    86.77  L  4240.79,    86.77  L  4240.79,    61.28  L  4155.80,    61.28  " style="stroke-width: 1.42 ;&st7;  " /><text style="&st18;" transform="matrix(&st16;  4230.57  71.74 )">(E)</text><path d=" M  4155.80,    95.27  L  4155.80,   120.77  L  4240.79,   120.77  L  4240.79,    95.27  L  4155.80,    95.27  " style="stroke-width: 1.42 ;&st7;  " /><text style="&st18;" transform="matrix(&st16;  4230.57  105.74 )">(E)</text><path d=" M  4155.80,   129.26  L  4155.80,   154.76  L  4240.79,   154.76  L  4240.79,   129.26  L  4155.80,   129.26  " style="stroke-width: 1.42 ;&st7;  " /><text style="&st18;" transform="matrix(&st16;  4230.57  139.73 )">(E)</text><path d=" M  4155.80,   163.26  L  4155.80,   188.75  L  4240.79,   188.75  L  4240.79,   163.26  L  4155.80,   163.26  " style="stroke-width: 1.42 ;&st7;  " /><text style="&st18;" transform="matrix(&st16;  4230.57  173.73 )">(B)</text><path d=" M  4155.80,   205.75  L  4155.80,   231.25  L  4240.79,   231.25  L  4240.79,   205.75  L  4155.80,   205.75  " style="stroke-width: 1.42 ;&st7;  " /><text style="&st18;" transform="matrix(&st16;  4230.57  216.22 )">(E)</text><path d=" M  4155.80,   239.75  L  4155.80,   265.24  L  4240.79,   265.24  L  4240.79,   239.75  L  4155.80,   239.75  " style="stroke-width: 1.42 ;&st7;  " /><text style="&st18;" transform="matrix(&st16;  4230.57  250.21 )">(E)</text><text style="&st18;" transform="matrix(&st16;  4230.57  37.75 )">(E)</text><path d=" M  4155.80,    27.28  L  4155.80,    52.78  L  4240.79,    52.78  L  4240.79,    27.28  L  4155.80,    27.28  " style="stroke-width: 1.42 ;&st7;  " /><path d=" M  4155.80,   282.24  L  4155.80,   307.73  L  4240.79,   307.73  L  4240.79,   282.24  L  4155.80,   282.24  " style="stroke-width: 1.42 ;&st7;  " /><text style="&st18;" transform="matrix(&st16;  4221.89  292.71 )">(SHD)</text><path d=" M  4155.80,   418.22  L  4155.80,   443.71  L  4240.79,   443.71  L  4240.79,   418.22  L  4155.80,   418.22  " style="stroke-width: 1.42 ;&st7;  " /><text style="&st18;" transform="matrix(&st16;  4230.57  428.68 )">(E)</text><path d=" M  4155.80,   452.21  L  4155.80,   477.71  L  4240.79,   477.71  L  4240.79,   452.21  L  4155.80,   452.21  " style="stroke-width: 1.42 ;&st7;  " /><text style="&st18;" transform="matrix(&st16;  4221.27  462.68 )">(GND)</text><path d=" M  4155.80,   486.20  L  4155.80,   511.70  L  4240.79,   511.70  L  4240.79,   486.20  L  4155.80,   486.20  " style="stroke-width: 1.42 ;&st7;  " /><text style="&st18;" transform="matrix(&st16;  4230.57  496.67 )">(E)</text><path d=" M  4155.80,   520.20  L  4155.80,   545.69  L  4240.79,   545.69  L  4240.79,   520.20  L  4155.80,   520.20  " style="stroke-width: 1.42 ;&st7;  " /><text style="&st18;" transform="matrix(&st16;  4230.57  530.67 )">(E)</text><path d=" M  4155.80,   554.19  L  4155.80,   579.69  L  4240.79,   579.69  L  4240.79,   554.19  L  4155.80,   554.19  " style="stroke-width: 1.42 ;&st7;  " /><text style="&st18;" transform="matrix(&st16;  4230.57  564.66 )">(E)</text><g ewd:code="I93" ewd:figID="10" ewd:figtype="conn"><g ewd:lineID="251"><text style="&st18;" transform="matrix(&st16;  4361.86  649.65 )">1</text><path d=" M  4368.27,   656.18  C  4368.27    653.67   4366.24    651.64   4363.74    651.64  " style="stroke-width: 1.42 ;&st7;   " /><path d=" M  4363.74,   651.64  C  4361.23    651.64   4359.20    653.67   4359.20    656.18  " style="stroke-width: 1.42 ;&st7;   " /><path d=" M  4359.20,   656.18  C  4359.20    658.68   4361.23    660.71   4363.74    660.71  " style="stroke-width: 1.42 ;&st7;   " /><path d=" M  4363.74,   660.71  C  4366.24    660.71   4368.27    658.68   4368.27    656.18  " style="stroke-width: 1.42 ;&st7;   " /><text style="&st18;" transform="matrix(&st16;  4361.47  658.14 )">A</text></g><g ewd:lineID="273,285"><text style="&st18;" transform="matrix(&st16;  4360.19  556.16 )">12</text><text style="&st18;" transform="matrix(&st16;  4361.47  564.66 )">A</text><path d=" M  4368.27,   562.69  C  4368.27    560.19   4366.24    558.16   4363.74    558.16  " style="stroke-width: 1.42 ;&st7;   " /><path d=" M  4363.74,   558.16  C  4361.23    558.16   4359.20    560.19   4359.20    562.69  " style="stroke-width: 1.42 ;&st7;   " /><path d=" M  4359.20,   562.69  C  4359.20    565.19   4361.23    567.22   4363.74    567.22  " style="stroke-width: 1.42 ;&st7;   " /><path d=" M  4363.74,   567.22  C  4366.24    567.22   4368.27    565.19   4368.27    562.69  " style="stroke-width: 1.42 ;&st7;   " /></g><g ewd:lineID="286"><text style="&st18;" transform="matrix(&st16;  4360.19  522.17 )">10</text><path d=" M  4368.27,   528.70  C  4368.27    526.19   4366.24    524.16   4363.74    524.16  " style="stroke-width: 1.42 ;&st7;   " /><path d=" M  4363.74,   524.16  C  4361.23    524.16   4359.20    526.19   4359.20    528.70  " style="stroke-width: 1.42 ;&st7;   " /><path d=" M  4359.20,   528.70  C  4359.20    531.20   4361.23    533.23   4363.74    533.23  " style="stroke-width: 1.42 ;&st7;   " /><path d=" M  4363.74,   533.23  C  4366.24    533.23   4368.27    531.20   4368.27    528.70  " style="stroke-width: 1.42 ;&st7;   " /><text style="&st18;" transform="matrix(&st16;  4361.47  530.67 )">A</text></g><g ewd:lineID="287"><text style="&st18;" transform="matrix(&st16;  4361.86  488.17 )">9</text><path d=" M  4368.27,   494.70  C  4368.27    492.20   4366.24    490.17   4363.74    490.17  " style="stroke-width: 1.42 ;&st7;   " /><path d=" M  4363.74,   490.17  C  4361.23    490.17   4359.20    492.20   4359.20    494.70  " style="stroke-width: 1.42 ;&st7;   " /><path d=" M  4359.20,   494.70  C  4359.20    497.21   4361.23    499.24   4363.74    499.24  " style="stroke-width: 1.42 ;&st7;   " /><path d=" M  4363.74,   499.24  C  4366.24    499.24   4368.27    497.21   4368.27    494.70  " style="stroke-width: 1.42 ;&st7;   " /><text style="&st18;" transform="matrix(&st16;  4361.47  496.67 )">A</text></g><g ewd:lineID="288"><text style="&st18;" transform="matrix(&st16;  4361.86  454.18 )">8</text><text style="&st18;" transform="matrix(&st16;  4361.47  462.68 )">A</text><path d=" M  4368.27,   460.71  C  4368.27    458.21   4366.24    456.18   4363.74    456.18  " style="stroke-width: 1.42 ;&st7;   " /><path d=" M  4363.74,   456.18  C  4361.23    456.18   4359.20    458.21   4359.20    460.71  " style="stroke-width: 1.42 ;&st7;   " /><path d=" M  4359.20,   460.71  C  4359.20    463.21   4361.23    465.24   4363.74    465.24  " style="stroke-width: 1.42 ;&st7;   " /><path d=" M  4363.74,   465.24  C  4366.24    465.24   4368.27    463.21   4368.27    460.71  " style="stroke-width: 1.42 ;&st7;   " /></g><g ewd:lineID="289"><text style="&st18;" transform="matrix(&st16;  4361.86  420.18 )">7</text><path d=" M  4368.27,   426.71  C  4368.27    424.21   4366.24    422.18   4363.74    422.18  " style="stroke-width: 1.42 ;&st7;   " /><path d=" M  4363.74,   422.18  C  4361.23    422.18   4359.20    424.21   4359.20    426.71  " style="stroke-width: 1.42 ;&st7;   " /><path d=" M  4359.20,   426.71  C  4359.20    429.22   4361.23    431.25   4363.74    431.25  " style="stroke-width: 1.42 ;&st7;   " /><path d=" M  4363.74,   431.25  C  4366.24    431.25   4368.27    429.22   4368.27    426.71  " style="stroke-width: 1.42 ;&st7;   " /><text style="&st18;" transform="matrix(&st16;  4361.47  428.68 )">A</text></g><g ewd:lineID="294"><text style="&st18;" transform="matrix(&st16;  4363.95  671.18 )">11</text><path d=" M  4381.30,   669.21  C  4381.30    666.70   4379.27    664.67   4376.77    664.67  " style="stroke-width: 1.42 ;&st7;   " /><path d=" M  4376.77,   664.67  C  4374.27    664.67   4372.24    666.70   4372.24    669.21  " style="stroke-width: 1.42 ;&st7;   " /><path d=" M  4372.24,   669.21  C  4372.24    671.71   4374.27    673.74   4376.77    673.74  " style="stroke-width: 1.42 ;&st7;   " /><path d=" M  4376.77,   673.74  C  4379.27    673.74   4381.30    671.71   4381.30    669.21  " style="stroke-width: 1.42 ;&st7;   " /><text style="&st18;" transform="matrix(&st16;  4374.5  671.18 )">A</text></g><g ewd:lineID="295"><text style="&st18;" transform="matrix(&st16;  4367.29  407.15 )">3</text><path d=" M  4381.30,   405.18  C  4381.30    402.68   4379.27    400.65   4376.77    400.65  " style="stroke-width: 1.42 ;&st7;   " /><path d=" M  4376.77,   400.65  C  4374.27    400.65   4372.24    402.68   4372.24    405.18  " style="stroke-width: 1.42 ;&st7;   " /><path d=" M  4372.24,   405.18  C  4372.24    407.69   4374.27    409.72   4376.77    409.72  " style="stroke-width: 1.42 ;&st7;   " /><path d=" M  4376.77,   409.72  C  4379.27    409.72   4381.30    407.69   4381.30    405.18  " style="stroke-width: 1.42 ;&st7;   " /><text style="&st18;" transform="matrix(&st16;  4374.5  407.15 )">A</text></g><g ewd:lineID="296"><text style="&st18;" transform="matrix(&st16;  4387.92  420.18 )">2</text><text style="&st18;" transform="matrix(&st16;  4387.53  428.68 )">A</text><path d=" M  4394.33,   426.71  C  4394.33    424.21   4392.30    422.18   4389.80    422.18  " style="stroke-width: 1.42 ;&st7;   " /><path d=" M  4389.80,   422.18  C  4387.30    422.18   4385.27    424.21   4385.27    426.71  " style="stroke-width: 1.42 ;&st7;   " /><path d=" M  4385.27,   426.71  C  4385.27    429.22   4387.30    431.25   4389.80    431.25  " style="stroke-width: 1.42 ;&st7;   " /><path d=" M  4389.80,   431.25  C  4392.30    431.25   4394.33    429.22   4394.33    426.71  " style="stroke-width: 1.42 ;&st7;   " /></g><g ewd:lineID="339"><text style="&st18;" transform="matrix(&st16;  4387.92  454.18 )">6</text><path d=" M  4394.33,   460.71  C  4394.33    458.21   4392.30    456.18   4389.80    456.18  " style="stroke-width: 1.42 ;&st7;   " /><path d=" M  4389.80,   456.18  C  4387.30    456.18   4385.27    458.21   4385.27    460.71  " style="stroke-width: 1.42 ;&st7;   " /><path d=" M  4385.27,   460.71  C  4385.27    463.21   4387.30    465.24   4389.80    465.24  " style="stroke-width: 1.42 ;&st7;   " /><path d=" M  4389.80,   465.24  C  4392.30    465.24   4394.33    463.21   4394.33    460.71  " style="stroke-width: 1.42 ;&st7;   " /><text style="&st18;" transform="matrix(&st16;  4387.53  462.68 )">A</text></g><path d=" M  4368.27,   409.72  L  4368.27,   664.67  L  4385.27,   664.67  L  4385.27,   409.72  L  4368.27,   409.72  " style="stroke-width: 1.42 ;&st7;  " /><path d=" M  4368.27,   562.69  L  4376.77,   562.69  " style="stroke-width: 0.85 ;&st7;  " /><path d=" M  4376.77,   409.72  L  4376.77,   664.67  " style="stroke-width: 0.85 ;&st7;  " /><path d=" M  4375.57,   561.69  L  4375.30,   562.16  L  4375.21,   562.69  L  4375.30,   563.22  L  4375.57,   563.69  L  4375.99,   564.04  L  4376.50,   564.23  L  4377.04,   564.23  L  4377.55,   564.04  L  4377.96,   563.69  L  4378.23,   563.22  L  4378.32,   562.69  L  4378.23,   562.16  L  4377.96,   561.69  L  4377.55,   561.34  L  4377.04,   561.16  L  4376.50,   561.16  L  4375.99,   561.34  L  4375.57,   561.69  L  4375.97,   562.40  L  4375.97,   562.98  L  4376.34,   563.43  L  4376.91,   563.53  L  4377.42,   563.24  L  4377.62,   562.69  L  4377.42,   562.14  L  4376.91,   561.86  L  4376.34,   561.95  L  4376.77,   562.69  " style="stroke-width: 0.85 ;&st7;  " /><path d=" M  4368.27,   656.18  L  4376.77,   656.18  " style="stroke-width: 0.85 ;&st7;  " /><path d=" M  4368.27,   528.70  L  4376.77,   528.70  " style="stroke-width: 0.85 ;&st7;  " /><path d=" M  4368.27,   494.70  L  4376.77,   494.70  " style="stroke-width: 0.85 ;&st7;  " /><path d=" M  4368.27,   460.71  L  4385.27,   460.71  " style="stroke-width: 0.85 ;&st7;  " /><path d=" M  4368.27,   426.71  L  4385.27,   426.71  " style="stroke-width: 0.85 ;&st7;  " /><path d=" M  4375.57,   425.71  L  4375.30,   426.18  L  4375.21,   426.71  L  4375.30,   427.25  L  4375.57,   427.72  L  4375.99,   428.06  L  4376.50,   428.25  L  4377.04,   428.25  L  4377.55,   428.06  L  4377.96,   427.72  L  4378.23,   427.25  L  4378.32,   426.71  L  4378.23,   426.18  L  4377.96,   425.71  L  4377.55,   425.37  L  4377.04,   425.18  L  4376.50,   425.18  L  4375.99,   425.37  L  4375.57,   425.71  L  4375.97,   426.42  L  4375.97,   427.01  L  4376.34,   427.45  L  4376.91,   427.55  L  4377.42,   427.26  L  4377.62,   426.71  L  4377.42,   426.17  L  4376.91,   425.88  L  4376.34,   425.98  L  4376.77,   426.71  " style="stroke-width: 0.85 ;&st7;  " /><path d=" M  4375.57,   459.71  L  4375.30,   460.18  L  4375.21,   460.71  L  4375.30,   461.24  L  4375.57,   461.71  L  4375.99,   462.06  L  4376.50,   462.24  L  4377.04,   462.24  L  4377.55,   462.06  L  4377.96,   461.71  L  4378.23,   461.24  L  4378.32,   460.71  L  4378.23,   460.18  L  4377.96,   459.71  L  4377.55,   459.36  L  4377.04,   459.17  L  4376.50,   459.17  L  4375.99,   459.36  L  4375.57,   459.71  L  4375.97,   460.42  L  4375.97,   461.00  L  4376.34,   461.44  L  4376.91,   461.54  L  4377.42,   461.26  L  4377.62,   460.71  L  4377.42,   460.16  L  4376.91,   459.87  L  4376.34,   459.97  L  4376.77,   460.71  " style="stroke-width: 0.85 ;&st7;  " /><path d=" M  4375.57,   493.70  L  4375.30,   494.17  L  4375.21,   494.70  L  4375.30,   495.24  L  4375.57,   495.71  L  4375.99,   496.05  L  4376.50,   496.24  L  4377.04,   496.24  L  4377.55,   496.05  L  4377.96,   495.71  L  4378.23,   495.24  L  4378.32,   494.70  L  4378.23,   494.17  L  4377.96,   493.70  L  4377.55,   493.35  L  4377.04,   493.17  L  4376.50,   493.17  L  4375.99,   493.35  L  4375.57,   493.70  L  4375.97,   494.41  L  4375.97,   494.99  L  4376.34,   495.44  L  4376.91,   495.54  L  4377.42,   495.25  L  4377.62,   494.70  L  4377.42,   494.16  L  4376.91,   493.87  L  4376.34,   493.97  L  4376.77,   494.70  " style="stroke-width: 0.85 ;&st7;  " /><path d=" M  4375.57,   527.69  L  4375.30,   528.16  L  4375.21,   528.70  L  4375.30,   529.23  L  4375.57,   529.70  L  4375.99,   530.05  L  4376.50,   530.23  L  4377.04,   530.23  L  4377.55,   530.05  L  4377.96,   529.70  L  4378.23,   529.23  L  4378.32,   528.70  L  4378.23,   528.16  L  4377.96,   527.69  L  4377.55,   527.35  L  4377.04,   527.16  L  4376.50,   527.16  L  4375.99,   527.35  L  4375.57,   527.69  L  4375.97,   528.41  L  4375.97,   528.99  L  4376.34,   529.43  L  4376.91,   529.53  L  4377.42,   529.24  L  4377.62,   528.70  L  4377.42,   528.15  L  4376.91,   527.86  L  4376.34,   527.96  L  4376.77,   528.70  " style="stroke-width: 0.85 ;&st7;  " /><path d=" M  4375.57,   655.17  L  4375.30,   655.64  L  4375.21,   656.18  L  4375.30,   656.71  L  4375.57,   657.18  L  4375.99,   657.52  L  4376.50,   657.71  L  4377.04,   657.71  L  4377.55,   657.52  L  4377.96,   657.18  L  4378.23,   656.71  L  4378.32,   656.18  L  4378.23,   655.64  L  4377.96,   655.17  L  4377.55,   654.83  L  4377.04,   654.64  L  4376.50,   654.64  L  4375.99,   654.83  L  4375.57,   655.17  L  4375.97,   655.88  L  4375.97,   656.47  L  4376.34,   656.91  L  4376.91,   657.01  L  4377.42,   656.72  L  4377.62,   656.18  L  4377.42,   655.63  L  4376.91,   655.34  L  4376.34,   655.44  L  4376.77,   656.18  " style="stroke-width: 0.85 ;&st7;  " /><path d=" M  4368.27,   562.69  C  4368.27    560.19   4366.24    558.16   4363.74    558.16  " style="stroke-width: 1.42 ;&st7;   " /><path d=" M  4363.74,   558.16  C  4361.23    558.16   4359.20    560.19   4359.20    562.69  " style="stroke-width: 1.42 ;&st7;   " /><path d=" M  4359.20,   562.69  C  4359.20    565.19   4361.23    567.22   4363.74    567.22  " style="stroke-width: 1.42 ;&st7;   " /><path d=" M  4363.74,   567.22  C  4366.24    567.22   4368.27    565.19   4368.27    562.69  " style="stroke-width: 1.42 ;&st7;   " /><path d=" M  4368.27,   528.70  C  4368.27    526.19   4366.24    524.16   4363.74    524.16  " style="stroke-width: 1.42 ;&st7;   " /><path d=" M  4363.74,   524.16  C  4361.23    524.16   4359.20    526.19   4359.20    528.70  " style="stroke-width: 1.42 ;&st7;   " /><path d=" M  4359.20,   528.70  C  4359.20    531.20   4361.23    533.23   4363.74    533.23  " style="stroke-width: 1.42 ;&st7;   " /><path d=" M  4363.74,   533.23  C  4366.24    533.23   4368.27    531.20   4368.27    528.70  " style="stroke-width: 1.42 ;&st7;   " /><path d=" M  4368.27,   494.70  C  4368.27    492.20   4366.24    490.17   4363.74    490.17  " style="stroke-width: 1.42 ;&st7;   " /><path d=" M  4363.74,   490.17  C  4361.23    490.17   4359.20    492.20   4359.20    494.70  " style="stroke-width: 1.42 ;&st7;   " /><path d=" M  4359.20,   494.70  C  4359.20    497.21   4361.23    499.24   4363.74    499.24  " style="stroke-width: 1.42 ;&st7;   " /><path d=" M  4363.74,   499.24  C  4366.24    499.24   4368.27    497.21   4368.27    494.70  " style="stroke-width: 1.42 ;&st7;   " /><path d=" M  4368.27,   460.71  C  4368.27    458.21   4366.24    456.18   4363.74    456.18  " style="stroke-width: 1.42 ;&st7;   " /><path d=" M  4363.74,   456.18  C  4361.23    456.18   4359.20    458.21   4359.20    460.71  " style="stroke-width: 1.42 ;&st7;   " /><path d=" M  4359.20,   460.71  C  4359.20    463.21   4361.23    465.24   4363.74    465.24  " style="stroke-width: 1.42 ;&st7;   " /><path d=" M  4363.74,   465.24  C  4366.24    465.24   4368.27    463.21   4368.27    460.71  " style="stroke-width: 1.42 ;&st7;   " /><path d=" M  4368.27,   426.71  C  4368.27    424.21   4366.24    422.18   4363.74    422.18  " style="stroke-width: 1.42 ;&st7;   " /><path d=" M  4363.74,   422.18  C  4361.23    422.18   4359.20    424.21   4359.20    426.71  " style="stroke-width: 1.42 ;&st7;   " /><path d=" M  4359.20,   426.71  C  4359.20    429.22   4361.23    431.25   4363.74    431.25  " style="stroke-width: 1.42 ;&st7;   " /><path d=" M  4363.74,   431.25  C  4366.24    431.25   4368.27    429.22   4368.27    426.71  " style="stroke-width: 1.42 ;&st7;   " /><path d=" M  4368.27,   656.18  C  4368.27    653.67   4366.24    651.64   4363.74    651.64  " style="stroke-width: 1.42 ;&st7;   " /><path d=" M  4363.74,   651.64  C  4361.23    651.64   4359.20    653.67   4359.20    656.18  " style="stroke-width: 1.42 ;&st7;   " /><path d=" M  4359.20,   656.18  C  4359.20    658.68   4361.23    660.71   4363.74    660.71  " style="stroke-width: 1.42 ;&st7;   " /><path d=" M  4363.74,   660.71  C  4366.24    660.71   4368.27    658.68   4368.27    656.18  " style="stroke-width: 1.42 ;&st7;   " /><g ewd:figtype="title"><text ewd:textID="131" style="&st18;" transform="matrix(&st17;  4399.99  659.08 )">No. 5 Junction Connector</text><text style="&st18;" transform="matrix(&st17;  4393.16  659.07 )">I93(A)</text></g></g><g ewd:code="IA1" ewd:figID="63" ewd:figtype="w2w"><path d=" M  4024.08,   576.86  L  4019.83,   572.61  L  4015.58,   576.86  " style="stroke-width: 1.42 ;&st7;  " /><path d=" M  4024.08,   580.26  L  4019.83,   576.01  L  4015.58,   580.26  " style="stroke-width: 1.42 ;&st7;  " /><text style="&st18;" transform="matrix(&st16;  4003.08  568.91 )">10</text></g><g ewd:code="IA3" ewd:figID="64" ewd:figtype="w2w"><text style="&st18;" transform="matrix(&st16;  4003.08  560.41 )">10</text></g><g ewd:code="YI4" ewd:figID="65" ewd:figtype="w2w"><text style="&st18;" transform="matrix(&st16;  4271.24  521.46 )">12</text></g><g ewd:code="YI3" ewd:figID="66" ewd:figtype="w2w"><text style="&st18;" transform="matrix(&st16;  4289.9  521.46 )">5</text></g><g ewd:code="JK2" ewd:figID="67" ewd:figtype="w2w"><path d=" M  4309.34,   252.49  L  4305.10,   248.24  L  4309.34,   243.99  " style="stroke-width: 1.42 ;&st7;  " /><path d=" M  4305.95,   252.49  L  4301.70,   248.24  L  4305.95,   243.99  " style="stroke-width: 1.42 ;&st7;  " /><text style="&st18;" transform="matrix(&st16;  4289.9  241.01 )">5</text></g><g ewd:code="JK2" ewd:figID="68" ewd:figtype="w2w"><path d=" M  4309.34,   218.50  L  4305.10,   214.25  L  4309.34,   210.00  " style="stroke-width: 1.42 ;&st7;  " /><path d=" M  4305.95,   218.50  L  4301.70,   214.25  L  4305.95,   210.00  " style="stroke-width: 1.42 ;&st7;  " /><text style="&st18;" transform="matrix(&st16;  4289.9  207.01 )">7</text></g><g ewd:code="YI2" ewd:figID="69" ewd:figtype="w2w"><text style="&st18;" transform="matrix(&st16;  4306.9  521.46 )">1</text><path d=" M  4326.34,   524.45  L  4322.09,   528.70  L  4326.34,   532.95  " style="stroke-width: 1.42 ;&st7;  " /><path d=" M  4322.94,   524.45  L  4318.69,   528.70  L  4322.94,   532.95  " style="stroke-width: 1.42 ;&st7;  " /></g><g ewd:code="AI3" ewd:figID="70" ewd:figtype="w2w"><text style="&st18;" transform="matrix(&st16;  4330.73  283.5 )">19</text></g><g ewd:code="AI3" ewd:figID="71" ewd:figtype="w2w"><path d=" M  4368.83,   286.49  L  4364.59,   290.74  L  4368.83,   294.99  " style="stroke-width: 1.42 ;&st7;  " /><path d=" M  4365.44,   286.49  L  4361.19,   290.74  L  4365.44,   294.99  " style="stroke-width: 1.42 ;&st7;  " /><text style="&st18;" transform="matrix(&st16;  4347.73  283.5 )">17</text></g><g ewd:code="KI2" ewd:figID="72" ewd:figtype="w2w"><path d=" M  4377.33,   252.49  L  4373.08,   248.24  L  4377.33,   243.99  " style="stroke-width: 1.42 ;&st7;  " /><path d=" M  4373.93,   252.49  L  4369.68,   248.24  L  4373.93,   243.99  " style="stroke-width: 1.42 ;&st7;  " /><text style="&st18;" transform="matrix(&st16;  4357.89  241.01 )">5</text></g><g ewd:code="KI2" ewd:figID="73" ewd:figtype="w2w"><path d=" M  4377.33,   218.50  L  4373.08,   214.25  L  4377.33,   210.00  " style="stroke-width: 1.42 ;&st7;  " /><path d=" M  4373.93,   218.50  L  4369.68,   214.25  L  4373.93,   210.00  " style="stroke-width: 1.42 ;&st7;  " /><text style="&st18;" transform="matrix(&st16;  4357.89  207.01 )">7</text></g><g ewd:code="IB5" ewd:figID="74" ewd:figtype="w2w"><path d=" M  4466.00,   145.69  L  4470.25,   149.94  L  4474.50,   145.69  " style="stroke-width: 1.42 ;&st7;  " /><path d=" M  4474.50,   149.09  L  4470.25,   153.34  L  4466.00,   149.09  " style="stroke-width: 1.42 ;&st7;  " /><text style="&st18;" transform="matrix(&st16;  4456.84  160.98 )">4</text></g><g ewd:code="BI2" ewd:figID="75" ewd:figtype="w2w"><path d=" M  4508.49,   172.32  L  4504.25,   168.07  L  4500.00,   172.32  " style="stroke-width: 1.42 ;&st7;  " /><path d=" M  4508.49,   168.92  L  4504.25,   164.67  L  4500.00,   168.92  " style="stroke-width: 1.42 ;&st7;  " /><text style="&st18;" transform="matrix(&st16;  4490.83  160.98 )">7</text></g><g ewd:code="IE" ewd:figID="114" ewd:figtype="gp"><path d=" M  4434.84,   412.55  L  4437.67,   412.55  " style="stroke-width: 0.85 ;&st7;  " /><path d=" M  4433.42,   409.72  L  4439.09,   409.72  " style="stroke-width: 0.85 ;&st7;  " /><path d=" M  4432.01,   406.88  L  4440.51,   406.88  " style="stroke-width: 0.85 ;&st7;  " /><path d=" M  4427.76,   404.05  L  4444.76,   404.05  " style="stroke-width: 0.85 ;&st7;  " /><path d=" M  4436.26,   399.80  L  4436.26,   404.05  " style="stroke-width: 0.85 ;&st7;  " /></g><g ewd:code=" " ewd:figID="234" ewd:figtype="annex"><path d=" M  4087.96,   623.20  C  4086.05    625.34   4086.00    628.47   4087.82    630.68  " style="stroke-width: 1.42 ;&st7;   " /><path d=" M  4087.68,   638.16  C  4089.58    636.02   4089.64    632.89   4087.82    630.68  " style="stroke-width: 1.42 ;&st7;   " /></g><g ewd:code=" " ewd:figID="24" ewd:figtype="annex"><path d=" M  4028.33,   201.50  L  4024.08,   201.50  " style="stroke-width: 1.42 ;&st7;  " /><path d=" M  4019.83,   299.24  C  4019.83    301.58   4021.73    303.48   4024.08    303.48  " style="stroke-width: 1.42 ;&st7;   " /><path d=" M  4037.47,   231.25  L  4040.30,   228.41  L  4036.05,   228.41  L  4033.22,   231.25  L  4036.05,   234.08  L  4040.30,   234.08  L  4037.47,   231.25  " style="stroke-width: 0.28 ;&st9;  " /><path d=" M  4032.58,   163.26  C  4032.58    160.91   4030.67    159.01   4028.33    159.01  " style="stroke-width: 1.42 ;&st7;   " /><path d=" M  4024.08,    91.02  L  4028.33,    91.02  " style="stroke-width: 1.42 ;&st7;  " /><path d=" M  4024.08,   159.01  L  4028.33,   159.01  " style="stroke-width: 1.42 ;&st7;  " /><path d=" M  4032.58,    61.28  C  4032.58     58.93   4030.67     57.03   4028.33     57.03  " style="stroke-width: 1.42 ;&st7;   " /><path d=" M  4028.33,   235.50  L  4024.08,   235.50  " style="stroke-width: 1.42 ;&st7;  " /><path d=" M  4019.83,    27.28  C  4019.83     29.63   4021.73     31.53   4024.08     31.53  " style="stroke-width: 1.42 ;&st7;   " /><path d=" M  4024.08,   125.01  C  4021.73    125.01   4019.83    126.92   4019.83    129.26  " style="stroke-width: 1.42 ;&st7;   " /><path d=" M  4019.83,   163.26  C  4019.83    165.60   4021.73    167.51   4024.08    167.51  " style="stroke-width: 1.42 ;&st7;   " /><path d=" M  4028.33,    99.52  L  4024.08,    99.52  " style="stroke-width: 1.42 ;&st7;  " /><path d=" M  4053.82,   290.74  L  4053.82,   316.23  L  4138.81,   316.23  L  4138.81,   290.74  L  4053.82,   290.74  " style="stroke-width: 1.42 ;&st7;  " /><path d=" M  4053.82,    86.77  L  4053.82,   112.27  L  4138.81,   112.27  L  4138.81,    86.77  L  4053.82,    86.77  " style="stroke-width: 1.42 ;&st7;  " /><path d=" M  4032.58,   129.26  C  4032.58    126.92   4030.67    125.01   4028.33    125.01  " style="stroke-width: 1.42 ;&st7;   " /><path d=" M  4053.82,   188.75  L  4053.82,   214.25  L  4138.81,   214.25  L  4138.81,   188.75  L  4053.82,   188.75  " style="stroke-width: 1.42 ;&st7;  " /><path d=" M  4024.08,    57.03  L  4028.33,    57.03  " style="stroke-width: 1.42 ;&st7;  " /><path d=" M  4032.58,   197.25  C  4032.58    194.91   4030.67    193.00   4028.33    193.00  " style="stroke-width: 1.42 ;&st7;   " /><path d=" M  4028.33,   269.49  C  4030.67    269.49   4032.58    267.59   4032.58    265.24  " style="stroke-width: 1.42 ;&st7;   " /><path d=" M  4053.82,   299.24  L  4032.57,   299.24  " style="stroke-width: 0.85 ;&st7;  " /><path d=" M  4028.33,    65.52  C  4030.67     65.52   4032.58     63.62   4032.58     61.28  " style="stroke-width: 1.42 ;&st7;   " /><path d=" M  4028.33,    31.53  C  4030.67     31.53   4032.58     29.63   4032.58     27.28  " style="stroke-width: 1.42 ;&st7;   " /><path d=" M  4019.83,    61.28  C  4019.83     63.62   4021.73     65.52   4024.08     65.52  " style="stroke-width: 1.42 ;&st7;   " /><path d=" M  4037.47,   197.25  L  4040.30,   194.42  L  4036.05,   194.42  L  4033.22,   197.25  L  4036.05,   200.09  L  4040.30,   200.09  L  4037.47,   197.25  " style="stroke-width: 0.28 ;&st9;  " /><path d=" M  4037.47,   163.26  L  4040.30,   160.43  L  4036.05,   160.43  L  4033.22,   163.26  L  4036.05,   166.09  L  4040.30,   166.09  L  4037.47,   163.26  " style="stroke-width: 0.28 ;&st9;  " /><path d=" M  4032.58,   299.24  C  4032.58    296.89   4030.67    294.99   4028.33    294.99  " style="stroke-width: 1.42 ;&st7;   " /><path d=" M  4053.82,   163.26  L  4032.57,   163.26  " style="stroke-width: 0.85 ;&st7;  " /><path d=" M  4053.82,   197.25  L  4032.57,   197.25  " style="stroke-width: 0.85 ;&st7;  " /><path d=" M  4032.58,    95.27  C  4032.58     92.92   4030.67     91.02   4028.33     91.02  " style="stroke-width: 1.42 ;&st7;   " /><path d=" M  4032.58,   265.24  C  4032.58    262.89   4030.67    260.99   4028.33    260.99  " style="stroke-width: 1.42 ;&st7;   " /><path d=" M  4028.33,   133.51  L  4024.08,   133.51  " style="stroke-width: 1.42 ;&st7;  " /><path d=" M  4053.82,    61.28  L  4032.57,    61.28  " style="stroke-width: 0.85 ;&st7;  " /><path d=" M  4024.08,    23.03  L  4028.33,    23.03  " style="stroke-width: 1.42 ;&st7;  " /><path d=" M  4028.33,   303.48  L  4024.08,   303.48  " style="stroke-width: 1.42 ;&st7;  " /><path d=" M  4024.08,   193.00  C  4021.73    193.00   4019.83    194.91   4019.83    197.25  " style="stroke-width: 1.42 ;&st7;   " /><path d=" M  4024.08,    23.03  C  4021.73     23.03   4019.83     24.93   4019.83     27.28  " style="stroke-width: 1.42 ;&st7;   " /><path d=" M  4024.08,   193.00  L  4028.33,   193.00  " style="stroke-width: 1.42 ;&st7;  " /><path d=" M  4028.33,   133.51  C  4030.67    133.51   4032.58    131.61   4032.58    129.26  " style="stroke-width: 1.42 ;&st7;   " /><path d=" M  4024.08,   159.01  C  4021.73    159.01   4019.83    160.91   4019.83    163.26  " style="stroke-width: 1.42 ;&st7;   " /><path d=" M  4019.83,    95.27  C  4019.83     97.62   4021.73     99.52   4024.08     99.52  " style="stroke-width: 1.42 ;&st7;   " /><path d=" M  4028.33,   167.51  L  4024.08,   167.51  " style="stroke-width: 1.42 ;&st7;  " /><path d=" M  4037.47,   129.26  L  4040.30,   126.43  L  4036.05,   126.43  L  4033.22,   129.26  L  4036.05,   132.10  L  4040.30,   132.10  L  4037.47,   129.26  " style="stroke-width: 0.28 ;&st9;  " /><path d=" M  4037.47,   265.24  L  4040.30,   262.41  L  4036.05,   262.41  L  4033.22,   265.24  L  4036.05,   268.07  L  4040.30,   268.07  L  4037.47,   265.24  " style="stroke-width: 0.28 ;&st9;  " /><path d=" M  4024.08,   294.99  L  4028.33,   294.99  " style="stroke-width: 1.42 ;&st7;  " /><path d=" M  4028.33,   167.51  C  4030.67    167.51   4032.58    165.60   4032.58    163.26  " style="stroke-width: 1.42 ;&st7;   " /><path d=" M  4053.82,   256.74  L  4053.82,   282.24  L  4138.81,   282.24  L  4138.81,   256.74  L  4053.82,   256.74  " style="stroke-width: 1.42 ;&st7;  " /><path d=" M  4019.83,   197.25  C  4019.83    199.60   4021.73    201.50   4024.08    201.50  " style="stroke-width: 1.42 ;&st7;   " /><path d=" M  4028.33,   269.49  L  4024.08,   269.49  " style="stroke-width: 1.42 ;&st7;  " /><path d=" M  4019.83,   265.24  C  4019.83    267.59   4021.73    269.49   4024.08    269.49  " style="stroke-width: 1.42 ;&st7;   " /><path d=" M  4024.08,   125.01  L  4028.33,   125.01  " style="stroke-width: 1.42 ;&st7;  " /><path d=" M  4053.82,    95.27  L  4032.57,    95.27  " style="stroke-width: 0.85 ;&st7;  " /><path d=" M  4053.82,    27.28  L  4032.57,    27.28  " style="stroke-width: 0.85 ;&st7;  " /><path d=" M  4028.33,   235.50  C  4030.67    235.50   4032.58    233.59   4032.58    231.25  " style="stroke-width: 1.42 ;&st7;   " /><path d=" M  4028.33,   201.50  C  4030.67    201.50   4032.58    199.60   4032.58    197.25  " style="stroke-width: 1.42 ;&st7;   " /><path d=" M  4053.82,   154.76  L  4053.82,   180.26  L  4138.81,   180.26  L  4138.81,   154.76  L  4053.82,   154.76  " style="stroke-width: 1.42 ;&st7;  " /><path d=" M  4053.82,   265.24  L  4032.57,   265.24  " style="stroke-width: 0.85 ;&st7;  " /><path d=" M  4019.83,   129.26  C  4019.83    131.61   4021.73    133.51   4024.08    133.51  " style="stroke-width: 1.42 ;&st7;   " /><path d=" M  4019.83,   231.25  C  4019.83    233.59   4021.73    235.50   4024.08    235.50  " style="stroke-width: 1.42 ;&st7;   " /><path d=" M  4024.08,    57.03  C  4021.73     57.03   4019.83     58.93   4019.83     61.28  " style="stroke-width: 1.42 ;&st7;   " /><path d=" M  4028.33,    31.53  L  4024.08,    31.53  " style="stroke-width: 1.42 ;&st7;  " /><path d=" M  4032.58,   231.25  C  4032.58    228.90   4030.67    227.00   4028.33    227.00  " style="stroke-width: 1.42 ;&st7;   " /><path d=" M  4024.08,   294.99  C  4021.73    294.99   4019.83    296.89   4019.83    299.24  " style="stroke-width: 1.42 ;&st7;   " /><path d=" M  4037.47,    61.28  L  4040.30,    58.44  L  4036.05,    58.44  L  4033.22,    61.28  L  4036.05,    64.11  L  4040.30,    64.11  L  4037.47,    61.28  " style="stroke-width: 0.28 ;&st9;  " /><path d=" M  4024.08,   260.99  C  4021.73    260.99   4019.83    262.89   4019.83    265.24  " style="stroke-width: 1.42 ;&st7;   " /><path d=" M  4053.82,   129.26  L  4032.57,   129.26  " style="stroke-width: 0.85 ;&st7;  " /><path d=" M  4053.82,   231.25  L  4032.57,   231.25  " style="stroke-width: 0.85 ;&st7;  " /><path d=" M  4024.08,   260.99  L  4028.33,   260.99  " style="stroke-width: 1.42 ;&st7;  " /><path d=" M  4037.47,    95.27  L  4040.30,    92.44  L  4036.05,    92.44  L  4033.22,    95.27  L  4036.05,    98.10  L  4040.30,    98.10  L  4037.47,    95.27  " style="stroke-width: 0.28 ;&st9;  " /><path d=" M  4037.47,   299.24  L  4040.30,   296.40  L  4036.05,   296.40  L  4033.22,   299.24  L  4036.05,   302.07  L  4040.30,   302.07  L  4037.47,   299.24  " style="stroke-width: 0.28 ;&st9;  " /><path d=" M  4032.58,    27.28  C  4032.58     24.93   4030.67     23.03   4028.33     23.03  " style="stroke-width: 1.42 ;&st7;   " /><path d=" M  4028.33,   303.48  C  4030.67    303.48   4032.58    301.58   4032.58    299.24  " style="stroke-width: 1.42 ;&st7;   " /><path d=" M  4024.08,   227.00  L  4028.33,   227.00  " style="stroke-width: 1.42 ;&st7;  " /><path d=" M  4028.33,    65.52  L  4024.08,    65.52  " style="stroke-width: 1.42 ;&st7;  " /><path d=" M  4028.33,    99.52  C  4030.67     99.52   4032.58     97.62   4032.58     95.27  " style="stroke-width: 1.42 ;&st7;   " /><path d=" M  4053.82,    52.78  L  4053.82,    78.27  L  4138.81,    78.27  L  4138.81,    52.78  L  4053.82,    52.78  " style="stroke-width: 1.42 ;&st7;  " /><path d=" M  4024.08,   227.00  C  4021.73    227.00   4019.83    228.90   4019.83    231.25  " style="stroke-width: 1.42 ;&st7;   " /><path d=" M  4053.82,   222.75  L  4053.82,   248.24  L  4138.81,   248.24  L  4138.81,   222.75  L  4053.82,   222.75  " style="stroke-width: 1.42 ;&st7;  " /><path d=" M  4024.08,    91.02  C  4021.73     91.02   4019.83     92.92   4019.83     95.27  " style="stroke-width: 1.42 ;&st7;   " /><path d=" M  4053.82,    18.78  L  4053.82,    44.28  L  4138.81,    44.28  L  4138.81,    18.78  L  4053.82,    18.78  " style="stroke-width: 1.42 ;&st7;  " /><path d=" M  4053.82,   120.77  L  4053.82,   146.26  L  4138.81,   146.26  L  4138.81,   120.77  L  4053.82,   120.77  " style="stroke-width: 1.42 ;&st7;  " /><path d=" M  4037.47,    27.28  L  4040.30,    24.45  L  4036.05,    24.45  L  4033.22,    27.28  L  4036.05,    30.11  L  4040.30,    30.11  L  4037.47,    27.28  " style="stroke-width: 0.28 ;&st9;  "/><text style="&st18;" transform="matrix(&st16;  4055.56  29.25 )">(L)</text><text ewd:textID="73" style="&st18;" transform="matrix(&st16;  4080.16  34.92 )">FLSH <tspan dy="6.0" x="0 ">Relay</tspan></text><text style="&st18;" transform="matrix(&st16;  4055.56  63.24 )">(L)</text><text ewd:textID="72" style="&st18;" transform="matrix(&st16;  4080.16  68.91 )">FLSH2 <tspan dy="6.0" x="0 ">Relay</tspan></text><text style="&st18;" transform="matrix(&st16;  4055.56  97.24 )">(E)</text><text ewd:textID="94" style="&st18;" transform="matrix(&st16;  4080.16  102.9 )">HTR <tspan dy="6.0" x="0 ">Relay</tspan></text><text style="&st18;" transform="matrix(&st16;  4055.56  131.23 )">(-S)</text><text ewd:textID="100" style="&st18;" transform="matrix(&st16;  4080.16  136.9 )">IG2 <tspan dy="6.0" x="0 ">Relay</tspan></text><text style="&st18;" transform="matrix(&st16;  4055.56  165.23 )">(-S)</text><text ewd:textID="40" style="&st18;" transform="matrix(&st16;  4080.16  170.89 )">ACC <tspan dy="6.0" x="0 ">Relay</tspan></text><text style="&st18;" transform="matrix(&st16;  4055.56  199.22 )">(-S)</text><text ewd:textID="102" style="&st18;" transform="matrix(&st16;  4080.16  204.89 )">IG1 2 <tspan dy="6.0" x="0 ">Relay</tspan></text><text style="&st18;" transform="matrix(&st16;  4055.56  233.22 )">(-S)</text><text ewd:textID="101" style="&st18;" transform="matrix(&st16;  4080.16  238.88 )">IG1 1 <tspan dy="6.0" x="0 ">Relay</tspan></text><text style="&st18;" transform="matrix(&st16;  4055.56  267.21 )">(L)</text><text ewd:textID="169" style="&st18;" transform="matrix(&st16;  4080.16  272.88 )">WSH <tspan dy="6.0" x="0 ">Relay</tspan></text><text style="&st18;" transform="matrix(&st16;  4055.56  301.2 )">(L)</text><text ewd:textID="136" style="&st18;" transform="matrix(&st16;  4080.16  306.87 )">OUT WIP2 <tspan dy="6.0" x="0 ">Relay</tspan></text><text style="&st18;" transform="matrix(&st16;  4024.32  29.25 )">2</text><text style="&st18;" transform="matrix(&st16;  4024.32  63.24 )">2</text><text style="&st18;" transform="matrix(&st16;  4024.32  97.24 )">2</text><text style="&st18;" transform="matrix(&st16;  4024.32  131.23 )">2</text><text style="&st18;" transform="matrix(&st16;  4024.32  165.23 )">2</text><text style="&st18;" transform="matrix(&st16;  4024.32  199.22 )">2</text><text style="&st18;" transform="matrix(&st16;  4024.32  233.22 )">2</text><text style="&st18;" transform="matrix(&st16;  4024.32  267.21 )">2</text><text style="&st18;" transform="matrix(&st16;  4024.32  301.2 )">2</text></g><g ewd:code="" ewd:comment="1,3" ewd:figID="232" ewd:figtype="commref"><text style="&st18;" transform="matrix(&st16;  4028.86  568.91 )">(*1,*3)</text></g><g ewd:code="" ewd:comment="2" ewd:figID="233" ewd:figtype="commref"><text style="&st18;" transform="matrix(&st16;  4028.86  560.41 )">(*2)</text></g><g ewd:code="" ewd:comment="35" ewd:figID="299" ewd:figtype="commref"><text style="&st18;" transform="matrix(&st16;  4285.06  539.87 )">(*35)</text></g><g ewd:code="" ewd:comment="34" ewd:figID="300" ewd:figtype="commref"><text style="&st18;" transform="matrix(&st16;  4302.06  539.87 )">(*34)</text></g><g ewd:code="" ewd:comment="45" ewd:figID="316" ewd:figtype="commref"><text style="&st18;" transform="matrix(&st16;  4268.06  539.87 )">(*45)</text></g><g ewd:code="" ewd:comment="3" ewd:figID="323" ewd:figtype="commref"><text style="&st18;" transform="matrix(&st16;  4329.22  301.91 )">(*3)</text></g><g ewd:code="" ewd:comment="2" ewd:figID="324" ewd:figtype="commref"><text style="&st18;" transform="matrix(&st16;  4346.22  301.91 )">(*2)</text></g><g ewd:code="30" ewd:comment="" ewd:figID="266" ewd:figtype="comment"><text ewd:textID="20" style="&st18;" transform="matrix(&st16;  4466.85  556.16 )">*30 :1HZ 12V Battery Type w/ One Battery</text></g><g ewd:code="23" ewd:comment="" ewd:figID="230" ewd:figtype="comment"><text ewd:textID="17" style="&st18;" transform="matrix(&st16;  4466.85  547.66 )">*23 :Except Australia</text></g><g ewd:code="32" ewd:comment="" ewd:figID="267" ewd:figtype="comment"><text ewd:textID="22" style="&st18;" transform="matrix(&st16;  4466.85  573.16 )">*32 :w/ VSC</text></g><g ewd:code="35" ewd:comment="" ewd:figID="296" ewd:figtype="comment"><text ewd:textID="25" style="&st18;" transform="matrix(&st16;  4466.85  598.65 )">*35 :From Jan. 2017 Production <tspan dy="8.5" x="14.16">until Sep. 2022 Production</tspan></text></g><g ewd:code="42" ewd:comment="" ewd:figID="318" ewd:figtype="comment"><text ewd:textID="32" style="&st18;" transform="matrix(&st16;  4466.85  615.65 )">*42 :Large Type</text></g><g ewd:code="1" ewd:comment="" ewd:figID="251" ewd:figtype="comment"><text style="&st18;" transform="matrix(&st16;  4466.85  488.17 )">* 1 :1GR-FE</text></g><g ewd:code="43" ewd:comment="" ewd:figID="317" ewd:figtype="comment"><text ewd:textID="33" style="&st18;" transform="matrix(&st16;  4466.85  624.15 )">*43 :Except Large Type</text></g><g ewd:code="31" ewd:comment="" ewd:figID="231" ewd:figtype="comment"><text ewd:textID="21" style="&st18;" transform="matrix(&st16;  4466.85  564.66 )">*31 :Pick-Up Body Type</text></g><g ewd:code="2" ewd:comment="" ewd:figID="255" ewd:figtype="comment"><text style="&st18;" transform="matrix(&st16;  4466.85  496.67 )">* 2 :1HZ</text></g><g ewd:code="5" ewd:comment="" ewd:figID="259" ewd:figtype="comment"><text ewd:textID="3" style="&st18;" transform="matrix(&st16;  4466.85  522.17 )">* 5 :2-Door</text></g><g ewd:code="4" ewd:comment="" ewd:figID="258" ewd:figtype="comment"><text ewd:textID="2" style="&st18;" transform="matrix(&st16;  4466.85  513.67 )">* 4 :4-Door</text></g><g ewd:code="33" ewd:comment="" ewd:figID="286" ewd:figtype="comment"><text ewd:textID="23" style="&st18;" transform="matrix(&st16;  4466.85  581.66 )">*33 :w/ ABS (w/o VSC)</text></g><g ewd:code="47" ewd:comment="" ewd:figID="321" ewd:figtype="comment"><text ewd:textID="37" style="&st18;" transform="matrix(&st16;  4466.85  658.14 )">*47 :w/ Pre-Collision System</text></g><g ewd:code="46" ewd:comment="" ewd:figID="322" ewd:figtype="comment"><text ewd:textID="36" style="&st18;" transform="matrix(&st16;  4466.85  649.65 )">*46 :w/o Pre-Collision System</text></g><g ewd:code="11" ewd:comment="" ewd:figID="242" ewd:figtype="comment"><text ewd:textID="9" style="&st18;" transform="matrix(&st16;  4466.85  530.67 )">*11 :24V Battery Type</text></g><g ewd:code="34" ewd:comment="" ewd:figID="297" ewd:figtype="comment"><text ewd:textID="24" style="&st18;" transform="matrix(&st16;  4466.85  590.16 )">*34 :Before Jan. 2017 Production</text></g><g ewd:code="45" ewd:comment="" ewd:figID="319" ewd:figtype="comment"><text ewd:textID="35" style="&st18;" transform="matrix(&st16;  4466.85  641.15 )">*45 :From Sep. 2022 Production</text></g><g ewd:code="44" ewd:comment="" ewd:figID="320" ewd:figtype="comment"><text ewd:textID="34" style="&st18;" transform="matrix(&st16;  4466.85  632.65 )">*44 :Before Sep. 2022 Production</text></g><g ewd:code="22" ewd:comment="" ewd:figID="235" ewd:figtype="comment"><text ewd:textID="16" style="&st18;" transform="matrix(&st16;  4466.85  539.16 )">*22 :Australia</text></g><g ewd:code="3" ewd:comment="" ewd:figID="246" ewd:figtype="comment"><text style="&st18;" transform="matrix(&st16;  4466.85  505.17 )">* 3 :1VD-FTV</text></g></svg>
