<?xml version="1.0" encoding="utf-8"?>
<!DOCTYPE svg PUBLIC "-//W3C//DTD SVG 1.0//EN" "http://www.w3.org/TR/2001/REC-SVG-20010904/DTD/svg10.dtd"[
	<!ENTITY ns_flows "http://ns.adobe.com/Flows/1.0/">
	<!ENTITY ns_svg "http://www.w3.org/2000/svg">
	<!ENTITY ns_xlink "http://www.w3.org/1999/xlink">
	<!ENTITY st0 "font-size:7px;font-family:'MS-PGothic';adobe-font-script:japanese;">
	<!ENTITY st1 "font-size:6px;font-family:'ArialMT';">
	<!-- White fill  -->
	<!ENTITY st2 "fill:#FFFFFF;stroke:#000000; stroke-width:1.41;stroke-linecap:round;stroke-linejoin:round;">
	<!-- Yellow fill  -->
	<!ENTITY st3 "fill:#FFFFCC;stroke:#FFFFCC; stroke-width:0.1;stroke-linecap:round;stroke-linejoin:round;">
	<!-- Gray fill  -->
	<!ENTITY st4 "fill:#CCCCCC;stroke:#CCCCCC; stroke-width:0.1;stroke-linecap:round;stroke-linejoin:round;">
	<!-- Light-blue fill -->
	<!ENTITY st5 "fill:#CCECF4;stroke:#000000; stroke-width:1.133;stroke-linecap:round;stroke-linejoin:round;">
	<!ENTITY st6 "fill:none;stroke-linecap:butt; stroke-linejoin:round;">
	<!ENTITY st7 "fill:none;stroke:#000000;stroke-linecap:round;stroke-linejoin:round;">
	<!ENTITY st8 "enable-background:new    ;">
	<!-- Black fill -->
	<!ENTITY st9 "fill:#000000;stroke:#000000; stroke-linecap:round;stroke-linejoin:round;">
	<!-- SRS note   -->
	<!ENTITY st10 "font-size:9px;font-family:'ArialMT';">
	<!ENTITY st11 "font-size:9px;font-family:'Svg Symbol';">
	<!ENTITY st12 "font-size:6px;font-family:'Svg Symbol';">
	<!ENTITY st13 "fill:none;stroke:#ff0000;stroke-linecap:round;stroke-linejoin:round;">
	<!-- Yellow fill  -->
	<!ENTITY st14 "fill:#FFFF00;stroke:#FFFF00; stroke-width:0.1;stroke-linecap:round;stroke-linejoin:round;">
	<!ENTITY st15 "font-size:6px;font-family:'MS-PGothic';adobe-font-script:japanese;">
	<!ENTITY st16 "1.00 0.00 0.00 1.00">
	<!ENTITY st17 "0.00 -1.00 1.00 0.00">
	<!ENTITY st18 "font-size:6px;font-family:'Arial';">
	<!ENTITY st19 "font-size:9px;font-family:'Arial';">
	<!ENTITY st20 "font-size:6px;font-family:'MS-PGothic','MS PGothic';adobe-font-script:japanese;">
	<!ENTITY st21 "font-size:7px;font-family:'MS-PGothic','MS PGothic';adobe-font-script:japanese;">
	<!ATTLIST svg
		xmlns:ewd CDATA #FIXED "http://shcl.co.jp/ewd"
		xmlns:a CDATA #FIXED "http://ns.adobe.com/AdobeSVGViewerExtensions/3.0/"
		ewd:ver CDATA #IMPLIED
	>
	<!ATTLIST a
		ewd:lineID CDATA #IMPLIED
		ewd:groupID CDATA #IMPLIED
		ewd:figtype CDATA #IMPLIED
		ewd:code CDATA #IMPLIED
		ewd:figID CDATA #IMPLIED
		ewd:pinNo CDATA #IMPLIED
		ewd:comment CDATA #IMPLIED >
	<!ATTLIST g
		ewd:lineID CDATA #IMPLIED
		ewd:groupID CDATA #IMPLIED
		ewd:figtype CDATA #IMPLIED
		ewd:code CDATA #IMPLIED
		ewd:figID CDATA #IMPLIED
		ewd:pinNo CDATA #IMPLIED
		ewd:comment CDATA #IMPLIED >
	<!ATTLIST text
		ewd:textID CDATA #IMPLIED >
	<!ATTLIST title
		ewd:textID CDATA #IMPLIED >
]>
<!-- Generator: Shintec Hozumi YS   -->
<svg onload="call_execInitLoadProc_svg('system')" style="overflow:visible;  enable-background:new 0 0 6744.361 710.000" viewBox="0 0 6744.361 710.000" height="710.000" width="6744.361" xml:space="preserve" ewd:ver="2.3.1.16" xmlns="&ns_svg;" xmlns:a="http://ns.adobe.com/AdobeSVGViewerExtensions/3.0/" xmlns:ewd="http://shcl.co.jp/ewd" xmlns:xlink="&ns_xlink;">
<text style="&st18;" transform="matrix(&st16;  3043.33  129.79 )">W1</text><text style="&st18;" transform="matrix(&st17;  3424.07  371.78 )">(*2)</text><text ewd:textID="98" style="&st18;" transform="matrix(&st16;  3119.82  544.83 )">No. 1 Heater Control <tspan dy="6.0" x="0 ">Indicator Light </tspan><tspan dy="6.0" x="0 ">Assembly</tspan></text><text ewd:textID="77" style="&st18;" transform="matrix(&st16;  3119.82  510.84 )">Heater Blower <tspan dy="6.0" x="0 ">Switch Assembly</tspan></text><text style="&st18;" transform="matrix(&st16;  3469.19  204.89 )">(*10)</text><text style="&st18;" transform="matrix(&st16;  3469.19  170.89 )">(*11)</text><text style="&st18;" transform="matrix(&st16;  3469.19  136.9 )">(*11)</text><text style="&st18;" transform="matrix(&st17;  3398.57  375.47 )">(*1,*3)</text><path d=" M  3229.46,    57.03  L  3229.46,    61.28  " style="stroke-width: 1.42 ;&st7;  " /><path d=" M  3229.46,    23.03  L  3229.46,    27.28  " style="stroke-width: 1.42 ;&st7;  " /><text ewd:textID="136" style="&st18;" transform="matrix(&st16;  3119.82  442.85 )">Turn Signal <tspan dy="6.0" x="0 ">Flasher Assembly</tspan></text><text style="&st18;" transform="matrix(&st16;  3119.82  172.29 )">I51</text><text style="&st18;" transform="matrix(&st16;  3119.82  435.74 )">I28</text><text ewd:textID="23" style="&st18;" transform="matrix(&st16;  3119.82  179.39 )">Airbag Sensor <tspan dy="6.0" x="0 ">Assembly</tspan></text><text style="&st18;" transform="matrix(&st16;  3119.82  469.74 )">I14</text><text style="&st18;" transform="matrix(&st16;  3119.82  503.73 )">I15</text><text style="&st18;" transform="matrix(&st16;  3119.82  537.72 )">I13</text><text style="&st18;" transform="matrix(&st16;  3119.82  587.32 )">DLC3</text><text style="&st18;" transform="matrix(&st16;  3119.82  580.22 )">I17</text><text style="&st18;" transform="matrix(&st16;  3119.82  656.7 )">I79</text><path d=" M  3339.94,   465.68  L  3334.97,   460.71  " style="stroke-width: 1.42 ;&st7;  " /><path d=" M  3322.94,   472.74  L  3327.92,   477.71  " style="stroke-width: 1.42 ;&st7;  " /><path d=" M  3334.97,   477.71  L  3339.94,   472.74  " style="stroke-width: 1.42 ;&st7;  " /><path d=" M  3327.92,   460.71  L  3322.94,   465.68  " style="stroke-width: 1.42 ;&st7;  " /><path d=" M  3339.94,   533.67  L  3334.97,   528.70  " style="stroke-width: 1.42 ;&st7;  " /><path d=" M  3322.94,   540.73  L  3327.92,   545.69  " style="stroke-width: 1.42 ;&st7;  " /><path d=" M  3334.97,   545.69  L  3339.94,   540.73  " style="stroke-width: 1.42 ;&st7;  " /><path d=" M  3327.92,   528.70  L  3322.94,   533.67  " style="stroke-width: 1.42 ;&st7;  " /><text style="&st18;" transform="matrix(&st16;  3256.73  442.85 )">(*10)</text><text style="&st18;" transform="matrix(&st17;  3327.75  508.92 )">W-B</text><path d=" M  3450.42,   380.69  L  3445.45,   375.72  " style="stroke-width: 1.42 ;&st7;  " /><path d=" M  3433.43,   387.75  L  3438.40,   392.72  " style="stroke-width: 1.42 ;&st7;  " /><path d=" M  3445.45,   392.72  L  3450.42,   387.75  " style="stroke-width: 1.42 ;&st7;  " /><path d=" M  3438.40,   375.72  L  3433.43,   380.69  " style="stroke-width: 1.42 ;&st7;  " /><text style="&st18;" transform="matrix(&st17;  3438.23  100.99 )">W-B</text><text style="&st18;" transform="matrix(&st16;  3469.19  272.88 )">(*11)</text><text style="&st18;" transform="matrix(&st16;  3488.42  340.86 )">(*1,*3)</text><text style="&st18;" transform="matrix(&st16;  3492.11  391.86 )">(*2)</text><text style="&st18;" transform="matrix(&st16;  3271.71  68.91 )">(*1,*3)</text><text style="&st18;" transform="matrix(&st16;  3275.39  34.92 )">(*2)</text><text style="&st18;" transform="matrix(&st17;  3438.23  321.95 )">W-B</text><path d=" M  3450.42,   261.71  L  3445.45,   256.74  " style="stroke-width: 1.42 ;&st7;  " /><path d=" M  3433.43,   268.77  L  3438.40,   273.74  " style="stroke-width: 1.42 ;&st7;  " /><path d=" M  3445.45,   273.74  L  3450.42,   268.77  " style="stroke-width: 1.42 ;&st7;  " /><path d=" M  3438.40,   256.74  L  3433.43,   261.71  " style="stroke-width: 1.42 ;&st7;  " /><path d=" M  3450.42,   193.73  L  3445.45,   188.75  " style="stroke-width: 1.42 ;&st7;  " /><path d=" M  3433.43,   200.78  L  3438.40,   205.75  " style="stroke-width: 1.42 ;&st7;  " /><path d=" M  3445.45,   205.75  L  3450.42,   200.78  " style="stroke-width: 1.42 ;&st7;  " /><path d=" M  3438.40,   188.75  L  3433.43,   193.73  " style="stroke-width: 1.42 ;&st7;  " /><path d=" M  3450.42,   125.74  L  3445.45,   120.77  " style="stroke-width: 1.42 ;&st7;  " /><path d=" M  3433.43,   132.79  L  3438.40,   137.76  " style="stroke-width: 1.42 ;&st7;  " /><path d=" M  3445.45,   137.76  L  3450.42,   132.79  " style="stroke-width: 1.42 ;&st7;  " /><path d=" M  3438.40,   120.77  L  3433.43,   125.74  " style="stroke-width: 1.42 ;&st7;  " /><path d=" M  3450.42,    57.75  L  3445.45,    52.78  " style="stroke-width: 1.42 ;&st7;  " /><path d=" M  3433.43,    64.80  L  3438.40,    69.77  " style="stroke-width: 1.42 ;&st7;  " /><path d=" M  3445.45,    69.77  L  3450.42,    64.80  " style="stroke-width: 1.42 ;&st7;  " /><path d=" M  3438.40,    52.78  L  3433.43,    57.75  " style="stroke-width: 1.42 ;&st7;  " /><text style="&st18;" transform="matrix(&st17;  3438.23  236.97 )">W-B</text><path d=" M  3497.89,   494.70  L  3492.92,   499.67  " style="stroke-width: 1.42 ;&st7;  " /><path d=" M  3492.92,   506.73  L  3497.89,   511.70  " style="stroke-width: 1.42 ;&st7;  " /><path d=" M  3492.92,   438.74  L  3497.89,   443.71  " style="stroke-width: 1.42 ;&st7;  " /><path d=" M  3497.89,   426.71  L  3492.92,   431.69  " style="stroke-width: 1.42 ;&st7;  " /><path d=" M  3497.89,   622.18  L  3492.92,   627.15  " style="stroke-width: 1.42 ;&st7;  " /><path d=" M  3492.92,   634.21  L  3497.89,   639.18  " style="stroke-width: 1.42 ;&st7;  " /><text style="&st18;" transform="matrix(&st16;  3078.76  91.57 )">W-B</text><text style="&st18;" transform="matrix(&st16;  3078.76  57.58 )">W-B</text><text style="&st18;" transform="matrix(&st16;  3078.76  23.58 )">W-B</text><text style="&st18;" transform="matrix(&st16;  3129.76  91.57 )">W-B</text><text style="&st18;" transform="matrix(&st16;  3129.76  57.58 )">W-B</text><text style="&st18;" transform="matrix(&st16;  3129.76  23.58 )">W-B</text><text style="&st18;" transform="matrix(&st16;  3274.23  57.58 )">W-B</text><text style="&st18;" transform="matrix(&st16;  3274.23  23.58 )">W-B</text><text style="&st18;" transform="matrix(&st16;  3257.23  431.52 )">W-B</text><text style="&st18;" transform="matrix(&st16;  3257.23  465.51 )">W-B</text><text style="&st18;" transform="matrix(&st16;  3257.23  499.5 )">W-B</text><text style="&st18;" transform="matrix(&st16;  3257.23  533.5 )">W-B</text><text style="&st18;" transform="matrix(&st16;  3257.23  575.99 )">W-B</text><text style="&st18;" transform="matrix(&st16;  3259.02  652.48 )">BR</text><text style="&st18;" transform="matrix(&st16;  3490.94  380.52 )">W-B</text><text style="&st18;" transform="matrix(&st16;  3490.94  329.53 )">W-B</text><text style="&st18;" transform="matrix(&st16;  3469.7  295.54 )">W-B</text><text style="&st18;" transform="matrix(&st16;  3469.7  261.54 )">W-B</text><text style="&st18;" transform="matrix(&st16;  3469.7  227.55 )">W-B</text><text style="&st18;" transform="matrix(&st16;  3469.7  193.56 )">W-B</text><text style="&st18;" transform="matrix(&st16;  3469.7  159.56 )">W-B</text><text style="&st18;" transform="matrix(&st16;  3469.7  125.57 )">W-B</text><text style="&st18;" transform="matrix(&st16;  3469.7  91.57 )">W-B</text><text style="&st18;" transform="matrix(&st16;  3469.7  57.58 )">W-B</text><text style="&st18;" transform="matrix(&st16;  3469.7  23.58 )">W-B</text><text style="&st18;" transform="matrix(&st17;  3251.26  236.97 )">W-B</text><text style="&st18;" transform="matrix(&st17;  3285.26  236.97 )">W-B</text><text style="&st18;" transform="matrix(&st17;  3251.26  372.95 )">W-B</text><text style="&st18;" transform="matrix(&st17;  3285.26  372.95 )">W-B</text><text style="&st18;" transform="matrix(&st17;  3387.24  372.95 )">W-B</text><text style="&st18;" transform="matrix(&st17;  3412.73  372.95 )">W-B</text><text style="&st18;" transform="matrix(&st17;  3438.23  168.98 )">W-B</text><text style="&st18;" transform="matrix(&st17;  3327.75  619.4 )">W-B</text><text style="&st18;" transform="matrix(&st17;  3353.24  619.4 )">W-B</text><text ewd:textID="1" style="&st18;" transform="matrix(&st17;  3497.72  482.57 )">(Shielded)</text><text style="&st18;" transform="matrix(&st17;  3497.72  538.67 )">W-B</text><text style="&st18;" transform="matrix(&st17;  3497.72  606.66 )">W-B</text><text style="&st18;" transform="matrix(&st16;  3469.7  397.52 )">W-B</text><text ewd:textID="67" style="&st18;" transform="matrix(&st16;  3043.34  136.9 )">Fuel Tank <tspan dy="6.0" x="0 ">Solenoid </tspan><tspan dy="6.0" x="0 ">Return Valve </tspan><tspan dy="6.0" x="0 ">Assembly</tspan></text><text ewd:textID="97" style="&st18;" transform="matrix(&st16;  3119.82  663.81 )">No. 1 CAN Junction <tspan dy="6.0" x="0 ">Connector</tspan></text><text style="&st18;" transform="matrix(&st16;  3079.93  102.9 )">(*1)</text><text style="&st18;" transform="matrix(&st16;  3130.92  102.9 )">(*1)</text><text style="&st18;" transform="matrix(&st16;  3079.93  34.92 )">(*2)</text><text style="&st18;" transform="matrix(&st16;  3130.92  34.92 )">(*2)</text><text style="&st18;" transform="matrix(&st16;  3079.93  68.91 )">(*3)</text><text style="&st18;" transform="matrix(&st16;  3130.92  68.91 )">(*3)</text><text ewd:textID="120" style="&st18;" transform="matrix(&st16;  3119.82  476.84 )">Rear Heater <tspan dy="6.0" x="0 ">Blower Switch</tspan></text><text style="&st18;" transform="matrix(&st16;  3469.19  34.92 )">(*11)</text><text style="&st18;" transform="matrix(&st16;  3469.19  68.91 )">(*11)</text><text style="&st18;" transform="matrix(&st17;  3438.23  423.94 )">W-B</text><text style="&st18;" transform="matrix(&st16;  3018.73  131.23 )">(E)</text><path d=" M  3016.99,   120.77  L  3016.99,   163.26  L  3101.98,   163.26  L  3101.98,   120.77  L  3016.99,   120.77  " style="stroke-width: 1.42 ;&st7;  " /><path d=" M  3118.98,   163.26  L  3118.98,   222.75  L  3203.96,   222.75  L  3203.96,   163.26  L  3118.98,   163.26  " style="stroke-width: 1.42 ;&st7;  " /><text style="&st18;" transform="matrix(&st16;  3190.49  173.73 )">(E1)</text><path d=" M  3118.98,   426.71  L  3118.98,   452.21  L  3203.96,   452.21  L  3203.96,   426.71  L  3118.98,   426.71  " style="stroke-width: 1.42 ;&st7;  " /><text style="&st18;" transform="matrix(&st16;  3193.74  437.18 )">(E)</text><path d=" M  3118.98,   460.71  L  3118.98,   486.20  L  3203.96,   486.20  L  3203.96,   460.71  L  3118.98,   460.71  " style="stroke-width: 1.42 ;&st7;  " /><text style="&st18;" transform="matrix(&st16;  3193.74  471.18 )">(E)</text><path d=" M  3118.98,   494.70  L  3118.98,   520.20  L  3203.96,   520.20  L  3203.96,   494.70  L  3118.98,   494.70  " style="stroke-width: 1.42 ;&st7;  " /><text style="&st18;" transform="matrix(&st16;  3193.74  505.17 )">(E)</text><path d=" M  3118.98,   528.70  L  3118.98,   562.69  L  3203.96,   562.69  L  3203.96,   528.70  L  3118.98,   528.70  " style="stroke-width: 1.42 ;&st7;  " /><text style="&st18;" transform="matrix(&st16;  3187.54  539.16 )">(ILL-)</text><path d=" M  3118.98,   571.19  L  3118.98,   596.69  L  3203.96,   596.69  L  3203.96,   571.19  L  3118.98,   571.19  " style="stroke-width: 1.42 ;&st7;  " /><text style="&st18;" transform="matrix(&st16;  3188.78  581.66 )">(CG)</text><text style="&st18;" transform="matrix(&st16;  3193.74  658.14 )">(E)</text><path d=" M  3118.98,   647.68  L  3118.98,   673.17  L  3203.96,   673.17  L  3203.96,   647.68  L  3118.98,   647.68  " style="stroke-width: 1.42 ;&st7;  " /><text style="&st18;" transform="matrix(&st16;  3190.49  207.72 )">(E2)</text><g ewd:code="I68,I75" ewd:figID="13" ewd:figtype="conn"><g ewd:lineID="205"><text style="&st18;" transform="matrix(&st16;  3245.48  262.68 )">2</text><path d=" M  3259.49,   260.71  C  3259.49    258.21   3257.46    256.18   3254.96    256.18  " style="stroke-width: 1.42 ;&st7;   " /><path d=" M  3254.96,   256.18  C  3252.45    256.18   3250.42    258.21   3250.42    260.71  " style="stroke-width: 1.42 ;&st7;   " /><path d=" M  3250.42,   260.71  C  3250.42    263.21   3252.45    265.24   3254.96    265.24  " style="stroke-width: 1.42 ;&st7;   " /><path d=" M  3254.96,   265.24  C  3257.46    265.24   3259.49    263.21   3259.49    260.71  " style="stroke-width: 1.42 ;&st7;   " /><text style="&st18;" transform="matrix(&st16;  3252.69  262.68 )">A</text></g><g ewd:lineID="206"><text style="&st18;" transform="matrix(&st16;  3279.47  262.68 )">1</text><text style="&st18;" transform="matrix(&st16;  3286.68  262.68 )">A</text><path d=" M  3293.48,   260.71  C  3293.48    258.21   3291.45    256.18   3288.95    256.18  " style="stroke-width: 1.42 ;&st7;   " /><path d=" M  3288.95,   256.18  C  3286.45    256.18   3284.42    258.21   3284.42    260.71  " style="stroke-width: 1.42 ;&st7;   " /><path d=" M  3284.42,   260.71  C  3284.42    263.21   3286.45    265.24   3288.95    265.24  " style="stroke-width: 1.42 ;&st7;   " /><path d=" M  3288.95,   265.24  C  3291.45    265.24   3293.48    263.21   3293.48    260.71  " style="stroke-width: 1.42 ;&st7;   " /></g><g ewd:lineID="210"><text style="&st18;" transform="matrix(&st16;  3245.48  288.74 )">6</text><text style="&st18;" transform="matrix(&st16;  3252.69  288.74 )">B</text><path d=" M  3259.49,   286.77  C  3259.49    284.27   3257.46    282.24   3254.96    282.24  " style="stroke-width: 1.42 ;&st7;   " /><path d=" M  3254.96,   282.24  C  3252.45    282.24   3250.42    284.27   3250.42    286.77  " style="stroke-width: 1.42 ;&st7;   " /><path d=" M  3250.42,   286.77  C  3250.42    289.27   3252.45    291.30   3254.96    291.30  " style="stroke-width: 1.42 ;&st7;   " /><path d=" M  3254.96,   291.30  C  3257.46    291.30   3259.49    289.27   3259.49    286.77  " style="stroke-width: 1.42 ;&st7;   " /></g><g ewd:lineID="215"><text style="&st18;" transform="matrix(&st16;  3279.47  288.74 )">5</text><text style="&st18;" transform="matrix(&st16;  3286.68  288.74 )">B</text><path d=" M  3293.48,   286.77  C  3293.48    284.27   3291.45    282.24   3288.95    282.24  " style="stroke-width: 1.42 ;&st7;   " /><path d=" M  3288.95,   282.24  C  3286.45    282.24   3284.42    284.27   3284.42    286.77  " style="stroke-width: 1.42 ;&st7;   " /><path d=" M  3284.42,   286.77  C  3284.42    289.27   3286.45    291.30   3288.95    291.30  " style="stroke-width: 1.42 ;&st7;   " /><path d=" M  3288.95,   291.30  C  3291.45    291.30   3293.48    289.27   3293.48    286.77  " style="stroke-width: 1.42 ;&st7;   " /></g><path d=" M  3287.76,   272.74  L  3287.48,   273.21  L  3287.39,   273.74  L  3287.48,   274.27  L  3287.76,   274.74  L  3288.17,   275.09  L  3288.68,   275.28  L  3289.22,   275.28  L  3289.73,   275.09  L  3290.14,   274.74  L  3290.41,   274.27  L  3290.51,   273.74  L  3290.41,   273.21  L  3290.14,   272.74  L  3289.73,   272.39  L  3289.22,   272.20  L  3288.68,   272.20  L  3288.17,   272.39  L  3287.76,   272.74  L  3288.15,   273.45  L  3288.15,   274.03  L  3288.52,   274.48  L  3289.10,   274.58  L  3289.60,   274.29  L  3289.80,   273.74  L  3289.60,   273.19  L  3289.10,   272.90  L  3288.52,   273.00  L  3288.95,   273.74  " style="stroke-width: 0.85 ;&st7;  " /><path d=" M  3253.76,   272.74  L  3253.49,   273.21  L  3253.40,   273.74  L  3253.49,   274.27  L  3253.76,   274.74  L  3254.18,   275.09  L  3254.69,   275.28  L  3255.22,   275.28  L  3255.73,   275.09  L  3256.15,   274.74  L  3256.42,   274.27  L  3256.51,   273.74  L  3256.42,   273.21  L  3256.15,   272.74  L  3255.73,   272.39  L  3255.22,   272.20  L  3254.69,   272.20  L  3254.18,   272.39  L  3253.76,   272.74  L  3254.16,   273.45  L  3254.16,   274.03  L  3254.53,   274.48  L  3255.10,   274.58  L  3255.61,   274.29  L  3255.80,   273.74  L  3255.61,   273.19  L  3255.10,   272.90  L  3254.53,   273.00  L  3254.95,   273.74  " style="stroke-width: 0.85 ;&st7;  " /><path d=" M  3254.95,   273.74  L  3288.95,   273.74  " style="stroke-width: 0.85 ;&st7;  " /><path d=" M  3246.46,   265.24  L  3246.46,   282.24  L  3297.45,   282.24  L  3297.45,   265.24  L  3246.46,   265.24  " style="stroke-width: 1.42 ;&st7;  " /><path d=" M  3254.95,   265.24  L  3254.95,   282.24  " style="stroke-width: 0.85 ;&st7;  " /><path d=" M  3288.95,   265.24  L  3288.95,   282.24  " style="stroke-width: 0.85 ;&st7;  " /><g ewd:figtype="title"><text ewd:textID="108" style="&st18;" transform="matrix(&st17;  3312.17  293.64 )">No. 17 Junction Connector</text><text style="&st18;" transform="matrix(&st17;  3305.34  293.64 )">I68(A),I75(B)</text></g></g><g ewd:code="AI2" ewd:figID="49" ewd:figtype="w2w"><path d=" M  3238.52,    65.52  L  3234.27,    61.28  L  3238.52,    57.03  " style="stroke-width: 1.42 ;&st7;  " /><path d=" M  3235.12,    65.52  L  3230.88,    61.28  L  3235.12,    57.03  " style="stroke-width: 1.42 ;&st7;  " /><text style="&st18;" transform="matrix(&st16;  3219.08  54.04 )">3</text></g><g ewd:code="AI2" ewd:figID="50" ewd:figtype="w2w"><path d=" M  3238.52,    31.53  L  3234.27,    27.28  L  3238.52,    23.03  " style="stroke-width: 1.42 ;&st7;  " /><path d=" M  3235.12,    31.53  L  3230.88,    27.28  L  3235.12,    23.03  " style="stroke-width: 1.42 ;&st7;  " /><text style="&st18;" transform="matrix(&st16;  3219.08  20.04 )">9</text></g><g ewd:code="IA1" ewd:figID="51" ewd:figtype="w2w"><path d=" M  3505.66,   576.86  L  3501.41,   572.61  L  3497.16,   576.86  " style="stroke-width: 1.42 ;&st7;  " /><path d=" M  3505.66,   580.26  L  3501.41,   576.01  L  3497.16,   580.26  " style="stroke-width: 1.42 ;&st7;  " /><text style="&st18;" transform="matrix(&st16;  3484.66  568.91 )">10</text></g><g ewd:code="IA3" ewd:figID="52" ewd:figtype="w2w"><text style="&st18;" transform="matrix(&st16;  3484.66  560.41 )">10</text></g><g ewd:code="IA" ewd:figID="98" ewd:figtype="gp"><path d=" M  3356.94,   697.25  L  3356.94,   701.50  " style="stroke-width: 0.85 ;&st7;  " /><path d=" M  3348.44,   701.50  L  3365.44,   701.50  " style="stroke-width: 0.85 ;&st7;  " /><path d=" M  3352.69,   704.33  L  3361.19,   704.33  " style="stroke-width: 0.85 ;&st7;  " /><path d=" M  3354.10,   707.17  L  3359.77,   707.17  " style="stroke-width: 0.85 ;&st7;  " /><path d=" M  3355.52,   710.00  L  3358.35,   710.00  " style="stroke-width: 0.85 ;&st7;  " /></g><g ewd:code="IC" ewd:figID="99" ewd:figtype="gp"><path d=" M  3416.43,   484.79  L  3416.43,   489.04  " style="stroke-width: 0.85 ;&st7;  " /><path d=" M  3407.93,   489.04  L  3424.93,   489.04  " style="stroke-width: 0.85 ;&st7;  " /><path d=" M  3412.18,   491.87  L  3420.68,   491.87  " style="stroke-width: 0.85 ;&st7;  " /><path d=" M  3413.59,   494.70  L  3419.26,   494.70  " style="stroke-width: 0.85 ;&st7;  " /><path d=" M  3415.01,   497.54  L  3417.84,   497.54  " style="stroke-width: 0.85 ;&st7;  "/></g></svg>
