<?xml version="1.0" encoding="utf-8"?>
<!DOCTYPE svg PUBLIC "-//W3C//DTD SVG 1.0//EN" "http://www.w3.org/TR/2001/REC-SVG-20010904/DTD/svg10.dtd"[
	<!ENTITY ns_flows "http://ns.adobe.com/Flows/1.0/">
	<!ENTITY ns_svg "http://www.w3.org/2000/svg">
	<!ENTITY ns_xlink "http://www.w3.org/1999/xlink">
	<!ENTITY st0 "font-size:7px;font-family:'MS-PGothic';adobe-font-script:japanese;">
	<!ENTITY st1 "font-size:6px;font-family:'ArialMT';">
	<!-- White fill  -->
	<!ENTITY st2 "fill:#FFFFFF;stroke:#000000; stroke-width:1.41;stroke-linecap:round;stroke-linejoin:round;">
	<!-- Yellow fill  -->
	<!ENTITY st3 "fill:#FFFFCC;stroke:#FFFFCC; stroke-width:0.1;stroke-linecap:round;stroke-linejoin:round;">
	<!-- Gray fill  -->
	<!ENTITY st4 "fill:#CCCCCC;stroke:#CCCCCC; stroke-width:0.1;stroke-linecap:round;stroke-linejoin:round;">
	<!-- Light-blue fill -->
	<!ENTITY st5 "fill:#CCECF4;stroke:#000000; stroke-width:1.133;stroke-linecap:round;stroke-linejoin:round;">
	<!ENTITY st6 "fill:none;stroke-linecap:butt; stroke-linejoin:round;">
	<!ENTITY st7 "fill:none;stroke:#000000;stroke-linecap:round;stroke-linejoin:round;">
	<!ENTITY st8 "enable-background:new    ;">
	<!-- Black fill -->
	<!ENTITY st9 "fill:#000000;stroke:#000000; stroke-linecap:round;stroke-linejoin:round;">
	<!-- SRS note   -->
	<!ENTITY st10 "font-size:9px;font-family:'ArialMT';">
	<!ENTITY st11 "font-size:9px;font-family:'Svg Symbol';">
	<!ENTITY st12 "font-size:6px;font-family:'Svg Symbol';">
	<!ENTITY st13 "fill:none;stroke:#ff0000;stroke-linecap:round;stroke-linejoin:round;">
	<!-- Yellow fill  -->
	<!ENTITY st14 "fill:#FFFF00;stroke:#FFFF00; stroke-width:0.1;stroke-linecap:round;stroke-linejoin:round;">
	<!ENTITY st15 "font-size:6px;font-family:'MS-PGothic';adobe-font-script:japanese;">
	<!ENTITY st16 "1.00 0.00 0.00 1.00">
	<!ENTITY st17 "0.00 -1.00 1.00 0.00">
	<!ENTITY st18 "font-size:6px;font-family:'Arial';">
	<!ENTITY st19 "font-size:9px;font-family:'Arial';">
	<!ENTITY st20 "font-size:6px;font-family:'MS-PGothic','MS PGothic';adobe-font-script:japanese;">
	<!ENTITY st21 "font-size:7px;font-family:'MS-PGothic','MS PGothic';adobe-font-script:japanese;">
	<!ATTLIST svg
		xmlns:ewd CDATA #FIXED "http://shcl.co.jp/ewd"
		xmlns:a CDATA #FIXED "http://ns.adobe.com/AdobeSVGViewerExtensions/3.0/"
		ewd:ver CDATA #IMPLIED
	>
	<!ATTLIST a
		ewd:lineID CDATA #IMPLIED
		ewd:groupID CDATA #IMPLIED
		ewd:figtype CDATA #IMPLIED
		ewd:code CDATA #IMPLIED
		ewd:figID CDATA #IMPLIED
		ewd:pinNo CDATA #IMPLIED
		ewd:comment CDATA #IMPLIED >
	<!ATTLIST g
		ewd:lineID CDATA #IMPLIED
		ewd:groupID CDATA #IMPLIED
		ewd:figtype CDATA #IMPLIED
		ewd:code CDATA #IMPLIED
		ewd:figID CDATA #IMPLIED
		ewd:pinNo CDATA #IMPLIED
		ewd:comment CDATA #IMPLIED >
	<!ATTLIST text
		ewd:textID CDATA #IMPLIED >
	<!ATTLIST title
		ewd:textID CDATA #IMPLIED >
]>
<!-- Generator: Shintec Hozumi YS   -->
<svg onload="call_execInitLoadProc_svg('system')" style="overflow:visible;  enable-background:new 0 0 6744.361 710.000" viewBox="0 0 6744.361 710.000" height="710.000" width="6744.361" xml:space="preserve" ewd:ver="2.3.1.16" xmlns="&ns_svg;" xmlns:a="http://ns.adobe.com/AdobeSVGViewerExtensions/3.0/" xmlns:ewd="http://shcl.co.jp/ewd" xmlns:xlink="&ns_xlink;">
<text ewd:textID="49" style="&st18;" transform="matrix(&st16;  969.68  170.89 )">Emission <tspan dy="6.0" x="0 ">Control ECU</tspan></text><text style="&st18;" transform="matrix(&st16;  527.75  95.8 )">C83</text><text style="&st18;" transform="matrix(&st16;  527.75  129.79 )">C96</text><text style="&st18;" transform="matrix(&st16;  527.75  163.79 )">C86</text><text style="&st18;" transform="matrix(&st16;  527.75  223.28 )">C98</text><path d=" M   696.88,   159.73  L   691.91,   154.76  " style="stroke-width: 1.42 ;&st7;  " /><path d=" M   679.89,   166.79  L   684.86,   171.76  " style="stroke-width: 1.42 ;&st7;  " /><path d=" M   691.91,   171.76  L   696.88,   166.79  " style="stroke-width: 1.42 ;&st7;  " /><path d=" M   684.86,   154.76  L   679.89,   159.73  " style="stroke-width: 1.42 ;&st7;  " /><path d=" M   718.85,   333.23  L   713.88,   338.20  " style="stroke-width: 1.42 ;&st7;  " /><path d=" M   725.91,   350.23  L   730.88,   345.26  " style="stroke-width: 1.42 ;&st7;  " /><path d=" M   713.88,   345.26  L   718.85,   350.23  " style="stroke-width: 1.42 ;&st7;  " /><path d=" M   696.88,    91.74  L   691.91,    86.77  " style="stroke-width: 1.42 ;&st7;  " /><path d=" M   679.89,    98.80  L   684.86,   103.77  " style="stroke-width: 1.42 ;&st7;  " /><path d=" M   691.91,   103.77  L   696.88,    98.80  " style="stroke-width: 1.42 ;&st7;  " /><path d=" M   684.86,    86.77  L   679.89,    91.74  " style="stroke-width: 1.42 ;&st7;  " /><path d=" M   730.88,   338.20  L   725.91,   333.23  " style="stroke-width: 1.42 ;&st7;  " /><text style="&st18;" transform="matrix(&st17;  684.69  133.2 )">BR</text><path d=" M   747.88,   163.26  L   747.88,   167.51  " style="stroke-width: 1.42 ;&st7;  " /><path d=" M   862.61,   193.00  L   862.61,   197.25  " style="stroke-width: 1.42 ;&st7;  " /><text style="&st18;" transform="matrix(&st16;  969.67  163.79 )">A30</text><text style="&st18;" transform="matrix(&st16;  969.67  197.78 )">I42</text><path d=" M   764.87,    23.03  L   764.87,    27.28  " style="stroke-width: 1.42 ;&st7;  " /><path d=" M   883.85,    74.02  L   883.85,    78.27  " style="stroke-width: 1.42 ;&st7;  " /><text style="&st18;" transform="matrix(&st16;  969.67  27.81 )">I17</text><text style="&st18;" transform="matrix(&st16;  969.68  34.92 )">DLC3</text><text style="&st18;" transform="matrix(&st16;  969.67  78.8 )">L25</text><text style="&st18;" transform="matrix(&st16;  641.45  91.57 )">BR</text><text style="&st18;" transform="matrix(&st16;  641.45  125.57 )">BR</text><text style="&st18;" transform="matrix(&st16;  641.45  159.56 )">BR</text><text style="&st18;" transform="matrix(&st16;  639.67  219.05 )">W-B</text><text style="&st18;" transform="matrix(&st16;  717.94  159.56 )">BR</text><text style="&st18;" transform="matrix(&st16;  717.94  23.58 )">BR</text><text style="&st18;" transform="matrix(&st16;  811.43  23.58 )">BR</text><text style="&st18;" transform="matrix(&st16;  811.43  74.58 )">BR</text><text style="&st18;" transform="matrix(&st16;  811.43  159.56 )">BR</text><text style="&st18;" transform="matrix(&st16;  811.43  193.56 )">BR</text><text style="&st18;" transform="matrix(&st16;  900.66  193.56 )">BR</text><text style="&st18;" transform="matrix(&st16;  904.91  74.58 )">BR</text><text style="&st18;" transform="matrix(&st17;  684.69  201.19 )">BR</text><path d=" M   951.84,   329.70  L   946.87,   324.73  " style="stroke-width: 1.42 ;&st7;  " /><path d=" M   934.84,   336.76  L   939.81,   341.73  " style="stroke-width: 1.42 ;&st7;  " /><path d=" M   946.87,   341.73  L   951.84,   336.76  " style="stroke-width: 1.42 ;&st7;  " /><path d=" M   939.81,   324.73  L   934.84,   329.70  " style="stroke-width: 1.42 ;&st7;  " /><path d=" M   875.50,   351.24  C   873.59    353.38    873.53    356.51    875.35    358.72  " style="stroke-width: 1.42 ;&st7;   " /><text ewd:textID="1" style="&st18;" transform="matrix(&st16;  971.98  329.53 )">(Shielded)</text><text ewd:textID="1" style="&st18;" transform="matrix(&st16;  971.98  355.03 )">(Shielded)</text><text ewd:textID="1" style="&st18;" transform="matrix(&st16;  971.98  380.52 )">(Shielded)</text><text ewd:textID="1" style="&st18;" transform="matrix(&st16;  886.99  355.03 )">(Shielded)</text><path d=" M   951.84,   253.22  L   946.87,   248.24  " style="stroke-width: 1.42 ;&st7;  " /><path d=" M   934.84,   260.27  L   939.81,   265.24  " style="stroke-width: 1.42 ;&st7;  " /><path d=" M   946.87,   265.24  L   951.84,   260.27  " style="stroke-width: 1.42 ;&st7;  " /><path d=" M   939.81,   248.24  L   934.84,   253.22  " style="stroke-width: 1.42 ;&st7;  " /><path d=" M   875.50,   274.75  C   873.59    276.89    873.53    280.03    875.35    282.24  " style="stroke-width: 1.42 ;&st7;   " /><text ewd:textID="1" style="&st18;" transform="matrix(&st16;  971.98  253.05 )">(Shielded)</text><text ewd:textID="1" style="&st18;" transform="matrix(&st16;  971.98  278.54 )">(Shielded)</text><text ewd:textID="1" style="&st18;" transform="matrix(&st16;  971.98  304.04 )">(Shielded)</text><text ewd:textID="1" style="&st18;" transform="matrix(&st16;  886.99  278.54 )">(Shielded)</text><path d=" M   718.85,   299.24  L   713.88,   304.21  " style="stroke-width: 1.42 ;&st7;  " /><path d=" M   725.91,   316.23  L   730.88,   311.26  " style="stroke-width: 1.42 ;&st7;  " /><path d=" M   713.88,   311.26  L   718.85,   316.23  " style="stroke-width: 1.42 ;&st7;  " /><path d=" M   730.88,   304.21  L   725.91,   299.24  " style="stroke-width: 1.42 ;&st7;  " /><text style="&st18;" transform="matrix(&st16;  969.67  444.24 )">C39</text><text style="&st18;" transform="matrix(&st16;  969.67  563.22 )">C58</text><text style="&st18;" transform="matrix(&st16;  969.67  605.71 )">C61</text><text style="&st18;" transform="matrix(&st16;  969.67  648.21 )">C71</text><path d=" M   815.86,   491.18  L   810.89,   486.20  " style="stroke-width: 1.42 ;&st7;  " /><path d=" M   798.87,   498.23  L   803.84,   503.20  " style="stroke-width: 1.42 ;&st7;  " /><path d=" M   810.89,   503.20  L   815.86,   498.23  " style="stroke-width: 1.42 ;&st7;  " /><path d=" M   803.84,   486.20  L   798.87,   491.18  " style="stroke-width: 1.42 ;&st7;  " /><path d=" M   790.37,   465.68  L   785.40,   460.71  " style="stroke-width: 1.42 ;&st7;  " /><path d=" M   773.37,   472.74  L   778.34,   477.71  " style="stroke-width: 1.42 ;&st7;  " /><path d=" M   785.40,   477.71  L   790.37,   472.74  " style="stroke-width: 1.42 ;&st7;  " /><path d=" M   778.34,   460.71  L   773.37,   465.68  " style="stroke-width: 1.42 ;&st7;  " /><path d=" M   790.37,   601.66  L   785.40,   596.69  " style="stroke-width: 1.42 ;&st7;  " /><path d=" M   773.37,   608.71  L   778.34,   613.68  " style="stroke-width: 1.42 ;&st7;  " /><path d=" M   785.40,   613.68  L   790.37,   608.71  " style="stroke-width: 1.42 ;&st7;  " /><path d=" M   778.34,   596.69  L   773.37,   601.66  " style="stroke-width: 1.42 ;&st7;  " /><path d=" M   688.38,   605.18  L   696.88,   605.18  " style="stroke-width: 1.42 ;&st7;  " /><text style="&st18;" transform="matrix(&st16;  527.75  648.21 )">C36</text><path d=" M   688.38,   562.69  L   696.88,   562.69  " style="stroke-width: 1.42 ;&st7;  " /><path d=" M   705.38,   516.67  L   700.41,   511.70  " style="stroke-width: 1.42 ;&st7;  " /><path d=" M   688.38,   523.73  L   693.35,   528.70  " style="stroke-width: 1.42 ;&st7;  " /><path d=" M   700.41,   528.70  L   705.38,   523.73  " style="stroke-width: 1.42 ;&st7;  " /><path d=" M   693.35,   511.70  L   688.38,   516.67  " style="stroke-width: 1.42 ;&st7;  " /><text style="&st18;" transform="matrix(&st16;  527.76  527.83 )">DLC3</text><text style="&st18;" transform="matrix(&st16;  527.75  520.73 )">I17</text><path d=" M   730.88,   440.18  L   725.91,   435.21  " style="stroke-width: 1.42 ;&st7;  " /><path d=" M   713.88,   447.24  L   718.85,   452.21  " style="stroke-width: 1.42 ;&st7;  " /><path d=" M   725.91,   452.21  L   730.88,   447.24  " style="stroke-width: 1.42 ;&st7;  " /><path d=" M   718.85,   435.21  L   713.88,   440.18  " style="stroke-width: 1.42 ;&st7;  " /><path d=" M   671.39,   440.18  L   666.42,   435.21  " style="stroke-width: 1.42 ;&st7;  " /><path d=" M   654.39,   447.24  L   659.36,   452.21  " style="stroke-width: 1.42 ;&st7;  " /><path d=" M   666.42,   452.21  L   671.39,   447.24  " style="stroke-width: 1.42 ;&st7;  " /><path d=" M   659.36,   435.21  L   654.39,   440.18  " style="stroke-width: 1.42 ;&st7;  " /><path d=" M   730.88,   397.69  L   725.91,   392.72  " style="stroke-width: 1.42 ;&st7;  " /><path d=" M   713.88,   404.75  L   718.85,   409.72  " style="stroke-width: 1.42 ;&st7;  " /><path d=" M   725.91,   409.72  L   730.88,   404.75  " style="stroke-width: 1.42 ;&st7;  " /><path d=" M   718.85,   392.72  L   713.88,   397.69  " style="stroke-width: 1.42 ;&st7;  " /><path d=" M   671.39,   397.69  L   666.42,   392.72  " style="stroke-width: 1.42 ;&st7;  " /><path d=" M   654.39,   404.75  L   659.36,   409.72  " style="stroke-width: 1.42 ;&st7;  " /><path d=" M   666.42,   409.72  L   671.39,   404.75  " style="stroke-width: 1.42 ;&st7;  " /><path d=" M   659.36,   392.72  L   654.39,   397.69  " style="stroke-width: 1.42 ;&st7;  " /><text style="&st18;" transform="matrix(&st16;  527.75  401.75 )">C42</text><path d=" M   603.54,   436.23  C   601.64    438.37    601.58    441.50    603.40    443.71  " style="stroke-width: 1.42 ;&st7;   " /><text style="&st18;" transform="matrix(&st16;  894.63  253.05 )">W-B</text><text style="&st18;" transform="matrix(&st16;  894.63  329.53 )">W-B</text><text style="&st18;" transform="matrix(&st16;  904.91  440.01 )">BR</text><text style="&st18;" transform="matrix(&st16;  903.13  465.51 )">W-B</text><text style="&st18;" transform="matrix(&st16;  903.13  491.01 )">W-B</text><text style="&st18;" transform="matrix(&st16;  903.13  558.99 )">W-B</text><text style="&st18;" transform="matrix(&st16;  903.13  601.49 )">W-B</text><text style="&st18;" transform="matrix(&st16;  903.13  643.98 )">W-B</text><text style="&st18;" transform="matrix(&st16;  631.17  643.98 )">W-B</text><text style="&st18;" transform="matrix(&st16;  632.96  516.5 )">BR</text><text ewd:textID="1" style="&st18;" transform="matrix(&st16;  615.04  440.01 )">(Shielded)</text><text style="&st18;" transform="matrix(&st16;  632.96  397.52 )">BR</text><text ewd:textID="1" style="&st18;" transform="matrix(&st16;  678.77  397.52 )">(Shielded)</text><text style="&st18;" transform="matrix(&st16;  688.2  440.01 )">BR</text><text style="&st18;" transform="matrix(&st16;  828.42  440.01 )">BR</text><text style="&st18;" transform="matrix(&st16;  826.64  465.51 )">W-B</text><text style="&st18;" transform="matrix(&st16;  826.64  491.01 )">W-B</text><text style="&st18;" transform="matrix(&st17;  693.19  545.38 )">BR</text><text style="&st18;" transform="matrix(&st17;  693.19  587.88 )">BR</text><text style="&st18;" transform="matrix(&st17;  693.19  630.37 )">BR</text><text style="&st18;" transform="matrix(&st17;  718.68  592.68 )">BR(*3)</text><text style="&st18;" transform="matrix(&st17;  735.68  594.47 )">W-B(*3)</text><text style="&st18;" transform="matrix(&st17;  752.68  594.47 )">W-B(*3)</text><text style="&st18;" transform="matrix(&st17;  778.17  559.91 )">W-B</text><text style="&st18;" transform="matrix(&st17;  718.68  426.4 )">BR</text><text style="&st18;" transform="matrix(&st16;  527.75  308.26 )">C52</text><text style="&st18;" transform="matrix(&st16;  527.75  342.26 )">C54</text><text ewd:textID="133" style="&st18;" transform="matrix(&st16;  527.76  655.31 )">Transfer L4 <tspan dy="6.0" x="0 ">Position Switch </tspan><tspan dy="6.0" x="0 ">(No. 1 Transfer </tspan><tspan dy="6.0" x="0 ">Indicator Switch)</tspan></text><text ewd:textID="38" style="&st18;" transform="matrix(&st16;  969.68  85.91 )">Combination <tspan dy="6.0" x="0 ">Meter Assembly</tspan></text><text style="&st18;" transform="matrix(&st16;  969.68  451.35 )">ECM</text><text ewd:textID="38" style="&st18;" transform="matrix(&st16;  527.76  493.84 )">Combination <tspan dy="6.0" x="0 ">Meter Assembly</tspan></text><text ewd:textID="40" style="&st18;" transform="matrix(&st16;  527.76  408.85 )">Crank Position Sensor</text><text ewd:textID="51" style="&st18;" transform="matrix(&st16;  969.68  655.31 )">Engine Oil <tspan dy="6.0" x="0 ">Level Sensor</tspan></text><text ewd:textID="42" style="&st18;" transform="matrix(&st16;  969.68  612.82 )">Diesel <tspan dy="6.0" x="0 ">Throttle Body </tspan><tspan dy="6.0" x="0 ">Assembly (Bank 2)</tspan></text><text ewd:textID="41" style="&st18;" transform="matrix(&st16;  969.68  570.33 )">Diesel <tspan dy="6.0" x="0 ">Throttle Body </tspan><tspan dy="6.0" x="0 ">Assembly (Bank 1)</tspan></text><text ewd:textID="90" style="&st18;" transform="matrix(&st16;  527.76  315.37 )">Injector Driver <tspan dy="6.0" x="0 ">(EDU) (No. 2)</tspan></text><text ewd:textID="131" style="&st18;" transform="matrix(&st16;  527.76  136.9 )">Speedometer Sensor</text><text ewd:textID="50" style="&st18;" transform="matrix(&st16;  527.76  170.89 )">Engine Coolant <tspan dy="6.0" x="0 ">Temperature Sensor</tspan></text><text ewd:textID="88" style="&st18;" transform="matrix(&st16;  527.76  102.9 )">Injection or Supply <tspan dy="6.0" x="0 ">Pump Assembly</tspan></text><text ewd:textID="89" style="&st18;" transform="matrix(&st16;  527.76  349.36 )">Injector Driver <tspan dy="6.0" x="0 ">(EDU) (No. 1)</tspan></text><text style="&st18;" transform="matrix(&st16;  656.67  338.03 )">W-B</text><text style="&st18;" transform="matrix(&st16;  656.67  304.04 )">W-B</text><text style="&st18;" transform="matrix(&st16;  758.65  338.03 )">W-B</text><text style="&st18;" transform="matrix(&st16;  758.65  304.04 )">W-B</text><text ewd:textID="33" style="&st18;" transform="matrix(&st16;  527.76  230.38 )">Center Differential <tspan dy="6.0" x="0 ">Lock Indicator Switch </tspan><tspan dy="6.0" x="0 ">(No. 1 Transfer </tspan><tspan dy="6.0" x="0 ">Indicator Switch)</tspan></text><path d=" M   858.36,    23.75  L   853.38,    18.78  " style="stroke-width: 1.42 ;&st7;  " /><path d=" M   841.36,    30.81  L   846.33,    35.78  " style="stroke-width: 1.42 ;&st7;  " /><path d=" M   853.38,    35.78  L   858.36,    30.81  " style="stroke-width: 1.42 ;&st7;  " /><path d=" M   846.33,    18.78  L   841.36,    23.75  " style="stroke-width: 1.42 ;&st7;  " /><text style="&st18;" transform="matrix(&st16;  904.91  23.58 )">BR</text><text style="&st18;" transform="matrix(&st16;  809.14  34.92 )">(*10)</text><text style="&st18;" transform="matrix(&st16;  902.62  34.92 )">(*10)</text><text style="&st18;" transform="matrix(&st16;  809.14  85.91 )">(*11)</text><text style="&st18;" transform="matrix(&st16;  904.29  85.91 )">(*2)</text><text style="&st18;" transform="matrix(&st16;  809.14  170.89 )">(*16)</text><text style="&st18;" transform="matrix(&st16;  809.14  204.89 )">(*17)</text><text style="&st18;" transform="matrix(&st16;  898.37  204.89 )">(*17)</text><text style="&st18;" transform="matrix(&st16;  639.17  170.89 )">(*17)</text><path d=" M   696.88,    52.78  L   688.38,    52.78  " style="stroke-width: 1.42 ;&st7;  " /><text style="&st18;" transform="matrix(&st17;  684.69  77.96 )">BR</text><text style="&st18;" transform="matrix(&st17;  846.16  56.71 )">BR</text><text style="&st18;" transform="matrix(&st17;  857.49  59.0 )">(*10)</text><text style="&st18;" transform="matrix(&st16;  717.32  34.92 )">(*2)</text><text style="&st18;" transform="matrix(&st16;  717.32  170.89 )">(*2)</text><text style="&st18;" transform="matrix(&st16;  640.83  102.9 )">(*2)</text><text style="&st18;" transform="matrix(&st16;  640.83  136.9 )">(*2)</text><text style="&st18;" transform="matrix(&st16;  640.83  230.38 )">(*2)</text><text style="&st18;" transform="matrix(&st17;  696.02  78.58 )">(*2)</text><text style="&st18;" transform="matrix(&st17;  696.02  133.82 )">(*2)</text><text style="&st18;" transform="matrix(&st17;  696.02  201.81 )">(*2)</text><text style="&st18;" transform="matrix(&st16;  657.83  315.37 )">(*3)</text><text style="&st18;" transform="matrix(&st16;  657.83  349.36 )">(*3)</text><text style="&st18;" transform="matrix(&st16;  759.81  315.37 )">(*3)</text><text style="&st18;" transform="matrix(&st16;  759.81  349.36 )">(*3)</text><text style="&st18;" transform="matrix(&st16;  895.79  289.87 )">(*3)</text><text style="&st18;" transform="matrix(&st16;  895.79  366.36 )">(*3)</text><text style="&st18;" transform="matrix(&st16;  980.78  264.38 )">(*3)</text><text style="&st18;" transform="matrix(&st16;  980.78  289.87 )">(*3)</text><text style="&st18;" transform="matrix(&st16;  980.78  315.37 )">(*3)</text><text style="&st18;" transform="matrix(&st16;  980.78  340.86 )">(*3)</text><text style="&st18;" transform="matrix(&st16;  980.78  366.36 )">(*3)</text><text style="&st18;" transform="matrix(&st16;  980.78  391.86 )">(*3)</text><text style="&st18;" transform="matrix(&st16;  632.34  408.85 )">(*3)</text><text style="&st18;" transform="matrix(&st16;  687.58  408.85 )">(*3)</text><text style="&st18;" transform="matrix(&st16;  687.58  451.35 )">(*3)</text><text style="&st18;" transform="matrix(&st16;  623.84  451.35 )">(*3)</text><text style="&st18;" transform="matrix(&st16;  895.79  264.38 )">(*3)</text><text style="&st18;" transform="matrix(&st16;  895.79  340.86 )">(*3)</text><text style="&st18;" transform="matrix(&st17;  730.02  427.02 )">(*3)</text><text style="&st18;" transform="matrix(&st16;  527.75  486.73 )">L25</text><path d=" M   662.89,   486.20  L   662.89,   490.45  " style="stroke-width: 1.42 ;&st7;  " /><text style="&st18;" transform="matrix(&st16;  632.96  482.51 )">BR</text><text style="&st18;" transform="matrix(&st16;  632.34  493.84 )">(*3)</text><text style="&st18;" transform="matrix(&st17;  693.19  502.89 )">BR</text><text style="&st18;" transform="matrix(&st17;  704.52  503.51 )">(*3)</text><text style="&st18;" transform="matrix(&st16;  632.34  527.83 )">(*3)</text><text style="&st18;" transform="matrix(&st17;  704.52  546.0 )">(*3)</text><text style="&st18;" transform="matrix(&st17;  704.52  588.5 )">(*3)</text><text style="&st18;" transform="matrix(&st17;  704.52  630.99 )">(*3)</text><text style="&st18;" transform="matrix(&st16;  632.34  655.31 )">(*3)</text><text style="&st18;" transform="matrix(&st17;  789.51  558.75 )">(*3)</text><text style="&st18;" transform="matrix(&st16;  827.8  451.35 )">(*3)</text><text style="&st18;" transform="matrix(&st16;  827.8  476.84 )">(*3)</text><text style="&st18;" transform="matrix(&st16;  827.8  502.34 )">(*3)</text><text style="&st18;" transform="matrix(&st16;  904.29  451.35 )">(*3)</text><text style="&st18;" transform="matrix(&st16;  904.29  476.84 )">(*3)</text><text style="&st18;" transform="matrix(&st16;  904.29  502.34 )">(*3)</text><text style="&st18;" transform="matrix(&st16;  904.29  570.33 )">(*3)</text><text style="&st18;" transform="matrix(&st16;  904.29  612.82 )">(*3)</text><text style="&st18;" transform="matrix(&st16;  904.29  655.31 )">(*3)</text><text ewd:textID="114" style="&st18;" transform="matrix(&st16;  969.68  204.89 )">Preheating <tspan dy="6.0" x="0 ">Timer Assembly</tspan></text><path d=" M   526.91,    86.77  L   526.91,   112.27  L   611.90,   112.27  L   611.90,    86.77  L   526.91,    86.77  " style="stroke-width: 1.42 ;&st7;  " /><text style="&st18;" transform="matrix(&st16;  595.4  97.24 )">(NE-)</text><path d=" M   526.91,   120.77  L   526.91,   146.26  L   611.90,   146.26  L   611.90,   120.77  L   526.91,   120.77  " style="stroke-width: 1.42 ;&st7;  " /><text style="&st18;" transform="matrix(&st16;  597.65  131.23 )">(SE)</text><path d=" M   526.91,   154.76  L   526.91,   180.26  L   611.90,   180.26  L   611.90,   154.76  L   526.91,   154.76  " style="stroke-width: 1.42 ;&st7;  " /><text style="&st18;" transform="matrix(&st16;  598.42  165.23 )">(E2)</text><path d=" M   526.91,   214.25  L   526.91,   256.74  L   611.90,   256.74  L   611.90,   214.25  L   526.91,   214.25  " style="stroke-width: 1.42 ;&st7;  " /><text style="&st18;" transform="matrix(&st16;  592.37  224.72 )">(GND)</text><path d=" M   943.34,   154.76  L   943.34,   180.26  L  1028.33,   180.26  L  1028.33,   154.76  L   943.34,   154.76  " style="stroke-width: 1.42 ;&st7;  " /><text style="&st18;" transform="matrix(&st16;  945.08  165.23 )">(E1)</text><path d=" M   943.34,   188.75  L   943.34,   214.25  L  1028.33,   214.25  L  1028.33,   188.75  L   943.34,   188.75  " style="stroke-width: 1.42 ;&st7;  " /><text style="&st18;" transform="matrix(&st16;  945.08  199.22 )">(E)</text><path d=" M   943.34,    18.78  L   943.34,    44.28  L  1028.33,    44.28  L  1028.33,    18.78  L   943.34,    18.78  " style="stroke-width: 1.42 ;&st7;  " /><text style="&st18;" transform="matrix(&st16;  945.08  29.25 )">(SG)</text><path d=" M   943.34,    69.77  L   943.34,    95.27  L  1028.33,    95.27  L  1028.33,    69.77  L   943.34,    69.77  " style="stroke-width: 1.42 ;&st7;  " /><text style="&st18;" transform="matrix(&st16;  945.08  80.24 )">(ES)</text><path d=" M   943.34,   435.21  L   943.34,   511.70  L  1028.33,   511.70  L  1028.33,   435.21  L   943.34,   435.21  " style="stroke-width: 1.42 ;&st7;  " /><text style="&st18;" transform="matrix(&st16;  945.08  445.68 )">(E1)</text><path d=" M   943.34,   554.19  L   943.34,   588.19  L  1028.33,   588.19  L  1028.33,   554.19  L   943.34,   554.19  " style="stroke-width: 1.42 ;&st7;  " /><text style="&st18;" transform="matrix(&st16;  945.08  564.66 )">(E2R)</text><path d=" M   943.34,   596.69  L   943.34,   630.68  L  1028.33,   630.68  L  1028.33,   596.69  L   943.34,   596.69  " style="stroke-width: 1.42 ;&st7;  " /><text style="&st18;" transform="matrix(&st16;  945.08  607.15 )">(E2)</text><path d=" M   943.34,   639.18  L   943.34,   664.67  L  1028.33,   664.67  L  1028.33,   639.18  L   943.34,   639.18  " style="stroke-width: 1.42 ;&st7;  " /><text style="&st18;" transform="matrix(&st16;  945.08  649.65 )">(E)</text><text style="&st18;" transform="matrix(&st16;  945.08  471.18 )">(E02)</text><text style="&st18;" transform="matrix(&st16;  945.08  496.67 )">(E01)</text><text style="&st18;" transform="matrix(&st16;  599.12  649.65 )">(L4)</text><path d=" M   526.91,   639.18  L   526.91,   681.67  L   611.90,   681.67  L   611.90,   639.18  L   526.91,   639.18  " style="stroke-width: 1.42 ;&st7;  " /><path d=" M   526.91,   511.70  L   526.91,   537.20  L   611.90,   537.20  L   611.90,   511.70  L   526.91,   511.70  " style="stroke-width: 1.42 ;&st7;  " /><text style="&st18;" transform="matrix(&st16;  597.02  522.17 )">(SG)</text><path d=" M   526.91,   392.72  L   526.91,   418.22  L   611.90,   418.22  L   611.90,   392.72  L   526.91,   392.72  " style="stroke-width: 1.42 ;&st7;  " /><text style="&st18;" transform="matrix(&st16;  592.37  403.19 )">(GND)</text><text style="&st18;" transform="matrix(&st16;  592.37  309.7 )">(GND)</text><path d=" M   526.91,   299.24  L   526.91,   324.73  L   611.90,   324.73  L   611.90,   299.24  L   526.91,   299.24  " style="stroke-width: 1.42 ;&st7;  " /><text style="&st18;" transform="matrix(&st16;  592.37  343.7 )">(GND)</text><path d=" M   526.91,   333.23  L   526.91,   358.73  L   611.90,   358.73  L   611.90,   333.23  L   526.91,   333.23  " style="stroke-width: 1.42 ;&st7;  " /><path d=" M   526.91,   477.71  L   526.91,   503.20  L   611.90,   503.20  L   611.90,   477.71  L   526.91,   477.71  " style="stroke-width: 1.42 ;&st7;  " /><text style="&st18;" transform="matrix(&st16;  597.65  488.17 )">(ES)</text><g ewd:code="C81,C82" ewd:figID="2" ewd:figtype="conn"><g ewd:lineID="59"><text style="&st18;" transform="matrix(&st16;  851.95  437.18 )">8</text><text style="&st18;" transform="matrix(&st16;  851.56  445.68 )">B</text><path d=" M   858.36,   443.71  C   858.36    441.21    856.33    439.18    853.82    439.18  " style="stroke-width: 1.42 ;&st7;   " /><path d=" M   853.82,   439.18  C   851.32    439.18    849.29    441.21    849.29    443.71  " style="stroke-width: 1.42 ;&st7;   " /><path d=" M   849.29,   443.71  C   849.29    446.21    851.32    448.24    853.82    448.24  " style="stroke-width: 1.42 ;&st7;   " /><path d=" M   853.82,   448.24  C   856.33    448.24    858.36    446.21    858.36    443.71  " style="stroke-width: 1.42 ;&st7;   " /></g><g ewd:lineID="66"><text style="&st18;" transform="matrix(&st16;  851.95  462.68 )">2</text><path d=" M   858.36,   469.21  C   858.36    466.70    856.33    464.67    853.82    464.67  " style="stroke-width: 1.42 ;&st7;   " /><path d=" M   853.82,   464.67  C   851.32    464.67    849.29    466.70    849.29    469.21  " style="stroke-width: 1.42 ;&st7;   " /><path d=" M   849.29,   469.21  C   849.29    471.71    851.32    473.74    853.82    473.74  " style="stroke-width: 1.42 ;&st7;   " /><path d=" M   853.82,   473.74  C   856.33    473.74    858.36    471.71    858.36    469.21  " style="stroke-width: 1.42 ;&st7;   " /><text style="&st18;" transform="matrix(&st16;  851.56  471.18 )">B</text></g><g ewd:lineID="68"><text style="&st18;" transform="matrix(&st16;  851.95  488.17 )">1</text><text style="&st18;" transform="matrix(&st16;  851.56  496.67 )">B</text><path d=" M   858.36,   494.70  C   858.36    492.20    856.33    490.17    853.82    490.17  " style="stroke-width: 1.42 ;&st7;   " /><path d=" M   853.82,   490.17  C   851.32    490.17    849.29    492.20    849.29    494.70  " style="stroke-width: 1.42 ;&st7;   " /><path d=" M   849.29,   494.70  C   849.29    497.21    851.32    499.24    853.82    499.24  " style="stroke-width: 1.42 ;&st7;   " /><path d=" M   853.82,   499.24  C   856.33    499.24    858.36    497.21    858.36    494.70  " style="stroke-width: 1.42 ;&st7;   " /></g><g ewd:lineID="77"><text style="&st18;" transform="matrix(&st16;  878.01  488.17 )">1</text><text style="&st18;" transform="matrix(&st16;  877.62  496.67 )">A</text><path d=" M   884.42,   494.70  C   884.42    492.20    882.39    490.17    879.89    490.17  " style="stroke-width: 1.42 ;&st7;   " /><path d=" M   879.89,   490.17  C   877.38    490.17    875.35    492.20    875.35    494.70  " style="stroke-width: 1.42 ;&st7;   " /><path d=" M   875.35,   494.70  C   875.35    497.21    877.38    499.24    879.89    499.24  " style="stroke-width: 1.42 ;&st7;   " /><path d=" M   879.89,   499.24  C   882.39    499.24    884.42    497.21    884.42    494.70  " style="stroke-width: 1.42 ;&st7;   " /></g><g ewd:lineID="78"><text style="&st18;" transform="matrix(&st16;  878.01  462.68 )">2</text><path d=" M   884.42,   469.21  C   884.42    466.70    882.39    464.67    879.89    464.67  " style="stroke-width: 1.42 ;&st7;   " /><path d=" M   879.89,   464.67  C   877.38    464.67    875.35    466.70    875.35    469.21  " style="stroke-width: 1.42 ;&st7;   " /><path d=" M   875.35,   469.21  C   875.35    471.71    877.38    473.74    879.89    473.74  " style="stroke-width: 1.42 ;&st7;   " /><path d=" M   879.89,   473.74  C   882.39    473.74    884.42    471.71    884.42    469.21  " style="stroke-width: 1.42 ;&st7;   " /><text style="&st18;" transform="matrix(&st16;  877.62  471.18 )">A</text></g><g ewd:lineID="79"><text style="&st18;" transform="matrix(&st16;  878.01  437.18 )">8</text><path d=" M   884.42,   443.71  C   884.42    441.21    882.39    439.18    879.89    439.18  " style="stroke-width: 1.42 ;&st7;   " /><path d=" M   879.89,   439.18  C   877.38    439.18    875.35    441.21    875.35    443.71  " style="stroke-width: 1.42 ;&st7;   " /><path d=" M   875.35,   443.71  C   875.35    446.21    877.38    448.24    879.89    448.24  " style="stroke-width: 1.42 ;&st7;   " /><path d=" M   879.89,   448.24  C   882.39    448.24    884.42    446.21    884.42    443.71  " style="stroke-width: 1.42 ;&st7;   " /><text style="&st18;" transform="matrix(&st16;  877.62  445.68 )">A</text></g><path d=" M   858.36,   435.21  L   858.36,   503.20  L   875.35,   503.20  L   875.35,   435.21  L   858.36,   435.21  " style="stroke-width: 1.42 ;&st7;  " /><path d=" M   858.36,   443.71  C   858.36    441.21    856.33    439.18    853.82    439.18  " style="stroke-width: 1.42 ;&st7;   " /><path d=" M   853.82,   439.18  C   851.32    439.18    849.29    441.21    849.29    443.71  " style="stroke-width: 1.42 ;&st7;   " /><path d=" M   849.29,   443.71  C   849.29    446.21    851.32    448.24    853.82    448.24  " style="stroke-width: 1.42 ;&st7;   " /><path d=" M   853.82,   448.24  C   856.33    448.24    858.36    446.21    858.36    443.71  " style="stroke-width: 1.42 ;&st7;   " /><path d=" M   858.36,   469.21  C   858.36    466.70    856.33    464.67    853.82    464.67  " style="stroke-width: 1.42 ;&st7;   " /><path d=" M   853.82,   464.67  C   851.32    464.67    849.29    466.70    849.29    469.21  " style="stroke-width: 1.42 ;&st7;   " /><path d=" M   849.29,   469.21  C   849.29    471.71    851.32    473.74    853.82    473.74  " style="stroke-width: 1.42 ;&st7;   " /><path d=" M   853.82,   473.74  C   856.33    473.74    858.36    471.71    858.36    469.21  " style="stroke-width: 1.42 ;&st7;   " /><path d=" M   858.36,   494.70  C   858.36    492.20    856.33    490.17    853.82    490.17  " style="stroke-width: 1.42 ;&st7;   " /><path d=" M   853.82,   490.17  C   851.32    490.17    849.29    492.20    849.29    494.70  " style="stroke-width: 1.42 ;&st7;   " /><path d=" M   849.29,   494.70  C   849.29    497.21    851.32    499.24    853.82    499.24  " style="stroke-width: 1.42 ;&st7;   " /><path d=" M   853.82,   499.24  C   856.33    499.24    858.36    497.21    858.36    494.70  " style="stroke-width: 1.42 ;&st7;   " /><path d=" M   866.85,   435.21  L   866.85,   503.20  " style="stroke-width: 1.42 ;&st7;  " /><g ewd:figtype="title"><text style="&st18;" transform="matrix(&st16;  854.94  511.09 )">C81(A),C82(B)</text><text ewd:textID="128" style="&st18;" transform="matrix(&st16;  854.95  517.92 )">Short Connector</text></g></g><g ewd:code="IL1" ewd:figID="27" ewd:figtype="w2w"><path d=" M   657.22,   481.95  L   661.47,   486.20  L   657.22,   490.45  " style="stroke-width: 1.42 ;&st7;  " /><path d=" M   653.82,   481.95  L   658.07,   486.20  L   653.82,   490.45  " style="stroke-width: 1.42 ;&st7;  " /><text style="&st18;" transform="matrix(&st16;  667.84  478.97 )">26</text></g><g ewd:code="AC1" ewd:figID="28" ewd:figtype="w2w"><path d=" M   692.63,    61.84  L   688.38,    57.59  L   684.14,    61.84  " style="stroke-width: 1.42 ;&st7;  " /><path d=" M   692.63,    58.44  L   688.38,    54.19  L   684.14,    58.44  " style="stroke-width: 1.42 ;&st7;  " /><text style="&st18;" transform="matrix(&st16;  674.97  50.5 )">1</text></g><g ewd:code="CA2" ewd:figID="29" ewd:figtype="w2w"><path d=" M   701.13,   599.52  L   696.88,   603.77  L   692.63,   599.52  " style="stroke-width: 1.42 ;&st7;  " /><path d=" M   692.63,   596.12  L   696.88,   600.37  L   701.13,   596.12  " style="stroke-width: 1.42 ;&st7;  " /><text style="&st18;" transform="matrix(&st16;  683.47  611.4 )">3</text></g><g ewd:code="AI3" ewd:figID="30" ewd:figtype="w2w"><path d=" M   692.63,   553.63  L   696.88,   557.88  L   701.13,   553.63  " style="stroke-width: 1.42 ;&st7;  " /><path d=" M   701.13,   557.03  L   696.88,   561.27  L   692.63,   557.03  " style="stroke-width: 1.42 ;&st7;  " /><text style="&st18;" transform="matrix(&st16;  680.13  568.91 )">55</text></g><g ewd:code="AC2" ewd:figID="31" ewd:figtype="w2w"><path d=" M   742.21,   159.01  L   746.46,   163.26  L   742.21,   167.51  " style="stroke-width: 1.42 ;&st7;  " /><path d=" M   738.81,   159.01  L   743.06,   163.26  L   738.81,   167.51  " style="stroke-width: 1.42 ;&st7;  " /><text style="&st18;" transform="matrix(&st16;  754.5  156.02 )">1</text></g><g ewd:code="AI3" ewd:figID="32" ewd:figtype="w2w"><text style="&st18;" transform="matrix(&st16;  752.83  20.04 )">22</text><path d=" M   770.54,    31.53  L   766.29,    27.28  L   770.54,    23.03  " style="stroke-width: 1.42 ;&st7;  " /><path d=" M   773.94,    31.53  L   769.69,    27.28  L   773.94,    23.03  " style="stroke-width: 1.42 ;&st7;  " /></g><g ewd:code="AI3" ewd:figID="33" ewd:figtype="w2w"><path d=" M   871.67,   201.50  L   867.42,   197.25  L   871.67,   193.00  " style="stroke-width: 1.42 ;&st7;  " /><path d=" M   868.27,   201.50  L   864.02,   197.25  L   868.27,   193.00  " style="stroke-width: 1.42 ;&st7;  " /><text style="&st18;" transform="matrix(&st16;  850.56  190.01 )">40</text></g><g ewd:code="IL1" ewd:figID="34" ewd:figtype="w2w"><path d=" M   892.92,    82.52  L   888.67,    78.27  L   892.92,    74.02  " style="stroke-width: 1.42 ;&st7;  " /><path d=" M   889.52,    82.52  L   885.27,    78.27  L   889.52,    74.02  " style="stroke-width: 1.42 ;&st7;  " /><text style="&st18;" transform="matrix(&st16;  871.81  71.03 )">26</text></g><g ewd:code="CC" ewd:figID="90" ewd:figtype="gp"><path d=" M   686.97,   276.57  L   689.80,   276.57  " style="stroke-width: 0.85 ;&st7;  " /><path d=" M   685.55,   273.74  L   691.22,   273.74  " style="stroke-width: 0.85 ;&st7;  " /><path d=" M   684.14,   270.91  L   692.63,   270.91  " style="stroke-width: 0.85 ;&st7;  " /><path d=" M   679.89,   268.07  L   696.88,   268.07  " style="stroke-width: 0.85 ;&st7;  " /><path d=" M   688.38,   263.82  L   688.38,   268.07  " style="stroke-width: 0.85 ;&st7;  " /></g><g ewd:code="CE" ewd:figID="91" ewd:figtype="gp"><path d=" M   720.96,   710.00  L   723.80,   710.00  " style="stroke-width: 0.85 ;&st7;  " /><path d=" M   719.55,   707.17  L   725.21,   707.17  " style="stroke-width: 0.85 ;&st7;  " /><path d=" M   718.13,   704.33  L   726.63,   704.33  " style="stroke-width: 0.85 ;&st7;  " /><path d=" M   713.88,   701.50  L   730.88,   701.50  " style="stroke-width: 0.85 ;&st7;  " /><path d=" M   722.38,   697.25  L   722.38,   701.50  " style="stroke-width: 0.85 ;&st7;  " /></g><g ewd:code="CD" ewd:figID="92" ewd:figtype="gp"><path d=" M   815.86,   382.80  L   815.86,   387.05  " style="stroke-width: 0.85 ;&st7;  " /><path d=" M   807.36,   387.05  L   824.36,   387.05  " style="stroke-width: 0.85 ;&st7;  " /><path d=" M   811.61,   389.89  L   820.11,   389.89  " style="stroke-width: 0.85 ;&st7;  " /><path d=" M   813.03,   392.72  L   818.70,   392.72  " style="stroke-width: 0.85 ;&st7;  " /><path d=" M   814.45,   395.55  L   817.28,   395.55  " style="stroke-width: 0.85 ;&st7;  " /></g><g ewd:code=" " ewd:figID="203" ewd:figtype="annex"><path d=" M   875.50,   351.24  C   873.59    353.38    873.53    356.51    875.35    358.72  " style="stroke-width: 1.42 ;&st7;   " /><path d=" M   875.21,   366.21  C   877.12    364.07    877.18    360.94    875.35    358.73  " style="stroke-width: 1.42 ;&st7;   " /></g><g ewd:code=" " ewd:figID="207" ewd:figtype="annex"><path d=" M   875.50,   274.75  C   873.59    276.89    873.53    280.03    875.35    282.24  " style="stroke-width: 1.42 ;&st7;   " /><path d=" M   875.21,   289.72  C   877.12    287.58    877.18    284.45    875.35    282.24  " style="stroke-width: 1.42 ;&st7;   " /></g><g ewd:code=" " ewd:figID="208" ewd:figtype="annex"><path d=" M   603.54,   436.23  C   601.64    438.37    601.58    441.50    603.40    443.71  " style="stroke-width: 1.42 ;&st7;   " /><path d=" M   603.26,   451.20  C   605.16    449.05    605.22    445.92    603.40    443.71  " style="stroke-width: 1.42 ;&st7;   "/></g></svg>
