<?xml version="1.0" encoding="utf-8"?>
<!DOCTYPE svg PUBLIC "-//W3C//DTD SVG 1.0//EN" "http://www.w3.org/TR/2001/REC-SVG-20010904/DTD/svg10.dtd"[
	<!ENTITY ns_flows "http://ns.adobe.com/Flows/1.0/">
	<!ENTITY ns_svg "http://www.w3.org/2000/svg">
	<!ENTITY ns_xlink "http://www.w3.org/1999/xlink">
	<!ENTITY st0 "font-size:7px;font-family:'MS-PGothic';adobe-font-script:japanese;">
	<!ENTITY st1 "font-size:6px;font-family:'ArialMT';">
	<!-- White fill  -->
	<!ENTITY st2 "fill:#FFFFFF;stroke:#000000; stroke-width:1.41;stroke-linecap:round;stroke-linejoin:round;">
	<!-- Yellow fill  -->
	<!ENTITY st3 "fill:#FFFFCC;stroke:#FFFFCC; stroke-width:0.1;stroke-linecap:round;stroke-linejoin:round;">
	<!-- Gray fill  -->
	<!ENTITY st4 "fill:#CCCCCC;stroke:#CCCCCC; stroke-width:0.1;stroke-linecap:round;stroke-linejoin:round;">
	<!-- Light-blue fill -->
	<!ENTITY st5 "fill:#CCECF4;stroke:#000000; stroke-width:1.133;stroke-linecap:round;stroke-linejoin:round;">
	<!ENTITY st6 "fill:none;stroke-linecap:butt; stroke-linejoin:round;">
	<!ENTITY st7 "fill:none;stroke:#000000;stroke-linecap:round;stroke-linejoin:round;">
	<!ENTITY st8 "enable-background:new    ;">
	<!-- Black fill -->
	<!ENTITY st9 "fill:#000000;stroke:#000000; stroke-linecap:round;stroke-linejoin:round;">
	<!-- SRS note   -->
	<!ENTITY st10 "font-size:9px;font-family:'ArialMT';">
	<!ENTITY st11 "font-size:9px;font-family:'Svg Symbol';">
	<!ENTITY st12 "font-size:6px;font-family:'Svg Symbol';">
	<!ENTITY st13 "fill:none;stroke:#ff0000;stroke-linecap:round;stroke-linejoin:round;">
	<!-- Yellow fill  -->
	<!ENTITY st14 "fill:#FFFF00;stroke:#FFFF00; stroke-width:0.1;stroke-linecap:round;stroke-linejoin:round;">
	<!ENTITY st15 "font-size:6px;font-family:'MS-PGothic';adobe-font-script:japanese;">
	<!ENTITY st16 "1.00 0.00 0.00 1.00">
	<!ENTITY st17 "0.00 -1.00 1.00 0.00">
	<!ENTITY st18 "font-size:6px;font-family:'Arial';">
	<!ENTITY st19 "font-size:9px;font-family:'Arial';">
	<!ENTITY st20 "font-size:6px;font-family:'MS-PGothic','MS PGothic';adobe-font-script:japanese;">
	<!ENTITY st21 "font-size:7px;font-family:'MS-PGothic','MS PGothic';adobe-font-script:japanese;">
	<!ATTLIST svg
		xmlns:ewd CDATA #FIXED "http://shcl.co.jp/ewd"
		xmlns:a CDATA #FIXED "http://ns.adobe.com/AdobeSVGViewerExtensions/3.0/"
		ewd:ver CDATA #IMPLIED
	>
	<!ATTLIST a
		ewd:lineID CDATA #IMPLIED
		ewd:groupID CDATA #IMPLIED
		ewd:figtype CDATA #IMPLIED
		ewd:code CDATA #IMPLIED
		ewd:figID CDATA #IMPLIED
		ewd:pinNo CDATA #IMPLIED
		ewd:comment CDATA #IMPLIED >
	<!ATTLIST g
		ewd:lineID CDATA #IMPLIED
		ewd:groupID CDATA #IMPLIED
		ewd:figtype CDATA #IMPLIED
		ewd:code CDATA #IMPLIED
		ewd:figID CDATA #IMPLIED
		ewd:pinNo CDATA #IMPLIED
		ewd:comment CDATA #IMPLIED >
	<!ATTLIST text
		ewd:textID CDATA #IMPLIED >
	<!ATTLIST title
		ewd:textID CDATA #IMPLIED >
]>
<!-- Generator: Shintec Hozumi YS   -->
<svg onload="call_execInitLoadProc_svg('system')" style="overflow:visible;  enable-background:new 0 0 7262.774 710.000" viewBox="0 0 7262.774 710.000" height="710.000" width="7262.774" xml:space="preserve" ewd:ver="2.3.1.16" xmlns="&ns_svg;" xmlns:a="http://ns.adobe.com/AdobeSVGViewerExtensions/3.0/" xmlns:ewd="http://shcl.co.jp/ewd" xmlns:xlink="&ns_xlink;">
<text ewd:textID="81" style="&st18;" transform="matrix(&st16;  7190.64  60.41 )">Front Seat <tspan dy="6.0" x="0 ">Inner Belt </tspan><tspan dy="6.0" x="0 ">Assembly RH</tspan></text><text ewd:textID="149" style="&st18;" transform="matrix(&st16;  7190.64  476.84 )">Rear Window <tspan dy="6.0" x="0 ">Defogger (Back </tspan><tspan dy="6.0" x="0 ">Door Glass RH)</tspan></text><text ewd:textID="145" style="&st18;" transform="matrix(&st16;  7190.64  519.33 )">Rear <tspan dy="6.0" x="0 ">Differential Lock </tspan><tspan dy="6.0" x="0 ">Position Switch</tspan></text><text ewd:textID="63" style="&st18;" transform="matrix(&st16;  7190.64  561.83 )">Differential <tspan dy="6.0" x="0 ">Lock Shift </tspan><tspan dy="6.0" x="0 ">Actuator</tspan></text><text ewd:textID="144" style="&st18;" transform="matrix(&st16;  7190.64  646.81 )">Rear <tspan dy="6.0" x="0 ">Combination </tspan><tspan dy="6.0" x="0 ">Light Assembly RH</tspan></text><text ewd:textID="144" style="&st18;" transform="matrix(&st16;  7190.64  604.32 )">Rear <tspan dy="6.0" x="0 ">Combination </tspan><tspan dy="6.0" x="0 ">Light Assembly RH</tspan></text><text style="&st18;" transform="matrix(&st16;  7107.09  49.08 )">W-B</text><text style="&st18;" transform="matrix(&st16;  7077.05  465.51 )">B</text><text style="&st18;" transform="matrix(&st16;  7136.54  465.51 )">B</text><text style="&st18;" transform="matrix(&st16;  7009.06  465.51 )">B</text><text style="&st18;" transform="matrix(&st16;  7190.64  53.3 )">S12</text><path d=" M  7053.82,    49.25  L  7048.85,    44.28  " style="stroke-width: 1.42 ;&st7;  " /><path d=" M  7036.82,    56.31  L  7041.79,    61.28  " style="stroke-width: 1.42 ;&st7;  " /><path d=" M  7048.85,    61.28  L  7053.82,    56.31  " style="stroke-width: 1.42 ;&st7;  " /><path d=" M  7041.79,    44.28  L  7036.82,    49.25  " style="stroke-width: 1.42 ;&st7;  " /><text style="&st18;" transform="matrix(&st16;  7190.64  639.71 )">T1</text><text style="&st18;" transform="matrix(&st16;  7190.64  554.72 )">V2</text><text style="&st18;" transform="matrix(&st16;  7190.64  512.23 )">V1</text><path d=" M  7121.81,   508.17  L  7116.84,   503.20  " style="stroke-width: 1.42 ;&st7;  " /><path d=" M  7104.81,   515.23  L  7109.78,   520.20  " style="stroke-width: 1.42 ;&st7;  " /><path d=" M  7116.84,   520.20  L  7121.81,   515.23  " style="stroke-width: 1.42 ;&st7;  " /><path d=" M  7109.78,   503.20  L  7104.81,   508.17  " style="stroke-width: 1.42 ;&st7;  " /><path d=" M  7053.82,   507.45  L  7053.82,   511.70  " style="stroke-width: 1.42 ;&st7;  " /><text style="&st18;" transform="matrix(&st16;  7038.6  604.32 )">(*22)</text><text style="&st18;" transform="matrix(&st16;  7039.1  592.99 )">W-B</text><text style="&st18;" transform="matrix(&st16;  7190.64  597.21 )">T6</text><text style="&st18;" transform="matrix(&st16;  7190.64  469.74 )">c1</text><path d=" M  7036.82,   469.21  L  7036.82,   473.46  " style="stroke-width: 1.42 ;&st7;  " /><path d=" M  7104.81,   469.21  L  7104.81,   473.46  " style="stroke-width: 1.42 ;&st7;  " /><path d=" M  7007.80,   299.24  L  7002.83,   304.21  " style="stroke-width: 1.42 ;&st7;  " /><path d=" M  7014.86,   316.23  L  7019.83,   311.26  " style="stroke-width: 1.42 ;&st7;  " /><path d=" M  7002.83,   311.26  L  7007.80,   316.23  " style="stroke-width: 1.42 ;&st7;  " /><path d=" M  7019.83,   304.21  L  7014.86,   299.24  " style="stroke-width: 1.42 ;&st7;  " /><path d=" M  7019.83,   256.74  L  7011.33,   256.74  " style="stroke-width: 1.42 ;&st7;  " /><path d=" M  7007.80,   188.75  L  7002.83,   193.73  " style="stroke-width: 1.42 ;&st7;  " /><path d=" M  7014.86,   205.75  L  7019.83,   200.78  " style="stroke-width: 1.42 ;&st7;  " /><path d=" M  7002.83,   200.78  L  7007.80,   205.75  " style="stroke-width: 1.42 ;&st7;  " /><path d=" M  7019.83,   193.73  L  7014.86,   188.75  " style="stroke-width: 1.42 ;&st7;  " /><text style="&st18;" transform="matrix(&st16;  7073.1  508.0 )">W-B</text><text style="&st18;" transform="matrix(&st16;  7132.59  508.0 )">W-B</text><text style="&st18;" transform="matrix(&st16;  7132.59  550.5 )">W-B</text><text style="&st18;" transform="matrix(&st16;  7039.1  635.48 )">W-B</text><path d=" M  7019.83,   372.20  L  7014.86,   367.22  " style="stroke-width: 1.42 ;&st7;  " /><path d=" M  7002.83,   379.25  L  7007.80,   384.22  " style="stroke-width: 1.42 ;&st7;  " /><path d=" M  7014.86,   384.22  L  7019.83,   379.25  " style="stroke-width: 1.42 ;&st7;  " /><path d=" M  7007.80,   367.22  L  7002.83,   372.20  " style="stroke-width: 1.42 ;&st7;  " /><path d=" M  7036.82,   248.24  L  7045.32,   248.24  " style="stroke-width: 1.42 ;&st7;  " /><text style="&st18;" transform="matrix(&st17;  7041.63  177.48 )">W-B</text><text style="&st18;" transform="matrix(&st17;  7007.63  236.97 )">W-B</text><text style="&st18;" transform="matrix(&st17;  7007.63  287.96 )">W-B</text><text style="&st18;" transform="matrix(&st17;  7041.63  347.45 )">W-B</text><text style="&st18;" transform="matrix(&st17;  7007.63  347.45 )">W-B</text><text style="&st18;" transform="matrix(&st16;  7133.75  476.84 )">(*6)</text><text style="&st18;" transform="matrix(&st16;  7074.26  476.84 )">(*6)</text><text style="&st18;" transform="matrix(&st16;  7006.27  476.84 )">(*6)</text><text style="&st18;" transform="matrix(&st17;  7018.96  286.8 )">(*6)</text><text style="&st18;" transform="matrix(&st16;  7102.9  60.41 )">(*6 *23)</text><text style="&st18;" transform="matrix(&st17;  7018.96  235.8 )">(*6)</text><text style="&st18;" transform="matrix(&st17;  7052.96  176.31 )">(*6)</text><text style="&st18;" transform="matrix(&st17;  7052.96  346.29 )">(*6)</text><text style="&st18;" transform="matrix(&st17;  7018.96  346.29 )">(*6)</text><text style="&st18;" transform="matrix(&st16;  7074.26  519.33 )">(*6)</text><text style="&st18;" transform="matrix(&st16;  7133.75  519.33 )">(*6)</text><text style="&st18;" transform="matrix(&st16;  7133.75  561.83 )">(*6)</text><text style="&st18;" transform="matrix(&st16;  7038.6  646.81 )">(*23)</text><path d=" M  7164.30,    44.28  L  7164.30,    78.27  L  7249.29,    78.27  L  7249.29,    44.28  L  7164.30,    44.28  " style="stroke-width: 1.42 ;&st7;  " /><text style="&st18;" transform="matrix(&st16;  7166.04  54.75 )">(E)</text><path d=" M  7164.30,   630.68  L  7164.30,   664.67  L  7249.29,   664.67  L  7249.29,   630.68  L  7164.30,   630.68  " style="stroke-width: 1.42 ;&st7;  " /><text style="&st18;" transform="matrix(&st16;  7166.04  641.15 )">(E)</text><path d=" M  7164.30,   545.69  L  7164.30,   579.69  L  7249.29,   579.69  L  7249.29,   545.69  L  7164.30,   545.69  " style="stroke-width: 1.42 ;&st7;  " /><text style="&st18;" transform="matrix(&st16;  7166.04  556.16 )">(GND)</text><path d=" M  7164.30,   503.20  L  7164.30,   537.20  L  7249.29,   537.20  L  7249.29,   503.20  L  7164.30,   503.20  " style="stroke-width: 1.42 ;&st7;  " /><text style="&st18;" transform="matrix(&st16;  7166.04  513.67 )">(RRE)</text><path d=" M  7164.30,   460.71  L  7164.30,   494.70  L  7249.29,   494.70  L  7249.29,   460.71  L  7164.30,   460.71  " style="stroke-width: 1.42 ;&st7;  " /><text style="&st18;" transform="matrix(&st16;  7166.04  471.18 )">(RH-)</text><text style="&st18;" transform="matrix(&st16;  7166.04  598.65 )">(TE)</text><path d=" M  7164.30,   588.19  L  7164.30,   622.18  L  7249.29,   622.18  L  7249.29,   588.19  L  7164.30,   588.19  " style="stroke-width: 1.42 ;&st7;  " /><g ewd:code="TV2" ewd:figID="98" ewd:figtype="w2w"><path d=" M  7062.88,   515.95  L  7058.63,   511.70  L  7062.88,   507.45  " style="stroke-width: 1.42 ;&st7;  " /><path d=" M  7059.48,   515.95  L  7055.23,   511.70  L  7059.48,   507.45  " style="stroke-width: 1.42 ;&st7;  " /><text style="&st18;" transform="matrix(&st16;  7043.44  504.46 )">8</text></g><g ewd:code="aS2" ewd:figID="99" ewd:figtype="w2w"><text style="&st18;" transform="matrix(&st16;  7043.44  461.97 )">3</text><path d=" M  7027.76,   464.96  L  7032.01,   469.21  L  7027.76,   473.46  " style="stroke-width: 1.42 ;&st7;  " /><path d=" M  7031.16,   464.96  L  7035.40,   469.21  L  7031.16,   473.46  " style="stroke-width: 1.42 ;&st7;  " /></g><g ewd:code="TS2" ewd:figID="100" ewd:figtype="w2w"><path d=" M  7041.07,   239.18  L  7045.32,   243.43  L  7049.57,   239.18  " style="stroke-width: 1.42 ;&st7;  " /><path d=" M  7049.57,   242.58  L  7045.32,   246.83  L  7041.07,   242.58  " style="stroke-width: 1.42 ;&st7;  " /><text style="&st18;" transform="matrix(&st16;  7028.57  254.46 )">13</text></g><g ewd:code="ca4" ewd:figID="101" ewd:figtype="w2w"><text style="&st18;" transform="matrix(&st16;  7111.43  461.97 )">1</text><path d=" M  7095.74,   464.96  L  7099.99,   469.21  L  7095.74,   473.46  " style="stroke-width: 1.42 ;&st7;  " /><path d=" M  7099.14,   464.96  L  7103.39,   469.21  L  7099.14,   473.46  " style="stroke-width: 1.42 ;&st7;  "/></g><g ewd:code="25" ewd:comment="" ewd:figID="268" ewd:figtype="comment"><text ewd:textID="19" style="&st18;" transform="matrix(&st16;  7084.41  318.2 )">*25 :Back Door w/o Fuel Tank</text></g><g ewd:code="7" ewd:comment="" ewd:figID="263" ewd:figtype="comment"><text ewd:textID="5" style="&st18;" transform="matrix(&st16;  7084.41  284.21 )">* 7 :2-Door Except Pick-Up Body Type</text></g><g ewd:code="6" ewd:comment="" ewd:figID="265" ewd:figtype="comment"><text ewd:textID="4" style="&st18;" transform="matrix(&st16;  7084.41  275.71 )">* 6 :4-Door Except Pick-Up Body Type</text></g><g ewd:code="24" ewd:comment="" ewd:figID="269" ewd:figtype="comment"><text ewd:textID="18" style="&st18;" transform="matrix(&st16;  7084.41  309.7 )">*24 :Back Door w/ Fuel Tank</text></g><g ewd:code="23" ewd:comment="" ewd:figID="236" ewd:figtype="comment"><text ewd:textID="17" style="&st18;" transform="matrix(&st16;  7084.41  301.2 )">*23 :Except Australia</text></g><g ewd:code="22" ewd:comment="" ewd:figID="248" ewd:figtype="comment"><text ewd:textID="16" style="&st18;" transform="matrix(&st16;  7084.41  292.71 )">*22 :Australia</text></g></svg>
