<?xml version="1.0" encoding="utf-8"?>
<!DOCTYPE svg PUBLIC "-//W3C//DTD SVG 1.0//EN" "http://www.w3.org/TR/2001/REC-SVG-20010904/DTD/svg10.dtd"[
	<!ENTITY ns_flows "http://ns.adobe.com/Flows/1.0/">
	<!ENTITY ns_svg "http://www.w3.org/2000/svg">
	<!ENTITY ns_xlink "http://www.w3.org/1999/xlink">
	<!ENTITY st0 "font-size:7px;font-family:'MS-PGothic';adobe-font-script:japanese;">
	<!ENTITY st1 "font-size:6px;font-family:'ArialMT';">
	<!-- White fill  -->
	<!ENTITY st2 "fill:#FFFFFF;stroke:#000000; stroke-width:1.41;stroke-linecap:round;stroke-linejoin:round;">
	<!-- Yellow fill  -->
	<!ENTITY st3 "fill:#FFFFCC;stroke:#FFFFCC; stroke-width:0.1;stroke-linecap:round;stroke-linejoin:round;">
	<!-- Gray fill  -->
	<!ENTITY st4 "fill:#CCCCCC;stroke:#CCCCCC; stroke-width:0.1;stroke-linecap:round;stroke-linejoin:round;">
	<!-- Light-blue fill -->
	<!ENTITY st5 "fill:#CCECF4;stroke:#000000; stroke-width:1.133;stroke-linecap:round;stroke-linejoin:round;">
	<!ENTITY st6 "fill:none;stroke-linecap:butt; stroke-linejoin:round;">
	<!ENTITY st7 "fill:none;stroke:#000000;stroke-linecap:round;stroke-linejoin:round;">
	<!ENTITY st8 "enable-background:new    ;">
	<!-- Black fill -->
	<!ENTITY st9 "fill:#000000;stroke:#000000; stroke-linecap:round;stroke-linejoin:round;">
	<!-- SRS note   -->
	<!ENTITY st10 "font-size:9px;font-family:'ArialMT';">
	<!ENTITY st11 "font-size:9px;font-family:'Svg Symbol';">
	<!ENTITY st12 "font-size:6px;font-family:'Svg Symbol';">
	<!ENTITY st13 "fill:none;stroke:#ff0000;stroke-linecap:round;stroke-linejoin:round;">
	<!-- Yellow fill  -->
	<!ENTITY st14 "fill:#FFFF00;stroke:#FFFF00; stroke-width:0.1;stroke-linecap:round;stroke-linejoin:round;">
	<!ENTITY st15 "font-size:6px;font-family:'MS-PGothic';adobe-font-script:japanese;">
	<!ENTITY st16 "1.00 0.00 0.00 1.00">
	<!ENTITY st17 "0.00 -1.00 1.00 0.00">
	<!ENTITY st18 "font-size:6px;font-family:'Arial';">
	<!ENTITY st19 "font-size:9px;font-family:'Arial';">
	<!ENTITY st20 "font-size:6px;font-family:'MS-PGothic','MS PGothic';adobe-font-script:japanese;">
	<!ENTITY st21 "font-size:7px;font-family:'MS-PGothic','MS PGothic';adobe-font-script:japanese;">
	<!ATTLIST svg
		xmlns:ewd CDATA #FIXED "http://shcl.co.jp/ewd"
		xmlns:a CDATA #FIXED "http://ns.adobe.com/AdobeSVGViewerExtensions/3.0/"
		ewd:ver CDATA #IMPLIED
	>
	<!ATTLIST a
		ewd:lineID CDATA #IMPLIED
		ewd:groupID CDATA #IMPLIED
		ewd:figtype CDATA #IMPLIED
		ewd:code CDATA #IMPLIED
		ewd:figID CDATA #IMPLIED
		ewd:pinNo CDATA #IMPLIED
		ewd:comment CDATA #IMPLIED >
	<!ATTLIST g
		ewd:lineID CDATA #IMPLIED
		ewd:groupID CDATA #IMPLIED
		ewd:figtype CDATA #IMPLIED
		ewd:code CDATA #IMPLIED
		ewd:figID CDATA #IMPLIED
		ewd:pinNo CDATA #IMPLIED
		ewd:comment CDATA #IMPLIED >
	<!ATTLIST text
		ewd:textID CDATA #IMPLIED >
	<!ATTLIST title
		ewd:textID CDATA #IMPLIED >
]>
<!-- Generator: Shintec Hozumi YS   -->
<svg onload="call_execInitLoadProc_svg('system')" style="overflow:visible;  enable-background:new 0 0 7262.774 710.000" viewBox="0 0 7262.774 710.000" height="710.000" width="7262.774" xml:space="preserve" ewd:ver="2.3.1.16" xmlns="&ns_svg;" xmlns:a="http://ns.adobe.com/AdobeSVGViewerExtensions/3.0/" xmlns:ewd="http://shcl.co.jp/ewd" xmlns:xlink="&ns_xlink;">
<text ewd:textID="114" style="&st18;" transform="matrix(&st16;  5711.89  502.34 )">License Plate <tspan dy="6.0" x="0 ">Light Assembly LH</tspan></text><text ewd:textID="86" style="&st18;" transform="matrix(&st16;  5711.89  366.36 )">Fuel Pump (Sub)</text><text ewd:textID="63" style="&st18;" transform="matrix(&st16;  5711.89  179.39 )">Differential <tspan dy="6.0" x="0 ">Lock Shift Actuator</tspan></text><text ewd:textID="115" style="&st18;" transform="matrix(&st16;  5711.89  468.34 )">License Plate <tspan dy="6.0" x="0 ">Light Assembly RH</tspan></text><text ewd:textID="114" style="&st18;" transform="matrix(&st16;  5711.89  434.35 )">License Plate <tspan dy="6.0" x="0 ">Light Assembly LH</tspan></text><text ewd:textID="145" style="&st18;" transform="matrix(&st16;  5711.89  145.4 )">Rear Differential <tspan dy="6.0" x="0 ">Lock Position Switch</tspan></text><text ewd:textID="81" style="&st18;" transform="matrix(&st16;  5635.4  170.89 )">Front Seat <tspan dy="6.0" x="0 ">Inner Belt </tspan><tspan dy="6.0" x="0 ">Assembly RH</tspan></text><text ewd:textID="143" style="&st18;" transform="matrix(&st16;  5711.89  663.81 )">Rear Combination <tspan dy="6.0" x="0 ">Light Assembly LH</tspan></text><text ewd:textID="45" style="&st18;" transform="matrix(&st16;  5711.89  570.33 )">Back Buzzer Assembly</text><text ewd:textID="144" style="&st18;" transform="matrix(&st16;  5711.89  604.32 )">Rear Combination <tspan dy="6.0" x="0 ">Light Assembly RH</tspan></text><text ewd:textID="115" style="&st18;" transform="matrix(&st16;  5711.89  536.33 )">License Plate <tspan dy="6.0" x="0 ">Light Assembly RH</tspan></text><text ewd:textID="161" style="&st18;" transform="matrix(&st16;  5711.89  400.35 )">Trailer Socket</text><text style="&st18;" transform="matrix(&st16;  5850.46  179.39 )">(*8)</text><path d=" M  5936.98,   350.23  L  5932.01,   355.20  " style="stroke-width: 1.42 ;&st7;  " /><path d=" M  5944.03,   367.22  L  5949.01,   362.26  " style="stroke-width: 1.42 ;&st7;  " /><path d=" M  5932.01,   362.26  L  5936.98,   367.22  " style="stroke-width: 1.42 ;&st7;  " /><path d=" M  5949.01,   355.20  L  5944.03,   350.23  " style="stroke-width: 1.42 ;&st7;  " /><path d=" M  5936.98,   452.21  L  5932.01,   457.18  " style="stroke-width: 1.42 ;&st7;  " /><path d=" M  5944.03,   469.21  L  5949.01,   464.24  " style="stroke-width: 1.42 ;&st7;  " /><path d=" M  5932.01,   464.24  L  5936.98,   469.21  " style="stroke-width: 1.42 ;&st7;  " /><path d=" M  5949.01,   457.18  L  5944.03,   452.21  " style="stroke-width: 1.42 ;&st7;  " /><text style="&st18;" transform="matrix(&st16;  5711.88  359.25 )">T8</text><text style="&st18;" transform="matrix(&st16;  5711.88  393.25 )">T10</text><text style="&st18;" transform="matrix(&st16;  5711.88  427.24 )">T15</text><text style="&st18;" transform="matrix(&st16;  5711.88  461.24 )">T13</text><text style="&st18;" transform="matrix(&st16;  5711.88  495.23 )">T16</text><text style="&st18;" transform="matrix(&st16;  5711.88  529.23 )">T12</text><text style="&st18;" transform="matrix(&st16;  5711.88  597.21 )">T14</text><path d=" M  5936.98,   554.19  L  5932.01,   559.16  " style="stroke-width: 1.42 ;&st7;  " /><path d=" M  5944.03,   571.19  L  5949.01,   566.22  " style="stroke-width: 1.42 ;&st7;  " /><path d=" M  5932.01,   566.22  L  5936.98,   571.19  " style="stroke-width: 1.42 ;&st7;  " /><path d=" M  5949.01,   559.16  L  5944.03,   554.19  " style="stroke-width: 1.42 ;&st7;  " /><text style="&st18;" transform="matrix(&st16;  5711.88  563.22 )">T11</text><text style="&st18;" transform="matrix(&st16;  5711.88  656.7 )">T17</text><path d=" M  5974.50,   239.75  L  5966.00,   239.75  " style="stroke-width: 1.42 ;&st7;  " /><path d=" M  5974.50,   168.23  L  5969.53,   163.26  " style="stroke-width: 1.42 ;&st7;  " /><path d=" M  5957.50,   175.29  L  5962.47,   180.26  " style="stroke-width: 1.42 ;&st7;  " /><path d=" M  5969.53,   180.26  L  5974.50,   175.29  " style="stroke-width: 1.42 ;&st7;  " /><path d=" M  5962.47,   163.26  L  5957.50,   168.23  " style="stroke-width: 1.42 ;&st7;  " /><text style="&st18;" transform="matrix(&st16;  5711.88  138.29 )">V1</text><text style="&st18;" transform="matrix(&st16;  5711.88  172.29 )">V2</text><text style="&st18;" transform="matrix(&st16;  5849.3  652.48 )">W-B</text><text style="&st18;" transform="matrix(&st16;  5849.3  592.99 )">W-B</text><text style="&st18;" transform="matrix(&st16;  5849.3  558.99 )">W-B</text><text style="&st18;" transform="matrix(&st16;  5849.3  525.0 )">W-B</text><text style="&st18;" transform="matrix(&st16;  5849.3  491.01 )">W-B</text><text style="&st18;" transform="matrix(&st16;  5849.3  457.01 )">W-B</text><text style="&st18;" transform="matrix(&st16;  5849.3  423.02 )">W-B</text><text style="&st18;" transform="matrix(&st16;  5849.3  389.02 )">W-B</text><text style="&st18;" transform="matrix(&st16;  5849.3  355.03 )">W-B</text><text style="&st18;" transform="matrix(&st16;  5849.3  168.06 )">W-B</text><text style="&st18;" transform="matrix(&st16;  5849.3  134.07 )">W-B</text><text style="&st18;" transform="matrix(&st17;  5962.31  270.96 )">W-B</text><text style="&st18;" transform="matrix(&st17;  5962.31  211.47 )">W-B</text><text style="&st18;" transform="matrix(&st17;  5936.81  627.9 )">W-B</text><text style="&st18;" transform="matrix(&st17;  5936.81  517.42 )">W-B</text><text style="&st18;" transform="matrix(&st17;  5936.81  423.94 )">W-B</text><text style="&st18;" transform="matrix(&st16;  5547.66  170.89 )">(*9 *23)</text><text style="&st18;" transform="matrix(&st16;  5635.4  163.79 )">S12</text><text style="&st18;" transform="matrix(&st16;  5551.85  159.56 )">W-B</text><text style="&st18;" transform="matrix(&st16;  5670.83  66.08 )">W-B</text><text style="&st18;" transform="matrix(&st16;  5670.83  40.58 )">W-B</text><text style="&st18;" transform="matrix(&st16;  5670.83  15.09 )">W-B</text><text style="&st18;" transform="matrix(&st16;  5721.82  15.09 )">W-B</text><text style="&st18;" transform="matrix(&st16;  5721.82  40.58 )">W-B</text><text style="&st18;" transform="matrix(&st16;  5721.82  66.08 )">W-B</text><text style="&st18;" transform="matrix(&st16;  5671.99  26.42 )">(*6)</text><text style="&st18;" transform="matrix(&st16;  5722.99  26.42 )">(*6)</text><text style="&st18;" transform="matrix(&st16;  5722.99  51.91 )">(*7)</text><text style="&st18;" transform="matrix(&st16;  5671.99  51.91 )">(*7)</text><text style="&st18;" transform="matrix(&st16;  5722.99  77.41 )">(*8)</text><text style="&st18;" transform="matrix(&st16;  5671.99  77.41 )">(*8)</text><text style="&st18;" transform="matrix(&st17;  5973.64  269.8 )">(*8)</text><text style="&st18;" transform="matrix(&st17;  5973.64  210.31 )">(*8)</text><text style="&st18;" transform="matrix(&st16;  5850.46  145.4 )">(*8)</text><text style="&st18;" transform="matrix(&st16;  5850.46  366.36 )">(*8)</text><text style="&st18;" transform="matrix(&st16;  5850.46  400.35 )">(*8)</text><text style="&st18;" transform="matrix(&st16;  5850.46  434.35 )">(*8)</text><text style="&st18;" transform="matrix(&st16;  5850.46  468.34 )">(*8)</text><text style="&st18;" transform="matrix(&st16;  5850.46  502.34 )">(*8)</text><text style="&st18;" transform="matrix(&st16;  5850.46  536.33 )">(*8)</text><text style="&st18;" transform="matrix(&st16;  5845.11  570.33 )">(*8 *36)</text><text style="&st18;" transform="matrix(&st16;  5850.46  604.32 )">(*8)</text><text style="&st18;" transform="matrix(&st17;  5948.14  422.77 )">(*8)</text><text style="&st18;" transform="matrix(&st17;  5948.14  516.26 )">(*8)</text><text style="&st18;" transform="matrix(&st17;  5948.14  626.74 )">(*8)</text><text style="&st18;" transform="matrix(&st16;  5850.46  663.81 )">(*8)</text><text ewd:textID="81" style="&st18;" transform="matrix(&st16;  5635.4  128.4 )">Front Seat <tspan dy="6.0" x="0 ">Inner Belt </tspan><tspan dy="6.0" x="0 ">Assembly RH</tspan></text><text style="&st18;" transform="matrix(&st16;  5547.66  128.4 )">(*9 *22)</text><text style="&st18;" transform="matrix(&st16;  5635.4  121.29 )">S19</text><text style="&st18;" transform="matrix(&st16;  5551.85  117.07 )">W-B</text><text ewd:textID="146" style="&st18;" transform="matrix(&st16;  5711.89  332.37 )">Rear Fog Light <tspan dy="6.0" x="0 ">Socket &amp; Wire</tspan></text><text style="&st18;" transform="matrix(&st16;  5711.88  325.26 )">T18</text><text style="&st18;" transform="matrix(&st16;  5849.3  321.03 )">W-B</text><text style="&st18;" transform="matrix(&st16;  5850.46  332.37 )">(*8)</text><text style="&st18;" transform="matrix(&st16;  5785.81  360.69 )">(E)</text><path d=" M  5711.04,   350.23  L  5711.04,   375.72  L  5796.03,   375.72  L  5796.03,   350.23  L  5711.04,   350.23  " style="stroke-width: 1.42 ;&st7;  " /><text style="&st18;" transform="matrix(&st16;  5776.51  394.69 )">(GND)</text><path d=" M  5711.04,   384.22  L  5711.04,   409.72  L  5796.03,   409.72  L  5796.03,   384.22  L  5711.04,   384.22  " style="stroke-width: 1.42 ;&st7;  " /><text style="&st18;" transform="matrix(&st16;  5785.81  428.68 )">(E)</text><path d=" M  5711.04,   418.22  L  5711.04,   443.71  L  5796.03,   443.71  L  5796.03,   418.22  L  5711.04,   418.22  " style="stroke-width: 1.42 ;&st7;  " /><text style="&st18;" transform="matrix(&st16;  5785.81  462.68 )">(E)</text><path d=" M  5711.04,   452.21  L  5711.04,   477.71  L  5796.03,   477.71  L  5796.03,   452.21  L  5711.04,   452.21  " style="stroke-width: 1.42 ;&st7;  " /><text style="&st18;" transform="matrix(&st16;  5785.81  496.67 )">(E)</text><path d=" M  5711.04,   486.20  L  5711.04,   511.70  L  5796.03,   511.70  L  5796.03,   486.20  L  5711.04,   486.20  " style="stroke-width: 1.42 ;&st7;  " /><text style="&st18;" transform="matrix(&st16;  5785.81  530.67 )">(E)</text><path d=" M  5711.04,   520.20  L  5711.04,   545.69  L  5796.03,   545.69  L  5796.03,   520.20  L  5711.04,   520.20  " style="stroke-width: 1.42 ;&st7;  " /><text style="&st18;" transform="matrix(&st16;  5785.81  598.65 )">(E)</text><path d=" M  5711.04,   588.19  L  5711.04,   613.68  L  5796.03,   613.68  L  5796.03,   588.19  L  5711.04,   588.19  " style="stroke-width: 1.42 ;&st7;  " /><text style="&st18;" transform="matrix(&st16;  5775.89  564.66 )">(BZR-)</text><path d=" M  5711.04,   554.19  L  5711.04,   579.69  L  5796.03,   579.69  L  5796.03,   554.19  L  5711.04,   554.19  " style="stroke-width: 1.42 ;&st7;  " /><text style="&st18;" transform="matrix(&st16;  5785.81  658.14 )">(E)</text><path d=" M  5711.04,   647.68  L  5711.04,   673.17  L  5796.03,   673.17  L  5796.03,   647.68  L  5711.04,   647.68  " style="stroke-width: 1.42 ;&st7;  " /><path d=" M  5711.04,   129.26  L  5711.04,   154.76  L  5796.03,   154.76  L  5796.03,   129.26  L  5711.04,   129.26  " style="stroke-width: 1.42 ;&st7;  " /><text style="&st18;" transform="matrix(&st16;  5777.13  139.73 )">(RRE)</text><path d=" M  5711.04,   163.26  L  5711.04,   188.75  L  5796.03,   188.75  L  5796.03,   163.26  L  5711.04,   163.26  " style="stroke-width: 1.42 ;&st7;  " /><text style="&st18;" transform="matrix(&st16;  5776.51  173.73 )">(GND)</text><text style="&st18;" transform="matrix(&st16;  5610.8  165.23 )">(E)</text><path d=" M  5609.06,   154.76  L  5609.06,   188.75  L  5694.05,   188.75  L  5694.05,   154.76  L  5609.06,   154.76  " style="stroke-width: 1.42 ;&st7;  " /><text style="&st18;" transform="matrix(&st16;  5610.8  122.73 )">(E)</text><path d=" M  5609.06,   112.27  L  5609.06,   146.26  L  5694.05,   146.26  L  5694.05,   112.27  L  5609.06,   112.27  " style="stroke-width: 1.42 ;&st7;  " /><text style="&st18;" transform="matrix(&st16;  5785.81  326.7 )">(E)</text><path d=" M  5711.04,   316.23  L  5711.04,   341.73  L  5796.03,   341.73  L  5796.03,   316.23  L  5711.04,   316.23  " style="stroke-width: 1.42 ;&st7;  " /><g ewd:code="VT1" ewd:figID="81" ewd:figtype="w2w"><path d=" M  5970.25,   248.81  L  5966.00,   244.56  L  5961.75,   248.81  " style="stroke-width: 1.42 ;&st7;  " /><path d=" M  5970.25,   245.41  L  5966.00,   241.16  L  5961.75,   245.41  " style="stroke-width: 1.42 ;&st7;  " /><text style="&st18;" transform="matrix(&st16;  5952.59  237.47 )">8</text></g><g ewd:code="ST2" ewd:figID="82" ewd:figtype="w2w"><path d=" M  6012.74,   248.81  L  6008.49,   244.56  L  6004.24,   248.81  " style="stroke-width: 1.42 ;&st7;  " /><path d=" M  6012.74,   245.41  L  6008.49,   241.16  L  6004.24,   245.41  " style="stroke-width: 1.42 ;&st7;  " /><text style="&st18;" transform="matrix(&st16;  5995.08  237.47 )">9</text></g><g ewd:code="TC" ewd:figID="124" ewd:figtype="gp"><path d=" M  5939.09,   710.00  L  5941.92,   710.00  " style="stroke-width: 0.85 ;&st7;  " /><path d=" M  5937.67,   707.17  L  5943.34,   707.17  " style="stroke-width: 0.85 ;&st7;  " /><path d=" M  5936.26,   704.33  L  5944.75,   704.33  " style="stroke-width: 0.85 ;&st7;  " /><path d=" M  5932.01,   701.50  L  5949.00,   701.50  " style="stroke-width: 0.85 ;&st7;  " /><path d=" M  5940.50,   697.25  L  5940.50,   701.50  " style="stroke-width: 0.85 ;&st7;  " /></g><g ewd:code="TB" ewd:figID="125" ewd:figtype="gp"><path d=" M  6007.08,   336.06  L  6009.91,   336.06  " style="stroke-width: 0.85 ;&st7;  " /><path d=" M  6005.66,   333.23  L  6011.33,   333.23  " style="stroke-width: 0.85 ;&st7;  " /><path d=" M  6004.24,   330.40  L  6012.74,   330.40  " style="stroke-width: 0.85 ;&st7;  " /><path d=" M  5999.99,   327.56  L  6016.99,   327.56  " style="stroke-width: 0.85 ;&st7;  " /><path d=" M  6008.49,   323.31  L  6008.49,   327.56  " style="stroke-width: 0.85 ;&st7;  "/></g><g ewd:code="22" ewd:comment="" ewd:figID="238" ewd:figtype="comment"><text ewd:textID="16" style="&st18;" transform="matrix(&st16;  5503.67  573.16 )">*22 :Australia</text></g><g ewd:code="6" ewd:comment="" ewd:figID="237" ewd:figtype="comment"><text ewd:textID="4" style="&st18;" transform="matrix(&st16;  5503.67  539.16 )">* 6 :4-Door Except Pick-Up Body Type</text></g><g ewd:code="9" ewd:comment="" ewd:figID="241" ewd:figtype="comment"><text ewd:textID="7" style="&st18;" transform="matrix(&st16;  5503.67  564.66 )">* 9 :2-Door Pick-Up Body Type</text></g><g ewd:code="7" ewd:comment="" ewd:figID="240" ewd:figtype="comment"><text ewd:textID="5" style="&st18;" transform="matrix(&st16;  5503.67  547.66 )">* 7 :2-Door Except Pick-Up Body Type</text></g><g ewd:code="8" ewd:comment="" ewd:figID="239" ewd:figtype="comment"><text ewd:textID="6" style="&st18;" transform="matrix(&st16;  5503.67  556.16 )">* 8 :4-Door Pick-Up Body Type</text></g><g ewd:code="36" ewd:comment="" ewd:figID="298" ewd:figtype="comment"><text ewd:textID="26" style="&st18;" transform="matrix(&st16;  5503.67  590.16 )">*36 :w/ Back Buzzer</text></g><g ewd:code="23" ewd:comment="" ewd:figID="291" ewd:figtype="comment"><text ewd:textID="17" style="&st18;" transform="matrix(&st16;  5503.67  581.66 )">*23 :Except Australia</text></g></svg>
