<?xml version="1.0" encoding="utf-8"?>
<!DOCTYPE svg PUBLIC "-//W3C//DTD SVG 1.0//EN" "http://www.w3.org/TR/2001/REC-SVG-20010904/DTD/svg10.dtd"[
	<!ENTITY ns_flows "http://ns.adobe.com/Flows/1.0/">
	<!ENTITY ns_svg "http://www.w3.org/2000/svg">
	<!ENTITY ns_xlink "http://www.w3.org/1999/xlink">
	<!ENTITY st0 "font-size:7px;font-family:'MS-PGothic';adobe-font-script:japanese;">
	<!ENTITY st1 "font-size:6px;font-family:'ArialMT';">
	<!-- White fill  -->
	<!ENTITY st2 "fill:#FFFFFF;stroke:#000000; stroke-width:1.41;stroke-linecap:round;stroke-linejoin:round;">
	<!-- Yellow fill  -->
	<!ENTITY st3 "fill:#FFFFCC;stroke:#FFFFCC; stroke-width:0.1;stroke-linecap:round;stroke-linejoin:round;">
	<!-- Gray fill  -->
	<!ENTITY st4 "fill:#CCCCCC;stroke:#CCCCCC; stroke-width:0.1;stroke-linecap:round;stroke-linejoin:round;">
	<!-- Light-blue fill -->
	<!ENTITY st5 "fill:#CCECF4;stroke:#000000; stroke-width:1.133;stroke-linecap:round;stroke-linejoin:round;">
	<!ENTITY st6 "fill:none;stroke-linecap:butt; stroke-linejoin:round;">
	<!ENTITY st7 "fill:none;stroke:#000000;stroke-linecap:round;stroke-linejoin:round;">
	<!ENTITY st8 "enable-background:new    ;">
	<!-- Black fill -->
	<!ENTITY st9 "fill:#000000;stroke:#000000; stroke-linecap:round;stroke-linejoin:round;">
	<!-- SRS note   -->
	<!ENTITY st10 "font-size:9px;font-family:'ArialMT';">
	<!ENTITY st11 "font-size:9px;font-family:'Svg Symbol';">
	<!ENTITY st12 "font-size:6px;font-family:'Svg Symbol';">
	<!ENTITY st13 "fill:none;stroke:#ff0000;stroke-linecap:round;stroke-linejoin:round;">
	<!-- Yellow fill  -->
	<!ENTITY st14 "fill:#FFFF00;stroke:#FFFF00; stroke-width:0.1;stroke-linecap:round;stroke-linejoin:round;">
	<!ENTITY st15 "font-size:6px;font-family:'MS-PGothic';adobe-font-script:japanese;">
	<!ENTITY st16 "1.00 0.00 0.00 1.00">
	<!ENTITY st17 "0.00 -1.00 1.00 0.00">
	<!ENTITY st18 "font-size:6px;font-family:'Arial';">
	<!ENTITY st19 "font-size:9px;font-family:'Arial';">
	<!ENTITY st20 "font-size:6px;font-family:'MS-PGothic','MS PGothic';adobe-font-script:japanese;">
	<!ENTITY st21 "font-size:7px;font-family:'MS-PGothic','MS PGothic';adobe-font-script:japanese;">
	<!ATTLIST svg
		xmlns:ewd CDATA #FIXED "http://shcl.co.jp/ewd"
		xmlns:a CDATA #FIXED "http://ns.adobe.com/AdobeSVGViewerExtensions/3.0/"
		ewd:ver CDATA #IMPLIED
	>
	<!ATTLIST a
		ewd:lineID CDATA #IMPLIED
		ewd:groupID CDATA #IMPLIED
		ewd:figtype CDATA #IMPLIED
		ewd:code CDATA #IMPLIED
		ewd:figID CDATA #IMPLIED
		ewd:pinNo CDATA #IMPLIED
		ewd:comment CDATA #IMPLIED >
	<!ATTLIST g
		ewd:lineID CDATA #IMPLIED
		ewd:groupID CDATA #IMPLIED
		ewd:figtype CDATA #IMPLIED
		ewd:code CDATA #IMPLIED
		ewd:figID CDATA #IMPLIED
		ewd:pinNo CDATA #IMPLIED
		ewd:comment CDATA #IMPLIED >
	<!ATTLIST text
		ewd:textID CDATA #IMPLIED >
	<!ATTLIST title
		ewd:textID CDATA #IMPLIED >
]>
<!-- Generator: Shintec Hozumi YS   -->
<svg onload="call_execInitLoadProc_svg('system')" style="overflow:visible;  enable-background:new 0 0 7262.774 710.000" viewBox="0 0 7262.774 710.000" height="710.000" width="7262.774" xml:space="preserve" ewd:ver="2.3.1.16" xmlns="&ns_svg;" xmlns:a="http://ns.adobe.com/AdobeSVGViewerExtensions/3.0/" xmlns:ewd="http://shcl.co.jp/ewd" xmlns:xlink="&ns_xlink;">
<text style="&st18;" transform="matrix(&st16;  2006.5  53.3 )">L10</text><text style="&st18;" transform="matrix(&st16;  2006.5  87.3 )">L19</text><text style="&st18;" transform="matrix(&st16;  2006.5  146.79 )">L11</text><text style="&st18;" transform="matrix(&st16;  2006.5  180.78 )">L12</text><text style="&st18;" transform="matrix(&st16;  2006.5  214.78 )">L31</text><text style="&st18;" transform="matrix(&st16;  2006.5  333.76 )">L47</text><text style="&st18;" transform="matrix(&st16;  2006.5  384.75 )">L24</text><text style="&st18;" transform="matrix(&st16;  2006.5  520.73 )">L48</text><text style="&st18;" transform="matrix(&st16;  2006.5  588.72 )">L49</text><text ewd:textID="138" style="&st18;" transform="matrix(&st16;  2006.51  306.87 )">Outer Mirror <tspan dy="6.0" x="0 ">Switch Assembly</tspan></text><text style="&st18;" transform="matrix(&st16;  2006.5  299.76 )">L16</text><text style="&st18;" transform="matrix(&st16;  2082.99  588.72 )">A3</text><text style="&st18;" transform="matrix(&st16;  2082.99  554.72 )">A1</text><text style="&st18;" transform="matrix(&st16;  2082.99  520.73 )">A16</text><text ewd:textID="84" style="&st18;" transform="matrix(&st16;  2083.0  527.83 )">Fuel Heater</text><text style="&st18;" transform="matrix(&st16;  2364.88  584.49 )">W-B</text><path d=" M  2260.62,   108.02  L  2260.62,   112.27  " style="stroke-width: 1.42 ;&st7;  " /><path d=" M  2422.10,   205.75  L  2430.59,   205.75  " style="stroke-width: 1.42 ;&st7;  " /><path d=" M  2439.09,   154.76  L  2430.59,   154.76  " style="stroke-width: 1.42 ;&st7;  " /><path d=" M  2243.63,    27.28  L  2243.63,    31.53  " style="stroke-width: 1.42 ;&st7;  " /><text style="&st18;" transform="matrix(&st16;  2082.99  146.79 )">A11</text><text style="&st18;" transform="matrix(&st16;  2082.99  112.8 )">m3</text><text style="&st18;" transform="matrix(&st16;  2082.99  78.8 )">A39</text><text style="&st18;" transform="matrix(&st16;  2082.99  27.81 )">C99</text><text style="&st18;" transform="matrix(&st16;  2194.91  23.58 )">W-B</text><text style="&st18;" transform="matrix(&st16;  2237.4  74.58 )">W-B</text><text style="&st18;" transform="matrix(&st16;  2194.91  108.57 )">W-B</text><text style="&st18;" transform="matrix(&st16;  2237.4  142.56 )">W-B</text><text style="&st18;" transform="matrix(&st16;  2230.93  414.52 )">W-B(*11)</text><text style="&st18;" transform="matrix(&st16;  2296.89  108.57 )">W-B</text><text style="&st18;" transform="matrix(&st16;  2296.89  23.58 )">W-B</text><text style="&st18;" transform="matrix(&st16;  2237.4  261.54 )">W-B</text><text style="&st18;" transform="matrix(&st16;  2230.93  346.53 )">W-B(*11)</text><text style="&st18;" transform="matrix(&st16;  2237.4  448.51 )">W-B</text><text style="&st18;" transform="matrix(&st16;  2237.4  516.5 )">W-B</text><text style="&st18;" transform="matrix(&st16;  2237.4  550.5 )">W-B</text><text style="&st18;" transform="matrix(&st16;  2237.4  584.49 )">W-B</text><text style="&st18;" transform="matrix(&st16;  2398.88  227.55 )">W-B</text><text style="&st18;" transform="matrix(&st16;  2398.88  287.04 )">W-B</text><text style="&st18;" transform="matrix(&st16;  2466.87  49.08 )">W-B</text><path d=" M  2447.59,   579.69  L  2456.09,   579.69  " style="stroke-width: 1.42 ;&st7;  " /><text style="&st18;" transform="matrix(&st16;  2082.99  418.74 )">A38</text><text style="&st18;" transform="matrix(&st17;  2426.9  185.98 )">W-B</text><text style="&st18;" transform="matrix(&st17;  2426.9  619.4 )">W-B</text><text style="&st18;" transform="matrix(&st17;  2438.23  186.48 )">(*10)</text><text style="&st18;" transform="matrix(&st16;  2082.99  656.7 )">M1</text><text ewd:textID="95" style="&st18;" transform="matrix(&st16;  2083.0  663.81 )">Hazard Warning Signal <tspan dy="6.0" x="0 ">Switch Assembly</tspan></text><text style="&st18;" transform="matrix(&st16;  2194.91  618.48 )">W-B</text><text style="&st18;" transform="matrix(&st16;  2347.89  618.48 )">W-B</text><path d=" M  2439.09,   100.24  L  2434.12,    95.27  " style="stroke-width: 1.42 ;&st7;  " /><path d=" M  2422.10,   107.30  L  2427.06,   112.27  " style="stroke-width: 1.42 ;&st7;  " /><path d=" M  2434.12,   112.27  L  2439.09,   107.30  " style="stroke-width: 1.42 ;&st7;  " /><path d=" M  2427.07,    95.27  L  2422.10,   100.24  " style="stroke-width: 1.42 ;&st7;  " /><text style="&st18;" transform="matrix(&st16;  2426.4  244.55 )">W-B(*11)</text><text style="&st18;" transform="matrix(&st16;  2426.4  261.54 )">W-B(*10)</text><text style="&st18;" transform="matrix(&st16;  2237.4  482.51 )">W-B</text><path d=" M  2447.59,   511.70  L  2456.09,   511.70  " style="stroke-width: 1.42 ;&st7;  " /><text style="&st18;" transform="matrix(&st16;  2230.93  431.52 )">W-B(*10)</text><text style="&st18;" transform="matrix(&st17;  2452.39  479.47 )">V</text><text style="&st18;" transform="matrix(&st17;  2452.39  547.46 )">V</text><text style="&st18;" transform="matrix(&st17;  2452.39  619.4 )">W-B</text><text ewd:textID="171" style="&st18;" transform="matrix(&st16;  2083.0  85.91 )">Windshield Wiper <tspan dy="6.0" x="0 ">Motor Assembly</tspan></text><text ewd:textID="166" style="&st18;" transform="matrix(&st16;  2006.51  595.82 )">VSC Off Switch</text><text style="&st18;" transform="matrix(&st16;  2466.87  100.07 )">W-B</text><text style="&st18;" transform="matrix(&st17;  2426.9  134.99 )">W-B</text><text ewd:textID="160" style="&st18;" transform="matrix(&st16;  2006.51  340.86 )">Steering Sensor <tspan dy="6.0" x="0 ">(Spiral Cable </tspan><tspan dy="6.0" x="0 ">with Sensor </tspan><tspan dy="6.0" x="0 ">Sub-Assembly)</tspan></text><text ewd:textID="98" style="&st18;" transform="matrix(&st16;  2006.51  391.86 )">Headlight Dimmer <tspan dy="6.0" x="0 ">Switch Assembly</tspan></text><text ewd:textID="156" style="&st18;" transform="matrix(&st16;  2083.0  153.9 )">Side Turn Signal <tspan dy="6.0" x="0 ">Light Assembly LH</tspan></text><text ewd:textID="96" style="&st18;" transform="matrix(&st16;  2083.0  561.83 )">Headlight Assembly LH</text><text ewd:textID="96" style="&st18;" transform="matrix(&st16;  2083.0  425.85 )">Headlight Assembly LH</text><text ewd:textID="96" style="&st18;" transform="matrix(&st16;  2083.0  595.82 )">Headlight Assembly LH</text><text ewd:textID="44" style="&st18;" transform="matrix(&st16;  2006.51  60.41 )">Ashtray <tspan dy="6.0" x="0 ">Receptacle Light</tspan></text><text ewd:textID="57" style="&st18;" transform="matrix(&st16;  2006.51  663.81 )">Combination <tspan dy="6.0" x="0 ">Switch Assembly</tspan></text><text ewd:textID="53" style="&st18;" transform="matrix(&st16;  2006.51  153.9 )">Cigarette <tspan dy="6.0" x="0 ">Lighter Assembly</tspan></text><text ewd:textID="53" style="&st18;" transform="matrix(&st16;  2006.51  187.89 )">Cigarette <tspan dy="6.0" x="0 ">Lighter Assembly</tspan></text><text ewd:textID="64" style="&st18;" transform="matrix(&st16;  2006.51  221.88 )">Door Control <tspan dy="6.0" x="0 ">ECU with </tspan><tspan dy="6.0" x="0 ">Receiver </tspan><tspan dy="6.0" x="0 ">Assembly</tspan></text><text ewd:textID="60" style="&st18;" transform="matrix(&st16;  2006.51  527.83 )">DPF Switch <tspan dy="6.0" x="0 ">Assembly (DPR </tspan><tspan dy="6.0" x="0 ">Switch Assembly)</tspan></text><text ewd:textID="124" style="&st18;" transform="matrix(&st16;  2083.0  119.9 )">No. 1 Magnet <tspan dy="6.0" x="0 ">Switch Assembly</tspan></text><text style="&st18;" transform="matrix(&st16;  2238.57  85.91 )">(*2)</text><text style="&st18;" transform="matrix(&st16;  2196.07  34.92 )">(*2)</text><text style="&st18;" transform="matrix(&st16;  2298.06  34.92 )">(*2)</text><text style="&st18;" transform="matrix(&st16;  2398.37  238.88 )">(*10)</text><text style="&st18;" transform="matrix(&st16;  2196.07  119.9 )">(*2)</text><text style="&st18;" transform="matrix(&st16;  2298.06  119.9 )">(*2)</text><text style="&st18;" transform="matrix(&st16;  2238.57  153.9 )">(*2)</text><text style="&st18;" transform="matrix(&st16;  2364.38  595.82 )">(*11)</text><text style="&st18;" transform="matrix(&st16;  2230.93  380.52 )">W-B(*10)</text><text style="&st18;" transform="matrix(&st16;  2236.9  493.84 )">(*11)</text><text style="&st18;" transform="matrix(&st16;  2236.9  527.83 )">(*10)</text><text style="&st18;" transform="matrix(&st16;  2196.07  629.82 )">(*2)</text><text style="&st18;" transform="matrix(&st16;  2349.05  629.82 )">(*2)</text><text style="&st18;" transform="matrix(&st17;  2463.73  618.24 )">(*2)</text><text style="&st18;" transform="matrix(&st17;  2463.73  550.25 )">(*2)</text><text style="&st18;" transform="matrix(&st17;  2463.73  482.26 )">(*2)</text><text style="&st18;" transform="matrix(&st16;  2466.36  60.41 )">(*10)</text><text style="&st18;" transform="matrix(&st16;  2466.36  111.4 )">(*10)</text><text style="&st18;" transform="matrix(&st17;  2438.23  135.49 )">(*10)</text><text style="&st18;" transform="matrix(&st17;  2392.9  619.4 )">W-B</text><text style="&st18;" transform="matrix(&st17;  2404.24  619.91 )">(*10)</text><text style="&st18;" transform="matrix(&st16;  2238.57  272.88 )">(*2)</text><text style="&st18;" transform="matrix(&st16;  2236.9  459.84 )">(*11)</text><text style="&st18;" transform="matrix(&st16;  2238.57  561.83 )">(*2)</text><text style="&st18;" transform="matrix(&st16;  2238.57  595.82 )">(*2)</text><text style="&st18;" transform="matrix(&st16;  2458.37  397.52 )">W-B</text><text style="&st18;" transform="matrix(&st16;  2457.86  408.85 )">(*10)</text><text style="&st18;" transform="matrix(&st16;  2400.04  298.37 )">(*2)</text><text style="&st18;" transform="matrix(&st17;  2438.23  618.24 )">(*2)</text><text style="&st18;" transform="matrix(&st16;  2006.5  265.77 )">L17</text><text ewd:textID="163" style="&st18;" transform="matrix(&st16;  2006.51  272.88 )">Transmission <tspan dy="6.0" x="0 ">Control Switch</tspan></text><text style="&st18;" transform="matrix(&st16;  2006.5  452.74 )">L22</text><text style="&st18;" transform="matrix(&st16;  2006.5  486.73 )">L20</text><text ewd:textID="165" style="&st18;" transform="matrix(&st16;  2006.51  493.84 )">Un-Lock Warning <tspan dy="6.0" x="0 ">Switch Assembly</tspan></text><text ewd:textID="172" style="&st18;" transform="matrix(&st16;  2006.51  459.84 )">Windshield Wiper <tspan dy="6.0" x="0 ">Switch Assembly</tspan></text><text style="&st18;" transform="matrix(&st16;  2033.44  686.47 )">W-B</text><text style="&st18;" transform="matrix(&st16;  2027.62  697.8 )">(*10 *12)</text><text style="&st18;" transform="matrix(&st16;  2006.5  19.31 )">S28</text><text ewd:textID="80" style="&st18;" transform="matrix(&st16;  2006.51  26.42 )">Front Seat Inner <tspan dy="6.0" x="0 ">Belt Assembly LH</tspan></text><text ewd:textID="162" style="&st18;" transform="matrix(&st16;  2083.0  34.92 )">Transfer L4 <tspan dy="6.0" x="0 ">Position Switch </tspan><tspan dy="6.0" x="0 ">(No. 1 Transfer </tspan><tspan dy="6.0" x="0 ">Indicator Switch)</tspan></text><text style="&st18;" transform="matrix(&st16;  2006.5  656.7 )">L60</text><text ewd:textID="54" style="&st18;" transform="matrix(&st16;  2006.51  94.41 )">Cigarette Lighter <tspan dy="6.0" x="0 ">Illumination </tspan><tspan dy="6.0" x="0 ">(Cigarette </tspan><tspan dy="6.0" x="0 ">Lighter </tspan><tspan dy="6.0" x="0 ">Bezel Stay)</tspan></text><text style="&st18;" transform="matrix(&st16;  2082.99  622.71 )">A20</text><text ewd:textID="48" style="&st18;" transform="matrix(&st16;  2083.0  629.82 )">Brake Actuator <tspan dy="6.0" x="0 ">Assembly</tspan></text><path d=" M  2226.63,   656.18  L  2226.63,   660.42  " style="stroke-width: 1.42 ;&st7;  " /><text style="&st18;" transform="matrix(&st16;  2186.41  652.48 )">W-B</text><text style="&st18;" transform="matrix(&st16;  2180.6  663.81 )">(*10 *12)</text><text style="&st18;" transform="matrix(&st16;  2095.61  697.8 )">(*10 *12)</text><text style="&st18;" transform="matrix(&st16;  2101.43  686.47 )">W-B</text><text style="&st18;" transform="matrix(&st16;  2156.92  590.16 )">(E)</text><path d=" M  2082.15,   579.69  L  2082.15,   605.18  L  2167.14,   605.18  L  2167.14,   579.69  L  2082.15,   579.69  " style="stroke-width: 1.42 ;&st7;  " /><text style="&st18;" transform="matrix(&st16;  2156.92  556.16 )">(B)</text><path d=" M  2082.15,   545.69  L  2082.15,   571.19  L  2167.14,   571.19  L  2167.14,   545.69  L  2082.15,   545.69  " style="stroke-width: 1.42 ;&st7;  " /><text style="&st18;" transform="matrix(&st16;  2154.67  522.17 )">(H-)</text><path d=" M  2082.15,   511.70  L  2082.15,   537.20  L  2167.14,   537.20  L  2167.14,   511.70  L  2082.15,   511.70  " style="stroke-width: 1.42 ;&st7;  " /><text style="&st18;" transform="matrix(&st16;  2156.92  148.23 )">(E)</text><path d=" M  2082.15,   137.76  L  2082.15,   163.26  L  2167.14,   163.26  L  2167.14,   137.76  L  2082.15,   137.76  " style="stroke-width: 1.42 ;&st7;  " /><text style="&st18;" transform="matrix(&st16;  2156.92  114.24 )">(E)</text><path d=" M  2082.15,   103.77  L  2082.15,   129.26  L  2167.14,   129.26  L  2167.14,   103.77  L  2082.15,   103.77  " style="stroke-width: 1.42 ;&st7;  " /><path d=" M  2498.58,    44.28  L  2498.58,    86.77  L  2583.57,    86.77  L  2583.57,    44.28  L  2498.58,    44.28  " style="stroke-width: 1.42 ;&st7;  " /><text style="&st18;" transform="matrix(&st16;  2156.92  80.24 )">(E)</text><path d=" M  2082.15,    69.77  L  2082.15,    95.27  L  2167.14,    95.27  L  2167.14,    69.77  L  2082.15,    69.77  " style="stroke-width: 1.42 ;&st7;  " /><text style="&st18;" transform="matrix(&st16;  2154.36  29.25 )">(L4)</text><path d=" M  2082.15,    18.78  L  2082.15,    61.28  L  2167.14,    61.28  L  2167.14,    18.78  L  2082.15,    18.78  " style="stroke-width: 1.42 ;&st7;  " /><text style="&st18;" transform="matrix(&st16;  2156.92  420.18 )">(E)</text><path d=" M  2082.15,   409.72  L  2082.15,   435.21  L  2167.14,   435.21  L  2167.14,   409.72  L  2082.15,   409.72  " style="stroke-width: 1.42 ;&st7;  " /><path d=" M  2082.15,   647.68  L  2082.15,   673.17  L  2167.14,   673.17  L  2167.14,   647.68  L  2082.15,   647.68  " style="stroke-width: 1.42 ;&st7;  " /><text style="&st18;" transform="matrix(&st16;  2156.92  658.14 )">(E)</text><path d=" M  2498.58,    95.27  L  2498.58,   129.26  L  2583.57,   129.26  L  2583.57,    95.27  L  2498.58,    95.27  " style="stroke-width: 1.42 ;&st7;  " /><path d=" M  2498.58,   239.75  L  2498.58,   265.24  L  2583.57,   265.24  L  2583.57,   239.75  L  2498.58,   239.75  " style="stroke-width: 1.42 ;&st7;  " /><path d=" M  2498.58,   443.71  L  2498.58,   469.21  L  2583.57,   469.21  L  2583.57,   443.71  L  2498.58,   443.71  " style="stroke-width: 1.42 ;&st7;  " /><path d=" M  2498.58,   392.72  L  2498.58,   435.21  L  2583.57,   435.21  L  2583.57,   392.72  L  2498.58,   392.72  " style="stroke-width: 1.42 ;&st7;  " /><path d=" M  2082.15,   613.68  L  2082.15,   639.18  L  2167.14,   639.18  L  2167.14,   613.68  L  2082.15,   613.68  " style="stroke-width: 1.42 ;&st7;  " /><text style="&st18;" transform="matrix(&st16;  2144.28  624.15 )">(GND2)</text><g ewd:code="A22" ewd:figID="3" ewd:figtype="conn"><g ewd:lineID="145,157"><text style="&st18;" transform="matrix(&st16;  2305.2  479.67 )">6</text><path d=" M  2311.61,   486.20  C  2311.61    483.70   2309.58    481.67   2307.08    481.67  " style="stroke-width: 1.42 ;&st7;   " /><path d=" M  2307.08,   481.67  C  2304.58    481.67   2302.55    483.70   2302.55    486.20  " style="stroke-width: 1.42 ;&st7;   " /><path d=" M  2302.55,   486.20  C  2302.55    488.71   2304.58    490.74   2307.08    490.74  " style="stroke-width: 1.42 ;&st7;   " /><path d=" M  2307.08,   490.74  C  2309.58    490.74   2311.61    488.71   2311.61    486.20  " style="stroke-width: 1.42 ;&st7;   " /><text style="&st18;" transform="matrix(&st16;  2304.82  488.17 )">A</text></g><g ewd:lineID="146,151"><text style="&st18;" transform="matrix(&st16;  2305.2  445.68 )">5</text><path d=" M  2311.61,   452.21  C  2311.61    449.71   2309.58    447.68   2307.08    447.68  " style="stroke-width: 1.42 ;&st7;   " /><path d=" M  2307.08,   447.68  C  2304.58    447.68   2302.55    449.71   2302.55    452.21  " style="stroke-width: 1.42 ;&st7;   " /><path d=" M  2302.55,   452.21  C  2302.55    454.71   2304.58    456.74   2307.08    456.74  " style="stroke-width: 1.42 ;&st7;   " /><path d=" M  2307.08,   456.74  C  2309.58    456.74   2311.61    454.71   2311.61    452.21  " style="stroke-width: 1.42 ;&st7;   " /><text style="&st18;" transform="matrix(&st16;  2304.82  454.18 )">A</text></g><g ewd:lineID="147,152"><text style="&st18;" transform="matrix(&st16;  2305.2  411.69 )">4</text><text style="&st18;" transform="matrix(&st16;  2304.82  420.18 )">A</text><path d=" M  2311.61,   418.22  C  2311.61    415.71   2309.58    413.68   2307.08    413.68  " style="stroke-width: 1.42 ;&st7;   " /><path d=" M  2307.08,   413.68  C  2304.58    413.68   2302.55    415.71   2302.55    418.22  " style="stroke-width: 1.42 ;&st7;   " /><path d=" M  2302.55,   418.22  C  2302.55    420.72   2304.58    422.75   2307.08    422.75  " style="stroke-width: 1.42 ;&st7;   " /><path d=" M  2307.08,   422.75  C  2309.58    422.75   2311.61    420.72   2311.61    418.22  " style="stroke-width: 1.42 ;&st7;   " /></g><g ewd:lineID="153"><text style="&st18;" transform="matrix(&st16;  2310.63  339.16 )">1</text><text style="&st18;" transform="matrix(&st16;  2317.85  339.16 )">A</text><path d=" M  2324.64,   337.20  C  2324.64    334.69   2322.62    332.66   2320.11    332.66  " style="stroke-width: 1.42 ;&st7;   " /><path d=" M  2320.11,   332.66  C  2317.61    332.66   2315.58    334.69   2315.58    337.20  " style="stroke-width: 1.42 ;&st7;   " /><path d=" M  2315.58,   337.20  C  2315.58    339.70   2317.61    341.73   2320.11    341.73  " style="stroke-width: 1.42 ;&st7;   " /><path d=" M  2320.11,   341.73  C  2322.62    341.73   2324.64    339.70   2324.64    337.20  " style="stroke-width: 1.42 ;&st7;   " /></g><g ewd:lineID="155"><text style="&st18;" transform="matrix(&st16;  2305.2  581.66 )">8</text><path d=" M  2311.61,   588.19  C  2311.61    585.68   2309.58    583.65   2307.08    583.65  " style="stroke-width: 1.42 ;&st7;   " /><path d=" M  2307.08,   583.65  C  2304.58    583.65   2302.55    585.68   2302.55    588.19  " style="stroke-width: 1.42 ;&st7;   " /><path d=" M  2302.55,   588.19  C  2302.55    590.69   2304.58    592.72   2307.08    592.72  " style="stroke-width: 1.42 ;&st7;   " /><path d=" M  2307.08,   592.72  C  2309.58    592.72   2311.61    590.69   2311.61    588.19  " style="stroke-width: 1.42 ;&st7;   " /><text style="&st18;" transform="matrix(&st16;  2304.82  590.16 )">A</text></g><g ewd:lineID="156"><text style="&st18;" transform="matrix(&st16;  2305.2  547.66 )">7</text><path d=" M  2311.61,   554.19  C  2311.61    551.69   2309.58    549.66   2307.08    549.66  " style="stroke-width: 1.42 ;&st7;   " /><path d=" M  2307.08,   549.66  C  2304.58    549.66   2302.55    551.69   2302.55    554.19  " style="stroke-width: 1.42 ;&st7;   " /><path d=" M  2302.55,   554.19  C  2302.55    556.70   2304.58    558.73   2307.08    558.73  " style="stroke-width: 1.42 ;&st7;   " /><path d=" M  2307.08,   558.73  C  2309.58    558.73   2311.61    556.70   2311.61    554.19  " style="stroke-width: 1.42 ;&st7;   " /><text style="&st18;" transform="matrix(&st16;  2304.82  556.16 )">A</text></g><g ewd:lineID="158,168"><text style="&st18;" transform="matrix(&st16;  2305.2  343.7 )">3</text><path d=" M  2311.61,   350.23  C  2311.61    347.72   2309.58    345.69   2307.08    345.69  " style="stroke-width: 1.42 ;&st7;   " /><path d=" M  2307.08,   345.69  C  2304.58    345.69   2302.55    347.72   2302.55    350.23  " style="stroke-width: 1.42 ;&st7;   " /><path d=" M  2302.55,   350.23  C  2302.55    352.73   2304.58    354.76   2307.08    354.76  " style="stroke-width: 1.42 ;&st7;   " /><path d=" M  2307.08,   354.76  C  2309.58    354.76   2311.61    352.73   2311.61    350.23  " style="stroke-width: 1.42 ;&st7;   " /><text style="&st18;" transform="matrix(&st16;  2304.82  352.2 )">A</text></g><g ewd:lineID="163,164"><text style="&st18;" transform="matrix(&st16;  2331.27  581.66 )">2</text><path d=" M  2337.68,   588.19  C  2337.68    585.68   2335.65    583.65   2333.14    583.65  " style="stroke-width: 1.42 ;&st7;   " /><path d=" M  2333.14,   583.65  C  2330.64    583.65   2328.61    585.68   2328.61    588.19  " style="stroke-width: 1.42 ;&st7;   " /><path d=" M  2328.61,   588.19  C  2328.61    590.69   2330.64    592.72   2333.14    592.72  " style="stroke-width: 1.42 ;&st7;   " /><path d=" M  2333.14,   592.72  C  2335.65    592.72   2337.68    590.69   2337.68    588.19  " style="stroke-width: 1.42 ;&st7;   " /><text style="&st18;" transform="matrix(&st16;  2330.88  590.16 )">A</text></g><path d=" M  2311.61,   341.73  L  2311.61,   596.69  L  2328.61,   596.69  L  2328.61,   341.73  L  2311.61,   341.73  " style="stroke-width: 1.42 ;&st7;  " /><path d=" M  2318.92,   417.21  L  2318.65,   417.68  L  2318.55,   418.22  L  2318.65,   418.75  L  2318.92,   419.22  L  2319.33,   419.56  L  2319.84,   419.75  L  2320.38,   419.75  L  2320.89,   419.56  L  2321.30,   419.22  L  2321.58,   418.75  L  2321.67,   418.22  L  2321.58,   417.68  L  2321.30,   417.21  L  2320.89,   416.87  L  2320.38,   416.68  L  2319.84,   416.68  L  2319.33,   416.87  L  2318.92,   417.21  L  2319.31,   417.92  L  2319.31,   418.51  L  2319.69,   418.95  L  2320.26,   419.05  L  2320.76,   418.76  L  2320.96,   418.22  L  2320.76,   417.67  L  2320.26,   417.38  L  2319.69,   417.48  L  2320.11,   418.22  " style="stroke-width: 0.85 ;&st7;  " /><path d=" M  2311.61,   418.22  L  2320.11,   418.22  " style="stroke-width: 0.85 ;&st7;  " /><path d=" M  2311.61,   588.19  L  2328.61,   588.19  " style="stroke-width: 0.85 ;&st7;  " /><path d=" M  2311.61,   350.23  L  2320.11,   350.23  " style="stroke-width: 0.85 ;&st7;  " /><path d=" M  2311.61,   452.21  L  2320.11,   452.21  " style="stroke-width: 0.85 ;&st7;  " /><path d=" M  2311.61,   554.19  L  2320.11,   554.19  " style="stroke-width: 0.85 ;&st7;  " /><path d=" M  2318.92,   349.22  L  2318.65,   349.69  L  2318.55,   350.23  L  2318.65,   350.76  L  2318.92,   351.23  L  2319.33,   351.58  L  2319.84,   351.76  L  2320.38,   351.76  L  2320.89,   351.58  L  2321.30,   351.23  L  2321.58,   350.76  L  2321.67,   350.23  L  2321.58,   349.69  L  2321.30,   349.22  L  2320.89,   348.88  L  2320.38,   348.69  L  2319.84,   348.69  L  2319.33,   348.88  L  2318.92,   349.22  L  2319.31,   349.94  L  2319.31,   350.52  L  2319.69,   350.96  L  2320.26,   351.06  L  2320.76,   350.77  L  2320.96,   350.23  L  2320.76,   349.68  L  2320.26,   349.39  L  2319.69,   349.49  L  2320.11,   350.23  " style="stroke-width: 0.85 ;&st7;  " /><path d=" M  2318.92,   451.21  L  2318.65,   451.68  L  2318.55,   452.21  L  2318.65,   452.74  L  2318.92,   453.21  L  2319.33,   453.56  L  2319.84,   453.75  L  2320.38,   453.75  L  2320.89,   453.56  L  2321.30,   453.21  L  2321.58,   452.74  L  2321.67,   452.21  L  2321.58,   451.68  L  2321.30,   451.21  L  2320.89,   450.86  L  2320.38,   450.67  L  2319.84,   450.67  L  2319.33,   450.86  L  2318.92,   451.21  L  2319.31,   451.92  L  2319.31,   452.50  L  2319.69,   452.95  L  2320.26,   453.05  L  2320.76,   452.76  L  2320.96,   452.21  L  2320.76,   451.66  L  2320.26,   451.37  L  2319.69,   451.47  L  2320.11,   452.21  " style="stroke-width: 0.85 ;&st7;  " /><path d=" M  2318.92,   553.19  L  2318.65,   553.66  L  2318.55,   554.19  L  2318.65,   554.73  L  2318.92,   555.20  L  2319.33,   555.54  L  2319.84,   555.73  L  2320.38,   555.73  L  2320.89,   555.54  L  2321.30,   555.20  L  2321.58,   554.73  L  2321.67,   554.19  L  2321.58,   553.66  L  2321.30,   553.19  L  2320.89,   552.84  L  2320.38,   552.66  L  2319.84,   552.66  L  2319.33,   552.84  L  2318.92,   553.19  L  2319.31,   553.90  L  2319.31,   554.48  L  2319.69,   554.93  L  2320.26,   555.03  L  2320.76,   554.74  L  2320.96,   554.19  L  2320.76,   553.65  L  2320.26,   553.36  L  2319.69,   553.46  L  2320.11,   554.19  " style="stroke-width: 0.85 ;&st7;  " /><path d=" M  2318.92,   587.18  L  2318.65,   587.65  L  2318.55,   588.19  L  2318.65,   588.72  L  2318.92,   589.19  L  2319.33,   589.54  L  2319.84,   589.72  L  2320.38,   589.72  L  2320.89,   589.54  L  2321.30,   589.19  L  2321.58,   588.72  L  2321.67,   588.19  L  2321.58,   587.65  L  2321.30,   587.18  L  2320.89,   586.84  L  2320.38,   586.65  L  2319.84,   586.65  L  2319.33,   586.84  L  2318.92,   587.18  L  2319.31,   587.90  L  2319.31,   588.48  L  2319.69,   588.92  L  2320.26,   589.02  L  2320.76,   588.73  L  2320.96,   588.19  L  2320.76,   587.64  L  2320.26,   587.35  L  2319.69,   587.45  L  2320.11,   588.19  " style="stroke-width: 0.85 ;&st7;  " /><path d=" M  2320.11,   587.70  L  2320.11,   341.73  " style="stroke-width: 0.85 ;&st7;  " /><path d=" M  2311.61,   486.20  L  2320.11,   486.20  " style="stroke-width: 0.85 ;&st7;  " /><path d=" M  2318.92,   485.20  L  2318.65,   485.67  L  2318.55,   486.20  L  2318.65,   486.74  L  2318.92,   487.21  L  2319.33,   487.55  L  2319.84,   487.74  L  2320.38,   487.74  L  2320.89,   487.55  L  2321.30,   487.21  L  2321.58,   486.74  L  2321.67,   486.20  L  2321.58,   485.67  L  2321.30,   485.20  L  2320.89,   484.86  L  2320.38,   484.67  L  2319.84,   484.67  L  2319.33,   484.86  L  2318.92,   485.20  L  2319.31,   485.91  L  2319.31,   486.50  L  2319.69,   486.94  L  2320.26,   487.04  L  2320.76,   486.75  L  2320.96,   486.20  L  2320.76,   485.66  L  2320.26,   485.37  L  2319.69,   485.47  L  2320.11,   486.20  " style="stroke-width: 0.85 ;&st7;  " /><path d=" M  2311.61,   350.23  C  2311.61    347.72   2309.58    345.69   2307.08    345.69  " style="stroke-width: 1.42 ;&st7;   " /><path d=" M  2307.08,   345.69  C  2304.58    345.69   2302.55    347.72   2302.55    350.23  " style="stroke-width: 1.42 ;&st7;   " /><path d=" M  2302.55,   350.23  C  2302.55    352.73   2304.58    354.76   2307.08    354.76  " style="stroke-width: 1.42 ;&st7;   " /><path d=" M  2307.08,   354.76  C  2309.58    354.76   2311.61    352.73   2311.61    350.23  " style="stroke-width: 1.42 ;&st7;   " /><path d=" M  2311.61,   418.22  C  2311.61    415.71   2309.58    413.68   2307.08    413.68  " style="stroke-width: 1.42 ;&st7;   " /><path d=" M  2307.08,   413.68  C  2304.58    413.68   2302.55    415.71   2302.55    418.22  " style="stroke-width: 1.42 ;&st7;   " /><path d=" M  2302.55,   418.22  C  2302.55    420.72   2304.58    422.75   2307.08    422.75  " style="stroke-width: 1.42 ;&st7;   " /><path d=" M  2307.08,   422.75  C  2309.58    422.75   2311.61    420.72   2311.61    418.22  " style="stroke-width: 1.42 ;&st7;   " /><path d=" M  2311.61,   452.21  C  2311.61    449.71   2309.58    447.68   2307.08    447.68  " style="stroke-width: 1.42 ;&st7;   " /><path d=" M  2307.08,   447.68  C  2304.58    447.68   2302.55    449.71   2302.55    452.21  " style="stroke-width: 1.42 ;&st7;   " /><path d=" M  2302.55,   452.21  C  2302.55    454.71   2304.58    456.74   2307.08    456.74  " style="stroke-width: 1.42 ;&st7;   " /><path d=" M  2307.08,   456.74  C  2309.58    456.74   2311.61    454.71   2311.61    452.21  " style="stroke-width: 1.42 ;&st7;   " /><path d=" M  2311.61,   486.20  C  2311.61    483.70   2309.58    481.67   2307.08    481.67  " style="stroke-width: 1.42 ;&st7;   " /><path d=" M  2307.08,   481.67  C  2304.58    481.67   2302.55    483.70   2302.55    486.20  " style="stroke-width: 1.42 ;&st7;   " /><path d=" M  2302.55,   486.20  C  2302.55    488.71   2304.58    490.74   2307.08    490.74  " style="stroke-width: 1.42 ;&st7;   " /><path d=" M  2307.08,   490.74  C  2309.58    490.74   2311.61    488.71   2311.61    486.20  " style="stroke-width: 1.42 ;&st7;   " /><path d=" M  2311.61,   554.19  C  2311.61    551.69   2309.58    549.66   2307.08    549.66  " style="stroke-width: 1.42 ;&st7;   " /><path d=" M  2307.08,   549.66  C  2304.58    549.66   2302.55    551.69   2302.55    554.19  " style="stroke-width: 1.42 ;&st7;   " /><path d=" M  2302.55,   554.19  C  2302.55    556.70   2304.58    558.73   2307.08    558.73  " style="stroke-width: 1.42 ;&st7;   " /><path d=" M  2307.08,   558.73  C  2309.58    558.73   2311.61    556.70   2311.61    554.19  " style="stroke-width: 1.42 ;&st7;   " /><path d=" M  2311.61,   588.19  C  2311.61    585.68   2309.58    583.65   2307.08    583.65  " style="stroke-width: 1.42 ;&st7;   " /><path d=" M  2307.08,   583.65  C  2304.58    583.65   2302.55    585.68   2302.55    588.19  " style="stroke-width: 1.42 ;&st7;   " /><path d=" M  2302.55,   588.19  C  2302.55    590.69   2304.58    592.72   2307.08    592.72  " style="stroke-width: 1.42 ;&st7;   " /><path d=" M  2307.08,   592.72  C  2309.58    592.72   2311.61    590.69   2311.61    588.19  " style="stroke-width: 1.42 ;&st7;   " /><g ewd:figtype="title"><text ewd:textID="123" style="&st18;" transform="matrix(&st17;  2343.33  557.1 )">No. 1 Junction <tspan dy="6.0" x="0 ">Connector</tspan></text><text style="&st18;" transform="matrix(&st17;  2336.5  557.09 )">A22(A)</text></g></g><g ewd:code="A27,A28" ewd:figID="7" ewd:figtype="conn"><g ewd:lineID="144"><text style="&st18;" transform="matrix(&st16;  2288.21  615.65 )">2</text><text style="&st18;" transform="matrix(&st16;  2287.82  624.15 )">B</text><path d=" M  2294.62,   622.18  C  2294.62    619.68   2292.59    617.65   2290.08    617.65  " style="stroke-width: 1.42 ;&st7;   " /><path d=" M  2290.08,   617.65  C  2287.58    617.65   2285.55    619.68   2285.55    622.18  " style="stroke-width: 1.42 ;&st7;   " /><path d=" M  2285.55,   622.18  C  2285.55    624.68   2287.58    626.71   2290.08    626.71  " style="stroke-width: 1.42 ;&st7;   " /><path d=" M  2290.08,   626.71  C  2292.59    626.71   2294.62    624.68   2294.62    622.18  " style="stroke-width: 1.42 ;&st7;   " /></g><g ewd:lineID="159"><text style="&st18;" transform="matrix(&st16;  2314.27  615.65 )">2</text><text style="&st18;" transform="matrix(&st16;  2313.88  624.15 )">A</text><path d=" M  2320.68,   622.18  C  2320.68    619.68   2318.65    617.65   2316.15    617.65  " style="stroke-width: 1.42 ;&st7;   " /><path d=" M  2316.15,   617.65  C  2313.64    617.65   2311.61    619.68   2311.61    622.18  " style="stroke-width: 1.42 ;&st7;   " /><path d=" M  2311.61,   622.18  C  2311.61    624.68   2313.64    626.71   2316.15    626.71  " style="stroke-width: 1.42 ;&st7;   " /><path d=" M  2316.15,   626.71  C  2318.65    626.71   2320.68    624.68   2320.68    622.18  " style="stroke-width: 1.42 ;&st7;   " /></g><path d=" M  2294.62,   613.68  L  2294.62,   630.68  L  2311.61,   630.68  L  2311.61,   613.68  L  2294.62,   613.68  " style="stroke-width: 1.42 ;&st7;  " /><path d=" M  2303.11,   613.68  L  2303.11,   630.68  " style="stroke-width: 1.42 ;&st7;  " /><path d=" M  2294.62,   622.18  C  2294.62    619.68   2292.59    617.65   2290.08    617.65  " style="stroke-width: 1.42 ;&st7;   " /><path d=" M  2290.08,   617.65  C  2287.58    617.65   2285.55    619.68   2285.55    622.18  " style="stroke-width: 1.42 ;&st7;   " /><path d=" M  2285.55,   622.18  C  2285.55    624.68   2287.58    626.71   2290.08    626.71  " style="stroke-width: 1.42 ;&st7;   " /><path d=" M  2290.08,   626.71  C  2292.59    626.71   2294.62    624.68   2294.62    622.18  " style="stroke-width: 1.42 ;&st7;   " /><g ewd:figtype="title"><text ewd:textID="50" style="&st18;" transform="matrix(&st16;  2282.71  645.4 )">Brake Vacuum Check <tspan dy="6.0" x="0 ">Valve Assembly</tspan></text><text style="&st18;" transform="matrix(&st16;  2282.71  638.57 )">A27(A),A28(B)</text></g></g><g ewd:code="A23" ewd:figID="12" ewd:figtype="conn"><g ewd:lineID="148"><text style="&st18;" transform="matrix(&st16;  2339.2  139.73 )">8</text><path d=" M  2345.61,   146.26  C  2345.61    143.76   2343.58    141.73   2341.08    141.73  " style="stroke-width: 1.42 ;&st7;   " /><path d=" M  2341.08,   141.73  C  2338.57    141.73   2336.54    143.76   2336.54    146.26  " style="stroke-width: 1.42 ;&st7;   " /><path d=" M  2336.54,   146.26  C  2336.54    148.76   2338.57    150.79   2341.08    150.79  " style="stroke-width: 1.42 ;&st7;   " /><path d=" M  2341.08,   150.79  C  2343.58    150.79   2345.61    148.76   2345.61    146.26  " style="stroke-width: 1.42 ;&st7;   " /><text style="&st18;" transform="matrix(&st16;  2338.81  148.23 )">A</text></g><g ewd:lineID="160"><text style="&st18;" transform="matrix(&st16;  2339.2  105.74 )">6</text><path d=" M  2345.61,   112.27  C  2345.61    109.76   2343.58    107.73   2341.08    107.73  " style="stroke-width: 1.42 ;&st7;   " /><path d=" M  2341.08,   107.73  C  2338.57    107.73   2336.54    109.76   2336.54    112.27  " style="stroke-width: 1.42 ;&st7;   " /><path d=" M  2336.54,   112.27  C  2336.54    114.77   2338.57    116.80   2341.08    116.80  " style="stroke-width: 1.42 ;&st7;   " /><path d=" M  2341.08,   116.80  C  2343.58    116.80   2345.61    114.77   2345.61    112.27  " style="stroke-width: 1.42 ;&st7;   " /><text style="&st18;" transform="matrix(&st16;  2338.81  114.24 )">A</text></g><g ewd:lineID="161"><text style="&st18;" transform="matrix(&st16;  2339.2  71.74 )">4</text><text style="&st18;" transform="matrix(&st16;  2338.81  80.24 )">A</text><path d=" M  2345.61,    78.27  C  2345.61     75.77   2343.58     73.74   2341.08     73.74  " style="stroke-width: 1.42 ;&st7;   " /><path d=" M  2341.08,    73.74  C  2338.57     73.74   2336.54     75.77   2336.54     78.27  " style="stroke-width: 1.42 ;&st7;   " /><path d=" M  2336.54,    78.27  C  2336.54     80.78   2338.57     82.80   2341.08     82.80  " style="stroke-width: 1.42 ;&st7;   " /><path d=" M  2341.08,    82.80  C  2343.58     82.80   2345.61     80.78   2345.61     78.27  " style="stroke-width: 1.42 ;&st7;   " /></g><g ewd:lineID="162"><text style="&st18;" transform="matrix(&st16;  2339.2  20.75 )">3</text><text style="&st18;" transform="matrix(&st16;  2338.81  29.25 )">A</text><path d=" M  2345.61,    27.28  C  2345.61     24.78   2343.58     22.75   2341.08     22.75  " style="stroke-width: 1.42 ;&st7;   " /><path d=" M  2341.08,    22.75  C  2338.57     22.75   2336.54     24.78   2336.54     27.28  " style="stroke-width: 1.42 ;&st7;   " /><path d=" M  2336.54,    27.28  C  2336.54     29.78   2338.57     31.81   2341.08     31.81  " style="stroke-width: 1.42 ;&st7;   " /><path d=" M  2341.08,    31.81  C  2343.58     31.81   2345.61     29.78   2345.61     27.28  " style="stroke-width: 1.42 ;&st7;   " /></g><g ewd:lineID="165"><text style="&st18;" transform="matrix(&st16;  2365.26  284.21 )">1</text><text style="&st18;" transform="matrix(&st16;  2364.87  292.71 )">A</text><path d=" M  2371.67,   290.74  C  2371.67    288.23   2369.64    286.20   2367.14    286.20  " style="stroke-width: 1.42 ;&st7;   " /><path d=" M  2367.14,   286.20  C  2364.63    286.20   2362.61    288.23   2362.61    290.74  " style="stroke-width: 1.42 ;&st7;   " /><path d=" M  2362.61,   290.74  C  2362.61    293.24   2364.63    295.27   2367.14    295.27  " style="stroke-width: 1.42 ;&st7;   " /><path d=" M  2367.14,   295.27  C  2369.64    295.27   2371.67    293.24   2371.67    290.74  " style="stroke-width: 1.42 ;&st7;   " /></g><g ewd:lineID="166"><text style="&st18;" transform="matrix(&st16;  2365.26  258.71 )">7</text><text style="&st18;" transform="matrix(&st16;  2364.87  267.21 )">A</text><path d=" M  2371.67,   265.24  C  2371.67    262.74   2369.64    260.71   2367.14    260.71  " style="stroke-width: 1.42 ;&st7;   " /><path d=" M  2367.14,   260.71  C  2364.63    260.71   2362.61    262.74   2362.61    265.24  " style="stroke-width: 1.42 ;&st7;   " /><path d=" M  2362.61,   265.24  C  2362.61    267.74   2364.63    269.77   2367.14    269.77  " style="stroke-width: 1.42 ;&st7;   " /><path d=" M  2367.14,   269.77  C  2369.64    269.77   2371.67    267.74   2371.67    265.24  " style="stroke-width: 1.42 ;&st7;   " /></g><g ewd:lineID="167,175"><text style="&st18;" transform="matrix(&st16;  2365.26  224.72 )">5</text><text style="&st18;" transform="matrix(&st16;  2364.87  233.22 )">A</text><path d=" M  2371.67,   231.25  C  2371.67    228.74   2369.64    226.71   2367.14    226.71  " style="stroke-width: 1.42 ;&st7;   " /><path d=" M  2367.14,   226.71  C  2364.63    226.71   2362.61    228.74   2362.61    231.25  " style="stroke-width: 1.42 ;&st7;   " /><path d=" M  2362.61,   231.25  C  2362.61    233.75   2364.63    235.78   2367.14    235.78  " style="stroke-width: 1.42 ;&st7;   " /><path d=" M  2367.14,   235.78  C  2369.64    235.78   2371.67    233.75   2371.67    231.25  " style="stroke-width: 1.42 ;&st7;   " /></g><g ewd:lineID="242"><text style="&st18;" transform="matrix(&st16;  2365.26  20.75 )">2</text><path d=" M  2371.67,    27.28  C  2371.67     24.78   2369.64     22.75   2367.14     22.75  " style="stroke-width: 1.42 ;&st7;   " /><path d=" M  2367.14,    22.75  C  2364.63     22.75   2362.61     24.78   2362.61     27.28  " style="stroke-width: 1.42 ;&st7;   " /><path d=" M  2362.61,    27.28  C  2362.61     29.78   2364.63     31.81   2367.14     31.81  " style="stroke-width: 1.42 ;&st7;   " /><path d=" M  2367.14,    31.81  C  2369.64     31.81   2371.67     29.78   2371.67     27.28  " style="stroke-width: 1.42 ;&st7;   " /><text style="&st18;" transform="matrix(&st16;  2364.87  29.25 )">A</text></g><path d=" M  2345.61,    18.78  L  2345.61,   299.24  L  2362.60,   299.24  L  2362.60,    18.78  L  2345.61,    18.78  " style="stroke-width: 1.42 ;&st7;  " /><path d=" M  2345.61,    27.28  L  2362.60,    27.28  " style="stroke-width: 0.85 ;&st7;  " /><path d=" M  2354.11,    27.28  L  2354.11,   290.74  L  2362.60,   290.74  " style="stroke-width: 0.85 ;&st7;  " /><path d=" M  2354.11,   231.25  L  2362.60,   231.25  " style="stroke-width: 0.85 ;&st7;  " /><path d=" M  2345.61,    78.27  L  2354.11,    78.27  " style="stroke-width: 0.85 ;&st7;  " /><path d=" M  2345.61,   112.27  L  2354.11,   112.27  " style="stroke-width: 0.85 ;&st7;  " /><path d=" M  2345.61,   146.26  L  2354.11,   146.26  " style="stroke-width: 0.85 ;&st7;  " /><path d=" M  2352.91,    26.28  L  2352.64,    26.75  L  2352.55,    27.28  L  2352.64,    27.81  L  2352.91,    28.28  L  2353.33,    28.63  L  2353.83,    28.82  L  2354.38,    28.82  L  2354.88,    28.63  L  2355.30,    28.28  L  2355.57,    27.81  L  2355.66,    27.28  L  2355.57,    26.75  L  2355.30,    26.28  L  2354.88,    25.93  L  2354.38,    25.75  L  2353.83,    25.75  L  2353.33,    25.93  L  2352.91,    26.28  L  2353.31,    26.99  L  2353.31,    27.57  L  2353.68,    28.02  L  2354.25,    28.12  L  2354.76,    27.83  L  2354.96,    27.28  L  2354.76,    26.73  L  2354.25,    26.45  L  2353.68,    26.54  L  2354.11,    27.28  " style="stroke-width: 0.85 ;&st7;  " /><path d=" M  2352.91,    77.27  L  2352.64,    77.74  L  2352.55,    78.27  L  2352.64,    78.81  L  2352.91,    79.28  L  2353.33,    79.62  L  2353.83,    79.81  L  2354.38,    79.81  L  2354.88,    79.62  L  2355.30,    79.28  L  2355.57,    78.81  L  2355.66,    78.27  L  2355.57,    77.74  L  2355.30,    77.27  L  2354.88,    76.92  L  2354.38,    76.74  L  2353.83,    76.74  L  2353.33,    76.92  L  2352.91,    77.27  L  2353.31,    77.98  L  2353.31,    78.56  L  2353.68,    79.01  L  2354.25,    79.11  L  2354.76,    78.82  L  2354.96,    78.27  L  2354.76,    77.73  L  2354.25,    77.44  L  2353.68,    77.54  L  2354.11,    78.27  " style="stroke-width: 0.85 ;&st7;  " /><path d=" M  2352.91,   111.26  L  2352.64,   111.73  L  2352.55,   112.27  L  2352.64,   112.80  L  2352.91,   113.27  L  2353.33,   113.62  L  2353.83,   113.80  L  2354.38,   113.80  L  2354.88,   113.62  L  2355.30,   113.27  L  2355.57,   112.80  L  2355.66,   112.27  L  2355.57,   111.73  L  2355.30,   111.26  L  2354.88,   110.92  L  2354.38,   110.73  L  2353.83,   110.73  L  2353.33,   110.92  L  2352.91,   111.26  L  2353.31,   111.98  L  2353.31,   112.56  L  2353.68,   113.00  L  2354.25,   113.10  L  2354.76,   112.81  L  2354.96,   112.27  L  2354.76,   111.72  L  2354.25,   111.43  L  2353.68,   111.53  L  2354.11,   112.27  " style="stroke-width: 0.85 ;&st7;  " /><path d=" M  2352.91,   145.26  L  2352.64,   145.73  L  2352.55,   146.26  L  2352.64,   146.79  L  2352.91,   147.26  L  2353.33,   147.61  L  2353.83,   147.80  L  2354.38,   147.80  L  2354.88,   147.61  L  2355.30,   147.26  L  2355.57,   146.79  L  2355.66,   146.26  L  2355.57,   145.73  L  2355.30,   145.26  L  2354.88,   144.91  L  2354.38,   144.73  L  2353.83,   144.73  L  2353.33,   144.91  L  2352.91,   145.26  L  2353.31,   145.97  L  2353.31,   146.55  L  2353.68,   147.00  L  2354.25,   147.10  L  2354.76,   146.81  L  2354.96,   146.26  L  2354.76,   145.71  L  2354.25,   145.43  L  2353.68,   145.52  L  2354.11,   146.26  " style="stroke-width: 0.85 ;&st7;  " /><path d=" M  2352.91,   230.24  L  2352.64,   230.71  L  2352.55,   231.25  L  2352.64,   231.78  L  2352.91,   232.25  L  2353.33,   232.60  L  2353.83,   232.78  L  2354.38,   232.78  L  2354.88,   232.60  L  2355.30,   232.25  L  2355.57,   231.78  L  2355.66,   231.25  L  2355.57,   230.71  L  2355.30,   230.24  L  2354.88,   229.90  L  2354.38,   229.71  L  2353.83,   229.71  L  2353.33,   229.90  L  2352.91,   230.24  L  2353.31,   230.96  L  2353.31,   231.54  L  2353.68,   231.98  L  2354.25,   232.08  L  2354.76,   231.79  L  2354.96,   231.25  L  2354.76,   230.70  L  2354.25,   230.41  L  2353.68,   230.51  L  2354.11,   231.25  " style="stroke-width: 0.85 ;&st7;  " /><path d=" M  2354.11,   265.24  L  2362.60,   265.24  " style="stroke-width: 0.85 ;&st7;  " /><path d=" M  2352.91,   264.24  L  2352.64,   264.71  L  2352.55,   265.24  L  2352.64,   265.77  L  2352.91,   266.24  L  2353.33,   266.59  L  2353.83,   266.78  L  2354.38,   266.78  L  2354.88,   266.59  L  2355.30,   266.24  L  2355.57,   265.77  L  2355.66,   265.24  L  2355.57,   264.71  L  2355.30,   264.24  L  2354.88,   263.89  L  2354.38,   263.71  L  2353.83,   263.71  L  2353.33,   263.89  L  2352.91,   264.24  L  2353.31,   264.95  L  2353.31,   265.53  L  2353.68,   265.98  L  2354.25,   266.08  L  2354.76,   265.79  L  2354.96,   265.24  L  2354.76,   264.69  L  2354.25,   264.41  L  2353.68,   264.50  L  2354.11,   265.24  " style="stroke-width: 0.85 ;&st7;  " /><path d=" M  2345.61,    27.28  C  2345.61     24.78   2343.58     22.75   2341.08     22.75  " style="stroke-width: 1.42 ;&st7;   " /><path d=" M  2341.08,    22.75  C  2338.57     22.75   2336.54     24.78   2336.54     27.28  " style="stroke-width: 1.42 ;&st7;   " /><path d=" M  2336.54,    27.28  C  2336.54     29.78   2338.57     31.81   2341.08     31.81  " style="stroke-width: 1.42 ;&st7;   " /><path d=" M  2341.08,    31.81  C  2343.58     31.81   2345.61     29.78   2345.61     27.28  " style="stroke-width: 1.42 ;&st7;   " /><path d=" M  2345.61,    78.27  C  2345.61     75.77   2343.58     73.74   2341.08     73.74  " style="stroke-width: 1.42 ;&st7;   " /><path d=" M  2341.08,    73.74  C  2338.57     73.74   2336.54     75.77   2336.54     78.27  " style="stroke-width: 1.42 ;&st7;   " /><path d=" M  2336.54,    78.27  C  2336.54     80.78   2338.57     82.80   2341.08     82.80  " style="stroke-width: 1.42 ;&st7;   " /><path d=" M  2341.08,    82.80  C  2343.58     82.80   2345.61     80.78   2345.61     78.27  " style="stroke-width: 1.42 ;&st7;   " /><path d=" M  2345.61,   112.27  C  2345.61    109.76   2343.58    107.73   2341.08    107.73  " style="stroke-width: 1.42 ;&st7;   " /><path d=" M  2341.08,   107.73  C  2338.57    107.73   2336.54    109.76   2336.54    112.27  " style="stroke-width: 1.42 ;&st7;   " /><path d=" M  2336.54,   112.27  C  2336.54    114.77   2338.57    116.80   2341.08    116.80  " style="stroke-width: 1.42 ;&st7;   " /><path d=" M  2341.08,   116.80  C  2343.58    116.80   2345.61    114.77   2345.61    112.27  " style="stroke-width: 1.42 ;&st7;   " /><path d=" M  2345.61,   146.26  C  2345.61    143.76   2343.58    141.73   2341.08    141.73  " style="stroke-width: 1.42 ;&st7;   " /><path d=" M  2341.08,   141.73  C  2338.57    141.73   2336.54    143.76   2336.54    146.26  " style="stroke-width: 1.42 ;&st7;   " /><path d=" M  2336.54,   146.26  C  2336.54    148.76   2338.57    150.79   2341.08    150.79  " style="stroke-width: 1.42 ;&st7;   " /><path d=" M  2341.08,   150.79  C  2343.58    150.79   2345.61    148.76   2345.61    146.26  " style="stroke-width: 1.42 ;&st7;   " /><g ewd:figtype="title"><text style="&st18;" transform="matrix(&st17;  2370.5  183.15 )">A23(A)</text><text ewd:textID="129" style="&st18;" transform="matrix(&st17;  2377.32  183.16 )">No. 2 Junction <tspan dy="6.0" x="0 ">Connector</tspan></text></g></g><g ewd:code="LM1" ewd:figID="45" ewd:figtype="w2w"><path d=" M  2220.96,   651.93  L  2225.21,   656.18  L  2220.96,   660.42  " style="stroke-width: 1.42 ;&st7;  " /><path d=" M  2217.56,   651.93  L  2221.81,   656.18  L  2217.56,   660.42  " style="stroke-width: 1.42 ;&st7;  " /><text style="&st18;" transform="matrix(&st16;  2233.25  648.94 )">6</text></g><g ewd:code="mA1" ewd:figID="46" ewd:figtype="w2w"><text style="&st18;" transform="matrix(&st16;  2250.25  105.03 )">1</text><path d=" M  2266.29,   116.52  L  2262.04,   112.27  L  2266.29,   108.02  " style="stroke-width: 1.42 ;&st7;  " /><path d=" M  2269.69,   116.52  L  2265.44,   112.27  L  2269.69,   108.02  " style="stroke-width: 1.42 ;&st7;  " /></g><g ewd:code="AC1" ewd:figID="47" ewd:figtype="w2w"><text style="&st18;" transform="matrix(&st16;  2250.25  20.04 )">9</text><path d=" M  2234.56,    23.03  L  2238.81,    27.28  L  2234.56,    31.53  " style="stroke-width: 1.42 ;&st7;  " /><path d=" M  2237.96,    23.03  L  2242.21,    27.28  L  2237.96,    31.53  " style="stroke-width: 1.42 ;&st7;  " /></g><g ewd:code="AC2" ewd:figID="48" ewd:figtype="w2w"><text style="&st18;" transform="matrix(&st16;  2417.18  211.97 )">3</text><path d=" M  2434.84,   200.09  L  2430.59,   204.33  L  2426.34,   200.09  " style="stroke-width: 1.42 ;&st7;  " /><path d=" M  2426.34,   196.69  L  2430.59,   200.94  L  2434.84,   196.69  " style="stroke-width: 1.42 ;&st7;  " /></g><g ewd:code="WC2" ewd:figID="49" ewd:figtype="w2w"><text style="&st18;" transform="matrix(&st16;  2417.18  152.48 )">1</text><path d=" M  2434.84,   163.82  L  2430.59,   159.58  L  2426.34,   163.82  " style="stroke-width: 1.42 ;&st7;  " /><path d=" M  2434.84,   160.43  L  2430.59,   156.18  L  2426.34,   160.43  " style="stroke-width: 1.42 ;&st7;  " /></g><g ewd:code="AI2" ewd:figID="50" ewd:figtype="w2w"><path d=" M  2451.84,   570.62  L  2456.09,   574.87  L  2460.34,   570.62  " style="stroke-width: 1.42 ;&st7;  " /><path d=" M  2460.34,   574.02  L  2456.09,   578.27  L  2451.84,   574.02  " style="stroke-width: 1.42 ;&st7;  " /><text style="&st18;" transform="matrix(&st16;  2442.67  585.91 )">4</text></g><g ewd:code="IL5" ewd:figID="51" ewd:figtype="w2w"><path d=" M  2451.84,   502.63  L  2456.09,   506.88  L  2460.34,   502.63  " style="stroke-width: 1.42 ;&st7;  " /><path d=" M  2460.34,   506.03  L  2456.09,   510.28  L  2451.84,   506.03  " style="stroke-width: 1.42 ;&st7;  " /><text style="&st18;" transform="matrix(&st16;  2439.34  517.92 )">17</text></g><g ewd:code="AA" ewd:figID="109" ewd:figtype="gp"><path d=" M  2412.18,   710.00  L  2415.01,   710.00  " style="stroke-width: 0.85 ;&st7;  " /><path d=" M  2410.76,   707.17  L  2416.43,   707.17  " style="stroke-width: 0.85 ;&st7;  " /><path d=" M  2409.35,   704.33  L  2417.84,   704.33  " style="stroke-width: 0.85 ;&st7;  " /><path d=" M  2405.10,   701.50  L  2422.09,   701.50  " style="stroke-width: 0.85 ;&st7;  " /><path d=" M  2413.60,   697.25  L  2413.60,   701.50  " style="stroke-width: 0.85 ;&st7;  " /></g><g ewd:code=" " ewd:figID="20" ewd:figtype="annex"><path d=" M  2192.63,   260.99  C  2190.29    260.99   2188.38    262.89   2188.38    265.24  " style="stroke-width: 1.42 ;&st7;   " /><path d=" M  2082.15,   256.74  L  2082.15,   282.24  L  2167.14,   282.24  L  2167.14,   256.74  L  2082.15,   256.74  " style="stroke-width: 1.42 ;&st7;  " /><path d=" M  2167.14,   265.24  L  2188.38,   265.24  " style="stroke-width: 0.85 ;&st7;  " /><path d=" M  2188.38,   265.24  C  2188.38    267.59   2190.29    269.49   2192.63    269.49  " style="stroke-width: 1.42 ;&st7;   " /><path d=" M  2196.88,   269.49  L  2192.63,   269.49  " style="stroke-width: 1.42 ;&st7;  " /><path d=" M  2201.13,   265.24  C  2201.13    262.89   2199.23    260.99   2196.88    260.99  " style="stroke-width: 1.42 ;&st7;   " /><path d=" M  2196.88,   269.49  C  2199.23    269.49   2201.13    267.59   2201.13    265.24  " style="stroke-width: 1.42 ;&st7;   " /><path d=" M  2196.88,   260.99  L  2192.63,   260.99  " style="stroke-width: 1.42 ;&st7;  " /><path d=" M  2183.49,   265.24  L  2180.66,   262.41  L  2184.90,   262.41  L  2187.74,   265.24  L  2184.90,   268.07  L  2180.66,   268.07  L  2183.49,   265.24  " style="stroke-width: 0.28 ;&st9;  " /><text style="&st18;" transform="matrix(&st16;  2154.98  267.21 )">(-S)</text><text ewd:textID="152" style="&st18;" transform="matrix(&st16;  2083.0  272.88 )">ST Relay</text><text style="&st18;" transform="matrix(&st16;  2192.88  267.21 )">1</text></g><g ewd:code=" " ewd:figID="21" ewd:figtype="annex"><path d=" M  2192.63,   379.97  C  2190.29    379.97   2188.38    381.87   2188.38    384.22  " style="stroke-width: 1.42 ;&st7;   " /><path d=" M  2167.14,   384.22  L  2188.38,   384.22  " style="stroke-width: 0.85 ;&st7;  " /><path d=" M  2196.88,   354.48  L  2192.63,   354.48  " style="stroke-width: 1.42 ;&st7;  " /><path d=" M  2183.49,   384.22  L  2180.66,   381.39  L  2184.90,   381.39  L  2187.74,   384.22  L  2184.90,   387.05  L  2180.66,   387.05  L  2183.49,   384.22  " style="stroke-width: 0.28 ;&st9;  " /><path d=" M  2201.13,   350.23  C  2201.13    347.88   2199.23    345.98   2196.88    345.98  " style="stroke-width: 1.42 ;&st7;   " /><path d=" M  2196.88,   379.97  L  2192.63,   379.97  " style="stroke-width: 1.42 ;&st7;  " /><path d=" M  2196.88,   345.98  L  2192.63,   345.98  " style="stroke-width: 1.42 ;&st7;  " /><path d=" M  2167.14,   350.23  L  2188.38,   350.23  " style="stroke-width: 0.85 ;&st7;  " /><path d=" M  2082.15,   341.73  L  2082.15,   367.22  L  2167.14,   367.22  L  2167.14,   341.73  L  2082.15,   341.73  " style="stroke-width: 1.42 ;&st7;  " /><path d=" M  2188.38,   384.22  C  2188.38    386.57   2190.29    388.47   2192.63    388.47  " style="stroke-width: 1.42 ;&st7;   " /><path d=" M  2201.13,   384.22  C  2201.13    381.87   2199.23    379.97   2196.88    379.97  " style="stroke-width: 1.42 ;&st7;   " /><path d=" M  2192.63,   345.98  C  2190.29    345.98   2188.38    347.88   2188.38    350.23  " style="stroke-width: 1.42 ;&st7;   " /><path d=" M  2082.15,   375.72  L  2082.15,   401.22  L  2167.14,   401.22  L  2167.14,   375.72  L  2082.15,   375.72  " style="stroke-width: 1.42 ;&st7;  " /><path d=" M  2183.49,   350.23  L  2180.66,   347.39  L  2184.90,   347.39  L  2187.74,   350.23  L  2184.90,   353.06  L  2180.66,   353.06  L  2183.49,   350.23  " style="stroke-width: 0.28 ;&st9;  " /><path d=" M  2196.88,   388.47  L  2192.63,   388.47  " style="stroke-width: 1.42 ;&st7;  " /><path d=" M  2188.38,   350.23  C  2188.38    352.57   2190.29    354.48   2192.63    354.48  " style="stroke-width: 1.42 ;&st7;   " /><path d=" M  2196.88,   388.47  C  2199.23    388.47   2201.13    386.57   2201.13    384.22  " style="stroke-width: 1.42 ;&st7;   " /><path d=" M  2196.88,   354.48  C  2199.23    354.48   2201.13    352.57   2201.13    350.23  " style="stroke-width: 1.42 ;&st7;   " /><text ewd:textID="93" style="&st18;" transform="matrix(&st16;  2083.0  357.86 )">GLOW Relay</text><text style="&st18;" transform="matrix(&st16;  2154.98  352.2 )">(-S)</text><text style="&st18;" transform="matrix(&st16;  2192.88  352.2 )">1</text><text ewd:textID="91" style="&st18;" transform="matrix(&st16;  2083.0  391.86 )">GLOW1 Relay</text><text style="&st18;" transform="matrix(&st16;  2154.98  386.19 )">(-S)</text><text style="&st18;" transform="matrix(&st16;  2192.88  386.19 )">1</text></g><g ewd:code=" " ewd:figID="25" ewd:figtype="annex"><path d=" M  2082.15,   443.71  L  2082.15,   469.21  L  2167.14,   469.21  L  2167.14,   443.71  L  2082.15,   443.71  " style="stroke-width: 1.42 ;&st7;  " /><path d=" M  2201.13,   452.21  C  2201.13    449.86   2199.23    447.96   2196.88    447.96  " style="stroke-width: 1.42 ;&st7;   " /><path d=" M  2188.38,   452.21  C  2188.38    454.56   2190.29    456.46   2192.63    456.46  " style="stroke-width: 1.42 ;&st7;   " /><path d=" M  2183.49,   452.21  L  2180.66,   449.38  L  2184.90,   449.38  L  2187.74,   452.21  L  2184.90,   455.04  L  2180.66,   455.04  L  2183.49,   452.21  " style="stroke-width: 0.28 ;&st9;  " /><path d=" M  2183.49,   486.20  L  2180.66,   483.37  L  2184.90,   483.37  L  2187.74,   486.20  L  2184.90,   489.04  L  2180.66,   489.04  L  2183.49,   486.20  " style="stroke-width: 0.28 ;&st9;  " /><path d=" M  2201.13,   486.20  C  2201.13    483.86   2199.23    481.95   2196.88    481.95  " style="stroke-width: 1.42 ;&st7;   " /><path d=" M  2196.88,   481.95  L  2192.63,   481.95  " style="stroke-width: 1.42 ;&st7;  " /><path d=" M  2188.38,   486.20  C  2188.38    488.55   2190.29    490.45   2192.63    490.45  " style="stroke-width: 1.42 ;&st7;   " /><path d=" M  2196.88,   490.45  L  2192.63,   490.45  " style="stroke-width: 1.42 ;&st7;  " /><path d=" M  2196.88,   456.46  C  2199.23    456.46   2201.13    454.56   2201.13    452.21  " style="stroke-width: 1.42 ;&st7;   " /><path d=" M  2196.88,   447.96  L  2192.63,   447.96  " style="stroke-width: 1.42 ;&st7;  " /><path d=" M  2167.14,   486.20  L  2188.38,   486.20  " style="stroke-width: 0.85 ;&st7;  " /><path d=" M  2192.63,   481.95  C  2190.29    481.95   2188.38    483.86   2188.38    486.20  " style="stroke-width: 1.42 ;&st7;   " /><path d=" M  2196.88,   490.45  C  2199.23    490.45   2201.13    488.55   2201.13    486.20  " style="stroke-width: 1.42 ;&st7;   " /><path d=" M  2167.14,   452.21  L  2188.38,   452.21  " style="stroke-width: 0.85 ;&st7;  " /><path d=" M  2196.88,   456.46  L  2192.63,   456.46  " style="stroke-width: 1.42 ;&st7;  " /><path d=" M  2082.15,   477.71  L  2082.15,   503.20  L  2167.14,   503.20  L  2167.14,   477.71  L  2082.15,   477.71  " style="stroke-width: 1.42 ;&st7;  " /><path d=" M  2192.63,   447.96  C  2190.29    447.96   2188.38    449.86   2188.38    452.21  " style="stroke-width: 1.42 ;&st7;   "/><text ewd:textID="167" style="&st18;" transform="matrix(&st16;  2083.0  459.84 )">WIP1 Relay</text><text style="&st18;" transform="matrix(&st16;  2154.98  454.18 )">(-S)</text><text style="&st18;" transform="matrix(&st16;  2192.88  454.18 )">1</text><text ewd:textID="168" style="&st18;" transform="matrix(&st16;  2083.0  493.84 )">WIP2 Relay</text><text style="&st18;" transform="matrix(&st16;  2154.98  488.17 )">(-S)</text><text style="&st18;" transform="matrix(&st16;  2192.88  488.17 )">1</text></g><g ewd:code="32" ewd:comment="" ewd:figID="288" ewd:figtype="comment"><text ewd:textID="22" style="&st18;" transform="matrix(&st16;  2112.74  233.22 )">*32 :w/ VSC</text></g><g ewd:code="10" ewd:comment="" ewd:figID="254" ewd:figtype="comment"><text ewd:textID="8" style="&st18;" transform="matrix(&st16;  2112.74  190.72 )">*10 :12V Battery Type</text></g><g ewd:code="22" ewd:comment="" ewd:figID="294" ewd:figtype="comment"><text ewd:textID="16" style="&st18;" transform="matrix(&st16;  2112.74  216.22 )">*22 :Australia</text></g><g ewd:code="12" ewd:comment="" ewd:figID="305" ewd:figtype="comment"><text ewd:textID="10" style="&st18;" transform="matrix(&st16;  2112.74  207.72 )">*12 :Soft Top Body Type</text></g><g ewd:code="23" ewd:comment="" ewd:figID="264" ewd:figtype="comment"><text ewd:textID="17" style="&st18;" transform="matrix(&st16;  2112.74  224.72 )">*23 :Except Australia</text></g><g ewd:code="33" ewd:comment="" ewd:figID="293" ewd:figtype="comment"><text ewd:textID="23" style="&st18;" transform="matrix(&st16;  2112.74  241.71 )">*33 :w/ ABS (w/o VSC)</text></g><g ewd:code="11" ewd:comment="" ewd:figID="257" ewd:figtype="comment"><text ewd:textID="9" style="&st18;" transform="matrix(&st16;  2112.74  199.22 )">*11 :24V Battery Type</text></g><g ewd:code="3" ewd:comment="" ewd:figID="287" ewd:figtype="comment"><text style="&st18;" transform="matrix(&st16;  2112.74  182.22 )">* 3 :1VD-FTV</text></g><g ewd:code="43" ewd:comment="" ewd:figID="311" ewd:figtype="comment"><text ewd:textID="33" style="&st18;" transform="matrix(&st16;  2223.22  182.22 )">*43 :Except Large Type</text></g><g ewd:code="2" ewd:comment="" ewd:figID="260" ewd:figtype="comment"><text style="&st18;" transform="matrix(&st16;  2112.74  173.73 )">* 2 :1HZ</text></g><g ewd:code="46" ewd:comment="" ewd:figID="306" ewd:figtype="comment"><text ewd:textID="36" style="&st18;" transform="matrix(&st16;  2223.22  190.72 )">*46 :w/o Pre-Collision System</text></g><g ewd:code="47" ewd:comment="" ewd:figID="309" ewd:figtype="comment"><text ewd:textID="37" style="&st18;" transform="matrix(&st16;  2223.22  199.22 )">*47 :w/ Pre-Collision System</text></g><g ewd:code="42" ewd:comment="" ewd:figID="310" ewd:figtype="comment"><text ewd:textID="32" style="&st18;" transform="matrix(&st16;  2223.22  173.73 )">*42 :Large Type</text></g></svg>
