<?xml version="1.0" encoding="utf-8"?>
<!DOCTYPE svg PUBLIC "-//W3C//DTD SVG 1.0//EN" "http://www.w3.org/TR/2001/REC-SVG-20010904/DTD/svg10.dtd"[
	<!ENTITY ns_flows "http://ns.adobe.com/Flows/1.0/">
	<!ENTITY ns_svg "http://www.w3.org/2000/svg">
	<!ENTITY ns_xlink "http://www.w3.org/1999/xlink">
	<!ENTITY st0 "font-size:7px;font-family:'MS-PGothic';adobe-font-script:japanese;">
	<!ENTITY st1 "font-size:6px;font-family:'ArialMT';">
	<!-- White fill  -->
	<!ENTITY st2 "fill:#FFFFFF;stroke:#000000; stroke-width:1.41;stroke-linecap:round;stroke-linejoin:round;">
	<!-- Yellow fill  -->
	<!ENTITY st3 "fill:#FFFFCC;stroke:#FFFFCC; stroke-width:0.1;stroke-linecap:round;stroke-linejoin:round;">
	<!-- Gray fill  -->
	<!ENTITY st4 "fill:#CCCCCC;stroke:#CCCCCC; stroke-width:0.1;stroke-linecap:round;stroke-linejoin:round;">
	<!-- Light-blue fill -->
	<!ENTITY st5 "fill:#CCECF4;stroke:#000000; stroke-width:1.133;stroke-linecap:round;stroke-linejoin:round;">
	<!ENTITY st6 "fill:none;stroke-linecap:butt; stroke-linejoin:round;">
	<!ENTITY st7 "fill:none;stroke:#000000;stroke-linecap:round;stroke-linejoin:round;">
	<!ENTITY st8 "enable-background:new    ;">
	<!-- Black fill -->
	<!ENTITY st9 "fill:#000000;stroke:#000000; stroke-linecap:round;stroke-linejoin:round;">
	<!-- SRS note   -->
	<!ENTITY st10 "font-size:9px;font-family:'ArialMT';">
	<!ENTITY st11 "font-size:9px;font-family:'Svg Symbol';">
	<!ENTITY st12 "font-size:6px;font-family:'Svg Symbol';">
	<!ENTITY st13 "fill:none;stroke:#ff0000;stroke-linecap:round;stroke-linejoin:round;">
	<!-- Yellow fill  -->
	<!ENTITY st14 "fill:#FFFF00;stroke:#FFFF00; stroke-width:0.1;stroke-linecap:round;stroke-linejoin:round;">
	<!ENTITY st15 "font-size:6px;font-family:'MS-PGothic';adobe-font-script:japanese;">
	<!ENTITY st16 "1.00 0.00 0.00 1.00">
	<!ENTITY st17 "0.00 -1.00 1.00 0.00">
	<!ENTITY st18 "font-size:6px;font-family:'Arial';">
	<!ENTITY st19 "font-size:9px;font-family:'Arial';">
	<!ENTITY st20 "font-size:6px;font-family:'MS-PGothic','MS PGothic';adobe-font-script:japanese;">
	<!ENTITY st21 "font-size:7px;font-family:'MS-PGothic','MS PGothic';adobe-font-script:japanese;">
	<!ATTLIST svg
		xmlns:ewd CDATA #FIXED "http://shcl.co.jp/ewd"
		xmlns:a CDATA #FIXED "http://ns.adobe.com/AdobeSVGViewerExtensions/3.0/"
		ewd:ver CDATA #IMPLIED
	>
	<!ATTLIST a
		ewd:lineID CDATA #IMPLIED
		ewd:groupID CDATA #IMPLIED
		ewd:figtype CDATA #IMPLIED
		ewd:code CDATA #IMPLIED
		ewd:figID CDATA #IMPLIED
		ewd:pinNo CDATA #IMPLIED
		ewd:comment CDATA #IMPLIED >
	<!ATTLIST g
		ewd:lineID CDATA #IMPLIED
		ewd:groupID CDATA #IMPLIED
		ewd:figtype CDATA #IMPLIED
		ewd:code CDATA #IMPLIED
		ewd:figID CDATA #IMPLIED
		ewd:pinNo CDATA #IMPLIED
		ewd:comment CDATA #IMPLIED >
	<!ATTLIST text
		ewd:textID CDATA #IMPLIED >
	<!ATTLIST title
		ewd:textID CDATA #IMPLIED >
]>
<!-- Generator: Shintec Hozumi YS   -->
<svg onload="call_execInitLoadProc_svg('system')" style="overflow:visible;  enable-background:new 0 0 7262.774 710.000" viewBox="0 0 7262.774 710.000" height="710.000" width="7262.774" xml:space="preserve" ewd:ver="2.3.1.16" xmlns="&ns_svg;" xmlns:a="http://ns.adobe.com/AdobeSVGViewerExtensions/3.0/" xmlns:ewd="http://shcl.co.jp/ewd" xmlns:xlink="&ns_xlink;">
<text style="&st18;" transform="matrix(&st16;  3119.82  571.72 )">A3</text><text style="&st18;" transform="matrix(&st16;  3119.82  537.72 )">A1</text><text style="&st18;" transform="matrix(&st16;  3119.82  503.73 )">A38</text><path d=" M  3297.45,   176.01  L  3297.45,   180.26  " style="stroke-width: 1.42 ;&st7;  " /><path d=" M  3458.92,   265.24  L  3467.42,   265.24  " style="stroke-width: 1.42 ;&st7;  " /><path d=" M  3475.92,   180.26  L  3467.42,   180.26  " style="stroke-width: 1.42 ;&st7;  " /><path d=" M  3280.45,    95.27  L  3280.45,    99.52  " style="stroke-width: 1.42 ;&st7;  " /><text style="&st18;" transform="matrix(&st16;  3119.82  248.77 )">A11</text><text style="&st18;" transform="matrix(&st16;  3119.82  214.78 )">A29</text><text style="&st18;" transform="matrix(&st16;  3119.82  180.78 )">m3</text><text style="&st18;" transform="matrix(&st16;  3119.82  146.79 )">A39</text><text style="&st18;" transform="matrix(&st16;  3119.82  95.8 )">C35</text><text style="&st18;" transform="matrix(&st16;  3231.74  91.57 )">W-B</text><text style="&st18;" transform="matrix(&st16;  3231.74  142.56 )">W-B</text><text style="&st18;" transform="matrix(&st16;  3231.74  176.56 )">W-B</text><text style="&st18;" transform="matrix(&st16;  3231.74  210.55 )">W-B</text><text style="&st18;" transform="matrix(&st16;  3231.74  244.55 )">W-B</text><text style="&st18;" transform="matrix(&st16;  3333.72  176.56 )">W-B</text><text style="&st18;" transform="matrix(&st16;  3333.72  91.57 )">W-B</text><text style="&st18;" transform="matrix(&st16;  3299.73  363.53 )">W-B</text><text style="&st18;" transform="matrix(&st16;  3299.73  397.52 )">W-B</text><text style="&st18;" transform="matrix(&st16;  3299.73  431.52 )">W-B</text><text style="&st18;" transform="matrix(&st16;  3299.73  499.5 )">W-B</text><text style="&st18;" transform="matrix(&st16;  3299.73  533.5 )">W-B</text><text style="&st18;" transform="matrix(&st16;  3299.73  567.49 )">W-B</text><text style="&st18;" transform="matrix(&st16;  3427.21  295.54 )">W-B</text><text style="&st18;" transform="matrix(&st16;  3427.21  321.03 )">W-B</text><text style="&st18;" transform="matrix(&st16;  3495.19  125.57 )">W-B</text><text style="&st18;" transform="matrix(&st17;  3463.73  228.47 )">W-B</text><text style="&st18;" transform="matrix(&st17;  3446.73  624.21 )">W-B(*1)</text><text style="&st18;" transform="matrix(&st17;  3463.73  619.4 )">W-B</text><text style="&st18;" transform="matrix(&st17;  3475.06  227.31 )">(*1)</text><text style="&st18;" transform="matrix(&st16;  3119.82  614.21 )">A20</text><text ewd:textID="48" style="&st18;" transform="matrix(&st16;  3119.82  621.32 )">Brake Actuator <tspan dy="6.0" x="0 ">Assembly</tspan></text><text style="&st18;" transform="matrix(&st16;  3231.74  609.99 )">W-B</text><text style="&st18;" transform="matrix(&st16;  3367.72  609.99 )">W-B</text><text style="&st18;" transform="matrix(&st16;  3299.73  465.51 )">W-B</text><path d=" M  3042.63,   546.71  C  3040.73    548.85   3040.67    551.98   3042.49    554.19  " style="stroke-width: 1.42 ;&st7;   " /><path d=" M  3042.63,   572.20  C  3040.73    574.35   3040.67    577.48   3042.49    579.69  " style="stroke-width: 1.42 ;&st7;   " /><text style="&st18;" transform="matrix(&st16;  3078.76  23.58 )">W-B</text><text style="&st18;" transform="matrix(&st16;  3078.76  57.58 )">W-B</text><text style="&st18;" transform="matrix(&st16;  3129.76  57.58 )">W-B</text><text style="&st18;" transform="matrix(&st16;  3129.76  23.58 )">W-B</text><text ewd:textID="96" style="&st18;" transform="matrix(&st16;  3119.82  578.82 )">Headlight Assembly LH</text><text ewd:textID="96" style="&st18;" transform="matrix(&st16;  3119.82  544.83 )">Headlight Assembly LH</text><text ewd:textID="96" style="&st18;" transform="matrix(&st16;  3119.82  510.84 )">Headlight Assembly LH</text><text ewd:textID="156" style="&st18;" transform="matrix(&st16;  3119.82  255.88 )">Side Turn Signal <tspan dy="6.0" x="0 ">Light Assembly LH</tspan></text><text style="&st18;" transform="matrix(&st16;  3119.82  221.88 )">ECM</text><text ewd:textID="124" style="&st18;" transform="matrix(&st16;  3119.82  187.89 )">No. 1 Magnet <tspan dy="6.0" x="0 ">Switch Assembly</tspan></text><text ewd:textID="171" style="&st18;" transform="matrix(&st16;  3119.82  153.9 )">Windshield Wiper <tspan dy="6.0" x="0 ">Motor Assembly</tspan></text><text ewd:textID="51" style="&st18;" transform="matrix(&st16;  3119.82  102.9 )">Center Differential <tspan dy="6.0" x="0 ">Lock Indicator Switch </tspan><tspan dy="6.0" x="0 ">(No. 1 Transfer </tspan><tspan dy="6.0" x="0 ">Indicator Switch)</tspan></text><text style="&st18;" transform="matrix(&st16;  3079.93  68.91 )">(*3)</text><text style="&st18;" transform="matrix(&st16;  3232.9  187.89 )">(*1)</text><text style="&st18;" transform="matrix(&st16;  3334.88  187.89 )">(*1)</text><text style="&st18;" transform="matrix(&st16;  3079.93  34.92 )">(*2)</text><text style="&st18;" transform="matrix(&st16;  3130.92  34.92 )">(*2)</text><text style="&st18;" transform="matrix(&st16;  3130.92  68.91 )">(*3)</text><text style="&st18;" transform="matrix(&st16;  3003.44  561.83 )">(*3)</text><text style="&st18;" transform="matrix(&st16;  3003.44  587.32 )">(*3)</text><text style="&st18;" transform="matrix(&st16;  3232.9  102.9 )">(*1)</text><text style="&st18;" transform="matrix(&st16;  3232.9  153.9 )">(*1)</text><text style="&st18;" transform="matrix(&st16;  3232.9  221.88 )">(*1)</text><text style="&st18;" transform="matrix(&st16;  3232.9  255.88 )">(*1)</text><text style="&st18;" transform="matrix(&st16;  3334.88  102.9 )">(*1)</text><text style="&st18;" transform="matrix(&st16;  3496.36  136.9 )">(*1)</text><text style="&st18;" transform="matrix(&st16;  3428.37  306.87 )">(*1)</text><text style="&st18;" transform="matrix(&st16;  3428.37  332.37 )">(*1)</text><text style="&st18;" transform="matrix(&st17;  3475.06  618.24 )">(*1)</text><text style="&st18;" transform="matrix(&st16;  3300.89  374.86 )">(*1)</text><text style="&st18;" transform="matrix(&st16;  3300.89  408.85 )">(*1)</text><text style="&st18;" transform="matrix(&st16;  3300.89  442.85 )">(*1)</text><text style="&st18;" transform="matrix(&st16;  3300.89  476.84 )">(*1)</text><text style="&st18;" transform="matrix(&st16;  3300.89  510.84 )">(*1)</text><text style="&st18;" transform="matrix(&st16;  3300.89  544.83 )">(*1)</text><text style="&st18;" transform="matrix(&st16;  3300.89  578.82 )">(*1)</text><text style="&st18;" transform="matrix(&st16;  3232.9  621.32 )">(*1)</text><text style="&st18;" transform="matrix(&st16;  3368.88  621.32 )">(*1)</text><text style="&st18;" transform="matrix(&st16;  3043.33  197.78 )">A11</text><text ewd:textID="156" style="&st18;" transform="matrix(&st16;  3043.34  204.89 )">Side Turn <tspan dy="6.0" x="0 ">Signal Light </tspan><tspan dy="6.0" x="0 ">Assembly LH</tspan></text><text style="&st18;" transform="matrix(&st16;  3043.33  240.27 )">A44</text><text ewd:textID="156" style="&st18;" transform="matrix(&st16;  3043.34  247.38 )">Side Turn <tspan dy="6.0" x="0 ">Signal Light </tspan><tspan dy="6.0" x="0 ">Assembly LH</tspan></text><text style="&st18;" transform="matrix(&st16;  3193.74  573.16 )">(E)</text><path d=" M  3118.98,   562.69  L  3118.98,   588.19  L  3203.96,   588.19  L  3203.96,   562.69  L  3118.98,   562.69  " style="stroke-width: 1.42 ;&st7;  " /><text style="&st18;" transform="matrix(&st16;  3193.74  539.16 )">(B)</text><path d=" M  3118.98,   528.70  L  3118.98,   554.19  L  3203.96,   554.19  L  3203.96,   528.70  L  3118.98,   528.70  " style="stroke-width: 1.42 ;&st7;  " /><text style="&st18;" transform="matrix(&st16;  3193.74  505.17 )">(E)</text><path d=" M  3118.98,   494.70  L  3118.98,   520.20  L  3203.96,   520.20  L  3203.96,   494.70  L  3118.98,   494.70  " style="stroke-width: 1.42 ;&st7;  " /><text style="&st18;" transform="matrix(&st16;  3193.74  250.21 )">(E)</text><path d=" M  3118.98,   239.75  L  3118.98,   265.24  L  3203.96,   265.24  L  3203.96,   239.75  L  3118.98,   239.75  " style="stroke-width: 1.42 ;&st7;  " /><text style="&st18;" transform="matrix(&st16;  3189.4  216.22 )">(EC)</text><path d=" M  3118.98,   205.75  L  3118.98,   231.25  L  3203.96,   231.25  L  3203.96,   205.75  L  3118.98,   205.75  " style="stroke-width: 1.42 ;&st7;  " /><text style="&st18;" transform="matrix(&st16;  3193.74  182.22 )">(E)</text><path d=" M  3118.98,   171.76  L  3118.98,   197.25  L  3203.96,   197.25  L  3203.96,   171.76  L  3118.98,   171.76  " style="stroke-width: 1.42 ;&st7;  " /><text style="&st18;" transform="matrix(&st16;  3193.74  148.23 )">(E)</text><path d=" M  3118.98,   137.76  L  3118.98,   163.26  L  3203.96,   163.26  L  3203.96,   137.76  L  3118.98,   137.76  " style="stroke-width: 1.42 ;&st7;  " /><text style="&st18;" transform="matrix(&st16;  3184.44  97.24 )">(GND)</text><path d=" M  3118.98,    86.77  L  3118.98,   129.26  L  3203.96,   129.26  L  3203.96,    86.77  L  3118.98,    86.77  " style="stroke-width: 1.42 ;&st7;  " /><path d=" M  3118.98,   605.18  L  3118.98,   630.68  L  3203.96,   630.68  L  3203.96,   605.18  L  3118.98,   605.18  " style="stroke-width: 1.42 ;&st7;  " /><text style="&st18;" transform="matrix(&st16;  3181.1  615.65 )">(GND2)</text><path d=" M  3016.99,   188.75  L  3016.99,   222.75  L  3101.98,   222.75  L  3101.98,   188.75  L  3016.99,   188.75  " style="stroke-width: 1.42 ;&st7;  " /><text style="&st18;" transform="matrix(&st16;  3018.73  199.22 )">(E)</text><path d=" M  3016.99,   231.25  L  3016.99,   265.24  L  3101.98,   265.24  L  3101.98,   231.25  L  3016.99,   231.25  " style="stroke-width: 1.42 ;&st7;  " /><text style="&st18;" transform="matrix(&st16;  3018.73  241.71 )">(E)</text><g ewd:code="A23" ewd:figID="4" ewd:figtype="conn"><g ewd:lineID="219"><text style="&st18;" transform="matrix(&st16;  3376.02  241.71 )">8</text><text style="&st18;" transform="matrix(&st16;  3375.64  250.21 )">A</text><path d=" M  3382.43,   248.24  C  3382.43    245.74   3380.41    243.71   3377.90    243.71  " style="stroke-width: 1.42 ;&st7;   " /><path d=" M  3377.90,   243.71  C  3375.40    243.71   3373.37    245.74   3373.37    248.24  " style="stroke-width: 1.42 ;&st7;   " /><path d=" M  3373.37,   248.24  C  3373.37    250.75   3375.40    252.78   3377.90    252.78  " style="stroke-width: 1.42 ;&st7;   " /><path d=" M  3377.90,   252.78  C  3380.41    252.78   3382.43    250.75   3382.43    248.24  " style="stroke-width: 1.42 ;&st7;   " /></g><g ewd:lineID="220"><text style="&st18;" transform="matrix(&st16;  3376.02  207.72 )">7</text><path d=" M  3382.43,   214.25  C  3382.43    211.75   3380.41    209.72   3377.90    209.72  " style="stroke-width: 1.42 ;&st7;   " /><path d=" M  3377.90,   209.72  C  3375.40    209.72   3373.37    211.75   3373.37    214.25  " style="stroke-width: 1.42 ;&st7;   " /><path d=" M  3373.37,   214.25  C  3373.37    216.75   3375.40    218.78   3377.90    218.78  " style="stroke-width: 1.42 ;&st7;   " /><path d=" M  3377.90,   218.78  C  3380.41    218.78   3382.43    216.75   3382.43    214.25  " style="stroke-width: 1.42 ;&st7;   " /><text style="&st18;" transform="matrix(&st16;  3375.64  216.22 )">A</text></g><g ewd:lineID="221"><text style="&st18;" transform="matrix(&st16;  3376.02  173.73 )">6</text><text style="&st18;" transform="matrix(&st16;  3375.64  182.22 )">A</text><path d=" M  3382.43,   180.26  C  3382.43    177.75   3380.41    175.72   3377.90    175.72  " style="stroke-width: 1.42 ;&st7;   " /><path d=" M  3377.90,   175.72  C  3375.40    175.72   3373.37    177.75   3373.37    180.26  " style="stroke-width: 1.42 ;&st7;   " /><path d=" M  3373.37,   180.26  C  3373.37    182.76   3375.40    184.79   3377.90    184.79  " style="stroke-width: 1.42 ;&st7;   " /><path d=" M  3377.90,   184.79  C  3380.41    184.79   3382.43    182.76   3382.43    180.26  " style="stroke-width: 1.42 ;&st7;   " /></g><g ewd:lineID="222"><text style="&st18;" transform="matrix(&st16;  3376.02  139.73 )">4</text><text style="&st18;" transform="matrix(&st16;  3375.64  148.23 )">A</text><path d=" M  3382.43,   146.26  C  3382.43    143.76   3380.41    141.73   3377.90    141.73  " style="stroke-width: 1.42 ;&st7;   " /><path d=" M  3377.90,   141.73  C  3375.40    141.73   3373.37    143.76   3373.37    146.26  " style="stroke-width: 1.42 ;&st7;   " /><path d=" M  3373.37,   146.26  C  3373.37    148.76   3375.40    150.79   3377.90    150.79  " style="stroke-width: 1.42 ;&st7;   " /><path d=" M  3377.90,   150.79  C  3380.41    150.79   3382.43    148.76   3382.43    146.26  " style="stroke-width: 1.42 ;&st7;   " /></g><g ewd:lineID="223"><text style="&st18;" transform="matrix(&st16;  3376.02  88.74 )">2</text><text style="&st18;" transform="matrix(&st16;  3375.64  97.24 )">A</text><path d=" M  3382.43,    95.27  C  3382.43     92.77   3380.41     90.74   3377.90     90.74  " style="stroke-width: 1.42 ;&st7;   " /><path d=" M  3377.90,    90.74  C  3375.40     90.74   3373.37     92.77   3373.37     95.27  " style="stroke-width: 1.42 ;&st7;   " /><path d=" M  3373.37,    95.27  C  3373.37     97.77   3375.40     99.80   3377.90     99.80  " style="stroke-width: 1.42 ;&st7;   " /><path d=" M  3377.90,    99.80  C  3380.41     99.80   3382.43     97.77   3382.43     95.27  " style="stroke-width: 1.42 ;&st7;   " /></g><g ewd:lineID="225"><text style="&st18;" transform="matrix(&st16;  3402.09  318.2 )">1</text><text style="&st18;" transform="matrix(&st16;  3401.7  326.7 )">A</text><path d=" M  3408.50,   324.73  C  3408.50    322.23   3406.47    320.20   3403.96    320.20  " style="stroke-width: 1.42 ;&st7;   " /><path d=" M  3403.96,   320.20  C  3401.46    320.20   3399.43    322.23   3399.43    324.73  " style="stroke-width: 1.42 ;&st7;   " /><path d=" M  3399.43,   324.73  C  3399.43    327.23   3401.46    329.26   3403.96    329.26  " style="stroke-width: 1.42 ;&st7;   " /><path d=" M  3403.96,   329.26  C  3406.47    329.26   3408.50    327.23   3408.50    324.73  " style="stroke-width: 1.42 ;&st7;   " /></g><g ewd:lineID="226"><text style="&st18;" transform="matrix(&st16;  3402.09  292.71 )">5</text><text style="&st18;" transform="matrix(&st16;  3401.7  301.2 )">A</text><path d=" M  3408.50,   299.24  C  3408.50    296.73   3406.47    294.70   3403.96    294.70  " style="stroke-width: 1.42 ;&st7;   " /><path d=" M  3403.96,   294.70  C  3401.46    294.70   3399.43    296.73   3399.43    299.24  " style="stroke-width: 1.42 ;&st7;   " /><path d=" M  3399.43,   299.24  C  3399.43    301.74   3401.46    303.77   3403.96    303.77  " style="stroke-width: 1.42 ;&st7;   " /><path d=" M  3403.96,   303.77  C  3406.47    303.77   3408.50    301.74   3408.50    299.24  " style="stroke-width: 1.42 ;&st7;   " /></g><g ewd:lineID="227"><text style="&st18;" transform="matrix(&st16;  3402.09  88.74 )">3</text><text style="&st18;" transform="matrix(&st16;  3401.7  97.24 )">A</text><path d=" M  3408.50,    95.27  C  3408.50     92.77   3406.47     90.74   3403.96     90.74  " style="stroke-width: 1.42 ;&st7;   " /><path d=" M  3403.96,    90.74  C  3401.46     90.74   3399.43     92.77   3399.43     95.27  " style="stroke-width: 1.42 ;&st7;   " /><path d=" M  3399.43,    95.27  C  3399.43     97.77   3401.46     99.80   3403.96     99.80  " style="stroke-width: 1.42 ;&st7;   " /><path d=" M  3403.96,    99.80  C  3406.47     99.80   3408.50     97.77   3408.50     95.27  " style="stroke-width: 1.42 ;&st7;   " /></g><path d=" M  3382.43,    86.77  L  3382.43,   333.23  L  3399.43,   333.23  L  3399.43,    86.77  L  3382.43,    86.77  " style="stroke-width: 1.42 ;&st7;  " /><path d=" M  3382.43,    95.27  L  3399.43,    95.27  " style="stroke-width: 0.85 ;&st7;  " /><path d=" M  3390.93,    95.27  L  3390.93,   324.73  L  3399.43,   324.73  " style="stroke-width: 0.85 ;&st7;  " /><path d=" M  3390.93,   299.24  L  3399.43,   299.24  " style="stroke-width: 0.85 ;&st7;  " /><path d=" M  3382.43,   146.26  L  3390.93,   146.26  " style="stroke-width: 0.85 ;&st7;  " /><path d=" M  3382.43,   180.26  L  3390.93,   180.26  " style="stroke-width: 0.85 ;&st7;  " /><path d=" M  3382.43,   214.25  L  3390.93,   214.25  " style="stroke-width: 0.85 ;&st7;  " /><path d=" M  3382.43,   248.24  L  3390.93,   248.24  " style="stroke-width: 0.85 ;&st7;  " /><path d=" M  3389.74,    94.27  L  3389.47,    94.74  L  3389.37,    95.27  L  3389.47,    95.80  L  3389.74,    96.27  L  3390.15,    96.62  L  3390.66,    96.81  L  3391.20,    96.81  L  3391.71,    96.62  L  3392.12,    96.27  L  3392.40,    95.80  L  3392.49,    95.27  L  3392.40,    94.74  L  3392.12,    94.27  L  3391.71,    93.92  L  3391.20,    93.73  L  3390.66,    93.73  L  3390.15,    93.92  L  3389.74,    94.27  L  3390.13,    94.98  L  3390.13,    95.56  L  3390.51,    96.01  L  3391.08,    96.11  L  3391.58,    95.82  L  3391.78,    95.27  L  3391.58,    94.72  L  3391.08,    94.43  L  3390.51,    94.53  L  3390.93,    95.27  " style="stroke-width: 0.85 ;&st7;  " /><path d=" M  3389.74,   145.26  L  3389.47,   145.73  L  3389.37,   146.26  L  3389.47,   146.79  L  3389.74,   147.26  L  3390.15,   147.61  L  3390.66,   147.80  L  3391.20,   147.80  L  3391.71,   147.61  L  3392.12,   147.26  L  3392.40,   146.79  L  3392.49,   146.26  L  3392.40,   145.73  L  3392.12,   145.26  L  3391.71,   144.91  L  3391.20,   144.73  L  3390.66,   144.73  L  3390.15,   144.91  L  3389.74,   145.26  L  3390.13,   145.97  L  3390.13,   146.55  L  3390.51,   147.00  L  3391.08,   147.10  L  3391.58,   146.81  L  3391.78,   146.26  L  3391.58,   145.71  L  3391.08,   145.43  L  3390.51,   145.52  L  3390.93,   146.26  " style="stroke-width: 0.85 ;&st7;  " /><path d=" M  3389.74,   179.25  L  3389.47,   179.72  L  3389.37,   180.26  L  3389.47,   180.79  L  3389.74,   181.26  L  3390.15,   181.60  L  3390.66,   181.79  L  3391.20,   181.79  L  3391.71,   181.60  L  3392.12,   181.26  L  3392.40,   180.79  L  3392.49,   180.26  L  3392.40,   179.72  L  3392.12,   179.25  L  3391.71,   178.91  L  3391.20,   178.72  L  3390.66,   178.72  L  3390.15,   178.91  L  3389.74,   179.25  L  3390.13,   179.96  L  3390.13,   180.55  L  3390.51,   180.99  L  3391.08,   181.09  L  3391.58,   180.80  L  3391.78,   180.26  L  3391.58,   179.71  L  3391.08,   179.42  L  3390.51,   179.52  L  3390.93,   180.26  " style="stroke-width: 0.85 ;&st7;  " /><path d=" M  3389.74,   213.25  L  3389.47,   213.72  L  3389.37,   214.25  L  3389.47,   214.78  L  3389.74,   215.25  L  3390.15,   215.60  L  3390.66,   215.79  L  3391.20,   215.79  L  3391.71,   215.60  L  3392.12,   215.25  L  3392.40,   214.78  L  3392.49,   214.25  L  3392.40,   213.72  L  3392.12,   213.25  L  3391.71,   212.90  L  3391.20,   212.71  L  3390.66,   212.71  L  3390.15,   212.90  L  3389.74,   213.25  L  3390.13,   213.96  L  3390.13,   214.54  L  3390.51,   214.99  L  3391.08,   215.09  L  3391.58,   214.80  L  3391.78,   214.25  L  3391.58,   213.70  L  3391.08,   213.41  L  3390.51,   213.51  L  3390.93,   214.25  " style="stroke-width: 0.85 ;&st7;  " /><path d=" M  3389.74,   247.24  L  3389.47,   247.71  L  3389.37,   248.24  L  3389.47,   248.78  L  3389.74,   249.25  L  3390.15,   249.59  L  3390.66,   249.78  L  3391.20,   249.78  L  3391.71,   249.59  L  3392.12,   249.25  L  3392.40,   248.78  L  3392.49,   248.24  L  3392.40,   247.71  L  3392.12,   247.24  L  3391.71,   246.90  L  3391.20,   246.71  L  3390.66,   246.71  L  3390.15,   246.90  L  3389.74,   247.24  L  3390.13,   247.95  L  3390.13,   248.54  L  3390.51,   248.98  L  3391.08,   249.08  L  3391.58,   248.79  L  3391.78,   248.24  L  3391.58,   247.70  L  3391.08,   247.41  L  3390.51,   247.51  L  3390.93,   248.24  " style="stroke-width: 0.85 ;&st7;  " /><path d=" M  3389.74,   298.23  L  3389.47,   298.70  L  3389.37,   299.24  L  3389.47,   299.77  L  3389.74,   300.24  L  3390.15,   300.58  L  3390.66,   300.77  L  3391.20,   300.77  L  3391.71,   300.58  L  3392.12,   300.24  L  3392.40,   299.77  L  3392.49,   299.24  L  3392.40,   298.70  L  3392.12,   298.23  L  3391.71,   297.89  L  3391.20,   297.70  L  3390.66,   297.70  L  3390.15,   297.89  L  3389.74,   298.23  L  3390.13,   298.94  L  3390.13,   299.53  L  3390.51,   299.97  L  3391.08,   300.07  L  3391.58,   299.78  L  3391.78,   299.24  L  3391.58,   298.69  L  3391.08,   298.40  L  3390.51,   298.50  L  3390.93,   299.24  " style="stroke-width: 0.85 ;&st7;  " /><path d=" M  3382.43,    95.27  C  3382.43     92.77   3380.41     90.74   3377.90     90.74  " style="stroke-width: 1.42 ;&st7;   " /><path d=" M  3377.90,    90.74  C  3375.40     90.74   3373.37     92.77   3373.37     95.27  " style="stroke-width: 1.42 ;&st7;   " /><path d=" M  3373.37,    95.27  C  3373.37     97.77   3375.40     99.80   3377.90     99.80  " style="stroke-width: 1.42 ;&st7;   " /><path d=" M  3377.90,    99.80  C  3380.41     99.80   3382.43     97.77   3382.43     95.27  " style="stroke-width: 1.42 ;&st7;   " /><path d=" M  3382.43,   146.26  C  3382.43    143.76   3380.41    141.73   3377.90    141.73  " style="stroke-width: 1.42 ;&st7;   " /><path d=" M  3377.90,   141.73  C  3375.40    141.73   3373.37    143.76   3373.37    146.26  " style="stroke-width: 1.42 ;&st7;   " /><path d=" M  3373.37,   146.26  C  3373.37    148.76   3375.40    150.79   3377.90    150.79  " style="stroke-width: 1.42 ;&st7;   " /><path d=" M  3377.90,   150.79  C  3380.41    150.79   3382.43    148.76   3382.43    146.26  " style="stroke-width: 1.42 ;&st7;   " /><path d=" M  3382.43,   180.26  C  3382.43    177.75   3380.41    175.72   3377.90    175.72  " style="stroke-width: 1.42 ;&st7;   " /><path d=" M  3377.90,   175.72  C  3375.40    175.72   3373.37    177.75   3373.37    180.26  " style="stroke-width: 1.42 ;&st7;   " /><path d=" M  3373.37,   180.26  C  3373.37    182.76   3375.40    184.79   3377.90    184.79  " style="stroke-width: 1.42 ;&st7;   " /><path d=" M  3377.90,   184.79  C  3380.41    184.79   3382.43    182.76   3382.43    180.26  " style="stroke-width: 1.42 ;&st7;   " /><path d=" M  3382.43,   214.25  C  3382.43    211.75   3380.41    209.72   3377.90    209.72  " style="stroke-width: 1.42 ;&st7;   " /><path d=" M  3377.90,   209.72  C  3375.40    209.72   3373.37    211.75   3373.37    214.25  " style="stroke-width: 1.42 ;&st7;   " /><path d=" M  3373.37,   214.25  C  3373.37    216.75   3375.40    218.78   3377.90    218.78  " style="stroke-width: 1.42 ;&st7;   " /><path d=" M  3377.90,   218.78  C  3380.41    218.78   3382.43    216.75   3382.43    214.25  " style="stroke-width: 1.42 ;&st7;   " /><path d=" M  3382.43,   248.24  C  3382.43    245.74   3380.41    243.71   3377.90    243.71  " style="stroke-width: 1.42 ;&st7;   " /><path d=" M  3377.90,   243.71  C  3375.40    243.71   3373.37    245.74   3373.37    248.24  " style="stroke-width: 1.42 ;&st7;   " /><path d=" M  3373.37,   248.24  C  3373.37    250.75   3375.40    252.78   3377.90    252.78  " style="stroke-width: 1.42 ;&st7;   " /><path d=" M  3377.90,   252.78  C  3380.41    252.78   3382.43    250.75   3382.43    248.24  " style="stroke-width: 1.42 ;&st7;   " /><g ewd:figtype="title"><text style="&st18;" transform="matrix(&st17;  3407.33  251.14 )">A23(A)</text><text ewd:textID="129" style="&st18;" transform="matrix(&st17;  3414.15  251.15 )">No. 2 Junction <tspan dy="6.0" x="0 ">Connector</tspan></text></g></g><g ewd:code="A22" ewd:figID="5" ewd:figtype="conn"><g ewd:lineID="212"><text style="&st18;" transform="matrix(&st16;  3376.02  564.66 )">8</text><path d=" M  3382.43,   571.19  C  3382.43    568.69   3380.41    566.66   3377.90    566.66  " style="stroke-width: 1.42 ;&st7;   " /><path d=" M  3377.90,   566.66  C  3375.40    566.66   3373.37    568.69   3373.37    571.19  " style="stroke-width: 1.42 ;&st7;   " /><path d=" M  3373.37,   571.19  C  3373.37    573.69   3375.40    575.72   3377.90    575.72  " style="stroke-width: 1.42 ;&st7;   " /><path d=" M  3377.90,   575.72  C  3380.41    575.72   3382.43    573.69   3382.43    571.19  " style="stroke-width: 1.42 ;&st7;   " /><text style="&st18;" transform="matrix(&st16;  3375.64  573.16 )">A</text></g><g ewd:lineID="213"><text style="&st18;" transform="matrix(&st16;  3376.02  530.67 )">7</text><path d=" M  3382.43,   537.20  C  3382.43    534.69   3380.41    532.66   3377.90    532.66  " style="stroke-width: 1.42 ;&st7;   " /><path d=" M  3377.90,   532.66  C  3375.40    532.66   3373.37    534.69   3373.37    537.20  " style="stroke-width: 1.42 ;&st7;   " /><path d=" M  3373.37,   537.20  C  3373.37    539.70   3375.40    541.73   3377.90    541.73  " style="stroke-width: 1.42 ;&st7;   " /><path d=" M  3377.90,   541.73  C  3380.41    541.73   3382.43    539.70   3382.43    537.20  " style="stroke-width: 1.42 ;&st7;   " /><text style="&st18;" transform="matrix(&st16;  3375.64  539.16 )">A</text></g><g ewd:lineID="214"><text style="&st18;" transform="matrix(&st16;  3376.02  496.67 )">6</text><path d=" M  3382.43,   503.20  C  3382.43    500.70   3380.41    498.67   3377.90    498.67  " style="stroke-width: 1.42 ;&st7;   " /><path d=" M  3377.90,   498.67  C  3375.40    498.67   3373.37    500.70   3373.37    503.20  " style="stroke-width: 1.42 ;&st7;   " /><path d=" M  3373.37,   503.20  C  3373.37    505.70   3375.40    507.73   3377.90    507.73  " style="stroke-width: 1.42 ;&st7;   " /><path d=" M  3377.90,   507.73  C  3380.41    507.73   3382.43    505.70   3382.43    503.20  " style="stroke-width: 1.42 ;&st7;   " /><text style="&st18;" transform="matrix(&st16;  3375.64  505.17 )">A</text></g><g ewd:lineID="215"><text style="&st18;" transform="matrix(&st16;  3376.02  462.68 )">5</text><text style="&st18;" transform="matrix(&st16;  3375.64  471.18 )">A</text><path d=" M  3382.43,   469.21  C  3382.43    466.70   3380.41    464.67   3377.90    464.67  " style="stroke-width: 1.42 ;&st7;   " /><path d=" M  3377.90,   464.67  C  3375.40    464.67   3373.37    466.70   3373.37    469.21  " style="stroke-width: 1.42 ;&st7;   " /><path d=" M  3373.37,   469.21  C  3373.37    471.71   3375.40    473.74   3377.90    473.74  " style="stroke-width: 1.42 ;&st7;   " /><path d=" M  3377.90,   473.74  C  3380.41    473.74   3382.43    471.71   3382.43    469.21  " style="stroke-width: 1.42 ;&st7;   " /></g><g ewd:lineID="216"><text style="&st18;" transform="matrix(&st16;  3376.02  428.68 )">4</text><text style="&st18;" transform="matrix(&st16;  3375.64  437.18 )">A</text><path d=" M  3382.43,   435.21  C  3382.43    432.71   3380.41    430.68   3377.90    430.68  " style="stroke-width: 1.42 ;&st7;   " /><path d=" M  3377.90,   430.68  C  3375.40    430.68   3373.37    432.71   3373.37    435.21  " style="stroke-width: 1.42 ;&st7;   " /><path d=" M  3373.37,   435.21  C  3373.37    437.72   3375.40    439.75   3377.90    439.75  " style="stroke-width: 1.42 ;&st7;   " /><path d=" M  3377.90,   439.75  C  3380.41    439.75   3382.43    437.72   3382.43    435.21  " style="stroke-width: 1.42 ;&st7;   " /></g><g ewd:lineID="217"><text style="&st18;" transform="matrix(&st16;  3376.02  394.69 )">3</text><text style="&st18;" transform="matrix(&st16;  3375.64  403.19 )">A</text><path d=" M  3382.43,   401.22  C  3382.43    398.72   3380.41    396.69   3377.90    396.69  " style="stroke-width: 1.42 ;&st7;   " /><path d=" M  3377.90,   396.69  C  3375.40    396.69   3373.37    398.72   3373.37    401.22  " style="stroke-width: 1.42 ;&st7;   " /><path d=" M  3373.37,   401.22  C  3373.37    403.72   3375.40    405.75   3377.90    405.75  " style="stroke-width: 1.42 ;&st7;   " /><path d=" M  3377.90,   405.75  C  3380.41    405.75   3382.43    403.72   3382.43    401.22  " style="stroke-width: 1.42 ;&st7;   " /></g><g ewd:lineID="218"><text style="&st18;" transform="matrix(&st16;  3376.02  360.69 )">1</text><text style="&st18;" transform="matrix(&st16;  3375.64  369.19 )">A</text><path d=" M  3382.43,   367.22  C  3382.43    364.72   3380.41    362.69   3377.90    362.69  " style="stroke-width: 1.42 ;&st7;   " /><path d=" M  3377.90,   362.69  C  3375.40    362.69   3373.37    364.72   3373.37    367.22  " style="stroke-width: 1.42 ;&st7;   " /><path d=" M  3373.37,   367.22  C  3373.37    369.73   3375.40    371.76   3377.90    371.76  " style="stroke-width: 1.42 ;&st7;   " /><path d=" M  3377.90,   371.76  C  3380.41    371.76   3382.43    369.73   3382.43    367.22  " style="stroke-width: 1.42 ;&st7;   " /></g><g ewd:lineID="224"><text style="&st18;" transform="matrix(&st16;  3402.09  564.66 )">2</text><text style="&st18;" transform="matrix(&st16;  3401.7  573.16 )">A</text><path d=" M  3408.50,   571.19  C  3408.50    568.69   3406.47    566.66   3403.96    566.66  " style="stroke-width: 1.42 ;&st7;   " /><path d=" M  3403.96,   566.66  C  3401.46    566.66   3399.43    568.69   3399.43    571.19  " style="stroke-width: 1.42 ;&st7;   " /><path d=" M  3399.43,   571.19  C  3399.43    573.69   3401.46    575.72   3403.96    575.72  " style="stroke-width: 1.42 ;&st7;   " /><path d=" M  3403.96,   575.72  C  3406.47    575.72   3408.50    573.69   3408.50    571.19  " style="stroke-width: 1.42 ;&st7;   " /></g><path d=" M  3382.43,   358.73  L  3382.43,   579.69  L  3399.43,   579.69  L  3399.43,   358.73  L  3382.43,   358.73  " style="stroke-width: 1.42 ;&st7;  " /><path d=" M  3382.43,   571.19  L  3399.43,   571.19  " style="stroke-width: 0.85 ;&st7;  " /><path d=" M  3382.43,   367.22  L  3390.93,   367.22  L  3390.93,   571.19  " style="stroke-width: 0.85 ;&st7;  " /><path d=" M  3382.43,   401.22  L  3390.93,   401.22  " style="stroke-width: 0.85 ;&st7;  " /><path d=" M  3382.43,   435.21  L  3390.93,   435.21  " style="stroke-width: 0.85 ;&st7;  " /><path d=" M  3382.43,   503.20  L  3390.93,   503.20  " style="stroke-width: 0.85 ;&st7;  " /><path d=" M  3382.43,   537.20  L  3390.93,   537.20  " style="stroke-width: 0.85 ;&st7;  " /><path d=" M  3389.74,   400.22  L  3389.47,   400.69  L  3389.37,   401.22  L  3389.47,   401.75  L  3389.74,   402.22  L  3390.15,   402.57  L  3390.66,   402.75  L  3391.20,   402.75  L  3391.71,   402.57  L  3392.12,   402.22  L  3392.40,   401.75  L  3392.49,   401.22  L  3392.40,   400.69  L  3392.12,   400.22  L  3391.71,   399.87  L  3391.20,   399.68  L  3390.66,   399.68  L  3390.15,   399.87  L  3389.74,   400.22  L  3390.13,   400.93  L  3390.13,   401.51  L  3390.51,   401.95  L  3391.08,   402.05  L  3391.58,   401.77  L  3391.78,   401.22  L  3391.58,   400.67  L  3391.08,   400.38  L  3390.51,   400.48  L  3390.93,   401.22  " style="stroke-width: 0.85 ;&st7;  " /><path d=" M  3389.74,   434.21  L  3389.47,   434.68  L  3389.37,   435.21  L  3389.47,   435.75  L  3389.74,   436.22  L  3390.15,   436.56  L  3390.66,   436.75  L  3391.20,   436.75  L  3391.71,   436.56  L  3392.12,   436.22  L  3392.40,   435.75  L  3392.49,   435.21  L  3392.40,   434.68  L  3392.12,   434.21  L  3391.71,   433.86  L  3391.20,   433.68  L  3390.66,   433.68  L  3390.15,   433.86  L  3389.74,   434.21  L  3390.13,   434.92  L  3390.13,   435.50  L  3390.51,   435.95  L  3391.08,   436.05  L  3391.58,   435.76  L  3391.78,   435.21  L  3391.58,   434.67  L  3391.08,   434.38  L  3390.51,   434.48  L  3390.93,   435.21  " style="stroke-width: 0.85 ;&st7;  " /><path d=" M  3389.74,   502.20  L  3389.47,   502.67  L  3389.37,   503.20  L  3389.47,   503.73  L  3389.74,   504.20  L  3390.15,   504.55  L  3390.66,   504.74  L  3391.20,   504.74  L  3391.71,   504.55  L  3392.12,   504.20  L  3392.40,   503.73  L  3392.49,   503.20  L  3392.40,   502.67  L  3392.12,   502.20  L  3391.71,   501.85  L  3391.20,   501.67  L  3390.66,   501.67  L  3390.15,   501.85  L  3389.74,   502.20  L  3390.13,   502.91  L  3390.13,   503.49  L  3390.51,   503.94  L  3391.08,   504.04  L  3391.58,   503.75  L  3391.78,   503.20  L  3391.58,   502.65  L  3391.08,   502.37  L  3390.51,   502.46  L  3390.93,   503.20  " style="stroke-width: 0.85 ;&st7;  " /><path d=" M  3389.74,   536.19  L  3389.47,   536.66  L  3389.37,   537.20  L  3389.47,   537.73  L  3389.74,   538.20  L  3390.15,   538.54  L  3390.66,   538.73  L  3391.20,   538.73  L  3391.71,   538.54  L  3392.12,   538.20  L  3392.40,   537.73  L  3392.49,   537.20  L  3392.40,   536.66  L  3392.12,   536.19  L  3391.71,   535.85  L  3391.20,   535.66  L  3390.66,   535.66  L  3390.15,   535.85  L  3389.74,   536.19  L  3390.13,   536.90  L  3390.13,   537.49  L  3390.51,   537.93  L  3391.08,   538.03  L  3391.58,   537.74  L  3391.78,   537.20  L  3391.58,   536.65  L  3391.08,   536.36  L  3390.51,   536.46  L  3390.93,   537.20  " style="stroke-width: 0.85 ;&st7;  " /><path d=" M  3389.74,   570.19  L  3389.47,   570.66  L  3389.37,   571.19  L  3389.47,   571.72  L  3389.74,   572.19  L  3390.15,   572.54  L  3390.66,   572.73  L  3391.20,   572.73  L  3391.71,   572.54  L  3392.12,   572.19  L  3392.40,   571.72  L  3392.49,   571.19  L  3392.40,   570.66  L  3392.12,   570.19  L  3391.71,   569.84  L  3391.20,   569.65  L  3390.66,   569.65  L  3390.15,   569.84  L  3389.74,   570.19  L  3390.13,   570.90  L  3390.13,   571.48  L  3390.51,   571.93  L  3391.08,   572.03  L  3391.58,   571.74  L  3391.78,   571.19  L  3391.58,   570.64  L  3391.08,   570.35  L  3390.51,   570.45  L  3390.93,   571.19  " style="stroke-width: 0.85 ;&st7;  " /><path d=" M  3382.43,   469.21  L  3390.93,   469.21  " style="stroke-width: 0.85 ;&st7;  " /><path d=" M  3389.74,   468.20  L  3389.47,   468.67  L  3389.37,   469.21  L  3389.47,   469.74  L  3389.74,   470.21  L  3390.15,   470.56  L  3390.66,   470.74  L  3391.20,   470.74  L  3391.71,   470.56  L  3392.12,   470.21  L  3392.40,   469.74  L  3392.49,   469.21  L  3392.40,   468.67  L  3392.12,   468.20  L  3391.71,   467.86  L  3391.20,   467.67  L  3390.66,   467.67  L  3390.15,   467.86  L  3389.74,   468.20  L  3390.13,   468.92  L  3390.13,   469.50  L  3390.51,   469.94  L  3391.08,   470.04  L  3391.58,   469.75  L  3391.78,   469.21  L  3391.58,   468.66  L  3391.08,   468.37  L  3390.51,   468.47  L  3390.93,   469.21  " style="stroke-width: 0.85 ;&st7;  " /><path d=" M  3382.43,   367.22  C  3382.43    364.72   3380.41    362.69   3377.90    362.69  " style="stroke-width: 1.42 ;&st7;   " /><path d=" M  3377.90,   362.69  C  3375.40    362.69   3373.37    364.72   3373.37    367.22  " style="stroke-width: 1.42 ;&st7;   " /><path d=" M  3373.37,   367.22  C  3373.37    369.73   3375.40    371.76   3377.90    371.76  " style="stroke-width: 1.42 ;&st7;   " /><path d=" M  3377.90,   371.76  C  3380.41    371.76   3382.43    369.73   3382.43    367.22  " style="stroke-width: 1.42 ;&st7;   " /><path d=" M  3382.43,   401.22  C  3382.43    398.72   3380.41    396.69   3377.90    396.69  " style="stroke-width: 1.42 ;&st7;   " /><path d=" M  3377.90,   396.69  C  3375.40    396.69   3373.37    398.72   3373.37    401.22  " style="stroke-width: 1.42 ;&st7;   " /><path d=" M  3373.37,   401.22  C  3373.37    403.72   3375.40    405.75   3377.90    405.75  " style="stroke-width: 1.42 ;&st7;   " /><path d=" M  3377.90,   405.75  C  3380.41    405.75   3382.43    403.72   3382.43    401.22  " style="stroke-width: 1.42 ;&st7;   " /><path d=" M  3382.43,   435.21  C  3382.43    432.71   3380.41    430.68   3377.90    430.68  " style="stroke-width: 1.42 ;&st7;   " /><path d=" M  3377.90,   430.68  C  3375.40    430.68   3373.37    432.71   3373.37    435.21  " style="stroke-width: 1.42 ;&st7;   " /><path d=" M  3373.37,   435.21  C  3373.37    437.72   3375.40    439.75   3377.90    439.75  " style="stroke-width: 1.42 ;&st7;   " /><path d=" M  3377.90,   439.75  C  3380.41    439.75   3382.43    437.72   3382.43    435.21  " style="stroke-width: 1.42 ;&st7;   " /><path d=" M  3382.43,   469.21  C  3382.43    466.70   3380.41    464.67   3377.90    464.67  " style="stroke-width: 1.42 ;&st7;   " /><path d=" M  3377.90,   464.67  C  3375.40    464.67   3373.37    466.70   3373.37    469.21  " style="stroke-width: 1.42 ;&st7;   " /><path d=" M  3373.37,   469.21  C  3373.37    471.71   3375.40    473.74   3377.90    473.74  " style="stroke-width: 1.42 ;&st7;   " /><path d=" M  3377.90,   473.74  C  3380.41    473.74   3382.43    471.71   3382.43    469.21  " style="stroke-width: 1.42 ;&st7;   " /><path d=" M  3382.43,   503.20  C  3382.43    500.70   3380.41    498.67   3377.90    498.67  " style="stroke-width: 1.42 ;&st7;   " /><path d=" M  3377.90,   498.67  C  3375.40    498.67   3373.37    500.70   3373.37    503.20  " style="stroke-width: 1.42 ;&st7;   " /><path d=" M  3373.37,   503.20  C  3373.37    505.70   3375.40    507.73   3377.90    507.73  " style="stroke-width: 1.42 ;&st7;   " /><path d=" M  3377.90,   507.73  C  3380.41    507.73   3382.43    505.70   3382.43    503.20  " style="stroke-width: 1.42 ;&st7;   " /><path d=" M  3382.43,   537.20  C  3382.43    534.69   3380.41    532.66   3377.90    532.66  " style="stroke-width: 1.42 ;&st7;   " /><path d=" M  3377.90,   532.66  C  3375.40    532.66   3373.37    534.69   3373.37    537.20  " style="stroke-width: 1.42 ;&st7;   " /><path d=" M  3373.37,   537.20  C  3373.37    539.70   3375.40    541.73   3377.90    541.73  " style="stroke-width: 1.42 ;&st7;   " /><path d=" M  3377.90,   541.73  C  3380.41    541.73   3382.43    539.70   3382.43    537.20  " style="stroke-width: 1.42 ;&st7;   " /><path d=" M  3382.43,   571.19  C  3382.43    568.69   3380.41    566.66   3377.90    566.66  " style="stroke-width: 1.42 ;&st7;   " /><path d=" M  3377.90,   566.66  C  3375.40    566.66   3373.37    568.69   3373.37    571.19  " style="stroke-width: 1.42 ;&st7;   " /><path d=" M  3373.37,   571.19  C  3373.37    573.69   3375.40    575.72   3377.90    575.72  " style="stroke-width: 1.42 ;&st7;   " /><path d=" M  3377.90,   575.72  C  3380.41    575.72   3382.43    573.69   3382.43    571.19  " style="stroke-width: 1.42 ;&st7;   " /><g ewd:figtype="title"><text ewd:textID="123" style="&st18;" transform="matrix(&st17;  3414.15  540.1 )">No. 1 Junction <tspan dy="6.0" x="0 ">Connector</tspan></text><text style="&st18;" transform="matrix(&st17;  3407.33  540.09 )">A22(A)</text></g></g><g ewd:code="A27,A28" ewd:figID="6" ewd:figtype="conn"><g ewd:lineID="208"><text style="&st18;" transform="matrix(&st16;  3274.04  607.15 )">2</text><text style="&st18;" transform="matrix(&st16;  3273.65  615.65 )">B</text><path d=" M  3280.45,   613.68  C  3280.45    611.18   3278.42    609.15   3275.92    609.15  " style="stroke-width: 1.42 ;&st7;   " /><path d=" M  3275.92,   609.15  C  3273.42    609.15   3271.39    611.18   3271.39    613.68  " style="stroke-width: 1.42 ;&st7;   " /><path d=" M  3271.39,   613.68  C  3271.39    616.19   3273.42    618.22   3275.92    618.22  " style="stroke-width: 1.42 ;&st7;   " /><path d=" M  3275.92,   618.22  C  3278.42    618.22   3280.45    616.19   3280.45    613.68  " style="stroke-width: 1.42 ;&st7;   " /></g><g ewd:lineID="211"><text style="&st18;" transform="matrix(&st16;  3300.1  607.15 )">2</text><text style="&st18;" transform="matrix(&st16;  3299.72  615.65 )">A</text><path d=" M  3306.51,   613.68  C  3306.51    611.18   3304.48    609.15   3301.98    609.15  " style="stroke-width: 1.42 ;&st7;   " /><path d=" M  3301.98,   609.15  C  3299.48    609.15   3297.45    611.18   3297.45    613.68  " style="stroke-width: 1.42 ;&st7;   " /><path d=" M  3297.45,   613.68  C  3297.45    616.19   3299.48    618.22   3301.98    618.22  " style="stroke-width: 1.42 ;&st7;   " /><path d=" M  3301.98,   618.22  C  3304.48    618.22   3306.51    616.19   3306.51    613.68  " style="stroke-width: 1.42 ;&st7;   " /></g><path d=" M  3280.45,   605.18  L  3280.45,   622.18  L  3297.45,   622.18  L  3297.45,   605.18  L  3280.45,   605.18  " style="stroke-width: 1.42 ;&st7;  " /><path d=" M  3288.95,   605.18  L  3288.95,   622.18  " style="stroke-width: 1.42 ;&st7;  " /><path d=" M  3280.45,   613.68  C  3280.45    611.18   3278.42    609.15   3275.92    609.15  " style="stroke-width: 1.42 ;&st7;   " /><path d=" M  3275.92,   609.15  C  3273.42    609.15   3271.39    611.18   3271.39    613.68  " style="stroke-width: 1.42 ;&st7;   " /><path d=" M  3271.39,   613.68  C  3271.39    616.19   3273.42    618.22   3275.92    618.22  " style="stroke-width: 1.42 ;&st7;   " /><path d=" M  3275.92,   618.22  C  3278.42    618.22   3280.45    616.19   3280.45    613.68  " style="stroke-width: 1.42 ;&st7;   " /><g ewd:figtype="title"><text ewd:textID="50" style="&st18;" transform="matrix(&st16;  3268.55  636.9 )">Brake Vacuum Check <tspan dy="6.0" x="0 ">Valve Assembly</tspan></text><text style="&st18;" transform="matrix(&st16;  3268.54  630.07 )">A27(A),A28(B)</text></g></g><g ewd:code="mA1" ewd:figID="55" ewd:figtype="w2w"><text style="&st18;" transform="matrix(&st16;  3287.07  173.02 )">1</text><path d=" M  3303.11,   184.50  L  3298.86,   180.26  L  3303.11,   176.01  " style="stroke-width: 1.42 ;&st7;  " /><path d=" M  3306.51,   184.50  L  3302.26,   180.26  L  3306.51,   176.01  " style="stroke-width: 1.42 ;&st7;  " /></g><g ewd:code="AC8" ewd:figID="56" ewd:figtype="w2w"><text style="&st18;" transform="matrix(&st16;  3287.07  88.03 )">1</text><path d=" M  3271.39,    91.02  L  3275.63,    95.27  L  3271.39,    99.52  " style="stroke-width: 1.42 ;&st7;  " /><path d=" M  3274.78,    91.02  L  3279.03,    95.27  L  3274.78,    99.52  " style="stroke-width: 1.42 ;&st7;  " /></g><g ewd:code="AC7" ewd:figID="57" ewd:figtype="w2w"><text style="&st18;" transform="matrix(&st16;  3454.0  271.46 )">4</text><path d=" M  3471.67,   259.58  L  3467.42,   263.82  L  3463.17,   259.58  " style="stroke-width: 1.42 ;&st7;  " /><path d=" M  3463.17,   256.18  L  3467.42,   260.43  L  3471.67,   256.18  " style="stroke-width: 1.42 ;&st7;  " /></g><g ewd:code="WC2" ewd:figID="58" ewd:figtype="w2w"><text style="&st18;" transform="matrix(&st16;  3454.0  177.98 )">1</text><path d=" M  3471.67,   189.32  L  3467.42,   185.07  L  3463.17,   189.32  " style="stroke-width: 1.42 ;&st7;  " /><path d=" M  3471.67,   185.92  L  3467.42,   181.67  L  3463.17,   185.92  " style="stroke-width: 1.42 ;&st7;  " /></g><g ewd:code="AA" ewd:figID="111" ewd:figtype="gp"><path d=" M  3449.01,   710.00  L  3451.84,   710.00  " style="stroke-width: 0.85 ;&st7;  " /><path d=" M  3447.59,   707.17  L  3453.25,   707.17  " style="stroke-width: 0.85 ;&st7;  " /><path d=" M  3446.17,   704.33  L  3454.67,   704.33  " style="stroke-width: 0.85 ;&st7;  " /><path d=" M  3441.92,   701.50  L  3458.92,   701.50  " style="stroke-width: 0.85 ;&st7;  " /><path d=" M  3450.42,   697.25  L  3450.42,   701.50  " style="stroke-width: 0.85 ;&st7;  " /></g><g ewd:code=" " ewd:figID="228" ewd:figtype="annex"><path d=" M  3042.63,   546.71  C  3040.73    548.85   3040.67    551.98   3042.49    554.19  " style="stroke-width: 1.42 ;&st7;   " /><path d=" M  3042.35,   561.68  C  3044.25    559.54   3044.31    556.40   3042.49    554.19  " style="stroke-width: 1.42 ;&st7;   " /></g><g ewd:code=" " ewd:figID="229" ewd:figtype="annex"><path d=" M  3042.63,   572.20  C  3040.73    574.35   3040.67    577.48   3042.49    579.69  " style="stroke-width: 1.42 ;&st7;   " /><path d=" M  3042.35,   587.17  C  3044.25    585.03   3044.31    581.90   3042.49    579.69  " style="stroke-width: 1.42 ;&st7;   " /></g><g ewd:code=" " ewd:figID="23" ewd:figtype="annex"><path d=" M  3203.96,   435.21  L  3225.21,   435.21  " style="stroke-width: 0.85 ;&st7;  " /><path d=" M  3220.31,   401.22  L  3217.48,   398.39  L  3221.73,   398.39  L  3224.56,   401.22  L  3221.73,   404.05  L  3217.48,   404.05  L  3220.31,   401.22  " style="stroke-width: 0.28 ;&st9;  " /><path d=" M  3225.21,   435.21  C  3225.21    437.56   3227.11    439.46   3229.46    439.46  " style="stroke-width: 1.42 ;&st7;   " /><path d=" M  3233.71,   362.97  L  3229.46,   362.97  " style="stroke-width: 1.42 ;&st7;  " /><path d=" M  3220.31,   367.22  L  3217.48,   364.39  L  3221.73,   364.39  L  3224.56,   367.22  L  3221.73,   370.06  L  3217.48,   370.06  L  3220.31,   367.22  " style="stroke-width: 0.28 ;&st9;  " /><path d=" M  3118.98,   392.72  L  3118.98,   418.22  L  3203.96,   418.22  L  3203.96,   392.72  L  3118.98,   392.72  " style="stroke-width: 1.42 ;&st7;  " /><path d=" M  3229.46,   396.97  C  3227.11    396.97   3225.21    398.87   3225.21    401.22  " style="stroke-width: 1.42 ;&st7;   " /><path d=" M  3233.71,   371.47  C  3236.06    371.47   3237.96    369.57   3237.96    367.22  " style="stroke-width: 1.42 ;&st7;   " /><path d=" M  3233.71,   464.96  L  3229.46,   464.96  " style="stroke-width: 1.42 ;&st7;  " /><path d=" M  3233.71,   439.46  C  3236.06    439.46   3237.96    437.56   3237.96    435.21  " style="stroke-width: 1.42 ;&st7;   " /><path d=" M  3220.31,   435.21  L  3217.48,   432.38  L  3221.73,   432.38  L  3224.56,   435.21  L  3221.73,   438.05  L  3217.48,   438.05  L  3220.31,   435.21  " style="stroke-width: 0.28 ;&st9;  " /><path d=" M  3233.71,   405.47  C  3236.06    405.47   3237.96    403.57   3237.96    401.22  " style="stroke-width: 1.42 ;&st7;   " /><path d=" M  3237.96,   401.22  C  3237.96    398.87   3236.06    396.97   3233.71    396.97  " style="stroke-width: 1.42 ;&st7;   " /><path d=" M  3203.96,   401.22  L  3225.21,   401.22  " style="stroke-width: 0.85 ;&st7;  " /><path d=" M  3203.96,   367.22  L  3225.21,   367.22  " style="stroke-width: 0.85 ;&st7;  " /><path d=" M  3233.71,   396.97  L  3229.46,   396.97  " style="stroke-width: 1.42 ;&st7;  " /><path d=" M  3233.71,   371.47  L  3229.46,   371.47  " style="stroke-width: 1.42 ;&st7;  " /><path d=" M  3118.98,   460.71  L  3118.98,   486.20  L  3203.96,   486.20  L  3203.96,   460.71  L  3118.98,   460.71  " style="stroke-width: 1.42 ;&st7;  " /><path d=" M  3203.96,   469.21  L  3225.21,   469.21  " style="stroke-width: 0.85 ;&st7;  " /><path d=" M  3233.71,   473.46  L  3229.46,   473.46  " style="stroke-width: 1.42 ;&st7;  " /><path d=" M  3233.71,   439.46  L  3229.46,   439.46  " style="stroke-width: 1.42 ;&st7;  " /><path d=" M  3225.21,   367.22  C  3225.21    369.57   3227.11    371.47   3229.46    371.47  " style="stroke-width: 1.42 ;&st7;   " /><path d=" M  3233.71,   430.96  L  3229.46,   430.96  " style="stroke-width: 1.42 ;&st7;  " /><path d=" M  3220.31,   469.21  L  3217.48,   466.37  L  3221.73,   466.37  L  3224.56,   469.21  L  3221.73,   472.04  L  3217.48,   472.04  L  3220.31,   469.21  " style="stroke-width: 0.28 ;&st9;  " /><path d=" M  3118.98,   358.73  L  3118.98,   384.22  L  3203.96,   384.22  L  3203.96,   358.73  L  3118.98,   358.73  " style="stroke-width: 1.42 ;&st7;  " /><path d=" M  3229.46,   430.96  C  3227.11    430.96   3225.21    432.87   3225.21    435.21  " style="stroke-width: 1.42 ;&st7;   " /><path d=" M  3118.98,   426.71  L  3118.98,   452.21  L  3203.96,   452.21  L  3203.96,   426.71  L  3118.98,   426.71  " style="stroke-width: 1.42 ;&st7;  " /><path d=" M  3237.96,   469.21  C  3237.96    466.86   3236.06    464.96   3233.71    464.96  " style="stroke-width: 1.42 ;&st7;   " /><path d=" M  3233.71,   405.47  L  3229.46,   405.47  " style="stroke-width: 1.42 ;&st7;  " /><path d=" M  3237.96,   367.22  C  3237.96    364.88   3236.06    362.97   3233.71    362.97  " style="stroke-width: 1.42 ;&st7;   " /><path d=" M  3229.46,   464.96  C  3227.11    464.96   3225.21    466.86   3225.21    469.21  " style="stroke-width: 1.42 ;&st7;   " /><path d=" M  3229.46,   362.97  C  3227.11    362.97   3225.21    364.88   3225.21    367.22  " style="stroke-width: 1.42 ;&st7;   " /><path d=" M  3225.21,   469.21  C  3225.21    471.55   3227.11    473.46   3229.46    473.46  " style="stroke-width: 1.42 ;&st7;   " /><path d=" M  3225.21,   401.22  C  3225.21    403.57   3227.11    405.47   3229.46    405.47  " style="stroke-width: 1.42 ;&st7;   " /><path d=" M  3237.96,   435.21  C  3237.96    432.87   3236.06    430.96   3233.71    430.96  " style="stroke-width: 1.42 ;&st7;   " /><path d=" M  3233.71,   473.46  C  3236.06    473.46   3237.96    471.55   3237.96    469.21  " style="stroke-width: 1.42 ;&st7;   "/><text ewd:textID="153" style="&st18;" transform="matrix(&st16;  3119.82  442.85 )">SUB PMP <tspan dy="6.0" x="0 ">Relay</tspan></text><text style="&st18;" transform="matrix(&st16;  3182.5  437.18 )">(FPR2)</text><text ewd:textID="68" style="&st18;" transform="matrix(&st16;  3119.82  408.85 )">EFI MAIN <tspan dy="6.0" x="0 ">Relay</tspan></text><text style="&st18;" transform="matrix(&st16;  3193.74  403.19 )">(E)</text><text style="&st18;" transform="matrix(&st16;  3191.81  369.19 )">(-S)</text><text ewd:textID="152" style="&st18;" transform="matrix(&st16;  3119.82  374.86 )">ST Relay</text><text style="&st18;" transform="matrix(&st16;  3229.71  369.19 )">1</text><text style="&st18;" transform="matrix(&st16;  3229.71  403.19 )">1</text><text style="&st18;" transform="matrix(&st16;  3229.71  437.18 )">1</text><text ewd:textID="39" style="&st18;" transform="matrix(&st16;  3119.82  476.84 )">A/F Relay</text><text style="&st18;" transform="matrix(&st16;  3193.74  471.18 )">(E)</text><text style="&st18;" transform="matrix(&st16;  3229.71  471.18 )">1</text></g><g ewd:code="10" ewd:comment="" ewd:figID="290" ewd:figtype="comment"><text ewd:textID="8" style="&st18;" transform="matrix(&st16;  3489.51  335.2 )">*10 :12V Battery Type</text></g><g ewd:code="41" ewd:comment="" ewd:figID="313" ewd:figtype="comment"><text ewd:textID="31" style="&st18;" transform="matrix(&st16;  3489.51  352.2 )">*41 :w/ Network Gateway ECU</text></g><g ewd:code="3" ewd:comment="" ewd:figID="244" ewd:figtype="comment"><text style="&st18;" transform="matrix(&st16;  3489.51  318.2 )">* 3 :1VD-FTV</text></g><g ewd:code="49" ewd:comment="" ewd:figID="315" ewd:figtype="comment"><text ewd:textID="38" style="&st18;" transform="matrix(&st16;  3489.51  369.19 )">*49 :Except 2-Door Pick-Up Body Type</text></g><g ewd:code="2" ewd:comment="" ewd:figID="245" ewd:figtype="comment"><text style="&st18;" transform="matrix(&st16;  3489.51  309.7 )">* 2 :1HZ</text></g><g ewd:code="11" ewd:comment="" ewd:figID="289" ewd:figtype="comment"><text ewd:textID="9" style="&st18;" transform="matrix(&st16;  3489.51  343.7 )">*11 :24V Battery Type</text></g><g ewd:code="9" ewd:comment="" ewd:figID="312" ewd:figtype="comment"><text ewd:textID="7" style="&st18;" transform="matrix(&st16;  3489.51  326.7 )">* 9 :2-Door Pick-Up Body Type</text></g><g ewd:code="47" ewd:comment="" ewd:figID="314" ewd:figtype="comment"><text ewd:textID="37" style="&st18;" transform="matrix(&st16;  3489.51  360.69 )">*47 :w/ Pre-Collision System</text></g><g ewd:code="1" ewd:comment="" ewd:figID="243" ewd:figtype="comment"><text style="&st18;" transform="matrix(&st16;  3489.51  301.2 )">* 1 :1GR-FE</text></g></svg>
