<?xml version="1.0" encoding="utf-8"?>
<!DOCTYPE svg PUBLIC "-//W3C//DTD SVG 1.0//EN" "http://www.w3.org/TR/2001/REC-SVG-20010904/DTD/svg10.dtd"[
	<!ENTITY ns_flows "http://ns.adobe.com/Flows/1.0/">
	<!ENTITY ns_svg "http://www.w3.org/2000/svg">
	<!ENTITY ns_xlink "http://www.w3.org/1999/xlink">
	<!ENTITY st0 "font-size:7px;font-family:'MS-PGothic';adobe-font-script:japanese;">
	<!ENTITY st1 "font-size:6px;font-family:'ArialMT';">
	<!-- White fill  -->
	<!ENTITY st2 "fill:#FFFFFF;stroke:#000000; stroke-width:1.41;stroke-linecap:round;stroke-linejoin:round;">
	<!-- Yellow fill  -->
	<!ENTITY st3 "fill:#FFFFCC;stroke:#FFFFCC; stroke-width:0.1;stroke-linecap:round;stroke-linejoin:round;">
	<!-- Gray fill  -->
	<!ENTITY st4 "fill:#CCCCCC;stroke:#CCCCCC; stroke-width:0.1;stroke-linecap:round;stroke-linejoin:round;">
	<!-- Light-blue fill -->
	<!ENTITY st5 "fill:#CCECF4;stroke:#000000; stroke-width:1.133;stroke-linecap:round;stroke-linejoin:round;">
	<!ENTITY st6 "fill:none;stroke-linecap:butt; stroke-linejoin:round;">
	<!ENTITY st7 "fill:none;stroke:#000000;stroke-linecap:round;stroke-linejoin:round;">
	<!ENTITY st8 "enable-background:new    ;">
	<!-- Black fill -->
	<!ENTITY st9 "fill:#000000;stroke:#000000; stroke-linecap:round;stroke-linejoin:round;">
	<!-- SRS note   -->
	<!ENTITY st10 "font-size:9px;font-family:'ArialMT';">
	<!ENTITY st11 "font-size:9px;font-family:'Svg Symbol';">
	<!ENTITY st12 "font-size:6px;font-family:'Svg Symbol';">
	<!ENTITY st13 "fill:none;stroke:#ff0000;stroke-linecap:round;stroke-linejoin:round;">
	<!-- Yellow fill  -->
	<!ENTITY st14 "fill:#FFFF00;stroke:#FFFF00; stroke-width:0.1;stroke-linecap:round;stroke-linejoin:round;">
	<!ENTITY st15 "font-size:6px;font-family:'MS-PGothic';adobe-font-script:japanese;">
	<!ENTITY st16 "1.00 0.00 0.00 1.00">
	<!ENTITY st17 "0.00 -1.00 1.00 0.00">
	<!ENTITY st18 "font-size:6px;font-family:'Arial';">
	<!ENTITY st19 "font-size:9px;font-family:'Arial';">
	<!ENTITY st20 "font-size:6px;font-family:'MS-PGothic','MS PGothic';adobe-font-script:japanese;">
	<!ENTITY st21 "font-size:7px;font-family:'MS-PGothic','MS PGothic';adobe-font-script:japanese;">
	<!ATTLIST svg
		xmlns:ewd CDATA #FIXED "http://shcl.co.jp/ewd"
		xmlns:a CDATA #FIXED "http://ns.adobe.com/AdobeSVGViewerExtensions/3.0/"
		ewd:ver CDATA #IMPLIED
	>
	<!ATTLIST a
		ewd:lineID CDATA #IMPLIED
		ewd:groupID CDATA #IMPLIED
		ewd:figtype CDATA #IMPLIED
		ewd:code CDATA #IMPLIED
		ewd:figID CDATA #IMPLIED
		ewd:pinNo CDATA #IMPLIED
		ewd:comment CDATA #IMPLIED >
	<!ATTLIST g
		ewd:lineID CDATA #IMPLIED
		ewd:groupID CDATA #IMPLIED
		ewd:figtype CDATA #IMPLIED
		ewd:code CDATA #IMPLIED
		ewd:figID CDATA #IMPLIED
		ewd:pinNo CDATA #IMPLIED
		ewd:comment CDATA #IMPLIED >
	<!ATTLIST text
		ewd:textID CDATA #IMPLIED >
	<!ATTLIST title
		ewd:textID CDATA #IMPLIED >
]>
<!-- Generator: Shintec Hozumi YS   -->
<svg onload="call_execInitLoadProc_svg('system')" style="overflow:visible;  enable-background:new 0 0 7262.774 710.000" viewBox="0 0 7262.774 710.000" height="710.000" width="7262.774" xml:space="preserve" ewd:ver="2.3.1.16" xmlns="&ns_svg;" xmlns:a="http://ns.adobe.com/AdobeSVGViewerExtensions/3.0/" xmlns:ewd="http://shcl.co.jp/ewd" xmlns:xlink="&ns_xlink;">
<text ewd:textID="114" style="&st18;" transform="matrix(&st16;  5193.48  502.34 )">License Plate <tspan dy="6.0" x="0 ">Light Assembly LH</tspan></text><text ewd:textID="115" style="&st18;" transform="matrix(&st16;  5193.48  468.34 )">License Plate <tspan dy="6.0" x="0 ">Light Assembly RH</tspan></text><text ewd:textID="114" style="&st18;" transform="matrix(&st16;  5193.48  434.35 )">License Plate <tspan dy="6.0" x="0 ">Light Assembly LH</tspan></text><text ewd:textID="161" style="&st18;" transform="matrix(&st16;  5193.48  400.35 )">Trailer Socket</text><text ewd:textID="86" style="&st18;" transform="matrix(&st16;  5193.48  366.36 )">Fuel Pump (Sub)</text><text ewd:textID="63" style="&st18;" transform="matrix(&st16;  5193.48  170.89 )">Differential Lock <tspan dy="6.0" x="0 ">Shift Actuator</tspan></text><text ewd:textID="145" style="&st18;" transform="matrix(&st16;  5193.48  136.9 )">Rear Differential <tspan dy="6.0" x="0 ">Lock Position Switch</tspan></text><text ewd:textID="115" style="&st18;" transform="matrix(&st16;  5193.48  536.33 )">License Plate <tspan dy="6.0" x="0 ">Light Assembly RH</tspan></text><text ewd:textID="45" style="&st18;" transform="matrix(&st16;  5193.48  570.33 )">Back Buzzer Assembly</text><text ewd:textID="143" style="&st18;" transform="matrix(&st16;  5193.48  663.81 )">Rear Combination <tspan dy="6.0" x="0 ">Light Assembly LH</tspan></text><text ewd:textID="79" style="&st18;" transform="matrix(&st16;  5116.99  425.85 )">Front Door <tspan dy="6.0" x="0 ">Lock Actuator </tspan><tspan dy="6.0" x="0 ">Assembly RH</tspan></text><text ewd:textID="66" style="&st18;" transform="matrix(&st16;  5116.99  468.34 )">Door Control <tspan dy="6.0" x="0 ">Switch</tspan></text><text ewd:textID="144" style="&st18;" transform="matrix(&st16;  5193.48  604.32 )">Rear Combination <tspan dy="6.0" x="0 ">Light Assembly RH</tspan></text><text ewd:textID="65" style="&st18;" transform="matrix(&st16;  5116.99  536.33 )">Door Control <tspan dy="6.0" x="0 ">Relay Assembly</tspan></text><text style="&st18;" transform="matrix(&st16;  5034.6  468.34 )">(*5)</text><text style="&st18;" transform="matrix(&st16;  5037.39  414.52 )">P</text><text style="&st18;" transform="matrix(&st16;  5116.98  418.74 )">O4</text><text style="&st18;" transform="matrix(&st16;  5034.6  425.85 )">(*5)</text><text style="&st18;" transform="matrix(&st16;  5116.98  461.24 )">O14</text><text style="&st18;" transform="matrix(&st16;  5116.98  529.23 )">O15</text><text style="&st18;" transform="matrix(&st16;  5116.98  563.22 )">O9</text><text style="&st18;" transform="matrix(&st16;  5143.92  40.58 )">W-B</text><text style="&st18;" transform="matrix(&st17;  5497.72  261.3 )">(*9)</text><text style="&st18;" transform="matrix(&st17;  5418.4  423.94 )">W-B</text><text style="&st18;" transform="matrix(&st17;  5418.4  517.42 )">W-B</text><text style="&st18;" transform="matrix(&st17;  5418.4  627.9 )">W-B</text><text style="&st18;" transform="matrix(&st17;  5486.39  202.97 )">W-B</text><text style="&st18;" transform="matrix(&st17;  5443.89  202.97 )">W-B</text><text style="&st18;" transform="matrix(&st17;  5486.39  262.46 )">W-B</text><text style="&st18;" transform="matrix(&st17;  5443.89  262.46 )">W-B</text><text style="&st18;" transform="matrix(&st16;  5330.89  125.57 )">W-B</text><text style="&st18;" transform="matrix(&st16;  5330.89  159.56 )">W-B</text><text style="&st18;" transform="matrix(&st16;  5483.86  355.03 )">W-B</text><text style="&st18;" transform="matrix(&st16;  5330.89  389.02 )">W-B</text><text style="&st18;" transform="matrix(&st16;  5330.89  423.02 )">W-B</text><text style="&st18;" transform="matrix(&st16;  5330.89  457.01 )">W-B</text><text style="&st18;" transform="matrix(&st16;  5330.89  491.01 )">W-B</text><text style="&st18;" transform="matrix(&st16;  5330.89  525.0 )">W-B</text><text style="&st18;" transform="matrix(&st16;  5330.89  558.99 )">W-B</text><text style="&st18;" transform="matrix(&st16;  5330.89  592.99 )">W-B</text><text style="&st18;" transform="matrix(&st16;  5330.89  652.48 )">W-B</text><text style="&st18;" transform="matrix(&st16;  5193.47  163.79 )">V2</text><text style="&st18;" transform="matrix(&st16;  5193.47  129.79 )">V1</text><path d=" M  5444.06,   154.76  L  5439.09,   159.73  " style="stroke-width: 1.42 ;&st7;  " /><path d=" M  5451.12,   171.76  L  5456.09,   166.79  " style="stroke-width: 1.42 ;&st7;  " /><path d=" M  5439.09,   166.79  L  5444.06,   171.76  " style="stroke-width: 1.42 ;&st7;  " /><path d=" M  5456.09,   159.73  L  5451.12,   154.76  " style="stroke-width: 1.42 ;&st7;  " /><path d=" M  5456.09,   231.25  L  5447.59,   231.25  " style="stroke-width: 1.42 ;&st7;  " /><path d=" M  5498.58,   231.25  L  5490.08,   231.25  " style="stroke-width: 1.42 ;&st7;  " /><text style="&st18;" transform="matrix(&st16;  5193.47  656.7 )">T17</text><text style="&st18;" transform="matrix(&st16;  5193.47  563.22 )">T11</text><path d=" M  5337.11,   358.73  L  5337.11,   362.97  " style="stroke-width: 1.42 ;&st7;  " /><path d=" M  5430.59,   559.16  L  5425.62,   554.19  " style="stroke-width: 1.42 ;&st7;  " /><path d=" M  5413.60,   566.22  L  5418.57,   571.19  " style="stroke-width: 1.42 ;&st7;  " /><path d=" M  5425.62,   571.19  L  5430.59,   566.22  " style="stroke-width: 1.42 ;&st7;  " /><path d=" M  5418.57,   554.19  L  5413.60,   559.16  " style="stroke-width: 1.42 ;&st7;  " /><text style="&st18;" transform="matrix(&st16;  5193.47  597.21 )">T14</text><text style="&st18;" transform="matrix(&st16;  5193.47  529.23 )">T12</text><text style="&st18;" transform="matrix(&st16;  5193.47  495.23 )">T16</text><text style="&st18;" transform="matrix(&st16;  5193.47  461.24 )">T13</text><text style="&st18;" transform="matrix(&st16;  5193.47  427.24 )">T15</text><text style="&st18;" transform="matrix(&st16;  5193.47  393.25 )">T10</text><text style="&st18;" transform="matrix(&st16;  5193.47  359.25 )">X2</text><path d=" M  5430.59,   457.18  L  5425.62,   452.21  " style="stroke-width: 1.42 ;&st7;  " /><path d=" M  5413.60,   464.24  L  5418.57,   469.21  " style="stroke-width: 1.42 ;&st7;  " /><path d=" M  5425.62,   469.21  L  5430.59,   464.24  " style="stroke-width: 1.42 ;&st7;  " /><path d=" M  5418.57,   452.21  L  5413.60,   457.18  " style="stroke-width: 1.42 ;&st7;  " /><path d=" M  5430.59,   355.20  L  5425.62,   350.23  " style="stroke-width: 1.42 ;&st7;  " /><path d=" M  5413.60,   362.26  L  5418.57,   367.22  " style="stroke-width: 1.42 ;&st7;  " /><path d=" M  5425.62,   367.22  L  5430.59,   362.26  " style="stroke-width: 1.42 ;&st7;  " /><path d=" M  5418.57,   350.23  L  5413.60,   355.20  " style="stroke-width: 1.42 ;&st7;  " /><path d=" M  5486.56,   154.76  L  5481.58,   159.73  " style="stroke-width: 1.42 ;&st7;  " /><path d=" M  5493.61,   171.76  L  5498.58,   166.79  " style="stroke-width: 1.42 ;&st7;  " /><path d=" M  5481.58,   166.79  L  5486.56,   171.76  " style="stroke-width: 1.42 ;&st7;  " /><path d=" M  5498.58,   159.73  L  5493.61,   154.76  " style="stroke-width: 1.42 ;&st7;  " /><text style="&st18;" transform="matrix(&st16;  5485.03  366.36 )">(*9)</text><text style="&st18;" transform="matrix(&st17;  5497.72  201.81 )">(*9)</text><path d=" M  5269.12,    40.03  L  5269.12,    44.28  " style="stroke-width: 1.42 ;&st7;  " /><text style="&st18;" transform="matrix(&st16;  5203.41  40.58 )">W-B</text><text style="&st18;" transform="matrix(&st16;  5033.44  457.01 )">W-B</text><text style="&st18;" transform="matrix(&st16;  5033.44  525.0 )">W-B</text><text style="&st18;" transform="matrix(&st16;  5033.44  558.99 )">W-B</text><text style="&st18;" transform="matrix(&st16;  5048.92  635.48 )">B-DG</text><text style="&st18;" transform="matrix(&st16;  5051.25  660.98 )">B-R</text><text style="&st18;" transform="matrix(&st16;  5034.6  536.33 )">(*5)</text><text style="&st18;" transform="matrix(&st16;  5034.6  570.33 )">(*5)</text><text style="&st18;" transform="matrix(&st17;  5455.23  261.3 )">(*9)</text><text style="&st18;" transform="matrix(&st17;  5455.23  201.81 )">(*9)</text><text style="&st18;" transform="matrix(&st16;  5332.05  170.89 )">(*9)</text><text style="&st18;" transform="matrix(&st16;  5332.05  136.9 )">(*9)</text><text style="&st18;" transform="matrix(&st16;  5398.88  91.57 )">W-B</text><text style="&st18;" transform="matrix(&st16;  5400.04  102.9 )">(*9)</text><text style="&st18;" transform="matrix(&st16;  5296.89  355.03 )">W-B</text><text style="&st18;" transform="matrix(&st16;  5381.88  355.03 )">W-B</text><text style="&st18;" transform="matrix(&st16;  5298.06  366.36 )">(*9)</text><text style="&st18;" transform="matrix(&st16;  5051.6  672.31 )">(*2)</text><text style="&st18;" transform="matrix(&st16;  5047.91  646.81 )">(*1,*3)</text><text ewd:textID="139" style="&st18;" transform="matrix(&st16;  5116.99  570.33 )">Power Window <tspan dy="6.0" x="0 ">Regulator </tspan><tspan dy="6.0" x="0 ">Master </tspan><tspan dy="6.0" x="0 ">Switch Assembly</tspan></text><text style="&st18;" transform="matrix(&st16;  5383.04  366.36 )">(*9)</text><text style="&st18;" transform="matrix(&st16;  5332.05  400.35 )">(*9)</text><text style="&st18;" transform="matrix(&st16;  5332.05  434.35 )">(*9)</text><text style="&st18;" transform="matrix(&st16;  5332.05  468.34 )">(*9)</text><text style="&st18;" transform="matrix(&st16;  5332.05  502.34 )">(*9)</text><text style="&st18;" transform="matrix(&st16;  5332.05  536.33 )">(*9)</text><text style="&st18;" transform="matrix(&st16;  5326.7  570.33 )">(*9 *36)</text><text style="&st18;" transform="matrix(&st16;  5332.05  604.32 )">(*9)</text><text style="&st18;" transform="matrix(&st17;  5429.73  422.77 )">(*9)</text><text style="&st18;" transform="matrix(&st17;  5429.73  516.26 )">(*9)</text><text style="&st18;" transform="matrix(&st17;  5429.73  626.74 )">(*9)</text><text style="&st18;" transform="matrix(&st16;  5332.05  663.81 )">(*9)</text><text style="&st18;" transform="matrix(&st16;  5330.89  321.03 )">W-B</text><text ewd:textID="146" style="&st18;" transform="matrix(&st16;  5193.48  332.37 )">Rear Fog Light <tspan dy="6.0" x="0 ">Socket &amp; Wire</tspan></text><text style="&st18;" transform="matrix(&st16;  5193.47  325.26 )">T18</text><text style="&st18;" transform="matrix(&st16;  5332.05  332.37 )">(*9)</text><path d=" M  5090.65,   409.72  L  5090.65,   443.71  L  5175.63,   443.71  L  5175.63,   409.72  L  5090.65,   409.72  " style="stroke-width: 1.42 ;&st7;  " /><text style="&st18;" transform="matrix(&st16;  5092.38  420.18 )">(E)</text><path d=" M  5090.65,   452.21  L  5090.65,   477.71  L  5175.63,   477.71  L  5175.63,   452.21  L  5090.65,   452.21  " style="stroke-width: 1.42 ;&st7;  " /><text style="&st18;" transform="matrix(&st16;  5092.38  462.68 )">(E)</text><path d=" M  5090.65,   520.20  L  5090.65,   545.69  L  5175.63,   545.69  L  5175.63,   520.20  L  5090.65,   520.20  " style="stroke-width: 1.42 ;&st7;  " /><text style="&st18;" transform="matrix(&st16;  5092.38  530.67 )">(E)</text><path d=" M  5090.65,   554.19  L  5090.65,   596.69  L  5175.63,   596.69  L  5175.63,   554.19  L  5090.65,   554.19  " style="stroke-width: 1.42 ;&st7;  " /><text style="&st18;" transform="matrix(&st16;  5092.38  564.66 )">(E)</text><text style="&st18;" transform="matrix(&st16;  5258.09  165.23 )">(GND)</text><path d=" M  5192.63,   154.76  L  5192.63,   180.26  L  5277.62,   180.26  L  5277.62,   154.76  L  5192.63,   154.76  " style="stroke-width: 1.42 ;&st7;  " /><text style="&st18;" transform="matrix(&st16;  5258.71  131.23 )">(RRE)</text><path d=" M  5192.63,   120.77  L  5192.63,   146.26  L  5277.62,   146.26  L  5277.62,   120.77  L  5192.63,   120.77  " style="stroke-width: 1.42 ;&st7;  " /><path d=" M  5192.63,   647.68  L  5192.63,   673.17  L  5277.62,   673.17  L  5277.62,   647.68  L  5192.63,   647.68  " style="stroke-width: 1.42 ;&st7;  " /><text style="&st18;" transform="matrix(&st16;  5267.4  658.14 )">(E)</text><path d=" M  5192.63,   554.19  L  5192.63,   579.69  L  5277.62,   579.69  L  5277.62,   554.19  L  5192.63,   554.19  " style="stroke-width: 1.42 ;&st7;  " /><text style="&st18;" transform="matrix(&st16;  5257.47  564.66 )">(BZR-)</text><path d=" M  5192.63,   588.19  L  5192.63,   613.68  L  5277.62,   613.68  L  5277.62,   588.19  L  5192.63,   588.19  " style="stroke-width: 1.42 ;&st7;  " /><text style="&st18;" transform="matrix(&st16;  5267.4  598.65 )">(E)</text><path d=" M  5192.63,   520.20  L  5192.63,   545.69  L  5277.62,   545.69  L  5277.62,   520.20  L  5192.63,   520.20  " style="stroke-width: 1.42 ;&st7;  " /><text style="&st18;" transform="matrix(&st16;  5267.4  530.67 )">(E)</text><path d=" M  5192.63,   486.20  L  5192.63,   511.70  L  5277.62,   511.70  L  5277.62,   486.20  L  5192.63,   486.20  " style="stroke-width: 1.42 ;&st7;  " /><text style="&st18;" transform="matrix(&st16;  5267.4  496.67 )">(E)</text><path d=" M  5192.63,   452.21  L  5192.63,   477.71  L  5277.62,   477.71  L  5277.62,   452.21  L  5192.63,   452.21  " style="stroke-width: 1.42 ;&st7;  " /><text style="&st18;" transform="matrix(&st16;  5267.4  462.68 )">(E)</text><path d=" M  5192.63,   418.22  L  5192.63,   443.71  L  5277.62,   443.71  L  5277.62,   418.22  L  5192.63,   418.22  " style="stroke-width: 1.42 ;&st7;  " /><text style="&st18;" transform="matrix(&st16;  5267.4  428.68 )">(E)</text><path d=" M  5192.63,   384.22  L  5192.63,   409.72  L  5277.62,   409.72  L  5277.62,   384.22  L  5192.63,   384.22  " style="stroke-width: 1.42 ;&st7;  " /><text style="&st18;" transform="matrix(&st16;  5258.09  394.69 )">(GND)</text><path d=" M  5192.63,   350.23  L  5192.63,   375.72  L  5277.62,   375.72  L  5277.62,   350.23  L  5192.63,   350.23  " style="stroke-width: 1.42 ;&st7;  " /><text style="&st18;" transform="matrix(&st16;  5267.4  360.69 )">(E)</text><path d=" M  5192.63,   316.23  L  5192.63,   341.73  L  5277.62,   341.73  L  5277.62,   316.23  L  5192.63,   316.23  " style="stroke-width: 1.42 ;&st7;  " /><text style="&st18;" transform="matrix(&st16;  5267.4  326.7 )">(E)</text><g ewd:code="IS3" ewd:figID="77" ewd:figtype="w2w"><path d=" M  5278.18,    48.53  L  5273.93,    44.28  L  5278.18,    40.03  " style="stroke-width: 1.42 ;&st7;  " /><path d=" M  5274.78,    48.53  L  5270.53,    44.28  L  5274.78,    40.03  " style="stroke-width: 1.42 ;&st7;  " /><text style="&st18;" transform="matrix(&st16;  5257.08  37.04 )">12</text></g><g ewd:code="TX1" ewd:figID="78" ewd:figtype="w2w"><text style="&st18;" transform="matrix(&st16;  5343.73  351.49 )">2</text><path d=" M  5328.04,   354.48  L  5332.29,   358.73  L  5328.04,   362.97  " style="stroke-width: 1.42 ;&st7;  " /><path d=" M  5331.44,   354.48  L  5335.69,   358.73  L  5331.44,   362.97  " style="stroke-width: 1.42 ;&st7;  " /></g><g ewd:code="VT1" ewd:figID="79" ewd:figtype="w2w"><text style="&st18;" transform="matrix(&st16;  5434.17  228.97 )">8</text><path d=" M  5451.84,   236.91  L  5447.59,   232.66  L  5443.34,   236.91  " style="stroke-width: 1.42 ;&st7;  " /><path d=" M  5451.84,   240.31  L  5447.59,   236.06  L  5443.34,   240.31  " style="stroke-width: 1.42 ;&st7;  " /></g><g ewd:code="ST2" ewd:figID="80" ewd:figtype="w2w"><text style="&st18;" transform="matrix(&st16;  5476.66  228.97 )">9</text><path d=" M  5494.33,   236.91  L  5490.08,   232.66  L  5485.83,   236.91  " style="stroke-width: 1.42 ;&st7;  " /><path d=" M  5494.33,   240.31  L  5490.08,   236.06  L  5485.83,   240.31  " style="stroke-width: 1.42 ;&st7;  " /></g><g ewd:code="HB" ewd:figID="121" ewd:figtype="gp"><path d=" M  5107.64,   697.25  L  5107.64,   701.50  " style="stroke-width: 0.85 ;&st7;  " /><path d=" M  5099.15,   701.50  L  5116.14,   701.50  " style="stroke-width: 0.85 ;&st7;  " /><path d=" M  5103.40,   704.33  L  5111.89,   704.33  " style="stroke-width: 0.85 ;&st7;  " /><path d=" M  5104.81,   707.17  L  5110.48,   707.17  " style="stroke-width: 0.85 ;&st7;  " /><path d=" M  5106.23,   710.00  L  5109.06,   710.00  " style="stroke-width: 0.85 ;&st7;  " /></g><g ewd:code="TC" ewd:figID="122" ewd:figtype="gp"><path d=" M  5422.09,   697.25  L  5422.09,   701.50  " style="stroke-width: 0.85 ;&st7;  " /><path d=" M  5413.59,   701.50  L  5430.59,   701.50  " style="stroke-width: 0.85 ;&st7;  " /><path d=" M  5417.84,   704.33  L  5426.34,   704.33  " style="stroke-width: 0.85 ;&st7;  " /><path d=" M  5419.26,   707.17  L  5424.92,   707.17  " style="stroke-width: 0.85 ;&st7;  " /><path d=" M  5420.68,   710.00  L  5423.51,   710.00  " style="stroke-width: 0.85 ;&st7;  " /></g><g ewd:code="TB" ewd:figID="123" ewd:figtype="gp"><path d=" M  5490.08,   314.82  L  5490.08,   319.07  " style="stroke-width: 0.85 ;&st7;  " /><path d=" M  5481.58,   319.07  L  5498.58,   319.07  " style="stroke-width: 0.85 ;&st7;  " /><path d=" M  5485.83,   321.90  L  5494.33,   321.90  " style="stroke-width: 0.85 ;&st7;  " /><path d=" M  5487.25,   324.73  L  5492.91,   324.73  " style="stroke-width: 0.85 ;&st7;  " /><path d=" M  5488.66,   327.56  L  5491.50,   327.56  " style="stroke-width: 0.85 ;&st7;  "/></g></svg>
