<?xml version="1.0" encoding="utf-8"?>
<!DOCTYPE svg PUBLIC "-//W3C//DTD SVG 1.0//EN" "http://www.w3.org/TR/2001/REC-SVG-20010904/DTD/svg10.dtd"[
	<!ENTITY ns_flows "http://ns.adobe.com/Flows/1.0/">
	<!ENTITY ns_svg "http://www.w3.org/2000/svg">
	<!ENTITY ns_xlink "http://www.w3.org/1999/xlink">
	<!ENTITY st0 "font-size:7px;font-family:'MS-PGothic';adobe-font-script:japanese;">
	<!ENTITY st1 "font-size:6px;font-family:'ArialMT';">
	<!-- White fill  -->
	<!ENTITY st2 "fill:#FFFFFF;stroke:#000000; stroke-width:1.41;stroke-linecap:round;stroke-linejoin:round;">
	<!-- Yellow fill  -->
	<!ENTITY st3 "fill:#FFFFCC;stroke:#FFFFCC; stroke-width:0.1;stroke-linecap:round;stroke-linejoin:round;">
	<!-- Gray fill  -->
	<!ENTITY st4 "fill:#CCCCCC;stroke:#CCCCCC; stroke-width:0.1;stroke-linecap:round;stroke-linejoin:round;">
	<!-- Light-blue fill -->
	<!ENTITY st5 "fill:#CCECF4;stroke:#000000; stroke-width:1.133;stroke-linecap:round;stroke-linejoin:round;">
	<!ENTITY st6 "fill:none;stroke-linecap:butt; stroke-linejoin:round;">
	<!ENTITY st7 "fill:none;stroke:#000000;stroke-linecap:round;stroke-linejoin:round;">
	<!ENTITY st8 "enable-background:new    ;">
	<!-- Black fill -->
	<!ENTITY st9 "fill:#000000;stroke:#000000; stroke-linecap:round;stroke-linejoin:round;">
	<!-- SRS note   -->
	<!ENTITY st10 "font-size:9px;font-family:'ArialMT';">
	<!ENTITY st11 "font-size:9px;font-family:'Svg Symbol';">
	<!ENTITY st12 "font-size:6px;font-family:'Svg Symbol';">
	<!ENTITY st13 "fill:none;stroke:#ff0000;stroke-linecap:round;stroke-linejoin:round;">
	<!-- Yellow fill  -->
	<!ENTITY st14 "fill:#FFFF00;stroke:#FFFF00; stroke-width:0.1;stroke-linecap:round;stroke-linejoin:round;">
	<!ENTITY st15 "font-size:6px;font-family:'MS-PGothic';adobe-font-script:japanese;">
	<!ENTITY st16 "1.00 0.00 0.00 1.00">
	<!ENTITY st17 "0.00 -1.00 1.00 0.00">
	<!ENTITY st18 "font-size:6px;font-family:'Arial';">
	<!ENTITY st19 "font-size:9px;font-family:'Arial';">
	<!ENTITY st20 "font-size:6px;font-family:'MS-PGothic','MS PGothic';adobe-font-script:japanese;">
	<!ENTITY st21 "font-size:7px;font-family:'MS-PGothic','MS PGothic';adobe-font-script:japanese;">
	<!ATTLIST svg
		xmlns:ewd CDATA #FIXED "http://shcl.co.jp/ewd"
		xmlns:a CDATA #FIXED "http://ns.adobe.com/AdobeSVGViewerExtensions/3.0/"
		ewd:ver CDATA #IMPLIED
	>
	<!ATTLIST a
		ewd:lineID CDATA #IMPLIED
		ewd:groupID CDATA #IMPLIED
		ewd:figtype CDATA #IMPLIED
		ewd:code CDATA #IMPLIED
		ewd:figID CDATA #IMPLIED
		ewd:pinNo CDATA #IMPLIED
		ewd:comment CDATA #IMPLIED >
	<!ATTLIST g
		ewd:lineID CDATA #IMPLIED
		ewd:groupID CDATA #IMPLIED
		ewd:figtype CDATA #IMPLIED
		ewd:code CDATA #IMPLIED
		ewd:figID CDATA #IMPLIED
		ewd:pinNo CDATA #IMPLIED
		ewd:comment CDATA #IMPLIED >
	<!ATTLIST text
		ewd:textID CDATA #IMPLIED >
	<!ATTLIST title
		ewd:textID CDATA #IMPLIED >
]>
<!-- Generator: Shintec Hozumi YS   -->
<svg onload="call_execInitLoadProc_svg('system')" style="overflow:visible;  enable-background:new 0 0 1031.700 710.000" viewBox="0 0 1031.700 710.000" height="710.000" width="1031.700" xml:space="preserve" ewd:ver="2.3.1.16" xmlns="&ns_svg;" xmlns:a="http://ns.adobe.com/AdobeSVGViewerExtensions/3.0/" xmlns:ewd="http://shcl.co.jp/ewd" xmlns:xlink="&ns_xlink;">
<path style="stroke-width: 1.42 ;&st7;  " d=" M   361.91,   392.72  L   356.94,   397.69  " /><path style="stroke-width: 1.42 ;&st7;  " d=" M   368.97,   409.72  L   373.94,   404.75  " /><path style="stroke-width: 1.42 ;&st7;  " d=" M   356.94,   404.75  L   361.91,   409.72  " /><path style="stroke-width: 1.42 ;&st7;  " d=" M   373.94,   397.69  L   368.97,   392.72  " /><path style="stroke-width: 1.42 ;&st7;  " d=" M   310.92,   171.76  L   305.95,   176.73  " /><path style="stroke-width: 1.42 ;&st7;  " d=" M   317.97,   188.75  L   322.95,   183.78  " /><path style="stroke-width: 1.42 ;&st7;  " d=" M   305.95,   183.78  L   310.92,   188.75  " /><path style="stroke-width: 1.42 ;&st7;  " d=" M   322.95,   176.73  L   317.97,   171.76  " /><path style="stroke-width: 1.42 ;&st7;  " d=" M   322.95,   137.76  L   314.45,   137.76  " /><text style="&st18;" transform="matrix(&st17;  421.23  380.13 )">B-L</text><text style="&st18;" transform="matrix(&st17;  361.74  431.27 )">L-R</text><text style="&st18;" transform="matrix(&st17;  387.24  431.27 )">L-R</text><text style="&st18;" transform="matrix(&st17;  361.74  354.79 )">L-R</text><text style="&st18;" transform="matrix(&st17;  285.26  207.67 )">R</text><text style="&st18;" transform="matrix(&st17;  310.75  207.67 )">R</text><text style="&st18;" transform="matrix(&st17;  310.75  165.18 )">R</text><text style="&st18;" transform="matrix(&st17;  310.75  114.19 )">R</text><text style="&st18;" transform="matrix(&st16;  487.08  74.58 )">L-W</text><text style="&st18;" transform="matrix(&st17;  285.26  429.41 )">W</text><path style="stroke-width: 1.42 ;&st7;  " d=" M   140.95,   562.69  L   135.98,   567.66  " /><path style="stroke-width: 1.42 ;&st7;  " d=" M   148.00,   579.69  L   152.97,   574.72  " /><path style="stroke-width: 1.42 ;&st7;  " d=" M   135.98,   574.72  L   140.95,   579.69  " /><path style="stroke-width: 1.42 ;&st7;  " d=" M   152.97,   567.66  L   148.00,   562.69  " /><text style="&st18;" transform="matrix(&st17;  89.79  666.15 )">W-B</text><text style="&st18;" transform="matrix(&st17;  140.78  666.15 )">W-B</text><text style="&st18;" transform="matrix(&st17;  140.78  598.16 )">W-B</text><text style="&st18;" transform="matrix(&st17;  140.78  555.66 )">W-B</text><path style="stroke-width: 1.42 ;&st7;  " d=" M   297.45,   392.72  L   288.95,   392.72  " /><text style="&st18;" transform="matrix(&st16;  158.28  380.52 )">W</text><text style="&st18;" transform="matrix(&st16;  156.42  391.86 )">(*7)</text><text style="&st18;" transform="matrix(&st16;  155.1  355.03 )">R-W</text><text style="&st18;" transform="matrix(&st16;  156.42  366.36 )">(*6)</text><text style="&st18;" transform="matrix(&st17;  285.26  343.49 )">B</text><text style="&st18;" transform="matrix(&st17;  296.59  346.29 )">(*9)</text><text style="&st18;" transform="matrix(&st17;  262.59  346.29 )">(*8)</text><text style="&st18;" transform="matrix(&st17;  251.26  347.6 )">R-W</text><text style="&st18;" transform="matrix(&st17;  251.26  432.59 )">R-W</text><text style="&st18;" transform="matrix(&st17;  262.59  431.27 )">(*8)</text><text style="&st18;" transform="matrix(&st17;  296.59  431.27 )">(*9)</text><g ewd:figtype="rb" ewd:figID="1" ewd:code="FUSE59"><path style="stroke-width: 0.85 ;&st7;  " d=" M   314.45,    78.27  L   314.45,    95.27  " /><path style="stroke-width: 1.42 ;&st7;  " d=" M   316.57,   103.77  L   312.32,   103.77  " /><path style="stroke-width: 1.42 ;&st7;  " d=" M   316.57,    95.27  L   312.32,    95.27  " /><path style="stroke-width: 1.42 ;&st7;   " d=" M   320.82,    99.52  C   320.82     97.17    318.92     95.27    316.57     95.27  " /><path style="stroke-width: 1.42 ;&st7;   " d=" M   316.57,   103.77  C   318.92    103.77    320.82    101.87    320.82     99.52  " /><path style="stroke-width: 1.42 ;&st7;   " d=" M   308.07,    99.52  C   308.07    101.87    309.98    103.77    312.32    103.77  " /><path style="stroke-width: 1.42 ;&st7;   " d=" M   312.32,    95.27  C   309.98     95.27    308.07     97.17    308.07     99.52  " /><path style="stroke-width: 0.28 ;&st9;  " d=" M   314.45,    90.37  L   311.61,    87.54  L   311.61,    91.79  L   314.45,    94.62  L   317.28,    91.79  L   317.28,    87.54  L   314.45,    90.37  " /><text style="&st18;" transform="matrix(&st16;  306.37  32.08 )">(BAT)</text><text style="&st18;" transform="matrix(&st16;  308.11  86.47 )">2</text><text style="&st18;" transform="matrix(&st16;  312.57  101.49 )">4</text><text style="&st18;" transform="matrix(&st16;  330.87  56.17 )">50A <tspan x="0 " dy="6.0">HEAD</tspan></text><path style="stroke-width: 0.85 ;&st7;  " d=" M   314.45,    69.77  L   314.45,    78.27  " /><path style="stroke-width: 0.85 ;&st7;   " d=" M   315.86,    68.36  C   315.86     67.57    315.23     66.94    314.45     66.94  " /><path style="stroke-width: 0.85 ;&st7;   " d=" M   314.45,    66.94  C   313.67     66.94    313.03     67.57    313.03     68.36  " /><path style="stroke-width: 0.85 ;&st7;   " d=" M   313.03,    68.36  C   313.03     69.14    313.67     69.77    314.45     69.77  " /><path style="stroke-width: 0.85 ;&st7;   " d=" M   314.45,    69.77  C   315.23     69.77    315.86     69.14    315.86     68.36  " /><path style="stroke-width: 0.85 ;&st7;   " d=" M   315.86,    45.69  C   315.86     44.91    315.23     44.28    314.45     44.28  " /><path style="stroke-width: 0.85 ;&st7;   " d=" M   314.45,    44.28  C   313.67     44.28    313.03     44.91    313.03     45.69  " /><path style="stroke-width: 0.85 ;&st7;   " d=" M   313.03,    45.69  C   313.03     46.48    313.67     47.11    314.45     47.11  " /><path style="stroke-width: 0.85 ;&st7;   " d=" M   314.45,    47.11  C   315.23     47.11    315.86     46.48    315.86     45.69  " /><path style="stroke-width: 1.42 ;&st7;   " d=" M   314.45,    66.94  C   317.19     65.33    318.10     61.80    316.48     59.06  " /><path style="stroke-width: 1.42 ;&st7;   " d=" M   316.48,    59.06  C   315.96     58.18    315.33     57.55    314.45     57.03  " /><path style="stroke-width: 1.42 ;&st7;   " d=" M   314.45,    47.11  C   311.71     48.72    310.80     52.25    312.41     54.99  " /><path style="stroke-width: 1.42 ;&st7;   " d=" M   312.41,    54.99  C   312.93     55.87    313.57     56.51    314.45     57.03  " /><path style="stroke-width: 1.42 ;&st7;  " d=" M   301.70,    35.78  L   301.70,    78.27  L   327.20,    78.27  L   327.20,    35.78  L   301.70,    35.78  " /></g><g ewd:figtype="rb" ewd:figID="2" ewd:code="2"><path style="stroke-width: 1.42 ;&st7;  " d=" M   316.57,   222.75  L   312.32,   222.75  " /><path style="stroke-width: 1.42 ;&st7;  " d=" M   316.57,   231.25  L   312.32,   231.25  " /><path style="stroke-width: 1.42 ;&st7;  " d=" M   291.08,   222.75  L   286.83,   222.75  " /><path style="stroke-width: 1.42 ;&st7;  " d=" M   291.08,   231.25  L   286.83,   231.25  " /><path style="stroke-width: 1.42 ;&st7;  " d=" M   316.57,   299.24  L   312.32,   299.24  " /><path style="stroke-width: 1.42 ;&st7;  " d=" M   316.57,   307.73  L   312.32,   307.73  " /><path style="stroke-width: 1.42 ;&st7;  " d=" M   291.08,   299.24  L   286.83,   299.24  " /><path style="stroke-width: 1.42 ;&st7;  " d=" M   291.08,   307.73  L   286.83,   307.73  " /><path style="stroke-width: 1.42 ;&st7;   " d=" M   312.32,   222.75  C   309.98    222.75    308.07    224.65    308.07    227.00  " /><path style="stroke-width: 1.42 ;&st7;   " d=" M   308.07,   227.00  C   308.07    229.34    309.98    231.25    312.32    231.25  " /><path style="stroke-width: 1.42 ;&st7;   " d=" M   316.57,   231.25  C   318.92    231.25    320.82    229.34    320.82    227.00  " /><path style="stroke-width: 1.42 ;&st7;   " d=" M   320.82,   227.00  C   320.82    224.65    318.92    222.75    316.57    222.75  " /><path style="stroke-width: 1.42 ;&st7;   " d=" M   286.83,   222.75  C   284.48    222.75    282.58    224.65    282.58    227.00  " /><path style="stroke-width: 1.42 ;&st7;   " d=" M   282.58,   227.00  C   282.58    229.34    284.48    231.25    286.83    231.25  " /><path style="stroke-width: 1.42 ;&st7;   " d=" M   291.08,   231.25  C   293.42    231.25    295.33    229.34    295.33    227.00  " /><path style="stroke-width: 1.42 ;&st7;   " d=" M   295.33,   227.00  C   295.33    224.65    293.42    222.75    291.08    222.75  " /><path style="stroke-width: 1.42 ;&st7;   " d=" M   312.32,   299.24  C   309.98    299.24    308.07    301.14    308.07    303.48  " /><path style="stroke-width: 1.42 ;&st7;   " d=" M   308.07,   303.48  C   308.07    305.83    309.98    307.73    312.32    307.73  " /><path style="stroke-width: 1.42 ;&st7;   " d=" M   316.57,   307.73  C   318.92    307.73    320.82    305.83    320.82    303.48  " /><path style="stroke-width: 1.42 ;&st7;   " d=" M   320.82,   303.48  C   320.82    301.14    318.92    299.24    316.57    299.24  " /><path style="stroke-width: 1.42 ;&st7;   " d=" M   286.83,   299.24  C   284.48    299.24    282.58    301.14    282.58    303.48  " /><path style="stroke-width: 1.42 ;&st7;   " d=" M   282.58,   303.48  C   282.58    305.83    284.48    307.73    286.83    307.73  " /><path style="stroke-width: 1.42 ;&st7;   " d=" M   291.08,   307.73  C   293.42    307.73    295.33    305.83    295.33    303.48  " /><path style="stroke-width: 1.42 ;&st7;   " d=" M   295.33,   303.48  C   295.33    301.14    293.42    299.24    291.08    299.24  " /><path style="stroke-width: 0.28 ;&st9;  " d=" M   314.45,   236.14  L   317.28,   238.97  L   317.28,   234.73  L   314.45,   231.89  L   311.61,   234.73  L   311.61,   238.97  L   314.45,   236.14  " /><path style="stroke-width: 0.28 ;&st9;  " d=" M   288.95,   236.14  L   291.78,   238.97  L   291.78,   234.73  L   288.95,   231.89  L   286.12,   234.73  L   286.12,   238.97  L   288.95,   236.14  " /><path style="stroke-width: 0.28 ;&st9;  " d=" M   314.45,   294.34  L   311.61,   291.51  L   311.61,   295.76  L   314.45,   298.59  L   317.28,   295.76  L   317.28,   291.51  L   314.45,   294.34  " /><path style="stroke-width: 0.28 ;&st9;  " d=" M   288.95,   294.34  L   286.12,   291.51  L   286.12,   295.76  L   288.95,   298.59  L   291.78,   295.76  L   291.78,   291.51  L   288.95,   294.34  " /><path style="stroke-width: 0.85 ;&st7;  " d=" M   314.45,   231.25  L   314.45,   248.24  " /><path style="stroke-width: 0.85 ;&st7;  " d=" M   288.95,   248.24  L   288.95,   231.25  " /><path style="stroke-width: 0.85 ;&st7;  " d=" M   288.95,   282.24  L   288.95,   299.24  " /><path style="stroke-width: 0.85 ;&st7;  " d=" M   314.45,   299.24  L   314.45,   282.24  " /><text style="&st18;" transform="matrix(&st16;  282.61  290.43 )">2</text><text style="&st18;" transform="matrix(&st16;  308.11  290.43 )">3</text><text style="&st18;" transform="matrix(&st16;  282.61  244.55 )">1</text><text style="&st18;" transform="matrix(&st16;  308.11  244.55 )">5</text><text style="&st18;" transform="matrix(&st16;  312.57  228.97 )">2</text><text style="&st18;" transform="matrix(&st16;  287.07  228.97 )">2</text><text style="&st18;" transform="matrix(&st16;  312.57  305.45 )">2</text><text style="&st18;" transform="matrix(&st16;  287.07  305.45 )">2</text><text style="&st18;" transform="matrix(&st17;  330.58  272.59 )" ewd:textID="7">H-LP <tspan x="0 " dy="6.0">Relay</tspan></text><path style="stroke-width: 1.42 ;&st7;  " d=" M   322.95,   248.24  L   280.45,   248.24  L   280.45,   282.24  L   322.95,   282.24  L   322.95,   248.24  " /><path style="stroke-width: 1.42 ;&st7;  " d=" M   314.45,   275.16  L   320.11,   252.49  " /><path style="stroke-width: 0.85 ;&st7;  " d=" M   314.45,   282.24  L   314.45,   277.99  " /><path style="stroke-width: 0.85 ;&st7;  " d=" M   314.45,   248.24  L   314.45,   252.49  " /><path style="stroke-width: 0.85 ;&st7;  " d=" M   288.95,   248.24  L   288.95,   256.74  " /><path style="stroke-width: 0.85 ;&st7;  " d=" M   288.95,   273.74  L   288.95,   282.24  " /><path style="stroke-width: 0.85 ;&st7;   " d=" M   315.86,   276.57  C   315.86    275.79    315.23    275.16    314.45    275.16  " /><path style="stroke-width: 0.85 ;&st7;   " d=" M   314.45,   275.16  C   313.67    275.16    313.03    275.79    313.03    276.57  " /><path style="stroke-width: 0.85 ;&st7;   " d=" M   313.03,   276.57  C   313.03    277.35    313.67    277.99    314.45    277.99  " /><path style="stroke-width: 0.85 ;&st7;   " d=" M   314.45,   277.99  C   315.23    277.99    315.86    277.35    315.86    276.57  " /><path style="stroke-width: 0.85 ;&st7;   " d=" M   315.86,   253.91  C   315.86    253.13    315.23    252.49    314.45    252.49  " /><path style="stroke-width: 0.85 ;&st7;   " d=" M   314.45,   252.49  C   313.67    252.49    313.03    253.13    313.03    253.91  " /><path style="stroke-width: 0.85 ;&st7;   " d=" M   313.03,   253.91  C   313.03    254.69    313.67    255.33    314.45    255.33  " /><path style="stroke-width: 0.85 ;&st7;   " d=" M   314.45,   255.33  C   315.23    255.33    315.86    254.69    315.86    253.91  " /><path style="stroke-width: 0.85 ;&st7;   " d=" M   286.42,   262.76  C   287.79    264.16    290.03    264.18    291.43    262.81  " /><path style="stroke-width: 0.85 ;&st7;   " d=" M   291.43,   262.81  C   292.83    261.44    292.85    259.20    291.48    257.80  " /><path style="stroke-width: 0.85 ;&st7;   " d=" M   291.48,   257.80  C   290.79    257.10    289.94    256.74    288.95    256.74  " /><path style="stroke-width: 0.85 ;&st7;   " d=" M   286.42,   267.72  C   287.79    269.12    290.03    269.14    291.43    267.77  " /><path style="stroke-width: 0.85 ;&st7;   " d=" M   291.43,   267.77  C   292.83    266.40    292.85    264.16    291.48    262.76  " /><path style="stroke-width: 0.85 ;&st7;   " d=" M   291.48,   262.76  C   290.11    261.37    287.87    261.34    286.47    262.71  " /><path style="stroke-width: 0.85 ;&st7;   " d=" M   286.47,   262.71  C   286.45    262.73    286.44    262.74    286.42    262.76  " /><path style="stroke-width: 0.85 ;&st7;   " d=" M   288.95,   273.74  C   290.91    273.74    292.49    272.15    292.49    270.20  " /><path style="stroke-width: 0.85 ;&st7;   " d=" M   292.49,   270.20  C   292.49    268.24    290.91    266.66    288.95    266.66  " /><path style="stroke-width: 0.85 ;&st7;   " d=" M   288.95,   266.66  C   287.96    266.66    287.12    267.01    286.42    267.72  " /></g><g ewd:figtype="rb" ewd:figID="3" ewd:code="2"><path style="stroke-width: 1.42 ;&st7;  " d=" M   393.06,   452.21  L   388.81,   452.21  " /><path style="stroke-width: 1.42 ;&st7;  " d=" M   393.06,   443.71  L   388.81,   443.71  " /><path style="stroke-width: 1.42 ;&st7;  " d=" M   367.56,   452.21  L   363.31,   452.21  " /><path style="stroke-width: 1.42 ;&st7;  " d=" M   367.56,   443.71  L   363.31,   443.71  " /><path style="stroke-width: 1.42 ;&st7;   " d=" M   390.93,   520.20  C   388.72    518.38    385.59    518.44    383.45    520.34  " /><path style="stroke-width: 1.42 ;&st7;   " d=" M   397.31,   447.96  C   397.31    445.61    395.41    443.71    393.06    443.71  " /><path style="stroke-width: 1.42 ;&st7;   " d=" M   393.06,   452.21  C   395.41    452.21    397.31    450.31    397.31    447.96  " /><path style="stroke-width: 1.42 ;&st7;   " d=" M   384.56,   447.96  C   384.56    450.31    386.46    452.21    388.81    452.21  " /><path style="stroke-width: 1.42 ;&st7;   " d=" M   388.81,   443.71  C   386.46    443.71    384.56    445.61    384.56    447.96  " /><path style="stroke-width: 1.42 ;&st7;   " d=" M   371.81,   447.96  C   371.81    445.61    369.91    443.71    367.56    443.71  " /><path style="stroke-width: 1.42 ;&st7;   " d=" M   367.56,   452.21  C   369.91    452.21    371.81    450.31    371.81    447.96  " /><path style="stroke-width: 1.42 ;&st7;   " d=" M   359.07,   447.96  C   359.07    450.31    360.97    452.21    363.31    452.21  " /><path style="stroke-width: 1.42 ;&st7;   " d=" M   363.31,   443.71  C   360.97    443.71    359.07    445.61    359.07    447.96  " /><path style="stroke-width: 1.42 ;&st7;   " d=" M   390.93,   520.20  C   393.15    522.02    396.28    521.96    398.42    520.06  " /><path style="stroke-width: 1.42 ;&st7;   " d=" M   365.44,   520.20  C   363.23    518.38    360.10    518.44    357.95    520.34  " /><path style="stroke-width: 0.85 ;&st7;  " d=" M   390.93,   520.20  L   390.93,   503.20  " /><path style="stroke-width: 0.85 ;&st7;  " d=" M   365.44,   503.20  L   365.44,   520.20  " /><path style="stroke-width: 0.85 ;&st7;  " d=" M   390.93,   452.21  L   390.93,   469.21  " /><path style="stroke-width: 0.85 ;&st7;  " d=" M   365.44,   452.21  L   365.44,   469.21  " /><path style="stroke-width: 0.85 ;&st7;  " d=" M   399.43,   486.20  L   424.93,   486.20  L   424.93,   452.21  " /><path style="stroke-width: 0.28 ;&st9;  " d=" M   390.93,   457.11  L   393.77,   459.94  L   393.77,   455.69  L   390.93,   452.86  L   388.10,   455.69  L   388.10,   459.94  L   390.93,   457.11  " /><path style="stroke-width: 0.28 ;&st9;  " d=" M   365.44,   457.11  L   368.27,   459.94  L   368.27,   455.69  L   365.44,   452.86  L   362.61,   455.69  L   362.61,   459.94  L   365.44,   457.11  " /><text style="&st18;" transform="matrix(&st17;  353.25  499.91 )" ewd:textID="6">DIM Relay</text><text style="&st18;" transform="matrix(&st16;  389.06  449.93 )">2</text><text style="&st18;" transform="matrix(&st16;  363.56  449.93 )">2</text><path style="stroke-width: 1.42 ;&st7;   " d=" M   365.44,   520.20  C   367.65    522.02    370.78    521.96    372.92    520.06  " /><text style="&st18;" transform="matrix(&st16;  402.02  482.51 )">4</text><text style="&st18;" transform="matrix(&st16;  384.6  465.52 )">3</text><text style="&st18;" transform="matrix(&st16;  359.1  465.52 )">1</text><text style="&st18;" transform="matrix(&st16;  359.1  511.39 )">2</text><text style="&st18;" transform="matrix(&st16;  384.6  511.39 )">5</text><path style="stroke-width: 1.42 ;&st7;  " d=" M   427.05,   443.71  L   422.80,   443.71  " /><path style="stroke-width: 1.42 ;&st7;  " d=" M   427.05,   452.21  L   422.80,   452.21  " /><path style="stroke-width: 1.42 ;&st7;   " d=" M   422.80,   443.71  C   420.46    443.71    418.56    445.61    418.56    447.96  " /><path style="stroke-width: 1.42 ;&st7;   " d=" M   418.56,   447.96  C   418.56    450.31    420.46    452.21    422.80    452.21  " /><path style="stroke-width: 1.42 ;&st7;   " d=" M   427.05,   452.21  C   429.40    452.21    431.30    450.31    431.30    447.96  " /><path style="stroke-width: 1.42 ;&st7;   " d=" M   431.30,   447.96  C   431.30    445.61    429.40    443.71    427.05    443.71  " /><path style="stroke-width: 0.28 ;&st9;  " d=" M   424.93,   457.11  L   427.76,   459.94  L   427.76,   455.69  L   424.93,   452.86  L   422.10,   455.69  L   422.10,   459.94  L   424.93,   457.11  " /><text style="&st18;" transform="matrix(&st16;  423.05  449.93 )">2</text><path style="stroke-width: 0.85 ;&st7;  " d=" M   365.44,   477.71  L   365.44,   469.21  " /><path style="stroke-width: 0.85 ;&st7;  " d=" M   365.44,   503.20  L   365.44,   494.70  " /><path style="stroke-width: 0.85 ;&st7;  " d=" M   390.93,   503.20  L   390.93,   498.95  " /><path style="stroke-width: 0.85 ;&st7;  " d=" M   399.43,   486.20  L   396.60,   486.20  " /><path style="stroke-width: 0.85 ;&st7;  " d=" M   390.93,   473.46  L   390.93,   469.21  " /><path style="stroke-width: 1.42 ;&st7;  " d=" M   390.93,   476.29  L   396.60,   498.95  " /><path style="stroke-width: 0.85 ;&st7;   " d=" M   362.91,   483.73  C   364.28    485.12    366.52    485.15    367.92    483.78  " /><path style="stroke-width: 0.85 ;&st7;   " d=" M   367.92,   483.78  C   369.31    482.41    369.34    480.16    367.97    478.77  " /><path style="stroke-width: 0.85 ;&st7;   " d=" M   367.97,   478.77  C   367.28    478.06    366.43    477.70    365.44    477.70  " /><path style="stroke-width: 0.85 ;&st7;   " d=" M   362.91,   488.68  C   364.28    490.08    366.52    490.10    367.92    488.73  " /><path style="stroke-width: 0.85 ;&st7;   " d=" M   367.92,   488.73  C   369.31    487.36    369.34    485.12    367.97    483.73  " /><path style="stroke-width: 0.85 ;&st7;   " d=" M   367.97,   483.73  C   366.60    482.33    364.36    482.31    362.96    483.67  " /><path style="stroke-width: 0.85 ;&st7;   " d=" M   362.96,   483.67  C   362.94    483.69    362.93    483.71    362.91    483.73  " /><path style="stroke-width: 0.85 ;&st7;   " d=" M   365.44,   494.70  C   367.39    494.70    368.98    493.12    368.98    491.16  " /><path style="stroke-width: 0.85 ;&st7;   " d=" M   368.98,   491.16  C   368.98    489.21    367.39    487.62    365.44    487.62  " /><path style="stroke-width: 0.85 ;&st7;   " d=" M   365.44,   487.62  C   364.45    487.62    363.60    487.98    362.91    488.68  " /><path style="stroke-width: 0.85 ;&st7;   " d=" M   392.35,   497.54  C   392.35    496.75    391.72    496.12    390.93    496.12  " /><path style="stroke-width: 0.85 ;&st7;   " d=" M   390.93,   496.12  C   390.15    496.12    389.52    496.75    389.52    497.54  " /><path style="stroke-width: 0.85 ;&st7;   " d=" M   389.52,   497.54  C   389.52    498.32    390.15    498.95    390.93    498.95  " /><path style="stroke-width: 0.85 ;&st7;   " d=" M   390.93,   498.95  C   391.72    498.95    392.35    498.32    392.35    497.54  " /><path style="stroke-width: 0.85 ;&st7;   " d=" M   392.35,   474.87  C   392.35    474.09    391.72    473.46    390.93    473.46  " /><path style="stroke-width: 0.85 ;&st7;   " d=" M   390.93,   473.46  C   390.15    473.46    389.52    474.09    389.52    474.87  " /><path style="stroke-width: 0.85 ;&st7;   " d=" M   389.52,   474.87  C   389.52    475.65    390.15    476.29    390.93    476.29  " /><path style="stroke-width: 0.85 ;&st7;   " d=" M   390.93,   476.29  C   391.72    476.29    392.35    475.65    392.35    474.87  " /><path style="stroke-width: 0.85 ;&st7;   " d=" M   396.60,   486.20  C   396.60    485.42    395.97    484.79    395.18    484.79  " /><path style="stroke-width: 0.85 ;&st7;   " d=" M   395.18,   484.79  C   394.40    484.79    393.77    485.42    393.77    486.20  " /><path style="stroke-width: 0.85 ;&st7;   " d=" M   393.77,   486.20  C   393.77    486.99    394.40    487.62    395.18    487.62  " /><path style="stroke-width: 0.85 ;&st7;   " d=" M   395.18,   487.62  C   395.97    487.62    396.60    486.99    396.60    486.20  " /><path style="stroke-width: 1.42 ;&st7;  " d=" M   399.43,   503.20  L   356.94,   503.20  L   356.94,   469.21  L   399.43,   469.21  L   399.43,   503.20  " /></g><g ewd:figtype="rb" ewd:figID="4" ewd:code="FUSE12"><path style="stroke-width: 1.42 ;&st7;  " d=" M   427.05,   307.73  L   422.80,   307.73  " /><path style="stroke-width: 1.42 ;&st7;  " d=" M   427.05,   316.23  L   422.80,   316.23  " /><path style="stroke-width: 1.42 ;&st7;  " d=" M   427.05,   205.75  L   422.80,   205.75  " /><path style="stroke-width: 1.42 ;&st7;  " d=" M   427.05,   214.25  L   422.80,   214.25  " /><path style="stroke-width: 1.42 ;&st7;   " d=" M   431.30,   210.00  C   431.30    207.65    429.40    205.75    427.05    205.75  " /><path style="stroke-width: 1.42 ;&st7;   " d=" M   422.80,   307.73  C   420.46    307.73    418.56    309.64    418.56    311.98  " /><path style="stroke-width: 1.42 ;&st7;   " d=" M   418.56,   311.98  C   418.56    314.33    420.46    316.23    422.80    316.23  " /><path style="stroke-width: 1.42 ;&st7;   " d=" M   427.05,   316.23  C   429.40    316.23    431.30    314.33    431.30    311.98  " /><path style="stroke-width: 1.42 ;&st7;   " d=" M   431.30,   311.98  C   431.30    309.64    429.40    307.73    427.05    307.73  " /><path style="stroke-width: 1.42 ;&st7;   " d=" M   422.80,   205.75  C   420.46    205.75    418.56    207.65    418.56    210.00  " /><path style="stroke-width: 1.42 ;&st7;   " d=" M   418.56,   210.00  C   418.56    212.35    420.46    214.25    422.80    214.25  " /><path style="stroke-width: 1.42 ;&st7;   " d=" M   427.05,   214.25  C   429.40    214.25    431.30    212.35    431.30    210.00  " /><path style="stroke-width: 0.85 ;&st7;  " d=" M   424.93,   282.24  L   424.93,   307.73  " /><path style="stroke-width: 0.85 ;&st7;  " d=" M   424.93,   214.25  L   424.93,   239.75  " /><path style="stroke-width: 0.28 ;&st9;  " d=" M   424.93,   219.14  L   427.76,   221.98  L   427.76,   217.73  L   424.93,   214.90  L   422.10,   217.73  L   422.10,   221.98  L   424.93,   219.14  " /><path style="stroke-width: 0.28 ;&st9;  " d=" M   424.93,   302.84  L   422.10,   300.01  L   422.10,   304.26  L   424.93,   307.09  L   427.76,   304.26  L   427.76,   300.01  L   424.93,   302.84  " /><text style="&st18;" transform="matrix(&st16;  423.05  211.97 )">2</text><text style="&st18;" transform="matrix(&st16;  441.35  260.14 )">10A <tspan x="0 " dy="6.0">H/LP LO LH</tspan></text><text style="&st18;" transform="matrix(&st16;  418.59  290.43 )">1</text><text style="&st18;" transform="matrix(&st16;  418.59  236.05 )">2</text><text style="&st18;" transform="matrix(&st16;  423.05  313.95 )">2</text><path style="stroke-width: 0.85 ;&st7;  " d=" M   424.93,   273.74  L   424.93,   282.24  " /><path style="stroke-width: 1.42 ;&st7;   " d=" M   424.93,   251.08  C   422.19    252.69    421.28    256.22    422.89    258.95  " /><path style="stroke-width: 1.42 ;&st7;   " d=" M   422.89,   258.95  C   423.41    259.84    424.05    260.47    424.93    260.99  " /><path style="stroke-width: 1.42 ;&st7;   " d=" M   424.93,   270.91  C   427.67    269.29    428.58    265.77    426.97    263.03  " /><path style="stroke-width: 1.42 ;&st7;   " d=" M   426.97,   263.03  C   426.45    262.15    425.81    261.51    424.93    260.99  " /><path style="stroke-width: 0.85 ;&st7;   " d=" M   426.35,   249.66  C   426.35    248.88    425.71    248.24    424.93    248.24  " /><path style="stroke-width: 0.85 ;&st7;   " d=" M   424.93,   248.24  C   424.15    248.24    423.51    248.88    423.51    249.66  " /><path style="stroke-width: 0.85 ;&st7;   " d=" M   423.51,   249.66  C   423.51    250.44    424.15    251.08    424.93    251.08  " /><path style="stroke-width: 0.85 ;&st7;   " d=" M   424.93,   251.08  C   425.71    251.08    426.35    250.44    426.35    249.66  " /><path style="stroke-width: 0.85 ;&st7;   " d=" M   426.35,   272.32  C   426.35    271.54    425.71    270.91    424.93    270.91  " /><path style="stroke-width: 0.85 ;&st7;   " d=" M   424.93,   270.91  C   424.15    270.91    423.51    271.54    423.51    272.32  " /><path style="stroke-width: 0.85 ;&st7;   " d=" M   423.51,   272.32  C   423.51    273.11    424.15    273.74    424.93    273.74  " /><path style="stroke-width: 0.85 ;&st7;   " d=" M   424.93,   273.74  C   425.71    273.74    426.35    273.11    426.35    272.32  " /><path style="stroke-width: 0.85 ;&st7;  " d=" M   424.93,   239.75  L   424.93,   248.24  " /><path style="stroke-width: 1.42 ;&st7;  " d=" M   412.18,   239.75  L   412.18,   282.24  L   437.68,   282.24  L   437.68,   239.75  L   412.18,   239.75  " /></g><g ewd:figtype="conn" ewd:figID="5" ewd:code="L53"><path style="stroke-width: 0.85 ;&st7;  " d=" M   143.28,   621.18  L   143.01,   621.65  L   142.92,   622.18  L   143.01,   622.71  L   143.28,   623.18  L   143.70,   623.53  L   144.20,   623.72  L   144.75,   623.72  L   145.25,   623.53  L   145.67,   623.18  L   145.94,   622.71  L   146.03,   622.18  L   145.94,   621.65  L   145.67,   621.18  L   145.25,   620.83  L   144.75,   620.65  L   144.20,   620.65  L   143.70,   620.83  L   143.28,   621.18  L   143.68,   621.89  L   143.68,   622.47  L   144.05,   622.92  L   144.62,   623.02  L   145.13,   622.73  L   145.33,   622.18  L   145.13,   621.63  L   144.62,   621.35  L   144.05,   621.44  L   144.48,   622.18  " /><path style="stroke-width: 0.85 ;&st7;  " d=" M   144.48,   622.18  L   135.98,   622.18  " /><path style="stroke-width: 0.85 ;&st7;  " d=" M   144.48,   613.68  L   144.48,   630.68  " /><path style="stroke-width: 1.42 ;&st7;  " d=" M   135.98,   613.68  L   135.98,   630.68  L   152.97,   630.68  L   152.97,   613.68  L   135.98,   613.68  " /><text style="&st18;" transform="matrix(&st16;  129.64  618.49 )">5</text><text style="&st18;" transform="matrix(&st16;  138.14  638.87 )">4</text><text style="&st18;" transform="matrix(&st16;  134.8  609.99 )">13</text><g ewd:figtype="title"><text style="&st18;" transform="matrix(&st17;  167.69  633.59 )" ewd:textID="18">No. 31 <tspan x="0 " dy="6.0">Junction Connector</tspan></text><text style="&st18;" transform="matrix(&st17;  160.87  633.58 )">L53</text></g></g><g ewd:figtype="conn" ewd:figID="6" ewd:code="L32,L34"><path style="stroke-width: 1.42 ;&st7;  " d=" M   280.45,   477.71  L   280.45,   494.70  L   297.45,   494.70  L   297.45,   477.71  L   280.45,   477.71  " /><path style="stroke-width: 0.85 ;&st7;  " d=" M   288.95,   477.71  L   288.95,   494.70  " /><text style="&st18;" transform="matrix(&st16;  279.47  510.27 )">3</text><text style="&st18;" transform="matrix(&st16;  279.47  501.2 )">6</text><text style="&st18;" transform="matrix(&st16;  286.69  501.2 )">A</text><path style="stroke-width: 1.42 ;&st7;   " d=" M   293.48,   508.30  C   293.48    505.80    291.45    503.77    288.95    503.77  " /><path style="stroke-width: 1.42 ;&st7;   " d=" M   288.95,   503.77  C   286.45    503.77    284.42    505.80    284.42    508.30  " /><path style="stroke-width: 1.42 ;&st7;   " d=" M   284.42,   508.30  C   284.42    510.80    286.45    512.83    288.95    512.83  " /><path style="stroke-width: 1.42 ;&st7;   " d=" M   288.95,   512.83  C   291.45    512.83    293.48    510.80    293.48    508.30  " /><path style="stroke-width: 1.42 ;&st7;   " d=" M   293.48,   499.24  C   293.48    496.73    291.45    494.70    288.95    494.70  " /><path style="stroke-width: 1.42 ;&st7;   " d=" M   288.95,   494.70  C   286.45    494.70    284.42    496.73    284.42    499.24  " /><path style="stroke-width: 1.42 ;&st7;   " d=" M   284.42,   499.24  C   284.42    501.74    286.45    503.77    288.95    503.77  " /><path style="stroke-width: 1.42 ;&st7;   " d=" M   288.95,   503.77  C   291.45    503.77    293.48    501.74    293.48    499.24  " /><text style="&st18;" transform="matrix(&st16;  286.69  510.27 )">B</text><text style="&st18;" transform="matrix(&st16;  279.47  466.08 )">4</text><text style="&st18;" transform="matrix(&st16;  279.47  475.14 )">1</text><path style="stroke-width: 1.42 ;&st7;   " d=" M   293.48,   473.17  C   293.48    470.67    291.45    468.64    288.95    468.64  " /><path style="stroke-width: 1.42 ;&st7;   " d=" M   288.95,   468.64  C   286.45    468.64    284.42    470.67    284.42    473.17  " /><path style="stroke-width: 1.42 ;&st7;   " d=" M   284.42,   473.17  C   284.42    475.68    286.45    477.71    288.95    477.71  " /><path style="stroke-width: 1.42 ;&st7;   " d=" M   288.95,   477.71  C   291.45    477.71    293.48    475.68    293.48    473.17  " /><text style="&st18;" transform="matrix(&st16;  286.69  466.08 )">A</text><path style="stroke-width: 1.42 ;&st7;   " d=" M   293.48,   464.11  C   293.48    461.60    291.45    459.58    288.95    459.58  " /><path style="stroke-width: 1.42 ;&st7;   " d=" M   288.95,   459.58  C   286.45    459.58    284.42    461.60    284.42    464.11  " /><path style="stroke-width: 1.42 ;&st7;   " d=" M   284.42,   464.11  C   284.42    466.61    286.45    468.64    288.95    468.64  " /><path style="stroke-width: 1.42 ;&st7;   " d=" M   288.95,   468.64  C   291.45    468.64    293.48    466.61    293.48    464.11  " /><text style="&st18;" transform="matrix(&st16;  286.69  475.14 )">B</text><g ewd:figtype="title"><text style="&st18;" transform="matrix(&st17;  264.86  497.61 )" ewd:textID="15">No. 24 <tspan x="0 " dy="6.0">Junction </tspan><tspan x="0 " dy="6.0">Connector</tspan></text><text style="&st18;" transform="matrix(&st17;  258.04  497.6 )">L32(B)</text><text style="&st18;" transform="matrix(&st17;  238.8  497.61 )" ewd:textID="17">No. 26 <tspan x="0 " dy="6.0">Junction </tspan><tspan x="0 " dy="6.0">Connector</tspan></text><text style="&st18;" transform="matrix(&st17;  231.97  497.6 )">L34(A)</text></g><g ewd:code="" ewd:figID="47" ewd:comment="" ewd:figtype="commref"><text style="&st18;" transform="matrix(&st16;  294.04  510.27 )">(RHD)</text></g><g ewd:code="" ewd:figID="48" ewd:comment="" ewd:figtype="commref"><text style="&st18;" transform="matrix(&st16;  294.04  501.2 )">(LHD)</text></g><g ewd:code="" ewd:figID="49" ewd:comment="" ewd:figtype="commref"><text style="&st18;" transform="matrix(&st16;  294.04  466.08 )">(LHD)</text></g><g ewd:code="" ewd:figID="50" ewd:comment="" ewd:figtype="commref"><text style="&st18;" transform="matrix(&st16;  294.04  475.14 )">(RHD)</text></g></g><g ewd:figtype="conn" ewd:figID="8" ewd:code="L24"><path style="stroke-width: 0.85 ;&st7;   " d=" M   128.90,   494.70  C   128.90    493.92    128.26    493.29    127.48    493.29  " /><path style="stroke-width: 0.85 ;&st7;   " d=" M   127.48,   493.29  C   126.70    493.29    126.06    493.92    126.06    494.70  " /><path style="stroke-width: 0.85 ;&st7;   " d=" M   126.06,   494.70  C   126.06    495.48    126.70    496.12    127.48    496.12  " /><path style="stroke-width: 0.85 ;&st7;   " d=" M   127.48,   496.12  C   128.26    496.12    128.90    495.48    128.90    494.70  " /><path style="stroke-width: 0.85 ;&st7;   " d=" M   111.90,   494.70  C   111.90    493.92    111.26    493.29    110.48    493.29  " /><path style="stroke-width: 0.85 ;&st7;   " d=" M   110.48,   493.29  C   109.70    493.29    109.07    493.92    109.07    494.70  " /><path style="stroke-width: 0.85 ;&st7;   " d=" M   109.07,   494.70  C   109.07    495.48    109.70    496.12    110.48    496.12  " /><path style="stroke-width: 0.85 ;&st7;   " d=" M   110.48,   496.12  C   111.26    496.12    111.90    495.48    111.90    494.70  " /><path style="stroke-width: 0.85 ;&st7;   " d=" M   111.90,   477.71  C   111.90    476.92    111.26    476.29    110.48    476.29  " /><path style="stroke-width: 0.85 ;&st7;   " d=" M   110.48,   476.29  C   109.70    476.29    109.07    476.92    109.07    477.71  " /><path style="stroke-width: 0.85 ;&st7;   " d=" M   109.07,   477.71  C   109.07    478.49    109.70    479.12    110.48    479.12  " /><path style="stroke-width: 0.85 ;&st7;   " d=" M   110.48,   479.12  C   111.26    479.12    111.90    478.49    111.90    477.71  " /><path style="stroke-width: 0.85 ;&st7;   " d=" M   145.89,   477.71  C   145.89    476.92    145.26    476.29    144.48    476.29  " /><path style="stroke-width: 0.85 ;&st7;   " d=" M   144.48,   476.29  C   143.69    476.29    143.06    476.92    143.06    477.71  " /><path style="stroke-width: 0.85 ;&st7;   " d=" M   143.06,   477.71  C   143.06    478.49    143.69    479.12    144.48    479.12  " /><path style="stroke-width: 0.85 ;&st7;   " d=" M   144.48,   479.12  C   145.26    479.12    145.89    478.49    145.89    477.71  " /><path style="stroke-width: 0.85 ;&st7;  " d=" M   127.48,   418.22  L   127.48,   435.21  " /><path style="stroke-width: 0.85 ;&st7;  " d=" M   144.48,   503.20  L   144.48,   520.20  " /><path style="stroke-width: 0.85 ;&st7;  " d=" M   111.90,   494.70  L   126.06,   494.70  " /><path style="stroke-width: 1.42 ;&st7;  " d=" M    42.49,   435.21  L    42.49,   503.20  L   152.97,   503.20  L   152.97,   435.21  L    42.49,   435.21  " /><path style="stroke-width: 0.85 ;&st7;  " d=" M    67.99,   452.21  L   152.97,   452.21  " /><path style="stroke-width: 0.85 ;&st7;  " d=" M    67.99,   469.21  L   152.97,   469.21  " /><path style="stroke-width: 0.85 ;&st7;  " d=" M    67.99,   486.20  L   152.97,   486.20  " /><path style="stroke-width: 0.85 ;&st7;  " d=" M   118.98,   435.21  L   118.98,   503.20  " /><path style="stroke-width: 0.85 ;&st7;  " d=" M   101.98,   435.21  L   101.98,   503.20  " /><path style="stroke-width: 0.85 ;&st7;  " d=" M    67.99,   435.21  L    67.99,   503.20  " /><path style="stroke-width: 1.42 ;&st7;  " d=" M    25.50,   418.22  L    25.50,   520.20  L   169.97,   520.20  L   169.97,   418.22  L    25.50,   418.22  " /><path style="stroke-width: 0.85 ;&st7;  " d=" M   111.90,   477.71  L   143.06,   477.71  " /><text style="&st18;" transform="matrix(&st17;  52.96  488.19 )" ewd:textID="14">Light <tspan x="0 " dy="6.0">Control Switch</tspan></text><text style="&st18;" transform="matrix(&st16;  130.06  426.41 )">H</text><text style="&st18;" transform="matrix(&st16;  78.77  462.68 )">OFF</text><text style="&st18;" transform="matrix(&st16;  79.89  479.67 )" ewd:textID="21">Tail</text><text style="&st18;" transform="matrix(&st16;  77.6  496.67 )" ewd:textID="8">Head</text><text style="&st18;" transform="matrix(&st16;  108.41  445.68 )">T</text><text style="&st18;" transform="matrix(&st16;  125.06  445.68 )">H</text><text style="&st18;" transform="matrix(&st16;  147.06  516.51 )">EL</text><text style="&st18;" transform="matrix(&st16;  140.58  445.68 )">EL</text><path style="stroke-width: 0.85 ;&st7;  " d=" M   135.98,   435.21  L   135.98,   503.20  " /><path style="stroke-width: 0.85 ;&st7;   " d=" M   145.89,   494.70  C   145.89    493.92    145.26    493.29    144.48    493.29  " /><path style="stroke-width: 0.85 ;&st7;   " d=" M   144.48,   493.29  C   143.69    493.29    143.06    493.92    143.06    494.70  " /><path style="stroke-width: 0.85 ;&st7;   " d=" M   143.06,   494.70  C   143.06    495.48    143.69    496.12    144.48    496.12  " /><path style="stroke-width: 0.85 ;&st7;   " d=" M   144.48,   496.12  C   145.26    496.12    145.89    495.48    145.89    494.70  " /><path style="stroke-width: 0.85 ;&st7;  " d=" M   128.90,   494.70  L   143.06,   494.70  " /><text style="&st18;" transform="matrix(&st16;  114.66  406.59 )">20</text><text style="&st18;" transform="matrix(&st16;  114.66  415.65 )">11</text><text style="&st18;" transform="matrix(&st16;  125.06  415.65 )">D</text><path style="stroke-width: 1.42 ;&st7;   " d=" M   132.01,   404.62  C   132.01    402.11    129.98    400.09    127.48    400.09  " /><path style="stroke-width: 1.42 ;&st7;   " d=" M   127.48,   400.09  C   124.98    400.09    122.95    402.11    122.95    404.62  " /><path style="stroke-width: 1.42 ;&st7;   " d=" M   122.95,   404.62  C   122.95    407.12    124.98    409.15    127.48    409.15  " /><path style="stroke-width: 1.42 ;&st7;   " d=" M   127.48,   409.15  C   129.98    409.15    132.01    407.12    132.01    404.62  " /><path style="stroke-width: 1.42 ;&st7;   " d=" M   132.01,   413.68  C   132.01    411.18    129.98    409.15    127.48    409.15  " /><path style="stroke-width: 1.42 ;&st7;   " d=" M   127.48,   409.15  C   124.98    409.15    122.95    411.18    122.95    413.68  " /><path style="stroke-width: 1.42 ;&st7;   " d=" M   122.95,   413.68  C   122.95    416.19    124.98    418.22    127.48    418.22  " /><path style="stroke-width: 1.42 ;&st7;   " d=" M   127.48,   418.22  C   129.98    418.22    132.01    416.19    132.01    413.68  " /><text style="&st18;" transform="matrix(&st16;  125.06  406.59 )">C</text><text style="&st18;" transform="matrix(&st16;  131.66  535.77 )">19</text><text style="&st18;" transform="matrix(&st16;  131.66  526.7 )">12</text><path style="stroke-width: 1.42 ;&st7;   " d=" M   149.01,   524.73  C   149.01    522.23    146.98    520.20    144.48    520.20  " /><path style="stroke-width: 1.42 ;&st7;   " d=" M   144.48,   520.20  C   141.97    520.20    139.94    522.23    139.94    524.73  " /><path style="stroke-width: 1.42 ;&st7;   " d=" M   139.94,   524.73  C   139.94    527.23    141.97    529.26    144.48    529.26  " /><path style="stroke-width: 1.42 ;&st7;   " d=" M   144.48,   529.26  C   146.98    529.26    149.01    527.23    149.01    524.73  " /><text style="&st18;" transform="matrix(&st16;  142.06  535.77 )">D</text><path style="stroke-width: 1.42 ;&st7;   " d=" M   149.01,   533.80  C   149.01    531.29    146.98    529.26    144.48    529.26  " /><path style="stroke-width: 1.42 ;&st7;   " d=" M   144.48,   529.26  C   141.97    529.26    139.94    531.29    139.94    533.80  " /><path style="stroke-width: 1.42 ;&st7;   " d=" M   139.94,   533.80  C   139.94    536.30    141.97    538.33    144.48    538.33  " /><path style="stroke-width: 1.42 ;&st7;   " d=" M   144.48,   538.33  C   146.98    538.33    149.01    536.30    149.01    533.80  " /><text style="&st18;" transform="matrix(&st16;  142.06  526.7 )">C</text><g ewd:figtype="title"><text style="&st18;" transform="matrix(&st16;  22.09  408.57 )" ewd:textID="12">Headlight Dimmer <tspan x="0 " dy="6.0">Switch Assembly</tspan></text><text style="&st18;" transform="matrix(&st16;  22.08  401.75 )">L24(C),(D)</text></g><g ewd:code="" ewd:figID="43" ewd:comment="" ewd:figtype="commref"><text style="&st18;" transform="matrix(&st16;  149.57  535.77 )">(RHD)</text></g><g ewd:code="" ewd:figID="44" ewd:comment="" ewd:figtype="commref"><text style="&st18;" transform="matrix(&st16;  149.57  526.7 )">(LHD)</text></g><g ewd:code="" ewd:figID="45" ewd:comment="" ewd:figtype="commref"><text style="&st18;" transform="matrix(&st16;  132.57  415.65 )">(RHD)</text></g><g ewd:code="" ewd:figID="46" ewd:comment="" ewd:figtype="commref"><text style="&st18;" transform="matrix(&st16;  132.57  406.59 )">(LHD)</text></g></g><g ewd:figtype="w2w" ewd:figID="17" ewd:code="IL5"><path style="stroke-width: 1.42 ;&st7;  " d=" M   293.20,   398.39  L   288.95,   394.14  L   284.70,   398.39  " /><path style="stroke-width: 1.42 ;&st7;  " d=" M   293.20,   401.78  L   288.95,   397.54  L   284.70,   401.78  " /><text style="&st18;" transform="matrix(&st16;  272.2  390.44 )">59</text><g ewd:code="" ewd:figID="51" ewd:comment="" ewd:figtype="commref"><text style="&st18;" transform="matrix(&st16;  297.98  390.44 )">(RHD)</text></g></g><g ewd:figtype="w2w" ewd:figID="18" ewd:code="IL1"><text style="&st18;" transform="matrix(&st16;  272.2  381.94 )">49</text><g ewd:code="" ewd:figID="52" ewd:comment="" ewd:figtype="commref"><text style="&st18;" transform="matrix(&st16;  297.98  381.94 )">(LHD)</text></g></g><g ewd:figtype="w2w" ewd:figID="19" ewd:code="AI4"><path style="stroke-width: 1.42 ;&st7;  " d=" M   318.70,   146.83  L   314.45,   142.58  L   310.20,   146.83  " /><path style="stroke-width: 1.42 ;&st7;  " d=" M   318.70,   143.43  L   314.45,   139.18  L   310.20,   143.43  " /><text style="&st18;" transform="matrix(&st16;  301.03  135.48 )">4</text></g><g ewd:figtype="gp" ewd:figID="31" ewd:code="LB"><path style="stroke-width: 0.85 ;&st7;  " d=" M    92.07,   710.00  L    94.90,   710.00  " /><path style="stroke-width: 0.85 ;&st7;  " d=" M    90.65,   707.17  L    96.32,   707.17  " /><path style="stroke-width: 0.85 ;&st7;  " d=" M    89.24,   704.33  L    97.73,   704.33  " /><path style="stroke-width: 0.85 ;&st7;  " d=" M    84.99,   701.50  L   101.98,   701.50  " /><path style="stroke-width: 0.85 ;&st7;  " d=" M    93.48,   697.25  L    93.48,   701.50  " /></g><g ewd:figtype="gp" ewd:figID="32" ewd:code="LA"><path style="stroke-width: 0.85 ;&st7;  " d=" M   143.06,   710.00  L   145.89,   710.00  " /><path style="stroke-width: 0.85 ;&st7;  " d=" M   141.64,   707.17  L   147.31,   707.17  " /><path style="stroke-width: 0.85 ;&st7;  " d=" M   140.23,   704.33  L   148.73,   704.33  " /><path style="stroke-width: 0.85 ;&st7;  " d=" M   135.98,   701.50  L   152.97,   701.50  " /><path style="stroke-width: 0.85 ;&st7;  " d=" M   144.48,   697.25  L   144.48,   701.50  " /></g><g ewd:code="8" ewd:figID="68" ewd:comment="" ewd:figtype="comment"><text style="&st18;" transform="matrix(&st16;  30.59  122.73 )" ewd:textID="3">* 8 :Before Sep. 2022 Production</text></g><g ewd:code="3" ewd:figID="53" ewd:comment="" ewd:figtype="comment"><text style="&st18;" transform="matrix(&st16;  30.59  97.24 )">* 3 :1VD-FTV</text></g><g ewd:code="6" ewd:figID="61" ewd:comment="" ewd:figtype="comment"><text style="&st18;" transform="matrix(&st16;  30.59  105.74 )" ewd:textID="1">* 6 :Before Jul. 2021 Production</text></g><g ewd:code="2" ewd:figID="42" ewd:comment="" ewd:figtype="comment"><text style="&st18;" transform="matrix(&st16;  30.59  88.74 )">* 2 :1HZ</text></g><g ewd:code="1" ewd:figID="41" ewd:comment="" ewd:figtype="comment"><text style="&st18;" transform="matrix(&st16;  30.59  80.24 )">* 1 :1GR-FE</text></g><g ewd:code="9" ewd:figID="67" ewd:comment="" ewd:figtype="comment"><text style="&st18;" transform="matrix(&st16;  30.59  131.23 )" ewd:textID="4">* 9 :From Sep. 2022 Production</text></g><g ewd:code="10" ewd:figID="66" ewd:comment="" ewd:figtype="comment"><text style="&st18;" transform="matrix(&st16;  30.59  139.73 )" ewd:textID="5">*10 :From Jul. 2021 Production until Sep. 2022 Production</text></g><g ewd:code="7" ewd:figID="60" ewd:comment="" ewd:figtype="comment"><text style="&st18;" transform="matrix(&st16;  30.59  114.24 )" ewd:textID="2">* 7 :From Jul. 2021 Production</text></g></svg>