<?xml version="1.0" encoding="utf-8"?>
<!DOCTYPE svg PUBLIC "-//W3C//DTD SVG 1.0//EN" "http://www.w3.org/TR/2001/REC-SVG-20010904/DTD/svg10.dtd"[
	<!ENTITY ns_flows "http://ns.adobe.com/Flows/1.0/">
	<!ENTITY ns_svg "http://www.w3.org/2000/svg">
	<!ENTITY ns_xlink "http://www.w3.org/1999/xlink">
	<!ENTITY st0 "font-size:7px;font-family:'MS-PGothic';adobe-font-script:japanese;">
	<!ENTITY st1 "font-size:6px;font-family:'ArialMT';">
	<!-- White fill  -->
	<!ENTITY st2 "fill:#FFFFFF;stroke:#000000; stroke-width:1.41;stroke-linecap:round;stroke-linejoin:round;">
	<!-- Yellow fill  -->
	<!ENTITY st3 "fill:#FFFFCC;stroke:#FFFFCC; stroke-width:0.1;stroke-linecap:round;stroke-linejoin:round;">
	<!-- Gray fill  -->
	<!ENTITY st4 "fill:#CCCCCC;stroke:#CCCCCC; stroke-width:0.1;stroke-linecap:round;stroke-linejoin:round;">
	<!-- Light-blue fill -->
	<!ENTITY st5 "fill:#CCECF4;stroke:#000000; stroke-width:1.133;stroke-linecap:round;stroke-linejoin:round;">
	<!ENTITY st6 "fill:none;stroke-linecap:butt; stroke-linejoin:round;">
	<!ENTITY st7 "fill:none;stroke:#000000;stroke-linecap:round;stroke-linejoin:round;">
	<!ENTITY st8 "enable-background:new    ;">
	<!-- Black fill -->
	<!ENTITY st9 "fill:#000000;stroke:#000000; stroke-linecap:round;stroke-linejoin:round;">
	<!-- SRS note   -->
	<!ENTITY st10 "font-size:9px;font-family:'ArialMT';">
	<!ENTITY st11 "font-size:9px;font-family:'Svg Symbol';">
	<!ENTITY st12 "font-size:6px;font-family:'Svg Symbol';">
	<!ENTITY st13 "fill:none;stroke:#ff0000;stroke-linecap:round;stroke-linejoin:round;">
	<!-- Yellow fill  -->
	<!ENTITY st14 "fill:#FFFF00;stroke:#FFFF00; stroke-width:0.1;stroke-linecap:round;stroke-linejoin:round;">
	<!ENTITY st15 "font-size:6px;font-family:'MS-PGothic';adobe-font-script:japanese;">
	<!ENTITY st16 "1.00 0.00 0.00 1.00">
	<!ENTITY st17 "0.00 -1.00 1.00 0.00">
	<!ENTITY st18 "font-size:6px;font-family:'Arial';">
	<!ENTITY st19 "font-size:9px;font-family:'Arial';">
	<!ENTITY st20 "font-size:6px;font-family:'MS-PGothic','MS PGothic';adobe-font-script:japanese;">
	<!ENTITY st21 "font-size:7px;font-family:'MS-PGothic','MS PGothic';adobe-font-script:japanese;">
	<!ATTLIST svg
		xmlns:ewd CDATA #FIXED "http://shcl.co.jp/ewd"
		xmlns:a CDATA #FIXED "http://ns.adobe.com/AdobeSVGViewerExtensions/3.0/"
		ewd:ver CDATA #IMPLIED
	>
	<!ATTLIST a
		ewd:lineID CDATA #IMPLIED
		ewd:groupID CDATA #IMPLIED
		ewd:figtype CDATA #IMPLIED
		ewd:code CDATA #IMPLIED
		ewd:figID CDATA #IMPLIED
		ewd:pinNo CDATA #IMPLIED
		ewd:comment CDATA #IMPLIED >
	<!ATTLIST g
		ewd:lineID CDATA #IMPLIED
		ewd:groupID CDATA #IMPLIED
		ewd:figtype CDATA #IMPLIED
		ewd:code CDATA #IMPLIED
		ewd:figID CDATA #IMPLIED
		ewd:pinNo CDATA #IMPLIED
		ewd:comment CDATA #IMPLIED >
	<!ATTLIST text
		ewd:textID CDATA #IMPLIED >
	<!ATTLIST title
		ewd:textID CDATA #IMPLIED >
]>
<!-- Generator: Shintec Hozumi YS   -->
<svg onload="call_execInitLoadProc_svg('system')" style="overflow:visible;  enable-background:new 0 0 1879.455 710.000" viewBox="0 0 1879.455 710.000" height="710.000" width="1879.455" xml:space="preserve" ewd:ver="2.3.1.16" xmlns="&ns_svg;" xmlns:a="http://ns.adobe.com/AdobeSVGViewerExtensions/3.0/" xmlns:ewd="http://shcl.co.jp/ewd" xmlns:xlink="&ns_xlink;">
<path style="stroke-width: 1.42 ;&st7;  " d=" M   861.88,   469.21  L   866.86,   464.24  " /><path style="stroke-width: 1.42 ;&st7;  " d=" M   849.86,   464.24  L   854.83,   469.21  " /><path style="stroke-width: 1.42 ;&st7;  " d=" M   866.86,   457.18  L   861.88,   452.21  " /><text style="&st18;" transform="matrix(&st17;  854.66  186.43 )">R</text><text style="&st18;" transform="matrix(&st17;  905.65  513.62 )">R</text><text style="&st18;" transform="matrix(&st17;  880.16  516.26 )">L-R</text><text style="&st18;" transform="matrix(&st17;  812.17  516.26 )">L-R</text><text style="&st18;" transform="matrix(&st17;  786.67  516.26 )">L-R</text><text style="&st18;" transform="matrix(&st17;  752.68  516.1 )">B-L</text><text style="&st18;" transform="matrix(&st17;  812.17  649.06 )">L</text><text style="&st18;" transform="matrix(&st17;  727.18  517.58 )">W-R</text><text style="&st18;" transform="matrix(&st17;  854.66  513.62 )">R</text><text style="&st18;" transform="matrix(&st17;  854.66  250.17 )">R</text><path style="stroke-width: 1.42 ;&st7;  " d=" M   866.86,   214.25  L   858.36,   214.25  " /><path style="stroke-width: 1.42 ;&st7;  " d=" M   854.83,   452.21  L   849.86,   457.18  " /><path style="stroke-width: 1.42 ;&st7;  " d=" M   824.36,   482.68  L   819.39,   477.71  " /><path style="stroke-width: 1.42 ;&st7;  " d=" M   807.37,   489.73  L   812.33,   494.70  " /><path style="stroke-width: 1.42 ;&st7;  " d=" M   819.39,   494.70  L   824.36,   489.73  " /><path style="stroke-width: 1.42 ;&st7;  " d=" M   812.33,   477.71  L   807.37,   482.68  " /><text style="&st18;" transform="matrix(&st16;  546.57  57.58 )">L-W</text><text style="&st18;" transform="matrix(&st16;  546.57  270.04 )">L-W</text><text style="&st18;" transform="matrix(&st16;  546.57  244.55 )">L-W</text><text style="&st18;" transform="matrix(&st16;  547.0  202.05 )">R-B</text><text style="&st18;" transform="matrix(&st16;  546.57  185.06 )">L-W</text><text style="&st18;" transform="matrix(&st16;  547.08  168.06 )">R-Y</text><text style="&st18;" transform="matrix(&st16;  527.65  281.37 )">(*13 RHD,*14 *12)</text><text style="&st18;" transform="matrix(&st16;  528.16  255.88 )">(*13 LHD,*14 *11)</text><text style="&st18;" transform="matrix(&st16;  545.68  68.91 )">(*19)</text><text style="&st18;" transform="matrix(&st16;  550.14  32.08 )">P</text><text style="&st18;" transform="matrix(&st16;  545.68  43.41 )">(*20)</text><text style="&st18;" transform="matrix(&st16;  550.53  295.54 )">L</text><text style="&st18;" transform="matrix(&st16;  542.0  306.87 )">(*9 *22)</text><text style="&st18;" transform="matrix(&st16;  550.14  219.05 )">B</text><text style="&st18;" transform="matrix(&st16;  542.0  230.38 )">(*9 *22)</text><text style="&st18;" transform="matrix(&st17;  956.64  619.56 )">R-W</text><text style="&st18;" transform="matrix(&st17;  967.98  619.91 )">(*21)</text><text style="&st18;" transform="matrix(&st17;  982.14  615.45 )">B</text><text style="&st18;" transform="matrix(&st17;  993.47  619.91 )">(*22)</text><g ewd:figtype="rb" ewd:figID="1" ewd:code="FUSE13"><text style="&st18;" transform="matrix(&st16;  644.01  432.93 )">2</text><text style="&st18;" transform="matrix(&st16;  644.01  322.45 )">2</text><text style="&st18;" transform="matrix(&st17;  667.7  394.06 )">10A H/LP LO RH</text><text style="&st18;" transform="matrix(&st16;  639.55  400.91 )">1</text><text style="&st18;" transform="matrix(&st16;  639.55  346.54 )">2</text><text style="&st18;" transform="matrix(&st16;  593.02  322.45 )">2</text><text style="&st18;" transform="matrix(&st17;  616.7  393.56 )">10A H/LP LO LH</text><text style="&st18;" transform="matrix(&st16;  588.56  400.91 )">1</text><text style="&st18;" transform="matrix(&st16;  588.56  346.54 )">2</text><path style="stroke-width: 0.85 ;&st7;  " d=" M   645.89,   426.71  L   645.89,   392.72  " /><path style="stroke-width: 0.28 ;&st9;  " d=" M   645.89,   421.82  L   643.06,   418.99  L   643.06,   423.24  L   645.89,   426.07  L   648.72,   423.24  L   648.72,   418.99  L   645.89,   421.82  " /><path style="stroke-width: 0.28 ;&st9;  " d=" M   645.89,   329.63  L   648.72,   332.46  L   648.72,   328.21  L   645.89,   325.38  L   643.06,   328.21  L   643.06,   332.46  L   645.89,   329.63  " /><path style="stroke-width: 0.85 ;&st7;  " d=" M   645.89,   350.23  L   645.89,   324.73  " /><path style="stroke-width: 0.85 ;&st7;  " d=" M   644.70,   408.71  L   644.43,   409.18  L   644.33,   409.72  L   644.43,   410.25  L   644.70,   410.72  L   645.11,   411.07  L   645.62,   411.25  L   646.16,   411.25  L   646.67,   411.07  L   647.08,   410.72  L   647.36,   410.25  L   647.45,   409.72  L   647.36,   409.18  L   647.08,   408.71  L   646.67,   408.37  L   646.16,   408.18  L   645.62,   408.18  L   645.11,   408.37  L   644.70,   408.71  L   645.09,   409.43  L   645.09,   410.01  L   645.47,   410.45  L   646.04,   410.55  L   646.54,   410.26  L   646.74,   409.72  L   646.54,   409.17  L   646.04,   408.88  L   645.47,   408.98  L   645.89,   409.72  " /><path style="stroke-width: 0.85 ;&st7;  " d=" M   594.90,   392.72  L   594.90,   409.72  L   645.89,   409.72  " /><path style="stroke-width: 0.28 ;&st9;  " d=" M   594.90,   329.63  L   597.73,   332.46  L   597.73,   328.21  L   594.90,   325.38  L   592.07,   328.21  L   592.07,   332.46  L   594.90,   329.63  " /><path style="stroke-width: 0.85 ;&st7;  " d=" M   594.90,   350.23  L   594.90,   324.73  " /><path style="stroke-width: 1.42 ;&st7;   " d=" M   648.02,   435.21  C   650.36    435.21    652.27    433.31    652.27    430.96  " /><path style="stroke-width: 1.42 ;&st7;   " d=" M   652.27,   430.96  C   652.27    428.62    650.36    426.71    648.02    426.71  " /><path style="stroke-width: 1.42 ;&st7;   " d=" M   643.77,   426.71  C   641.42    426.71    639.52    428.62    639.52    430.96  " /><path style="stroke-width: 1.42 ;&st7;   " d=" M   639.52,   430.96  C   639.52    433.31    641.42    435.21    643.77    435.21  " /><path style="stroke-width: 1.42 ;&st7;   " d=" M   652.27,   320.48  C   652.27    318.13    650.36    316.23    648.02    316.23  " /><path style="stroke-width: 1.42 ;&st7;   " d=" M   648.02,   324.73  C   650.36    324.73    652.27    322.83    652.27    320.48  " /><path style="stroke-width: 1.42 ;&st7;   " d=" M   639.52,   320.48  C   639.52    322.83    641.42    324.73    643.77    324.73  " /><path style="stroke-width: 1.42 ;&st7;   " d=" M   643.77,   316.23  C   641.42    316.23    639.52    318.13    639.52    320.48  " /><path style="stroke-width: 1.42 ;&st7;   " d=" M   601.27,   320.48  C   601.27    318.13    599.37    316.23    597.03    316.23  " /><path style="stroke-width: 1.42 ;&st7;   " d=" M   597.03,   324.73  C   599.37    324.73    601.27    322.83    601.27    320.48  " /><path style="stroke-width: 1.42 ;&st7;   " d=" M   588.53,   320.48  C   588.53    322.83    590.43    324.73    592.78    324.73  " /><path style="stroke-width: 1.42 ;&st7;   " d=" M   592.78,   316.23  C   590.43    316.23    588.53    318.13    588.53    320.48  " /><path style="stroke-width: 1.42 ;&st7;  " d=" M   648.02,   426.71  L   643.77,   426.71  " /><path style="stroke-width: 1.42 ;&st7;  " d=" M   648.02,   435.21  L   643.77,   435.21  " /><path style="stroke-width: 1.42 ;&st7;  " d=" M   648.02,   324.73  L   643.77,   324.73  " /><path style="stroke-width: 1.42 ;&st7;  " d=" M   648.02,   316.23  L   643.77,   316.23  " /><path style="stroke-width: 1.42 ;&st7;  " d=" M   597.03,   324.73  L   592.78,   324.73  " /><path style="stroke-width: 1.42 ;&st7;  " d=" M   597.03,   316.23  L   592.78,   316.23  " /><path style="stroke-width: 0.85 ;&st7;  " d=" M   645.89,   350.23  L   645.89,   358.73  " /><path style="stroke-width: 1.42 ;&st7;  " d=" M   633.14,   350.23  L   633.14,   392.72  L   658.64,   392.72  L   658.64,   350.23  L   633.14,   350.23  " /><path style="stroke-width: 1.42 ;&st7;   " d=" M   645.89,   361.56  C   643.15    363.17    642.24    366.70    643.86    369.44  " /><path style="stroke-width: 1.42 ;&st7;   " d=" M   643.86,   369.44  C   644.37    370.32    645.01    370.95    645.89    371.47  " /><path style="stroke-width: 1.42 ;&st7;   " d=" M   645.89,   381.39  C   648.63    379.78    649.54    376.25    647.93    373.51  " /><path style="stroke-width: 1.42 ;&st7;   " d=" M   647.93,   373.51  C   647.41    372.63    646.77    371.99    645.89    371.47  " /><path style="stroke-width: 0.85 ;&st7;   " d=" M   647.31,   360.14  C   647.31    359.36    646.67    358.73    645.89    358.73  " /><path style="stroke-width: 0.85 ;&st7;   " d=" M   645.89,   358.73  C   645.11    358.73    644.48    359.36    644.48    360.14  " /><path style="stroke-width: 0.85 ;&st7;   " d=" M   644.48,   360.14  C   644.48    360.92    645.11    361.56    645.89    361.56  " /><path style="stroke-width: 0.85 ;&st7;   " d=" M   645.89,   361.56  C   646.67    361.56    647.31    360.92    647.31    360.14  " /><path style="stroke-width: 0.85 ;&st7;   " d=" M   647.31,   382.80  C   647.31    382.02    646.67    381.39    645.89    381.39  " /><path style="stroke-width: 0.85 ;&st7;   " d=" M   645.89,   381.39  C   645.11    381.39    644.48    382.02    644.48    382.80  " /><path style="stroke-width: 0.85 ;&st7;   " d=" M   644.48,   382.80  C   644.48    383.59    645.11    384.22    645.89    384.22  " /><path style="stroke-width: 0.85 ;&st7;   " d=" M   645.89,   384.22  C   646.67    384.22    647.31    383.59    647.31    382.80  " /><path style="stroke-width: 0.85 ;&st7;  " d=" M   645.89,   384.22  L   645.89,   392.72  " /></g><g ewd:figtype="rb" ewd:figID="2" ewd:code="FUSE10"><path style="stroke-width: 1.42 ;&st7;   " d=" M   758.50,   435.21  C   760.85    435.21    762.75    433.31    762.75    430.96  " /><text style="&st18;" transform="matrix(&st16;  754.5  432.93 )">2</text><text style="&st18;" transform="matrix(&st16;  754.5  322.45 )">2</text><text style="&st18;" transform="matrix(&st17;  778.18  393.09 )">10A H/LP HI RH</text><text style="&st18;" transform="matrix(&st16;  750.03  400.91 )">1</text><text style="&st18;" transform="matrix(&st16;  750.03  346.54 )">2</text><text style="&st18;" transform="matrix(&st16;  703.5  322.45 )">2</text><text style="&st18;" transform="matrix(&st17;  727.19  392.55 )">10A H/LP HI LH</text><text style="&st18;" transform="matrix(&st16;  699.04  400.91 )">1</text><text style="&st18;" transform="matrix(&st16;  699.04  346.54 )">2</text><path style="stroke-width: 1.42 ;&st7;  " d=" M   758.50,   426.71  L   754.25,   426.71  " /><path style="stroke-width: 0.85 ;&st7;  " d=" M   756.37,   426.71  L   756.37,   392.72  " /><path style="stroke-width: 0.28 ;&st9;  " d=" M   756.37,   421.82  L   753.54,   418.99  L   753.54,   423.24  L   756.37,   426.07  L   759.21,   423.24  L   759.21,   418.99  L   756.37,   421.82  " /><path style="stroke-width: 0.28 ;&st9;  " d=" M   756.37,   329.63  L   759.21,   332.46  L   759.21,   328.21  L   756.37,   325.38  L   753.54,   328.21  L   753.54,   332.46  L   756.37,   329.63  " /><path style="stroke-width: 0.85 ;&st7;  " d=" M   756.37,   350.23  L   756.37,   324.73  " /><path style="stroke-width: 0.85 ;&st7;  " d=" M   755.18,   408.71  L   754.91,   409.18  L   754.82,   409.72  L   754.91,   410.25  L   755.18,   410.72  L   755.59,   411.07  L   756.10,   411.25  L   756.65,   411.25  L   757.15,   411.07  L   757.57,   410.72  L   757.84,   410.25  L   757.93,   409.72  L   757.84,   409.18  L   757.57,   408.71  L   757.15,   408.37  L   756.65,   408.18  L   756.10,   408.18  L   755.59,   408.37  L   755.18,   408.71  L   755.57,   409.43  L   755.57,   410.01  L   755.95,   410.45  L   756.52,   410.55  L   757.02,   410.26  L   757.22,   409.72  L   757.02,   409.17  L   756.52,   408.88  L   755.95,   408.98  L   756.37,   409.72  " /><path style="stroke-width: 0.85 ;&st7;  " d=" M   705.38,   392.72  L   705.38,   409.72  L   756.37,   409.72  " /><path style="stroke-width: 0.28 ;&st9;  " d=" M   705.38,   329.63  L   708.21,   332.46  L   708.21,   328.21  L   705.38,   325.38  L   702.55,   328.21  L   702.55,   332.46  L   705.38,   329.63  " /><path style="stroke-width: 0.85 ;&st7;  " d=" M   705.38,   350.23  L   705.38,   324.73  " /><path style="stroke-width: 1.42 ;&st7;   " d=" M   762.75,   430.96  C   762.75    428.62    760.85    426.71    758.50    426.71  " /><path style="stroke-width: 1.42 ;&st7;   " d=" M   754.25,   426.71  C   751.90    426.71    750.00    428.62    750.00    430.96  " /><path style="stroke-width: 1.42 ;&st7;   " d=" M   750.00,   430.96  C   750.00    433.31    751.90    435.21    754.25    435.21  " /><path style="stroke-width: 1.42 ;&st7;   " d=" M   762.75,   320.48  C   762.75    318.13    760.85    316.23    758.50    316.23  " /><path style="stroke-width: 1.42 ;&st7;   " d=" M   758.50,   324.73  C   760.85    324.73    762.75    322.83    762.75    320.48  " /><path style="stroke-width: 1.42 ;&st7;   " d=" M   750.00,   320.48  C   750.00    322.83    751.90    324.73    754.25    324.73  " /><path style="stroke-width: 1.42 ;&st7;   " d=" M   754.25,   316.23  C   751.90    316.23    750.00    318.13    750.00    320.48  " /><path style="stroke-width: 1.42 ;&st7;   " d=" M   711.76,   320.48  C   711.76    318.13    709.85    316.23    707.51    316.23  " /><path style="stroke-width: 1.42 ;&st7;   " d=" M   707.51,   324.73  C   709.85    324.73    711.76    322.83    711.76    320.48  " /><path style="stroke-width: 1.42 ;&st7;   " d=" M   699.01,   320.48  C   699.01    322.83    700.91    324.73    703.26    324.73  " /><path style="stroke-width: 1.42 ;&st7;   " d=" M   703.26,   316.23  C   700.91    316.23    699.01    318.13    699.01    320.48  " /><path style="stroke-width: 1.42 ;&st7;  " d=" M   758.50,   435.21  L   754.25,   435.21  " /><path style="stroke-width: 1.42 ;&st7;  " d=" M   758.50,   324.73  L   754.25,   324.73  " /><path style="stroke-width: 1.42 ;&st7;  " d=" M   758.50,   316.23  L   754.25,   316.23  " /><path style="stroke-width: 1.42 ;&st7;  " d=" M   707.51,   324.73  L   703.26,   324.73  " /><path style="stroke-width: 1.42 ;&st7;  " d=" M   707.51,   316.23  L   703.26,   316.23  " /><path style="stroke-width: 0.85 ;&st7;  " d=" M   705.38,   350.23  L   705.38,   358.73  " /><path style="stroke-width: 1.42 ;&st7;  " d=" M   692.63,   350.23  L   692.63,   392.72  L   718.13,   392.72  L   718.13,   350.23  L   692.63,   350.23  " /><path style="stroke-width: 1.42 ;&st7;   " d=" M   705.38,   361.56  C   702.64    363.17    701.73    366.70    703.35    369.44  " /><path style="stroke-width: 1.42 ;&st7;   " d=" M   703.35,   369.44  C   703.86    370.32    704.50    370.95    705.38    371.47  " /><path style="stroke-width: 1.42 ;&st7;   " d=" M   705.38,   381.39  C   708.12    379.78    709.03    376.25    707.42    373.51  " /><path style="stroke-width: 1.42 ;&st7;   " d=" M   707.42,   373.51  C   706.90    372.63    706.26    371.99    705.38    371.47  " /><path style="stroke-width: 0.85 ;&st7;   " d=" M   706.80,   360.14  C   706.80    359.36    706.16    358.73    705.38    358.73  " /><path style="stroke-width: 0.85 ;&st7;   " d=" M   705.38,   358.73  C   704.60    358.73    703.97    359.36    703.97    360.14  " /><path style="stroke-width: 0.85 ;&st7;   " d=" M   703.97,   360.14  C   703.97    360.92    704.60    361.56    705.38    361.56  " /><path style="stroke-width: 0.85 ;&st7;   " d=" M   705.38,   361.56  C   706.16    361.56    706.80    360.92    706.80    360.14  " /><path style="stroke-width: 0.85 ;&st7;   " d=" M   706.80,   382.80  C   706.80    382.02    706.16    381.39    705.38    381.39  " /><path style="stroke-width: 0.85 ;&st7;   " d=" M   705.38,   381.39  C   704.60    381.39    703.97    382.02    703.97    382.80  " /><path style="stroke-width: 0.85 ;&st7;   " d=" M   703.97,   382.80  C   703.97    383.59    704.60    384.22    705.38    384.22  " /><path style="stroke-width: 0.85 ;&st7;   " d=" M   705.38,   384.22  C   706.16    384.22    706.80    383.59    706.80    382.80  " /><path style="stroke-width: 0.85 ;&st7;  " d=" M   705.38,   384.22  L   705.38,   392.72  " /></g><g ewd:figtype="rb" ewd:figID="3" ewd:code="FUSE11"><path style="stroke-width: 0.85 ;&st7;  " d=" M   756.37,   350.23  L   756.37,   358.73  " /><path style="stroke-width: 1.42 ;&st7;  " d=" M   743.63,   350.23  L   743.63,   392.72  L   769.12,   392.72  L   769.12,   350.23  L   743.63,   350.23  " /><path style="stroke-width: 1.42 ;&st7;   " d=" M   756.37,   361.56  C   753.64    363.17    752.72    366.70    754.34    369.44  " /><path style="stroke-width: 1.42 ;&st7;   " d=" M   754.34,   369.44  C   754.86    370.32    755.49    370.95    756.37    371.47  " /><path style="stroke-width: 1.42 ;&st7;   " d=" M   756.37,   381.39  C   759.11    379.78    760.02    376.25    758.41    373.51  " /><path style="stroke-width: 1.42 ;&st7;   " d=" M   758.41,   373.51  C   757.89    372.63    757.26    371.99    756.37    371.47  " /><path style="stroke-width: 0.85 ;&st7;   " d=" M   757.79,   360.14  C   757.79    359.36    757.16    358.73    756.37    358.73  " /><path style="stroke-width: 0.85 ;&st7;   " d=" M   756.37,   358.73  C   755.59    358.73    754.96    359.36    754.96    360.14  " /><path style="stroke-width: 0.85 ;&st7;   " d=" M   754.96,   360.14  C   754.96    360.92    755.59    361.56    756.37    361.56  " /><path style="stroke-width: 0.85 ;&st7;   " d=" M   756.37,   361.56  C   757.16    361.56    757.79    360.92    757.79    360.14  " /><path style="stroke-width: 0.85 ;&st7;   " d=" M   757.79,   382.80  C   757.79    382.02    757.16    381.39    756.37    381.39  " /><path style="stroke-width: 0.85 ;&st7;   " d=" M   756.37,   381.39  C   755.59    381.39    754.96    382.02    754.96    382.80  " /><path style="stroke-width: 0.85 ;&st7;   " d=" M   754.96,   382.80  C   754.96    383.59    755.59    384.22    756.37    384.22  " /><path style="stroke-width: 0.85 ;&st7;   " d=" M   756.37,   384.22  C   757.16    384.22    757.79    383.59    757.79    382.80  " /><path style="stroke-width: 0.85 ;&st7;  " d=" M   756.37,   384.22  L   756.37,   392.72  " /></g><g ewd:figtype="rb" ewd:figID="6" ewd:code="FUSE59"><text style="&st18;" transform="matrix(&st16;  874.78  107.16 )">50A <tspan x="0 " dy="6.0">HEAD</tspan></text><text style="&st18;" transform="matrix(&st16;  856.48  160.98 )">4</text><text style="&st18;" transform="matrix(&st16;  852.02  137.46 )">2</text><text style="&st18;" transform="matrix(&st16;  850.27  83.07 )">(BAT)</text><path style="stroke-width: 0.28 ;&st9;  " d=" M   858.36,   149.86  L   855.52,   147.03  L   855.52,   151.28  L   858.36,   154.11  L   861.19,   151.28  L   861.19,   147.03  L   858.36,   149.86  " /><path style="stroke-width: 1.42 ;&st7;   " d=" M   856.23,   154.76  C   853.89    154.76    851.98    156.66    851.98    159.01  " /><path style="stroke-width: 1.42 ;&st7;   " d=" M   851.98,   159.01  C   851.98    161.36    853.89    163.26    856.23    163.26  " /><path style="stroke-width: 1.42 ;&st7;   " d=" M   860.48,   163.26  C   862.83    163.26    864.73    161.36    864.73    159.01  " /><path style="stroke-width: 1.42 ;&st7;   " d=" M   864.73,   159.01  C   864.73    156.66    862.83    154.76    860.48    154.76  " /><path style="stroke-width: 1.42 ;&st7;  " d=" M   860.48,   154.76  L   856.23,   154.76  " /><path style="stroke-width: 1.42 ;&st7;  " d=" M   860.48,   163.26  L   856.23,   163.26  " /><path style="stroke-width: 0.85 ;&st7;  " d=" M   858.36,   129.26  L   858.36,   154.76  " /><path style="stroke-width: 1.42 ;&st7;  " d=" M   845.61,    86.77  L   845.61,   129.26  L   871.10,   129.26  L   871.10,    86.77  L   845.61,    86.77  " /><path style="stroke-width: 1.42 ;&st7;   " d=" M   858.36,    98.10  C   855.62     99.72    854.71    103.24    856.32    105.98  " /><path style="stroke-width: 1.42 ;&st7;   " d=" M   856.32,   105.98  C   856.84    106.86    857.47    107.50    858.36    108.02  " /><path style="stroke-width: 1.42 ;&st7;   " d=" M   858.36,   117.93  C   861.09    116.32    862.01    112.79    860.39    110.05  " /><path style="stroke-width: 1.42 ;&st7;   " d=" M   860.39,   110.05  C   859.87    109.17    859.24    108.54    858.36    108.02  " /><path style="stroke-width: 0.85 ;&st7;   " d=" M   859.77,    96.69  C   859.77     95.90    859.14     95.27    858.36     95.27  " /><path style="stroke-width: 0.85 ;&st7;   " d=" M   858.36,    95.27  C   857.57     95.27    856.94     95.90    856.94     96.69  " /><path style="stroke-width: 0.85 ;&st7;   " d=" M   856.94,    96.69  C   856.94     97.47    857.57     98.10    858.36     98.10  " /><path style="stroke-width: 0.85 ;&st7;   " d=" M   858.36,    98.10  C   859.14     98.10    859.77     97.47    859.77     96.69  " /><path style="stroke-width: 0.85 ;&st7;   " d=" M   859.77,   119.35  C   859.77    118.57    859.14    117.93    858.36    117.93  " /><path style="stroke-width: 0.85 ;&st7;   " d=" M   858.36,   117.93  C   857.57    117.93    856.94    118.57    856.94    119.35  " /><path style="stroke-width: 0.85 ;&st7;   " d=" M   856.94,   119.35  C   856.94    120.13    857.57    120.77    858.36    120.77  " /><path style="stroke-width: 0.85 ;&st7;   " d=" M   858.36,   120.77  C   859.14    120.77    859.77    120.13    859.77    119.35  " /><path style="stroke-width: 0.85 ;&st7;  " d=" M   858.36,   120.77  L   858.36,   129.26  " /></g><g ewd:figtype="rb" ewd:figID="9" ewd:code="2"><text style="&st18;" transform="matrix(&st16;  784.03  604.88 )">5</text><text style="&st18;" transform="matrix(&st16;  809.52  604.88 )">2</text><text style="&st18;" transform="matrix(&st16;  775.53  576.0 )">4</text><text style="&st18;" transform="matrix(&st16;  784.03  559.0 )">3</text><text style="&st18;" transform="matrix(&st16;  809.52  559.0 )">1</text><text style="&st18;" transform="matrix(&st17;  832.0  587.04 )" ewd:textID="17">DIM <tspan x="0 " dy="6.0">Relay</tspan></text><text style="&st18;" transform="matrix(&st16;  813.99  534.92 )">2</text><text style="&st18;" transform="matrix(&st16;  788.49  534.92 )">2</text><text style="&st18;" transform="matrix(&st16;  754.5  534.92 )">2</text><text style="&st18;" transform="matrix(&st16;  788.49  628.4 )">2</text><text style="&st18;" transform="matrix(&st16;  813.99  628.4 )">2</text><path style="stroke-width: 0.28 ;&st9;  " d=" M   815.86,   542.09  L   818.70,   544.92  L   818.70,   540.67  L   815.86,   537.84  L   813.03,   540.67  L   813.03,   544.92  L   815.86,   542.09  " /><path style="stroke-width: 0.85 ;&st7;  " d=" M   815.86,   562.69  L   815.86,   537.20  " /><path style="stroke-width: 0.28 ;&st9;  " d=" M   790.37,   542.09  L   793.20,   544.92  L   793.20,   540.67  L   790.37,   537.84  L   787.53,   540.67  L   787.53,   544.92  L   790.37,   542.09  " /><path style="stroke-width: 0.85 ;&st7;  " d=" M   790.37,   562.69  L   790.37,   537.20  " /><path style="stroke-width: 0.28 ;&st9;  " d=" M   756.37,   542.09  L   759.21,   544.92  L   759.21,   540.67  L   756.37,   537.84  L   753.54,   540.67  L   753.54,   544.92  L   756.37,   542.09  " /><path style="stroke-width: 0.85 ;&st7;  " d=" M   756.37,   537.20  L   756.37,   579.69  L   781.87,   579.69  " /><path style="stroke-width: 0.85 ;&st7;  " d=" M   790.37,   622.18  L   790.37,   596.69  " /><path style="stroke-width: 0.28 ;&st9;  " d=" M   790.37,   617.29  L   787.53,   614.45  L   787.53,   618.70  L   790.37,   621.54  L   793.20,   618.70  L   793.20,   614.45  L   790.37,   617.29  " /><path style="stroke-width: 0.28 ;&st9;  " d=" M   815.86,   617.29  L   813.03,   614.45  L   813.03,   618.70  L   815.86,   621.54  L   818.70,   618.70  L   818.70,   614.45  L   815.86,   617.29  " /><path style="stroke-width: 0.85 ;&st7;  " d=" M   815.86,   622.18  L   815.86,   596.69  " /><path style="stroke-width: 1.42 ;&st7;   " d=" M   822.24,   532.95  C   822.24    530.60    820.34    528.70    817.99    528.70  " /><path style="stroke-width: 1.42 ;&st7;   " d=" M   817.99,   537.20  C   820.34    537.20    822.24    535.29    822.24    532.95  " /><path style="stroke-width: 1.42 ;&st7;   " d=" M   809.49,   532.95  C   809.49    535.29    811.39    537.20    813.74    537.20  " /><path style="stroke-width: 1.42 ;&st7;   " d=" M   813.74,   528.70  C   811.39    528.70    809.49    530.60    809.49    532.95  " /><path style="stroke-width: 1.42 ;&st7;   " d=" M   796.74,   532.95  C   796.74    530.60    794.84    528.70    792.49    528.70  " /><path style="stroke-width: 1.42 ;&st7;   " d=" M   792.49,   537.20  C   794.84    537.20    796.74    535.29    796.74    532.95  " /><path style="stroke-width: 1.42 ;&st7;   " d=" M   783.99,   532.95  C   783.99    535.29    785.90    537.20    788.24    537.20  " /><path style="stroke-width: 1.42 ;&st7;   " d=" M   788.24,   528.70  C   785.90    528.70    783.99    530.60    783.99    532.95  " /><path style="stroke-width: 1.42 ;&st7;   " d=" M   762.75,   532.95  C   762.75    530.60    760.85    528.70    758.50    528.70  " /><path style="stroke-width: 1.42 ;&st7;   " d=" M   758.50,   537.20  C   760.85    537.20    762.75    535.29    762.75    532.95  " /><path style="stroke-width: 1.42 ;&st7;   " d=" M   750.00,   532.95  C   750.00    535.29    751.90    537.20    754.25    537.20  " /><path style="stroke-width: 1.42 ;&st7;   " d=" M   754.25,   528.70  C   751.90    528.70    750.00    530.60    750.00    532.95  " /><path style="stroke-width: 1.42 ;&st7;   " d=" M   792.49,   630.68  C   794.84    630.68    796.74    628.78    796.74    626.43  " /><path style="stroke-width: 1.42 ;&st7;   " d=" M   796.74,   626.43  C   796.74    624.08    794.84    622.18    792.49    622.18  " /><path style="stroke-width: 1.42 ;&st7;   " d=" M   813.74,   622.18  C   811.39    622.18    809.49    624.08    809.49    626.43  " /><path style="stroke-width: 1.42 ;&st7;   " d=" M   809.49,   626.43  C   809.49    628.78    811.39    630.68    813.74    630.68  " /><path style="stroke-width: 1.42 ;&st7;   " d=" M   817.99,   630.68  C   820.34    630.68    822.24    628.78    822.24    626.43  " /><path style="stroke-width: 1.42 ;&st7;   " d=" M   822.24,   626.43  C   822.24    624.08    820.34    622.18    817.99    622.18  " /><path style="stroke-width: 1.42 ;&st7;   " d=" M   788.24,   622.18  C   785.90    622.18    783.99    624.08    783.99    626.43  " /><path style="stroke-width: 1.42 ;&st7;   " d=" M   783.99,   626.43  C   783.99    628.78    785.90    630.68    788.24    630.68  " /><path style="stroke-width: 1.42 ;&st7;  " d=" M   817.99,   537.20  L   813.74,   537.20  " /><path style="stroke-width: 1.42 ;&st7;  " d=" M   817.99,   528.70  L   813.74,   528.70  " /><path style="stroke-width: 1.42 ;&st7;  " d=" M   792.49,   537.20  L   788.24,   537.20  " /><path style="stroke-width: 1.42 ;&st7;  " d=" M   792.49,   528.70  L   788.24,   528.70  " /><path style="stroke-width: 1.42 ;&st7;  " d=" M   758.50,   537.20  L   754.25,   537.20  " /><path style="stroke-width: 1.42 ;&st7;  " d=" M   758.50,   528.70  L   754.25,   528.70  " /><path style="stroke-width: 1.42 ;&st7;  " d=" M   817.99,   622.18  L   813.74,   622.18  " /><path style="stroke-width: 1.42 ;&st7;  " d=" M   817.99,   630.68  L   813.74,   630.68  " /><path style="stroke-width: 1.42 ;&st7;  " d=" M   792.49,   622.18  L   788.24,   622.18  " /><path style="stroke-width: 1.42 ;&st7;  " d=" M   792.49,   630.68  L   788.24,   630.68  " /><path style="stroke-width: 1.42 ;&st7;  " d=" M   781.87,   562.69  L   824.36,   562.69  L   824.36,   596.69  L   781.87,   596.69  L   781.87,   562.69  " /><path style="stroke-width: 0.85 ;&st7;   " d=" M   787.54,   579.69  C   787.54    578.91    786.90    578.27    786.12    578.27  " /><path style="stroke-width: 0.85 ;&st7;   " d=" M   786.12,   578.27  C   785.34    578.27    784.70    578.91    784.70    579.69  " /><path style="stroke-width: 0.85 ;&st7;   " d=" M   784.70,   579.69  C   784.70    580.47    785.34    581.10    786.12    581.10  " /><path style="stroke-width: 0.85 ;&st7;   " d=" M   786.12,   581.10  C   786.90    581.10    787.54    580.47    787.54    579.69  " /><path style="stroke-width: 0.85 ;&st7;   " d=" M   791.78,   591.02  C   791.78    590.24    791.15    589.60    790.37    589.60  " /><path style="stroke-width: 0.85 ;&st7;   " d=" M   790.37,   589.60  C   789.59    589.60    788.95    590.24    788.95    591.02  " /><path style="stroke-width: 0.85 ;&st7;   " d=" M   788.95,   591.02  C   788.95    591.80    789.59    592.44    790.37    592.44  " /><path style="stroke-width: 0.85 ;&st7;   " d=" M   790.37,   592.44  C   791.15    592.44    791.78    591.80    791.78    591.02  " /><path style="stroke-width: 0.85 ;&st7;   " d=" M   791.78,   568.36  C   791.78    567.57    791.15    566.94    790.37    566.94  " /><path style="stroke-width: 0.85 ;&st7;   " d=" M   790.37,   566.94  C   789.59    566.94    788.95    567.57    788.95    568.36  " /><path style="stroke-width: 0.85 ;&st7;   " d=" M   788.95,   568.36  C   788.95    569.14    789.59    569.77    790.37    569.77  " /><path style="stroke-width: 0.85 ;&st7;   " d=" M   790.37,   569.77  C   791.15    569.77    791.78    569.14    791.78    568.36  " /><path style="stroke-width: 0.85 ;&st7;   " d=" M   813.33,   577.21  C   814.70    578.61    816.95    578.63    818.34    577.26  " /><path style="stroke-width: 0.85 ;&st7;   " d=" M   818.34,   577.26  C   819.74    575.89    819.76    573.65    818.39    572.25  " /><path style="stroke-width: 0.85 ;&st7;   " d=" M   818.39,   572.25  C   817.70    571.54    816.85    571.19    815.86    571.19  " /><path style="stroke-width: 0.85 ;&st7;   " d=" M   813.33,   582.17  C   814.70    583.56    816.95    583.59    818.34    582.22  " /><path style="stroke-width: 0.85 ;&st7;   " d=" M   818.34,   582.22  C   819.74    580.85    819.76    578.61    818.39    577.21  " /><path style="stroke-width: 0.85 ;&st7;   " d=" M   818.39,   577.21  C   817.02    575.81    814.78    575.79    813.38    577.16  " /><path style="stroke-width: 0.85 ;&st7;   " d=" M   813.38,   577.16  C   813.37    577.18    813.35    577.19    813.33    577.21  " /><path style="stroke-width: 0.85 ;&st7;   " d=" M   815.86,   588.19  C   817.82    588.19    819.40    586.60    819.40    584.65  " /><path style="stroke-width: 0.85 ;&st7;   " d=" M   819.40,   584.65  C   819.40    582.69    817.82    581.10    815.86    581.10  " /><path style="stroke-width: 0.85 ;&st7;   " d=" M   815.86,   581.10  C   814.87    581.10    814.03    581.46    813.33    582.17  " /><path style="stroke-width: 1.42 ;&st7;  " d=" M   790.37,   569.77  L   784.70,   592.44  " /><path style="stroke-width: 0.85 ;&st7;  " d=" M   790.37,   592.44  L   790.37,   596.69  " /><path style="stroke-width: 0.85 ;&st7;  " d=" M   781.87,   579.69  L   784.70,   579.69  " /><path style="stroke-width: 0.85 ;&st7;  " d=" M   790.37,   562.69  L   790.37,   566.94  " /><path style="stroke-width: 0.85 ;&st7;  " d=" M   815.86,   562.69  L   815.86,   571.19  " /><path style="stroke-width: 0.85 ;&st7;  " d=" M   815.86,   588.19  L   815.86,   596.69  " /></g><g ewd:figtype="rb" ewd:figID="10" ewd:code="2"><text style="&st18;" transform="matrix(&st16;  877.51  604.88 )">5</text><text style="&st18;" transform="matrix(&st16;  903.01  604.88 )">2</text><text style="&st18;" transform="matrix(&st16;  877.51  559.0 )">3</text><text style="&st18;" transform="matrix(&st16;  903.01  559.0 )">1</text><text style="&st18;" transform="matrix(&st16;  881.97  628.4 )">2</text><text style="&st18;" transform="matrix(&st16;  907.47  628.4 )">2</text><text style="&st18;" transform="matrix(&st16;  881.97  534.92 )">2</text><text style="&st18;" transform="matrix(&st16;  907.47  534.92 )">2</text><text style="&st18;" transform="matrix(&st17;  925.48  587.04 )" ewd:textID="20">H-LP <tspan x="0 " dy="6.0">Relay</tspan></text><path style="stroke-width: 0.85 ;&st7;  " d=" M   883.85,   622.18  L   883.85,   596.69  " /><path style="stroke-width: 0.28 ;&st9;  " d=" M   883.85,   617.29  L   881.02,   614.45  L   881.02,   618.70  L   883.85,   621.54  L   886.68,   618.70  L   886.68,   614.45  L   883.85,   617.29  " /><path style="stroke-width: 0.28 ;&st9;  " d=" M   909.35,   617.29  L   906.51,   614.45  L   906.51,   618.70  L   909.35,   621.54  L   912.18,   618.70  L   912.18,   614.45  L   909.35,   617.29  " /><path style="stroke-width: 0.85 ;&st7;  " d=" M   909.35,   622.18  L   909.35,   596.69  " /><path style="stroke-width: 0.28 ;&st9;  " d=" M   883.85,   542.09  L   886.68,   544.92  L   886.68,   540.67  L   883.85,   537.84  L   881.02,   540.67  L   881.02,   544.92  L   883.85,   542.09  " /><path style="stroke-width: 0.85 ;&st7;  " d=" M   883.85,   562.69  L   883.85,   537.20  " /><path style="stroke-width: 0.28 ;&st9;  " d=" M   909.35,   542.09  L   912.18,   544.92  L   912.18,   540.67  L   909.35,   537.84  L   906.51,   540.67  L   906.51,   544.92  L   909.35,   542.09  " /><path style="stroke-width: 0.85 ;&st7;  " d=" M   909.35,   562.69  L   909.35,   537.20  " /><path style="stroke-width: 1.42 ;&st7;   " d=" M   885.98,   630.68  C   888.32    630.68    890.23    628.78    890.23    626.43  " /><path style="stroke-width: 1.42 ;&st7;   " d=" M   890.23,   626.43  C   890.23    624.08    888.32    622.18    885.98    622.18  " /><path style="stroke-width: 1.42 ;&st7;   " d=" M   907.22,   622.18  C   904.88    622.18    902.97    624.08    902.97    626.43  " /><path style="stroke-width: 1.42 ;&st7;   " d=" M   902.97,   626.43  C   902.97    628.78    904.88    630.68    907.22    630.68  " /><path style="stroke-width: 1.42 ;&st7;   " d=" M   911.47,   630.68  C   913.82    630.68    915.72    628.78    915.72    626.43  " /><path style="stroke-width: 1.42 ;&st7;   " d=" M   915.72,   626.43  C   915.72    624.08    913.82    622.18    911.47    622.18  " /><path style="stroke-width: 1.42 ;&st7;   " d=" M   881.73,   622.18  C   879.38    622.18    877.48    624.08    877.48    626.43  " /><path style="stroke-width: 1.42 ;&st7;   " d=" M   877.48,   626.43  C   877.48    628.78    879.38    630.68    881.73    630.68  " /><path style="stroke-width: 1.42 ;&st7;   " d=" M   890.23,   532.95  C   890.23    530.60    888.32    528.70    885.98    528.70  " /><path style="stroke-width: 1.42 ;&st7;   " d=" M   885.98,   537.20  C   888.32    537.20    890.23    535.29    890.23    532.95  " /><path style="stroke-width: 1.42 ;&st7;   " d=" M   877.48,   532.95  C   877.48    535.29    879.38    537.20    881.73    537.20  " /><path style="stroke-width: 1.42 ;&st7;   " d=" M   881.73,   528.70  C   879.38    528.70    877.48    530.60    877.48    532.95  " /><path style="stroke-width: 1.42 ;&st7;   " d=" M   915.72,   532.95  C   915.72    530.60    913.82    528.70    911.47    528.70  " /><path style="stroke-width: 1.42 ;&st7;   " d=" M   911.47,   537.20  C   913.82    537.20    915.72    535.29    915.72    532.95  " /><path style="stroke-width: 1.42 ;&st7;   " d=" M   902.97,   532.95  C   902.97    535.29    904.88    537.20    907.22    537.20  " /><path style="stroke-width: 1.42 ;&st7;   " d=" M   907.22,   528.70  C   904.88    528.70    902.97    530.60    902.97    532.95  " /><path style="stroke-width: 1.42 ;&st7;  " d=" M   911.47,   622.18  L   907.22,   622.18  " /><path style="stroke-width: 1.42 ;&st7;  " d=" M   911.47,   630.68  L   907.22,   630.68  " /><path style="stroke-width: 1.42 ;&st7;  " d=" M   885.98,   622.18  L   881.73,   622.18  " /><path style="stroke-width: 1.42 ;&st7;  " d=" M   885.98,   630.68  L   881.73,   630.68  " /><path style="stroke-width: 1.42 ;&st7;  " d=" M   885.98,   537.20  L   881.73,   537.20  " /><path style="stroke-width: 1.42 ;&st7;  " d=" M   885.98,   528.70  L   881.73,   528.70  " /><path style="stroke-width: 1.42 ;&st7;  " d=" M   911.47,   537.20  L   907.22,   537.20  " /><path style="stroke-width: 1.42 ;&st7;  " d=" M   911.47,   528.70  L   907.22,   528.70  " /><path style="stroke-width: 1.42 ;&st7;  " d=" M   917.85,   562.69  L   875.35,   562.69  L   875.35,   596.69  L   917.85,   596.69  L   917.85,   562.69  " /><path style="stroke-width: 0.85 ;&st7;   " d=" M   885.27,   591.02  C   885.27    590.24    884.63    589.60    883.85    589.60  " /><path style="stroke-width: 0.85 ;&st7;   " d=" M   883.85,   589.60  C   883.07    589.60    882.44    590.24    882.44    591.02  " /><path style="stroke-width: 0.85 ;&st7;   " d=" M   882.44,   591.02  C   882.44    591.80    883.07    592.44    883.85    592.44  " /><path style="stroke-width: 0.85 ;&st7;   " d=" M   883.85,   592.44  C   884.63    592.44    885.27    591.80    885.27    591.02  " /><path style="stroke-width: 0.85 ;&st7;   " d=" M   885.27,   568.36  C   885.27    567.57    884.63    566.94    883.85    566.94  " /><path style="stroke-width: 0.85 ;&st7;   " d=" M   883.85,   566.94  C   883.07    566.94    882.44    567.57    882.44    568.36  " /><path style="stroke-width: 0.85 ;&st7;   " d=" M   882.44,   568.36  C   882.44    569.14    883.07    569.77    883.85    569.77  " /><path style="stroke-width: 0.85 ;&st7;   " d=" M   883.85,   569.77  C   884.63    569.77    885.27    569.14    885.27    568.36  " /><path style="stroke-width: 0.85 ;&st7;   " d=" M   906.82,   577.21  C   908.19    578.61    910.43    578.63    911.83    577.26  " /><path style="stroke-width: 0.85 ;&st7;   " d=" M   911.83,   577.26  C   913.22    575.89    913.25    573.65    911.88    572.25  " /><path style="stroke-width: 0.85 ;&st7;   " d=" M   911.88,   572.25  C   911.18    571.54    910.34    571.19    909.35    571.19  " /><path style="stroke-width: 0.85 ;&st7;   " d=" M   906.82,   582.17  C   908.19    583.56    910.43    583.59    911.83    582.22  " /><path style="stroke-width: 0.85 ;&st7;   " d=" M   911.83,   582.22  C   913.22    580.85    913.25    578.61    911.88    577.21  " /><path style="stroke-width: 0.85 ;&st7;   " d=" M   911.88,   577.21  C   910.51    575.81    908.27    575.79    906.87    577.16  " /><path style="stroke-width: 0.85 ;&st7;   " d=" M   906.87,   577.16  C   906.85    577.18    906.84    577.19    906.82    577.21  " /><path style="stroke-width: 0.85 ;&st7;   " d=" M   909.35,   588.19  C   911.30    588.19    912.89    586.60    912.89    584.65  " /><path style="stroke-width: 0.85 ;&st7;   " d=" M   912.89,   584.65  C   912.89    582.69    911.30    581.10    909.35    581.10  " /><path style="stroke-width: 0.85 ;&st7;   " d=" M   909.35,   581.10  C   908.36    581.10    907.51    581.46    906.82    582.17  " /><path style="stroke-width: 1.42 ;&st7;  " d=" M   883.85,   569.77  L   878.19,   592.44  " /><path style="stroke-width: 0.85 ;&st7;  " d=" M   883.85,   596.69  L   883.85,   592.44  " /><path style="stroke-width: 0.85 ;&st7;  " d=" M   883.85,   566.94  L   883.85,   562.69  " /><path style="stroke-width: 0.85 ;&st7;  " d=" M   909.35,   562.69  L   909.35,   571.19  " /><path style="stroke-width: 0.85 ;&st7;  " d=" M   909.35,   588.19  L   909.35,   596.69  " /></g><g ewd:figtype="rb" ewd:figID="12" ewd:code="FUSE12"><path style="stroke-width: 0.85 ;&st7;  " d=" M   594.90,   350.23  L   594.90,   358.73  " /><path style="stroke-width: 1.42 ;&st7;  " d=" M   582.15,   350.23  L   582.15,   392.72  L   607.65,   392.72  L   607.65,   350.23  L   582.15,   350.23  " /><path style="stroke-width: 1.42 ;&st7;   " d=" M   594.90,   361.56  C   592.16    363.17    591.25    366.70    592.86    369.44  " /><path style="stroke-width: 1.42 ;&st7;   " d=" M   592.86,   369.44  C   593.38    370.32    594.02    370.95    594.90    371.47  " /><path style="stroke-width: 1.42 ;&st7;   " d=" M   594.90,   381.39  C   597.64    379.78    598.55    376.25    596.94    373.51  " /><path style="stroke-width: 1.42 ;&st7;   " d=" M   596.94,   373.51  C   596.42    372.63    595.78    371.99    594.90    371.47  " /><path style="stroke-width: 0.85 ;&st7;   " d=" M   596.32,   360.14  C   596.32    359.36    595.68    358.73    594.90    358.73  " /><path style="stroke-width: 0.85 ;&st7;   " d=" M   594.90,   358.73  C   594.12    358.73    593.48    359.36    593.48    360.14  " /><path style="stroke-width: 0.85 ;&st7;   " d=" M   593.48,   360.14  C   593.48    360.92    594.12    361.56    594.90    361.56  " /><path style="stroke-width: 0.85 ;&st7;   " d=" M   594.90,   361.56  C   595.68    361.56    596.32    360.92    596.32    360.14  " /><path style="stroke-width: 0.85 ;&st7;   " d=" M   596.32,   382.80  C   596.32    382.02    595.68    381.39    594.90    381.39  " /><path style="stroke-width: 0.85 ;&st7;   " d=" M   594.90,   381.39  C   594.12    381.39    593.48    382.02    593.48    382.80  " /><path style="stroke-width: 0.85 ;&st7;   " d=" M   593.48,   382.80  C   593.48    383.59    594.12    384.22    594.90    384.22  " /><path style="stroke-width: 0.85 ;&st7;   " d=" M   594.90,   384.22  C   595.68    384.22    596.32    383.59    596.32    382.80  " /><path style="stroke-width: 0.85 ;&st7;  " d=" M   594.90,   384.22  L   594.90,   392.72  " /></g><g ewd:figtype="w2w" ewd:figID="25" ewd:code="AI4"><text style="&st18;" transform="matrix(&st16;  844.94  211.97 )">4</text><path style="stroke-width: 1.42 ;&st7;  " d=" M   862.61,   219.92  L   858.36,   215.67  L   854.11,   219.92  " /><path style="stroke-width: 1.42 ;&st7;  " d=" M   862.61,   223.31  L   858.36,   219.07  L   854.11,   223.31  " /></g></svg>