<?xml version="1.0" encoding="utf-8"?>
<!DOCTYPE svg PUBLIC "-//W3C//DTD SVG 1.0//EN" "http://www.w3.org/TR/2001/REC-SVG-20010904/DTD/svg10.dtd"[
	<!ENTITY ns_flows "http://ns.adobe.com/Flows/1.0/">
	<!ENTITY ns_svg "http://www.w3.org/2000/svg">
	<!ENTITY ns_xlink "http://www.w3.org/1999/xlink">
	<!ENTITY st0 "font-size:7px;font-family:'MS-PGothic';adobe-font-script:japanese;">
	<!ENTITY st1 "font-size:6px;font-family:'ArialMT';">
	<!-- White fill  -->
	<!ENTITY st2 "fill:#FFFFFF;stroke:#000000; stroke-width:1.41;stroke-linecap:round;stroke-linejoin:round;">
	<!-- Yellow fill  -->
	<!ENTITY st3 "fill:#FFFFCC;stroke:#FFFFCC; stroke-width:0.1;stroke-linecap:round;stroke-linejoin:round;">
	<!-- Gray fill  -->
	<!ENTITY st4 "fill:#CCCCCC;stroke:#CCCCCC; stroke-width:0.1;stroke-linecap:round;stroke-linejoin:round;">
	<!-- Light-blue fill -->
	<!ENTITY st5 "fill:#CCECF4;stroke:#000000; stroke-width:1.133;stroke-linecap:round;stroke-linejoin:round;">
	<!ENTITY st6 "fill:none;stroke-linecap:butt; stroke-linejoin:round;">
	<!ENTITY st7 "fill:none;stroke:#000000;stroke-linecap:round;stroke-linejoin:round;">
	<!ENTITY st8 "enable-background:new    ;">
	<!-- Black fill -->
	<!ENTITY st9 "fill:#000000;stroke:#000000; stroke-linecap:round;stroke-linejoin:round;">
	<!-- SRS note   -->
	<!ENTITY st10 "font-size:9px;font-family:'ArialMT';">
	<!ENTITY st11 "font-size:9px;font-family:'Svg Symbol';">
	<!ENTITY st12 "font-size:6px;font-family:'Svg Symbol';">
	<!ENTITY st13 "fill:none;stroke:#ff0000;stroke-linecap:round;stroke-linejoin:round;">
	<!-- Yellow fill  -->
	<!ENTITY st14 "fill:#FFFF00;stroke:#FFFF00; stroke-width:0.1;stroke-linecap:round;stroke-linejoin:round;">
	<!ENTITY st15 "font-size:6px;font-family:'MS-PGothic';adobe-font-script:japanese;">
	<!ENTITY st16 "1.00 0.00 0.00 1.00">
	<!ENTITY st17 "0.00 -1.00 1.00 0.00">
	<!ENTITY st18 "font-size:6px;font-family:'Arial';">
	<!ENTITY st19 "font-size:9px;font-family:'Arial';">
	<!ENTITY st20 "font-size:6px;font-family:'MS-PGothic','MS PGothic';adobe-font-script:japanese;">
	<!ENTITY st21 "font-size:7px;font-family:'MS-PGothic','MS PGothic';adobe-font-script:japanese;">
	<!ATTLIST svg
		xmlns:ewd CDATA #FIXED "http://shcl.co.jp/ewd"
		xmlns:a CDATA #FIXED "http://ns.adobe.com/AdobeSVGViewerExtensions/3.0/"
		ewd:ver CDATA #IMPLIED
	>
	<!ATTLIST a
		ewd:lineID CDATA #IMPLIED
		ewd:groupID CDATA #IMPLIED
		ewd:figtype CDATA #IMPLIED
		ewd:code CDATA #IMPLIED
		ewd:figID CDATA #IMPLIED
		ewd:pinNo CDATA #IMPLIED
		ewd:comment CDATA #IMPLIED >
	<!ATTLIST g
		ewd:lineID CDATA #IMPLIED
		ewd:groupID CDATA #IMPLIED
		ewd:figtype CDATA #IMPLIED
		ewd:code CDATA #IMPLIED
		ewd:figID CDATA #IMPLIED
		ewd:pinNo CDATA #IMPLIED
		ewd:comment CDATA #IMPLIED >
	<!ATTLIST text
		ewd:textID CDATA #IMPLIED >
	<!ATTLIST title
		ewd:textID CDATA #IMPLIED >
]>
<!-- Generator: Shintec Hozumi YS   -->
<svg onload="call_execInitLoadProc_svg('system')" style="overflow:visible;  enable-background:new 0 0 1879.455 710.000" viewBox="0 0 1879.455 710.000" height="710.000" width="1879.455" xml:space="preserve" ewd:ver="2.3.1.16" xmlns="&ns_svg;" xmlns:a="http://ns.adobe.com/AdobeSVGViewerExtensions/3.0/" xmlns:ewd="http://shcl.co.jp/ewd" xmlns:xlink="&ns_xlink;">
<text style="&st18;" transform="matrix(&st16;  1004.96  125.57 )">R-W</text><text style="&st18;" transform="matrix(&st16;  1005.5  57.58 )">L-W</text><text style="&st18;" transform="matrix(&st17;  1288.09  670.4 )">W-B</text><text style="&st18;" transform="matrix(&st17;  1288.09  606.66 )">W-B</text><text style="&st18;" transform="matrix(&st17;  1288.09  564.16 )">W-B</text><text style="&st18;" transform="matrix(&st17;  1458.06  139.14 )">L</text><text style="&st18;" transform="matrix(&st16;  1056.49  57.58 )">L-W</text><text style="&st18;" transform="matrix(&st16;  1055.95  125.57 )">R-W</text><text style="&st18;" transform="matrix(&st16;  1060.44  686.47 )">L</text><text style="&st18;" transform="matrix(&st17;  1271.09  347.6 )">R-W</text><text style="&st18;" transform="matrix(&st17;  1458.06  343.11 )">L</text><text style="&st18;" transform="matrix(&st17;  1271.09  228.62 )">R-W</text><text style="&st18;" transform="matrix(&st17;  1245.6  670.4 )">W-B</text><text style="&st18;" transform="matrix(&st16;  1009.45  686.47 )">L</text><path style="stroke-width: 1.42 ;&st7;  " d=" M  1283.29,   188.75  L  1274.79,   188.75  " /><path style="stroke-width: 1.42 ;&st7;  " d=" M  1470.25,   188.75  L  1461.76,   188.75  " /><path style="stroke-width: 1.42 ;&st7;  " d=" M  1300.28,   576.16  L  1295.31,   571.19  " /><path style="stroke-width: 1.42 ;&st7;  " d=" M  1283.29,   583.22  L  1288.25,   588.19  " /><path style="stroke-width: 1.42 ;&st7;  " d=" M  1295.31,   588.19  L  1300.28,   583.22  " /><path style="stroke-width: 1.42 ;&st7;  " d=" M  1288.25,   571.19  L  1283.29,   576.16  " /><text style="&st18;" transform="matrix(&st16;  1004.61  68.91 )">(*19)</text><text style="&st18;" transform="matrix(&st16;  1055.6  68.91 )">(*19)</text><text style="&st18;" transform="matrix(&st16;  1009.07  32.08 )">P</text><text style="&st18;" transform="matrix(&st16;  1004.61  43.41 )">(*20)</text><text style="&st18;" transform="matrix(&st16;  1060.06  32.08 )">P</text><text style="&st18;" transform="matrix(&st16;  1055.6  43.41 )">(*20)</text><text style="&st18;" transform="matrix(&st17;  1282.42  228.97 )">(*19)</text><text style="&st18;" transform="matrix(&st17;  1245.6  225.45 )">W</text><text style="&st18;" transform="matrix(&st17;  1256.93  228.97 )">(*20)</text><text style="&st18;" transform="matrix(&st17;  1282.42  347.95 )">(*19)</text><text style="&st18;" transform="matrix(&st17;  1245.6  344.43 )">W</text><text style="&st18;" transform="matrix(&st17;  1256.93  347.95 )">(*20)</text><text style="&st18;" transform="matrix(&st16;  1339.58  355.03 )">W</text><text style="&st18;" transform="matrix(&st16;  1336.05  366.36 )">(*20)</text><text style="&st18;" transform="matrix(&st16;  1336.4  321.03 )">R-W</text><text style="&st18;" transform="matrix(&st16;  1336.05  332.37 )">(*19)</text><text style="&st18;" transform="matrix(&st16;  1004.61  136.9 )">(*21)</text><text style="&st18;" transform="matrix(&st16;  1055.6  136.9 )">(*21)</text><text style="&st18;" transform="matrix(&st16;  1009.07  151.06 )">B</text><text style="&st18;" transform="matrix(&st16;  1060.06  151.06 )">B</text><text style="&st18;" transform="matrix(&st16;  1004.61  162.39 )">(*22)</text><text style="&st18;" transform="matrix(&st16;  1055.6  162.39 )">(*22)</text><g ewd:figtype="conn" ewd:figID="11" ewd:code="L53"><path style="stroke-width: 1.42 ;&st7;  " d=" M  1283.29,   622.18  L  1300.28,   622.18  L  1300.28,   639.18  L  1283.29,   639.18  L  1283.29,   622.18  " /><path style="stroke-width: 0.85 ;&st7;  " d=" M  1291.78,   622.18  L  1291.78,   639.18  " /><path style="stroke-width: 0.85 ;&st7;  " d=" M  1283.29,   630.68  L  1291.78,   630.68  " /><path style="stroke-width: 0.85 ;&st7;  " d=" M  1290.59,   629.68  L  1290.32,   630.15  L  1290.23,   630.68  L  1290.32,   631.21  L  1290.59,   631.68  L  1291.00,   632.03  L  1291.51,   632.22  L  1292.06,   632.22  L  1292.56,   632.03  L  1292.98,   631.68  L  1293.25,   631.21  L  1293.34,   630.68  L  1293.25,   630.15  L  1292.98,   629.68  L  1292.56,   629.33  L  1292.06,   629.14  L  1291.51,   629.14  L  1291.00,   629.33  L  1290.59,   629.68  L  1290.98,   630.39  L  1290.98,   630.97  L  1291.36,   631.42  L  1291.93,   631.52  L  1292.44,   631.23  L  1292.63,   630.68  L  1292.44,   630.13  L  1291.93,   629.84  L  1291.36,   629.94  L  1291.78,   630.68  " /><text style="&st18;" transform="matrix(&st16;  1276.95  626.99 )">5</text><text style="&st18;" transform="matrix(&st16;  1285.44  647.37 )">4</text><text style="&st18;" transform="matrix(&st16;  1282.11  618.49 )">13</text><g ewd:figtype="title"><text style="&st18;" transform="matrix(&st17;  1315.0  642.08 )" ewd:textID="36">No. 31 <tspan x="0 " dy="6.0">Junction Connector</tspan></text><text style="&st18;" transform="matrix(&st17;  1308.18  642.08 )">L53</text></g></g><g ewd:figtype="conn" ewd:figID="13" ewd:code="L32,L34"><path style="stroke-width: 0.85 ;&st7; stroke-dasharray:3, 1.5;" d=" M  1283.29,   304.33  L  1296.03,   304.33  " /><path style="stroke-width: 0.85 ;&st7; stroke-dasharray:3, 1.5;" d=" M  1296.03,   295.27  L  1283.29,   295.27  " /><path style="stroke-width: 0.85 ;&st7;  " d=" M  1273.59,   281.24  L  1273.32,   281.71  L  1273.23,   282.24  L  1273.32,   282.77  L  1273.59,   283.24  L  1274.01,   283.59  L  1274.51,   283.77  L  1275.06,   283.77  L  1275.57,   283.59  L  1275.98,   283.24  L  1276.25,   282.77  L  1276.34,   282.24  L  1276.25,   281.71  L  1275.98,   281.24  L  1275.57,   280.89  L  1275.06,   280.70  L  1274.51,   280.70  L  1274.01,   280.89  L  1273.59,   281.24  L  1273.99,   281.95  L  1273.99,   282.53  L  1274.36,   282.97  L  1274.93,   283.07  L  1275.44,   282.79  L  1275.64,   282.24  L  1275.44,   281.69  L  1274.93,   281.40  L  1274.36,   281.50  L  1274.79,   282.24  " /><path style="stroke-width: 0.85 ;&st7;  " d=" M  1274.79,   282.24  L  1308.78,   282.24  L  1308.78,   290.74  " /><path style="stroke-width: 1.42 ;&st7;  " d=" M  1266.29,   290.74  L  1317.28,   290.74  L  1317.28,   273.74  L  1266.29,   273.74  L  1266.29,   290.74  " /><path style="stroke-width: 0.85 ;&st7;  " d=" M  1274.79,   273.74  L  1274.79,   290.74  " /><text style="&st18;" transform="matrix(&st16;  1265.31  306.3 )">3</text><text style="&st18;" transform="matrix(&st16;  1265.31  297.24 )">6</text><path style="stroke-width: 1.42 ;&st7;   " d=" M  1279.32,   295.27  C  1279.32    292.77   1277.29    290.74   1274.79    290.74  " /><path style="stroke-width: 1.42 ;&st7;   " d=" M  1274.79,   290.74  C  1272.28    290.74   1270.25    292.77   1270.25    295.27  " /><path style="stroke-width: 1.42 ;&st7;   " d=" M  1270.25,   295.27  C  1270.25    297.77   1272.28    299.80   1274.79    299.80  " /><path style="stroke-width: 1.42 ;&st7;   " d=" M  1274.79,   299.80  C  1277.29    299.80   1279.32    297.77   1279.32    295.27  " /><path style="stroke-width: 1.42 ;&st7;   " d=" M  1279.32,   304.33  C  1279.32    301.83   1277.29    299.80   1274.79    299.80  " /><path style="stroke-width: 1.42 ;&st7;   " d=" M  1274.79,   299.80  C  1272.28    299.80   1270.25    301.83   1270.25    304.33  " /><path style="stroke-width: 1.42 ;&st7;   " d=" M  1270.25,   304.33  C  1270.25    306.84   1272.28    308.87   1274.79    308.87  " /><path style="stroke-width: 1.42 ;&st7;   " d=" M  1274.79,   308.87  C  1277.29    308.87   1279.32    306.84   1279.32    304.33  " /><text style="&st18;" transform="matrix(&st16;  1272.52  297.24 )">A</text><text style="&st18;" transform="matrix(&st16;  1272.52  306.3 )">B</text><text style="&st18;" transform="matrix(&st16;  1265.31  271.18 )">1</text><text style="&st18;" transform="matrix(&st16;  1265.31  262.11 )">4</text><path style="stroke-width: 1.42 ;&st7;   " d=" M  1279.32,   269.21  C  1279.32    266.70   1277.29    264.67   1274.79    264.67  " /><path style="stroke-width: 1.42 ;&st7;   " d=" M  1274.79,   264.67  C  1272.28    264.67   1270.25    266.70   1270.25    269.21  " /><path style="stroke-width: 1.42 ;&st7;   " d=" M  1270.25,   269.21  C  1270.25    271.71   1272.28    273.74   1274.79    273.74  " /><path style="stroke-width: 1.42 ;&st7;   " d=" M  1274.79,   273.74  C  1277.29    273.74   1279.32    271.71   1279.32    269.21  " /><path style="stroke-width: 1.42 ;&st7;   " d=" M  1279.32,   260.14  C  1279.32    257.64   1277.29    255.61   1274.79    255.61  " /><path style="stroke-width: 1.42 ;&st7;   " d=" M  1274.79,   255.61  C  1272.28    255.61   1270.25    257.64   1270.25    260.14  " /><path style="stroke-width: 1.42 ;&st7;   " d=" M  1270.25,   260.14  C  1270.25    262.65   1272.28    264.67   1274.79    264.67  " /><path style="stroke-width: 1.42 ;&st7;   " d=" M  1274.79,   264.67  C  1277.29    264.67   1279.32    262.65   1279.32    260.14  " /><text style="&st18;" transform="matrix(&st16;  1272.52  262.11 )">A</text><text style="&st18;" transform="matrix(&st16;  1272.52  271.18 )">B</text><text style="&st18;" transform="matrix(&st16;  1299.3  297.24 )">5</text><text style="&st18;" transform="matrix(&st16;  1299.3  306.3 )">2</text><path style="stroke-width: 1.42 ;&st7;   " d=" M  1313.31,   295.27  C  1313.31    292.77   1311.28    290.74   1308.78    290.74  " /><path style="stroke-width: 1.42 ;&st7;   " d=" M  1308.78,   290.74  C  1306.28    290.74   1304.25    292.77   1304.25    295.27  " /><path style="stroke-width: 1.42 ;&st7;   " d=" M  1304.25,   295.27  C  1304.25    297.77   1306.28    299.80   1308.78    299.80  " /><path style="stroke-width: 1.42 ;&st7;   " d=" M  1308.78,   299.80  C  1311.28    299.80   1313.31    297.77   1313.31    295.27  " /><path style="stroke-width: 1.42 ;&st7;   " d=" M  1313.31,   304.33  C  1313.31    301.83   1311.28    299.80   1308.78    299.80  " /><path style="stroke-width: 1.42 ;&st7;   " d=" M  1308.78,   299.80  C  1306.28    299.80   1304.25    301.83   1304.25    304.33  " /><path style="stroke-width: 1.42 ;&st7;   " d=" M  1304.25,   304.33  C  1304.25    306.84   1306.28    308.87   1308.78    308.87  " /><path style="stroke-width: 1.42 ;&st7;   " d=" M  1308.78,   308.87  C  1311.28    308.87   1313.31    306.84   1313.31    304.33  " /><text style="&st18;" transform="matrix(&st16;  1306.52  297.24 )">A</text><text style="&st18;" transform="matrix(&st16;  1306.52  306.3 )">B</text><g ewd:figtype="title"><text style="&st18;" transform="matrix(&st17;  1325.17  289.39 )">L34(A)</text><text style="&st18;" transform="matrix(&st17;  1332.0  289.39 )" ewd:textID="35">No. 26 Junction <tspan x="0 " dy="6.0">Connector</tspan></text><text style="&st18;" transform="matrix(&st17;  1345.29  289.39 )">L32(B)</text><text style="&st18;" transform="matrix(&st17;  1352.11  289.39 )" ewd:textID="33">No. 24 Junction <tspan x="0 " dy="6.0">Connector</tspan></text></g><g ewd:code="" ewd:figID="74" ewd:comment="" ewd:figtype="commref"><text style="&st18;" transform="matrix(&st16;  1313.87  297.24 )">(LHD)</text></g><g ewd:code="" ewd:figID="75" ewd:comment="" ewd:figtype="commref"><text style="&st18;" transform="matrix(&st16;  1313.87  306.3 )">(RHD)</text></g><g ewd:code="" ewd:figID="76" ewd:comment="" ewd:figtype="commref"><text style="&st18;" transform="matrix(&st16;  1279.88  271.18 )">(RHD)</text></g><g ewd:code="" ewd:figID="77" ewd:comment="" ewd:figtype="commref"><text style="&st18;" transform="matrix(&st16;  1279.88  262.11 )">(LHD)</text></g></g><g ewd:figtype="conn" ewd:figID="14" ewd:code="L24"><path style="stroke-width: 0.85 ;&st7; stroke-dasharray:3, 1.5;" d=" M  1283.29,   379.12  L  1376.77,   379.12  " /><path style="stroke-width: 0.85 ;&st7; stroke-dasharray:3, 1.5;" d=" M  1283.29,   388.19  L  1376.77,   388.19  " /><path style="stroke-width: 0.85 ;&st7; stroke-dasharray:3, 1.5;" d=" M  1402.27,   379.12  L  1444.76,   379.12  " /><path style="stroke-width: 0.85 ;&st7; stroke-dasharray:3, 1.5;" d=" M  1402.27,   388.19  L  1444.76,   388.19  " /><path style="stroke-width: 0.85 ;&st7;   " d=" M  1259.21,   477.71  C  1259.21    476.92   1258.57    476.29   1257.79    476.29  " /><path style="stroke-width: 0.85 ;&st7;   " d=" M  1257.79,   476.29  C  1257.01    476.29   1256.37    476.92   1256.37    477.71  " /><path style="stroke-width: 0.85 ;&st7;   " d=" M  1256.37,   477.71  C  1256.37    478.49   1257.01    479.12   1257.79    479.12  " /><path style="stroke-width: 0.85 ;&st7;   " d=" M  1257.79,   479.12  C  1258.57    479.12   1259.21    478.49   1259.21    477.71  " /><text style="&st18;" transform="matrix(&st16;  1396.35  400.91 )">HF</text><text style="&st18;" transform="matrix(&st16;  1464.34  400.91 )">HU</text><text style="&st18;" transform="matrix(&st16;  1294.37  525.01 )">EL</text><text style="&st18;" transform="matrix(&st17;  1323.5  480.54 )" ewd:textID="18">Dimmer Switch</text><text style="&st18;" transform="matrix(&st17;  1201.7  488.19 )" ewd:textID="27">Light <tspan x="0 " dy="6.0">Control Switch</tspan></text><text style="&st18;" transform="matrix(&st16;  1287.89  445.68 )">EL</text><text style="&st18;" transform="matrix(&st16;  1272.37  445.68 )">H</text><text style="&st18;" transform="matrix(&st16;  1226.07  462.68 )">OFF</text><text style="&st18;" transform="matrix(&st16;  1227.2  479.67 )" ewd:textID="37">Tail</text><text style="&st18;" transform="matrix(&st16;  1224.91  496.67 )" ewd:textID="21">Head</text><text style="&st18;" transform="matrix(&st16;  1423.71  437.18 )">HL</text><text style="&st18;" transform="matrix(&st16;  1389.52  437.18 )">HF</text><text style="&st18;" transform="matrix(&st16;  1347.98  462.68 )" ewd:textID="19">Flash</text><text style="&st18;" transform="matrix(&st16;  1349.88  479.67 )" ewd:textID="28">Low</text><text style="&st18;" transform="matrix(&st16;  1349.11  496.67 )" ewd:textID="25">High</text><text style="&st18;" transform="matrix(&st16;  1487.01  428.7 )">(EL) <tspan x="0 " dy="6.0">(LHD) </tspan><tspan x="0 " dy="6.0">ED </tspan><tspan x="0 " dy="6.0">(RHD)</tspan></text><text style="&st18;" transform="matrix(&st16;  1457.16  437.18 )">HU</text><text style="&st18;" transform="matrix(&st16;  1277.37  400.91 )">H</text><text style="&st18;" transform="matrix(&st16;  1255.72  445.68 )">T</text><path style="stroke-width: 0.85 ;&st7;   " d=" M  1293.20,   477.71  C  1293.20    476.92   1292.57    476.29   1291.78    476.29  " /><path style="stroke-width: 0.85 ;&st7;   " d=" M  1291.78,   476.29  C  1291.00    476.29   1290.37    476.92   1290.37    477.71  " /><path style="stroke-width: 0.85 ;&st7;   " d=" M  1290.37,   477.71  C  1290.37    478.49   1291.00    479.12   1291.78    479.12  " /><path style="stroke-width: 0.85 ;&st7;   " d=" M  1291.78,   479.12  C  1292.57    479.12   1293.20    478.49   1293.20    477.71  " /><path style="stroke-width: 0.85 ;&st7;   " d=" M  1259.21,   494.70  C  1259.21    493.92   1258.57    493.29   1257.79    493.29  " /><path style="stroke-width: 0.85 ;&st7;   " d=" M  1257.79,   493.29  C  1257.01    493.29   1256.37    493.92   1256.37    494.70  " /><path style="stroke-width: 0.85 ;&st7;   " d=" M  1256.37,   494.70  C  1256.37    495.48   1257.01    496.12   1257.79    496.12  " /><path style="stroke-width: 0.85 ;&st7;   " d=" M  1257.79,   496.12  C  1258.57    496.12   1259.21    495.48   1259.21    494.70  " /><path style="stroke-width: 0.85 ;&st7;  " d=" M  1429.18,   477.71  L  1494.33,   477.71  " /><path style="stroke-width: 0.85 ;&st7;  " d=" M  1463.17,   494.70  L  1494.33,   494.70  " /><path style="stroke-width: 0.85 ;&st7;  " d=" M  1395.18,   460.71  L  1460.34,   460.71  " /><path style="stroke-width: 0.85 ;&st7;  " d=" M  1463.17,   460.71  L  1494.33,   460.71  " /><path style="stroke-width: 0.85 ;&st7;  " d=" M  1276.20,   494.70  L  1290.37,   494.70  " /><path style="stroke-width: 1.42 ;&st7;  " d=" M  1189.80,   435.21  L  1189.80,   503.20  L  1300.28,   503.20  L  1300.28,   435.21  L  1189.80,   435.21  " /><path style="stroke-width: 0.85 ;&st7;  " d=" M  1215.30,   452.21  L  1300.28,   452.21  " /><path style="stroke-width: 0.85 ;&st7;  " d=" M  1215.30,   469.21  L  1300.28,   469.21  " /><path style="stroke-width: 0.85 ;&st7;  " d=" M  1215.30,   486.20  L  1300.28,   486.20  " /><path style="stroke-width: 0.85 ;&st7;  " d=" M  1283.29,   435.21  L  1283.29,   503.20  " /><path style="stroke-width: 0.85 ;&st7;  " d=" M  1266.29,   435.21  L  1266.29,   503.20  " /><path style="stroke-width: 0.85 ;&st7;  " d=" M  1215.30,   435.21  L  1215.30,   503.20  " /><path style="stroke-width: 0.85 ;&st7;  " d=" M  1444.76,   418.22  L  1444.76,   503.20  " /><path style="stroke-width: 0.85 ;&st7;  " d=" M  1334.28,   418.22  L  1334.28,   503.20  " /><path style="stroke-width: 0.85 ;&st7;  " d=" M  1376.77,   418.22  L  1376.77,   503.20  " /><path style="stroke-width: 0.85 ;&st7;  " d=" M  1410.76,   418.22  L  1410.76,   503.20  " /><path style="stroke-width: 0.85 ;&st7;  " d=" M  1334.28,   486.20  L  1512.75,   486.20  " /><path style="stroke-width: 0.85 ;&st7;  " d=" M  1334.28,   469.21  L  1512.75,   469.21  " /><path style="stroke-width: 0.85 ;&st7;  " d=" M  1334.28,   452.21  L  1512.75,   452.21  " /><path style="stroke-width: 1.42 ;&st7;  " d=" M  1308.78,   418.22  L  1308.78,   503.20  L  1512.75,   503.20  L  1512.75,   418.22  L  1308.78,   418.22  " /><path style="stroke-width: 0.85 ;&st7;  " d=" M  1478.75,   418.22  L  1478.75,   503.20  " /><path style="stroke-width: 0.85 ;&st7;  " d=" M  1461.76,   392.72  L  1461.76,   418.22  " /><path style="stroke-width: 0.85 ;&st7;  " d=" M  1249.29,   435.21  L  1249.29,   503.20  " /><path style="stroke-width: 0.85 ;&st7;  " d=" M  1274.79,   392.72  L  1274.79,   435.21  " /><path style="stroke-width: 0.85 ;&st7;  " d=" M  1393.77,   392.72  L  1393.77,   418.22  " /><path style="stroke-width: 1.42 ;&st7;  " d=" M  1172.80,   528.70  L  1521.25,   528.70  L  1521.25,   392.72  L  1172.80,   392.72  L  1172.80,   528.70  " /><path style="stroke-width: 0.85 ;&st7;  " d=" M  1495.75,   503.20  L  1495.75,   511.70  L  1291.78,   511.70  " /><path style="stroke-width: 0.85 ;&st7;  " d=" M  1291.78,   503.20  L  1291.78,   528.70  " /><path style="stroke-width: 0.85 ;&st7;  " d=" M  1290.59,   510.70  L  1290.32,   511.17  L  1290.23,   511.70  L  1290.32,   512.23  L  1290.59,   512.70  L  1291.00,   513.05  L  1291.51,   513.24  L  1292.06,   513.24  L  1292.56,   513.05  L  1292.98,   512.70  L  1293.25,   512.23  L  1293.34,   511.70  L  1293.25,   511.17  L  1292.98,   510.70  L  1292.56,   510.35  L  1292.06,   510.16  L  1291.51,   510.16  L  1291.00,   510.35  L  1290.59,   510.70  L  1290.98,   511.41  L  1290.98,   511.99  L  1291.36,   512.44  L  1291.93,   512.54  L  1292.44,   512.25  L  1292.63,   511.70  L  1292.44,   511.15  L  1291.93,   510.86  L  1291.36,   510.96  L  1291.78,   511.70  " /><path style="stroke-width: 0.85 ;&st7;   " d=" M  1276.20,   494.70  C  1276.20    493.92   1275.57    493.29   1274.79    493.29  " /><path style="stroke-width: 0.85 ;&st7;   " d=" M  1274.79,   493.29  C  1274.00    493.29   1273.37    493.92   1273.37    494.70  " /><path style="stroke-width: 0.85 ;&st7;   " d=" M  1273.37,   494.70  C  1273.37    495.48   1274.00    496.12   1274.79    496.12  " /><path style="stroke-width: 0.85 ;&st7;   " d=" M  1274.79,   496.12  C  1275.57    496.12   1276.20    495.48   1276.20    494.70  " /><path style="stroke-width: 0.85 ;&st7;  " d=" M  1259.21,   477.71  L  1290.37,   477.71  " /><path style="stroke-width: 0.85 ;&st7;  " d=" M  1259.21,   494.70  L  1273.37,   494.70  " /><path style="stroke-width: 0.85 ;&st7;   " d=" M  1395.18,   460.71  C  1395.18    459.93   1394.55    459.29   1393.77    459.29  " /><path style="stroke-width: 0.85 ;&st7;   " d=" M  1393.77,   459.29  C  1392.98    459.29   1392.35    459.93   1392.35    460.71  " /><path style="stroke-width: 0.85 ;&st7;   " d=" M  1392.35,   460.71  C  1392.35    461.49   1392.98    462.12   1393.77    462.12  " /><path style="stroke-width: 0.85 ;&st7;   " d=" M  1393.77,   462.12  C  1394.55    462.12   1395.18    461.49   1395.18    460.71  " /><path style="stroke-width: 0.85 ;&st7;   " d=" M  1463.17,   460.71  C  1463.17    459.93   1462.54    459.29   1461.76    459.29  " /><path style="stroke-width: 0.85 ;&st7;   " d=" M  1461.76,   459.29  C  1460.97    459.29   1460.34    459.93   1460.34    460.71  " /><path style="stroke-width: 0.85 ;&st7;   " d=" M  1460.34,   460.71  C  1460.34    461.49   1460.97    462.12   1461.76    462.12  " /><path style="stroke-width: 0.85 ;&st7;   " d=" M  1461.76,   462.12  C  1462.54    462.12   1463.17    461.49   1463.17    460.71  " /><path style="stroke-width: 0.85 ;&st7;   " d=" M  1497.17,   477.71  C  1497.17    476.92   1496.53    476.29   1495.75    476.29  " /><path style="stroke-width: 0.85 ;&st7;   " d=" M  1495.75,   476.29  C  1494.97    476.29   1494.33    476.92   1494.33    477.71  " /><path style="stroke-width: 0.85 ;&st7;   " d=" M  1494.33,   477.71  C  1494.33    478.49   1494.97    479.12   1495.75    479.12  " /><path style="stroke-width: 0.85 ;&st7;   " d=" M  1495.75,   479.12  C  1496.53    479.12   1497.17    478.49   1497.17    477.71  " /><path style="stroke-width: 0.85 ;&st7;   " d=" M  1497.17,   494.70  C  1497.17    493.92   1496.53    493.29   1495.75    493.29  " /><path style="stroke-width: 0.85 ;&st7;   " d=" M  1495.75,   493.29  C  1494.97    493.29   1494.33    493.92   1494.33    494.70  " /><path style="stroke-width: 0.85 ;&st7;   " d=" M  1494.33,   494.70  C  1494.33    495.48   1494.97    496.12   1495.75    496.12  " /><path style="stroke-width: 0.85 ;&st7;   " d=" M  1495.75,   496.12  C  1496.53    496.12   1497.17    495.48   1497.17    494.70  " /><path style="stroke-width: 0.85 ;&st7;   " d=" M  1463.17,   494.70  C  1463.17    493.92   1462.54    493.29   1461.76    493.29  " /><path style="stroke-width: 0.85 ;&st7;   " d=" M  1461.76,   493.29  C  1460.97    493.29   1460.34    493.92   1460.34    494.70  " /><path style="stroke-width: 0.85 ;&st7;   " d=" M  1460.34,   494.70  C  1460.34    495.48   1460.97    496.12   1461.76    496.12  " /><path style="stroke-width: 0.85 ;&st7;   " d=" M  1461.76,   496.12  C  1462.54    496.12   1463.17    495.48   1463.17    494.70  " /><path style="stroke-width: 0.85 ;&st7;   " d=" M  1497.17,   460.71  C  1497.17    459.93   1496.53    459.29   1495.75    459.29  " /><path style="stroke-width: 0.85 ;&st7;   " d=" M  1495.75,   459.29  C  1494.97    459.29   1494.33    459.93   1494.33    460.71  " /><path style="stroke-width: 0.85 ;&st7;   " d=" M  1494.33,   460.71  C  1494.33    461.49   1494.97    462.12   1495.75    462.12  " /><path style="stroke-width: 0.85 ;&st7;   " d=" M  1495.75,   462.12  C  1496.53    462.12   1497.17    461.49   1497.17    460.71  " /><path style="stroke-width: 0.85 ;&st7;   " d=" M  1429.18,   477.71  C  1429.18    476.92   1428.54    476.29   1427.76    476.29  " /><path style="stroke-width: 0.85 ;&st7;   " d=" M  1427.76,   476.29  C  1426.98    476.29   1426.35    476.92   1426.35    477.71  " /><path style="stroke-width: 0.85 ;&st7;   " d=" M  1426.35,   477.71  C  1426.35    478.49   1426.98    479.12   1427.76    479.12  " /><path style="stroke-width: 0.85 ;&st7;   " d=" M  1427.76,   479.12  C  1428.54    479.12   1429.18    478.49   1429.18    477.71  " /><path style="stroke-width: 0.85 ;&st7;   " d=" M  1293.20,   494.70  C  1293.20    493.92   1292.57    493.29   1291.78    493.29  " /><path style="stroke-width: 0.85 ;&st7;   " d=" M  1291.78,   493.29  C  1291.00    493.29   1290.37    493.92   1290.37    494.70  " /><path style="stroke-width: 0.85 ;&st7;   " d=" M  1290.37,   494.70  C  1290.37    495.48   1291.00    496.12   1291.78    496.12  " /><path style="stroke-width: 0.85 ;&st7;   " d=" M  1291.78,   496.12  C  1292.57    496.12   1293.20    495.48   1293.20    494.70  " /><text style="&st18;" transform="matrix(&st16;  1261.97  390.16 )">11</text><text style="&st18;" transform="matrix(&st16;  1261.97  381.09 )">20</text><path style="stroke-width: 1.42 ;&st7;   " d=" M  1279.32,   388.19  C  1279.32    385.68   1277.29    383.65   1274.79    383.65  " /><path style="stroke-width: 1.42 ;&st7;   " d=" M  1274.79,   383.65  C  1272.28    383.65   1270.25    385.68   1270.25    388.19  " /><path style="stroke-width: 1.42 ;&st7;   " d=" M  1270.25,   388.19  C  1270.25    390.69   1272.28    392.72   1274.79    392.72  " /><path style="stroke-width: 1.42 ;&st7;   " d=" M  1274.79,   392.72  C  1277.29    392.72   1279.32    390.69   1279.32    388.19  " /><path style="stroke-width: 1.42 ;&st7;   " d=" M  1279.32,   379.12  C  1279.32    376.62   1277.29    374.59   1274.79    374.59  " /><path style="stroke-width: 1.42 ;&st7;   " d=" M  1274.79,   374.59  C  1272.28    374.59   1270.25    376.62   1270.25    379.12  " /><path style="stroke-width: 1.42 ;&st7;   " d=" M  1270.25,   379.12  C  1270.25    381.63   1272.28    383.65   1274.79    383.65  " /><path style="stroke-width: 1.42 ;&st7;   " d=" M  1274.79,   383.65  C  1277.29    383.65   1279.32    381.63   1279.32    379.12  " /><text style="&st18;" transform="matrix(&st16;  1272.37  381.09 )">C</text><text style="&st18;" transform="matrix(&st16;  1272.37  390.16 )">D</text><text style="&st18;" transform="matrix(&st16;  1278.97  544.26 )">19</text><text style="&st18;" transform="matrix(&st16;  1278.97  535.2 )">12</text><path style="stroke-width: 1.42 ;&st7;   " d=" M  1296.32,   542.29  C  1296.32    539.79   1294.29    537.76   1291.78    537.76  " /><path style="stroke-width: 1.42 ;&st7;   " d=" M  1291.78,   537.76  C  1289.28    537.76   1287.25    539.79   1287.25    542.29  " /><path style="stroke-width: 1.42 ;&st7;   " d=" M  1287.25,   542.29  C  1287.25    544.80   1289.28    546.83   1291.78    546.83  " /><path style="stroke-width: 1.42 ;&st7;   " d=" M  1291.78,   546.83  C  1294.29    546.83   1296.32    544.80   1296.32    542.29  " /><path style="stroke-width: 1.42 ;&st7;   " d=" M  1296.32,   533.23  C  1296.32    530.73   1294.29    528.70   1291.78    528.70  " /><path style="stroke-width: 1.42 ;&st7;   " d=" M  1291.78,   528.70  C  1289.28    528.70   1287.25    530.73   1287.25    533.23  " /><path style="stroke-width: 1.42 ;&st7;   " d=" M  1287.25,   533.23  C  1287.25    535.73   1289.28    537.76   1291.78    537.76  " /><path style="stroke-width: 1.42 ;&st7;   " d=" M  1291.78,   537.76  C  1294.29    537.76   1296.32    535.73   1296.32    533.23  " /><text style="&st18;" transform="matrix(&st16;  1289.36  535.2 )">C</text><text style="&st18;" transform="matrix(&st16;  1289.36  544.26 )">D</text><text style="&st18;" transform="matrix(&st16;  1380.95  390.16 )">14</text><text style="&st18;" transform="matrix(&st16;  1380.95  381.09 )">17</text><path style="stroke-width: 1.42 ;&st7;   " d=" M  1398.30,   388.19  C  1398.30    385.68   1396.27    383.65   1393.77    383.65  " /><path style="stroke-width: 1.42 ;&st7;   " d=" M  1393.77,   383.65  C  1391.26    383.65   1389.23    385.68   1389.23    388.19  " /><path style="stroke-width: 1.42 ;&st7;   " d=" M  1389.23,   388.19  C  1389.23    390.69   1391.26    392.72   1393.77    392.72  " /><path style="stroke-width: 1.42 ;&st7;   " d=" M  1393.77,   392.72  C  1396.27    392.72   1398.30    390.69   1398.30    388.19  " /><text style="&st18;" transform="matrix(&st16;  1391.35  390.16 )">D</text><text style="&st18;" transform="matrix(&st16;  1391.35  381.09 )">C</text><path style="stroke-width: 1.42 ;&st7;   " d=" M  1398.30,   379.12  C  1398.30    376.62   1396.27    374.59   1393.77    374.59  " /><path style="stroke-width: 1.42 ;&st7;   " d=" M  1393.77,   374.59  C  1391.26    374.59   1389.23    376.62   1389.23    379.12  " /><path style="stroke-width: 1.42 ;&st7;   " d=" M  1389.23,   379.12  C  1389.23    381.63   1391.26    383.65   1393.77    383.65  " /><path style="stroke-width: 1.42 ;&st7;   " d=" M  1393.77,   383.65  C  1396.27    383.65   1398.30    381.63   1398.30    379.12  " /><text style="&st18;" transform="matrix(&st16;  1448.94  381.09 )">11</text><text style="&st18;" transform="matrix(&st16;  1448.94  390.16 )">20</text><text style="&st18;" transform="matrix(&st16;  1459.33  390.16 )">D</text><text style="&st18;" transform="matrix(&st16;  1459.33  381.09 )">C</text><path style="stroke-width: 1.42 ;&st7;   " d=" M  1466.29,   379.12  C  1466.29    376.62   1464.26    374.59   1461.76    374.59  " /><path style="stroke-width: 1.42 ;&st7;   " d=" M  1461.76,   374.59  C  1459.25    374.59   1457.22    376.62   1457.22    379.12  " /><path style="stroke-width: 1.42 ;&st7;   " d=" M  1457.22,   379.12  C  1457.22    381.63   1459.25    383.65   1461.76    383.65  " /><path style="stroke-width: 1.42 ;&st7;   " d=" M  1461.76,   383.65  C  1464.26    383.65   1466.29    381.63   1466.29    379.12  " /><path style="stroke-width: 1.42 ;&st7;   " d=" M  1466.29,   388.19  C  1466.29    385.68   1464.26    383.65   1461.76    383.65  " /><path style="stroke-width: 1.42 ;&st7;   " d=" M  1461.76,   383.65  C  1459.25    383.65   1457.22    385.68   1457.22    388.19  " /><path style="stroke-width: 1.42 ;&st7;   " d=" M  1457.22,   388.19  C  1457.22    390.69   1459.25    392.72   1461.76    392.72  " /><path style="stroke-width: 1.42 ;&st7;   " d=" M  1461.76,   392.72  C  1464.26    392.72   1466.29    390.69   1466.29    388.19  " /><g ewd:figtype="title"><text style="&st18;" transform="matrix(&st17;  1529.14  523.1 )">L24(C),(D)</text><text style="&st18;" transform="matrix(&st17;  1535.96  523.1 )" ewd:textID="24">Headlight Dimmer Switch Assembly</text></g><g ewd:code="" ewd:figID="70" ewd:comment="" ewd:figtype="commref"><text style="&st18;" transform="matrix(&st16;  1466.85  390.16 )">(RHD)</text></g><g ewd:code="" ewd:figID="71" ewd:comment="" ewd:figtype="commref"><text style="&st18;" transform="matrix(&st16;  1466.85  381.09 )">(LHD)</text></g><g ewd:code="" ewd:figID="72" ewd:comment="" ewd:figtype="commref"><text style="&st18;" transform="matrix(&st16;  1296.88  544.26 )">(RHD)</text></g><g ewd:code="" ewd:figID="73" ewd:comment="" ewd:figtype="commref"><text style="&st18;" transform="matrix(&st16;  1296.88  535.2 )">(LHD)</text></g></g><g ewd:figtype="w2w" ewd:figID="26" ewd:code="IL5"><text style="&st18;" transform="matrix(&st16;  1258.03  186.47 )">59</text><path style="stroke-width: 1.42 ;&st7;  " d=" M  1279.04,   197.82  L  1274.79,   193.57  L  1270.54,   197.82  " /><path style="stroke-width: 1.42 ;&st7;  " d=" M  1279.04,   194.42  L  1274.79,   190.17  L  1270.54,   194.42  " /><g ewd:code="" ewd:figID="94" ewd:comment="" ewd:figtype="commref"><text style="&st18;" transform="matrix(&st16;  1283.82  186.47 )">(RHD)</text></g></g><g ewd:figtype="w2w" ewd:figID="27" ewd:code="IL1"><text style="&st18;" transform="matrix(&st16;  1258.03  177.98 )">49</text><g ewd:code="" ewd:figID="95" ewd:comment="" ewd:figtype="commref"><text style="&st18;" transform="matrix(&st16;  1283.82  177.98 )">(LHD)</text></g></g><g ewd:figtype="w2w" ewd:figID="28" ewd:code="IL5"><text style="&st18;" transform="matrix(&st16;  1445.0  186.47 )">60</text><path style="stroke-width: 1.42 ;&st7;  " d=" M  1466.00,   197.82  L  1461.76,   193.57  L  1457.51,   197.82  " /><path style="stroke-width: 1.42 ;&st7;  " d=" M  1466.00,   194.42  L  1461.76,   190.17  L  1457.51,   194.42  " /><g ewd:code="" ewd:figID="63" ewd:comment="" ewd:figtype="commref"><text style="&st18;" transform="matrix(&st16;  1470.79  186.47 )">(RHD)</text></g></g><g ewd:figtype="w2w" ewd:figID="29" ewd:code="IL1"><text style="&st18;" transform="matrix(&st16;  1445.0  177.98 )">50</text><g ewd:code="" ewd:figID="64" ewd:comment="" ewd:figtype="commref"><text style="&st18;" transform="matrix(&st16;  1470.79  177.98 )">(LHD)</text></g></g><g ewd:figtype="gp" ewd:figID="44" ewd:code="LB"><path style="stroke-width: 0.85 ;&st7;  " d=" M  1249.29,   697.25  L  1249.29,   701.50  " /><path style="stroke-width: 0.85 ;&st7;  " d=" M  1240.79,   701.50  L  1257.79,   701.50  " /><path style="stroke-width: 0.85 ;&st7;  " d=" M  1245.04,   704.33  L  1253.54,   704.33  " /><path style="stroke-width: 0.85 ;&st7;  " d=" M  1246.46,   707.17  L  1252.12,   707.17  " /><path style="stroke-width: 0.85 ;&st7;  " d=" M  1247.87,   710.00  L  1250.71,   710.00  " /></g><g ewd:figtype="gp" ewd:figID="45" ewd:code="LA"><path style="stroke-width: 0.85 ;&st7;  " d=" M  1291.78,   697.25  L  1291.78,   701.50  " /><path style="stroke-width: 0.85 ;&st7;  " d=" M  1283.29,   701.50  L  1300.28,   701.50  " /><path style="stroke-width: 0.85 ;&st7;  " d=" M  1287.53,   704.33  L  1296.03,   704.33  " /><path style="stroke-width: 0.85 ;&st7;  " d=" M  1288.95,   707.17  L  1294.62,   707.17  " /><path style="stroke-width: 0.85 ;&st7;  " d=" M  1290.37,   710.00  L  1293.20,   710.00  "/></g></svg>
