<?xml version="1.0" encoding="utf-8"?>
<!DOCTYPE svg PUBLIC "-//W3C//DTD SVG 1.0//EN" "http://www.w3.org/TR/2001/REC-SVG-20010904/DTD/svg10.dtd"[
	<!ENTITY ns_flows "http://ns.adobe.com/Flows/1.0/">
	<!ENTITY ns_svg "http://www.w3.org/2000/svg">
	<!ENTITY ns_xlink "http://www.w3.org/1999/xlink">
	<!ENTITY st0 "font-size:7px;font-family:'MS-PGothic';adobe-font-script:japanese;">
	<!ENTITY st1 "font-size:6px;font-family:'ArialMT';">
	<!-- White fill  -->
	<!ENTITY st2 "fill:#FFFFFF;stroke:#000000; stroke-width:1.41;stroke-linecap:round;stroke-linejoin:round;">
	<!-- Yellow fill  -->
	<!ENTITY st3 "fill:#FFFFCC;stroke:#FFFFCC; stroke-width:0.1;stroke-linecap:round;stroke-linejoin:round;">
	<!-- Gray fill  -->
	<!ENTITY st4 "fill:#CCCCCC;stroke:#CCCCCC; stroke-width:0.1;stroke-linecap:round;stroke-linejoin:round;">
	<!-- Light-blue fill -->
	<!ENTITY st5 "fill:#CCECF4;stroke:#000000; stroke-width:1.133;stroke-linecap:round;stroke-linejoin:round;">
	<!ENTITY st6 "fill:none;stroke-linecap:butt; stroke-linejoin:round;">
	<!ENTITY st7 "fill:none;stroke:#000000;stroke-linecap:round;stroke-linejoin:round;">
	<!ENTITY st8 "enable-background:new    ;">
	<!-- Black fill -->
	<!ENTITY st9 "fill:#000000;stroke:#000000; stroke-linecap:round;stroke-linejoin:round;">
	<!-- SRS note   -->
	<!ENTITY st10 "font-size:9px;font-family:'ArialMT';">
	<!ENTITY st11 "font-size:9px;font-family:'Svg Symbol';">
	<!ENTITY st12 "font-size:6px;font-family:'Svg Symbol';">
	<!ENTITY st13 "fill:none;stroke:#ff0000;stroke-linecap:round;stroke-linejoin:round;">
	<!-- Yellow fill  -->
	<!ENTITY st14 "fill:#FFFF00;stroke:#FFFF00; stroke-width:0.1;stroke-linecap:round;stroke-linejoin:round;">
	<!ENTITY st15 "font-size:6px;font-family:'MS-PGothic';adobe-font-script:japanese;">
	<!ENTITY st16 "1.00 0.00 0.00 1.00">
	<!ENTITY st17 "0.00 -1.00 1.00 0.00">
	<!ENTITY st18 "font-size:6px;font-family:'Arial';">
	<!ENTITY st19 "font-size:9px;font-family:'Arial';">
	<!ENTITY st20 "font-size:6px;font-family:'MS-PGothic','MS PGothic';adobe-font-script:japanese;">
	<!ENTITY st21 "font-size:7px;font-family:'MS-PGothic','MS PGothic';adobe-font-script:japanese;">
	<!ATTLIST svg
		xmlns:ewd CDATA #FIXED "http://shcl.co.jp/ewd"
		xmlns:a CDATA #FIXED "http://ns.adobe.com/AdobeSVGViewerExtensions/3.0/"
		ewd:ver CDATA #IMPLIED
	>
	<!ATTLIST a
		ewd:lineID CDATA #IMPLIED
		ewd:groupID CDATA #IMPLIED
		ewd:figtype CDATA #IMPLIED
		ewd:code CDATA #IMPLIED
		ewd:figID CDATA #IMPLIED
		ewd:pinNo CDATA #IMPLIED
		ewd:comment CDATA #IMPLIED >
	<!ATTLIST g
		ewd:lineID CDATA #IMPLIED
		ewd:groupID CDATA #IMPLIED
		ewd:figtype CDATA #IMPLIED
		ewd:code CDATA #IMPLIED
		ewd:figID CDATA #IMPLIED
		ewd:pinNo CDATA #IMPLIED
		ewd:comment CDATA #IMPLIED >
	<!ATTLIST text
		ewd:textID CDATA #IMPLIED >
	<!ATTLIST title
		ewd:textID CDATA #IMPLIED >
]>
<!-- Generator: Shintec Hozumi YS   -->
<svg onload="call_execInitLoadProc_svg('system')" style="overflow:visible;  enable-background:new 0 0 1879.455 710.000" viewBox="0 0 1879.455 710.000" height="710.000" width="1879.455" xml:space="preserve" ewd:ver="2.3.1.16" xmlns="&ns_svg;" xmlns:a="http://ns.adobe.com/AdobeSVGViewerExtensions/3.0/" xmlns:ewd="http://shcl.co.jp/ewd" xmlns:xlink="&ns_xlink;"><script type="text/javascript" xlink:href="../../../../../system/js/ewd/fig/svgfig.js" xmlns:xlink="http://www.w3.org/1999/xlink" />
<g id="ewd_top"><a ewd:figtype="rb" style="cursor:pointer;" ewd:code="FUSE13" ewd:figID="1"><path style="fill:#CCECF4;stroke:#000000; stroke-width:0; stroke-linecap:round;stroke-linejoin:round; " d=" M   633.14,   350.23  L   633.14,   392.72  L   658.64,   392.72  L   658.64,   350.23  L   633.14,   350.23 " /></a><a ewd:figtype="rb" style="cursor:pointer;" ewd:code="FUSE10" ewd:figID="2"><path style="fill:#CCECF4;stroke:#000000; stroke-width:0; stroke-linecap:round;stroke-linejoin:round; " d=" M   692.63,   350.23  L   692.63,   392.72  L   718.13,   392.72  L   718.13,   350.23  L   692.63,   350.23 " /></a><a ewd:figtype="rb" style="cursor:pointer;" ewd:code="FUSE11" ewd:figID="3"><path style="fill:#CCECF4;stroke:#000000; stroke-width:0; stroke-linecap:round;stroke-linejoin:round; " d=" M   743.63,   350.23  L   743.63,   392.72  L   769.12,   392.72  L   769.12,   350.23  L   743.63,   350.23 " /></a><a ewd:figtype="conn" style="cursor:pointer;" ewd:code="I36" ewd:figID="4"><path style="fill:#CCECF4;stroke:#000000; stroke-width:1.133; stroke-linecap:round;stroke-linejoin:round; " d=" M   195.47,   537.20  L   246.46,   537.20  L   246.46,   477.71  L   195.47,   477.71  L   195.47,   537.20 " /><title ewd:textID="23">Headlight Assembly RH</title></a><a ewd:figtype="conn" style="cursor:pointer;" ewd:code="I96,I107" ewd:figID="5"><path style="fill:#CCECF4;stroke:#000000; stroke-width:1.133; stroke-linecap:round;stroke-linejoin:round; " d=" M   101.98,   375.72  L   169.97,   375.72  L   169.97,   358.73  L   101.98,   358.73  L   101.98,   375.72 " /><title ewd:textID="31">No. 12 Junction Connector , No. 20 Junction Connector</title></a><a ewd:figtype="rb" style="cursor:pointer;" ewd:code="FUSE59" ewd:figID="6"><path style="fill:#CCECF4;stroke:#000000; stroke-width:0; stroke-linecap:round;stroke-linejoin:round; " d=" M   845.61,    86.77  L   845.61,   129.26  L   871.10,   129.26  L   871.10,    86.77  L   845.61,    86.77 " /></a><a ewd:figtype="conn" style="cursor:pointer;" ewd:code="A22" ewd:figID="7"><path style="fill:#CCECF4;stroke:#000000; stroke-width:1.133; stroke-linecap:round;stroke-linejoin:round; " d=" M   356.94,   588.19  L   373.94,   588.19  L   373.94,   605.18  L   356.94,   605.18  L   356.94,   588.19 " /><title ewd:textID="29">No. 1 Junction Connector</title></a><a ewd:figtype="conn" style="cursor:pointer;" ewd:code="A1" ewd:figID="8"><path style="fill:#CCECF4;stroke:#000000; stroke-width:1.133; stroke-linecap:round;stroke-linejoin:round; " d=" M   339.94,   537.20  L   390.93,   537.20  L   390.93,   477.71  L   339.94,   477.71  L   339.94,   537.20 " /><title ewd:textID="22">Headlight Assembly LH</title></a><a ewd:figtype="rb" style="cursor:pointer;" ewd:code="2" ewd:figID="9"><path style="fill:#CCECF4;stroke:#000000; stroke-width:0; stroke-linecap:round;stroke-linejoin:round; " d=" M   781.87,   562.69  L   824.36,   562.69  L   824.36,   596.69  L   781.87,   596.69  L   781.87,   562.69 " /></a><a ewd:figtype="rb" style="cursor:pointer;" ewd:code="2" ewd:figID="10"><path style="fill:#CCECF4;stroke:#000000; stroke-width:0; stroke-linecap:round;stroke-linejoin:round; " d=" M   917.85,   562.69  L   875.35,   562.69  L   875.35,   596.69  L   917.85,   596.69  L   917.85,   562.69 " /></a><a ewd:figtype="conn" style="cursor:pointer;" ewd:code="L53" ewd:figID="11"><path style="fill:#CCECF4;stroke:#000000; stroke-width:1.133; stroke-linecap:round;stroke-linejoin:round; " d=" M  1283.29,   622.18  L  1300.28,   622.18  L  1300.28,   639.18  L  1283.29,   639.18  L  1283.29,   622.18 " /><title ewd:textID="36">No. 31 Junction Connector</title></a><a ewd:figtype="rb" style="cursor:pointer;" ewd:code="FUSE12" ewd:figID="12"><path style="fill:#CCECF4;stroke:#000000; stroke-width:0; stroke-linecap:round;stroke-linejoin:round; " d=" M   582.15,   350.23  L   582.15,   392.72  L   607.65,   392.72  L   607.65,   350.23  L   582.15,   350.23 " /></a><a ewd:figtype="conn" style="cursor:pointer;" ewd:code="L32,L34" ewd:figID="13"><path style="fill:#CCECF4;stroke:#000000; stroke-width:1.133; stroke-linecap:round;stroke-linejoin:round; " d=" M  1266.29,   290.74  L  1317.28,   290.74  L  1317.28,   273.74  L  1266.29,   273.74  L  1266.29,   290.74 " /><title ewd:textID="34">No. 24 Junction Connector , No. 26 Junction Connector</title></a><a ewd:figtype="conn" style="cursor:pointer;" ewd:code="L24" ewd:figID="14"><path style="fill:#CCECF4;stroke:#000000; stroke-width:1.133; stroke-linecap:round;stroke-linejoin:round; " d=" M  1172.80,   528.70  L  1521.25,   528.70  L  1521.25,   392.72  L  1172.80,   392.72  L  1172.80,   528.70 " /><title ewd:textID="24">Headlight Dimmer Switch Assembly</title></a><a ewd:figtype="conn" style="cursor:pointer;" ewd:code="L25" ewd:figID="15"><path style="fill:#CCECF4;stroke:#000000; stroke-width:1.133; stroke-linecap:round;stroke-linejoin:round; " d=" M  1640.23,   350.23  L  1716.71,   350.23  L  1716.71,   180.26  L  1640.23,   180.26  L  1640.23,   350.23 " /><title ewd:textID="16">Combination Meter Assembly</title></a><a ewd:figtype="fuse" style="cursor:pointer;" ewd:code="FUSE12" ewd:figID="58"><path style="&st7; stroke-width:0;" d=" M   582.15,   350.23  L   582.15,   392.72  L   607.65,   392.72  L   607.65,   350.23  L   582.15,   350.23 " /></a><a ewd:figtype="fuse" style="cursor:pointer;" ewd:code="FUSE13" ewd:figID="59"><path style="&st7; stroke-width:0;" d=" M   633.14,   350.23  L   633.14,   392.72  L   658.64,   392.72  L   658.64,   350.23  L   633.14,   350.23 " /></a><a ewd:figtype="fuse" style="cursor:pointer;" ewd:code="FUSE10" ewd:figID="60"><path style="&st7; stroke-width:0;" d=" M   692.63,   350.23  L   692.63,   392.72  L   718.13,   392.72  L   718.13,   350.23  L   692.63,   350.23 " /></a><a ewd:figtype="fuse" style="cursor:pointer;" ewd:code="FUSE11" ewd:figID="61"><path style="&st7; stroke-width:0;" d=" M   743.63,   350.23  L   743.63,   392.72  L   769.12,   392.72  L   769.12,   350.23  L   743.63,   350.23 " /></a><a ewd:figtype="fuse" style="cursor:pointer;" ewd:code="FUSE59" ewd:figID="62"><path style="&st7; stroke-width:0;" d=" M   845.61,    86.77  L   845.61,   129.26  L   871.10,   129.26  L   871.10,    86.77  L   845.61,    86.77 " /></a><a ewd:comment="21" style="cursor:pointer;" ewd:lineID="1"><path style="stroke:#00A0C6;stroke-width: 5.10 ;&st6;" d=" M   110.48,   222.75  L   110.48,   340.60  " /><path style="stroke:#FFFFFF;stroke-width: 1.13 ;&st6;" d=" M   110.48,   222.75  L   110.48,   340.60  " /></a><a ewd:comment="22" style="cursor:pointer;" ewd:lineID="2"><path style="stroke:#F668B2;stroke-width: 5.10 ;&st6;" d=" M   110.48,   222.75  L   110.48,   231.25  L   101.98,   239.75  L    84.99,   239.75  L    84.99,   324.73  L   101.98,   324.73  L   110.48,   333.23  L   110.48,   340.60  " /></a><a ewd:comment="19" style="cursor:pointer;" ewd:lineID="3"><path style="stroke:#00A0C6;stroke-width: 5.10 ;&st6;" d=" M   110.48,   199.52  L   110.48,    61.28  L  1674.22,    61.28  L  1674.22,   171.19  " /><path style="stroke:#FFFFFF;stroke-width: 1.13 ;&st6;" d=" M   110.48,   199.52  L   110.48,    61.28  L  1674.22,    61.28  L  1674.22,   171.19  " /></a><a ewd:comment="20" style="cursor:pointer;" ewd:lineID="4"><path style="stroke:#F668B2;stroke-width: 5.10 ;&st6;" d=" M   110.48,   199.52  L   110.48,   197.25  L   101.98,   188.75  L    84.99,   188.75  L    84.99,    35.78  L  1699.72,    35.78  L  1699.72,   154.76  L  1682.72,   154.76  L  1674.22,   163.26  L  1674.22,   171.19  " /></a><a ewd:comment="1" style="cursor:pointer;" ewd:lineID="5"><path style="stroke:#000000;stroke-width: 5.10 ;&st6;" d=" M   220.96,   681.67  L   220.96,   613.68  " /><path style="stroke:#FFFFFF;stroke-width: 4.53 ;&st6;" d=" M   220.96,   681.67  L   220.96,   613.68  " /><path style="stroke:#000000;stroke-width: 1.13 ;&st6;" d=" M   220.96,   681.67  L   220.96,   613.68  " /></a><a style="cursor:pointer;" ewd:lineID="6"><path style="stroke:#000000;stroke-width: 5.10 ;&st6;" d=" M   220.96,   681.67  L   220.96,   673.17  L   229.46,   664.67  L   246.46,   664.67  L   246.46,   605.18  L   263.46,   605.18  " /><path style="stroke:#FFFFFF;stroke-width: 4.53 ;&st6;" d=" M   220.96,   681.67  L   220.96,   673.17  L   229.46,   664.67  L   246.46,   664.67  L   246.46,   605.18  L   263.46,   605.18  " /><path style="stroke:#000000;stroke-width: 1.13 ;&st6;" d=" M   220.96,   681.67  L   220.96,   673.17  L   229.46,   664.67  L   246.46,   664.67  L   246.46,   605.18  L   263.46,   605.18  " /></a><a ewd:comment="1" style="cursor:pointer;" ewd:lineID="7"><path style="stroke:#000000;stroke-width: 5.10 ;&st6;" d=" M   220.96,   537.20  L   220.96,   596.69  " /><path style="stroke:#FFFFFF;stroke-width: 4.53 ;&st6;" d=" M   220.96,   537.20  L   220.96,   596.69  " /><path style="stroke:#000000;stroke-width: 1.13 ;&st6;" d=" M   220.96,   537.20  L   220.96,   596.69  " /></a><a ewd:comment="2" style="cursor:pointer;" ewd:lineID="8"><path style="stroke:#000000;stroke-width: 5.10 ;&st6;" d=" M   220.96,   537.20  L   220.96,   545.69  L   229.46,   554.19  L   271.95,   554.19  L   271.95,   596.69  " /><path style="stroke:#FFFFFF;stroke-width: 4.53 ;&st6;" d=" M   220.96,   537.20  L   220.96,   545.69  L   229.46,   554.19  L   271.95,   554.19  L   271.95,   596.69  " /><path style="stroke:#000000;stroke-width: 1.13 ;&st6;" d=" M   220.96,   537.20  L   220.96,   545.69  L   229.46,   554.19  L   271.95,   554.19  L   271.95,   596.69  " /></a><a ewd:comment="9,22" style="cursor:pointer;" ewd:lineID="9"><path style="stroke:#000000;stroke-width: 5.10 ;&st6;" d=" M   229.46,   477.71  L   229.46,   469.21  L   237.96,   460.71  L   254.96,   460.71  L   254.96,   222.75  L   628.89,   222.75  L   628.89,   290.74  L   645.89,   307.73  L   645.89,   316.23  " /></a><a ewd:comment="2" style="cursor:pointer;" ewd:lineID="10"><path style="stroke:#000000;stroke-width: 5.10 ;&st6;" d=" M   271.95,   681.67  L   271.95,   613.68  " /><path style="stroke:#FFFFFF;stroke-width: 4.53 ;&st6;" d=" M   271.95,   681.67  L   271.95,   613.68  " /><path style="stroke:#000000;stroke-width: 1.13 ;&st6;" d=" M   271.95,   681.67  L   271.95,   613.68  " /></a><a style="cursor:pointer;" ewd:lineID="11"><path style="stroke:#FF0000;stroke-width: 5.10 ;&st6;" d=" M   356.94,   435.21  L   356.94,   477.71  " /><path style="stroke:#FFFFFF;stroke-width: 2.27 ;&st6;" d=" M   356.94,   435.21  L   356.94,   477.71  " /><path style="stroke:#FFE600;stroke-width: 1.13 ;&st6;" d=" M   356.94,   435.21  L   356.94,   477.71  " /></a><a style="cursor:pointer;" ewd:lineID="12"><path style="stroke:#FF0000;stroke-width: 5.10 ;&st6;" d=" M   356.94,   420.20  L   356.94,   409.72  L   161.47,   409.72  L   161.47,   393.85  " /><path style="stroke:#FFFFFF;stroke-width: 2.27 ;&st6;" d=" M   356.94,   420.20  L   356.94,   409.72  L   161.47,   409.72  L   161.47,   393.85  " /><path style="stroke:#FFE600;stroke-width: 1.13 ;&st6;" d=" M   356.94,   420.20  L   356.94,   409.72  L   161.47,   409.72  L   161.47,   393.85  " /></a><a style="cursor:pointer;" ewd:lineID="13"><path style="stroke:#000000;stroke-width: 5.10 ;&st6;" d=" M   365.44,   632.38  L   365.44,   681.67  " /><path style="stroke:#FFFFFF;stroke-width: 4.53 ;&st6;" d=" M   365.44,   632.38  L   365.44,   681.67  " /><path style="stroke:#000000;stroke-width: 1.13 ;&st6;" d=" M   365.44,   632.38  L   365.44,   681.67  " /></a><a style="cursor:pointer;" ewd:lineID="14"><path style="stroke:#000000;stroke-width: 5.10 ;&st6;" d=" M   365.44,   537.20  L   365.44,   579.12  " /><path style="stroke:#FFFFFF;stroke-width: 4.53 ;&st6;" d=" M   365.44,   537.20  L   365.44,   579.12  " /><path style="stroke:#000000;stroke-width: 1.13 ;&st6;" d=" M   365.44,   537.20  L   365.44,   579.12  " /></a><a style="cursor:pointer;" ewd:lineID="15"><path style="stroke:#00A0C6;stroke-width: 5.10 ;&st6;" d=" M   373.94,   477.71  L   373.94,   460.71  L   424.93,   460.71  L   424.93,   435.21  " /><path style="stroke:#FFFFFF;stroke-width: 1.13 ;&st6;" d=" M   373.94,   477.71  L   373.94,   460.71  L   424.93,   460.71  L   424.93,   435.21  " /></a><a ewd:comment="13,14,11" style="cursor:pointer;" ewd:lineID="16"><path style="stroke:#00A0C6;stroke-width: 5.10 ;&st6;" d=" M   399.43,   341.73  L   399.43,   409.72  L   416.43,   409.72  L   424.93,   418.22  L   424.93,   420.20  " /><path style="stroke:#FFFFFF;stroke-width: 1.13 ;&st6;" d=" M   399.43,   341.73  L   399.43,   409.72  L   416.43,   409.72  L   424.93,   418.22  L   424.93,   420.20  " /></a><a ewd:comment="13,14,11" style="cursor:pointer;" ewd:lineID="17"><path style="stroke:#00A0C6;stroke-width: 5.10 ;&st6;" d=" M   399.43,   324.73  L   399.43,   248.24  L   611.90,   248.24  L   611.90,   290.74  L   594.90,   307.73  L   594.90,   316.23  " /><path style="stroke:#FFFFFF;stroke-width: 1.13 ;&st6;" d=" M   399.43,   324.73  L   399.43,   248.24  L   611.90,   248.24  L   611.90,   290.74  L   594.90,   307.73  L   594.90,   316.23  " /></a><a ewd:comment="9,22" style="cursor:pointer;" ewd:lineID="18"><path style="stroke:#00A0C6;stroke-width: 5.10 ;&st6;" d=" M   424.93,   420.48  L   424.93,   418.22  L   433.43,   409.72  L   450.42,   409.72  L   450.42,   299.24  L   586.40,   299.24  L   594.90,   307.73  L   594.90,   316.23  " /></a><a ewd:comment="13,14,12" style="cursor:pointer;" ewd:lineID="19"><path style="stroke:#00A0C6;stroke-width: 5.10 ;&st6;" d=" M   424.93,   420.48  L   424.93,   273.74  L   594.90,   273.74  L   594.90,   316.23  " /><path style="stroke:#FFFFFF;stroke-width: 1.13 ;&st6;" d=" M   424.93,   420.48  L   424.93,   273.74  L   594.90,   273.74  L   594.90,   316.23  " /></a><a style="cursor:pointer;" ewd:lineID="20"><path style="stroke:#000000;stroke-width: 5.10 ;&st6;" d=" M   645.89,   435.21  L   645.89,   486.20  L   756.37,   486.20  L   756.37,   528.70  " /><path style="stroke:#FFFFFF;stroke-width: 2.27 ;&st6;" d=" M   645.89,   435.21  L   645.89,   486.20  L   756.37,   486.20  L   756.37,   528.70  " /><path style="stroke:#00A0C6;stroke-width: 1.13 ;&st6;" d=" M   645.89,   435.21  L   645.89,   486.20  L   756.37,   486.20  L   756.37,   528.70  " /></a><a ewd:comment="21,22,23" style="cursor:pointer;" ewd:lineID="21"><path style="stroke:#FF0000;stroke-width: 5.10 ;&st6;" d=" M   645.89,   316.23  L   645.89,   205.75  L   229.46,   205.75  L   229.46,   477.71  " /><path style="stroke:#FFFFFF;stroke-width: 2.27 ;&st6;" d=" M   645.89,   316.23  L   645.89,   205.75  L   229.46,   205.75  L   229.46,   477.71  " /><path style="stroke:#000000;stroke-width: 1.13 ;&st6;" d=" M   645.89,   316.23  L   645.89,   205.75  L   229.46,   205.75  L   229.46,   477.71  " /></a><a style="cursor:pointer;" ewd:lineID="22"><path style="stroke:#FF0000;stroke-width: 5.10 ;&st6;" d=" M   705.38,   316.23  L   705.38,   171.76  L   161.47,   171.76  L   161.47,   340.60  " /><path style="stroke:#FFFFFF;stroke-width: 2.27 ;&st6;" d=" M   705.38,   316.23  L   705.38,   171.76  L   161.47,   171.76  L   161.47,   340.60  " /><path style="stroke:#FFE600;stroke-width: 1.13 ;&st6;" d=" M   705.38,   316.23  L   705.38,   171.76  L   161.47,   171.76  L   161.47,   340.60  " /></a><a style="cursor:pointer;" ewd:lineID="23"><path style="stroke:#000000;stroke-width: 5.10 ;&st6;" d=" M   756.37,   435.21  L   756.37,   460.71  L   730.88,   460.71  L   730.88,   647.68  L   790.37,   647.68  L   790.37,   630.68  " /><path style="stroke:#FFFFFF;stroke-width: 4.53 ;&st6;" d=" M   756.37,   435.21  L   756.37,   460.71  L   730.88,   460.71  L   730.88,   647.68  L   790.37,   647.68  L   790.37,   630.68  " /><path style="stroke:#FF0000;stroke-width: 1.13 ;&st6;" d=" M   756.37,   435.21  L   756.37,   460.71  L   730.88,   460.71  L   730.88,   647.68  L   790.37,   647.68  L   790.37,   630.68  " /></a><a style="cursor:pointer;" ewd:lineID="24"><path style="stroke:#00A0C6;stroke-width: 5.10 ;&st6;" d=" M   756.37,   316.23  L   756.37,   188.75  L   212.46,   188.75  L   212.46,   477.71  " /><path style="stroke:#FFFFFF;stroke-width: 1.13 ;&st6;" d=" M   756.37,   316.23  L   756.37,   188.75  L   212.46,   188.75  L   212.46,   477.71  " /></a><a style="cursor:pointer;" ewd:lineID="25"><path style="stroke:#00A0C6;stroke-width: 5.10 ;&st6;" d=" M   790.37,   528.70  L   790.37,   486.20  L   807.37,   486.20  " /><path style="stroke:#FFFFFF;stroke-width: 2.27 ;&st6;" d=" M   790.37,   528.70  L   790.37,   486.20  L   807.37,   486.20  " /><path style="stroke:#FF0000;stroke-width: 1.13 ;&st6;" d=" M   790.37,   528.70  L   790.37,   486.20  L   807.37,   486.20  " /></a><a style="cursor:pointer;" ewd:lineID="26"><path style="stroke:#00A0C6;stroke-width: 5.10 ;&st6;" d=" M   815.86,   630.68  L   815.86,   690.17  L  1113.31,   690.17  L  1113.31,   103.77  L  1461.76,   103.77  L  1461.76,   171.76  " /></a><a style="cursor:pointer;" ewd:lineID="27"><path style="stroke:#00A0C6;stroke-width: 5.10 ;&st6;" d=" M   815.86,   528.70  L   815.86,   494.70  " /><path style="stroke:#FFFFFF;stroke-width: 2.27 ;&st6;" d=" M   815.86,   528.70  L   815.86,   494.70  " /><path style="stroke:#FF0000;stroke-width: 1.13 ;&st6;" d=" M   815.86,   528.70  L   815.86,   494.70  " /></a><a style="cursor:pointer;" ewd:lineID="28"><path style="stroke:#00A0C6;stroke-width: 5.10 ;&st6;" d=" M   824.36,   486.20  L   883.85,   486.20  L   883.85,   528.70  " /><path style="stroke:#FFFFFF;stroke-width: 2.27 ;&st6;" d=" M   824.36,   486.20  L   883.85,   486.20  L   883.85,   528.70  " /><path style="stroke:#FF0000;stroke-width: 1.13 ;&st6;" d=" M   824.36,   486.20  L   883.85,   486.20  L   883.85,   528.70  " /></a><a style="cursor:pointer;" ewd:lineID="29"><path style="stroke:#FF0000;stroke-width: 5.10 ;&st6;" d=" M   858.36,   220.48  L   858.36,   452.21  " /></a><a style="cursor:pointer;" ewd:lineID="30"><path style="stroke:#FF0000;stroke-width: 5.10 ;&st6;" d=" M   858.36,   205.75  L   858.36,   163.26  " /></a><a style="cursor:pointer;" ewd:lineID="31"><path style="stroke:#FF0000;stroke-width: 5.10 ;&st6;" d=" M   883.85,   630.68  L   883.85,   647.68  L   858.36,   647.68  L   858.36,   469.21  " /></a><a ewd:comment="22" style="cursor:pointer;" ewd:lineID="32"><path style="stroke:#000000;stroke-width: 5.10 ;&st6;" d=" M   909.35,   630.68  L   909.35,   664.67  L   985.84,   664.67  L   985.84,   154.76  L  1266.29,   154.76  L  1274.79,   163.26  L  1274.79,   171.76  " /></a><a style="cursor:pointer;" ewd:lineID="33"><path style="stroke:#FF0000;stroke-width: 5.10 ;&st6;" d=" M   909.35,   528.70  L   909.35,   460.71  L   866.86,   460.71  " /></a><a ewd:comment="19" style="cursor:pointer;" ewd:lineID="34"><path style="stroke:#FF0000;stroke-width: 5.10 ;&st6;" d=" M  1274.79,   308.87  L  1274.79,   374.59  " /><path style="stroke:#FFFFFF;stroke-width: 1.13 ;&st6;" d=" M  1274.79,   308.87  L  1274.79,   374.59  "/></a><a ewd:comment="20" style="cursor:pointer;" ewd:lineID="35"> d=" M  1274.79,   308.87  L  1274.79,   316.23  L  1266.29,   324.73  L  1249.29,   324.73  L  1249.29,   358.73  L  1266.29,   358.73  L  1274.79,   367.22  L  1274.79,   374.59 
	
		<path style="stroke:#000000;stroke-width: 5.10 ;&st6;" d=" M  1274.79,   308.87  L  1274.79,   316.23  L  1266.29,   324.73  L  1249.29,   324.73  L  1249.29,   358.73  L  1266.29,   358.73  L  1274.79,   367.22  L  1274.79,   374.59  " /><path style="stroke:#FFFFFF;stroke-width: 4.53 ;&st6;" d=" M  1274.79,   308.87  L  1274.79,   316.23  L  1266.29,   324.73  L  1249.29,   324.73  L  1249.29,   358.73  L  1266.29,   358.73  L  1274.79,   367.22  L  1274.79,   374.59  " /></a><a ewd:comment="19" style="cursor:pointer;" ewd:lineID="36"><path style="stroke:#FF0000;stroke-width: 5.10 ;&st6;" d=" M  1274.79,   255.61  L  1274.79,   195.27  " /><path style="stroke:#FFFFFF;stroke-width: 1.13 ;&st6;" d=" M  1274.79,   255.61  L  1274.79,   195.27  "/></a><a ewd:comment="20" style="cursor:pointer;" ewd:lineID="37"> d=" M  1274.79,   195.27  L  1274.79,   197.25  L  1266.29,   205.75  L  1249.29,   205.75  L  1249.29,   239.75  L  1266.29,   239.75  L  1274.79,   248.24  L  1274.79,   255.61 
	
		<path style="stroke:#000000;stroke-width: 5.10 ;&st6;" d=" M  1274.79,   195.27  L  1274.79,   197.25  L  1266.29,   205.75  L  1249.29,   205.75  L  1249.29,   239.75  L  1266.29,   239.75  L  1274.79,   248.24  L  1274.79,   255.61  " /><path style="stroke:#FFFFFF;stroke-width: 4.53 ;&st6;" d=" M  1274.79,   195.27  L  1274.79,   197.25  L  1266.29,   205.75  L  1249.29,   205.75  L  1249.29,   239.75  L  1266.29,   239.75  L  1274.79,   248.24  L  1274.79,   255.61  " /></a><a ewd:comment="21" style="cursor:pointer;" ewd:lineID="38"><path style="stroke:#FF0000;stroke-width: 5.10 ;&st6;" d=" M  1274.79,   171.76  L  1274.79,   129.26  L   960.34,   129.26  L   960.34,   647.68  L   917.85,   647.68  L   909.35,   639.18  L   909.35,   630.68  " /><path style="stroke:#FFFFFF;stroke-width: 1.13 ;&st6;" d=" M  1274.79,   171.76  L  1274.79,   129.26  L   960.34,   129.26  L   960.34,   647.68  L   917.85,   647.68  L   909.35,   639.18  L   909.35,   630.68  " /></a><a style="cursor:pointer;" ewd:lineID="39"><path style="stroke:#000000;stroke-width: 5.10 ;&st6;" d=" M  1283.29,   630.68  L  1249.29,   630.68  L  1249.29,   681.67  " /><path style="stroke:#FFFFFF;stroke-width: 4.53 ;&st6;" d=" M  1283.29,   630.68  L  1249.29,   630.68  L  1249.29,   681.67  " /><path style="stroke:#000000;stroke-width: 1.13 ;&st6;" d=" M  1283.29,   630.68  L  1249.29,   630.68  L  1249.29,   681.67  " /></a><a style="cursor:pointer;" ewd:lineID="40"><path style="stroke:#000000;stroke-width: 5.10 ;&st6;" d=" M  1291.78,   639.18  L  1291.78,   681.67  " /><path style="stroke:#FFFFFF;stroke-width: 4.53 ;&st6;" d=" M  1291.78,   639.18  L  1291.78,   681.67  " /><path style="stroke:#000000;stroke-width: 1.13 ;&st6;" d=" M  1291.78,   639.18  L  1291.78,   681.67  " /></a><a style="cursor:pointer;" ewd:lineID="41"><path style="stroke:#000000;stroke-width: 5.10 ;&st6;" d=" M  1291.78,   622.18  L  1291.78,   588.19  " /><path style="stroke:#FFFFFF;stroke-width: 4.53 ;&st6;" d=" M  1291.78,   622.18  L  1291.78,   588.19  " /><path style="stroke:#000000;stroke-width: 1.13 ;&st6;" d=" M  1291.78,   622.18  L  1291.78,   588.19  " /></a><a style="cursor:pointer;" ewd:lineID="42"><path style="stroke:#000000;stroke-width: 5.10 ;&st6;" d=" M  1291.78,   571.19  L  1291.78,   546.83  " /><path style="stroke:#FFFFFF;stroke-width: 4.53 ;&st6;" d=" M  1291.78,   571.19  L  1291.78,   546.83  " /><path style="stroke:#000000;stroke-width: 1.13 ;&st6;" d=" M  1291.78,   571.19  L  1291.78,   546.83  "/></a><a ewd:comment="20" style="cursor:pointer;" ewd:lineID="43"> d=" M  1308.78,   308.87  L  1308.78,   358.73  L  1385.27,   358.73  L  1393.77,   367.22  L  1393.77,   374.59 
	
		<path style="stroke:#000000;stroke-width: 5.10 ;&st6;" d=" M  1308.78,   308.87  L  1308.78,   358.73  L  1385.27,   358.73  L  1393.77,   367.22  L  1393.77,   374.59  " /><path style="stroke:#FFFFFF;stroke-width: 4.53 ;&st6;" d=" M  1308.78,   308.87  L  1308.78,   358.73  L  1385.27,   358.73  L  1393.77,   367.22  L  1393.77,   374.59  " /></a><a ewd:comment="19" style="cursor:pointer;" ewd:lineID="44"><path style="stroke:#FF0000;stroke-width: 5.10 ;&st6;" d=" M  1393.77,   374.59  L  1393.77,   324.73  L  1317.28,   324.73  L  1308.78,   316.23  L  1308.78,   308.87  " /><path style="stroke:#FFFFFF;stroke-width: 1.13 ;&st6;" d=" M  1393.77,   374.59  L  1393.77,   324.73  L  1317.28,   324.73  L  1308.78,   316.23  L  1308.78,   308.87  " /></a><a style="cursor:pointer;" ewd:lineID="45"><path style="stroke:#00A0C6;stroke-width: 5.10 ;&st6;" d=" M  1461.76,   374.59  L  1461.76,   194.99  " /></a><a ewd:comment="5" style="cursor:pointer;" ewd:lineID="46"><path style="stroke:#992903;stroke-width: 5.10 ;&st6;" d=" M  1623.23,   588.19  L  1623.23,   681.67  " /></a><a ewd:comment="5" style="cursor:pointer;" ewd:lineID="47"><path style="stroke:#992903;stroke-width: 5.10 ;&st6;" d=" M  1623.23,   573.46  L  1623.23,   545.69  L  1665.72,   545.69  L  1674.22,   537.20  L  1674.22,   528.70  " /></a><a ewd:comment="4" style="cursor:pointer;" ewd:lineID="48"><path style="stroke:#992903;stroke-width: 5.10 ;&st6;" d=" M  1674.22,   647.68  L  1674.22,   681.67  " /></a><a ewd:comment="4" style="cursor:pointer;" ewd:lineID="49"><path style="stroke:#992903;stroke-width: 5.10 ;&st6;" d=" M  1674.22,   594.42  L  1674.22,   630.68  " /></a><a ewd:comment="4" style="cursor:pointer;" ewd:lineID="50"><path style="stroke:#992903;stroke-width: 5.10 ;&st6;" d=" M  1674.22,   579.69  L  1674.22,   528.70  " /></a><a ewd:comment="9,14,15" style="cursor:pointer;" ewd:lineID="51"><path style="stroke:#992903;stroke-width: 5.10 ;&st6;" d=" M  1674.22,   488.47  L  1674.22,   409.72  " /></a><a ewd:comment="5,18" style="cursor:pointer;" ewd:lineID="52"><path style="stroke:#992903;stroke-width: 5.10 ;&st6;" d=" M  1674.22,   488.47  L  1674.22,   486.20  L  1682.72,   477.71  L  1759.21,   477.71  L  1759.21,   443.71  L  1770.19,   432.73  " /></a><a ewd:comment="3,5,18" style="cursor:pointer;" ewd:lineID="53"><path style="stroke:#992903;stroke-width: 5.10 ;&st6;" d=" M  1674.22,   409.72  L  1674.22,   418.22  L  1682.72,   426.71  L  1767.70,   426.71  " /></a><a style="cursor:pointer;" ewd:lineID="54"><path style="stroke:#992903;stroke-width: 5.10 ;&st6;" d=" M  1674.22,   386.49  L  1674.22,   359.29  " /></a><a ewd:comment="3" style="cursor:pointer;" ewd:lineID="55"><path style="stroke:#992903;stroke-width: 5.10 ;&st6;" d=" M  1776.20,   647.68  L  1776.20,   681.67  " /></a><a ewd:comment="3" style="cursor:pointer;" ewd:lineID="56"><path style="stroke:#992903;stroke-width: 5.10 ;&st6;" d=" M  1776.20,   594.42  L  1776.20,   630.68  " /></a><a ewd:comment="3" style="cursor:pointer;" ewd:lineID="57"><path style="stroke:#992903;stroke-width: 5.10 ;&st6;" d=" M  1776.20,   571.19  L  1776.20,   435.21  " /></a><a ewd:comment="3" style="cursor:pointer;" ewd:lineID="58"><path style="stroke:#992903;stroke-width: 5.10 ;&st6;" d=" M  1784.70,   426.71  L  1827.19,   426.71  L  1827.19,   496.97  " /></a><a ewd:comment="3" style="cursor:pointer;" ewd:lineID="59"><path style="stroke:#992903;stroke-width: 5.10 ;&st6;" d=" M  1827.19,   511.70  L  1827.19,   554.19  L  1784.70,   554.19  L  1776.20,   562.69  L  1776.20,   571.19  " /></a><a ewd:figtype="w2w" style="cursor:pointer;" ewd:pinNo="58" ewd:code="IL5" ewd:figID="21"><path style="&st2;" d=" M   118.98,   214.25  L   101.98,   214.25  L   101.98,   222.75  L   118.98,   222.75  L   118.98,   214.25 " /><text style="&st8;" transform="matrix(&st16;  106.46  220.62 )"><tspan x="0" style="&st18;" y="0">IL5</tspan></text></a><a ewd:figtype="w2w" style="cursor:pointer;" ewd:pinNo="48" ewd:code="IL1" ewd:figID="22"><path style="&st2;" d=" M   118.98,   205.75  L   101.98,   205.75  L   101.98,   214.25  L   118.98,   214.25  L   118.98,   205.75 " /><text style="&st8;" transform="matrix(&st16;  106.46  212.12 )"><tspan x="0" style="&st18;" y="0">IL1</tspan></text></a><a ewd:figtype="w2w" style="cursor:pointer;" ewd:pinNo="4" ewd:code="AI3" ewd:figID="23"><path style="&st2;" d=" M   365.44,   426.71  L   348.44,   426.71  L   348.44,   435.21  L   365.44,   435.21  L   365.44,   426.71 " /><text style="&st8;" transform="matrix(&st16;  352.58  433.08 )"><tspan x="0" style="&st18;" y="0">AI3</tspan></text></a><a ewd:figtype="w2w" style="cursor:pointer;" ewd:pinNo="1" ewd:code="AI3" ewd:figID="24"><path style="&st2;" d=" M   433.43,   426.71  L   416.43,   426.71  L   416.43,   435.21  L   433.43,   435.21  L   433.43,   426.71 " /><text style="&st8;" transform="matrix(&st16;  420.56  433.08 )"><tspan x="0" style="&st18;" y="0">AI3</tspan></text></a><a ewd:figtype="w2w" style="cursor:pointer;" ewd:pinNo="4" ewd:code="AI4" ewd:figID="25"><path style="&st2;" d=" M   866.86,   205.75  L   849.86,   205.75  L   849.86,   214.25  L   866.86,   214.25  L   866.86,   205.75 " /><text style="&st8;" transform="matrix(&st16;  853.99  212.12 )"><tspan x="0" style="&st18;" y="0">AI4</tspan></text></a><a ewd:figtype="w2w" style="cursor:pointer;" ewd:pinNo="59" ewd:code="IL5" ewd:figID="26"><path style="&st2;" d=" M  1283.29,   180.26  L  1266.29,   180.26  L  1266.29,   188.75  L  1283.29,   188.75  L  1283.29,   180.26 " /><text style="&st8;" transform="matrix(&st16;  1270.76  186.62 )"><tspan x="0" style="&st18;" y="0">IL5</tspan></text></a><a ewd:figtype="w2w" style="cursor:pointer;" ewd:pinNo="49" ewd:code="IL1" ewd:figID="27"><path style="&st2;" d=" M  1283.29,   171.76  L  1266.29,   171.76  L  1266.29,   180.26  L  1283.29,   180.26  L  1283.29,   171.76 " /><text style="&st8;" transform="matrix(&st16;  1270.76  178.13 )"><tspan x="0" style="&st18;" y="0">IL1</tspan></text></a><a ewd:figtype="w2w" style="cursor:pointer;" ewd:pinNo="60" ewd:code="IL5" ewd:figID="28"><path style="&st2;" d=" M  1470.25,   180.26  L  1453.26,   180.26  L  1453.26,   188.75  L  1470.25,   188.75  L  1470.25,   180.26 " /><text style="&st8;" transform="matrix(&st16;  1457.73  186.62 )"><tspan x="0" style="&st18;" y="0">IL5</tspan></text></a><a ewd:figtype="w2w" style="cursor:pointer;" ewd:pinNo="50" ewd:code="IL1" ewd:figID="29"><path style="&st2;" d=" M  1470.25,   171.76  L  1453.26,   171.76  L  1453.26,   180.26  L  1470.25,   180.26  L  1470.25,   171.76 " /><text style="&st8;" transform="matrix(&st16;  1457.73  178.13 )"><tspan x="0" style="&st18;" y="0">IL1</tspan></text></a><a ewd:figtype="w2w" style="cursor:pointer;" ewd:pinNo="17" ewd:code="CA4" ewd:figID="30"><path style="&st2;" d=" M  1631.73,   579.69  L  1614.73,   579.69  L  1614.73,   588.19  L  1631.73,   588.19  L  1631.73,   579.69 " /><text style="&st8;" transform="matrix(&st16;  1617.59  586.06 )"><tspan x="0" style="&st18;" y="0">CA4</tspan></text></a><a ewd:figtype="w2w" style="cursor:pointer;" ewd:pinNo="1" ewd:code="AC1" ewd:figID="31"><path style="&st2;" d=" M  1682.72,   579.69  L  1665.72,   579.69  L  1665.72,   588.19  L  1682.72,   588.19  L  1682.72,   579.69 " /><text style="&st8;" transform="matrix(&st16;  1668.58  586.06 )"><tspan x="0" style="&st18;" y="0">AC1</tspan></text></a><a ewd:figtype="w2w" style="cursor:pointer;" ewd:pinNo="55" ewd:code="AI3" ewd:figID="32"><path style="&st2;" d=" M  1682.72,   520.20  L  1665.72,   520.20  L  1665.72,   528.70  L  1682.72,   528.70  L  1682.72,   520.20 " /><text style="&st8;" transform="matrix(&st16;  1669.86  526.57 )"><tspan x="0" style="&st18;" y="0">AI3</tspan></text></a><a ewd:figtype="w2w" style="cursor:pointer;" ewd:pinNo="13" ewd:code="AI3" ewd:figID="33"><path style="&st2;" d=" M  1682.72,   511.70  L  1665.72,   511.70  L  1665.72,   520.20  L  1682.72,   520.20  L  1682.72,   511.70 " /><text style="&st8;" transform="matrix(&st16;  1669.86  518.07 )"><tspan x="0" style="&st18;" y="0">AI3</tspan></text></a><a ewd:figtype="w2w" style="cursor:pointer;" ewd:pinNo="22" ewd:code="AI3" ewd:figID="34"><path style="&st2;" d=" M  1682.72,   503.20  L  1665.72,   503.20  L  1665.72,   511.70  L  1682.72,   511.70  L  1682.72,   503.20 " /><text style="&st8;" transform="matrix(&st16;  1669.86  509.57 )"><tspan x="0" style="&st18;" y="0">AI3</tspan></text></a><a ewd:figtype="w2w" style="cursor:pointer;" ewd:pinNo="45" ewd:code="AI3" ewd:figID="35"><path style="&st2;" d=" M  1682.72,   494.70  L  1665.72,   494.70  L  1665.72,   503.20  L  1682.72,   503.20  L  1682.72,   494.70 " /><text style="&st8;" transform="matrix(&st16;  1669.86  501.07 )"><tspan x="0" style="&st18;" y="0">AI3</tspan></text></a><a ewd:figtype="w2w" style="cursor:pointer;" ewd:pinNo="14" ewd:code="IL6" ewd:figID="36"><path style="&st2;" d=" M  1682.72,   401.22  L  1665.72,   401.22  L  1665.72,   409.72  L  1682.72,   409.72  L  1682.72,   401.22 " /><text style="&st8;" transform="matrix(&st16;  1670.19  407.59 )"><tspan x="0" style="&st18;" y="0">IL6</tspan></text></a><a ewd:figtype="w2w" style="cursor:pointer;" ewd:pinNo="4" ewd:code="IL2" ewd:figID="37"><path style="&st2;" d=" M  1682.72,   392.72  L  1665.72,   392.72  L  1665.72,   401.22  L  1682.72,   401.22  L  1682.72,   392.72 " /><text style="&st8;" transform="matrix(&st16;  1670.19  399.09 )"><tspan x="0" style="&st18;" y="0">IL2</tspan></text></a><a ewd:figtype="w2w" style="cursor:pointer;" ewd:pinNo="9" ewd:code="AC5" ewd:figID="38"><path style="&st2;" d=" M  1784.70,   579.69  L  1767.70,   579.69  L  1767.70,   588.19  L  1784.70,   588.19  L  1784.70,   579.69 " /><text style="&st8;" transform="matrix(&st16;  1770.56  586.06 )"><tspan x="0" style="&st18;" y="0">AC5</tspan></text></a><a ewd:figtype="w2w" style="cursor:pointer;" ewd:pinNo="9" ewd:code="IC2" ewd:figID="39"><path style="&st2;" d=" M  1784.70,   571.19  L  1767.70,   571.19  L  1767.70,   579.69  L  1784.70,   579.69  L  1784.70,   571.19 " /><text style="&st8;" transform="matrix(&st16;  1771.69  577.56 )"><tspan x="0" style="&st18;" y="0">IC2</tspan></text></a><a ewd:figtype="w2w" style="cursor:pointer;" ewd:pinNo="56" ewd:code="AI3" ewd:figID="40"><path style="&st2;" d=" M  1835.69,   503.20  L  1818.70,   503.20  L  1818.70,   511.70  L  1835.69,   511.70  L  1835.69,   503.20 " /><text style="&st8;" transform="matrix(&st16;  1822.83  509.57 )"><tspan x="0" style="&st18;" y="0">AI3</tspan></text></a><a ewd:figtype="gp" style="cursor:pointer;" ewd:code="IE" ewd:figID="41"><path style="&st2;" d=" M   210.34,   681.67  L   231.59,   681.67  L   220.96,   697.25  L   210.34,   681.67 " /><text style="&st8;" transform="matrix(&st16;  218.22  689.46 )"><tspan x="0" style="&st18;" y="0">IE</tspan></text></a><a ewd:figtype="gp" style="cursor:pointer;" ewd:code="IG" ewd:figID="42"><path style="&st2;" d=" M   261.33,   681.67  L   282.58,   681.67  L   271.95,   697.25  L   261.33,   681.67 " /><text style="&st8;" transform="matrix(&st16;  268.91  689.46 )"><tspan x="0" style="&st18;" y="0">IG</tspan></text></a><a ewd:figtype="gp" style="cursor:pointer;" ewd:code="AA" ewd:figID="43"><path style="&st2;" d=" M   354.82,   681.67  L   376.06,   681.67  L   365.44,   697.25  L   354.82,   681.67 " /><text style="&st8;" transform="matrix(&st16;  361.53  689.46 )"><tspan x="0" style="&st18;" y="0">AA</tspan></text></a><a ewd:figtype="gp" style="cursor:pointer;" ewd:code="LB" ewd:figID="44"><path style="&st2;" d=" M  1238.67,   681.67  L  1259.91,   681.67  L  1249.29,   697.25  L  1238.67,   681.67 " /><text style="&st8;" transform="matrix(&st16;  1245.75  689.46 )"><tspan x="0" style="&st18;" y="0">LB</tspan></text></a><a ewd:figtype="gp" style="cursor:pointer;" ewd:code="LA" ewd:figID="45"><path style="&st2;" d=" M  1281.16,   681.67  L  1302.41,   681.67  L  1291.78,   697.25  L  1281.16,   681.67 " /><text style="&st8;" transform="matrix(&st16;  1288.25  689.46 )"><tspan x="0" style="&st18;" y="0">LA</tspan></text></a><a ewd:figtype="gp" style="cursor:pointer;" ewd:code="CE" ewd:figID="46"><path style="&st2;" d=" M  1612.61,   681.67  L  1633.85,   681.67  L  1623.23,   697.25  L  1612.61,   681.67 " /><text style="&st8;" transform="matrix(&st16;  1619.17  689.46 )"><tspan x="0" style="&st18;" y="0">CE</tspan></text></a><a ewd:figtype="gp" style="cursor:pointer;" ewd:code="CC" ewd:figID="47"><path style="&st2;" d=" M  1663.60,   681.67  L  1684.84,   681.67  L  1674.22,   697.25  L  1663.60,   681.67 " /><text style="&st8;" transform="matrix(&st16;  1670.01  689.46 )"><tspan x="0" style="&st18;" y="0">CC</tspan></text></a><a ewd:figtype="gp" style="cursor:pointer;" ewd:code="CA" ewd:figID="48"><path style="&st2;" d=" M  1765.58,   681.67  L  1786.83,   681.67  L  1776.20,   697.25  L  1765.58,   681.67 " /><text style="&st8;" transform="matrix(&st16;  1772.14  689.46 )"><tspan x="0" style="&st18;" y="0">CA</tspan></text></a><a ewd:figtype="sp" style="cursor:pointer;" ewd:code="SP75" ewd:figID="49"><path style="&st2;" d=" M   216.71,   596.69  L   225.21,   596.69  L   229.46,   600.93  L   229.46,   609.43  L   225.21,   613.68  L   216.71,   613.68  L   212.46,   609.43  L   212.46,   600.93  L   216.71,   596.69 " /></a><a ewd:figtype="sp" style="cursor:pointer;" ewd:code="SP64" ewd:figID="50"><path style="&st2;" d=" M   267.71,   596.69  L   276.20,   596.69  L   280.45,   600.93  L   280.45,   609.43  L   276.20,   613.68  L   267.71,   613.68  L   263.46,   609.43  L   263.46,   600.93  L   267.71,   596.69 " /></a><a ewd:figtype="sp" style="cursor:pointer;" ewd:code="SP68" ewd:figID="51"><path style="&st2;" d=" M   395.18,   324.73  L   403.68,   324.73  L   407.93,   328.98  L   407.93,   337.48  L   403.68,   341.73  L   395.18,   341.73  L   390.93,   337.48  L   390.93,   328.98  L   395.18,   324.73 " /></a><a ewd:figtype="sp" style="cursor:pointer;" ewd:code="SP80" ewd:figID="52"><path style="&st2;" d=" M   811.61,   477.71  L   820.11,   477.71  L   824.36,   481.95  L   824.36,   490.45  L   820.11,   494.70  L   811.61,   494.70  L   807.37,   490.45  L   807.37,   481.95  L   811.61,   477.71 " /></a><a ewd:figtype="sp" style="cursor:pointer;" ewd:code="SP70" ewd:figID="53"><path style="&st2;" d=" M   854.11,   452.21  L   862.61,   452.21  L   866.86,   456.46  L   866.86,   464.96  L   862.61,   469.21  L   854.11,   469.21  L   849.86,   464.96  L   849.86,   456.46  L   854.11,   452.21 " /></a><a ewd:figtype="sp" style="cursor:pointer;" ewd:code="SP82" ewd:figID="54"><path style="&st2;" d=" M  1287.53,   571.19  L  1296.03,   571.19  L  1300.28,   575.44  L  1300.28,   583.94  L  1296.03,   588.19  L  1287.53,   588.19  L  1283.29,   583.94  L  1283.29,   575.44  L  1287.53,   571.19 " /></a><a ewd:figtype="sp" style="cursor:pointer;" ewd:code="SP19" ewd:figID="55"><path style="&st2;" d=" M  1669.97,   630.68  L  1678.47,   630.68  L  1682.72,   634.93  L  1682.72,   643.43  L  1678.47,   647.68  L  1669.97,   647.68  L  1665.72,   643.43  L  1665.72,   634.93  L  1669.97,   630.68 " /></a><a ewd:figtype="sp" style="cursor:pointer;" ewd:code="SP19" ewd:figID="56"><path style="&st2;" d=" M  1771.95,   630.68  L  1780.45,   630.68  L  1784.70,   634.93  L  1784.70,   643.43  L  1780.45,   647.68  L  1771.95,   647.68  L  1767.70,   643.43  L  1767.70,   634.93  L  1771.95,   630.68 " /></a><a ewd:figtype="sp" style="cursor:pointer;" ewd:code="SP60" ewd:figID="57"><path style="&st2;" d=" M  1771.95,   418.22  L  1780.45,   418.22  L  1784.70,   422.46  L  1784.70,   430.96  L  1780.45,   435.21  L  1771.95,   435.21  L  1767.70,   430.96  L  1767.70,   422.46  L  1771.95,   418.22 "/></a></g></svg>
