<?xml version="1.0" encoding="utf-8"?>
<!DOCTYPE svg PUBLIC "-//W3C//DTD SVG 1.0//EN" "http://www.w3.org/TR/2001/REC-SVG-20010904/DTD/svg10.dtd"[
	<!ENTITY ns_flows "http://ns.adobe.com/Flows/1.0/">
	<!ENTITY ns_svg "http://www.w3.org/2000/svg">
	<!ENTITY ns_xlink "http://www.w3.org/1999/xlink">
	<!ENTITY st0 "font-size:7px;font-family:'MS-PGothic';adobe-font-script:japanese;">
	<!ENTITY st1 "font-size:6px;font-family:'ArialMT';">
	<!-- White fill  -->
	<!ENTITY st2 "fill:#FFFFFF;stroke:#000000; stroke-width:1.41;stroke-linecap:round;stroke-linejoin:round;">
	<!-- Yellow fill  -->
	<!ENTITY st3 "fill:#FFFFCC;stroke:#FFFFCC; stroke-width:0.1;stroke-linecap:round;stroke-linejoin:round;">
	<!-- Gray fill  -->
	<!ENTITY st4 "fill:#CCCCCC;stroke:#CCCCCC; stroke-width:0.1;stroke-linecap:round;stroke-linejoin:round;">
	<!-- Light-blue fill -->
	<!ENTITY st5 "fill:#CCECF4;stroke:#000000; stroke-width:1.133;stroke-linecap:round;stroke-linejoin:round;">
	<!ENTITY st6 "fill:none;stroke-linecap:butt; stroke-linejoin:round;">
	<!ENTITY st7 "fill:none;stroke:#000000;stroke-linecap:round;stroke-linejoin:round;">
	<!ENTITY st8 "enable-background:new    ;">
	<!-- Black fill -->
	<!ENTITY st9 "fill:#000000;stroke:#000000; stroke-linecap:round;stroke-linejoin:round;">
	<!-- SRS note   -->
	<!ENTITY st10 "font-size:9px;font-family:'ArialMT';">
	<!ENTITY st11 "font-size:9px;font-family:'Svg Symbol';">
	<!ENTITY st12 "font-size:6px;font-family:'Svg Symbol';">
	<!ENTITY st13 "fill:none;stroke:#ff0000;stroke-linecap:round;stroke-linejoin:round;">
	<!-- Yellow fill  -->
	<!ENTITY st14 "fill:#FFFF00;stroke:#FFFF00; stroke-width:0.1;stroke-linecap:round;stroke-linejoin:round;">
	<!ENTITY st15 "font-size:6px;font-family:'MS-PGothic';adobe-font-script:japanese;">
	<!ENTITY st16 "1.00 0.00 0.00 1.00">
	<!ENTITY st17 "0.00 -1.00 1.00 0.00">
	<!ENTITY st18 "font-size:6px;font-family:'Arial';">
	<!ENTITY st19 "font-size:9px;font-family:'Arial';">
	<!ENTITY st20 "font-size:6px;font-family:'MS-PGothic','MS PGothic';adobe-font-script:japanese;">
	<!ENTITY st21 "font-size:7px;font-family:'MS-PGothic','MS PGothic';adobe-font-script:japanese;">
	<!ATTLIST svg
		xmlns:ewd CDATA #FIXED "http://shcl.co.jp/ewd"
		xmlns:a CDATA #FIXED "http://ns.adobe.com/AdobeSVGViewerExtensions/3.0/"
		ewd:ver CDATA #IMPLIED
	>
	<!ATTLIST a
		ewd:lineID CDATA #IMPLIED
		ewd:groupID CDATA #IMPLIED
		ewd:figtype CDATA #IMPLIED
		ewd:code CDATA #IMPLIED
		ewd:figID CDATA #IMPLIED
		ewd:pinNo CDATA #IMPLIED
		ewd:comment CDATA #IMPLIED >
	<!ATTLIST g
		ewd:lineID CDATA #IMPLIED
		ewd:groupID CDATA #IMPLIED
		ewd:figtype CDATA #IMPLIED
		ewd:code CDATA #IMPLIED
		ewd:figID CDATA #IMPLIED
		ewd:pinNo CDATA #IMPLIED
		ewd:comment CDATA #IMPLIED >
	<!ATTLIST text
		ewd:textID CDATA #IMPLIED >
	<!ATTLIST title
		ewd:textID CDATA #IMPLIED >
]>
<!-- Generator: Shintec Hozumi YS   -->
<svg onload="call_execInitLoadProc_svg('system')" style="overflow:visible;  enable-background:new 0 0 2061.446 710.000" viewBox="0 0 2061.446 710.000" height="710.000" width="2061.446" xml:space="preserve" ewd:ver="2.3.1.16" xmlns="&ns_svg;" xmlns:a="http://ns.adobe.com/AdobeSVGViewerExtensions/3.0/" xmlns:ewd="http://shcl.co.jp/ewd" xmlns:xlink="&ns_xlink;">
<path style="stroke-width: 1.42 ;&st7;  " d=" M   659.36,   384.22  L   654.39,   389.19  " /><path style="stroke-width: 1.42 ;&st7;  " d=" M   666.42,   401.22  L   671.39,   396.25  " /><path style="stroke-width: 1.42 ;&st7;  " d=" M   654.39,   396.25  L   659.36,   401.22  " /><path style="stroke-width: 1.42 ;&st7;  " d=" M   671.39,   389.19  L   666.42,   384.22  " /><path style="stroke-width: 1.42 ;&st7;  " d=" M   671.39,   151.23  L   666.42,   146.26  " /><path style="stroke-width: 1.42 ;&st7;  " d=" M   565.88,   282.24  L   560.91,   287.21  " /><path style="stroke-width: 1.42 ;&st7;  " d=" M   572.93,   299.24  L   577.90,   294.27  " /><path style="stroke-width: 1.42 ;&st7;  " d=" M   560.91,   294.27  L   565.88,   299.24  " /><path style="stroke-width: 1.42 ;&st7;  " d=" M   577.90,   287.21  L   572.93,   282.24  " /><path style="stroke-width: 1.42 ;&st7;  " d=" M   654.39,   158.29  L   659.36,   163.26  " /><path style="stroke-width: 1.42 ;&st7;  " d=" M   666.42,   163.26  L   671.39,   158.29  " /><path style="stroke-width: 1.42 ;&st7;  " d=" M   659.36,   146.26  L   654.39,   151.23  " /><path style="stroke-width: 1.42 ;&st7;  " d=" M   577.90,   367.22  L   569.40,   367.22  " /><path style="stroke-width: 1.42 ;&st7;  " d=" M   739.38,   460.71  L   730.88,   460.71  " /><text style="&st18;" transform="matrix(&st16;  997.24  179.39 )">(RHD *40)</text><text style="&st18;" transform="matrix(&st17;  727.18  165.02 )">B</text><text style="&st18;" transform="matrix(&st17;  565.71  267.01 )">P</text><text style="&st18;" transform="matrix(&st17;  577.04  341.47 )">(*3,*5)</text><text style="&st18;" transform="matrix(&st16;  549.99  134.07 )">R</text><text style="&st18;" transform="matrix(&st17;  806.5  509.43 )">(*22)</text><text style="&st18;" transform="matrix(&st17;  795.17  504.97 )">B</text><text style="&st18;" transform="matrix(&st17;  738.51  509.43 )">(*21)</text><text style="&st18;" transform="matrix(&st17;  727.18  504.97 )">B</text><text style="&st18;" transform="matrix(&st16;  784.77  230.38 )">(RHD *40)</text><text style="&st18;" transform="matrix(&st16;  792.65  219.05 )">B-W</text><text style="&st18;" transform="matrix(&st17;  806.5  428.12 )">(*8 *40)</text><text style="&st18;" transform="matrix(&st17;  795.17  423.94 )">B-W</text><text style="&st18;" transform="matrix(&st17;  781.01  422.77 )">(*9)</text><text style="&st18;" transform="matrix(&st17;  769.67  419.98 )">B</text><text style="&st18;" transform="matrix(&st17;  670.53  422.77 )">(*7)</text><text style="&st18;" transform="matrix(&st17;  659.19  419.98 )">B</text><text style="&st18;" transform="matrix(&st17;  738.52  257.04 )">(LHD *40)</text><text style="&st18;" transform="matrix(&st17;  727.18  249.72 )">B-W</text><text style="&st18;" transform="matrix(&st17;  670.53  273.48 )">(RHD)</text><text style="&st18;" transform="matrix(&st17;  659.19  267.01 )">B</text><text style="&st18;" transform="matrix(&st17;  636.53  355.47 )">(*17,*18,*19,*20)</text><text style="&st18;" transform="matrix(&st17;  625.2  335.0 )">P</text><text style="&st18;" transform="matrix(&st17;  565.71  182.02 )">B</text><text style="&st18;" transform="matrix(&st17;  565.71  335.0 )">P</text><text style="&st18;" transform="matrix(&st17;  602.54  405.78 )">(*3)</text><text style="&st18;" transform="matrix(&st17;  591.2  402.98 )">P</text><text style="&st18;" transform="matrix(&st16;  550.14  431.52 )">P</text><text style="&st18;" transform="matrix(&st16;  547.35  442.85 )">(*5)</text><text style="&st18;" transform="matrix(&st16;  547.35  672.31 )">(*3)</text><text style="&st18;" transform="matrix(&st16;  529.67  646.81 )">(*17,*18,*19,*20)</text><text style="&st18;" transform="matrix(&st16;  550.14  635.48 )">P</text><text style="&st18;" transform="matrix(&st16;  550.14  660.98 )">P</text><text style="&st18;" transform="matrix(&st17;  897.15  364.45 )">B-W</text><text style="&st18;" transform="matrix(&st17;  908.49  371.78 )">(LHD *40)</text><text style="&st18;" transform="matrix(&st17;  939.65  381.44 )">B-W</text><text style="&st18;" transform="matrix(&st17;  950.98  389.32 )">(RHD *40)</text><text style="&st18;" transform="matrix(&st17;  897.15  474.93 )">B-W</text><text style="&st18;" transform="matrix(&st17;  897.15  593.91 )">B-W</text><path style="stroke-width: 1.42 ;&st7;  " d=" M   934.84,   418.22  L   943.34,   418.22  " /><text style="&st18;" transform="matrix(&st17;  701.69  378.42 )">W</text><path style="stroke-width: 1.42 ;&st7;  " d=" M   790.37,   452.21  L   798.87,   452.21  " /><text style="&st18;" transform="matrix(&st17;  633.7  105.53 )">B</text><text style="&st18;" transform="matrix(&st17;  908.49  594.41 )">(*30)</text><text style="&st18;" transform="matrix(&st17;  908.49  475.43 )">(*30)</text><text style="&st18;" transform="matrix(&st17;  939.65  474.93 )">B-W</text><text style="&st18;" transform="matrix(&st17;  950.98  475.43 )">(*39)</text><text style="&st18;" transform="matrix(&st17;  965.14  473.45 )">GR</text><text style="&st18;" transform="matrix(&st17;  976.47  475.43 )">(*38)</text><text style="&st18;" transform="matrix(&st17;  713.02  385.63 )">(*6 *41)</text><text style="&st18;" transform="matrix(&st17;  727.18  381.44 )">B-W</text><text style="&st18;" transform="matrix(&st17;  738.51  385.63 )">(*6 *40)</text><text style="&st18;" transform="matrix(&st17;  820.67  379.97 )">GR</text><text style="&st18;" transform="matrix(&st17;  832.0  385.63 )">(*8 *41)</text><text style="&st18;" transform="matrix(&st17;  965.14  379.97 )">GR</text><text style="&st18;" transform="matrix(&st17;  976.48  389.32 )">(RHD *41)</text><text style="&st18;" transform="matrix(&st17;  882.99  371.78 )">(LHD *41)</text><text style="&st18;" transform="matrix(&st17;  871.66  362.97 )">GR</text><text style="&st18;" transform="matrix(&st16;  795.67  244.55 )">W</text><text style="&st18;" transform="matrix(&st16;  784.77  255.88 )">(RHD *41)</text><text style="&st18;" transform="matrix(&st17;  701.69  246.69 )">W</text><text style="&st18;" transform="matrix(&st17;  713.02  257.04 )">(LHD *41)</text><text style="&st18;" transform="matrix(&st16;  994.29  151.06 )">W(RHD *41)</text><g ewd:figtype="conn" ewd:figID="7" ewd:code="I21"><path style="stroke-width: 0.85 ;&st7;  " d=" M   565.16,   214.25  L   573.65,   214.25  " /><path style="stroke-width: 0.85 ;&st7;  " d=" M   569.40,   205.75  L   569.40,   231.25  " /><path style="stroke-width: 1.42 ;&st7;  " d=" M   560.91,   231.25  L   577.90,   231.25  L   577.90,   205.75  L   560.91,   205.75  L   560.91,   231.25  " /><path style="stroke-width: 0.28 ;&st9;  " d=" M   569.40,   214.25  L   575.07,   222.75  L   563.74,   222.75  L   569.40,   214.25  " /><text style="&st18;" transform="matrix(&st16;  563.07  239.44 )">1</text><text style="&st18;" transform="matrix(&st16;  563.07  202.06 )">2</text><g ewd:figtype="title"><text style="&st18;" transform="matrix(&st17;  592.62  234.15 )" ewd:textID="38">Diode <tspan x="0 " dy="6.0">(Interior Light)</tspan></text><text style="&st18;" transform="matrix(&st17;  585.8  234.15 )">I21</text></g></g><g ewd:figtype="conn" ewd:figID="8" ewd:code="I20"><path style="stroke-width: 0.85 ;&st7;  " d=" M   735.13,   197.25  L   726.63,   197.25  " /><path style="stroke-width: 0.85 ;&st7;  " d=" M   730.88,   180.26  L   730.88,   205.75  " /><path style="stroke-width: 1.42 ;&st7;  " d=" M   722.38,   205.75  L   739.38,   205.75  L   739.38,   180.26  L   722.38,   180.26  L   722.38,   205.75  " /><path style="stroke-width: 0.28 ;&st9;  " d=" M   730.88,   197.25  L   725.21,   188.75  L   736.54,   188.75  L   730.88,   197.25  " /><text style="&st18;" transform="matrix(&st16;  724.54  176.57 )">1</text><text style="&st18;" transform="matrix(&st16;  724.54  213.94 )">2</text><g ewd:figtype="title"><text style="&st18;" transform="matrix(&st17;  747.27  208.65 )">I20</text><text style="&st18;" transform="matrix(&st17;  754.09  208.66 )" ewd:textID="37">Diode (Door Courtesy)</text></g></g><g ewd:code="S6,S29" ewd:figID="9" ewd:comment="24,25" ewd:figtype="conn"><path style="stroke-width: 1.42 ;&st7;  " d=" M   730.88,   581.10  L   736.54,   558.44  " /><path style="stroke-width: 0.85 ;&st7;  " d=" M   730.88,   588.19  L   730.88,   583.94  " /><path style="stroke-width: 0.85 ;&st7;  " d=" M   730.88,   558.44  L   730.88,   554.19  " /><path style="stroke-width: 0.85 ;&st7;   " d=" M   732.29,   582.52  C   732.29    581.74    731.66    581.10    730.88    581.10  " /><path style="stroke-width: 0.85 ;&st7;   " d=" M   730.88,   581.10  C   730.10    581.10    729.46    581.74    729.46    582.52  " /><path style="stroke-width: 0.85 ;&st7;   " d=" M   729.46,   582.52  C   729.46    583.30    730.10    583.94    730.88    583.94  " /><path style="stroke-width: 0.85 ;&st7;   " d=" M   730.88,   583.94  C   731.66    583.94    732.29    583.30    732.29    582.52  " /><path style="stroke-width: 0.85 ;&st7;   " d=" M   732.29,   559.86  C   732.29    559.08    731.66    558.44    730.88    558.44  " /><path style="stroke-width: 0.85 ;&st7;   " d=" M   730.88,   558.44  C   730.10    558.44    729.46    559.08    729.46    559.86  " /><path style="stroke-width: 0.85 ;&st7;   " d=" M   729.46,   559.86  C   729.46    560.64    730.10    561.27    730.88    561.27  " /><path style="stroke-width: 0.85 ;&st7;   " d=" M   730.88,   561.27  C   731.66    561.27    732.29    560.64    732.29    559.86  " /><path style="stroke-width: 1.42 ;&st7;  " d=" M   739.38,   588.19  L   739.38,   554.19  L   722.38,   554.19  L   722.38,   588.19  L   739.38,   588.19  " /><text style="&st18;" transform="matrix(&st16;  721.4  551.63 )">1</text><text style="&st18;" transform="matrix(&st16;  721.4  542.56 )">1</text><path style="stroke-width: 1.42 ;&st7;   " d=" M   735.41,   549.66  C   735.41    547.16    733.38    545.13    730.88    545.13  " /><path style="stroke-width: 1.42 ;&st7;   " d=" M   730.88,   545.13  C   728.37    545.13    726.35    547.16    726.35    549.66  " /><path style="stroke-width: 1.42 ;&st7;   " d=" M   726.35,   549.66  C   726.35    552.16    728.37    554.19    730.88    554.19  " /><path style="stroke-width: 1.42 ;&st7;   " d=" M   730.88,   554.19  C   733.38    554.19    735.41    552.16    735.41    549.66  " /><text style="&st18;" transform="matrix(&st16;  728.61  542.56 )">A</text><path style="stroke-width: 1.42 ;&st7;   " d=" M   735.41,   540.59  C   735.41    538.09    733.38    536.06    730.88    536.06  " /><path style="stroke-width: 1.42 ;&st7;   " d=" M   730.88,   536.06  C   728.37    536.06    726.35    538.09    726.35    540.59  " /><path style="stroke-width: 1.42 ;&st7;   " d=" M   726.35,   540.59  C   726.35    543.10    728.37    545.13    730.88    545.13  " /><path style="stroke-width: 1.42 ;&st7;   " d=" M   730.88,   545.13  C   733.38    545.13    735.41    543.10    735.41    540.59  " /><text style="&st18;" transform="matrix(&st16;  728.61  551.63 )">B</text><g ewd:figtype="title"><text style="&st18;" transform="matrix(&st17;  712.73  591.09 )" ewd:textID="40">Front Door Courtesy <tspan x="0 " dy="6.0">Light Switch Assembly LH</tspan></text><text style="&st18;" transform="matrix(&st17;  705.91  591.09 )">S6(A),S29(B)</text></g><g ewd:code="" ewd:figID="128" ewd:comment="24" ewd:figtype="commref"><text style="&st18;" transform="matrix(&st16;  735.97  551.63 )">(*24)</text></g><g ewd:code="" ewd:figID="129" ewd:comment="25" ewd:figtype="commref"><text style="&st18;" transform="matrix(&st16;  735.97  542.56 )">(*25)</text></g></g><g ewd:figtype="conn" ewd:figID="10" ewd:code="U1"><path style="stroke-width: 1.42 ;&st7;  " d=" M   798.87,   581.10  L   804.53,   558.44  " /><path style="stroke-width: 0.85 ;&st7;  " d=" M   798.87,   588.19  L   798.87,   583.94  " /><path style="stroke-width: 0.85 ;&st7;  " d=" M   798.87,   558.44  L   798.87,   554.19  " /><path style="stroke-width: 0.85 ;&st7;   " d=" M   800.28,   582.52  C   800.28    581.74    799.65    581.10    798.87    581.10  " /><path style="stroke-width: 0.85 ;&st7;   " d=" M   798.87,   581.10  C   798.08    581.10    797.45    581.74    797.45    582.52  " /><path style="stroke-width: 0.85 ;&st7;   " d=" M   797.45,   582.52  C   797.45    583.30    798.08    583.94    798.87    583.94  " /><path style="stroke-width: 0.85 ;&st7;   " d=" M   798.87,   583.94  C   799.65    583.94    800.28    583.30    800.28    582.52  " /><path style="stroke-width: 0.85 ;&st7;   " d=" M   800.28,   559.86  C   800.28    559.08    799.65    558.44    798.87    558.44  " /><path style="stroke-width: 0.85 ;&st7;   " d=" M   798.87,   558.44  C   798.08    558.44    797.45    559.08    797.45    559.86  " /><path style="stroke-width: 0.85 ;&st7;   " d=" M   797.45,   559.86  C   797.45    560.64    798.08    561.27    798.87    561.27  " /><path style="stroke-width: 0.85 ;&st7;   " d=" M   798.87,   561.27  C   799.65    561.27    800.28    560.64    800.28    559.86  " /><path style="stroke-width: 1.42 ;&st7;  " d=" M   807.36,   588.19  L   807.36,   554.19  L   790.37,   554.19  L   790.37,   588.19  L   807.36,   588.19  " /><text style="&st18;" transform="matrix(&st16;  792.53  550.5 )">1</text><g ewd:figtype="title"><text style="&st18;" transform="matrix(&st17;  822.08  591.09 )" ewd:textID="40">Front Door Courtesy <tspan x="0 " dy="6.0">Light Switch Assembly LH</tspan></text><text style="&st18;" transform="matrix(&st17;  815.26  591.09 )">U1</text></g></g><g ewd:figtype="conn" ewd:figID="11" ewd:code="I61"><path style="stroke-width: 1.42 ;&st7;   " d=" M   934.84,   222.75  C   934.84    220.24    932.81    218.22    930.31    218.22  " /><path style="stroke-width: 1.42 ;&st7;   " d=" M   930.31,   218.22  C   927.81    218.22    925.78    220.24    925.78    222.75  " /><path style="stroke-width: 1.42 ;&st7;   " d=" M   925.78,   222.75  C   925.78    225.25    927.81    227.28    930.31    227.28  " /><path style="stroke-width: 1.42 ;&st7;   " d=" M   930.31,   227.28  C   932.81    227.28    934.84    225.25    934.84    222.75  " /><path style="stroke-width: 1.42 ;&st7;  " d=" M   934.84,   214.25  L   951.84,   214.25  L   951.84,   231.25  L   934.84,   231.25  L   934.84,   214.25  " /><path style="stroke-width: 0.85 ;&st7;  " d=" M   934.84,   222.75  L   943.34,   222.75  L   943.34,   214.25  " /><path style="stroke-width: 0.85 ;&st7;  " d=" M   942.15,   221.75  L   941.88,   222.22  L   941.78,   222.75  L   941.88,   223.28  L   942.15,   223.75  L   942.56,   224.10  L   943.07,   224.28  L   943.61,   224.28  L   944.12,   224.10  L   944.53,   223.75  L   944.81,   223.28  L   944.90,   222.75  L   944.81,   222.22  L   944.53,   221.75  L   944.12,   221.40  L   943.61,   221.21  L   943.07,   221.21  L   942.56,   221.40  L   942.15,   221.75  L   942.54,   222.46  L   942.54,   223.04  L   942.92,   223.48  L   943.49,   223.58  L   943.99,   223.30  L   944.19,   222.75  L   943.99,   222.20  L   943.49,   221.91  L   942.92,   222.01  L   943.34,   222.75  " /><path style="stroke-width: 0.85 ;&st7;  " d=" M   943.34,   222.75  L   943.34,   231.25  " /><text style="&st18;" transform="matrix(&st16;  928.43  216.22 )">2</text><text style="&st18;" transform="matrix(&st16;  927.89  224.72 )">C</text><path style="stroke-width: 1.42 ;&st7;   " d=" M   934.84,   222.75  C   934.84    220.24    932.81    218.22    930.31    218.22  " /><path style="stroke-width: 1.42 ;&st7;   " d=" M   930.31,   218.22  C   927.81    218.22    925.78    220.24    925.78    222.75  " /><path style="stroke-width: 1.42 ;&st7;   " d=" M   925.78,   222.75  C   925.78    225.25    927.81    227.28    930.31    227.28  " /><path style="stroke-width: 1.42 ;&st7;   " d=" M   930.31,   227.28  C   932.81    227.28    934.84    225.25    934.84    222.75  " /><text style="&st18;" transform="matrix(&st16;  933.86  237.75 )">1</text><path style="stroke-width: 1.42 ;&st7;   " d=" M   947.87,   235.78  C   947.87    233.28    945.85    231.25    943.34    231.25  " /><path style="stroke-width: 1.42 ;&st7;   " d=" M   943.34,   231.25  C   940.84    231.25    938.81    233.28    938.81    235.78  " /><path style="stroke-width: 1.42 ;&st7;   " d=" M   938.81,   235.78  C   938.81    238.28    940.84    240.31    943.34    240.31  " /><path style="stroke-width: 1.42 ;&st7;   " d=" M   943.34,   240.31  C   945.85    240.31    947.87    238.28    947.87    235.78  " /><text style="&st18;" transform="matrix(&st16;  940.92  237.75 )">C</text><text style="&st18;" transform="matrix(&st16;  933.86  211.69 )">3</text><path style="stroke-width: 1.42 ;&st7;   " d=" M   947.87,   209.72  C   947.87    207.21    945.85    205.18    943.34    205.18  " /><path style="stroke-width: 1.42 ;&st7;   " d=" M   943.34,   205.18  C   940.84    205.18    938.81    207.21    938.81    209.72  " /><path style="stroke-width: 1.42 ;&st7;   " d=" M   938.81,   209.72  C   938.81    212.22    940.84    214.25    943.34    214.25  " /><path style="stroke-width: 1.42 ;&st7;   " d=" M   943.34,   214.25  C   945.85    214.25    947.87    212.22    947.87    209.72  " /><text style="&st18;" transform="matrix(&st16;  940.92  211.69 )">C</text><g ewd:figtype="title"><text style="&st18;" transform="matrix(&st17;  966.56  234.15 )" ewd:textID="47">No. 11 Junction <tspan x="0 " dy="6.0">Connector</tspan></text><text style="&st18;" transform="matrix(&st17;  959.73  234.15 )">I61(C)</text></g></g><g ewd:figtype="conn" ewd:figID="17" ewd:code="L35,L36"><path style="stroke-width: 1.42 ;&st7;  " d=" M   892.35,   520.20  L   892.35,   537.20  L   909.35,   537.20  L   909.35,   520.20  L   892.35,   520.20  " /><path style="stroke-width: 0.85 ;&st7;  " d=" M   900.85,   520.20  L   900.85,   537.20  " /><text style="&st18;" transform="matrix(&st16;  891.37  543.7 )">9</text><text style="&st18;" transform="matrix(&st16;  888.03  552.76 )">21</text><path style="stroke-width: 1.42 ;&st7;   " d=" M   905.38,   541.73  C   905.38    539.22    903.35    537.20    900.85    537.20  " /><path style="stroke-width: 1.42 ;&st7;   " d=" M   900.85,   537.20  C   898.35    537.20    896.32    539.22    896.32    541.73  " /><path style="stroke-width: 1.42 ;&st7;   " d=" M   896.32,   541.73  C   896.32    544.23    898.35    546.26    900.85    546.26  " /><path style="stroke-width: 1.42 ;&st7;   " d=" M   900.85,   546.26  C   903.35    546.26    905.38    544.23    905.38    541.73  " /><path style="stroke-width: 1.42 ;&st7;   " d=" M   905.38,   550.79  C   905.38    548.29    903.35    546.26    900.85    546.26  " /><path style="stroke-width: 1.42 ;&st7;   " d=" M   900.85,   546.26  C   898.35    546.26    896.32    548.29    896.32    550.79  " /><path style="stroke-width: 1.42 ;&st7;   " d=" M   896.32,   550.79  C   896.32    553.30    898.35    555.33    900.85    555.33  " /><path style="stroke-width: 1.42 ;&st7;   " d=" M   900.85,   555.33  C   903.35    555.33    905.38    553.30    905.38    550.79  " /><text style="&st18;" transform="matrix(&st16;  898.58  543.7 )">A</text><text style="&st18;" transform="matrix(&st16;  898.58  552.76 )">B</text><text style="&st18;" transform="matrix(&st16;  888.03  508.57 )">10</text><text style="&st18;" transform="matrix(&st16;  888.03  517.64 )">22</text><path style="stroke-width: 1.42 ;&st7;   " d=" M   905.38,   506.60  C   905.38    504.10    903.35    502.07    900.85    502.07  " /><path style="stroke-width: 1.42 ;&st7;   " d=" M   900.85,   502.07  C   898.35    502.07    896.32    504.10    896.32    506.60  " /><path style="stroke-width: 1.42 ;&st7;   " d=" M   896.32,   506.60  C   896.32    509.10    898.35    511.13    900.85    511.13  " /><path style="stroke-width: 1.42 ;&st7;   " d=" M   900.85,   511.13  C   903.35    511.13    905.38    509.10    905.38    506.60  " /><path style="stroke-width: 1.42 ;&st7;   " d=" M   905.38,   515.67  C   905.38    513.16    903.35    511.13    900.85    511.13  " /><path style="stroke-width: 1.42 ;&st7;   " d=" M   900.85,   511.13  C   898.35    511.13    896.32    513.16    896.32    515.67  " /><path style="stroke-width: 1.42 ;&st7;   " d=" M   896.32,   515.67  C   896.32    518.17    898.35    520.20    900.85    520.20  " /><path style="stroke-width: 1.42 ;&st7;   " d=" M   900.85,   520.20  C   903.35    520.20    905.38    518.17    905.38    515.67  " /><text style="&st18;" transform="matrix(&st16;  898.58  517.64 )">B</text><text style="&st18;" transform="matrix(&st16;  898.58  508.57 )">A</text><g ewd:figtype="title"><text style="&st18;" transform="matrix(&st17;  885.82  540.1 )" ewd:textID="50">No. 27 Junction Connector</text><text style="&st18;" transform="matrix(&st17;  879.0  540.09 )">L35(B)</text><text style="&st18;" transform="matrix(&st17;  871.66  540.1 )" ewd:textID="52">No. 28 Junction Connector</text><text style="&st18;" transform="matrix(&st17;  864.83  540.09 )">L36(A)</text></g><g ewd:code="" ewd:figID="117" ewd:comment="" ewd:figtype="commref"><text style="&st18;" transform="matrix(&st16;  905.94  517.64 )">(RHD)</text></g><g ewd:code="" ewd:figID="118" ewd:comment="" ewd:figtype="commref"><text style="&st18;" transform="matrix(&st16;  905.94  508.57 )">(LHD)</text></g><g ewd:code="" ewd:figID="119" ewd:comment="" ewd:figtype="commref"><text style="&st18;" transform="matrix(&st16;  905.94  543.7 )">(LHD)</text></g><g ewd:code="" ewd:figID="120" ewd:comment="" ewd:figtype="commref"><text style="&st18;" transform="matrix(&st16;  905.94  552.76 )">(RHD)</text></g></g><g ewd:code="I67" ewd:figID="20" ewd:comment="6,8" ewd:figtype="conn"><path style="stroke-width: 1.42 ;&st7;  " d=" M   713.88,   290.74  L   747.87,   290.74  L   747.87,   307.73  L   713.88,   307.73  L   713.88,   290.74  " /><path style="stroke-width: 0.85 ;&st7;  " d=" M   730.88,   290.74  L   730.88,   307.73  " /><path style="stroke-width: 0.85 ;&st7;  " d=" M   730.88,   299.24  L   747.87,   299.24  " /><path style="stroke-width: 0.85 ;&st7;  " d=" M   729.68,   298.23  L   729.41,   298.70  L   729.32,   299.24  L   729.41,   299.77  L   729.68,   300.24  L   730.10,   300.58  L   730.61,   300.77  L   731.15,   300.77  L   731.66,   300.58  L   732.07,   300.24  L   732.34,   299.77  L   732.44,   299.24  L   732.34,   298.70  L   732.07,   298.23  L   731.66,   297.89  L   731.15,   297.70  L   730.61,   297.70  L   730.10,   297.89  L   729.68,   298.23  L   730.08,   298.94  L   730.08,   299.53  L   730.45,   299.97  L   731.02,   300.07  L   731.53,   299.78  L   731.73,   299.24  L   731.53,   298.69  L   731.02,   298.40  L   730.45,   298.50  L   730.88,   299.24  " /><text style="&st18;" transform="matrix(&st16;  718.06  314.24 )">21</text><text style="&st18;" transform="matrix(&st16;  718.06  323.3 )">22</text><text style="&st18;" transform="matrix(&st16;  728.61  323.3 )">A</text><path style="stroke-width: 1.42 ;&st7;   " d=" M   735.41,   321.33  C   735.41    318.83    733.38    316.80    730.88    316.80  " /><path style="stroke-width: 1.42 ;&st7;   " d=" M   730.88,   316.80  C   728.37    316.80    726.35    318.83    726.35    321.33  " /><path style="stroke-width: 1.42 ;&st7;   " d=" M   726.35,   321.33  C   726.35    323.83    728.37    325.86    730.88    325.86  " /><path style="stroke-width: 1.42 ;&st7;   " d=" M   730.88,   325.86  C   733.38    325.86    735.41    323.83    735.41    321.33  " /><path style="stroke-width: 1.42 ;&st7;   " d=" M   735.41,   312.27  C   735.41    309.76    733.38    307.73    730.88    307.73  " /><path style="stroke-width: 1.42 ;&st7;   " d=" M   730.88,   307.73  C   728.37    307.73    726.35    309.76    726.35    312.27  " /><path style="stroke-width: 1.42 ;&st7;   " d=" M   726.35,   312.27  C   726.35    314.77    728.37    316.80    730.88    316.80  " /><path style="stroke-width: 1.42 ;&st7;   " d=" M   730.88,   316.80  C   733.38    316.80    735.41    314.77    735.41    312.27  " /><text style="&st18;" transform="matrix(&st16;  728.61  314.24 )">A</text><text style="&st18;" transform="matrix(&st16;  718.06  288.17 )">20</text><text style="&st18;" transform="matrix(&st16;  728.61  288.17 )">A</text><path style="stroke-width: 1.42 ;&st7;   " d=" M   735.41,   286.20  C   735.41    283.70    733.38    281.67    730.88    281.67  " /><path style="stroke-width: 1.42 ;&st7;   " d=" M   730.88,   281.67  C   728.37    281.67    726.35    283.70    726.35    286.20  " /><path style="stroke-width: 1.42 ;&st7;   " d=" M   726.35,   286.20  C   726.35    288.71    728.37    290.74    730.88    290.74  " /><path style="stroke-width: 1.42 ;&st7;   " d=" M   730.88,   290.74  C   733.38    290.74    735.41    288.71    735.41    286.20  " /><text style="&st18;" transform="matrix(&st16;  748.86  292.71 )">19</text><text style="&st18;" transform="matrix(&st16;  750.14  301.2 )">A</text><path style="stroke-width: 1.42 ;&st7;   " d=" M   756.94,   299.24  C   756.94    296.73    754.91    294.70    752.41    294.70  " /><path style="stroke-width: 1.42 ;&st7;   " d=" M   752.41,   294.70  C   749.90    294.70    747.88    296.73    747.88    299.24  " /><path style="stroke-width: 1.42 ;&st7;   " d=" M   747.88,   299.24  C   747.88    301.74    749.90    303.77    752.41    303.77  " /><path style="stroke-width: 1.42 ;&st7;   " d=" M   752.41,   303.77  C   754.91    303.77    756.94    301.74    756.94    299.24  " /><g ewd:figtype="title"><text style="&st18;" transform="matrix(&st17;  698.29  310.64 )" ewd:textID="48">No. 16 <tspan x="0 " dy="6.0">Junction </tspan><tspan x="0 " dy="6.0">Connector</tspan></text><text style="&st18;" transform="matrix(&st17;  691.46  310.63 )">I67(A)</text></g><g ewd:code="" ewd:figID="103" ewd:comment="8" ewd:figtype="commref"><text style="&st18;" transform="matrix(&st16;  735.97  314.24 )">(*8)</text></g><g ewd:code="" ewd:figID="104" ewd:comment="6" ewd:figtype="commref"><text style="&st18;" transform="matrix(&st16;  735.97  323.3 )">(*6)</text></g></g><g ewd:figtype="w2w" ewd:figID="33" ewd:code="IS3"><path style="stroke-width: 1.42 ;&st7;  " d=" M   573.65,   372.89  L   569.40,   368.64  L   565.16,   372.89  " /><path style="stroke-width: 1.42 ;&st7;  " d=" M   573.65,   376.29  L   569.40,   372.04  L   565.16,   376.29  " /><text style="&st18;" transform="matrix(&st16;  552.65  364.94 )">17</text></g><g ewd:figtype="w2w" ewd:figID="34" ewd:code="IS3"><path style="stroke-width: 1.42 ;&st7;  " d=" M   735.13,   469.77  L   730.88,   465.52  L   726.63,   469.77  " /><path style="stroke-width: 1.42 ;&st7;  " d=" M   735.13,   466.37  L   730.88,   462.12  L   726.63,   466.37  " /><text style="&st18;" transform="matrix(&st16;  717.46  458.43 )">6</text></g><g ewd:code="UI5" ewd:figID="35" ewd:comment="29" ewd:figtype="w2w"><text style="&st18;" transform="matrix(&st16;  785.45  466.93 )">9</text><g ewd:code="" ewd:figID="142" ewd:comment="29" ewd:figtype="commref"><text style="&st18;" transform="matrix(&st16;  807.9  466.93 )">(*29)</text></g></g><g ewd:code="UI4" ewd:figID="36" ewd:comment="28" ewd:figtype="w2w"><path style="stroke-width: 1.42 ;&st7;  " d=" M   803.12,   446.54  L   798.87,   450.79  L   794.62,   446.54  " /><path style="stroke-width: 1.42 ;&st7;  " d=" M   794.62,   443.14  L   798.87,   447.39  L   803.12,   443.14  " /><text style="&st18;" transform="matrix(&st16;  785.45  458.43 )">8</text><g ewd:code="" ewd:figID="143" ewd:comment="28" ewd:figtype="commref"><text style="&st18;" transform="matrix(&st16;  807.9  458.43 )">(*28)</text></g></g><g ewd:figtype="w2w" ewd:figID="37" ewd:code="LI1"><path style="stroke-width: 1.42 ;&st7;  " d=" M   939.09,   409.15  L   943.34,   413.40  L   947.59,   409.15  " /><path style="stroke-width: 1.42 ;&st7;  " d=" M   947.59,   412.55  L   943.34,   416.80  L   939.09,   412.55  " /><text style="&st18;" transform="matrix(&st16;  929.92  424.43 )">2</text></g><g ewd:figtype="annex" ewd:figID="88" ewd:code=" "><path style="stroke-width: 0.85 ;&st7;  " d=" M   730.88,   588.19  L   730.88,   596.69  " /><path style="stroke-width: 0.85 ;&st7;  " d=" M   729.46,   605.18  L   732.29,   605.18  " /><path style="stroke-width: 0.85 ;&st7;  " d=" M   728.04,   602.35  L   733.71,   602.35  " /><path style="stroke-width: 0.85 ;&st7;  " d=" M   726.63,   599.52  L   735.13,   599.52  " /><path style="stroke-width: 0.85 ;&st7;  " d=" M   722.38,   596.69  L   739.38,   596.69  " /></g><g ewd:figtype="annex" ewd:figID="89" ewd:code=" "><path style="stroke-width: 0.85 ;&st7;  " d=" M   790.37,   596.69  L   807.36,   596.69  " /><path style="stroke-width: 0.85 ;&st7;  " d=" M   797.45,   605.18  L   800.28,   605.18  " /><path style="stroke-width: 0.85 ;&st7;  " d=" M   798.87,   588.19  L   798.87,   596.69  " /><path style="stroke-width: 0.85 ;&st7;  " d=" M   796.03,   602.35  L   801.70,   602.35  " /><path style="stroke-width: 0.85 ;&st7;  " d=" M   794.62,   599.52  L   803.12,   599.52  " /></g></svg>