<?xml version="1.0" encoding="utf-8"?>
<!DOCTYPE svg PUBLIC "-//W3C//DTD SVG 1.0//EN" "http://www.w3.org/TR/2001/REC-SVG-20010904/DTD/svg10.dtd"[
	<!ENTITY ns_flows "http://ns.adobe.com/Flows/1.0/">
	<!ENTITY ns_svg "http://www.w3.org/2000/svg">
	<!ENTITY ns_xlink "http://www.w3.org/1999/xlink">
	<!ENTITY st0 "font-size:7px;font-family:'MS-PGothic';adobe-font-script:japanese;">
	<!ENTITY st1 "font-size:6px;font-family:'ArialMT';">
	<!-- White fill  -->
	<!ENTITY st2 "fill:#FFFFFF;stroke:#000000; stroke-width:1.41;stroke-linecap:round;stroke-linejoin:round;">
	<!-- Yellow fill  -->
	<!ENTITY st3 "fill:#FFFFCC;stroke:#FFFFCC; stroke-width:0.1;stroke-linecap:round;stroke-linejoin:round;">
	<!-- Gray fill  -->
	<!ENTITY st4 "fill:#CCCCCC;stroke:#CCCCCC; stroke-width:0.1;stroke-linecap:round;stroke-linejoin:round;">
	<!-- Light-blue fill -->
	<!ENTITY st5 "fill:#CCECF4;stroke:#000000; stroke-width:1.133;stroke-linecap:round;stroke-linejoin:round;">
	<!ENTITY st6 "fill:none;stroke-linecap:butt; stroke-linejoin:round;">
	<!ENTITY st7 "fill:none;stroke:#000000;stroke-linecap:round;stroke-linejoin:round;">
	<!ENTITY st8 "enable-background:new    ;">
	<!-- Black fill -->
	<!ENTITY st9 "fill:#000000;stroke:#000000; stroke-linecap:round;stroke-linejoin:round;">
	<!-- SRS note   -->
	<!ENTITY st10 "font-size:9px;font-family:'ArialMT';">
	<!ENTITY st11 "font-size:9px;font-family:'Svg Symbol';">
	<!ENTITY st12 "font-size:6px;font-family:'Svg Symbol';">
	<!ENTITY st13 "fill:none;stroke:#ff0000;stroke-linecap:round;stroke-linejoin:round;">
	<!-- Yellow fill  -->
	<!ENTITY st14 "fill:#FFFF00;stroke:#FFFF00; stroke-width:0.1;stroke-linecap:round;stroke-linejoin:round;">
	<!ENTITY st15 "font-size:6px;font-family:'MS-PGothic';adobe-font-script:japanese;">
	<!ENTITY st16 "1.00 0.00 0.00 1.00">
	<!ENTITY st17 "0.00 -1.00 1.00 0.00">
	<!ENTITY st18 "font-size:6px;font-family:'Arial';">
	<!ENTITY st19 "font-size:9px;font-family:'Arial';">
	<!ENTITY st20 "font-size:6px;font-family:'MS-PGothic','MS PGothic';adobe-font-script:japanese;">
	<!ENTITY st21 "font-size:7px;font-family:'MS-PGothic','MS PGothic';adobe-font-script:japanese;">
	<!ATTLIST svg
		xmlns:ewd CDATA #FIXED "http://shcl.co.jp/ewd"
		xmlns:a CDATA #FIXED "http://ns.adobe.com/AdobeSVGViewerExtensions/3.0/"
		ewd:ver CDATA #IMPLIED
	>
	<!ATTLIST a
		ewd:lineID CDATA #IMPLIED
		ewd:groupID CDATA #IMPLIED
		ewd:figtype CDATA #IMPLIED
		ewd:code CDATA #IMPLIED
		ewd:figID CDATA #IMPLIED
		ewd:pinNo CDATA #IMPLIED
		ewd:comment CDATA #IMPLIED >
	<!ATTLIST g
		ewd:lineID CDATA #IMPLIED
		ewd:groupID CDATA #IMPLIED
		ewd:figtype CDATA #IMPLIED
		ewd:code CDATA #IMPLIED
		ewd:figID CDATA #IMPLIED
		ewd:pinNo CDATA #IMPLIED
		ewd:comment CDATA #IMPLIED >
	<!ATTLIST text
		ewd:textID CDATA #IMPLIED >
	<!ATTLIST title
		ewd:textID CDATA #IMPLIED >
]>
<!-- Generator: Shintec Hozumi YS   -->
<svg onload="call_execInitLoadProc_svg('system')" style="overflow:visible;  enable-background:new 0 0 2568.442 710.000" viewBox="0 0 2568.442 710.000" height="710.000" width="2568.442" xml:space="preserve" ewd:ver="2.3.1.16" xmlns="&ns_svg;" xmlns:a="http://ns.adobe.com/AdobeSVGViewerExtensions/3.0/" xmlns:ewd="http://shcl.co.jp/ewd" xmlns:xlink="&ns_xlink;">
<text style="&st18;" transform="matrix(&st16;  1421.54  448.51 )">W-B</text><text style="&st18;" transform="matrix(&st16;  1285.56  448.51 )">W-B</text><text style="&st18;" transform="matrix(&st17;  1262.59  534.42 )">W-B</text><text style="&st18;" transform="matrix(&st17;  1483.56  406.94 )">W-B</text><text style="&st18;" transform="matrix(&st17;  1364.58  406.94 )">W-B</text><text style="&st18;" transform="matrix(&st17;  1262.59  406.94 )">W-B</text><text style="&st18;" transform="matrix(&st17;  1483.56  267.32 )">G</text><text style="&st18;" transform="matrix(&st17;  1364.58  267.32 )">G</text><text style="&st18;" transform="matrix(&st17;  1262.59  267.32 )">G</text><text style="&st18;" transform="matrix(&st16;  1005.11  660.98 )">W-B</text><text style="&st18;" transform="matrix(&st16;  1056.1  660.98 )">W-B</text><path style="stroke-width: 1.42 ;&st7;  " d=" M  1495.75,   448.68  L  1490.78,   443.71  " /><path style="stroke-width: 1.42 ;&st7;  " d=" M  1478.75,   455.74  L  1483.72,   460.71  " /><path style="stroke-width: 1.42 ;&st7;  " d=" M  1490.78,   460.71  L  1495.75,   455.74  " /><path style="stroke-width: 1.42 ;&st7;  " d=" M  1483.72,   443.71  L  1478.75,   448.68  " /><path style="stroke-width: 1.42 ;&st7;  " d=" M  1376.77,   448.68  L  1371.80,   443.71  " /><path style="stroke-width: 1.42 ;&st7;  " d=" M  1359.77,   455.74  L  1364.74,   460.71  " /><path style="stroke-width: 1.42 ;&st7;  " d=" M  1371.80,   460.71  L  1376.77,   455.74  " /><path style="stroke-width: 1.42 ;&st7;  " d=" M  1364.74,   443.71  L  1359.77,   448.68  " /><path style="stroke-width: 1.42 ;&st7;  " d=" M  1274.79,   448.68  L  1269.82,   443.71  " /><path style="stroke-width: 1.42 ;&st7;  " d=" M  1257.79,   455.74  L  1262.76,   460.71  " /><path style="stroke-width: 1.42 ;&st7;  " d=" M  1269.82,   460.71  L  1274.79,   455.74  " /><path style="stroke-width: 1.42 ;&st7;  " d=" M  1262.76,   443.71  L  1257.79,   448.68  " /><text style="&st18;" transform="matrix(&st17;  1375.91  271.47 )">(*11)</text><text style="&st18;" transform="matrix(&st17;  1375.91  412.76 )">(*11 *18)</text><path style="stroke-width: 1.42 ;&st7;  " d=" M  1385.27,   494.70  L  1393.77,   494.70  " /><text style="&st18;" transform="matrix(&st17;  1143.61  386.3 )">G</text><text style="&st18;" transform="matrix(&st17;  1143.61  275.82 )">G</text><text style="&st18;" transform="matrix(&st17;  1154.94  390.45 )">(*19)</text><text style="&st18;" transform="matrix(&st17;  1154.94  279.97 )">(*19)</text><text style="&st18;" transform="matrix(&st17;  1390.07  406.94 )">W-B</text><text style="&st18;" transform="matrix(&st17;  1401.4  412.76 )">(*11 *19)</text><text style="&st18;" transform="matrix(&st17;  1390.07  551.42 )">W-B</text><text style="&st18;" transform="matrix(&st17;  1401.4  557.23 )">(*11 *19)</text><text style="&st18;" transform="matrix(&st17;  1390.07  653.4 )">W-B</text><text style="&st18;" transform="matrix(&st17;  1401.4  659.21 )">(*11 *19)</text><text style="&st18;" transform="matrix(&st17;  1494.89  271.47 )">(*18)</text><text style="&st18;" transform="matrix(&st17;  1494.89  407.44 )">(*18)</text><text style="&st18;" transform="matrix(&st16;  1245.89  202.05 )" ewd:textID="38">No. 30 Junction Connector</text><text style="&st18;" transform="matrix(&st16;  1245.88  195.23 )">L52(A)</text><text style="&st18;" transform="matrix(&st16;  1059.75  550.5 )">G</text><text style="&st18;" transform="matrix(&st16;  1008.76  550.5 )">G</text><text style="&st18;" transform="matrix(&st16;  1004.61  561.83 )">(*19)</text><text style="&st18;" transform="matrix(&st16;  1055.6  561.83 )">(*19)</text><g ewd:figtype="conn" ewd:figID="15" ewd:code="L45"><path style="stroke-width: 0.85 ;&st7;   " d=" M  1266.29,   345.98  C  1267.84    345.99   1269.11    344.73   1269.12    343.18  " /><path style="stroke-width: 0.85 ;&st7;   " d=" M  1269.12,   343.18  C  1269.13    341.62   1267.88    340.36   1266.32    340.35  " /><path style="stroke-width: 0.85 ;&st7;   " d=" M  1266.32,   340.35  C  1265.29    340.34   1264.41    340.84   1263.88    341.73  " /><path style="stroke-width: 0.85 ;&st7;   " d=" M  1263.88,   341.73  C  1264.67    343.07   1266.40    343.51   1267.74    342.72  " /><path style="stroke-width: 0.85 ;&st7;   " d=" M  1267.74,   342.72  C  1269.08    341.93   1269.52    340.20   1268.73    338.86  " /><path style="stroke-width: 0.85 ;&st7;   " d=" M  1268.73,   338.86  C  1268.20    337.97   1267.32    337.47   1266.29    337.48  " /><path style="stroke-width: 1.42 ;&st7;   " d=" M  1274.79,   341.73  C  1274.79    337.03   1270.98    333.23   1266.29    333.23  " /><path style="stroke-width: 1.42 ;&st7;   " d=" M  1266.29,   333.23  C  1261.59    333.23   1257.79    337.03   1257.79    341.73  " /><path style="stroke-width: 1.42 ;&st7;   " d=" M  1257.79,   341.73  C  1257.79    346.42   1261.59    350.23   1266.29    350.23  " /><path style="stroke-width: 1.42 ;&st7;   " d=" M  1266.29,   350.23  C  1270.98    350.23   1274.79    346.42   1274.79    341.73  " /><path style="stroke-width: 0.85 ;&st7;  " d=" M  1266.29,   333.23  L  1266.29,   337.48  " /><path style="stroke-width: 0.85 ;&st7;  " d=" M  1266.29,   345.98  L  1266.29,   350.23  " /><text style="&st18;" transform="matrix(&st16;  1259.95  358.42 )">2</text><text style="&st18;" transform="matrix(&st16;  1259.95  329.54 )">1</text><g ewd:figtype="title"><text style="&st18;" transform="matrix(&st17;  1282.68  353.13 )">L45</text><text style="&st18;" transform="matrix(&st17;  1289.5  353.13 )" ewd:textID="17">Antenna <tspan x="0 " dy="6.0">Switch Assembly</tspan></text></g></g><g ewd:code="L54,L63" ewd:figID="16" ewd:comment="18,19" ewd:figtype="conn"><path style="stroke-width: 0.85 ;&st7;   " d=" M  1368.27,   345.98  C  1369.83    345.99   1371.09    344.73   1371.10    343.18  " /><path style="stroke-width: 0.85 ;&st7;   " d=" M  1371.10,   343.18  C  1371.11    341.62   1369.86    340.36   1368.31    340.35  " /><path style="stroke-width: 0.85 ;&st7;   " d=" M  1368.31,   340.35  C  1367.27    340.34   1366.39    340.84   1365.86    341.73  " /><path style="stroke-width: 0.85 ;&st7;   " d=" M  1365.86,   341.73  C  1366.66    343.07   1368.38    343.51   1369.72    342.72  " /><path style="stroke-width: 0.85 ;&st7;   " d=" M  1369.72,   342.72  C  1371.06    341.93   1371.50    340.20   1370.71    338.86  " /><path style="stroke-width: 0.85 ;&st7;   " d=" M  1370.71,   338.86  C  1370.19    337.97   1369.30    337.47   1368.27    337.48  " /><path style="stroke-width: 1.42 ;&st7;   " d=" M  1376.77,   341.73  C  1376.77    337.03   1372.96    333.23   1368.27    333.23  " /><path style="stroke-width: 1.42 ;&st7;   " d=" M  1368.27,   333.23  C  1363.58    333.23   1359.77    337.03   1359.77    341.73  " /><path style="stroke-width: 1.42 ;&st7;   " d=" M  1359.77,   341.73  C  1359.77    346.42   1363.58    350.23   1368.27    350.23  " /><path style="stroke-width: 1.42 ;&st7;   " d=" M  1368.27,   350.23  C  1372.96    350.23   1376.77    346.42   1376.77    341.73  " /><path style="stroke-width: 0.85 ;&st7;  " d=" M  1368.27,   333.23  L  1368.27,   337.48  " /><path style="stroke-width: 0.85 ;&st7;  " d=" M  1368.27,   345.98  L  1368.27,   350.23  " /><text style="&st18;" transform="matrix(&st16;  1358.79  365.79 )">4</text><text style="&st18;" transform="matrix(&st16;  1358.79  356.73 )">6</text><text style="&st18;" transform="matrix(&st16;  1366.01  356.73 )">A</text><path style="stroke-width: 1.42 ;&st7;   " d=" M  1372.80,   354.76  C  1372.80    352.26   1370.77    350.23   1368.27    350.23  " /><path style="stroke-width: 1.42 ;&st7;   " d=" M  1368.27,   350.23  C  1365.77    350.23   1363.74    352.26   1363.74    354.76  " /><path style="stroke-width: 1.42 ;&st7;   " d=" M  1363.74,   354.76  C  1363.74    357.26   1365.77    359.29   1368.27    359.29  " /><path style="stroke-width: 1.42 ;&st7;   " d=" M  1368.27,   359.29  C  1370.77    359.29   1372.80    357.26   1372.80    354.76  " /><path style="stroke-width: 1.42 ;&st7;   " d=" M  1372.80,   363.82  C  1372.80    361.32   1370.77    359.29   1368.27    359.29  " /><path style="stroke-width: 1.42 ;&st7;   " d=" M  1368.27,   359.29  C  1365.77    359.29   1363.74    361.32   1363.74    363.82  " /><path style="stroke-width: 1.42 ;&st7;   " d=" M  1363.74,   363.82  C  1363.74    366.33   1365.77    368.36   1368.27    368.36  " /><path style="stroke-width: 1.42 ;&st7;   " d=" M  1368.27,   368.36  C  1370.77    368.36   1372.80    366.33   1372.80    363.82  " /><text style="&st18;" transform="matrix(&st16;  1366.01  365.79 )">B</text><text style="&st18;" transform="matrix(&st16;  1358.79  321.6 )">3</text><text style="&st18;" transform="matrix(&st16;  1358.79  330.67 )">3</text><text style="&st18;" transform="matrix(&st16;  1366.01  330.67 )">B</text><text style="&st18;" transform="matrix(&st16;  1366.01  321.6 )">A</text><path style="stroke-width: 1.42 ;&st7;   " d=" M  1372.80,   319.63  C  1372.80    317.13   1370.77    315.10   1368.27    315.10  " /><path style="stroke-width: 1.42 ;&st7;   " d=" M  1368.27,   315.10  C  1365.77    315.10   1363.74    317.13   1363.74    319.63  " /><path style="stroke-width: 1.42 ;&st7;   " d=" M  1363.74,   319.63  C  1363.74    322.14   1365.77    324.16   1368.27    324.16  " /><path style="stroke-width: 1.42 ;&st7;   " d=" M  1368.27,   324.16  C  1370.77    324.16   1372.80    322.14   1372.80    319.63  " /><path style="stroke-width: 1.42 ;&st7;   " d=" M  1372.80,   328.70  C  1372.80    326.19   1370.77    324.16   1368.27    324.16  " /><path style="stroke-width: 1.42 ;&st7;   " d=" M  1368.27,   324.16  C  1365.77    324.16   1363.74    326.19   1363.74    328.70  " /><path style="stroke-width: 1.42 ;&st7;   " d=" M  1363.74,   328.70  C  1363.74    331.20   1365.77    333.23   1368.27    333.23  " /><path style="stroke-width: 1.42 ;&st7;   " d=" M  1368.27,   333.23  C  1370.77    333.23   1372.80    331.20   1372.80    328.70  " /><g ewd:figtype="title"><text style="&st18;" transform="matrix(&st17;  1350.13  353.13 )" ewd:textID="29">Headlight <tspan x="0 " dy="6.0">Leveling Switch</tspan></text><text style="&st18;" transform="matrix(&st17;  1343.3  353.13 )">L54(A),L63(B)</text></g><g ewd:code="" ewd:figID="146" ewd:comment="19" ewd:figtype="commref"><text style="&st18;" transform="matrix(&st16;  1373.36  365.79 )">(*19)</text></g><g ewd:code="" ewd:figID="147" ewd:comment="18" ewd:figtype="commref"><text style="&st18;" transform="matrix(&st16;  1373.36  356.73 )">(*18)</text></g><g ewd:code="" ewd:figID="148" ewd:comment="19" ewd:figtype="commref"><text style="&st18;" transform="matrix(&st16;  1373.36  330.67 )">(*19)</text></g><g ewd:code="" ewd:figID="149" ewd:comment="18" ewd:figtype="commref"><text style="&st18;" transform="matrix(&st16;  1373.36  321.6 )">(*18)</text></g></g><g ewd:code="L10" ewd:figID="17" ewd:comment="5,6" ewd:figtype="conn"><path style="stroke-width: 0.85 ;&st7;   " d=" M  1487.25,   345.98  C  1488.81    345.99   1490.07    344.73   1490.08    343.18  " /><path style="stroke-width: 0.85 ;&st7;   " d=" M  1490.08,   343.18  C  1490.09    341.62   1488.84    340.36   1487.29    340.35  " /><path style="stroke-width: 0.85 ;&st7;   " d=" M  1487.29,   340.35  C  1486.25    340.34   1485.37    340.84   1484.84    341.73  " /><path style="stroke-width: 0.85 ;&st7;   " d=" M  1484.84,   341.73  C  1485.64    343.07   1487.36    343.51   1488.70    342.72  " /><path style="stroke-width: 0.85 ;&st7;   " d=" M  1488.70,   342.72  C  1490.04    341.93   1490.49    340.20   1489.69    338.86  " /><path style="stroke-width: 0.85 ;&st7;   " d=" M  1489.69,   338.86  C  1489.17    337.97   1488.28    337.47   1487.25    337.48  " /><path style="stroke-width: 1.42 ;&st7;   " d=" M  1495.75,   341.73  C  1495.75    337.03   1491.95    333.23   1487.25    333.23  " /><path style="stroke-width: 1.42 ;&st7;   " d=" M  1487.25,   333.23  C  1482.56    333.23   1478.75    337.03   1478.75    341.73  " /><path style="stroke-width: 1.42 ;&st7;   " d=" M  1478.75,   341.73  C  1478.75    346.42   1482.56    350.23   1487.25    350.23  " /><path style="stroke-width: 1.42 ;&st7;   " d=" M  1487.25,   350.23  C  1491.95    350.23   1495.75    346.42   1495.75    341.73  " /><path style="stroke-width: 0.85 ;&st7;  " d=" M  1487.25,   333.23  L  1487.25,   337.48  " /><path style="stroke-width: 0.85 ;&st7;  " d=" M  1487.25,   345.98  L  1487.25,   350.23  " /><text style="&st18;" transform="matrix(&st16;  1477.77  365.79 )">2</text><text style="&st18;" transform="matrix(&st16;  1477.77  356.73 )">2</text><text style="&st18;" transform="matrix(&st16;  1484.99  356.73 )">A</text><path style="stroke-width: 1.42 ;&st7;   " d=" M  1491.78,   363.82  C  1491.78    361.32   1489.75    359.29   1487.25    359.29  " /><path style="stroke-width: 1.42 ;&st7;   " d=" M  1487.25,   359.29  C  1484.75    359.29   1482.72    361.32   1482.72    363.82  " /><path style="stroke-width: 1.42 ;&st7;   " d=" M  1482.72,   363.82  C  1482.72    366.33   1484.75    368.36   1487.25    368.36  " /><path style="stroke-width: 1.42 ;&st7;   " d=" M  1487.25,   368.36  C  1489.75    368.36   1491.78    366.33   1491.78    363.82  " /><path style="stroke-width: 1.42 ;&st7;   " d=" M  1491.78,   354.76  C  1491.78    352.26   1489.75    350.23   1487.25    350.23  " /><path style="stroke-width: 1.42 ;&st7;   " d=" M  1487.25,   350.23  C  1484.75    350.23   1482.72    352.26   1482.72    354.76  " /><path style="stroke-width: 1.42 ;&st7;   " d=" M  1482.72,   354.76  C  1482.72    357.26   1484.75    359.29   1487.25    359.29  " /><path style="stroke-width: 1.42 ;&st7;   " d=" M  1487.25,   359.29  C  1489.75    359.29   1491.78    357.26   1491.78    354.76  " /><text style="&st18;" transform="matrix(&st16;  1484.99  365.79 )">B</text><text style="&st18;" transform="matrix(&st16;  1477.77  321.6 )">1</text><text style="&st18;" transform="matrix(&st16;  1477.77  330.67 )">1</text><text style="&st18;" transform="matrix(&st16;  1484.99  330.67 )">B</text><text style="&st18;" transform="matrix(&st16;  1484.99  321.6 )">A</text><path style="stroke-width: 1.42 ;&st7;   " d=" M  1491.78,   319.63  C  1491.78    317.13   1489.75    315.10   1487.25    315.10  " /><path style="stroke-width: 1.42 ;&st7;   " d=" M  1487.25,   315.10  C  1484.75    315.10   1482.72    317.13   1482.72    319.63  " /><path style="stroke-width: 1.42 ;&st7;   " d=" M  1482.72,   319.63  C  1482.72    322.14   1484.75    324.16   1487.25    324.16  " /><path style="stroke-width: 1.42 ;&st7;   " d=" M  1487.25,   324.16  C  1489.75    324.16   1491.78    322.14   1491.78    319.63  " /><path style="stroke-width: 1.42 ;&st7;   " d=" M  1491.78,   328.70  C  1491.78    326.19   1489.75    324.16   1487.25    324.16  " /><path style="stroke-width: 1.42 ;&st7;   " d=" M  1487.25,   324.16  C  1484.75    324.16   1482.72    326.19   1482.72    328.70  " /><path style="stroke-width: 1.42 ;&st7;   " d=" M  1482.72,   328.70  C  1482.72    331.20   1484.75    333.23   1487.25    333.23  " /><path style="stroke-width: 1.42 ;&st7;   " d=" M  1487.25,   333.23  C  1489.75    333.23   1491.78    331.20   1491.78    328.70  " /><g ewd:figtype="title"><text style="&st18;" transform="matrix(&st17;  1467.97  353.13 )" ewd:textID="18">Ashtray <tspan x="0 " dy="6.0">Receptacle Light</tspan></text><text style="&st18;" transform="matrix(&st17;  1461.15  353.13 )">L10(A),(B)</text></g><g ewd:code="" ewd:figID="117" ewd:comment="6" ewd:figtype="commref"><text style="&st18;" transform="matrix(&st16;  1492.34  365.79 )">(*6)</text></g><g ewd:code="" ewd:figID="118" ewd:comment="5" ewd:figtype="commref"><text style="&st18;" transform="matrix(&st16;  1492.34  356.73 )">(*5)</text></g><g ewd:code="" ewd:figID="119" ewd:comment="6" ewd:figtype="commref"><text style="&st18;" transform="matrix(&st16;  1492.34  330.67 )">(*6)</text></g><g ewd:code="" ewd:figID="120" ewd:comment="5" ewd:figtype="commref"><text style="&st18;" transform="matrix(&st16;  1492.34  321.6 )">(*5)</text></g></g><g ewd:figtype="conn" ewd:figID="27" ewd:code="L60"><path style="stroke-width: 1.42 ;&st7;  " d=" M  1130.31,   350.23  L  1164.30,   350.23  L  1164.30,   316.23  L  1130.31,   316.23  L  1130.31,   350.23  " /><g ewd:lineID="47"><text style="&st18;" transform="matrix(&st16;  1140.97  358.42 )">7</text><text style="&st18;" transform="matrix(&st16;  1141.94  346.53 )">ILL-</text></g><g ewd:lineID="48"><text style="&st18;" transform="matrix(&st16;  1140.97  312.54 )">5</text><text style="&st18;" transform="matrix(&st16;  1141.2  323.87 )">ILL+</text></g><g ewd:figtype="title"><text style="&st18;" transform="matrix(&st17;  1179.02  353.13 )" ewd:textID="22">Combination Switch Assembly</text><text style="&st18;" transform="matrix(&st17;  1172.2  353.13 )">L60</text></g></g><g ewd:figtype="conn" ewd:figID="29" ewd:code="I97"><path style="stroke-width: 1.42 ;&st7;  " d=" M  1376.77,   588.19  L  1376.77,   605.18  L  1410.76,   605.18  L  1410.76,   588.19  L  1376.77,   588.19  " /><path style="stroke-width: 0.85 ;&st7;  " d=" M  1393.77,   588.19  L  1393.77,   605.18  " /><text style="&st18;" transform="matrix(&st16;  1387.43  613.38 )">4</text><text style="&st18;" transform="matrix(&st16;  1384.09  584.5 )">10</text><g ewd:figtype="title"><text style="&st18;" transform="matrix(&st17;  1367.13  608.09 )" ewd:textID="40">No. 32 Junction <tspan x="0 " dy="6.0">Connector</tspan></text><text style="&st18;" transform="matrix(&st17;  1360.3  608.08 )">I97</text></g></g><g ewd:figtype="w2w" ewd:figID="45" ewd:code="IL1"><path style="stroke-width: 1.42 ;&st7;  " d=" M  1389.52,   485.64  L  1393.77,   489.89  L  1398.02,   485.64  " /><path style="stroke-width: 1.42 ;&st7;  " d=" M  1398.02,   489.04  L  1393.77,   493.29  L  1389.52,   489.04  " /><text style="&st18;" transform="matrix(&st16;  1377.01  500.92 )">51</text></g><g ewd:figtype="gp" ewd:figID="65" ewd:code="LA"><path style="stroke-width: 0.85 ;&st7;  " d=" M  1264.87,   710.00  L  1267.70,   710.00  " /><path style="stroke-width: 0.85 ;&st7;  " d=" M  1263.46,   707.17  L  1269.12,   707.17  " /><path style="stroke-width: 0.85 ;&st7;  " d=" M  1262.04,   704.33  L  1270.54,   704.33  " /><path style="stroke-width: 0.85 ;&st7;  " d=" M  1257.79,   701.50  L  1274.79,   701.50  " /><path style="stroke-width: 0.85 ;&st7;  " d=" M  1266.29,   697.25  L  1266.29,   701.50  " /></g><g ewd:figtype="gp" ewd:figID="66" ewd:code="IA"><path style="stroke-width: 0.85 ;&st7;  " d=" M  1392.35,   710.00  L  1395.18,   710.00  " /><path style="stroke-width: 0.85 ;&st7;  " d=" M  1390.93,   707.17  L  1396.60,   707.17  " /><path style="stroke-width: 0.85 ;&st7;  " d=" M  1389.52,   704.33  L  1398.02,   704.33  " /><path style="stroke-width: 0.85 ;&st7;  " d=" M  1385.27,   701.50  L  1402.27,   701.50  " /><path style="stroke-width: 0.85 ;&st7;  " d=" M  1393.77,   697.25  L  1393.77,   701.50  "/></g><g ewd:code="18" ewd:figID="156" ewd:comment="" ewd:figtype="comment"><text style="&st18;" transform="matrix(&st16;  1135.4  71.74 )" ewd:textID="13">*18 :Before Jul. 2021 Production</text></g><g ewd:code="6" ewd:figID="151" ewd:comment="" ewd:figtype="comment"><text style="&st18;" transform="matrix(&st16;  1135.4  54.75 )" ewd:textID="3">* 6 :1HZ 24V Battery Type</text></g><g ewd:code="5" ewd:figID="150" ewd:comment="" ewd:figtype="comment"><text style="&st18;" transform="matrix(&st16;  1135.4  46.25 )" ewd:textID="2">* 5 :1GR-FE, 1VD-FTV, 1HZ 12V Battery Type</text></g><g ewd:code="11" ewd:figID="152" ewd:comment="" ewd:figtype="comment"><text style="&st18;" transform="matrix(&st16;  1135.4  63.24 )" ewd:textID="8">*11 :w/ Headlight Leveling Control</text></g><g ewd:code="19" ewd:figID="157" ewd:comment="" ewd:figtype="comment"><text style="&st18;" transform="matrix(&st16;  1135.4  80.24 )" ewd:textID="14">*19 :From Jul. 2021 Production</text></g></svg>
