<?xml version="1.0" encoding="utf-8"?>
<!DOCTYPE svg PUBLIC "-//W3C//DTD SVG 1.0//EN" "http://www.w3.org/TR/2001/REC-SVG-20010904/DTD/svg10.dtd"[
	<!ENTITY ns_flows "http://ns.adobe.com/Flows/1.0/">
	<!ENTITY ns_svg "http://www.w3.org/2000/svg">
	<!ENTITY ns_xlink "http://www.w3.org/1999/xlink">
	<!ENTITY st0 "font-size:7px;font-family:'MS-PGothic';adobe-font-script:japanese;">
	<!ENTITY st1 "font-size:6px;font-family:'ArialMT';">
	<!-- White fill  -->
	<!ENTITY st2 "fill:#FFFFFF;stroke:#000000; stroke-width:1.41;stroke-linecap:round;stroke-linejoin:round;">
	<!-- Yellow fill  -->
	<!ENTITY st3 "fill:#FFFFCC;stroke:#FFFFCC; stroke-width:0.1;stroke-linecap:round;stroke-linejoin:round;">
	<!-- Gray fill  -->
	<!ENTITY st4 "fill:#CCCCCC;stroke:#CCCCCC; stroke-width:0.1;stroke-linecap:round;stroke-linejoin:round;">
	<!-- Light-blue fill -->
	<!ENTITY st5 "fill:#CCECF4;stroke:#000000; stroke-width:1.133;stroke-linecap:round;stroke-linejoin:round;">
	<!ENTITY st6 "fill:none;stroke-linecap:butt; stroke-linejoin:round;">
	<!ENTITY st7 "fill:none;stroke:#000000;stroke-linecap:round;stroke-linejoin:round;">
	<!ENTITY st8 "enable-background:new    ;">
	<!-- Black fill -->
	<!ENTITY st9 "fill:#000000;stroke:#000000; stroke-linecap:round;stroke-linejoin:round;">
	<!-- SRS note   -->
	<!ENTITY st10 "font-size:9px;font-family:'ArialMT';">
	<!ENTITY st11 "font-size:9px;font-family:'Svg Symbol';">
	<!ENTITY st12 "font-size:6px;font-family:'Svg Symbol';">
	<!ENTITY st13 "fill:none;stroke:#ff0000;stroke-linecap:round;stroke-linejoin:round;">
	<!-- Yellow fill  -->
	<!ENTITY st14 "fill:#FFFF00;stroke:#FFFF00; stroke-width:0.1;stroke-linecap:round;stroke-linejoin:round;">
	<!ENTITY st15 "font-size:6px;font-family:'MS-PGothic';adobe-font-script:japanese;">
	<!ENTITY st16 "1.00 0.00 0.00 1.00">
	<!ENTITY st17 "0.00 -1.00 1.00 0.00">
	<!ENTITY st18 "font-size:6px;font-family:'Arial';">
	<!ENTITY st19 "font-size:9px;font-family:'Arial';">
	<!ENTITY st20 "font-size:6px;font-family:'MS-PGothic','MS PGothic';adobe-font-script:japanese;">
	<!ENTITY st21 "font-size:7px;font-family:'MS-PGothic','MS PGothic';adobe-font-script:japanese;">
	<!ATTLIST svg
		xmlns:ewd CDATA #FIXED "http://shcl.co.jp/ewd"
		xmlns:a CDATA #FIXED "http://ns.adobe.com/AdobeSVGViewerExtensions/3.0/"
		ewd:ver CDATA #IMPLIED
	>
	<!ATTLIST a
		ewd:lineID CDATA #IMPLIED
		ewd:groupID CDATA #IMPLIED
		ewd:figtype CDATA #IMPLIED
		ewd:code CDATA #IMPLIED
		ewd:figID CDATA #IMPLIED
		ewd:pinNo CDATA #IMPLIED
		ewd:comment CDATA #IMPLIED >
	<!ATTLIST g
		ewd:lineID CDATA #IMPLIED
		ewd:groupID CDATA #IMPLIED
		ewd:figtype CDATA #IMPLIED
		ewd:code CDATA #IMPLIED
		ewd:figID CDATA #IMPLIED
		ewd:pinNo CDATA #IMPLIED
		ewd:comment CDATA #IMPLIED >
	<!ATTLIST text
		ewd:textID CDATA #IMPLIED >
	<!ATTLIST title
		ewd:textID CDATA #IMPLIED >
]>
<!-- Generator: Shintec Hozumi YS   -->
<svg onload="call_execInitLoadProc_svg('system')" style="overflow:visible;  enable-background:new 0 0 2568.442 710.000" viewBox="0 0 2568.442 710.000" height="710.000" width="2568.442" xml:space="preserve" ewd:ver="2.3.1.16" xmlns="&ns_svg;" xmlns:a="http://ns.adobe.com/AdobeSVGViewerExtensions/3.0/" xmlns:ewd="http://shcl.co.jp/ewd" xmlns:xlink="&ns_xlink;">
<text style="&st18;" transform="matrix(&st17;  2520.38  118.44 )">R</text><text style="&st18;" transform="matrix(&st17;  2520.38  220.42 )">R</text><text style="&st18;" transform="matrix(&st17;  2520.38  165.18 )">R</text><path style="stroke-width: 1.42 ;&st7;  " d=" M  2520.55,   129.26  L  2515.58,   134.24  " /><path style="stroke-width: 1.42 ;&st7;  " d=" M  2527.61,   146.26  L  2532.58,   141.29  " /><path style="stroke-width: 1.42 ;&st7;  " d=" M  2515.58,   141.29  L  2520.55,   146.26  " /><path style="stroke-width: 1.42 ;&st7;  " d=" M  2532.58,   134.24  L  2527.61,   129.26  " /><path style="stroke-width: 1.42 ;&st7;  " d=" M  2532.58,   197.25  L  2524.08,   197.25  " /><g ewd:figtype="rb" ewd:figID="23" ewd:code="FUSE5"><text style="&st18;" transform="matrix(&st16;  2516.0  32.08 )">(BAT)</text><text style="&st18;" transform="matrix(&st16;  2517.74  86.47 )">2</text><text style="&st18;" transform="matrix(&st16;  2522.2  101.49 )">2</text><text style="&st18;" transform="matrix(&st16;  2540.5  53.34 )">10A <tspan x="0 " dy="6.0">DOME </tspan><tspan x="0 " dy="6.0">NO.1</tspan></text><path style="stroke-width: 0.28 ;&st9;  " d=" M  2524.08,    90.37  L  2521.24,    87.54  L  2521.24,    91.79  L  2524.08,    94.62  L  2526.91,    91.79  L  2526.91,    87.54  L  2524.08,    90.37  " /><path style="stroke-width: 1.42 ;&st7;   " d=" M  2530.45,    99.52  C  2530.45     97.17   2528.55     95.27   2526.20     95.27  " /><path style="stroke-width: 1.42 ;&st7;   " d=" M  2526.20,   103.77  C  2528.55    103.77   2530.45    101.87   2530.45     99.52  " /><path style="stroke-width: 1.42 ;&st7;   " d=" M  2517.70,    99.52  C  2517.70    101.87   2519.61    103.77   2521.95    103.77  " /><path style="stroke-width: 1.42 ;&st7;   " d=" M  2521.95,    95.27  C  2519.61     95.27   2517.70     97.17   2517.70     99.52  " /><path style="stroke-width: 0.85 ;&st7;  " d=" M  2524.08,    78.27  L  2524.08,    95.27  " /><path style="stroke-width: 1.42 ;&st7;  " d=" M  2526.20,   103.77  L  2521.95,   103.77  " /><path style="stroke-width: 1.42 ;&st7;  " d=" M  2526.20,    95.27  L  2521.95,    95.27  " /><path style="stroke-width: 1.42 ;&st7;  " d=" M  2511.33,    35.78  L  2511.33,    78.27  L  2536.83,    78.27  L  2536.83,    35.78  L  2511.33,    35.78  " /><path style="stroke-width: 0.85 ;&st7;   " d=" M  2525.49,    68.36  C  2525.49     67.57   2524.86     66.94   2524.08     66.94  " /><path style="stroke-width: 0.85 ;&st7;   " d=" M  2524.08,    66.94  C  2523.30     66.94   2522.66     67.57   2522.66     68.36  " /><path style="stroke-width: 0.85 ;&st7;   " d=" M  2522.66,    68.36  C  2522.66     69.14   2523.30     69.77   2524.08     69.77  " /><path style="stroke-width: 0.85 ;&st7;   " d=" M  2524.08,    69.77  C  2524.86     69.77   2525.49     69.14   2525.49     68.36  " /><path style="stroke-width: 0.85 ;&st7;   " d=" M  2525.49,    45.69  C  2525.49     44.91   2524.86     44.28   2524.08     44.28  " /><path style="stroke-width: 0.85 ;&st7;   " d=" M  2524.08,    44.28  C  2523.30     44.28   2522.66     44.91   2522.66     45.69  " /><path style="stroke-width: 0.85 ;&st7;   " d=" M  2522.66,    45.69  C  2522.66     46.48   2523.30     47.11   2524.08     47.11  " /><path style="stroke-width: 0.85 ;&st7;   " d=" M  2524.08,    47.11  C  2524.86     47.11   2525.49     46.48   2525.49     45.69  " /><path style="stroke-width: 1.42 ;&st7;   " d=" M  2524.08,    66.94  C  2526.82     65.33   2527.73     61.80   2526.12     59.06  " /><path style="stroke-width: 1.42 ;&st7;   " d=" M  2526.12,    59.06  C  2525.60     58.18   2524.96     57.55   2524.08     57.03  " /><path style="stroke-width: 1.42 ;&st7;   " d=" M  2524.08,    47.11  C  2521.34     48.72   2520.43     52.25   2522.04     54.99  " /><path style="stroke-width: 1.42 ;&st7;   " d=" M  2522.04,    54.99  C  2522.56     55.87   2523.20     56.51   2524.08     57.03  " /><path style="stroke-width: 0.85 ;&st7;  " d=" M  2524.08,    69.77  L  2524.08,    78.27  " /></g><g ewd:figtype="w2w" ewd:figID="59" ewd:code="IL6"><text style="&st18;" transform="matrix(&st16;  2510.66  194.97 )">8</text><path style="stroke-width: 1.42 ;&st7;  " d=" M  2528.33,   202.92  L  2524.08,   198.67  L  2519.83,   202.92  " /><path style="stroke-width: 1.42 ;&st7;  " d=" M  2528.33,   206.32  L  2524.08,   202.07  L  2519.83,   206.32  "/><g ewd:code="" ewd:figID="99" ewd:comment="" ewd:figtype="commref"><text style="&st18;" transform="matrix(&st16;  2533.11  194.97 )">(RHD)</text></g></g><g ewd:figtype="w2w" ewd:figID="60" ewd:code="IL2"><text style="&st18;" transform="matrix(&st16;  2510.66  186.47 )">2</text><g ewd:code="" ewd:figID="98" ewd:comment="" ewd:figtype="commref"><text style="&st18;" transform="matrix(&st16;  2533.11  186.47 )">(LHD)</text></g></g></svg>
