<?xml version="1.0" encoding="utf-8"?>
<!DOCTYPE svg PUBLIC "-//W3C//DTD SVG 1.0//EN" "http://www.w3.org/TR/2001/REC-SVG-20010904/DTD/svg10.dtd"[
	<!ENTITY ns_flows "http://ns.adobe.com/Flows/1.0/">
	<!ENTITY ns_svg "http://www.w3.org/2000/svg">
	<!ENTITY ns_xlink "http://www.w3.org/1999/xlink">
	<!ENTITY st0 "font-size:7px;font-family:'MS-PGothic';adobe-font-script:japanese;">
	<!ENTITY st1 "font-size:6px;font-family:'ArialMT';">
	<!-- White fill  -->
	<!ENTITY st2 "fill:#FFFFFF;stroke:#000000; stroke-width:1.41;stroke-linecap:round;stroke-linejoin:round;">
	<!-- Yellow fill  -->
	<!ENTITY st3 "fill:#FFFFCC;stroke:#FFFFCC; stroke-width:0.1;stroke-linecap:round;stroke-linejoin:round;">
	<!-- Gray fill  -->
	<!ENTITY st4 "fill:#CCCCCC;stroke:#CCCCCC; stroke-width:0.1;stroke-linecap:round;stroke-linejoin:round;">
	<!-- Light-blue fill -->
	<!ENTITY st5 "fill:#CCECF4;stroke:#000000; stroke-width:1.133;stroke-linecap:round;stroke-linejoin:round;">
	<!ENTITY st6 "fill:none;stroke-linecap:butt; stroke-linejoin:round;">
	<!ENTITY st7 "fill:none;stroke:#000000;stroke-linecap:round;stroke-linejoin:round;">
	<!ENTITY st8 "enable-background:new    ;">
	<!-- Black fill -->
	<!ENTITY st9 "fill:#000000;stroke:#000000; stroke-linecap:round;stroke-linejoin:round;">
	<!-- SRS note   -->
	<!ENTITY st10 "font-size:9px;font-family:'ArialMT';">
	<!ENTITY st11 "font-size:9px;font-family:'Svg Symbol';">
	<!ENTITY st12 "font-size:6px;font-family:'Svg Symbol';">
	<!ENTITY st13 "fill:none;stroke:#ff0000;stroke-linecap:round;stroke-linejoin:round;">
	<!-- Yellow fill  -->
	<!ENTITY st14 "fill:#FFFF00;stroke:#FFFF00; stroke-width:0.1;stroke-linecap:round;stroke-linejoin:round;">
	<!ENTITY st15 "font-size:6px;font-family:'MS-PGothic';adobe-font-script:japanese;">
	<!ENTITY st16 "1.00 0.00 0.00 1.00">
	<!ENTITY st17 "0.00 -1.00 1.00 0.00">
	<!ENTITY st18 "font-size:6px;font-family:'Arial';">
	<!ENTITY st19 "font-size:9px;font-family:'Arial';">
	<!ENTITY st20 "font-size:6px;font-family:'MS-PGothic','MS PGothic';adobe-font-script:japanese;">
	<!ENTITY st21 "font-size:7px;font-family:'MS-PGothic','MS PGothic';adobe-font-script:japanese;">
	<!ATTLIST svg
		xmlns:ewd CDATA #FIXED "http://shcl.co.jp/ewd"
		xmlns:a CDATA #FIXED "http://ns.adobe.com/AdobeSVGViewerExtensions/3.0/"
		ewd:ver CDATA #IMPLIED
	>
	<!ATTLIST a
		ewd:lineID CDATA #IMPLIED
		ewd:groupID CDATA #IMPLIED
		ewd:figtype CDATA #IMPLIED
		ewd:code CDATA #IMPLIED
		ewd:figID CDATA #IMPLIED
		ewd:pinNo CDATA #IMPLIED
		ewd:comment CDATA #IMPLIED >
	<!ATTLIST g
		ewd:lineID CDATA #IMPLIED
		ewd:groupID CDATA #IMPLIED
		ewd:figtype CDATA #IMPLIED
		ewd:code CDATA #IMPLIED
		ewd:figID CDATA #IMPLIED
		ewd:pinNo CDATA #IMPLIED
		ewd:comment CDATA #IMPLIED >
	<!ATTLIST text
		ewd:textID CDATA #IMPLIED >
	<!ATTLIST title
		ewd:textID CDATA #IMPLIED >
]>
<!-- Generator: Shintec Hozumi YS   -->
<svg onload="call_execInitLoadProc_svg('system')" style="overflow:visible;  enable-background:new 0 0 2568.442 710.000" viewBox="0 0 2568.442 710.000" height="710.000" width="2568.442" xml:space="preserve" ewd:ver="2.3.1.16" xmlns="&ns_svg;" xmlns:a="http://ns.adobe.com/AdobeSVGViewerExtensions/3.0/" xmlns:ewd="http://shcl.co.jp/ewd" xmlns:xlink="&ns_xlink;">
<text style="&st18;" transform="matrix(&st16;  1653.82  202.05 )" ewd:textID="38">No. 30 Junction Connector</text><text style="&st18;" transform="matrix(&st16;  1668.0  448.51 )">W-B</text><text style="&st18;" transform="matrix(&st17;  1747.01  406.94 )">W-B</text><text style="&st18;" transform="matrix(&st17;  1696.02  406.94 )">W-B</text><text style="&st18;" transform="matrix(&st17;  1645.03  406.94 )">W-B</text><text style="&st18;" transform="matrix(&st17;  1747.01  267.32 )">G</text><text style="&st18;" transform="matrix(&st17;  1696.02  267.32 )">G</text><text style="&st18;" transform="matrix(&st17;  1645.03  267.32 )">G</text><text style="&st18;" transform="matrix(&st17;  1815.0  267.32 )">G</text><text style="&st18;" transform="matrix(&st17;  1891.49  267.32 )">G</text><text style="&st18;" transform="matrix(&st17;  1815.0  432.44 )">W-B</text><text style="&st18;" transform="matrix(&st17;  1891.49  430.65 )">BR</text><text style="&st18;" transform="matrix(&st16;  1653.81  195.23 )">L52(A)</text><path style="stroke-width: 1.42 ;&st7;  " d=" M  1708.21,   448.68  L  1703.24,   443.71  " /><path style="stroke-width: 1.42 ;&st7;  " d=" M  1691.22,   455.74  L  1696.19,   460.71  " /><path style="stroke-width: 1.42 ;&st7;  " d=" M  1703.24,   460.71  L  1708.21,   455.74  " /><path style="stroke-width: 1.42 ;&st7;  " d=" M  1696.19,   443.71  L  1691.22,   448.68  " /><path style="stroke-width: 1.42 ;&st7;  " d=" M  1657.22,   448.68  L  1652.25,   443.71  " /><path style="stroke-width: 1.42 ;&st7;  " d=" M  1640.23,   455.74  L  1645.19,   460.71  " /><path style="stroke-width: 1.42 ;&st7;  " d=" M  1652.25,   460.71  L  1657.22,   455.74  " /><path style="stroke-width: 1.42 ;&st7;  " d=" M  1645.20,   443.71  L  1640.23,   448.68  " /><text style="&st18;" transform="matrix(&st16;  1523.52  448.51 )">W-B</text><text style="&st18;" transform="matrix(&st16;  1574.52  448.51 )">W-B</text><g ewd:figtype="conn" ewd:figID="18" ewd:code="L8"><path style="stroke-width: 0.85 ;&st7;   " d=" M  1648.72,   345.98  C  1650.28    345.99   1651.55    344.73   1651.56    343.18  " /><path style="stroke-width: 0.85 ;&st7;   " d=" M  1651.56,   343.18  C  1651.57    341.62   1650.31    340.36   1648.76    340.35  " /><path style="stroke-width: 0.85 ;&st7;   " d=" M  1648.76,   340.35  C  1647.73    340.34   1646.84    340.84   1646.32    341.73  " /><path style="stroke-width: 0.85 ;&st7;   " d=" M  1646.32,   341.73  C  1647.11    343.07   1648.84    343.51   1650.17    342.72  " /><path style="stroke-width: 0.85 ;&st7;   " d=" M  1650.17,   342.72  C  1651.51    341.93   1651.96    340.20   1651.17    338.86  " /><path style="stroke-width: 0.85 ;&st7;   " d=" M  1651.17,   338.86  C  1650.64    337.97   1649.76    337.47   1648.72    337.48  " /><path style="stroke-width: 1.42 ;&st7;   " d=" M  1657.22,   341.73  C  1657.22    337.03   1653.42    333.23   1648.72    333.23  " /><path style="stroke-width: 1.42 ;&st7;   " d=" M  1648.72,   333.23  C  1644.03    333.23   1640.23    337.03   1640.23    341.73  " /><path style="stroke-width: 1.42 ;&st7;   " d=" M  1640.23,   341.73  C  1640.23    346.42   1644.03    350.23   1648.72    350.23  " /><path style="stroke-width: 1.42 ;&st7;   " d=" M  1648.72,   350.23  C  1653.42    350.23   1657.22    346.42   1657.22    341.73  " /><path style="stroke-width: 0.85 ;&st7;  " d=" M  1648.72,   333.23  L  1648.72,   337.48  " /><path style="stroke-width: 0.85 ;&st7;  " d=" M  1648.72,   345.98  L  1648.72,   350.23  " /><text style="&st18;" transform="matrix(&st16;  1642.39  358.42 )">1</text><text style="&st18;" transform="matrix(&st16;  1642.39  329.54 )">2</text><g ewd:figtype="title"><text style="&st18;" transform="matrix(&st17;  1671.94  353.13 )" ewd:textID="25">Fuel Control <tspan x="0 " dy="6.0">Switch Assembly</tspan></text><text style="&st18;" transform="matrix(&st17;  1665.12  353.13 )">L8</text></g></g><g ewd:figtype="conn" ewd:figID="19" ewd:code="L19"><path style="stroke-width: 0.85 ;&st7;   " d=" M  1699.72,   345.98  C  1701.27    345.99   1702.54    344.73   1702.55    343.18  " /><path style="stroke-width: 0.85 ;&st7;   " d=" M  1702.55,   343.18  C  1702.56    341.62   1701.31    340.36   1699.75    340.35  " /><path style="stroke-width: 0.85 ;&st7;   " d=" M  1699.75,   340.35  C  1698.72    340.34   1697.83    340.84   1697.31    341.73  " /><path style="stroke-width: 0.85 ;&st7;   " d=" M  1697.31,   341.73  C  1698.10    343.07   1699.83    343.51   1701.17    342.72  " /><path style="stroke-width: 0.85 ;&st7;   " d=" M  1701.17,   342.72  C  1702.51    341.93   1702.95    340.20   1702.16    338.86  " /><path style="stroke-width: 0.85 ;&st7;   " d=" M  1702.16,   338.86  C  1701.63    337.97   1700.75    337.47   1699.72    337.48  " /><path style="stroke-width: 1.42 ;&st7;   " d=" M  1708.21,   341.73  C  1708.21    337.03   1704.41    333.23   1699.72    333.23  " /><path style="stroke-width: 1.42 ;&st7;   " d=" M  1699.72,   333.23  C  1695.02    333.23   1691.22    337.03   1691.22    341.73  " /><path style="stroke-width: 1.42 ;&st7;   " d=" M  1691.22,   341.73  C  1691.22    346.42   1695.02    350.23   1699.72    350.23  " /><path style="stroke-width: 1.42 ;&st7;   " d=" M  1699.72,   350.23  C  1704.41    350.23   1708.21    346.42   1708.21    341.73  " /><path style="stroke-width: 0.85 ;&st7;  " d=" M  1699.72,   333.23  L  1699.72,   337.48  " /><path style="stroke-width: 0.85 ;&st7;  " d=" M  1699.72,   345.98  L  1699.72,   350.23  " /><text style="&st18;" transform="matrix(&st16;  1693.38  358.42 )">1</text><text style="&st18;" transform="matrix(&st16;  1693.38  329.54 )">2</text><g ewd:figtype="title"><text style="&st18;" transform="matrix(&st17;  1716.11  353.13 )">L19</text><text style="&st18;" transform="matrix(&st17;  1722.93  353.13 )" ewd:textID="19">Cigarette Lighter <tspan x="0 " dy="6.0">Illumination (Cigarette </tspan><tspan x="0 " dy="6.0">Lighter Bezel Stay)</tspan></text></g></g><g ewd:figtype="conn" ewd:figID="20" ewd:code="L7"><path style="stroke-width: 0.85 ;&st7;   " d=" M  1750.71,   345.98  C  1752.26    345.99   1753.53    344.73   1753.54    343.18  " /><path style="stroke-width: 0.85 ;&st7;   " d=" M  1753.54,   343.18  C  1753.55    341.62   1752.30    340.36   1750.74    340.35  " /><path style="stroke-width: 0.85 ;&st7;   " d=" M  1750.74,   340.35  C  1749.71    340.34   1748.83    340.84   1748.30    341.73  " /><path style="stroke-width: 0.85 ;&st7;   " d=" M  1748.30,   341.73  C  1749.09    343.07   1750.82    343.51   1752.16    342.72  " /><path style="stroke-width: 0.85 ;&st7;   " d=" M  1752.16,   342.72  C  1753.50    341.93   1753.94    340.20   1753.15    338.86  " /><path style="stroke-width: 0.85 ;&st7;   " d=" M  1753.15,   338.86  C  1752.62    337.97   1751.74    337.47   1750.71    337.48  " /><path style="stroke-width: 1.42 ;&st7;   " d=" M  1759.21,   341.73  C  1759.21    337.03   1755.40    333.23   1750.71    333.23  " /><path style="stroke-width: 1.42 ;&st7;   " d=" M  1750.71,   333.23  C  1746.01    333.23   1742.21    337.03   1742.21    341.73  " /><path style="stroke-width: 1.42 ;&st7;   " d=" M  1742.21,   341.73  C  1742.21    346.42   1746.01    350.23   1750.71    350.23  " /><path style="stroke-width: 1.42 ;&st7;   " d=" M  1750.71,   350.23  C  1755.40    350.23   1759.21    346.42   1759.21    341.73  " /><path style="stroke-width: 0.85 ;&st7;  " d=" M  1750.71,   333.23  L  1750.71,   337.48  " /><path style="stroke-width: 0.85 ;&st7;  " d=" M  1750.71,   345.98  L  1750.71,   350.23  " /><text style="&st18;" transform="matrix(&st16;  1744.37  358.42 )">2</text><text style="&st18;" transform="matrix(&st16;  1744.37  329.54 )">1</text><g ewd:figtype="title"><text style="&st18;" transform="matrix(&st17;  1767.1  353.13 )">L7</text><text style="&st18;" transform="matrix(&st17;  1773.92  353.13 )" ewd:textID="44">Rear Window Defogger <tspan x="0 " dy="6.0">Switch Assembly</tspan></text></g></g><g ewd:figtype="conn" ewd:figID="21" ewd:code="L9"><path style="stroke-width: 1.42 ;&st7;  " d=" M  1801.70,   333.23  L  1801.70,   367.22  L  1835.69,   367.22  L  1835.69,   333.23  L  1801.70,   333.23  " /><g ewd:lineID="69"><text style="&st18;" transform="matrix(&st16;  1812.36  375.42 )">8</text><text style="&st18;" transform="matrix(&st16;  1811.78  363.53 )">GND</text></g><g ewd:lineID="70"><text style="&st18;" transform="matrix(&st16;  1812.36  329.54 )">3</text><text style="&st18;" transform="matrix(&st16;  1812.59  340.86 )">ILL+</text></g><g ewd:figtype="title"><text style="&st18;" transform="matrix(&st17;  1850.41  370.13 )" ewd:textID="20">Clock Assembly</text><text style="&st18;" transform="matrix(&st17;  1843.59  370.12 )">L9</text></g></g><g ewd:figtype="conn" ewd:figID="22" ewd:code="L42"><path style="stroke-width: 1.42 ;&st7;  " d=" M  1878.19,   333.23  L  1878.19,   367.22  L  1912.18,   367.22  L  1912.18,   333.23  L  1878.19,   333.23  " /><g ewd:lineID="71"><text style="&st18;" transform="matrix(&st16;  1888.84  375.42 )">7</text><text style="&st18;" transform="matrix(&st16;  1892.92  363.53 )">E</text></g><g ewd:lineID="72"><text style="&st18;" transform="matrix(&st16;  1885.51  329.54 )">10</text><text style="&st18;" transform="matrix(&st16;  1889.08  340.86 )">ILL+</text></g><g ewd:figtype="title"><text style="&st18;" transform="matrix(&st17;  1926.9  370.13 )" ewd:textID="43">Radio Receiver Assembly</text><text style="&st18;" transform="matrix(&st17;  1920.07  370.12 )">L42</text></g></g><g ewd:figtype="gp" ewd:figID="67" ewd:code="LB"><path style="stroke-width: 0.85 ;&st7;  " d=" M  1818.70,   697.25  L  1818.70,   701.50  " /><path style="stroke-width: 0.85 ;&st7;  " d=" M  1810.20,   701.50  L  1827.19,   701.50  " /><path style="stroke-width: 0.85 ;&st7;  " d=" M  1814.45,   704.33  L  1822.94,   704.33  " /><path style="stroke-width: 0.85 ;&st7;  " d=" M  1815.86,   707.17  L  1821.53,   707.17  " /><path style="stroke-width: 0.85 ;&st7;  " d=" M  1817.28,   710.00  L  1820.11,   710.00  "/></g></svg>
