<?xml version="1.0" encoding="utf-8"?>
<!DOCTYPE svg PUBLIC "-//W3C//DTD SVG 1.0//EN" "http://www.w3.org/TR/2001/REC-SVG-20010904/DTD/svg10.dtd"[
	<!ENTITY ns_flows "http://ns.adobe.com/Flows/1.0/">
	<!ENTITY ns_svg "http://www.w3.org/2000/svg">
	<!ENTITY ns_xlink "http://www.w3.org/1999/xlink">
	<!ENTITY st0 "font-size:7px;font-family:'MS-PGothic';adobe-font-script:japanese;">
	<!ENTITY st1 "font-size:6px;font-family:'ArialMT';">
	<!-- White fill  -->
	<!ENTITY st2 "fill:#FFFFFF;stroke:#000000; stroke-width:1.41;stroke-linecap:round;stroke-linejoin:round;">
	<!-- Yellow fill  -->
	<!ENTITY st3 "fill:#FFFFCC;stroke:#FFFFCC; stroke-width:0.1;stroke-linecap:round;stroke-linejoin:round;">
	<!-- Gray fill  -->
	<!ENTITY st4 "fill:#CCCCCC;stroke:#CCCCCC; stroke-width:0.1;stroke-linecap:round;stroke-linejoin:round;">
	<!-- Light-blue fill -->
	<!ENTITY st5 "fill:#CCECF4;stroke:#000000; stroke-width:1.133;stroke-linecap:round;stroke-linejoin:round;">
	<!ENTITY st6 "fill:none;stroke-linecap:butt; stroke-linejoin:round;">
	<!ENTITY st7 "fill:none;stroke:#000000;stroke-linecap:round;stroke-linejoin:round;">
	<!ENTITY st8 "enable-background:new    ;">
	<!-- Black fill -->
	<!ENTITY st9 "fill:#000000;stroke:#000000; stroke-linecap:round;stroke-linejoin:round;">
	<!-- SRS note   -->
	<!ENTITY st10 "font-size:9px;font-family:'ArialMT';">
	<!ENTITY st11 "font-size:9px;font-family:'Svg Symbol';">
	<!ENTITY st12 "font-size:6px;font-family:'Svg Symbol';">
	<!ENTITY st13 "fill:none;stroke:#ff0000;stroke-linecap:round;stroke-linejoin:round;">
	<!-- Yellow fill  -->
	<!ENTITY st14 "fill:#FFFF00;stroke:#FFFF00; stroke-width:0.1;stroke-linecap:round;stroke-linejoin:round;">
	<!ENTITY st15 "font-size:6px;font-family:'MS-PGothic';adobe-font-script:japanese;">
	<!ENTITY st16 "1.00 0.00 0.00 1.00">
	<!ENTITY st17 "0.00 -1.00 1.00 0.00">
	<!ENTITY st18 "font-size:6px;font-family:'Arial';">
	<!ENTITY st19 "font-size:9px;font-family:'Arial';">
	<!ENTITY st20 "font-size:6px;font-family:'MS-PGothic','MS PGothic';adobe-font-script:japanese;">
	<!ENTITY st21 "font-size:7px;font-family:'MS-PGothic','MS PGothic';adobe-font-script:japanese;">
	<!ATTLIST svg
		xmlns:ewd CDATA #FIXED "http://shcl.co.jp/ewd"
		xmlns:a CDATA #FIXED "http://ns.adobe.com/AdobeSVGViewerExtensions/3.0/"
		ewd:ver CDATA #IMPLIED
	>
	<!ATTLIST a
		ewd:lineID CDATA #IMPLIED
		ewd:groupID CDATA #IMPLIED
		ewd:figtype CDATA #IMPLIED
		ewd:code CDATA #IMPLIED
		ewd:figID CDATA #IMPLIED
		ewd:pinNo CDATA #IMPLIED
		ewd:comment CDATA #IMPLIED >
	<!ATTLIST g
		ewd:lineID CDATA #IMPLIED
		ewd:groupID CDATA #IMPLIED
		ewd:figtype CDATA #IMPLIED
		ewd:code CDATA #IMPLIED
		ewd:figID CDATA #IMPLIED
		ewd:pinNo CDATA #IMPLIED
		ewd:comment CDATA #IMPLIED >
	<!ATTLIST text
		ewd:textID CDATA #IMPLIED >
	<!ATTLIST title
		ewd:textID CDATA #IMPLIED >
]>
<!-- Generator: Shintec Hozumi YS   -->
<svg onload="call_execInitLoadProc_svg('system')" style="overflow:visible;  enable-background:new 0 0 1513.060 710.000" viewBox="0 0 1513.060 710.000" height="710.000" width="1513.060" xml:space="preserve" ewd:ver="2.3.1.16" xmlns="&ns_svg;" xmlns:a="http://ns.adobe.com/AdobeSVGViewerExtensions/3.0/" xmlns:ewd="http://shcl.co.jp/ewd" xmlns:xlink="&ns_xlink;"><script type="text/javascript" xlink:href="../../../../../system/js/ewd/fig/svgfig.js" xmlns:xlink="http://www.w3.org/1999/xlink" />
<g id="ewd_top"><a ewd:figtype="conn" style="cursor:pointer;" ewd:code="L35,L36" ewd:figID="1"><path style="fill:#CCECF4;stroke:#000000; stroke-width:1.133; stroke-linecap:round;stroke-linejoin:round; " d=" M   900.85,   469.21  L   900.85,   486.20  L   917.85,   486.20  L   917.85,   469.21  L   900.85,   469.21 " /><title ewd:textID="33">No. 27 Junction Connector , No. 28 Junction Connector</title></a><a ewd:figtype="conn" style="cursor:pointer;" ewd:code="I67" ewd:figID="2"><path style="fill:#CCECF4;stroke:#000000; stroke-width:1.133; stroke-linecap:round;stroke-linejoin:round; " d=" M  1249.29,   341.73  L  1266.29,   341.73  L  1266.29,   358.73  L  1249.29,   358.73  L  1249.29,   341.73 " /><title ewd:textID="30">No. 16 Junction Connector</title></a><a ewd:figtype="conn" style="cursor:pointer;" ewd:code="I61" ewd:figID="3"><path style="fill:#CCECF4;stroke:#000000; stroke-width:1.133; stroke-linecap:round;stroke-linejoin:round; " d=" M  1351.27,   316.23  L  1368.27,   316.23  L  1368.27,   333.23  L  1351.27,   333.23  L  1351.27,   316.23 " /><title ewd:textID="28">No. 11 Junction Connector</title></a><a ewd:figtype="conn" style="cursor:pointer;" ewd:code="S6" ewd:figID="4"><path style="fill:#CCECF4;stroke:#000000; stroke-width:1.133; stroke-linecap:round;stroke-linejoin:round; " d=" M  1206.80,   656.18  L  1206.80,   622.18  L  1189.80,   622.18  L  1189.80,   656.18  L  1206.80,   656.18 " /><title ewd:textID="21">Front Door Courtesy Light Switch Assembly LH</title></a><a ewd:figtype="conn" style="cursor:pointer;" ewd:code="U1" ewd:figID="5"><path style="fill:#CCECF4;stroke:#000000; stroke-width:1.133; stroke-linecap:round;stroke-linejoin:round; " d=" M  1266.29,   656.18  L  1266.29,   622.18  L  1249.29,   622.18  L  1249.29,   656.18  L  1266.29,   656.18 " /><title ewd:textID="21">Front Door Courtesy Light Switch Assembly LH</title></a><a ewd:figtype="conn" style="cursor:pointer;" ewd:code="S4" ewd:figID="6"><path style="fill:#CCECF4;stroke:#000000; stroke-width:1.133; stroke-linecap:round;stroke-linejoin:round; " d=" M  1368.27,   656.18  L  1368.27,   622.18  L  1351.27,   622.18  L  1351.27,   656.18  L  1368.27,   656.18 " /><title ewd:textID="22">Front Door Courtesy Light Switch Assembly RH</title></a><a ewd:figtype="conn" style="cursor:pointer;" ewd:code="L52" ewd:figID="7"><path style="fill:#CCECF4;stroke:#000000; stroke-width:1.133; stroke-linecap:round;stroke-linejoin:round; " d=" M   424.93,   197.25  L   424.93,   214.25  L   441.93,   214.25  L   441.93,   197.25  L   424.93,   197.25 " /><title ewd:textID="35">No. 30 Junction Connector</title></a><a ewd:figtype="conn" style="cursor:pointer;" ewd:code="I110" ewd:figID="8"><path style="fill:#CCECF4;stroke:#000000; stroke-width:1.133; stroke-linecap:round;stroke-linejoin:round; " d=" M   365.44,   265.24  L   365.44,   282.24  L   382.44,   282.24  L   382.44,   265.24  L   365.44,   265.24 " /><title ewd:textID="37">No. 33 Junction Connector</title></a><a ewd:figtype="rb" style="cursor:pointer;" ewd:code="FUSE60" ewd:figID="9"><path style="fill:#CCECF4;stroke:#000000; stroke-width:0; stroke-linecap:round;stroke-linejoin:round; " d=" M    46.74,    35.78  L    46.74,    78.27  L    72.24,    78.27  L    72.24,    35.78  L    46.74,    35.78 " /></a><a ewd:figtype="rb" style="cursor:pointer;" ewd:code="FUSE19" ewd:figID="10"><path style="fill:#CCECF4;stroke:#000000; stroke-width:0; stroke-linecap:round;stroke-linejoin:round; " d=" M   259.21,    78.27  L   259.21,   120.77  L   284.70,   120.77  L   284.70,    78.27  L   259.21,    78.27 " /></a><a ewd:figtype="rb" style="cursor:pointer;" ewd:code="2" ewd:figID="11"><path style="fill:#CCECF4;stroke:#000000; stroke-width:0; stroke-linecap:round;stroke-linejoin:round; " d=" M   161.47,   171.76  L   118.98,   171.76  L   118.98,   205.75  L   161.47,   205.75  L   161.47,   171.76 " /></a><a ewd:figtype="conn" style="cursor:pointer;" ewd:code="I61,I72" ewd:figID="12"><path style="fill:#CCECF4;stroke:#000000; stroke-width:1.133; stroke-linecap:round;stroke-linejoin:round; " d=" M   263.46,   265.24  L   263.46,   282.24  L   280.45,   282.24  L   280.45,   265.24  L   263.46,   265.24 " /><title ewd:textID="29">No. 11 Junction Connector , No. 21 Junction Connector</title></a><a ewd:figtype="rb" style="cursor:pointer;" ewd:code="FUSE18" ewd:figID="13"><path style="fill:#CCECF4;stroke:#000000; stroke-width:0; stroke-linecap:round;stroke-linejoin:round; " d=" M   888.10,    35.78  L   888.10,    78.27  L   913.60,    78.27  L   913.60,    35.78  L   888.10,    35.78 " /></a><a ewd:figtype="rb" style="cursor:pointer;" ewd:code="FUSE5" ewd:figID="14"><path style="fill:#CCECF4;stroke:#000000; stroke-width:0; stroke-linecap:round;stroke-linejoin:round; " d=" M   956.09,    35.78  L   956.09,    78.27  L   981.59,    78.27  L   981.59,    35.78  L   956.09,    35.78 " /></a><a ewd:figtype="conn" style="cursor:pointer;" ewd:code="L24" ewd:figID="15"><path style="fill:#CCECF4;stroke:#000000; stroke-width:1.133; stroke-linecap:round;stroke-linejoin:round; " d=" M    42.49,   384.22  L    42.49,   486.20  L   186.97,   486.20  L   186.97,   384.22  L    42.49,   384.22 " /><title ewd:textID="24">Headlight Dimmer Switch Assembly</title></a><a ewd:figtype="conn" style="cursor:pointer;" ewd:code="L53" ewd:figID="16"><path style="fill:#CCECF4;stroke:#000000; stroke-width:1.133; stroke-linecap:round;stroke-linejoin:round; " d=" M   152.97,   613.68  L   152.97,   630.68  L   169.97,   630.68  L   169.97,   613.68  L   152.97,   613.68 " /><title ewd:textID="36">No. 31 Junction Connector</title></a><a ewd:figtype="conn" style="cursor:pointer;" ewd:code="I72,I106,I118" ewd:figID="17"><path style="fill:#CCECF4;stroke:#000000; stroke-width:1.133; stroke-linecap:round;stroke-linejoin:round; " d=" M   824.36,   112.27  L   841.36,   112.27  L   841.36,   129.26  L   824.36,   129.26  L   824.36,   112.27 " /><title ewd:textID="27">No. 9 Junction Connector , No. 36 Junction Connector , No. 21 Junction Connector</title></a><a ewd:figtype="conn" style="cursor:pointer;" ewd:code="L25" ewd:figID="18"><path style="fill:#CCECF4;stroke:#000000; stroke-width:1.133; stroke-linecap:round;stroke-linejoin:round; " d=" M   586.40,   231.25  L   586.40,   375.72  L   985.84,   375.72  L   985.84,   231.25  L   586.40,   231.25 " /><title ewd:textID="20">Combination Meter Assembly</title></a><a ewd:figtype="fuse" style="cursor:pointer;" ewd:code="FUSE60" ewd:figID="61"><path style="&st7; stroke-width:0;" d=" M    46.74,    35.78  L    46.74,    78.27  L    72.24,    78.27  L    72.24,    35.78  L    46.74,    35.78 " /></a><a ewd:figtype="fuse" style="cursor:pointer;" ewd:code="FUSE19" ewd:figID="62"><path style="&st7; stroke-width:0;" d=" M   259.21,    78.27  L   259.21,   120.77  L   284.70,   120.77  L   284.70,    78.27  L   259.21,    78.27 " /></a><a ewd:figtype="fuse" style="cursor:pointer;" ewd:code="FUSE18" ewd:figID="63"><path style="&st7; stroke-width:0;" d=" M   888.10,    35.78  L   888.10,    78.27  L   913.60,    78.27  L   913.60,    35.78  L   888.10,    35.78 " /></a><a ewd:figtype="fuse" style="cursor:pointer;" ewd:code="FUSE5" ewd:figID="64"><path style="&st7; stroke-width:0;" d=" M   956.09,    35.78  L   956.09,    78.27  L   981.59,    78.27  L   981.59,    35.78  L   956.09,    35.78 " /></a><a style="cursor:pointer;" ewd:lineID="1"><path style="stroke:#000000;stroke-width: 5.10 ;&st6;" d=" M    59.49,   103.77  L    59.49,   137.76  " /><path style="stroke:#FFFFFF;stroke-width: 4.53 ;&st6;" d=" M    59.49,   103.77  L    59.49,   137.76  " /><path style="stroke:#00A0C6;stroke-width: 1.13 ;&st6;" d=" M    59.49,   103.77  L    59.49,   137.76  " /></a><a style="cursor:pointer;" ewd:lineID="2"><path style="stroke:#000000;stroke-width: 5.10 ;&st6;" d=" M   118.98,    95.27  L    93.48,    95.27  L    93.48,   171.76  L    59.49,   171.76  L    59.49,   152.49  " /><path style="stroke:#FFFFFF;stroke-width: 4.53 ;&st6;" d=" M   118.98,    95.27  L    93.48,    95.27  L    93.48,   171.76  L    59.49,   171.76  L    59.49,   152.49  " /><path style="stroke:#00A0C6;stroke-width: 1.13 ;&st6;" d=" M   118.98,    95.27  L    93.48,    95.27  L    93.48,   171.76  L    59.49,   171.76  L    59.49,   152.49  " /></a><a ewd:comment="21" style="cursor:pointer;" ewd:lineID="3"><path style="stroke:#7FC97F;stroke-width: 5.10 ;&st6;" d=" M   127.48,   314.25  L   127.48,   366.09  " /><path style="stroke:#FFFFFF;stroke-width: 2.27 ;&st6;" d=" M   127.48,   314.25  L   127.48,   366.09  " /><path style="stroke:#000000;stroke-width: 1.13 ;&st6;" d=" M   127.48,   314.25  L   127.48,   366.09  " /></a><a ewd:comment="22" style="cursor:pointer;" ewd:lineID="4"><path style="stroke:#56077D;stroke-width: 5.10 ;&st6;" d=" M   127.48,   313.97  L   127.48,   316.23  L   135.98,   324.73  L   152.97,   324.73  L   152.97,   350.23  L   135.98,   350.23  L   127.48,   358.73  L   127.48,   366.09  " /></a><a ewd:comment="23" style="cursor:pointer;" ewd:lineID="5"><path style="stroke:#7FC97F;stroke-width: 5.10 ;&st6;" d=" M   127.48,   231.25  L   127.48,   290.74  " /><path style="stroke:#FFFFFF;stroke-width: 2.27 ;&st6;" d=" M   127.48,   231.25  L   127.48,   290.74  " /><path style="stroke:#000000;stroke-width: 1.13 ;&st6;" d=" M   127.48,   231.25  L   127.48,   290.74  " /></a><a ewd:comment="24" style="cursor:pointer;" ewd:lineID="6"><path style="stroke:#56077D;stroke-width: 5.10 ;&st6;" d=" M   127.48,   231.25  L   127.48,   239.75  L   118.98,   248.24  L   101.98,   248.24  L   101.98,   273.74  L   118.98,   273.74  L   127.48,   282.24  L   127.48,   290.74  " /></a><a style="cursor:pointer;" ewd:lineID="7"><path style="stroke:#000000;stroke-width: 5.10 ;&st6;" d=" M   127.48,   103.77  L   127.48,   146.26  " /><path style="stroke:#FFFFFF;stroke-width: 4.53 ;&st6;" d=" M   127.48,   103.77  L   127.48,   146.26  " /><path style="stroke:#00A0C6;stroke-width: 1.13 ;&st6;" d=" M   127.48,   103.77  L   127.48,   146.26  " /></a><a style="cursor:pointer;" ewd:lineID="8"><path style="stroke:#000000;stroke-width: 5.10 ;&st6;" d=" M   135.98,    95.27  L   152.97,    95.27  L   152.97,   146.26  " /><path style="stroke:#FFFFFF;stroke-width: 4.53 ;&st6;" d=" M   135.98,    95.27  L   152.97,    95.27  L   152.97,   146.26  " /><path style="stroke:#00A0C6;stroke-width: 1.13 ;&st6;" d=" M   135.98,    95.27  L   152.97,    95.27  L   152.97,   146.26  " /></a><a style="cursor:pointer;" ewd:lineID="9"><path style="stroke:#000000;stroke-width: 5.10 ;&st6;" d=" M   152.97,   622.18  L   110.48,   622.18  L   110.48,   681.67  " /><path style="stroke:#FFFFFF;stroke-width: 4.53 ;&st6;" d=" M   152.97,   622.18  L   110.48,   622.18  L   110.48,   681.67  " /><path style="stroke:#000000;stroke-width: 1.13 ;&st6;" d=" M   152.97,   622.18  L   110.48,   622.18  L   110.48,   681.67  " /></a><a style="cursor:pointer;" ewd:lineID="10"><path style="stroke:#008837;stroke-width: 5.10 ;&st6;" d=" M   152.97,   231.25  L   152.97,   248.24  L   203.97,   248.24  L   203.97,    27.28  L   271.95,    27.28  L   271.95,    44.28  " /></a><a style="cursor:pointer;" ewd:lineID="11"><path style="stroke:#000000;stroke-width: 5.10 ;&st6;" d=" M   161.47,   681.67  L   161.47,   630.68  " /><path style="stroke:#FFFFFF;stroke-width: 4.53 ;&st6;" d=" M   161.47,   681.67  L   161.47,   630.68  " /><path style="stroke:#000000;stroke-width: 1.13 ;&st6;" d=" M   161.47,   681.67  L   161.47,   630.68  " /></a><a style="cursor:pointer;" ewd:lineID="12"><path style="stroke:#000000;stroke-width: 5.10 ;&st6;" d=" M   161.47,   613.68  L   161.47,   554.19  " /><path style="stroke:#FFFFFF;stroke-width: 4.53 ;&st6;" d=" M   161.47,   613.68  L   161.47,   554.19  " /><path style="stroke:#000000;stroke-width: 1.13 ;&st6;" d=" M   161.47,   613.68  L   161.47,   554.19  " /></a><a style="cursor:pointer;" ewd:lineID="13"><path style="stroke:#000000;stroke-width: 5.10 ;&st6;" d=" M   161.47,   537.20  L   161.47,   504.33  " /><path style="stroke:#FFFFFF;stroke-width: 4.53 ;&st6;" d=" M   161.47,   537.20  L   161.47,   504.33  " /><path style="stroke:#000000;stroke-width: 1.13 ;&st6;" d=" M   161.47,   537.20  L   161.47,   504.33  " /></a><a style="cursor:pointer;" ewd:lineID="14"><path style="stroke:#008837;stroke-width: 5.10 ;&st6;" d=" M   271.95,   300.37  L   271.95,   358.73  L   373.94,   358.73  L   373.94,   282.24  " /></a><a style="cursor:pointer;" ewd:lineID="15"><path style="stroke:#008837;stroke-width: 5.10 ;&st6;" d=" M   271.95,   154.76  L   271.95,   247.11  " /></a><a style="cursor:pointer;" ewd:lineID="16"><path style="stroke:#008837;stroke-width: 5.10 ;&st6;" d=" M   373.94,   228.98  L   373.94,   265.24  " /></a><a style="cursor:pointer;" ewd:lineID="17"><path style="stroke:#008837;stroke-width: 5.10 ;&st6;" d=" M   373.94,   214.25  L   373.94,   180.26  L   424.93,   180.26  L   433.43,   188.75  L   433.43,   197.25  " /></a><a style="cursor:pointer;" ewd:lineID="18"><path style="stroke:#008837;stroke-width: 5.10 ;&st6;" d=" M   433.43,   214.25  L   433.43,   282.24  L   560.91,   282.24  L   560.91,   154.76  L   637.39,   154.76  L   637.39,   222.18  " /></a><a style="cursor:pointer;" ewd:lineID="19"><path style="stroke:#008837;stroke-width: 5.10 ;&st6;" d=" M   433.43,   146.26  L   433.43,   197.25  " /></a><a style="cursor:pointer;" ewd:lineID="20"><path style="stroke:#008837;stroke-width: 5.10 ;&st6;" d=" M   433.43,   129.26  L   433.43,    93.00  " /></a><a style="cursor:pointer;" ewd:lineID="21"><path style="stroke:#008837;stroke-width: 5.10 ;&st6;" d=" M   433.43,    78.27  L   433.43,    52.78  L   331.44,    52.78  L   331.44,   324.73  L   288.95,   324.73  L   271.95,   307.73  L   271.95,   300.37  " /></a><a ewd:comment="3" style="cursor:pointer;" ewd:lineID="22"><path style="stroke:#992903;stroke-width: 5.10 ;&st6;" d=" M   569.40,   605.18  L   569.40,   681.67  " /></a><a ewd:comment="3" style="cursor:pointer;" ewd:lineID="23"><path style="stroke:#992903;stroke-width: 5.10 ;&st6;" d=" M   569.40,   590.45  L   569.40,   562.69  L   611.90,   562.69  L   620.40,   554.19  L   620.40,   545.69  " /></a><a ewd:comment="2" style="cursor:pointer;" ewd:lineID="24"><path style="stroke:#992903;stroke-width: 5.10 ;&st6;" d=" M   620.40,   681.67  L   620.40,   656.18  " /></a><a ewd:comment="2" style="cursor:pointer;" ewd:lineID="25"><path style="stroke:#992903;stroke-width: 5.10 ;&st6;" d=" M   620.40,   639.18  L   620.40,   611.42  " /></a><a ewd:comment="2" style="cursor:pointer;" ewd:lineID="26"><path style="stroke:#992903;stroke-width: 5.10 ;&st6;" d=" M   620.40,   596.69  L   620.40,   545.69  " /></a><a ewd:comment="3,20" style="cursor:pointer;" ewd:lineID="27"><path style="stroke:#992903;stroke-width: 5.10 ;&st6;" d=" M   620.40,   505.47  L   620.40,   503.20  L   628.89,   494.70  L   688.38,   494.70  L   688.38,   460.71  L   699.37,   449.73  " /></a><a ewd:comment="6,16,17" style="cursor:pointer;" ewd:lineID="28"><path style="stroke:#992903;stroke-width: 5.10 ;&st6;" d=" M   620.40,   426.71  L   620.40,   505.47  " /></a><a style="cursor:pointer;" ewd:lineID="29"><path style="stroke:#992903;stroke-width: 5.10 ;&st6;" d=" M   620.40,   384.79  L   620.40,   403.48  " /></a><a ewd:comment="21" style="cursor:pointer;" ewd:lineID="30"><path style="stroke:#000000;stroke-width: 5.10 ;&st6;" d=" M   679.89,   112.27  L   679.89,   188.75  L   696.88,   188.75  L   713.88,   214.25  L   713.88,   222.18  " /><path style="stroke:#FFFFFF;stroke-width: 2.27 ;&st6;" d=" M   679.89,   112.27  L   679.89,   188.75  L   696.88,   188.75  L   713.88,   214.25  L   713.88,   222.18  " /><path style="stroke:#FFE600;stroke-width: 1.13 ;&st6;" d=" M   679.89,   112.27  L   679.89,   188.75  L   696.88,   188.75  L   713.88,   214.25  L   713.88,   222.18  " /></a><a ewd:comment="22" style="cursor:pointer;" ewd:lineID="31"><path style="stroke:#56077D;stroke-width: 5.10 ;&st6;" d=" M   679.89,   112.27  L   679.89,   120.77  L   671.39,   129.26  L   654.39,   129.26  L   654.39,   205.75  L   688.38,   205.75  L   713.88,   214.25  L   713.88,   222.18  " /></a><a ewd:comment="23" style="cursor:pointer;" ewd:lineID="32"><path style="stroke:#000000;stroke-width: 5.10 ;&st6;" d=" M   679.89,    97.25  L   679.89,    27.28  L   849.86,    27.28  L   849.86,    61.28  L   832.86,    78.27  L   832.86,    85.07  " /><path style="stroke:#FFFFFF;stroke-width: 2.27 ;&st6;" d=" M   679.89,    97.25  L   679.89,    27.28  L   849.86,    27.28  L   849.86,    61.28  L   832.86,    78.27  L   832.86,    85.07  " /><path style="stroke:#FFE600;stroke-width: 1.13 ;&st6;" d=" M   679.89,    97.25  L   679.89,    27.28  L   849.86,    27.28  L   849.86,    61.28  L   832.86,    78.27  L   832.86,    85.07  " /></a><a ewd:comment="24" style="cursor:pointer;" ewd:lineID="33"><path style="stroke:#56077D;stroke-width: 5.10 ;&st6;" d=" M   679.89,    97.54  L   679.89,    95.27  L   662.89,    78.27  L   662.89,    10.28  L   866.86,    10.28  L   866.86,    69.77  L   849.86,    69.77  L   832.86,    78.27  L   832.86,    85.07  " /></a><a ewd:comment="1,3,20" style="cursor:pointer;" ewd:lineID="34"><path style="stroke:#992903;stroke-width: 5.10 ;&st6;" d=" M   696.88,   443.71  L   628.89,   443.71  L   620.40,   435.21  L   620.40,   426.71  " /></a><a ewd:comment="1" style="cursor:pointer;" ewd:lineID="35"><path style="stroke:#992903;stroke-width: 5.10 ;&st6;" d=" M   705.38,   681.67  L   705.38,   656.18  " /></a><a ewd:comment="1" style="cursor:pointer;" ewd:lineID="36"><path style="stroke:#992903;stroke-width: 5.10 ;&st6;" d=" M   705.38,   639.18  L   705.38,   611.42  " /></a><a ewd:comment="1" style="cursor:pointer;" ewd:lineID="37"><path style="stroke:#992903;stroke-width: 5.10 ;&st6;" d=" M   705.38,   588.19  L   705.38,   579.69  L   713.88,   571.19  L   747.88,   571.19  L   747.88,   520.20  " /></a><a ewd:comment="1" style="cursor:pointer;" ewd:lineID="38"><path style="stroke:#992903;stroke-width: 5.10 ;&st6;" d=" M   705.38,   452.21  L   705.38,   588.19  " /></a><a ewd:comment="21" style="cursor:pointer;" ewd:lineID="39"><path style="stroke:#000000;stroke-width: 5.10 ;&st6;" d=" M   713.88,   118.78  L   713.88,   222.18  " /><path style="stroke:#FFFFFF;stroke-width: 2.27 ;&st6;" d=" M   713.88,   118.78  L   713.88,   222.18  " /><path style="stroke:#FFE600;stroke-width: 1.13 ;&st6;" d=" M   713.88,   118.78  L   713.88,   222.18  " /></a><a ewd:comment="22" style="cursor:pointer;" ewd:lineID="40"><path style="stroke:#56077D;stroke-width: 5.10 ;&st6;" d=" M   713.88,   118.50  L   713.88,   120.77  L   722.38,   129.26  L   739.38,   129.26  L   739.38,   205.75  L   722.38,   205.75  L   713.88,   214.25  L   713.88,   222.18  " /></a><a ewd:comment="23" style="cursor:pointer;" ewd:lineID="41"><path style="stroke:#000000;stroke-width: 5.10 ;&st6;" d=" M   713.88,   103.77  L   713.88,    44.28  L   832.86,    44.28  L   832.86,    85.07  " /><path style="stroke:#FFFFFF;stroke-width: 2.27 ;&st6;" d=" M   713.88,   103.77  L   713.88,    44.28  L   832.86,    44.28  L   832.86,    85.07  " /><path style="stroke:#FFE600;stroke-width: 1.13 ;&st6;" d=" M   713.88,   103.77  L   713.88,    44.28  L   832.86,    44.28  L   832.86,    85.07  " /></a><a ewd:comment="24" style="cursor:pointer;" ewd:lineID="42"><path style="stroke:#56077D;stroke-width: 5.10 ;&st6;" d=" M   713.88,   103.77  L   713.88,    95.27  L   730.88,    78.27  L   730.88,    61.28  L   815.86,    61.28  L   832.86,    78.27  L   832.86,    85.07  " /></a><a ewd:comment="1" style="cursor:pointer;" ewd:lineID="43"><path style="stroke:#992903;stroke-width: 5.10 ;&st6;" d=" M   747.88,   505.47  L   747.88,   443.71  L   713.88,   443.71  " /></a><a ewd:comment="23" style="cursor:pointer;" ewd:lineID="44"><path style="stroke:#000000;stroke-width: 5.10 ;&st6;" d=" M   900.85,   103.77  L   900.85,   171.76  L   841.36,   171.76  L   832.86,   163.26  L   832.86,   156.46  " /><path style="stroke:#FFFFFF;stroke-width: 2.27 ;&st6;" d=" M   900.85,   103.77  L   900.85,   171.76  L   841.36,   171.76  L   832.86,   163.26  L   832.86,   156.46  " /><path style="stroke:#FFE600;stroke-width: 1.13 ;&st6;" d=" M   900.85,   103.77  L   900.85,   171.76  L   841.36,   171.76  L   832.86,   163.26  L   832.86,   156.46  " /></a><a ewd:comment="24" style="cursor:pointer;" ewd:lineID="45"><path style="stroke:#56077D;stroke-width: 5.10 ;&st6;" d=" M   900.85,   103.77  L   900.85,   112.27  L   909.35,   120.77  L   926.35,   120.77  L   926.35,   188.75  L   832.86,   188.75  L   832.86,   156.46  " /></a><a ewd:comment="15" style="cursor:pointer;" ewd:lineID="46"><path style="stroke:#000000;stroke-width: 5.10 ;&st6;" d=" M   909.35,   504.33  L   909.35,   520.20  L  1138.81,   520.20  L  1138.81,   231.25  L  1249.29,   231.25  L  1257.79,   239.75  L  1257.79,   248.24  " /><path style="stroke:#FFFFFF;stroke-width: 1.13 ;&st6;" d=" M   909.35,   504.33  L   909.35,   520.20  L  1138.81,   520.20  L  1138.81,   231.25  L  1249.29,   231.25  L  1257.79,   239.75  L  1257.79,   248.24  " /></a><a ewd:comment="15" style="cursor:pointer;" ewd:lineID="47"><path style="stroke:#000000;stroke-width: 5.10 ;&st6;" d=" M   909.35,   384.79  L   909.35,   451.08  " /><path style="stroke:#FFFFFF;stroke-width: 1.13 ;&st6;" d=" M   909.35,   384.79  L   909.35,   451.08  " /></a><a style="cursor:pointer;" ewd:lineID="48"><path style="stroke:#FF0000;stroke-width: 5.10 ;&st6;" d=" M   968.84,   222.18  L   968.84,   194.99  " /></a><a style="cursor:pointer;" ewd:lineID="49"><path style="stroke:#FF0000;stroke-width: 5.10 ;&st6;" d=" M   968.84,   146.26  L   968.84,   171.76  " /></a><a style="cursor:pointer;" ewd:lineID="50"><path style="stroke:#FF0000;stroke-width: 5.10 ;&st6;" d=" M   968.84,   103.77  L   968.84,   129.26  " /></a><a ewd:comment="8" style="cursor:pointer;" ewd:lineID="51"><path style="stroke:#000000;stroke-width: 5.10 ;&st6;" d=" M  1198.30,   543.43  L  1198.30,   622.18  " /></a><a ewd:comment="8,23" style="cursor:pointer;" ewd:lineID="52"><path style="stroke:#000000;stroke-width: 5.10 ;&st6;" d=" M  1198.30,   528.70  L  1198.30,   409.72  L  1249.29,   409.72  L  1257.79,   384.22  L  1257.79,   376.86  " /><path style="stroke:#FFFFFF;stroke-width: 1.13 ;&st6;" d=" M  1198.30,   528.70  L  1198.30,   409.72  L  1249.29,   409.72  L  1257.79,   384.22  L  1257.79,   376.86  " /></a><a ewd:comment="9,10" style="cursor:pointer;" ewd:lineID="53"><path style="stroke:#000000;stroke-width: 5.10 ;&st6;" d=" M  1257.79,   545.69  L  1257.79,   622.18  "/></a><a ewd:comment="8,24" style="cursor:pointer;" ewd:lineID="54"> d=" M  1257.79,   376.86  L  1257.79,   384.22  L  1249.29,   392.72  L  1172.80,   392.72  L  1172.80,   511.70  L  1189.80,   511.70  L  1198.30,   520.20  L  1198.30,   528.70 
	
		<path style="stroke:#000000;stroke-width: 5.10 ;&st6;" d=" M  1257.79,   376.86  L  1257.79,   384.22  L  1249.29,   392.72  L  1172.80,   392.72  L  1172.80,   511.70  L  1189.80,   511.70  L  1198.30,   520.20  L  1198.30,   528.70  " /><path style="stroke:#FFFFFF;stroke-width: 4.53 ;&st6;" d=" M  1257.79,   376.86  L  1257.79,   384.22  L  1249.29,   392.72  L  1172.80,   392.72  L  1172.80,   511.70  L  1189.80,   511.70  L  1198.30,   520.20  L  1198.30,   528.70  " /></a><a ewd:comment="9,23,10,23" style="cursor:pointer;" ewd:lineID="55"><path style="stroke:#000000;stroke-width: 5.10 ;&st6;" d=" M  1257.79,   376.86  L  1257.79,   522.18  " /><path style="stroke:#FFFFFF;stroke-width: 1.13 ;&st6;" d=" M  1257.79,   376.86  L  1257.79,   522.18  " /></a><a ewd:comment="9,24,10,24" style="cursor:pointer;" ewd:lineID="56"><path style="stroke:#999999;stroke-width: 5.10 ;&st6;" d=" M  1257.79,   376.86  L  1257.79,   384.22  L  1266.29,   392.72  L  1283.29,   392.72  L  1283.29,   511.70  L  1266.29,   511.70  L  1257.79,   520.20  L  1257.79,   522.46  " /></a><a ewd:comment="23" style="cursor:pointer;" ewd:lineID="57"><path style="stroke:#000000;stroke-width: 5.10 ;&st6;" d=" M  1257.79,   262.97  L  1257.79,   332.66  " /><path style="stroke:#FFFFFF;stroke-width: 1.13 ;&st6;" d=" M  1257.79,   262.97  L  1257.79,   332.66  " /></a><a ewd:comment="24" style="cursor:pointer;" ewd:lineID="58"><path style="stroke:#999999;stroke-width: 5.10 ;&st6;" d=" M  1257.79,   262.97  L  1257.79,   265.24  L  1249.29,   273.74  L  1232.29,   273.74  L  1232.29,   316.23  L  1249.29,   316.23  L  1257.79,   324.73  L  1257.79,   332.66  " /></a><a ewd:comment="39" style="cursor:pointer;" ewd:lineID="59"><path style="stroke:#000000;stroke-width: 5.10 ;&st6;" d=" M  1257.79,   248.24  L  1257.79,   239.75  L  1274.79,   222.75  L  1274.79,   197.25  L  1087.82,   197.25  L  1087.82,   401.22  L   917.85,   401.22  L   909.35,   392.72  L   909.35,   384.79  " /><path style="stroke:#FFFFFF;stroke-width: 1.13 ;&st6;" d=" M  1257.79,   248.24  L  1257.79,   239.75  L  1274.79,   222.75  L  1274.79,   197.25  L  1087.82,   197.25  L  1087.82,   401.22  L   917.85,   401.22  L   909.35,   392.72  L   909.35,   384.79  " /></a><a ewd:comment="22" style="cursor:pointer;" ewd:lineID="60"><path style="stroke:#999999;stroke-width: 5.10 ;&st6;" d=" M  1257.79,   248.24  L  1257.79,   214.25  L  1113.31,   214.25  L  1113.31,   418.22  L   917.85,   418.22  L   909.35,   392.72  L   909.35,   384.79  " /></a><a ewd:comment="21" style="cursor:pointer;" ewd:lineID="61"><path style="stroke:#000000;stroke-width: 5.10 ;&st6;" d=" M  1359.77,   543.43  L  1359.77,   622.18  " /><path style="stroke:#FFFFFF;stroke-width: 1.13 ;&st6;" d=" M  1359.77,   543.43  L  1359.77,   622.18  " /></a><a ewd:comment="22" style="cursor:pointer;" ewd:lineID="62"><path style="stroke:#56077D;stroke-width: 5.10 ;&st6;" d=" M  1359.77,   543.43  L  1359.77,   545.69  L  1351.27,   554.19  L  1334.28,   554.19  L  1334.28,   605.18  L  1351.27,   605.18  L  1359.77,   613.68  L  1359.77,   622.18  " /></a><a ewd:comment="23" style="cursor:pointer;" ewd:lineID="63"><path style="stroke:#000000;stroke-width: 5.10 ;&st6;" d=" M  1359.77,   342.29  L  1359.77,   528.70  " /><path style="stroke:#FFFFFF;stroke-width: 1.13 ;&st6;" d=" M  1359.77,   342.29  L  1359.77,   528.70  "/></a><a ewd:comment="24" style="cursor:pointer;" ewd:lineID="64"> d=" M  1359.77,   342.29  L  1359.77,   350.23  L  1368.27,   358.73  L  1385.27,   358.73  L  1385.27,   511.70  L  1368.27,   511.70  L  1359.77,   520.20  L  1359.77,   528.70 
		
		<path style="stroke:#000000;stroke-width: 5.10 ;&st6;" d=" M  1359.77,   342.29  L  1359.77,   350.23  L  1368.27,   358.73  L  1385.27,   358.73  L  1385.27,   511.70  L  1368.27,   511.70  L  1359.77,   520.20  L  1359.77,   528.70  " /><path style="stroke:#FFFFFF;stroke-width: 4.53 ;&st6;" d=" M  1359.77,   342.29  L  1359.77,   350.23  L  1368.27,   358.73  L  1385.27,   358.73  L  1385.27,   511.70  L  1368.27,   511.70  L  1359.77,   520.20  L  1359.77,   528.70  " /></a><a ewd:comment="23" style="cursor:pointer;" ewd:lineID="65"><path style="stroke:#000000;stroke-width: 5.10 ;&st6;" d=" M  1359.77,   307.17  L  1359.77,   299.24  L  1351.27,   290.74  L  1274.79,   290.74  L  1257.79,   265.24  L  1257.79,   263.26  " /><path style="stroke:#FFFFFF;stroke-width: 1.13 ;&st6;" d=" M  1359.77,   307.17  L  1359.77,   299.24  L  1351.27,   290.74  L  1274.79,   290.74  L  1257.79,   265.24  L  1257.79,   263.26  " /></a><a ewd:comment="24" style="cursor:pointer;" ewd:lineID="66"><path style="stroke:#999999;stroke-width: 5.10 ;&st6;" d=" M  1359.77,   307.17  L  1359.77,   273.74  L  1274.79,   273.74  L  1257.79,   265.24  L  1257.79,   262.97  " /></a><a ewd:figtype="w2w" style="cursor:pointer;" ewd:pinNo="1" ewd:code="AI1" ewd:figID="24"><path style="&st2;" d=" M    67.99,   137.76  L    50.99,   137.76  L    50.99,   146.26  L    67.99,   146.26  L    67.99,   137.76 " /><text style="&st8;" transform="matrix(&st16;  55.13  144.13 )"><tspan x="0" style="&st18;" y="0">AI1</tspan></text></a><a ewd:figtype="w2w" style="cursor:pointer;" ewd:pinNo="3" ewd:code="IL6" ewd:figID="25"><path style="&st2;" d=" M   135.98,   299.24  L   118.98,   299.24  L   118.98,   307.73  L   135.98,   307.73  L   135.98,   299.24 " /><text style="&st8;" transform="matrix(&st16;  123.45  305.6 )"><tspan x="0" style="&st18;" y="0">IL6</tspan></text></a><a ewd:figtype="w2w" style="cursor:pointer;" ewd:pinNo="6" ewd:code="IL2" ewd:figID="26"><path style="&st2;" d=" M   135.98,   290.74  L   118.98,   290.74  L   118.98,   299.24  L   135.98,   299.24  L   135.98,   290.74 " /><text style="&st8;" transform="matrix(&st16;  123.45  297.11 )"><tspan x="0" style="&st18;" y="0">IL2</tspan></text></a><a ewd:figtype="w2w" style="cursor:pointer;" ewd:pinNo="4" ewd:code="LI1" ewd:figID="27"><path style="&st2;" d=" M   382.44,   214.25  L   365.44,   214.25  L   365.44,   222.75  L   382.44,   222.75  L   382.44,   214.25 " /><text style="&st8;" transform="matrix(&st16;  369.91  220.62 )"><tspan x="0" style="&st18;" y="0">LI1</tspan></text></a><a ewd:figtype="w2w" style="cursor:pointer;" ewd:pinNo="21" ewd:code="IL2" ewd:figID="28"><path style="&st2;" d=" M   441.93,    78.27  L   424.93,    78.27  L   424.93,    86.77  L   441.93,    86.77  L   441.93,    78.27 " /><text style="&st8;" transform="matrix(&st16;  429.4  84.64 )"><tspan x="0" style="&st18;" y="0">IL2</tspan></text></a><a ewd:figtype="w2w" style="cursor:pointer;" ewd:pinNo="17" ewd:code="CA4" ewd:figID="29"><path style="&st2;" d=" M   577.90,   596.69  L   560.91,   596.69  L   560.91,   605.18  L   577.90,   605.18  L   577.90,   596.69 " /><text style="&st8;" transform="matrix(&st16;  563.76  603.06 )"><tspan x="0" style="&st18;" y="0">CA4</tspan></text></a><a ewd:figtype="w2w" style="cursor:pointer;" ewd:pinNo="1" ewd:code="AC1" ewd:figID="30"><path style="&st2;" d=" M   628.89,   596.69  L   611.90,   596.69  L   611.90,   605.18  L   628.89,   605.18  L   628.89,   596.69 " /><text style="&st8;" transform="matrix(&st16;  614.75  603.06 )"><tspan x="0" style="&st18;" y="0">AC1</tspan></text></a><a ewd:figtype="w2w" style="cursor:pointer;" ewd:pinNo="55" ewd:code="AI3" ewd:figID="31"><path style="&st2;" d=" M   628.89,   537.20  L   611.90,   537.20  L   611.90,   545.69  L   628.89,   545.69  L   628.89,   537.20 " /><text style="&st8;" transform="matrix(&st16;  616.03  543.57 )"><tspan x="0" style="&st18;" y="0">AI3</tspan></text></a><a ewd:figtype="w2w" style="cursor:pointer;" ewd:pinNo="13" ewd:code="AI3" ewd:figID="32"><path style="&st2;" d=" M   628.89,   528.70  L   611.90,   528.70  L   611.90,   537.20  L   628.89,   537.20  L   628.89,   528.70 " /><text style="&st8;" transform="matrix(&st16;  616.03  535.07 )"><tspan x="0" style="&st18;" y="0">AI3</tspan></text></a><a ewd:figtype="w2w" style="cursor:pointer;" ewd:pinNo="22" ewd:code="AI3" ewd:figID="33"><path style="&st2;" d=" M   628.89,   520.20  L   611.90,   520.20  L   611.90,   528.70  L   628.89,   528.70  L   628.89,   520.20 " /><text style="&st8;" transform="matrix(&st16;  616.03  526.57 )"><tspan x="0" style="&st18;" y="0">AI3</tspan></text></a><a ewd:figtype="w2w" style="cursor:pointer;" ewd:pinNo="45" ewd:code="AI3" ewd:figID="34"><path style="&st2;" d=" M   628.89,   511.70  L   611.90,   511.70  L   611.90,   520.20  L   628.89,   520.20  L   628.89,   511.70 " /><text style="&st8;" transform="matrix(&st16;  616.03  518.07 )"><tspan x="0" style="&st18;" y="0">AI3</tspan></text></a><a ewd:figtype="w2w" style="cursor:pointer;" ewd:pinNo="14" ewd:code="IL6" ewd:figID="35"><path style="&st2;" d=" M   628.89,   418.22  L   611.90,   418.22  L   611.90,   426.71  L   628.89,   426.71  L   628.89,   418.22 " /><text style="&st8;" transform="matrix(&st16;  616.37  424.58 )"><tspan x="0" style="&st18;" y="0">IL6</tspan></text></a><a ewd:figtype="w2w" style="cursor:pointer;" ewd:pinNo="4" ewd:code="IL2" ewd:figID="36"><path style="&st2;" d=" M   628.89,   409.72  L   611.90,   409.72  L   611.90,   418.22  L   628.89,   418.22  L   628.89,   409.72 " /><text style="&st8;" transform="matrix(&st16;  616.37  416.09 )"><tspan x="0" style="&st18;" y="0">IL2</tspan></text></a><a ewd:figtype="w2w" style="cursor:pointer;" ewd:pinNo="18" ewd:code="LI1" ewd:figID="37"><path style="&st2;" d=" M   688.38,   103.77  L   671.39,   103.77  L   671.39,   112.27  L   688.38,   112.27  L   688.38,   103.77 " /><text style="&st8;" transform="matrix(&st16;  675.86  110.14 )"><tspan x="0" style="&st18;" y="0">LI1</tspan></text></a><a ewd:figtype="w2w" style="cursor:pointer;" ewd:pinNo="9" ewd:code="AC5" ewd:figID="38"><path style="&st2;" d=" M   713.88,   596.69  L   696.88,   596.69  L   696.88,   605.18  L   713.88,   605.18  L   713.88,   596.69 " /><text style="&st8;" transform="matrix(&st16;  699.74  603.06 )"><tspan x="0" style="&st18;" y="0">AC5</tspan></text></a><a ewd:figtype="w2w" style="cursor:pointer;" ewd:pinNo="9" ewd:code="IC2" ewd:figID="39"><path style="&st2;" d=" M   713.88,   588.19  L   696.88,   588.19  L   696.88,   596.69  L   713.88,   596.69  L   713.88,   588.19 " /><text style="&st8;" transform="matrix(&st16;  700.87  594.56 )"><tspan x="0" style="&st18;" y="0">IC2</tspan></text></a><a ewd:figtype="w2w" style="cursor:pointer;" ewd:pinNo="22" ewd:code="IL2" ewd:figID="40"><path style="&st2;" d=" M   722.38,   103.77  L   705.38,   103.77  L   705.38,   112.27  L   722.38,   112.27  L   722.38,   103.77 " /><text style="&st8;" transform="matrix(&st16;  709.85  110.14 )"><tspan x="0" style="&st18;" y="0">IL2</tspan></text></a><a ewd:figtype="w2w" style="cursor:pointer;" ewd:pinNo="56" ewd:code="AI3" ewd:figID="41"><path style="&st2;" d=" M   756.37,   511.70  L   739.38,   511.70  L   739.38,   520.20  L   756.37,   520.20  L   756.37,   511.70 " /><text style="&st8;" transform="matrix(&st16;  743.51  518.07 )"><tspan x="0" style="&st18;" y="0">AI3</tspan></text></a><a ewd:figtype="w2w" style="cursor:pointer;" ewd:pinNo="8" ewd:code="IL6" ewd:figID="42"><path style="&st2;" d=" M   977.34,   180.26  L   960.34,   180.26  L   960.34,   188.75  L   977.34,   188.75  L   977.34,   180.26 " /><text style="&st8;" transform="matrix(&st16;  964.81  186.62 )"><tspan x="0" style="&st18;" y="0">IL6</tspan></text></a><a ewd:figtype="w2w" style="cursor:pointer;" ewd:pinNo="2" ewd:code="IL2" ewd:figID="43"><path style="&st2;" d=" M   977.34,   171.76  L   960.34,   171.76  L   960.34,   180.26  L   977.34,   180.26  L   977.34,   171.76 " /><text style="&st8;" transform="matrix(&st16;  964.81  178.13 )"><tspan x="0" style="&st18;" y="0">IL2</tspan></text></a><a ewd:figtype="w2w" style="cursor:pointer;" ewd:pinNo="6" ewd:code="IS3" ewd:figID="44"><path style="&st2;" d=" M  1206.80,   528.70  L  1189.80,   528.70  L  1189.80,   537.20  L  1206.80,   537.20  L  1206.80,   528.70 " /><text style="&st8;" transform="matrix(&st16;  1193.94  535.07 )"><tspan x="0" style="&st18;" y="0">IS3</tspan></text></a><a ewd:figtype="w2w" style="cursor:pointer;" ewd:pinNo="9" ewd:code="UI5" ewd:figID="45"><path style="&st2;" d=" M  1266.29,   537.20  L  1249.29,   537.20  L  1249.29,   545.69  L  1266.29,   545.69  L  1266.29,   537.20 " /><text style="&st8;" transform="matrix(&st16;  1253.27  543.57 )"><tspan x="0" style="&st18;" y="0">UI5</tspan></text></a><a ewd:figtype="w2w" style="cursor:pointer;" ewd:pinNo="8" ewd:code="UI4" ewd:figID="46"><path style="&st2;" d=" M  1266.29,   528.70  L  1249.29,   528.70  L  1249.29,   537.20  L  1266.29,   537.20  L  1266.29,   528.70 " /><text style="&st8;" transform="matrix(&st16;  1253.27  535.07 )"><tspan x="0" style="&st18;" y="0">UI4</tspan></text></a><a ewd:figtype="w2w" style="cursor:pointer;" ewd:pinNo="2" ewd:code="LI1" ewd:figID="47"><path style="&st2;" d=" M  1266.29,   248.24  L  1249.29,   248.24  L  1249.29,   256.74  L  1266.29,   256.74  L  1266.29,   248.24 " /><text style="&st8;" transform="matrix(&st16;  1253.76  254.61 )"><tspan x="0" style="&st18;" y="0">LI1</tspan></text></a><a ewd:figtype="w2w" style="cursor:pointer;" ewd:pinNo="10" ewd:code="IS3" ewd:figID="48"><path style="&st2;" d=" M  1368.27,   528.70  L  1351.27,   528.70  L  1351.27,   537.20  L  1368.27,   537.20  L  1368.27,   528.70 " /><text style="&st8;" transform="matrix(&st16;  1355.41  535.07 )"><tspan x="0" style="&st18;" y="0">IS3</tspan></text></a><a ewd:figtype="gp" style="cursor:pointer;" ewd:code="LB" ewd:figID="49"><path style="&st2;" d=" M    99.86,   681.67  L   121.10,   681.67  L   110.48,   697.25  L    99.86,   681.67 " /><text style="&st8;" transform="matrix(&st16;  106.94  689.46 )"><tspan x="0" style="&st18;" y="0">LB</tspan></text></a><a ewd:figtype="gp" style="cursor:pointer;" ewd:code="LA" ewd:figID="50"><path style="&st2;" d=" M   150.85,   681.67  L   172.10,   681.67  L   161.47,   697.25  L   150.85,   681.67 " /><text style="&st8;" transform="matrix(&st16;  157.94  689.46 )"><tspan x="0" style="&st18;" y="0">LA</tspan></text></a><a ewd:figtype="gp" style="cursor:pointer;" ewd:code="CE" ewd:figID="51"><path style="&st2;" d=" M   558.78,   681.67  L   580.03,   681.67  L   569.40,   697.25  L   558.78,   681.67 " /><text style="&st8;" transform="matrix(&st16;  565.34  689.46 )"><tspan x="0" style="&st18;" y="0">CE</tspan></text></a><a ewd:figtype="gp" style="cursor:pointer;" ewd:code="CC" ewd:figID="52"><path style="&st2;" d=" M   609.77,   681.67  L   631.02,   681.67  L   620.40,   697.25  L   609.77,   681.67 " /><text style="&st8;" transform="matrix(&st16;  616.18  689.46 )"><tspan x="0" style="&st18;" y="0">CC</tspan></text></a><a ewd:figtype="gp" style="cursor:pointer;" ewd:code="CA" ewd:figID="53"><path style="&st2;" d=" M   694.76,   681.67  L   716.01,   681.67  L   705.38,   697.25  L   694.76,   681.67 " /><text style="&st8;" transform="matrix(&st16;  701.32  689.46 )"><tspan x="0" style="&st18;" y="0">CA</tspan></text></a><a ewd:figtype="sp" style="cursor:pointer;" ewd:code="SP71" ewd:figID="54"><path style="&st2;" d=" M   123.23,    86.77  L   131.73,    86.77  L   135.98,    91.02  L   135.98,    99.52  L   131.73,   103.77  L   123.23,   103.77  L   118.98,    99.52  L   118.98,    91.02  L   123.23,    86.77 " /></a><a ewd:figtype="sp" style="cursor:pointer;" ewd:code="SP82" ewd:figID="55"><path style="&st2;" d=" M   157.22,   537.20  L   165.72,   537.20  L   169.97,   541.44  L   169.97,   549.94  L   165.72,   554.19  L   157.22,   554.19  L   152.97,   549.94  L   152.97,   541.44  L   157.22,   537.20 " /></a><a ewd:figtype="sp" style="cursor:pointer;" ewd:code="SP83" ewd:figID="56"><path style="&st2;" d=" M   429.18,   129.26  L   437.68,   129.26  L   441.93,   133.51  L   441.93,   142.01  L   437.68,   146.26  L   429.18,   146.26  L   424.93,   142.01  L   424.93,   133.51  L   429.18,   129.26 " /></a><a ewd:figtype="sp" style="cursor:pointer;" ewd:code="SP19" ewd:figID="57"><path style="&st2;" d=" M   616.15,   639.18  L   624.65,   639.18  L   628.89,   643.43  L   628.89,   651.93  L   624.65,   656.18  L   616.15,   656.18  L   611.90,   651.93  L   611.90,   643.43  L   616.15,   639.18 " /></a><a ewd:figtype="sp" style="cursor:pointer;" ewd:code="SP19" ewd:figID="58"><path style="&st2;" d=" M   701.13,   639.18  L   709.63,   639.18  L   713.88,   643.43  L   713.88,   651.93  L   709.63,   656.18  L   701.13,   656.18  L   696.88,   651.93  L   696.88,   643.43  L   701.13,   639.18 " /></a><a ewd:figtype="sp" style="cursor:pointer;" ewd:code="SP60" ewd:figID="59"><path style="&st2;" d=" M   701.13,   435.21  L   709.63,   435.21  L   713.88,   439.46  L   713.88,   447.96  L   709.63,   452.21  L   701.13,   452.21  L   696.88,   447.96  L   696.88,   439.46  L   701.13,   435.21 " /></a><a ewd:figtype="sp" style="cursor:pointer;" ewd:code="SP51" ewd:figID="60"><path style="&st2;" d=" M   964.59,   129.26  L   973.09,   129.26  L   977.34,   133.51  L   977.34,   142.01  L   973.09,   146.26  L   964.59,   146.26  L   960.34,   142.01  L   960.34,   133.51  L   964.59,   129.26 "/></a></g></svg>
