<?xml version="1.0" encoding="utf-8"?>
<!DOCTYPE svg PUBLIC "-//W3C//DTD SVG 1.0//EN" "http://www.w3.org/TR/2001/REC-SVG-20010904/DTD/svg10.dtd"[
	<!ENTITY ns_flows "http://ns.adobe.com/Flows/1.0/">
	<!ENTITY ns_svg "http://www.w3.org/2000/svg">
	<!ENTITY ns_xlink "http://www.w3.org/1999/xlink">
	<!ENTITY st0 "font-size:7px;font-family:'MS-PGothic';adobe-font-script:japanese;">
	<!ENTITY st1 "font-size:6px;font-family:'ArialMT';">
	<!-- White fill  -->
	<!ENTITY st2 "fill:#FFFFFF;stroke:#000000; stroke-width:1.41;stroke-linecap:round;stroke-linejoin:round;">
	<!-- Yellow fill  -->
	<!ENTITY st3 "fill:#FFFFCC;stroke:#FFFFCC; stroke-width:0.1;stroke-linecap:round;stroke-linejoin:round;">
	<!-- Gray fill  -->
	<!ENTITY st4 "fill:#CCCCCC;stroke:#CCCCCC; stroke-width:0.1;stroke-linecap:round;stroke-linejoin:round;">
	<!-- Light-blue fill -->
	<!ENTITY st5 "fill:#CCECF4;stroke:#000000; stroke-width:1.133;stroke-linecap:round;stroke-linejoin:round;">
	<!ENTITY st6 "fill:none;stroke-linecap:butt; stroke-linejoin:round;">
	<!ENTITY st7 "fill:none;stroke:#000000;stroke-linecap:round;stroke-linejoin:round;">
	<!ENTITY st8 "enable-background:new    ;">
	<!-- Black fill -->
	<!ENTITY st9 "fill:#000000;stroke:#000000; stroke-linecap:round;stroke-linejoin:round;">
	<!-- SRS note   -->
	<!ENTITY st10 "font-size:9px;font-family:'ArialMT';">
	<!ENTITY st11 "font-size:9px;font-family:'Svg Symbol';">
	<!ENTITY st12 "font-size:6px;font-family:'Svg Symbol';">
	<!ENTITY st13 "fill:none;stroke:#ff0000;stroke-linecap:round;stroke-linejoin:round;">
	<!-- Yellow fill  -->
	<!ENTITY st14 "fill:#FFFF00;stroke:#FFFF00; stroke-width:0.1;stroke-linecap:round;stroke-linejoin:round;">
	<!ENTITY st15 "font-size:6px;font-family:'MS-PGothic';adobe-font-script:japanese;">
	<!ENTITY st16 "1.00 0.00 0.00 1.00">
	<!ENTITY st17 "0.00 -1.00 1.00 0.00">
	<!ENTITY st18 "font-size:6px;font-family:'Arial';">
	<!ENTITY st19 "font-size:9px;font-family:'Arial';">
	<!ENTITY st20 "font-size:6px;font-family:'MS-PGothic','MS PGothic';adobe-font-script:japanese;">
	<!ENTITY st21 "font-size:7px;font-family:'MS-PGothic','MS PGothic';adobe-font-script:japanese;">
	<!ATTLIST svg
		xmlns:ewd CDATA #FIXED "http://shcl.co.jp/ewd"
		xmlns:a CDATA #FIXED "http://ns.adobe.com/AdobeSVGViewerExtensions/3.0/"
		ewd:ver CDATA #IMPLIED
	>
	<!ATTLIST a
		ewd:lineID CDATA #IMPLIED
		ewd:groupID CDATA #IMPLIED
		ewd:figtype CDATA #IMPLIED
		ewd:code CDATA #IMPLIED
		ewd:figID CDATA #IMPLIED
		ewd:pinNo CDATA #IMPLIED
		ewd:comment CDATA #IMPLIED >
	<!ATTLIST g
		ewd:lineID CDATA #IMPLIED
		ewd:groupID CDATA #IMPLIED
		ewd:figtype CDATA #IMPLIED
		ewd:code CDATA #IMPLIED
		ewd:figID CDATA #IMPLIED
		ewd:pinNo CDATA #IMPLIED
		ewd:comment CDATA #IMPLIED >
	<!ATTLIST text
		ewd:textID CDATA #IMPLIED >
	<!ATTLIST title
		ewd:textID CDATA #IMPLIED >
]>
<!-- Generator: Shintec Hozumi YS   -->
<svg onload="call_execInitLoadProc_svg('system')" style="overflow:visible;  enable-background:new 0 0 1513.060 710.000" viewBox="0 0 1513.060 710.000" height="710.000" width="1513.060" xml:space="preserve" ewd:ver="2.3.1.16" xmlns="&ns_svg;" xmlns:a="http://ns.adobe.com/AdobeSVGViewerExtensions/3.0/" xmlns:ewd="http://shcl.co.jp/ewd" xmlns:xlink="&ns_xlink;">
<path style="stroke-width: 1.42 ;&st7;  " d=" M  1206.80,   537.20  L  1198.30,   537.20  " /><path style="stroke-width: 1.42 ;&st7;  " d=" M  1368.27,   537.20  L  1359.77,   537.20  " /><text style="&st18;" transform="matrix(&st17;  1367.41  597.53 )">(RHD *21)</text><text style="&st18;" transform="matrix(&st17;  1265.43  607.53 )">(LHD *9,LHD *10)</text><text style="&st18;" transform="matrix(&st17;  1254.09  585.7 )">B</text><text style="&st18;" transform="matrix(&st17;  1205.94  595.32 )">(LHD *8)</text><text style="&st18;" transform="matrix(&st17;  1194.6  585.7 )">B</text><text style="&st18;" transform="matrix(&st17;  1356.08  589.66 )">B-W</text><text style="&st18;" transform="matrix(&st17;  1265.43  486.47 )">(LHD *9 *23,LHD *10 *23)</text><text style="&st18;" transform="matrix(&st17;  1254.09  457.93 )">B-W</text><text style="&st18;" transform="matrix(&st17;  1205.94  468.94 )">(LHD *8 *23)</text><text style="&st18;" transform="matrix(&st17;  1194.6  457.93 )">B-W</text><text style="&st18;" transform="matrix(&st16;  1056.1  516.5 )">B-W</text><text style="&st18;" transform="matrix(&st16;  1005.11  516.5 )">B-W</text><path style="stroke-width: 1.42 ;&st7;  " d=" M  1266.29,   256.74  L  1257.79,   256.74  " /><path style="stroke-width: 1.42 ;&st7;  " d=" M  1249.29,   528.70  L  1257.79,   528.70  " /><text style="&st18;" transform="matrix(&st17;  1341.91  597.53 )">(RHD *22)</text><text style="&st18;" transform="matrix(&st17;  1330.58  585.7 )">V</text><text style="&st18;" transform="matrix(&st16;  1004.61  527.83 )">(*15)</text><text style="&st18;" transform="matrix(&st16;  1055.6  527.83 )">(*15)</text><text style="&st18;" transform="matrix(&st16;  1006.58  414.52 )">GR</text><text style="&st18;" transform="matrix(&st16;  1057.58  414.52 )">GR</text><text style="&st18;" transform="matrix(&st16;  1004.61  425.85 )">(*22)</text><text style="&st18;" transform="matrix(&st16;  1055.6  425.85 )">(*22)</text><text style="&st18;" transform="matrix(&st16;  1049.63  397.52 )">B-W(*39)</text><text style="&st18;" transform="matrix(&st16;  1319.56  287.04 )">B-W</text><text style="&st18;" transform="matrix(&st16;  1286.19  281.37 )">(RHD *24)</text><text style="&st18;" transform="matrix(&st16;  1295.54  270.04 )">GR</text><text style="&st18;" transform="matrix(&st16;  1311.69  298.37 )">(RHD *23)</text><text style="&st18;" transform="matrix(&st17;  1228.6  299.23 )">GR</text><text style="&st18;" transform="matrix(&st17;  1239.93  308.04 )">(LHD *24)</text><text style="&st18;" transform="matrix(&st17;  1254.09  313.46 )">B-W</text><text style="&st18;" transform="matrix(&st17;  1265.43  320.78 )">(LHD *23)</text><text style="&st18;" transform="matrix(&st17;  1381.57  454.91 )">W</text><text style="&st18;" transform="matrix(&st17;  1392.91  465.8 )">(RHD *24)</text><text style="&st18;" transform="matrix(&st17;  1356.08  457.93 )">B-W</text><text style="&st18;" transform="matrix(&st17;  1367.41  465.8 )">(RHD *23)</text><text style="&st18;" transform="matrix(&st17;  1279.59  456.46 )">GR</text><text style="&st18;" transform="matrix(&st17;  1290.93  486.47 )">(LHD *9 *24,LHD *10 *24)</text><text style="&st18;" transform="matrix(&st17;  1180.44  468.94 )">(LHD *8 *24)</text><text style="&st18;" transform="matrix(&st17;  1169.11  454.91 )">W</text><g ewd:code="I67" ewd:figID="2" ewd:comment="8,9,10" ewd:figtype="conn"><path style="stroke-width: 1.42 ;&st7;  " d=" M  1249.29,   341.73  L  1266.29,   341.73  L  1266.29,   358.73  L  1249.29,   358.73  L  1249.29,   341.73  " /><path style="stroke-width: 0.85 ;&st7;  " d=" M  1257.79,   341.73  L  1257.79,   358.73  " /><text style="&st18;" transform="matrix(&st16;  1244.97  365.23 )">21</text><text style="&st18;" transform="matrix(&st16;  1244.97  374.29 )">22</text><text style="&st18;" transform="matrix(&st16;  1255.52  374.29 )">A</text><path style="stroke-width: 1.42 ;&st7;   " d=" M  1262.32,   372.32  C  1262.32    369.82   1260.29    367.79   1257.79    367.79  " /><path style="stroke-width: 1.42 ;&st7;   " d=" M  1257.79,   367.79  C  1255.29    367.79   1253.26    369.82   1253.26    372.32  " /><path style="stroke-width: 1.42 ;&st7;   " d=" M  1253.26,   372.32  C  1253.26    374.83   1255.29    376.86   1257.79    376.86  " /><path style="stroke-width: 1.42 ;&st7;   " d=" M  1257.79,   376.86  C  1260.29    376.86   1262.32    374.83   1262.32    372.32  " /><path style="stroke-width: 1.42 ;&st7;   " d=" M  1262.32,   363.26  C  1262.32    360.75   1260.29    358.73   1257.79    358.73  " /><path style="stroke-width: 1.42 ;&st7;   " d=" M  1257.79,   358.73  C  1255.29    358.73   1253.26    360.75   1253.26    363.26  " /><path style="stroke-width: 1.42 ;&st7;   " d=" M  1253.26,   363.26  C  1253.26    365.76   1255.29    367.79   1257.79    367.79  " /><path style="stroke-width: 1.42 ;&st7;   " d=" M  1257.79,   367.79  C  1260.29    367.79   1262.32    365.76   1262.32    363.26  " /><text style="&st18;" transform="matrix(&st16;  1255.52  365.23 )">A</text><text style="&st18;" transform="matrix(&st16;  1244.97  339.16 )">19</text><path style="stroke-width: 1.42 ;&st7;   " d=" M  1262.32,   337.20  C  1262.32    334.69   1260.29    332.66   1257.79    332.66  " /><path style="stroke-width: 1.42 ;&st7;   " d=" M  1257.79,   332.66  C  1255.29    332.66   1253.26    334.69   1253.26    337.20  " /><path style="stroke-width: 1.42 ;&st7;   " d=" M  1253.26,   337.20  C  1253.26    339.70   1255.29    341.73   1257.79    341.73  " /><path style="stroke-width: 1.42 ;&st7;   " d=" M  1257.79,   341.73  C  1260.29    341.73   1262.32    339.70   1262.32    337.20  " /><text style="&st18;" transform="matrix(&st16;  1255.52  339.16 )">A</text><g ewd:figtype="title"><text style="&st18;" transform="matrix(&st17;  1281.01  358.8 )" ewd:textID="30">No. 16 <tspan x="0 " dy="6.0">Junction </tspan><tspan x="0 " dy="6.0">Connector</tspan></text><text style="&st18;" transform="matrix(&st17;  1274.18  358.79 )">I67(A)</text></g><g ewd:code="" ewd:figID="74" ewd:comment="9,10" ewd:figtype="commref"><text style="&st18;" transform="matrix(&st16;  1262.88  365.23 )">(LHD *9,LHD *10)</text></g><g ewd:code="" ewd:figID="75" ewd:comment="8" ewd:figtype="commref"><text style="&st18;" transform="matrix(&st16;  1262.88  374.29 )">(LHD *8)</text></g></g><g ewd:figtype="conn" ewd:figID="3" ewd:code="I61"><path style="stroke-width: 1.42 ;&st7;  " d=" M  1351.27,   316.23  L  1368.27,   316.23  L  1368.27,   333.23  L  1351.27,   333.23  L  1351.27,   316.23  " /><path style="stroke-width: 0.85 ;&st7;  " d=" M  1359.77,   316.23  L  1359.77,   333.23  " /><text style="&st18;" transform="matrix(&st16;  1350.29  339.73 )">3</text><path style="stroke-width: 1.42 ;&st7;   " d=" M  1364.31,   337.76  C  1364.31    335.26   1362.28    333.23   1359.77    333.23  " /><path style="stroke-width: 1.42 ;&st7;   " d=" M  1359.77,   333.23  C  1357.27    333.23   1355.24    335.26   1355.24    337.76  " /><path style="stroke-width: 1.42 ;&st7;   " d=" M  1355.24,   337.76  C  1355.24    340.27   1357.27    342.29   1359.77    342.29  " /><path style="stroke-width: 1.42 ;&st7;   " d=" M  1359.77,   342.29  C  1362.28    342.29   1364.31    340.27   1364.31    337.76  " /><text style="&st18;" transform="matrix(&st16;  1357.35  339.73 )">C</text><text style="&st18;" transform="matrix(&st16;  1350.29  313.67 )">1</text><path style="stroke-width: 1.42 ;&st7;   " d=" M  1364.31,   311.70  C  1364.31    309.20   1362.28    307.17   1359.77    307.17  " /><path style="stroke-width: 1.42 ;&st7;   " d=" M  1359.77,   307.17  C  1357.27    307.17   1355.24    309.20   1355.24    311.70  " /><path style="stroke-width: 1.42 ;&st7;   " d=" M  1355.24,   311.70  C  1355.24    314.20   1357.27    316.23   1359.77    316.23  " /><path style="stroke-width: 1.42 ;&st7;   " d=" M  1359.77,   316.23  C  1362.28    316.23   1364.31    314.20   1364.31    311.70  " /><text style="&st18;" transform="matrix(&st16;  1357.35  313.67 )">C</text><g ewd:figtype="title"><text style="&st18;" transform="matrix(&st17;  1382.99  336.14 )" ewd:textID="28">No. 11 <tspan x="0 " dy="6.0">Junction Connector</tspan></text><text style="&st18;" transform="matrix(&st17;  1376.17  336.13 )">I61(C)</text></g></g><g ewd:figtype="conn" ewd:figID="4" ewd:code="S6"><path style="stroke-width: 1.42 ;&st7;  " d=" M  1198.30,   649.09  L  1203.97,   626.43  " /><path style="stroke-width: 0.85 ;&st7;  " d=" M  1198.30,   656.18  L  1198.30,   651.93  " /><path style="stroke-width: 0.85 ;&st7;  " d=" M  1198.30,   626.43  L  1198.30,   622.18  " /><path style="stroke-width: 0.85 ;&st7;   " d=" M  1199.72,   650.51  C  1199.72    649.73   1199.08    649.09   1198.30    649.09  " /><path style="stroke-width: 0.85 ;&st7;   " d=" M  1198.30,   649.09  C  1197.52    649.09   1196.88    649.73   1196.88    650.51  " /><path style="stroke-width: 0.85 ;&st7;   " d=" M  1196.88,   650.51  C  1196.88    651.29   1197.52    651.93   1198.30    651.93  " /><path style="stroke-width: 0.85 ;&st7;   " d=" M  1198.30,   651.93  C  1199.08    651.93   1199.72    651.29   1199.72    650.51  " /><path style="stroke-width: 0.85 ;&st7;   " d=" M  1199.72,   627.85  C  1199.72    627.06   1199.08    626.43   1198.30    626.43  " /><path style="stroke-width: 0.85 ;&st7;   " d=" M  1198.30,   626.43  C  1197.52    626.43   1196.88    627.06   1196.88    627.85  " /><path style="stroke-width: 0.85 ;&st7;   " d=" M  1196.88,   627.85  C  1196.88    628.63   1197.52    629.26   1198.30    629.26  " /><path style="stroke-width: 0.85 ;&st7;   " d=" M  1198.30,   629.26  C  1199.08    629.26   1199.72    628.63   1199.72    627.85  " /><path style="stroke-width: 1.42 ;&st7;  " d=" M  1206.80,   656.18  L  1206.80,   622.18  L  1189.80,   622.18  L  1189.80,   656.18  L  1206.80,   656.18  " /><text style="&st18;" transform="matrix(&st16;  1191.96  618.49 )">1</text><g ewd:figtype="title"><text style="&st18;" transform="matrix(&st17;  1221.52  659.08 )" ewd:textID="21">Front Door Courtesy <tspan x="0 " dy="6.0">Light Switch Assembly LH</tspan></text><text style="&st18;" transform="matrix(&st17;  1214.69  659.07 )">S6</text></g></g><g ewd:figtype="conn" ewd:figID="5" ewd:code="U1"><path style="stroke-width: 1.42 ;&st7;  " d=" M  1257.79,   649.09  L  1263.46,   626.43  " /><path style="stroke-width: 0.85 ;&st7;  " d=" M  1257.79,   656.18  L  1257.79,   651.93  " /><path style="stroke-width: 0.85 ;&st7;  " d=" M  1257.79,   626.43  L  1257.79,   622.18  " /><path style="stroke-width: 0.85 ;&st7;   " d=" M  1259.21,   650.51  C  1259.21    649.73   1258.57    649.09   1257.79    649.09  " /><path style="stroke-width: 0.85 ;&st7;   " d=" M  1257.79,   649.09  C  1257.01    649.09   1256.37    649.73   1256.37    650.51  " /><path style="stroke-width: 0.85 ;&st7;   " d=" M  1256.37,   650.51  C  1256.37    651.29   1257.01    651.93   1257.79    651.93  " /><path style="stroke-width: 0.85 ;&st7;   " d=" M  1257.79,   651.93  C  1258.57    651.93   1259.21    651.29   1259.21    650.51  " /><path style="stroke-width: 0.85 ;&st7;   " d=" M  1259.21,   627.85  C  1259.21    627.06   1258.57    626.43   1257.79    626.43  " /><path style="stroke-width: 0.85 ;&st7;   " d=" M  1257.79,   626.43  C  1257.01    626.43   1256.37    627.06   1256.37    627.85  " /><path style="stroke-width: 0.85 ;&st7;   " d=" M  1256.37,   627.85  C  1256.37    628.63   1257.01    629.26   1257.79    629.26  " /><path style="stroke-width: 0.85 ;&st7;   " d=" M  1257.79,   629.26  C  1258.57    629.26   1259.21    628.63   1259.21    627.85  " /><path style="stroke-width: 1.42 ;&st7;  " d=" M  1266.29,   656.18  L  1266.29,   622.18  L  1249.29,   622.18  L  1249.29,   656.18  L  1266.29,   656.18  " /><text style="&st18;" transform="matrix(&st16;  1251.45  618.49 )">1</text><g ewd:figtype="title"><text style="&st18;" transform="matrix(&st17;  1281.01  659.08 )" ewd:textID="21">Front Door Courtesy <tspan x="0 " dy="6.0">Light Switch Assembly LH</tspan></text><text style="&st18;" transform="matrix(&st17;  1274.18  659.07 )">U1</text></g></g><g ewd:figtype="conn" ewd:figID="6" ewd:code="S4"><path style="stroke-width: 1.42 ;&st7;  " d=" M  1359.77,   649.09  L  1365.44,   626.43  " /><path style="stroke-width: 0.85 ;&st7;  " d=" M  1359.77,   656.18  L  1359.77,   651.93  " /><path style="stroke-width: 0.85 ;&st7;  " d=" M  1359.77,   626.43  L  1359.77,   622.18  " /><path style="stroke-width: 0.85 ;&st7;   " d=" M  1361.19,   650.51  C  1361.19    649.73   1360.56    649.09   1359.77    649.09  " /><path style="stroke-width: 0.85 ;&st7;   " d=" M  1359.77,   649.09  C  1358.99    649.09   1358.36    649.73   1358.36    650.51  " /><path style="stroke-width: 0.85 ;&st7;   " d=" M  1358.36,   650.51  C  1358.36    651.29   1358.99    651.93   1359.77    651.93  " /><path style="stroke-width: 0.85 ;&st7;   " d=" M  1359.77,   651.93  C  1360.56    651.93   1361.19    651.29   1361.19    650.51  " /><path style="stroke-width: 0.85 ;&st7;   " d=" M  1361.19,   627.85  C  1361.19    627.06   1360.56    626.43   1359.77    626.43  " /><path style="stroke-width: 0.85 ;&st7;   " d=" M  1359.77,   626.43  C  1358.99    626.43   1358.36    627.06   1358.36    627.85  " /><path style="stroke-width: 0.85 ;&st7;   " d=" M  1358.36,   627.85  C  1358.36    628.63   1358.99    629.26   1359.77    629.26  " /><path style="stroke-width: 0.85 ;&st7;   " d=" M  1359.77,   629.26  C  1360.56    629.26   1361.19    628.63   1361.19    627.85  " /><path style="stroke-width: 1.42 ;&st7;  " d=" M  1368.27,   656.18  L  1368.27,   622.18  L  1351.27,   622.18  L  1351.27,   656.18  L  1368.27,   656.18  " /><text style="&st18;" transform="matrix(&st16;  1353.43  618.49 )">1</text><g ewd:figtype="title"><text style="&st18;" transform="matrix(&st17;  1382.99  659.08 )" ewd:textID="22">Front Door Courtesy <tspan x="0 " dy="6.0">Light Switch Assembly RH</tspan></text><text style="&st18;" transform="matrix(&st17;  1376.17  659.07 )">S4</text></g></g><g ewd:figtype="w2w" ewd:figID="44" ewd:code="IS3"><path style="stroke-width: 1.42 ;&st7;  " d=" M  1202.55,   546.26  L  1198.30,   542.01  L  1194.05,   546.26  " /><path style="stroke-width: 1.42 ;&st7;  " d=" M  1202.55,   542.86  L  1198.30,   538.61  L  1194.05,   542.86  " /><text style="&st18;" transform="matrix(&st16;  1184.88  534.92 )">6</text></g><g ewd:code="UI5" ewd:figID="45" ewd:comment="14" ewd:figtype="w2w"><text style="&st18;" transform="matrix(&st16;  1244.37  543.41 )">9</text><g ewd:code="" ewd:figID="112" ewd:comment="14" ewd:figtype="commref"><text style="&st18;" transform="matrix(&st16;  1266.82  543.41 )">(*14)</text></g></g><g ewd:code="UI4" ewd:figID="46" ewd:comment="13" ewd:figtype="w2w"><path style="stroke-width: 1.42 ;&st7;  " d=" M  1262.04,   523.03  L  1257.79,   527.28  L  1253.54,   523.03  " /><path style="stroke-width: 1.42 ;&st7;  " d=" M  1253.54,   519.63  L  1257.79,   523.88  L  1262.04,   519.63  " /><text style="&st18;" transform="matrix(&st16;  1244.37  534.92 )">8</text><g ewd:code="" ewd:figID="113" ewd:comment="13" ewd:figtype="commref"><text style="&st18;" transform="matrix(&st16;  1266.82  534.92 )">(*13)</text></g></g><g ewd:figtype="w2w" ewd:figID="47" ewd:code="LI1"><text style="&st18;" transform="matrix(&st16;  1244.37  254.46 )">2</text><path style="stroke-width: 1.42 ;&st7;  " d=" M  1262.04,   262.41  L  1257.79,   258.16  L  1253.54,   262.41  " /><path style="stroke-width: 1.42 ;&st7;  " d=" M  1262.04,   265.81  L  1257.79,   261.56  L  1253.54,   265.81  " /></g><g ewd:figtype="w2w" ewd:figID="48" ewd:code="IS3"><path style="stroke-width: 1.42 ;&st7;  " d=" M  1364.02,   546.26  L  1359.77,   542.01  L  1355.52,   546.26  " /><path style="stroke-width: 1.42 ;&st7;  " d=" M  1364.02,   542.86  L  1359.77,   538.61  L  1355.52,   542.86  " /><text style="&st18;" transform="matrix(&st16;  1343.02  534.92 )">10</text></g><g ewd:figtype="annex" ewd:figID="71" ewd:code=" "><path style="stroke-width: 0.85 ;&st7;  " d=" M  1194.05,   667.51  L  1202.55,   667.51  " /><path style="stroke-width: 0.85 ;&st7;  " d=" M  1195.47,   670.34  L  1201.13,   670.34  " /><path style="stroke-width: 0.85 ;&st7;  " d=" M  1189.80,   664.67  L  1206.80,   664.67  " /><path style="stroke-width: 0.85 ;&st7;  " d=" M  1198.30,   656.18  L  1198.30,   664.67  " /><path style="stroke-width: 0.85 ;&st7;  " d=" M  1196.88,   673.17  L  1199.72,   673.17  " /></g><g ewd:figtype="annex" ewd:figID="72" ewd:code=" "><path style="stroke-width: 0.85 ;&st7;  " d=" M  1256.37,   673.17  L  1259.21,   673.17  " /><path style="stroke-width: 0.85 ;&st7;  " d=" M  1253.54,   667.51  L  1262.04,   667.51  " /><path style="stroke-width: 0.85 ;&st7;  " d=" M  1254.96,   670.34  L  1260.62,   670.34  " /><path style="stroke-width: 0.85 ;&st7;  " d=" M  1257.79,   656.18  L  1257.79,   664.67  " /><path style="stroke-width: 0.85 ;&st7;  " d=" M  1249.29,   664.67  L  1266.29,   664.67  " /></g><g ewd:figtype="annex" ewd:figID="73" ewd:code=" "><path style="stroke-width: 0.85 ;&st7;  " d=" M  1351.27,   664.67  L  1368.27,   664.67  " /><path style="stroke-width: 0.85 ;&st7;  " d=" M  1356.94,   670.34  L  1362.61,   670.34  " /><path style="stroke-width: 0.85 ;&st7;  " d=" M  1358.36,   673.17  L  1361.19,   673.17  " /><path style="stroke-width: 0.85 ;&st7;  " d=" M  1359.77,   656.18  L  1359.77,   664.67  " /><path style="stroke-width: 0.85 ;&st7;  " d=" M  1355.52,   667.51  L  1364.02,   667.51  " /></g><g ewd:code="10" ewd:figID="102" ewd:comment="" ewd:figtype="comment"><text style="&st18;" transform="matrix(&st16;  1296.88  105.74 )" ewd:textID="5">*10 :Except Pick-Up Body Type</text></g><g ewd:code="23" ewd:figID="128" ewd:comment="" ewd:figtype="comment"><text style="&st18;" transform="matrix(&st16;  1296.88  156.73 )" ewd:textID="16">*23 :Before Sep. 2022 Production</text></g><g ewd:code="8" ewd:figID="101" ewd:comment="" ewd:figtype="comment"><text style="&st18;" transform="matrix(&st16;  1296.88  88.74 )" ewd:textID="3">* 8 :2-Door Pick-Up Body Type</text></g><g ewd:code="14" ewd:figID="111" ewd:comment="" ewd:figtype="comment"><text style="&st18;" transform="matrix(&st16;  1296.88  122.73 )" ewd:textID="9">*14 :From Jan. 2017 Production</text></g><g ewd:code="22" ewd:figID="123" ewd:comment="" ewd:figtype="comment"><text style="&st18;" transform="matrix(&st16;  1296.88  148.23 )" ewd:textID="15">*22 :From Jul. 2021 Production</text></g><g ewd:code="24" ewd:figID="127" ewd:comment="" ewd:figtype="comment"><text style="&st18;" transform="matrix(&st16;  1296.88  165.23 )" ewd:textID="17">*24 :From Sep. 2022 Production</text></g><g ewd:code="13" ewd:figID="110" ewd:comment="" ewd:figtype="comment"><text style="&st18;" transform="matrix(&st16;  1296.88  114.24 )" ewd:textID="8">*13 :Before Jan. 2017 Production</text></g><g ewd:code="9" ewd:figID="100" ewd:comment="" ewd:figtype="comment"><text style="&st18;" transform="matrix(&st16;  1296.88  97.24 )" ewd:textID="4">* 9 :4-Door Pick-Up Body Type</text></g><g ewd:code="39" ewd:figID="129" ewd:comment="" ewd:figtype="comment"><text style="&st18;" transform="matrix(&st16;  1296.88  173.73 )" ewd:textID="18">*39 :Before Sep. 2017 Production until Jul. 2021 Production</text></g><g ewd:code="15" ewd:figID="130" ewd:comment="" ewd:figtype="comment"><text style="&st18;" transform="matrix(&st16;  1296.88  131.23 )" ewd:textID="10">*15 :Before Sep. 2017 Production</text></g><g ewd:code="21" ewd:figID="122" ewd:comment="" ewd:figtype="comment"><text style="&st18;" transform="matrix(&st16;  1296.88  139.73 )" ewd:textID="14">*21 :Before Jul. 2021 Production</text></g></svg>