<?xml version="1.0" encoding="utf-8"?>
<!DOCTYPE svg PUBLIC "-//W3C//DTD SVG 1.0//EN" "http://www.w3.org/TR/2001/REC-SVG-20010904/DTD/svg10.dtd"[
	<!ENTITY ns_flows "http://ns.adobe.com/Flows/1.0/">
	<!ENTITY ns_svg "http://www.w3.org/2000/svg">
	<!ENTITY ns_xlink "http://www.w3.org/1999/xlink">
	<!ENTITY st0 "font-size:7px;font-family:'MS-PGothic';adobe-font-script:japanese;">
	<!ENTITY st1 "font-size:6px;font-family:'ArialMT';">
	<!-- White fill  -->
	<!ENTITY st2 "fill:#FFFFFF;stroke:#000000; stroke-width:1.41;stroke-linecap:round;stroke-linejoin:round;">
	<!-- Yellow fill  -->
	<!ENTITY st3 "fill:#FFFFCC;stroke:#FFFFCC; stroke-width:0.1;stroke-linecap:round;stroke-linejoin:round;">
	<!-- Gray fill  -->
	<!ENTITY st4 "fill:#CCCCCC;stroke:#CCCCCC; stroke-width:0.1;stroke-linecap:round;stroke-linejoin:round;">
	<!-- Light-blue fill -->
	<!ENTITY st5 "fill:#CCECF4;stroke:#000000; stroke-width:1.133;stroke-linecap:round;stroke-linejoin:round;">
	<!ENTITY st6 "fill:none;stroke-linecap:butt; stroke-linejoin:round;">
	<!ENTITY st7 "fill:none;stroke:#000000;stroke-linecap:round;stroke-linejoin:round;">
	<!ENTITY st8 "enable-background:new    ;">
	<!-- Black fill -->
	<!ENTITY st9 "fill:#000000;stroke:#000000; stroke-linecap:round;stroke-linejoin:round;">
	<!-- SRS note   -->
	<!ENTITY st10 "font-size:9px;font-family:'ArialMT';">
	<!ENTITY st11 "font-size:9px;font-family:'Svg Symbol';">
	<!ENTITY st12 "font-size:6px;font-family:'Svg Symbol';">
	<!ENTITY st13 "fill:none;stroke:#ff0000;stroke-linecap:round;stroke-linejoin:round;">
	<!-- Yellow fill  -->
	<!ENTITY st14 "fill:#FFFF00;stroke:#FFFF00; stroke-width:0.1;stroke-linecap:round;stroke-linejoin:round;">
	<!ENTITY st15 "font-size:6px;font-family:'MS-PGothic';adobe-font-script:japanese;">
	<!ENTITY st16 "1.00 0.00 0.00 1.00">
	<!ENTITY st17 "0.00 -1.00 1.00 0.00">
	<!ENTITY st18 "font-size:6px;font-family:'Arial';">
	<!ENTITY st19 "font-size:9px;font-family:'Arial';">
	<!ENTITY st20 "font-size:6px;font-family:'MS-PGothic','MS PGothic';adobe-font-script:japanese;">
	<!ENTITY st21 "font-size:7px;font-family:'MS-PGothic','MS PGothic';adobe-font-script:japanese;">
	<!ATTLIST svg
		xmlns:ewd CDATA #FIXED "http://shcl.co.jp/ewd"
		xmlns:a CDATA #FIXED "http://ns.adobe.com/AdobeSVGViewerExtensions/3.0/"
		ewd:ver CDATA #IMPLIED
	>
	<!ATTLIST a
		ewd:lineID CDATA #IMPLIED
		ewd:groupID CDATA #IMPLIED
		ewd:figtype CDATA #IMPLIED
		ewd:code CDATA #IMPLIED
		ewd:figID CDATA #IMPLIED
		ewd:pinNo CDATA #IMPLIED
		ewd:comment CDATA #IMPLIED >
	<!ATTLIST g
		ewd:lineID CDATA #IMPLIED
		ewd:groupID CDATA #IMPLIED
		ewd:figtype CDATA #IMPLIED
		ewd:code CDATA #IMPLIED
		ewd:figID CDATA #IMPLIED
		ewd:pinNo CDATA #IMPLIED
		ewd:comment CDATA #IMPLIED >
	<!ATTLIST text
		ewd:textID CDATA #IMPLIED >
	<!ATTLIST title
		ewd:textID CDATA #IMPLIED >
]>
<!-- Generator: Shintec Hozumi YS   -->
<svg onload="call_execInitLoadProc_svg('system')" style="overflow:visible;  enable-background:new 0 0 4138.696 710.000" viewBox="0 0 4138.696 710.000" height="710.000" width="4138.696" xml:space="preserve" ewd:ver="2.3.1.16" xmlns="&ns_svg;" xmlns:a="http://ns.adobe.com/AdobeSVGViewerExtensions/3.0/" xmlns:ewd="http://shcl.co.jp/ewd" xmlns:xlink="&ns_xlink;">
<text style="&st18;" transform="matrix(&st17;  1186.11  148.96 )">W</text><text style="&st18;" transform="matrix(&st17;  1197.44  162.99 )">(LHD *1 *11)</text><text style="&st18;" transform="matrix(&st17;  1322.08  156.53 )">B</text><text style="&st18;" transform="matrix(&st17;  1333.42  171.49 )">(LHD *1 *11)</text><text style="&st18;" transform="matrix(&st17;  1271.09  157.46 )">W</text><text style="&st18;" transform="matrix(&st17;  1245.6  157.46 )">W</text><text style="&st18;" transform="matrix(&st17;  1256.93  168.35 )">(RHD *10)</text><text style="&st18;" transform="matrix(&st17;  1282.42  167.81 )">(LHD *10)</text><text style="&st18;" transform="matrix(&st17;  1231.43  149.69 )">(RHD *1)</text><text style="&st18;" transform="matrix(&st17;  1220.1  140.46 )">W</text><text style="&st18;" transform="matrix(&st17;  1231.43  226.17 )">(RHD *1)</text><text style="&st18;" transform="matrix(&st17;  1220.1  216.95 )">W</text><text style="&st18;" transform="matrix(&st17;  1367.41  260.17 )">(RHD *1)</text><text style="&st18;" transform="matrix(&st17;  1356.08  250.01 )">B</text><text style="&st18;" transform="matrix(&st17;  1367.41  149.69 )">(RHD *1)</text><text style="&st18;" transform="matrix(&st17;  1356.08  139.53 )">B</text><text style="&st18;" transform="matrix(&st17;  1307.92  473.77 )">(*6)</text><text style="&st18;" transform="matrix(&st17;  1171.94  439.77 )">(*6)</text><text style="&st18;" transform="matrix(&st17;  1160.61  148.96 )">W</text><text style="&st18;" transform="matrix(&st17;  1171.94  162.99 )">(LHD *1 *12)</text><text style="&st18;" transform="matrix(&st17;  1296.59  156.53 )">B</text><text style="&st18;" transform="matrix(&st17;  1307.92  171.49 )">(LHD *1 *12)</text><text style="&st18;" transform="matrix(&st17;  1160.61  436.98 )">V</text><text style="&st18;" transform="matrix(&st17;  1296.59  470.97 )">P</text><text style="&st18;" transform="matrix(&st17;  1415.57  541.13 )">BR</text><path style="stroke-width: 1.42 ;&st7;  " d=" M  1232.29,   171.76  L  1223.80,   171.76  " /><path style="stroke-width: 1.42 ;&st7;  " d=" M  1368.27,   171.76  L  1359.77,   171.76  " /><text style="&st18;" transform="matrix(&st16;  1054.71  575.99 )">B(RHD *10)</text><text style="&st18;" transform="matrix(&st16;  1053.78  592.99 )">W(RHD *10)</text><text style="&st18;" transform="matrix(&st16;  1054.29  660.98 )">W(LHD *10)</text><text style="&st18;" transform="matrix(&st16;  1055.26  643.98 )">B(LHD *10)</text><text style="&st18;" transform="matrix(&st16;  1067.62  176.56 )">W</text><text style="&st18;" transform="matrix(&st16;  1053.59  187.89 )">(LHD *1 *12)</text><text style="&st18;" transform="matrix(&st16;  1051.57  236.05 )">B(LHD *1 *12)</text><text style="&st18;" transform="matrix(&st16;  1063.59  253.05 )">R(*8)</text><text style="&st18;" transform="matrix(&st16;  1062.82  270.04 )">W(*8)</text><text style="&st18;" transform="matrix(&st16;  1063.75  287.04 )">B(*5)</text><text style="&st18;" transform="matrix(&st16;  1062.82  304.04 )">W(*5)</text><text style="&st18;" transform="matrix(&st16;  1055.45  558.99 )">W(RHD *1)</text><text style="&st18;" transform="matrix(&st16;  1056.22  542.0 )">R(RHD *1)</text><text style="&st18;" transform="matrix(&st16;  1229.1  482.51 )">W</text><text style="&st18;" transform="matrix(&st16;  1220.26  493.84 )">(*10 *16)</text><text style="&st18;" transform="matrix(&st16;  1061.15  626.98 )">W(*15)</text><text style="&st18;" transform="matrix(&st16;  1062.08  609.99 )">B(*15)</text><g ewd:figtype="conn" ewd:figID="5" ewd:code="A29,I84"><path style="stroke-width: 0.85 ;&st7; stroke-dasharray:3, 1.5;" d=" M  1232.29,    83.37  L  1342.78,    83.37  " /><path style="stroke-width: 0.85 ;&st7; stroke-dasharray:3, 1.5;" d=" M  1232.29,    74.31  L  1342.78,    74.31  " /><path style="stroke-width: 1.42 ;&st7;  " d=" M  1206.80,    35.78  L  1206.80,    69.77  L  1376.77,    69.77  L  1376.77,    35.78  L  1206.80,    35.78  " /><g ewd:lineID="25,30,31,32,41"><text style="&st18;" transform="matrix(&st16;  1210.98  85.34 )">49</text><text style="&st18;" transform="matrix(&st16;  1210.98  76.28 )">49</text><path style="stroke-width: 1.42 ;&st7;   " d=" M  1228.33,    83.37  C  1228.33     80.87   1226.30     78.84   1223.80     78.84  " /><path style="stroke-width: 1.42 ;&st7;   " d=" M  1223.80,    78.84  C  1221.29     78.84   1219.26     80.87   1219.26     83.37  " /><path style="stroke-width: 1.42 ;&st7;   " d=" M  1219.26,    83.37  C  1219.26     85.87   1221.29     87.90   1223.80     87.90  " /><path style="stroke-width: 1.42 ;&st7;   " d=" M  1223.80,    87.90  C  1226.30     87.90   1228.33     85.87   1228.33     83.37  " /><path style="stroke-width: 1.42 ;&st7;   " d=" M  1228.33,    74.31  C  1228.33     71.80   1226.30     69.77   1223.80     69.77  " /><path style="stroke-width: 1.42 ;&st7;   " d=" M  1223.80,    69.77  C  1221.29     69.77   1219.26     71.80   1219.26     74.31  " /><path style="stroke-width: 1.42 ;&st7;   " d=" M  1219.26,    74.31  C  1219.26     76.81   1221.29     78.84   1223.80     78.84  " /><path style="stroke-width: 1.42 ;&st7;   " d=" M  1223.80,    78.84  C  1226.30     78.84   1228.33     76.81   1228.33     74.31  " /><text style="&st18;" transform="matrix(&st16;  1221.37  76.28 )">C</text><text style="&st18;" transform="matrix(&st16;  1221.53  85.34 )">A</text><text style="&st18;" transform="matrix(&st16;  1215.52  66.08 )">CANL</text></g><g ewd:lineID="35,36,37,38,43"><text style="&st18;" transform="matrix(&st16;  1346.96  85.34 )">41</text><text style="&st18;" transform="matrix(&st16;  1346.96  76.28 )">41</text><path style="stroke-width: 1.42 ;&st7;   " d=" M  1364.31,    83.37  C  1364.31     80.87   1362.28     78.84   1359.77     78.84  " /><path style="stroke-width: 1.42 ;&st7;   " d=" M  1359.77,    78.84  C  1357.27     78.84   1355.24     80.87   1355.24     83.37  " /><path style="stroke-width: 1.42 ;&st7;   " d=" M  1355.24,    83.37  C  1355.24     85.87   1357.27     87.90   1359.77     87.90  " /><path style="stroke-width: 1.42 ;&st7;   " d=" M  1359.77,    87.90  C  1362.28     87.90   1364.31     85.87   1364.31     83.37  " /><text style="&st18;" transform="matrix(&st16;  1357.51  85.34 )">A</text><path style="stroke-width: 1.42 ;&st7;   " d=" M  1364.31,    74.31  C  1364.31     71.80   1362.28     69.77   1359.77     69.77  " /><path style="stroke-width: 1.42 ;&st7;   " d=" M  1359.77,    69.77  C  1357.27     69.77   1355.24     71.80   1355.24     74.31  " /><path style="stroke-width: 1.42 ;&st7;   " d=" M  1355.24,    74.31  C  1355.24     76.81   1357.27     78.84   1359.77     78.84  " /><path style="stroke-width: 1.42 ;&st7;   " d=" M  1359.77,    78.84  C  1362.28     78.84   1364.31     76.81   1364.31     74.31  " /><text style="&st18;" transform="matrix(&st16;  1357.35  76.28 )">C</text><text style="&st18;" transform="matrix(&st16;  1350.99  66.08 )">CANH</text></g><g ewd:figtype="title"><text style="&st18;" transform="matrix(&st16;  1203.39  32.08 )">ECM</text><text style="&st18;" transform="matrix(&st16;  1203.39  25.26 )">A29(A),I84(C)</text></g></g><g ewd:figtype="conn" ewd:figID="6" ewd:code="I77,I78,I83,I100"><path style="stroke-width: 1.42 ;&st7;  " d=" M  1400.14,   379.97  L  1400.14,   388.47  " /><text style="&st18;" transform="matrix(&st16;  1412.92  400.91 )">1</text><text style="&st18;" transform="matrix(&st16;  1327.94  380.53 )">2</text><text style="&st18;" transform="matrix(&st16;  1327.94  355.04 )">3</text><path style="stroke-width: 0.85 ;&st7;  " d=" M  1104.81,   384.22  L  1104.81,   409.72  " /><path style="stroke-width: 0.85 ;&st7;  " d=" M  1419.26,   409.72  L  1419.26,   384.22  L  1410.76,   384.22  " /><path style="stroke-width: 0.85 ;&st7;  " d=" M  1385.27,   384.22  L  1385.27,   358.73  " /><path style="stroke-width: 0.85 ;&st7;  " d=" M  1384.08,   383.22  L  1383.80,   383.69  L  1383.71,   384.22  L  1383.80,   384.75  L  1384.08,   385.22  L  1384.49,   385.57  L  1385.00,   385.76  L  1385.54,   385.76  L  1386.05,   385.57  L  1386.46,   385.22  L  1386.73,   384.75  L  1386.83,   384.22  L  1386.73,   383.69  L  1386.46,   383.22  L  1386.05,   382.87  L  1385.54,   382.69  L  1385.00,   382.69  L  1384.49,   382.87  L  1384.08,   383.22  L  1384.47,   383.93  L  1384.47,   384.51  L  1384.84,   384.96  L  1385.42,   385.06  L  1385.92,   384.77  L  1386.12,   384.22  L  1385.92,   383.67  L  1385.42,   383.39  L  1384.84,   383.48  L  1385.27,   384.22  " /><path style="stroke-width: 0.85 ;&st7;  " d=" M  1299.09,   383.22  L  1298.82,   383.69  L  1298.72,   384.22  L  1298.82,   384.75  L  1299.09,   385.22  L  1299.50,   385.57  L  1300.01,   385.76  L  1300.55,   385.76  L  1301.06,   385.57  L  1301.47,   385.22  L  1301.75,   384.75  L  1301.84,   384.22  L  1301.75,   383.69  L  1301.47,   383.22  L  1301.06,   382.87  L  1300.55,   382.69  L  1300.01,   382.69  L  1299.50,   382.87  L  1299.09,   383.22  L  1299.48,   383.93  L  1299.48,   384.51  L  1299.86,   384.96  L  1300.43,   385.06  L  1300.93,   384.77  L  1301.13,   384.22  L  1300.93,   383.67  L  1300.43,   383.39  L  1299.86,   383.48  L  1300.28,   384.22  " /><path style="stroke-width: 0.85 ;&st7;  " d=" M  1163.11,   357.72  L  1162.84,   358.19  L  1162.75,   358.73  L  1162.84,   359.26  L  1163.11,   359.73  L  1163.53,   360.07  L  1164.03,   360.26  L  1164.58,   360.26  L  1165.08,   360.07  L  1165.50,   359.73  L  1165.77,   359.26  L  1165.86,   358.73  L  1165.77,   358.19  L  1165.50,   357.72  L  1165.08,   357.38  L  1164.58,   357.19  L  1164.03,   357.19  L  1163.53,   357.38  L  1163.11,   357.72  L  1163.51,   358.43  L  1163.51,   359.02  L  1163.88,   359.46  L  1164.45,   359.56  L  1164.96,   359.27  L  1165.15,   358.73  L  1164.96,   358.18  L  1164.45,   357.89  L  1163.88,   357.99  L  1164.30,   358.73  " /><path style="stroke-width: 0.85 ;&st7;  " d=" M  1351.27,   384.22  L  1104.81,   384.22  " /><path style="stroke-width: 0.85 ;&st7;  " d=" M  1351.27,   358.73  L  1130.31,   358.73  L  1130.31,   409.72  " /><path style="stroke-width: 0.85 ;&st7;  " d=" M  1351.27,   384.22  L  1359.77,   384.22  L  1361.19,   381.39  L  1364.02,   387.05  L  1366.85,   381.39  L  1369.69,   387.05  L  1372.52,   381.39  L  1375.35,   387.05  L  1376.77,   384.22  L  1385.27,   384.22  " /><path style="stroke-width: 0.85 ;&st7;  " d=" M  1351.27,   358.73  L  1359.77,   358.73  L  1361.19,   355.89  L  1364.02,   361.56  L  1366.85,   355.89  L  1369.69,   361.56  L  1372.52,   355.89  L  1375.35,   361.56  L  1376.77,   358.73  L  1385.27,   358.73  " /><path style="stroke-width: 1.42 ;&st7;  " d=" M  1334.28,   350.23  L  1334.28,   392.72  L  1427.76,   392.72  L  1427.76,   350.23  L  1334.28,   350.23  " /><path style="stroke-width: 0.85 ;&st7;  " d=" M  1300.28,   341.73  L  1300.28,   409.72  " /><path style="stroke-width: 0.85 ;&st7;  " d=" M  1164.30,   341.73  L  1164.30,   409.72  " /><path style="stroke-width: 1.42 ;&st7;  " d=" M  1436.26,   341.73  L  1436.26,   409.72  L  1087.82,   409.72  L  1087.82,   341.73  L  1436.26,   341.73  " /><path style="stroke-width: 1.42 ;&st7;  " d=" M  1317.28,   341.73  L  1317.28,   409.72  " /><path style="stroke-width: 1.42 ;&st7;  " d=" M  1395.89,   379.97  L  1395.89,   388.47  " /><path style="stroke-width: 0.85 ;&st7;  " d=" M  1395.89,   384.22  L  1385.27,   384.22  " /><path style="stroke-width: 0.85 ;&st7;  " d=" M  1410.76,   384.22  L  1400.14,   384.22  " /><text style="&st18;" transform="matrix(&st16;  1290.8  339.16 )">1</text><path style="stroke-width: 1.42 ;&st7;   " d=" M  1304.82,   337.20  C  1304.82    334.69   1302.79    332.66   1300.28    332.66  " /><path style="stroke-width: 1.42 ;&st7;   " d=" M  1300.28,   332.66  C  1297.78    332.66   1295.75    334.69   1295.75    337.20  " /><path style="stroke-width: 1.42 ;&st7;   " d=" M  1295.75,   337.20  C  1295.75    339.70   1297.78    341.73   1300.28    341.73  " /><path style="stroke-width: 1.42 ;&st7;   " d=" M  1300.28,   341.73  C  1302.79    341.73   1304.82    339.70   1304.82    337.20  " /><text style="&st18;" transform="matrix(&st16;  1298.02  339.16 )">A</text><text style="&st18;" transform="matrix(&st16;  1154.83  339.16 )">2</text><path style="stroke-width: 1.42 ;&st7;   " d=" M  1168.84,   337.20  C  1168.84    334.69   1166.81    332.66   1164.31    332.66  " /><path style="stroke-width: 1.42 ;&st7;   " d=" M  1164.31,   332.66  C  1161.80    332.66   1159.77    334.69   1159.77    337.20  " /><path style="stroke-width: 1.42 ;&st7;   " d=" M  1159.77,   337.20  C  1159.77    339.70   1161.80    341.73   1164.31    341.73  " /><path style="stroke-width: 1.42 ;&st7;   " d=" M  1164.31,   341.73  C  1166.81    341.73   1168.84    339.70   1168.84    337.20  " /><text style="&st18;" transform="matrix(&st16;  1162.04  339.16 )">A</text><text style="&st18;" transform="matrix(&st16;  1120.83  416.22 )">2</text><text style="&st18;" transform="matrix(&st16;  1127.89  416.22 )">D</text><path style="stroke-width: 1.42 ;&st7;   " d=" M  1134.84,   414.25  C  1134.84    411.75   1132.81    409.72   1130.31    409.72  " /><path style="stroke-width: 1.42 ;&st7;   " d=" M  1130.31,   409.72  C  1127.81    409.72   1125.78    411.75   1125.78    414.25  " /><path style="stroke-width: 1.42 ;&st7;   " d=" M  1125.78,   414.25  C  1125.78    416.75   1127.81    418.78   1130.31    418.78  " /><path style="stroke-width: 1.42 ;&st7;   " d=" M  1130.31,   418.78  C  1132.81    418.78   1134.84    416.75   1134.84    414.25  " /><text style="&st18;" transform="matrix(&st16;  1154.83  416.22 )">2</text><text style="&st18;" transform="matrix(&st16;  1162.04  416.22 )">B</text><path style="stroke-width: 1.42 ;&st7;   " d=" M  1168.84,   414.25  C  1168.84    411.75   1166.81    409.72   1164.31    409.72  " /><path style="stroke-width: 1.42 ;&st7;   " d=" M  1164.31,   409.72  C  1161.80    409.72   1159.77    411.75   1159.77    414.25  " /><path style="stroke-width: 1.42 ;&st7;   " d=" M  1159.77,   414.25  C  1159.77    416.75   1161.80    418.78   1164.31    418.78  " /><path style="stroke-width: 1.42 ;&st7;   " d=" M  1164.31,   418.78  C  1166.81    418.78   1168.84    416.75   1168.84    414.25  " /><text style="&st18;" transform="matrix(&st16;  1290.8  416.22 )">1</text><text style="&st18;" transform="matrix(&st16;  1298.02  416.22 )">B</text><path style="stroke-width: 1.42 ;&st7;   " d=" M  1304.82,   414.25  C  1304.82    411.75   1302.79    409.72   1300.28    409.72  " /><path style="stroke-width: 1.42 ;&st7;   " d=" M  1300.28,   409.72  C  1297.78    409.72   1295.75    411.75   1295.75    414.25  " /><path style="stroke-width: 1.42 ;&st7;   " d=" M  1295.75,   414.25  C  1295.75    416.75   1297.78    418.78   1300.28    418.78  " /><path style="stroke-width: 1.42 ;&st7;   " d=" M  1300.28,   418.78  C  1302.79    418.78   1304.82    416.75   1304.82    414.25  " /><text style="&st18;" transform="matrix(&st16;  1409.78  416.22 )">1</text><path style="stroke-width: 1.42 ;&st7;   " d=" M  1423.80,   414.25  C  1423.80    411.75   1421.77    409.72   1419.26    409.72  " /><path style="stroke-width: 1.42 ;&st7;   " d=" M  1419.26,   409.72  C  1416.76    409.72   1414.73    411.75   1414.73    414.25  " /><path style="stroke-width: 1.42 ;&st7;   " d=" M  1414.73,   414.25  C  1414.73    416.75   1416.76    418.78   1419.26    418.78  " /><path style="stroke-width: 1.42 ;&st7;   " d=" M  1419.26,   418.78  C  1421.77    418.78   1423.80    416.75   1423.80    414.25  " /><text style="&st18;" transform="matrix(&st16;  1416.84  416.22 )">C</text><text style="&st18;" transform="matrix(&st16;  1095.34  416.22 )">1</text><text style="&st18;" transform="matrix(&st16;  1102.39  416.22 )">D</text><path style="stroke-width: 1.42 ;&st7;   " d=" M  1109.35,   414.25  C  1109.35    411.75   1107.32    409.72   1104.82    409.72  " /><path style="stroke-width: 1.42 ;&st7;   " d=" M  1104.82,   409.72  C  1102.31    409.72   1100.28    411.75   1100.28    414.25  " /><path style="stroke-width: 1.42 ;&st7;   " d=" M  1100.28,   414.25  C  1100.28    416.75   1102.31    418.78   1104.82    418.78  " /><path style="stroke-width: 1.42 ;&st7;   " d=" M  1104.82,   418.78  C  1107.32    418.78   1109.35    416.75   1109.35    414.25  " /><g ewd:figtype="title"><text style="&st18;" transform="matrix(&st17;  1444.15  412.62 )">I77(A),I78(B),I83(D),I100(C)</text><text style="&st18;" transform="matrix(&st17;  1450.98  412.62 )" ewd:textID="23">No. 1 CAN Junction Connector</text></g></g><g ewd:figtype="conn" ewd:figID="13" ewd:code="I17"><path style="stroke-width: 1.42 ;&st7;  " d=" M  1172.80,   554.19  L  1342.78,   554.19  L  1342.78,   520.20  L  1172.80,   520.20  L  1172.80,   554.19  " /><g ewd:lineID="27,48,84"><text style="&st18;" transform="matrix(&st16;  1180.13  516.51 )">14</text><text style="&st18;" transform="matrix(&st16;  1181.53  527.83 )">CANL</text></g><g ewd:lineID="33,51,85"><text style="&st18;" transform="matrix(&st16;  1319.44  516.51 )">6</text><text style="&st18;" transform="matrix(&st16;  1317.0  527.83 )">CANH</text></g><g ewd:figtype="title"><text style="&st18;" transform="matrix(&st16;  1345.03  530.92 )">I17</text><text style="&st18;" transform="matrix(&st16;  1345.04  537.75 )">DLC3</text></g></g><g ewd:figtype="w2w" ewd:figID="44" ewd:code="AI3"><text style="&st18;" transform="matrix(&st16;  1207.04  169.48 )">58</text><path style="stroke-width: 1.42 ;&st7;  " d=" M  1228.04,   177.42  L  1223.80,   173.17  L  1219.55,   177.42  " /><path style="stroke-width: 1.42 ;&st7;  " d=" M  1228.04,   180.82  L  1223.80,   176.57  L  1219.55,   180.82  " /></g><g ewd:figtype="w2w" ewd:figID="45" ewd:code="AI3"><text style="&st18;" transform="matrix(&st16;  1343.02  169.48 )">57</text><path style="stroke-width: 1.42 ;&st7;  " d=" M  1364.02,   177.42  L  1359.77,   173.17  L  1355.52,   177.42  " /><path style="stroke-width: 1.42 ;&st7;  " d=" M  1364.02,   180.82  L  1359.77,   176.57  L  1355.52,   180.82  " /></g><g ewd:figtype="gp" ewd:figID="69" ewd:code="IA"><path style="stroke-width: 0.85 ;&st7;  " d=" M  1417.85,   710.00  L  1420.68,   710.00  " /><path style="stroke-width: 0.85 ;&st7;  " d=" M  1416.43,   707.17  L  1422.10,   707.17  " /><path style="stroke-width: 0.85 ;&st7;  " d=" M  1415.01,   704.33  L  1423.51,   704.33  " /><path style="stroke-width: 0.85 ;&st7;  " d=" M  1410.76,   701.50  L  1427.76,   701.50  " /><path style="stroke-width: 0.85 ;&st7;  " d=" M  1419.26,   697.25  L  1419.26,   701.50  "/></g><g ewd:code="" ewd:figID="84" ewd:comment="" ewd:figtype="commref"><text style="&st18;" transform="matrix(&st16;  1364.87  85.34 )">(RHD)</text></g><g ewd:code="" ewd:figID="89" ewd:comment="" ewd:figtype="commref"><text style="&st18;" transform="matrix(&st16;  1364.87  76.28 )">(LHD)</text></g></svg>
