<?xml version="1.0" encoding="utf-8"?>
<!DOCTYPE svg PUBLIC "-//W3C//DTD SVG 1.0//EN" "http://www.w3.org/TR/2001/REC-SVG-20010904/DTD/svg10.dtd"[
	<!ENTITY ns_flows "http://ns.adobe.com/Flows/1.0/">
	<!ENTITY ns_svg "http://www.w3.org/2000/svg">
	<!ENTITY ns_xlink "http://www.w3.org/1999/xlink">
	<!ENTITY st0 "font-size:7px;font-family:'MS-PGothic';adobe-font-script:japanese;">
	<!ENTITY st1 "font-size:6px;font-family:'ArialMT';">
	<!-- White fill  -->
	<!ENTITY st2 "fill:#FFFFFF;stroke:#000000; stroke-width:1.41;stroke-linecap:round;stroke-linejoin:round;">
	<!-- Yellow fill  -->
	<!ENTITY st3 "fill:#FFFFCC;stroke:#FFFFCC; stroke-width:0.1;stroke-linecap:round;stroke-linejoin:round;">
	<!-- Gray fill  -->
	<!ENTITY st4 "fill:#CCCCCC;stroke:#CCCCCC; stroke-width:0.1;stroke-linecap:round;stroke-linejoin:round;">
	<!-- Light-blue fill -->
	<!ENTITY st5 "fill:#CCECF4;stroke:#000000; stroke-width:1.133;stroke-linecap:round;stroke-linejoin:round;">
	<!ENTITY st6 "fill:none;stroke-linecap:butt; stroke-linejoin:round;">
	<!ENTITY st7 "fill:none;stroke:#000000;stroke-linecap:round;stroke-linejoin:round;">
	<!ENTITY st8 "enable-background:new    ;">
	<!-- Black fill -->
	<!ENTITY st9 "fill:#000000;stroke:#000000; stroke-linecap:round;stroke-linejoin:round;">
	<!-- SRS note   -->
	<!ENTITY st10 "font-size:9px;font-family:'ArialMT';">
	<!ENTITY st11 "font-size:9px;font-family:'Svg Symbol';">
	<!ENTITY st12 "font-size:6px;font-family:'Svg Symbol';">
	<!ENTITY st13 "fill:none;stroke:#ff0000;stroke-linecap:round;stroke-linejoin:round;">
	<!-- Yellow fill  -->
	<!ENTITY st14 "fill:#FFFF00;stroke:#FFFF00; stroke-width:0.1;stroke-linecap:round;stroke-linejoin:round;">
	<!ENTITY st15 "font-size:6px;font-family:'MS-PGothic';adobe-font-script:japanese;">
	<!ENTITY st16 "1.00 0.00 0.00 1.00">
	<!ENTITY st17 "0.00 -1.00 1.00 0.00">
	<!ENTITY st18 "font-size:6px;font-family:'Arial';">
	<!ENTITY st19 "font-size:9px;font-family:'Arial';">
	<!ENTITY st20 "font-size:6px;font-family:'MS-PGothic','MS PGothic';adobe-font-script:japanese;">
	<!ENTITY st21 "font-size:7px;font-family:'MS-PGothic','MS PGothic';adobe-font-script:japanese;">
	<!ATTLIST svg
		xmlns:ewd CDATA #FIXED "http://shcl.co.jp/ewd"
		xmlns:a CDATA #FIXED "http://ns.adobe.com/AdobeSVGViewerExtensions/3.0/"
		ewd:ver CDATA #IMPLIED
	>
	<!ATTLIST a
		ewd:lineID CDATA #IMPLIED
		ewd:groupID CDATA #IMPLIED
		ewd:figtype CDATA #IMPLIED
		ewd:code CDATA #IMPLIED
		ewd:figID CDATA #IMPLIED
		ewd:pinNo CDATA #IMPLIED
		ewd:comment CDATA #IMPLIED >
	<!ATTLIST g
		ewd:lineID CDATA #IMPLIED
		ewd:groupID CDATA #IMPLIED
		ewd:figtype CDATA #IMPLIED
		ewd:code CDATA #IMPLIED
		ewd:figID CDATA #IMPLIED
		ewd:pinNo CDATA #IMPLIED
		ewd:comment CDATA #IMPLIED >
	<!ATTLIST text
		ewd:textID CDATA #IMPLIED >
	<!ATTLIST title
		ewd:textID CDATA #IMPLIED >
]>
<!-- Generator: Shintec Hozumi YS   -->
<svg onload="call_execInitLoadProc_svg('system')" style="overflow:visible;  enable-background:new 0 0 4047.195 710.000" viewBox="0 0 4047.195 710.000" height="710.000" width="4047.195" xml:space="preserve" ewd:ver="2.3.1.16" xmlns="&ns_svg;" xmlns:a="http://ns.adobe.com/AdobeSVGViewerExtensions/3.0/" xmlns:ewd="http://shcl.co.jp/ewd" xmlns:xlink="&ns_xlink;">
<path style="stroke-width: 1.42 ;&st7;  " d=" M  3399.43,   146.26  L  3407.93,   146.26  " /><path style="stroke-width: 1.42 ;&st7;  " d=" M  3339.94,   146.26  L  3348.44,   146.26  " /><path style="stroke-width: 1.42 ;&st7;  " d=" M  3280.45,   146.26  L  3288.95,   146.26  " /><path style="stroke-width: 1.42 ;&st7;  " d=" M  3229.46,   146.26  L  3237.96,   146.26  " /><path style="stroke-width: 1.42 ;&st7;  " d=" M  3195.47,   146.26  L  3203.96,   146.26  " /><path style="stroke-width: 1.42 ;&st7;  " d=" M  3433.43,   146.26  L  3441.92,   146.26  " /><text style="&st18;" transform="matrix(&st17;  3438.23  184.19 )">BR</text><text style="&st18;" transform="matrix(&st17;  3404.23  181.63 )">L</text><text style="&st18;" transform="matrix(&st17;  3344.75  188.15 )">BR-W</text><text style="&st18;" transform="matrix(&st17;  3285.26  185.59 )">L-W</text><text style="&st18;" transform="matrix(&st17;  3234.26  117.17 )">R-B</text><text style="&st18;" transform="matrix(&st17;  3234.26  185.16 )">R-B</text><text style="&st18;" transform="matrix(&st17;  3200.27  116.82 )">L-R</text><text style="&st18;" transform="matrix(&st17;  3200.27  184.81 )">L-R</text><text style="&st18;" transform="matrix(&st17;  3285.25  113.65 )">L</text><text style="&st18;" transform="matrix(&st17;  3344.74  114.03 )">P</text><text style="&st18;" transform="matrix(&st17;  3404.23  114.96 )">W</text><text style="&st18;" transform="matrix(&st17;  3438.23  116.2 )">BR</text><text style="&st18;" transform="matrix(&st16;  3132.57  279.96 )">ECM</text><text style="&st18;" transform="matrix(&st16;  3132.56  273.13 )">A29(A),C39(B)</text><text style="&st18;" transform="matrix(&st16;  3141.9  652.48 )">G</text><text style="&st18;" transform="matrix(&st16;  3073.91  652.48 )">G</text><text style="&st18;" transform="matrix(&st16;  3141.28  669.48 )">W</text><text style="&st18;" transform="matrix(&st16;  3073.29  669.48 )">W</text><g ewd:figtype="conn" ewd:figID="10" ewd:code="A29,C39"><g ewd:lineID="77"><text style="&st18;" transform="matrix(&st16;  3191.15  211.69 )">53</text><text style="&st18;" transform="matrix(&st16;  3201.7  211.69 )">A</text><path style="stroke-width: 1.42 ;&st7;   " d=" M  3208.50,   209.72  C  3208.50    207.21   3206.47    205.18   3203.96    205.18  " /><path style="stroke-width: 1.42 ;&st7;   " d=" M  3203.96,   205.18  C  3201.46    205.18   3199.43    207.21   3199.43    209.72  " /><path style="stroke-width: 1.42 ;&st7;   " d=" M  3199.43,   209.72  C  3199.43    212.22   3201.46    214.25   3203.96    214.25  " /><path style="stroke-width: 1.42 ;&st7;   " d=" M  3203.96,   214.25  C  3206.47    214.25   3208.50    212.22   3208.50    209.72  " /><text style="&st18;" transform="matrix(&st16;  3197.67  221.88 )">VPA</text></g><g ewd:lineID="79"><text style="&st18;" transform="matrix(&st16;  3225.14  211.69 )">54</text><path style="stroke-width: 1.42 ;&st7;   " d=" M  3242.49,   209.72  C  3242.49    207.21   3240.46    205.18   3237.96    205.18  " /><path style="stroke-width: 1.42 ;&st7;   " d=" M  3237.96,   205.18  C  3235.46    205.18   3233.43    207.21   3233.43    209.72  " /><path style="stroke-width: 1.42 ;&st7;   " d=" M  3233.43,   209.72  C  3233.43    212.22   3235.46    214.25   3237.96    214.25  " /><path style="stroke-width: 1.42 ;&st7;   " d=" M  3237.96,   214.25  C  3240.46    214.25   3242.49    212.22   3242.49    209.72  " /><text style="&st18;" transform="matrix(&st16;  3235.69  211.69 )">A</text><text style="&st18;" transform="matrix(&st16;  3230.03  221.88 )">VPA2</text></g><g ewd:lineID="81"><text style="&st18;" transform="matrix(&st16;  3276.14  211.69 )">55</text><text style="&st18;" transform="matrix(&st16;  3286.68  211.69 )">A</text><path style="stroke-width: 1.42 ;&st7;   " d=" M  3293.48,   209.72  C  3293.48    207.21   3291.45    205.18   3288.95    205.18  " /><path style="stroke-width: 1.42 ;&st7;   " d=" M  3288.95,   205.18  C  3286.45    205.18   3284.42    207.21   3284.42    209.72  " /><path style="stroke-width: 1.42 ;&st7;   " d=" M  3284.42,   209.72  C  3284.42    212.22   3286.45    214.25   3288.95    214.25  " /><path style="stroke-width: 1.42 ;&st7;   " d=" M  3288.95,   214.25  C  3291.45    214.25   3293.48    212.22   3293.48    209.72  " /><text style="&st18;" transform="matrix(&st16;  3280.48  221.88 )">VCPA</text></g><g ewd:lineID="83"><text style="&st18;" transform="matrix(&st16;  3335.63  211.69 )">56</text><path style="stroke-width: 1.42 ;&st7;   " d=" M  3352.97,   209.72  C  3352.97    207.21   3350.94    205.18   3348.44    205.18  " /><path style="stroke-width: 1.42 ;&st7;   " d=" M  3348.44,   205.18  C  3345.94    205.18   3343.91    207.21   3343.91    209.72  " /><path style="stroke-width: 1.42 ;&st7;   " d=" M  3343.91,   209.72  C  3343.91    212.22   3345.94    214.25   3348.44    214.25  " /><path style="stroke-width: 1.42 ;&st7;   " d=" M  3348.44,   214.25  C  3350.94    214.25   3352.97    212.22   3352.97    209.72  " /><text style="&st18;" transform="matrix(&st16;  3346.17  211.69 )">A</text><text style="&st18;" transform="matrix(&st16;  3340.36  221.88 )">VCP2</text></g><g ewd:lineID="85"><text style="&st18;" transform="matrix(&st16;  3395.12  211.69 )">57</text><text style="&st18;" transform="matrix(&st16;  3405.66  211.69 )">A</text><path style="stroke-width: 1.42 ;&st7;   " d=" M  3412.46,   209.72  C  3412.46    207.21   3410.43    205.18   3407.93    205.18  " /><path style="stroke-width: 1.42 ;&st7;   " d=" M  3407.93,   205.18  C  3405.43    205.18   3403.40    207.21   3403.40    209.72  " /><path style="stroke-width: 1.42 ;&st7;   " d=" M  3403.40,   209.72  C  3403.40    212.22   3405.43    214.25   3407.93    214.25  " /><path style="stroke-width: 1.42 ;&st7;   " d=" M  3407.93,   214.25  C  3410.43    214.25   3412.46    212.22   3412.46    209.72  " /><text style="&st18;" transform="matrix(&st16;  3401.63  221.88 )">EPA</text></g><g ewd:lineID="87"><text style="&st18;" transform="matrix(&st16;  3429.11  211.69 )">58</text><path style="stroke-width: 1.42 ;&st7;   " d=" M  3446.46,   209.72  C  3446.46    207.21   3444.43    205.18   3441.92    205.18  " /><path style="stroke-width: 1.42 ;&st7;   " d=" M  3441.92,   205.18  C  3439.42    205.18   3437.39    207.21   3437.39    209.72  " /><path style="stroke-width: 1.42 ;&st7;   " d=" M  3437.39,   209.72  C  3437.39    212.22   3439.42    214.25   3441.92    214.25  " /><path style="stroke-width: 1.42 ;&st7;   " d=" M  3441.92,   214.25  C  3444.43    214.25   3446.46    212.22   3446.46    209.72  " /><text style="&st18;" transform="matrix(&st16;  3439.66  211.69 )">A</text><text style="&st18;" transform="matrix(&st16;  3434.0  221.88 )">EPA2</text></g></g><g ewd:figtype="conn" ewd:figID="11" ewd:code="I43"><path style="stroke-width: 1.42 ;&st7;  " d=" M  3186.97,    78.27  L  3458.92,    78.27  L  3458.92,    35.78  L  3186.97,    35.78  L  3186.97,    78.27  " /><g ewd:lineID="78"><text style="&st18;" transform="matrix(&st16;  3197.63  86.47 )">6</text><text style="&st18;" transform="matrix(&st16;  3197.67  74.58 )">VPA</text></g><g ewd:lineID="80"><text style="&st18;" transform="matrix(&st16;  3231.62  86.47 )">3</text><text style="&st18;" transform="matrix(&st16;  3230.03  74.58 )">VPA2</text></g><g ewd:lineID="82"><text style="&st18;" transform="matrix(&st16;  3282.61  86.47 )">4</text><text style="&st18;" transform="matrix(&st16;  3280.48  74.58 )">VCPA</text></g><g ewd:lineID="84"><text style="&st18;" transform="matrix(&st16;  3342.1  86.47 )">1</text><text style="&st18;" transform="matrix(&st16;  3340.36  74.58 )">VCP2</text></g><g ewd:lineID="86"><text style="&st18;" transform="matrix(&st16;  3401.59  86.47 )">5</text><text style="&st18;" transform="matrix(&st16;  3401.63  74.58 )">EPA</text></g><g ewd:lineID="88"><text style="&st18;" transform="matrix(&st16;  3435.59  86.47 )">2</text><text style="&st18;" transform="matrix(&st16;  3434.0  74.58 )">EPA2</text></g><g ewd:figtype="title"><text style="&st18;" transform="matrix(&st16;  3183.56  32.08 )" ewd:textID="4">Accelerator Pedal Sensor Assembly</text><text style="&st18;" transform="matrix(&st16;  3183.55  25.26 )">I43</text></g></g><g ewd:figtype="w2w" ewd:figID="51" ewd:code="AI3"><path style="stroke-width: 1.42 ;&st7;  " d=" M  3199.71,   137.20  L  3203.96,   141.45  L  3208.21,   137.20  " /><path style="stroke-width: 1.42 ;&st7;  " d=" M  3208.21,   140.60  L  3203.96,   144.84  L  3199.71,   140.60  " /><text style="&st18;" transform="matrix(&st16;  3187.21  152.48 )">21</text></g><g ewd:figtype="w2w" ewd:figID="52" ewd:code="AI3"><path style="stroke-width: 1.42 ;&st7;  " d=" M  3233.71,   137.20  L  3237.96,   141.45  L  3242.21,   137.20  " /><path style="stroke-width: 1.42 ;&st7;  " d=" M  3242.21,   140.60  L  3237.96,   144.84  L  3233.71,   140.60  " /><text style="&st18;" transform="matrix(&st16;  3221.21  152.48 )">37</text></g><g ewd:figtype="w2w" ewd:figID="53" ewd:code="AI3"><path style="stroke-width: 1.42 ;&st7;  " d=" M  3284.70,   137.20  L  3288.95,   141.45  L  3293.20,   137.20  " /><path style="stroke-width: 1.42 ;&st7;  " d=" M  3293.20,   140.60  L  3288.95,   144.84  L  3284.70,   140.60  " /><text style="&st18;" transform="matrix(&st16;  3272.2  152.48 )">35</text></g><g ewd:figtype="w2w" ewd:figID="54" ewd:code="AI3"><path style="stroke-width: 1.42 ;&st7;  " d=" M  3344.19,   137.20  L  3348.44,   141.45  L  3352.69,   137.20  " /><path style="stroke-width: 1.42 ;&st7;  " d=" M  3352.69,   140.60  L  3348.44,   144.84  L  3344.19,   140.60  " /><text style="&st18;" transform="matrix(&st16;  3331.69  152.48 )">51</text></g><g ewd:figtype="w2w" ewd:figID="55" ewd:code="AI3"><path style="stroke-width: 1.42 ;&st7;  " d=" M  3403.68,   137.20  L  3407.93,   141.45  L  3412.18,   137.20  " /><path style="stroke-width: 1.42 ;&st7;  " d=" M  3412.18,   140.60  L  3407.93,   144.84  L  3403.68,   140.60  " /><text style="&st18;" transform="matrix(&st16;  3391.18  152.48 )">36</text></g><g ewd:figtype="w2w" ewd:figID="56" ewd:code="AI3"><path style="stroke-width: 1.42 ;&st7;  " d=" M  3437.67,   137.20  L  3441.92,   141.45  L  3446.17,   137.20  " /><path style="stroke-width: 1.42 ;&st7;  " d=" M  3446.17,   140.60  L  3441.92,   144.84  L  3437.67,   140.60  " /><text style="&st18;" transform="matrix(&st16;  3425.17  152.48 )">49</text></g></svg>