<?xml version="1.0" encoding="utf-8"?>
<!DOCTYPE svg PUBLIC "-//W3C//DTD SVG 1.0//EN" "http://www.w3.org/TR/2001/REC-SVG-20010904/DTD/svg10.dtd"[
	<!ENTITY ns_flows "http://ns.adobe.com/Flows/1.0/">
	<!ENTITY ns_svg "http://www.w3.org/2000/svg">
	<!ENTITY ns_xlink "http://www.w3.org/1999/xlink">
	<!ENTITY st0 "font-size:7px;font-family:'MS-PGothic';adobe-font-script:japanese;">
	<!ENTITY st1 "font-size:6px;font-family:'ArialMT';">
	<!-- White fill  -->
	<!ENTITY st2 "fill:#FFFFFF;stroke:#000000; stroke-width:1.41;stroke-linecap:round;stroke-linejoin:round;">
	<!-- Yellow fill  -->
	<!ENTITY st3 "fill:#FFFFCC;stroke:#FFFFCC; stroke-width:0.1;stroke-linecap:round;stroke-linejoin:round;">
	<!-- Gray fill  -->
	<!ENTITY st4 "fill:#CCCCCC;stroke:#CCCCCC; stroke-width:0.1;stroke-linecap:round;stroke-linejoin:round;">
	<!-- Light-blue fill -->
	<!ENTITY st5 "fill:#CCECF4;stroke:#000000; stroke-width:1.133;stroke-linecap:round;stroke-linejoin:round;">
	<!ENTITY st6 "fill:none;stroke-linecap:butt; stroke-linejoin:round;">
	<!ENTITY st7 "fill:none;stroke:#000000;stroke-linecap:round;stroke-linejoin:round;">
	<!ENTITY st8 "enable-background:new    ;">
	<!-- Black fill -->
	<!ENTITY st9 "fill:#000000;stroke:#000000; stroke-linecap:round;stroke-linejoin:round;">
	<!-- SRS note   -->
	<!ENTITY st10 "font-size:9px;font-family:'ArialMT';">
	<!ENTITY st11 "font-size:9px;font-family:'Svg Symbol';">
	<!ENTITY st12 "font-size:6px;font-family:'Svg Symbol';">
	<!ENTITY st13 "fill:none;stroke:#ff0000;stroke-linecap:round;stroke-linejoin:round;">
	<!-- Yellow fill  -->
	<!ENTITY st14 "fill:#FFFF00;stroke:#FFFF00; stroke-width:0.1;stroke-linecap:round;stroke-linejoin:round;">
	<!ENTITY st15 "font-size:6px;font-family:'MS-PGothic';adobe-font-script:japanese;">
	<!ENTITY st16 "1.00 0.00 0.00 1.00">
	<!ENTITY st17 "0.00 -1.00 1.00 0.00">
	<!ENTITY st18 "font-size:6px;font-family:'Arial';">
	<!ENTITY st19 "font-size:9px;font-family:'Arial';">
	<!ENTITY st20 "font-size:6px;font-family:'MS-PGothic','MS PGothic';adobe-font-script:japanese;">
	<!ENTITY st21 "font-size:7px;font-family:'MS-PGothic','MS PGothic';adobe-font-script:japanese;">
	<!ATTLIST svg
		xmlns:ewd CDATA #FIXED "http://shcl.co.jp/ewd"
		xmlns:a CDATA #FIXED "http://ns.adobe.com/AdobeSVGViewerExtensions/3.0/"
		ewd:ver CDATA #IMPLIED
	>
	<!ATTLIST a
		ewd:lineID CDATA #IMPLIED
		ewd:groupID CDATA #IMPLIED
		ewd:figtype CDATA #IMPLIED
		ewd:code CDATA #IMPLIED
		ewd:figID CDATA #IMPLIED
		ewd:pinNo CDATA #IMPLIED
		ewd:comment CDATA #IMPLIED >
	<!ATTLIST g
		ewd:lineID CDATA #IMPLIED
		ewd:groupID CDATA #IMPLIED
		ewd:figtype CDATA #IMPLIED
		ewd:code CDATA #IMPLIED
		ewd:figID CDATA #IMPLIED
		ewd:pinNo CDATA #IMPLIED
		ewd:comment CDATA #IMPLIED >
	<!ATTLIST text
		ewd:textID CDATA #IMPLIED >
	<!ATTLIST title
		ewd:textID CDATA #IMPLIED >
]>
<!-- Generator: Shintec Hozumi YS   -->
<svg onload="call_execInitLoadProc_svg('system')" style="overflow:visible;  enable-background:new 0 0 4047.195 710.000" viewBox="0 0 4047.195 710.000" height="710.000" width="4047.195" xml:space="preserve" ewd:ver="2.3.1.16" xmlns="&ns_svg;" xmlns:a="http://ns.adobe.com/AdobeSVGViewerExtensions/3.0/" xmlns:ewd="http://shcl.co.jp/ewd" xmlns:xlink="&ns_xlink;">
<path style="stroke-width: 1.42 ;&st7;  " d=" M  2473.09,   120.77  L  2481.59,   120.77  " /><path style="stroke-width: 1.42 ;&st7;  " d=" M  2311.61,   358.73  L  2303.12,   358.73  " /><text style="&st18;" transform="matrix(&st17;  2171.94  275.51 )">B</text><text style="&st18;" transform="matrix(&st17;  2120.95  276.44 )">W</text><text style="&st18;" transform="matrix(&st17;  2120.95  114.96 )">W</text><text style="&st18;" transform="matrix(&st17;  2477.89  97.97 )">W</text><text style="&st18;" transform="matrix(&st17;  2333.41  386.3 )">G</text><text style="&st18;" transform="matrix(&st17;  2299.42  386.92 )">W</text><text style="&st18;" transform="matrix(&st17;  2171.94  114.03 )">B</text><text style="&st18;" transform="matrix(&st17;  2299.42  165.96 )">W</text><text style="&st18;" transform="matrix(&st17;  2333.41  165.02 )">P</text><text style="&st18;" transform="matrix(&st17;  2477.89  310.43 )">W</text><text style="&st18;" transform="matrix(&st17;  2443.9  310.43 )">W</text><text style="&st18;" transform="matrix(&st17;  2409.9  309.5 )">B</text><text style="&st18;" transform="matrix(&st17;  2333.41  309.81 )">G</text><text style="&st18;" transform="matrix(&st17;  2299.42  310.43 )">W</text><text style="&st18;" transform="matrix(&st17;  2120.95  412.41 )">W</text><text style="&st18;" transform="matrix(&st17;  2171.94  411.48 )">B</text><text style="&st18;" transform="matrix(&st17;  2358.91  309.5 )">B</text><text style="&st18;" transform="matrix(&st17;  2384.41  310.43 )">W</text><text style="&st18;" transform="matrix(&st17;  2477.89  165.96 )">W</text><path style="stroke-width: 1.42 ;&st7;  " d=" M  2116.15,   316.23  L  2124.65,   316.23  " /><path style="stroke-width: 1.42 ;&st7;  " d=" M  2167.14,   316.23  L  2175.64,   316.23  " /><path style="stroke-width: 1.42 ;&st7;  " d=" M  2345.61,   358.73  L  2337.11,   358.73  " /><text style="&st18;" transform="matrix(&st16;  2104.45  584.49 )">W</text><text style="&st18;" transform="matrix(&st16;  2036.46  584.49 )">W</text><text style="&st18;" transform="matrix(&st16;  2103.37  601.49 )">SB</text><text style="&st18;" transform="matrix(&st16;  2035.38  601.49 )">SB</text><g ewd:figtype="conn" ewd:figID="13" ewd:code="L47"><path style="stroke-width: 1.42 ;&st7;  " d=" M  2464.59,    69.77  L  2532.58,    69.77  L  2532.58,    35.78  L  2464.59,    35.78  L  2464.59,    69.77  " /><g ewd:lineID="62"><text style="&st18;" transform="matrix(&st16;  2475.25  77.97 )">3</text><text style="&st18;" transform="matrix(&st16;  2473.31  66.08 )">CANL</text></g><g ewd:figtype="title"><text style="&st18;" transform="matrix(&st16;  2461.18  19.31 )">L47</text><text style="&st18;" transform="matrix(&st16;  2461.18  26.13 )" ewd:textID="23">Steering Sensor (Spiral <tspan x="0 " dy="6.0">Cable with Sensor Sub-Assembly)</tspan></text></g></g><g ewd:figtype="conn" ewd:figID="14" ewd:code="I51"><path style="stroke-width: 1.42 ;&st7;  " d=" M  2286.12,    69.77  L  2354.11,    69.77  L  2354.11,    35.78  L  2286.12,    35.78  L  2286.12,    69.77  " /><g ewd:lineID="53"><text style="&st18;" transform="matrix(&st16;  2293.44  77.97 )">22</text><text style="&st18;" transform="matrix(&st16;  2294.84  66.08 )">CANL</text></g><g ewd:lineID="55"><text style="&st18;" transform="matrix(&st16;  2327.44  77.97 )">13</text><text style="&st18;" transform="matrix(&st16;  2328.33  66.08 )">CANH</text></g><g ewd:figtype="title"><text style="&st18;" transform="matrix(&st16;  2282.71  25.26 )">I51</text><text style="&st18;" transform="matrix(&st16;  2282.71  32.08 )" ewd:textID="5">Airbag Sensor Assembly</text></g></g><g ewd:figtype="conn" ewd:figID="16" ewd:code="A45"><path style="stroke-width: 1.42 ;&st7;  " d=" M  2107.65,    35.78  L  2107.65,    78.27  L  2192.63,    78.27  L  2192.63,    35.78  L  2107.65,    35.78  " /><g ewd:lineID="49"><text style="&st18;" transform="matrix(&st16;  2111.83  84.77 )">43</text><text style="&st18;" transform="matrix(&st16;  2122.38  84.77 )">B</text><path style="stroke-width: 1.42 ;&st7;   " d=" M  2129.18,    82.80  C  2129.18     80.30   2127.15     78.27   2124.65     78.27  " /><path style="stroke-width: 1.42 ;&st7;   " d=" M  2124.65,    78.27  C  2122.14     78.27   2120.11     80.30   2120.11     82.80  " /><path style="stroke-width: 1.42 ;&st7;   " d=" M  2120.11,    82.80  C  2120.11     85.31   2122.14     87.34   2124.65     87.34  " /><path style="stroke-width: 1.42 ;&st7;   " d=" M  2124.65,    87.34  C  2127.15     87.34   2129.18     85.31   2129.18     82.80  " /><text style="&st18;" transform="matrix(&st16;  2116.37  74.58 )">CANL</text></g><g ewd:lineID="51"><text style="&st18;" transform="matrix(&st16;  2162.82  84.77 )">27</text><text style="&st18;" transform="matrix(&st16;  2173.37  84.77 )">B</text><path style="stroke-width: 1.42 ;&st7;   " d=" M  2180.17,    82.80  C  2180.17     80.30   2178.14     78.27   2175.64     78.27  " /><path style="stroke-width: 1.42 ;&st7;   " d=" M  2175.64,    78.27  C  2173.13     78.27   2171.10     80.30   2171.10     82.80  " /><path style="stroke-width: 1.42 ;&st7;   " d=" M  2171.10,    82.80  C  2171.10     85.31   2173.13     87.34   2175.64     87.34  " /><path style="stroke-width: 1.42 ;&st7;   " d=" M  2175.64,    87.34  C  2178.14     87.34   2180.17     85.31   2180.17     82.80  " /><text style="&st18;" transform="matrix(&st16;  2166.86  74.58 )">CANH</text></g><g ewd:figtype="title"><text style="&st18;" transform="matrix(&st16;  2104.24  25.26 )">A45(B)</text><text style="&st18;" transform="matrix(&st16;  2104.24  32.08 )" ewd:textID="6">Brake Actuator Assembly</text></g></g><g ewd:figtype="conn" ewd:figID="17" ewd:code="A25,A26"><path style="stroke-width: 1.42 ;&st7;  " d=" M  2116.15,   188.75  L  2184.13,   188.75  " /><path style="stroke-width: 1.42 ;&st7;  " d=" M  2116.15,   180.26  L  2116.15,   197.25  L  2184.13,   197.25  L  2184.13,   180.26  L  2116.15,   180.26  " /><text style="&st18;" transform="matrix(&st16;  2115.16  203.75 )">3</text><text style="&st18;" transform="matrix(&st16;  2122.38  203.75 )">A</text><path style="stroke-width: 1.42 ;&st7;   " d=" M  2129.18,   201.78  C  2129.18    199.28   2127.15    197.25   2124.65    197.25  " /><path style="stroke-width: 1.42 ;&st7;   " d=" M  2124.65,   197.25  C  2122.14    197.25   2120.11    199.28   2120.11    201.78  " /><path style="stroke-width: 1.42 ;&st7;   " d=" M  2120.11,   201.78  C  2120.11    204.29   2122.14    206.32   2124.65    206.32  " /><path style="stroke-width: 1.42 ;&st7;   " d=" M  2124.65,   206.32  C  2127.15    206.32   2129.18    204.29   2129.18    201.78  " /><text style="&st18;" transform="matrix(&st16;  2115.16  177.69 )">3</text><text style="&st18;" transform="matrix(&st16;  2122.38  177.69 )">B</text><path style="stroke-width: 1.42 ;&st7;   " d=" M  2129.18,   175.72  C  2129.18    173.22   2127.15    171.19   2124.65    171.19  " /><path style="stroke-width: 1.42 ;&st7;   " d=" M  2124.65,   171.19  C  2122.14    171.19   2120.11    173.22   2120.11    175.72  " /><path style="stroke-width: 1.42 ;&st7;   " d=" M  2120.11,   175.72  C  2120.11    178.23   2122.14    180.26   2124.65    180.26  " /><path style="stroke-width: 1.42 ;&st7;   " d=" M  2124.65,   180.26  C  2127.15    180.26   2129.18    178.23   2129.18    175.72  " /><text style="&st18;" transform="matrix(&st16;  2166.16  203.75 )">4</text><path style="stroke-width: 1.42 ;&st7;   " d=" M  2180.17,   201.78  C  2180.17    199.28   2178.14    197.25   2175.64    197.25  " /><path style="stroke-width: 1.42 ;&st7;   " d=" M  2175.64,   197.25  C  2173.13    197.25   2171.10    199.28   2171.10    201.78  " /><path style="stroke-width: 1.42 ;&st7;   " d=" M  2171.10,   201.78  C  2171.10    204.29   2173.13    206.32   2175.64    206.32  " /><path style="stroke-width: 1.42 ;&st7;   " d=" M  2175.64,   206.32  C  2178.14    206.32   2180.17    204.29   2180.17    201.78  " /><text style="&st18;" transform="matrix(&st16;  2173.37  203.75 )">A</text><text style="&st18;" transform="matrix(&st16;  2166.16  177.69 )">4</text><text style="&st18;" transform="matrix(&st16;  2173.37  177.69 )">B</text><path style="stroke-width: 1.42 ;&st7;   " d=" M  2180.17,   175.72  C  2180.17    173.22   2178.14    171.19   2175.64    171.19  " /><path style="stroke-width: 1.42 ;&st7;   " d=" M  2175.64,   171.19  C  2173.13    171.19   2171.10    173.22   2171.10    175.72  " /><path style="stroke-width: 1.42 ;&st7;   " d=" M  2171.10,   175.72  C  2171.10    178.23   2173.13    180.26   2175.64    180.26  " /><path style="stroke-width: 1.42 ;&st7;   " d=" M  2175.64,   180.26  C  2178.14    180.26   2180.17    178.23   2180.17    175.72  " /><g ewd:figtype="title"><text style="&st18;" transform="matrix(&st16;  2186.4  189.31 )" ewd:textID="7">Brake Vacuum <tspan x="0 " dy="6.0">Check Valve Assembly</tspan></text><text style="&st18;" transform="matrix(&st16;  2186.39  182.48 )">A25(A),A26(B)</text></g></g><g ewd:figtype="conn" ewd:figID="18" ewd:code="I134"><path style="stroke-width: 1.42 ;&st7;  " d=" M  2294.62,   273.74  L  2524.08,   273.74  L  2524.08,   248.24  L  2294.62,   248.24  L  2294.62,   273.74  " /><path style="stroke-width: 0.85 ;&st7;  " d=" M  2515.58,   248.24  L  2515.58,   256.74  " /><path style="stroke-width: 0.85 ;&st7;  " d=" M  2303.11,   248.24  L  2303.11,   273.74  " /><path style="stroke-width: 0.85 ;&st7;  " d=" M  2337.11,   248.24  L  2337.11,   273.74  " /><path style="stroke-width: 0.85 ;&st7;  " d=" M  2515.58,   273.74  L  2515.58,   256.74  L  2337.11,   256.74  " /><path style="stroke-width: 0.85 ;&st7;  " d=" M  2481.58,   273.74  L  2481.58,   265.24  L  2303.11,   265.24  " /><path style="stroke-width: 0.85 ;&st7;  " d=" M  2413.60,   273.74  L  2413.60,   256.74  " /><path style="stroke-width: 0.85 ;&st7;  " d=" M  2447.59,   273.74  L  2447.59,   265.24  " /><path style="stroke-width: 0.85 ;&st7;  " d=" M  2335.92,   255.74  L  2335.64,   256.21  L  2335.55,   256.74  L  2335.64,   257.28  L  2335.92,   257.75  L  2336.33,   258.09  L  2336.84,   258.28  L  2337.38,   258.28  L  2337.89,   258.09  L  2338.30,   257.75  L  2338.57,   257.28  L  2338.67,   256.74  L  2338.57,   256.21  L  2338.30,   255.74  L  2337.89,   255.39  L  2337.38,   255.21  L  2336.84,   255.21  L  2336.33,   255.39  L  2335.92,   255.74  L  2336.31,   256.45  L  2336.31,   257.03  L  2336.68,   257.48  L  2337.26,   257.58  L  2337.76,   257.29  L  2337.96,   256.74  L  2337.76,   256.20  L  2337.26,   255.91  L  2336.68,   256.01  L  2337.11,   256.74  " /><path style="stroke-width: 0.85 ;&st7;  " d=" M  2301.92,   264.24  L  2301.65,   264.71  L  2301.56,   265.24  L  2301.65,   265.77  L  2301.92,   266.24  L  2302.34,   266.59  L  2302.84,   266.78  L  2303.39,   266.78  L  2303.89,   266.59  L  2304.31,   266.24  L  2304.58,   265.77  L  2304.67,   265.24  L  2304.58,   264.71  L  2304.31,   264.24  L  2303.89,   263.89  L  2303.39,   263.71  L  2302.84,   263.71  L  2302.34,   263.89  L  2301.92,   264.24  L  2302.32,   264.95  L  2302.32,   265.53  L  2302.69,   265.98  L  2303.26,   266.08  L  2303.77,   265.79  L  2303.96,   265.24  L  2303.77,   264.69  L  2303.26,   264.41  L  2302.69,   264.50  L  2303.11,   265.24  " /><path style="stroke-width: 0.85 ;&st7;  " d=" M  2412.40,   255.74  L  2412.13,   256.21  L  2412.04,   256.74  L  2412.13,   257.28  L  2412.40,   257.75  L  2412.82,   258.09  L  2413.32,   258.28  L  2413.87,   258.28  L  2414.37,   258.09  L  2414.79,   257.75  L  2415.06,   257.28  L  2415.15,   256.74  L  2415.06,   256.21  L  2414.79,   255.74  L  2414.37,   255.39  L  2413.87,   255.21  L  2413.32,   255.21  L  2412.82,   255.39  L  2412.40,   255.74  L  2412.80,   256.45  L  2412.80,   257.03  L  2413.17,   257.48  L  2413.74,   257.58  L  2414.25,   257.29  L  2414.45,   256.74  L  2414.25,   256.20  L  2413.74,   255.91  L  2413.17,   256.01  L  2413.60,   256.74  " /><path style="stroke-width: 0.85 ;&st7;  " d=" M  2446.40,   264.24  L  2446.13,   264.71  L  2446.03,   265.24  L  2446.13,   265.77  L  2446.40,   266.24  L  2446.81,   266.59  L  2447.32,   266.78  L  2447.86,   266.78  L  2448.37,   266.59  L  2448.78,   266.24  L  2449.05,   265.77  L  2449.15,   265.24  L  2449.05,   264.71  L  2448.78,   264.24  L  2448.37,   263.89  L  2447.86,   263.71  L  2447.32,   263.71  L  2446.81,   263.89  L  2446.40,   264.24  L  2446.79,   264.95  L  2446.79,   265.53  L  2447.17,   265.98  L  2447.74,   266.08  L  2448.24,   265.79  L  2448.44,   265.24  L  2448.24,   264.69  L  2447.74,   264.41  L  2447.17,   264.50  L  2447.59,   265.24  " /><path style="stroke-width: 0.85 ;&st7;  " d=" M  2362.60,   273.74  L  2362.60,   256.74  " /><path style="stroke-width: 0.85 ;&st7;  " d=" M  2388.10,   273.74  L  2388.10,   265.24  " /><path style="stroke-width: 0.85 ;&st7;  " d=" M  2386.91,   264.24  L  2386.64,   264.71  L  2386.54,   265.24  L  2386.64,   265.77  L  2386.91,   266.24  L  2387.32,   266.59  L  2387.83,   266.78  L  2388.37,   266.78  L  2388.88,   266.59  L  2389.29,   266.24  L  2389.56,   265.77  L  2389.66,   265.24  L  2389.56,   264.71  L  2389.29,   264.24  L  2388.88,   263.89  L  2388.37,   263.71  L  2387.83,   263.71  L  2387.32,   263.89  L  2386.91,   264.24  L  2387.30,   264.95  L  2387.30,   265.53  L  2387.68,   265.98  L  2388.25,   266.08  L  2388.75,   265.79  L  2388.95,   265.24  L  2388.75,   264.69  L  2388.25,   264.41  L  2387.68,   264.50  L  2388.10,   265.24  " /><path style="stroke-width: 0.85 ;&st7;  " d=" M  2361.41,   255.74  L  2361.14,   256.21  L  2361.05,   256.74  L  2361.14,   257.28  L  2361.41,   257.75  L  2361.83,   258.09  L  2362.33,   258.28  L  2362.88,   258.28  L  2363.38,   258.09  L  2363.80,   257.75  L  2364.07,   257.28  L  2364.16,   256.74  L  2364.07,   256.21  L  2363.80,   255.74  L  2363.38,   255.39  L  2362.88,   255.21  L  2362.33,   255.21  L  2361.83,   255.39  L  2361.41,   255.74  L  2361.81,   256.45  L  2361.81,   257.03  L  2362.18,   257.48  L  2362.75,   257.58  L  2363.26,   257.29  L  2363.45,   256.74  L  2363.26,   256.20  L  2362.75,   255.91  L  2362.18,   256.01  L  2362.60,   256.74  " /><path style="stroke-width: 0.85 ;&st7;  " d=" M  2481.58,   248.24  L  2481.58,   265.24  " /><path style="stroke-width: 0.85 ;&st7;  " d=" M  2480.39,   264.24  L  2480.12,   264.71  L  2480.03,   265.24  L  2480.12,   265.77  L  2480.39,   266.24  L  2480.81,   266.59  L  2481.31,   266.78  L  2481.86,   266.78  L  2482.36,   266.59  L  2482.78,   266.24  L  2483.05,   265.77  L  2483.14,   265.24  L  2483.05,   264.71  L  2482.78,   264.24  L  2482.36,   263.89  L  2481.86,   263.71  L  2481.31,   263.71  L  2480.81,   263.89  L  2480.39,   264.24  L  2480.79,   264.95  L  2480.79,   265.53  L  2481.16,   265.98  L  2481.73,   266.08  L  2482.24,   265.79  L  2482.43,   265.24  L  2482.24,   264.69  L  2481.73,   264.41  L  2481.16,   264.50  L  2481.58,   265.24  " /><path style="stroke-width: 0.85 ;&st7;  " d=" M  2514.39,   255.74  L  2514.11,   256.21  L  2514.02,   256.74  L  2514.11,   257.28  L  2514.39,   257.75  L  2514.80,   258.09  L  2515.31,   258.28  L  2515.85,   258.28  L  2516.36,   258.09  L  2516.77,   257.75  L  2517.04,   257.28  L  2517.14,   256.74  L  2517.04,   256.21  L  2516.77,   255.74  L  2516.36,   255.39  L  2515.85,   255.21  L  2515.31,   255.21  L  2514.80,   255.39  L  2514.39,   255.74  L  2514.78,   256.45  L  2514.78,   257.03  L  2515.15,   257.48  L  2515.73,   257.58  L  2516.23,   257.29  L  2516.43,   256.74  L  2516.23,   256.20  L  2515.73,   255.91  L  2515.15,   256.01  L  2515.58,   256.74  " /><text style="&st18;" transform="matrix(&st16;  2293.44  281.93 )">13</text><text style="&st18;" transform="matrix(&st16;  2293.44  244.55 )">14</text><text style="&st18;" transform="matrix(&st16;  2330.77  281.93 )">2</text><text style="&st18;" transform="matrix(&st16;  2330.77  244.55 )">3</text><text style="&st18;" transform="matrix(&st16;  2356.27  281.93 )">1</text><text style="&st18;" transform="matrix(&st16;  2378.43  281.93 )">12</text><text style="&st18;" transform="matrix(&st16;  2407.26  281.93 )">5</text><text style="&st18;" transform="matrix(&st16;  2437.92  281.93 )">16</text><text style="&st18;" transform="matrix(&st16;  2471.91  281.93 )">15</text><text style="&st18;" transform="matrix(&st16;  2471.91  244.55 )">17</text><text style="&st18;" transform="matrix(&st16;  2509.24  281.93 )">4</text><text style="&st18;" transform="matrix(&st16;  2509.24  244.55 )">6</text><g ewd:figtype="title"><text style="&st18;" transform="matrix(&st17;  2538.8  276.65 )" ewd:textID="17">No. 7 Global CAN <tspan x="0 " dy="6.0">Junction Connector</tspan></text><text style="&st18;" transform="matrix(&st17;  2531.97  276.64 )">I134</text></g></g><g ewd:figtype="w2w" ewd:figID="42" ewd:code="IA2"><path style="stroke-width: 1.42 ;&st7;  " d=" M  2120.39,   307.17  L  2124.64,   311.42  L  2128.89,   307.17  " /><path style="stroke-width: 1.42 ;&st7;  " d=" M  2128.89,   310.57  L  2124.64,   314.82  L  2120.39,   310.57  " /><text style="&st18;" transform="matrix(&st16;  2111.23  322.45 )">6</text></g><g ewd:figtype="w2w" ewd:figID="43" ewd:code="IA2"><path style="stroke-width: 1.42 ;&st7;  " d=" M  2171.39,   307.17  L  2175.64,   311.42  L  2179.88,   307.17  " /><path style="stroke-width: 1.42 ;&st7;  " d=" M  2179.88,   310.57  L  2175.64,   314.82  L  2171.39,   310.57  " /><text style="&st18;" transform="matrix(&st16;  2162.22  322.45 )">2</text></g><g ewd:figtype="w2w" ewd:figID="44" ewd:code="IL5"><text style="&st18;" transform="matrix(&st16;  2286.36  356.45 )">48</text><path style="stroke-width: 1.42 ;&st7;  " d=" M  2307.36,   364.39  L  2303.11,   360.14  L  2298.86,   364.39  " /><path style="stroke-width: 1.42 ;&st7;  " d=" M  2307.36,   367.79  L  2303.11,   363.54  L  2298.86,   367.79  " /></g><g ewd:figtype="w2w" ewd:figID="45" ewd:code="IL5"><path style="stroke-width: 1.42 ;&st7;  " d=" M  2341.36,   367.79  L  2337.11,   363.54  L  2332.86,   367.79  " /><path style="stroke-width: 1.42 ;&st7;  " d=" M  2341.36,   364.39  L  2337.11,   360.14  L  2332.86,   364.39  " /><text style="&st18;" transform="matrix(&st16;  2320.36  356.45 )">24</text></g><g ewd:figtype="w2w" ewd:figID="46" ewd:code="IL5"><text style="&st18;" transform="matrix(&st16;  2464.83  126.98 )">49</text><path style="stroke-width: 1.42 ;&st7;  " d=" M  2485.83,   115.10  L  2481.58,   119.35  L  2477.34,   115.10  " /><path style="stroke-width: 1.42 ;&st7;  " d=" M  2477.34,   111.70  L  2481.58,   115.95  L  2485.83,   111.70  " /></g><g ewd:figtype="w2w" ewd:figID="47" ewd:code="IL5"><path style="stroke-width: 1.42 ;&st7;  " d=" M  2511.33,   111.70  L  2515.58,   115.95  L  2519.83,   111.70  " /><path style="stroke-width: 1.42 ;&st7;  " d=" M  2519.83,   115.10  L  2515.58,   119.35  L  2511.33,   115.10  " /><text style="&st18;" transform="matrix(&st16;  2498.83  126.98 )">25</text></g></svg>