<?xml version="1.0" encoding="utf-8"?>
<!DOCTYPE svg PUBLIC "-//W3C//DTD SVG 1.0//EN" "http://www.w3.org/TR/2001/REC-SVG-20010904/DTD/svg10.dtd"[
	<!ENTITY ns_flows "http://ns.adobe.com/Flows/1.0/">
	<!ENTITY ns_svg "http://www.w3.org/2000/svg">
	<!ENTITY ns_xlink "http://www.w3.org/1999/xlink">
	<!ENTITY st0 "font-size:7px;font-family:'MS-PGothic';adobe-font-script:japanese;">
	<!ENTITY st1 "font-size:6px;font-family:'ArialMT';">
	<!-- White fill  -->
	<!ENTITY st2 "fill:#FFFFFF;stroke:#000000; stroke-width:1.41;stroke-linecap:round;stroke-linejoin:round;">
	<!-- Yellow fill  -->
	<!ENTITY st3 "fill:#FFFFCC;stroke:#FFFFCC; stroke-width:0.1;stroke-linecap:round;stroke-linejoin:round;">
	<!-- Gray fill  -->
	<!ENTITY st4 "fill:#CCCCCC;stroke:#CCCCCC; stroke-width:0.1;stroke-linecap:round;stroke-linejoin:round;">
	<!-- Light-blue fill -->
	<!ENTITY st5 "fill:#CCECF4;stroke:#000000; stroke-width:1.133;stroke-linecap:round;stroke-linejoin:round;">
	<!ENTITY st6 "fill:none;stroke-linecap:butt; stroke-linejoin:round;">
	<!ENTITY st7 "fill:none;stroke:#000000;stroke-linecap:round;stroke-linejoin:round;">
	<!ENTITY st8 "enable-background:new    ;">
	<!-- Black fill -->
	<!ENTITY st9 "fill:#000000;stroke:#000000; stroke-linecap:round;stroke-linejoin:round;">
	<!-- SRS note   -->
	<!ENTITY st10 "font-size:9px;font-family:'ArialMT';">
	<!ENTITY st11 "font-size:9px;font-family:'Svg Symbol';">
	<!ENTITY st12 "font-size:6px;font-family:'Svg Symbol';">
	<!ENTITY st13 "fill:none;stroke:#ff0000;stroke-linecap:round;stroke-linejoin:round;">
	<!-- Yellow fill  -->
	<!ENTITY st14 "fill:#FFFF00;stroke:#FFFF00; stroke-width:0.1;stroke-linecap:round;stroke-linejoin:round;">
	<!ENTITY st15 "font-size:6px;font-family:'MS-PGothic';adobe-font-script:japanese;">
	<!ENTITY st16 "1.00 0.00 0.00 1.00">
	<!ENTITY st17 "0.00 -1.00 1.00 0.00">
	<!ENTITY st18 "font-size:6px;font-family:'Arial';">
	<!ENTITY st19 "font-size:9px;font-family:'Arial';">
	<!ENTITY st20 "font-size:6px;font-family:'MS-PGothic','MS PGothic';adobe-font-script:japanese;">
	<!ENTITY st21 "font-size:7px;font-family:'MS-PGothic','MS PGothic';adobe-font-script:japanese;">
	<!ATTLIST svg
		xmlns:ewd CDATA #FIXED "http://shcl.co.jp/ewd"
		xmlns:a CDATA #FIXED "http://ns.adobe.com/AdobeSVGViewerExtensions/3.0/"
		ewd:ver CDATA #IMPLIED
	>
	<!ATTLIST a
		ewd:lineID CDATA #IMPLIED
		ewd:groupID CDATA #IMPLIED
		ewd:figtype CDATA #IMPLIED
		ewd:code CDATA #IMPLIED
		ewd:figID CDATA #IMPLIED
		ewd:pinNo CDATA #IMPLIED
		ewd:comment CDATA #IMPLIED >
	<!ATTLIST g
		ewd:lineID CDATA #IMPLIED
		ewd:groupID CDATA #IMPLIED
		ewd:figtype CDATA #IMPLIED
		ewd:code CDATA #IMPLIED
		ewd:figID CDATA #IMPLIED
		ewd:pinNo CDATA #IMPLIED
		ewd:comment CDATA #IMPLIED >
	<!ATTLIST text
		ewd:textID CDATA #IMPLIED >
	<!ATTLIST title
		ewd:textID CDATA #IMPLIED >
]>
<!-- Generator: Shintec Hozumi YS   -->
<svg onload="call_execInitLoadProc_svg('system')" style="overflow:visible;  enable-background:new 0 0 4047.195 710.000" viewBox="0 0 4047.195 710.000" height="710.000" width="4047.195" xml:space="preserve" ewd:ver="2.3.1.16" xmlns="&ns_svg;" xmlns:a="http://ns.adobe.com/AdobeSVGViewerExtensions/3.0/" xmlns:ewd="http://shcl.co.jp/ewd" xmlns:xlink="&ns_xlink;">
<path style="stroke-width: 1.42 ;&st7;  " d=" M  1623.23,   282.24  L  1631.73,   282.24  " /><path style="stroke-width: 1.42 ;&st7;  " d=" M  1657.22,   282.24  L  1665.72,   282.24  " /><path style="stroke-width: 1.42 ;&st7;  " d=" M  1895.18,   290.74  L  1886.68,   290.74  " /><path style="stroke-width: 1.42 ;&st7;  " d=" M  1861.19,   290.74  L  1852.69,   290.74  " /><text style="&st18;" transform="matrix(&st17;  1959.48  133.05 )">SB</text><text style="&st18;" transform="matrix(&st17;  1993.47  131.96 )">W</text><text style="&st18;" transform="matrix(&st17;  1628.03  131.03 )">B</text><text style="&st18;" transform="matrix(&st17;  1662.03  131.96 )">W</text><text style="&st18;" transform="matrix(&st17;  1730.01  131.19 )">R</text><text style="&st18;" transform="matrix(&st17;  1764.01  131.96 )">W</text><text style="&st18;" transform="matrix(&st17;  1628.03  242.44 )">W</text><text style="&st18;" transform="matrix(&st17;  1639.36  244.3 )">(*2)</text><text style="&st18;" transform="matrix(&st17;  1662.03  241.51 )">P</text><text style="&st18;" transform="matrix(&st17;  1673.36  244.3 )">(*2)</text><text style="&st18;" transform="matrix(&st17;  1730.01  241.82 )">G</text><text style="&st18;" transform="matrix(&st17;  1764.01  242.44 )">W</text><text style="&st18;" transform="matrix(&st17;  1662.03  322.25 )">P</text><text style="&st18;" transform="matrix(&st17;  1673.36  325.04 )">(*2)</text><text style="&st18;" transform="matrix(&st17;  1628.03  323.18 )">W</text><text style="&st18;" transform="matrix(&st17;  1639.36  325.04 )">(*2)</text><text style="&st18;" transform="matrix(&st17;  1848.99  241.12 )">L</text><text style="&st18;" transform="matrix(&st17;  1860.33  244.3 )">(*1)</text><text style="&st18;" transform="matrix(&st17;  1882.99  242.44 )">W</text><text style="&st18;" transform="matrix(&st17;  1894.32  244.3 )">(*1)</text><text style="&st18;" transform="matrix(&st17;  1848.99  326.11 )">L</text><text style="&st18;" transform="matrix(&st17;  1860.33  329.29 )">(*1)</text><text style="&st18;" transform="matrix(&st17;  1882.99  327.43 )">W</text><text style="&st18;" transform="matrix(&st17;  1894.32  329.29 )">(*1)</text><text style="&st18;" transform="matrix(&st16;  1582.16  601.49 )">P(*2)</text><text style="&st18;" transform="matrix(&st16;  1514.17  601.49 )">P(*2)</text><text style="&st18;" transform="matrix(&st16;  1513.24  618.48 )">W(*2)</text><text style="&st18;" transform="matrix(&st16;  1581.23  618.48 )">W(*2)</text><text style="&st18;" transform="matrix(&st16;  1582.51  635.48 )">L(*1)</text><text style="&st18;" transform="matrix(&st16;  1514.52  635.48 )">L(*1)</text><text style="&st18;" transform="matrix(&st16;  1581.23  652.48 )">W(*1)</text><text style="&st18;" transform="matrix(&st16;  1513.24  652.48 )">W(*1)</text><text style="&st18;" transform="matrix(&st16;  1586.66  423.02 )">G</text><text style="&st18;" transform="matrix(&st16;  1518.67  423.02 )">G</text><text style="&st18;" transform="matrix(&st16;  1586.04  440.01 )">W</text><text style="&st18;" transform="matrix(&st16;  1518.05  440.01 )">W</text><text style="&st18;" transform="matrix(&st17;  1500.55  360.8 )">G</text><g ewd:figtype="conn" ewd:figID="19" ewd:code="I134"><path style="stroke-width: 1.42 ;&st7;  " d=" M  1623.23,   205.75  L  1895.18,   205.75  L  1895.18,   180.26  L  1623.23,   180.26  L  1623.23,   205.75  " /><path style="stroke-width: 0.85 ;&st7;  " d=" M  1733.71,   180.26  L  1733.71,   205.75  " /><path style="stroke-width: 0.85 ;&st7;  " d=" M  1664.53,   196.25  L  1664.26,   196.72  L  1664.16,   197.25  L  1664.26,   197.79  L  1664.53,   198.26  L  1664.94,   198.60  L  1665.45,   198.79  L  1665.99,   198.79  L  1666.50,   198.60  L  1666.91,   198.26  L  1667.19,   197.79  L  1667.28,   197.25  L  1667.19,   196.72  L  1666.91,   196.25  L  1666.50,   195.90  L  1665.99,   195.72  L  1665.45,   195.72  L  1664.94,   195.90  L  1664.53,   196.25  L  1664.92,   196.96  L  1664.92,   197.54  L  1665.30,   197.99  L  1665.87,   198.09  L  1666.37,   197.80  L  1666.57,   197.25  L  1666.37,   196.71  L  1665.87,   196.42  L  1665.30,   196.52  L  1665.72,   197.25  " /><path style="stroke-width: 0.85 ;&st7;  " d=" M  1630.53,   187.75  L  1630.26,   188.22  L  1630.17,   188.75  L  1630.26,   189.29  L  1630.53,   189.76  L  1630.95,   190.10  L  1631.45,   190.29  L  1632.00,   190.29  L  1632.51,   190.10  L  1632.92,   189.76  L  1633.19,   189.29  L  1633.28,   188.75  L  1633.19,   188.22  L  1632.92,   187.75  L  1632.51,   187.41  L  1632.00,   187.22  L  1631.45,   187.22  L  1630.95,   187.41  L  1630.53,   187.75  L  1630.93,   188.46  L  1630.93,   189.05  L  1631.30,   189.49  L  1631.87,   189.59  L  1632.38,   189.30  L  1632.58,   188.75  L  1632.38,   188.21  L  1631.87,   187.92  L  1631.30,   188.02  L  1631.73,   188.75  " /><path style="stroke-width: 0.85 ;&st7;  " d=" M  1631.73,   180.26  L  1631.73,   205.75  " /><path style="stroke-width: 0.85 ;&st7;  " d=" M  1665.72,   180.26  L  1665.72,   205.75  " /><path style="stroke-width: 0.85 ;&st7;  " d=" M  1767.70,   180.26  L  1767.70,   205.75  " /><path style="stroke-width: 0.85 ;&st7;  " d=" M  1631.73,   188.75  L  1852.69,   188.75  L  1852.69,   205.75  " /><path style="stroke-width: 0.85 ;&st7;  " d=" M  1665.72,   197.25  L  1886.68,   197.25  L  1886.68,   205.75  " /><path style="stroke-width: 0.85 ;&st7;  " d=" M  1732.52,   187.75  L  1732.25,   188.22  L  1732.15,   188.75  L  1732.25,   189.29  L  1732.52,   189.76  L  1732.93,   190.10  L  1733.44,   190.29  L  1733.98,   190.29  L  1734.49,   190.10  L  1734.90,   189.76  L  1735.17,   189.29  L  1735.27,   188.75  L  1735.17,   188.22  L  1734.90,   187.75  L  1734.49,   187.41  L  1733.98,   187.22  L  1733.44,   187.22  L  1732.93,   187.41  L  1732.52,   187.75  L  1732.91,   188.46  L  1732.91,   189.05  L  1733.28,   189.49  L  1733.86,   189.59  L  1734.36,   189.30  L  1734.56,   188.75  L  1734.36,   188.21  L  1733.86,   187.92  L  1733.28,   188.02  L  1733.71,   188.75  " /><path style="stroke-width: 0.85 ;&st7;  " d=" M  1766.51,   196.25  L  1766.24,   196.72  L  1766.15,   197.25  L  1766.24,   197.79  L  1766.51,   198.26  L  1766.92,   198.60  L  1767.43,   198.79  L  1767.98,   198.79  L  1768.48,   198.60  L  1768.90,   198.26  L  1769.17,   197.79  L  1769.26,   197.25  L  1769.17,   196.72  L  1768.90,   196.25  L  1768.48,   195.90  L  1767.98,   195.72  L  1767.43,   195.72  L  1766.92,   195.90  L  1766.51,   196.25  L  1766.91,   196.96  L  1766.91,   197.54  L  1767.28,   197.99  L  1767.85,   198.09  L  1768.36,   197.80  L  1768.55,   197.25  L  1768.36,   196.71  L  1767.85,   196.42  L  1767.28,   196.52  L  1767.70,   197.25  " /><text style="&st18;" transform="matrix(&st16;  1625.39  213.94 )">9</text><text style="&st18;" transform="matrix(&st16;  1625.39  176.57 )">7</text><text style="&st18;" transform="matrix(&st16;  1656.05  213.94 )">20</text><text style="&st18;" transform="matrix(&st16;  1656.05  176.57 )">18</text><text style="&st18;" transform="matrix(&st16;  1727.37  213.94 )">8</text><text style="&st18;" transform="matrix(&st16;  1724.04  176.57 )">10</text><text style="&st18;" transform="matrix(&st16;  1758.03  213.94 )">19</text><text style="&st18;" transform="matrix(&st16;  1758.03  176.57 )">21</text><text style="&st18;" transform="matrix(&st16;  1843.02  213.94 )">11</text><text style="&st18;" transform="matrix(&st16;  1877.01  213.94 )">22</text><g ewd:figtype="title"><text style="&st18;" transform="matrix(&st16;  1789.79  176.56 )" ewd:textID="17">No. 7 Global CAN Junction Connector</text><text style="&st18;" transform="matrix(&st16;  1789.79  169.73 )">I134</text></g></g><g ewd:figtype="conn" ewd:figID="22" ewd:code="I130"><path style="stroke-width: 1.42 ;&st7;  " d=" M  1614.73,    69.77  L  2014.16,    69.77  L  2014.16,    35.78  L  1614.73,    35.78  L  1614.73,    69.77  " /><g ewd:lineID="36"><text style="&st18;" transform="matrix(&st16;  1622.05  77.97 )">15</text><text style="&st18;" transform="matrix(&st16;  1623.45  66.08 )">CA5H</text></g><g ewd:lineID="39"><text style="&st18;" transform="matrix(&st16;  1656.05  77.97 )">16</text><text style="&st18;" transform="matrix(&st16;  1657.99  66.08 )">CA5L</text></g><g ewd:lineID="41"><text style="&st18;" transform="matrix(&st16;  1727.37  77.97 )">9</text><text style="&st18;" transform="matrix(&st16;  1725.16  66.08 )">CAXH</text></g><g ewd:lineID="43"><text style="&st18;" transform="matrix(&st16;  1758.03  77.97 )">24</text><text style="&st18;" transform="matrix(&st16;  1759.7  66.08 )">CAXL</text></g><g ewd:lineID="60"><text style="&st18;" transform="matrix(&st16;  1987.49  77.97 )">17</text><text style="&st18;" transform="matrix(&st16;  1989.43  66.08 )">CA4L</text></g><g ewd:lineID="63"><text style="&st18;" transform="matrix(&st16;  1953.5  77.97 )">18</text><text style="&st18;" transform="matrix(&st16;  1954.9  66.08 )">CA4H</text></g><g ewd:figtype="title"><text style="&st18;" transform="matrix(&st16;  1611.32  32.08 )" ewd:textID="15">Network Gateway ECU</text><text style="&st18;" transform="matrix(&st16;  1611.32  25.26 )">I130</text></g></g><g ewd:figtype="w2w" ewd:figID="38" ewd:code="YI4"><path style="stroke-width: 1.42 ;&st7;  " d=" M  1627.48,   273.17  L  1631.73,   277.42  L  1635.98,   273.17  " /><path style="stroke-width: 1.42 ;&st7;  " d=" M  1635.98,   276.57  L  1631.73,   280.82  L  1627.48,   276.57  " /><text style="&st18;" transform="matrix(&st16;  1614.97  288.46 )">13</text></g><g ewd:figtype="w2w" ewd:figID="39" ewd:code="YI4"><path style="stroke-width: 1.42 ;&st7;  " d=" M  1661.47,   273.17  L  1665.72,   277.42  L  1669.97,   273.17  " /><path style="stroke-width: 1.42 ;&st7;  " d=" M  1669.97,   276.57  L  1665.72,   280.82  L  1661.47,   276.57  " /><text style="&st18;" transform="matrix(&st16;  1648.97  288.46 )">14</text></g><g ewd:figtype="w2w" ewd:figID="40" ewd:code="IS3"><path style="stroke-width: 1.42 ;&st7;  " d=" M  1856.94,   299.80  L  1852.69,   295.55  L  1848.44,   299.80  " /><path style="stroke-width: 1.42 ;&st7;  " d=" M  1856.94,   296.40  L  1852.69,   292.15  L  1848.44,   296.40  " /><text style="&st18;" transform="matrix(&st16;  1839.27  288.46 )">7</text></g><g ewd:figtype="w2w" ewd:figID="41" ewd:code="IS3"><path style="stroke-width: 1.42 ;&st7;  " d=" M  1890.93,   299.80  L  1886.68,   295.55  L  1882.43,   299.80  " /><path style="stroke-width: 1.42 ;&st7;  " d=" M  1890.93,   296.40  L  1886.68,   292.15  L  1882.43,   296.40  " /><text style="&st18;" transform="matrix(&st16;  1869.93  288.46 )">13</text></g></svg>