<?xml version="1.0" encoding="utf-8"?>
<!DOCTYPE svg PUBLIC "-//W3C//DTD SVG 1.0//EN" "http://www.w3.org/TR/2001/REC-SVG-20010904/DTD/svg10.dtd"[
	<!ENTITY ns_flows "http://ns.adobe.com/Flows/1.0/">
	<!ENTITY ns_svg "http://www.w3.org/2000/svg">
	<!ENTITY ns_xlink "http://www.w3.org/1999/xlink">
	<!ENTITY st0 "font-size:7px;font-family:'MS-PGothic';adobe-font-script:japanese;">
	<!ENTITY st1 "font-size:6px;font-family:'ArialMT';">
	<!-- White fill  -->
	<!ENTITY st2 "fill:#FFFFFF;stroke:#000000; stroke-width:1.41;stroke-linecap:round;stroke-linejoin:round;">
	<!-- Yellow fill  -->
	<!ENTITY st3 "fill:#FFFFCC;stroke:#FFFFCC; stroke-width:0.1;stroke-linecap:round;stroke-linejoin:round;">
	<!-- Gray fill  -->
	<!ENTITY st4 "fill:#CCCCCC;stroke:#CCCCCC; stroke-width:0.1;stroke-linecap:round;stroke-linejoin:round;">
	<!-- Light-blue fill -->
	<!ENTITY st5 "fill:#CCECF4;stroke:#000000; stroke-width:1.133;stroke-linecap:round;stroke-linejoin:round;">
	<!ENTITY st6 "fill:none;stroke-linecap:butt; stroke-linejoin:round;">
	<!ENTITY st7 "fill:none;stroke:#000000;stroke-linecap:round;stroke-linejoin:round;">
	<!ENTITY st8 "enable-background:new    ;">
	<!-- Black fill -->
	<!ENTITY st9 "fill:#000000;stroke:#000000; stroke-linecap:round;stroke-linejoin:round;">
	<!-- SRS note   -->
	<!ENTITY st10 "font-size:9px;font-family:'ArialMT';">
	<!ENTITY st11 "font-size:9px;font-family:'Svg Symbol';">
	<!ENTITY st12 "font-size:6px;font-family:'Svg Symbol';">
	<!ENTITY st13 "fill:none;stroke:#ff0000;stroke-linecap:round;stroke-linejoin:round;">
	<!-- Yellow fill  -->
	<!ENTITY st14 "fill:#FFFF00;stroke:#FFFF00; stroke-width:0.1;stroke-linecap:round;stroke-linejoin:round;">
	<!ENTITY st15 "font-size:6px;font-family:'MS-PGothic';adobe-font-script:japanese;">
	<!ENTITY st16 "1.00 0.00 0.00 1.00">
	<!ENTITY st17 "0.00 -1.00 1.00 0.00">
	<!ENTITY st18 "font-size:6px;font-family:'Arial';">
	<!ENTITY st19 "font-size:9px;font-family:'Arial';">
	<!ENTITY st20 "font-size:6px;font-family:'MS-PGothic','MS PGothic';adobe-font-script:japanese;">
	<!ENTITY st21 "font-size:7px;font-family:'MS-PGothic','MS PGothic';adobe-font-script:japanese;">
	<!ATTLIST svg
		xmlns:ewd CDATA #FIXED "http://shcl.co.jp/ewd"
		xmlns:a CDATA #FIXED "http://ns.adobe.com/AdobeSVGViewerExtensions/3.0/"
		ewd:ver CDATA #IMPLIED
	>
	<!ATTLIST a
		ewd:lineID CDATA #IMPLIED
		ewd:groupID CDATA #IMPLIED
		ewd:figtype CDATA #IMPLIED
		ewd:code CDATA #IMPLIED
		ewd:figID CDATA #IMPLIED
		ewd:pinNo CDATA #IMPLIED
		ewd:comment CDATA #IMPLIED >
	<!ATTLIST g
		ewd:lineID CDATA #IMPLIED
		ewd:groupID CDATA #IMPLIED
		ewd:figtype CDATA #IMPLIED
		ewd:code CDATA #IMPLIED
		ewd:figID CDATA #IMPLIED
		ewd:pinNo CDATA #IMPLIED
		ewd:comment CDATA #IMPLIED >
	<!ATTLIST text
		ewd:textID CDATA #IMPLIED >
	<!ATTLIST title
		ewd:textID CDATA #IMPLIED >
]>
<!-- Generator: Shintec Hozumi YS   -->
<svg onload="call_execInitLoadProc_svg('system')" style="overflow:visible;  enable-background:new 0 0 4047.195 710.000" viewBox="0 0 4047.195 710.000" height="710.000" width="4047.195" xml:space="preserve" ewd:ver="2.3.1.16" xmlns="&ns_svg;" xmlns:a="http://ns.adobe.com/AdobeSVGViewerExtensions/3.0/" xmlns:ewd="http://shcl.co.jp/ewd" xmlns:xlink="&ns_xlink;">
<path style="stroke-width: 1.42 ;&st7;  " d=" M  1147.31,   256.74  L  1138.81,   256.74  " /><path style="stroke-width: 1.42 ;&st7;  " d=" M  1087.82,   248.24  L  1096.32,   248.24  " /><text style="&st18;" transform="matrix(&st17;  1279.59  133.05 )">SB</text><text style="&st18;" transform="matrix(&st17;  1279.59  218.03 )">SB</text><text style="&st18;" transform="matrix(&st17;  1279.59  362.66 )">BR</text><text style="&st18;" transform="matrix(&st17;  1279.59  447.65 )">BR</text><text style="&st18;" transform="matrix(&st17;  1092.62  294.52 )">SB</text><text style="&st18;" transform="matrix(&st17;  1103.95  295.29 )">(*2)</text><text style="&st18;" transform="matrix(&st17;  1135.11  294.52 )">SB</text><text style="&st18;" transform="matrix(&st17;  1146.45  295.29 )">(*1)</text><text style="&st18;" transform="matrix(&st17;  1135.11  218.03 )">SB</text><text style="&st18;" transform="matrix(&st17;  1146.45  218.81 )">(*1)</text><text style="&st18;" transform="matrix(&st17;  1092.62  218.03 )">SB</text><text style="&st18;" transform="matrix(&st17;  1103.95  218.81 )">(*2)</text><text style="&st18;" transform="matrix(&st17;  1220.1  447.65 )">BR</text><text style="&st18;" transform="matrix(&st17;  1231.43  448.27 )">(*2)</text><text style="&st18;" transform="matrix(&st17;  1188.94  448.27 )">(*1)</text><text style="&st18;" transform="matrix(&st17;  1177.61  447.65 )">BR</text><path style="stroke-width: 1.42 ;&st7;  " d=" M  1325.78,   392.72  L  1334.28,   392.72  " /><path style="stroke-width: 1.42 ;&st7;  " d=" M  1393.77,   392.72  L  1402.27,   392.72  " /><text style="&st18;" transform="matrix(&st17;  1398.57  361.42 )">W</text><text style="&st18;" transform="matrix(&st17;  1409.9  363.28 )">(*2)</text><text style="&st18;" transform="matrix(&st17;  1330.58  360.65 )">R</text><text style="&st18;" transform="matrix(&st17;  1341.91  363.28 )">(*2)</text><text style="&st18;" transform="matrix(&st17;  1356.08  360.65 )">R</text><text style="&st18;" transform="matrix(&st17;  1367.41  363.28 )">(*1)</text><text style="&st18;" transform="matrix(&st17;  1432.56  361.42 )">W</text><text style="&st18;" transform="matrix(&st17;  1443.9  363.28 )">(*1)</text><text style="&st18;" transform="matrix(&st16;  1063.59  465.51 )">R(*2)</text><text style="&st18;" transform="matrix(&st16;  1061.58  550.5 )">BR(*2)</text><text style="&st18;" transform="matrix(&st16;  1061.73  567.49 )">SB(*2)</text><text style="&st18;" transform="matrix(&st16;  1061.58  533.5 )">BR(*1)</text><text style="&st18;" transform="matrix(&st16;  1062.82  499.5 )">W(*1)</text><text style="&st18;" transform="matrix(&st16;  1061.73  584.49 )">SB(*1)</text><text style="&st18;" transform="matrix(&st16;  1062.82  482.51 )">W(*2)</text><text style="&st18;" transform="matrix(&st16;  1063.59  516.5 )">R(*1)</text><text style="&st18;" transform="matrix(&st16;  1063.75  601.49 )">P(*2)</text><text style="&st18;" transform="matrix(&st16;  1062.82  618.48 )">W(*2)</text><text style="&st18;" transform="matrix(&st16;  1064.1  635.48 )">L(*1)</text><text style="&st18;" transform="matrix(&st16;  1062.82  652.48 )">W(*1)</text><text style="&st18;" transform="matrix(&st17;  1466.56  361.42 )">W</text><text style="&st18;" transform="matrix(&st17;  1398.57  446.41 )">W</text><text style="&st18;" transform="matrix(&st17;  1409.9  448.27 )">(*2)</text><text style="&st18;" transform="matrix(&st17;  1330.58  445.63 )">R</text><text style="&st18;" transform="matrix(&st17;  1341.91  448.27 )">(*2)</text><g ewd:figtype="conn" ewd:figID="3" ewd:code="I133"><path style="stroke-width: 1.42 ;&st7;  " d=" M  1164.30,   392.72  L  1164.30,   409.72  L  1300.28,   409.72  L  1300.28,   392.72  L  1164.30,   392.72  " /><path style="stroke-width: 0.85 ;&st7;  " d=" M  1283.29,   392.72  L  1283.29,   409.72  " /><path style="stroke-width: 0.85 ;&st7;  " d=" M  1181.30,   409.72  L  1181.30,   401.22  L  1283.29,   401.22  " /><path style="stroke-width: 0.85 ;&st7;  " d=" M  1223.80,   409.72  L  1223.80,   401.22  " /><path style="stroke-width: 0.85 ;&st7;  " d=" M  1282.09,   400.22  L  1281.82,   400.69  L  1281.73,   401.22  L  1281.82,   401.75  L  1282.09,   402.22  L  1282.51,   402.57  L  1283.01,   402.75  L  1283.56,   402.75  L  1284.06,   402.57  L  1284.48,   402.22  L  1284.75,   401.75  L  1284.84,   401.22  L  1284.75,   400.69  L  1284.48,   400.22  L  1284.06,   399.87  L  1283.56,   399.68  L  1283.01,   399.68  L  1282.51,   399.87  L  1282.09,   400.22  L  1282.49,   400.93  L  1282.49,   401.51  L  1282.86,   401.95  L  1283.43,   402.05  L  1283.94,   401.77  L  1284.13,   401.22  L  1283.94,   400.67  L  1283.43,   400.38  L  1282.86,   400.48  L  1283.29,   401.22  " /><path style="stroke-width: 0.85 ;&st7;  " d=" M  1222.60,   400.22  L  1222.33,   400.69  L  1222.24,   401.22  L  1222.33,   401.75  L  1222.60,   402.22  L  1223.02,   402.57  L  1223.52,   402.75  L  1224.07,   402.75  L  1224.57,   402.57  L  1224.99,   402.22  L  1225.26,   401.75  L  1225.35,   401.22  L  1225.26,   400.69  L  1224.99,   400.22  L  1224.57,   399.87  L  1224.07,   399.68  L  1223.52,   399.68  L  1223.02,   399.87  L  1222.60,   400.22  L  1223.00,   400.93  L  1223.00,   401.51  L  1223.37,   401.95  L  1223.94,   402.05  L  1224.45,   401.77  L  1224.64,   401.22  L  1224.45,   400.67  L  1223.94,   400.38  L  1223.37,   400.48  L  1223.80,   401.22  " /><text style="&st18;" transform="matrix(&st16;  1276.95  417.91 )">1</text><text style="&st18;" transform="matrix(&st16;  1276.95  389.03 )">7</text><text style="&st18;" transform="matrix(&st16;  1217.46  417.91 )">8</text><text style="&st18;" transform="matrix(&st16;  1174.96  417.91 )">9</text><g ewd:figtype="title"><text style="&st18;" transform="matrix(&st16;  1160.89  376.25 )">I133</text><text style="&st18;" transform="matrix(&st16;  1160.9  383.07 )" ewd:textID="21">No. 41 <tspan x="0 " dy="6.0">Junction Connector</tspan></text></g></g><g ewd:figtype="rb" ewd:figID="5" ewd:code="FUSE14"><path style="stroke-width: 1.42 ;&st7;  " d=" M  1285.41,    95.27  L  1281.16,    95.27  " /><path style="stroke-width: 1.42 ;&st7;  " d=" M  1285.41,   103.77  L  1281.16,   103.77  " /><path style="stroke-width: 0.85 ;&st7;  " d=" M  1283.29,    78.27  L  1283.29,    95.27  " /><path style="stroke-width: 1.42 ;&st7;   " d=" M  1281.16,    95.27  C  1278.81     95.27   1276.91     97.17   1276.91     99.52  " /><path style="stroke-width: 1.42 ;&st7;   " d=" M  1276.91,    99.52  C  1276.91    101.87   1278.81    103.77   1281.16    103.77  " /><path style="stroke-width: 1.42 ;&st7;   " d=" M  1285.41,   103.77  C  1287.76    103.77   1289.66    101.87   1289.66     99.52  " /><path style="stroke-width: 1.42 ;&st7;   " d=" M  1289.66,    99.52  C  1289.66     97.17   1287.76     95.27   1285.41     95.27  " /><path style="stroke-width: 0.28 ;&st9;  " d=" M  1283.29,    90.37  L  1280.45,    87.54  L  1280.45,    91.79  L  1283.29,    94.62  L  1286.12,    91.79  L  1286.12,    87.54  L  1283.29,    90.37  " /><text style="&st18;" transform="matrix(&st16;  1299.71  53.34 )">10A <tspan x="0 " dy="6.0">IG1 </tspan><tspan x="0 " dy="6.0">NO.1</tspan></text><text style="&st18;" transform="matrix(&st16;  1281.41  101.49 )">1</text><text style="&st18;" transform="matrix(&st16;  1276.95  86.47 )">2</text><text style="&st18;" transform="matrix(&st16;  1277.92  32.08 )">(IG)</text><path style="stroke-width: 0.85 ;&st7;  " d=" M  1283.29,    69.77  L  1283.29,    78.27  " /><path style="stroke-width: 1.42 ;&st7;   " d=" M  1283.29,    47.11  C  1280.55     48.72   1279.64     52.25   1281.25     54.99  " /><path style="stroke-width: 1.42 ;&st7;   " d=" M  1281.25,    54.99  C  1281.77     55.87   1282.40     56.51   1283.29     57.03  " /><path style="stroke-width: 1.42 ;&st7;   " d=" M  1283.29,    66.94  C  1286.02     65.33   1286.94     61.80   1285.32     59.06  " /><path style="stroke-width: 1.42 ;&st7;   " d=" M  1285.32,    59.06  C  1284.80     58.18   1284.17     57.55   1283.29     57.03  " /><path style="stroke-width: 0.85 ;&st7;   " d=" M  1284.70,    45.69  C  1284.70     44.91   1284.07     44.28   1283.29     44.28  " /><path style="stroke-width: 0.85 ;&st7;   " d=" M  1283.29,    44.28  C  1282.50     44.28   1281.87     44.91   1281.87     45.69  " /><path style="stroke-width: 0.85 ;&st7;   " d=" M  1281.87,    45.69  C  1281.87     46.48   1282.50     47.11   1283.29     47.11  " /><path style="stroke-width: 0.85 ;&st7;   " d=" M  1283.29,    47.11  C  1284.07     47.11   1284.70     46.48   1284.70     45.69  " /><path style="stroke-width: 0.85 ;&st7;   " d=" M  1284.70,    68.36  C  1284.70     67.57   1284.07     66.94   1283.29     66.94  " /><path style="stroke-width: 0.85 ;&st7;   " d=" M  1283.29,    66.94  C  1282.50     66.94   1281.87     67.57   1281.87     68.36  " /><path style="stroke-width: 0.85 ;&st7;   " d=" M  1281.87,    68.36  C  1281.87     69.14   1282.50     69.77   1283.29     69.77  " /><path style="stroke-width: 0.85 ;&st7;   " d=" M  1283.29,    69.77  C  1284.07     69.77   1284.70     69.14   1284.70     68.36  " /><path style="stroke-width: 1.42 ;&st7;  " d=" M  1270.54,    35.78  L  1270.54,    78.27  L  1296.03,    78.27  L  1296.03,    35.78  L  1270.54,    35.78  " /></g><g ewd:figtype="conn" ewd:figID="20" ewd:code="I131"><path style="stroke-width: 1.42 ;&st7;  " d=" M  1266.29,   324.73  L  1521.25,   324.73  L  1521.25,   273.74  L  1266.29,   273.74  L  1266.29,   324.73  " /><g ewd:lineID="18,32"><text style="&st18;" transform="matrix(&st16;  1327.94  332.92 )">5</text><text style="&st18;" transform="matrix(&st16;  1326.2  321.03 )">CA1P</text></g><g ewd:lineID="21,33"><text style="&st18;" transform="matrix(&st16;  1395.93  332.92 )">6</text><text style="&st18;" transform="matrix(&st16;  1393.99  321.03 )">CA1N</text></g><g ewd:lineID="29"><text style="&st18;" transform="matrix(&st16;  1276.95  332.92 )">1</text><text style="&st18;" transform="matrix(&st16;  1274.35  321.03 )">SGND</text></g><g ewd:lineID="30"><text style="&st18;" transform="matrix(&st16;  1276.95  270.05 )">8</text><text style="&st18;" transform="matrix(&st16;  1277.88  281.37 )">IGB</text></g><g ewd:lineID="40"><text style="&st18;" transform="matrix(&st16;  1497.91  332.92 )">3</text><text style="&st18;" transform="matrix(&st16;  1495.97  321.03 )">CA2H</text></g><g ewd:lineID="42"><text style="&st18;" transform="matrix(&st16;  1463.91  332.92 )">2</text><text style="&st18;" transform="matrix(&st16;  1462.52  321.03 )">CA2L</text></g><g ewd:figtype="title"><text style="&st18;" transform="matrix(&st16;  1364.86  257.27 )">I131</text><text style="&st18;" transform="matrix(&st16;  1364.87  264.09 )" ewd:textID="14">Millimeter Wave <tspan x="0 " dy="6.0">Radar Sensor Assembly</tspan></text></g></g><g ewd:figtype="conn" ewd:figID="21" ewd:code="I132"><path style="stroke-width: 1.42 ;&st7;  " d=" M  1079.32,   163.26  L  1079.32,   180.26  L  1300.28,   180.26  L  1300.28,   163.26  L  1079.32,   163.26  " /><path style="stroke-width: 0.85 ;&st7;  " d=" M  1283.29,   163.26  L  1283.29,   180.26  " /><path style="stroke-width: 0.85 ;&st7;  " d=" M  1283.29,   171.76  L  1096.32,   171.76  L  1096.32,   180.26  " /><path style="stroke-width: 0.85 ;&st7;  " d=" M  1138.81,   171.76  L  1138.81,   180.26  " /><path style="stroke-width: 0.85 ;&st7;  " d=" M  1137.62,   170.75  L  1137.34,   171.22  L  1137.25,   171.76  L  1137.34,   172.29  L  1137.62,   172.76  L  1138.03,   173.11  L  1138.54,   173.29  L  1139.08,   173.29  L  1139.59,   173.11  L  1140.00,   172.76  L  1140.27,   172.29  L  1140.37,   171.76  L  1140.27,   171.22  L  1140.00,   170.75  L  1139.59,   170.41  L  1139.08,   170.22  L  1138.54,   170.22  L  1138.03,   170.41  L  1137.62,   170.75  L  1138.01,   171.47  L  1138.01,   172.05  L  1138.38,   172.49  L  1138.96,   172.59  L  1139.46,   172.30  L  1139.66,   171.76  L  1139.46,   171.21  L  1138.96,   170.92  L  1138.38,   171.02  L  1138.81,   171.76  " /><path style="stroke-width: 0.85 ;&st7;  " d=" M  1282.09,   170.75  L  1281.82,   171.22  L  1281.73,   171.76  L  1281.82,   172.29  L  1282.09,   172.76  L  1282.51,   173.11  L  1283.01,   173.29  L  1283.56,   173.29  L  1284.06,   173.11  L  1284.48,   172.76  L  1284.75,   172.29  L  1284.84,   171.76  L  1284.75,   171.22  L  1284.48,   170.75  L  1284.06,   170.41  L  1283.56,   170.22  L  1283.01,   170.22  L  1282.51,   170.41  L  1282.09,   170.75  L  1282.49,   171.47  L  1282.49,   172.05  L  1282.86,   172.49  L  1283.43,   172.59  L  1283.94,   172.30  L  1284.13,   171.76  L  1283.94,   171.21  L  1283.43,   170.92  L  1282.86,   171.02  L  1283.29,   171.76  " /><text style="&st18;" transform="matrix(&st16;  1089.98  188.45 )">8</text><text style="&st18;" transform="matrix(&st16;  1129.14  188.45 )">10</text><text style="&st18;" transform="matrix(&st16;  1276.95  188.45 )">9</text><text style="&st18;" transform="matrix(&st16;  1276.95  159.57 )">7</text><g ewd:figtype="title"><text style="&st18;" transform="matrix(&st17;  1315.0  183.16 )" ewd:textID="20">No. 40 <tspan x="0 " dy="6.0">Junction Connector</tspan></text><text style="&st18;" transform="matrix(&st17;  1308.18  183.15 )">I132</text></g></g><g ewd:figtype="w2w" ewd:figID="34" ewd:code="YI4"><path style="stroke-width: 1.42 ;&st7;  " d=" M  1092.07,   239.18  L  1096.32,   243.43  L  1100.57,   239.18  " /><path style="stroke-width: 1.42 ;&st7;  " d=" M  1100.57,   242.58  L  1096.32,   246.83  L  1092.07,   242.58  " /><text style="&st18;" transform="matrix(&st16;  1079.56  254.46 )">19</text></g><g ewd:figtype="w2w" ewd:figID="35" ewd:code="IS2"><path style="stroke-width: 1.42 ;&st7;  " d=" M  1143.06,   262.41  L  1138.81,   258.16  L  1134.56,   262.41  " /><path style="stroke-width: 1.42 ;&st7;  " d=" M  1143.06,   265.81  L  1138.81,   261.56  L  1134.56,   265.81  " /><text style="&st18;" transform="matrix(&st16;  1125.39  254.46 )">6</text></g><g ewd:figtype="w2w" ewd:figID="36" ewd:code="YI4"><path style="stroke-width: 1.42 ;&st7;  " d=" M  1330.03,   383.65  L  1334.28,   387.90  L  1338.53,   383.65  " /><path style="stroke-width: 1.42 ;&st7;  " d=" M  1338.53,   387.05  L  1334.28,   391.30  L  1330.03,   387.05  " /><text style="&st18;" transform="matrix(&st16;  1320.86  398.94 )">2</text></g><g ewd:figtype="w2w" ewd:figID="37" ewd:code="YI4"><path style="stroke-width: 1.42 ;&st7;  " d=" M  1398.02,   383.65  L  1402.27,   387.90  L  1406.51,   383.65  " /><path style="stroke-width: 1.42 ;&st7;  " d=" M  1406.51,   387.05  L  1402.27,   391.30  L  1398.02,   387.05  " /><text style="&st18;" transform="matrix(&st16;  1388.85  398.94 )">3</text></g><g ewd:figtype="gp" ewd:figID="64" ewd:code="IC"><path style="stroke-width: 0.85 ;&st7;  " d=" M  1283.29,   697.25  L  1283.29,   701.50  " /><path style="stroke-width: 0.85 ;&st7;  " d=" M  1274.79,   701.50  L  1291.78,   701.50  " /><path style="stroke-width: 0.85 ;&st7;  " d=" M  1279.04,   704.33  L  1287.53,   704.33  " /><path style="stroke-width: 0.85 ;&st7;  " d=" M  1280.45,   707.17  L  1286.12,   707.17  " /><path style="stroke-width: 0.85 ;&st7;  " d=" M  1281.87,   710.00  L  1284.70,   710.00  " /></g><g ewd:code="1" ewd:figID="83" ewd:comment="" ewd:figtype="comment"><text style="&st18;" transform="matrix(&st16;  1058.92  80.24 )" ewd:textID="1">* 1 :2-Door Pick-Up Body Type</text></g><g ewd:code="2" ewd:figID="82" ewd:comment="" ewd:figtype="comment"><text style="&st18;" transform="matrix(&st16;  1058.92  88.74 )" ewd:textID="2">* 2 :Except 2-Door Pick-Up Body Type</text></g></svg>