<?xml version="1.0" encoding="utf-8"?>
<!DOCTYPE svg PUBLIC "-//W3C//DTD SVG 1.0//EN" "http://www.w3.org/TR/2001/REC-SVG-20010904/DTD/svg10.dtd"[
	<!ENTITY ns_flows "http://ns.adobe.com/Flows/1.0/">
	<!ENTITY ns_svg "http://www.w3.org/2000/svg">
	<!ENTITY ns_xlink "http://www.w3.org/1999/xlink">
	<!ENTITY st0 "font-size:7px;font-family:'MS-PGothic';adobe-font-script:japanese;">
	<!ENTITY st1 "font-size:6px;font-family:'ArialMT';">
	<!-- White fill  -->
	<!ENTITY st2 "fill:#FFFFFF;stroke:#000000; stroke-width:1.41;stroke-linecap:round;stroke-linejoin:round;">
	<!-- Yellow fill  -->
	<!ENTITY st3 "fill:#FFFFCC;stroke:#FFFFCC; stroke-width:0.1;stroke-linecap:round;stroke-linejoin:round;">
	<!-- Gray fill  -->
	<!ENTITY st4 "fill:#CCCCCC;stroke:#CCCCCC; stroke-width:0.1;stroke-linecap:round;stroke-linejoin:round;">
	<!-- Light-blue fill -->
	<!ENTITY st5 "fill:#CCECF4;stroke:#000000; stroke-width:1.133;stroke-linecap:round;stroke-linejoin:round;">
	<!ENTITY st6 "fill:none;stroke-linecap:butt; stroke-linejoin:round;">
	<!ENTITY st7 "fill:none;stroke:#000000;stroke-linecap:round;stroke-linejoin:round;">
	<!ENTITY st8 "enable-background:new    ;">
	<!-- Black fill -->
	<!ENTITY st9 "fill:#000000;stroke:#000000; stroke-linecap:round;stroke-linejoin:round;">
	<!-- SRS note   -->
	<!ENTITY st10 "font-size:9px;font-family:'ArialMT';">
	<!ENTITY st11 "font-size:9px;font-family:'Svg Symbol';">
	<!ENTITY st12 "font-size:6px;font-family:'Svg Symbol';">
	<!ENTITY st13 "fill:none;stroke:#ff0000;stroke-linecap:round;stroke-linejoin:round;">
	<!-- Yellow fill  -->
	<!ENTITY st14 "fill:#FFFF00;stroke:#FFFF00; stroke-width:0.1;stroke-linecap:round;stroke-linejoin:round;">
	<!ENTITY st15 "font-size:6px;font-family:'MS-PGothic';adobe-font-script:japanese;">
	<!ENTITY st16 "1.00 0.00 0.00 1.00">
	<!ENTITY st17 "0.00 -1.00 1.00 0.00">
	<!ENTITY st18 "font-size:6px;font-family:'Arial';">
	<!ENTITY st19 "font-size:9px;font-family:'Arial';">
	<!ENTITY st20 "font-size:6px;font-family:'MS-PGothic','MS PGothic';adobe-font-script:japanese;">
	<!ENTITY st21 "font-size:7px;font-family:'MS-PGothic','MS PGothic';adobe-font-script:japanese;">
	<!ATTLIST svg
		xmlns:ewd CDATA #FIXED "http://shcl.co.jp/ewd"
		xmlns:a CDATA #FIXED "http://ns.adobe.com/AdobeSVGViewerExtensions/3.0/"
		ewd:ver CDATA #IMPLIED
	>
	<!ATTLIST a
		ewd:lineID CDATA #IMPLIED
		ewd:groupID CDATA #IMPLIED
		ewd:figtype CDATA #IMPLIED
		ewd:code CDATA #IMPLIED
		ewd:figID CDATA #IMPLIED
		ewd:pinNo CDATA #IMPLIED
		ewd:comment CDATA #IMPLIED >
	<!ATTLIST g
		ewd:lineID CDATA #IMPLIED
		ewd:groupID CDATA #IMPLIED
		ewd:figtype CDATA #IMPLIED
		ewd:code CDATA #IMPLIED
		ewd:figID CDATA #IMPLIED
		ewd:pinNo CDATA #IMPLIED
		ewd:comment CDATA #IMPLIED >
	<!ATTLIST text
		ewd:textID CDATA #IMPLIED >
	<!ATTLIST title
		ewd:textID CDATA #IMPLIED >
]>
<!-- Generator: Shintec Hozumi YS   -->
<svg onload="call_execInitLoadProc_svg('system')" style="overflow:visible;  enable-background:new 0 0 4047.195 710.000" viewBox="0 0 4047.195 710.000" height="710.000" width="4047.195" xml:space="preserve" ewd:ver="2.3.1.16" xmlns="&ns_svg;" xmlns:a="http://ns.adobe.com/AdobeSVGViewerExtensions/3.0/" xmlns:ewd="http://shcl.co.jp/ewd" xmlns:xlink="&ns_xlink;">
<path style="stroke-width: 1.42 ;&st7;  " d=" M  3798.87,   146.26  L  3807.36,   146.26  " /><path style="stroke-width: 1.42 ;&st7;  " d=" M  3722.38,   418.22  L  3730.88,   418.22  " /><path style="stroke-width: 1.42 ;&st7;  " d=" M  3722.38,   520.20  L  3730.88,   520.20  " /><path style="stroke-width: 1.42 ;&st7;  " d=" M  3722.38,   579.69  L  3730.88,   579.69  " /><text style="&st18;" transform="matrix(&st17;  3727.18  456.15 )">BR</text><text style="&st18;" transform="matrix(&st17;  3727.18  507.14 )">BR</text><text style="&st18;" transform="matrix(&st17;  3803.67  186.27 )">V</text><text style="&st18;" transform="matrix(&st17;  3999.14  207.67 )">R</text><text style="&st18;" transform="matrix(&st17;  3803.67  114.03 )">V</text><text style="&st18;" transform="matrix(&st17;  3999.14  122.69 )">R</text><text style="&st18;" transform="matrix(&st17;  3727.18  405.16 )">BR</text><text style="&st18;" transform="matrix(&st17;  3727.18  558.13 )">BR</text><text style="&st18;" transform="matrix(&st17;  3727.18  617.62 )">BR</text><text style="&st18;" transform="matrix(&st17;  3999.14  173.68 )">R</text><text style="&st18;" transform="matrix(&st17;  3922.65  139.53 )">V</text><text style="&st18;" transform="matrix(&st17;  3803.67  445.79 )">G</text><text style="&st18;" transform="matrix(&st17;  3837.66  446.41 )">W</text><path style="stroke-width: 1.42 ;&st7;  " d=" M  3994.33,   149.79  L  3999.30,   154.76  " /><path style="stroke-width: 1.42 ;&st7;  " d=" M  3999.30,   137.76  L  3994.33,   142.73  " /><path style="stroke-width: 1.42 ;&st7;  " d=" M  3739.38,   474.18  L  3734.40,   469.21  " /><path style="stroke-width: 1.42 ;&st7;  " d=" M  3722.38,   481.24  L  3727.35,   486.20  " /><path style="stroke-width: 1.42 ;&st7;  " d=" M  3734.40,   486.20  L  3739.38,   481.24  " /><path style="stroke-width: 1.42 ;&st7;  " d=" M  3727.35,   469.21  L  3722.38,   474.18  " /><text style="&st18;" transform="matrix(&st16;  3660.31  652.48 )">G</text><text style="&st18;" transform="matrix(&st16;  3592.32  652.48 )">G</text><text style="&st18;" transform="matrix(&st16;  3659.69  669.48 )">W</text><text style="&st18;" transform="matrix(&st16;  3591.7  669.48 )">W</text><g ewd:figtype="rb" ewd:figID="6" ewd:code="FUSE5"><path style="stroke-width: 0.85 ;&st7;  " d=" M  4002.83,    78.27  L  4002.83,    95.27  " /><path style="stroke-width: 1.42 ;&st7;  " d=" M  4004.96,   103.77  L  4000.71,   103.77  " /><path style="stroke-width: 1.42 ;&st7;  " d=" M  4004.96,    95.27  L  4000.71,    95.27  " /><path style="stroke-width: 1.42 ;&st7;   " d=" M  4000.71,    95.27  C  3998.36     95.27   3996.46     97.17   3996.46     99.52  " /><path style="stroke-width: 1.42 ;&st7;   " d=" M  3996.46,    99.52  C  3996.46    101.87   3998.36    103.77   4000.71    103.77  " /><path style="stroke-width: 1.42 ;&st7;   " d=" M  4004.96,   103.77  C  4007.30    103.77   4009.21    101.87   4009.21     99.52  " /><path style="stroke-width: 1.42 ;&st7;   " d=" M  4009.21,    99.52  C  4009.21     97.17   4007.30     95.27   4004.96     95.27  " /><path style="stroke-width: 0.28 ;&st9;  " d=" M  4002.83,    90.37  L  4000.00,    87.54  L  4000.00,    91.79  L  4002.83,    94.62  L  4005.66,    91.79  L  4005.66,    87.54  L  4002.83,    90.37  " /><text style="&st18;" transform="matrix(&st16;  4019.26  53.34 )">10A <tspan x="0 " dy="6.0">DOME </tspan><tspan x="0 " dy="6.0">NO.1</tspan></text><text style="&st18;" transform="matrix(&st16;  4000.95  101.49 )">2</text><text style="&st18;" transform="matrix(&st16;  3996.49  86.47 )">2</text><text style="&st18;" transform="matrix(&st16;  3994.75  32.08 )">(BAT)</text><path style="stroke-width: 0.85 ;&st7;  " d=" M  4002.83,    69.77  L  4002.83,    78.27  " /><path style="stroke-width: 1.42 ;&st7;   " d=" M  4002.83,    47.11  C  4000.09     48.72   3999.18     52.25   4000.79     54.99  " /><path style="stroke-width: 1.42 ;&st7;   " d=" M  4000.79,    54.99  C  4001.31     55.87   4001.95     56.51   4002.83     57.03  " /><path style="stroke-width: 1.42 ;&st7;   " d=" M  4002.83,    66.94  C  4005.57     65.33   4006.48     61.80   4004.87     59.06  " /><path style="stroke-width: 1.42 ;&st7;   " d=" M  4004.87,    59.06  C  4004.35     58.18   4003.71     57.55   4002.83     57.03  " /><path style="stroke-width: 0.85 ;&st7;   " d=" M  4004.25,    45.69  C  4004.25     44.91   4003.61     44.28   4002.83     44.28  " /><path style="stroke-width: 0.85 ;&st7;   " d=" M  4002.83,    44.28  C  4002.05     44.28   4001.41     44.91   4001.41     45.69  " /><path style="stroke-width: 0.85 ;&st7;   " d=" M  4001.41,    45.69  C  4001.41     46.48   4002.05     47.11   4002.83     47.11  " /><path style="stroke-width: 0.85 ;&st7;   " d=" M  4002.83,    47.11  C  4003.61     47.11   4004.25     46.48   4004.25     45.69  " /><path style="stroke-width: 0.85 ;&st7;   " d=" M  4004.25,    68.36  C  4004.25     67.57   4003.61     66.94   4002.83     66.94  " /><path style="stroke-width: 0.85 ;&st7;   " d=" M  4002.83,    66.94  C  4002.05     66.94   4001.41     67.57   4001.41     68.36  " /><path style="stroke-width: 0.85 ;&st7;   " d=" M  4001.41,    68.36  C  4001.41     69.14   4002.05     69.77   4002.83     69.77  " /><path style="stroke-width: 0.85 ;&st7;   " d=" M  4002.83,    69.77  C  4003.61     69.77   4004.25     69.14   4004.25     68.36  " /><path style="stroke-width: 1.42 ;&st7;  " d=" M  3990.08,    35.78  L  3990.08,    78.27  L  4015.58,    78.27  L  4015.58,    35.78  L  3990.08,    35.78  " /></g><g ewd:figtype="rb" ewd:figID="7" ewd:code="FUSE18"><path style="stroke-width: 0.85 ;&st7;  " d=" M  3926.34,    78.27  L  3926.34,    95.27  " /><path style="stroke-width: 1.42 ;&st7;  " d=" M  3928.47,   103.77  L  3924.22,   103.77  " /><path style="stroke-width: 1.42 ;&st7;  " d=" M  3928.47,    95.27  L  3924.22,    95.27  " /><path style="stroke-width: 1.42 ;&st7;   " d=" M  3924.22,    95.27  C  3921.87     95.27   3919.97     97.17   3919.97     99.52  " /><path style="stroke-width: 1.42 ;&st7;   " d=" M  3919.97,    99.52  C  3919.97    101.87   3921.87    103.77   3924.22    103.77  " /><path style="stroke-width: 1.42 ;&st7;   " d=" M  3928.47,   103.77  C  3930.82    103.77   3932.72    101.87   3932.72     99.52  " /><path style="stroke-width: 1.42 ;&st7;   " d=" M  3932.72,    99.52  C  3932.72     97.17   3930.82     95.27   3928.47     95.27  " /><path style="stroke-width: 0.28 ;&st9;  " d=" M  3926.34,    90.37  L  3923.51,    87.54  L  3923.51,    91.79  L  3926.34,    94.62  L  3929.18,    91.79  L  3929.18,    87.54  L  3926.34,    90.37  " /><text style="&st18;" transform="matrix(&st16;  3942.77  56.17 )">10A <tspan x="0 " dy="6.0">MET</tspan></text><text style="&st18;" transform="matrix(&st16;  3924.47  101.49 )">2</text><text style="&st18;" transform="matrix(&st16;  3920.0  86.47 )">2</text><text style="&st18;" transform="matrix(&st16;  3920.98  32.08 )">(IG)</text><path style="stroke-width: 0.85 ;&st7;  " d=" M  3926.34,    69.77  L  3926.34,    78.27  " /><path style="stroke-width: 1.42 ;&st7;   " d=" M  3926.34,    47.11  C  3923.61     48.72   3922.69     52.25   3924.31     54.99  " /><path style="stroke-width: 1.42 ;&st7;   " d=" M  3924.31,    54.99  C  3924.83     55.87   3925.46     56.51   3926.34     57.03  " /><path style="stroke-width: 1.42 ;&st7;   " d=" M  3926.34,    66.94  C  3929.08     65.33   3929.99     61.80   3928.38     59.06  " /><path style="stroke-width: 1.42 ;&st7;   " d=" M  3928.38,    59.06  C  3927.86     58.18   3927.23     57.55   3926.34     57.03  " /><path style="stroke-width: 0.85 ;&st7;   " d=" M  3927.76,    45.69  C  3927.76     44.91   3927.13     44.28   3926.34     44.28  " /><path style="stroke-width: 0.85 ;&st7;   " d=" M  3926.34,    44.28  C  3925.56     44.28   3924.93     44.91   3924.93     45.69  " /><path style="stroke-width: 0.85 ;&st7;   " d=" M  3924.93,    45.69  C  3924.93     46.48   3925.56     47.11   3926.34     47.11  " /><path style="stroke-width: 0.85 ;&st7;   " d=" M  3926.34,    47.11  C  3927.13     47.11   3927.76     46.48   3927.76     45.69  " /><path style="stroke-width: 0.85 ;&st7;   " d=" M  3927.76,    68.36  C  3927.76     67.57   3927.13     66.94   3926.34     66.94  " /><path style="stroke-width: 0.85 ;&st7;   " d=" M  3926.34,    66.94  C  3925.56     66.94   3924.93     67.57   3924.93     68.36  " /><path style="stroke-width: 0.85 ;&st7;   " d=" M  3924.93,    68.36  C  3924.93     69.14   3925.56     69.77   3926.34     69.77  " /><path style="stroke-width: 0.85 ;&st7;   " d=" M  3926.34,    69.77  C  3927.13     69.77   3927.76     69.14   3927.76     68.36  " /><path style="stroke-width: 1.42 ;&st7;  " d=" M  3913.59,    35.78  L  3913.59,    78.27  L  3939.09,    78.27  L  3939.09,    35.78  L  3913.59,    35.78  " /></g><g ewd:figtype="conn" ewd:figID="8" ewd:code="L25,L26"><path style="stroke-width: 1.42 ;&st7;  " d=" M  3713.88,   222.75  L  3713.88,   375.72  L  4019.83,   375.72  L  4019.83,   222.75  L  3713.88,   222.75  " /><g ewd:lineID="93"><text style="&st18;" transform="matrix(&st16;  3718.06  382.22 )">15</text><path style="stroke-width: 1.42 ;&st7;   " d=" M  3735.41,   380.26  C  3735.41    377.75   3733.38    375.72   3730.88    375.72  " /><path style="stroke-width: 1.42 ;&st7;   " d=" M  3730.88,   375.72  C  3728.37    375.72   3726.34    377.75   3726.34    380.26  " /><path style="stroke-width: 1.42 ;&st7;   " d=" M  3726.34,   380.26  C  3726.34    382.76   3728.37    384.79   3730.88    384.79  " /><path style="stroke-width: 1.42 ;&st7;   " d=" M  3730.88,   384.79  C  3733.38    384.79   3735.41    382.76   3735.41    380.26  " /><text style="&st18;" transform="matrix(&st16;  3728.61  382.22 )">A</text><text style="&st18;" transform="matrix(&st16;  3726.59  372.03 )">ES</text></g><g ewd:lineID="94"><text style="&st18;" transform="matrix(&st16;  3794.55  382.22 )">13</text><path style="stroke-width: 1.42 ;&st7;   " d=" M  3811.90,   380.26  C  3811.90    377.75   3809.87    375.72   3807.36    375.72  " /><path style="stroke-width: 1.42 ;&st7;   " d=" M  3807.36,   375.72  C  3804.86    375.72   3802.83    377.75   3802.83    380.26  " /><path style="stroke-width: 1.42 ;&st7;   " d=" M  3802.83,   380.26  C  3802.83    382.76   3804.86    384.79   3807.36    384.79  " /><path style="stroke-width: 1.42 ;&st7;   " d=" M  3807.36,   384.79  C  3809.87    384.79   3811.90    382.76   3811.90    380.26  " /><text style="&st18;" transform="matrix(&st16;  3805.1  382.22 )">B</text><text style="&st18;" transform="matrix(&st16;  3798.58  372.03 )">CANH</text></g><g ewd:lineID="95"><text style="&st18;" transform="matrix(&st16;  3794.55  220.18 )">28</text><path style="stroke-width: 1.42 ;&st7;   " d=" M  3811.90,   218.22  C  3811.90    215.71   3809.87    213.68   3807.36    213.68  " /><path style="stroke-width: 1.42 ;&st7;   " d=" M  3807.36,   213.68  C  3804.86    213.68   3802.83    215.71   3802.83    218.22  " /><path style="stroke-width: 1.42 ;&st7;   " d=" M  3802.83,   218.22  C  3802.83    220.72   3804.86    222.75   3807.36    222.75  " /><path style="stroke-width: 1.42 ;&st7;   " d=" M  3807.36,   222.75  C  3809.87    222.75   3811.90    220.72   3811.90    218.22  " /><text style="&st18;" transform="matrix(&st16;  3805.1  220.18 )">A</text><text style="&st18;" transform="matrix(&st16;  3805.1  230.38 )">B</text></g><g ewd:lineID="97"><text style="&st18;" transform="matrix(&st16;  3828.54  382.22 )">14</text><text style="&st18;" transform="matrix(&st16;  3839.09  382.22 )">B</text><path style="stroke-width: 1.42 ;&st7;   " d=" M  3845.89,   380.26  C  3845.89    377.75   3843.86    375.72   3841.36    375.72  " /><path style="stroke-width: 1.42 ;&st7;   " d=" M  3841.36,   375.72  C  3838.85    375.72   3836.83    377.75   3836.83    380.26  " /><path style="stroke-width: 1.42 ;&st7;   " d=" M  3836.83,   380.26  C  3836.83    382.76   3838.85    384.79   3841.36    384.79  " /><path style="stroke-width: 1.42 ;&st7;   " d=" M  3841.36,   384.79  C  3843.86    384.79   3845.89    382.76   3845.89    380.26  " /><text style="&st18;" transform="matrix(&st16;  3833.08  372.03 )">CANL</text></g><g ewd:lineID="99"><text style="&st18;" transform="matrix(&st16;  3990.02  220.18 )">26</text><path style="stroke-width: 1.42 ;&st7;   " d=" M  3998.30,   218.22  C  3998.30    220.72   4000.33    222.75   4002.83    222.75  " /></g><g ewd:figtype="title"><text style="&st18;" transform="matrix(&st16;  3897.44  383.62 )">L25(A),L26(B)</text><text style="&st18;" transform="matrix(&st16;  3897.44  390.44 )" ewd:textID="8">Combination Meter Assembly</text></g></g><g ewd:figtype="conn" ewd:figID="9" ewd:code="I106"><path style="stroke-width: 1.42 ;&st7;  " d=" M  3858.35,   137.76  L  3875.35,   137.76  L  3875.35,   154.76  L  3858.35,   154.76  L  3858.35,   137.76  " /><path style="stroke-width: 0.85 ;&st7;  " d=" M  3866.85,   137.76  L  3866.85,   154.76  " /><text style="&st18;" transform="matrix(&st16;  3857.37  135.2 )">2</text><text style="&st18;" transform="matrix(&st16;  3864.59  135.2 )">B</text><path style="stroke-width: 1.42 ;&st7;   " d=" M  3871.39,   133.23  C  3871.39    130.73   3869.36    128.70   3866.85    128.70  " /><path style="stroke-width: 1.42 ;&st7;   " d=" M  3866.85,   128.70  C  3864.35    128.70   3862.32    130.73   3862.32    133.23  " /><path style="stroke-width: 1.42 ;&st7;   " d=" M  3862.32,   133.23  C  3862.32    135.73   3864.35    137.76   3866.85    137.76  " /><path style="stroke-width: 1.42 ;&st7;   " d=" M  3866.85,   137.76  C  3869.36    137.76   3871.39    135.73   3871.39    133.23  " /><text style="&st18;" transform="matrix(&st16;  3857.37  161.26 )">1</text><text style="&st18;" transform="matrix(&st16;  3864.59  161.26 )">B</text><path style="stroke-width: 1.42 ;&st7;   " d=" M  3871.39,   159.29  C  3871.39    156.79   3869.36    154.76   3866.85    154.76  " /><path style="stroke-width: 1.42 ;&st7;   " d=" M  3866.85,   154.76  C  3864.35    154.76   3862.32    156.79   3862.32    159.29  " /><path style="stroke-width: 1.42 ;&st7;   " d=" M  3862.32,   159.29  C  3862.32    161.80   3864.35    163.82   3866.85    163.82  " /><path style="stroke-width: 1.42 ;&st7;   " d=" M  3866.85,   163.82  C  3869.36    163.82   3871.39    161.80   3871.39    159.29  " /><g ewd:figtype="title"><text style="&st18;" transform="matrix(&st17;  3841.89  157.66 )">I106(B)</text><text style="&st18;" transform="matrix(&st17;  3848.71  157.67 )" ewd:textID="18">No. 9 Junction <tspan x="0 " dy="6.0">Connector</tspan></text></g></g><g ewd:figtype="w2w" ewd:figID="57" ewd:code="CA4"><path style="stroke-width: 1.42 ;&st7;  " d=" M  3726.63,   570.62  L  3730.88,   574.87  L  3735.12,   570.62  " /><path style="stroke-width: 1.42 ;&st7;  " d=" M  3735.12,   574.02  L  3730.88,   578.27  L  3726.63,   574.02  " /><text style="&st18;" transform="matrix(&st16;  3714.12  585.91 )">17</text></g><g ewd:figtype="w2w" ewd:figID="58" ewd:code="AI3"><path style="stroke-width: 1.42 ;&st7;  " d=" M  3735.12,   514.53  L  3730.88,   518.78  L  3726.63,   514.53  " /><path style="stroke-width: 1.42 ;&st7;  " d=" M  3726.63,   511.13  L  3730.88,   515.38  L  3735.12,   511.13  " /><text style="&st18;" transform="matrix(&st16;  3714.12  526.42 )">55</text></g><g ewd:figtype="w2w" ewd:figID="59" ewd:code="IL6"><path style="stroke-width: 1.42 ;&st7;  " d=" M  3726.63,   409.15  L  3730.88,   413.40  L  3735.12,   409.15  " /><path style="stroke-width: 1.42 ;&st7;  " d=" M  3735.12,   412.55  L  3730.88,   416.80  L  3726.63,   412.55  " /><text style="&st18;" transform="matrix(&st16;  3714.12  424.43 )">14</text></g><g ewd:figtype="w2w" ewd:figID="60" ewd:code="LI1"><path style="stroke-width: 1.42 ;&st7;  " d=" M  3803.11,   137.20  L  3807.36,   141.45  L  3811.61,   137.20  " /><path style="stroke-width: 1.42 ;&st7;  " d=" M  3811.61,   140.60  L  3807.36,   144.84  L  3803.11,   140.60  " /><text style="&st18;" transform="matrix(&st16;  3790.61  152.48 )">18</text></g><g ewd:figtype="w2w" ewd:figID="61" ewd:code="IL6"><path style="stroke-width: 1.42 ;&st7;  " d=" M  4007.08,   197.82  L  4002.83,   193.57  L  3998.58,   197.82  " /><path style="stroke-width: 1.42 ;&st7;  " d=" M  4007.08,   194.42  L  4002.83,   190.17  L  3998.58,   194.42  " /><text style="&st18;" transform="matrix(&st16;  3989.41  186.47 )">8</text></g><g ewd:figtype="gp" ewd:figID="65" ewd:code="CE"><path style="stroke-width: 0.85 ;&st7;  " d=" M  3730.88,   697.25  L  3730.88,   701.50  " /><path style="stroke-width: 0.85 ;&st7;  " d=" M  3722.38,   701.50  L  3739.37,   701.50  " /><path style="stroke-width: 0.85 ;&st7;  " d=" M  3726.63,   704.33  L  3735.12,   704.33  " /><path style="stroke-width: 0.85 ;&st7;  " d=" M  3728.04,   707.17  L  3733.71,   707.17  " /><path style="stroke-width: 0.85 ;&st7;  " d=" M  3729.46,   710.00  L  3732.29,   710.00  " /></g></svg>