<?xml version="1.0" encoding="utf-8"?>
<!DOCTYPE svg PUBLIC "-//W3C//DTD SVG 1.0//EN" "http://www.w3.org/TR/2001/REC-SVG-20010904/DTD/svg10.dtd"[
	<!ENTITY ns_flows "http://ns.adobe.com/Flows/1.0/">
	<!ENTITY ns_svg "http://www.w3.org/2000/svg">
	<!ENTITY ns_xlink "http://www.w3.org/1999/xlink">
	<!ENTITY st0 "font-size:7px;font-family:'MS-PGothic';adobe-font-script:japanese;">
	<!ENTITY st1 "font-size:6px;font-family:'ArialMT';">
	<!-- White fill  -->
	<!ENTITY st2 "fill:#FFFFFF;stroke:#000000; stroke-width:1.41;stroke-linecap:round;stroke-linejoin:round;">
	<!-- Yellow fill  -->
	<!ENTITY st3 "fill:#FFFFCC;stroke:#FFFFCC; stroke-width:0.1;stroke-linecap:round;stroke-linejoin:round;">
	<!-- Gray fill  -->
	<!ENTITY st4 "fill:#CCCCCC;stroke:#CCCCCC; stroke-width:0.1;stroke-linecap:round;stroke-linejoin:round;">
	<!-- Light-blue fill -->
	<!ENTITY st5 "fill:#CCECF4;stroke:#000000; stroke-width:1.133;stroke-linecap:round;stroke-linejoin:round;">
	<!ENTITY st6 "fill:none;stroke-linecap:butt; stroke-linejoin:round;">
	<!ENTITY st7 "fill:none;stroke:#000000;stroke-linecap:round;stroke-linejoin:round;">
	<!ENTITY st8 "enable-background:new    ;">
	<!-- Black fill -->
	<!ENTITY st9 "fill:#000000;stroke:#000000; stroke-linecap:round;stroke-linejoin:round;">
	<!-- SRS note   -->
	<!ENTITY st10 "font-size:9px;font-family:'ArialMT';">
	<!ENTITY st11 "font-size:9px;font-family:'Svg Symbol';">
	<!ENTITY st12 "font-size:6px;font-family:'Svg Symbol';">
	<!ENTITY st13 "fill:none;stroke:#ff0000;stroke-linecap:round;stroke-linejoin:round;">
	<!-- Yellow fill  -->
	<!ENTITY st14 "fill:#FFFF00;stroke:#FFFF00; stroke-width:0.1;stroke-linecap:round;stroke-linejoin:round;">
	<!ENTITY st15 "font-size:6px;font-family:'MS-PGothic';adobe-font-script:japanese;">
	<!ENTITY st16 "1.00 0.00 0.00 1.00">
	<!ENTITY st17 "0.00 -1.00 1.00 0.00">
	<!ENTITY st18 "font-size:6px;font-family:'Arial';">
	<!ENTITY st19 "font-size:9px;font-family:'Arial';">
	<!ENTITY st20 "font-size:6px;font-family:'MS-PGothic','MS PGothic';adobe-font-script:japanese;">
	<!ENTITY st21 "font-size:7px;font-family:'MS-PGothic','MS PGothic';adobe-font-script:japanese;">
	<!ATTLIST svg
		xmlns:ewd CDATA #FIXED "http://shcl.co.jp/ewd"
		xmlns:a CDATA #FIXED "http://ns.adobe.com/AdobeSVGViewerExtensions/3.0/"
		ewd:ver CDATA #IMPLIED
	>
	<!ATTLIST a
		ewd:lineID CDATA #IMPLIED
		ewd:groupID CDATA #IMPLIED
		ewd:figtype CDATA #IMPLIED
		ewd:code CDATA #IMPLIED
		ewd:figID CDATA #IMPLIED
		ewd:pinNo CDATA #IMPLIED
		ewd:comment CDATA #IMPLIED >
	<!ATTLIST g
		ewd:lineID CDATA #IMPLIED
		ewd:groupID CDATA #IMPLIED
		ewd:figtype CDATA #IMPLIED
		ewd:code CDATA #IMPLIED
		ewd:figID CDATA #IMPLIED
		ewd:pinNo CDATA #IMPLIED
		ewd:comment CDATA #IMPLIED >
	<!ATTLIST text
		ewd:textID CDATA #IMPLIED >
	<!ATTLIST title
		ewd:textID CDATA #IMPLIED >
]>
<!-- Generator: Shintec Hozumi YS   -->
<svg onload="call_execInitLoadProc_svg('system')" style="overflow:visible;  enable-background:new 0 0 3072.762 710.000" viewBox="0 0 3072.762 710.000" height="710.000" width="3072.762" xml:space="preserve" ewd:ver="2.3.1.16" xmlns="&ns_svg;" xmlns:a="http://ns.adobe.com/AdobeSVGViewerExtensions/3.0/" xmlns:ewd="http://shcl.co.jp/ewd" xmlns:xlink="&ns_xlink;"><script type="text/javascript" xlink:href="../../../../../system/js/ewd/fig/svgfig.js" xmlns:xlink="http://www.w3.org/1999/xlink" />
<g id="ewd_top"><a ewd:code="FUSE10" ewd:figID="1" ewd:figtype="rb" style="cursor:pointer;"><path d=" M  2966.00,   668.92  L  2966.00,   694.42  L  3008.50,   694.42  L  3008.50,   668.92  L  2966.00,   668.92 " style="fill:#CCECF4;stroke:#000000; stroke-width:0; stroke-linecap:round;stroke-linejoin:round; " /></a><a ewd:code="FUSE52" ewd:figID="2" ewd:figtype="rb" style="cursor:pointer;"><path d=" M   263.46,   252.49  L   263.46,   277.99  L   305.95,   277.99  L   305.95,   252.49  L   263.46,   252.49 " style="fill:#CCECF4;stroke:#000000; stroke-width:0; stroke-linecap:round;stroke-linejoin:round; " /></a><a ewd:code="FUSE53" ewd:figID="3" ewd:figtype="rb" style="cursor:pointer;"><path d=" M   263.46,   294.99  L   263.46,   320.48  L   305.95,   320.48  L   305.95,   294.99  L   263.46,   294.99 " style="fill:#CCECF4;stroke:#000000; stroke-width:0; stroke-linecap:round;stroke-linejoin:round; " /></a><a ewd:code="FUSE50" ewd:figID="4" ewd:figtype="rb" style="cursor:pointer;"><path d=" M   263.46,   379.97  L   263.46,   405.47  L   305.95,   405.47  L   305.95,   379.97  L   263.46,   379.97 " style="fill:#CCECF4;stroke:#000000; stroke-width:0; stroke-linecap:round;stroke-linejoin:round; " /></a><a ewd:code="FUSE56" ewd:figID="5" ewd:figtype="rb" style="cursor:pointer;"><path d=" M   263.46,   422.46  L   263.46,   447.96  L   305.95,   447.96  L   305.95,   422.46  L   263.46,   422.46 " style="fill:#CCECF4;stroke:#000000; stroke-width:0; stroke-linecap:round;stroke-linejoin:round; " /></a><a ewd:code="FUSE47" ewd:figID="6" ewd:figtype="rb" style="cursor:pointer;"><path d=" M   263.46,   464.96  L   263.46,   490.45  L   305.95,   490.45  L   305.95,   464.96  L   263.46,   464.96 " style="fill:#CCECF4;stroke:#000000; stroke-width:0; stroke-linecap:round;stroke-linejoin:round; " /></a><a ewd:code="FUSE54" ewd:figID="7" ewd:figtype="rb" style="cursor:pointer;"><path d=" M   263.46,   507.45  L   263.46,   532.95  L   305.95,   532.95  L   305.95,   507.45  L   263.46,   507.45 " style="fill:#CCECF4;stroke:#000000; stroke-width:0; stroke-linecap:round;stroke-linejoin:round; " /></a><a ewd:code="A37,E3" ewd:figID="8" ewd:figtype="conn" style="cursor:pointer;"><path d=" M    33.99,   401.22  L    67.99,   401.22  L    67.99,   460.71  L    33.99,   460.71  L    33.99,   401.22 " style="fill:#CCECF4;stroke:#000000; stroke-width:1.133; stroke-linecap:round;stroke-linejoin:round; " /><title ewd:textID="15">Battery (Sub)</title></a><a ewd:code="E2,F2" ewd:figID="9" ewd:figtype="conn" style="cursor:pointer;"><path d=" M    33.99,   528.70  L    67.99,   528.70  L    67.99,   588.19  L    33.99,   588.19  L    33.99,   528.70 " style="fill:#CCECF4;stroke:#000000; stroke-width:1.133; stroke-linecap:round;stroke-linejoin:round; " /><title ewd:textID="15">Battery (Sub)</title></a><a ewd:code="FUSE11" ewd:figID="10" ewd:figtype="rb" style="cursor:pointer;"><path d=" M  2966.00,   626.43  L  2966.00,   651.93  L  3008.50,   651.93  L  3008.50,   626.43  L  2966.00,   626.43 " style="fill:#CCECF4;stroke:#000000; stroke-width:0; stroke-linecap:round;stroke-linejoin:round; " /></a><a ewd:code="A35,A36,D9,E1,E4,F1" ewd:figID="11" ewd:figtype="conn" style="cursor:pointer;"><path d=" M    93.48,   528.70  L   203.97,   528.70  L   203.97,   588.19  L    93.48,   588.19  L    93.48,   528.70 " style="fill:#CCECF4;stroke:#000000; stroke-width:1.133; stroke-linecap:round;stroke-linejoin:round; " /><title ewd:textID="14">Battery (Main)</title></a><a ewd:code="FUSE28" ewd:figID="12" ewd:figtype="rb" style="cursor:pointer;"><path d=" M  2821.53,   413.97  L  2821.53,   439.46  L  2864.02,   439.46  L  2864.02,   413.97  L  2821.53,   413.97 " style="fill:#CCECF4;stroke:#000000; stroke-width:0; stroke-linecap:round;stroke-linejoin:round; " /></a><a ewd:code="FUSE58" ewd:figID="13" ewd:figtype="rb" style="cursor:pointer;"><path d=" M   263.46,   549.94  L   263.46,   575.44  L   305.95,   575.44  L   305.95,   549.94  L   263.46,   549.94 " style="fill:#CCECF4;stroke:#000000; stroke-width:0; stroke-linecap:round;stroke-linejoin:round; " /></a><a ewd:code="FUSE34" ewd:figID="14" ewd:figtype="rb" style="cursor:pointer;"><path d=" M  2821.53,   456.46  L  2821.53,   481.95  L  2864.02,   481.95  L  2864.02,   456.46  L  2821.53,   456.46 " style="fill:#CCECF4;stroke:#000000; stroke-width:0; stroke-linecap:round;stroke-linejoin:round; " /></a><a ewd:code="FUSE59" ewd:figID="15" ewd:figtype="rb" style="cursor:pointer;"><path d=" M   263.46,   592.44  L   263.46,   617.93  L   305.95,   617.93  L   305.95,   592.44  L   263.46,   592.44 " style="fill:#CCECF4;stroke:#000000; stroke-width:0; stroke-linecap:round;stroke-linejoin:round; " /></a><a ewd:code="2" ewd:figID="16" ewd:figtype="rb" style="cursor:pointer;"><path d=" M  2821.53,   630.68  L  2821.53,   673.17  L  2787.53,   673.17  L  2787.53,   630.68  L  2821.53,   630.68 " style="fill:#CCECF4;stroke:#000000; stroke-width:0; stroke-linecap:round;stroke-linejoin:round; " /></a><a ewd:code="FUSE60" ewd:figID="17" ewd:figtype="rb" style="cursor:pointer;"><path d=" M   263.46,   634.93  L   263.46,   660.42  L   305.95,   660.42  L   305.95,   634.93  L   263.46,   634.93 " style="fill:#CCECF4;stroke:#000000; stroke-width:0; stroke-linecap:round;stroke-linejoin:round; " /></a><a ewd:code="FUSE13" ewd:figID="18" ewd:figtype="rb" style="cursor:pointer;"><path d=" M  2966.00,   541.44  L  2966.00,   566.94  L  3008.50,   566.94  L  3008.50,   541.44  L  2966.00,   541.44 " style="fill:#CCECF4;stroke:#000000; stroke-width:0; stroke-linecap:round;stroke-linejoin:round; " /></a><a ewd:code="FUSE57" ewd:figID="19" ewd:figtype="rb" style="cursor:pointer;"><path d=" M   263.46,   677.42  L   263.46,   702.92  L   305.95,   702.92  L   305.95,   677.42  L   263.46,   677.42 " style="fill:#CCECF4;stroke:#000000; stroke-width:0; stroke-linecap:round;stroke-linejoin:round; " /></a><a ewd:code="FUSE12" ewd:figID="20" ewd:figtype="rb" style="cursor:pointer;"><path d=" M  2966.00,   583.94  L  2966.00,   609.43  L  3008.50,   609.43  L  3008.50,   583.94  L  2966.00,   583.94 " style="fill:#CCECF4;stroke:#000000; stroke-width:0; stroke-linecap:round;stroke-linejoin:round; " /></a><a ewd:code="2" ewd:figID="21" ewd:figtype="rb" style="cursor:pointer;"><path d=" M   679.89,   273.74  L   679.89,   316.23  L   713.88,   316.23  L   713.88,   273.74  L   679.89,   273.74 " style="fill:#CCECF4;stroke:#000000; stroke-width:0; stroke-linecap:round;stroke-linejoin:round; " /></a><a ewd:code="FUSE4" ewd:figID="22" ewd:figtype="rb" style="cursor:pointer;"><path d=" M   926.35,   243.99  L   926.35,   269.49  L   968.84,   269.49  L   968.84,   243.99  L   926.35,   243.99 " style="fill:#CCECF4;stroke:#000000; stroke-width:0; stroke-linecap:round;stroke-linejoin:round; " /></a><a ewd:code="FUSE31" ewd:figID="23" ewd:figtype="rb" style="cursor:pointer;"><path d=" M   688.38,   354.48  L   688.38,   379.97  L   730.88,   379.97  L   730.88,   354.48  L   688.38,   354.48 " style="fill:#CCECF4;stroke:#000000; stroke-width:0; stroke-linecap:round;stroke-linejoin:round; " /></a><a ewd:code="FUSE2" ewd:figID="24" ewd:figtype="rb" style="cursor:pointer;"><path d=" M   688.38,   396.97  L   688.38,   422.46  L   730.88,   422.46  L   730.88,   396.97  L   688.38,   396.97 " style="fill:#CCECF4;stroke:#000000; stroke-width:0; stroke-linecap:round;stroke-linejoin:round; " /></a><a ewd:code="FUSE36" ewd:figID="25" ewd:figtype="rb" style="cursor:pointer;"><path d=" M   688.38,   439.46  L   688.38,   464.96  L   730.88,   464.96  L   730.88,   439.46  L   688.38,   439.46 " style="fill:#CCECF4;stroke:#000000; stroke-width:0; stroke-linecap:round;stroke-linejoin:round; " /></a><a ewd:code="FUSE29" ewd:figID="26" ewd:figtype="rb" style="cursor:pointer;"><path d=" M   939.09,   294.99  L   939.09,   320.48  L   981.59,   320.48  L   981.59,   294.99  L   939.09,   294.99 " style="fill:#CCECF4;stroke:#000000; stroke-width:0; stroke-linecap:round;stroke-linejoin:round; " /></a><a ewd:code="FUSE30" ewd:figID="27" ewd:figtype="rb" style="cursor:pointer;"><path d=" M   939.09,   337.48  L   939.09,   362.97  L   981.59,   362.97  L   981.59,   337.48  L   939.09,   337.48 " style="fill:#CCECF4;stroke:#000000; stroke-width:0; stroke-linecap:round;stroke-linejoin:round; " /></a><a ewd:code="L21" ewd:figID="28" ewd:figtype="conn" style="cursor:pointer;"><path d=" M  1614.73,   171.76  L  1674.22,   171.76  L  1674.22,    52.78  L  1614.73,    52.78  L  1614.73,   171.76 " style="fill:#CCECF4;stroke:#000000; stroke-width:1.133; stroke-linecap:round;stroke-linejoin:round; " /><title ewd:textID="22">Ignition or Starter Switch Assembly</title></a><a ewd:code="2" ewd:figID="29" ewd:figtype="rb" style="cursor:pointer;"><path d=" M  1249.29,    78.27  L  1249.29,   120.77  L  1283.29,   120.77  L  1283.29,    78.27  L  1249.29,    78.27 " style="fill:#CCECF4;stroke:#000000; stroke-width:0; stroke-linecap:round;stroke-linejoin:round; " /></a><a ewd:code="FUSE32" ewd:figID="30" ewd:figtype="rb" style="cursor:pointer;"><path d=" M  1325.78,    74.02  L  1325.78,    99.52  L  1368.27,    99.52  L  1368.27,    74.02  L  1325.78,    74.02 " style="fill:#CCECF4;stroke:#000000; stroke-width:0; stroke-linecap:round;stroke-linejoin:round; " /></a><a ewd:code="FUSE23" ewd:figID="31" ewd:figtype="rb" style="cursor:pointer;"><path d=" M  1325.78,   116.52  L  1325.78,   142.01  L  1368.27,   142.01  L  1368.27,   116.52  L  1325.78,   116.52 " style="fill:#CCECF4;stroke:#000000; stroke-width:0; stroke-linecap:round;stroke-linejoin:round; " /></a><a ewd:code="FUSE26" ewd:figID="32" ewd:figtype="rb" style="cursor:pointer;"><path d=" M  1325.78,   159.01  L  1325.78,   184.50  L  1368.27,   184.50  L  1368.27,   159.01  L  1325.78,   159.01 " style="fill:#CCECF4;stroke:#000000; stroke-width:0; stroke-linecap:round;stroke-linejoin:round; " /></a><a ewd:code="FUSE33" ewd:figID="33" ewd:figtype="rb" style="cursor:pointer;"><path d=" M  1325.78,   201.50  L  1325.78,   227.00  L  1368.27,   227.00  L  1368.27,   201.50  L  1325.78,   201.50 " style="fill:#CCECF4;stroke:#000000; stroke-width:0; stroke-linecap:round;stroke-linejoin:round; " /></a><a ewd:code="2" ewd:figID="34" ewd:figtype="rb" style="cursor:pointer;"><path d=" M  1249.29,   307.73  L  1249.29,   350.23  L  1283.29,   350.23  L  1283.29,   307.73  L  1249.29,   307.73 " style="fill:#CCECF4;stroke:#000000; stroke-width:0; stroke-linecap:round;stroke-linejoin:round; " /></a><a ewd:code="FUSE25" ewd:figID="35" ewd:figtype="rb" style="cursor:pointer;"><path d=" M  1325.78,   303.48  L  1325.78,   328.98  L  1368.27,   328.98  L  1368.27,   303.48  L  1325.78,   303.48 " style="fill:#CCECF4;stroke:#000000; stroke-width:0; stroke-linecap:round;stroke-linejoin:round; " /></a><a ewd:code="FUSE32" ewd:figID="36" ewd:figtype="rb" style="cursor:pointer;"><path d=" M  1325.78,   345.98  L  1325.78,   371.47  L  1368.27,   371.47  L  1368.27,   345.98  L  1325.78,   345.98 " style="fill:#CCECF4;stroke:#000000; stroke-width:0; stroke-linecap:round;stroke-linejoin:round; " /></a><a ewd:code="FUSE35" ewd:figID="37" ewd:figtype="rb" style="cursor:pointer;"><path d=" M  1325.78,   388.47  L  1325.78,   413.97  L  1368.27,   413.97  L  1368.27,   388.47  L  1325.78,   388.47 " style="fill:#CCECF4;stroke:#000000; stroke-width:0; stroke-linecap:round;stroke-linejoin:round; " /></a><a ewd:code="2" ewd:figID="38" ewd:figtype="rb" style="cursor:pointer;"><path d=" M  1946.17,   384.22  L  1946.17,   426.71  L  1980.17,   426.71  L  1980.17,   384.22  L  1946.17,   384.22 " style="fill:#CCECF4;stroke:#000000; stroke-width:0; stroke-linecap:round;stroke-linejoin:round; " /></a><a ewd:code="FUSE3" ewd:figID="39" ewd:figtype="rb" style="cursor:pointer;"><path d=" M  1946.17,   184.50  L  1946.17,   210.00  L  1988.67,   210.00  L  1988.67,   184.50  L  1946.17,   184.50 " style="fill:#CCECF4;stroke:#000000; stroke-width:0; stroke-linecap:round;stroke-linejoin:round; " /></a><a ewd:code="FUSE1" ewd:figID="40" ewd:figtype="rb" style="cursor:pointer;"><path d=" M  1946.17,    99.52  L  1946.17,   125.01  L  1988.67,   125.01  L  1988.67,    99.52  L  1946.17,    99.52 " style="fill:#CCECF4;stroke:#000000; stroke-width:0; stroke-linecap:round;stroke-linejoin:round; " /></a><a ewd:code="FUSE22" ewd:figID="41" ewd:figtype="rb" style="cursor:pointer;"><path d=" M  1946.17,    57.03  L  1946.17,    82.52  L  1988.67,    82.52  L  1988.67,    57.03  L  1946.17,    57.03 " style="fill:#CCECF4;stroke:#000000; stroke-width:0; stroke-linecap:round;stroke-linejoin:round; " /></a><a ewd:code="2" ewd:figID="42" ewd:figtype="rb" style="cursor:pointer;"><path d=" M  2413.60,   180.26  L  2413.60,   222.75  L  2447.59,   222.75  L  2447.59,   180.26  L  2413.60,   180.26 " style="fill:#CCECF4;stroke:#000000; stroke-width:0; stroke-linecap:round;stroke-linejoin:round; " /></a><a ewd:code="2" ewd:figID="43" ewd:figtype="rb" style="cursor:pointer;"><path d=" M  2413.60,   282.24  L  2413.60,   324.73  L  2447.59,   324.73  L  2447.59,   282.24  L  2413.60,   282.24 " style="fill:#CCECF4;stroke:#000000; stroke-width:0; stroke-linecap:round;stroke-linejoin:round; " /></a><a ewd:code="2" ewd:figID="44" ewd:figtype="rb" style="cursor:pointer;"><path d=" M  2320.11,   579.69  L  2354.11,   579.69  L  2354.11,   596.69  L  2320.11,   596.69  L  2320.11,   579.69 " style="fill:#CCECF4;stroke:#000000; stroke-width:0; stroke-linecap:round;stroke-linejoin:round; " /></a><a ewd:code="FUSE5" ewd:figID="45" ewd:figtype="rb" style="cursor:pointer;"><path d=" M  2430.59,   490.45  L  2430.59,   515.95  L  2473.09,   515.95  L  2473.09,   490.45  L  2430.59,   490.45 " style="fill:#CCECF4;stroke:#000000; stroke-width:0; stroke-linecap:round;stroke-linejoin:round; " /></a><a ewd:code="FUSE6" ewd:figID="46" ewd:figtype="rb" style="cursor:pointer;"><path d=" M  2430.59,   532.95  L  2430.59,   558.44  L  2473.09,   558.44  L  2473.09,   532.95  L  2430.59,   532.95 " style="fill:#CCECF4;stroke:#000000; stroke-width:0; stroke-linecap:round;stroke-linejoin:round; " /></a><a ewd:code="FUSE27" ewd:figID="47" ewd:figtype="rb" style="cursor:pointer;"><path d=" M  2430.59,   575.44  L  2430.59,   600.93  L  2473.09,   600.93  L  2473.09,   575.44  L  2430.59,   575.44 " style="fill:#CCECF4;stroke:#000000; stroke-width:0; stroke-linecap:round;stroke-linejoin:round; " /></a><a ewd:code="2" ewd:figID="48" ewd:figtype="rb" style="cursor:pointer;"><path d=" M  2430.59,   630.68  L  2430.59,   673.17  L  2464.59,   673.17  L  2464.59,   630.68  L  2430.59,   630.68 " style="fill:#CCECF4;stroke:#000000; stroke-width:0; stroke-linecap:round;stroke-linejoin:round; " /></a><a ewd:code="FUSE16" ewd:figID="49" ewd:figtype="rb" style="cursor:pointer;"><path d=" M  2821.53,    82.52  L  2821.53,   108.02  L  2864.02,   108.02  L  2864.02,    82.52  L  2821.53,    82.52 " style="fill:#CCECF4;stroke:#000000; stroke-width:0; stroke-linecap:round;stroke-linejoin:round; " /></a><a ewd:code="FUSE17" ewd:figID="50" ewd:figtype="rb" style="cursor:pointer;"><path d=" M  2821.53,   125.01  L  2821.53,   150.51  L  2864.02,   150.51  L  2864.02,   125.01  L  2821.53,   125.01 " style="fill:#CCECF4;stroke:#000000; stroke-width:0; stroke-linecap:round;stroke-linejoin:round; " /></a><a ewd:code="FUSE18" ewd:figID="51" ewd:figtype="rb" style="cursor:pointer;"><path d=" M  2821.53,   176.01  L  2821.53,   201.50  L  2864.02,   201.50  L  2864.02,   176.01  L  2821.53,   176.01 " style="fill:#CCECF4;stroke:#000000; stroke-width:0; stroke-linecap:round;stroke-linejoin:round; " /></a><a ewd:code="FUSE21" ewd:figID="52" ewd:figtype="rb" style="cursor:pointer;"><path d=" M  2821.53,   235.50  L  2821.53,   260.99  L  2864.02,   260.99  L  2864.02,   235.50  L  2821.53,   235.50 " style="fill:#CCECF4;stroke:#000000; stroke-width:0; stroke-linecap:round;stroke-linejoin:round; " /></a><a ewd:code="FUSE19" ewd:figID="53" ewd:figtype="rb" style="cursor:pointer;"><path d=" M  2821.53,   277.99  L  2821.53,   303.48  L  2864.02,   303.48  L  2864.02,   277.99  L  2821.53,   277.99 " style="fill:#CCECF4;stroke:#000000; stroke-width:0; stroke-linecap:round;stroke-linejoin:round; " /></a><a ewd:code="FUSE37" ewd:figID="54" ewd:figtype="rb" style="cursor:pointer;"><path d=" M  2821.53,   328.98  L  2821.53,   354.48  L  2864.02,   354.48  L  2864.02,   328.98  L  2821.53,   328.98 " style="fill:#CCECF4;stroke:#000000; stroke-width:0; stroke-linecap:round;stroke-linejoin:round; " /></a><a ewd:code="FUSE24" ewd:figID="55" ewd:figtype="rb" style="cursor:pointer;"><path d=" M  2821.53,   371.47  L  2821.53,   396.97  L  2864.02,   396.97  L  2864.02,   371.47  L  2821.53,   371.47 " style="fill:#CCECF4;stroke:#000000; stroke-width:0; stroke-linecap:round;stroke-linejoin:round; " /></a><a ewd:code="I19" ewd:figID="56" ewd:figtype="conn" style="cursor:pointer;"><path d=" M   841.36,   418.22  L   841.36,   384.22  L   824.36,   384.22  L   824.36,   418.22  L   841.36,   418.22 " style="fill:#CCECF4;stroke:#000000; stroke-width:1.133; stroke-linecap:round;stroke-linejoin:round; " /><title ewd:textID="23">Stop Light Switch Assembly</title></a><a ewd:code="FUSE8" ewd:figID="57" ewd:figtype="rb" style="cursor:pointer;"><path d=" M  1674.22,   371.47  L  1674.22,   396.97  L  1716.71,   396.97  L  1716.71,   371.47  L  1674.22,   371.47 " style="fill:#CCECF4;stroke:#000000; stroke-width:0; stroke-linecap:round;stroke-linejoin:round; " /></a><a ewd:code="FUSE7" ewd:figID="58" ewd:figtype="rb" style="cursor:pointer;"><path d=" M  1674.22,   328.98  L  1674.22,   354.48  L  1716.71,   354.48  L  1716.71,   328.98  L  1674.22,   328.98 " style="fill:#CCECF4;stroke:#000000; stroke-width:0; stroke-linecap:round;stroke-linejoin:round; " /></a><a ewd:code="FUSE35" ewd:figID="59" ewd:figtype="rb" style="cursor:pointer;"><path d=" M  1946.17,   142.01  L  1946.17,   167.51  L  1988.67,   167.51  L  1988.67,   142.01  L  1946.17,   142.01 " style="fill:#CCECF4;stroke:#000000; stroke-width:0; stroke-linecap:round;stroke-linejoin:round; " /></a><a ewd:code="FUSE51" ewd:figID="60" ewd:figtype="rb" style="cursor:pointer;"><path d=" M   263.46,   337.48  L   263.46,   362.97  L   305.95,   362.97  L   305.95,   337.48  L   263.46,   337.48 " style="fill:#CCECF4;stroke:#000000; stroke-width:0; stroke-linecap:round;stroke-linejoin:round; " /></a><a ewd:code="FUSE15" ewd:figID="61" ewd:figtype="rb" style="cursor:pointer;"><path d=" M  2821.53,    40.03  L  2821.53,    65.52  L  2864.02,    65.52  L  2864.02,    40.03  L  2821.53,    40.03 " style="fill:#CCECF4;stroke:#000000; stroke-width:0; stroke-linecap:round;stroke-linejoin:round; " /></a><a ewd:code="FUSE14" ewd:figID="62" ewd:figtype="rb" style="cursor:pointer;"><path d=" M  1240.79,   388.47  L  1240.79,   413.97  L  1283.29,   413.97  L  1283.29,   388.47  L  1240.79,   388.47 " style="fill:#CCECF4;stroke:#000000; stroke-width:0; stroke-linecap:round;stroke-linejoin:round; " /></a><a ewd:code="4" ewd:figID="83" ewd:figtype="jb" style="cursor:pointer;"><path d=" M   220.96,   248.24  L   220.96,   273.74  L   233.71,   273.74  L   233.71,   248.24  L   220.96,   248.24  " style="&st4; " /></a><a ewd:code="4" ewd:figID="84" ewd:figtype="jb" style="cursor:pointer;"><path d=" M   220.96,   290.74  L   220.96,   316.23  L   233.71,   316.23  L   233.71,   290.74  L   220.96,   290.74  " style="&st4; " /></a><a ewd:code="3" ewd:figID="85" ewd:figtype="jb" style="cursor:pointer;"><path d=" M    93.48,    18.78  L    93.48,   231.25  L   339.94,   231.25  L   339.94,    18.78  L    93.48,    18.78  " style="&st4; " /></a><a ewd:code="FUSE44" ewd:figID="128" ewd:figtype="fuse" style="cursor:pointer;"><path d=" M   144.48,   201.50  L   144.48,   227.00  L   186.97,   227.00  L   186.97,   201.50  L   144.48,   201.50 " style="&st7; stroke-width:0;" /></a><a ewd:code="FUSE43" ewd:figID="129" ewd:figtype="fuse" style="cursor:pointer;"><path d=" M   144.48,   159.01  L   144.48,   184.50  L   186.97,   184.50  L   186.97,   159.01  L   144.48,   159.01 " style="&st7; stroke-width:0;" /></a><a ewd:code="FUSE45,FUSE46" ewd:figID="130" ewd:figtype="fuse" style="cursor:pointer;"><path d=" M   144.48,   116.52  L   144.48,   142.01  L   186.97,   142.01  L   186.97,   116.52  L   144.48,   116.52 " style="&st7; stroke-width:0;" /></a><a ewd:code="FUSE39" ewd:figID="131" ewd:figtype="fuse" style="cursor:pointer;"><path d=" M   254.96,   201.50  L   254.96,   227.00  L   297.45,   227.00  L   297.45,   201.50  L   254.96,   201.50 " style="&st7; stroke-width:0;" /></a><a ewd:code="FUSE42" ewd:figID="132" ewd:figtype="fuse" style="cursor:pointer;"><path d=" M   254.96,   159.01  L   254.96,   184.50  L   297.45,   184.50  L   297.45,   159.01  L   254.96,   159.01 " style="&st7; stroke-width:0;" /></a><a ewd:code="FUSE41" ewd:figID="133" ewd:figtype="fuse" style="cursor:pointer;"><path d=" M   254.96,   116.52  L   254.96,   142.01  L   297.45,   142.01  L   297.45,   116.52  L   254.96,   116.52 " style="&st7; stroke-width:0;" /></a><a ewd:code="FUSE40" ewd:figID="134" ewd:figtype="fuse" style="cursor:pointer;"><path d=" M   254.96,    74.02  L   254.96,    99.52  L   297.45,    99.52  L   297.45,    74.02  L   254.96,    74.02 " style="&st7; stroke-width:0;" /></a><a ewd:code="FUSE38" ewd:figID="135" ewd:figtype="fuse" style="cursor:pointer;"><path d=" M   254.96,    31.53  L   254.96,    57.03  L   297.45,    57.03  L   297.45,    31.53  L   254.96,    31.53 " style="&st7; stroke-width:0;" /></a><a ewd:code="FUSE57" ewd:figID="136" ewd:figtype="fuse" style="cursor:pointer;"><path d=" M   263.46,   677.42  L   263.46,   702.92  L   305.95,   702.92  L   305.95,   677.42  L   263.46,   677.42 " style="&st7; stroke-width:0;" /></a><a ewd:code="FUSE60" ewd:figID="137" ewd:figtype="fuse" style="cursor:pointer;"><path d=" M   263.46,   634.93  L   263.46,   660.42  L   305.95,   660.42  L   305.95,   634.93  L   263.46,   634.93 " style="&st7; stroke-width:0;" /></a><a ewd:code="FUSE59" ewd:figID="138" ewd:figtype="fuse" style="cursor:pointer;"><path d=" M   263.46,   592.44  L   263.46,   617.93  L   305.95,   617.93  L   305.95,   592.44  L   263.46,   592.44 " style="&st7; stroke-width:0;" /></a><a ewd:code="FUSE58" ewd:figID="139" ewd:figtype="fuse" style="cursor:pointer;"><path d=" M   263.46,   549.94  L   263.46,   575.44  L   305.95,   575.44  L   305.95,   549.94  L   263.46,   549.94 " style="&st7; stroke-width:0;" /></a><a ewd:code="FUSE54" ewd:figID="140" ewd:figtype="fuse" style="cursor:pointer;"><path d=" M   263.46,   507.45  L   263.46,   532.95  L   305.95,   532.95  L   305.95,   507.45  L   263.46,   507.45 " style="&st7; stroke-width:0;" /></a><a ewd:code="FUSE47" ewd:figID="141" ewd:figtype="fuse" style="cursor:pointer;"><path d=" M   263.46,   464.96  L   263.46,   490.45  L   305.95,   490.45  L   305.95,   464.96  L   263.46,   464.96 " style="&st7; stroke-width:0;" /></a><a ewd:code="FUSE56" ewd:figID="142" ewd:figtype="fuse" style="cursor:pointer;"><path d=" M   263.46,   422.46  L   263.46,   447.96  L   305.95,   447.96  L   305.95,   422.46  L   263.46,   422.46 " style="&st7; stroke-width:0;" /></a><a ewd:code="FUSE50" ewd:figID="143" ewd:figtype="fuse" style="cursor:pointer;"><path d=" M   263.46,   379.97  L   263.46,   405.47  L   305.95,   405.47  L   305.95,   379.97  L   263.46,   379.97 " style="&st7; stroke-width:0;" /></a><a ewd:code="FUSE51" ewd:figID="144" ewd:figtype="fuse" style="cursor:pointer;"><path d=" M   263.46,   337.48  L   263.46,   362.97  L   305.95,   362.97  L   305.95,   337.48  L   263.46,   337.48 " style="&st7; stroke-width:0;" /></a><a ewd:code="FUSE53" ewd:figID="145" ewd:figtype="fuse" style="cursor:pointer;"><path d=" M   263.46,   294.99  L   263.46,   320.48  L   305.95,   320.48  L   305.95,   294.99  L   263.46,   294.99 " style="&st7; stroke-width:0;" /></a><a ewd:code="FUSE52" ewd:figID="146" ewd:figtype="fuse" style="cursor:pointer;"><path d=" M   263.46,   252.49  L   263.46,   277.99  L   305.95,   277.99  L   305.95,   252.49  L   263.46,   252.49 " style="&st7; stroke-width:0;" /></a><a ewd:code="FUSE36" ewd:figID="147" ewd:figtype="fuse" style="cursor:pointer;"><path d=" M   688.38,   439.46  L   688.38,   464.96  L   730.88,   464.96  L   730.88,   439.46  L   688.38,   439.46 " style="&st7; stroke-width:0;" /></a><a ewd:code="FUSE2" ewd:figID="148" ewd:figtype="fuse" style="cursor:pointer;"><path d=" M   688.38,   396.97  L   688.38,   422.46  L   730.88,   422.46  L   730.88,   396.97  L   688.38,   396.97 " style="&st7; stroke-width:0;" /></a><a ewd:code="FUSE31" ewd:figID="149" ewd:figtype="fuse" style="cursor:pointer;"><path d=" M   688.38,   354.48  L   688.38,   379.97  L   730.88,   379.97  L   730.88,   354.48  L   688.38,   354.48 " style="&st7; stroke-width:0;" /></a><a ewd:code="FUSE4" ewd:figID="150" ewd:figtype="fuse" style="cursor:pointer;"><path d=" M   926.35,   243.99  L   926.35,   269.49  L   968.84,   269.49  L   968.84,   243.99  L   926.35,   243.99 " style="&st7; stroke-width:0;" /></a><a ewd:code="FUSE30" ewd:figID="151" ewd:figtype="fuse" style="cursor:pointer;"><path d=" M   939.09,   337.48  L   939.09,   362.97  L   981.59,   362.97  L   981.59,   337.48  L   939.09,   337.48 " style="&st7; stroke-width:0;" /></a><a ewd:code="FUSE29" ewd:figID="152" ewd:figtype="fuse" style="cursor:pointer;"><path d=" M   939.09,   294.99  L   939.09,   320.48  L   981.59,   320.48  L   981.59,   294.99  L   939.09,   294.99 " style="&st7; stroke-width:0;" /></a><a ewd:code="FUSE14" ewd:figID="153" ewd:figtype="fuse" style="cursor:pointer;"><path d=" M  1240.79,   388.47  L  1240.79,   413.97  L  1283.29,   413.97  L  1283.29,   388.47  L  1240.79,   388.47 " style="&st7; stroke-width:0;" /></a><a ewd:code="FUSE35" ewd:figID="154" ewd:figtype="fuse" style="cursor:pointer;"><path d=" M  1325.78,   388.47  L  1325.78,   413.97  L  1368.27,   413.97  L  1368.27,   388.47  L  1325.78,   388.47 " style="&st7; stroke-width:0;" /></a><a ewd:code="FUSE32" ewd:figID="155" ewd:figtype="fuse" style="cursor:pointer;"><path d=" M  1325.78,   345.98  L  1325.78,   371.47  L  1368.27,   371.47  L  1368.27,   345.98  L  1325.78,   345.98 " style="&st7; stroke-width:0;" /></a><a ewd:code="FUSE25" ewd:figID="156" ewd:figtype="fuse" style="cursor:pointer;"><path d=" M  1325.78,   303.48  L  1325.78,   328.98  L  1368.27,   328.98  L  1368.27,   303.48  L  1325.78,   303.48 " style="&st7; stroke-width:0;" /></a><a ewd:code="FUSE33" ewd:figID="157" ewd:figtype="fuse" style="cursor:pointer;"><path d=" M  1325.78,   201.50  L  1325.78,   227.00  L  1368.27,   227.00  L  1368.27,   201.50  L  1325.78,   201.50 " style="&st7; stroke-width:0;" /></a><a ewd:code="FUSE26" ewd:figID="158" ewd:figtype="fuse" style="cursor:pointer;"><path d=" M  1325.78,   159.01  L  1325.78,   184.50  L  1368.27,   184.50  L  1368.27,   159.01  L  1325.78,   159.01 " style="&st7; stroke-width:0;" /></a><a ewd:code="FUSE23" ewd:figID="159" ewd:figtype="fuse" style="cursor:pointer;"><path d=" M  1325.78,   116.52  L  1325.78,   142.01  L  1368.27,   142.01  L  1368.27,   116.52  L  1325.78,   116.52 " style="&st7; stroke-width:0;" /></a><a ewd:code="FUSE32" ewd:figID="160" ewd:figtype="fuse" style="cursor:pointer;"><path d=" M  1325.78,    74.02  L  1325.78,    99.52  L  1368.27,    99.52  L  1368.27,    74.02  L  1325.78,    74.02 " style="&st7; stroke-width:0;" /></a><a ewd:code="FUSE8" ewd:figID="161" ewd:figtype="fuse" style="cursor:pointer;"><path d=" M  1674.22,   371.47  L  1674.22,   396.97  L  1716.71,   396.97  L  1716.71,   371.47  L  1674.22,   371.47 " style="&st7; stroke-width:0;" /></a><a ewd:code="FUSE7" ewd:figID="162" ewd:figtype="fuse" style="cursor:pointer;"><path d=" M  1674.22,   328.98  L  1674.22,   354.48  L  1716.71,   354.48  L  1716.71,   328.98  L  1674.22,   328.98 " style="&st7; stroke-width:0;" /></a><a ewd:code="FUSE3" ewd:figID="163" ewd:figtype="fuse" style="cursor:pointer;"><path d=" M  1946.17,   184.50  L  1946.17,   210.00  L  1988.67,   210.00  L  1988.67,   184.50  L  1946.17,   184.50 " style="&st7; stroke-width:0;" /></a><a ewd:code="FUSE35" ewd:figID="164" ewd:figtype="fuse" style="cursor:pointer;"><path d=" M  1946.17,   142.01  L  1946.17,   167.51  L  1988.67,   167.51  L  1988.67,   142.01  L  1946.17,   142.01 " style="&st7; stroke-width:0;" /></a><a ewd:code="FUSE1" ewd:figID="165" ewd:figtype="fuse" style="cursor:pointer;"><path d=" M  1946.17,    99.52  L  1946.17,   125.01  L  1988.67,   125.01  L  1988.67,    99.52  L  1946.17,    99.52 " style="&st7; stroke-width:0;" /></a><a ewd:code="FUSE22" ewd:figID="166" ewd:figtype="fuse" style="cursor:pointer;"><path d=" M  1946.17,    57.03  L  1946.17,    82.52  L  1988.67,    82.52  L  1988.67,    57.03  L  1946.17,    57.03 " style="&st7; stroke-width:0;" /></a><a ewd:code="FUSE27" ewd:figID="167" ewd:figtype="fuse" style="cursor:pointer;"><path d=" M  2430.59,   575.44  L  2430.59,   600.93  L  2473.09,   600.93  L  2473.09,   575.44  L  2430.59,   575.44 " style="&st7; stroke-width:0;" /></a><a ewd:code="FUSE6" ewd:figID="168" ewd:figtype="fuse" style="cursor:pointer;"><path d=" M  2430.59,   532.95  L  2430.59,   558.44  L  2473.09,   558.44  L  2473.09,   532.95  L  2430.59,   532.95 " style="&st7; stroke-width:0;" /></a><a ewd:code="FUSE5" ewd:figID="169" ewd:figtype="fuse" style="cursor:pointer;"><path d=" M  2430.59,   490.45  L  2430.59,   515.95  L  2473.09,   515.95  L  2473.09,   490.45  L  2430.59,   490.45 " style="&st7; stroke-width:0;" /></a><a ewd:code="FUSE34" ewd:figID="170" ewd:figtype="fuse" style="cursor:pointer;"><path d=" M  2821.53,   456.46  L  2821.53,   481.95  L  2864.02,   481.95  L  2864.02,   456.46  L  2821.53,   456.46 " style="&st7; stroke-width:0;" /></a><a ewd:code="FUSE28" ewd:figID="171" ewd:figtype="fuse" style="cursor:pointer;"><path d=" M  2821.53,   413.97  L  2821.53,   439.46  L  2864.02,   439.46  L  2864.02,   413.97  L  2821.53,   413.97 " style="&st7; stroke-width:0;" /></a><a ewd:code="FUSE24" ewd:figID="172" ewd:figtype="fuse" style="cursor:pointer;"><path d=" M  2821.53,   371.47  L  2821.53,   396.97  L  2864.02,   396.97  L  2864.02,   371.47  L  2821.53,   371.47 " style="&st7; stroke-width:0;" /></a><a ewd:code="FUSE37" ewd:figID="173" ewd:figtype="fuse" style="cursor:pointer;"><path d=" M  2821.53,   328.98  L  2821.53,   354.48  L  2864.02,   354.48  L  2864.02,   328.98  L  2821.53,   328.98 " style="&st7; stroke-width:0;" /></a><a ewd:code="FUSE19" ewd:figID="174" ewd:figtype="fuse" style="cursor:pointer;"><path d=" M  2821.53,   277.99  L  2821.53,   303.48  L  2864.02,   303.48  L  2864.02,   277.99  L  2821.53,   277.99 " style="&st7; stroke-width:0;" /></a><a ewd:code="FUSE21" ewd:figID="175" ewd:figtype="fuse" style="cursor:pointer;"><path d=" M  2821.53,   235.50  L  2821.53,   260.99  L  2864.02,   260.99  L  2864.02,   235.50  L  2821.53,   235.50 " style="&st7; stroke-width:0;" /></a><a ewd:code="FUSE18" ewd:figID="176" ewd:figtype="fuse" style="cursor:pointer;"><path d=" M  2821.53,   176.01  L  2821.53,   201.50  L  2864.02,   201.50  L  2864.02,   176.01  L  2821.53,   176.01 " style="&st7; stroke-width:0;" /></a><a ewd:code="FUSE17" ewd:figID="177" ewd:figtype="fuse" style="cursor:pointer;"><path d=" M  2821.53,   125.01  L  2821.53,   150.51  L  2864.02,   150.51  L  2864.02,   125.01  L  2821.53,   125.01 " style="&st7; stroke-width:0;" /></a><a ewd:code="FUSE16" ewd:figID="178" ewd:figtype="fuse" style="cursor:pointer;"><path d=" M  2821.53,    82.52  L  2821.53,   108.02  L  2864.02,   108.02  L  2864.02,    82.52  L  2821.53,    82.52 " style="&st7; stroke-width:0;" /></a><a ewd:code="FUSE15" ewd:figID="179" ewd:figtype="fuse" style="cursor:pointer;"><path d=" M  2821.53,    40.03  L  2821.53,    65.52  L  2864.02,    65.52  L  2864.02,    40.03  L  2821.53,    40.03 " style="&st7; stroke-width:0;" /></a><a ewd:code="FUSE10" ewd:figID="180" ewd:figtype="fuse" style="cursor:pointer;"><path d=" M  2966.00,   668.92  L  2966.00,   694.42  L  3008.50,   694.42  L  3008.50,   668.92  L  2966.00,   668.92 " style="&st7; stroke-width:0;" /></a><a ewd:code="FUSE11" ewd:figID="181" ewd:figtype="fuse" style="cursor:pointer;"><path d=" M  2966.00,   626.43  L  2966.00,   651.93  L  3008.50,   651.93  L  3008.50,   626.43  L  2966.00,   626.43 " style="&st7; stroke-width:0;" /></a><a ewd:code="FUSE12" ewd:figID="182" ewd:figtype="fuse" style="cursor:pointer;"><path d=" M  2966.00,   583.94  L  2966.00,   609.43  L  3008.50,   609.43  L  3008.50,   583.94  L  2966.00,   583.94 " style="&st7; stroke-width:0;" /></a><a ewd:code="FUSE13" ewd:figID="183" ewd:figtype="fuse" style="cursor:pointer;"><path d=" M  2966.00,   541.44  L  2966.00,   566.94  L  3008.50,   566.94  L  3008.50,   541.44  L  2966.00,   541.44 " style="&st7; stroke-width:0;" /></a><a ewd:comment="5" ewd:lineID="1" style="cursor:pointer;"><path d=" M    50.99,   597.25  L    50.99,   605.18  L    42.49,   613.68  L    17.00,   613.68  L    17.00,   681.67  " style="stroke:#000000;stroke-width: 5.10 ;&st6;" /><path d=" M    50.99,   597.25  L    50.99,   605.18  L    42.49,   613.68  L    17.00,   613.68  L    17.00,   681.67  " style="stroke:#FFFFFF;stroke-width: 2.27 ;&st6;" /><path d=" M    50.99,   597.25  L    50.99,   605.18  L    42.49,   613.68  L    17.00,   613.68  L    17.00,   681.67  " style="stroke:#666666;stroke-width: 1.13 ;&st6;" /></a><a ewd:comment="5" ewd:lineID="2" style="cursor:pointer;"><path d=" M    50.99,   597.25  L    50.99,   681.67  " style="stroke:#000000;stroke-width: 5.10 ;&st6;" /><path d=" M    50.99,   597.25  L    50.99,   681.67  " style="stroke:#FFFFFF;stroke-width: 2.27 ;&st6;" /><path d=" M    50.99,   597.25  L    50.99,   681.67  " style="stroke:#666666;stroke-width: 1.13 ;&st6;" /></a><a ewd:comment="3" ewd:lineID="3" style="cursor:pointer;"><path d=" M    50.99,   469.77  L    50.99,   486.20  L   127.48,   486.20  L   127.48,   519.63  " style="stroke:#000000;stroke-width: 5.10 ;&st6;" /></a><a ewd:comment="3" ewd:lineID="4" style="cursor:pointer;"><path d=" M    50.99,   341.73  L    50.99,   282.24  L   203.97,   282.24  L   203.97,   299.24  L   212.46,   307.73  L   220.96,   307.73  " style="stroke:#000000;stroke-width: 5.10 ;&st6;" /><path d=" M    50.99,   341.73  L    50.99,   282.24  L   203.97,   282.24  L   203.97,   299.24  L   212.46,   307.73  L   220.96,   307.73  " style="stroke:#FFFFFF;stroke-width: 2.27 ;&st6;" /><path d=" M    50.99,   341.73  L    50.99,   282.24  L   203.97,   282.24  L   203.97,   299.24  L   212.46,   307.73  L   220.96,   307.73  " style="stroke:#00A0C6;stroke-width: 1.13 ;&st6;" /></a><a ewd:comment="1" ewd:lineID="5" style="cursor:pointer;"><path d=" M   101.98,   597.25  L   101.98,   681.67  " style="stroke:#000000;stroke-width: 5.10 ;&st6;" /><path d=" M   101.98,   597.25  L   101.98,   681.67  " style="stroke:#FFFFFF;stroke-width: 2.27 ;&st6;" /><path d=" M   101.98,   597.25  L   101.98,   681.67  " style="stroke:#666666;stroke-width: 1.13 ;&st6;" /></a><a ewd:comment="5" ewd:lineID="6" style="cursor:pointer;"><path d=" M   101.98,   519.63  L   101.98,   503.20  L    50.99,   503.20  L    50.99,   519.63  " style="stroke:#000000;stroke-width: 5.10 ;&st6;" /></a><a ewd:lineID="7" style="cursor:pointer;"><path d=" M   152.97,   597.25  L   152.97,   681.67  " style="stroke:#000000;stroke-width: 5.10 ;&st6;" /><path d=" M   152.97,   597.25  L   152.97,   681.67  " style="stroke:#FFFFFF;stroke-width: 2.27 ;&st6;" /><path d=" M   152.97,   597.25  L   152.97,   681.67  " style="stroke:#666666;stroke-width: 1.13 ;&st6;" /></a><a ewd:comment="3,9" ewd:lineID="8" style="cursor:pointer;"><path d=" M   186.97,   597.25  L   186.97,   681.67  " style="stroke:#000000;stroke-width: 5.10 ;&st6;" /><path d=" M   186.97,   597.25  L   186.97,   681.67  " style="stroke:#FFFFFF;stroke-width: 2.27 ;&st6;" /><path d=" M   186.97,   597.25  L   186.97,   681.67  " style="stroke:#666666;stroke-width: 1.13 ;&st6;" /></a><a ewd:comment="4,5" ewd:lineID="9" style="cursor:pointer;"><path d=" M   220.96,   307.73  L   152.97,   307.73  L   152.97,   401.22  " style="stroke:#000000;stroke-width: 5.10 ;&st6;" /><path d=" M   220.96,   307.73  L   152.97,   307.73  L   152.97,   401.22  " style="stroke:#FFFFFF;stroke-width: 2.27 ;&st6;" /><path d=" M   220.96,   307.73  L   152.97,   307.73  L   152.97,   401.22  " style="stroke:#00A0C6;stroke-width: 1.13 ;&st6;" /></a><a ewd:lineID="10" style="cursor:pointer;"><path d=" M   220.96,   265.24  L    76.49,   265.24  L    76.49,   129.26  L    93.48,   129.26  " style="stroke:#000000;stroke-width: 5.10 ;&st6;" /><path d=" M   220.96,   265.24  L    76.49,   265.24  L    76.49,   129.26  L    93.48,   129.26  " style="stroke:#FFFFFF;stroke-width: 2.27 ;&st6;" /><path d=" M   220.96,   265.24  L    76.49,   265.24  L    76.49,   129.26  L    93.48,   129.26  " style="stroke:#00A0C6;stroke-width: 1.13 ;&st6;" /></a><a ewd:lineID="11" style="cursor:pointer;"><path d=" M   339.94,   647.68  L   424.93,   647.68  " style="stroke:#000000;stroke-width: 5.10 ;&st6;" /><path d=" M   339.94,   647.68  L   424.93,   647.68  " style="stroke:#FFFFFF;stroke-width: 4.53 ;&st6;" /><path d=" M   339.94,   647.68  L   424.93,   647.68  " style="stroke:#00A0C6;stroke-width: 1.13 ;&st6;" /></a><a ewd:lineID="12" style="cursor:pointer;"><path d=" M   339.94,   605.18  L   424.93,   605.18  " style="stroke:#FF0000;stroke-width: 5.10 ;&st6;" /></a><a ewd:lineID="13" style="cursor:pointer;"><path d=" M   339.94,   562.69  L   373.94,   562.69  " style="stroke:#00A0C6;stroke-width: 5.10 ;&st6;"/></a><a ewd:lineID="14" style="cursor:pointer;"> d=" M   339.94,   214.25  L   373.94,   214.25  L   373.94,   452.21  L   424.93,   452.21 
	
		<path d=" M   339.94,   214.25  L   373.94,   214.25  L   373.94,   452.21  L   424.93,   452.21  " style="stroke:#000000;stroke-width: 5.10 ;&st6;" /><path d=" M   339.94,   214.25  L   373.94,   214.25  L   373.94,   452.21  L   424.93,   452.21  " style="stroke:#FFFFFF;stroke-width: 4.53 ;&st6;" /></a><a ewd:lineID="15" style="cursor:pointer;"><path d=" M   339.94,   171.76  L   390.93,   171.76  L   390.93,   282.24  L   424.93,   282.24  " style="stroke:#000000;stroke-width: 5.10 ;&st6;" /><path d=" M   339.94,   171.76  L   390.93,   171.76  L   390.93,   282.24  L   424.93,   282.24  " style="stroke:#FFFFFF;stroke-width: 4.53 ;&st6;" /><path d=" M   339.94,   171.76  L   390.93,   171.76  L   390.93,   282.24  L   424.93,   282.24  " style="stroke:#FF0000;stroke-width: 1.13 ;&st6;" /></a><a ewd:lineID="16" style="cursor:pointer;"><path d=" M   339.94,    86.77  L   424.93,    86.77  " style="stroke:#00A0C6;stroke-width: 5.10 ;&st6;" /><path d=" M   339.94,    86.77  L   424.93,    86.77  " style="stroke:#FFFFFF;stroke-width: 2.27 ;&st6;" /><path d=" M   339.94,    86.77  L   424.93,    86.77  " style="stroke:#FF0000;stroke-width: 1.13 ;&st6;" /></a><a ewd:lineID="17" style="cursor:pointer;"><path d=" M   339.94,    44.28  L   390.93,    44.28  " style="stroke:#000000;stroke-width: 5.10 ;&st6;" /><path d=" M   339.94,    44.28  L   390.93,    44.28  " style="stroke:#FFFFFF;stroke-width: 2.27 ;&st6;" /><path d=" M   339.94,    44.28  L   390.93,    44.28  " style="stroke:#00A0C6;stroke-width: 1.13 ;&st6;" /></a><a ewd:lineID="18" style="cursor:pointer;"><path d=" M   390.93,   562.69  L   611.90,   562.69  " style="stroke:#00A0C6;stroke-width: 5.10 ;&st6;" /></a><a ewd:lineID="19" style="cursor:pointer;"><path d=" M   424.93,   222.75  L   407.93,   222.75  L   407.93,   129.26  L   339.94,   129.26  " style="stroke:#FF0000;stroke-width: 5.10 ;&st6;" /><path d=" M   424.93,   222.75  L   407.93,   222.75  L   407.93,   129.26  L   339.94,   129.26  " style="stroke:#FFFFFF;stroke-width: 2.27 ;&st6;" /><path d=" M   424.93,   222.75  L   407.93,   222.75  L   407.93,   129.26  L   339.94,   129.26  " style="stroke:#000000;stroke-width: 1.13 ;&st6;" /></a><a ewd:lineID="20" style="cursor:pointer;"><path d=" M   448.16,   282.24  L   637.39,   282.24  " style="stroke:#000000;stroke-width: 5.10 ;&st6;" /><path d=" M   448.16,   282.24  L   637.39,   282.24  " style="stroke:#FFFFFF;stroke-width: 4.53 ;&st6;" /><path d=" M   448.16,   282.24  L   637.39,   282.24  " style="stroke:#FF0000;stroke-width: 1.13 ;&st6;"/></a><a ewd:comment="8" ewd:lineID="21" style="cursor:pointer;"> d=" M   465.44,   452.21  L   577.90,   452.21 
	
		<path d=" M   465.44,   452.21  L   577.90,   452.21  " style="stroke:#000000;stroke-width: 5.10 ;&st6;" /><path d=" M   465.44,   452.21  L   577.90,   452.21  " style="stroke:#FFFFFF;stroke-width: 4.53 ;&st6;"/></a><a ewd:comment="3" ewd:lineID="22" style="cursor:pointer;"> d=" M   465.44,   452.21  L   467.42,   452.21  L   475.92,   460.71  L   475.92,   477.71  L   620.40,   477.71  L   620.40,   460.71  L   628.89,   452.21  L   637.39,   452.21 
	
		<path d=" M   465.44,   452.21  L   467.42,   452.21  L   475.92,   460.71  L   475.92,   477.71  L   620.40,   477.71  L   620.40,   460.71  L   628.89,   452.21  L   637.39,   452.21  " style="stroke:#000000;stroke-width: 5.10 ;&st6;" /><path d=" M   465.44,   452.21  L   467.42,   452.21  L   475.92,   460.71  L   475.92,   477.71  L   620.40,   477.71  L   620.40,   460.71  L   628.89,   452.21  L   637.39,   452.21  " style="stroke:#FFFFFF;stroke-width: 4.53 ;&st6;" /></a><a ewd:comment="8" ewd:lineID="23" style="cursor:pointer;"><path d=" M   465.44,   222.75  L  1121.81,   222.75  L  1121.81,   316.23  L  1215.30,   316.23  " style="stroke:#FF0000;stroke-width: 5.10 ;&st6;" /><path d=" M   465.44,   222.75  L  1121.81,   222.75  L  1121.81,   316.23  L  1215.30,   316.23  " style="stroke:#FFFFFF;stroke-width: 2.27 ;&st6;" /><path d=" M   465.44,   222.75  L  1121.81,   222.75  L  1121.81,   316.23  L  1215.30,   316.23  " style="stroke:#000000;stroke-width: 1.13 ;&st6;" /></a><a ewd:lineID="24" style="cursor:pointer;"><path d=" M   465.44,    86.77  L  1096.32,    86.77  " style="stroke:#00A0C6;stroke-width: 5.10 ;&st6;" /><path d=" M   465.44,    86.77  L  1096.32,    86.77  " style="stroke:#FFFFFF;stroke-width: 2.27 ;&st6;" /><path d=" M   465.44,    86.77  L  1096.32,    86.77  " style="stroke:#FF0000;stroke-width: 1.13 ;&st6;" /></a><a ewd:lineID="25" style="cursor:pointer;"><path d=" M   465.44,    44.28  L  1487.25,    44.28  " style="stroke:#000000;stroke-width: 5.10 ;&st6;" /><path d=" M   465.44,    44.28  L  1487.25,    44.28  " style="stroke:#FFFFFF;stroke-width: 2.27 ;&st6;" /><path d=" M   465.44,    44.28  L  1487.25,    44.28  " style="stroke:#00A0C6;stroke-width: 1.13 ;&st6;"/></a><a ewd:comment="8" ewd:lineID="26" style="cursor:pointer;"> d=" M   594.90,   452.21  L   637.39,   452.21 
	
		<path d=" M   594.90,   452.21  L   637.39,   452.21  " style="stroke:#000000;stroke-width: 5.10 ;&st6;" /><path d=" M   594.90,   452.21  L   637.39,   452.21  " style="stroke:#FFFFFF;stroke-width: 4.53 ;&st6;" /></a><a ewd:comment="1,15,17" ewd:lineID="27" style="cursor:pointer;"><path d=" M   635.13,   562.69  L   637.39,   562.69  L   662.89,   520.20  L  1410.76,   520.20  L  1410.76,   324.73  " style="stroke:#00A0C6;stroke-width: 5.10 ;&st6;" /></a><a ewd:comment="3" ewd:lineID="28" style="cursor:pointer;"><path d=" M   635.13,   562.69  L  1453.26,   562.69  " style="stroke:#00A0C6;stroke-width: 5.10 ;&st6;"/></a><a ewd:comment="8" ewd:lineID="29" style="cursor:pointer;"> d=" M   637.39,   367.22  L   586.40,   367.22  L   586.40,   443.71 
	
		<path d=" M   637.39,   367.22  L   586.40,   367.22  L   586.40,   443.71  " style="stroke:#000000;stroke-width: 5.10 ;&st6;" /><path d=" M   637.39,   367.22  L   586.40,   367.22  L   586.40,   443.71  " style="stroke:#FFFFFF;stroke-width: 4.53 ;&st6;" /></a><a ewd:lineID="30" style="cursor:pointer;"><path d=" M   756.37,   282.24  L   798.87,   282.24  " style="stroke:#00A0C6;stroke-width: 5.10 ;&st6;" /></a><a ewd:lineID="31" style="cursor:pointer;"><path d=" M   781.87,   452.21  L   832.86,   452.21  L   832.86,   436.35  " style="stroke:#008837;stroke-width: 5.10 ;&st6;" /><path d=" M   781.87,   452.21  L   832.86,   452.21  L   832.86,   436.35  " style="stroke:#FFFFFF;stroke-width: 2.27 ;&st6;" /><path d=" M   781.87,   452.21  L   832.86,   452.21  L   832.86,   436.35  " style="stroke:#FFE600;stroke-width: 1.13 ;&st6;" /></a><a ewd:lineID="32" style="cursor:pointer;"><path d=" M   807.37,   273.74  L   807.37,   256.74  L   875.35,   256.74  " style="stroke:#00A0C6;stroke-width: 5.10 ;&st6;" /></a><a ewd:lineID="33" style="cursor:pointer;"><path d=" M   871.10,   350.23  L   832.86,   350.23  L   832.86,   366.09  " style="stroke:#008837;stroke-width: 5.10 ;&st6;" /></a><a ewd:lineID="34" style="cursor:pointer;"><path d=" M  1104.82,    95.27  L  1104.82,   494.70  L  2277.62,   494.70  L  2277.62,   452.21  L  2728.04,   452.21  L  2728.04,   384.22  L  2753.54,   384.22  " style="stroke:#00A0C6;stroke-width: 5.10 ;&st6;" /><path d=" M  1104.82,    95.27  L  1104.82,   494.70  L  2277.62,   494.70  L  2277.62,   452.21  L  2728.04,   452.21  L  2728.04,   384.22  L  2753.54,   384.22  " style="stroke:#FFFFFF;stroke-width: 2.27 ;&st6;" /><path d=" M  1104.82,    95.27  L  1104.82,   494.70  L  2277.62,   494.70  L  2277.62,   452.21  L  2728.04,   452.21  L  2728.04,   384.22  L  2753.54,   384.22  " style="stroke:#FF0000;stroke-width: 1.13 ;&st6;" /></a><a ewd:lineID="35" style="cursor:pointer;"><path d=" M  1113.31,    86.77  L  1215.30,    86.77  " style="stroke:#00A0C6;stroke-width: 5.10 ;&st6;" /><path d=" M  1113.31,    86.77  L  1215.30,    86.77  " style="stroke:#FFFFFF;stroke-width: 2.27 ;&st6;" /><path d=" M  1113.31,    86.77  L  1215.30,    86.77  " style="stroke:#FF0000;stroke-width: 1.13 ;&st6;" /></a><a ewd:lineID="36" style="cursor:pointer;"><path d=" M  1155.81,   681.67  L  1155.81,   630.68  " style="stroke:#000000;stroke-width: 5.10 ;&st6;" /><path d=" M  1155.81,   681.67  L  1155.81,   630.68  " style="stroke:#FFFFFF;stroke-width: 4.53 ;&st6;" /><path d=" M  1155.81,   681.67  L  1155.81,   630.68  " style="stroke:#000000;stroke-width: 1.13 ;&st6;" /></a><a ewd:lineID="37" style="cursor:pointer;"><path d=" M  1155.81,   613.68  L  1155.81,   452.21  " style="stroke:#000000;stroke-width: 5.10 ;&st6;" /><path d=" M  1155.81,   613.68  L  1155.81,   452.21  " style="stroke:#FFFFFF;stroke-width: 4.53 ;&st6;" /><path d=" M  1155.81,   613.68  L  1155.81,   452.21  " style="stroke:#000000;stroke-width: 1.13 ;&st6;" /></a><a ewd:lineID="38" style="cursor:pointer;"><path d=" M  1155.81,   435.21  L  1155.81,   375.72  " style="stroke:#000000;stroke-width: 5.10 ;&st6;" /><path d=" M  1155.81,   435.21  L  1155.81,   375.72  " style="stroke:#FFFFFF;stroke-width: 4.53 ;&st6;" /><path d=" M  1155.81,   435.21  L  1155.81,   375.72  " style="stroke:#000000;stroke-width: 1.13 ;&st6;" /></a><a ewd:lineID="39" style="cursor:pointer;"><path d=" M  1155.81,   358.73  L  1155.81,   137.76  L  1215.30,   137.76  " style="stroke:#000000;stroke-width: 5.10 ;&st6;" /><path d=" M  1155.81,   358.73  L  1155.81,   137.76  L  1215.30,   137.76  " style="stroke:#FFFFFF;stroke-width: 4.53 ;&st6;" /><path d=" M  1155.81,   358.73  L  1155.81,   137.76  L  1215.30,   137.76  " style="stroke:#000000;stroke-width: 1.13 ;&st6;" /></a><a ewd:comment="3" ewd:lineID="40" style="cursor:pointer;"><path d=" M  1164.31,   622.18  L  2192.63,   622.18  L  2192.63,   239.75  L  2379.60,   239.75  " style="stroke:#000000;stroke-width: 5.10 ;&st6;" /><path d=" M  1164.31,   622.18  L  2192.63,   622.18  L  2192.63,   239.75  L  2379.60,   239.75  " style="stroke:#FFFFFF;stroke-width: 4.53 ;&st6;" /><path d=" M  1164.31,   622.18  L  2192.63,   622.18  L  2192.63,   239.75  L  2379.60,   239.75  " style="stroke:#000000;stroke-width: 1.13 ;&st6;" /></a><a ewd:comment="3" ewd:lineID="41" style="cursor:pointer;"><path d=" M  1164.31,   443.71  L  1886.68,   443.71  " style="stroke:#000000;stroke-width: 5.10 ;&st6;" /><path d=" M  1164.31,   443.71  L  1886.68,   443.71  " style="stroke:#FFFFFF;stroke-width: 4.53 ;&st6;" /><path d=" M  1164.31,   443.71  L  1886.68,   443.71  " style="stroke:#000000;stroke-width: 1.13 ;&st6;" /></a><a ewd:comment="8" ewd:lineID="42" style="cursor:pointer;"><path d=" M  1215.30,   367.22  L  1164.31,   367.22  " style="stroke:#000000;stroke-width: 5.10 ;&st6;" /><path d=" M  1215.30,   367.22  L  1164.31,   367.22  " style="stroke:#FFFFFF;stroke-width: 4.53 ;&st6;" /><path d=" M  1215.30,   367.22  L  1164.31,   367.22  " style="stroke:#000000;stroke-width: 1.13 ;&st6;"/></a><a ewd:comment="8" ewd:lineID="43" style="cursor:pointer;"> d=" M  1215.30,   341.73  L  1172.80,   341.73  L  1172.80,   265.24 
	
		<path d=" M  1215.30,   341.73  L  1172.80,   341.73  L  1172.80,   265.24  " style="stroke:#000000;stroke-width: 5.10 ;&st6;" /><path d=" M  1215.30,   341.73  L  1172.80,   341.73  L  1172.80,   265.24  " style="stroke:#FFFFFF;stroke-width: 4.53 ;&st6;"/></a><a ewd:comment="8" ewd:lineID="44" style="cursor:pointer;"> d=" M  1215.30,   112.27  L  1172.80,   112.27  L  1172.80,   248.24 
	
		<path d=" M  1215.30,   112.27  L  1172.80,   112.27  L  1172.80,   248.24  " style="stroke:#000000;stroke-width: 5.10 ;&st6;" /><path d=" M  1215.30,   112.27  L  1172.80,   112.27  L  1172.80,   248.24  " style="stroke:#FFFFFF;stroke-width: 4.53 ;&st6;"/></a><a ewd:comment="3" ewd:lineID="45" style="cursor:pointer;"> d=" M  1215.30,   112.27  L  1206.80,   112.27  L  1198.30,   120.77  L  1198.30,   239.75  L  1784.70,   239.75  L  1784.70,   112.27  L  1776.20,   103.77  L  1767.70,   103.77 
	
		<path d=" M  1215.30,   112.27  L  1206.80,   112.27  L  1198.30,   120.77  L  1198.30,   239.75  L  1784.70,   239.75  L  1784.70,   112.27  L  1776.20,   103.77  L  1767.70,   103.77  " style="stroke:#000000;stroke-width: 5.10 ;&st6;" /><path d=" M  1215.30,   112.27  L  1206.80,   112.27  L  1198.30,   120.77  L  1198.30,   239.75  L  1784.70,   239.75  L  1784.70,   112.27  L  1776.20,   103.77  L  1767.70,   103.77  " style="stroke:#FFFFFF;stroke-width: 4.53 ;&st6;" /></a><a ewd:comment="1,15,17" ewd:lineID="46" style="cursor:pointer;"><path d=" M  1410.76,   307.73  L  1410.76,   103.77  L  1461.76,   103.77  L  1487.25,   137.76  L  1495.75,   137.76  " style="stroke:#00A0C6;stroke-width: 5.10 ;&st6;" /></a><a ewd:comment="1,15,17" ewd:lineID="47" style="cursor:pointer;"><path d=" M  1416.78,   322.25  L  1427.76,   333.23  L  1427.76,   409.72  L  1614.73,   409.72  L  1614.73,   392.72  L  1623.23,   384.22  L  1631.73,   384.22  " style="stroke:#00A0C6;stroke-width: 5.10 ;&st6;" /></a><a ewd:comment="1,15,17" ewd:lineID="48" style="cursor:pointer;"><path d=" M  1419.26,   316.23  L  1614.73,   316.23  L  1614.73,   333.23  L  1623.23,   341.73  L  1631.73,   341.73  " style="stroke:#00A0C6;stroke-width: 5.10 ;&st6;" /></a><a ewd:comment="3" ewd:lineID="49" style="cursor:pointer;"><path d=" M  1461.76,   554.19  L  1461.76,   137.76  L  1495.75,   137.76  " style="stroke:#00A0C6;stroke-width: 5.10 ;&st6;" /></a><a ewd:comment="1,10" ewd:lineID="50" style="cursor:pointer;"><path d=" M  1478.75,   392.72  L  1478.75,   588.19  L   645.89,   588.19  L   645.89,   571.19  L   637.39,   562.69  L   635.13,   562.69  " style="stroke:#00A0C6;stroke-width: 5.10 ;&st6;" /></a><a ewd:comment="1,10" ewd:lineID="51" style="cursor:pointer;"><path d=" M  1487.25,   384.22  L  1631.73,   384.22  " style="stroke:#00A0C6;stroke-width: 5.10 ;&st6;" /></a><a ewd:comment="1,11,12,1,18,17" ewd:lineID="52" style="cursor:pointer;"><path d=" M  1495.75,   137.76  L  1487.25,   137.76  L  1453.26,   120.77  L  1444.76,   120.77  L  1444.76,   537.20  L   671.39,   537.20  L   637.39,   562.69  L   635.13,   562.69  " style="stroke:#00A0C6;stroke-width: 5.10 ;&st6;" /></a><a ewd:comment="1,10" ewd:lineID="53" style="cursor:pointer;"><path d=" M  1495.75,   137.76  L  1487.25,   137.76  L  1478.75,   146.26  L  1478.75,   375.72  " style="stroke:#00A0C6;stroke-width: 5.10 ;&st6;" /></a><a ewd:lineID="54" style="cursor:pointer;"><path d=" M  1518.98,   137.76  L  1614.73,   137.76  " style="stroke:#00A0C6;stroke-width: 5.10 ;&st6;" /></a><a ewd:lineID="55" style="cursor:pointer;"><path d=" M  1614.73,    86.77  L  1597.73,    86.77  L  1597.73,    44.28  L  1510.76,    44.28  " style="stroke:#000000;stroke-width: 5.10 ;&st6;" /><path d=" M  1614.73,    86.77  L  1597.73,    86.77  L  1597.73,    44.28  L  1510.76,    44.28  " style="stroke:#FFFFFF;stroke-width: 2.27 ;&st6;" /><path d=" M  1614.73,    86.77  L  1597.73,    86.77  L  1597.73,    44.28  L  1510.76,    44.28  " style="stroke:#00A0C6;stroke-width: 1.13 ;&st6;" /></a><a ewd:comment="1,10" ewd:lineID="56" style="cursor:pointer;"><path d=" M  1631.73,   341.73  L  1495.75,   341.73  L  1495.75,   367.22  L  1484.77,   378.21  " style="stroke:#00A0C6;stroke-width: 5.10 ;&st6;" /></a><a ewd:lineID="57" style="cursor:pointer;"><path d=" M  1674.22,   137.76  L  1691.22,   137.76  L  1691.22,   222.75  L  1744.48,   222.75  " style="stroke:#008837;stroke-width: 5.10 ;&st6;" /></a><a ewd:lineID="58" style="cursor:pointer;"><path d=" M  1674.22,   103.77  L  1708.21,   103.77  L  1708.21,   197.25  L  1744.48,   197.25  " style="stroke:#000000;stroke-width: 5.10 ;&st6;"/></a><a ewd:lineID="59" style="cursor:pointer;"> d=" M  1674.22,    86.77  L  1725.21,    86.77  L  1725.21,   103.77  L  1744.19,   103.77 
	
		<path d=" M  1674.22,    86.77  L  1725.21,    86.77  L  1725.21,   103.77  L  1744.19,   103.77  " style="stroke:#000000;stroke-width: 5.10 ;&st6;" /><path d=" M  1674.22,    86.77  L  1725.21,    86.77  L  1725.21,   103.77  L  1744.19,   103.77  " style="stroke:#FFFFFF;stroke-width: 4.53 ;&st6;" /></a><a ewd:lineID="60" style="cursor:pointer;"><path d=" M  1674.22,    69.77  L  1744.19,    69.77  " style="stroke:#FF0000;stroke-width: 5.10 ;&st6;" /><path d=" M  1674.22,    69.77  L  1744.19,    69.77  " style="stroke:#FFFFFF;stroke-width: 2.27 ;&st6;" /><path d=" M  1674.22,    69.77  L  1744.19,    69.77  " style="stroke:#008837;stroke-width: 1.13 ;&st6;" /></a><a ewd:lineID="61" style="cursor:pointer;"><path d=" M  1767.70,   197.25  L  1886.68,   197.25  " style="stroke:#000000;stroke-width: 5.10 ;&st6;"/></a><a ewd:comment="8" ewd:lineID="62" style="cursor:pointer;"> d=" M  1767.70,   103.77  L  1810.20,   103.77  L  1810.20,   256.74  L  1181.30,   256.74 
	
		<path d=" M  1767.70,   103.77  L  1810.20,   103.77  L  1810.20,   256.74  L  1181.30,   256.74  " style="stroke:#000000;stroke-width: 5.10 ;&st6;" /><path d=" M  1767.70,   103.77  L  1810.20,   103.77  L  1810.20,   256.74  L  1181.30,   256.74  " style="stroke:#FFFFFF;stroke-width: 4.53 ;&st6;" /></a><a ewd:comment="8" ewd:lineID="63" style="cursor:pointer;"><path d=" M  1767.70,    69.77  L  1827.19,    69.77  " style="stroke:#FF0000;stroke-width: 5.10 ;&st6;" /><path d=" M  1767.70,    69.77  L  1827.19,    69.77  " style="stroke:#FFFFFF;stroke-width: 2.27 ;&st6;" /><path d=" M  1767.70,    69.77  L  1827.19,    69.77  " style="stroke:#008837;stroke-width: 1.13 ;&st6;" /></a><a ewd:comment="8" ewd:lineID="64" style="cursor:pointer;"><path d=" M  1844.19,    69.77  L  1886.68,    69.77  " style="stroke:#FF0000;stroke-width: 5.10 ;&st6;" /><path d=" M  1844.19,    69.77  L  1886.68,    69.77  " style="stroke:#FFFFFF;stroke-width: 2.27 ;&st6;" /><path d=" M  1844.19,    69.77  L  1886.68,    69.77  " style="stroke:#008837;stroke-width: 1.13 ;&st6;" /></a><a ewd:comment="3" ewd:lineID="65" style="cursor:pointer;"><path d=" M  1886.68,   418.22  L  1844.19,   418.22  L  1844.19,    86.77  L  1793.20,    86.77  L  1776.20,    69.77  L  1767.70,    69.77  " style="stroke:#FF0000;stroke-width: 5.10 ;&st6;" /><path d=" M  1886.68,   418.22  L  1844.19,   418.22  L  1844.19,    86.77  L  1793.20,    86.77  L  1776.20,    69.77  L  1767.70,    69.77  " style="stroke:#FFFFFF;stroke-width: 2.27 ;&st6;" /><path d=" M  1886.68,   418.22  L  1844.19,   418.22  L  1844.19,    86.77  L  1793.20,    86.77  L  1776.20,    69.77  L  1767.70,    69.77  " style="stroke:#008837;stroke-width: 1.13 ;&st6;" /></a><a ewd:comment="3" ewd:lineID="66" style="cursor:pointer;"><path d=" M  1886.68,   392.72  L  1810.20,   392.72  L  1810.20,   282.24  L  1138.81,   282.24  L  1138.81,   197.25  L   475.92,   197.25  L   475.92,   214.25  L   467.42,   222.75  L   465.44,   222.75  " style="stroke:#FF0000;stroke-width: 5.10 ;&st6;" /><path d=" M  1886.68,   392.72  L  1810.20,   392.72  L  1810.20,   282.24  L  1138.81,   282.24  L  1138.81,   197.25  L   475.92,   197.25  L   475.92,   214.25  L   467.42,   222.75  L   465.44,   222.75  " style="stroke:#FFFFFF;stroke-width: 2.27 ;&st6;" /><path d=" M  1886.68,   392.72  L  1810.20,   392.72  L  1810.20,   282.24  L  1138.81,   282.24  L  1138.81,   197.25  L   475.92,   197.25  L   475.92,   214.25  L   467.42,   222.75  L   465.44,   222.75  " style="stroke:#000000;stroke-width: 1.13 ;&st6;" /></a><a ewd:lineID="67" style="cursor:pointer;"><path d=" M  2328.61,   290.74  L  2252.12,   290.74  L  2252.12,   588.19  L  2269.12,   588.19  " style="stroke:#000000;stroke-width: 5.10 ;&st6;" /><path d=" M  2328.61,   290.74  L  2252.12,   290.74  L  2252.12,   588.19  L  2269.12,   588.19  " style="stroke:#FFFFFF;stroke-width: 4.53 ;&st6;" /><path d=" M  2328.61,   290.74  L  2252.12,   290.74  L  2252.12,   588.19  L  2269.12,   588.19  " style="stroke:#00A0C6;stroke-width: 1.13 ;&st6;" /></a><a ewd:lineID="68" style="cursor:pointer;"><path d=" M  2331.10,   296.75  L  2311.61,   316.23  L  2311.61,   469.21  L  2753.54,   469.21  " style="stroke:#000000;stroke-width: 5.10 ;&st6;" /><path d=" M  2331.10,   296.75  L  2311.61,   316.23  L  2311.61,   469.21  L  2753.54,   469.21  " style="stroke:#FFFFFF;stroke-width: 4.53 ;&st6;" /><path d=" M  2331.10,   296.75  L  2311.61,   316.23  L  2311.61,   469.21  L  2753.54,   469.21  " style="stroke:#00A0C6;stroke-width: 1.13 ;&st6;" /></a><a ewd:lineID="69" style="cursor:pointer;"><path d=" M  2337.11,   282.24  L  2337.11,   265.24  L  2226.63,   265.24  L  2226.63,   647.68  L   448.16,   647.68  " style="stroke:#000000;stroke-width: 5.10 ;&st6;" /><path d=" M  2337.11,   282.24  L  2337.11,   265.24  L  2226.63,   265.24  L  2226.63,   647.68  L   448.16,   647.68  " style="stroke:#FFFFFF;stroke-width: 4.53 ;&st6;" /><path d=" M  2337.11,   282.24  L  2337.11,   265.24  L  2226.63,   265.24  L  2226.63,   647.68  L   448.16,   647.68  " style="stroke:#00A0C6;stroke-width: 1.13 ;&st6;" /></a><a ewd:lineID="70" style="cursor:pointer;"><path d=" M  2345.61,   290.74  L  2379.60,   290.74  " style="stroke:#000000;stroke-width: 5.10 ;&st6;" /><path d=" M  2345.61,   290.74  L  2379.60,   290.74  " style="stroke:#FFFFFF;stroke-width: 4.53 ;&st6;" /><path d=" M  2345.61,   290.74  L  2379.60,   290.74  " style="stroke:#00A0C6;stroke-width: 1.13 ;&st6;" /></a><a ewd:lineID="71" style="cursor:pointer;"><path d=" M  2354.11,   664.67  L  1852.69,   664.67  L  1852.69,   605.18  L   448.16,   605.18  " style="stroke:#FF0000;stroke-width: 5.10 ;&st6;" /></a><a ewd:comment="3" ewd:lineID="72" style="cursor:pointer;"><path d=" M  2379.60,   214.25  L  2269.12,   214.25  L  2269.12,   112.27  L  2456.09,   112.27  L  2467.07,   101.28  " style="stroke:#008837;stroke-width: 5.10 ;&st6;" /></a><a ewd:comment="3" ewd:lineID="73" style="cursor:pointer;"><path d=" M  2379.60,   188.75  L  2158.64,   188.75  L  2158.64,   562.69  L  1470.25,   562.69  " style="stroke:#00A0C6;stroke-width: 5.10 ;&st6;" /></a><a ewd:lineID="74" style="cursor:pointer;"><path d=" M  2396.60,   664.67  L  2371.10,   664.67  " style="stroke:#FF0000;stroke-width: 5.10 ;&st6;" /></a><a ewd:lineID="75" style="cursor:pointer;"><path d=" M  2396.60,   639.18  L  2362.61,   639.18  L  2362.61,   656.18  " style="stroke:#FF0000;stroke-width: 5.10 ;&st6;" /></a><a ewd:lineID="76" style="cursor:pointer;"><path d=" M  2464.59,    95.27  L  2124.65,    95.27  L  2124.65,   469.21  L  1827.19,   469.21  L  1827.19,   222.75  L  1767.70,   222.75  " style="stroke:#008837;stroke-width: 5.10 ;&st6;" /></a><a ewd:comment="8" ewd:lineID="77" style="cursor:pointer;"><path d=" M  2473.09,   103.77  L  2473.09,   154.76  L  2736.54,   154.76  L  2736.54,   180.26  L  2745.04,   188.75  L  2753.54,   188.75  " style="stroke:#008837;stroke-width: 5.10 ;&st6;" /></a><a ewd:lineID="78" style="cursor:pointer;"><path d=" M  2490.08,   290.74  L  2753.54,   290.74  " style="stroke:#008837;stroke-width: 5.10 ;&st6;" /></a><a ewd:comment="3" ewd:lineID="79" style="cursor:pointer;"><path d=" M  2490.08,   188.75  L  2753.54,   188.75  " style="stroke:#008837;stroke-width: 5.10 ;&st6;" /></a><a ewd:lineID="80" style="cursor:pointer;"><path d=" M  2507.08,   639.18  L  2711.05,   639.18  " style="stroke:#00A0C6;stroke-width: 5.10 ;&st6;" /><path d=" M  2507.08,   639.18  L  2711.05,   639.18  " style="stroke:#FFFFFF;stroke-width: 2.27 ;&st6;" /><path d=" M  2507.08,   639.18  L  2711.05,   639.18  " style="stroke:#FF0000;stroke-width: 1.13 ;&st6;" /></a><a ewd:lineID="81" style="cursor:pointer;"><path d=" M  2719.55,   647.68  L  2719.55,   664.67  L  2753.54,   664.67  " style="stroke:#00A0C6;stroke-width: 5.10 ;&st6;" /><path d=" M  2719.55,   647.68  L  2719.55,   664.67  L  2753.54,   664.67  " style="stroke:#FFFFFF;stroke-width: 2.27 ;&st6;" /><path d=" M  2719.55,   647.68  L  2719.55,   664.67  L  2753.54,   664.67  " style="stroke:#FF0000;stroke-width: 1.13 ;&st6;" /></a><a ewd:lineID="82" style="cursor:pointer;"><path d=" M  2728.04,   639.18  L  2753.54,   639.18  " style="stroke:#00A0C6;stroke-width: 5.10 ;&st6;" /><path d=" M  2728.04,   639.18  L  2753.54,   639.18  " style="stroke:#FFFFFF;stroke-width: 2.27 ;&st6;" /><path d=" M  2728.04,   639.18  L  2753.54,   639.18  " style="stroke:#FF0000;stroke-width: 1.13 ;&st6;" /></a><a ewd:lineID="83" style="cursor:pointer;"><path d=" M  2753.54,   341.73  L  2337.11,   341.73  L  2337.11,   299.24  " style="stroke:#000000;stroke-width: 5.10 ;&st6;" /><path d=" M  2753.54,   341.73  L  2337.11,   341.73  L  2337.11,   299.24  " style="stroke:#FFFFFF;stroke-width: 4.53 ;&st6;" /><path d=" M  2753.54,   341.73  L  2337.11,   341.73  L  2337.11,   299.24  " style="stroke:#00A0C6;stroke-width: 1.13 ;&st6;" /></a><a ewd:lineID="84" style="cursor:pointer;"><path d=" M  2753.54,    95.27  L  2481.59,    95.27  " style="stroke:#008837;stroke-width: 5.10 ;&st6;" /></a><a ewd:lineID="85" style="cursor:pointer;"><path d=" M  2864.02,   596.69  L  2898.02,   596.69  " style="stroke:#000000;stroke-width: 5.10 ;&st6;" /><path d=" M  2864.02,   596.69  L  2898.02,   596.69  " style="stroke:#FFFFFF;stroke-width: 2.27 ;&st6;" /><path d=" M  2864.02,   596.69  L  2898.02,   596.69  " style="stroke:#00A0C6;stroke-width: 1.13 ;&st6;" /></a><a ewd:lineID="86" style="cursor:pointer;"><path d=" M  2898.02,   639.18  L  2864.02,   639.18  " style="stroke:#000000;stroke-width: 5.10 ;&st6;" /><path d=" M  2898.02,   639.18  L  2864.02,   639.18  " style="stroke:#FFFFFF;stroke-width: 4.53 ;&st6;" /><path d=" M  2898.02,   639.18  L  2864.02,   639.18  " style="stroke:#FF0000;stroke-width: 1.13 ;&st6;" /></a><a ewd:lineID="87" style="cursor:pointer;"><path d=" M    50.99,   392.15  L    50.99,   375.72  " style="stroke:#000000;stroke-width: 0.85 ;&st6;" /></a><a ewd:lineID="88" style="cursor:pointer;"><path d=" M   152.97,   435.21  L   152.97,   519.63  " style="stroke:#000000;stroke-width: 0.85 ;&st6;" /></a><a ewd:code="AI3" ewd:figID="86" ewd:figtype="w2w" ewd:pinNo="3" style="cursor:pointer;"><path d=" M   407.93,    40.03  L   390.93,    40.03  L   390.93,    48.53  L   407.93,    48.53  L   407.93,    40.03 " style="&st2;" /><text style="&st8;" transform="matrix(&st16;  395.07  46.4 )"><tspan style="&st18;" x="0" y="0">AI3</tspan></text></a><a ewd:code="AI3" ewd:figID="87" ewd:figtype="w2w" ewd:pinNo="5" style="cursor:pointer;"><path d=" M   424.93,    40.03  L   407.93,    40.03  L   407.93,    48.53  L   424.93,    48.53  L   424.93,    40.03 " style="&st2;" /><text style="&st8;" transform="matrix(&st16;  412.07  46.4 )"><tspan style="&st18;" x="0" y="0">AI3</tspan></text></a><a ewd:code="AI1" ewd:figID="88" ewd:figtype="w2w" ewd:pinNo="1" style="cursor:pointer;"><path d=" M   441.93,   643.43  L   424.93,   643.43  L   424.93,   651.93  L   441.93,   651.93  L   441.93,   643.43 " style="&st2;" /><text style="&st8;" transform="matrix(&st16;  429.06  649.8 )"><tspan style="&st18;" x="0" y="0">AI1</tspan></text></a><a ewd:code="AI4" ewd:figID="89" ewd:figtype="w2w" ewd:pinNo="4" style="cursor:pointer;"><path d=" M   441.93,   600.93  L   424.93,   600.93  L   424.93,   609.43  L   441.93,   609.43  L   441.93,   600.93 " style="&st2;" /><text style="&st8;" transform="matrix(&st16;  429.06  607.3 )"><tspan style="&st18;" x="0" y="0">AI4</tspan></text></a><a ewd:code="AI1" ewd:figID="90" ewd:figtype="w2w" ewd:pinNo="5" style="cursor:pointer;"><path d=" M   441.93,   447.96  L   424.93,   447.96  L   424.93,   456.46  L   441.93,   456.46  L   441.93,   447.96 " style="&st2;" /><text style="&st8;" transform="matrix(&st16;  429.06  454.33 )"><tspan style="&st18;" x="0" y="0">AI1</tspan></text></a><a ewd:code="AI1" ewd:figID="91" ewd:figtype="w2w" ewd:pinNo="2" style="cursor:pointer;"><path d=" M   441.93,   277.99  L   424.93,   277.99  L   424.93,   286.49  L   441.93,   286.49  L   441.93,   277.99 " style="&st2;" /><text style="&st8;" transform="matrix(&st16;  429.06  284.36 )"><tspan style="&st18;" x="0" y="0">AI1</tspan></text></a><a ewd:code="AI1" ewd:figID="92" ewd:figtype="w2w" ewd:pinNo="6" style="cursor:pointer;"><path d=" M   441.93,   218.50  L   424.93,   218.50  L   424.93,   227.00  L   441.93,   227.00  L   441.93,   218.50 " style="&st2;" /><text style="&st8;" transform="matrix(&st16;  429.06  224.87 )"><tspan style="&st18;" x="0" y="0">AI1</tspan></text></a><a ewd:code="AI4" ewd:figID="93" ewd:figtype="w2w" ewd:pinNo="2" style="cursor:pointer;"><path d=" M   441.93,    82.52  L   424.93,    82.52  L   424.93,    91.02  L   441.93,    91.02  L   441.93,    82.52 " style="&st2;" /><text style="&st8;" transform="matrix(&st16;  429.06  88.89 )"><tspan style="&st18;" x="0" y="0">AI4</tspan></text></a><a ewd:code="AI7" ewd:figID="94" ewd:figtype="w2w" ewd:pinNo="8" style="cursor:pointer;"><path d=" M   441.93,    40.03  L   424.93,    40.03  L   424.93,    48.53  L   441.93,    48.53  L   441.93,    40.03 " style="&st2;" /><text style="&st8;" transform="matrix(&st16;  429.06  46.4 )"><tspan style="&st18;" x="0" y="0">AI7</tspan></text></a><a ewd:code="AI1" ewd:figID="95" ewd:figtype="w2w" ewd:pinNo="6" style="cursor:pointer;"><path d=" M   458.92,   447.96  L   441.93,   447.96  L   441.93,   456.46  L   458.92,   456.46  L   458.92,   447.96 " style="&st2;" /><text style="&st8;" transform="matrix(&st16;  446.06  454.33 )"><tspan style="&st18;" x="0" y="0">AI1</tspan></text></a><a ewd:code="AI4" ewd:figID="96" ewd:figtype="w2w" ewd:pinNo="2" style="cursor:pointer;"><path d=" M   458.92,   218.50  L   441.93,   218.50  L   441.93,   227.00  L   458.92,   227.00  L   458.92,   218.50 " style="&st2;" /><text style="&st8;" transform="matrix(&st16;  446.06  224.87 )"><tspan style="&st18;" x="0" y="0">AI4</tspan></text></a><a ewd:code="AI1" ewd:figID="97" ewd:figtype="w2w" ewd:pinNo="4" style="cursor:pointer;"><path d=" M   458.92,    82.52  L   441.93,    82.52  L   441.93,    91.02  L   458.92,    91.02  L   458.92,    82.52 " style="&st2;" /><text style="&st8;" transform="matrix(&st16;  446.06  88.89 )"><tspan style="&st18;" x="0" y="0">AI1</tspan></text></a><a ewd:code="AI2" ewd:figID="98" ewd:figtype="w2w" ewd:pinNo="7" style="cursor:pointer;"><path d=" M   458.92,    40.03  L   441.93,    40.03  L   441.93,    48.53  L   458.92,    48.53  L   458.92,    40.03 " style="&st2;" /><text style="&st8;" transform="matrix(&st16;  446.06  46.4 )"><tspan style="&st18;" x="0" y="0">AI2</tspan></text></a><a ewd:code="AI4" ewd:figID="99" ewd:figtype="w2w" ewd:pinNo="3" style="cursor:pointer;"><path d=" M   628.89,   558.44  L   611.90,   558.44  L   611.90,   566.94  L   628.89,   566.94  L   628.89,   558.44 " style="&st2;" /><text style="&st8;" transform="matrix(&st16;  616.03  564.81 )"><tspan style="&st18;" x="0" y="0">AI4</tspan></text></a><a ewd:code="IL3" ewd:figID="100" ewd:figtype="w2w" ewd:pinNo="4" style="cursor:pointer;"><path d=" M  1504.25,    40.03  L  1487.25,    40.03  L  1487.25,    48.53  L  1504.25,    48.53  L  1504.25,    40.03 " style="&st2;" /><text style="&st8;" transform="matrix(&st16;  1491.72  46.4 )"><tspan style="&st18;" x="0" y="0">IL3</tspan></text></a><a ewd:code="IL3" ewd:figID="101" ewd:figtype="w2w" ewd:pinNo="3" style="cursor:pointer;"><path d=" M  1512.75,   133.51  L  1495.75,   133.51  L  1495.75,   142.01  L  1512.75,   142.01  L  1512.75,   133.51 " style="&st2;" /><text style="&st8;" transform="matrix(&st16;  1500.22  139.88 )"><tspan style="&st18;" x="0" y="0">IL3</tspan></text></a><a ewd:code="IL3" ewd:figID="102" ewd:figtype="w2w" ewd:pinNo="5" style="cursor:pointer;"><path d=" M  1767.70,   218.50  L  1750.71,   218.50  L  1750.71,   227.00  L  1767.70,   227.00  L  1767.70,   218.50 " style="&st2;" /><text style="&st8;" transform="matrix(&st16;  1755.18  224.87 )"><tspan style="&st18;" x="0" y="0">IL3</tspan></text></a><a ewd:code="IL3" ewd:figID="103" ewd:figtype="w2w" ewd:pinNo="6" style="cursor:pointer;"><path d=" M  1767.70,   193.00  L  1750.71,   193.00  L  1750.71,   201.50  L  1767.70,   201.50  L  1767.70,   193.00 " style="&st2;" /><text style="&st8;" transform="matrix(&st16;  1755.18  199.37 )"><tspan style="&st18;" x="0" y="0">IL3</tspan></text></a><a ewd:code="IL3" ewd:figID="104" ewd:figtype="w2w" ewd:pinNo="2" style="cursor:pointer;"><path d=" M  1767.70,    99.52  L  1750.71,    99.52  L  1750.71,   108.02  L  1767.70,   108.02  L  1767.70,    99.52 " style="&st2;" /><text style="&st8;" transform="matrix(&st16;  1755.18  105.89 )"><tspan style="&st18;" x="0" y="0">IL3</tspan></text></a><a ewd:code="IL3" ewd:figID="105" ewd:figtype="w2w" ewd:pinNo="1" style="cursor:pointer;"><path d=" M  1767.70,    65.52  L  1750.71,    65.52  L  1750.71,    74.02  L  1767.70,    74.02  L  1767.70,    65.52 " style="&st2;" /><text style="&st8;" transform="matrix(&st16;  1755.18  71.89 )"><tspan style="&st18;" x="0" y="0">IL3</tspan></text></a><a ewd:code="FC" ewd:figID="106" ewd:figtype="gp" style="cursor:pointer;"><path d=" M     6.37,   681.67  L    27.62,   681.67  L    17.00,   697.25  L     6.37,   681.67 " style="&st2;" /><text style="&st8;" transform="matrix(&st16;  13.12  689.46 )"><tspan style="&st18;" x="0" y="0">FC</tspan></text></a><a ewd:code="FB" ewd:figID="107" ewd:figtype="gp" style="cursor:pointer;"><path d=" M    40.37,   681.67  L    61.61,   681.67  L    50.99,   697.25  L    40.37,   681.67 " style="&st2;" /><text style="&st8;" transform="matrix(&st16;  47.3  689.46 )"><tspan style="&st18;" x="0" y="0">FB</tspan></text></a><a ewd:code="DA" ewd:figID="108" ewd:figtype="gp" style="cursor:pointer;"><path d=" M    91.36,   681.67  L   112.61,   681.67  L   101.98,   697.25  L    91.36,   681.67 " style="&st2;" /><text style="&st8;" transform="matrix(&st16;  97.92  689.46 )"><tspan style="&st18;" x="0" y="0">DA</tspan></text></a><a ewd:code="AC" ewd:figID="109" ewd:figtype="gp" style="cursor:pointer;"><path d=" M   142.35,   681.67  L   163.60,   681.67  L   152.97,   697.25  L   142.35,   681.67 " style="&st2;" /><text style="&st8;" transform="matrix(&st16;  148.91  689.46 )"><tspan style="&st18;" x="0" y="0">AC</tspan></text></a><a ewd:code="FA" ewd:figID="110" ewd:figtype="gp" style="cursor:pointer;"><path d=" M   176.35,   681.67  L   197.59,   681.67  L   186.97,   697.25  L   176.35,   681.67 " style="&st2;" /><text style="&st8;" transform="matrix(&st16;  183.28  689.46 )"><tspan style="&st18;" x="0" y="0">FA</tspan></text></a><a ewd:code="IC" ewd:figID="111" ewd:figtype="gp" style="cursor:pointer;"><path d=" M  1145.18,   681.67  L  1166.43,   681.67  L  1155.81,   697.25  L  1145.18,   681.67 " style="&st2;" /><text style="&st8;" transform="matrix(&st16;  1152.91  689.46 )"><tspan style="&st18;" x="0" y="0">IC</tspan></text></a><a ewd:code="SP4" ewd:figID="112" ewd:figtype="sp" style="cursor:pointer;"><path d=" M   378.19,   554.19  L   386.69,   554.19  L   390.93,   558.44  L   390.93,   566.94  L   386.69,   571.19  L   378.19,   571.19  L   373.94,   566.94  L   373.94,   558.44  L   378.19,   554.19 " style="&st2;" /></a><a ewd:code="SP72" ewd:figID="113" ewd:figtype="sp" style="cursor:pointer;"><path d=" M   582.15,   443.71  L   590.65,   443.71  L   594.90,   447.96  L   594.90,   456.46  L   590.65,   460.71  L   582.15,   460.71  L   577.90,   456.46  L   577.90,   447.96  L   582.15,   443.71 " style="&st2;" /></a><a ewd:code="SP56" ewd:figID="114" ewd:figtype="sp" style="cursor:pointer;"><path d=" M   803.12,   273.74  L   811.61,   273.74  L   815.86,   277.99  L   815.86,   286.49  L   811.61,   290.74  L   803.12,   290.74  L   798.87,   286.49  L   798.87,   277.99  L   803.12,   273.74 " style="&st2;" /></a><a ewd:code="SP79" ewd:figID="115" ewd:figtype="sp" style="cursor:pointer;"><path d=" M  1100.57,    78.27  L  1109.06,    78.27  L  1113.31,    82.52  L  1113.31,    91.02  L  1109.06,    95.27  L  1100.57,    95.27  L  1096.32,    91.02  L  1096.32,    82.52  L  1100.57,    78.27 " style="&st2;" /></a><a ewd:code="SP66" ewd:figID="116" ewd:figtype="sp" style="cursor:pointer;"><path d=" M  1151.56,   613.68  L  1160.06,   613.68  L  1164.31,   617.93  L  1164.31,   626.43  L  1160.06,   630.68  L  1151.56,   630.68  L  1147.31,   626.43  L  1147.31,   617.93  L  1151.56,   613.68 " style="&st2;" /></a><a ewd:code="SP66" ewd:figID="117" ewd:figtype="sp" style="cursor:pointer;"><path d=" M  1151.56,   435.21  L  1160.06,   435.21  L  1164.31,   439.46  L  1164.31,   447.96  L  1160.06,   452.21  L  1151.56,   452.21  L  1147.31,   447.96  L  1147.31,   439.46  L  1151.56,   435.21 " style="&st2;" /></a><a ewd:code="SP66" ewd:figID="118" ewd:figtype="sp" style="cursor:pointer;"><path d=" M  1151.56,   358.73  L  1160.06,   358.73  L  1164.31,   362.97  L  1164.31,   371.47  L  1160.06,   375.72  L  1151.56,   375.72  L  1147.31,   371.47  L  1147.31,   362.97  L  1151.56,   358.73 " style="&st2;" /></a><a ewd:code="SP55" ewd:figID="119" ewd:figtype="sp" style="cursor:pointer;"><path d=" M  1168.55,   248.24  L  1177.05,   248.24  L  1181.30,   252.49  L  1181.30,   260.99  L  1177.05,   265.24  L  1168.55,   265.24  L  1164.31,   260.99  L  1164.31,   252.49  L  1168.55,   248.24 " style="&st2;" /></a><a ewd:code="SP150" ewd:figID="120" ewd:figtype="sp" style="cursor:pointer;"><path d=" M  1406.51,   307.73  L  1415.01,   307.73  L  1419.26,   311.98  L  1419.26,   320.48  L  1415.01,   324.73  L  1406.51,   324.73  L  1402.27,   320.48  L  1402.27,   311.98  L  1406.51,   307.73 " style="&st2;" /></a><a ewd:code="SP67" ewd:figID="121" ewd:figtype="sp" style="cursor:pointer;"><path d=" M  1457.51,   554.19  L  1466.01,   554.19  L  1470.25,   558.44  L  1470.25,   566.94  L  1466.01,   571.19  L  1457.51,   571.19  L  1453.26,   566.94  L  1453.26,   558.44  L  1457.51,   554.19 " style="&st2;" /></a><a ewd:code="SP150" ewd:figID="122" ewd:figtype="sp" style="cursor:pointer;"><path d=" M  1474.50,   375.72  L  1483.00,   375.72  L  1487.25,   379.97  L  1487.25,   388.47  L  1483.00,   392.72  L  1474.50,   392.72  L  1470.25,   388.47  L  1470.25,   379.97  L  1474.50,   375.72 " style="&st2;" /></a><a ewd:code="SP57" ewd:figID="123" ewd:figtype="sp" style="cursor:pointer;"><path d=" M  1831.44,    61.28  L  1839.94,    61.28  L  1844.19,    65.52  L  1844.19,    74.02  L  1839.94,    78.27  L  1831.44,    78.27  L  1827.19,    74.02  L  1827.19,    65.52  L  1831.44,    61.28 " style="&st2;" /></a><a ewd:code="SP71" ewd:figID="124" ewd:figtype="sp" style="cursor:pointer;"><path d=" M  2332.86,   282.24  L  2341.36,   282.24  L  2345.61,   286.49  L  2345.61,   294.99  L  2341.36,   299.24  L  2332.86,   299.24  L  2328.61,   294.99  L  2328.61,   286.49  L  2332.86,   282.24 " style="&st2;" /></a><a ewd:code="SP70" ewd:figID="125" ewd:figtype="sp" style="cursor:pointer;"><path d=" M  2358.36,   656.18  L  2366.85,   656.18  L  2371.10,   660.42  L  2371.10,   668.92  L  2366.85,   673.17  L  2358.36,   673.17  L  2354.11,   668.92  L  2354.11,   660.42  L  2358.36,   656.18 " style="&st2;" /></a><a ewd:code="SP59" ewd:figID="126" ewd:figtype="sp" style="cursor:pointer;"><path d=" M  2468.84,    86.77  L  2477.34,    86.77  L  2481.59,    91.02  L  2481.59,    99.52  L  2477.34,   103.77  L  2468.84,   103.77  L  2464.59,    99.52  L  2464.59,    91.02  L  2468.84,    86.77 " style="&st2;" /></a><a ewd:code="SP80" ewd:figID="127" ewd:figtype="sp" style="cursor:pointer;"><path d=" M  2715.30,   630.68  L  2723.79,   630.68  L  2728.04,   634.93  L  2728.04,   643.43  L  2723.79,   647.68  L  2715.30,   647.68  L  2711.05,   643.43  L  2711.05,   634.93  L  2715.30,   630.68 " style="&st2;"/></a></g></svg>
