<?xml version="1.0" encoding="utf-8"?>
<!DOCTYPE svg PUBLIC "-//W3C//DTD SVG 1.0//EN" "http://www.w3.org/TR/2001/REC-SVG-20010904/DTD/svg10.dtd"[
	<!ENTITY ns_flows "http://ns.adobe.com/Flows/1.0/">
	<!ENTITY ns_svg "http://www.w3.org/2000/svg">
	<!ENTITY ns_xlink "http://www.w3.org/1999/xlink">
	<!ENTITY st0 "font-size:7px;font-family:'MS-PGothic';adobe-font-script:japanese;">
	<!ENTITY st1 "font-size:6px;font-family:'ArialMT';">
	<!-- White fill  -->
	<!ENTITY st2 "fill:#FFFFFF;stroke:#000000; stroke-width:1.41;stroke-linecap:round;stroke-linejoin:round;">
	<!-- Yellow fill  -->
	<!ENTITY st3 "fill:#FFFFCC;stroke:#FFFFCC; stroke-width:0.1;stroke-linecap:round;stroke-linejoin:round;">
	<!-- Gray fill  -->
	<!ENTITY st4 "fill:#CCCCCC;stroke:#CCCCCC; stroke-width:0.1;stroke-linecap:round;stroke-linejoin:round;">
	<!-- Light-blue fill -->
	<!ENTITY st5 "fill:#CCECF4;stroke:#000000; stroke-width:1.133;stroke-linecap:round;stroke-linejoin:round;">
	<!ENTITY st6 "fill:none;stroke-linecap:butt; stroke-linejoin:round;">
	<!ENTITY st7 "fill:none;stroke:#000000;stroke-linecap:round;stroke-linejoin:round;">
	<!ENTITY st8 "enable-background:new    ;">
	<!-- Black fill -->
	<!ENTITY st9 "fill:#000000;stroke:#000000; stroke-linecap:round;stroke-linejoin:round;">
	<!-- SRS note   -->
	<!ENTITY st10 "font-size:9px;font-family:'ArialMT';">
	<!ENTITY st11 "font-size:9px;font-family:'Svg Symbol';">
	<!ENTITY st12 "font-size:6px;font-family:'Svg Symbol';">
	<!ENTITY st13 "fill:none;stroke:#ff0000;stroke-linecap:round;stroke-linejoin:round;">
	<!-- Yellow fill  -->
	<!ENTITY st14 "fill:#FFFF00;stroke:#FFFF00; stroke-width:0.1;stroke-linecap:round;stroke-linejoin:round;">
	<!ENTITY st15 "font-size:6px;font-family:'MS-PGothic';adobe-font-script:japanese;">
	<!ENTITY st16 "1.00 0.00 0.00 1.00">
	<!ENTITY st17 "0.00 -1.00 1.00 0.00">
	<!ENTITY st18 "font-size:6px;font-family:'Arial';">
	<!ENTITY st19 "font-size:9px;font-family:'Arial';">
	<!ENTITY st20 "font-size:6px;font-family:'MS-PGothic','MS PGothic';adobe-font-script:japanese;">
	<!ENTITY st21 "font-size:7px;font-family:'MS-PGothic','MS PGothic';adobe-font-script:japanese;">
	<!ATTLIST svg
		xmlns:ewd CDATA #FIXED "http://shcl.co.jp/ewd"
		xmlns:a CDATA #FIXED "http://ns.adobe.com/AdobeSVGViewerExtensions/3.0/"
		ewd:ver CDATA #IMPLIED
	>
	<!ATTLIST a
		ewd:lineID CDATA #IMPLIED
		ewd:groupID CDATA #IMPLIED
		ewd:figtype CDATA #IMPLIED
		ewd:code CDATA #IMPLIED
		ewd:figID CDATA #IMPLIED
		ewd:pinNo CDATA #IMPLIED
		ewd:comment CDATA #IMPLIED >
	<!ATTLIST g
		ewd:lineID CDATA #IMPLIED
		ewd:groupID CDATA #IMPLIED
		ewd:figtype CDATA #IMPLIED
		ewd:code CDATA #IMPLIED
		ewd:figID CDATA #IMPLIED
		ewd:pinNo CDATA #IMPLIED
		ewd:comment CDATA #IMPLIED >
	<!ATTLIST text
		ewd:textID CDATA #IMPLIED >
	<!ATTLIST title
		ewd:textID CDATA #IMPLIED >
]>
<!-- Generator: Shintec Hozumi YS   -->
<svg onload="call_execInitLoadProc_svg('system')" style="overflow:visible;  enable-background:new 0 0 3072.762 710.000" viewBox="0 0 3072.762 710.000" height="710.000" width="3072.762" xml:space="preserve" ewd:ver="2.3.1.16" xmlns="&ns_svg;" xmlns:a="http://ns.adobe.com/AdobeSVGViewerExtensions/3.0/" xmlns:ewd="http://shcl.co.jp/ewd" xmlns:xlink="&ns_xlink;">
<path d=" M  1152.28,   613.68  L  1147.31,   618.65  " style="stroke-width: 1.42 ;&st7;  " /><path d=" M  1159.33,   630.68  L  1164.31,   625.71  " style="stroke-width: 1.42 ;&st7;  " /><path d=" M  1147.31,   625.71  L  1152.28,   630.68  " style="stroke-width: 1.42 ;&st7;  " /><path d=" M  1164.31,   618.65  L  1159.33,   613.68  " style="stroke-width: 1.42 ;&st7;  " /><path d=" M  1458.23,   554.19  L  1453.26,   559.16  " style="stroke-width: 1.42 ;&st7;  " /><path d=" M  1465.28,   571.19  L  1470.25,   566.22  " style="stroke-width: 1.42 ;&st7;  " /><path d=" M  1453.26,   566.22  L  1458.23,   571.19  " style="stroke-width: 1.42 ;&st7;  " /><path d=" M  1470.25,   559.16  L  1465.28,   554.19  " style="stroke-width: 1.42 ;&st7;  " /><path d=" M  1152.28,   435.21  L  1147.31,   440.18  " style="stroke-width: 1.42 ;&st7;  " /><path d=" M  1159.33,   452.21  L  1164.31,   447.24  " style="stroke-width: 1.42 ;&st7;  " /><path d=" M  1147.31,   447.24  L  1152.28,   452.21  " style="stroke-width: 1.42 ;&st7;  " /><path d=" M  1164.31,   440.18  L  1159.33,   435.21  " style="stroke-width: 1.42 ;&st7;  " /><path d=" M  1152.28,   358.73  L  1147.31,   363.70  " style="stroke-width: 1.42 ;&st7;  " /><path d=" M  1159.33,   375.72  L  1164.31,   370.75  " style="stroke-width: 1.42 ;&st7;  " /><path d=" M  1147.31,   370.75  L  1152.28,   375.72  " style="stroke-width: 1.42 ;&st7;  " /><path d=" M  1164.31,   363.70  L  1159.33,   358.73  " style="stroke-width: 1.42 ;&st7;  " /><path d=" M  1169.27,   248.24  L  1164.31,   253.22  " style="stroke-width: 1.42 ;&st7;  " /><path d=" M  1176.33,   265.24  L  1181.30,   260.27  " style="stroke-width: 1.42 ;&st7;  " /><path d=" M  1164.31,   260.27  L  1169.27,   265.24  " style="stroke-width: 1.42 ;&st7;  " /><path d=" M  1181.30,   253.22  L  1176.33,   248.24  " style="stroke-width: 1.42 ;&st7;  " /><path d=" M  1096.32,    90.30  L  1101.29,    95.27  " style="stroke-width: 1.42 ;&st7;  " /><path d=" M  1113.31,    83.24  L  1108.34,    78.27  " style="stroke-width: 1.42 ;&st7;  " /><path d=" M  1108.34,    95.27  L  1113.31,    90.30  " style="stroke-width: 1.42 ;&st7;  " /><path d=" M  1101.29,    78.27  L  1096.32,    83.24  " style="stroke-width: 1.42 ;&st7;  " /><text style="&st18;" transform="matrix(&st17;  1169.11  157.46 )">W</text><text style="&st18;" transform="matrix(&st16;  1193.24  264.38 )">(*8)</text><text style="&st18;" transform="matrix(&st17;  1441.07  211.49 )">L(*1 *11,*12,*1 *18 *17)</text><text style="&st18;" transform="matrix(&st16;  1049.21  544.83 )">(*1 *11,*12,*1 *18 *17)</text><text style="&st18;" transform="matrix(&st16;  1077.44  533.5 )">L</text><text style="&st18;" transform="matrix(&st16;  1074.26  570.33 )">(*3)</text><text style="&st18;" transform="matrix(&st17;  1152.11  474.93 )">W-B</text><text style="&st18;" transform="matrix(&st17;  1101.12  159.32 )">L-R</text><text style="&st18;" transform="matrix(&st17;  1152.11  406.94 )">W-B</text><text style="&st18;" transform="matrix(&st17;  1152.11  666.15 )">W-B</text><text style="&st18;" transform="matrix(&st16;  1073.91  193.56 )">R-B</text><text style="&st18;" transform="matrix(&st16;  1159.25  83.07 )">L-R</text><text style="&st18;" transform="matrix(&st16;  1405.71  570.33 )">(*3)</text><text style="&st18;" transform="matrix(&st16;  1076.9  601.49 )">R</text><text style="&st18;" transform="matrix(&st16;  1074.26  83.07 )">L-R</text><text style="&st18;" transform="matrix(&st16;  1074.42  40.58 )">B-L</text><text style="&st18;" transform="matrix(&st16;  1077.44  558.99 )">L</text><text style="&st18;" transform="matrix(&st16;  1073.49  643.98 )">W-L</text><text style="&st18;" transform="matrix(&st16;  1074.26  230.38 )">(*8)</text><text style="&st18;" transform="matrix(&st16;  1074.26  204.89 )">(*3)</text><text style="&st18;" transform="matrix(&st16;  1073.91  219.05 )">R-B</text><text style="&st18;" transform="matrix(&st16;  1192.08  618.48 )">W-B</text><text style="&st18;" transform="matrix(&st16;  1193.24  629.82 )">(*3)</text><text style="&st18;" transform="matrix(&st16;  1193.24  349.36 )">(*8)</text><text style="&st18;" transform="matrix(&st16;  1193.24  451.35 )">(*3)</text><text style="&st18;" transform="matrix(&st16;  1193.24  374.86 )">(*8)</text><text style="&st18;" transform="matrix(&st16;  1408.89  558.99 )">L</text><text style="&st18;" transform="matrix(&st16;  1192.08  440.01 )">W-B</text><text style="&st18;" transform="matrix(&st16;  1192.08  363.53 )">W-B</text><text style="&st18;" transform="matrix(&st16;  1195.1  338.03 )">W</text><text style="&st18;" transform="matrix(&st16;  1195.1  253.05 )">W</text><text style="&st18;" transform="matrix(&st17;  1180.44  159.32 )">(*8)</text><text style="&st18;" transform="matrix(&st17;  1205.94  159.32 )">(*3)</text><text style="&st18;" transform="matrix(&st17;  1194.6  157.46 )">W</text><text style="&st18;" transform="matrix(&st17;  1152.11  160.48 )">W-B</text><text style="&st18;" transform="matrix(&st17;  1407.07  197.14 )">L(*1 *15 *17)</text><text style="&st18;" transform="matrix(&st17;  1458.06  186.48 )">L(*3)</text><text style="&st18;" transform="matrix(&st17;  1424.07  384.11 )">L(*1 *15 *17)</text><text style="&st18;" transform="matrix(&st17;  1475.06  181.63 )">L</text><text style="&st18;" transform="matrix(&st16;  1067.28  584.49 )">L(*1 *10)</text><path d=" M  1475.23,   375.72  L  1470.25,   380.69  " style="stroke-width: 1.42 ;&st7;  " /><path d=" M  1482.28,   392.72  L  1487.25,   387.75  " style="stroke-width: 1.42 ;&st7;  " /><path d=" M  1470.25,   387.75  L  1475.22,   392.72  " style="stroke-width: 1.42 ;&st7;  " /><path d=" M  1487.25,   380.69  L  1482.28,   375.72  " style="stroke-width: 1.42 ;&st7;  " /><text style="&st18;" transform="matrix(&st17;  1486.39  190.16 )">(*1 *10)</text><path d=" M  1419.26,   312.71  L  1414.29,   307.73  " style="stroke-width: 1.42 ;&st7;  " /><path d=" M  1402.27,   319.76  L  1407.23,   324.73  " style="stroke-width: 1.42 ;&st7;  " /><path d=" M  1414.29,   324.73  L  1419.26,   319.76  " style="stroke-width: 1.42 ;&st7;  " /><path d=" M  1407.23,   307.73  L  1402.27,   312.71  " style="stroke-width: 1.42 ;&st7;  " /><text style="&st18;" transform="matrix(&st17;  1407.07  384.11 )">L(*1 *15 *17)</text><text style="&st18;" transform="matrix(&st16;  1063.6  516.5 )">L(* *15 *17)</text><g ewd:code="2" ewd:figID="29" ewd:figtype="rb"><path d=" M  1223.80,   142.01  L  1219.55,   142.01  " style="stroke-width: 1.42 ;&st7;  " /><path d=" M  1219.55,   133.51  L  1223.80,   133.51  " style="stroke-width: 1.42 ;&st7;  " /><path d=" M  1219.55,    82.52  L  1223.80,    82.52  " style="stroke-width: 1.42 ;&st7;  " /><path d=" M  1223.80,    91.02  L  1219.55,    91.02  " style="stroke-width: 1.42 ;&st7;  " /><path d=" M  1219.55,   108.02  L  1223.80,   108.02  " style="stroke-width: 1.42 ;&st7;  " /><path d=" M  1223.80,   116.52  L  1219.55,   116.52  " style="stroke-width: 1.42 ;&st7;  " /><path d=" M  1228.04,    86.77  L  1253.54,    86.77  " style="stroke-width: 0.85 ;&st7;  " /><path d=" M  1228.04,   112.27  L  1257.79,   112.27  " style="stroke-width: 0.85 ;&st7;  " /><path d=" M  1228.04,   137.76  C  1228.04    135.42   1226.14    133.51   1223.80    133.51  " style="stroke-width: 1.42 ;&st7;   " /><path d=" M  1223.80,   142.01  C  1226.14    142.01   1228.04    140.11   1228.04    137.76  " style="stroke-width: 1.42 ;&st7;   " /><path d=" M  1215.30,   137.76  C  1215.30    140.11   1217.20    142.01   1219.55    142.01  " style="stroke-width: 1.42 ;&st7;   " /><path d=" M  1219.55,   133.51  C  1217.20    133.51   1215.30    135.42   1215.30    137.76  " style="stroke-width: 1.42 ;&st7;   " /><path d=" M  1228.04,   112.27  C  1228.04    109.92   1226.14    108.02   1223.80    108.02  " style="stroke-width: 1.42 ;&st7;   " /><path d=" M  1223.80,   116.52  C  1226.14    116.52   1228.04    114.61   1228.04    112.27  " style="stroke-width: 1.42 ;&st7;   " /><path d=" M  1215.30,   112.27  C  1215.30    114.61   1217.20    116.52   1219.55    116.52  " style="stroke-width: 1.42 ;&st7;   " /><path d=" M  1219.55,    82.52  C  1217.20     82.52   1215.30     84.42   1215.30     86.77  " style="stroke-width: 1.42 ;&st7;   " /><path d=" M  1215.30,    86.77  C  1215.30     89.12   1217.20     91.02   1219.55     91.02  " style="stroke-width: 1.42 ;&st7;   " /><path d=" M  1223.80,    91.02  C  1226.14     91.02   1228.04     89.12   1228.04     86.77  " style="stroke-width: 1.42 ;&st7;   " /><path d=" M  1228.04,    86.77  C  1228.04     84.42   1226.14     82.52   1223.80     82.52  " style="stroke-width: 1.42 ;&st7;   " /><path d=" M  1219.55,   108.02  C  1217.20    108.02   1215.30    109.92   1215.30    112.27  " style="stroke-width: 1.42 ;&st7;   " /><path d=" M  1232.94,   137.76  L  1235.77,   134.93  L  1231.52,   134.93  L  1228.69,   137.76  L  1231.52,   140.60  L  1235.77,   140.60  L  1232.94,   137.76  " style="stroke-width: 0.28 ;&st9;  " /><path d=" M  1232.94,   112.27  L  1235.77,   109.43  L  1231.52,   109.43  L  1228.69,   112.27  L  1231.52,   115.10  L  1235.77,   115.10  L  1232.94,   112.27  " style="stroke-width: 0.28 ;&st9;  " /><path d=" M  1307.59,   170.75  L  1307.32,   171.22  L  1307.22,   171.76  L  1307.32,   172.29  L  1307.59,   172.76  L  1308.00,   173.11  L  1308.51,   173.29  L  1309.05,   173.29  L  1309.56,   173.11  L  1309.97,   172.76  L  1310.25,   172.29  L  1310.34,   171.76  L  1310.25,   171.22  L  1309.97,   170.75  L  1309.56,   170.41  L  1309.05,   170.22  L  1308.51,   170.22  L  1308.00,   170.41  L  1307.59,   170.75  L  1307.98,   171.47  L  1307.98,   172.05  L  1308.36,   172.49  L  1308.93,   172.59  L  1309.43,   172.30  L  1309.63,   171.76  L  1309.43,   171.21  L  1308.93,   170.92  L  1308.36,   171.02  L  1308.78,   171.76  " style="stroke-width: 0.85 ;&st7;  " /><path d=" M  1307.59,   128.26  L  1307.32,   128.73  L  1307.22,   129.26  L  1307.32,   129.80  L  1307.59,   130.27  L  1308.00,   130.61  L  1308.51,   130.80  L  1309.05,   130.80  L  1309.56,   130.61  L  1309.97,   130.27  L  1310.25,   129.80  L  1310.34,   129.26  L  1310.25,   128.73  L  1309.97,   128.26  L  1309.56,   127.92  L  1309.05,   127.73  L  1308.51,   127.73  L  1308.00,   127.92  L  1307.59,   128.26  L  1307.98,   128.97  L  1307.98,   129.56  L  1308.36,   130.00  L  1308.93,   130.10  L  1309.43,   129.81  L  1309.63,   129.26  L  1309.43,   128.72  L  1308.93,   128.43  L  1308.36,   128.53  L  1308.78,   129.26  " style="stroke-width: 0.85 ;&st7;  " /><path d=" M  1307.59,    85.77  L  1307.32,    86.24  L  1307.22,    86.77  L  1307.32,    87.30  L  1307.59,    87.77  L  1308.00,    88.12  L  1308.51,    88.31  L  1309.05,    88.31  L  1309.56,    88.12  L  1309.97,    87.77  L  1310.25,    87.30  L  1310.34,    86.77  L  1310.25,    86.24  L  1309.97,    85.77  L  1309.56,    85.42  L  1309.05,    85.24  L  1308.51,    85.24  L  1308.00,    85.42  L  1307.59,    85.77  L  1307.98,    86.48  L  1307.98,    87.06  L  1308.36,    87.51  L  1308.93,    87.61  L  1309.43,    87.32  L  1309.63,    86.77  L  1309.43,    86.22  L  1308.93,    85.94  L  1308.36,    86.03  L  1308.78,    86.77  " style="stroke-width: 0.85 ;&st7;  " /><path d=" M  1368.27,   214.25  L  1393.77,   214.25  " style="stroke-width: 0.85 ;&st7;  " /><path d=" M  1368.27,   171.76  L  1393.77,   171.76  " style="stroke-width: 0.85 ;&st7;  " /><path d=" M  1368.27,   129.26  L  1393.77,   129.26  " style="stroke-width: 0.85 ;&st7;  " /><path d=" M  1368.27,    86.77  L  1393.77,    86.77  " style="stroke-width: 0.85 ;&st7;  " /><path d=" M  1308.78,   171.76  L  1325.78,   171.76  " style="stroke-width: 0.85 ;&st7;  " /><path d=" M  1308.78,   129.26  L  1325.78,   129.26  " style="stroke-width: 0.85 ;&st7;  " /><path d=" M  1308.78,    86.77  L  1308.78,   214.25  L  1325.78,   214.25  " style="stroke-width: 0.85 ;&st7;  " /><path d=" M  1283.29,   112.27  L  1300.28,   112.27  L  1300.28,   137.76  L  1228.04,   137.76  " style="stroke-width: 0.85 ;&st7;  " /><path d=" M  1283.29,    86.77  L  1325.78,    86.77  " style="stroke-width: 0.85 ;&st7;  " /><path d=" M  1232.94,    86.77  L  1235.77,    83.94  L  1231.52,    83.94  L  1228.69,    86.77  L  1231.52,    89.60  L  1235.77,    89.60  L  1232.94,    86.77  " style="stroke-width: 0.28 ;&st9;  " /><text style="&st18;" transform="matrix(&st16;  1285.87  108.58 )">2</text><text style="&st18;" transform="matrix(&st16;  1285.87  83.08 )">5</text><text style="&st18;" transform="matrix(&st16;  1219.79  139.73 )">2</text><text style="&st18;" transform="matrix(&st16;  1219.79  114.24 )">2</text><text style="&st18;" transform="matrix(&st16;  1333.98  196.39 )">30A DIFF</text><text style="&st18;" transform="matrix(&st16;  1319.44  168.07 )">1</text><text style="&st18;" transform="matrix(&st16;  1370.85  168.07 )">2</text><text style="&st18;" transform="matrix(&st16;  1370.85  83.08 )">2</text><text style="&st18;" transform="matrix(&st16;  1319.44  83.08 )">1</text><text style="&st18;" transform="matrix(&st16;  1370.85  210.56 )">2</text><text style="&st18;" transform="matrix(&st16;  1319.44  210.56 )">1</text><text style="&st18;" transform="matrix(&st16;  1329.75  153.9 )">15A GAUGE</text><text style="&st18;" transform="matrix(&st16;  1370.85  125.57 )">2</text><text style="&st18;" transform="matrix(&st16;  1319.44  125.57 )">1</text><text style="&st18;" transform="matrix(&st16;  1242.95  108.58 )">1</text><text ewd:textID="20" style="&st18;" transform="matrix(&st16;  1250.3  74.58 )">IG1 1 Relay</text><g ewd:code="" ewd:comment="3" ewd:figID="231" ewd:figtype="commref"><text style="&st18;" transform="matrix(&st16;  1329.17  68.91 )">20A WIP (*3)</text></g><text style="&st18;" transform="matrix(&st16;  1330.26  111.4 )">15A ECU IG</text><text style="&st18;" transform="matrix(&st16;  1242.95  83.08 )">3</text><text style="&st18;" transform="matrix(&st16;  1219.79  88.74 )">2</text><path d=" M  1279.04,    86.77  L  1283.29,    86.77  " style="stroke-width: 0.85 ;&st7;  " /><path d=" M  1256.37,    86.77  L  1279.04,    81.11  " style="stroke-width: 1.42 ;&st7;  " /><path d=" M  1274.79,   112.27  L  1283.29,   112.27  " style="stroke-width: 0.85 ;&st7;  " /><path d=" M  1279.04,    86.77  C  1279.04     85.99   1278.40     85.35   1277.62     85.35  " style="stroke-width: 0.85 ;&st7;   " /><path d=" M  1277.62,    85.35  C  1276.84     85.35   1276.20     85.99   1276.20     86.77  " style="stroke-width: 0.85 ;&st7;   " /><path d=" M  1276.20,    86.77  C  1276.20     87.55   1276.84     88.19   1277.62     88.19  " style="stroke-width: 0.85 ;&st7;   " /><path d=" M  1277.62,    88.19  C  1278.40     88.19   1279.04     87.55   1279.04     86.77  " style="stroke-width: 0.85 ;&st7;   " /><path d=" M  1256.37,    86.77  C  1256.37     85.99   1255.74     85.35   1254.96     85.35  " style="stroke-width: 0.85 ;&st7;   " /><path d=" M  1254.96,    85.35  C  1254.17     85.35   1253.54     85.99   1253.54     86.77  " style="stroke-width: 0.85 ;&st7;   " /><path d=" M  1253.54,    86.77  C  1253.54     87.55   1254.17     88.19   1254.96     88.19  " style="stroke-width: 0.85 ;&st7;   " /><path d=" M  1254.96,    88.19  C  1255.74     88.19   1256.37     87.55   1256.37     86.77  " style="stroke-width: 0.85 ;&st7;   " /><path d=" M  1274.79,   112.27  C  1274.79    110.31   1273.20    108.73   1271.25    108.73  " style="stroke-width: 0.85 ;&st7;   " /><path d=" M  1271.25,   108.73  C  1269.29    108.73   1267.70    110.31   1267.70    112.27  " style="stroke-width: 0.85 ;&st7;   " /><path d=" M  1267.70,   112.27  C  1267.70    113.26   1268.06    114.10   1268.77    114.80  " style="stroke-width: 0.85 ;&st7;   " /><path d=" M  1268.77,   114.80  C  1270.16    113.43   1270.19    111.18   1268.82    109.79  " style="stroke-width: 0.85 ;&st7;   " /><path d=" M  1268.82,   109.79  C  1267.45    108.39   1265.21    108.37   1263.81    109.74  " style="stroke-width: 0.85 ;&st7;   " /><path d=" M  1263.81,   109.74  C  1262.41    111.11   1262.39    113.35   1263.76    114.75  " style="stroke-width: 0.85 ;&st7;   " /><path d=" M  1263.76,   114.75  C  1263.78    114.76   1263.79    114.78   1263.81    114.80  " style="stroke-width: 0.85 ;&st7;   " /><path d=" M  1263.81,   114.80  C  1265.21    113.43   1265.23    111.18   1263.86    109.79  " style="stroke-width: 0.85 ;&st7;   " /><path d=" M  1263.86,   109.79  C  1262.49    108.39   1260.25    108.37   1258.85    109.74  " style="stroke-width: 0.85 ;&st7;   " /><path d=" M  1258.85,   109.74  C  1258.14    110.43   1257.79    111.28   1257.79    112.27  " style="stroke-width: 0.85 ;&st7;   " /><path d=" M  1249.29,    78.27  L  1249.29,   120.77  L  1283.29,   120.77  L  1283.29,    78.27  L  1249.29,    78.27  " style="stroke-width: 1.42 ;&st7;  " /></g><g ewd:code="FUSE32" ewd:figID="30" ewd:figtype="rb"><path d=" M  1334.28,    86.77  L  1325.78,    86.77  " style="stroke-width: 0.85 ;&st7;  " /><path d=" M  1356.94,    86.77  C  1355.33     84.03   1351.80     83.12   1349.06     84.73  " style="stroke-width: 1.42 ;&st7;   " /><path d=" M  1349.06,    84.73  C  1348.18     85.25   1347.54     85.89   1347.02     86.77  " style="stroke-width: 1.42 ;&st7;   " /><path d=" M  1337.11,    86.77  C  1338.72     89.51   1342.25     90.42   1344.99     88.81  " style="stroke-width: 1.42 ;&st7;   " /><path d=" M  1344.99,    88.81  C  1345.87     88.29   1346.51     87.65   1347.02     86.77  " style="stroke-width: 1.42 ;&st7;   " /><path d=" M  1359.77,    86.77  C  1359.77     85.99   1359.14     85.35   1358.36     85.35  " style="stroke-width: 0.85 ;&st7;   " /><path d=" M  1358.36,    85.35  C  1357.57     85.35   1356.94     85.99   1356.94     86.77  " style="stroke-width: 0.85 ;&st7;   " /><path d=" M  1356.94,    86.77  C  1356.94     87.55   1357.57     88.19   1358.36     88.19  " style="stroke-width: 0.85 ;&st7;   " /><path d=" M  1358.36,    88.19  C  1359.14     88.19   1359.77     87.55   1359.77     86.77  " style="stroke-width: 0.85 ;&st7;   " /><path d=" M  1337.11,    86.77  C  1337.11     85.99   1336.48     85.35   1335.69     85.35  " style="stroke-width: 0.85 ;&st7;   " /><path d=" M  1335.69,    85.35  C  1334.91     85.35   1334.28     85.99   1334.28     86.77  " style="stroke-width: 0.85 ;&st7;   " /><path d=" M  1334.28,    86.77  C  1334.28     87.55   1334.91     88.19   1335.69     88.19  " style="stroke-width: 0.85 ;&st7;   " /><path d=" M  1335.69,    88.19  C  1336.48     88.19   1337.11     87.55   1337.11     86.77  " style="stroke-width: 0.85 ;&st7;   " /><path d=" M  1368.27,    86.77  L  1359.77,    86.77  " style="stroke-width: 0.85 ;&st7;  " /><path d=" M  1325.78,    74.02  L  1325.78,    99.52  L  1368.27,    99.52  L  1368.27,    74.02  L  1325.78,    74.02  " style="stroke-width: 1.42 ;&st7;  " /></g><g ewd:code="FUSE23" ewd:figID="31" ewd:figtype="rb"><path d=" M  1334.28,   129.26  L  1325.78,   129.26  " style="stroke-width: 0.85 ;&st7;  " /><path d=" M  1356.94,   129.26  C  1355.33    126.53   1351.80    125.61   1349.06    127.23  " style="stroke-width: 1.42 ;&st7;   " /><path d=" M  1349.06,   127.23  C  1348.18    127.75   1347.54    128.38   1347.02    129.26  " style="stroke-width: 1.42 ;&st7;   " /><path d=" M  1337.11,   129.26  C  1338.72    132.00   1342.25    132.91   1344.99    131.30  " style="stroke-width: 1.42 ;&st7;   " /><path d=" M  1344.99,   131.30  C  1345.87    130.78   1346.51    130.15   1347.02    129.26  " style="stroke-width: 1.42 ;&st7;   " /><path d=" M  1359.77,   129.26  C  1359.77    128.48   1359.14    127.85   1358.36    127.85  " style="stroke-width: 0.85 ;&st7;   " /><path d=" M  1358.36,   127.85  C  1357.57    127.85   1356.94    128.48   1356.94    129.26  " style="stroke-width: 0.85 ;&st7;   " /><path d=" M  1356.94,   129.26  C  1356.94    130.05   1357.57    130.68   1358.36    130.68  " style="stroke-width: 0.85 ;&st7;   " /><path d=" M  1358.36,   130.68  C  1359.14    130.68   1359.77    130.05   1359.77    129.26  " style="stroke-width: 0.85 ;&st7;   " /><path d=" M  1337.11,   129.26  C  1337.11    128.48   1336.48    127.85   1335.69    127.85  " style="stroke-width: 0.85 ;&st7;   " /><path d=" M  1335.69,   127.85  C  1334.91    127.85   1334.28    128.48   1334.28    129.26  " style="stroke-width: 0.85 ;&st7;   " /><path d=" M  1334.28,   129.26  C  1334.28    130.05   1334.91    130.68   1335.69    130.68  " style="stroke-width: 0.85 ;&st7;   " /><path d=" M  1335.69,   130.68  C  1336.48    130.68   1337.11    130.05   1337.11    129.26  " style="stroke-width: 0.85 ;&st7;   " /><path d=" M  1368.27,   129.26  L  1359.77,   129.26  " style="stroke-width: 0.85 ;&st7;  " /><path d=" M  1325.78,   116.52  L  1325.78,   142.01  L  1368.27,   142.01  L  1368.27,   116.52  L  1325.78,   116.52  " style="stroke-width: 1.42 ;&st7;  " /></g><g ewd:code="FUSE26" ewd:figID="32" ewd:figtype="rb"><path d=" M  1334.28,   171.76  L  1325.78,   171.76  " style="stroke-width: 0.85 ;&st7;  " /><path d=" M  1337.11,   171.76  C  1337.11    170.97   1336.48    170.34   1335.69    170.34  " style="stroke-width: 0.85 ;&st7;   " /><path d=" M  1335.69,   170.34  C  1334.91    170.34   1334.28    170.97   1334.28    171.76  " style="stroke-width: 0.85 ;&st7;   " /><path d=" M  1334.28,   171.76  C  1334.28    172.54   1334.91    173.17   1335.69    173.17  " style="stroke-width: 0.85 ;&st7;   " /><path d=" M  1335.69,   173.17  C  1336.48    173.17   1337.11    172.54   1337.11    171.76  " style="stroke-width: 0.85 ;&st7;   " /><path d=" M  1359.77,   171.76  C  1359.77    170.97   1359.14    170.34   1358.36    170.34  " style="stroke-width: 0.85 ;&st7;   " /><path d=" M  1358.36,   170.34  C  1357.57    170.34   1356.94    170.97   1356.94    171.76  " style="stroke-width: 0.85 ;&st7;   " /><path d=" M  1356.94,   171.76  C  1356.94    172.54   1357.57    173.17   1358.36    173.17  " style="stroke-width: 0.85 ;&st7;   " /><path d=" M  1358.36,   173.17  C  1359.14    173.17   1359.77    172.54   1359.77    171.76  " style="stroke-width: 0.85 ;&st7;   " /><path d=" M  1337.11,   171.76  C  1338.72    174.49   1342.25    175.41   1344.99    173.79  " style="stroke-width: 1.42 ;&st7;   " /><path d=" M  1344.99,   173.79  C  1345.87    173.27   1346.51    172.64   1347.02    171.76  " style="stroke-width: 1.42 ;&st7;   " /><path d=" M  1356.94,   171.76  C  1355.33    169.02   1351.80    168.11   1349.06    169.72  " style="stroke-width: 1.42 ;&st7;   " /><path d=" M  1349.06,   169.72  C  1348.18    170.24   1347.54    170.87   1347.02    171.76  " style="stroke-width: 1.42 ;&st7;   " /><path d=" M  1325.78,   159.01  L  1325.78,   184.50  L  1368.27,   184.50  L  1368.27,   159.01  L  1325.78,   159.01  " style="stroke-width: 1.42 ;&st7;  " /><path d=" M  1368.27,   171.76  L  1359.77,   171.76  " style="stroke-width: 0.85 ;&st7;  " /></g><g ewd:code="FUSE33" ewd:figID="33" ewd:figtype="rb"><path d=" M  1334.28,   214.25  L  1325.78,   214.25  " style="stroke-width: 0.85 ;&st7;  " /><path d=" M  1337.11,   214.25  C  1338.72    216.99   1342.25    217.90   1344.99    216.29  " style="stroke-width: 1.42 ;&st7;   " /><path d=" M  1344.99,   216.29  C  1345.87    215.77   1346.51    215.13   1347.02    214.25  " style="stroke-width: 1.42 ;&st7;   " /><path d=" M  1337.11,   214.25  C  1337.11    213.47   1336.48    212.83   1335.69    212.83  " style="stroke-width: 0.85 ;&st7;   " /><path d=" M  1335.69,   212.83  C  1334.91    212.83   1334.28    213.47   1334.28    214.25  " style="stroke-width: 0.85 ;&st7;   " /><path d=" M  1334.28,   214.25  C  1334.28    215.03   1334.91    215.67   1335.69    215.67  " style="stroke-width: 0.85 ;&st7;   " /><path d=" M  1335.69,   215.67  C  1336.48    215.67   1337.11    215.03   1337.11    214.25  " style="stroke-width: 0.85 ;&st7;   " /><path d=" M  1359.77,   214.25  C  1359.77    213.47   1359.14    212.83   1358.36    212.83  " style="stroke-width: 0.85 ;&st7;   " /><path d=" M  1358.36,   212.83  C  1357.57    212.83   1356.94    213.47   1356.94    214.25  " style="stroke-width: 0.85 ;&st7;   " /><path d=" M  1356.94,   214.25  C  1356.94    215.03   1357.57    215.67   1358.36    215.67  " style="stroke-width: 0.85 ;&st7;   " /><path d=" M  1358.36,   215.67  C  1359.14    215.67   1359.77    215.03   1359.77    214.25  " style="stroke-width: 0.85 ;&st7;   " /><path d=" M  1356.94,   214.25  C  1355.33    211.51   1351.80    210.60   1349.06    212.21  " style="stroke-width: 1.42 ;&st7;   " /><path d=" M  1349.06,   212.21  C  1348.18    212.73   1347.54    213.37   1347.02    214.25  " style="stroke-width: 1.42 ;&st7;   " /><path d=" M  1368.27,   214.25  L  1359.77,   214.25  " style="stroke-width: 0.85 ;&st7;  " /><path d=" M  1325.78,   201.50  L  1325.78,   227.00  L  1368.27,   227.00  L  1368.27,   201.50  L  1325.78,   201.50  " style="stroke-width: 1.42 ;&st7;  " /></g><g ewd:code="2" ewd:figID="34" ewd:figtype="rb"><path d=" M  1219.55,   362.97  L  1223.80,   362.97  " style="stroke-width: 1.42 ;&st7;  " /><path d=" M  1219.55,   311.98  L  1223.80,   311.98  " style="stroke-width: 1.42 ;&st7;  " /><path d=" M  1223.80,   320.48  L  1219.55,   320.48  " style="stroke-width: 1.42 ;&st7;  " /><path d=" M  1219.55,   337.48  L  1223.80,   337.48  " style="stroke-width: 1.42 ;&st7;  " /><path d=" M  1223.80,   345.98  L  1219.55,   345.98  " style="stroke-width: 1.42 ;&st7;  " /><path d=" M  1228.04,   316.23  L  1253.54,   316.23  " style="stroke-width: 0.85 ;&st7;  " /><path d=" M  1228.04,   341.73  L  1257.79,   341.73  " style="stroke-width: 0.85 ;&st7;  " /><path d=" M  1223.80,   371.47  L  1219.55,   371.47  " style="stroke-width: 1.42 ;&st7;  " /><path d=" M  1228.04,   367.22  C  1228.04    364.88   1226.14    362.97   1223.80    362.97  " style="stroke-width: 1.42 ;&st7;   " /><path d=" M  1223.80,   371.47  C  1226.14    371.47   1228.04    369.57   1228.04    367.22  " style="stroke-width: 1.42 ;&st7;   " /><path d=" M  1215.30,   367.22  C  1215.30    369.57   1217.20    371.47   1219.55    371.47  " style="stroke-width: 1.42 ;&st7;   " /><path d=" M  1219.55,   362.97  C  1217.20    362.97   1215.30    364.88   1215.30    367.22  " style="stroke-width: 1.42 ;&st7;   " /><path d=" M  1215.30,   341.73  C  1215.30    344.07   1217.20    345.98   1219.55    345.98  " style="stroke-width: 1.42 ;&st7;   " /><path d=" M  1223.80,   345.98  C  1226.14    345.98   1228.04    344.07   1228.04    341.73  " style="stroke-width: 1.42 ;&st7;   " /><path d=" M  1228.04,   341.73  C  1228.04    339.38   1226.14    337.48   1223.80    337.48  " style="stroke-width: 1.42 ;&st7;   " /><path d=" M  1219.55,   311.98  C  1217.20    311.98   1215.30    313.89   1215.30    316.23  " style="stroke-width: 1.42 ;&st7;   " /><path d=" M  1215.30,   316.23  C  1215.30    318.58   1217.20    320.48   1219.55    320.48  " style="stroke-width: 1.42 ;&st7;   " /><path d=" M  1223.80,   320.48  C  1226.14    320.48   1228.04    318.58   1228.04    316.23  " style="stroke-width: 1.42 ;&st7;   " /><path d=" M  1228.04,   316.23  C  1228.04    313.89   1226.14    311.98   1223.80    311.98  " style="stroke-width: 1.42 ;&st7;   " /><path d=" M  1219.55,   337.48  C  1217.20    337.48   1215.30    339.38   1215.30    341.73  " style="stroke-width: 1.42 ;&st7;   " /><path d=" M  1232.94,   367.22  L  1235.77,   364.39  L  1231.52,   364.39  L  1228.69,   367.22  L  1231.52,   370.06  L  1235.77,   370.06  L  1232.94,   367.22  " style="stroke-width: 0.28 ;&st9;  " /><path d=" M  1368.27,   401.22  L  1393.77,   401.22  " style="stroke-width: 0.85 ;&st7;  " /><path d=" M  1368.27,   358.73  L  1393.77,   358.73  " style="stroke-width: 0.85 ;&st7;  " /><path d=" M  1368.27,   316.23  L  1393.77,   316.23  " style="stroke-width: 0.85 ;&st7;  " /><path d=" M  1307.59,   357.72  L  1307.32,   358.19  L  1307.22,   358.73  L  1307.32,   359.26  L  1307.59,   359.73  L  1308.00,   360.07  L  1308.51,   360.26  L  1309.05,   360.26  L  1309.56,   360.07  L  1309.97,   359.73  L  1310.25,   359.26  L  1310.34,   358.73  L  1310.25,   358.19  L  1309.97,   357.72  L  1309.56,   357.38  L  1309.05,   357.19  L  1308.51,   357.19  L  1308.00,   357.38  L  1307.59,   357.72  L  1307.98,   358.43  L  1307.98,   359.02  L  1308.36,   359.46  L  1308.93,   359.56  L  1309.43,   359.27  L  1309.63,   358.73  L  1309.43,   358.18  L  1308.93,   357.89  L  1308.36,   357.99  L  1308.78,   358.73  " style="stroke-width: 0.85 ;&st7;  " /><path d=" M  1307.59,   315.23  L  1307.32,   315.70  L  1307.22,   316.23  L  1307.32,   316.77  L  1307.59,   317.24  L  1308.00,   317.58  L  1308.51,   317.77  L  1309.05,   317.77  L  1309.56,   317.58  L  1309.97,   317.24  L  1310.25,   316.77  L  1310.34,   316.23  L  1310.25,   315.70  L  1309.97,   315.23  L  1309.56,   314.88  L  1309.05,   314.70  L  1308.51,   314.70  L  1308.00,   314.88  L  1307.59,   315.23  L  1307.98,   315.94  L  1307.98,   316.52  L  1308.36,   316.97  L  1308.93,   317.07  L  1309.43,   316.78  L  1309.63,   316.23  L  1309.43,   315.69  L  1308.93,   315.40  L  1308.36,   315.50  L  1308.78,   316.23  " style="stroke-width: 0.85 ;&st7;  " /><path d=" M  1308.78,   358.73  L  1325.78,   358.73  " style="stroke-width: 0.85 ;&st7;  " /><path d=" M  1325.78,   401.22  L  1308.78,   401.22  L  1308.78,   316.23  " style="stroke-width: 0.85 ;&st7;  " /><path d=" M  1283.29,   341.73  L  1300.28,   341.73  L  1300.28,   367.22  L  1228.04,   367.22  " style="stroke-width: 0.85 ;&st7;  " /><path d=" M  1283.29,   316.23  L  1325.78,   316.23  " style="stroke-width: 0.85 ;&st7;  " /><path d=" M  1232.94,   316.23  L  1235.77,   313.40  L  1231.52,   313.40  L  1228.69,   316.23  L  1231.52,   319.07  L  1235.77,   319.07  L  1232.94,   316.23  " style="stroke-width: 0.28 ;&st9;  " /><path d=" M  1232.94,   341.73  L  1235.77,   338.90  L  1231.52,   338.90  L  1228.69,   341.73  L  1231.52,   344.56  L  1235.77,   344.56  L  1232.94,   341.73  " style="stroke-width: 0.28 ;&st9;  " /><text style="&st18;" transform="matrix(&st16;  1285.87  338.04 )">2</text><text style="&st18;" transform="matrix(&st16;  1285.87  312.54 )">5</text><text style="&st18;" transform="matrix(&st16;  1242.95  338.04 )">1</text><text style="&st18;" transform="matrix(&st16;  1219.79  369.19 )">2</text><text style="&st18;" transform="matrix(&st16;  1370.85  397.53 )">2</text><text style="&st18;" transform="matrix(&st16;  1319.44  397.53 )">1</text><g ewd:code="" ewd:comment="8" ewd:figID="236" ewd:figtype="commref"><text style="&st18;" transform="matrix(&st16;  1323.47  383.36 )">30A POWER (*8)</text></g><text style="&st18;" transform="matrix(&st16;  1334.79  340.86 )">20A WIP</text><text ewd:textID="21" style="&st18;" transform="matrix(&st16;  1250.3  304.04 )">IG1 2 Relay</text><text style="&st18;" transform="matrix(&st16;  1325.91  298.37 )">15A FUEL HTR</text><text style="&st18;" transform="matrix(&st16;  1219.79  318.2 )">2</text><text style="&st18;" transform="matrix(&st16;  1319.44  355.04 )">1</text><text style="&st18;" transform="matrix(&st16;  1370.85  355.03 )">2</text><text style="&st18;" transform="matrix(&st16;  1319.44  312.54 )">1</text><text style="&st18;" transform="matrix(&st16;  1370.85  312.54 )">2</text><text style="&st18;" transform="matrix(&st16;  1242.95  312.54 )">3</text><text style="&st18;" transform="matrix(&st16;  1219.79  343.7 )">2</text><path d=" M  1240.79,   401.22  L  1215.30,   401.22  " style="stroke-width: 0.85 ;&st7;  " /><path d=" M  1283.29,   401.22  L  1308.78,   401.22  " style="stroke-width: 0.85 ;&st7;  " /><text style="&st18;" transform="matrix(&st16;  1285.87  397.53 )">1</text><text style="&st18;" transform="matrix(&st16;  1234.45  397.53 )">2</text><g ewd:code="" ewd:comment="19" ewd:figID="237" ewd:figtype="commref"><text style="&st18;" transform="matrix(&st16;  1235.66  383.36 )">10A IG1 NO.1 (*19)</text></g><path d=" M  1307.59,   400.22  L  1307.32,   400.69  L  1307.22,   401.22  L  1307.32,   401.75  L  1307.59,   402.22  L  1308.00,   402.57  L  1308.51,   402.75  L  1309.05,   402.75  L  1309.56,   402.57  L  1309.97,   402.22  L  1310.25,   401.75  L  1310.34,   401.22  L  1310.25,   400.69  L  1309.97,   400.22  L  1309.56,   399.87  L  1309.05,   399.68  L  1308.51,   399.68  L  1308.00,   399.87  L  1307.59,   400.22  L  1307.98,   400.93  L  1307.98,   401.51  L  1308.36,   401.95  L  1308.93,   402.05  L  1309.43,   401.77  L  1309.63,   401.22  L  1309.43,   400.67  L  1308.93,   400.38  L  1308.36,   400.48  L  1308.78,   401.22  " style="stroke-width: 0.85 ;&st7;  " /><path d=" M  1279.04,   316.23  L  1283.29,   316.23  " style="stroke-width: 0.85 ;&st7;  " /><path d=" M  1256.37,   316.23  L  1279.04,   310.57  " style="stroke-width: 1.42 ;&st7;  " /><path d=" M  1274.79,   341.73  L  1283.29,   341.73  " style="stroke-width: 0.85 ;&st7;  " /><path d=" M  1279.04,   316.23  C  1279.04    315.45   1278.40    314.82   1277.62    314.82  " style="stroke-width: 0.85 ;&st7;   " /><path d=" M  1277.62,   314.82  C  1276.84    314.82   1276.20    315.45   1276.20    316.23  " style="stroke-width: 0.85 ;&st7;   " /><path d=" M  1276.20,   316.23  C  1276.20    317.01   1276.84    317.65   1277.62    317.65  " style="stroke-width: 0.85 ;&st7;   " /><path d=" M  1277.62,   317.65  C  1278.40    317.65   1279.04    317.01   1279.04    316.23  " style="stroke-width: 0.85 ;&st7;   " /><path d=" M  1256.37,   316.23  C  1256.37    315.45   1255.74    314.82   1254.96    314.82  " style="stroke-width: 0.85 ;&st7;   " /><path d=" M  1254.96,   314.82  C  1254.17    314.82   1253.54    315.45   1253.54    316.23  " style="stroke-width: 0.85 ;&st7;   " /><path d=" M  1253.54,   316.23  C  1253.54    317.01   1254.17    317.65   1254.96    317.65  " style="stroke-width: 0.85 ;&st7;   " /><path d=" M  1254.96,   317.65  C  1255.74    317.65   1256.37    317.01   1256.37    316.23  " style="stroke-width: 0.85 ;&st7;   " /><path d=" M  1274.79,   341.73  C  1274.79    339.77   1273.20    338.19   1271.25    338.19  " style="stroke-width: 0.85 ;&st7;   " /><path d=" M  1271.25,   338.19  C  1269.29    338.19   1267.70    339.77   1267.70    341.73  " style="stroke-width: 0.85 ;&st7;   " /><path d=" M  1267.70,   341.73  C  1267.70    342.72   1268.06    343.56   1268.77    344.26  " style="stroke-width: 0.85 ;&st7;   " /><path d=" M  1268.77,   344.26  C  1270.16    342.89   1270.19    340.65   1268.82    339.25  " style="stroke-width: 0.85 ;&st7;   " /><path d=" M  1268.82,   339.25  C  1267.45    337.85   1265.21    337.83   1263.81    339.20  " style="stroke-width: 0.85 ;&st7;   " /><path d=" M  1263.81,   339.20  C  1262.41    340.57   1262.39    342.81   1263.76    344.21  " style="stroke-width: 0.85 ;&st7;   " /><path d=" M  1263.76,   344.21  C  1263.78    344.23   1263.79    344.24   1263.81    344.26  " style="stroke-width: 0.85 ;&st7;   " /><path d=" M  1263.81,   344.26  C  1265.21    342.89   1265.23    340.65   1263.86    339.25  " style="stroke-width: 0.85 ;&st7;   " /><path d=" M  1263.86,   339.25  C  1262.49    337.85   1260.25    337.83   1258.85    339.20  " style="stroke-width: 0.85 ;&st7;   " /><path d=" M  1258.85,   339.20  C  1258.14    339.89   1257.79    340.74   1257.79    341.73  " style="stroke-width: 0.85 ;&st7;   " /><path d=" M  1249.29,   307.73  L  1249.29,   350.23  L  1283.29,   350.23  L  1283.29,   307.73  L  1249.29,   307.73  " style="stroke-width: 1.42 ;&st7;  " /></g><g ewd:code="FUSE25" ewd:figID="35" ewd:figtype="rb"><path d=" M  1334.28,   316.23  L  1325.78,   316.23  " style="stroke-width: 0.85 ;&st7;  " /><path d=" M  1356.94,   316.23  C  1355.33    313.49   1351.80    312.58   1349.06    314.20  " style="stroke-width: 1.42 ;&st7;   " /><path d=" M  1349.06,   314.20  C  1348.18    314.72   1347.54    315.35   1347.02    316.23  " style="stroke-width: 1.42 ;&st7;   " /><path d=" M  1337.11,   316.23  C  1338.72    318.97   1342.25    319.88   1344.99    318.27  " style="stroke-width: 1.42 ;&st7;   " /><path d=" M  1344.99,   318.27  C  1345.87    317.75   1346.51    317.11   1347.02    316.23  " style="stroke-width: 1.42 ;&st7;   " /><path d=" M  1359.77,   316.23  C  1359.77    315.45   1359.14    314.82   1358.36    314.82  " style="stroke-width: 0.85 ;&st7;   " /><path d=" M  1358.36,   314.82  C  1357.57    314.82   1356.94    315.45   1356.94    316.23  " style="stroke-width: 0.85 ;&st7;   " /><path d=" M  1356.94,   316.23  C  1356.94    317.01   1357.57    317.65   1358.36    317.65  " style="stroke-width: 0.85 ;&st7;   " /><path d=" M  1358.36,   317.65  C  1359.14    317.65   1359.77    317.01   1359.77    316.23  " style="stroke-width: 0.85 ;&st7;   " /><path d=" M  1337.11,   316.23  C  1337.11    315.45   1336.48    314.82   1335.69    314.82  " style="stroke-width: 0.85 ;&st7;   " /><path d=" M  1335.69,   314.82  C  1334.91    314.82   1334.28    315.45   1334.28    316.23  " style="stroke-width: 0.85 ;&st7;   " /><path d=" M  1334.28,   316.23  C  1334.28    317.01   1334.91    317.65   1335.69    317.65  " style="stroke-width: 0.85 ;&st7;   " /><path d=" M  1335.69,   317.65  C  1336.48    317.65   1337.11    317.01   1337.11    316.23  " style="stroke-width: 0.85 ;&st7;   " /><path d=" M  1368.27,   316.23  L  1359.77,   316.23  " style="stroke-width: 0.85 ;&st7;  " /><path d=" M  1325.78,   303.48  L  1325.78,   328.98  L  1368.27,   328.98  L  1368.27,   303.48  L  1325.78,   303.48  " style="stroke-width: 1.42 ;&st7;  " /></g><g ewd:code="FUSE32" ewd:figID="36" ewd:figtype="rb"><path d=" M  1334.28,   358.73  L  1325.78,   358.73  " style="stroke-width: 0.85 ;&st7;  " /><path d=" M  1359.77,   358.73  C  1359.77    357.94   1359.14    357.31   1358.36    357.31  " style="stroke-width: 0.85 ;&st7;   " /><path d=" M  1358.36,   357.31  C  1357.57    357.31   1356.94    357.94   1356.94    358.73  " style="stroke-width: 0.85 ;&st7;   " /><path d=" M  1356.94,   358.73  C  1356.94    359.51   1357.57    360.14   1358.36    360.14  " style="stroke-width: 0.85 ;&st7;   " /><path d=" M  1358.36,   360.14  C  1359.14    360.14   1359.77    359.51   1359.77    358.73  " style="stroke-width: 0.85 ;&st7;   " /><path d=" M  1337.11,   358.73  C  1338.72    361.46   1342.25    362.38   1344.99    360.76  " style="stroke-width: 1.42 ;&st7;   " /><path d=" M  1344.99,   360.76  C  1345.87    360.24   1346.51    359.61   1347.02    358.73  " style="stroke-width: 1.42 ;&st7;   " /><path d=" M  1356.94,   358.73  C  1355.33    355.99   1351.80    355.08   1349.06    356.69  " style="stroke-width: 1.42 ;&st7;   " /><path d=" M  1349.06,   356.69  C  1348.18    357.21   1347.54    357.84   1347.02    358.73  " style="stroke-width: 1.42 ;&st7;   " /><path d=" M  1337.11,   358.73  C  1337.11    357.94   1336.48    357.31   1335.69    357.31  " style="stroke-width: 0.85 ;&st7;   " /><path d=" M  1335.69,   357.31  C  1334.91    357.31   1334.28    357.94   1334.28    358.73  " style="stroke-width: 0.85 ;&st7;   " /><path d=" M  1334.28,   358.73  C  1334.28    359.51   1334.91    360.14   1335.69    360.14  " style="stroke-width: 0.85 ;&st7;   " /><path d=" M  1335.69,   360.14  C  1336.48    360.14   1337.11    359.51   1337.11    358.73  " style="stroke-width: 0.85 ;&st7;   " /><path d=" M  1325.78,   345.98  L  1325.78,   371.47  L  1368.27,   371.47  L  1368.27,   345.98  L  1325.78,   345.98  " style="stroke-width: 1.42 ;&st7;  " /><path d=" M  1368.27,   358.73  L  1359.77,   358.73  " style="stroke-width: 0.85 ;&st7;  " /></g><g ewd:code="FUSE35" ewd:figID="37" ewd:figtype="rb"><path d=" M  1334.28,   401.22  L  1325.78,   401.22  " style="stroke-width: 0.85 ;&st7;  " /><path d=" M  1356.94,   401.22  C  1355.33    398.48   1351.80    397.57   1349.06    399.18  " style="stroke-width: 1.42 ;&st7;   " /><path d=" M  1349.06,   399.18  C  1348.18    399.70   1347.54    400.34   1347.02    401.22  " style="stroke-width: 1.42 ;&st7;   " /><path d=" M  1337.11,   401.22  C  1338.72    403.96   1342.25    404.87   1344.99    403.26  " style="stroke-width: 1.42 ;&st7;   " /><path d=" M  1344.99,   403.26  C  1345.87    402.74   1346.51    402.10   1347.02    401.22  " style="stroke-width: 1.42 ;&st7;   " /><path d=" M  1337.11,   401.22  C  1337.11    400.44   1336.48    399.80   1335.69    399.80  " style="stroke-width: 0.85 ;&st7;   " /><path d=" M  1335.69,   399.80  C  1334.91    399.80   1334.28    400.44   1334.28    401.22  " style="stroke-width: 0.85 ;&st7;   " /><path d=" M  1334.28,   401.22  C  1334.28    402.00   1334.91    402.63   1335.69    402.63  " style="stroke-width: 0.85 ;&st7;   " /><path d=" M  1335.69,   402.63  C  1336.48    402.63   1337.11    402.00   1337.11    401.22  " style="stroke-width: 0.85 ;&st7;   " /><path d=" M  1359.77,   401.22  C  1359.77    400.44   1359.14    399.80   1358.36    399.80  " style="stroke-width: 0.85 ;&st7;   " /><path d=" M  1358.36,   399.80  C  1357.57    399.80   1356.94    400.44   1356.94    401.22  " style="stroke-width: 0.85 ;&st7;   " /><path d=" M  1356.94,   401.22  C  1356.94    402.00   1357.57    402.63   1358.36    402.63  " style="stroke-width: 0.85 ;&st7;   " /><path d=" M  1358.36,   402.63  C  1359.14    402.63   1359.77    402.00   1359.77    401.22  " style="stroke-width: 0.85 ;&st7;   " /><path d=" M  1325.78,   388.47  L  1325.78,   413.97  L  1368.27,   413.97  L  1368.27,   388.47  L  1325.78,   388.47  " style="stroke-width: 1.42 ;&st7;  " /><path d=" M  1368.27,   401.22  L  1359.77,   401.22  " style="stroke-width: 0.85 ;&st7;  " /></g><g ewd:code="FUSE14" ewd:figID="62" ewd:figtype="rb"><path d=" M  1249.29,   401.22  L  1240.79,   401.22  " style="stroke-width: 0.85 ;&st7;  " /><path d=" M  1271.95,   401.22  C  1270.34    398.48   1266.81    397.57   1264.08    399.18  " style="stroke-width: 1.42 ;&st7;   " /><path d=" M  1264.08,   399.18  C  1263.19    399.70   1262.56    400.34   1262.04    401.22  " style="stroke-width: 1.42 ;&st7;   " /><path d=" M  1252.12,   401.22  C  1253.74    403.96   1257.26    404.87   1260.00    403.26  " style="stroke-width: 1.42 ;&st7;   " /><path d=" M  1260.00,   403.26  C  1260.88    402.74   1261.52    402.10   1262.04    401.22  " style="stroke-width: 1.42 ;&st7;   " /><path d=" M  1252.12,   401.22  C  1252.12    400.44   1251.49    399.80   1250.71    399.80  " style="stroke-width: 0.85 ;&st7;   " /><path d=" M  1250.71,   399.80  C  1249.93    399.80   1249.29    400.44   1249.29    401.22  " style="stroke-width: 0.85 ;&st7;   " /><path d=" M  1249.29,   401.22  C  1249.29    402.00   1249.93    402.63   1250.71    402.63  " style="stroke-width: 0.85 ;&st7;   " /><path d=" M  1250.71,   402.63  C  1251.49    402.63   1252.12    402.00   1252.12    401.22  " style="stroke-width: 0.85 ;&st7;   " /><path d=" M  1274.79,   401.22  C  1274.79    400.44   1274.15    399.80   1273.37    399.80  " style="stroke-width: 0.85 ;&st7;   " /><path d=" M  1273.37,   399.80  C  1272.59    399.80   1271.95    400.44   1271.95    401.22  " style="stroke-width: 0.85 ;&st7;   " /><path d=" M  1271.95,   401.22  C  1271.95    402.00   1272.59    402.63   1273.37    402.63  " style="stroke-width: 0.85 ;&st7;   " /><path d=" M  1273.37,   402.63  C  1274.15    402.63   1274.79    402.00   1274.79    401.22  " style="stroke-width: 0.85 ;&st7;   " /><path d=" M  1240.79,   388.47  L  1240.79,   413.97  L  1283.29,   413.97  L  1283.29,   388.47  L  1240.79,   388.47  " style="stroke-width: 1.42 ;&st7;  " /><path d=" M  1283.29,   401.22  L  1274.79,   401.22  " style="stroke-width: 0.85 ;&st7;  " /></g><g ewd:code="IL3" ewd:figID="100" ewd:figtype="w2w"><path d=" M  1509.91,    48.53  L  1505.66,    44.28  L  1509.91,    40.03  " style="stroke-width: 1.42 ;&st7;  " /><path d=" M  1513.31,    48.53  L  1509.06,    44.28  L  1513.31,    40.03  " style="stroke-width: 1.42 ;&st7;  " /><text style="&st18;" transform="matrix(&st16;  1493.87  37.04 )">4</text></g><g ewd:code="IC" ewd:figID="111" ewd:figtype="gp"><path d=" M  1154.39,   710.00  L  1157.22,   710.00  " style="stroke-width: 0.85 ;&st7;  " /><path d=" M  1152.97,   707.17  L  1158.64,   707.17  " style="stroke-width: 0.85 ;&st7;  " /><path d=" M  1151.56,   704.33  L  1160.06,   704.33  " style="stroke-width: 0.85 ;&st7;  " /><path d=" M  1147.31,   701.50  L  1164.30,   701.50  " style="stroke-width: 0.85 ;&st7;  " /><path d=" M  1155.81,   697.25  L  1155.81,   701.50  " style="stroke-width: 0.85 ;&st7;  " /></g><g ewd:code="1" ewd:comment="" ewd:figID="215" ewd:figtype="comment"><text style="&st18;" transform="matrix(&st16;  1271.38  658.14 )">* 1 :1VD-FTV</text></g><g ewd:code="17" ewd:comment="" ewd:figID="226" ewd:figtype="comment"><text ewd:textID="10" style="&st18;" transform="matrix(&st16;  1424.36  666.64 )">*17 :From Sep. 2022 Production</text></g><g ewd:code="10" ewd:comment="" ewd:figID="217" ewd:figtype="comment"><text ewd:textID="6" style="&st18;" transform="matrix(&st16;  1271.38  683.64 )">*10 :Australia</text></g><g ewd:code="3" ewd:comment="" ewd:figID="203" ewd:figtype="comment"><text ewd:textID="1" style="&st18;" transform="matrix(&st16;  1271.38  666.64 )">* 3 :1HZ 24V Battery Type</text></g><g ewd:code="12" ewd:comment="" ewd:figID="218" ewd:figtype="comment"><text ewd:textID="8" style="&st18;" transform="matrix(&st16;  1271.38  700.64 )">*12 :1HZ 12V Battery Type</text></g><g ewd:code="15" ewd:comment="" ewd:figID="222" ewd:figtype="comment"><text ewd:textID="9" style="&st18;" transform="matrix(&st16;  1424.36  658.14 )">*15 :Middle East</text></g><g ewd:code="18" ewd:comment="" ewd:figID="227" ewd:figtype="comment"><text ewd:textID="11" style="&st18;" transform="matrix(&st16;  1424.36  675.14 )">*18 :Except Middle East</text></g><g ewd:code="19" ewd:comment="" ewd:figID="229" ewd:figtype="comment"><text ewd:textID="12" style="&st18;" transform="matrix(&st16;  1424.36  683.64 )">*19 :w/ Pre-Collision System</text></g><g ewd:code="11" ewd:comment="" ewd:figID="216" ewd:figtype="comment"><text ewd:textID="7" style="&st18;" transform="matrix(&st16;  1271.38  692.14 )">*11 :Except Australia</text></g><g ewd:code="8" ewd:comment="" ewd:figID="202" ewd:figtype="comment"><text ewd:textID="4" style="&st18;" transform="matrix(&st16;  1271.38  675.14 )">* 8 :1VD-FTV, 1HZ 12V Battery Type</text></g></svg>