<?xml version="1.0" encoding="utf-8"?>
<!DOCTYPE svg PUBLIC "-//W3C//DTD SVG 1.0//EN" "http://www.w3.org/TR/2001/REC-SVG-20010904/DTD/svg10.dtd"[
	<!ENTITY ns_flows "http://ns.adobe.com/Flows/1.0/">
	<!ENTITY ns_svg "http://www.w3.org/2000/svg">
	<!ENTITY ns_xlink "http://www.w3.org/1999/xlink">
	<!ENTITY st0 "font-size:7px;font-family:'MS-PGothic';adobe-font-script:japanese;">
	<!ENTITY st1 "font-size:6px;font-family:'ArialMT';">
	<!-- White fill  -->
	<!ENTITY st2 "fill:#FFFFFF;stroke:#000000; stroke-width:1.41;stroke-linecap:round;stroke-linejoin:round;">
	<!-- Yellow fill  -->
	<!ENTITY st3 "fill:#FFFFCC;stroke:#FFFFCC; stroke-width:0.1;stroke-linecap:round;stroke-linejoin:round;">
	<!-- Gray fill  -->
	<!ENTITY st4 "fill:#CCCCCC;stroke:#CCCCCC; stroke-width:0.1;stroke-linecap:round;stroke-linejoin:round;">
	<!-- Light-blue fill -->
	<!ENTITY st5 "fill:#CCECF4;stroke:#000000; stroke-width:1.133;stroke-linecap:round;stroke-linejoin:round;">
	<!ENTITY st6 "fill:none;stroke-linecap:butt; stroke-linejoin:round;">
	<!ENTITY st7 "fill:none;stroke:#000000;stroke-linecap:round;stroke-linejoin:round;">
	<!ENTITY st8 "enable-background:new    ;">
	<!-- Black fill -->
	<!ENTITY st9 "fill:#000000;stroke:#000000; stroke-linecap:round;stroke-linejoin:round;">
	<!-- SRS note   -->
	<!ENTITY st10 "font-size:9px;font-family:'ArialMT';">
	<!ENTITY st11 "font-size:9px;font-family:'Svg Symbol';">
	<!ENTITY st12 "font-size:6px;font-family:'Svg Symbol';">
	<!ENTITY st13 "fill:none;stroke:#ff0000;stroke-linecap:round;stroke-linejoin:round;">
	<!-- Yellow fill  -->
	<!ENTITY st14 "fill:#FFFF00;stroke:#FFFF00; stroke-width:0.1;stroke-linecap:round;stroke-linejoin:round;">
	<!ENTITY st15 "font-size:6px;font-family:'MS-PGothic';adobe-font-script:japanese;">
	<!ENTITY st16 "1.00 0.00 0.00 1.00">
	<!ENTITY st17 "0.00 -1.00 1.00 0.00">
	<!ENTITY st18 "font-size:6px;font-family:'Arial';">
	<!ENTITY st19 "font-size:9px;font-family:'Arial';">
	<!ENTITY st20 "font-size:6px;font-family:'MS-PGothic','MS PGothic';adobe-font-script:japanese;">
	<!ENTITY st21 "font-size:7px;font-family:'MS-PGothic','MS PGothic';adobe-font-script:japanese;">
	<!ATTLIST svg
		xmlns:ewd CDATA #FIXED "http://shcl.co.jp/ewd"
		xmlns:a CDATA #FIXED "http://ns.adobe.com/AdobeSVGViewerExtensions/3.0/"
		ewd:ver CDATA #IMPLIED
	>
	<!ATTLIST a
		ewd:lineID CDATA #IMPLIED
		ewd:groupID CDATA #IMPLIED
		ewd:figtype CDATA #IMPLIED
		ewd:code CDATA #IMPLIED
		ewd:figID CDATA #IMPLIED
		ewd:pinNo CDATA #IMPLIED
		ewd:comment CDATA #IMPLIED >
	<!ATTLIST g
		ewd:lineID CDATA #IMPLIED
		ewd:groupID CDATA #IMPLIED
		ewd:figtype CDATA #IMPLIED
		ewd:code CDATA #IMPLIED
		ewd:figID CDATA #IMPLIED
		ewd:pinNo CDATA #IMPLIED
		ewd:comment CDATA #IMPLIED >
	<!ATTLIST text
		ewd:textID CDATA #IMPLIED >
	<!ATTLIST title
		ewd:textID CDATA #IMPLIED >
]>
<!-- Generator: Shintec Hozumi YS   -->
<svg onload="call_execInitLoadProc_svg('system')" style="overflow:visible;  enable-background:new 0 0 2048.583 710.000" viewBox="0 0 2048.583 710.000" height="710.000" width="2048.583" xml:space="preserve" ewd:ver="2.3.1.16" xmlns="&ns_svg;" xmlns:a="http://ns.adobe.com/AdobeSVGViewerExtensions/3.0/" xmlns:ewd="http://shcl.co.jp/ewd" xmlns:xlink="&ns_xlink;"><script type="text/javascript" xlink:href="../../../../../system/js/ewd/fig/svgfig.js" xmlns:xlink="http://www.w3.org/1999/xlink" />
<g id="ewd_top"><a ewd:code="FUSE31" ewd:figID="1" ewd:figtype="rb" style="cursor:pointer;"><path d=" M   645.89,   277.99  L   645.89,   303.48  L   688.38,   303.48  L   688.38,   277.99  L   645.89,   277.99 " style="fill:#CCECF4;stroke:#000000; stroke-width:0; stroke-linecap:round;stroke-linejoin:round; " /></a><a ewd:code="FUSE2" ewd:figID="2" ewd:figtype="rb" style="cursor:pointer;"><path d=" M   645.89,   320.48  L   645.89,   345.98  L   688.38,   345.98  L   688.38,   320.48  L   645.89,   320.48 " style="fill:#CCECF4;stroke:#000000; stroke-width:0; stroke-linecap:round;stroke-linejoin:round; " /></a><a ewd:code="FUSE60" ewd:figID="3" ewd:figtype="rb" style="cursor:pointer;"><path d=" M   237.96,   532.95  L   237.96,   558.44  L   280.45,   558.44  L   280.45,   532.95  L   237.96,   532.95 " style="fill:#CCECF4;stroke:#000000; stroke-width:0; stroke-linecap:round;stroke-linejoin:round; " /></a><a ewd:code="FUSE57" ewd:figID="4" ewd:figtype="rb" style="cursor:pointer;"><path d=" M   237.96,   634.93  L   237.96,   660.42  L   280.45,   660.42  L   280.45,   634.93  L   237.96,   634.93 " style="fill:#CCECF4;stroke:#000000; stroke-width:0; stroke-linecap:round;stroke-linejoin:round; " /></a><a ewd:code="FUSE55" ewd:figID="5" ewd:figtype="rb" style="cursor:pointer;"><path d=" M   237.96,   575.44  L   237.96,   600.93  L   280.45,   600.93  L   280.45,   575.44  L   237.96,   575.44 " style="fill:#CCECF4;stroke:#000000; stroke-width:0; stroke-linecap:round;stroke-linejoin:round; " /></a><a ewd:code="FUSE29" ewd:figID="6" ewd:figtype="rb" style="cursor:pointer;"><path d=" M   926.35,   320.48  L   926.35,   345.98  L   968.84,   345.98  L   968.84,   320.48  L   926.35,   320.48 " style="fill:#CCECF4;stroke:#000000; stroke-width:0; stroke-linecap:round;stroke-linejoin:round; " /></a><a ewd:code="2" ewd:figID="7" ewd:figtype="rb" style="cursor:pointer;"><path d=" M   671.39,   171.76  L   671.39,   214.25  L   705.38,   214.25  L   705.38,   171.76  L   671.39,   171.76 " style="fill:#CCECF4;stroke:#000000; stroke-width:0; stroke-linecap:round;stroke-linejoin:round; " /></a><a ewd:code="FUSE11" ewd:figID="8" ewd:figtype="rb" style="cursor:pointer;"><path d=" M  1980.17,   439.46  L  1980.17,   464.96  L  2022.66,   464.96  L  2022.66,   439.46  L  1980.17,   439.46 " style="fill:#CCECF4;stroke:#000000; stroke-width:0; stroke-linecap:round;stroke-linejoin:round; " /></a><a ewd:code="2" ewd:figID="9" ewd:figtype="rb" style="cursor:pointer;"><path d=" M  1801.70,   537.20  L  1801.70,   579.69  L  1835.69,   579.69  L  1835.69,   537.20  L  1801.70,   537.20 " style="fill:#CCECF4;stroke:#000000; stroke-width:0; stroke-linecap:round;stroke-linejoin:round; " /></a><a ewd:code="FUSE12" ewd:figID="10" ewd:figtype="rb" style="cursor:pointer;"><path d=" M  1980.17,   396.97  L  1980.17,   422.46  L  2022.66,   422.46  L  2022.66,   396.97  L  1980.17,   396.97 " style="fill:#CCECF4;stroke:#000000; stroke-width:0; stroke-linecap:round;stroke-linejoin:round; " /></a><a ewd:code="2" ewd:figID="11" ewd:figtype="rb" style="cursor:pointer;"><path d=" M  1351.27,   613.68  L  1385.27,   613.68  L  1385.27,   630.68  L  1351.27,   630.68  L  1351.27,   613.68 " style="fill:#CCECF4;stroke:#000000; stroke-width:0; stroke-linecap:round;stroke-linejoin:round; " /></a><a ewd:code="FUSE26" ewd:figID="12" ewd:figtype="rb" style="cursor:pointer;"><path d=" M  1376.77,    82.52  L  1376.77,   108.02  L  1419.26,   108.02  L  1419.26,    82.52  L  1376.77,    82.52 " style="fill:#CCECF4;stroke:#000000; stroke-width:0; stroke-linecap:round;stroke-linejoin:round; " /></a><a ewd:code="FUSE17" ewd:figID="13" ewd:figtype="rb" style="cursor:pointer;"><path d=" M  1980.17,   252.49  L  1980.17,   277.99  L  2022.66,   277.99  L  2022.66,   252.49  L  1980.17,   252.49 " style="fill:#CCECF4;stroke:#000000; stroke-width:0; stroke-linecap:round;stroke-linejoin:round; " /></a><a ewd:code="FUSE19" ewd:figID="14" ewd:figtype="rb" style="cursor:pointer;"><path d=" M  1980.17,   532.95  L  1980.17,   558.44  L  2022.66,   558.44  L  2022.66,   532.95  L  1980.17,   532.95 " style="fill:#CCECF4;stroke:#000000; stroke-width:0; stroke-linecap:round;stroke-linejoin:round; " /></a><a ewd:code="FUSE21" ewd:figID="15" ewd:figtype="rb" style="cursor:pointer;"><path d=" M  1980.17,   575.44  L  1980.17,   600.93  L  2022.66,   600.93  L  2022.66,   575.44  L  1980.17,   575.44 " style="fill:#CCECF4;stroke:#000000; stroke-width:0; stroke-linecap:round;stroke-linejoin:round; " /></a><a ewd:code="FUSE10" ewd:figID="16" ewd:figtype="rb" style="cursor:pointer;"><path d=" M  1980.17,   481.95  L  1980.17,   507.45  L  2022.66,   507.45  L  2022.66,   481.95  L  1980.17,   481.95 " style="fill:#CCECF4;stroke:#000000; stroke-width:0; stroke-linecap:round;stroke-linejoin:round; " /></a><a ewd:code="L21" ewd:figID="17" ewd:figtype="conn" style="cursor:pointer;"><path d=" M  1623.23,   188.75  L  1682.72,   188.75  L  1682.72,    69.77  L  1623.23,    69.77  L  1623.23,   188.75 " style="fill:#CCECF4;stroke:#000000; stroke-width:1.133; stroke-linecap:round;stroke-linejoin:round; " /><title ewd:textID="8">Ignition or Starter Switch Assembly</title></a><a ewd:code="FUSE37" ewd:figID="18" ewd:figtype="rb" style="cursor:pointer;"><path d=" M  1308.78,   566.94  L  1308.78,   592.44  L  1351.27,   592.44  L  1351.27,   566.94  L  1308.78,   566.94 " style="fill:#CCECF4;stroke:#000000; stroke-width:0; stroke-linecap:round;stroke-linejoin:round; " /></a><a ewd:code="FUSE13" ewd:figID="19" ewd:figtype="rb" style="cursor:pointer;"><path d=" M  1980.17,   354.48  L  1980.17,   379.97  L  2022.66,   379.97  L  2022.66,   354.48  L  1980.17,   354.48 " style="fill:#CCECF4;stroke:#000000; stroke-width:0; stroke-linecap:round;stroke-linejoin:round; " /></a><a ewd:code="FUSE48" ewd:figID="20" ewd:figtype="rb" style="cursor:pointer;"><path d=" M   237.96,   311.98  L   237.96,   337.48  L   280.45,   337.48  L   280.45,   311.98  L   237.96,   311.98 " style="fill:#CCECF4;stroke:#000000; stroke-width:0; stroke-linecap:round;stroke-linejoin:round; " /></a><a ewd:code="FUSE22" ewd:figID="21" ewd:figtype="rb" style="cursor:pointer;"><path d=" M  1980.17,    74.02  L  1980.17,    99.52  L  2022.66,    99.52  L  2022.66,    74.02  L  1980.17,    74.02 " style="fill:#CCECF4;stroke:#000000; stroke-width:0; stroke-linecap:round;stroke-linejoin:round; " /></a><a ewd:code="FUSE49" ewd:figID="22" ewd:figtype="rb" style="cursor:pointer;"><path d=" M   237.96,   269.49  L   237.96,   294.99  L   280.45,   294.99  L   280.45,   269.49  L   237.96,   269.49 " style="fill:#CCECF4;stroke:#000000; stroke-width:0; stroke-linecap:round;stroke-linejoin:round; " /></a><a ewd:code="FUSE50" ewd:figID="23" ewd:figtype="rb" style="cursor:pointer;"><path d=" M   237.96,   354.48  L   237.96,   379.97  L   280.45,   379.97  L   280.45,   354.48  L   237.96,   354.48 " style="fill:#CCECF4;stroke:#000000; stroke-width:0; stroke-linecap:round;stroke-linejoin:round; " /></a><a ewd:code="FUSE35" ewd:figID="24" ewd:figtype="rb" style="cursor:pointer;"><path d=" M  1376.77,   311.98  L  1376.77,   337.48  L  1419.26,   337.48  L  1419.26,   311.98  L  1376.77,   311.98 " style="fill:#CCECF4;stroke:#000000; stroke-width:0; stroke-linecap:round;stroke-linejoin:round; " /></a><a ewd:code="FUSE1" ewd:figID="25" ewd:figtype="rb" style="cursor:pointer;"><path d=" M  1980.17,   116.52  L  1980.17,   142.01  L  2022.66,   142.01  L  2022.66,   116.52  L  1980.17,   116.52 " style="fill:#CCECF4;stroke:#000000; stroke-width:0; stroke-linecap:round;stroke-linejoin:round; " /></a><a ewd:code="2" ewd:figID="26" ewd:figtype="rb" style="cursor:pointer;"><path d=" M   747.88,   486.20  L   747.88,   528.70  L   781.87,   528.70  L   781.87,   486.20  L   747.88,   486.20 " style="fill:#CCECF4;stroke:#000000; stroke-width:0; stroke-linecap:round;stroke-linejoin:round; " /></a><a ewd:code="FUSE34" ewd:figID="27" ewd:figtype="rb" style="cursor:pointer;"><path d=" M  1308.78,   651.93  L  1308.78,   677.42  L  1351.27,   677.42  L  1351.27,   651.93  L  1308.78,   651.93 " style="fill:#CCECF4;stroke:#000000; stroke-width:0; stroke-linecap:round;stroke-linejoin:round; " /></a><a ewd:code="FUSE47" ewd:figID="28" ewd:figtype="rb" style="cursor:pointer;"><path d=" M   161.47,   396.97  L   161.47,   422.46  L   203.97,   422.46  L   203.97,   396.97  L   161.47,   396.97 " style="fill:#CCECF4;stroke:#000000; stroke-width:0; stroke-linecap:round;stroke-linejoin:round; " /></a><a ewd:code="FUSE5" ewd:figID="29" ewd:figtype="rb" style="cursor:pointer;"><path d=" M  1436.26,   566.94  L  1436.26,   592.44  L  1478.75,   592.44  L  1478.75,   566.94  L  1436.26,   566.94 " style="fill:#CCECF4;stroke:#000000; stroke-width:0; stroke-linecap:round;stroke-linejoin:round; " /></a><a ewd:code="FUSE16" ewd:figID="30" ewd:figtype="rb" style="cursor:pointer;"><path d=" M  1980.17,   210.00  L  1980.17,   235.50  L  2022.66,   235.50  L  2022.66,   210.00  L  1980.17,   210.00 " style="fill:#CCECF4;stroke:#000000; stroke-width:0; stroke-linecap:round;stroke-linejoin:round; " /></a><a ewd:code="FUSE24" ewd:figID="31" ewd:figtype="rb" style="cursor:pointer;"><path d=" M  1376.77,   371.47  L  1376.77,   396.97  L  1419.26,   396.97  L  1419.26,   371.47  L  1376.77,   371.47 " style="fill:#CCECF4;stroke:#000000; stroke-width:0; stroke-linecap:round;stroke-linejoin:round; " /></a><a ewd:code="FUSE56" ewd:figID="32" ewd:figtype="rb" style="cursor:pointer;"><path d=" M   237.96,   396.97  L   237.96,   422.46  L   280.45,   422.46  L   280.45,   396.97  L   237.96,   396.97 " style="fill:#CCECF4;stroke:#000000; stroke-width:0; stroke-linecap:round;stroke-linejoin:round; " /></a><a ewd:code="FUSE6" ewd:figID="33" ewd:figtype="rb" style="cursor:pointer;"><path d=" M  1436.26,   609.43  L  1436.26,   634.93  L  1478.75,   634.93  L  1478.75,   609.43  L  1436.26,   609.43 " style="fill:#CCECF4;stroke:#000000; stroke-width:0; stroke-linecap:round;stroke-linejoin:round; " /></a><a ewd:code="FUSE25" ewd:figID="34" ewd:figtype="rb" style="cursor:pointer;"><path d=" M  1376.77,   227.00  L  1376.77,   252.49  L  1419.26,   252.49  L  1419.26,   227.00  L  1376.77,   227.00 " style="fill:#CCECF4;stroke:#000000; stroke-width:0; stroke-linecap:round;stroke-linejoin:round; " /></a><a ewd:code="FUSE54" ewd:figID="35" ewd:figtype="rb" style="cursor:pointer;"><path d=" M   161.47,   439.46  L   161.47,   464.96  L   203.97,   464.96  L   203.97,   439.46  L   161.47,   439.46 " style="fill:#CCECF4;stroke:#000000; stroke-width:0; stroke-linecap:round;stroke-linejoin:round; " /></a><a ewd:code="FUSE36" ewd:figID="36" ewd:figtype="rb" style="cursor:pointer;"><path d=" M   645.89,   362.97  L   645.89,   388.47  L   688.38,   388.47  L   688.38,   362.97  L   645.89,   362.97 " style="fill:#CCECF4;stroke:#000000; stroke-width:0; stroke-linecap:round;stroke-linejoin:round; " /></a><a ewd:code="FUSE23" ewd:figID="37" ewd:figtype="rb" style="cursor:pointer;"><path d=" M  1376.77,   125.01  L  1376.77,   150.51  L  1419.26,   150.51  L  1419.26,   125.01  L  1376.77,   125.01 " style="fill:#CCECF4;stroke:#000000; stroke-width:0; stroke-linecap:round;stroke-linejoin:round; " /></a><a ewd:code="FUSE9" ewd:figID="38" ewd:figtype="rb" style="cursor:pointer;"><path d=" M   909.35,   575.44  L   909.35,   600.93  L   951.84,   600.93  L   951.84,   575.44  L   909.35,   575.44 " style="fill:#CCECF4;stroke:#000000; stroke-width:0; stroke-linecap:round;stroke-linejoin:round; " /></a><a ewd:code="FUSE58" ewd:figID="39" ewd:figtype="rb" style="cursor:pointer;"><path d=" M   237.96,   439.46  L   237.96,   464.96  L   280.45,   464.96  L   280.45,   439.46  L   237.96,   439.46 " style="fill:#CCECF4;stroke:#000000; stroke-width:0; stroke-linecap:round;stroke-linejoin:round; " /></a><a ewd:code="I19" ewd:figID="40" ewd:figtype="conn" style="cursor:pointer;"><path d=" M   815.86,   367.22  L   781.87,   367.22  L   781.87,   384.22  L   815.86,   384.22  L   815.86,   367.22 " style="fill:#CCECF4;stroke:#000000; stroke-width:1.133; stroke-linecap:round;stroke-linejoin:round; " /><title ewd:textID="9">Stop Light Switch Assembly</title></a><a ewd:code="FUSE33" ewd:figID="41" ewd:figtype="rb" style="cursor:pointer;"><path d=" M  1376.77,   167.51  L  1376.77,   193.00  L  1419.26,   193.00  L  1419.26,   167.51  L  1376.77,   167.51 " style="fill:#CCECF4;stroke:#000000; stroke-width:0; stroke-linecap:round;stroke-linejoin:round; " /></a><a ewd:code="1" ewd:figID="42" ewd:figtype="rb" style="cursor:pointer;"><path d=" M   620.40,   579.69  L   620.40,   622.18  L   654.39,   622.18  L   654.39,   579.69  L   620.40,   579.69 " style="fill:#CCECF4;stroke:#000000; stroke-width:0; stroke-linecap:round;stroke-linejoin:round; " /></a><a ewd:code="FUSE59" ewd:figID="43" ewd:figtype="rb" style="cursor:pointer;"><path d=" M   237.96,   481.95  L   237.96,   507.45  L   280.45,   507.45  L   280.45,   481.95  L   237.96,   481.95 " style="fill:#CCECF4;stroke:#000000; stroke-width:0; stroke-linecap:round;stroke-linejoin:round; " /></a><a ewd:code="FUSE30" ewd:figID="44" ewd:figtype="rb" style="cursor:pointer;"><path d=" M   926.35,   362.97  L   926.35,   388.47  L   968.84,   388.47  L   968.84,   362.97  L   926.35,   362.97 " style="fill:#CCECF4;stroke:#000000; stroke-width:0; stroke-linecap:round;stroke-linejoin:round; " /></a><a ewd:code="FUSE32" ewd:figID="45" ewd:figtype="rb" style="cursor:pointer;"><path d=" M  1376.77,   269.49  L  1376.77,   294.99  L  1419.26,   294.99  L  1419.26,   269.49  L  1376.77,   269.49 " style="fill:#CCECF4;stroke:#000000; stroke-width:0; stroke-linecap:round;stroke-linejoin:round; " /></a><a ewd:code="A35,A36,D9" ewd:figID="46" ewd:figtype="conn" style="cursor:pointer;"><path d=" M    50.99,   477.71  L   101.98,   477.71  L   101.98,   537.20  L    50.99,   537.20  L    50.99,   477.71 " style="fill:#CCECF4;stroke:#000000; stroke-width:1.133; stroke-linecap:round;stroke-linejoin:round; " /><title ewd:textID="1">Battery (Main)</title></a><a ewd:code="FUSE3" ewd:figID="47" ewd:figtype="rb" style="cursor:pointer;"><path d=" M  1980.17,   159.01  L  1980.17,   184.50  L  2022.66,   184.50  L  2022.66,   159.01  L  1980.17,   159.01 " style="fill:#CCECF4;stroke:#000000; stroke-width:0; stroke-linecap:round;stroke-linejoin:round; " /></a><a ewd:code="FUSE4" ewd:figID="48" ewd:figtype="rb" style="cursor:pointer;"><path d=" M   866.86,   167.51  L   866.86,   193.00  L   909.35,   193.00  L   909.35,   167.51  L   866.86,   167.51 " style="fill:#CCECF4;stroke:#000000; stroke-width:0; stroke-linecap:round;stroke-linejoin:round; " /></a><a ewd:code="FUSE27" ewd:figID="49" ewd:figtype="rb" style="cursor:pointer;"><path d=" M  1436.26,   651.93  L  1436.26,   677.42  L  1478.75,   677.42  L  1478.75,   651.93  L  1436.26,   651.93 " style="fill:#CCECF4;stroke:#000000; stroke-width:0; stroke-linecap:round;stroke-linejoin:round; " /></a><a ewd:code="2" ewd:figID="50" ewd:figtype="rb" style="cursor:pointer;"><path d=" M  1274.79,    86.77  L  1274.79,   129.26  L  1308.78,   129.26  L  1308.78,    86.77  L  1274.79,    86.77 " style="fill:#CCECF4;stroke:#000000; stroke-width:0; stroke-linecap:round;stroke-linejoin:round; " /></a><a ewd:code="FUSE18" ewd:figID="51" ewd:figtype="rb" style="cursor:pointer;"><path d=" M  1980.17,   294.99  L  1980.17,   320.48  L  2022.66,   320.48  L  2022.66,   294.99  L  1980.17,   294.99 " style="fill:#CCECF4;stroke:#000000; stroke-width:0; stroke-linecap:round;stroke-linejoin:round; " /></a><a ewd:code="2" ewd:figID="52" ewd:figtype="rb" style="cursor:pointer;"><path d=" M  1835.69,   443.71  L  1835.69,   486.20  L  1801.70,   486.20  L  1801.70,   443.71  L  1835.69,   443.71 " style="fill:#CCECF4;stroke:#000000; stroke-width:0; stroke-linecap:round;stroke-linejoin:round; " /></a><a ewd:code="2" ewd:figID="53" ewd:figtype="rb" style="cursor:pointer;"><path d=" M  1274.79,   231.25  L  1274.79,   273.74  L  1308.78,   273.74  L  1308.78,   231.25  L  1274.79,   231.25 " style="fill:#CCECF4;stroke:#000000; stroke-width:0; stroke-linecap:round;stroke-linejoin:round; " /></a><a ewd:code="FUSE28" ewd:figID="54" ewd:figtype="rb" style="cursor:pointer;"><path d=" M  1376.77,   413.97  L  1376.77,   439.46  L  1419.26,   439.46  L  1419.26,   413.97  L  1376.77,   413.97 " style="fill:#CCECF4;stroke:#000000; stroke-width:0; stroke-linecap:round;stroke-linejoin:round; " /></a><a ewd:code="4" ewd:figID="69" ewd:figtype="jb" style="cursor:pointer;"><path d=" M   127.48,   350.23  L   127.48,   375.72  L   140.23,   375.72  L   140.23,   350.23  L   127.48,   350.23  " style="&st4; " /></a><a ewd:code="3" ewd:figID="70" ewd:figtype="jb" style="cursor:pointer;"><path d=" M   127.48,    18.78  L   127.48,   239.75  L   314.45,   239.75  L   314.45,    18.78  L   127.48,    18.78  " style="&st4; " /></a><a ewd:code="4" ewd:figID="71" ewd:figtype="jb" style="cursor:pointer;"><path d=" M   127.48,   307.73  L   127.48,   333.23  L   140.23,   333.23  L   140.23,   307.73  L   127.48,   307.73  " style="&st4; " /></a><a ewd:code="FUSE54" ewd:figID="105" ewd:figtype="fuse" style="cursor:pointer;"><path d=" M   161.47,   439.46  L   161.47,   464.96  L   203.97,   464.96  L   203.97,   439.46  L   161.47,   439.46 " style="&st7; stroke-width:0;" /></a><a ewd:code="FUSE47" ewd:figID="106" ewd:figtype="fuse" style="cursor:pointer;"><path d=" M   161.47,   396.97  L   161.47,   422.46  L   203.97,   422.46  L   203.97,   396.97  L   161.47,   396.97 " style="&st7; stroke-width:0;" /></a><a ewd:code="FUSE46" ewd:figID="107" ewd:figtype="fuse" style="cursor:pointer;"><path d=" M   161.47,   210.00  L   161.47,   235.50  L   203.97,   235.50  L   203.97,   210.00  L   161.47,   210.00 " style="&st7; stroke-width:0;" /></a><a ewd:code="FUSE57" ewd:figID="108" ewd:figtype="fuse" style="cursor:pointer;"><path d=" M   237.96,   634.93  L   237.96,   660.42  L   280.45,   660.42  L   280.45,   634.93  L   237.96,   634.93 " style="&st7; stroke-width:0;" /></a><a ewd:code="FUSE55" ewd:figID="109" ewd:figtype="fuse" style="cursor:pointer;"><path d=" M   237.96,   575.44  L   237.96,   600.93  L   280.45,   600.93  L   280.45,   575.44  L   237.96,   575.44 " style="&st7; stroke-width:0;" /></a><a ewd:code="FUSE60" ewd:figID="110" ewd:figtype="fuse" style="cursor:pointer;"><path d=" M   237.96,   532.95  L   237.96,   558.44  L   280.45,   558.44  L   280.45,   532.95  L   237.96,   532.95 " style="&st7; stroke-width:0;" /></a><a ewd:code="FUSE59" ewd:figID="111" ewd:figtype="fuse" style="cursor:pointer;"><path d=" M   237.96,   481.95  L   237.96,   507.45  L   280.45,   507.45  L   280.45,   481.95  L   237.96,   481.95 " style="&st7; stroke-width:0;" /></a><a ewd:code="FUSE58" ewd:figID="112" ewd:figtype="fuse" style="cursor:pointer;"><path d=" M   237.96,   439.46  L   237.96,   464.96  L   280.45,   464.96  L   280.45,   439.46  L   237.96,   439.46 " style="&st7; stroke-width:0;" /></a><a ewd:code="FUSE56" ewd:figID="113" ewd:figtype="fuse" style="cursor:pointer;"><path d=" M   237.96,   396.97  L   237.96,   422.46  L   280.45,   422.46  L   280.45,   396.97  L   237.96,   396.97 " style="&st7; stroke-width:0;" /></a><a ewd:code="FUSE50" ewd:figID="114" ewd:figtype="fuse" style="cursor:pointer;"><path d=" M   237.96,   354.48  L   237.96,   379.97  L   280.45,   379.97  L   280.45,   354.48  L   237.96,   354.48 " style="&st7; stroke-width:0;" /></a><a ewd:code="FUSE48" ewd:figID="115" ewd:figtype="fuse" style="cursor:pointer;"><path d=" M   237.96,   311.98  L   237.96,   337.48  L   280.45,   337.48  L   280.45,   311.98  L   237.96,   311.98 " style="&st7; stroke-width:0;" /></a><a ewd:code="FUSE49" ewd:figID="116" ewd:figtype="fuse" style="cursor:pointer;"><path d=" M   237.96,   269.49  L   237.96,   294.99  L   280.45,   294.99  L   280.45,   269.49  L   237.96,   269.49 " style="&st7; stroke-width:0;" /></a><a ewd:code="FUSE39" ewd:figID="117" ewd:figtype="fuse" style="cursor:pointer;"><path d=" M   237.96,   210.00  L   237.96,   235.50  L   280.45,   235.50  L   280.45,   210.00  L   237.96,   210.00 " style="&st7; stroke-width:0;" /></a><a ewd:code="FUSE42" ewd:figID="118" ewd:figtype="fuse" style="cursor:pointer;"><path d=" M   237.96,   167.51  L   237.96,   193.00  L   280.45,   193.00  L   280.45,   167.51  L   237.96,   167.51 " style="&st7; stroke-width:0;" /></a><a ewd:code="FUSE41" ewd:figID="119" ewd:figtype="fuse" style="cursor:pointer;"><path d=" M   237.96,   125.01  L   237.96,   150.51  L   280.45,   150.51  L   280.45,   125.01  L   237.96,   125.01 " style="&st7; stroke-width:0;" /></a><a ewd:code="FUSE40" ewd:figID="120" ewd:figtype="fuse" style="cursor:pointer;"><path d=" M   237.96,    82.52  L   237.96,   108.02  L   280.45,   108.02  L   280.45,    82.52  L   237.96,    82.52 " style="&st7; stroke-width:0;" /></a><a ewd:code="FUSE38" ewd:figID="121" ewd:figtype="fuse" style="cursor:pointer;"><path d=" M   237.96,    40.03  L   237.96,    65.52  L   280.45,    65.52  L   280.45,    40.03  L   237.96,    40.03 " style="&st7; stroke-width:0;" /></a><a ewd:code="FUSE36" ewd:figID="122" ewd:figtype="fuse" style="cursor:pointer;"><path d=" M   645.89,   362.97  L   645.89,   388.47  L   688.38,   388.47  L   688.38,   362.97  L   645.89,   362.97 " style="&st7; stroke-width:0;" /></a><a ewd:code="FUSE2" ewd:figID="123" ewd:figtype="fuse" style="cursor:pointer;"><path d=" M   645.89,   320.48  L   645.89,   345.98  L   688.38,   345.98  L   688.38,   320.48  L   645.89,   320.48 " style="&st7; stroke-width:0;" /></a><a ewd:code="FUSE31" ewd:figID="124" ewd:figtype="fuse" style="cursor:pointer;"><path d=" M   645.89,   277.99  L   645.89,   303.48  L   688.38,   303.48  L   688.38,   277.99  L   645.89,   277.99 " style="&st7; stroke-width:0;" /></a><a ewd:code="FUSE4" ewd:figID="125" ewd:figtype="fuse" style="cursor:pointer;"><path d=" M   866.86,   167.51  L   866.86,   193.00  L   909.35,   193.00  L   909.35,   167.51  L   866.86,   167.51 " style="&st7; stroke-width:0;" /></a><a ewd:code="FUSE9" ewd:figID="126" ewd:figtype="fuse" style="cursor:pointer;"><path d=" M   909.35,   575.44  L   909.35,   600.93  L   951.84,   600.93  L   951.84,   575.44  L   909.35,   575.44 " style="&st7; stroke-width:0;" /></a><a ewd:code="FUSE30" ewd:figID="127" ewd:figtype="fuse" style="cursor:pointer;"><path d=" M   926.35,   362.97  L   926.35,   388.47  L   968.84,   388.47  L   968.84,   362.97  L   926.35,   362.97 " style="&st7; stroke-width:0;" /></a><a ewd:code="FUSE29" ewd:figID="128" ewd:figtype="fuse" style="cursor:pointer;"><path d=" M   926.35,   320.48  L   926.35,   345.98  L   968.84,   345.98  L   968.84,   320.48  L   926.35,   320.48 " style="&st7; stroke-width:0;" /></a><a ewd:code="FUSE34" ewd:figID="129" ewd:figtype="fuse" style="cursor:pointer;"><path d=" M  1308.78,   651.93  L  1308.78,   677.42  L  1351.27,   677.42  L  1351.27,   651.93  L  1308.78,   651.93 " style="&st7; stroke-width:0;" /></a><a ewd:code="FUSE37" ewd:figID="130" ewd:figtype="fuse" style="cursor:pointer;"><path d=" M  1308.78,   566.94  L  1308.78,   592.44  L  1351.27,   592.44  L  1351.27,   566.94  L  1308.78,   566.94 " style="&st7; stroke-width:0;" /></a><a ewd:code="FUSE28" ewd:figID="131" ewd:figtype="fuse" style="cursor:pointer;"><path d=" M  1376.77,   413.97  L  1376.77,   439.46  L  1419.26,   439.46  L  1419.26,   413.97  L  1376.77,   413.97 " style="&st7; stroke-width:0;" /></a><a ewd:code="FUSE24" ewd:figID="132" ewd:figtype="fuse" style="cursor:pointer;"><path d=" M  1376.77,   371.47  L  1376.77,   396.97  L  1419.26,   396.97  L  1419.26,   371.47  L  1376.77,   371.47 " style="&st7; stroke-width:0;" /></a><a ewd:code="FUSE35" ewd:figID="133" ewd:figtype="fuse" style="cursor:pointer;"><path d=" M  1376.77,   311.98  L  1376.77,   337.48  L  1419.26,   337.48  L  1419.26,   311.98  L  1376.77,   311.98 " style="&st7; stroke-width:0;" /></a><a ewd:code="FUSE32" ewd:figID="134" ewd:figtype="fuse" style="cursor:pointer;"><path d=" M  1376.77,   269.49  L  1376.77,   294.99  L  1419.26,   294.99  L  1419.26,   269.49  L  1376.77,   269.49 " style="&st7; stroke-width:0;" /></a><a ewd:code="FUSE25" ewd:figID="135" ewd:figtype="fuse" style="cursor:pointer;"><path d=" M  1376.77,   227.00  L  1376.77,   252.49  L  1419.26,   252.49  L  1419.26,   227.00  L  1376.77,   227.00 " style="&st7; stroke-width:0;" /></a><a ewd:code="FUSE33" ewd:figID="136" ewd:figtype="fuse" style="cursor:pointer;"><path d=" M  1376.77,   167.51  L  1376.77,   193.00  L  1419.26,   193.00  L  1419.26,   167.51  L  1376.77,   167.51 " style="&st7; stroke-width:0;" /></a><a ewd:code="FUSE23" ewd:figID="137" ewd:figtype="fuse" style="cursor:pointer;"><path d=" M  1376.77,   125.01  L  1376.77,   150.51  L  1419.26,   150.51  L  1419.26,   125.01  L  1376.77,   125.01 " style="&st7; stroke-width:0;" /></a><a ewd:code="FUSE26" ewd:figID="138" ewd:figtype="fuse" style="cursor:pointer;"><path d=" M  1376.77,    82.52  L  1376.77,   108.02  L  1419.26,   108.02  L  1419.26,    82.52  L  1376.77,    82.52 " style="&st7; stroke-width:0;" /></a><a ewd:code="FUSE27" ewd:figID="139" ewd:figtype="fuse" style="cursor:pointer;"><path d=" M  1436.26,   651.93  L  1436.26,   677.42  L  1478.75,   677.42  L  1478.75,   651.93  L  1436.26,   651.93 " style="&st7; stroke-width:0;" /></a><a ewd:code="FUSE6" ewd:figID="140" ewd:figtype="fuse" style="cursor:pointer;"><path d=" M  1436.26,   609.43  L  1436.26,   634.93  L  1478.75,   634.93  L  1478.75,   609.43  L  1436.26,   609.43 " style="&st7; stroke-width:0;" /></a><a ewd:code="FUSE5" ewd:figID="141" ewd:figtype="fuse" style="cursor:pointer;"><path d=" M  1436.26,   566.94  L  1436.26,   592.44  L  1478.75,   592.44  L  1478.75,   566.94  L  1436.26,   566.94 " style="&st7; stroke-width:0;" /></a><a ewd:code="FUSE21" ewd:figID="142" ewd:figtype="fuse" style="cursor:pointer;"><path d=" M  1980.17,   575.44  L  1980.17,   600.93  L  2022.66,   600.93  L  2022.66,   575.44  L  1980.17,   575.44 " style="&st7; stroke-width:0;" /></a><a ewd:code="FUSE19" ewd:figID="143" ewd:figtype="fuse" style="cursor:pointer;"><path d=" M  1980.17,   532.95  L  1980.17,   558.44  L  2022.66,   558.44  L  2022.66,   532.95  L  1980.17,   532.95 " style="&st7; stroke-width:0;" /></a><a ewd:code="FUSE10" ewd:figID="144" ewd:figtype="fuse" style="cursor:pointer;"><path d=" M  1980.17,   481.95  L  1980.17,   507.45  L  2022.66,   507.45  L  2022.66,   481.95  L  1980.17,   481.95 " style="&st7; stroke-width:0;" /></a><a ewd:code="FUSE11" ewd:figID="145" ewd:figtype="fuse" style="cursor:pointer;"><path d=" M  1980.17,   439.46  L  1980.17,   464.96  L  2022.66,   464.96  L  2022.66,   439.46  L  1980.17,   439.46 " style="&st7; stroke-width:0;" /></a><a ewd:code="FUSE12" ewd:figID="146" ewd:figtype="fuse" style="cursor:pointer;"><path d=" M  1980.17,   396.97  L  1980.17,   422.46  L  2022.66,   422.46  L  2022.66,   396.97  L  1980.17,   396.97 " style="&st7; stroke-width:0;" /></a><a ewd:code="FUSE13" ewd:figID="147" ewd:figtype="fuse" style="cursor:pointer;"><path d=" M  1980.17,   354.48  L  1980.17,   379.97  L  2022.66,   379.97  L  2022.66,   354.48  L  1980.17,   354.48 " style="&st7; stroke-width:0;" /></a><a ewd:code="FUSE18" ewd:figID="148" ewd:figtype="fuse" style="cursor:pointer;"><path d=" M  1980.17,   294.99  L  1980.17,   320.48  L  2022.66,   320.48  L  2022.66,   294.99  L  1980.17,   294.99 " style="&st7; stroke-width:0;" /></a><a ewd:code="FUSE17" ewd:figID="149" ewd:figtype="fuse" style="cursor:pointer;"><path d=" M  1980.17,   252.49  L  1980.17,   277.99  L  2022.66,   277.99  L  2022.66,   252.49  L  1980.17,   252.49 " style="&st7; stroke-width:0;" /></a><a ewd:code="FUSE16" ewd:figID="150" ewd:figtype="fuse" style="cursor:pointer;"><path d=" M  1980.17,   210.00  L  1980.17,   235.50  L  2022.66,   235.50  L  2022.66,   210.00  L  1980.17,   210.00 " style="&st7; stroke-width:0;" /></a><a ewd:code="FUSE3" ewd:figID="151" ewd:figtype="fuse" style="cursor:pointer;"><path d=" M  1980.17,   159.01  L  1980.17,   184.50  L  2022.66,   184.50  L  2022.66,   159.01  L  1980.17,   159.01 " style="&st7; stroke-width:0;" /></a><a ewd:code="FUSE1" ewd:figID="152" ewd:figtype="fuse" style="cursor:pointer;"><path d=" M  1980.17,   116.52  L  1980.17,   142.01  L  2022.66,   142.01  L  2022.66,   116.52  L  1980.17,   116.52 " style="&st7; stroke-width:0;" /></a><a ewd:code="FUSE22" ewd:figID="153" ewd:figtype="fuse" style="cursor:pointer;"><path d=" M  1980.17,    74.02  L  1980.17,    99.52  L  2022.66,    99.52  L  2022.66,    74.02  L  1980.17,    74.02 " style="&st7; stroke-width:0;" /></a><a ewd:lineID="1" style="cursor:pointer;"><path d=" M    59.49,   546.26  L    59.49,   562.69  L    33.99,   562.69  L    33.99,   681.67  " style="stroke:#000000;stroke-width: 5.10 ;&st6;" /></a><a ewd:lineID="2" style="cursor:pointer;"><path d=" M    84.99,   546.26  L    84.99,   681.67  " style="stroke:#000000;stroke-width: 5.10 ;&st6;" /><path d=" M    84.99,   546.26  L    84.99,   681.67  " style="stroke:#FFFFFF;stroke-width: 2.27 ;&st6;" /><path d=" M    84.99,   546.26  L    84.99,   681.67  " style="stroke:#666666;stroke-width: 1.13 ;&st6;" /></a><a ewd:lineID="3" style="cursor:pointer;"><path d=" M   127.48,   367.22  L    84.99,   367.22  L    84.99,   401.22  " style="stroke:#000000;stroke-width: 5.10 ;&st6;" /><path d=" M   127.48,   367.22  L    84.99,   367.22  L    84.99,   401.22  " style="stroke:#FFFFFF;stroke-width: 2.27 ;&st6;" /><path d=" M   127.48,   367.22  L    84.99,   367.22  L    84.99,   401.22  " style="stroke:#00A0C6;stroke-width: 1.13 ;&st6;" /></a><a ewd:lineID="4" style="cursor:pointer;"><path d=" M   127.48,   222.75  L    42.49,   222.75  L    42.49,   324.73  L   127.48,   324.73  " style="stroke:#000000;stroke-width: 5.10 ;&st6;" /><path d=" M   127.48,   222.75  L    42.49,   222.75  L    42.49,   324.73  L   127.48,   324.73  " style="stroke:#FFFFFF;stroke-width: 2.27 ;&st6;" /><path d=" M   127.48,   222.75  L    42.49,   222.75  L    42.49,   324.73  L   127.48,   324.73  " style="stroke:#00A0C6;stroke-width: 1.13 ;&st6;" /></a><a ewd:lineID="5" style="cursor:pointer;"><path d=" M   314.45,   588.19  L   348.44,   588.19  " style="stroke:#FF0000;stroke-width: 5.10 ;&st6;" /><path d=" M   314.45,   588.19  L   348.44,   588.19  " style="stroke:#FFFFFF;stroke-width: 2.27 ;&st6;" /><path d=" M   314.45,   588.19  L   348.44,   588.19  " style="stroke:#000000;stroke-width: 1.13 ;&st6;" /></a><a ewd:lineID="6" style="cursor:pointer;"><path d=" M   314.45,   545.69  L   390.93,   545.69  " style="stroke:#000000;stroke-width: 5.10 ;&st6;" /><path d=" M   314.45,   545.69  L   390.93,   545.69  " style="stroke:#FFFFFF;stroke-width: 4.53 ;&st6;" /><path d=" M   314.45,   545.69  L   390.93,   545.69  " style="stroke:#00A0C6;stroke-width: 1.13 ;&st6;" /></a><a ewd:lineID="7" style="cursor:pointer;"><path d=" M   314.45,   494.70  L   390.93,   494.70  " style="stroke:#FF0000;stroke-width: 5.10 ;&st6;" /></a><a ewd:lineID="8" style="cursor:pointer;"><path d=" M   314.45,   452.21  L   348.44,   452.21  " style="stroke:#00A0C6;stroke-width: 5.10 ;&st6;"/></a><a ewd:lineID="9" style="cursor:pointer;"> d=" M   314.45,   222.75  L   348.44,   222.75  L   348.44,   375.72  L   390.93,   375.72 
	
		<path d=" M   314.45,   222.75  L   348.44,   222.75  L   348.44,   375.72  L   390.93,   375.72  " style="stroke:#000000;stroke-width: 5.10 ;&st6;" /><path d=" M   314.45,   222.75  L   348.44,   222.75  L   348.44,   375.72  L   390.93,   375.72  " style="stroke:#FFFFFF;stroke-width: 4.53 ;&st6;" /></a><a ewd:lineID="10" style="cursor:pointer;"><path d=" M   314.45,   180.26  L   356.94,   180.26  " style="stroke:#000000;stroke-width: 5.10 ;&st6;" /><path d=" M   314.45,   180.26  L   356.94,   180.26  " style="stroke:#FFFFFF;stroke-width: 4.53 ;&st6;" /><path d=" M   314.45,   180.26  L   356.94,   180.26  " style="stroke:#FF0000;stroke-width: 1.13 ;&st6;" /></a><a ewd:lineID="11" style="cursor:pointer;"><path d=" M   314.45,    95.27  L   356.94,    95.27  " style="stroke:#00A0C6;stroke-width: 5.10 ;&st6;" /><path d=" M   314.45,    95.27  L   356.94,    95.27  " style="stroke:#FFFFFF;stroke-width: 2.27 ;&st6;" /><path d=" M   314.45,    95.27  L   356.94,    95.27  " style="stroke:#FF0000;stroke-width: 1.13 ;&st6;" /></a><a ewd:lineID="12" style="cursor:pointer;"><path d=" M   314.45,    52.78  L   356.94,    52.78  " style="stroke:#000000;stroke-width: 5.10 ;&st6;" /><path d=" M   314.45,    52.78  L   356.94,    52.78  " style="stroke:#FFFFFF;stroke-width: 2.27 ;&st6;" /><path d=" M   314.45,    52.78  L   356.94,    52.78  " style="stroke:#00A0C6;stroke-width: 1.13 ;&st6;" /></a><a ewd:lineID="13" style="cursor:pointer;"><path d=" M   356.94,   137.76  L   314.45,   137.76  " style="stroke:#FF0000;stroke-width: 5.10 ;&st6;" /><path d=" M   356.94,   137.76  L   314.45,   137.76  " style="stroke:#FFFFFF;stroke-width: 2.27 ;&st6;" /><path d=" M   356.94,   137.76  L   314.45,   137.76  " style="stroke:#000000;stroke-width: 1.13 ;&st6;" /></a><a ewd:lineID="14" style="cursor:pointer;"><path d=" M   365.44,   588.19  L   586.40,   588.19  " style="stroke:#FF0000;stroke-width: 5.10 ;&st6;" /><path d=" M   365.44,   588.19  L   586.40,   588.19  " style="stroke:#FFFFFF;stroke-width: 2.27 ;&st6;" /><path d=" M   365.44,   588.19  L   586.40,   588.19  " style="stroke:#000000;stroke-width: 1.13 ;&st6;" /></a><a ewd:lineID="15" style="cursor:pointer;"><path d=" M   365.44,   452.21  L   390.93,   452.21  " style="stroke:#00A0C6;stroke-width: 5.10 ;&st6;" /></a><a ewd:lineID="16" style="cursor:pointer;"><path d=" M   380.17,   180.26  L   637.39,   180.26  " style="stroke:#000000;stroke-width: 5.10 ;&st6;" /><path d=" M   380.17,   180.26  L   637.39,   180.26  " style="stroke:#FFFFFF;stroke-width: 4.53 ;&st6;" /><path d=" M   380.17,   180.26  L   637.39,   180.26  " style="stroke:#FF0000;stroke-width: 1.13 ;&st6;" /></a><a ewd:lineID="17" style="cursor:pointer;"><path d=" M   380.45,   137.76  L  1079.32,   137.76  L  1079.32,   239.75  L  1240.79,   239.75  " style="stroke:#FF0000;stroke-width: 5.10 ;&st6;" /><path d=" M   380.45,   137.76  L  1079.32,   137.76  L  1079.32,   239.75  L  1240.79,   239.75  " style="stroke:#FFFFFF;stroke-width: 2.27 ;&st6;" /><path d=" M   380.45,   137.76  L  1079.32,   137.76  L  1079.32,   239.75  L  1240.79,   239.75  " style="stroke:#000000;stroke-width: 1.13 ;&st6;" /></a><a ewd:lineID="18" style="cursor:pointer;"><path d=" M   380.45,    95.27  L  1155.81,    95.27  " style="stroke:#00A0C6;stroke-width: 5.10 ;&st6;" /><path d=" M   380.45,    95.27  L  1155.81,    95.27  " style="stroke:#FFFFFF;stroke-width: 2.27 ;&st6;" /><path d=" M   380.45,    95.27  L  1155.81,    95.27  " style="stroke:#FF0000;stroke-width: 1.13 ;&st6;" /></a><a ewd:lineID="19" style="cursor:pointer;"><path d=" M   397.45,    52.78  L  1487.25,    52.78  " style="stroke:#000000;stroke-width: 5.10 ;&st6;" /><path d=" M   397.45,    52.78  L  1487.25,    52.78  " style="stroke:#FFFFFF;stroke-width: 2.27 ;&st6;" /><path d=" M   397.45,    52.78  L  1487.25,    52.78  " style="stroke:#00A0C6;stroke-width: 1.13 ;&st6;" /></a><a ewd:lineID="20" style="cursor:pointer;"><path d=" M   414.16,   545.69  L  1155.81,   545.69  " style="stroke:#000000;stroke-width: 5.10 ;&st6;" /><path d=" M   414.16,   545.69  L  1155.81,   545.69  " style="stroke:#FFFFFF;stroke-width: 4.53 ;&st6;" /><path d=" M   414.16,   545.69  L  1155.81,   545.69  " style="stroke:#00A0C6;stroke-width: 1.13 ;&st6;" /></a><a ewd:lineID="21" style="cursor:pointer;"><path d=" M   414.16,   494.70  L   671.39,   494.70  " style="stroke:#FF0000;stroke-width: 5.10 ;&st6;" /></a><a ewd:lineID="22" style="cursor:pointer;"><path d=" M   414.16,   452.21  L  1461.76,   452.21  L  1461.76,   154.76  L  1487.25,   154.76  " style="stroke:#00A0C6;stroke-width: 5.10 ;&st6;"/></a><a ewd:lineID="23" style="cursor:pointer;"> d=" M   414.45,   375.72  L   458.92,   375.72 
	
		<path d=" M   414.45,   375.72  L   458.92,   375.72  " style="stroke:#000000;stroke-width: 5.10 ;&st6;" /><path d=" M   414.45,   375.72  L   458.92,   375.72  " style="stroke:#FFFFFF;stroke-width: 4.53 ;&st6;"/></a><a ewd:lineID="24" style="cursor:pointer;"> d=" M   475.92,   375.72  L   577.90,   375.72 
	
		<path d=" M   475.92,   375.72  L   577.90,   375.72  " style="stroke:#000000;stroke-width: 5.10 ;&st6;" /><path d=" M   475.92,   375.72  L   577.90,   375.72  " style="stroke:#FFFFFF;stroke-width: 4.53 ;&st6;"/></a><a ewd:lineID="25" style="cursor:pointer;"> d=" M   577.90,   290.74  L   467.42,   290.74  L   467.42,   367.22 
	
		<path d=" M   577.90,   290.74  L   467.42,   290.74  L   467.42,   367.22  " style="stroke:#000000;stroke-width: 5.10 ;&st6;" /><path d=" M   577.90,   290.74  L   467.42,   290.74  L   467.42,   367.22  " style="stroke:#FFFFFF;stroke-width: 4.53 ;&st6;" /></a><a ewd:lineID="26" style="cursor:pointer;"><path d=" M   688.38,   588.19  L   713.88,   588.19  " style="stroke:#00A0C6;stroke-width: 5.10 ;&st6;" /></a><a ewd:lineID="27" style="cursor:pointer;"><path d=" M   713.88,   520.20  L   679.89,   520.20  L   679.89,   503.20  " style="stroke:#FF0000;stroke-width: 5.10 ;&st6;" /></a><a ewd:lineID="28" style="cursor:pointer;"><path d=" M   713.88,   494.70  L   688.38,   494.70  " style="stroke:#FF0000;stroke-width: 5.10 ;&st6;" /></a><a ewd:lineID="29" style="cursor:pointer;"><path d=" M   730.88,   588.19  L   764.87,   588.19  " style="stroke:#00A0C6;stroke-width: 5.10 ;&st6;" /></a><a ewd:lineID="30" style="cursor:pointer;"><path d=" M   739.38,   180.26  L   764.87,   180.26  " style="stroke:#00A0C6;stroke-width: 5.10 ;&st6;" /></a><a ewd:lineID="31" style="cursor:pointer;"><path d=" M   772.80,   375.72  L   739.38,   375.72  " style="stroke:#008837;stroke-width: 5.10 ;&st6;" /><path d=" M   772.80,   375.72  L   739.38,   375.72  " style="stroke:#FFFFFF;stroke-width: 2.27 ;&st6;" /><path d=" M   772.80,   375.72  L   739.38,   375.72  " style="stroke:#FFE600;stroke-width: 1.13 ;&st6;" /></a><a ewd:lineID="32" style="cursor:pointer;"><path d=" M   781.87,   180.26  L   807.37,   180.26  " style="stroke:#00A0C6;stroke-width: 5.10 ;&st6;" /></a><a ewd:lineID="33" style="cursor:pointer;"><path d=" M   805.10,   588.19  L   849.86,   588.19  " style="stroke:#00A0C6;stroke-width: 5.10 ;&st6;" /></a><a ewd:lineID="34" style="cursor:pointer;"><path d=" M   824.36,   494.70  L  1478.75,   494.70  L  1478.75,   452.21  L  1725.21,   452.21  " style="stroke:#00A0C6;stroke-width: 5.10 ;&st6;" /><path d=" M   824.36,   494.70  L  1478.75,   494.70  L  1478.75,   452.21  L  1725.21,   452.21  " style="stroke:#FFFFFF;stroke-width: 2.27 ;&st6;" /><path d=" M   824.36,   494.70  L  1478.75,   494.70  L  1478.75,   452.21  L  1725.21,   452.21  " style="stroke:#FF0000;stroke-width: 1.13 ;&st6;" /></a><a ewd:lineID="35" style="cursor:pointer;"><path d=" M   858.36,   375.72  L   824.93,   375.72  " style="stroke:#008837;stroke-width: 5.10 ;&st6;" /></a><a ewd:lineID="36" style="cursor:pointer;"><path d=" M  1113.31,   681.67  L  1113.31,   299.24  " style="stroke:#000000;stroke-width: 5.10 ;&st6;" /><path d=" M  1113.31,   681.67  L  1113.31,   299.24  " style="stroke:#FFFFFF;stroke-width: 4.53 ;&st6;" /><path d=" M  1113.31,   681.67  L  1113.31,   299.24  " style="stroke:#000000;stroke-width: 1.13 ;&st6;" /></a><a ewd:lineID="37" style="cursor:pointer;"><path d=" M  1113.31,   282.24  L  1113.31,   146.26  L  1240.79,   146.26  " style="stroke:#000000;stroke-width: 5.10 ;&st6;" /><path d=" M  1113.31,   282.24  L  1113.31,   146.26  L  1240.79,   146.26  " style="stroke:#FFFFFF;stroke-width: 4.53 ;&st6;" /><path d=" M  1113.31,   282.24  L  1113.31,   146.26  L  1240.79,   146.26  " style="stroke:#000000;stroke-width: 1.13 ;&st6;" /></a><a ewd:lineID="38" style="cursor:pointer;"><path d=" M  1158.29,   551.71  L  1147.31,   562.69  L  1147.31,   664.67  L  1257.79,   664.67  " style="stroke:#000000;stroke-width: 5.10 ;&st6;" /><path d=" M  1158.29,   551.71  L  1147.31,   562.69  L  1147.31,   664.67  L  1257.79,   664.67  " style="stroke:#FFFFFF;stroke-width: 4.53 ;&st6;" /><path d=" M  1158.29,   551.71  L  1147.31,   562.69  L  1147.31,   664.67  L  1257.79,   664.67  " style="stroke:#00A0C6;stroke-width: 1.13 ;&st6;" /></a><a ewd:lineID="39" style="cursor:pointer;"><path d=" M  1164.31,   103.77  L  1164.31,   426.71  L  1317.28,   426.71  " style="stroke:#00A0C6;stroke-width: 5.10 ;&st6;" /><path d=" M  1164.31,   103.77  L  1164.31,   426.71  L  1317.28,   426.71  " style="stroke:#FFFFFF;stroke-width: 2.27 ;&st6;" /><path d=" M  1164.31,   103.77  L  1164.31,   426.71  L  1317.28,   426.71  " style="stroke:#FF0000;stroke-width: 1.13 ;&st6;" /></a><a ewd:lineID="40" style="cursor:pointer;"><path d=" M  1172.80,   545.69  L  1767.70,   545.69  " style="stroke:#000000;stroke-width: 5.10 ;&st6;" /><path d=" M  1172.80,   545.69  L  1767.70,   545.69  " style="stroke:#FFFFFF;stroke-width: 4.53 ;&st6;" /><path d=" M  1172.80,   545.69  L  1767.70,   545.69  " style="stroke:#00A0C6;stroke-width: 1.13 ;&st6;" /></a><a ewd:lineID="41" style="cursor:pointer;"><path d=" M  1172.80,    95.27  L  1240.79,    95.27  " style="stroke:#00A0C6;stroke-width: 5.10 ;&st6;" /><path d=" M  1172.80,    95.27  L  1240.79,    95.27  " style="stroke:#FFFFFF;stroke-width: 2.27 ;&st6;" /><path d=" M  1172.80,    95.27  L  1240.79,    95.27  " style="stroke:#FF0000;stroke-width: 1.13 ;&st6;" /></a><a ewd:lineID="42" style="cursor:pointer;"><path d=" M  1240.79,   290.74  L  1121.81,   290.74  " style="stroke:#000000;stroke-width: 5.10 ;&st6;" /><path d=" M  1240.79,   290.74  L  1121.81,   290.74  " style="stroke:#FFFFFF;stroke-width: 4.53 ;&st6;" /><path d=" M  1240.79,   290.74  L  1121.81,   290.74  " style="stroke:#000000;stroke-width: 1.13 ;&st6;"/></a><a ewd:lineID="43" style="cursor:pointer;"> d=" M  1240.79,   265.24  L  1206.80,   265.24 
	
		<path d=" M  1240.79,   265.24  L  1206.80,   265.24  " style="stroke:#000000;stroke-width: 5.10 ;&st6;" /><path d=" M  1240.79,   265.24  L  1206.80,   265.24  " style="stroke:#FFFFFF;stroke-width: 4.53 ;&st6;"/></a><a ewd:lineID="44" style="cursor:pointer;"> d=" M  1240.79,   120.77  L  1198.30,   120.77  L  1198.30,   256.74 
	
		<path d=" M  1240.79,   120.77  L  1198.30,   120.77  L  1198.30,   256.74  " style="stroke:#000000;stroke-width: 5.10 ;&st6;" /><path d=" M  1240.79,   120.77  L  1198.30,   120.77  L  1198.30,   256.74  " style="stroke:#FFFFFF;stroke-width: 4.53 ;&st6;" /></a><a ewd:lineID="45" style="cursor:pointer;"><path d=" M  1257.79,   579.69  L  1181.30,   579.69  L  1181.30,   562.69  L  1170.32,   551.71  " style="stroke:#000000;stroke-width: 5.10 ;&st6;" /><path d=" M  1257.79,   579.69  L  1181.30,   579.69  L  1181.30,   562.69  L  1170.32,   551.71  " style="stroke:#FFFFFF;stroke-width: 4.53 ;&st6;" /><path d=" M  1257.79,   579.69  L  1181.30,   579.69  L  1181.30,   562.69  L  1170.32,   551.71  " style="stroke:#00A0C6;stroke-width: 1.13 ;&st6;" /></a><a ewd:lineID="46" style="cursor:pointer;"><path d=" M  1308.78,   622.18  L  1164.31,   622.18  L  1164.31,   554.19  " style="stroke:#000000;stroke-width: 5.10 ;&st6;" /><path d=" M  1308.78,   622.18  L  1164.31,   622.18  L  1164.31,   554.19  " style="stroke:#FFFFFF;stroke-width: 4.53 ;&st6;" /><path d=" M  1308.78,   622.18  L  1164.31,   622.18  L  1164.31,   554.19  " style="stroke:#00A0C6;stroke-width: 1.13 ;&st6;" /></a><a ewd:lineID="47" style="cursor:pointer;"><path d=" M  1623.23,   154.76  L  1510.48,   154.76  " style="stroke:#00A0C6;stroke-width: 5.10 ;&st6;" /></a><a ewd:lineID="48" style="cursor:pointer;"><path d=" M  1623.23,   103.77  L  1597.73,   103.77  L  1597.73,    52.78  L  1510.76,    52.78  " style="stroke:#000000;stroke-width: 5.10 ;&st6;" /><path d=" M  1623.23,   103.77  L  1597.73,   103.77  L  1597.73,    52.78  L  1510.76,    52.78  " style="stroke:#FFFFFF;stroke-width: 2.27 ;&st6;" /><path d=" M  1623.23,   103.77  L  1597.73,   103.77  L  1597.73,    52.78  L  1510.76,    52.78  " style="stroke:#00A0C6;stroke-width: 1.13 ;&st6;" /></a><a ewd:lineID="49" style="cursor:pointer;"><path d=" M  1682.72,   154.76  L  1699.72,   154.76  L  1699.72,   222.75  L  1752.97,   222.75  " style="stroke:#008837;stroke-width: 5.10 ;&st6;"/></a><a ewd:lineID="50" style="cursor:pointer;"> d=" M  1682.72,   103.77  L  1752.69,   103.77 
	
		<path d=" M  1682.72,   103.77  L  1752.69,   103.77  " style="stroke:#000000;stroke-width: 5.10 ;&st6;" /><path d=" M  1682.72,   103.77  L  1752.69,   103.77  " style="stroke:#FFFFFF;stroke-width: 4.53 ;&st6;" /></a><a ewd:lineID="51" style="cursor:pointer;"><path d=" M  1682.72,    86.77  L  1820.68,    86.77  " style="stroke:#FF0000;stroke-width: 5.10 ;&st6;" /><path d=" M  1682.72,    86.77  L  1820.68,    86.77  " style="stroke:#FFFFFF;stroke-width: 2.27 ;&st6;" /><path d=" M  1682.72,    86.77  L  1820.68,    86.77  " style="stroke:#008837;stroke-width: 1.13 ;&st6;" /></a><a ewd:lineID="52" style="cursor:pointer;"><path d=" M  1733.71,   460.71  L  1733.71,   477.71  L  1767.70,   477.71  " style="stroke:#00A0C6;stroke-width: 5.10 ;&st6;" /><path d=" M  1733.71,   460.71  L  1733.71,   477.71  L  1767.70,   477.71  " style="stroke:#FFFFFF;stroke-width: 2.27 ;&st6;" /><path d=" M  1733.71,   460.71  L  1733.71,   477.71  L  1767.70,   477.71  " style="stroke:#FF0000;stroke-width: 1.13 ;&st6;" /></a><a ewd:lineID="53" style="cursor:pointer;"><path d=" M  1742.21,   452.21  L  1767.70,   452.21  " style="stroke:#00A0C6;stroke-width: 5.10 ;&st6;" /><path d=" M  1742.21,   452.21  L  1767.70,   452.21  " style="stroke:#FFFFFF;stroke-width: 2.27 ;&st6;" /><path d=" M  1742.21,   452.21  L  1767.70,   452.21  " style="stroke:#FF0000;stroke-width: 1.13 ;&st6;" /></a><a ewd:lineID="54" style="cursor:pointer;"><path d=" M  1752.97,   171.76  L  1733.71,   171.76  L  1733.71,   120.77  L  1682.72,   120.77  " style="stroke:#000000;stroke-width: 5.10 ;&st6;" /></a><a ewd:lineID="55" style="cursor:pointer;"><path d=" M  1776.20,   171.76  L  1920.68,   171.76  " style="stroke:#000000;stroke-width: 5.10 ;&st6;"/></a><a ewd:lineID="56" style="cursor:pointer;"> d=" M  1776.20,   103.77  L  1818.70,   103.77  L  1818.70,   350.23  L  1198.30,   350.23  L  1198.30,   273.74 
	
		<path d=" M  1776.20,   103.77  L  1818.70,   103.77  L  1818.70,   350.23  L  1198.30,   350.23  L  1198.30,   273.74  " style="stroke:#000000;stroke-width: 5.10 ;&st6;" /><path d=" M  1776.20,   103.77  L  1818.70,   103.77  L  1818.70,   350.23  L  1198.30,   350.23  L  1198.30,   273.74  " style="stroke:#FFFFFF;stroke-width: 4.53 ;&st6;" /></a><a ewd:lineID="57" style="cursor:pointer;"><path d=" M  1835.69,   222.75  L  1776.20,   222.75  " style="stroke:#008837;stroke-width: 5.10 ;&st6;" /></a><a ewd:lineID="58" style="cursor:pointer;"><path d=" M  1844.19,    86.77  L  1869.69,    86.77  " style="stroke:#FF0000;stroke-width: 5.10 ;&st6;" /><path d=" M  1844.19,    86.77  L  1869.69,    86.77  " style="stroke:#FFFFFF;stroke-width: 2.27 ;&st6;" /><path d=" M  1844.19,    86.77  L  1869.69,    86.77  " style="stroke:#008837;stroke-width: 1.13 ;&st6;" /></a><a ewd:lineID="59" style="cursor:pointer;"><path d=" M  1878.19,   545.69  L  1920.68,   545.69  " style="stroke:#008837;stroke-width: 5.10 ;&st6;" /></a><a ewd:lineID="60" style="cursor:pointer;"><path d=" M  1878.19,   409.72  L  1920.68,   409.72  " style="stroke:#000000;stroke-width: 5.10 ;&st6;" /><path d=" M  1878.19,   409.72  L  1920.68,   409.72  " style="stroke:#FFFFFF;stroke-width: 2.27 ;&st6;" /><path d=" M  1878.19,   409.72  L  1920.68,   409.72  " style="stroke:#00A0C6;stroke-width: 1.13 ;&st6;" /></a><a ewd:lineID="61" style="cursor:pointer;"><path d=" M  1886.68,    86.77  L  1920.68,    86.77  " style="stroke:#FF0000;stroke-width: 5.10 ;&st6;" /><path d=" M  1886.68,    86.77  L  1920.68,    86.77  " style="stroke:#FFFFFF;stroke-width: 2.27 ;&st6;" /><path d=" M  1886.68,    86.77  L  1920.68,    86.77  " style="stroke:#008837;stroke-width: 1.13 ;&st6;" /></a><a ewd:lineID="62" style="cursor:pointer;"><path d=" M  1920.68,   452.21  L  1878.19,   452.21  " style="stroke:#000000;stroke-width: 5.10 ;&st6;" /><path d=" M  1920.68,   452.21  L  1878.19,   452.21  " style="stroke:#FFFFFF;stroke-width: 4.53 ;&st6;" /><path d=" M  1920.68,   452.21  L  1878.19,   452.21  " style="stroke:#FF0000;stroke-width: 1.13 ;&st6;" /></a><a ewd:lineID="63" style="cursor:pointer;"><path d=" M  1920.68,   307.73  L  1844.19,   307.73  L  1844.19,   231.25  " style="stroke:#008837;stroke-width: 5.10 ;&st6;" /></a><a ewd:lineID="64" style="cursor:pointer;"><path d=" M  1920.68,   222.75  L  1852.69,   222.75  " style="stroke:#008837;stroke-width: 5.10 ;&st6;" /></a><a ewd:lineID="65" style="cursor:pointer;"><path d=" M    84.99,   435.21  L    84.99,   468.64  " style="stroke:#000000;stroke-width: 0.85 ;&st6;" /></a><a ewd:code="AI1" ewd:figID="72" ewd:figtype="w2w" ewd:pinNo="2" style="cursor:pointer;"><path d=" M   373.94,   176.01  L   356.94,   176.01  L   356.94,   184.50  L   373.94,   184.50  L   373.94,   176.01 " style="&st2;" /><text style="&st8;" transform="matrix(&st16;  361.07  182.38 )"><tspan style="&st18;" x="0" y="0">AI1</tspan></text></a><a ewd:code="AI1" ewd:figID="73" ewd:figtype="w2w" ewd:pinNo="6" style="cursor:pointer;"><path d=" M   373.94,   133.51  L   356.94,   133.51  L   356.94,   142.01  L   373.94,   142.01  L   373.94,   133.51 " style="&st2;" /><text style="&st8;" transform="matrix(&st16;  361.07  139.88 )"><tspan style="&st18;" x="0" y="0">AI1</tspan></text></a><a ewd:code="AI4" ewd:figID="74" ewd:figtype="w2w" ewd:pinNo="2" style="cursor:pointer;"><path d=" M   373.94,    91.02  L   356.94,    91.02  L   356.94,    99.52  L   373.94,    99.52  L   373.94,    91.02 " style="&st2;" /><text style="&st8;" transform="matrix(&st16;  361.07  97.39 )"><tspan style="&st18;" x="0" y="0">AI4</tspan></text></a><a ewd:code="AI6" ewd:figID="75" ewd:figtype="w2w" ewd:pinNo="8" style="cursor:pointer;"><path d=" M   373.94,    48.53  L   356.94,    48.53  L   356.94,    57.03  L   373.94,    57.03  L   373.94,    48.53 " style="&st2;" /><text style="&st8;" transform="matrix(&st16;  361.07  54.9 )"><tspan style="&st18;" x="0" y="0">AI6</tspan></text></a><a ewd:code="AI2" ewd:figID="76" ewd:figtype="w2w" ewd:pinNo="9" style="cursor:pointer;"><path d=" M   390.93,    48.53  L   373.94,    48.53  L   373.94,    57.03  L   390.93,    57.03  L   390.93,    48.53 " style="&st2;" /><text style="&st8;" transform="matrix(&st16;  378.07  54.9 )"><tspan style="&st18;" x="0" y="0">AI2</tspan></text></a><a ewd:code="AI1" ewd:figID="77" ewd:figtype="w2w" ewd:pinNo="1" style="cursor:pointer;"><path d=" M   407.93,   541.44  L   390.93,   541.44  L   390.93,   549.94  L   407.93,   549.94  L   407.93,   541.44 " style="&st2;" /><text style="&st8;" transform="matrix(&st16;  395.07  547.81 )"><tspan style="&st18;" x="0" y="0">AI1</tspan></text></a><a ewd:code="AI4" ewd:figID="78" ewd:figtype="w2w" ewd:pinNo="4" style="cursor:pointer;"><path d=" M   407.93,   490.45  L   390.93,   490.45  L   390.93,   498.95  L   407.93,   498.95  L   407.93,   490.45 " style="&st2;" /><text style="&st8;" transform="matrix(&st16;  395.07  496.82 )"><tspan style="&st18;" x="0" y="0">AI4</tspan></text></a><a ewd:code="AI4" ewd:figID="79" ewd:figtype="w2w" ewd:pinNo="3" style="cursor:pointer;"><path d=" M   407.93,   447.96  L   390.93,   447.96  L   390.93,   456.46  L   407.93,   456.46  L   407.93,   447.96 " style="&st2;" /><text style="&st8;" transform="matrix(&st16;  395.07  454.33 )"><tspan style="&st18;" x="0" y="0">AI4</tspan></text></a><a ewd:code="AI1" ewd:figID="80" ewd:figtype="w2w" ewd:pinNo="5" style="cursor:pointer;"><path d=" M   407.93,   371.47  L   390.93,   371.47  L   390.93,   379.97  L   407.93,   379.97  L   407.93,   371.47 " style="&st2;" /><text style="&st8;" transform="matrix(&st16;  395.07  377.84 )"><tspan style="&st18;" x="0" y="0">AI1</tspan></text></a><a ewd:code="AI6" ewd:figID="81" ewd:figtype="w2w" ewd:pinNo="11" style="cursor:pointer;"><path d=" M   781.87,   583.94  L   764.87,   583.94  L   764.87,   592.44  L   781.87,   592.44  L   781.87,   583.94 " style="&st2;" /><text style="&st8;" transform="matrix(&st16;  769.01  590.31 )"><tspan style="&st18;" x="0" y="0">AI6</tspan></text></a><a ewd:code="AI2" ewd:figID="82" ewd:figtype="w2w" ewd:pinNo="11" style="cursor:pointer;"><path d=" M   798.87,   583.94  L   781.87,   583.94  L   781.87,   592.44  L   798.87,   592.44  L   798.87,   583.94 " style="&st2;" /><text style="&st8;" transform="matrix(&st16;  786.0  590.31 )"><tspan style="&st18;" x="0" y="0">AI2</tspan></text></a><a ewd:code="IL3" ewd:figID="83" ewd:figtype="w2w" ewd:pinNo="3" style="cursor:pointer;"><path d=" M  1504.25,   150.51  L  1487.25,   150.51  L  1487.25,   159.01  L  1504.25,   159.01  L  1504.25,   150.51 " style="&st2;" /><text style="&st8;" transform="matrix(&st16;  1491.72  156.88 )"><tspan style="&st18;" x="0" y="0">IL3</tspan></text></a><a ewd:code="IL3" ewd:figID="84" ewd:figtype="w2w" ewd:pinNo="4" style="cursor:pointer;"><path d=" M  1504.25,    48.53  L  1487.25,    48.53  L  1487.25,    57.03  L  1504.25,    57.03  L  1504.25,    48.53 " style="&st2;" /><text style="&st8;" transform="matrix(&st16;  1491.72  54.9 )"><tspan style="&st18;" x="0" y="0">IL3</tspan></text></a><a ewd:code="IL3" ewd:figID="85" ewd:figtype="w2w" ewd:pinNo="5" style="cursor:pointer;"><path d=" M  1776.20,   218.50  L  1759.21,   218.50  L  1759.21,   227.00  L  1776.20,   227.00  L  1776.20,   218.50 " style="&st2;" /><text style="&st8;" transform="matrix(&st16;  1763.68  224.87 )"><tspan style="&st18;" x="0" y="0">IL3</tspan></text></a><a ewd:code="IL3" ewd:figID="86" ewd:figtype="w2w" ewd:pinNo="6" style="cursor:pointer;"><path d=" M  1776.20,   167.51  L  1759.21,   167.51  L  1759.21,   176.01  L  1776.20,   176.01  L  1776.20,   167.51 " style="&st2;" /><text style="&st8;" transform="matrix(&st16;  1763.68  173.88 )"><tspan style="&st18;" x="0" y="0">IL3</tspan></text></a><a ewd:code="IL3" ewd:figID="87" ewd:figtype="w2w" ewd:pinNo="2" style="cursor:pointer;"><path d=" M  1776.20,    99.52  L  1759.21,    99.52  L  1759.21,   108.02  L  1776.20,   108.02  L  1776.20,    99.52 " style="&st2;" /><text style="&st8;" transform="matrix(&st16;  1763.68  105.89 )"><tspan style="&st18;" x="0" y="0">IL3</tspan></text></a><a ewd:code="IL3" ewd:figID="88" ewd:figtype="w2w" ewd:pinNo="1" style="cursor:pointer;"><path d=" M  1844.19,    82.52  L  1827.19,    82.52  L  1827.19,    91.02  L  1844.19,    91.02  L  1844.19,    82.52 " style="&st2;" /><text style="&st8;" transform="matrix(&st16;  1831.67  88.89 )"><tspan style="&st18;" x="0" y="0">IL3</tspan></text></a><a ewd:code="DA" ewd:figID="89" ewd:figtype="gp" style="cursor:pointer;"><path d=" M    23.37,   681.67  L    44.62,   681.67  L    33.99,   697.25  L    23.37,   681.67 " style="&st2;" /><text style="&st8;" transform="matrix(&st16;  29.93  689.46 )"><tspan style="&st18;" x="0" y="0">DA</tspan></text></a><a ewd:code="AC" ewd:figID="90" ewd:figtype="gp" style="cursor:pointer;"><path d=" M    74.36,   681.67  L    95.61,   681.67  L    84.99,   697.25  L    74.36,   681.67 " style="&st2;" /><text style="&st8;" transform="matrix(&st16;  80.92  689.46 )"><tspan style="&st18;" x="0" y="0">AC</tspan></text></a><a ewd:code="IC" ewd:figID="91" ewd:figtype="gp" style="cursor:pointer;"><path d=" M  1102.69,   681.67  L  1123.94,   681.67  L  1113.31,   697.25  L  1102.69,   681.67 " style="&st2;" /><text style="&st8;" transform="matrix(&st16;  1110.42  689.46 )"><tspan style="&st18;" x="0" y="0">IC</tspan></text></a><a ewd:code="SP12" ewd:figID="92" ewd:figtype="sp" style="cursor:pointer;"><path d=" M   352.69,   579.69  L   361.19,   579.69  L   365.44,   583.94  L   365.44,   592.44  L   361.19,   596.69  L   352.69,   596.69  L   348.44,   592.44  L   348.44,   583.94  L   352.69,   579.69 " style="&st2;" /></a><a ewd:code="SP4" ewd:figID="93" ewd:figtype="sp" style="cursor:pointer;"><path d=" M   352.69,   443.71  L   361.19,   443.71  L   365.44,   447.96  L   365.44,   456.46  L   361.19,   460.71  L   352.69,   460.71  L   348.44,   456.46  L   348.44,   447.96  L   352.69,   443.71 " style="&st2;" /></a><a ewd:code="SP72" ewd:figID="94" ewd:figtype="sp" style="cursor:pointer;"><path d=" M   463.17,   367.22  L   471.67,   367.22  L   475.92,   371.47  L   475.92,   379.97  L   471.67,   384.22  L   463.17,   384.22  L   458.92,   379.97  L   458.92,   371.47  L   463.17,   367.22 " style="&st2;" /></a><a ewd:code="SP70" ewd:figID="95" ewd:figtype="sp" style="cursor:pointer;"><path d=" M   675.64,   486.20  L   684.14,   486.20  L   688.38,   490.45  L   688.38,   498.95  L   684.14,   503.20  L   675.64,   503.20  L   671.39,   498.95  L   671.39,   490.45  L   675.64,   486.20 " style="&st2;" /></a><a ewd:code="SP10" ewd:figID="96" ewd:figtype="sp" style="cursor:pointer;"><path d=" M   718.13,   579.69  L   726.63,   579.69  L   730.88,   583.94  L   730.88,   592.44  L   726.63,   596.69  L   718.13,   596.69  L   713.88,   592.44  L   713.88,   583.94  L   718.13,   579.69 " style="&st2;" /></a><a ewd:code="SP56" ewd:figID="97" ewd:figtype="sp" style="cursor:pointer;"><path d=" M   769.12,   171.76  L   777.62,   171.76  L   781.87,   176.01  L   781.87,   184.50  L   777.62,   188.75  L   769.12,   188.75  L   764.87,   184.50  L   764.87,   176.01  L   769.12,   171.76 " style="&st2;" /></a><a ewd:code="SP66" ewd:figID="98" ewd:figtype="sp" style="cursor:pointer;"><path d=" M  1109.06,   282.24  L  1117.56,   282.24  L  1121.81,   286.49  L  1121.81,   294.99  L  1117.56,   299.24  L  1109.06,   299.24  L  1104.82,   294.99  L  1104.82,   286.49  L  1109.06,   282.24 " style="&st2;" /></a><a ewd:code="SP71" ewd:figID="99" ewd:figtype="sp" style="cursor:pointer;"><path d=" M  1160.06,   537.20  L  1168.55,   537.20  L  1172.80,   541.44  L  1172.80,   549.94  L  1168.55,   554.19  L  1160.06,   554.19  L  1155.81,   549.94  L  1155.81,   541.44  L  1160.06,   537.20 " style="&st2;" /></a><a ewd:code="SP79" ewd:figID="100" ewd:figtype="sp" style="cursor:pointer;"><path d=" M  1160.06,    86.77  L  1168.55,    86.77  L  1172.80,    91.02  L  1172.80,    99.52  L  1168.55,   103.77  L  1160.06,   103.77  L  1155.81,    99.52  L  1155.81,    91.02  L  1160.06,    86.77 " style="&st2;" /></a><a ewd:code="SP55" ewd:figID="101" ewd:figtype="sp" style="cursor:pointer;"><path d=" M  1194.05,   256.74  L  1202.55,   256.74  L  1206.80,   260.99  L  1206.80,   269.49  L  1202.55,   273.74  L  1194.05,   273.74  L  1189.80,   269.49  L  1189.80,   260.99  L  1194.05,   256.74 " style="&st2;" /></a><a ewd:code="SP80" ewd:figID="102" ewd:figtype="sp" style="cursor:pointer;"><path d=" M  1729.46,   443.71  L  1737.96,   443.71  L  1742.21,   447.96  L  1742.21,   456.46  L  1737.96,   460.71  L  1729.46,   460.71  L  1725.21,   456.46  L  1725.21,   447.96  L  1729.46,   443.71 " style="&st2;" /></a><a ewd:code="SP59" ewd:figID="103" ewd:figtype="sp" style="cursor:pointer;"><path d=" M  1839.94,   214.25  L  1848.44,   214.25  L  1852.69,   218.50  L  1852.69,   227.00  L  1848.44,   231.25  L  1839.94,   231.25  L  1835.69,   227.00  L  1835.69,   218.50  L  1839.94,   214.25 " style="&st2;" /></a><a ewd:code="SP57" ewd:figID="104" ewd:figtype="sp" style="cursor:pointer;"><path d=" M  1873.94,    78.27  L  1882.44,    78.27  L  1886.68,    82.52  L  1886.68,    91.02  L  1882.44,    95.27  L  1873.94,    95.27  L  1869.69,    91.02  L  1869.69,    82.52  L  1873.94,    78.27 " style="&st2;"/></a></g></svg>
