<?xml version="1.0" encoding="utf-8"?>
<!DOCTYPE svg PUBLIC "-//W3C//DTD SVG 1.0//EN" "http://www.w3.org/TR/2001/REC-SVG-20010904/DTD/svg10.dtd"[
	<!ENTITY ns_flows "http://ns.adobe.com/Flows/1.0/">
	<!ENTITY ns_svg "http://www.w3.org/2000/svg">
	<!ENTITY ns_xlink "http://www.w3.org/1999/xlink">
	<!ENTITY st0 "font-size:7px;font-family:'MS-PGothic';adobe-font-script:japanese;">
	<!ENTITY st1 "font-size:6px;font-family:'ArialMT';">
	<!-- White fill  -->
	<!ENTITY st2 "fill:#FFFFFF;stroke:#000000; stroke-width:1.41;stroke-linecap:round;stroke-linejoin:round;">
	<!-- Yellow fill  -->
	<!ENTITY st3 "fill:#FFFFCC;stroke:#FFFFCC; stroke-width:0.1;stroke-linecap:round;stroke-linejoin:round;">
	<!-- Gray fill  -->
	<!ENTITY st4 "fill:#CCCCCC;stroke:#CCCCCC; stroke-width:0.1;stroke-linecap:round;stroke-linejoin:round;">
	<!-- Light-blue fill -->
	<!ENTITY st5 "fill:#CCECF4;stroke:#000000; stroke-width:1.133;stroke-linecap:round;stroke-linejoin:round;">
	<!ENTITY st6 "fill:none;stroke-linecap:butt; stroke-linejoin:round;">
	<!ENTITY st7 "fill:none;stroke:#000000;stroke-linecap:round;stroke-linejoin:round;">
	<!ENTITY st8 "enable-background:new    ;">
	<!-- Black fill -->
	<!ENTITY st9 "fill:#000000;stroke:#000000; stroke-linecap:round;stroke-linejoin:round;">
	<!-- SRS note   -->
	<!ENTITY st10 "font-size:9px;font-family:'ArialMT';">
	<!ENTITY st11 "font-size:9px;font-family:'Svg Symbol';">
	<!ENTITY st12 "font-size:6px;font-family:'Svg Symbol';">
	<!ENTITY st13 "fill:none;stroke:#ff0000;stroke-linecap:round;stroke-linejoin:round;">
	<!-- Yellow fill  -->
	<!ENTITY st14 "fill:#FFFF00;stroke:#FFFF00; stroke-width:0.1;stroke-linecap:round;stroke-linejoin:round;">
	<!ENTITY st15 "font-size:6px;font-family:'MS-PGothic';adobe-font-script:japanese;">
	<!ENTITY st16 "1.00 0.00 0.00 1.00">
	<!ENTITY st17 "0.00 -1.00 1.00 0.00">
	<!ENTITY st18 "font-size:6px;font-family:'Arial';">
	<!ENTITY st19 "font-size:9px;font-family:'Arial';">
	<!ENTITY st20 "font-size:6px;font-family:'MS-PGothic','MS PGothic';adobe-font-script:japanese;">
	<!ENTITY st21 "font-size:7px;font-family:'MS-PGothic','MS PGothic';adobe-font-script:japanese;">
	<!ATTLIST svg
		xmlns:ewd CDATA #FIXED "http://shcl.co.jp/ewd"
		xmlns:a CDATA #FIXED "http://ns.adobe.com/AdobeSVGViewerExtensions/3.0/"
		ewd:ver CDATA #IMPLIED
	>
	<!ATTLIST a
		ewd:lineID CDATA #IMPLIED
		ewd:groupID CDATA #IMPLIED
		ewd:figtype CDATA #IMPLIED
		ewd:code CDATA #IMPLIED
		ewd:figID CDATA #IMPLIED
		ewd:pinNo CDATA #IMPLIED
		ewd:comment CDATA #IMPLIED >
	<!ATTLIST g
		ewd:lineID CDATA #IMPLIED
		ewd:groupID CDATA #IMPLIED
		ewd:figtype CDATA #IMPLIED
		ewd:code CDATA #IMPLIED
		ewd:figID CDATA #IMPLIED
		ewd:pinNo CDATA #IMPLIED
		ewd:comment CDATA #IMPLIED >
	<!ATTLIST text
		ewd:textID CDATA #IMPLIED >
	<!ATTLIST title
		ewd:textID CDATA #IMPLIED >
]>
<!-- Generator: Shintec Hozumi YS   -->
<svg onload="call_execInitLoadProc_svg('system')" style="overflow:visible;  enable-background:new 0 0 2048.583 710.000" viewBox="0 0 2048.583 710.000" height="710.000" width="2048.583" xml:space="preserve" ewd:ver="2.3.1.16" xmlns="&ns_svg;" xmlns:a="http://ns.adobe.com/AdobeSVGViewerExtensions/3.0/" xmlns:ewd="http://shcl.co.jp/ewd" xmlns:xlink="&ns_xlink;">
<text style="&st18;" transform="matrix(&st16;  1056.92  134.07 )">R-B</text><text style="&st18;" transform="matrix(&st16;  1218.39  236.05 )">R-B</text><path d=" M  1121.81,   287.21  L  1116.84,   282.24  " style="stroke-width: 1.42 ;&st7;  " /><path d=" M  1104.82,   294.27  L  1109.78,   299.24  " style="stroke-width: 1.42 ;&st7;  " /><path d=" M  1116.84,   299.24  L  1121.81,   294.27  " style="stroke-width: 1.42 ;&st7;  " /><path d=" M  1109.78,   282.24  L  1104.82,   287.21  " style="stroke-width: 1.42 ;&st7;  " /><path d=" M  1172.80,    91.74  L  1167.83,    86.77  " style="stroke-width: 1.42 ;&st7;  " /><path d=" M  1155.81,    98.80  L  1160.78,   103.77  " style="stroke-width: 1.42 ;&st7;  " /><path d=" M  1167.83,   103.77  L  1172.80,    98.80  " style="stroke-width: 1.42 ;&st7;  " /><path d=" M  1160.78,    86.77  L  1155.81,    91.74  " style="stroke-width: 1.42 ;&st7;  " /><path d=" M  1206.80,   261.71  L  1201.83,   256.74  " style="stroke-width: 1.42 ;&st7;  " /><path d=" M  1189.80,   268.77  L  1194.77,   273.74  " style="stroke-width: 1.42 ;&st7;  " /><path d=" M  1201.83,   273.74  L  1206.80,   268.77  " style="stroke-width: 1.42 ;&st7;  " /><path d=" M  1194.77,   256.74  L  1189.80,   261.71  " style="stroke-width: 1.42 ;&st7;  " /><path d=" M  1172.80,   542.17  L  1167.83,   537.20  " style="stroke-width: 1.42 ;&st7;  " /><path d=" M  1155.81,   549.22  L  1160.78,   554.19  " style="stroke-width: 1.42 ;&st7;  " /><path d=" M  1167.83,   554.19  L  1172.80,   549.22  " style="stroke-width: 1.42 ;&st7;  " /><path d=" M  1160.78,   537.20  L  1155.81,   542.17  " style="stroke-width: 1.42 ;&st7;  " /><text style="&st18;" transform="matrix(&st16;  1060.44  448.51 )">L</text><text style="&st18;" transform="matrix(&st16;  1057.26  491.01 )">L-R</text><text style="&st18;" transform="matrix(&st16;  1056.49  542.0 )">W-L</text><text style="&st18;" transform="matrix(&st16;  1220.6  117.07 )">W</text><text style="&st18;" transform="matrix(&st16;  1217.57  142.56 )">W-B</text><text style="&st18;" transform="matrix(&st16;  1220.6  346.53 )">W</text><text style="&st18;" transform="matrix(&st16;  1220.6  261.54 )">W</text><text style="&st18;" transform="matrix(&st16;  1217.57  287.04 )">W-B</text><text style="&st18;" transform="matrix(&st16;  1217.96  542.0 )">W-L</text><text style="&st18;" transform="matrix(&st16;  1217.96  575.99 )">W-L</text><text style="&st18;" transform="matrix(&st17;  1109.62  330.45 )">W-B</text><text style="&st18;" transform="matrix(&st16;  1201.74  91.57 )">L-R</text><text style="&st18;" transform="matrix(&st17;  1109.62  619.4 )">W-B</text><text style="&st18;" transform="matrix(&st17;  1160.61  176.31 )">L-R</text><text style="&st18;" transform="matrix(&st16;  1217.96  660.98 )">W-L</text><text style="&st18;" transform="matrix(&st16;  1217.96  618.48 )">W-L</text><text style="&st18;" transform="matrix(&st16;  1005.5  542.0 )">W-L</text><text style="&st18;" transform="matrix(&st16;  1006.27  491.01 )">L-R</text><text style="&st18;" transform="matrix(&st16;  1009.45  448.51 )">L</text><text style="&st18;" transform="matrix(&st16;  1005.92  134.07 )">R-B</text><text style="&st18;" transform="matrix(&st16;  1006.27  91.57 )">L-R</text><text style="&st18;" transform="matrix(&st16;  1006.43  49.08 )">B-L</text><text style="&st18;" transform="matrix(&st16;  1057.42  49.08 )">B-L</text><text style="&st18;" transform="matrix(&st16;  1057.26  91.57 )">L-R</text><text style="&st18;" transform="matrix(&st16;  1465.35  49.08 )">B-L</text><text style="&st18;" transform="matrix(&st16;  1468.38  151.06 )">L</text><g ewd:code="2" ewd:figID="11" ewd:figtype="rb"><path d=" M  1351.27,   622.18  L  1321.53,   622.18  " style="stroke-width: 0.85 ;&st7;  " /><path d=" M  1317.28,   626.43  L  1313.03,   626.43  " style="stroke-width: 1.42 ;&st7;  " /><path d=" M  1313.03,   617.93  L  1317.28,   617.93  " style="stroke-width: 1.42 ;&st7;  " /><path d=" M  1262.04,   660.42  L  1266.29,   660.42  " style="stroke-width: 1.42 ;&st7;  " /><path d=" M  1266.29,   668.92  L  1262.04,   668.92  " style="stroke-width: 1.42 ;&st7;  " /><path d=" M  1266.29,   583.94  L  1262.04,   583.94  " style="stroke-width: 1.42 ;&st7;  " /><path d=" M  1262.04,   575.44  L  1266.29,   575.44  " style="stroke-width: 1.42 ;&st7;  " /><path d=" M  1262.04,   660.42  C  1259.69    660.42   1257.79    662.33   1257.79    664.67  " style="stroke-width: 1.42 ;&st7;   " /><path d=" M  1321.53,   622.18  C  1321.53    619.83   1319.63    617.93   1317.28    617.93  " style="stroke-width: 1.42 ;&st7;   " /><path d=" M  1313.03,   617.93  C  1310.68    617.93   1308.78    619.83   1308.78    622.18  " style="stroke-width: 1.42 ;&st7;   " /><path d=" M  1257.79,   664.67  C  1257.79    667.02   1259.69    668.92   1262.04    668.92  " style="stroke-width: 1.42 ;&st7;   " /><path d=" M  1262.04,   575.44  C  1259.69    575.44   1257.79    577.34   1257.79    579.69  " style="stroke-width: 1.42 ;&st7;   " /><path d=" M  1270.54,   664.67  C  1270.54    662.33   1268.64    660.42   1266.29    660.42  " style="stroke-width: 1.42 ;&st7;   " /><path d=" M  1266.29,   668.92  C  1268.64    668.92   1270.54    667.02   1270.54    664.67  " style="stroke-width: 1.42 ;&st7;   " /><path d=" M  1317.28,   626.43  C  1319.63    626.43   1321.53    624.53   1321.53    622.18  " style="stroke-width: 1.42 ;&st7;   " /><path d=" M  1270.54,   579.69  C  1270.54    577.34   1268.64    575.44   1266.29    575.44  " style="stroke-width: 1.42 ;&st7;   " /><path d=" M  1266.29,   583.94  C  1268.64    583.94   1270.54    582.04   1270.54    579.69  " style="stroke-width: 1.42 ;&st7;   " /><path d=" M  1257.79,   579.69  C  1257.79    582.04   1259.69    583.94   1262.04    583.94  " style="stroke-width: 1.42 ;&st7;   " /><path d=" M  1308.78,   622.18  C  1308.78    624.53   1310.68    626.43   1313.03    626.43  " style="stroke-width: 1.42 ;&st7;   " /><path d=" M  1436.26,   622.18  L  1385.27,   622.18  " style="stroke-width: 0.85 ;&st7;  " /><path d=" M  1308.78,   664.67  L  1270.54,   664.67  " style="stroke-width: 0.85 ;&st7;  " /><path d=" M  1275.43,   664.67  L  1278.27,   661.84  L  1274.02,   661.84  L  1271.18,   664.67  L  1274.02,   667.51  L  1278.27,   667.51  L  1275.43,   664.67  " style="stroke-width: 0.28 ;&st9;  " /><path d=" M  1351.27,   664.67  L  1376.77,   664.67  " style="stroke-width: 0.85 ;&st7;  " /><path d=" M  1436.26,   579.69  L  1410.76,   579.69  L  1410.76,   664.67  L  1436.26,   664.67  " style="stroke-width: 0.85 ;&st7;  " /><path d=" M  1478.75,   579.69  L  1504.25,   579.69  " style="stroke-width: 0.85 ;&st7;  " /><path d=" M  1504.25,   622.18  L  1478.75,   622.18  " style="stroke-width: 0.85 ;&st7;  " /><path d=" M  1504.25,   664.67  L  1478.75,   664.67  " style="stroke-width: 0.85 ;&st7;  " /><path d=" M  1409.57,   621.18  L  1409.30,   621.65  L  1409.21,   622.18  L  1409.30,   622.71  L  1409.57,   623.18  L  1409.98,   623.53  L  1410.49,   623.72  L  1411.04,   623.72  L  1411.54,   623.53  L  1411.96,   623.18  L  1412.23,   622.71  L  1412.32,   622.18  L  1412.23,   621.65  L  1411.96,   621.18  L  1411.54,   620.83  L  1411.04,   620.65  L  1410.49,   620.65  L  1409.98,   620.83  L  1409.57,   621.18  L  1409.96,   621.89  L  1409.96,   622.47  L  1410.34,   622.92  L  1410.91,   623.02  L  1411.42,   622.73  L  1411.61,   622.18  L  1411.42,   621.63  L  1410.91,   621.35  L  1410.34,   621.44  L  1410.76,   622.18  " style="stroke-width: 0.85 ;&st7;  " /><path d=" M  1270.54,   579.69  L  1308.78,   579.69  " style="stroke-width: 0.85 ;&st7;  " /><path d=" M  1351.27,   579.69  L  1376.77,   579.69  " style="stroke-width: 0.85 ;&st7;  " /><path d=" M  1275.43,   579.69  L  1278.27,   576.86  L  1274.02,   576.86  L  1271.18,   579.69  L  1274.02,   582.52  L  1278.27,   582.52  L  1275.43,   579.69  " style="stroke-width: 0.28 ;&st9;  " /><path d=" M  1326.42,   622.18  L  1329.26,   619.35  L  1325.01,   619.35  L  1322.17,   622.18  L  1325.01,   625.01  L  1329.26,   625.01  L  1326.42,   622.18  " style="stroke-width: 0.28 ;&st9;  " /><text style="&st18;" transform="matrix(&st16;  1351.62  609.99 )">SHORT PIN</text><text style="&st18;" transform="matrix(&st16;  1262.29  666.64 )">2</text><text style="&st18;" transform="matrix(&st16;  1313.28  624.15 )">2</text><text style="&st18;" transform="matrix(&st16;  1481.34  618.49 )">2</text><text style="&st18;" transform="matrix(&st16;  1429.92  618.49 )">1</text><text style="&st18;" transform="matrix(&st16;  1441.75  604.32 )">10A ECU-B</text><text style="&st18;" transform="matrix(&st16;  1387.85  618.49 )">2</text><text style="&st18;" transform="matrix(&st16;  1314.62  646.81 )">30A DOOR</text><text style="&st18;" transform="matrix(&st16;  1302.44  660.98 )">1</text><text style="&st18;" transform="matrix(&st16;  1353.86  660.98 )">2</text><text style="&st18;" transform="matrix(&st16;  1434.26  561.83 )">10A DOME NO.1</text><text style="&st18;" transform="matrix(&st16;  1429.92  576.0 )">1</text><text style="&st18;" transform="matrix(&st16;  1481.34  576.0 )">2</text><text style="&st18;" transform="matrix(&st16;  1441.59  646.81 )">15A RADIO</text><text style="&st18;" transform="matrix(&st16;  1429.92  660.98 )">1</text><text style="&st18;" transform="matrix(&st16;  1481.34  660.98 )">2</text><text style="&st18;" transform="matrix(&st16;  1310.9  561.83 )">30A TRAILER</text><text style="&st18;" transform="matrix(&st16;  1302.44  576.0 )">1</text><text style="&st18;" transform="matrix(&st16;  1353.86  576.0 )">2</text><text style="&st18;" transform="matrix(&st16;  1262.29  581.66 )">2</text><text style="&st18;" transform="matrix(&st16;  1344.93  618.49 )">1</text><path d=" M  1351.27,   622.18  L  1385.27,   622.18  " style="stroke-width: 0.85 ;&st7;  " /><path d=" M  1351.27,   613.68  L  1385.27,   613.68  L  1385.27,   630.68  L  1351.27,   630.68  L  1351.27,   613.68  " style="stroke-width: 1.42 ;&st7;  " /><path d=" M  1359.77,   619.35  L  1376.77,   619.35  L  1376.77,   625.01  L  1359.77,   625.01  L  1359.77,   619.35  " style="stroke-width: 1.42 ;&st7;  " /></g><g ewd:code="FUSE26" ewd:figID="12" ewd:figtype="rb"><path d=" M  1253.54,   120.77  L  1283.29,   120.77  " style="stroke-width: 0.85 ;&st7;  " /><path d=" M  1253.54,    95.27  L  1279.04,    95.27  " style="stroke-width: 0.85 ;&st7;  " /><path d=" M  1249.29,   150.51  L  1245.04,   150.51  " style="stroke-width: 1.42 ;&st7;  " /><path d=" M  1245.04,   142.01  L  1249.29,   142.01  " style="stroke-width: 1.42 ;&st7;  " /><path d=" M  1253.54,   265.24  L  1283.29,   265.24  " style="stroke-width: 0.85 ;&st7;  " /><path d=" M  1253.54,   239.75  L  1279.04,   239.75  " style="stroke-width: 0.85 ;&st7;  " /><path d=" M  1249.29,   125.01  L  1245.04,   125.01  " style="stroke-width: 1.42 ;&st7;  " /><path d=" M  1245.04,   116.52  L  1249.29,   116.52  " style="stroke-width: 1.42 ;&st7;  " /><path d=" M  1249.29,    99.52  L  1245.04,    99.52  " style="stroke-width: 1.42 ;&st7;  " /><path d=" M  1245.04,    91.02  L  1249.29,    91.02  " style="stroke-width: 1.42 ;&st7;  " /><path d=" M  1245.04,   235.50  L  1249.29,   235.50  " style="stroke-width: 1.42 ;&st7;  " /><path d=" M  1249.29,   243.99  L  1245.04,   243.99  " style="stroke-width: 1.42 ;&st7;  " /><path d=" M  1245.04,   260.99  L  1249.29,   260.99  " style="stroke-width: 1.42 ;&st7;  " /><path d=" M  1249.29,   269.49  L  1245.04,   269.49  " style="stroke-width: 1.42 ;&st7;  " /><path d=" M  1245.04,   286.49  L  1249.29,   286.49  " style="stroke-width: 1.42 ;&st7;  " /><path d=" M  1249.29,   294.99  L  1245.04,   294.99  " style="stroke-width: 1.42 ;&st7;  " /><path d=" M  1253.54,   146.26  C  1253.54    143.91   1251.64    142.01   1249.29    142.01  " style="stroke-width: 1.42 ;&st7;   " /><path d=" M  1249.29,   150.51  C  1251.64    150.51   1253.54    148.61   1253.54    146.26  " style="stroke-width: 1.42 ;&st7;   " /><path d=" M  1240.79,   146.26  C  1240.79    148.61   1242.70    150.51   1245.04    150.51  " style="stroke-width: 1.42 ;&st7;   " /><path d=" M  1245.04,   142.01  C  1242.70    142.01   1240.79    143.91   1240.79    146.26  " style="stroke-width: 1.42 ;&st7;   " /><path d=" M  1253.54,   120.77  C  1253.54    118.42   1251.64    116.52   1249.29    116.52  " style="stroke-width: 1.42 ;&st7;   " /><path d=" M  1249.29,   125.01  C  1251.64    125.01   1253.54    123.11   1253.54    120.77  " style="stroke-width: 1.42 ;&st7;   " /><path d=" M  1240.79,   120.77  C  1240.79    123.11   1242.70    125.01   1245.04    125.01  " style="stroke-width: 1.42 ;&st7;   " /><path d=" M  1245.04,   116.52  C  1242.70    116.52   1240.79    118.42   1240.79    120.77  " style="stroke-width: 1.42 ;&st7;   " /><path d=" M  1253.54,    95.27  C  1253.54     92.92   1251.64     91.02   1249.29     91.02  " style="stroke-width: 1.42 ;&st7;   " /><path d=" M  1249.29,    99.52  C  1251.64     99.52   1253.54     97.62   1253.54     95.27  " style="stroke-width: 1.42 ;&st7;   " /><path d=" M  1240.79,    95.27  C  1240.79     97.62   1242.70     99.52   1245.04     99.52  " style="stroke-width: 1.42 ;&st7;   " /><path d=" M  1245.04,    91.02  C  1242.70     91.02   1240.79     92.92   1240.79     95.27  " style="stroke-width: 1.42 ;&st7;   " /><path d=" M  1245.04,   235.50  C  1242.70    235.50   1240.79    237.40   1240.79    239.75  " style="stroke-width: 1.42 ;&st7;   " /><path d=" M  1240.79,   239.75  C  1240.79    242.09   1242.70    243.99   1245.04    243.99  " style="stroke-width: 1.42 ;&st7;   " /><path d=" M  1249.29,   243.99  C  1251.64    243.99   1253.54    242.09   1253.54    239.75  " style="stroke-width: 1.42 ;&st7;   " /><path d=" M  1253.54,   239.75  C  1253.54    237.40   1251.64    235.50   1249.29    235.50  " style="stroke-width: 1.42 ;&st7;   " /><path d=" M  1245.04,   260.99  C  1242.70    260.99   1240.79    262.89   1240.79    265.24  " style="stroke-width: 1.42 ;&st7;   " /><path d=" M  1240.79,   265.24  C  1240.79    267.59   1242.70    269.49   1245.04    269.49  " style="stroke-width: 1.42 ;&st7;   " /><path d=" M  1249.29,   269.49  C  1251.64    269.49   1253.54    267.59   1253.54    265.24  " style="stroke-width: 1.42 ;&st7;   " /><path d=" M  1253.54,   265.24  C  1253.54    262.89   1251.64    260.99   1249.29    260.99  " style="stroke-width: 1.42 ;&st7;   " /><path d=" M  1245.04,   286.49  C  1242.70    286.49   1240.79    288.39   1240.79    290.74  " style="stroke-width: 1.42 ;&st7;   " /><path d=" M  1240.79,   290.74  C  1240.79    293.08   1242.70    294.99   1245.04    294.99  " style="stroke-width: 1.42 ;&st7;   " /><path d=" M  1249.29,   294.99  C  1251.64    294.99   1253.54    293.08   1253.54    290.74  " style="stroke-width: 1.42 ;&st7;   " /><path d=" M  1253.54,   290.74  C  1253.54    288.39   1251.64    286.49   1249.29    286.49  " style="stroke-width: 1.42 ;&st7;   " /><path d=" M  1258.44,   146.26  L  1261.27,   143.43  L  1257.02,   143.43  L  1254.19,   146.26  L  1257.02,   149.09  L  1261.27,   149.09  L  1258.44,   146.26  " style="stroke-width: 0.28 ;&st9;  " /><path d=" M  1308.78,    95.27  L  1376.77,    95.27  " style="stroke-width: 0.85 ;&st7;  " /><path d=" M  1258.44,   120.77  L  1261.27,   117.93  L  1257.02,   117.93  L  1254.19,   120.77  L  1257.02,   123.60  L  1261.27,   123.60  L  1258.44,   120.77  " style="stroke-width: 0.28 ;&st9;  " /><path d=" M  1308.78,   239.75  L  1376.77,   239.75  " style="stroke-width: 0.85 ;&st7;  " /><path d=" M  1308.78,   120.77  L  1325.78,   120.77  L  1325.78,   146.26  L  1253.54,   146.26  " style="stroke-width: 0.85 ;&st7;  " /><path d=" M  1308.78,   265.24  L  1325.78,   265.24  L  1325.78,   290.74  L  1253.54,   290.74  " style="stroke-width: 0.85 ;&st7;  " /><path d=" M  1258.44,    95.27  L  1261.27,    92.44  L  1257.02,    92.44  L  1254.19,    95.27  L  1257.02,    98.10  L  1261.27,    98.10  L  1258.44,    95.27  " style="stroke-width: 0.28 ;&st9;  " /><path d=" M  1444.76,   324.73  L  1419.26,   324.73  " style="stroke-width: 0.85 ;&st7;  " /><path d=" M  1376.77,   324.73  L  1351.27,   324.73  L  1351.27,   239.75  " style="stroke-width: 0.85 ;&st7;  " /><path d=" M  1351.27,   282.24  L  1376.77,   282.24  " style="stroke-width: 0.85 ;&st7;  " /><path d=" M  1350.08,   238.74  L  1349.81,   239.21  L  1349.72,   239.75  L  1349.81,   240.28  L  1350.08,   240.75  L  1350.49,   241.09  L  1351.00,   241.28  L  1351.55,   241.28  L  1352.05,   241.09  L  1352.47,   240.75  L  1352.74,   240.28  L  1352.83,   239.75  L  1352.74,   239.21  L  1352.47,   238.74  L  1352.05,   238.40  L  1351.55,   238.21  L  1351.00,   238.21  L  1350.49,   238.40  L  1350.08,   238.74  L  1350.47,   239.45  L  1350.47,   240.04  L  1350.85,   240.48  L  1351.42,   240.58  L  1351.93,   240.29  L  1352.12,   239.75  L  1351.93,   239.20  L  1351.42,   238.91  L  1350.85,   239.01  L  1351.27,   239.75  " style="stroke-width: 0.85 ;&st7;  " /><path d=" M  1350.08,   281.24  L  1349.81,   281.71  L  1349.72,   282.24  L  1349.81,   282.77  L  1350.08,   283.24  L  1350.49,   283.59  L  1351.00,   283.77  L  1351.55,   283.77  L  1352.05,   283.59  L  1352.47,   283.24  L  1352.74,   282.77  L  1352.83,   282.24  L  1352.74,   281.71  L  1352.47,   281.24  L  1352.05,   280.89  L  1351.55,   280.70  L  1351.00,   280.70  L  1350.49,   280.89  L  1350.08,   281.24  L  1350.47,   281.95  L  1350.47,   282.53  L  1350.85,   282.97  L  1351.42,   283.07  L  1351.93,   282.79  L  1352.12,   282.24  L  1351.93,   281.69  L  1351.42,   281.40  L  1350.85,   281.50  L  1351.27,   282.24  " style="stroke-width: 0.85 ;&st7;  " /><path d=" M  1351.27,    95.27  L  1351.27,   180.26  L  1376.77,   180.26  " style="stroke-width: 0.85 ;&st7;  " /><path d=" M  1351.27,   137.76  L  1376.77,   137.76  " style="stroke-width: 0.85 ;&st7;  " /><path d=" M  1419.26,    95.27  L  1444.76,    95.27  " style="stroke-width: 0.85 ;&st7;  " /><path d=" M  1419.26,   137.76  L  1444.76,   137.76  " style="stroke-width: 0.85 ;&st7;  " /><path d=" M  1419.26,   239.75  L  1444.76,   239.75  " style="stroke-width: 0.85 ;&st7;  " /><path d=" M  1419.26,   282.24  L  1444.76,   282.24  " style="stroke-width: 0.85 ;&st7;  " /><path d=" M  1350.08,    94.27  L  1349.81,    94.74  L  1349.72,    95.27  L  1349.81,    95.80  L  1350.08,    96.27  L  1350.49,    96.62  L  1351.00,    96.81  L  1351.55,    96.81  L  1352.05,    96.62  L  1352.47,    96.27  L  1352.74,    95.80  L  1352.83,    95.27  L  1352.74,    94.74  L  1352.47,    94.27  L  1352.05,    93.92  L  1351.55,    93.73  L  1351.00,    93.73  L  1350.49,    93.92  L  1350.08,    94.27  L  1350.47,    94.98  L  1350.47,    95.56  L  1350.85,    96.01  L  1351.42,    96.11  L  1351.93,    95.82  L  1352.12,    95.27  L  1351.93,    94.72  L  1351.42,    94.43  L  1350.85,    94.53  L  1351.27,    95.27  " style="stroke-width: 0.85 ;&st7;  " /><path d=" M  1350.08,   136.76  L  1349.81,   137.23  L  1349.72,   137.76  L  1349.81,   138.30  L  1350.08,   138.77  L  1350.49,   139.11  L  1351.00,   139.30  L  1351.55,   139.30  L  1352.05,   139.11  L  1352.47,   138.77  L  1352.74,   138.30  L  1352.83,   137.76  L  1352.74,   137.23  L  1352.47,   136.76  L  1352.05,   136.41  L  1351.55,   136.23  L  1351.00,   136.23  L  1350.49,   136.41  L  1350.08,   136.76  L  1350.47,   137.47  L  1350.47,   138.05  L  1350.85,   138.50  L  1351.42,   138.60  L  1351.93,   138.31  L  1352.12,   137.76  L  1351.93,   137.22  L  1351.42,   136.93  L  1350.85,   137.03  L  1351.27,   137.76  " style="stroke-width: 0.85 ;&st7;  " /><path d=" M  1444.76,   180.26  L  1419.26,   180.26  " style="stroke-width: 0.85 ;&st7;  " /><path d=" M  1258.44,   239.75  L  1261.27,   236.91  L  1257.02,   236.91  L  1254.19,   239.75  L  1257.02,   242.58  L  1261.27,   242.58  L  1258.44,   239.75  " style="stroke-width: 0.28 ;&st9;  " /><path d=" M  1258.44,   265.24  L  1261.27,   262.41  L  1257.02,   262.41  L  1254.19,   265.24  L  1257.02,   268.07  L  1261.27,   268.07  L  1258.44,   265.24  " style="stroke-width: 0.28 ;&st9;  " /><path d=" M  1258.44,   290.74  L  1261.27,   287.90  L  1257.02,   287.90  L  1254.19,   290.74  L  1257.02,   293.57  L  1261.27,   293.57  L  1258.44,   290.74  " style="stroke-width: 0.28 ;&st9;  " /><text style="&st18;" transform="matrix(&st16;  1245.29  148.23 )">2</text><text style="&st18;" transform="matrix(&st16;  1268.45  91.58 )">3</text><text style="&st18;" transform="matrix(&st16;  1268.45  117.08 )">1</text><text style="&st18;" transform="matrix(&st16;  1311.36  91.58 )">5</text><text style="&st18;" transform="matrix(&st16;  1311.36  117.08 )">2</text><text style="&st18;" transform="matrix(&st16;  1421.85  134.07 )">2</text><text style="&st18;" transform="matrix(&st16;  1370.43  134.07 )">1</text><text style="&st18;" transform="matrix(&st16;  1381.25  119.9 )">15A ECU IG</text><text style="&st18;" transform="matrix(&st16;  1421.85  91.58 )">2</text><text style="&st18;" transform="matrix(&st16;  1370.43  91.58 )">1</text><text style="&st18;" transform="matrix(&st16;  1380.74  77.41 )">15A GAUGE</text><text ewd:textID="6" style="&st18;" transform="matrix(&st16;  1275.79  83.07 )">IG1 1 Relay</text><text style="&st18;" transform="matrix(&st16;  1245.29  122.73 )">2</text><text style="&st18;" transform="matrix(&st16;  1421.85  278.55 )">2</text><text style="&st18;" transform="matrix(&st16;  1370.43  278.55 )">1</text><text style="&st18;" transform="matrix(&st16;  1385.79  264.38 )">20A WIP</text><text style="&st18;" transform="matrix(&st16;  1421.85  236.06 )">2</text><text style="&st18;" transform="matrix(&st16;  1370.43  236.06 )">1</text><text style="&st18;" transform="matrix(&st16;  1376.91  221.88 )">15A FUEL HTR</text><text style="&st18;" transform="matrix(&st16;  1268.45  236.06 )">3</text><text style="&st18;" transform="matrix(&st16;  1268.45  261.55 )">1</text><text style="&st18;" transform="matrix(&st16;  1311.36  236.06 )">5</text><text style="&st18;" transform="matrix(&st16;  1311.36  261.55 )">2</text><text ewd:textID="7" style="&st18;" transform="matrix(&st16;  1275.79  227.55 )">IG1 2 Relay</text><text style="&st18;" transform="matrix(&st16;  1245.29  97.24 )">2</text><text style="&st18;" transform="matrix(&st16;  1380.12  306.87 )">30A POWER</text><text style="&st18;" transform="matrix(&st16;  1370.43  321.04 )">1</text><text style="&st18;" transform="matrix(&st16;  1421.85  321.04 )">2</text><text style="&st18;" transform="matrix(&st16;  1421.85  176.57 )">2</text><text style="&st18;" transform="matrix(&st16;  1370.43  176.57 )">1</text><text style="&st18;" transform="matrix(&st16;  1384.97  162.39 )">30A DIFF</text><text style="&st18;" transform="matrix(&st16;  1245.29  241.71 )">2</text><text style="&st18;" transform="matrix(&st16;  1245.29  267.21 )">2</text><text style="&st18;" transform="matrix(&st16;  1245.29  292.71 )">2</text><path d=" M  1385.27,    95.27  L  1376.77,    95.27  " style="stroke-width: 0.85 ;&st7;  " /><path d=" M  1388.10,    95.27  C  1388.10     94.49   1387.47     93.85   1386.68     93.85  " style="stroke-width: 0.85 ;&st7;   " /><path d=" M  1386.68,    93.85  C  1385.90     93.85   1385.27     94.49   1385.27     95.27  " style="stroke-width: 0.85 ;&st7;   " /><path d=" M  1385.27,    95.27  C  1385.27     96.05   1385.90     96.69   1386.68     96.69  " style="stroke-width: 0.85 ;&st7;   " /><path d=" M  1386.68,    96.69  C  1387.47     96.69   1388.10     96.05   1388.10     95.27  " style="stroke-width: 0.85 ;&st7;   " /><path d=" M  1410.76,    95.27  C  1410.76     94.49   1410.13     93.85   1409.35     93.85  " style="stroke-width: 0.85 ;&st7;   " /><path d=" M  1409.35,    93.85  C  1408.57     93.85   1407.93     94.49   1407.93     95.27  " style="stroke-width: 0.85 ;&st7;   " /><path d=" M  1407.93,    95.27  C  1407.93     96.05   1408.57     96.69   1409.35     96.69  " style="stroke-width: 0.85 ;&st7;   " /><path d=" M  1409.35,    96.69  C  1410.13     96.69   1410.76     96.05   1410.76     95.27  " style="stroke-width: 0.85 ;&st7;   " /><path d=" M  1388.10,    95.27  C  1389.71     98.01   1393.24     98.92   1395.98     97.31  " style="stroke-width: 1.42 ;&st7;   " /><path d=" M  1395.98,    97.31  C  1396.86     96.79   1397.50     96.15   1398.02     95.27  " style="stroke-width: 1.42 ;&st7;   " /><path d=" M  1407.93,    95.27  C  1406.32     92.53   1402.79     91.62   1400.05     93.23  " style="stroke-width: 1.42 ;&st7;   " /><path d=" M  1400.05,    93.23  C  1399.17     93.75   1398.54     94.39   1398.02     95.27  " style="stroke-width: 1.42 ;&st7;   " /><path d=" M  1376.77,    82.52  L  1376.77,   108.02  L  1419.26,   108.02  L  1419.26,    82.52  L  1376.77,    82.52  " style="stroke-width: 1.42 ;&st7;  " /><path d=" M  1419.26,    95.27  L  1410.76,    95.27  " style="stroke-width: 0.85 ;&st7;  " /></g><g ewd:code="FUSE37" ewd:figID="18" ewd:figtype="rb"><path d=" M  1317.28,   579.69  L  1308.78,   579.69  " style="stroke-width: 0.85 ;&st7;  " /><path d=" M  1342.78,   579.69  C  1342.78    578.91   1342.14    578.27   1341.36    578.27  " style="stroke-width: 0.85 ;&st7;   " /><path d=" M  1341.36,   578.27  C  1340.58    578.27   1339.94    578.91   1339.94    579.69  " style="stroke-width: 0.85 ;&st7;   " /><path d=" M  1339.94,   579.69  C  1339.94    580.47   1340.58    581.10   1341.36    581.10  " style="stroke-width: 0.85 ;&st7;   " /><path d=" M  1341.36,   581.10  C  1342.14    581.10   1342.78    580.47   1342.78    579.69  " style="stroke-width: 0.85 ;&st7;   " /><path d=" M  1320.11,   579.69  C  1320.11    578.91   1319.48    578.27   1318.70    578.27  " style="stroke-width: 0.85 ;&st7;   " /><path d=" M  1318.70,   578.27  C  1317.91    578.27   1317.28    578.91   1317.28    579.69  " style="stroke-width: 0.85 ;&st7;   " /><path d=" M  1317.28,   579.69  C  1317.28    580.47   1317.91    581.10   1318.70    581.10  " style="stroke-width: 0.85 ;&st7;   " /><path d=" M  1318.70,   581.10  C  1319.48    581.10   1320.11    580.47   1320.11    579.69  " style="stroke-width: 0.85 ;&st7;   " /><path d=" M  1320.11,   579.69  C  1321.73    582.43   1325.25    583.34   1327.99    581.73  " style="stroke-width: 1.42 ;&st7;   " /><path d=" M  1327.99,   581.73  C  1328.87    581.21   1329.51    580.57   1330.03    579.69  " style="stroke-width: 1.42 ;&st7;   " /><path d=" M  1339.94,   579.69  C  1338.33    576.95   1334.80    576.04   1332.06    577.65  " style="stroke-width: 1.42 ;&st7;   " /><path d=" M  1332.06,   577.65  C  1331.18    578.17   1330.55    578.81   1330.03    579.69  " style="stroke-width: 1.42 ;&st7;   " /><path d=" M  1351.27,   579.69  L  1342.78,   579.69  " style="stroke-width: 0.85 ;&st7;  " /><path d=" M  1308.78,   566.94  L  1308.78,   592.44  L  1351.27,   592.44  L  1351.27,   566.94  L  1308.78,   566.94  " style="stroke-width: 1.42 ;&st7;  " /></g><g ewd:code="FUSE35" ewd:figID="24" ewd:figtype="rb"><path d=" M  1410.76,   324.73  L  1419.26,   324.73  " style="stroke-width: 0.85 ;&st7;  " /><path d=" M  1388.10,   324.73  C  1389.71    327.47   1393.24    328.38   1395.98    326.77  " style="stroke-width: 1.42 ;&st7;   " /><path d=" M  1395.98,   326.77  C  1396.86    326.25   1397.50    325.61   1398.02    324.73  " style="stroke-width: 1.42 ;&st7;   " /><path d=" M  1407.93,   324.73  C  1406.32    321.99   1402.79    321.08   1400.05    322.69  " style="stroke-width: 1.42 ;&st7;   " /><path d=" M  1400.05,   322.69  C  1399.17    323.21   1398.54    323.85   1398.02    324.73  " style="stroke-width: 1.42 ;&st7;   " /><path d=" M  1410.76,   324.73  C  1410.76    323.95   1410.13    323.31   1409.35    323.31  " style="stroke-width: 0.85 ;&st7;   " /><path d=" M  1409.35,   323.31  C  1408.57    323.31   1407.93    323.95   1407.93    324.73  " style="stroke-width: 0.85 ;&st7;   " /><path d=" M  1407.93,   324.73  C  1407.93    325.51   1408.57    326.15   1409.35    326.15  " style="stroke-width: 0.85 ;&st7;   " /><path d=" M  1409.35,   326.15  C  1410.13    326.15   1410.76    325.51   1410.76    324.73  " style="stroke-width: 0.85 ;&st7;   " /><path d=" M  1388.10,   324.73  C  1388.10    323.95   1387.47    323.31   1386.68    323.31  " style="stroke-width: 0.85 ;&st7;   " /><path d=" M  1386.68,   323.31  C  1385.90    323.31   1385.27    323.95   1385.27    324.73  " style="stroke-width: 0.85 ;&st7;   " /><path d=" M  1385.27,   324.73  C  1385.27    325.51   1385.90    326.15   1386.68    326.15  " style="stroke-width: 0.85 ;&st7;   " /><path d=" M  1386.68,   326.15  C  1387.47    326.15   1388.10    325.51   1388.10    324.73  " style="stroke-width: 0.85 ;&st7;   " /><path d=" M  1376.77,   311.98  L  1376.77,   337.48  L  1419.26,   337.48  L  1419.26,   311.98  L  1376.77,   311.98  " style="stroke-width: 1.42 ;&st7;  " /><path d=" M  1376.77,   324.73  L  1385.27,   324.73  " style="stroke-width: 0.85 ;&st7;  " /></g><g ewd:code="FUSE34" ewd:figID="27" ewd:figtype="rb"><path d=" M  1317.28,   664.67  L  1308.78,   664.67  " style="stroke-width: 0.85 ;&st7;  " /><path d=" M  1320.11,   664.67  C  1321.73    667.41   1325.25    668.32   1327.99    666.71  " style="stroke-width: 1.42 ;&st7;   " /><path d=" M  1327.99,   666.71  C  1328.87    666.19   1329.51    665.56   1330.03    664.67  " style="stroke-width: 1.42 ;&st7;   " /><path d=" M  1342.78,   664.67  C  1342.78    663.89   1342.14    663.26   1341.36    663.26  " style="stroke-width: 0.85 ;&st7;   " /><path d=" M  1341.36,   663.26  C  1340.58    663.26   1339.94    663.89   1339.94    664.67  " style="stroke-width: 0.85 ;&st7;   " /><path d=" M  1339.94,   664.67  C  1339.94    665.46   1340.58    666.09   1341.36    666.09  " style="stroke-width: 0.85 ;&st7;   " /><path d=" M  1341.36,   666.09  C  1342.14    666.09   1342.78    665.46   1342.78    664.67  " style="stroke-width: 0.85 ;&st7;   " /><path d=" M  1320.11,   664.67  C  1320.11    663.89   1319.48    663.26   1318.70    663.26  " style="stroke-width: 0.85 ;&st7;   " /><path d=" M  1318.70,   663.26  C  1317.91    663.26   1317.28    663.89   1317.28    664.67  " style="stroke-width: 0.85 ;&st7;   " /><path d=" M  1317.28,   664.67  C  1317.28    665.46   1317.91    666.09   1318.70    666.09  " style="stroke-width: 0.85 ;&st7;   " /><path d=" M  1318.70,   666.09  C  1319.48    666.09   1320.11    665.46   1320.11    664.67  " style="stroke-width: 0.85 ;&st7;   " /><path d=" M  1339.94,   664.67  C  1338.33    661.94   1334.80    661.02   1332.06    662.64  " style="stroke-width: 1.42 ;&st7;   " /><path d=" M  1332.06,   662.64  C  1331.18    663.16   1330.55    663.79   1330.03    664.67  " style="stroke-width: 1.42 ;&st7;   " /><path d=" M  1351.27,   664.67  L  1342.78,   664.67  " style="stroke-width: 0.85 ;&st7;  " /><path d=" M  1308.78,   651.93  L  1308.78,   677.42  L  1351.27,   677.42  L  1351.27,   651.93  L  1308.78,   651.93  " style="stroke-width: 1.42 ;&st7;  " /></g><g ewd:code="FUSE5" ewd:figID="29" ewd:figtype="rb"><path d=" M  1444.76,   579.69  L  1436.26,   579.69  " style="stroke-width: 0.85 ;&st7;  " /><path d=" M  1447.59,   579.69  C  1447.59    578.91   1446.96    578.27   1446.18    578.27  " style="stroke-width: 0.85 ;&st7;   " /><path d=" M  1446.18,   578.27  C  1445.39    578.27   1444.76    578.91   1444.76    579.69  " style="stroke-width: 0.85 ;&st7;   " /><path d=" M  1444.76,   579.69  C  1444.76    580.47   1445.39    581.10   1446.18    581.10  " style="stroke-width: 0.85 ;&st7;   " /><path d=" M  1446.18,   581.10  C  1446.96    581.10   1447.59    580.47   1447.59    579.69  " style="stroke-width: 0.85 ;&st7;   " /><path d=" M  1470.25,   579.69  C  1470.25    578.91   1469.62    578.27   1468.84    578.27  " style="stroke-width: 0.85 ;&st7;   " /><path d=" M  1468.84,   578.27  C  1468.06    578.27   1467.42    578.91   1467.42    579.69  " style="stroke-width: 0.85 ;&st7;   " /><path d=" M  1467.42,   579.69  C  1467.42    580.47   1468.06    581.10   1468.84    581.10  " style="stroke-width: 0.85 ;&st7;   " /><path d=" M  1468.84,   581.10  C  1469.62    581.10   1470.25    580.47   1470.25    579.69  " style="stroke-width: 0.85 ;&st7;   " /><path d=" M  1447.59,   579.69  C  1449.20    582.43   1452.73    583.34   1455.47    581.73  " style="stroke-width: 1.42 ;&st7;   " /><path d=" M  1455.47,   581.73  C  1456.35    581.21   1456.99    580.57   1457.51    579.69  " style="stroke-width: 1.42 ;&st7;   " /><path d=" M  1467.42,   579.69  C  1465.81    576.95   1462.28    576.04   1459.54    577.65  " style="stroke-width: 1.42 ;&st7;   " /><path d=" M  1459.54,   577.65  C  1458.66    578.17   1458.03    578.81   1457.51    579.69  " style="stroke-width: 1.42 ;&st7;   " /><path d=" M  1478.75,   579.69  L  1470.25,   579.69  " style="stroke-width: 0.85 ;&st7;  " /><path d=" M  1436.26,   566.94  L  1436.26,   592.44  L  1478.75,   592.44  L  1478.75,   566.94  L  1436.26,   566.94  " style="stroke-width: 1.42 ;&st7;  " /></g><g ewd:code="FUSE24" ewd:figID="31" ewd:figtype="rb"><path d=" M  1325.78,   430.96  L  1321.53,   430.96  " style="stroke-width: 1.42 ;&st7;  " /><path d=" M  1321.53,   422.46  L  1325.78,   422.46  " style="stroke-width: 1.42 ;&st7;  " /><path d=" M  1325.78,   430.96  C  1328.13    430.96   1330.03    429.06   1330.03    426.71  " style="stroke-width: 1.42 ;&st7;   " /><path d=" M  1317.28,   426.71  C  1317.28    429.06   1319.18    430.96   1321.53    430.96  " style="stroke-width: 1.42 ;&st7;   " /><path d=" M  1330.03,   426.71  C  1330.03    424.37   1328.13    422.46   1325.78    422.46  " style="stroke-width: 1.42 ;&st7;   " /><path d=" M  1321.53,   422.46  C  1319.18    422.46   1317.28    424.37   1317.28    426.71  " style="stroke-width: 1.42 ;&st7;   " /><path d=" M  1334.92,   426.71  L  1337.76,   423.88  L  1333.51,   423.88  L  1330.67,   426.71  L  1333.51,   429.55  L  1337.76,   429.55  L  1334.92,   426.71  " style="stroke-width: 0.28 ;&st9;  " /><path d=" M  1330.03,   426.71  L  1376.77,   426.71  " style="stroke-width: 0.85 ;&st7;  " /><path d=" M  1376.77,   384.22  L  1351.27,   384.22  L  1351.27,   426.71  " style="stroke-width: 0.85 ;&st7;  " /><path d=" M  1419.26,   384.22  L  1444.76,   384.22  " style="stroke-width: 0.85 ;&st7;  " /><path d=" M  1419.26,   426.71  L  1444.76,   426.71  " style="stroke-width: 0.85 ;&st7;  " /><path d=" M  1350.08,   425.71  L  1349.81,   426.18  L  1349.72,   426.71  L  1349.81,   427.25  L  1350.08,   427.72  L  1350.49,   428.06  L  1351.00,   428.25  L  1351.55,   428.25  L  1352.05,   428.06  L  1352.47,   427.72  L  1352.74,   427.25  L  1352.83,   426.71  L  1352.74,   426.18  L  1352.47,   425.71  L  1352.05,   425.37  L  1351.55,   425.18  L  1351.00,   425.18  L  1350.49,   425.37  L  1350.08,   425.71  L  1350.47,   426.42  L  1350.47,   427.01  L  1350.85,   427.45  L  1351.42,   427.55  L  1351.93,   427.26  L  1352.12,   426.71  L  1351.93,   426.17  L  1351.42,   425.88  L  1350.85,   425.98  L  1351.27,   426.71  " style="stroke-width: 0.85 ;&st7;  " /><text style="&st18;" transform="matrix(&st16;  1321.78  428.68 )">2</text><text style="&st18;" transform="matrix(&st16;  1421.85  423.02 )">2</text><text style="&st18;" transform="matrix(&st16;  1370.43  423.02 )">1</text><text style="&st18;" transform="matrix(&st16;  1379.93  408.85 )">15A RR FOG</text><text style="&st18;" transform="matrix(&st16;  1380.32  366.36 )">15A FR FOG</text><text style="&st18;" transform="matrix(&st16;  1370.43  380.53 )">1</text><text style="&st18;" transform="matrix(&st16;  1421.85  380.53 )">2</text><path d=" M  1385.27,   384.22  L  1376.77,   384.22  " style="stroke-width: 0.85 ;&st7;  " /><path d=" M  1407.93,   384.22  C  1406.32    381.48   1402.79    380.57   1400.05    382.18  " style="stroke-width: 1.42 ;&st7;   " /><path d=" M  1400.05,   382.18  C  1399.17    382.70   1398.54    383.34   1398.02    384.22  " style="stroke-width: 1.42 ;&st7;   " /><path d=" M  1388.10,   384.22  C  1389.71    386.96   1393.24    387.87   1395.98    386.26  " style="stroke-width: 1.42 ;&st7;   " /><path d=" M  1395.98,   386.26  C  1396.86    385.74   1397.50    385.10   1398.02    384.22  " style="stroke-width: 1.42 ;&st7;   " /><path d=" M  1410.76,   384.22  C  1410.76    383.44   1410.13    382.80   1409.35    382.80  " style="stroke-width: 0.85 ;&st7;   " /><path d=" M  1409.35,   382.80  C  1408.57    382.80   1407.93    383.44   1407.93    384.22  " style="stroke-width: 0.85 ;&st7;   " /><path d=" M  1407.93,   384.22  C  1407.93    385.00   1408.57    385.64   1409.35    385.64  " style="stroke-width: 0.85 ;&st7;   " /><path d=" M  1409.35,   385.64  C  1410.13    385.64   1410.76    385.00   1410.76    384.22  " style="stroke-width: 0.85 ;&st7;   " /><path d=" M  1388.10,   384.22  C  1388.10    383.44   1387.47    382.80   1386.68    382.80  " style="stroke-width: 0.85 ;&st7;   " /><path d=" M  1386.68,   382.80  C  1385.90    382.80   1385.27    383.44   1385.27    384.22  " style="stroke-width: 0.85 ;&st7;   " /><path d=" M  1385.27,   384.22  C  1385.27    385.00   1385.90    385.64   1386.68    385.64  " style="stroke-width: 0.85 ;&st7;   " /><path d=" M  1386.68,   385.64  C  1387.47    385.64   1388.10    385.00   1388.10    384.22  " style="stroke-width: 0.85 ;&st7;   " /><path d=" M  1419.26,   384.22  L  1410.76,   384.22  " style="stroke-width: 0.85 ;&st7;  " /><path d=" M  1376.77,   371.47  L  1376.77,   396.97  L  1419.26,   396.97  L  1419.26,   371.47  L  1376.77,   371.47  " style="stroke-width: 1.42 ;&st7;  " /></g><g ewd:code="FUSE6" ewd:figID="33" ewd:figtype="rb"><path d=" M  1444.76,   622.18  L  1436.26,   622.18  " style="stroke-width: 0.85 ;&st7;  " /><path d=" M  1447.59,   622.18  C  1447.59    621.40   1446.96    620.76   1446.18    620.76  " style="stroke-width: 0.85 ;&st7;   " /><path d=" M  1446.18,   620.76  C  1445.39    620.76   1444.76    621.40   1444.76    622.18  " style="stroke-width: 0.85 ;&st7;   " /><path d=" M  1444.76,   622.18  C  1444.76    622.96   1445.39    623.60   1446.18    623.60  " style="stroke-width: 0.85 ;&st7;   " /><path d=" M  1446.18,   623.60  C  1446.96    623.60   1447.59    622.96   1447.59    622.18  " style="stroke-width: 0.85 ;&st7;   " /><path d=" M  1470.25,   622.18  C  1470.25    621.40   1469.62    620.76   1468.84    620.76  " style="stroke-width: 0.85 ;&st7;   " /><path d=" M  1468.84,   620.76  C  1468.06    620.76   1467.42    621.40   1467.42    622.18  " style="stroke-width: 0.85 ;&st7;   " /><path d=" M  1467.42,   622.18  C  1467.42    622.96   1468.06    623.60   1468.84    623.60  " style="stroke-width: 0.85 ;&st7;   " /><path d=" M  1468.84,   623.60  C  1469.62    623.60   1470.25    622.96   1470.25    622.18  " style="stroke-width: 0.85 ;&st7;   " /><path d=" M  1447.59,   622.18  C  1449.20    624.92   1452.73    625.83   1455.47    624.22  " style="stroke-width: 1.42 ;&st7;   " /><path d=" M  1455.47,   624.22  C  1456.35    623.70   1456.99    623.06   1457.51    622.18  " style="stroke-width: 1.42 ;&st7;   " /><path d=" M  1467.42,   622.18  C  1465.81    619.44   1462.28    618.53   1459.54    620.14  " style="stroke-width: 1.42 ;&st7;   " /><path d=" M  1459.54,   620.14  C  1458.66    620.66   1458.03    621.30   1457.51    622.18  " style="stroke-width: 1.42 ;&st7;   " /><path d=" M  1436.26,   609.43  L  1436.26,   634.93  L  1478.75,   634.93  L  1478.75,   609.43  L  1436.26,   609.43  " style="stroke-width: 1.42 ;&st7;  " /><path d=" M  1478.75,   622.18  L  1470.25,   622.18  " style="stroke-width: 0.85 ;&st7;  " /></g><g ewd:code="FUSE25" ewd:figID="34" ewd:figtype="rb"><path d=" M  1385.27,   239.75  L  1376.77,   239.75  " style="stroke-width: 0.85 ;&st7;  " /><path d=" M  1388.10,   239.75  C  1388.10    238.96   1387.47    238.33   1386.68    238.33  " style="stroke-width: 0.85 ;&st7;   " /><path d=" M  1386.68,   238.33  C  1385.90    238.33   1385.27    238.96   1385.27    239.75  " style="stroke-width: 0.85 ;&st7;   " /><path d=" M  1385.27,   239.75  C  1385.27    240.53   1385.90    241.16   1386.68    241.16  " style="stroke-width: 0.85 ;&st7;   " /><path d=" M  1386.68,   241.16  C  1387.47    241.16   1388.10    240.53   1388.10    239.75  " style="stroke-width: 0.85 ;&st7;   " /><path d=" M  1410.76,   239.75  C  1410.76    238.96   1410.13    238.33   1409.35    238.33  " style="stroke-width: 0.85 ;&st7;   " /><path d=" M  1409.35,   238.33  C  1408.57    238.33   1407.93    238.96   1407.93    239.75  " style="stroke-width: 0.85 ;&st7;   " /><path d=" M  1407.93,   239.75  C  1407.93    240.53   1408.57    241.16   1409.35    241.16  " style="stroke-width: 0.85 ;&st7;   " /><path d=" M  1409.35,   241.16  C  1410.13    241.16   1410.76    240.53   1410.76    239.75  " style="stroke-width: 0.85 ;&st7;   " /><path d=" M  1388.10,   239.75  C  1389.71    242.48   1393.24    243.40   1395.98    241.78  " style="stroke-width: 1.42 ;&st7;   " /><path d=" M  1395.98,   241.78  C  1396.86    241.26   1397.50    240.63   1398.02    239.75  " style="stroke-width: 1.42 ;&st7;   " /><path d=" M  1407.93,   239.75  C  1406.32    237.01   1402.79    236.10   1400.05    237.71  " style="stroke-width: 1.42 ;&st7;   " /><path d=" M  1400.05,   237.71  C  1399.17    238.23   1398.54    238.86   1398.02    239.75  " style="stroke-width: 1.42 ;&st7;   " /><path d=" M  1376.77,   227.00  L  1376.77,   252.49  L  1419.26,   252.49  L  1419.26,   227.00  L  1376.77,   227.00  " style="stroke-width: 1.42 ;&st7;  " /><path d=" M  1419.26,   239.75  L  1410.76,   239.75  " style="stroke-width: 0.85 ;&st7;  " /></g><g ewd:code="FUSE23" ewd:figID="37" ewd:figtype="rb"><path d=" M  1385.27,   137.76  L  1376.77,   137.76  " style="stroke-width: 0.85 ;&st7;  " /><path d=" M  1388.10,   137.76  C  1388.10    136.98   1387.47    136.35   1386.68    136.35  " style="stroke-width: 0.85 ;&st7;   " /><path d=" M  1386.68,   136.35  C  1385.90    136.35   1385.27    136.98   1385.27    137.76  " style="stroke-width: 0.85 ;&st7;   " /><path d=" M  1385.27,   137.76  C  1385.27    138.54   1385.90    139.18   1386.68    139.18  " style="stroke-width: 0.85 ;&st7;   " /><path d=" M  1386.68,   139.18  C  1387.47    139.18   1388.10    138.54   1388.10    137.76  " style="stroke-width: 0.85 ;&st7;   " /><path d=" M  1410.76,   137.76  C  1410.76    136.98   1410.13    136.35   1409.35    136.35  " style="stroke-width: 0.85 ;&st7;   " /><path d=" M  1409.35,   136.35  C  1408.57    136.35   1407.93    136.98   1407.93    137.76  " style="stroke-width: 0.85 ;&st7;   " /><path d=" M  1407.93,   137.76  C  1407.93    138.54   1408.57    139.18   1409.35    139.18  " style="stroke-width: 0.85 ;&st7;   " /><path d=" M  1409.35,   139.18  C  1410.13    139.18   1410.76    138.54   1410.76    137.76  " style="stroke-width: 0.85 ;&st7;   " /><path d=" M  1388.10,   137.76  C  1389.71    140.50   1393.24    141.41   1395.98    139.80  " style="stroke-width: 1.42 ;&st7;   " /><path d=" M  1395.98,   139.80  C  1396.86    139.28   1397.50    138.64   1398.02    137.76  " style="stroke-width: 1.42 ;&st7;   " /><path d=" M  1407.93,   137.76  C  1406.32    135.02   1402.79    134.11   1400.05    135.73  " style="stroke-width: 1.42 ;&st7;   " /><path d=" M  1400.05,   135.73  C  1399.17    136.25   1398.54    136.88   1398.02    137.76  " style="stroke-width: 1.42 ;&st7;   " /><path d=" M  1376.77,   125.01  L  1376.77,   150.51  L  1419.26,   150.51  L  1419.26,   125.01  L  1376.77,   125.01  " style="stroke-width: 1.42 ;&st7;  " /><path d=" M  1419.26,   137.76  L  1410.76,   137.76  " style="stroke-width: 0.85 ;&st7;  " /></g><g ewd:code="FUSE33" ewd:figID="41" ewd:figtype="rb"><path d=" M  1410.76,   180.26  L  1419.26,   180.26  " style="stroke-width: 0.85 ;&st7;  " /><path d=" M  1410.76,   180.26  C  1410.76    179.47   1410.13    178.84   1409.35    178.84  " style="stroke-width: 0.85 ;&st7;   " /><path d=" M  1409.35,   178.84  C  1408.57    178.84   1407.93    179.47   1407.93    180.26  " style="stroke-width: 0.85 ;&st7;   " /><path d=" M  1407.93,   180.26  C  1407.93    181.04   1408.57    181.67   1409.35    181.67  " style="stroke-width: 0.85 ;&st7;   " /><path d=" M  1409.35,   181.67  C  1410.13    181.67   1410.76    181.04   1410.76    180.26  " style="stroke-width: 0.85 ;&st7;   " /><path d=" M  1388.10,   180.26  C  1388.10    179.47   1387.47    178.84   1386.68    178.84  " style="stroke-width: 0.85 ;&st7;   " /><path d=" M  1386.68,   178.84  C  1385.90    178.84   1385.27    179.47   1385.27    180.26  " style="stroke-width: 0.85 ;&st7;   " /><path d=" M  1385.27,   180.26  C  1385.27    181.04   1385.90    181.67   1386.68    181.67  " style="stroke-width: 0.85 ;&st7;   " /><path d=" M  1386.68,   181.67  C  1387.47    181.67   1388.10    181.04   1388.10    180.26  " style="stroke-width: 0.85 ;&st7;   " /><path d=" M  1388.10,   180.26  C  1389.71    182.99   1393.24    183.91   1395.98    182.29  " style="stroke-width: 1.42 ;&st7;   " /><path d=" M  1395.98,   182.29  C  1396.86    181.77   1397.50    181.14   1398.02    180.26  " style="stroke-width: 1.42 ;&st7;   " /><path d=" M  1407.93,   180.26  C  1406.32    177.52   1402.79    176.61   1400.05    178.22  " style="stroke-width: 1.42 ;&st7;   " /><path d=" M  1400.05,   178.22  C  1399.17    178.74   1398.54    179.37   1398.02    180.26  " style="stroke-width: 1.42 ;&st7;   " /><path d=" M  1376.77,   180.26  L  1385.27,   180.26  " style="stroke-width: 0.85 ;&st7;  " /><path d=" M  1376.77,   167.51  L  1376.77,   193.00  L  1419.26,   193.00  L  1419.26,   167.51  L  1376.77,   167.51  " style="stroke-width: 1.42 ;&st7;  " /></g><g ewd:code="FUSE32" ewd:figID="45" ewd:figtype="rb"><path d=" M  1385.27,   282.24  L  1376.77,   282.24  " style="stroke-width: 0.85 ;&st7;  " /><path d=" M  1388.10,   282.24  C  1388.10    281.46   1387.47    280.82   1386.68    280.82  " style="stroke-width: 0.85 ;&st7;   " /><path d=" M  1386.68,   280.82  C  1385.90    280.82   1385.27    281.46   1385.27    282.24  " style="stroke-width: 0.85 ;&st7;   " /><path d=" M  1385.27,   282.24  C  1385.27    283.02   1385.90    283.65   1386.68    283.65  " style="stroke-width: 0.85 ;&st7;   " /><path d=" M  1386.68,   283.65  C  1387.47    283.65   1388.10    283.02   1388.10    282.24  " style="stroke-width: 0.85 ;&st7;   " /><path d=" M  1410.76,   282.24  C  1410.76    281.46   1410.13    280.82   1409.35    280.82  " style="stroke-width: 0.85 ;&st7;   " /><path d=" M  1409.35,   280.82  C  1408.57    280.82   1407.93    281.46   1407.93    282.24  " style="stroke-width: 0.85 ;&st7;   " /><path d=" M  1407.93,   282.24  C  1407.93    283.02   1408.57    283.65   1409.35    283.65  " style="stroke-width: 0.85 ;&st7;   " /><path d=" M  1409.35,   283.65  C  1410.13    283.65   1410.76    283.02   1410.76    282.24  " style="stroke-width: 0.85 ;&st7;   " /><path d=" M  1388.10,   282.24  C  1389.71    284.98   1393.24    285.89   1395.98    284.27  " style="stroke-width: 1.42 ;&st7;   " /><path d=" M  1395.98,   284.27  C  1396.86    283.76   1397.50    283.12   1398.02    282.24  " style="stroke-width: 1.42 ;&st7;   " /><path d=" M  1407.93,   282.24  C  1406.32    279.50   1402.79    278.59   1400.05    280.20  " style="stroke-width: 1.42 ;&st7;   " /><path d=" M  1400.05,   280.20  C  1399.17    280.72   1398.54    281.36   1398.02    282.24  " style="stroke-width: 1.42 ;&st7;   " /><path d=" M  1376.77,   269.49  L  1376.77,   294.99  L  1419.26,   294.99  L  1419.26,   269.49  L  1376.77,   269.49  " style="stroke-width: 1.42 ;&st7;  " /><path d=" M  1419.26,   282.24  L  1410.76,   282.24  " style="stroke-width: 0.85 ;&st7;  " /></g><g ewd:code="FUSE27" ewd:figID="49" ewd:figtype="rb"><path d=" M  1444.76,   664.67  L  1436.26,   664.67  " style="stroke-width: 0.85 ;&st7;  " /><path d=" M  1467.42,   664.67  C  1465.81    661.94   1462.28    661.02   1459.54    662.64  " style="stroke-width: 1.42 ;&st7;   " /><path d=" M  1459.54,   662.64  C  1458.66    663.16   1458.03    663.79   1457.51    664.67  " style="stroke-width: 1.42 ;&st7;   " /><path d=" M  1447.59,   664.67  C  1449.20    667.41   1452.73    668.32   1455.47    666.71  " style="stroke-width: 1.42 ;&st7;   " /><path d=" M  1455.47,   666.71  C  1456.35    666.19   1456.99    665.56   1457.51    664.67  " style="stroke-width: 1.42 ;&st7;   " /><path d=" M  1470.25,   664.67  C  1470.25    663.89   1469.62    663.26   1468.84    663.26  " style="stroke-width: 0.85 ;&st7;   " /><path d=" M  1468.84,   663.26  C  1468.06    663.26   1467.42    663.89   1467.42    664.67  " style="stroke-width: 0.85 ;&st7;   " /><path d=" M  1467.42,   664.67  C  1467.42    665.46   1468.06    666.09   1468.84    666.09  " style="stroke-width: 0.85 ;&st7;   " /><path d=" M  1468.84,   666.09  C  1469.62    666.09   1470.25    665.46   1470.25    664.67  " style="stroke-width: 0.85 ;&st7;   " /><path d=" M  1447.59,   664.67  C  1447.59    663.89   1446.96    663.26   1446.18    663.26  " style="stroke-width: 0.85 ;&st7;   " /><path d=" M  1446.18,   663.26  C  1445.39    663.26   1444.76    663.89   1444.76    664.67  " style="stroke-width: 0.85 ;&st7;   " /><path d=" M  1444.76,   664.67  C  1444.76    665.46   1445.39    666.09   1446.18    666.09  " style="stroke-width: 0.85 ;&st7;   " /><path d=" M  1446.18,   666.09  C  1446.96    666.09   1447.59    665.46   1447.59    664.67  " style="stroke-width: 0.85 ;&st7;   " /><path d=" M  1478.75,   664.67  L  1470.25,   664.67  " style="stroke-width: 0.85 ;&st7;  " /><path d=" M  1436.26,   651.93  L  1436.26,   677.42  L  1478.75,   677.42  L  1478.75,   651.93  L  1436.26,   651.93  " style="stroke-width: 1.42 ;&st7;  " /></g><g ewd:code="2" ewd:figID="50" ewd:figtype="rb"><path d=" M  1300.28,   120.77  L  1308.78,   120.77  " style="stroke-width: 0.85 ;&st7;  " /><path d=" M  1281.87,    95.27  L  1304.53,    89.60  " style="stroke-width: 1.42 ;&st7;  " /><path d=" M  1304.53,    95.27  L  1308.78,    95.27  " style="stroke-width: 0.85 ;&st7;  " /><path d=" M  1289.31,   123.29  C  1290.70    121.93   1290.73    119.68   1289.36    118.29  " style="stroke-width: 0.85 ;&st7;   " /><path d=" M  1289.36,   118.29  C  1287.99    116.89   1285.75    116.87   1284.35    118.24  " style="stroke-width: 0.85 ;&st7;   " /><path d=" M  1284.35,   118.24  C  1283.64    118.93   1283.28    119.77   1283.28    120.77  " style="stroke-width: 0.85 ;&st7;   " /><path d=" M  1294.26,   123.29  C  1295.66    121.93   1295.68    119.68   1294.31    118.29  " style="stroke-width: 0.85 ;&st7;   " /><path d=" M  1294.31,   118.29  C  1292.94    116.89   1290.70    116.87   1289.31    118.24  " style="stroke-width: 0.85 ;&st7;   " /><path d=" M  1289.31,   118.24  C  1287.91    119.60   1287.89    121.85   1289.25    123.24  " style="stroke-width: 0.85 ;&st7;   " /><path d=" M  1289.25,   123.24  C  1289.27    123.26   1289.29    123.28   1289.31    123.29  " style="stroke-width: 0.85 ;&st7;   " /><path d=" M  1300.28,   120.77  C  1300.28    118.81   1298.70    117.22   1296.74    117.22  " style="stroke-width: 0.85 ;&st7;   " /><path d=" M  1296.74,   117.22  C  1294.79    117.22   1293.20    118.81   1293.20    120.77  " style="stroke-width: 0.85 ;&st7;   " /><path d=" M  1293.20,   120.77  C  1293.20    121.76   1293.56    122.60   1294.26    123.29  " style="stroke-width: 0.85 ;&st7;   " /><path d=" M  1281.87,    95.27  C  1281.87     94.49   1281.23     93.85   1280.45     93.85  " style="stroke-width: 0.85 ;&st7;   " /><path d=" M  1280.45,    93.85  C  1279.67     93.85   1279.04     94.49   1279.04     95.27  " style="stroke-width: 0.85 ;&st7;   " /><path d=" M  1279.04,    95.27  C  1279.04     96.05   1279.67     96.69   1280.45     96.69  " style="stroke-width: 0.85 ;&st7;   " /><path d=" M  1280.45,    96.69  C  1281.23     96.69   1281.87     96.05   1281.87     95.27  " style="stroke-width: 0.85 ;&st7;   " /><path d=" M  1304.53,    95.27  C  1304.53     94.49   1303.90     93.85   1303.12     93.85  " style="stroke-width: 0.85 ;&st7;   " /><path d=" M  1303.12,    93.85  C  1302.33     93.85   1301.70     94.49   1301.70     95.27  " style="stroke-width: 0.85 ;&st7;   " /><path d=" M  1301.70,    95.27  C  1301.70     96.05   1302.33     96.69   1303.12     96.69  " style="stroke-width: 0.85 ;&st7;   " /><path d=" M  1303.12,    96.69  C  1303.90     96.69   1304.53     96.05   1304.53     95.27  " style="stroke-width: 0.85 ;&st7;   " /><path d=" M  1274.79,    86.77  L  1274.79,   129.26  L  1308.78,   129.26  L  1308.78,    86.77  L  1274.79,    86.77  " style="stroke-width: 1.42 ;&st7;  " /></g><g ewd:code="2" ewd:figID="53" ewd:figtype="rb"><path d=" M  1300.28,   265.24  L  1308.78,   265.24  " style="stroke-width: 0.85 ;&st7;  " /><path d=" M  1281.87,   239.75  L  1304.53,   234.08  " style="stroke-width: 1.42 ;&st7;  " /><path d=" M  1304.53,   239.75  L  1308.78,   239.75  " style="stroke-width: 0.85 ;&st7;  " /><path d=" M  1289.31,   267.77  C  1290.70    266.40   1290.73    264.16   1289.36    262.76  " style="stroke-width: 0.85 ;&st7;   " /><path d=" M  1289.36,   262.76  C  1287.99    261.37   1285.75    261.34   1284.35    262.71  " style="stroke-width: 0.85 ;&st7;   " /><path d=" M  1284.35,   262.71  C  1283.64    263.40   1283.28    264.25   1283.28    265.24  " style="stroke-width: 0.85 ;&st7;   " /><path d=" M  1294.26,   267.77  C  1295.66    266.40   1295.68    264.16   1294.31    262.76  " style="stroke-width: 0.85 ;&st7;   " /><path d=" M  1294.31,   262.76  C  1292.94    261.37   1290.70    261.34   1289.31    262.71  " style="stroke-width: 0.85 ;&st7;   " /><path d=" M  1289.31,   262.71  C  1287.91    264.08   1287.89    266.32   1289.25    267.72  " style="stroke-width: 0.85 ;&st7;   " /><path d=" M  1289.25,   267.72  C  1289.27    267.74   1289.29    267.75   1289.31    267.77  " style="stroke-width: 0.85 ;&st7;   " /><path d=" M  1300.28,   265.24  C  1300.28    263.29   1298.70    261.70   1296.74    261.70  " style="stroke-width: 0.85 ;&st7;   " /><path d=" M  1296.74,   261.70  C  1294.79    261.70   1293.20    263.29   1293.20    265.24  " style="stroke-width: 0.85 ;&st7;   " /><path d=" M  1293.20,   265.24  C  1293.20    266.23   1293.56    267.08   1294.26    267.77  " style="stroke-width: 0.85 ;&st7;   " /><path d=" M  1281.87,   239.75  C  1281.87    238.96   1281.23    238.33   1280.45    238.33  " style="stroke-width: 0.85 ;&st7;   " /><path d=" M  1280.45,   238.33  C  1279.67    238.33   1279.04    238.96   1279.04    239.75  " style="stroke-width: 0.85 ;&st7;   " /><path d=" M  1279.04,   239.75  C  1279.04    240.53   1279.67    241.16   1280.45    241.16  " style="stroke-width: 0.85 ;&st7;   " /><path d=" M  1280.45,   241.16  C  1281.23    241.16   1281.87    240.53   1281.87    239.75  " style="stroke-width: 0.85 ;&st7;   " /><path d=" M  1304.53,   239.75  C  1304.53    238.96   1303.90    238.33   1303.12    238.33  " style="stroke-width: 0.85 ;&st7;   " /><path d=" M  1303.12,   238.33  C  1302.33    238.33   1301.70    238.96   1301.70    239.75  " style="stroke-width: 0.85 ;&st7;   " /><path d=" M  1301.70,   239.75  C  1301.70    240.53   1302.33    241.16   1303.12    241.16  " style="stroke-width: 0.85 ;&st7;   " /><path d=" M  1303.12,   241.16  C  1303.90    241.16   1304.53    240.53   1304.53    239.75  " style="stroke-width: 0.85 ;&st7;   " /><path d=" M  1274.79,   231.25  L  1274.79,   273.74  L  1308.78,   273.74  L  1308.78,   231.25  L  1274.79,   231.25  " style="stroke-width: 1.42 ;&st7;  " /></g><g ewd:code="FUSE28" ewd:figID="54" ewd:figtype="rb"><path d=" M  1385.27,   426.71  L  1376.77,   426.71  " style="stroke-width: 0.85 ;&st7;  " /><path d=" M  1388.10,   426.71  C  1388.10    425.93   1387.47    425.30   1386.68    425.30  " style="stroke-width: 0.85 ;&st7;   " /><path d=" M  1386.68,   425.30  C  1385.90    425.30   1385.27    425.93   1385.27    426.71  " style="stroke-width: 0.85 ;&st7;   " /><path d=" M  1385.27,   426.71  C  1385.27    427.50   1385.90    428.13   1386.68    428.13  " style="stroke-width: 0.85 ;&st7;   " /><path d=" M  1386.68,   428.13  C  1387.47    428.13   1388.10    427.50   1388.10    426.71  " style="stroke-width: 0.85 ;&st7;   " /><path d=" M  1410.76,   426.71  C  1410.76    425.93   1410.13    425.30   1409.35    425.30  " style="stroke-width: 0.85 ;&st7;   " /><path d=" M  1409.35,   425.30  C  1408.57    425.30   1407.93    425.93   1407.93    426.71  " style="stroke-width: 0.85 ;&st7;   " /><path d=" M  1407.93,   426.71  C  1407.93    427.50   1408.57    428.13   1409.35    428.13  " style="stroke-width: 0.85 ;&st7;   " /><path d=" M  1409.35,   428.13  C  1410.13    428.13   1410.76    427.50   1410.76    426.71  " style="stroke-width: 0.85 ;&st7;   " /><path d=" M  1388.10,   426.71  C  1389.71    429.45   1393.24    430.36   1395.98    428.75  " style="stroke-width: 1.42 ;&st7;   " /><path d=" M  1395.98,   428.75  C  1396.86    428.23   1397.50    427.60   1398.02    426.71  " style="stroke-width: 1.42 ;&st7;   " /><path d=" M  1407.93,   426.71  C  1406.32    423.98   1402.79    423.06   1400.05    424.68  " style="stroke-width: 1.42 ;&st7;   " /><path d=" M  1400.05,   424.68  C  1399.17    425.20   1398.54    425.83   1398.02    426.71  " style="stroke-width: 1.42 ;&st7;   " /><path d=" M  1376.77,   413.97  L  1376.77,   439.46  L  1419.26,   439.46  L  1419.26,   413.97  L  1376.77,   413.97  " style="stroke-width: 1.42 ;&st7;  " /><path d=" M  1419.26,   426.71  L  1410.76,   426.71  " style="stroke-width: 0.85 ;&st7;  " /></g><g ewd:code="IL3" ewd:figID="83" ewd:figtype="w2w"><path d=" M  1513.31,   159.01  L  1509.06,   154.76  L  1513.31,   150.51  " style="stroke-width: 1.42 ;&st7;  " /><path d=" M  1509.91,   159.01  L  1505.66,   154.76  L  1509.91,   150.51  " style="stroke-width: 1.42 ;&st7;  " /><text style="&st18;" transform="matrix(&st16;  1493.87  147.52 )">3</text></g><g ewd:code="IL3" ewd:figID="84" ewd:figtype="w2w"><path d=" M  1509.91,    57.03  L  1505.66,    52.78  L  1509.91,    48.53  " style="stroke-width: 1.42 ;&st7;  " /><path d=" M  1513.31,    57.03  L  1509.06,    52.78  L  1513.31,    48.53  " style="stroke-width: 1.42 ;&st7;  " /><text style="&st18;" transform="matrix(&st16;  1493.87  45.54 )">4</text></g><g ewd:code="IC" ewd:figID="91" ewd:figtype="gp"><path d=" M  1111.90,   710.00  L  1114.73,   710.00  " style="stroke-width: 0.85 ;&st7;  " /><path d=" M  1110.48,   707.17  L  1116.15,   707.17  " style="stroke-width: 0.85 ;&st7;  " /><path d=" M  1109.06,   704.33  L  1117.56,   704.33  " style="stroke-width: 0.85 ;&st7;  " /><path d=" M  1104.81,   701.50  L  1121.81,   701.50  " style="stroke-width: 0.85 ;&st7;  " /><path d=" M  1113.31,   697.25  L  1113.31,   701.50  " style="stroke-width: 0.85 ;&st7;  "/></g></svg>
