<?xml version="1.0" encoding="utf-8"?>
<!DOCTYPE svg PUBLIC "-//W3C//DTD SVG 1.0//EN" "http://www.w3.org/TR/2001/REC-SVG-20010904/DTD/svg10.dtd"[
	<!ENTITY ns_flows "http://ns.adobe.com/Flows/1.0/">
	<!ENTITY ns_svg "http://www.w3.org/2000/svg">
	<!ENTITY ns_xlink "http://www.w3.org/1999/xlink">
	<!ENTITY st0 "font-size:7px;font-family:'MS-PGothic';adobe-font-script:japanese;">
	<!ENTITY st1 "font-size:6px;font-family:'ArialMT';">
	<!-- White fill  -->
	<!ENTITY st2 "fill:#FFFFFF;stroke:#000000; stroke-width:1.41;stroke-linecap:round;stroke-linejoin:round;">
	<!-- Yellow fill  -->
	<!ENTITY st3 "fill:#FFFFCC;stroke:#FFFFCC; stroke-width:0.1;stroke-linecap:round;stroke-linejoin:round;">
	<!-- Gray fill  -->
	<!ENTITY st4 "fill:#CCCCCC;stroke:#CCCCCC; stroke-width:0.1;stroke-linecap:round;stroke-linejoin:round;">
	<!-- Light-blue fill -->
	<!ENTITY st5 "fill:#CCECF4;stroke:#000000; stroke-width:1.133;stroke-linecap:round;stroke-linejoin:round;">
	<!ENTITY st6 "fill:none;stroke-linecap:butt; stroke-linejoin:round;">
	<!ENTITY st7 "fill:none;stroke:#000000;stroke-linecap:round;stroke-linejoin:round;">
	<!ENTITY st8 "enable-background:new    ;">
	<!-- Black fill -->
	<!ENTITY st9 "fill:#000000;stroke:#000000; stroke-linecap:round;stroke-linejoin:round;">
	<!-- SRS note   -->
	<!ENTITY st10 "font-size:9px;font-family:'ArialMT';">
	<!ENTITY st11 "font-size:9px;font-family:'Svg Symbol';">
	<!ENTITY st12 "font-size:6px;font-family:'Svg Symbol';">
	<!ENTITY st13 "fill:none;stroke:#ff0000;stroke-linecap:round;stroke-linejoin:round;">
	<!-- Yellow fill  -->
	<!ENTITY st14 "fill:#FFFF00;stroke:#FFFF00; stroke-width:0.1;stroke-linecap:round;stroke-linejoin:round;">
	<!ENTITY st15 "font-size:6px;font-family:'MS-PGothic';adobe-font-script:japanese;">
	<!ENTITY st16 "1.00 0.00 0.00 1.00">
	<!ENTITY st17 "0.00 -1.00 1.00 0.00">
	<!ENTITY st18 "font-size:6px;font-family:'Arial';">
	<!ENTITY st19 "font-size:9px;font-family:'Arial';">
	<!ENTITY st20 "font-size:6px;font-family:'MS-PGothic','MS PGothic';adobe-font-script:japanese;">
	<!ENTITY st21 "font-size:7px;font-family:'MS-PGothic','MS PGothic';adobe-font-script:japanese;">
	<!ATTLIST svg
		xmlns:ewd CDATA #FIXED "http://shcl.co.jp/ewd"
		xmlns:a CDATA #FIXED "http://ns.adobe.com/AdobeSVGViewerExtensions/3.0/"
		ewd:ver CDATA #IMPLIED
	>
	<!ATTLIST a
		ewd:lineID CDATA #IMPLIED
		ewd:groupID CDATA #IMPLIED
		ewd:figtype CDATA #IMPLIED
		ewd:code CDATA #IMPLIED
		ewd:figID CDATA #IMPLIED
		ewd:pinNo CDATA #IMPLIED
		ewd:comment CDATA #IMPLIED >
	<!ATTLIST g
		ewd:lineID CDATA #IMPLIED
		ewd:groupID CDATA #IMPLIED
		ewd:figtype CDATA #IMPLIED
		ewd:code CDATA #IMPLIED
		ewd:figID CDATA #IMPLIED
		ewd:pinNo CDATA #IMPLIED
		ewd:comment CDATA #IMPLIED >
	<!ATTLIST text
		ewd:textID CDATA #IMPLIED >
	<!ATTLIST title
		ewd:textID CDATA #IMPLIED >
]>
<!-- Generator: Shintec Hozumi YS   -->
<svg onload="call_execInitLoadProc_svg('system')" style="overflow:visible;  enable-background:new 0 0 1018.413 710.000" viewBox="0 0 1018.413 710.000" height="710.000" width="1018.413" xml:space="preserve" ewd:ver="2.3.1.16" xmlns="&ns_svg;" xmlns:a="http://ns.adobe.com/AdobeSVGViewerExtensions/3.0/" xmlns:ewd="http://shcl.co.jp/ewd" xmlns:xlink="&ns_xlink;">
<path style="stroke-width: 1.42 ;&st7;  " d=" M   161.47,   137.76  L   152.97,   137.76  " /><path style="stroke-width: 1.42 ;&st7;  " d=" M   293.92,   282.24  L   288.95,   287.21  " /><path style="stroke-width: 1.42 ;&st7;  " d=" M   300.98,   299.24  L   305.95,   294.27  " /><path style="stroke-width: 1.42 ;&st7;  " d=" M   288.95,   294.27  L   293.92,   299.24  " /><path style="stroke-width: 1.42 ;&st7;  " d=" M   305.95,   287.21  L   300.98,   282.24  " /><path style="stroke-width: 1.42 ;&st7;  " d=" M   149.44,   171.76  L   144.48,   176.73  " /><path style="stroke-width: 1.42 ;&st7;  " d=" M   156.50,   188.75  L   161.47,   183.78  " /><path style="stroke-width: 1.42 ;&st7;  " d=" M   144.48,   183.78  L   149.44,   188.75  " /><path style="stroke-width: 1.42 ;&st7;  " d=" M   161.47,   176.73  L   156.50,   171.76  " /><path style="stroke-width: 1.42 ;&st7;  " d=" M   293.92,   562.69  L   288.95,   567.66  " /><text style="&st18;" transform="matrix(&st16;  334.23  287.04 )">G-R</text><text style="&st18;" transform="matrix(&st17;  149.28  121.85 )">W-L</text><text style="&st18;" transform="matrix(&st17;  149.28  378.2 )">LG-B</text><text style="&st18;" transform="matrix(&st17;  225.77  220.58 )">G</text><text style="&st18;" transform="matrix(&st17;  174.77  206.84 )">W-L</text><text style="&st18;" transform="matrix(&st17;  149.28  206.84 )">W-L</text><text style="&st18;" transform="matrix(&st17;  149.28  164.34 )">W-L</text><text style="&st18;" transform="matrix(&st16;  484.02  151.06 )">R(*18)</text><text style="&st18;" transform="matrix(&st16;  481.38  363.53 )">L-R(*15)</text><text style="&st18;" transform="matrix(&st17;  293.75  227.97 )">G-R</text><path style="stroke-width: 1.42 ;&st7;  " d=" M   161.47,   341.73  L   152.97,   341.73  " /><path style="stroke-width: 1.42 ;&st7;  " d=" M   305.95,   567.66  L   300.98,   562.69  " /><path style="stroke-width: 1.42 ;&st7;  " d=" M   288.95,   574.72  L   293.92,   579.69  " /><path style="stroke-width: 1.42 ;&st7;  " d=" M   300.98,   579.69  L   305.95,   574.72  " /><text style="&st18;" transform="matrix(&st17;  183.27  547.17 )">W-B</text><text style="&st18;" transform="matrix(&st17;  293.76  547.17 )">W-B</text><text style="&st18;" transform="matrix(&st17;  293.76  598.16 )">W-B</text><text style="&st18;" transform="matrix(&st17;  293.76  666.15 )">W-B</text><text style="&st18;" transform="matrix(&st17;  251.26  666.15 )">W-B</text><text style="&st18;" transform="matrix(&st17;  149.28  322.96 )">LG-B</text><text style="&st18;" transform="matrix(&st17;  160.61  377.7 )">(*15)</text><text style="&st18;" transform="matrix(&st17;  174.77  373.24 )">V</text><text style="&st18;" transform="matrix(&st17;  186.11  377.7 )">(*16)</text><text style="&st18;" transform="matrix(&st16;  484.18  380.52 )">P(*16)</text><text style="&st18;" transform="matrix(&st16;  480.69  134.07 )">G-R(*17)</text><text style="&st18;" transform="matrix(&st16;  337.52  312.54 )">R</text><text style="&st18;" transform="matrix(&st17;  268.26  224.67 )">R</text><text style="&st18;" transform="matrix(&st17;  279.59  228.97 )">(*18)</text><text style="&st18;" transform="matrix(&st17;  305.09  228.97 )">(*17)</text><text style="&st18;" transform="matrix(&st16;  333.22  298.37 )">(*17)</text><text style="&st18;" transform="matrix(&st16;  333.22  323.87 )">(*18)</text><g ewd:figtype="rb" ewd:figID="2" ewd:code="FUSE60"><path style="stroke-width: 0.85 ;&st7;  " d=" M   152.97,    78.27  L   152.97,    95.27  " /><path style="stroke-width: 1.42 ;&st7;  " d=" M   155.10,   103.77  L   150.85,   103.77  " /><path style="stroke-width: 1.42 ;&st7;  " d=" M   155.10,    95.27  L   150.85,    95.27  " /><path style="stroke-width: 1.42 ;&st7;   " d=" M   155.10,   103.77  C   157.45    103.77    159.35    101.87    159.35     99.52  " /><path style="stroke-width: 1.42 ;&st7;   " d=" M   146.60,    99.52  C   146.60    101.87    148.50    103.77    150.85    103.77  " /><path style="stroke-width: 1.42 ;&st7;   " d=" M   150.85,    95.27  C   148.50     95.27    146.60     97.17    146.60     99.52  " /><path style="stroke-width: 0.28 ;&st9;  " d=" M   152.97,    90.37  L   150.14,    87.54  L   150.14,    91.79  L   152.97,    94.62  L   155.81,    91.79  L   155.81,    87.54  L   152.97,    90.37  " /><path style="stroke-width: 1.42 ;&st7;   " d=" M   159.35,    99.52  C   159.35     97.17    157.45     95.27    155.10     95.27  " /><text style="&st18;" transform="matrix(&st16;  144.89  32.08 )">(BAT)</text><text style="&st18;" transform="matrix(&st16;  146.64  86.47 )">2</text><text style="&st18;" transform="matrix(&st16;  151.1  101.49 )">4</text><text style="&st18;" transform="matrix(&st16;  169.4  56.17 )">50A <tspan x="0 " dy="6.0">MAIN1</tspan></text><path style="stroke-width: 0.85 ;&st7;  " d=" M   152.97,    69.77  L   152.97,    78.27  " /><path style="stroke-width: 0.85 ;&st7;   " d=" M   154.39,    68.36  C   154.39     67.57    153.76     66.94    152.97     66.94  " /><path style="stroke-width: 0.85 ;&st7;   " d=" M   152.97,    66.94  C   152.19     66.94    151.56     67.57    151.56     68.36  " /><path style="stroke-width: 0.85 ;&st7;   " d=" M   151.56,    68.36  C   151.56     69.14    152.19     69.77    152.97     69.77  " /><path style="stroke-width: 0.85 ;&st7;   " d=" M   152.97,    69.77  C   153.76     69.77    154.39     69.14    154.39     68.36  " /><path style="stroke-width: 0.85 ;&st7;   " d=" M   154.39,    45.69  C   154.39     44.91    153.76     44.28    152.97     44.28  " /><path style="stroke-width: 0.85 ;&st7;   " d=" M   152.97,    44.28  C   152.19     44.28    151.56     44.91    151.56     45.69  " /><path style="stroke-width: 0.85 ;&st7;   " d=" M   151.56,    45.69  C   151.56     46.48    152.19     47.11    152.97     47.11  " /><path style="stroke-width: 0.85 ;&st7;   " d=" M   152.97,    47.11  C   153.76     47.11    154.39     46.48    154.39     45.69  " /><path style="stroke-width: 1.42 ;&st7;   " d=" M   152.97,    66.94  C   155.71     65.33    156.62     61.80    155.01     59.06  " /><path style="stroke-width: 1.42 ;&st7;   " d=" M   155.01,    59.06  C   154.49     58.18    153.86     57.55    152.97     57.03  " /><path style="stroke-width: 1.42 ;&st7;   " d=" M   152.97,    47.11  C   150.24     48.72    149.32     52.25    150.94     54.99  " /><path style="stroke-width: 1.42 ;&st7;   " d=" M   150.94,    54.99  C   151.46     55.87    152.09     56.51    152.97     57.03  " /><path style="stroke-width: 1.42 ;&st7;  " d=" M   140.23,    35.78  L   140.23,    78.27  L   165.72,    78.27  L   165.72,    35.78  L   140.23,    35.78  " /></g><g ewd:figtype="rb" ewd:figID="3" ewd:code="FUSE21"><path style="stroke-width: 1.42 ;&st7;  " d=" M   299.57,    69.77  L   295.33,    69.77  " /><path style="stroke-width: 1.42 ;&st7;  " d=" M   299.57,    61.28  L   295.33,    61.28  " /><path style="stroke-width: 1.42 ;&st7;  " d=" M   299.57,   171.76  L   295.33,   171.76  " /><path style="stroke-width: 1.42 ;&st7;  " d=" M   299.57,   163.26  L   295.33,   163.26  " /><path style="stroke-width: 1.42 ;&st7;   " d=" M   303.82,    65.52  C   303.82     63.18    301.92     61.28    299.57     61.28  " /><path style="stroke-width: 1.42 ;&st7;   " d=" M   299.57,    69.77  C   301.92     69.77    303.82     67.87    303.82     65.52  " /><path style="stroke-width: 1.42 ;&st7;   " d=" M   291.08,    65.52  C   291.08     67.87    292.98     69.77    295.33     69.77  " /><path style="stroke-width: 1.42 ;&st7;   " d=" M   295.33,    61.28  C   292.98     61.28    291.08     63.18    291.08     65.52  " /><path style="stroke-width: 1.42 ;&st7;   " d=" M   303.82,   167.51  C   303.82    165.16    301.92    163.26    299.57    163.26  " /><path style="stroke-width: 1.42 ;&st7;   " d=" M   299.57,   171.76  C   301.92    171.76    303.82    169.85    303.82    167.51  " /><path style="stroke-width: 1.42 ;&st7;   " d=" M   291.08,   167.51  C   291.08    169.85    292.98    171.76    295.33    171.76  " /><path style="stroke-width: 1.42 ;&st7;   " d=" M   295.33,   163.26  C   292.98    163.26    291.08    165.16    291.08    167.51  " /><path style="stroke-width: 0.85 ;&st7;  " d=" M   297.45,   137.76  L   297.45,   163.26  " /><path style="stroke-width: 0.85 ;&st7;  " d=" M   297.45,    69.77  L   297.45,    95.27  " /><path style="stroke-width: 0.28 ;&st9;  " d=" M   297.45,    74.67  L   300.28,    77.50  L   300.28,    73.25  L   297.45,    70.42  L   294.62,    73.25  L   294.62,    77.50  L   297.45,    74.67  " /><path style="stroke-width: 0.28 ;&st9;  " d=" M   297.45,   158.36  L   294.62,   155.53  L   294.62,   159.78  L   297.45,   162.61  L   300.28,   159.78  L   300.28,   155.53  L   297.45,   158.36  " /><text style="&st18;" transform="matrix(&st16;  295.57  67.49 )">2</text><text style="&st18;" transform="matrix(&st16;  295.57  169.48 )">2</text><text style="&st18;" transform="matrix(&st16;  291.11  91.58 )">1</text><text style="&st18;" transform="matrix(&st16;  291.11  145.96 )">2</text><text style="&st18;" transform="matrix(&st16;  313.87  115.66 )">10A <tspan x="0 " dy="6.0">TAIL</tspan></text><path style="stroke-width: 0.85 ;&st7;  " d=" M   297.45,   129.26  L   297.45,   137.76  " /><path style="stroke-width: 0.85 ;&st7;   " d=" M   298.87,   127.85  C   298.87    127.07    298.23    126.43    297.45    126.43  " /><path style="stroke-width: 0.85 ;&st7;   " d=" M   297.45,   126.43  C   296.67    126.43    296.03    127.07    296.03    127.85  " /><path style="stroke-width: 0.85 ;&st7;   " d=" M   296.03,   127.85  C   296.03    128.63    296.67    129.26    297.45    129.26  " /><path style="stroke-width: 0.85 ;&st7;   " d=" M   297.45,   129.26  C   298.23    129.26    298.87    128.63    298.87    127.85  " /><path style="stroke-width: 0.85 ;&st7;   " d=" M   298.87,   105.18  C   298.87    104.40    298.23    103.77    297.45    103.77  " /><path style="stroke-width: 0.85 ;&st7;   " d=" M   297.45,   103.77  C   296.67    103.77    296.03    104.40    296.03    105.18  " /><path style="stroke-width: 0.85 ;&st7;   " d=" M   296.03,   105.18  C   296.03    105.97    296.67    106.60    297.45    106.60  " /><path style="stroke-width: 0.85 ;&st7;   " d=" M   297.45,   106.60  C   298.23    106.60    298.87    105.97    298.87    105.18  " /><path style="stroke-width: 1.42 ;&st7;   " d=" M   297.45,   126.43  C   300.19    124.82    301.10    121.29    299.49    118.55  " /><path style="stroke-width: 1.42 ;&st7;   " d=" M   299.49,   118.55  C   298.97    117.67    298.33    117.04    297.45    116.52  " /><path style="stroke-width: 1.42 ;&st7;   " d=" M   297.45,   106.60  C   294.71    108.21    293.80    111.74    295.41    114.48  " /><path style="stroke-width: 1.42 ;&st7;   " d=" M   295.41,   114.48  C   295.93    115.36    296.57    116.00    297.45    116.52  " /><path style="stroke-width: 1.42 ;&st7;  " d=" M   284.70,    95.27  L   284.70,   137.76  L   310.20,   137.76  L   310.20,    95.27  L   284.70,    95.27  " /><path style="stroke-width: 0.85 ;&st7;  " d=" M   297.45,    95.27  L   297.45,   103.77  " /></g><g ewd:figtype="rb" ewd:figID="4" ewd:code="2"><path style="stroke-width: 1.42 ;&st7;  " d=" M   155.10,   299.24  L   150.85,   299.24  " /><path style="stroke-width: 1.42 ;&st7;  " d=" M   155.10,   290.74  L   150.85,   290.74  " /><path style="stroke-width: 1.42 ;&st7;  " d=" M   180.59,   299.24  L   176.35,   299.24  " /><path style="stroke-width: 1.42 ;&st7;  " d=" M   180.59,   290.74  L   176.35,   290.74  " /><path style="stroke-width: 1.42 ;&st7;  " d=" M   155.10,   222.75  L   150.85,   222.75  " /><path style="stroke-width: 1.42 ;&st7;  " d=" M   155.10,   214.25  L   150.85,   214.25  " /><path style="stroke-width: 1.42 ;&st7;  " d=" M   180.59,   222.75  L   176.35,   222.75  " /><path style="stroke-width: 1.42 ;&st7;  " d=" M   180.59,   214.25  L   176.35,   214.25  " /><path style="stroke-width: 1.42 ;&st7;   " d=" M   159.35,   294.99  C   159.35    292.64    157.45    290.74    155.10    290.74  " /><path style="stroke-width: 1.42 ;&st7;   " d=" M   155.10,   299.24  C   157.45    299.24    159.35    297.33    159.35    294.99  " /><path style="stroke-width: 1.42 ;&st7;   " d=" M   146.60,   294.99  C   146.60    297.33    148.50    299.24    150.85    299.24  " /><path style="stroke-width: 1.42 ;&st7;   " d=" M   150.85,   290.74  C   148.50    290.74    146.60    292.64    146.60    294.99  " /><path style="stroke-width: 1.42 ;&st7;   " d=" M   184.84,   294.99  C   184.84    292.64    182.94    290.74    180.59    290.74  " /><path style="stroke-width: 1.42 ;&st7;   " d=" M   180.59,   299.24  C   182.94    299.24    184.84    297.33    184.84    294.99  " /><path style="stroke-width: 1.42 ;&st7;   " d=" M   172.10,   294.99  C   172.10    297.33    174.00    299.24    176.35    299.24  " /><path style="stroke-width: 1.42 ;&st7;   " d=" M   176.35,   290.74  C   174.00    290.74    172.10    292.64    172.10    294.99  " /><path style="stroke-width: 1.42 ;&st7;   " d=" M   159.35,   218.50  C   159.35    216.15    157.45    214.25    155.10    214.25  " /><path style="stroke-width: 1.42 ;&st7;   " d=" M   155.10,   222.75  C   157.45    222.75    159.35    220.85    159.35    218.50  " /><path style="stroke-width: 1.42 ;&st7;   " d=" M   146.60,   218.50  C   146.60    220.85    148.50    222.75    150.85    222.75  " /><path style="stroke-width: 1.42 ;&st7;   " d=" M   150.85,   214.25  C   148.50    214.25    146.60    216.15    146.60    218.50  " /><path style="stroke-width: 1.42 ;&st7;   " d=" M   184.84,   218.50  C   184.84    216.15    182.94    214.25    180.59    214.25  " /><path style="stroke-width: 1.42 ;&st7;   " d=" M   180.59,   222.75  C   182.94    222.75    184.84    220.85    184.84    218.50  " /><path style="stroke-width: 1.42 ;&st7;   " d=" M   172.10,   218.50  C   172.10    220.85    174.00    222.75    176.35    222.75  " /><path style="stroke-width: 1.42 ;&st7;   " d=" M   176.35,   214.25  C   174.00    214.25    172.10    216.15    172.10    218.50  " /><path style="stroke-width: 0.85 ;&st7;  " d=" M   152.97,   239.75  L   152.97,   222.75  " /><path style="stroke-width: 0.85 ;&st7;  " d=" M   178.47,   222.75  L   178.47,   239.75  " /><path style="stroke-width: 0.85 ;&st7;  " d=" M   178.47,   290.74  L   178.47,   273.74  " /><path style="stroke-width: 0.85 ;&st7;  " d=" M   152.97,   273.74  L   152.97,   290.74  " /><path style="stroke-width: 0.28 ;&st9;  " d=" M   152.97,   285.84  L   150.14,   283.01  L   150.14,   287.26  L   152.97,   290.09  L   155.81,   287.26  L   155.81,   283.01  L   152.97,   285.84  " /><path style="stroke-width: 0.28 ;&st9;  " d=" M   178.47,   285.84  L   175.64,   283.01  L   175.64,   287.26  L   178.47,   290.09  L   181.30,   287.26  L   181.30,   283.01  L   178.47,   285.84  " /><path style="stroke-width: 0.28 ;&st9;  " d=" M   152.97,   227.64  L   155.81,   230.48  L   155.81,   226.23  L   152.97,   223.39  L   150.14,   226.23  L   150.14,   230.48  L   152.97,   227.64  " /><path style="stroke-width: 0.28 ;&st9;  " d=" M   178.47,   227.64  L   181.30,   230.48  L   181.30,   226.23  L   178.47,   223.39  L   175.64,   226.23  L   175.64,   230.48  L   178.47,   227.64  " /><text style="&st18;" transform="matrix(&st17;  194.61  264.09 )" ewd:textID="21">TAIL <tspan x="0 " dy="6.0">Relay</tspan></text><text style="&st18;" transform="matrix(&st16;  151.1  296.96 )">2</text><text style="&st18;" transform="matrix(&st16;  176.59  296.96 )">2</text><text style="&st18;" transform="matrix(&st16;  151.1  220.47 )">2</text><text style="&st18;" transform="matrix(&st16;  176.59  220.47 )">2</text><text style="&st18;" transform="matrix(&st16;  172.13  236.05 )">5</text><text style="&st18;" transform="matrix(&st16;  146.63  236.05 )">1</text><text style="&st18;" transform="matrix(&st16;  172.13  281.93 )">3</text><text style="&st18;" transform="matrix(&st16;  146.64  281.93 )">2</text><path style="stroke-width: 0.85 ;&st7;  " d=" M   152.97,   265.24  L   152.97,   273.74  " /><path style="stroke-width: 0.85 ;&st7;  " d=" M   152.97,   239.75  L   152.97,   248.24  " /><path style="stroke-width: 0.85 ;&st7;  " d=" M   178.47,   239.75  L   178.47,   243.99  " /><path style="stroke-width: 0.85 ;&st7;  " d=" M   178.47,   273.74  L   178.47,   269.49  " /><path style="stroke-width: 1.42 ;&st7;  " d=" M   178.47,   266.66  L   184.14,   243.99  " /><path style="stroke-width: 0.85 ;&st7;   " d=" M   152.97,   265.24  C   154.93    265.24    156.52    263.66    156.52    261.70  " /><path style="stroke-width: 0.85 ;&st7;   " d=" M   156.52,   261.70  C   156.52    259.74    154.93    258.16    152.97    258.16  " /><path style="stroke-width: 0.85 ;&st7;   " d=" M   152.97,   258.16  C   151.98    258.16    151.14    258.51    150.45    259.22  " /><path style="stroke-width: 0.85 ;&st7;   " d=" M   150.44,   259.22  C   151.81    260.62    154.06    260.64    155.45    259.27  " /><path style="stroke-width: 0.85 ;&st7;   " d=" M   155.45,   259.27  C   156.85    257.90    156.87    255.66    155.50    254.26  " /><path style="stroke-width: 0.85 ;&st7;   " d=" M   155.50,   254.26  C   154.14    252.87    151.89    252.84    150.50    254.21  " /><path style="stroke-width: 0.85 ;&st7;   " d=" M   150.50,   254.21  C   150.48    254.23    150.46    254.25    150.44    254.26  " /><path style="stroke-width: 0.85 ;&st7;   " d=" M   150.44,   254.26  C   151.81    255.66    154.06    255.68    155.45    254.31  " /><path style="stroke-width: 0.85 ;&st7;   " d=" M   155.45,   254.31  C   156.85    252.95    156.87    250.70    155.50    249.31  " /><path style="stroke-width: 0.85 ;&st7;   " d=" M   155.50,   249.31  C   154.81    248.60    153.97    248.24    152.97    248.24  " /><path style="stroke-width: 0.85 ;&st7;   " d=" M   179.89,   245.41  C   179.89    244.63    179.25    243.99    178.47    243.99  " /><path style="stroke-width: 0.85 ;&st7;   " d=" M   178.47,   243.99  C   177.69    243.99    177.05    244.63    177.05    245.41  " /><path style="stroke-width: 0.85 ;&st7;   " d=" M   177.05,   245.41  C   177.05    246.19    177.69    246.83    178.47    246.83  " /><path style="stroke-width: 0.85 ;&st7;   " d=" M   178.47,   246.83  C   179.25    246.83    179.89    246.19    179.89    245.41  " /><path style="stroke-width: 0.85 ;&st7;   " d=" M   179.89,   268.07  C   179.89    267.29    179.25    266.66    178.47    266.66  " /><path style="stroke-width: 0.85 ;&st7;   " d=" M   178.47,   266.66  C   177.69    266.66    177.05    267.29    177.05    268.07  " /><path style="stroke-width: 0.85 ;&st7;   " d=" M   177.05,   268.07  C   177.05    268.86    177.69    269.49    178.47    269.49  " /><path style="stroke-width: 0.85 ;&st7;   " d=" M   178.47,   269.49  C   179.25    269.49    179.89    268.86    179.89    268.07  " /><path style="stroke-width: 1.42 ;&st7;  " d=" M   186.97,   239.75  L   144.48,   239.75  L   144.48,   273.74  L   186.97,   273.74  L   186.97,   239.75  " /></g><g ewd:figtype="conn" ewd:figID="8" ewd:code="L53"><path style="stroke-width: 1.42 ;&st7;  " d=" M   288.95,   622.18  L   305.95,   622.18  L   305.95,   639.18  L   288.95,   639.18  L   288.95,   622.18  " /><path style="stroke-width: 0.85 ;&st7;  " d=" M   297.45,   622.18  L   297.45,   639.18  " /><path style="stroke-width: 0.85 ;&st7;  " d=" M   297.45,   630.68  L   288.95,   630.68  " /><path style="stroke-width: 0.85 ;&st7;  " d=" M   296.26,   629.68  L   295.99,   630.15  L   295.89,   630.68  L   295.99,   631.21  L   296.26,   631.68  L   296.67,   632.03  L   297.18,   632.22  L   297.72,   632.22  L   298.23,   632.03  L   298.64,   631.68  L   298.91,   631.21  L   299.01,   630.68  L   298.91,   630.15  L   298.64,   629.68  L   298.23,   629.33  L   297.72,   629.14  L   297.18,   629.14  L   296.67,   629.33  L   296.26,   629.68  L   296.65,   630.39  L   296.65,   630.97  L   297.03,   631.42  L   297.60,   631.52  L   298.10,   631.23  L   298.30,   630.68  L   298.10,   630.13  L   297.60,   629.84  L   297.03,   629.94  L   297.45,   630.68  " /><text style="&st18;" transform="matrix(&st16;  282.61  626.99 )">5</text><text style="&st18;" transform="matrix(&st16;  291.11  647.37 )">4</text><text style="&st18;" transform="matrix(&st16;  287.78  618.49 )">13</text><g ewd:figtype="title"><text style="&st18;" transform="matrix(&st17;  320.67  642.08 )" ewd:textID="15">No. 31 <tspan x="0 " dy="6.0">Junction Connector</tspan></text><text style="&st18;" transform="matrix(&st17;  313.84  642.08 )">L53</text></g></g><g ewd:figtype="conn" ewd:figID="9" ewd:code="L24"><path style="stroke-width: 0.85 ;&st7;  " d=" M   365.44,   426.71  L   365.44,   409.72  " /><text style="&st18;" transform="matrix(&st16;  368.02  417.91 )">B</text><path style="stroke-width: 0.85 ;&st7;   " d=" M   154.39,   469.21  C   154.39    468.42    153.76    467.79    152.97    467.79  " /><path style="stroke-width: 0.85 ;&st7;   " d=" M   152.97,   467.79  C   152.19    467.79    151.56    468.42    151.56    469.21  " /><path style="stroke-width: 0.85 ;&st7;   " d=" M   151.56,   469.21  C   151.56    469.99    152.19    470.62    152.97    470.62  " /><path style="stroke-width: 0.85 ;&st7;   " d=" M   152.97,   470.62  C   153.76    470.62    154.39    469.99    154.39    469.21  " /><path style="stroke-width: 0.85 ;&st7;   " d=" M   188.39,   486.20  C   188.39    485.42    187.75    484.79    186.97    484.79  " /><path style="stroke-width: 0.85 ;&st7;   " d=" M   186.97,   484.79  C   186.19    484.79    185.55    485.42    185.55    486.20  " /><path style="stroke-width: 0.85 ;&st7;   " d=" M   185.55,   486.20  C   185.55    486.99    186.19    487.62    186.97    487.62  " /><path style="stroke-width: 0.85 ;&st7;   " d=" M   186.97,   487.62  C   187.75    487.62    188.39    486.99    188.39    486.20  " /><path style="stroke-width: 0.85 ;&st7;   " d=" M   154.39,   486.20  C   154.39    485.42    153.76    484.79    152.97    484.79  " /><path style="stroke-width: 0.85 ;&st7;   " d=" M   152.97,   484.79  C   152.19    484.79    151.56    485.42    151.56    486.20  " /><path style="stroke-width: 0.85 ;&st7;   " d=" M   151.56,   486.20  C   151.56    486.99    152.19    487.62    152.97    487.62  " /><path style="stroke-width: 0.85 ;&st7;   " d=" M   152.97,   487.62  C   153.76    487.62    154.39    486.99    154.39    486.20  " /><path style="stroke-width: 0.85 ;&st7;   " d=" M   171.39,   486.20  C   171.39    485.42    170.75    484.79    169.97    484.79  " /><path style="stroke-width: 0.85 ;&st7;   " d=" M   169.97,   484.79  C   169.19    484.79    168.56    485.42    168.56    486.20  " /><path style="stroke-width: 0.85 ;&st7;   " d=" M   168.56,   486.20  C   168.56    486.99    169.19    487.62    169.97    487.62  " /><path style="stroke-width: 0.85 ;&st7;   " d=" M   169.97,   487.62  C   170.75    487.62    171.39    486.99    171.39    486.20  " /><path style="stroke-width: 0.85 ;&st7;   " d=" M   188.39,   469.21  C   188.39    468.42    187.75    467.79    186.97    467.79  " /><path style="stroke-width: 0.85 ;&st7;   " d=" M   186.97,   467.79  C   186.19    467.79    185.55    468.42    185.55    469.21  " /><path style="stroke-width: 0.85 ;&st7;   " d=" M   185.55,   469.21  C   185.55    469.99    186.19    470.62    186.97    470.62  " /><path style="stroke-width: 0.85 ;&st7;   " d=" M   186.97,   470.62  C   187.75    470.62    188.39    469.99    188.39    469.21  " /><path style="stroke-width: 0.85 ;&st7;   " d=" M   366.86,   486.20  C   366.86    485.42    366.22    484.79    365.44    484.79  " /><path style="stroke-width: 0.85 ;&st7;   " d=" M   365.44,   484.79  C   364.66    484.79    364.02    485.42    364.02    486.20  " /><path style="stroke-width: 0.85 ;&st7;   " d=" M   364.02,   486.20  C   364.02    486.99    364.66    487.62    365.44    487.62  " /><path style="stroke-width: 0.85 ;&st7;   " d=" M   365.44,   487.62  C   366.22    487.62    366.86    486.99    366.86    486.20  " /><path style="stroke-width: 0.85 ;&st7;   " d=" M   298.87,   486.20  C   298.87    485.42    298.23    484.79    297.45    484.79  " /><path style="stroke-width: 0.85 ;&st7;   " d=" M   297.45,   484.79  C   296.67    484.79    296.03    485.42    296.03    486.20  " /><path style="stroke-width: 0.85 ;&st7;   " d=" M   296.03,   486.20  C   296.03    486.99    296.67    487.62    297.45    487.62  " /><path style="stroke-width: 0.85 ;&st7;   " d=" M   297.45,   487.62  C   298.23    487.62    298.87    486.99    298.87    486.20  " /><path style="stroke-width: 0.85 ;&st7;   " d=" M   332.86,   486.20  C   332.86    485.42    332.23    484.79    331.44    484.79  " /><path style="stroke-width: 0.85 ;&st7;   " d=" M   331.44,   484.79  C   330.66    484.79    330.03    485.42    330.03    486.20  " /><path style="stroke-width: 0.85 ;&st7;   " d=" M   330.03,   486.20  C   330.03    486.99    330.66    487.62    331.44    487.62  " /><path style="stroke-width: 0.85 ;&st7;   " d=" M   331.44,   487.62  C   332.23    487.62    332.86    486.99    332.86    486.20  " /><path style="stroke-width: 0.85 ;&st7;   " d=" M   298.87,   469.21  C   298.87    468.42    298.23    467.79    297.45    467.79  " /><path style="stroke-width: 0.85 ;&st7;   " d=" M   297.45,   467.79  C   296.67    467.79    296.03    468.42    296.03    469.21  " /><path style="stroke-width: 0.85 ;&st7;   " d=" M   296.03,   469.21  C   296.03    469.99    296.67    470.62    297.45    470.62  " /><path style="stroke-width: 0.85 ;&st7;   " d=" M   297.45,   470.62  C   298.23    470.62    298.87    469.99    298.87    469.21  " /><path style="stroke-width: 0.85 ;&st7;   " d=" M   332.86,   469.21  C   332.86    468.42    332.23    467.79    331.44    467.79  " /><path style="stroke-width: 0.85 ;&st7;   " d=" M   331.44,   467.79  C   330.66    467.79    330.03    468.42    330.03    469.21  " /><path style="stroke-width: 0.85 ;&st7;   " d=" M   330.03,   469.21  C   330.03    469.99    330.66    470.62    331.44    470.62  " /><path style="stroke-width: 0.85 ;&st7;   " d=" M   331.44,   470.62  C   332.23    470.62    332.86    469.99    332.86    469.21  " /><path style="stroke-width: 0.85 ;&st7;  " d=" M   154.39,   486.20  L   168.56,   486.20  " /><path style="stroke-width: 1.42 ;&st7;  " d=" M    84.99,   426.71  L    84.99,   494.70  L   195.47,   494.70  L   195.47,   426.71  L    84.99,   426.71  " /><path style="stroke-width: 0.85 ;&st7;  " d=" M   110.48,   443.71  L   195.47,   443.71  " /><path style="stroke-width: 0.85 ;&st7;  " d=" M   110.48,   460.71  L   195.47,   460.71  " /><path style="stroke-width: 0.85 ;&st7;  " d=" M   110.48,   477.71  L   195.47,   477.71  " /><path style="stroke-width: 0.85 ;&st7;  " d=" M   161.47,   426.71  L   161.47,   494.70  " /><path style="stroke-width: 0.85 ;&st7;  " d=" M   144.48,   426.71  L   144.48,   494.70  " /><path style="stroke-width: 0.85 ;&st7;  " d=" M   110.48,   426.71  L   110.48,   494.70  " /><path style="stroke-width: 0.85 ;&st7;  " d=" M   154.39,   469.21  L   185.55,   469.21  " /><path style="stroke-width: 0.85 ;&st7;  " d=" M   178.47,   426.71  L   178.47,   494.70  " /><path style="stroke-width: 0.85 ;&st7;  " d=" M   171.39,   486.20  L   185.55,   486.20  " /><path style="stroke-width: 0.85 ;&st7;  " d=" M   186.97,   494.70  L   186.97,   511.70  " /><path style="stroke-width: 0.85 ;&st7;  " d=" M   152.97,   426.71  L   152.97,   409.72  " /><path style="stroke-width: 0.85 ;&st7;  " d=" M   246.46,   443.71  L   382.44,   443.71  " /><path style="stroke-width: 0.85 ;&st7;  " d=" M   246.46,   426.71  L   246.46,   494.70  " /><path style="stroke-width: 0.85 ;&st7;  " d=" M   348.44,   426.71  L   348.44,   494.70  " /><path style="stroke-width: 1.42 ;&st7;  " d=" M   220.96,   426.71  L   382.44,   426.71  L   382.44,   494.70  L   220.96,   494.70  L   220.96,   426.71  " /><path style="stroke-width: 0.85 ;&st7;  " d=" M   246.46,   460.71  L   382.44,   460.71  " /><path style="stroke-width: 0.85 ;&st7;  " d=" M   280.45,   426.71  L   280.45,   494.70  " /><path style="stroke-width: 0.85 ;&st7;  " d=" M   314.45,   426.71  L   314.45,   494.70  " /><path style="stroke-width: 0.85 ;&st7;  " d=" M   298.87,   469.21  L   330.03,   469.21  " /><path style="stroke-width: 1.42 ;&st7;  " d=" M    67.99,   409.72  L    67.99,   511.70  L   399.43,   511.70  L   399.43,   409.72  L    67.99,   409.72  " /><path style="stroke-width: 0.85 ;&st7;  " d=" M   297.45,   494.70  L   297.45,   511.70  " /><path style="stroke-width: 0.85 ;&st7;  " d=" M   246.46,   477.71  L   382.44,   477.71  " /><path style="stroke-width: 0.85 ;&st7;  " d=" M   298.87,   486.20  L   330.03,   486.20  " /><path style="stroke-width: 0.85 ;&st7;  " d=" M   332.86,   486.20  L   364.02,   486.20  " /><text style="&st18;" transform="matrix(&st17;  95.46  479.69 )" ewd:textID="14">Light <tspan x="0 " dy="6.0">Control Switch</tspan></text><text style="&st18;" transform="matrix(&st16;  121.26  454.18 )">OFF</text><text style="&st18;" transform="matrix(&st16;  122.38  471.18 )" ewd:textID="22">Tail</text><text style="&st18;" transform="matrix(&st16;  120.09  488.17 )" ewd:textID="12">Head</text><text style="&st18;" transform="matrix(&st16;  150.9  437.18 )">T</text><text style="&st18;" transform="matrix(&st16;  167.55  437.18 )">H</text><text style="&st18;" transform="matrix(&st16;  183.07  437.18 )">EL</text><text style="&st18;" transform="matrix(&st16;  300.03  508.01 )">LFG</text><text style="&st18;" transform="matrix(&st17;  232.86  476.55 )" ewd:textID="10">Fog <tspan x="0 " dy="6.0">Light Switch</tspan></text><text style="&st18;" transform="matrix(&st16;  257.24  454.18 )">OFF</text><text style="&st18;" transform="matrix(&st16;  291.42  437.18 )">LFG</text><text style="&st18;" transform="matrix(&st16;  325.03  437.18 )">BFG</text><text style="&st18;" transform="matrix(&st16;  256.27  471.18 )" ewd:textID="11">Front</text><text style="&st18;" transform="matrix(&st16;  256.73  488.17 )" ewd:textID="17">Rear</text><text style="&st18;" transform="matrix(&st16;  363.19  437.22 )">B</text><text style="&st18;" transform="matrix(&st16;  189.55  508.01 )">EL</text><text style="&st18;" transform="matrix(&st16;  155.56  417.91 )">T</text><text style="&st18;" transform="matrix(&st16;  140.16  407.15 )">18</text><path style="stroke-width: 1.42 ;&st7;   " d=" M   157.51,   405.18  C   157.51    402.68    155.48    400.65    152.97    400.65  " /><path style="stroke-width: 1.42 ;&st7;   " d=" M   152.97,   400.65  C   150.47    400.65    148.44    402.68    148.44    405.18  " /><path style="stroke-width: 1.42 ;&st7;   " d=" M   148.44,   405.18  C   148.44    407.69    150.47    409.72    152.97    409.72  " /><path style="stroke-width: 1.42 ;&st7;   " d=" M   152.97,   409.72  C   155.48    409.72    157.51    407.69    157.51    405.18  " /><text style="&st18;" transform="matrix(&st16;  150.55  407.15 )">C</text><text style="&st18;" transform="matrix(&st16;  287.97  518.2 )">3</text><text style="&st18;" transform="matrix(&st16;  295.03  518.2 )">C</text><path style="stroke-width: 1.42 ;&st7;   " d=" M   301.98,   516.23  C   301.98    513.73    299.95    511.70    297.45    511.70  " /><path style="stroke-width: 1.42 ;&st7;   " d=" M   297.45,   511.70  C   294.95    511.70    292.92    513.73    292.92    516.23  " /><path style="stroke-width: 1.42 ;&st7;   " d=" M   292.92,   516.23  C   292.92    518.74    294.95    520.76    297.45    520.76  " /><path style="stroke-width: 1.42 ;&st7;   " d=" M   297.45,   520.76  C   299.95    520.76    301.98    518.74    301.98    516.23  " /><text style="&st18;" transform="matrix(&st16;  355.96  407.15 )">2</text><path style="stroke-width: 1.42 ;&st7;   " d=" M   369.97,   405.18  C   369.97    402.68    367.94    400.65    365.44    400.65  " /><path style="stroke-width: 1.42 ;&st7;   " d=" M   365.44,   400.65  C   362.94    400.65    360.91    402.68    360.91    405.18  " /><path style="stroke-width: 1.42 ;&st7;   " d=" M   360.91,   405.18  C   360.91    407.69    362.94    409.72    365.44    409.72  " /><path style="stroke-width: 1.42 ;&st7;   " d=" M   365.44,   409.72  C   367.94    409.72    369.97    407.69    369.97    405.18  " /><text style="&st18;" transform="matrix(&st16;  363.02  407.15 )">C</text><text style="&st18;" transform="matrix(&st16;  174.15  518.2 )">12</text><text style="&st18;" transform="matrix(&st16;  184.55  518.2 )">C</text><path style="stroke-width: 1.42 ;&st7;   " d=" M   191.50,   516.23  C   191.50    513.73    189.47    511.70    186.97    511.70  " /><path style="stroke-width: 1.42 ;&st7;   " d=" M   186.97,   511.70  C   184.47    511.70    182.44    513.73    182.44    516.23  " /><path style="stroke-width: 1.42 ;&st7;   " d=" M   182.44,   516.23  C   182.44    518.74    184.47    520.76    186.97    520.76  " /><path style="stroke-width: 1.42 ;&st7;   " d=" M   186.97,   520.76  C   189.47    520.76    191.50    518.74    191.50    516.23  " /><g ewd:figtype="title"><text style="&st18;" transform="matrix(&st16;  345.04  526.42 )" ewd:textID="13">Headlight Dimmer Switch Assembly</text><text style="&st18;" transform="matrix(&st16;  345.03  519.59 )">L24(C)</text></g></g><g ewd:figtype="w2w" ewd:figID="16" ewd:code="IL2"><path style="stroke-width: 1.42 ;&st7;  " d=" M   157.22,   350.79  L   152.97,   346.54  L   148.73,   350.79  " /><path style="stroke-width: 1.42 ;&st7;  " d=" M   157.22,   347.39  L   152.97,   343.14  L   148.73,   347.39  " /><text style="&st18;" transform="matrix(&st16;  139.56  339.45 )">6</text></g><g ewd:figtype="w2w" ewd:figID="17" ewd:code="AI1"><path style="stroke-width: 1.42 ;&st7;  " d=" M   157.22,   143.43  L   152.97,   139.18  L   148.73,   143.43  " /><path style="stroke-width: 1.42 ;&st7;  " d=" M   157.22,   146.83  L   152.97,   142.58  L   148.73,   146.83  " /><text style="&st18;" transform="matrix(&st16;  139.56  135.48 )">1</text></g><g ewd:figtype="gp" ewd:figID="27" ewd:code="LB"><path style="stroke-width: 0.85 ;&st7;  " d=" M   254.96,   697.25  L   254.96,   701.50  " /><path style="stroke-width: 0.85 ;&st7;  " d=" M   246.46,   701.50  L   263.46,   701.50  " /><path style="stroke-width: 0.85 ;&st7;  " d=" M   250.71,   704.33  L   259.21,   704.33  " /><path style="stroke-width: 0.85 ;&st7;  " d=" M   252.12,   707.17  L   257.79,   707.17  " /><path style="stroke-width: 0.85 ;&st7;  " d=" M   253.54,   710.00  L   256.37,   710.00  " /></g><g ewd:figtype="gp" ewd:figID="28" ewd:code="LA"><path style="stroke-width: 0.85 ;&st7;  " d=" M   297.45,   697.25  L   297.45,   701.50  " /><path style="stroke-width: 0.85 ;&st7;  " d=" M   288.95,   701.50  L   305.95,   701.50  " /><path style="stroke-width: 0.85 ;&st7;  " d=" M   293.20,   704.33  L   301.70,   704.33  " /><path style="stroke-width: 0.85 ;&st7;  " d=" M   294.62,   707.17  L   300.28,   707.17  " /><path style="stroke-width: 0.85 ;&st7;  " d=" M   296.03,   710.00  L   298.87,   710.00  " /></g><g ewd:code="4" ewd:figID="48" ewd:comment="" ewd:figtype="comment"><text style="&st18;" transform="matrix(&st16;  64.58  615.65 )">* 4 :1HZ</text></g><g ewd:code="1" ewd:figID="47" ewd:comment="" ewd:figtype="comment"><text style="&st18;" transform="matrix(&st16;  64.58  607.15 )">* 1 :1GR-FE</text></g><g ewd:code="17" ewd:figID="55" ewd:comment="" ewd:figtype="comment"><text style="&st18;" transform="matrix(&st16;  64.58  675.14 )" ewd:textID="7">*17 :Before Sep. 2022 Production</text></g><g ewd:code="7" ewd:figID="50" ewd:comment="" ewd:figtype="comment"><text style="&st18;" transform="matrix(&st16;  64.58  632.65 )" ewd:textID="2">* 7 :Short Wheel Base</text></g><g ewd:code="15" ewd:figID="53" ewd:comment="" ewd:figtype="comment"><text style="&st18;" transform="matrix(&st16;  64.58  658.14 )" ewd:textID="5">*15 :Before Jul. 2021 Production</text></g><g ewd:code="14" ewd:figID="52" ewd:comment="13" ewd:figtype="comment"><text style="&st18;" transform="matrix(&st16;  64.58  649.65 )" ewd:textID="4">*14 :Except *13</text></g><g ewd:code="16" ewd:figID="54" ewd:comment="" ewd:figtype="comment"><text style="&st18;" transform="matrix(&st16;  64.58  666.64 )" ewd:textID="6">*16 :From Jul. 2021 Production</text></g><g ewd:code="18" ewd:figID="56" ewd:comment="" ewd:figtype="comment"><text style="&st18;" transform="matrix(&st16;  64.58  683.64 )" ewd:textID="8">*18 :From Sep. 2022 Production</text></g><g ewd:code="5" ewd:figID="49" ewd:comment="" ewd:figtype="comment"><text style="&st18;" transform="matrix(&st16;  64.58  624.15 )" ewd:textID="1">* 5 :Except Short Wheel Base</text></g><g ewd:code="13" ewd:figID="51" ewd:comment="" ewd:figtype="comment"><text style="&st18;" transform="matrix(&st16;  64.58  641.15 )" ewd:textID="3">*13 :Pick-Up Body Type</text></g></svg>