<?xml version="1.0" encoding="utf-8"?>
<!DOCTYPE svg PUBLIC "-//W3C//DTD SVG 1.0//EN" "http://www.w3.org/TR/2001/REC-SVG-20010904/DTD/svg10.dtd"[
	<!ENTITY ns_flows "http://ns.adobe.com/Flows/1.0/">
	<!ENTITY ns_svg "http://www.w3.org/2000/svg">
	<!ENTITY ns_xlink "http://www.w3.org/1999/xlink">
	<!ENTITY st0 "font-size:7px;font-family:'MS-PGothic';adobe-font-script:japanese;">
	<!ENTITY st1 "font-size:6px;font-family:'ArialMT';">
	<!-- White fill  -->
	<!ENTITY st2 "fill:#FFFFFF;stroke:#000000; stroke-width:1.41;stroke-linecap:round;stroke-linejoin:round;">
	<!-- Yellow fill  -->
	<!ENTITY st3 "fill:#FFFFCC;stroke:#FFFFCC; stroke-width:0.1;stroke-linecap:round;stroke-linejoin:round;">
	<!-- Gray fill  -->
	<!ENTITY st4 "fill:#CCCCCC;stroke:#CCCCCC; stroke-width:0.1;stroke-linecap:round;stroke-linejoin:round;">
	<!-- Light-blue fill -->
	<!ENTITY st5 "fill:#CCECF4;stroke:#000000; stroke-width:1.133;stroke-linecap:round;stroke-linejoin:round;">
	<!ENTITY st6 "fill:none;stroke-linecap:butt; stroke-linejoin:round;">
	<!ENTITY st7 "fill:none;stroke:#000000;stroke-linecap:round;stroke-linejoin:round;">
	<!ENTITY st8 "enable-background:new    ;">
	<!-- Black fill -->
	<!ENTITY st9 "fill:#000000;stroke:#000000; stroke-linecap:round;stroke-linejoin:round;">
	<!-- SRS note   -->
	<!ENTITY st10 "font-size:9px;font-family:'ArialMT';">
	<!ENTITY st11 "font-size:9px;font-family:'Svg Symbol';">
	<!ENTITY st12 "font-size:6px;font-family:'Svg Symbol';">
	<!ENTITY st13 "fill:none;stroke:#ff0000;stroke-linecap:round;stroke-linejoin:round;">
	<!-- Yellow fill  -->
	<!ENTITY st14 "fill:#FFFF00;stroke:#FFFF00; stroke-width:0.1;stroke-linecap:round;stroke-linejoin:round;">
	<!ENTITY st15 "font-size:6px;font-family:'MS-PGothic';adobe-font-script:japanese;">
	<!ENTITY st16 "1.00 0.00 0.00 1.00">
	<!ENTITY st17 "0.00 -1.00 1.00 0.00">
	<!ENTITY st18 "font-size:6px;font-family:'Arial';">
	<!ENTITY st19 "font-size:9px;font-family:'Arial';">
	<!ENTITY st20 "font-size:6px;font-family:'MS-PGothic','MS PGothic';adobe-font-script:japanese;">
	<!ENTITY st21 "font-size:7px;font-family:'MS-PGothic','MS PGothic';adobe-font-script:japanese;">
	<!ATTLIST svg
		xmlns:ewd CDATA #FIXED "http://shcl.co.jp/ewd"
		xmlns:a CDATA #FIXED "http://ns.adobe.com/AdobeSVGViewerExtensions/3.0/"
		ewd:ver CDATA #IMPLIED
	>
	<!ATTLIST a
		ewd:lineID CDATA #IMPLIED
		ewd:groupID CDATA #IMPLIED
		ewd:figtype CDATA #IMPLIED
		ewd:code CDATA #IMPLIED
		ewd:figID CDATA #IMPLIED
		ewd:pinNo CDATA #IMPLIED
		ewd:comment CDATA #IMPLIED >
	<!ATTLIST g
		ewd:lineID CDATA #IMPLIED
		ewd:groupID CDATA #IMPLIED
		ewd:figtype CDATA #IMPLIED
		ewd:code CDATA #IMPLIED
		ewd:figID CDATA #IMPLIED
		ewd:pinNo CDATA #IMPLIED
		ewd:comment CDATA #IMPLIED >
	<!ATTLIST text
		ewd:textID CDATA #IMPLIED >
	<!ATTLIST title
		ewd:textID CDATA #IMPLIED >
]>
<!-- Generator: Shintec Hozumi YS   -->
<svg onload="call_execInitLoadProc_svg('system')" style="overflow:visible;  enable-background:new 0 0 819.236 710.000" viewBox="0 0 819.236 710.000" height="710.000" width="819.236" xml:space="preserve" ewd:ver="2.3.1.16" xmlns="&ns_svg;" xmlns:a="http://ns.adobe.com/AdobeSVGViewerExtensions/3.0/" xmlns:ewd="http://shcl.co.jp/ewd" xmlns:xlink="&ns_xlink;"><script type="text/javascript" xlink:href="../../../../../system/js/ewd/fig/svgfig.js" xmlns:xlink="http://www.w3.org/1999/xlink" />
<g id="ewd_top"><a ewd:figtype="rb" style="cursor:pointer;" ewd:code="FUSE26" ewd:figID="1"><path style="fill:#CCECF4;stroke:#000000; stroke-width:0; stroke-linecap:round;stroke-linejoin:round; " d=" M   208.22,    35.78  L   208.22,    78.27  L   233.71,    78.27  L   233.71,    35.78  L   208.22,    35.78 " /></a><a ewd:figtype="rb" style="cursor:pointer;" ewd:code="FUSE6" ewd:figID="2"><path style="fill:#CCECF4;stroke:#000000; stroke-width:0; stroke-linecap:round;stroke-linejoin:round; " d=" M    89.24,    35.78  L    89.24,    78.27  L   114.73,    78.27  L   114.73,    35.78  L    89.24,    35.78 " /></a><a ewd:figtype="conn" style="cursor:pointer;" ewd:code="I14" ewd:figID="3"><path style="fill:#CCECF4;stroke:#000000; stroke-width:1.133; stroke-linecap:round;stroke-linejoin:round; " d=" M   577.90,   290.74  L   764.87,   290.74  L   764.87,   248.24  L   577.90,   248.24  L   577.90,   290.74 " /><title ewd:textID="15">Rear Heater Blower Switch</title></a><a ewd:figtype="conn" style="cursor:pointer;" ewd:code="I105" ewd:figID="4"><path style="fill:#CCECF4;stroke:#000000; stroke-width:1.133; stroke-linecap:round;stroke-linejoin:round; " d=" M   271.95,   154.76  L   288.95,   154.76  L   288.95,   171.76  L   271.95,   171.76  L   271.95,   154.76 " /><title ewd:textID="9">No. 8 Junction Connector</title></a><a ewd:figtype="conn" style="cursor:pointer;" ewd:code="I95" ewd:figID="5"><path style="fill:#CCECF4;stroke:#000000; stroke-width:1.133; stroke-linecap:round;stroke-linejoin:round; " d=" M   169.97,   154.76  L   186.97,   154.76  L   186.97,   171.76  L   169.97,   171.76  L   169.97,   154.76 " /><title ewd:textID="11">No. 18 Junction Connector</title></a><a ewd:figtype="conn" style="cursor:pointer;" ewd:code="I108,I109" ewd:figID="6"><path style="fill:#CCECF4;stroke:#000000; stroke-width:1.133; stroke-linecap:round;stroke-linejoin:round; " d=" M    93.48,   154.76  L   110.48,   154.76  L   110.48,   171.76  L    93.48,   171.76  L    93.48,   154.76 " /><title ewd:textID="10">No. 13 Junction Connector</title></a><a ewd:figtype="rb" style="cursor:pointer;" ewd:code="2" ewd:figID="7"><path style="fill:#CCECF4;stroke:#000000; stroke-width:0; stroke-linecap:round;stroke-linejoin:round; " d=" M   212.46,   273.74  L   169.97,   273.74  L   169.97,   307.73  L   212.46,   307.73  L   212.46,   273.74 " /></a><a ewd:figtype="conn" style="cursor:pointer;" ewd:code="I97" ewd:figID="8"><path style="fill:#CCECF4;stroke:#000000; stroke-width:1.133; stroke-linecap:round;stroke-linejoin:round; " d=" M   781.87,   443.71  L   798.87,   443.71  L   798.87,   460.71  L   781.87,   460.71  L   781.87,   443.71 " /><title ewd:textID="12">No. 32 Junction Connector</title></a><a ewd:figtype="conn" style="cursor:pointer;" ewd:code="S5" ewd:figID="9"><path style="fill:#CCECF4;stroke:#000000; stroke-width:1.133; stroke-linecap:round;stroke-linejoin:round; " d=" M    84.99,   537.20  L   195.47,   537.20  L   195.47,   503.20  L    84.99,   503.20  L    84.99,   537.20 " /><title ewd:textID="14">Rear Heater Blower Resistor</title></a><a ewd:figtype="conn" style="cursor:pointer;" ewd:code="S10" ewd:figID="10"><path style="fill:#CCECF4;stroke:#000000; stroke-width:1.133; stroke-linecap:round;stroke-linejoin:round; " d=" M   246.46,   537.20  L   356.94,   537.20  L   356.94,   503.20  L   246.46,   503.20  L   246.46,   537.20 " /><title ewd:textID="15">Rear Heater Blower Switch</title></a><a ewd:figtype="fuse" style="cursor:pointer;" ewd:code="FUSE6" ewd:figID="27"><path style="&st7; stroke-width:0;" d=" M    89.24,    35.78  L    89.24,    78.27  L   114.73,    78.27  L   114.73,    35.78  L    89.24,    35.78 " /></a><a ewd:figtype="fuse" style="cursor:pointer;" ewd:code="FUSE26" ewd:figID="28"><path style="&st7; stroke-width:0;" d=" M   208.22,    35.78  L   208.22,    78.27  L   233.71,    78.27  L   233.71,    35.78  L   208.22,    35.78 " /></a><a ewd:comment="1,5" style="cursor:pointer;" ewd:lineID="1"><path style="stroke:#00A0C6;stroke-width: 5.10 ;&st6;" d=" M   101.98,   537.20  L   101.98,   656.18  L   696.88,   656.18  L   696.88,   458.73  " /><path style="stroke:#FFFFFF;stroke-width: 2.27 ;&st6;" d=" M   101.98,   537.20  L   101.98,   656.18  L   696.88,   656.18  L   696.88,   458.73  " /><path style="stroke:#FFE600;stroke-width: 1.13 ;&st6;" d=" M   101.98,   537.20  L   101.98,   656.18  L   696.88,   656.18  L   696.88,   458.73  " /></a><a ewd:comment="1,6" style="cursor:pointer;" ewd:lineID="2"><path style="stroke:#FFE600;stroke-width: 5.10 ;&st6;" d=" M   101.98,   537.20  L   101.98,   545.69  L    84.99,   562.69  L    84.99,   673.17  L   722.38,   673.17  L   722.38,   469.21  L   705.38,   469.21  L   696.88,   460.71  L   696.88,   458.44  " /></a><a style="cursor:pointer;" ewd:lineID="3"><path style="stroke:#F668B2;stroke-width: 5.10 ;&st6;" d=" M   101.98,   180.82  L   101.98,   205.75  L   169.97,   205.75  L   178.47,   214.25  L   178.47,   222.75  " /></a><a style="cursor:pointer;" ewd:lineID="4"><path style="stroke:#F668B2;stroke-width: 5.10 ;&st6;" d=" M   101.98,   145.69  L   101.98,   103.77  " /></a><a ewd:comment="2,5" style="cursor:pointer;" ewd:lineID="5"><path style="stroke:#00A0C6;stroke-width: 5.10 ;&st6;" d=" M   178.47,   537.20  L   178.47,   545.69  L   191.22,   571.19  L   263.46,   571.19  L   263.46,   537.20  " /><path style="stroke:#FFFFFF;stroke-width: 2.27 ;&st6;" d=" M   178.47,   537.20  L   178.47,   545.69  L   191.22,   571.19  L   263.46,   571.19  L   263.46,   537.20  " /><path style="stroke:#000000;stroke-width: 1.13 ;&st6;" d=" M   178.47,   537.20  L   178.47,   545.69  L   191.22,   571.19  L   263.46,   571.19  L   263.46,   537.20  " /></a><a ewd:comment="2,6" style="cursor:pointer;" ewd:lineID="6"><path style="stroke:#F668B2;stroke-width: 5.10 ;&st6;" d=" M   178.47,   537.20  L   178.47,   545.69  L   195.47,   554.19  L   254.96,   554.19  L   263.46,   545.69  L   263.46,   537.20  " /></a><a ewd:comment="1,5" style="cursor:pointer;" ewd:lineID="7"><path style="stroke:#00A0C6;stroke-width: 5.10 ;&st6;" d=" M   178.47,   537.20  L   178.47,   622.18  L   645.89,   622.18  L   645.89,   458.73  " /><path style="stroke:#FFFFFF;stroke-width: 2.27 ;&st6;" d=" M   178.47,   537.20  L   178.47,   622.18  L   645.89,   622.18  L   645.89,   458.73  " /><path style="stroke:#000000;stroke-width: 1.13 ;&st6;" d=" M   178.47,   537.20  L   178.47,   622.18  L   645.89,   622.18  L   645.89,   458.73  " /></a><a ewd:comment="5" style="cursor:pointer;" ewd:lineID="8"><path style="stroke:#7FC97F;stroke-width: 5.10 ;&st6;" d=" M   178.47,   503.20  L   178.47,   441.44  " /></a><a ewd:comment="6" style="cursor:pointer;" ewd:lineID="9"><path style="stroke:#99D9E8;stroke-width: 5.10 ;&st6;" d=" M   178.47,   441.44  L   178.47,   443.71  L   169.97,   452.21  L   152.97,   452.21  L   152.97,   486.20  L   169.97,   486.20  L   178.47,   494.70  L   178.47,   503.20  " /></a><a style="cursor:pointer;" ewd:lineID="10"><path style="stroke:#7FC97F;stroke-width: 5.10 ;&st6;" d=" M   178.47,   426.71  L   178.47,   341.73  " /></a><a style="cursor:pointer;" ewd:lineID="11"><path style="stroke:#F668B2;stroke-width: 5.10 ;&st6;" d=" M   178.47,   180.82  L   178.47,   222.75  " /></a><a style="cursor:pointer;" ewd:lineID="12"><path style="stroke:#F668B2;stroke-width: 5.10 ;&st6;" d=" M   178.47,   145.69  L   178.47,   120.77  L   110.48,   120.77  L   101.98,   112.27  L   101.98,   103.77  " /></a><a style="cursor:pointer;" ewd:lineID="13"><path style="stroke:#00A0C6;stroke-width: 5.10 ;&st6;" d=" M   220.96,   222.75  L   220.96,   171.76  " /></a><a style="cursor:pointer;" ewd:lineID="14"><path style="stroke:#00A0C6;stroke-width: 5.10 ;&st6;" d=" M   220.96,   154.76  L   220.96,   103.77  " /></a><a ewd:comment="2,5" style="cursor:pointer;" ewd:lineID="15"><path style="stroke:#000000;stroke-width: 5.10 ;&st6;" d=" M   263.46,   503.20  L   263.46,   441.73  " /><path style="stroke:#FFFFFF;stroke-width: 2.27 ;&st6;" d=" M   263.46,   503.20  L   263.46,   441.73  " /><path style="stroke:#00A0C6;stroke-width: 1.13 ;&st6;" d=" M   263.46,   503.20  L   263.46,   441.73  " /></a><a ewd:comment="2,6" style="cursor:pointer;" ewd:lineID="16"><path style="stroke:#56077D;stroke-width: 5.10 ;&st6;" d=" M   263.46,   441.44  L   263.46,   443.71  L   254.96,   452.21  L   237.96,   452.21  L   237.96,   486.20  L   254.96,   486.20  L   263.46,   494.70  L   263.46,   503.20  " /></a><a ewd:comment="2,7" style="cursor:pointer;" ewd:lineID="17"><path style="stroke:#000000;stroke-width: 5.10 ;&st6;" d=" M   263.46,   426.71  L   263.46,   392.72  L   229.46,   392.72  L   203.97,   350.23  L   203.97,   341.73  " /><path style="stroke:#FFFFFF;stroke-width: 2.27 ;&st6;" d=" M   263.46,   426.71  L   263.46,   392.72  L   229.46,   392.72  L   203.97,   350.23  L   203.97,   341.73  " /><path style="stroke:#00A0C6;stroke-width: 1.13 ;&st6;" d=" M   263.46,   426.71  L   263.46,   392.72  L   229.46,   392.72  L   203.97,   350.23  L   203.97,   341.73  " /></a><a ewd:comment="2,8" style="cursor:pointer;" ewd:lineID="18"><path style="stroke:#999999;stroke-width: 5.10 ;&st6;" d=" M   263.46,   426.71  L   263.46,   418.22  L   254.96,   409.72  L   203.97,   409.72  L   203.97,   341.73  " /></a><a style="cursor:pointer;" ewd:lineID="19"><path style="stroke:#00A0C6;stroke-width: 5.10 ;&st6;" d=" M   280.45,   180.82  L   280.45,   205.75  L   229.46,   205.75  L   220.96,   214.25  L   220.96,   222.75  " /></a><a style="cursor:pointer;" ewd:lineID="20"><path style="stroke:#00A0C6;stroke-width: 5.10 ;&st6;" d=" M   280.45,   145.69  L   280.45,   120.77  L   229.46,   120.77  L   220.96,   112.27  L   220.96,   103.77  " /></a><a ewd:comment="2,5" style="cursor:pointer;" ewd:lineID="21"><path style="stroke:#00A0C6;stroke-width: 5.10 ;&st6;" d=" M   339.94,   537.20  L   339.94,   545.69  L   322.95,   562.69  L   322.95,   588.19  L   135.98,   588.19  L   135.98,   571.19  L   101.98,   545.69  L   101.98,   537.20  " /><path style="stroke:#FFFFFF;stroke-width: 2.27 ;&st6;" d=" M   339.94,   537.20  L   339.94,   545.69  L   322.95,   562.69  L   322.95,   588.19  L   135.98,   588.19  L   135.98,   571.19  L   101.98,   545.69  L   101.98,   537.20  " /><path style="stroke:#FFE600;stroke-width: 1.13 ;&st6;" d=" M   339.94,   537.20  L   339.94,   545.69  L   322.95,   562.69  L   322.95,   588.19  L   135.98,   588.19  L   135.98,   571.19  L   101.98,   545.69  L   101.98,   537.20  " /></a><a ewd:comment="2,6" style="cursor:pointer;" ewd:lineID="22"><path style="stroke:#FFE600;stroke-width: 5.10 ;&st6;" d=" M   339.94,   537.20  L   339.94,   605.18  L   118.98,   605.18  L   118.98,   579.69  L   101.98,   545.69  L   101.98,   537.20  " /></a><a ewd:comment="2" style="cursor:pointer;" ewd:lineID="23"><path style="stroke:#000000;stroke-width: 5.10 ;&st6;" d=" M   339.94,   435.21  L   339.94,   503.20  " /><path style="stroke:#FFFFFF;stroke-width: 4.53 ;&st6;" d=" M   339.94,   435.21  L   339.94,   503.20  " /><path style="stroke:#000000;stroke-width: 1.13 ;&st6;" d=" M   339.94,   435.21  L   339.94,   503.20  " /></a><a ewd:comment="2,3" style="cursor:pointer;" ewd:lineID="24"><path style="stroke:#000000;stroke-width: 5.10 ;&st6;" d=" M   339.94,   418.22  L   339.94,   401.22  L   450.42,   401.22  L   450.42,   462.97  " /><path style="stroke:#FFFFFF;stroke-width: 4.53 ;&st6;" d=" M   339.94,   418.22  L   339.94,   401.22  L   450.42,   401.22  L   450.42,   462.97  " /><path style="stroke:#000000;stroke-width: 1.13 ;&st6;" d=" M   339.94,   418.22  L   339.94,   401.22  L   450.42,   401.22  L   450.42,   462.97  " /></a><a ewd:comment="2,4" style="cursor:pointer;" ewd:lineID="25"><path style="stroke:#000000;stroke-width: 5.10 ;&st6;" d=" M   407.93,   681.67  L   407.93,   537.20  " /><path style="stroke:#FFFFFF;stroke-width: 4.53 ;&st6;" d=" M   407.93,   681.67  L   407.93,   537.20  " /><path style="stroke:#000000;stroke-width: 1.13 ;&st6;" d=" M   407.93,   681.67  L   407.93,   537.20  " /></a><a ewd:comment="2,4" style="cursor:pointer;" ewd:lineID="26"><path style="stroke:#000000;stroke-width: 5.10 ;&st6;" d=" M   407.93,   520.20  L   407.93,   477.71  " /><path style="stroke:#FFFFFF;stroke-width: 4.53 ;&st6;" d=" M   407.93,   520.20  L   407.93,   477.71  " /><path style="stroke:#000000;stroke-width: 1.13 ;&st6;" d=" M   407.93,   520.20  L   407.93,   477.71  " /></a><a ewd:comment="2,4" style="cursor:pointer;" ewd:lineID="27"><path style="stroke:#000000;stroke-width: 5.10 ;&st6;" d=" M   407.93,   462.97  L   407.93,   426.71  L   348.44,   426.71  " /><path style="stroke:#FFFFFF;stroke-width: 4.53 ;&st6;" d=" M   407.93,   462.97  L   407.93,   426.71  L   348.44,   426.71  " /><path style="stroke:#000000;stroke-width: 1.13 ;&st6;" d=" M   407.93,   462.97  L   407.93,   426.71  L   348.44,   426.71  " /></a><a ewd:comment="2,3" style="cursor:pointer;" ewd:lineID="28"><path style="stroke:#000000;stroke-width: 5.10 ;&st6;" d=" M   450.42,   477.71  L   450.42,   681.67  " /><path style="stroke:#FFFFFF;stroke-width: 4.53 ;&st6;" d=" M   450.42,   477.71  L   450.42,   681.67  " /><path style="stroke:#000000;stroke-width: 1.13 ;&st6;" d=" M   450.42,   477.71  L   450.42,   681.67  " /></a><a ewd:comment="1,7" style="cursor:pointer;" ewd:lineID="29"><path style="stroke:#000000;stroke-width: 5.10 ;&st6;" d=" M   594.90,   290.74  L   594.90,   375.72  L   237.96,   375.72  L   203.97,   350.23  L   203.97,   341.73  " /><path style="stroke:#FFFFFF;stroke-width: 2.27 ;&st6;" d=" M   594.90,   290.74  L   594.90,   375.72  L   237.96,   375.72  L   203.97,   350.23  L   203.97,   341.73  " /><path style="stroke:#00A0C6;stroke-width: 1.13 ;&st6;" d=" M   594.90,   290.74  L   594.90,   375.72  L   237.96,   375.72  L   203.97,   350.23  L   203.97,   341.73  " /></a><a ewd:comment="1,8" style="cursor:pointer;" ewd:lineID="30"><path style="stroke:#999999;stroke-width: 5.10 ;&st6;" d=" M   594.90,   290.74  L   594.90,   299.24  L   577.90,   316.23  L   577.90,   358.73  L   246.46,   358.73  L   203.97,   350.23  L   203.97,   341.73  " /></a><a ewd:comment="1,6" style="cursor:pointer;" ewd:lineID="31"><path style="stroke:#F668B2;stroke-width: 5.10 ;&st6;" d=" M   645.89,   458.44  L   645.89,   460.71  L   654.39,   469.21  L   671.39,   469.21  L   671.39,   639.18  L   161.47,   639.18  L   161.47,   562.69  L   178.47,   545.69  L   178.47,   537.20  " /></a><a ewd:comment="1,8" style="cursor:pointer;" ewd:lineID="32"><path style="stroke:#000000;stroke-width: 5.10 ;&st6;" d=" M   645.89,   290.74  L   645.89,   299.24  L   654.39,   307.73  L   671.39,   307.73  L   671.39,   426.71  L   654.39,   426.71  L   645.89,   435.21  L   645.89,   443.71  " /></a><a ewd:comment="1,7" style="cursor:pointer;" ewd:lineID="33"><path style="stroke:#00A0C6;stroke-width: 5.10 ;&st6;" d=" M   645.89,   290.74  L   645.89,   443.71  " /><path style="stroke:#FFFFFF;stroke-width: 2.27 ;&st6;" d=" M   645.89,   290.74  L   645.89,   443.71  " /><path style="stroke:#000000;stroke-width: 1.13 ;&st6;" d=" M   645.89,   290.74  L   645.89,   443.71  " /></a><a ewd:comment="1,7" style="cursor:pointer;" ewd:lineID="34"><path style="stroke:#00A0C6;stroke-width: 5.10 ;&st6;" d=" M   696.88,   290.74  L   696.88,   443.71  " /><path style="stroke:#FFFFFF;stroke-width: 2.27 ;&st6;" d=" M   696.88,   290.74  L   696.88,   443.71  " /><path style="stroke:#FFE600;stroke-width: 1.13 ;&st6;" d=" M   696.88,   290.74  L   696.88,   443.71  " /></a><a ewd:comment="1,8" style="cursor:pointer;" ewd:lineID="35"><path style="stroke:#FFE600;stroke-width: 5.10 ;&st6;" d=" M   696.88,   290.74  L   696.88,   299.24  L   705.38,   307.73  L   722.38,   307.73  L   722.38,   426.71  L   705.38,   426.71  L   696.88,   435.21  L   696.88,   443.71  " /></a><a ewd:comment="1" style="cursor:pointer;" ewd:lineID="36"><path style="stroke:#000000;stroke-width: 5.10 ;&st6;" d=" M   747.88,   460.71  L   747.88,   681.67  " /><path style="stroke:#FFFFFF;stroke-width: 4.53 ;&st6;" d=" M   747.88,   460.71  L   747.88,   681.67  " /><path style="stroke:#000000;stroke-width: 1.13 ;&st6;" d=" M   747.88,   460.71  L   747.88,   681.67  " /></a><a ewd:comment="1" style="cursor:pointer;" ewd:lineID="37"><path style="stroke:#000000;stroke-width: 5.10 ;&st6;" d=" M   747.88,   290.74  L   747.88,   443.71  " /><path style="stroke:#FFFFFF;stroke-width: 4.53 ;&st6;" d=" M   747.88,   290.74  L   747.88,   443.71  " /><path style="stroke:#000000;stroke-width: 1.13 ;&st6;" d=" M   747.88,   290.74  L   747.88,   443.71  " /></a><a ewd:comment="1" style="cursor:pointer;" ewd:lineID="38"><path style="stroke:#000000;stroke-width: 5.10 ;&st6;" d=" M   747.88,   290.74  L   747.88,   299.24  L   756.37,   307.73  L   790.37,   307.73  L   790.37,   443.71  " /><path style="stroke:#FFFFFF;stroke-width: 4.53 ;&st6;" d=" M   747.88,   290.74  L   747.88,   299.24  L   756.37,   307.73  L   790.37,   307.73  L   790.37,   443.71  " /><path style="stroke:#000000;stroke-width: 1.13 ;&st6;" d=" M   747.88,   290.74  L   747.88,   299.24  L   756.37,   307.73  L   790.37,   307.73  L   790.37,   443.71  " /></a><a ewd:comment="1" style="cursor:pointer;" ewd:lineID="39"><path style="stroke:#000000;stroke-width: 5.10 ;&st6;" d=" M   790.37,   460.71  L   790.37,   664.67  L   756.37,   664.67  L   747.88,   673.17  L   747.88,   681.67  " /><path style="stroke:#FFFFFF;stroke-width: 4.53 ;&st6;" d=" M   790.37,   460.71  L   790.37,   664.67  L   756.37,   664.67  L   747.88,   673.17  L   747.88,   681.67  " /><path style="stroke:#000000;stroke-width: 1.13 ;&st6;" d=" M   790.37,   460.71  L   790.37,   664.67  L   756.37,   664.67  L   747.88,   673.17  L   747.88,   681.67  " /></a><a ewd:figtype="w2w" style="cursor:pointer;" ewd:pinNo="6" ewd:code="IS2" ewd:figID="14"><path style="&st2;" d=" M   186.97,   426.71  L   169.97,   426.71  L   169.97,   435.21  L   186.97,   435.21  L   186.97,   426.71 " /><text style="&st8;" transform="matrix(&st16;  174.11  433.08 )"><tspan x="0" style="&st18;" y="0">IS2</tspan></text></a><a ewd:figtype="w2w" style="cursor:pointer;" ewd:pinNo="7" ewd:code="IS3" ewd:figID="15"><path style="&st2;" d=" M   271.95,   426.71  L   254.96,   426.71  L   254.96,   435.21  L   271.95,   435.21  L   271.95,   426.71 " /><text style="&st8;" transform="matrix(&st16;  259.09  433.08 )"><tspan x="0" style="&st18;" y="0">IS3</tspan></text></a><a ewd:figtype="w2w" style="cursor:pointer;" ewd:pinNo="13" ewd:code="TS2" ewd:figID="16"><path style="&st2;" d=" M   416.43,   469.21  L   399.43,   469.21  L   399.43,   477.71  L   416.43,   477.71  L   416.43,   469.21 " /><text style="&st8;" transform="matrix(&st16;  402.59  475.58 )"><tspan x="0" style="&st18;" y="0">TS2</tspan></text></a><a ewd:figtype="w2w" style="cursor:pointer;" ewd:pinNo="11" ewd:code="TS2" ewd:figID="17"><path style="&st2;" d=" M   458.92,   469.21  L   441.93,   469.21  L   441.93,   477.71  L   458.92,   477.71  L   458.92,   469.21 " /><text style="&st8;" transform="matrix(&st16;  445.08  475.58 )"><tspan x="0" style="&st18;" y="0">TS2</tspan></text></a><a ewd:figtype="w2w" style="cursor:pointer;" ewd:pinNo="2" ewd:code="IS2" ewd:figID="18"><path style="&st2;" d=" M   654.39,   443.71  L   637.39,   443.71  L   637.39,   452.21  L   654.39,   452.21  L   654.39,   443.71 " /><text style="&st8;" transform="matrix(&st16;  641.53  450.08 )"><tspan x="0" style="&st18;" y="0">IS2</tspan></text></a><a ewd:figtype="w2w" style="cursor:pointer;" ewd:pinNo="3" ewd:code="IS2" ewd:figID="19"><path style="&st2;" d=" M   705.38,   443.71  L   688.38,   443.71  L   688.38,   452.21  L   705.38,   452.21  L   705.38,   443.71 " /><text style="&st8;" transform="matrix(&st16;  692.52  450.08 )"><tspan x="0" style="&st18;" y="0">IS2</tspan></text></a><a ewd:figtype="gp" style="cursor:pointer;" ewd:code="TA" ewd:figID="20"><path style="&st2;" d=" M   397.31,   681.67  L   418.56,   681.67  L   407.93,   697.25  L   397.31,   681.67 " /><text style="&st8;" transform="matrix(&st16;  404.21  689.46 )"><tspan x="0" style="&st18;" y="0">TA</tspan></text></a><a ewd:figtype="gp" style="cursor:pointer;" ewd:code="TB" ewd:figID="21"><path style="&st2;" d=" M   439.80,   681.67  L   461.05,   681.67  L   450.42,   697.25  L   439.80,   681.67 " /><text style="&st8;" transform="matrix(&st16;  446.7  689.46 )"><tspan x="0" style="&st18;" y="0">TB</tspan></text></a><a ewd:figtype="gp" style="cursor:pointer;" ewd:code="IA" ewd:figID="22"><path style="&st2;" d=" M   737.25,   681.67  L   758.50,   681.67  L   747.88,   697.25  L   737.25,   681.67 " /><text style="&st8;" transform="matrix(&st16;  745.13  689.46 )"><tspan x="0" style="&st18;" y="0">IA</tspan></text></a><a ewd:figtype="sp" style="cursor:pointer;" ewd:code="SP69" ewd:figID="23"><path style="&st2;" d=" M   216.71,   154.76  L   225.21,   154.76  L   229.46,   159.01  L   229.46,   167.51  L   225.21,   171.76  L   216.71,   171.76  L   212.46,   167.51  L   212.46,   159.01  L   216.71,   154.76 " /></a><a ewd:figtype="sp" style="cursor:pointer;" ewd:code="SP100" ewd:figID="24"><path style="&st2;" d=" M   335.69,   418.22  L   344.19,   418.22  L   348.44,   422.46  L   348.44,   430.96  L   344.19,   435.21  L   335.69,   435.21  L   331.44,   430.96  L   331.44,   422.46  L   335.69,   418.22 " /></a><a ewd:figtype="sp" style="cursor:pointer;" ewd:code="SP107" ewd:figID="25"><path style="&st2;" d=" M   403.68,   520.20  L   412.18,   520.20  L   416.43,   524.45  L   416.43,   532.95  L   412.18,   537.20  L   403.68,   537.20  L   399.43,   532.95  L   399.43,   524.45  L   403.68,   520.20 " /></a><a ewd:figtype="sp" style="cursor:pointer;" ewd:code="SP65" ewd:figID="26"><path style="&st2;" d=" M   743.63,   443.71  L   752.12,   443.71  L   756.37,   447.96  L   756.37,   456.46  L   752.12,   460.71  L   743.63,   460.71  L   739.38,   456.46  L   739.38,   447.96  L   743.63,   443.71 "/></a></g></svg>
