<?xml version="1.0" encoding="UTF-8"?>
<!DOCTYPE svg PUBLIC "-//W3C//DTD SVG 1.0//EN" "http://www.w3.org/TR/2001/REC-SVG-20010904/DTD/svg10.dtd"[
	<!ENTITY ns_flows "http://ns.adobe.com/Flows/1.0/">
	<!ENTITY ns_svg "http://www.w3.org/2000/svg">
	<!ENTITY ns_xlink "http://www.w3.org/1999/xlink">
	<!ENTITY st0 "font-size:7px;font-family:'MS-PGothic';adobe-font-script:japanese;">
	<!ENTITY st1 "font-size:6px;font-family:'ArialMT';">
	<!-- White fill  -->
	<!ENTITY st2 "fill:#FFFFFF;stroke:#000000; stroke-width:1.41;stroke-linecap:round;stroke-linejoin:round;">
	<!-- Yellow fill  -->
	<!ENTITY st3 "fill:#FFFFCC;stroke:#FFFFCC; stroke-width:0.1;stroke-linecap:round;stroke-linejoin:round;">
	<!-- Gray fill  -->
	<!ENTITY st4 "fill:#CCCCCC;stroke:#CCCCCC; stroke-width:0.1;stroke-linecap:round;stroke-linejoin:round;">
	<!-- Light-blue fill -->
	<!ENTITY st5 "fill:#CCECF4;stroke:#000000; stroke-width:1.133;stroke-linecap:round;stroke-linejoin:round;">
	<!ENTITY st6 "fill:none;stroke-linecap:butt; stroke-linejoin:round;">
	<!ENTITY st7 "fill:none;stroke:#000000;stroke-linecap:round;stroke-linejoin:round;">
	<!ENTITY st8 "enable-background:new    ;">
	<!-- Black fill -->
	<!ENTITY st9 "fill:#000000;stroke:#000000; stroke-linecap:round;stroke-linejoin:round;">
	<!-- SRS note   -->
	<!ENTITY st10 "font-size:9px;font-family:'ArialMT';">
	<!ENTITY st11 "font-size:9px;font-family:'Svg Symbol';">
	<!ENTITY st12 "font-size:6px;font-family:'Svg Symbol';">
	<!ENTITY st13 "fill:none;stroke:#ff0000;stroke-linecap:round;stroke-linejoin:round;">
	<!-- Yellow fill  -->
	<!ENTITY st14 "fill:#FFFF00;stroke:#FFFF00; stroke-width:0.1;stroke-linecap:round;stroke-linejoin:round;">
	<!ENTITY st15 "font-size:6px;font-family:'MS-PGothic';adobe-font-script:japanese;">
	<!ENTITY st16 "1.00 0.00 0.00 1.00">
	<!ENTITY st17 "0.00 -1.00 1.00 0.00">
	<!ENTITY st18 "font-size:6px;font-family:'Arial';">
	<!ENTITY st19 "font-size:9px;font-family:'Arial';">
	<!ENTITY st20 "font-size:6px;font-family:'MS-PGothic','MS PGothic';adobe-font-script:japanese;">
	<!ENTITY st21 "font-size:7px;font-family:'MS-PGothic','MS PGothic';adobe-font-script:japanese;">
	<!ATTLIST svg
		xmlns:ewd CDATA #FIXED "http://shcl.co.jp/ewd"
		xmlns:a CDATA #FIXED "http://ns.adobe.com/AdobeSVGViewerExtensions/3.0/"
		ewd:ver CDATA #IMPLIED
	>
	<!ATTLIST a
		ewd:lineID CDATA #IMPLIED
		ewd:groupID CDATA #IMPLIED
		ewd:figtype CDATA #IMPLIED
		ewd:code CDATA #IMPLIED
		ewd:figID CDATA #IMPLIED
		ewd:pinNo CDATA #IMPLIED
		ewd:comment CDATA #IMPLIED >
	<!ATTLIST g
		ewd:lineID CDATA #IMPLIED
		ewd:groupID CDATA #IMPLIED
		ewd:figtype CDATA #IMPLIED
		ewd:code CDATA #IMPLIED
		ewd:figID CDATA #IMPLIED
		ewd:pinNo CDATA #IMPLIED
		ewd:comment CDATA #IMPLIED >
	<!ATTLIST text
		ewd:textID CDATA #IMPLIED >
	<!ATTLIST title
		ewd:textID CDATA #IMPLIED >
]>
<!-- Generator: Shintec Hozumi YS   -->
<svg onload="call_execInitLoadProc_svg('system')" style="overflow:visible;  enable-background:new 0 0 819.236 710.000" viewBox="0 0 819.236 710.000" height="710.000" width="819.236" xml:space="preserve" ewd:ver="2.3.1.16" xmlns="&ns_svg;" xmlns:a="http://ns.adobe.com/AdobeSVGViewerExtensions/3.0/" xmlns:ewd="http://shcl.co.jp/ewd" xmlns:xlink="&ns_xlink;">
	<script type="text/javascript" xlink:href="../../../../../system/js/ewd/fig/svgfig.js"/>
<g id="ewd_top">
	<a ewd:figtype="rb" style="cursor:pointer;" ewd:code="FUSE26" ewd:figID="1">
		<path style="fill:#CCECF4;stroke:#000000; stroke-width:0; stroke-linecap:round;stroke-linejoin:round; " d=" M   208.22,    35.78  L   208.22,    78.27  L   233.71,    78.27  L   233.71,    35.78  L   208.22,    35.78 "/>
	</a>
	<a ewd:figtype="rb" style="cursor:pointer;" ewd:code="FUSE6" ewd:figID="2">
		<path style="fill:#CCECF4;stroke:#000000; stroke-width:0; stroke-linecap:round;stroke-linejoin:round; " d=" M    89.24,    35.78  L    89.24,    78.27  L   114.73,    78.27  L   114.73,    35.78  L    89.24,    35.78 "/>
	</a>
	<a ewd:figtype="conn" style="cursor:pointer;" ewd:code="I14" ewd:figID="3">
		<path style="fill:#CCECF4;stroke:#000000; stroke-width:1.133; stroke-linecap:round;stroke-linejoin:round; " d=" M   577.90,   290.74  L   764.87,   290.74  L   764.87,   248.24  L   577.90,   248.24  L   577.90,   290.74 "/>
		<title ewd:textID="15">Rear Heater Blower Switch</title>
	</a>
	<a ewd:figtype="conn" style="cursor:pointer;" ewd:code="I105" ewd:figID="4">
		<path style="fill:#CCECF4;stroke:#000000; stroke-width:1.133; stroke-linecap:round;stroke-linejoin:round; " d=" M   271.95,   154.76  L   288.95,   154.76  L   288.95,   171.76  L   271.95,   171.76  L   271.95,   154.76 "/>
		<title ewd:textID="9">No. 8 Junction Connector</title>
	</a>
	<a ewd:figtype="conn" style="cursor:pointer;" ewd:code="I95" ewd:figID="5">
		<path style="fill:#CCECF4;stroke:#000000; stroke-width:1.133; stroke-linecap:round;stroke-linejoin:round; " d=" M   169.97,   154.76  L   186.97,   154.76  L   186.97,   171.76  L   169.97,   171.76  L   169.97,   154.76 "/>
		<title ewd:textID="11">No. 18 Junction Connector</title>
	</a>
	<a ewd:figtype="conn" style="cursor:pointer;" ewd:code="I108,I109" ewd:figID="6">
		<path style="fill:#CCECF4;stroke:#000000; stroke-width:1.133; stroke-linecap:round;stroke-linejoin:round; " d=" M    93.48,   154.76  L   110.48,   154.76  L   110.48,   171.76  L    93.48,   171.76  L    93.48,   154.76 "/>
		<title ewd:textID="10">No. 13 Junction Connector</title>
	</a>
	<a ewd:figtype="rb" style="cursor:pointer;" ewd:code="2" ewd:figID="7">
		<path style="fill:#CCECF4;stroke:#000000; stroke-width:0; stroke-linecap:round;stroke-linejoin:round; " d=" M   212.46,   273.74  L   169.97,   273.74  L   169.97,   307.73  L   212.46,   307.73  L   212.46,   273.74 "/>
	</a>
	<a ewd:figtype="conn" style="cursor:pointer;" ewd:code="I97" ewd:figID="8">
		<path style="fill:#CCECF4;stroke:#000000; stroke-width:1.133; stroke-linecap:round;stroke-linejoin:round; " d=" M   781.87,   443.71  L   798.87,   443.71  L   798.87,   460.71  L   781.87,   460.71  L   781.87,   443.71 "/>
		<title ewd:textID="12">No. 32 Junction Connector</title>
	</a>
	<a ewd:figtype="conn" style="cursor:pointer;" ewd:code="S5" ewd:figID="9">
		<path style="fill:#CCECF4;stroke:#000000; stroke-width:1.133; stroke-linecap:round;stroke-linejoin:round; " d=" M    84.99,   537.20  L   195.47,   537.20  L   195.47,   503.20  L    84.99,   503.20  L    84.99,   537.20 "/>
		<title ewd:textID="14">Rear Heater Blower Resistor</title>
	</a>
	<a ewd:figtype="conn" style="cursor:pointer;" ewd:code="S10" ewd:figID="10">
		<path style="fill:#CCECF4;stroke:#000000; stroke-width:1.133; stroke-linecap:round;stroke-linejoin:round; " d=" M   246.46,   537.20  L   356.94,   537.20  L   356.94,   503.20  L   246.46,   503.20  L   246.46,   537.20 "/>
		<title ewd:textID="15">Rear Heater Blower Switch</title>
	</a>
	<a ewd:figtype="fuse" style="cursor:pointer;" ewd:code="FUSE6" ewd:figID="27">
		<path style="&st7; stroke-width:0;" d=" M    89.24,    35.78  L    89.24,    78.27  L   114.73,    78.27  L   114.73,    35.78  L    89.24,    35.78 "/>
	</a>
	<a ewd:figtype="fuse" style="cursor:pointer;" ewd:code="FUSE26" ewd:figID="28">
		<path style="&st7; stroke-width:0;" d=" M   208.22,    35.78  L   208.22,    78.27  L   233.71,    78.27  L   233.71,    35.78  L   208.22,    35.78 "/>
	</a>
	<a ewd:comment="1,5" style="cursor:pointer;" ewd:lineID="1">
		<path style="stroke:#00A0C6;stroke-width: 5.10 ;&st6;" d=" M   101.98,   537.20  L   101.98,   656.18  L   696.88,   656.18  L   696.88,   458.73  "/>
		<path style="stroke:#FFFFFF;stroke-width: 2.27 ;&st6;" d=" M   101.98,   537.20  L   101.98,   656.18  L   696.88,   656.18  L   696.88,   458.73  "/>
		<path style="stroke:#FFE600;stroke-width: 1.13 ;&st6;" d=" M   101.98,   537.20  L   101.98,   656.18  L   696.88,   656.18  L   696.88,   458.73  "/>
	</a>
	<a ewd:comment="1,6" style="cursor:pointer;" ewd:lineID="2">
		<path style="stroke:#FFE600;stroke-width: 5.10 ;&st6;" d=" M   101.98,   537.20  L   101.98,   545.69  L    84.99,   562.69  L    84.99,   673.17  L   722.38,   673.17  L   722.38,   469.21  L   705.38,   469.21  L   696.88,   460.71  L   696.88,   458.44  "/>
	</a>
	<a style="cursor:pointer;" ewd:lineID="3">
		<path style="stroke:#F668B2;stroke-width: 5.10 ;&st6;" d=" M   101.98,   180.82  L   101.98,   205.75  L   169.97,   205.75  L   178.47,   214.25  L   178.47,   222.75  "/>
	</a>
	<a style="cursor:pointer;" ewd:lineID="4">
		<path style="stroke:#F668B2;stroke-width: 5.10 ;&st6;" d=" M   101.98,   145.69  L   101.98,   103.77  "/>
	</a>
	<a ewd:comment="2,5" style="cursor:pointer;" ewd:lineID="5">
		<path style="stroke:#00A0C6;stroke-width: 5.10 ;&st6;" d=" M   178.47,   537.20  L   178.47,   545.69  L   191.22,   571.19  L   263.46,   571.19  L   263.46,   537.20  "/>
		<path style="stroke:#FFFFFF;stroke-width: 2.27 ;&st6;" d=" M   178.47,   537.20  L   178.47,   545.69  L   191.22,   571.19  L   263.46,   571.19  L   263.46,   537.20  "/>
		<path style="stroke:#000000;stroke-width: 1.13 ;&st6;" d=" M   178.47,   537.20  L   178.47,   545.69  L   191.22,   571.19  L   263.46,   571.19  L   263.46,   537.20  "/>
	</a>
	<a ewd:comment="2,6" style="cursor:pointer;" ewd:lineID="6">
		<path style="stroke:#F668B2;stroke-width: 5.10 ;&st6;" d=" M   178.47,   537.20  L   178.47,   545.69  L   195.47,   554.19  L   254.96,   554.19  L   263.46,   545.69  L   263.46,   537.20  "/>
	</a>
	<a ewd:comment="1,5" style="cursor:pointer;" ewd:lineID="7">
		<path style="stroke:#00A0C6;stroke-width: 5.10 ;&st6;" d=" M   178.47,   537.20  L   178.47,   622.18  L   645.89,   622.18  L   645.89,   458.73  "/>
		<path style="stroke:#FFFFFF;stroke-width: 2.27 ;&st6;" d=" M   178.47,   537.20  L   178.47,   622.18  L   645.89,   622.18  L   645.89,   458.73  "/>
		<path style="stroke:#000000;stroke-width: 1.13 ;&st6;" d=" M   178.47,   537.20  L   178.47,   622.18  L   645.89,   622.18  L   645.89,   458.73  "/>
	</a>
	<a ewd:comment="5" style="cursor:pointer;" ewd:lineID="8">
		<path style="stroke:#7FC97F;stroke-width: 5.10 ;&st6;" d=" M   178.47,   503.20  L   178.47,   441.44  "/>
	</a>
	<a ewd:comment="6" style="cursor:pointer;" ewd:lineID="9">
		<path style="stroke:#99D9E8;stroke-width: 5.10 ;&st6;" d=" M   178.47,   441.44  L   178.47,   443.71  L   169.97,   452.21  L   152.97,   452.21  L   152.97,   486.20  L   169.97,   486.20  L   178.47,   494.70  L   178.47,   503.20  "/>
	</a>
	<a style="cursor:pointer;" ewd:lineID="10">
		<path style="stroke:#7FC97F;stroke-width: 5.10 ;&st6;" d=" M   178.47,   426.71  L   178.47,   341.73  "/>
	</a>
	<a style="cursor:pointer;" ewd:lineID="11">
		<path style="stroke:#F668B2;stroke-width: 5.10 ;&st6;" d=" M   178.47,   180.82  L   178.47,   222.75  "/>
	</a>
	<a style="cursor:pointer;" ewd:lineID="12">
		<path style="stroke:#F668B2;stroke-width: 5.10 ;&st6;" d=" M   178.47,   145.69  L   178.47,   120.77  L   110.48,   120.77  L   101.98,   112.27  L   101.98,   103.77  "/>
	</a>
	<a style="cursor:pointer;" ewd:lineID="13">
		<path style="stroke:#00A0C6;stroke-width: 5.10 ;&st6;" d=" M   220.96,   222.75  L   220.96,   171.76  "/>
	</a>
	<a style="cursor:pointer;" ewd:lineID="14">
		<path style="stroke:#00A0C6;stroke-width: 5.10 ;&st6;" d=" M   220.96,   154.76  L   220.96,   103.77  "/>
	</a>
	<a ewd:comment="2,5" style="cursor:pointer;" ewd:lineID="15">
		<path style="stroke:#000000;stroke-width: 5.10 ;&st6;" d=" M   263.46,   503.20  L   263.46,   441.73  "/>
		<path style="stroke:#FFFFFF;stroke-width: 2.27 ;&st6;" d=" M   263.46,   503.20  L   263.46,   441.73  "/>
		<path style="stroke:#00A0C6;stroke-width: 1.13 ;&st6;" d=" M   263.46,   503.20  L   263.46,   441.73  "/>
	</a>
	<a ewd:comment="2,6" style="cursor:pointer;" ewd:lineID="16">
		<path style="stroke:#56077D;stroke-width: 5.10 ;&st6;" d=" M   263.46,   441.44  L   263.46,   443.71  L   254.96,   452.21  L   237.96,   452.21  L   237.96,   486.20  L   254.96,   486.20  L   263.46,   494.70  L   263.46,   503.20  "/>
	</a>
	<a ewd:comment="2,7" style="cursor:pointer;" ewd:lineID="17">
		<path style="stroke:#000000;stroke-width: 5.10 ;&st6;" d=" M   263.46,   426.71  L   263.46,   392.72  L   229.46,   392.72  L   203.97,   350.23  L   203.97,   341.73  "/>
		<path style="stroke:#FFFFFF;stroke-width: 2.27 ;&st6;" d=" M   263.46,   426.71  L   263.46,   392.72  L   229.46,   392.72  L   203.97,   350.23  L   203.97,   341.73  "/>
		<path style="stroke:#00A0C6;stroke-width: 1.13 ;&st6;" d=" M   263.46,   426.71  L   263.46,   392.72  L   229.46,   392.72  L   203.97,   350.23  L   203.97,   341.73  "/>
	</a>
	<a ewd:comment="2,8" style="cursor:pointer;" ewd:lineID="18">
		<path style="stroke:#999999;stroke-width: 5.10 ;&st6;" d=" M   263.46,   426.71  L   263.46,   418.22  L   254.96,   409.72  L   203.97,   409.72  L   203.97,   341.73  "/>
	</a>
	<a style="cursor:pointer;" ewd:lineID="19">
		<path style="stroke:#00A0C6;stroke-width: 5.10 ;&st6;" d=" M   280.45,   180.82  L   280.45,   205.75  L   229.46,   205.75  L   220.96,   214.25  L   220.96,   222.75  "/>
	</a>
	<a style="cursor:pointer;" ewd:lineID="20">
		<path style="stroke:#00A0C6;stroke-width: 5.10 ;&st6;" d=" M   280.45,   145.69  L   280.45,   120.77  L   229.46,   120.77  L   220.96,   112.27  L   220.96,   103.77  "/>
	</a>
	<a ewd:comment="2,5" style="cursor:pointer;" ewd:lineID="21">
		<path style="stroke:#00A0C6;stroke-width: 5.10 ;&st6;" d=" M   339.94,   537.20  L   339.94,   545.69  L   322.95,   562.69  L   322.95,   588.19  L   135.98,   588.19  L   135.98,   571.19  L   101.98,   545.69  L   101.98,   537.20  "/>
		<path style="stroke:#FFFFFF;stroke-width: 2.27 ;&st6;" d=" M   339.94,   537.20  L   339.94,   545.69  L   322.95,   562.69  L   322.95,   588.19  L   135.98,   588.19  L   135.98,   571.19  L   101.98,   545.69  L   101.98,   537.20  "/>
		<path style="stroke:#FFE600;stroke-width: 1.13 ;&st6;" d=" M   339.94,   537.20  L   339.94,   545.69  L   322.95,   562.69  L   322.95,   588.19  L   135.98,   588.19  L   135.98,   571.19  L   101.98,   545.69  L   101.98,   537.20  "/>
	</a>
	<a ewd:comment="2,6" style="cursor:pointer;" ewd:lineID="22">
		<path style="stroke:#FFE600;stroke-width: 5.10 ;&st6;" d=" M   339.94,   537.20  L   339.94,   605.18  L   118.98,   605.18  L   118.98,   579.69  L   101.98,   545.69  L   101.98,   537.20  "/>
	</a>
	<a ewd:comment="2" style="cursor:pointer;" ewd:lineID="23">
		<path style="stroke:#000000;stroke-width: 5.10 ;&st6;" d=" M   339.94,   435.21  L   339.94,   503.20  "/>
		<path style="stroke:#FFFFFF;stroke-width: 4.53 ;&st6;" d=" M   339.94,   435.21  L   339.94,   503.20  "/>
		<path style="stroke:#000000;stroke-width: 1.13 ;&st6;" d=" M   339.94,   435.21  L   339.94,   503.20  "/>
	</a>
	<a ewd:comment="2,3" style="cursor:pointer;" ewd:lineID="24">
		<path style="stroke:#000000;stroke-width: 5.10 ;&st6;" d=" M   339.94,   418.22  L   339.94,   401.22  L   450.42,   401.22  L   450.42,   462.97  "/>
		<path style="stroke:#FFFFFF;stroke-width: 4.53 ;&st6;" d=" M   339.94,   418.22  L   339.94,   401.22  L   450.42,   401.22  L   450.42,   462.97  "/>
		<path style="stroke:#000000;stroke-width: 1.13 ;&st6;" d=" M   339.94,   418.22  L   339.94,   401.22  L   450.42,   401.22  L   450.42,   462.97  "/>
	</a>
	<a ewd:comment="2,4" style="cursor:pointer;" ewd:lineID="25">
		<path style="stroke:#000000;stroke-width: 5.10 ;&st6;" d=" M   407.93,   681.67  L   407.93,   537.20  "/>
		<path style="stroke:#FFFFFF;stroke-width: 4.53 ;&st6;" d=" M   407.93,   681.67  L   407.93,   537.20  "/>
		<path style="stroke:#000000;stroke-width: 1.13 ;&st6;" d=" M   407.93,   681.67  L   407.93,   537.20  "/>
	</a>
	<a ewd:comment="2,4" style="cursor:pointer;" ewd:lineID="26">
		<path style="stroke:#000000;stroke-width: 5.10 ;&st6;" d=" M   407.93,   520.20  L   407.93,   477.71  "/>
		<path style="stroke:#FFFFFF;stroke-width: 4.53 ;&st6;" d=" M   407.93,   520.20  L   407.93,   477.71  "/>
		<path style="stroke:#000000;stroke-width: 1.13 ;&st6;" d=" M   407.93,   520.20  L   407.93,   477.71  "/>
	</a>
	<a ewd:comment="2,4" style="cursor:pointer;" ewd:lineID="27">
		<path style="stroke:#000000;stroke-width: 5.10 ;&st6;" d=" M   407.93,   462.97  L   407.93,   426.71  L   348.44,   426.71  "/>
		<path style="stroke:#FFFFFF;stroke-width: 4.53 ;&st6;" d=" M   407.93,   462.97  L   407.93,   426.71  L   348.44,   426.71  "/>
		<path style="stroke:#000000;stroke-width: 1.13 ;&st6;" d=" M   407.93,   462.97  L   407.93,   426.71  L   348.44,   426.71  "/>
	</a>
	<a ewd:comment="2,3" style="cursor:pointer;" ewd:lineID="28">
		<path style="stroke:#000000;stroke-width: 5.10 ;&st6;" d=" M   450.42,   477.71  L   450.42,   681.67  "/>
		<path style="stroke:#FFFFFF;stroke-width: 4.53 ;&st6;" d=" M   450.42,   477.71  L   450.42,   681.67  "/>
		<path style="stroke:#000000;stroke-width: 1.13 ;&st6;" d=" M   450.42,   477.71  L   450.42,   681.67  "/>
	</a>
	<a ewd:comment="1,7" style="cursor:pointer;" ewd:lineID="29">
		<path style="stroke:#000000;stroke-width: 5.10 ;&st6;" d=" M   594.90,   290.74  L   594.90,   375.72  L   237.96,   375.72  L   203.97,   350.23  L   203.97,   341.73  "/>
		<path style="stroke:#FFFFFF;stroke-width: 2.27 ;&st6;" d=" M   594.90,   290.74  L   594.90,   375.72  L   237.96,   375.72  L   203.97,   350.23  L   203.97,   341.73  "/>
		<path style="stroke:#00A0C6;stroke-width: 1.13 ;&st6;" d=" M   594.90,   290.74  L   594.90,   375.72  L   237.96,   375.72  L   203.97,   350.23  L   203.97,   341.73  "/>
	</a>
	<a ewd:comment="1,8" style="cursor:pointer;" ewd:lineID="30">
		<path style="stroke:#999999;stroke-width: 5.10 ;&st6;" d=" M   594.90,   290.74  L   594.90,   299.24  L   577.90,   316.23  L   577.90,   358.73  L   246.46,   358.73  L   203.97,   350.23  L   203.97,   341.73  "/>
	</a>
	<a ewd:comment="1,6" style="cursor:pointer;" ewd:lineID="31">
		<path style="stroke:#F668B2;stroke-width: 5.10 ;&st6;" d=" M   645.89,   458.44  L   645.89,   460.71  L   654.39,   469.21  L   671.39,   469.21  L   671.39,   639.18  L   161.47,   639.18  L   161.47,   562.69  L   178.47,   545.69  L   178.47,   537.20  "/>
	</a>
	<a ewd:comment="1,8" style="cursor:pointer;" ewd:lineID="32">
		<path style="stroke:#000000;stroke-width: 5.10 ;&st6;" d=" M   645.89,   290.74  L   645.89,   299.24  L   654.39,   307.73  L   671.39,   307.73  L   671.39,   426.71  L   654.39,   426.71  L   645.89,   435.21  L   645.89,   443.71  "/>
	</a>
	<a ewd:comment="1,7" style="cursor:pointer;" ewd:lineID="33">
		<path style="stroke:#00A0C6;stroke-width: 5.10 ;&st6;" d=" M   645.89,   290.74  L   645.89,   443.71  "/>
		<path style="stroke:#FFFFFF;stroke-width: 2.27 ;&st6;" d=" M   645.89,   290.74  L   645.89,   443.71  "/>
		<path style="stroke:#000000;stroke-width: 1.13 ;&st6;" d=" M   645.89,   290.74  L   645.89,   443.71  "/>
	</a>
	<a ewd:comment="1,7" style="cursor:pointer;" ewd:lineID="34">
		<path style="stroke:#00A0C6;stroke-width: 5.10 ;&st6;" d=" M   696.88,   290.74  L   696.88,   443.71  "/>
		<path style="stroke:#FFFFFF;stroke-width: 2.27 ;&st6;" d=" M   696.88,   290.74  L   696.88,   443.71  "/>
		<path style="stroke:#FFE600;stroke-width: 1.13 ;&st6;" d=" M   696.88,   290.74  L   696.88,   443.71  "/>
	</a>
	<a ewd:comment="1,8" style="cursor:pointer;" ewd:lineID="35">
		<path style="stroke:#FFE600;stroke-width: 5.10 ;&st6;" d=" M   696.88,   290.74  L   696.88,   299.24  L   705.38,   307.73  L   722.38,   307.73  L   722.38,   426.71  L   705.38,   426.71  L   696.88,   435.21  L   696.88,   443.71  "/>
	</a>
	<a ewd:comment="1" style="cursor:pointer;" ewd:lineID="36">
		<path style="stroke:#000000;stroke-width: 5.10 ;&st6;" d=" M   747.88,   460.71  L   747.88,   681.67  "/>
		<path style="stroke:#FFFFFF;stroke-width: 4.53 ;&st6;" d=" M   747.88,   460.71  L   747.88,   681.67  "/>
		<path style="stroke:#000000;stroke-width: 1.13 ;&st6;" d=" M   747.88,   460.71  L   747.88,   681.67  "/>
	</a>
	<a ewd:comment="1" style="cursor:pointer;" ewd:lineID="37">
		<path style="stroke:#000000;stroke-width: 5.10 ;&st6;" d=" M   747.88,   290.74  L   747.88,   443.71  "/>
		<path style="stroke:#FFFFFF;stroke-width: 4.53 ;&st6;" d=" M   747.88,   290.74  L   747.88,   443.71  "/>
		<path style="stroke:#000000;stroke-width: 1.13 ;&st6;" d=" M   747.88,   290.74  L   747.88,   443.71  "/>
	</a>
	<a ewd:comment="1" style="cursor:pointer;" ewd:lineID="38">
		<path style="stroke:#000000;stroke-width: 5.10 ;&st6;" d=" M   747.88,   290.74  L   747.88,   299.24  L   756.37,   307.73  L   790.37,   307.73  L   790.37,   443.71  "/>
		<path style="stroke:#FFFFFF;stroke-width: 4.53 ;&st6;" d=" M   747.88,   290.74  L   747.88,   299.24  L   756.37,   307.73  L   790.37,   307.73  L   790.37,   443.71  "/>
		<path style="stroke:#000000;stroke-width: 1.13 ;&st6;" d=" M   747.88,   290.74  L   747.88,   299.24  L   756.37,   307.73  L   790.37,   307.73  L   790.37,   443.71  "/>
	</a>
	<a ewd:comment="1" style="cursor:pointer;" ewd:lineID="39">
		<path style="stroke:#000000;stroke-width: 5.10 ;&st6;" d=" M   790.37,   460.71  L   790.37,   664.67  L   756.37,   664.67  L   747.88,   673.17  L   747.88,   681.67  "/>
		<path style="stroke:#FFFFFF;stroke-width: 4.53 ;&st6;" d=" M   790.37,   460.71  L   790.37,   664.67  L   756.37,   664.67  L   747.88,   673.17  L   747.88,   681.67  "/>
		<path style="stroke:#000000;stroke-width: 1.13 ;&st6;" d=" M   790.37,   460.71  L   790.37,   664.67  L   756.37,   664.67  L   747.88,   673.17  L   747.88,   681.67  "/>
	</a>
	<g ewd:figtype="rb" ewd:figID="1" ewd:code="FUSE26">
		<path style="stroke-width: 0.85 ;&st7;  " d=" M   220.96,    78.27  L   220.96,    95.27  "/>
		<path style="stroke-width: 1.42 ;&st7;  " d=" M   223.09,   103.77  L   218.84,   103.77  "/>
		<path style="stroke-width: 1.42 ;&st7;  " d=" M   223.09,    95.27  L   218.84,    95.27  "/>
		<path style="stroke-width: 1.42 ;&st7;   " d=" M   227.34,    99.52  C   227.34     97.17    225.43     95.27    223.09     95.27  "/>
		<path style="stroke-width: 1.42 ;&st7;   " d=" M   223.09,   103.77  C   225.43    103.77    227.34    101.87    227.34     99.52  "/>
		<path style="stroke-width: 1.42 ;&st7;   " d=" M   214.59,    99.52  C   214.59    101.87    216.49    103.77    218.84    103.77  "/>
		<path style="stroke-width: 1.42 ;&st7;   " d=" M   218.84,    95.27  C   216.49     95.27    214.59     97.17    214.59     99.52  "/>
		<path style="stroke-width: 0.28 ;&st9;  " d=" M   220.96,    90.37  L   218.13,    87.54  L   218.13,    91.79  L   220.96,    94.62  L   223.80,    91.79  L   223.80,    87.54  L   220.96,    90.37  "/>
		<text style="&st18;" transform="matrix(&st16;  214.62  86.47 )">2</text>
		<text style="&st18;" transform="matrix(&st16;  219.09  101.49 )">2</text>
		<text style="&st18;" transform="matrix(&st16;  237.39  56.17 )">15A <tspan x="0 " dy="6.0">GAUGE</tspan></text>
		<text style="&st18;" transform="matrix(&st16;  215.6  32.08 )">(IG)</text>
		<path style="stroke-width: 0.85 ;&st7;  " d=" M   220.96,    69.77  L   220.96,    78.27  "/>
		<path style="stroke-width: 0.85 ;&st7;   " d=" M   222.38,    45.69  C   222.38     44.91    221.75     44.28    220.96     44.28  "/>
		<path style="stroke-width: 0.85 ;&st7;   " d=" M   220.96,    44.28  C   220.18     44.28    219.55     44.91    219.55     45.69  "/>
		<path style="stroke-width: 0.85 ;&st7;   " d=" M   219.55,    45.69  C   219.55     46.48    220.18     47.11    220.96     47.11  "/>
		<path style="stroke-width: 0.85 ;&st7;   " d=" M   220.96,    47.11  C   221.75     47.11    222.38     46.48    222.38     45.69  "/>
		<path style="stroke-width: 0.85 ;&st7;   " d=" M   222.38,    68.36  C   222.38     67.57    221.75     66.94    220.96     66.94  "/>
		<path style="stroke-width: 0.85 ;&st7;   " d=" M   220.96,    66.94  C   220.18     66.94    219.55     67.57    219.55     68.36  "/>
		<path style="stroke-width: 0.85 ;&st7;   " d=" M   219.55,    68.36  C   219.55     69.14    220.18     69.77    220.96     69.77  "/>
		<path style="stroke-width: 0.85 ;&st7;   " d=" M   220.96,    69.77  C   221.75     69.77    222.38     69.14    222.38     68.36  "/>
		<path style="stroke-width: 1.42 ;&st7;   " d=" M   220.96,    66.94  C   223.70     65.33    224.61     61.80    223.00     59.06  "/>
		<path style="stroke-width: 1.42 ;&st7;   " d=" M   223.00,    59.06  C   222.48     58.18    221.85     57.55    220.96     57.03  "/>
		<path style="stroke-width: 1.42 ;&st7;   " d=" M   220.96,    47.11  C   218.23     48.72    217.31     52.25    218.93     54.99  "/>
		<path style="stroke-width: 1.42 ;&st7;   " d=" M   218.93,    54.99  C   219.45     55.87    220.08     56.51    220.96     57.03  "/>
		<path style="stroke-width: 1.42 ;&st7;  " d=" M   208.22,    35.78  L   208.22,    78.27  L   233.71,    78.27  L   233.71,    35.78  L   208.22,    35.78  "/>
	</g>
	<g ewd:figtype="rb" ewd:figID="2" ewd:code="FUSE6">
		<path style="stroke-width: 1.42 ;&st7;  " d=" M   104.11,    95.27  L    99.86,    95.27  "/>
		<path style="stroke-width: 1.42 ;&st7;   " d=" M    99.86,    95.27  C    97.51     95.27     95.61     97.17     95.61     99.52  "/>
		<path style="stroke-width: 1.42 ;&st7;   " d=" M    95.61,    99.52  C    95.61    101.87     97.51    103.77     99.86    103.77  "/>
		<path style="stroke-width: 1.42 ;&st7;   " d=" M   104.11,   103.77  C   106.45    103.77    108.36    101.87    108.36     99.52  "/>
		<path style="stroke-width: 1.42 ;&st7;   " d=" M   108.36,    99.52  C   108.36     97.17    106.45     95.27    104.11     95.27  "/>
		<path style="stroke-width: 0.28 ;&st9;  " d=" M   101.98,    90.37  L    99.15,    87.54  L    99.15,    91.79  L   101.98,    94.62  L   104.82,    91.79  L   104.82,    87.54  L   101.98,    90.37  "/>
		<path style="stroke-width: 1.42 ;&st7;  " d=" M   104.11,   103.77  L    99.86,   103.77  "/>
		<path style="stroke-width: 0.85 ;&st7;  " d=" M   101.98,    78.27  L   101.98,    95.27  "/>
		<text style="&st18;" transform="matrix(&st16;  93.9  32.08 )">(BAT)</text>
		<text style="&st18;" transform="matrix(&st16;  118.41  56.17 )">10A <tspan x="0 " dy="6.0">ECU-B</tspan></text>
		<text style="&st18;" transform="matrix(&st16;  100.1  101.49 )">2</text>
		<text style="&st18;" transform="matrix(&st16;  95.64  86.47 )">2</text>
		<path style="stroke-width: 0.85 ;&st7;  " d=" M   101.98,    69.77  L   101.98,    78.27  "/>
		<path style="stroke-width: 1.42 ;&st7;   " d=" M   101.98,    47.11  C    99.25     48.72     98.33     52.25     99.95     54.99  "/>
		<path style="stroke-width: 1.42 ;&st7;   " d=" M    99.95,    54.99  C   100.47     55.87    101.10     56.51    101.98     57.03  "/>
		<path style="stroke-width: 1.42 ;&st7;   " d=" M   101.98,    66.94  C   104.72     65.33    105.63     61.80    104.02     59.06  "/>
		<path style="stroke-width: 1.42 ;&st7;   " d=" M   104.02,    59.06  C   103.50     58.18    102.86     57.55    101.98     57.03  "/>
		<path style="stroke-width: 0.85 ;&st7;   " d=" M   103.40,    68.36  C   103.40     67.57    102.77     66.94    101.98     66.94  "/>
		<path style="stroke-width: 0.85 ;&st7;   " d=" M   101.98,    66.94  C   101.20     66.94    100.57     67.57    100.57     68.36  "/>
		<path style="stroke-width: 0.85 ;&st7;   " d=" M   100.57,    68.36  C   100.57     69.14    101.20     69.77    101.98     69.77  "/>
		<path style="stroke-width: 0.85 ;&st7;   " d=" M   101.98,    69.77  C   102.77     69.77    103.40     69.14    103.40     68.36  "/>
		<path style="stroke-width: 1.42 ;&st7;  " d=" M    89.24,    35.78  L    89.24,    78.27  L   114.73,    78.27  L   114.73,    35.78  L    89.24,    35.78  "/>
		<path style="stroke-width: 0.85 ;&st7;   " d=" M   103.40,    45.69  C   103.40     44.91    102.77     44.28    101.98     44.28  "/>
		<path style="stroke-width: 0.85 ;&st7;   " d=" M   101.98,    44.28  C   101.20     44.28    100.57     44.91    100.57     45.69  "/>
		<path style="stroke-width: 0.85 ;&st7;   " d=" M   100.57,    45.69  C   100.57     46.48    101.20     47.11    101.98     47.11  "/>
		<path style="stroke-width: 0.85 ;&st7;   " d=" M   101.98,    47.11  C   102.77     47.11    103.40     46.48    103.40     45.69  "/>
	</g>
	<g ewd:figtype="conn" ewd:figID="3" ewd:code="I14">
		<g ewd:lineID="29,30">
			<text style="&st18;" transform="matrix(&st16;  588.56  298.93 )">2</text>
			<text style="&st18;" transform="matrix(&st16;  588.91  287.04 )">RLY</text>
		</g>
		<g ewd:lineID="32,33">
			<text style="&st18;" transform="matrix(&st16;  639.55  298.93 )">3</text>
			<text style="&st18;" transform="matrix(&st16;  641.65  287.04 )">LO</text>
		</g>
		<g ewd:lineID="34,35">
			<text style="&st18;" transform="matrix(&st16;  690.54  298.93 )">1</text>
			<text style="&st18;" transform="matrix(&st16;  693.65  287.04 )">HI</text>
		</g>
		<g ewd:lineID="37,38">
			<text style="&st18;" transform="matrix(&st16;  741.54  298.93 )">4</text>
			<text style="&st18;" transform="matrix(&st16;  745.61  287.04 )">E</text>
		</g>
		<path style="stroke-width: 1.42 ;&st7;  " d=" M   577.90,   290.74  L   764.87,   290.74  L   764.87,   248.24  L   577.90,   248.24  L   577.90,   290.74  "/>
		<g ewd:figtype="title">
			<text style="&st18;" transform="matrix(&st17;  779.59  293.64 )" ewd:textID="15">Rear Heater Blower Switch</text>
			<text style="&st18;" transform="matrix(&st17;  772.77  293.64 )">I14</text>
		</g>
	</g>
	<g ewd:figtype="conn" ewd:figID="4" ewd:code="I105">
		<path style="stroke-width: 1.42 ;&st7;  " d=" M   271.95,   154.76  L   288.95,   154.76  L   288.95,   171.76  L   271.95,   171.76  L   271.95,   154.76  "/>
		<path style="stroke-width: 0.85 ;&st7;  " d=" M   280.45,   154.76  L   280.45,   171.76  "/>
		<text style="&st18;" transform="matrix(&st16;  270.97  178.26 )">6</text>
		<path style="stroke-width: 1.42 ;&st7;   " d=" M   284.99,   176.29  C   284.99    173.79    282.96    171.76    280.45    171.76  "/>
		<path style="stroke-width: 1.42 ;&st7;   " d=" M   280.45,   171.76  C   277.95    171.76    275.92    173.79    275.92    176.29  "/>
		<path style="stroke-width: 1.42 ;&st7;   " d=" M   275.92,   176.29  C   275.92    178.79    277.95    180.82    280.45    180.82  "/>
		<path style="stroke-width: 1.42 ;&st7;   " d=" M   280.45,   180.82  C   282.96    180.82    284.99    178.79    284.99    176.29  "/>
		<text style="&st18;" transform="matrix(&st16;  278.19  178.26 )">A</text>
		<text style="&st18;" transform="matrix(&st16;  270.97  152.2 )">1</text>
		<path style="stroke-width: 1.42 ;&st7;   " d=" M   284.99,   150.23  C   284.99    147.72    282.96    145.69    280.45    145.69  "/>
		<path style="stroke-width: 1.42 ;&st7;   " d=" M   280.45,   145.69  C   277.95    145.69    275.92    147.72    275.92    150.23  "/>
		<path style="stroke-width: 1.42 ;&st7;   " d=" M   275.92,   150.23  C   275.92    152.73    277.95    154.76    280.45    154.76  "/>
		<path style="stroke-width: 1.42 ;&st7;   " d=" M   280.45,   154.76  C   282.96    154.76    284.99    152.73    284.99    150.23  "/>
		<text style="&st18;" transform="matrix(&st16;  278.19  152.2 )">A</text>
		<g ewd:figtype="title">
			<text style="&st18;" transform="matrix(&st17;  296.85  174.66 )">I105(A)</text>
			<text style="&st18;" transform="matrix(&st17;  303.67  174.66 )" ewd:textID="9">No. 8 Junction Connector</text>
		</g>
	</g>
	<g ewd:figtype="conn" ewd:figID="5" ewd:code="I95">
		<path style="stroke-width: 0.85 ;&st7;  " d=" M   178.47,   154.76  L   178.47,   171.76  "/>
		<path style="stroke-width: 1.42 ;&st7;  " d=" M   169.97,   154.76  L   186.97,   154.76  L   186.97,   171.76  L   169.97,   171.76  L   169.97,   154.76  "/>
		<text style="&st18;" transform="matrix(&st16;  165.66  178.26 )">13</text>
		<text style="&st18;" transform="matrix(&st16;  176.2  178.26 )">A</text>
		<path style="stroke-width: 1.42 ;&st7;   " d=" M   183.00,   176.29  C   183.00    173.79    180.97    171.76    178.47    171.76  "/>
		<path style="stroke-width: 1.42 ;&st7;   " d=" M   178.47,   171.76  C   175.97    171.76    173.94    173.79    173.94    176.29  "/>
		<path style="stroke-width: 1.42 ;&st7;   " d=" M   173.94,   176.29  C   173.94    178.79    175.97    180.82    178.47    180.82  "/>
		<path style="stroke-width: 1.42 ;&st7;   " d=" M   178.47,   180.82  C   180.97    180.82    183.00    178.79    183.00    176.29  "/>
		<text style="&st18;" transform="matrix(&st16;  168.99  152.2 )">5</text>
		<text style="&st18;" transform="matrix(&st16;  176.2  152.2 )">A</text>
		<path style="stroke-width: 1.42 ;&st7;   " d=" M   183.00,   150.23  C   183.00    147.72    180.97    145.69    178.47    145.69  "/>
		<path style="stroke-width: 1.42 ;&st7;   " d=" M   178.47,   145.69  C   175.97    145.69    173.94    147.72    173.94    150.23  "/>
		<path style="stroke-width: 1.42 ;&st7;   " d=" M   173.94,   150.23  C   173.94    152.73    175.97    154.76    178.47    154.76  "/>
		<path style="stroke-width: 1.42 ;&st7;   " d=" M   178.47,   154.76  C   180.97    154.76    183.00    152.73    183.00    150.23  "/>
		<g ewd:figtype="title">
			<text style="&st18;" transform="matrix(&st17;  151.54  174.66 )" ewd:textID="11">No. 18 <tspan x="0 " dy="6.0">Junction </tspan><tspan x="0 " dy="6.0">Connector</tspan></text>
			<text style="&st18;" transform="matrix(&st17;  144.72  174.66 )">I95(A)</text>
		</g>
	</g>
	<g ewd:figtype="conn" ewd:figID="6" ewd:code="I108,I109">
		<path style="stroke-width: 0.85 ;&st7;  " d=" M   101.98,   171.76  L   101.98,   154.76  "/>
		<path style="stroke-width: 1.42 ;&st7;  " d=" M    93.48,   154.76  L   110.48,   154.76  L   110.48,   171.76  L    93.48,   171.76  L    93.48,   154.76  "/>
		<text style="&st18;" transform="matrix(&st16;  92.5  178.26 )">4</text>
		<text style="&st18;" transform="matrix(&st16;  99.72  178.26 )">B</text>
		<path style="stroke-width: 1.42 ;&st7;   " d=" M   106.52,   176.29  C   106.52    173.79    104.49    171.76    101.98    171.76  "/>
		<path style="stroke-width: 1.42 ;&st7;   " d=" M   101.98,   171.76  C    99.48    171.76     97.45    173.79     97.45    176.29  "/>
		<path style="stroke-width: 1.42 ;&st7;   " d=" M    97.45,   176.29  C    97.45    178.79     99.48    180.82    101.98    180.82  "/>
		<path style="stroke-width: 1.42 ;&st7;   " d=" M   101.98,   180.82  C   104.49    180.82    106.52    178.79    106.52    176.29  "/>
		<text style="&st18;" transform="matrix(&st16;  92.5  152.2 )">4</text>
		<text style="&st18;" transform="matrix(&st16;  99.72  152.2 )">A</text>
		<path style="stroke-width: 1.42 ;&st7;   " d=" M   106.52,   150.23  C   106.52    147.72    104.49    145.69    101.98    145.69  "/>
		<path style="stroke-width: 1.42 ;&st7;   " d=" M   101.98,   145.69  C    99.48    145.69     97.45    147.72     97.45    150.23  "/>
		<path style="stroke-width: 1.42 ;&st7;   " d=" M    97.45,   150.23  C    97.45    152.73     99.48    154.76    101.98    154.76  "/>
		<path style="stroke-width: 1.42 ;&st7;   " d=" M   101.98,   154.76  C   104.49    154.76    106.52    152.73    106.52    150.23  "/>
		<g ewd:figtype="title">
			<text style="&st18;" transform="matrix(&st17;  83.84  174.66 )" ewd:textID="10">No. 13 Junction <tspan x="0 " dy="6.0">Connector</tspan></text>
			<text style="&st18;" transform="matrix(&st17;  77.02  174.66 )">I108(A),I109(B)</text>
		</g>
	</g>
	<g ewd:figtype="rb" ewd:figID="7" ewd:code="2">
		<path style="stroke-width: 1.42 ;&st7;  " d=" M   180.59,   222.75  L   176.35,   222.75  "/>
		<path style="stroke-width: 1.42 ;&st7;  " d=" M   180.59,   231.25  L   176.35,   231.25  "/>
		<path style="stroke-width: 1.42 ;&st7;  " d=" M   223.09,   222.75  L   218.84,   222.75  "/>
		<path style="stroke-width: 1.42 ;&st7;  " d=" M   223.09,   231.25  L   218.84,   231.25  "/>
		<path style="stroke-width: 1.42 ;&st7;  " d=" M   180.59,   333.23  L   176.35,   333.23  "/>
		<path style="stroke-width: 1.42 ;&st7;  " d=" M   180.59,   341.73  L   176.35,   341.73  "/>
		<path style="stroke-width: 1.42 ;&st7;  " d=" M   206.09,   333.23  L   201.84,   333.23  "/>
		<path style="stroke-width: 1.42 ;&st7;  " d=" M   206.09,   341.73  L   201.84,   341.73  "/>
		<path style="stroke-width: 1.42 ;&st7;   " d=" M   176.35,   222.75  C   174.00    222.75    172.10    224.65    172.10    227.00  "/>
		<path style="stroke-width: 1.42 ;&st7;   " d=" M   172.10,   227.00  C   172.10    229.34    174.00    231.25    176.35    231.25  "/>
		<path style="stroke-width: 1.42 ;&st7;   " d=" M   180.59,   231.25  C   182.94    231.25    184.84    229.34    184.84    227.00  "/>
		<path style="stroke-width: 1.42 ;&st7;   " d=" M   184.84,   227.00  C   184.84    224.65    182.94    222.75    180.59    222.75  "/>
		<path style="stroke-width: 1.42 ;&st7;   " d=" M   218.84,   222.75  C   216.49    222.75    214.59    224.65    214.59    227.00  "/>
		<path style="stroke-width: 1.42 ;&st7;   " d=" M   214.59,   227.00  C   214.59    229.34    216.49    231.25    218.84    231.25  "/>
		<path style="stroke-width: 1.42 ;&st7;   " d=" M   223.09,   231.25  C   225.43    231.25    227.34    229.34    227.34    227.00  "/>
		<path style="stroke-width: 1.42 ;&st7;   " d=" M   227.34,   227.00  C   227.34    224.65    225.43    222.75    223.09    222.75  "/>
		<path style="stroke-width: 1.42 ;&st7;   " d=" M   176.35,   333.23  C   174.00    333.23    172.10    335.13    172.10    337.48  "/>
		<path style="stroke-width: 1.42 ;&st7;   " d=" M   172.10,   337.48  C   172.10    339.83    174.00    341.73    176.35    341.73  "/>
		<path style="stroke-width: 1.42 ;&st7;   " d=" M   180.59,   341.73  C   182.94    341.73    184.84    339.83    184.84    337.48  "/>
		<path style="stroke-width: 1.42 ;&st7;   " d=" M   184.84,   337.48  C   184.84    335.13    182.94    333.23    180.59    333.23  "/>
		<path style="stroke-width: 1.42 ;&st7;   " d=" M   201.84,   333.23  C   199.49    333.23    197.59    335.13    197.59    337.48  "/>
		<path style="stroke-width: 1.42 ;&st7;   " d=" M   197.59,   337.48  C   197.59    339.83    199.49    341.73    201.84    341.73  "/>
		<path style="stroke-width: 1.42 ;&st7;   " d=" M   206.09,   341.73  C   208.44    341.73    210.34    339.83    210.34    337.48  "/>
		<path style="stroke-width: 1.42 ;&st7;   " d=" M   210.34,   337.48  C   210.34    335.13    208.44    333.23    206.09    333.23  "/>
		<path style="stroke-width: 0.28 ;&st9;  " d=" M   178.47,   236.14  L   181.30,   238.97  L   181.30,   234.73  L   178.47,   231.89  L   175.64,   234.73  L   175.64,   238.97  L   178.47,   236.14  "/>
		<path style="stroke-width: 0.28 ;&st9;  " d=" M   220.96,   236.14  L   223.80,   238.97  L   223.80,   234.73  L   220.96,   231.89  L   218.13,   234.73  L   218.13,   238.97  L   220.96,   236.14  "/>
		<path style="stroke-width: 0.28 ;&st9;  " d=" M   178.47,   328.33  L   175.64,   325.50  L   175.64,   329.75  L   178.47,   332.58  L   181.30,   329.75  L   181.30,   325.50  L   178.47,   328.33  "/>
		<path style="stroke-width: 0.28 ;&st9;  " d=" M   203.97,   328.33  L   201.13,   325.50  L   201.13,   329.75  L   203.97,   332.58  L   206.80,   329.75  L   206.80,   325.50  L   203.97,   328.33  "/>
		<path style="stroke-width: 0.85 ;&st7;  " d=" M   178.47,   273.74  L   178.47,   231.25  "/>
		<path style="stroke-width: 0.85 ;&st7;  " d=" M   220.96,   231.25  L   220.96,   256.74  L   203.97,   256.74  L   203.97,   273.74  "/>
		<path style="stroke-width: 0.85 ;&st7;  " d=" M   178.47,   333.23  L   178.47,   307.73  "/>
		<path style="stroke-width: 0.85 ;&st7;  " d=" M   203.97,   333.23  L   203.97,   307.73  "/>
		<text style="&st18;" transform="matrix(&st16;  172.13  315.93 )">3</text>
		<text style="&st18;" transform="matrix(&st16;  197.63  315.93 )">1</text>
		<text style="&st18;" transform="matrix(&st16;  172.13  270.05 )">5</text>
		<text style="&st18;" transform="matrix(&st16;  197.63  270.05 )">2</text>
		<text style="&st18;" transform="matrix(&st16;  176.59  228.97 )">2</text>
		<text style="&st18;" transform="matrix(&st16;  219.09  228.97 )">2</text>
		<text style="&st18;" transform="matrix(&st16;  176.59  339.45 )">2</text>
		<text style="&st18;" transform="matrix(&st16;  202.09  339.45 )">2</text>
		<text style="&st18;" transform="matrix(&st17;  220.1  301.85 )" ewd:textID="13">RR HTR <tspan x="0 " dy="6.0">Relay</tspan></text>
		<path style="stroke-width: 1.42 ;&st7;  " d=" M   178.47,   300.65  L   172.80,   277.99  "/>
		<path style="stroke-width: 0.85 ;&st7;  " d=" M   178.47,   307.73  L   178.47,   303.48  "/>
		<path style="stroke-width: 0.85 ;&st7;  " d=" M   178.47,   277.99  L   178.47,   273.74  "/>
		<path style="stroke-width: 0.85 ;&st7;  " d=" M   203.97,   273.74  L   203.97,   282.24  "/>
		<path style="stroke-width: 0.85 ;&st7;  " d=" M   203.97,   299.24  L   203.97,   307.73  "/>
		<path style="stroke-width: 0.85 ;&st7;   " d=" M   179.89,   302.07  C   179.89    301.29    179.25    300.65    178.47    300.65  "/>
		<path style="stroke-width: 0.85 ;&st7;   " d=" M   178.47,   300.65  C   177.69    300.65    177.05    301.29    177.05    302.07  "/>
		<path style="stroke-width: 0.85 ;&st7;   " d=" M   177.05,   302.07  C   177.05    302.85    177.69    303.48    178.47    303.48  "/>
		<path style="stroke-width: 0.85 ;&st7;   " d=" M   178.47,   303.48  C   179.25    303.48    179.89    302.85    179.89    302.07  "/>
		<path style="stroke-width: 0.85 ;&st7;   " d=" M   179.89,   279.41  C   179.89    278.62    179.25    277.99    178.47    277.99  "/>
		<path style="stroke-width: 0.85 ;&st7;   " d=" M   178.47,   277.99  C   177.69    277.99    177.05    278.62    177.05    279.41  "/>
		<path style="stroke-width: 0.85 ;&st7;   " d=" M   177.05,   279.41  C   177.05    280.19    177.69    280.82    178.47    280.82  "/>
		<path style="stroke-width: 0.85 ;&st7;   " d=" M   178.47,   280.82  C   179.25    280.82    179.89    280.19    179.89    279.41  "/>
		<path style="stroke-width: 0.85 ;&st7;   " d=" M   201.44,   288.26  C   202.81    289.66    205.05    289.68    206.44    288.31  "/>
		<path style="stroke-width: 0.85 ;&st7;   " d=" M   206.44,   288.31  C   207.84    286.94    207.86    284.70    206.50    283.30  "/>
		<path style="stroke-width: 0.85 ;&st7;   " d=" M   206.50,   283.30  C   205.80    282.59    204.96    282.24    203.97    282.24  "/>
		<path style="stroke-width: 0.85 ;&st7;   " d=" M   201.44,   293.22  C   202.81    294.61    205.05    294.64    206.44    293.27  "/>
		<path style="stroke-width: 0.85 ;&st7;   " d=" M   206.44,   293.27  C   207.84    291.90    207.86    289.66    206.50    288.26  "/>
		<path style="stroke-width: 0.85 ;&st7;   " d=" M   206.50,   288.26  C   205.13    286.86    202.88    286.84    201.49    288.21  "/>
		<path style="stroke-width: 0.85 ;&st7;   " d=" M   201.49,   288.21  C   201.47    288.22    201.45    288.24    201.44    288.26  "/>
		<path style="stroke-width: 0.85 ;&st7;   " d=" M   203.97,   299.24  C   205.92    299.24    207.51    297.65    207.51    295.69  "/>
		<path style="stroke-width: 0.85 ;&st7;   " d=" M   207.51,   295.69  C   207.51    293.74    205.92    292.15    203.97    292.15  "/>
		<path style="stroke-width: 0.85 ;&st7;   " d=" M   203.97,   292.15  C   202.98    292.15    202.13    292.51    201.44    293.22  "/>
		<path style="stroke-width: 1.42 ;&st7;  " d=" M   212.46,   273.74  L   169.97,   273.74  L   169.97,   307.73  L   212.46,   307.73  L   212.46,   273.74  "/>
	</g>
	<g ewd:figtype="conn" ewd:figID="8" ewd:code="I97">
		<path style="stroke-width: 1.42 ;&st7;  " d=" M   781.87,   443.71  L   798.87,   443.71  L   798.87,   460.71  L   781.87,   460.71  L   781.87,   443.71  "/>
		<path style="stroke-width: 0.85 ;&st7;  " d=" M   790.37,   443.71  L   790.37,   460.71  "/>
		<text style="&st18;" transform="matrix(&st16;  784.03  440.02 )">9</text>
		<text style="&st18;" transform="matrix(&st16;  784.03  468.9 )">2</text>
		<g ewd:figtype="title">
			<text style="&st18;" transform="matrix(&st17;  806.76  463.61 )">I97</text>
			<text style="&st18;" transform="matrix(&st17;  813.58  463.61 )" ewd:textID="12">No. 32 Junction Connector</text>
		</g>
	</g>
	<g ewd:figtype="conn" ewd:figID="9" ewd:code="S5">
		<g ewd:lineID="1,2,21,22">
			<text style="&st18;" transform="matrix(&st16;  95.64  545.39 )">3</text>
			<text style="&st18;" transform="matrix(&st16;  98.75  533.5 )">HI</text>
		</g>
		<g ewd:lineID="31,5,6,7">
			<text style="&st18;" transform="matrix(&st16;  172.13  545.39 )">2</text>
			<text style="&st18;" transform="matrix(&st16;  174.23  533.5 )">LO</text>
		</g>
		<g ewd:lineID="8,9">
			<text style="&st18;" transform="matrix(&st16;  172.13  499.51 )">1</text>
			<text style="&st18;" transform="matrix(&st16;  174.5  510.84 )">+B</text>
		</g>
		<path style="stroke-width: 1.42 ;&st7;  " d=" M    84.99,   537.20  L   195.47,   537.20  L   195.47,   503.20  L    84.99,   503.20  L    84.99,   537.20  "/>
		<g ewd:figtype="title">
			<text style="&st18;" transform="matrix(&st17;  210.19  540.1 )" ewd:textID="14">Rear Heater Blower Resistor</text>
			<text style="&st18;" transform="matrix(&st17;  203.36  540.09 )">S5</text>
		</g>
	</g>
	<g ewd:figtype="conn" ewd:figID="10" ewd:code="S10">
		<g ewd:lineID="15,16">
			<text style="&st18;" transform="matrix(&st16;  257.12  499.51 )">2</text>
			<text style="&st18;" transform="matrix(&st16;  257.47  510.84 )">RLY</text>
		</g>
		<g ewd:lineID="21,22">
			<text style="&st18;" transform="matrix(&st16;  333.6  545.39 )">1</text>
			<text style="&st18;" transform="matrix(&st16;  336.71  533.5 )">HI</text>
		</g>
		<g ewd:lineID="23">
			<text style="&st18;" transform="matrix(&st16;  333.6  499.51 )">4</text>
			<text style="&st18;" transform="matrix(&st16;  337.68  510.84 )">E</text>
		</g>
		<g ewd:lineID="5,6">
			<text style="&st18;" transform="matrix(&st16;  257.12  545.39 )">3</text>
			<text style="&st18;" transform="matrix(&st16;  259.21  533.5 )">LO</text>
		</g>
		<path style="stroke-width: 1.42 ;&st7;  " d=" M   246.46,   537.20  L   356.94,   537.20  L   356.94,   503.20  L   246.46,   503.20  L   246.46,   537.20  "/>
		<g ewd:figtype="title">
			<text style="&st18;" transform="matrix(&st17;  371.66  540.1 )" ewd:textID="15">Rear Heater Blower Switch</text>
			<text style="&st18;" transform="matrix(&st17;  364.83  540.09 )">S10</text>
		</g>
	</g>
	<g ewd:figtype="w2w" ewd:figID="14" ewd:code="IS2">
		<path style="stroke-width: 1.42 ;&st7;  " d=" M   182.72,   444.28  L   178.47,   440.03  L   174.22,   444.28  "/>
		<path style="stroke-width: 1.42 ;&st7;  " d=" M   182.72,   440.88  L   178.47,   436.63  L   174.22,   440.88  "/>
		<text style="&st18;" transform="matrix(&st16;  165.05  432.93 )">6</text>
	</g>
	<g ewd:figtype="w2w" ewd:figID="15" ewd:code="IS3">
		<path style="stroke-width: 1.42 ;&st7;  " d=" M   267.71,   440.88  L   263.46,   436.63  L   259.21,   440.88  "/>
		<path style="stroke-width: 1.42 ;&st7;  " d=" M   267.71,   444.28  L   263.46,   440.03  L   259.21,   444.28  "/>
		<text style="&st18;" transform="matrix(&st16;  250.04  432.93 )">7</text>
	</g>
	<g ewd:figtype="w2w" ewd:figID="16" ewd:code="TS2">
		<path style="stroke-width: 1.42 ;&st7;  " d=" M   403.68,   460.14  L   407.93,   464.39  L   412.18,   460.14  "/>
		<path style="stroke-width: 1.42 ;&st7;  " d=" M   412.18,   463.54  L   407.93,   467.79  L   403.68,   463.54  "/>
		<text style="&st18;" transform="matrix(&st16;  391.18  475.43 )">13</text>
	</g>
	<g ewd:figtype="w2w" ewd:figID="17" ewd:code="TS2">
		<path style="stroke-width: 1.42 ;&st7;  " d=" M   454.67,   463.54  L   450.42,   467.79  L   446.18,   463.54  "/>
		<path style="stroke-width: 1.42 ;&st7;  " d=" M   446.18,   460.14  L   450.42,   464.39  L   454.67,   460.14  "/>
		<text style="&st18;" transform="matrix(&st16;  433.67  475.43 )">11</text>
	</g>
	<g ewd:figtype="w2w" ewd:figID="18" ewd:code="IS2">
		<path style="stroke-width: 1.42 ;&st7;  " d=" M   650.14,   457.88  L   645.89,   453.63  L   641.64,   457.88  "/>
		<path style="stroke-width: 1.42 ;&st7;  " d=" M   650.14,   461.27  L   645.89,   457.03  L   641.64,   461.27  "/>
		<text style="&st18;" transform="matrix(&st16;  632.47  449.93 )">2</text>
	</g>
	<g ewd:figtype="w2w" ewd:figID="19" ewd:code="IS2">
		<path style="stroke-width: 1.42 ;&st7;  " d=" M   701.13,   457.88  L   696.88,   453.63  L   692.63,   457.88  "/>
		<path style="stroke-width: 1.42 ;&st7;  " d=" M   701.13,   461.27  L   696.88,   457.03  L   692.63,   461.27  "/>
		<text style="&st18;" transform="matrix(&st16;  683.47  449.93 )">3</text>
	</g>
	<g ewd:figtype="gp" ewd:figID="20" ewd:code="TA">
		<path style="stroke-width: 0.85 ;&st7;  " d=" M   407.93,   697.25  L   407.93,   701.50  "/>
		<path style="stroke-width: 0.85 ;&st7;  " d=" M   399.43,   701.50  L   416.43,   701.50  "/>
		<path style="stroke-width: 0.85 ;&st7;  " d=" M   403.68,   704.33  L   412.18,   704.33  "/>
		<path style="stroke-width: 0.85 ;&st7;  " d=" M   405.10,   707.17  L   410.76,   707.17  "/>
		<path style="stroke-width: 0.85 ;&st7;  " d=" M   406.52,   710.00  L   409.35,   710.00  "/>
	</g>
	<g ewd:figtype="gp" ewd:figID="21" ewd:code="TB">
		<path style="stroke-width: 0.85 ;&st7;  " d=" M   449.01,   710.00  L   451.84,   710.00  "/>
		<path style="stroke-width: 0.85 ;&st7;  " d=" M   447.59,   707.17  L   453.26,   707.17  "/>
		<path style="stroke-width: 0.85 ;&st7;  " d=" M   446.18,   704.33  L   454.67,   704.33  "/>
		<path style="stroke-width: 0.85 ;&st7;  " d=" M   441.93,   701.50  L   458.92,   701.50  "/>
		<path style="stroke-width: 0.85 ;&st7;  " d=" M   450.42,   697.25  L   450.42,   701.50  "/>
	</g>
	<g ewd:figtype="gp" ewd:figID="22" ewd:code="IA">
		<path style="stroke-width: 0.85 ;&st7;  " d=" M   746.46,   710.00  L   749.29,   710.00  "/>
		<path style="stroke-width: 0.85 ;&st7;  " d=" M   745.04,   707.17  L   750.71,   707.17  "/>
		<path style="stroke-width: 0.85 ;&st7;  " d=" M   743.63,   704.33  L   752.12,   704.33  "/>
		<path style="stroke-width: 0.85 ;&st7;  " d=" M   739.38,   701.50  L   756.37,   701.50  "/>
		<path style="stroke-width: 0.85 ;&st7;  " d=" M   747.87,   697.25  L   747.87,   701.50  "/>
	</g>
	<g ewd:code="4" ewd:figID="32" ewd:comment="" ewd:figtype="comment">
		<text style="&st18;" transform="matrix(&st16;  676.48  88.74 )" ewd:textID="4">* 4 :Except Pick-Up Body Type</text>
	</g>
	<g ewd:code="1" ewd:figID="29" ewd:comment="" ewd:figtype="comment">
		<text style="&st18;" transform="matrix(&st16;  676.48  63.24 )" ewd:textID="1">* 1 :Front Switch Type</text>
	</g>
	<g ewd:code="7" ewd:figID="35" ewd:comment="" ewd:figtype="comment">
		<text style="&st18;" transform="matrix(&st16;  676.48  114.24 )" ewd:textID="7">* 7 :Before Sep. 2022 Production</text>
	</g>
	<g ewd:code="8" ewd:figID="36" ewd:comment="" ewd:figtype="comment">
		<text style="&st18;" transform="matrix(&st16;  676.48  122.73 )" ewd:textID="8">* 8 :From Sep. 2022 Production</text>
	</g>
	<g ewd:code="6" ewd:figID="34" ewd:comment="" ewd:figtype="comment">
		<text style="&st18;" transform="matrix(&st16;  676.48  105.74 )" ewd:textID="6">* 6 :From Jul. 2021 Production</text>
	</g>
	<g ewd:code="3" ewd:figID="31" ewd:comment="" ewd:figtype="comment">
		<text style="&st18;" transform="matrix(&st16;  676.48  80.24 )" ewd:textID="3">* 3 :Pick-Up Body Type</text>
	</g>
	<g ewd:code="5" ewd:figID="33" ewd:comment="" ewd:figtype="comment">
		<text style="&st18;" transform="matrix(&st16;  676.48  97.24 )" ewd:textID="5">* 5 :Before Jul. 2021 Production</text>
	</g>
	<g ewd:code="2" ewd:figID="30" ewd:comment="" ewd:figtype="comment">
		<text style="&st18;" transform="matrix(&st16;  676.48  71.74 )" ewd:textID="2">* 2 :Rear Switch Type</text>
	</g>
	<path style="stroke-width: 1.42 ;&st7;  " d=" M   744.35,   443.71  L   739.38,   448.68  "/>
	<path style="stroke-width: 1.42 ;&st7;  " d=" M   751.40,   460.71  L   756.37,   455.74  "/>
	<path style="stroke-width: 1.42 ;&st7;  " d=" M   739.38,   455.74  L   744.35,   460.71  "/>
	<path style="stroke-width: 1.42 ;&st7;  " d=" M   756.37,   448.68  L   751.40,   443.71  "/>
	<path style="stroke-width: 1.42 ;&st7;  " d=" M   336.41,   418.22  L   331.44,   423.19  "/>
	<path style="stroke-width: 1.42 ;&st7;  " d=" M   343.47,   435.21  L   348.44,   430.24  "/>
	<path style="stroke-width: 1.42 ;&st7;  " d=" M   331.44,   430.24  L   336.41,   435.21  "/>
	<path style="stroke-width: 1.42 ;&st7;  " d=" M   348.44,   423.19  L   343.47,   418.22  "/>
	<path style="stroke-width: 1.42 ;&st7;  " d=" M   441.93,   469.21  L   450.42,   469.21  "/>
	<path style="stroke-width: 1.42 ;&st7;  " d=" M   399.43,   469.21  L   407.93,   469.21  "/>
	<path style="stroke-width: 1.42 ;&st7;  " d=" M   217.43,   154.76  L   212.46,   159.73  "/>
	<path style="stroke-width: 1.42 ;&st7;  " d=" M   224.49,   171.76  L   229.46,   166.79  "/>
	<path style="stroke-width: 1.42 ;&st7;  " d=" M   212.46,   166.79  L   217.43,   171.76  "/>
	<text style="&st18;" transform="matrix(&st17;  755.51  540.62 )">(RHD *1)</text>
	<path style="stroke-width: 1.42 ;&st7;  " d=" M   229.46,   159.73  L   224.49,   154.76  "/>
	<path style="stroke-width: 1.42 ;&st7;  " d=" M   705.38,   452.21  L   696.88,   452.21  "/>
	<path style="stroke-width: 1.42 ;&st7;  " d=" M   654.39,   452.21  L   645.89,   452.21  "/>
	<text style="&st18;" transform="matrix(&st17;  744.18  534.42 )">W-B</text>
	<path style="stroke-width: 1.42 ;&st7;  " d=" M   186.97,   435.21  L   178.47,   435.21  "/>
	<path style="stroke-width: 1.42 ;&st7;  " d=" M   271.95,   435.21  L   263.46,   435.21  "/>
	<text style="&st18;" transform="matrix(&st17;  415.57  579.43 )">(*2 *4)</text>
	<path style="stroke-width: 1.42 ;&st7;  " d=" M   399.43,   532.23  L   404.40,   537.20  "/>
	<path style="stroke-width: 1.42 ;&st7;  " d=" M   416.43,   525.17  L   411.46,   520.20  "/>
	<text style="&st18;" transform="matrix(&st17;  404.24  576.91 )">W-B</text>
	<text style="&st18;" transform="matrix(&st17;  228.6  200.74 )">(LHD)</text>
	<text style="&st18;" transform="matrix(&st17;  186.11  200.74 )">(LHD)</text>
	<text style="&st18;" transform="matrix(&st17;  174.77  194.77 )">P</text>
	<text style="&st18;" transform="matrix(&st17;  458.06  511.44 )">(*2 *3)</text>
	<text style="&st18;" transform="matrix(&st17;  109.62  141.75 )">(RHD)</text>
	<text style="&st18;" transform="matrix(&st17;  458.06  451.95 )">(*2 *3)</text>
	<text style="&st18;" transform="matrix(&st17;  228.6  141.25 )">(LHD)</text>
	<text style="&st18;" transform="matrix(&st17;  798.01  370.11 )">(LHD *1)</text>
	<text style="&st18;" transform="matrix(&st17;  786.67  364.45 )">W-B</text>
	<text style="&st18;" transform="matrix(&st17;  755.51  370.65 )">(RHD *1)</text>
	<text style="&st18;" transform="matrix(&st17;  446.73  508.92 )">W-B</text>
	<text style="&st18;" transform="matrix(&st17;  446.73  449.43 )">W-B</text>
	<text style="&st18;" transform="matrix(&st17;  744.18  364.45 )">W-B</text>
	<text style="&st18;" transform="matrix(&st17;  704.52  366.97 )">(*1 *7)</text>
	<text style="&st18;" transform="matrix(&st17;  693.19  363.05 )">L-Y</text>
	<text style="&st18;" transform="matrix(&st17;  653.53  366.97 )">(*1 *7)</text>
	<text style="&st18;" transform="matrix(&st17;  642.2  363.13 )">L-B</text>
	<text style="&st18;" transform="matrix(&st17;  704.52  536.94 )">(*1 *5)</text>
	<text style="&st18;" transform="matrix(&st17;  693.19  533.02 )">L-Y</text>
	<text style="&st18;" transform="matrix(&st17;  653.53  536.94 )">(*1 *5)</text>
	<text style="&st18;" transform="matrix(&st17;  642.2  533.1 )">L-B</text>
	<text style="&st18;" transform="matrix(&st17;  786.67  534.42 )">W-B</text>
	<text style="&st18;" transform="matrix(&st17;  798.01  540.08 )">(LHD *1)</text>
	<text style="&st18;" transform="matrix(&st17;  109.62  596.43 )">(*1 *5)</text>
	<text style="&st18;" transform="matrix(&st17;  98.29  592.51 )">L-Y</text>
	<text style="&st18;" transform="matrix(&st16;  218.78  601.49 )">Y(*2 *6)</text>
	<text style="&st18;" transform="matrix(&st16;  482.16  635.48 )">P(*1 *6)</text>
	<text style="&st18;" transform="matrix(&st16;  533.15  635.48 )">P(*1 *6)</text>
	<text style="&st18;" transform="matrix(&st16;  218.7  550.5 )">P(*2 *6)</text>
	<text style="&st18;" transform="matrix(&st17;  217.27  194.38 )">L</text>
	<text style="&st18;" transform="matrix(&st17;  217.27  134.89 )">L</text>
	<text style="&st18;" transform="matrix(&st17;  276.76  194.38 )">L</text>
	<text style="&st18;" transform="matrix(&st17;  288.09  201.24 )">(RHD)</text>
	<text style="&st18;" transform="matrix(&st17;  174.77  413.46 )">LG</text>
	<text style="&st18;" transform="matrix(&st17;  174.77  472.95 )">LG</text>
	<text style="&st18;" transform="matrix(&st17;  259.76  473.61 )">B-L</text>
	<text style="&st18;" transform="matrix(&st17;  234.26  470.97 )">V</text>
	<text style="&st18;" transform="matrix(&st17;  336.25  474.93 )">W-B</text>
	<text style="&st18;" transform="matrix(&st17;  271.09  477.45 )">(*2 *5)</text>
	<text style="&st18;" transform="matrix(&st17;  347.58  473.77 )">(*2)</text>
	<text style="&st18;" transform="matrix(&st17;  415.57  511.44 )">(*2 *4)</text>
	<text style="&st18;" transform="matrix(&st17;  404.24  508.92 )">W-B</text>
	<text style="&st18;" transform="matrix(&st17;  415.57  451.95 )">(*2 *4)</text>
	<text style="&st18;" transform="matrix(&st17;  98.29  135.28 )">P</text>
	<path style="stroke-width: 1.42 ;&st7;  " d=" M   404.40,   520.20  L   399.43,   525.17  "/>
	<path style="stroke-width: 1.42 ;&st7;  " d=" M   411.46,   537.20  L   416.43,   532.23  "/>
	<text style="&st18;" transform="matrix(&st17;  404.24  449.43 )">W-B</text>
	<text style="&st18;" transform="matrix(&st16;  479.52  372.03 )">B-L</text>
	<text style="&st18;" transform="matrix(&st16;  475.68  383.36 )">(*1 *7)</text>
	<text style="&st18;" transform="matrix(&st16;  547.51  372.03 )">B-L</text>
	<text style="&st18;" transform="matrix(&st16;  543.67  383.36 )">(*1 *7)</text>
	<text style="&st18;" transform="matrix(&st16;  479.52  618.48 )">L-B(*1 *5)</text>
	<text style="&st18;" transform="matrix(&st16;  530.52  618.48 )">L-B(*1 *5)</text>
	<text style="&st18;" transform="matrix(&st16;  479.6  652.48 )">L-Y(*1 *5)</text>
	<text style="&st18;" transform="matrix(&st17;  730.02  536.94 )">(*1 *6)</text>
	<text style="&st18;" transform="matrix(&st16;  530.59  652.48 )">L-Y(*1 *5)</text>
	<text style="&st18;" transform="matrix(&st17;  245.6  477.45 )">(*2 *6)</text>
	<text style="&st18;" transform="matrix(&st17;  186.11  141.25 )">(LHD)</text>
	<text style="&st18;" transform="matrix(&st17;  174.77  135.28 )">P</text>
	<text style="&st18;" transform="matrix(&st17;  98.29  194.77 )">P</text>
	<text style="&st18;" transform="matrix(&st17;  109.62  201.24 )">(RHD)</text>
	<text style="&st18;" transform="matrix(&st17;  276.76  134.89 )">L</text>
	<text style="&st18;" transform="matrix(&st17;  288.09  141.75 )">(RHD)</text>
	<text style="&st18;" transform="matrix(&st17;  186.11  473.77 )">(*5)</text>
	<text style="&st18;" transform="matrix(&st16;  533.23  669.48 )">Y(*1 *6)</text>
	<text style="&st18;" transform="matrix(&st17;  149.28  472.99 )">SB</text>
	<text style="&st18;" transform="matrix(&st17;  160.61  473.77 )">(*6)</text>
	<text style="&st18;" transform="matrix(&st16;  482.24  669.48 )">Y(*1 *6)</text>
	<text style="&st18;" transform="matrix(&st16;  216.07  567.49 )">L-B(*2 *5)</text>
	<text style="&st18;" transform="matrix(&st17;  718.68  530.35 )">Y</text>
	<text style="&st18;" transform="matrix(&st17;  679.02  536.94 )">(*1 *6)</text>
	<text style="&st18;" transform="matrix(&st17;  667.69  530.46 )">P</text>
	<text style="&st18;" transform="matrix(&st16;  216.15  584.49 )">L-Y(*2 *5)</text>
	<text style="&st18;" transform="matrix(&st17;  667.69  360.49 )">B</text>
	<text style="&st18;" transform="matrix(&st17;  679.02  366.97 )">(*1 *8)</text>
	<text style="&st18;" transform="matrix(&st17;  718.68  360.38 )">Y</text>
	<text style="&st18;" transform="matrix(&st17;  730.02  366.97 )">(*1 *8)</text>
	<text style="&st18;" transform="matrix(&st16;  471.18  355.03 )">GR(*1 *8)</text>
	<text style="&st18;" transform="matrix(&st16;  539.17  355.03 )">GR(*1 *8)</text>
	<text style="&st18;" transform="matrix(&st16;  241.56  389.02 )">B-L</text>
	<text style="&st18;" transform="matrix(&st16;  237.72  400.35 )">(*2 *7)</text>
	<text style="&st18;" transform="matrix(&st16;  216.22  406.02 )">GR</text>
	<text style="&st18;" transform="matrix(&st16;  212.22  417.35 )">(*2 *8)</text>
	<a ewd:figtype="w2w" style="cursor:pointer;" ewd:pinNo="6" ewd:code="IS2" ewd:figID="14">
		<path style="&st2;" d=" M   186.97,   426.71  L   169.97,   426.71  L   169.97,   435.21  L   186.97,   435.21  L   186.97,   426.71 "/>
		<text style="&st8;" transform="matrix(&st16;  174.11  433.08 )"><tspan x="0" style="&st18;" y="0">IS2</tspan></text>
	</a>
	<a ewd:figtype="w2w" style="cursor:pointer;" ewd:pinNo="7" ewd:code="IS3" ewd:figID="15">
		<path style="&st2;" d=" M   271.95,   426.71  L   254.96,   426.71  L   254.96,   435.21  L   271.95,   435.21  L   271.95,   426.71 "/>
		<text style="&st8;" transform="matrix(&st16;  259.09  433.08 )"><tspan x="0" style="&st18;" y="0">IS3</tspan></text>
	</a>
	<a ewd:figtype="w2w" style="cursor:pointer;" ewd:pinNo="13" ewd:code="TS2" ewd:figID="16">
		<path style="&st2;" d=" M   416.43,   469.21  L   399.43,   469.21  L   399.43,   477.71  L   416.43,   477.71  L   416.43,   469.21 "/>
		<text style="&st8;" transform="matrix(&st16;  402.59  475.58 )"><tspan x="0" style="&st18;" y="0">TS2</tspan></text>
	</a>
	<a ewd:figtype="w2w" style="cursor:pointer;" ewd:pinNo="11" ewd:code="TS2" ewd:figID="17">
		<path style="&st2;" d=" M   458.92,   469.21  L   441.93,   469.21  L   441.93,   477.71  L   458.92,   477.71  L   458.92,   469.21 "/>
		<text style="&st8;" transform="matrix(&st16;  445.08  475.58 )"><tspan x="0" style="&st18;" y="0">TS2</tspan></text>
	</a>
	<a ewd:figtype="w2w" style="cursor:pointer;" ewd:pinNo="2" ewd:code="IS2" ewd:figID="18">
		<path style="&st2;" d=" M   654.39,   443.71  L   637.39,   443.71  L   637.39,   452.21  L   654.39,   452.21  L   654.39,   443.71 "/>
		<text style="&st8;" transform="matrix(&st16;  641.53  450.08 )"><tspan x="0" style="&st18;" y="0">IS2</tspan></text>
	</a>
	<a ewd:figtype="w2w" style="cursor:pointer;" ewd:pinNo="3" ewd:code="IS2" ewd:figID="19">
		<path style="&st2;" d=" M   705.38,   443.71  L   688.38,   443.71  L   688.38,   452.21  L   705.38,   452.21  L   705.38,   443.71 "/>
		<text style="&st8;" transform="matrix(&st16;  692.52  450.08 )"><tspan x="0" style="&st18;" y="0">IS2</tspan></text>
	</a>
	<a ewd:figtype="gp" style="cursor:pointer;" ewd:code="TA" ewd:figID="20">
		<path style="&st2;" d=" M   397.31,   681.67  L   418.56,   681.67  L   407.93,   697.25  L   397.31,   681.67 "/>
		<text style="&st8;" transform="matrix(&st16;  404.21  689.46 )"><tspan x="0" style="&st18;" y="0">TA</tspan></text>
	</a>
	<a ewd:figtype="gp" style="cursor:pointer;" ewd:code="TB" ewd:figID="21">
		<path style="&st2;" d=" M   439.80,   681.67  L   461.05,   681.67  L   450.42,   697.25  L   439.80,   681.67 "/>
		<text style="&st8;" transform="matrix(&st16;  446.7  689.46 )"><tspan x="0" style="&st18;" y="0">TB</tspan></text>
	</a>
	<a ewd:figtype="gp" style="cursor:pointer;" ewd:code="IA" ewd:figID="22">
		<path style="&st2;" d=" M   737.25,   681.67  L   758.50,   681.67  L   747.88,   697.25  L   737.25,   681.67 "/>
		<text style="&st8;" transform="matrix(&st16;  745.13  689.46 )"><tspan x="0" style="&st18;" y="0">IA</tspan></text>
	</a>
	<a ewd:figtype="sp" style="cursor:pointer;" ewd:code="SP69" ewd:figID="23">
		<path style="&st2;" d=" M   216.71,   154.76  L   225.21,   154.76  L   229.46,   159.01  L   229.46,   167.51  L   225.21,   171.76  L   216.71,   171.76  L   212.46,   167.51  L   212.46,   159.01  L   216.71,   154.76 "/>
	</a>
	<a ewd:figtype="sp" style="cursor:pointer;" ewd:code="SP100" ewd:figID="24">
		<path style="&st2;" d=" M   335.69,   418.22  L   344.19,   418.22  L   348.44,   422.46  L   348.44,   430.96  L   344.19,   435.21  L   335.69,   435.21  L   331.44,   430.96  L   331.44,   422.46  L   335.69,   418.22 "/>
	</a>
	<a ewd:figtype="sp" style="cursor:pointer;" ewd:code="SP107" ewd:figID="25">
		<path style="&st2;" d=" M   403.68,   520.20  L   412.18,   520.20  L   416.43,   524.45  L   416.43,   532.95  L   412.18,   537.20  L   403.68,   537.20  L   399.43,   532.95  L   399.43,   524.45  L   403.68,   520.20 "/>
	</a>
	<a ewd:figtype="sp" style="cursor:pointer;" ewd:code="SP65" ewd:figID="26">
		<path style="&st2;" d=" M   743.63,   443.71  L   752.12,   443.71  L   756.37,   447.96  L   756.37,   456.46  L   752.12,   460.71  L   743.63,   460.71  L   739.38,   456.46  L   739.38,   447.96  L   743.63,   443.71 "/>
	</a>
</g>
</svg>