<?xml version="1.0" encoding="UTF-8"?>
<!DOCTYPE svg PUBLIC "-//W3C//DTD SVG 1.0//EN" "http://www.w3.org/TR/2001/REC-SVG-20010904/DTD/svg10.dtd"[
	<!ENTITY ns_flows "http://ns.adobe.com/Flows/1.0/">
	<!ENTITY ns_svg "http://www.w3.org/2000/svg">
	<!ENTITY ns_xlink "http://www.w3.org/1999/xlink">
	<!ENTITY st0 "font-size:7px;font-family:'MS-PGothic';adobe-font-script:japanese;">
	<!ENTITY st1 "font-size:6px;font-family:'ArialMT';">
	<!-- White fill  -->
	<!ENTITY st2 "fill:#FFFFFF;stroke:#000000; stroke-width:1.41;stroke-linecap:round;stroke-linejoin:round;">
	<!-- Yellow fill  -->
	<!ENTITY st3 "fill:#FFFFCC;stroke:#FFFFCC; stroke-width:0.1;stroke-linecap:round;stroke-linejoin:round;">
	<!-- Gray fill  -->
	<!ENTITY st4 "fill:#CCCCCC;stroke:#CCCCCC; stroke-width:0.1;stroke-linecap:round;stroke-linejoin:round;">
	<!-- Light-blue fill -->
	<!ENTITY st5 "fill:#CCECF4;stroke:#000000; stroke-width:1.133;stroke-linecap:round;stroke-linejoin:round;">
	<!ENTITY st6 "fill:none;stroke-linecap:butt; stroke-linejoin:round;">
	<!ENTITY st7 "fill:none;stroke:#000000;stroke-linecap:round;stroke-linejoin:round;">
	<!ENTITY st8 "enable-background:new    ;">
	<!-- Black fill -->
	<!ENTITY st9 "fill:#000000;stroke:#000000; stroke-linecap:round;stroke-linejoin:round;">
	<!-- SRS note   -->
	<!ENTITY st10 "font-size:9px;font-family:'ArialMT';">
	<!ENTITY st11 "font-size:9px;font-family:'Svg Symbol';">
	<!ENTITY st12 "font-size:6px;font-family:'Svg Symbol';">
	<!ENTITY st13 "fill:none;stroke:#ff0000;stroke-linecap:round;stroke-linejoin:round;">
	<!-- Yellow fill  -->
	<!ENTITY st14 "fill:#FFFF00;stroke:#FFFF00; stroke-width:0.1;stroke-linecap:round;stroke-linejoin:round;">
	<!ENTITY st15 "font-size:6px;font-family:'MS-PGothic';adobe-font-script:japanese;">
	<!ENTITY st16 "1.00 0.00 0.00 1.00">
	<!ENTITY st17 "0.00 -1.00 1.00 0.00">
	<!ENTITY st18 "font-size:6px;font-family:'Arial';">
	<!ENTITY st19 "font-size:9px;font-family:'Arial';">
	<!ENTITY st20 "font-size:6px;font-family:'MS-PGothic','MS PGothic';adobe-font-script:japanese;">
	<!ENTITY st21 "font-size:7px;font-family:'MS-PGothic','MS PGothic';adobe-font-script:japanese;">
	<!ATTLIST svg
		xmlns:ewd CDATA #FIXED "http://shcl.co.jp/ewd"
		xmlns:a CDATA #FIXED "http://ns.adobe.com/AdobeSVGViewerExtensions/3.0/"
		ewd:ver CDATA #IMPLIED
	>
	<!ATTLIST a
		ewd:lineID CDATA #IMPLIED
		ewd:groupID CDATA #IMPLIED
		ewd:figtype CDATA #IMPLIED
		ewd:code CDATA #IMPLIED
		ewd:figID CDATA #IMPLIED
		ewd:pinNo CDATA #IMPLIED
		ewd:comment CDATA #IMPLIED >
	<!ATTLIST g
		ewd:lineID CDATA #IMPLIED
		ewd:groupID CDATA #IMPLIED
		ewd:figtype CDATA #IMPLIED
		ewd:code CDATA #IMPLIED
		ewd:figID CDATA #IMPLIED
		ewd:pinNo CDATA #IMPLIED
		ewd:comment CDATA #IMPLIED >
	<!ATTLIST text
		ewd:textID CDATA #IMPLIED >
	<!ATTLIST title
		ewd:textID CDATA #IMPLIED >
]>
<!-- Generator: Shintec Hozumi YS   -->
<svg onload="call_execInitLoadProc_svg('system')" style="overflow:visible;  enable-background:new 0 0 1006.205 710.000" viewBox="0 0 1006.205 710.000" height="710.000" width="1006.205" xml:space="preserve" ewd:ver="2.3.1.16" xmlns="&ns_svg;" xmlns:a="http://ns.adobe.com/AdobeSVGViewerExtensions/3.0/" xmlns:ewd="http://shcl.co.jp/ewd" xmlns:xlink="&ns_xlink;">
	<script type="text/javascript" xlink:href="../../../../../system/js/ewd/fig/svgfig.js"/>
<g id="ewd_top">
	<a ewd:figtype="conn" style="cursor:pointer;" ewd:code="a1" ewd:figID="1">
		<path style="fill:#CCECF4;stroke:#000000; stroke-width:1.133; stroke-linecap:round;stroke-linejoin:round; " d=" M   866.86,   460.71  L   985.84,   460.71  L   985.84,   392.72  L   866.86,   392.72  L   866.86,   460.71 "/>
		<title ewd:textID="8">Rear Wiper Motor Assembly</title>
	</a>
	<a ewd:figtype="conn" style="cursor:pointer;" ewd:code="I93" ewd:figID="2">
		<path style="fill:#CCECF4;stroke:#000000; stroke-width:1.133; stroke-linecap:round;stroke-linejoin:round; " d=" M   824.36,   630.68  L   841.36,   630.68  L   841.36,   647.68  L   824.36,   647.68  L   824.36,   630.68 "/>
		<title ewd:textID="3">No. 5 Junction Connector</title>
	</a>
	<a ewd:figtype="conn" style="cursor:pointer;" ewd:code="S11" ewd:figID="3">
		<path style="fill:#CCECF4;stroke:#000000; stroke-width:1.133; stroke-linecap:round;stroke-linejoin:round; " d=" M   365.44,   494.70  L   407.93,   494.70  L   407.93,   443.71  L   365.44,   443.71  L   365.44,   494.70 "/>
		<title ewd:textID="7">Rear Washer Motor Assembly</title>
	</a>
	<a ewd:figtype="conn" style="cursor:pointer;" ewd:code="L22,L23" ewd:figID="4">
		<path style="fill:#CCECF4;stroke:#000000; stroke-width:1.133; stroke-linecap:round;stroke-linejoin:round; " d=" M    84.99,   392.72  L    84.99,   494.70  L   271.95,   494.70  L   271.95,   392.72  L    84.99,   392.72 "/>
		<title ewd:textID="11">Windshield Wiper Switch Assembly</title>
	</a>
	<a ewd:figtype="conn" style="cursor:pointer;" ewd:code="L53" ewd:figID="5">
		<path style="fill:#CCECF4;stroke:#000000; stroke-width:1.133; stroke-linecap:round;stroke-linejoin:round; " d=" M   144.48,   596.69  L   161.47,   596.69  L   161.47,   613.68  L   144.48,   613.68  L   144.48,   596.69 "/>
		<title ewd:textID="5">No. 31 Junction Connector</title>
	</a>
	<a ewd:figtype="conn" style="cursor:pointer;" ewd:code="S9" ewd:figID="6">
		<path style="fill:#CCECF4;stroke:#000000; stroke-width:1.133; stroke-linecap:round;stroke-linejoin:round; " d=" M   586.40,   477.71  L   824.36,   477.71  L   824.36,   435.21  L   586.40,   435.21  L   586.40,   477.71 "/>
		<title ewd:textID="9">Rear Wiper Relay Assembly</title>
	</a>
	<a ewd:figtype="conn" style="cursor:pointer;" ewd:code="I109" ewd:figID="7">
		<path style="fill:#CCECF4;stroke:#000000; stroke-width:1.133; stroke-linecap:round;stroke-linejoin:round; " d=" M   594.90,   154.76  L   611.90,   154.76  L   611.90,   171.76  L   594.90,   171.76  L   594.90,   154.76 "/>
		<title ewd:textID="4">No. 13 Junction Connector</title>
	</a>
	<a ewd:figtype="rb" style="cursor:pointer;" ewd:code="FUSE32" ewd:figID="8">
		<path style="fill:#CCECF4;stroke:#000000; stroke-width:0; stroke-linecap:round;stroke-linejoin:round; " d=" M   590.65,    35.78  L   590.65,    78.27  L   616.15,    78.27  L   616.15,    35.78  L   590.65,    35.78 "/>
	</a>
	<a ewd:figtype="fuse" style="cursor:pointer;" ewd:code="FUSE32" ewd:figID="29">
		<path style="&st7; stroke-width:0;" d=" M   590.65,    35.78  L   590.65,    78.27  L   616.15,    78.27  L   616.15,    35.78  L   590.65,    35.78 "/>
	</a>
	<a style="cursor:pointer;" ewd:lineID="1">
		<path style="stroke:#000000;stroke-width: 5.10 ;&st6;" d=" M   144.48,   605.18  L   101.98,   605.18  L   101.98,   681.67  "/>
		<path style="stroke:#FFFFFF;stroke-width: 4.53 ;&st6;" d=" M   144.48,   605.18  L   101.98,   605.18  L   101.98,   681.67  "/>
		<path style="stroke:#000000;stroke-width: 1.13 ;&st6;" d=" M   144.48,   605.18  L   101.98,   605.18  L   101.98,   681.67  "/>
	</a>
	<a style="cursor:pointer;" ewd:lineID="2">
		<path style="stroke:#000000;stroke-width: 5.10 ;&st6;" d=" M   152.97,   681.67  L   152.97,   613.68  "/>
		<path style="stroke:#FFFFFF;stroke-width: 4.53 ;&st6;" d=" M   152.97,   681.67  L   152.97,   613.68  "/>
		<path style="stroke:#000000;stroke-width: 1.13 ;&st6;" d=" M   152.97,   681.67  L   152.97,   613.68  "/>
	</a>
	<a style="cursor:pointer;" ewd:lineID="3">
		<path style="stroke:#000000;stroke-width: 5.10 ;&st6;" d=" M   152.97,   596.69  L   152.97,   554.19  "/>
		<path style="stroke:#FFFFFF;stroke-width: 4.53 ;&st6;" d=" M   152.97,   596.69  L   152.97,   554.19  "/>
		<path style="stroke:#000000;stroke-width: 1.13 ;&st6;" d=" M   152.97,   596.69  L   152.97,   554.19  "/>
	</a>
	<a style="cursor:pointer;" ewd:lineID="4">
		<path style="stroke:#000000;stroke-width: 5.10 ;&st6;" d=" M   152.97,   537.20  L   152.97,   503.77  "/>
		<path style="stroke:#FFFFFF;stroke-width: 4.53 ;&st6;" d=" M   152.97,   537.20  L   152.97,   503.77  "/>
		<path style="stroke:#000000;stroke-width: 1.13 ;&st6;" d=" M   152.97,   537.20  L   152.97,   503.77  "/>
	</a>
	<a ewd:comment="2" style="cursor:pointer;" ewd:lineID="5">
		<path style="stroke:#008837;stroke-width: 5.10 ;&st6;" d=" M   186.97,   374.59  L   186.97,   367.22  L   178.47,   358.73  L   161.47,   358.73  L   161.47,   256.74  L   713.88,   256.74  L   713.88,   324.73  L   696.88,   341.73  L   696.88,   350.23  "/>
	</a>
	<a ewd:comment="2" style="cursor:pointer;" ewd:lineID="6">
		<path style="stroke:#000000;stroke-width: 5.10 ;&st6;" d=" M   220.96,   374.59  L   220.96,   367.22  L   229.46,   358.73  L   246.46,   358.73  L   246.46,   333.23  L   628.89,   333.23  L   637.39,   341.73  L   637.39,   350.23  "/>
	</a>
	<a ewd:comment="1" style="cursor:pointer;" ewd:lineID="7">
		<path style="stroke:#7FC97F;stroke-width: 5.10 ;&st6;" d=" M   220.96,   374.59  L   220.96,   316.23  L   637.39,   316.23  L   637.39,   350.23  "/>
		<path style="stroke:#FFFFFF;stroke-width: 2.27 ;&st6;" d=" M   220.96,   374.59  L   220.96,   316.23  L   637.39,   316.23  L   637.39,   350.23  "/>
		<path style="stroke:#000000;stroke-width: 1.13 ;&st6;" d=" M   220.96,   374.59  L   220.96,   316.23  L   637.39,   316.23  L   637.39,   350.23  "/>
	</a>
	<a ewd:comment="2" style="cursor:pointer;" ewd:lineID="8">
		<path style="stroke:#00A0C6;stroke-width: 5.10 ;&st6;" d=" M   254.96,   585.92  L   254.96,   622.18  L   407.93,   622.18  L   407.93,   511.70  L   390.93,   511.70  L   382.44,   503.20  L   382.44,   494.70  "/>
	</a>
	<a ewd:comment="2" style="cursor:pointer;" ewd:lineID="9">
		<path style="stroke:#008837;stroke-width: 5.10 ;&st6;" d=" M   254.96,   571.19  L   254.96,   562.69  L   263.46,   554.19  L   280.45,   554.19  L   280.45,   528.70  L   263.46,   528.70  L   254.96,   520.20  L   254.96,   512.83  "/>
	</a>
	<a ewd:comment="1" style="cursor:pointer;" ewd:lineID="10">
		<path style="stroke:#00A0C6;stroke-width: 5.10 ;&st6;" d=" M   254.96,   512.83  L   254.96,   571.19  "/>
		<path style="stroke:#FFFFFF;stroke-width: 2.27 ;&st6;" d=" M   254.96,   512.83  L   254.96,   571.19  "/>
		<path style="stroke:#FF7F00;stroke-width: 1.13 ;&st6;" d=" M   254.96,   512.83  L   254.96,   571.19  "/>
	</a>
	<a ewd:comment="1" style="cursor:pointer;" ewd:lineID="11">
		<path style="stroke:#00A0C6;stroke-width: 5.10 ;&st6;" d=" M   382.44,   494.70  L   382.44,   596.69  L   263.46,   596.69  L   254.96,   588.19  L   254.96,   586.20  "/>
		<path style="stroke:#FFFFFF;stroke-width: 2.27 ;&st6;" d=" M   382.44,   494.70  L   382.44,   596.69  L   263.46,   596.69  L   254.96,   588.19  L   254.96,   586.20  "/>
		<path style="stroke:#FF7F00;stroke-width: 1.13 ;&st6;" d=" M   382.44,   494.70  L   382.44,   596.69  L   263.46,   596.69  L   254.96,   588.19  L   254.96,   586.20  "/>
	</a>
	<a style="cursor:pointer;" ewd:lineID="12">
		<path style="stroke:#00A0C6;stroke-width: 5.10 ;&st6;" d=" M   382.44,   443.71  L   382.44,   273.74  L   594.90,   273.74  "/>
	</a>
	<a style="cursor:pointer;" ewd:lineID="13">
		<path style="stroke:#00A0C6;stroke-width: 5.10 ;&st6;" d=" M   603.40,   435.21  L   603.40,   282.24  "/>
	</a>
	<a style="cursor:pointer;" ewd:lineID="14">
		<path style="stroke:#00A0C6;stroke-width: 5.10 ;&st6;" d=" M   603.40,   237.48  L   603.40,   265.24  "/>
	</a>
	<a style="cursor:pointer;" ewd:lineID="15">
		<path style="stroke:#00A0C6;stroke-width: 5.10 ;&st6;" d=" M   603.40,   180.82  L   603.40,   222.75  "/>
	</a>
	<a style="cursor:pointer;" ewd:lineID="16">
		<path style="stroke:#00A0C6;stroke-width: 5.10 ;&st6;" d=" M   603.40,   145.69  L   603.40,   103.77  "/>
	</a>
	<a style="cursor:pointer;" ewd:lineID="17">
		<path style="stroke:#00A0C6;stroke-width: 5.10 ;&st6;" d=" M   603.40,   103.77  L   603.40,   112.27  L   611.90,   120.77  L   654.39,   120.77  L   654.39,   154.76  "/>
	</a>
	<a ewd:comment="1" style="cursor:pointer;" ewd:lineID="18">
		<path style="stroke:#7FC97F;stroke-width: 5.10 ;&st6;" d=" M   637.39,   435.21  L   637.39,   365.24  "/>
		<path style="stroke:#FFFFFF;stroke-width: 2.27 ;&st6;" d=" M   637.39,   435.21  L   637.39,   365.24  "/>
		<path style="stroke:#000000;stroke-width: 1.13 ;&st6;" d=" M   637.39,   435.21  L   637.39,   365.24  "/>
	</a>
	<a ewd:comment="2" style="cursor:pointer;" ewd:lineID="19">
		<path style="stroke:#000000;stroke-width: 5.10 ;&st6;" d=" M   637.39,   364.96  L   637.39,   367.22  L   645.89,   375.72  L   662.89,   375.72  L   662.89,   418.22  L   645.89,   418.22  L   637.39,   426.71  L   637.39,   435.21  "/>
	</a>
	<a style="cursor:pointer;" ewd:lineID="20">
		<path style="stroke:#00A0C6;stroke-width: 5.10 ;&st6;" d=" M   654.39,   171.76  L   654.39,   205.75  L   611.90,   205.75  L   603.40,   214.25  L   603.40,   222.75  "/>
	</a>
	<a ewd:comment="1" style="cursor:pointer;" ewd:lineID="21">
		<path style="stroke:#00A0C6;stroke-width: 5.10 ;&st6;" d=" M   696.88,   435.21  L   696.88,   365.24  "/>
		<path style="stroke:#FFFFFF;stroke-width: 1.13 ;&st6;" d=" M   696.88,   435.21  L   696.88,   365.24  "/>
	</a>
	<a ewd:comment="2" style="cursor:pointer;" ewd:lineID="22">
		<path style="stroke:#008837;stroke-width: 5.10 ;&st6;" d=" M   696.88,   364.96  L   696.88,   367.22  L   705.38,   375.72  L   722.38,   375.72  L   722.38,   418.22  L   705.38,   418.22  L   696.88,   426.71  L   696.88,   435.21  "/>
	</a>
	<a ewd:comment="1" style="cursor:pointer;" ewd:lineID="23">
		<path style="stroke:#00A0C6;stroke-width: 5.10 ;&st6;" d=" M   696.88,   350.23  L   696.88,   299.24  L   186.97,   299.24  L   186.97,   374.59  "/>
		<path style="stroke:#FFFFFF;stroke-width: 1.13 ;&st6;" d=" M   696.88,   350.23  L   696.88,   299.24  L   186.97,   299.24  L   186.97,   374.59  "/>
	</a>
	<a ewd:comment="1" style="cursor:pointer;" ewd:lineID="24">
		<path style="stroke:#00A0C6;stroke-width: 5.10 ;&st6;" d=" M   747.88,   435.21  L   747.88,   290.74  L   926.35,   290.74  L   926.35,   352.21  "/>
		<path style="stroke:#FFFFFF;stroke-width: 2.27 ;&st6;" d=" M   747.88,   435.21  L   747.88,   290.74  L   926.35,   290.74  L   926.35,   352.21  "/>
		<path style="stroke:#FFE600;stroke-width: 1.13 ;&st6;" d=" M   747.88,   435.21  L   747.88,   290.74  L   926.35,   290.74  L   926.35,   352.21  "/>
	</a>
	<a ewd:comment="2" style="cursor:pointer;" ewd:lineID="25">
		<path style="stroke:#FF0000;stroke-width: 5.10 ;&st6;" d=" M   747.88,   435.21  L   747.88,   426.71  L   756.37,   418.22  L   773.37,   418.22  L   773.37,   307.73  L   909.35,   307.73  L   909.35,   333.23  L   926.35,   350.23  L   926.35,   352.49  "/>
	</a>
	<a ewd:comment="1" style="cursor:pointer;" ewd:lineID="26">
		<path style="stroke:#7FC97F;stroke-width: 5.10 ;&st6;" d=" M   807.37,   435.21  L   807.37,   324.73  L   883.85,   324.73  L   883.85,   352.49  "/>
	</a>
	<a style="cursor:pointer;" ewd:lineID="27">
		<path style="stroke:#000000;stroke-width: 5.10 ;&st6;" d=" M   832.86,   656.74  L   832.86,   681.67  "/>
		<path style="stroke:#FFFFFF;stroke-width: 4.53 ;&st6;" d=" M   832.86,   656.74  L   832.86,   681.67  "/>
		<path style="stroke:#000000;stroke-width: 1.13 ;&st6;" d=" M   832.86,   656.74  L   832.86,   681.67  "/>
	</a>
	<a style="cursor:pointer;" ewd:lineID="28">
		<path style="stroke:#000000;stroke-width: 5.10 ;&st6;" d=" M   832.86,   596.69  L   832.86,   621.61  "/>
		<path style="stroke:#FFFFFF;stroke-width: 4.53 ;&st6;" d=" M   832.86,   596.69  L   832.86,   621.61  "/>
		<path style="stroke:#000000;stroke-width: 1.13 ;&st6;" d=" M   832.86,   596.69  L   832.86,   621.61  "/>
	</a>
	<a style="cursor:pointer;" ewd:lineID="29">
		<path style="stroke:#000000;stroke-width: 5.10 ;&st6;" d=" M   875.35,   545.69  L   832.86,   545.69  L   832.86,   581.95  "/>
		<path style="stroke:#FFFFFF;stroke-width: 4.53 ;&st6;" d=" M   875.35,   545.69  L   832.86,   545.69  L   832.86,   581.95  "/>
		<path style="stroke:#000000;stroke-width: 1.13 ;&st6;" d=" M   875.35,   545.69  L   832.86,   545.69  L   832.86,   581.95  "/>
	</a>
	<a style="cursor:pointer;" ewd:lineID="30">
		<path style="stroke:#000000;stroke-width: 5.10 ;&st6;" d=" M   883.85,   647.68  L   883.85,   681.67  "/>
		<path style="stroke:#FFFFFF;stroke-width: 4.53 ;&st6;" d=" M   883.85,   647.68  L   883.85,   681.67  "/>
		<path style="stroke:#000000;stroke-width: 1.13 ;&st6;" d=" M   883.85,   647.68  L   883.85,   681.67  "/>
	</a>
	<a style="cursor:pointer;" ewd:lineID="31">
		<path style="stroke:#000000;stroke-width: 5.10 ;&st6;" d=" M   883.85,   596.69  L   883.85,   630.68  "/>
		<path style="stroke:#FFFFFF;stroke-width: 4.53 ;&st6;" d=" M   883.85,   596.69  L   883.85,   630.68  "/>
		<path style="stroke:#000000;stroke-width: 1.13 ;&st6;" d=" M   883.85,   596.69  L   883.85,   630.68  "/>
	</a>
	<a style="cursor:pointer;" ewd:lineID="32">
		<path style="stroke:#000000;stroke-width: 5.10 ;&st6;" d=" M   883.85,   581.95  L   883.85,   554.19  "/>
		<path style="stroke:#FFFFFF;stroke-width: 4.53 ;&st6;" d=" M   883.85,   581.95  L   883.85,   554.19  "/>
		<path style="stroke:#000000;stroke-width: 1.13 ;&st6;" d=" M   883.85,   581.95  L   883.85,   554.19  "/>
	</a>
	<a style="cursor:pointer;" ewd:lineID="33">
		<path style="stroke:#000000;stroke-width: 5.10 ;&st6;" d=" M   883.85,   537.20  L   883.85,   509.43  "/>
		<path style="stroke:#FFFFFF;stroke-width: 4.53 ;&st6;" d=" M   883.85,   537.20  L   883.85,   509.43  "/>
		<path style="stroke:#000000;stroke-width: 1.13 ;&st6;" d=" M   883.85,   537.20  L   883.85,   509.43  "/>
	</a>
	<a style="cursor:pointer;" ewd:lineID="34">
		<path style="stroke:#000000;stroke-width: 5.10 ;&st6;" d=" M   883.85,   494.70  L   883.85,   460.71  "/>
		<path style="stroke:#FFFFFF;stroke-width: 4.53 ;&st6;" d=" M   883.85,   494.70  L   883.85,   460.71  "/>
		<path style="stroke:#000000;stroke-width: 1.13 ;&st6;" d=" M   883.85,   494.70  L   883.85,   460.71  "/>
	</a>
	<a style="cursor:pointer;" ewd:lineID="35">
		<path style="stroke:#F668B2;stroke-width: 5.10 ;&st6;" d=" M   883.85,   392.72  L   883.85,   367.22  "/>
	</a>
	<a ewd:comment="2" style="cursor:pointer;" ewd:lineID="36">
		<path style="stroke:#F668B2;stroke-width: 5.10 ;&st6;" d=" M   883.85,   352.49  L   883.85,   350.23  L   875.35,   341.73  L   832.86,   341.73  L   832.86,   418.22  L   815.86,   418.22  L   807.37,   426.71  L   807.37,   435.21  "/>
	</a>
	<a style="cursor:pointer;" ewd:lineID="37">
		<path style="stroke:#FFE600;stroke-width: 5.10 ;&st6;" d=" M   926.35,   392.72  L   926.35,   367.22  "/>
	</a>
	<a style="cursor:pointer;" ewd:lineID="38">
		<path style="stroke:#00A0C6;stroke-width: 5.10 ;&st6;" d=" M   968.84,   392.72  L   968.84,   367.22  "/>
	</a>
	<a style="cursor:pointer;" ewd:lineID="39">
		<path style="stroke:#00A0C6;stroke-width: 5.10 ;&st6;" d=" M   968.84,   352.49  L   968.84,   273.74  L   611.90,   273.74  "/>
	</a>
	<g ewd:figtype="conn" ewd:figID="1" ewd:code="a1">
		<path style="stroke-width: 1.42 ;&st7;  " d=" M   879.60,   429.55  L   888.10,   429.55  "/>
		<path style="stroke-width: 1.42 ;&st7;  " d=" M   879.60,   425.58  L   879.60,   429.55  "/>
		<path style="stroke-width: 1.42 ;&st7;  " d=" M   888.10,   429.55  L   888.10,   425.58  "/>
		<path style="stroke-width: 1.42 ;&st7;  " d=" M   879.60,   406.88  L   888.10,   406.88  "/>
		<path style="stroke-width: 1.42 ;&st7;  " d=" M   879.60,   410.85  L   879.60,   406.88  "/>
		<path style="stroke-width: 1.42 ;&st7;  " d=" M   888.10,   406.88  L   888.10,   410.85  "/>
		<path style="stroke-width: 1.42 ;&st7;  " d=" M   946.18,   426.43  L   927.76,   418.22  "/>
		<path style="stroke-width: 1.42 ;&st7;   " d=" M   875.35,   418.22  C   875.35    422.91    879.16    426.71    883.85    426.71  "/>
		<path style="stroke-width: 1.42 ;&st7;   " d=" M   883.85,   426.71  C   888.55    426.71    892.35    422.91    892.35    418.22  "/>
		<path style="stroke-width: 1.42 ;&st7;   " d=" M   892.35,   418.22  C   892.35    413.52    888.55    409.72    883.85    409.72  "/>
		<path style="stroke-width: 1.42 ;&st7;   " d=" M   883.85,   409.72  C   879.16    409.72    875.35    413.52    875.35    418.22  "/>
		<path style="stroke-width: 0.85 ;&st7;   " d=" M   944.76,   426.71  C   944.76    425.93    944.12    425.30    943.34    425.30  "/>
		<path style="stroke-width: 0.85 ;&st7;   " d=" M   943.34,   425.30  C   942.56    425.30    941.93    425.93    941.93    426.71  "/>
		<path style="stroke-width: 0.85 ;&st7;   " d=" M   941.93,   426.71  C   941.93    427.50    942.56    428.13    943.34    428.13  "/>
		<path style="stroke-width: 0.85 ;&st7;   " d=" M   943.34,   428.13  C   944.12    428.13    944.76    427.50    944.76    426.71  "/>
		<path style="stroke-width: 0.85 ;&st7;   " d=" M   944.76,   409.72  C   944.76    408.93    944.12    408.30    943.34    408.30  "/>
		<path style="stroke-width: 0.85 ;&st7;   " d=" M   943.34,   408.30  C   942.56    408.30    941.93    408.93    941.93    409.72  "/>
		<path style="stroke-width: 0.85 ;&st7;   " d=" M   941.93,   409.72  C   941.93    410.50    942.56    411.13    943.34    411.13  "/>
		<path style="stroke-width: 0.85 ;&st7;   " d=" M   943.34,   411.13  C   944.12    411.13    944.76    410.50    944.76    409.72  "/>
		<path style="stroke-width: 0.85 ;&st7;   " d=" M   934.84,   421.33  C   937.48    418.81    937.65    414.68    935.22    411.95  "/>
		<path style="stroke-width: 0.85 ;&st7;   " d=" M   927.76,   418.22  C   927.76    417.43    927.13    416.80    926.35    416.80  "/>
		<path style="stroke-width: 0.85 ;&st7;   " d=" M   926.35,   416.80  C   925.56    416.80    924.93    417.43    924.93    418.22  "/>
		<path style="stroke-width: 0.85 ;&st7;   " d=" M   924.93,   418.22  C   924.93    419.00    925.56    419.63    926.35    419.63  "/>
		<path style="stroke-width: 0.85 ;&st7;   " d=" M   926.35,   419.63  C   927.13    419.63    927.76    419.00    927.76    418.22  "/>
		<path style="stroke-width: 0.85 ;&st7;   " d=" M   931.59,   412.53  C   930.12    415.87    931.56    419.75    934.84    421.33  "/>
		<path style="stroke-width: 0.85 ;&st7;   " d=" M   935.22,   411.95  C   934.36    411.06    932.94    411.03    932.05    411.89  "/>
		<path style="stroke-width: 0.85 ;&st7;   " d=" M   932.05,   411.89  C   931.85    412.08    931.71    412.28    931.59    412.53  "/>
		<path style="stroke-width: 0.85 ;&st7;   " d=" M   934.58,   415.18  C   934.58    414.78    934.26    414.47    933.87    414.47  "/>
		<path style="stroke-width: 0.85 ;&st7;   " d=" M   933.87,   414.47  C   933.48    414.47    933.16    414.78    933.16    415.18  "/>
		<path style="stroke-width: 0.85 ;&st7;   " d=" M   933.16,   415.18  C   933.16    415.57    933.48    415.88    933.87    415.88  "/>
		<path style="stroke-width: 0.85 ;&st7;   " d=" M   933.87,   415.88  C   934.26    415.88    934.58    415.57    934.58    415.18  "/>
		<path style="stroke-width: 1.42 ;&st7;  " d=" M   866.85,   460.71  L   985.83,   460.71  L   985.83,   392.72  L   866.85,   392.72  L   866.85,   460.71  "/>
		<path style="stroke-width: 0.85 ;&st7;  " d=" M   882.66,   442.71  L   882.39,   443.18  L   882.29,   443.71  L   882.39,   444.24  L   882.66,   444.71  L   883.07,   445.06  L   883.58,   445.25  L   884.12,   445.25  L   884.63,   445.06  L   885.04,   444.71  L   885.32,   444.24  L   885.41,   443.71  L   885.32,   443.18  L   885.04,   442.71  L   884.63,   442.36  L   884.12,   442.18  L   883.58,   442.18  L   883.07,   442.36  L   882.66,   442.71  L   883.05,   443.42  L   883.05,   444.00  L   883.43,   444.45  L   884.00,   444.55  L   884.50,   444.26  L   884.70,   443.71  L   884.50,   443.16  L   884.00,   442.88  L   883.43,   442.97  L   883.85,   443.71  "/>
		<path style="stroke-width: 0.85 ;&st7;  " d=" M   926.34,   392.72  L   926.34,   416.80  "/>
		<path style="stroke-width: 0.85 ;&st7;  " d=" M   883.85,   429.55  L   883.85,   460.71  "/>
		<path style="stroke-width: 0.85 ;&st7;  " d=" M   883.85,   443.71  L   943.34,   443.71  L   943.34,   428.13  "/>
		<path style="stroke-width: 0.85 ;&st7;  " d=" M   883.85,   392.72  L   883.85,   406.88  "/>
		<path style="stroke-width: 0.85 ;&st7;  " d=" M   944.76,   409.72  L   968.84,   409.72  L   968.84,   392.72  "/>
		<text style="&st18;" transform="matrix(&st16;  881.12  420.18 )">M</text>
		<text style="&st18;" transform="matrix(&st16;  971.42  400.91 )">B</text>
		<text style="&st18;" transform="matrix(&st16;  886.44  457.02 )">E</text>
		<text style="&st18;" transform="matrix(&st16;  928.93  400.91 )">S</text>
		<text style="&st18;" transform="matrix(&st16;  886.44  400.91 )">+1</text>
		<text style="&st18;" transform="matrix(&st16;  877.51  468.9 )">2</text>
		<text style="&st18;" transform="matrix(&st16;  877.51  389.03 )">3</text>
		<text style="&st18;" transform="matrix(&st16;  920.01  389.03 )">4</text>
		<text style="&st18;" transform="matrix(&st16;  962.5  389.03 )">1</text>
		<g ewd:figtype="title">
			<text style="&st18;" transform="matrix(&st17;  1000.55  463.61 )" ewd:textID="8">Rear Wiper Motor Assembly</text>
			<text style="&st18;" transform="matrix(&st17;  993.73  463.61 )">a1</text>
		</g>
	</g>
	<g ewd:figtype="conn" ewd:figID="2" ewd:code="I93">
		<path style="stroke-width: 0.85 ;&st7;  " d=" M   832.86,   630.68  L   832.86,   647.68  "/>
		<path style="stroke-width: 1.42 ;&st7;  " d=" M   824.36,   630.68  L   841.36,   630.68  L   841.36,   647.68  L   824.36,   647.68  L   824.36,   630.68  "/>
		<text style="&st18;" transform="matrix(&st16;  823.38  654.18 )">1</text>
		<text style="&st18;" transform="matrix(&st16;  830.6  654.18 )">A</text>
		<path style="stroke-width: 1.42 ;&st7;   " d=" M   837.39,   652.21  C   837.39    649.71    835.36    647.68    832.86    647.68  "/>
		<path style="stroke-width: 1.42 ;&st7;   " d=" M   832.86,   647.68  C   830.36    647.68    828.33    649.71    828.33    652.21  "/>
		<path style="stroke-width: 1.42 ;&st7;   " d=" M   828.33,   652.21  C   828.33    654.71    830.36    656.74    832.86    656.74  "/>
		<path style="stroke-width: 1.42 ;&st7;   " d=" M   832.86,   656.74  C   835.36    656.74    837.39    654.71    837.39    652.21  "/>
		<text style="&st18;" transform="matrix(&st16;  823.38  628.12 )">6</text>
		<text style="&st18;" transform="matrix(&st16;  830.6  628.12 )">A</text>
		<path style="stroke-width: 1.42 ;&st7;   " d=" M   837.39,   626.15  C   837.39    623.64    835.36    621.61    832.86    621.61  "/>
		<path style="stroke-width: 1.42 ;&st7;   " d=" M   832.86,   621.61  C   830.36    621.61    828.33    623.64    828.33    626.15  "/>
		<path style="stroke-width: 1.42 ;&st7;   " d=" M   828.33,   626.15  C   828.33    628.65    830.36    630.68    832.86    630.68  "/>
		<path style="stroke-width: 1.42 ;&st7;   " d=" M   832.86,   630.68  C   835.36    630.68    837.39    628.65    837.39    626.15  "/>
		<g ewd:figtype="title">
			<text style="&st18;" transform="matrix(&st17;  849.25  650.58 )">I93(A)</text>
			<text style="&st18;" transform="matrix(&st17;  856.08  650.58 )" ewd:textID="3">No. 5 Junction <tspan x="0 " dy="6.0">Connector</tspan></text>
		</g>
	</g>
	<g ewd:figtype="conn" ewd:figID="3" ewd:code="S11">
		<path style="stroke-width: 1.42 ;&st7;  " d=" M   378.19,   480.54  L   386.69,   480.54  "/>
		<path style="stroke-width: 1.42 ;&st7;  " d=" M   378.19,   476.57  L   378.19,   480.54  "/>
		<path style="stroke-width: 1.42 ;&st7;  " d=" M   386.69,   480.54  L   386.69,   476.57  "/>
		<path style="stroke-width: 1.42 ;&st7;  " d=" M   378.19,   457.88  L   386.69,   457.88  "/>
		<path style="stroke-width: 1.42 ;&st7;  " d=" M   378.19,   461.84  L   378.19,   457.88  "/>
		<path style="stroke-width: 1.42 ;&st7;  " d=" M   386.69,   457.88  L   386.69,   461.84  "/>
		<path style="stroke-width: 1.42 ;&st7;   " d=" M   373.94,   469.21  C   373.94    473.90    377.74    477.71    382.44    477.71  "/>
		<path style="stroke-width: 1.42 ;&st7;   " d=" M   382.44,   477.71  C   387.13    477.71    390.93    473.90    390.93    469.21  "/>
		<path style="stroke-width: 1.42 ;&st7;   " d=" M   390.93,   469.21  C   390.93    464.51    387.13    460.71    382.44    460.71  "/>
		<path style="stroke-width: 1.42 ;&st7;   " d=" M   382.44,   460.71  C   377.74    460.71    373.94    464.51    373.94    469.21  "/>
		<path style="stroke-width: 0.85 ;&st7;  " d=" M   382.44,   443.71  L   382.44,   457.88  "/>
		<path style="stroke-width: 0.85 ;&st7;  " d=" M   382.44,   494.70  L   382.44,   480.54  "/>
		<path style="stroke-width: 1.42 ;&st7;  " d=" M   365.44,   494.70  L   407.93,   494.70  L   407.93,   443.71  L   365.44,   443.71  L   365.44,   494.70  "/>
		<text style="&st18;" transform="matrix(&st16;  385.02  451.9 )">B</text>
		<text style="&st18;" transform="matrix(&st16;  385.02  491.01 )">L</text>
		<text style="&st18;" transform="matrix(&st16;  379.71  471.18 )">M</text>
		<text style="&st18;" transform="matrix(&st16;  376.1  502.9 )">1</text>
		<text style="&st18;" transform="matrix(&st16;  376.1  440.02 )">2</text>
		<g ewd:figtype="title">
			<text style="&st18;" transform="matrix(&st17;  422.65  497.61 )" ewd:textID="7">Rear Washer Motor Assembly</text>
			<text style="&st18;" transform="matrix(&st17;  415.83  497.6 )">S11</text>
		</g>
	</g>
	<g ewd:figtype="conn" ewd:figID="4" ewd:code="L22,L23">
		<path style="stroke-width: 0.85 ;&st7; stroke-dasharray:3, 1.5;" d=" M   208.22,   379.12  L   195.47,   379.12  "/>
		<path style="stroke-width: 0.85 ;&st7; stroke-dasharray:3, 1.5;" d=" M   195.47,   388.19  L   208.22,   388.19  "/>
		<path style="stroke-width: 0.85 ;&st7;   " d=" M   154.39,   469.21  C   154.39    468.42    153.76    467.79    152.97    467.79  "/>
		<path style="stroke-width: 0.85 ;&st7;   " d=" M   152.97,   467.79  C   152.19    467.79    151.56    468.42    151.56    469.21  "/>
		<path style="stroke-width: 0.85 ;&st7;   " d=" M   151.56,   469.21  C   151.56    469.99    152.19    470.62    152.97    470.62  "/>
		<path style="stroke-width: 0.85 ;&st7;   " d=" M   152.97,   470.62  C   153.76    470.62    154.39    469.99    154.39    469.21  "/>
		<path style="stroke-width: 0.85 ;&st7;   " d=" M   222.38,   469.21  C   222.38    468.42    221.75    467.79    220.96    467.79  "/>
		<path style="stroke-width: 0.85 ;&st7;   " d=" M   220.96,   467.79  C   220.18    467.79    219.55    468.42    219.55    469.21  "/>
		<path style="stroke-width: 0.85 ;&st7;   " d=" M   219.55,   469.21  C   219.55    469.99    220.18    470.62    220.96    470.62  "/>
		<path style="stroke-width: 0.85 ;&st7;   " d=" M   220.96,   470.62  C   221.75    470.62    222.38    469.99    222.38    469.21  "/>
		<path style="stroke-width: 0.85 ;&st7;   " d=" M   154.39,   418.22  C   154.39    417.43    153.76    416.80    152.97    416.80  "/>
		<path style="stroke-width: 0.85 ;&st7;   " d=" M   152.97,   416.80  C   152.19    416.80    151.56    417.43    151.56    418.22  "/>
		<path style="stroke-width: 0.85 ;&st7;   " d=" M   151.56,   418.22  C   151.56    419.00    152.19    419.63    152.97    419.63  "/>
		<path style="stroke-width: 0.85 ;&st7;   " d=" M   152.97,   419.63  C   153.76    419.63    154.39    419.00    154.39    418.22  "/>
		<path style="stroke-width: 0.85 ;&st7;   " d=" M   256.37,   418.22  C   256.37    417.43    255.74    416.80    254.96    416.80  "/>
		<path style="stroke-width: 0.85 ;&st7;   " d=" M   254.96,   416.80  C   254.18    416.80    253.54    417.43    253.54    418.22  "/>
		<path style="stroke-width: 0.85 ;&st7;   " d=" M   253.54,   418.22  C   253.54    419.00    254.18    419.63    254.96    419.63  "/>
		<path style="stroke-width: 0.85 ;&st7;   " d=" M   254.96,   419.63  C   255.74    419.63    256.37    419.00    256.37    418.22  "/>
		<path style="stroke-width: 0.85 ;&st7;   " d=" M   256.37,   486.20  C   256.37    485.42    255.74    484.79    254.96    484.79  "/>
		<path style="stroke-width: 0.85 ;&st7;   " d=" M   254.96,   484.79  C   254.18    484.79    253.54    485.42    253.54    486.20  "/>
		<path style="stroke-width: 0.85 ;&st7;   " d=" M   253.54,   486.20  C   253.54    486.99    254.18    487.62    254.96    487.62  "/>
		<path style="stroke-width: 0.85 ;&st7;   " d=" M   254.96,   487.62  C   255.74    487.62    256.37    486.99    256.37    486.20  "/>
		<path style="stroke-width: 0.85 ;&st7;   " d=" M   222.38,   486.20  C   222.38    485.42    221.75    484.79    220.96    484.79  "/>
		<path style="stroke-width: 0.85 ;&st7;   " d=" M   220.96,   484.79  C   220.18    484.79    219.55    485.42    219.55    486.20  "/>
		<path style="stroke-width: 0.85 ;&st7;   " d=" M   219.55,   486.20  C   219.55    486.99    220.18    487.62    220.96    487.62  "/>
		<path style="stroke-width: 0.85 ;&st7;   " d=" M   220.96,   487.62  C   221.75    487.62    222.38    486.99    222.38    486.20  "/>
		<path style="stroke-width: 0.85 ;&st7;   " d=" M   154.39,   486.20  C   154.39    485.42    153.76    484.79    152.97    484.79  "/>
		<path style="stroke-width: 0.85 ;&st7;   " d=" M   152.97,   484.79  C   152.19    484.79    151.56    485.42    151.56    486.20  "/>
		<path style="stroke-width: 0.85 ;&st7;   " d=" M   151.56,   486.20  C   151.56    486.99    152.19    487.62    152.97    487.62  "/>
		<path style="stroke-width: 0.85 ;&st7;   " d=" M   152.97,   487.62  C   153.76    487.62    154.39    486.99    154.39    486.20  "/>
		<path style="stroke-width: 0.85 ;&st7;   " d=" M   154.39,   452.21  C   154.39    451.43    153.76    450.79    152.97    450.79  "/>
		<path style="stroke-width: 0.85 ;&st7;   " d=" M   152.97,   450.79  C   152.19    450.79    151.56    451.43    151.56    452.21  "/>
		<path style="stroke-width: 0.85 ;&st7;   " d=" M   151.56,   452.21  C   151.56    452.99    152.19    453.63    152.97    453.63  "/>
		<path style="stroke-width: 0.85 ;&st7;   " d=" M   152.97,   453.63  C   153.76    453.63    154.39    452.99    154.39    452.21  "/>
		<path style="stroke-width: 0.85 ;&st7;   " d=" M   188.39,   452.21  C   188.39    451.43    187.75    450.79    186.97    450.79  "/>
		<path style="stroke-width: 0.85 ;&st7;   " d=" M   186.97,   450.79  C   186.19    450.79    185.55    451.43    185.55    452.21  "/>
		<path style="stroke-width: 0.85 ;&st7;   " d=" M   185.55,   452.21  C   185.55    452.99    186.19    453.63    186.97    453.63  "/>
		<path style="stroke-width: 0.85 ;&st7;   " d=" M   186.97,   453.63  C   187.75    453.63    188.39    452.99    188.39    452.21  "/>
		<path style="stroke-width: 0.85 ;&st7;  " d=" M   203.97,   392.72  L   203.97,   494.70  "/>
		<path style="stroke-width: 0.85 ;&st7;  " d=" M   169.97,   392.72  L   169.97,   494.70  "/>
		<path style="stroke-width: 1.42 ;&st7;  " d=" M    84.99,   392.72  L    84.99,   494.70  L   271.95,   494.70  L   271.95,   392.72  L    84.99,   392.72  "/>
		<path style="stroke-width: 0.85 ;&st7;  " d=" M   154.39,   469.21  L   219.55,   469.21  "/>
		<path style="stroke-width: 0.85 ;&st7;  " d=" M   135.98,   392.72  L   135.98,   494.70  "/>
		<path style="stroke-width: 0.85 ;&st7;  " d=" M    84.99,   477.71  L   271.95,   477.71  "/>
		<path style="stroke-width: 0.85 ;&st7;  " d=" M    84.99,   460.71  L   271.95,   460.71  "/>
		<path style="stroke-width: 0.85 ;&st7;  " d=" M    84.99,   426.71  L   271.95,   426.71  "/>
		<path style="stroke-width: 0.85 ;&st7;  " d=" M    84.99,   409.72  L   271.95,   409.72  "/>
		<path style="stroke-width: 0.85 ;&st7;  " d=" M   237.96,   392.72  L   237.96,   494.70  "/>
		<path style="stroke-width: 0.85 ;&st7;  " d=" M   154.39,   418.22  L   253.54,   418.22  "/>
		<path style="stroke-width: 0.85 ;&st7;  " d=" M   222.38,   486.20  L   253.54,   486.20  "/>
		<path style="stroke-width: 0.85 ;&st7;  " d=" M    84.99,   443.71  L   271.95,   443.71  "/>
		<path style="stroke-width: 0.85 ;&st7;  " d=" M   154.39,   486.20  L   219.55,   486.20  "/>
		<path style="stroke-width: 0.85 ;&st7;  " d=" M   154.39,   452.21  L   185.55,   452.21  "/>
		<text style="&st18;" transform="matrix(&st16;  249.59  403.19 )">WR</text>
		<text style="&st18;" transform="matrix(&st16;  215.17  403.19 )">+1R</text>
		<text style="&st18;" transform="matrix(&st16;  180.71  403.19 )">C1R</text>
		<text style="&st18;" transform="matrix(&st16;  147.76  403.19 )">EW</text>
		<text style="&st18;" transform="matrix(&st16;  99.8  420.18 )" ewd:textID="10">Washer</text>
		<text style="&st18;" transform="matrix(&st16;  106.24  454.18 )">LO</text>
		<text style="&st18;" transform="matrix(&st16;  94.06  488.17 )" ewd:textID="6">On+Washer</text>
		<text style="&st18;" transform="matrix(&st16;  107.25  471.18 )">HI</text>
		<text style="&st18;" transform="matrix(&st16;  104.26  437.18 )">OFF</text>
		<text style="&st18;" transform="matrix(&st16;  242.14  510.27 )">10</text>
		<text style="&st18;" transform="matrix(&st16;  245.48  501.2 )">5</text>
		<path style="stroke-width: 1.42 ;&st7;   " d=" M   259.49,   508.30  C   259.49    505.80    257.46    503.77    254.96    503.77  "/>
		<path style="stroke-width: 1.42 ;&st7;   " d=" M   254.96,   503.77  C   252.45    503.77    250.42    505.80    250.42    508.30  "/>
		<path style="stroke-width: 1.42 ;&st7;   " d=" M   250.42,   508.30  C   250.42    510.80    252.45    512.83    254.96    512.83  "/>
		<path style="stroke-width: 1.42 ;&st7;   " d=" M   254.96,   512.83  C   257.46    512.83    259.49    510.80    259.49    508.30  "/>
		<text style="&st18;" transform="matrix(&st16;  252.69  510.27 )">B</text>
		<text style="&st18;" transform="matrix(&st16;  252.69  501.2 )">B</text>
		<path style="stroke-width: 1.42 ;&st7;   " d=" M   259.49,   499.24  C   259.49    496.73    257.46    494.70    254.96    494.70  "/>
		<path style="stroke-width: 1.42 ;&st7;   " d=" M   254.96,   494.70  C   252.45    494.70    250.42    496.73    250.42    499.24  "/>
		<path style="stroke-width: 1.42 ;&st7;   " d=" M   250.42,   499.24  C   250.42    501.74    252.45    503.77    254.96    503.77  "/>
		<path style="stroke-width: 1.42 ;&st7;   " d=" M   254.96,   503.77  C   257.46    503.77    259.49    501.74    259.49    499.24  "/>
		<text style="&st18;" transform="matrix(&st16;  177.49  381.09 )">6</text>
		<text style="&st18;" transform="matrix(&st16;  177.49  390.16 )">5</text>
		<text style="&st18;" transform="matrix(&st16;  184.7  390.16 )">A</text>
		<text style="&st18;" transform="matrix(&st16;  184.7  381.09 )">A</text>
		<path style="stroke-width: 1.42 ;&st7;   " d=" M   191.50,   379.12  C   191.50    376.62    189.47    374.59    186.97    374.59  "/>
		<path style="stroke-width: 1.42 ;&st7;   " d=" M   186.97,   374.59  C   184.47    374.59    182.44    376.62    182.44    379.12  "/>
		<path style="stroke-width: 1.42 ;&st7;   " d=" M   182.44,   379.12  C   182.44    381.63    184.47    383.65    186.97    383.65  "/>
		<path style="stroke-width: 1.42 ;&st7;   " d=" M   186.97,   383.65  C   189.47    383.65    191.50    381.63    191.50    379.12  "/>
		<path style="stroke-width: 1.42 ;&st7;   " d=" M   191.50,   388.19  C   191.50    385.68    189.47    383.65    186.97    383.65  "/>
		<path style="stroke-width: 1.42 ;&st7;   " d=" M   186.97,   383.65  C   184.47    383.65    182.44    385.68    182.44    388.19  "/>
		<path style="stroke-width: 1.42 ;&st7;   " d=" M   182.44,   388.19  C   182.44    390.69    184.47    392.72    186.97    392.72  "/>
		<path style="stroke-width: 1.42 ;&st7;   " d=" M   186.97,   392.72  C   189.47    392.72    191.50    390.69    191.50    388.19  "/>
		<text style="&st18;" transform="matrix(&st16;  143.49  501.2 )">2</text>
		<text style="&st18;" transform="matrix(&st16;  150.71  501.2 )">A</text>
		<path style="stroke-width: 1.42 ;&st7;   " d=" M   157.51,   499.24  C   157.51    496.73    155.48    494.70    152.97    494.70  "/>
		<path style="stroke-width: 1.42 ;&st7;   " d=" M   152.97,   494.70  C   150.47    494.70    148.44    496.73    148.44    499.24  "/>
		<path style="stroke-width: 1.42 ;&st7;   " d=" M   148.44,   499.24  C   148.44    501.74    150.47    503.77    152.97    503.77  "/>
		<path style="stroke-width: 1.42 ;&st7;   " d=" M   152.97,   503.77  C   155.48    503.77    157.51    501.74    157.51    499.24  "/>
		<text style="&st18;" transform="matrix(&st16;  211.48  381.09 )">7</text>
		<text style="&st18;" transform="matrix(&st16;  211.48  390.16 )">4</text>
		<path style="stroke-width: 1.42 ;&st7;   " d=" M   225.50,   379.12  C   225.50    376.62    223.47    374.59    220.96    374.59  "/>
		<path style="stroke-width: 1.42 ;&st7;   " d=" M   220.96,   374.59  C   218.46    374.59    216.43    376.62    216.43    379.12  "/>
		<path style="stroke-width: 1.42 ;&st7;   " d=" M   216.43,   379.12  C   216.43    381.63    218.46    383.65    220.96    383.65  "/>
		<path style="stroke-width: 1.42 ;&st7;   " d=" M   220.96,   383.65  C   223.47    383.65    225.50    381.63    225.50    379.12  "/>
		<text style="&st18;" transform="matrix(&st16;  218.7  381.09 )">A</text>
		<text style="&st18;" transform="matrix(&st16;  218.7  390.16 )">A</text>
		<path style="stroke-width: 1.42 ;&st7;   " d=" M   225.50,   388.19  C   225.50    385.68    223.47    383.65    220.96    383.65  "/>
		<path style="stroke-width: 1.42 ;&st7;   " d=" M   220.96,   383.65  C   218.46    383.65    216.43    385.68    216.43    388.19  "/>
		<path style="stroke-width: 1.42 ;&st7;   " d=" M   216.43,   388.19  C   216.43    390.69    218.46    392.72    220.96    392.72  "/>
		<path style="stroke-width: 1.42 ;&st7;   " d=" M   220.96,   392.72  C   223.47    392.72    225.50    390.69    225.50    388.19  "/>
		<g ewd:figtype="title">
			<text style="&st18;" transform="matrix(&st17;  279.85  489.1 )">L22(A),L23(B)</text>
			<text style="&st18;" transform="matrix(&st17;  286.67  489.11 )" ewd:textID="11">Windshield Wiper Switch Assembly</text>
		</g>
		<g ewd:code="" ewd:figID="30" ewd:comment="" ewd:figtype="commref">
			<text style="&st18;" transform="matrix(&st16;  226.06  390.16 )">(RHD)</text>
		</g>
		<g ewd:code="" ewd:figID="31" ewd:comment="" ewd:figtype="commref">
			<text style="&st18;" transform="matrix(&st16;  226.06  381.09 )">(LHD)</text>
		</g>
		<g ewd:code="" ewd:figID="32" ewd:comment="" ewd:figtype="commref">
			<text style="&st18;" transform="matrix(&st16;  260.05  501.2 )">(LHD)</text>
		</g>
		<g ewd:code="" ewd:figID="33" ewd:comment="" ewd:figtype="commref">
			<text style="&st18;" transform="matrix(&st16;  260.05  510.27 )">(RHD)</text>
		</g>
	</g>
	<g ewd:figtype="conn" ewd:figID="5" ewd:code="L53">
		<path style="stroke-width: 0.85 ;&st7;  " d=" M   151.78,   604.18  L   151.51,   604.65  L   151.42,   605.18  L   151.51,   605.72  L   151.78,   606.19  L   152.20,   606.53  L   152.70,   606.72  L   153.25,   606.72  L   153.75,   606.53  L   154.17,   606.19  L   154.44,   605.72  L   154.53,   605.18  L   154.44,   604.65  L   154.17,   604.18  L   153.75,   603.84  L   153.25,   603.65  L   152.70,   603.65  L   152.20,   603.84  L   151.78,   604.18  L   152.18,   604.89  L   152.18,   605.48  L   152.55,   605.92  L   153.12,   606.02  L   153.63,   605.73  L   153.82,   605.18  L   153.63,   604.64  L   153.12,   604.35  L   152.55,   604.45  L   152.97,   605.18  "/>
		<path style="stroke-width: 0.85 ;&st7;  " d=" M   152.97,   605.18  L   144.48,   605.18  "/>
		<path style="stroke-width: 1.42 ;&st7;  " d=" M   144.48,   596.69  L   161.47,   596.69  L   161.47,   613.68  L   144.48,   613.68  L   144.48,   596.69  "/>
		<path style="stroke-width: 0.85 ;&st7;  " d=" M   152.97,   596.69  L   152.97,   613.68  "/>
		<text style="&st18;" transform="matrix(&st16;  138.14  601.49 )">5</text>
		<text style="&st18;" transform="matrix(&st16;  146.64  621.88 )">4</text>
		<text style="&st18;" transform="matrix(&st16;  143.3  593.0 )">13</text>
		<g ewd:figtype="title">
			<text style="&st18;" transform="matrix(&st17;  176.19  616.59 )" ewd:textID="5">No. 31 Junction <tspan x="0 " dy="6.0">Connector</tspan></text>
			<text style="&st18;" transform="matrix(&st17;  169.37  616.58 )">L53</text>
		</g>
	</g>
	<g ewd:figtype="conn" ewd:figID="6" ewd:code="S9">
		<g ewd:lineID="13">
			<text style="&st18;" transform="matrix(&st16;  597.06  431.52 )">1</text>
			<text style="&st18;" transform="matrix(&st16;  601.13  442.85 )">B</text>
		</g>
		<g ewd:lineID="18,19">
			<text style="&st18;" transform="matrix(&st16;  631.05  431.52 )">6</text>
			<text style="&st18;" transform="matrix(&st16;  630.51  442.85 )">LSW</text>
		</g>
		<g ewd:lineID="21,22">
			<text style="&st18;" transform="matrix(&st16;  690.54  431.52 )">4</text>
			<text style="&st18;" transform="matrix(&st16;  692.83  442.85 )">C1</text>
		</g>
		<g ewd:lineID="24,25">
			<text style="&st18;" transform="matrix(&st16;  741.54  431.52 )">2</text>
			<text style="&st18;" transform="matrix(&st16;  741.38  442.85 )">+SM</text>
		</g>
		<g ewd:lineID="26,36">
			<text style="&st18;" transform="matrix(&st16;  801.03  431.52 )">3</text>
			<text style="&st18;" transform="matrix(&st16;  802.97  442.85 )">LM</text>
		</g>
		<path style="stroke-width: 1.42 ;&st7;  " d=" M   586.40,   477.71  L   824.36,   477.71  L   824.36,   435.21  L   586.40,   435.21  L   586.40,   477.71  "/>
		<g ewd:figtype="title">
			<text style="&st18;" transform="matrix(&st16;  583.0  492.42 )" ewd:textID="9">Rear Wiper Relay Assembly</text>
			<text style="&st18;" transform="matrix(&st16;  582.99  485.6 )">S9</text>
		</g>
	</g>
	<g ewd:figtype="conn" ewd:figID="7" ewd:code="I109">
		<path style="stroke-width: 0.85 ;&st7;  " d=" M   603.40,   154.76  L   603.40,   171.76  "/>
		<path style="stroke-width: 1.42 ;&st7;  " d=" M   594.90,   154.76  L   611.90,   154.76  L   611.90,   171.76  L   594.90,   171.76  L   594.90,   154.76  "/>
		<text style="&st18;" transform="matrix(&st16;  593.92  178.26 )">6</text>
		<text style="&st18;" transform="matrix(&st16;  601.13  178.26 )">B</text>
		<path style="stroke-width: 1.42 ;&st7;   " d=" M   607.93,   176.29  C   607.93    173.79    605.90    171.76    603.40    171.76  "/>
		<path style="stroke-width: 1.42 ;&st7;   " d=" M   603.40,   171.76  C   600.90    171.76    598.87    173.79    598.87    176.29  "/>
		<path style="stroke-width: 1.42 ;&st7;   " d=" M   598.87,   176.29  C   598.87    178.79    600.90    180.82    603.40    180.82  "/>
		<path style="stroke-width: 1.42 ;&st7;   " d=" M   603.40,   180.82  C   605.90    180.82    607.93    178.79    607.93    176.29  "/>
		<text style="&st18;" transform="matrix(&st16;  593.92  152.2 )">5</text>
		<text style="&st18;" transform="matrix(&st16;  601.13  152.2 )">B</text>
		<path style="stroke-width: 1.42 ;&st7;   " d=" M   607.93,   150.23  C   607.93    147.72    605.90    145.69    603.40    145.69  "/>
		<path style="stroke-width: 1.42 ;&st7;   " d=" M   603.40,   145.69  C   600.90    145.69    598.87    147.72    598.87    150.23  "/>
		<path style="stroke-width: 1.42 ;&st7;   " d=" M   598.87,   150.23  C   598.87    152.73    600.90    154.76    603.40    154.76  "/>
		<path style="stroke-width: 1.42 ;&st7;   " d=" M   603.40,   154.76  C   605.90    154.76    607.93    152.73    607.93    150.23  "/>
		<g ewd:figtype="title">
			<text style="&st18;" transform="matrix(&st17;  619.79  174.66 )">I109(B)</text>
			<text style="&st18;" transform="matrix(&st17;  626.62  174.66 )" ewd:textID="4">No. 13 <tspan x="0 " dy="6.0">Junction </tspan><tspan x="0 " dy="6.0">Connector</tspan></text>
		</g>
	</g>
	<g ewd:figtype="rb" ewd:figID="8" ewd:code="FUSE32">
		<path style="stroke-width: 1.42 ;&st7;  " d=" M   605.52,    95.27  L   601.27,    95.27  "/>
		<path style="stroke-width: 1.42 ;&st7;  " d=" M   605.52,   103.77  L   601.27,   103.77  "/>
		<path style="stroke-width: 0.85 ;&st7;  " d=" M   603.40,    78.27  L   603.40,    95.27  "/>
		<path style="stroke-width: 1.42 ;&st7;   " d=" M   601.27,    95.27  C   598.93     95.27    597.03     97.17    597.03     99.52  "/>
		<path style="stroke-width: 1.42 ;&st7;   " d=" M   597.03,    99.52  C   597.03    101.87    598.93    103.77    601.27    103.77  "/>
		<path style="stroke-width: 1.42 ;&st7;   " d=" M   605.52,   103.77  C   607.87    103.77    609.77    101.87    609.77     99.52  "/>
		<path style="stroke-width: 1.42 ;&st7;   " d=" M   609.77,    99.52  C   609.77     97.17    607.87     95.27    605.52     95.27  "/>
		<path style="stroke-width: 0.28 ;&st9;  " d=" M   603.40,    90.37  L   600.57,    87.54  L   600.57,    91.79  L   603.40,    94.62  L   606.23,    91.79  L   606.23,    87.54  L   603.40,    90.37  "/>
		<text style="&st18;" transform="matrix(&st16;  619.82  56.17 )">20A <tspan x="0 " dy="6.0">WIP</tspan></text>
		<text style="&st18;" transform="matrix(&st16;  601.52  101.49 )">2</text>
		<text style="&st18;" transform="matrix(&st16;  597.06  86.47 )">2</text>
		<text style="&st18;" transform="matrix(&st16;  598.03  32.08 )">(IG)</text>
		<path style="stroke-width: 0.85 ;&st7;  " d=" M   603.40,    69.77  L   603.40,    78.27  "/>
		<path style="stroke-width: 1.42 ;&st7;   " d=" M   603.40,    47.11  C   600.66     48.72    599.75     52.25    601.36     54.99  "/>
		<path style="stroke-width: 1.42 ;&st7;   " d=" M   601.36,    54.99  C   601.88     55.87    602.52     56.51    603.40     57.03  "/>
		<path style="stroke-width: 1.42 ;&st7;   " d=" M   603.40,    66.94  C   606.14     65.33    607.05     61.80    605.44     59.06  "/>
		<path style="stroke-width: 1.42 ;&st7;   " d=" M   605.44,    59.06  C   604.92     58.18    604.28     57.55    603.40     57.03  "/>
		<path style="stroke-width: 0.85 ;&st7;   " d=" M   604.82,    45.69  C   604.82     44.91    604.18     44.28    603.40     44.28  "/>
		<path style="stroke-width: 0.85 ;&st7;   " d=" M   603.40,    44.28  C   602.62     44.28    601.98     44.91    601.98     45.69  "/>
		<path style="stroke-width: 0.85 ;&st7;   " d=" M   601.98,    45.69  C   601.98     46.48    602.62     47.11    603.40     47.11  "/>
		<path style="stroke-width: 0.85 ;&st7;   " d=" M   603.40,    47.11  C   604.18     47.11    604.82     46.48    604.82     45.69  "/>
		<path style="stroke-width: 0.85 ;&st7;   " d=" M   604.82,    68.36  C   604.82     67.57    604.18     66.94    603.40     66.94  "/>
		<path style="stroke-width: 0.85 ;&st7;   " d=" M   603.40,    66.94  C   602.62     66.94    601.98     67.57    601.98     68.36  "/>
		<path style="stroke-width: 0.85 ;&st7;   " d=" M   601.98,    68.36  C   601.98     69.14    602.62     69.77    603.40     69.77  "/>
		<path style="stroke-width: 0.85 ;&st7;   " d=" M   603.40,    69.77  C   604.18     69.77    604.82     69.14    604.82     68.36  "/>
		<path style="stroke-width: 1.42 ;&st7;  " d=" M   590.65,    35.78  L   590.65,    78.27  L   616.15,    78.27  L   616.15,    35.78  L   590.65,    35.78  "/>
	</g>
	<g ewd:figtype="w2w" ewd:figID="10" ewd:code="LS2">
		<path style="stroke-width: 1.42 ;&st7;  " d=" M   259.21,   588.75  L   254.96,   584.50  L   250.71,   588.75  "/>
		<path style="stroke-width: 1.42 ;&st7;  " d=" M   259.21,   585.35  L   254.96,   581.10  L   250.71,   585.35  "/>
		<text style="&st18;" transform="matrix(&st16;  238.2  577.41 )">11</text>
	</g>
	<g ewd:figtype="w2w" ewd:figID="11" ewd:code="IS2">
		<path style="stroke-width: 1.42 ;&st7;  " d=" M   607.65,   240.31  L   603.40,   236.06  L   599.15,   240.31  "/>
		<path style="stroke-width: 1.42 ;&st7;  " d=" M   607.65,   236.91  L   603.40,   232.66  L   599.15,   236.91  "/>
		<text style="&st18;" transform="matrix(&st16;  586.65  228.97 )">11</text>
	</g>
	<g ewd:figtype="w2w" ewd:figID="12" ewd:code="LS2">
		<path style="stroke-width: 1.42 ;&st7;  " d=" M   641.64,   367.79  L   637.39,   363.54  L   633.14,   367.79  "/>
		<path style="stroke-width: 1.42 ;&st7;  " d=" M   641.64,   364.39  L   637.39,   360.14  L   633.14,   364.39  "/>
		<text style="&st18;" transform="matrix(&st16;  623.98  356.45 )">7</text>
	</g>
	<g ewd:figtype="w2w" ewd:figID="13" ewd:code="LS2">
		<path style="stroke-width: 1.42 ;&st7;  " d=" M   701.13,   367.79  L   696.88,   363.54  L   692.63,   367.79  "/>
		<path style="stroke-width: 1.42 ;&st7;  " d=" M   701.13,   364.39  L   696.88,   360.14  L   692.63,   364.39  "/>
		<text style="&st18;" transform="matrix(&st16;  683.47  356.45 )">3</text>
	</g>
	<g ewd:figtype="w2w" ewd:figID="14" ewd:code="IS3">
		<path style="stroke-width: 1.42 ;&st7;  " d=" M   837.11,   582.52  L   832.86,   586.77  L   828.61,   582.52  "/>
		<path style="stroke-width: 1.42 ;&st7;  " d=" M   828.61,   579.12  L   832.86,   583.37  L   837.11,   579.12  "/>
		<text style="&st18;" transform="matrix(&st16;  816.11  594.41 )">12</text>
	</g>
	<g ewd:figtype="w2w" ewd:figID="15" ewd:code="TS2">
		<path style="stroke-width: 1.42 ;&st7;  " d=" M   879.60,   579.12  L   883.85,   583.37  L   888.10,   579.12  "/>
		<path style="stroke-width: 1.42 ;&st7;  " d=" M   888.10,   582.52  L   883.85,   586.77  L   879.60,   582.52  "/>
		<text style="&st18;" transform="matrix(&st16;  867.1  594.41 )">13</text>
	</g>
	<g ewd:figtype="w2w" ewd:figID="16" ewd:code="aS1">
		<path style="stroke-width: 1.42 ;&st7;  " d=" M   888.10,   512.27  L   883.85,   508.02  L   879.60,   512.27  "/>
		<path style="stroke-width: 1.42 ;&st7;  " d=" M   888.10,   508.87  L   883.85,   504.62  L   879.60,   508.87  "/>
		<text style="&st18;" transform="matrix(&st16;  870.43  500.92 )">4</text>
	</g>
	<g ewd:figtype="w2w" ewd:figID="17" ewd:code="aS1">
		<path style="stroke-width: 1.42 ;&st7;  " d=" M   888.10,   353.06  L   883.85,   357.31  L   879.60,   353.06  "/>
		<path style="stroke-width: 1.42 ;&st7;  " d=" M   879.60,   349.66  L   883.85,   353.91  L   888.10,   349.66  "/>
		<text style="&st18;" transform="matrix(&st16;  870.43  364.94 )">1</text>
	</g>
	<g ewd:figtype="w2w" ewd:figID="18" ewd:code="aS1">
		<path style="stroke-width: 1.42 ;&st7;  " d=" M   930.59,   353.06  L   926.34,   357.31  L   922.10,   353.06  "/>
		<path style="stroke-width: 1.42 ;&st7;  " d=" M   922.10,   349.66  L   926.34,   353.91  L   930.59,   349.66  "/>
		<text style="&st18;" transform="matrix(&st16;  912.93  364.94 )">2</text>
	</g>
	<g ewd:figtype="w2w" ewd:figID="19" ewd:code="aS1">
		<path style="stroke-width: 1.42 ;&st7;  " d=" M   973.09,   353.06  L   968.84,   357.31  L   964.59,   353.06  "/>
		<path style="stroke-width: 1.42 ;&st7;  " d=" M   964.59,   349.66  L   968.84,   353.91  L   973.09,   349.66  "/>
		<text style="&st18;" transform="matrix(&st16;  955.42  364.94 )">3</text>
	</g>
	<g ewd:figtype="gp" ewd:figID="20" ewd:code="LB">
		<path style="stroke-width: 0.85 ;&st7;  " d=" M   100.57,   710.00  L   103.40,   710.00  "/>
		<path style="stroke-width: 0.85 ;&st7;  " d=" M    99.15,   707.17  L   104.82,   707.17  "/>
		<path style="stroke-width: 0.85 ;&st7;  " d=" M    97.73,   704.33  L   106.23,   704.33  "/>
		<path style="stroke-width: 0.85 ;&st7;  " d=" M    93.48,   701.50  L   110.48,   701.50  "/>
		<path style="stroke-width: 0.85 ;&st7;  " d=" M   101.98,   697.25  L   101.98,   701.50  "/>
	</g>
	<g ewd:figtype="gp" ewd:figID="21" ewd:code="LA">
		<path style="stroke-width: 0.85 ;&st7;  " d=" M   152.97,   697.25  L   152.97,   701.50  "/>
		<path style="stroke-width: 0.85 ;&st7;  " d=" M   144.48,   701.50  L   161.47,   701.50  "/>
		<path style="stroke-width: 0.85 ;&st7;  " d=" M   148.73,   704.33  L   157.22,   704.33  "/>
		<path style="stroke-width: 0.85 ;&st7;  " d=" M   150.14,   707.17  L   155.81,   707.17  "/>
		<path style="stroke-width: 0.85 ;&st7;  " d=" M   151.56,   710.00  L   154.39,   710.00  "/>
	</g>
	<g ewd:figtype="gp" ewd:figID="22" ewd:code="IA">
		<path style="stroke-width: 0.85 ;&st7;  " d=" M   831.44,   710.00  L   834.28,   710.00  "/>
		<path style="stroke-width: 0.85 ;&st7;  " d=" M   830.03,   707.17  L   835.69,   707.17  "/>
		<path style="stroke-width: 0.85 ;&st7;  " d=" M   828.61,   704.33  L   837.11,   704.33  "/>
		<path style="stroke-width: 0.85 ;&st7;  " d=" M   824.36,   701.50  L   841.36,   701.50  "/>
		<path style="stroke-width: 0.85 ;&st7;  " d=" M   832.86,   697.25  L   832.86,   701.50  "/>
	</g>
	<g ewd:figtype="gp" ewd:figID="23" ewd:code="TA">
		<path style="stroke-width: 0.85 ;&st7;  " d=" M   883.85,   697.25  L   883.85,   701.50  "/>
		<path style="stroke-width: 0.85 ;&st7;  " d=" M   875.35,   701.50  L   892.35,   701.50  "/>
		<path style="stroke-width: 0.85 ;&st7;  " d=" M   879.60,   704.33  L   888.10,   704.33  "/>
		<path style="stroke-width: 0.85 ;&st7;  " d=" M   881.02,   707.17  L   886.68,   707.17  "/>
		<path style="stroke-width: 0.85 ;&st7;  " d=" M   882.44,   710.00  L   885.27,   710.00  "/>
	</g>
	<g ewd:code="2" ewd:figID="35" ewd:comment="" ewd:figtype="comment">
		<text style="&st18;" transform="matrix(&st16;  812.46  88.74 )" ewd:textID="2">* 2 :From Jul. 2021 Production</text>
	</g>
	<g ewd:code="1" ewd:figID="34" ewd:comment="" ewd:figtype="comment">
		<text style="&st18;" transform="matrix(&st16;  812.46  80.24 )" ewd:textID="1">* 1 :Before Jul. 2021 Production</text>
	</g>
	<path style="stroke-width: 1.42 ;&st7;  " d=" M   875.35,   642.71  L   880.32,   647.68  "/>
	<path style="stroke-width: 1.42 ;&st7;  " d=" M   887.38,   647.68  L   892.35,   642.71  "/>
	<path style="stroke-width: 1.42 ;&st7;  " d=" M   880.32,   630.68  L   875.35,   635.65  "/>
	<path style="stroke-width: 1.42 ;&st7;  " d=" M   880.32,   537.20  L   875.35,   542.17  "/>
	<path style="stroke-width: 1.42 ;&st7;  " d=" M   887.38,   554.19  L   892.35,   549.22  "/>
	<path style="stroke-width: 1.42 ;&st7;  " d=" M   875.35,   549.22  L   880.32,   554.19  "/>
	<path style="stroke-width: 1.42 ;&st7;  " d=" M   892.35,   542.17  L   887.38,   537.20  "/>
	<path style="stroke-width: 1.42 ;&st7;  " d=" M   149.44,   537.20  L   144.48,   542.17  "/>
	<path style="stroke-width: 1.42 ;&st7;  " d=" M   156.50,   554.19  L   161.47,   549.22  "/>
	<path style="stroke-width: 1.42 ;&st7;  " d=" M   144.48,   549.22  L   149.44,   554.19  "/>
	<path style="stroke-width: 1.42 ;&st7;  " d=" M   161.47,   542.17  L   156.50,   537.20  "/>
	<path style="stroke-width: 1.42 ;&st7;  " d=" M   599.87,   265.24  L   594.90,   270.21  "/>
	<path style="stroke-width: 1.42 ;&st7;  " d=" M   606.93,   282.24  L   611.90,   277.27  "/>
	<path style="stroke-width: 1.42 ;&st7;  " d=" M   594.90,   277.27  L   599.87,   282.24  "/>
	<path style="stroke-width: 1.42 ;&st7;  " d=" M   611.90,   270.21  L   606.93,   265.24  "/>
	<path style="stroke-width: 1.42 ;&st7;  " d=" M   892.35,   503.20  L   883.85,   503.20  "/>
	<path style="stroke-width: 1.42 ;&st7;  " d=" M   875.35,   588.19  L   883.85,   588.19  "/>
	<path style="stroke-width: 1.42 ;&st7;  " d=" M   705.38,   358.73  L   696.88,   358.73  "/>
	<path style="stroke-width: 1.42 ;&st7;  " d=" M   645.89,   358.73  L   637.39,   358.73  "/>
	<path style="stroke-width: 1.42 ;&st7;  " d=" M   611.90,   231.25  L   603.40,   231.25  "/>
	<path style="stroke-width: 1.42 ;&st7;  " d=" M   960.34,   358.73  L   968.84,   358.73  "/>
	<path style="stroke-width: 1.42 ;&st7;  " d=" M   917.85,   358.73  L   926.35,   358.73  "/>
	<path style="stroke-width: 1.42 ;&st7;  " d=" M   875.35,   358.73  L   883.85,   358.73  "/>
	<path style="stroke-width: 1.42 ;&st7;  " d=" M   263.46,   579.69  L   254.96,   579.69  "/>
	<path style="stroke-width: 1.42 ;&st7;  " d=" M   824.36,   588.19  L   832.86,   588.19  "/>
	<path style="stroke-width: 1.42 ;&st7;  " d=" M   892.35,   635.65  L   887.38,   630.68  "/>
	<text style="&st18;" transform="matrix(&st17;  157.78  348.05 )">G</text>
	<text style="&st18;" transform="matrix(&st16;  852.14  542.0 )">W-B</text>
	<text style="&st18;" transform="matrix(&st17;  98.29  657.65 )">W-B</text>
	<text style="&st18;" transform="matrix(&st17;  829.17  674.65 )">W-B</text>
	<text style="&st18;" transform="matrix(&st17;  880.16  615.15 )">W-B</text>
	<text style="&st18;" transform="matrix(&st17;  880.16  530.17 )">W-B</text>
	<text style="&st18;" transform="matrix(&st17;  149.28  525.92 )">W-B</text>
	<text style="&st18;" transform="matrix(&st16;  652.51  270.04 )">L</text>
	<text style="&st18;" transform="matrix(&st17;  880.16  572.66 )">W-B</text>
	<text style="&st18;" transform="matrix(&st17;  880.16  674.65 )">W-B</text>
	<text style="&st18;" transform="matrix(&st17;  693.19  398.05 )">L-W</text>
	<text style="&st18;" transform="matrix(&st17;  633.7  399.45 )">LG-B</text>
	<text style="&st18;" transform="matrix(&st17;  599.7  394.1 )">L</text>
	<text style="&st18;" transform="matrix(&st17;  378.74  394.1 )">L</text>
	<text style="&st18;" transform="matrix(&st17;  599.7  249.62 )">L</text>
	<text style="&st18;" transform="matrix(&st17;  744.18  397.05 )">L-Y</text>
	<text style="&st18;" transform="matrix(&st17;  803.67  396.46 )">LG</text>
	<text style="&st18;" transform="matrix(&st17;  183.27  351.31 )">L-W</text>
	<text style="&st18;" transform="matrix(&st17;  217.27  352.71 )">LG-B</text>
	<text style="&st18;" transform="matrix(&st17;  829.17  615.15 )">W-B</text>
	<text style="&st18;" transform="matrix(&st17;  149.28  657.65 )">W-B</text>
	<text style="&st18;" transform="matrix(&st17;  149.28  576.91 )">W-B</text>
	<text style="&st18;" transform="matrix(&st16;  485.84  329.53 )">B(*2)</text>
	<text style="&st18;" transform="matrix(&st17;  880.16  487.68 )">W-B</text>
	<text style="&st18;" transform="matrix(&st16;  536.84  329.53 )">B(*2)</text>
	<text style="&st18;" transform="matrix(&st17;  169.11  350.54 )">(*2)</text>
	<text style="&st18;" transform="matrix(&st17;  965.14  377.1 )">L</text>
	<text style="&st18;" transform="matrix(&st17;  922.65  377.37 )">Y</text>
	<text style="&st18;" transform="matrix(&st17;  880.16  377.49 )">P</text>
	<text style="&st18;" transform="matrix(&st17;  251.26  546.16 )">L-O</text>
	<text style="&st18;" transform="matrix(&st17;  378.74  546.16 )">L-O</text>
	<text style="&st18;" transform="matrix(&st16;  542.03  270.04 )">L</text>
	<text style="&st18;" transform="matrix(&st16;  491.04  270.04 )">L</text>
	<text style="&st18;" transform="matrix(&st16;  533.23  295.54 )">L-W(*1)</text>
	<text style="&st18;" transform="matrix(&st16;  482.24  295.54 )">L-W(*1)</text>
	<text style="&st18;" transform="matrix(&st16;  531.87  312.54 )">LG-B(*1)</text>
	<text style="&st18;" transform="matrix(&st16;  480.88  312.54 )">LG-B(*1)</text>
	<text style="&st18;" transform="matrix(&st17;  194.6  350.54 )">(*1)</text>
	<text style="&st18;" transform="matrix(&st17;  228.6  350.54 )">(*1)</text>
	<text style="&st18;" transform="matrix(&st16;  536.53  253.05 )">G(*2)</text>
	<text style="&st18;" transform="matrix(&st16;  485.53  253.05 )">G(*2)</text>
	<text style="&st18;" transform="matrix(&st17;  645.03  397.28 )">(*1)</text>
	<text style="&st18;" transform="matrix(&st17;  704.52  397.28 )">(*1)</text>
	<text style="&st18;" transform="matrix(&st17;  755.51  397.28 )">(*1)</text>
	<text style="&st18;" transform="matrix(&st17;  659.19  394.49 )">B</text>
	<text style="&st18;" transform="matrix(&st17;  670.53  397.28 )">(*2)</text>
	<text style="&st18;" transform="matrix(&st17;  718.68  394.8 )">G</text>
	<text style="&st18;" transform="matrix(&st17;  730.02  397.28 )">(*2)</text>
	<text style="&st18;" transform="matrix(&st17;  769.67  394.64 )">R</text>
	<text style="&st18;" transform="matrix(&st17;  781.01  397.28 )">(*2)</text>
	<text style="&st18;" transform="matrix(&st17;  829.16  394.49 )">P</text>
	<text style="&st18;" transform="matrix(&st17;  840.5  397.28 )">(*2)</text>
	<text style="&st18;" transform="matrix(&st17;  815.0  397.28 )">(*1)</text>
	<text style="&st18;" transform="matrix(&st17;  933.98  329.29 )">(*1)</text>
	<text style="&st18;" transform="matrix(&st17;  922.65  329.06 )">L-Y</text>
	<text style="&st18;" transform="matrix(&st17;  254.09  350.54 )">(*2)</text>
	<text style="&st18;" transform="matrix(&st17;  242.76  347.74 )">B</text>
	<text style="&st18;" transform="matrix(&st17;  390.07  546.0 )">(*1)</text>
	<text style="&st18;" transform="matrix(&st17;  262.59  546.0 )">(*1)</text>
	<text style="&st18;" transform="matrix(&st17;  404.24  542.82 )">L</text>
	<text style="&st18;" transform="matrix(&st17;  415.57  546.0 )">(*2)</text>
	<text style="&st18;" transform="matrix(&st17;  276.76  543.52 )">G</text>
	<text style="&st18;" transform="matrix(&st17;  288.09  546.0 )">(*2)</text>
	<path style="stroke-width: 1.42 ;&st7;  " d=" M   650.86,   154.76  L   645.89,   159.73  "/>
	<path style="stroke-width: 1.42 ;&st7;  " d=" M   657.92,   171.76  L   662.89,   166.79  "/>
	<path style="stroke-width: 1.42 ;&st7;  " d=" M   645.89,   166.79  L   650.86,   171.76  "/>
	<path style="stroke-width: 1.42 ;&st7;  " d=" M   662.89,   159.73  L   657.92,   154.76  "/>
	<text style="&st18;" transform="matrix(&st17;  611.04  141.75 )">(RHD)</text>
	<text style="&st18;" transform="matrix(&st17;  599.7  134.89 )">L</text>
	<text style="&st18;" transform="matrix(&st17;  662.03  200.74 )">(LHD)</text>
	<text style="&st18;" transform="matrix(&st17;  650.69  194.38 )">L</text>
	<text style="&st18;" transform="matrix(&st17;  650.69  134.89 )">L</text>
	<text style="&st18;" transform="matrix(&st17;  662.03  141.25 )">(LHD)</text>
	<text style="&st18;" transform="matrix(&st17;  599.7  194.38 )">L</text>
	<text style="&st18;" transform="matrix(&st17;  611.04  201.24 )">(RHD)</text>
	<text style="&st18;" transform="matrix(&st16;  859.63  304.04 )">R(*2)</text>
	<a ewd:figtype="w2w" style="cursor:pointer;" ewd:pinNo="11" ewd:code="LS2" ewd:figID="10">
		<path style="&st2;" d=" M   263.46,   571.19  L   246.46,   571.19  L   246.46,   579.69  L   263.46,   579.69  L   263.46,   571.19 "/>
		<text style="&st8;" transform="matrix(&st16;  249.8  577.56 )"><tspan x="0" style="&st18;" y="0">LS2</tspan></text>
	</a>
	<a ewd:figtype="w2w" style="cursor:pointer;" ewd:pinNo="11" ewd:code="IS2" ewd:figID="11">
		<path style="&st2;" d=" M   611.90,   222.75  L   594.90,   222.75  L   594.90,   231.25  L   611.90,   231.25  L   611.90,   222.75 "/>
		<text style="&st8;" transform="matrix(&st16;  599.03  229.12 )"><tspan x="0" style="&st18;" y="0">IS2</tspan></text>
	</a>
	<a ewd:figtype="w2w" style="cursor:pointer;" ewd:pinNo="7" ewd:code="LS2" ewd:figID="12">
		<path style="&st2;" d=" M   645.89,   350.23  L   628.89,   350.23  L   628.89,   358.73  L   645.89,   358.73  L   645.89,   350.23 "/>
		<text style="&st8;" transform="matrix(&st16;  632.24  356.6 )"><tspan x="0" style="&st18;" y="0">LS2</tspan></text>
	</a>
	<a ewd:figtype="w2w" style="cursor:pointer;" ewd:pinNo="3" ewd:code="LS2" ewd:figID="13">
		<path style="&st2;" d=" M   705.38,   350.23  L   688.38,   350.23  L   688.38,   358.73  L   705.38,   358.73  L   705.38,   350.23 "/>
		<text style="&st8;" transform="matrix(&st16;  691.73  356.6 )"><tspan x="0" style="&st18;" y="0">LS2</tspan></text>
	</a>
	<a ewd:figtype="w2w" style="cursor:pointer;" ewd:pinNo="12" ewd:code="IS3" ewd:figID="14">
		<path style="&st2;" d=" M   841.36,   588.19  L   824.36,   588.19  L   824.36,   596.69  L   841.36,   596.69  L   841.36,   588.19 "/>
		<text style="&st8;" transform="matrix(&st16;  828.5  594.56 )"><tspan x="0" style="&st18;" y="0">IS3</tspan></text>
	</a>
	<a ewd:figtype="w2w" style="cursor:pointer;" ewd:pinNo="13" ewd:code="TS2" ewd:figID="15">
		<path style="&st2;" d=" M   892.35,   588.19  L   875.35,   588.19  L   875.35,   596.69  L   892.35,   596.69  L   892.35,   588.19 "/>
		<text style="&st8;" transform="matrix(&st16;  878.51  594.56 )"><tspan x="0" style="&st18;" y="0">TS2</tspan></text>
	</a>
	<a ewd:figtype="w2w" style="cursor:pointer;" ewd:pinNo="4" ewd:code="aS1" ewd:figID="16">
		<path style="&st2;" d=" M   892.35,   494.70  L   875.35,   494.70  L   875.35,   503.20  L   892.35,   503.20  L   892.35,   494.70 "/>
		<text style="&st8;" transform="matrix(&st16;  878.7  501.07 )"><tspan x="0" style="&st18;" y="0">aS1</tspan></text>
	</a>
	<a ewd:figtype="w2w" style="cursor:pointer;" ewd:pinNo="1" ewd:code="aS1" ewd:figID="17">
		<path style="&st2;" d=" M   892.35,   358.73  L   875.35,   358.73  L   875.35,   367.22  L   892.35,   367.22  L   892.35,   358.73 "/>
		<text style="&st8;" transform="matrix(&st16;  878.7  365.09 )"><tspan x="0" style="&st18;" y="0">aS1</tspan></text>
	</a>
	<a ewd:figtype="w2w" style="cursor:pointer;" ewd:pinNo="2" ewd:code="aS1" ewd:figID="18">
		<path style="&st2;" d=" M   934.84,   358.73  L   917.85,   358.73  L   917.85,   367.22  L   934.84,   367.22  L   934.84,   358.73 "/>
		<text style="&st8;" transform="matrix(&st16;  921.19  365.09 )"><tspan x="0" style="&st18;" y="0">aS1</tspan></text>
	</a>
	<a ewd:figtype="w2w" style="cursor:pointer;" ewd:pinNo="3" ewd:code="aS1" ewd:figID="19">
		<path style="&st2;" d=" M   977.34,   358.73  L   960.34,   358.73  L   960.34,   367.22  L   977.34,   367.22  L   977.34,   358.73 "/>
		<text style="&st8;" transform="matrix(&st16;  963.68  365.09 )"><tspan x="0" style="&st18;" y="0">aS1</tspan></text>
	</a>
	<a ewd:figtype="gp" style="cursor:pointer;" ewd:code="LB" ewd:figID="20">
		<path style="&st2;" d=" M    91.36,   681.67  L   112.61,   681.67  L   101.98,   697.25  L    91.36,   681.67 "/>
		<text style="&st8;" transform="matrix(&st16;  98.45  689.46 )"><tspan x="0" style="&st18;" y="0">LB</tspan></text>
	</a>
	<a ewd:figtype="gp" style="cursor:pointer;" ewd:code="LA" ewd:figID="21">
		<path style="&st2;" d=" M   142.35,   681.67  L   163.60,   681.67  L   152.97,   697.25  L   142.35,   681.67 "/>
		<text style="&st8;" transform="matrix(&st16;  149.44  689.46 )"><tspan x="0" style="&st18;" y="0">LA</tspan></text>
	</a>
	<a ewd:figtype="gp" style="cursor:pointer;" ewd:code="IA" ewd:figID="22">
		<path style="&st2;" d=" M   822.24,   681.67  L   843.48,   681.67  L   832.86,   697.25  L   822.24,   681.67 "/>
		<text style="&st8;" transform="matrix(&st16;  830.11  689.46 )"><tspan x="0" style="&st18;" y="0">IA</tspan></text>
	</a>
	<a ewd:figtype="gp" style="cursor:pointer;" ewd:code="TA" ewd:figID="23">
		<path style="&st2;" d=" M   873.23,   681.67  L   894.48,   681.67  L   883.85,   697.25  L   873.23,   681.67 "/>
		<text style="&st8;" transform="matrix(&st16;  880.13  689.46 )"><tspan x="0" style="&st18;" y="0">TA</tspan></text>
	</a>
	<a ewd:figtype="sp" style="cursor:pointer;" ewd:code="SP82" ewd:figID="24">
		<path style="&st2;" d=" M   148.73,   537.20  L   157.22,   537.20  L   161.47,   541.44  L   161.47,   549.94  L   157.22,   554.19  L   148.73,   554.19  L   144.48,   549.94  L   144.48,   541.44  L   148.73,   537.20 "/>
	</a>
	<a ewd:figtype="sp" style="cursor:pointer;" ewd:code="SP102" ewd:figID="25">
		<path style="&st2;" d=" M   599.15,   265.24  L   607.65,   265.24  L   611.90,   269.49  L   611.90,   277.99  L   607.65,   282.24  L   599.15,   282.24  L   594.90,   277.99  L   594.90,   269.49  L   599.15,   265.24 "/>
	</a>
	<a ewd:figtype="sp" style="cursor:pointer;" ewd:code="SP46" ewd:figID="26">
		<path style="&st2;" d=" M   650.14,   154.76  L   658.64,   154.76  L   662.89,   159.01  L   662.89,   167.51  L   658.64,   171.76  L   650.14,   171.76  L   645.89,   167.51  L   645.89,   159.01  L   650.14,   154.76 "/>
	</a>
	<a ewd:figtype="sp" style="cursor:pointer;" ewd:code="SP107" ewd:figID="27">
		<path style="&st2;" d=" M   879.60,   630.68  L   888.10,   630.68  L   892.35,   634.93  L   892.35,   643.43  L   888.10,   647.68  L   879.60,   647.68  L   875.35,   643.43  L   875.35,   634.93  L   879.60,   630.68 "/>
	</a>
	<a ewd:figtype="sp" style="cursor:pointer;" ewd:code="SP100" ewd:figID="28">
		<path style="&st2;" d=" M   879.60,   537.20  L   888.10,   537.20  L   892.35,   541.44  L   892.35,   549.94  L   888.10,   554.19  L   879.60,   554.19  L   875.35,   549.94  L   875.35,   541.44  L   879.60,   537.20 "/>
	</a>
</g>
</svg>