<?xml version="1.0" encoding="utf-8"?>
<!DOCTYPE svg PUBLIC "-//W3C//DTD SVG 1.0//EN" "http://www.w3.org/TR/2001/REC-SVG-20010904/DTD/svg10.dtd"[
	<!ENTITY ns_flows "http://ns.adobe.com/Flows/1.0/">
	<!ENTITY ns_svg "http://www.w3.org/2000/svg">
	<!ENTITY ns_xlink "http://www.w3.org/1999/xlink">
	<!ENTITY st0 "font-size:7px;font-family:'MS-PGothic';adobe-font-script:japanese;">
	<!ENTITY st1 "font-size:6px;font-family:'ArialMT';">
	<!-- White fill  -->
	<!ENTITY st2 "fill:#FFFFFF;stroke:#000000; stroke-width:1.41;stroke-linecap:round;stroke-linejoin:round;">
	<!-- Yellow fill  -->
	<!ENTITY st3 "fill:#FFFFCC;stroke:#FFFFCC; stroke-width:0.1;stroke-linecap:round;stroke-linejoin:round;">
	<!-- Gray fill  -->
	<!ENTITY st4 "fill:#CCCCCC;stroke:#CCCCCC; stroke-width:0.1;stroke-linecap:round;stroke-linejoin:round;">
	<!-- Light-blue fill -->
	<!ENTITY st5 "fill:#CCECF4;stroke:#000000; stroke-width:1.133;stroke-linecap:round;stroke-linejoin:round;">
	<!ENTITY st6 "fill:none;stroke-linecap:butt; stroke-linejoin:round;">
	<!ENTITY st7 "fill:none;stroke:#000000;stroke-linecap:round;stroke-linejoin:round;">
	<!ENTITY st8 "enable-background:new    ;">
	<!-- Black fill -->
	<!ENTITY st9 "fill:#000000;stroke:#000000; stroke-linecap:round;stroke-linejoin:round;">
	<!-- SRS note   -->
	<!ENTITY st10 "font-size:9px;font-family:'ArialMT';">
	<!ENTITY st11 "font-size:9px;font-family:'Svg Symbol';">
	<!ENTITY st12 "font-size:6px;font-family:'Svg Symbol';">
	<!ENTITY st13 "fill:none;stroke:#ff0000;stroke-linecap:round;stroke-linejoin:round;">
	<!-- Yellow fill  -->
	<!ENTITY st14 "fill:#FFFF00;stroke:#FFFF00; stroke-width:0.1;stroke-linecap:round;stroke-linejoin:round;">
	<!ENTITY st15 "font-size:6px;font-family:'MS-PGothic';adobe-font-script:japanese;">
	<!ENTITY st16 "1.00 0.00 0.00 1.00">
	<!ENTITY st17 "0.00 -1.00 1.00 0.00">
	<!ENTITY st18 "font-size:6px;font-family:'Arial';">
	<!ENTITY st19 "font-size:9px;font-family:'Arial';">
	<!ENTITY st20 "font-size:6px;font-family:'MS-PGothic','MS PGothic';adobe-font-script:japanese;">
	<!ENTITY st21 "font-size:7px;font-family:'MS-PGothic','MS PGothic';adobe-font-script:japanese;">
	<!ATTLIST svg
		xmlns:ewd CDATA #FIXED "http://shcl.co.jp/ewd"
		xmlns:a CDATA #FIXED "http://ns.adobe.com/AdobeSVGViewerExtensions/3.0/"
		ewd:ver CDATA #IMPLIED
	>
	<!ATTLIST a
		ewd:lineID CDATA #IMPLIED
		ewd:groupID CDATA #IMPLIED
		ewd:figtype CDATA #IMPLIED
		ewd:code CDATA #IMPLIED
		ewd:figID CDATA #IMPLIED
		ewd:pinNo CDATA #IMPLIED
		ewd:comment CDATA #IMPLIED >
	<!ATTLIST g
		ewd:lineID CDATA #IMPLIED
		ewd:groupID CDATA #IMPLIED
		ewd:figtype CDATA #IMPLIED
		ewd:code CDATA #IMPLIED
		ewd:figID CDATA #IMPLIED
		ewd:pinNo CDATA #IMPLIED
		ewd:comment CDATA #IMPLIED >
	<!ATTLIST text
		ewd:textID CDATA #IMPLIED >
	<!ATTLIST title
		ewd:textID CDATA #IMPLIED >
]>
<!-- Generator: Shintec Hozumi YS   -->
<svg onload="call_execInitLoadProc_svg('system')" style="overflow:visible;  enable-background:new 0 0 1006.205 710.000" viewBox="0 0 1006.205 710.000" height="710.000" width="1006.205" xml:space="preserve" ewd:ver="2.3.1.16" xmlns="&ns_svg;" xmlns:a="http://ns.adobe.com/AdobeSVGViewerExtensions/3.0/" xmlns:ewd="http://shcl.co.jp/ewd" xmlns:xlink="&ns_xlink;">
<path style="stroke-width: 1.42 ;&st7;  " d=" M   149.44,   537.20  L   144.48,   542.17  " /><path style="stroke-width: 1.42 ;&st7;  " d=" M   156.50,   554.19  L   161.47,   549.22  " /><path style="stroke-width: 1.42 ;&st7;  " d=" M   144.48,   549.22  L   149.44,   554.19  " /><path style="stroke-width: 1.42 ;&st7;  " d=" M   161.47,   542.17  L   156.50,   537.20  " /><path style="stroke-width: 1.42 ;&st7;  " d=" M   263.46,   579.69  L   254.96,   579.69  " /><text style="&st18;" transform="matrix(&st17;  157.78  348.05 )">G</text><text style="&st18;" transform="matrix(&st17;  98.29  657.65 )">W-B</text><text style="&st18;" transform="matrix(&st17;  149.28  525.92 )">W-B</text><text style="&st18;" transform="matrix(&st17;  378.74  394.1 )">L</text><text style="&st18;" transform="matrix(&st17;  183.27  351.31 )">L-W</text><text style="&st18;" transform="matrix(&st17;  217.27  352.71 )">LG-B</text><text style="&st18;" transform="matrix(&st17;  149.28  657.65 )">W-B</text><text style="&st18;" transform="matrix(&st17;  149.28  576.91 )">W-B</text><text style="&st18;" transform="matrix(&st16;  485.84  329.53 )">B(*2)</text><text style="&st18;" transform="matrix(&st17;  169.11  350.54 )">(*2)</text><text style="&st18;" transform="matrix(&st17;  251.26  546.16 )">L-O</text><text style="&st18;" transform="matrix(&st17;  378.74  546.16 )">L-O</text><text style="&st18;" transform="matrix(&st16;  491.04  270.04 )">L</text><text style="&st18;" transform="matrix(&st16;  482.24  295.54 )">L-W(*1)</text><text style="&st18;" transform="matrix(&st16;  480.88  312.54 )">LG-B(*1)</text><text style="&st18;" transform="matrix(&st17;  194.6  350.54 )">(*1)</text><text style="&st18;" transform="matrix(&st17;  228.6  350.54 )">(*1)</text><text style="&st18;" transform="matrix(&st16;  485.53  253.05 )">G(*2)</text><text style="&st18;" transform="matrix(&st17;  254.09  350.54 )">(*2)</text><text style="&st18;" transform="matrix(&st17;  242.76  347.74 )">B</text><text style="&st18;" transform="matrix(&st17;  390.07  546.0 )">(*1)</text><text style="&st18;" transform="matrix(&st17;  262.59  546.0 )">(*1)</text><text style="&st18;" transform="matrix(&st17;  404.24  542.82 )">L</text><text style="&st18;" transform="matrix(&st17;  415.57  546.0 )">(*2)</text><text style="&st18;" transform="matrix(&st17;  276.76  543.52 )">G</text><text style="&st18;" transform="matrix(&st17;  288.09  546.0 )">(*2)</text><g ewd:figtype="conn" ewd:figID="3" ewd:code="S11"><path style="stroke-width: 1.42 ;&st7;  " d=" M   378.19,   480.54  L   386.69,   480.54  " /><path style="stroke-width: 1.42 ;&st7;  " d=" M   378.19,   476.57  L   378.19,   480.54  " /><path style="stroke-width: 1.42 ;&st7;  " d=" M   386.69,   480.54  L   386.69,   476.57  " /><path style="stroke-width: 1.42 ;&st7;  " d=" M   378.19,   457.88  L   386.69,   457.88  " /><path style="stroke-width: 1.42 ;&st7;  " d=" M   378.19,   461.84  L   378.19,   457.88  " /><path style="stroke-width: 1.42 ;&st7;  " d=" M   386.69,   457.88  L   386.69,   461.84  " /><path style="stroke-width: 1.42 ;&st7;   " d=" M   373.94,   469.21  C   373.94    473.90    377.74    477.71    382.44    477.71  " /><path style="stroke-width: 1.42 ;&st7;   " d=" M   382.44,   477.71  C   387.13    477.71    390.93    473.90    390.93    469.21  " /><path style="stroke-width: 1.42 ;&st7;   " d=" M   390.93,   469.21  C   390.93    464.51    387.13    460.71    382.44    460.71  " /><path style="stroke-width: 1.42 ;&st7;   " d=" M   382.44,   460.71  C   377.74    460.71    373.94    464.51    373.94    469.21  " /><path style="stroke-width: 0.85 ;&st7;  " d=" M   382.44,   443.71  L   382.44,   457.88  " /><path style="stroke-width: 0.85 ;&st7;  " d=" M   382.44,   494.70  L   382.44,   480.54  " /><path style="stroke-width: 1.42 ;&st7;  " d=" M   365.44,   494.70  L   407.93,   494.70  L   407.93,   443.71  L   365.44,   443.71  L   365.44,   494.70  " /><text style="&st18;" transform="matrix(&st16;  385.02  451.9 )">B</text><text style="&st18;" transform="matrix(&st16;  385.02  491.01 )">L</text><text style="&st18;" transform="matrix(&st16;  379.71  471.18 )">M</text><text style="&st18;" transform="matrix(&st16;  376.1  502.9 )">1</text><text style="&st18;" transform="matrix(&st16;  376.1  440.02 )">2</text><g ewd:figtype="title"><text style="&st18;" transform="matrix(&st17;  422.65  497.61 )" ewd:textID="7">Rear Washer Motor Assembly</text><text style="&st18;" transform="matrix(&st17;  415.83  497.6 )">S11</text></g></g><g ewd:figtype="conn" ewd:figID="4" ewd:code="L22,L23"><path style="stroke-width: 0.85 ;&st7; stroke-dasharray:3, 1.5;" d=" M   208.22,   379.12  L   195.47,   379.12  " /><path style="stroke-width: 0.85 ;&st7; stroke-dasharray:3, 1.5;" d=" M   195.47,   388.19  L   208.22,   388.19  " /><path style="stroke-width: 0.85 ;&st7;   " d=" M   154.39,   469.21  C   154.39    468.42    153.76    467.79    152.97    467.79  " /><path style="stroke-width: 0.85 ;&st7;   " d=" M   152.97,   467.79  C   152.19    467.79    151.56    468.42    151.56    469.21  " /><path style="stroke-width: 0.85 ;&st7;   " d=" M   151.56,   469.21  C   151.56    469.99    152.19    470.62    152.97    470.62  " /><path style="stroke-width: 0.85 ;&st7;   " d=" M   152.97,   470.62  C   153.76    470.62    154.39    469.99    154.39    469.21  " /><path style="stroke-width: 0.85 ;&st7;   " d=" M   222.38,   469.21  C   222.38    468.42    221.75    467.79    220.96    467.79  " /><path style="stroke-width: 0.85 ;&st7;   " d=" M   220.96,   467.79  C   220.18    467.79    219.55    468.42    219.55    469.21  " /><path style="stroke-width: 0.85 ;&st7;   " d=" M   219.55,   469.21  C   219.55    469.99    220.18    470.62    220.96    470.62  " /><path style="stroke-width: 0.85 ;&st7;   " d=" M   220.96,   470.62  C   221.75    470.62    222.38    469.99    222.38    469.21  " /><path style="stroke-width: 0.85 ;&st7;   " d=" M   154.39,   418.22  C   154.39    417.43    153.76    416.80    152.97    416.80  " /><path style="stroke-width: 0.85 ;&st7;   " d=" M   152.97,   416.80  C   152.19    416.80    151.56    417.43    151.56    418.22  " /><path style="stroke-width: 0.85 ;&st7;   " d=" M   151.56,   418.22  C   151.56    419.00    152.19    419.63    152.97    419.63  " /><path style="stroke-width: 0.85 ;&st7;   " d=" M   152.97,   419.63  C   153.76    419.63    154.39    419.00    154.39    418.22  " /><path style="stroke-width: 0.85 ;&st7;   " d=" M   256.37,   418.22  C   256.37    417.43    255.74    416.80    254.96    416.80  " /><path style="stroke-width: 0.85 ;&st7;   " d=" M   254.96,   416.80  C   254.18    416.80    253.54    417.43    253.54    418.22  " /><path style="stroke-width: 0.85 ;&st7;   " d=" M   253.54,   418.22  C   253.54    419.00    254.18    419.63    254.96    419.63  " /><path style="stroke-width: 0.85 ;&st7;   " d=" M   254.96,   419.63  C   255.74    419.63    256.37    419.00    256.37    418.22  " /><path style="stroke-width: 0.85 ;&st7;   " d=" M   256.37,   486.20  C   256.37    485.42    255.74    484.79    254.96    484.79  " /><path style="stroke-width: 0.85 ;&st7;   " d=" M   254.96,   484.79  C   254.18    484.79    253.54    485.42    253.54    486.20  " /><path style="stroke-width: 0.85 ;&st7;   " d=" M   253.54,   486.20  C   253.54    486.99    254.18    487.62    254.96    487.62  " /><path style="stroke-width: 0.85 ;&st7;   " d=" M   254.96,   487.62  C   255.74    487.62    256.37    486.99    256.37    486.20  " /><path style="stroke-width: 0.85 ;&st7;   " d=" M   222.38,   486.20  C   222.38    485.42    221.75    484.79    220.96    484.79  " /><path style="stroke-width: 0.85 ;&st7;   " d=" M   220.96,   484.79  C   220.18    484.79    219.55    485.42    219.55    486.20  " /><path style="stroke-width: 0.85 ;&st7;   " d=" M   219.55,   486.20  C   219.55    486.99    220.18    487.62    220.96    487.62  " /><path style="stroke-width: 0.85 ;&st7;   " d=" M   220.96,   487.62  C   221.75    487.62    222.38    486.99    222.38    486.20  " /><path style="stroke-width: 0.85 ;&st7;   " d=" M   154.39,   486.20  C   154.39    485.42    153.76    484.79    152.97    484.79  " /><path style="stroke-width: 0.85 ;&st7;   " d=" M   152.97,   484.79  C   152.19    484.79    151.56    485.42    151.56    486.20  " /><path style="stroke-width: 0.85 ;&st7;   " d=" M   151.56,   486.20  C   151.56    486.99    152.19    487.62    152.97    487.62  " /><path style="stroke-width: 0.85 ;&st7;   " d=" M   152.97,   487.62  C   153.76    487.62    154.39    486.99    154.39    486.20  " /><path style="stroke-width: 0.85 ;&st7;   " d=" M   154.39,   452.21  C   154.39    451.43    153.76    450.79    152.97    450.79  " /><path style="stroke-width: 0.85 ;&st7;   " d=" M   152.97,   450.79  C   152.19    450.79    151.56    451.43    151.56    452.21  " /><path style="stroke-width: 0.85 ;&st7;   " d=" M   151.56,   452.21  C   151.56    452.99    152.19    453.63    152.97    453.63  " /><path style="stroke-width: 0.85 ;&st7;   " d=" M   152.97,   453.63  C   153.76    453.63    154.39    452.99    154.39    452.21  " /><path style="stroke-width: 0.85 ;&st7;   " d=" M   188.39,   452.21  C   188.39    451.43    187.75    450.79    186.97    450.79  " /><path style="stroke-width: 0.85 ;&st7;   " d=" M   186.97,   450.79  C   186.19    450.79    185.55    451.43    185.55    452.21  " /><path style="stroke-width: 0.85 ;&st7;   " d=" M   185.55,   452.21  C   185.55    452.99    186.19    453.63    186.97    453.63  " /><path style="stroke-width: 0.85 ;&st7;   " d=" M   186.97,   453.63  C   187.75    453.63    188.39    452.99    188.39    452.21  " /><path style="stroke-width: 0.85 ;&st7;  " d=" M   203.97,   392.72  L   203.97,   494.70  " /><path style="stroke-width: 0.85 ;&st7;  " d=" M   169.97,   392.72  L   169.97,   494.70  " /><path style="stroke-width: 1.42 ;&st7;  " d=" M    84.99,   392.72  L    84.99,   494.70  L   271.95,   494.70  L   271.95,   392.72  L    84.99,   392.72  " /><path style="stroke-width: 0.85 ;&st7;  " d=" M   154.39,   469.21  L   219.55,   469.21  " /><path style="stroke-width: 0.85 ;&st7;  " d=" M   135.98,   392.72  L   135.98,   494.70  " /><path style="stroke-width: 0.85 ;&st7;  " d=" M    84.99,   477.71  L   271.95,   477.71  " /><path style="stroke-width: 0.85 ;&st7;  " d=" M    84.99,   460.71  L   271.95,   460.71  " /><path style="stroke-width: 0.85 ;&st7;  " d=" M    84.99,   426.71  L   271.95,   426.71  " /><path style="stroke-width: 0.85 ;&st7;  " d=" M    84.99,   409.72  L   271.95,   409.72  " /><path style="stroke-width: 0.85 ;&st7;  " d=" M   237.96,   392.72  L   237.96,   494.70  " /><path style="stroke-width: 0.85 ;&st7;  " d=" M   154.39,   418.22  L   253.54,   418.22  " /><path style="stroke-width: 0.85 ;&st7;  " d=" M   222.38,   486.20  L   253.54,   486.20  " /><path style="stroke-width: 0.85 ;&st7;  " d=" M    84.99,   443.71  L   271.95,   443.71  " /><path style="stroke-width: 0.85 ;&st7;  " d=" M   154.39,   486.20  L   219.55,   486.20  " /><path style="stroke-width: 0.85 ;&st7;  " d=" M   154.39,   452.21  L   185.55,   452.21  " /><text style="&st18;" transform="matrix(&st16;  249.59  403.19 )">WR</text><text style="&st18;" transform="matrix(&st16;  215.17  403.19 )">+1R</text><text style="&st18;" transform="matrix(&st16;  180.71  403.19 )">C1R</text><text style="&st18;" transform="matrix(&st16;  147.76  403.19 )">EW</text><text style="&st18;" transform="matrix(&st16;  99.8  420.18 )" ewd:textID="10">Washer</text><text style="&st18;" transform="matrix(&st16;  106.24  454.18 )">LO</text><text style="&st18;" transform="matrix(&st16;  94.06  488.17 )" ewd:textID="6">On+Washer</text><text style="&st18;" transform="matrix(&st16;  107.25  471.18 )">HI</text><text style="&st18;" transform="matrix(&st16;  104.26  437.18 )">OFF</text><text style="&st18;" transform="matrix(&st16;  242.14  510.27 )">10</text><text style="&st18;" transform="matrix(&st16;  245.48  501.2 )">5</text><path style="stroke-width: 1.42 ;&st7;   " d=" M   259.49,   508.30  C   259.49    505.80    257.46    503.77    254.96    503.77  " /><path style="stroke-width: 1.42 ;&st7;   " d=" M   254.96,   503.77  C   252.45    503.77    250.42    505.80    250.42    508.30  " /><path style="stroke-width: 1.42 ;&st7;   " d=" M   250.42,   508.30  C   250.42    510.80    252.45    512.83    254.96    512.83  " /><path style="stroke-width: 1.42 ;&st7;   " d=" M   254.96,   512.83  C   257.46    512.83    259.49    510.80    259.49    508.30  " /><text style="&st18;" transform="matrix(&st16;  252.69  510.27 )">B</text><text style="&st18;" transform="matrix(&st16;  252.69  501.2 )">B</text><path style="stroke-width: 1.42 ;&st7;   " d=" M   259.49,   499.24  C   259.49    496.73    257.46    494.70    254.96    494.70  " /><path style="stroke-width: 1.42 ;&st7;   " d=" M   254.96,   494.70  C   252.45    494.70    250.42    496.73    250.42    499.24  " /><path style="stroke-width: 1.42 ;&st7;   " d=" M   250.42,   499.24  C   250.42    501.74    252.45    503.77    254.96    503.77  " /><path style="stroke-width: 1.42 ;&st7;   " d=" M   254.96,   503.77  C   257.46    503.77    259.49    501.74    259.49    499.24  " /><text style="&st18;" transform="matrix(&st16;  177.49  381.09 )">6</text><text style="&st18;" transform="matrix(&st16;  177.49  390.16 )">5</text><text style="&st18;" transform="matrix(&st16;  184.7  390.16 )">A</text><text style="&st18;" transform="matrix(&st16;  184.7  381.09 )">A</text><path style="stroke-width: 1.42 ;&st7;   " d=" M   191.50,   379.12  C   191.50    376.62    189.47    374.59    186.97    374.59  " /><path style="stroke-width: 1.42 ;&st7;   " d=" M   186.97,   374.59  C   184.47    374.59    182.44    376.62    182.44    379.12  " /><path style="stroke-width: 1.42 ;&st7;   " d=" M   182.44,   379.12  C   182.44    381.63    184.47    383.65    186.97    383.65  " /><path style="stroke-width: 1.42 ;&st7;   " d=" M   186.97,   383.65  C   189.47    383.65    191.50    381.63    191.50    379.12  " /><path style="stroke-width: 1.42 ;&st7;   " d=" M   191.50,   388.19  C   191.50    385.68    189.47    383.65    186.97    383.65  " /><path style="stroke-width: 1.42 ;&st7;   " d=" M   186.97,   383.65  C   184.47    383.65    182.44    385.68    182.44    388.19  " /><path style="stroke-width: 1.42 ;&st7;   " d=" M   182.44,   388.19  C   182.44    390.69    184.47    392.72    186.97    392.72  " /><path style="stroke-width: 1.42 ;&st7;   " d=" M   186.97,   392.72  C   189.47    392.72    191.50    390.69    191.50    388.19  " /><text style="&st18;" transform="matrix(&st16;  143.49  501.2 )">2</text><text style="&st18;" transform="matrix(&st16;  150.71  501.2 )">A</text><path style="stroke-width: 1.42 ;&st7;   " d=" M   157.51,   499.24  C   157.51    496.73    155.48    494.70    152.97    494.70  " /><path style="stroke-width: 1.42 ;&st7;   " d=" M   152.97,   494.70  C   150.47    494.70    148.44    496.73    148.44    499.24  " /><path style="stroke-width: 1.42 ;&st7;   " d=" M   148.44,   499.24  C   148.44    501.74    150.47    503.77    152.97    503.77  " /><path style="stroke-width: 1.42 ;&st7;   " d=" M   152.97,   503.77  C   155.48    503.77    157.51    501.74    157.51    499.24  " /><text style="&st18;" transform="matrix(&st16;  211.48  381.09 )">7</text><text style="&st18;" transform="matrix(&st16;  211.48  390.16 )">4</text><path style="stroke-width: 1.42 ;&st7;   " d=" M   225.50,   379.12  C   225.50    376.62    223.47    374.59    220.96    374.59  " /><path style="stroke-width: 1.42 ;&st7;   " d=" M   220.96,   374.59  C   218.46    374.59    216.43    376.62    216.43    379.12  " /><path style="stroke-width: 1.42 ;&st7;   " d=" M   216.43,   379.12  C   216.43    381.63    218.46    383.65    220.96    383.65  " /><path style="stroke-width: 1.42 ;&st7;   " d=" M   220.96,   383.65  C   223.47    383.65    225.50    381.63    225.50    379.12  " /><text style="&st18;" transform="matrix(&st16;  218.7  381.09 )">A</text><text style="&st18;" transform="matrix(&st16;  218.7  390.16 )">A</text><path style="stroke-width: 1.42 ;&st7;   " d=" M   225.50,   388.19  C   225.50    385.68    223.47    383.65    220.96    383.65  " /><path style="stroke-width: 1.42 ;&st7;   " d=" M   220.96,   383.65  C   218.46    383.65    216.43    385.68    216.43    388.19  " /><path style="stroke-width: 1.42 ;&st7;   " d=" M   216.43,   388.19  C   216.43    390.69    218.46    392.72    220.96    392.72  " /><path style="stroke-width: 1.42 ;&st7;   " d=" M   220.96,   392.72  C   223.47    392.72    225.50    390.69    225.50    388.19  " /><g ewd:figtype="title"><text style="&st18;" transform="matrix(&st17;  279.85  489.1 )">L22(A),L23(B)</text><text style="&st18;" transform="matrix(&st17;  286.67  489.11 )" ewd:textID="11">Windshield Wiper Switch Assembly</text></g><g ewd:code="" ewd:figID="30" ewd:comment="" ewd:figtype="commref"><text style="&st18;" transform="matrix(&st16;  226.06  390.16 )">(RHD)</text></g><g ewd:code="" ewd:figID="31" ewd:comment="" ewd:figtype="commref"><text style="&st18;" transform="matrix(&st16;  226.06  381.09 )">(LHD)</text></g><g ewd:code="" ewd:figID="32" ewd:comment="" ewd:figtype="commref"><text style="&st18;" transform="matrix(&st16;  260.05  501.2 )">(LHD)</text></g><g ewd:code="" ewd:figID="33" ewd:comment="" ewd:figtype="commref"><text style="&st18;" transform="matrix(&st16;  260.05  510.27 )">(RHD)</text></g></g><g ewd:figtype="conn" ewd:figID="5" ewd:code="L53"><path style="stroke-width: 0.85 ;&st7;  " d=" M   151.78,   604.18  L   151.51,   604.65  L   151.42,   605.18  L   151.51,   605.72  L   151.78,   606.19  L   152.20,   606.53  L   152.70,   606.72  L   153.25,   606.72  L   153.75,   606.53  L   154.17,   606.19  L   154.44,   605.72  L   154.53,   605.18  L   154.44,   604.65  L   154.17,   604.18  L   153.75,   603.84  L   153.25,   603.65  L   152.70,   603.65  L   152.20,   603.84  L   151.78,   604.18  L   152.18,   604.89  L   152.18,   605.48  L   152.55,   605.92  L   153.12,   606.02  L   153.63,   605.73  L   153.82,   605.18  L   153.63,   604.64  L   153.12,   604.35  L   152.55,   604.45  L   152.97,   605.18  " /><path style="stroke-width: 0.85 ;&st7;  " d=" M   152.97,   605.18  L   144.48,   605.18  " /><path style="stroke-width: 1.42 ;&st7;  " d=" M   144.48,   596.69  L   161.47,   596.69  L   161.47,   613.68  L   144.48,   613.68  L   144.48,   596.69  " /><path style="stroke-width: 0.85 ;&st7;  " d=" M   152.97,   596.69  L   152.97,   613.68  " /><text style="&st18;" transform="matrix(&st16;  138.14  601.49 )">5</text><text style="&st18;" transform="matrix(&st16;  146.64  621.88 )">4</text><text style="&st18;" transform="matrix(&st16;  143.3  593.0 )">13</text><g ewd:figtype="title"><text style="&st18;" transform="matrix(&st17;  176.19  616.59 )" ewd:textID="5">No. 31 Junction <tspan x="0 " dy="6.0">Connector</tspan></text><text style="&st18;" transform="matrix(&st17;  169.37  616.58 )">L53</text></g></g><g ewd:figtype="w2w" ewd:figID="10" ewd:code="LS2"><path style="stroke-width: 1.42 ;&st7;  " d=" M   259.21,   588.75  L   254.96,   584.50  L   250.71,   588.75  " /><path style="stroke-width: 1.42 ;&st7;  " d=" M   259.21,   585.35  L   254.96,   581.10  L   250.71,   585.35  " /><text style="&st18;" transform="matrix(&st16;  238.2  577.41 )">11</text></g><g ewd:figtype="gp" ewd:figID="20" ewd:code="LB"><path style="stroke-width: 0.85 ;&st7;  " d=" M   100.57,   710.00  L   103.40,   710.00  " /><path style="stroke-width: 0.85 ;&st7;  " d=" M    99.15,   707.17  L   104.82,   707.17  " /><path style="stroke-width: 0.85 ;&st7;  " d=" M    97.73,   704.33  L   106.23,   704.33  " /><path style="stroke-width: 0.85 ;&st7;  " d=" M    93.48,   701.50  L   110.48,   701.50  " /><path style="stroke-width: 0.85 ;&st7;  " d=" M   101.98,   697.25  L   101.98,   701.50  " /></g><g ewd:figtype="gp" ewd:figID="21" ewd:code="LA"><path style="stroke-width: 0.85 ;&st7;  " d=" M   152.97,   697.25  L   152.97,   701.50  " /><path style="stroke-width: 0.85 ;&st7;  " d=" M   144.48,   701.50  L   161.47,   701.50  " /><path style="stroke-width: 0.85 ;&st7;  " d=" M   148.73,   704.33  L   157.22,   704.33  " /><path style="stroke-width: 0.85 ;&st7;  " d=" M   150.14,   707.17  L   155.81,   707.17  " /><path style="stroke-width: 0.85 ;&st7;  " d=" M   151.56,   710.00  L   154.39,   710.00  " /></g></svg>