<?xml version="1.0" encoding="utf-8"?>
<!DOCTYPE svg PUBLIC "-//W3C//DTD SVG 1.0//EN" "http://www.w3.org/TR/2001/REC-SVG-20010904/DTD/svg10.dtd"[
	<!ENTITY ns_flows "http://ns.adobe.com/Flows/1.0/">
	<!ENTITY ns_svg "http://www.w3.org/2000/svg">
	<!ENTITY ns_xlink "http://www.w3.org/1999/xlink">
	<!ENTITY st0 "font-size:7px;font-family:'MS-PGothic';adobe-font-script:japanese;">
	<!ENTITY st1 "font-size:6px;font-family:'ArialMT';">
	<!-- White fill  -->
	<!ENTITY st2 "fill:#FFFFFF;stroke:#000000; stroke-width:1.41;stroke-linecap:round;stroke-linejoin:round;">
	<!-- Yellow fill  -->
	<!ENTITY st3 "fill:#FFFFCC;stroke:#FFFFCC; stroke-width:0.1;stroke-linecap:round;stroke-linejoin:round;">
	<!-- Gray fill  -->
	<!ENTITY st4 "fill:#CCCCCC;stroke:#CCCCCC; stroke-width:0.1;stroke-linecap:round;stroke-linejoin:round;">
	<!-- Light-blue fill -->
	<!ENTITY st5 "fill:#CCECF4;stroke:#000000; stroke-width:1.133;stroke-linecap:round;stroke-linejoin:round;">
	<!ENTITY st6 "fill:none;stroke-linecap:butt; stroke-linejoin:round;">
	<!ENTITY st7 "fill:none;stroke:#000000;stroke-linecap:round;stroke-linejoin:round;">
	<!ENTITY st8 "enable-background:new    ;">
	<!-- Black fill -->
	<!ENTITY st9 "fill:#000000;stroke:#000000; stroke-linecap:round;stroke-linejoin:round;">
	<!-- SRS note   -->
	<!ENTITY st10 "font-size:9px;font-family:'ArialMT';">
	<!ENTITY st11 "font-size:9px;font-family:'Svg Symbol';">
	<!ENTITY st12 "font-size:6px;font-family:'Svg Symbol';">
	<!ENTITY st13 "fill:none;stroke:#ff0000;stroke-linecap:round;stroke-linejoin:round;">
	<!-- Yellow fill  -->
	<!ENTITY st14 "fill:#FFFF00;stroke:#FFFF00; stroke-width:0.1;stroke-linecap:round;stroke-linejoin:round;">
	<!ENTITY st15 "font-size:6px;font-family:'MS-PGothic';adobe-font-script:japanese;">
	<!ENTITY st16 "1.00 0.00 0.00 1.00">
	<!ENTITY st17 "0.00 -1.00 1.00 0.00">
	<!ENTITY st18 "font-size:6px;font-family:'Arial';">
	<!ENTITY st19 "font-size:9px;font-family:'Arial';">
	<!ENTITY st20 "font-size:6px;font-family:'MS-PGothic','MS PGothic';adobe-font-script:japanese;">
	<!ENTITY st21 "font-size:7px;font-family:'MS-PGothic','MS PGothic';adobe-font-script:japanese;">
	<!ATTLIST svg
		xmlns:ewd CDATA #FIXED "http://shcl.co.jp/ewd"
		xmlns:a CDATA #FIXED "http://ns.adobe.com/AdobeSVGViewerExtensions/3.0/"
		ewd:ver CDATA #IMPLIED
	>
	<!ATTLIST a
		ewd:lineID CDATA #IMPLIED
		ewd:groupID CDATA #IMPLIED
		ewd:figtype CDATA #IMPLIED
		ewd:code CDATA #IMPLIED
		ewd:figID CDATA #IMPLIED
		ewd:pinNo CDATA #IMPLIED
		ewd:comment CDATA #IMPLIED >
	<!ATTLIST g
		ewd:lineID CDATA #IMPLIED
		ewd:groupID CDATA #IMPLIED
		ewd:figtype CDATA #IMPLIED
		ewd:code CDATA #IMPLIED
		ewd:figID CDATA #IMPLIED
		ewd:pinNo CDATA #IMPLIED
		ewd:comment CDATA #IMPLIED >
	<!ATTLIST text
		ewd:textID CDATA #IMPLIED >
	<!ATTLIST title
		ewd:textID CDATA #IMPLIED >
]>
<!-- Generator: Shintec Hozumi YS   -->
<svg onload="call_execInitLoadProc_svg('system')" style="overflow:visible;  enable-background:new 0 0 1536.827 710.000" viewBox="0 0 1536.827 710.000" height="710.000" width="1536.827" xml:space="preserve" ewd:ver="2.3.1.16" xmlns="&ns_svg;" xmlns:a="http://ns.adobe.com/AdobeSVGViewerExtensions/3.0/" xmlns:ewd="http://shcl.co.jp/ewd" xmlns:xlink="&ns_xlink;">
<text style="&st18;" transform="matrix(&st17;  1398.57  416.66 )">W</text><text style="&st18;" transform="matrix(&st17;  1398.57  521.67 )">W-B</text><text style="&st18;" transform="matrix(&st17;  1458.06  598.16 )">W-B</text><text style="&st18;" transform="matrix(&st17;  1469.39  604.36 )">(RHD *1)</text><text style="&st18;" transform="matrix(&st17;  1398.57  598.16 )">W-B</text><text style="&st18;" transform="matrix(&st17;  1409.9  603.82 )">(LHD *1)</text><text style="&st18;" transform="matrix(&st17;  1458.06  670.4 )">W-B</text><text style="&st18;" transform="matrix(&st17;  1469.39  676.6 )">(RHD *1)</text><text style="&st18;" transform="matrix(&st17;  1398.57  670.4 )">W-B</text><text style="&st18;" transform="matrix(&st17;  1409.9  676.06 )">(LHD *1)</text><text style="&st18;" transform="matrix(&st16;  1489.53  626.98 )">W-B</text><text style="&st18;" transform="matrix(&st16;  1483.33  638.31 )">(RHD *1)</text><text style="&st18;" transform="matrix(&st17;  1409.9  418.52 )">(*1)</text><text style="&st18;" transform="matrix(&st17;  1409.9  520.51 )">(*1)</text><path style="stroke-width: 1.42 ;&st7;  " d=" M  1410.76,   627.15  L  1405.79,   622.18  " /><path style="stroke-width: 1.42 ;&st7;  " d=" M  1393.77,   634.21  L  1398.74,   639.18  " /><path style="stroke-width: 1.42 ;&st7;  " d=" M  1405.79,   639.18  L  1410.76,   634.21  " /><path style="stroke-width: 1.42 ;&st7;  " d=" M  1398.74,   622.18  L  1393.77,   627.15  " /><text style="&st18;" transform="matrix(&st16;  1057.26  442.85 )">(*4)</text><text style="&st18;" transform="matrix(&st16;  1059.13  431.52 )">W</text><text style="&st18;" transform="matrix(&st16;  1006.27  442.85 )">(*4)</text><text style="&st18;" transform="matrix(&st16;  1008.13  431.52 )">W</text><text style="&st18;" transform="matrix(&st16;  1050.63  338.03 )">W(*5 *1)</text><text style="&st18;" transform="matrix(&st16;  1050.63  287.04 )">W(*6 *1)</text><text style="&st18;" transform="matrix(&st17;  1228.6  572.66 )">W-B</text><text style="&st18;" transform="matrix(&st17;  1239.93  571.5 )">(*4)</text><text style="&st18;" transform="matrix(&st17;  1228.6  463.41 )">W</text><text style="&st18;" transform="matrix(&st17;  1239.93  465.27 )">(*4)</text><text style="&st18;" transform="matrix(&st17;  1313.58  572.66 )">W-B</text><text style="&st18;" transform="matrix(&st17;  1324.92  575.18 )">(*4 *7)</text><text style="&st18;" transform="matrix(&st17;  1313.58  463.41 )">W</text><text style="&st18;" transform="matrix(&st17;  1324.92  468.95 )">(*4 *7)</text><path style="stroke-width: 1.42 ;&st7;  " d=" M  1235.82,   443.71  L  1240.79,   438.74  " /><path style="stroke-width: 1.42 ;&st7;  " d=" M  1223.80,   438.74  L  1228.76,   443.71  " /><path style="stroke-width: 1.42 ;&st7;  " d=" M  1240.79,   431.69  L  1235.82,   426.71  " /><path style="stroke-width: 1.42 ;&st7;  " d=" M  1228.76,   426.71  L  1223.80,   431.69  " /><path style="stroke-width: 1.42 ;&st7;  " d=" M  1240.79,   584.66  L  1235.82,   579.69  " /><path style="stroke-width: 1.42 ;&st7;  " d=" M  1223.80,   591.72  L  1228.76,   596.69  " /><path style="stroke-width: 1.42 ;&st7;  " d=" M  1235.82,   596.69  L  1240.79,   591.72  " /><path style="stroke-width: 1.42 ;&st7;  " d=" M  1228.76,   579.69  L  1223.80,   584.66  " /><text style="&st18;" transform="matrix(&st16;  1057.26  672.31 )">(*4)</text><text style="&st18;" transform="matrix(&st16;  1056.1  660.98 )">W-B</text><text style="&st18;" transform="matrix(&st16;  1006.27  672.31 )">(*4)</text><text style="&st18;" transform="matrix(&st16;  1005.11  660.98 )">W-B</text><text style="&st18;" transform="matrix(&st17;  1228.6  632.15 )">W-B</text><text style="&st18;" transform="matrix(&st17;  1239.93  630.99 )">(*4)</text><path style="stroke-width: 1.42 ;&st7;  " d=" M  1410.76,   554.19  L  1402.27,   554.19  " /><path style="stroke-width: 1.42 ;&st7;  " d=" M  1393.77,   358.73  L  1402.27,   358.73  " /><g ewd:figtype="conn" ewd:figID="4" ewd:code="Y3"><path style="stroke:#000000;stroke-width: 5.10 ;&st6;" d=" M  1402.27,   477.71  L  1402.27,   494.70  " /><path style="stroke:#FFFFFF;stroke-width: 4.53 ;&st6;" d=" M  1402.27,   477.71  L  1402.27,   494.70  " /><path style="stroke:#000000;stroke-width: 1.13 ;&st6;" d=" M  1402.27,   477.71  L  1402.27,   494.70  " /><path style="stroke:#008837;stroke-width: 5.10 ;&st6;" d=" M  1402.27,   435.21  L  1402.27,   452.21  " /><path style="stroke-width: 0.85 ;&st7;  " d=" M  1406.51,   469.21  L  1398.02,   469.21  " /><text style="&st18;" transform="matrix(&st17;  1398.57  445.79 )">G</text><text style="&st18;" transform="matrix(&st17;  1398.57  491.93 )">W-B</text><text style="&st18;" transform="matrix(&st16;  1404.85  491.01 )">E</text><text style="&st18;" transform="matrix(&st16;  1404.85  443.41 )">B</text><path style="stroke-width: 1.42 ;&st7;  " d=" M  1393.77,   452.21  L  1419.26,   452.21  L  1419.26,   477.71  L  1393.77,   477.71  L  1393.77,   452.21  " /><path style="stroke-width: 0.85 ;&st7;  " d=" M  1402.27,   452.21  L  1402.27,   477.71  " /><path style="stroke-width: 0.28 ;&st9;  " d=" M  1402.27,   469.21  L  1396.60,   460.71  L  1407.93,   460.71  L  1402.27,   469.21  " /><path style="stroke-width: 0.85 ;&st7;  " d=" M  1415.00,   459.54  L  1412.66,   462.58  L  1411.20,   460.04  L  1415.00,   459.54  L  1413.72,   460.28  L  1412.73,   461.57  L  1412.11,   460.49  L  1413.72,   460.28  L  1413.08,   460.65  L  1412.76,   461.06  L  1412.57,   460.72  L  1413.08,   460.65  " /><path style="stroke-width: 0.85 ;&st7;  " d=" M  1417.00,   463.01  L  1414.67,   466.05  L  1413.20,   463.51  L  1417.00,   463.01  L  1415.72,   463.75  L  1414.74,   465.03  L  1414.11,   463.96  L  1415.72,   463.75  L  1415.08,   464.12  L  1414.77,   464.53  L  1414.57,   464.19  L  1415.08,   464.12  " /><path style="stroke-width: 1.42 ;&st7;  " d=" M  1385.27,   494.70  L  1427.76,   494.70  L  1427.76,   435.21  L  1385.27,   435.21  L  1385.27,   494.70  " /><path style="stroke-width: 0.85 ;&st7;  " d=" M  1415.00,   459.54  L  1407.64,   463.79  " /><path style="stroke-width: 0.85 ;&st7;  " d=" M  1409.64,   467.26  L  1417.00,   463.01  " /><text style="&st18;" transform="matrix(&st16;  1395.93  502.9 )">2</text><text style="&st18;" transform="matrix(&st16;  1395.93  431.52 )">1</text><g ewd:figtype="title"><text style="&st18;" transform="matrix(&st17;  1442.48  497.61 )" ewd:textID="16">Center Stop <tspan x="0 " dy="6.0">Light Assembly</tspan></text><text style="&st18;" transform="matrix(&st17;  1435.66  497.6 )">Y3</text></g></g><g ewd:figtype="conn" ewd:figID="11" ewd:code="I93"><path style="stroke-width: 1.42 ;&st7;  " d=" M  1453.26,   622.18  L  1470.25,   622.18  L  1470.25,   639.18  L  1453.26,   639.18  L  1453.26,   622.18  " /><path style="stroke-width: 0.85 ;&st7;  " d=" M  1461.76,   622.18  L  1461.76,   639.18  " /><path style="stroke-width: 0.85 ;&st7;  " d=" M  1461.76,   630.68  L  1470.25,   630.68  " /><path style="stroke-width: 0.85 ;&st7;  " d=" M  1460.56,   629.68  L  1460.29,   630.15  L  1460.20,   630.68  L  1460.29,   631.21  L  1460.56,   631.68  L  1460.98,   632.03  L  1461.48,   632.22  L  1462.03,   632.22  L  1462.53,   632.03  L  1462.95,   631.68  L  1463.22,   631.21  L  1463.31,   630.68  L  1463.22,   630.15  L  1462.95,   629.68  L  1462.53,   629.33  L  1462.03,   629.14  L  1461.48,   629.14  L  1460.98,   629.33  L  1460.56,   629.68  L  1460.96,   630.39  L  1460.96,   630.97  L  1461.33,   631.42  L  1461.90,   631.52  L  1462.41,   631.23  L  1462.61,   630.68  L  1462.41,   630.13  L  1461.90,   629.84  L  1461.33,   629.94  L  1461.76,   630.68  " /><text style="&st18;" transform="matrix(&st16;  1452.28  645.68 )">1</text><text style="&st18;" transform="matrix(&st16;  1459.49  645.68 )">A</text><path style="stroke-width: 1.42 ;&st7;   " d=" M  1466.29,   643.71  C  1466.29    641.21   1464.26    639.18   1461.76    639.18  " /><path style="stroke-width: 1.42 ;&st7;   " d=" M  1461.76,   639.18  C  1459.25    639.18   1457.22    641.21   1457.22    643.71  " /><path style="stroke-width: 1.42 ;&st7;   " d=" M  1457.22,   643.71  C  1457.22    646.21   1459.25    648.24   1461.76    648.24  " /><path style="stroke-width: 1.42 ;&st7;   " d=" M  1461.76,   648.24  C  1464.26    648.24   1466.29    646.21   1466.29    643.71  " /><text style="&st18;" transform="matrix(&st16;  1448.94  619.62 )">10</text><text style="&st18;" transform="matrix(&st16;  1459.49  619.62 )">A</text><path style="stroke-width: 1.42 ;&st7;   " d=" M  1466.29,   617.65  C  1466.29    615.15   1464.26    613.12   1461.76    613.12  " /><path style="stroke-width: 1.42 ;&st7;   " d=" M  1461.76,   613.12  C  1459.25    613.12   1457.22    615.15   1457.22    617.65  " /><path style="stroke-width: 1.42 ;&st7;   " d=" M  1457.22,   617.65  C  1457.22    620.15   1459.25    622.18   1461.76    622.18  " /><path style="stroke-width: 1.42 ;&st7;   " d=" M  1461.76,   622.18  C  1464.26    622.18   1466.29    620.15   1466.29    617.65  " /><text style="&st18;" transform="matrix(&st16;  1472.91  624.15 )">2</text><path style="stroke-width: 1.42 ;&st7;   " d=" M  1479.32,   630.68  C  1479.32    628.18   1477.29    626.15   1474.79    626.15  " /><path style="stroke-width: 1.42 ;&st7;   " d=" M  1474.79,   626.15  C  1472.28    626.15   1470.25    628.18   1470.25    630.68  " /><path style="stroke-width: 1.42 ;&st7;   " d=" M  1470.25,   630.68  C  1470.25    633.18   1472.28    635.21   1474.79    635.21  " /><path style="stroke-width: 1.42 ;&st7;   " d=" M  1474.79,   635.21  C  1477.29    635.21   1479.32    633.18   1479.32    630.68  " /><text style="&st18;" transform="matrix(&st16;  1472.52  632.65 )">A</text><g ewd:figtype="title"><text style="&st18;" transform="matrix(&st17;  1434.83  642.08 )" ewd:textID="18">No. 5 <tspan x="0 " dy="6.0">Junction </tspan><tspan x="0 " dy="6.0">Connector</tspan></text><text style="&st18;" transform="matrix(&st17;  1428.01  642.08 )">I93(A)</text></g></g><g ewd:figtype="conn" ewd:figID="12" ewd:code="T5"><path style="stroke-width: 0.85 ;&st7;  " d=" M  1232.29,   515.95  L  1232.29,   520.20  " /><path style="stroke-width: 0.85 ;&st7;  " d=" M  1232.29,   503.20  L  1232.29,   507.45  " /><path style="stroke-width: 0.85 ;&st7;   " d=" M  1229.89,   511.70  C  1230.68    513.04   1232.41    513.48   1233.74    512.69  " /><path style="stroke-width: 0.85 ;&st7;   " d=" M  1233.74,   512.69  C  1235.08    511.90   1235.53    510.17   1234.74    508.83  " /><path style="stroke-width: 0.85 ;&st7;   " d=" M  1234.74,   508.83  C  1234.21    507.94   1233.33    507.44   1232.29    507.45  " /><path style="stroke-width: 1.42 ;&st7;   " d=" M  1240.79,   511.70  C  1240.79    507.01   1236.99    503.20   1232.29    503.20  " /><path style="stroke-width: 1.42 ;&st7;   " d=" M  1232.29,   503.20  C  1227.60    503.20   1223.80    507.01   1223.80    511.70  " /><path style="stroke-width: 1.42 ;&st7;   " d=" M  1223.80,   511.70  C  1223.80    516.39   1227.60    520.20   1232.29    520.20  " /><path style="stroke-width: 1.42 ;&st7;   " d=" M  1232.29,   520.20  C  1236.99    520.20   1240.79    516.39   1240.79    511.70  " /><path style="stroke-width: 0.85 ;&st7;   " d=" M  1232.29,   515.95  C  1233.85    515.96   1235.12    514.71   1235.13    513.15  " /><path style="stroke-width: 0.85 ;&st7;   " d=" M  1235.13,   513.15  C  1235.14    511.60   1233.88    510.33   1232.33    510.32  " /><path style="stroke-width: 0.85 ;&st7;   " d=" M  1232.33,   510.32  C  1231.30    510.31   1230.41    510.81   1229.89    511.70  " /><path style="stroke-width: 0.85 ;&st7;  " d=" M  1232.29,   486.20  L  1232.29,   503.20  " /><path style="stroke-width: 0.85 ;&st7;  " d=" M  1232.29,   537.20  L  1232.29,   520.20  " /><path style="stroke-width: 1.42 ;&st7;  " d=" M  1206.80,   537.20  L  1257.79,   537.20  L  1257.79,   486.20  L  1206.80,   486.20  L  1206.80,   537.20  " /><text style="&st18;" transform="matrix(&st17;  1220.1  517.62 )" ewd:textID="30">Stop</text><text style="&st18;" transform="matrix(&st16;  1234.88  494.4 )">STP</text><text style="&st18;" transform="matrix(&st16;  1234.88  533.51 )">E</text><text style="&st18;" transform="matrix(&st16;  1222.81  543.7 )">5</text><text style="&st18;" transform="matrix(&st16;  1230.03  543.7 )">B</text><path style="stroke-width: 1.42 ;&st7;   " d=" M  1236.83,   541.73  C  1236.83    539.22   1234.80    537.20   1232.29    537.20  " /><path style="stroke-width: 1.42 ;&st7;   " d=" M  1232.29,   537.20  C  1229.79    537.20   1227.76    539.22   1227.76    541.73  " /><path style="stroke-width: 1.42 ;&st7;   " d=" M  1227.76,   541.73  C  1227.76    544.23   1229.79    546.26   1232.29    546.26  " /><path style="stroke-width: 1.42 ;&st7;   " d=" M  1232.29,   546.26  C  1234.80    546.26   1236.83    544.23   1236.83    541.73  " /><text style="&st18;" transform="matrix(&st16;  1222.81  483.64 )">6</text><text style="&st18;" transform="matrix(&st16;  1230.03  483.64 )">B</text><path style="stroke-width: 1.42 ;&st7;   " d=" M  1236.83,   481.67  C  1236.83    479.17   1234.80    477.14   1232.29    477.14  " /><path style="stroke-width: 1.42 ;&st7;   " d=" M  1232.29,   477.14  C  1229.79    477.14   1227.76    479.17   1227.76    481.67  " /><path style="stroke-width: 1.42 ;&st7;   " d=" M  1227.76,   481.67  C  1227.76    484.17   1229.79    486.20   1232.29    486.20  " /><path style="stroke-width: 1.42 ;&st7;   " d=" M  1232.29,   486.20  C  1234.80    486.20   1236.83    484.17   1236.83    481.67  " /><g ewd:figtype="title"><text style="&st18;" transform="matrix(&st17;  1197.15  540.1 )" ewd:textID="27">Rear Combination <tspan x="0 " dy="6.0">Light Assembly LH</tspan></text><text style="&st18;" transform="matrix(&st17;  1190.33  540.09 )">T5(B)</text></g></g><g ewd:figtype="conn" ewd:figID="15" ewd:code="T7"><path style="stroke-width: 0.85 ;&st7;  " d=" M  1317.28,   503.20  L  1317.28,   507.45  " /><path style="stroke-width: 0.85 ;&st7;  " d=" M  1317.28,   515.95  L  1317.28,   520.20  " /><path style="stroke-width: 0.85 ;&st7;   " d=" M  1314.87,   511.70  C  1315.66    513.04   1317.39    513.48   1318.73    512.69  " /><path style="stroke-width: 0.85 ;&st7;   " d=" M  1318.73,   512.69  C  1320.07    511.90   1320.51    510.17   1319.72    508.83  " /><path style="stroke-width: 0.85 ;&st7;   " d=" M  1319.72,   508.83  C  1319.20    507.94   1318.31    507.44   1317.28    507.45  " /><path style="stroke-width: 1.42 ;&st7;   " d=" M  1325.78,   511.70  C  1325.78    507.01   1321.97    503.20   1317.28    503.20  " /><path style="stroke-width: 1.42 ;&st7;   " d=" M  1317.28,   503.20  C  1312.59    503.20   1308.78    507.01   1308.78    511.70  " /><path style="stroke-width: 1.42 ;&st7;   " d=" M  1308.78,   511.70  C  1308.78    516.39   1312.59    520.20   1317.28    520.20  " /><path style="stroke-width: 1.42 ;&st7;   " d=" M  1317.28,   520.20  C  1321.97    520.20   1325.78    516.39   1325.78    511.70  " /><path style="stroke-width: 0.85 ;&st7;   " d=" M  1317.28,   515.95  C  1318.84    515.96   1320.10    514.71   1320.11    513.15  " /><path style="stroke-width: 0.85 ;&st7;   " d=" M  1320.11,   513.15  C  1320.12    511.60   1318.87    510.33   1317.31    510.32  " /><path style="stroke-width: 0.85 ;&st7;   " d=" M  1317.31,   510.32  C  1316.28    510.31   1315.40    510.81   1314.87    511.70  " /><path style="stroke-width: 0.85 ;&st7;  " d=" M  1317.28,   486.20  L  1317.28,   503.20  " /><path style="stroke-width: 0.85 ;&st7;  " d=" M  1317.28,   537.20  L  1317.28,   520.20  " /><path style="stroke-width: 1.42 ;&st7;  " d=" M  1291.78,   537.20  L  1342.78,   537.20  L  1342.78,   486.20  L  1291.78,   486.20  L  1291.78,   537.20  " /><text style="&st18;" transform="matrix(&st17;  1305.09  517.62 )" ewd:textID="30">Stop</text><text style="&st18;" transform="matrix(&st16;  1319.86  494.4 )">B</text><text style="&st18;" transform="matrix(&st16;  1319.86  533.51 )">TE</text><text style="&st18;" transform="matrix(&st16;  1307.8  543.7 )">1</text><text style="&st18;" transform="matrix(&st16;  1314.86  543.7 )">C</text><path style="stroke-width: 1.42 ;&st7;   " d=" M  1321.81,   541.73  C  1321.81    539.22   1319.78    537.20   1317.28    537.20  " /><path style="stroke-width: 1.42 ;&st7;   " d=" M  1317.28,   537.20  C  1314.78    537.20   1312.75    539.22   1312.75    541.73  " /><path style="stroke-width: 1.42 ;&st7;   " d=" M  1312.75,   541.73  C  1312.75    544.23   1314.78    546.26   1317.28    546.26  " /><path style="stroke-width: 1.42 ;&st7;   " d=" M  1317.28,   546.26  C  1319.78    546.26   1321.81    544.23   1321.81    541.73  " /><text style="&st18;" transform="matrix(&st16;  1307.8  483.64 )">4</text><text style="&st18;" transform="matrix(&st16;  1314.86  483.64 )">C</text><path style="stroke-width: 1.42 ;&st7;   " d=" M  1321.81,   481.67  C  1321.81    479.17   1319.78    477.14   1317.28    477.14  " /><path style="stroke-width: 1.42 ;&st7;   " d=" M  1317.28,   477.14  C  1314.78    477.14   1312.75    479.17   1312.75    481.67  " /><path style="stroke-width: 1.42 ;&st7;   " d=" M  1312.75,   481.67  C  1312.75    484.17   1314.78    486.20   1317.28    486.20  " /><path style="stroke-width: 1.42 ;&st7;   " d=" M  1317.28,   486.20  C  1319.78    486.20   1321.81    484.17   1321.81    481.67  " /><g ewd:figtype="title"><text style="&st18;" transform="matrix(&st17;  1282.14  540.1 )" ewd:textID="27">Rear Combination <tspan x="0 " dy="6.0">Light Assembly LH</tspan></text><text style="&st18;" transform="matrix(&st17;  1275.32  540.09 )">T7(C)</text></g></g><g ewd:code="YI3" ewd:figID="34" ewd:comment="14" ewd:figtype="w2w"><text style="&st18;" transform="matrix(&st16;  1388.85  551.91 )">5</text><path style="stroke-width: 1.42 ;&st7;  " d=" M  1406.51,   559.86  L  1402.27,   555.61  L  1398.02,   559.86  " /><path style="stroke-width: 1.42 ;&st7;  " d=" M  1406.51,   563.26  L  1402.27,   559.01  L  1398.02,   563.26  " /><g ewd:code="" ewd:figID="67" ewd:comment="14" ewd:figtype="commref"><text style="&st18;" transform="matrix(&st16;  1411.3  551.91 )">(*14)</text></g></g><g ewd:code="YI2" ewd:figID="35" ewd:comment="13" ewd:figtype="w2w"><text style="&st18;" transform="matrix(&st16;  1388.85  543.41 )">1</text><g ewd:code="" ewd:figID="68" ewd:comment="13" ewd:figtype="commref"><text style="&st18;" transform="matrix(&st16;  1411.3  543.41 )">(*13)</text></g></g><g ewd:code="YI4" ewd:figID="36" ewd:comment="18" ewd:figtype="w2w"><text style="&st18;" transform="matrix(&st16;  1385.51  534.92 )">12</text><g ewd:code="" ewd:figID="84" ewd:comment="18" ewd:figtype="commref"><text style="&st18;" transform="matrix(&st16;  1411.3  534.92 )">(*18)</text></g></g><g ewd:code="YI4" ewd:figID="37" ewd:comment="18" ewd:figtype="w2w"><text style="&st18;" transform="matrix(&st16;  1385.51  390.44 )">20</text><g ewd:code="" ewd:figID="85" ewd:comment="18" ewd:figtype="commref"><text style="&st18;" transform="matrix(&st16;  1411.3  390.44 )">(*18)</text></g></g><g ewd:code="YI3" ewd:figID="38" ewd:comment="16" ewd:figtype="w2w"><text style="&st18;" transform="matrix(&st16;  1388.85  381.94 )">4</text><g ewd:code="" ewd:figID="74" ewd:comment="16" ewd:figtype="commref"><text style="&st18;" transform="matrix(&st16;  1411.3  381.94 )">(*16)</text></g></g><g ewd:code="YI3" ewd:figID="39" ewd:comment="15" ewd:figtype="w2w"><text style="&st18;" transform="matrix(&st16;  1388.85  373.44 )">1</text><g ewd:code="" ewd:figID="69" ewd:comment="15" ewd:figtype="commref"><text style="&st18;" transform="matrix(&st16;  1411.3  373.44 )">(*15)</text></g></g><g ewd:code="YI2" ewd:figID="40" ewd:comment="13" ewd:figtype="w2w"><text style="&st18;" transform="matrix(&st16;  1388.85  364.94 )">2</text><path style="stroke-width: 1.42 ;&st7;  " d=" M  1398.02,   349.66  L  1402.27,   353.91  L  1406.51,   349.66  " /><path style="stroke-width: 1.42 ;&st7;  " d=" M  1406.51,   353.06  L  1402.27,   357.31  L  1398.02,   353.06  " /><g ewd:code="" ewd:figID="70" ewd:comment="13" ewd:figtype="commref"><text style="&st18;" transform="matrix(&st16;  1411.3  364.94 )">(*13)</text></g></g><g ewd:figtype="gp" ewd:figID="44" ewd:code="IC"><path style="stroke-width: 0.85 ;&st7;  " d=" M  1402.27,   697.25  L  1402.27,   701.50  " /><path style="stroke-width: 0.85 ;&st7;  " d=" M  1393.77,   701.50  L  1410.76,   701.50  " /><path style="stroke-width: 0.85 ;&st7;  " d=" M  1398.02,   704.33  L  1406.51,   704.33  " /><path style="stroke-width: 0.85 ;&st7;  " d=" M  1399.43,   707.17  L  1405.10,   707.17  " /><path style="stroke-width: 0.85 ;&st7;  " d=" M  1400.85,   710.00  L  1403.68,   710.00  " /></g><g ewd:figtype="gp" ewd:figID="45" ewd:code="IA"><path style="stroke-width: 0.85 ;&st7;  " d=" M  1461.76,   697.25  L  1461.76,   701.50  " /><path style="stroke-width: 0.85 ;&st7;  " d=" M  1453.26,   701.50  L  1470.25,   701.50  " /><path style="stroke-width: 0.85 ;&st7;  " d=" M  1457.51,   704.33  L  1466.00,   704.33  " /><path style="stroke-width: 0.85 ;&st7;  " d=" M  1458.92,   707.17  L  1464.59,   707.17  " /><path style="stroke-width: 0.85 ;&st7;  " d=" M  1460.34,   710.00  L  1463.17,   710.00  "/></g><g ewd:code="7" ewd:figID="78" ewd:comment="" ewd:figtype="comment"><text style="&st18;" transform="matrix(&st16;  1109.91  122.73 )" ewd:textID="6">* 7 :Algeria, Australia</text></g><g ewd:code="15" ewd:figID="82" ewd:comment="" ewd:figtype="comment"><text style="&st18;" transform="matrix(&st16;  1109.91  148.23 )" ewd:textID="10">*15 :From Jan. 2017 Production until Sep. 2017 Production</text></g><g ewd:code="6" ewd:figID="75" ewd:comment="" ewd:figtype="comment"><text style="&st18;" transform="matrix(&st16;  1109.91  114.24 )" ewd:textID="5">* 6 :RHD 12V Battery Type</text></g><g ewd:code="13" ewd:figID="80" ewd:comment="" ewd:figtype="comment"><text style="&st18;" transform="matrix(&st16;  1109.91  131.23 )" ewd:textID="8">*13 :Before Jan. 2017 Production</text></g><g ewd:code="4" ewd:figID="77" ewd:comment="" ewd:figtype="comment"><text style="&st18;" transform="matrix(&st16;  1109.91  97.24 )" ewd:textID="4">* 4 :Except Pick-Up Body Type</text></g><g ewd:code="18" ewd:figID="86" ewd:comment="" ewd:figtype="comment"><text style="&st18;" transform="matrix(&st16;  1109.91  165.23 )" ewd:textID="12">*18 :From Sep. 2022 Production</text></g><g ewd:code="16" ewd:figID="83" ewd:comment="" ewd:figtype="comment"><text style="&st18;" transform="matrix(&st16;  1109.91  156.73 )" ewd:textID="11">*16 :From Sep. 2017 Production until Sep. 2022 Production</text></g><g ewd:code="14" ewd:figID="81" ewd:comment="" ewd:figtype="comment"><text style="&st18;" transform="matrix(&st16;  1109.91  139.73 )" ewd:textID="9">*14 :From Jan. 2017 Production until Sep. 2022 Production</text></g><g ewd:code="5" ewd:figID="76" ewd:comment="" ewd:figtype="comment"><text style="&st18;" transform="matrix(&st16;  1109.91  105.74 )">* 5 :LHD</text></g><g ewd:code="1" ewd:figID="79" ewd:comment="" ewd:figtype="comment"><text style="&st18;" transform="matrix(&st16;  1109.91  88.74 )" ewd:textID="1">* 1 :w/ Center Stop Light Assembly</text></g></svg>
