<?xml version="1.0" encoding="utf-8"?>
<!DOCTYPE svg PUBLIC "-//W3C//DTD SVG 1.0//EN" "http://www.w3.org/TR/2001/REC-SVG-20010904/DTD/svg10.dtd"[
	<!ENTITY ns_flows "http://ns.adobe.com/Flows/1.0/">
	<!ENTITY ns_svg "http://www.w3.org/2000/svg">
	<!ENTITY ns_xlink "http://www.w3.org/1999/xlink">
	<!ENTITY st0 "font-size:7px;font-family:'MS-PGothic';adobe-font-script:japanese;">
	<!ENTITY st1 "font-size:6px;font-family:'ArialMT';">
	<!-- White fill  -->
	<!ENTITY st2 "fill:#FFFFFF;stroke:#000000; stroke-width:1.41;stroke-linecap:round;stroke-linejoin:round;">
	<!-- Yellow fill  -->
	<!ENTITY st3 "fill:#FFFFCC;stroke:#FFFFCC; stroke-width:0.1;stroke-linecap:round;stroke-linejoin:round;">
	<!-- Gray fill  -->
	<!ENTITY st4 "fill:#CCCCCC;stroke:#CCCCCC; stroke-width:0.1;stroke-linecap:round;stroke-linejoin:round;">
	<!-- Light-blue fill -->
	<!ENTITY st5 "fill:#CCECF4;stroke:#000000; stroke-width:1.133;stroke-linecap:round;stroke-linejoin:round;">
	<!ENTITY st6 "fill:none;stroke-linecap:butt; stroke-linejoin:round;">
	<!ENTITY st7 "fill:none;stroke:#000000;stroke-linecap:round;stroke-linejoin:round;">
	<!ENTITY st8 "enable-background:new    ;">
	<!-- Black fill -->
	<!ENTITY st9 "fill:#000000;stroke:#000000; stroke-linecap:round;stroke-linejoin:round;">
	<!-- SRS note   -->
	<!ENTITY st10 "font-size:9px;font-family:'ArialMT';">
	<!ENTITY st11 "font-size:9px;font-family:'Svg Symbol';">
	<!ENTITY st12 "font-size:6px;font-family:'Svg Symbol';">
	<!ENTITY st13 "fill:none;stroke:#ff0000;stroke-linecap:round;stroke-linejoin:round;">
	<!-- Yellow fill  -->
	<!ENTITY st14 "fill:#FFFF00;stroke:#FFFF00; stroke-width:0.1;stroke-linecap:round;stroke-linejoin:round;">
	<!ENTITY st15 "font-size:6px;font-family:'MS-PGothic';adobe-font-script:japanese;">
	<!ENTITY st16 "1.00 0.00 0.00 1.00">
	<!ENTITY st17 "0.00 -1.00 1.00 0.00">
	<!ENTITY st18 "font-size:6px;font-family:'Arial';">
	<!ENTITY st19 "font-size:9px;font-family:'Arial';">
	<!ENTITY st20 "font-size:6px;font-family:'MS-PGothic','MS PGothic';adobe-font-script:japanese;">
	<!ENTITY st21 "font-size:7px;font-family:'MS-PGothic','MS PGothic';adobe-font-script:japanese;">
	<!ATTLIST svg
		xmlns:ewd CDATA #FIXED "http://shcl.co.jp/ewd"
		xmlns:a CDATA #FIXED "http://ns.adobe.com/AdobeSVGViewerExtensions/3.0/"
		ewd:ver CDATA #IMPLIED
	>
	<!ATTLIST a
		ewd:lineID CDATA #IMPLIED
		ewd:groupID CDATA #IMPLIED
		ewd:figtype CDATA #IMPLIED
		ewd:code CDATA #IMPLIED
		ewd:figID CDATA #IMPLIED
		ewd:pinNo CDATA #IMPLIED
		ewd:comment CDATA #IMPLIED >
	<!ATTLIST g
		ewd:lineID CDATA #IMPLIED
		ewd:groupID CDATA #IMPLIED
		ewd:figtype CDATA #IMPLIED
		ewd:code CDATA #IMPLIED
		ewd:figID CDATA #IMPLIED
		ewd:pinNo CDATA #IMPLIED
		ewd:comment CDATA #IMPLIED >
	<!ATTLIST text
		ewd:textID CDATA #IMPLIED >
	<!ATTLIST title
		ewd:textID CDATA #IMPLIED >
]>
<!-- Generator: Shintec Hozumi YS   -->
<svg onload="call_execInitLoadProc_svg('system')" style="overflow:visible;  enable-background:new 0 0 2576.940 710.000" viewBox="0 0 2576.940 710.000" height="710.000" width="2576.940" xml:space="preserve" ewd:ver="2.3.1.16" xmlns="&ns_svg;" xmlns:a="http://ns.adobe.com/AdobeSVGViewerExtensions/3.0/" xmlns:ewd="http://shcl.co.jp/ewd" xmlns:xlink="&ns_xlink;">
<text style="&st18;" transform="matrix(&st17;  565.71  165.02 )">B</text><text style="&st18;" transform="matrix(&st17;  922.65  542.92 )">W-B</text><text style="&st18;" transform="matrix(&st17;  933.98  544.93 )">(LHD)</text><text style="&st18;" transform="matrix(&st17;  973.64  542.92 )">W-B</text><text style="&st18;" transform="matrix(&st17;  984.97  545.44 )">(RHD)</text><text style="&st18;" transform="matrix(&st17;  948.15  542.92 )">W-B</text><text style="&st18;" transform="matrix(&st17;  959.48  544.93 )">(LHD)</text><text style="&st18;" transform="matrix(&st17;  888.66  542.92 )">W-B</text><text style="&st18;" transform="matrix(&st17;  899.99  545.44 )">(RHD)</text><text style="&st18;" transform="matrix(&st17;  849.0  358.47 )">(*1 *6)</text><text style="&st18;" transform="matrix(&st17;  577.04  329.29 )">(*3)</text><text style="&st18;" transform="matrix(&st17;  628.03  329.29 )">(*3)</text><text style="&st18;" transform="matrix(&st17;  577.04  388.78 )">(*3)</text><text style="&st18;" transform="matrix(&st17;  628.03  388.78 )">(*3)</text><path style="stroke-width: 1.42 ;&st7;  " d=" M   739.38,   350.23  L   747.88,   350.23  " /><path style="stroke-width: 1.42 ;&st7;  " d=" M   688.38,   350.23  L   696.88,   350.23  " /><path style="stroke-width: 1.42 ;&st7;  " d=" M   713.88,   197.25  L   722.38,   197.25  " /><path style="stroke-width: 1.42 ;&st7;  " d=" M   662.89,   197.25  L   671.39,   197.25  " /><path style="stroke-width: 1.42 ;&st7;  " d=" M   577.90,   358.73  L   569.40,   358.73  " /><path style="stroke-width: 1.42 ;&st7;  " d=" M   628.89,   358.73  L   620.40,   358.73  " /><path style="stroke-width: 1.42 ;&st7;  " d=" M   832.86,   528.70  L   841.36,   528.70  " /><text style="&st18;" transform="matrix(&st17;  616.7  389.21 )">Y-G</text><text style="&st18;" transform="matrix(&st17;  973.64  355.95 )">W-B</text><text style="&st18;" transform="matrix(&st17;  565.71  389.05 )">Y-R</text><text style="&st18;" transform="matrix(&st17;  837.66  351.99 )">B</text><text style="&st18;" transform="matrix(&st17;  565.71  118.28 )">B</text><text style="&st18;" transform="matrix(&st17;  565.71  241.51 )">B</text><text style="&st18;" transform="matrix(&st17;  667.69  176.43 )">Y-B</text><text style="&st18;" transform="matrix(&st17;  718.68  173.41 )">Y</text><text style="&st18;" transform="matrix(&st17;  667.69  244.42 )">Y-B</text><text style="&st18;" transform="matrix(&st17;  718.68  241.4 )">Y</text><text style="&st18;" transform="matrix(&st17;  888.65  224.51 )">B</text><text style="&st18;" transform="matrix(&st17;  837.66  225.45 )">W</text><text style="&st18;" transform="matrix(&st17;  565.71  329.41 )">Y-B</text><text style="&st18;" transform="matrix(&st17;  616.7  326.38 )">Y</text><text style="&st18;" transform="matrix(&st17;  693.19  327.43 )">W</text><text style="&st18;" transform="matrix(&st17;  744.18  326.5 )">B</text><text style="&st18;" transform="matrix(&st17;  693.19  386.92 )">W</text><text style="&st18;" transform="matrix(&st17;  744.18  385.99 )">B</text><text style="&st18;" transform="matrix(&st17;  888.66  355.95 )">W-B</text><text style="&st18;" transform="matrix(&st17;  837.66  487.97 )">B</text><text style="&st18;" transform="matrix(&st17;  849.0  501.81 )">(RHD *1 *6)</text><text style="&st18;" transform="matrix(&st17;  849.0  578.3 )">(RHD *1 *6)</text><text style="&st18;" transform="matrix(&st17;  837.66  564.46 )">B</text><text style="&st18;" transform="matrix(&st17;  815.0  552.26 )">(LHD *1 *6)</text><text style="&st18;" transform="matrix(&st17;  803.67  538.96 )">B</text><path style="stroke-width: 1.42 ;&st7;  " d=" M   577.90,   134.24  L   572.93,   129.26  " /><path style="stroke-width: 1.42 ;&st7;  " d=" M   560.91,   141.29  L   565.88,   146.26  " /><path style="stroke-width: 1.42 ;&st7;  " d=" M   572.93,   146.26  L   577.90,   141.29  " /><path style="stroke-width: 1.42 ;&st7;  " d=" M   565.88,   129.26  L   560.91,   134.24  " /><path style="stroke-width: 0.85 ;&st7; stroke-dasharray:3, 1.5;" d=" M   683.82,   210.00  L   705.69,   210.00  " /><path style="stroke-width: 0.85 ;&st7; stroke-dasharray:3, 1.5;" d=" M   683.82,   201.50  L   705.69,   201.50  " /><g ewd:figtype="conn" ewd:figID="1" ewd:code="A29,I84"><path style="stroke-width: 1.42 ;&st7;  " d=" M   824.36,   613.68  L   824.36,   647.68  L   858.36,   647.68  L   858.36,   613.68  L   824.36,   613.68  " /><g ewd:lineID="16,17"><text style="&st18;" transform="matrix(&st16;  831.88  611.12 )">6</text><text style="&st18;" transform="matrix(&st16;  831.88  602.05 )">6</text><path style="stroke-width: 1.42 ;&st7;   " d=" M   845.89,   609.15  C   845.89    606.65    843.86    604.62    841.36    604.62  " /><path style="stroke-width: 1.42 ;&st7;   " d=" M   841.36,   604.62  C   838.86    604.62    836.83    606.65    836.83    609.15  " /><path style="stroke-width: 1.42 ;&st7;   " d=" M   836.83,   609.15  C   836.83    611.65    838.86    613.68    841.36    613.68  " /><path style="stroke-width: 1.42 ;&st7;   " d=" M   841.36,   613.68  C   843.86    613.68    845.89    611.65    845.89    609.15  " /><text style="&st18;" transform="matrix(&st16;  838.94  602.05 )">C</text><path style="stroke-width: 1.42 ;&st7;   " d=" M   845.89,   600.09  C   845.89    597.58    843.86    595.55    841.36    595.55  " /><path style="stroke-width: 1.42 ;&st7;   " d=" M   841.36,   595.55  C   838.86    595.55    836.83    597.58    836.83    600.09  " /><path style="stroke-width: 1.42 ;&st7;   " d=" M   836.83,   600.09  C   836.83    602.59    838.86    604.62    841.36    604.62  " /><path style="stroke-width: 1.42 ;&st7;   " d=" M   841.36,   604.62  C   843.86    604.62    845.89    602.59    845.89    600.09  " /><text style="&st18;" transform="matrix(&st16;  839.09  611.12 )">A</text><text style="&st18;" transform="matrix(&st16;  834.44  621.32 )">F/PS</text><g ewd:code="" ewd:figID="100" ewd:comment="" ewd:figtype="commref"><text style="&st18;" transform="matrix(&st16;  846.45  602.05 )">(LHD)</text></g><g ewd:code="" ewd:figID="101" ewd:comment="" ewd:figtype="commref"><text style="&st18;" transform="matrix(&st16;  846.45  611.12 )">(RHD)</text></g></g><g ewd:figtype="title"><text style="&st18;" transform="matrix(&st16;  820.96  662.39 )">ECM</text><text style="&st18;" transform="matrix(&st16;  820.95  655.57 )">A29(A),I84(C)</text></g></g><g ewd:figtype="conn" ewd:figID="8" ewd:code="A13"><path style="stroke-width: 1.42 ;&st7;  " d=" M   679.89,   409.72  L   679.89,   452.21  L   764.87,   452.21  L   764.87,   409.72  L   679.89,   409.72  " /><g ewd:lineID="10"><text style="&st18;" transform="matrix(&st16;  690.54  406.03 )">2</text><text style="&st18;" transform="matrix(&st16;  691.24  417.35 )">+SL</text></g><g ewd:lineID="14"><text style="&st18;" transform="matrix(&st16;  741.54  406.03 )">1</text><text style="&st18;" transform="matrix(&st16;  742.97  417.35 )">-SL</text></g><g ewd:figtype="title"><text style="&st18;" transform="matrix(&st16;  676.48  466.93 )" ewd:textID="35">Front Airbag Sensor LH</text><text style="&st18;" transform="matrix(&st16;  676.47  460.1 )">A13</text></g></g><g ewd:figtype="rb" ewd:figID="11" ewd:code="FUSE16"><path style="stroke-width: 0.28 ;&st9;  " d=" M   569.40,    90.37  L   566.57,    87.54  L   566.57,    91.79  L   569.40,    94.62  L   572.24,    91.79  L   572.24,    87.54  L   569.40,    90.37  " /><path style="stroke-width: 1.42 ;&st7;   " d=" M   567.28,    95.27  C   564.93     95.27    563.03     97.17    563.03     99.52  " /><path style="stroke-width: 1.42 ;&st7;   " d=" M   563.03,    99.52  C   563.03    101.87    564.93    103.77    567.28    103.77  " /><path style="stroke-width: 1.42 ;&st7;   " d=" M   571.53,   103.77  C   573.88    103.77    575.78    101.87    575.78     99.52  " /><path style="stroke-width: 1.42 ;&st7;   " d=" M   575.78,    99.52  C   575.78     97.17    573.88     95.27    571.53     95.27  " /><path style="stroke-width: 1.42 ;&st7;  " d=" M   571.53,    95.27  L   567.28,    95.27  " /><path style="stroke-width: 1.42 ;&st7;  " d=" M   571.53,   103.77  L   567.28,   103.77  " /><path style="stroke-width: 0.85 ;&st7;  " d=" M   569.40,    78.27  L   569.40,    95.27  " /><text style="&st18;" transform="matrix(&st16;  564.04  32.08 )">(IG)</text><text style="&st18;" transform="matrix(&st16;  563.07  86.47 )">2</text><text style="&st18;" transform="matrix(&st16;  567.53  101.49 )">2</text><text style="&st18;" transform="matrix(&st16;  585.83  56.17 )">10A <tspan x="0 " dy="6.0">IGN</tspan></text><path style="stroke-width: 1.42 ;&st7;  " d=" M   556.66,    35.78  L   556.66,    78.27  L   582.15,    78.27  L   582.15,    35.78  L   556.66,    35.78  " /><path style="stroke-width: 1.42 ;&st7;   " d=" M   569.40,    47.11  C   566.67     48.72    565.76     52.25    567.37     54.99  " /><path style="stroke-width: 1.42 ;&st7;   " d=" M   567.37,    54.99  C   567.89     55.87    568.52     56.51    569.40     57.03  " /><path style="stroke-width: 1.42 ;&st7;   " d=" M   569.40,    66.94  C   572.14     65.33    573.05     61.80    571.44     59.06  " /><path style="stroke-width: 1.42 ;&st7;   " d=" M   571.44,    59.06  C   570.92     58.18    570.29     57.55    569.40     57.03  " /><path style="stroke-width: 0.85 ;&st7;   " d=" M   570.82,    45.69  C   570.82     44.91    570.19     44.28    569.40     44.28  " /><path style="stroke-width: 0.85 ;&st7;   " d=" M   569.40,    44.28  C   568.62     44.28    567.99     44.91    567.99     45.69  " /><path style="stroke-width: 0.85 ;&st7;   " d=" M   567.99,    45.69  C   567.99     46.48    568.62     47.11    569.40     47.11  " /><path style="stroke-width: 0.85 ;&st7;   " d=" M   569.40,    47.11  C   570.19     47.11    570.82     46.48    570.82     45.69  " /><path style="stroke-width: 0.85 ;&st7;   " d=" M   570.82,    68.36  C   570.82     67.57    570.19     66.94    569.40     66.94  " /><path style="stroke-width: 0.85 ;&st7;   " d=" M   569.40,    66.94  C   568.62     66.94    567.99     67.57    567.99     68.36  " /><path style="stroke-width: 0.85 ;&st7;   " d=" M   567.99,    68.36  C   567.99     69.14    568.62     69.77    569.40     69.77  " /><path style="stroke-width: 0.85 ;&st7;   " d=" M   569.40,    69.77  C   570.19     69.77    570.82     69.14    570.82     68.36  " /><path style="stroke-width: 0.85 ;&st7;  " d=" M   569.40,    69.77  L   569.40,    78.27  " /></g><g ewd:figtype="conn" ewd:figID="13" ewd:code="z2"><path style="stroke-width: 0.85 ;&st7;  " d=" M   671.39,   120.20  L   671.39,   103.77  L   688.38,   103.77  L   696.88,    95.27  L   705.38,   103.77  L   722.38,   103.77  L   722.38,   120.20  " /><path style="stroke-width: 1.42 ;&st7;  " d=" M   654.39,    78.27  L   654.39,   120.20  L   739.38,   120.20  L   739.38,    78.27  L   654.39,    78.27  " /><text style="&st18;" transform="matrix(&st16;  720.11  126.7 )">A</text><text style="&st18;" transform="matrix(&st16;  712.9  126.7 )">1</text><path style="stroke-width: 1.42 ;&st7;   " d=" M   726.91,   124.73  C   726.91    122.23    724.88    120.20    722.38    120.20  " /><path style="stroke-width: 1.42 ;&st7;   " d=" M   722.38,   120.20  C   719.88    120.20    717.85    122.23    717.85    124.73  " /><path style="stroke-width: 1.42 ;&st7;   " d=" M   717.85,   124.73  C   717.85    127.23    719.88    129.26    722.38    129.26  " /><path style="stroke-width: 1.42 ;&st7;   " d=" M   722.38,   129.26  C   724.88    129.26    726.91    127.23    726.91    124.73  " /><text style="&st18;" transform="matrix(&st16;  661.91  126.7 )">2</text><text style="&st18;" transform="matrix(&st16;  669.12  126.7 )">A</text><path style="stroke-width: 1.42 ;&st7;   " d=" M   675.92,   124.73  C   675.92    122.23    673.89    120.20    671.39    120.20  " /><path style="stroke-width: 1.42 ;&st7;   " d=" M   671.39,   120.20  C   668.88    120.20    666.86    122.23    666.86    124.73  " /><path style="stroke-width: 1.42 ;&st7;   " d=" M   666.86,   124.73  C   666.86    127.23    668.88    129.26    671.39    129.26  " /><path style="stroke-width: 1.42 ;&st7;   " d=" M   671.39,   129.26  C   673.89    129.26    675.92    127.23    675.92    124.73  " /><g ewd:figtype="title"><text style="&st18;" transform="matrix(&st16;  650.99  68.63 )" ewd:textID="32">Driver Side <tspan x="0 " dy="6.0">Squib Circuit</tspan></text><text style="&st18;" transform="matrix(&st16;  650.98  61.8 )">z2(A)</text></g></g><g ewd:figtype="conn" ewd:figID="15" ewd:code="L29,z2"><path style="stroke-width: 0.85 ;&st7;  " d=" M   722.38,   146.26  L   722.38,   129.26  " /><path style="stroke-width: 0.85 ;&st7;  " d=" M   671.39,   146.26  L   671.39,   129.26  " /><path style="stroke-width: 1.42 ;&st7;  " d=" M   654.39,   129.26  L   654.39,   146.26  L   739.38,   146.26  L   739.38,   129.26  L   654.39,   129.26  " /><text style="&st18;" transform="matrix(&st16;  724.96  142.57 )">D-</text><text style="&st18;" transform="matrix(&st16;  673.97  142.57 )">D+</text><text style="&st18;" transform="matrix(&st16;  712.9  152.76 )">2</text><path style="stroke-width: 1.42 ;&st7;   " d=" M   726.91,   150.79  C   726.91    148.29    724.88    146.26    722.38    146.26  " /><path style="stroke-width: 1.42 ;&st7;   " d=" M   722.38,   146.26  C   719.88    146.26    717.85    148.29    717.85    150.79  " /><path style="stroke-width: 1.42 ;&st7;   " d=" M   717.85,   150.79  C   717.85    153.30    719.88    155.33    722.38    155.33  " /><path style="stroke-width: 1.42 ;&st7;   " d=" M   722.38,   155.33  C   724.88    155.33    726.91    153.30    726.91    150.79  " /><text style="&st18;" transform="matrix(&st16;  720.11  152.76 )">B</text><text style="&st18;" transform="matrix(&st16;  661.91  152.76 )">1</text><path style="stroke-width: 1.42 ;&st7;   " d=" M   675.92,   150.79  C   675.92    148.29    673.89    146.26    671.39    146.26  " /><path style="stroke-width: 1.42 ;&st7;   " d=" M   671.39,   146.26  C   668.88    146.26    666.86    148.29    666.86    150.79  " /><path style="stroke-width: 1.42 ;&st7;   " d=" M   666.86,   150.79  C   666.86    153.30    668.88    155.33    671.39    155.33  " /><path style="stroke-width: 1.42 ;&st7;   " d=" M   671.39,   155.33  C   673.89    155.33    675.92    153.30    675.92    150.79  " /><text style="&st18;" transform="matrix(&st16;  669.12  152.76 )">B</text><g ewd:figtype="title"><text style="&st18;" transform="matrix(&st17;  747.27  149.16 )">z2(A),L29(B)</text><text style="&st18;" transform="matrix(&st17;  754.09  149.17 )" ewd:textID="64">Spiral Cable <tspan x="0 " dy="6.0">Sub-Assembly</tspan></text></g></g><g ewd:figtype="conn" ewd:figID="17" ewd:code="I52"><path style="stroke-width: 1.42 ;&st7;  " d=" M   824.36,   146.26  L   824.36,   188.75  L   909.35,   188.75  L   909.35,   146.26  L   824.36,   146.26  " /><g ewd:lineID="20"><text style="&st18;" transform="matrix(&st16;  835.02  196.95 )">2</text><text style="&st18;" transform="matrix(&st16;  835.18  185.06 )">+SR</text></g><g ewd:lineID="24"><text style="&st18;" transform="matrix(&st16;  886.01  196.95 )">1</text><text style="&st18;" transform="matrix(&st16;  886.94  185.06 )">-SR</text></g><g ewd:figtype="title"><text style="&st18;" transform="matrix(&st16;  820.96  142.56 )" ewd:textID="36">Front Airbag Sensor RH</text><text style="&st18;" transform="matrix(&st16;  820.95  135.74 )">I52</text></g></g><g ewd:figtype="conn" ewd:figID="20" ewd:code="N1"><path style="stroke-width: 0.85 ;&st7;  " d=" M   569.40,   409.72  L   569.40,   426.71  L   586.40,   426.71  L   594.90,   435.21  L   603.40,   426.71  L   620.40,   426.71  L   620.40,   409.72  " /><path style="stroke-width: 1.42 ;&st7;  " d=" M   552.41,   409.72  L   552.41,   452.21  L   637.39,   452.21  L   637.39,   409.72  L   552.41,   409.72  " /><text style="&st18;" transform="matrix(&st16;  622.98  417.91 )">P-</text><text style="&st18;" transform="matrix(&st16;  571.99  417.91 )">P+</text><text style="&st18;" transform="matrix(&st16;  563.07  406.03 )">1</text><text style="&st18;" transform="matrix(&st16;  614.06  406.03 )">2</text><g ewd:figtype="title"><text style="&st18;" transform="matrix(&st16;  549.0  466.93 )" ewd:textID="37">Front Passenger Side Squib <tspan x="0 " dy="6.0">Circuit (Instrument Panel </tspan><tspan x="0 " dy="6.0">Passenger Airbag Assembly)</tspan></text><text style="&st18;" transform="matrix(&st16;  549.0  460.1 )">N1</text></g></g><g ewd:figtype="conn" ewd:figID="22" ewd:code="I98,I99"><path style="stroke-width: 0.85 ;&st7;  " d=" M   891.16,   434.21  L   890.89,   434.68  L   890.79,   435.21  L   890.89,   435.75  L   891.16,   436.22  L   891.57,   436.56  L   892.08,   436.75  L   892.62,   436.75  L   893.13,   436.56  L   893.54,   436.22  L   893.82,   435.75  L   893.91,   435.21  L   893.82,   434.68  L   893.54,   434.21  L   893.13,   433.86  L   892.62,   433.68  L   892.08,   433.68  L   891.57,   433.86  L   891.16,   434.21  L   891.55,   434.92  L   891.55,   435.50  L   891.93,   435.95  L   892.50,   436.05  L   893.00,   435.76  L   893.20,   435.21  L   893.00,   434.67  L   892.50,   434.38  L   891.93,   434.48  L   892.35,   435.21  " /><path style="stroke-width: 0.85 ;&st7;  " d=" M   976.14,   434.21  L   975.87,   434.68  L   975.78,   435.21  L   975.87,   435.75  L   976.14,   436.22  L   976.56,   436.56  L   977.06,   436.75  L   977.61,   436.75  L   978.12,   436.56  L   978.53,   436.22  L   978.80,   435.75  L   978.89,   435.21  L   978.80,   434.68  L   978.53,   434.21  L   978.12,   433.86  L   977.61,   433.68  L   977.06,   433.68  L   976.56,   433.86  L   976.14,   434.21  L   976.54,   434.92  L   976.54,   435.50  L   976.91,   435.95  L   977.48,   436.05  L   977.99,   435.76  L   978.19,   435.21  L   977.99,   434.67  L   977.48,   434.38  L   976.91,   434.48  L   977.34,   435.21  " /><path style="stroke-width: 0.85 ;&st7;  " d=" M   892.35,   435.21  L   977.34,   435.21  " /><path style="stroke-width: 0.85 ;&st7;  " d=" M   977.34,   426.71  L   977.34,   443.71  " /><path style="stroke-width: 0.85 ;&st7;  " d=" M   892.35,   426.71  L   892.35,   443.71  " /><path style="stroke-width: 1.42 ;&st7;  " d=" M   832.86,   426.71  L   832.86,   443.71  L   985.83,   443.71  L   985.83,   426.71  L   832.86,   426.71  " /><path style="stroke-width: 0.85 ;&st7;  " d=" M   841.36,   426.71  L   841.36,   443.71  " /><text style="&st18;" transform="matrix(&st16;  831.88  450.21 )">8</text><path style="stroke-width: 1.42 ;&st7;   " d=" M   845.89,   448.24  C   845.89    445.74    843.86    443.71    841.36    443.71  " /><path style="stroke-width: 1.42 ;&st7;   " d=" M   841.36,   443.71  C   838.86    443.71    836.83    445.74    836.83    448.24  " /><path style="stroke-width: 1.42 ;&st7;   " d=" M   836.83,   448.24  C   836.83    450.75    838.86    452.78    841.36    452.78  " /><path style="stroke-width: 1.42 ;&st7;   " d=" M   841.36,   452.78  C   843.86    452.78    845.89    450.75    845.89    448.24  " /><text style="&st18;" transform="matrix(&st16;  839.09  450.21 )">B</text><text style="&st18;" transform="matrix(&st16;  828.54  424.15 )">11</text><path style="stroke-width: 1.42 ;&st7;   " d=" M   845.89,   422.18  C   845.89    419.68    843.86    417.65    841.36    417.65  " /><path style="stroke-width: 1.42 ;&st7;   " d=" M   841.36,   417.65  C   838.86    417.65    836.83    419.68    836.83    422.18  " /><path style="stroke-width: 1.42 ;&st7;   " d=" M   836.83,   422.18  C   836.83    424.68    838.86    426.71    841.36    426.71  " /><path style="stroke-width: 1.42 ;&st7;   " d=" M   841.36,   426.71  C   843.86    426.71    845.89    424.68    845.89    422.18  " /><text style="&st18;" transform="matrix(&st16;  839.09  424.15 )">A</text><text style="&st18;" transform="matrix(&st16;  967.86  450.21 )">6</text><path style="stroke-width: 1.42 ;&st7;   " d=" M   981.87,   448.24  C   981.87    445.74    979.84    443.71    977.34    443.71  " /><path style="stroke-width: 1.42 ;&st7;   " d=" M   977.34,   443.71  C   974.83    443.71    972.80    445.74    972.80    448.24  " /><path style="stroke-width: 1.42 ;&st7;   " d=" M   972.80,   448.24  C   972.80    450.75    974.83    452.78    977.34    452.78  " /><path style="stroke-width: 1.42 ;&st7;   " d=" M   977.34,   452.78  C   979.84    452.78    981.87    450.75    981.87    448.24  " /><text style="&st18;" transform="matrix(&st16;  975.07  450.21 )">B</text><text style="&st18;" transform="matrix(&st16;  882.87  450.21 )">5</text><path style="stroke-width: 1.42 ;&st7;   " d=" M   896.88,   448.24  C   896.88    445.74    894.85    443.71    892.35    443.71  " /><path style="stroke-width: 1.42 ;&st7;   " d=" M   892.35,   443.71  C   889.85    443.71    887.82    445.74    887.82    448.24  " /><path style="stroke-width: 1.42 ;&st7;   " d=" M   887.82,   448.24  C   887.82    450.75    889.85    452.78    892.35    452.78  " /><path style="stroke-width: 1.42 ;&st7;   " d=" M   892.35,   452.78  C   894.85    452.78    896.88    450.75    896.88    448.24  " /><text style="&st18;" transform="matrix(&st16;  890.09  450.21 )">B</text><text style="&st18;" transform="matrix(&st16;  882.87  424.15 )">2</text><path style="stroke-width: 1.42 ;&st7;   " d=" M   896.88,   422.18  C   896.88    419.68    894.85    417.65    892.35    417.65  " /><path style="stroke-width: 1.42 ;&st7;   " d=" M   892.35,   417.65  C   889.85    417.65    887.82    419.68    887.82    422.18  " /><path style="stroke-width: 1.42 ;&st7;   " d=" M   887.82,   422.18  C   887.82    424.68    889.85    426.71    892.35    426.71  " /><path style="stroke-width: 1.42 ;&st7;   " d=" M   892.35,   426.71  C   894.85    426.71    896.88    424.68    896.88    422.18  " /><text style="&st18;" transform="matrix(&st16;  890.09  424.15 )">A</text><text style="&st18;" transform="matrix(&st16;  967.86  424.15 )">1</text><text style="&st18;" transform="matrix(&st16;  975.07  424.15 )">A</text><path style="stroke-width: 1.42 ;&st7;   " d=" M   981.87,   422.18  C   981.87    419.68    979.84    417.65    977.34    417.65  " /><path style="stroke-width: 1.42 ;&st7;   " d=" M   977.34,   417.65  C   974.83    417.65    972.80    419.68    972.80    422.18  " /><path style="stroke-width: 1.42 ;&st7;   " d=" M   972.80,   422.18  C   972.80    424.68    974.83    426.71    977.34    426.71  " /><path style="stroke-width: 1.42 ;&st7;   " d=" M   977.34,   426.71  C   979.84    426.71    981.87    424.68    981.87    422.18  " /><g ewd:figtype="title"><text style="&st18;" transform="matrix(&st17;  993.73  446.61 )">I98(A),I99(B)</text><text style="&st18;" transform="matrix(&st17;  1000.55  446.62 )" ewd:textID="59">No. 17 Junction Connector</text></g></g><g ewd:figtype="conn" ewd:figID="23" ewd:code="I98,I99"><path style="stroke-width: 0.85 ;&st7;  " d=" M   569.40,   188.75  L   569.40,   205.75  " /><path style="stroke-width: 1.42 ;&st7;  " d=" M   560.91,   188.75  L   560.91,   205.75  L   577.90,   205.75  L   577.90,   188.75  L   560.91,   188.75  " /><text style="&st18;" transform="matrix(&st16;  556.59  212.25 )">12</text><path style="stroke-width: 1.42 ;&st7;   " d=" M   573.94,   210.28  C   573.94    207.78    571.91    205.75    569.40    205.75  " /><path style="stroke-width: 1.42 ;&st7;   " d=" M   569.40,   205.75  C   566.90    205.75    564.87    207.78    564.87    210.28  " /><path style="stroke-width: 1.42 ;&st7;   " d=" M   564.87,   210.28  C   564.87    212.79    566.90    214.82    569.40    214.82  " /><path style="stroke-width: 1.42 ;&st7;   " d=" M   569.40,   214.82  C   571.91    214.82    573.94    212.79    573.94    210.28  " /><text style="&st18;" transform="matrix(&st16;  567.14  212.25 )">A</text><text style="&st18;" transform="matrix(&st16;  559.92  186.19 )">7</text><path style="stroke-width: 1.42 ;&st7;   " d=" M   573.94,   184.22  C   573.94    181.72    571.91    179.69    569.40    179.69  " /><path style="stroke-width: 1.42 ;&st7;   " d=" M   569.40,   179.69  C   566.90    179.69    564.87    181.72    564.87    184.22  " /><path style="stroke-width: 1.42 ;&st7;   " d=" M   564.87,   184.22  C   564.87    186.72    566.90    188.75    569.40    188.75  " /><path style="stroke-width: 1.42 ;&st7;   " d=" M   569.40,   188.75  C   571.91    188.75    573.94    186.72    573.94    184.22  " /><text style="&st18;" transform="matrix(&st16;  567.14  186.19 )">B</text><g ewd:figtype="title"><text style="&st18;" transform="matrix(&st17;  592.62  208.66 )" ewd:textID="59">No. 17 Junction <tspan x="0 " dy="6.0">Connector</tspan></text><text style="&st18;" transform="matrix(&st17;  585.8  208.65 )">I98(A),I99(B)</text></g></g><g ewd:figtype="conn" ewd:figID="29" ewd:code="I51,S21,S24"><path style="stroke-width: 1.42 ;&st7;  " d=" M   552.41,   265.24  L   552.41,   299.24  L  2039.66,   299.24  L  2039.66,   265.24  L   552.41,   265.24  " /><g ewd:lineID="11"><text style="&st18;" transform="matrix(&st16;  684.07  305.74 )">30</text><text style="&st18;" transform="matrix(&st16;  694.62  305.74 )">A</text><path style="stroke-width: 1.42 ;&st7;   " d=" M   701.42,   303.77  C   701.42    301.26    699.39    299.24    696.88    299.24  " /><path style="stroke-width: 1.42 ;&st7;   " d=" M   696.88,   299.24  C   694.38    299.24    692.35    301.26    692.35    303.77  " /><path style="stroke-width: 1.42 ;&st7;   " d=" M   692.35,   303.77  C   692.35    306.27    694.38    308.30    696.88    308.30  " /><path style="stroke-width: 1.42 ;&st7;   " d=" M   696.88,   308.30  C   699.39    308.30    701.42    306.27    701.42    303.77  " /><text style="&st18;" transform="matrix(&st16;  691.24  295.54 )">+SL</text></g><g ewd:lineID="12"><text style="&st18;" transform="matrix(&st16;  712.9  262.68 )">6</text><path style="stroke-width: 1.42 ;&st7;   " d=" M   726.91,   260.71  C   726.91    258.21    724.88    256.18    722.38    256.18  " /><path style="stroke-width: 1.42 ;&st7;   " d=" M   722.38,   256.18  C   719.88    256.18    717.85    258.21    717.85    260.71  " /><path style="stroke-width: 1.42 ;&st7;   " d=" M   717.85,   260.71  C   717.85    263.21    719.88    265.24    722.38    265.24  " /><path style="stroke-width: 1.42 ;&st7;   " d=" M   722.38,   265.24  C   724.88    265.24    726.91    263.21    726.91    260.71  " /><text style="&st18;" transform="matrix(&st16;  720.11  262.68 )">A</text><text style="&st18;" transform="matrix(&st16;  718.99  272.88 )">D-</text></g><g ewd:lineID="15"><text style="&st18;" transform="matrix(&st16;  735.06  305.74 )">28</text><text style="&st18;" transform="matrix(&st16;  745.61  305.74 )">A</text><path style="stroke-width: 1.42 ;&st7;   " d=" M   752.41,   303.77  C   752.41    301.26    750.38    299.24    747.88    299.24  " /><path style="stroke-width: 1.42 ;&st7;   " d=" M   747.88,   299.24  C   745.37    299.24    743.34    301.26    743.34    303.77  " /><path style="stroke-width: 1.42 ;&st7;   " d=" M   743.34,   303.77  C   743.34    306.27    745.37    308.30    747.88    308.30  " /><path style="stroke-width: 1.42 ;&st7;   " d=" M   747.88,   308.30  C   750.38    308.30    752.41    306.27    752.41    303.77  " /><text style="&st18;" transform="matrix(&st16;  742.97  295.54 )">-SL</text></g><g ewd:lineID="19"><text style="&st18;" transform="matrix(&st16;  828.54  305.74 )">22</text><text style="&st18;" transform="matrix(&st16;  839.09  305.74 )">A</text><path style="stroke-width: 1.42 ;&st7;   " d=" M   845.89,   303.77  C   845.89    301.26    843.86    299.24    841.36    299.24  " /><path style="stroke-width: 1.42 ;&st7;   " d=" M   841.36,   299.24  C   838.86    299.24    836.83    301.26    836.83    303.77  " /><path style="stroke-width: 1.42 ;&st7;   " d=" M   836.83,   303.77  C   836.83    306.27    838.86    308.30    841.36    308.30  " /><path style="stroke-width: 1.42 ;&st7;   " d=" M   841.36,   308.30  C   843.86    308.30    845.89    306.27    845.89    303.77  " /><text style="&st18;" transform="matrix(&st16;  832.15  295.54 )">GSW2</text></g><g ewd:lineID="2"><text style="&st18;" transform="matrix(&st16;  559.92  305.74 )">4</text><path style="stroke-width: 1.42 ;&st7;   " d=" M   573.94,   303.77  C   573.94    301.26    571.91    299.24    569.40    299.24  " /><path style="stroke-width: 1.42 ;&st7;   " d=" M   569.40,   299.24  C   566.90    299.24    564.87    301.26    564.87    303.77  " /><path style="stroke-width: 1.42 ;&st7;   " d=" M   564.87,   303.77  C   564.87    306.27    566.90    308.30    569.40    308.30  " /><path style="stroke-width: 1.42 ;&st7;   " d=" M   569.40,   308.30  C   571.91    308.30    573.94    306.27    573.94    303.77  " /><text style="&st18;" transform="matrix(&st16;  567.14  305.74 )">A</text><text style="&st18;" transform="matrix(&st16;  565.43  295.54 )">P+</text></g><g ewd:lineID="20"><text style="&st18;" transform="matrix(&st16;  828.54  262.68 )">29</text><path style="stroke-width: 1.42 ;&st7;   " d=" M   845.89,   260.71  C   845.89    258.21    843.86    256.18    841.36    256.18  " /><path style="stroke-width: 1.42 ;&st7;   " d=" M   841.36,   256.18  C   838.86    256.18    836.83    258.21    836.83    260.71  " /><path style="stroke-width: 1.42 ;&st7;   " d=" M   836.83,   260.71  C   836.83    263.21    838.86    265.24    841.36    265.24  " /><path style="stroke-width: 1.42 ;&st7;   " d=" M   841.36,   265.24  C   843.86    265.24    845.89    263.21    845.89    260.71  " /><text style="&st18;" transform="matrix(&st16;  839.09  262.68 )">A</text><text style="&st18;" transform="matrix(&st16;  835.18  272.88 )">+SR</text></g><g ewd:lineID="23"><text style="&st18;" transform="matrix(&st16;  879.54  305.74 )">26</text><path style="stroke-width: 1.42 ;&st7;   " d=" M   896.88,   303.77  C   896.88    301.26    894.85    299.24    892.35    299.24  " /><path style="stroke-width: 1.42 ;&st7;   " d=" M   892.35,   299.24  C   889.85    299.24    887.82    301.26    887.82    303.77  " /><path style="stroke-width: 1.42 ;&st7;   " d=" M   887.82,   303.77  C   887.82    306.27    889.85    308.30    892.35    308.30  " /><path style="stroke-width: 1.42 ;&st7;   " d=" M   892.35,   308.30  C   894.85    308.30    896.88    306.27    896.88    303.77  " /><text style="&st18;" transform="matrix(&st16;  890.09  305.74 )">A</text><text style="&st18;" transform="matrix(&st16;  888.46  295.54 )">E2</text></g><g ewd:lineID="24"><text style="&st18;" transform="matrix(&st16;  879.54  262.68 )">27</text><text style="&st18;" transform="matrix(&st16;  890.09  262.68 )">A</text><path style="stroke-width: 1.42 ;&st7;   " d=" M   896.88,   260.71  C   896.88    258.21    894.85    256.18    892.35    256.18  " /><path style="stroke-width: 1.42 ;&st7;   " d=" M   892.35,   256.18  C   889.85    256.18    887.82    258.21    887.82    260.71  " /><path style="stroke-width: 1.42 ;&st7;   " d=" M   887.82,   260.71  C   887.82    263.21    889.85    265.24    892.35    265.24  " /><path style="stroke-width: 1.42 ;&st7;   " d=" M   892.35,   265.24  C   894.85    265.24    896.88    263.21    896.88    260.71  " /><text style="&st18;" transform="matrix(&st16;  886.94  272.88 )">-SR</text></g><g ewd:lineID="27"><text style="&st18;" transform="matrix(&st16;  964.52  305.74 )">25</text><path style="stroke-width: 1.42 ;&st7;   " d=" M   981.87,   303.77  C   981.87    301.26    979.84    299.24    977.34    299.24  " /><path style="stroke-width: 1.42 ;&st7;   " d=" M   977.34,   299.24  C   974.83    299.24    972.80    301.26    972.80    303.77  " /><path style="stroke-width: 1.42 ;&st7;   " d=" M   972.80,   303.77  C   972.80    306.27    974.83    308.30    977.34    308.30  " /><path style="stroke-width: 1.42 ;&st7;   " d=" M   977.34,   308.30  C   979.84    308.30    981.87    306.27    981.87    303.77  " /><text style="&st18;" transform="matrix(&st16;  975.07  305.74 )">A</text><text style="&st18;" transform="matrix(&st16;  973.44  295.54 )">E1</text></g><g ewd:lineID="3"><text style="&st18;" transform="matrix(&st16;  556.59  262.68 )">21</text><path style="stroke-width: 1.42 ;&st7;   " d=" M   573.94,   260.71  C   573.94    258.21    571.91    256.18    569.40    256.18  " /><path style="stroke-width: 1.42 ;&st7;   " d=" M   569.40,   256.18  C   566.90    256.18    564.87    258.21    564.87    260.71  " /><path style="stroke-width: 1.42 ;&st7;   " d=" M   564.87,   260.71  C   564.87    263.21    566.90    265.24    569.40    265.24  " /><path style="stroke-width: 1.42 ;&st7;   " d=" M   569.40,   265.24  C   571.91    265.24    573.94    263.21    573.94    260.71  " /><text style="&st18;" transform="matrix(&st16;  567.65  262.68 )">A</text><text style="&st18;" transform="matrix(&st16;  564.35  272.88 )">IG2</text></g><g ewd:lineID="7"><text style="&st18;" transform="matrix(&st16;  610.92  305.74 )">3</text><path style="stroke-width: 1.42 ;&st7;   " d=" M   624.93,   303.77  C   624.93    301.26    622.90    299.24    620.40    299.24  " /><path style="stroke-width: 1.42 ;&st7;   " d=" M   620.40,   299.24  C   617.89    299.24    615.86    301.26    615.86    303.77  " /><path style="stroke-width: 1.42 ;&st7;   " d=" M   615.86,   303.77  C   615.86    306.27    617.89    308.30    620.40    308.30  " /><path style="stroke-width: 1.42 ;&st7;   " d=" M   620.40,   308.30  C   622.90    308.30    624.93    306.27    624.93    303.77  " /><text style="&st18;" transform="matrix(&st16;  618.13  305.74 )">A</text><text style="&st18;" transform="matrix(&st16;  617.16  295.54 )">P-</text></g><g ewd:lineID="8"><text style="&st18;" transform="matrix(&st16;  661.91  262.68 )">5</text><path style="stroke-width: 1.42 ;&st7;   " d=" M   675.92,   260.71  C   675.92    258.21    673.89    256.18    671.39    256.18  " /><path style="stroke-width: 1.42 ;&st7;   " d=" M   671.39,   256.18  C   668.88    256.18    666.86    258.21    666.86    260.71  " /><path style="stroke-width: 1.42 ;&st7;   " d=" M   666.86,   260.71  C   666.86    263.21    668.88    265.24    671.39    265.24  " /><path style="stroke-width: 1.42 ;&st7;   " d=" M   671.39,   265.24  C   673.89    265.24    675.92    263.21    675.92    260.71  " /><text style="&st18;" transform="matrix(&st16;  669.12  262.68 )">A</text><text style="&st18;" transform="matrix(&st16;  667.26  272.88 )">D+</text></g><g ewd:figtype="title"><text style="&st18;" transform="matrix(&st16;  931.43  254.72 )">I51(A),S21(B),S24(C)</text><text style="&st18;" transform="matrix(&st16;  931.44  261.54 )" ewd:textID="24">Airbag Sensor Assembly</text></g></g><g ewd:figtype="w2w" ewd:figID="35" ewd:code="IN1"><text style="&st18;" transform="matrix(&st16;  555.99  356.45 )">2</text><path style="stroke-width: 1.42 ;&st7;  " d=" M   573.65,   367.79  L   569.40,   363.54  L   565.16,   367.79  " /><path style="stroke-width: 1.42 ;&st7;  " d=" M   573.65,   364.39  L   569.40,   360.14  L   565.16,   364.39  " /></g><g ewd:figtype="w2w" ewd:figID="36" ewd:code="IN1"><text style="&st18;" transform="matrix(&st16;  606.98  356.45 )">1</text><path style="stroke-width: 1.42 ;&st7;  " d=" M   624.65,   367.79  L   620.40,   363.54  L   616.15,   367.79  " /><path style="stroke-width: 1.42 ;&st7;  " d=" M   624.65,   364.39  L   620.40,   360.14  L   616.15,   364.39  " /></g><g ewd:figtype="w2w" ewd:figID="37" ewd:code="IL4"><text style="&st18;" transform="matrix(&st16;  657.97  211.97 )">1</text></g><g ewd:figtype="w2w" ewd:figID="38" ewd:code="IL7"><path style="stroke-width: 1.42 ;&st7;  " d=" M   675.64,   191.59  L   671.39,   195.84  L   667.14,   191.59  " /><path style="stroke-width: 1.42 ;&st7;  " d=" M   667.14,   188.19  L   671.39,   192.44  L   675.64,   188.19  " /><text style="&st18;" transform="matrix(&st16;  657.97  203.47 )">1</text></g><g ewd:figtype="w2w" ewd:figID="39" ewd:code="AI5"><path style="stroke-width: 1.42 ;&st7;  " d=" M   701.13,   344.56  L   696.88,   348.81  L   692.63,   344.56  " /><path style="stroke-width: 1.42 ;&st7;  " d=" M   692.63,   341.16  L   696.88,   345.41  L   701.13,   341.16  " /><text style="&st18;" transform="matrix(&st16;  683.47  356.45 )">1</text></g><g ewd:figtype="w2w" ewd:figID="40" ewd:code="IL4"><text style="&st18;" transform="matrix(&st16;  708.96  211.97 )">2</text></g><g ewd:figtype="w2w" ewd:figID="41" ewd:code="IL7"><path style="stroke-width: 1.42 ;&st7;  " d=" M   726.63,   191.59  L   722.38,   195.84  L   718.13,   191.59  " /><path style="stroke-width: 1.42 ;&st7;  " d=" M   718.13,   188.19  L   722.38,   192.44  L   726.63,   188.19  " /><text style="&st18;" transform="matrix(&st16;  708.96  203.47 )">2</text></g><g ewd:figtype="w2w" ewd:figID="42" ewd:code="AI5"><path style="stroke-width: 1.42 ;&st7;  " d=" M   752.12,   344.56  L   747.87,   348.81  L   743.63,   344.56  " /><path style="stroke-width: 1.42 ;&st7;  " d=" M   743.63,   341.16  L   747.87,   345.41  L   752.12,   341.16  " /><text style="&st18;" transform="matrix(&st16;  734.46  356.45 )">2</text></g><g ewd:figtype="w2w" ewd:figID="43" ewd:code="AI3"><path style="stroke-width: 1.42 ;&st7;  " d=" M   845.61,   523.03  L   841.36,   527.28  L   837.11,   523.03  " /><path style="stroke-width: 1.42 ;&st7;  " d=" M   837.11,   519.63  L   841.36,   523.88  L   845.61,   519.63  " /><text style="&st18;" transform="matrix(&st16;  824.61  534.92 )">47</text></g><g ewd:figtype="gp" ewd:figID="65" ewd:code="IC"><path style="stroke-width: 0.85 ;&st7;  " d=" M   889.52,   707.17  L   895.18,   707.17  " /><path style="stroke-width: 0.85 ;&st7;  " d=" M   892.35,   697.25  L   892.35,   701.50  " /><path style="stroke-width: 0.85 ;&st7;  " d=" M   883.85,   701.50  L   900.85,   701.50  " /><path style="stroke-width: 0.85 ;&st7;  " d=" M   888.10,   704.33  L   896.60,   704.33  " /><path style="stroke-width: 0.85 ;&st7;  " d=" M   890.93,   710.00  L   893.77,   710.00  " /></g><g ewd:figtype="gp" ewd:figID="66" ewd:code="IA"><path style="stroke-width: 0.85 ;&st7;  " d=" M   977.34,   697.25  L   977.34,   701.50  " /><path style="stroke-width: 0.85 ;&st7;  " d=" M   968.84,   701.50  L   985.83,   701.50  " /><path style="stroke-width: 0.85 ;&st7;  " d=" M   973.09,   704.33  L   981.59,   704.33  " /><path style="stroke-width: 0.85 ;&st7;  " d=" M   974.50,   707.17  L   980.17,   707.17  " /><path style="stroke-width: 0.85 ;&st7;  " d=" M   975.92,   710.00  L   978.75,   710.00  "/></g><g ewd:code="" ewd:figID="114" ewd:comment="" ewd:figtype="commref"><text style="&st18;" transform="matrix(&st16;  731.41  211.97 )">(LHD)</text></g><g ewd:code="" ewd:figID="115" ewd:comment="" ewd:figtype="commref"><text style="&st18;" transform="matrix(&st16;  731.41  203.47 )">(RHD)</text></g></svg>
