<?xml version="1.0" encoding="utf-8"?>
<!DOCTYPE svg PUBLIC "-//W3C//DTD SVG 1.0//EN" "http://www.w3.org/TR/2001/REC-SVG-20010904/DTD/svg10.dtd"[
	<!ENTITY ns_flows "http://ns.adobe.com/Flows/1.0/">
	<!ENTITY ns_svg "http://www.w3.org/2000/svg">
	<!ENTITY ns_xlink "http://www.w3.org/1999/xlink">
	<!ENTITY st0 "font-size:7px;font-family:'MS-PGothic';adobe-font-script:japanese;">
	<!ENTITY st1 "font-size:6px;font-family:'ArialMT';">
	<!-- White fill  -->
	<!ENTITY st2 "fill:#FFFFFF;stroke:#000000; stroke-width:1.41;stroke-linecap:round;stroke-linejoin:round;">
	<!-- Yellow fill  -->
	<!ENTITY st3 "fill:#FFFFCC;stroke:#FFFFCC; stroke-width:0.1;stroke-linecap:round;stroke-linejoin:round;">
	<!-- Gray fill  -->
	<!ENTITY st4 "fill:#CCCCCC;stroke:#CCCCCC; stroke-width:0.1;stroke-linecap:round;stroke-linejoin:round;">
	<!-- Light-blue fill -->
	<!ENTITY st5 "fill:#CCECF4;stroke:#000000; stroke-width:1.133;stroke-linecap:round;stroke-linejoin:round;">
	<!ENTITY st6 "fill:none;stroke-linecap:butt; stroke-linejoin:round;">
	<!ENTITY st7 "fill:none;stroke:#000000;stroke-linecap:round;stroke-linejoin:round;">
	<!ENTITY st8 "enable-background:new    ;">
	<!-- Black fill -->
	<!ENTITY st9 "fill:#000000;stroke:#000000; stroke-linecap:round;stroke-linejoin:round;">
	<!-- SRS note   -->
	<!ENTITY st10 "font-size:9px;font-family:'ArialMT';">
	<!ENTITY st11 "font-size:9px;font-family:'Svg Symbol';">
	<!ENTITY st12 "font-size:6px;font-family:'Svg Symbol';">
	<!ENTITY st13 "fill:none;stroke:#ff0000;stroke-linecap:round;stroke-linejoin:round;">
	<!-- Yellow fill  -->
	<!ENTITY st14 "fill:#FFFF00;stroke:#FFFF00; stroke-width:0.1;stroke-linecap:round;stroke-linejoin:round;">
	<!ENTITY st15 "font-size:6px;font-family:'MS-PGothic';adobe-font-script:japanese;">
	<!ENTITY st16 "1.00 0.00 0.00 1.00">
	<!ENTITY st17 "0.00 -1.00 1.00 0.00">
	<!ENTITY st18 "font-size:6px;font-family:'Arial';">
	<!ENTITY st19 "font-size:9px;font-family:'Arial';">
	<!ENTITY st20 "font-size:6px;font-family:'MS-PGothic','MS PGothic';adobe-font-script:japanese;">
	<!ENTITY st21 "font-size:7px;font-family:'MS-PGothic','MS PGothic';adobe-font-script:japanese;">
	<!ATTLIST svg
		xmlns:ewd CDATA #FIXED "http://shcl.co.jp/ewd"
		xmlns:a CDATA #FIXED "http://ns.adobe.com/AdobeSVGViewerExtensions/3.0/"
		ewd:ver CDATA #IMPLIED
	>
	<!ATTLIST a
		ewd:lineID CDATA #IMPLIED
		ewd:groupID CDATA #IMPLIED
		ewd:figtype CDATA #IMPLIED
		ewd:code CDATA #IMPLIED
		ewd:figID CDATA #IMPLIED
		ewd:pinNo CDATA #IMPLIED
		ewd:comment CDATA #IMPLIED >
	<!ATTLIST g
		ewd:lineID CDATA #IMPLIED
		ewd:groupID CDATA #IMPLIED
		ewd:figtype CDATA #IMPLIED
		ewd:code CDATA #IMPLIED
		ewd:figID CDATA #IMPLIED
		ewd:pinNo CDATA #IMPLIED
		ewd:comment CDATA #IMPLIED >
	<!ATTLIST text
		ewd:textID CDATA #IMPLIED >
	<!ATTLIST title
		ewd:textID CDATA #IMPLIED >
]>
<!-- Generator: Shintec Hozumi YS   -->
<svg onload="call_execInitLoadProc_svg('system')" style="overflow:visible;  enable-background:new 0 0 962.458 710.000" viewBox="0 0 962.458 710.000" height="710.000" width="962.458" xml:space="preserve" ewd:ver="2.3.1.16" xmlns="&ns_svg;" xmlns:a="http://ns.adobe.com/AdobeSVGViewerExtensions/3.0/" xmlns:ewd="http://shcl.co.jp/ewd" xmlns:xlink="&ns_xlink;"><script type="text/javascript" xlink:href="../../../../../system/js/ewd/fig/svgfig.js" xmlns:xlink="http://www.w3.org/1999/xlink" />
<g id="ewd_top"><a ewd:figtype="rb" style="cursor:pointer;" ewd:code="FUSE3" ewd:figID="1"><path style="fill:#CCECF4;stroke:#000000; stroke-width:0; stroke-linecap:round;stroke-linejoin:round; " d=" M   726.63,    35.78  L   726.63,    78.27  L   752.12,    78.27  L   752.12,    35.78  L   726.63,    35.78 " /></a><a ewd:figtype="conn" style="cursor:pointer;" ewd:code="I59,I70" ewd:figID="2"><path style="fill:#CCECF4;stroke:#000000; stroke-width:1.133; stroke-linecap:round;stroke-linejoin:round; " d=" M   730.88,   197.25  L   747.88,   197.25  L   747.88,   214.25  L   730.88,   214.25  L   730.88,   197.25 " /><title ewd:textID="15">No. 10 Junction Connector , No. 19 Junction Connector</title></a><a ewd:figtype="rb" style="cursor:pointer;" ewd:code="FUSE58" ewd:figID="3"><path style="fill:#CCECF4;stroke:#000000; stroke-width:0; stroke-linecap:round;stroke-linejoin:round; " d=" M   344.19,    35.78  L   344.19,    78.27  L   369.69,    78.27  L   369.69,    35.78  L   344.19,    35.78 " /></a><a ewd:figtype="rb" style="cursor:pointer;" ewd:code="1" ewd:figID="4"><path style="fill:#CCECF4;stroke:#000000; stroke-width:0; stroke-linecap:round;stroke-linejoin:round; " d=" M   390.93,   214.25  L   348.44,   214.25  L   348.44,   248.24  L   390.93,   248.24  L   390.93,   214.25 " /></a><a ewd:figtype="conn" style="cursor:pointer;" ewd:code="D10,E3" ewd:figID="5"><path style="fill:#CCECF4;stroke:#000000; stroke-width:1.133; stroke-linecap:round;stroke-linejoin:round; " d=" M   144.48,   231.25  L   178.47,   231.25  L   178.47,   290.74  L   144.48,   290.74  L   144.48,   231.25 " /><title ewd:textID="11">Battery (Sub)</title></a><a ewd:figtype="conn" style="cursor:pointer;" ewd:code="E2,F2" ewd:figID="6"><path style="fill:#CCECF4;stroke:#000000; stroke-width:1.133; stroke-linecap:round;stroke-linejoin:round; " d=" M    50.99,   401.22  L    84.99,   401.22  L    84.99,   460.71  L    50.99,   460.71  L    50.99,   401.22 " /><title ewd:textID="11">Battery (Sub)</title></a><a ewd:figtype="conn" style="cursor:pointer;" ewd:code="A36,D8,E1,E4,F1" ewd:figID="7"><path style="fill:#CCECF4;stroke:#000000; stroke-width:1.133; stroke-linecap:round;stroke-linejoin:round; " d=" M   127.48,   401.22  L   203.97,   401.22  L   203.97,   460.71  L   127.48,   460.71  L   127.48,   401.22 " /><title ewd:textID="10">Battery (Main)</title></a><a ewd:figtype="conn" style="cursor:pointer;" ewd:code="C89,D5" ewd:figID="8"><path style="fill:#CCECF4;stroke:#000000; stroke-width:1.133; stroke-linecap:round;stroke-linejoin:round; " d=" M   246.46,   435.21  L   322.95,   435.21  L   322.95,   401.22  L   246.46,   401.22  L   246.46,   435.21 " /><title ewd:textID="18">Starter Assembly</title></a><a ewd:figtype="conn" style="cursor:pointer;" ewd:code="A22" ewd:figID="9"><path style="fill:#CCECF4;stroke:#000000; stroke-width:1.133; stroke-linecap:round;stroke-linejoin:round; " d=" M   373.94,   537.20  L   373.94,   554.19  L   390.93,   554.19  L   390.93,   537.20  L   373.94,   537.20 " /><title ewd:textID="13">No. 1 Junction Connector</title></a><a ewd:figtype="conn" style="cursor:pointer;" ewd:code="A30" ewd:figID="10"><path style="fill:#CCECF4;stroke:#000000; stroke-width:1.133; stroke-linecap:round;stroke-linejoin:round; " d=" M   637.39,   443.71  L   637.39,   477.71  L   671.39,   477.71  L   671.39,   443.71  L   637.39,   443.71 " /><title ewd:textID="12">Emission Control ECU</title></a><a ewd:figtype="conn" style="cursor:pointer;" ewd:code="I127" ewd:figID="11"><path style="fill:#CCECF4;stroke:#000000; stroke-width:1.133; stroke-linecap:round;stroke-linejoin:round; " d=" M   560.91,   477.71  L   560.91,   511.70  L   594.90,   511.70  L   594.90,   477.71  L   560.91,   477.71 " /><title ewd:textID="12">Emission Control ECU</title></a><a ewd:figtype="fuse" style="cursor:pointer;" ewd:code="FUSE58" ewd:figID="26"><path style="&st7; stroke-width:0;" d=" M   344.19,    35.78  L   344.19,    78.27  L   369.69,    78.27  L   369.69,    35.78  L   344.19,    35.78 " /></a><a ewd:figtype="fuse" style="cursor:pointer;" ewd:code="FUSE3" ewd:figID="27"><path style="&st7; stroke-width:0;" d=" M   726.63,    35.78  L   726.63,    78.27  L   752.12,    78.27  L   752.12,    35.78  L   726.63,    35.78 " /></a><a ewd:comment="2" style="cursor:pointer;" ewd:lineID="1"><path style="stroke:#000000;stroke-width: 5.10 ;&st6;" d=" M    67.99,   469.77  L    67.99,   477.71  L    59.49,   486.20  L    25.50,   486.20  L    25.50,   681.67  " /><path style="stroke:#FFFFFF;stroke-width: 2.27 ;&st6;" d=" M    67.99,   469.77  L    67.99,   477.71  L    59.49,   486.20  L    25.50,   486.20  L    25.50,   681.67  " /><path style="stroke:#666666;stroke-width: 1.13 ;&st6;" d=" M    67.99,   469.77  L    67.99,   477.71  L    59.49,   486.20  L    25.50,   486.20  L    25.50,   681.67  " /></a><a ewd:comment="2" style="cursor:pointer;" ewd:lineID="2"><path style="stroke:#000000;stroke-width: 5.10 ;&st6;" d=" M    67.99,   469.77  L    67.99,   681.67  " /><path style="stroke:#FFFFFF;stroke-width: 2.27 ;&st6;" d=" M    67.99,   469.77  L    67.99,   681.67  " /><path style="stroke:#666666;stroke-width: 1.13 ;&st6;" d=" M    67.99,   469.77  L    67.99,   681.67  " /></a><a style="cursor:pointer;" ewd:lineID="3"><path style="stroke:#000000;stroke-width: 5.10 ;&st6;" d=" M   135.98,   469.77  L   135.98,   681.67  " /><path style="stroke:#FFFFFF;stroke-width: 2.27 ;&st6;" d=" M   135.98,   469.77  L   135.98,   681.67  " /><path style="stroke:#666666;stroke-width: 1.13 ;&st6;" d=" M   135.98,   469.77  L   135.98,   681.67  " /></a><a ewd:comment="2" style="cursor:pointer;" ewd:lineID="4"><path style="stroke:#000000;stroke-width: 5.10 ;&st6;" d=" M   135.98,   392.15  L   135.98,   375.72  L    67.99,   375.72  L    67.99,   392.15  " /></a><a ewd:comment="3" style="cursor:pointer;" ewd:lineID="5"><path style="stroke:#000000;stroke-width: 5.10 ;&st6;" d=" M   161.47,   299.80  L   161.47,   392.15  " /></a><a ewd:comment="1,3" style="cursor:pointer;" ewd:lineID="6"><path style="stroke:#000000;stroke-width: 5.10 ;&st6;" d=" M   186.97,   469.77  L   186.97,   681.67  " /><path style="stroke:#FFFFFF;stroke-width: 2.27 ;&st6;" d=" M   186.97,   469.77  L   186.97,   681.67  " /><path style="stroke:#666666;stroke-width: 1.13 ;&st6;" d=" M   186.97,   469.77  L   186.97,   681.67  " /></a><a ewd:comment="1,2" style="cursor:pointer;" ewd:lineID="7"><path style="stroke:#000000;stroke-width: 5.10 ;&st6;" d=" M   186.97,   392.15  L   186.97,   375.72  L   254.96,   375.72  L   263.46,   384.22  L   263.46,   392.15  " /></a><a ewd:comment="3" style="cursor:pointer;" ewd:lineID="8"><path style="stroke:#000000;stroke-width: 5.10 ;&st6;" d=" M   263.46,   392.15  L   263.46,   180.26  L   161.47,   180.26  L   161.47,   222.18  " /></a><a style="cursor:pointer;" ewd:lineID="9"><path style="stroke:#000000;stroke-width: 5.10 ;&st6;" d=" M   305.95,   356.46  L   305.95,   392.15  " /><path style="stroke:#FFFFFF;stroke-width: 1.13 ;&st6;" d=" M   305.95,   356.46  L   305.95,   392.15  " /></a><a style="cursor:pointer;" ewd:lineID="10"><path style="stroke:#000000;stroke-width: 5.10 ;&st6;" d=" M   305.95,   341.73  L   305.95,   316.23  L   356.94,   316.23  L   356.94,   282.24  " /><path style="stroke:#FFFFFF;stroke-width: 1.13 ;&st6;" d=" M   305.95,   341.73  L   305.95,   316.23  L   356.94,   316.23  L   356.94,   282.24  " /></a><a style="cursor:pointer;" ewd:lineID="11"><path style="stroke:#00A0C6;stroke-width: 5.10 ;&st6;" d=" M   356.94,   146.26  L   356.94,   180.26  " /></a><a style="cursor:pointer;" ewd:lineID="12"><path style="stroke:#00A0C6;stroke-width: 5.10 ;&st6;" d=" M   356.94,   103.77  L   356.94,   129.26  " /></a><a style="cursor:pointer;" ewd:lineID="13"><path style="stroke:#000000;stroke-width: 5.10 ;&st6;" d=" M   382.44,   581.39  L   382.44,   681.67  " /><path style="stroke:#FFFFFF;stroke-width: 4.53 ;&st6;" d=" M   382.44,   581.39  L   382.44,   681.67  " /><path style="stroke:#000000;stroke-width: 1.13 ;&st6;" d=" M   382.44,   581.39  L   382.44,   681.67  " /></a><a style="cursor:pointer;" ewd:lineID="14"><path style="stroke:#000000;stroke-width: 5.10 ;&st6;" d=" M   382.44,   282.24  L   382.44,   528.13  " /><path style="stroke:#FFFFFF;stroke-width: 4.53 ;&st6;" d=" M   382.44,   282.24  L   382.44,   528.13  " /><path style="stroke:#000000;stroke-width: 1.13 ;&st6;" d=" M   382.44,   282.24  L   382.44,   528.13  " /></a><a ewd:comment="8" style="cursor:pointer;" ewd:lineID="15"><path style="stroke:#000000;stroke-width: 5.10 ;&st6;" d=" M   382.44,   180.26  L   382.44,   137.76  L   679.89,   137.76  L   679.89,   341.73  L   730.88,   341.73  L   739.38,   333.23  L   739.38,   324.73  " /><path style="stroke:#FFFFFF;stroke-width: 1.13 ;&st6;" d=" M   382.44,   180.26  L   382.44,   137.76  L   679.89,   137.76  L   679.89,   341.73  L   730.88,   341.73  L   739.38,   333.23  L   739.38,   324.73  " /></a><a ewd:comment="7" style="cursor:pointer;" ewd:lineID="16"><path style="stroke:#000000;stroke-width: 5.10 ;&st6;" d=" M   577.90,   401.22  L   577.90,   468.64  " /><path style="stroke:#FFFFFF;stroke-width: 4.53 ;&st6;" d=" M   577.90,   401.22  L   577.90,   468.64  " /><path style="stroke:#000000;stroke-width: 1.13 ;&st6;" d=" M   577.90,   401.22  L   577.90,   468.64  " /></a><a ewd:comment="7" style="cursor:pointer;" ewd:lineID="17"><path style="stroke:#000000;stroke-width: 5.10 ;&st6;" d=" M   577.90,   386.49  L   577.90,   367.22  L   645.89,   367.22  " /><path style="stroke:#FFFFFF;stroke-width: 4.53 ;&st6;" d=" M   577.90,   386.49  L   577.90,   367.22  L   645.89,   367.22  " /><path style="stroke:#000000;stroke-width: 1.13 ;&st6;" d=" M   577.90,   386.49  L   577.90,   367.22  L   645.89,   367.22  " /></a><a ewd:comment="7" style="cursor:pointer;" ewd:lineID="18"><path style="stroke:#000000;stroke-width: 5.10 ;&st6;" d=" M   654.39,   434.65  L   654.39,   375.72  " /><path style="stroke:#FFFFFF;stroke-width: 1.13 ;&st6;" d=" M   654.39,   434.65  L   654.39,   375.72  " /></a><a ewd:comment="7" style="cursor:pointer;" ewd:lineID="19"><path style="stroke:#000000;stroke-width: 5.10 ;&st6;" d=" M   654.39,   358.73  L   654.39,   163.26  L   390.93,   163.26  L   382.44,   171.76  L   382.44,   180.26  " /><path style="stroke:#FFFFFF;stroke-width: 1.13 ;&st6;" d=" M   654.39,   358.73  L   654.39,   163.26  L   390.93,   163.26  L   382.44,   171.76  L   382.44,   180.26  " /></a><a ewd:comment="7" style="cursor:pointer;" ewd:lineID="20"><path style="stroke:#000000;stroke-width: 5.10 ;&st6;" d=" M   739.38,   324.73  L   739.38,   367.22  L   662.89,   367.22  " /><path style="stroke:#FFFFFF;stroke-width: 1.13 ;&st6;" d=" M   739.38,   324.73  L   739.38,   367.22  L   662.89,   367.22  " /></a><a ewd:comment="9" style="cursor:pointer;" ewd:lineID="21"><path style="stroke:#000000;stroke-width: 5.10 ;&st6;" d=" M   739.38,   241.44  L   739.38,   309.72  " /><path style="stroke:#FFFFFF;stroke-width: 1.13 ;&st6;" d=" M   739.38,   241.44  L   739.38,   309.72  " /></a><a ewd:comment="10" style="cursor:pointer;" ewd:lineID="22"><path style="stroke:#7FC97F;stroke-width: 5.10 ;&st6;" d=" M   739.38,   241.44  L   739.38,   248.24  L   747.88,   256.74  L   764.87,   256.74  L   764.87,   299.24  L   747.88,   299.24  L   739.38,   307.73  L   739.38,   310.00  " /></a><a ewd:comment="9" style="cursor:pointer;" ewd:lineID="23"><path style="stroke:#000000;stroke-width: 5.10 ;&st6;" d=" M   739.38,   103.77  L   739.38,   170.06  " /><path style="stroke:#FFFFFF;stroke-width: 1.13 ;&st6;" d=" M   739.38,   103.77  L   739.38,   170.06  "/></a><a ewd:comment="10" style="cursor:pointer;" ewd:lineID="24"> d=" M   739.38,   103.77  L   739.38,   112.27  L   747.88,   120.77  L   764.87,   120.77  L   764.87,   154.76  L   747.88,   154.76  L   739.38,   163.26  L   739.38,   170.06 
	
		<path style="stroke:#000000;stroke-width: 5.10 ;&st6;" d=" M   739.38,   103.77  L   739.38,   112.27  L   747.88,   120.77  L   764.87,   120.77  L   764.87,   154.76  L   747.88,   154.76  L   739.38,   163.26  L   739.38,   170.06  " /><path style="stroke:#FFFFFF;stroke-width: 4.53 ;&st6;" d=" M   739.38,   103.77  L   739.38,   112.27  L   747.88,   120.77  L   764.87,   120.77  L   764.87,   154.76  L   747.88,   154.76  L   739.38,   163.26  L   739.38,   170.06  " /></a><a ewd:figtype="w2w" style="cursor:pointer;" ewd:pinNo="10" ewd:code="AC1" ewd:figID="16"><path style="&st2;" d=" M   314.45,   341.73  L   297.45,   341.73  L   297.45,   350.23  L   314.45,   350.23  L   314.45,   341.73 " /><text style="&st8;" transform="matrix(&st16;  300.31  348.1 )"><tspan x="0" style="&st18;" y="0">AC1</tspan></text></a><a ewd:figtype="w2w" style="cursor:pointer;" ewd:pinNo="3" ewd:code="AI1" ewd:figID="17"><path style="&st2;" d=" M   586.40,   392.72  L   569.40,   392.72  L   569.40,   401.22  L   586.40,   401.22  L   586.40,   392.72 " /><text style="&st8;" transform="matrix(&st16;  573.54  399.09 )"><tspan x="0" style="&st18;" y="0">AI1</tspan></text></a><a ewd:figtype="w2w" style="cursor:pointer;" ewd:pinNo="7" ewd:code="AI3" ewd:figID="18"><path style="&st2;" d=" M   747.88,   316.23  L   730.88,   316.23  L   730.88,   324.73  L   747.88,   324.73  L   747.88,   316.23 " /><text style="&st8;" transform="matrix(&st16;  735.01  322.6 )"><tspan x="0" style="&st18;" y="0">AI3</tspan></text></a><a ewd:figtype="gp" style="cursor:pointer;" ewd:code="FC" ewd:figID="19"><path style="&st2;" d=" M    14.87,   681.67  L    36.12,   681.67  L    25.50,   697.25  L    14.87,   681.67 " /><text style="&st8;" transform="matrix(&st16;  21.62  689.46 )"><tspan x="0" style="&st18;" y="0">FC</tspan></text></a><a ewd:figtype="gp" style="cursor:pointer;" ewd:code="FB" ewd:figID="20"><path style="&st2;" d=" M    57.37,   681.67  L    78.61,   681.67  L    67.99,   697.25  L    57.37,   681.67 " /><text style="&st8;" transform="matrix(&st16;  64.3  689.46 )"><tspan x="0" style="&st18;" y="0">FB</tspan></text></a><a ewd:figtype="gp" style="cursor:pointer;" ewd:code="AC" ewd:figID="21"><path style="&st2;" d=" M   125.35,   681.67  L   146.60,   681.67  L   135.98,   697.25  L   125.35,   681.67 " /><text style="&st8;" transform="matrix(&st16;  131.91  689.46 )"><tspan x="0" style="&st18;" y="0">AC</tspan></text></a><a ewd:figtype="gp" style="cursor:pointer;" ewd:code="FA" ewd:figID="22"><path style="&st2;" d=" M   176.35,   681.67  L   197.59,   681.67  L   186.97,   697.25  L   176.35,   681.67 " /><text style="&st8;" transform="matrix(&st16;  183.28  689.46 )"><tspan x="0" style="&st18;" y="0">FA</tspan></text></a><a ewd:figtype="gp" style="cursor:pointer;" ewd:code="AA" ewd:figID="23"><path style="&st2;" d=" M   371.81,   681.67  L   393.06,   681.67  L   382.44,   697.25  L   371.81,   681.67 " /><text style="&st8;" transform="matrix(&st16;  378.52  689.46 )"><tspan x="0" style="&st18;" y="0">AA</tspan></text></a><a ewd:figtype="sp" style="cursor:pointer;" ewd:code="SP4" ewd:figID="24"><path style="&st2;" d=" M   352.69,   129.26  L   361.19,   129.26  L   365.44,   133.51  L   365.44,   142.01  L   361.19,   146.26  L   352.69,   146.26  L   348.44,   142.01  L   348.44,   133.51  L   352.69,   129.26 " /></a><a ewd:figtype="sp" style="cursor:pointer;" ewd:code="SP3" ewd:figID="25"><path style="&st2;" d=" M   650.14,   358.73  L   658.64,   358.73  L   662.89,   362.97  L   662.89,   371.47  L   658.64,   375.72  L   650.14,   375.72  L   645.89,   371.47  L   645.89,   362.97  L   650.14,   358.73 "/></a></g></svg>
