<?xml version="1.0" encoding="utf-8"?>
<!DOCTYPE svg PUBLIC "-//W3C//DTD SVG 1.0//EN" "http://www.w3.org/TR/2001/REC-SVG-20010904/DTD/svg10.dtd"[
	<!ENTITY ns_flows "http://ns.adobe.com/Flows/1.0/">
	<!ENTITY ns_svg "http://www.w3.org/2000/svg">
	<!ENTITY ns_xlink "http://www.w3.org/1999/xlink">
	<!ENTITY st0 "font-size:7px;font-family:'MS-PGothic';adobe-font-script:japanese;">
	<!ENTITY st1 "font-size:6px;font-family:'ArialMT';">
	<!-- White fill  -->
	<!ENTITY st2 "fill:#FFFFFF;stroke:#000000; stroke-width:1.41;stroke-linecap:round;stroke-linejoin:round;">
	<!-- Yellow fill  -->
	<!ENTITY st3 "fill:#FFFFCC;stroke:#FFFFCC; stroke-width:0.1;stroke-linecap:round;stroke-linejoin:round;">
	<!-- Gray fill  -->
	<!ENTITY st4 "fill:#CCCCCC;stroke:#CCCCCC; stroke-width:0.1;stroke-linecap:round;stroke-linejoin:round;">
	<!-- Light-blue fill -->
	<!ENTITY st5 "fill:#CCECF4;stroke:#000000; stroke-width:1.133;stroke-linecap:round;stroke-linejoin:round;">
	<!ENTITY st6 "fill:none;stroke-linecap:butt; stroke-linejoin:round;">
	<!ENTITY st7 "fill:none;stroke:#000000;stroke-linecap:round;stroke-linejoin:round;">
	<!ENTITY st8 "enable-background:new    ;">
	<!-- Black fill -->
	<!ENTITY st9 "fill:#000000;stroke:#000000; stroke-linecap:round;stroke-linejoin:round;">
	<!-- SRS note   -->
	<!ENTITY st10 "font-size:9px;font-family:'ArialMT';">
	<!ENTITY st11 "font-size:9px;font-family:'Svg Symbol';">
	<!ENTITY st12 "font-size:6px;font-family:'Svg Symbol';">
	<!ENTITY st13 "fill:none;stroke:#ff0000;stroke-linecap:round;stroke-linejoin:round;">
	<!-- Yellow fill  -->
	<!ENTITY st14 "fill:#FFFF00;stroke:#FFFF00; stroke-width:0.1;stroke-linecap:round;stroke-linejoin:round;">
	<!ENTITY st15 "font-size:6px;font-family:'MS-PGothic';adobe-font-script:japanese;">
	<!ENTITY st16 "1.00 0.00 0.00 1.00">
	<!ENTITY st17 "0.00 -1.00 1.00 0.00">
	<!ENTITY st18 "font-size:6px;font-family:'Arial';">
	<!ENTITY st19 "font-size:9px;font-family:'Arial';">
	<!ENTITY st20 "font-size:6px;font-family:'MS-PGothic','MS PGothic';adobe-font-script:japanese;">
	<!ENTITY st21 "font-size:7px;font-family:'MS-PGothic','MS PGothic';adobe-font-script:japanese;">
	<!ATTLIST svg
		xmlns:ewd CDATA #FIXED "http://shcl.co.jp/ewd"
		xmlns:a CDATA #FIXED "http://ns.adobe.com/AdobeSVGViewerExtensions/3.0/"
		ewd:ver CDATA #IMPLIED
	>
	<!ATTLIST a
		ewd:lineID CDATA #IMPLIED
		ewd:groupID CDATA #IMPLIED
		ewd:figtype CDATA #IMPLIED
		ewd:code CDATA #IMPLIED
		ewd:figID CDATA #IMPLIED
		ewd:pinNo CDATA #IMPLIED
		ewd:comment CDATA #IMPLIED >
	<!ATTLIST g
		ewd:lineID CDATA #IMPLIED
		ewd:groupID CDATA #IMPLIED
		ewd:figtype CDATA #IMPLIED
		ewd:code CDATA #IMPLIED
		ewd:figID CDATA #IMPLIED
		ewd:pinNo CDATA #IMPLIED
		ewd:comment CDATA #IMPLIED >
	<!ATTLIST text
		ewd:textID CDATA #IMPLIED >
	<!ATTLIST title
		ewd:textID CDATA #IMPLIED >
]>
<!-- Generator: Shintec Hozumi YS   -->
<svg onload="call_execInitLoadProc_svg('system')" style="overflow:visible;  enable-background:new 0 0 962.458 710.000" viewBox="0 0 962.458 710.000" height="710.000" width="962.458" xml:space="preserve" ewd:ver="2.3.1.16" xmlns="&ns_svg;" xmlns:a="http://ns.adobe.com/AdobeSVGViewerExtensions/3.0/" xmlns:ewd="http://shcl.co.jp/ewd" xmlns:xlink="&ns_xlink;">
<path style="stroke-width: 1.42 ;&st7;  " d=" M   730.88,   316.23  L   739.38,   316.23  " /><text style="&st18;" transform="matrix(&st16;  700.32  374.86 )">(*7)</text><path style="stroke-width: 1.42 ;&st7;  " d=" M   662.89,   363.70  L   657.92,   358.73  " /><path style="stroke-width: 1.42 ;&st7;  " d=" M   645.89,   370.75  L   650.86,   375.72  " /><path style="stroke-width: 1.42 ;&st7;  " d=" M   657.92,   375.72  L   662.89,   370.75  " /><path style="stroke-width: 1.42 ;&st7;  " d=" M   650.86,   358.73  L   645.89,   363.70  " /><text style="&st18;" transform="matrix(&st17;  735.68  283.71 )">B-W</text><text style="&st18;" transform="matrix(&st17;  735.68  143.48 )">B-W</text><text style="&st18;" transform="matrix(&st17;  650.7  406.94 )">B-W</text><text style="&st18;" transform="matrix(&st17;  662.03  413.14 )">(RHD *7)</text><text style="&st18;" transform="matrix(&st16;  699.16  338.03 )">B-W</text><text style="&st18;" transform="matrix(&st16;  700.32  349.36 )">(*8)</text><text style="&st18;" transform="matrix(&st16;  699.16  363.53 )">B-W</text><text style="&st18;" transform="matrix(&st16;  537.69  134.07 )">B-W</text><text style="&st18;" transform="matrix(&st16;  538.85  145.4 )">(*8)</text><text style="&st18;" transform="matrix(&st16;  537.69  159.56 )">B-W</text><text style="&st18;" transform="matrix(&st16;  538.85  170.89 )">(*7)</text><text style="&st18;" transform="matrix(&st17;  650.7  321.95 )">B-W</text><text style="&st18;" transform="matrix(&st17;  662.03  320.79 )">(*7)</text><text style="&st18;" transform="matrix(&st17;  574.21  440.93 )">W-B</text><text style="&st18;" transform="matrix(&st17;  585.54  446.6 )">(LHD *7)</text><path style="stroke-width: 1.42 ;&st7;  " d=" M   569.40,   392.72  L   577.90,   392.72  " /><text style="&st18;" transform="matrix(&st16;  608.51  374.86 )">(LHD *7)</text><text style="&st18;" transform="matrix(&st16;  614.18  363.53 )">W-B</text><text style="&st18;" transform="matrix(&st17;  747.01  142.32 )">(*9)</text><text style="&st18;" transform="matrix(&st17;  747.01  282.55 )">(*9)</text><text style="&st18;" transform="matrix(&st17;  761.18  140.46 )">W</text><text style="&st18;" transform="matrix(&st17;  772.51  143.99 )">(*10)</text><text style="&st18;" transform="matrix(&st17;  761.18  281.73 )">LG</text><text style="&st18;" transform="matrix(&st17;  772.51  284.21 )">(*10)</text><g ewd:figtype="rb" ewd:figID="1" ewd:code="FUSE3"><path style="stroke-width: 0.85 ;&st7;  " d=" M   739.38,    78.27  L   739.38,    95.27  " /><path style="stroke-width: 1.42 ;&st7;  " d=" M   741.50,   103.77  L   737.25,   103.77  " /><path style="stroke-width: 1.42 ;&st7;  " d=" M   741.50,    95.27  L   737.25,    95.27  " /><path style="stroke-width: 1.42 ;&st7;   " d=" M   745.75,    99.52  C   745.75     97.17    743.85     95.27    741.50     95.27  " /><path style="stroke-width: 1.42 ;&st7;   " d=" M   741.50,   103.77  C   743.85    103.77    745.75    101.87    745.75     99.52  " /><path style="stroke-width: 1.42 ;&st7;   " d=" M   733.00,    99.52  C   733.00    101.87    734.91    103.77    737.25    103.77  " /><path style="stroke-width: 1.42 ;&st7;   " d=" M   737.25,    95.27  C   734.91     95.27    733.00     97.17    733.00     99.52  " /><path style="stroke-width: 0.28 ;&st9;  " d=" M   739.38,    90.37  L   736.54,    87.54  L   736.54,    91.79  L   739.38,    94.62  L   742.21,    91.79  L   742.21,    87.54  L   739.38,    90.37  " /><text style="&st18;" transform="matrix(&st16;  733.31  32.08 )">(ST)</text><text style="&st18;" transform="matrix(&st16;  733.04  86.47 )">2</text><text style="&st18;" transform="matrix(&st16;  737.5  101.49 )">2</text><text style="&st18;" transform="matrix(&st16;  755.8  56.17 )">7.5A <tspan x="0 " dy="6.0">ST</tspan></text><path style="stroke-width: 0.85 ;&st7;  " d=" M   739.38,    69.77  L   739.38,    78.27  " /><path style="stroke-width: 0.85 ;&st7;   " d=" M   740.79,    68.36  C   740.79     67.57    740.16     66.94    739.38     66.94  " /><path style="stroke-width: 0.85 ;&st7;   " d=" M   739.38,    66.94  C   738.59     66.94    737.96     67.57    737.96     68.36  " /><path style="stroke-width: 0.85 ;&st7;   " d=" M   737.96,    68.36  C   737.96     69.14    738.59     69.77    739.38     69.77  " /><path style="stroke-width: 0.85 ;&st7;   " d=" M   739.38,    69.77  C   740.16     69.77    740.79     69.14    740.79     68.36  " /><path style="stroke-width: 0.85 ;&st7;   " d=" M   740.79,    45.69  C   740.79     44.91    740.16     44.28    739.38     44.28  " /><path style="stroke-width: 0.85 ;&st7;   " d=" M   739.38,    44.28  C   738.59     44.28    737.96     44.91    737.96     45.69  " /><path style="stroke-width: 0.85 ;&st7;   " d=" M   737.96,    45.69  C   737.96     46.48    738.59     47.11    739.38     47.11  " /><path style="stroke-width: 0.85 ;&st7;   " d=" M   739.38,    47.11  C   740.16     47.11    740.79     46.48    740.79     45.69  " /><path style="stroke-width: 1.42 ;&st7;   " d=" M   739.38,    66.94  C   742.11     65.33    743.03     61.80    741.41     59.06  " /><path style="stroke-width: 1.42 ;&st7;   " d=" M   741.41,    59.06  C   740.89     58.18    740.26     57.55    739.38     57.03  " /><path style="stroke-width: 1.42 ;&st7;   " d=" M   739.38,    47.11  C   736.64     48.72    735.73     52.25    737.34     54.99  " /><path style="stroke-width: 1.42 ;&st7;   " d=" M   737.34,    54.99  C   737.86     55.87    738.49     56.51    739.38     57.03  " /><path style="stroke-width: 1.42 ;&st7;  " d=" M   726.63,    35.78  L   726.63,    78.27  L   752.12,    78.27  L   752.12,    35.78  L   726.63,    35.78  " /></g><g ewd:code="I59,I70" ewd:figID="2" ewd:comment="4,5,6" ewd:figtype="conn"><path style="stroke-width: 1.42 ;&st7;  " d=" M   730.88,   197.25  L   747.87,   197.25  L   747.87,   214.25  L   730.88,   214.25  L   730.88,   197.25  " /><path style="stroke-width: 0.85 ;&st7;  " d=" M   739.38,   214.25  L   739.38,   197.25  " /><text style="&st18;" transform="matrix(&st16;  729.9  229.82 )">9</text><text style="&st18;" transform="matrix(&st16;  729.9  238.88 )">1</text><text style="&st18;" transform="matrix(&st16;  729.9  220.75 )">9</text><path style="stroke-width: 1.42 ;&st7;   " d=" M   743.91,   227.85  C   743.91    225.34    741.88    223.31    739.38    223.31  " /><path style="stroke-width: 1.42 ;&st7;   " d=" M   739.38,   223.31  C   736.87    223.31    734.84    225.34    734.84    227.85  " /><path style="stroke-width: 1.42 ;&st7;   " d=" M   734.84,   227.85  C   734.84    230.35    736.87    232.38    739.38    232.38  " /><path style="stroke-width: 1.42 ;&st7;   " d=" M   739.38,   232.38  C   741.88    232.38    743.91    230.35    743.91    227.85  " /><text style="&st18;" transform="matrix(&st16;  737.11  238.88 )">B</text><path style="stroke-width: 1.42 ;&st7;   " d=" M   743.91,   218.78  C   743.91    216.28    741.88    214.25    739.38    214.25  " /><path style="stroke-width: 1.42 ;&st7;   " d=" M   739.38,   214.25  C   736.87    214.25    734.84    216.28    734.84    218.78  " /><path style="stroke-width: 1.42 ;&st7;   " d=" M   734.84,   218.78  C   734.84    221.29    736.87    223.31    739.38    223.31  " /><path style="stroke-width: 1.42 ;&st7;   " d=" M   739.38,   223.31  C   741.88    223.31    743.91    221.29    743.91    218.78  " /><path style="stroke-width: 1.42 ;&st7;   " d=" M   743.91,   236.91  C   743.91    234.41    741.88    232.38    739.38    232.38  " /><path style="stroke-width: 1.42 ;&st7;   " d=" M   739.38,   232.38  C   736.87    232.38    734.84    234.41    734.84    236.91  " /><path style="stroke-width: 1.42 ;&st7;   " d=" M   734.84,   236.91  C   734.84    239.42    736.87    241.44    739.38    241.44  " /><path style="stroke-width: 1.42 ;&st7;   " d=" M   739.38,   241.44  C   741.88    241.44    743.91    239.42    743.91    236.91  " /><text style="&st18;" transform="matrix(&st16;  737.11  220.75 )">A</text><text style="&st18;" transform="matrix(&st16;  737.11  229.82 )">B</text><text style="&st18;" transform="matrix(&st16;  726.56  176.56 )">10</text><text style="&st18;" transform="matrix(&st16;  729.9  194.69 )">2</text><text style="&st18;" transform="matrix(&st16;  726.56  185.62 )">10</text><path style="stroke-width: 1.42 ;&st7;   " d=" M   743.91,   192.72  C   743.91    190.22    741.88    188.19    739.38    188.19  " /><path style="stroke-width: 1.42 ;&st7;   " d=" M   739.38,   188.19  C   736.87    188.19    734.84    190.22    734.84    192.72  " /><path style="stroke-width: 1.42 ;&st7;   " d=" M   734.84,   192.72  C   734.84    195.22    736.87    197.25    739.38    197.25  " /><path style="stroke-width: 1.42 ;&st7;   " d=" M   739.38,   197.25  C   741.88    197.25    743.91    195.22    743.91    192.72  " /><path style="stroke-width: 1.42 ;&st7;   " d=" M   743.91,   183.65  C   743.91    181.15    741.88    179.12    739.38    179.12  " /><path style="stroke-width: 1.42 ;&st7;   " d=" M   739.38,   179.12  C   736.87    179.12    734.84    181.15    734.84    183.65  " /><path style="stroke-width: 1.42 ;&st7;   " d=" M   734.84,   183.65  C   734.84    186.16    736.87    188.19    739.38    188.19  " /><path style="stroke-width: 1.42 ;&st7;   " d=" M   739.38,   188.19  C   741.88    188.19    743.91    186.16    743.91    183.65  " /><path style="stroke-width: 1.42 ;&st7;   " d=" M   743.91,   174.59  C   743.91    172.09    741.88    170.06    739.38    170.06  " /><path style="stroke-width: 1.42 ;&st7;   " d=" M   739.38,   170.06  C   736.87    170.06    734.84    172.09    734.84    174.59  " /><path style="stroke-width: 1.42 ;&st7;   " d=" M   734.84,   174.59  C   734.84    177.09    736.87    179.12    739.38    179.12  " /><path style="stroke-width: 1.42 ;&st7;   " d=" M   739.38,   179.12  C   741.88    179.12    743.91    177.09    743.91    174.59  " /><text style="&st18;" transform="matrix(&st16;  737.11  185.62 )">B</text><text style="&st18;" transform="matrix(&st16;  737.11  194.69 )">B</text><text style="&st18;" transform="matrix(&st16;  737.11  176.56 )">A</text><g ewd:figtype="title"><text style="&st18;" transform="matrix(&st17;  724.35  217.16 )" ewd:textID="14">No. 10 Junction Connector</text><text style="&st18;" transform="matrix(&st17;  717.53  217.15 )">I59(B)</text><text style="&st18;" transform="matrix(&st17;  710.18  217.16 )" ewd:textID="16">No. 19 Junction Connector</text><text style="&st18;" transform="matrix(&st17;  703.36  217.15 )">I70(A)</text></g><g ewd:code="" ewd:figID="35" ewd:comment="6" ewd:figtype="commref"><text style="&st18;" transform="matrix(&st16;  744.47  194.69 )">(*6)</text></g><g ewd:code="" ewd:figID="36" ewd:comment="5" ewd:figtype="commref"><text style="&st18;" transform="matrix(&st16;  744.47  185.62 )">(*5)</text></g><g ewd:code="" ewd:figID="37" ewd:comment="4" ewd:figtype="commref"><text style="&st18;" transform="matrix(&st16;  744.47  176.56 )">(*4)</text></g><g ewd:code="" ewd:figID="38" ewd:comment="4" ewd:figtype="commref"><text style="&st18;" transform="matrix(&st16;  744.47  220.75 )">(*4)</text></g><g ewd:code="" ewd:figID="39" ewd:comment="5" ewd:figtype="commref"><text style="&st18;" transform="matrix(&st16;  744.47  229.82 )">(*5)</text></g><g ewd:code="" ewd:figID="40" ewd:comment="6" ewd:figtype="commref"><text style="&st18;" transform="matrix(&st16;  744.47  238.88 )">(*6)</text></g></g><g ewd:figtype="conn" ewd:figID="10" ewd:code="A30"><path style="stroke-width: 1.42 ;&st7;  " d=" M   637.39,   443.71  L   637.39,   477.71  L   671.39,   477.71  L   671.39,   443.71  L   637.39,   443.71  " /><text style="&st18;" transform="matrix(&st16;  644.91  441.15 )">2</text><path style="stroke-width: 1.42 ;&st7;   " d=" M   658.92,   439.18  C   658.92    436.68    656.89    434.65    654.39    434.65  " /><path style="stroke-width: 1.42 ;&st7;   " d=" M   654.39,   434.65  C   651.89    434.65    649.86    436.68    649.86    439.18  " /><path style="stroke-width: 1.42 ;&st7;   " d=" M   649.86,   439.18  C   649.86    441.68    651.89    443.71    654.39    443.71  " /><path style="stroke-width: 1.42 ;&st7;   " d=" M   654.39,   443.71  C   656.89    443.71    658.92    441.68    658.92    439.18  " /><text style="&st18;" transform="matrix(&st16;  652.12  441.15 )">A</text><text style="&st18;" transform="matrix(&st16;  648.29  451.35 )">STA</text><g ewd:figtype="title"><text style="&st18;" transform="matrix(&st16;  633.99  492.42 )" ewd:textID="12">Emission Control ECU</text><text style="&st18;" transform="matrix(&st16;  633.98  485.6 )">A30(A)</text></g></g><g ewd:figtype="conn" ewd:figID="11" ewd:code="I127"><path style="stroke-width: 1.42 ;&st7;  " d=" M   560.91,   477.71  L   560.91,   511.70  L   594.90,   511.70  L   594.90,   477.71  L   560.91,   477.71  " /><text style="&st18;" transform="matrix(&st16;  568.42  475.14 )">2</text><path style="stroke-width: 1.42 ;&st7;   " d=" M   582.44,   473.17  C   582.44    470.67    580.41    468.64    577.90    468.64  " /><path style="stroke-width: 1.42 ;&st7;   " d=" M   577.90,   468.64  C   575.40    468.64    573.37    470.67    573.37    473.17  " /><path style="stroke-width: 1.42 ;&st7;   " d=" M   573.37,   473.17  C   573.37    475.68    575.40    477.71    577.90    477.71  " /><path style="stroke-width: 1.42 ;&st7;   " d=" M   577.90,   477.71  C   580.41    477.71    582.44    475.68    582.44    473.17  " /><text style="&st18;" transform="matrix(&st16;  575.64  475.14 )">A</text><text style="&st18;" transform="matrix(&st16;  571.8  485.34 )">STA</text><g ewd:figtype="title"><text style="&st18;" transform="matrix(&st16;  557.5  526.42 )" ewd:textID="12">Emission Control ECU</text><text style="&st18;" transform="matrix(&st16;  557.49  519.59 )">I127(A)</text></g></g><g ewd:figtype="w2w" ewd:figID="17" ewd:code="AI1"><path style="stroke-width: 1.42 ;&st7;  " d=" M   573.65,   383.65  L   577.90,   387.90  L   582.15,   383.65  " /><path style="stroke-width: 1.42 ;&st7;  " d=" M   582.15,   387.05  L   577.90,   391.30  L   573.65,   387.05  " /><text style="&st18;" transform="matrix(&st16;  564.49  398.94 )">3</text></g><g ewd:figtype="w2w" ewd:figID="18" ewd:code="AI3"><path style="stroke-width: 1.42 ;&st7;  " d=" M   743.63,   310.57  L   739.38,   314.82  L   735.13,   310.57  " /><path style="stroke-width: 1.42 ;&st7;  " d=" M   735.13,   307.17  L   739.38,   311.42  L   743.63,   307.17  " /><text style="&st18;" transform="matrix(&st16;  725.96  322.45 )">7</text></g><g ewd:code="6" ewd:figID="29" ewd:comment="" ewd:figtype="comment"><text style="&st18;" transform="matrix(&st16;  820.96  80.24 )" ewd:textID="5">* 6 :RHD 24V Battery Type</text></g><g ewd:code="4" ewd:figID="31" ewd:comment="" ewd:figtype="comment"><text style="&st18;" transform="matrix(&st16;  820.96  63.24 )">* 4 :LHD</text></g><g ewd:code="10" ewd:figID="47" ewd:comment="" ewd:figtype="comment"><text style="&st18;" transform="matrix(&st16;  820.96  114.24 )" ewd:textID="9">*10 :From Sep. 2022 Production</text></g><g ewd:code="1" ewd:figID="34" ewd:comment="" ewd:figtype="comment"><text style="&st18;" transform="matrix(&st16;  820.96  37.75 )" ewd:textID="1">* 1 :12V Battery Type w/ One Battery</text></g><g ewd:code="7" ewd:figID="44" ewd:comment="" ewd:figtype="comment"><text style="&st18;" transform="matrix(&st16;  820.96  88.74 )" ewd:textID="6">* 7 :w/ Emission Control</text></g><g ewd:code="3" ewd:figID="32" ewd:comment="" ewd:figtype="comment"><text style="&st18;" transform="matrix(&st16;  820.96  54.75 )" ewd:textID="3">* 3 :24V Battery Type</text></g><g ewd:code="5" ewd:figID="30" ewd:comment="" ewd:figtype="comment"><text style="&st18;" transform="matrix(&st16;  820.96  71.74 )" ewd:textID="4">* 5 :RHD 12V Battery Type</text></g><g ewd:code="2" ewd:figID="33" ewd:comment="" ewd:figtype="comment"><text style="&st18;" transform="matrix(&st16;  820.96  46.25 )" ewd:textID="2">* 2 :12V Battery Type w/ Two Batteries</text></g><g ewd:code="8" ewd:figID="28" ewd:comment="" ewd:figtype="comment"><text style="&st18;" transform="matrix(&st16;  820.96  97.24 )" ewd:textID="7">* 8 :w/o Emission Control</text></g><g ewd:code="9" ewd:figID="46" ewd:comment="" ewd:figtype="comment"><text style="&st18;" transform="matrix(&st16;  820.96  105.74 )" ewd:textID="8">* 9 :Before Sep. 2022 Production</text></g></svg>