<?xml version="1.0" encoding="UTF-8"?>
<!DOCTYPE svg PUBLIC "-//W3C//DTD SVG 1.0//EN" "http://www.w3.org/TR/2001/REC-SVG-20010904/DTD/svg10.dtd"[
	<!ENTITY ns_flows "http://ns.adobe.com/Flows/1.0/">
	<!ENTITY ns_svg "http://www.w3.org/2000/svg">
	<!ENTITY ns_xlink "http://www.w3.org/1999/xlink">
	<!ENTITY st0 "font-size:7px;font-family:'MS-PGothic';adobe-font-script:japanese;">
	<!ENTITY st1 "font-size:6px;font-family:'ArialMT';">
	<!-- White fill  -->
	<!ENTITY st2 "fill:#FFFFFF;stroke:#000000; stroke-width:1.41;stroke-linecap:round;stroke-linejoin:round;">
	<!-- Yellow fill  -->
	<!ENTITY st3 "fill:#FFFFCC;stroke:#FFFFCC; stroke-width:0.1;stroke-linecap:round;stroke-linejoin:round;">
	<!-- Gray fill  -->
	<!ENTITY st4 "fill:#CCCCCC;stroke:#CCCCCC; stroke-width:0.1;stroke-linecap:round;stroke-linejoin:round;">
	<!-- Light-blue fill -->
	<!ENTITY st5 "fill:#CCECF4;stroke:#000000; stroke-width:1.133;stroke-linecap:round;stroke-linejoin:round;">
	<!ENTITY st6 "fill:none;stroke-linecap:butt; stroke-linejoin:round;">
	<!ENTITY st7 "fill:none;stroke:#000000;stroke-linecap:round;stroke-linejoin:round;">
	<!ENTITY st8 "enable-background:new    ;">
	<!-- Black fill -->
	<!ENTITY st9 "fill:#000000;stroke:#000000; stroke-linecap:round;stroke-linejoin:round;">
	<!-- SRS note   -->
	<!ENTITY st10 "font-size:9px;font-family:'ArialMT';">
	<!ENTITY st11 "font-size:9px;font-family:'Svg Symbol';">
	<!ENTITY st12 "font-size:6px;font-family:'Svg Symbol';">
	<!ENTITY st13 "fill:none;stroke:#ff0000;stroke-linecap:round;stroke-linejoin:round;">
	<!-- Yellow fill  -->
	<!ENTITY st14 "fill:#FFFF00;stroke:#FFFF00; stroke-width:0.1;stroke-linecap:round;stroke-linejoin:round;">
	<!ENTITY st15 "font-size:6px;font-family:'MS-PGothic';adobe-font-script:japanese;">
	<!ENTITY st16 "1.00 0.00 0.00 1.00">
	<!ENTITY st17 "0.00 -1.00 1.00 0.00">
	<!ENTITY st18 "font-size:6px;font-family:'Arial';">
	<!ENTITY st19 "font-size:9px;font-family:'Arial';">
	<!ENTITY st20 "font-size:6px;font-family:'MS-PGothic','MS PGothic';adobe-font-script:japanese;">
	<!ENTITY st21 "font-size:7px;font-family:'MS-PGothic','MS PGothic';adobe-font-script:japanese;">
	<!ATTLIST svg
		xmlns:ewd CDATA #FIXED "http://shcl.co.jp/ewd"
		xmlns:a CDATA #FIXED "http://ns.adobe.com/AdobeSVGViewerExtensions/3.0/"
		ewd:ver CDATA #IMPLIED
	>
	<!ATTLIST a
		ewd:lineID CDATA #IMPLIED
		ewd:groupID CDATA #IMPLIED
		ewd:figtype CDATA #IMPLIED
		ewd:code CDATA #IMPLIED
		ewd:figID CDATA #IMPLIED
		ewd:pinNo CDATA #IMPLIED
		ewd:comment CDATA #IMPLIED >
	<!ATTLIST g
		ewd:lineID CDATA #IMPLIED
		ewd:groupID CDATA #IMPLIED
		ewd:figtype CDATA #IMPLIED
		ewd:code CDATA #IMPLIED
		ewd:figID CDATA #IMPLIED
		ewd:pinNo CDATA #IMPLIED
		ewd:comment CDATA #IMPLIED >
	<!ATTLIST text
		ewd:textID CDATA #IMPLIED >
	<!ATTLIST title
		ewd:textID CDATA #IMPLIED >
]>
<!-- Generator: Shintec Hozumi YS   -->
<svg onload="call_execInitLoadProc_svg('system')" style="overflow:visible;  enable-background:new 0 0 912.069 710.000" viewBox="0 0 912.069 710.000" height="710.000" width="912.069" xml:space="preserve" ewd:ver="2.3.1.16" xmlns="&ns_svg;" xmlns:a="http://ns.adobe.com/AdobeSVGViewerExtensions/3.0/" xmlns:ewd="http://shcl.co.jp/ewd" xmlns:xlink="&ns_xlink;">
	<script type="text/javascript" xlink:href="../../../../../system/js/ewd/fig/svgfig.js"/>
<g id="ewd_top">
	<a ewd:figtype="rb" style="cursor:pointer;" ewd:code="FUSE3" ewd:figID="1">
		<path style="fill:#CCECF4;stroke:#000000; stroke-width:0; stroke-linecap:round;stroke-linejoin:round; " d=" M   862.61,    35.78  L   862.61,    78.27  L   888.10,    78.27  L   888.10,    35.78  L   862.61,    35.78 "/>
	</a>
	<a ewd:figtype="rb" style="cursor:pointer;" ewd:code="FUSE58" ewd:figID="2">
		<path style="fill:#CCECF4;stroke:#000000; stroke-width:0; stroke-linecap:round;stroke-linejoin:round; " d=" M   267.71,    35.78  L   267.71,    78.27  L   293.20,    78.27  L   293.20,    35.78  L   267.71,    35.78 "/>
	</a>
	<a ewd:figtype="rb" style="cursor:pointer;" ewd:code="1" ewd:figID="3">
		<path style="fill:#CCECF4;stroke:#000000; stroke-width:0; stroke-linecap:round;stroke-linejoin:round; " d=" M   348.44,   307.73  L   305.95,   307.73  L   305.95,   341.73  L   348.44,   341.73  L   348.44,   307.73 "/>
	</a>
	<a ewd:figtype="conn" style="cursor:pointer;" ewd:code="A22" ewd:figID="4">
		<path style="fill:#CCECF4;stroke:#000000; stroke-width:1.133; stroke-linecap:round;stroke-linejoin:round; " d=" M   441.93,   528.70  L   441.93,   545.69  L   458.92,   545.69  L   458.92,   528.70  L   441.93,   528.70 "/>
		<title ewd:textID="4">No. 1 Junction Connector</title>
	</a>
	<a ewd:figtype="conn" style="cursor:pointer;" ewd:code="D2,D3,D6,D7" ewd:figID="5">
		<path style="fill:#CCECF4;stroke:#000000; stroke-width:1.133; stroke-linecap:round;stroke-linejoin:round; " d=" M   229.46,   647.68  L   331.44,   647.68  L   331.44,   613.68  L   229.46,   613.68  L   229.46,   647.68 "/>
		<title ewd:textID="9">Starter Assembly</title>
	</a>
	<a ewd:figtype="conn" style="cursor:pointer;" ewd:code="A36,D8,D9" ewd:figID="6">
		<path style="fill:#CCECF4;stroke:#000000; stroke-width:1.133; stroke-linecap:round;stroke-linejoin:round; " d=" M    93.48,   503.20  L   152.97,   503.20  L   152.97,   562.69  L    93.48,   562.69  L    93.48,   503.20 "/>
		<title ewd:textID="3">Battery (Main)</title>
	</a>
	<a ewd:figtype="conn" style="cursor:pointer;" ewd:code="A29,I84" ewd:figID="7">
		<path style="fill:#CCECF4;stroke:#000000; stroke-width:1.133; stroke-linecap:round;stroke-linejoin:round; " d=" M   671.39,   341.73  L   671.39,   375.72  L   705.38,   375.72  L   705.38,   341.73  L   671.39,   341.73 "/>
		<title>ECM</title>
	</a>
	<a ewd:figtype="conn" style="cursor:pointer;" ewd:code="I59,I70" ewd:figID="8">
		<path style="fill:#CCECF4;stroke:#000000; stroke-width:1.133; stroke-linecap:round;stroke-linejoin:round; " d=" M   577.90,    78.27  L   577.90,    95.27  L   781.87,    95.27  L   781.87,    78.27  L   577.90,    78.27 "/>
		<title ewd:textID="6">No. 10 Junction Connector , No. 19 Junction Connector</title>
	</a>
	<a ewd:figtype="fuse" style="cursor:pointer;" ewd:code="FUSE58" ewd:figID="24">
		<path style="&st7; stroke-width:0;" d=" M   267.71,    35.78  L   267.71,    78.27  L   293.20,    78.27  L   293.20,    35.78  L   267.71,    35.78 "/>
	</a>
	<a ewd:figtype="fuse" style="cursor:pointer;" ewd:code="FUSE3" ewd:figID="25">
		<path style="&st7; stroke-width:0;" d=" M   862.61,    35.78  L   862.61,    78.27  L   888.10,    78.27  L   888.10,    35.78  L   862.61,    35.78 "/>
	</a>
	<a ewd:comment="1" style="cursor:pointer;" ewd:lineID="1">
		<path style="stroke:#000000;stroke-width: 5.10 ;&st6;" d=" M   101.98,   571.76  L   101.98,   579.69  L    93.48,   588.19  L    76.49,   588.19  L    76.49,   664.67  L    93.48,   664.67  L   101.98,   673.17  L   101.98,   681.67  "/>
	</a>
	<a ewd:comment="2" style="cursor:pointer;" ewd:lineID="2">
		<path style="stroke:#000000;stroke-width: 5.10 ;&st6;" d=" M   101.98,   571.76  L   101.98,   681.67  "/>
		<path style="stroke:#FFFFFF;stroke-width: 2.27 ;&st6;" d=" M   101.98,   571.76  L   101.98,   681.67  "/>
		<path style="stroke:#666666;stroke-width: 1.13 ;&st6;" d=" M   101.98,   571.76  L   101.98,   681.67  "/>
	</a>
	<a style="cursor:pointer;" ewd:lineID="3">
		<path style="stroke:#000000;stroke-width: 5.10 ;&st6;" d=" M   135.98,   571.76  L   135.98,   681.67  "/>
		<path style="stroke:#FFFFFF;stroke-width: 2.27 ;&st6;" d=" M   135.98,   571.76  L   135.98,   681.67  "/>
		<path style="stroke:#666666;stroke-width: 1.13 ;&st6;" d=" M   135.98,   571.76  L   135.98,   681.67  "/>
	</a>
	<a style="cursor:pointer;" ewd:lineID="4">
		<path style="stroke:#000000;stroke-width: 5.10 ;&st6;" d=" M   246.46,   595.55  L   246.46,   469.21  L   135.98,   469.21  L   135.98,   494.14  "/>
	</a>
	<a ewd:comment="1" style="cursor:pointer;" ewd:lineID="5">
		<path style="stroke:#000000;stroke-width: 5.10 ;&st6;" d=" M   280.45,   460.71  L   280.45,   579.12  L   305.95,   579.12  L   314.45,   587.62  L   314.45,   595.55  "/>
	</a>
	<a ewd:comment="1" style="cursor:pointer;" ewd:lineID="6">
		<path style="stroke:#000000;stroke-width: 5.10 ;&st6;" d=" M   280.45,   445.98  L   280.45,   392.72  L   305.95,   392.72  L   314.45,   384.22  L   314.45,   375.72  "/>
		<path style="stroke:#FFFFFF;stroke-width: 1.13 ;&st6;" d=" M   280.45,   445.98  L   280.45,   392.72  L   305.95,   392.72  L   314.45,   384.22  L   314.45,   375.72  "/>
	</a>
	<a style="cursor:pointer;" ewd:lineID="7">
		<path style="stroke:#00A0C6;stroke-width: 5.10 ;&st6;" d=" M   280.45,   137.76  L   280.45,   103.77  "/>
	</a>
	<a ewd:comment="2" style="cursor:pointer;" ewd:lineID="8">
		<path style="stroke:#000000;stroke-width: 5.10 ;&st6;" d=" M   314.45,   517.93  L   314.45,   595.55  "/>
		<path style="stroke:#FFFFFF;stroke-width: 1.13 ;&st6;" d=" M   314.45,   517.93  L   314.45,   595.55  "/>
	</a>
	<a ewd:comment="2" style="cursor:pointer;" ewd:lineID="9">
		<path style="stroke:#000000;stroke-width: 5.10 ;&st6;" d=" M   314.45,   460.71  L   314.45,   503.20  "/>
		<path style="stroke:#FFFFFF;stroke-width: 1.13 ;&st6;" d=" M   314.45,   460.71  L   314.45,   503.20  "/>
	</a>
	<a ewd:comment="2" style="cursor:pointer;" ewd:lineID="10">
		<path style="stroke:#000000;stroke-width: 5.10 ;&st6;" d=" M   314.45,   375.72  L   314.45,   445.69  "/>
		<path style="stroke:#FFFFFF;stroke-width: 1.13 ;&st6;" d=" M   314.45,   375.72  L   314.45,   445.69  "/>
	</a>
	<a style="cursor:pointer;" ewd:lineID="11">
		<path style="stroke:#00A0C6;stroke-width: 5.10 ;&st6;" d=" M   314.45,   273.74  L   314.45,   239.75  L   280.45,   239.75  L   280.45,   154.76  "/>
	</a>
	<a style="cursor:pointer;" ewd:lineID="12">
		<path style="stroke:#000000;stroke-width: 5.10 ;&st6;" d=" M   339.94,   375.72  L   339.94,   401.22  L   450.42,   401.22  L   450.42,   519.63  "/>
		<path style="stroke:#FFFFFF;stroke-width: 4.53 ;&st6;" d=" M   339.94,   375.72  L   339.94,   401.22  L   450.42,   401.22  L   450.42,   519.63  "/>
		<path style="stroke:#000000;stroke-width: 1.13 ;&st6;" d=" M   339.94,   375.72  L   339.94,   401.22  L   450.42,   401.22  L   450.42,   519.63  "/>
	</a>
	<a ewd:comment="1" style="cursor:pointer;" ewd:lineID="13">
		<path style="stroke:#000000;stroke-width: 5.10 ;&st6;" d=" M   339.94,   273.74  L   339.94,   231.25  "/>
		<path style="stroke:#FFFFFF;stroke-width: 1.13 ;&st6;" d=" M   339.94,   273.74  L   339.94,   231.25  "/>
	</a>
	<a ewd:comment="2" style="cursor:pointer;" ewd:lineID="14">
		<path style="stroke:#000000;stroke-width: 5.10 ;&st6;" d=" M   339.94,   273.74  L   339.94,   265.24  L   348.44,   256.74  L   586.40,   256.74  L   586.40,   205.75  "/>
		<path style="stroke:#FFFFFF;stroke-width: 1.13 ;&st6;" d=" M   339.94,   273.74  L   339.94,   265.24  L   348.44,   256.74  L   586.40,   256.74  L   586.40,   205.75  "/>
	</a>
	<a ewd:comment="1" style="cursor:pointer;" ewd:lineID="15">
		<path style="stroke:#000000;stroke-width: 5.10 ;&st6;" d=" M   348.44,   222.75  L   577.90,   222.75  L   586.40,   214.25  L   586.40,   205.75  "/>
		<path style="stroke:#FFFFFF;stroke-width: 1.13 ;&st6;" d=" M   348.44,   222.75  L   577.90,   222.75  L   586.40,   214.25  L   586.40,   205.75  "/>
	</a>
	<a style="cursor:pointer;" ewd:lineID="16">
		<path style="stroke:#000000;stroke-width: 5.10 ;&st6;" d=" M   450.42,   563.82  L   450.42,   681.67  "/>
		<path style="stroke:#FFFFFF;stroke-width: 4.53 ;&st6;" d=" M   450.42,   563.82  L   450.42,   681.67  "/>
		<path style="stroke:#000000;stroke-width: 1.13 ;&st6;" d=" M   450.42,   563.82  L   450.42,   681.67  "/>
	</a>
	<a ewd:comment="6" style="cursor:pointer;" ewd:lineID="17">
		<path style="stroke:#000000;stroke-width: 5.10 ;&st6;" d=" M   586.40,   182.52  L   586.40,   113.40  "/>
		<path style="stroke:#FFFFFF;stroke-width: 1.13 ;&st6;" d=" M   586.40,   182.52  L   586.40,   113.40  "/>
	</a>
	<a ewd:comment="7" style="cursor:pointer;" ewd:lineID="18">
		<path style="stroke:#7FC97F;stroke-width: 5.10 ;&st6;" d=" M   586.40,   113.40  L   586.40,   120.77  L   577.90,   129.26  L   560.91,   129.26  L   560.91,   171.76  L   577.90,   171.76  L   586.40,   180.26  L   586.40,   182.52  "/>
	</a>
	<a ewd:comment="5" style="cursor:pointer;" ewd:lineID="19">
		<path style="stroke:#000000;stroke-width: 5.10 ;&st6;" d=" M   688.38,   188.75  L   688.38,   323.60  "/>
		<path style="stroke:#FFFFFF;stroke-width: 1.13 ;&st6;" d=" M   688.38,   188.75  L   688.38,   323.60  "/>
	</a>
	<a ewd:comment="3,6" style="cursor:pointer;" ewd:lineID="20">
		<path style="stroke:#000000;stroke-width: 5.10 ;&st6;" d=" M   688.38,   113.40  L   688.38,   120.77  L   696.88,   129.26  L   747.88,   129.26  L   747.88,   307.73  L   696.88,   307.73  L   688.38,   315.67  L   688.38,   323.60  "/>
		<path style="stroke:#FFFFFF;stroke-width: 1.13 ;&st6;" d=" M   688.38,   113.40  L   688.38,   120.77  L   696.88,   129.26  L   747.88,   129.26  L   747.88,   307.73  L   696.88,   307.73  L   688.38,   315.67  L   688.38,   323.60  "/>
	</a>
	<a ewd:comment="3,7" style="cursor:pointer;" ewd:lineID="21">
		<path style="stroke:#7FC97F;stroke-width: 5.10 ;&st6;" d=" M   688.38,   113.40  L   688.38,   120.77  L   679.89,   129.26  L   654.39,   129.26  L   654.39,   307.73  L   679.89,   307.73  L   688.38,   316.23  L   688.38,   323.60  "/>
	</a>
	<a ewd:comment="5" style="cursor:pointer;" ewd:lineID="22">
		<path style="stroke:#000000;stroke-width: 5.10 ;&st6;" d=" M   688.38,   113.40  L   688.38,   165.24  "/>
		<path style="stroke:#FFFFFF;stroke-width: 1.13 ;&st6;" d=" M   688.38,   113.40  L   688.38,   165.24  "/>
	</a>
	<a ewd:comment="7" style="cursor:pointer;" ewd:lineID="23"> d=" M   773.37,   113.40  L   773.37,   120.77  L   781.87,   129.26  L   858.36,   129.26  L   875.35,   112.27  L   875.35,   103.77 
	
		<path style="stroke:#000000;stroke-width: 5.10 ;&st6;" d=" M   773.37,   113.40  L   773.37,   120.77  L   781.87,   129.26  L   858.36,   129.26  L   875.35,   112.27  L   875.35,   103.77  "/>
		<path style="stroke:#FFFFFF;stroke-width: 4.53 ;&st6;" d=" M   773.37,   113.40  L   773.37,   120.77  L   781.87,   129.26  L   858.36,   129.26  L   875.35,   112.27  L   875.35,   103.77  "/>
	</a>
	<a ewd:comment="6" style="cursor:pointer;" ewd:lineID="24">
		<path style="stroke:#000000;stroke-width: 5.10 ;&st6;" d=" M   875.35,   103.77  L   875.35,   163.26  L   773.37,   163.26  L   773.37,   113.40  "/>
		<path style="stroke:#FFFFFF;stroke-width: 1.13 ;&st6;" d=" M   875.35,   103.77  L   875.35,   163.26  L   773.37,   163.26  L   773.37,   113.40  "/>
	</a>
	<g ewd:figtype="rb" ewd:figID="1" ewd:code="FUSE3">
		<path style="stroke-width: 0.85 ;&st7;  " d=" M   875.35,    78.27  L   875.35,    95.27  "/>
		<path style="stroke-width: 1.42 ;&st7;  " d=" M   877.48,   103.77  L   873.23,   103.77  "/>
		<path style="stroke-width: 1.42 ;&st7;  " d=" M   877.48,    95.27  L   873.23,    95.27  "/>
		<path style="stroke-width: 1.42 ;&st7;   " d=" M   873.23,    95.27  C   870.88     95.27    868.98     97.17    868.98     99.52  "/>
		<path style="stroke-width: 1.42 ;&st7;   " d=" M   868.98,    99.52  C   868.98    101.87    870.88    103.77    873.23    103.77  "/>
		<path style="stroke-width: 1.42 ;&st7;   " d=" M   877.48,   103.77  C   879.83    103.77    881.73    101.87    881.73     99.52  "/>
		<path style="stroke-width: 1.42 ;&st7;   " d=" M   881.73,    99.52  C   881.73     97.17    879.83     95.27    877.48     95.27  "/>
		<path style="stroke-width: 0.28 ;&st9;  " d=" M   875.35,    90.37  L   872.52,    87.54  L   872.52,    91.79  L   875.35,    94.62  L   878.19,    91.79  L   878.19,    87.54  L   875.35,    90.37  "/>
		<text style="&st18;" transform="matrix(&st16;  891.78  56.17 )">7.5A <tspan x="0 " dy="6.0">ST</tspan></text>
		<text style="&st18;" transform="matrix(&st16;  873.48  101.49 )">2</text>
		<text style="&st18;" transform="matrix(&st16;  869.01  86.47 )">2</text>
		<text style="&st18;" transform="matrix(&st16;  869.29  32.08 )">(ST)</text>
		<path style="stroke-width: 0.85 ;&st7;  " d=" M   875.35,    69.77  L   875.35,    78.27  "/>
		<path style="stroke-width: 0.85 ;&st7;   " d=" M   876.77,    68.36  C   876.77     67.57    876.14     66.94    875.35     66.94  "/>
		<path style="stroke-width: 0.85 ;&st7;   " d=" M   875.35,    66.94  C   874.57     66.94    873.94     67.57    873.94     68.36  "/>
		<path style="stroke-width: 0.85 ;&st7;   " d=" M   873.94,    68.36  C   873.94     69.14    874.57     69.77    875.35     69.77  "/>
		<path style="stroke-width: 0.85 ;&st7;   " d=" M   875.35,    69.77  C   876.14     69.77    876.77     69.14    876.77     68.36  "/>
		<path style="stroke-width: 0.85 ;&st7;   " d=" M   876.77,    45.69  C   876.77     44.91    876.14     44.28    875.35     44.28  "/>
		<path style="stroke-width: 0.85 ;&st7;   " d=" M   875.35,    44.28  C   874.57     44.28    873.94     44.91    873.94     45.69  "/>
		<path style="stroke-width: 0.85 ;&st7;   " d=" M   873.94,    45.69  C   873.94     46.48    874.57     47.11    875.35     47.11  "/>
		<path style="stroke-width: 0.85 ;&st7;   " d=" M   875.35,    47.11  C   876.14     47.11    876.77     46.48    876.77     45.69  "/>
		<path style="stroke-width: 1.42 ;&st7;   " d=" M   875.35,    66.94  C   878.09     65.33    879.00     61.80    877.39     59.06  "/>
		<path style="stroke-width: 1.42 ;&st7;   " d=" M   877.39,    59.06  C   876.87     58.18    876.24     57.55    875.35     57.03  "/>
		<path style="stroke-width: 1.42 ;&st7;   " d=" M   875.35,    47.11  C   872.62     48.72    871.70     52.25    873.32     54.99  "/>
		<path style="stroke-width: 1.42 ;&st7;   " d=" M   873.32,    54.99  C   873.84     55.87    874.47     56.51    875.35     57.03  "/>
		<path style="stroke-width: 1.42 ;&st7;  " d=" M   862.61,    35.78  L   862.61,    78.27  L   888.10,    78.27  L   888.10,    35.78  L   862.61,    35.78  "/>
	</g>
	<g ewd:figtype="rb" ewd:figID="2" ewd:code="FUSE58">
		<path style="stroke-width: 1.42 ;&st7;  " d=" M   282.58,    95.27  L   278.33,    95.27  "/>
		<path style="stroke-width: 1.42 ;&st7;  " d=" M   282.58,   103.77  L   278.33,   103.77  "/>
		<path style="stroke-width: 0.85 ;&st7;  " d=" M   280.45,    78.27  L   280.45,    95.27  "/>
		<path style="stroke-width: 1.42 ;&st7;   " d=" M   278.33,    95.27  C   275.98     95.27    274.08     97.17    274.08     99.52  "/>
		<path style="stroke-width: 1.42 ;&st7;   " d=" M   274.08,    99.52  C   274.08    101.87    275.98    103.77    278.33    103.77  "/>
		<path style="stroke-width: 1.42 ;&st7;   " d=" M   282.58,   103.77  C   284.92    103.77    286.83    101.87    286.83     99.52  "/>
		<path style="stroke-width: 1.42 ;&st7;   " d=" M   286.83,    99.52  C   286.83     97.17    284.92     95.27    282.58     95.27  "/>
		<path style="stroke-width: 0.28 ;&st9;  " d=" M   280.45,    90.37  L   277.62,    87.54  L   277.62,    91.79  L   280.45,    94.62  L   283.29,    91.79  L   283.29,    87.54  L   280.45,    90.37  "/>
		<text style="&st18;" transform="matrix(&st16;  296.88  56.17 )">50A <tspan x="0 " dy="6.0">AM2</tspan></text>
		<text style="&st18;" transform="matrix(&st16;  278.58  101.49 )">4</text>
		<text style="&st18;" transform="matrix(&st16;  274.11  86.47 )">2</text>
		<text style="&st18;" transform="matrix(&st16;  272.37  32.08 )">(BAT)</text>
		<path style="stroke-width: 0.85 ;&st7;  " d=" M   280.45,    69.77  L   280.45,    78.27  "/>
		<path style="stroke-width: 1.42 ;&st7;   " d=" M   280.45,    47.11  C   277.72     48.72    276.80     52.25    278.42     54.99  "/>
		<path style="stroke-width: 1.42 ;&st7;   " d=" M   278.42,    54.99  C   278.94     55.87    279.57     56.51    280.45     57.03  "/>
		<path style="stroke-width: 1.42 ;&st7;   " d=" M   280.45,    66.94  C   283.19     65.33    284.10     61.80    282.49     59.06  "/>
		<path style="stroke-width: 1.42 ;&st7;   " d=" M   282.49,    59.06  C   281.97     58.18    281.34     57.55    280.45     57.03  "/>
		<path style="stroke-width: 0.85 ;&st7;   " d=" M   281.87,    45.69  C   281.87     44.91    281.24     44.28    280.45     44.28  "/>
		<path style="stroke-width: 0.85 ;&st7;   " d=" M   280.45,    44.28  C   279.67     44.28    279.04     44.91    279.04     45.69  "/>
		<path style="stroke-width: 0.85 ;&st7;   " d=" M   279.04,    45.69  C   279.04     46.48    279.67     47.11    280.45     47.11  "/>
		<path style="stroke-width: 0.85 ;&st7;   " d=" M   280.45,    47.11  C   281.24     47.11    281.87     46.48    281.87     45.69  "/>
		<path style="stroke-width: 0.85 ;&st7;   " d=" M   281.87,    68.36  C   281.87     67.57    281.24     66.94    280.45     66.94  "/>
		<path style="stroke-width: 0.85 ;&st7;   " d=" M   280.45,    66.94  C   279.67     66.94    279.04     67.57    279.04     68.36  "/>
		<path style="stroke-width: 0.85 ;&st7;   " d=" M   279.04,    68.36  C   279.04     69.14    279.67     69.77    280.45     69.77  "/>
		<path style="stroke-width: 0.85 ;&st7;   " d=" M   280.45,    69.77  C   281.24     69.77    281.87     69.14    281.87     68.36  "/>
		<path style="stroke-width: 1.42 ;&st7;  " d=" M   267.71,    35.78  L   267.71,    78.27  L   293.20,    78.27  L   293.20,    35.78  L   267.71,    35.78  "/>
	</g>
	<g ewd:figtype="rb" ewd:figID="3" ewd:code="1">
		<path style="stroke-width: 1.42 ;&st7;  " d=" M   342.07,   273.74  L   337.82,   273.74  "/>
		<path style="stroke-width: 1.42 ;&st7;  " d=" M   342.07,   282.24  L   337.82,   282.24  "/>
		<path style="stroke-width: 1.42 ;&st7;  " d=" M   316.57,   273.74  L   312.32,   273.74  "/>
		<path style="stroke-width: 1.42 ;&st7;  " d=" M   316.57,   282.24  L   312.32,   282.24  "/>
		<path style="stroke-width: 1.42 ;&st7;  " d=" M   342.07,   367.22  L   337.82,   367.22  "/>
		<path style="stroke-width: 1.42 ;&st7;  " d=" M   342.07,   375.72  L   337.82,   375.72  "/>
		<path style="stroke-width: 1.42 ;&st7;  " d=" M   316.57,   367.22  L   312.32,   367.22  "/>
		<path style="stroke-width: 1.42 ;&st7;  " d=" M   316.57,   375.72  L   312.32,   375.72  "/>
		<path style="stroke-width: 1.42 ;&st7;   " d=" M   337.82,   273.74  C   335.47    273.74    333.57    275.64    333.57    277.99  "/>
		<path style="stroke-width: 1.42 ;&st7;   " d=" M   346.32,   277.99  C   346.32    275.64    344.41    273.74    342.07    273.74  "/>
		<path style="stroke-width: 1.42 ;&st7;   " d=" M   342.07,   282.24  C   344.41    282.24    346.32    280.34    346.32    277.99  "/>
		<path style="stroke-width: 1.42 ;&st7;   " d=" M   333.57,   277.99  C   333.57    280.34    335.47    282.24    337.82    282.24  "/>
		<path style="stroke-width: 1.42 ;&st7;   " d=" M   312.32,   273.74  C   309.98    273.74    308.07    275.64    308.07    277.99  "/>
		<path style="stroke-width: 1.42 ;&st7;   " d=" M   308.07,   277.99  C   308.07    280.34    309.98    282.24    312.32    282.24  "/>
		<path style="stroke-width: 1.42 ;&st7;   " d=" M   316.57,   282.24  C   318.92    282.24    320.82    280.34    320.82    277.99  "/>
		<path style="stroke-width: 1.42 ;&st7;   " d=" M   320.82,   277.99  C   320.82    275.64    318.92    273.74    316.57    273.74  "/>
		<path style="stroke-width: 1.42 ;&st7;   " d=" M   337.82,   367.22  C   335.47    367.22    333.57    369.13    333.57    371.47  "/>
		<path style="stroke-width: 1.42 ;&st7;   " d=" M   333.57,   371.47  C   333.57    373.82    335.47    375.72    337.82    375.72  "/>
		<path style="stroke-width: 1.42 ;&st7;   " d=" M   342.07,   375.72  C   344.41    375.72    346.32    373.82    346.32    371.47  "/>
		<path style="stroke-width: 1.42 ;&st7;   " d=" M   346.32,   371.47  C   346.32    369.13    344.41    367.22    342.07    367.22  "/>
		<path style="stroke-width: 1.42 ;&st7;   " d=" M   312.32,   367.22  C   309.98    367.22    308.07    369.13    308.07    371.47  "/>
		<path style="stroke-width: 1.42 ;&st7;   " d=" M   308.07,   371.47  C   308.07    373.82    309.98    375.72    312.32    375.72  "/>
		<path style="stroke-width: 1.42 ;&st7;   " d=" M   316.57,   375.72  C   318.92    375.72    320.82    373.82    320.82    371.47  "/>
		<path style="stroke-width: 1.42 ;&st7;   " d=" M   320.82,   371.47  C   320.82    369.13    318.92    367.22    316.57    367.22  "/>
		<path style="stroke-width: 0.85 ;&st7;  " d=" M   314.45,   282.24  L   314.45,   307.73  "/>
		<path style="stroke-width: 0.85 ;&st7;  " d=" M   339.94,   282.24  L   339.94,   307.73  "/>
		<path style="stroke-width: 0.85 ;&st7;  " d=" M   314.45,   341.73  L   314.45,   367.22  "/>
		<path style="stroke-width: 0.85 ;&st7;  " d=" M   339.94,   341.73  L   339.94,   367.22  "/>
		<path style="stroke-width: 0.28 ;&st9;  " d=" M   339.94,   287.13  L   342.78,   289.97  L   342.78,   285.72  L   339.94,   282.88  L   337.11,   285.72  L   337.11,   289.97  L   339.94,   287.13  "/>
		<path style="stroke-width: 0.28 ;&st9;  " d=" M   314.45,   287.13  L   317.28,   289.97  L   317.28,   285.72  L   314.45,   282.88  L   311.61,   285.72  L   311.61,   289.97  L   314.45,   287.13  "/>
		<path style="stroke-width: 0.28 ;&st9;  " d=" M   339.94,   362.33  L   337.11,   359.50  L   337.11,   363.75  L   339.94,   366.58  L   342.78,   363.75  L   342.78,   359.50  L   339.94,   362.33  "/>
		<path style="stroke-width: 0.28 ;&st9;  " d=" M   314.45,   362.33  L   311.61,   359.50  L   311.61,   363.75  L   314.45,   366.58  L   317.28,   363.75  L   317.28,   359.50  L   314.45,   362.33  "/>
		<text style="&st18;" transform="matrix(&st16;  333.6  349.92 )">2</text>
		<text style="&st18;" transform="matrix(&st16;  333.6  304.04 )">1</text>
		<text style="&st18;" transform="matrix(&st16;  308.11  349.92 )">3</text>
		<text style="&st18;" transform="matrix(&st16;  308.11  304.04 )">5</text>
		<text style="&st18;" transform="matrix(&st17;  356.08  336.81 )" ewd:textID="8">ST Relay</text>
		<text style="&st18;" transform="matrix(&st16;  338.07  279.96 )">1</text>
		<text style="&st18;" transform="matrix(&st16;  312.57  279.96 )">1</text>
		<text style="&st18;" transform="matrix(&st16;  338.07  373.44 )">1</text>
		<text style="&st18;" transform="matrix(&st16;  312.57  373.44 )">1</text>
		<path style="stroke-width: 1.42 ;&st7;  " d=" M   314.45,   334.65  L   308.78,   311.98  "/>
		<path style="stroke-width: 0.85 ;&st7;  " d=" M   314.45,   341.73  L   314.45,   337.48  "/>
		<path style="stroke-width: 0.85 ;&st7;  " d=" M   314.45,   311.98  L   314.45,   307.73  "/>
		<path style="stroke-width: 0.85 ;&st7;  " d=" M   339.94,   307.73  L   339.94,   316.23  "/>
		<path style="stroke-width: 0.85 ;&st7;  " d=" M   339.94,   333.23  L   339.94,   341.73  "/>
		<path style="stroke-width: 0.85 ;&st7;   " d=" M   315.86,   336.06  C   315.86    335.28    315.23    334.65    314.45    334.65  "/>
		<path style="stroke-width: 0.85 ;&st7;   " d=" M   314.45,   334.65  C   313.67    334.65    313.03    335.28    313.03    336.06  "/>
		<path style="stroke-width: 0.85 ;&st7;   " d=" M   313.03,   336.06  C   313.03    336.84    313.67    337.48    314.45    337.48  "/>
		<path style="stroke-width: 0.85 ;&st7;   " d=" M   314.45,   337.48  C   315.23    337.48    315.86    336.84    315.86    336.06  "/>
		<path style="stroke-width: 0.85 ;&st7;   " d=" M   315.86,   313.40  C   315.86    312.62    315.23    311.98    314.45    311.98  "/>
		<path style="stroke-width: 0.85 ;&st7;   " d=" M   314.45,   311.98  C   313.67    311.98    313.03    312.62    313.03    313.40  "/>
		<path style="stroke-width: 0.85 ;&st7;   " d=" M   313.03,   313.40  C   313.03    314.18    313.67    314.82    314.45    314.82  "/>
		<path style="stroke-width: 0.85 ;&st7;   " d=" M   314.45,   314.82  C   315.23    314.82    315.86    314.18    315.86    313.40  "/>
		<path style="stroke-width: 0.85 ;&st7;   " d=" M   337.41,   322.25  C   338.78    323.65    341.02    323.67    342.42    322.30  "/>
		<path style="stroke-width: 0.85 ;&st7;   " d=" M   342.42,   322.30  C   343.82    320.93    343.84    318.69    342.47    317.29  "/>
		<path style="stroke-width: 0.85 ;&st7;   " d=" M   342.47,   317.29  C   341.78    316.59    340.93    316.23    339.94    316.23  "/>
		<path style="stroke-width: 0.85 ;&st7;   " d=" M   337.41,   327.21  C   338.78    328.61    341.02    328.63    342.42    327.26  "/>
		<path style="stroke-width: 0.85 ;&st7;   " d=" M   342.42,   327.26  C   343.82    325.89    343.84    323.65    342.47    322.25  "/>
		<path style="stroke-width: 0.85 ;&st7;   " d=" M   342.47,   322.25  C   341.10    320.86    338.86    320.83    337.46    322.20  "/>
		<path style="stroke-width: 0.85 ;&st7;   " d=" M   337.46,   322.20  C   337.45    322.22    337.43    322.23    337.41    322.25  "/>
		<path style="stroke-width: 0.85 ;&st7;   " d=" M   339.94,   333.23  C   341.90    333.23    343.48    331.64    343.48    329.69  "/>
		<path style="stroke-width: 0.85 ;&st7;   " d=" M   343.48,   329.69  C   343.48    327.73    341.90    326.15    339.94    326.15  "/>
		<path style="stroke-width: 0.85 ;&st7;   " d=" M   339.94,   326.15  C   338.95    326.15    338.11    326.50    337.41    327.21  "/>
		<path style="stroke-width: 1.42 ;&st7;  " d=" M   348.44,   307.73  L   305.95,   307.73  L   305.95,   341.73  L   348.44,   341.73  L   348.44,   307.73  "/>
	</g>
	<g ewd:code="A22" ewd:figID="4" ewd:comment="1,2" ewd:figtype="conn">
		<path style="stroke-width: 1.42 ;&st7;  " d=" M   441.93,   528.70  L   441.93,   545.69  L   458.92,   545.69  L   458.92,   528.70  L   441.93,   528.70  "/>
		<path style="stroke-width: 0.85 ;&st7;  " d=" M   450.42,   545.69  L   450.42,   528.70  "/>
		<text style="&st18;" transform="matrix(&st16;  440.94  526.13 )">1</text>
		<path style="stroke-width: 1.42 ;&st7;   " d=" M   454.96,   524.16  C   454.96    521.66    452.93    519.63    450.42    519.63  "/>
		<path style="stroke-width: 1.42 ;&st7;   " d=" M   450.42,   519.63  C   447.92    519.63    445.89    521.66    445.89    524.16  "/>
		<path style="stroke-width: 1.42 ;&st7;   " d=" M   445.89,   524.16  C   445.89    526.67    447.92    528.70    450.42    528.70  "/>
		<path style="stroke-width: 1.42 ;&st7;   " d=" M   450.42,   528.70  C   452.93    528.70    454.96    526.67    454.96    524.16  "/>
		<text style="&st18;" transform="matrix(&st16;  448.16  526.13 )">A</text>
		<text style="&st18;" transform="matrix(&st16;  440.94  552.2 )">2</text>
		<text style="&st18;" transform="matrix(&st16;  440.94  561.26 )">3</text>
		<path style="stroke-width: 1.42 ;&st7;   " d=" M   454.96,   559.29  C   454.96    556.79    452.93    554.76    450.42    554.76  "/>
		<path style="stroke-width: 1.42 ;&st7;   " d=" M   450.42,   554.76  C   447.92    554.76    445.89    556.79    445.89    559.29  "/>
		<path style="stroke-width: 1.42 ;&st7;   " d=" M   445.89,   559.29  C   445.89    561.80    447.92    563.82    450.42    563.82  "/>
		<path style="stroke-width: 1.42 ;&st7;   " d=" M   450.42,   563.82  C   452.93    563.82    454.96    561.80    454.96    559.29  "/>
		<text style="&st18;" transform="matrix(&st16;  448.16  552.2 )">A</text>
		<path style="stroke-width: 1.42 ;&st7;   " d=" M   454.96,   550.23  C   454.96    547.72    452.93    545.69    450.42    545.69  "/>
		<path style="stroke-width: 1.42 ;&st7;   " d=" M   450.42,   545.69  C   447.92    545.69    445.89    547.72    445.89    550.23  "/>
		<path style="stroke-width: 1.42 ;&st7;   " d=" M   445.89,   550.23  C   445.89    552.73    447.92    554.76    450.42    554.76  "/>
		<path style="stroke-width: 1.42 ;&st7;   " d=" M   450.42,   554.76  C   452.93    554.76    454.96    552.73    454.96    550.23  "/>
		<text style="&st18;" transform="matrix(&st16;  448.16  561.26 )">A</text>
		<g ewd:figtype="title">
			<text style="&st18;" transform="matrix(&st17;  432.28  548.6 )" ewd:textID="4">No. 1 Junction <tspan x="0 " dy="6.0">Connector</tspan></text>
			<text style="&st18;" transform="matrix(&st17;  425.46  548.59 )">A22(A)</text>
		</g>
		<g ewd:code="" ewd:figID="38" ewd:comment="2" ewd:figtype="commref">
			<text style="&st18;" transform="matrix(&st16;  455.52  561.26 )">(*2)</text>
		</g>
		<g ewd:code="" ewd:figID="39" ewd:comment="1" ewd:figtype="commref">
			<text style="&st18;" transform="matrix(&st16;  455.52  552.2 )">(*1)</text>
		</g>
	</g>
	<g ewd:figtype="conn" ewd:figID="5" ewd:code="D2,D3,D6,D7">
		<g ewd:lineID="4">
			<text style="&st18;" transform="matrix(&st16;  236.98  611.12 )">1</text>
			<text style="&st18;" transform="matrix(&st16;  236.98  602.05 )">1</text>
			<path style="stroke-width: 1.42 ;&st7;   " d=" M   250.99,   609.15  C   250.99    606.65    248.96    604.62    246.46    604.62  "/>
			<path style="stroke-width: 1.42 ;&st7;   " d=" M   246.46,   604.62  C   243.96    604.62    241.93    606.65    241.93    609.15  "/>
			<path style="stroke-width: 1.42 ;&st7;   " d=" M   241.93,   609.15  C   241.93    611.65    243.96    613.68    246.46    613.68  "/>
			<path style="stroke-width: 1.42 ;&st7;   " d=" M   246.46,   613.68  C   248.96    613.68    250.99    611.65    250.99    609.15  "/>
			<path style="stroke-width: 1.42 ;&st7;   " d=" M   250.99,   600.09  C   250.99    597.58    248.96    595.55    246.46    595.55  "/>
			<path style="stroke-width: 1.42 ;&st7;   " d=" M   246.46,   595.55  C   243.96    595.55    241.93    597.58    241.93    600.09  "/>
			<path style="stroke-width: 1.42 ;&st7;   " d=" M   241.93,   600.09  C   241.93    602.59    243.96    604.62    246.46    604.62  "/>
			<path style="stroke-width: 1.42 ;&st7;   " d=" M   246.46,   604.62  C   248.96    604.62    250.99    602.59    250.99    600.09  "/>
			<text style="&st18;" transform="matrix(&st16;  244.04  611.12 )">D</text>
			<text style="&st18;" transform="matrix(&st16;  244.19  602.05 )">B</text>
			<text style="&st18;" transform="matrix(&st16;  244.19  621.32 )">B</text>
		</g>
		<g ewd:lineID="5,8">
			<text style="&st18;" transform="matrix(&st16;  304.97  602.05 )">1</text>
			<text style="&st18;" transform="matrix(&st16;  304.97  611.12 )">1</text>
			<path style="stroke-width: 1.42 ;&st7;   " d=" M   318.98,   600.09  C   318.98    597.58    316.95    595.55    314.45    595.55  "/>
			<path style="stroke-width: 1.42 ;&st7;   " d=" M   314.45,   595.55  C   311.94    595.55    309.91    597.58    309.91    600.09  "/>
			<path style="stroke-width: 1.42 ;&st7;   " d=" M   309.91,   600.09  C   309.91    602.59    311.94    604.62    314.45    604.62  "/>
			<path style="stroke-width: 1.42 ;&st7;   " d=" M   314.45,   604.62  C   316.95    604.62    318.98    602.59    318.98    600.09  "/>
			<path style="stroke-width: 1.42 ;&st7;   " d=" M   318.98,   609.15  C   318.98    606.65    316.95    604.62    314.45    604.62  "/>
			<path style="stroke-width: 1.42 ;&st7;   " d=" M   314.45,   604.62  C   311.94    604.62    309.91    606.65    309.91    609.15  "/>
			<path style="stroke-width: 1.42 ;&st7;   " d=" M   309.91,   609.15  C   309.91    611.65    311.94    613.68    314.45    613.68  "/>
			<path style="stroke-width: 1.42 ;&st7;   " d=" M   314.45,   613.68  C   316.95    613.68    318.98    611.65    318.98    609.15  "/>
			<text style="&st18;" transform="matrix(&st16;  312.03  611.12 )">C</text>
			<text style="&st18;" transform="matrix(&st16;  312.18  602.05 )">A</text>
			<text style="&st18;" transform="matrix(&st16;  310.36  621.32 )">ST</text>
		</g>
		<path style="stroke-width: 0.85 ;&st7; stroke-dasharray:3, 1.5;" d=" M   254.96,   600.09  L   301.70,   600.09  "/>
		<path style="stroke-width: 0.85 ;&st7; stroke-dasharray:3, 1.5;" d=" M   254.96,   609.15  L   301.70,   609.15  "/>
		<path style="stroke-width: 1.42 ;&st7;  " d=" M   229.46,   647.68  L   331.44,   647.68  L   331.44,   613.68  L   229.46,   613.68  L   229.46,   647.68  "/>
		<g ewd:figtype="title">
			<text style="&st18;" transform="matrix(&st16;  333.7  639.73 )" ewd:textID="9">Starter Assembly</text>
			<text style="&st18;" transform="matrix(&st16;  333.7  632.91 )">D2(A),D3(B),D6(C),D7(D)</text>
		</g>
	</g>
	<g ewd:figtype="conn" ewd:figID="6" ewd:code="A36,D8,D9">
		<path style="stroke-width: 0.85 ;&st7;  " d=" M   127.48,   520.20  L   144.48,   520.20  "/>
		<path style="stroke-width: 0.85 ;&st7;  " d=" M   127.48,   540.03  L   144.48,   540.03  "/>
		<path style="stroke-width: 0.85 ;&st7;  " d=" M   135.98,   520.20  L   135.98,   503.20  "/>
		<path style="stroke-width: 0.85 ;&st7;  " d=" M   135.98,   525.86  L   135.98,   528.70  "/>
		<path style="stroke-width: 0.85 ;&st7;  " d=" M   135.98,   531.53  L   135.98,   534.36  "/>
		<path style="stroke-width: 0.85 ;&st7;  " d=" M   135.98,   537.20  L   135.98,   540.03  "/>
		<path style="stroke-width: 0.85 ;&st7;  " d=" M   135.98,   545.69  L   135.98,   562.69  "/>
		<path style="stroke-width: 1.42 ;&st7;  " d=" M   140.23,   525.86  L   131.73,   525.86  L   131.73,   524.45  L   140.23,   524.45  L   140.23,   525.86  "/>
		<path style="stroke-width: 1.42 ;&st7;  " d=" M   140.23,   545.69  L   140.23,   544.28  L   131.73,   544.28  L   131.73,   545.69  L   140.23,   545.69  "/>
		<path style="stroke-width: 1.42 ;&st7;  " d=" M    93.48,   503.20  L   152.97,   503.20  L   152.97,   562.69  L    93.48,   562.69  L    93.48,   503.20  "/>
		<path style="stroke-width: 0.85 ;&st7;  " d=" M   135.98,   554.19  L   101.98,   554.19  L   101.98,   562.69  "/>
		<path style="stroke-width: 0.85 ;&st7;  " d=" M   134.78,   553.19  L   134.51,   553.66  L   134.42,   554.19  L   134.51,   554.73  L   134.78,   555.20  L   135.20,   555.54  L   135.71,   555.73  L   136.25,   555.73  L   136.76,   555.54  L   137.17,   555.20  L   137.44,   554.73  L   137.54,   554.19  L   137.44,   553.66  L   137.17,   553.19  L   136.76,   552.84  L   136.25,   552.66  L   135.71,   552.66  L   135.20,   552.84  L   134.78,   553.19  L   135.18,   553.90  L   135.18,   554.48  L   135.55,   554.93  L   136.12,   555.03  L   136.63,   554.74  L   136.83,   554.19  L   136.63,   553.65  L   136.12,   553.36  L   135.55,   553.46  L   135.98,   554.19  "/>
		<text style="&st18;" transform="matrix(&st16;  92.5  569.19 )">1</text>
		<text style="&st18;" transform="matrix(&st16;  99.56  569.19 )">D</text>
		<path style="stroke-width: 1.42 ;&st7;   " d=" M   106.52,   567.22  C   106.52    564.72    104.49    562.69    101.98    562.69  "/>
		<path style="stroke-width: 1.42 ;&st7;   " d=" M   101.98,   562.69  C    99.48    562.69     97.45    564.72     97.45    567.22  "/>
		<path style="stroke-width: 1.42 ;&st7;   " d=" M    97.45,   567.22  C    97.45    569.73     99.48    571.76    101.98    571.76  "/>
		<path style="stroke-width: 1.42 ;&st7;   " d=" M   101.98,   571.76  C   104.49    571.76    106.52    569.73    106.52    567.22  "/>
		<text style="&st18;" transform="matrix(&st16;  126.5  569.19 )">1</text>
		<text style="&st18;" transform="matrix(&st16;  133.71  569.19 )">B</text>
		<path style="stroke-width: 1.42 ;&st7;   " d=" M   140.51,   567.22  C   140.51    564.72    138.48    562.69    135.98    562.69  "/>
		<path style="stroke-width: 1.42 ;&st7;   " d=" M   135.98,   562.69  C   133.47    562.69    131.44    564.72    131.44    567.22  "/>
		<path style="stroke-width: 1.42 ;&st7;   " d=" M   131.44,   567.22  C   131.44    569.73    133.47    571.76    135.98    571.76  "/>
		<path style="stroke-width: 1.42 ;&st7;   " d=" M   135.98,   571.76  C   138.48    571.76    140.51    569.73    140.51    567.22  "/>
		<text style="&st18;" transform="matrix(&st16;  126.5  500.64 )">1</text>
		<path style="stroke-width: 1.42 ;&st7;   " d=" M   140.51,   498.67  C   140.51    496.17    138.48    494.14    135.98    494.14  "/>
		<path style="stroke-width: 1.42 ;&st7;   " d=" M   135.98,   494.14  C   133.47    494.14    131.44    496.17    131.44    498.67  "/>
		<path style="stroke-width: 1.42 ;&st7;   " d=" M   131.44,   498.67  C   131.44    501.17    133.47    503.20    135.98    503.20  "/>
		<path style="stroke-width: 1.42 ;&st7;   " d=" M   135.98,   503.20  C   138.48    503.20    140.51    501.17    140.51    498.67  "/>
		<text style="&st18;" transform="matrix(&st16;  133.56  500.64 )">C</text>
		<g ewd:figtype="title">
			<text style="&st18;" transform="matrix(&st17;  167.69  565.6 )" ewd:textID="3">Battery (Main)</text>
			<text style="&st18;" transform="matrix(&st17;  160.87  565.59 )">A36(B),D8(C),D9(D)</text>
		</g>
	</g>
	<g ewd:figtype="conn" ewd:figID="7" ewd:code="A29,I84">
		<g ewd:lineID="19,20,21">
			<text style="&st18;" transform="matrix(&st16;  675.57  330.1 )">48</text>
			<text style="&st18;" transform="matrix(&st16;  675.57  339.16 )">48</text>
			<path style="stroke-width: 1.42 ;&st7;   " d=" M   692.92,   328.13  C   692.92    325.63    690.89    323.60    688.38    323.60  "/>
			<path style="stroke-width: 1.42 ;&st7;   " d=" M   688.38,   323.60  C   685.88    323.60    683.85    325.63    683.85    328.13  "/>
			<path style="stroke-width: 1.42 ;&st7;   " d=" M   683.85,   328.13  C   683.85    330.63    685.88    332.66    688.38    332.66  "/>
			<path style="stroke-width: 1.42 ;&st7;   " d=" M   688.38,   332.66  C   690.89    332.66    692.92    330.63    692.92    328.13  "/>
			<text style="&st18;" transform="matrix(&st16;  685.96  330.1 )">C</text>
			<path style="stroke-width: 1.42 ;&st7;   " d=" M   692.92,   337.20  C   692.92    334.69    690.89    332.66    688.38    332.66  "/>
			<path style="stroke-width: 1.42 ;&st7;   " d=" M   688.38,   332.66  C   685.88    332.66    683.85    334.69    683.85    337.20  "/>
			<path style="stroke-width: 1.42 ;&st7;   " d=" M   683.85,   337.20  C   683.85    339.70    685.88    341.73    688.38    341.73  "/>
			<path style="stroke-width: 1.42 ;&st7;   " d=" M   688.38,   341.73  C   690.89    341.73    692.92    339.70    692.92    337.20  "/>
			<text style="&st18;" transform="matrix(&st16;  686.12  339.16 )">A</text>
			<text style="&st18;" transform="matrix(&st16;  682.28  349.36 )">STA</text>
			<g ewd:code="" ewd:figID="41" ewd:comment="" ewd:figtype="commref">
				<text style="&st18;" transform="matrix(&st16;  693.48  330.1 )">(LHD)</text>
			</g>
			<g ewd:code="" ewd:figID="42" ewd:comment="" ewd:figtype="commref">
				<text style="&st18;" transform="matrix(&st16;  693.48  339.16 )">(RHD)</text>
			</g>
		</g>
		<path style="stroke-width: 1.42 ;&st7;  " d=" M   671.39,   341.73  L   671.39,   375.72  L   705.38,   375.72  L   705.38,   341.73  L   671.39,   341.73  "/>
		<g ewd:figtype="title">
			<text style="&st18;" transform="matrix(&st16;  667.98  390.44 )">ECM</text>
			<text style="&st18;" transform="matrix(&st16;  667.98  383.62 )">A29(A),I84(C)</text>
		</g>
	</g>
	<g ewd:figtype="conn" ewd:figID="8" ewd:code="I59,I70">
		<path style="stroke-width: 0.85 ;&st7; stroke-dasharray:3, 1.5;" d=" M   594.90,   108.87  L   675.64,   108.87  "/>
		<path style="stroke-width: 0.85 ;&st7; stroke-dasharray:3, 1.5;" d=" M   696.88,   108.87  L   760.62,   108.87  "/>
		<path style="stroke-width: 0.85 ;&st7; stroke-dasharray:3, 1.5;" d=" M   696.88,    99.80  L   756.37,    99.80  "/>
		<path style="stroke-width: 0.85 ;&st7; stroke-dasharray:3, 1.5;" d=" M   594.90,    99.80  L   675.64,    99.80  "/>
		<path style="stroke-width: 1.42 ;&st7;  " d=" M   577.90,    78.27  L   577.90,    95.27  L   781.87,    95.27  L   781.87,    78.27  L   577.90,    78.27  "/>
		<path style="stroke-width: 0.85 ;&st7;  " d=" M   586.40,    95.27  L   586.40,    86.77  L   773.37,    86.77  L   773.37,    95.27  "/>
		<path style="stroke-width: 0.85 ;&st7;  " d=" M   688.38,    86.77  L   688.38,    95.27  "/>
		<path style="stroke-width: 0.85 ;&st7;  " d=" M   687.19,    85.77  L   686.92,    86.24  L   686.83,    86.77  L   686.92,    87.30  L   687.19,    87.77  L   687.61,    88.12  L   688.11,    88.31  L   688.66,    88.31  L   689.16,    88.12  L   689.58,    87.77  L   689.85,    87.30  L   689.94,    86.77  L   689.85,    86.24  L   689.58,    85.77  L   689.16,    85.42  L   688.66,    85.24  L   688.11,    85.24  L   687.61,    85.42  L   687.19,    85.77  L   687.59,    86.48  L   687.59,    87.06  L   687.96,    87.51  L   688.53,    87.61  L   689.04,    87.32  L   689.23,    86.77  L   689.04,    86.22  L   688.53,    85.94  L   687.96,    86.03  L   688.38,    86.77  "/>
		<text style="&st18;" transform="matrix(&st16;  576.92  110.84 )">1</text>
		<text style="&st18;" transform="matrix(&st16;  576.92  101.77 )">9</text>
		<text style="&st18;" transform="matrix(&st16;  584.14  101.77 )">A</text>
		<path style="stroke-width: 1.42 ;&st7;   " d=" M   590.93,    99.80  C   590.93     97.30    588.91     95.27    586.40     95.27  "/>
		<path style="stroke-width: 1.42 ;&st7;   " d=" M   586.40,    95.27  C   583.90     95.27    581.87     97.30    581.87     99.80  "/>
		<path style="stroke-width: 1.42 ;&st7;   " d=" M   581.87,    99.80  C   581.87    102.31    583.90    104.33    586.40    104.33  "/>
		<path style="stroke-width: 1.42 ;&st7;   " d=" M   586.40,   104.33  C   588.91    104.33    590.93    102.31    590.93     99.80  "/>
		<path style="stroke-width: 1.42 ;&st7;   " d=" M   590.93,   108.87  C   590.93    106.36    588.91    104.33    586.40    104.33  "/>
		<path style="stroke-width: 1.42 ;&st7;   " d=" M   586.40,   104.33  C   583.90    104.33    581.87    106.36    581.87    108.87  "/>
		<path style="stroke-width: 1.42 ;&st7;   " d=" M   581.87,   108.87  C   581.87    111.37    583.90    113.40    586.40    113.40  "/>
		<path style="stroke-width: 1.42 ;&st7;   " d=" M   586.40,   113.40  C   588.91    113.40    590.93    111.37    590.93    108.87  "/>
		<text style="&st18;" transform="matrix(&st16;  584.14  110.84 )">B</text>
		<text style="&st18;" transform="matrix(&st16;  678.9  110.84 )">2</text>
		<text style="&st18;" transform="matrix(&st16;  678.9  101.77 )">8</text>
		<text style="&st18;" transform="matrix(&st16;  686.12  101.77 )">A</text>
		<text style="&st18;" transform="matrix(&st16;  686.12  110.84 )">B</text>
		<path style="stroke-width: 1.42 ;&st7;   " d=" M   692.92,    99.80  C   692.92     97.30    690.89     95.27    688.38     95.27  "/>
		<path style="stroke-width: 1.42 ;&st7;   " d=" M   688.38,    95.27  C   685.88     95.27    683.85     97.30    683.85     99.80  "/>
		<path style="stroke-width: 1.42 ;&st7;   " d=" M   683.85,    99.80  C   683.85    102.31    685.88    104.33    688.38    104.33  "/>
		<path style="stroke-width: 1.42 ;&st7;   " d=" M   688.38,   104.33  C   690.89    104.33    692.92    102.31    692.92     99.80  "/>
		<path style="stroke-width: 1.42 ;&st7;   " d=" M   692.92,   108.87  C   692.92    106.36    690.89    104.33    688.38    104.33  "/>
		<path style="stroke-width: 1.42 ;&st7;   " d=" M   688.38,   104.33  C   685.88    104.33    683.85    106.36    683.85    108.87  "/>
		<path style="stroke-width: 1.42 ;&st7;   " d=" M   683.85,   108.87  C   683.85    111.37    685.88    113.40    688.38    113.40  "/>
		<path style="stroke-width: 1.42 ;&st7;   " d=" M   688.38,   113.40  C   690.89    113.40    692.92    111.37    692.92    108.87  "/>
		<text style="&st18;" transform="matrix(&st16;  763.89  110.84 )">3</text>
		<text style="&st18;" transform="matrix(&st16;  760.56  101.77 )">10</text>
		<path style="stroke-width: 1.42 ;&st7;   " d=" M   777.90,   108.87  C   777.90    106.36    775.87    104.33    773.37    104.33  "/>
		<path style="stroke-width: 1.42 ;&st7;   " d=" M   773.37,   104.33  C   770.87    104.33    768.84    106.36    768.84    108.87  "/>
		<path style="stroke-width: 1.42 ;&st7;   " d=" M   768.84,   108.87  C   768.84    111.37    770.87    113.40    773.37    113.40  "/>
		<path style="stroke-width: 1.42 ;&st7;   " d=" M   773.37,   113.40  C   775.87    113.40    777.90    111.37    777.90    108.87  "/>
		<path style="stroke-width: 1.42 ;&st7;   " d=" M   777.90,    99.80  C   777.90     97.30    775.87     95.27    773.37     95.27  "/>
		<path style="stroke-width: 1.42 ;&st7;   " d=" M   773.37,    95.27  C   770.87     95.27    768.84     97.30    768.84     99.80  "/>
		<path style="stroke-width: 1.42 ;&st7;   " d=" M   768.84,    99.80  C   768.84    102.31    770.87    104.33    773.37    104.33  "/>
		<path style="stroke-width: 1.42 ;&st7;   " d=" M   773.37,   104.33  C   775.87    104.33    777.90    102.31    777.90     99.80  "/>
		<text style="&st18;" transform="matrix(&st16;  771.11  110.84 )">B</text>
		<text style="&st18;" transform="matrix(&st16;  771.11  101.77 )">A</text>
		<g ewd:figtype="title">
			<text style="&st18;" transform="matrix(&st16;  582.99  67.75 )">I59(B)</text>
			<text style="&st18;" transform="matrix(&st16;  583.0  74.58 )" ewd:textID="5">No. 10 Junction Connector</text>
			<text style="&st18;" transform="matrix(&st16;  583.0  60.41 )" ewd:textID="7">No. 19 Junction Connector</text>
			<text style="&st18;" transform="matrix(&st16;  582.99  53.59 )">I70(A)</text>
		</g>
		<g ewd:code="" ewd:figID="26" ewd:comment="" ewd:figtype="commref">
			<text style="&st18;" transform="matrix(&st16;  778.46  101.77 )">(LHD)</text>
		</g>
		<g ewd:code="" ewd:figID="33" ewd:comment="" ewd:figtype="commref">
			<text style="&st18;" transform="matrix(&st16;  778.46  110.84 )">(RHD)</text>
		</g>
	</g>
	<g ewd:figtype="w2w" ewd:figID="12" ewd:code="DA1">
		<path style="stroke-width: 1.42 ;&st7;  " d=" M   276.20,   443.14  L   280.45,   447.39  L   284.70,   443.14  "/>
		<path style="stroke-width: 1.42 ;&st7;  " d=" M   284.70,   446.54  L   280.45,   450.79  L   276.20,   446.54  "/>
		<text style="&st18;" transform="matrix(&st16;  267.04  458.43 )">3</text>
	</g>
	<g ewd:figtype="w2w" ewd:figID="13" ewd:code="CD1">
		<path style="stroke-width: 1.42 ;&st7;  " d=" M   318.70,   520.77  L   314.45,   516.52  L   310.20,   520.77  "/>
		<path style="stroke-width: 1.42 ;&st7;  " d=" M   318.70,   517.37  L   314.45,   513.12  L   310.20,   517.37  "/>
		<text style="&st18;" transform="matrix(&st16;  301.03  509.42 )">1</text>
	</g>
	<g ewd:figtype="w2w" ewd:figID="14" ewd:code="CA4">
		<path style="stroke-width: 1.42 ;&st7;  " d=" M   310.20,   443.14  L   314.45,   447.39  L   318.70,   443.14  "/>
		<path style="stroke-width: 1.42 ;&st7;  " d=" M   318.70,   446.54  L   314.45,   450.79  L   310.20,   446.54  "/>
		<text style="&st18;" transform="matrix(&st16;  301.03  458.43 )">5</text>
	</g>
	<g ewd:code="AI3" ewd:figID="15" ewd:comment="2" ewd:figtype="w2w">
		<text style="&st18;" transform="matrix(&st16;  569.65  203.47 )">34</text>
		<g ewd:code="" ewd:figID="32" ewd:comment="2" ewd:figtype="commref">
			<text style="&st18;" transform="matrix(&st16;  595.43  203.47 )">(*2)</text>
		</g>
	</g>
	<g ewd:code="AI3" ewd:figID="16" ewd:comment="1" ewd:figtype="w2w">
		<path style="stroke-width: 1.42 ;&st7;  " d=" M   582.15,   179.69  L   586.40,   183.94  L   590.65,   179.69  "/>
		<path style="stroke-width: 1.42 ;&st7;  " d=" M   590.65,   183.09  L   586.40,   187.34  L   582.15,   183.09  "/>
		<text style="&st18;" transform="matrix(&st16;  572.98  194.97 )">7</text>
		<g ewd:code="" ewd:figID="31" ewd:comment="1" ewd:figtype="commref">
			<text style="&st18;" transform="matrix(&st16;  595.43  194.97 )">(*1)</text>
		</g>
	</g>
	<g ewd:code="AI3" ewd:figID="17" ewd:comment="1" ewd:figtype="w2w">
		<text style="&st18;" transform="matrix(&st16;  671.63  186.47 )">46</text>
		<g ewd:code="" ewd:figID="34" ewd:comment="1" ewd:figtype="commref">
			<text style="&st18;" transform="matrix(&st16;  697.42  186.47 )">(*1)</text>
		</g>
	</g>
	<g ewd:code="AI3" ewd:figID="18" ewd:comment="2" ewd:figtype="w2w">
		<path style="stroke-width: 1.42 ;&st7;  " d=" M   692.63,   166.09  L   688.38,   170.34  L   684.14,   166.09  "/>
		<path style="stroke-width: 1.42 ;&st7;  " d=" M   684.14,   162.69  L   688.38,   166.94  L   692.63,   162.69  "/>
		<text style="&st18;" transform="matrix(&st16;  671.63  177.98 )">29</text>
		<g ewd:code="" ewd:figID="35" ewd:comment="2" ewd:figtype="commref">
			<text style="&st18;" transform="matrix(&st16;  697.42  177.98 )">(*2)</text>
		</g>
	</g>
	<g ewd:figtype="gp" ewd:figID="19" ewd:code="DA">
		<path style="stroke-width: 0.85 ;&st7;  " d=" M   101.98,   697.25  L   101.98,   701.50  "/>
		<path style="stroke-width: 0.85 ;&st7;  " d=" M    93.48,   701.50  L   110.48,   701.50  "/>
		<path style="stroke-width: 0.85 ;&st7;  " d=" M    97.73,   704.33  L   106.23,   704.33  "/>
		<path style="stroke-width: 0.85 ;&st7;  " d=" M    99.15,   707.17  L   104.82,   707.17  "/>
		<path style="stroke-width: 0.85 ;&st7;  " d=" M   100.57,   710.00  L   103.40,   710.00  "/>
	</g>
	<g ewd:figtype="gp" ewd:figID="20" ewd:code="AC">
		<path style="stroke-width: 0.85 ;&st7;  " d=" M   135.98,   697.25  L   135.98,   701.50  "/>
		<path style="stroke-width: 0.85 ;&st7;  " d=" M   127.48,   701.50  L   144.48,   701.50  "/>
		<path style="stroke-width: 0.85 ;&st7;  " d=" M   131.73,   704.33  L   140.23,   704.33  "/>
		<path style="stroke-width: 0.85 ;&st7;  " d=" M   133.14,   707.17  L   138.81,   707.17  "/>
		<path style="stroke-width: 0.85 ;&st7;  " d=" M   134.56,   710.00  L   137.39,   710.00  "/>
	</g>
	<g ewd:figtype="gp" ewd:figID="21" ewd:code="AA">
		<path style="stroke-width: 0.85 ;&st7;  " d=" M   450.42,   697.25  L   450.42,   701.50  "/>
		<path style="stroke-width: 0.85 ;&st7;  " d=" M   441.93,   701.50  L   458.92,   701.50  "/>
		<path style="stroke-width: 0.85 ;&st7;  " d=" M   446.18,   704.33  L   454.67,   704.33  "/>
		<path style="stroke-width: 0.85 ;&st7;  " d=" M   447.59,   707.17  L   453.26,   707.17  "/>
		<path style="stroke-width: 0.85 ;&st7;  " d=" M   449.01,   710.00  L   451.84,   710.00  "/>
	</g>
	<g ewd:figtype="annex" ewd:figID="40" ewd:code=" ">
		<path style="stroke-width: 0.85 ;&st7;  " d=" M   314.45,   647.68  L   314.45,   659.01  "/>
		<path style="stroke-width: 0.85 ;&st7;  " d=" M   310.20,   661.84  L   318.70,   661.84  "/>
		<path style="stroke-width: 0.85 ;&st7;  " d=" M   311.61,   664.67  L   317.28,   664.67  "/>
		<path style="stroke-width: 0.85 ;&st7;  " d=" M   313.03,   667.51  L   315.86,   667.51  "/>
		<path style="stroke-width: 0.85 ;&st7;  " d=" M   305.95,   659.01  L   322.95,   659.01  "/>
	</g>
	<g ewd:code="" ewd:figID="36" ewd:comment="2" ewd:figtype="commref">
		<text style="&st18;" transform="matrix(&st16;  319.54  611.12 )">(*2)</text>
	</g>
	<g ewd:code="" ewd:figID="37" ewd:comment="1" ewd:figtype="commref">
		<text style="&st18;" transform="matrix(&st16;  319.54  602.05 )">(*1)</text>
	</g>
	<g ewd:code="7" ewd:figID="44" ewd:comment="" ewd:figtype="comment">
		<text style="&st18;" transform="matrix(&st16;  599.99  590.16 )" ewd:textID="2">* 7 :From Sep. 2022 Production</text>
	</g>
	<g ewd:code="6" ewd:figID="43" ewd:comment="" ewd:figtype="comment">
		<text style="&st18;" transform="matrix(&st16;  599.99  581.66 )" ewd:textID="1">* 6 :Before Sep. 2022 Production</text>
	</g>
	<g ewd:code="1" ewd:figID="27" ewd:comment="" ewd:figtype="comment">
		<text style="&st18;" transform="matrix(&st16;  599.99  547.66 )">* 1 :1GR-FE</text>
	</g>
	<g ewd:code="2" ewd:figID="28" ewd:comment="" ewd:figtype="comment">
		<text style="&st18;" transform="matrix(&st16;  599.99  556.16 )">* 2 :1VD-FTV</text>
	</g>
	<g ewd:code="3" ewd:figID="29" ewd:comment="" ewd:figtype="comment">
		<text style="&st18;" transform="matrix(&st16;  599.99  564.66 )">* 3 :LHD 1GR-FE, LHD 1VD-FTV</text>
	</g>
	<g ewd:code="5" ewd:figID="30" ewd:comment="" ewd:figtype="comment">
		<text style="&st18;" transform="matrix(&st16;  599.99  573.16 )">* 5 :RHD 1GR-FE, RHD 1VD-FTV</text>
	</g>
	<path style="stroke-width: 1.42 ;&st7;  " d=" M   577.90,   188.75  L   586.40,   188.75  "/>
	<path style="stroke-width: 1.42 ;&st7;  " d=" M   679.89,   171.76  L   688.38,   171.76  "/>
	<path style="stroke-width: 1.42 ;&st7;  " d=" M   322.95,   511.70  L   314.45,   511.70  "/>
	<path style="stroke-width: 1.42 ;&st7;  " d=" M   271.95,   452.21  L   280.45,   452.21  "/>
	<path style="stroke-width: 1.42 ;&st7;  " d=" M   288.95,   142.73  L   283.98,   137.76  "/>
	<path style="stroke-width: 1.42 ;&st7;  " d=" M   271.95,   149.79  L   276.92,   154.76  "/>
	<path style="stroke-width: 1.42 ;&st7;  " d=" M   283.98,   154.76  L   288.95,   149.79  "/>
	<path style="stroke-width: 1.42 ;&st7;  " d=" M   276.92,   137.76  L   271.95,   142.73  "/>
	<path style="stroke-width: 1.42 ;&st7;  " d=" M   348.44,   219.22  L   343.47,   214.25  "/>
	<path style="stroke-width: 1.42 ;&st7;  " d=" M   331.44,   226.28  L   336.41,   231.25  "/>
	<path style="stroke-width: 1.42 ;&st7;  " d=" M   343.47,   231.25  L   348.44,   226.28  "/>
	<path style="stroke-width: 1.42 ;&st7;  " d=" M   336.41,   214.25  L   331.44,   219.22  "/>
	<text style="&st18;" transform="matrix(&st17;  446.73  487.68 )">W-B</text>
	<text style="&st18;" transform="matrix(&st17;  446.73  610.91 )">W-B</text>
	<text style="&st18;" transform="matrix(&st17;  310.75  423.94 )">B-W</text>
	<text style="&st18;" transform="matrix(&st17;  288.09  422.77 )">(*1)</text>
	<text style="&st18;" transform="matrix(&st17;  276.76  423.94 )">B-W</text>
	<text style="&st18;" transform="matrix(&st17;  582.71  156.23 )">B-W</text>
	<text style="&st18;" transform="matrix(&st17;  696.02  150.82 )">(*5)</text>
	<text style="&st18;" transform="matrix(&st17;  684.69  151.98 )">B-W</text>
	<text style="&st18;" transform="matrix(&st17;  755.51  247.99 )">(*3 *6)</text>
	<text style="&st18;" transform="matrix(&st17;  744.18  245.47 )">B-W</text>
	<text style="&st18;" transform="matrix(&st17;  696.02  244.3 )">(*5)</text>
	<text style="&st18;" transform="matrix(&st17;  276.76  181.63 )">L</text>
	<text style="&st18;" transform="matrix(&st17;  336.25  249.72 )">B-W</text>
	<text style="&st18;" transform="matrix(&st16;  818.14  159.56 )">B-W</text>
	<text style="&st18;" transform="matrix(&st17;  684.69  245.47 )">B-W</text>
	<text style="&st18;" transform="matrix(&st17;  288.09  486.51 )">(*1)</text>
	<text style="&st18;" transform="matrix(&st17;  276.76  483.72 )">B</text>
	<text style="&st18;" transform="matrix(&st17;  322.08  550.25 )">(*2)</text>
	<text style="&st18;" transform="matrix(&st17;  310.75  551.42 )">B-W</text>
	<text style="&st18;" transform="matrix(&st17;  322.08  486.51 )">(*2)</text>
	<text style="&st18;" transform="matrix(&st17;  310.75  487.68 )">B-W</text>
	<text style="&st18;" transform="matrix(&st17;  322.08  422.77 )">(*2)</text>
	<text style="&st18;" transform="matrix(&st17;  276.76  122.14 )">L</text>
	<text style="&st18;" transform="matrix(&st17;  72.79  632.45 )">B</text>
	<text style="&st18;" transform="matrix(&st17;  84.12  635.24 )">(*1)</text>
	<text style="&st18;" transform="matrix(&st17;  98.29  637.91 )">B-DG</text>
	<text style="&st18;" transform="matrix(&st17;  109.62  635.24 )">(*2)</text>
	<text style="&st18;" transform="matrix(&st17;  132.28  637.91 )">B-DG</text>
	<text style="&st18;" transform="matrix(&st17;  347.58  248.55 )">(*1)</text>
	<text style="&st18;" transform="matrix(&st16;  537.69  219.05 )">B-W</text>
	<text style="&st18;" transform="matrix(&st16;  538.85  230.38 )">(*1)</text>
	<text style="&st18;" transform="matrix(&st16;  537.69  253.05 )">B-W</text>
	<text style="&st18;" transform="matrix(&st16;  538.85  264.38 )">(*2)</text>
	<text style="&st18;" transform="matrix(&st16;  486.7  219.05 )">B-W</text>
	<text style="&st18;" transform="matrix(&st16;  487.86  230.38 )">(*1)</text>
	<text style="&st18;" transform="matrix(&st16;  486.7  253.05 )">B-W</text>
	<text style="&st18;" transform="matrix(&st16;  487.86  264.38 )">(*2)</text>
	<text style="&st18;" transform="matrix(&st17;  242.76  547.46 )">B</text>
	<path style="stroke-width: 1.42 ;&st7;  " d=" M   305.95,   452.21  L   314.45,   452.21  "/>
	<text style="&st18;" transform="matrix(&st17;  594.04  155.07 )">(*6)</text>
	<text style="&st18;" transform="matrix(&st16;  819.3  170.89 )">(*6)</text>
	<text style="&st18;" transform="matrix(&st16;  821.17  125.57 )">W</text>
	<text style="&st18;" transform="matrix(&st16;  819.3  136.9 )">(*7)</text>
	<text style="&st18;" transform="matrix(&st17;  650.7  150.0 )">LG</text>
	<text style="&st18;" transform="matrix(&st17;  662.03  154.5 )">(*3 *7)</text>
	<text style="&st18;" transform="matrix(&st17;  557.21  154.25 )">LG</text>
	<text style="&st18;" transform="matrix(&st17;  568.54  155.07 )">(*7)</text>
	<a ewd:figtype="w2w" style="cursor:pointer;" ewd:pinNo="3" ewd:code="DA1" ewd:figID="12">
		<path style="&st2;" d=" M   288.95,   452.21  L   271.95,   452.21  L   271.95,   460.71  L   288.95,   460.71  L   288.95,   452.21 "/>
		<text style="&st8;" transform="matrix(&st16;  274.81  458.58 )"><tspan x="0" style="&st18;" y="0">DA1</tspan></text>
	</a>
	<a ewd:figtype="w2w" style="cursor:pointer;" ewd:pinNo="1" ewd:code="CD1" ewd:figID="13">
		<path style="&st2;" d=" M   322.95,   503.20  L   305.95,   503.20  L   305.95,   511.70  L   322.95,   511.70  L   322.95,   503.20 "/>
		<text style="&st8;" transform="matrix(&st16;  308.62  509.57 )"><tspan x="0" style="&st18;" y="0">CD1</tspan></text>
	</a>
	<a ewd:figtype="w2w" style="cursor:pointer;" ewd:pinNo="5" ewd:code="CA4" ewd:figID="14">
		<path style="&st2;" d=" M   322.95,   452.21  L   305.95,   452.21  L   305.95,   460.71  L   322.95,   460.71  L   322.95,   452.21 "/>
		<text style="&st8;" transform="matrix(&st16;  308.8  458.58 )"><tspan x="0" style="&st18;" y="0">CA4</tspan></text>
	</a>
	<a ewd:figtype="w2w" style="cursor:pointer;" ewd:pinNo="34" ewd:code="AI3" ewd:figID="15">
		<path style="&st2;" d=" M   594.90,   197.25  L   577.90,   197.25  L   577.90,   205.75  L   594.90,   205.75  L   594.90,   197.25 "/>
		<text style="&st8;" transform="matrix(&st16;  582.04  203.62 )"><tspan x="0" style="&st18;" y="0">AI3</tspan></text>
	</a>
	<a ewd:figtype="w2w" style="cursor:pointer;" ewd:pinNo="7" ewd:code="AI3" ewd:figID="16">
		<path style="&st2;" d=" M   594.90,   188.75  L   577.90,   188.75  L   577.90,   197.25  L   594.90,   197.25  L   594.90,   188.75 "/>
		<text style="&st8;" transform="matrix(&st16;  582.04  195.12 )"><tspan x="0" style="&st18;" y="0">AI3</tspan></text>
	</a>
	<a ewd:figtype="w2w" style="cursor:pointer;" ewd:pinNo="46" ewd:code="AI3" ewd:figID="17">
		<path style="&st2;" d=" M   696.88,   180.26  L   679.89,   180.26  L   679.89,   188.75  L   696.88,   188.75  L   696.88,   180.26 "/>
		<text style="&st8;" transform="matrix(&st16;  684.02  186.62 )"><tspan x="0" style="&st18;" y="0">AI3</tspan></text>
	</a>
	<a ewd:figtype="w2w" style="cursor:pointer;" ewd:pinNo="29" ewd:code="AI3" ewd:figID="18">
		<path style="&st2;" d=" M   696.88,   171.76  L   679.89,   171.76  L   679.89,   180.26  L   696.88,   180.26  L   696.88,   171.76 "/>
		<text style="&st8;" transform="matrix(&st16;  684.02  178.13 )"><tspan x="0" style="&st18;" y="0">AI3</tspan></text>
	</a>
	<a ewd:figtype="gp" style="cursor:pointer;" ewd:code="DA" ewd:figID="19">
		<path style="&st2;" d=" M    91.36,   681.67  L   112.61,   681.67  L   101.98,   697.25  L    91.36,   681.67 "/>
		<text style="&st8;" transform="matrix(&st16;  97.92  689.46 )"><tspan x="0" style="&st18;" y="0">DA</tspan></text>
	</a>
	<a ewd:figtype="gp" style="cursor:pointer;" ewd:code="AC" ewd:figID="20">
		<path style="&st2;" d=" M   125.35,   681.67  L   146.60,   681.67  L   135.98,   697.25  L   125.35,   681.67 "/>
		<text style="&st8;" transform="matrix(&st16;  131.91  689.46 )"><tspan x="0" style="&st18;" y="0">AC</tspan></text>
	</a>
	<a ewd:figtype="gp" style="cursor:pointer;" ewd:code="AA" ewd:figID="21">
		<path style="&st2;" d=" M   439.80,   681.67  L   461.05,   681.67  L   450.42,   697.25  L   439.80,   681.67 "/>
		<text style="&st8;" transform="matrix(&st16;  446.51  689.46 )"><tspan x="0" style="&st18;" y="0">AA</tspan></text>
	</a>
	<a ewd:figtype="sp" style="cursor:pointer;" ewd:code="SP4" ewd:figID="22">
		<path style="&st2;" d=" M   276.20,   137.76  L   284.70,   137.76  L   288.95,   142.01  L   288.95,   150.51  L   284.70,   154.76  L   276.20,   154.76  L   271.95,   150.51  L   271.95,   142.01  L   276.20,   137.76 "/>
	</a>
	<a ewd:figtype="sp" style="cursor:pointer;" ewd:code="SP2" ewd:figID="23">
		<path style="&st2;" d=" M   335.69,   214.25  L   344.19,   214.25  L   348.44,   218.50  L   348.44,   227.00  L   344.19,   231.25  L   335.69,   231.25  L   331.44,   227.00  L   331.44,   218.50  L   335.69,   214.25 "/>
	</a>
</g>
</svg>