<?xml version="1.0" encoding="utf-8"?>
<!DOCTYPE svg PUBLIC "-//W3C//DTD SVG 1.0//EN" "http://www.w3.org/TR/2001/REC-SVG-20010904/DTD/svg10.dtd"[
	<!ENTITY ns_flows "http://ns.adobe.com/Flows/1.0/">
	<!ENTITY ns_svg "http://www.w3.org/2000/svg">
	<!ENTITY ns_xlink "http://www.w3.org/1999/xlink">
	<!ENTITY st0 "font-size:7px;font-family:'MS-PGothic';adobe-font-script:japanese;">
	<!ENTITY st1 "font-size:6px;font-family:'ArialMT';">
	<!-- White fill  -->
	<!ENTITY st2 "fill:#FFFFFF;stroke:#000000; stroke-width:1.41;stroke-linecap:round;stroke-linejoin:round;">
	<!-- Yellow fill  -->
	<!ENTITY st3 "fill:#FFFFCC;stroke:#FFFFCC; stroke-width:0.1;stroke-linecap:round;stroke-linejoin:round;">
	<!-- Gray fill  -->
	<!ENTITY st4 "fill:#CCCCCC;stroke:#CCCCCC; stroke-width:0.1;stroke-linecap:round;stroke-linejoin:round;">
	<!-- Light-blue fill -->
	<!ENTITY st5 "fill:#CCECF4;stroke:#000000; stroke-width:1.133;stroke-linecap:round;stroke-linejoin:round;">
	<!ENTITY st6 "fill:none;stroke-linecap:butt; stroke-linejoin:round;">
	<!ENTITY st7 "fill:none;stroke:#000000;stroke-linecap:round;stroke-linejoin:round;">
	<!ENTITY st8 "enable-background:new    ;">
	<!-- Black fill -->
	<!ENTITY st9 "fill:#000000;stroke:#000000; stroke-linecap:round;stroke-linejoin:round;">
	<!-- SRS note   -->
	<!ENTITY st10 "font-size:9px;font-family:'ArialMT';">
	<!ENTITY st11 "font-size:9px;font-family:'Svg Symbol';">
	<!ENTITY st12 "font-size:6px;font-family:'Svg Symbol';">
	<!ENTITY st13 "fill:none;stroke:#ff0000;stroke-linecap:round;stroke-linejoin:round;">
	<!-- Yellow fill  -->
	<!ENTITY st14 "fill:#FFFF00;stroke:#FFFF00; stroke-width:0.1;stroke-linecap:round;stroke-linejoin:round;">
	<!ENTITY st15 "font-size:6px;font-family:'MS-PGothic';adobe-font-script:japanese;">
	<!ENTITY st16 "1.00 0.00 0.00 1.00">
	<!ENTITY st17 "0.00 -1.00 1.00 0.00">
	<!ENTITY st18 "font-size:6px;font-family:'Arial';">
	<!ENTITY st19 "font-size:9px;font-family:'Arial';">
	<!ENTITY st20 "font-size:6px;font-family:'MS-PGothic','MS PGothic';adobe-font-script:japanese;">
	<!ENTITY st21 "font-size:7px;font-family:'MS-PGothic','MS PGothic';adobe-font-script:japanese;">
	<!ATTLIST svg
		xmlns:ewd CDATA #FIXED "http://shcl.co.jp/ewd"
		xmlns:a CDATA #FIXED "http://ns.adobe.com/AdobeSVGViewerExtensions/3.0/"
		ewd:ver CDATA #IMPLIED
	>
	<!ATTLIST a
		ewd:lineID CDATA #IMPLIED
		ewd:groupID CDATA #IMPLIED
		ewd:figtype CDATA #IMPLIED
		ewd:code CDATA #IMPLIED
		ewd:figID CDATA #IMPLIED
		ewd:pinNo CDATA #IMPLIED
		ewd:comment CDATA #IMPLIED >
	<!ATTLIST g
		ewd:lineID CDATA #IMPLIED
		ewd:groupID CDATA #IMPLIED
		ewd:figtype CDATA #IMPLIED
		ewd:code CDATA #IMPLIED
		ewd:figID CDATA #IMPLIED
		ewd:pinNo CDATA #IMPLIED
		ewd:comment CDATA #IMPLIED >
	<!ATTLIST text
		ewd:textID CDATA #IMPLIED >
	<!ATTLIST title
		ewd:textID CDATA #IMPLIED >
]>
<!-- Generator: Shintec Hozumi YS   -->
<svg onload="call_execInitLoadProc_svg('system')" style="overflow:visible;  enable-background:new 0 0 912.069 710.000" viewBox="0 0 912.069 710.000" height="710.000" width="912.069" xml:space="preserve" ewd:ver="2.3.1.16" xmlns="&ns_svg;" xmlns:a="http://ns.adobe.com/AdobeSVGViewerExtensions/3.0/" xmlns:ewd="http://shcl.co.jp/ewd" xmlns:xlink="&ns_xlink;">
<path style="stroke-width: 1.42 ;&st7;  " d=" M   322.95,   511.70  L   314.45,   511.70  " /><path style="stroke-width: 1.42 ;&st7;  " d=" M   271.95,   452.21  L   280.45,   452.21  " /><path style="stroke-width: 1.42 ;&st7;  " d=" M   288.95,   142.73  L   283.98,   137.76  " /><path style="stroke-width: 1.42 ;&st7;  " d=" M   271.95,   149.79  L   276.92,   154.76  " /><path style="stroke-width: 1.42 ;&st7;  " d=" M   283.98,   154.76  L   288.95,   149.79  " /><path style="stroke-width: 1.42 ;&st7;  " d=" M   276.92,   137.76  L   271.95,   142.73  " /><path style="stroke-width: 1.42 ;&st7;  " d=" M   348.44,   219.22  L   343.47,   214.25  " /><path style="stroke-width: 1.42 ;&st7;  " d=" M   331.44,   226.28  L   336.41,   231.25  " /><path style="stroke-width: 1.42 ;&st7;  " d=" M   343.47,   231.25  L   348.44,   226.28  " /><path style="stroke-width: 1.42 ;&st7;  " d=" M   336.41,   214.25  L   331.44,   219.22  " /><text style="&st18;" transform="matrix(&st17;  446.73  487.68 )">W-B</text><text style="&st18;" transform="matrix(&st17;  446.73  610.91 )">W-B</text><text style="&st18;" transform="matrix(&st17;  310.75  423.94 )">B-W</text><text style="&st18;" transform="matrix(&st17;  288.09  422.77 )">(*1)</text><text style="&st18;" transform="matrix(&st17;  276.76  423.94 )">B-W</text><text style="&st18;" transform="matrix(&st17;  276.76  181.63 )">L</text><text style="&st18;" transform="matrix(&st17;  336.25  249.72 )">B-W</text><text style="&st18;" transform="matrix(&st17;  288.09  486.51 )">(*1)</text><text style="&st18;" transform="matrix(&st17;  276.76  483.72 )">B</text><text style="&st18;" transform="matrix(&st17;  322.08  550.25 )">(*2)</text><text style="&st18;" transform="matrix(&st17;  310.75  551.42 )">B-W</text><text style="&st18;" transform="matrix(&st17;  322.08  486.51 )">(*2)</text><text style="&st18;" transform="matrix(&st17;  310.75  487.68 )">B-W</text><text style="&st18;" transform="matrix(&st17;  322.08  422.77 )">(*2)</text><text style="&st18;" transform="matrix(&st17;  276.76  122.14 )">L</text><text style="&st18;" transform="matrix(&st17;  72.79  632.45 )">B</text><text style="&st18;" transform="matrix(&st17;  84.12  635.24 )">(*1)</text><text style="&st18;" transform="matrix(&st17;  98.29  637.91 )">B-DG</text><text style="&st18;" transform="matrix(&st17;  109.62  635.24 )">(*2)</text><text style="&st18;" transform="matrix(&st17;  132.28  637.91 )">B-DG</text><text style="&st18;" transform="matrix(&st17;  347.58  248.55 )">(*1)</text><text style="&st18;" transform="matrix(&st16;  486.7  219.05 )">B-W</text><text style="&st18;" transform="matrix(&st16;  487.86  230.38 )">(*1)</text><text style="&st18;" transform="matrix(&st16;  486.7  253.05 )">B-W</text><text style="&st18;" transform="matrix(&st16;  487.86  264.38 )">(*2)</text><text style="&st18;" transform="matrix(&st17;  242.76  547.46 )">B</text><path style="stroke-width: 1.42 ;&st7;  " d=" M   305.95,   452.21  L   314.45,   452.21  " /><g ewd:figtype="rb" ewd:figID="2" ewd:code="FUSE58"><path style="stroke-width: 1.42 ;&st7;  " d=" M   282.58,    95.27  L   278.33,    95.27  " /><path style="stroke-width: 1.42 ;&st7;  " d=" M   282.58,   103.77  L   278.33,   103.77  " /><path style="stroke-width: 0.85 ;&st7;  " d=" M   280.45,    78.27  L   280.45,    95.27  " /><path style="stroke-width: 1.42 ;&st7;   " d=" M   278.33,    95.27  C   275.98     95.27    274.08     97.17    274.08     99.52  " /><path style="stroke-width: 1.42 ;&st7;   " d=" M   274.08,    99.52  C   274.08    101.87    275.98    103.77    278.33    103.77  " /><path style="stroke-width: 1.42 ;&st7;   " d=" M   282.58,   103.77  C   284.92    103.77    286.83    101.87    286.83     99.52  " /><path style="stroke-width: 1.42 ;&st7;   " d=" M   286.83,    99.52  C   286.83     97.17    284.92     95.27    282.58     95.27  " /><path style="stroke-width: 0.28 ;&st9;  " d=" M   280.45,    90.37  L   277.62,    87.54  L   277.62,    91.79  L   280.45,    94.62  L   283.29,    91.79  L   283.29,    87.54  L   280.45,    90.37  " /><text style="&st18;" transform="matrix(&st16;  296.88  56.17 )">50A <tspan x="0 " dy="6.0">AM2</tspan></text><text style="&st18;" transform="matrix(&st16;  278.58  101.49 )">4</text><text style="&st18;" transform="matrix(&st16;  274.11  86.47 )">2</text><text style="&st18;" transform="matrix(&st16;  272.37  32.08 )">(BAT)</text><path style="stroke-width: 0.85 ;&st7;  " d=" M   280.45,    69.77  L   280.45,    78.27  " /><path style="stroke-width: 1.42 ;&st7;   " d=" M   280.45,    47.11  C   277.72     48.72    276.80     52.25    278.42     54.99  " /><path style="stroke-width: 1.42 ;&st7;   " d=" M   278.42,    54.99  C   278.94     55.87    279.57     56.51    280.45     57.03  " /><path style="stroke-width: 1.42 ;&st7;   " d=" M   280.45,    66.94  C   283.19     65.33    284.10     61.80    282.49     59.06  " /><path style="stroke-width: 1.42 ;&st7;   " d=" M   282.49,    59.06  C   281.97     58.18    281.34     57.55    280.45     57.03  " /><path style="stroke-width: 0.85 ;&st7;   " d=" M   281.87,    45.69  C   281.87     44.91    281.24     44.28    280.45     44.28  " /><path style="stroke-width: 0.85 ;&st7;   " d=" M   280.45,    44.28  C   279.67     44.28    279.04     44.91    279.04     45.69  " /><path style="stroke-width: 0.85 ;&st7;   " d=" M   279.04,    45.69  C   279.04     46.48    279.67     47.11    280.45     47.11  " /><path style="stroke-width: 0.85 ;&st7;   " d=" M   280.45,    47.11  C   281.24     47.11    281.87     46.48    281.87     45.69  " /><path style="stroke-width: 0.85 ;&st7;   " d=" M   281.87,    68.36  C   281.87     67.57    281.24     66.94    280.45     66.94  " /><path style="stroke-width: 0.85 ;&st7;   " d=" M   280.45,    66.94  C   279.67     66.94    279.04     67.57    279.04     68.36  " /><path style="stroke-width: 0.85 ;&st7;   " d=" M   279.04,    68.36  C   279.04     69.14    279.67     69.77    280.45     69.77  " /><path style="stroke-width: 0.85 ;&st7;   " d=" M   280.45,    69.77  C   281.24     69.77    281.87     69.14    281.87     68.36  " /><path style="stroke-width: 1.42 ;&st7;  " d=" M   267.71,    35.78  L   267.71,    78.27  L   293.20,    78.27  L   293.20,    35.78  L   267.71,    35.78  " /></g><g ewd:figtype="rb" ewd:figID="3" ewd:code="1"><path style="stroke-width: 1.42 ;&st7;  " d=" M   342.07,   273.74  L   337.82,   273.74  " /><path style="stroke-width: 1.42 ;&st7;  " d=" M   342.07,   282.24  L   337.82,   282.24  " /><path style="stroke-width: 1.42 ;&st7;  " d=" M   316.57,   273.74  L   312.32,   273.74  " /><path style="stroke-width: 1.42 ;&st7;  " d=" M   316.57,   282.24  L   312.32,   282.24  " /><path style="stroke-width: 1.42 ;&st7;  " d=" M   342.07,   367.22  L   337.82,   367.22  " /><path style="stroke-width: 1.42 ;&st7;  " d=" M   342.07,   375.72  L   337.82,   375.72  " /><path style="stroke-width: 1.42 ;&st7;  " d=" M   316.57,   367.22  L   312.32,   367.22  " /><path style="stroke-width: 1.42 ;&st7;  " d=" M   316.57,   375.72  L   312.32,   375.72  " /><path style="stroke-width: 1.42 ;&st7;   " d=" M   337.82,   273.74  C   335.47    273.74    333.57    275.64    333.57    277.99  " /><path style="stroke-width: 1.42 ;&st7;   " d=" M   346.32,   277.99  C   346.32    275.64    344.41    273.74    342.07    273.74  " /><path style="stroke-width: 1.42 ;&st7;   " d=" M   342.07,   282.24  C   344.41    282.24    346.32    280.34    346.32    277.99  " /><path style="stroke-width: 1.42 ;&st7;   " d=" M   333.57,   277.99  C   333.57    280.34    335.47    282.24    337.82    282.24  " /><path style="stroke-width: 1.42 ;&st7;   " d=" M   312.32,   273.74  C   309.98    273.74    308.07    275.64    308.07    277.99  " /><path style="stroke-width: 1.42 ;&st7;   " d=" M   308.07,   277.99  C   308.07    280.34    309.98    282.24    312.32    282.24  " /><path style="stroke-width: 1.42 ;&st7;   " d=" M   316.57,   282.24  C   318.92    282.24    320.82    280.34    320.82    277.99  " /><path style="stroke-width: 1.42 ;&st7;   " d=" M   320.82,   277.99  C   320.82    275.64    318.92    273.74    316.57    273.74  " /><path style="stroke-width: 1.42 ;&st7;   " d=" M   337.82,   367.22  C   335.47    367.22    333.57    369.13    333.57    371.47  " /><path style="stroke-width: 1.42 ;&st7;   " d=" M   333.57,   371.47  C   333.57    373.82    335.47    375.72    337.82    375.72  " /><path style="stroke-width: 1.42 ;&st7;   " d=" M   342.07,   375.72  C   344.41    375.72    346.32    373.82    346.32    371.47  " /><path style="stroke-width: 1.42 ;&st7;   " d=" M   346.32,   371.47  C   346.32    369.13    344.41    367.22    342.07    367.22  " /><path style="stroke-width: 1.42 ;&st7;   " d=" M   312.32,   367.22  C   309.98    367.22    308.07    369.13    308.07    371.47  " /><path style="stroke-width: 1.42 ;&st7;   " d=" M   308.07,   371.47  C   308.07    373.82    309.98    375.72    312.32    375.72  " /><path style="stroke-width: 1.42 ;&st7;   " d=" M   316.57,   375.72  C   318.92    375.72    320.82    373.82    320.82    371.47  " /><path style="stroke-width: 1.42 ;&st7;   " d=" M   320.82,   371.47  C   320.82    369.13    318.92    367.22    316.57    367.22  " /><path style="stroke-width: 0.85 ;&st7;  " d=" M   314.45,   282.24  L   314.45,   307.73  " /><path style="stroke-width: 0.85 ;&st7;  " d=" M   339.94,   282.24  L   339.94,   307.73  " /><path style="stroke-width: 0.85 ;&st7;  " d=" M   314.45,   341.73  L   314.45,   367.22  " /><path style="stroke-width: 0.85 ;&st7;  " d=" M   339.94,   341.73  L   339.94,   367.22  " /><path style="stroke-width: 0.28 ;&st9;  " d=" M   339.94,   287.13  L   342.78,   289.97  L   342.78,   285.72  L   339.94,   282.88  L   337.11,   285.72  L   337.11,   289.97  L   339.94,   287.13  " /><path style="stroke-width: 0.28 ;&st9;  " d=" M   314.45,   287.13  L   317.28,   289.97  L   317.28,   285.72  L   314.45,   282.88  L   311.61,   285.72  L   311.61,   289.97  L   314.45,   287.13  " /><path style="stroke-width: 0.28 ;&st9;  " d=" M   339.94,   362.33  L   337.11,   359.50  L   337.11,   363.75  L   339.94,   366.58  L   342.78,   363.75  L   342.78,   359.50  L   339.94,   362.33  " /><path style="stroke-width: 0.28 ;&st9;  " d=" M   314.45,   362.33  L   311.61,   359.50  L   311.61,   363.75  L   314.45,   366.58  L   317.28,   363.75  L   317.28,   359.50  L   314.45,   362.33  " /><text style="&st18;" transform="matrix(&st16;  333.6  349.92 )">2</text><text style="&st18;" transform="matrix(&st16;  333.6  304.04 )">1</text><text style="&st18;" transform="matrix(&st16;  308.11  349.92 )">3</text><text style="&st18;" transform="matrix(&st16;  308.11  304.04 )">5</text><text style="&st18;" transform="matrix(&st17;  356.08  336.81 )" ewd:textID="8">ST Relay</text><text style="&st18;" transform="matrix(&st16;  338.07  279.96 )">1</text><text style="&st18;" transform="matrix(&st16;  312.57  279.96 )">1</text><text style="&st18;" transform="matrix(&st16;  338.07  373.44 )">1</text><text style="&st18;" transform="matrix(&st16;  312.57  373.44 )">1</text><path style="stroke-width: 1.42 ;&st7;  " d=" M   314.45,   334.65  L   308.78,   311.98  " /><path style="stroke-width: 0.85 ;&st7;  " d=" M   314.45,   341.73  L   314.45,   337.48  " /><path style="stroke-width: 0.85 ;&st7;  " d=" M   314.45,   311.98  L   314.45,   307.73  " /><path style="stroke-width: 0.85 ;&st7;  " d=" M   339.94,   307.73  L   339.94,   316.23  " /><path style="stroke-width: 0.85 ;&st7;  " d=" M   339.94,   333.23  L   339.94,   341.73  " /><path style="stroke-width: 0.85 ;&st7;   " d=" M   315.86,   336.06  C   315.86    335.28    315.23    334.65    314.45    334.65  " /><path style="stroke-width: 0.85 ;&st7;   " d=" M   314.45,   334.65  C   313.67    334.65    313.03    335.28    313.03    336.06  " /><path style="stroke-width: 0.85 ;&st7;   " d=" M   313.03,   336.06  C   313.03    336.84    313.67    337.48    314.45    337.48  " /><path style="stroke-width: 0.85 ;&st7;   " d=" M   314.45,   337.48  C   315.23    337.48    315.86    336.84    315.86    336.06  " /><path style="stroke-width: 0.85 ;&st7;   " d=" M   315.86,   313.40  C   315.86    312.62    315.23    311.98    314.45    311.98  " /><path style="stroke-width: 0.85 ;&st7;   " d=" M   314.45,   311.98  C   313.67    311.98    313.03    312.62    313.03    313.40  " /><path style="stroke-width: 0.85 ;&st7;   " d=" M   313.03,   313.40  C   313.03    314.18    313.67    314.82    314.45    314.82  " /><path style="stroke-width: 0.85 ;&st7;   " d=" M   314.45,   314.82  C   315.23    314.82    315.86    314.18    315.86    313.40  " /><path style="stroke-width: 0.85 ;&st7;   " d=" M   337.41,   322.25  C   338.78    323.65    341.02    323.67    342.42    322.30  " /><path style="stroke-width: 0.85 ;&st7;   " d=" M   342.42,   322.30  C   343.82    320.93    343.84    318.69    342.47    317.29  " /><path style="stroke-width: 0.85 ;&st7;   " d=" M   342.47,   317.29  C   341.78    316.59    340.93    316.23    339.94    316.23  " /><path style="stroke-width: 0.85 ;&st7;   " d=" M   337.41,   327.21  C   338.78    328.61    341.02    328.63    342.42    327.26  " /><path style="stroke-width: 0.85 ;&st7;   " d=" M   342.42,   327.26  C   343.82    325.89    343.84    323.65    342.47    322.25  " /><path style="stroke-width: 0.85 ;&st7;   " d=" M   342.47,   322.25  C   341.10    320.86    338.86    320.83    337.46    322.20  " /><path style="stroke-width: 0.85 ;&st7;   " d=" M   337.46,   322.20  C   337.45    322.22    337.43    322.23    337.41    322.25  " /><path style="stroke-width: 0.85 ;&st7;   " d=" M   339.94,   333.23  C   341.90    333.23    343.48    331.64    343.48    329.69  " /><path style="stroke-width: 0.85 ;&st7;   " d=" M   343.48,   329.69  C   343.48    327.73    341.90    326.15    339.94    326.15  " /><path style="stroke-width: 0.85 ;&st7;   " d=" M   339.94,   326.15  C   338.95    326.15    338.11    326.50    337.41    327.21  " /><path style="stroke-width: 1.42 ;&st7;  " d=" M   348.44,   307.73  L   305.95,   307.73  L   305.95,   341.73  L   348.44,   341.73  L   348.44,   307.73  " /></g><g ewd:code="A22" ewd:figID="4" ewd:comment="1,2" ewd:figtype="conn"><path style="stroke-width: 1.42 ;&st7;  " d=" M   441.93,   528.70  L   441.93,   545.69  L   458.92,   545.69  L   458.92,   528.70  L   441.93,   528.70  " /><path style="stroke-width: 0.85 ;&st7;  " d=" M   450.42,   545.69  L   450.42,   528.70  " /><text style="&st18;" transform="matrix(&st16;  440.94  526.13 )">1</text><path style="stroke-width: 1.42 ;&st7;   " d=" M   454.96,   524.16  C   454.96    521.66    452.93    519.63    450.42    519.63  " /><path style="stroke-width: 1.42 ;&st7;   " d=" M   450.42,   519.63  C   447.92    519.63    445.89    521.66    445.89    524.16  " /><path style="stroke-width: 1.42 ;&st7;   " d=" M   445.89,   524.16  C   445.89    526.67    447.92    528.70    450.42    528.70  " /><path style="stroke-width: 1.42 ;&st7;   " d=" M   450.42,   528.70  C   452.93    528.70    454.96    526.67    454.96    524.16  " /><text style="&st18;" transform="matrix(&st16;  448.16  526.13 )">A</text><text style="&st18;" transform="matrix(&st16;  440.94  552.2 )">2</text><text style="&st18;" transform="matrix(&st16;  440.94  561.26 )">3</text><path style="stroke-width: 1.42 ;&st7;   " d=" M   454.96,   559.29  C   454.96    556.79    452.93    554.76    450.42    554.76  " /><path style="stroke-width: 1.42 ;&st7;   " d=" M   450.42,   554.76  C   447.92    554.76    445.89    556.79    445.89    559.29  " /><path style="stroke-width: 1.42 ;&st7;   " d=" M   445.89,   559.29  C   445.89    561.80    447.92    563.82    450.42    563.82  " /><path style="stroke-width: 1.42 ;&st7;   " d=" M   450.42,   563.82  C   452.93    563.82    454.96    561.80    454.96    559.29  " /><text style="&st18;" transform="matrix(&st16;  448.16  552.2 )">A</text><path style="stroke-width: 1.42 ;&st7;   " d=" M   454.96,   550.23  C   454.96    547.72    452.93    545.69    450.42    545.69  " /><path style="stroke-width: 1.42 ;&st7;   " d=" M   450.42,   545.69  C   447.92    545.69    445.89    547.72    445.89    550.23  " /><path style="stroke-width: 1.42 ;&st7;   " d=" M   445.89,   550.23  C   445.89    552.73    447.92    554.76    450.42    554.76  " /><path style="stroke-width: 1.42 ;&st7;   " d=" M   450.42,   554.76  C   452.93    554.76    454.96    552.73    454.96    550.23  " /><text style="&st18;" transform="matrix(&st16;  448.16  561.26 )">A</text><g ewd:figtype="title"><text style="&st18;" transform="matrix(&st17;  432.28  548.6 )" ewd:textID="4">No. 1 Junction <tspan x="0 " dy="6.0">Connector</tspan></text><text style="&st18;" transform="matrix(&st17;  425.46  548.59 )">A22(A)</text></g><g ewd:code="" ewd:figID="38" ewd:comment="2" ewd:figtype="commref"><text style="&st18;" transform="matrix(&st16;  455.52  561.26 )">(*2)</text></g><g ewd:code="" ewd:figID="39" ewd:comment="1" ewd:figtype="commref"><text style="&st18;" transform="matrix(&st16;  455.52  552.2 )">(*1)</text></g></g><g ewd:figtype="conn" ewd:figID="5" ewd:code="D2,D3,D6,D7"><path style="stroke-width: 0.85 ;&st7; stroke-dasharray:3, 1.5;" d=" M   254.96,   600.09  L   301.70,   600.09  " /><path style="stroke-width: 0.85 ;&st7; stroke-dasharray:3, 1.5;" d=" M   254.96,   609.15  L   301.70,   609.15  " /><path style="stroke-width: 1.42 ;&st7;  " d=" M   229.46,   647.68  L   331.44,   647.68  L   331.44,   613.68  L   229.46,   613.68  L   229.46,   647.68  " /><g ewd:lineID="4"><text style="&st18;" transform="matrix(&st16;  236.98  611.12 )">1</text><text style="&st18;" transform="matrix(&st16;  236.98  602.05 )">1</text><path style="stroke-width: 1.42 ;&st7;   " d=" M   250.99,   609.15  C   250.99    606.65    248.96    604.62    246.46    604.62  " /><path style="stroke-width: 1.42 ;&st7;   " d=" M   246.46,   604.62  C   243.96    604.62    241.93    606.65    241.93    609.15  " /><path style="stroke-width: 1.42 ;&st7;   " d=" M   241.93,   609.15  C   241.93    611.65    243.96    613.68    246.46    613.68  " /><path style="stroke-width: 1.42 ;&st7;   " d=" M   246.46,   613.68  C   248.96    613.68    250.99    611.65    250.99    609.15  " /><path style="stroke-width: 1.42 ;&st7;   " d=" M   250.99,   600.09  C   250.99    597.58    248.96    595.55    246.46    595.55  " /><path style="stroke-width: 1.42 ;&st7;   " d=" M   246.46,   595.55  C   243.96    595.55    241.93    597.58    241.93    600.09  " /><path style="stroke-width: 1.42 ;&st7;   " d=" M   241.93,   600.09  C   241.93    602.59    243.96    604.62    246.46    604.62  " /><path style="stroke-width: 1.42 ;&st7;   " d=" M   246.46,   604.62  C   248.96    604.62    250.99    602.59    250.99    600.09  " /><text style="&st18;" transform="matrix(&st16;  244.04  611.12 )">D</text><text style="&st18;" transform="matrix(&st16;  244.19  602.05 )">B</text><text style="&st18;" transform="matrix(&st16;  244.19  621.32 )">B</text></g><g ewd:lineID="5,8"><text style="&st18;" transform="matrix(&st16;  304.97  602.05 )">1</text><text style="&st18;" transform="matrix(&st16;  304.97  611.12 )">1</text><path style="stroke-width: 1.42 ;&st7;   " d=" M   318.98,   600.09  C   318.98    597.58    316.95    595.55    314.45    595.55  " /><path style="stroke-width: 1.42 ;&st7;   " d=" M   314.45,   595.55  C   311.94    595.55    309.91    597.58    309.91    600.09  " /><path style="stroke-width: 1.42 ;&st7;   " d=" M   309.91,   600.09  C   309.91    602.59    311.94    604.62    314.45    604.62  " /><path style="stroke-width: 1.42 ;&st7;   " d=" M   314.45,   604.62  C   316.95    604.62    318.98    602.59    318.98    600.09  " /><path style="stroke-width: 1.42 ;&st7;   " d=" M   318.98,   609.15  C   318.98    606.65    316.95    604.62    314.45    604.62  " /><path style="stroke-width: 1.42 ;&st7;   " d=" M   314.45,   604.62  C   311.94    604.62    309.91    606.65    309.91    609.15  " /><path style="stroke-width: 1.42 ;&st7;   " d=" M   309.91,   609.15  C   309.91    611.65    311.94    613.68    314.45    613.68  " /><path style="stroke-width: 1.42 ;&st7;   " d=" M   314.45,   613.68  C   316.95    613.68    318.98    611.65    318.98    609.15  " /><text style="&st18;" transform="matrix(&st16;  312.03  611.12 )">C</text><text style="&st18;" transform="matrix(&st16;  312.18  602.05 )">A</text><text style="&st18;" transform="matrix(&st16;  310.36  621.32 )">ST</text></g><g ewd:figtype="title"><text style="&st18;" transform="matrix(&st16;  333.7  639.73 )" ewd:textID="9">Starter Assembly</text><text style="&st18;" transform="matrix(&st16;  333.7  632.91 )">D2(A),D3(B),D6(C),D7(D)</text></g></g><g ewd:figtype="conn" ewd:figID="6" ewd:code="A36,D8,D9"><path style="stroke-width: 0.85 ;&st7;  " d=" M   127.48,   520.20  L   144.48,   520.20  " /><path style="stroke-width: 0.85 ;&st7;  " d=" M   127.48,   540.03  L   144.48,   540.03  " /><path style="stroke-width: 0.85 ;&st7;  " d=" M   135.98,   520.20  L   135.98,   503.20  " /><path style="stroke-width: 0.85 ;&st7;  " d=" M   135.98,   525.86  L   135.98,   528.70  " /><path style="stroke-width: 0.85 ;&st7;  " d=" M   135.98,   531.53  L   135.98,   534.36  " /><path style="stroke-width: 0.85 ;&st7;  " d=" M   135.98,   537.20  L   135.98,   540.03  " /><path style="stroke-width: 0.85 ;&st7;  " d=" M   135.98,   545.69  L   135.98,   562.69  " /><path style="stroke-width: 1.42 ;&st7;  " d=" M   140.23,   525.86  L   131.73,   525.86  L   131.73,   524.45  L   140.23,   524.45  L   140.23,   525.86  " /><path style="stroke-width: 1.42 ;&st7;  " d=" M   140.23,   545.69  L   140.23,   544.28  L   131.73,   544.28  L   131.73,   545.69  L   140.23,   545.69  " /><path style="stroke-width: 1.42 ;&st7;  " d=" M    93.48,   503.20  L   152.97,   503.20  L   152.97,   562.69  L    93.48,   562.69  L    93.48,   503.20  " /><path style="stroke-width: 0.85 ;&st7;  " d=" M   135.98,   554.19  L   101.98,   554.19  L   101.98,   562.69  " /><path style="stroke-width: 0.85 ;&st7;  " d=" M   134.78,   553.19  L   134.51,   553.66  L   134.42,   554.19  L   134.51,   554.73  L   134.78,   555.20  L   135.20,   555.54  L   135.71,   555.73  L   136.25,   555.73  L   136.76,   555.54  L   137.17,   555.20  L   137.44,   554.73  L   137.54,   554.19  L   137.44,   553.66  L   137.17,   553.19  L   136.76,   552.84  L   136.25,   552.66  L   135.71,   552.66  L   135.20,   552.84  L   134.78,   553.19  L   135.18,   553.90  L   135.18,   554.48  L   135.55,   554.93  L   136.12,   555.03  L   136.63,   554.74  L   136.83,   554.19  L   136.63,   553.65  L   136.12,   553.36  L   135.55,   553.46  L   135.98,   554.19  " /><text style="&st18;" transform="matrix(&st16;  92.5  569.19 )">1</text><text style="&st18;" transform="matrix(&st16;  99.56  569.19 )">D</text><path style="stroke-width: 1.42 ;&st7;   " d=" M   106.52,   567.22  C   106.52    564.72    104.49    562.69    101.98    562.69  " /><path style="stroke-width: 1.42 ;&st7;   " d=" M   101.98,   562.69  C    99.48    562.69     97.45    564.72     97.45    567.22  " /><path style="stroke-width: 1.42 ;&st7;   " d=" M    97.45,   567.22  C    97.45    569.73     99.48    571.76    101.98    571.76  " /><path style="stroke-width: 1.42 ;&st7;   " d=" M   101.98,   571.76  C   104.49    571.76    106.52    569.73    106.52    567.22  " /><text style="&st18;" transform="matrix(&st16;  126.5  569.19 )">1</text><text style="&st18;" transform="matrix(&st16;  133.71  569.19 )">B</text><path style="stroke-width: 1.42 ;&st7;   " d=" M   140.51,   567.22  C   140.51    564.72    138.48    562.69    135.98    562.69  " /><path style="stroke-width: 1.42 ;&st7;   " d=" M   135.98,   562.69  C   133.47    562.69    131.44    564.72    131.44    567.22  " /><path style="stroke-width: 1.42 ;&st7;   " d=" M   131.44,   567.22  C   131.44    569.73    133.47    571.76    135.98    571.76  " /><path style="stroke-width: 1.42 ;&st7;   " d=" M   135.98,   571.76  C   138.48    571.76    140.51    569.73    140.51    567.22  " /><text style="&st18;" transform="matrix(&st16;  126.5  500.64 )">1</text><path style="stroke-width: 1.42 ;&st7;   " d=" M   140.51,   498.67  C   140.51    496.17    138.48    494.14    135.98    494.14  " /><path style="stroke-width: 1.42 ;&st7;   " d=" M   135.98,   494.14  C   133.47    494.14    131.44    496.17    131.44    498.67  " /><path style="stroke-width: 1.42 ;&st7;   " d=" M   131.44,   498.67  C   131.44    501.17    133.47    503.20    135.98    503.20  " /><path style="stroke-width: 1.42 ;&st7;   " d=" M   135.98,   503.20  C   138.48    503.20    140.51    501.17    140.51    498.67  " /><text style="&st18;" transform="matrix(&st16;  133.56  500.64 )">C</text><g ewd:figtype="title"><text style="&st18;" transform="matrix(&st17;  167.69  565.6 )" ewd:textID="3">Battery (Main)</text><text style="&st18;" transform="matrix(&st17;  160.87  565.59 )">A36(B),D8(C),D9(D)</text></g></g><g ewd:figtype="w2w" ewd:figID="12" ewd:code="DA1"><path style="stroke-width: 1.42 ;&st7;  " d=" M   276.20,   443.14  L   280.45,   447.39  L   284.70,   443.14  " /><path style="stroke-width: 1.42 ;&st7;  " d=" M   284.70,   446.54  L   280.45,   450.79  L   276.20,   446.54  " /><text style="&st18;" transform="matrix(&st16;  267.04  458.43 )">3</text></g><g ewd:figtype="w2w" ewd:figID="13" ewd:code="CD1"><path style="stroke-width: 1.42 ;&st7;  " d=" M   318.70,   520.77  L   314.45,   516.52  L   310.20,   520.77  " /><path style="stroke-width: 1.42 ;&st7;  " d=" M   318.70,   517.37  L   314.45,   513.12  L   310.20,   517.37  " /><text style="&st18;" transform="matrix(&st16;  301.03  509.42 )">1</text></g><g ewd:figtype="w2w" ewd:figID="14" ewd:code="CA4"><path style="stroke-width: 1.42 ;&st7;  " d=" M   310.20,   443.14  L   314.45,   447.39  L   318.70,   443.14  " /><path style="stroke-width: 1.42 ;&st7;  " d=" M   318.70,   446.54  L   314.45,   450.79  L   310.20,   446.54  " /><text style="&st18;" transform="matrix(&st16;  301.03  458.43 )">5</text></g><g ewd:figtype="gp" ewd:figID="19" ewd:code="DA"><path style="stroke-width: 0.85 ;&st7;  " d=" M   101.98,   697.25  L   101.98,   701.50  " /><path style="stroke-width: 0.85 ;&st7;  " d=" M    93.48,   701.50  L   110.48,   701.50  " /><path style="stroke-width: 0.85 ;&st7;  " d=" M    97.73,   704.33  L   106.23,   704.33  " /><path style="stroke-width: 0.85 ;&st7;  " d=" M    99.15,   707.17  L   104.82,   707.17  " /><path style="stroke-width: 0.85 ;&st7;  " d=" M   100.57,   710.00  L   103.40,   710.00  " /></g><g ewd:figtype="gp" ewd:figID="20" ewd:code="AC"><path style="stroke-width: 0.85 ;&st7;  " d=" M   135.98,   697.25  L   135.98,   701.50  " /><path style="stroke-width: 0.85 ;&st7;  " d=" M   127.48,   701.50  L   144.48,   701.50  " /><path style="stroke-width: 0.85 ;&st7;  " d=" M   131.73,   704.33  L   140.23,   704.33  " /><path style="stroke-width: 0.85 ;&st7;  " d=" M   133.14,   707.17  L   138.81,   707.17  " /><path style="stroke-width: 0.85 ;&st7;  " d=" M   134.56,   710.00  L   137.39,   710.00  " /></g><g ewd:figtype="gp" ewd:figID="21" ewd:code="AA"><path style="stroke-width: 0.85 ;&st7;  " d=" M   450.42,   697.25  L   450.42,   701.50  " /><path style="stroke-width: 0.85 ;&st7;  " d=" M   441.93,   701.50  L   458.92,   701.50  " /><path style="stroke-width: 0.85 ;&st7;  " d=" M   446.18,   704.33  L   454.67,   704.33  " /><path style="stroke-width: 0.85 ;&st7;  " d=" M   447.59,   707.17  L   453.26,   707.17  " /><path style="stroke-width: 0.85 ;&st7;  " d=" M   449.01,   710.00  L   451.84,   710.00  " /></g><g ewd:figtype="annex" ewd:figID="40" ewd:code=" "><path style="stroke-width: 0.85 ;&st7;  " d=" M   314.45,   647.68  L   314.45,   659.01  " /><path style="stroke-width: 0.85 ;&st7;  " d=" M   310.20,   661.84  L   318.70,   661.84  " /><path style="stroke-width: 0.85 ;&st7;  " d=" M   311.61,   664.67  L   317.28,   664.67  " /><path style="stroke-width: 0.85 ;&st7;  " d=" M   313.03,   667.51  L   315.86,   667.51  " /><path style="stroke-width: 0.85 ;&st7;  " d=" M   305.95,   659.01  L   322.95,   659.01  " /></g><g ewd:code="" ewd:figID="36" ewd:comment="2" ewd:figtype="commref"><text style="&st18;" transform="matrix(&st16;  319.54  611.12 )">(*2)</text></g><g ewd:code="" ewd:figID="37" ewd:comment="1" ewd:figtype="commref"><text style="&st18;" transform="matrix(&st16;  319.54  602.05 )">(*1)</text></g></svg>