<?xml version="1.0" encoding="utf-8"?>
<!DOCTYPE svg PUBLIC "-//W3C//DTD SVG 1.0//EN" "http://www.w3.org/TR/2001/REC-SVG-20010904/DTD/svg10.dtd"[
	<!ENTITY ns_flows "http://ns.adobe.com/Flows/1.0/">
	<!ENTITY ns_svg "http://www.w3.org/2000/svg">
	<!ENTITY ns_xlink "http://www.w3.org/1999/xlink">
	<!ENTITY st0 "font-size:7px;font-family:'MS-PGothic';adobe-font-script:japanese;">
	<!ENTITY st1 "font-size:6px;font-family:'ArialMT';">
	<!-- White fill  -->
	<!ENTITY st2 "fill:#FFFFFF;stroke:#000000; stroke-width:1.41;stroke-linecap:round;stroke-linejoin:round;">
	<!-- Yellow fill  -->
	<!ENTITY st3 "fill:#FFFFCC;stroke:#FFFFCC; stroke-width:0.1;stroke-linecap:round;stroke-linejoin:round;">
	<!-- Gray fill  -->
	<!ENTITY st4 "fill:#CCCCCC;stroke:#CCCCCC; stroke-width:0.1;stroke-linecap:round;stroke-linejoin:round;">
	<!-- Light-blue fill -->
	<!ENTITY st5 "fill:#CCECF4;stroke:#000000; stroke-width:1.133;stroke-linecap:round;stroke-linejoin:round;">
	<!ENTITY st6 "fill:none;stroke-linecap:butt; stroke-linejoin:round;">
	<!ENTITY st7 "fill:none;stroke:#000000;stroke-linecap:round;stroke-linejoin:round;">
	<!ENTITY st8 "enable-background:new    ;">
	<!-- Black fill -->
	<!ENTITY st9 "fill:#000000;stroke:#000000; stroke-linecap:round;stroke-linejoin:round;">
	<!-- SRS note   -->
	<!ENTITY st10 "font-size:9px;font-family:'ArialMT';">
	<!ENTITY st11 "font-size:9px;font-family:'Svg Symbol';">
	<!ENTITY st12 "font-size:6px;font-family:'Svg Symbol';">
	<!ENTITY st13 "fill:none;stroke:#ff0000;stroke-linecap:round;stroke-linejoin:round;">
	<!-- Yellow fill  -->
	<!ENTITY st14 "fill:#FFFF00;stroke:#FFFF00; stroke-width:0.1;stroke-linecap:round;stroke-linejoin:round;">
	<!ENTITY st15 "font-size:6px;font-family:'MS-PGothic';adobe-font-script:japanese;">
	<!ENTITY st16 "1.00 0.00 0.00 1.00">
	<!ENTITY st17 "0.00 -1.00 1.00 0.00">
	<!ENTITY st18 "font-size:6px;font-family:'Arial';">
	<!ENTITY st19 "font-size:9px;font-family:'Arial';">
	<!ENTITY st20 "font-size:6px;font-family:'MS-PGothic','MS PGothic';adobe-font-script:japanese;">
	<!ENTITY st21 "font-size:7px;font-family:'MS-PGothic','MS PGothic';adobe-font-script:japanese;">
	<!ATTLIST svg
		xmlns:ewd CDATA #FIXED "http://shcl.co.jp/ewd"
		xmlns:a CDATA #FIXED "http://ns.adobe.com/AdobeSVGViewerExtensions/3.0/"
		ewd:ver CDATA #IMPLIED
	>
	<!ATTLIST a
		ewd:lineID CDATA #IMPLIED
		ewd:groupID CDATA #IMPLIED
		ewd:figtype CDATA #IMPLIED
		ewd:code CDATA #IMPLIED
		ewd:figID CDATA #IMPLIED
		ewd:pinNo CDATA #IMPLIED
		ewd:comment CDATA #IMPLIED >
	<!ATTLIST g
		ewd:lineID CDATA #IMPLIED
		ewd:groupID CDATA #IMPLIED
		ewd:figtype CDATA #IMPLIED
		ewd:code CDATA #IMPLIED
		ewd:figID CDATA #IMPLIED
		ewd:pinNo CDATA #IMPLIED
		ewd:comment CDATA #IMPLIED >
	<!ATTLIST text
		ewd:textID CDATA #IMPLIED >
	<!ATTLIST title
		ewd:textID CDATA #IMPLIED >
]>
<!-- Generator: Shintec Hozumi YS   -->
<svg onload="call_execInitLoadProc_svg('system')" style="overflow:visible;  enable-background:new 0 0 1980.057 710.000" viewBox="0 0 1980.057 710.000" height="710.000" width="1980.057" xml:space="preserve" ewd:ver="2.3.1.16" xmlns="&ns_svg;" xmlns:a="http://ns.adobe.com/AdobeSVGViewerExtensions/3.0/" xmlns:ewd="http://shcl.co.jp/ewd" xmlns:xlink="&ns_xlink;">
<path style="stroke-width: 1.42 ;&st7;  " d=" M   263.46,   270.21  L   258.48,   265.24  " /><path style="stroke-width: 1.42 ;&st7;  " d=" M   110.48,   134.24  L   105.51,   129.26  " /><path style="stroke-width: 1.42 ;&st7;  " d=" M    93.48,   141.29  L    98.45,   146.26  " /><path style="stroke-width: 1.42 ;&st7;  " d=" M   105.51,   146.26  L   110.48,   141.29  " /><path style="stroke-width: 1.42 ;&st7;  " d=" M    98.45,   129.26  L    93.48,   134.24  " /><path style="stroke-width: 1.42 ;&st7;  " d=" M   144.48,   567.66  L   139.50,   562.69  " /><path style="stroke-width: 1.42 ;&st7;  " d=" M   127.48,   574.72  L   132.45,   579.69  " /><path style="stroke-width: 1.42 ;&st7;  " d=" M   139.50,   579.69  L   144.48,   574.72  " /><path style="stroke-width: 1.42 ;&st7;  " d=" M   132.45,   562.69  L   127.48,   567.66  " /><path style="stroke-width: 1.42 ;&st7;  " d=" M   212.46,   610.16  L   207.49,   605.18  " /><path style="stroke-width: 1.42 ;&st7;  " d=" M   195.47,   617.21  L   200.44,   622.18  " /><path style="stroke-width: 1.42 ;&st7;  " d=" M   207.49,   622.18  L   212.46,   617.21  " /><path style="stroke-width: 1.42 ;&st7;  " d=" M   200.44,   605.18  L   195.47,   610.16  " /><path style="stroke-width: 1.42 ;&st7;  " d=" M   263.46,   610.16  L   258.48,   605.18  " /><path style="stroke-width: 1.42 ;&st7;  " d=" M   246.46,   617.21  L   251.43,   622.18  " /><path style="stroke-width: 1.42 ;&st7;  " d=" M   258.48,   622.18  L   263.46,   617.21  " /><path style="stroke-width: 1.42 ;&st7;  " d=" M   251.43,   605.18  L   246.46,   610.16  " /><path style="stroke-width: 1.42 ;&st7;  " d=" M   246.46,   277.27  L   251.43,   282.24  " /><path style="stroke-width: 1.42 ;&st7;  " d=" M   258.48,   282.24  L   263.46,   277.27  " /><path style="stroke-width: 1.42 ;&st7;  " d=" M   251.43,   265.24  L   246.46,   270.21  " /><path style="stroke-width: 1.42 ;&st7;  " d=" M    42.49,   146.26  L    33.99,   146.26  " /><text style="&st18;" transform="matrix(&st17;  64.29  168.59 )">W-L</text><text style="&st18;" transform="matrix(&st17;  98.29  168.59 )">W-L</text><text style="&st18;" transform="matrix(&st17;  123.78  168.59 )">W-L</text><text style="&st18;" transform="matrix(&st17;  191.77  165.33 )">G</text><text style="&st18;" transform="matrix(&st17;  262.59  591.61 )">(RHD,*9)</text><text style="&st18;" transform="matrix(&st17;  132.28  555.66 )">W-B</text><text style="&st18;" transform="matrix(&st17;  132.28  598.16 )">W-B</text><text style="&st18;" transform="matrix(&st17;  132.28  666.15 )">W-B</text><text style="&st18;" transform="matrix(&st17;  98.29  378.2 )">LG-B</text><text style="&st18;" transform="matrix(&st17;  98.29  301.72 )">LG-B</text><text style="&st18;" transform="matrix(&st17;  251.26  431.93 )">G-R</text><text style="&st18;" transform="matrix(&st17;  262.6  439.76 )">(LHD *30)</text><text style="&st18;" transform="matrix(&st17;  251.26  227.97 )">G-R</text><text style="&st18;" transform="matrix(&st17;  262.6  235.8 )">(LHD *30)</text><text style="&st18;" transform="matrix(&st17;  381.58  368.07 )">(RHD *30)</text><text style="&st18;" transform="matrix(&st17;  370.24  359.69 )">G-R</text><text style="&st18;" transform="matrix(&st17;  344.75  359.69 )">G-R</text><text style="&st18;" transform="matrix(&st17;  356.08  368.07 )">(RHD *30)</text><text style="&st18;" transform="matrix(&st17;  200.27  653.4 )">W-B</text><text style="&st18;" transform="matrix(&st17;  211.6  657.59 )">(*5,*13)</text><text style="&st18;" transform="matrix(&st17;  251.26  653.4 )">W-B</text><text style="&st18;" transform="matrix(&st17;  262.59  652.24 )">(*9)</text><text style="&st18;" transform="matrix(&st16;  283.24  159.56 )">G-R</text><text style="&st18;" transform="matrix(&st16;  274.86  170.89 )">(RHD *30)</text><text style="&st18;" transform="matrix(&st16;  283.24  270.04 )">G-R</text><text style="&st18;" transform="matrix(&st16;  275.4  281.37 )">(LHD *30)</text><text style="&st18;" transform="matrix(&st17;  251.26  585.41 )">W-B</text><text style="&st18;" transform="matrix(&st17;  200.27  585.41 )">W-B</text><text style="&st18;" transform="matrix(&st17;  211.6  589.6 )">(*5,*13)</text><text style="&st18;" transform="matrix(&st17;  225.77  653.4 )">W-B</text><text style="&st18;" transform="matrix(&st17;  237.1  655.92 )">(RHD)</text><text style="&st18;" transform="matrix(&st17;  30.3  126.1 )">W-L</text><text style="&st18;" transform="matrix(&st17;  89.79  666.15 )">W-B</text><path style="stroke-width: 1.42 ;&st7;  " d=" M   110.48,   341.73  L   101.98,   341.73  " /><text style="&st18;" transform="matrix(&st17;  109.62  377.7 )">(*28)</text><text style="&st18;" transform="matrix(&st17;  123.78  373.24 )">V</text><text style="&st18;" transform="matrix(&st17;  135.12  377.7 )">(*29)</text><text style="&st18;" transform="matrix(&st17;  225.77  224.67 )">R</text><text style="&st18;" transform="matrix(&st17;  237.1  235.8 )">(LHD *31)</text><text style="&st18;" transform="matrix(&st16;  274.86  196.39 )">(RHD *31)</text><text style="&st18;" transform="matrix(&st16;  286.53  185.06 )">R</text><text style="&st18;" transform="matrix(&st17;  225.77  428.64 )">R</text><text style="&st18;" transform="matrix(&st17;  237.1  439.76 )">(LHD *31)</text><text style="&st18;" transform="matrix(&st17;  370.24  458.38 )">R</text><text style="&st18;" transform="matrix(&st17;  381.58  470.05 )">(RHD *31)</text><text style="&st18;" transform="matrix(&st16;  291.73  457.01 )">G-R</text><text style="&st18;" transform="matrix(&st16;  283.36  468.34 )">(RHD *30)</text><text style="&st18;" transform="matrix(&st16;  275.4  306.87 )">(LHD *31)</text><text style="&st18;" transform="matrix(&st16;  286.53  295.54 )">R</text><text style="&st18;" transform="matrix(&st17;  319.25  356.4 )">R</text><text style="&st18;" transform="matrix(&st17;  330.58  368.07 )">(RHD *31)</text><text style="&st18;" transform="matrix(&st17;  72.79  296.75 )">V</text><text style="&st18;" transform="matrix(&st17;  109.62  301.21 )">(*30)</text><text style="&st18;" transform="matrix(&st17;  84.12  301.21 )">(*31)</text><text style="&st18;" transform="matrix(&st17;  395.74  356.4 )">R</text><text style="&st18;" transform="matrix(&st17;  407.07  368.07 )">(RHD *31)</text><text style="&st18;" transform="matrix(&st16;  465.36  270.04 )">G-R(LHD *30)</text><text style="&st18;" transform="matrix(&st16;  468.7  295.54 )">R(LHD *31)</text><text style="&st18;" transform="matrix(&st16;  464.86  312.54 )">G-R(RHD *30)</text><text style="&st18;" transform="matrix(&st16;  468.16  329.53 )">R(RHD *31)</text><text style="&st18;" transform="matrix(&st16;  468.16  372.03 )">R(RHD *31)</text><text style="&st18;" transform="matrix(&st16;  464.86  389.02 )">G-R(RHD *30)</text><g ewd:figtype="conn" ewd:figID="2" ewd:code="I91"><path style="stroke-width: 0.85 ;&st7;  " d=" M   254.96,   524.45  L   254.96,   528.70  " /><path style="stroke-width: 0.85 ;&st7;  " d=" M   254.96,   511.70  L   254.96,   515.95  " /><path style="stroke-width: 1.42 ;&st7;   " d=" M   263.46,   520.20  C   263.46    515.50    259.65    511.70    254.96    511.70  " /><path style="stroke-width: 1.42 ;&st7;   " d=" M   254.96,   511.70  C   250.26    511.70    246.46    515.50    246.46    520.20  " /><path style="stroke-width: 1.42 ;&st7;   " d=" M   246.46,   520.20  C   246.46    524.89    250.26    528.70    254.96    528.70  " /><path style="stroke-width: 1.42 ;&st7;   " d=" M   254.96,   528.70  C   259.65    528.70    263.46    524.89    263.46    520.20  " /><path style="stroke-width: 0.85 ;&st7;   " d=" M   252.55,   520.20  C   253.34    521.54    255.07    521.98    256.41    521.19  " /><path style="stroke-width: 0.85 ;&st7;   " d=" M   256.41,   521.19  C   257.75    520.40    258.19    518.67    257.40    517.33  " /><path style="stroke-width: 0.85 ;&st7;   " d=" M   257.40,   517.33  C   256.87    516.44    255.99    515.94    254.96    515.95  " /><path style="stroke-width: 0.85 ;&st7;   " d=" M   254.96,   524.45  C   256.51    524.46    257.78    523.20    257.79    521.65  " /><path style="stroke-width: 0.85 ;&st7;   " d=" M   257.79,   521.65  C   257.80    520.09    256.55    518.83    254.99    518.82  " /><path style="stroke-width: 0.85 ;&st7;   " d=" M   254.99,   518.82  C   253.96    518.81    253.08    519.31    252.55    520.20  " /><path style="stroke-width: 1.42 ;&st7;  " d=" M   229.46,   494.70  L   229.46,   545.69  L   271.95,   545.69  L   271.95,   494.70  L   229.46,   494.70  " /><path style="stroke-width: 0.85 ;&st7;  " d=" M   254.96,   511.70  L   254.96,   494.70  " /><path style="stroke-width: 0.85 ;&st7;  " d=" M   254.96,   528.70  L   254.96,   545.69  " /><text style="&st18;" transform="matrix(&st17;  242.77  533.56 )" ewd:textID="22">Clearance</text><text style="&st18;" transform="matrix(&st16;  257.54  542.0 )">E</text><text style="&st18;" transform="matrix(&st16;  257.54  502.9 )">B</text><text style="&st18;" transform="matrix(&st16;  248.62  553.89 )">1</text><text style="&st18;" transform="matrix(&st16;  248.62  491.01 )">2</text><g ewd:figtype="title"><text style="&st18;" transform="matrix(&st17;  286.67  548.6 )" ewd:textID="25">Headlight <tspan x="0 " dy="6.0">Assembly RH</tspan></text><text style="&st18;" transform="matrix(&st17;  279.85  548.59 )">I91</text></g></g><g ewd:figtype="rb" ewd:figID="3" ewd:code="FUSE60"><path style="stroke-width: 1.42 ;&st7;  " d=" M    36.12,    95.27  L    31.87,    95.27  " /><path style="stroke-width: 1.42 ;&st7;  " d=" M    36.12,   103.77  L    31.87,   103.77  " /><path style="stroke-width: 0.85 ;&st7;  " d=" M    33.99,    78.27  L    33.99,    95.27  " /><path style="stroke-width: 1.42 ;&st7;   " d=" M    31.87,    95.27  C    29.52     95.27     27.62     97.17     27.62     99.52  " /><path style="stroke-width: 1.42 ;&st7;   " d=" M    27.62,    99.52  C    27.62    101.87     29.52    103.77     31.87    103.77  " /><path style="stroke-width: 1.42 ;&st7;   " d=" M    36.12,   103.77  C    38.47    103.77     40.37    101.87     40.37     99.52  " /><path style="stroke-width: 1.42 ;&st7;   " d=" M    40.37,    99.52  C    40.37     97.17     38.47     95.27     36.12     95.27  " /><path style="stroke-width: 0.28 ;&st9;  " d=" M    33.99,    90.37  L    31.16,    87.54  L    31.16,    91.79  L    33.99,    94.62  L    36.83,    91.79  L    36.83,    87.54  L    33.99,    90.37  " /><text style="&st18;" transform="matrix(&st16;  50.42  56.17 )">50A <tspan x="0 " dy="6.0">MAIN1</tspan></text><text style="&st18;" transform="matrix(&st16;  32.12  101.49 )">4</text><text style="&st18;" transform="matrix(&st16;  27.65  86.47 )">2</text><text style="&st18;" transform="matrix(&st16;  25.91  32.08 )">(BAT)</text><path style="stroke-width: 0.85 ;&st7;  " d=" M    33.99,    69.77  L    33.99,    78.27  " /><path style="stroke-width: 1.42 ;&st7;   " d=" M    33.99,    47.11  C    31.26     48.72     30.34     52.25     31.96     54.99  " /><path style="stroke-width: 1.42 ;&st7;   " d=" M    31.96,    54.99  C    32.48     55.87     33.11     56.51     33.99     57.03  " /><path style="stroke-width: 1.42 ;&st7;   " d=" M    33.99,    66.94  C    36.73     65.33     37.64     61.80     36.03     59.06  " /><path style="stroke-width: 1.42 ;&st7;   " d=" M    36.03,    59.06  C    35.51     58.18     34.88     57.55     33.99     57.03  " /><path style="stroke-width: 0.85 ;&st7;   " d=" M    35.41,    45.69  C    35.41     44.91     34.78     44.28     33.99     44.28  " /><path style="stroke-width: 0.85 ;&st7;   " d=" M    33.99,    44.28  C    33.21     44.28     32.58     44.91     32.58     45.69  " /><path style="stroke-width: 0.85 ;&st7;   " d=" M    32.58,    45.69  C    32.58     46.48     33.21     47.11     33.99     47.11  " /><path style="stroke-width: 0.85 ;&st7;   " d=" M    33.99,    47.11  C    34.78     47.11     35.41     46.48     35.41     45.69  " /><path style="stroke-width: 0.85 ;&st7;   " d=" M    35.41,    68.36  C    35.41     67.57     34.78     66.94     33.99     66.94  " /><path style="stroke-width: 0.85 ;&st7;   " d=" M    33.99,    66.94  C    33.21     66.94     32.58     67.57     32.58     68.36  " /><path style="stroke-width: 0.85 ;&st7;   " d=" M    32.58,    68.36  C    32.58     69.14     33.21     69.77     33.99     69.77  " /><path style="stroke-width: 0.85 ;&st7;   " d=" M    33.99,    69.77  C    34.78     69.77     35.41     69.14     35.41     68.36  " /><path style="stroke-width: 1.42 ;&st7;  " d=" M    21.25,    35.78  L    21.25,    78.27  L    46.74,    78.27  L    46.74,    35.78  L    21.25,    35.78  " /></g><g ewd:figtype="rb" ewd:figID="5" ewd:code="FUSE21"><path style="stroke-width: 1.42 ;&st7;  " d=" M   257.08,   137.76  L   252.83,   137.76  " /><path style="stroke-width: 1.42 ;&st7;  " d=" M   257.08,   146.26  L   252.83,   146.26  " /><path style="stroke-width: 1.42 ;&st7;  " d=" M   257.08,    35.78  L   252.83,    35.78  " /><path style="stroke-width: 1.42 ;&st7;  " d=" M   257.08,    44.28  L   252.83,    44.28  " /><path style="stroke-width: 1.42 ;&st7;   " d=" M   252.83,   137.76  C   250.49    137.76    248.58    139.66    248.58    142.01  " /><path style="stroke-width: 1.42 ;&st7;   " d=" M   248.58,   142.01  C   248.58    144.36    250.49    146.26    252.83    146.26  " /><path style="stroke-width: 1.42 ;&st7;   " d=" M   257.08,   146.26  C   259.43    146.26    261.33    144.36    261.33    142.01  " /><path style="stroke-width: 1.42 ;&st7;   " d=" M   261.33,   142.01  C   261.33    139.66    259.43    137.76    257.08    137.76  " /><path style="stroke-width: 1.42 ;&st7;   " d=" M   252.83,    35.78  C   250.49     35.78    248.58     37.68    248.58     40.03  " /><path style="stroke-width: 1.42 ;&st7;   " d=" M   248.58,    40.03  C   248.58     42.38    250.49     44.28    252.83     44.28  " /><path style="stroke-width: 1.42 ;&st7;   " d=" M   257.08,    44.28  C   259.43     44.28    261.33     42.38    261.33     40.03  " /><path style="stroke-width: 1.42 ;&st7;   " d=" M   261.33,    40.03  C   261.33     37.68    259.43     35.78    257.08     35.78  " /><path style="stroke-width: 0.28 ;&st9;  " d=" M   254.96,   132.87  L   252.12,   130.03  L   252.12,   134.28  L   254.96,   137.12  L   257.79,   134.28  L   257.79,   130.03  L   254.96,   132.87  " /><path style="stroke-width: 0.28 ;&st9;  " d=" M   254.96,    49.17  L   257.79,    52.01  L   257.79,    47.76  L   254.96,    44.92  L   252.12,    47.76  L   252.12,    52.01  L   254.96,    49.17  " /><path style="stroke-width: 0.85 ;&st7;  " d=" M   254.96,    44.28  L   254.96,    69.77  " /><path style="stroke-width: 0.85 ;&st7;  " d=" M   254.96,   112.27  L   254.96,   137.76  " /><text style="&st18;" transform="matrix(&st16;  271.38  90.16 )">10A <tspan x="0 " dy="6.0">TAIL</tspan></text><text style="&st18;" transform="matrix(&st16;  248.62  120.46 )">2</text><text style="&st18;" transform="matrix(&st16;  248.62  66.08 )">1</text><text style="&st18;" transform="matrix(&st16;  253.08  143.98 )">2</text><text style="&st18;" transform="matrix(&st16;  253.08  42.0 )">2</text><path style="stroke-width: 0.85 ;&st7;  " d=" M   254.96,   103.77  L   254.96,   112.27  " /><path style="stroke-width: 1.42 ;&st7;   " d=" M   254.96,    81.11  C   252.22     82.72    251.31     86.25    252.92     88.98  " /><path style="stroke-width: 1.42 ;&st7;   " d=" M   252.92,    88.98  C   253.44     89.87    254.08     90.50    254.96     91.02  " /><path style="stroke-width: 1.42 ;&st7;   " d=" M   254.96,   100.94  C   257.70     99.32    258.61     95.79    256.99     93.06  " /><path style="stroke-width: 1.42 ;&st7;   " d=" M   256.99,    93.06  C   256.47     92.17    255.84     91.54    254.96     91.02  " /><path style="stroke-width: 0.85 ;&st7;   " d=" M   256.37,    79.69  C   256.37     78.91    255.74     78.27    254.96     78.27  " /><path style="stroke-width: 0.85 ;&st7;   " d=" M   254.96,    78.27  C   254.18     78.27    253.54     78.91    253.54     79.69  " /><path style="stroke-width: 0.85 ;&st7;   " d=" M   253.54,    79.69  C   253.54     80.47    254.18     81.11    254.96     81.11  " /><path style="stroke-width: 0.85 ;&st7;   " d=" M   254.96,    81.11  C   255.74     81.11    256.37     80.47    256.37     79.69  " /><path style="stroke-width: 0.85 ;&st7;   " d=" M   256.37,   102.35  C   256.37    101.57    255.74    100.94    254.96    100.94  " /><path style="stroke-width: 0.85 ;&st7;   " d=" M   254.96,   100.94  C   254.18    100.94    253.54    101.57    253.54    102.35  " /><path style="stroke-width: 0.85 ;&st7;   " d=" M   253.54,   102.35  C   253.54    103.13    254.18    103.77    254.96    103.77  " /><path style="stroke-width: 0.85 ;&st7;   " d=" M   254.96,   103.77  C   255.74    103.77    256.37    103.13    256.37    102.35  " /><path style="stroke-width: 0.85 ;&st7;  " d=" M   254.96,    69.77  L   254.96,    78.27  " /><path style="stroke-width: 1.42 ;&st7;  " d=" M   242.21,    69.77  L   242.21,   112.27  L   267.71,   112.27  L   267.71,    69.77  L   242.21,    69.77  " /></g><g ewd:figtype="rb" ewd:figID="6" ewd:code="2"><path style="stroke-width: 1.42 ;&st7;  " d=" M   129.60,   180.26  L   125.35,   180.26  " /><path style="stroke-width: 1.42 ;&st7;  " d=" M   129.60,   188.75  L   125.35,   188.75  " /><path style="stroke-width: 1.42 ;&st7;  " d=" M   104.11,   180.26  L    99.86,   180.26  " /><path style="stroke-width: 1.42 ;&st7;  " d=" M   104.11,   188.75  L    99.86,   188.75  " /><path style="stroke-width: 1.42 ;&st7;  " d=" M   129.60,   256.74  L   125.35,   256.74  " /><path style="stroke-width: 1.42 ;&st7;  " d=" M   129.60,   265.24  L   125.35,   265.24  " /><path style="stroke-width: 1.42 ;&st7;  " d=" M   104.11,   256.74  L    99.86,   256.74  " /><path style="stroke-width: 1.42 ;&st7;  " d=" M   104.11,   265.24  L    99.86,   265.24  " /><path style="stroke-width: 1.42 ;&st7;   " d=" M   125.35,   180.26  C   123.01    180.26    121.10    182.16    121.10    184.50  " /><path style="stroke-width: 1.42 ;&st7;   " d=" M   121.10,   184.50  C   121.10    186.85    123.01    188.75    125.35    188.75  " /><path style="stroke-width: 1.42 ;&st7;   " d=" M   129.60,   188.75  C   131.95    188.75    133.85    186.85    133.85    184.50  " /><path style="stroke-width: 1.42 ;&st7;   " d=" M   133.85,   184.50  C   133.85    182.16    131.95    180.26    129.60    180.26  " /><path style="stroke-width: 1.42 ;&st7;   " d=" M    99.86,   180.26  C    97.51    180.26     95.61    182.16     95.61    184.50  " /><path style="stroke-width: 1.42 ;&st7;   " d=" M    95.61,   184.50  C    95.61    186.85     97.51    188.75     99.86    188.75  " /><path style="stroke-width: 1.42 ;&st7;   " d=" M   104.11,   188.75  C   106.45    188.75    108.36    186.85    108.36    184.50  " /><path style="stroke-width: 1.42 ;&st7;   " d=" M   108.36,   184.50  C   108.36    182.16    106.45    180.26    104.11    180.26  " /><path style="stroke-width: 1.42 ;&st7;   " d=" M   125.35,   256.74  C   123.01    256.74    121.10    258.64    121.10    260.99  " /><path style="stroke-width: 1.42 ;&st7;   " d=" M   121.10,   260.99  C   121.10    263.34    123.01    265.24    125.35    265.24  " /><path style="stroke-width: 1.42 ;&st7;   " d=" M   129.60,   265.24  C   131.95    265.24    133.85    263.34    133.85    260.99  " /><path style="stroke-width: 1.42 ;&st7;   " d=" M   133.85,   260.99  C   133.85    258.64    131.95    256.74    129.60    256.74  " /><path style="stroke-width: 1.42 ;&st7;   " d=" M    99.86,   256.74  C    97.51    256.74     95.61    258.64     95.61    260.99  " /><path style="stroke-width: 1.42 ;&st7;   " d=" M    95.61,   260.99  C    95.61    263.34     97.51    265.24     99.86    265.24  " /><path style="stroke-width: 1.42 ;&st7;   " d=" M   104.11,   265.24  C   106.45    265.24    108.36    263.34    108.36    260.99  " /><path style="stroke-width: 1.42 ;&st7;   " d=" M   108.36,   260.99  C   108.36    258.64    106.45    256.74    104.11    256.74  " /><path style="stroke-width: 0.28 ;&st9;  " d=" M   127.48,   193.65  L   130.31,   196.48  L   130.31,   192.23  L   127.48,   189.40  L   124.65,   192.23  L   124.65,   196.48  L   127.48,   193.65  " /><path style="stroke-width: 0.28 ;&st9;  " d=" M   101.98,   193.65  L   104.82,   196.48  L   104.82,   192.23  L   101.98,   189.40  L    99.15,   192.23  L    99.15,   196.48  L   101.98,   193.65  " /><path style="stroke-width: 0.28 ;&st9;  " d=" M   127.48,   251.85  L   124.65,   249.01  L   124.65,   253.26  L   127.48,   256.10  L   130.31,   253.26  L   130.31,   249.01  L   127.48,   251.85  " /><path style="stroke-width: 0.28 ;&st9;  " d=" M   101.98,   251.85  L    99.15,   249.01  L    99.15,   253.26  L   101.98,   256.10  L   104.82,   253.26  L   104.82,   249.01  L   101.98,   251.85  " /><path style="stroke-width: 0.85 ;&st7;  " d=" M   101.98,   239.75  L   101.98,   256.74  " /><path style="stroke-width: 0.85 ;&st7;  " d=" M   127.48,   256.74  L   127.48,   239.75  " /><path style="stroke-width: 0.85 ;&st7;  " d=" M   127.48,   188.75  L   127.48,   205.75  " /><path style="stroke-width: 0.85 ;&st7;  " d=" M   101.98,   205.75  L   101.98,   188.75  " /><text style="&st18;" transform="matrix(&st16;  95.64  247.94 )">2</text><text style="&st18;" transform="matrix(&st16;  121.14  247.94 )">3</text><text style="&st18;" transform="matrix(&st16;  95.64  202.06 )">1</text><text style="&st18;" transform="matrix(&st16;  121.14  202.06 )">5</text><text style="&st18;" transform="matrix(&st16;  125.6  186.47 )">2</text><text style="&st18;" transform="matrix(&st16;  100.1  186.47 )">2</text><text style="&st18;" transform="matrix(&st16;  125.6  262.96 )">2</text><text style="&st18;" transform="matrix(&st16;  100.1  262.96 )">2</text><text style="&st18;" transform="matrix(&st17;  143.61  230.1 )" ewd:textID="37">TAIL <tspan x="0 " dy="6.0">Relay</tspan></text><path style="stroke-width: 1.42 ;&st7;  " d=" M   127.48,   232.66  L   133.14,   210.00  " /><path style="stroke-width: 0.85 ;&st7;  " d=" M   127.48,   239.75  L   127.48,   235.50  " /><path style="stroke-width: 0.85 ;&st7;  " d=" M   127.48,   205.75  L   127.48,   210.00  " /><path style="stroke-width: 0.85 ;&st7;  " d=" M   101.98,   205.75  L   101.98,   214.25  " /><path style="stroke-width: 0.85 ;&st7;  " d=" M   101.98,   231.25  L   101.98,   239.75  " /><path style="stroke-width: 0.85 ;&st7;   " d=" M   128.90,   234.08  C   128.90    233.30    128.26    232.66    127.48    232.66  " /><path style="stroke-width: 0.85 ;&st7;   " d=" M   127.48,   232.66  C   126.70    232.66    126.06    233.30    126.06    234.08  " /><path style="stroke-width: 0.85 ;&st7;   " d=" M   126.06,   234.08  C   126.06    234.86    126.70    235.50    127.48    235.50  " /><path style="stroke-width: 0.85 ;&st7;   " d=" M   127.48,   235.50  C   128.26    235.50    128.90    234.86    128.90    234.08  " /><path style="stroke-width: 0.85 ;&st7;   " d=" M   128.90,   211.42  C   128.90    210.63    128.26    210.00    127.48    210.00  " /><path style="stroke-width: 0.85 ;&st7;   " d=" M   127.48,   210.00  C   126.70    210.00    126.06    210.63    126.06    211.42  " /><path style="stroke-width: 0.85 ;&st7;   " d=" M   126.06,   211.42  C   126.06    212.20    126.70    212.83    127.48    212.83  " /><path style="stroke-width: 0.85 ;&st7;   " d=" M   127.48,   212.83  C   128.26    212.83    128.90    212.20    128.90    211.42  " /><path style="stroke-width: 0.85 ;&st7;   " d=" M    99.45,   220.27  C   100.82    221.67    103.06    221.69    104.46    220.32  " /><path style="stroke-width: 0.85 ;&st7;   " d=" M   104.46,   220.32  C   105.86    218.95    105.88    216.71    104.51    215.31  " /><path style="stroke-width: 0.85 ;&st7;   " d=" M   104.51,   215.31  C   103.82    214.60    102.97    214.25    101.98    214.25  " /><path style="stroke-width: 0.85 ;&st7;   " d=" M    99.45,   225.23  C   100.82    226.62    103.06    226.65    104.46    225.28  " /><path style="stroke-width: 0.85 ;&st7;   " d=" M   104.46,   225.28  C   105.86    223.91    105.88    221.67    104.51    220.27  " /><path style="stroke-width: 0.85 ;&st7;   " d=" M   104.51,   220.27  C   103.14    218.87    100.90    218.85     99.50    220.22  " /><path style="stroke-width: 0.85 ;&st7;   " d=" M    99.50,   220.22  C    99.49    220.24     99.47    220.25     99.45    220.27  " /><path style="stroke-width: 0.85 ;&st7;   " d=" M   101.98,   231.25  C   103.94    231.25    105.52    229.66    105.52    227.71  " /><path style="stroke-width: 0.85 ;&st7;   " d=" M   105.52,   227.71  C   105.52    225.75    103.94    224.16    101.98    224.16  " /><path style="stroke-width: 0.85 ;&st7;   " d=" M   101.98,   224.16  C   100.99    224.16    100.15    224.52     99.45    225.23  " /><path style="stroke-width: 1.42 ;&st7;  " d=" M   135.98,   205.75  L    93.48,   205.75  L    93.48,   239.75  L   135.98,   239.75  L   135.98,   205.75  " /></g><g ewd:figtype="conn" ewd:figID="11" ewd:code="L53"><path style="stroke-width: 1.42 ;&st7;  " d=" M   127.48,   613.68  L   127.48,   630.68  L   144.48,   630.68  L   144.48,   613.68  L   127.48,   613.68  " /><path style="stroke-width: 0.85 ;&st7;  " d=" M   135.98,   613.68  L   135.98,   630.68  " /><path style="stroke-width: 0.85 ;&st7;  " d=" M   127.48,   622.18  L   135.98,   622.18  " /><path style="stroke-width: 0.85 ;&st7;  " d=" M   134.78,   621.18  L   134.51,   621.65  L   134.42,   622.18  L   134.51,   622.71  L   134.78,   623.18  L   135.20,   623.53  L   135.71,   623.72  L   136.25,   623.72  L   136.76,   623.53  L   137.17,   623.18  L   137.44,   622.71  L   137.54,   622.18  L   137.44,   621.65  L   137.17,   621.18  L   136.76,   620.83  L   136.25,   620.65  L   135.71,   620.65  L   135.20,   620.83  L   134.78,   621.18  L   135.18,   621.89  L   135.18,   622.47  L   135.55,   622.92  L   136.12,   623.02  L   136.63,   622.73  L   136.83,   622.18  L   136.63,   621.63  L   136.12,   621.35  L   135.55,   621.44  L   135.98,   622.18  " /><text style="&st18;" transform="matrix(&st16;  129.64  638.87 )">4</text><text style="&st18;" transform="matrix(&st16;  126.3  609.99 )">13</text><text style="&st18;" transform="matrix(&st16;  121.14  618.49 )">5</text><g ewd:figtype="title"><text style="&st18;" transform="matrix(&st17;  152.37  633.58 )">L53</text><text style="&st18;" transform="matrix(&st17;  159.19  633.59 )" ewd:textID="34">No. 31 <tspan x="0 " dy="6.0">Junction Connector</tspan></text></g></g><g ewd:figtype="conn" ewd:figID="20" ewd:code="L24"><text style="&st18;" transform="matrix(&st16;  71.39  479.67 )" ewd:textID="38">Tail</text><text style="&st18;" transform="matrix(&st16;  70.27  462.68 )">OFF</text><text style="&st18;" transform="matrix(&st17;  44.47  488.19 )" ewd:textID="30">Light <tspan x="0 " dy="6.0">Control Switch</tspan></text><path style="stroke-width: 0.85 ;&st7;  " d=" M   120.40,   494.70  L   134.56,   494.70  " /><path style="stroke-width: 0.85 ;&st7;  " d=" M   127.48,   435.21  L   127.48,   503.20  " /><path style="stroke-width: 1.42 ;&st7;  " d=" M    25.50,   418.22  L    25.50,   520.20  L   161.47,   520.20  L   161.47,   418.22  L    25.50,   418.22  " /><path style="stroke-width: 0.85 ;&st7;  " d=" M   103.40,   477.71  L   134.56,   477.71  " /><path style="stroke-width: 0.85 ;&st7;  " d=" M    59.49,   435.21  L    59.49,   503.20  " /><path style="stroke-width: 0.85 ;&st7;  " d=" M    93.48,   435.21  L    93.48,   503.20  " /><path style="stroke-width: 0.85 ;&st7;  " d=" M   110.48,   435.21  L   110.48,   503.20  " /><path style="stroke-width: 0.85 ;&st7;  " d=" M    59.49,   486.20  L   144.48,   486.20  " /><path style="stroke-width: 0.85 ;&st7;  " d=" M    59.49,   469.21  L   144.48,   469.21  " /><path style="stroke-width: 0.85 ;&st7;  " d=" M    59.49,   452.21  L   144.48,   452.21  " /><path style="stroke-width: 1.42 ;&st7;  " d=" M    33.99,   435.21  L    33.99,   503.20  L   144.48,   503.20  L   144.48,   435.21  L    33.99,   435.21  " /><path style="stroke-width: 0.85 ;&st7;  " d=" M   135.98,   503.20  L   135.98,   520.20  " /><path style="stroke-width: 0.85 ;&st7;  " d=" M   101.98,   418.22  L   101.98,   435.21  " /><text style="&st18;" transform="matrix(&st16;  138.56  516.51 )">EL</text><path style="stroke-width: 0.85 ;&st7;  " d=" M   103.40,   494.70  L   117.56,   494.70  " /><path style="stroke-width: 0.85 ;&st7;   " d=" M   137.39,   494.70  C   137.39    493.92    136.76    493.29    135.98    493.29  " /><path style="stroke-width: 0.85 ;&st7;   " d=" M   135.98,   493.29  C   135.20    493.29    134.56    493.92    134.56    494.70  " /><path style="stroke-width: 0.85 ;&st7;   " d=" M   134.56,   494.70  C   134.56    495.48    135.20    496.12    135.98    496.12  " /><path style="stroke-width: 0.85 ;&st7;   " d=" M   135.98,   496.12  C   136.76    496.12    137.39    495.48    137.39    494.70  " /><path style="stroke-width: 0.85 ;&st7;   " d=" M   137.39,   477.71  C   137.39    476.92    136.76    476.29    135.98    476.29  " /><path style="stroke-width: 0.85 ;&st7;   " d=" M   135.98,   476.29  C   135.20    476.29    134.56    476.92    134.56    477.71  " /><path style="stroke-width: 0.85 ;&st7;   " d=" M   134.56,   477.71  C   134.56    478.49    135.20    479.12    135.98    479.12  " /><path style="stroke-width: 0.85 ;&st7;   " d=" M   135.98,   479.12  C   136.76    479.12    137.39    478.49    137.39    477.71  " /><path style="stroke-width: 0.85 ;&st7;   " d=" M   103.40,   477.71  C   103.40    476.92    102.77    476.29    101.98    476.29  " /><path style="stroke-width: 0.85 ;&st7;   " d=" M   101.98,   476.29  C   101.20    476.29    100.57    476.92    100.57    477.71  " /><path style="stroke-width: 0.85 ;&st7;   " d=" M   100.57,   477.71  C   100.57    478.49    101.20    479.12    101.98    479.12  " /><path style="stroke-width: 0.85 ;&st7;   " d=" M   101.98,   479.12  C   102.77    479.12    103.40    478.49    103.40    477.71  " /><path style="stroke-width: 0.85 ;&st7;   " d=" M   103.40,   494.70  C   103.40    493.92    102.77    493.29    101.98    493.29  " /><path style="stroke-width: 0.85 ;&st7;   " d=" M   101.98,   493.29  C   101.20    493.29    100.57    493.92    100.57    494.70  " /><path style="stroke-width: 0.85 ;&st7;   " d=" M   100.57,   494.70  C   100.57    495.48    101.20    496.12    101.98    496.12  " /><path style="stroke-width: 0.85 ;&st7;   " d=" M   101.98,   496.12  C   102.77    496.12    103.40    495.48    103.40    494.70  " /><text style="&st18;" transform="matrix(&st16;  104.57  426.41 )">T</text><path style="stroke-width: 0.85 ;&st7;   " d=" M   120.40,   494.70  C   120.40    493.92    119.76    493.29    118.98    493.29  " /><path style="stroke-width: 0.85 ;&st7;   " d=" M   118.98,   493.29  C   118.20    493.29    117.56    493.92    117.56    494.70  " /><path style="stroke-width: 0.85 ;&st7;   " d=" M   117.56,   494.70  C   117.56    495.48    118.20    496.12    118.98    496.12  " /><path style="stroke-width: 0.85 ;&st7;   " d=" M   118.98,   496.12  C   119.76    496.12    120.40    495.48    120.40    494.70  " /><text style="&st18;" transform="matrix(&st16;  69.1  496.67 )" ewd:textID="23">Head</text><text style="&st18;" transform="matrix(&st16;  99.91  445.68 )">T</text><text style="&st18;" transform="matrix(&st16;  116.56  445.68 )">H</text><text style="&st18;" transform="matrix(&st16;  132.08  445.68 )">EL</text><text style="&st18;" transform="matrix(&st16;  123.16  526.7 )">12</text><text style="&st18;" transform="matrix(&st16;  123.16  535.77 )">19</text><path style="stroke-width: 1.42 ;&st7;   " d=" M   140.51,   524.73  C   140.51    522.23    138.48    520.20    135.98    520.20  " /><path style="stroke-width: 1.42 ;&st7;   " d=" M   135.98,   520.20  C   133.47    520.20    131.44    522.23    131.44    524.73  " /><path style="stroke-width: 1.42 ;&st7;   " d=" M   131.44,   524.73  C   131.44    527.23    133.47    529.26    135.98    529.26  " /><path style="stroke-width: 1.42 ;&st7;   " d=" M   135.98,   529.26  C   138.48    529.26    140.51    527.23    140.51    524.73  " /><path style="stroke-width: 1.42 ;&st7;   " d=" M   140.51,   533.80  C   140.51    531.29    138.48    529.26    135.98    529.26  " /><path style="stroke-width: 1.42 ;&st7;   " d=" M   135.98,   529.26  C   133.47    529.26    131.44    531.29    131.44    533.80  " /><path style="stroke-width: 1.42 ;&st7;   " d=" M   131.44,   533.80  C   131.44    536.30    133.47    538.33    135.98    538.33  " /><path style="stroke-width: 1.42 ;&st7;   " d=" M   135.98,   538.33  C   138.48    538.33    140.51    536.30    140.51    533.80  " /><text style="&st18;" transform="matrix(&st16;  133.56  526.7 )">C</text><text style="&st18;" transform="matrix(&st16;  133.56  535.77 )">D</text><text style="&st18;" transform="matrix(&st16;  89.17  406.59 )">18</text><text style="&st18;" transform="matrix(&st16;  89.17  415.65 )">13</text><path style="stroke-width: 1.42 ;&st7;   " d=" M   106.52,   404.62  C   106.52    402.11    104.49    400.09    101.98    400.09  " /><path style="stroke-width: 1.42 ;&st7;   " d=" M   101.98,   400.09  C    99.48    400.09     97.45    402.11     97.45    404.62  " /><path style="stroke-width: 1.42 ;&st7;   " d=" M    97.45,   404.62  C    97.45    407.12     99.48    409.15    101.98    409.15  " /><path style="stroke-width: 1.42 ;&st7;   " d=" M   101.98,   409.15  C   104.49    409.15    106.52    407.12    106.52    404.62  " /><path style="stroke-width: 1.42 ;&st7;   " d=" M   106.52,   413.68  C   106.52    411.18    104.49    409.15    101.98    409.15  " /><path style="stroke-width: 1.42 ;&st7;   " d=" M   101.98,   409.15  C    99.48    409.15     97.45    411.18     97.45    413.68  " /><path style="stroke-width: 1.42 ;&st7;   " d=" M    97.45,   413.68  C    97.45    416.19     99.48    418.22    101.98    418.22  " /><path style="stroke-width: 1.42 ;&st7;   " d=" M   101.98,   418.22  C   104.49    418.22    106.52    416.19    106.52    413.68  " /><text style="&st18;" transform="matrix(&st16;  99.56  415.65 )">D</text><text style="&st18;" transform="matrix(&st16;  99.56  406.59 )">C</text><g ewd:figtype="title"><text style="&st18;" transform="matrix(&st16;  22.08  395.8 )">L24(C),(D)</text><text style="&st18;" transform="matrix(&st16;  22.09  402.62 )" ewd:textID="26">Headlight <tspan x="0 " dy="6.0">Dimmer Switch </tspan><tspan x="0 " dy="6.0">Assembly</tspan></text></g><g ewd:code="" ewd:figID="74" ewd:comment="" ewd:figtype="commref"><text style="&st18;" transform="matrix(&st16;  107.08  415.65 )">(RHD)</text></g><g ewd:code="" ewd:figID="75" ewd:comment="" ewd:figtype="commref"><text style="&st18;" transform="matrix(&st16;  107.08  406.59 )">(LHD)</text></g><g ewd:code="" ewd:figID="76" ewd:comment="" ewd:figtype="commref"><text style="&st18;" transform="matrix(&st16;  141.07  526.7 )">(LHD)</text></g><g ewd:code="" ewd:figID="77" ewd:comment="" ewd:figtype="commref"><text style="&st18;" transform="matrix(&st16;  141.07  535.77 )">(RHD)</text></g></g><g ewd:figtype="conn" ewd:figID="21" ewd:code="I106"><path style="stroke-width: 1.42 ;&st7;  " d=" M   339.94,   214.25  L   339.94,   231.25  L   433.43,   231.25  L   433.43,   214.25  L   339.94,   214.25  " /><path style="stroke-width: 0.85 ;&st7;  " d=" M   348.44,   214.25  L   348.44,   231.25  " /><path style="stroke-width: 0.85 ;&st7;  " d=" M   348.44,   222.75  L   424.93,   222.75  L   424.93,   231.25  " /><path style="stroke-width: 0.85 ;&st7;  " d=" M   347.25,   221.75  L   346.98,   222.22  L   346.88,   222.75  L   346.98,   223.28  L   347.25,   223.75  L   347.66,   224.10  L   348.17,   224.28  L   348.71,   224.28  L   349.22,   224.10  L   349.63,   223.75  L   349.91,   223.28  L   350.00,   222.75  L   349.91,   222.22  L   349.63,   221.75  L   349.22,   221.40  L   348.71,   221.21  L   348.17,   221.21  L   347.66,   221.40  L   347.25,   221.75  L   347.64,   222.46  L   347.64,   223.04  L   348.02,   223.48  L   348.59,   223.58  L   349.09,   223.30  L   349.29,   222.75  L   349.09,   222.20  L   348.59,   221.91  L   348.02,   222.01  L   348.44,   222.75  " /><text style="&st18;" transform="matrix(&st16;  338.96  211.69 )">8</text><path style="stroke-width: 1.42 ;&st7;   " d=" M   352.97,   209.72  C   352.97    207.21    350.95    205.18    348.44    205.18  " /><path style="stroke-width: 1.42 ;&st7;   " d=" M   348.44,   205.18  C   345.94    205.18    343.91    207.21    343.91    209.72  " /><path style="stroke-width: 1.42 ;&st7;   " d=" M   343.91,   209.72  C   343.91    212.22    345.94    214.25    348.44    214.25  " /><path style="stroke-width: 1.42 ;&st7;   " d=" M   348.44,   214.25  C   350.95    214.25    352.97    212.22    352.97    209.72  " /><text style="&st18;" transform="matrix(&st16;  346.18  211.69 )">B</text><text style="&st18;" transform="matrix(&st16;  338.96  237.75 )">3</text><text style="&st18;" transform="matrix(&st16;  346.18  237.75 )">B</text><path style="stroke-width: 1.42 ;&st7;   " d=" M   352.97,   235.78  C   352.97    233.28    350.95    231.25    348.44    231.25  " /><path style="stroke-width: 1.42 ;&st7;   " d=" M   348.44,   231.25  C   345.94    231.25    343.91    233.28    343.91    235.78  " /><path style="stroke-width: 1.42 ;&st7;   " d=" M   343.91,   235.78  C   343.91    238.28    345.94    240.31    348.44    240.31  " /><path style="stroke-width: 1.42 ;&st7;   " d=" M   348.44,   240.31  C   350.95    240.31    352.97    238.28    352.97    235.78  " /><text style="&st18;" transform="matrix(&st16;  415.45  237.75 )">9</text><text style="&st18;" transform="matrix(&st16;  422.66  237.75 )">B</text><path style="stroke-width: 1.42 ;&st7;   " d=" M   429.46,   235.78  C   429.46    233.28    427.43    231.25    424.93    231.25  " /><path style="stroke-width: 1.42 ;&st7;   " d=" M   424.93,   231.25  C   422.43    231.25    420.40    233.28    420.40    235.78  " /><path style="stroke-width: 1.42 ;&st7;   " d=" M   420.40,   235.78  C   420.40    238.28    422.43    240.31    424.93    240.31  " /><path style="stroke-width: 1.42 ;&st7;   " d=" M   424.93,   240.31  C   427.43    240.31    429.46    238.28    429.46    235.78  " /><g ewd:figtype="title"><text style="&st18;" transform="matrix(&st17;  448.15  234.15 )" ewd:textID="33">No. 9 <tspan x="0 " dy="6.0">Junction Connector</tspan></text><text style="&st18;" transform="matrix(&st17;  441.32  234.15 )">I106(B)</text></g></g><g ewd:figtype="conn" ewd:figID="22" ewd:code="I104"><path style="stroke-width: 1.42 ;&st7;  " d=" M   331.44,   401.22  L   331.44,   418.22  L   416.43,   418.22  L   416.43,   401.22  L   331.44,   401.22  " /><path style="stroke-width: 0.85 ;&st7;  " d=" M   348.44,   401.22  L   348.44,   418.22  " /><path style="stroke-width: 0.85 ;&st7;  " d=" M   348.44,   409.72  L   399.43,   409.72  L   399.43,   401.22  " /><path style="stroke-width: 0.85 ;&st7;  " d=" M   347.25,   408.71  L   346.98,   409.18  L   346.88,   409.72  L   346.98,   410.25  L   347.25,   410.72  L   347.66,   411.07  L   348.17,   411.25  L   348.71,   411.25  L   349.22,   411.07  L   349.63,   410.72  L   349.91,   410.25  L   350.00,   409.72  L   349.91,   409.18  L   349.63,   408.71  L   349.22,   408.37  L   348.71,   408.18  L   348.17,   408.18  L   347.66,   408.37  L   347.25,   408.71  L   347.64,   409.43  L   347.64,   410.01  L   348.02,   410.45  L   348.59,   410.55  L   349.09,   410.26  L   349.29,   409.72  L   349.09,   409.17  L   348.59,   408.88  L   348.02,   408.98  L   348.44,   409.72  " /><text style="&st18;" transform="matrix(&st16;  338.96  424.72 )">6</text><path style="stroke-width: 1.42 ;&st7;   " d=" M   352.97,   422.75  C   352.97    420.24    350.95    418.22    348.44    418.22  " /><path style="stroke-width: 1.42 ;&st7;   " d=" M   348.44,   418.22  C   345.94    418.22    343.91    420.24    343.91    422.75  " /><path style="stroke-width: 1.42 ;&st7;   " d=" M   343.91,   422.75  C   343.91    425.25    345.94    427.28    348.44    427.28  " /><path style="stroke-width: 1.42 ;&st7;   " d=" M   348.44,   427.28  C   350.95    427.28    352.97    425.25    352.97    422.75  " /><text style="&st18;" transform="matrix(&st16;  346.18  424.72 )">B</text><text style="&st18;" transform="matrix(&st16;  338.96  398.65 )">1</text><text style="&st18;" transform="matrix(&st16;  346.18  398.65 )">B</text><path style="stroke-width: 1.42 ;&st7;   " d=" M   352.97,   396.69  C   352.97    394.18    350.95    392.15    348.44    392.15  " /><path style="stroke-width: 1.42 ;&st7;   " d=" M   348.44,   392.15  C   345.94    392.15    343.91    394.18    343.91    396.69  " /><path style="stroke-width: 1.42 ;&st7;   " d=" M   343.91,   396.69  C   343.91    399.19    345.94    401.22    348.44    401.22  " /><path style="stroke-width: 1.42 ;&st7;   " d=" M   348.44,   401.22  C   350.95    401.22    352.97    399.19    352.97    396.69  " /><text style="&st18;" transform="matrix(&st16;  389.95  398.65 )">7</text><path style="stroke-width: 1.42 ;&st7;   " d=" M   403.97,   396.69  C   403.97    394.18    401.94    392.15    399.43    392.15  " /><path style="stroke-width: 1.42 ;&st7;   " d=" M   399.43,   392.15  C   396.93    392.15    394.90    394.18    394.90    396.69  " /><path style="stroke-width: 1.42 ;&st7;   " d=" M   394.90,   396.69  C   394.90    399.19    396.93    401.22    399.43    401.22  " /><path style="stroke-width: 1.42 ;&st7;   " d=" M   399.43,   401.22  C   401.94    401.22    403.97    399.19    403.97    396.69  " /><text style="&st18;" transform="matrix(&st16;  397.17  398.65 )">B</text><g ewd:figtype="title"><text style="&st18;" transform="matrix(&st17;  321.8  421.12 )" ewd:textID="32">No. 6 Junction <tspan x="0 " dy="6.0">Connector</tspan></text><text style="&st18;" transform="matrix(&st17;  314.98  421.11 )">I104(B)</text></g></g><g ewd:figtype="w2w" ewd:figID="26" ewd:code="AI1"><path style="stroke-width: 1.42 ;&st7;  " d=" M    38.24,   155.33  L    33.99,   151.08  L    29.75,   155.33  " /><path style="stroke-width: 1.42 ;&st7;  " d=" M    38.24,   151.93  L    33.99,   147.68  L    29.75,   151.93  " /><text style="&st18;" transform="matrix(&st16;  20.58  143.98 )">1</text></g><g ewd:figtype="w2w" ewd:figID="27" ewd:code="IL6"><path style="stroke-width: 1.42 ;&st7;  " d=" M   106.23,   347.39  L   101.98,   343.14  L    97.73,   347.39  " /><path style="stroke-width: 1.42 ;&st7;  " d=" M   106.23,   350.79  L   101.98,   346.54  L    97.73,   350.79  " /><text style="&st18;" transform="matrix(&st16;  88.57  339.45 )">3</text><g ewd:code="" ewd:figID="96" ewd:comment="" ewd:figtype="commref"><text style="&st18;" transform="matrix(&st16;  111.01  339.45 )">(RHD)</text></g></g><g ewd:figtype="w2w" ewd:figID="28" ewd:code="IL2"><text style="&st18;" transform="matrix(&st16;  88.57  330.95 )">6</text><g ewd:code="" ewd:figID="97" ewd:comment="" ewd:figtype="commref"><text style="&st18;" transform="matrix(&st16;  111.01  330.95 )">(LHD)</text></g></g><g ewd:figtype="gp" ewd:figID="37" ewd:code="LB"><path style="stroke-width: 0.85 ;&st7;  " d=" M    93.48,   697.25  L    93.48,   701.50  " /><path style="stroke-width: 0.85 ;&st7;  " d=" M    84.99,   701.50  L   101.98,   701.50  " /><path style="stroke-width: 0.85 ;&st7;  " d=" M    89.24,   704.33  L    97.73,   704.33  " /><path style="stroke-width: 0.85 ;&st7;  " d=" M    90.65,   707.17  L    96.32,   707.17  " /><path style="stroke-width: 0.85 ;&st7;  " d=" M    92.07,   710.00  L    94.90,   710.00  " /></g><g ewd:figtype="gp" ewd:figID="38" ewd:code="LA"><path style="stroke-width: 0.85 ;&st7;  " d=" M   135.98,   697.25  L   135.98,   701.50  " /><path style="stroke-width: 0.85 ;&st7;  " d=" M   127.48,   701.50  L   144.48,   701.50  " /><path style="stroke-width: 0.85 ;&st7;  " d=" M   131.73,   704.33  L   140.23,   704.33  " /><path style="stroke-width: 0.85 ;&st7;  " d=" M   133.14,   707.17  L   138.81,   707.17  " /><path style="stroke-width: 0.85 ;&st7;  " d=" M   134.56,   710.00  L   137.39,   710.00  " /></g><g ewd:figtype="gp" ewd:figID="39" ewd:code="IE"><path style="stroke-width: 0.85 ;&st7;  " d=" M   202.55,   710.00  L   205.38,   710.00  " /><path style="stroke-width: 0.85 ;&st7;  " d=" M   201.13,   707.17  L   206.80,   707.17  " /><path style="stroke-width: 0.85 ;&st7;  " d=" M   199.72,   704.33  L   208.22,   704.33  " /><path style="stroke-width: 0.85 ;&st7;  " d=" M   195.47,   701.50  L   212.46,   701.50  " /><path style="stroke-width: 0.85 ;&st7;  " d=" M   203.97,   697.25  L   203.97,   701.50  " /></g><g ewd:figtype="gp" ewd:figID="40" ewd:code="IG"><path style="stroke-width: 0.85 ;&st7;  " d=" M   253.54,   710.00  L   256.37,   710.00  " /><path style="stroke-width: 0.85 ;&st7;  " d=" M   252.12,   707.17  L   257.79,   707.17  " /><path style="stroke-width: 0.85 ;&st7;  " d=" M   250.71,   704.33  L   259.21,   704.33  " /><path style="stroke-width: 0.85 ;&st7;  " d=" M   246.46,   701.50  L   263.46,   701.50  " /><path style="stroke-width: 0.85 ;&st7;  " d=" M   254.96,   697.25  L   254.96,   701.50  " /></g></svg>