<?xml version="1.0" encoding="utf-8"?>
<!DOCTYPE svg PUBLIC "-//W3C//DTD SVG 1.0//EN" "http://www.w3.org/TR/2001/REC-SVG-20010904/DTD/svg10.dtd"[
	<!ENTITY ns_flows "http://ns.adobe.com/Flows/1.0/">
	<!ENTITY ns_svg "http://www.w3.org/2000/svg">
	<!ENTITY ns_xlink "http://www.w3.org/1999/xlink">
	<!ENTITY st0 "font-size:7px;font-family:'MS-PGothic';adobe-font-script:japanese;">
	<!ENTITY st1 "font-size:6px;font-family:'ArialMT';">
	<!-- White fill  -->
	<!ENTITY st2 "fill:#FFFFFF;stroke:#000000; stroke-width:1.41;stroke-linecap:round;stroke-linejoin:round;">
	<!-- Yellow fill  -->
	<!ENTITY st3 "fill:#FFFFCC;stroke:#FFFFCC; stroke-width:0.1;stroke-linecap:round;stroke-linejoin:round;">
	<!-- Gray fill  -->
	<!ENTITY st4 "fill:#CCCCCC;stroke:#CCCCCC; stroke-width:0.1;stroke-linecap:round;stroke-linejoin:round;">
	<!-- Light-blue fill -->
	<!ENTITY st5 "fill:#CCECF4;stroke:#000000; stroke-width:1.133;stroke-linecap:round;stroke-linejoin:round;">
	<!ENTITY st6 "fill:none;stroke-linecap:butt; stroke-linejoin:round;">
	<!ENTITY st7 "fill:none;stroke:#000000;stroke-linecap:round;stroke-linejoin:round;">
	<!ENTITY st8 "enable-background:new    ;">
	<!-- Black fill -->
	<!ENTITY st9 "fill:#000000;stroke:#000000; stroke-linecap:round;stroke-linejoin:round;">
	<!-- SRS note   -->
	<!ENTITY st10 "font-size:9px;font-family:'ArialMT';">
	<!ENTITY st11 "font-size:9px;font-family:'Svg Symbol';">
	<!ENTITY st12 "font-size:6px;font-family:'Svg Symbol';">
	<!ENTITY st13 "fill:none;stroke:#ff0000;stroke-linecap:round;stroke-linejoin:round;">
	<!-- Yellow fill  -->
	<!ENTITY st14 "fill:#FFFF00;stroke:#FFFF00; stroke-width:0.1;stroke-linecap:round;stroke-linejoin:round;">
	<!ENTITY st15 "font-size:6px;font-family:'MS-PGothic';adobe-font-script:japanese;">
	<!ENTITY st16 "1.00 0.00 0.00 1.00">
	<!ENTITY st17 "0.00 -1.00 1.00 0.00">
	<!ENTITY st18 "font-size:6px;font-family:'Arial';">
	<!ENTITY st19 "font-size:9px;font-family:'Arial';">
	<!ENTITY st20 "font-size:6px;font-family:'MS-PGothic','MS PGothic';adobe-font-script:japanese;">
	<!ENTITY st21 "font-size:7px;font-family:'MS-PGothic','MS PGothic';adobe-font-script:japanese;">
	<!ATTLIST svg
		xmlns:ewd CDATA #FIXED "http://shcl.co.jp/ewd"
		xmlns:a CDATA #FIXED "http://ns.adobe.com/AdobeSVGViewerExtensions/3.0/"
		ewd:ver CDATA #IMPLIED
	>
	<!ATTLIST a
		ewd:lineID CDATA #IMPLIED
		ewd:groupID CDATA #IMPLIED
		ewd:figtype CDATA #IMPLIED
		ewd:code CDATA #IMPLIED
		ewd:figID CDATA #IMPLIED
		ewd:pinNo CDATA #IMPLIED
		ewd:comment CDATA #IMPLIED >
	<!ATTLIST g
		ewd:lineID CDATA #IMPLIED
		ewd:groupID CDATA #IMPLIED
		ewd:figtype CDATA #IMPLIED
		ewd:code CDATA #IMPLIED
		ewd:figID CDATA #IMPLIED
		ewd:pinNo CDATA #IMPLIED
		ewd:comment CDATA #IMPLIED >
	<!ATTLIST text
		ewd:textID CDATA #IMPLIED >
	<!ATTLIST title
		ewd:textID CDATA #IMPLIED >
]>
<!-- Generator: Shintec Hozumi YS   -->
<svg onload="call_execInitLoadProc_svg('system')" style="overflow:visible;  enable-background:new 0 0 1980.057 710.000" viewBox="0 0 1980.057 710.000" height="710.000" width="1980.057" xml:space="preserve" ewd:ver="2.3.1.16" xmlns="&ns_svg;" xmlns:a="http://ns.adobe.com/AdobeSVGViewerExtensions/3.0/" xmlns:ewd="http://shcl.co.jp/ewd" xmlns:xlink="&ns_xlink;">
<path style="stroke-width: 1.42 ;&st7;  " d=" M  1385.27,   324.73  L  1393.77,   324.73  " /><path style="stroke-width: 1.42 ;&st7;  " d=" M  1385.27,   384.22  L  1393.77,   384.22  " /><path style="stroke-width: 1.42 ;&st7;  " d=" M  1402.27,   588.19  L  1393.77,   588.19  " /><path style="stroke-width: 1.42 ;&st7;  " d=" M  1402.27,   533.67  L  1397.29,   528.70  " /><path style="stroke-width: 1.42 ;&st7;  " d=" M  1385.27,   540.73  L  1390.24,   545.69  " /><path style="stroke-width: 1.42 ;&st7;  " d=" M  1397.29,   545.69  L  1402.27,   540.73  " /><path style="stroke-width: 1.42 ;&st7;  " d=" M  1390.24,   528.70  L  1385.27,   533.67  " /><path style="stroke-width: 1.42 ;&st7;  " d=" M  1121.81,   304.21  L  1116.84,   299.24  " /><path style="stroke-width: 1.42 ;&st7;  " d=" M  1104.82,   311.26  L  1109.78,   316.23  " /><path style="stroke-width: 1.42 ;&st7;  " d=" M  1116.84,   316.23  L  1121.81,   311.26  " /><path style="stroke-width: 1.42 ;&st7;  " d=" M  1109.78,   299.24  L  1104.82,   304.21  " /><path style="stroke-width: 1.42 ;&st7;  " d=" M  1121.81,   567.66  L  1116.84,   562.69  " /><path style="stroke-width: 1.42 ;&st7;  " d=" M  1104.82,   574.72  L  1109.78,   579.69  " /><path style="stroke-width: 1.42 ;&st7;  " d=" M  1116.84,   579.69  L  1121.81,   574.72  " /><path style="stroke-width: 1.42 ;&st7;  " d=" M  1109.78,   562.69  L  1104.82,   567.66  " /><path style="stroke-width: 1.42 ;&st7;  " d=" M  1181.30,   304.21  L  1176.33,   299.24  " /><path style="stroke-width: 1.42 ;&st7;  " d=" M  1164.31,   311.26  L  1169.27,   316.23  " /><path style="stroke-width: 1.42 ;&st7;  " d=" M  1176.33,   316.23  L  1181.30,   311.26  " /><path style="stroke-width: 1.42 ;&st7;  " d=" M  1169.27,   299.24  L  1164.31,   304.21  " /><path style="stroke-width: 1.42 ;&st7;  " d=" M  1181.30,   567.66  L  1176.33,   562.69  " /><path style="stroke-width: 1.42 ;&st7;  " d=" M  1164.31,   574.72  L  1169.27,   579.69  " /><path style="stroke-width: 1.42 ;&st7;  " d=" M  1176.33,   579.69  L  1181.30,   574.72  " /><path style="stroke-width: 1.42 ;&st7;  " d=" M  1169.27,   562.69  L  1164.31,   567.66  " /><path style="stroke-width: 1.42 ;&st7;  " d=" M  1240.79,   304.21  L  1235.82,   299.24  " /><path style="stroke-width: 1.42 ;&st7;  " d=" M  1223.80,   311.26  L  1228.76,   316.23  " /><path style="stroke-width: 1.42 ;&st7;  " d=" M  1235.82,   316.23  L  1240.79,   311.26  " /><path style="stroke-width: 1.42 ;&st7;  " d=" M  1228.76,   299.24  L  1223.80,   304.21  " /><path style="stroke-width: 1.42 ;&st7;  " d=" M  1240.79,   567.66  L  1235.82,   562.69  " /><path style="stroke-width: 1.42 ;&st7;  " d=" M  1223.80,   574.72  L  1228.76,   579.69  " /><path style="stroke-width: 1.42 ;&st7;  " d=" M  1235.82,   579.69  L  1240.79,   574.72  " /><path style="stroke-width: 1.42 ;&st7;  " d=" M  1228.76,   562.69  L  1223.80,   567.66  " /><path style="stroke-width: 1.42 ;&st7;  " d=" M  1466.73,   605.18  L  1461.76,   610.16  " /><path style="stroke-width: 1.42 ;&st7;  " d=" M  1473.78,   622.18  L  1478.75,   617.21  " /><path style="stroke-width: 1.42 ;&st7;  " d=" M  1461.76,   617.21  L  1466.72,   622.18  " /><path style="stroke-width: 1.42 ;&st7;  " d=" M  1478.75,   610.16  L  1473.78,   605.18  " /><path style="stroke-width: 1.42 ;&st7;  " d=" M  1478.75,   270.21  L  1473.78,   265.24  " /><path style="stroke-width: 1.42 ;&st7;  " d=" M  1461.76,   277.27  L  1466.72,   282.24  " /><path style="stroke-width: 1.42 ;&st7;  " d=" M  1473.78,   282.24  L  1478.75,   277.27  " /><path style="stroke-width: 1.42 ;&st7;  " d=" M  1466.73,   265.24  L  1461.76,   270.21  " /><path style="stroke-width: 1.42 ;&st7;  " d=" M  1402.27,   270.21  L  1397.29,   265.24  " /><path style="stroke-width: 1.42 ;&st7;  " d=" M  1385.27,   277.27  L  1390.24,   282.24  " /><path style="stroke-width: 1.42 ;&st7;  " d=" M  1397.29,   282.24  L  1402.27,   277.27  " /><path style="stroke-width: 1.42 ;&st7;  " d=" M  1390.24,   265.24  L  1385.27,   270.21  " /><path style="stroke-width: 1.42 ;&st7;  " d=" M  1402.27,   486.20  L  1393.77,   486.20  " /><text style="&st18;" transform="matrix(&st17;  1169.11  356.55 )">G</text><text style="&st18;" transform="matrix(&st17;  1466.56  356.55 )">G</text><text style="&st18;" transform="matrix(&st17;  1477.89  362.72 )">(*2 *4)</text><text style="&st18;" transform="matrix(&st17;  1466.56  504.67 )">W-B</text><text style="&st18;" transform="matrix(&st17;  1477.89  507.19 )">(*2 *4)</text><text style="&st18;" transform="matrix(&st17;  1390.07  301.31 )">G</text><text style="&st18;" transform="matrix(&st17;  1401.4  303.79 )">(*2)</text><text style="&st18;" transform="matrix(&st17;  1390.07  365.05 )">G</text><text style="&st18;" transform="matrix(&st17;  1401.4  369.2 )">(*14)</text><text style="&st18;" transform="matrix(&st17;  1339.08  386.3 )">G</text><text style="&st18;" transform="matrix(&st17;  1350.41  390.45 )">(*15)</text><text style="&st18;" transform="matrix(&st17;  1390.07  411.79 )">G</text><text style="&st18;" transform="matrix(&st17;  1401.4  415.94 )">(*14)</text><text style="&st18;" transform="matrix(&st17;  1390.07  470.68 )">W-B</text><text style="&st18;" transform="matrix(&st17;  1401.4  471.18 )">(*14)</text><text style="&st18;" transform="matrix(&st17;  1339.08  513.17 )">W-B</text><text style="&st18;" transform="matrix(&st17;  1350.41  513.68 )">(*15)</text><text style="&st18;" transform="matrix(&st17;  1390.07  513.17 )">W-B</text><text style="&st18;" transform="matrix(&st17;  1401.4  513.68 )">(*14)</text><text style="&st18;" transform="matrix(&st17;  1390.07  568.41 )">W-B</text><text style="&st18;" transform="matrix(&st17;  1401.4  567.25 )">(*2)</text><text style="&st18;" transform="matrix(&st17;  1228.6  356.24 )">B</text><text style="&st18;" transform="matrix(&st17;  1239.93  359.03 )">(*1)</text><text style="&st18;" transform="matrix(&st17;  1288.09  356.55 )">G</text><text style="&st18;" transform="matrix(&st17;  1299.42  359.03 )">(*1)</text><text style="&st18;" transform="matrix(&st17;  1228.6  513.17 )">W-B</text><text style="&st18;" transform="matrix(&st17;  1239.93  512.01 )">(*1)</text><text style="&st18;" transform="matrix(&st17;  1288.09  513.17 )">W-B</text><text style="&st18;" transform="matrix(&st17;  1299.42  512.01 )">(*1)</text><text style="&st18;" transform="matrix(&st16;  1200.58  567.49 )">W-B</text><text style="&st18;" transform="matrix(&st17;  1109.62  356.24 )">B</text><text style="&st18;" transform="matrix(&st17;  1120.95  359.03 )">(*1)</text><text style="&st18;" transform="matrix(&st17;  1109.62  513.17 )">W-B</text><text style="&st18;" transform="matrix(&st17;  1120.95  512.01 )">(*1)</text><text style="&st18;" transform="matrix(&st16;  1059.75  304.04 )">G</text><text style="&st18;" transform="matrix(&st16;  1057.26  315.37 )">(*1)</text><text style="&st18;" transform="matrix(&st16;  1056.1  567.49 )">W-B</text><text style="&st18;" transform="matrix(&st16;  1057.26  578.82 )">(*1)</text><text style="&st18;" transform="matrix(&st17;  1169.11  513.17 )">W-B</text><text style="&st18;" transform="matrix(&st17;  1180.44  512.01 )">(*1)</text><text style="&st18;" transform="matrix(&st16;  1144.73  304.04 )">G</text><text style="&st18;" transform="matrix(&st16;  1142.25  315.37 )">(*1)</text><text style="&st18;" transform="matrix(&st16;  1141.09  567.49 )">W-B</text><text style="&st18;" transform="matrix(&st16;  1142.25  578.82 )">(*1)</text><text style="&st18;" transform="matrix(&st17;  1180.44  359.03 )">(*1)</text><text style="&st18;" transform="matrix(&st17;  1466.56  653.4 )">W-B</text><text style="&st18;" transform="matrix(&st17;  1477.89  652.24 )">(*2)</text><text style="&st18;" transform="matrix(&st16;  1425.19  270.04 )">G</text><text style="&st18;" transform="matrix(&st16;  1422.7  281.37 )">(*2)</text><text style="&st18;" transform="matrix(&st17;  1109.62  610.91 )">W-B</text><text style="&st18;" transform="matrix(&st17;  1120.95  609.74 )">(*1)</text><text style="&st18;" transform="matrix(&st16;  1008.76  270.04 )">G</text><text style="&st18;" transform="matrix(&st16;  1006.27  281.37 )">(*2)</text><text style="&st18;" transform="matrix(&st16;  1008.76  304.04 )">G</text><text style="&st18;" transform="matrix(&st16;  1006.27  315.37 )">(*1)</text><text style="&st18;" transform="matrix(&st16;  1201.74  578.82 )">(*1)</text><text style="&st18;" transform="matrix(&st16;  1204.22  304.04 )">G</text><text style="&st18;" transform="matrix(&st16;  1201.74  315.37 )">(*1)</text><text style="&st18;" transform="matrix(&st16;  1421.54  609.99 )">W-B</text><text style="&st18;" transform="matrix(&st16;  1422.7  621.32 )">(*2)</text><text style="&st18;" transform="matrix(&st16;  1006.27  578.82 )">(*1)</text><text style="&st18;" transform="matrix(&st16;  1005.11  567.49 )">W-B</text><text style="&st18;" transform="matrix(&st16;  1057.26  281.37 )">(*2)</text><text style="&st18;" transform="matrix(&st16;  1059.75  270.04 )">G</text><g ewd:figtype="conn" ewd:figID="4" ewd:code="T16"><path style="stroke-width: 0.85 ;&st7;  " d=" M  1232.29,   426.71  L  1232.29,   430.96  " /><path style="stroke-width: 0.85 ;&st7;  " d=" M  1232.29,   439.46  L  1232.29,   443.71  " /><path style="stroke-width: 0.85 ;&st7;   " d=" M  1232.29,   439.46  C  1233.85    439.47   1235.12    438.22   1235.13    436.66  " /><path style="stroke-width: 0.85 ;&st7;   " d=" M  1235.13,   436.66  C  1235.14    435.11   1233.88    433.84   1232.33    433.83  " /><path style="stroke-width: 0.85 ;&st7;   " d=" M  1232.33,   433.83  C  1231.30    433.82   1230.41    434.32   1229.89    435.21  " /><path style="stroke-width: 0.85 ;&st7;   " d=" M  1229.89,   435.21  C  1230.68    436.55   1232.41    437.00   1233.74    436.20  " /><path style="stroke-width: 0.85 ;&st7;   " d=" M  1233.74,   436.20  C  1235.08    435.41   1235.53    433.68   1234.74    432.35  " /><path style="stroke-width: 0.85 ;&st7;   " d=" M  1234.74,   432.35  C  1234.21    431.46   1233.33    430.96   1232.29    430.96  " /><path style="stroke-width: 1.42 ;&st7;   " d=" M  1240.79,   435.21  C  1240.79    430.52   1236.99    426.71   1232.29    426.71  " /><path style="stroke-width: 1.42 ;&st7;   " d=" M  1232.29,   426.71  C  1227.60    426.71   1223.80    430.52   1223.80    435.21  " /><path style="stroke-width: 1.42 ;&st7;   " d=" M  1223.80,   435.21  C  1223.80    439.91   1227.60    443.71   1232.29    443.71  " /><path style="stroke-width: 1.42 ;&st7;   " d=" M  1232.29,   443.71  C  1236.99    443.71   1240.79    439.91   1240.79    435.21  " /><text style="&st18;" transform="matrix(&st16;  1225.95  451.9 )">2</text><text style="&st18;" transform="matrix(&st16;  1225.95  423.02 )">1</text><g ewd:figtype="title"><text style="&st18;" transform="matrix(&st17;  1255.51  446.62 )" ewd:textID="28">License Plate Light Assembly LH</text><text style="&st18;" transform="matrix(&st17;  1248.69  446.61 )">T16</text></g></g><g ewd:figtype="conn" ewd:figID="9" ewd:code="T15"><path style="stroke-width: 0.85 ;&st7;  " d=" M  1113.31,   426.71  L  1113.31,   430.96  " /><path style="stroke-width: 0.85 ;&st7;  " d=" M  1113.31,   439.46  L  1113.31,   443.71  " /><path style="stroke-width: 0.85 ;&st7;   " d=" M  1113.31,   439.46  C  1114.87    439.47   1116.14    438.22   1116.15    436.66  " /><path style="stroke-width: 0.85 ;&st7;   " d=" M  1116.15,   436.66  C  1116.16    435.11   1114.90    433.84   1113.35    433.83  " /><path style="stroke-width: 0.85 ;&st7;   " d=" M  1113.35,   433.83  C  1112.32    433.82   1111.43    434.32   1110.91    435.21  " /><path style="stroke-width: 0.85 ;&st7;   " d=" M  1110.91,   435.21  C  1111.70    436.55   1113.43    437.00   1114.76    436.20  " /><path style="stroke-width: 0.85 ;&st7;   " d=" M  1114.76,   436.20  C  1116.10    435.41   1116.55    433.68   1115.76    432.35  " /><path style="stroke-width: 0.85 ;&st7;   " d=" M  1115.76,   432.35  C  1115.23    431.46   1114.35    430.96   1113.31    430.96  " /><path style="stroke-width: 1.42 ;&st7;   " d=" M  1121.81,   435.21  C  1121.81    430.52   1118.01    426.71   1113.31    426.71  " /><path style="stroke-width: 1.42 ;&st7;   " d=" M  1113.31,   426.71  C  1108.62    426.71   1104.82    430.52   1104.82    435.21  " /><path style="stroke-width: 1.42 ;&st7;   " d=" M  1104.82,   435.21  C  1104.82    439.91   1108.62    443.71   1113.31    443.71  " /><path style="stroke-width: 1.42 ;&st7;   " d=" M  1113.31,   443.71  C  1118.01    443.71   1121.81    439.91   1121.81    435.21  " /><text style="&st18;" transform="matrix(&st16;  1106.97  451.9 )">2</text><text style="&st18;" transform="matrix(&st16;  1106.97  423.02 )">1</text><g ewd:figtype="title"><text style="&st18;" transform="matrix(&st17;  1136.53  446.62 )" ewd:textID="28">License Plate Light Assembly LH</text><text style="&st18;" transform="matrix(&st17;  1129.71  446.61 )">T15</text></g></g><g ewd:figtype="conn" ewd:figID="10" ewd:code="T12"><path style="stroke-width: 0.85 ;&st7;  " d=" M  1172.80,   426.71  L  1172.80,   430.96  " /><path style="stroke-width: 0.85 ;&st7;  " d=" M  1172.80,   439.46  L  1172.80,   443.71  " /><path style="stroke-width: 0.85 ;&st7;   " d=" M  1172.80,   439.46  C  1174.36    439.47   1175.63    438.22   1175.64    436.66  " /><path style="stroke-width: 0.85 ;&st7;   " d=" M  1175.64,   436.66  C  1175.65    435.11   1174.39    433.84   1172.84    433.83  " /><path style="stroke-width: 0.85 ;&st7;   " d=" M  1172.84,   433.83  C  1171.81    433.82   1170.92    434.32   1170.40    435.21  " /><path style="stroke-width: 0.85 ;&st7;   " d=" M  1170.40,   435.21  C  1171.19    436.55   1172.92    437.00   1174.25    436.20  " /><path style="stroke-width: 0.85 ;&st7;   " d=" M  1174.25,   436.20  C  1175.59    435.41   1176.04    433.68   1175.25    432.35  " /><path style="stroke-width: 0.85 ;&st7;   " d=" M  1175.25,   432.35  C  1174.72    431.46   1173.84    430.96   1172.80    430.96  " /><path style="stroke-width: 1.42 ;&st7;   " d=" M  1181.30,   435.21  C  1181.30    430.52   1177.50    426.71   1172.80    426.71  " /><path style="stroke-width: 1.42 ;&st7;   " d=" M  1172.80,   426.71  C  1168.11    426.71   1164.31    430.52   1164.31    435.21  " /><path style="stroke-width: 1.42 ;&st7;   " d=" M  1164.31,   435.21  C  1164.31    439.91   1168.11    443.71   1172.80    443.71  " /><path style="stroke-width: 1.42 ;&st7;   " d=" M  1172.80,   443.71  C  1177.50    443.71   1181.30    439.91   1181.30    435.21  " /><text style="&st18;" transform="matrix(&st16;  1166.46  451.9 )">2</text><text style="&st18;" transform="matrix(&st16;  1166.46  423.02 )">1</text><g ewd:figtype="title"><text style="&st18;" transform="matrix(&st17;  1196.02  446.62 )" ewd:textID="29">License Plate Light Assembly RH</text><text style="&st18;" transform="matrix(&st17;  1189.2  446.61 )">T12</text></g></g><g ewd:figtype="conn" ewd:figID="12" ewd:code="T13"><path style="stroke-width: 0.85 ;&st7;  " d=" M  1291.78,   426.71  L  1291.78,   430.96  " /><path style="stroke-width: 0.85 ;&st7;  " d=" M  1291.78,   439.46  L  1291.78,   443.71  " /><path style="stroke-width: 0.85 ;&st7;   " d=" M  1291.78,   439.46  C  1293.34    439.47   1294.61    438.22   1294.62    436.66  " /><path style="stroke-width: 0.85 ;&st7;   " d=" M  1294.62,   436.66  C  1294.63    435.11   1293.37    433.84   1291.82    433.83  " /><path style="stroke-width: 0.85 ;&st7;   " d=" M  1291.82,   433.83  C  1290.79    433.82   1289.90    434.32   1289.38    435.21  " /><path style="stroke-width: 0.85 ;&st7;   " d=" M  1289.38,   435.21  C  1290.17    436.55   1291.90    437.00   1293.23    436.20  " /><path style="stroke-width: 0.85 ;&st7;   " d=" M  1293.23,   436.20  C  1294.57    435.41   1295.02    433.68   1294.23    432.35  " /><path style="stroke-width: 0.85 ;&st7;   " d=" M  1294.23,   432.35  C  1293.70    431.46   1292.82    430.96   1291.78    430.96  " /><path style="stroke-width: 1.42 ;&st7;   " d=" M  1300.28,   435.21  C  1300.28    430.52   1296.48    426.71   1291.78    426.71  " /><path style="stroke-width: 1.42 ;&st7;   " d=" M  1291.78,   426.71  C  1287.09    426.71   1283.29    430.52   1283.29    435.21  " /><path style="stroke-width: 1.42 ;&st7;   " d=" M  1283.29,   435.21  C  1283.29    439.91   1287.09    443.71   1291.78    443.71  " /><path style="stroke-width: 1.42 ;&st7;   " d=" M  1291.78,   443.71  C  1296.48    443.71   1300.28    439.91   1300.28    435.21  " /><text style="&st18;" transform="matrix(&st16;  1285.44  451.9 )">2</text><text style="&st18;" transform="matrix(&st16;  1285.44  423.02 )">1</text><g ewd:figtype="title"><text style="&st18;" transform="matrix(&st17;  1315.0  446.62 )" ewd:textID="29">License Plate Light Assembly RH</text><text style="&st18;" transform="matrix(&st17;  1308.18  446.61 )">T13</text></g></g><g ewd:figtype="conn" ewd:figID="13" ewd:code="b4"><path style="stroke-width: 0.85 ;&st7;  " d=" M  1342.78,   426.71  L  1342.78,   430.96  " /><path style="stroke-width: 0.85 ;&st7;  " d=" M  1342.78,   439.46  L  1342.78,   443.71  " /><path style="stroke-width: 0.85 ;&st7;   " d=" M  1342.78,   439.46  C  1344.33    439.47   1345.60    438.22   1345.61    436.66  " /><path style="stroke-width: 0.85 ;&st7;   " d=" M  1345.61,   436.66  C  1345.62    435.11   1344.36    433.84   1342.81    433.83  " /><path style="stroke-width: 0.85 ;&st7;   " d=" M  1342.81,   433.83  C  1341.78    433.82   1340.89    434.32   1340.37    435.21  " /><path style="stroke-width: 0.85 ;&st7;   " d=" M  1340.37,   435.21  C  1341.16    436.55   1342.89    437.00   1344.23    436.20  " /><path style="stroke-width: 0.85 ;&st7;   " d=" M  1344.23,   436.20  C  1345.57    435.41   1346.01    433.68   1345.22    432.35  " /><path style="stroke-width: 0.85 ;&st7;   " d=" M  1345.22,   432.35  C  1344.69    431.46   1343.81    430.96   1342.78    430.96  " /><path style="stroke-width: 1.42 ;&st7;   " d=" M  1351.27,   435.21  C  1351.27    430.52   1347.47    426.71   1342.78    426.71  " /><path style="stroke-width: 1.42 ;&st7;   " d=" M  1342.78,   426.71  C  1338.08    426.71   1334.28    430.52   1334.28    435.21  " /><path style="stroke-width: 1.42 ;&st7;   " d=" M  1334.28,   435.21  C  1334.28    439.91   1338.08    443.71   1342.78    443.71  " /><path style="stroke-width: 1.42 ;&st7;   " d=" M  1342.78,   443.71  C  1347.47    443.71   1351.27    439.91   1351.27    435.21  " /><text style="&st18;" transform="matrix(&st16;  1336.44  451.9 )">2</text><text style="&st18;" transform="matrix(&st16;  1336.44  423.02 )">1</text><g ewd:figtype="title"><text style="&st18;" transform="matrix(&st17;  1365.99  446.62 )" ewd:textID="27">License Plate <tspan x="0 " dy="6.0">Light Assembly</tspan></text><text style="&st18;" transform="matrix(&st17;  1359.17  446.61 )">b4</text></g></g><g ewd:figtype="conn" ewd:figID="14" ewd:code="e1"><path style="stroke-width: 0.85 ;&st7;  " d=" M  1393.77,   426.71  L  1393.77,   430.96  " /><path style="stroke-width: 0.85 ;&st7;  " d=" M  1393.77,   439.46  L  1393.77,   443.71  " /><path style="stroke-width: 0.85 ;&st7;   " d=" M  1393.77,   439.46  C  1395.32    439.47   1396.59    438.22   1396.60    436.66  " /><path style="stroke-width: 0.85 ;&st7;   " d=" M  1396.60,   436.66  C  1396.61    435.11   1395.36    433.84   1393.80    433.83  " /><path style="stroke-width: 0.85 ;&st7;   " d=" M  1393.80,   433.83  C  1392.77    433.82   1391.89    434.32   1391.36    435.21  " /><path style="stroke-width: 0.85 ;&st7;   " d=" M  1391.36,   435.21  C  1392.15    436.55   1393.88    437.00   1395.22    436.20  " /><path style="stroke-width: 0.85 ;&st7;   " d=" M  1395.22,   436.20  C  1396.56    435.41   1397.00    433.68   1396.21    432.35  " /><path style="stroke-width: 0.85 ;&st7;   " d=" M  1396.21,   432.35  C  1395.68    431.46   1394.80    430.96   1393.77    430.96  " /><path style="stroke-width: 1.42 ;&st7;   " d=" M  1402.27,   435.21  C  1402.27    430.52   1398.46    426.71   1393.77    426.71  " /><path style="stroke-width: 1.42 ;&st7;   " d=" M  1393.77,   426.71  C  1389.07    426.71   1385.27    430.52   1385.27    435.21  " /><path style="stroke-width: 1.42 ;&st7;   " d=" M  1385.27,   435.21  C  1385.27    439.91   1389.07    443.71   1393.77    443.71  " /><path style="stroke-width: 1.42 ;&st7;   " d=" M  1393.77,   443.71  C  1398.46    443.71   1402.27    439.91   1402.27    435.21  " /><text style="&st18;" transform="matrix(&st16;  1387.43  451.9 )">1</text><text style="&st18;" transform="matrix(&st16;  1387.43  423.02 )">2</text><g ewd:figtype="title"><text style="&st18;" transform="matrix(&st17;  1416.98  446.62 )" ewd:textID="27">License Plate Light Assembly</text><text style="&st18;" transform="matrix(&st17;  1410.16  446.61 )">e1</text></g></g><g ewd:figtype="conn" ewd:figID="16" ewd:code="T5"><path style="stroke-width: 0.85 ;&st7;  " d=" M  1470.25,   439.46  L  1470.25,   443.71  " /><path style="stroke-width: 0.85 ;&st7;  " d=" M  1470.25,   426.71  L  1470.25,   430.96  " /><path style="stroke-width: 1.42 ;&st7;   " d=" M  1478.75,   435.21  C  1478.75    430.52   1474.95    426.71   1470.25    426.71  " /><path style="stroke-width: 1.42 ;&st7;   " d=" M  1470.25,   426.71  C  1465.56    426.71   1461.76    430.52   1461.76    435.21  " /><path style="stroke-width: 1.42 ;&st7;   " d=" M  1461.76,   435.21  C  1461.76    439.91   1465.56    443.71   1470.25    443.71  " /><path style="stroke-width: 1.42 ;&st7;   " d=" M  1470.25,   443.71  C  1474.95    443.71   1478.75    439.91   1478.75    435.21  " /><path style="stroke-width: 0.85 ;&st7;   " d=" M  1467.85,   435.21  C  1468.64    436.55   1470.37    437.00   1471.70    436.20  " /><path style="stroke-width: 0.85 ;&st7;   " d=" M  1471.70,   436.20  C  1473.04    435.41   1473.49    433.68   1472.70    432.35  " /><path style="stroke-width: 0.85 ;&st7;   " d=" M  1472.70,   432.35  C  1472.17    431.46   1471.29    430.96   1470.25    430.96  " /><path style="stroke-width: 0.85 ;&st7;   " d=" M  1470.25,   439.46  C  1471.81    439.47   1473.08    438.22   1473.09    436.66  " /><path style="stroke-width: 0.85 ;&st7;   " d=" M  1473.09,   436.66  C  1473.10    435.11   1471.84    433.84   1470.29    433.83  " /><path style="stroke-width: 0.85 ;&st7;   " d=" M  1470.29,   433.83  C  1469.26    433.82   1468.37    434.32   1467.85    435.21  " /><path style="stroke-width: 1.42 ;&st7;  " d=" M  1444.76,   409.72  L  1444.76,   460.71  L  1487.25,   460.71  L  1487.25,   409.72  L  1444.76,   409.72  " /><path style="stroke-width: 0.85 ;&st7;  " d=" M  1470.25,   426.71  L  1470.25,   409.72  " /><path style="stroke-width: 0.85 ;&st7;  " d=" M  1470.25,   443.71  L  1470.25,   460.71  " /><text style="&st18;" transform="matrix(&st16;  1472.84  457.02 )">E</text><text style="&st18;" transform="matrix(&st17;  1458.06  439.81 )" ewd:textID="38">Tail</text><text style="&st18;" transform="matrix(&st16;  1472.84  417.91 )">B</text><text style="&st18;" transform="matrix(&st16;  1460.77  467.21 )">5</text><path style="stroke-width: 1.42 ;&st7;   " d=" M  1474.79,   465.24  C  1474.79    462.74   1472.76    460.71   1470.25    460.71  " /><path style="stroke-width: 1.42 ;&st7;   " d=" M  1470.25,   460.71  C  1467.75    460.71   1465.72    462.74   1465.72    465.24  " /><path style="stroke-width: 1.42 ;&st7;   " d=" M  1465.72,   465.24  C  1465.72    467.74   1467.75    469.77   1470.25    469.77  " /><path style="stroke-width: 1.42 ;&st7;   " d=" M  1470.25,   469.77  C  1472.76    469.77   1474.79    467.74   1474.79    465.24  " /><text style="&st18;" transform="matrix(&st16;  1467.99  467.21 )">B</text><text style="&st18;" transform="matrix(&st16;  1460.77  407.15 )">3</text><path style="stroke-width: 1.42 ;&st7;   " d=" M  1474.79,   405.18  C  1474.79    402.68   1472.76    400.65   1470.25    400.65  " /><path style="stroke-width: 1.42 ;&st7;   " d=" M  1470.25,   400.65  C  1467.75    400.65   1465.72    402.68   1465.72    405.18  " /><path style="stroke-width: 1.42 ;&st7;   " d=" M  1465.72,   405.18  C  1465.72    407.69   1467.75    409.72   1470.25    409.72  " /><path style="stroke-width: 1.42 ;&st7;   " d=" M  1470.25,   409.72  C  1472.76    409.72   1474.79    407.69   1474.79    405.18  " /><text style="&st18;" transform="matrix(&st16;  1467.99  407.15 )">B</text><g ewd:figtype="title"><text style="&st18;" transform="matrix(&st17;  1495.15  463.61 )">T5(B)</text><text style="&st18;" transform="matrix(&st17;  1501.97  463.61 )" ewd:textID="35">Rear Combination Light Assembly LH</text></g></g><g ewd:figtype="w2w" ewd:figID="33" ewd:code="bT1"><path style="stroke-width: 1.42 ;&st7;  " d=" M  1398.02,   597.25  L  1393.77,   593.00  L  1389.52,   597.25  " /><path style="stroke-width: 1.42 ;&st7;  " d=" M  1398.02,   593.85  L  1393.77,   589.60  L  1389.52,   593.85  " /><text style="&st18;" transform="matrix(&st16;  1380.35  585.91 )">2</text></g><g ewd:figtype="w2w" ewd:figID="34" ewd:code="eb2"><path style="stroke-width: 1.42 ;&st7;  " d=" M  1398.02,   495.27  L  1393.77,   491.02  L  1389.52,   495.27  " /><path style="stroke-width: 1.42 ;&st7;  " d=" M  1398.02,   491.87  L  1393.77,   487.62  L  1389.52,   491.87  " /><text style="&st18;" transform="matrix(&st16;  1380.35  483.92 )">2</text></g><g ewd:figtype="w2w" ewd:figID="35" ewd:code="eb2"><path style="stroke-width: 1.42 ;&st7;  " d=" M  1398.02,   378.56  L  1393.77,   382.80  L  1389.52,   378.56  " /><path style="stroke-width: 1.42 ;&st7;  " d=" M  1389.52,   375.16  L  1393.77,   379.41  L  1398.02,   375.16  " /><text style="&st18;" transform="matrix(&st16;  1380.35  390.44 )">1</text></g><g ewd:figtype="w2w" ewd:figID="36" ewd:code="bT1"><path style="stroke-width: 1.42 ;&st7;  " d=" M  1398.02,   319.07  L  1393.77,   323.31  L  1389.52,   319.07  " /><path style="stroke-width: 1.42 ;&st7;  " d=" M  1389.52,   315.67  L  1393.77,   319.92  L  1398.02,   315.67  " /><text style="&st18;" transform="matrix(&st16;  1380.35  330.95 )">3</text></g><g ewd:figtype="gp" ewd:figID="43" ewd:code="TB"><path style="stroke-width: 0.85 ;&st7;  " d=" M  1113.31,   697.25  L  1113.31,   701.50  " /><path style="stroke-width: 0.85 ;&st7;  " d=" M  1104.81,   701.50  L  1121.81,   701.50  " /><path style="stroke-width: 0.85 ;&st7;  " d=" M  1109.06,   704.33  L  1117.56,   704.33  " /><path style="stroke-width: 0.85 ;&st7;  " d=" M  1110.48,   707.17  L  1116.15,   707.17  " /><path style="stroke-width: 0.85 ;&st7;  " d=" M  1111.90,   710.00  L  1114.73,   710.00  " /></g><g ewd:figtype="gp" ewd:figID="44" ewd:code="TA"><path style="stroke-width: 0.85 ;&st7;  " d=" M  1470.25,   697.25  L  1470.25,   701.50  " /><path style="stroke-width: 0.85 ;&st7;  " d=" M  1461.76,   701.50  L  1478.75,   701.50  " /><path style="stroke-width: 0.85 ;&st7;  " d=" M  1466.00,   704.33  L  1474.50,   704.33  " /><path style="stroke-width: 0.85 ;&st7;  " d=" M  1467.42,   707.17  L  1473.09,   707.17  " /><path style="stroke-width: 0.85 ;&st7;  " d=" M  1468.84,   710.00  L  1471.67,   710.00  " /></g></svg>