<?xml version="1.0" encoding="utf-8"?>
<!DOCTYPE svg PUBLIC "-//W3C//DTD SVG 1.0//EN" "http://www.w3.org/TR/2001/REC-SVG-20010904/DTD/svg10.dtd"[
	<!ENTITY ns_flows "http://ns.adobe.com/Flows/1.0/">
	<!ENTITY ns_svg "http://www.w3.org/2000/svg">
	<!ENTITY ns_xlink "http://www.w3.org/1999/xlink">
	<!ENTITY st0 "font-size:7px;font-family:'MS-PGothic';adobe-font-script:japanese;">
	<!ENTITY st1 "font-size:6px;font-family:'ArialMT';">
	<!-- White fill  -->
	<!ENTITY st2 "fill:#FFFFFF;stroke:#000000; stroke-width:1.41;stroke-linecap:round;stroke-linejoin:round;">
	<!-- Yellow fill  -->
	<!ENTITY st3 "fill:#FFFFCC;stroke:#FFFFCC; stroke-width:0.1;stroke-linecap:round;stroke-linejoin:round;">
	<!-- Gray fill  -->
	<!ENTITY st4 "fill:#CCCCCC;stroke:#CCCCCC; stroke-width:0.1;stroke-linecap:round;stroke-linejoin:round;">
	<!-- Light-blue fill -->
	<!ENTITY st5 "fill:#CCECF4;stroke:#000000; stroke-width:1.133;stroke-linecap:round;stroke-linejoin:round;">
	<!ENTITY st6 "fill:none;stroke-linecap:butt; stroke-linejoin:round;">
	<!ENTITY st7 "fill:none;stroke:#000000;stroke-linecap:round;stroke-linejoin:round;">
	<!ENTITY st8 "enable-background:new    ;">
	<!-- Black fill -->
	<!ENTITY st9 "fill:#000000;stroke:#000000; stroke-linecap:round;stroke-linejoin:round;">
	<!-- SRS note   -->
	<!ENTITY st10 "font-size:9px;font-family:'ArialMT';">
	<!ENTITY st11 "font-size:9px;font-family:'Svg Symbol';">
	<!ENTITY st12 "font-size:6px;font-family:'Svg Symbol';">
	<!ENTITY st13 "fill:none;stroke:#ff0000;stroke-linecap:round;stroke-linejoin:round;">
	<!-- Yellow fill  -->
	<!ENTITY st14 "fill:#FFFF00;stroke:#FFFF00; stroke-width:0.1;stroke-linecap:round;stroke-linejoin:round;">
	<!ENTITY st15 "font-size:6px;font-family:'MS-PGothic';adobe-font-script:japanese;">
	<!ENTITY st16 "1.00 0.00 0.00 1.00">
	<!ENTITY st17 "0.00 -1.00 1.00 0.00">
	<!ENTITY st18 "font-size:6px;font-family:'Arial';">
	<!ENTITY st19 "font-size:9px;font-family:'Arial';">
	<!ENTITY st20 "font-size:6px;font-family:'MS-PGothic','MS PGothic';adobe-font-script:japanese;">
	<!ENTITY st21 "font-size:7px;font-family:'MS-PGothic','MS PGothic';adobe-font-script:japanese;">
	<!ATTLIST svg
		xmlns:ewd CDATA #FIXED "http://shcl.co.jp/ewd"
		xmlns:a CDATA #FIXED "http://ns.adobe.com/AdobeSVGViewerExtensions/3.0/"
		ewd:ver CDATA #IMPLIED
	>
	<!ATTLIST a
		ewd:lineID CDATA #IMPLIED
		ewd:groupID CDATA #IMPLIED
		ewd:figtype CDATA #IMPLIED
		ewd:code CDATA #IMPLIED
		ewd:figID CDATA #IMPLIED
		ewd:pinNo CDATA #IMPLIED
		ewd:comment CDATA #IMPLIED >
	<!ATTLIST g
		ewd:lineID CDATA #IMPLIED
		ewd:groupID CDATA #IMPLIED
		ewd:figtype CDATA #IMPLIED
		ewd:code CDATA #IMPLIED
		ewd:figID CDATA #IMPLIED
		ewd:pinNo CDATA #IMPLIED
		ewd:comment CDATA #IMPLIED >
	<!ATTLIST text
		ewd:textID CDATA #IMPLIED >
	<!ATTLIST title
		ewd:textID CDATA #IMPLIED >
]>
<!-- Generator: Shintec Hozumi YS   -->
<svg onload="call_execInitLoadProc_svg('system')" style="overflow:visible;  enable-background:new 0 0 1980.057 710.000" viewBox="0 0 1980.057 710.000" height="710.000" width="1980.057" xml:space="preserve" ewd:ver="2.3.1.16" xmlns="&ns_svg;" xmlns:a="http://ns.adobe.com/AdobeSVGViewerExtensions/3.0/" xmlns:ewd="http://shcl.co.jp/ewd" xmlns:xlink="&ns_xlink;">
<path style="stroke-width: 1.42 ;&st7;  " d=" M  1640.23,   635.65  L  1635.25,   630.68  " /><path style="stroke-width: 1.42 ;&st7;  " d=" M  1623.23,   642.71  L  1628.20,   647.68  " /><path style="stroke-width: 1.42 ;&st7;  " d=" M  1635.25,   647.68  L  1640.23,   642.71  " /><path style="stroke-width: 1.42 ;&st7;  " d=" M  1628.20,   630.68  L  1623.23,   635.65  " /><path style="stroke-width: 1.42 ;&st7;  " d=" M  1640.23,   270.21  L  1635.25,   265.24  " /><path style="stroke-width: 1.42 ;&st7;  " d=" M  1623.23,   277.27  L  1628.20,   282.24  " /><path style="stroke-width: 1.42 ;&st7;  " d=" M  1635.25,   282.24  L  1640.23,   277.27  " /><path style="stroke-width: 1.42 ;&st7;  " d=" M  1628.20,   265.24  L  1623.23,   270.21  " /><path style="stroke-width: 1.42 ;&st7;  " d=" M  1716.71,   270.21  L  1711.74,   265.24  " /><path style="stroke-width: 1.42 ;&st7;  " d=" M  1699.72,   277.27  L  1704.68,   282.24  " /><path style="stroke-width: 1.42 ;&st7;  " d=" M  1711.74,   282.24  L  1716.71,   277.27  " /><path style="stroke-width: 1.42 ;&st7;  " d=" M  1704.69,   265.24  L  1699.72,   270.21  " /><text style="&st18;" transform="matrix(&st17;  1715.85  507.19 )">(*2 *3)</text><text style="&st18;" transform="matrix(&st17;  1704.52  504.67 )">W-B</text><text style="&st18;" transform="matrix(&st17;  1715.85  362.72 )">(*2 *3)</text><text style="&st18;" transform="matrix(&st17;  1704.52  356.55 )">G</text><text style="&st18;" transform="matrix(&st17;  1628.03  356.55 )">G</text><text style="&st18;" transform="matrix(&st17;  1639.36  362.72 )">(*2 *4)</text><text style="&st18;" transform="matrix(&st17;  1781.01  356.55 )">G</text><text style="&st18;" transform="matrix(&st17;  1792.34  362.72 )">(*2 *3)</text><text style="&st18;" transform="matrix(&st17;  1628.03  504.67 )">W-B</text><text style="&st18;" transform="matrix(&st17;  1639.36  507.19 )">(*2 *4)</text><text style="&st18;" transform="matrix(&st17;  1781.01  504.67 )">W-B</text><text style="&st18;" transform="matrix(&st17;  1792.34  507.19 )">(*2 *3)</text><text style="&st18;" transform="matrix(&st16;  1523.52  660.98 )">W-B</text><text style="&st18;" transform="matrix(&st16;  1524.69  672.31 )">(*2)</text><text style="&st18;" transform="matrix(&st16;  1578.16  270.04 )">G</text><text style="&st18;" transform="matrix(&st16;  1575.68  281.37 )">(*2)</text><text style="&st18;" transform="matrix(&st16;  1671.64  270.04 )">G</text><text style="&st18;" transform="matrix(&st16;  1669.16  281.37 )">(*2)</text><text style="&st18;" transform="matrix(&st16;  1574.52  609.99 )">W-B</text><text style="&st18;" transform="matrix(&st16;  1571.99  621.32 )">(*2 *3)</text><text style="&st18;" transform="matrix(&st16;  1521.0  621.32 )">(*2 *3)</text><text style="&st18;" transform="matrix(&st16;  1523.52  609.99 )">W-B</text><text style="&st18;" transform="matrix(&st16;  1575.68  672.31 )">(*2)</text><text style="&st18;" transform="matrix(&st16;  1574.52  660.98 )">W-B</text><text style="&st18;" transform="matrix(&st16;  1524.69  281.37 )">(*2)</text><text style="&st18;" transform="matrix(&st16;  1527.17  270.04 )">G</text><g ewd:figtype="conn" ewd:figID="17" ewd:code="T1"><path style="stroke-width: 0.85 ;&st7;  " d=" M  1631.73,   426.71  L  1631.73,   430.96  " /><path style="stroke-width: 0.85 ;&st7;  " d=" M  1631.73,   439.46  L  1631.73,   443.71  " /><path style="stroke-width: 0.85 ;&st7;   " d=" M  1631.73,   439.46  C  1633.28    439.47   1634.55    438.22   1634.56    436.66  " /><path style="stroke-width: 0.85 ;&st7;   " d=" M  1634.56,   436.66  C  1634.57    435.11   1633.32    433.84   1631.76    433.83  " /><path style="stroke-width: 0.85 ;&st7;   " d=" M  1631.76,   433.83  C  1630.73    433.82   1629.85    434.32   1629.32    435.21  " /><path style="stroke-width: 0.85 ;&st7;   " d=" M  1629.32,   435.21  C  1630.11    436.55   1631.84    437.00   1633.18    436.20  " /><path style="stroke-width: 0.85 ;&st7;   " d=" M  1633.18,   436.20  C  1634.52    435.41   1634.96    433.68   1634.17    432.35  " /><path style="stroke-width: 0.85 ;&st7;   " d=" M  1634.17,   432.35  C  1633.64    431.46   1632.76    430.96   1631.73    430.96  " /><path style="stroke-width: 1.42 ;&st7;   " d=" M  1640.23,   435.21  C  1640.23    430.52   1636.42    426.71   1631.73    426.71  " /><path style="stroke-width: 1.42 ;&st7;   " d=" M  1631.73,   426.71  C  1627.03    426.71   1623.23    430.52   1623.23    435.21  " /><path style="stroke-width: 1.42 ;&st7;   " d=" M  1623.23,   435.21  C  1623.23    439.91   1627.03    443.71   1631.73    443.71  " /><path style="stroke-width: 1.42 ;&st7;   " d=" M  1631.73,   443.71  C  1636.42    443.71   1640.23    439.91   1640.23    435.21  " /><path style="stroke-width: 0.85 ;&st7;  " d=" M  1631.73,   443.71  L  1631.73,   460.71  " /><path style="stroke-width: 0.85 ;&st7;  " d=" M  1631.73,   426.71  L  1631.73,   409.72  " /><path style="stroke-width: 1.42 ;&st7;  " d=" M  1606.23,   409.72  L  1606.23,   460.71  L  1648.72,   460.71  L  1648.72,   409.72  L  1606.23,   409.72  " /><text style="&st18;" transform="matrix(&st16;  1634.31  457.02 )">E</text><text style="&st18;" transform="matrix(&st17;  1619.53  439.81 )" ewd:textID="38">Tail</text><text style="&st18;" transform="matrix(&st16;  1634.31  417.91 )">B</text><text style="&st18;" transform="matrix(&st16;  1622.25  467.21 )">5</text><path style="stroke-width: 1.42 ;&st7;   " d=" M  1636.26,   465.24  C  1636.26    462.74   1634.23    460.71   1631.73    460.71  " /><path style="stroke-width: 1.42 ;&st7;   " d=" M  1631.73,   460.71  C  1629.22    460.71   1627.19    462.74   1627.19    465.24  " /><path style="stroke-width: 1.42 ;&st7;   " d=" M  1627.19,   465.24  C  1627.19    467.74   1629.22    469.77   1631.73    469.77  " /><path style="stroke-width: 1.42 ;&st7;   " d=" M  1631.73,   469.77  C  1634.23    469.77   1636.26    467.74   1636.26    465.24  " /><text style="&st18;" transform="matrix(&st16;  1629.46  467.21 )">B</text><text style="&st18;" transform="matrix(&st16;  1622.25  407.15 )">3</text><path style="stroke-width: 1.42 ;&st7;   " d=" M  1636.26,   405.18  C  1636.26    402.68   1634.23    400.65   1631.73    400.65  " /><path style="stroke-width: 1.42 ;&st7;   " d=" M  1631.73,   400.65  C  1629.22    400.65   1627.19    402.68   1627.19    405.18  " /><path style="stroke-width: 1.42 ;&st7;   " d=" M  1627.19,   405.18  C  1627.19    407.69   1629.22    409.72   1631.73    409.72  " /><path style="stroke-width: 1.42 ;&st7;   " d=" M  1631.73,   409.72  C  1634.23    409.72   1636.26    407.69   1636.26    405.18  " /><text style="&st18;" transform="matrix(&st16;  1629.46  407.15 )">B</text><g ewd:figtype="title"><text style="&st18;" transform="matrix(&st17;  1663.44  463.61 )" ewd:textID="36">Rear Combination Light Assembly RH</text><text style="&st18;" transform="matrix(&st17;  1656.62  463.61 )">T1(B)</text></g></g><g ewd:figtype="conn" ewd:figID="18" ewd:code="T7"><path style="stroke-width: 0.85 ;&st7;  " d=" M  1708.21,   439.46  L  1708.21,   443.71  " /><path style="stroke-width: 0.85 ;&st7;  " d=" M  1708.21,   426.71  L  1708.21,   430.96  " /><path style="stroke-width: 1.42 ;&st7;   " d=" M  1716.71,   435.21  C  1716.71    430.52   1712.91    426.71   1708.21    426.71  " /><path style="stroke-width: 1.42 ;&st7;   " d=" M  1708.21,   426.71  C  1703.52    426.71   1699.72    430.52   1699.72    435.21  " /><path style="stroke-width: 1.42 ;&st7;   " d=" M  1699.72,   435.21  C  1699.72    439.91   1703.52    443.71   1708.21    443.71  " /><path style="stroke-width: 1.42 ;&st7;   " d=" M  1708.21,   443.71  C  1712.91    443.71   1716.71    439.91   1716.71    435.21  " /><path style="stroke-width: 0.85 ;&st7;   " d=" M  1705.81,   435.21  C  1706.60    436.55   1708.33    437.00   1709.67    436.20  " /><path style="stroke-width: 0.85 ;&st7;   " d=" M  1709.67,   436.20  C  1711.00    435.41   1711.45    433.68   1710.66    432.35  " /><path style="stroke-width: 0.85 ;&st7;   " d=" M  1710.66,   432.35  C  1710.13    431.46   1709.25    430.96   1708.21    430.96  " /><path style="stroke-width: 0.85 ;&st7;   " d=" M  1708.21,   439.46  C  1709.77    439.47   1711.04    438.22   1711.05    436.66  " /><path style="stroke-width: 0.85 ;&st7;   " d=" M  1711.05,   436.66  C  1711.06    435.11   1709.80    433.84   1708.25    433.83  " /><path style="stroke-width: 0.85 ;&st7;   " d=" M  1708.25,   433.83  C  1707.22    433.82   1706.33    434.32   1705.81    435.21  " /><path style="stroke-width: 1.42 ;&st7;  " d=" M  1682.72,   409.72  L  1682.72,   460.71  L  1725.21,   460.71  L  1725.21,   409.72  L  1682.72,   409.72  " /><path style="stroke-width: 0.85 ;&st7;  " d=" M  1708.21,   426.71  L  1708.21,   409.72  " /><path style="stroke-width: 0.85 ;&st7;  " d=" M  1708.21,   443.71  L  1708.21,   460.71  " /><text style="&st18;" transform="matrix(&st17;  1696.02  439.81 )" ewd:textID="38">Tail</text><text style="&st18;" transform="matrix(&st16;  1710.8  457.02 )">TE</text><text style="&st18;" transform="matrix(&st16;  1710.8  417.91 )">E2</text><text style="&st18;" transform="matrix(&st16;  1698.73  467.21 )">1</text><path style="stroke-width: 1.42 ;&st7;   " d=" M  1712.75,   465.24  C  1712.75    462.74   1710.72    460.71   1708.21    460.71  " /><path style="stroke-width: 1.42 ;&st7;   " d=" M  1708.21,   460.71  C  1705.71    460.71   1703.68    462.74   1703.68    465.24  " /><path style="stroke-width: 1.42 ;&st7;   " d=" M  1703.68,   465.24  C  1703.68    467.74   1705.71    469.77   1708.21    469.77  " /><path style="stroke-width: 1.42 ;&st7;   " d=" M  1708.21,   469.77  C  1710.72    469.77   1712.75    467.74   1712.75    465.24  " /><text style="&st18;" transform="matrix(&st16;  1705.79  467.21 )">C</text><text style="&st18;" transform="matrix(&st16;  1698.73  407.15 )">2</text><path style="stroke-width: 1.42 ;&st7;   " d=" M  1712.75,   405.18  C  1712.75    402.68   1710.72    400.65   1708.21    400.65  " /><path style="stroke-width: 1.42 ;&st7;   " d=" M  1708.21,   400.65  C  1705.71    400.65   1703.68    402.68   1703.68    405.18  " /><path style="stroke-width: 1.42 ;&st7;   " d=" M  1703.68,   405.18  C  1703.68    407.69   1705.71    409.72   1708.21    409.72  " /><path style="stroke-width: 1.42 ;&st7;   " d=" M  1708.21,   409.72  C  1710.72    409.72   1712.75    407.69   1712.75    405.18  " /><text style="&st18;" transform="matrix(&st16;  1705.79  407.15 )">C</text><g ewd:figtype="title"><text style="&st18;" transform="matrix(&st17;  1733.11  463.61 )">T7(C)</text><text style="&st18;" transform="matrix(&st17;  1739.93  463.61 )" ewd:textID="35">Rear Combination Light Assembly LH</text></g></g><g ewd:figtype="conn" ewd:figID="19" ewd:code="T6"><path style="stroke-width: 0.85 ;&st7;  " d=" M  1784.70,   426.71  L  1784.70,   430.96  " /><path style="stroke-width: 0.85 ;&st7;  " d=" M  1784.70,   439.46  L  1784.70,   443.71  " /><path style="stroke-width: 0.85 ;&st7;   " d=" M  1784.70,   439.46  C  1786.26    439.47   1787.53    438.22   1787.53    436.66  " /><path style="stroke-width: 0.85 ;&st7;   " d=" M  1787.53,   436.66  C  1787.54    435.11   1786.29    433.84   1784.74    433.83  " /><path style="stroke-width: 0.85 ;&st7;   " d=" M  1784.74,   433.83  C  1783.70    433.82   1782.82    434.32   1782.29    435.21  " /><path style="stroke-width: 0.85 ;&st7;   " d=" M  1782.29,   435.21  C  1783.09    436.55   1784.81    437.00   1786.15    436.20  " /><path style="stroke-width: 0.85 ;&st7;   " d=" M  1786.15,   436.20  C  1787.49    435.41   1787.94    433.68   1787.14    432.35  " /><path style="stroke-width: 0.85 ;&st7;   " d=" M  1787.14,   432.35  C  1786.62    431.46   1785.73    430.96   1784.70    430.96  " /><path style="stroke-width: 1.42 ;&st7;   " d=" M  1793.20,   435.21  C  1793.20    430.52   1789.40    426.71   1784.70    426.71  " /><path style="stroke-width: 1.42 ;&st7;   " d=" M  1784.70,   426.71  C  1780.01    426.71   1776.20    430.52   1776.20    435.21  " /><path style="stroke-width: 1.42 ;&st7;   " d=" M  1776.20,   435.21  C  1776.20    439.91   1780.01    443.71   1784.70    443.71  " /><path style="stroke-width: 1.42 ;&st7;   " d=" M  1784.70,   443.71  C  1789.40    443.71   1793.20    439.91   1793.20    435.21  " /><path style="stroke-width: 0.85 ;&st7;  " d=" M  1784.70,   443.71  L  1784.70,   460.71  " /><path style="stroke-width: 0.85 ;&st7;  " d=" M  1784.70,   426.71  L  1784.70,   409.72  " /><path style="stroke-width: 1.42 ;&st7;  " d=" M  1759.21,   409.72  L  1759.21,   460.71  L  1801.70,   460.71  L  1801.70,   409.72  L  1759.21,   409.72  " /><text style="&st18;" transform="matrix(&st17;  1772.51  439.81 )" ewd:textID="38">Tail</text><text style="&st18;" transform="matrix(&st16;  1787.28  457.02 )">TE</text><text style="&st18;" transform="matrix(&st16;  1787.29  417.91 )">E2</text><text style="&st18;" transform="matrix(&st16;  1775.22  467.21 )">1</text><path style="stroke-width: 1.42 ;&st7;   " d=" M  1789.23,   465.24  C  1789.23    462.74   1787.21    460.71   1784.70    460.71  " /><path style="stroke-width: 1.42 ;&st7;   " d=" M  1784.70,   460.71  C  1782.20    460.71   1780.17    462.74   1780.17    465.24  " /><path style="stroke-width: 1.42 ;&st7;   " d=" M  1780.17,   465.24  C  1780.17    467.74   1782.20    469.77   1784.70    469.77  " /><path style="stroke-width: 1.42 ;&st7;   " d=" M  1784.70,   469.77  C  1787.21    469.77   1789.23    467.74   1789.23    465.24  " /><text style="&st18;" transform="matrix(&st16;  1782.28  467.21 )">C</text><text style="&st18;" transform="matrix(&st16;  1775.22  407.15 )">2</text><path style="stroke-width: 1.42 ;&st7;   " d=" M  1789.23,   405.18  C  1789.23    402.68   1787.21    400.65   1784.70    400.65  " /><path style="stroke-width: 1.42 ;&st7;   " d=" M  1784.70,   400.65  C  1782.20    400.65   1780.17    402.68   1780.17    405.18  " /><path style="stroke-width: 1.42 ;&st7;   " d=" M  1780.17,   405.18  C  1780.17    407.69   1782.20    409.72   1784.70    409.72  " /><path style="stroke-width: 1.42 ;&st7;   " d=" M  1784.70,   409.72  C  1787.21    409.72   1789.23    407.69   1789.23    405.18  " /><text style="&st18;" transform="matrix(&st16;  1782.28  407.15 )">C</text><g ewd:figtype="title"><text style="&st18;" transform="matrix(&st17;  1809.59  463.61 )">T6(C)</text><text style="&st18;" transform="matrix(&st17;  1816.42  463.61 )" ewd:textID="36">Rear Combination Light Assembly RH</text></g></g><g ewd:code="15" ewd:figID="94" ewd:comment="" ewd:figtype="comment"><text style="&st18;" transform="matrix(&st16;  1866.28  80.24 )" ewd:textID="10">*15 :Back Door w/o Fuel Tank</text></g><g ewd:code="1" ewd:figID="91" ewd:comment="" ewd:figtype="comment"><text style="&st18;" transform="matrix(&st16;  1866.28  37.75 )" ewd:textID="1">* 1 :Pick-Up Body Type</text></g><g ewd:code="2" ewd:figID="92" ewd:comment="" ewd:figtype="comment"><text style="&st18;" transform="matrix(&st16;  1866.28  46.25 )" ewd:textID="2">* 2 :Except Pick-Up Body Type</text></g><g ewd:code="4" ewd:figID="93" ewd:comment="3" ewd:figtype="comment"><text style="&st18;" transform="matrix(&st16;  1866.28  63.24 )" ewd:textID="4">* 4 :Except *3</text></g><g ewd:code="3" ewd:figID="70" ewd:comment="" ewd:figtype="comment"><text style="&st18;" transform="matrix(&st16;  1866.28  54.75 )" ewd:textID="3">* 3 :Algeria, Australia</text></g><g ewd:code="14" ewd:figID="95" ewd:comment="" ewd:figtype="comment"><text style="&st18;" transform="matrix(&st16;  1866.28  71.74 )" ewd:textID="9">*14 :Back Door w/ Fuel Tank</text></g></svg>