<?xml version="1.0" encoding="utf-8"?>
<!DOCTYPE svg PUBLIC "-//W3C//DTD SVG 1.0//EN" "http://www.w3.org/TR/2001/REC-SVG-20010904/DTD/svg10.dtd"[
	<!ENTITY ns_flows "http://ns.adobe.com/Flows/1.0/">
	<!ENTITY ns_svg "http://www.w3.org/2000/svg">
	<!ENTITY ns_xlink "http://www.w3.org/1999/xlink">
	<!ENTITY st0 "font-size:7px;font-family:'MS-PGothic';adobe-font-script:japanese;">
	<!ENTITY st1 "font-size:6px;font-family:'ArialMT';">
	<!-- White fill  -->
	<!ENTITY st2 "fill:#FFFFFF;stroke:#000000; stroke-width:1.41;stroke-linecap:round;stroke-linejoin:round;">
	<!-- Yellow fill  -->
	<!ENTITY st3 "fill:#FFFFCC;stroke:#FFFFCC; stroke-width:0.1;stroke-linecap:round;stroke-linejoin:round;">
	<!-- Gray fill  -->
	<!ENTITY st4 "fill:#CCCCCC;stroke:#CCCCCC; stroke-width:0.1;stroke-linecap:round;stroke-linejoin:round;">
	<!-- Light-blue fill -->
	<!ENTITY st5 "fill:#CCECF4;stroke:#000000; stroke-width:1.133;stroke-linecap:round;stroke-linejoin:round;">
	<!ENTITY st6 "fill:none;stroke-linecap:butt; stroke-linejoin:round;">
	<!ENTITY st7 "fill:none;stroke:#000000;stroke-linecap:round;stroke-linejoin:round;">
	<!ENTITY st8 "enable-background:new    ;">
	<!-- Black fill -->
	<!ENTITY st9 "fill:#000000;stroke:#000000; stroke-linecap:round;stroke-linejoin:round;">
	<!-- SRS note   -->
	<!ENTITY st10 "font-size:9px;font-family:'ArialMT';">
	<!ENTITY st11 "font-size:9px;font-family:'Svg Symbol';">
	<!ENTITY st12 "font-size:6px;font-family:'Svg Symbol';">
	<!ENTITY st13 "fill:none;stroke:#ff0000;stroke-linecap:round;stroke-linejoin:round;">
	<!-- Yellow fill  -->
	<!ENTITY st14 "fill:#FFFF00;stroke:#FFFF00; stroke-width:0.1;stroke-linecap:round;stroke-linejoin:round;">
	<!ENTITY st15 "font-size:6px;font-family:'MS-PGothic';adobe-font-script:japanese;">
	<!ENTITY st16 "1.00 0.00 0.00 1.00">
	<!ENTITY st17 "0.00 -1.00 1.00 0.00">
	<!ENTITY st18 "font-size:6px;font-family:'Arial';">
	<!ENTITY st19 "font-size:9px;font-family:'Arial';">
	<!ENTITY st20 "font-size:6px;font-family:'MS-PGothic','MS PGothic';adobe-font-script:japanese;">
	<!ENTITY st21 "font-size:7px;font-family:'MS-PGothic','MS PGothic';adobe-font-script:japanese;">
	<!ATTLIST svg
		xmlns:ewd CDATA #FIXED "http://shcl.co.jp/ewd"
		xmlns:a CDATA #FIXED "http://ns.adobe.com/AdobeSVGViewerExtensions/3.0/"
		ewd:ver CDATA #IMPLIED
	>
	<!ATTLIST a
		ewd:lineID CDATA #IMPLIED
		ewd:groupID CDATA #IMPLIED
		ewd:figtype CDATA #IMPLIED
		ewd:code CDATA #IMPLIED
		ewd:figID CDATA #IMPLIED
		ewd:pinNo CDATA #IMPLIED
		ewd:comment CDATA #IMPLIED >
	<!ATTLIST g
		ewd:lineID CDATA #IMPLIED
		ewd:groupID CDATA #IMPLIED
		ewd:figtype CDATA #IMPLIED
		ewd:code CDATA #IMPLIED
		ewd:figID CDATA #IMPLIED
		ewd:pinNo CDATA #IMPLIED
		ewd:comment CDATA #IMPLIED >
	<!ATTLIST text
		ewd:textID CDATA #IMPLIED >
	<!ATTLIST title
		ewd:textID CDATA #IMPLIED >
]>
<!-- Generator: Shintec Hozumi YS   -->
<svg onload="call_execInitLoadProc_svg('system')" style="overflow:visible;  enable-background:new 0 0 2055.240 710.000" viewBox="0 0 2055.240 710.000" height="710.000" width="2055.240" xml:space="preserve" ewd:ver="2.3.1.16" xmlns="&ns_svg;" xmlns:a="http://ns.adobe.com/AdobeSVGViewerExtensions/3.0/" xmlns:ewd="http://shcl.co.jp/ewd" xmlns:xlink="&ns_xlink;">
<path style="stroke-width: 1.42 ;&st7;  " d=" M  1240.79,   520.20  L  1232.29,   520.20  " /><path style="stroke-width: 1.42 ;&st7;  " d=" M  1189.80,   511.70  L  1198.30,   511.70  " /><path style="stroke-width: 1.42 ;&st7;  " d=" M  1206.80,   231.25  L  1198.30,   231.25  " /><path style="stroke-width: 1.42 ;&st7;  " d=" M  1223.80,   222.75  L  1232.29,   222.75  " /><text style="&st18;" transform="matrix(&st16;  1008.76  660.98 )">G</text><text style="&st18;" transform="matrix(&st17;  1228.6  547.46 )">B</text><text style="&st18;" transform="matrix(&st17;  1239.93  550.25 )">(*2)</text><text style="&st18;" transform="matrix(&st17;  1290.92  550.25 )">(*3)</text><text style="&st18;" transform="matrix(&st16;  1058.91  316.76 )">S30(A),S33(D),U5(B),Y7(C),Y10(E)</text><text style="&st18;" transform="matrix(&st16;  1058.92  323.58 )" ewd:textID="20">Tire Pressure Warning ECU <tspan x="0 " dy="6.0">and Receiver</tspan></text><text style="&st18;" transform="matrix(&st17;  1279.59  547.77 )">G</text><text style="&st18;" transform="matrix(&st17;  1205.94  550.25 )">(*1)</text><text style="&st18;" transform="matrix(&st17;  1194.6  547.77 )">G</text><text style="&st18;" transform="matrix(&st17;  1228.6  190.13 )">L</text><text style="&st18;" transform="matrix(&st17;  1239.93  193.31 )">(*2)</text><text style="&st18;" transform="matrix(&st17;  1205.94  193.31 )">(*1)</text><text style="&st18;" transform="matrix(&st17;  1194.6  190.13 )">L</text><text style="&st18;" transform="matrix(&st17;  1262.59  190.13 )">L</text><text style="&st18;" transform="matrix(&st17;  1273.92  193.31 )">(*3)</text><text style="&st18;" transform="matrix(&st17;  1273.92  261.3 )">(*3)</text><text style="&st18;" transform="matrix(&st17;  1262.59  258.12 )">L</text><text style="&st18;" transform="matrix(&st17;  1194.6  258.12 )">L</text><text style="&st18;" transform="matrix(&st17;  1205.94  261.3 )">(*1)</text><text style="&st18;" transform="matrix(&st17;  1239.93  261.3 )">(*2)</text><text style="&st18;" transform="matrix(&st17;  1228.6  258.12 )">L</text><text style="&st18;" transform="matrix(&st17;  1424.07  437.29 )">G</text><text style="&st18;" transform="matrix(&st17;  1424.07  530.77 )">G</text><text style="&st18;" transform="matrix(&st17;  1424.07  267.94 )">W</text><text style="&st18;" transform="matrix(&st16;  1059.75  660.98 )">G</text><text style="&st18;" transform="matrix(&st16;  1060.06  643.98 )">P</text><text style="&st18;" transform="matrix(&st16;  1009.07  643.98 )">P</text><text style="&st18;" transform="matrix(&st17;  1239.93  481.7 )">(*7 *2)</text><text style="&st18;" transform="matrix(&st17;  1254.09  475.22 )">B</text><text style="&st18;" transform="matrix(&st17;  1265.43  481.7 )">(*6 *2)</text><text style="&st18;" transform="matrix(&st17;  1290.92  478.01 )">(*3)</text><text style="&st18;" transform="matrix(&st17;  1279.59  477.2 )">LG</text><text style="&st18;" transform="matrix(&st17;  1180.44  481.7 )">(*7 *1)</text><text style="&st18;" transform="matrix(&st17;  1169.11  477.24 )">SB</text><text style="&st18;" transform="matrix(&st17;  1205.94  481.7 )">(*6 *1)</text><text style="&st18;" transform="matrix(&st17;  1194.6  475.22 )">B</text><text style="&st18;" transform="matrix(&st17;  1228.6  477.2 )">LG</text><path style="stroke-width: 1.42 ;&st7;  " d=" M  1257.79,   214.25  L  1266.29,   214.25  " /><path style="stroke-width: 1.42 ;&st7;  " d=" M  1291.78,   520.20  L  1283.29,   520.20  " /><g ewd:figtype="conn" ewd:figID="11" ewd:code="I118"><path style="stroke-width: 1.42 ;&st7;  " d=" M  1351.27,   205.75  L  1436.26,   205.75  L  1436.26,   188.75  L  1351.27,   188.75  L  1351.27,   205.75  " /><path style="stroke-width: 0.85 ;&st7;  " d=" M  1393.77,   188.75  L  1393.77,   197.25  " /><path style="stroke-width: 0.85 ;&st7;  " d=" M  1427.76,   197.25  L  1427.76,   188.75  " /><path style="stroke-width: 0.85 ;&st7;  " d=" M  1426.57,   196.25  L  1426.30,   196.72  L  1426.20,   197.25  L  1426.30,   197.79  L  1426.57,   198.26  L  1426.98,   198.60  L  1427.49,   198.79  L  1428.03,   198.79  L  1428.54,   198.60  L  1428.95,   198.26  L  1429.23,   197.79  L  1429.32,   197.25  L  1429.23,   196.72  L  1428.95,   196.25  L  1428.54,   195.90  L  1428.03,   195.72  L  1427.49,   195.72  L  1426.98,   195.90  L  1426.57,   196.25  L  1426.96,   196.96  L  1426.96,   197.54  L  1427.34,   197.99  L  1427.91,   198.09  L  1428.41,   197.80  L  1428.61,   197.25  L  1428.41,   196.71  L  1427.91,   196.42  L  1427.34,   196.52  L  1427.76,   197.25  " /><path style="stroke-width: 0.85 ;&st7;  " d=" M  1392.57,   196.25  L  1392.30,   196.72  L  1392.21,   197.25  L  1392.30,   197.79  L  1392.57,   198.26  L  1392.99,   198.60  L  1393.49,   198.79  L  1394.04,   198.79  L  1394.55,   198.60  L  1394.96,   198.26  L  1395.23,   197.79  L  1395.32,   197.25  L  1395.23,   196.72  L  1394.96,   196.25  L  1394.55,   195.90  L  1394.04,   195.72  L  1393.49,   195.72  L  1392.99,   195.90  L  1392.57,   196.25  L  1392.97,   196.96  L  1392.97,   197.54  L  1393.34,   197.99  L  1393.91,   198.09  L  1394.42,   197.80  L  1394.62,   197.25  L  1394.42,   196.71  L  1393.91,   196.42  L  1393.34,   196.52  L  1393.77,   197.25  " /><path style="stroke-width: 0.85 ;&st7;  " d=" M  1427.76,   205.75  L  1427.76,   197.25  L  1359.77,   197.25  L  1359.77,   188.75  " /><text style="&st18;" transform="matrix(&st16;  1380.95  186.19 )">17</text><text style="&st18;" transform="matrix(&st16;  1391.35  186.19 )">C</text><path style="stroke-width: 1.42 ;&st7;   " d=" M  1398.30,   184.22  C  1398.30    181.72   1396.27    179.69   1393.77    179.69  " /><path style="stroke-width: 1.42 ;&st7;   " d=" M  1393.77,   179.69  C  1391.26    179.69   1389.23    181.72   1389.23    184.22  " /><path style="stroke-width: 1.42 ;&st7;   " d=" M  1389.23,   184.22  C  1389.23    186.72   1391.26    188.75   1393.77    188.75  " /><path style="stroke-width: 1.42 ;&st7;   " d=" M  1393.77,   188.75  C  1396.27    188.75   1398.30    186.72   1398.30    184.22  " /><text style="&st18;" transform="matrix(&st16;  1346.96  186.19 )">18</text><text style="&st18;" transform="matrix(&st16;  1357.35  186.19 )">C</text><path style="stroke-width: 1.42 ;&st7;   " d=" M  1364.31,   184.22  C  1364.31    181.72   1362.28    179.69   1359.77    179.69  " /><path style="stroke-width: 1.42 ;&st7;   " d=" M  1359.77,   179.69  C  1357.27    179.69   1355.24    181.72   1355.24    184.22  " /><path style="stroke-width: 1.42 ;&st7;   " d=" M  1355.24,   184.22  C  1355.24    186.72   1357.27    188.75   1359.77    188.75  " /><path style="stroke-width: 1.42 ;&st7;   " d=" M  1359.77,   188.75  C  1362.28    188.75   1364.31    186.72   1364.31    184.22  " /><text style="&st18;" transform="matrix(&st16;  1414.95  212.25 )">22</text><path style="stroke-width: 1.42 ;&st7;   " d=" M  1432.29,   210.28  C  1432.29    207.78   1430.26    205.75   1427.76    205.75  " /><path style="stroke-width: 1.42 ;&st7;   " d=" M  1427.76,   205.75  C  1425.26    205.75   1423.23    207.78   1423.23    210.28  " /><path style="stroke-width: 1.42 ;&st7;   " d=" M  1423.23,   210.28  C  1423.23    212.79   1425.26    214.82   1427.76    214.82  " /><path style="stroke-width: 1.42 ;&st7;   " d=" M  1427.76,   214.82  C  1430.26    214.82   1432.29    212.79   1432.29    210.28  " /><text style="&st18;" transform="matrix(&st16;  1425.34  212.25 )">C</text><text style="&st18;" transform="matrix(&st16;  1414.95  186.19 )">19</text><text style="&st18;" transform="matrix(&st16;  1425.34  186.19 )">C</text><path style="stroke-width: 1.42 ;&st7;   " d=" M  1432.29,   184.22  C  1432.29    181.72   1430.26    179.69   1427.76    179.69  " /><path style="stroke-width: 1.42 ;&st7;   " d=" M  1427.76,   179.69  C  1425.26    179.69   1423.23    181.72   1423.23    184.22  " /><path style="stroke-width: 1.42 ;&st7;   " d=" M  1423.23,   184.22  C  1423.23    186.72   1425.26    188.75   1427.76    188.75  " /><path style="stroke-width: 1.42 ;&st7;   " d=" M  1427.76,   188.75  C  1430.26    188.75   1432.29    186.72   1432.29    184.22  " /><g ewd:figtype="title"><text style="&st18;" transform="matrix(&st17;  1450.98  208.66 )" ewd:textID="17">No. 36 <tspan x="0 " dy="6.0">Junction Connector</tspan></text><text style="&st18;" transform="matrix(&st17;  1444.15  208.65 )">I118(C)</text></g></g><g ewd:figtype="conn" ewd:figID="12" ewd:code="I72"><path style="stroke-width: 1.42 ;&st7;  " d=" M  1419.26,   486.20  L  1436.26,   486.20  L  1436.26,   469.21  L  1419.26,   469.21  L  1419.26,   486.20  " /><path style="stroke-width: 0.85 ;&st7;  " d=" M  1427.76,   469.21  L  1427.76,   486.20  " /><text style="&st18;" transform="matrix(&st16;  1414.95  492.71 )">22</text><text style="&st18;" transform="matrix(&st16;  1425.5  492.71 )">A</text><path style="stroke-width: 1.42 ;&st7;   " d=" M  1432.29,   490.74  C  1432.29    488.23   1430.26    486.20   1427.76    486.20  " /><path style="stroke-width: 1.42 ;&st7;   " d=" M  1427.76,   486.20  C  1425.26    486.20   1423.23    488.23   1423.23    490.74  " /><path style="stroke-width: 1.42 ;&st7;   " d=" M  1423.23,   490.74  C  1423.23    493.24   1425.26    495.27   1427.76    495.27  " /><path style="stroke-width: 1.42 ;&st7;   " d=" M  1427.76,   495.27  C  1430.26    495.27   1432.29    493.24   1432.29    490.74  " /><text style="&st18;" transform="matrix(&st16;  1414.95  466.64 )">19</text><text style="&st18;" transform="matrix(&st16;  1425.5  466.64 )">A</text><path style="stroke-width: 1.42 ;&st7;   " d=" M  1432.29,   464.67  C  1432.29    462.17   1430.26    460.14   1427.76    460.14  " /><path style="stroke-width: 1.42 ;&st7;   " d=" M  1427.76,   460.14  C  1425.26    460.14   1423.23    462.17   1423.23    464.67  " /><path style="stroke-width: 1.42 ;&st7;   " d=" M  1423.23,   464.67  C  1423.23    467.18   1425.26    469.21   1427.76    469.21  " /><path style="stroke-width: 1.42 ;&st7;   " d=" M  1427.76,   469.21  C  1430.26    469.21   1432.29    467.18   1432.29    464.67  " /><g ewd:figtype="title"><text style="&st18;" transform="matrix(&st17;  1450.98  489.11 )" ewd:textID="13">No. 21 <tspan x="0 " dy="6.0">Junction Connector</tspan></text><text style="&st18;" transform="matrix(&st17;  1444.15  489.1 )">I72(A)</text></g></g><g ewd:figtype="conn" ewd:figID="17" ewd:code="I17"><path style="stroke-width: 1.42 ;&st7;  " d=" M  1410.76,   367.22  L  1444.76,   367.22  L  1444.76,   333.23  L  1410.76,   333.23  L  1410.76,   367.22  " /><g ewd:lineID="68"><text style="&st18;" transform="matrix(&st16;  1418.09  375.42 )">13</text><text style="&st18;" transform="matrix(&st16;  1423.48  363.53 )">TC</text></g><g ewd:lineID="69"><text style="&st18;" transform="matrix(&st16;  1421.42  329.54 )">7</text><text style="&st18;" transform="matrix(&st16;  1423.01  340.86 )">SIL</text></g><g ewd:figtype="title"><text style="&st18;" transform="matrix(&st17;  1452.65  370.12 )">I17</text><text style="&st18;" transform="matrix(&st17;  1459.48  370.13 )">DLC3</text></g></g><g ewd:figtype="conn" ewd:figID="19" ewd:code="S30,S33,U5,Y7,Y10"><g ewd:comment="1,8,2,3,10,1,9,3,11" ewd:lineID="55,56,59,60,61"><text style="&st18;" transform="matrix(&st16;  1222.81  409.42 )">3</text><text style="&st18;" transform="matrix(&st16;  1222.81  400.35 )">3</text><text style="&st18;" transform="matrix(&st16;  1222.81  391.29 )">3</text><text style="&st18;" transform="matrix(&st16;  1222.81  382.22 )">3</text><text style="&st18;" transform="matrix(&st16;  1222.81  418.48 )">3</text><path style="stroke-width: 1.42 ;&st7;   " d=" M  1236.83,   380.26  C  1236.83    377.75   1234.80    375.72   1232.29    375.72  " /><path style="stroke-width: 1.42 ;&st7;   " d=" M  1232.29,   375.72  C  1229.79    375.72   1227.76    377.75   1227.76    380.26  " /><path style="stroke-width: 1.42 ;&st7;   " d=" M  1227.76,   380.26  C  1227.76    382.76   1229.79    384.79   1232.29    384.79  " /><path style="stroke-width: 1.42 ;&st7;   " d=" M  1232.29,   384.79  C  1234.80    384.79   1236.83    382.76   1236.83    380.26  " /><path style="stroke-width: 1.42 ;&st7;   " d=" M  1236.83,   389.32  C  1236.83    386.82   1234.80    384.79   1232.29    384.79  " /><path style="stroke-width: 1.42 ;&st7;   " d=" M  1232.29,   384.79  C  1229.79    384.79   1227.76    386.82   1227.76    389.32  " /><path style="stroke-width: 1.42 ;&st7;   " d=" M  1227.76,   389.32  C  1227.76    391.82   1229.79    393.85   1232.29    393.85  " /><path style="stroke-width: 1.42 ;&st7;   " d=" M  1232.29,   393.85  C  1234.80    393.85   1236.83    391.82   1236.83    389.32  " /><path style="stroke-width: 1.42 ;&st7;   " d=" M  1236.83,   398.39  C  1236.83    395.88   1234.80    393.85   1232.29    393.85  " /><path style="stroke-width: 1.42 ;&st7;   " d=" M  1232.29,   393.85  C  1229.79    393.85   1227.76    395.88   1227.76    398.39  " /><path style="stroke-width: 1.42 ;&st7;   " d=" M  1227.76,   398.39  C  1227.76    400.89   1229.79    402.92   1232.29    402.92  " /><path style="stroke-width: 1.42 ;&st7;   " d=" M  1232.29,   402.92  C  1234.80    402.92   1236.83    400.89   1236.83    398.39  " /><path style="stroke-width: 1.42 ;&st7;   " d=" M  1236.83,   407.45  C  1236.83    404.95   1234.80    402.92   1232.29    402.92  " /><path style="stroke-width: 1.42 ;&st7;   " d=" M  1232.29,   402.92  C  1229.79    402.92   1227.76    404.95   1227.76    407.45  " /><path style="stroke-width: 1.42 ;&st7;   " d=" M  1227.76,   407.45  C  1227.76    409.95   1229.79    411.98   1232.29    411.98  " /><path style="stroke-width: 1.42 ;&st7;   " d=" M  1232.29,   411.98  C  1234.80    411.98   1236.83    409.95   1236.83    407.45  " /><text style="&st18;" transform="matrix(&st16;  1230.03  418.48 )">E</text><text style="&st18;" transform="matrix(&st16;  1229.87  409.42 )">D</text><path style="stroke-width: 1.42 ;&st7;   " d=" M  1236.83,   416.52  C  1236.83    414.01   1234.80    411.98   1232.29    411.98  " /><path style="stroke-width: 1.42 ;&st7;   " d=" M  1232.29,   411.98  C  1229.79    411.98   1227.76    414.01   1227.76    416.52  " /><path style="stroke-width: 1.42 ;&st7;   " d=" M  1227.76,   416.52  C  1227.76    419.02   1229.79    421.05   1232.29    421.05  " /><path style="stroke-width: 1.42 ;&st7;   " d=" M  1232.29,   421.05  C  1234.80    421.05   1236.83    419.02   1236.83    416.52  " /><text style="&st18;" transform="matrix(&st16;  1230.03  391.29 )">B</text><text style="&st18;" transform="matrix(&st16;  1230.03  382.22 )">A</text><text style="&st18;" transform="matrix(&st16;  1229.87  400.35 )">C</text><text style="&st18;" transform="matrix(&st16;  1228.01  372.03 )">TC</text><g ewd:code="" ewd:figID="88" ewd:comment="1,8" ewd:figtype="commref"><text style="&st18;" transform="matrix(&st16;  1237.39  382.22 )">(*1 *8)</text></g><g ewd:code="" ewd:figID="89" ewd:comment="2" ewd:figtype="commref"><text style="&st18;" transform="matrix(&st16;  1237.39  391.29 )">(*2)</text></g><g ewd:code="" ewd:figID="90" ewd:comment="3,10" ewd:figtype="commref"><text style="&st18;" transform="matrix(&st16;  1237.39  400.35 )">(*3 *10)</text></g><g ewd:code="" ewd:figID="119" ewd:comment="1,9" ewd:figtype="commref"><text style="&st18;" transform="matrix(&st16;  1237.39  409.42 )">(*1 *9)</text></g><g ewd:code="" ewd:figID="140" ewd:comment="3,11" ewd:figtype="commref"><text style="&st18;" transform="matrix(&st16;  1237.39  418.48 )">(*3 *11)</text></g></g><g ewd:comment="3,11,3,10,2,1,8,1,9" ewd:lineID="57,62,64"><text style="&st18;" transform="matrix(&st16;  1219.48  330.67 )">10</text><text style="&st18;" transform="matrix(&st16;  1219.48  312.54 )">10</text><text style="&st18;" transform="matrix(&st16;  1219.48  303.47 )">10</text><text style="&st18;" transform="matrix(&st16;  1219.48  294.41 )">10</text><text style="&st18;" transform="matrix(&st16;  1219.48  321.6 )">10</text><text style="&st18;" transform="matrix(&st16;  1229.87  312.54 )">C</text><text style="&st18;" transform="matrix(&st16;  1230.03  303.47 )">B</text><text style="&st18;" transform="matrix(&st16;  1230.03  294.41 )">A</text><text style="&st18;" transform="matrix(&st16;  1229.87  321.6 )">D</text><path style="stroke-width: 1.42 ;&st7;   " d=" M  1236.83,   319.63  C  1236.83    317.13   1234.80    315.10   1232.29    315.10  " /><path style="stroke-width: 1.42 ;&st7;   " d=" M  1232.29,   315.10  C  1229.79    315.10   1227.76    317.13   1227.76    319.63  " /><path style="stroke-width: 1.42 ;&st7;   " d=" M  1227.76,   319.63  C  1227.76    322.14   1229.79    324.16   1232.29    324.16  " /><path style="stroke-width: 1.42 ;&st7;   " d=" M  1232.29,   324.16  C  1234.80    324.16   1236.83    322.14   1236.83    319.63  " /><path style="stroke-width: 1.42 ;&st7;   " d=" M  1236.83,   310.57  C  1236.83    308.06   1234.80    306.03   1232.29    306.03  " /><path style="stroke-width: 1.42 ;&st7;   " d=" M  1232.29,   306.03  C  1229.79    306.03   1227.76    308.06   1227.76    310.57  " /><path style="stroke-width: 1.42 ;&st7;   " d=" M  1227.76,   310.57  C  1227.76    313.07   1229.79    315.10   1232.29    315.10  " /><path style="stroke-width: 1.42 ;&st7;   " d=" M  1232.29,   315.10  C  1234.80    315.10   1236.83    313.07   1236.83    310.57  " /><path style="stroke-width: 1.42 ;&st7;   " d=" M  1236.83,   301.50  C  1236.83    299.00   1234.80    296.97   1232.29    296.97  " /><path style="stroke-width: 1.42 ;&st7;   " d=" M  1232.29,   296.97  C  1229.79    296.97   1227.76    299.00   1227.76    301.50  " /><path style="stroke-width: 1.42 ;&st7;   " d=" M  1227.76,   301.50  C  1227.76    304.00   1229.79    306.03   1232.29    306.03  " /><path style="stroke-width: 1.42 ;&st7;   " d=" M  1232.29,   306.03  C  1234.80    306.03   1236.83    304.00   1236.83    301.50  " /><path style="stroke-width: 1.42 ;&st7;   " d=" M  1236.83,   292.44  C  1236.83    289.93   1234.80    287.90   1232.29    287.90  " /><path style="stroke-width: 1.42 ;&st7;   " d=" M  1232.29,   287.90  C  1229.79    287.90   1227.76    289.93   1227.76    292.44  " /><path style="stroke-width: 1.42 ;&st7;   " d=" M  1227.76,   292.44  C  1227.76    294.94   1229.79    296.97   1232.29    296.97  " /><path style="stroke-width: 1.42 ;&st7;   " d=" M  1232.29,   296.97  C  1234.80    296.97   1236.83    294.94   1236.83    292.44  " /><path style="stroke-width: 1.42 ;&st7;   " d=" M  1236.83,   328.70  C  1236.83    326.19   1234.80    324.16   1232.29    324.16  " /><path style="stroke-width: 1.42 ;&st7;   " d=" M  1232.29,   324.16  C  1229.79    324.16   1227.76    326.19   1227.76    328.70  " /><path style="stroke-width: 1.42 ;&st7;   " d=" M  1227.76,   328.70  C  1227.76    331.20   1229.79    333.23   1232.29    333.23  " /><path style="stroke-width: 1.42 ;&st7;   " d=" M  1232.29,   333.23  C  1234.80    333.23   1236.83    331.20   1236.83    328.70  " /><text style="&st18;" transform="matrix(&st16;  1230.03  330.67 )">E</text><text style="&st18;" transform="matrix(&st16;  1227.55  340.86 )">SIL</text><g ewd:code="" ewd:figID="85" ewd:comment="3,11" ewd:figtype="commref"><text style="&st18;" transform="matrix(&st16;  1237.39  330.67 )">(*3 *11)</text></g><g ewd:code="" ewd:figID="93" ewd:comment="3,10" ewd:figtype="commref"><text style="&st18;" transform="matrix(&st16;  1237.39  312.54 )">(*3 *10)</text></g><g ewd:code="" ewd:figID="94" ewd:comment="2" ewd:figtype="commref"><text style="&st18;" transform="matrix(&st16;  1237.39  303.47 )">(*2)</text></g><g ewd:code="" ewd:figID="95" ewd:comment="1,8" ewd:figtype="commref"><text style="&st18;" transform="matrix(&st16;  1237.39  294.41 )">(*1 *8)</text></g><g ewd:code="" ewd:figID="118" ewd:comment="1,9" ewd:figtype="commref"><text style="&st18;" transform="matrix(&st16;  1237.39  321.6 )">(*1 *9)</text></g></g></g><g ewd:figtype="conn" ewd:figID="20" ewd:code="I118"><path style="stroke-width: 1.42 ;&st7;  " d=" M  1189.80,   571.19  L  1189.80,   588.19  L  1291.78,   588.19  L  1291.78,   571.19  L  1189.80,   571.19  " /><path style="stroke-width: 0.85 ;&st7;  " d=" M  1283.29,   571.19  L  1283.29,   588.19  " /><path style="stroke-width: 0.85 ;&st7;  " d=" M  1283.29,   579.69  L  1198.30,   579.69  L  1198.30,   571.19  " /><path style="stroke-width: 0.85 ;&st7;  " d=" M  1282.09,   578.69  L  1281.82,   579.16  L  1281.73,   579.69  L  1281.82,   580.22  L  1282.09,   580.69  L  1282.51,   581.04  L  1283.01,   581.22  L  1283.56,   581.22  L  1284.06,   581.04  L  1284.48,   580.69  L  1284.75,   580.22  L  1284.84,   579.69  L  1284.75,   579.16  L  1284.48,   578.69  L  1284.06,   578.34  L  1283.56,   578.15  L  1283.01,   578.15  L  1282.51,   578.34  L  1282.09,   578.69  L  1282.49,   579.40  L  1282.49,   579.98  L  1282.86,   580.43  L  1283.43,   580.52  L  1283.94,   580.24  L  1284.13,   579.69  L  1283.94,   579.14  L  1283.43,   578.85  L  1282.86,   578.95  L  1283.29,   579.69  " /><path style="stroke-width: 0.85 ;&st7;  " d=" M  1231.10,   578.69  L  1230.83,   579.16  L  1230.74,   579.69  L  1230.83,   580.22  L  1231.10,   580.69  L  1231.51,   581.04  L  1232.02,   581.22  L  1232.57,   581.22  L  1233.07,   581.04  L  1233.49,   580.69  L  1233.76,   580.22  L  1233.85,   579.69  L  1233.76,   579.16  L  1233.49,   578.69  L  1233.07,   578.34  L  1232.57,   578.15  L  1232.02,   578.15  L  1231.51,   578.34  L  1231.10,   578.69  L  1231.49,   579.40  L  1231.49,   579.98  L  1231.87,   580.43  L  1232.44,   580.52  L  1232.95,   580.24  L  1233.14,   579.69  L  1232.95,   579.14  L  1232.44,   578.85  L  1231.87,   578.95  L  1232.29,   579.69  " /><path style="stroke-width: 0.85 ;&st7;  " d=" M  1232.29,   579.69  L  1232.29,   571.19  " /><text style="&st18;" transform="matrix(&st16;  1185.48  568.63 )">14</text><text style="&st18;" transform="matrix(&st16;  1195.88  568.63 )">C</text><path style="stroke-width: 1.42 ;&st7;   " d=" M  1202.83,   566.66  C  1202.83    564.15   1200.80    562.12   1198.30    562.12  " /><path style="stroke-width: 1.42 ;&st7;   " d=" M  1198.30,   562.12  C  1195.80    562.12   1193.77    564.15   1193.77    566.66  " /><path style="stroke-width: 1.42 ;&st7;   " d=" M  1193.77,   566.66  C  1193.77    569.16   1195.80    571.19   1198.30    571.19  " /><path style="stroke-width: 1.42 ;&st7;   " d=" M  1198.30,   571.19  C  1200.80    571.19   1202.83    569.16   1202.83    566.66  " /><text style="&st18;" transform="matrix(&st16;  1219.48  568.63 )">15</text><path style="stroke-width: 1.42 ;&st7;   " d=" M  1236.83,   566.66  C  1236.83    564.15   1234.80    562.12   1232.29    562.12  " /><path style="stroke-width: 1.42 ;&st7;   " d=" M  1232.29,   562.12  C  1229.79    562.12   1227.76    564.15   1227.76    566.66  " /><path style="stroke-width: 1.42 ;&st7;   " d=" M  1227.76,   566.66  C  1227.76    569.16   1229.79    571.19   1232.29    571.19  " /><path style="stroke-width: 1.42 ;&st7;   " d=" M  1232.29,   571.19  C  1234.80    571.19   1236.83    569.16   1236.83    566.66  " /><text style="&st18;" transform="matrix(&st16;  1229.87  568.63 )">C</text><text style="&st18;" transform="matrix(&st16;  1270.47  568.63 )">13</text><path style="stroke-width: 1.42 ;&st7;   " d=" M  1287.82,   566.66  C  1287.82    564.15   1285.79    562.12   1283.29    562.12  " /><path style="stroke-width: 1.42 ;&st7;   " d=" M  1283.29,   562.12  C  1280.78    562.12   1278.75    564.15   1278.75    566.66  " /><path style="stroke-width: 1.42 ;&st7;   " d=" M  1278.75,   566.66  C  1278.75    569.16   1280.78    571.19   1283.29    571.19  " /><path style="stroke-width: 1.42 ;&st7;   " d=" M  1283.29,   571.19  C  1285.79    571.19   1287.82    569.16   1287.82    566.66  " /><text style="&st18;" transform="matrix(&st16;  1280.86  568.63 )">C</text><text style="&st18;" transform="matrix(&st16;  1270.47  594.69 )">12</text><text style="&st18;" transform="matrix(&st16;  1280.86  594.69 )">C</text><path style="stroke-width: 1.42 ;&st7;   " d=" M  1287.82,   592.72  C  1287.82    590.22   1285.79    588.19   1283.29    588.19  " /><path style="stroke-width: 1.42 ;&st7;   " d=" M  1283.29,   588.19  C  1280.78    588.19   1278.75    590.22   1278.75    592.72  " /><path style="stroke-width: 1.42 ;&st7;   " d=" M  1278.75,   592.72  C  1278.75    595.22   1280.78    597.25   1283.29    597.25  " /><path style="stroke-width: 1.42 ;&st7;   " d=" M  1283.29,   597.25  C  1285.79    597.25   1287.82    595.22   1287.82    592.72  " /><g ewd:figtype="title"><text style="&st18;" transform="matrix(&st17;  1306.5  591.09 )" ewd:textID="17">No. 36 <tspan x="0 " dy="6.0">Junction </tspan><tspan x="0 " dy="6.0">Connector</tspan></text><text style="&st18;" transform="matrix(&st17;  1299.68  591.09 )">I118(C)</text></g></g><g ewd:figtype="w2w" ewd:figID="48" ewd:code="IS2"><path style="stroke-width: 1.42 ;&st7;  " d=" M  1194.05,   502.63  L  1198.30,   506.88  L  1202.55,   502.63  " /><path style="stroke-width: 1.42 ;&st7;  " d=" M  1202.55,   506.03  L  1198.30,   510.28  L  1194.05,   506.03  " /><text style="&st18;" transform="matrix(&st16;  1184.88  517.92 )">4</text></g><g ewd:figtype="w2w" ewd:figID="49" ewd:code="IS2"><path style="stroke-width: 1.42 ;&st7;  " d=" M  1202.55,   240.31  L  1198.30,   236.06  L  1194.05,   240.31  " /><path style="stroke-width: 1.42 ;&st7;  " d=" M  1202.55,   236.91  L  1198.30,   232.66  L  1194.05,   236.91  " /><text style="&st18;" transform="matrix(&st16;  1181.55  228.97 )">20</text></g><g ewd:figtype="w2w" ewd:figID="50" ewd:code="UI5"><path style="stroke-width: 1.42 ;&st7;  " d=" M  1236.54,   529.26  L  1232.29,   525.01  L  1228.04,   529.26  " /><path style="stroke-width: 1.42 ;&st7;  " d=" M  1236.54,   525.86  L  1232.29,   521.61  L  1228.04,   525.86  " /><text style="&st18;" transform="matrix(&st16;  1215.54  517.92 )">12</text></g><g ewd:figtype="w2w" ewd:figID="51" ewd:code="UI5"><path style="stroke-width: 1.42 ;&st7;  " d=" M  1228.04,   213.68  L  1232.29,   217.93  L  1236.54,   213.68  " /><path style="stroke-width: 1.42 ;&st7;  " d=" M  1236.54,   217.08  L  1232.29,   221.33  L  1228.04,   217.08  " /><text style="&st18;" transform="matrix(&st16;  1215.54  228.97 )">14</text></g><g ewd:figtype="w2w" ewd:figID="52" ewd:code="YI4"><text style="&st18;" transform="matrix(&st16;  1249.54  228.97 )">17</text></g><g ewd:code="YI3" ewd:figID="53" ewd:comment="10" ewd:figtype="w2w"><path style="stroke-width: 1.42 ;&st7;  " d=" M  1270.54,   208.58  L  1266.29,   212.83  L  1262.04,   208.58  " /><path style="stroke-width: 1.42 ;&st7;  " d=" M  1262.04,   205.18  L  1266.29,   209.43  L  1270.54,   205.18  " /><text style="&st18;" transform="matrix(&st16;  1252.87  220.47 )">2</text><g ewd:code="" ewd:figID="139" ewd:comment="10" ewd:figtype="commref"><text style="&st18;" transform="matrix(&st16;  1275.32  220.47 )">(*10)</text></g></g><g ewd:code="YI4" ewd:figID="54" ewd:comment="11" ewd:figtype="w2w"><path style="stroke-width: 1.42 ;&st7;  " d=" M  1287.53,   525.86  L  1283.29,   521.61  L  1279.04,   525.86  " /><path style="stroke-width: 1.42 ;&st7;  " d=" M  1287.53,   529.26  L  1283.29,   525.01  L  1279.04,   529.26  " /><text style="&st18;" transform="matrix(&st16;  1269.87  517.92 )">8</text><g ewd:code="" ewd:figID="141" ewd:comment="11" ewd:figtype="commref"><text style="&st18;" transform="matrix(&st16;  1292.32  517.92 )">(*11)</text></g></g><g ewd:code="YI3" ewd:figID="55" ewd:comment="10" ewd:figtype="w2w"><text style="&st18;" transform="matrix(&st16;  1269.87  509.42 )">6</text><g ewd:code="" ewd:figID="142" ewd:comment="10" ewd:figtype="commref"><text style="&st18;" transform="matrix(&st16;  1292.32  509.42 )">(*10)</text></g></g><g ewd:code="" ewd:figID="138" ewd:comment="11" ewd:figtype="commref"><text style="&st18;" transform="matrix(&st16;  1275.32  228.97 )">(*11)</text></g></svg>