<?xml version="1.0" encoding="utf-8"?>
<!DOCTYPE svg PUBLIC "-//W3C//DTD SVG 1.0//EN" "http://www.w3.org/TR/2001/REC-SVG-20010904/DTD/svg10.dtd"[
	<!ENTITY ns_flows "http://ns.adobe.com/Flows/1.0/">
	<!ENTITY ns_svg "http://www.w3.org/2000/svg">
	<!ENTITY ns_xlink "http://www.w3.org/1999/xlink">
	<!ENTITY st0 "font-size:7px;font-family:'MS-PGothic';adobe-font-script:japanese;">
	<!ENTITY st1 "font-size:6px;font-family:'ArialMT';">
	<!-- White fill  -->
	<!ENTITY st2 "fill:#FFFFFF;stroke:#000000; stroke-width:1.41;stroke-linecap:round;stroke-linejoin:round;">
	<!-- Yellow fill  -->
	<!ENTITY st3 "fill:#FFFFCC;stroke:#FFFFCC; stroke-width:0.1;stroke-linecap:round;stroke-linejoin:round;">
	<!-- Gray fill  -->
	<!ENTITY st4 "fill:#CCCCCC;stroke:#CCCCCC; stroke-width:0.1;stroke-linecap:round;stroke-linejoin:round;">
	<!-- Light-blue fill -->
	<!ENTITY st5 "fill:#CCECF4;stroke:#000000; stroke-width:1.133;stroke-linecap:round;stroke-linejoin:round;">
	<!ENTITY st6 "fill:none;stroke-linecap:butt; stroke-linejoin:round;">
	<!ENTITY st7 "fill:none;stroke:#000000;stroke-linecap:round;stroke-linejoin:round;">
	<!ENTITY st8 "enable-background:new    ;">
	<!-- Black fill -->
	<!ENTITY st9 "fill:#000000;stroke:#000000; stroke-linecap:round;stroke-linejoin:round;">
	<!-- SRS note   -->
	<!ENTITY st10 "font-size:9px;font-family:'ArialMT';">
	<!ENTITY st11 "font-size:9px;font-family:'Svg Symbol';">
	<!ENTITY st12 "font-size:6px;font-family:'Svg Symbol';">
	<!ENTITY st13 "fill:none;stroke:#ff0000;stroke-linecap:round;stroke-linejoin:round;">
	<!-- Yellow fill  -->
	<!ENTITY st14 "fill:#FFFF00;stroke:#FFFF00; stroke-width:0.1;stroke-linecap:round;stroke-linejoin:round;">
	<!ENTITY st15 "font-size:6px;font-family:'MS-PGothic';adobe-font-script:japanese;">
	<!ENTITY st16 "1.00 0.00 0.00 1.00">
	<!ENTITY st17 "0.00 -1.00 1.00 0.00">
	<!ENTITY st18 "font-size:6px;font-family:'Arial';">
	<!ENTITY st19 "font-size:9px;font-family:'Arial';">
	<!ENTITY st20 "font-size:6px;font-family:'MS-PGothic','MS PGothic';adobe-font-script:japanese;">
	<!ENTITY st21 "font-size:7px;font-family:'MS-PGothic','MS PGothic';adobe-font-script:japanese;">
	<!ATTLIST svg
		xmlns:ewd CDATA #FIXED "http://shcl.co.jp/ewd"
		xmlns:a CDATA #FIXED "http://ns.adobe.com/AdobeSVGViewerExtensions/3.0/"
		ewd:ver CDATA #IMPLIED
	>
	<!ATTLIST a
		ewd:lineID CDATA #IMPLIED
		ewd:groupID CDATA #IMPLIED
		ewd:figtype CDATA #IMPLIED
		ewd:code CDATA #IMPLIED
		ewd:figID CDATA #IMPLIED
		ewd:pinNo CDATA #IMPLIED
		ewd:comment CDATA #IMPLIED >
	<!ATTLIST g
		ewd:lineID CDATA #IMPLIED
		ewd:groupID CDATA #IMPLIED
		ewd:figtype CDATA #IMPLIED
		ewd:code CDATA #IMPLIED
		ewd:figID CDATA #IMPLIED
		ewd:pinNo CDATA #IMPLIED
		ewd:comment CDATA #IMPLIED >
	<!ATTLIST text
		ewd:textID CDATA #IMPLIED >
	<!ATTLIST title
		ewd:textID CDATA #IMPLIED >
]>
<!-- Generator: Shintec Hozumi YS   -->
<svg onload="call_execInitLoadProc_svg('system')" style="overflow:visible;  enable-background:new 0 0 3608.188 710.000" viewBox="0 0 3608.188 710.000" height="710.000" width="3608.188" xml:space="preserve" ewd:ver="2.3.1.16" xmlns="&ns_svg;" xmlns:a="http://ns.adobe.com/AdobeSVGViewerExtensions/3.0/" xmlns:ewd="http://shcl.co.jp/ewd" xmlns:xlink="&ns_xlink;">
<path style="stroke-width: 1.42 ;&st7;  " d=" M  1198.30,   248.24  L  1206.80,   248.24  " /><path style="stroke-width: 1.42 ;&st7;  " d=" M  1266.29,   256.74  L  1257.79,   256.74  " /><path style="stroke-width: 1.42 ;&st7;  " d=" M  1215.30,   180.26  L  1206.80,   180.26  " /><path style="stroke-width: 1.42 ;&st7;  " d=" M  1121.81,   508.17  L  1116.84,   503.20  " /><path style="stroke-width: 1.42 ;&st7;  " d=" M  1104.82,   515.23  L  1109.78,   520.20  " /><path style="stroke-width: 1.42 ;&st7;  " d=" M  1116.84,   520.20  L  1121.81,   515.23  " /><path style="stroke-width: 1.42 ;&st7;  " d=" M  1109.78,   503.20  L  1104.82,   508.17  " /><text style="&st18;" transform="matrix(&st17;  1109.62  406.94 )">W-B</text><text style="&st18;" transform="matrix(&st17;  1254.09  283.62 )">L</text><text style="&st18;" transform="matrix(&st17;  1265.43  286.8 )">(*1)</text><text style="&st18;" transform="matrix(&st17;  1203.1  283.62 )">L</text><text style="&st18;" transform="matrix(&st17;  1214.43  286.8 )">(*2)</text><text style="&st18;" transform="matrix(&st17;  1214.43  227.31 )">(*2)</text><text style="&st18;" transform="matrix(&st17;  1203.1  224.13 )">L</text><text style="&st18;" transform="matrix(&st17;  1265.43  227.31 )">(*1)</text><text style="&st18;" transform="matrix(&st17;  1254.09  224.13 )">L</text><text style="&st18;" transform="matrix(&st17;  1203.1  156.14 )">L</text><text style="&st18;" transform="matrix(&st17;  1067.13  602.41 )">W-B</text><text style="&st18;" transform="matrix(&st17;  1078.46  601.24 )">(*2)</text><text style="&st18;" transform="matrix(&st17;  1109.62  602.41 )">W-B</text><text style="&st18;" transform="matrix(&st17;  1120.95  601.24 )">(*1)</text><text style="&st18;" transform="matrix(&st17;  1152.11  602.41 )">W-B</text><text style="&st18;" transform="matrix(&st17;  1163.44  601.24 )">(*1)</text><text style="&st18;" transform="matrix(&st17;  1092.62  138.5 )">G-Y</text><text style="&st18;" transform="matrix(&st17;  1152.11  135.59 )">G</text><path style="stroke-width: 1.42 ;&st7;  " d=" M  1453.26,   185.23  L  1448.29,   180.26  " /><path style="stroke-width: 1.42 ;&st7;  " d=" M  1436.26,   192.28  L  1441.23,   197.25  " /><path style="stroke-width: 1.42 ;&st7;  " d=" M  1448.29,   197.25  L  1453.26,   192.28  " /><path style="stroke-width: 1.42 ;&st7;  " d=" M  1441.23,   180.26  L  1436.26,   185.23  " /><path style="stroke-width: 1.42 ;&st7;  " d=" M  1351.27,   185.23  L  1346.30,   180.26  " /><path style="stroke-width: 1.42 ;&st7;  " d=" M  1334.28,   192.28  L  1339.25,   197.25  " /><path style="stroke-width: 1.42 ;&st7;  " d=" M  1346.30,   197.25  L  1351.27,   192.28  " /><path style="stroke-width: 1.42 ;&st7;  " d=" M  1339.25,   180.26  L  1334.28,   185.23  " /><path style="stroke-width: 1.42 ;&st7;  " d=" M  1381.74,   503.20  L  1376.77,   508.17  " /><path style="stroke-width: 1.42 ;&st7;  " d=" M  1388.80,   520.20  L  1393.77,   515.23  " /><path style="stroke-width: 1.42 ;&st7;  " d=" M  1376.77,   515.23  L  1381.74,   520.20  " /><path style="stroke-width: 1.42 ;&st7;  " d=" M  1393.77,   508.17  L  1388.80,   503.20  " /><path style="stroke-width: 1.42 ;&st7;  " d=" M  1339.25,   503.20  L  1334.28,   508.17  " /><path style="stroke-width: 1.42 ;&st7;  " d=" M  1346.30,   520.20  L  1351.27,   515.23  " /><path style="stroke-width: 1.42 ;&st7;  " d=" M  1334.28,   515.23  L  1339.25,   520.20  " /><path style="stroke-width: 1.42 ;&st7;  " d=" M  1351.27,   508.17  L  1346.30,   503.20  " /><path style="stroke-width: 1.42 ;&st7;  " d=" M  1376.77,   435.21  L  1385.27,   435.21  " /><path style="stroke-width: 1.42 ;&st7;  " d=" M  1351.27,   341.73  L  1342.78,   341.73  " /><path style="stroke-width: 1.42 ;&st7;  " d=" M  1351.27,   443.71  L  1342.78,   443.71  " /><path style="stroke-width: 1.42 ;&st7;  " d=" M  1453.26,   550.67  L  1448.29,   545.69  " /><path style="stroke-width: 1.42 ;&st7;  " d=" M  1436.26,   557.72  L  1441.23,   562.69  " /><path style="stroke-width: 1.42 ;&st7;  " d=" M  1448.29,   562.69  L  1453.26,   557.72  " /><path style="stroke-width: 1.42 ;&st7;  " d=" M  1441.23,   545.69  L  1436.26,   550.67  " /><path style="stroke-width: 1.42 ;&st7;  " d=" M  1453.26,   443.71  L  1444.76,   443.71  " /><path style="stroke-width: 1.42 ;&st7;  " d=" M  1453.26,   341.73  L  1444.76,   341.73  " /><path style="stroke-width: 1.42 ;&st7;  " d=" M  1495.75,   550.67  L  1490.78,   545.69  " /><path style="stroke-width: 1.42 ;&st7;  " d=" M  1478.75,   557.72  L  1483.72,   562.69  " /><path style="stroke-width: 1.42 ;&st7;  " d=" M  1490.78,   562.69  L  1495.75,   557.72  " /><path style="stroke-width: 1.42 ;&st7;  " d=" M  1483.72,   545.69  L  1478.75,   550.67  " /><path style="stroke-width: 1.42 ;&st7;  " d=" M  1487.25,   435.21  L  1478.75,   435.21  " /><text style="&st18;" transform="matrix(&st17;  1214.43  401.53 )">(*2)</text><text style="&st18;" transform="matrix(&st17;  1494.89  482.26 )">(*2)</text><text style="&st18;" transform="matrix(&st17;  1239.93  401.53 )">(*1)</text><text style="&st18;" transform="matrix(&st17;  1441.06  142.82 )">G-B</text><text style="&st18;" transform="matrix(&st17;  1339.08  142.75 )">G-Y</text><text style="&st18;" transform="matrix(&st17;  1392.9  401.53 )">(*2)</text><text style="&st18;" transform="matrix(&st17;  1381.57  401.95 )">G-Y</text><text style="&st18;" transform="matrix(&st17;  1228.6  399.05 )">G</text><text style="&st18;" transform="matrix(&st17;  1381.57  479.78 )">G</text><text style="&st18;" transform="matrix(&st17;  1262.59  399.05 )">G</text><text style="&st18;" transform="matrix(&st17;  1339.08  479.78 )">G</text><text style="&st18;" transform="matrix(&st17;  1350.41  401.53 )">(*1)</text><text style="&st18;" transform="matrix(&st17;  1339.08  401.95 )">G-Y</text><text style="&st18;" transform="matrix(&st17;  1441.06  479.78 )">G</text><text style="&st18;" transform="matrix(&st17;  1288.09  399.05 )">G</text><text style="&st18;" transform="matrix(&st17;  1441.06  402.03 )">G-B</text><text style="&st18;" transform="matrix(&st17;  1452.39  401.53 )">(*1)</text><text style="&st18;" transform="matrix(&st17;  1483.56  402.03 )">G-B</text><text style="&st18;" transform="matrix(&st17;  1494.89  401.53 )">(*2)</text><text style="&st18;" transform="matrix(&st17;  1483.56  479.78 )">G</text><text style="&st18;" transform="matrix(&st17;  1203.1  399.05 )">G</text><text style="&st18;" transform="matrix(&st17;  1273.92  401.53 )">(*2)</text><text style="&st18;" transform="matrix(&st17;  1350.41  482.26 )">(*1)</text><text style="&st18;" transform="matrix(&st17;  1299.42  401.53 )">(*1)</text><text style="&st18;" transform="matrix(&st17;  1452.39  482.26 )">(*1)</text><text style="&st18;" transform="matrix(&st17;  1392.9  482.26 )">(*2)</text><text style="&st18;" transform="matrix(&st17;  1441.06  240.56 )">G-B</text><text style="&st18;" transform="matrix(&st17;  1350.41  147.67 )">(*9 *36)</text><text style="&st18;" transform="matrix(&st17;  1350.41  245.41 )">(*9 *36)</text><text style="&st18;" transform="matrix(&st17;  1339.08  240.48 )">G-Y</text><text style="&st18;" transform="matrix(&st17;  1010.47  405.78 )">(*1)</text><text style="&st18;" transform="matrix(&st17;  1452.4  245.41 )">(*9 *36)</text><text style="&st18;" transform="matrix(&st17;  1452.4  147.67 )">(*9 *36)</text><text style="&st18;" transform="matrix(&st17;  1466.56  142.01 )">GR</text><text style="&st18;" transform="matrix(&st17;  1477.89  147.67 )">(*9 *37)</text><text style="&st18;" transform="matrix(&st17;  1313.58  139.41 )">Y</text><text style="&st18;" transform="matrix(&st17;  1324.92  147.67 )">(*9 *37)</text><text style="&st18;" transform="matrix(&st17;  1313.58  237.15 )">Y</text><text style="&st18;" transform="matrix(&st17;  1324.92  245.41 )">(*9 *37)</text><text style="&st18;" transform="matrix(&st17;  1415.57  239.74 )">GR</text><text style="&st18;" transform="matrix(&st17;  1426.9  245.41 )">(*9 *37)</text><g ewd:figtype="rb" ewd:figID="2" ewd:code="FUSE36"><path style="stroke-width: 1.42 ;&st7;  " d=" M  1098.44,    95.27  L  1094.19,    95.27  " /><path style="stroke-width: 1.42 ;&st7;  " d=" M  1098.44,   103.77  L  1094.19,   103.77  " /><path style="stroke-width: 0.85 ;&st7;  " d=" M  1096.32,    78.27  L  1096.32,    95.27  " /><path style="stroke-width: 1.42 ;&st7;   " d=" M  1094.19,    95.27  C  1091.85     95.27   1089.94     97.17   1089.94     99.52  " /><path style="stroke-width: 1.42 ;&st7;   " d=" M  1089.94,    99.52  C  1089.94    101.87   1091.85    103.77   1094.19    103.77  " /><path style="stroke-width: 1.42 ;&st7;   " d=" M  1098.44,   103.77  C  1100.79    103.77   1102.69    101.87   1102.69     99.52  " /><path style="stroke-width: 1.42 ;&st7;   " d=" M  1102.69,    99.52  C  1102.69     97.17   1100.79     95.27   1098.44     95.27  " /><path style="stroke-width: 0.28 ;&st9;  " d=" M  1096.32,    90.37  L  1093.48,    87.54  L  1093.48,    91.79  L  1096.32,    94.62  L  1099.15,    91.79  L  1099.15,    87.54  L  1096.32,    90.37  " /><text style="&st18;" transform="matrix(&st16;  1112.74  56.17 )">30A <tspan x="0 " dy="6.0">STOP</tspan></text><text style="&st18;" transform="matrix(&st16;  1094.44  101.49 )">2</text><text style="&st18;" transform="matrix(&st16;  1089.98  86.47 )">2</text><text style="&st18;" transform="matrix(&st16;  1088.23  32.08 )">(BAT)</text><path style="stroke-width: 0.85 ;&st7;  " d=" M  1096.32,    69.77  L  1096.32,    78.27  " /><path style="stroke-width: 1.42 ;&st7;   " d=" M  1096.32,    47.11  C  1093.58     48.72   1092.67     52.25   1094.28     54.99  " /><path style="stroke-width: 1.42 ;&st7;   " d=" M  1094.28,    54.99  C  1094.80     55.87   1095.43     56.51   1096.32     57.03  " /><path style="stroke-width: 1.42 ;&st7;   " d=" M  1096.32,    66.94  C  1099.05     65.33   1099.97     61.80   1098.35     59.06  " /><path style="stroke-width: 1.42 ;&st7;   " d=" M  1098.35,    59.06  C  1097.83     58.18   1097.20     57.55   1096.32     57.03  " /><path style="stroke-width: 0.85 ;&st7;   " d=" M  1097.73,    45.69  C  1097.73     44.91   1097.10     44.28   1096.32     44.28  " /><path style="stroke-width: 0.85 ;&st7;   " d=" M  1096.32,    44.28  C  1095.53     44.28   1094.90     44.91   1094.90     45.69  " /><path style="stroke-width: 0.85 ;&st7;   " d=" M  1094.90,    45.69  C  1094.90     46.48   1095.53     47.11   1096.32     47.11  " /><path style="stroke-width: 0.85 ;&st7;   " d=" M  1096.32,    47.11  C  1097.10     47.11   1097.73     46.48   1097.73     45.69  " /><path style="stroke-width: 0.85 ;&st7;   " d=" M  1097.73,    68.36  C  1097.73     67.57   1097.10     66.94   1096.32     66.94  " /><path style="stroke-width: 0.85 ;&st7;   " d=" M  1096.32,    66.94  C  1095.53     66.94   1094.90     67.57   1094.90     68.36  " /><path style="stroke-width: 0.85 ;&st7;   " d=" M  1094.90,    68.36  C  1094.90     69.14   1095.53     69.77   1096.32     69.77  " /><path style="stroke-width: 0.85 ;&st7;   " d=" M  1096.32,    69.77  C  1097.10     69.77   1097.73     69.14   1097.73     68.36  " /><path style="stroke-width: 1.42 ;&st7;  " d=" M  1083.57,    35.78  L  1083.57,    78.27  L  1109.06,    78.27  L  1109.06,    35.78  L  1083.57,    35.78  " /></g><g ewd:figtype="rb" ewd:figID="3" ewd:code="FUSE30"><path style="stroke-width: 0.85 ;&st7;  " d=" M  1206.80,   112.27  L  1206.80,   129.26  " /><path style="stroke-width: 1.42 ;&st7;  " d=" M  1208.92,   137.76  L  1204.67,   137.76  " /><path style="stroke-width: 1.42 ;&st7;  " d=" M  1208.92,   129.26  L  1204.67,   129.26  " /><path style="stroke-width: 1.42 ;&st7;  " d=" M  1208.92,    44.28  L  1204.67,    44.28  " /><path style="stroke-width: 1.42 ;&st7;  " d=" M  1208.92,    52.78  L  1204.67,    52.78  " /><path style="stroke-width: 1.42 ;&st7;   " d=" M  1213.17,   133.51  C  1213.17    131.17   1211.27    129.26   1208.92    129.26  " /><path style="stroke-width: 1.42 ;&st7;   " d=" M  1208.92,   137.76  C  1211.27    137.76   1213.17    135.86   1213.17    133.51  " /><path style="stroke-width: 1.42 ;&st7;   " d=" M  1200.42,   133.51  C  1200.42    135.86   1202.33    137.76   1204.67    137.76  " /><path style="stroke-width: 1.42 ;&st7;   " d=" M  1204.67,   129.26  C  1202.33    129.26   1200.42    131.17   1200.42    133.51  " /><path style="stroke-width: 1.42 ;&st7;   " d=" M  1204.67,    44.28  C  1202.33     44.28   1200.42     46.18   1200.42     48.53  " /><path style="stroke-width: 1.42 ;&st7;   " d=" M  1200.42,    48.53  C  1200.42     50.87   1202.33     52.78   1204.67     52.78  " /><path style="stroke-width: 1.42 ;&st7;   " d=" M  1208.92,    52.78  C  1211.27     52.78   1213.17     50.87   1213.17     48.53  " /><path style="stroke-width: 1.42 ;&st7;   " d=" M  1213.17,    48.53  C  1213.17     46.18   1211.27     44.28   1208.92     44.28  " /><path style="stroke-width: 0.28 ;&st9;  " d=" M  1206.80,   124.37  L  1203.96,   121.54  L  1203.96,   125.79  L  1206.80,   128.62  L  1209.63,   125.79  L  1209.63,   121.54  L  1206.80,   124.37  " /><path style="stroke-width: 0.28 ;&st9;  " d=" M  1206.80,    57.67  L  1209.63,    60.50  L  1209.63,    56.26  L  1206.80,    53.42  L  1203.96,    56.26  L  1203.96,    60.50  L  1206.80,    57.67  " /><path style="stroke-width: 0.85 ;&st7;  " d=" M  1206.80,    52.78  L  1206.80,    69.77  " /><text style="&st18;" transform="matrix(&st16;  1200.46  120.46 )">2</text><text style="&st18;" transform="matrix(&st16;  1204.92  135.48 )">2</text><text style="&st18;" transform="matrix(&st16;  1223.22  87.34 )">15A <tspan x="0 " dy="6.0">TRAILER </tspan><tspan x="0 " dy="6.0">STOP</tspan></text><text style="&st18;" transform="matrix(&st16;  1204.92  50.5 )">2</text><text style="&st18;" transform="matrix(&st16;  1200.46  66.08 )">1</text><path style="stroke-width: 0.85 ;&st7;  " d=" M  1206.80,   103.77  L  1206.80,   112.27  " /><path style="stroke-width: 0.85 ;&st7;   " d=" M  1208.21,   102.35  C  1208.21    101.57   1207.58    100.94   1206.80    100.94  " /><path style="stroke-width: 0.85 ;&st7;   " d=" M  1206.80,   100.94  C  1206.02    100.94   1205.38    101.57   1205.38    102.35  " /><path style="stroke-width: 0.85 ;&st7;   " d=" M  1205.38,   102.35  C  1205.38    103.13   1206.02    103.77   1206.80    103.77  " /><path style="stroke-width: 0.85 ;&st7;   " d=" M  1206.80,   103.77  C  1207.58    103.77   1208.21    103.13   1208.21    102.35  " /><path style="stroke-width: 0.85 ;&st7;   " d=" M  1208.21,    79.69  C  1208.21     78.91   1207.58     78.27   1206.80     78.27  " /><path style="stroke-width: 0.85 ;&st7;   " d=" M  1206.80,    78.27  C  1206.02     78.27   1205.38     78.91   1205.38     79.69  " /><path style="stroke-width: 0.85 ;&st7;   " d=" M  1205.38,    79.69  C  1205.38     80.47   1206.02     81.11   1206.80     81.11  " /><path style="stroke-width: 0.85 ;&st7;   " d=" M  1206.80,    81.11  C  1207.58     81.11   1208.21     80.47   1208.21     79.69  " /><path style="stroke-width: 1.42 ;&st7;   " d=" M  1206.80,   100.94  C  1209.54     99.32   1210.45     95.79   1208.84     93.06  " /><path style="stroke-width: 1.42 ;&st7;   " d=" M  1208.84,    93.06  C  1208.32     92.17   1207.68     91.54   1206.80     91.02  " /><path style="stroke-width: 1.42 ;&st7;   " d=" M  1206.80,    81.11  C  1204.06     82.72   1203.15     86.25   1204.76     88.98  " /><path style="stroke-width: 1.42 ;&st7;   " d=" M  1204.76,    88.98  C  1205.28     89.87   1205.92     90.50   1206.80     91.02  " /><path style="stroke-width: 1.42 ;&st7;  " d=" M  1194.05,    69.77  L  1194.05,   112.27  L  1219.55,   112.27  L  1219.55,    69.77  L  1194.05,    69.77  " /><path style="stroke-width: 0.85 ;&st7;  " d=" M  1206.80,    69.77  L  1206.80,    78.27  " /></g><g ewd:code="I19" ewd:figID="4" ewd:comment="12,15" ewd:figtype="conn"><path style="stroke-width: 1.42 ;&st7;  " d=" M  1096.32,   198.67  L  1101.98,   176.01  " /><path style="stroke-width: 0.85 ;&st7;  " d=" M  1096.32,   205.75  L  1096.32,   201.50  " /><path style="stroke-width: 0.85 ;&st7;  " d=" M  1096.32,   176.01  L  1096.32,   171.76  " /><path style="stroke-width: 0.85 ;&st7;   " d=" M  1097.73,   200.09  C  1097.73    199.30   1097.10    198.67   1096.32    198.67  " /><path style="stroke-width: 0.85 ;&st7;   " d=" M  1096.32,   198.67  C  1095.53    198.67   1094.90    199.30   1094.90    200.09  " /><path style="stroke-width: 0.85 ;&st7;   " d=" M  1094.90,   200.09  C  1094.90    200.87   1095.53    201.50   1096.32    201.50  " /><path style="stroke-width: 0.85 ;&st7;   " d=" M  1096.32,   201.50  C  1097.10    201.50   1097.73    200.87   1097.73    200.09  " /><path style="stroke-width: 0.85 ;&st7;   " d=" M  1097.73,   177.42  C  1097.73    176.64   1097.10    176.01   1096.32    176.01  " /><path style="stroke-width: 0.85 ;&st7;   " d=" M  1096.32,   176.01  C  1095.53    176.01   1094.90    176.64   1094.90    177.42  " /><path style="stroke-width: 0.85 ;&st7;   " d=" M  1094.90,   177.42  C  1094.90    178.20   1095.53    178.84   1096.32    178.84  " /><path style="stroke-width: 0.85 ;&st7;   " d=" M  1096.32,   178.84  C  1097.10    178.84   1097.73    178.20   1097.73    177.42  " /><path style="stroke-width: 1.42 ;&st7;  " d=" M  1104.81,   205.75  L  1104.81,   171.76  L  1087.82,   171.76  L  1087.82,   205.75  L  1104.81,   205.75  " /><text style="&st18;" transform="matrix(&st16;  1086.84  221.32 )">1</text><text style="&st18;" transform="matrix(&st16;  1086.84  212.25 )">1</text><path style="stroke-width: 1.42 ;&st7;   " d=" M  1100.85,   219.35  C  1100.85    216.85   1098.82    214.82   1096.32    214.82  " /><path style="stroke-width: 1.42 ;&st7;   " d=" M  1096.32,   214.82  C  1093.81    214.82   1091.78    216.85   1091.78    219.35  " /><path style="stroke-width: 1.42 ;&st7;   " d=" M  1091.78,   219.35  C  1091.78    221.85   1093.81    223.88   1096.32    223.88  " /><path style="stroke-width: 1.42 ;&st7;   " d=" M  1096.32,   223.88  C  1098.82    223.88   1100.85    221.85   1100.85    219.35  " /><path style="stroke-width: 1.42 ;&st7;   " d=" M  1100.85,   210.28  C  1100.85    207.78   1098.82    205.75   1096.32    205.75  " /><path style="stroke-width: 1.42 ;&st7;   " d=" M  1096.32,   205.75  C  1093.81    205.75   1091.78    207.78   1091.78    210.28  " /><path style="stroke-width: 1.42 ;&st7;   " d=" M  1091.78,   210.28  C  1091.78    212.79   1093.81    214.82   1096.32    214.82  " /><path style="stroke-width: 1.42 ;&st7;   " d=" M  1096.32,   214.82  C  1098.82    214.82   1100.85    212.79   1100.85    210.28  " /><text style="&st18;" transform="matrix(&st16;  1094.05  221.32 )">B</text><text style="&st18;" transform="matrix(&st16;  1094.05  212.25 )">A</text><text style="&st18;" transform="matrix(&st16;  1086.84  160.13 )">2</text><text style="&st18;" transform="matrix(&st16;  1086.84  169.19 )">2</text><path style="stroke-width: 1.42 ;&st7;   " d=" M  1100.85,   158.16  C  1100.85    155.66   1098.82    153.63   1096.32    153.63  " /><path style="stroke-width: 1.42 ;&st7;   " d=" M  1096.32,   153.63  C  1093.81    153.63   1091.78    155.66   1091.78    158.16  " /><path style="stroke-width: 1.42 ;&st7;   " d=" M  1091.78,   158.16  C  1091.78    160.66   1093.81    162.69   1096.32    162.69  " /><path style="stroke-width: 1.42 ;&st7;   " d=" M  1096.32,   162.69  C  1098.82    162.69   1100.85    160.66   1100.85    158.16  " /><path style="stroke-width: 1.42 ;&st7;   " d=" M  1100.85,   167.22  C  1100.85    164.72   1098.82    162.69   1096.32    162.69  " /><path style="stroke-width: 1.42 ;&st7;   " d=" M  1096.32,   162.69  C  1093.81    162.69   1091.78    164.72   1091.78    167.22  " /><path style="stroke-width: 1.42 ;&st7;   " d=" M  1091.78,   167.22  C  1091.78    169.73   1093.81    171.76   1096.32    171.76  " /><path style="stroke-width: 1.42 ;&st7;   " d=" M  1096.32,   171.76  C  1098.82    171.76   1100.85    169.73   1100.85    167.22  " /><text style="&st18;" transform="matrix(&st16;  1094.05  169.19 )">B</text><text style="&st18;" transform="matrix(&st16;  1094.05  160.13 )">A</text><g ewd:figtype="title"><text style="&st18;" transform="matrix(&st17;  1077.3  217.15 )">I19(A),(B)</text><text style="&st18;" transform="matrix(&st17;  1084.12  217.16 )" ewd:textID="42">Stop Light Switch Assembly</text></g><g ewd:code="" ewd:figID="188" ewd:comment="15" ewd:figtype="commref"><text style="&st18;" transform="matrix(&st16;  1101.41  169.19 )">(*15)</text></g><g ewd:code="" ewd:figID="189" ewd:comment="12" ewd:figtype="commref"><text style="&st18;" transform="matrix(&st16;  1101.41  160.13 )">(*12)</text></g><g ewd:code="" ewd:figID="190" ewd:comment="15" ewd:figtype="commref"><text style="&st18;" transform="matrix(&st16;  1101.41  221.32 )">(*15)</text></g><g ewd:code="" ewd:figID="191" ewd:comment="12" ewd:figtype="commref"><text style="&st18;" transform="matrix(&st16;  1101.41  212.25 )">(*12)</text></g></g><g ewd:figtype="conn" ewd:figID="5" ewd:code="T10"><g ewd:lineID="72"><text style="&st18;" transform="matrix(&st16;  1106.97  366.92 )">6</text><text style="&st18;" transform="matrix(&st16;  1106.4  355.03 )">GND</text></g><g ewd:lineID="74,99"><text style="&st18;" transform="matrix(&st16;  1200.46  366.92 )">3</text><text style="&st18;" transform="matrix(&st16;  1198.72  355.03 )">TRNL</text></g><g ewd:lineID="75,76"><text style="&st18;" transform="matrix(&st16;  1200.46  312.54 )">7</text><text style="&st18;" transform="matrix(&st16;  1198.37  323.87 )">COS1</text></g><g ewd:lineID="80,88"><text style="&st18;" transform="matrix(&st16;  1259.95  366.92 )">4</text><text style="&st18;" transform="matrix(&st16;  1257.66  355.03 )">TRNR</text></g><g ewd:figtype="title"><text style="&st18;" transform="matrix(&st16;  1149.56  335.46 )">T10</text><text style="&st18;" transform="matrix(&st16;  1149.57  342.28 )" ewd:textID="44">Trailer Socket</text></g></g><g ewd:figtype="conn" ewd:figID="35" ewd:code="I29"><path style="stroke-width: 1.42 ;&st7;  " d=" M  1325.78,    95.27  L  1742.21,    95.27  L  1742.21,    52.78  L  1325.78,    52.78  L  1325.78,    95.27  " /><g ewd:lineID="86,87"><text style="&st18;" transform="matrix(&st16;  1333.3  101.77 )">2</text><text style="&st18;" transform="matrix(&st16;  1340.51  101.77 )">B</text><path style="stroke-width: 1.42 ;&st7;   " d=" M  1347.31,    99.80  C  1347.31     97.30   1345.28     95.27   1342.78     95.27  " /><path style="stroke-width: 1.42 ;&st7;   " d=" M  1342.78,    95.27  C  1340.27     95.27   1338.24     97.30   1338.24     99.80  " /><path style="stroke-width: 1.42 ;&st7;   " d=" M  1338.24,    99.80  C  1338.24    102.31   1340.27    104.33   1342.78    104.33  " /><path style="stroke-width: 1.42 ;&st7;   " d=" M  1342.78,   104.33  C  1345.28    104.33   1347.31    102.31   1347.31     99.80  " /><text style="&st18;" transform="matrix(&st16;  1338.73  91.57 )">LR</text></g><g ewd:lineID="97,98"><text style="&st18;" transform="matrix(&st16;  1435.28  101.77 )">3</text><path style="stroke-width: 1.42 ;&st7;   " d=" M  1449.29,    99.80  C  1449.29     97.30   1447.26     95.27   1444.76     95.27  " /><path style="stroke-width: 1.42 ;&st7;   " d=" M  1444.76,    95.27  C  1442.26     95.27   1440.23     97.30   1440.23     99.80  " /><path style="stroke-width: 1.42 ;&st7;   " d=" M  1440.23,    99.80  C  1440.23    102.31   1442.26    104.33   1444.76    104.33  " /><path style="stroke-width: 1.42 ;&st7;   " d=" M  1444.76,   104.33  C  1447.26    104.33   1449.29    102.31   1449.29     99.80  " /><text style="&st18;" transform="matrix(&st16;  1442.49  101.77 )">B</text><text style="&st18;" transform="matrix(&st16;  1441.21  91.57 )">LL</text></g><g ewd:figtype="title"><text style="&st18;" transform="matrix(&st16;  1322.37  42.26 )">I29(B)</text><text style="&st18;" transform="matrix(&st16;  1322.37  49.08 )" ewd:textID="47">Turn Signal Flasher Assembly</text></g></g><g ewd:figtype="w2w" ewd:figID="75" ewd:code="TS2"><path style="stroke-width: 1.42 ;&st7;  " d=" M  1211.05,   242.58  L  1206.80,   246.83  L  1202.55,   242.58  " /><path style="stroke-width: 1.42 ;&st7;  " d=" M  1202.55,   239.18  L  1206.80,   243.43  L  1211.05,   239.18  " /><text style="&st18;" transform="matrix(&st16;  1190.05  254.46 )">11</text></g><g ewd:figtype="w2w" ewd:figID="76" ewd:code="IS3"><path style="stroke-width: 1.42 ;&st7;  " d=" M  1211.05,   185.92  L  1206.80,   181.67  L  1202.55,   185.92  " /><path style="stroke-width: 1.42 ;&st7;  " d=" M  1211.05,   189.32  L  1206.80,   185.07  L  1202.55,   189.32  " /><text style="&st18;" transform="matrix(&st16;  1193.38  177.98 )">4</text></g><g ewd:figtype="w2w" ewd:figID="77" ewd:code="ST2"><path style="stroke-width: 1.42 ;&st7;  " d=" M  1262.04,   265.81  L  1257.79,   261.56  L  1253.54,   265.81  " /><path style="stroke-width: 1.42 ;&st7;  " d=" M  1262.04,   262.41  L  1257.79,   258.16  L  1253.54,   262.41  " /><text style="&st18;" transform="matrix(&st16;  1244.37  254.46 )">3</text></g><g ewd:figtype="w2w" ewd:figID="78" ewd:code="ST2"><path style="stroke-width: 1.42 ;&st7;  " d=" M  1347.02,   452.78  L  1342.78,   448.53  L  1338.53,   452.78  " /><path style="stroke-width: 1.42 ;&st7;  " d=" M  1347.02,   449.38  L  1342.78,   445.13  L  1338.53,   449.38  " /><text style="&st18;" transform="matrix(&st16;  1329.36  441.43 )">6</text></g><g ewd:figtype="w2w" ewd:figID="79" ewd:code="IS3"><path style="stroke-width: 1.42 ;&st7;  " d=" M  1347.02,   350.79  L  1342.78,   346.54  L  1338.53,   350.79  " /><path style="stroke-width: 1.42 ;&st7;  " d=" M  1347.02,   347.39  L  1342.78,   343.14  L  1338.53,   347.39  " /><text style="&st18;" transform="matrix(&st16;  1326.02  339.45 )">19</text></g><g ewd:figtype="w2w" ewd:figID="80" ewd:code="TS2"><path style="stroke-width: 1.42 ;&st7;  " d=" M  1389.52,   429.55  L  1385.27,   433.80  L  1381.02,   429.55  " /><path style="stroke-width: 1.42 ;&st7;  " d=" M  1381.02,   426.15  L  1385.27,   430.40  L  1389.52,   426.15  " /><text style="&st18;" transform="matrix(&st16;  1371.85  441.43 )">5</text></g><g ewd:figtype="w2w" ewd:figID="81" ewd:code="ST2"><path style="stroke-width: 1.42 ;&st7;  " d=" M  1449.01,   452.78  L  1444.76,   448.53  L  1440.51,   452.78  " /><path style="stroke-width: 1.42 ;&st7;  " d=" M  1449.01,   449.38  L  1444.76,   445.13  L  1440.51,   449.38  " /><text style="&st18;" transform="matrix(&st16;  1428.01  441.43 )">10</text></g><g ewd:figtype="w2w" ewd:figID="82" ewd:code="IS3"><path style="stroke-width: 1.42 ;&st7;  " d=" M  1449.01,   347.39  L  1444.76,   343.14  L  1440.51,   347.39  " /><path style="stroke-width: 1.42 ;&st7;  " d=" M  1449.01,   350.79  L  1444.76,   346.54  L  1440.51,   350.79  " /><text style="&st18;" transform="matrix(&st16;  1428.01  339.45 )">20</text></g><g ewd:figtype="w2w" ewd:figID="83" ewd:code="TS2"><path style="stroke-width: 1.42 ;&st7;  " d=" M  1491.50,   429.55  L  1487.25,   433.80  L  1483.00,   429.55  " /><path style="stroke-width: 1.42 ;&st7;  " d=" M  1483.00,   426.15  L  1487.25,   430.40  L  1491.50,   426.15  " /><text style="&st18;" transform="matrix(&st16;  1473.83  441.43 )">4</text></g><g ewd:figtype="gp" ewd:figID="110" ewd:code="TA"><path style="stroke-width: 0.85 ;&st7;  " d=" M  1070.82,   697.25  L  1070.82,   701.50  " /><path style="stroke-width: 0.85 ;&st7;  " d=" M  1062.32,   701.50  L  1079.32,   701.50  " /><path style="stroke-width: 0.85 ;&st7;  " d=" M  1066.57,   704.33  L  1075.07,   704.33  " /><path style="stroke-width: 0.85 ;&st7;  " d=" M  1067.99,   707.17  L  1073.65,   707.17  " /><path style="stroke-width: 0.85 ;&st7;  " d=" M  1069.40,   710.00  L  1072.24,   710.00  " /></g><g ewd:figtype="gp" ewd:figID="111" ewd:code="TB"><path style="stroke-width: 0.85 ;&st7;  " d=" M  1111.90,   710.00  L  1114.73,   710.00  " /><path style="stroke-width: 0.85 ;&st7;  " d=" M  1110.48,   707.17  L  1116.15,   707.17  " /><path style="stroke-width: 0.85 ;&st7;  " d=" M  1109.06,   704.33  L  1117.56,   704.33  " /><path style="stroke-width: 0.85 ;&st7;  " d=" M  1104.81,   701.50  L  1121.81,   701.50  " /><path style="stroke-width: 0.85 ;&st7;  " d=" M  1113.31,   697.25  L  1113.31,   701.50  " /></g><g ewd:figtype="gp" ewd:figID="112" ewd:code="TC"><path style="stroke-width: 0.85 ;&st7;  " d=" M  1155.81,   697.25  L  1155.81,   701.50  " /><path style="stroke-width: 0.85 ;&st7;  " d=" M  1147.31,   701.50  L  1164.30,   701.50  " /><path style="stroke-width: 0.85 ;&st7;  " d=" M  1151.56,   704.33  L  1160.06,   704.33  " /><path style="stroke-width: 0.85 ;&st7;  " d=" M  1152.97,   707.17  L  1158.64,   707.17  " /><path style="stroke-width: 0.85 ;&st7;  " d=" M  1154.39,   710.00  L  1157.22,   710.00  " /></g><g ewd:code="9" ewd:figID="161" ewd:comment="" ewd:figtype="comment"><text style="&st18;" transform="matrix(&st16;  1262.88  641.15 )" ewd:textID="5">* 9 :24V Battery Type</text></g><g ewd:code="8" ewd:figID="162" ewd:comment="" ewd:figtype="comment"><text style="&st18;" transform="matrix(&st16;  1262.88  632.65 )" ewd:textID="4">* 8 :12V Battery Type</text></g><g ewd:code="36" ewd:figID="233" ewd:comment="" ewd:figtype="comment"><text style="&st18;" transform="matrix(&st16;  1262.88  666.64 )" ewd:textID="19">*36 :Before Sep. 2022 Production</text></g><g ewd:code="2" ewd:figID="163" ewd:comment="" ewd:figtype="comment"><text style="&st18;" transform="matrix(&st16;  1262.88  624.15 )" ewd:textID="2">* 2 :Except Pick-Up Body Type</text></g><g ewd:code="12" ewd:figID="193" ewd:comment="" ewd:figtype="comment"><text style="&st18;" transform="matrix(&st16;  1262.88  649.65 )">*12 :1GR-FE, 1VD-FTV</text></g><g ewd:code="37" ewd:figID="264" ewd:comment="" ewd:figtype="comment"><text style="&st18;" transform="matrix(&st16;  1262.88  675.14 )" ewd:textID="20">*37 :From Sep. 2022 Production</text></g><g ewd:code="1" ewd:figID="164" ewd:comment="" ewd:figtype="comment"><text style="&st18;" transform="matrix(&st16;  1262.88  615.65 )" ewd:textID="1">* 1 :Pick-Up Body Type</text></g><g ewd:code="15" ewd:figID="192" ewd:comment="" ewd:figtype="comment"><text style="&st18;" transform="matrix(&st16;  1262.88  658.14 )">*15 :1HZ</text></g></svg>