<?xml version="1.0" encoding="utf-8"?>
<!DOCTYPE svg PUBLIC "-//W3C//DTD SVG 1.0//EN" "http://www.w3.org/TR/2001/REC-SVG-20010904/DTD/svg10.dtd"[
	<!ENTITY ns_flows "http://ns.adobe.com/Flows/1.0/">
	<!ENTITY ns_svg "http://www.w3.org/2000/svg">
	<!ENTITY ns_xlink "http://www.w3.org/1999/xlink">
	<!ENTITY st0 "font-size:7px;font-family:'MS-PGothic';adobe-font-script:japanese;">
	<!ENTITY st1 "font-size:6px;font-family:'ArialMT';">
	<!-- White fill  -->
	<!ENTITY st2 "fill:#FFFFFF;stroke:#000000; stroke-width:1.41;stroke-linecap:round;stroke-linejoin:round;">
	<!-- Yellow fill  -->
	<!ENTITY st3 "fill:#FFFFCC;stroke:#FFFFCC; stroke-width:0.1;stroke-linecap:round;stroke-linejoin:round;">
	<!-- Gray fill  -->
	<!ENTITY st4 "fill:#CCCCCC;stroke:#CCCCCC; stroke-width:0.1;stroke-linecap:round;stroke-linejoin:round;">
	<!-- Light-blue fill -->
	<!ENTITY st5 "fill:#CCECF4;stroke:#000000; stroke-width:1.133;stroke-linecap:round;stroke-linejoin:round;">
	<!ENTITY st6 "fill:none;stroke-linecap:butt; stroke-linejoin:round;">
	<!ENTITY st7 "fill:none;stroke:#000000;stroke-linecap:round;stroke-linejoin:round;">
	<!ENTITY st8 "enable-background:new    ;">
	<!-- Black fill -->
	<!ENTITY st9 "fill:#000000;stroke:#000000; stroke-linecap:round;stroke-linejoin:round;">
	<!-- SRS note   -->
	<!ENTITY st10 "font-size:9px;font-family:'ArialMT';">
	<!ENTITY st11 "font-size:9px;font-family:'Svg Symbol';">
	<!ENTITY st12 "font-size:6px;font-family:'Svg Symbol';">
	<!ENTITY st13 "fill:none;stroke:#ff0000;stroke-linecap:round;stroke-linejoin:round;">
	<!-- Yellow fill  -->
	<!ENTITY st14 "fill:#FFFF00;stroke:#FFFF00; stroke-width:0.1;stroke-linecap:round;stroke-linejoin:round;">
	<!ENTITY st15 "font-size:6px;font-family:'MS-PGothic';adobe-font-script:japanese;">
	<!ENTITY st16 "1.00 0.00 0.00 1.00">
	<!ENTITY st17 "0.00 -1.00 1.00 0.00">
	<!ENTITY st18 "font-size:6px;font-family:'Arial';">
	<!ENTITY st19 "font-size:9px;font-family:'Arial';">
	<!ENTITY st20 "font-size:6px;font-family:'MS-PGothic','MS PGothic';adobe-font-script:japanese;">
	<!ENTITY st21 "font-size:7px;font-family:'MS-PGothic','MS PGothic';adobe-font-script:japanese;">
	<!ATTLIST svg
		xmlns:ewd CDATA #FIXED "http://shcl.co.jp/ewd"
		xmlns:a CDATA #FIXED "http://ns.adobe.com/AdobeSVGViewerExtensions/3.0/"
		ewd:ver CDATA #IMPLIED
	>
	<!ATTLIST a
		ewd:lineID CDATA #IMPLIED
		ewd:groupID CDATA #IMPLIED
		ewd:figtype CDATA #IMPLIED
		ewd:code CDATA #IMPLIED
		ewd:figID CDATA #IMPLIED
		ewd:pinNo CDATA #IMPLIED
		ewd:comment CDATA #IMPLIED >
	<!ATTLIST g
		ewd:lineID CDATA #IMPLIED
		ewd:groupID CDATA #IMPLIED
		ewd:figtype CDATA #IMPLIED
		ewd:code CDATA #IMPLIED
		ewd:figID CDATA #IMPLIED
		ewd:pinNo CDATA #IMPLIED
		ewd:comment CDATA #IMPLIED >
	<!ATTLIST text
		ewd:textID CDATA #IMPLIED >
	<!ATTLIST title
		ewd:textID CDATA #IMPLIED >
]>
<!-- Generator: Shintec Hozumi YS   -->
<svg onload="call_execInitLoadProc_svg('system')" style="overflow:visible;  enable-background:new 0 0 3608.188 710.000" viewBox="0 0 3608.188 710.000" height="710.000" width="3608.188" xml:space="preserve" ewd:ver="2.3.1.16" xmlns="&ns_svg;" xmlns:a="http://ns.adobe.com/AdobeSVGViewerExtensions/3.0/" xmlns:ewd="http://shcl.co.jp/ewd" xmlns:xlink="&ns_xlink;">
<text style="&st18;" transform="matrix(&st17;  2520.38  236.58 )">L-W</text><text style="&st18;" transform="matrix(&st17;  2531.72  241.16 )">(*9 *34)</text><path style="stroke-width: 1.42 ;&st7;  " d=" M  2864.02,   231.25  L  2872.52,   231.25  " /><path style="stroke-width: 1.42 ;&st7;  " d=" M  2881.02,   494.70  L  2872.52,   494.70  " /><path style="stroke-width: 1.42 ;&st7;  " d=" M  2813.03,   486.20  L  2821.53,   486.20  " /><path style="stroke-width: 1.42 ;&st7;  " d=" M  2949.01,   341.73  L  2957.51,   341.73  " /><path style="stroke-width: 1.42 ;&st7;  " d=" M  2864.02,   392.72  L  2872.52,   392.72  " /><path style="stroke-width: 1.42 ;&st7;  " d=" M  2932.01,   494.70  L  2923.51,   494.70  " /><text style="&st18;" transform="matrix(&st16;  2551.66  626.98 )">GR(*8 *37)</text><text style="&st18;" transform="matrix(&st17;  2681.86  559.91 )">W-B</text><text style="&st18;" transform="matrix(&st17;  2766.84  227.81 )">G-B</text><text style="&st18;" transform="matrix(&st17;  2698.85  227.73 )">G-Y</text><path style="stroke-width: 1.42 ;&st7;  " d=" M  2745.04,   448.68  L  2740.07,   443.71  " /><path style="stroke-width: 1.42 ;&st7;  " d=" M  2728.04,   455.74  L  2733.01,   460.71  " /><path style="stroke-width: 1.42 ;&st7;  " d=" M  2740.07,   460.71  L  2745.04,   455.74  " /><path style="stroke-width: 1.42 ;&st7;  " d=" M  2733.02,   443.71  L  2728.04,   448.68  " /><text style="&st18;" transform="matrix(&st17;  2817.83  541.13 )">BR</text><text style="&st18;" transform="matrix(&st17;  2931.15  526.42 )">(*22)</text><text style="&st18;" transform="matrix(&st17;  2919.82  524.14 )">BR</text><text style="&st18;" transform="matrix(&st17;  2829.16  466.93 )">(*10)</text><text style="&st18;" transform="matrix(&st17;  2817.83  464.65 )">BR</text><text style="&st18;" transform="matrix(&st17;  2829.16  543.42 )">(*10)</text><text style="&st18;" transform="matrix(&st17;  2868.82  209.69 )">BR</text><text style="&st18;" transform="matrix(&st17;  2953.81  388.16 )">BR</text><text style="&st18;" transform="matrix(&st17;  2965.14  388.78 )">(*5)</text><text style="&st18;" transform="matrix(&st17;  2919.82  388.16 )">BR</text><text style="&st18;" transform="matrix(&st17;  2931.15  388.78 )">(*4)</text><text style="&st18;" transform="matrix(&st17;  2919.82  575.13 )">BR</text><text style="&st18;" transform="matrix(&st17;  2931.15  577.42 )">(*22)</text><text style="&st18;" transform="matrix(&st17;  2868.82  464.65 )">BR</text><text style="&st18;" transform="matrix(&st17;  2880.16  466.93 )">(*15)</text><text style="&st18;" transform="matrix(&st17;  2868.82  277.68 )">BR</text><text style="&st18;" transform="matrix(&st17;  2843.33  328.67 )">BR</text><text style="&st18;" transform="matrix(&st17;  2854.66  339.95 )">(*28 *7 *29)</text><text style="&st18;" transform="matrix(&st17;  2732.85  487.68 )">W-B</text><text style="&st18;" transform="matrix(&st17;  2732.85  559.91 )">W-B</text><text style="&st18;" transform="matrix(&st17;  2732.85  423.94 )">W-B</text><text style="&st18;" transform="matrix(&st17;  2744.18  422.77 )">(*8)</text><text style="&st18;" transform="matrix(&st17;  2744.18  486.51 )">(*8)</text><text style="&st18;" transform="matrix(&st17;  2693.19  558.75 )">(*8)</text><text style="&st18;" transform="matrix(&st17;  2744.18  558.75 )">(*8)</text><text style="&st18;" transform="matrix(&st17;  2778.17  232.66 )">(*8 *34)</text><text style="&st18;" transform="matrix(&st17;  2710.19  232.66 )">(*8 *34)</text><path style="stroke-width: 1.42 ;&st7;  " d=" M  2932.01,   542.17  L  2927.04,   537.20  " /><path style="stroke-width: 1.42 ;&st7;  " d=" M  2915.01,   549.22  L  2919.98,   554.19  " /><path style="stroke-width: 1.42 ;&st7;  " d=" M  2927.04,   554.19  L  2932.01,   549.22  " /><path style="stroke-width: 1.42 ;&st7;  " d=" M  2919.98,   537.20  L  2915.01,   542.17  " /><path style="stroke-width: 1.42 ;&st7;  " d=" M  2881.02,   304.21  L  2876.05,   299.24  " /><path style="stroke-width: 1.42 ;&st7;  " d=" M  2864.02,   311.26  L  2868.99,   316.23  " /><path style="stroke-width: 1.42 ;&st7;  " d=" M  2876.05,   316.23  L  2881.02,   311.26  " /><path style="stroke-width: 1.42 ;&st7;  " d=" M  2868.99,   299.24  L  2864.02,   304.21  " /><text style="&st18;" transform="matrix(&st16;  2902.08  304.04 )">BR</text><text style="&st18;" transform="matrix(&st16;  2901.46  315.37 )">(*5)</text><text style="&st18;" transform="matrix(&st17;  2880.16  210.31 )">(*8)</text><text style="&st18;" transform="matrix(&st17;  2880.16  279.97 )">(*32)</text><text style="&st18;" transform="matrix(&st17;  2880.16  526.42 )">(*15)</text><text style="&st18;" transform="matrix(&st17;  2868.82  524.14 )">BR</text><text style="&st18;" transform="matrix(&st17;  2868.82  575.13 )">BR</text><text style="&st18;" transform="matrix(&st17;  2880.16  577.42 )">(*15)</text><path style="stroke-width: 1.42 ;&st7;  " d=" M  2881.02,   542.17  L  2876.05,   537.20  " /><path style="stroke-width: 1.42 ;&st7;  " d=" M  2864.02,   549.22  L  2868.99,   554.19  " /><path style="stroke-width: 1.42 ;&st7;  " d=" M  2876.05,   554.19  L  2881.02,   549.22  " /><path style="stroke-width: 1.42 ;&st7;  " d=" M  2868.99,   537.20  L  2864.02,   542.17  " /><text style="&st18;" transform="matrix(&st17;  2735.68  232.66 )">(*8 *35)</text><text style="&st18;" transform="matrix(&st17;  2868.82  354.16 )">BR</text><text style="&st18;" transform="matrix(&st17;  2880.16  356.45 )">(*31)</text><text style="&st18;" transform="matrix(&st17;  2724.35  224.82 )">G</text><text style="&st18;" transform="matrix(&st17;  2792.34  225.45 )">W</text><text style="&st18;" transform="matrix(&st17;  2803.67  232.66 )">(*8 *35)</text><text style="&st18;" transform="matrix(&st17;  2503.39  235.6 )">W(*9 *35)</text><text style="&st18;" transform="matrix(&st16;  2554.22  643.98 )">Y(*8 *37)</text><text style="&st18;" transform="matrix(&st16;  2605.22  643.98 )">Y(*8 *37)</text><text style="&st18;" transform="matrix(&st16;  2602.66  626.98 )">GR(*8 *37)</text><text style="&st18;" transform="matrix(&st16;  2550.85  609.99 )">G-B(*8 *36)</text><text style="&st18;" transform="matrix(&st16;  2601.84  609.99 )">G-B(*8 *36)</text><text style="&st18;" transform="matrix(&st16;  2601.92  592.99 )">G-Y(*8 *36)</text><text style="&st18;" transform="matrix(&st16;  2550.93  592.99 )">G-Y(*8 *36)</text><g ewd:figtype="conn" ewd:figID="27" ewd:code="L53"><path style="stroke-width: 0.85 ;&st7;  " d=" M  2735.35,   519.20  L  2735.08,   519.67  L  2734.98,   520.20  L  2735.08,   520.73  L  2735.35,   521.20  L  2735.76,   521.55  L  2736.27,   521.73  L  2736.81,   521.73  L  2737.32,   521.55  L  2737.73,   521.20  L  2738.01,   520.73  L  2738.10,   520.20  L  2738.01,   519.67  L  2737.73,   519.20  L  2737.32,   518.85  L  2736.81,   518.66  L  2736.27,   518.66  L  2735.76,   518.85  L  2735.35,   519.20  L  2735.74,   519.91  L  2735.74,   520.49  L  2736.12,   520.94  L  2736.69,   521.03  L  2737.19,   520.75  L  2737.39,   520.20  L  2737.19,   519.65  L  2736.69,   519.36  L  2736.12,   519.46  L  2736.54,   520.20  " /><path style="stroke-width: 1.42 ;&st7;  " d=" M  2728.04,   511.70  L  2745.04,   511.70  L  2745.04,   528.70  L  2728.04,   528.70  L  2728.04,   511.70  " /><path style="stroke-width: 0.85 ;&st7;  " d=" M  2736.54,   511.70  L  2736.54,   528.70  " /><path style="stroke-width: 0.85 ;&st7;  " d=" M  2736.54,   520.20  L  2728.04,   520.20  " /><text style="&st18;" transform="matrix(&st16;  2721.7  516.51 )">5</text><text style="&st18;" transform="matrix(&st16;  2730.2  536.89 )">4</text><text style="&st18;" transform="matrix(&st16;  2726.87  508.01 )">13</text><g ewd:figtype="title"><text style="&st18;" transform="matrix(&st17;  2752.94  531.6 )">L53</text><text style="&st18;" transform="matrix(&st17;  2759.76  531.6 )" ewd:textID="39">No. 31 Junction Connector</text></g></g><g ewd:figtype="conn" ewd:figID="28" ewd:code="L24"><path style="stroke-width: 0.85 ;&st7; stroke-dasharray:3, 1.5;" d=" M  2753.54,   268.64  L  2711.05,   268.64  " /><path style="stroke-width: 0.85 ;&st7; stroke-dasharray:3, 1.5;" d=" M  2711.05,   277.71  L  2753.54,   277.71  " /><path style="stroke-width: 0.85 ;&st7;   " d=" M  2771.95,   324.73  C  2771.95    323.95   2771.32    323.31   2770.54    323.31  " /><path style="stroke-width: 0.85 ;&st7;   " d=" M  2770.54,   323.31  C  2769.75    323.31   2769.12    323.95   2769.12    324.73  " /><path style="stroke-width: 0.85 ;&st7;   " d=" M  2769.12,   324.73  C  2769.12    325.51   2769.75    326.15   2770.54    326.15  " /><path style="stroke-width: 0.85 ;&st7;   " d=" M  2770.54,   326.15  C  2771.32    326.15   2771.95    325.51   2771.95    324.73  " /><path style="stroke-width: 0.85 ;&st7;   " d=" M  2737.96,   324.73  C  2737.96    323.95   2737.33    323.31   2736.54    323.31  " /><path style="stroke-width: 0.85 ;&st7;   " d=" M  2736.54,   323.31  C  2735.76    323.31   2735.13    323.95   2735.13    324.73  " /><path style="stroke-width: 0.85 ;&st7;   " d=" M  2735.13,   324.73  C  2735.13    325.51   2735.76    326.15   2736.54    326.15  " /><path style="stroke-width: 0.85 ;&st7;   " d=" M  2736.54,   326.15  C  2737.33    326.15   2737.96    325.51   2737.96    324.73  " /><path style="stroke-width: 0.85 ;&st7;   " d=" M  2737.96,   358.73  C  2737.96    357.94   2737.33    357.31   2736.54    357.31  " /><path style="stroke-width: 0.85 ;&st7;   " d=" M  2736.54,   357.31  C  2735.76    357.31   2735.13    357.94   2735.13    358.73  " /><path style="stroke-width: 0.85 ;&st7;   " d=" M  2735.13,   358.73  C  2735.13    359.51   2735.76    360.14   2736.54    360.14  " /><path style="stroke-width: 0.85 ;&st7;   " d=" M  2736.54,   360.14  C  2737.33    360.14   2737.96    359.51   2737.96    358.73  " /><path style="stroke-width: 0.85 ;&st7;   " d=" M  2703.96,   358.73  C  2703.96    357.94   2703.33    357.31   2702.55    357.31  " /><path style="stroke-width: 0.85 ;&st7;   " d=" M  2702.55,   357.31  C  2701.77    357.31   2701.13    357.94   2701.13    358.73  " /><path style="stroke-width: 0.85 ;&st7;   " d=" M  2701.13,   358.73  C  2701.13    359.51   2701.77    360.14   2702.55    360.14  " /><path style="stroke-width: 0.85 ;&st7;   " d=" M  2702.55,   360.14  C  2703.33    360.14   2703.96    359.51   2703.96    358.73  " /><path style="stroke-width: 0.85 ;&st7;  " d=" M  2703.96,   358.73  L  2735.13,   358.73  " /><path style="stroke-width: 1.42 ;&st7;  " d=" M  2617.56,   384.22  L  2804.53,   384.22  L  2804.53,   282.24  L  2617.56,   282.24  L  2617.56,   384.22  " /><path style="stroke-width: 0.85 ;&st7;  " d=" M  2702.55,   299.24  L  2702.55,   282.24  " /><path style="stroke-width: 0.85 ;&st7;  " d=" M  2736.54,   367.22  L  2736.54,   384.22  " /><path style="stroke-width: 0.85 ;&st7;  " d=" M  2737.96,   324.73  L  2769.12,   324.73  " /><path style="stroke-width: 0.85 ;&st7;  " d=" M  2660.05,   299.24  L  2660.05,   367.22  " /><path style="stroke-width: 0.85 ;&st7;  " d=" M  2685.55,   299.24  L  2685.55,   367.22  " /><path style="stroke-width: 0.85 ;&st7;  " d=" M  2719.54,   299.24  L  2719.54,   367.22  " /><path style="stroke-width: 0.85 ;&st7;  " d=" M  2660.05,   350.23  L  2787.53,   350.23  " /><path style="stroke-width: 0.85 ;&st7;  " d=" M  2660.05,   333.23  L  2787.53,   333.23  " /><path style="stroke-width: 0.85 ;&st7;  " d=" M  2660.05,   316.23  L  2787.53,   316.23  " /><path style="stroke-width: 1.42 ;&st7;  " d=" M  2634.56,   299.24  L  2634.56,   367.22  L  2787.53,   367.22  L  2787.53,   299.24  L  2634.56,   299.24  " /><path style="stroke-width: 0.85 ;&st7;  " d=" M  2753.54,   299.24  L  2753.54,   367.22  " /><path style="stroke-width: 0.85 ;&st7;  " d=" M  2770.54,   299.24  L  2770.54,   282.24  " /><text style="&st18;" transform="matrix(&st16;  2732.65  309.7 )">EL</text><text style="&st18;" transform="matrix(&st16;  2698.27  309.7 )">TR</text><text style="&st18;" transform="matrix(&st16;  2668.75  326.7 )">LH</text><text style="&st18;" transform="matrix(&st16;  2670.38  343.7 )">N</text><text style="&st18;" transform="matrix(&st16;  2668.21  360.69 )">RH</text><text style="&st18;" transform="matrix(&st17;  2649.28  348.72 )" ewd:textID="48">Turn Switch</text><text style="&st18;" transform="matrix(&st16;  2739.13  380.53 )">EL</text><text style="&st18;" transform="matrix(&st16;  2705.13  290.43 )">TR</text><text style="&st18;" transform="matrix(&st16;  2766.8  309.7 )">TL</text><text style="&st18;" transform="matrix(&st16;  2773.12  290.43 )">TL</text><text style="&st18;" transform="matrix(&st16;  2689.73  279.67 )">16</text><text style="&st18;" transform="matrix(&st16;  2689.73  270.61 )">13</text><path style="stroke-width: 1.42 ;&st7;   " d=" M  2707.08,   268.64  C  2707.08    266.14   2705.05    264.11   2702.55    264.11  " /><path style="stroke-width: 1.42 ;&st7;   " d=" M  2702.55,   264.11  C  2700.05    264.11   2698.02    266.14   2698.02    268.64  " /><path style="stroke-width: 1.42 ;&st7;   " d=" M  2698.02,   268.64  C  2698.02    271.14   2700.05    273.17   2702.55    273.17  " /><path style="stroke-width: 1.42 ;&st7;   " d=" M  2702.55,   273.17  C  2705.05    273.17   2707.08    271.14   2707.08    268.64  " /><path style="stroke-width: 1.42 ;&st7;   " d=" M  2707.08,   277.71  C  2707.08    275.20   2705.05    273.17   2702.55    273.17  " /><path style="stroke-width: 1.42 ;&st7;   " d=" M  2702.55,   273.17  C  2700.05    273.17   2698.02    275.20   2698.02    277.71  " /><path style="stroke-width: 1.42 ;&st7;   " d=" M  2698.02,   277.71  C  2698.02    280.21   2700.05    282.24   2702.55    282.24  " /><path style="stroke-width: 1.42 ;&st7;   " d=" M  2702.55,   282.24  C  2705.05    282.24   2707.08    280.21   2707.08    277.71  " /><text style="&st18;" transform="matrix(&st16;  2700.13  270.61 )">C</text><text style="&st18;" transform="matrix(&st16;  2700.13  279.67 )">D</text><text style="&st18;" transform="matrix(&st16;  2723.73  399.79 )">19</text><text style="&st18;" transform="matrix(&st16;  2723.73  390.72 )">12</text><path style="stroke-width: 1.42 ;&st7;   " d=" M  2741.08,   397.82  C  2741.08    395.32   2739.05    393.29   2736.54    393.29  " /><path style="stroke-width: 1.42 ;&st7;   " d=" M  2736.54,   393.29  C  2734.04    393.29   2732.01    395.32   2732.01    397.82  " /><path style="stroke-width: 1.42 ;&st7;   " d=" M  2732.01,   397.82  C  2732.01    400.32   2734.04    402.35   2736.54    402.35  " /><path style="stroke-width: 1.42 ;&st7;   " d=" M  2736.54,   402.35  C  2739.05    402.35   2741.08    400.32   2741.08    397.82  " /><path style="stroke-width: 1.42 ;&st7;   " d=" M  2741.08,   388.75  C  2741.08    386.25   2739.05    384.22   2736.54    384.22  " /><path style="stroke-width: 1.42 ;&st7;   " d=" M  2736.54,   384.22  C  2734.04    384.22   2732.01    386.25   2732.01    388.75  " /><path style="stroke-width: 1.42 ;&st7;   " d=" M  2732.01,   388.75  C  2732.01    391.26   2734.04    393.29   2736.54    393.29  " /><path style="stroke-width: 1.42 ;&st7;   " d=" M  2736.54,   393.29  C  2739.05    393.29   2741.08    391.26   2741.08    388.75  " /><text style="&st18;" transform="matrix(&st16;  2734.12  390.72 )">C</text><text style="&st18;" transform="matrix(&st16;  2734.12  399.79 )">D</text><text style="&st18;" transform="matrix(&st16;  2757.72  279.67 )">18</text><text style="&st18;" transform="matrix(&st16;  2757.72  270.61 )">15</text><path style="stroke-width: 1.42 ;&st7;   " d=" M  2775.07,   277.71  C  2775.07    275.20   2773.04    273.17   2770.54    273.17  " /><path style="stroke-width: 1.42 ;&st7;   " d=" M  2770.54,   273.17  C  2768.03    273.17   2766.00    275.20   2766.00    277.71  " /><path style="stroke-width: 1.42 ;&st7;   " d=" M  2766.00,   277.71  C  2766.00    280.21   2768.03    282.24   2770.54    282.24  " /><path style="stroke-width: 1.42 ;&st7;   " d=" M  2770.54,   282.24  C  2773.04    282.24   2775.07    280.21   2775.07    277.71  " /><path style="stroke-width: 1.42 ;&st7;   " d=" M  2775.07,   268.64  C  2775.07    266.14   2773.04    264.11   2770.54    264.11  " /><path style="stroke-width: 1.42 ;&st7;   " d=" M  2770.54,   264.11  C  2768.03    264.11   2766.00    266.14   2766.00    268.64  " /><path style="stroke-width: 1.42 ;&st7;   " d=" M  2766.00,   268.64  C  2766.00    271.14   2768.03    273.17   2770.54    273.17  " /><path style="stroke-width: 1.42 ;&st7;   " d=" M  2770.54,   273.17  C  2773.04    273.17   2775.07    271.14   2775.07    268.64  " /><text style="&st18;" transform="matrix(&st16;  2768.12  279.67 )">D</text><text style="&st18;" transform="matrix(&st16;  2768.12  270.61 )">C</text><g ewd:figtype="title"><text style="&st18;" transform="matrix(&st17;  2819.25  387.13 )" ewd:textID="29">Headlight Dimmer Switch Assembly</text><text style="&st18;" transform="matrix(&st17;  2812.43  387.12 )">L24(C),(D)</text></g><g ewd:code="" ewd:figID="201" ewd:comment="" ewd:figtype="commref"><text style="&st18;" transform="matrix(&st16;  2775.63  279.67 )">(RHD)</text></g><g ewd:code="" ewd:figID="202" ewd:comment="" ewd:figtype="commref"><text style="&st18;" transform="matrix(&st16;  2775.63  270.61 )">(LHD)</text></g><g ewd:code="" ewd:figID="203" ewd:comment="" ewd:figtype="commref"><text style="&st18;" transform="matrix(&st16;  2741.64  399.79 )">(RHD)</text></g><g ewd:code="" ewd:figID="204" ewd:comment="" ewd:figtype="commref"><text style="&st18;" transform="matrix(&st16;  2741.64  390.72 )">(LHD)</text></g></g><g ewd:figtype="conn" ewd:figID="32" ewd:code="L25,L26,L50"><path style="stroke-width: 0.85 ;&st7;  " d=" M  3429.18,   307.73  L  3420.68,   307.73  " /><path style="stroke-width: 0.85 ;&st7;  " d=" M  3429.18,   273.74  L  3420.68,   273.74  " /><path style="stroke-width: 0.85 ;&st7;  " d=" M  3437.66,   264.08  L  3430.30,   268.33  " /><path style="stroke-width: 0.85 ;&st7;  " d=" M  3432.30,   271.79  L  3439.66,   267.54  " /><path style="stroke-width: 0.85 ;&st7;  " d=" M  3463.17,   273.74  L  3454.67,   273.74  " /><path style="stroke-width: 0.85 ;&st7;  " d=" M  3471.66,   264.08  L  3464.29,   268.33  " /><path style="stroke-width: 0.85 ;&st7;  " d=" M  3466.30,   271.79  L  3473.66,   267.54  " /><path style="stroke-width: 0.85 ;&st7;  " d=" M  3423.73,   230.24  L  3423.46,   230.71  L  3423.37,   231.25  L  3423.46,   231.78  L  3423.73,   232.25  L  3424.15,   232.60  L  3424.66,   232.78  L  3425.20,   232.78  L  3425.71,   232.60  L  3426.12,   232.25  L  3426.39,   231.78  L  3426.48,   231.25  L  3426.39,   230.71  L  3426.12,   230.24  L  3425.71,   229.90  L  3425.20,   229.71  L  3424.66,   229.71  L  3424.15,   229.90  L  3423.73,   230.24  L  3424.13,   230.96  L  3424.13,   231.54  L  3424.50,   231.98  L  3425.07,   232.08  L  3425.58,   231.79  L  3425.78,   231.25  L  3425.58,   230.70  L  3425.07,   230.41  L  3424.50,   230.51  L  3424.93,   231.25  " /><path style="stroke-width: 1.42 ;&st7;  " d=" M  2974.50,   333.23  L  3475.92,   333.23  L  3475.92,   205.75  L  2974.50,   205.75  L  2974.50,   333.23  " /><path style="stroke-width: 1.42 ;&st7;  " d=" M  3297.45,   265.24  L  3297.45,   248.24  L  3365.44,   248.24  L  3365.44,   265.24  L  3297.45,   265.24  " /><path style="stroke-width: 0.85 ;&st7;  " d=" M  3424.93,   231.25  L  3424.93,   205.75  " /><path style="stroke-width: 0.85 ;&st7;  " d=" M  3424.93,   265.24  L  3424.93,   256.74  L  3422.09,   255.33  L  3427.76,   252.49  L  3422.09,   249.66  L  3427.76,   246.83  L  3422.09,   243.99  L  3427.76,   241.16  L  3424.93,   239.75  L  3424.93,   231.25  " /><path style="stroke-width: 0.28 ;&st9;  " d=" M  3424.93,   307.73  L  3419.26,   299.24  L  3430.59,   299.24  L  3424.93,   307.73  " /><path style="stroke-width: 0.85 ;&st7;  " d=" M  3424.93,   307.73  L  3424.93,   316.23  " /><path style="stroke-width: 0.85 ;&st7;  " d=" M  3416.43,   316.23  L  3433.42,   316.23  " /><path style="stroke-width: 0.85 ;&st7;  " d=" M  3424.93,   316.23  L  3420.68,   324.73  " /><path style="stroke-width: 0.85 ;&st7;  " d=" M  3433.42,   316.23  L  3429.18,   324.73  " /><path style="stroke-width: 0.85 ;&st7;  " d=" M  3416.43,   316.23  L  3412.18,   324.73  " /><path style="stroke-width: 0.85 ;&st7;  " d=" M  3424.93,   265.24  L  3424.93,   307.73  " /><path style="stroke-width: 0.85 ;&st7;  " d=" M  3348.44,   248.24  L  3348.44,   222.75  L  3458.92,   222.75  L  3458.92,   231.25  " /><path style="stroke-width: 0.85 ;&st7;  " d=" M  3356.94,   248.24  L  3356.94,   231.25  L  3424.93,   231.25  " /><path style="stroke-width: 0.85 ;&st7;  " d=" M  3390.93,   205.75  L  3390.93,   222.75  " /><path style="stroke-width: 0.85 ;&st7;  " d=" M  3331.44,   205.75  L  3331.44,   248.24  " /><path style="stroke-width: 1.42 ;&st7;  " d=" M  3314.44,   290.74  L  3314.44,   273.74  L  3348.44,   273.74  L  3348.44,   290.74  L  3314.44,   290.74  " /><path style="stroke-width: 0.28 ;&st9;  " d=" M  3424.93,   273.74  L  3419.26,   265.24  L  3430.59,   265.24  L  3424.93,   273.74  " /><path style="stroke-width: 0.85 ;&st7;  " d=" M  3437.66,   264.08  L  3435.33,   267.12  L  3433.86,   264.58  L  3437.66,   264.08  L  3436.38,   264.82  L  3435.39,   266.10  L  3434.77,   265.03  L  3436.38,   264.82  L  3435.74,   265.19  L  3435.42,   265.59  L  3435.23,   265.25  L  3435.74,   265.19  " /><path style="stroke-width: 0.85 ;&st7;  " d=" M  3439.66,   267.54  L  3437.33,   270.59  L  3435.86,   268.05  L  3439.66,   267.54  L  3438.38,   268.29  L  3437.40,   269.57  L  3436.78,   268.50  L  3438.38,   268.29  L  3437.74,   268.65  L  3437.43,   269.06  L  3437.23,   268.72  L  3437.74,   268.65  " /><path style="stroke-width: 1.42 ;&st7;  " d=" M  3025.49,   239.75  L  3025.49,   222.75  L  3093.48,   222.75  L  3093.48,   239.75  L  3025.49,   239.75  " /><path style="stroke-width: 1.42 ;&st7;  " d=" M  3025.49,   265.24  L  3025.49,   248.24  L  3093.48,   248.24  L  3093.48,   265.24  L  3025.49,   265.24  " /><path style="stroke-width: 0.85 ;&st7;  " d=" M  3093.48,   256.74  L  3297.45,   256.74  " /><path style="stroke-width: 0.85 ;&st7;  " d=" M  3331.44,   265.24  L  3331.44,   273.74  " /><path style="stroke-width: 0.85 ;&st7;  " d=" M  3458.92,   265.24  L  3458.92,   256.74  L  3456.09,   255.33  L  3461.75,   252.49  L  3456.09,   249.66  L  3461.75,   246.83  L  3456.09,   243.99  L  3461.75,   241.16  L  3458.92,   239.75  L  3458.92,   231.25  " /><path style="stroke-width: 0.85 ;&st7;  " d=" M  3033.99,   239.75  L  3033.99,   248.24  " /><path style="stroke-width: 0.85 ;&st7;  " d=" M  3084.98,   239.75  L  3084.98,   248.24  " /><path style="stroke-width: 0.85 ;&st7;  " d=" M  3033.99,   205.75  L  3033.99,   222.75  " /><path style="stroke-width: 0.85 ;&st7;  " d=" M  3084.98,   205.75  L  3084.98,   222.75  " /><path style="stroke-width: 0.85 ;&st7;  " d=" M  3458.92,   265.24  L  3458.92,   290.74  L  3424.93,   290.74  " /><path style="stroke-width: 0.28 ;&st9;  " d=" M  3458.92,   273.74  L  3453.25,   265.24  L  3464.59,   265.24  L  3458.92,   273.74  " /><path style="stroke-width: 0.85 ;&st7;  " d=" M  3471.65,   264.08  L  3469.32,   267.12  L  3467.85,   264.58  L  3471.65,   264.08  L  3470.37,   264.82  L  3469.39,   266.10  L  3468.77,   265.03  L  3470.37,   264.82  L  3469.73,   265.19  L  3469.42,   265.59  L  3469.22,   265.25  L  3469.73,   265.19  " /><path style="stroke-width: 0.85 ;&st7;  " d=" M  3473.66,   267.54  L  3471.32,   270.59  L  3469.86,   268.05  L  3473.66,   267.54  L  3472.37,   268.29  L  3471.39,   269.57  L  3470.77,   268.50  L  3472.37,   268.29  L  3471.73,   268.65  L  3471.42,   269.06  L  3471.23,   268.72  L  3471.73,   268.65  " /><path style="stroke-width: 0.85 ;&st7;  " d=" M  3389.74,   221.75  L  3389.47,   222.22  L  3389.37,   222.75  L  3389.47,   223.28  L  3389.74,   223.75  L  3390.15,   224.10  L  3390.66,   224.28  L  3391.20,   224.28  L  3391.71,   224.10  L  3392.12,   223.75  L  3392.40,   223.28  L  3392.49,   222.75  L  3392.40,   222.22  L  3392.12,   221.75  L  3391.71,   221.40  L  3391.20,   221.21  L  3390.66,   221.21  L  3390.15,   221.40  L  3389.74,   221.75  L  3390.13,   222.46  L  3390.13,   223.04  L  3390.51,   223.48  L  3391.08,   223.58  L  3391.58,   223.30  L  3391.78,   222.75  L  3391.58,   222.20  L  3391.08,   221.91  L  3390.51,   222.01  L  3390.93,   222.75  " /><path style="stroke-width: 0.85 ;&st7;  " d=" M  3423.73,   289.73  L  3423.46,   290.20  L  3423.37,   290.74  L  3423.46,   291.27  L  3423.73,   291.74  L  3424.15,   292.09  L  3424.66,   292.27  L  3425.20,   292.27  L  3425.71,   292.09  L  3426.12,   291.74  L  3426.39,   291.27  L  3426.48,   290.74  L  3426.39,   290.20  L  3426.12,   289.73  L  3425.71,   289.39  L  3425.20,   289.20  L  3424.66,   289.20  L  3424.15,   289.39  L  3423.73,   289.73  L  3424.13,   290.45  L  3424.13,   291.03  L  3424.50,   291.47  L  3425.07,   291.57  L  3425.58,   291.28  L  3425.78,   290.74  L  3425.58,   290.19  L  3425.07,   289.90  L  3424.50,   290.00  L  3424.93,   290.74  " /><path style="stroke-width: 0.85 ;&st7;  " d=" M  3331.44,   290.74  L  3331.44,   299.24  L  3334.27,   300.65  L  3328.61,   303.48  L  3334.27,   306.32  L  3328.61,   309.15  L  3334.27,   311.98  L  3328.61,   314.82  L  3331.44,   316.23  L  3331.44,   333.23  " /><path style="stroke-width: 0.85 ;&st7;  " d=" M  3331.44,   324.73  L  3288.95,   324.73  L  3288.95,   316.23  L  3286.12,   314.82  L  3291.78,   311.98  L  3286.12,   309.15  L  3291.78,   306.32  L  3286.12,   303.48  L  3291.78,   300.65  L  3288.95,   299.24  L  3288.95,   282.24  " /><path style="stroke-width: 0.85 ;&st7;  " d=" M  3330.25,   323.73  L  3329.98,   324.20  L  3329.88,   324.73  L  3329.98,   325.26  L  3330.25,   325.73  L  3330.66,   326.08  L  3331.17,   326.27  L  3331.71,   326.27  L  3332.22,   326.08  L  3332.63,   325.73  L  3332.91,   325.26  L  3333.00,   324.73  L  3332.91,   324.20  L  3332.63,   323.73  L  3332.22,   323.38  L  3331.71,   323.20  L  3331.17,   323.20  L  3330.66,   323.38  L  3330.25,   323.73  L  3330.64,   324.44  L  3330.64,   325.02  L  3331.02,   325.47  L  3331.59,   325.57  L  3332.09,   325.28  L  3332.29,   324.73  L  3332.09,   324.18  L  3331.59,   323.90  L  3331.02,   323.99  L  3331.44,   324.73  " /><path style="stroke-width: 0.85 ;&st7;  " d=" M  3280.45,   282.24  L  3297.45,   282.24  " /><text style="&st18;" transform="matrix(&st16;  2987.22  213.39 )">ES</text><text style="&st18;" transform="matrix(&st16;  3321.23  255.89 )" ewd:textID="27">Flasher <tspan x="0 " dy="6.0">Circuit</tspan></text><text style="&st18;" transform="matrix(&st17;  3417.27  280.06 )" ewd:textID="45">Turn LH</text><text style="&st18;" transform="matrix(&st16;  3327.74  284.21 )">I/F</text><text style="&st18;" transform="matrix(&st17;  3451.26  280.56 )" ewd:textID="46">Turn RH</text><text style="&st18;" transform="matrix(&st16;  3055.79  233.22 )">I/F</text><text style="&st18;" transform="matrix(&st16;  3052.88  258.71 )">CPU</text><text style="&st18;" transform="matrix(&st16;  3427.51  213.94 )">LL</text><text style="&st18;" transform="matrix(&st16;  3393.52  213.94 )">LR</text><text style="&st18;" transform="matrix(&st16;  3334.03  213.94 )">B</text><text style="&st18;" transform="matrix(&st16;  3087.57  213.94 )">B</text><text style="&st18;" transform="matrix(&st16;  3036.58  213.94 )">B</text><text style="&st18;" transform="matrix(&st16;  3334.03  329.54 )">HZSW</text><path style="stroke-width: 0.85 ;&st7;  " d=" M  3287.76,   281.24  L  3287.48,   281.71  L  3287.39,   282.24  L  3287.48,   282.77  L  3287.76,   283.24  L  3288.17,   283.59  L  3288.68,   283.77  L  3289.22,   283.77  L  3289.73,   283.59  L  3290.14,   283.24  L  3290.41,   282.77  L  3290.51,   282.24  L  3290.41,   281.71  L  3290.14,   281.24  L  3289.73,   280.89  L  3289.22,   280.70  L  3288.68,   280.70  L  3288.17,   280.89  L  3287.76,   281.24  L  3288.15,   281.95  L  3288.15,   282.53  L  3288.52,   282.97  L  3289.10,   283.07  L  3289.60,   282.79  L  3289.80,   282.24  L  3289.60,   281.69  L  3289.10,   281.40  L  3288.52,   281.50  L  3288.95,   282.24  " /><text style="&st18;" transform="matrix(&st16;  3072.17  203.19 )">23</text><text style="&st18;" transform="matrix(&st16;  3082.72  203.19 )">B</text><path style="stroke-width: 1.42 ;&st7;   " d=" M  3089.52,   201.22  C  3089.52    198.72   3087.49    196.69   3084.98    196.69  " /><path style="stroke-width: 1.42 ;&st7;   " d=" M  3084.98,   196.69  C  3082.48    196.69   3080.45    198.72   3080.45    201.22  " /><path style="stroke-width: 1.42 ;&st7;   " d=" M  3080.45,   201.22  C  3080.45    203.72   3082.48    205.75   3084.98    205.75  " /><path style="stroke-width: 1.42 ;&st7;   " d=" M  3084.98,   205.75  C  3087.49    205.75   3089.52    203.72   3089.52    201.22  " /><text style="&st18;" transform="matrix(&st16;  3021.18  203.19 )">22</text><path style="stroke-width: 1.42 ;&st7;   " d=" M  3038.53,   201.22  C  3038.53    198.72   3036.50    196.69   3033.99    196.69  " /><path style="stroke-width: 1.42 ;&st7;   " d=" M  3033.99,   196.69  C  3031.49    196.69   3029.46    198.72   3029.46    201.22  " /><path style="stroke-width: 1.42 ;&st7;   " d=" M  3029.46,   201.22  C  3029.46    203.72   3031.49    205.75   3033.99    205.75  " /><path style="stroke-width: 1.42 ;&st7;   " d=" M  3033.99,   205.75  C  3036.50    205.75   3038.53    203.72   3038.53    201.22  " /><text style="&st18;" transform="matrix(&st16;  3031.73  203.19 )">B</text><text style="&st18;" transform="matrix(&st16;  2978.69  203.19 )">15</text><path style="stroke-width: 1.42 ;&st7;   " d=" M  2996.03,   201.22  C  2996.03    198.72   2994.00    196.69   2991.50    196.69  " /><path style="stroke-width: 1.42 ;&st7;   " d=" M  2991.50,   196.69  C  2989.00    196.69   2986.97    198.72   2986.97    201.22  " /><path style="stroke-width: 1.42 ;&st7;   " d=" M  2986.97,   201.22  C  2986.97    203.72   2989.00    205.75   2991.50    205.75  " /><path style="stroke-width: 1.42 ;&st7;   " d=" M  2991.50,   205.75  C  2994.00    205.75   2996.03    203.72   2996.03    201.22  " /><text style="&st18;" transform="matrix(&st16;  2989.23  203.19 )">A</text><text style="&st18;" transform="matrix(&st16;  3321.96  339.73 )">1</text><text style="&st18;" transform="matrix(&st16;  3329.02  339.73 )">C</text><path style="stroke-width: 1.42 ;&st7;   " d=" M  3335.98,   337.76  C  3335.98    335.26   3333.95    333.23   3331.44    333.23  " /><path style="stroke-width: 1.42 ;&st7;   " d=" M  3331.44,   333.23  C  3328.94    333.23   3326.91    335.26   3326.91    337.76  " /><path style="stroke-width: 1.42 ;&st7;   " d=" M  3326.91,   337.76  C  3326.91    340.27   3328.94    342.29   3331.44    342.29  " /><path style="stroke-width: 1.42 ;&st7;   " d=" M  3331.44,   342.29  C  3333.95    342.29   3335.98    340.27   3335.98    337.76  " /><text style="&st18;" transform="matrix(&st16;  3321.96  203.19 )">2</text><text style="&st18;" transform="matrix(&st16;  3329.02  203.19 )">C</text><path style="stroke-width: 1.42 ;&st7;   " d=" M  3335.98,   201.22  C  3335.98    198.72   3333.95    196.69   3331.44    196.69  " /><path style="stroke-width: 1.42 ;&st7;   " d=" M  3331.44,   196.69  C  3328.94    196.69   3326.91    198.72   3326.91    201.22  " /><path style="stroke-width: 1.42 ;&st7;   " d=" M  3326.91,   201.22  C  3326.91    203.72   3328.94    205.75   3331.44    205.75  " /><path style="stroke-width: 1.42 ;&st7;   " d=" M  3331.44,   205.75  C  3333.95    205.75   3335.98    203.72   3335.98    201.22  " /><text style="&st18;" transform="matrix(&st16;  3381.45  203.19 )">4</text><path style="stroke-width: 1.42 ;&st7;   " d=" M  3395.47,   201.22  C  3395.47    198.72   3393.44    196.69   3390.93    196.69  " /><path style="stroke-width: 1.42 ;&st7;   " d=" M  3390.93,   196.69  C  3388.43    196.69   3386.40    198.72   3386.40    201.22  " /><path style="stroke-width: 1.42 ;&st7;   " d=" M  3386.40,   201.22  C  3386.40    203.72   3388.43    205.75   3390.93    205.75  " /><path style="stroke-width: 1.42 ;&st7;   " d=" M  3390.93,   205.75  C  3393.44    205.75   3395.47    203.72   3395.47    201.22  " /><text style="&st18;" transform="matrix(&st16;  3388.51  203.19 )">C</text><text style="&st18;" transform="matrix(&st16;  3415.45  203.19 )">6</text><path style="stroke-width: 1.42 ;&st7;   " d=" M  3429.46,   201.22  C  3429.46    198.72   3427.43    196.69   3424.93    196.69  " /><path style="stroke-width: 1.42 ;&st7;   " d=" M  3424.93,   196.69  C  3422.42    196.69   3420.40    198.72   3420.40    201.22  " /><path style="stroke-width: 1.42 ;&st7;   " d=" M  3420.40,   201.22  C  3420.40    203.72   3422.42    205.75   3424.93    205.75  " /><path style="stroke-width: 1.42 ;&st7;   " d=" M  3424.93,   205.75  C  3427.43    205.75   3429.46    203.72   3429.46    201.22  " /><text style="&st18;" transform="matrix(&st16;  3422.51  203.19 )">C</text><g ewd:figtype="title"><text style="&st18;" transform="matrix(&st16;  2996.59  341.12 )">L25(A),L26(B),L50(C)</text><text style="&st18;" transform="matrix(&st16;  2996.59  347.95 )" ewd:textID="22">Combination Meter Assembly</text></g></g><g ewd:figtype="w2w" ewd:figID="88" ewd:code="CA4"><path style="stroke-width: 1.42 ;&st7;  " d=" M  2825.78,   480.54  L  2821.53,   484.79  L  2817.28,   480.54  " /><path style="stroke-width: 1.42 ;&st7;  " d=" M  2817.28,   477.14  L  2821.53,   481.39  L  2825.78,   477.14  " /><text style="&st18;" transform="matrix(&st16;  2804.78  492.42 )">17</text></g><g ewd:figtype="w2w" ewd:figID="89" ewd:code="AC1"><path style="stroke-width: 1.42 ;&st7;  " d=" M  2876.77,   500.37  L  2872.52,   496.12  L  2868.27,   500.37  " /><path style="stroke-width: 1.42 ;&st7;  " d=" M  2876.77,   503.77  L  2872.52,   499.52  L  2868.27,   503.77  " /><text style="&st18;" transform="matrix(&st16;  2859.1  492.42 )">1</text></g><g ewd:code="AI3" ewd:figID="90" ewd:comment="25" ewd:figtype="w2w"><text style="&st18;" transform="matrix(&st16;  2855.77  424.43 )">13</text><g ewd:code="" ewd:figID="248" ewd:comment="25" ewd:figtype="commref"><text style="&st18;" transform="matrix(&st16;  2881.55  424.43 )">(*25)</text></g></g><g ewd:code="AI3" ewd:figID="91" ewd:comment="26" ewd:figtype="w2w"><text style="&st18;" transform="matrix(&st16;  2855.77  415.94 )">55</text><g ewd:code="" ewd:figID="232" ewd:comment="26" ewd:figtype="commref"><text style="&st18;" transform="matrix(&st16;  2881.55  415.94 )">(*26)</text></g></g><g ewd:code="AI3" ewd:figID="92" ewd:comment="19" ewd:figtype="w2w"><text style="&st18;" transform="matrix(&st16;  2855.77  407.44 )">22</text><g ewd:code="" ewd:figID="230" ewd:comment="19" ewd:figtype="commref"><text style="&st18;" transform="matrix(&st16;  2881.55  407.44 )">(*19)</text></g></g><g ewd:code="AI3" ewd:figID="93" ewd:comment="7" ewd:figtype="w2w"><path style="stroke-width: 1.42 ;&st7;  " d=" M  2876.77,   387.05  L  2872.52,   391.30  L  2868.27,   387.05  " /><path style="stroke-width: 1.42 ;&st7;  " d=" M  2868.27,   383.65  L  2872.52,   387.90  L  2876.77,   383.65  " /><text style="&st18;" transform="matrix(&st16;  2855.77  398.94 )">45</text><g ewd:code="" ewd:figID="231" ewd:comment="7" ewd:figtype="commref"><text style="&st18;" transform="matrix(&st16;  2881.55  398.94 )">(*7)</text></g></g><g ewd:figtype="w2w" ewd:figID="94" ewd:code="IL6"><text style="&st18;" transform="matrix(&st16;  2855.77  245.96 )">14</text><g ewd:code="" ewd:figID="234" ewd:comment="" ewd:figtype="commref"><text style="&st18;" transform="matrix(&st16;  2881.55  245.96 )">(RHD)</text></g></g><g ewd:figtype="w2w" ewd:figID="95" ewd:code="IL2"><path style="stroke-width: 1.42 ;&st7;  " d=" M  2876.77,   225.58  L  2872.52,   229.83  L  2868.27,   225.58  " /><path style="stroke-width: 1.42 ;&st7;  " d=" M  2868.27,   222.18  L  2872.52,   226.43  L  2876.77,   222.18  " /><text style="&st18;" transform="matrix(&st16;  2859.1  237.47 )">4</text><g ewd:code="" ewd:figID="235" ewd:comment="" ewd:figtype="commref"><text style="&st18;" transform="matrix(&st16;  2881.55  237.47 )">(LHD)</text></g></g><g ewd:figtype="w2w" ewd:figID="96" ewd:code="AC5"><path style="stroke-width: 1.42 ;&st7;  " d=" M  2927.76,   500.37  L  2923.51,   496.12  L  2919.26,   500.37  " /><path style="stroke-width: 1.42 ;&st7;  " d=" M  2927.76,   503.77  L  2923.51,   499.52  L  2919.26,   503.77  " /><text style="&st18;" transform="matrix(&st16;  2910.09  492.42 )">9</text><g ewd:code="" ewd:figID="228" ewd:comment="" ewd:figtype="commref"><text style="&st18;" transform="matrix(&st16;  2932.54  492.42 )">(RHD)</text></g></g><g ewd:figtype="w2w" ewd:figID="97" ewd:code="IC2"><text style="&st18;" transform="matrix(&st16;  2910.09  483.92 )">9</text><g ewd:code="" ewd:figID="229" ewd:comment="" ewd:figtype="commref"><text style="&st18;" transform="matrix(&st16;  2932.54  483.92 )">(LHD)</text></g></g><g ewd:figtype="w2w" ewd:figID="98" ewd:code="AI3"><path style="stroke-width: 1.42 ;&st7;  " d=" M  2961.75,   336.06  L  2957.50,   340.31  L  2953.26,   336.06  " /><path style="stroke-width: 1.42 ;&st7;  " d=" M  2953.26,   332.66  L  2957.50,   336.91  L  2961.75,   332.66  " /><text style="&st18;" transform="matrix(&st16;  2940.75  347.95 )">56</text></g><g ewd:figtype="gp" ewd:figID="117" ewd:code="LB"><path style="stroke-width: 0.85 ;&st7;  " d=" M  2684.13,   710.00  L  2686.97,   710.00  " /><path style="stroke-width: 0.85 ;&st7;  " d=" M  2682.72,   707.17  L  2688.38,   707.17  " /><path style="stroke-width: 0.85 ;&st7;  " d=" M  2681.30,   704.33  L  2689.80,   704.33  " /><path style="stroke-width: 0.85 ;&st7;  " d=" M  2677.05,   701.50  L  2694.05,   701.50  " /><path style="stroke-width: 0.85 ;&st7;  " d=" M  2685.55,   697.25  L  2685.55,   701.50  " /></g><g ewd:figtype="gp" ewd:figID="118" ewd:code="LA"><path style="stroke-width: 0.85 ;&st7;  " d=" M  2736.54,   697.25  L  2736.54,   701.50  " /><path style="stroke-width: 0.85 ;&st7;  " d=" M  2728.04,   701.50  L  2745.04,   701.50  " /><path style="stroke-width: 0.85 ;&st7;  " d=" M  2732.29,   704.33  L  2740.79,   704.33  " /><path style="stroke-width: 0.85 ;&st7;  " d=" M  2733.71,   707.17  L  2739.37,   707.17  " /><path style="stroke-width: 0.85 ;&st7;  " d=" M  2735.13,   710.00  L  2737.96,   710.00  " /></g><g ewd:figtype="gp" ewd:figID="119" ewd:code="CE"><path style="stroke-width: 0.85 ;&st7;  " d=" M  2821.53,   688.75  L  2821.53,   693.00  " /><path style="stroke-width: 0.85 ;&st7;  " d=" M  2813.03,   693.00  L  2830.03,   693.00  " /><path style="stroke-width: 0.85 ;&st7;  " d=" M  2817.28,   695.84  L  2825.78,   695.84  " /><path style="stroke-width: 0.85 ;&st7;  " d=" M  2818.69,   698.67  L  2824.36,   698.67  " /><path style="stroke-width: 0.85 ;&st7;  " d=" M  2820.11,   701.50  L  2822.94,   701.50  " /></g><g ewd:figtype="gp" ewd:figID="120" ewd:code="CC"><path style="stroke-width: 0.85 ;&st7;  " d=" M  2872.52,   688.75  L  2872.52,   693.00  " /><path style="stroke-width: 0.85 ;&st7;  " d=" M  2864.02,   693.00  L  2881.02,   693.00  " /><path style="stroke-width: 0.85 ;&st7;  " d=" M  2868.27,   695.84  L  2876.77,   695.84  " /><path style="stroke-width: 0.85 ;&st7;  " d=" M  2869.69,   698.67  L  2875.35,   698.67  " /><path style="stroke-width: 0.85 ;&st7;  " d=" M  2871.10,   701.50  L  2873.94,   701.50  " /></g><g ewd:figtype="gp" ewd:figID="121" ewd:code="CA"><path style="stroke-width: 0.85 ;&st7;  " d=" M  2923.51,   688.75  L  2923.51,   693.00  " /><path style="stroke-width: 0.85 ;&st7;  " d=" M  2915.01,   693.00  L  2932.01,   693.00  " /><path style="stroke-width: 0.85 ;&st7;  " d=" M  2919.26,   695.84  L  2927.76,   695.84  " /><path style="stroke-width: 0.85 ;&st7;  " d=" M  2920.68,   698.67  L  2926.34,   698.67  " /><path style="stroke-width: 0.85 ;&st7;  " d=" M  2922.09,   701.50  L  2924.93,   701.50  "/></g><g ewd:code="7" ewd:figID="218" ewd:comment="" ewd:figtype="comment"><text style="&st18;" transform="matrix(&st16;  2622.66  37.75 )">* 7 :LHD 1HZ</text></g><g ewd:code="4" ewd:figID="237" ewd:comment="" ewd:figtype="comment"><text style="&st18;" transform="matrix(&st16;  2622.66  20.75 )">* 4 :LHD 1GR-FE</text></g><g ewd:code="35" ewd:figID="261" ewd:comment="" ewd:figtype="comment"><text style="&st18;" transform="matrix(&st16;  2716.14  80.24 )" ewd:textID="18">*35 :From Jul. 2021 Production</text></g><g ewd:code="15" ewd:figID="221" ewd:comment="" ewd:figtype="comment"><text style="&st18;" transform="matrix(&st16;  2622.66  71.74 )">*15 :1HZ</text></g><g ewd:code="26" ewd:figID="249" ewd:comment="" ewd:figtype="comment"><text style="&st18;" transform="matrix(&st16;  2622.66  105.74 )">*26 :RHD 1VD-FTV</text></g><g ewd:code="28" ewd:figID="255" ewd:comment="" ewd:figtype="comment"><text style="&st18;" transform="matrix(&st16;  2716.14  29.25 )" ewd:textID="13">*28 :From Sep. 2017 Production</text></g><g ewd:code="31" ewd:figID="258" ewd:comment="27,15,28,19,28,19,30" ewd:figtype="comment"><text style="&st18;" transform="matrix(&st16;  2716.14  54.75 )">*31 :*27 *15,*28 *19,*28 *19 *30</text></g><g ewd:code="22" ewd:figID="226" ewd:comment="" ewd:figtype="comment"><text style="&st18;" transform="matrix(&st16;  2622.66  88.74 )">*22 :1GR-FE</text></g><g ewd:code="10" ewd:figID="216" ewd:comment="" ewd:figtype="comment"><text style="&st18;" transform="matrix(&st16;  2622.66  63.24 )">*10 :1VD-FTV</text></g><g ewd:code="19" ewd:figID="215" ewd:comment="" ewd:figtype="comment"><text style="&st18;" transform="matrix(&st16;  2622.66  80.24 )">*19 :RHD 1HZ</text></g><g ewd:code="25" ewd:figID="250" ewd:comment="" ewd:figtype="comment"><text style="&st18;" transform="matrix(&st16;  2622.66  97.24 )">*25 :LHD 1VD-FTV</text></g><g ewd:code="30" ewd:figID="257" ewd:comment="" ewd:figtype="comment"><text style="&st18;" transform="matrix(&st16;  2716.14  46.25 )" ewd:textID="15">*30 :w/ SRS</text></g><g ewd:code="32" ewd:figID="259" ewd:comment="27,15,28,19,28,7,30" ewd:figtype="comment"><text style="&st18;" transform="matrix(&st16;  2716.14  63.24 )">*32 :*27 *15,*28 *19,*28 *7 *30</text></g><g ewd:code="34" ewd:figID="260" ewd:comment="" ewd:figtype="comment"><text style="&st18;" transform="matrix(&st16;  2716.14  71.74 )" ewd:textID="17">*34 :Before Jul. 2021 Production</text></g><g ewd:code="37" ewd:figID="266" ewd:comment="" ewd:figtype="comment"><text style="&st18;" transform="matrix(&st16;  2716.14  97.24 )" ewd:textID="20">*37 :From Sep. 2022 Production</text></g><g ewd:code="27" ewd:figID="254" ewd:comment="" ewd:figtype="comment"><text style="&st18;" transform="matrix(&st16;  2716.14  20.75 )" ewd:textID="12">*27 :Before Sep. 2017 Production</text></g><g ewd:code="29" ewd:figID="256" ewd:comment="" ewd:figtype="comment"><text style="&st18;" transform="matrix(&st16;  2716.14  37.75 )" ewd:textID="14">*29 :w/o SRS</text></g><g ewd:code="5" ewd:figID="220" ewd:comment="" ewd:figtype="comment"><text style="&st18;" transform="matrix(&st16;  2622.66  29.25 )">* 5 :RHD 1GR-FE</text></g><g ewd:code="8" ewd:figID="217" ewd:comment="" ewd:figtype="comment"><text style="&st18;" transform="matrix(&st16;  2622.66  46.25 )" ewd:textID="4">* 8 :12V Battery Type</text></g><g ewd:code="36" ewd:figID="265" ewd:comment="" ewd:figtype="comment"><text style="&st18;" transform="matrix(&st16;  2716.14  88.74 )" ewd:textID="19">*36 :Before Sep. 2022 Production</text></g><g ewd:code="9" ewd:figID="195" ewd:comment="" ewd:figtype="comment"><text style="&st18;" transform="matrix(&st16;  2622.66  54.75 )" ewd:textID="5">* 9 :24V Battery Type</text></g></svg>
