<?xml version="1.0" encoding="utf-8"?>
<!DOCTYPE svg PUBLIC "-//W3C//DTD SVG 1.0//EN" "http://www.w3.org/TR/2001/REC-SVG-20010904/DTD/svg10.dtd"[
	<!ENTITY ns_flows "http://ns.adobe.com/Flows/1.0/">
	<!ENTITY ns_svg "http://www.w3.org/2000/svg">
	<!ENTITY ns_xlink "http://www.w3.org/1999/xlink">
	<!ENTITY st0 "font-size:7px;font-family:'MS-PGothic';adobe-font-script:japanese;">
	<!ENTITY st1 "font-size:6px;font-family:'ArialMT';">
	<!-- White fill  -->
	<!ENTITY st2 "fill:#FFFFFF;stroke:#000000; stroke-width:1.41;stroke-linecap:round;stroke-linejoin:round;">
	<!-- Yellow fill  -->
	<!ENTITY st3 "fill:#FFFFCC;stroke:#FFFFCC; stroke-width:0.1;stroke-linecap:round;stroke-linejoin:round;">
	<!-- Gray fill  -->
	<!ENTITY st4 "fill:#CCCCCC;stroke:#CCCCCC; stroke-width:0.1;stroke-linecap:round;stroke-linejoin:round;">
	<!-- Light-blue fill -->
	<!ENTITY st5 "fill:#CCECF4;stroke:#000000; stroke-width:1.133;stroke-linecap:round;stroke-linejoin:round;">
	<!ENTITY st6 "fill:none;stroke-linecap:butt; stroke-linejoin:round;">
	<!ENTITY st7 "fill:none;stroke:#000000;stroke-linecap:round;stroke-linejoin:round;">
	<!ENTITY st8 "enable-background:new    ;">
	<!-- Black fill -->
	<!ENTITY st9 "fill:#000000;stroke:#000000; stroke-linecap:round;stroke-linejoin:round;">
	<!-- SRS note   -->
	<!ENTITY st10 "font-size:9px;font-family:'ArialMT';">
	<!ENTITY st11 "font-size:9px;font-family:'Svg Symbol';">
	<!ENTITY st12 "font-size:6px;font-family:'Svg Symbol';">
	<!ENTITY st13 "fill:none;stroke:#ff0000;stroke-linecap:round;stroke-linejoin:round;">
	<!-- Yellow fill  -->
	<!ENTITY st14 "fill:#FFFF00;stroke:#FFFF00; stroke-width:0.1;stroke-linecap:round;stroke-linejoin:round;">
	<!ENTITY st15 "font-size:6px;font-family:'MS-PGothic';adobe-font-script:japanese;">
	<!ENTITY st16 "1.00 0.00 0.00 1.00">
	<!ENTITY st17 "0.00 -1.00 1.00 0.00">
	<!ENTITY st18 "font-size:6px;font-family:'Arial';">
	<!ENTITY st19 "font-size:9px;font-family:'Arial';">
	<!ENTITY st20 "font-size:6px;font-family:'MS-PGothic','MS PGothic';adobe-font-script:japanese;">
	<!ENTITY st21 "font-size:7px;font-family:'MS-PGothic','MS PGothic';adobe-font-script:japanese;">
	<!ATTLIST svg
		xmlns:ewd CDATA #FIXED "http://shcl.co.jp/ewd"
		xmlns:a CDATA #FIXED "http://ns.adobe.com/AdobeSVGViewerExtensions/3.0/"
		ewd:ver CDATA #IMPLIED
	>
	<!ATTLIST a
		ewd:lineID CDATA #IMPLIED
		ewd:groupID CDATA #IMPLIED
		ewd:figtype CDATA #IMPLIED
		ewd:code CDATA #IMPLIED
		ewd:figID CDATA #IMPLIED
		ewd:pinNo CDATA #IMPLIED
		ewd:comment CDATA #IMPLIED >
	<!ATTLIST g
		ewd:lineID CDATA #IMPLIED
		ewd:groupID CDATA #IMPLIED
		ewd:figtype CDATA #IMPLIED
		ewd:code CDATA #IMPLIED
		ewd:figID CDATA #IMPLIED
		ewd:pinNo CDATA #IMPLIED
		ewd:comment CDATA #IMPLIED >
	<!ATTLIST text
		ewd:textID CDATA #IMPLIED >
	<!ATTLIST title
		ewd:textID CDATA #IMPLIED >
]>
<!-- Generator: Shintec Hozumi YS   -->
<svg onload="call_execInitLoadProc_svg('system')" style="overflow:visible;  enable-background:new 0 0 2065.680 710.000" viewBox="0 0 2065.680 710.000" height="710.000" width="2065.680" xml:space="preserve" ewd:ver="2.3.1.16" xmlns="&ns_svg;" xmlns:a="http://ns.adobe.com/AdobeSVGViewerExtensions/3.0/" xmlns:ewd="http://shcl.co.jp/ewd" xmlns:xlink="&ns_xlink;">
<text style="&st18;" transform="matrix(&st17;  803.67  100.33 )">G-B</text><text style="&st18;" transform="matrix(&st17;  769.68  100.25 )">G-Y</text><text style="&st18;" transform="matrix(&st16;  676.35  536.33 )">(*14 *30)</text><text style="&st18;" transform="matrix(&st16;  682.67  525.0 )">G-R</text><text style="&st18;" transform="matrix(&st16;  596.67  672.31 )">(*15)</text><text style="&st18;" transform="matrix(&st16;  597.18  660.98 )">W-B</text><text style="&st18;" transform="matrix(&st16;  597.18  567.49 )">W-B</text><text style="&st18;" transform="matrix(&st16;  596.67  578.82 )">(*15)</text><text style="&st18;" transform="matrix(&st17;  585.54  619.91 )">(*14)</text><text style="&st18;" transform="matrix(&st17;  574.21  619.4 )">W-B</text><text style="&st18;" transform="matrix(&st17;  560.04  458.44 )">(*15)</text><text style="&st18;" transform="matrix(&st17;  548.71  457.43 )">G-R</text><text style="&st18;" transform="matrix(&st17;  670.53  458.44 )">(*15)</text><text style="&st18;" transform="matrix(&st17;  659.19  457.43 )">G-R</text><text style="&st18;" transform="matrix(&st17;  710.19  389.44 )">G-R</text><text style="&st18;" transform="matrix(&st17;  803.67  181.07 )">G-B</text><text style="&st18;" transform="matrix(&st17;  769.68  180.99 )">G-Y</text><text style="&st18;" transform="matrix(&st17;  608.2  114.34 )">G</text><text style="&st18;" transform="matrix(&st17;  710.18  173.83 )">G</text><text style="&st18;" transform="matrix(&st17;  608.2  182.33 )">G</text><path style="stroke-width: 1.42 ;&st7;  " d=" M   620.40,   613.68  L   628.89,   613.68  " /><path style="stroke-width: 1.42 ;&st7;  " d=" M   781.87,   146.26  L   773.37,   146.26  " /><path style="stroke-width: 1.42 ;&st7;  " d=" M   560.91,   426.71  L   552.41,   426.71  " /><path style="stroke-width: 1.42 ;&st7;  " d=" M   815.86,   146.26  L   807.37,   146.26  " /><path style="stroke-width: 1.42 ;&st7;  " d=" M   722.38,   146.26  L   713.88,   146.26  " /><path style="stroke-width: 1.42 ;&st7;  " d=" M   620.40,   154.76  L   611.90,   154.76  " /><text style="&st18;" transform="matrix(&st16;  676.35  561.83 )">(*14 *31)</text><text style="&st18;" transform="matrix(&st16;  574.49  349.62 )">L25(A),L26(B),L50(C)</text><text style="&st18;" transform="matrix(&st16;  574.5  356.45 )" ewd:textID="22">Combination Meter Assembly</text><text style="&st18;" transform="matrix(&st17;  781.01  182.23 )">(*30)</text><text style="&st18;" transform="matrix(&st17;  815.0  182.23 )">(*30)</text><text style="&st18;" transform="matrix(&st17;  744.18  177.66 )">Y</text><text style="&st18;" transform="matrix(&st17;  755.51  182.23 )">(*31)</text><text style="&st18;" transform="matrix(&st17;  829.17  180.25 )">GR</text><text style="&st18;" transform="matrix(&st17;  840.5  182.23 )">(*31)</text><text style="&st18;" transform="matrix(&st17;  721.52  390.45 )">(*30)</text><text style="&st18;" transform="matrix(&st17;  735.68  386.14 )">R</text><text style="&st18;" transform="matrix(&st17;  747.01  390.45 )">(*31)</text><text style="&st18;" transform="matrix(&st16;  685.96  550.5 )">R</text><text style="&st18;" transform="matrix(&st17;  815.0  101.49 )">(*34)</text><text style="&st18;" transform="matrix(&st17;  781.01  101.49 )">(*34)</text><text style="&st18;" transform="matrix(&st17;  744.18  96.92 )">Y</text><text style="&st18;" transform="matrix(&st17;  755.51  101.49 )">(*35)</text><g ewd:figtype="conn" ewd:figID="1" ewd:code="L32,L34"><path style="stroke-width: 0.85 ;&st7;  " d=" M   713.88,   460.71  L   713.88,   477.71  " /><path style="stroke-width: 1.42 ;&st7;  " d=" M   705.38,   477.71  L   722.38,   477.71  L   722.38,   460.71  L   705.38,   460.71  L   705.38,   477.71  " /><text style="&st18;" transform="matrix(&st16;  704.4  484.21 )">2</text><text style="&st18;" transform="matrix(&st16;  701.07  493.27 )">17</text><path style="stroke-width: 1.42 ;&st7;   " d=" M   718.41,   482.24  C   718.41    479.73    716.38    477.71    713.88    477.71  " /><path style="stroke-width: 1.42 ;&st7;   " d=" M   713.88,   477.71  C   711.38    477.71    709.35    479.73    709.35    482.24  " /><path style="stroke-width: 1.42 ;&st7;   " d=" M   709.35,   482.24  C   709.35    484.74    711.38    486.77    713.88    486.77  " /><path style="stroke-width: 1.42 ;&st7;   " d=" M   713.88,   486.77  C   716.38    486.77    718.41    484.74    718.41    482.24  " /><path style="stroke-width: 1.42 ;&st7;   " d=" M   718.41,   491.30  C   718.41    488.80    716.38    486.77    713.88    486.77  " /><path style="stroke-width: 1.42 ;&st7;   " d=" M   713.88,   486.77  C   711.38    486.77    709.35    488.80    709.35    491.30  " /><path style="stroke-width: 1.42 ;&st7;   " d=" M   709.35,   491.30  C   709.35    493.81    711.38    495.84    713.88    495.84  " /><path style="stroke-width: 1.42 ;&st7;   " d=" M   713.88,   495.84  C   716.38    495.84    718.41    493.81    718.41    491.30  " /><text style="&st18;" transform="matrix(&st16;  711.61  484.21 )">A</text><text style="&st18;" transform="matrix(&st16;  711.61  493.27 )">B</text><text style="&st18;" transform="matrix(&st16;  701.07  458.14 )">16</text><text style="&st18;" transform="matrix(&st16;  704.4  449.08 )">1</text><path style="stroke-width: 1.42 ;&st7;   " d=" M   718.41,   456.18  C   718.41    453.67    716.38    451.64    713.88    451.64  " /><path style="stroke-width: 1.42 ;&st7;   " d=" M   713.88,   451.64  C   711.38    451.64    709.35    453.67    709.35    456.18  " /><path style="stroke-width: 1.42 ;&st7;   " d=" M   709.35,   456.18  C   709.35    458.68    711.38    460.71    713.88    460.71  " /><path style="stroke-width: 1.42 ;&st7;   " d=" M   713.88,   460.71  C   716.38    460.71    718.41    458.68    718.41    456.18  " /><path style="stroke-width: 1.42 ;&st7;   " d=" M   718.41,   447.11  C   718.41    444.61    716.38    442.58    713.88    442.58  " /><path style="stroke-width: 1.42 ;&st7;   " d=" M   713.88,   442.58  C   711.38    442.58    709.35    444.61    709.35    447.11  " /><path style="stroke-width: 1.42 ;&st7;   " d=" M   709.35,   447.11  C   709.35    449.61    711.38    451.64    713.88    451.64  " /><path style="stroke-width: 1.42 ;&st7;   " d=" M   713.88,   451.64  C   716.38    451.64    718.41    449.61    718.41    447.11  " /><text style="&st18;" transform="matrix(&st16;  711.61  449.08 )">A</text><text style="&st18;" transform="matrix(&st16;  711.61  458.14 )">B</text><g ewd:figtype="title"><text style="&st18;" transform="matrix(&st17;  677.87  480.6 )">L34(A)</text><text style="&st18;" transform="matrix(&st17;  684.69  480.61 )" ewd:textID="32">No. 26 Junction Connector</text><text style="&st18;" transform="matrix(&st17;  692.03  480.6 )">L32(B)</text><text style="&st18;" transform="matrix(&st17;  698.85  480.61 )" ewd:textID="30">No. 24 Junction Connector</text></g><g ewd:code="" ewd:figID="128" ewd:comment="" ewd:figtype="commref"><text style="&st18;" transform="matrix(&st16;  718.97  449.08 )">(LHD)</text></g><g ewd:code="" ewd:figID="129" ewd:comment="" ewd:figtype="commref"><text style="&st18;" transform="matrix(&st16;  718.97  458.14 )">(RHD)</text></g><g ewd:code="" ewd:figID="140" ewd:comment="" ewd:figtype="commref"><text style="&st18;" transform="matrix(&st16;  718.97  493.27 )">(RHD)</text></g><g ewd:code="" ewd:figID="141" ewd:comment="" ewd:figtype="commref"><text style="&st18;" transform="matrix(&st16;  718.97  484.21 )">(LHD)</text></g></g><g ewd:figtype="conn" ewd:figID="2" ewd:code="L14,M1"><path style="stroke-width: 1.42 ;&st7;  " d=" M   560.91,   537.20  L   594.90,   537.20  L   594.90,   503.20  L   560.91,   503.20  L   560.91,   537.20  " /><g ewd:comment="14,15" ewd:lineID="23,28,31"><text style="&st18;" transform="matrix(&st16;  568.42  491.57 )">5</text><text style="&st18;" transform="matrix(&st16;  568.42  500.64 )">5</text><path style="stroke-width: 1.42 ;&st7;   " d=" M   582.44,   489.60  C   582.44    487.10    580.41    485.07    577.90    485.07  " /><path style="stroke-width: 1.42 ;&st7;   " d=" M   577.90,   485.07  C   575.40    485.07    573.37    487.10    573.37    489.60  " /><path style="stroke-width: 1.42 ;&st7;   " d=" M   573.37,   489.60  C   573.37    492.11    575.40    494.14    577.90    494.14  " /><path style="stroke-width: 1.42 ;&st7;   " d=" M   577.90,   494.14  C   580.41    494.14    582.44    492.11    582.44    489.60  " /><path style="stroke-width: 1.42 ;&st7;   " d=" M   582.44,   498.67  C   582.44    496.17    580.41    494.14    577.90    494.14  " /><path style="stroke-width: 1.42 ;&st7;   " d=" M   577.90,   494.14  C   575.40    494.14    573.37    496.17    573.37    498.67  " /><path style="stroke-width: 1.42 ;&st7;   " d=" M   573.37,   498.67  C   573.37    501.17    575.40    503.20    577.90    503.20  " /><path style="stroke-width: 1.42 ;&st7;   " d=" M   577.90,   503.20  C   580.41    503.20    582.44    501.17    582.44    498.67  " /><text style="&st18;" transform="matrix(&st16;  575.64  491.57 )">A</text><text style="&st18;" transform="matrix(&st16;  575.64  500.64 )">B</text><text style="&st18;" transform="matrix(&st16;  575.87  510.84 )">F</text><g ewd:code="" ewd:figID="95" ewd:comment="14" ewd:figtype="commref"><text style="&st18;" transform="matrix(&st16;  583.0  491.57 )">(*14)</text></g><g ewd:code="" ewd:figID="96" ewd:comment="15" ewd:figtype="commref"><text style="&st18;" transform="matrix(&st16;  583.0  500.64 )">(*15)</text></g></g><g ewd:comment="14,15" ewd:lineID="25,27"><text style="&st18;" transform="matrix(&st16;  568.42  552.76 )">6</text><text style="&st18;" transform="matrix(&st16;  568.42  543.7 )">6</text><path style="stroke-width: 1.42 ;&st7;   " d=" M   582.44,   550.79  C   582.44    548.29    580.41    546.26    577.90    546.26  " /><path style="stroke-width: 1.42 ;&st7;   " d=" M   577.90,   546.26  C   575.40    546.26    573.37    548.29    573.37    550.79  " /><path style="stroke-width: 1.42 ;&st7;   " d=" M   573.37,   550.79  C   573.37    553.30    575.40    555.33    577.90    555.33  " /><path style="stroke-width: 1.42 ;&st7;   " d=" M   577.90,   555.33  C   580.41    555.33    582.44    553.30    582.44    550.79  " /><path style="stroke-width: 1.42 ;&st7;   " d=" M   582.44,   541.73  C   582.44    539.22    580.41    537.20    577.90    537.20  " /><path style="stroke-width: 1.42 ;&st7;   " d=" M   577.90,   537.20  C   575.40    537.20    573.37    539.22    573.37    541.73  " /><path style="stroke-width: 1.42 ;&st7;   " d=" M   573.37,   541.73  C   573.37    544.23    575.40    546.26    577.90    546.26  " /><path style="stroke-width: 1.42 ;&st7;   " d=" M   577.90,   546.26  C   580.41    546.26    582.44    544.23    582.44    541.73  " /><text style="&st18;" transform="matrix(&st16;  575.64  543.7 )">A</text><text style="&st18;" transform="matrix(&st16;  575.64  552.76 )">B</text><text style="&st18;" transform="matrix(&st16;  575.64  533.5 )">E</text><g ewd:code="" ewd:figID="93" ewd:comment="14" ewd:figtype="commref"><text style="&st18;" transform="matrix(&st16;  583.0  543.7 )">(*14)</text></g><g ewd:code="" ewd:figID="94" ewd:comment="15" ewd:figtype="commref"><text style="&st18;" transform="matrix(&st16;  583.0  552.76 )">(*15)</text></g></g><g ewd:figtype="title"><text style="&st18;" transform="matrix(&st17;  538.49  540.09 )">L14(A),M1(B)</text><text style="&st18;" transform="matrix(&st17;  545.31  540.1 )" ewd:textID="24">Hazard Warning <tspan x="0 " dy="6.0">Signal Switch </tspan><tspan x="0 " dy="6.0">Assembly</tspan></text></g></g><g ewd:figtype="rb" ewd:figID="3" ewd:code="FUSE54"><text style="&st18;" transform="matrix(&st16;  603.82  32.08 )">(BAT)</text><text style="&st18;" transform="matrix(&st16;  605.56  86.47 )">2</text><text style="&st18;" transform="matrix(&st16;  610.02  101.49 )">4</text><text style="&st18;" transform="matrix(&st16;  628.32  56.17 )">15A <tspan x="0 " dy="6.0">TURN&amp;HAZ</tspan></text><path style="stroke-width: 0.28 ;&st9;  " d=" M   611.90,    90.37  L   609.06,    87.54  L   609.06,    91.79  L   611.90,    94.62  L   614.73,    91.79  L   614.73,    87.54  L   611.90,    90.37  " /><path style="stroke-width: 1.42 ;&st7;   " d=" M   618.27,    99.52  C   618.27     97.17    616.37     95.27    614.02     95.27  " /><path style="stroke-width: 1.42 ;&st7;   " d=" M   614.02,   103.77  C   616.37    103.77    618.27    101.87    618.27     99.52  " /><path style="stroke-width: 1.42 ;&st7;   " d=" M   605.52,    99.52  C   605.52    101.87    607.43    103.77    609.77    103.77  " /><path style="stroke-width: 1.42 ;&st7;   " d=" M   609.77,    95.27  C   607.43     95.27    605.52     97.17    605.52     99.52  " /><path style="stroke-width: 0.85 ;&st7;  " d=" M   611.90,    78.27  L   611.90,    95.27  " /><path style="stroke-width: 1.42 ;&st7;  " d=" M   614.02,   103.77  L   609.77,   103.77  " /><path style="stroke-width: 1.42 ;&st7;  " d=" M   614.02,    95.27  L   609.77,    95.27  " /><path style="stroke-width: 1.42 ;&st7;  " d=" M   599.15,    35.78  L   599.15,    78.27  L   624.65,    78.27  L   624.65,    35.78  L   599.15,    35.78  " /><path style="stroke-width: 0.85 ;&st7;   " d=" M   613.31,    68.36  C   613.31     67.57    612.68     66.94    611.90     66.94  " /><path style="stroke-width: 0.85 ;&st7;   " d=" M   611.90,    66.94  C   611.12     66.94    610.48     67.57    610.48     68.36  " /><path style="stroke-width: 0.85 ;&st7;   " d=" M   610.48,    68.36  C   610.48     69.14    611.12     69.77    611.90     69.77  " /><path style="stroke-width: 0.85 ;&st7;   " d=" M   611.90,    69.77  C   612.68     69.77    613.31     69.14    613.31     68.36  " /><path style="stroke-width: 0.85 ;&st7;   " d=" M   613.31,    45.69  C   613.31     44.91    612.68     44.28    611.90     44.28  " /><path style="stroke-width: 0.85 ;&st7;   " d=" M   611.90,    44.28  C   611.12     44.28    610.48     44.91    610.48     45.69  " /><path style="stroke-width: 0.85 ;&st7;   " d=" M   610.48,    45.69  C   610.48     46.48    611.12     47.11    611.90     47.11  " /><path style="stroke-width: 0.85 ;&st7;   " d=" M   611.90,    47.11  C   612.68     47.11    613.31     46.48    613.31     45.69  " /><path style="stroke-width: 1.42 ;&st7;   " d=" M   611.90,    66.94  C   614.64     65.33    615.55     61.80    613.93     59.06  " /><path style="stroke-width: 1.42 ;&st7;   " d=" M   613.93,    59.06  C   613.41     58.18    612.78     57.55    611.90     57.03  " /><path style="stroke-width: 1.42 ;&st7;   " d=" M   611.90,    47.11  C   609.16     48.72    608.25     52.25    609.86     54.99  " /><path style="stroke-width: 1.42 ;&st7;   " d=" M   609.86,    54.99  C   610.38     55.87    611.02     56.51    611.90     57.03  " /><path style="stroke-width: 0.85 ;&st7;  " d=" M   611.90,    69.77  L   611.90,    78.27  " /></g><g ewd:figtype="w2w" ewd:figID="31" ewd:code="LM1"><text style="&st18;" transform="matrix(&st16;  538.99  424.43 )">5</text><path style="stroke-width: 1.42 ;&st7;  " d=" M   556.66,   432.38  L   552.41,   428.13  L   548.16,   432.38  " /><path style="stroke-width: 1.42 ;&st7;  " d=" M   556.66,   435.78  L   552.41,   431.53  L   548.16,   435.78  " /></g><g ewd:code="AI3" ewd:figID="32" ewd:comment="22,2,4,6" ewd:figtype="w2w"><text style="&st18;" transform="matrix(&st16;  595.15  152.48 )">44</text><path style="stroke-width: 1.42 ;&st7;  " d=" M   616.15,   163.82  L   611.90,   159.58  L   607.65,   163.82  " /><path style="stroke-width: 1.42 ;&st7;  " d=" M   616.15,   160.43  L   611.90,   156.18  L   607.65,   160.43  " /><g ewd:code="" ewd:figID="132" ewd:comment="2,4,22,6" ewd:figtype="commref"><text style="&st18;" transform="matrix(&st16;  620.93  152.48 )">(*2,*4 *22,*6)</text></g></g><g ewd:code="AI2" ewd:figID="33" ewd:comment="7" ewd:figtype="w2w"><text style="&st18;" transform="matrix(&st16;  595.15  143.98 )">11</text><g ewd:code="" ewd:figID="131" ewd:comment="7" ewd:figtype="commref"><text style="&st18;" transform="matrix(&st16;  620.93  143.98 )">(*7)</text></g></g><g ewd:code="AI1" ewd:figID="34" ewd:comment="1,23,4,21" ewd:figtype="w2w"><text style="&st18;" transform="matrix(&st16;  598.48  135.48 )">3</text><g ewd:code="" ewd:figID="130" ewd:comment="4,21,1,23" ewd:figtype="commref"><text style="&st18;" transform="matrix(&st16;  620.93  135.48 )">(*4 *21,*1,*23)</text></g></g><g ewd:figtype="w2w" ewd:figID="35" ewd:code="LM1"><path style="stroke-width: 1.42 ;&st7;  " d=" M   624.65,   604.62  L   628.89,   608.87  L   633.14,   604.62  " /><path style="stroke-width: 1.42 ;&st7;  " d=" M   633.14,   608.02  L   628.89,   612.27  L   624.65,   608.02  " /><text style="&st18;" transform="matrix(&st16;  615.48  619.9 )">6</text></g><g ewd:figtype="w2w" ewd:figID="36" ewd:code="IL5"><text style="&st18;" transform="matrix(&st16;  700.46  143.98 )">5</text><path style="stroke-width: 1.42 ;&st7;  " d=" M   718.13,   151.93  L   713.88,   147.68  L   709.63,   151.93  " /><path style="stroke-width: 1.42 ;&st7;  " d=" M   718.13,   155.33  L   713.88,   151.08  L   709.63,   155.33  " /><g ewd:code="" ewd:figID="133" ewd:comment="" ewd:figtype="commref"><text style="&st18;" transform="matrix(&st16;  722.91  143.98 )">(RHD)</text></g></g><g ewd:figtype="w2w" ewd:figID="37" ewd:code="IL1"><text style="&st18;" transform="matrix(&st16;  700.46  135.48 )">3</text><g ewd:code="" ewd:figID="134" ewd:comment="" ewd:figtype="commref"><text style="&st18;" transform="matrix(&st16;  722.91  135.48 )">(LHD)</text></g></g><g ewd:figtype="w2w" ewd:figID="38" ewd:code="IL5"><text style="&st18;" transform="matrix(&st16;  759.95  143.98 )">4</text><path style="stroke-width: 1.42 ;&st7;  " d=" M   777.62,   155.33  L   773.37,   151.08  L   769.12,   155.33  " /><path style="stroke-width: 1.42 ;&st7;  " d=" M   777.62,   151.93  L   773.37,   147.68  L   769.12,   151.93  " /></g><g ewd:figtype="w2w" ewd:figID="39" ewd:code="IL1"><text style="&st18;" transform="matrix(&st16;  759.95  135.48 )">2</text></g><g ewd:figtype="w2w" ewd:figID="40" ewd:code="IL5"><text style="&st18;" transform="matrix(&st16;  793.95  143.98 )">3</text><path style="stroke-width: 1.42 ;&st7;  " d=" M   811.61,   151.93  L   807.36,   147.68  L   803.12,   151.93  " /><path style="stroke-width: 1.42 ;&st7;  " d=" M   811.61,   155.33  L   807.36,   151.08  L   803.12,   155.33  " /></g><g ewd:figtype="w2w" ewd:figID="41" ewd:code="IL1"><text style="&st18;" transform="matrix(&st16;  793.95  135.48 )">1</text></g><g ewd:figtype="gp" ewd:figID="57" ewd:code="LB"><path style="stroke-width: 0.85 ;&st7;  " d=" M   576.49,   710.00  L   579.32,   710.00  " /><path style="stroke-width: 0.85 ;&st7;  " d=" M   575.07,   707.17  L   580.74,   707.17  " /><path style="stroke-width: 0.85 ;&st7;  " d=" M   573.65,   704.33  L   582.15,   704.33  " /><path style="stroke-width: 0.85 ;&st7;  " d=" M   569.40,   701.50  L   586.40,   701.50  " /><path style="stroke-width: 0.85 ;&st7;  " d=" M   577.90,   697.25  L   577.90,   701.50  "/></g><g ewd:code="" ewd:figID="91" ewd:comment="" ewd:figtype="commref"><text style="&st18;" transform="matrix(&st16;  816.4  135.48 )">(LHD)</text></g><g ewd:code="" ewd:figID="139" ewd:comment="" ewd:figtype="commref"><text style="&st18;" transform="matrix(&st16;  816.4  143.98 )">(RHD)</text></g></svg>
