<?xml version="1.0" encoding="utf-8"?>
<!DOCTYPE svg PUBLIC "-//W3C//DTD SVG 1.0//EN" "http://www.w3.org/TR/2001/REC-SVG-20010904/DTD/svg10.dtd"[
	<!ENTITY ns_flows "http://ns.adobe.com/Flows/1.0/">
	<!ENTITY ns_svg "http://www.w3.org/2000/svg">
	<!ENTITY ns_xlink "http://www.w3.org/1999/xlink">
	<!ENTITY st0 "font-size:7px;font-family:'MS-PGothic';adobe-font-script:japanese;">
	<!ENTITY st1 "font-size:6px;font-family:'ArialMT';">
	<!-- White fill  -->
	<!ENTITY st2 "fill:#FFFFFF;stroke:#000000; stroke-width:1.41;stroke-linecap:round;stroke-linejoin:round;">
	<!-- Yellow fill  -->
	<!ENTITY st3 "fill:#FFFFCC;stroke:#FFFFCC; stroke-width:0.1;stroke-linecap:round;stroke-linejoin:round;">
	<!-- Gray fill  -->
	<!ENTITY st4 "fill:#CCCCCC;stroke:#CCCCCC; stroke-width:0.1;stroke-linecap:round;stroke-linejoin:round;">
	<!-- Light-blue fill -->
	<!ENTITY st5 "fill:#CCECF4;stroke:#000000; stroke-width:1.133;stroke-linecap:round;stroke-linejoin:round;">
	<!ENTITY st6 "fill:none;stroke-linecap:butt; stroke-linejoin:round;">
	<!ENTITY st7 "fill:none;stroke:#000000;stroke-linecap:round;stroke-linejoin:round;">
	<!ENTITY st8 "enable-background:new    ;">
	<!-- Black fill -->
	<!ENTITY st9 "fill:#000000;stroke:#000000; stroke-linecap:round;stroke-linejoin:round;">
	<!-- SRS note   -->
	<!ENTITY st10 "font-size:9px;font-family:'ArialMT';">
	<!ENTITY st11 "font-size:9px;font-family:'Svg Symbol';">
	<!ENTITY st12 "font-size:6px;font-family:'Svg Symbol';">
	<!ENTITY st13 "fill:none;stroke:#ff0000;stroke-linecap:round;stroke-linejoin:round;">
	<!-- Yellow fill  -->
	<!ENTITY st14 "fill:#FFFF00;stroke:#FFFF00; stroke-width:0.1;stroke-linecap:round;stroke-linejoin:round;">
	<!ENTITY st15 "font-size:6px;font-family:'MS-PGothic';adobe-font-script:japanese;">
	<!ENTITY st16 "1.00 0.00 0.00 1.00">
	<!ENTITY st17 "0.00 -1.00 1.00 0.00">
	<!ENTITY st18 "font-size:6px;font-family:'Arial';">
	<!ENTITY st19 "font-size:9px;font-family:'Arial';">
	<!ENTITY st20 "font-size:6px;font-family:'MS-PGothic','MS PGothic';adobe-font-script:japanese;">
	<!ENTITY st21 "font-size:7px;font-family:'MS-PGothic','MS PGothic';adobe-font-script:japanese;">
	<!ATTLIST svg
		xmlns:ewd CDATA #FIXED "http://shcl.co.jp/ewd"
		xmlns:a CDATA #FIXED "http://ns.adobe.com/AdobeSVGViewerExtensions/3.0/"
		ewd:ver CDATA #IMPLIED
	>
	<!ATTLIST a
		ewd:lineID CDATA #IMPLIED
		ewd:groupID CDATA #IMPLIED
		ewd:figtype CDATA #IMPLIED
		ewd:code CDATA #IMPLIED
		ewd:figID CDATA #IMPLIED
		ewd:pinNo CDATA #IMPLIED
		ewd:comment CDATA #IMPLIED >
	<!ATTLIST g
		ewd:lineID CDATA #IMPLIED
		ewd:groupID CDATA #IMPLIED
		ewd:figtype CDATA #IMPLIED
		ewd:code CDATA #IMPLIED
		ewd:figID CDATA #IMPLIED
		ewd:pinNo CDATA #IMPLIED
		ewd:comment CDATA #IMPLIED >
	<!ATTLIST text
		ewd:textID CDATA #IMPLIED >
	<!ATTLIST title
		ewd:textID CDATA #IMPLIED >
]>
<!-- Generator: Shintec Hozumi YS   -->
<svg onload="call_execInitLoadProc_svg('system')" style="overflow:visible;  enable-background:new 0 0 1979.207 710.000" viewBox="0 0 1979.207 710.000" height="710.000" width="1979.207" xml:space="preserve" ewd:ver="2.3.1.16" xmlns="&ns_svg;" xmlns:a="http://ns.adobe.com/AdobeSVGViewerExtensions/3.0/" xmlns:ewd="http://shcl.co.jp/ewd" xmlns:xlink="&ns_xlink;">
<path style="stroke-width: 1.42 ;&st7;  " d=" M   254.96,   503.20  L   263.46,   503.20  " /><path style="stroke-width: 1.42 ;&st7;  " d=" M   271.95,   605.18  L   263.46,   605.18  " /><path style="stroke-width: 1.42 ;&st7;  " d=" M   254.96,   554.19  L   263.46,   554.19  " /><path style="stroke-width: 1.42 ;&st7;  " d=" M   178.47,   375.72  L   186.97,   375.72  " /><path style="stroke-width: 1.42 ;&st7;  " d=" M   475.92,   367.22  L   467.42,   367.22  " /><text style="&st18;" transform="matrix(&st17;  322.08  278.3 )">(*7)</text><text style="&st18;" transform="matrix(&st17;  310.75  278.72 )">G-Y</text><path style="stroke-width: 1.42 ;&st7;  " d=" M   390.93,   584.66  L   385.96,   579.69  " /><text style="&st18;" transform="matrix(&st16;  487.86  281.37 )">(*2)</text><path style="stroke-width: 1.42 ;&st7;  " d=" M   475.92,   423.19  L   470.95,   418.22  " /><path style="stroke-width: 1.42 ;&st7;  " d=" M   378.91,   579.69  L   373.94,   584.66  " /><text style="&st18;" transform="matrix(&st17;  259.76  490.14 )">BR</text><text style="&st18;" transform="matrix(&st17;  259.76  626.12 )">BR</text><text style="&st18;" transform="matrix(&st17;  259.76  583.63 )">BR</text><text style="&st18;" transform="matrix(&st17;  259.76  536.88 )">BR</text><text style="&st18;" transform="matrix(&st17;  183.27  666.15 )">W-B</text><text style="&st18;" transform="matrix(&st17;  183.27  431.78 )">G-B</text><text style="&st18;" transform="matrix(&st17;  183.27  338.29 )">G-B</text><text style="&st18;" transform="matrix(&st17;  183.27  576.91 )">W-B</text><text style="&st18;" transform="matrix(&st17;  378.74  338.21 )">G-Y</text><text style="&st18;" transform="matrix(&st17;  378.74  568.41 )">W-B</text><text style="&st18;" transform="matrix(&st17;  157.78  125.83 )">G-B</text><text style="&st18;" transform="matrix(&st17;  353.24  125.75 )">G-Y</text><text style="&st18;" transform="matrix(&st17;  271.09  278.3 )">(*7)</text><text style="&st18;" transform="matrix(&st17;  259.76  278.8 )">G-B</text><text style="&st18;" transform="matrix(&st16;  334.46  185.06 )">G-Y</text><text style="&st18;" transform="matrix(&st16;  223.9  185.06 )">G-B</text><text style="&st18;" transform="matrix(&st17;  259.76  672.86 )">BR</text><text style="&st18;" transform="matrix(&st17;  378.74  653.4 )">W-B</text><text style="&st18;" transform="matrix(&st16;  487.86  595.82 )">(*1)</text><path style="stroke-width: 1.42 ;&st7;  " d=" M   463.89,   418.22  L   458.92,   423.19  " /><text style="&st18;" transform="matrix(&st17;  475.06  652.24 )">(*1)</text><text style="&st18;" transform="matrix(&st17;  463.73  653.4 )">W-B</text><text style="&st18;" transform="matrix(&st17;  475.06  567.25 )">(*1)</text><text style="&st18;" transform="matrix(&st17;  463.73  568.41 )">W-B</text><text style="&st18;" transform="matrix(&st17;  475.06  452.52 )">(*3)</text><text style="&st18;" transform="matrix(&st17;  463.73  450.04 )">G</text><text style="&st18;" transform="matrix(&st17;  475.06  405.78 )">(*3)</text><text style="&st18;" transform="matrix(&st17;  463.73  403.29 )">G</text><text style="&st18;" transform="matrix(&st17;  475.06  337.79 )">(*1)</text><text style="&st18;" transform="matrix(&st17;  463.73  338.21 )">G-Y</text><text style="&st18;" transform="matrix(&st16;  486.7  584.49 )">W-B</text><text style="&st18;" transform="matrix(&st17;  489.22  420.29 )">G</text><path style="stroke-width: 1.42 ;&st7;  " d=" M   470.95,   435.21  L   475.92,   430.24  " /><path style="stroke-width: 1.42 ;&st7;  " d=" M   458.92,   430.24  L   463.89,   435.21  " /><path style="stroke-width: 1.42 ;&st7;  " d=" M   385.96,   596.69  L   390.93,   591.72  " /><path style="stroke-width: 1.42 ;&st7;  " d=" M   373.94,   591.72  L   378.91,   596.69  " /><path style="stroke-width: 1.42 ;&st7;  " d=" M   254.96,   651.21  L   259.93,   656.18  " /><path style="stroke-width: 1.42 ;&st7;  " d=" M   271.95,   644.15  L   266.98,   639.18  " /><path style="stroke-width: 1.42 ;&st7;  " d=" M   195.47,   185.23  L   190.50,   180.26  " /><path style="stroke-width: 1.42 ;&st7;  " d=" M   178.47,   192.28  L   183.44,   197.25  " /><path style="stroke-width: 1.42 ;&st7;  " d=" M   190.50,   197.25  L   195.47,   192.28  " /><path style="stroke-width: 1.42 ;&st7;  " d=" M   183.44,   180.26  L   178.47,   185.23  " /><path style="stroke-width: 1.42 ;&st7;  " d=" M   390.93,   185.23  L   385.96,   180.26  " /><path style="stroke-width: 1.42 ;&st7;  " d=" M   373.94,   192.28  L   378.91,   197.25  " /><path style="stroke-width: 1.42 ;&st7;  " d=" M   385.96,   197.25  L   390.93,   192.28  " /><path style="stroke-width: 1.42 ;&st7;  " d=" M   378.91,   180.26  L   373.94,   185.23  " /><path style="stroke-width: 1.42 ;&st7;  " d=" M   266.98,   656.18  L   271.95,   651.21  " /><path style="stroke-width: 1.42 ;&st7;  " d=" M   259.93,   639.18  L   254.96,   644.15  " /><text style="&st18;" transform="matrix(&st16;  487.43  270.04 )">G-Y</text><path style="stroke-width: 1.42 ;&st7;  " d=" M   463.89,   579.69  L   458.92,   584.66  " /><text style="&st18;" transform="matrix(&st16;  482.51  151.06 )">G-B(*9)</text><path style="stroke-width: 1.42 ;&st7;  " d=" M   475.92,   584.66  L   470.95,   579.69  " /><path style="stroke-width: 1.42 ;&st7;  " d=" M   458.92,   591.72  L   463.89,   596.69  " /><path style="stroke-width: 1.42 ;&st7;  " d=" M   470.95,   596.69  L   475.92,   591.72  " /><path style="stroke-width: 1.42 ;&st7;  " d=" M    33.99,   163.26  L    25.50,   163.26  " /><text style="&st18;" transform="matrix(&st17;  21.8  131.34 )">G</text><text style="&st18;" transform="matrix(&st17;  21.8  190.83 )">G</text><text style="&st18;" transform="matrix(&st17;  106.79  105.84 )">G</text><path style="stroke-width: 1.42 ;&st7;  " d=" M   254.96,   231.25  L   263.46,   231.25  " /><path style="stroke-width: 1.42 ;&st7;  " d=" M   305.95,   231.25  L   314.45,   231.25  " /><text style="&st18;" transform="matrix(&st17;  336.25  275.82 )">G</text><text style="&st18;" transform="matrix(&st17;  347.58  278.3 )">(*8)</text><text style="&st18;" transform="matrix(&st17;  234.26  275.51 )">V</text><text style="&st18;" transform="matrix(&st17;  245.6  278.3 )">(*8)</text><text style="&st18;" transform="matrix(&st16;  482.59  168.06 )">G-Y(*9)</text><text style="&st18;" transform="matrix(&st17;  169.11  125.32 )">(*9)</text><text style="&st18;" transform="matrix(&st17;  132.28  125.01 )">GR</text><text style="&st18;" transform="matrix(&st17;  143.61  126.99 )">(*10)</text><text style="&st18;" transform="matrix(&st16;  224.4  196.39 )">(*9)</text><text style="&st18;" transform="matrix(&st16;  224.71  210.55 )">GR</text><text style="&st18;" transform="matrix(&st16;  222.74  221.88 )">(*10)</text><text style="&st18;" transform="matrix(&st17;  194.6  337.79 )">(*9)</text><text style="&st18;" transform="matrix(&st17;  157.78  337.48 )">GR</text><text style="&st18;" transform="matrix(&st17;  169.11  339.46 )">(*10)</text><text style="&st18;" transform="matrix(&st16;  334.89  196.39 )">(*9)</text><text style="&st18;" transform="matrix(&st16;  337.79  210.55 )">Y</text><text style="&st18;" transform="matrix(&st16;  333.22  221.88 )">(*10)</text><text style="&st18;" transform="matrix(&st17;  390.07  337.79 )">(*9)</text><text style="&st18;" transform="matrix(&st17;  364.58  125.32 )">(*9)</text><text style="&st18;" transform="matrix(&st17;  404.24  334.88 )">Y</text><text style="&st18;" transform="matrix(&st17;  415.57  339.46 )">(*10)</text><text style="&st18;" transform="matrix(&st17;  378.74  122.42 )">Y</text><text style="&st18;" transform="matrix(&st17;  390.07  126.99 )">(*10)</text><text style="&st18;" transform="matrix(&st16;  481.69  134.07 )">GR(*10)</text><text style="&st18;" transform="matrix(&st16;  484.25  185.06 )">Y(*10)</text><g ewd:figtype="conn" ewd:figID="6" ewd:code="I38"><path style="stroke-width: 0.85 ;&st7;  " d=" M   382.44,   503.20  L   382.44,   507.45  " /><path style="stroke-width: 0.85 ;&st7;  " d=" M   382.44,   515.95  L   382.44,   520.20  " /><path style="stroke-width: 0.85 ;&st7;   " d=" M   382.44,   515.95  C   383.99    515.96    385.26    514.71    385.27    513.15  " /><path style="stroke-width: 0.85 ;&st7;   " d=" M   385.27,   513.15  C   385.28    511.60    384.03    510.33    382.47    510.32  " /><path style="stroke-width: 0.85 ;&st7;   " d=" M   382.47,   510.32  C   381.44    510.31    380.55    510.81    380.03    511.70  " /><path style="stroke-width: 0.85 ;&st7;   " d=" M   380.03,   511.70  C   380.82    513.04    382.55    513.48    383.89    512.69  " /><path style="stroke-width: 0.85 ;&st7;   " d=" M   383.89,   512.69  C   385.23    511.90    385.67    510.17    384.88    508.83  " /><path style="stroke-width: 0.85 ;&st7;   " d=" M   384.88,   508.83  C   384.35    507.94    383.47    507.44    382.44    507.45  " /><path style="stroke-width: 1.42 ;&st7;   " d=" M   390.93,   511.70  C   390.93    507.01    387.13    503.20    382.44    503.20  " /><path style="stroke-width: 1.42 ;&st7;   " d=" M   382.44,   503.20  C   377.74    503.20    373.94    507.01    373.94    511.70  " /><path style="stroke-width: 1.42 ;&st7;   " d=" M   373.94,   511.70  C   373.94    516.39    377.74    520.20    382.44    520.20  " /><path style="stroke-width: 1.42 ;&st7;   " d=" M   382.44,   520.20  C   387.13    520.20    390.93    516.39    390.93    511.70  " /><path style="stroke-width: 1.42 ;&st7;  " d=" M   356.94,   486.20  L   407.93,   486.20  L   407.93,   537.20  L   356.94,   537.20  L   356.94,   486.20  " /><path style="stroke-width: 0.85 ;&st7;  " d=" M   382.44,   486.20  L   382.44,   503.20  " /><path style="stroke-width: 0.85 ;&st7;  " d=" M   382.44,   537.20  L   382.44,   520.20  " /><text style="&st18;" transform="matrix(&st16;  385.02  494.4 )">B</text><text style="&st18;" transform="matrix(&st16;  385.02  533.51 )">E</text><text style="&st18;" transform="matrix(&st17;  370.24  517.62 )" ewd:textID="25">Turn</text><text style="&st18;" transform="matrix(&st16;  376.1  545.39 )">1</text><text style="&st18;" transform="matrix(&st16;  376.1  482.51 )">2</text><g ewd:figtype="title"><text style="&st18;" transform="matrix(&st17;  347.3  540.1 )" ewd:textID="16">Headlight <tspan x="0 " dy="6.0">Assembly RH</tspan></text><text style="&st18;" transform="matrix(&st17;  340.47  540.09 )">I38</text></g></g><g ewd:figtype="rb" ewd:figID="7" ewd:code="FUSE54"><path style="stroke-width: 1.42 ;&st7;  " d=" M    27.62,    95.27  L    23.37,    95.27  " /><path style="stroke-width: 1.42 ;&st7;  " d=" M    27.62,   103.77  L    23.37,   103.77  " /><path style="stroke-width: 0.85 ;&st7;  " d=" M    25.50,    78.27  L    25.50,    95.27  " /><path style="stroke-width: 1.42 ;&st7;   " d=" M    23.37,    95.27  C    21.02     95.27     19.12     97.17     19.12     99.52  " /><path style="stroke-width: 1.42 ;&st7;   " d=" M    19.12,    99.52  C    19.12    101.87     21.02    103.77     23.37    103.77  " /><path style="stroke-width: 1.42 ;&st7;   " d=" M    27.62,   103.77  C    29.97    103.77     31.87    101.87     31.87     99.52  " /><path style="stroke-width: 1.42 ;&st7;   " d=" M    31.87,    99.52  C    31.87     97.17     29.97     95.27     27.62     95.27  " /><path style="stroke-width: 0.28 ;&st9;  " d=" M    25.50,    90.37  L    22.66,    87.54  L    22.66,    91.79  L    25.50,    94.62  L    28.33,    91.79  L    28.33,    87.54  L    25.50,    90.37  " /><text style="&st18;" transform="matrix(&st16;  41.92  56.17 )">15A <tspan x="0 " dy="6.0">TURN&amp;HAZ</tspan></text><text style="&st18;" transform="matrix(&st16;  23.62  101.49 )">4</text><text style="&st18;" transform="matrix(&st16;  19.16  86.47 )">2</text><text style="&st18;" transform="matrix(&st16;  17.41  32.08 )">(BAT)</text><path style="stroke-width: 0.85 ;&st7;  " d=" M    25.50,    69.77  L    25.50,    78.27  " /><path style="stroke-width: 1.42 ;&st7;   " d=" M    25.50,    47.11  C    22.76     48.72     21.85     52.25     23.46     54.99  " /><path style="stroke-width: 1.42 ;&st7;   " d=" M    23.46,    54.99  C    23.98     55.87     24.61     56.51     25.50     57.03  " /><path style="stroke-width: 1.42 ;&st7;   " d=" M    25.50,    66.94  C    28.23     65.33     29.15     61.80     27.53     59.06  " /><path style="stroke-width: 1.42 ;&st7;   " d=" M    27.53,    59.06  C    27.01     58.18     26.38     57.55     25.50     57.03  " /><path style="stroke-width: 0.85 ;&st7;   " d=" M    26.91,    45.69  C    26.91     44.91     26.28     44.28     25.50     44.28  " /><path style="stroke-width: 0.85 ;&st7;   " d=" M    25.50,    44.28  C    24.71     44.28     24.08     44.91     24.08     45.69  " /><path style="stroke-width: 0.85 ;&st7;   " d=" M    24.08,    45.69  C    24.08     46.48     24.71     47.11     25.50     47.11  " /><path style="stroke-width: 0.85 ;&st7;   " d=" M    25.50,    47.11  C    26.28     47.11     26.91     46.48     26.91     45.69  " /><path style="stroke-width: 0.85 ;&st7;   " d=" M    26.91,    68.36  C    26.91     67.57     26.28     66.94     25.50     66.94  " /><path style="stroke-width: 0.85 ;&st7;   " d=" M    25.50,    66.94  C    24.71     66.94     24.08     67.57     24.08     68.36  " /><path style="stroke-width: 0.85 ;&st7;   " d=" M    24.08,    68.36  C    24.08     69.14     24.71     69.77     25.50     69.77  " /><path style="stroke-width: 0.85 ;&st7;   " d=" M    25.50,    69.77  C    26.28     69.77     26.91     69.14     26.91     68.36  " /><path style="stroke-width: 1.42 ;&st7;  " d=" M    12.75,    35.78  L    12.75,    78.27  L    38.24,    78.27  L    38.24,    35.78  L    12.75,    35.78  " /></g><g ewd:figtype="conn" ewd:figID="8" ewd:code="A22"><path style="stroke-width: 1.42 ;&st7;  " d=" M   178.47,   613.68  L   195.47,   613.68  L   195.47,   630.68  L   178.47,   630.68  L   178.47,   613.68  " /><path style="stroke-width: 0.85 ;&st7;  " d=" M   186.97,   613.68  L   186.97,   630.68  " /><text style="&st18;" transform="matrix(&st16;  177.49  637.18 )">2</text><path style="stroke-width: 1.42 ;&st7;   " d=" M   191.50,   635.21  C   191.50    632.71    189.47    630.68    186.97    630.68  " /><path style="stroke-width: 1.42 ;&st7;   " d=" M   186.97,   630.68  C   184.47    630.68    182.44    632.71    182.44    635.21  " /><path style="stroke-width: 1.42 ;&st7;   " d=" M   182.44,   635.21  C   182.44    637.72    184.47    639.75    186.97    639.75  " /><path style="stroke-width: 1.42 ;&st7;   " d=" M   186.97,   639.75  C   189.47    639.75    191.50    637.72    191.50    635.21  " /><text style="&st18;" transform="matrix(&st16;  184.7  637.18 )">A</text><text style="&st18;" transform="matrix(&st16;  177.49  611.12 )">8</text><path style="stroke-width: 1.42 ;&st7;   " d=" M   191.50,   609.15  C   191.50    606.65    189.47    604.62    186.97    604.62  " /><path style="stroke-width: 1.42 ;&st7;   " d=" M   186.97,   604.62  C   184.47    604.62    182.44    606.65    182.44    609.15  " /><path style="stroke-width: 1.42 ;&st7;   " d=" M   182.44,   609.15  C   182.44    611.65    184.47    613.68    186.97    613.68  " /><path style="stroke-width: 1.42 ;&st7;   " d=" M   186.97,   613.68  C   189.47    613.68    191.50    611.65    191.50    609.15  " /><text style="&st18;" transform="matrix(&st16;  184.7  611.12 )">A</text><g ewd:figtype="title"><text style="&st18;" transform="matrix(&st17;  210.19  633.59 )" ewd:textID="18">No. 1 Junction <tspan x="0 " dy="6.0">Connector</tspan></text><text style="&st18;" transform="matrix(&st17;  203.36  633.58 )">A22(A)</text></g></g><g ewd:figtype="conn" ewd:figID="9" ewd:code="L25,L26"><path style="stroke-width: 0.85 ;&st7;  " d=" M   267.71,   375.72  L   259.21,   375.72  " /><path style="stroke-width: 0.85 ;&st7;  " d=" M   276.19,   366.06  L   268.83,   370.31  " /><path style="stroke-width: 0.85 ;&st7;  " d=" M   270.83,   373.78  L   278.19,   369.53  " /><path style="stroke-width: 0.85 ;&st7;  " d=" M   318.70,   375.72  L   310.20,   375.72  " /><path style="stroke-width: 0.85 ;&st7;  " d=" M   327.18,   366.06  L   319.82,   370.31  " /><path style="stroke-width: 0.85 ;&st7;  " d=" M   321.82,   373.78  L   329.18,   369.53  " /><path style="stroke-width: 0.85 ;&st7;  " d=" M   318.70,   401.22  L   310.20,   401.22  " /><path style="stroke-width: 0.85 ;&st7;  " d=" M   267.71,   401.22  L   259.21,   401.22  " /><path style="stroke-width: 0.85 ;&st7;  " d=" M   339.94,   384.22  L   339.94,   373.60  " /><path style="stroke-width: 0.85 ;&st7;  " d=" M   339.94,   369.35  L   339.94,   358.73  " /><path style="stroke-width: 1.42 ;&st7;  " d=" M   344.19,   369.35  L   335.69,   369.35  " /><path style="stroke-width: 1.42 ;&st7;  " d=" M   344.19,   373.60  L   335.69,   373.60  " /><path style="stroke-width: 1.42 ;&st7;  " d=" M   293.20,   373.60  L   284.70,   373.60  " /><path style="stroke-width: 1.42 ;&st7;  " d=" M   293.20,   369.35  L   284.70,   369.35  " /><path style="stroke-width: 0.85 ;&st7;  " d=" M   288.95,   369.35  L   288.95,   358.73  " /><path style="stroke-width: 0.85 ;&st7;  " d=" M   288.95,   384.22  L   288.95,   373.60  " /><path style="stroke-width: 1.42 ;&st7;  " d=" M   229.46,   460.71  L   348.44,   460.71  L   348.44,   316.23  L   229.46,   316.23  L   229.46,   460.71  " /><path style="stroke-width: 0.28 ;&st9;  " d=" M   263.46,   401.22  L   257.79,   392.72  L   269.12,   392.72  L   263.46,   401.22  " /><path style="stroke-width: 0.85 ;&st7;  " d=" M   263.46,   316.23  L   263.46,   333.23  L   266.29,   334.65  L   260.62,   337.48  L   266.29,   340.31  L   260.62,   343.14  L   266.29,   345.98  L   260.62,   348.81  L   263.46,   350.23  L   263.46,   367.22  " /><path style="stroke-width: 0.28 ;&st9;  " d=" M   314.45,   401.22  L   308.78,   392.72  L   320.11,   392.72  L   314.45,   401.22  " /><path style="stroke-width: 0.85 ;&st7;  " d=" M   263.46,   418.22  L   263.46,   435.21  " /><path style="stroke-width: 0.85 ;&st7;  " d=" M   254.96,   435.21  L   271.95,   435.21  " /><path style="stroke-width: 0.85 ;&st7;  " d=" M   263.46,   435.21  L   259.21,   443.71  " /><path style="stroke-width: 0.85 ;&st7;  " d=" M   271.95,   435.21  L   267.71,   443.71  " /><path style="stroke-width: 0.85 ;&st7;  " d=" M   254.96,   435.21  L   250.71,   443.71  " /><path style="stroke-width: 0.85 ;&st7;  " d=" M   263.46,   367.22  L   263.46,   418.22  " /><path style="stroke-width: 0.28 ;&st9;  " d=" M   263.46,   375.72  L   257.79,   367.22  L   269.12,   367.22  L   263.46,   375.72  " /><path style="stroke-width: 0.85 ;&st7;  " d=" M   276.19,   366.06  L   273.86,   369.10  L   272.39,   366.56  L   276.19,   366.06  L   274.91,   366.80  L   273.92,   368.08  L   273.30,   367.01  L   274.91,   366.80  L   274.27,   367.17  L   273.95,   367.57  L   273.76,   367.24  L   274.27,   367.17  " /><path style="stroke-width: 0.85 ;&st7;  " d=" M   278.19,   369.53  L   275.86,   372.57  L   274.39,   370.03  L   278.19,   369.53  L   276.91,   370.27  L   275.93,   371.55  L   275.31,   370.48  L   276.91,   370.27  L   276.27,   370.64  L   275.96,   371.04  L   275.76,   370.71  L   276.27,   370.64  " /><path style="stroke-width: 0.85 ;&st7;  " d=" M   314.45,   316.23  L   314.45,   333.23  L   317.28,   334.65  L   311.61,   337.48  L   317.28,   340.31  L   311.61,   343.14  L   317.28,   345.98  L   311.61,   348.81  L   314.45,   350.23  L   314.45,   367.22  " /><path style="stroke-width: 0.85 ;&st7;  " d=" M   314.45,   367.22  L   314.45,   418.22  L   263.46,   418.22  " /><path style="stroke-width: 0.28 ;&st9;  " d=" M   314.45,   375.72  L   308.78,   367.22  L   320.11,   367.22  L   314.45,   375.72  " /><path style="stroke-width: 0.85 ;&st7;  " d=" M   327.18,   366.06  L   324.85,   369.10  L   323.38,   366.56  L   327.18,   366.06  L   325.90,   366.80  L   324.91,   368.08  L   324.29,   367.01  L   325.90,   366.80  L   325.26,   367.17  L   324.95,   367.57  L   324.75,   367.24  L   325.26,   367.17  " /><path style="stroke-width: 0.85 ;&st7;  " d=" M   329.18,   369.53  L   326.85,   372.57  L   325.38,   370.03  L   329.18,   369.53  L   327.90,   370.27  L   326.92,   371.55  L   326.30,   370.48  L   327.90,   370.27  L   327.26,   370.64  L   326.95,   371.04  L   326.76,   370.71  L   327.26,   370.64  " /><path style="stroke-width: 0.85 ;&st7;  " d=" M   262.26,   417.21  L   261.99,   417.68  L   261.90,   418.22  L   261.99,   418.75  L   262.26,   419.22  L   262.68,   419.56  L   263.18,   419.75  L   263.73,   419.75  L   264.23,   419.56  L   264.65,   419.22  L   264.92,   418.75  L   265.01,   418.22  L   264.92,   417.68  L   264.65,   417.21  L   264.23,   416.87  L   263.73,   416.68  L   263.18,   416.68  L   262.68,   416.87  L   262.26,   417.21  L   262.66,   417.92  L   262.66,   418.51  L   263.03,   418.95  L   263.60,   419.05  L   264.11,   418.76  L   264.31,   418.22  L   264.11,   417.67  L   263.60,   417.38  L   263.03,   417.48  L   263.46,   418.22  " /><path style="stroke-width: 0.85 ;&st7;  " d=" M   288.95,   358.73  L   263.46,   358.73  " /><path style="stroke-width: 0.85 ;&st7;  " d=" M   288.95,   384.22  L   263.46,   384.22  " /><path style="stroke-width: 0.85 ;&st7;  " d=" M   339.94,   358.73  L   314.45,   358.73  " /><path style="stroke-width: 0.85 ;&st7;  " d=" M   339.94,   384.22  L   314.45,   384.22  " /><path style="stroke-width: 0.85 ;&st7;  " d=" M   262.26,   383.22  L   261.99,   383.69  L   261.90,   384.22  L   261.99,   384.75  L   262.26,   385.22  L   262.68,   385.57  L   263.18,   385.76  L   263.73,   385.76  L   264.23,   385.57  L   264.65,   385.22  L   264.92,   384.75  L   265.01,   384.22  L   264.92,   383.69  L   264.65,   383.22  L   264.23,   382.87  L   263.73,   382.69  L   263.18,   382.69  L   262.68,   382.87  L   262.26,   383.22  L   262.66,   383.93  L   262.66,   384.51  L   263.03,   384.96  L   263.60,   385.06  L   264.11,   384.77  L   264.31,   384.22  L   264.11,   383.67  L   263.60,   383.39  L   263.03,   383.48  L   263.46,   384.22  " /><path style="stroke-width: 0.85 ;&st7;  " d=" M   262.26,   357.72  L   261.99,   358.19  L   261.90,   358.73  L   261.99,   359.26  L   262.26,   359.73  L   262.68,   360.07  L   263.18,   360.26  L   263.73,   360.26  L   264.23,   360.07  L   264.65,   359.73  L   264.92,   359.26  L   265.01,   358.73  L   264.92,   358.19  L   264.65,   357.72  L   264.23,   357.38  L   263.73,   357.19  L   263.18,   357.19  L   262.68,   357.38  L   262.26,   357.72  L   262.66,   358.43  L   262.66,   359.02  L   263.03,   359.46  L   263.60,   359.56  L   264.11,   359.27  L   264.31,   358.73  L   264.11,   358.18  L   263.60,   357.89  L   263.03,   357.99  L   263.46,   358.73  " /><path style="stroke-width: 0.85 ;&st7;  " d=" M   313.25,   357.72  L   312.98,   358.19  L   312.89,   358.73  L   312.98,   359.26  L   313.25,   359.73  L   313.67,   360.07  L   314.18,   360.26  L   314.72,   360.26  L   315.23,   360.07  L   315.64,   359.73  L   315.91,   359.26  L   316.01,   358.73  L   315.91,   358.19  L   315.64,   357.72  L   315.23,   357.38  L   314.72,   357.19  L   314.18,   357.19  L   313.67,   357.38  L   313.25,   357.72  L   313.65,   358.43  L   313.65,   359.02  L   314.02,   359.46  L   314.59,   359.56  L   315.10,   359.27  L   315.30,   358.73  L   315.10,   358.18  L   314.59,   357.89  L   314.02,   357.99  L   314.45,   358.73  " /><path style="stroke-width: 0.85 ;&st7;  " d=" M   313.25,   383.22  L   312.98,   383.69  L   312.89,   384.22  L   312.98,   384.75  L   313.25,   385.22  L   313.67,   385.57  L   314.18,   385.76  L   314.72,   385.76  L   315.23,   385.57  L   315.64,   385.22  L   315.91,   384.75  L   316.01,   384.22  L   315.91,   383.69  L   315.64,   383.22  L   315.23,   382.87  L   314.72,   382.69  L   314.18,   382.69  L   313.67,   382.87  L   313.25,   383.22  L   313.65,   383.93  L   313.65,   384.51  L   314.02,   384.96  L   314.59,   385.06  L   315.10,   384.77  L   315.30,   384.22  L   315.10,   383.67  L   314.59,   383.39  L   314.02,   383.48  L   314.45,   384.22  " /><text style="&st18;" transform="matrix(&st16;  266.04  324.43 )">B</text><text style="&st18;" transform="matrix(&st16;  317.03  324.43 )">B</text><text style="&st18;" transform="matrix(&st16;  259.17  457.01 )">ES</text><text style="&st18;" transform="matrix(&st17;  255.8  382.04 )" ewd:textID="26">Turn LH</text><text style="&st18;" transform="matrix(&st17;  306.79  382.55 )" ewd:textID="27">Turn RH</text><text style="&st18;" transform="matrix(&st16;  250.64  467.21 )">15</text><text style="&st18;" transform="matrix(&st16;  261.19  467.21 )">A</text><path style="stroke-width: 1.42 ;&st7;   " d=" M   267.99,   465.24  C   267.99    462.74    265.96    460.71    263.46    460.71  " /><path style="stroke-width: 1.42 ;&st7;   " d=" M   263.46,   460.71  C   260.95    460.71    258.92    462.74    258.92    465.24  " /><path style="stroke-width: 1.42 ;&st7;   " d=" M   258.92,   465.24  C   258.92    467.74    260.95    469.77    263.46    469.77  " /><path style="stroke-width: 1.42 ;&st7;   " d=" M   263.46,   469.77  C   265.96    469.77    267.99    467.74    267.99    465.24  " /><text style="&st18;" transform="matrix(&st16;  250.64  313.67 )">22</text><path style="stroke-width: 1.42 ;&st7;   " d=" M   267.99,   311.70  C   267.99    309.20    265.96    307.17    263.46    307.17  " /><path style="stroke-width: 1.42 ;&st7;   " d=" M   263.46,   307.17  C   260.95    307.17    258.92    309.20    258.92    311.70  " /><path style="stroke-width: 1.42 ;&st7;   " d=" M   258.92,   311.70  C   258.92    314.20    260.95    316.23    263.46    316.23  " /><path style="stroke-width: 1.42 ;&st7;   " d=" M   263.46,   316.23  C   265.96    316.23    267.99    314.20    267.99    311.70  " /><text style="&st18;" transform="matrix(&st16;  261.19  313.67 )">B</text><text style="&st18;" transform="matrix(&st16;  301.63  313.67 )">23</text><path style="stroke-width: 1.42 ;&st7;   " d=" M   318.98,   311.70  C   318.98    309.20    316.95    307.17    314.45    307.17  " /><path style="stroke-width: 1.42 ;&st7;   " d=" M   314.45,   307.17  C   311.94    307.17    309.91    309.20    309.91    311.70  " /><path style="stroke-width: 1.42 ;&st7;   " d=" M   309.91,   311.70  C   309.91    314.20    311.94    316.23    314.45    316.23  " /><path style="stroke-width: 1.42 ;&st7;   " d=" M   314.45,   316.23  C   316.95    316.23    318.98    314.20    318.98    311.70  " /><text style="&st18;" transform="matrix(&st16;  312.18  313.67 )">B</text><g ewd:figtype="title"><text style="&st18;" transform="matrix(&st17;  356.34  463.61 )">L25(A),L26(B)</text><text style="&st18;" transform="matrix(&st17;  363.16  463.61 )" ewd:textID="9">Combination Meter Assembly</text></g></g><g ewd:figtype="conn" ewd:figID="10" ewd:code="A3"><path style="stroke-width: 0.85 ;&st7;  " d=" M   186.97,   503.20  L   186.97,   507.45  " /><path style="stroke-width: 0.85 ;&st7;  " d=" M   186.97,   515.95  L   186.97,   520.20  " /><path style="stroke-width: 0.85 ;&st7;   " d=" M   186.97,   515.95  C   188.52    515.96    189.79    514.71    189.80    513.15  " /><path style="stroke-width: 0.85 ;&st7;   " d=" M   189.80,   513.15  C   189.81    511.60    188.56    510.33    187.00    510.32  " /><path style="stroke-width: 0.85 ;&st7;   " d=" M   187.00,   510.32  C   185.97    510.31    185.09    510.81    184.56    511.70  " /><path style="stroke-width: 0.85 ;&st7;   " d=" M   184.56,   511.70  C   185.35    513.04    187.08    513.48    188.42    512.69  " /><path style="stroke-width: 0.85 ;&st7;   " d=" M   188.42,   512.69  C   189.76    511.90    190.20    510.17    189.41    508.83  " /><path style="stroke-width: 0.85 ;&st7;   " d=" M   189.41,   508.83  C   188.89    507.94    188.00    507.44    186.97    507.45  " /><path style="stroke-width: 1.42 ;&st7;   " d=" M   195.47,   511.70  C   195.47    507.01    191.66    503.20    186.97    503.20  " /><path style="stroke-width: 1.42 ;&st7;   " d=" M   186.97,   503.20  C   182.28    503.20    178.47    507.01    178.47    511.70  " /><path style="stroke-width: 1.42 ;&st7;   " d=" M   178.47,   511.70  C   178.47    516.39    182.28    520.20    186.97    520.20  " /><path style="stroke-width: 1.42 ;&st7;   " d=" M   186.97,   520.20  C   191.66    520.20    195.47    516.39    195.47    511.70  " /><path style="stroke-width: 1.42 ;&st7;  " d=" M   161.47,   486.20  L   212.46,   486.20  L   212.46,   537.20  L   161.47,   537.20  L   161.47,   486.20  " /><path style="stroke-width: 0.85 ;&st7;  " d=" M   186.97,   486.20  L   186.97,   503.20  " /><path style="stroke-width: 0.85 ;&st7;  " d=" M   186.97,   520.20  L   186.97,   537.20  " /><text style="&st18;" transform="matrix(&st16;  189.55  494.4 )">B</text><text style="&st18;" transform="matrix(&st16;  189.55  533.51 )">E</text><text style="&st18;" transform="matrix(&st17;  174.77  517.62 )" ewd:textID="25">Turn</text><text style="&st18;" transform="matrix(&st16;  180.63  545.39 )">1</text><text style="&st18;" transform="matrix(&st16;  180.63  482.51 )">2</text><g ewd:figtype="title"><text style="&st18;" transform="matrix(&st17;  227.18  540.1 )" ewd:textID="15">Headlight <tspan x="0 " dy="6.0">Assembly LH</tspan></text><text style="&st18;" transform="matrix(&st17;  220.36  540.09 )">A3</text></g></g><g ewd:figtype="conn" ewd:figID="12" ewd:code="T14"><path style="stroke-width: 0.85 ;&st7;  " d=" M   467.42,   503.20  L   467.42,   507.45  " /><path style="stroke-width: 0.85 ;&st7;  " d=" M   467.42,   515.95  L   467.42,   520.20  " /><path style="stroke-width: 0.85 ;&st7;   " d=" M   467.42,   515.95  C   468.98    515.96    470.25    514.71    470.25    513.15  " /><path style="stroke-width: 0.85 ;&st7;   " d=" M   470.25,   513.15  C   470.26    511.60    469.01    510.33    467.46    510.32  " /><path style="stroke-width: 0.85 ;&st7;   " d=" M   467.46,   510.32  C   466.42    510.31    465.54    510.81    465.01    511.70  " /><path style="stroke-width: 0.85 ;&st7;   " d=" M   465.01,   511.70  C   465.81    513.04    467.53    513.48    468.87    512.69  " /><path style="stroke-width: 0.85 ;&st7;   " d=" M   468.87,   512.69  C   470.21    511.90    470.66    510.17    469.86    508.83  " /><path style="stroke-width: 0.85 ;&st7;   " d=" M   469.86,   508.83  C   469.34    507.94    468.45    507.44    467.42    507.45  " /><path style="stroke-width: 1.42 ;&st7;   " d=" M   475.92,   511.70  C   475.92    507.01    472.12    503.20    467.42    503.20  " /><path style="stroke-width: 1.42 ;&st7;   " d=" M   467.42,   503.20  C   462.73    503.20    458.92    507.01    458.92    511.70  " /><path style="stroke-width: 1.42 ;&st7;   " d=" M   458.92,   511.70  C   458.92    516.39    462.73    520.20    467.42    520.20  " /><path style="stroke-width: 1.42 ;&st7;   " d=" M   467.42,   520.20  C   472.12    520.20    475.92    516.39    475.92    511.70  " /><path style="stroke-width: 0.85 ;&st7;  " d=" M   467.42,   520.20  L   467.42,   537.20  " /><path style="stroke-width: 0.85 ;&st7;  " d=" M   467.42,   486.20  L   467.42,   503.20  " /><path style="stroke-width: 1.42 ;&st7;  " d=" M   441.93,   486.20  L   492.92,   486.20  L   492.92,   537.20  L   441.93,   537.20  L   441.93,   486.20  " /><text style="&st18;" transform="matrix(&st16;  470.01  494.4 )">TRN</text><text style="&st18;" transform="matrix(&st16;  470.01  533.51 )">E</text><text style="&st18;" transform="matrix(&st17;  455.23  517.62 )" ewd:textID="25">Turn</text><text style="&st18;" transform="matrix(&st16;  457.94  543.7 )">2</text><text style="&st18;" transform="matrix(&st16;  465.16  543.7 )">A</text><path style="stroke-width: 1.42 ;&st7;   " d=" M   471.95,   541.73  C   471.95    539.22    469.93    537.20    467.42    537.20  " /><path style="stroke-width: 1.42 ;&st7;   " d=" M   467.42,   537.20  C   464.92    537.20    462.89    539.22    462.89    541.73  " /><path style="stroke-width: 1.42 ;&st7;   " d=" M   462.89,   541.73  C   462.89    544.23    464.92    546.26    467.42    546.26  " /><path style="stroke-width: 1.42 ;&st7;   " d=" M   467.42,   546.26  C   469.93    546.26    471.95    544.23    471.95    541.73  " /><text style="&st18;" transform="matrix(&st16;  457.94  483.64 )">3</text><text style="&st18;" transform="matrix(&st16;  465.16  483.64 )">A</text><path style="stroke-width: 1.42 ;&st7;   " d=" M   471.95,   481.67  C   471.95    479.17    469.93    477.14    467.42    477.14  " /><path style="stroke-width: 1.42 ;&st7;   " d=" M   467.42,   477.14  C   464.92    477.14    462.89    479.17    462.89    481.67  " /><path style="stroke-width: 1.42 ;&st7;   " d=" M   462.89,   481.67  C   462.89    484.17    464.92    486.20    467.42    486.20  " /><path style="stroke-width: 1.42 ;&st7;   " d=" M   467.42,   486.20  C   469.93    486.20    471.95    484.17    471.95    481.67  " /><g ewd:figtype="title"><text style="&st18;" transform="matrix(&st17;  432.28  540.1 )" ewd:textID="24">Rear Combination <tspan x="0 " dy="6.0">Light Assembly RH</tspan></text><text style="&st18;" transform="matrix(&st17;  425.46  540.09 )">T14(A)</text></g></g><g ewd:figtype="conn" ewd:figID="21" ewd:code="I29"><path style="stroke-width: 1.42 ;&st7;  " d=" M    93.48,    78.27  L   968.84,    78.27  L   968.84,    35.78  L    93.48,    35.78  L    93.48,    78.27  " /><g ewd:lineID="2"><text style="&st18;" transform="matrix(&st16;  101.0  84.77 )">1</text><path style="stroke-width: 1.42 ;&st7;   " d=" M   115.01,    82.80  C   115.01     80.30    112.98     78.27    110.48     78.27  " /><path style="stroke-width: 1.42 ;&st7;   " d=" M   110.48,    78.27  C   107.98     78.27    105.95     80.30    105.95     82.80  " /><path style="stroke-width: 1.42 ;&st7;   " d=" M   105.95,    82.80  C   105.95     85.31    107.98     87.34    110.48     87.34  " /><path style="stroke-width: 1.42 ;&st7;   " d=" M   110.48,    87.34  C   112.98     87.34    115.01     85.31    115.01     82.80  " /><text style="&st18;" transform="matrix(&st16;  108.22  84.77 )">B</text><text style="&st18;" transform="matrix(&st16;  108.22  74.58 )">B</text></g><g ewd:lineID="23,24"><text style="&st18;" transform="matrix(&st16;  347.46  84.77 )">2</text><path style="stroke-width: 1.42 ;&st7;   " d=" M   361.47,    82.80  C   361.47     80.30    359.44     78.27    356.94     78.27  " /><path style="stroke-width: 1.42 ;&st7;   " d=" M   356.94,    78.27  C   354.44     78.27    352.41     80.30    352.41     82.80  " /><path style="stroke-width: 1.42 ;&st7;   " d=" M   352.41,    82.80  C   352.41     85.31    354.44     87.34    356.94     87.34  " /><path style="stroke-width: 1.42 ;&st7;   " d=" M   356.94,    87.34  C   359.44     87.34    361.47     85.31    361.47     82.80  " /><text style="&st18;" transform="matrix(&st16;  354.67  84.77 )">B</text><text style="&st18;" transform="matrix(&st16;  352.89  74.58 )">LR</text></g><g ewd:lineID="3,4"><text style="&st18;" transform="matrix(&st16;  151.99  84.77 )">3</text><path style="stroke-width: 1.42 ;&st7;   " d=" M   166.01,    82.80  C   166.01     80.30    163.98     78.27    161.47     78.27  " /><path style="stroke-width: 1.42 ;&st7;   " d=" M   161.47,    78.27  C   158.97     78.27    156.94     80.30    156.94     82.80  " /><path style="stroke-width: 1.42 ;&st7;   " d=" M   156.94,    82.80  C   156.94     85.31    158.97     87.34    161.47     87.34  " /><path style="stroke-width: 1.42 ;&st7;   " d=" M   161.47,    87.34  C   163.98     87.34    166.01     85.31    166.01     82.80  " /><text style="&st18;" transform="matrix(&st16;  159.21  84.77 )">B</text><text style="&st18;" transform="matrix(&st16;  157.93  74.58 )">LL</text></g><g ewd:figtype="title"><text style="&st18;" transform="matrix(&st16;  98.57  25.26 )">I29(B)</text><text style="&st18;" transform="matrix(&st16;  98.58  32.08 )" ewd:textID="28">Turn Signal Flasher Assembly</text></g></g><g ewd:figtype="w2w" ewd:figID="26" ewd:code="AI3"><path style="stroke-width: 1.42 ;&st7;  " d=" M    29.75,   172.32  L    25.50,   168.07  L    21.25,   172.32  " /><path style="stroke-width: 1.42 ;&st7;  " d=" M    29.75,   168.92  L    25.50,   164.67  L    21.25,   168.92  " /><text style="&st18;" transform="matrix(&st16;  8.74  160.98 )">44</text></g><g ewd:figtype="w2w" ewd:figID="27" ewd:code="AI3"><path style="stroke-width: 1.42 ;&st7;  " d=" M   182.72,   366.66  L   186.97,   370.91  L   191.22,   366.66  " /><path style="stroke-width: 1.42 ;&st7;  " d=" M   191.22,   370.06  L   186.97,   374.31  L   182.72,   370.06  " /><text style="&st18;" transform="matrix(&st16;  170.22  381.94 )">41</text></g><g ewd:figtype="w2w" ewd:figID="28" ewd:code="AC1"><path style="stroke-width: 1.42 ;&st7;  " d=" M   267.71,   614.25  L   263.46,   610.00  L   259.21,   614.25  " /><path style="stroke-width: 1.42 ;&st7;  " d=" M   267.71,   610.85  L   263.46,   606.60  L   259.21,   610.85  " /><text style="&st18;" transform="matrix(&st16;  250.04  602.9 )">1</text></g><g ewd:figtype="w2w" ewd:figID="29" ewd:code="AI3"><path style="stroke-width: 1.42 ;&st7;  " d=" M   259.21,   545.13  L   263.46,   549.38  L   267.71,   545.13  " /><path style="stroke-width: 1.42 ;&st7;  " d=" M   267.71,   548.53  L   263.46,   552.78  L   259.21,   548.53  " /><text style="&st18;" transform="matrix(&st16;  246.7  560.41 )">22</text></g><g ewd:figtype="w2w" ewd:figID="30" ewd:code="IL6"><path style="stroke-width: 1.42 ;&st7;  " d=" M   267.71,   497.54  L   263.46,   501.78  L   259.21,   497.54  " /><path style="stroke-width: 1.42 ;&st7;  " d=" M   259.21,   494.14  L   263.46,   498.39  L   267.71,   494.14  " /><text style="&st18;" transform="matrix(&st16;  246.7  509.42 )">14</text></g><g ewd:figtype="w2w" ewd:figID="31" ewd:code="LI1"><path style="stroke-width: 1.42 ;&st7;  " d=" M   259.21,   222.18  L   263.46,   226.43  L   267.71,   222.18  " /><path style="stroke-width: 1.42 ;&st7;  " d=" M   267.71,   225.58  L   263.46,   229.83  L   259.21,   225.58  " /><text style="&st18;" transform="matrix(&st16;  246.7  237.47 )">25</text></g><g ewd:figtype="w2w" ewd:figID="32" ewd:code="LI1"><path style="stroke-width: 1.42 ;&st7;  " d=" M   310.20,   222.18  L   314.45,   226.43  L   318.70,   222.18  " /><path style="stroke-width: 1.42 ;&st7;  " d=" M   318.70,   225.58  L   314.45,   229.83  L   310.20,   225.58  " /><text style="&st18;" transform="matrix(&st16;  297.69  237.47 )">21</text></g><g ewd:figtype="w2w" ewd:figID="33" ewd:code="ST2"><path style="stroke-width: 1.42 ;&st7;  " d=" M   471.67,   376.29  L   467.42,   372.04  L   463.17,   376.29  " /><path style="stroke-width: 1.42 ;&st7;  " d=" M   471.67,   372.89  L   467.42,   368.64  L   463.17,   372.89  " /><text style="&st18;" transform="matrix(&st16;  454.0  364.94 )">6</text></g><g ewd:figtype="gp" ewd:figID="43" ewd:code="AA"><path style="stroke-width: 0.85 ;&st7;  " d=" M   186.97,   697.25  L   186.97,   701.50  " /><path style="stroke-width: 0.85 ;&st7;  " d=" M   178.47,   701.50  L   195.47,   701.50  " /><path style="stroke-width: 0.85 ;&st7;  " d=" M   182.72,   704.33  L   191.22,   704.33  " /><path style="stroke-width: 0.85 ;&st7;  " d=" M   184.14,   707.17  L   189.80,   707.17  " /><path style="stroke-width: 0.85 ;&st7;  " d=" M   185.55,   710.00  L   188.39,   710.00  " /></g><g ewd:figtype="gp" ewd:figID="44" ewd:code="CC"><path style="stroke-width: 0.85 ;&st7;  " d=" M   262.04,   710.00  L   264.87,   710.00  " /><path style="stroke-width: 0.85 ;&st7;  " d=" M   260.62,   707.17  L   266.29,   707.17  " /><path style="stroke-width: 0.85 ;&st7;  " d=" M   259.21,   704.33  L   267.71,   704.33  " /><path style="stroke-width: 0.85 ;&st7;  " d=" M   254.96,   701.50  L   271.95,   701.50  " /><path style="stroke-width: 0.85 ;&st7;  " d=" M   263.46,   697.25  L   263.46,   701.50  " /></g><g ewd:figtype="gp" ewd:figID="45" ewd:code="IE"><path style="stroke-width: 0.85 ;&st7;  " d=" M   382.44,   697.25  L   382.44,   701.50  " /><path style="stroke-width: 0.85 ;&st7;  " d=" M   373.94,   701.50  L   390.93,   701.50  " /><path style="stroke-width: 0.85 ;&st7;  " d=" M   378.19,   704.33  L   386.69,   704.33  " /><path style="stroke-width: 0.85 ;&st7;  " d=" M   379.60,   707.17  L   385.27,   707.17  " /><path style="stroke-width: 0.85 ;&st7;  " d=" M   381.02,   710.00  L   383.85,   710.00  " /></g><g ewd:figtype="gp" ewd:figID="46" ewd:code="TB"><path style="stroke-width: 0.85 ;&st7;  " d=" M   466.01,   710.00  L   468.84,   710.00  " /><path style="stroke-width: 0.85 ;&st7;  " d=" M   464.59,   707.17  L   470.25,   707.17  " /><path style="stroke-width: 0.85 ;&st7;  " d=" M   463.17,   704.33  L   471.67,   704.33  " /><path style="stroke-width: 0.85 ;&st7;  " d=" M   458.92,   701.50  L   475.92,   701.50  " /><path style="stroke-width: 0.85 ;&st7;  " d=" M   467.42,   697.25  L   467.42,   701.50  " /></g><g ewd:code="6" ewd:figID="70" ewd:comment="" ewd:figtype="comment"><text style="&st18;" transform="matrix(&st16;  30.59  437.18 )" ewd:textID="4">* 6 :w/o Trailer Socket</text></g><g ewd:code="3" ewd:figID="71" ewd:comment="" ewd:figtype="comment"><text style="&st18;" transform="matrix(&st16;  30.59  428.68 )" ewd:textID="3">* 3 :w/ Trailer Socket</text></g><g ewd:code="7" ewd:figID="75" ewd:comment="" ewd:figtype="comment"><text style="&st18;" transform="matrix(&st16;  30.59  445.68 )" ewd:textID="5">* 7 :Before Jul. 2021 Production</text></g><g ewd:code="2" ewd:figID="72" ewd:comment="" ewd:figtype="comment"><text style="&st18;" transform="matrix(&st16;  30.59  420.18 )" ewd:textID="2">* 2 :Except Pick-Up Body Type</text></g><g ewd:code="1" ewd:figID="73" ewd:comment="" ewd:figtype="comment"><text style="&st18;" transform="matrix(&st16;  30.59  411.69 )" ewd:textID="1">* 1 :Pick-Up Body Type</text></g><g ewd:code="10" ewd:figID="79" ewd:comment="" ewd:figtype="comment"><text style="&st18;" transform="matrix(&st16;  30.59  471.18 )" ewd:textID="8">*10 :From Sep. 2022 Production</text></g><g ewd:code="9" ewd:figID="74" ewd:comment="" ewd:figtype="comment"><text style="&st18;" transform="matrix(&st16;  30.59  462.68 )" ewd:textID="7">* 9 :Before Sep. 2022 Production</text></g><g ewd:code="8" ewd:figID="76" ewd:comment="" ewd:figtype="comment"><text style="&st18;" transform="matrix(&st16;  30.59  454.18 )" ewd:textID="6">* 8 :From Jul. 2021 Production</text></g></svg>