<?xml version="1.0" encoding="utf-8"?>
<!DOCTYPE svg PUBLIC "-//W3C//DTD SVG 1.0//EN" "http://www.w3.org/TR/2001/REC-SVG-20010904/DTD/svg10.dtd"[
	<!ENTITY ns_flows "http://ns.adobe.com/Flows/1.0/">
	<!ENTITY ns_svg "http://www.w3.org/2000/svg">
	<!ENTITY ns_xlink "http://www.w3.org/1999/xlink">
	<!ENTITY st0 "font-size:7px;font-family:'MS-PGothic';adobe-font-script:japanese;">
	<!ENTITY st1 "font-size:6px;font-family:'ArialMT';">
	<!-- White fill  -->
	<!ENTITY st2 "fill:#FFFFFF;stroke:#000000; stroke-width:1.41;stroke-linecap:round;stroke-linejoin:round;">
	<!-- Yellow fill  -->
	<!ENTITY st3 "fill:#FFFFCC;stroke:#FFFFCC; stroke-width:0.1;stroke-linecap:round;stroke-linejoin:round;">
	<!-- Gray fill  -->
	<!ENTITY st4 "fill:#CCCCCC;stroke:#CCCCCC; stroke-width:0.1;stroke-linecap:round;stroke-linejoin:round;">
	<!-- Light-blue fill -->
	<!ENTITY st5 "fill:#CCECF4;stroke:#000000; stroke-width:1.133;stroke-linecap:round;stroke-linejoin:round;">
	<!ENTITY st6 "fill:none;stroke-linecap:butt; stroke-linejoin:round;">
	<!ENTITY st7 "fill:none;stroke:#000000;stroke-linecap:round;stroke-linejoin:round;">
	<!ENTITY st8 "enable-background:new    ;">
	<!-- Black fill -->
	<!ENTITY st9 "fill:#000000;stroke:#000000; stroke-linecap:round;stroke-linejoin:round;">
	<!-- SRS note   -->
	<!ENTITY st10 "font-size:9px;font-family:'ArialMT';">
	<!ENTITY st11 "font-size:9px;font-family:'Svg Symbol';">
	<!ENTITY st12 "font-size:6px;font-family:'Svg Symbol';">
	<!ENTITY st13 "fill:none;stroke:#ff0000;stroke-linecap:round;stroke-linejoin:round;">
	<!-- Yellow fill  -->
	<!ENTITY st14 "fill:#FFFF00;stroke:#FFFF00; stroke-width:0.1;stroke-linecap:round;stroke-linejoin:round;">
	<!ENTITY st15 "font-size:6px;font-family:'MS-PGothic';adobe-font-script:japanese;">
	<!ENTITY st16 "1.00 0.00 0.00 1.00">
	<!ENTITY st17 "0.00 -1.00 1.00 0.00">
	<!ENTITY st18 "font-size:6px;font-family:'Arial';">
	<!ENTITY st19 "font-size:9px;font-family:'Arial';">
	<!ENTITY st20 "font-size:6px;font-family:'MS-PGothic','MS PGothic';adobe-font-script:japanese;">
	<!ENTITY st21 "font-size:7px;font-family:'MS-PGothic','MS PGothic';adobe-font-script:japanese;">
	<!ATTLIST svg
		xmlns:ewd CDATA #FIXED "http://shcl.co.jp/ewd"
		xmlns:a CDATA #FIXED "http://ns.adobe.com/AdobeSVGViewerExtensions/3.0/"
		ewd:ver CDATA #IMPLIED
	>
	<!ATTLIST a
		ewd:lineID CDATA #IMPLIED
		ewd:groupID CDATA #IMPLIED
		ewd:figtype CDATA #IMPLIED
		ewd:code CDATA #IMPLIED
		ewd:figID CDATA #IMPLIED
		ewd:pinNo CDATA #IMPLIED
		ewd:comment CDATA #IMPLIED >
	<!ATTLIST g
		ewd:lineID CDATA #IMPLIED
		ewd:groupID CDATA #IMPLIED
		ewd:figtype CDATA #IMPLIED
		ewd:code CDATA #IMPLIED
		ewd:figID CDATA #IMPLIED
		ewd:pinNo CDATA #IMPLIED
		ewd:comment CDATA #IMPLIED >
	<!ATTLIST text
		ewd:textID CDATA #IMPLIED >
	<!ATTLIST title
		ewd:textID CDATA #IMPLIED >
]>
<!-- Generator: Shintec Hozumi YS   -->
<svg onload="call_execInitLoadProc_svg('system')" style="overflow:visible;  enable-background:new 0 0 2065.680 710.000" viewBox="0 0 2065.680 710.000" height="710.000" width="2065.680" xml:space="preserve" ewd:ver="2.3.1.16" xmlns="&ns_svg;" xmlns:a="http://ns.adobe.com/AdobeSVGViewerExtensions/3.0/" xmlns:ewd="http://shcl.co.jp/ewd" xmlns:xlink="&ns_xlink;">
<text style="&st18;" transform="matrix(&st16;  1252.23  236.05 )">G-B</text><text style="&st18;" transform="matrix(&st17;  1222.93  302.27 )">(*17 *34)</text><text style="&st18;" transform="matrix(&st17;  1222.93  412.76 )">(*17 *34)</text><text style="&st18;" transform="matrix(&st17;  1222.93  497.74 )">(*17 *34)</text><text style="&st18;" transform="matrix(&st17;  1222.93  619.91 )">(*17)</text><path style="stroke-width: 1.42 ;&st7;  " d=" M  1351.27,   404.75  L  1356.24,   409.72  " /><path style="stroke-width: 1.42 ;&st7;  " d=" M  1356.24,   392.72  L  1351.27,   397.69  " /><text style="&st18;" transform="matrix(&st17;  1392.9  407.44 )">(*18)</text><text style="&st18;" transform="matrix(&st17;  1381.57  403.29 )">G</text><text style="&st18;" transform="matrix(&st17;  1494.89  320.79 )">(*8)</text><text style="&st18;" transform="matrix(&st17;  1483.56  321.29 )">G-B</text><text style="&st18;" transform="matrix(&st17;  1494.89  386.2 )">(*10)</text><text style="&st18;" transform="matrix(&st17;  1483.56  382.05 )">G</text><text style="&st18;" transform="matrix(&st16;  1396.04  609.99 )">W-B</text><text style="&st18;" transform="matrix(&st17;  1356.08  321.22 )">G-Y</text><text style="&st18;" transform="matrix(&st17;  1367.41  320.79 )">(*8)</text><text style="&st18;" transform="matrix(&st17;  1356.08  382.05 )">G</text><text style="&st18;" transform="matrix(&st17;  1367.41  386.2 )">(*10)</text><text style="&st18;" transform="matrix(&st17;  1356.08  424.54 )">G</text><text style="&st18;" transform="matrix(&st17;  1367.41  428.69 )">(*10)</text><text style="&st18;" transform="matrix(&st17;  1483.56  424.54 )">G</text><text style="&st18;" transform="matrix(&st17;  1494.89  428.69 )">(*10)</text><text style="&st18;" transform="matrix(&st17;  1356.08  576.91 )">W-B</text><text style="&st18;" transform="matrix(&st17;  1367.41  575.75 )">(*8)</text><text style="&st18;" transform="matrix(&st17;  1483.56  576.91 )">W-B</text><text style="&st18;" transform="matrix(&st17;  1494.89  575.75 )">(*8)</text><text style="&st18;" transform="matrix(&st17;  1356.08  661.9 )">W-B</text><text style="&st18;" transform="matrix(&st17;  1367.41  660.73 )">(*8)</text><text style="&st18;" transform="matrix(&st16;  1397.21  621.32 )">(*8)</text><text style="&st18;" transform="matrix(&st17;  1211.6  619.4 )">W-B</text><text style="&st18;" transform="matrix(&st16;  1056.84  49.08 )">G-Y</text><text style="&st18;" transform="matrix(&st16;  1158.74  236.05 )">G-B</text><text style="&st18;" transform="matrix(&st17;  1109.62  295.8 )">G-B</text><text style="&st18;" transform="matrix(&st17;  1211.6  295.8 )">G-B</text><text style="&st18;" transform="matrix(&st17;  1211.6  406.28 )">G-B</text><text style="&st18;" transform="matrix(&st17;  1109.62  397.78 )">G-B</text><text style="&st18;" transform="matrix(&st17;  1211.6  491.93 )">W-B</text><text style="&st18;" transform="matrix(&st17;  1109.62  500.42 )">W-B</text><text style="&st18;" transform="matrix(&st17;  1109.62  619.4 )">W-B</text><text style="&st18;" transform="matrix(&st16;  1005.85  49.08 )">G-Y</text><path style="stroke-width: 1.42 ;&st7;  " d=" M  1363.30,   409.72  L  1368.27,   404.75  " /><path style="stroke-width: 1.42 ;&st7;  " d=" M  1368.27,   397.69  L  1363.30,   392.72  " /><path style="stroke-width: 1.42 ;&st7;  " d=" M  1495.75,   350.23  L  1487.25,   350.23  " /><path style="stroke-width: 1.42 ;&st7;  " d=" M  1368.27,   350.23  L  1359.77,   350.23  " /><path style="stroke-width: 1.42 ;&st7;  " d=" M  1206.80,   333.23  L  1215.30,   333.23  " /><path style="stroke-width: 1.42 ;&st7;  " d=" M  1104.82,   350.23  L  1113.31,   350.23  " /><path style="stroke-width: 1.42 ;&st7;  " d=" M  1495.75,   397.69  L  1490.78,   392.72  " /><path style="stroke-width: 1.42 ;&st7;  " d=" M  1483.72,   392.72  L  1478.75,   397.69  " /><path style="stroke-width: 1.42 ;&st7;  " d=" M  1211.77,   231.25  L  1206.80,   236.22  " /><path style="stroke-width: 1.42 ;&st7;  " d=" M  1218.82,   248.24  L  1223.80,   243.27  " /><path style="stroke-width: 1.42 ;&st7;  " d=" M  1206.80,   243.27  L  1211.77,   248.24  " /><path style="stroke-width: 1.42 ;&st7;  " d=" M  1223.80,   236.22  L  1218.82,   231.25  " /><path style="stroke-width: 1.42 ;&st7;  " d=" M  1109.78,   231.25  L  1104.82,   236.22  " /><path style="stroke-width: 1.42 ;&st7;  " d=" M  1116.84,   248.24  L  1121.81,   243.27  " /><path style="stroke-width: 1.42 ;&st7;  " d=" M  1104.82,   243.27  L  1109.78,   248.24  " /><path style="stroke-width: 1.42 ;&st7;  " d=" M  1121.81,   236.22  L  1116.84,   231.25  " /><path style="stroke-width: 1.42 ;&st7;  " d=" M  1478.75,   404.75  L  1483.72,   409.72  " /><path style="stroke-width: 1.42 ;&st7;  " d=" M  1490.78,   409.72  L  1495.75,   404.75  " /><path style="stroke-width: 1.42 ;&st7;  " d=" M  1368.27,   610.16  L  1363.30,   605.18  " /><path style="stroke-width: 1.42 ;&st7;  " d=" M  1351.27,   617.21  L  1356.24,   622.18  " /><path style="stroke-width: 1.42 ;&st7;  " d=" M  1363.30,   622.18  L  1368.27,   617.21  " /><path style="stroke-width: 1.42 ;&st7;  " d=" M  1356.24,   605.18  L  1351.27,   610.16  " /><text style="&st18;" transform="matrix(&st17;  1120.95  296.96 )">(*34)</text><text style="&st18;" transform="matrix(&st17;  1282.42  412.76 )">(*17 *35)</text><text style="&st18;" transform="matrix(&st17;  1282.42  497.74 )">(*17 *35)</text><text style="&st18;" transform="matrix(&st17;  1271.09  406.28 )">G-B</text><text style="&st18;" transform="matrix(&st17;  1271.09  491.93 )">W-B</text><text style="&st18;" transform="matrix(&st16;  1251.07  247.38 )">(*34)</text><text style="&st18;" transform="matrix(&st16;  1157.58  247.38 )">(*34)</text><text style="&st18;" transform="matrix(&st16;  1005.77  74.58 )">G-B</text><text style="&st18;" transform="matrix(&st16;  1004.61  85.91 )">(*34)</text><text style="&st18;" transform="matrix(&st16;  1056.76  74.58 )">G-B</text><text style="&st18;" transform="matrix(&st16;  1055.6  85.91 )">(*34)</text><text style="&st18;" transform="matrix(&st16;  1057.58  108.57 )">GR</text><text style="&st18;" transform="matrix(&st16;  1055.6  119.9 )">(*35)</text><text style="&st18;" transform="matrix(&st16;  1004.61  34.92 )">(*35)</text><text style="&st18;" transform="matrix(&st16;  1009.18  23.58 )">Y</text><text style="&st18;" transform="matrix(&st16;  1060.17  23.58 )">Y</text><text style="&st18;" transform="matrix(&st16;  1055.6  34.92 )">(*35)</text><text style="&st18;" transform="matrix(&st16;  1006.58  108.57 )">GR</text><text style="&st18;" transform="matrix(&st16;  1004.61  119.9 )">(*35)</text><text style="&st18;" transform="matrix(&st16;  1004.61  60.41 )">(*34)</text><text style="&st18;" transform="matrix(&st16;  1055.6  60.41 )">(*34)</text><text style="&st18;" transform="matrix(&st17;  1084.12  294.98 )">GR</text><text style="&st18;" transform="matrix(&st17;  1095.45  296.96 )">(*35)</text><text style="&st18;" transform="matrix(&st16;  1159.56  210.55 )">GR</text><text style="&st18;" transform="matrix(&st16;  1157.58  221.88 )">(*35)</text><text style="&st18;" transform="matrix(&st16;  1253.04  210.55 )">GR</text><text style="&st18;" transform="matrix(&st17;  1197.44  302.27 )">(*17 *35)</text><text style="&st18;" transform="matrix(&st17;  1186.11  294.52 )">SB</text><text style="&st18;" transform="matrix(&st16;  1251.07  221.88 )">(*35)</text><g ewd:code="A22" ewd:figID="8" ewd:comment="11,3,6" ewd:figtype="conn"><path style="stroke-width: 0.85 ;&st7;  " d=" M  1113.31,   554.19  L  1113.31,   537.20  " /><path style="stroke-width: 1.42 ;&st7;  " d=" M  1104.81,   554.19  L  1121.81,   554.19  L  1121.81,   537.20  L  1104.81,   537.20  L  1104.81,   554.19  " /><text style="&st18;" transform="matrix(&st16;  1103.83  560.69 )">2</text><text style="&st18;" transform="matrix(&st16;  1103.83  578.82 )">3</text><text style="&st18;" transform="matrix(&st16;  1103.83  569.76 )">4</text><text style="&st18;" transform="matrix(&st16;  1111.05  578.82 )">A</text><path style="stroke-width: 1.42 ;&st7;   " d=" M  1117.85,   567.79  C  1117.85    565.29   1115.82    563.26   1113.31    563.26  " /><path style="stroke-width: 1.42 ;&st7;   " d=" M  1113.31,   563.26  C  1110.81    563.26   1108.78    565.29   1108.78    567.79  " /><path style="stroke-width: 1.42 ;&st7;   " d=" M  1108.78,   567.79  C  1108.78    570.29   1110.81    572.32   1113.31    572.32  " /><path style="stroke-width: 1.42 ;&st7;   " d=" M  1113.31,   572.32  C  1115.82    572.32   1117.85    570.29   1117.85    567.79  " /><path style="stroke-width: 1.42 ;&st7;   " d=" M  1117.85,   576.86  C  1117.85    574.35   1115.82    572.32   1113.31    572.32  " /><path style="stroke-width: 1.42 ;&st7;   " d=" M  1113.31,   572.32  C  1110.81    572.32   1108.78    574.35   1108.78    576.86  " /><path style="stroke-width: 1.42 ;&st7;   " d=" M  1108.78,   576.86  C  1108.78    579.36   1110.81    581.39   1113.31    581.39  " /><path style="stroke-width: 1.42 ;&st7;   " d=" M  1113.31,   581.39  C  1115.82    581.39   1117.85    579.36   1117.85    576.86  " /><path style="stroke-width: 1.42 ;&st7;   " d=" M  1117.85,   558.73  C  1117.85    556.22   1115.82    554.19   1113.31    554.19  " /><path style="stroke-width: 1.42 ;&st7;   " d=" M  1113.31,   554.19  C  1110.81    554.19   1108.78    556.22   1108.78    558.73  " /><path style="stroke-width: 1.42 ;&st7;   " d=" M  1108.78,   558.73  C  1108.78    561.23   1110.81    563.26   1113.31    563.26  " /><path style="stroke-width: 1.42 ;&st7;   " d=" M  1113.31,   563.26  C  1115.82    563.26   1117.85    561.23   1117.85    558.73  " /><text style="&st18;" transform="matrix(&st16;  1111.05  569.76 )">A</text><text style="&st18;" transform="matrix(&st16;  1111.05  560.69 )">A</text><text style="&st18;" transform="matrix(&st16;  1103.83  534.63 )">8</text><path style="stroke-width: 1.42 ;&st7;   " d=" M  1117.85,   532.66  C  1117.85    530.16   1115.82    528.13   1113.31    528.13  " /><path style="stroke-width: 1.42 ;&st7;   " d=" M  1113.31,   528.13  C  1110.81    528.13   1108.78    530.16   1108.78    532.66  " /><path style="stroke-width: 1.42 ;&st7;   " d=" M  1108.78,   532.66  C  1108.78    535.17   1110.81    537.20   1113.31    537.20  " /><path style="stroke-width: 1.42 ;&st7;   " d=" M  1113.31,   537.20  C  1115.82    537.20   1117.85    535.17   1117.85    532.66  " /><text style="&st18;" transform="matrix(&st16;  1111.05  534.63 )">A</text><g ewd:figtype="title"><text style="&st18;" transform="matrix(&st17;  1088.35  557.09 )">A22(A)</text><text style="&st18;" transform="matrix(&st17;  1095.17  557.1 )" ewd:textID="28">No. 1 Junction <tspan x="0 " dy="6.0">Connector</tspan></text></g><g ewd:code="" ewd:figID="106" ewd:comment="11" ewd:figtype="commref"><text style="&st18;" transform="matrix(&st16;  1118.41  578.82 )">(*11)</text></g><g ewd:code="" ewd:figID="107" ewd:comment="6" ewd:figtype="commref"><text style="&st18;" transform="matrix(&st16;  1118.41  569.76 )">(*6)</text></g><g ewd:code="" ewd:figID="108" ewd:comment="3" ewd:figtype="commref"><text style="&st18;" transform="matrix(&st16;  1118.41  560.69 )">(*3)</text></g></g><g ewd:figtype="conn" ewd:figID="9" ewd:code="A11"><path style="stroke-width: 0.85 ;&st7;   " d=" M  1215.30,   447.96  C  1216.85    447.97   1218.12    446.72   1218.13    445.16  " /><path style="stroke-width: 0.85 ;&st7;   " d=" M  1218.13,   445.16  C  1218.14    443.61   1216.89    442.34   1215.33    442.33  " /><path style="stroke-width: 0.85 ;&st7;   " d=" M  1215.33,   442.33  C  1214.30    442.32   1213.42    442.82   1212.89    443.71  " /><path style="stroke-width: 0.85 ;&st7;   " d=" M  1212.89,   443.71  C  1213.68    445.05   1215.41    445.49   1216.75    444.70  " /><path style="stroke-width: 0.85 ;&st7;   " d=" M  1216.75,   444.70  C  1218.09    443.91   1218.53    442.18   1217.74    440.84  " /><path style="stroke-width: 0.85 ;&st7;   " d=" M  1217.74,   440.84  C  1217.21    439.96   1216.33    439.45   1215.30    439.46  " /><path style="stroke-width: 1.42 ;&st7;   " d=" M  1223.80,   443.71  C  1223.80    439.02   1219.99    435.21   1215.30    435.21  " /><path style="stroke-width: 1.42 ;&st7;   " d=" M  1215.30,   435.21  C  1210.60    435.21   1206.80    439.02   1206.80    443.71  " /><path style="stroke-width: 1.42 ;&st7;   " d=" M  1206.80,   443.71  C  1206.80    448.40   1210.60    452.21   1215.30    452.21  " /><path style="stroke-width: 1.42 ;&st7;   " d=" M  1215.30,   452.21  C  1219.99    452.21   1223.80    448.40   1223.80    443.71  " /><path style="stroke-width: 0.85 ;&st7;  " d=" M  1215.30,   435.21  L  1215.30,   439.46  " /><path style="stroke-width: 0.85 ;&st7;  " d=" M  1215.30,   447.96  L  1215.30,   452.21  " /><text style="&st18;" transform="matrix(&st16;  1208.96  460.4 )">1</text><text style="&st18;" transform="matrix(&st16;  1208.96  431.52 )">2</text><g ewd:figtype="title"><text style="&st18;" transform="matrix(&st17;  1238.51  455.12 )" ewd:textID="36">Side Turn Signal <tspan x="0 " dy="6.0">Light Assembly LH</tspan></text><text style="&st18;" transform="matrix(&st17;  1231.69  455.11 )">A11</text></g></g><g ewd:figtype="conn" ewd:figID="11" ewd:code="A3"><text style="&st18;" transform="matrix(&st17;  1101.12  449.63 )" ewd:textID="38">Turn</text><text style="&st18;" transform="matrix(&st16;  1115.9  465.52 )">E</text><text style="&st18;" transform="matrix(&st16;  1115.9  426.41 )">B</text><path style="stroke-width: 0.85 ;&st7;  " d=" M  1113.31,   452.21  L  1113.31,   469.21  " /><path style="stroke-width: 0.85 ;&st7;  " d=" M  1113.31,   418.22  L  1113.31,   435.21  " /><path style="stroke-width: 1.42 ;&st7;  " d=" M  1087.82,   418.22  L  1138.81,   418.22  L  1138.81,   469.21  L  1087.82,   469.21  L  1087.82,   418.22  " /><path style="stroke-width: 1.42 ;&st7;   " d=" M  1121.81,   443.71  C  1121.81    439.02   1118.01    435.21   1113.31    435.21  " /><path style="stroke-width: 1.42 ;&st7;   " d=" M  1113.31,   435.21  C  1108.62    435.21   1104.82    439.02   1104.82    443.71  " /><path style="stroke-width: 1.42 ;&st7;   " d=" M  1104.82,   443.71  C  1104.82    448.40   1108.62    452.21   1113.31    452.21  " /><path style="stroke-width: 1.42 ;&st7;   " d=" M  1113.31,   452.21  C  1118.01    452.21   1121.81    448.40   1121.81    443.71  " /><path style="stroke-width: 0.85 ;&st7;   " d=" M  1110.91,   443.71  C  1111.70    445.05   1113.43    445.49   1114.76    444.70  " /><path style="stroke-width: 0.85 ;&st7;   " d=" M  1114.76,   444.70  C  1116.10    443.91   1116.55    442.18   1115.76    440.84  " /><path style="stroke-width: 0.85 ;&st7;   " d=" M  1115.76,   440.84  C  1115.23    439.96   1114.35    439.45   1113.31    439.46  " /><path style="stroke-width: 0.85 ;&st7;   " d=" M  1113.31,   447.96  C  1114.87    447.97   1116.14    446.72   1116.15    445.16  " /><path style="stroke-width: 0.85 ;&st7;   " d=" M  1116.15,   445.16  C  1116.16    443.61   1114.90    442.34   1113.35    442.33  " /><path style="stroke-width: 0.85 ;&st7;   " d=" M  1113.35,   442.33  C  1112.32    442.32   1111.43    442.82   1110.91    443.71  " /><path style="stroke-width: 0.85 ;&st7;  " d=" M  1113.31,   447.96  L  1113.31,   452.21  " /><path style="stroke-width: 0.85 ;&st7;  " d=" M  1113.31,   435.21  L  1113.31,   439.46  " /><text style="&st18;" transform="matrix(&st16;  1106.97  477.4 )">1</text><text style="&st18;" transform="matrix(&st16;  1106.97  414.53 )">2</text><g ewd:figtype="title"><text style="&st18;" transform="matrix(&st17;  1146.7  472.11 )">A3</text><text style="&st18;" transform="matrix(&st17;  1153.53  472.11 )" ewd:textID="25">Headlight <tspan x="0 " dy="6.0">Assembly LH</tspan></text></g></g><g ewd:figtype="conn" ewd:figID="12" ewd:code="A23"><path style="stroke-width: 0.85 ;&st7;  " d=" M  1215.30,   554.19  L  1215.30,   537.20  " /><path style="stroke-width: 1.42 ;&st7;  " d=" M  1206.80,   554.19  L  1223.80,   554.19  L  1223.80,   537.20  L  1206.80,   537.20  L  1206.80,   554.19  " /><text style="&st18;" transform="matrix(&st16;  1205.82  560.69 )">1</text><path style="stroke-width: 1.42 ;&st7;   " d=" M  1219.83,   558.73  C  1219.83    556.22   1217.80    554.19   1215.30    554.19  " /><path style="stroke-width: 1.42 ;&st7;   " d=" M  1215.30,   554.19  C  1212.79    554.19   1210.76    556.22   1210.76    558.73  " /><path style="stroke-width: 1.42 ;&st7;   " d=" M  1210.76,   558.73  C  1210.76    561.23   1212.79    563.26   1215.30    563.26  " /><path style="stroke-width: 1.42 ;&st7;   " d=" M  1215.30,   563.26  C  1217.80    563.26   1219.83    561.23   1219.83    558.73  " /><text style="&st18;" transform="matrix(&st16;  1213.03  560.69 )">A</text><text style="&st18;" transform="matrix(&st16;  1205.82  534.63 )">8</text><path style="stroke-width: 1.42 ;&st7;   " d=" M  1219.83,   532.66  C  1219.83    530.16   1217.80    528.13   1215.30    528.13  " /><path style="stroke-width: 1.42 ;&st7;   " d=" M  1215.30,   528.13  C  1212.79    528.13   1210.76    530.16   1210.76    532.66  " /><path style="stroke-width: 1.42 ;&st7;   " d=" M  1210.76,   532.66  C  1210.76    535.17   1212.79    537.20   1215.30    537.20  " /><path style="stroke-width: 1.42 ;&st7;   " d=" M  1215.30,   537.20  C  1217.80    537.20   1219.83    535.17   1219.83    532.66  " /><text style="&st18;" transform="matrix(&st16;  1213.03  534.63 )">A</text><g ewd:figtype="title"><text style="&st18;" transform="matrix(&st17;  1231.69  557.09 )">A23(A)</text><text style="&st18;" transform="matrix(&st17;  1238.51  557.1 )" ewd:textID="29">No. 2 <tspan x="0 " dy="6.0">Junction </tspan><tspan x="0 " dy="6.0">Connector</tspan></text></g></g><g ewd:figtype="conn" ewd:figID="13" ewd:code="T17"><text style="&st18;" transform="matrix(&st17;  1475.06  500.62 )" ewd:textID="38">Turn</text><text style="&st18;" transform="matrix(&st16;  1489.83  516.51 )">E</text><text style="&st18;" transform="matrix(&st16;  1489.83  477.4 )">TRN</text><path style="stroke-width: 1.42 ;&st7;  " d=" M  1461.76,   469.21  L  1512.75,   469.21  L  1512.75,   520.20  L  1461.76,   520.20  L  1461.76,   469.21  " /><path style="stroke-width: 0.85 ;&st7;  " d=" M  1487.25,   520.20  L  1487.25,   503.20  " /><path style="stroke-width: 0.85 ;&st7;  " d=" M  1487.25,   486.20  L  1487.25,   469.21  " /><path style="stroke-width: 0.85 ;&st7;   " d=" M  1487.25,   498.95  C  1488.81    498.96   1490.07    497.71   1490.08    496.15  " /><path style="stroke-width: 0.85 ;&st7;   " d=" M  1490.08,   496.15  C  1490.09    494.60   1488.84    493.33   1487.29    493.32  " /><path style="stroke-width: 0.85 ;&st7;   " d=" M  1487.29,   493.32  C  1486.25    493.31   1485.37    493.81   1484.84    494.70  " /><path style="stroke-width: 0.85 ;&st7;   " d=" M  1484.84,   494.70  C  1485.64    496.04   1487.36    496.49   1488.70    495.69  " /><path style="stroke-width: 0.85 ;&st7;   " d=" M  1488.70,   495.69  C  1490.04    494.90   1490.49    493.18   1489.69    491.84  " /><path style="stroke-width: 0.85 ;&st7;   " d=" M  1489.69,   491.84  C  1489.17    490.95   1488.28    490.45   1487.25    490.45  " /><path style="stroke-width: 1.42 ;&st7;   " d=" M  1495.75,   494.70  C  1495.75    490.01   1491.95    486.20   1487.25    486.20  " /><path style="stroke-width: 1.42 ;&st7;   " d=" M  1487.25,   486.20  C  1482.56    486.20   1478.75    490.01   1478.75    494.70  " /><path style="stroke-width: 1.42 ;&st7;   " d=" M  1478.75,   494.70  C  1478.75    499.40   1482.56    503.20   1487.25    503.20  " /><path style="stroke-width: 1.42 ;&st7;   " d=" M  1487.25,   503.20  C  1491.95    503.20   1495.75    499.40   1495.75    494.70  " /><path style="stroke-width: 0.85 ;&st7;  " d=" M  1487.25,   486.20  L  1487.25,   490.45  " /><path style="stroke-width: 0.85 ;&st7;  " d=" M  1487.25,   498.95  L  1487.25,   503.20  " /><text style="&st18;" transform="matrix(&st16;  1477.77  526.7 )">2</text><text style="&st18;" transform="matrix(&st16;  1484.99  526.7 )">A</text><path style="stroke-width: 1.42 ;&st7;   " d=" M  1491.78,   524.73  C  1491.78    522.23   1489.75    520.20   1487.25    520.20  " /><path style="stroke-width: 1.42 ;&st7;   " d=" M  1487.25,   520.20  C  1484.75    520.20   1482.72    522.23   1482.72    524.73  " /><path style="stroke-width: 1.42 ;&st7;   " d=" M  1482.72,   524.73  C  1482.72    527.23   1484.75    529.26   1487.25    529.26  " /><path style="stroke-width: 1.42 ;&st7;   " d=" M  1487.25,   529.26  C  1489.75    529.26   1491.78    527.23   1491.78    524.73  " /><text style="&st18;" transform="matrix(&st16;  1477.77  466.64 )">3</text><text style="&st18;" transform="matrix(&st16;  1484.99  466.64 )">A</text><path style="stroke-width: 1.42 ;&st7;   " d=" M  1491.78,   464.67  C  1491.78    462.17   1489.75    460.14   1487.25    460.14  " /><path style="stroke-width: 1.42 ;&st7;   " d=" M  1487.25,   460.14  C  1484.75    460.14   1482.72    462.17   1482.72    464.67  " /><path style="stroke-width: 1.42 ;&st7;   " d=" M  1482.72,   464.67  C  1482.72    467.18   1484.75    469.21   1487.25    469.21  " /><path style="stroke-width: 1.42 ;&st7;   " d=" M  1487.25,   469.21  C  1489.75    469.21   1491.78    467.18   1491.78    464.67  " /><g ewd:figtype="title"><text style="&st18;" transform="matrix(&st17;  1445.29  523.1 )">T17(A)</text><text style="&st18;" transform="matrix(&st17;  1452.11  523.1 )" ewd:textID="34">Rear Combination <tspan x="0 " dy="6.0">Light Assembly LH</tspan></text></g></g><g ewd:figtype="conn" ewd:figID="14" ewd:code="T14"><text style="&st18;" transform="matrix(&st17;  1347.58  500.62 )" ewd:textID="38">Turn</text><text style="&st18;" transform="matrix(&st16;  1362.36  516.51 )">E</text><text style="&st18;" transform="matrix(&st16;  1362.36  477.4 )">TRN</text><path style="stroke-width: 1.42 ;&st7;  " d=" M  1334.28,   469.21  L  1385.27,   469.21  L  1385.27,   520.20  L  1334.28,   520.20  L  1334.28,   469.21  " /><path style="stroke-width: 0.85 ;&st7;  " d=" M  1359.77,   469.21  L  1359.77,   486.20  " /><path style="stroke-width: 0.85 ;&st7;  " d=" M  1359.77,   503.20  L  1359.77,   520.20  " /><path style="stroke-width: 1.42 ;&st7;   " d=" M  1368.27,   494.70  C  1368.27    490.01   1364.47    486.20   1359.77    486.20  " /><path style="stroke-width: 1.42 ;&st7;   " d=" M  1359.77,   486.20  C  1355.08    486.20   1351.27    490.01   1351.27    494.70  " /><path style="stroke-width: 1.42 ;&st7;   " d=" M  1351.27,   494.70  C  1351.27    499.40   1355.08    503.20   1359.77    503.20  " /><path style="stroke-width: 1.42 ;&st7;   " d=" M  1359.77,   503.20  C  1364.47    503.20   1368.27    499.40   1368.27    494.70  " /><path style="stroke-width: 0.85 ;&st7;   " d=" M  1357.36,   494.70  C  1358.16    496.04   1359.88    496.49   1361.22    495.69  " /><path style="stroke-width: 0.85 ;&st7;   " d=" M  1361.22,   495.69  C  1362.56    494.90   1363.01    493.18   1362.21    491.84  " /><path style="stroke-width: 0.85 ;&st7;   " d=" M  1362.21,   491.84  C  1361.69    490.95   1360.81    490.45   1359.77    490.45  " /><path style="stroke-width: 0.85 ;&st7;   " d=" M  1359.77,   498.95  C  1361.33    498.96   1362.60    497.71   1362.61    496.15  " /><path style="stroke-width: 0.85 ;&st7;   " d=" M  1362.61,   496.15  C  1362.62    494.60   1361.36    493.33   1359.81    493.32  " /><path style="stroke-width: 0.85 ;&st7;   " d=" M  1359.81,   493.32  C  1358.77    493.31   1357.89    493.81   1357.37    494.70  " /><path style="stroke-width: 0.85 ;&st7;  " d=" M  1359.77,   498.95  L  1359.77,   503.20  " /><path style="stroke-width: 0.85 ;&st7;  " d=" M  1359.77,   486.20  L  1359.77,   490.45  " /><text style="&st18;" transform="matrix(&st16;  1350.29  526.7 )">2</text><path style="stroke-width: 1.42 ;&st7;   " d=" M  1364.31,   524.73  C  1364.31    522.23   1362.28    520.20   1359.77    520.20  " /><path style="stroke-width: 1.42 ;&st7;   " d=" M  1359.77,   520.20  C  1357.27    520.20   1355.24    522.23   1355.24    524.73  " /><path style="stroke-width: 1.42 ;&st7;   " d=" M  1355.24,   524.73  C  1355.24    527.23   1357.27    529.26   1359.77    529.26  " /><path style="stroke-width: 1.42 ;&st7;   " d=" M  1359.77,   529.26  C  1362.28    529.26   1364.31    527.23   1364.31    524.73  " /><text style="&st18;" transform="matrix(&st16;  1357.51  526.7 )">A</text><text style="&st18;" transform="matrix(&st16;  1350.29  466.64 )">3</text><path style="stroke-width: 1.42 ;&st7;   " d=" M  1364.31,   464.67  C  1364.31    462.17   1362.28    460.14   1359.77    460.14  " /><path style="stroke-width: 1.42 ;&st7;   " d=" M  1359.77,   460.14  C  1357.27    460.14   1355.24    462.17   1355.24    464.67  " /><path style="stroke-width: 1.42 ;&st7;   " d=" M  1355.24,   464.67  C  1355.24    467.18   1357.27    469.21   1359.77    469.21  " /><path style="stroke-width: 1.42 ;&st7;   " d=" M  1359.77,   469.21  C  1362.28    469.21   1364.31    467.18   1364.31    464.67  " /><text style="&st18;" transform="matrix(&st16;  1357.51  466.64 )">A</text><g ewd:figtype="title"><text style="&st18;" transform="matrix(&st17;  1317.81  523.1 )">T14(A)</text><text style="&st18;" transform="matrix(&st17;  1324.63  523.1 )" ewd:textID="35">Rear Combination <tspan x="0 " dy="6.0">Light Assembly RH</tspan></text></g></g><g ewd:figtype="conn" ewd:figID="17" ewd:code="A44"><path style="stroke-width: 0.85 ;&st7;   " d=" M  1274.79,   447.96  C  1276.34    447.97   1277.61    446.72   1277.62    445.16  " /><path style="stroke-width: 0.85 ;&st7;   " d=" M  1277.62,   445.16  C  1277.63    443.61   1276.38    442.34   1274.82    442.33  " /><path style="stroke-width: 0.85 ;&st7;   " d=" M  1274.82,   442.33  C  1273.79    442.32   1272.91    442.82   1272.38    443.71  " /><path style="stroke-width: 0.85 ;&st7;   " d=" M  1272.38,   443.71  C  1273.17    445.05   1274.90    445.49   1276.24    444.70  " /><path style="stroke-width: 0.85 ;&st7;   " d=" M  1276.24,   444.70  C  1277.58    443.91   1278.02    442.18   1277.23    440.84  " /><path style="stroke-width: 0.85 ;&st7;   " d=" M  1277.23,   440.84  C  1276.70    439.96   1275.82    439.45   1274.79    439.46  " /><path style="stroke-width: 1.42 ;&st7;   " d=" M  1283.29,   443.71  C  1283.29    439.02   1279.48    435.21   1274.79    435.21  " /><path style="stroke-width: 1.42 ;&st7;   " d=" M  1274.79,   435.21  C  1270.09    435.21   1266.29    439.02   1266.29    443.71  " /><path style="stroke-width: 1.42 ;&st7;   " d=" M  1266.29,   443.71  C  1266.29    448.40   1270.09    452.21   1274.79    452.21  " /><path style="stroke-width: 1.42 ;&st7;   " d=" M  1274.79,   452.21  C  1279.48    452.21   1283.29    448.40   1283.29    443.71  " /><path style="stroke-width: 0.85 ;&st7;  " d=" M  1274.79,   435.21  L  1274.79,   439.46  " /><path style="stroke-width: 0.85 ;&st7;  " d=" M  1274.79,   447.96  L  1274.79,   452.21  " /><text style="&st18;" transform="matrix(&st16;  1268.45  460.4 )">1</text><text style="&st18;" transform="matrix(&st16;  1268.45  431.52 )">2</text><g ewd:figtype="title"><text style="&st18;" transform="matrix(&st17;  1298.0  455.12 )" ewd:textID="36">Side Turn Signal <tspan x="0 " dy="6.0">Light Assembly LH</tspan></text><text style="&st18;" transform="matrix(&st17;  1291.18  455.11 )">A44</text></g></g><g ewd:figtype="w2w" ewd:figID="42" ewd:code="AI3"><text style="&st18;" transform="matrix(&st16;  1096.56  356.45 )">41</text><path style="stroke-width: 1.42 ;&st7;  " d=" M  1117.56,   344.56  L  1113.31,   348.81  L  1109.06,   344.56  " /><path style="stroke-width: 1.42 ;&st7;  " d=" M  1109.06,   341.16  L  1113.31,   345.41  L  1117.56,   341.16  " /></g><g ewd:code="AI2" ewd:figID="43" ewd:comment="4" ewd:figtype="w2w"><text style="&st18;" transform="matrix(&st16;  1201.88  356.45 )">9</text><g ewd:code="" ewd:figID="125" ewd:comment="4" ewd:figtype="commref"><text style="&st18;" transform="matrix(&st16;  1224.33  356.45 )">(*4)</text></g></g><g ewd:code="AI2" ewd:figID="44" ewd:comment="2" ewd:figtype="w2w"><text style="&st18;" transform="matrix(&st16;  1198.54  347.95 )">10</text><g ewd:code="" ewd:figID="127" ewd:comment="2" ewd:figtype="commref"><text style="&st18;" transform="matrix(&st16;  1224.33  347.95 )">(*2)</text></g></g><g ewd:figtype="w2w" ewd:figID="45" ewd:code="AI7"><text style="&st18;" transform="matrix(&st16;  1201.88  339.45 )">3</text><path style="stroke-width: 1.42 ;&st7;  " d=" M  1211.05,   324.16  L  1215.30,   328.41  L  1219.55,   324.16  " /><path style="stroke-width: 1.42 ;&st7;  " d=" M  1219.55,   327.56  L  1215.30,   331.81  L  1211.05,   327.56  " /><g ewd:code="" ewd:figID="126" ewd:comment="" ewd:figtype="commref"><text style="&st18;" transform="matrix(&st16;  1224.33  339.45 )">(LHD)</text></g></g><g ewd:figtype="w2w" ewd:figID="46" ewd:code="ST2"><text style="&st18;" transform="matrix(&st16;  1346.35  347.95 )">6</text><path style="stroke-width: 1.42 ;&st7;  " d=" M  1364.02,   355.89  L  1359.77,   351.64  L  1355.52,   355.89  " /><path style="stroke-width: 1.42 ;&st7;  " d=" M  1364.02,   359.29  L  1359.77,   355.04  L  1355.52,   359.29  " /></g><g ewd:figtype="w2w" ewd:figID="47" ewd:code="ST2"><text style="&st18;" transform="matrix(&st16;  1470.5  347.95 )">10</text><path style="stroke-width: 1.42 ;&st7;  " d=" M  1491.50,   355.89  L  1487.25,   351.64  L  1483.00,   355.89  " /><path style="stroke-width: 1.42 ;&st7;  " d=" M  1491.50,   359.29  L  1487.25,   355.04  L  1483.00,   359.29  " /></g><g ewd:figtype="gp" ewd:figID="58" ewd:code="AA"><path style="stroke-width: 0.85 ;&st7;  " d=" M  1111.90,   710.00  L  1114.73,   710.00  " /><path style="stroke-width: 0.85 ;&st7;  " d=" M  1110.48,   707.17  L  1116.15,   707.17  " /><path style="stroke-width: 0.85 ;&st7;  " d=" M  1109.06,   704.33  L  1117.56,   704.33  " /><path style="stroke-width: 0.85 ;&st7;  " d=" M  1104.81,   701.50  L  1121.81,   701.50  " /><path style="stroke-width: 0.85 ;&st7;  " d=" M  1113.31,   697.25  L  1113.31,   701.50  " /></g><g ewd:figtype="gp" ewd:figID="59" ewd:code="TB"><path style="stroke-width: 0.85 ;&st7;  " d=" M  1359.77,   697.25  L  1359.77,   701.50  " /><path style="stroke-width: 0.85 ;&st7;  " d=" M  1351.27,   701.50  L  1368.27,   701.50  " /><path style="stroke-width: 0.85 ;&st7;  " d=" M  1355.52,   704.33  L  1364.02,   704.33  " /><path style="stroke-width: 0.85 ;&st7;  " d=" M  1356.94,   707.17  L  1362.61,   707.17  " /><path style="stroke-width: 0.85 ;&st7;  " d=" M  1358.36,   710.00  L  1361.19,   710.00  " /></g><g ewd:figtype="gp" ewd:figID="60" ewd:code="TC"><path style="stroke-width: 0.85 ;&st7;  " d=" M  1487.25,   697.25  L  1487.25,   701.50  " /><path style="stroke-width: 0.85 ;&st7;  " d=" M  1478.75,   701.50  L  1495.75,   701.50  " /><path style="stroke-width: 0.85 ;&st7;  " d=" M  1483.00,   704.33  L  1491.50,   704.33  " /><path style="stroke-width: 0.85 ;&st7;  " d=" M  1484.42,   707.17  L  1490.08,   707.17  " /><path style="stroke-width: 0.85 ;&st7;  " d=" M  1485.83,   710.00  L  1488.67,   710.00  "/></g><g ewd:code="17" ewd:figID="90" ewd:comment="" ewd:figtype="comment"><text style="&st18;" transform="matrix(&st16;  1347.87  71.74 )" ewd:textID="8">*17 :w/ Side Turn Signal Light</text></g><g ewd:code="30" ewd:figID="154" ewd:comment="" ewd:figtype="comment"><text style="&st18;" transform="matrix(&st16;  1347.87  97.24 )" ewd:textID="16">*30 :Before Jul. 2021 Production</text></g><g ewd:code="33" ewd:figID="160" ewd:comment="" ewd:figtype="comment"><text style="&st18;" transform="matrix(&st16;  1347.87  122.73 )" ewd:textID="19">*33 :Except Large Type</text></g><g ewd:code="10" ewd:figID="114" ewd:comment="" ewd:figtype="comment"><text style="&st18;" transform="matrix(&st16;  1169.4  131.23 )" ewd:textID="3">*10 :w/ Trailer Socket</text></g><g ewd:code="6" ewd:figID="111" ewd:comment="" ewd:figtype="comment"><text style="&st18;" transform="matrix(&st16;  1169.4  105.74 )">* 6 :LHD 1HZ</text></g><g ewd:code="35" ewd:figID="158" ewd:comment="" ewd:figtype="comment"><text style="&st18;" transform="matrix(&st16;  1347.87  139.73 )" ewd:textID="21">*35 :From Sep. 2022 Production</text></g><g ewd:code="23" ewd:figID="144" ewd:comment="" ewd:figtype="comment"><text style="&st18;" transform="matrix(&st16;  1347.87  88.74 )">*23 :LHD 1VD-FTV</text></g><g ewd:code="1" ewd:figID="110" ewd:comment="" ewd:figtype="comment"><text style="&st18;" transform="matrix(&st16;  1169.4  71.74 )">* 1 :LHD 1GR-FE</text></g><g ewd:code="31" ewd:figID="153" ewd:comment="" ewd:figtype="comment"><text style="&st18;" transform="matrix(&st16;  1347.87  105.74 )" ewd:textID="17">*31 :From Jul. 2021 Production</text></g><g ewd:code="34" ewd:figID="155" ewd:comment="" ewd:figtype="comment"><text style="&st18;" transform="matrix(&st16;  1347.87  131.23 )" ewd:textID="20">*34 :Before Sep. 2022 Production</text></g><g ewd:code="11" ewd:figID="163" ewd:comment="" ewd:figtype="comment"><text style="&st18;" transform="matrix(&st16;  1169.4  139.73 )">*11 :1VD-FTV, RHD 1HZ</text></g><g ewd:code="2" ewd:figID="164" ewd:comment="" ewd:figtype="comment"><text style="&st18;" transform="matrix(&st16;  1169.4  80.24 )">* 2 :RHD 1GR-FE</text></g><g ewd:code="12" ewd:figID="115" ewd:comment="" ewd:figtype="comment"><text style="&st18;" transform="matrix(&st16;  1169.4  148.23 )" ewd:textID="4">*12 :Algeria, Australia</text></g><g ewd:code="8" ewd:figID="112" ewd:comment="" ewd:figtype="comment"><text style="&st18;" transform="matrix(&st16;  1169.4  114.24 )" ewd:textID="1">* 8 :Pick-Up Body Type</text></g><g ewd:code="9" ewd:figID="113" ewd:comment="" ewd:figtype="comment"><text style="&st18;" transform="matrix(&st16;  1169.4  122.73 )" ewd:textID="2">* 9 :Except Pick-Up Body Type</text></g><g ewd:code="13" ewd:figID="116" ewd:comment="12" ewd:figtype="comment"><text style="&st18;" transform="matrix(&st16;  1169.4  156.73 )" ewd:textID="5">*13 :Except *12</text></g><g ewd:code="18" ewd:figID="89" ewd:comment="" ewd:figtype="comment"><text style="&st18;" transform="matrix(&st16;  1347.87  80.24 )" ewd:textID="9">*18 :w/o Trailer Socket</text></g><g ewd:code="32" ewd:figID="159" ewd:comment="" ewd:figtype="comment"><text style="&st18;" transform="matrix(&st16;  1347.87  114.24 )" ewd:textID="18">*32 :Large Type</text></g><g ewd:code="3" ewd:figID="162" ewd:comment="" ewd:figtype="comment"><text style="&st18;" transform="matrix(&st16;  1169.4  88.74 )">* 3 :1GR-FE</text></g><g ewd:code="4" ewd:figID="161" ewd:comment="" ewd:figtype="comment"><text style="&st18;" transform="matrix(&st16;  1169.4  97.24 )">* 4 :RHD 1VD-FTV</text></g></svg>
