<?xml version="1.0" encoding="utf-8"?>
<!DOCTYPE svg PUBLIC "-//W3C//DTD SVG 1.0//EN" "http://www.w3.org/TR/2001/REC-SVG-20010904/DTD/svg10.dtd"[
	<!ENTITY ns_flows "http://ns.adobe.com/Flows/1.0/">
	<!ENTITY ns_svg "http://www.w3.org/2000/svg">
	<!ENTITY ns_xlink "http://www.w3.org/1999/xlink">
	<!ENTITY st0 "font-size:7px;font-family:'MS-PGothic';adobe-font-script:japanese;">
	<!ENTITY st1 "font-size:6px;font-family:'ArialMT';">
	<!-- White fill  -->
	<!ENTITY st2 "fill:#FFFFFF;stroke:#000000; stroke-width:1.41;stroke-linecap:round;stroke-linejoin:round;">
	<!-- Yellow fill  -->
	<!ENTITY st3 "fill:#FFFFCC;stroke:#FFFFCC; stroke-width:0.1;stroke-linecap:round;stroke-linejoin:round;">
	<!-- Gray fill  -->
	<!ENTITY st4 "fill:#CCCCCC;stroke:#CCCCCC; stroke-width:0.1;stroke-linecap:round;stroke-linejoin:round;">
	<!-- Light-blue fill -->
	<!ENTITY st5 "fill:#CCECF4;stroke:#000000; stroke-width:1.133;stroke-linecap:round;stroke-linejoin:round;">
	<!ENTITY st6 "fill:none;stroke-linecap:butt; stroke-linejoin:round;">
	<!ENTITY st7 "fill:none;stroke:#000000;stroke-linecap:round;stroke-linejoin:round;">
	<!ENTITY st8 "enable-background:new    ;">
	<!-- Black fill -->
	<!ENTITY st9 "fill:#000000;stroke:#000000; stroke-linecap:round;stroke-linejoin:round;">
	<!-- SRS note   -->
	<!ENTITY st10 "font-size:9px;font-family:'ArialMT';">
	<!ENTITY st11 "font-size:9px;font-family:'Svg Symbol';">
	<!ENTITY st12 "font-size:6px;font-family:'Svg Symbol';">
	<!ENTITY st13 "fill:none;stroke:#ff0000;stroke-linecap:round;stroke-linejoin:round;">
	<!-- Yellow fill  -->
	<!ENTITY st14 "fill:#FFFF00;stroke:#FFFF00; stroke-width:0.1;stroke-linecap:round;stroke-linejoin:round;">
	<!ENTITY st15 "font-size:6px;font-family:'MS-PGothic';adobe-font-script:japanese;">
	<!ENTITY st16 "1.00 0.00 0.00 1.00">
	<!ENTITY st17 "0.00 -1.00 1.00 0.00">
	<!ENTITY st18 "font-size:6px;font-family:'Arial';">
	<!ENTITY st19 "font-size:9px;font-family:'Arial';">
	<!ENTITY st20 "font-size:6px;font-family:'MS-PGothic','MS PGothic';adobe-font-script:japanese;">
	<!ENTITY st21 "font-size:7px;font-family:'MS-PGothic','MS PGothic';adobe-font-script:japanese;">
	<!ATTLIST svg
		xmlns:ewd CDATA #FIXED "http://shcl.co.jp/ewd"
		xmlns:a CDATA #FIXED "http://ns.adobe.com/AdobeSVGViewerExtensions/3.0/"
		ewd:ver CDATA #IMPLIED
	>
	<!ATTLIST a
		ewd:lineID CDATA #IMPLIED
		ewd:groupID CDATA #IMPLIED
		ewd:figtype CDATA #IMPLIED
		ewd:code CDATA #IMPLIED
		ewd:figID CDATA #IMPLIED
		ewd:pinNo CDATA #IMPLIED
		ewd:comment CDATA #IMPLIED >
	<!ATTLIST g
		ewd:lineID CDATA #IMPLIED
		ewd:groupID CDATA #IMPLIED
		ewd:figtype CDATA #IMPLIED
		ewd:code CDATA #IMPLIED
		ewd:figID CDATA #IMPLIED
		ewd:pinNo CDATA #IMPLIED
		ewd:comment CDATA #IMPLIED >
	<!ATTLIST text
		ewd:textID CDATA #IMPLIED >
	<!ATTLIST title
		ewd:textID CDATA #IMPLIED >
]>
<!-- Generator: Shintec Hozumi YS   -->
<svg onload="call_execInitLoadProc_svg('system')" style="overflow:visible;  enable-background:new 0 0 2065.680 710.000" viewBox="0 0 2065.680 710.000" height="710.000" width="2065.680" xml:space="preserve" ewd:ver="2.3.1.16" xmlns="&ns_svg;" xmlns:a="http://ns.adobe.com/AdobeSVGViewerExtensions/3.0/" xmlns:ewd="http://shcl.co.jp/ewd" xmlns:xlink="&ns_xlink;">
<text style="&st18;" transform="matrix(&st17;  322.08  493.49 )">(*24,*29)</text><text style="&st18;" transform="matrix(&st17;  310.75  485.89 )">BR</text><text style="&st18;" transform="matrix(&st17;  322.08  630.99 )">(*5)</text><text style="&st18;" transform="matrix(&st17;  310.75  422.15 )">BR</text><text style="&st18;" transform="matrix(&st17;  322.08  580.0 )">(*5)</text><text style="&st18;" transform="matrix(&st17;  310.75  579.38 )">BR</text><text style="&st18;" transform="matrix(&st17;  322.08  673.48 )">(*5)</text><text style="&st18;" transform="matrix(&st17;  310.75  672.86 )">BR</text><text style="&st18;" transform="matrix(&st17;  407.07  673.48 )">(*3)</text><text style="&st18;" transform="matrix(&st17;  395.74  672.86 )">BR</text><text style="&st18;" transform="matrix(&st17;  407.07  550.25 )">(*1)</text><text style="&st18;" transform="matrix(&st17;  395.74  549.63 )">BR</text><text style="&st18;" transform="matrix(&st17;  449.56  550.25 )">(*2)</text><text style="&st18;" transform="matrix(&st17;  438.23  549.63 )">BR</text><text style="&st18;" transform="matrix(&st17;  449.56  490.76 )">(*2)</text><text style="&st18;" transform="matrix(&st17;  438.23  490.14 )">BR</text><text style="&st18;" transform="matrix(&st17;  310.75  362.66 )">BR</text><text style="&st18;" transform="matrix(&st17;  310.75  630.37 )">BR</text><text style="&st18;" transform="matrix(&st17;  271.09  632.66 )">(*24)</text><text style="&st18;" transform="matrix(&st17;  259.76  579.38 )">BR</text><text style="&st18;" transform="matrix(&st17;  271.09  581.66 )">(*24)</text><text style="&st18;" transform="matrix(&st17;  395.74  630.37 )">BR</text><text style="&st18;" transform="matrix(&st17;  407.07  630.99 )">(*3)</text><text style="&st18;" transform="matrix(&st17;  259.76  630.37 )">BR</text><text style="&st18;" transform="matrix(&st17;  106.79  653.4 )">W-B</text><text style="&st18;" transform="matrix(&st17;  149.28  581.16 )">W-B</text><text style="&st18;" transform="matrix(&st17;  149.28  653.4 )">W-B</text><text style="&st18;" transform="matrix(&st17;  115.28  329.72 )">G-Y</text><text style="&st18;" transform="matrix(&st17;  183.27  329.79 )">G-B</text><text style="&st18;" transform="matrix(&st17;  149.28  521.67 )">W-B</text><path style="stroke-width: 1.42 ;&st7;  " d=" M   407.93,   605.18  L   399.43,   605.18  " /><path style="stroke-width: 1.42 ;&st7;  " d=" M   254.96,   596.69  L   263.46,   596.69  " /><path style="stroke-width: 1.42 ;&st7;  " d=" M   322.95,   605.18  L   314.45,   605.18  " /><path style="stroke-width: 1.42 ;&st7;  " d=" M   305.95,   375.72  L   314.45,   375.72  " /><path style="stroke-width: 1.42 ;&st7;  " d=" M   317.97,   460.71  L   322.95,   455.74  " /><path style="stroke-width: 1.42 ;&st7;  " d=" M   305.95,   455.74  L   310.92,   460.71  " /><path style="stroke-width: 1.42 ;&st7;  " d=" M   322.95,   448.68  L   317.97,   443.71  " /><path style="stroke-width: 1.42 ;&st7;  " d=" M   161.47,   542.17  L   156.50,   537.20  " /><path style="stroke-width: 1.42 ;&st7;  " d=" M   144.48,   549.22  L   149.44,   554.19  " /><path style="stroke-width: 1.42 ;&st7;  " d=" M   156.50,   554.19  L   161.47,   549.22  " /><path style="stroke-width: 1.42 ;&st7;  " d=" M   149.44,   537.20  L   144.48,   542.17  " /><path style="stroke-width: 1.42 ;&st7;  " d=" M   310.92,   443.71  L   305.95,   448.68  " /><path style="stroke-width: 1.42 ;&st7;  " d=" M   433.43,   511.70  L   441.93,   511.70  " /><path style="stroke-width: 1.42 ;&st7;  " d=" M   395.90,   639.18  L   390.93,   644.15  " /><path style="stroke-width: 1.42 ;&st7;  " d=" M   402.96,   656.18  L   407.93,   651.21  " /><path style="stroke-width: 1.42 ;&st7;  " d=" M   390.93,   651.21  L   395.90,   656.18  " /><path style="stroke-width: 1.42 ;&st7;  " d=" M   407.93,   644.15  L   402.96,   639.18  " /><path style="stroke-width: 1.42 ;&st7;  " d=" M   322.95,   644.15  L   317.97,   639.18  " /><path style="stroke-width: 1.42 ;&st7;  " d=" M   305.95,   651.21  L   310.92,   656.18  " /><path style="stroke-width: 1.42 ;&st7;  " d=" M   317.97,   656.18  L   322.95,   651.21  " /><path style="stroke-width: 1.42 ;&st7;  " d=" M   310.92,   639.18  L   305.95,   644.15  " /><path style="stroke-width: 1.42 ;&st7;  " d=" M   305.95,   511.70  L   314.45,   511.70  " /><text style="&st18;" transform="matrix(&st17;  296.59  463.18 )">(*26 *6 *27)</text><text style="&st18;" transform="matrix(&st17;  285.26  451.9 )">BR</text><text style="&st18;" transform="matrix(&st17;  322.09  433.44 )">(*3,*24,*29)</text><text style="&st18;" transform="matrix(&st17;  194.61  330.96 )">(*30)</text><text style="&st18;" transform="matrix(&st17;  126.62  330.96 )">(*30)</text><text style="&st18;" transform="matrix(&st17;  89.79  326.81 )">G</text><text style="&st18;" transform="matrix(&st17;  157.78  327.43 )">W</text><text style="&st18;" transform="matrix(&st17;  169.11  330.96 )">(*31)</text><text style="&st18;" transform="matrix(&st17;  101.12  330.96 )">(*31)</text><g ewd:figtype="conn" ewd:figID="6" ewd:code="L53"><path style="stroke-width: 0.85 ;&st7;  " d=" M   151.78,   612.68  L   151.51,   613.15  L   151.42,   613.68  L   151.51,   614.22  L   151.78,   614.69  L   152.20,   615.03  L   152.70,   615.22  L   153.25,   615.22  L   153.75,   615.03  L   154.17,   614.69  L   154.44,   614.22  L   154.53,   613.68  L   154.44,   613.15  L   154.17,   612.68  L   153.75,   612.33  L   153.25,   612.15  L   152.70,   612.15  L   152.20,   612.33  L   151.78,   612.68  L   152.18,   613.39  L   152.18,   613.97  L   152.55,   614.42  L   153.12,   614.52  L   153.63,   614.23  L   153.82,   613.68  L   153.63,   613.14  L   153.12,   612.85  L   152.55,   612.95  L   152.97,   613.68  " /><path style="stroke-width: 0.85 ;&st7;  " d=" M   144.48,   613.68  L   152.97,   613.68  " /><path style="stroke-width: 0.85 ;&st7;  " d=" M   152.97,   605.18  L   152.97,   622.18  " /><path style="stroke-width: 1.42 ;&st7;  " d=" M   144.48,   605.18  L   161.47,   605.18  L   161.47,   622.18  L   144.48,   622.18  L   144.48,   605.18  " /><text style="&st18;" transform="matrix(&st16;  138.14  609.99 )">5</text><text style="&st18;" transform="matrix(&st16;  146.64  630.37 )">4</text><text style="&st18;" transform="matrix(&st16;  143.3  601.49 )">13</text><g ewd:figtype="title"><text style="&st18;" transform="matrix(&st17;  176.19  625.09 )" ewd:textID="33">No. 31 Junction <tspan x="0 " dy="6.0">Connector</tspan></text><text style="&st18;" transform="matrix(&st17;  169.37  625.08 )">L53</text></g></g><g ewd:figtype="conn" ewd:figID="10" ewd:code="L24"><path style="stroke-width: 0.85 ;&st7; stroke-dasharray:3, 1.5;" d=" M   127.48,   371.19  L   169.97,   371.19  " /><path style="stroke-width: 0.85 ;&st7; stroke-dasharray:3, 1.5;" d=" M   169.97,   362.12  L   127.48,   362.12  " /><text style="&st18;" transform="matrix(&st16;  189.55  383.92 )">TL</text><text style="&st18;" transform="matrix(&st16;  183.23  403.19 )">TL</text><text style="&st18;" transform="matrix(&st16;  121.56  383.92 )">TR</text><text style="&st18;" transform="matrix(&st16;  155.56  474.02 )">EL</text><text style="&st18;" transform="matrix(&st17;  65.71  442.21 )" ewd:textID="41">Turn Switch</text><text style="&st18;" transform="matrix(&st16;  84.64  454.18 )">RH</text><text style="&st18;" transform="matrix(&st16;  86.81  437.18 )">N</text><text style="&st18;" transform="matrix(&st16;  85.19  420.18 )">LH</text><text style="&st18;" transform="matrix(&st16;  114.7  403.19 )">TR</text><text style="&st18;" transform="matrix(&st16;  149.08  403.19 )">EL</text><path style="stroke-width: 0.85 ;&st7;  " d=" M   186.97,   392.72  L   186.97,   375.72  " /><path style="stroke-width: 0.85 ;&st7;  " d=" M   169.97,   392.72  L   169.97,   460.71  " /><path style="stroke-width: 1.42 ;&st7;  " d=" M    50.99,   392.72  L    50.99,   460.71  L   203.97,   460.71  L   203.97,   392.72  L    50.99,   392.72  " /><path style="stroke-width: 0.85 ;&st7;  " d=" M    76.49,   409.72  L   203.97,   409.72  " /><path style="stroke-width: 0.85 ;&st7;  " d=" M    76.49,   426.71  L   203.97,   426.71  " /><path style="stroke-width: 0.85 ;&st7;  " d=" M    76.49,   443.71  L   203.97,   443.71  " /><path style="stroke-width: 0.85 ;&st7;  " d=" M   135.98,   392.72  L   135.98,   460.71  " /><path style="stroke-width: 0.85 ;&st7;  " d=" M   101.98,   392.72  L   101.98,   460.71  " /><path style="stroke-width: 0.85 ;&st7;  " d=" M    76.49,   392.72  L    76.49,   460.71  " /><path style="stroke-width: 0.85 ;&st7;  " d=" M   154.39,   418.22  L   185.55,   418.22  " /><path style="stroke-width: 0.85 ;&st7;  " d=" M   152.97,   460.71  L   152.97,   477.71  " /><path style="stroke-width: 0.85 ;&st7;  " d=" M   118.98,   392.72  L   118.98,   375.72  " /><path style="stroke-width: 1.42 ;&st7;  " d=" M    33.99,   477.71  L   220.96,   477.71  L   220.96,   375.72  L    33.99,   375.72  L    33.99,   477.71  " /><path style="stroke-width: 0.85 ;&st7;  " d=" M   120.40,   452.21  L   151.56,   452.21  " /><path style="stroke-width: 0.85 ;&st7;   " d=" M   120.40,   452.21  C   120.40    451.43    119.76    450.79    118.98    450.79  " /><path style="stroke-width: 0.85 ;&st7;   " d=" M   118.98,   450.79  C   118.20    450.79    117.56    451.43    117.56    452.21  " /><path style="stroke-width: 0.85 ;&st7;   " d=" M   117.56,   452.21  C   117.56    452.99    118.20    453.63    118.98    453.63  " /><path style="stroke-width: 0.85 ;&st7;   " d=" M   118.98,   453.63  C   119.76    453.63    120.40    452.99    120.40    452.21  " /><path style="stroke-width: 0.85 ;&st7;   " d=" M   154.39,   452.21  C   154.39    451.43    153.76    450.79    152.97    450.79  " /><path style="stroke-width: 0.85 ;&st7;   " d=" M   152.97,   450.79  C   152.19    450.79    151.56    451.43    151.56    452.21  " /><path style="stroke-width: 0.85 ;&st7;   " d=" M   151.56,   452.21  C   151.56    452.99    152.19    453.63    152.97    453.63  " /><path style="stroke-width: 0.85 ;&st7;   " d=" M   152.97,   453.63  C   153.76    453.63    154.39    452.99    154.39    452.21  " /><path style="stroke-width: 0.85 ;&st7;   " d=" M   154.39,   418.22  C   154.39    417.43    153.76    416.80    152.97    416.80  " /><path style="stroke-width: 0.85 ;&st7;   " d=" M   152.97,   416.80  C   152.19    416.80    151.56    417.43    151.56    418.22  " /><path style="stroke-width: 0.85 ;&st7;   " d=" M   151.56,   418.22  C   151.56    419.00    152.19    419.63    152.97    419.63  " /><path style="stroke-width: 0.85 ;&st7;   " d=" M   152.97,   419.63  C   153.76    419.63    154.39    419.00    154.39    418.22  " /><path style="stroke-width: 0.85 ;&st7;   " d=" M   188.39,   418.22  C   188.39    417.43    187.75    416.80    186.97    416.80  " /><path style="stroke-width: 0.85 ;&st7;   " d=" M   186.97,   416.80  C   186.19    416.80    185.55    417.43    185.55    418.22  " /><path style="stroke-width: 0.85 ;&st7;   " d=" M   185.55,   418.22  C   185.55    419.00    186.19    419.63    186.97    419.63  " /><path style="stroke-width: 0.85 ;&st7;   " d=" M   186.97,   419.63  C   187.75    419.63    188.39    419.00    188.39    418.22  " /><text style="&st18;" transform="matrix(&st16;  106.17  364.09 )">13</text><text style="&st18;" transform="matrix(&st16;  106.17  373.16 )">16</text><text style="&st18;" transform="matrix(&st16;  116.56  364.09 )">C</text><path style="stroke-width: 1.42 ;&st7;   " d=" M   123.51,   371.19  C   123.51    368.69    121.48    366.66    118.98    366.66  " /><path style="stroke-width: 1.42 ;&st7;   " d=" M   118.98,   366.66  C   116.48    366.66    114.45    368.69    114.45    371.19  " /><path style="stroke-width: 1.42 ;&st7;   " d=" M   114.45,   371.19  C   114.45    373.69    116.48    375.72    118.98    375.72  " /><path style="stroke-width: 1.42 ;&st7;   " d=" M   118.98,   375.72  C   121.48    375.72    123.51    373.69    123.51    371.19  " /><path style="stroke-width: 1.42 ;&st7;   " d=" M   123.51,   362.12  C   123.51    359.62    121.48    357.59    118.98    357.59  " /><path style="stroke-width: 1.42 ;&st7;   " d=" M   118.98,   357.59  C   116.48    357.59    114.45    359.62    114.45    362.12  " /><path style="stroke-width: 1.42 ;&st7;   " d=" M   114.45,   362.12  C   114.45    364.63    116.48    366.66    118.98    366.66  " /><path style="stroke-width: 1.42 ;&st7;   " d=" M   118.98,   366.66  C   121.48    366.66    123.51    364.63    123.51    362.12  " /><text style="&st18;" transform="matrix(&st16;  116.56  373.16 )">D</text><text style="&st18;" transform="matrix(&st16;  140.16  484.21 )">12</text><text style="&st18;" transform="matrix(&st16;  140.16  493.27 )">19</text><text style="&st18;" transform="matrix(&st16;  150.55  484.21 )">C</text><path style="stroke-width: 1.42 ;&st7;   " d=" M   157.51,   482.24  C   157.51    479.73    155.48    477.71    152.97    477.71  " /><path style="stroke-width: 1.42 ;&st7;   " d=" M   152.97,   477.71  C   150.47    477.71    148.44    479.73    148.44    482.24  " /><path style="stroke-width: 1.42 ;&st7;   " d=" M   148.44,   482.24  C   148.44    484.74    150.47    486.77    152.97    486.77  " /><path style="stroke-width: 1.42 ;&st7;   " d=" M   152.97,   486.77  C   155.48    486.77    157.51    484.74    157.51    482.24  " /><path style="stroke-width: 1.42 ;&st7;   " d=" M   157.51,   491.30  C   157.51    488.80    155.48    486.77    152.97    486.77  " /><path style="stroke-width: 1.42 ;&st7;   " d=" M   152.97,   486.77  C   150.47    486.77    148.44    488.80    148.44    491.30  " /><path style="stroke-width: 1.42 ;&st7;   " d=" M   148.44,   491.30  C   148.44    493.81    150.47    495.84    152.97    495.84  " /><path style="stroke-width: 1.42 ;&st7;   " d=" M   152.97,   495.84  C   155.48    495.84    157.51    493.81    157.51    491.30  " /><text style="&st18;" transform="matrix(&st16;  150.55  493.27 )">D</text><text style="&st18;" transform="matrix(&st16;  174.15  364.09 )">15</text><text style="&st18;" transform="matrix(&st16;  174.15  373.16 )">18</text><path style="stroke-width: 1.42 ;&st7;   " d=" M   191.50,   371.19  C   191.50    368.69    189.47    366.66    186.97    366.66  " /><path style="stroke-width: 1.42 ;&st7;   " d=" M   186.97,   366.66  C   184.47    366.66    182.44    368.69    182.44    371.19  " /><path style="stroke-width: 1.42 ;&st7;   " d=" M   182.44,   371.19  C   182.44    373.69    184.47    375.72    186.97    375.72  " /><path style="stroke-width: 1.42 ;&st7;   " d=" M   186.97,   375.72  C   189.47    375.72    191.50    373.69    191.50    371.19  " /><path style="stroke-width: 1.42 ;&st7;   " d=" M   191.50,   362.12  C   191.50    359.62    189.47    357.59    186.97    357.59  " /><path style="stroke-width: 1.42 ;&st7;   " d=" M   186.97,   357.59  C   184.47    357.59    182.44    359.62    182.44    362.12  " /><path style="stroke-width: 1.42 ;&st7;   " d=" M   182.44,   362.12  C   182.44    364.63    184.47    366.66    186.97    366.66  " /><path style="stroke-width: 1.42 ;&st7;   " d=" M   186.97,   366.66  C   189.47    366.66    191.50    364.63    191.50    362.12  " /><text style="&st18;" transform="matrix(&st16;  184.55  373.16 )">D</text><text style="&st18;" transform="matrix(&st16;  184.55  364.09 )">C</text><g ewd:figtype="title"><text style="&st18;" transform="matrix(&st17;  228.86  480.6 )">L24(C),(D)</text><text style="&st18;" transform="matrix(&st17;  235.68  480.61 )" ewd:textID="27">Headlight Dimmer Switch Assembly</text></g><g ewd:code="" ewd:figID="135" ewd:comment="" ewd:figtype="commref"><text style="&st18;" transform="matrix(&st16;  158.07  484.21 )">(LHD)</text></g><g ewd:code="" ewd:figID="136" ewd:comment="" ewd:figtype="commref"><text style="&st18;" transform="matrix(&st16;  158.07  493.27 )">(RHD)</text></g><g ewd:code="" ewd:figID="137" ewd:comment="" ewd:figtype="commref"><text style="&st18;" transform="matrix(&st16;  192.06  364.09 )">(LHD)</text></g><g ewd:code="" ewd:figID="138" ewd:comment="" ewd:figtype="commref"><text style="&st18;" transform="matrix(&st16;  192.06  373.16 )">(RHD)</text></g></g><g ewd:figtype="conn" ewd:figID="16" ewd:code="L25,L26,L50"><text style="&st18;" transform="matrix(&st16;  716.46  338.04 )">HZSW</text><text style="&st18;" transform="matrix(&st16;  283.04  222.44 )">B</text><text style="&st18;" transform="matrix(&st16;  334.03  222.44 )">B</text><text style="&st18;" transform="matrix(&st16;  716.46  222.44 )">B</text><text style="&st18;" transform="matrix(&st16;  775.95  222.44 )">LR</text><text style="&st18;" transform="matrix(&st16;  809.95  222.44 )">LL</text><text style="&st18;" transform="matrix(&st16;  316.34  267.21 )">CPU</text><text style="&st18;" transform="matrix(&st16;  302.25  241.71 )">I/F</text><text style="&st18;" transform="matrix(&st17;  833.7  289.06 )" ewd:textID="40">Turn RH</text><text style="&st18;" transform="matrix(&st16;  710.18  292.71 )">I/F</text><text style="&st18;" transform="matrix(&st17;  799.7  288.56 )" ewd:textID="39">Turn LH</text><text style="&st18;" transform="matrix(&st16;  703.67  264.38 )" ewd:textID="23">Flasher <tspan x="0 " dy="6.0">Circuit</tspan></text><text style="&st18;" transform="matrix(&st16;  310.17  338.03 )">ES</text><path style="stroke-width: 0.85 ;&st7;  " d=" M   662.89,   290.74  L   679.89,   290.74  " /><path style="stroke-width: 0.85 ;&st7;  " d=" M   712.69,   332.23  L   712.42,   332.70  L   712.32,   333.23  L   712.42,   333.76  L   712.69,   334.23  L   713.10,   334.58  L   713.61,   334.77  L   714.15,   334.77  L   714.66,   334.58  L   715.07,   334.23  L   715.35,   333.76  L   715.44,   333.23  L   715.35,   332.70  L   715.07,   332.23  L   714.66,   331.88  L   714.15,   331.69  L   713.61,   331.69  L   713.10,   331.88  L   712.69,   332.23  L   713.08,   332.94  L   713.08,   333.52  L   713.46,   333.97  L   714.03,   334.07  L   714.53,   333.78  L   714.73,   333.23  L   714.53,   332.68  L   714.03,   332.39  L   713.46,   332.49  L   713.88,   333.23  " /><path style="stroke-width: 0.85 ;&st7;  " d=" M   713.88,   333.23  L   671.39,   333.23  L   671.39,   324.73  L   668.55,   323.31  L   674.22,   320.48  L   668.55,   317.65  L   674.22,   314.82  L   668.55,   311.98  L   674.22,   309.15  L   671.39,   307.73  L   671.39,   293.57  " /><path style="stroke-width: 0.85 ;&st7;  " d=" M   713.88,   299.24  L   713.88,   307.73  L   716.71,   309.15  L   711.05,   311.98  L   716.71,   314.82  L   711.05,   317.65  L   716.71,   320.48  L   711.05,   323.31  L   713.88,   324.73  L   713.88,   341.73  " /><path style="stroke-width: 0.85 ;&st7;  " d=" M   806.17,   298.23  L   805.90,   298.70  L   805.81,   299.24  L   805.90,   299.77  L   806.17,   300.24  L   806.59,   300.58  L   807.09,   300.77  L   807.64,   300.77  L   808.14,   300.58  L   808.56,   300.24  L   808.83,   299.77  L   808.92,   299.24  L   808.83,   298.70  L   808.56,   298.23  L   808.14,   297.89  L   807.64,   297.70  L   807.09,   297.70  L   806.59,   297.89  L   806.17,   298.23  L   806.57,   298.94  L   806.57,   299.53  L   806.94,   299.97  L   807.51,   300.07  L   808.02,   299.78  L   808.21,   299.24  L   808.02,   298.69  L   807.51,   298.40  L   806.94,   298.50  L   807.36,   299.24  " /><path style="stroke-width: 0.85 ;&st7;  " d=" M   772.18,   230.24  L   771.91,   230.71  L   771.81,   231.25  L   771.91,   231.78  L   772.18,   232.25  L   772.59,   232.60  L   773.10,   232.78  L   773.64,   232.78  L   774.15,   232.60  L   774.56,   232.25  L   774.84,   231.78  L   774.93,   231.25  L   774.84,   230.71  L   774.56,   230.24  L   774.15,   229.90  L   773.64,   229.71  L   773.10,   229.71  L   772.59,   229.90  L   772.18,   230.24  L   772.57,   230.96  L   772.57,   231.54  L   772.95,   231.98  L   773.52,   232.08  L   774.02,   231.79  L   774.22,   231.25  L   774.02,   230.70  L   773.52,   230.41  L   772.95,   230.51  L   773.37,   231.25  " /><path style="stroke-width: 0.85 ;&st7;  " d=" M   856.10,   276.04  L   853.76,   279.09  L   852.29,   276.54  L   856.10,   276.04  L   854.81,   276.79  L   853.83,   278.07  L   853.21,   276.99  L   854.81,   276.79  L   854.17,   277.15  L   853.86,   277.56  L   853.67,   277.22  L   854.17,   277.15  " /><path style="stroke-width: 0.85 ;&st7;  " d=" M   854.09,   272.58  L   851.76,   275.62  L   850.29,   273.07  L   854.09,   272.58  L   852.81,   273.31  L   851.82,   274.60  L   851.21,   273.52  L   852.81,   273.31  L   852.17,   273.69  L   851.86,   274.09  L   851.66,   273.75  L   852.17,   273.69  " /><path style="stroke-width: 0.28 ;&st9;  " d=" M   841.36,   282.24  L   835.69,   273.74  L   847.02,   273.74  L   841.36,   282.24  " /><path style="stroke-width: 0.85 ;&st7;  " d=" M   841.36,   273.74  L   841.36,   299.24  L   807.36,   299.24  " /><path style="stroke-width: 0.85 ;&st7;  " d=" M   331.44,   214.25  L   331.44,   231.25  " /><path style="stroke-width: 0.85 ;&st7;  " d=" M   280.45,   214.25  L   280.45,   231.25  " /><path style="stroke-width: 0.85 ;&st7;  " d=" M   331.44,   248.24  L   331.44,   256.74  " /><path style="stroke-width: 0.85 ;&st7;  " d=" M   280.45,   248.24  L   280.45,   256.74  " /><path style="stroke-width: 0.85 ;&st7;  " d=" M   841.36,   273.74  L   841.36,   265.24  L   838.53,   263.82  L   844.19,   260.99  L   838.53,   258.16  L   844.19,   255.33  L   838.53,   252.49  L   844.19,   249.66  L   841.36,   248.24  L   841.36,   239.75  " /><path style="stroke-width: 0.85 ;&st7;  " d=" M   713.88,   273.74  L   713.88,   282.24  " /><path style="stroke-width: 0.85 ;&st7;  " d=" M   382.44,   265.24  L   679.89,   265.24  " /><path style="stroke-width: 1.42 ;&st7;  " d=" M   271.95,   273.74  L   271.95,   256.74  L   382.44,   256.74  L   382.44,   273.74  L   271.95,   273.74  " /><path style="stroke-width: 1.42 ;&st7;  " d=" M   271.95,   248.24  L   271.95,   231.25  L   339.94,   231.25  L   339.94,   248.24  L   271.95,   248.24  " /><path style="stroke-width: 0.85 ;&st7;  " d=" M   822.10,   276.04  L   819.77,   279.09  L   818.30,   276.54  L   822.10,   276.04  L   820.82,   276.79  L   819.84,   278.07  L   819.21,   276.99  L   820.82,   276.79  L   820.18,   277.15  L   819.87,   277.56  L   819.67,   277.22  L   820.18,   277.15  " /><path style="stroke-width: 0.85 ;&st7;  " d=" M   820.10,   272.58  L   817.76,   275.62  L   816.30,   273.07  L   820.10,   272.58  L   818.82,   273.31  L   817.83,   274.60  L   817.21,   273.52  L   818.82,   273.31  L   818.17,   273.69  L   817.86,   274.09  L   817.67,   273.75  L   818.17,   273.69  " /><path style="stroke-width: 0.28 ;&st9;  " d=" M   807.36,   282.24  L   801.70,   273.74  L   813.03,   273.74  L   807.36,   282.24  " /><path style="stroke-width: 1.42 ;&st7;  " d=" M   696.88,   299.24  L   696.88,   282.24  L   730.88,   282.24  L   730.88,   299.24  L   696.88,   299.24  " /><path style="stroke-width: 0.85 ;&st7;  " d=" M   713.88,   214.25  L   713.88,   256.74  " /><path style="stroke-width: 0.85 ;&st7;  " d=" M   773.37,   214.25  L   773.37,   231.25  " /><path style="stroke-width: 0.85 ;&st7;  " d=" M   739.38,   256.74  L   739.38,   239.75  L   807.36,   239.75  " /><path style="stroke-width: 0.85 ;&st7;  " d=" M   730.88,   256.74  L   730.88,   231.25  L   841.36,   231.25  L   841.36,   239.75  " /><path style="stroke-width: 0.85 ;&st7;  " d=" M   807.36,   273.74  L   807.36,   316.23  " /><path style="stroke-width: 0.85 ;&st7;  " d=" M   798.87,   324.73  L   794.62,   333.23  " /><path style="stroke-width: 0.85 ;&st7;  " d=" M   815.86,   324.73  L   811.61,   333.23  " /><path style="stroke-width: 0.85 ;&st7;  " d=" M   807.36,   324.73  L   803.12,   333.23  " /><path style="stroke-width: 0.85 ;&st7;  " d=" M   798.87,   324.73  L   815.86,   324.73  " /><path style="stroke-width: 0.85 ;&st7;  " d=" M   807.36,   316.23  L   807.36,   324.73  " /><path style="stroke-width: 0.28 ;&st9;  " d=" M   807.36,   316.23  L   801.70,   307.73  L   813.03,   307.73  L   807.36,   316.23  " /><path style="stroke-width: 0.85 ;&st7;  " d=" M   807.36,   273.74  L   807.36,   265.24  L   804.53,   263.82  L   810.20,   260.99  L   804.53,   258.16  L   810.20,   255.33  L   804.53,   252.49  L   810.20,   249.66  L   807.36,   248.24  L   807.36,   239.75  " /><path style="stroke-width: 0.85 ;&st7;  " d=" M   807.36,   239.75  L   807.36,   214.25  " /><path style="stroke-width: 1.42 ;&st7;  " d=" M   679.89,   273.74  L   679.89,   256.74  L   747.87,   256.74  L   747.87,   273.74  L   679.89,   273.74  " /><path style="stroke-width: 1.42 ;&st7;  " d=" M   246.46,   341.73  L   858.36,   341.73  L   858.36,   214.25  L   246.46,   214.25  L   246.46,   341.73  " /><path style="stroke-width: 0.85 ;&st7;  " d=" M   806.17,   238.74  L   805.90,   239.21  L   805.81,   239.75  L   805.90,   240.28  L   806.17,   240.75  L   806.59,   241.09  L   807.09,   241.28  L   807.64,   241.28  L   808.14,   241.09  L   808.56,   240.75  L   808.83,   240.28  L   808.92,   239.75  L   808.83,   239.21  L   808.56,   238.74  L   808.14,   238.40  L   807.64,   238.21  L   807.09,   238.21  L   806.59,   238.40  L   806.17,   238.74  L   806.57,   239.45  L   806.57,   240.04  L   806.94,   240.48  L   807.51,   240.58  L   808.02,   240.29  L   808.21,   239.75  L   808.02,   239.20  L   807.51,   238.91  L   806.94,   239.01  L   807.36,   239.75  " /><path style="stroke-width: 0.85 ;&st7;   " d=" M   674.22,   290.74  C   674.22    289.17    672.95    287.90    671.39    287.90  " /><path style="stroke-width: 0.85 ;&st7;   " d=" M   671.39,   287.90  C   669.82    287.90    668.55    289.17    668.55    290.74  " /><path style="stroke-width: 0.85 ;&st7;   " d=" M   668.55,   290.74  C   668.55    292.30    669.82    293.57    671.39    293.57  " /><path style="stroke-width: 0.85 ;&st7;   " d=" M   671.39,   293.57  C   672.95    293.57    674.22    292.30    674.22    290.74  " /><path style="stroke-width: 0.85 ;&st7;  " d=" M   848.74,   280.29  L   856.10,   276.04  " /><path style="stroke-width: 0.85 ;&st7;  " d=" M   854.09,   272.58  L   846.73,   276.82  " /><path style="stroke-width: 0.85 ;&st7;  " d=" M   845.61,   282.24  L   837.11,   282.24  " /><path style="stroke-width: 0.85 ;&st7;  " d=" M   814.74,   280.29  L   822.10,   276.04  " /><path style="stroke-width: 0.85 ;&st7;  " d=" M   820.10,   272.58  L   812.74,   276.82  " /><path style="stroke-width: 0.85 ;&st7;  " d=" M   811.61,   282.24  L   803.12,   282.24  " /><path style="stroke-width: 0.85 ;&st7;  " d=" M   811.61,   316.23  L   803.12,   316.23  " /><text style="&st18;" transform="matrix(&st16;  318.63  211.69 )">23</text><path style="stroke-width: 1.42 ;&st7;   " d=" M   335.98,   209.72  C   335.98    207.21    333.95    205.18    331.44    205.18  " /><path style="stroke-width: 1.42 ;&st7;   " d=" M   331.44,   205.18  C   328.94    205.18    326.91    207.21    326.91    209.72  " /><path style="stroke-width: 1.42 ;&st7;   " d=" M   326.91,   209.72  C   326.91    212.22    328.94    214.25    331.44    214.25  " /><path style="stroke-width: 1.42 ;&st7;   " d=" M   331.44,   214.25  C   333.95    214.25    335.98    212.22    335.98    209.72  " /><text style="&st18;" transform="matrix(&st16;  329.18  211.69 )">B</text><text style="&st18;" transform="matrix(&st16;  301.63  348.23 )">15</text><path style="stroke-width: 1.42 ;&st7;   " d=" M   318.98,   346.26  C   318.98    343.76    316.95    341.73    314.45    341.73  " /><path style="stroke-width: 1.42 ;&st7;   " d=" M   314.45,   341.73  C   311.94    341.73    309.91    343.76    309.91    346.26  " /><path style="stroke-width: 1.42 ;&st7;   " d=" M   309.91,   346.26  C   309.91    348.76    311.94    350.79    314.45    350.79  " /><path style="stroke-width: 1.42 ;&st7;   " d=" M   314.45,   350.79  C   316.95    350.79    318.98    348.76    318.98    346.26  " /><text style="&st18;" transform="matrix(&st16;  312.18  348.23 )">A</text><text style="&st18;" transform="matrix(&st16;  704.4  348.23 )">1</text><text style="&st18;" transform="matrix(&st16;  711.46  348.23 )">C</text><path style="stroke-width: 1.42 ;&st7;   " d=" M   718.41,   346.26  C   718.41    343.76    716.38    341.73    713.88    341.73  " /><path style="stroke-width: 1.42 ;&st7;   " d=" M   713.88,   341.73  C   711.38    341.73    709.35    343.76    709.35    346.26  " /><path style="stroke-width: 1.42 ;&st7;   " d=" M   709.35,   346.26  C   709.35    348.76    711.38    350.79    713.88    350.79  " /><path style="stroke-width: 1.42 ;&st7;   " d=" M   713.88,   350.79  C   716.38    350.79    718.41    348.76    718.41    346.26  " /><text style="&st18;" transform="matrix(&st16;  704.4  211.69 )">2</text><text style="&st18;" transform="matrix(&st16;  711.46  211.69 )">C</text><path style="stroke-width: 1.42 ;&st7;   " d=" M   718.41,   209.72  C   718.41    207.21    716.38    205.18    713.88    205.18  " /><path style="stroke-width: 1.42 ;&st7;   " d=" M   713.88,   205.18  C   711.38    205.18    709.35    207.21    709.35    209.72  " /><path style="stroke-width: 1.42 ;&st7;   " d=" M   709.35,   209.72  C   709.35    212.22    711.38    214.25    713.88    214.25  " /><path style="stroke-width: 1.42 ;&st7;   " d=" M   713.88,   214.25  C   716.38    214.25    718.41    212.22    718.41    209.72  " /><text style="&st18;" transform="matrix(&st16;  763.89  211.69 )">4</text><text style="&st18;" transform="matrix(&st16;  770.95  211.69 )">C</text><path style="stroke-width: 1.42 ;&st7;   " d=" M   777.90,   209.72  C   777.90    207.21    775.87    205.18    773.37    205.18  " /><path style="stroke-width: 1.42 ;&st7;   " d=" M   773.37,   205.18  C   770.87    205.18    768.84    207.21    768.84    209.72  " /><path style="stroke-width: 1.42 ;&st7;   " d=" M   768.84,   209.72  C   768.84    212.22    770.87    214.25    773.37    214.25  " /><path style="stroke-width: 1.42 ;&st7;   " d=" M   773.37,   214.25  C   775.87    214.25    777.90    212.22    777.90    209.72  " /><text style="&st18;" transform="matrix(&st16;  797.88  211.69 )">6</text><text style="&st18;" transform="matrix(&st16;  804.94  211.69 )">C</text><path style="stroke-width: 1.42 ;&st7;   " d=" M   811.90,   209.72  C   811.90    207.21    809.87    205.18    807.37    205.18  " /><path style="stroke-width: 1.42 ;&st7;   " d=" M   807.37,   205.18  C   804.86    205.18    802.83    207.21    802.83    209.72  " /><path style="stroke-width: 1.42 ;&st7;   " d=" M   802.83,   209.72  C   802.83    212.22    804.86    214.25    807.37    214.25  " /><path style="stroke-width: 1.42 ;&st7;   " d=" M   807.37,   214.25  C   809.87    214.25    811.90    212.22    811.90    209.72  " /><text style="&st18;" transform="matrix(&st16;  267.64  211.69 )">22</text><path style="stroke-width: 1.42 ;&st7;   " d=" M   284.99,   209.72  C   284.99    207.21    282.96    205.18    280.45    205.18  " /><path style="stroke-width: 1.42 ;&st7;   " d=" M   280.45,   205.18  C   277.95    205.18    275.92    207.21    275.92    209.72  " /><path style="stroke-width: 1.42 ;&st7;   " d=" M   275.92,   209.72  C   275.92    212.22    277.95    214.25    280.45    214.25  " /><path style="stroke-width: 1.42 ;&st7;   " d=" M   280.45,   214.25  C   282.96    214.25    284.99    212.22    284.99    209.72  " /><text style="&st18;" transform="matrix(&st16;  278.19  211.69 )">B</text><g ewd:figtype="title"><text style="&st18;" transform="matrix(&st16;  370.53  356.45 )" ewd:textID="22">Combination Meter Assembly</text><text style="&st18;" transform="matrix(&st16;  370.52  349.62 )">L25(A),L26(B),L50(C)</text></g></g><g ewd:figtype="w2w" ewd:figID="20" ewd:code="CA4"><text style="&st18;" transform="matrix(&st16;  246.7  602.9 )">17</text><path style="stroke-width: 1.42 ;&st7;  " d=" M   259.21,   587.62  L   263.46,   591.87  L   267.71,   587.62  " /><path style="stroke-width: 1.42 ;&st7;  " d=" M   267.71,   591.02  L   263.46,   595.27  L   259.21,   591.02  " /></g><g ewd:figtype="w2w" ewd:figID="21" ewd:code="AC1"><text style="&st18;" transform="matrix(&st16;  301.03  602.9 )">1</text><path style="stroke-width: 1.42 ;&st7;  " d=" M   318.70,   614.25  L   314.45,   610.00  L   310.20,   614.25  " /><path style="stroke-width: 1.42 ;&st7;  " d=" M   318.70,   610.85  L   314.45,   606.60  L   310.20,   610.85  " /></g><g ewd:code="AI3" ewd:figID="22" ewd:comment="23" ewd:figtype="w2w"><text style="&st18;" transform="matrix(&st16;  297.69  543.41 )">13</text><g ewd:code="" ewd:figID="145" ewd:comment="23" ewd:figtype="commref"><text style="&st18;" transform="matrix(&st16;  323.48  543.41 )">(*23)</text></g></g><g ewd:code="AI3" ewd:figID="23" ewd:comment="4" ewd:figtype="w2w"><text style="&st18;" transform="matrix(&st16;  297.69  534.92 )">55</text><g ewd:code="" ewd:figID="84" ewd:comment="4" ewd:figtype="commref"><text style="&st18;" transform="matrix(&st16;  323.48  534.92 )">(*4)</text></g></g><g ewd:code="AI3" ewd:figID="24" ewd:comment="7" ewd:figtype="w2w"><text style="&st18;" transform="matrix(&st16;  297.69  526.42 )">22</text><g ewd:code="" ewd:figID="86" ewd:comment="7" ewd:figtype="commref"><text style="&st18;" transform="matrix(&st16;  323.48  526.42 )">(*7)</text></g></g><g ewd:code="AI3" ewd:figID="25" ewd:comment="6" ewd:figtype="w2w"><text style="&st18;" transform="matrix(&st16;  297.69  517.92 )">45</text><path style="stroke-width: 1.42 ;&st7;  " d=" M   318.70,   506.03  L   314.45,   510.28  L   310.20,   506.03  " /><path style="stroke-width: 1.42 ;&st7;  " d=" M   310.20,   502.63  L   314.45,   506.88  L   318.70,   502.63  " /><g ewd:code="" ewd:figID="85" ewd:comment="6" ewd:figtype="commref"><text style="&st18;" transform="matrix(&st16;  323.48  517.92 )">(*6)</text></g></g><g ewd:figtype="w2w" ewd:figID="26" ewd:code="IL6"><text style="&st18;" transform="matrix(&st16;  297.69  390.44 )">14</text><g ewd:code="" ewd:figID="83" ewd:comment="" ewd:figtype="commref"><text style="&st18;" transform="matrix(&st16;  323.48  390.44 )">(RHD)</text></g></g><g ewd:figtype="w2w" ewd:figID="27" ewd:code="IL2"><text style="&st18;" transform="matrix(&st16;  301.03  381.94 )">4</text><path style="stroke-width: 1.42 ;&st7;  " d=" M   310.20,   366.66  L   314.45,   370.91  L   318.70,   366.66  " /><path style="stroke-width: 1.42 ;&st7;  " d=" M   318.70,   370.06  L   314.45,   374.31  L   310.20,   370.06  " /><g ewd:code="" ewd:figID="82" ewd:comment="" ewd:figtype="commref"><text style="&st18;" transform="matrix(&st16;  323.48  381.94 )">(LHD)</text></g></g><g ewd:figtype="w2w" ewd:figID="28" ewd:code="AC5"><text style="&st18;" transform="matrix(&st16;  386.02  602.9 )">9</text><path style="stroke-width: 1.42 ;&st7;  " d=" M   403.68,   614.25  L   399.43,   610.00  L   395.18,   614.25  " /><path style="stroke-width: 1.42 ;&st7;  " d=" M   403.68,   610.85  L   399.43,   606.60  L   395.18,   610.85  " /><g ewd:code="" ewd:figID="88" ewd:comment="" ewd:figtype="commref"><text style="&st18;" transform="matrix(&st16;  408.46  602.9 )">(RHD)</text></g></g><g ewd:figtype="w2w" ewd:figID="29" ewd:code="IC2"><text style="&st18;" transform="matrix(&st16;  386.02  594.41 )">9</text><g ewd:code="" ewd:figID="87" ewd:comment="" ewd:figtype="commref"><text style="&st18;" transform="matrix(&st16;  408.46  594.41 )">(LHD)</text></g></g><g ewd:figtype="w2w" ewd:figID="30" ewd:code="AI3"><text style="&st18;" transform="matrix(&st16;  425.17  517.92 )">56</text><path style="stroke-width: 1.42 ;&st7;  " d=" M   446.18,   506.03  L   441.93,   510.28  L   437.68,   506.03  " /><path style="stroke-width: 1.42 ;&st7;  " d=" M   437.68,   502.63  L   441.93,   506.88  L   446.18,   502.63  " /></g><g ewd:figtype="gp" ewd:figID="52" ewd:code="LB"><path style="stroke-width: 0.85 ;&st7;  " d=" M   109.07,   710.00  L   111.90,   710.00  " /><path style="stroke-width: 0.85 ;&st7;  " d=" M   107.65,   707.17  L   113.31,   707.17  " /><path style="stroke-width: 0.85 ;&st7;  " d=" M   106.23,   704.33  L   114.73,   704.33  " /><path style="stroke-width: 0.85 ;&st7;  " d=" M   101.98,   701.50  L   118.98,   701.50  " /><path style="stroke-width: 0.85 ;&st7;  " d=" M   110.48,   697.25  L   110.48,   701.50  " /></g><g ewd:figtype="gp" ewd:figID="53" ewd:code="LA"><path style="stroke-width: 0.85 ;&st7;  " d=" M   151.56,   710.00  L   154.39,   710.00  " /><path style="stroke-width: 0.85 ;&st7;  " d=" M   150.14,   707.17  L   155.81,   707.17  " /><path style="stroke-width: 0.85 ;&st7;  " d=" M   148.73,   704.33  L   157.22,   704.33  " /><path style="stroke-width: 0.85 ;&st7;  " d=" M   144.48,   701.50  L   161.47,   701.50  " /><path style="stroke-width: 0.85 ;&st7;  " d=" M   152.97,   697.25  L   152.97,   701.50  " /></g><g ewd:figtype="gp" ewd:figID="54" ewd:code="CE"><path style="stroke-width: 0.85 ;&st7;  " d=" M   262.04,   710.00  L   264.87,   710.00  " /><path style="stroke-width: 0.85 ;&st7;  " d=" M   260.62,   707.17  L   266.29,   707.17  " /><path style="stroke-width: 0.85 ;&st7;  " d=" M   259.21,   704.33  L   267.71,   704.33  " /><path style="stroke-width: 0.85 ;&st7;  " d=" M   254.96,   701.50  L   271.95,   701.50  " /><path style="stroke-width: 0.85 ;&st7;  " d=" M   263.46,   697.25  L   263.46,   701.50  " /></g><g ewd:figtype="gp" ewd:figID="55" ewd:code="CC"><path style="stroke-width: 0.85 ;&st7;  " d=" M   313.03,   710.00  L   315.86,   710.00  " /><path style="stroke-width: 0.85 ;&st7;  " d=" M   311.61,   707.17  L   317.28,   707.17  " /><path style="stroke-width: 0.85 ;&st7;  " d=" M   310.20,   704.33  L   318.70,   704.33  " /><path style="stroke-width: 0.85 ;&st7;  " d=" M   305.95,   701.50  L   322.95,   701.50  " /><path style="stroke-width: 0.85 ;&st7;  " d=" M   314.45,   697.25  L   314.45,   701.50  " /></g><g ewd:figtype="gp" ewd:figID="56" ewd:code="CA"><path style="stroke-width: 0.85 ;&st7;  " d=" M   398.02,   710.00  L   400.85,   710.00  " /><path style="stroke-width: 0.85 ;&st7;  " d=" M   396.60,   707.17  L   402.27,   707.17  " /><path style="stroke-width: 0.85 ;&st7;  " d=" M   395.18,   704.33  L   403.68,   704.33  " /><path style="stroke-width: 0.85 ;&st7;  " d=" M   390.93,   701.50  L   407.93,   701.50  " /><path style="stroke-width: 0.85 ;&st7;  " d=" M   399.43,   697.25  L   399.43,   701.50  "/></g><g ewd:code="5" ewd:figID="119" ewd:comment="" ewd:figtype="comment"><text style="&st18;" transform="matrix(&st16;  56.08  63.24 )">* 5 :1HZ</text></g><g ewd:code="25" ewd:figID="146" ewd:comment="" ewd:figtype="comment"><text style="&st18;" transform="matrix(&st16;  192.06  54.75 )" ewd:textID="12">*25 :Before Sep. 2017 Production</text></g><g ewd:code="34" ewd:figID="156" ewd:comment="" ewd:figtype="comment"><text style="&st18;" transform="matrix(&st16;  192.06  114.24 )" ewd:textID="20">*34 :Before Sep. 2022 Production</text></g><g ewd:code="35" ewd:figID="157" ewd:comment="" ewd:figtype="comment"><text style="&st18;" transform="matrix(&st16;  192.06  122.73 )" ewd:textID="21">*35 :From Sep. 2022 Production</text></g><g ewd:code="14" ewd:figID="123" ewd:comment="" ewd:figtype="comment"><text style="&st18;" transform="matrix(&st16;  56.08  88.74 )" ewd:textID="6">*14 :Except Soft Top Body Type</text></g><g ewd:code="15" ewd:figID="122" ewd:comment="" ewd:figtype="comment"><text style="&st18;" transform="matrix(&st16;  56.08  97.24 )" ewd:textID="7">*15 :Soft Top Body Type</text></g><g ewd:code="23" ewd:figID="142" ewd:comment="" ewd:figtype="comment"><text style="&st18;" transform="matrix(&st16;  192.06  37.75 )">*23 :LHD 1VD-FTV</text></g><g ewd:code="22" ewd:figID="124" ewd:comment="" ewd:figtype="comment"><text style="&st18;" transform="matrix(&st16;  192.06  29.25 )" ewd:textID="11">*22 :Except Australia</text></g><g ewd:code="6" ewd:figID="120" ewd:comment="" ewd:figtype="comment"><text style="&st18;" transform="matrix(&st16;  56.08  71.74 )">* 6 :LHD 1HZ</text></g><g ewd:code="31" ewd:figID="152" ewd:comment="" ewd:figtype="comment"><text style="&st18;" transform="matrix(&st16;  192.06  105.74 )" ewd:textID="17">*31 :From Jul. 2021 Production</text></g><g ewd:code="2" ewd:figID="109" ewd:comment="" ewd:figtype="comment"><text style="&st18;" transform="matrix(&st16;  56.08  37.75 )">* 2 :RHD 1GR-FE</text></g><g ewd:code="24" ewd:figID="143" ewd:comment="" ewd:figtype="comment"><text style="&st18;" transform="matrix(&st16;  192.06  46.25 )">*24 :1VD-FTV</text></g><g ewd:code="26" ewd:figID="147" ewd:comment="" ewd:figtype="comment"><text style="&st18;" transform="matrix(&st16;  192.06  63.24 )" ewd:textID="13">*26 :From Sep. 2017 Production</text></g><g ewd:code="27" ewd:figID="149" ewd:comment="" ewd:figtype="comment"><text style="&st18;" transform="matrix(&st16;  192.06  71.74 )" ewd:textID="14">*27 :w/o SRS</text></g><g ewd:code="30" ewd:figID="151" ewd:comment="" ewd:figtype="comment"><text style="&st18;" transform="matrix(&st16;  192.06  97.24 )" ewd:textID="16">*30 :Before Jul. 2021 Production</text></g><g ewd:code="7" ewd:figID="121" ewd:comment="" ewd:figtype="comment"><text style="&st18;" transform="matrix(&st16;  56.08  80.24 )">* 7 :RHD 1HZ</text></g><g ewd:code="29" ewd:figID="150" ewd:comment="25,5,26,7,26,6,28" ewd:figtype="comment"><text style="&st18;" transform="matrix(&st16;  192.06  88.74 )">*29 :*25 *5,*26 *7,*26 *6 *28</text></g><g ewd:code="3" ewd:figID="92" ewd:comment="" ewd:figtype="comment"><text style="&st18;" transform="matrix(&st16;  56.08  46.25 )">* 3 :1GR-FE</text></g><g ewd:code="4" ewd:figID="118" ewd:comment="" ewd:figtype="comment"><text style="&st18;" transform="matrix(&st16;  56.08  54.75 )">* 4 :RHD 1VD-FTV</text></g><g ewd:code="1" ewd:figID="117" ewd:comment="" ewd:figtype="comment"><text style="&st18;" transform="matrix(&st16;  56.08  29.25 )">* 1 :LHD 1GR-FE</text></g><g ewd:code="21" ewd:figID="105" ewd:comment="" ewd:figtype="comment"><text style="&st18;" transform="matrix(&st16;  56.08  105.74 )" ewd:textID="10">*21 :Australia</text></g><g ewd:code="28" ewd:figID="148" ewd:comment="" ewd:figtype="comment"><text style="&st18;" transform="matrix(&st16;  192.06  80.24 )" ewd:textID="15">*28 :w/ SRS</text></g></svg>
