<?xml version="1.0" encoding="utf-8"?>
<!DOCTYPE svg PUBLIC "-//W3C//DTD SVG 1.0//EN" "http://www.w3.org/TR/2001/REC-SVG-20010904/DTD/svg10.dtd"[
	<!ENTITY ns_flows "http://ns.adobe.com/Flows/1.0/">
	<!ENTITY ns_svg "http://www.w3.org/2000/svg">
	<!ENTITY ns_xlink "http://www.w3.org/1999/xlink">
	<!ENTITY st0 "font-size:7px;font-family:'MS-PGothic';adobe-font-script:japanese;">
	<!ENTITY st1 "font-size:6px;font-family:'ArialMT';">
	<!-- White fill  -->
	<!ENTITY st2 "fill:#FFFFFF;stroke:#000000; stroke-width:1.41;stroke-linecap:round;stroke-linejoin:round;">
	<!-- Yellow fill  -->
	<!ENTITY st3 "fill:#FFFFCC;stroke:#FFFFCC; stroke-width:0.1;stroke-linecap:round;stroke-linejoin:round;">
	<!-- Gray fill  -->
	<!ENTITY st4 "fill:#CCCCCC;stroke:#CCCCCC; stroke-width:0.1;stroke-linecap:round;stroke-linejoin:round;">
	<!-- Light-blue fill -->
	<!ENTITY st5 "fill:#CCECF4;stroke:#000000; stroke-width:1.133;stroke-linecap:round;stroke-linejoin:round;">
	<!ENTITY st6 "fill:none;stroke-linecap:butt; stroke-linejoin:round;">
	<!ENTITY st7 "fill:none;stroke:#000000;stroke-linecap:round;stroke-linejoin:round;">
	<!ENTITY st8 "enable-background:new    ;">
	<!-- Black fill -->
	<!ENTITY st9 "fill:#000000;stroke:#000000; stroke-linecap:round;stroke-linejoin:round;">
	<!-- SRS note   -->
	<!ENTITY st10 "font-size:9px;font-family:'ArialMT';">
	<!ENTITY st11 "font-size:9px;font-family:'Svg Symbol';">
	<!ENTITY st12 "font-size:6px;font-family:'Svg Symbol';">
	<!ENTITY st13 "fill:none;stroke:#ff0000;stroke-linecap:round;stroke-linejoin:round;">
	<!-- Yellow fill  -->
	<!ENTITY st14 "fill:#FFFF00;stroke:#FFFF00; stroke-width:0.1;stroke-linecap:round;stroke-linejoin:round;">
	<!ENTITY st15 "font-size:6px;font-family:'MS-PGothic';adobe-font-script:japanese;">
	<!ENTITY st16 "1.00 0.00 0.00 1.00">
	<!ENTITY st17 "0.00 -1.00 1.00 0.00">
	<!ENTITY st18 "font-size:6px;font-family:'Arial';">
	<!ENTITY st19 "font-size:9px;font-family:'Arial';">
	<!ENTITY st20 "font-size:6px;font-family:'MS-PGothic','MS PGothic';adobe-font-script:japanese;">
	<!ENTITY st21 "font-size:7px;font-family:'MS-PGothic','MS PGothic';adobe-font-script:japanese;">
	<!ATTLIST svg
		xmlns:ewd CDATA #FIXED "http://shcl.co.jp/ewd"
		xmlns:a CDATA #FIXED "http://ns.adobe.com/AdobeSVGViewerExtensions/3.0/"
		ewd:ver CDATA #IMPLIED
	>
	<!ATTLIST a
		ewd:lineID CDATA #IMPLIED
		ewd:groupID CDATA #IMPLIED
		ewd:figtype CDATA #IMPLIED
		ewd:code CDATA #IMPLIED
		ewd:figID CDATA #IMPLIED
		ewd:pinNo CDATA #IMPLIED
		ewd:comment CDATA #IMPLIED >
	<!ATTLIST g
		ewd:lineID CDATA #IMPLIED
		ewd:groupID CDATA #IMPLIED
		ewd:figtype CDATA #IMPLIED
		ewd:code CDATA #IMPLIED
		ewd:figID CDATA #IMPLIED
		ewd:pinNo CDATA #IMPLIED
		ewd:comment CDATA #IMPLIED >
	<!ATTLIST text
		ewd:textID CDATA #IMPLIED >
	<!ATTLIST title
		ewd:textID CDATA #IMPLIED >
]>
<!-- Generator: Shintec Hozumi YS   -->
<svg onload="call_execInitLoadProc_svg('system')" style="overflow:visible;  enable-background:new 0 0 1020.355 710.000" viewBox="0 0 1020.355 710.000" height="710.000" width="1020.355" xml:space="preserve" ewd:ver="2.3.1.16" xmlns="&ns_svg;" xmlns:a="http://ns.adobe.com/AdobeSVGViewerExtensions/3.0/" xmlns:ewd="http://shcl.co.jp/ewd" xmlns:xlink="&ns_xlink;">
<path style="stroke-width: 1.42 ;&st7;  " d=" M   900.85,   443.71  L   909.35,   443.71  " /><path style="stroke-width: 1.42 ;&st7;  " d=" M   900.85,   350.23  L   909.35,   350.23  " /><path style="stroke-width: 1.42 ;&st7;  " d=" M   943.34,   350.23  L   951.84,   350.23  " /><path style="stroke-width: 1.42 ;&st7;  " d=" M   960.34,   185.23  L   955.37,   180.26  " /><path style="stroke-width: 1.42 ;&st7;  " d=" M   943.34,   192.28  L   948.31,   197.25  " /><path style="stroke-width: 1.42 ;&st7;  " d=" M   955.37,   197.25  L   960.34,   192.28  " /><path style="stroke-width: 1.42 ;&st7;  " d=" M   948.31,   180.26  L   943.34,   185.23  " /><path style="stroke-width: 1.42 ;&st7;  " d=" M   960.34,   397.69  L   955.37,   392.72  " /><path style="stroke-width: 1.42 ;&st7;  " d=" M   943.34,   404.75  L   948.31,   409.72  " /><path style="stroke-width: 1.42 ;&st7;  " d=" M   955.37,   409.72  L   960.34,   404.75  " /><path style="stroke-width: 1.42 ;&st7;  " d=" M   948.31,   392.72  L   943.34,   397.69  " /><text style="&st18;" transform="matrix(&st17;  982.14  156.14 )">L</text><text style="&st18;" transform="matrix(&st17;  982.14  241.12 )">L</text><text style="&st18;" transform="matrix(&st17;  993.47  244.3 )">(*5)</text><text style="&st18;" transform="matrix(&st17;  948.14  156.14 )">L</text><text style="&st18;" transform="matrix(&st17;  959.48  163.0 )">(*3,*4)</text><text style="&st18;" transform="matrix(&st17;  993.47  159.32 )">(*5)</text><text style="&st18;" transform="matrix(&st17;  846.16  377.1 )">L</text><text style="&st18;" transform="matrix(&st17;  786.67  241.82 )">G</text><text style="&st18;" transform="matrix(&st17;  846.16  241.51 )">B</text><text style="&st18;" transform="matrix(&st17;  948.14  377.1 )">L</text><text style="&st18;" transform="matrix(&st17;  959.48  380.28 )">(*6)</text><text style="&st18;" transform="matrix(&st17;  916.98  380.28 )">(*3)</text><text style="&st18;" transform="matrix(&st17;  905.65  377.1 )">L</text><text style="&st18;" transform="matrix(&st17;  905.65  241.12 )">L</text><text style="&st18;" transform="matrix(&st17;  916.98  244.3 )">(*3)</text><text style="&st18;" transform="matrix(&st17;  959.48  244.3 )">(*4)</text><text style="&st18;" transform="matrix(&st17;  948.14  241.12 )">L</text><text style="&st18;" transform="matrix(&st17;  993.47  320.79 )">(*5)</text><text style="&st18;" transform="matrix(&st17;  982.14  317.61 )">L</text><text style="&st18;" transform="matrix(&st17;  557.21  374.46 )">B-DG</text><text style="&st18;" transform="matrix(&st17;  616.7  372.56 )">L-W</text><text style="&st18;" transform="matrix(&st17;  650.7  372.95 )">W-B</text><text style="&st18;" transform="matrix(&st17;  684.69  371.78 )">L-R</text><text style="&st18;" transform="matrix(&st17;  718.68  368.87 )">Y</text><text style="&st18;" transform="matrix(&st17;  752.68  369.92 )">W</text><text style="&st18;" transform="matrix(&st17;  786.67  369.3 )">G</text><text style="&st18;" transform="matrix(&st16;  932.97  423.02 )">L</text><text style="&st18;" transform="matrix(&st16;  929.79  434.35 )">(*6)</text><text style="&st18;" transform="matrix(&st16;  541.64  193.56 )">B</text><text style="&st18;" transform="matrix(&st16;  541.33  210.55 )">G</text><g ewd:figtype="conn" ewd:figID="1" ewd:code="m1,m2,s2,t1"><path style="stroke-width: 1.42 ;&st7;  " d=" M   543.91,   316.23  L   866.85,   316.23  L   866.85,   273.74  L   543.91,   273.74  L   543.91,   316.23  " /><g ewd:lineID="13"><text style="&st18;" transform="matrix(&st16;  551.43  322.73 )">1</text><path style="stroke-width: 1.42 ;&st7;   " d=" M   565.44,   320.77  C   565.44    318.26    563.41    316.23    560.91    316.23  " /><path style="stroke-width: 1.42 ;&st7;   " d=" M   560.91,   316.23  C   558.40    316.23    556.37    318.26    556.37    320.77  " /><path style="stroke-width: 1.42 ;&st7;   " d=" M   556.37,   320.77  C   556.37    323.27    558.40    325.30    560.91    325.30  " /><path style="stroke-width: 1.42 ;&st7;   " d=" M   560.91,   325.30  C   563.41    325.30    565.44    323.27    565.44    320.77  " /><text style="&st18;" transform="matrix(&st16;  558.49  322.73 )">D</text><text style="&st18;" transform="matrix(&st16;  558.64  312.54 )">E</text></g><g ewd:lineID="14"><text style="&st18;" transform="matrix(&st16;  610.92  322.73 )">1</text><path style="stroke-width: 1.42 ;&st7;   " d=" M   624.93,   320.77  C   624.93    318.26    622.90    316.23    620.40    316.23  " /><path style="stroke-width: 1.42 ;&st7;   " d=" M   620.40,   316.23  C   617.89    316.23    615.86    318.26    615.86    320.77  " /><path style="stroke-width: 1.42 ;&st7;   " d=" M   615.86,   320.77  C   615.86    323.27    617.89    325.30    620.40    325.30  " /><path style="stroke-width: 1.42 ;&st7;   " d=" M   620.40,   325.30  C   622.90    325.30    624.93    323.27    624.93    320.77  " /><text style="&st18;" transform="matrix(&st16;  617.98  322.73 )">C</text><text style="&st18;" transform="matrix(&st16;  616.7  312.54 )">F1</text></g><g ewd:lineID="15"><text style="&st18;" transform="matrix(&st16;  644.91  322.73 )">2</text><text style="&st18;" transform="matrix(&st16;  651.97  322.73 )">C</text><path style="stroke-width: 1.42 ;&st7;   " d=" M   658.92,   320.77  C   658.92    318.26    656.89    316.23    654.39    316.23  " /><path style="stroke-width: 1.42 ;&st7;   " d=" M   654.39,   316.23  C   651.89    316.23    649.86    318.26    649.86    320.77  " /><path style="stroke-width: 1.42 ;&st7;   " d=" M   649.86,   320.77  C   649.86    323.27    651.89    325.30    654.39    325.30  " /><path style="stroke-width: 1.42 ;&st7;   " d=" M   654.39,   325.30  C   656.89    325.30    658.92    323.27    658.92    320.77  " /><text style="&st18;" transform="matrix(&st16;  652.12  312.54 )">E</text></g><g ewd:lineID="16"><text style="&st18;" transform="matrix(&st16;  678.9  322.73 )">3</text><path style="stroke-width: 1.42 ;&st7;   " d=" M   692.92,   320.77  C   692.92    318.26    690.89    316.23    688.38    316.23  " /><path style="stroke-width: 1.42 ;&st7;   " d=" M   688.38,   316.23  C   685.88    316.23    683.85    318.26    683.85    320.77  " /><path style="stroke-width: 1.42 ;&st7;   " d=" M   683.85,   320.77  C   683.85    323.27    685.88    325.30    688.38    325.30  " /><path style="stroke-width: 1.42 ;&st7;   " d=" M   688.38,   325.30  C   690.89    325.30    692.92    323.27    692.92    320.77  " /><text style="&st18;" transform="matrix(&st16;  685.96  322.73 )">C</text><text style="&st18;" transform="matrix(&st16;  684.68  312.54 )">F2</text></g><g ewd:lineID="17"><text style="&st18;" transform="matrix(&st16;  712.9  322.73 )">4</text><path style="stroke-width: 1.42 ;&st7;   " d=" M   726.91,   320.77  C   726.91    318.26    724.88    316.23    722.38    316.23  " /><path style="stroke-width: 1.42 ;&st7;   " d=" M   722.38,   316.23  C   719.88    316.23    717.85    318.26    717.85    320.77  " /><path style="stroke-width: 1.42 ;&st7;   " d=" M   717.85,   320.77  C   717.85    323.27    719.88    325.30    722.38    325.30  " /><path style="stroke-width: 1.42 ;&st7;   " d=" M   722.38,   325.30  C   724.88    325.30    726.91    323.27    726.91    320.77  " /><text style="&st18;" transform="matrix(&st16;  719.96  322.73 )">C</text><text style="&st18;" transform="matrix(&st16;  712.36  312.54 )">MGSW</text></g><g ewd:lineID="18"><text style="&st18;" transform="matrix(&st16;  746.89  322.73 )">5</text><path style="stroke-width: 1.42 ;&st7;   " d=" M   760.91,   320.77  C   760.91    318.26    758.88    316.23    756.37    316.23  " /><path style="stroke-width: 1.42 ;&st7;   " d=" M   756.37,   316.23  C   753.87    316.23    751.84    318.26    751.84    320.77  " /><path style="stroke-width: 1.42 ;&st7;   " d=" M   751.84,   320.77  C   751.84    323.27    753.87    325.30    756.37    325.30  " /><path style="stroke-width: 1.42 ;&st7;   " d=" M   756.37,   325.30  C   758.88    325.30    760.91    323.27    760.91    320.77  " /><text style="&st18;" transform="matrix(&st16;  753.95  322.73 )">C</text><text style="&st18;" transform="matrix(&st16;  752.98  312.54 )">IG</text></g><g ewd:lineID="19"><text style="&st18;" transform="matrix(&st16;  780.89  322.73 )">6</text><text style="&st18;" transform="matrix(&st16;  787.95  322.73 )">C</text><path style="stroke-width: 1.42 ;&st7;   " d=" M   794.90,   320.77  C   794.90    318.26    792.87    316.23    790.37    316.23  " /><path style="stroke-width: 1.42 ;&st7;   " d=" M   790.37,   316.23  C   787.86    316.23    785.84    318.26    785.84    320.77  " /><path style="stroke-width: 1.42 ;&st7;   " d=" M   785.84,   320.77  C   785.84    323.27    787.86    325.30    790.37    325.30  " /><path style="stroke-width: 1.42 ;&st7;   " d=" M   790.37,   325.30  C   792.87    325.30    794.90    323.27    794.90    320.77  " /><text style="&st18;" transform="matrix(&st16;  785.16  312.54 )">SW</text></g><g ewd:lineID="20"><text style="&st18;" transform="matrix(&st16;  840.38  322.73 )">1</text><path style="stroke-width: 1.42 ;&st7;   " d=" M   854.39,   320.77  C   854.39    318.26    852.36    316.23    849.86    316.23  " /><path style="stroke-width: 1.42 ;&st7;   " d=" M   849.86,   316.23  C   847.35    316.23    845.33    318.26    845.33    320.77  " /><path style="stroke-width: 1.42 ;&st7;   " d=" M   845.33,   320.77  C   845.33    323.27    847.35    325.30    849.86    325.30  " /><path style="stroke-width: 1.42 ;&st7;   " d=" M   849.86,   325.30  C   852.36    325.30    854.39    323.27    854.39    320.77  " /><text style="&st18;" transform="matrix(&st16;  847.59  322.73 )">B</text><text style="&st18;" transform="matrix(&st16;  846.47  312.54 )">IG</text></g><g ewd:lineID="8"><text style="&st18;" transform="matrix(&st16;  840.38  271.18 )">1</text><path style="stroke-width: 1.42 ;&st7;   " d=" M   854.39,   269.21  C   854.39    266.70    852.36    264.67    849.86    264.67  " /><path style="stroke-width: 1.42 ;&st7;   " d=" M   849.86,   264.67  C   847.35    264.67    845.33    266.70    845.33    269.21  " /><path style="stroke-width: 1.42 ;&st7;   " d=" M   845.33,   269.21  C   845.33    271.71    847.35    273.74    849.86    273.74  " /><path style="stroke-width: 1.42 ;&st7;   " d=" M   849.86,   273.74  C   852.36    273.74    854.39    271.71    854.39    269.21  " /><text style="&st18;" transform="matrix(&st16;  847.59  271.18 )">A</text><text style="&st18;" transform="matrix(&st16;  847.59  281.37 )">B</text></g><g ewd:lineID="9"><text style="&st18;" transform="matrix(&st16;  780.89  271.18 )">2</text><path style="stroke-width: 1.42 ;&st7;   " d=" M   794.90,   269.21  C   794.90    266.70    792.87    264.67    790.37    264.67  " /><path style="stroke-width: 1.42 ;&st7;   " d=" M   790.37,   264.67  C   787.86    264.67    785.84    266.70    785.84    269.21  " /><path style="stroke-width: 1.42 ;&st7;   " d=" M   785.84,   269.21  C   785.84    271.71    787.86    273.74    790.37    273.74  " /><path style="stroke-width: 1.42 ;&st7;   " d=" M   790.37,   273.74  C   792.87    273.74    794.90    271.71    794.90    269.21  " /><text style="&st18;" transform="matrix(&st16;  788.1  271.18 )">B</text><text style="&st18;" transform="matrix(&st16;  780.35  281.37 )">MGSW</text></g><g ewd:figtype="title"><text style="&st18;" transform="matrix(&st17;  881.57  319.14 )" ewd:textID="10">Winch Motor with Magnet Switch Assembly</text><text style="&st18;" transform="matrix(&st17;  874.75  319.13 )">m1(A),m2(B),s2(C),t1(D)</text></g></g><g ewd:figtype="conn" ewd:figID="2" ewd:code="s1"><path style="stroke:#008837;stroke-width: 5.10 ;&st6;" d=" M   620.40,   426.71  L   620.40,   469.21  " /> d=" M   654.39,   426.71  L   654.39,   469.21 
	
		<path style="stroke:#000000;stroke-width: 5.10 ;&st6;" d=" M   654.39,   426.71  L   654.39,   469.21  " /><path style="stroke:#FFFFFF;stroke-width: 4.53 ;&st6;" d=" M   654.39,   426.71  L   654.39,   469.21  " /><path style="stroke:#FFE600;stroke-width: 5.10 ;&st6;" d=" M   688.38,   426.71  L   688.38,   469.21  " /><path style="stroke:#00A0C6;stroke-width: 5.10 ;&st6;" d=" M   722.38,   426.71  L   722.38,   469.21  " /><path style="stroke:#FFFFFF;stroke-width: 2.27 ;&st6;" d=" M   722.38,   426.71  L   722.38,   469.21  " /><path style="stroke:#FF0000;stroke-width: 1.13 ;&st6;" d=" M   722.38,   426.71  L   722.38,   469.21  " /><path style="stroke:#000000;stroke-width: 5.10 ;&st6;" d=" M   756.37,   426.71  L   756.37,   469.21  " /><path style="stroke:#FFFFFF;stroke-width: 4.53 ;&st6;" d=" M   756.37,   426.71  L   756.37,   469.21  " /><path style="stroke:#000000;stroke-width: 1.13 ;&st6;" d=" M   756.37,   426.71  L   756.37,   469.21  " /><path style="stroke:#00A0C6;stroke-width: 5.10 ;&st6;" d=" M   790.37,   426.71  L   790.37,   469.21  " /><path style="stroke:#FFFFFF;stroke-width: 1.13 ;&st6;" d=" M   790.37,   426.71  L   790.37,   469.21  " /><path style="stroke-width: 1.42 ;&st7;  " d=" M   594.90,   426.71  L   594.90,   528.70  L   815.86,   528.70  L   815.86,   426.71  L   594.90,   426.71  " /><path style="stroke-width: 1.42 ;&st7;  " d=" M   611.90,   469.21  L   611.90,   511.70  L   798.87,   511.70  L   798.87,   469.21  L   611.90,   469.21  " /><text style="&st18;" transform="matrix(&st16;  622.98  434.91 )">F1</text><text style="&st18;" transform="matrix(&st16;  656.97  434.91 )">E</text><text style="&st18;" transform="matrix(&st16;  690.97  434.91 )">F2</text><text style="&st18;" transform="matrix(&st16;  724.96  434.91 )">MGSW</text><text style="&st18;" transform="matrix(&st16;  758.96  434.91 )">IG</text><text style="&st18;" transform="matrix(&st16;  792.95  434.91 )">SW</text><text style="&st18;" transform="matrix(&st17;  616.7  454.29 )">G</text><text style="&st18;" transform="matrix(&st17;  650.69  454.91 )">W</text><text style="&st18;" transform="matrix(&st17;  684.69  453.86 )">Y</text><text style="&st18;" transform="matrix(&st17;  718.68  456.77 )">L-R</text><text style="&st18;" transform="matrix(&st17;  752.68  457.93 )">W-B</text><text style="&st18;" transform="matrix(&st17;  786.67  457.54 )">L-W</text><text style="&st18;" transform="matrix(&st16;  614.06  423.02 )">1</text><text style="&st18;" transform="matrix(&st16;  648.05  423.02 )">2</text><text style="&st18;" transform="matrix(&st16;  682.05  423.02 )">3</text><text style="&st18;" transform="matrix(&st16;  716.04  423.02 )">4</text><text style="&st18;" transform="matrix(&st16;  750.03  423.02 )">5</text><text style="&st18;" transform="matrix(&st16;  784.03  423.02 )">6</text><g ewd:figtype="title"><text style="&st18;" transform="matrix(&st16;  591.5  543.41 )" ewd:textID="9">Winch Assembly</text><text style="&st18;" transform="matrix(&st16;  591.49  536.59 )">s1</text></g></g><g ewd:figtype="conn" ewd:figID="3" ewd:code="I57"><path style="stroke-width: 1.42 ;&st7;  " d=" M   977.34,   188.75  L   994.33,   188.75  L   994.33,   205.75  L   977.34,   205.75  L   977.34,   188.75  " /><path style="stroke-width: 0.85 ;&st7;  " d=" M   985.83,   188.75  L   985.83,   205.75  " /><text style="&st18;" transform="matrix(&st16;  976.36  212.25 )">8</text><path style="stroke-width: 1.42 ;&st7;   " d=" M   990.37,   210.28  C   990.37    207.78    988.34    205.75    985.84    205.75  " /><path style="stroke-width: 1.42 ;&st7;   " d=" M   985.84,   205.75  C   983.33    205.75    981.30    207.78    981.30    210.28  " /><path style="stroke-width: 1.42 ;&st7;   " d=" M   981.30,   210.28  C   981.30    212.79    983.33    214.82    985.84    214.82  " /><path style="stroke-width: 1.42 ;&st7;   " d=" M   985.84,   214.82  C   988.34    214.82    990.37    212.79    990.37    210.28  " /><text style="&st18;" transform="matrix(&st16;  983.57  212.25 )">A</text><text style="&st18;" transform="matrix(&st16;  976.36  186.19 )">1</text><path style="stroke-width: 1.42 ;&st7;   " d=" M   990.37,   184.22  C   990.37    181.72    988.34    179.69    985.84    179.69  " /><path style="stroke-width: 1.42 ;&st7;   " d=" M   985.84,   179.69  C   983.33    179.69    981.30    181.72    981.30    184.22  " /><path style="stroke-width: 1.42 ;&st7;   " d=" M   981.30,   184.22  C   981.30    186.72    983.33    188.75    985.84    188.75  " /><path style="stroke-width: 1.42 ;&st7;   " d=" M   985.84,   188.75  C   988.34    188.75    990.37    186.72    990.37    184.22  " /><text style="&st18;" transform="matrix(&st16;  983.57  186.19 )">A</text><g ewd:figtype="title"><text style="&st18;" transform="matrix(&st17;  1002.23  208.65 )">I57(A)</text><text style="&st18;" transform="matrix(&st17;  1009.05  208.66 )" ewd:textID="7">No. 8 Junction <tspan x="0 " dy="6.0">Connector</tspan></text></g></g><g ewd:figtype="rb" ewd:figID="4" ewd:code="FUSE26"><path style="stroke-width: 1.42 ;&st7;  " d=" M   953.97,    95.27  L   949.72,    95.27  " /><path style="stroke-width: 1.42 ;&st7;  " d=" M   953.97,   103.77  L   949.72,   103.77  " /><path style="stroke-width: 0.85 ;&st7;  " d=" M   951.84,    78.27  L   951.84,    95.27  " /><path style="stroke-width: 1.42 ;&st7;   " d=" M   949.72,    95.27  C   947.37     95.27    945.47     97.17    945.47     99.52  " /><path style="stroke-width: 1.42 ;&st7;   " d=" M   945.47,    99.52  C   945.47    101.87    947.37    103.77    949.72    103.77  " /><path style="stroke-width: 1.42 ;&st7;   " d=" M   953.97,   103.77  C   956.31    103.77    958.21    101.87    958.21     99.52  " /><path style="stroke-width: 1.42 ;&st7;   " d=" M   958.21,    99.52  C   958.21     97.17    956.31     95.27    953.97     95.27  " /><path style="stroke-width: 0.28 ;&st9;  " d=" M   951.84,    90.37  L   949.01,    87.54  L   949.01,    91.79  L   951.84,    94.62  L   954.67,    91.79  L   954.67,    87.54  L   951.84,    90.37  " /><text style="&st18;" transform="matrix(&st16;  946.47  32.08 )">(IG)</text><text style="&st18;" transform="matrix(&st16;  968.27  56.17 )">15A <tspan x="0 " dy="6.0">GAUGE</tspan></text><text style="&st18;" transform="matrix(&st16;  949.96  101.49 )">2</text><text style="&st18;" transform="matrix(&st16;  945.5  86.47 )">2</text><path style="stroke-width: 0.85 ;&st7;  " d=" M   951.84,    69.77  L   951.84,    78.27  " /><path style="stroke-width: 0.85 ;&st7;   " d=" M   953.26,    68.36  C   953.26     67.57    952.62     66.94    951.84     66.94  " /><path style="stroke-width: 0.85 ;&st7;   " d=" M   951.84,    66.94  C   951.06     66.94    950.42     67.57    950.42     68.36  " /><path style="stroke-width: 0.85 ;&st7;   " d=" M   950.42,    68.36  C   950.42     69.14    951.06     69.77    951.84     69.77  " /><path style="stroke-width: 0.85 ;&st7;   " d=" M   951.84,    69.77  C   952.62     69.77    953.26     69.14    953.26     68.36  " /><path style="stroke-width: 0.85 ;&st7;   " d=" M   953.26,    45.69  C   953.26     44.91    952.62     44.28    951.84     44.28  " /><path style="stroke-width: 0.85 ;&st7;   " d=" M   951.84,    44.28  C   951.06     44.28    950.42     44.91    950.42     45.69  " /><path style="stroke-width: 0.85 ;&st7;   " d=" M   950.42,    45.69  C   950.42     46.48    951.06     47.11    951.84     47.11  " /><path style="stroke-width: 0.85 ;&st7;   " d=" M   951.84,    47.11  C   952.62     47.11    953.26     46.48    953.26     45.69  " /><path style="stroke-width: 1.42 ;&st7;   " d=" M   951.84,    66.94  C   954.58     65.33    955.49     61.80    953.88     59.06  " /><path style="stroke-width: 1.42 ;&st7;   " d=" M   953.88,    59.06  C   953.36     58.18    952.72     57.55    951.84     57.03  " /><path style="stroke-width: 1.42 ;&st7;   " d=" M   951.84,    47.11  C   949.10     48.72    948.19     52.25    949.80     54.99  " /><path style="stroke-width: 1.42 ;&st7;   " d=" M   949.80,    54.99  C   950.32     55.87    950.96     56.51    951.84     57.03  " /><path style="stroke-width: 1.42 ;&st7;  " d=" M   939.09,    35.78  L   939.09,    78.27  L   964.59,    78.27  L   964.59,    35.78  L   939.09,    35.78  " /></g><g ewd:figtype="conn" ewd:figID="5" ewd:code="I62"><path style="stroke-width: 0.85 ;&st7;  " d=" M   985.83,   273.74  L   985.83,   290.74  " /><path style="stroke-width: 1.42 ;&st7;  " d=" M   977.34,   273.74  L   994.33,   273.74  L   994.33,   290.74  L   977.34,   290.74  L   977.34,   273.74  " /><text style="&st18;" transform="matrix(&st16;  976.36  297.24 )">4</text><path style="stroke-width: 1.42 ;&st7;   " d=" M   990.37,   295.27  C   990.37    292.77    988.34    290.74    985.84    290.74  " /><path style="stroke-width: 1.42 ;&st7;   " d=" M   985.84,   290.74  C   983.33    290.74    981.30    292.77    981.30    295.27  " /><path style="stroke-width: 1.42 ;&st7;   " d=" M   981.30,   295.27  C   981.30    297.77    983.33    299.80    985.84    299.80  " /><path style="stroke-width: 1.42 ;&st7;   " d=" M   985.84,   299.80  C   988.34    299.80    990.37    297.77    990.37    295.27  " /><text style="&st18;" transform="matrix(&st16;  983.57  297.24 )">B</text><text style="&st18;" transform="matrix(&st16;  976.36  271.18 )">5</text><path style="stroke-width: 1.42 ;&st7;   " d=" M   990.37,   269.21  C   990.37    266.70    988.34    264.67    985.84    264.67  " /><path style="stroke-width: 1.42 ;&st7;   " d=" M   985.84,   264.67  C   983.33    264.67    981.30    266.70    981.30    269.21  " /><path style="stroke-width: 1.42 ;&st7;   " d=" M   981.30,   269.21  C   981.30    271.71    983.33    273.74    985.84    273.74  " /><path style="stroke-width: 1.42 ;&st7;   " d=" M   985.84,   273.74  C   988.34    273.74    990.37    271.71    990.37    269.21  " /><text style="&st18;" transform="matrix(&st16;  983.57  271.18 )">B</text><g ewd:figtype="title"><text style="&st18;" transform="matrix(&st17;  1009.05  293.64 )" ewd:textID="8">No. 12 Junction <tspan x="0 " dy="6.0">Connector</tspan></text><text style="&st18;" transform="matrix(&st17;  1002.23  293.64 )">I62(B)</text></g></g><g ewd:figtype="w2w" ewd:figID="12" ewd:code="mA1"><path style="stroke-width: 1.42 ;&st7;  " d=" M   913.60,   438.05  L   909.35,   442.29  L   905.10,   438.05  " /><path style="stroke-width: 1.42 ;&st7;  " d=" M   905.10,   434.65  L   909.35,   438.90  L   913.60,   434.65  " /><text style="&st18;" transform="matrix(&st16;  895.93  449.93 )">2</text></g><g ewd:figtype="w2w" ewd:figID="13" ewd:code="AI3"><path style="stroke-width: 1.42 ;&st7;  " d=" M   905.10,   341.16  L   909.35,   345.41  L   913.60,   341.16  " /><path style="stroke-width: 1.42 ;&st7;  " d=" M   913.60,   344.56  L   909.35,   348.81  L   905.10,   344.56  " /><text style="&st18;" transform="matrix(&st16;  895.93  356.45 )">3</text></g><g ewd:figtype="w2w" ewd:figID="14" ewd:code="AI3"><path style="stroke-width: 1.42 ;&st7;  " d=" M   956.09,   344.56  L   951.84,   348.81  L   947.59,   344.56  " /><path style="stroke-width: 1.42 ;&st7;  " d=" M   947.59,   341.16  L   951.84,   345.41  L   956.09,   341.16  " /><text style="&st18;" transform="matrix(&st16;  938.42  356.45 )">5</text></g><g ewd:figtype="gp" ewd:figID="21" ewd:code="tA"><path style="stroke-width: 0.85 ;&st7;  " d=" M   560.91,   697.25  L   560.91,   701.50  " /><path style="stroke-width: 0.85 ;&st7;  " d=" M   552.41,   701.50  L   569.40,   701.50  " /><path style="stroke-width: 0.85 ;&st7;  " d=" M   556.66,   704.33  L   565.16,   704.33  " /><path style="stroke-width: 0.85 ;&st7;  " d=" M   558.07,   707.17  L   563.74,   707.17  " /><path style="stroke-width: 0.85 ;&st7;  " d=" M   559.49,   710.00  L   562.32,   710.00  "/></g></svg>
