<?xml version="1.0"?>
<!-- Generator: Adobe Illustrator 18.1.1, SVG Export Plug-In . SVG Version: 6.00 Build 0)  -->
<!DOCTYPE svg PUBLIC "-//W3C//DTD SVG 1.0//EN" "http://www.w3.org/TR/2001/REC-SVG-20010904/DTD/svg10.dtd"[
	<!ENTITY ns_flows "http://ns.adobe.com/Flows/1.0/">
	<!ENTITY ns_svg "http://www.w3.org/2000/svg">
	<!ENTITY ns_xlink "http://www.w3.org/1999/xlink">
	<!ENTITY st0 "fill:none;stroke:#FFFFFF;stroke-width:0.2;">
	<!ENTITY st1 "fill:none;stroke:#000000;stroke-width:0.6;stroke-linecap:round;stroke-linejoin:round;">
	<!ENTITY st2 "fill:none;stroke:#000000;stroke-linecap:round;stroke-linejoin:round;">
	<!ENTITY st3 "fill:none;stroke:#FFFFFF;stroke-width:2;stroke-linecap:round;stroke-linejoin:round;">
	<!ENTITY st4 "fill:none;stroke:#000000;stroke-width:0.5;stroke-linecap:round;stroke-linejoin:round;">
	<!ENTITY st5 "fill:none;stroke:#000000;stroke-width:0.8;">
	<!ENTITY st6 "font-family:'Arial'; font-size:6px;">
	<!ENTITY st7 "font-family:'Arial'; font-size:8px;">
	<!ATTLIST svg
		xmlns:ewd CDATA #FIXED "http://shcl.co.jp/ewd"
		xmlns:a CDATA #FIXED "http://ns.adobe.com/AdobeSVGViewerExtensions/3.0/"
		ewd:ver CDATA #IMPLIED>
	<!ATTLIST a
		ewd:innerGroupID CDATA #IMPLIED
		ewd:figtype CDATA #IMPLIED
		ewd:code CDATA #IMPLIED
		ewd:pinNo CDATA #IMPLIED>
]>
<svg version="1.0" x="0px" y="0px" viewBox="0 0 510.436 643.664" style="enable-background:new 0 0 510.436 643.664;" xml:space="preserve" width="510.436" height="643.664" onload="call_execInitLoadProc_svg('location')" ewd:ver="2.3.1.16" xmlns="&ns_svg;" xmlns:a="http://ns.adobe.com/AdobeSVGViewerExtensions/3.0/" xmlns:ewd="http://shcl.co.jp/ewd" xmlns:xlink="&ns_xlink;">
<script type="text/javascript" xlink:href="../../../../../system/js/ewd/fig/svgfig.js"/>
<g id="WAKU">
	<path d="M0.1,0.1v643.464h510.236v-643.464h-510.236z" style="&st0;"/>
</g>
<g id="レイヤ_xFF0D__1">
	<path d="M363.057,387.692l0,2.617" style="&st1;"/>
	<path style="&st1;" d="M206.273,281.293   c-3.286,0-5.949,2.663-5.949,5.949"/>
	<path style="&st2;" d="M206.273,275.344   c-4.38,0-8.113,2.155-10.304,5.949"/>
	<path style="&st1;" d="M337.151,281.293   c0-3.286-2.664-5.949-5.948-5.949"/>
	<path style="&st1;" d="M331.203,336.817   c3.284,0,5.948-2.663,5.948-5.949"/>
	<path style="&st1;" d="M61.515,281.293   c-3.286,0-5.949,2.663-5.949,5.949"/>
	<path style="&st2;" d="M55.566,330.868   c0,3.286,2.663,5.949,5.949,5.949"/>
	<path style="&st2;" d="M495.17,292.525   c-3.06-9.688-11.082-16.191-21.192-17.18"/>
	<path style="&st1;" d="M370.862,315.004   c0-2.19-1.775-3.966-3.966-3.966"/>
	<path style="&st1;" d="M366.896,311.038   c-2.19,0-3.966,1.776-3.966,3.966"/>
	<path style="&st1;" d="M362.93,315.004   c0,2.19,1.775,3.966,3.966,3.966"/>
	<path style="&st1;" d="M366.896,318.97   c2.19,0,3.966-1.776,3.966-3.966"/>
	<path style="&st1;" d="M406.556,315.004   c0-2.19-1.775-3.966-3.966-3.966"/>
	<path style="&st1;" d="M402.59,311.038   c-2.191,0-3.967,1.776-3.967,3.966"/>
	<path style="&st1;" d="M398.623,315.004   c0,2.19,1.776,3.966,3.967,3.966"/>
	<path style="&st1;" d="M402.59,318.97   c2.19,0,3.966-1.776,3.966-3.966"/>
	<path style="&st1;" d="M379.462,389.001   c0-2.555-2.071-4.627-4.626-4.627"/>
	<path style="&st1;" d="M374.836,384.374   c-2.556,0-4.627,2.072-4.627,4.627"/>
	<path style="&st1;" d="M370.209,389.001   c0,2.555,2.071,4.627,4.627,4.627"/>
	<path style="&st1;" d="M374.836,393.628   c2.555,0,4.626-2.072,4.626-4.627"/>
	<path style="&st2;" d="M366.741,391.618   c1.446,4.471,6.242,6.923,10.713,5.478"/>
	<path style="&st2;" d="M377.454,397.096   c4.471-1.445,6.923-6.241,5.477-10.712"/>
	<path style="&st2;" d="M382.93,386.384   c-1.445-4.471-6.241-6.923-10.712-5.478"/>
	<path style="&st2;" d="M372.218,380.906   c-2.69,0.87-4.606,2.787-5.478,5.478"/>
	<path d="M91.26,293.191 l0,31.728 l7.932,0 l0,-31.728 l-7.932,0 " style="&st2;"/>
	<path d="M107.123,293.191 l0,31.728 l7.933,0 l0,-31.728 l-7.933,0 " style="&st2;"/>
	<path d="M122.987,293.191 l0,31.728 l7.932,0 l0,-31.728 l-7.932,0 " style="&st2;"/>
	<path d="M138.852,293.191 l0,31.728 l7.932,0 l0,-31.728 l-7.932,0 " style="&st2;"/>
	<path d="M154.715,293.191 l0,31.728 l7.932,0 l0,-31.728 l-7.932,0 " style="&st2;"/>
	<path d="M170.579,293.191 l0,31.728 l7.933,0 l0,-31.728 l-7.933,0 " style="&st2;"/>
	<path d="M186.443,293.191 l0,31.728 l7.932,0 l0,-31.728 l-7.932,0 " style="&st2;"/>
	<path d="M91.26,301.123h7.932" style="&st1;"/>
	<path d="M91.26,316.987h7.932" style="&st1;"/>
	<path d="M107.123,316.987h7.933" style="&st1;"/>
	<path d="M107.123,301.123h7.933" style="&st1;"/>
	<path d="M122.988,301.123h7.931" style="&st1;"/>
	<path d="M122.988,316.987h7.931" style="&st1;"/>
	<path d="M138.852,316.987h7.932" style="&st1;"/>
	<path d="M138.852,301.123h7.932" style="&st1;"/>
	<path d="M154.716,301.123h7.931" style="&st1;"/>
	<path d="M154.716,316.987h7.931" style="&st1;"/>
	<path d="M170.579,316.987h7.933" style="&st1;"/>
	<path d="M170.579,301.123h7.933" style="&st1;"/>
	<path d="M186.443,301.123h7.932" style="&st1;"/>
	<path d="M186.443,316.987h7.932" style="&st1;"/>
	<path d="M206.273,289.225 l0,35.694 l23.796,0 l0,-35.694 l-23.796,0 " style="&st2;"/>
	<path d="M210.239,293.191 l0,11.898 l15.865,0 l0,-11.898 l-15.865,0 " style="&st1;"/>
	<path d="M210.239,309.055 l0,11.898 l15.865,0 l0,-11.898 l-15.865,0 " style="&st1;"/>
	<path d="M241.967,293.191 l0,11.898 l15.864,0 l0,-11.898 l-15.864,0 " style="&st1;"/>
	<path d="M241.967,309.055 l0,11.898 l15.864,0 l0,-11.898 l-15.864,0 " style="&st1;"/>
	<path d="M273.695,293.191 l0,11.898 l15.864,0 l0,-11.898 l-15.864,0 " style="&st1;"/>
	<path d="M273.695,309.055 l0,11.898 l15.864,0 l0,-11.898 l-15.864,0 " style="&st1;"/>
	<path d="M305.422,293.191 l0,11.898 l15.865,0 l0,-11.898 l-15.865,0 " style="&st1;"/>
	<path d="M305.422,309.055 l0,11.898 l15.865,0 l0,-11.898 l-15.865,0 " style="&st1;"/>
	<path d="M238.001,289.225 l0,35.694 l23.796,0 l0,-35.694 l-23.796,0 " style="&st2;"/>
	<path d="M269.729,289.225 l0,35.694 l23.796,0 l0,-35.694 l-23.796,0 " style="&st2;"/>
	<path d="M301.457,289.225 l0,35.694 l23.796,0 l0,-35.694 l-23.796,0 " style="&st2;"/>
	<path d="M69.447,330.868h261.756" style="&st1;"/>
	<path d="M206.273,281.293h124.93" style="&st1;"/>
	<path d="M69.447,301.123h11.898" style="&st1;"/>
	<path d="M69.447,301.123l0,29.745" style="&st1;"/>
	<path d="M81.345,287.242l0,13.881" style="&st1;"/>
	<path d="M81.345,287.242h118.98" style="&st1;"/>
	<path d="M331.203,281.293l0,49.575" style="&st1;"/>
	<path d="M55.566,287.242l0,43.626" style="&st1;"/>
	<path d="M337.151,281.293l0,49.575" style="&st1;"/>
	<path d="M35.736,330.868h19.83" style="&st2;"/>
	<path d="M35.736,281.293l0,49.575" style="&st2;"/>
	<path d="M58.54,273.361l0,7.932" style="&st2;"/>
	<path d="M130.919,273.361l0,7.932" style="&st2;"/>
	<path d="M58.54,273.361h72.379" style="&st2;"/>
	<path d="M97.209,336.817 l0,5.949 l29.745,0 l0,-5.949 " style="&st2;"/>
	<path d="M192.392,336.817 l0,5.949 l29.745,0 l0,-5.949 " style="&st2;"/>
	<path d="M222.137,336.817h216.147" style="&st2;"/>
	<path d="M192.392,336.817h29.745" style="&st1;"/>
	<path d="M126.954,336.817h65.438" style="&st2;"/>
	<path d="M61.515,336.817h35.694" style="&st2;"/>
	<path d="M97.209,336.817h29.745" style="&st1;"/>
	<path d="M319.304,266.421l0,8.923" style="&st2;"/>
	<path d="M343.1,266.421l0,8.923" style="&st2;"/>
	<path d="M319.304,266.421h23.796" style="&st2;"/>
	<path d="M414.488,269.395l0,5.949" style="&st2;"/>
	<path d="M473.978,269.395l0,5.949" style="&st2;"/>
	<path d="M414.488,269.395h59.49" style="&st2;"/>
	<path d="M438.284,318.97h56.886" style="&st2;"/>
	<path d="M438.284,318.97l0,17.847" style="&st2;"/>
	<path d="M495.17,292.525l0,26.445" style="&st2;"/>
	<path d="M343.1,275.344h71.388" style="&st2;"/>
	<path d="M206.273,275.344h113.031" style="&st2;"/>
	<path d="M319.304,275.344h23.796" style="&st1;"/>
	<path d="M130.919,281.293h65.051" style="&st2;"/>
	<path d="M35.736,281.293h22.804" style="&st2;"/>
	<path d="M58.54,281.293h72.379" style="&st1;"/>
	<path d="M366.741,386.384 l-1.067,0.654 l-2.617,0 l0,0.654 l-16.36,0 " style="&st2;"/>
	<path d="M366.741,391.618 l-1.067,-0.654 l-2.617,0 l0,-0.655 l-16.36,0 " style="&st2;"/>
	<g>
		<path d="M443.185,387.692l0,2.617" style="&st1;"/>
		<path style="&st1;" d="M459.59,389.001    c0-2.555-2.071-4.627-4.626-4.627"/>
		<path style="&st1;" d="M454.964,384.374    c-2.555,0-4.626,2.072-4.626,4.627"/>
		<path style="&st1;" d="M450.338,389.001    c0,2.555,2.071,4.627,4.626,4.627"/>
		<path style="&st1;" d="M454.964,393.628    c2.555,0,4.626-2.072,4.626-4.627"/>
		<path style="&st2;" d="M446.87,391.618    c1.445,4.471,6.241,6.923,10.712,5.478"/>
		<path style="&st2;" d="M457.581,397.096    c4.471-1.445,6.923-6.241,5.478-10.712"/>
		<path style="&st2;" d="M463.059,386.384    c-1.446-4.471-6.242-6.923-10.712-5.478"/>
		<path style="&st2;" d="M452.347,380.906    c-2.691,0.87-4.608,2.787-5.477,5.478"/>
		<path d="M446.87,386.384 l-1.068,0.654 l-2.617,0 l0,0.654 l-16.359,0 " style="&st2;"/>
		<path d="M446.87,391.618 l-1.068,-0.654 l-2.617,0 l0,-0.655 l-16.359,0 " style="&st2;"/>
	</g>
</g>
<g id="キャプション">
	<text transform="matrix(0 -1 1 0 89.2504 317.557)"><tspan style="&st6;" x="0" y="0">ALT-S</tspan></text>
	<text transform="matrix(0 -1 1 0 97.2514 315.2264)"><tspan style="&st6;" x="0" y="0">7.5A</tspan></text>
	<text transform="matrix(0 -1 1 0 192.435 314.3929)"><tspan style="&st6;" x="0" y="0">10A</tspan></text>
	<text transform="matrix(0 -1 1 0 105.1142 313.1092)"><tspan style="&st6;" x="0" y="0">*5</tspan></text>
	<text transform="matrix(0 -1 1 0 121.2182 312.243)"><tspan style="&st6;" x="0" y="0">*4</tspan></text>
	<text transform="matrix(0 -1 1 0 136.8422 311.891)"><tspan style="&st6;" x="0" y="0">*3</tspan></text>
	<text transform="matrix(0 -1 1 0 152.706 311.891)"><tspan style="&st6;" x="0" y="0">*2</tspan></text>
	<text transform="matrix(0 -1 1 0 168.5698 311.891)"><tspan style="&st6;" x="0" y="0">*1</tspan></text>
	<text transform="matrix(0 -1 1 0 184.5517 317.888)"><tspan style="&st6;" x="0" y="0">HORN</tspan></text>
	<text transform="matrix(1 0 0 1 93.5497 323.0736)"><tspan style="&st6;" x="0" y="0">2</tspan></text>
	<text transform="matrix(1 0 0 1 93.5497 299.2977)"><tspan style="&st6;" x="0" y="0">1</tspan></text>
	<text transform="matrix(1 0 0 1 109.4135 323.0736)"><tspan style="&st6;" x="0" y="0">2</tspan></text>
	<text transform="matrix(1 0 0 1 109.4135 299.2977)"><tspan style="&st6;" x="0" y="0">1</tspan></text>
	<text transform="matrix(1 0 0 1 125.2773 323.0736)"><tspan style="&st6;" x="0" y="0">2</tspan></text>
	<text transform="matrix(1 0 0 1 125.2773 299.2977)"><tspan style="&st6;" x="0" y="0">1</tspan></text>
	<text transform="matrix(1 0 0 1 141.1415 323.0736)"><tspan style="&st6;" x="0" y="0">2</tspan></text>
	<text transform="matrix(1 0 0 1 141.1415 299.2977)"><tspan style="&st6;" x="0" y="0">1</tspan></text>
	<text transform="matrix(1 0 0 1 157.0053 323.0736)"><tspan style="&st6;" x="0" y="0">2</tspan></text>
	<text transform="matrix(1 0 0 1 157.0053 299.2977)"><tspan style="&st6;" x="0" y="0">1</tspan></text>
	<text transform="matrix(1 0 0 1 172.8696 323.0736)"><tspan style="&st6;" x="0" y="0">2</tspan></text>
	<text transform="matrix(1 0 0 1 172.8696 299.2977)"><tspan style="&st6;" x="0" y="0">1</tspan></text>
	<text transform="matrix(1 0 0 1 188.7333 323.0736)"><tspan style="&st6;" x="0" y="0">2</tspan></text>
	<text transform="matrix(1 0 0 1 188.7333 299.2977)"><tspan style="&st6;" x="0" y="0">1</tspan></text>
	<text transform="matrix(1 0 0 1 216.6992 317.2406)"><tspan style="&st6;" x="0" y="0">2</tspan></text>
	<text transform="matrix(1 0 0 1 225.1347 361.0858)"><tspan style="&st7;" x="0" y="0">50A MAIN1</tspan></text>
	<text transform="matrix(1 0 0 1 198.1347 239.3358)"><tspan style="&st7;" x="0" y="0">50A AM2</tspan></text>
	<text transform="matrix(1 0 0 1 259.8842 239.3358)"><tspan style="&st7;" x="0" y="0">50A ABS MTR</tspan></text>
	<text transform="matrix(1 0 0 1 296.8842 360.6805)"><tspan style="&st7;" x="0" y="0">50A HEAD</tspan></text>
	<text transform="matrix(1 0 0 1 331.3842 409.1805)"><tspan x="0" y="0" style="&st7;">(from Engine Room </tspan><tspan x="0" y="8" style="&st7;">Main Wire)</tspan></text>
	<text transform="matrix(1 0 0 1 411.0737 409.1805)"><tspan x="0" y="0" style="&st7;">(from Engine Room </tspan><tspan x="0" y="8" style="&st7;">Main Wire)</tspan></text>
	<text transform="matrix(1 0 0 1 216.6992 301.1659)"><tspan style="&st6;" x="0" y="0">1</tspan></text>
	<text transform="matrix(1 0 0 1 248.4272 317.2406)"><tspan style="&st6;" x="0" y="0">2</tspan></text>
	<text transform="matrix(1 0 0 1 248.4272 301.1659)"><tspan style="&st6;" x="0" y="0">1</tspan></text>
	<text transform="matrix(1 0 0 1 280.1552 317.2406)"><tspan style="&st6;" x="0" y="0">2</tspan></text>
	<text transform="matrix(1 0 0 1 280.1552 301.1659)"><tspan style="&st6;" x="0" y="0">1</tspan></text>
	<text transform="matrix(1 0 0 1 311.8828 317.2406)"><tspan style="&st6;" x="0" y="0">2</tspan></text>
	<text transform="matrix(1 0 0 1 311.8828 301.1659)"><tspan style="&st6;" x="0" y="0">1</tspan></text>
	<text transform="matrix(0.88 0 0 1 385.9282 390.3797)"><tspan style="&st7;" x="0" y="0">1</tspan></text>
	<text transform="matrix(0.88 0 0 1 466.0571 390.3797)"><tspan style="&st7;" x="0" y="0">1</tspan></text>
	<text transform="matrix(1 0 0 1 282.8764 79.6571)"><tspan style="&st7;" x="0" y="0">15A EFI MAIN (1VD-FTV)</tspan></text>
	<text transform="matrix(1 0 0 1 270.687 71.6571)"><tspan style="&st7;" x="0" y="0">* 1:25A EFI (1GR-FE)</tspan></text>
	<text transform="matrix(1 0 0 1 282.8764 95.5311)"><tspan style="&st7;" x="0" y="0">15A EFI MAIN2 (1VD-FTV)</tspan></text>
	<text transform="matrix(1 0 0 1 270.687 87.5311)"><tspan style="&st7;" x="0" y="0">* 2:10A A/F (1GR-FE)</tspan></text>
	<text transform="matrix(1 0 0 1 270.687 103.4051)"><tspan style="&st7;" x="0" y="0">* 3:15A TURN&amp;HAZ</tspan></text>
	<text transform="matrix(1 0 0 1 270.687 111.3421)"><tspan style="&st7;" x="0" y="0">* 4:30A ABS SOL</tspan></text>
	<text transform="matrix(1 0 0 1 282.8764 127.2792)"><tspan style="&st7;" x="0" y="0">15A A/F (*6, *7)</tspan></text>
	<text transform="matrix(1 0 0 1 270.687 119.2792)"><tspan style="&st7;" x="0" y="0">* 5:10A ETCS (1GR-FE)</tspan></text>
	<text transform="matrix(1 0 0 1 270.687 135.1532)"><tspan style="&st7;" x="0" y="0">* 6:From Aug. 2016 Production 1VD-FTV Australia</tspan></text>
	<text transform="matrix(1 0 0 1 270.687 143.0902)"><tspan style="&st7;" x="0" y="0">* 7:From Sep. 2022 Production 1VD-FTV Middle East</tspan></text>
	<path d="M214.171,242.625l0,46.6" style="&st3;"/>
	<path d="M285.627,242.625l0,46.6" style="&st3;"/>
	<path d="M244.899,324.919l0,28.322" style="&st3;"/>
	<path d="M316.355,324.919l0,27.738" style="&st3;"/>
	<path d="M366.896,322.936l0,37.677" style="&st3;"/>
	<path d="M402.59,322.936 l0,6.94 l42.434,0 l0,30.737 " style="&st3;"/>
	<path d="M214.171,242.625l0,46.6" style="&st4;"/>
	<path d="M285.627,242.625l0,46.6" style="&st4;"/>
	<path d="M244.899,324.919l0,28.322" style="&st4;"/>
	<path d="M316.355,324.919l0,27.738" style="&st4;"/>
	<path d="M366.896,322.936l0,37.677" style="&st4;"/>
	<path d="M402.59,322.936 l0,6.94 l42.434,0 l0,30.737 " style="&st4;"/>
	<a ewd:code="4B" ewd:figtype="jbc" style="cursor:pointer;">
		<path style="fill:#FFFFFF;stroke:#000000;stroke-width:0.8;" d="M367.374,374.503c2.977,0,5.391-2.413,5.391-5.391    c0-2.977-2.414-5.391-5.391-5.391h-4.582c-2.977,0-5.39,2.414-5.39,5.391c0,2.978,2.413,5.391,5.39,5.391H367.374z"/>
		<text transform="matrix(1 0 0 1 360.1909 371.9061)"><tspan style="&st7;" x="0" y="0">4B</tspan></text>
	</a>
	<a ewd:code="4A" ewd:figtype="jbc" style="cursor:pointer;">
		<path style="fill:#FFFFFF;stroke:#000000;stroke-width:0.8;" d="M446.468,374.503c2.977,0,5.391-2.413,5.391-5.391    c0-2.977-2.414-5.391-5.391-5.391h-4.582c-2.977,0-5.39,2.414-5.39,5.391c0,2.978,2.413,5.391,5.39,5.391H446.468z"/>
		<text transform="matrix(1 0 0 1 439.2846 371.9061)"><tspan style="&st7;" x="0" y="0">4A</tspan></text>
	</a>
</g>
</svg>