<?xml version="1.0"?>
<!-- Generator: Adobe Illustrator 18.1.1, SVG Export Plug-In . SVG Version: 6.00 Build 0)  -->
<!DOCTYPE svg PUBLIC "-//W3C//DTD SVG 1.0//EN" "http://www.w3.org/TR/2001/REC-SVG-20010904/DTD/svg10.dtd"[
	<!ENTITY ns_flows "http://ns.adobe.com/Flows/1.0/">
	<!ENTITY ns_svg "http://www.w3.org/2000/svg">
	<!ENTITY ns_xlink "http://www.w3.org/1999/xlink">
	<!ENTITY st0 "fill:none;stroke:#FFFFFF;stroke-width:0.2;">
	<!ENTITY st1 "fill:none;stroke:#000000;stroke-width:0.8499;stroke-linecap:round;stroke-linejoin:round;">
	<!ENTITY st2 "fill:none;stroke:#000000;stroke-linecap:round;stroke-linejoin:round;">
	<!ENTITY st3 "fill:none;stroke:#000000;stroke-width:1.0;stroke-linecap:round;stroke-linejoin:round;">
	<!ENTITY st4 "fill:none;stroke:#000000;stroke-width:1.67;">
	<!ENTITY st5 "font-family:'Arial'; font-size:8px;">
	<!ENTITY st6 "font-family:'Arial'; font-size:10px;">
	<!ENTITY st7 "font-family:'Arial'; font-size:16px;">
	<!ATTLIST svg
		xmlns:ewd CDATA #FIXED "http://shcl.co.jp/ewd"
		xmlns:a CDATA #FIXED "http://ns.adobe.com/AdobeSVGViewerExtensions/3.0/"
		ewd:ver CDATA #IMPLIED>
	<!ATTLIST a
		ewd:innerGroupID CDATA #IMPLIED
		ewd:figtype CDATA #IMPLIED
		ewd:code CDATA #IMPLIED
		ewd:pinNo CDATA #IMPLIED>
]>
<svg version="1.0" x="0px" y="0px" viewBox="0 0 510.436 643.664" style="enable-background:new 0 0 510.436 643.664;" xml:space="preserve" width="510.436" height="643.664" onload="call_execInitLoadProc_svg('inner')" ewd:ver="2.3.1.16" xmlns="&ns_svg;" xmlns:a="http://ns.adobe.com/AdobeSVGViewerExtensions/3.0/" xmlns:ewd="http://shcl.co.jp/ewd" xmlns:xlink="&ns_xlink;">
<script type="text/javascript" xlink:href="../../../../../system/js/ewd/fig/svgfig.js"/>
<g id="WAKU">
	<path d="M0.1,0.1v643.464h510.236v-643.464h-510.236z" style="&st0;"/>
</g>
<g id="レイヤ_xFF0D__1">
	<path style="&st1;" d="M260.468,200.927   c0-0.782-0.635-1.416-1.417-1.416"/>
	<path style="&st1;" d="M259.051,199.511   c-0.782,0-1.417,0.634-1.417,1.416"/>
	<path style="&st1;" d="M257.634,200.927   c0,0.782,0.635,1.417,1.417,1.417"/>
	<path style="&st1;" d="M259.051,202.344   c0.782,0,1.417-0.634,1.417-1.417"/>
	<path style="&st1;" d="M237.805,200.927   c0-0.782-0.634-1.416-1.417-1.416"/>
	<path style="&st1;" d="M236.388,199.511   c-0.782,0-1.417,0.634-1.417,1.416"/>
	<path style="&st1;" d="M234.972,200.927   c0,0.782,0.634,1.417,1.417,1.417"/>
	<path style="&st1;" d="M236.388,202.344   c0.782,0,1.417-0.634,1.417-1.417"/>
	<path style="&st1;" d="M260.468,234.921   c0-0.782-0.635-1.417-1.417-1.417"/>
	<path style="&st1;" d="M259.051,233.505   c-0.782,0-1.417,0.634-1.417,1.417"/>
	<path style="&st1;" d="M257.634,234.921   c0,0.782,0.635,1.417,1.417,1.417"/>
	<path style="&st1;" d="M259.051,236.338   c0.782,0,1.417-0.634,1.417-1.417"/>
	<path style="&st1;" d="M237.805,234.921   c0-0.782-0.634-1.417-1.417-1.417"/>
	<path style="&st1;" d="M236.388,233.505   c-0.782,0-1.417,0.634-1.417,1.417"/>
	<path style="&st1;" d="M234.972,234.921   c0,0.782,0.634,1.417,1.417,1.417"/>
	<path style="&st1;" d="M236.388,236.338   c0.782,0,1.417-0.634,1.417-1.417"/>
	<path style="&st1;" d="M260.468,268.915   c0-0.782-0.635-1.416-1.417-1.416"/>
	<path style="&st1;" d="M259.051,267.499   c-0.782,0-1.417,0.634-1.417,1.416"/>
	<path style="&st1;" d="M257.634,268.915   c0,0.783,0.635,1.416,1.417,1.416"/>
	<path style="&st1;" d="M259.051,270.332   c0.782,0,1.417-0.634,1.417-1.416"/>
	<path style="&st1;" d="M237.805,268.915   c0-0.782-0.634-1.416-1.417-1.416"/>
	<path style="&st1;" d="M236.388,267.499   c-0.782,0-1.417,0.634-1.417,1.416"/>
	<path style="&st1;" d="M234.972,268.915   c0,0.783,0.634,1.416,1.417,1.416"/>
	<path style="&st1;" d="M236.388,270.332   c0.782,0,1.417-0.634,1.417-1.416"/>
	<path style="&st1;" d="M260.468,336.904   c0-0.782-0.635-1.416-1.417-1.416"/>
	<path style="&st1;" d="M259.051,335.488   c-0.782,0-1.417,0.634-1.417,1.416"/>
	<path style="&st1;" d="M257.634,336.904   c0,0.782,0.635,1.417,1.417,1.417"/>
	<path style="&st1;" d="M259.051,338.321   c0.782,0,1.417-0.635,1.417-1.417"/>
	<path style="&st1;" d="M237.805,336.904   c0-0.782-0.634-1.416-1.417-1.416"/>
	<path style="&st1;" d="M236.388,335.488   c-0.782,0-1.417,0.634-1.417,1.416"/>
	<path style="&st1;" d="M234.972,336.904   c0,0.782,0.634,1.417,1.417,1.417"/>
	<path style="&st1;" d="M236.388,338.321   c0.782,0,1.417-0.635,1.417-1.417"/>
	<path style="&st1;" d="M260.468,370.899   c0-0.783-0.635-1.417-1.417-1.417"/>
	<path style="&st1;" d="M259.051,369.482   c-0.782,0-1.417,0.634-1.417,1.417"/>
	<path style="&st1;" d="M257.634,370.899   c0,0.781,0.635,1.416,1.417,1.416"/>
	<path style="&st1;" d="M259.051,372.315   c0.782,0,1.417-0.635,1.417-1.416"/>
	<path style="&st1;" d="M237.805,370.899   c0-0.783-0.634-1.417-1.417-1.417"/>
	<path style="&st1;" d="M236.388,369.482   c-0.782,0-1.417,0.634-1.417,1.417"/>
	<path style="&st1;" d="M234.972,370.899   c0,0.781,0.634,1.416,1.417,1.416"/>
	<path style="&st1;" d="M236.388,372.315   c0.782,0,1.417-0.635,1.417-1.416"/>
	<path style="&st1;" d="M260.468,404.892   c0-0.782-0.635-1.416-1.417-1.416"/>
	<path style="&st1;" d="M259.051,403.476   c-0.782,0-1.417,0.634-1.417,1.416"/>
	<path style="&st1;" d="M257.634,404.892   c0,0.783,0.635,1.417,1.417,1.417"/>
	<path style="&st1;" d="M259.051,406.309   c0.782,0,1.417-0.634,1.417-1.417"/>
	<path style="&st1;" d="M237.805,404.892   c0-0.782-0.634-1.416-1.417-1.416"/>
	<path style="&st1;" d="M236.388,403.476   c-0.782,0-1.417,0.634-1.417,1.416"/>
	<path style="&st1;" d="M234.972,404.892   c0,0.783,0.634,1.417,1.417,1.417"/>
	<path style="&st1;" d="M236.388,406.309   c0.782,0,1.417-0.634,1.417-1.417"/>
	<path style="&st1;" d="M260.468,438.888   c0-0.782-0.635-1.417-1.417-1.417"/>
	<path style="&st1;" d="M259.051,437.471   c-0.782,0-1.417,0.635-1.417,1.417"/>
	<path style="&st1;" d="M257.634,438.888   c0,0.781,0.635,1.416,1.417,1.416"/>
	<path style="&st1;" d="M259.051,440.304   c0.782,0,1.417-0.635,1.417-1.416"/>
	<path style="&st1;" d="M237.805,438.888   c0-0.782-0.634-1.417-1.417-1.417"/>
	<path style="&st1;" d="M236.388,437.471   c-0.782,0-1.417,0.635-1.417,1.417"/>
	<path style="&st1;" d="M234.972,438.888   c0,0.781,0.634,1.416,1.417,1.416"/>
	<path style="&st1;" d="M236.388,440.304   c0.782,0,1.417-0.635,1.417-1.416"/>
	<path style="&st1;" d="M260.468,472.882   c0-0.782-0.635-1.416-1.417-1.416"/>
	<path style="&st1;" d="M259.051,471.466   c-0.782,0-1.417,0.634-1.417,1.416"/>
	<path style="&st1;" d="M257.634,472.882   c0,0.782,0.635,1.416,1.417,1.416"/>
	<path style="&st1;" d="M259.051,474.298   c0.782,0,1.417-0.634,1.417-1.416"/>
	<path style="&st1;" d="M237.805,472.882   c0-0.782-0.634-1.416-1.417-1.416"/>
	<path style="&st1;" d="M236.388,471.466   c-0.782,0-1.417,0.634-1.417,1.416"/>
	<path style="&st1;" d="M234.972,472.882   c0,0.782,0.634,1.416,1.417,1.416"/>
	<path style="&st1;" d="M236.388,474.298   c0.782,0,1.417-0.634,1.417-1.416"/>
	<path d="M141.487,123.673 l0,374.704 l229.463,0 l0,-374.704 l-229.463,0 " style="&st2;"/>
	<g>
		<path style="&st2;" d="M257.636,200.927    c-1.613-2.738-5.14-3.649-7.878-2.037"/>
		<path style="&st2;" d="M249.758,198.89    c-0.883,0.52-1.518,1.155-2.037,2.037"/>
		<path style="&st2;" d="M237.805,200.927    c1.613,2.738,5.141,3.65,7.879,2.037"/>
		<path style="&st2;" d="M245.683,202.964    c0.881-0.519,1.518-1.154,2.037-2.037"/>
	</g>
	<g>
		<path style="&st2;" d="M257.636,234.921    c-1.613-2.738-5.14-3.65-7.878-2.037"/>
		<path style="&st2;" d="M249.758,232.884    c-0.883,0.519-1.518,1.155-2.037,2.037"/>
		<path style="&st2;" d="M237.805,234.921    c1.613,2.738,5.141,3.65,7.879,2.037"/>
		<path style="&st2;" d="M245.683,236.958    c0.881-0.52,1.518-1.154,2.037-2.037"/>
	</g>
	<g>
		<path style="&st2;" d="M257.636,268.915    c-1.613-2.738-5.14-3.649-7.878-2.037"/>
		<path style="&st2;" d="M249.758,266.878    c-0.883,0.52-1.518,1.155-2.037,2.037"/>
		<path style="&st2;" d="M237.805,268.915    c1.613,2.738,5.141,3.65,7.879,2.037"/>
		<path style="&st2;" d="M245.683,270.952    c0.881-0.52,1.518-1.154,2.037-2.037"/>
	</g>
	<g>
		<path style="&st2;" d="M257.636,336.904    c-1.613-2.738-5.14-3.649-7.878-2.037"/>
		<path style="&st2;" d="M249.758,334.867    c-0.883,0.52-1.518,1.155-2.037,2.037"/>
		<path style="&st2;" d="M237.805,336.904    c1.613,2.738,5.141,3.65,7.879,2.037"/>
		<path style="&st2;" d="M245.683,338.941    c0.881-0.52,1.518-1.154,2.037-2.037"/>
	</g>
	<g>
		<path style="&st2;" d="M257.636,370.899    c-1.613-2.738-5.14-3.649-7.878-2.037"/>
		<path style="&st2;" d="M249.758,368.862    c-0.883,0.52-1.518,1.155-2.037,2.037"/>
		<path style="&st2;" d="M237.805,370.899    c1.613,2.738,5.141,3.65,7.879,2.037"/>
		<path style="&st2;" d="M245.683,372.936    c0.881-0.52,1.518-1.154,2.037-2.037"/>
	</g>
	<g>
		<path style="&st2;" d="M257.636,404.892    c-1.613-2.738-5.14-3.65-7.878-2.037"/>
		<path style="&st2;" d="M249.758,402.855    c-0.883,0.52-1.518,1.155-2.037,2.037"/>
		<path style="&st2;" d="M237.805,404.892    c1.613,2.738,5.141,3.65,7.879,2.037"/>
		<path style="&st2;" d="M245.683,406.93    c0.881-0.52,1.518-1.154,2.037-2.037"/>
	</g>
	<g>
		<path style="&st2;" d="M257.636,438.888    c-1.613-2.738-5.14-3.649-7.878-2.037"/>
		<path style="&st2;" d="M249.758,436.85    c-0.883,0.52-1.518,1.155-2.037,2.037"/>
		<path style="&st2;" d="M237.805,438.888    c1.613,2.738,5.141,3.65,7.879,2.037"/>
		<path style="&st2;" d="M245.683,440.925    c0.881-0.52,1.518-1.154,2.037-2.037"/>
	</g>
	<g>
		<path style="&st2;" d="M257.636,472.882    c-1.613-2.738-5.14-3.649-7.878-2.037"/>
		<path style="&st2;" d="M249.758,470.845    c-0.883,0.52-1.518,1.155-2.037,2.037"/>
		<path style="&st2;" d="M237.805,472.882    c1.613,2.738,5.141,3.65,7.879,2.037"/>
		<path style="&st2;" d="M245.683,474.919    c0.881-0.52,1.518-1.154,2.037-2.037"/>
	</g>
</g>
<g id="キャプション">
	<a ewd:innerGroupID="9" style="cursor:pointer;">
		<g>
			<path d="M141.487,472.882h93.485" style="&st3;"/>
			<text transform="matrix(1 0 0 1 114.0366 474.8143)"><tspan style="&st5;" x="0" y="0">1</tspan></text>
		</g>
	</a>
	<a ewd:innerGroupID="8" style="cursor:pointer;">
		<g>
			<path d="M141.487,438.888h93.485" style="&st3;"/>
			<text transform="matrix(1 0 0 1 113.8061 441.5438)"><tspan style="&st5;" x="0" y="0">1</tspan></text>
		</g>
	</a>
	<a ewd:innerGroupID="7" style="cursor:pointer;">
		<g>
			<path d="M141.487,404.892h93.485" style="&st3;"/>
			<text transform="matrix(1 0 0 1 113.8061 407.5506)"><tspan style="&st5;" x="0" y="0">1</tspan></text>
		</g>
	</a>
	<a ewd:innerGroupID="6" style="cursor:pointer;">
		<g>
			<path d="M141.487,370.899h93.485" style="&st3;"/>
			<text transform="matrix(1 0 0 1 113.8061 373.5555)"><tspan style="&st5;" x="0" y="0">1</tspan></text>
		</g>
	</a>
	<a ewd:innerGroupID="5" style="cursor:pointer;">
		<g>
			<path d="M141.487,336.904h93.485" style="&st3;"/>
			<text transform="matrix(1 0 0 1 113.8061 339.5614)"><tspan style="&st5;" x="0" y="0">1</tspan></text>
		</g>
	</a>
	<a ewd:innerGroupID="4" style="cursor:pointer;">
		<g>
			<path d="M370.95,302.91 l-186.97,0 l0,-33.995 l50.992,0 " style="&st3;"/>
			<path d="M319.957,302.91 l0,169.972 l-59.489,0 " style="&st3;"/>
			<path d="M319.957,438.888h-59.489" style="&st3;"/>
			<path d="M319.957,404.892h-59.489" style="&st3;"/>
			<path d="M319.957,370.899h-59.489" style="&st3;"/>
			<path d="M319.957,336.904h-59.489" style="&st3;"/>
			<path d="M318.765,301.907 l-0.271,0.47 l-0.094,0.533 l0.094,0.532 l0.271,0.471 l0.413,0.345 l0.507,0.187 l0.544,0 l0.508,-0.187 l0.413,-0.345 l0.272,-0.471 l0.094,-0.532 l-0.094,-0.533 l-0.272,-0.47 l-0.413,-0.346 l-0.508,-0.187 l-0.544,0 l-0.507,0.187 l-0.413,0.346 l0.394,0.711 l0,0.584 l0.374,0.444 l0.572,0.099 l0.504,-0.288 l0.199,-0.547 l-0.199,-0.547 l-0.504,-0.289 l-0.572,0.099 l0.424,0.737 " style="&st3;"/>
			<path d="M318.765,335.901 l-0.271,0.471 l-0.094,0.532 l0.094,0.532 l0.271,0.471 l0.413,0.346 l0.507,0.187 l0.544,0 l0.508,-0.187 l0.413,-0.346 l0.272,-0.471 l0.094,-0.532 l-0.094,-0.532 l-0.272,-0.471 l-0.413,-0.346 l-0.508,-0.186 l-0.544,0 l-0.507,0.186 l-0.413,0.346 l0.394,0.712 l0,0.583 l0.374,0.445 l0.572,0.099 l0.504,-0.289 l0.199,-0.547 l-0.199,-0.547 l-0.504,-0.289 l-0.572,0.1 l0.424,0.736 " style="&st3;"/>
			<path d="M318.765,369.896 l-0.271,0.47 l-0.094,0.533 l0.094,0.531 l0.271,0.471 l0.413,0.346 l0.507,0.187 l0.544,0 l0.508,-0.187 l0.413,-0.346 l0.272,-0.471 l0.094,-0.531 l-0.094,-0.533 l-0.272,-0.47 l-0.413,-0.345 l-0.508,-0.188 l-0.544,0 l-0.507,0.188 l-0.413,0.345 l0.394,0.71 l0,0.584 l0.374,0.445 l0.572,0.099 l0.504,-0.289 l0.199,-0.546 l-0.199,-0.548 l-0.504,-0.288 l-0.572,0.099 l0.424,0.737 " style="&st3;"/>
			<path d="M318.765,403.889 l-0.271,0.471 l-0.094,0.532 l0.094,0.534 l0.271,0.47 l0.413,0.346 l0.507,0.187 l0.544,0 l0.508,-0.187 l0.413,-0.346 l0.272,-0.47 l0.094,-0.534 l-0.094,-0.532 l-0.272,-0.471 l-0.413,-0.345 l-0.508,-0.187 l-0.544,0 l-0.507,0.187 l-0.413,0.345 l0.394,0.711 l0,0.584 l0.374,0.446 l0.572,0.098 l0.504,-0.288 l0.199,-0.548 l-0.199,-0.545 l-0.504,-0.29 l-0.572,0.1 l0.424,0.735 " style="&st3;"/>
			<path d="M318.765,437.885 l-0.271,0.47 l-0.094,0.533 l0.094,0.532 l0.271,0.469 l0.413,0.346 l0.507,0.188 l0.544,0 l0.508,-0.188 l0.413,-0.346 l0.272,-0.469 l0.094,-0.532 l-0.094,-0.533 l-0.272,-0.47 l-0.413,-0.346 l-0.508,-0.188 l-0.544,0 l-0.507,0.188 l-0.413,0.346 l0.394,0.711 l0,0.584 l0.374,0.444 l0.572,0.099 l0.504,-0.289 l0.199,-0.546 l-0.199,-0.547 l-0.504,-0.289 l-0.572,0.099 l0.424,0.737 " style="&st3;"/>
			<text transform="matrix(1 0 0 1 378.4721 305.5672)"><tspan style="&st5;" x="0" y="0">1</tspan></text>
		</g>
	</a>
	<a ewd:innerGroupID="3" style="cursor:pointer;">
		<g>
			<path d="M141.487,234.921h93.485" style="&st3;"/>
			<text transform="matrix(1 0 0 1 113.8061 237.5785)"><tspan style="&st5;" x="0" y="0">1</tspan></text>
		</g>
	</a>
	<a ewd:innerGroupID="2" style="cursor:pointer;">
		<g>
			<path d="M141.487,200.927h93.485" style="&st3;"/>
			<text transform="matrix(1 0 0 1 113.8061 203.5843)"><tspan style="&st5;" x="0" y="0">1</tspan></text>
		</g>
	</a>
	<a ewd:innerGroupID="1" style="cursor:pointer;">
		<g>
			<path d="M260.468,268.915 l59.489,0 l0,-101.983 l-178.47,0 " style="&st3;"/>
			<path d="M319.957,200.927h-59.489" style="&st3;"/>
			<path d="M319.957,234.921h-59.489" style="&st3;"/>
			<path d="M318.765,199.924 l-0.271,0.47 l-0.094,0.533 l0.094,0.533 l0.271,0.47 l0.413,0.345 l0.507,0.187 l0.544,0 l0.508,-0.187 l0.413,-0.345 l0.272,-0.47 l0.094,-0.533 l-0.094,-0.533 l-0.272,-0.47 l-0.413,-0.346 l-0.508,-0.187 l-0.544,0 l-0.507,0.187 l-0.413,0.346 l0.394,0.711 l0,0.584 l0.374,0.444 l0.572,0.1 l0.504,-0.29 l0.199,-0.546 l-0.199,-0.547 l-0.504,-0.289 l-0.572,0.099 l0.424,0.737 " style="&st3;"/>
			<path d="M318.765,233.918 l-0.271,0.47 l-0.094,0.533 l0.094,0.533 l0.271,0.47 l0.413,0.346 l0.507,0.187 l0.544,0 l0.508,-0.187 l0.413,-0.346 l0.272,-0.47 l0.094,-0.533 l-0.094,-0.533 l-0.272,-0.47 l-0.413,-0.345 l-0.508,-0.187 l-0.544,0 l-0.507,0.187 l-0.413,0.345 l0.394,0.712 l0,0.583 l0.374,0.445 l0.572,0.099 l0.504,-0.289 l0.199,-0.547 l-0.199,-0.547 l-0.504,-0.288 l-0.572,0.099 l0.424,0.736 " style="&st3;"/>
			<text transform="matrix(1 0 0 1 113.8061 169.5897)"><tspan style="&st5;" x="0" y="0">1</tspan></text>
		</g>
	</a>
	<a ewd:code="3B" ewd:figtype="jbc" style="cursor:pointer;">
		<path style="fill:#FFFFFF;stroke:#000000;stroke-width:0.8;" d="M130.428,172.323c2.977,0,5.391-2.414,5.391-5.39    c0-2.977-2.414-5.391-5.391-5.391h-4.582c-2.977,0-5.391,2.413-5.391,5.391c0,2.977,2.414,5.39,5.391,5.39H130.428z"/>
		<text transform="matrix(1 0 0 1 123.2446 169.7254)"><tspan style="&st5;" x="0" y="0">3B</tspan></text>
	</a>
	<a ewd:code="3C" ewd:figtype="jbc" style="cursor:pointer;">
		<path style="fill:#FFFFFF;stroke:#000000;stroke-width:0.8;" d="M130.428,206.317c2.977,0,5.391-2.414,5.391-5.39    c0-2.977-2.414-5.391-5.391-5.391h-4.582c-2.977,0-5.391,2.414-5.391,5.391c0,2.977,2.414,5.39,5.391,5.39H130.428z"/>
		<text transform="matrix(1 0 0 1 123.0239 203.7201)"><tspan style="&st5;" x="0" y="0">3C</tspan></text>
	</a>
	<a ewd:code="3D" ewd:figtype="jbc" style="cursor:pointer;">
		<path style="fill:#FFFFFF;stroke:#000000;stroke-width:0.8;" d="M130.428,240.311c2.977,0,5.391-2.414,5.391-5.39    c0-2.977-2.414-5.391-5.391-5.391h-4.582c-2.977,0-5.391,2.414-5.391,5.391c0,2.977,2.414,5.39,5.391,5.39H130.428z"/>
		<text transform="matrix(1 0 0 1 123.0239 237.7142)"><tspan style="&st5;" x="0" y="0">3D</tspan></text>
	</a>
	<a ewd:code="3E" ewd:figtype="jbc" style="cursor:pointer;">
		<path style="fill:#FFFFFF;stroke:#000000;stroke-width:0.8;" d="M130.428,342.294c2.977,0,5.391-2.413,5.391-5.39    c0-2.978-2.414-5.391-5.391-5.391h-4.582c-2.977,0-5.391,2.413-5.391,5.391c0,2.976,2.414,5.39,5.391,5.39H130.428z"/>
		<text transform="matrix(1 0 0 1 123.2446 339.6971)"><tspan style="&st5;" x="0" y="0">3E</tspan></text>
	</a>
	<a ewd:code="3F" ewd:figtype="jbc" style="cursor:pointer;">
		<path style="fill:#FFFFFF;stroke:#000000;stroke-width:0.8;" d="M130.428,376.289c2.977,0,5.391-2.413,5.391-5.39    c0-2.978-2.414-5.391-5.391-5.391h-4.582c-2.977,0-5.391,2.413-5.391,5.391c0,2.977,2.414,5.39,5.391,5.39H130.428z"/>
		<text transform="matrix(1 0 0 1 123.4692 373.6922)"><tspan style="&st5;" x="0" y="0">3F</tspan></text>
	</a>
	<a ewd:code="3G" ewd:figtype="jbc" style="cursor:pointer;">
		<path style="fill:#FFFFFF;stroke:#000000;stroke-width:0.8;" d="M130.428,410.283c2.977,0,5.391-2.413,5.391-5.391    c0-2.977-2.414-5.39-5.391-5.39h-4.582c-2.977,0-5.391,2.413-5.391,5.39c0,2.978,2.414,5.391,5.391,5.391H130.428z"/>
		<text transform="matrix(1 0 0 1 122.8012 407.6864)"><tspan style="&st5;" x="0" y="0">3G</tspan></text>
	</a>
	<a ewd:code="3H" ewd:figtype="jbc" style="cursor:pointer;">
		<path style="fill:#FFFFFF;stroke:#000000;stroke-width:0.8;" d="M130.428,444.277c2.977,0,5.391-2.414,5.391-5.39    c0-2.978-2.414-5.391-5.391-5.391h-4.582c-2.977,0-5.391,2.413-5.391,5.391c0,2.976,2.414,5.39,5.391,5.39H130.428z"/>
		<text transform="matrix(1 0 0 1 123.0239 441.6795)"><tspan style="&st5;" x="0" y="0">3H</tspan></text>
	</a>
	<a ewd:code="3I" ewd:figtype="jbc" style="cursor:pointer;">
		<path style="fill:#FFFFFF;stroke:#000000;stroke-width:0.8;" d="M130.659,477.547c2.977,0,5.39-2.413,5.39-5.39    c0-2.977-2.414-5.391-5.39-5.391h-4.582c-2.977,0-5.39,2.413-5.39,5.391c0,2.977,2.414,5.39,5.39,5.39H130.659z"/>
		<text transform="matrix(1 0 0 1 125.0317 474.95)"><tspan style="&st5;" x="0" y="0">3I</tspan></text>
	</a>
	<text transform="matrix(1 0 0 1 225.6938 195.2235)"><tspan style="&st5;" x="0" y="0">80A GLOW2</tspan></text>
	<text transform="matrix(1 0 0 1 225.6938 228.89)"><tspan style="&st5;" x="0" y="0">80A GLOW1</tspan></text>
	<text transform="matrix(1 0 0 1 244.5883 263.0565)"><tspan style="&st5;" x="0" y="0">*1</tspan></text>
	<text transform="matrix(1 0 0 1 231.9203 330.7235)"><tspan style="&st5;" x="0" y="0">50A HTR</tspan></text>
	<text transform="matrix(1 0 0 1 221.4692 364.9071)"><tspan style="&st5;" x="0" y="0">50A AM1 NO.2</tspan></text>
	<text transform="matrix(1 0 0 1 231.9164 399.1571)"><tspan style="&st5;" x="0" y="0">30A AM1</tspan></text>
	<text transform="matrix(1 0 0 1 221.4692 432.6571)"><tspan style="&st5;" x="0" y="0">50A AM1 NO.3</tspan></text>
	<text transform="matrix(1 0 0 1 221.6938 466.4071)"><tspan style="&st5;" x="0" y="0">50A ALT MAIN</tspan></text>
	<a ewd:code="3A" ewd:figtype="jbc" style="cursor:pointer;">
		<path style="fill:#FFFFFF;stroke:#000000;stroke-width:0.8;" d="M395.094,308.3c2.976,0,5.391-2.414,5.391-5.39    c0-2.977-2.414-5.391-5.391-5.391h-4.582c-2.977,0-5.39,2.414-5.39,5.391c0,2.977,2.413,5.39,5.39,5.39H395.094z"/>
		<text transform="matrix(1 0 0 1 387.9106 305.703)"><tspan style="&st5;" x="0" y="0">3A</tspan></text>
	</a>
	<text transform="matrix(1 0 0 1 240.3622 116.3026)"><tspan style="&st6;" x="0" y="0">100A ALT (1HZ)</tspan></text>
	<text transform="matrix(1 0 0 1 225.3388 106.3026)"><tspan style="&st6;" x="0" y="0">* 1:140A ALT (1GR-FE, 1VD-FTV)</tspan></text>
	<text transform="matrix(1 0 0 1 146.4999 143.1527)"><tspan style="&st7;" x="0" y="0">Unit A</tspan></text>
</g>
</svg>