<?xml version="1.0"?>
<!-- Generator: Adobe Illustrator 18.1.1, SVG Export Plug-In . SVG Version: 6.00 Build 0)  -->
<!DOCTYPE svg PUBLIC "-//W3C//DTD SVG 1.0//EN" "http://www.w3.org/TR/2001/REC-SVG-20010904/DTD/svg10.dtd"[
	<!ENTITY ns_flows "http://ns.adobe.com/Flows/1.0/">
	<!ENTITY ns_svg "http://www.w3.org/2000/svg">
	<!ENTITY ns_xlink "http://www.w3.org/1999/xlink">
	<!ENTITY st0 "fill:none;stroke:#FFFFFF;stroke-width:0.2;">
	<!ENTITY st1 "fill:none;stroke:#000000;stroke-width:0.6;stroke-linecap:round;stroke-linejoin:round;">
	<!ENTITY st2 "fill:none;stroke:#000000;stroke-linecap:round;stroke-linejoin:round;">
	<!ENTITY st3 "fill:none;stroke:#000000;stroke-width:1.1331;stroke-linecap:round;stroke-linejoin:round;">
	<!ENTITY st4 "fill:none;stroke:#FFFFFF;stroke-width:2;stroke-linecap:round;stroke-linejoin:round;">
	<!ENTITY st5 "fill:none;stroke:#000000;stroke-width:0.5;stroke-linecap:round;stroke-linejoin:round;">
	<!ENTITY st6 "fill:none;stroke:#000000;stroke-width:0.8;">
	<!ENTITY st7 "font-family:'Arial'; font-size:8px;">
	<!ENTITY st8 "font-family:'Arial'; font-size:12px;">
	<!ENTITY st9 "font-family:'Arial'; font-size:10px;">
	<!ENTITY st10 "font-family:'Arial'; font-size:21px;">
	<!ATTLIST svg
		xmlns:ewd CDATA #FIXED "http://shcl.co.jp/ewd"
		xmlns:a CDATA #FIXED "http://ns.adobe.com/AdobeSVGViewerExtensions/3.0/"
		ewd:ver CDATA #IMPLIED>
	<!ATTLIST a
		ewd:innerGroupID CDATA #IMPLIED
		ewd:figtype CDATA #IMPLIED
		ewd:code CDATA #IMPLIED
		ewd:pinNo CDATA #IMPLIED>
]>
<svg version="1.0" x="0px" y="0px" viewBox="0 0 1006.499 643.664" style="enable-background:new 0 0 1006.499 643.664;" xml:space="preserve" width="1006.499" height="643.664" onload="call_execInitLoadProc_svg('location')" ewd:ver="2.3.1.16" xmlns="&ns_svg;" xmlns:a="http://ns.adobe.com/AdobeSVGViewerExtensions/3.0/" xmlns:ewd="http://shcl.co.jp/ewd" xmlns:xlink="&ns_xlink;">
<script type="text/javascript" xlink:href="../../../../../system/js/ewd/fig/svgfig.js"/>
<g id="WAKU">
	<path d="M0.1,0.1v643.464h510.236v-643.464h-510.236z" style="&st0;"/>
	<path d="M496.163,0.1v643.464h510.236v-643.464h-510.236z" style="&st0;"/>
</g>
<g id="レイヤ_xFF0D__1">
	<path style="&st1;" d="M369.808,308.266   c0-2.347-1.902-4.249-4.25-4.249"/>
	<path style="&st1;" d="M365.558,380.503   c2.348,0,4.25-1.902,4.25-4.248"/>
	<path style="&st2;" d="M380.431,310.39   c0-4.693-3.805-8.499-8.499-8.499"/>
	<path style="&st2;" d="M371.932,384.753   c3.129,0,5.796-1.539,7.359-4.25"/>
	<path style="&st2;" d="M416.549,380.503   c9.388,0,16.997-7.609,16.997-16.997"/>
	<path style="&st2;" d="M433.546,362.257   c0-2.027-0.609-3.756-1.883-5.335"/>
	<path style="&st1;" d="M425.048,365.631   c0-4.693-3.805-8.499-8.499-8.499"/>
	<path style="&st1;" d="M416.549,357.132   c-4.693,0-8.498,3.806-8.498,8.499"/>
	<path style="&st1;" d="M408.051,365.631   c0,4.694,3.805,8.499,8.498,8.499"/>
	<path style="&st1;" d="M416.549,374.13   c4.694,0,8.499-3.805,8.499-8.499"/>
	<path style="&st2;" d="M91.479,355.008   c-8.214,2.816-12.589,11.758-9.773,19.972"/>
	<path style="&st2;" d="M81.705,374.979   c1.632,4.759,5.014,8.142,9.773,9.773"/>
	<path style="&st2;" d="M99.977,351.821   c8.214-2.816,12.59-11.758,9.773-19.973"/>
	<path style="&st2;" d="M109.751,331.848   c-1.632-4.759-5.014-8.141-9.773-9.773"/>
	<path style="&st1;" d="M180.714,261.523   c0-5.867-4.756-10.623-10.624-10.623"/>
	<path style="&st1;" d="M170.091,250.9   c-5.867,0-10.623,4.756-10.623,10.623"/>
	<path style="&st1;" d="M159.468,261.523   c0,5.867,4.756,10.623,10.623,10.623"/>
	<path style="&st1;" d="M170.091,272.146   c5.867,0,10.624-4.756,10.624-10.623"/>
	<path style="&st1;" d="M379.291,380.503   c0.783-1.354,1.14-2.685,1.14-4.248"/>
	<path d="M204.085,304.016h161.473" style="&st1;"/>
	<path d="M204.085,380.503h161.473" style="&st1;"/>
	<path d="M204.085,304.016l0,76.487" style="&st1;"/>
	<path d="M369.808,308.266l0,23.371" style="&st1;"/>
	<path d="M369.808,352.884l0,23.371" style="&st1;"/>
	<path d="M369.808,331.637h8.498" style="&st1;"/>
	<path d="M369.808,352.884h8.498" style="&st1;"/>
	<path d="M378.306,331.637l0,21.247" style="&st1;"/>
	<path d="M335.814,346.51 l0,21.246 l21.246,0 l0,-21.246 l-21.246,0 " style="&st1;"/>
	<path d="M335.814,316.764 l0,21.247 l21.246,0 l0,-21.247 l-21.246,0 " style="&st1;"/>
	<path d="M306.068,316.764 l0,21.247 l21.246,0 l0,-21.247 l-21.246,0 " style="&st1;"/>
	<path d="M276.324,346.51 l0,21.246 l21.246,0 l0,-21.246 l-21.246,0 " style="&st1;"/>
	<path d="M276.324,316.764 l0,21.247 l21.246,0 l0,-21.247 l-21.246,0 " style="&st1;"/>
	<path d="M246.578,346.51 l0,21.246 l21.247,0 l0,-21.246 l-21.247,0 " style="&st1;"/>
	<path d="M246.578,316.764 l0,21.247 l21.247,0 l0,-21.247 l-21.247,0 " style="&st1;"/>
	<path d="M216.833,346.51 l0,21.246 l21.246,0 l0,-21.246 l-21.246,0 " style="&st1;"/>
	<path d="M316.691,297.642l14.873,4.249" style="&st2;"/>
	<path d="M380.431,328.662h14.872" style="&st2;"/>
	<path d="M380.431,345.234h14.872" style="&st1;"/>
	<path d="M388.929,328.662l0,16.572" style="&st1;"/>
	<path d="M395.303,332.911h16.997" style="&st2;"/>
	<path d="M379.291,380.503h37.258" style="&st2;"/>
	<path d="M433.546,362.257l0,1.249" style="&st2;"/>
	<path d="M412.3,332.911l19.362,24.012" style="&st2;"/>
	<path d="M331.564,291.268l0,10.623" style="&st2;"/>
	<path d="M359.185,291.268l0,10.623" style="&st2;"/>
	<path d="M331.564,291.268h27.621" style="&st2;"/>
	<path d="M231.705,287.019l0,10.623" style="&st2;"/>
	<path d="M204.085,287.019h27.62" style="&st2;"/>
	<path d="M303.943,384.753 l0,10.623 l27.621,0 l0,-10.623 " style="&st2;"/>
	<path d="M165.842,401.75h38.243" style="&st2;"/>
	<path d="M204.085,384.753l0,16.997" style="&st2;"/>
	<path d="M165.842,393.251l0,8.499" style="&st2;"/>
	<path d="M165.842,384.753l0,8.498" style="&st1;"/>
	<path d="M165.842,384.753h38.243" style="&st1;"/>
	<path d="M133.972,384.753l0,8.498" style="&st1;"/>
	<path d="M133.972,393.251h31.87" style="&st2;"/>
	<path d="M133.972,384.753h31.87" style="&st1;"/>
	<path d="M133.972,393.251l0,12.748" style="&st2;"/>
	<path d="M91.479,384.753l0,21.246" style="&st2;"/>
	<path d="M91.479,405.999h42.493" style="&st2;"/>
	<path d="M91.479,384.753h42.493" style="&st1;"/>
	<path d="M91.479,355.008l8.498,-3.187" style="&st2;"/>
	<path d="M99.977,322.076l14.873,-18.06" style="&st2;"/>
	<path d="M114.85,289.144l0,14.872" style="&st2;"/>
	<path d="M114.85,289.144h21.247" style="&st2;"/>
	<path d="M136.097,233.903l0,55.241" style="&st2;"/>
	<path d="M127.598,225.404l8.499,8.499" style="&st2;"/>
	<path d="M161.592,191.41l42.493,42.493" style="&st2;"/>
	<path d="M127.598,225.404l33.994,-33.994" style="&st2;"/>
	<path d="M204.085,233.903l0,53.116" style="&st2;"/>
	<path d="M204.085,287.019l0,10.623" style="&st1;"/>
	<path d="M204.085,297.642h27.62" style="&st1;"/>
	<path d="M231.705,297.642h84.986" style="&st2;"/>
	<path d="M331.564,301.891h27.621" style="&st1;"/>
	<path d="M359.185,301.891h12.747" style="&st2;"/>
	<path d="M395.303,328.662l0,4.249" style="&st2;"/>
	<path d="M395.303,332.911l0,12.323" style="&st1;"/>
	<path d="M380.431,310.39l0,18.272" style="&st2;"/>
	<path d="M380.431,328.662l0,47.593" style="&st1;"/>
	<path d="M204.085,384.753h99.858" style="&st2;"/>
	<path d="M303.943,384.753h27.621" style="&st1;"/>
	<path d="M331.564,384.753h40.368" style="&st2;"/>
	<path d="M931.27,280.335l0,2.431" style="&st2;"/>
	<path d="M837.31,95.299l0,2.43" style="&st2;"/>
	<path d="M763.12,95.299l0,2.43" style="&st2;"/>
	<path d="M692.481,95.299l0,2.43" style="&st2;"/>
	<path d="M620.786,95.299l0,2.43" style="&st2;"/>
	<path style="&st1;" d="M684.991,500.302   c2.034,0,3.683-1.648,3.683-3.683"/>
	<path style="&st1;" d="M688.673,496.619   c0-2.034-1.649-3.684-3.683-3.684"/>
	<path style="&st1;" d="M684.991,492.935   c-2.034,0-3.683,1.649-3.683,3.684"/>
	<path style="&st1;" d="M681.308,496.619   c0,2.034,1.649,3.683,3.683,3.683"/>
	<path style="&st1;" d="M719.976,500.302   c2.034,0,3.683-1.648,3.683-3.683"/>
	<path style="&st1;" d="M723.659,496.619   c0-2.034-1.648-3.684-3.683-3.684"/>
	<path style="&st1;" d="M719.976,492.935   c-2.034,0-3.683,1.649-3.683,3.684"/>
	<path style="&st1;" d="M716.293,496.619   c0,2.034,1.649,3.683,3.683,3.683"/>
	<path style="&st1;" d="M754.962,500.302   c2.034,0,3.683-1.648,3.683-3.683"/>
	<path style="&st1;" d="M758.644,496.619   c0-2.034-1.648-3.684-3.683-3.684"/>
	<path style="&st1;" d="M754.962,492.935   c-2.034,0-3.683,1.649-3.683,3.684"/>
	<path style="&st1;" d="M751.279,496.619   c0,2.034,1.649,3.683,3.683,3.683"/>
	<path style="&st1;" d="M789.947,500.302   c2.033,0,3.683-1.648,3.683-3.683"/>
	<path style="&st1;" d="M793.63,496.619   c0-2.034-1.649-3.684-3.683-3.684"/>
	<path style="&st1;" d="M789.947,492.935   c-2.034,0-3.683,1.649-3.683,3.684"/>
	<path style="&st1;" d="M786.265,496.619   c0,2.034,1.648,3.683,3.683,3.683"/>
	<path style="&st1;" d="M847.949,365.884   c4.067,0,7.365-3.298,7.365-7.365"/>
	<path style="&st1;" d="M855.314,358.518   c0-4.067-3.298-7.365-7.365-7.365"/>
	<path style="&st1;" d="M847.949,351.153   c-4.067,0-7.365,3.298-7.365,7.365"/>
	<path style="&st1;" d="M840.584,358.518   c0,4.067,3.298,7.365,7.365,7.365"/>
	<path style="&st1;" d="M684.991,224.1   c2.034,0,3.683-1.649,3.683-3.683"/>
	<path style="&st1;" d="M688.673,220.418   c0-2.034-1.649-3.683-3.683-3.683"/>
	<path style="&st1;" d="M684.991,216.735   c-2.034,0-3.683,1.649-3.683,3.683"/>
	<path style="&st1;" d="M681.308,220.418   c0,2.034,1.649,3.683,3.683,3.683"/>
	<path style="&st1;" d="M719.976,224.1   c2.034,0,3.683-1.649,3.683-3.683"/>
	<path style="&st1;" d="M723.659,220.418   c0-2.034-1.648-3.683-3.683-3.683"/>
	<path style="&st1;" d="M719.976,216.735   c-2.034,0-3.683,1.649-3.683,3.683"/>
	<path style="&st1;" d="M716.293,220.418   c0,2.034,1.649,3.683,3.683,3.683"/>
	<path style="&st1;" d="M754.962,224.1   c2.034,0,3.683-1.649,3.683-3.683"/>
	<path style="&st1;" d="M758.644,220.418   c0-2.034-1.648-3.683-3.683-3.683"/>
	<path style="&st1;" d="M754.962,216.735   c-2.034,0-3.683,1.649-3.683,3.683"/>
	<path style="&st1;" d="M751.279,220.418   c0,2.034,1.649,3.683,3.683,3.683"/>
	<path style="&st1;" d="M789.947,224.1   c2.033,0,3.683-1.649,3.683-3.683"/>
	<path style="&st1;" d="M793.63,220.418   c0-2.034-1.649-3.683-3.683-3.683"/>
	<path style="&st1;" d="M789.947,216.735   c-2.034,0-3.683,1.649-3.683,3.683"/>
	<path style="&st1;" d="M786.265,220.418   c0,2.034,1.648,3.683,3.683,3.683"/>
	<path style="&st2;" d="M942.208,285.846   c2.372,0,4.296-1.923,4.296-4.296"/>
	<path style="&st2;" d="M946.504,281.55   c0-2.373-1.924-4.296-4.296-4.296"/>
	<path style="&st2;" d="M942.208,277.254   c-2.373,0-4.296,1.923-4.296,4.296"/>
	<path style="&st2;" d="M937.912,281.55   c0,2.372,1.923,4.296,4.296,4.296"/>
	<path style="&st2;" d="M847.949,56.538   c4.067,0,7.365-3.297,7.365-7.365"/>
	<path style="&st2;" d="M855.314,49.173   c0-4.067-3.298-7.365-7.365-7.365"/>
	<path style="&st2;" d="M847.949,41.807   c-4.067,0-7.365,3.298-7.365,7.365"/>
	<path style="&st2;" d="M840.584,49.173   c0,4.068,3.298,7.365,7.365,7.365"/>
	<path style="&st2;" d="M848.248,100.809   c2.373,0,4.297-1.923,4.297-4.296"/>
	<path style="&st2;" d="M852.545,96.513   c0-2.372-1.924-4.296-4.297-4.296"/>
	<path style="&st2;" d="M848.248,92.218   c-2.372,0-4.295,1.923-4.295,4.296"/>
	<path style="&st2;" d="M843.953,96.513   c0,2.373,1.923,4.296,4.295,4.296"/>
	<path style="&st2;" d="M774.058,100.809   c2.372,0,4.296-1.923,4.296-4.296"/>
	<path style="&st2;" d="M778.353,96.513   c0-2.372-1.924-4.296-4.296-4.296"/>
	<path style="&st2;" d="M774.058,92.218   c-2.373,0-4.296,1.923-4.296,4.296"/>
	<path style="&st2;" d="M769.762,96.513   c0,2.373,1.923,4.296,4.296,4.296"/>
	<path style="&st2;" d="M703.418,100.809   c2.373,0,4.296-1.923,4.296-4.296"/>
	<path style="&st2;" d="M707.714,96.513   c0-2.372-1.923-4.296-4.296-4.296"/>
	<path style="&st2;" d="M703.418,92.218   c-2.373,0-4.296,1.923-4.296,4.296"/>
	<path style="&st2;" d="M699.122,96.513   c0,2.373,1.923,4.296,4.296,4.296"/>
	<path style="&st2;" d="M631.724,100.809   c2.372,0,4.296-1.923,4.296-4.296"/>
	<path style="&st2;" d="M636.019,96.513   c0-2.372-1.923-4.296-4.296-4.296"/>
	<path style="&st2;" d="M631.724,92.218   c-2.373,0-4.296,1.923-4.296,4.296"/>
	<path style="&st2;" d="M627.428,96.513   c0,2.373,1.923,4.296,4.296,4.296"/>
	<path d="M665.657,478.205l0,12.89" style="&st1;"/>
	<path d="M669.339,478.205l0,12.89" style="&st1;"/>
	<path d="M665.657,478.205h3.682" style="&st1;"/>
	<path d="M676.704,485.571l0,5.524" style="&st1;"/>
	<path d="M693.277,485.571l0,5.524" style="&st1;"/>
	<path d="M676.704,485.571h16.573" style="&st1;"/>
	<path d="M669.339,491.095h7.365" style="&st1;"/>
	<path d="M665.657,491.095h3.682" style="&st1;"/>
	<path d="M704.325,491.095h-3.683" style="&st1;"/>
	<path d="M700.642,491.095h-7.365" style="&st1;"/>
	<path d="M704.325,478.205h-3.683" style="&st1;"/>
	<path d="M700.642,478.205l0,12.89" style="&st1;"/>
	<path d="M704.325,478.205l0,12.89" style="&st1;"/>
	<path d="M673.022,491.095 l0,38.668 l23.937,0 l0,-38.668 " style="&st1;"/>
	<path d="M665.657,491.095l0,71.812" style="&st1;"/>
	<path d="M704.325,491.095l0,71.812" style="&st1;"/>
	<path d="M704.325,491.095h7.365" style="&st1;"/>
	<path d="M711.69,485.571h16.572" style="&st1;"/>
	<path d="M728.262,485.571l0,5.524" style="&st1;"/>
	<path d="M711.69,485.571l0,5.524" style="&st1;"/>
	<path d="M735.627,491.095h-7.365" style="&st1;"/>
	<path d="M708.007,491.095 l0,38.668 l23.938,0 l0,-38.668 " style="&st1;"/>
	<path d="M739.31,491.095h7.366" style="&st1;"/>
	<path d="M746.676,485.571h16.572" style="&st1;"/>
	<path d="M746.676,485.571l0,5.524" style="&st1;"/>
	<path d="M770.613,491.095h-7.365" style="&st1;"/>
	<path d="M763.248,485.571l0,5.524" style="&st1;"/>
	<path d="M742.993,491.095 l0,38.668 l23.937,0 l0,-38.668 " style="&st1;"/>
	<path d="M805.599,491.095h-7.366" style="&st1;"/>
	<path d="M777.978,491.095 l0,38.668 l23.938,0 l0,-38.668 " style="&st1;"/>
	<path d="M798.233,485.571l0,5.524" style="&st1;"/>
	<path d="M781.661,485.571l0,5.524" style="&st1;"/>
	<path d="M781.661,485.571h16.572" style="&st1;"/>
	<path d="M774.296,491.095h7.365" style="&st1;"/>
	<path d="M770.613,487.412l0,3.683" style="&st1;"/>
	<path d="M774.296,487.412l0,3.683" style="&st1;"/>
	<path d="M770.613,487.412h3.683" style="&st1;"/>
	<path d="M805.599,487.412h3.682" style="&st1;"/>
	<path d="M809.281,487.412l0,12.829" style="&st1;"/>
	<path d="M809.281,500.241l0,62.666" style="&st2;"/>
	<path d="M805.599,487.412l0,3.683" style="&st1;"/>
	<path d="M770.613,491.095h3.683" style="&st1;"/>
	<path d="M805.599,491.095h3.682" style="&st1;"/>
	<path d="M735.627,491.095h3.683" style="&st1;"/>
	<path d="M735.627,487.412h3.683" style="&st1;"/>
	<path d="M739.31,487.412l0,3.683" style="&st1;"/>
	<path d="M735.627,487.412l0,3.683" style="&st1;"/>
	<path d="M653.688,455.188h8.286" style="&st2;"/>
	<path d="M653.688,500.302h8.286" style="&st2;"/>
	<path d="M653.688,455.188l0,45.114" style="&st2;"/>
	<path d="M661.974,500.302l0,62.605" style="&st2;"/>
	<path d="M661.974,467.157l0,33.145" style="&st1;"/>
	<path d="M661.974,406.392l0,48.849" style="&st2;"/>
	<path d="M661.974,455.241l0,11.916" style="&st1;"/>
	<path d="M814.805,406.392l0,48.515" style="&st2;"/>
	<path d="M814.805,454.907l0,45.395" style="&st1;"/>
	<path d="M661.974,562.907h147.307" style="&st2;"/>
	<path d="M809.281,500.302h5.524" style="&st2;"/>
	<path d="M676.704,406.392 l0,16.574 l16.573,0 l0,-16.574 " style="&st1;"/>
	<path d="M783.502,406.392 l0,16.574 l16.573,0 l0,-16.574 " style="&st1;"/>
	<path d="M693.277,406.392h90.225" style="&st2;"/>
	<path d="M676.704,406.392h16.573" style="&st2;"/>
	<path d="M661.974,406.392h14.73" style="&st2;"/>
	<path d="M783.502,406.392h16.573" style="&st2;"/>
	<path d="M800.075,406.392h14.73" style="&st2;"/>
	<path d="M742.993,422.966h27.62" style="&st1;"/>
	<path d="M770.613,422.966l3.683,11.047" style="&st1;"/>
	<path d="M774.296,434.013l0,36.828" style="&st1;"/>
	<path d="M765.089,470.841h9.207" style="&st1;"/>
	<path d="M765.089,465.315l0,5.526" style="&st1;"/>
	<path d="M748.517,465.315h16.572" style="&st1;"/>
	<path d="M742.993,422.966l-3.683,11.047" style="&st1;"/>
	<path d="M739.31,434.013l0,36.828" style="&st1;"/>
	<path d="M748.517,470.841h-9.207" style="&st1;"/>
	<path d="M748.517,465.315l0,5.526" style="&st1;"/>
	<path d="M748.517,422.966l0,42.349" style="&st1;"/>
	<path d="M765.089,422.966l0,42.349" style="&st1;"/>
	<path d="M739.31,434.013h9.207" style="&st1;"/>
	<path d="M765.089,434.013h9.207" style="&st1;"/>
	<path d="M748.517,432.172h16.572" style="&st1;"/>
	<path d="M748.517,459.792h16.572" style="&st1;"/>
	<path d="M748.517,456.109h16.572" style="&st1;"/>
	<path d="M735.627,491.095l0,71.812" style="&st1;"/>
	<path d="M739.31,491.095l0,71.812" style="&st1;"/>
	<path d="M774.296,491.095l0,71.812" style="&st1;"/>
	<path d="M770.613,491.095l0,71.812" style="&st1;"/>
	<path d="M805.599,491.095l0,71.812" style="&st1;"/>
	<path d="M858.998,460.713l0,39.589" style="&st1;"/>
	<path d="M864.521,460.713l0,39.589" style="&st2;"/>
	<path d="M858.998,460.713h5.523" style="&st2;"/>
	<path d="M814.805,500.302h49.716" style="&st2;"/>
	<path d="M814.805,455.188h44.193" style="&st2;"/>
	<path d="M858.998,455.188l0,5.525" style="&st2;"/>
	<path d="M818.487,477.745l0,22.557" style="&st1;"/>
	<path d="M818.487,477.745h40.511" style="&st1;"/>
	<path d="M836.901,477.745l0,22.557" style="&st1;"/>
	<path d="M847.949,477.745l0,22.557" style="&st1;"/>
	<path d="M844.267,451.506l0,3.682" style="&st2;"/>
	<path d="M851.633,451.506l0,3.682" style="&st2;"/>
	<path d="M840.584,450.218h1.885" style="&st2;"/>
	<path d="M842.469,450.218h11.187" style="&st1;"/>
	<path d="M853.656,450.218h1.658" style="&st2;"/>
	<path d="M840.584,451.506h3.683" style="&st2;"/>
	<path d="M844.267,451.506h7.366" style="&st1;"/>
	<path d="M851.633,451.506h3.681" style="&st2;"/>
	<path d="M840.584,450.218l0,1.288" style="&st2;"/>
	<path d="M855.314,450.218l0,1.288" style="&st2;"/>
	<path d="M842.425,446.534l0,3.684" style="&st2;"/>
	<path d="M853.474,446.534l0,3.684" style="&st2;"/>
	<path d="M842.425,446.534h11.049" style="&st2;"/>
	<path d="M847.949,446.534l0,3.684" style="&st1;"/>
	<path d="M814.805,341.946h44.193" style="&st2;"/>
	<path d="M814.805,375.091h44.193" style="&st2;"/>
	<path d="M858.998,369.566l0,5.525" style="&st2;"/>
	<path d="M858.998,369.566h2.761" style="&st2;"/>
	<path d="M861.759,369.566l0,5.525" style="&st2;"/>
	<path d="M861.759,375.091h2.762" style="&st2;"/>
	<path d="M864.521,375.091l0,-33.145" style="&st2;"/>
	<path d="M861.759,341.946h2.762" style="&st2;"/>
	<path d="M861.759,347.47l0,-5.524" style="&st2;"/>
	<path d="M858.998,347.47h2.761" style="&st2;"/>
	<path d="M858.998,347.47l0,-5.524" style="&st2;"/>
	<path d="M814.805,338.263l0,3.683" style="&st2;"/>
	<path d="M814.805,341.946l0,33.145" style="&st1;"/>
	<path d="M814.805,375.091l0,3.681" style="&st2;"/>
	<path d="M858.998,347.47l0,22.096" style="&st1;"/>
	<path d="M676.704,378.772 l0,3.683 l16.573,0 l0,-3.683 " style="&st2;"/>
	<path d="M783.502,378.772 l0,3.683 l16.573,0 l0,-3.683 " style="&st2;"/>
	<path d="M739.31,386.138h34.986" style="&st2;"/>
	<path d="M739.31,382.455l0,3.683" style="&st2;"/>
	<path d="M774.296,382.455l0,3.683" style="&st2;"/>
	<path d="M739.31,382.455h9.207" style="&st2;"/>
	<path d="M765.089,382.455h9.207" style="&st2;"/>
	<path d="M748.517,378.772l0,3.683" style="&st2;"/>
	<path d="M765.089,378.772l0,3.683" style="&st2;"/>
	<path d="M661.974,378.772h14.73" style="&st2;"/>
	<path d="M676.704,378.772h16.573" style="&st1;"/>
	<path d="M783.502,378.772h16.573" style="&st1;"/>
	<path d="M800.075,378.772h14.73" style="&st2;"/>
	<path d="M693.277,378.772h55.24" style="&st2;"/>
	<path d="M748.517,378.772h16.572" style="&st1;"/>
	<path d="M765.089,378.772h18.413" style="&st2;"/>
	<path d="M676.704,338.263 l0,-3.682 l16.573,0 l0,3.682 " style="&st2;"/>
	<path d="M783.502,338.263 l0,-3.682 l16.573,0 l0,3.682 " style="&st2;"/>
	<path d="M739.31,330.898h34.986" style="&st2;"/>
	<path d="M739.31,334.581l0,-3.683" style="&st2;"/>
	<path d="M774.296,334.581l0,-3.683" style="&st2;"/>
	<path d="M739.31,334.581h9.207" style="&st2;"/>
	<path d="M765.089,334.581h9.207" style="&st2;"/>
	<path d="M748.517,338.263l0,-3.682" style="&st2;"/>
	<path d="M765.089,338.263l0,-3.682" style="&st2;"/>
	<path d="M676.704,338.263h16.573" style="&st1;"/>
	<path d="M800.075,338.263h14.73" style="&st2;"/>
	<path d="M765.089,338.263h18.413" style="&st2;"/>
	<path d="M693.277,338.263h55.24" style="&st2;"/>
	<path d="M783.502,338.263h16.573" style="&st1;"/>
	<path d="M661.974,338.263h14.73" style="&st2;"/>
	<path d="M748.517,338.263h16.572" style="&st1;"/>
	<path d="M659.212,375.091h-2.762" style="&st2;"/>
	<path d="M659.212,369.566l0,5.525" style="&st2;"/>
	<path d="M661.974,369.566h-2.762" style="&st2;"/>
	<path d="M661.974,347.47h-2.762" style="&st2;"/>
	<path d="M656.45,375.091l0,-33.145" style="&st2;"/>
	<path d="M659.212,341.946h-2.762" style="&st2;"/>
	<path d="M659.212,347.47l0,-5.524" style="&st2;"/>
	<path d="M661.974,338.263l0,9.207" style="&st2;"/>
	<path d="M661.974,347.47l0,22.096" style="&st1;"/>
	<path d="M661.974,369.566l0,9.206" style="&st2;"/>
	<path d="M814.805,261.848h29.476" style="&st2;"/>
	<path d="M844.281,261.848h7.375" style="&st1;"/>
	<path d="M851.656,261.848h7.342" style="&st2;"/>
	<path d="M800.075,310.643h14.73" style="&st2;"/>
	<path d="M783.502,310.643h16.573" style="&st2;"/>
	<path d="M661.974,310.643h14.73" style="&st2;"/>
	<path d="M676.704,310.643h16.573" style="&st1;"/>
	<path d="M693.277,310.643h90.225" style="&st2;"/>
	<path d="M858.998,261.848l0,-5.524" style="&st2;"/>
	<path d="M783.502,310.643 l0,-16.572 l16.573,0 l0,16.572 " style="&st1;"/>
	<path d="M818.487,239.291h40.511" style="&st1;"/>
	<path d="M676.704,310.643 l0,-16.572 l16.573,0 l0,16.572 " style="&st1;"/>
	<path d="M836.901,239.291l0,-22.556" style="&st1;"/>
	<path d="M847.949,239.291l0,-22.556" style="&st1;"/>
	<path d="M809.281,216.735h5.524" style="&st2;"/>
	<path d="M661.974,154.129h147.307" style="&st2;"/>
	<path d="M814.805,310.643l0,-48.736" style="&st2;"/>
	<path d="M814.805,261.907l0,-45.172" style="&st1;"/>
	<path d="M661.974,310.643l0,-48.736" style="&st2;"/>
	<path d="M661.974,261.907l0,-12.028" style="&st1;"/>
	<path d="M661.974,249.879l0,-33.144" style="&st1;"/>
	<path d="M844.267,265.53l0,-3.682" style="&st2;"/>
	<path d="M851.633,265.53l0,-3.682" style="&st2;"/>
	<path d="M661.974,216.735l0,-62.606" style="&st2;"/>
	<path d="M653.688,261.848l0,-45.113" style="&st2;"/>
	<path d="M653.688,216.735h8.286" style="&st2;"/>
	<path d="M735.627,229.624l0,-3.682" style="&st1;"/>
	<path d="M739.31,229.624l0,-3.682" style="&st1;"/>
	<path d="M735.627,229.624h3.683" style="&st1;"/>
	<path d="M735.627,225.942h3.683" style="&st1;"/>
	<path d="M840.584,266.819l0,-1.289" style="&st2;"/>
	<path d="M851.633,265.53h3.681" style="&st2;"/>
	<path d="M844.267,265.53h7.366" style="&st1;"/>
	<path d="M805.599,225.942h3.682" style="&st1;"/>
	<path d="M770.613,225.942h3.683" style="&st1;"/>
	<path d="M840.584,265.53h3.683" style="&st2;"/>
	<path d="M770.613,229.624h3.683" style="&st1;"/>
	<path d="M774.296,229.624l0,-3.682" style="&st1;"/>
	<path d="M770.613,229.624l0,-3.682" style="&st1;"/>
	<path d="M653.688,261.848h8.286" style="&st2;"/>
	<path d="M805.599,229.624h3.682" style="&st1;"/>
	<path d="M809.281,229.624l0,-12.967" style="&st1;"/>
	<path d="M809.281,216.657l0,-62.528" style="&st2;"/>
	<path d="M774.296,225.942h7.365" style="&st1;"/>
	<path d="M781.661,231.466h16.572" style="&st1;"/>
	<path d="M781.661,231.466l0,-5.524" style="&st1;"/>
	<path d="M798.233,231.466l0,-5.524" style="&st1;"/>
	<path d="M777.978,225.942 l0,-38.669 l23.938,0 l0,38.669 " style="&st1;"/>
	<path d="M805.599,225.942h-7.366" style="&st1;"/>
	<path d="M840.584,266.819h1.697" style="&st2;"/>
	<path d="M842.281,266.819h11.375" style="&st1;"/>
	<path d="M853.656,266.819h1.658" style="&st2;"/>
	<path d="M805.599,229.624l0,-3.682" style="&st1;"/>
	<path d="M704.325,225.942h7.365" style="&st1;"/>
	<path d="M704.325,225.942l0,-71.813" style="&st1;"/>
	<path d="M711.69,231.466h16.572" style="&st1;"/>
	<path d="M711.69,231.466l0,-5.524" style="&st1;"/>
	<path d="M665.657,225.942l0,-71.813" style="&st1;"/>
	<path d="M735.627,225.942h-7.365" style="&st1;"/>
	<path d="M728.262,231.466l0,-5.524" style="&st1;"/>
	<path d="M708.007,225.942 l0,-38.669 l23.938,0 l0,38.669 " style="&st1;"/>
	<path d="M704.325,225.942h-3.683" style="&st1;"/>
	<path d="M665.657,225.942h3.682" style="&st1;"/>
	<path d="M669.339,225.942h7.365" style="&st1;"/>
	<path d="M676.704,231.466h16.573" style="&st1;"/>
	<path d="M693.277,231.466l0,-5.524" style="&st1;"/>
	<path d="M676.704,231.466l0,-5.524" style="&st1;"/>
	<path d="M665.657,238.831h3.682" style="&st1;"/>
	<path d="M700.642,225.942h-7.365" style="&st1;"/>
	<path d="M669.339,238.831l0,-12.889" style="&st1;"/>
	<path d="M704.325,238.831l0,-12.889" style="&st1;"/>
	<path d="M665.657,238.831l0,-12.889" style="&st1;"/>
	<path d="M770.613,225.942h-7.365" style="&st1;"/>
	<path d="M700.642,238.831l0,-12.889" style="&st1;"/>
	<path d="M742.993,225.942 l0,-38.669 l23.937,0 l0,38.669 " style="&st1;"/>
	<path d="M763.248,231.466l0,-5.524" style="&st1;"/>
	<path d="M704.325,238.831h-3.683" style="&st1;"/>
	<path d="M746.676,231.466l0,-5.524" style="&st1;"/>
	<path d="M673.022,225.942 l0,-38.669 l23.937,0 l0,38.669 " style="&st1;"/>
	<path d="M746.676,231.466h16.572" style="&st1;"/>
	<path d="M739.31,225.942h7.366" style="&st1;"/>
	<path d="M814.805,216.735h49.716" style="&st2;"/>
	<path d="M858.998,256.324h5.523" style="&st2;"/>
	<path d="M864.521,256.324l0,-39.589" style="&st2;"/>
	<path d="M858.998,256.324l0,-39.589" style="&st1;"/>
	<path d="M742.993,294.071h27.62" style="&st1;"/>
	<path d="M770.613,294.071l3.683,-11.048" style="&st1;"/>
	<path d="M805.599,225.942l0,-71.813" style="&st1;"/>
	<path d="M774.296,283.023l0,-36.827" style="&st1;"/>
	<path d="M765.089,246.196h9.207" style="&st1;"/>
	<path d="M818.487,239.291l0,-22.556" style="&st1;"/>
	<path d="M765.089,251.721l0,-5.525" style="&st1;"/>
	<path d="M748.517,251.721h16.572" style="&st1;"/>
	<path d="M770.613,225.942l0,-71.813" style="&st1;"/>
	<path d="M774.296,225.942l0,-71.813" style="&st1;"/>
	<path d="M739.31,225.942l0,-71.813" style="&st1;"/>
	<path d="M742.993,294.071l-3.683,-11.048" style="&st1;"/>
	<path d="M739.31,283.023l0,-36.827" style="&st1;"/>
	<path d="M748.517,246.196h-9.207" style="&st1;"/>
	<path d="M748.517,294.071l0,-42.35" style="&st1;"/>
	<path d="M748.517,251.721l0,-5.525" style="&st1;"/>
	<path d="M765.089,294.071l0,-42.35" style="&st1;"/>
	<path d="M735.627,225.942l0,-71.813" style="&st1;"/>
	<path d="M739.31,283.023h9.207" style="&st1;"/>
	<path d="M765.089,283.023h9.207" style="&st1;"/>
	<path d="M748.517,284.865h16.572" style="&st1;"/>
	<path d="M748.517,257.245h16.572" style="&st1;"/>
	<path d="M748.517,260.927h16.572" style="&st1;"/>
	<path d="M855.314,266.819l0,-1.289" style="&st2;"/>
	<path d="M842.425,270.502l0,-3.683" style="&st2;"/>
	<path d="M853.474,270.502l0,-3.683" style="&st2;"/>
	<path d="M842.425,270.502h11.049" style="&st2;"/>
	<path d="M847.949,270.502l0,-3.683" style="&st1;"/>
	<path d="M861.759,65.744h2.762" style="&st2;"/>
	<path d="M661.974,28.918l0,9.207" style="&st2;"/>
	<path d="M861.759,60.221l0,5.523" style="&st2;"/>
	<path d="M858.998,60.221h2.761" style="&st2;"/>
	<path d="M659.212,65.744h-2.762" style="&st2;"/>
	<path d="M858.998,60.221l0,5.523" style="&st2;"/>
	<path d="M661.974,60.221h-2.762" style="&st2;"/>
	<path d="M814.805,65.744h44.193" style="&st2;"/>
	<path d="M661.974,38.125h-2.762" style="&st2;"/>
	<path d="M659.212,38.125l0,-5.525" style="&st2;"/>
	<path d="M659.212,32.6h-2.762" style="&st2;"/>
	<path d="M656.45,65.744l0,-33.144" style="&st2;"/>
	<path d="M659.212,60.221l0,5.523" style="&st2;"/>
	<path d="M858.998,38.125h2.761" style="&st2;"/>
	<path d="M864.521,65.744l0,-33.144" style="&st2;"/>
	<path d="M861.759,32.6h2.762" style="&st2;"/>
	<path d="M814.805,32.6l0,33.144" style="&st1;"/>
	<path d="M748.517,28.918h16.572" style="&st1;"/>
	<path d="M861.759,38.125l0,-5.525" style="&st2;"/>
	<path d="M814.805,32.6h44.193" style="&st2;"/>
	<path d="M858.998,38.125l0,-5.525" style="&st2;"/>
	<path d="M814.805,28.918l0,3.682" style="&st2;"/>
	<path d="M814.805,65.744l0,3.684" style="&st2;"/>
	<path d="M676.704,69.428h16.573" style="&st1;"/>
	<path d="M676.704,28.918h16.573" style="&st1;"/>
	<path d="M783.502,28.918h16.573" style="&st1;"/>
	<path d="M661.974,38.125l0,22.096" style="&st1;"/>
	<path d="M858.998,38.125l0,22.096" style="&st1;"/>
	<path d="M765.089,28.918h18.413" style="&st2;"/>
	<path d="M800.075,28.918h5.54" style="&st2;"/>
	<path d="M805.615,28.918h3.5" style="&st1;"/>
	<path d="M809.115,28.918h5.69" style="&st2;"/>
	<path d="M765.089,28.918l0,-3.683" style="&st2;"/>
	<path d="M748.517,28.918l0,-3.683" style="&st2;"/>
	<path d="M765.089,25.235h9.207" style="&st2;"/>
	<path d="M739.31,25.235h9.207" style="&st2;"/>
	<path d="M774.296,25.235l0,-3.682" style="&st2;"/>
	<path d="M739.31,25.235l0,-3.682" style="&st2;"/>
	<path d="M739.31,21.553h34.986" style="&st2;"/>
	<path d="M783.502,28.918 l0,-3.683 l16.573,0 l0,3.683 " style="&st2;"/>
	<path d="M676.704,69.428 l0,3.682 l16.573,0 l0,-3.682 " style="&st2;"/>
	<path d="M783.502,69.428 l0,3.682 l16.573,0 l0,-3.682 " style="&st2;"/>
	<path d="M676.704,28.918 l0,-3.683 l16.573,0 l0,3.683 " style="&st2;"/>
	<path d="M739.31,76.793h34.986" style="&st2;"/>
	<path d="M661.974,60.221l0,9.207" style="&st2;"/>
	<path d="M800.075,69.428h5.372" style="&st2;"/>
	<path d="M805.447,69.428h4" style="&st1;"/>
	<path d="M809.447,69.428h5.358" style="&st2;"/>
	<path d="M765.089,69.428h18.413" style="&st2;"/>
	<path d="M739.31,73.11l0,3.683" style="&st2;"/>
	<path d="M783.502,69.428h16.573" style="&st1;"/>
	<path d="M748.517,69.428h16.572" style="&st1;"/>
	<path d="M774.296,73.11l0,3.683" style="&st2;"/>
	<path d="M739.31,73.11h9.207" style="&st2;"/>
	<path d="M765.089,73.11h9.207" style="&st2;"/>
	<path d="M748.517,69.428l0,3.682" style="&st2;"/>
	<path d="M765.089,69.428l0,3.682" style="&st2;"/>
	<path d="M669.339,28.918 l0,-7.365 l-3.682,0 l0,7.365 " style="&st2;"/>
	<path d="M669.339,69.428 l0,7.365 l-3.682,0 l0,-7.365 " style="&st2;"/>
	<path d="M669.339,69.428h7.365" style="&st2;"/>
	<path d="M661.974,69.428h3.683" style="&st2;"/>
	<path d="M665.657,69.428h3.682" style="&st1;"/>
	<path d="M669.339,28.918h7.365" style="&st2;"/>
	<path d="M661.974,28.918h3.683" style="&st2;"/>
	<path d="M665.657,28.918h3.682" style="&st1;"/>
	<path d="M700.642,28.918 l0,-7.365 l3.683,0 l0,7.365 " style="&st2;"/>
	<path d="M700.642,69.428 l0,7.365 l3.683,0 l0,-7.365 " style="&st2;"/>
	<path d="M704.325,69.428h44.192" style="&st2;"/>
	<path d="M693.277,69.428h7.365" style="&st2;"/>
	<path d="M700.642,69.428h3.683" style="&st1;"/>
	<path d="M693.277,28.918h7.365" style="&st2;"/>
	<path d="M700.642,28.918h3.683" style="&st1;"/>
	<path d="M704.325,28.918h44.192" style="&st2;"/>
	<path d="M814.805,49.173h-152.831" style="&st1;"/>
	<path d="M824.012,36.283h-9.207" style="&st1;"/>
	<path d="M824.012,47.331h-9.207" style="&st1;"/>
	<path d="M824.012,51.014h-9.207" style="&st1;"/>
	<path d="M824.012,62.062h-9.207" style="&st1;"/>
	<path d="M824.012,36.283l0,11.048" style="&st1;"/>
	<path d="M824.012,51.014l0,11.048" style="&st1;"/>
	<path d="M836.901,36.283 l-9.206,0 l0,11.048 l9.206,0 l0,-11.048 " style="&st1;"/>
	<path d="M836.901,51.014 l-9.206,0 l0,11.048 l9.206,0 l0,-11.048 " style="&st1;"/>
	<path d="M809.281,28.918 l0,-3.683 l-3.682,0 l0,3.683 " style="&st2;"/>
	<path d="M809.281,69.428 l0,3.682 l-3.682,0 l0,-3.682 " style="&st2;"/>
	<g>
		<path d="M591.417,284.404h-11.048" style="&st2;"/>
		<path d="M591.417,284.404l0,11.048" style="&st2;"/>
		<path d="M580.369,284.404l0,11.048" style="&st2;"/>
		<path d="M596.941,295.452l-11.048,11.048" style="&st2;"/>
		<path d="M585.893,306.5l-11.048,-11.048" style="&st2;"/>
		<path d="M596.941,295.452h-5.524" style="&st2;"/>
		<path d="M580.369,295.452h-5.524" style="&st2;"/>
	</g>
	<g>
		<path d="M596.941,421.584l-11.048,-11.048" style="&st2;"/>
		<path d="M596.941,421.584h-5.524" style="&st2;"/>
		<path d="M585.893,410.536l-11.048,11.048" style="&st2;"/>
		<path d="M580.369,421.584h-5.524" style="&st2;"/>
		<path d="M580.369,432.632l0,-11.048" style="&st2;"/>
		<path d="M591.417,432.632l0,-11.048" style="&st2;"/>
		<path d="M591.417,432.632h-11.048" style="&st2;"/>
	</g>
	<path style="&st3;" d="M624.207,98.944   c1.343,4.151,5.796,6.428,9.947,5.086"/>
	<path style="&st3;" d="M634.154,104.03   c4.151-1.342,6.428-5.796,5.086-9.947"/>
	<path style="&st3;" d="M639.24,94.083   c-1.343-4.151-5.796-6.428-9.947-5.086"/>
	<path style="&st3;" d="M629.293,88.997   c-2.498,0.808-4.278,2.587-5.086,5.086"/>
	<path d="M624.207,98.944 l-0.99,-0.608 l-2.431,0 l0,-0.607 l-15.191,0 " style="&st3;"/>
	<path d="M624.207,94.083 l-0.99,0.608 l-2.431,0 l0,0.608 l-15.191,0 " style="&st3;"/>
	<path style="&st3;" d="M840.732,98.944   c1.342,4.151,5.796,6.428,9.946,5.086"/>
	<path style="&st3;" d="M850.679,104.03   c4.151-1.342,6.429-5.796,5.086-9.947"/>
	<path style="&st3;" d="M855.765,94.083   c-1.343-4.151-5.796-6.428-9.947-5.086"/>
	<path style="&st3;" d="M845.817,88.997   c-2.497,0.808-4.277,2.587-5.085,5.086"/>
	<path style="&st3;" d="M766.541,98.944   c1.342,4.151,5.796,6.428,9.946,5.086"/>
	<path style="&st3;" d="M776.487,104.03   c4.151-1.342,6.429-5.796,5.086-9.947"/>
	<path style="&st3;" d="M781.573,94.083   c-1.343-4.151-5.795-6.428-9.946-5.086"/>
	<path style="&st3;" d="M771.627,88.997   c-2.498,0.808-4.278,2.587-5.086,5.086"/>
	<path style="&st3;" d="M695.902,98.944   c1.342,4.151,5.796,6.428,9.947,5.086"/>
	<path style="&st3;" d="M705.849,104.03   c4.151-1.342,6.428-5.796,5.086-9.947"/>
	<path style="&st3;" d="M710.935,94.083   c-1.342-4.151-5.796-6.428-9.947-5.086"/>
	<path style="&st3;" d="M700.988,88.997   c-2.498,0.808-4.278,2.587-5.086,5.086"/>
	<path d="M840.732,94.083 l-0.991,0.608 l-2.431,0 l0,0.608 l-15.19,0 " style="&st3;"/>
	<path d="M840.732,98.944 l-0.991,-0.608 l-2.431,0 l0,-0.607 l-15.19,0 " style="&st3;"/>
	<path d="M766.541,94.083 l-0.991,0.608 l-2.43,0 l0,0.608 l-15.192,0 " style="&st3;"/>
	<path d="M766.541,98.944 l-0.991,-0.608 l-2.43,0 l0,-0.607 l-15.192,0 " style="&st3;"/>
	<path d="M695.902,98.944 l-0.99,-0.608 l-2.431,0 l0,-0.607 l-15.191,0 " style="&st3;"/>
	<path d="M695.902,94.083 l-0.99,0.608 l-2.431,0 l0,0.608 l-15.191,0 " style="&st3;"/>
	<path d="M633.017,602.885l0,2.429" style="&st2;"/>
	<path style="&st2;" d="M643.955,608.394   c2.373,0,4.297-1.923,4.297-4.295"/>
	<path style="&st2;" d="M648.252,604.099   c0-2.373-1.924-4.297-4.297-4.297"/>
	<path style="&st2;" d="M643.955,599.803   c-2.372,0-4.295,1.924-4.295,4.297"/>
	<path style="&st2;" d="M639.66,604.099   c0,2.372,1.923,4.295,4.295,4.295"/>
	<path style="&st3;" d="M636.439,606.529   c1.342,4.152,5.796,6.429,9.946,5.086"/>
	<path style="&st3;" d="M646.386,611.615   c4.151-1.342,6.429-5.795,5.086-9.947"/>
	<path style="&st3;" d="M651.472,601.668   c-1.343-4.15-5.796-6.428-9.947-5.085"/>
	<path style="&st3;" d="M641.524,596.583   c-2.497,0.808-4.277,2.587-5.085,5.085"/>
	<path d="M636.439,601.668 l-0.991,0.608 l-2.431,0 l0,0.609 l-15.19,0 " style="&st3;"/>
	<path d="M636.439,606.529 l-0.991,-0.607 l-2.431,0 l0,-0.608 l-15.19,0 " style="&st3;"/>
	<path d="M716.412,602.886l0,2.429" style="&st2;"/>
	<path style="&st2;" d="M727.349,608.395   c2.373,0,4.297-1.923,4.297-4.295"/>
	<path style="&st2;" d="M731.646,604.1   c0-2.373-1.924-4.297-4.297-4.297"/>
	<path style="&st2;" d="M727.349,599.804   c-2.372,0-4.295,1.924-4.295,4.297"/>
	<path style="&st2;" d="M723.054,604.1   c0,2.372,1.923,4.295,4.295,4.295"/>
	<path style="&st3;" d="M719.833,606.53   c1.342,4.152,5.796,6.429,9.946,5.086"/>
	<path style="&st3;" d="M729.78,611.616   c4.151-1.342,6.429-5.795,5.086-9.947"/>
	<path style="&st3;" d="M734.866,601.669   c-1.343-4.15-5.796-6.428-9.947-5.085"/>
	<path style="&st3;" d="M724.918,596.584   c-2.497,0.808-4.277,2.587-5.085,5.085"/>
	<path d="M719.833,601.669 l-0.991,0.608 l-2.43,0 l0,0.609 l-15.191,0 " style="&st3;"/>
	<path d="M719.833,606.53 l-0.991,-0.607 l-2.43,0 l0,-0.608 l-15.191,0 " style="&st3;"/>
	<path d="M778.229,602.886l0,2.429" style="&st2;"/>
	<path style="&st2;" d="M789.167,608.395   c2.373,0,4.297-1.923,4.297-4.295"/>
	<path style="&st2;" d="M793.464,604.1   c0-2.373-1.924-4.297-4.297-4.297"/>
	<path style="&st2;" d="M789.167,599.804   c-2.372,0-4.295,1.924-4.295,4.297"/>
	<path style="&st2;" d="M784.872,604.1   c0,2.372,1.923,4.295,4.295,4.295"/>
	<path style="&st3;" d="M781.651,606.53   c1.342,4.152,5.796,6.429,9.946,5.086"/>
	<path style="&st3;" d="M791.598,611.616   c4.151-1.342,6.429-5.795,5.086-9.947"/>
	<path style="&st3;" d="M796.683,601.669   c-1.343-4.15-5.796-6.428-9.947-5.085"/>
	<path style="&st3;" d="M786.736,596.584   c-2.497,0.808-4.277,2.587-5.085,5.085"/>
	<path d="M781.651,601.669 l-0.991,0.608 l-2.431,0 l0,0.609 l-15.19,0 " style="&st3;"/>
	<path d="M781.651,606.53 l-0.991,-0.607 l-2.431,0 l0,-0.608 l-15.19,0 " style="&st3;"/>
	<path d="M850.31,602.886l0,2.429" style="&st2;"/>
	<path style="&st2;" d="M861.248,608.395   c2.373,0,4.297-1.923,4.297-4.295"/>
	<path style="&st2;" d="M865.545,604.1   c0-2.373-1.924-4.297-4.297-4.297"/>
	<path style="&st2;" d="M861.248,599.804   c-2.372,0-4.295,1.924-4.295,4.297"/>
	<path style="&st2;" d="M856.953,604.1   c0,2.372,1.923,4.295,4.295,4.295"/>
	<path style="&st3;" d="M853.732,606.53   c1.342,4.152,5.796,6.429,9.946,5.086"/>
	<path style="&st3;" d="M863.679,611.616   c4.151-1.342,6.429-5.795,5.086-9.947"/>
	<path style="&st3;" d="M868.765,601.669   c-1.343-4.15-5.796-6.428-9.947-5.085"/>
	<path style="&st3;" d="M858.817,596.584   c-2.497,0.808-4.277,2.587-5.085,5.085"/>
	<path d="M853.732,601.669 l-0.991,0.608 l-2.431,0 l0,0.609 l-15.19,0 " style="&st3;"/>
	<path d="M853.732,606.53 l-0.991,-0.607 l-2.431,0 l0,-0.608 l-15.19,0 " style="&st3;"/>
</g>
<g id="キャプション">
	<text transform="matrix(1 0 0 1 252.7455 330.6825)"><tspan style="&st7;" x="0" y="0">*1</tspan></text>
	<text transform="matrix(1 0 0 1 252.7455 360.4325)"><tspan style="&st7;" x="0" y="0">*7</tspan></text>
	<text transform="matrix(1 0 0 1 222.4955 360.4325)"><tspan style="&st7;" x="0" y="0">*8</tspan></text>
	<text transform="matrix(1 0 0 1 256.6293 445.0731)"><tspan style="&st8;" x="0" y="0">Unit A</tspan></text>
	<text transform="matrix(1 0 0 1 282.687 330.6825)"><tspan style="&st7;" x="0" y="0">*2</tspan></text>
	<text transform="matrix(1 0 0 1 282.687 359.9325)"><tspan style="&st7;" x="0" y="0">*6</tspan></text>
	<text transform="matrix(1 0 0 1 312.187 330.6825)"><tspan style="&st7;" x="0" y="0">*3</tspan></text>
	<text transform="matrix(1 0 0 1 341.687 330.6825)"><tspan style="&st7;" x="0" y="0">*4</tspan></text>
	<text transform="matrix(1 0 0 1 341.687 360.4325)"><tspan style="&st7;" x="0" y="0">*5</tspan></text>
	<text transform="matrix(1 0 0 1 330.2182 75.204)"><tspan style="&st9;" x="0" y="0">* 1:80A GLOW2</tspan></text>
	<text transform="matrix(1 0 0 1 330.2182 85.1253)"><tspan style="&st9;" x="0" y="0">* 2:80A GLOW1</tspan></text>
	<text transform="matrix(1 0 0 1 345.2416 105.0462)"><tspan style="&st9;" x="0" y="0">100A ALT (1HZ)</tspan></text>
	<text transform="matrix(1 0 0 1 330.2182 95.0462)"><tspan style="&st9;" x="0" y="0">* 3:140A ALT (1GR-FE, 1VD-FTV)</tspan></text>
	<text transform="matrix(1 0 0 1 330.2182 114.8885)"><tspan style="&st9;" x="0" y="0">* 4:50A HTR</tspan></text>
	<text transform="matrix(1 0 0 1 330.2182 124.8099)"><tspan style="&st9;" x="0" y="0">* 5:50A AM1 NO.2</tspan></text>
	<text transform="matrix(1 0 0 1 330.2182 134.7313)"><tspan style="&st9;" x="0" y="0">* 6:30A AM1</tspan></text>
	<text transform="matrix(1 0 0 1 330.2182 144.6527)"><tspan style="&st9;" x="0" y="0">* 7:50A AM1 NO.3</tspan></text>
	<text transform="matrix(1 0 0 1 330.2182 154.5736)"><tspan style="&st9;" x="0" y="0">* 8:50A ALT MAIN</tspan></text>
	<path d="M272.074,367.573l0,61.798" style="&st4;"/>
	<path d="M272.074,367.573l0,61.798" style="&st5;"/>
	<path style="&st3;" d="M934.691,283.981   c1.342,4.151,5.796,6.428,9.946,5.085"/>
	<path style="&st3;" d="M944.638,289.066   c4.151-1.342,6.429-5.796,5.087-9.947"/>
	<path style="&st3;" d="M949.725,279.12   c-1.343-4.151-5.796-6.428-9.947-5.085"/>
	<path style="&st3;" d="M939.777,274.034   c-2.498,0.808-4.278,2.587-5.086,5.085"/>
	<path d="M934.691,279.12 l-0.991,0.607 l-2.43,0 l0,0.608 l-15.191,0 " style="&st3;"/>
	<path d="M934.691,283.981 l-0.991,-0.608 l-2.43,0 l0,-0.607 l-15.191,0 " style="&st3;"/>
	<g>
		<text transform="matrix(0.88 0 0 1 952.823 283.5321)"><tspan style="&st7;" x="0" y="0">1</tspan></text>
	</g>
	<g>
		<text transform="matrix(1 0 0 1 563.6581 241.5536)"><tspan style="&st9;" x="0" y="0">Side View</tspan></text>
	</g>
	<g>
		<text transform="matrix(1 0 0 1 562.5497 58.5536)"><tspan style="&st9;" x="0" y="0">Back View</tspan></text>
	</g>
	<g>
		<text transform="matrix(1 0 0 1 565.0497 361.8875)"><tspan style="&st9;" x="0" y="0">Top View</tspan></text>
	</g>
	<g>
		<text transform="matrix(1 0 0 1 563.6581 484.8875)"><tspan style="&st9;" x="0" y="0">Side View</tspan></text>
	</g>
	<g>
		<text transform="matrix(0.88 0 0 1 858.073 100.0321)"><tspan style="&st7;" x="0" y="0">1</tspan></text>
	</g>
	<g>
		<text transform="matrix(0.88 0 0 1 784.157 100.0321)"><tspan style="&st7;" x="0" y="0">1</tspan></text>
	</g>
	<g>
		<text transform="matrix(0.88 0 0 1 713.5183 98.0321)"><tspan style="&st7;" x="0" y="0">1</tspan></text>
	</g>
	<text transform="matrix(1 0 0 1 586.519 113.1258)"><tspan x="0" y="0" style="&st7;">(from Engine Room </tspan><tspan x="0" y="8" style="&st7;">Main Wire)</tspan></text>
	<text transform="matrix(1 0 0 1 660.9184 111.4588)"><tspan x="0" y="0" style="&st7;">(from Engine Room </tspan><tspan x="0" y="8" style="&st7;">Main Wire)</tspan></text>
	<text transform="matrix(1 0 0 1 742.392 111.4588)"><tspan x="0" y="0" style="&st7;">(from Engine Room </tspan><tspan x="0" y="8" style="&st7;">Main Wire)</tspan></text>
	<text transform="matrix(1 0 0 1 816.2514 111.4588)"><tspan x="0" y="0" style="&st7;">(from Engine Room </tspan><tspan x="0" y="8" style="&st7;">Main Wire)</tspan></text>
	<path d="M847.949,272.344 l0,9.206 l66.288,0 " style="&st4;"/>
	<path d="M839.139,122.574 l0,48.127 l-49.192,0 l0,49.717 " style="&st4;"/>
	<path d="M764.947,122.574 l0,48.127 l-9.985,0 l0,49.717 " style="&st4;"/>
	<path d="M622.615,122.574 l0,48.127 l62.376,0 l0,49.717 " style="&st4;"/>
	<path d="M789.947,496.619 l0,49.716 l63.929,0 l0,48.024 " style="&st4;"/>
	<path d="M719.976,496.619l0,97.74" style="&st4;"/>
	<path d="M754.962,496.619 l0,49.716 l26.832,0 l0,48.024 " style="&st4;"/>
	<path d="M684.991,496.619 l0,49.716 l-48.408,0 l0,48.024 " style="&st4;"/>
	<path d="M847.949,272.344 l0,9.206 l66.288,0 " style="&st5;"/>
	<path d="M839.139,122.574 l0,48.127 l-49.192,0 l0,49.717 " style="&st5;"/>
	<path d="M764.947,122.574 l0,48.127 l-9.985,0 l0,49.717 " style="&st5;"/>
	<path d="M622.615,122.574 l0,48.127 l62.376,0 l0,49.717 " style="&st5;"/>
	<path d="M789.947,496.619 l0,49.716 l63.929,0 l0,48.024 " style="&st5;"/>
	<path d="M719.976,496.619l0,97.74" style="&st5;"/>
	<path d="M754.962,496.619 l0,49.716 l26.832,0 l0,48.024 " style="&st5;"/>
	<path d="M684.991,496.619 l0,49.716 l-48.408,0 l0,48.024 " style="&st5;"/>
	<a ewd:code="3I" ewd:figtype="jbc" style="cursor:pointer;">
		<path style="fill:#FFFFFF;stroke:#000000;stroke-width:0.8;" d="M650.781,582.907c2.977,0,5.39-2.414,5.39-5.39    c0-2.978-2.413-5.392-5.39-5.392h-4.582c-2.977,0-5.39,2.414-5.39,5.392c0,2.976,2.414,5.39,5.39,5.39H650.781z"/>
		<text transform="matrix(1 0 0 1 645.1537 580.3094)"><tspan style="&st7;" x="0" y="0">3I</tspan></text>
	</a>
	<a ewd:code="3H" ewd:figtype="jbc" style="cursor:pointer;">
		<path style="fill:#FFFFFF;stroke:#000000;stroke-width:0.8;" d="M733.031,582.907c2.977,0,5.39-2.414,5.39-5.39    c0-2.978-2.414-5.392-5.39-5.392h-4.582c-2.977,0-5.39,2.414-5.39,5.392c0,2.976,2.414,5.39,5.39,5.39H733.031z"/>
		<text transform="matrix(1 0 0 1 725.6264 580.3094)"><tspan style="&st7;" x="0" y="0">3H</tspan></text>
	</a>
	<a ewd:code="3G" ewd:figtype="jbc" style="cursor:pointer;">
		<path style="fill:#FFFFFF;stroke:#000000;stroke-width:0.8;" d="M795.031,582.907c2.977,0,5.39-2.414,5.39-5.39    c0-2.978-2.413-5.392-5.39-5.392h-4.582c-2.977,0-5.391,2.414-5.391,5.392c0,2.976,2.414,5.39,5.391,5.39H795.031z"/>
		<text transform="matrix(1 0 0 1 787.4037 580.3094)"><tspan style="&st7;" x="0" y="0">3G</tspan></text>
	</a>
	<a ewd:code="3F" ewd:figtype="jbc" style="cursor:pointer;">
		<path style="fill:#FFFFFF;stroke:#000000;stroke-width:0.8;" d="M867.281,582.907c2.977,0,5.39-2.414,5.39-5.39    c0-2.978-2.413-5.392-5.39-5.392h-4.582c-2.977,0-5.391,2.414-5.391,5.392c0,2.976,2.414,5.39,5.391,5.39H867.281z"/>
		<text transform="matrix(1 0 0 1 860.3217 580.3094)"><tspan style="&st7;" x="0" y="0">3F</tspan></text>
	</a>
	<a ewd:code="3B" ewd:figtype="jbc" style="cursor:pointer;">
		<path style="fill:#FFFFFF;stroke:#000000;stroke-width:0.8;" d="M635.799,148.157c2.977,0,5.39-2.414,5.39-5.39    c0-2.977-2.414-5.391-5.39-5.391h-4.582c-2.977,0-5.39,2.414-5.39,5.391c0,2.977,2.414,5.39,5.39,5.39H635.799z"/>
		<text transform="matrix(1 0 0 1 628.6147 145.5599)"><tspan style="&st7;" x="0" y="0">3B</tspan></text>
	</a>
	<a ewd:code="3C" ewd:figtype="jbc" style="cursor:pointer;">
		<path style="fill:#FFFFFF;stroke:#000000;stroke-width:0.8;" d="M733.531,148.157c2.977,0,5.39-2.414,5.39-5.39    c0-2.977-2.414-5.391-5.39-5.391h-4.582c-2.977,0-5.39,2.414-5.39,5.391c0,2.977,2.414,5.39,5.39,5.39H733.531z"/>
		<text transform="matrix(1 0 0 1 726.1264 145.5599)"><tspan style="&st7;" x="0" y="0">3C</tspan></text>
	</a>
	<a ewd:code="3D" ewd:figtype="jbc" style="cursor:pointer;">
		<path style="fill:#FFFFFF;stroke:#000000;stroke-width:0.8;" d="M778.171,148.157c2.978,0,5.391-2.414,5.391-5.39    c0-2.977-2.413-5.391-5.391-5.391h-4.581c-2.977,0-5.391,2.414-5.391,5.391c0,2.977,2.413,5.39,5.391,5.39H778.171z"/>
		<text transform="matrix(1 0 0 1 770.7661 145.5599)"><tspan style="&st7;" x="0" y="0">3D</tspan></text>
	</a>
	<a ewd:code="3E" ewd:figtype="jbc" style="cursor:pointer;">
		<path style="fill:#FFFFFF;stroke:#000000;stroke-width:0.8;" d="M852.031,148.157c2.977,0,5.39-2.414,5.39-5.39    c0-2.977-2.413-5.391-5.39-5.391h-4.582c-2.977,0-5.391,2.414-5.391,5.391c0,2.977,2.414,5.39,5.391,5.39H852.031z"/>
		<text transform="matrix(1 0 0 1 844.8471 145.5599)"><tspan style="&st7;" x="0" y="0">3E</tspan></text>
	</a>
	<a ewd:code="3A" ewd:figtype="jbc" style="cursor:pointer;">
		<path style="fill:#FFFFFF;stroke:#000000;stroke-width:0.8;" d="M905.615,278.241c2.977,0,5.39-2.414,5.39-5.39    c0-2.977-2.413-5.391-5.39-5.391h-4.582c-2.977,0-5.391,2.414-5.391,5.391c0,2.977,2.414,5.39,5.391,5.39H905.615z"/>
		<text transform="matrix(1 0 0 1 898.4311 275.6434)"><tspan style="&st7;" x="0" y="0">3A</tspan></text>
	</a>
	<text transform="matrix(1 0 0 1 602.1137 620.0673)"><tspan x="0" y="0" style="&st7;">(from Engine Room </tspan><tspan x="0" y="8" style="&st7;">Main Wire)</tspan></text>
	<text transform="matrix(1 0 0 1 679.7807 620.0673)"><tspan x="0" y="0" style="&st7;">(from Engine Room </tspan><tspan x="0" y="8" style="&st7;">Main Wire)</tspan></text>
	<text transform="matrix(1 0 0 1 757.1137 620.0673)"><tspan x="0" y="0" style="&st7;">(from Engine Room </tspan><tspan x="0" y="8" style="&st7;">Main Wire)</tspan></text>
	<text transform="matrix(1 0 0 1 833.1137 620.0673)"><tspan x="0" y="0" style="&st7;">(from Engine Room </tspan><tspan x="0" y="8" style="&st7;">Main Wire)</tspan></text>
	<text transform="matrix(1 0 0 1 890.5229 21.1571)"><tspan x="0" y="0" style="&st7;">* 1:from Engine Room </tspan><tspan x="12" y="8" style="&st7;">Main Wire (1HZ),</tspan><tspan x="12" y="16" style="&st7;">from Engine </tspan><tspan x="12" y="24" style="&st7;">Wire (1VD-FTV),</tspan><tspan x="12" y="32" style="&st7;">from No. 2 Engine </tspan><tspan x="12" y="40" style="&st7;">Wire (1GR-FE)</tspan></text>
	<text transform="matrix(1 0 0 1 916.3647 293.8036)"><tspan style="&st7;" x="0" y="0">(*1)</tspan></text>
	<path d="M719.615,220.574 l0,-82 l-28,0 l0,-15.667 " style="&st4;"/>
	<path d="M719.615,220.574 l0,-82 l-28,0 l0,-15.667 " style="&st5;"/>
	<g>
		<text transform="matrix(0.88 0 0 1 641.823 98.0321)"><tspan style="&st7;" x="0" y="0">1</tspan></text>
	</g>
	<g>
		<text transform="matrix(1 0 0 1 529.6877 33.9071)"><tspan style="&st10;" x="0" y="0">Unit A</tspan></text>
	</g>
	<g>
		<text transform="matrix(0.88 0 0 1 653.78 607.6171)"><tspan style="&st7;" x="0" y="0">1</tspan></text>
	</g>
	<g>
		<text transform="matrix(0.88 0 0 1 737.1746 607.618)"><tspan style="&st7;" x="0" y="0">1</tspan></text>
	</g>
	<g>
		<text transform="matrix(0.88 0 0 1 798.9919 607.618)"><tspan style="&st7;" x="0" y="0">1</tspan></text>
	</g>
	<g>
		<text transform="matrix(0.88 0 0 1 871.073 607.618)"><tspan style="&st7;" x="0" y="0">1</tspan></text>
	</g>
</g>
</svg>