<?xml version="1.0"?>
<!-- Generator: Adobe Illustrator 18.1.1, SVG Export Plug-In . SVG Version: 6.00 Build 0)  -->
<!DOCTYPE svg PUBLIC "-//W3C//DTD SVG 1.0//EN" "http://www.w3.org/TR/2001/REC-SVG-20010904/DTD/svg10.dtd"[
	<!ENTITY ns_flows "http://ns.adobe.com/Flows/1.0/">
	<!ENTITY ns_svg "http://www.w3.org/2000/svg">
	<!ENTITY ns_xlink "http://www.w3.org/1999/xlink">
	<!ENTITY st0 "fill:none;">
	<!ENTITY st1 "fill:#FFFFFF;">
	<!ENTITY st2 "fill:none;stroke:#000000;stroke-width:0.3;stroke-linecap:round;stroke-linejoin:round;">
	<!ENTITY st3 "fill:none;stroke:#000000;stroke-width:0.15;stroke-linecap:round;stroke-linejoin:round;">
	<!ENTITY st4 "fill:#FFFFFF;stroke:#000000;stroke-width:0.3;stroke-linecap:round;stroke-linejoin:round;">
	<!ENTITY st5 "fill:none;stroke:#FFFFFF;stroke-width:0.9;stroke-linecap:round;stroke-linejoin:round;stroke-miterlimit:3.8637;">
	<!ENTITY st6 "fill:none;stroke:#000000;stroke-width:0.15;stroke-linecap:round;stroke-linejoin:round;stroke-miterlimit:3.8637;">
	<!ENTITY st7 "fill:none;stroke:#000000;stroke-width:0.1549;stroke-linecap:round;stroke-linejoin:round;stroke-miterlimit:3.8637;">
	<!ENTITY st8 "fill:none;stroke:#FFFFFF;stroke-width:2;">
	<!ENTITY st9 "fill:none;stroke:#000000;stroke-width:0.5;">
	<!ENTITY st10 "font-family:'Arial'; font-size:10px;">
	<!ATTLIST svg
		xmlns:ewd CDATA #FIXED "http://shcl.co.jp/ewd"
		xmlns:a CDATA #FIXED "http://ns.adobe.com/AdobeSVGViewerExtensions/3.0/"
		ewd:ver CDATA #IMPLIED>
	<!ATTLIST a
		ewd:innerGroupID CDATA #IMPLIED
		ewd:figtype CDATA #IMPLIED
		ewd:code CDATA #IMPLIED
		ewd:pinNo CDATA #IMPLIED>
]>
<svg version="1.0" x="0px" y="0px" viewBox="0 0 522.221 311.811" style="enable-background:new 0 0 522.221 311.811;" xml:space="preserve" width="522.221" height="311.811" onload="call_execInitLoadProc_svg('location')" ewd:ver="2.3.1.16" xmlns="&ns_svg;" xmlns:a="http://ns.adobe.com/AdobeSVGViewerExtensions/3.0/" xmlns:ewd="http://shcl.co.jp/ewd" xmlns:xlink="&ns_xlink;">
<script type="text/javascript" xlink:href="../../../../../system/js/ewd/fig/svgfig.js"/>
<g id="waku">
	<path d="M0,0v311.811h518.74v-311.811h-518.74z" style="&st0;"/>
</g>
<g id="イラスト">
	<g>
		<path style="&st1;" d="M199.259,138.241l-2.155-0.536v-1.075l0.228,0.058c0.13,0.033,0.331,0.004,0.446-0.064l1.39-0.827    c0.115-0.069,0.21-0.235,0.21-0.369v-2.678c0-0.135-0.107-0.272-0.236-0.305l-0.417-0.107l0.219-0.13    c0.116-0.068,0.21-0.234,0.21-0.369v-1.791c0-0.134-0.107-0.272-0.237-0.305l-1.553-0.407v-2.116l-0.708-0.195v-0.534    c0,0-1.135-6.447-1.289-7.4c-0.154-0.953-0.516-1.087-0.694-1.135c-0.336-0.091-1.149-0.308-1.416-0.378    c-0.371-0.098-2.027,0.51-2.116,3.069c-0.033,0.936-0.162,3.829-0.245,5.647l-0.08,0.011c0,0-1.607,0.934-1.766,1.037    c-0.159,0.103-0.159,0.29-0.131,0.439c0.028,0.15,0.037,0.15,0.084,0.533c0.364,2.974-0.925,4.149-1.57,4.933l-0.491,0.084    c-0.294,0-0.56,0.126-0.645,0.448l-0.033,0.084l-2.243,1.327v4.548l-0.04-0.014l-1.329,0.791c-0.115,0.069-0.21,0.235-0.21,0.369    v5.737c0,0.134,0.106,0.272,0.236,0.305l0.463,0.118l0.001,0v14.253c0,0.149,0.014,0.29,0.21,0.409    c0.063,0.039,0.35,0.197,0.708,0.394v0.622l0.715,0.505l3.294,0.834l5.403-3.105c0,0,2.922-5.817,2.957-5.901    c0.035-0.084,0.032-0.195-0.119-0.245c-0.041-0.013-0.096-0.035-0.133-0.049l1.422-0.847c0.15-0.089,0.273-0.305,0.273-0.48    v-3.485c0-0.175-0.139-0.353-0.308-0.396l-0.677-0.173l0.712-0.422c0.15-0.089,0.273-0.306,0.273-0.48v-3.485    c0-0.175-0.139-0.353-0.308-0.397l-1.335-0.342l0.069-0.252v-0.393l0.604,0.154c0.169,0.043,0.431,0.006,0.581-0.084l1.808-1.077    c0.15-0.089,0.273-0.305,0.273-0.48v-3.485C199.567,138.463,199.428,138.284,199.259,138.241z"/>
		<path d="M184.022,140.704 l0,-5.513 l2.243,-1.326 " style="&st2;"/>
		<path style="&st2;" d="M185.293,136.182    l0.579,1.439c0,0-2.411,3.943-2.542,4.205c-0.131,0.262-0.187,0.504-0.187,0.691c0,0.187,0,18.632,0,18.782    c0,0.149,0.014,0.29,0.21,0.409c0.196,0.119,2.523,1.388,2.523,1.388"/>
		<path style="&st3;" d="M187.335,136.99    c0,0-2.826,4.723-2.958,4.985c-0.131,0.262-0.187,0.504-0.187,0.691c0,0.187,0,18.782,0,18.932"/>
		<path style="&st2;" d="M184.062,162.121v0.603    l0.715,0.505l3.294,0.834l5.403-3.105c0,0,2.922-5.817,2.957-5.901c0.035-0.084,0.032-0.195-0.119-0.245    c-0.063-0.021-0.168-0.063-0.168-0.063"/>
		<path style="&st2;" d="M195.633,155.058    c0.06-0.016,0.115-0.039,0.161-0.066l1.809-1.076c0.15-0.089,0.273-0.305,0.273-0.48v-3.485c0-0.175-0.139-0.353-0.308-0.396    l-0.677-0.173"/>
		<path d="M194.357,150.825l0.855,0.219" style="&st3;"/>
		<path style="&st3;" d="M197.538,149.857    l-1.809,1.077c-0.15,0.09-0.273,0.306-0.273,0.48v2.572"/>
		<path style="&st2;" d="M194.357,149.9    l0.855,0.219c0.169,0.043,0.431,0.006,0.581-0.084l1.809-1.077c0.15-0.089,0.273-0.306,0.273-0.48v-3.485    c0-0.175-0.139-0.353-0.308-0.397l-1.335-0.342"/>
		<path d="M194.355,145.867l0.857,0.219" style="&st3;"/>
		<path style="&st3;" d="M197.538,144.899    l-1.809,1.077c-0.15,0.089-0.273,0.306-0.273,0.48v3.485"/>
		<path style="&st4;" d="M197.342,131.985    c-0.13-0.033-0.331-0.005-0.446,0.064l-1.39,0.827c-0.115,0.069-0.21,0.235-0.21,0.369v2.678c0,0.134,0.106,0.272,0.237,0.305    l1.799,0.46c0.13,0.033,0.331,0.004,0.446-0.064l1.39-0.827c0.115-0.069,0.21-0.235,0.21-0.369v-2.678    c0-0.135-0.107-0.272-0.236-0.305L197.342,131.985z"/>
		<path style="&st4;" d="M196.895,132.05    l-1.39,0.827c-0.115,0.069-0.21,0.235-0.21,0.369v2.678"/>
		<path d="M195.533,133.13l1.798,0.461" style="&st3;"/>
		<path style="&st3;" d="M199.119,132.679    l-1.39,0.827c-0.115,0.069-0.21,0.235-0.21,0.369v2.677"/>
		<path style="&st4;" d="M194.111,132.315    l2.997,0.786c0.13,0.033,0.331,0.004,0.446-0.064l1.389-0.827c0.116-0.068,0.21-0.234,0.21-0.369v-1.791    c0-0.134-0.107-0.272-0.237-0.305l-3.553-0.932"/>
		<path d="M194.848,130.297l2.259,0.592" style="&st3;"/>
		<path style="&st3;" d="M198.895,129.977    l-1.39,0.827c-0.115,0.069-0.21,0.235-0.21,0.369v1.791"/>
		<path style="&st2;" d="M188.492,146.99    l1.983,0.507c0.169,0.043,0.431,0.006,0.581-0.084l1.808-1.077c0.15-0.089,0.273-0.305,0.273-0.48v-3.485    c0-0.175-0.138-0.353-0.308-0.397l-2.743-0.682"/>
		<path d="M188.493,142.958l1.982,0.507" style="&st3;"/>
		<path style="&st3;" d="M192.801,142.278    l-1.808,1.077c-0.15,0.089-0.273,0.305-0.273,0.48v3.485"/>
		<path style="&st2;" d="M196.301,143.609    l0.603,0.154c0.169,0.043,0.431,0.006,0.581-0.084l1.808-1.077c0.15-0.089,0.273-0.305,0.273-0.48v-3.485    c0-0.175-0.139-0.353-0.308-0.397l-2.639-0.656"/>
		<path d="M194.922,139.224l1.982,0.507" style="&st3;"/>
		<path style="&st3;" d="M199.23,138.544    l-1.808,1.077c-0.15,0.089-0.273,0.306-0.273,0.48v3.485"/>
		<path style="&st2;" d="M193.137,145.516    l0.501,0.128c0.169,0.043,0.431,0.006,0.581-0.084l1.809-1.076c0.15-0.09,0.273-0.306,0.273-0.48v-3.485    c0-0.175-0.139-0.353-0.308-0.397l-2.679-0.666"/>
		<path d="M191.656,141.104l1.982,0.507" style="&st3;"/>
		<path style="&st3;" d="M195.964,140.424    l-1.808,1.077c-0.15,0.089-0.273,0.305-0.273,0.48v3.485"/>
		<path d="M193.936,153.571 l1.696,0.463 l0,2.172 l-1.107,0.631 l-1.696,-0.462 " style="&st2;"/>
		<path d="M194.525,156.837 l0,1.332 l-0.939,0.49 l-1.191,-0.294 " style="&st2;"/>
		<path d="M194.356,153.686l0,-8.16" style="&st2;"/>
		<path style="&st4;" d="M194.165,133.858    c-0.13-0.033-0.331-0.004-0.446,0.064l-1.39,0.827c-0.115,0.069-0.21,0.235-0.21,0.369v2.678c0,0.134,0.106,0.272,0.237,0.305    l1.799,0.46c0.13,0.033,0.331,0.004,0.446-0.064l1.39-0.827c0.115-0.069,0.21-0.234,0.21-0.369v-2.678    c0-0.134-0.106-0.272-0.236-0.305L194.165,133.858z"/>
		<path style="&st4;" d="M193.719,133.922    l-1.39,0.827c-0.115,0.069-0.21,0.235-0.21,0.369v2.678"/>
		<path d="M192.356,135.003l1.799,0.46" style="&st3;"/>
		<path style="&st3;" d="M195.943,134.551    l-1.39,0.827c-0.115,0.069-0.21,0.235-0.21,0.369v2.678"/>
		<path style="&st4;" d="M191.054,135.792    c-0.13-0.033-0.331-0.004-0.446,0.064l-1.39,0.827c-0.115,0.069-0.21,0.235-0.21,0.369v2.678c0,0.134,0.106,0.271,0.236,0.305    l1.799,0.46c0.13,0.033,0.331,0.004,0.446-0.064l1.39-0.827c0.115-0.069,0.21-0.235,0.21-0.369v-2.678    c0-0.134-0.106-0.272-0.237-0.305L191.054,135.792z"/>
		<path d="M189.245,136.937l1.799,0.46" style="&st3;"/>
		<path style="&st2;" d="M190.608,135.857    l-1.39,0.827c-0.115,0.069-0.21,0.235-0.21,0.369v2.678"/>
		<path style="&st3;" d="M192.831,136.485    l-1.39,0.827c-0.116,0.069-0.21,0.235-0.21,0.369v2.678"/>
		<path style="&st2;" d="M183.983,139.725    l-1.329,0.791c-0.115,0.069-0.21,0.235-0.21,0.369v5.737c0,0.134,0.106,0.272,0.236,0.305l0.463,0.118"/>
		<path d="M182.68,140.77l0.724,0.185" style="&st3;"/>
		<path d="M188.498,148.217 l0,-5.943 l8.522,-4.989 " style="&st2;"/>
		<path d="M187.559,136.752l2.985,-1.71" style="&st3;"/>
		<path d="M187.251,136.738l-1.626,-0.435" style="&st3;"/>
		<path style="&st3;" d="M185.667,159.422    c-0.032-0.105-0.09-0.179-0.17-0.201c-0.179-0.049-0.399,0.183-0.492,0.518c-0.092,0.335-0.022,0.647,0.157,0.697    c0.066,0.018,0.138-0.002,0.207-0.051"/>
		<path style="&st3;" d="M185.667,149.106    c-0.032-0.105-0.09-0.179-0.17-0.201c-0.179-0.049-0.399,0.183-0.492,0.518c-0.092,0.335-0.022,0.647,0.157,0.697    c0.066,0.018,0.138-0.002,0.207-0.051"/>
		<path style="&st3;" d="M194.281,120.045    c-0.028-0.093-0.08-0.159-0.15-0.178c-0.159-0.044-0.354,0.162-0.436,0.459c-0.082,0.297-0.019,0.574,0.139,0.617    c0.059,0.016,0.122-0.002,0.183-0.046"/>
		<path d="M197.104,137.649l0,-0.944" style="&st2;"/>
		<path d="M194.062,131.692l0,1.43" style="&st2;"/>
		<path d="M195.394,128.679 l0.771,-0.435 l0,0.365 l0.182,0 l0,0.462 " style="&st2;"/>
		<path d="M197.363,129.337 l0,-2.116 l-0.68,-0.196 " style="&st2;"/>
		<path style="&st2;" d="M196.655,127.585v-1.093    c0,0-1.135-6.447-1.289-7.4c-0.154-0.953-0.516-1.087-0.694-1.135c-0.336-0.091-1.149-0.308-1.416-0.378    c-0.371-0.098-2.027,0.51-2.116,3.069c-0.049,1.402-0.316,7.19-0.316,7.19"/>
		<path style="&st3;" d="M194.609,117.956    c-0.371-0.098-2.027,0.511-2.116,3.07c-0.049,1.402-0.315,7.19-0.315,7.19"/>
		<path style="&st2;" d="M186.298,133.781    c0.084-0.322,0.35-0.448,0.645-0.448c0.294,0,3.07-0.294,4.023-0.897c0.953-0.603,2.453-1.752,2.579-5.088    c0,0-0.049-0.182,0.147-0.238c0.196-0.056,0.869-0.161,1.212-0.484"/>
		<path style="&st2;" d="M187.433,133.248    c0.645-0.785,1.934-1.96,1.57-4.933c-0.047-0.383-0.056-0.383-0.084-0.533c-0.028-0.149-0.028-0.336,0.131-0.439    c0.159-0.103,1.766-1.037,1.766-1.037"/>
		<path style="&st2;" d="M193.311,127.591    c0.649-1.274,0.6-1.857,0.6-3.311l0.477-0.32l0.419,0.14v0.189"/>
		<path style="&st2;" d="M194.626,124.223    c0.411,0.164,1.126,0.55,1.126,1.027c0,0.115,0,0.321,0,0.395c0,0.074-0.115,0.255-0.287,0.378"/>
		<path style="&st2;" d="M195.259,125.956    l0.255,0.131c0,0,0,1.109,0,1.348c0,0.238-0.122,3.261-2.073,4.841c-0.888,0.719-0.979,0.753-1.261,0.963    c-0.29,0.215-0.608,0.411-0.608,1.093"/>
		<path d="M185.377,136.542l0,1.845" style="&st2;"/>
		<path style="&st2;" d="M185.34,137.593    c0,0-0.925-0.574-1.005-0.626c-0.079-0.051-0.191-0.07-0.294-0.042"/>
		<path style="&st2;" d="M185.34,138.181    c0,0-0.925-0.574-1.005-0.626c-0.079-0.051-0.191-0.07-0.294-0.042"/>
		<path style="&st2;" d="M185.048,138.972    c-0.278-0.173-0.663-0.412-0.713-0.445c-0.079-0.051-0.191-0.07-0.294-0.042"/>
		<path style="&st2;" d="M184.636,139.65    c-0.151-0.094-0.274-0.171-0.3-0.188c-0.079-0.052-0.191-0.07-0.294-0.042"/>
		<path d="M190.39,134.846l-3.812,-1.009" style="&st3;"/>
		<path d="M192.6,147.451 l-4.747,2.728 l0,0.954 l0.785,0.205 l4.747,-2.728 l0,-0.953 z" style="&st4;"/>
		<path d="M187.853,150.179l0.785,0.206" style="&st3;"/>
		<path d="M193.385,147.657 l-4.747,2.728 l0,0.953 " style="&st3;"/>
		<path d="M192.6,149.778 l-4.747,2.728 l0,0.954 l0.785,0.205 l4.747,-2.728 l0,-0.953 z" style="&st4;"/>
		<path d="M187.853,152.506l0.785,0.206" style="&st3;"/>
		<path d="M193.385,149.984 l-4.747,2.728 l0,0.953 " style="&st3;"/>
		<path d="M192.6,152.105 l-4.747,2.728 l0,0.953 l0.785,0.206 l4.747,-2.729 l0,-0.953 z" style="&st4;"/>
		<path d="M187.853,154.833l0.785,0.205" style="&st3;"/>
		<path d="M193.385,152.31 l-4.747,2.728 l0,0.954 " style="&st3;"/>
		<path d="M192.6,154.431 l-4.747,2.729 l0,0.953 l0.785,0.206 l4.747,-2.729 l0,-0.953 z" style="&st4;"/>
		<path d="M187.853,157.16l0.785,0.205" style="&st3;"/>
		<path d="M193.385,154.637 l-4.747,2.728 l0,0.954 " style="&st3;"/>
		<path d="M192.6,156.758 l-4.747,2.728 l0,0.954 l0.785,0.205 l4.747,-2.728 l0,-0.953 z" style="&st4;"/>
		<path d="M187.853,159.486l0.785,0.206" style="&st3;"/>
		<path d="M193.385,156.964 l-4.747,2.728 l0,0.953 " style="&st3;"/>
	</g>
	<g>
		<path d="M323.921,157.651 l3.546,0.951 l0,2.388 l-1.384,0.799 l-5.775,-1.548 l0,-2.389 l2.495,-1.441 l1.752,0.47 l0,0.94 " style="&st2;"/>
		<path d="M326.083,159.401l0,2.388" style="&st3;"/>
		<path d="M327.467,158.602 l-1.384,0.799 l-5.775,-1.549 " style="&st3;"/>
		<path d="M324.198,159.339 l0.569,0.152 l0,1.365 " style="&st3;"/>
		<path d="M325.121,159.586 l0.57,0.153 l0,1.364 " style="&st3;"/>
		<path d="M323.275,159.091 l0.569,0.153 l0,1.365 " style="&st3;"/>
		<path d="M322.351,158.844 l0.569,0.152 l0,1.365 " style="&st3;"/>
		<path d="M321.428,158.596 l0.569,0.153 l0,1.365 " style="&st3;"/>
	</g>
	<g>
		<path d="M371.82,179.502 l-5.396,-1.441 l-1.513,0.926 l0,1.2 l0.77,0.308 l0,1.383 l5.001,1.385 l1.141,-0.886 z" style="&st2;"/>
		<path d="M365.044,179.12 l5.57,1.497 l0,2.558 " style="&st3;"/>
		<path d="M370.769,180.504l1.08,-0.917" style="&st3;"/>
		<path d="M370.418,180.162 l-0.433,-0.13 l0.748,-0.477 " style="&st3;"/>
		<path d="M369.53,179.967 l-0.434,-0.13 l0.748,-0.477 " style="&st3;"/>
		<path d="M368.543,179.75 l-0.433,-0.13 l0.747,-0.477 " style="&st3;"/>
		<path d="M367.719,179.468 l-0.433,-0.13 l0.748,-0.477 " style="&st3;"/>
		<path d="M366.907,179.273 l-0.434,-0.13 l0.748,-0.477 " style="&st3;"/>
	</g>
	<path d="M365.964,179.024 l-0.217,-0.076 l0.596,-0.369 " style="&st3;"/>
	<g>
		<path style="&st5;" d="    M279.341,132.044c0.706-0.433,1.685-2.834,2.103-4.445c1.025-3.955,3.882-7.125,2.885-8.494c-0.53-0.729-0.899-1.03-2.201-1.216    c-1.634-0.233-5.458-0.42-7.784,0.116c-2.595,0.599-4.178,1.356-5.212,1.946"/>
		<path style="&st5;" d="    M328.293,141.802c-0.329,0.885-0.511,1.857-0.511,2.877c-0.001,4.083,2.913,7.393,6.509,7.393"/>
		<path style="&st5;" d="    M334.292,152.072c2.485,0.146,4.967-1.082,6.18-2.538c0.715-0.858,2.315-3.004,2.315-4.985c0-4.121-2.486-7.118-5.9-7.999    c-2.366-0.61-3.805,0.072-4.849,0.676c-1.059,0.614-2.931,1.937-3.744,4.575"/>
		<path style="&st5;" d="    M342.787,144.549c0.356-1.307,0.705-2.125,1.095-2.646c1.612-2.153,3.039-3.712,2.46-4.839c-0.412-0.802-0.944-0.982-2.062-1.218    c-1.616-0.341-4.988-0.208-6.993-0.037c-2.403,0.204-3.463,0.424-5.249,1.418"/>
		<path d="M166.193,93.637c2.593,0 4.696,2.552 4.696,5.7c0,3.148  -2.103,5.7 -4.696,5.7c-2.593,0 -4.696,-2.552 -4.696,-5.7c0,-3.148 2.103,-5.7 4.696,-5.7" style="&st5;"/>
		<path style="&st5;" d="    M163.111,92.818c-1.598,0.999-3.478,3.076-3.478,6.587c0,3.841,2.59,7.397,6.398,7.518"/>
		<path style="&st5;" d="    M166.031,106.923c2.484,0.147,4.488-1.082,5.702-2.538c0.715-0.858,1.757-3.498,2.267-5.3c0.923-3.263-1.863-6.777-5.277-7.657    c-0.79-0.205-2.233-0.145-2.965,0.068"/>
		<path style="&st5;" d="    M174,99.085c0.454-1.484,0.798-2.591,1.286-3.219c1.494-1.918,2.43-3.187,2.143-4.035c-0.273-0.808-0.887-0.872-1.998-1.133    c-1.448-0.341-4.49-0.187-6.23,0.009c-1.388,0.156-2.716,0.578-3.443,0.789c-1.093,0.318-1.996,0.884-2.647,1.321"/>
		<path style="&st5;" d="    M222.726,108.446c-1.599,1.127-3.028,4.091-2.892,6.668c0.198,3.761,2.512,6.837,5.364,7.527c0.535,0.129,1.06,0.144,1.565,0.063"/>
		<path style="&st5;" d="    M232.989,109.58c-1.019-1.186-2.229-2.472-3.89-2.885c-1.274-0.316-2.41-0.294-3.316,0.022"/>
		<path style="&st5;" d="    M226.331,122.75c2.23,0,4.206-1.527,5.157-3.135c0.569-0.961,0.982-2.042,1.196-3.456c0.486-3.218-0.337-5.54,0.304-6.579    c1.277-2.068,5.367-2.783,5.253-3.659c-0.076-0.596-1.733-0.51-2.846-0.51c-1.665,0-4.779,0.066-6.33,0.373    c-1.37,0.271-2.558,0.717-3.284,0.933c-0.737,0.218-2.422,1.132-3.056,1.729"/>
		<path style="&st5;" d="    M161.468,92.687c-0.582-1.523-3.171-8.125-6.267-16.018"/>
		<path style="&st5;" d="    M167.379,71.699c2.887,7.26,5.466,13.75,6.274,15.772c0.131,0.328,0.445,0.753,0.756,0.93"/>
		<path style="&st5;" d="    M164.414,92.038c1.571-0.908,5.556-2.963,6.332-3.171c0,0,1.801-0.484,1.97-0.528"/>
		<path style="&st5;" d="    M161.468,92.685c-0.194,0.194-0.3,0.411-0.244,0.657c0.064,0.284,0.163,0.483,0.275,0.848"/>
		<path style="&st5;" d="    M188.11,91.893c3.35,0,29.714,6.847,47.978,11.241c11.19,2.431,21.878,4.907,32.077,7.605c8.723,2.308,20.701,5.378,29.452,8.314    c17.388,4.541,33.012,8.937,44.112,12.486"/>
		<path style="&st5;" d="    M188.082,90.787c-0.744-0.12-2.759,0.251-3.15,0.355c-0.39,0.104-1.603,0.086-2.436-0.029c-1.574-0.219-9.932-1.924-11.75-2.246"/>
		<path style="&st5;" d="    M192.381,91.579c-1.513-0.129-3.546,0.12-4.271,0.314c-0.724,0.194-2.81,0.938-5.058,1.922c-2.062,0.903-3.886,1.995-4.966,2.727    c-1.862,1.262-2.515,3.199-3.442,5.568c-0.792,2.026-1.714,5.553-2.273,7.778c-0.551,2.194-0.947,5.347-1.08,6.738    c-0.096,1.008-0.05,1.399,0.174,2.018c0.225,0.618,0.865,2.022,1.189,2.345"/>
		<path style="&st5;" d="    M172.715,88.34c0.445,0,1.076-0.001,1.693,0.061c1.421,0.145,12.337,2.207,13.674,2.386c1.337,0.178,2.703,0.459,4.373,0.807    c4.242,0.885,49.623,10.719,79.105,18.511c24.2,6.396,66.626,18.289,75.451,21.492c0.654,0.176,1.85,0.629,2.474,0.796    c0.194,0.051,1.108,0.368,2.305,0.796"/>
		<path style="&st5;" d="    M159.672,100.203c-0.323,1.444-0.889,4.421-1.119,5.794c-0.075,0.439-0.946,6.497-0.946,7.254s0.007,1.126,0.117,1.666    c0.122,0.594,0.637,2.248,0.884,2.872"/>
		<path style="&st5;" d="    M157.724,114.917c-0.797,0.797-0.991,1.376-1.146,2.015c-0.154,0.639-1.298,6.8-1.472,8.233c-0.174,1.433-0.274,2.788-0.038,3.943    c0.294,1.441,0.555,2.317,0.931,3.419c2.169,6.328,6.121,16.718,9.947,22.661c0.789,1.225,2.629,2.153,3.438,2.62    c0.403,0.233,1.134,0.217,1.386,0.217"/>
		<path style="&st5;" d="    M158.609,117.789c0,0,0.286,0.326,0.722,0.459c1.031,0.317,10.325,2.912,10.869,3.058c0.545,0.145,1.153,0.169,1.412,0.099    c0.26-0.069,0.868-0.315,1.044-0.416"/>
		<path style="&st5;" d="    M183.052,93.815c5.429,1.455,44.489,11.56,46.014,11.969"/>
		<path d="M218.627,132.999l-45.971,-12.009" style="&st5;"/>
		<path style="&st5;" d="    M172.372,109.888c-0.398-0.229-1.156-0.426-1.748-0.586c-0.592-0.159-10.898-3.173-11.29-3.278    c-0.392-0.106-0.698-0.111-0.781-0.028"/>
		<path style="&st5;" d="    M175.217,125.782l32.177,8.264c0,0,0.369,0.105,0.544,0.278"/>
		<path style="&st5;" d="    M173.288,131.548c0,0,31.809,8.172,32.302,8.298c0.11,0.028,0.379,0.028,0.554-0.068"/>
		<path style="&st5;" d="    M218.605,139.259c-0.145,0.64-0.31,1.263-0.47,1.849c-0.275,1.011-0.844,1.275-1.225,1.246"/>
		<path style="&st5;" d="    M213.734,132.667c0.06-0.016,0.159-0.013,0.466,0.07c0.305,0.081,1.742,0.455,3.058,0.99c0.653,0.265,1.088,0.447,1.363,0.767"/>
		<path style="&st5;" d="    M213.706,132.677c-0.739,0-5.059,1.387-5.768,1.646c-0.326,0.12-0.552,0.208-0.879,0.536c-0.328,0.327-0.905,1.05-1.083,2.508    c-0.179,1.458,0.061,2.226,0.168,2.412c0.185,0.328,0.785,0.477,1.804,0.827c1.561,0.539,7.001,1.644,8.962,1.748"/>
		<path style="&st5;" d="    M175.217,125.782c-0.698-0.188-1.292,0.496-1.73,1.262c-0.344,0.601-0.628,1.927-0.716,2.845    c-0.057,0.601-0.048,1.506,0.517,1.659"/>
		<path style="&st5;" d="    M178.518,126.629c0-0.506,0.102-2.014,0.102-2.29c0-0.278-0.027-0.787-0.794-0.992c-0.767-0.205-2.465-0.507-3.013-0.601    c-0.894-0.153-1.679-0.014-1.886,0.106"/>
		<path style="&st5;" d="    M172.927,122.851c-0.597,0.252-2.076,1.184-2.776,1.884c-1.18,1.179-1.389,2.955-1.389,3.729c0,1.006,0.156,1.49,0.92,1.931    c0.522,0.301,1.963,0.916,2.52,1.064c0.319,0.086,0.938,0.203,1.084,0.09"/>
		<path style="&st5;" d="    M243.683,114.675l-6.583-1.784c-0.317-0.084-0.647,0.137-0.739,0.494l-0.809,3.307c-0.093,0.356,0.09,0.714,0.406,0.798    l6.412,1.722c0.487,0.15,0.787,0.037,0.9-0.469s0.788-2.906,0.863-3.3C244.208,115.05,244.133,114.825,243.683,114.675z"/>
		<path style="&st5;" d="    M236.088,103.134c-2.927,0.755-5.558,2.02-7.021,2.65"/>
		<path style="&st5;" d="    M279.664,149.681c-0.619,1.8-2.096,8.114-2.334,9.344c-0.238,1.228-0.049,2.634,0.288,3.698    c2.34,7.377,5.819,15.883,10.472,24.103c0.215,0.38,0.527,0.581,1.004,0.908c0.236,0.162,0.814,0.412,0.814,0.412"/>
		<path d="M282.889,189.412l-30.637,-7.725" style="&st5;"/>
		<path style="&st5;" d="    M291.36,189.634c-0.278,0.226-0.652,0.48-1.132,0.748c-0.325,0.183-0.799,0.268-1.319,0.209c-1.218-0.141-4.763-0.711-5.399-0.881    c-0.346-0.094-0.674-0.343-0.861-0.67c-1.538-2.7-6.577-13.138-8.718-17.977c-2.141-4.839-2.676-7.835-3.218-9.46    c-0.509-1.525-0.747-2.517-0.747-3.31c0-0.65-0.091-6.315,0.091-8.932c0.132-1.909,0.19-2.259,0.278-3.163    c0.088-0.904-0.163-1.598-1.598-2.009l-5.537-1.23"/>
		<path style="&st5;" d="    M290.439,187.725c0,0.609,0.691,1.68,0.921,1.908"/>
		<path style="&st5;" d="    M267.425,147.465c-0.329-0.086-0.631-0.168-0.871-0.239c-0.253-0.076-0.687-0.285-0.974-0.454    c-0.512-0.301-0.798-0.47-1.381-0.861c-0.369-0.249-0.959-0.817-1.064-1.092c-0.129-0.338-0.239-0.634-0.36-1.093    c-0.081-0.314-0.096-0.644-0.096-1.03c0-4.055,2.036-15.055,2.509-17.382c0.526-2.595,1.18-5.15,1.458-5.983    c0.277-0.832,1.276-1.87,1.961-2.216c2.164-1.092,8.982-2.661,12.988-2.808"/>
		<path style="&st5;" d="    M220.376,117.838c-0.254,1.499-1.749,13.142-1.749,15.16c0,2.467-0.081,7.131,0.054,9.815c0.135,2.684,0.273,3.057,0.792,4.745    c0.76,2.471,2.339,7.656,4.936,13.201c3.279,7.002,3.98,8.652,5.229,10.902"/>
		<path style="&st5;" d="    M237.691,163.19c0-0.809,0-1.46,0-1.46"/>
		<path d="M276.166,177.318l-35.34,-9.47" style="&st5;"/>
		<path style="&st5;" d="    M265.58,146.772c-2.465-0.385-30.611-7.921-31.441-8.143"/>
		<path style="&st5;" d="    M234.139,138.63c-0.31-0.179-2.511-1.259-2.811-1.504c-0.293-0.24-0.482-0.647-0.578-0.884c-0.166-0.409-0.339-1.069-0.426-1.503    c-0.086-0.434-0.086-0.846-0.086-1.137c0-1.808,2.088-15.57,2.447-17.442c0.619-3.225,1.118-4.452,1.506-5.344    c0.386-0.893,0.802-1.315,2.141-2.088c1.34-0.774,9.072-2.835,12.116-2.835"/>
		<path style="&st5;" d="    M268.616,117.117c-3.67-1.18-10.015-2.892-16.257-4.491c-6.512-1.668-12.91-3.213-16.028-3.899"/>
		<path style="&st5;" d="    M233.609,148.389c-0.006,0.369,0.253,0.738,0.577,0.822l30.678,7.863c0.325,0.083,0.672-0.228,0.677-0.599l0.099-7.755    c0.004-0.369-0.253-0.737-0.579-0.822l-30.758-8.031c-0.324-0.083-0.593,0.149-0.598,0.518L233.609,148.389z"/>
		<path style="&st5;" d="    M229.752,159.562c-0.168-0.014-0.396-0.338-0.491-0.556c-0.092-0.209-0.42-1.058-0.817-2.121l-1.617-5.348    c-0.14-1.112,0.305-2.234,0.383-2.464c0.153-0.449,0.456-0.992,0.655-1.19c0.15-0.151,0.487-0.342,0.54-0.395    c0.053-0.052,0.107-0.173,0.107-0.311c0-0.135,0.135-8.98,0.135-9.245c0-0.264,0.348-0.448,0.623-0.373    c0.276,0.073,4.186,1.225,4.378,1.276c0.19,0.051,0.377-0.01,0.492-0.207"/>
		<path style="&st5;" d="    M229.28,133.541c-2.68-0.724-4.368-1.179-4.431-1.196c-0.746-0.2-1.435-0.152-1.547,1.07c-0.207,2.291-0.326,10.159-0.202,11.597    c0.209,2.409,0.692,3.629,1.302,5.587c1.64,5.262,5.763,15.42,9.188,21.813"/>
		<path d="M233.737,148.845l-4.94,-1.26" style="&st5;"/>
		<path d="M269.965,158.083l-4.608,-1.175" style="&st5;"/>
		<path style="&st5;" d="    M272.952,170.737c-1.05-1.875-2.7-7.463-2.775-7.913c-0.075-0.45-0.6-1.2-1.462-1.425c-2.966-0.774-20.216-5.344-20.425-5.4    c-1.022-0.273-2,0.113-1.633,1.374c0.915,3.148,1.483,4.864,1.808,5.614c0.325,0.75,1,1.175,2,1.45    c1,0.275,3.975,1.025,3.975,1.025"/>
		<path style="&st5;" d="    M273.964,171.612c-0.975-0.078-1.704,0.25-2.092,0.337c-0.397,0.088-0.959,0.163-2.433-0.212    c-1.214-0.309-12.658-3.321-13.025-3.4c-0.448-0.098-0.777-0.3-0.97-0.575c-0.238-0.341-0.381-0.555-0.557-0.874    c-0.122-0.219-0.261-0.545-0.345-1.068c-0.016-0.097-0.203-6.733-0.003-8.133"/>
		<path style="&st5;" d="    M247.453,162.629c-0.308,0.236-0.659,0.237-1.023,0.139c-0.364-0.098-13.633-3.678-14.154-3.819    c-0.52-0.139-0.827-0.362-1.083-0.709c-0.26-0.351-0.73-0.867-0.959-1.549c-0.52-1.554-1.383-4.066-1.608-4.741    c-0.225-0.675,0.038-1.087,0.413-1.162"/>
		<path style="&st5;" d="    M247.344,163.536c0.169-0.17,0.317-0.491,0.109-0.908c-0.207-0.415-2.331-6.439-2.475-6.958c-0.109-0.389-0.339-0.965-1.07-1.171    c-1.321-0.373-14.177-3.859-14.675-3.966c-0.499-0.107-0.761-0.025-0.95,0.163"/>
		<path d="M254.614,166.287l-24.862,-6.725" style="&st5;"/>
		<path style="&st5;" d="    M328.609,164.32c-0.327,0.048-0.589,0.4-0.628,0.607c-0.182,0.969-1.078,6.333-1.078,6.804c0,0.47,0.033,0.948,0.601,1.09    c0.566,0.141,10.983,2.902,11.361,2.998c0.586,0.146,1.173,0.086,1.25-0.142"/>
		<path style="&st5;" d="    M339.252,176.519c0.303-0.087,0.68-0.165,0.862-0.842c0.182-0.676,0.816-5.863,0.989-6.714c0.219-1.087-0.489-1.598-1.131-1.777    c-0.714-0.199-10.028-2.53-11.364-2.866c-0.102-0.027-0.696,0.03-0.952,0.29"/>
		<path d="M219.328,147.089l-48.41,-12.418" style="&st5;"/>
		<path style="&st5;" d="    M189.97,142.195c0.223-0.129,0.661-0.187,1.058-0.086c0.396,0.102,8.72,2.275,9.024,2.348c1.408,0.33,1.579,0.713,2.029,1.448    c0.132,0.214,0.404,0.861,0.712,1.64"/>
		<path style="&st5;" d="    M227.117,173.499c-9.173-2.408-38.823-10.149-39.168-10.206c-0.833-0.14-1.015-0.643-1.344-1.163l-2.549-0.703l-0.789-1.445"/>
		<path style="&st5;" d="    M191.028,142.109c0,0-0.303,0.359-0.184,0.813c0.126,0.477,0.731,2.367,0.87,2.763c0.139,0.396,0.63,0.573,0.927,0.653    c0.274,0.072,7.783,2.059,9.173,2.427"/>
		<path style="&st5;" d="    M193,148.462c0.208-0.49,0.566-1.877,0.566-1.877"/>
		<path style="&st5;" d="    M170.226,130.67c-0.099,1.956,0.758,4.105,1.306,5.991c1.975,6.8,6.658,16.615,9.297,21.3c0.589,1.047,1.591,1.638,2.439,2.021"/>
		<path style="&st5;" d="    M172.656,120.99c-0.093,0.26-0.358,1.192-0.68,2.381"/>
		<path style="&st5;" d="    M171.532,136.661c-0.773,0-1.467-0.037-2.003-0.181c-0.537-0.143-12.366-3.463-12.679-3.57c-0.492-0.165-0.728-0.243-0.806-0.471"/>
		<path style="&st5;" d="    M168.91,156.861c0.506,0.136,1.908,0.487,2.637,0.909c0.731,0.422,0.998,0.603,1.385,0.843c0.222,0.135,1.284,0.634,1.755,0.759    c2.633,0.705,8.577,2.329,8.856,2.403c0.279,0.076,0.656-0.029,0.983-0.218"/>
		<path style="&st5;" d="    M168.182,151.383c0.127-0.073,0.566-0.33,1.13-0.179c0.565,0.152,4.193,1.196,4.73,1.338c0.537,0.144,1.279,0.708,1.666,1.422    c0.387,0.714,1.602,3.413,2.157,4.216c0.367,0.531,0.557,0.761,0.723,0.927c0.223,0.224,0.41,0.447,0.406,0.595"/>
		<path style="&st5;" d="    M168.948,151.158c0,0-0.157,0.28-0.04,0.552c0.116,0.273,2.433,4.556,2.861,5.166c0.427,0.61,1.299,0.979,1.536,1.043    c0.237,0.065,3.96,1.144,4.435,1.272c0.474,0.127,0.769-0.003,0.855-0.09"/>
		<path d="M170.77,158.025l1.883,0.413" style="&st5;"/>
		<path style="&st5;" d="    M170.77,158.025c0,1.182,1.23,5.822,1.23,6.734c0,0.913,0.158,4.204,0.555,11.264c0.397,7.059,1.27,18.362-5.076,27.129    c-1.748,2.415-7.023,6.591-9.923,8.265c-2.9,1.674-15.375,8.775-15.375,8.775"/>
		<path style="&st5;" d="    M177.949,199.028c7.932-7.933,17.377-30.448,17.984-33.673"/>
		<path style="&st5;" d="    M165.767,130.153c-1.208-0.323-7.648-2.291-8.157-2.429c-0.193-0.052-0.423-0.144-0.629-0.272"/>
		<path style="&st5;" d="    M291.05,155.818c0,0,0.754,0.176,1.312,0.325c0.557,0.15,0.853,0.02,0.991-0.119c0.14-0.138,0.64-1.288,1.31-1.467    c0.668-0.178,6.37,0.425,10.113,1.429c2.295,0.615,5.236,1.559,7.349,2.513c2.34,1.056,4.215,2.123,4.798,2.737    c0.582,0.614,0.679,1.132,0.712,1.358c0.032,0.226,0.323,0.517,0.841,0.485"/>
		<path style="&st5;" d="    M339.129,115.638c5.483,7.504,10.775,14.928,12.66,17.551c2.05,2.853,6.584,9.123,8.214,11.876    c1.267,2.138,2.455,7.132,2.064,11.496c-0.444,4.965,0.448,11.391,0.746,14.484c0.298,3.094,3.034,33.197,3.034,33.674"/>
		<path style="&st5;" d="    M351.447,109.669c5.958,7.752,11.655,15.29,13.509,17.959c3.623,5.218,11.532,17.05,15.047,21.618    c1.494,1.941,2.862,3.022,3.542,3.26"/>
		<path style="&st5;" d="    M365.817,204.298c-0.351,0.203-0.571,0.238-0.571,0.646c0,0.793,0.35,5.424,0.579,7.236c0.04,0.312,0.076,0.54,0.106,0.65    c0.146,0.543,0.631,1.658,0.891,2.368c0.103,0.277,0.159,0.492,0.168,0.776c0.109,3.182-0.597,16.954-0.448,22    c0.06,2.062-0.417,4.601-1.043,6.537c-0.889,2.755-2.388,7.121-5.269,8.798c-4.955,2.883-22.823,13.383-22.823,13.383"/>
		<path style="&st5;" d="    M365.547,203.694c-0.421,0-0.726,0.005-1.045,0.159c-0.671,0.321-6.15,2.577-6.413,2.729c-0.264,0.152-0.599,0.104-0.693,0.079"/>
		<path style="&st5;" d="    M357.248,206.639c0,0,0.205-0.591-0.244-0.851c-0.449-0.259-2.864-1.634-3.306-1.888c-0.441-0.255-0.738-0.592-1.039-1.133    c-2.095-3.769-8.288-17.661-9.177-20.549c-0.888-2.885-1.194-3.91-1.271-4.572c-0.068-0.592-0.127-1.23,0-2.191    c0.378-2.842,1.653-9.33,1.765-10.155c0.112-0.825-0.075-1.003-0.403-1.078s-1.566-0.319-1.566-0.319"/>
		<path style="&st5;" d="    M357.648,206.488c0,0-0.781,0.543-1.046,0.695c-0.264,0.153-1.381-0.147-1.851-0.273c-0.578-0.154-1.986-0.928-2.219-1.064    c-0.233-0.135-0.929-0.458-1.241-0.585c-0.312-0.125-2.063-0.566-2.345-0.566c-0.283,0-0.387,0.097-0.387,0.216"/>
		<path style="&st5;" d="    M351.157,205.246c0,0-0.135,0.428-0.184,0.512c-0.083,0.141-0.454,0.224-1.015,0.088c-0.879-0.213-9.053-2.196-9.649-2.349    c-0.651-0.166-1.263-0.454-1.704-0.71c-0.441-0.254-0.905-0.587-1.213-1.122c-4.479-7.794-8.293-16.223-10.46-23.434    c-0.221-0.734-0.513-1.584-0.736-2.478c-0.238-0.955-0.542-2.272-0.493-3.789c0.018-0.585,0.915-8.147,0.985-9.106"/>
		<path style="&st5;" d="    M360.675,157.028c-0.19-0.047-0.487,0.013-0.587,0.07c0,0-3.518,1.357-3.71,1.469c-0.192,0.11-0.829,0.064-0.991,0.02    c-0.513-0.137-2.071-0.495-2.109-0.504c-0.037-0.011-0.18-0.134-0.18-0.304c0-0.171,0.047-0.522,0.152-0.928    c0.104-0.407,3.615-10.837,4.68-13.075"/>
		<path style="&st5;" d="    M326.625,163.112c0.079,0.079,0.209,0.113,0.385,0.158c1.245,0.312,8.69,2.099,11.867,2.893c0.9,0.225,1.087-0.075,1.35-0.825    c0.262-0.75,0.975-1.313,1.537-1.575s11.044-5.592,11.044-5.592"/>
		<path style="&st5;" d="    M354.177,137.129c-2.76,1.008-6.768,2.762-7.65,3.272c-0.881,0.508-1.818,0.975-2.827,2.961"/>
		<path style="&st5;" d="    M342.219,147.03c-0.167,0.669-1.154,4.343-1.755,6.982"/>
		<path style="&st5;" d="    M347.011,131.597c-0.929-0.355-2.632-0.388-3.333-0.388c-0.255,0-1.381,0.178-1.95,0.33c-0.329,0.088-1.724,0.617-2.983,1.129"/>
		<path style="&st5;" d="    M349.485,132.393c-0.288,0-4.23-0.369-4.687-0.369c-0.97,0-1.767,0.174-1.767,0.378c0,0.203,0.535,0.471,1.482,0.773    c0.574,0.184,8.987,3.085,9.595,3.249"/>
		<path style="&st5;" d="    M326.689,162.862c-0.123-0.124-0.933-2.385-0.994-2.694c-0.169-0.834-0.178-1.796-0.098-2.421c0.046-0.367,0.779-6.04,0.888-7.07    c0.106-1.008,0.967-5.495,1.137-6.247"/>
		<path style="&st5;" d="    M347.116,204.671c-0.209-0.121-0.421-0.308-0.635-0.615c-0.168-0.243-2.677-5.137-3.014-5.673    c-0.337-0.536-0.752-0.892-1.269-1.031c-1.927-0.516-4.877-1.196-5.375-1.328c-0.497-0.135-0.812,0.158-0.812,0.336"/>
		<path style="&st5;" d="    M336.823,196.023c-0.168,0.168-0.198,0.432-0.083,0.652c0.67,1.268,2.082,4.335,2.944,5.42c0.235,0.296,0.696,0.608,1.272,0.763    s4.895,1.15,5.525,1.198"/>
		<path style="&st5;" d="    M339.217,201.837c-0.11,0.111-0.366,0.502-0.92,0.355c-3.006-0.806-42.867-11.186-43.246-11.306    c-1.313-0.417-2.736-0.924-3.678-1.253"/>
		<path style="&st5;" d="    M299.797,119.537c-1.512-0.129-3.547,0.12-4.271,0.312c-0.724,0.194-2.811,0.939-5.058,1.923    c-2.062,0.903-3.885,1.995-4.966,2.727c-1.862,1.262-2.515,3.199-3.442,5.568c-0.792,2.026-1.482,4.582-2.273,7.778    c-0.52,2.104-0.93,4.971-1.203,6.412c-0.596,3.153-0.56,3.908-0.803,6.231c-0.278,2.66-0.467,5.801-0.375,8.701"/>
		<path style="&st5;" d="    M291.628,152.827c-0.18-0.01-0.525-0.044-0.938-0.152c-0.613-0.16-11.025-2.994-11.025-2.994"/>
		<path d="M326.401,162.204l-7.287,-1.867" style="&st5;"/>
		<path style="&st5;" d="    M323.989,156.1c-1.327-0.341-8.176-2.158-8.316-2.193c-0.74-0.192-1.206-0.528-1.548-0.741c-3.027-1.877-6.682-3.171-9.912-3.907    c-4.824-1.097-9.127-1.581-11.531-1.581c-0.542,0-0.782-0.018-1.424-0.188c-0.695-0.183-9.096-2.38-9.516-2.493"/>
		<path style="&st5;" d="    M302.818,128.317c-0.759-0.037-1.245,0.065-1.737,0.246c-1.002,0.369-2.985,1.363-4.429,2.15    c-1.087,0.593-1.772,1.238-2.439,2.374c-1.661,2.835-5.149,7.413-7.2,9.712c-0.17,0.19-0.156,0.65,0.238,0.762    c0.564,0.162,26.339,6.998,36.232,9.603c0.77,0.203,0.912-0.101,0.993-0.465"/>
		<path style="&st5;" d="    M314.578,185.047c0.613,0,1.754-0.361,2.742-1.711c1.444-1.974,1.332-5.762,1.194-6.474c-0.08-0.41-0.227-1.028-0.403-1.846    c-0.135-0.629-0.272-1.042-0.047-1.704c0.225-0.662,0.487-1.862,0.5-3.1c0.013-1.238-0.238-2.712-0.413-3.288    c-0.175-0.575-0.165-0.98-0.064-1.571c0.333-1.945,1.022-5.163,1.022-5.163c-0.223-0.583-0.668-1.399-1.141-2.264    c-0.473-0.862-1.291-2.104-2.198-2.656c-2.811-1.713-7.876-3.434-10.937-4.046c-4.778-0.955-8.919-1.524-10.348-1.169    c-2.242,0.556-2.705,2.342-2.872,2.814c-0.195,0.552-0.727,4.029-0.922,5.031c0,0-0.227,0.912-0.427,2.387    c-0.13,0.962-0.242,1.937-0.072,2.775c0.422,2.088,2.501,8.8,3.187,10.769c0.658,1.888,1.626,3.61,3.763,4.613    c3.149,1.479,6.662,2.758,9.889,3.482c3.229,0.722,8.082,2.388,10.289,1.41"/>
		<path style="&st5;" d="    M320.244,190.694c0.127-0.073,0.566-0.328,1.131-0.179c0.565,0.153,4.193,1.196,4.73,1.338c0.537,0.144,1.279,0.708,1.666,1.421    c0.387,0.715,1.711,3.579,2.265,4.38c0.367,0.533,0.284,0.431,0.616,0.764c0.105,0.104,0.445,0.451,0.311,0.583"/>
		<path style="&st5;" d="    M321.009,190.469c0,0-0.156,0.28-0.04,0.551c0.117,0.274,2.433,4.556,2.861,5.167c0.427,0.611,1.299,0.98,1.536,1.045    c0.237,0.063,3.96,1.143,4.435,1.271c0.474,0.127,0.769-0.004,0.855-0.09"/>
		<path style="&st5;" d="    M301.711,184.756c0-0.148,0.244-0.343,0.808-0.191c0.564,0.151,9.846,2.665,11.108,2.994c0.538,0.141,1.199,0.429,1.608,1.215    c0.393,0.752,1.026,2.103,1.58,3.165c0.299,0.574,0.281,0.882-0.038,0.969"/>
		<path style="&st5;" d="    M316.789,191.887c-0.277-0.075-8.036-2.071-10.525-2.75c-0.55-0.15-0.8-0.631-0.95-0.981c-0.15-0.35-1.175-2.419-1.35-2.719    s-0.125-0.4-0.125-0.525"/>
		<path style="&st5;" d="    M290.52,172.619c0.467,1.253,0.893,2.413,1.053,2.81c0.202,0.503-0.49,0.826-1.131,0.653c-0.642-0.172-3.781-1.025-4.245-1.147    c-0.8-0.216-1.362-0.51-1.798-1.483c-0.533-1.191-2.159-5.794-2.342-6.358c-0.212-0.652-0.271-1.412,0.595-1.268    c0.255,0.043,3.768,0.894,5.075,1.199c1.125,0.263,1.162,0.525,1.35,1.05C289.264,168.6,290.089,171.463,290.52,172.619z"/>
		<path style="&st5;" d="    M324.99,133.049c-1.805-1.464-3.601-2.89-4.284-3.381c-1.227-0.882-3.318-1.789-4.938-2.344    c-5.019-1.715-19.831-5.253-21.757-5.564c-1.65-0.266-4.744,0.509-5.686,1.053"/>
		<path style="&st5;" d="    M321.14,128.861c2.023,0,10.768,0.363,13.51,0.843c1.831,0.322,5.443,1.22,5.924,1.498"/>
		<path style="&st5;" d="    M286.449,143.198c-0.595,0-2.721,0.095-3.565-0.15"/>
		<path style="&st5;" d="    M286.492,152.87c-0.633-0.179-3.195-0.823-3.726-0.966c-0.737-0.198-1.382,0.244-1.556,1.036c-0.176,0.796-0.718,4.017-0.81,4.638    c-0.115,0.78,0.184,1.398,0.903,1.639c0.839,0.28,2.825,0.784,3.54,0.917c0.891,0.167,1.626-0.051,1.813-1    c0.085-0.43,0.638-3.593,0.696-4.485C287.427,153.487,287.095,153.041,286.492,152.87z"/>
		<path style="&st5;" d="    M158.875,119.65c-0.737-0.197-1.382,0.244-1.556,1.036c-0.175,0.796-0.771,5.015-0.863,5.636c-0.114,0.78-0.082,0.956,0.638,1.197    c0.838,0.28,8.486,2.639,9.201,2.771c0.891,0.167,1.465-0.207,1.653-1.155c0.187-0.946,1.123-4.755,1.208-5.323    c0.117-0.79-0.171-1.278-0.892-1.498C167.634,122.123,159.408,119.793,158.875,119.65z"/>
		<path style="&st5;" d="    M257.035,186.736c0.62-0.091,1.616,0.457,2.152,1.332c0.153,0.25,0.324,0.7,0.324,0.7"/>
		<path style="&st5;" d="    M252.619,190.303c-0.095,0.367-0.065,0.613,0.031,0.916c0.074,0.242,0.566,0.891,0.639,0.965"/>
		<path style="&st5;" d="    M252.65,191.219c-0.697,1.218-1.209,3.084-1.679,5.073c-0.47,1.987-1.436,8.421-1.436,9.388"/>
		<path style="&st5;" d="    M259.51,188.769c0.371,0.928-0.261,2.925-1.757,3.846c-1.636,1.01-3.461,0.834-4.464-0.431"/>
		<path style="&st5;" d="    M258.074,187.891c0,0-3.71-4.138-4.892-5.321c-1.182-1.184-9.741-8.529-10.842-9.63"/>
		<path style="&st5;" d="    M253.396,191.224c0,0-3.064-3.655-4.032-4.622c-0.967-0.969-7.922-10.8-8.66-12.043"/>
		<path style="&st5;" d="    M242.322,171.589c0.205,0.454,0.221,0.862,0.018,1.35c-0.275,0.656-0.863,1.228-1.635,1.62c-0.529,0.267-1.208-0.089-1.531-0.276    c-0.458-0.266-3.11-1.874-4.17-2.486c-1.061-0.613-2.618-1.666-2.856-3.034c-0.237-1.369-0.058-2.529,0.793-3.855    c0.751-1.17,2.211-2.18,3.937-1.977c2.147,0.254,2.767,2.529,3.272,3.659C240.655,167.722,241.577,169.943,242.322,171.589z"/>
		<path style="&st5;" d="    M249.535,205.68c0,0.911,0.903,2.29,3.408,2.961c1.15,0.311,6.421,1.491,8.018,1.918c1.598,0.428,4.895,0.643,6.956-0.186    c1.271-0.511,2.322-1.961,3.271-3.161s4.4-7.25,5.2-8.65c0.8-1.4,0.55-3.55-0.9-4.3s-5.925-1.786-8.012-2.643    c-1.021-0.419-5.791-2.59-8.29-3.551"/>
		<path style="&st5;" d="    M261.593,141.395c-0.061,1.03-0.477,1.816-1.644,1.478c-2.254-0.655-25.743-6.889-26.279-7.042    c-0.704-0.199-1.329-0.546-1.21-1.622c0.066-0.601,1.453-13.206,1.543-13.95c0.096-0.805,0.647-1.939,1.581-1.696"/>
		<path style="&st5;" d="    M260.532,143.628c0.656-0.211,1.04-0.921,1.04-1.587c0-2.775,1.602-11.631,1.724-13.693c0.144-2.426-0.838-2.803-2.023-3.118    c-1.184-0.318-13.063-3.334-14.275-3.658c-1.211-0.325-10.724-2.899-11.699-3.091c-0.774-0.152-1.357-0.039-1.775,0.284"/>
		<path style="&st5;" d="    M249.892,115.762c-0.212-0.056-0.394,0.064-0.457,0.426c-0.059,0.334-0.474,3.859-0.474,4.062c0,0.272,0.072,0.375,0.4,0.462    c0.33,0.089,12.025,3.108,12.178,3.149"/>
		<path style="&st5;" d="    M261.076,124.988c0.155-0.086,0.28-0.242,0.33-0.439l1.15-4.703c0.091-0.356-0.09-0.714-0.406-0.8l-13.988-3.748    c-0.158-0.042-0.32-0.007-0.453,0.083"/>
		<path style="&st5;" d="    M222.402,187.95c-0.863,1.988-1.425,6.038-1.762,8.363c-0.338,2.325-0.525,4.425-0.6,5.231c-0.075,0.806,0.056,1.35,0.244,2.044    c0.188,0.694,0.525,1.256,1.238,1.5c0.712,0.244,5.85,1.8,6.675,1.913s1.669,0.356,2.606-0.394s2.156-1.894,2.606-2.306    c0.45-0.413,0.581-1.275,1.238-1.875c0.656-0.6,3.975-3.506,5.344-4.575c1.369-1.069,3.637-1.763,5.344-1.969    c1.589-0.192,4.299-0.189,5.679-0.006"/>
		<path style="&st5;" d="    M237.177,173.325c0,0-4.819-1.181-6.019-1.481s-2.081-0.431-3.15,0.75s-3.506,4.125-4.387,5.212    c-0.881,1.088-1.125,1.575-1.331,2.231s-0.431,1.481-0.581,2.175c-0.15,0.694,0.019,1.481,0.15,2.381    c0.131,0.9,1.631,9.188,1.763,9.956c0.131,0.769,0.694,1.069,1.556,1.313c0.863,0.244,2.906,0.75,3.544,0.863    c0.637,0.112,1.444,0.075,2.4-0.263c0.956-0.337,4.95-2.475,6.656-3.506c1.706-1.031,2.794-1.988,3.769-2.738    c0.975-0.75,6.469-5.288,6.469-5.288"/>
		<path style="&st5;" d="    M223.239,181.237c-0.1,0.75-0.3,1.3,0.725,1.65c1.025,0.35,3.95,1.1,4.875,1.175c0.925,0.075,1.175,0.15,1.9-0.225    s3.525-1.725,4.65-2.625s5.35-4.275,5.675-4.625c0.325-0.35,0.225-0.875-0.125-1.1"/>
		<path style="&st5;" d="    M223.564,195.412c-0.131,0.975-0.525,4.331-0.525,5.063c0,0.731,0.038,1.631,1.275,2.025c1.238,0.394,3.375,0.881,4.275,1.087    c0.9,0.206,1.762,0.188,2.419-0.3"/>
		<path style="&st5;" d="    M225.158,200.4c0.019,0.6,0.169,0.956,0.713,1.125c0.544,0.169,1.35,0.356,1.612,0.375c0.263,0.019,0.75-0.075,0.788-0.712    s0.281-3.469,0.45-4.462"/>
		<path style="&st5;" d="    M225.664,201.225c-0.206-0.206-0.188-0.638-0.038-0.994c0.15-0.356,0.731-1.387,0.881-1.706c0.15-0.319,0.619-0.544,1.012-0.45    s0.975,0.244,0.975,0.244"/>
		<path style="&st5;" d="    M326.514,150.937c0,0,12,3.025,12.825,3.175c0.825,0.15,1.075,0.35,1.275,0.475c0.2,0.125,0.475,0.312,0.362,1.125    c-0.113,0.813-0.688,4.088-0.8,4.838c-0.113,0.75-0.1,1.388,0.3,1.85c0.4,0.462,1.063,1.225,1.063,1.225"/>
		<path style="&st5;" d="    M340.239,154.962c-0.375,1.7-1.15,5.5-1.25,6.525c-0.1,1.025-0.125,1.375,0.125,2.025c0.25,0.65,0.75,1.9,0.75,1.9"/>
		<path d="M225.343,109.481c2.488,0 4.505,2.655 4.505,5.931c0,3.276  -2.017,5.931 -4.505,5.931c-2.488,0 -4.505,-2.655 -4.505,-5.931c0,-3.276 2.017,-5.931 4.505,-5.931" style="&st5;" transform="matrix(-0.983 0.1834 -0.1834 -0.983 468.0296 187.5389)"/>
		<path d="M270.956,121.839c2.739,0 4.96,2.568 4.96,5.736c0,3.168  -2.221,5.736 -4.96,5.736c-2.739,0 -4.96,-2.568 -4.96,-5.736c0,-3.168 2.221,-5.736 4.96,-5.736" style="&st5;" transform="matrix(-0.983 0.1834 -0.1834 -0.983 560.7142 203.2915)"/>
		<path style="&st5;" d="    M325.527,161.925c-0.563-1.05-1.125-2.55-1.275-3.188s-0.264-2.086-0.2-3.188c0.075-1.287,2.034-11.679,2.275-13.075    c0.157-0.912-0.626-1.919-1.181-2.473c-0.555-0.556-6.301-5.742-7.494-6.652c-1.299-0.992-2.44-1.576-3.808-1.942    c-1.368-0.367-16.626-4.736-20.611-5.384c-0.969-0.158-1.6-0.07-2.107,0.066c-1.002,0.269-2.647,1.465-3.935,2.309    c-1.036,0.677-1.738,0.96-2.189,2.198c-0.867,2.377-2.907,10.165-3.444,13.497c-0.31,1.929-0.619,4.474-0.619,5.625"/>
		<path d="M334.003,138.473c2.719,0 4.923,2.594 4.923,5.794c0,3.2  -2.204,5.794 -4.923,5.794c-2.719,0 -4.923,-2.594 -4.923,-5.794c0,-3.2 2.204,-5.794 4.923,-5.794" style="&st5;" transform="matrix(-0.9899 0.1418 -0.1418 -0.9899 685.0909 239.7017)"/>
		<path style="&st5;" d="    M264.627,128.212c0.637,3.9,3.038,6.15,5.925,6.938c2.888,0.787,5.283-0.233,6.729-1.148c0.883-0.558,1.605-1.262,2.06-1.958    c0.612-0.935,0.938-2.342,0.938-4.327c0-4.809-3.435-8.71-7.67-8.709c-1.252,0-2.433,0.341-3.477,0.943    c-1.75,1.011-3.111,2.761-3.766,4.888"/>
	</g>
	<g>
		<path style="&st6;" d="    M279.341,132.044c0.706-0.433,1.685-2.834,2.103-4.445c1.025-3.955,3.882-7.125,2.885-8.494c-0.53-0.729-0.899-1.03-2.201-1.216    c-1.634-0.233-5.458-0.42-7.784,0.116c-2.595,0.599-4.178,1.356-5.212,1.946"/>
		<path style="&st6;" d="    M328.293,141.802c-0.329,0.885-0.511,1.857-0.511,2.877c-0.001,4.083,2.913,7.393,6.509,7.393"/>
		<path style="&st6;" d="    M334.292,152.072c2.485,0.146,4.967-1.082,6.18-2.538c0.715-0.858,2.315-3.004,2.315-4.985c0-4.121-2.486-7.118-5.9-7.999    c-2.366-0.61-3.805,0.072-4.849,0.676c-1.059,0.614-2.931,1.937-3.744,4.575"/>
		<path style="&st6;" d="    M342.787,144.549c0.356-1.307,0.705-2.125,1.095-2.646c1.612-2.153,3.039-3.712,2.46-4.839c-0.412-0.802-0.944-0.982-2.062-1.218    c-1.616-0.341-4.988-0.208-6.993-0.037c-2.403,0.204-3.463,0.424-5.249,1.418"/>
		<path d="M166.193,93.637c2.593,0 4.696,2.552 4.696,5.7c0,3.148  -2.103,5.7 -4.696,5.7c-2.593,0 -4.696,-2.552 -4.696,-5.7c0,-3.148 2.103,-5.7 4.696,-5.7" style="&st6;"/>
		<path style="&st6;" d="    M163.111,92.818c-1.598,0.999-3.478,3.076-3.478,6.587c0,3.841,2.59,7.397,6.398,7.518"/>
		<path style="&st6;" d="    M166.031,106.923c2.484,0.147,4.488-1.082,5.702-2.538c0.715-0.858,1.757-3.498,2.267-5.3c0.923-3.263-1.863-6.777-5.277-7.657    c-0.79-0.205-2.233-0.145-2.965,0.068"/>
		<path style="&st6;" d="    M174,99.085c0.454-1.484,0.798-2.591,1.286-3.219c1.494-1.918,2.43-3.187,2.143-4.035c-0.273-0.808-0.887-0.872-1.998-1.133    c-1.448-0.341-4.49-0.187-6.23,0.009c-1.388,0.156-2.716,0.578-3.443,0.789c-1.093,0.318-1.996,0.884-2.647,1.321"/>
		<path style="&st6;" d="    M222.726,108.446c-1.599,1.127-3.028,4.091-2.892,6.668c0.198,3.761,2.512,6.837,5.364,7.527c0.535,0.129,1.06,0.144,1.565,0.063"/>
		<path style="&st6;" d="    M232.989,109.58c-1.019-1.186-2.229-2.472-3.89-2.885c-1.274-0.316-2.41-0.294-3.316,0.022"/>
		<path style="&st6;" d="    M226.331,122.75c2.23,0,4.206-1.527,5.157-3.135c0.569-0.961,0.982-2.042,1.196-3.456c0.486-3.218-0.337-5.54,0.304-6.579    c1.277-2.068,5.367-2.783,5.253-3.659c-0.076-0.596-1.733-0.51-2.846-0.51c-1.665,0-4.779,0.066-6.33,0.373    c-1.37,0.271-2.558,0.717-3.284,0.933c-0.737,0.218-2.422,1.132-3.056,1.729"/>
		<path style="&st6;" d="    M161.468,92.687c-0.582-1.523-3.171-8.125-6.267-16.018"/>
		<path style="&st6;" d="    M167.379,71.699c2.887,7.26,5.466,13.75,6.274,15.772c0.131,0.328,0.445,0.753,0.756,0.93"/>
		<path style="&st6;" d="    M164.414,92.038c1.571-0.908,5.556-2.963,6.332-3.171c0,0,1.801-0.484,1.97-0.528"/>
		<path style="&st6;" d="    M161.468,92.685c-0.194,0.194-0.3,0.411-0.244,0.657c0.064,0.284,0.163,0.483,0.275,0.848"/>
		<path style="&st6;" d="    M188.11,91.893c3.35,0,29.714,6.847,47.978,11.241c11.19,2.431,21.878,4.907,32.077,7.605c8.723,2.308,20.701,5.378,29.452,8.314    c17.388,4.541,33.012,8.937,44.112,12.486"/>
		<path style="&st6;" d="    M188.082,90.787c-0.744-0.12-2.759,0.251-3.15,0.355c-0.39,0.104-1.603,0.086-2.436-0.029c-1.574-0.219-9.932-1.924-11.75-2.246"/>
		<path style="&st6;" d="    M192.381,91.579c-1.513-0.129-3.546,0.12-4.271,0.314c-0.724,0.194-2.81,0.938-5.058,1.922c-2.062,0.903-3.886,1.995-4.966,2.727    c-1.862,1.262-2.515,3.199-3.442,5.568c-0.792,2.026-1.714,5.553-2.273,7.778c-0.551,2.194-0.947,5.347-1.08,6.738    c-0.096,1.008-0.05,1.399,0.174,2.018c0.225,0.618,0.865,2.022,1.189,2.345"/>
		<path style="&st6;" d="    M172.715,88.34c0.445,0,1.076-0.001,1.693,0.061c1.421,0.145,12.337,2.207,13.674,2.386c1.337,0.178,2.703,0.459,4.373,0.807    c4.242,0.885,49.623,10.719,79.105,18.511c24.2,6.396,66.626,18.289,75.451,21.492c0.654,0.176,1.85,0.629,2.474,0.796    c0.194,0.051,1.108,0.368,2.305,0.796"/>
		<path style="&st6;" d="    M159.672,100.203c-0.323,1.444-0.889,4.421-1.119,5.794c-0.075,0.439-0.946,6.497-0.946,7.254s0.007,1.126,0.117,1.666    c0.122,0.594,0.637,2.248,0.884,2.872"/>
		<path style="&st6;" d="    M157.724,114.917c-0.797,0.797-0.991,1.376-1.146,2.015c-0.154,0.639-1.298,6.8-1.472,8.233c-0.174,1.433-0.274,2.788-0.038,3.943    c0.294,1.441,0.555,2.317,0.931,3.419c2.169,6.328,6.121,16.718,9.947,22.661c0.789,1.225,2.629,2.153,3.438,2.62    c0.403,0.233,1.134,0.217,1.386,0.217"/>
		<path style="&st6;" d="    M158.609,117.789c0,0,0.286,0.326,0.722,0.459c1.031,0.317,10.325,2.912,10.869,3.058c0.545,0.145,1.153,0.169,1.412,0.099    c0.26-0.069,0.868-0.315,1.044-0.416"/>
		<path style="&st6;" d="    M183.052,93.815c5.429,1.455,44.489,11.56,46.014,11.969"/>
		<path d="M218.627,132.999l-45.971,-12.009" style="&st6;"/>
		<path style="&st6;" d="    M172.372,109.888c-0.398-0.229-1.156-0.426-1.748-0.586c-0.592-0.159-10.898-3.173-11.29-3.278    c-0.392-0.106-0.698-0.111-0.781-0.028"/>
		<path style="&st6;" d="    M175.217,125.782l32.177,8.264c0,0,0.369,0.105,0.544,0.278"/>
		<path style="&st6;" d="    M173.288,131.548c0,0,31.809,8.172,32.302,8.298c0.11,0.028,0.379,0.028,0.554-0.068"/>
		<path style="&st6;" d="    M218.605,139.259c-0.145,0.64-0.31,1.263-0.47,1.849c-0.275,1.011-0.844,1.275-1.225,1.246"/>
		<path style="&st6;" d="    M213.734,132.667c0.06-0.016,0.159-0.013,0.466,0.07c0.305,0.081,1.742,0.455,3.058,0.99c0.653,0.265,1.088,0.447,1.363,0.767"/>
		<path style="&st6;" d="    M213.706,132.677c-0.739,0-5.059,1.387-5.768,1.646c-0.326,0.12-0.552,0.208-0.879,0.536c-0.328,0.327-0.905,1.05-1.083,2.508    c-0.179,1.458,0.061,2.226,0.168,2.412c0.185,0.328,0.785,0.477,1.804,0.827c1.561,0.539,7.001,1.644,8.962,1.748"/>
		<path style="&st6;" d="    M175.217,125.782c-0.698-0.188-1.292,0.496-1.73,1.262c-0.344,0.601-0.628,1.927-0.716,2.845    c-0.057,0.601-0.048,1.506,0.517,1.659"/>
		<path style="&st6;" d="    M178.518,126.629c0-0.506,0.102-2.014,0.102-2.29c0-0.278-0.027-0.787-0.794-0.992c-0.767-0.205-2.465-0.507-3.013-0.601    c-0.894-0.153-1.679-0.014-1.886,0.106"/>
		<path style="&st6;" d="    M172.927,122.851c-0.597,0.252-2.076,1.184-2.776,1.884c-1.18,1.179-1.389,2.955-1.389,3.729c0,1.006,0.156,1.49,0.92,1.931    c0.522,0.301,1.963,0.916,2.52,1.064c0.319,0.086,0.938,0.203,1.084,0.09"/>
		<path style="&st6;" d="    M243.683,114.675l-6.583-1.784c-0.317-0.084-0.647,0.137-0.739,0.494l-0.809,3.307c-0.093,0.356,0.09,0.714,0.406,0.798    l6.412,1.722c0.487,0.15,0.787,0.037,0.9-0.469s0.788-2.906,0.863-3.3C244.208,115.05,244.133,114.825,243.683,114.675z"/>
		<path style="&st6;" d="    M236.088,103.134c-2.927,0.755-5.558,2.02-7.021,2.65"/>
		<path style="&st6;" d="    M279.664,149.681c-0.619,1.8-2.096,8.114-2.334,9.344c-0.238,1.228-0.049,2.634,0.288,3.698    c2.34,7.377,5.819,15.883,10.472,24.103c0.215,0.38,0.527,0.581,1.004,0.908c0.236,0.162,0.814,0.412,0.814,0.412"/>
		<path d="M282.889,189.412l-30.637,-7.725" style="&st6;"/>
		<path style="&st6;" d="    M291.36,189.634c-0.278,0.226-0.652,0.48-1.132,0.748c-0.325,0.183-0.799,0.268-1.319,0.209c-1.218-0.141-4.763-0.711-5.399-0.881    c-0.346-0.094-0.674-0.343-0.861-0.67c-1.538-2.7-6.577-13.138-8.718-17.977c-2.141-4.839-2.676-7.835-3.218-9.46    c-0.509-1.525-0.747-2.517-0.747-3.31c0-0.65-0.091-6.315,0.091-8.932c0.132-1.909,0.19-2.259,0.278-3.163    c0.088-0.904-0.163-1.598-1.598-2.009l-5.537-1.23"/>
		<path style="&st6;" d="    M290.439,187.725c0,0.609,0.691,1.68,0.921,1.908"/>
		<path style="&st6;" d="    M267.425,147.465c-0.329-0.086-0.631-0.168-0.871-0.239c-0.253-0.076-0.687-0.285-0.974-0.454    c-0.512-0.301-0.798-0.47-1.381-0.861c-0.369-0.249-0.959-0.817-1.064-1.092c-0.129-0.338-0.239-0.634-0.36-1.093    c-0.081-0.314-0.096-0.644-0.096-1.03c0-4.055,2.036-15.055,2.509-17.382c0.526-2.595,1.18-5.15,1.458-5.983    c0.277-0.832,1.276-1.87,1.961-2.216c2.164-1.092,8.982-2.661,12.988-2.808"/>
		<path style="&st6;" d="    M220.376,117.838c-0.254,1.499-1.749,13.142-1.749,15.16c0,2.467-0.081,7.131,0.054,9.815c0.135,2.684,0.273,3.057,0.792,4.745    c0.76,2.471,2.339,7.656,4.936,13.201c3.279,7.002,3.98,8.652,5.229,10.902"/>
		<path style="&st6;" d="    M237.691,163.19c0-0.809,0-1.46,0-1.46"/>
		<path d="M276.166,177.318l-35.34,-9.47" style="&st6;"/>
		<path style="&st6;" d="    M265.58,146.772c-2.465-0.385-30.611-7.921-31.441-8.143"/>
		<path style="&st6;" d="    M234.139,138.63c-0.31-0.179-2.511-1.259-2.811-1.504c-0.293-0.24-0.482-0.647-0.578-0.884c-0.166-0.409-0.339-1.069-0.426-1.503    c-0.086-0.434-0.086-0.846-0.086-1.137c0-1.808,2.088-15.57,2.447-17.442c0.619-3.225,1.118-4.452,1.506-5.344    c0.386-0.893,0.802-1.315,2.141-2.088c1.34-0.774,9.072-2.835,12.116-2.835"/>
		<path style="&st6;" d="    M268.616,117.117c-3.67-1.18-10.015-2.892-16.257-4.491c-6.512-1.668-12.91-3.213-16.028-3.899"/>
		<path style="&st6;" d="    M233.609,148.389c-0.006,0.369,0.253,0.738,0.577,0.822l30.678,7.863c0.325,0.083,0.672-0.228,0.677-0.599l0.099-7.755    c0.004-0.369-0.253-0.737-0.579-0.822l-30.758-8.031c-0.324-0.083-0.593,0.149-0.598,0.518L233.609,148.389z"/>
		<path style="&st6;" d="    M229.752,159.562c-0.168-0.014-0.396-0.338-0.491-0.556c-0.092-0.209-0.42-1.058-0.817-2.121l-1.617-5.348    c-0.14-1.112,0.305-2.234,0.383-2.464c0.153-0.449,0.456-0.992,0.655-1.19c0.15-0.151,0.487-0.342,0.54-0.395    c0.053-0.052,0.107-0.173,0.107-0.311c0-0.135,0.135-8.98,0.135-9.245c0-0.264,0.348-0.448,0.623-0.373    c0.276,0.073,4.186,1.225,4.378,1.276c0.19,0.051,0.377-0.01,0.492-0.207"/>
		<path style="&st6;" d="    M229.28,133.541c-2.68-0.724-4.368-1.179-4.431-1.196c-0.746-0.2-1.435-0.152-1.547,1.07c-0.207,2.291-0.326,10.159-0.202,11.597    c0.209,2.409,0.692,3.629,1.302,5.587c1.64,5.262,5.763,15.42,9.188,21.813"/>
		<path d="M233.737,148.845l-4.94,-1.26" style="&st6;"/>
		<path d="M269.965,158.083l-4.608,-1.175" style="&st6;"/>
		<path style="&st6;" d="    M272.952,170.737c-1.05-1.875-2.7-7.463-2.775-7.913c-0.075-0.45-0.6-1.2-1.462-1.425c-2.966-0.774-20.216-5.344-20.425-5.4    c-1.022-0.273-2,0.113-1.633,1.374c0.915,3.148,1.483,4.864,1.808,5.614c0.325,0.75,1,1.175,2,1.45    c1,0.275,3.975,1.025,3.975,1.025"/>
		<path style="&st6;" d="    M273.964,171.612c-0.975-0.078-1.704,0.25-2.092,0.337c-0.397,0.088-0.959,0.163-2.433-0.212    c-1.214-0.309-12.658-3.321-13.025-3.4c-0.448-0.098-0.777-0.3-0.97-0.575c-0.238-0.341-0.381-0.555-0.557-0.874    c-0.122-0.219-0.261-0.545-0.345-1.068c-0.016-0.097-0.203-6.733-0.003-8.133"/>
		<path style="&st6;" d="    M247.453,162.629c-0.308,0.236-0.659,0.237-1.023,0.139c-0.364-0.098-13.633-3.678-14.154-3.819    c-0.52-0.139-0.827-0.362-1.083-0.709c-0.26-0.351-0.73-0.867-0.959-1.549c-0.52-1.554-1.383-4.066-1.608-4.741    c-0.225-0.675,0.038-1.087,0.413-1.162"/>
		<path style="&st6;" d="    M247.344,163.536c0.169-0.17,0.317-0.491,0.109-0.908c-0.207-0.415-2.331-6.439-2.475-6.958c-0.109-0.389-0.339-0.965-1.07-1.171    c-1.321-0.373-14.177-3.859-14.675-3.966c-0.499-0.107-0.761-0.025-0.95,0.163"/>
		<path d="M254.614,166.287l-24.862,-6.725" style="&st6;"/>
		<path style="&st6;" d="    M328.609,164.32c-0.327,0.048-0.589,0.4-0.628,0.607c-0.182,0.969-1.078,6.333-1.078,6.804c0,0.47,0.033,0.948,0.601,1.09    c0.566,0.141,10.983,2.902,11.361,2.998c0.586,0.146,1.173,0.086,1.25-0.142"/>
		<path style="&st6;" d="    M339.252,176.519c0.303-0.087,0.68-0.165,0.862-0.842c0.182-0.676,0.816-5.863,0.989-6.714c0.219-1.087-0.489-1.598-1.131-1.777    c-0.714-0.199-10.028-2.53-11.364-2.866c-0.102-0.027-0.696,0.03-0.952,0.29"/>
		<path d="M219.328,147.089l-48.41,-12.418" style="&st6;"/>
		<path style="&st6;" d="    M189.97,142.195c0.223-0.129,0.661-0.187,1.058-0.086c0.396,0.102,8.72,2.275,9.024,2.348c1.408,0.33,1.579,0.713,2.029,1.448    c0.132,0.214,0.404,0.861,0.712,1.64"/>
		<path style="&st6;" d="    M227.117,173.499c-9.173-2.408-38.823-10.149-39.168-10.206c-0.833-0.14-1.015-0.643-1.344-1.163l-2.549-0.703l-0.789-1.445"/>
		<path style="&st6;" d="    M191.028,142.109c0,0-0.303,0.359-0.184,0.813c0.126,0.477,0.731,2.367,0.87,2.763c0.139,0.396,0.63,0.573,0.927,0.653    c0.274,0.072,7.783,2.059,9.173,2.427"/>
		<path style="&st6;" d="    M193,148.462c0.208-0.49,0.566-1.877,0.566-1.877"/>
		<path style="&st6;" d="    M170.226,130.67c-0.099,1.956,0.758,4.105,1.306,5.991c1.975,6.8,6.658,16.615,9.297,21.3c0.589,1.047,1.591,1.638,2.439,2.021"/>
		<path style="&st6;" d="    M172.656,120.99c-0.093,0.26-0.358,1.192-0.68,2.381"/>
		<path style="&st6;" d="    M171.532,136.661c-0.773,0-1.467-0.037-2.003-0.181c-0.537-0.143-12.366-3.463-12.679-3.57c-0.492-0.165-0.728-0.243-0.806-0.471"/>
		<path style="&st6;" d="    M168.91,156.861c0.506,0.136,1.908,0.487,2.637,0.909c0.731,0.422,0.998,0.603,1.385,0.843c0.222,0.135,1.284,0.634,1.755,0.759    c2.633,0.705,8.577,2.329,8.856,2.403c0.279,0.076,0.656-0.029,0.983-0.218"/>
		<path style="&st6;" d="    M168.182,151.383c0.127-0.073,0.566-0.33,1.13-0.179c0.565,0.152,4.193,1.196,4.73,1.338c0.537,0.144,1.279,0.708,1.666,1.422    c0.387,0.714,1.602,3.413,2.157,4.216c0.367,0.531,0.557,0.761,0.723,0.927c0.223,0.224,0.41,0.447,0.406,0.595"/>
		<path style="&st6;" d="    M168.948,151.158c0,0-0.157,0.28-0.04,0.552c0.116,0.273,2.433,4.556,2.861,5.166c0.427,0.61,1.299,0.979,1.536,1.043    c0.237,0.065,3.96,1.144,4.435,1.272c0.474,0.127,0.769-0.003,0.855-0.09"/>
		<path d="M170.77,158.025l1.883,0.413" style="&st6;"/>
		<path style="&st6;" d="    M170.77,158.025c0,1.182,1.23,5.822,1.23,6.734c0,0.913,0.158,4.204,0.555,11.264c0.397,7.059,1.27,18.362-5.076,27.129    c-1.748,2.415-7.023,6.591-9.923,8.265c-2.9,1.674-15.375,8.775-15.375,8.775"/>
		<path style="&st6;" d="    M177.949,199.028c7.932-7.933,17.377-30.448,17.984-33.673"/>
		<path style="&st6;" d="    M165.767,130.153c-1.208-0.323-7.648-2.291-8.157-2.429c-0.193-0.052-0.423-0.144-0.629-0.272"/>
		<path style="&st6;" d="    M291.05,155.818c0,0,0.754,0.176,1.312,0.325c0.557,0.15,0.853,0.02,0.991-0.119c0.14-0.138,0.64-1.288,1.31-1.467    c0.668-0.178,6.37,0.425,10.113,1.429c2.295,0.615,5.236,1.559,7.349,2.513c2.34,1.056,4.215,2.123,4.798,2.737    c0.582,0.614,0.679,1.132,0.712,1.358c0.032,0.226,0.323,0.517,0.841,0.485"/>
		<path style="&st6;" d="    M339.129,115.638c5.483,7.504,10.775,14.928,12.66,17.551c2.05,2.853,6.584,9.123,8.214,11.876    c1.267,2.138,2.455,7.132,2.064,11.496c-0.444,4.965,0.448,11.391,0.746,14.484c0.298,3.094,3.034,33.197,3.034,33.674"/>
		<path style="&st6;" d="    M351.447,109.669c5.958,7.752,11.655,15.29,13.509,17.959c3.623,5.218,11.532,17.05,15.047,21.618    c1.494,1.941,2.862,3.022,3.542,3.26"/>
		<path style="&st6;" d="    M365.817,204.298c-0.351,0.203-0.571,0.238-0.571,0.646c0,0.793,0.35,5.424,0.579,7.236c0.04,0.312,0.076,0.54,0.106,0.65    c0.146,0.543,0.631,1.658,0.891,2.368c0.103,0.277,0.159,0.492,0.168,0.776c0.109,3.182-0.597,16.954-0.448,22    c0.06,2.062-0.417,4.601-1.043,6.537c-0.889,2.755-2.388,7.121-5.269,8.798c-4.955,2.883-22.823,13.383-22.823,13.383"/>
		<path style="&st6;" d="    M365.547,203.694c-0.421,0-0.726,0.005-1.045,0.159c-0.671,0.321-6.15,2.577-6.413,2.729c-0.264,0.152-0.599,0.104-0.693,0.079"/>
		<path style="&st6;" d="    M357.248,206.639c0,0,0.205-0.591-0.244-0.851c-0.449-0.259-2.864-1.634-3.306-1.888c-0.441-0.255-0.738-0.592-1.039-1.133    c-2.095-3.769-8.288-17.661-9.177-20.549c-0.888-2.885-1.194-3.91-1.271-4.572c-0.068-0.592-0.127-1.23,0-2.191    c0.378-2.842,1.653-9.33,1.765-10.155c0.112-0.825-0.075-1.003-0.403-1.078s-1.566-0.319-1.566-0.319"/>
		<path style="&st6;" d="    M357.648,206.488c0,0-0.781,0.543-1.046,0.695c-0.264,0.153-1.381-0.147-1.851-0.273c-0.578-0.154-1.986-0.928-2.219-1.064    c-0.233-0.135-0.929-0.458-1.241-0.585c-0.312-0.125-2.063-0.566-2.345-0.566c-0.283,0-0.387,0.097-0.387,0.216"/>
		<path style="&st6;" d="    M351.157,205.246c0,0-0.135,0.428-0.184,0.512c-0.083,0.141-0.454,0.224-1.015,0.088c-0.879-0.213-9.053-2.196-9.649-2.349    c-0.651-0.166-1.263-0.454-1.704-0.71c-0.441-0.254-0.905-0.587-1.213-1.122c-4.479-7.794-8.293-16.223-10.46-23.434    c-0.221-0.734-0.513-1.584-0.736-2.478c-0.238-0.955-0.542-2.272-0.493-3.789c0.018-0.585,0.915-8.147,0.985-9.106"/>
		<path style="&st6;" d="    M360.675,157.028c-0.19-0.047-0.487,0.013-0.587,0.07c0,0-3.518,1.357-3.71,1.469c-0.192,0.11-0.829,0.064-0.991,0.02    c-0.513-0.137-2.071-0.495-2.109-0.504c-0.037-0.011-0.18-0.134-0.18-0.304c0-0.171,0.047-0.522,0.152-0.928    c0.104-0.407,3.615-10.837,4.68-13.075"/>
		<path style="&st6;" d="    M326.625,163.112c0.079,0.079,0.209,0.113,0.385,0.158c1.245,0.312,8.69,2.099,11.867,2.893c0.9,0.225,1.087-0.075,1.35-0.825    c0.262-0.75,0.975-1.313,1.537-1.575s11.044-5.592,11.044-5.592"/>
		<path style="&st6;" d="    M354.177,137.129c-2.76,1.008-6.768,2.762-7.65,3.272c-0.881,0.508-1.818,0.975-2.827,2.961"/>
		<path style="&st6;" d="    M342.219,147.03c-0.167,0.669-1.154,4.343-1.755,6.982"/>
		<path style="&st6;" d="    M347.011,131.597c-0.929-0.355-2.632-0.388-3.333-0.388c-0.255,0-1.381,0.178-1.95,0.33c-0.329,0.088-1.724,0.617-2.983,1.129"/>
		<path style="&st6;" d="    M349.485,132.393c-0.288,0-4.23-0.369-4.687-0.369c-0.97,0-1.767,0.174-1.767,0.378c0,0.203,0.535,0.471,1.482,0.773    c0.574,0.184,8.987,3.085,9.595,3.249"/>
		<path style="&st6;" d="    M326.689,162.862c-0.123-0.124-0.933-2.385-0.994-2.694c-0.169-0.834-0.178-1.796-0.098-2.421c0.046-0.367,0.779-6.04,0.888-7.07    c0.106-1.008,0.967-5.495,1.137-6.247"/>
		<path style="&st6;" d="    M347.116,204.671c-0.209-0.121-0.421-0.308-0.635-0.615c-0.168-0.243-2.677-5.137-3.014-5.673    c-0.337-0.536-0.752-0.892-1.269-1.031c-1.927-0.516-4.877-1.196-5.375-1.328c-0.497-0.135-0.812,0.158-0.812,0.336"/>
		<path style="&st6;" d="    M336.823,196.023c-0.168,0.168-0.198,0.432-0.083,0.652c0.67,1.268,2.082,4.335,2.944,5.42c0.235,0.296,0.696,0.608,1.272,0.763    s4.895,1.15,5.525,1.198"/>
		<path style="&st6;" d="    M339.217,201.837c-0.11,0.111-0.366,0.502-0.92,0.355c-3.006-0.806-42.867-11.186-43.246-11.306    c-1.313-0.417-2.736-0.924-3.678-1.253"/>
		<path style="&st6;" d="    M299.797,119.537c-1.512-0.129-3.547,0.12-4.271,0.312c-0.724,0.194-2.811,0.939-5.058,1.923    c-2.062,0.903-3.885,1.995-4.966,2.727c-1.862,1.262-2.515,3.199-3.442,5.568c-0.792,2.026-1.482,4.582-2.273,7.778    c-0.52,2.104-0.93,4.971-1.203,6.412c-0.596,3.153-0.56,3.908-0.803,6.231c-0.278,2.66-0.467,5.801-0.375,8.701"/>
		<path style="&st6;" d="    M291.628,152.827c-0.18-0.01-0.525-0.044-0.938-0.152c-0.613-0.16-11.025-2.994-11.025-2.994"/>
		<path d="M326.401,162.204l-7.287,-1.867" style="&st6;"/>
		<path style="&st6;" d="    M323.989,156.1c-1.327-0.341-8.176-2.158-8.316-2.193c-0.74-0.192-1.206-0.528-1.548-0.741c-3.027-1.877-6.682-3.171-9.912-3.907    c-4.824-1.097-9.127-1.581-11.531-1.581c-0.542,0-0.782-0.018-1.424-0.188c-0.695-0.183-9.096-2.38-9.516-2.493"/>
		<path style="&st6;" d="    M302.818,128.317c-0.759-0.037-1.245,0.065-1.737,0.246c-1.002,0.369-2.985,1.363-4.429,2.15    c-1.087,0.593-1.772,1.238-2.439,2.374c-1.661,2.835-5.149,7.413-7.2,9.712c-0.17,0.19-0.156,0.65,0.238,0.762    c0.564,0.162,26.339,6.998,36.232,9.603c0.77,0.203,0.912-0.101,0.993-0.465"/>
		<path style="&st6;" d="    M314.578,185.047c0.613,0,1.754-0.361,2.742-1.711c1.444-1.974,1.332-5.762,1.194-6.474c-0.08-0.41-0.227-1.028-0.403-1.846    c-0.135-0.629-0.272-1.042-0.047-1.704c0.225-0.662,0.487-1.862,0.5-3.1c0.013-1.238-0.238-2.712-0.413-3.288    c-0.175-0.575-0.165-0.98-0.064-1.571c0.333-1.945,1.022-5.163,1.022-5.163c-0.223-0.583-0.668-1.399-1.141-2.264    c-0.473-0.862-1.291-2.104-2.198-2.656c-2.811-1.713-7.876-3.434-10.937-4.046c-4.778-0.955-8.919-1.524-10.348-1.169    c-2.242,0.556-2.705,2.342-2.872,2.814c-0.195,0.552-0.727,4.029-0.922,5.031c0,0-0.227,0.912-0.427,2.387    c-0.13,0.962-0.242,1.937-0.072,2.775c0.422,2.088,2.501,8.8,3.187,10.769c0.658,1.888,1.626,3.61,3.763,4.613    c3.149,1.479,6.662,2.758,9.889,3.482c3.229,0.722,8.082,2.388,10.289,1.41"/>
		<path style="&st6;" d="    M320.244,190.694c0.127-0.073,0.566-0.328,1.131-0.179c0.565,0.153,4.193,1.196,4.73,1.338c0.537,0.144,1.279,0.708,1.666,1.421    c0.387,0.715,1.711,3.579,2.265,4.38c0.367,0.533,0.284,0.431,0.616,0.764c0.105,0.104,0.445,0.451,0.311,0.583"/>
		<path style="&st6;" d="    M321.009,190.469c0,0-0.156,0.28-0.04,0.551c0.117,0.274,2.433,4.556,2.861,5.167c0.427,0.611,1.299,0.98,1.536,1.045    c0.237,0.063,3.96,1.143,4.435,1.271c0.474,0.127,0.769-0.004,0.855-0.09"/>
		<path style="&st6;" d="    M301.711,184.756c0-0.148,0.244-0.343,0.808-0.191c0.564,0.151,9.846,2.665,11.108,2.994c0.538,0.141,1.199,0.429,1.608,1.215    c0.393,0.752,1.026,2.103,1.58,3.165c0.299,0.574,0.281,0.882-0.038,0.969"/>
		<path style="&st6;" d="    M316.789,191.887c-0.277-0.075-8.036-2.071-10.525-2.75c-0.55-0.15-0.8-0.631-0.95-0.981c-0.15-0.35-1.175-2.419-1.35-2.719    s-0.125-0.4-0.125-0.525"/>
		<path style="&st6;" d="    M290.52,172.619c0.467,1.253,0.893,2.413,1.053,2.81c0.202,0.503-0.49,0.826-1.131,0.653c-0.642-0.172-3.781-1.025-4.245-1.147    c-0.8-0.216-1.362-0.51-1.798-1.483c-0.533-1.191-2.159-5.794-2.342-6.358c-0.212-0.652-0.271-1.412,0.595-1.268    c0.255,0.043,3.768,0.894,5.075,1.199c1.125,0.263,1.162,0.525,1.35,1.05C289.264,168.6,290.089,171.463,290.52,172.619z"/>
		<path style="&st6;" d="    M324.99,133.049c-1.805-1.464-3.601-2.89-4.284-3.381c-1.227-0.882-3.318-1.789-4.938-2.344    c-5.019-1.715-19.831-5.253-21.757-5.564c-1.65-0.266-4.744,0.509-5.686,1.053"/>
		<path style="&st6;" d="    M321.14,128.861c2.023,0,10.768,0.363,13.51,0.843c1.831,0.322,5.443,1.22,5.924,1.498"/>
		<path style="&st6;" d="    M286.449,143.198c-0.595,0-2.721,0.095-3.565-0.15"/>
		<path style="&st6;" d="    M286.492,152.87c-0.633-0.179-3.195-0.823-3.726-0.966c-0.737-0.198-1.382,0.244-1.556,1.036c-0.176,0.796-0.718,4.017-0.81,4.638    c-0.115,0.78,0.184,1.398,0.903,1.639c0.839,0.28,2.825,0.784,3.54,0.917c0.891,0.167,1.626-0.051,1.813-1    c0.085-0.43,0.638-3.593,0.696-4.485C287.427,153.487,287.095,153.041,286.492,152.87z"/>
		<path style="&st6;" d="    M158.875,119.65c-0.737-0.197-1.382,0.244-1.556,1.036c-0.175,0.796-0.771,5.015-0.863,5.636c-0.114,0.78-0.082,0.956,0.638,1.197    c0.838,0.28,8.486,2.639,9.201,2.771c0.891,0.167,1.465-0.207,1.653-1.155c0.187-0.946,1.123-4.755,1.208-5.323    c0.117-0.79-0.171-1.278-0.892-1.498C167.634,122.123,159.408,119.793,158.875,119.65z"/>
		<path style="&st6;" d="    M257.035,186.736c0.62-0.091,1.616,0.457,2.152,1.332c0.153,0.25,0.324,0.7,0.324,0.7"/>
		<path style="&st6;" d="    M252.619,190.303c-0.095,0.367-0.065,0.613,0.031,0.916c0.074,0.242,0.566,0.891,0.639,0.965"/>
		<path style="&st6;" d="    M252.65,191.219c-0.697,1.218-1.209,3.084-1.679,5.073c-0.47,1.987-1.436,8.421-1.436,9.388"/>
		<path style="&st6;" d="    M259.51,188.769c0.371,0.928-0.261,2.925-1.757,3.846c-1.636,1.01-3.461,0.834-4.464-0.431"/>
		<path style="&st6;" d="    M258.074,187.891c0,0-3.71-4.138-4.892-5.321c-1.182-1.184-9.741-8.529-10.842-9.63"/>
		<path style="&st6;" d="    M253.396,191.224c0,0-3.064-3.655-4.032-4.622c-0.967-0.969-7.922-10.8-8.66-12.043"/>
		<path style="&st6;" d="    M242.322,171.589c0.205,0.454,0.221,0.862,0.018,1.35c-0.275,0.656-0.863,1.228-1.635,1.62c-0.529,0.267-1.208-0.089-1.531-0.276    c-0.458-0.266-3.11-1.874-4.17-2.486c-1.061-0.613-2.618-1.666-2.856-3.034c-0.237-1.369-0.058-2.529,0.793-3.855    c0.751-1.17,2.211-2.18,3.937-1.977c2.147,0.254,2.767,2.529,3.272,3.659C240.655,167.722,241.577,169.943,242.322,171.589z"/>
		<path style="&st6;" d="    M249.535,205.68c0,0.911,0.903,2.29,3.408,2.961c1.15,0.311,6.421,1.491,8.018,1.918c1.598,0.428,4.895,0.643,6.956-0.186    c1.271-0.511,2.322-1.961,3.271-3.161s4.4-7.25,5.2-8.65c0.8-1.4,0.55-3.55-0.9-4.3s-5.925-1.786-8.012-2.643    c-1.021-0.419-5.791-2.59-8.29-3.551"/>
		<path style="&st6;" d="    M261.593,141.395c-0.061,1.03-0.477,1.816-1.644,1.478c-2.254-0.655-25.743-6.889-26.279-7.042    c-0.704-0.199-1.329-0.546-1.21-1.622c0.066-0.601,1.453-13.206,1.543-13.95c0.096-0.805,0.647-1.939,1.581-1.696"/>
		<path style="&st6;" d="    M260.532,143.628c0.656-0.211,1.04-0.921,1.04-1.587c0-2.775,1.602-11.631,1.724-13.693c0.144-2.426-0.838-2.803-2.023-3.118    c-1.184-0.318-13.063-3.334-14.275-3.658c-1.211-0.325-10.724-2.899-11.699-3.091c-0.774-0.152-1.357-0.039-1.775,0.284"/>
		<path style="&st6;" d="    M249.892,115.762c-0.212-0.056-0.394,0.064-0.457,0.426c-0.059,0.334-0.474,3.859-0.474,4.062c0,0.272,0.072,0.375,0.4,0.462    c0.33,0.089,12.025,3.108,12.178,3.149"/>
		<path style="&st6;" d="    M261.076,124.988c0.155-0.086,0.28-0.242,0.33-0.439l1.15-4.703c0.091-0.356-0.09-0.714-0.406-0.8l-13.988-3.748    c-0.158-0.042-0.32-0.007-0.453,0.083"/>
		<path style="&st6;" d="    M222.402,187.95c-0.863,1.988-1.425,6.038-1.762,8.363c-0.338,2.325-0.525,4.425-0.6,5.231c-0.075,0.806,0.056,1.35,0.244,2.044    c0.188,0.694,0.525,1.256,1.238,1.5c0.712,0.244,5.85,1.8,6.675,1.913s1.669,0.356,2.606-0.394s2.156-1.894,2.606-2.306    c0.45-0.413,0.581-1.275,1.238-1.875c0.656-0.6,3.975-3.506,5.344-4.575c1.369-1.069,3.637-1.763,5.344-1.969    c1.589-0.192,4.299-0.189,5.679-0.006"/>
		<path style="&st6;" d="    M237.177,173.325c0,0-4.819-1.181-6.019-1.481s-2.081-0.431-3.15,0.75s-3.506,4.125-4.387,5.212    c-0.881,1.088-1.125,1.575-1.331,2.231s-0.431,1.481-0.581,2.175c-0.15,0.694,0.019,1.481,0.15,2.381    c0.131,0.9,1.631,9.188,1.763,9.956c0.131,0.769,0.694,1.069,1.556,1.313c0.863,0.244,2.906,0.75,3.544,0.863    c0.637,0.112,1.444,0.075,2.4-0.263c0.956-0.337,4.95-2.475,6.656-3.506c1.706-1.031,2.794-1.988,3.769-2.738    c0.975-0.75,6.469-5.288,6.469-5.288"/>
		<path style="&st6;" d="    M223.239,181.237c-0.1,0.75-0.3,1.3,0.725,1.65c1.025,0.35,3.95,1.1,4.875,1.175c0.925,0.075,1.175,0.15,1.9-0.225    s3.525-1.725,4.65-2.625s5.35-4.275,5.675-4.625c0.325-0.35,0.225-0.875-0.125-1.1"/>
		<path style="&st6;" d="    M223.564,195.412c-0.131,0.975-0.525,4.331-0.525,5.063c0,0.731,0.038,1.631,1.275,2.025c1.238,0.394,3.375,0.881,4.275,1.087    c0.9,0.206,1.762,0.188,2.419-0.3"/>
		<path style="&st6;" d="    M225.158,200.4c0.019,0.6,0.169,0.956,0.713,1.125c0.544,0.169,1.35,0.356,1.612,0.375c0.263,0.019,0.75-0.075,0.788-0.712    s0.281-3.469,0.45-4.462"/>
		<path style="&st6;" d="    M225.664,201.225c-0.206-0.206-0.188-0.638-0.038-0.994c0.15-0.356,0.731-1.387,0.881-1.706c0.15-0.319,0.619-0.544,1.012-0.45    s0.975,0.244,0.975,0.244"/>
		<path style="&st6;" d="    M326.514,150.937c0,0,12,3.025,12.825,3.175c0.825,0.15,1.075,0.35,1.275,0.475c0.2,0.125,0.475,0.312,0.362,1.125    c-0.113,0.813-0.688,4.088-0.8,4.838c-0.113,0.75-0.1,1.388,0.3,1.85c0.4,0.462,1.063,1.225,1.063,1.225"/>
		<path style="&st6;" d="    M340.239,154.962c-0.375,1.7-1.15,5.5-1.25,6.525c-0.1,1.025-0.125,1.375,0.125,2.025c0.25,0.65,0.75,1.9,0.75,1.9"/>
		<path d="M225.343,109.481c2.488,0 4.505,2.655 4.505,5.931c0,3.276  -2.017,5.931 -4.505,5.931c-2.488,0 -4.505,-2.655 -4.505,-5.931c0,-3.276 2.017,-5.931 4.505,-5.931" style="&st6;" transform="matrix(-0.983 0.1834 -0.1834 -0.983 468.0296 187.5389)"/>
		<path d="M270.956,121.839c2.739,0 4.96,2.568 4.96,5.736c0,3.168  -2.221,5.736 -4.96,5.736c-2.739,0 -4.96,-2.568 -4.96,-5.736c0,-3.168 2.221,-5.736 4.96,-5.736" style="&st6;" transform="matrix(-0.983 0.1834 -0.1834 -0.983 560.7142 203.2915)"/>
		<path style="&st6;" d="    M325.527,161.925c-0.563-1.05-1.125-2.55-1.275-3.188s-0.264-2.086-0.2-3.188c0.075-1.287,2.034-11.679,2.275-13.075    c0.157-0.912-0.626-1.919-1.181-2.473c-0.555-0.556-6.301-5.742-7.494-6.652c-1.299-0.992-2.44-1.576-3.808-1.942    c-1.368-0.367-16.626-4.736-20.611-5.384c-0.969-0.158-1.6-0.07-2.107,0.066c-1.002,0.269-2.647,1.465-3.935,2.309    c-1.036,0.677-1.738,0.96-2.189,2.198c-0.867,2.377-2.907,10.165-3.444,13.497c-0.31,1.929-0.619,4.474-0.619,5.625"/>
		<path d="M334.003,138.473c2.719,0 4.923,2.594 4.923,5.794c0,3.2  -2.204,5.794 -4.923,5.794c-2.719,0 -4.923,-2.594 -4.923,-5.794c0,-3.2 2.204,-5.794 4.923,-5.794" style="&st7;" transform="matrix(-0.9899 0.1418 -0.1418 -0.9899 685.0909 239.7017)"/>
		<path style="&st6;" d="    M264.627,128.212c0.637,3.9,3.038,6.15,5.925,6.938c2.888,0.787,5.283-0.233,6.729-1.148c0.883-0.558,1.605-1.262,2.06-1.958    c0.612-0.935,0.938-2.342,0.938-4.327c0-4.809-3.435-8.71-7.67-8.709c-1.252,0-2.433,0.341-3.477,0.943    c-1.75,1.011-3.111,2.761-3.766,4.888"/>
	</g>
</g>
<g id="キャプション">
	<a ewd:figtype="jb" ewd:code="JC-CANNO.4" style="cursor:pointer;fill:#0000ff;" onmouseover="text_mouse_over(evt)" onmouseout="text_mouse_out(evt)">
		<text transform="matrix(1 0 0 1 431.625 75.208)"><tspan x="0" y="0" style="&st10;">No. 4 CAN Junction </tspan><tspan x="0" y="9.921" style="&st10;">Connector</tspan></text>
	</a>
	<path d="M429.051,77.29 l-16.312,0 l-89.369,82.115 " style="&st8;"/>
	<a ewd:figtype="jb" ewd:code="JC-CANNO.1" style="cursor:pointer;fill:#0000ff;" onmouseover="text_mouse_over(evt)" onmouseout="text_mouse_out(evt)">
		<text transform="matrix(1 0 0 1 431.625 51.208)"><tspan x="0" y="0" style="&st10;">No. 1 CAN Junction </tspan><tspan x="0" y="9.921" style="&st10;">Connector</tspan></text>
	</a>
	<path d="M429.051,53.29 l-16.312,0 l-89.369,106.115 " style="&st8;"/>
	<path d="M429.051,53.29 l-16.312,0 l-89.369,106.115 " style="&st9;"/>
	<a ewd:figtype="jb" ewd:code="JC-CANNO.2" style="cursor:pointer;fill:#0000ff;" onmouseover="text_mouse_over(evt)" onmouseout="text_mouse_out(evt)">
		<text transform="matrix(1 0 0 1 431.625 172.541)"><tspan x="0" y="0" style="&st10;">No. 2 CAN </tspan><tspan x="0" y="10" style="&st10;">Junction Connector</tspan></text>
	</a>
	<path d="M429.051,174.622 l-16.312,0 l-44.369,5.783 " style="&st8;"/>
	<path d="M429.051,174.622 l-16.312,0 l-44.369,5.783 " style="&st9;"/>
	<a ewd:figtype="jb" ewd:code="2" style="cursor:pointer;fill:#0000ff;" onmouseover="text_mouse_over(evt)" onmouseout="text_mouse_out(evt)">
		<text transform="matrix(1 0 0 1 2.2197 193.7256)"><tspan x="0" y="0" style="&st10;">Cowl Side </tspan><tspan x="0" y="10" style="&st10;">R/B Assembly</tspan></text>
	</a>
	<path d="M64.704,193.962 l17.916,0 l108.75,-42.057 " style="&st8;"/>
	<path d="M64.704,193.962 l17.916,0 l108.75,-42.057 " style="&st9;"/>
	<path d="M429.051,77.29 l-16.312,0 l-89.369,82.115 " style="&st9;"/>
	<text transform="matrix(1 0 0 1 3.103 305.1133)"><tspan style="&st10;" x="0" y="0">* 2:w/o VSC</tspan></text>
	<text transform="matrix(1 0 0 1 3.103 295.1924)"><tspan style="&st10;" x="0" y="0">* 1:w/ VSC</tspan></text>
</g>
</svg>