<?xml version="1.0"?>
<!-- Generator: Adobe Illustrator 18.1.1, SVG Export Plug-In . SVG Version: 6.00 Build 0)  -->
<!DOCTYPE svg PUBLIC "-//W3C//DTD SVG 1.0//EN" "http://www.w3.org/TR/2001/REC-SVG-20010904/DTD/svg10.dtd"[
	<!ENTITY ns_flows "http://ns.adobe.com/Flows/1.0/">
	<!ENTITY ns_svg "http://www.w3.org/2000/svg">
	<!ENTITY ns_xlink "http://www.w3.org/1999/xlink">
	<!ENTITY st0 "fill:none;stroke:#FFFFFF;stroke-width:0.2;">
	<!ENTITY st1 "fill:none;stroke:#000000;stroke-linecap:round;stroke-linejoin:round;">
	<!ENTITY st2 "fill:none;stroke:#000000;stroke-width:1.0;stroke-linecap:round;stroke-linejoin:round;">
	<!ENTITY st3 "fill:none;stroke:#000000;">
	<!ENTITY st4 "font-family:'Arial'; font-size:8px;">
	<!ENTITY st5 "font-family:'Arial'; font-size:10px;">
	<!ATTLIST svg
		xmlns:ewd CDATA #FIXED "http://shcl.co.jp/ewd"
		xmlns:a CDATA #FIXED "http://ns.adobe.com/AdobeSVGViewerExtensions/3.0/"
		ewd:ver CDATA #IMPLIED>
	<!ATTLIST a
		ewd:innerGroupID CDATA #IMPLIED
		ewd:figtype CDATA #IMPLIED
		ewd:code CDATA #IMPLIED
		ewd:pinNo CDATA #IMPLIED>
]>
<svg version="1.0" x="0px" y="0px" viewBox="0 0 510.436 643.664" style="enable-background:new 0 0 510.436 643.664;" xml:space="preserve" width="510.436" height="643.664" onload="call_execInitLoadProc_svg('inner')" ewd:ver="2.3.1.16" xmlns="&ns_svg;" xmlns:a="http://ns.adobe.com/AdobeSVGViewerExtensions/3.0/" xmlns:ewd="http://shcl.co.jp/ewd" xmlns:xlink="&ns_xlink;">
<script type="text/javascript" xlink:href="../../../../../system/js/ewd/fig/svgfig.js"/>
<g id="WAKU">
	<path d="M0.1,0.1v643.464h510.236v-643.464h-510.236z" style="&st0;"/>
</g>
<g id="レイヤ_xFF0D__1">
	<path d="M158.518,221.352 l0,229.461 l195.468,0 l0,-229.461 l-195.468,0 " style="&st1;"/>
</g>
<g id="キャプション">
	<a ewd:innerGroupID="2" style="cursor:pointer;">
		<g>
			<path d="M353.986,246.848 l-67.989,0 l0,178.47 l67.989,0 " style="&st2;"/>
			<path d="M285.997,272.344h67.989" style="&st2;"/>
			<path d="M285.997,297.839h67.989" style="&st2;"/>
			<path d="M285.997,323.335h67.989" style="&st2;"/>
			<path d="M285.997,348.831h67.989" style="&st2;"/>
			<path d="M285.997,374.326h67.989" style="&st2;"/>
			<path d="M285.997,399.822h67.989" style="&st2;"/>
			<path d="M284.804,271.341 l-0.271,0.47 l-0.094,0.533 l0.094,0.532 l0.271,0.471 l0.414,0.345 l0.507,0.187 l0.544,0 l0.507,-0.187 l0.413,-0.345 l0.272,-0.471 l0.094,-0.532 l-0.094,-0.533 l-0.272,-0.47 l-0.413,-0.346 l-0.507,-0.187 l-0.544,0 l-0.507,0.187 l-0.414,0.346 l0.395,0.711 l0,0.583 l0.373,0.445 l0.572,0.099 l0.505,-0.288 l0.197,-0.547 l-0.197,-0.547 l-0.505,-0.289 l-0.572,0.099 l0.425,0.737 " style="&st2;"/>
			<path d="M284.804,296.836 l-0.271,0.47 l-0.094,0.533 l0.094,0.533 l0.271,0.47 l0.414,0.346 l0.507,0.187 l0.544,0 l0.507,-0.187 l0.413,-0.346 l0.272,-0.47 l0.094,-0.533 l-0.094,-0.533 l-0.272,-0.47 l-0.413,-0.345 l-0.507,-0.187 l-0.544,0 l-0.507,0.187 l-0.414,0.345 l0.395,0.712 l0,0.583 l0.373,0.445 l0.572,0.099 l0.505,-0.289 l0.197,-0.547 l-0.197,-0.546 l-0.505,-0.289 l-0.572,0.099 l0.425,0.736 " style="&st2;"/>
			<path d="M284.804,322.332 l-0.271,0.471 l-0.094,0.532 l0.094,0.532 l0.271,0.471 l0.414,0.346 l0.507,0.186 l0.544,0 l0.507,-0.186 l0.413,-0.346 l0.272,-0.471 l0.094,-0.532 l-0.094,-0.532 l-0.272,-0.471 l-0.413,-0.345 l-0.507,-0.187 l-0.544,0 l-0.507,0.187 l-0.414,0.345 l0.395,0.711 l0,0.584 l0.373,0.445 l0.572,0.099 l0.505,-0.289 l0.197,-0.547 l-0.197,-0.547 l-0.505,-0.289 l-0.572,0.099 l0.425,0.737 " style="&st2;"/>
			<path d="M284.804,347.828 l-0.271,0.47 l-0.094,0.533 l0.094,0.532 l0.271,0.471 l0.414,0.346 l0.507,0.186 l0.544,0 l0.507,-0.186 l0.413,-0.346 l0.272,-0.471 l0.094,-0.532 l-0.094,-0.533 l-0.272,-0.47 l-0.413,-0.346 l-0.507,-0.186 l-0.544,0 l-0.507,0.186 l-0.414,0.346 l0.395,0.711 l0,0.583 l0.373,0.445 l0.572,0.1 l0.505,-0.289 l0.197,-0.547 l-0.197,-0.547 l-0.505,-0.289 l-0.572,0.1 l0.425,0.736 " style="&st2;"/>
			<path d="M284.804,373.323 l-0.271,0.471 l-0.094,0.532 l0.094,0.533 l0.271,0.471 l0.414,0.346 l0.507,0.186 l0.544,0 l0.507,-0.186 l0.413,-0.346 l0.272,-0.471 l0.094,-0.533 l-0.094,-0.532 l-0.272,-0.471 l-0.413,-0.346 l-0.507,-0.186 l-0.544,0 l-0.507,0.186 l-0.414,0.346 l0.395,0.711 l0,0.584 l0.373,0.445 l0.572,0.099 l0.505,-0.288 l0.197,-0.548 l-0.197,-0.546 l-0.505,-0.289 l-0.572,0.1 l0.425,0.735 " style="&st2;"/>
			<path d="M284.804,398.819 l-0.271,0.471 l-0.094,0.532 l0.094,0.533 l0.271,0.47 l0.414,0.346 l0.507,0.187 l0.544,0 l0.507,-0.187 l0.413,-0.346 l0.272,-0.47 l0.094,-0.533 l-0.094,-0.532 l-0.272,-0.471 l-0.413,-0.346 l-0.507,-0.186 l-0.544,0 l-0.507,0.186 l-0.414,0.346 l0.395,0.711 l0,0.584 l0.373,0.445 l0.572,0.099 l0.505,-0.289 l0.197,-0.547 l-0.197,-0.547 l-0.505,-0.288 l-0.572,0.099 l0.425,0.736 " style="&st2;"/>
			<text transform="matrix(0.88 0 0 1 357.2371 239.9701)"><tspan style="&st4;" x="0" y="0">1</tspan></text>
			<text transform="matrix(0.88 0 0 1 357.2371 265.4657)"><tspan style="&st4;" x="0" y="0">1</tspan></text>
			<text transform="matrix(0.88 0 0 1 357.2371 290.9603)"><tspan style="&st4;" x="0" y="0">1</tspan></text>
			<text transform="matrix(0.88 0 0 1 357.2371 316.4569)"><tspan style="&st4;" x="0" y="0">1</tspan></text>
			<text transform="matrix(0.88 0 0 1 357.2371 341.9539)"><tspan style="&st4;" x="0" y="0">1</tspan></text>
			<text transform="matrix(0.88 0 0 1 357.2371 367.45)"><tspan style="&st4;" x="0" y="0">1</tspan></text>
		</g>
	</a>
	<a ewd:innerGroupID="1" style="cursor:pointer;">
		<g>
			<path d="M158.518,246.848 l67.989,0 l0,178.47 l-67.989,0 " style="&st2;"/>
			<path d="M158.518,272.344h67.989" style="&st2;"/>
			<path d="M158.518,297.839h67.989" style="&st2;"/>
			<path d="M158.518,323.335h67.989" style="&st2;"/>
			<path d="M158.518,348.831h67.989" style="&st2;"/>
			<path d="M158.518,374.326h67.989" style="&st2;"/>
			<path d="M158.518,399.822h67.989" style="&st2;"/>
			<path d="M225.314,271.341 l-0.272,0.47 l-0.093,0.533 l0.093,0.532 l0.272,0.471 l0.413,0.345 l0.508,0.187 l0.544,0 l0.507,-0.187 l0.414,-0.345 l0.272,-0.471 l0.093,-0.532 l-0.093,-0.533 l-0.272,-0.47 l-0.414,-0.346 l-0.507,-0.187 l-0.544,0 l-0.508,0.187 l-0.413,0.346 l0.394,0.711 l0,0.583 l0.374,0.445 l0.572,0.099 l0.504,-0.288 l0.198,-0.547 l-0.198,-0.547 l-0.504,-0.289 l-0.572,0.099 l0.425,0.737 " style="&st2;"/>
			<path d="M225.314,296.836 l-0.272,0.47 l-0.093,0.533 l0.093,0.533 l0.272,0.47 l0.413,0.346 l0.508,0.187 l0.544,0 l0.507,-0.187 l0.414,-0.346 l0.272,-0.47 l0.093,-0.533 l-0.093,-0.533 l-0.272,-0.47 l-0.414,-0.345 l-0.507,-0.187 l-0.544,0 l-0.508,0.187 l-0.413,0.345 l0.394,0.712 l0,0.583 l0.374,0.445 l0.572,0.099 l0.504,-0.289 l0.198,-0.547 l-0.198,-0.546 l-0.504,-0.289 l-0.572,0.099 l0.425,0.736 " style="&st2;"/>
			<path d="M225.314,322.332 l-0.272,0.471 l-0.093,0.532 l0.093,0.532 l0.272,0.471 l0.413,0.346 l0.508,0.186 l0.544,0 l0.507,-0.186 l0.414,-0.346 l0.272,-0.471 l0.093,-0.532 l-0.093,-0.532 l-0.272,-0.471 l-0.414,-0.345 l-0.507,-0.187 l-0.544,0 l-0.508,0.187 l-0.413,0.345 l0.394,0.711 l0,0.584 l0.374,0.445 l0.572,0.099 l0.504,-0.289 l0.198,-0.547 l-0.198,-0.547 l-0.504,-0.289 l-0.572,0.099 l0.425,0.737 " style="&st2;"/>
			<path d="M225.314,347.828 l-0.272,0.47 l-0.093,0.533 l0.093,0.532 l0.272,0.471 l0.413,0.346 l0.508,0.186 l0.544,0 l0.507,-0.186 l0.414,-0.346 l0.272,-0.471 l0.093,-0.532 l-0.093,-0.533 l-0.272,-0.47 l-0.414,-0.346 l-0.507,-0.186 l-0.544,0 l-0.508,0.186 l-0.413,0.346 l0.394,0.711 l0,0.583 l0.374,0.445 l0.572,0.1 l0.504,-0.289 l0.198,-0.547 l-0.198,-0.547 l-0.504,-0.289 l-0.572,0.1 l0.425,0.736 " style="&st2;"/>
			<path d="M225.314,373.323 l-0.272,0.471 l-0.093,0.532 l0.093,0.533 l0.272,0.471 l0.413,0.346 l0.508,0.186 l0.544,0 l0.507,-0.186 l0.414,-0.346 l0.272,-0.471 l0.093,-0.533 l-0.093,-0.532 l-0.272,-0.471 l-0.414,-0.346 l-0.507,-0.186 l-0.544,0 l-0.508,0.186 l-0.413,0.346 l0.394,0.711 l0,0.584 l0.374,0.445 l0.572,0.099 l0.504,-0.288 l0.198,-0.548 l-0.198,-0.546 l-0.504,-0.289 l-0.572,0.1 l0.425,0.735 " style="&st2;"/>
			<path d="M225.314,398.819 l-0.272,0.471 l-0.093,0.532 l0.093,0.533 l0.272,0.47 l0.413,0.346 l0.508,0.187 l0.544,0 l0.507,-0.187 l0.414,-0.346 l0.272,-0.47 l0.093,-0.533 l-0.093,-0.532 l-0.272,-0.471 l-0.414,-0.346 l-0.507,-0.186 l-0.544,0 l-0.508,0.186 l-0.413,0.346 l0.394,0.711 l0,0.584 l0.374,0.445 l0.572,0.099 l0.504,-0.289 l0.198,-0.547 l-0.198,-0.547 l-0.504,-0.288 l-0.572,0.099 l0.425,0.736 " style="&st2;"/>
			<text transform="matrix(0.88 0 0 1 151.6575 239.9701)"><tspan style="&st4;" x="0" y="0">2</tspan></text>
			<text transform="matrix(0.88 0 0 1 151.6575 265.4657)"><tspan style="&st4;" x="0" y="0">2</tspan></text>
			<text transform="matrix(0.88 0 0 1 151.6575 290.9603)"><tspan style="&st4;" x="0" y="0">2</tspan></text>
			<text transform="matrix(0.88 0 0 1 151.6575 316.4569)"><tspan style="&st4;" x="0" y="0">2</tspan></text>
			<text transform="matrix(0.88 0 0 1 151.6575 341.9539)"><tspan style="&st4;" x="0" y="0">2</tspan></text>
			<text transform="matrix(0.8 0 0 1 151.8355 367.45)"><tspan style="&st4;" x="0" y="0">2</tspan></text>
		</g>
	</a>
	<g>
		<text transform="matrix(0.88 0 0 1 158.1699 205.5868)"><tspan style="&st5;" x="0" y="0">I119(F), I120(G), I121(H), I122(I), I123(J), I124(K)</tspan></text>
	</g>
	<g>
		<path d="M153.462,241.792c2.792,0 5.056,2.264 5.056,5.056c0,2.792  -2.264,5.056 -5.056,5.056c-2.792,0 -5.056,-2.264 -5.056,-5.056c0,-2.792 2.264,-5.056 5.056,-5.056" style="&st3;"/>
		<g>
			<text transform="matrix(0.88 0 0 1 151.297 249.5536)"><tspan style="&st4;" x="0" y="0">F</tspan></text>
		</g>
	</g>
	<g>
		<path d="M153.462,267.287c2.792,0 5.056,2.264 5.056,5.056c0,2.792  -2.264,5.056 -5.056,5.056c-2.792,0 -5.056,-2.264 -5.056,-5.056c0,-2.792 2.264,-5.056 5.056,-5.056" style="&st3;"/>
		<g>
			<text transform="matrix(0.88 0 0 1 150.7092 275.0492)"><tspan style="&st4;" x="0" y="0">G</tspan></text>
		</g>
	</g>
	<g>
		<path d="M153.462,292.782c2.792,0 5.056,2.264 5.056,5.056c0,2.792  -2.264,5.056 -5.056,5.056c-2.792,0 -5.056,-2.264 -5.056,-5.056c0,-2.792 2.264,-5.056 5.056,-5.056" style="&st3;"/>
		<g>
			<text transform="matrix(0.88 0 0 1 150.9052 300.5438)"><tspan style="&st4;" x="0" y="0">H</tspan></text>
		</g>
	</g>
	<g>
		<path d="M359.041,241.792c2.792,0 5.056,2.264 5.056,5.056c0,2.792  -2.264,5.056 -5.056,5.056c-2.792,0 -5.056,-2.264 -5.056,-5.056c0,-2.792 2.264,-5.056 5.056,-5.056" style="&st3;"/>
		<g>
			<text transform="matrix(0.88 0 0 1 356.8766 249.5536)"><tspan style="&st4;" x="0" y="0">F</tspan></text>
		</g>
	</g>
	<g>
		<path d="M359.041,267.287c2.792,0 5.056,2.264 5.056,5.056c0,2.792  -2.264,5.056 -5.056,5.056c-2.792,0 -5.056,-2.264 -5.056,-5.056c0,-2.792 2.264,-5.056 5.056,-5.056" style="&st3;"/>
		<g>
			<text transform="matrix(0.88 0 0 1 356.2888 275.0492)"><tspan style="&st4;" x="0" y="0">G</tspan></text>
		</g>
	</g>
	<g>
		<path d="M359.041,292.782c2.792,0 5.056,2.264 5.056,5.056c0,2.792  -2.264,5.056 -5.056,5.056c-2.792,0 -5.056,-2.264 -5.056,-5.056c0,-2.792 2.264,-5.056 5.056,-5.056" style="&st3;"/>
		<g>
			<text transform="matrix(0.88 0 0 1 356.4847 300.5438)"><tspan style="&st4;" x="0" y="0">H</tspan></text>
		</g>
	</g>
	<g>
		<path d="M153.462,318.279c2.792,0 5.056,2.264 5.056,5.056c0,2.792  -2.264,5.056 -5.056,5.056c-2.792,0 -5.056,-2.264 -5.056,-5.056c0,-2.792 2.264,-5.056 5.056,-5.056" style="&st3;"/>
		<g>
			<text transform="matrix(0.88 0 0 1 152.4692 326.0399)"><tspan style="&st4;" x="0" y="0">I</tspan></text>
		</g>
	</g>
	<g>
		<path d="M359.041,318.279c2.792,0 5.056,2.264 5.056,5.056c0,2.792  -2.264,5.056 -5.056,5.056c-2.792,0 -5.056,-2.264 -5.056,-5.056c0,-2.792 2.264,-5.056 5.056,-5.056" style="&st3;"/>
		<g>
			<text transform="matrix(0.88 0 0 1 358.0488 326.0399)"><tspan style="&st4;" x="0" y="0">I</tspan></text>
		</g>
	</g>
	<g>
		<path d="M153.462,343.775c2.792,0 5.056,2.264 5.056,5.056c0,2.792  -2.264,5.056 -5.056,5.056c-2.792,0 -5.056,-2.264 -5.056,-5.056c0,-2.792 2.264,-5.056 5.056,-5.056" style="&st3;"/>
		<g>
			<text transform="matrix(0.88 0 0 1 151.6872 351.536)"><tspan style="&st4;" x="0" y="0">J</tspan></text>
		</g>
	</g>
	<g>
		<path d="M359.041,343.775c2.792,0 5.056,2.264 5.056,5.056c0,2.792  -2.264,5.056 -5.056,5.056c-2.792,0 -5.056,-2.264 -5.056,-5.056c0,-2.792 2.264,-5.056 5.056,-5.056" style="&st3;"/>
		<g>
			<text transform="matrix(0.88 0 0 1 357.2668 351.536)"><tspan style="&st4;" x="0" y="0">J</tspan></text>
		</g>
	</g>
	<g>
		<path d="M153.462,369.272c2.792,0 5.056,2.264 5.056,5.056c0,2.792  -2.264,5.056 -5.056,5.056c-2.792,0 -5.056,-2.264 -5.056,-5.056c0,-2.792 2.264,-5.056 5.056,-5.056" style="&st3;"/>
		<g>
			<text transform="matrix(0.88 0 0 1 151.0994 377.0321)"><tspan style="&st4;" x="0" y="0">K</tspan></text>
		</g>
	</g>
	<g>
		<path d="M359.041,369.272c2.792,0 5.056,2.264 5.056,5.056c0,2.792  -2.264,5.056 -5.056,5.056c-2.792,0 -5.056,-2.264 -5.056,-5.056c0,-2.792 2.264,-5.056 5.056,-5.056" style="&st3;"/>
		<g>
			<text transform="matrix(0.88 0 0 1 356.679 377.0321)"><tspan style="&st4;" x="0" y="0">K</tspan></text>
		</g>
	</g>
	<text transform="matrix(1 0 0 1 158.1699 215.5081)"><tspan style="&st5;" x="0" y="0">No. 6 CAN Junction Connector</tspan></text>
</g>
</svg>